<svg xmlns="http://www.w3.org/2000/svg" width="24" height="644" viewBox="0 0 24 644">
  <g fill="#367BCC" fill-rule="evenodd">
    <path d="M19 7.52883322C19 7.39846125 18.9360906 7.27579488 18.8279631 7.19873887L15.7751674 4.27000829C15.6472321 4.17890089 15.4775838 4.16535942 15.3361908 4.23510645 15.1947978 4.30479681 15.1056625 4.4458773 15.1056625 4.60010263L15.1056625 6.24766373 10.5112927 6.24766373C10.2789001 6.24766373 10.0904926 6.43084173 10.0904926 6.65685381L10.0904926 8.40081263C10.0904926 8.62682471 10.2788419 8.81005936 10.5112927 8.81005936L15.1056625 8.81005936 15.1056625 10.4576205C15.1056625 10.6118458 15.1947978 10.7528696 15.3361908 10.8226167 15.4775838 10.8923637 15.6472904 10.8788222 15.7751674 10.7877148L18.8279631 7.85892757C18.9360906 7.78187156 19 7.65920519 19 7.52883322zM9.03498261 10.584899C8.53954013 10.582866 8.04409765 10.5808329 7.54865516 10.5869321 7.41277431 10.5889652 7.34169818 10.5483036 7.30616011 10.4242858 7.2329935 10.1823493 7.13265072 9.94651211 7.07411743 9.70254258 6.80653668 8.55995194 6.78563193 7.40516283 6.90687946 6.24630756 6.96750322 5.67094608 7.08038885 5.10168384 7.30825058 4.55885163 7.35424102 4.44906534 7.41277431 4.4043376 7.54238374 4.4043376 8.0315548 4.41246991 8.52072586 4.40840376 9.01198739 4.40637068 9.69557259 4.4043376 10.0969437 4.01398635 10.0990342 3.34510322 10.1011247 2.96491736 10.0990342 2.58879767 10.1011247 2.20861182 10.1011247 1.81826057 10.1053056 1.42790932 10.1011247 1.03755807 10.0927628.407303449 9.68302974.00881988218 9.03498261.00475372333 8.53744966.000687564486 8.04409765.012886041 7.54656469.000687564486 7.08666027-.0115109121 6.69365105.138936965 6.34872274.425601164 5.78847554.893209432 5.42473296 1.49500094 5.12579509 2.13542096 4.50283365 3.45692259 4.18299104 4.85771431 4.05547209 6.30323378 3.88196269 8.25702311 4.11400538 10.1620185 4.77250488 12.0141539 5.06935227 12.8477164 5.45190913 13.6385843 6.06650866 14.3054344 6.48878454 14.7649103 6.99049844 15.0332768 7.65108842 14.9966814 8.10263094 14.9722844 8.56044488 14.9946483 9.01407787 14.9926152 9.68721069 14.9885491 10.0990342 14.5920986 10.1011247 13.9435463 10.1032151 13.168943 10.1011247 12.3943397 10.0990342 11.6197365 10.0948532 10.9854157 9.68512022 10.5869321 9.03498261 10.584899zM12.015552 65.9812958C12.1093645 66.0750654 12.2423571 66.1185881 12.3734743 66.0983753L16.6173189 66.0694265C16.772409 66.0454645 16.9008762 65.9365353 16.9496374 65.7874657 16.9984394 65.6384368 16.9593 65.4746151 16.8483233 65.3636891L15.6627795 64.1786864 18.8780051 60.9649283C19.0406378 60.8023699 19.0406785 60.5388289 18.8780459 60.3762705L17.6231368 59.1219341C17.4605041 58.9593757 17.1968427 58.9593349 17.0341693 59.1219341L13.8189437 62.3356922 12.6334 61.1506896C12.5224233 61.0397635 12.3585675 61.0006827 12.2094299 61.0494217 12.0602922 61.0981607 11.9512725 61.2266099 11.9273403 61.3815885L11.898419 65.6235369C11.878197 65.7545942 11.9217396 65.8875262 12.015552 65.9812958zM14.6897474 69.2428854C14.2303801 68.789577 13.6569025 68.789577 13.2004612 69.2428854 12.8522783 69.5879848 12.5040955 69.9330841 12.1617645 70.2840326 12.0681355 70.3805435 11.989136 70.4010155 11.8750257 70.3366749 11.6497309 70.2138429 11.4098066 70.1144075 11.1932895 69.9798773 10.1838519 69.3452454 9.33826499 68.5292902 8.58923301 67.610975 8.21764293 67.1547419 7.88701553 66.6663386 7.65586894 66.1165193 7.60905444 66.0053856 7.61783216 65.9322714 7.70853525 65.8416097 8.05671809 65.505284 8.3961232 65.1601847 8.73845423 64.8150853 9.21537693 64.3354557 9.21537693 63.7739382 8.73552832 63.291384 8.46341905 63.0164743 8.19130977 62.7474138 7.91920049 62.4725042 7.6383135 62.1917454 7.36035241 61.908062 7.07653951 61.6302278 6.61717224 61.1827685 6.04369463 61.1827685 5.58725327 61.6331524 5.23614452 61.9782517 4.89966531 62.3321248 4.54270476 62.671375 4.21207736 62.9843041 4.04530071 63.3674228 4.01018983 63.8148821 3.95459762 64.5431003 4.13307789 65.2303744 4.38470582 65.9001011 4.89966531 67.2863476 5.68380817 68.5175919 6.63472768 69.6464762 7.91920049 71.1731021 9.45237534 72.3809498 11.2459558 73.2524719 12.0535059 73.6443644 12.8903151 73.9455952 13.8002719 73.9953129 14.4264158 74.0304077 14.9706344 73.8724809 15.4065944 73.3840776 15.7050369 73.0506765 16.0415161 72.7465212 16.3575139 72.427743 16.8256589 71.9539625 16.8285848 71.3807467 16.3633657 70.9128153 15.8074436 70.3542223 15.2485955 69.7985539 14.6897474 69.2428854zM16.8323256 191.703371C16.8323256 191.986517 16.6002164 192.206742 16.3017902 192.206742L6.38740942 192.206742C6.08898324 192.206742 5.85687399 191.986517 5.85687399 191.703371L5.85687399 182.296629C5.85687399 182.013483 6.08898324 181.793258 6.38740942 181.793258L13.218053 181.793258 15.1080855 180 5.7573986 180C4.79580314 180 4 180.755056 4 181.667416L4 192.332584C4 193.244944 4.79580314 194 5.7573986 194L16.9981179 194C17.9597134 194 18.7555165 193.244944 18.7555165 192.332584L18.7555165 188.211236 16.8654841 190.004494 16.8654841 191.703371 16.8323256 191.703371zM19.8165874 182.296629L18.9544673 181.478652C18.7223581 181.258427 18.357615 181.258427 18.1586642 181.478652L12.1569822 187.141573 9.47114658 184.593258C9.23903733 184.373034 8.87429423 184.373034 8.67534344 184.593258L7.81322338 185.411236C7.58111413 185.631461 7.58111413 185.977528 7.81322338 186.166292L11.7922391 189.941573C11.9248729 190.067416 12.1238237 190.130337 12.3227745 190.098876 12.4222499 190.067416 12.5217253 190.035955 12.6212007 189.941573L19.8829043 183.051685C20.0486966 182.862921 20.0486966 182.516854 19.8165874 182.296629L19.8165874 182.296629zM10.4311001 124.190474L6.15500634 119.972349C5.97580552 119.841131 5.73817676 119.821628 5.54012559 119.922081 5.34207441 120.022453 5.21722139 120.225645 5.21722139 120.44777L5.21722139 122.820681 2.86723906 122.820681C2.54172356 122.820681 2.27781853 123.084505 2.27781853 123.41002L2.27781853 125.921769C2.27781853 126.247285 2.54164195 126.51119 2.86723906 126.51119L5.21722139 126.51119 5.21722139 128.884101C5.21722139 129.106225 5.34207441 129.309336 5.54012559 129.40979 5.73817676 129.510243 5.97588713 129.49074 6.15500634 129.359522L10.4311001 125.141315C10.5825558 125.030335 10.6720746 124.853664 10.6720746 124.665895 10.6720746 124.478125 10.5825558 124.301454 10.4311001 124.190474zM11.505008 125.141397L15.7811017 129.359522C15.9603025 129.49074 16.1979313 129.510243 16.3959825 129.40979 16.5940336 129.309418 16.7188867 129.106225 16.7188867 128.884101L16.7188867 126.51119 19.068869 126.51119C19.3943845 126.51119 19.6582895 126.247366 19.6582895 125.921851L19.6582895 123.410102C19.6582895 123.084586 19.3944661 122.820681 19.068869 122.820681L16.7188867 122.820681 16.7188867 120.44777C16.7188867 120.225645 16.5940336 120.022535 16.3959825 119.922081 16.1979313 119.821628 15.9602209 119.841131 15.7811017 119.972349L11.505008 124.190555C11.3535523 124.301536 11.2640335 124.478207 11.2640335 124.665976 11.2640335 124.853745 11.3535523 125.030416 11.505008 125.141397zM3.71731449 240.905448L9.31448763 245.398758C9.44169611 245.500111 9.56890459 245.567679 9.72791519 245.567679L9.75971731 245.567679 9.85512367 245.567679 9.95053004 245.567679 9.98233216 245.567679C10.1413428 245.533895 10.2685512 245.500111 10.3957597 245.398758L15.9929329 240.905448C16.0883392 240.83788 16.1519435 240.736527 16.2155477 240.635174L16.2155477 243.608191 17.7738516 243.608191 17.7738516 239.790567C17.7738516 238.810823 17.0106007 238 16.0883392 238L3.68551237 238C2.76325088 238 2 238.810823 2 239.790567L2 248.067716C2 249.047461 2.76325088 249.858283 3.68551237 249.858283L10.0141343 249.858283 10.0141343 248.202853 4.06713781 248.202853C3.78091873 248.202853 3.55830389 247.966363 3.55830389 247.662305L3.55830389 240.668958C3.59010601 240.770311 3.65371025 240.83788 3.71731449 240.905448L3.71731449 240.905448zM14.5936396 239.65543L9.85512367 243.473054 5.11660777 239.65543 14.5936396 239.65543 14.5936396 239.65543zM19.8409894 248.574481L17.2332155 245.837954C17.1378092 245.736601 16.9787986 245.736601 16.8515901 245.804169 16.7243816 245.871738 16.6607774 246.006875 16.6607774 246.142012L16.6607774 247.696089 12.7173145 247.696089C12.5265018 247.696089 12.3674912 247.865011 12.3674912 248.067716L12.3674912 249.689362C12.3674912 249.892068 12.5265018 250.060989 12.7173145 250.060989L16.6607774 250.060989 16.6607774 251.615066C16.6607774 251.750203 16.7243816 251.88534 16.8515901 251.952909 16.9787986 252.020477 17.1060071 252.020477 17.2332155 251.919125L19.8409894 249.182598C19.9363958 249.115029 20 248.979892 20 248.878539 20 248.777186 19.9363958 248.642049 19.8409894 248.574481L19.8409894 248.574481zM18.1071429 525L4.89285714 525C3.85714286 525 3 525.88189 3 526.947507L3 537.052493C3 538.11811 3.85714286 539 4.89285714 539L18.1071429 539C19.1428571 539 20 538.11811 20 537.052493L20 526.947507C20 525.88189 19.1428571 525 18.1071429 525L18.1071429 525zM18.25 536.611549C18.25 536.942257 18 537.199475 17.6785714 537.199475L5.32142857 537.199475C5 537.199475 4.75 536.942257 4.75 536.611549L4.75 527.388451C4.75 527.057743 5 526.800525 5.32142857 526.800525L17.6785714 526.800525C18 526.800525 18.25 527.057743 18.25 527.388451L18.25 536.611549 18.25 536.611549zM16.25 533.120735L7 533.120735C6.75 533.120735 6.5 533.341207 6.5 533.635171L6.5 534.847769C6.5 535.104987 6.71428571 535.362205 7 535.362205L16.25 535.362205C16.5 535.362205 16.75 535.141732 16.75 534.847769L16.75 533.635171C16.7142857 533.377953 16.5 533.120735 16.25 533.120735L16.25 533.120735zM16.25 528.895013L7 528.895013C6.75 528.895013 6.5 529.115486 6.5 529.409449L6.5 530.622047C6.5 530.879265 6.71428571 531.136483 7 531.136483L16.25 531.136483C16.5 531.136483 16.75 530.91601 16.75 530.622047L16.75 529.409449C16.7142857 529.115486 16.5 528.895013 16.25 528.895013L16.25 528.895013zM18.1966605 296L5.17254174 296C4.20408163 296 3.4025974 296.810823 3.4025974 297.790567L3.4025974 303.466327 5.03896104 303.466327 5.03896104 298.702743C5.10575139 298.770311 5.13914657 298.83788 5.2393321 298.905448L11.1168831 303.398758C11.2504638 303.500111 11.3840445 303.567679 11.5510204 303.567679L11.5844156 303.567679 11.6846011 303.567679 11.7847866 303.567679 11.8181818 303.567679C11.9851577 303.533895 12.1187384 303.500111 12.2523191 303.398758L18.1298701 298.905448C18.2300557 298.83788 18.296846 298.736527 18.3636364 298.635174L18.3636364 305.696089C18.3636364 306.000148 18.1298701 306.236638 17.8293135 306.236638L11.7513915 306.236638 11.7513915 307.892068 18.2300557 307.892068C19.1985158 307.892068 20 307.081245 20 306.101501L20 297.824351C19.9666048 296.810823 19.1651206 296 18.1966605 296L18.1966605 296zM11.6512059 301.473054L6.67532468 297.65543 16.6270872 297.65543 11.6512059 301.473054 11.6512059 301.473054zM9.84786642 306.574481L7.10946197 303.837954C7.00927644 303.736601 6.84230056 303.736601 6.70871985 303.804169 6.57513915 303.871738 6.50834879 304.006875 6.50834879 304.142012L6.50834879 305.696089 2.36734694 305.696089C2.16697588 305.696089 2 305.865011 2 306.067716L2 307.689362C2 307.892068 2.16697588 308.060989 2.36734694 308.060989L6.50834879 308.060989 6.50834879 309.615066C6.50834879 309.750203 6.57513915 309.88534 6.70871985 309.952909 6.84230056 310.020477 6.97588126 310.020477 7.10946197 309.919125L9.84786642 307.182598C9.94805195 307.115029 10.0148423 306.979892 10.0148423 306.878539 10.0148423 306.743402 9.94805195 306.642049 9.84786642 306.574481L9.84786642 306.574481zM18.9054326 412L5.0945674 412C4.51509054 412 4 412.48951 4 413.109557L4 416.927739C4 417.515152 4.48289738 418.037296 5.0945674 418.037296L18.9054326 418.037296C19.4849095 418.037296 20 417.547786 20 416.927739L20 413.109557C20 412.48951 19.5171026 412 18.9054326 412L18.9054326 412zM18.4225352 416.04662C18.4225352 416.242424 18.2615694 416.405594 18.0684105 416.405594L5.9637827 416.405594C5.77062374 416.405594 5.60965795 416.242424 5.60965795 416.04662L5.60965795 413.958042C5.60965795 413.762238 5.77062374 413.599068 5.9637827 413.599068L18.0684105 413.599068C18.2615694 413.599068 18.4225352 413.762238 18.4225352 413.958042L18.4225352 416.04662 18.4225352 416.04662zM18.9054326 419.962704L5.0945674 419.962704C4.51509054 419.962704 4 420.452214 4 421.072261L4 424.890443C4 425.477855 4.48289738 426 5.0945674 426L18.9054326 426C19.4849095 426 20 425.51049 20 424.890443L20 421.072261C20 420.452214 19.5171026 419.962704 18.9054326 419.962704L18.9054326 419.962704zM18.4225352 424.009324C18.4225352 424.205128 18.2615694 424.368298 18.0684105 424.368298L5.9637827 424.368298C5.77062374 424.368298 5.60965795 424.205128 5.60965795 424.009324L5.60965795 421.920746C5.60965795 421.724942 5.77062374 421.561772 5.9637827 421.561772L18.0684105 421.561772C18.2615694 421.561772 18.4225352 421.724942 18.4225352 421.920746L18.4225352 424.009324 18.4225352 424.009324zM16.7772512 358.426145L7.18483412 358.426145C6.99526066 358.426145 6.8436019 358.281025 6.8436019 358.099626L6.8436019 356.75727C6.8436019 356.575871 6.99526066 356.430752 7.18483412 356.430752L16.7772512 356.430752C16.9668246 356.430752 17.1184834 356.575871 17.1184834 356.75727L17.1184834 358.099626C17.1563981 358.281025 16.9668246 358.426145 16.7772512 358.426145M16.7772512 362.48949L7.18483412 362.48949C6.99526066 362.48949 6.8436019 362.344371 6.8436019 362.162971L6.8436019 360.820616C6.8436019 360.639217 6.99526066 360.494097 7.18483412 360.494097L16.7772512 360.494097C16.9668246 360.494097 17.1184834 360.639217 17.1184834 360.820616L17.1184834 362.162971C17.1563981 362.344371 16.9668246 362.48949 16.7772512 362.48949M18.2938389 354L5.66824645 354C4.75829384 354 4 354.725597 4 355.596314L4 363.759286C4 364.630003 4.75829384 365.3556 5.66824645 365.3556L13.3270142 365.3556C13.4407583 365.3556 13.5165877 365.39188 13.5924171 365.46444L15.943128 367.895191C16.1706161 368.112871 16.549763 367.967751 16.549763 367.677512L16.549763 365.682119C16.549763 365.50072 16.7014218 365.3556 16.8909953 365.3556L18.3317536 365.3556C19.2417062 365.3556 20 364.630003 20 363.759286L20 355.596314C19.9620853 354.725597 19.2037915 354 18.2938389 354M18.314838 578.268542L5.66112168 578.268542C4.74724217 578.268542 3.97395951 579.041825 3.97395951 579.955705L3.97395951 585.08749 7.13738858 585.08749 7.13738858 585.08749 16.7682727 585.08749C16.9791679 585.08749 17.1197648 585.228086 17.1197648 585.438982L17.1197648 586.84495C17.1900632 587.055845 16.9791679 587.196442 16.7682727 587.196442L11.4255924 587.196442 11.4255924 590.219275 13.3236499 590.219275C13.4642467 590.219275 13.5345452 590.289573 13.6048436 590.359871L15.9246916 592.890615C16.1355868 593.10151 16.5573774 592.960913 16.5573774 592.679719L16.5573774 590.570767C16.5573774 590.359871 16.6979742 590.219275 16.9088695 590.219275L18.3851364 590.219275C19.2990159 590.219275 20.0722986 589.445992 20.0722986 588.532112L20.0722986 579.955705C19.9317017 579.041825 19.2287175 578.268542 18.314838 578.268542L18.314838 578.268542zM17.1197648 582.556746C17.1900632 582.767642 16.9791679 582.908238 16.7682727 582.908238L7.13738858 582.908238C6.92649331 582.908238 6.78589646 582.767642 6.78589646 582.556746L6.78589646 581.150778C6.78589646 580.939883 6.92649331 580.799286 7.13738858 580.799286L16.7682727 580.799286C16.9791679 580.799286 17.1197648 580.939883 17.1197648 581.150778L17.1197648 582.556746 17.1197648 582.556746zM6.22350907 586.42316C6.15321065 586.352861 5.94231538 586.352861 5.80171853 586.42316 5.66112168 586.493458 5.59082326 586.634055 5.59082326 586.774652L5.59082326 588.321217 1.37291783 588.321217C1.16202256 588.321217 1.02142571 588.461814 1.02142571 588.672709L1.02142571 590.289573C1.02142571 590.500468 1.16202256 590.641065 1.37291783 590.641065L5.59082326 590.641065 5.59082326 592.18763C5.59082326 592.328227 5.66112168 592.468824 5.80171853 592.539123 5.94231538 592.609421 6.08291223 592.609421 6.22350907 592.539123L9.03544603 589.797484C9.10574445 589.727186 9.17604288 589.586589 9.17604288 589.51629 9.17604288 589.375693 9.10574445 589.305395 9.03544603 589.235097L6.22350907 586.42316 6.22350907 586.42316zM18.7850451 630.862476C18.7850451 629.948597 18.0117624 629.175314 17.0978829 629.175314L4.58476349 629.175314C3.67088398 629.175314 2.89760131 629.948597 2.89760131 630.862476L2.89760131 639.438884C2.89760131 640.352764 3.67088398 641.126046 4.58476349 641.126046L5.99073196 641.126046C6.20162723 641.126046 6.34222408 641.266643 6.34222408 641.477538L6.34222408 643.586491C6.34222408 643.867685 6.6937162 644.008282 6.9749099 643.797386L9.29475788 641.266643C9.36505631 641.196345 9.43535473 641.126046 9.57595158 641.126046L12.1066948 641.126046 12.1066948 638.103214 6.20162723 638.103214C5.99073196 638.103214 5.85013512 637.962617 5.85013512 637.751722L5.85013512 636.345754C5.85013512 636.134858 5.99073196 635.994261 6.20162723 635.994261L13.2314696 635.994261 13.2314696 635.994261 18.8553435 635.994261 18.8553435 630.862476 18.7850451 630.862476zM15.9731081 633.533817C15.9731081 633.744712 15.8325113 633.885309 15.621616 633.885309L6.13132881 633.885309C5.92043354 633.885309 5.77983669 633.744712 5.77983669 633.533817L5.77983669 632.127848C5.77983669 631.916953 5.92043354 631.776356 6.13132881 631.776356L15.621616 631.776356C15.8325113 631.776356 15.9731081 631.916953 15.9731081 632.127848L15.9731081 633.533817 15.9731081 633.533817zM22.4405631 640.352764L19.6286262 637.611125C19.5583278 637.540827 19.3474325 637.540827 19.2068356 637.611125 19.0662388 637.681424 18.9959404 637.82202 18.9959404 637.962617L18.9959404 639.509183 14.7780349 639.509183C14.5671397 639.509183 14.4265428 639.649779 14.4265428 639.860675L14.4265428 641.477538C14.4265428 641.688434 14.5671397 641.829031 14.7780349 641.829031L18.9959404 641.829031 18.9959404 643.375596C18.9959404 643.516193 19.0662388 643.65679 19.2068356 643.727088 19.3474325 643.797386 19.4880293 643.797386 19.6286262 643.727088L22.4405631 640.98545C22.5108616 640.915151 22.58116 640.774554 22.58116 640.704256 22.58116 640.563659 22.5108616 640.423062 22.4405631 640.352764L22.4405631 640.352764zM.0341394026 473.795322L1.70697013 473.795322 1.70697013 480.967836 3.24324324 480.967836 3.24324324 472.315789 0 472.315789 0 473.795322.0341394026 473.795322zM8.19345661 475.371345C8.19345661 473.216374 10.0369844 471.479532 12.3243243 471.479532 14.5433855 471.479532 16.3869132 473.152047 16.455192 475.24269L17.9914651 475.24269C17.9231863 472.347953 15.3968706 470 12.2901849 470 9.14935989 470 6.58890469 472.412281 6.58890469 475.371345 6.58890469 478.330409 9.14935989 480.74269 12.2901849 480.74269L23.9658606 480.74269 23.9658606 479.295322 12.2901849 479.295322C10.0369844 479.263158 8.19345661 477.526316 8.19345661 475.371345L8.19345661 475.371345zM1.3314367 471.608187L3.92603129 471.608187 3.92603129 481 5.46230441 481 5.46230441 470.160819 1.3314367 470.160819 1.3314367 471.608187 1.3314367 471.608187zM10.3783784 475.371345C10.3783784 474.374269 11.2660028 473.538012 12.3243243 473.538012 13.3485064 473.538012 14.2019915 474.277778 14.2702703 475.24269L15.8065434 475.24269C15.7382646 473.473684 14.2019915 472.090643 12.3243243 472.090643 10.4125178 472.090643 8.84210526 473.570175 8.84210526 475.371345 8.84210526 477.172515 10.4125178 478.652047 12.3243243 478.652047L24 478.652047 24 477.204678 12.3243243 477.204678C11.2660028 477.204678 10.3783784 476.368421 10.3783784 475.371345z"/>
  </g>
</svg>
