<svg xmlns="http://www.w3.org/2000/svg" width="150" height="150" viewBox="0 0 150 150">
  <g fill="#FFFFFF" fill-rule="evenodd" opacity=".1" transform="translate(-14.37 -20.994)">
    <path d="M89.4317 168.3259C90.2837 165.9239 91.1877 163.3359 90.6607 160.7529 90.4987 159.9649 89.8857 158.8229 88.9967 158.6709 87.8087 158.4689 87.6727 160.0529 87.4617 160.8149 87.1107 162.0869 86.8207 162.9389 86.7747 164.0859 86.7427 164.8769 86.3657 166.0029 85.3667 165.7339 84.5947 165.5249 83.3157 162.8049 81.6407 161.2349 80.9147 160.5539 79.6897 159.4759 78.6067 159.6349 77.4557 159.8029 77.0757 160.9989 77.4517 161.9529 79.4267 166.9559 85.6077 175.2359 86.6337 174.9239 87.6597 174.6099 88.7257 170.3169 89.4317 168.3259M89.3617 154.9769C92.7617 154.6369 92.8927 159.7489 92.6977 161.9719 92.4047 165.3279 91.3417 168.4849 90.2537 171.6489 89.6777 173.3269 89.1197 175.0129 88.5327 176.6869 87.9267 178.4149 87.2897 178.7359 85.5937 177.9189 82.8767 176.6099 81.0507 173.8989 79.4167 171.4689 77.5757 168.7309 75.6307 165.3829 74.9937 162.1049 74.4307 159.2049 76.0787 155.7959 79.2707 155.9539 81.9517 156.0859 83.8547 158.8999 85.4157 160.8119 85.7907 159.7149 86.8187 155.2319 89.3617 154.9769M65.5943 149.7316C62.2263 149.3566 63.1593 144.3716 63.8093 142.2556 64.7903 139.0626 66.4763 136.2216 68.1863 133.3786 69.0943 131.8706 69.9843 130.3516 70.9013 128.8496 71.8473 127.2996 72.5313 127.1206 74.0063 128.2646 76.3693 130.0976 77.5783 133.1056 78.6593 135.8006 79.8763 138.8376 81.0693 142.4876 81.0073 145.7996 80.9513 148.7286 78.6453 151.6916 75.5833 150.8776 73.0113 150.1926 72.1883 146.2676 71.0713 144.0896 70.4793 145.0756 68.1143 150.0126 65.5943 149.7316M22.9049 173.6472C21.7069 174.5602 20.1009 177.1872 17.7279 176.6722 16.8439 176.4802 16.2879 175.9592 15.9419 175.1302 15.5599 174.2192 16.0329 173.5392 16.4209 172.7332 17.5099 170.4732 18.6289 169.3842 20.0529 167.3212 20.8059 166.2312 23.5449 163.0222 24.9429 164.4552 26.3899 165.9392 28.0229 173.3132 28.1769 175.6262 28.2419 176.5922 28.4019 177.9392 27.9469 178.8252 27.5779 179.5432 26.7629 180.4552 25.8699 179.8272 23.6199 178.2442 23.3659 173.2952 22.9049 173.6472M22.9049 23.6472C21.7069 24.5602 20.1009 27.1872 17.7279 26.6722 16.8439 26.4802 16.2879 25.9592 15.9419 25.1302 15.5599 24.2192 16.0329 23.5392 16.4209 22.7332 17.5099 20.4732 18.6289 19.3842 20.0529 17.3212 20.8059 16.2312 23.5449 13.0222 24.9429 14.4552 26.3899 15.9392 28.0229 23.3132 28.1769 25.6262 28.2419 26.5932 28.4019 27.9392 27.9469 28.8252 27.5779 29.5422 26.7629 30.4552 25.8699 29.8272 23.6199 28.2442 23.3659 23.2952 22.9049 23.6472M114.3951 129.8708C114.3431 129.8098 114.2931 129.7428 114.2461 129.6688 113.8011 128.9848 113.8441 128.0558 114.2261 127.3348 114.7031 126.4368 115.4621 126.0988 116.3021 125.6648 117.1251 125.2398 117.9621 124.8578 118.8381 124.5528 119.8951 124.1838 120.9861 123.9148 122.0931 123.7508 122.9461 123.6238 124.0161 123.3438 124.7641 123.9108 125.6061 124.5508 125.3921 126.0038 125.1301 126.8808 124.7281 128.2268 124.4811 129.6268 124.0291 130.9718 123.8411 131.5288 123.5761 132.0008 123.3441 132.5268 123.0741 133.1418 122.7941 133.7078 122.2781 134.1598 121.4031 134.9268 119.6361 134.8378 119.0471 133.7098 118.3441 132.3618 119.0791 130.8748 119.1131 129.4798 119.1171 129.2958 117.3531 129.9948 117.2171 130.0428 116.2521 130.3848 115.1371 130.7478 114.3951 129.8708M159.3287 145.8845C160.5247 143.7485 161.4907 139.8565 164.0857 139.2665 167.1767 138.5645 169.3717 141.6105 169.3207 144.5395 169.2617 147.8505 167.9357 151.4545 166.6087 154.4455 165.4297 157.0995 164.1117 160.0615 161.6827 161.8055 160.1657 162.8955 159.4897 162.6915 158.6007 161.1085 157.7397 159.5725 156.9057 158.0225 156.0537 156.4825 154.4487 153.5785 152.8687 150.6775 152.0047 147.4505 151.4327 145.3135 150.6827 140.2975 154.0617 140.0455 156.5897 139.8575 158.7737 144.8775 159.3287 145.8845M9.3287 145.8845C10.5247 143.7485 11.4907 139.8565 14.0857 139.2665 17.1767 138.5645 19.3717 141.6105 19.3207 144.5395 19.2617 147.8505 17.9357 151.4545 16.6077 154.4455 15.4297 157.0995 14.1117 160.0615 11.6827 161.8055 10.1657 162.8955 9.4897 162.6915 8.6007 161.1085 7.7397 159.5725 6.9057 158.0225 6.0537 156.4825 4.4487 153.5785 2.8687 150.6775 2.0047 147.4505 1.4327 145.3135.6827 140.2975 4.0617 140.0455 6.5897 139.8575 8.7737 144.8775 9.3287 145.8845M51.7525 162.3781C49.7235 162.2811 47.3605 162.3191 45.3675 162.8081 44.7985 162.9481 43.2725 163.4241 43.3865 164.2611 43.4945 165.0531 47.9495 165.1821 49.7845 165.0811 50.5895 165.0371 51.1915 165.5071 50.9815 166.2751 50.8005 166.9311 50.2375 167.4741 49.8355 168.1601 49.3805 168.9341 47.1015 170.9971 49.0645 172.3731 49.8355 172.9121 51.9755 170.7901 52.4555 170.2581 53.2015 169.4331 53.9465 168.6071 54.6905 167.7811 56.1115 166.2031 57.7715 163.7371 57.5215 163.2771 56.8105 161.9711 53.6775 162.4701 51.7525 162.3781M39.8035 165.0121C38.7075 164.1931 39.6645 162.8451 40.4355 162.1911 41.3875 161.3821 43.0775 161.1931 44.2765 160.9971 47.1455 160.5261 58.3735 159.9501 60.5995 161.2941 62.7485 162.5921 59.0845 166.4781 57.9685 167.7081 55.8545 170.0361 53.6115 172.5551 51.1615 174.5311 50.2885 175.2341 49.5925 176.0051 48.3705 175.7991 47.2605 175.6121 46.4645 175.0831 45.9785 174.0571 44.6725 171.3061 47.0815 169.3571 47.5385 167.2121 47.6905 166.5011 41.7625 166.4761 39.8035 165.0121M125.7345 156.5871C124.0885 157.3161 122.4285 154.3561 121.6415 152.3461 121.2445 151.3341 120.8825 150.3371 120.5885 149.2901 119.8915 146.8091 119.5535 143.6381 119.4145 142.6131 119.2095 141.0911 119.9185 140.8881 121.2445 140.9311 123.5375 141.0061 125.2535 141.6321 127.3255 142.5561 129.5065 143.5281 131.9295 145.1311 133.0705 147.3001 133.9015 148.8791 133.5805 150.5191 132.0885 151.4301 130.3565 152.4891 127.9845 150.6871 126.3455 149.8421 126.3995 150.6551 127.8335 155.6581 125.7345 156.5871M46.484 46.4025C46.402 48.4945 47.177 51.8345 45.428 53.2915 43.346 55.0255 40.491 53.5565 39.394 51.3055 38.154 48.7595 37.765 45.4995 37.616 42.7055 37.484 40.2265 37.338 37.4585 38.512 35.1865 39.244 33.7675 39.839 33.6605 41.13 34.5225 42.382 35.3575 43.62 36.2145 44.866 37.0575 47.216 38.6475 49.546 40.2435 51.456 42.3665 52.721 43.7735 55.24 47.3045 52.763 48.8075 50.91 49.9315 47.298 46.9545 46.484 46.4025M23.2218 94.9474C25.0538 94.0694 27.1158 92.9144 28.6378 91.5384 29.0718 91.1464 30.1888 90.0024 29.6918 89.3204 29.2208 88.6734 25.2378 90.6744 23.6708 91.6344 22.9828 92.0554 22.2298 91.9264 22.0508 91.1514 21.8988 90.4884 22.1358 89.7424 22.1648 88.9474 22.1978 88.0514 23.2258 85.1534 20.8448 84.8744 19.9098 84.7654 19.0338 87.6484 18.8628 88.3444 18.5988 89.4254 18.3338 90.5054 18.0708 91.5864 17.5688 93.6494 17.2788 96.6064 17.7168 96.8924 18.9628 97.7054 21.4838 95.7804 23.2218 94.9474M32.4888 86.9584C33.8428 87.1584 33.6398 88.8004 33.2718 89.7414 32.8178 90.9054 31.4188 91.8734 30.4568 92.6154 28.1558 94.3914 18.5458 100.2264 15.9488 100.0994 13.4408 99.9774 14.8218 94.8174 15.2208 93.2054 15.9768 90.1534 16.7548 86.8714 17.9738 83.9704 18.4098 82.9364 18.6558 81.9264 19.8288 81.5284 20.8948 81.1664 21.8468 81.2554 22.7618 81.9264 25.2168 83.7294 24.0208 86.5874 24.6368 88.6924 24.8408 89.3904 30.0698 86.5994 32.4888 86.9584M117.9371 96.0173C117.3831 96.2233 116.6611 98.1243 116.2381 99.1363 115.7111 100.3963 115.2541 101.6853 114.8741 102.9963 114.1271 105.5743 113.3781 108.5413 113.8161 111.2313 114.1001 112.9693 115.7411 117.5833 117.7771 114.8123 119.4101 112.5913 119.4291 109.4663 119.6431 106.8263 119.8761 103.9313 122.3351 106.9023 122.9471 108.0263 123.6571 109.3303 127.2801 113.3873 127.7911 109.8863 128.1811 107.2183 125.4251 104.6153 123.9161 102.7713 122.1141 100.5673 118.4901 95.8103 117.9371 96.0173M121.4661 109.3683C120.7931 112.1963 120.3361 116.0623 117.7961 117.9643 115.2331 119.8833 112.7721 116.3953 112.0971 114.2123 110.0821 107.6923 113.0241 100.8403 115.8661 94.9673 116.4871 93.6843 117.5721 92.1603 118.9281 93.7723 120.0871 95.1503 121.1991 96.5743 122.3381 97.9703 124.5451 100.6763 126.9751 103.3823 128.8161 106.3593 130.0491 108.3523 130.6691 112.5333 127.7141 113.4293 125.1231 114.2143 121.9681 109.9653 121.4661 109.3683M142.5704 153.6096C141.7744 153.6016 137.5504 159.2586 135.5004 162.6426 133.5094 165.9276 130.8354 170.4066 130.3214 174.2836 129.8824 177.6026 132.2634 181.7816 135.8214 178.9786 137.1534 177.9286 138.1324 176.0076 138.7504 174.4636 139.0704 173.6606 139.7394 172.3396 140.6334 171.1966 142.2094 169.1806 142.9764 174.0666 143.0914 174.5876 143.3874 175.9436 143.9564 177.2336 144.6584 178.4396 145.3274 179.5876 146.4404 181.6016 148.0934 181.0986 149.5864 180.6446 150.2984 178.0906 150.3814 176.7326 150.6534 172.2586 149.4764 168.4336 147.8664 164.3186 146.4104 160.5946 143.3654 153.6176 142.5704 153.6096M141.4104 177.1166C139.3604 180.5146 137.7084 183.9166 133.1734 183.6316 128.7684 183.3536 127.5744 177.3136 127.8404 173.7936 128.1834 169.2346 130.7824 164.7336 132.9644 160.8016 134.9824 157.1646 137.3904 153.0246 140.8004 150.5256 143.1474 148.8056 143.9864 151.7096 145.0124 153.5276 146.1334 155.5156 147.0414 157.6206 148.0084 159.6856 150.0874 164.1226 152.0444 168.6536 152.8464 173.5206 153.3714 176.6976 154.0354 184.2236 149.2444 184.6876 144.9924 185.0996 142.0074 178.1696 141.4104 177.1166M142.5704 3.6096C141.7744 3.6016 137.5504 9.2586 135.5004 12.6426 133.5094 15.9276 130.8354 20.4066 130.3214 24.2846 129.8824 27.6026 132.2634 31.7826 135.8214 28.9776 137.1534 27.9286 138.1324 26.0066 138.7504 24.4636 139.0704 23.6616 139.7394 22.3386 140.6334 21.1966 142.2094 19.1806 142.9764 24.0666 143.0914 24.5886 143.3874 25.9446 143.9564 27.2336 144.6584 28.4386 145.3274 29.5876 146.4404 31.6016 148.0934 31.0986 149.5864 30.6446 150.2984 28.0906 150.3814 26.7326 150.6534 22.2586 149.4764 18.4336 147.8664 14.3186 146.4104 10.5946 143.3654 3.6176 142.5704 3.6096M141.4104 27.1166C139.3604 30.5146 137.7084 33.9166 133.1734 33.6306 128.7684 33.3536 127.5744 27.3136 127.8404 23.7936 128.1834 19.2346 130.7824 14.7336 132.9644 10.8016 134.9824 7.1646 137.3904 3.0246 140.8004.5256 143.1474-1.1944 143.9864 1.7096 145.0124 3.5276 146.1334 5.5156 147.0414 7.6206 148.0084 9.6856 150.0874 14.1226 152.0444 18.6536 152.8464 23.5206 153.3714 26.6986 154.0354 34.2236 149.2444 34.6876 144.9924 35.0996 142.0074 28.1696 141.4104 27.1166M89.4317 18.3259C90.2837 15.9239 91.1877 13.3359 90.6607 10.7529 90.4987 9.9649 89.8857 8.8229 88.9967 8.6709 87.8087 8.4689 87.6727 10.0529 87.4617 10.8149 87.1107 12.0869 86.8207 12.9389 86.7747 14.0859 86.7427 14.8769 86.3657 16.0029 85.3667 15.7339 84.5947 15.5249 83.3157 12.8049 81.6407 11.2349 80.9147 10.5539 79.6897 9.4759 78.6067 9.6349 77.4557 9.8029 77.0757 10.9989 77.4517 11.9529 79.4267 16.9559 85.6077 25.2359 86.6337 24.9229 87.6597 24.6109 88.7257 20.3169 89.4317 18.3259M89.3617 4.9769C92.7617 4.6369 92.8927 9.7489 92.6977 11.9719 92.4047 15.3279 91.3417 18.4849 90.2537 21.6489 89.6777 23.3269 89.1197 25.0129 88.5327 26.6869 87.9267 28.4149 87.2897 28.7359 85.5937 27.9189 82.8767 26.6099 81.0507 23.8989 79.4167 21.4689 77.5757 18.7309 75.6307 15.3829 74.9937 12.1049 74.4307 9.2049 76.0787 5.7959 79.2707 5.9539 81.9517 6.0859 83.8547 8.8999 85.4157 10.8119 85.7907 9.7149 86.8187 5.2319 89.3617 4.9769M51.7525 12.3781C49.7235 12.2811 47.3605 12.3191 45.3675 12.8081 44.7985 12.9481 43.2725 13.4241 43.3865 14.2611 43.4945 15.0531 47.9495 15.1821 49.7845 15.0811 50.5895 15.0371 51.1915 15.5071 50.9815 16.2751 50.8005 16.9311 50.2375 17.4741 49.8355 18.1601 49.3805 18.9341 47.1015 20.9971 49.0645 22.3721 49.8355 22.9121 51.9755 20.7901 52.4555 20.2581 53.2015 19.4331 53.9465 18.6071 54.6905 17.7811 56.1115 16.2031 57.7715 13.7371 57.5215 13.2771 56.8105 11.9711 53.6775 12.4701 51.7525 12.3781M39.8035 15.0121C38.7075 14.1931 39.6645 12.8451 40.4355 12.1911 41.3875 11.3821 43.0775 11.1931 44.2765 10.9971 47.1455 10.5261 58.3735 9.9501 60.5995 11.2941 62.7485 12.5921 59.0845 16.4781 57.9685 17.7081 55.8545 20.0361 53.6115 22.5561 51.1615 24.5301 50.2885 25.2341 49.5925 26.0061 48.3705 25.8001 47.2605 25.6121 46.4645 25.0821 45.9785 24.0571 44.6725 21.3061 47.0815 19.3571 47.5385 17.2121 47.6905 16.5011 41.7625 16.4761 39.8035 15.0121M9.1065 125.0822C8.2315 124.2672 9.0325 122.6512 9.3885 121.8322 9.9325 120.5772 10.6305 119.3522 11.5305 118.0542 12.9095 116.0652 17.2675 110.9052 18.9265 109.7232 20.1535 108.8492 20.4305 109.4542 20.6445 110.6372 21.5445 115.6312 22.5685 120.5422 21.4875 125.6242 21.0705 127.5852 18.8715 130.2182 16.6965 128.6682 14.7745 127.2992 15.0195 124.6252 14.5645 122.5582 13.7825 123.1172 10.2215 126.1202 9.1065 125.0822M159.1065 125.0822C158.2315 124.2672 159.0325 122.6512 159.3885 121.8322 159.9325 120.5772 160.6305 119.3522 161.5305 118.0542 162.9095 116.0652 167.2665 110.9052 168.9265 109.7232 170.1535 108.8492 170.4295 109.4542 170.6435 110.6372 171.5445 115.6312 172.5685 120.5422 171.4885 125.6242 171.0715 127.5852 168.8715 130.2182 166.6975 128.6682 164.7745 127.2992 165.0195 124.6252 164.5645 122.5582 163.7825 123.1172 160.2215 126.1202 159.1065 125.0822M65.6578 41.5158C65.1858 44.1418 71.6238 42.0518 74.2828 40.9058 75.8548 40.2278 77.9198 39.4128 79.4778 38.7028 80.1408 38.4008 81.3288 38.2148 81.3578 37.7088 81.8098 36.3988 76.9608 33.6308 75.0018 32.6078 72.2378 31.1638 66.3778 28.1288 65.5608 29.5278 63.6698 31.6478 68.4498 34.4208 71.1618 36.0338 73.0118 37.1338 71.9398 38.3248 70.3888 38.8758 68.5828 39.5178 65.6418 40.9288 65.6578 41.5158M67.4978 37.8408C65.2168 36.2868 62.8248 34.9888 62.2128 32.0748 61.9808 30.9708 61.7598 27.1508 65.9458 26.5858 69.0948 26.1618 73.7218 28.9818 75.2068 29.6798 78.0318 31.0078 86.0968 36.7738 85.3918 37.8948 84.7548 38.9078 82.6258 39.4008 81.5878 39.7928 78.2288 41.0588 75.0248 42.7218 71.6688 43.9748 69.2538 44.8778 64.3478 46.2938 62.5738 43.6178 61.1408 41.4568 66.2738 38.7278 67.4978 37.8408M114.4215 29.1706C111.9985 28.6236 111.5315 32.2686 111.0075 34.9266 110.6355 36.8096 110.4185 38.9816 109.3385 40.5946 107.7885 42.9096 106.1845 40.7186 105.3115 39.0096 104.3525 37.1326 103.3865 35.7866 101.7935 34.3546 100.8455 33.5016 99.8575 32.9976 99.0645 34.2716 98.6295 34.9696 98.6325 35.8166 98.8495 36.5866 99.5495 39.0716 100.7505 41.0356 102.0915 43.2196 104.6885 47.4476 109.4785 55.2096 111.1475 55.0006 114.5615 54.5126 114.7985 47.4076 115.3955 43.1496 116.0215 38.6896 116.8445 29.7176 114.4215 29.1706M106.1385 34.7546C106.8855 31.3406 107.4925 27.2396 111.0465 25.5796 115.6385 23.4346 117.8845 26.9556 119.0545 31.8546 121.2255 40.9436 117.6735 54.6166 114.9755 57.6556 114.3135 58.4006 113.6765 59.5966 112.6855 59.5286 111.2995 59.4326 110.9225 59.0056 110.1145 58.1906 108.5485 56.6106 107.3265 55.2296 105.9445 53.4906 102.9605 49.7366 100.1325 45.9836 97.5455 41.9426 95.7175 39.0876 92.1215 33.0136 95.8615 30.2186 98.8685 27.9716 104.9895 33.8376 106.1385 34.7546M101.9703 95.5734C104.5123 95.8814 103.7703 99.6404 103.2633 101.2334 102.4993 103.6384 101.2053 105.7724 99.8923 107.9064 99.1953 109.0394 98.5123 110.1794 97.8083 111.3084 97.0823 112.4724 96.5643 112.6024 95.4583 111.7264 93.6863 110.3254 92.7953 108.0444 91.9993 106.0004 91.1013 103.6974 90.2273 100.9304 90.2993 98.4304 90.3623 96.2184 92.1263 93.9964 94.4333 94.6344 96.3713 95.1704 97.3023 97.5384 98.1303 99.1924 98.5843 98.4514 100.0693 95.3434 101.9703 95.5734M76.7013 89.072C76.1243 88.809 73.2853 91.026 71.5003 92.88 70.5653 93.85 69.6313 94.822 68.6973 95.795 68.0963 96.421 65.7133 99.19 66.4323 100.075 68.2633 102.331 70.5623 99.398 71.4583 98.782 72.2533 98.237 72.8613 97.51 73.6393 97.235 74.5493 96.914 75.1693 97.602 75.1853 98.579 75.2203 100.806 75.7583 106.181 76.7253 106.243 77.7473 106.309 78.1923 104.423 78.3113 103.724 78.7323 101.273 78.5753 98.413 78.2843 95.968 78.0073 93.649 78.3413 89.819 76.7013 89.072M72.8023 101.478C70.2473 102.215 68.0983 105.293 64.6603 103.95 63.3793 103.45 62.6703 102.534 62.3483 101.208 61.9943 99.748 62.8683 98.842 63.6433 97.725 65.8203 94.593 68.6743 91.666 71.3073 88.911 72.6983 87.456 77.0813 82.694 78.8353 85.18 80.6513 87.756 80.9183 101.379 80.5953 104.887 80.4603 106.354 80.3773 108.413 79.4813 109.634 78.7563 110.621 77.2093 111.894 76.1243 110.639 74.1863 108.397 73.6493 101.233 72.8023 101.478M61.3707 109.9914C62.1777 109.0144 63.3807 109.9604 63.9507 110.7024 64.6557 111.6184 64.7527 113.1894 64.8807 114.3064 65.1867 116.9794 65.2147 127.3844 63.8717 129.3804 62.5757 131.3084 59.1477 127.7474 58.0617 126.6604 56.0047 124.6014 53.7767 122.4154 52.0617 120.0614 51.4507 119.2224 50.7687 118.5454 51.0147 117.4244 51.2377 116.4064 51.7637 115.6954 52.7327 115.2914 55.3347 114.2084 57.0267 116.5224 58.9897 117.0414 59.6407 117.2134 59.9297 111.7364 61.3707 109.9914M42.4068 152.5676C45.9888 150.6776 50.5428 148.1786 52.4298 144.4366 53.2048 142.8996 54.2328 140.1146 52.7908 138.6456 51.5438 137.3736 49.0278 138.2456 47.6698 138.8896 45.7898 139.7816 44.5168 140.8226 42.8138 142.0046 41.8088 142.7016 40.5748 143.2716 39.5898 142.3176 38.3458 141.1146 39.0378 138.9706 39.3058 137.6296 39.6638 135.8336 39.5968 133.9806 39.0748 132.2236 38.4538 130.1316 37.1968 128.7416 35.1228 128.0196 33.1678 127.3386 31.8328 129.3746 31.0918 130.9006 29.2168 134.7656 28.5858 138.8716 28.6518 143.1386 28.6868 145.3556 28.6288 147.5936 28.9728 149.7796 29.3188 151.9706 29.2398 155.5636 30.6198 156.3536 31.2888 156.7366 38.5838 154.5856 42.4068 152.5676M49.0488 136.6336C50.9808 136.2576 53.4248 135.7766 55.2538 136.7546 59.8808 139.2296 55.9188 146.2266 53.3218 148.5976 49.8348 151.7816 45.0928 154.2616 40.6498 155.7936 38.3738 156.5776 36.0198 157.1006 33.6798 157.6556 31.7978 158.1026 28.6638 158.9866 27.3998 156.9506 26.3068 155.1926 26.1418 152.1846 25.8838 150.1606 25.5518 147.5556 25.2908 144.9416 25.1248 142.3196 24.8358 137.7756 25.9278 133.4976 28.0518 129.4866 30.1188 125.5796 36.2728 124.2106 39.7738 126.8806 43.4858 129.7116 43.3888 134.4106 43.0378 138.6036 43.5698 138.4086 46.9468 137.0426 49.0488 136.6336M169.5284 61.8376C170.4104 61.4496 171.0494 58.5236 171.5944 56.9046 172.1594 55.2356 172.6584 53.5446 173.0794 51.8326 173.9734 48.1986 174.8154 44.2726 174.1654 40.5396 173.9064 39.0536 172.6124 38.3966 171.2054 38.7706 169.5124 39.2196 168.5494 40.5806 167.6714 41.9886 165.9144 44.8056 165.3814 46.9316 165.3204 50.1756 164.0724 51.1756 159.3804 46.7886 158.3484 45.8586 155.7754 43.5416 151.8754 44.6556 153.4574 48.5226 154.1304 50.1686 155.7364 51.7286 156.8934 53.0596 158.0234 54.3606 165.8884 63.4416 169.5284 61.8376M161.9844 44.1266C162.8484 42.4446 163.4534 40.6446 164.8744 39.3256 166.1974 38.0966 167.9604 37.2196 169.7104 36.8006 173.0464 36.0016 177.6354 37.7596 178.3914 41.4346 179.2454 45.5786 178.0394 50.4196 176.9044 54.3956 176.3114 56.4746 173.5484 63.2226 171.9994 64.6556 168.3504 68.0326 164.1644 64.1096 161.6194 62.6156 157.9704 60.4726 155.2474 57.8406 152.6324 54.4856 151.3774 52.8746 149.8304 51.2656 150.0154 49.1186 150.1884 47.1086 150.9754 44.6086 152.3424 43.1316 155.3764 39.8576 161.1854 43.6006 161.9844 44.1266M132.129 55.5476C130.196 54.4716 129.213 53.0406 129.804 50.8736 130.477 48.4036 132.26 48.2066 134.492 47.8726 134.455 45.8636 134.006 43.9696 136.24 43.1176 137.736 42.5466 139.375 42.7476 140.544 43.8886 143.367 46.6466 142.756 55.0046 142.582 55.3416 142.409 55.6786 135.643 57.5046 132.129 55.5476M19.5284 61.8376C20.4094 61.4496 21.0484 58.5236 21.5944 56.9046 22.1584 55.2356 22.6584 53.5446 23.0794 51.8326 23.9734 48.1986 24.8154 44.2726 24.1654 40.5396 23.9064 39.0536 22.6124 38.3966 21.2054 38.7706 19.5124 39.2196 18.5494 40.5806 17.6714 41.9886 15.9144 44.8056 15.3814 46.9316 15.3204 50.1756 14.0724 51.1756 9.3804 46.7886 8.3484 45.8586 5.7754 43.5416 1.8754 44.6556 3.4574 48.5226 4.1304 50.1686 5.7364 51.7286 6.8934 53.0596 8.0234 54.3606 15.8894 63.4416 19.5284 61.8376M11.9844 44.1266C12.8484 42.4446 13.4534 40.6446 14.8744 39.3256 16.1964 38.0966 17.9594 37.2196 19.7094 36.8006 23.0454 36.0016 27.6354 37.7596 28.3924 41.4346 29.2444 45.5786 28.0384 50.4196 26.9044 54.3956 26.3114 56.4746 23.5484 63.2226 21.9994 64.6556 18.3514 68.0326 14.1644 64.1096 11.6194 62.6156 7.9704 60.4726 5.2474 57.8406 2.6324 54.4856 1.3774 52.8746-.1696 51.2656.0154 49.1186.1884 47.1086.9754 44.6086 2.3424 43.1316 5.3764 39.8576 11.1854 43.6006 11.9844 44.1266M43.4278 110.218C44.1458 107.833 37.3998 106.035 35.0988 105.827 32.9478 108.719 34.5868 115.089 35.9688 114.279 37.4018 113.438 37.2348 112.417 37.0328 111.044 36.8838 110.03 37.3228 109.464 38.1718 109.294 39.1778 109.093 39.6208 109.362 40.5058 109.747 41.4888 110.176 43.1858 111.019 43.4278 110.218M33.8768 103.421C34.2368 103.301 42.5898 103.99 44.8768 107.206 45.8238 108.537 45.7688 110.187 44.9728 111.577 43.7858 113.653 41.9848 112.916 40.0058 112.568 39.3308 114.722 38.8598 116.453 36.3158 116.737 34.0838 116.985 32.8218 115.793 32.0568 113.717 30.6678 109.943 33.5168 103.54 33.8768 103.421M126.6554 76.3605C127.5794 76.7115 128.5524 78.3885 128.2834 79.3925 127.8594 80.9695 126.7534 82.2605 126.4164 83.9355 126.1294 85.3615 125.8764 87.1665 126.8534 88.3955 127.7254 89.4925 129.3464 90.0325 130.5604 89.1775 133.5444 87.0775 135.0584 83.1625 135.5874 79.6405 135.8804 77.6825 135.4004 75.4455 135.2374 73.4815 135.1444 72.3645 135.3844 68.4305 134.1994 68.0495 132.6564 67.5525 130.8694 67.9345 129.3084 68.1505 127.4454 68.4065 125.5904 68.7655 123.7974 69.3435 120.4364 70.4285 117.1544 72.5955 114.9004 75.3405 113.0084 77.6445 115.5454 80.6435 118.0714 80.8775 121.4484 81.1895 125.9124 77.0015 126.6554 76.3605M124.1374 82.9195C122.4504 83.5765 120.4824 84.6175 118.6354 84.5485 117.0424 84.4885 115.4004 83.2435 114.3624 82.1075 112.1784 79.7155 111.4794 75.1745 113.4264 72.4945 115.7174 69.3385 119.3554 67.0035 123.0524 65.8625 125.0304 65.2525 127.0834 64.9445 129.1204 64.5985 130.8524 64.3055 132.5284 64.8485 134.1854 65.2765 135.6594 65.6565 136.4714 67.9885 136.6414 69.2775 136.9194 71.3845 136.9404 73.5355 137.1334 75.6525 137.5184 79.8915 137.9174 83.4655 136.0484 87.4625 134.7654 90.2075 131.3784 94.7985 127.8774 92.5015 124.9514 90.5815 124.2404 85.5255 124.1374 82.9195M91.9801 136.485C92.9651 137.918 96.0901 136.634 97.2281 135.641 98.8871 134.194 100.2041 132.405 101.3081 130.51 101.9101 129.479 102.8571 127.738 101.7741 126.8 101.1701 126.277 100.3901 125.607 99.7081 125.196 97.6731 123.97 96.3451 122.89 93.9101 122.707 92.1911 122.578 89.0841 122.496 89.2041 125.132 89.2481 126.094 92.4581 127.446 93.4491 127.697 94.3361 127.922 95.8151 128.61 96.0151 129.627 96.1931 130.531 94.9951 131.147 94.4151 131.589 92.8301 132.797 91.0011 135.06 91.9801 136.485M91.8001 129.084C89.3611 127.704 86.4161 126.008 86.2801 122.814 86.1501 119.768 89.1921 119.059 91.6111 119.252 94.8651 119.511 97.5241 121.766 100.1061 123.55 102.0941 124.924 106.3061 127.587 104.9331 130.519 103.1431 134.34 100.0571 138.236 95.9381 139.785 93.3321 140.766 90.7571 139.628 89.1771 137.409 87.1671 134.587 91.1641 129.859 91.8001 129.084M91.7892 75.9367C91.7462 76.7507 91.6242 78.3637 93.0222 77.7917 94.6112 77.1427 95.6112 74.8937 96.1482 73.8517 96.5642 73.0447 97.5782 73.4467 97.6212 74.2727 97.7262 76.3327 97.9712 77.2337 99.6022 78.8057 100.2662 79.4437 101.1682 79.9467 102.0892 79.5197 102.8772 79.1537 103.4452 74.7787 101.6782 70.5317 100.8252 68.4827 98.7802 65.2567 98.3982 65.1897 98.0162 65.1227 92.0152 71.6997 91.7892 75.9367M90.2222 80.2757C88.3812 79.2367 89.6102 75.6317 90.7642 73.3757 91.3452 72.2387 91.9392 71.1447 92.6312 70.0697 94.2692 67.5257 96.7942 64.7587 97.5872 63.8397 98.7652 62.4737 99.4962 62.9387 100.4892 64.1387 102.2092 66.2127 103.2682 68.2667 104.0692 70.8077 104.9132 73.4827 105.1172 76.8027 104.0982 79.4947 103.3562 81.4547 101.3332 82.2967 99.3712 81.6957 97.0902 80.9977 96.4712 79.1757 95.9372 77.0757 95.2642 77.7567 92.0622 81.3147 90.2222 80.2757M153.419 78.8547C152.191 80.2317 150.625 82.7657 148.627 82.3977 146.909 82.0827 146.021 80.6677 146.23 78.8957 146.516 76.4617 148.202 74.0957 149.889 72.4057 151.492 70.7997 152.869 69.6007 154.983 68.7077 156.205 68.1907 156.939 68.1257 157.294 69.6207 157.532 70.6257 158.354 73.7087 158.594 76.2727 158.695 77.3567 158.715 78.4167 158.708 79.5037 158.694 81.6627 158.208 85.0217 156.41 84.9317 154.117 84.8167 153.661 79.6337 153.419 78.8547M101.8722 154.6213C101.0212 157.1153 99.1692 160.8763 100.6032 163.4923 102.4842 166.9243 104.6742 161.3193 104.9062 159.6943 105.1062 158.2933 106.5082 154.2643 107.8682 157.1753 109.1082 159.8293 110.3342 163.0593 112.8842 164.7323 116.0652 166.8183 115.9852 161.4023 115.6082 159.4913 115.0232 156.5343 113.1012 153.7473 111.3322 151.3643 110.4332 150.1513 109.4602 148.9923 108.4282 147.8893 107.6002 147.0033 106.1162 145.3113 105.4632 145.3113 104.8102 145.3113 102.8902 151.6413 101.8722 154.6213M102.0502 167.1343C98.6422 167.3473 97.6702 162.7743 98.1792 160.2323 98.9382 156.4343 100.4122 152.6923 101.6552 149.0343 102.2962 147.1483 102.8992 145.2433 103.5692 143.3673 104.3522 141.1723 106.0662 142.3343 107.2052 143.4243 112.4172 148.4143 118.1122 154.3813 118.5412 161.9183 118.6842 164.4413 117.4802 169.0063 114.0822 168.0063 110.7152 167.0163 108.7482 163.1853 106.9592 160.5133 106.6692 161.3263 105.0392 166.9483 102.0502 167.1343M151.4732 107.1105C151.7432 108.3925 151.6492 109.7285 151.0492 110.9075 149.9422 113.0855 147.2722 114.0395 145.0762 112.8725 142.4402 111.4725 141.0222 108.4095 139.9532 105.7715 138.8652 103.0855 137.9842 99.7235 137.6762 96.8415 137.5222 95.4055 143.2842 94.3355 144.8142 94.1035 147.5802 93.6845 150.9422 93.0235 153.6362 94.0555 156.2552 95.0585 157.4122 97.1675 156.7702 99.9165 156.4912 101.1125 155.8412 102.2755 154.7042 102.8375 153.4252 103.4685 151.7842 103.3745 150.4002 103.6355 150.4292 104.2915 151.2302 105.9565 151.4732 107.1105M55.4669 80.5207C55.8049 76.0057 55.8059 71.9047 54.1939 67.6037 53.7039 66.2987 52.2379 64.0117 50.6389 64.0157 48.8679 64.0207 48.3839 66.3287 48.0749 67.6547 47.7499 69.0477 47.5799 70.4807 47.6979 71.8987 47.7429 72.4437 48.4619 77.4607 46.3109 75.9607 45.0919 75.1107 44.0389 74.0167 43.4829 73.3277 42.4139 72.0007 40.8769 70.4137 39.2559 69.7867 34.9259 68.1097 33.8519 72.9217 35.2809 76.0397 36.9509 79.6837 40.9189 83.2667 43.8579 85.8857 46.8849 88.5827 52.7239 92.8527 53.5019 92.6057 54.2789 92.3577 55.1609 84.6067 55.4669 80.5207M50.6869 60.1537C55.5199 59.1667 57.1339 66.7377 57.5759 70.0087 58.2539 75.0177 57.7009 80.0447 56.9999 85.0177 56.6739 87.3317 56.4189 89.6667 55.9189 91.9507 55.4609 94.0417 55.5129 97.1377 52.6969 96.1597 48.6039 94.7377 44.9989 91.4067 41.9269 88.4517 38.6059 85.2567 34.7059 81.6297 32.9979 77.2677 31.6779 73.8987 31.0299 67.6227 35.2609 66.0257 39.6179 64.3807 42.2589 67.2167 45.2909 69.9267 45.5579 68.7167 46.3969 61.0297 50.6869 60.1537M80.0411 58.1462C82.6871 56.6532 85.0681 55.0062 87.9841 56.9042 90.8161 58.7472 89.3381 63.2232 87.8371 65.4692 85.8921 68.3792 82.4661 70.4012 79.5311 72.2012 76.8161 73.8672 73.6531 75.7202 70.4391 76.1032 68.2281 76.3662 68.7611 74.1142 68.7621 72.5162 68.7621 70.7692 68.9501 69.0242 69.0821 67.2832 69.3661 63.5432 69.7681 59.7862 71.0631 56.2392 71.9101 53.9232 74.2991 48.6572 77.6681 50.1512 80.6581 51.4772 80.0401 57.2202 80.0411 58.1462M146.1832 126.9977C145.6742 127.7627 145.0532 128.9657 143.7692 127.9827 142.7672 127.2147 142.6982 125.5947 142.5552 124.4607 142.3342 122.7077 141.8372 121.6097 140.4822 120.3637 139.0592 119.0547 138.3922 121.6167 138.4402 122.5897 138.5342 124.5027 138.6672 126.3977 138.8962 128.3137 139.0362 129.4777 140.4832 138.0177 141.3752 138.2687 142.2672 138.5197 145.3562 133.4417 146.7922 131.1967 147.5542 130.0057 148.2332 128.7627 148.8182 127.4767 149.1872 126.6647 150.6152 124.5637 149.5332 124.2357 149.0902 124.1017 147.1302 125.5747 146.1832 126.9977M151.9332 121.5107C153.1202 122.4327 152.2992 124.5427 151.9452 125.6087 151.4052 127.2387 150.6692 128.8507 149.6892 130.5747 148.1862 133.2187 143.3132 140.1627 141.3702 141.8277 139.9332 143.0587 139.5192 142.3327 139.1192 140.8757 137.4312 134.7287 135.6002 128.6997 136.3822 122.2217 136.6842 119.7207 139.1412 116.1807 142.0352 117.8747 144.5932 119.3727 144.5872 122.7447 145.3882 125.2807 146.3042 124.4937 150.4232 120.3367 151.9332 121.5107"/>
  </g>
</svg>
