<svg width="375" height="874" viewBox="0 0 375 874" fill="none" xmlns="http://www.w3.org/2000/svg" xmlns:xlink="http://www.w3.org/1999/xlink">
<rect width="375" height="874" fill="white"/>
<path opacity="0.148418" fill-rule="evenodd" clip-rule="evenodd" d="M0 0L375 0L375 874L0 874L0 0Z" fill="#2FC6F6"/>
<mask id="mask0" mask-type="alpha" maskUnits="userSpaceOnUse" x="0" y="0" width="375" height="874">
<path fill-rule="evenodd" clip-rule="evenodd" d="M0 0L375 0L375 874L0 874L0 0Z" fill="white"/>
</mask>
<g mask="url(#mask0)">
<g opacity="0.51">
<path fill-rule="evenodd" clip-rule="evenodd" d="M304.122 91.2612C292.368 68.9766 283.437 48.8664 261.052 39.8393C251.904 36.1468 244.678 38.2873 239.076 46.1596C233.428 54.0967 236.139 60.8734 241.939 67.5035C257.775 85.6197 279.41 88.0137 304.122 91.2612ZM335.571 90.6816C359.804 88.8565 380.374 84.9612 396.401 68.6646C403.331 61.6175 405.169 53.2411 398.98 44.6027C392.971 36.2206 384.835 36.4713 376.51 40.2962C355.467 49.9654 346.136 69.0251 335.571 90.6816ZM441.543 127.717H331.459C332.186 138.425 329.576 148.097 333.093 157.423H441.571C443.073 147.041 443.175 137.845 441.543 127.717ZM307.817 127.647H196.907C196.073 138.268 194.957 147.825 197.62 157.767H308.054C308.913 147.419 309.454 137.902 307.817 127.647ZM219.213 283.229H307.868V184.407H219.213V283.229ZM332.69 283.529H420.308V184.136H332.69V283.529ZM195.828 306.118V183.933C195.828 183.933 181.692 182.64 174.458 181.978V104.874H250.478C238.509 93.6674 226.335 87.3892 219.504 75.5034C211.117 60.9108 211.227 45.4506 220.831 31.9312C230.032 18.9778 245.639 12.4434 260.083 15.8599C276.129 19.6594 289.592 28.0668 299.844 40.8484C306.848 49.5769 312.667 59.2602 319.434 69.1267C325.682 59.9841 331.495 50.543 338.245 41.8257C348.286 28.8555 361.405 20.3579 377.581 16.4091C394.31 12.3251 407.245 18.299 417.101 31.12C427.094 44.1212 428.441 58.604 420.564 73.3233C413.77 86.0232 402.288 94.1828 387.307 104.013H465.542V180.789L444.536 183.778V306.118H195.828Z" fill="white"/>
</g>
<g opacity="0.51">
<path fill-rule="evenodd" clip-rule="evenodd" d="M46.1225 526.261C34.3678 503.977 25.437 483.866 3.05215 474.839C-6.09567 471.147 -13.3215 473.287 -18.9241 481.16C-24.5717 489.097 -21.8606 495.873 -16.0608 502.503C-0.225395 520.62 21.4098 523.014 46.1225 526.261ZM77.5706 525.682C101.804 523.856 122.374 519.961 138.401 503.665C145.331 496.617 147.169 488.241 140.98 479.603C134.971 471.221 126.835 471.471 118.51 475.296C97.467 484.965 88.136 504.025 77.5706 525.682ZM183.543 562.717H73.4589C74.186 573.425 71.5764 583.097 75.0935 592.423H183.571C185.073 582.041 185.175 572.845 183.543 562.717ZM49.8171 562.647H-61.0926C-61.9268 573.268 -63.0428 582.825 -60.3796 592.767H50.0538C50.9133 582.419 51.4544 572.902 49.8171 562.647ZM-38.7866 718.229H49.8678V619.407H-38.7866V718.229ZM74.6904 718.529H162.308V619.136H74.6904V718.529ZM-62.1719 741.118V618.932C-62.1719 618.932 -76.308 617.64 -83.5422 616.978V539.874H-7.5217C-19.4905 528.667 -31.6651 522.389 -38.4964 510.503C-46.8833 495.911 -46.7734 480.451 -37.169 466.931C-27.9676 453.978 -12.3605 447.443 2.08268 450.86C18.1294 454.659 31.5919 463.067 41.8445 475.848C48.8476 484.577 54.6672 494.26 61.4337 504.127C67.6816 494.984 73.4955 485.543 80.245 476.826C90.2862 463.855 103.405 455.358 119.581 451.409C136.31 447.325 149.245 453.299 159.101 466.12C169.094 479.121 170.441 493.604 162.564 508.323C155.77 521.023 144.288 529.183 129.307 539.013H207.542V615.789L186.536 618.778V741.118H-62.1719Z" fill="white"/>
</g>
<g opacity="0.4">
<g filter="url(#filter0_f)">
<path fill-rule="evenodd" clip-rule="evenodd" d="M68.6808 284.99C65.8534 279.629 63.7051 274.792 58.3207 272.62C56.1202 271.732 54.3821 272.247 53.0345 274.141C51.676 276.05 52.3281 277.68 53.7232 279.275C57.5323 283.633 62.7364 284.208 68.6808 284.99ZM76.2454 284.85C82.0745 284.411 87.0224 283.474 90.8776 279.554C92.5445 277.859 92.9865 275.844 91.4979 273.766C90.0526 271.75 88.0955 271.81 86.0931 272.73C81.0313 275.056 78.7868 279.641 76.2454 284.85ZM101.736 293.759H75.2564C75.4312 296.334 74.8035 298.661 75.6495 300.904H101.743C102.104 298.407 102.129 296.195 101.736 293.759ZM69.5695 293.742H42.8913C42.6906 296.297 42.4222 298.595 43.0628 300.987H69.6265C69.8332 298.498 69.9634 296.208 69.5695 293.742ZM48.2568 331.165H69.5817V307.394H48.2568V331.165ZM75.5526 331.238H96.6281V307.33H75.5526V331.238ZM42.6316 336.671V307.281C42.6316 307.281 39.2313 306.97 37.4912 306.811V288.264H55.7772C52.8982 285.568 49.9698 284.058 48.3266 281.199C46.3092 277.689 46.3356 273.97 48.6459 270.718C50.8592 267.602 54.6133 266.031 58.0875 266.852C61.9474 267.766 65.1856 269.789 67.6518 272.863C69.3363 274.963 70.7362 277.292 72.3638 279.665C73.8667 277.466 75.2651 275.195 76.8887 273.098C79.304 269.978 82.4596 267.934 86.3506 266.985C90.3746 266.002 93.4861 267.439 95.8567 270.523C98.2605 273.65 98.5845 277.134 96.6898 280.675C95.0554 283.73 92.2937 285.692 88.69 288.057H107.509V306.525L102.456 307.243V336.671H42.6316Z" fill="white"/>
</g>
</g>
<g opacity="0.4">
<g filter="url(#filter1_f)">
<path fill-rule="evenodd" clip-rule="evenodd" d="M306.681 731.989C303.853 726.629 301.705 721.792 296.321 719.62C294.12 718.732 292.382 719.247 291.035 721.141C289.676 723.05 290.328 724.68 291.723 726.275C295.532 730.632 300.736 731.208 306.681 731.989ZM314.245 731.85C320.075 731.411 325.022 730.474 328.878 726.554C330.545 724.859 330.986 722.844 329.498 720.766C328.053 718.75 326.096 718.81 324.093 719.73C319.031 722.056 316.787 726.641 314.245 731.85ZM339.736 740.758H313.256C313.431 743.334 312.804 745.661 313.65 747.904H339.743C340.104 745.407 340.129 743.195 339.736 740.758ZM307.57 740.742H280.891C280.691 743.297 280.422 745.595 281.063 747.987H307.626C307.833 745.498 307.963 743.208 307.57 740.742ZM286.257 778.165H307.582V754.394H286.257V778.165ZM313.553 778.238H334.628V754.33H313.553V778.238ZM280.632 783.671V754.281C280.632 754.281 277.231 753.97 275.491 753.81V735.264H293.777C290.898 732.568 287.97 731.058 286.327 728.199C284.309 724.689 284.336 720.97 286.646 717.718C288.859 714.602 292.613 713.031 296.087 713.852C299.947 714.766 303.186 716.789 305.652 719.863C307.336 721.963 308.736 724.292 310.364 726.665C311.867 724.466 313.265 722.195 314.889 720.098C317.304 716.978 320.46 714.934 324.351 713.984C328.375 713.002 331.486 714.439 333.857 717.523C336.26 720.65 336.584 724.134 334.69 727.675C333.055 730.729 330.294 732.692 326.69 735.057H345.509V753.525L340.456 754.243V783.671H280.632Z" fill="white"/>
</g>
</g>
</g>
<defs>
<filter id="filter0_f" x="34.7729" y="263.918" width="75.4542" height="75.4715" filterUnits="userSpaceOnUse" color-interpolation-filters="sRGB">
<feFlood flood-opacity="0" result="BackgroundImageFix"/>
<feBlend mode="normal" in="SourceGraphic" in2="BackgroundImageFix" result="shape"/>
<feGaussianBlur stdDeviation="1.35914" result="effect1_foregroundBlur"/>
</filter>
<filter id="filter1_f" x="272.773" y="710.918" width="75.4542" height="75.4715" filterUnits="userSpaceOnUse" color-interpolation-filters="sRGB">
<feFlood flood-opacity="0" result="BackgroundImageFix"/>
<feBlend mode="normal" in="SourceGraphic" in2="BackgroundImageFix" result="shape"/>
<feGaussianBlur stdDeviation="1.35914" result="effect1_foregroundBlur"/>
</filter>
</defs>
</svg>
