<svg width="66" height="67" viewBox="0 0 66 67" fill="none" xmlns="http://www.w3.org/2000/svg">
<g filter="url(#filter0_d)">
<path fill-rule="evenodd" clip-rule="evenodd" d="M33 63.5C50.1208 63.5 64 49.6208 64 32.5C64 15.3792 50.1208 1.5 33 1.5C15.8792 1.5 2 15.3792 2 32.5C2 49.6208 15.8792 63.5 33 63.5Z" fill="white"/>
</g>
<path fill-rule="evenodd" clip-rule="evenodd" d="M33 54.5C45.1503 54.5 55 44.6503 55 32.5C55 20.3497 45.1503 10.5 33 10.5C20.8497 10.5 11 20.3497 11 32.5C11 44.6503 20.8497 54.5 33 54.5Z" fill="#5CD1DF"/>
<path fill-rule="evenodd" clip-rule="evenodd" d="M31.9713 25.9714C31.0148 24.1582 30.2882 22.5219 28.4668 21.7874C27.7225 21.487 27.1346 21.6611 26.6787 22.3017C26.2192 22.9475 26.4398 23.4989 26.9117 24.0383C28.2001 25.5124 29.9605 25.7072 31.9713 25.9714V25.9714ZM34.5301 25.9242C36.5018 25.7757 38.1755 25.4587 39.4796 24.1328C40.0434 23.5594 40.1929 22.8778 39.6894 22.1749C39.2005 21.4929 38.5385 21.5133 37.8611 21.8245C36.1489 22.6113 35.3897 24.1621 34.5301 25.9242V25.9242ZM43.1526 28.9376H34.1955C34.2547 29.8089 34.0423 30.5958 34.3285 31.3546H43.1548C43.2771 30.5099 43.2853 29.7617 43.1526 28.9376V28.9376ZM32.2719 28.9318H23.2476C23.1798 29.796 23.089 30.5736 23.3057 31.3826H32.2911C32.3611 30.5406 32.4051 29.7663 32.2719 28.9318V28.9318ZM25.0626 41.5908H32.276V33.5501H25.0626V41.5908ZM34.2957 41.6153H41.4247V33.5281H34.2957V41.6153ZM23.1598 43.4533V33.5116C23.1598 33.5116 22.0096 33.4064 21.421 33.3525V27.079H27.6065C26.6326 26.1671 25.642 25.6563 25.0862 24.6892C24.4038 23.5019 24.4127 22.2439 25.1942 21.1439C25.9429 20.09 27.2128 19.5583 28.3879 19.8363C29.6936 20.1454 30.789 20.8295 31.6232 21.8695C32.193 22.5797 32.6665 23.3676 33.2171 24.1703C33.7254 23.4265 34.1985 22.6583 34.7477 21.949C35.5647 20.8937 36.6321 20.2022 37.9483 19.8809C39.3094 19.5486 40.3619 20.0347 41.1638 21.0779C41.9769 22.1358 42.0865 23.3142 41.4456 24.5118C40.8928 25.5451 39.9586 26.2091 38.7396 27.0089H45.1053V33.2558L43.3961 33.499V43.4533H23.1598Z" fill="white"/>
<defs>
<filter id="filter0_d" x="0" y="0.5" width="66" height="66" filterUnits="userSpaceOnUse" color-interpolation-filters="sRGB">
<feFlood flood-opacity="0" result="BackgroundImageFix"/>
<feColorMatrix in="SourceAlpha" type="matrix" values="0 0 0 0 0 0 0 0 0 0 0 0 0 0 0 0 0 0 127 0"/>
<feOffset dy="1"/>
<feGaussianBlur stdDeviation="1"/>
<feColorMatrix type="matrix" values="0 0 0 0 0 0 0 0 0 0 0 0 0 0 0 0 0 0 0.06 0"/>
<feBlend mode="normal" in2="BackgroundImageFix" result="effect1_dropShadow"/>
<feBlend mode="normal" in="SourceGraphic" in2="effect1_dropShadow" result="shape"/>
</filter>
</defs>
</svg>
