<svg width="375" height="874" viewBox="0 0 375 874" fill="none" xmlns="http://www.w3.org/2000/svg">

<mask id="mask0" mask-type="alpha" maskUnits="userSpaceOnUse" x="0" y="0" width="375" height="874">
<path fill-rule="evenodd" clip-rule="evenodd" d="M0 0L375 0L375 874L0 874L0 0Z" fill="white"/>
</mask>
<g mask="url(#mask0)">
<mask id="mask1" mask-type="alpha" maskUnits="userSpaceOnUse" x="0" y="0" width="375" height="874">
<rect width="375" height="874" fill="white"/>
</mask>
<g mask="url(#mask1)">
<rect opacity="0.04" x="-197" y="-15" width="611.545" height="468.119"/>
<rect opacity="0.04" width="611.545" height="468.119" transform="matrix(-1 0 0 1 515.84 407.881)"/>
</g>
<g opacity="0.4">
<path fill-rule="evenodd" clip-rule="evenodd" d="M342.573 172.044C358.969 169.797 366.912 163.08 366.044 152.69C365.297 143.755 356.751 138.568 341.805 138.401C326.436 138.229 311.064 138.356 295.692 138.354C282.637 138.351 269.578 138.354 255.346 138.354C257.173 130.685 258.567 125.128 259.811 119.54C263.69 102.136 268.14 84.7579 266.422 66.6991C265.228 54.1267 257.864 45.9943 248.498 46.6745C235.554 47.6138 236.347 57.3508 235.472 66.7265C231.982 104.045 217.054 134.367 181.977 152.159C173.81 156.303 164.334 155.837 156.489 159.664V257.248C210.21 269.987 264.156 268.674 318.064 267.371C323.569 267.237 329.891 266.684 333.785 260.303C336.261 250.469 329.931 244.73 321.814 239.603C341.239 236.152 344.316 220.896 342.994 217.401C341.673 213.905 338.145 210.051 334.932 206.61C345.856 207.586 351.256 202.489 353.914 193.27C356.97 182.663 350.299 177.309 342.573 172.044ZM136.281 273.672V140.718C138.652 137.546 141.813 138.177 144.535 138.376C186.021 141.421 207.099 108.739 213.199 80.9482C214.703 74.1114 215.296 67.0179 215.71 60.0067C216.675 43.6447 224.505 32.4302 238.595 27.9653C253.105 23.3709 268.913 28.8199 278.134 41.7511C290.649 59.3016 287.715 78.7581 284.818 98.1399C283.906 104.242 282.537 110.274 280.991 118.371C298.066 118.371 314.397 118.314 330.729 118.396C338.195 118.431 345.752 118.062 353.113 119.046C384.989 123.302 395.559 152.548 375.545 180.488C375.129 186.45 370.849 209.403 363.093 214.894C365.84 223.453 357.845 242.515 355.113 246.993C356.579 275.992 342.822 286.456 320.572 287.301C259.22 289.633 197.815 289.638 136.281 273.672Z" fill="white"/>
</g>
<g opacity="0.4">
<path fill-rule="evenodd" clip-rule="evenodd" d="M174.573 610.044C190.969 607.797 198.912 601.08 198.044 590.69C197.297 581.755 188.751 576.568 173.805 576.401C158.436 576.229 143.064 576.356 127.692 576.354C114.637 576.351 101.578 576.354 87.3458 576.354C89.1732 568.685 90.5668 563.128 91.8108 557.54C95.6898 540.136 100.14 522.758 98.4221 504.699C97.228 492.127 89.8637 483.994 80.4976 484.674C67.554 485.614 68.3467 495.351 67.4717 504.727C63.9815 542.045 49.0535 572.367 13.9772 590.159C5.81013 594.303 -3.66571 593.837 -11.5111 597.664V695.248C42.2103 707.987 96.156 706.674 150.064 705.371C155.569 705.237 161.891 704.684 165.785 698.303C168.261 688.469 161.931 682.73 153.814 677.603C173.239 674.152 176.316 658.896 174.994 655.401C173.673 651.905 170.145 648.051 166.932 644.61C177.856 645.586 183.256 640.489 185.914 631.27C188.97 620.663 182.299 615.309 174.573 610.044ZM-31.7192 711.672V578.718C-29.3484 575.546 -26.1873 576.177 -23.465 576.376C18.0209 579.421 39.0991 546.739 45.1994 518.948C46.7027 512.111 47.296 505.018 47.7099 498.007C48.6746 481.645 56.5051 470.43 70.5955 465.965C85.1047 461.371 100.913 466.82 110.134 479.751C122.649 497.302 119.715 516.758 116.818 536.14C115.906 542.242 114.537 548.274 112.991 556.371C130.066 556.371 146.397 556.314 162.729 556.396C170.195 556.431 177.752 556.062 185.113 557.046C216.989 561.302 227.559 590.548 207.545 618.488C207.129 624.45 202.849 647.403 195.093 652.894C197.84 661.453 189.845 680.515 187.113 684.993C188.579 713.992 174.822 724.456 152.572 725.301C91.22 727.633 29.8152 727.638 -31.7192 711.672Z" fill="white"/>
</g>
<g opacity="0.4">
<g filter="url(#filter0_f)">
<path fill-rule="evenodd" clip-rule="evenodd" d="M94.1875 327.731C98.7478 327.106 100.957 325.238 100.716 322.348C100.508 319.863 98.1307 318.42 93.974 318.374C89.6994 318.326 85.4241 318.362 81.1488 318.361C77.5177 318.36 73.8859 318.361 69.9275 318.361C70.4357 316.228 70.8233 314.683 71.1693 313.128C72.2482 308.288 73.4858 303.454 73.0081 298.432C72.676 294.935 70.6278 292.673 68.0228 292.863C64.4229 293.124 64.6434 295.832 64.4 298.44C63.4293 308.819 59.2774 317.252 49.5218 322.201C47.2504 323.353 44.6149 323.223 42.4329 324.288V351.428C57.3741 354.971 72.3778 354.606 87.3711 354.244C88.902 354.206 90.6604 354.053 91.7434 352.278C92.4319 349.543 90.6715 347.947 88.4139 346.521C93.8166 345.561 94.6722 341.318 94.3047 340.346C93.9372 339.374 92.9561 338.302 92.0624 337.345C95.1007 337.616 96.6025 336.198 97.3416 333.634C98.1917 330.684 96.3363 329.195 94.1875 327.731ZM36.8125 355.996V319.018C37.4719 318.136 38.3511 318.312 39.1082 318.367C50.6465 319.214 56.5088 310.124 58.2055 302.395C58.6236 300.493 58.7886 298.521 58.9037 296.571C59.1721 292.02 61.3499 288.901 65.2688 287.659C69.3042 286.381 73.7008 287.897 76.2655 291.493C79.7462 296.374 78.9301 301.786 78.1244 307.176C77.8707 308.873 77.49 310.551 77.0601 312.803C81.809 312.803 86.3512 312.787 90.8934 312.81C92.97 312.82 95.0716 312.717 97.1191 312.991C105.984 314.175 108.924 322.309 103.358 330.079C103.242 331.738 102.052 338.121 99.8946 339.649C100.659 342.029 98.4351 347.331 97.6752 348.576C98.0829 356.641 94.2569 359.552 88.0686 359.787C71.005 360.435 53.9268 360.437 36.8125 355.996Z" fill="white"/>
</g>
</g>
<g opacity="0.4">
<g filter="url(#filter1_f)">
<path fill-rule="evenodd" clip-rule="evenodd" d="M333.188 773.731C337.748 773.106 339.957 771.238 339.716 768.348C339.508 765.863 337.131 764.42 332.974 764.374C328.699 764.326 324.424 764.362 320.149 764.361C316.518 764.36 312.886 764.361 308.927 764.361C309.436 762.228 309.823 760.683 310.169 759.128C311.248 754.288 312.486 749.455 312.008 744.432C311.676 740.935 309.628 738.673 307.023 738.863C303.423 739.124 303.643 741.832 303.4 744.44C302.429 754.819 298.277 763.252 288.522 768.201C286.25 769.353 283.615 769.223 281.433 770.288V797.428C296.374 800.972 311.378 800.606 326.371 800.244C327.902 800.206 329.66 800.053 330.743 798.278C331.432 795.543 329.671 793.947 327.414 792.521C332.817 791.561 333.672 787.318 333.305 786.346C332.937 785.374 331.956 784.302 331.062 783.345C334.101 783.616 335.603 782.198 336.342 779.634C337.192 776.685 335.336 775.195 333.188 773.731ZM275.812 801.996V765.018C276.472 764.136 277.351 764.312 278.108 764.367C289.646 765.214 295.509 756.124 297.206 748.395C297.624 746.493 297.789 744.521 297.904 742.571C298.172 738.02 300.35 734.901 304.269 733.659C308.304 732.381 312.701 733.897 315.266 737.493C318.746 742.375 317.93 747.786 317.124 753.176C316.871 754.873 316.49 756.551 316.06 758.803C320.809 758.803 325.351 758.787 329.893 758.81C331.97 758.82 334.072 758.717 336.119 758.991C344.984 760.175 347.924 768.309 342.358 776.08C342.242 777.738 341.052 784.121 338.895 785.649C339.659 788.029 337.435 793.331 336.675 794.576C337.083 802.642 333.257 805.552 327.069 805.787C310.005 806.435 292.927 806.437 275.812 801.996Z" fill="white"/>
</g>
</g>
</g>
<defs>
<filter id="filter0_f" x="34.0942" y="284.493" width="74.8118" height="78.321" filterUnits="userSpaceOnUse" color-interpolation-filters="sRGB">
<feFlood flood-opacity="0" result="BackgroundImageFix"/>
<feBlend mode="normal" in="SourceGraphic" in2="BackgroundImageFix" result="shape"/>
<feGaussianBlur stdDeviation="1.35914" result="effect1_foregroundBlur"/>
</filter>
<filter id="filter1_f" x="273.094" y="730.494" width="74.8118" height="78.321" filterUnits="userSpaceOnUse" color-interpolation-filters="sRGB">
<feFlood flood-opacity="0" result="BackgroundImageFix"/>
<feBlend mode="normal" in="SourceGraphic" in2="BackgroundImageFix" result="shape"/>
<feGaussianBlur stdDeviation="1.35914" result="effect1_foregroundBlur"/>
</filter>
</defs>
</svg>
