<svg width="66" height="67" viewBox="0 0 66 67" fill="none" xmlns="http://www.w3.org/2000/svg">
<g filter="url(#filter0_d)">
<path fill-rule="evenodd" clip-rule="evenodd" d="M33 63.5C50.1208 63.5 64 49.6208 64 32.5C64 15.3792 50.1208 1.5 33 1.5C15.8792 1.5 2 15.3792 2 32.5C2 49.6208 15.8792 63.5 33 63.5Z" fill="white"/>
</g>
<path fill-rule="evenodd" clip-rule="evenodd" d="M33 54.5C45.1503 54.5 55 44.6503 55 32.5C55 20.3497 45.1503 10.5 33 10.5C20.8497 10.5 11 20.3497 11 32.5C11 44.6503 20.8497 54.5 33 54.5Z" fill="#3886D8"/>
<path fill-rule="evenodd" clip-rule="evenodd" d="M41.9869 32.3114C43.5294 32.0999 44.2767 31.468 44.195 30.4905C44.1247 29.6499 43.3207 29.1619 41.9146 29.1462C40.4687 29.13 39.0225 29.142 37.5764 29.1418C36.3481 29.1415 35.1196 29.1418 33.7806 29.1418C33.9525 28.4203 34.0836 27.8976 34.2007 27.3718C34.5656 25.7345 34.9843 24.0995 34.8227 22.4006C34.7103 21.2178 34.0175 20.4527 33.1363 20.5167C31.9186 20.6051 31.9932 21.5211 31.9109 22.4032C31.5825 25.914 30.1781 28.7667 26.8782 30.4406C26.1098 30.8304 25.2184 30.7866 24.4803 31.1466V40.3272C29.5343 41.5257 34.6095 41.4022 39.6811 41.2796C40.199 41.2669 40.7938 41.2149 41.1601 40.6146C41.393 39.6894 40.7975 39.1496 40.0339 38.6672C41.8614 38.3425 42.1508 36.9073 42.0265 36.5784C41.9022 36.2496 41.5703 35.8869 41.268 35.5632C42.2957 35.6551 42.8038 35.1755 43.0538 34.3082C43.3413 33.3104 42.7137 32.8066 41.9869 32.3114M22.5791 41.8724V29.3642C22.8021 29.0658 23.0995 29.1251 23.3557 29.1439C27.2586 29.4303 29.2416 26.3557 29.8155 23.7411C29.957 23.0979 30.0128 22.4306 30.0517 21.771C30.1425 20.2317 30.8792 19.1766 32.2048 18.7566C33.5698 18.3243 35.057 18.837 35.9245 20.0535C37.1019 21.7047 36.8259 23.5351 36.5533 25.3585C36.4675 25.9326 36.3387 26.5001 36.1933 27.2619C37.7997 27.2619 39.3361 27.2565 40.8726 27.2642C41.575 27.2675 42.2859 27.2328 42.9785 27.3254C45.9773 27.7258 46.9717 30.4772 45.0889 33.1058C45.0497 33.6667 44.647 35.826 43.9173 36.3426C44.1758 37.1478 43.4236 38.9412 43.1666 39.3624C43.3045 42.0906 42.0103 43.0751 39.9171 43.1546C34.1451 43.374 28.3682 43.3745 22.5791 41.8724" fill="white"/>
<defs>
<filter id="filter0_d" x="0" y="0.5" width="66" height="66" filterUnits="userSpaceOnUse" color-interpolation-filters="sRGB">
<feFlood flood-opacity="0" result="BackgroundImageFix"/>
<feColorMatrix in="SourceAlpha" type="matrix" values="0 0 0 0 0 0 0 0 0 0 0 0 0 0 0 0 0 0 127 0"/>
<feOffset dy="1"/>
<feGaussianBlur stdDeviation="1"/>
<feColorMatrix type="matrix" values="0 0 0 0 0 0 0 0 0 0 0 0 0 0 0 0 0 0 0.06 0"/>
<feBlend mode="normal" in2="BackgroundImageFix" result="effect1_dropShadow"/>
<feBlend mode="normal" in="SourceGraphic" in2="effect1_dropShadow" result="shape"/>
</filter>
</defs>
</svg>
