<svg xmlns="http://www.w3.org/2000/svg" width="118" height="265" viewBox="0 0 118 265"><g fill="none" fill-rule="evenodd"><path fill="#535C69" d="M3 1h12v2H3V1zm0 4h12v2H3V5zm0 4h12v2H3V9z" opacity=".3"/><path fill="#000" d="M3 14h12v2H3v-2zm0 4h12v2H3v-2zm0 4h12v2H3v-2z" opacity=".3"/><path fill="#80868E" d="M15.83 66.305L7.915 62 0 66.305l7.915 4.305 7.915-4.305zm-7.915 5.693L1.47 68.495l-1.47.8L7.915 73.6l7.915-4.305-1.472-.8-6.443 3.503zm0 2.99L1.47 71.484l-1.47.8 7.915 4.304 7.915-4.305-1.472-.8-6.443 3.505z"/><g fill="#80868E"><path d="M14.707 104.812h-1.124v-.777c0-.572-.457-1.035-1.02-1.035h-.042c-.563 0-1.02.463-1.02 1.035v.777H6.23v-.777c0-.572-.458-1.035-1.023-1.035h-.04c-.565 0-1.022.463-1.022 1.035v.777H3.02c-.563 0-1.02.463-1.02 1.035v11.093c0 .572.457 1.035 1.02 1.035h11.687c.564 0 1.022-.463 1.022-1.035v-11.093c0-.572-.46-1.035-1.023-1.035zm-.695 11.528H3.716v-8.403h10.296v8.403z"/><path d="M5.163 112.132H6.94c.09 0 .164-.074.164-.166v-1.8c0-.092-.073-.166-.163-.166H5.164c-.09 0-.163.074-.163.166v1.8c0 .092.073.166.163.166zm2.86 0h1.778c.09 0 .164-.074.164-.166v-1.8c0-.092-.073-.166-.163-.166H8.025c-.09 0-.164.074-.164.166v1.8c0 .092.073.166.164.166zm2.86 0h1.778c.09 0 .164-.074.164-.166v-1.8c0-.092-.073-.166-.163-.166h-1.776c-.09 0-.164.074-.164.166v1.8c0 .092.073.166.164.166zm-5.72 2.897H6.94c.09 0 .164-.075.164-.166v-1.8c0-.092-.073-.166-.163-.166H5.164c-.09 0-.163.074-.163.165v1.8c0 .092.073.166.163.166zm2.86 0h1.778c.09 0 .164-.075.164-.166v-1.8c0-.092-.073-.166-.163-.166H8.025c-.09 0-.164.074-.164.165v1.8c0 .092.073.166.164.166zm2.86 0h1.778c.09 0 .164-.075.164-.166v-1.8c0-.092-.073-.166-.163-.166h-1.776c-.09 0-.164.074-.164.165v1.8c0 .092.073.166.164.166z"/></g><path fill="#80868E" d="M14.912 128.343l-2.628 2.628c-1.45 1.452-3.804 1.452-5.255 0-.23-.227-.408-.484-.565-.75l1.22-1.22c.06-.06.13-.092.2-.132.084.29.23.562.458.79.725.724 1.903.723 2.627 0l2.628-2.628c.725-.725.725-1.904 0-2.628-.724-.724-1.903-.724-2.628 0l-.934.935c-.758-.295-1.575-.374-2.37-.258l1.99-1.992c1.452-1.45 3.805-1.45 5.256 0 1.45 1.45 1.45 3.804 0 5.255zm-6.948 4.32l-.935.936c-.725.723-1.904.723-2.628 0-.725-.726-.725-1.905 0-2.63l2.627-2.627c.724-.725 1.902-.725 2.627 0 .226.227.374.5.46.788.068-.04.138-.072.196-.13l1.222-1.22c-.156-.266-.336-.522-.565-.75-1.45-1.45-3.803-1.45-5.255 0l-2.627 2.627c-1.45 1.45-1.45 3.804 0 5.255 1.45 1.45 3.804 1.45 5.255 0l1.992-1.99c-.796.116-1.613.036-2.37-.26z"/><path fill="#535C69" opacity=".3" d="M10.076 34.485l3.447-3.447-1.59-1.59-3.448 3.446-3.447-3.447-1.59 1.59 3.446 3.448-3.447 3.447 1.59 1.59 3.448-3.446 3.447 3.447 1.59-1.59"/><path fill="#000" opacity=".3" d="M10.076 45.485l3.447-3.447-1.59-1.59-3.448 3.446-3.447-3.447-1.59 1.59 3.446 3.448-3.447 3.447 1.59 1.59 3.448-3.446 3.447 3.447 1.59-1.59"/><path fill="#80868E" d="M14.453 83.338L3.023 94.94l1.527 1.488 11.43-11.602-1.527-1.488zM2.96 85.08v7.161l2.016-2.113v-3.042h2.9l1.91-2.005H2.96zm10.99 4.658v3.29h-3.135l-1.888 1.98h7.015v-7.36l-1.992 2.09z"/><path fill="#FFF" d="M7.942 138.028h2.116c.255.106.348.302.345.572-.01.504 0 1.005-.006 1.51 0 .086.022.127.106.15.277.073.538.185.79.322.093.05.15.03.22-.043.362-.372.73-.74 1.1-1.103.22-.217.47-.227.69-.012.43.42.855.843 1.275 1.275.218.22.206.49-.012.707-.36.364-.722.728-1.09 1.085-.077.075-.1.13-.04.234.13.224.234.463.3.715.033.132.1.17.236.17.538 0 1.076-.03 1.614.015.23.02.364.168.386.4 0 .648 0 1.292.003 1.94-.022.258-.205.43-.467.43-.535 0-1.067.002-1.602 0-.084 0-.124.017-.15.108-.08.267-.183.53-.32.774-.052.094-.046.147.032.224.367.36.728.723 1.088 1.087.237.24.24.495.007.73-.41.418-.825.832-1.242 1.243-.24.24-.496.233-.74-.01-.366-.367-.733-.73-1.097-1.1-.06-.06-.103-.08-.184-.032-.24.134-.496.242-.76.314-.103.028-.143.075-.143.19.01.513.003 1.026.003 1.54 0 .18-.065.326-.205.442-.072.06-.165.03-.23.09h-1.96c-.302-.094-.405-.305-.396-.61.012-.488 0-.974.006-1.462.003-.112-.032-.168-.14-.196-.268-.07-.52-.18-.76-.314-.084-.047-.133-.032-.2.034-.363.37-.74.725-1.094 1.104-.2.215-.544.218-.746.003-.396-.417-.81-.818-1.217-1.222-.256-.254-.256-.49-.004-.746l1.11-1.11c.06-.06.082-.1.035-.18-.14-.238-.245-.496-.32-.757-.034-.12-.087-.153-.21-.15-.52.01-1.037-.003-1.557.007-.273.006-.497-.227-.49-.492.014-.606.002-1.213.005-1.82 0-.056-.003-.11.022-.165.087-.217.227-.31.526-.31.507-.004 1.017-.004 1.524.002.1 0 .143-.032.17-.128.08-.27.19-.526.322-.775.04-.075.04-.115-.025-.177-.364-.355-.722-.716-1.08-1.077-.29-.29-.292-.53 0-.818l1.154-1.154c.29-.288.527-.285.82.007.36.358.718.72 1.076 1.08.056.056.093.065.165.025.256-.137.52-.26.8-.33.094-.025.112-.075.112-.165-.003-.492.007-.986-.006-1.478-.003-.272.078-.477.336-.592zm1.064 9.77c1.5.027 2.803-1.22 2.806-2.786.004-1.55-1.253-2.82-2.796-2.815-1.55.006-2.807 1.223-2.81 2.806 0 1.587 1.29 2.806 2.8 2.794z"/><g fill="#80868E"><path d="M4.625 161.438v-5.72h5.656V158H12v-4H3v9h4v-1.562"/><path d="M7.086 157L6 158.094l1.286 1.287.96.966 1.01 1.015 1.088-1.09L7.086 157zm4.908 5.975l-.02-4.34-1.63 1.636-1.086 1.09.01.01 1.146-1.15-1.146 1.15-.01-.01-1.63 1.634 4.366-.02z"/></g><g fill="#80868E"><path d="M17 238h3v-5h-3M22 238h3v-7h-3M27 238h3v-10h-3"/></g><g transform="translate(0 226)"><rect width="13.684" height="13.684" fill="#80868E" rx="6.842"/><path fill="#FFF" d="M7.296 3.92c0-.596-.344-.92-.95-.92-.594 0-.94.324-.94.92 0 .594.346.938.94.938.606 0 .95-.344.95-.94zm.68 7.21v-.823l-.533-.073c-.157-.02-.167-.042-.167-.21v-4.33h-2.16L5 6.538l.564.197c.104.03.135.104.135.22v3.068c0 .156-.022.188-.168.21L5 10.306v.824h2.975z"/></g><g transform="translate(45 213)"><circle cx="10.5" cy="10.5" r="10.5" fill="#535C69"/><path fill="#FFF" d="M16.088 16.767c0-.76-.852-3.97-.852-3.97 0-.47-.614-1.005-1.822-1.318-.41-.115-.798-.292-1.153-.525-.077-.045-.065-.455-.065-.455l-.39-.06c0-.032-.032-.524-.032-.524.465-.156.417-1.08.417-1.08.296.165.49-.565.49-.565.348-1.014-.176-.952-.176-.952.092-.62.092-1.25 0-1.87-.232-2.053-3.74-1.496-3.323-.824-1.024-.19-.79 2.142-.79 2.142l.222.604c-.436.283-.133.626-.118 1.02.022.582.378.46.378.46.022.96.495 1.087.495 1.087.09.603.034.5.034.5l-.42.05c.005.138-.006.275-.034.41-.495.22-.602.35-1.094.566-.952.417-1.986.96-2.17 1.69-.183.73-.73 3.614-.73 3.614h11.135z"/></g><path fill="#80868E" d="M13.006 182.643c0-.516-.717-1.104-2.127-1.447-.48-.125-.934-.32-1.348-.576-.09-.048-.077-.498-.077-.498L9 180.057c0-.037-.037-.576-.037-.576.543-.17.487-1.183.487-1.183.345.18.57-.62.57-.62.408-1.115-.203-1.048-.203-1.048.107-.68.107-1.37 0-2.05-.272-2.257-4.365-1.645-3.88-.91-1.197-.205-.923 2.354-.923 2.354l.26.663c-.51.31-.156.687-.14 1.12.026.638.442.505.442.505.026 1.055.578 1.193.578 1.193.104.662.04.55.04.55l-.492.055c.006.15-.007.3-.04.45-.578.24-.702.383-1.277.62-1.11.458-2.318 1.053-2.532 1.854C1.638 183.834 1 187 1 187h13c0-.833-.994-4.357-.994-4.357z"/><path fill="#FFF" d="M92.42 57.873c10.534-14.523 8.546-34.633-4.63-46.813C74.692-1.02 54.51-1.03 41.4 11.044c-13.187 12.17-15.19 32.274-4.667 46.806 10.404 14.477 30.17 18.562 45.46 9.394.133.103.28.19.433.26l9.386 2.533c.81.218 1.672-.017 2.26-.615.59-.604.82-1.474.606-2.29l-2.46-9.26h.002zm-27.742 8.11c-11.572-.035-21.97-7.076-26.3-17.807-4.41-10.775-1.984-23.14 6.167-31.45 8.082-8.243 20.374-10.72 31.017-6.25 12.548 5.362 19.64 18.766 17.014 32.157-2.626 13.39-14.254 23.124-27.898 23.35zm-6.86-35.01c.808-.928.808-2.31 0-3.237l-1.046-1.158h19.323c.97-.05 1.715-.873 1.672-1.842v-.893c.043-.97-.703-1.79-1.672-1.842H56.772l1.05-1.156c.805-.926.803-2.305-.006-3.228-.367-.425-.9-.67-1.463-.672-.562-.002-1.097.24-1.467.662l-4.6 5.073c-.81.926-.81 2.31 0 3.235l4.6 5.06c.37.423.904.666 1.466.666.563 0 1.097-.242 1.467-.666h-.002zm16.2 11.992c-.495-.575-1.28-.81-2.01-.6-.745.24-1.306.858-1.472 1.623-.194.784.01 1.612.547 2.216l1.05 1.156H52.825c-.968.054-1.712.876-1.672 1.844v.895c-.04.966.704 1.787 1.672 1.84h19.323l-1.05 1.16c-.536.6-.74 1.43-.547 2.212.167.766.73 1.386 1.475 1.625.73.21 1.514-.025 2.01-.6l4.6-5.063c.808-.93.808-2.31 0-3.24l-4.615-5.07h-.002zM53.475 34.82c-.968.05-1.715.873-1.673 1.842v.908c-.04.97.706 1.79 1.674 1.842h23.358c.968-.052 1.713-.874 1.672-1.842v-.9c.047-.972-.7-1.8-1.672-1.853H53.48l-.006.003z"/><path fill="#80868E" d="M10.917 254.71l.01-.01c.065-.067.104-.148.13-.232.01-.03.01-.062.016-.09.004-.026.014-.05.013-.076.01-.053.016-.117.015-.173l.01-.255c0-.055 0-.11-.01-.162-.02-.18-.056-.306-.174-.425l-2.9-2.9c-.216-.216-.57-.216-.785 0l-.376.376c-.216.215-.216.57 0 .784l1.513 1.513h-6.35c-.39 0-.707.367-.7.814l.004.27c.007.447.333.813.725.813H8.36l-1.48 1.493c-.213.215-.213.568 0 .783l.377.376c.215.213.566.212.78-.004l2.853-2.87c.01-.01.02-.018.027-.028m1.396 4.397H10.72c-.387 0-.703.317-.703.703v1.447c0 .386.316.702.703.702h1.593c.387 0 .704-.317.704-.703v-1.444c0-.386-.317-.703-.704-.703m-5 0H5.72c-.387 0-.703.317-.703.703v1.447c0 .386.316.702.703.702h1.593c.387 0 .704-.318.704-.704v-1.446c0-.386-.317-.703-.704-.703m-5 0H.72c-.387 0-.703.317-.703.703v1.447c0 .386.316.702.703.702h1.593c.387 0 .704-.318.704-.704v-1.446c0-.386-.317-.703-.704-.703"/></g></svg>