<svg width="40" height="40" viewBox="0 0 40 40" fill="none" xmlns="http://www.w3.org/2000/svg">
<path fill-rule="evenodd" clip-rule="evenodd" d="M20 40C31.0457 40 40 31.0457 40 20C40 8.95431 31.0457 0 20 0C8.95431 0 0 8.95431 0 20C0 31.0457 8.95431 40 20 40Z" fill="#767C87"/>
<path d="M30.0526 28.6408L29.4073 25.3544C29.4073 24.4383 28.1873 23.3919 25.7849 22.7821C24.971 22.5593 24.1973 22.2137 23.4914 21.7578C23.337 21.6712 23.3605 20.8712 23.3605 20.8712L22.5868 20.7556C22.5868 20.6907 22.5206 19.7313 22.5206 19.7313C23.4464 19.426 23.3511 17.6247 23.3511 17.6247C23.939 17.9448 24.3219 16.5193 24.3219 16.5193C25.0173 14.5389 23.9756 14.6586 23.9756 14.6586C24.1579 13.4496 24.1579 12.2209 23.9756 11.0119C23.5125 7.00127 16.54 8.09005 17.3667 9.3999C15.3289 9.03145 15.7939 13.5828 15.7939 13.5828L16.2359 14.7614C15.6233 15.1514 15.7436 15.5991 15.878 16.0991C15.934 16.3076 15.9925 16.5252 16.0013 16.7515C16.044 17.8872 16.752 17.6519 16.752 17.6519C16.7957 19.5264 17.7374 19.7705 17.7374 19.7705C17.9143 20.9477 17.804 20.7473 17.804 20.7473L16.966 20.8468C16.9774 21.1145 16.9551 21.3826 16.8998 21.645C16.4129 21.858 16.1149 22.0275 15.8197 22.1953C15.5176 22.3671 15.2185 22.5372 14.7232 22.7503C12.8313 23.5642 10.7752 24.6225 10.4096 26.0475C10.2393 26.7115 10.0746 27.7398 9.94727 28.6488C12.7212 29.8083 15.9384 30.5021 19.3785 30.5759H20.6025C24.0504 30.5019 27.2744 29.8051 30.0526 28.6408Z" fill="white"/>
</svg>
