<svg width="339" height="162" viewBox="0 0 339 162" fill="none" xmlns="http://www.w3.org/2000/svg">
	<path fill-rule="evenodd" clip-rule="evenodd" d="M162.702 121.685C162.702 126.856 158.76 131.174 153.61 131.644L104.908 136.084C99.0509 136.618 94 132.006 94 126.125V38.8403C94 33.0566 98.8918 28.4789 104.663 28.8623L136.22 30.9586C140.654 31.2531 144.766 33.3787 147.571 36.8259L159.114 51.014C161.435 53.8672 162.702 57.4332 162.702 61.1114V121.685Z" fill="#1BCE7B" fill-opacity="0.78"/>
	<path d="M162.202 121.685C162.202 126.598 158.457 130.7 153.565 131.146L104.863 135.586C99.2983 136.093 94.5 131.712 94.5 126.125V38.8403C94.5 33.3457 99.1473 28.997 104.63 29.3612L136.187 31.4575C140.482 31.7428 144.466 33.8019 147.183 37.1415L158.726 51.3295C160.975 54.0936 162.202 57.5481 162.202 61.1114V121.685Z" stroke="black" stroke-opacity="0.16" stroke-linejoin="round"/>
	<path fill-rule="evenodd" clip-rule="evenodd" d="M139.827 31.6192C142.842 32.5389 145.547 34.3383 147.571 36.8259L159.113 51.0139C160.939 53.2572 162.112 55.9411 162.53 58.7737L148.306 58.4716C144.061 58.3814 140.626 54.9905 140.481 50.7469L139.827 31.6192Z" fill="black" fill-opacity="0.16"/>
	<path fill-rule="evenodd" clip-rule="evenodd" d="M219.041 124.516C219.041 129.632 215.179 133.923 210.091 134.461L161.988 139.542C156.082 140.166 150.938 135.536 150.938 129.597V32.6474C150.938 26.8045 155.926 22.2062 161.749 22.6804L195.261 25.4095C198.146 25.6444 200.788 27.1181 202.504 29.4497L215.928 47.6927C217.95 50.4409 219.041 53.7635 219.041 57.1756V124.516Z" fill="#1B79E6" fill-opacity="0.78"/>
	<path d="M218.541 124.516C218.541 129.376 214.872 133.453 210.039 133.963L161.935 139.045C156.325 139.637 151.438 135.239 151.438 129.597V32.6474C151.438 27.0967 156.176 22.7283 161.709 23.1788L195.22 25.9078C197.961 26.131 200.471 27.5311 202.101 29.746L215.525 47.989C217.484 50.6513 218.541 53.8702 218.541 57.1756V124.516Z" stroke="black" stroke-opacity="0.16" stroke-linejoin="round"/>
	<path fill-rule="evenodd" clip-rule="evenodd" d="M197.106 25.7358C199.254 26.3277 201.162 27.6264 202.504 29.4497L215.928 47.6927C217.231 49.4638 218.147 51.4735 218.634 53.592L205.542 53.2903C201.295 53.1924 197.865 49.7912 197.731 45.5445L197.106 25.7358Z" fill="black" fill-opacity="0.16"/>
	<g filter="url(#filter0_d_23768_16025)">
		<path fill-rule="evenodd" clip-rule="evenodd" d="M129.314 60.4176C129.314 61.9346 128.072 63.1576 126.555 63.1336L110.351 62.877C108.832 62.8529 107.613 61.6142 107.613 60.0944C107.613 58.5312 108.9 57.2746 110.462 57.3122L126.663 57.7021C128.138 57.7376 129.314 58.9429 129.314 60.4176Z" fill="white" fill-opacity="0.7" shape-rendering="crispEdges"/>
	</g>
	<g filter="url(#filter1_d_23768_16025)">
		<path fill-rule="evenodd" clip-rule="evenodd" d="M139.384 84.6488C139.384 86.0392 138.272 87.1744 136.882 87.2036L110.329 87.7612C108.838 87.7925 107.613 86.5923 107.613 85.1008C107.613 83.6447 108.783 82.459 110.239 82.44L136.795 82.0936C138.22 82.075 139.384 83.2244 139.384 84.6488Z" fill="white" fill-opacity="0.4" shape-rendering="crispEdges"/>
	</g>
	<g filter="url(#filter2_d_23768_16025)">
		<path fill-rule="evenodd" clip-rule="evenodd" d="M133.275 100.774C133.275 102.22 132.138 103.41 130.694 103.476L110.527 104.395C108.939 104.467 107.613 103.199 107.613 101.61C107.613 100.111 108.798 98.88 110.296 98.8241L130.47 98.0719C132.002 98.0148 133.275 99.2413 133.275 100.774Z" fill="white" fill-opacity="0.4" shape-rendering="crispEdges"/>
	</g>
	<g filter="url(#filter3_d_23768_16025)">
		<path fill-rule="evenodd" clip-rule="evenodd" d="M182.525 51.3199C182.525 52.7298 181.358 53.8596 179.949 53.8138L165.222 53.3345C163.844 53.2897 162.75 52.1594 162.75 50.7805C162.75 49.3284 163.958 48.1682 165.409 48.2273L180.132 48.8268C181.469 48.8813 182.525 49.9814 182.525 51.3199Z" fill="white" fill-opacity="0.9" shape-rendering="crispEdges"/>
	</g>
	<g filter="url(#filter4_d_23768_16025)">
		<path fill-rule="evenodd" clip-rule="evenodd" d="M186.374 74.6344C186.374 75.9388 185.321 76.9982 184.016 77.0057L165.209 77.113C163.853 77.1207 162.75 76.0238 162.75 74.6679C162.75 73.3155 163.848 72.22 165.2 72.2229L184.008 72.2631C185.316 72.2659 186.374 73.3268 186.374 74.6344Z" fill="white" fill-opacity="0.7" shape-rendering="crispEdges"/>
	</g>
	<g filter="url(#filter5_d_23768_16025)">
		<path fill-rule="evenodd" clip-rule="evenodd" d="M182.413 106.723C182.413 108.08 181.355 109.203 179.999 109.283L165.531 110.136C164.022 110.224 162.75 109.025 162.75 107.514C162.75 106.114 163.847 104.961 165.244 104.89L179.719 104.161C181.185 104.087 182.413 105.255 182.413 106.723Z" fill="white" fill-opacity="0.4" shape-rendering="crispEdges"/>
	</g>
	<g filter="url(#filter6_d_23768_16025)">
		<path fill-rule="evenodd" clip-rule="evenodd" d="M189.641 90.0763C189.641 91.4112 188.581 92.5051 187.247 92.5474L165.394 93.2401C163.947 93.286 162.75 92.1259 162.75 90.6787C162.75 89.2868 163.861 88.1494 165.252 88.1167L187.111 87.6046C188.499 87.5721 189.641 88.6881 189.641 90.0763Z" fill="white" fill-opacity="0.7" shape-rendering="crispEdges"/>
	</g>
	<path fill-rule="evenodd" clip-rule="evenodd" d="M245.145 106.386C245.145 111.63 241.094 115.983 235.863 116.36L210.978 118.152C205.187 118.569 200.26 113.984 200.26 108.178V77.2832C200.26 71.7222 204.796 67.2294 210.357 67.2836L235.243 67.5263C240.727 67.5798 245.145 72.041 245.145 77.5258V106.386Z" fill="#25427A" fill-opacity="0.8"/>
	<path d="M244.645 106.386C244.645 111.368 240.797 115.503 235.828 115.861L210.942 117.654C205.441 118.05 200.76 113.694 200.76 108.178V77.2832C200.76 72.0003 205.069 67.7321 210.352 67.7836L235.238 68.0263C240.448 68.0771 244.645 72.3153 244.645 77.5258V106.386Z" stroke="#1587FA" stroke-opacity="0.16"/>
	<g filter="url(#filter7_d_23768_16025)">
		<path fill-rule="evenodd" clip-rule="evenodd" d="M234.457 88.2914C234.458 88.2896 234.46 88.2892 234.461 88.2907C234.661 88.5031 234.66 88.8808 234.459 89.1317L233.108 90.8453C232.906 91.101 232.578 91.1376 232.376 90.9256L224.238 82.3725C221.845 79.8551 217.877 80.1839 215.419 83.147C212.935 86.143 212.935 90.6845 215.419 93.1909L225.729 103.604C227.21 105.098 229.592 104.773 231.047 102.899C232.495 101.035 232.495 98.3206 231.047 96.8226L222.062 87.5168C221.448 86.8811 220.484 86.9761 219.867 87.7324C219.249 88.4923 219.249 89.5884 219.867 90.2205L227.087 97.6228C227.293 97.8347 227.293 98.2183 227.087 98.4814L225.693 100.25C225.484 100.513 225.148 100.557 224.939 100.345L217.654 92.9498C215.798 91.0681 215.798 87.7068 217.654 85.4525C219.495 83.2128 222.433 82.9534 224.238 84.8423L233.141 94.1555C235.711 96.8445 235.711 101.704 233.141 105.043C230.542 108.419 226.246 109.04 223.571 106.366L213.163 95.964C209.394 92.1971 209.394 85.3319 213.163 80.827C216.874 76.3878 222.827 75.9494 226.39 79.7345L234.452 88.292C234.454 88.2935 234.456 88.2931 234.457 88.2914Z" fill="white" fill-opacity="0.9" shape-rendering="crispEdges"/>
	</g>
	<defs>
		<filter id="filter0_d_23768_16025" x="97.6125" y="51.3114" width="41.7017" height="25.8225" filterUnits="userSpaceOnUse" color-interpolation-filters="sRGB">
			<feFlood flood-opacity="0" result="BackgroundImageFix"/>
			<feColorMatrix in="SourceAlpha" type="matrix" values="0 0 0 0 0 0 0 0 0 0 0 0 0 0 0 0 0 0 127 0" result="hardAlpha"/>
			<feOffset dy="4"/>
			<feGaussianBlur stdDeviation="5"/>
			<feComposite in2="hardAlpha" operator="out"/>
			<feColorMatrix type="matrix" values="0 0 0 0 0 0 0 0 0 0 0 0 0 0 0 0 0 0 0.05 0"/>
			<feBlend mode="normal" in2="BackgroundImageFix" result="effect1_dropShadow_23768_16025"/>
			<feBlend mode="normal" in="SourceGraphic" in2="effect1_dropShadow_23768_16025" result="shape"/>
		</filter>
		<filter id="filter1_d_23768_16025" x="97.6125" y="76.0934" width="51.7715" height="25.6685" filterUnits="userSpaceOnUse" color-interpolation-filters="sRGB">
			<feFlood flood-opacity="0" result="BackgroundImageFix"/>
			<feColorMatrix in="SourceAlpha" type="matrix" values="0 0 0 0 0 0 0 0 0 0 0 0 0 0 0 0 0 0 127 0" result="hardAlpha"/>
			<feOffset dy="4"/>
			<feGaussianBlur stdDeviation="5"/>
			<feComposite in2="hardAlpha" operator="out"/>
			<feColorMatrix type="matrix" values="0 0 0 0 0 0 0 0 0 0 0 0 0 0 0 0 0 0 0.05 0"/>
			<feBlend mode="normal" in2="BackgroundImageFix" result="effect1_dropShadow_23768_16025"/>
			<feBlend mode="normal" in="SourceGraphic" in2="effect1_dropShadow_23768_16025" result="shape"/>
		</filter>
		<filter id="filter2_d_23768_16025" x="97.6125" y="92.0699" width="45.6628" height="26.3279" filterUnits="userSpaceOnUse" color-interpolation-filters="sRGB">
			<feFlood flood-opacity="0" result="BackgroundImageFix"/>
			<feColorMatrix in="SourceAlpha" type="matrix" values="0 0 0 0 0 0 0 0 0 0 0 0 0 0 0 0 0 0 127 0" result="hardAlpha"/>
			<feOffset dy="4"/>
			<feGaussianBlur stdDeviation="5"/>
			<feComposite in2="hardAlpha" operator="out"/>
			<feColorMatrix type="matrix" values="0 0 0 0 0 0 0 0 0 0 0 0 0 0 0 0 0 0 0.05 0"/>
			<feBlend mode="normal" in2="BackgroundImageFix" result="effect1_dropShadow_23768_16025"/>
			<feBlend mode="normal" in="SourceGraphic" in2="effect1_dropShadow_23768_16025" result="shape"/>
		</filter>
		<filter id="filter3_d_23768_16025" x="152.75" y="42.2251" width="39.7756" height="25.5901" filterUnits="userSpaceOnUse" color-interpolation-filters="sRGB">
			<feFlood flood-opacity="0" result="BackgroundImageFix"/>
			<feColorMatrix in="SourceAlpha" type="matrix" values="0 0 0 0 0 0 0 0 0 0 0 0 0 0 0 0 0 0 127 0" result="hardAlpha"/>
			<feOffset dy="4"/>
			<feGaussianBlur stdDeviation="5"/>
			<feComposite in2="hardAlpha" operator="out"/>
			<feColorMatrix type="matrix" values="0 0 0 0 0 0 0 0 0 0 0 0 0 0 0 0 0 0 0.05 0"/>
			<feBlend mode="normal" in2="BackgroundImageFix" result="effect1_dropShadow_23768_16025"/>
			<feBlend mode="normal" in="SourceGraphic" in2="effect1_dropShadow_23768_16025" result="shape"/>
		</filter>
		<filter id="filter4_d_23768_16025" x="152.75" y="66.2229" width="43.6245" height="24.8901" filterUnits="userSpaceOnUse" color-interpolation-filters="sRGB">
			<feFlood flood-opacity="0" result="BackgroundImageFix"/>
			<feColorMatrix in="SourceAlpha" type="matrix" values="0 0 0 0 0 0 0 0 0 0 0 0 0 0 0 0 0 0 127 0" result="hardAlpha"/>
			<feOffset dy="4"/>
			<feGaussianBlur stdDeviation="5"/>
			<feComposite in2="hardAlpha" operator="out"/>
			<feColorMatrix type="matrix" values="0 0 0 0 0 0 0 0 0 0 0 0 0 0 0 0 0 0 0.05 0"/>
			<feBlend mode="normal" in2="BackgroundImageFix" result="effect1_dropShadow_23768_16025"/>
			<feBlend mode="normal" in="SourceGraphic" in2="effect1_dropShadow_23768_16025" result="shape"/>
		</filter>
		<filter id="filter5_d_23768_16025" x="152.75" y="98.158" width="39.6633" height="25.9823" filterUnits="userSpaceOnUse" color-interpolation-filters="sRGB">
			<feFlood flood-opacity="0" result="BackgroundImageFix"/>
			<feColorMatrix in="SourceAlpha" type="matrix" values="0 0 0 0 0 0 0 0 0 0 0 0 0 0 0 0 0 0 127 0" result="hardAlpha"/>
			<feOffset dy="4"/>
			<feGaussianBlur stdDeviation="5"/>
			<feComposite in2="hardAlpha" operator="out"/>
			<feColorMatrix type="matrix" values="0 0 0 0 0 0 0 0 0 0 0 0 0 0 0 0 0 0 0.05 0"/>
			<feBlend mode="normal" in2="BackgroundImageFix" result="effect1_dropShadow_23768_16025"/>
			<feBlend mode="normal" in="SourceGraphic" in2="effect1_dropShadow_23768_16025" result="shape"/>
		</filter>
		<filter id="filter6_d_23768_16025" x="152.75" y="81.6039" width="46.8914" height="25.6376" filterUnits="userSpaceOnUse" color-interpolation-filters="sRGB">
			<feFlood flood-opacity="0" result="BackgroundImageFix"/>
			<feColorMatrix in="SourceAlpha" type="matrix" values="0 0 0 0 0 0 0 0 0 0 0 0 0 0 0 0 0 0 127 0" result="hardAlpha"/>
			<feOffset dy="4"/>
			<feGaussianBlur stdDeviation="5"/>
			<feComposite in2="hardAlpha" operator="out"/>
			<feColorMatrix type="matrix" values="0 0 0 0 0 0 0 0 0 0 0 0 0 0 0 0 0 0 0.05 0"/>
			<feBlend mode="normal" in2="BackgroundImageFix" result="effect1_dropShadow_23768_16025"/>
			<feBlend mode="normal" in="SourceGraphic" in2="effect1_dropShadow_23768_16025" result="shape"/>
		</filter>
		<filter id="filter7_d_23768_16025" x="200.336" y="71.1699" width="44.7329" height="50.8619" filterUnits="userSpaceOnUse" color-interpolation-filters="sRGB">
			<feFlood flood-opacity="0" result="BackgroundImageFix"/>
			<feColorMatrix in="SourceAlpha" type="matrix" values="0 0 0 0 0 0 0 0 0 0 0 0 0 0 0 0 0 0 127 0" result="hardAlpha"/>
			<feOffset dy="4"/>
			<feGaussianBlur stdDeviation="5"/>
			<feComposite in2="hardAlpha" operator="out"/>
			<feColorMatrix type="matrix" values="0 0 0 0 0 0 0 0 0 0 0 0 0 0 0 0 0 0 0.05 0"/>
			<feBlend mode="normal" in2="BackgroundImageFix" result="effect1_dropShadow_23768_16025"/>
			<feBlend mode="normal" in="SourceGraphic" in2="effect1_dropShadow_23768_16025" result="shape"/>
		</filter>
	</defs>
</svg>
