<svg width="339" height="162" viewBox="0 0 339 162" fill="none" xmlns="http://www.w3.org/2000/svg">
	<path fill-rule="evenodd" clip-rule="evenodd" d="M162.702 121.685C162.702 126.856 158.76 131.174 153.61 131.644L104.908 136.084C99.0509 136.618 94 132.006 94 126.125V38.8401C94 33.0564 98.8918 28.4788 104.663 28.8621L136.22 30.9585C140.654 31.253 144.766 33.3785 147.571 36.8258L159.114 51.0138C161.435 53.8671 162.702 57.433 162.702 61.1113V121.685Z" fill="#1BCE7B" fill-opacity="0.78"/>
	<path d="M162.202 121.685C162.202 126.598 158.457 130.7 153.565 131.146L104.863 135.586C99.2983 136.093 94.5 131.712 94.5 126.125V38.8401C94.5 33.3456 99.1473 28.9968 104.63 29.361L136.187 31.4574C140.482 31.7427 144.466 33.8018 147.183 37.1413L158.726 51.3294C160.975 54.0935 162.202 57.548 162.202 61.1113V121.685Z" stroke="black" stroke-opacity="0.16" stroke-linejoin="round"/>
	<path fill-rule="evenodd" clip-rule="evenodd" d="M139.827 31.6194C142.842 32.5391 145.547 34.3384 147.571 36.8261L159.113 51.0141C160.939 53.2574 162.112 55.9413 162.53 58.7739L148.306 58.4718C144.061 58.3816 140.626 54.9907 140.481 50.7471L139.827 31.6194Z" fill="white" fill-opacity="0.4"/>
	<path fill-rule="evenodd" clip-rule="evenodd" d="M219.041 124.516C219.041 129.632 215.179 133.923 210.091 134.461L161.988 139.542C156.082 140.166 150.938 135.536 150.938 129.597V32.6475C150.938 26.8046 155.926 22.2063 161.749 22.6805L195.261 25.4095C198.146 25.6445 200.788 27.1182 202.504 29.4498L215.928 47.6928C217.95 50.4409 219.041 53.7636 219.041 57.1756V124.516Z" fill="#1B79E6" fill-opacity="0.78"/>
	<path d="M218.541 124.516C218.541 129.376 214.872 133.453 210.039 133.963L161.935 139.045C156.325 139.637 151.438 135.239 151.438 129.597V32.6475C151.438 27.0967 156.176 22.7283 161.709 23.1788L195.22 25.9079C197.961 26.1311 200.471 27.5311 202.101 29.7461L215.525 47.9891C217.484 50.6514 218.541 53.8702 218.541 57.1756V124.516Z" stroke="black" stroke-opacity="0.16" stroke-linejoin="round"/>
	<path fill-rule="evenodd" clip-rule="evenodd" d="M197.106 25.7358C199.254 26.3278 201.162 27.6265 202.504 29.4498L215.928 47.6928C217.231 49.4639 218.147 51.4736 218.634 53.592L205.542 53.2903C201.295 53.1924 197.865 49.7912 197.731 45.5446L197.106 25.7358Z" fill="black" fill-opacity="0.16"/>
	<g filter="url(#filter0_d_23768_9503)">
		<path fill-rule="evenodd" clip-rule="evenodd" d="M129.314 60.4176C129.314 61.9346 128.071 63.1576 126.555 63.1336L110.351 62.877C108.832 62.8529 107.612 61.6142 107.612 60.0944C107.612 58.5312 108.899 57.2746 110.462 57.3122L126.663 57.7021C128.137 57.7376 129.314 58.9429 129.314 60.4176Z" fill="white" fill-opacity="0.7" shape-rendering="crispEdges"/>
	</g>
	<g filter="url(#filter1_d_23768_9503)">
		<path fill-rule="evenodd" clip-rule="evenodd" d="M139.384 84.6488C139.384 86.0392 138.272 87.1744 136.882 87.2036L110.329 87.7612C108.838 87.7925 107.612 86.5923 107.612 85.1008C107.612 83.6447 108.783 82.459 110.239 82.44L136.795 82.0936C138.219 82.075 139.384 83.2244 139.384 84.6488Z" fill="white" fill-opacity="0.4" shape-rendering="crispEdges"/>
	</g>
	<g filter="url(#filter2_d_23768_9503)">
		<path fill-rule="evenodd" clip-rule="evenodd" d="M133.275 100.774C133.275 102.22 132.138 103.41 130.694 103.476L110.527 104.395C108.939 104.467 107.612 103.199 107.612 101.61C107.612 100.111 108.798 98.88 110.296 98.8241L130.47 98.0719C132.002 98.0148 133.275 99.2413 133.275 100.774Z" fill="white" fill-opacity="0.4" shape-rendering="crispEdges"/>
	</g>
	<g filter="url(#filter3_d_23768_9503)">
		<path fill-rule="evenodd" clip-rule="evenodd" d="M182.525 51.3198C182.525 52.7297 181.358 53.8596 179.949 53.8137L165.222 53.3344C163.844 53.2896 162.75 52.1594 162.75 50.7804C162.75 49.3284 163.958 48.1681 165.409 48.2272L180.131 48.8267C181.469 48.8812 182.525 49.9813 182.525 51.3198Z" fill="white" fill-opacity="0.9" shape-rendering="crispEdges"/>
	</g>
	<g filter="url(#filter4_d_23768_9503)">
		<path fill-rule="evenodd" clip-rule="evenodd" d="M186.374 74.6343C186.374 75.9386 185.321 76.9981 184.016 77.0055L165.209 77.1128C163.853 77.1206 162.75 76.0236 162.75 74.6678C162.75 73.3154 163.847 72.2199 165.2 72.2228L184.008 72.263C185.315 72.2658 186.374 73.3266 186.374 74.6343Z" fill="white" fill-opacity="0.7" shape-rendering="crispEdges"/>
	</g>
	<g filter="url(#filter5_d_23768_9503)">
		<path fill-rule="evenodd" clip-rule="evenodd" d="M182.413 106.723C182.413 108.08 181.354 109.203 179.999 109.283L165.531 110.136C164.022 110.225 162.75 109.025 162.75 107.514C162.75 106.115 163.846 104.961 165.244 104.891L179.719 104.161C181.184 104.088 182.413 105.256 182.413 106.723Z" fill="white" fill-opacity="0.4" shape-rendering="crispEdges"/>
	</g>
	<g filter="url(#filter6_d_23768_9503)">
		<path fill-rule="evenodd" clip-rule="evenodd" d="M189.641 90.0764C189.641 91.4113 188.581 92.5052 187.247 92.5475L165.393 93.2403C163.947 93.2861 162.75 92.126 162.75 90.6789C162.75 89.2869 163.861 88.1495 165.252 88.1169L187.111 87.6047C188.498 87.5722 189.641 88.6883 189.641 90.0764Z" fill="white" fill-opacity="0.7" shape-rendering="crispEdges"/>
	</g>
	<path fill-rule="evenodd" clip-rule="evenodd" d="M245.145 106.385C245.145 111.63 241.094 115.983 235.864 116.36L210.978 118.152C205.187 118.569 200.26 113.984 200.26 108.178V77.2831C200.26 71.7221 204.797 67.2293 210.357 67.2835L235.243 67.5262C240.727 67.5797 245.145 72.0409 245.145 77.5257V106.385Z" fill="#25427A" fill-opacity="0.8"/>
	<path d="M244.645 106.385C244.645 111.367 240.797 115.503 235.828 115.861L210.942 117.653C205.441 118.05 200.76 113.693 200.76 108.178V77.2831C200.76 72.0001 205.07 67.732 210.352 67.7835L235.238 68.0262C240.448 68.077 244.645 72.3151 244.645 77.5257V106.385Z" stroke="#1587FA" stroke-opacity="0.16"/>
	<g filter="url(#filter7_d_23768_9503)">
		<path fill-rule="evenodd" clip-rule="evenodd" d="M234.296 90.6376L230.07 96.324C227.673 99.5519 223.684 99.721 221.161 96.5898C220.759 96.093 220.443 95.5264 220.165 94.941L222.309 92.1791C222.41 92.0475 222.535 91.9723 222.654 91.8823C222.801 92.5201 223.056 93.1216 223.449 93.6171C224.692 95.1894 226.691 95.1384 227.902 93.5352L232.202 87.8475C233.362 86.3128 233.362 83.8086 232.202 82.2377C231.032 80.6519 229.103 80.5861 227.902 82.1182L226.337 84.1188C225.052 83.4448 223.652 83.2393 222.275 83.4662L225.696 79.1776C228.132 76.1243 231.981 76.3231 234.297 79.5147C236.568 82.6459 236.568 87.5776 234.297 90.635L234.296 90.6376ZM222.792 100.294L221.159 102.455C219.88 104.147 217.771 104.271 216.458 102.703C215.13 101.117 215.13 98.4253 216.458 96.7308L221.159 90.7276C222.427 89.1096 224.46 89.1083 225.693 90.6967C226.076 91.1895 226.325 91.7843 226.469 92.4113C226.585 92.3227 226.704 92.2502 226.802 92.1213L228.836 89.4547C228.579 88.8787 228.28 88.3242 227.901 87.8274C225.462 84.6331 221.4 84.5619 218.83 87.7857L214.041 93.7903C211.32 97.2048 211.32 102.656 214.041 105.844C216.707 108.966 220.919 108.641 223.447 105.238L226.838 100.676C225.495 100.995 224.099 100.887 222.792 100.294Z" fill="white" fill-opacity="0.9" shape-rendering="crispEdges"/>
	</g>
	<defs>
		<filter id="filter0_d_23768_9503" x="97.6123" y="51.3114" width="41.7017" height="25.8225" filterUnits="userSpaceOnUse" color-interpolation-filters="sRGB">
			<feFlood flood-opacity="0" result="BackgroundImageFix"/>
			<feColorMatrix in="SourceAlpha" type="matrix" values="0 0 0 0 0 0 0 0 0 0 0 0 0 0 0 0 0 0 127 0" result="hardAlpha"/>
			<feOffset dy="4"/>
			<feGaussianBlur stdDeviation="5"/>
			<feComposite in2="hardAlpha" operator="out"/>
			<feColorMatrix type="matrix" values="0 0 0 0 0 0 0 0 0 0 0 0 0 0 0 0 0 0 0.05 0"/>
			<feBlend mode="normal" in2="BackgroundImageFix" result="effect1_dropShadow_23768_9503"/>
			<feBlend mode="normal" in="SourceGraphic" in2="effect1_dropShadow_23768_9503" result="shape"/>
		</filter>
		<filter id="filter1_d_23768_9503" x="97.6123" y="76.0934" width="51.7715" height="25.6685" filterUnits="userSpaceOnUse" color-interpolation-filters="sRGB">
			<feFlood flood-opacity="0" result="BackgroundImageFix"/>
			<feColorMatrix in="SourceAlpha" type="matrix" values="0 0 0 0 0 0 0 0 0 0 0 0 0 0 0 0 0 0 127 0" result="hardAlpha"/>
			<feOffset dy="4"/>
			<feGaussianBlur stdDeviation="5"/>
			<feComposite in2="hardAlpha" operator="out"/>
			<feColorMatrix type="matrix" values="0 0 0 0 0 0 0 0 0 0 0 0 0 0 0 0 0 0 0.05 0"/>
			<feBlend mode="normal" in2="BackgroundImageFix" result="effect1_dropShadow_23768_9503"/>
			<feBlend mode="normal" in="SourceGraphic" in2="effect1_dropShadow_23768_9503" result="shape"/>
		</filter>
		<filter id="filter2_d_23768_9503" x="97.6123" y="92.0699" width="45.6628" height="26.3279" filterUnits="userSpaceOnUse" color-interpolation-filters="sRGB">
			<feFlood flood-opacity="0" result="BackgroundImageFix"/>
			<feColorMatrix in="SourceAlpha" type="matrix" values="0 0 0 0 0 0 0 0 0 0 0 0 0 0 0 0 0 0 127 0" result="hardAlpha"/>
			<feOffset dy="4"/>
			<feGaussianBlur stdDeviation="5"/>
			<feComposite in2="hardAlpha" operator="out"/>
			<feColorMatrix type="matrix" values="0 0 0 0 0 0 0 0 0 0 0 0 0 0 0 0 0 0 0.05 0"/>
			<feBlend mode="normal" in2="BackgroundImageFix" result="effect1_dropShadow_23768_9503"/>
			<feBlend mode="normal" in="SourceGraphic" in2="effect1_dropShadow_23768_9503" result="shape"/>
		</filter>
		<filter id="filter3_d_23768_9503" x="152.75" y="42.225" width="39.7756" height="25.59" filterUnits="userSpaceOnUse" color-interpolation-filters="sRGB">
			<feFlood flood-opacity="0" result="BackgroundImageFix"/>
			<feColorMatrix in="SourceAlpha" type="matrix" values="0 0 0 0 0 0 0 0 0 0 0 0 0 0 0 0 0 0 127 0" result="hardAlpha"/>
			<feOffset dy="4"/>
			<feGaussianBlur stdDeviation="5"/>
			<feComposite in2="hardAlpha" operator="out"/>
			<feColorMatrix type="matrix" values="0 0 0 0 0 0 0 0 0 0 0 0 0 0 0 0 0 0 0.05 0"/>
			<feBlend mode="normal" in2="BackgroundImageFix" result="effect1_dropShadow_23768_9503"/>
			<feBlend mode="normal" in="SourceGraphic" in2="effect1_dropShadow_23768_9503" result="shape"/>
		</filter>
		<filter id="filter4_d_23768_9503" x="152.75" y="66.2228" width="43.6245" height="24.8901" filterUnits="userSpaceOnUse" color-interpolation-filters="sRGB">
			<feFlood flood-opacity="0" result="BackgroundImageFix"/>
			<feColorMatrix in="SourceAlpha" type="matrix" values="0 0 0 0 0 0 0 0 0 0 0 0 0 0 0 0 0 0 127 0" result="hardAlpha"/>
			<feOffset dy="4"/>
			<feGaussianBlur stdDeviation="5"/>
			<feComposite in2="hardAlpha" operator="out"/>
			<feColorMatrix type="matrix" values="0 0 0 0 0 0 0 0 0 0 0 0 0 0 0 0 0 0 0.05 0"/>
			<feBlend mode="normal" in2="BackgroundImageFix" result="effect1_dropShadow_23768_9503"/>
			<feBlend mode="normal" in="SourceGraphic" in2="effect1_dropShadow_23768_9503" result="shape"/>
		</filter>
		<filter id="filter5_d_23768_9503" x="152.75" y="98.1581" width="39.6631" height="25.9823" filterUnits="userSpaceOnUse" color-interpolation-filters="sRGB">
			<feFlood flood-opacity="0" result="BackgroundImageFix"/>
			<feColorMatrix in="SourceAlpha" type="matrix" values="0 0 0 0 0 0 0 0 0 0 0 0 0 0 0 0 0 0 127 0" result="hardAlpha"/>
			<feOffset dy="4"/>
			<feGaussianBlur stdDeviation="5"/>
			<feComposite in2="hardAlpha" operator="out"/>
			<feColorMatrix type="matrix" values="0 0 0 0 0 0 0 0 0 0 0 0 0 0 0 0 0 0 0.05 0"/>
			<feBlend mode="normal" in2="BackgroundImageFix" result="effect1_dropShadow_23768_9503"/>
			<feBlend mode="normal" in="SourceGraphic" in2="effect1_dropShadow_23768_9503" result="shape"/>
		</filter>
		<filter id="filter6_d_23768_9503" x="152.75" y="81.604" width="46.8914" height="25.6376" filterUnits="userSpaceOnUse" color-interpolation-filters="sRGB">
			<feFlood flood-opacity="0" result="BackgroundImageFix"/>
			<feColorMatrix in="SourceAlpha" type="matrix" values="0 0 0 0 0 0 0 0 0 0 0 0 0 0 0 0 0 0 127 0" result="hardAlpha"/>
			<feOffset dy="4"/>
			<feGaussianBlur stdDeviation="5"/>
			<feComposite in2="hardAlpha" operator="out"/>
			<feColorMatrix type="matrix" values="0 0 0 0 0 0 0 0 0 0 0 0 0 0 0 0 0 0 0.05 0"/>
			<feBlend mode="normal" in2="BackgroundImageFix" result="effect1_dropShadow_23768_9503"/>
			<feBlend mode="normal" in="SourceGraphic" in2="effect1_dropShadow_23768_9503" result="shape"/>
		</filter>
		<filter id="filter7_d_23768_9503" x="202" y="71" width="44" height="51" filterUnits="userSpaceOnUse" color-interpolation-filters="sRGB">
			<feFlood flood-opacity="0" result="BackgroundImageFix"/>
			<feColorMatrix in="SourceAlpha" type="matrix" values="0 0 0 0 0 0 0 0 0 0 0 0 0 0 0 0 0 0 127 0" result="hardAlpha"/>
			<feOffset dy="4"/>
			<feGaussianBlur stdDeviation="5"/>
			<feComposite in2="hardAlpha" operator="out"/>
			<feColorMatrix type="matrix" values="0 0 0 0 0 0 0 0 0 0 0 0 0 0 0 0 0 0 0.05 0"/>
			<feBlend mode="normal" in2="BackgroundImageFix" result="effect1_dropShadow_23768_9503"/>
			<feBlend mode="normal" in="SourceGraphic" in2="effect1_dropShadow_23768_9503" result="shape"/>
		</filter>
	</defs>
</svg>
