<svg width="219" height="178" viewBox="0 0 219 178" fill="none" xmlns="http://www.w3.org/2000/svg">
<path fill-rule="evenodd" clip-rule="evenodd" d="M157.409 5.08198C158.738 5.08198 159.815 4.00495 159.815 2.67636C159.815 1.34778 158.738 0.270752 157.409 0.270752C156.08 0.270752 155.003 1.34778 155.003 2.67636C155.003 4.00495 156.08 5.08198 157.409 5.08198ZM38.7039 25.8626C41.5841 25.8626 43.9189 23.5278 43.9189 20.6476C43.9189 17.7675 41.5841 15.4326 38.7039 15.4326C35.8237 15.4326 33.4889 17.7675 33.4889 20.6476C33.4889 23.5278 35.8237 25.8626 38.7039 25.8626ZM38.7039 22.955C39.9782 22.955 41.0112 21.9219 41.0112 20.6476C41.0112 19.3733 39.9782 18.3403 38.7039 18.3403C37.4296 18.3403 36.3965 19.3733 36.3965 20.6476C36.3965 21.9219 37.4296 22.955 38.7039 22.955ZM12.2102 76.7735C16.0894 76.7735 19.2341 73.6288 19.2341 69.7496C19.2341 65.8704 16.0894 62.7257 12.2102 62.7257C8.33099 62.7257 5.18628 65.8704 5.18628 69.7496C5.18628 73.6288 8.33099 76.7735 12.2102 76.7735ZM12.2102 73.1077C14.0648 73.1077 15.5683 71.6042 15.5683 69.7496C15.5683 67.895 14.0648 66.3915 12.2102 66.3915C10.3555 66.3915 8.85206 67.895 8.85206 69.7496C8.85206 71.6042 10.3555 73.1077 12.2102 73.1077ZM190.539 165.155C193.301 165.155 195.54 162.916 195.54 160.155C195.54 157.393 193.301 155.154 190.539 155.154C187.778 155.154 185.539 157.393 185.539 160.155C185.539 162.916 187.778 165.155 190.539 165.155ZM190.539 162.553C191.864 162.553 192.938 161.479 192.938 160.155C192.938 158.83 191.864 157.756 190.539 157.756C189.215 157.756 188.141 158.83 188.141 160.155C188.141 161.479 189.215 162.553 190.539 162.553ZM110.5 178C157.996 178 196.5 139.496 196.5 92C196.5 44.5035 157.996 6 110.5 6C63.0035 6 24.5 44.5035 24.5 92C24.5 139.496 63.0035 178 110.5 178ZM24.4588 171.989H7.74022C7.59716 171.989 7.45534 171.983 7.31493 171.973C3.53648 171.884 0.500191 168.709 0.5 164.805C0.501099 162.902 1.23768 161.078 2.54769 159.733C3.21919 159.044 4.01317 158.509 4.87699 158.152C4.86254 157.959 4.85518 157.763 4.85518 157.566C4.85637 155.558 5.63359 153.633 7.01587 152.214C8.39815 150.795 10.2723 149.999 12.2259 150C14.7285 150.003 16.938 151.289 18.2658 153.252C18.8964 153.023 19.5752 152.898 20.2823 152.898C23.4062 152.902 25.972 155.349 26.2694 158.479C29.2627 159.15 31.5026 161.89 31.5 165.167C31.4969 168.943 28.5168 172.002 24.8426 172C24.7138 172 24.5858 171.996 24.4588 171.989ZM201.638 38.9923H213.503C213.593 38.9974 213.684 39 213.775 39C216.383 39.0011 218.498 36.9155 218.5 34.341C218.502 32.1069 216.912 30.2384 214.788 29.7812C214.577 27.6473 212.756 25.9787 210.539 25.9761C210.037 25.9758 209.555 26.0609 209.108 26.2174C208.166 24.879 206.598 24.0021 204.822 24C203.435 23.9992 202.105 24.5422 201.124 25.5096C200.143 26.4769 199.592 27.7895 199.591 29.1584C199.591 29.293 199.596 29.4264 199.606 29.5584C198.993 29.8018 198.43 30.1661 197.953 30.636C197.024 31.5529 196.501 32.7968 196.5 34.0942C196.5 36.756 198.655 38.921 201.336 38.9813C201.436 38.9886 201.537 38.9923 201.638 38.9923Z" fill="#E5F9FF"/>
</svg>
