<svg width="36" height="36" viewBox="0 0 36 36" fill="none" xmlns="http://www.w3.org/2000/svg">
	<rect x="0.5" y="0.5" width="35" height="35" rx="17.5" stroke="#DFE0E3"/>
	<circle cx="18" cy="17.9998" r="12.0642" fill="#37CADD"/>
	<path fill-rule="evenodd" clip-rule="evenodd" d="M9.95433 19.2617C10.0397 19.8104 10.6048 20.1174 11.1374 19.9604L11.5274 19.8454C12.0531 19.6905 12.3467 19.1406 12.2905 18.5954C12.2703 18.3996 12.26 18.2008 12.26 17.9997C12.26 14.8295 14.8299 12.2596 18 12.2596C20.0722 12.2596 21.8879 13.3576 22.897 15.0035C23.0945 15.3256 23.4286 15.5509 23.8063 15.5599L24.3989 15.5741C25.0812 15.5904 25.5758 14.9309 25.2672 14.3222C23.9238 11.6725 21.1739 9.85645 17.9999 9.85645C13.5027 9.85645 9.85706 13.5021 9.85706 17.9993C9.85706 18.4287 9.89029 18.8503 9.95433 19.2617Z" fill="url(#paint0_linear_201_22419)"/>
	<path fill-rule="evenodd" clip-rule="evenodd" d="M9.95433 19.2617C10.0397 19.8104 10.6048 20.1174 11.1374 19.9604L11.5274 19.8454C12.0531 19.6905 12.3467 19.1406 12.2905 18.5954C12.2703 18.3996 12.26 18.2008 12.26 17.9997C12.26 14.8295 14.8299 12.2596 18 12.2596C20.0722 12.2596 21.8879 13.3576 22.897 15.0035C23.0945 15.3256 23.4286 15.5509 23.8063 15.5599L24.3989 15.5741C25.0812 15.5904 25.5758 14.9309 25.2672 14.3222C23.9238 11.6725 21.1739 9.85645 17.9999 9.85645C13.5027 9.85645 9.85706 13.5021 9.85706 17.9993C9.85706 18.4287 9.89029 18.8503 9.95433 19.2617Z" fill="white"/>
	<g opacity="0.5">
		<path fill-rule="evenodd" clip-rule="evenodd" d="M12.1316 22.2639C11.6946 22.4325 11.5291 22.9661 11.8353 23.3205C13.3285 25.0491 15.5364 26.143 17.9999 26.143C20.3419 26.143 22.4529 25.1543 23.9384 23.5715C24.2652 23.2234 24.11 22.6733 23.6666 22.4959C23.3735 22.3787 23.0411 22.4666 22.8209 22.6927C21.5988 23.9482 19.8905 24.7279 18 24.7279C16.0089 24.7279 14.2198 23.8629 12.9881 22.4881C12.7724 22.2474 12.4332 22.1475 12.1316 22.2639Z" fill="#D8D8D8"/>
		<path fill-rule="evenodd" clip-rule="evenodd" d="M12.1316 22.2639C11.6946 22.4325 11.5291 22.9661 11.8353 23.3205C13.3285 25.0491 15.5364 26.143 17.9999 26.143C20.3419 26.143 22.4529 25.1543 23.9384 23.5715C24.2652 23.2234 24.11 22.6733 23.6666 22.4959C23.3735 22.3787 23.0411 22.4666 22.8209 22.6927C21.5988 23.9482 19.8905 24.7279 18 24.7279C16.0089 24.7279 14.2198 23.8629 12.9881 22.4881C12.7724 22.2474 12.4332 22.1475 12.1316 22.2639Z" fill="white"/>
	</g>
	<path d="M26.2391 17.5643C26.4092 17.5861 26.5366 17.7307 26.537 17.9021C26.5375 18.0736 26.4107 18.2188 26.2408 18.2414L19.8733 19.0916C19.165 19.1862 18.5352 18.6362 18.5334 17.9217C18.5317 17.2071 19.1588 16.6541 19.8676 16.7452L26.2391 17.5643Z" fill="#525C69"/>
	<path d="M26.2391 17.5643C26.4092 17.5861 26.5366 17.7307 26.537 17.9021C26.5375 18.0736 26.4107 18.2188 26.2408 18.2414L19.8733 19.0916C19.165 19.1862 18.5352 18.6362 18.5334 17.9217C18.5317 17.2071 19.1588 16.6541 19.8676 16.7452L26.2391 17.5643Z" fill="white"/>
	<circle cx="18" cy="17.9998" r="2.14286" fill="#8B8B8B"/>
	<circle cx="18" cy="17.9998" r="2.14286" fill="white" fill-opacity="0.8"/>
	<defs>
		<linearGradient id="paint0_linear_201_22419" x1="23.9999" y1="12.0122" x2="8.33014" y2="17.7573" gradientUnits="userSpaceOnUse">
			<stop stop-color="#B4ED00"/>
			<stop offset="1" stop-color="#3BCEF7"/>
		</linearGradient>
	</defs>
</svg>