<svg xmlns="http://www.w3.org/2000/svg" width="208" height="115" viewBox="0 0 208 115"><path fill="#FFFFFF" fill-rule="evenodd" d="M208,1.0658141e-13 L208,115 L0,115 L0,1.0658141e-13 L208,1.0658141e-13 Z M104,0 C46.562386,0 1.27897692e-12,46.1146708 1.27897692e-12,103 C1.27897692e-12,106.6084 0.187354458,110.173462 0.5529547,113.686164 L0.669,114.74 L24.4925275,111.815852 C24.1670915,108.921532 24,105.980035 24,103 C24,59.3695048 59.81722,24 104,24 C148.18278,24 184,59.3695048 184,103 C184,105.977973 183.83314,108.91746 183.508148,111.809843 L207.332281,114.736175 C207.710159,111.436641 207.930626,108.089833 207.986067,104.703293 L207.999928,103.122 L207.999928,102.877833 C207.933321,46.0486617 161.396491,0 104,0 Z"/></svg>