<svg width="32" height="32" viewBox="0 0 32 32" fill="none" xmlns="http://www.w3.org/2000/svg">
<path fill-rule="evenodd" clip-rule="evenodd" d="M6.97154 5.33008C6.06678 5.33008 5.33333 6.06353 5.33333 6.96829V13.3768C5.33333 14.2815 6.06678 15.015 6.97154 15.015H13.38C14.2848 15.015 15.0182 14.2815 15.0182 13.3768V6.96829C15.0182 6.06353 14.2848 5.33008 13.38 5.33008H6.97154ZM13.2247 7.12365H7.12685V13.2215H13.2247V7.12365ZM8.51057 8.50721H11.8413V11.838H8.51057V8.50721ZM6.97169 16.9622C6.06693 16.9622 5.33348 17.6956 5.33348 18.6004V25.0089C5.33348 25.9136 6.06693 26.6471 6.97169 26.6471H13.3802C14.2849 26.6471 15.0184 25.9136 15.0184 25.0089V18.6004C15.0184 17.6956 14.2849 16.9622 13.3802 16.9622H6.97169ZM13.2249 18.7557H7.127V24.8536H13.2249V18.7557ZM8.51055 20.1392H11.8413V23.47H8.51055V20.1392ZM17.0167 6.96829C17.0167 6.06353 17.7502 5.33008 18.655 5.33008H25.0634C25.9682 5.33008 26.7016 6.06353 26.7016 6.96829V13.3768C26.7016 14.2815 25.9682 15.015 25.0634 15.015H18.655C17.7502 15.015 17.0167 14.2815 17.0167 13.3768V6.96829ZM18.8103 7.12365H24.9081V13.2215H18.8103V7.12365ZM23.5248 8.50721H20.194V11.838H23.5248V8.50721ZM22.8582 16.9622H20.8598V18.4481H19.0152V16.9622H18.655C17.7502 16.9622 17.0167 17.6956 17.0167 18.6004V25.0089C17.0167 25.9136 17.7502 26.6471 18.655 26.6471H19.0152V20.4466H20.8598V22.8039H22.8582V20.4466H24.7031V22.8039H26.7016V18.6004C26.7016 17.6956 25.9682 16.9622 25.0634 16.9622H24.7031V18.4481H22.8582V16.9622ZM20.8598 24.2898H22.8582V26.6469H20.8598V24.2898ZM24.7031 24.2898H26.7016V25.0087C26.7016 25.9135 25.9682 26.6469 25.0634 26.6469H24.7031V24.2898Z" fill="#525C69"/>
</svg>
