<svg width="13" height="16" viewBox="0 0 13 16" fill="none" xmlns="http://www.w3.org/2000/svg">
<path d="M4.10602 15.4997C1.92938 15.4872 0.128906 11.0439 0.128906 8.78109C0.128906 5.08474 2.9018 4.2755 3.97045 4.2755C4.45205 4.2755 4.9663 4.46463 5.41987 4.63199C5.73705 4.74873 6.06509 4.86924 6.24753 4.86924C6.35673 4.86924 6.61407 4.76673 6.84127 4.67678C7.32581 4.48388 7.92874 4.24414 8.63086 4.24414C8.63212 4.24414 8.6338 4.24414 8.63503 4.24414C9.1593 4.24414 10.7489 4.3592 11.7046 5.79439L11.9285 6.13079L11.6063 6.37391C11.146 6.72119 10.3062 7.3547 10.3062 8.60956C10.3062 10.0958 11.2573 10.6674 11.7142 10.9423C11.9159 11.0636 12.1247 11.1887 12.1247 11.4624C12.1247 11.641 10.6987 15.4776 8.62792 15.4776C8.12121 15.4776 7.76304 15.3253 7.44712 15.191C7.12745 15.055 6.85169 14.9378 6.39603 14.9378C6.16506 14.9378 5.87299 15.047 5.56378 15.1629C5.14123 15.3206 4.66294 15.4997 4.12025 15.4997H4.10602Z" fill="#fff"/>
<path d="M8.84914 0.875C8.90307 2.81955 7.51241 4.1686 6.12338 4.08399C5.89449 2.53217 7.51224 0.875 8.84914 0.875Z" fill="#fff"/>
</svg>