<svg width="12" height="14" viewBox="0 0 12 14" fill="none" xmlns="http://www.w3.org/2000/svg">
<path fill-rule="evenodd" clip-rule="evenodd" d="M1.79842 0.586182C1.33818 0.586182 0.965088 0.959278 0.965088 1.41951L0.965123 12.6458C0.965123 13.106 1.33822 13.4791 1.79846 13.4791H10.2016C10.6618 13.4791 11.0349 13.106 11.0349 12.6458V4.90289C11.0349 4.4844 10.8775 4.08123 10.5939 3.77347L8.27345 1.12343C7.9579 0.780991 7.51347 0.586182 7.04781 0.586182H1.79842ZM3.31668 4.05344C2.95321 4.05344 2.65855 4.35144 2.65855 4.71492C2.65855 5.07839 2.95321 5.37639 3.31668 5.37639H8.19609C8.55957 5.37639 8.85422 5.07839 8.85422 4.71492C8.85422 4.35144 8.55956 4.05344 8.19609 4.05344H3.31668ZM3.31668 6.56614C2.95321 6.56614 2.65855 6.86414 2.65855 7.22761C2.65855 7.59109 2.95321 7.88909 3.31668 7.88909H8.19609C8.55957 7.88909 8.85422 7.59109 8.85422 7.22761C8.85422 6.86414 8.55956 6.56614 8.19609 6.56614H3.31668ZM2.65855 9.70677C2.65855 9.3433 2.95321 9.0453 3.31668 9.0453H6.76879C7.13227 9.0453 7.42692 9.3433 7.42692 9.70677C7.42692 10.0702 7.13227 10.3682 6.76879 10.3682H3.31668C2.95321 10.3682 2.65855 10.0702 2.65855 9.70677Z" fill="white"/>
</svg>
