<svg width="22" height="22" viewBox="0 0 22 22" fill="none" xmlns="http://www.w3.org/2000/svg">
	<path fill-rule="evenodd" clip-rule="evenodd" d="M6.08301 6.02979C6.08301 5.4775 6.53072 5.02979 7.08301 5.02979H14.9164C15.4687 5.02979 15.9164 5.4775 15.9164 6.02979V14.359C15.9164 14.9113 15.4687 15.359 14.9164 15.359H12.591V17.5741C12.591 17.9388 12.2132 18.1808 11.882 18.0283L6.66487 15.6269C6.31022 15.4636 6.08301 15.1089 6.08301 14.7185V14.359V6.59094V6.02979ZM12.591 14.1497V8.34574C12.591 8.15053 12.4774 7.97317 12.3001 7.89155L8.71035 6.23916H14.5223C14.688 6.23916 14.8223 6.37348 14.8223 6.53916V13.8497C14.8223 14.0154 14.688 14.1497 14.5223 14.1497H12.591Z" fill="#a8adb4"/>
</svg>