<svg width="38" height="38" viewBox="0 0 38 38" fill="none" xmlns="http://www.w3.org/2000/svg">
<path fill-rule="evenodd" clip-rule="evenodd" d="M6.4616 26.3725L17.3344 15.4997C16.6893 13.0463 17.3344 10.3363 19.2068 8.46388C22.0475 5.62315 26.6953 5.62315 29.536 8.46388C32.3768 11.3046 32.3768 15.9524 29.536 18.7931C27.5995 20.7297 24.9536 21.3107 22.5002 20.6655L19.9668 23.1965C19.8935 23.2699 19.7964 23.3149 19.6931 23.3234L17.9457 23.4679C17.7709 23.4823 17.6216 23.5996 17.5661 23.766L17.1285 25.0789C17.0734 25.2441 16.9258 25.361 16.7524 25.3768L13.9746 25.6293C13.7723 25.6477 13.6092 25.8027 13.5805 26.0037L13.3676 27.4936C13.3394 27.6914 13.1808 27.8451 12.9822 27.8671L10.8626 28.1026C10.6667 28.1244 10.5094 28.2743 10.4783 28.469L10.2397 29.9627C10.2015 30.2017 9.97684 30.3645 9.73786 30.3263C9.73226 30.3254 9.72667 30.3244 9.72111 30.3233L7.22649 29.8248C7.0529 29.7901 6.91724 29.6544 6.88262 29.4808L6.34172 26.768C6.31309 26.6244 6.35807 26.476 6.4616 26.3725ZM27.6763 13.6799C28.6276 12.7286 28.6276 11.2749 27.6763 10.3236C26.725 9.37229 25.2713 9.37229 24.32 10.3236C23.3687 11.2749 23.3687 12.7286 24.32 13.6799C25.2703 14.6302 26.725 14.6312 27.6763 13.6799Z" fill="#05A9DD"/>
</svg>
