<svg width="48" height="48" viewBox="0 0 48 48" fill="none" xmlns="http://www.w3.org/2000/svg">
<circle opacity="0.1" cx="24" cy="24" r="24" fill="#2FC6F6"/>
<path fill-rule="evenodd" clip-rule="evenodd" d="M14.1603 10.4072C14.1611 10.3178 14.2699 10.2744 14.3321 10.3385L17.2644 13.3625C17.2961 13.3951 17.3458 13.4023 17.3854 13.3799L21.053 11.3084C21.1309 11.2644 21.2228 11.3368 21.1984 11.4228L20.0458 15.4743C20.0333 15.518 20.052 15.5646 20.0911 15.5877L23.719 17.7282C23.796 17.7736 23.7792 17.8895 23.6926 17.9113L19.6076 18.9388C19.5635 18.9499 19.5324 18.9894 19.532 19.0349L19.4922 23.2469C19.4913 23.3363 19.3826 23.3798 19.3204 23.3156L16.388 20.2917C16.3564 20.259 16.3067 20.2518 16.2671 20.2742L12.5994 22.3458C12.5216 22.3897 12.4296 22.3173 12.4541 22.2313L13.6067 18.1799C13.6192 18.1361 13.6005 18.0895 13.5613 18.0664L9.9335 15.9259C9.85652 15.8805 9.87324 15.7646 9.95992 15.7428L14.0449 14.7153C14.089 14.7042 14.1201 14.6647 14.1205 14.6193L14.1603 10.4072ZM18.6451 25.3824C18.1915 25.4597 17.7253 25.4999 17.2497 25.4999C17.0268 25.4999 16.806 25.4911 16.5876 25.4737V33.9054C16.5876 35.0371 17.5557 36.0282 18.8229 36.0282H30.6761C31.9433 36.0282 32.9115 35.0371 32.9115 33.9054V14.093C32.9115 12.891 31.9433 11.9702 30.6761 11.9702H23.5893C24.4273 12.9754 25.0307 14.1829 25.3156 15.5087L30.8553 15.5087L30.854 31.784H18.6451V25.3824ZM23.3339 33.9054C23.3339 34.6842 23.9707 35.3211 24.7496 35.3211C25.5284 35.3211 26.1652 34.6842 26.1652 33.9054C26.1652 33.1266 25.5284 32.4898 24.7496 32.4898C23.9707 32.4898 23.3339 33.1266 23.3339 33.9054ZM20.9998 25.9999V24.6004C21.5364 24.326 22.0391 23.9946 22.4998 23.6142V25.4999H26.9998V20.9999H24.6002C24.8431 20.5247 25.0413 20.0229 25.1892 19.4999H27.4998C28.052 19.4999 28.4998 19.9476 28.4998 20.4999V25.9999C28.4998 26.5522 28.052 26.9999 27.4998 26.9999H21.9998C21.4475 26.9999 20.9998 26.5522 20.9998 25.9999Z" fill="#00A2D4"/>
</svg>
