<svg width="12" height="11" viewBox="0 0 12 11" fill="none" xmlns="http://www.w3.org/2000/svg">
	<path fill-rule="evenodd" clip-rule="evenodd" d="M11.0067 5.50013C11.0067 2.46227 8.54421 0 5.50674 0C2.46911 0 0.00665283 2.46227 0.00665283 5.50013C0.00665283 8.53753 2.46911 11 5.50674 11C8.54421 11 11.0067 8.53753 11.0067 5.50013ZM3.38215 4.05957C3.38215 3.79048 3.46853 3.51782 3.64133 3.24163C3.81408 2.96545 4.06624 2.73672 4.39765 2.55541C4.72908 2.37415 5.11574 2.28347 5.55763 2.28347C5.96832 2.28347 6.33094 2.3593 6.64537 2.51079C6.95981 2.66236 7.20265 2.86845 7.37408 3.12903C7.54543 3.38969 7.63114 3.67291 7.63114 3.97884C7.63114 4.21963 7.58227 4.43071 7.48454 4.61194C7.3868 4.79326 7.27062 4.94976 7.13611 5.08145C7.00154 5.21318 6.76007 5.43485 6.41166 5.74644C6.31534 5.83428 6.2381 5.91149 6.18009 5.97804C6.122 6.04462 6.07878 6.10551 6.05049 6.16072C6.02214 6.21597 6.00015 6.2712 5.98462 6.32645C5.96902 6.38166 5.94566 6.47874 5.91452 6.61751C5.86069 6.91214 5.69212 7.05942 5.4089 7.05942C5.26158 7.05942 5.13763 7.01128 5.03711 6.91494C4.93654 6.81866 4.88628 6.6756 4.88628 6.48579C4.88628 6.24784 4.92306 6.04176 4.99675 5.86756C5.07039 5.69332 5.16811 5.54036 5.28993 5.40867C5.41168 5.27694 5.57602 5.12045 5.78281 4.93914C5.96407 4.78053 6.09512 4.66083 6.17585 4.58009C6.25659 4.49936 6.32456 4.40947 6.37981 4.31027C6.43504 4.21114 6.46267 4.10353 6.46267 3.98735C6.46267 3.76074 6.37836 3.56955 6.20985 3.41372C6.04128 3.25797 5.82385 3.18002 5.55763 3.18002C5.24598 3.18002 5.01654 3.25863 4.86928 3.41585C4.72196 3.57307 4.59735 3.80464 4.49536 4.11057C4.39904 4.43071 4.21632 4.59071 3.94724 4.59071C3.78855 4.59071 3.65471 4.5348 3.54571 4.42288C3.43666 4.31099 3.38215 4.18989 3.38215 4.05957ZM5.00313 8.54869C5.132 8.66056 5.28284 8.71655 5.45566 8.71655C5.62277 8.71655 5.77005 8.65987 5.89753 8.54659C6.025 8.4333 6.08874 8.2775 6.08874 8.07919C6.08874 7.90072 6.02778 7.75062 5.90603 7.62879C5.78421 7.50701 5.63411 7.44608 5.45564 7.44608C5.27433 7.44608 5.12137 7.50701 4.99675 7.62879C4.87206 7.75062 4.8098 7.90072 4.8098 8.07919C4.8098 8.28034 4.87421 8.43684 5.00313 8.54869Z" fill="#d5d7db"/>
</svg>