<svg width="38" height="38" viewBox="0 0 38 38" fill="none" xmlns="http://www.w3.org/2000/svg">
<path fill-rule="evenodd" clip-rule="evenodd" d="M10.7744 7.92755L11.523 11.161L30.2717 11.1263C30.5841 11.1276 30.878 11.2725 31.0694 11.5172C31.2622 11.7631 31.3313 12.0822 31.2595 12.3854L29.3529 22.9714C29.2439 23.4287 28.8358 23.7518 28.3664 23.7545H13.2582C12.7888 23.7518 12.3807 23.4288 12.2717 22.9714L8.97039 9.18662H6.02148C5.4692 9.18662 5.02148 8.73891 5.02148 8.18663V8.14444C5.02148 7.59216 5.4692 7.14444 6.02149 7.14444H9.78658C10.2572 7.14709 10.6641 7.47017 10.7744 7.92755ZM18.8015 27.4985C18.8015 28.9264 17.6435 30.0845 16.2142 30.0845C14.7862 30.0845 13.6282 28.9265 13.6282 27.4985C13.6282 26.0692 14.7862 24.9112 16.2142 24.9112C17.6434 24.9112 18.8015 26.0692 18.8015 27.4985ZM27.9236 27.4985C27.9236 28.9264 26.7656 30.0845 25.3363 30.0845C23.9083 30.0845 22.7503 28.9265 22.7503 27.4985C22.7503 26.0692 23.9083 24.9112 25.3363 24.9112C26.7655 24.9112 27.9236 26.0692 27.9236 27.4985Z" fill="#00A2D4"/>
</svg>
