<svg width="138" height="39" viewBox="0 0 138 39" fill="none" xmlns="http://www.w3.org/2000/svg">
<path fill-rule="evenodd" clip-rule="evenodd" d="M49.161 9.10608C46.6833 6.55546 43.2581 5.17084 39.7602 5.17084C32.3269 5.17084 26.3512 11.2194 26.4241 18.5798C26.4241 20.9118 27.0799 23.1709 28.1731 25.2114L26.2783 32.1345L33.3472 30.3126C34.997 31.2292 36.8004 31.7359 38.6288 31.8756C37.821 31.0763 37.1167 30.1726 36.5377 29.1865C35.7007 28.9345 34.8958 28.5811 34.1488 28.1264L33.7115 27.9078L29.4848 29.0009L30.5779 24.847L30.2864 24.4098C27.0799 19.2357 28.6103 12.3854 33.8573 9.17895C37.8149 6.7604 42.6432 7.03674 46.1531 9.57015C46.7065 9.49888 47.2706 9.46212 47.8434 9.46212C48.4434 9.46212 49.0339 9.50246 49.6125 9.58057C49.4663 9.4191 49.3158 9.26088 49.161 9.10608ZM48.131 11.9879C45.3895 11.9879 42.7051 13.073 40.7631 15.0721C38.8212 17.014 37.736 19.6413 37.736 22.4399C37.736 28.2085 42.4195 32.9491 48.1881 32.9491C49.9015 32.9491 51.615 32.5493 53.1571 31.6925L58.6973 33.1204L57.2123 27.6945C58.069 26.0953 58.583 24.3247 58.583 22.497C58.6402 16.7284 53.9567 11.9879 48.131 11.9879Z" fill="white"/>
<path fill-rule="evenodd" clip-rule="evenodd" d="M104.663 20.3524C101.861 20.3524 99.5896 18.0813 99.5896 15.2799C99.5896 12.4785 101.861 10.2075 104.663 10.2075C107.465 10.2075 109.737 12.4785 109.737 15.2799C109.737 18.0813 107.465 20.3524 104.663 20.3524ZM104.662 8.75818C101.06 8.75818 98.139 11.678 98.139 15.2799C98.139 18.8818 101.06 21.8018 104.662 21.8018C108.265 21.8018 111.185 18.8818 111.185 15.2799C111.185 11.678 108.265 8.75818 104.662 8.75818ZM73.7741 12.2616C75.2513 12.2616 76.6396 12.8504 76.6396 14.5285C76.6396 16.0396 75.2579 17.0413 73.5365 18.2893C70.8983 20.2019 67.4622 22.6929 66.9795 28.4828H81.1299V25.0679H72.2378C72.7763 23.2919 74.4721 22.004 76.2192 20.677C78.4979 18.9462 80.864 17.149 80.864 14.1162C80.864 11.0546 78.7665 8.87609 74.4241 8.87609C71.6472 8.87609 69.3133 9.7298 67.6293 10.4954L68.6635 13.5865C70.17 12.9092 71.7949 12.2616 73.7741 12.2616ZM89.1362 20.6225H87.3636C86.6843 20.6225 85.2662 20.6813 84.9118 20.7108L89.3136 14.9112C89.2542 15.2938 89.1362 17.031 89.1362 18.5322V20.6225ZM90.1697 8.93504L80.4211 21.2995V23.8607H89.1359V28.4827H93.0651V23.8607H95.96V20.6225H93.0651V8.93504H90.1697ZM105.388 14.5553V12.3814H103.939V14.5553H103.938V16.0047L103.939 16.0047H105.388L107.562 16.0047V14.5553H105.388Z" fill="white"/>
</svg>
