<svg width="100" height="32" viewBox="0 0 100 32" fill="none" xmlns="http://www.w3.org/2000/svg">
    <path d="M63.7015 3.48315H61.8353C61.5243 3.48315 61.3065 3.73413 61.3065 4.01649V9.85181C59.9069 8.53415 58.1028 7.84395 56.1743 7.84395C51.8819 7.84395 48.3672 11.5145 48.3672 16.0635C48.3672 20.5812 51.8819 24.2831 56.1743 24.2831C58.1028 24.2831 59.9691 23.5616 61.3999 22.1812L61.4931 23.1851C61.5243 23.4675 61.7731 23.6557 62.0219 23.6557H63.7015C64.0126 23.6557 64.2303 23.4047 64.2303 23.1223V4.04786C64.2303 3.76551 63.9815 3.48315 63.7015 3.48315ZM61.0577 16.0635C61.0577 18.8871 58.8804 21.1773 56.1743 21.1773C53.4683 21.1773 51.2599 18.8871 51.2599 16.0635C51.2599 13.24 53.4372 10.9498 56.1432 10.9498C58.8493 10.9498 61.0577 13.2086 61.0577 16.0635Z" fill="white"/>
    <path d="M80.3099 10.6361C79.9366 10.0715 79.5006 9.56945 79.0032 9.19299C78.5052 8.78519 77.9459 8.47145 77.3239 8.25185C76.2352 7.84399 75.0219 7.78125 73.7779 8.00085C71.9739 8.31459 70.6672 9.25579 69.8899 9.94599L69.7966 8.91065C69.7652 8.62832 69.5166 8.44005 69.2679 8.44005H67.4632C67.1526 8.44005 66.9346 8.69105 66.9346 8.97339V23.1225C66.9346 23.4361 67.1839 23.6558 67.4632 23.6558H69.4546C69.7652 23.6558 69.9832 23.4048 69.9832 23.1225V13.0519C71.4452 12.0165 72.7512 11.295 74.2446 11.0127C74.8666 10.8871 75.6439 10.9813 76.3286 11.2323C76.9192 11.4519 77.4479 11.8283 77.7592 12.393C78.4126 13.3969 78.4126 14.6519 78.4126 15.7813V23.0911C78.4126 23.4048 78.6612 23.6244 78.9412 23.6244H80.9626C81.2739 23.6244 81.4912 23.3734 81.4912 23.0911V17.2558C81.4912 17.0048 81.4912 16.7538 81.4912 16.5028C81.5226 15.1538 81.5226 13.7107 81.1186 12.3617C80.9006 11.7656 80.6519 11.1381 80.3099 10.6361Z" fill="white"/>
    <path d="M98.5065 8.40833H96.6398C96.3291 8.40833 96.1111 8.65933 96.1111 8.94167V9.88287C94.7118 8.5652 92.9071 7.875 91.0098 7.875C86.7178 7.875 83.2031 11.5456 83.2031 16.0946C83.2031 20.6123 86.7178 24.3142 91.0098 24.3142C92.9385 24.3142 94.8045 23.5927 96.2358 22.2123L96.3291 23.2162C96.3598 23.4985 96.6091 23.6867 96.8578 23.6867H98.5371C98.8485 23.6867 99.0658 23.4358 99.0658 23.1534V9.0358C99.0658 8.65933 98.8171 8.40833 98.5065 8.40833ZM95.8931 16.0633C95.8931 18.8867 93.7165 21.1769 91.0098 21.1769C88.3038 21.1769 86.1265 18.8867 86.1265 16.0633C86.1265 13.2397 88.3038 10.9495 91.0098 10.9495C93.7165 10.9495 95.8931 13.2083 95.8931 16.0633Z" fill="white"/>
    <path d="M47.1212 14.4633C46.5613 10.7299 43.6375 7.875 39.8428 7.875C39.8117 7.875 39.7807 7.875 39.7495 7.875C35.4571 7.875 31.9424 11.5456 31.9424 16.0946C31.9424 20.6123 35.4261 24.2829 39.7495 24.3142H39.905C42.5178 24.3142 44.7573 23.2162 46.4058 21.3652C46.5924 21.1456 46.5924 20.8633 46.4058 20.6436L45.2239 19.326C45.0995 19.2005 44.975 19.1377 44.8195 19.1377C44.664 19.1377 44.5084 19.2319 44.4151 19.3573C43.3887 20.675 42.0201 21.2397 39.9361 21.2397C39.8739 21.2397 39.8117 21.2397 39.7495 21.2397C37.3856 21.2397 35.426 19.4829 34.9594 17.1613H46.0014C46.6857 17.1613 47.2457 16.5966 47.2457 15.875C47.2145 15.8436 47.2145 15.1848 47.1212 14.4633ZM35.2394 14.0867C35.9548 12.2358 37.6966 10.9495 39.7184 10.9495H39.8739C41.8957 10.9495 43.6064 12.2044 44.2285 14.0867H44.1974H35.2394Z" fill="white"/>
    <path d="M25.7229 2.03961C22.6747 -0.564307 17.8536 -0.250582 11.3217 2.82393C3.42122 6.52589 2.11484 9.50625 1.7727 10.2906C-0.373493 15.2161 1.99042 19.5455 4.7898 23.6553C8.08686 28.4239 11.0417 30.5887 14.7431 30.7769C16.485 30.871 18.7245 30.7769 21.5861 28.0161C23.3279 26.322 25.1009 23.5298 26.7183 18.9494C28.7711 13.2083 31.104 6.68272 25.7229 2.03961ZM20.5907 17.0357C18.0713 24.1887 16.2984 24.0004 14.8365 23.8749C13.4679 23.7494 11.7883 22.3691 9.92199 19.6396C7.18486 15.6553 7.37146 14.4631 8.02466 12.8945C8.49119 11.7651 10.0775 10.6671 14.09 8.72199C18.6312 6.52589 20.4352 6.87099 21.2128 7.43572C22.8925 8.69059 22.8925 10.5729 20.5907 17.0357Z" fill="white"/>
</svg>
