<svg xmlns="http://www.w3.org/2000/svg" width="104" height="31" viewBox="0 0 104 31">
  <path fill="#F12E45" d="M83.978,43.0201854 C92.534,43.0201854 99.478,49.9641854 99.478,58.5201854 C99.478,67.0761854 92.534,74.0201854 83.978,74.0201854 C75.422,74.0201854 68.478,67.0761854 68.478,58.5201854 C68.478,49.9641854 75.422,43.0201854 83.978,43.0201854 Z M83.978,47.1121854 C77.654,47.1121854 72.57,52.1961854 72.57,58.5201854 C72.57,64.8441854 77.654,69.9281854 83.978,69.9281854 C90.302,69.9281854 95.386,64.8441854 95.386,58.5201854 C95.386,52.1961854 90.302,47.1121854 83.978,47.1121854 Z M163.648,53.4981854 C168.236,53.4981854 171.522,56.8461854 171.522,60.8141854 L171.522,60.8141854 L171.522,60.8761854 C171.522,64.8441854 168.236,68.2541854 163.586,68.2541854 C158.998,68.2541854 155.712,64.9061854 155.712,60.9381854 L155.712,60.9381854 L155.712,60.8761854 C155.712,56.9081854 158.998,53.4981854 163.648,53.4981854 Z M110.266,49.1581854 C110.452,49.0961854 110.638,49.2821854 110.638,49.4061854 L110.638,49.4061854 L110.638,53.8701854 L118.884,53.8701854 C119.07,53.8701854 119.194,53.9941854 119.256,54.1181854 L119.256,54.1181854 L119.938,56.6601854 L120.558,59.2021854 L120.62,59.3261854 L120.682,59.0781854 L122.232,53.9321854 C122.294,53.8081854 122.48,53.6841854 122.604,53.6841854 L122.604,53.6841854 L126.696,53.6841854 C126.882,53.6841854 127.006,53.8081854 127.068,53.9321854 L127.068,53.9321854 L128.68,59.4501854 L128.742,59.2021854 L130.106,54.0561854 C130.168,53.9321854 130.354,53.8081854 130.478,53.8081854 L130.478,53.8081854 L141.018,53.8081854 C141.142,53.8081854 141.266,53.9321854 141.266,54.1181854 L141.266,54.1181854 L141.266,67.6341854 C141.266,67.7581854 141.142,67.8821854 141.018,67.8821854 L141.018,67.8821854 L135.748,67.8821854 C135.624,67.8821854 135.5,67.7581854 135.5,67.6341854 L135.5,67.6341854 L135.5,54.6141854 L131.532,67.6341854 C131.47,67.7581854 131.284,67.8821854 131.16,67.8821854 L131.16,67.8821854 L126.82,67.8821854 C126.634,67.8821854 126.51,67.7581854 126.448,67.6341854 L126.448,67.6341854 L125.58,64.9061854 L124.65,61.9301854 L122.79,67.6961854 C122.728,67.8201854 122.542,67.9441854 122.418,67.9441854 L122.418,67.9441854 L118.078,67.9441854 C117.892,67.9441854 117.768,67.8201854 117.706,67.6961854 L117.706,67.6961854 L113.8,54.7381854 L113.8,58.0861854 C113.8,58.2101854 113.676,58.3341854 113.552,58.3341854 L113.552,58.3341854 L110.576,58.3341854 L110.576,61.8681854 C110.576,62.9221854 111.072,63.2941854 112.002,63.2941854 C112.498,63.2941854 112.932,63.2321854 113.49,62.9841854 C113.614,62.9841854 113.8,63.0461854 113.8,63.2321854 L113.8,63.2321854 L113.8,67.3241854 C112.87,67.8201854 111.506,68.1301854 110.08,68.1301854 C106.67,68.1301854 104.81,66.5181854 104.81,63.1081854 L104.81,63.1081854 L104.81,58.2721854 L103.446,58.2721854 C103.322,58.2721854 103.198,58.1481854 103.198,58.0241854 L103.198,58.0241854 L103.198,54.0561854 C103.198,53.9321854 103.322,53.8081854 103.446,53.8081854 L103.446,53.8081854 L104.81,53.8081854 L104.81,51.0181854 C104.81,50.8941854 104.872,50.8321854 105.058,50.7701854 L105.058,50.7701854 Z M147.962,49.0961854 C148.086,49.0961854 148.21,49.2201854 148.21,49.3441854 L148.21,49.3441854 L148.21,67.6341854 C148.21,67.7581854 148.086,67.8821854 147.962,67.8821854 L147.962,67.8821854 L142.692,67.8821854 C142.568,67.8821854 142.444,67.7581854 142.444,67.6341854 L142.444,67.6341854 L142.444,49.3441854 C142.444,49.2201854 142.568,49.0961854 142.692,49.0961854 L142.692,49.0961854 Z M154.906,53.8081854 C155.03,53.8081854 155.154,53.9321854 155.154,54.1181854 L155.154,54.1181854 L155.154,67.6341854 C155.154,67.7581854 155.03,67.8821854 154.906,67.8821854 L154.906,67.8821854 L149.636,67.8821854 C149.512,67.8821854 149.388,67.7581854 149.388,67.6341854 L149.388,67.6341854 L149.388,54.0561854 C149.388,53.9321854 149.512,53.8081854 149.636,53.8081854 L149.636,53.8081854 Z M87.822,59.1401854 C89.602566,59.1401854 91.046,60.5836193 91.046,62.3641854 C91.046,64.1447514 89.602566,65.5881854 87.822,65.5881854 C86.041434,65.5881854 84.598,64.1447514 84.598,62.3641854 C84.598,60.5836193 86.041434,59.1401854 87.822,59.1401854 Z M80.134,59.1401854 C81.914566,59.1401854 83.358,60.5836193 83.358,62.3641854 C83.358,64.1447514 81.914566,65.5881854 80.134,65.5881854 C78.353434,65.5881854 76.91,64.1447514 76.91,62.3641854 C76.91,60.5836193 78.353434,59.1401854 80.134,59.1401854 Z M163.586,58.3341854 C162.284,58.3341854 161.354,59.3881854 161.354,60.7521854 L161.354,60.7521854 L161.354,60.8141854 C161.354,62.1781854 162.346,63.2941854 163.648,63.2941854 C164.95,63.2941854 165.88,62.2401854 165.88,60.8761854 C165.88,59.4501854 164.888,58.3341854 163.586,58.3341854 Z M87.822,51.4521854 C89.602566,51.4521854 91.046,52.8956193 91.046,54.6761854 C91.046,56.4567514 89.602566,57.9001854 87.822,57.9001854 C86.041434,57.9001854 84.598,56.4567514 84.598,54.6761854 C84.598,52.8956193 86.041434,51.4521854 87.822,51.4521854 Z M80.134,51.4521854 C81.914566,51.4521854 83.358,52.8956193 83.358,54.6761854 C83.358,56.4567514 81.914566,57.9001854 80.134,57.9001854 C78.353434,57.9001854 76.91,56.4567514 76.91,54.6761854 C76.91,52.8956193 78.353434,51.4521854 80.134,51.4521854 Z M141.08,49.0961854 C141.266,49.0961854 141.39,49.2201854 141.328,49.3441854 L141.328,49.3441854 L141.328,52.5061854 C141.328,52.6301854 141.204,52.7541854 141.08,52.7541854 L141.08,52.7541854 L135.624,52.7541854 C135.5,52.7541854 135.376,52.6301854 135.376,52.5061854 L135.376,52.5061854 L135.376,49.3441854 C135.376,49.2201854 135.5,49.0961854 135.624,49.0961854 L135.624,49.0961854 Z M154.968,49.0961854 C155.154,49.0961854 155.278,49.2201854 155.216,49.3441854 L155.216,49.3441854 L155.216,52.5061854 C155.216,52.6301854 155.092,52.7541854 154.968,52.7541854 L154.968,52.7541854 L149.512,52.7541854 C149.388,52.7541854 149.264,52.6301854 149.264,52.5061854 L149.264,52.5061854 L149.264,49.3441854 C149.264,49.2201854 149.388,49.0961854 149.512,49.0961854 L149.512,49.0961854 Z" transform="translate(-68 -43)"/>
</svg>
