<svg xmlns="http://www.w3.org/2000/svg" width="104" height="32" viewBox="0 0 104 32">
  <path fill="#FFFFFF" d="M83.978,38.5 C92.534,38.5 99.478,45.444 99.478,54 C99.478,62.556 92.534,69.5 83.978,69.5 C75.422,69.5 68.478,62.556 68.478,54 C68.478,45.444 75.422,38.5 83.978,38.5 Z M83.978,42.592 C77.654,42.592 72.57,47.676 72.57,54 C72.57,60.324 77.654,65.408 83.978,65.408 C90.302,65.408 95.386,60.324 95.386,54 C95.386,47.676 90.302,42.592 83.978,42.592 Z M163.648,48.978 C168.236,48.978 171.522,52.326 171.522,56.294 L171.522,56.294 L171.522,56.356 C171.522,60.324 168.236,63.734 163.586,63.734 C158.998,63.734 155.712,60.386 155.712,56.418 L155.712,56.418 L155.712,56.356 C155.712,52.388 158.998,48.978 163.648,48.978 Z M110.266,44.638 C110.452,44.576 110.638,44.762 110.638,44.886 L110.638,44.886 L110.638,49.35 L118.884,49.35 C119.07,49.35 119.194,49.474 119.256,49.598 L119.256,49.598 L119.938,52.14 L120.558,54.682 L120.62,54.806 L120.682,54.558 L122.232,49.412 C122.294,49.288 122.48,49.164 122.604,49.164 L122.604,49.164 L126.696,49.164 C126.882,49.164 127.006,49.288 127.068,49.412 L127.068,49.412 L128.68,54.93 L128.742,54.682 L130.106,49.536 C130.168,49.412 130.354,49.288 130.478,49.288 L130.478,49.288 L141.018,49.288 C141.142,49.288 141.266,49.412 141.266,49.598 L141.266,49.598 L141.266,63.114 C141.266,63.238 141.142,63.362 141.018,63.362 L141.018,63.362 L135.748,63.362 C135.624,63.362 135.5,63.238 135.5,63.114 L135.5,63.114 L135.5,50.094 L131.532,63.114 C131.47,63.238 131.284,63.362 131.16,63.362 L131.16,63.362 L126.82,63.362 C126.634,63.362 126.51,63.238 126.448,63.114 L126.448,63.114 L125.58,60.386 L124.65,57.41 L122.79,63.176 C122.728,63.3 122.542,63.424 122.418,63.424 L122.418,63.424 L118.078,63.424 C117.892,63.424 117.768,63.3 117.706,63.176 L117.706,63.176 L113.8,50.218 L113.8,53.566 C113.8,53.69 113.676,53.814 113.552,53.814 L113.552,53.814 L110.576,53.814 L110.576,57.348 C110.576,58.402 111.072,58.774 112.002,58.774 C112.498,58.774 112.932,58.712 113.49,58.464 C113.614,58.464 113.8,58.526 113.8,58.712 L113.8,58.712 L113.8,62.804 C112.87,63.3 111.506,63.61 110.08,63.61 C106.67,63.61 104.81,61.998 104.81,58.588 L104.81,58.588 L104.81,53.752 L103.446,53.752 C103.322,53.752 103.198,53.628 103.198,53.504 L103.198,53.504 L103.198,49.536 C103.198,49.412 103.322,49.288 103.446,49.288 L103.446,49.288 L104.81,49.288 L104.81,46.498 C104.81,46.374 104.872,46.312 105.058,46.25 L105.058,46.25 Z M147.962,44.576 C148.086,44.576 148.21,44.7 148.21,44.824 L148.21,44.824 L148.21,63.114 C148.21,63.238 148.086,63.362 147.962,63.362 L147.962,63.362 L142.692,63.362 C142.568,63.362 142.444,63.238 142.444,63.114 L142.444,63.114 L142.444,44.824 C142.444,44.7 142.568,44.576 142.692,44.576 L142.692,44.576 Z M154.906,49.288 C155.03,49.288 155.154,49.412 155.154,49.598 L155.154,49.598 L155.154,63.114 C155.154,63.238 155.03,63.362 154.906,63.362 L154.906,63.362 L149.636,63.362 C149.512,63.362 149.388,63.238 149.388,63.114 L149.388,63.114 L149.388,49.536 C149.388,49.412 149.512,49.288 149.636,49.288 L149.636,49.288 Z M87.822,54.62 C89.602566,54.62 91.046,56.063434 91.046,57.844 C91.046,59.624566 89.602566,61.068 87.822,61.068 C86.041434,61.068 84.598,59.624566 84.598,57.844 C84.598,56.063434 86.041434,54.62 87.822,54.62 Z M80.134,54.62 C81.914566,54.62 83.358,56.063434 83.358,57.844 C83.358,59.624566 81.914566,61.068 80.134,61.068 C78.353434,61.068 76.91,59.624566 76.91,57.844 C76.91,56.063434 78.353434,54.62 80.134,54.62 Z M163.586,53.814 C162.284,53.814 161.354,54.868 161.354,56.232 L161.354,56.232 L161.354,56.294 C161.354,57.658 162.346,58.774 163.648,58.774 C164.95,58.774 165.88,57.72 165.88,56.356 C165.88,54.93 164.888,53.814 163.586,53.814 Z M87.822,46.932 C89.602566,46.932 91.046,48.375434 91.046,50.156 C91.046,51.936566 89.602566,53.38 87.822,53.38 C86.041434,53.38 84.598,51.936566 84.598,50.156 C84.598,48.375434 86.041434,46.932 87.822,46.932 Z M80.134,46.932 C81.914566,46.932 83.358,48.375434 83.358,50.156 C83.358,51.936566 81.914566,53.38 80.134,53.38 C78.353434,53.38 76.91,51.936566 76.91,50.156 C76.91,48.375434 78.353434,46.932 80.134,46.932 Z M141.08,44.576 C141.266,44.576 141.39,44.7 141.328,44.824 L141.328,44.824 L141.328,47.986 C141.328,48.11 141.204,48.234 141.08,48.234 L141.08,48.234 L135.624,48.234 C135.5,48.234 135.376,48.11 135.376,47.986 L135.376,47.986 L135.376,44.824 C135.376,44.7 135.5,44.576 135.624,44.576 L135.624,44.576 Z M154.968,44.576 C155.154,44.576 155.278,44.7 155.216,44.824 L155.216,44.824 L155.216,47.986 C155.216,48.11 155.092,48.234 154.968,48.234 L154.968,48.234 L149.512,48.234 C149.388,48.234 149.264,48.11 149.264,47.986 L149.264,47.986 L149.264,44.824 C149.264,44.7 149.388,44.576 149.512,44.576 L149.512,44.576 Z" transform="translate(-68 -38)"/>
</svg>
