<svg xmlns="http://www.w3.org/2000/svg" width="13" height="14" viewBox="0 0 13 14"><path fill="#828B95" fill-rule="evenodd" d="M10.9335938,0.994344683 C12.0381632,0.994344683 12.9335938,1.88977518 12.9335938,2.99434468 L12.9335938,11.947794 C12.9335938,13.0523635 12.0381632,13.947794 10.9335938,13.947794 L2.06201172,13.947794 C0.957442219,13.947794 0.0620117188,13.0523635 0.0620117188,11.947794 L0.0620117188,2.99434468 C0.0620117187,1.88977518 0.957442219,0.994344683 2.06201172,0.994344683 L10.9335938,0.994344683 Z M11.3127441,2.73608398 L1.68725586,2.73608398 L1.68725586,9.5745362 L3.77966309,9.5745362 L3.77966309,12.0552979 L9.17565918,12.0552979 L9.17565918,9.5745362 L11.3127441,9.5745362 L11.3127441,2.73608398 Z M8.63049316,4.55615234 L9.6126709,5.56970215 L5.75552804,9.31970215 L3.6126709,7.23636882 L4.55552809,6.0697022 L5.75552804,7.27803553 L8.63049316,4.55615234 Z"/></svg>
