<svg width="158" height="129" viewBox="0 0 158 129" fill="none" xmlns="http://www.w3.org/2000/svg">
    <path fill-rule="evenodd" clip-rule="evenodd" d="M113.318 4.33819C114.276 4.33819 115.052 3.56172 115.052 2.60391C115.052 1.64609 114.276 0.869629 113.318 0.869629C112.36 0.869629 111.584 1.64609 111.584 2.60391C111.584 3.56172 112.36 4.33819 113.318 4.33819ZM27.7401 19.3196C29.8165 19.3196 31.4997 17.6363 31.4997 15.5599C31.4997 13.4835 29.8165 11.8003 27.7401 11.8003C25.6637 11.8003 23.9804 13.4835 23.9804 15.5599C23.9804 17.6363 25.6637 19.3196 27.7401 19.3196ZM27.7401 17.2234C28.6588 17.2234 29.4035 16.4786 29.4035 15.5599C29.4035 14.6412 28.6588 13.8965 27.7401 13.8965C26.8214 13.8965 26.0766 14.6412 26.0766 15.5599C26.0766 16.4786 26.8214 17.2234 27.7401 17.2234ZM8.63998 56.0228C11.4366 56.0228 13.7037 53.7557 13.7037 50.959C13.7037 48.1624 11.4366 45.8953 8.63998 45.8953C5.84335 45.8953 3.57623 48.1624 3.57623 50.959C3.57623 53.7557 5.84335 56.0228 8.63998 56.0228ZM8.63998 53.38C9.97705 53.38 11.061 52.2961 11.061 50.959C11.061 49.622 9.97705 48.5381 8.63998 48.5381C7.30292 48.5381 6.21901 49.622 6.21901 50.959C6.21901 52.2961 7.30292 53.38 8.63998 53.38ZM137.203 119.74C139.194 119.74 140.808 118.126 140.808 116.135C140.808 114.144 139.194 112.53 137.203 112.53C135.212 112.53 133.598 114.144 133.598 116.135C133.598 118.126 135.212 119.74 137.203 119.74ZM137.203 117.864C138.158 117.864 138.932 117.09 138.932 116.135C138.932 115.18 138.158 114.406 137.203 114.406C136.248 114.406 135.474 115.18 135.474 116.135C135.474 117.09 136.248 117.864 137.203 117.864ZM79.5001 129C113.742 129 141.5 101.242 141.5 67C141.5 32.7584 113.742 5.00002 79.5001 5.00002C45.2584 5.00002 17.5001 32.7584 17.5001 67C17.5001 101.242 45.2584 129 79.5001 129ZM17.4704 124.666H5.41744C5.31431 124.666 5.21207 124.662 5.11085 124.655C2.38685 124.591 0.197892 122.302 0.197754 119.487C0.198546 118.115 0.729567 116.8 1.674 115.831C2.1581 115.334 2.7305 114.949 3.35326 114.691C3.34284 114.552 3.33753 114.411 3.33753 114.268C3.33839 112.821 3.89872 111.433 4.89524 110.41C5.89177 109.387 7.24287 108.813 8.65131 108.814C10.4555 108.816 12.0484 109.743 13.0057 111.159C13.4603 110.993 13.9496 110.903 14.4594 110.903C16.7116 110.906 18.5613 112.671 18.7757 114.927C20.9336 115.41 22.5485 117.386 22.5466 119.748C22.5444 122.47 20.3959 124.676 17.7471 124.674C17.6542 124.674 17.5619 124.672 17.4704 124.666ZM145.204 28.7851H153.758C153.823 28.7888 153.889 28.7907 153.954 28.7907C155.834 28.7915 157.359 27.2879 157.361 25.4319C157.362 23.8213 156.216 22.4742 154.684 22.1446C154.532 20.6062 153.22 19.4033 151.621 19.4014C151.259 19.4012 150.912 19.4625 150.59 19.5754C149.91 18.6105 148.78 17.9783 147.499 17.9768C146.5 17.9762 145.541 18.3676 144.834 19.065C144.127 19.7625 143.729 20.7087 143.728 21.6956C143.728 21.7926 143.732 21.8888 143.739 21.984C143.298 22.1594 142.891 22.4221 142.548 22.7609C141.877 23.4219 141.501 24.3187 141.5 25.254C141.5 27.173 143.054 28.7338 144.987 28.7772C145.059 28.7825 145.131 28.7851 145.204 28.7851Z" fill="#E5F9FF"/>
    <g filter="url(#filter0_d_1993_52369)">
        <path d="M40.1284 42.4139C40.1284 36.6672 44.7795 32.0085 50.5169 32.0085H109.138C114.875 32.0085 119.526 36.6672 119.526 42.4139V50.5895C119.526 56.3363 114.875 60.9949 109.138 60.9949H50.5169C44.7795 60.9949 40.1284 56.3363 40.1284 50.5895V42.4139Z" fill="#9EE8FF"/>
    </g>
    <g filter="url(#filter1_d_1993_52369)">
        <path d="M40.1284 61.0684C40.1284 55.3217 44.7795 50.6631 50.5169 50.6631H109.138C114.875 50.6631 119.526 55.3217 119.526 61.0684V96.0007C119.526 101.747 114.875 106.406 109.138 106.406H50.5169C44.7795 106.406 40.1284 101.747 40.1284 96.0007V61.0684Z" fill="#7FDEFC"/>
    </g>
    <path d="M40.1284 59.3206C40.1284 53.5739 44.7795 48.9153 50.5169 48.9153H109.138C114.875 48.9153 119.526 53.5739 119.526 59.3206V94.2529C119.526 99.9996 114.875 104.658 109.138 104.658H50.5169C44.7795 104.658 40.1284 99.9996 40.1284 94.2529V59.3206Z" fill="#9EE8FF"/>
    <path d="M40.1284 57.5731C40.1284 51.8264 44.7795 47.1677 50.5169 47.1677H109.138C114.875 47.1677 119.526 51.8264 119.526 57.5731V92.5053C119.526 98.2521 114.875 102.911 109.138 102.911H50.5169C44.7795 102.911 40.1284 98.2521 40.1284 92.5053V57.5731Z" fill="white"/>
    <rect opacity="0.2" x="54.9609" y="26.8062" width="6.10752" height="15.7305" rx="3.05376" fill="#11A9D9"/>
    <rect x="54.9609" y="25.0581" width="6.10752" height="15.7305" rx="3.05376" fill="#2FC6F6"/>
    <rect opacity="0.2" x="99.4595" y="26.8062" width="6.10752" height="15.7305" rx="3.05376" fill="#11A9D9"/>
    <rect x="99.4595" y="25.0581" width="6.10752" height="15.7305" rx="3.05376" fill="#2FC6F6"/>
    <rect x="47.9419" y="55.2327" width="8.72503" height="8.73919" rx="1.17582" fill="#DFE0E3"/>
    <rect x="47.9419" y="70.0894" width="8.72503" height="8.73919" rx="1.17582" fill="#DFE0E3"/>
    <rect x="61.8613" y="55.2327" width="8.72503" height="8.73919" rx="1.17582" fill="#DFE0E3"/>
    <rect x="61.8613" y="84.9458" width="8.72503" height="8.73919" rx="1.17582" fill="#DFE0E3"/>
    <rect x="75.7803" y="55.2327" width="8.72503" height="8.73919" rx="1.17582" fill="#DFE0E3"/>
    <rect x="103.801" y="70.3716" width="8.72503" height="8.73919" rx="1.17582" fill="#DFE0E3"/>
    <defs>
        <filter id="filter0_d_1993_52369" x="37.1284" y="29.5085" width="85.3979" height="34.9863" filterUnits="userSpaceOnUse" color-interpolation-filters="sRGB">
            <feFlood flood-opacity="0" result="BackgroundImageFix"/>
            <feColorMatrix in="SourceAlpha" type="matrix" values="0 0 0 0 0 0 0 0 0 0 0 0 0 0 0 0 0 0 127 0" result="hardAlpha"/>
            <feOffset dy="0.5"/>
            <feGaussianBlur stdDeviation="1.5"/>
            <feComposite in2="hardAlpha" operator="out"/>
            <feColorMatrix type="matrix" values="0 0 0 0 0 0 0 0 0 0.470588 0 0 0 0 0.619608 0 0 0 0.14 0"/>
            <feBlend mode="normal" in2="BackgroundImageFix" result="effect1_dropShadow_1993_52369"/>
            <feBlend mode="normal" in="SourceGraphic" in2="effect1_dropShadow_1993_52369" result="shape"/>
        </filter>
        <filter id="filter1_d_1993_52369" x="37.1284" y="48.1631" width="85.3979" height="61.7429" filterUnits="userSpaceOnUse" color-interpolation-filters="sRGB">
            <feFlood flood-opacity="0" result="BackgroundImageFix"/>
            <feColorMatrix in="SourceAlpha" type="matrix" values="0 0 0 0 0 0 0 0 0 0 0 0 0 0 0 0 0 0 127 0" result="hardAlpha"/>
            <feOffset dy="0.5"/>
            <feGaussianBlur stdDeviation="1.5"/>
            <feComposite in2="hardAlpha" operator="out"/>
            <feColorMatrix type="matrix" values="0 0 0 0 0 0 0 0 0 0.470588 0 0 0 0 0.619608 0 0 0 0.14 0"/>
            <feBlend mode="normal" in2="BackgroundImageFix" result="effect1_dropShadow_1993_52369"/>
            <feBlend mode="normal" in="SourceGraphic" in2="effect1_dropShadow_1993_52369" result="shape"/>
        </filter>
    </defs>
</svg>
