<svg width="25" height="24" viewBox="0 0 25 24" fill="none" xmlns="http://www.w3.org/2000/svg">
<path fill-rule="evenodd" clip-rule="evenodd" d="M15.5656 3.49219C15.1433 3.49219 14.801 3.83451 14.801 4.25679V5.47661C14.801 5.89889 15.1433 6.24121 15.5656 6.24121C15.9879 6.24121 16.3302 5.89889 16.3302 5.47661V4.25679C16.3302 3.83451 15.9879 3.49219 15.5656 3.49219ZM14.0092 5.13016H10.9359V5.66171C10.9359 6.54193 10.2473 7.25632 9.39654 7.25632C8.54582 7.25632 7.85724 6.54193 7.85724 5.66171V5.13016H6.67505C5.62627 5.12804 4.77451 6.00614 4.77246 7.09261C4.77246 7.14683 4.77451 7.20104 4.77862 7.25632V17.8871C4.77862 18.4739 5.23836 18.9502 5.80482 18.9502H10.9811V16.824H6.83106V8.37969H18.1748V10.009L18.8925 10.0091H20.2272V7.25632C20.2467 6.13478 19.4103 5.1982 18.3308 5.13016H17.1221V5.70428C17.1221 6.56389 16.4252 7.26074 15.5656 7.26074C14.706 7.26074 14.0092 6.56389 14.0092 5.70428V5.13016ZM10.1507 5.4512V4.28182C10.1528 3.85021 9.81821 3.49833 9.40157 3.49513C9.01469 3.49316 8.69329 3.79276 8.64771 4.18029L8.64218 4.28182V5.4512C8.64218 5.88281 8.9798 6.23257 9.39644 6.23257C9.81308 6.23257 10.1507 5.88281 10.1507 5.4512ZM13.1133 10.283H11.9907C11.7646 10.283 11.5813 10.4651 11.5813 10.6898V11.805C11.5813 12.0296 11.7646 12.2117 11.9907 12.2117H13.1133C13.3394 12.2117 13.5227 12.0296 13.5227 11.805V10.6898C13.5227 10.4651 13.3394 10.283 13.1133 10.283ZM9.07947 10.2833H10.2021C10.4282 10.2833 10.6115 10.4654 10.6115 10.69V11.8052C10.6115 12.0298 10.4282 12.2119 10.2021 12.2119H9.07947C8.85336 12.2119 8.67007 12.0298 8.67007 11.8052V10.69C8.67007 10.4654 8.85336 10.2833 9.07947 10.2833ZM10.2011 13.1761H9.07852C8.85242 13.1761 8.66912 13.3581 8.66912 13.5828V14.698C8.66912 14.9226 8.85242 15.1047 9.07852 15.1047H10.2011C10.4272 15.1047 10.6105 14.9226 10.6105 14.698V13.5828C10.6105 13.3581 10.4272 13.1761 10.2011 13.1761Z" fill="white"/>
<rect x="13.0432" y="13.2051" width="8.27173" height="1.81543" rx="0.907715" fill="white"/>
<rect x="13.0432" y="16.3945" width="8.27173" height="1.81543" rx="0.907715" fill="white"/>
</svg>
