<svg width="24" height="25" viewBox="0 0 24 25" fill="none" xmlns="http://www.w3.org/2000/svg">
<path fill-rule="evenodd" clip-rule="evenodd" d="M7.82036 5.50586H16.1796C17.7187 5.50586 18.9661 6.84796 18.9661 8.50394V16.4971C18.9661 18.153 17.7187 19.4951 16.1796 19.4951H7.82036C6.28127 19.4951 5.03394 18.153 5.03394 16.4971V8.50394C5.03394 6.84796 6.28127 5.50586 7.82036 5.50586ZM7.95265 7.50488C7.46733 7.50488 7.07349 7.92432 7.07349 8.44124V11.4036H11.2428V9.99188C11.242 9.86153 11.3132 9.74139 11.428 9.67952C11.5409 9.61987 11.6782 9.63131 11.7796 9.70883L14.2292 12.2177C14.3167 12.2854 14.3677 12.39 14.3671 12.5007C14.3675 12.6112 14.3165 12.7155 14.2292 12.7831L11.7796 15.2919C11.6774 15.3698 11.5409 15.382 11.428 15.3219C11.3143 15.2619 11.2428 15.1411 11.2428 15.0096V13.5979H7.07349V16.5285C7.07349 17.0454 7.46733 17.4648 7.95265 17.4648H16.2094C16.6947 17.4648 17.0886 17.0454 17.0886 16.5285V8.44124C17.0886 7.92432 16.6947 7.50488 16.2094 7.50488H7.95265Z" fill="#525C69"/>
</svg>
