<svg width="24" height="25" viewBox="0 0 24 25" fill="none" xmlns="http://www.w3.org/2000/svg">
<path fill-rule="evenodd" clip-rule="evenodd" d="M18.4738 6H5.52616C4.9829 6 4.5 6.45455 4.5 7.0303V10.5758C4.5 11.1212 4.95272 11.6061 5.52616 11.6061H18.4738C19.0171 11.6061 19.5 11.1515 19.5 10.5758V7.0303C19.5 6.45455 19.0473 6 18.4738 6ZM18.0211 9.7571C18.0211 9.93892 17.8702 10.0904 17.6891 10.0904H6.34103C6.15994 10.0904 6.00903 9.93892 6.00903 9.7571V7.81771C6.00903 7.63589 6.15994 7.48438 6.34103 7.48438H17.6891C17.8702 7.48438 18.0211 7.63589 18.0211 7.81771V9.7571ZM18.4738 13.3936H5.52616C4.9829 13.3936 4.5 13.8481 4.5 14.4239V17.9693C4.5 18.5148 4.95272 18.9996 5.52616 18.9996H18.4738C19.0171 18.9996 19.5 18.5451 19.5 17.9693V14.4239C19.5 13.8481 19.0473 13.3936 18.4738 13.3936ZM18.0211 17.1515C18.0211 17.3333 17.8702 17.4848 17.6891 17.4848H6.34105C6.15996 17.4848 6.00905 17.3333 6.00905 17.1515V15.2121C6.00905 15.0303 6.15996 14.8788 6.34105 14.8788H17.6891C17.8702 14.8788 18.0211 15.0303 18.0211 15.2121V17.1515Z" fill="#525C69"/>
</svg>
