<svg width="24" height="24" viewBox="0 0 24 24" fill="none" xmlns="http://www.w3.org/2000/svg">
<path fill-rule="evenodd" clip-rule="evenodd" d="M4.27179 6.2168H19.7288C20.1277 6.2168 20.4511 6.52568 20.4511 6.9067C20.4511 6.98393 20.4375 7.06062 20.4109 7.13355L19.9439 8.41481C19.8428 8.69207 19.5691 8.87786 19.2618 8.87786H4.73504C4.42702 8.87786 4.15288 8.69127 4.05233 8.41317L3.58908 7.13191C3.45886 6.77176 3.65896 6.37897 4.03601 6.25459C4.11186 6.22957 4.19155 6.2168 4.27179 6.2168ZM6.81765 11.1358H17.183C17.5819 11.1358 17.9052 11.4447 17.9052 11.8257C17.9052 11.9084 17.8897 11.9904 17.8593 12.0679L17.3563 13.3492C17.2506 13.6184 16.9811 13.7968 16.68 13.7968H7.29385C6.98811 13.7968 6.71549 13.613 6.6132 13.3377L6.13699 12.0565C6.00353 11.6974 6.20009 11.303 6.57601 11.1755C6.65359 11.1492 6.73532 11.1358 6.81765 11.1358ZM10.0357 16.0702H13.9649C14.3638 16.0702 14.6872 16.3791 14.6872 16.7601C14.6872 16.8272 14.6769 16.894 14.6567 16.9583L14.2545 18.2395C14.1628 18.5314 13.8816 18.7313 13.5626 18.7313H10.4816C10.1705 18.7313 9.89429 18.541 9.79616 18.259L9.35029 16.9777C9.22446 16.6161 9.42933 16.2256 9.80787 16.1054C9.88134 16.0821 9.95827 16.0702 10.0357 16.0702Z" fill="#525C69"/>
</svg>
