<svg width="24" height="24" viewBox="0 0 24 24" fill="none" xmlns="http://www.w3.org/2000/svg">
	<path fill-rule="evenodd" clip-rule="evenodd" d="M12.7561 7.47363C14.3076 7.47363 15.5653 8.73139 15.5653 10.2829V15.4418C15.5653 16.0342 15.0851 16.5144 14.4927 16.5144H6.77998C5.22846 16.5144 3.9707 15.2566 3.9707 13.7051V8.54626C3.9707 7.95387 4.45094 7.47363 5.04333 7.47363H12.7561ZM19.8678 7.75916C19.9597 7.86933 20.01 8.00823 20.01 8.15168V15.8061C20.01 16.1446 19.7356 16.419 19.397 16.419C19.2557 16.419 19.1187 16.3702 19.0092 16.2807L16.6345 14.3403C16.314 14.0783 16.1281 13.6863 16.1281 13.2724V10.725C16.1281 10.3159 16.3098 9.92783 16.624 9.66581L19.0045 7.68092C19.2645 7.46413 19.651 7.49916 19.8678 7.75916Z" fill="white"/>
</svg>
