<svg width="24" height="24" viewBox="0 0 24 24" fill="none" xmlns="http://www.w3.org/2000/svg">
<path fill-rule="evenodd" clip-rule="evenodd" d="M5.07799 4.6129C5.23388 4.24158 5.59731 4 6.00003 4H17C17.5523 4 18 4.44772 18 5V5.95C18 6.50228 17.5523 6.95 17 6.95H16.95C16.4254 6.95 16 6.52467 16 6H8.38195L13.0907 10.7997C13.4722 11.1886 13.4722 11.8114 13.0907 12.2003L8.38195 17H16V16.725C16 16.1727 16.4477 15.725 17 15.725C17.5523 15.725 18 16.1727 18 16.725V18C18 18.5523 17.5523 19 17 19H6.00003C5.59731 19 5.23388 18.7584 5.07799 18.3871C4.9221 18.0158 5.00416 17.5872 5.28619 17.2997L10.976 11.5L5.28619 5.70031C5.00416 5.41283 4.9221 4.98423 5.07799 4.6129Z" fill="#828B95"/>
</svg>
