<svg width="80" height="80" viewBox="0 0 80 80" fill="none" xmlns="http://www.w3.org/2000/svg">
	<g clip-path="url(#clip0_273_234407)">
		<rect width="80" height="80" rx="12" fill="#FEE5E3"/>
		<path fill-rule="evenodd" clip-rule="evenodd" d="M54.7522 47.0686L61.3927 52.2088C63.3991 53.7834 63.5548 56.8954 61.7034 58.6704C54.7608 65.5245 43.193 68.1853 27.9643 51.5522C12.7355 34.9192 15.7641 23.0124 22.7067 16.1581C24.556 14.3838 27.5019 14.6774 28.9093 16.8385L33.5536 23.8554C35.1802 26.4312 34.1528 29.9405 31.6573 31.6612L28.8695 33.5835C28.2289 34.0051 28.0504 34.8884 28.3941 35.5653C31.9994 42.1027 37.2082 47.8317 43.3 51.9371C43.9076 52.2995 44.7801 52.1121 45.2036 51.515L47.1722 48.6322C48.8936 46.1197 52.394 45.2381 54.7522 47.0686Z" fill="#FF0000" fill-opacity="0.4"/>
		<g filter="url(#filter0_d_273_234407)">
			<circle cx="54.5" cy="54.5" r="17.5" fill="white" fill-opacity="0.7" shape-rendering="crispEdges"/>
		</g>
		<path fill-rule="evenodd" clip-rule="evenodd" d="M63.6332 54.1791C63.4613 53.9629 63.1467 53.9271 62.9306 54.099L57.0094 58.8082L53.2605 54.0945L55.8955 51.9989C56.5503 51.4781 56.2486 50.4258 55.4175 50.331L48.0481 49.4909C47.533 49.432 47.0676 49.8021 47.009 50.3174L46.1686 57.6867C46.0739 58.5178 47.0312 59.0486 47.6861 58.5278L50.7474 56.0932L56.2136 62.9545C56.227 62.9713 56.2408 62.9875 56.255 63.0031L56.5302 63.3491C56.7021 63.5652 57.0166 63.6011 57.2327 63.4292L65.2684 57.0384C65.4845 56.8665 65.5204 56.552 65.3485 56.3358L63.6332 54.1791Z" fill="#FF0000"/>
	</g>
	<defs>
		<filter id="filter0_d_273_234407" x="25" y="31" width="59" height="59" filterUnits="userSpaceOnUse" color-interpolation-filters="sRGB">
			<feFlood flood-opacity="0" result="BackgroundImageFix"/>
			<feColorMatrix in="SourceAlpha" type="matrix" values="0 0 0 0 0 0 0 0 0 0 0 0 0 0 0 0 0 0 127 0" result="hardAlpha"/>
			<feOffset dy="6"/>
			<feGaussianBlur stdDeviation="6"/>
			<feComposite in2="hardAlpha" operator="out"/>
			<feColorMatrix type="matrix" values="0 0 0 0 0 0 0 0 0 0 0 0 0 0 0 0 0 0 0.12 0"/>
			<feBlend mode="normal" in2="BackgroundImageFix" result="effect1_dropShadow_273_234407"/>
			<feBlend mode="normal" in="SourceGraphic" in2="effect1_dropShadow_273_234407" result="shape"/>
		</filter>
		<clipPath id="clip0_273_234407">
			<rect width="80" height="80" fill="white"/>
		</clipPath>
	</defs>
</svg>
