<svg width="24" height="25" viewBox="0 0 24 25" fill="none" xmlns="http://www.w3.org/2000/svg">
<path fill-rule="evenodd" clip-rule="evenodd" d="M9.14322 5.94064C9.3865 5.51927 9.92529 5.3749 10.3467 5.61818C10.768 5.86145 10.9124 6.40025 10.6691 6.82162L8.95643 9.78809H14.8203L13.1076 6.82162C12.8643 6.40025 13.0087 5.86145 13.4301 5.61818C13.8515 5.3749 14.3902 5.51927 14.6335 5.94064L16.836 9.75539C16.8422 9.76621 16.8482 9.77711 16.854 9.78809H18.2376C18.8874 9.78809 19.3646 10.398 19.2083 11.0287L17.3916 18.3565C17.281 18.8026 16.8806 19.1159 16.421 19.1159H7.57959C7.11998 19.1159 6.71956 18.8026 6.60897 18.3565L4.79232 11.0287C4.63597 10.398 5.11318 9.78809 5.76294 9.78809H6.92279C6.92853 9.77711 6.93452 9.76621 6.94077 9.75539L9.14322 5.94064ZM7.13574 12.3244C7.13574 12.0644 7.34659 11.8535 7.60667 11.8535H9.61895V13.5954H7.60667C7.34659 13.5954 7.13574 13.3845 7.13574 13.1244V12.3244ZM11.0608 13.5954V11.8535H12.7983V13.5954H11.0608ZM12.7983 14.9668H11.0608V16.7087H12.7983V14.9668ZM14.2402 16.7087V14.9668H15.6149C15.875 14.9668 16.0858 15.1776 16.0858 15.4377V16.2377C16.0858 16.4978 15.875 16.7087 15.6149 16.7087H14.2402ZM14.2402 13.5954V11.8535H16.3611C16.6212 11.8535 16.832 12.0644 16.832 12.3244V13.1244C16.832 13.3845 16.6212 13.5954 16.3611 13.5954H14.2402ZM8.38573 14.9668H9.61895V16.7087H8.38573C8.12564 16.7087 7.91479 16.4978 7.91479 16.2377V15.4377C7.91479 15.1776 8.12564 14.9668 8.38573 14.9668Z" fill="#525C69"/>
</svg>
