<svg width="24" height="25" viewBox="0 0 24 25" fill="none" xmlns="http://www.w3.org/2000/svg">
<path fill-rule="evenodd" clip-rule="evenodd" d="M9.01071 6.4668C9.01071 5.91451 9.45842 5.4668 10.0107 5.4668H18.1108C18.6631 5.4668 19.1108 5.91451 19.1108 6.4668V14.5669C19.1108 15.1192 18.6631 15.5669 18.1108 15.5669H16.6309V18.045C16.6309 18.8201 16.0026 19.4484 15.2276 19.4484H6.38063C5.60559 19.4484 4.97729 18.8201 4.97729 18.045V9.19808C4.97729 8.42303 5.60559 7.79474 6.38063 7.79474H9.01071V6.4668ZM9.01071 9.79864H6.98218V17.4428H14.6254V15.5669H10.0107C9.45842 15.5669 9.01071 15.1192 9.01071 14.5669V11.6009H13.4446V13.5512L16.2879 10.7078L13.4446 7.86447V9.80005H9.01071V9.79864Z" fill="#525C69"/>
</svg>
