<svg width="18" height="18" viewBox="0 0 18 18" fill="none" xmlns="http://www.w3.org/2000/svg">
	<path fill-rule="evenodd" clip-rule="evenodd" d="M5.75146 14.371C6.69849 14.9516 7.8125 15.2862 9.00468 15.2862C12.4475 15.2862 15.2384 12.4953 15.2384 9.05253C15.2384 7.86035 14.9037 6.74634 14.3232 5.79932L5.75146 14.371ZM3.68616 12.3057L12.2579 3.73402C11.3109 3.1535 10.1969 2.81884 9.00468 2.81884C5.5619 2.81884 2.77099 5.60976 2.77099 9.05253C2.77099 10.2447 3.10565 11.3587 3.68616 12.3057ZM9.00468 17.7359C4.20898 17.7359 0.321289 13.8482 0.321289 9.05253C0.321289 4.25683 4.20898 0.369141 9.00468 0.369141C13.8004 0.369141 17.6881 4.25683 17.6881 9.05253C17.6881 13.8482 13.8004 17.7359 9.00468 17.7359Z" fill="white"/>
</svg>
