<svg width="26" height="26" viewBox="0 0 26 26" fill="none" xmlns="http://www.w3.org/2000/svg">
	<path fill-rule="evenodd" clip-rule="evenodd" d="M4.33331 6.50004C4.33331 5.30342 5.30336 4.33337 6.49998 4.33337H16.25C17.4466 4.33337 18.4166 5.30342 18.4166 6.50004V16.25C18.4166 17.4467 17.4466 18.4167 16.25 18.4167H6.49998C5.30336 18.4167 4.33331 17.4467 4.33331 16.25V6.50004ZM12.1278 7.69234H10.2885V10.4829H7.49788V12.3221H10.2885V15.1129H12.1278V12.3221H14.9185V10.4829H12.1278V7.69234Z" fill="#BDC1C6"/>
	<path d="M9.74998 21.6667C8.73034 21.6667 7.87521 20.9624 7.64456 20.0137H17.8453C19.042 20.0137 20.012 19.0437 20.012 17.847V7.64423C20.9615 7.87429 21.6666 8.72982 21.6666 9.75004V19.5C21.6666 20.6967 20.6966 21.6667 19.5 21.6667H9.74998Z" fill="#BDC1C6"/>
</svg>
