<svg width="18" height="16" viewBox="0 0 18 16" fill="none" xmlns="http://www.w3.org/2000/svg">
	<path fill-rule="evenodd" clip-rule="evenodd" d="M13.726 5.25749H3.43625C3.23289 5.25749 3.07021 5.12273 3.07021 4.95429V3.70782C3.07021 3.53938 3.23289 3.40462 3.43625 3.40462H13.726C13.9294 3.40462 14.0921 3.53938 14.0921 3.70782V4.95429C14.1327 5.12273 13.9294 5.25749 13.726 5.25749M13.726 8.97233H3.43625C3.23289 8.97233 3.07021 8.83758 3.07021 8.66914V7.42266C3.07021 7.25422 3.23289 7.11947 3.43625 7.11947H13.726C13.9294 7.11947 14.0921 7.25422 14.0921 7.42266V8.66914C14.1327 8.83758 13.9294 8.97233 13.726 8.97233M15.4815 0H1.64767C0.748941 0 0 0.673769 0 1.48229V11.2289C0 12.0374 0.748941 12.7112 1.64767 12.7112H11.3786C11.491 12.7112 11.5659 12.7448 11.6408 12.8122L13.9625 15.0693C14.1872 15.2715 14.5616 15.1367 14.5616 14.8672V13.0143C14.5616 12.8459 14.7114 12.7112 14.8987 12.7112H15.519C16.4177 12.7112 17.1667 12.0374 17.1667 11.2289V1.48229C17.1292 0.673769 16.3803 0 15.4815 0Z" fill="white"/>
</svg>