<svg width="24" height="24" viewBox="0 0 24 24" fill="none" xmlns="http://www.w3.org/2000/svg">
<path fill-rule="evenodd" clip-rule="evenodd" d="M6.20969 6.20508C5.14019 6.20508 4.27319 7.05689 4.27319 8.10766V15.6827C4.27319 16.7335 5.14019 17.5853 6.20969 17.5853H13.6862L16.2246 20.0792C16.4686 20.3189 16.8857 20.1491 16.8857 19.8101V17.5853H17.7564C18.8259 17.5853 19.6929 16.7335 19.6929 15.6827V8.10766C19.6929 7.05689 18.8259 6.20508 17.7564 6.20508H6.20969ZM16.5437 10.578H7.46634C7.28695 10.578 7.14343 10.4498 7.14343 10.2896V9.10383C7.14343 8.94359 7.28695 8.8154 7.46634 8.8154H16.5437C16.7231 8.8154 16.8666 8.94359 16.8666 9.10383V10.2896C16.9024 10.4498 16.7231 10.578 16.5437 10.578ZM7.46658 14.1119H16.5439C16.7233 14.1119 16.9027 13.9837 16.8668 13.8235V12.6377C16.8668 12.4775 16.7233 12.3493 16.5439 12.3493H7.46658C7.28718 12.3493 7.14367 12.4775 7.14367 12.6377V13.8235C7.14367 13.9837 7.28718 14.1119 7.46658 14.1119Z" fill="#525C69"/>
</svg>
