<svg width="24" height="25" viewBox="0 0 24 25" fill="none" xmlns="http://www.w3.org/2000/svg">
<path fill-rule="evenodd" clip-rule="evenodd" d="M14.1008 5.03668C14.1008 3.67572 13.3339 2.93555 11.986 2.93555C10.6613 2.93555 9.89444 3.67572 9.89444 5.03668C9.89444 6.39764 10.6613 7.18556 11.986 7.18556C13.3339 7.18556 14.1008 6.39764 14.1008 5.03668ZM15.6233 19.9673V18.081L14.4381 17.9139C14.0895 17.8661 14.0662 17.8184 14.0662 17.4363V9.36426H9.25564L9 11.2983L10.2549 11.7519C10.4873 11.8235 10.5571 11.9907 10.5571 12.2533V17.4363C10.5571 17.7945 10.5106 17.8661 10.1852 17.9139L9 18.081V19.9673H15.6233Z" fill="#525C69"/>
</svg>
