<svg width="80" height="80" viewBox="0 0 80 80" fill="none" xmlns="http://www.w3.org/2000/svg">
<g filter="url(#filter0_d_3553_22705)">
<path fill-rule="evenodd" clip-rule="evenodd" d="M13 7H51.6486L68 23.7292V80H13V7Z" fill="#EEF2F4"/>
<path fill-rule="evenodd" clip-rule="evenodd" d="M51.6676 7L67.9998 23.7292H51.6484L51.6676 7Z" fill="#D5D7DB"/>
<path fill-rule="evenodd" clip-rule="evenodd" d="M13 7H51.6486L68 23.7292V80H13V7Z" fill="#EDFBFF"/>
<path fill-rule="evenodd" clip-rule="evenodd" d="M51.6676 7L67.9998 23.7292H51.6484L51.6676 7Z" fill="#2FC6F6"/>
<rect opacity="0.46" x="22.1685" y="18.3096" width="19.094" height="2.05634" rx="1.02817" fill="#2066B0"/>
<rect opacity="0.38" x="22.1685" y="25.5068" width="15.0742" height="2.05634" rx="1.02817" fill="#2066B0"/>
<rect opacity="0.32" x="22.1685" y="32.7041" width="36.1782" height="2.05634" rx="1.02817" fill="#2066B0"/>
<rect opacity="0.26" x="22.1685" y="39.9014" width="32.1584" height="2.05634" rx="1.02817" fill="#2066B0"/>
<rect opacity="0.22" x="22.1685" y="47.0986" width="34.1683" height="2.05634" rx="1.02817" fill="#2066B0"/>
</g>
<defs>
<filter id="filter0_d_3553_22705" x="-1" y="-1" width="83" height="101" filterUnits="userSpaceOnUse" color-interpolation-filters="sRGB">
<feFlood flood-opacity="0" result="BackgroundImageFix"/>
<feColorMatrix in="SourceAlpha" type="matrix" values="0 0 0 0 0 0 0 0 0 0 0 0 0 0 0 0 0 0 127 0" result="hardAlpha"/>
<feOffset dy="6"/>
<feGaussianBlur stdDeviation="7"/>
<feComposite in2="hardAlpha" operator="out"/>
<feColorMatrix type="matrix" values="0 0 0 0 0 0 0 0 0 0 0 0 0 0 0 0 0 0 0.12 0"/>
<feBlend mode="normal" in2="BackgroundImageFix" result="effect1_dropShadow_3553_22705"/>
<feBlend mode="normal" in="SourceGraphic" in2="effect1_dropShadow_3553_22705" result="shape"/>
</filter>
</defs>
</svg>
