<svg width="24" height="24" viewBox="0 0 24 24" fill="none" xmlns="http://www.w3.org/2000/svg">
	<path fill-rule="evenodd" clip-rule="evenodd" d="M12.6714 4.94922C9.1482 4.94922 6.20388 7.42698 5.48555 10.735H2.85889L6.49337 14.3695C6.63939 14.5155 6.87831 14.5155 7.02433 14.3695L10.6588 10.735H7.9444C8.60131 8.7532 10.4692 7.32341 12.6714 7.32341C15.4214 7.32341 17.6507 9.55272 17.6507 12.3027C17.6507 15.0527 15.4214 17.282 12.6714 17.282C11.2672 17.282 9.99893 16.7005 9.09373 15.7655L7.38847 17.4177C8.72523 18.7981 10.5981 19.6562 12.6714 19.6562C16.7326 19.6562 20.0249 16.3639 20.0249 12.3027C20.0249 8.24149 16.7326 4.94922 12.6714 4.94922ZM13.0592 8.89844H12.2489C12.1335 8.89844 12.0391 8.99285 12.0391 9.10824V12.465C12.0391 12.4713 12.0394 12.4774 12.04 12.4835C12.0343 12.5438 12.0544 12.606 12.1003 12.6518L14.4738 15.0254C14.5554 15.107 14.6889 15.107 14.7705 15.0254L15.3435 14.4524C15.4251 14.3708 15.4251 14.2373 15.3435 14.1557L13.269 12.0812V9.10824C13.269 8.99285 13.1746 8.89844 13.0592 8.89844Z" fill="#BDC1C6"/>
</svg>
