<svg width="24" height="24" viewBox="0 0 24 24" fill="none" xmlns="http://www.w3.org/2000/svg">
<path fill-rule="evenodd" clip-rule="evenodd" d="M8.55342 11.5893C8.74243 11.7783 8.60854 12.1015 8.34125 12.1014L6.65018 12.1012C6.64159 13.5161 7.17706 14.9337 8.25659 16.0132C9.75955 17.5161 11.9177 17.9645 13.8117 17.3584C13.9622 17.3102 14.1278 17.3777 14.1933 17.5215L15.0104 19.3171C15.0812 19.4728 15.008 19.6565 14.8469 19.714C12.0092 20.7272 8.71644 20.0977 6.44427 17.8255C4.86459 16.2458 4.07888 14.1728 4.08714 12.1024L2.52198 12.1018C2.25476 12.1017 2.12101 11.7786 2.30996 11.5897L5.21975 8.67991C5.33691 8.56275 5.52686 8.56275 5.64402 8.67991L8.55342 11.5893ZM17.8259 6.44432C19.3936 8.01203 20.1793 10.0656 20.1831 12.1203L21.7413 12.1205C22.0086 12.1205 22.1424 12.4437 21.9534 12.6326L19.0438 15.5422C18.9266 15.6594 18.7367 15.6594 18.6195 15.5422L15.7101 12.6328C15.5211 12.4438 15.655 12.1207 15.9223 12.1207L17.6201 12.1209C17.6165 10.7219 17.081 9.32402 16.0136 8.25664C14.2809 6.52399 11.6775 6.19286 9.61202 7.26325C9.45731 7.34342 9.26354 7.28756 9.18542 7.13181L8.30661 5.37971C8.23492 5.23676 8.28778 5.06209 8.42974 4.98845C11.4609 3.41583 15.2827 3.90113 17.8259 6.44432Z" fill="#525C69"/>
</svg>
