<svg width="24" height="24" viewBox="0 0 24 24" fill="none" xmlns="http://www.w3.org/2000/svg">
	<path fill-rule="evenodd" clip-rule="evenodd" d="M13.4808 9.62349H11.9571V14.0836H16.2282V12.6441H13.4808V9.62349ZM18.9694 3.88859C18.7984 3.82053 18.613 3.78829 18.4343 3.73903H18.0488C18.0237 3.74799 17.9996 3.76142 17.974 3.76456C17.3651 3.84023 16.8475 4.11515 16.3782 4.4953C16.3514 4.51679 16.3308 4.54634 16.3012 4.57814C17.5129 5.61604 18.7146 6.64544 19.9563 7.70887C20.0928 7.3829 20.2455 7.08827 20.3418 6.77619C20.8182 5.23142 19.8855 4.25485 18.9694 3.88859ZM9.91348 4.89202C9.63721 4.54814 9.12587 4.19261 8.68304 4.01127C7.28692 3.43993 5.92529 4.48142 5.68081 5.50186C5.6526 5.62052 5.62618 5.73962 5.59887 5.85828V6.37186C5.61007 6.4238 5.6235 6.47484 5.63201 6.52723C5.69335 6.89484 5.79275 7.24992 5.97454 7.59111C7.29678 6.68529 8.60468 5.78888 9.91348 4.89202ZM13.0249 18.7541C9.93706 18.7621 7.39631 16.2413 7.38911 13.1615C7.38192 10.0359 9.8926 7.50577 13.008 7.49942C16.1056 7.49307 18.6353 10.0114 18.6438 13.1094C18.6523 16.218 16.1356 18.746 13.0249 18.7541ZM18.3605 7.93185C15.4424 4.95963 10.7123 4.91485 7.75036 7.81768C4.56499 10.9395 4.78887 16.3018 8.39782 19.073C8.11707 19.5611 7.83498 20.0509 7.5417 20.5596C7.91468 20.787 8.28364 21.0114 8.65214 21.2361H8.72602C8.99468 20.7597 9.26333 20.2833 9.5405 19.7912C10.6254 20.3527 11.769 20.633 12.9753 20.637C14.1842 20.6411 15.3309 20.3675 16.436 19.8033C16.7073 20.2864 16.9738 20.7615 17.2402 21.2361H17.314C17.619 21.0525 17.9234 20.8694 18.2284 20.6867C18.2911 20.6491 18.3537 20.6124 18.4312 20.5667C18.1424 20.0648 17.8608 19.5758 17.5805 19.0882C21.184 16.3117 21.4218 11.05 18.3605 7.93185Z" fill="#BDC1C6"/>
</svg>
