<svg width="24" height="25" viewBox="0 0 24 25" fill="none" xmlns="http://www.w3.org/2000/svg">
<path fill-rule="evenodd" clip-rule="evenodd" d="M12.9413 6.32617H3.91817C3.41848 6.32617 3.01489 6.74425 3.01489 7.26187V17.5645C3.01489 18.0821 3.41848 18.5002 3.91817 18.5002H12.9413C13.441 18.5002 13.8446 18.0821 13.8446 17.5645V7.26187C13.8446 6.74425 13.441 6.32617 12.9413 6.32617ZM8.50993 16.8375C6.09923 16.8375 4.14771 14.8159 4.14771 12.3186C4.14771 9.82138 6.09923 7.7998 8.50993 7.7998C10.9206 7.7998 12.8722 9.82138 12.8722 12.3186C12.8722 14.8159 10.9206 16.8375 8.50993 16.8375ZM9.14558 12.3288C9.4819 12.07 9.71252 11.5922 9.71252 11.0546C9.71252 10.2284 9.18401 9.56151 8.52097 9.56151C7.86754 9.56151 7.32942 10.2284 7.32942 11.0546C7.32942 11.5922 7.56004 12.06 7.89637 12.3288C6.78169 12.4582 5.95529 12.9858 5.95529 14.4789C5.95529 14.7477 8.50175 14.7079 8.50175 14.7079C8.50175 14.7079 11.077 14.7278 11.077 14.4789C11.077 12.9858 10.2603 12.4482 9.14558 12.3288ZM17.071 9.80643H21.7724C22.2745 9.80643 22.6806 9.38583 22.6806 8.86562C22.6806 8.3454 22.2745 7.9248 21.7724 7.9248H17.071C16.5689 7.9248 16.1628 8.3454 16.1628 8.86562C16.1628 9.38583 16.5689 9.80643 17.071 9.80643ZM21.7724 11.0234H17.071C16.5689 11.0234 16.1628 11.444 16.1628 11.9642C16.1628 12.4845 16.5689 12.9051 17.071 12.9051H21.7724C22.2745 12.9051 22.6806 12.4845 22.6806 11.9642C22.6806 11.444 22.2745 11.0234 21.7724 11.0234ZM20.6341 14.0125H16.8868C16.4865 14.0125 16.1629 14.4331 16.1629 14.9533C16.1629 15.4735 16.4865 15.8941 16.8868 15.8941H20.6341C21.0343 15.8941 21.358 15.4735 21.358 14.9533C21.358 14.4331 21.0343 14.0125 20.6341 14.0125Z" fill="#525C69"/>
</svg>
