<svg width="80" height="80" viewBox="0 0 80 80" fill="none" xmlns="http://www.w3.org/2000/svg">
	<rect opacity="0.2" width="80" height="80" rx="12" fill="#2FC6F6"/>
	<rect x="10.6597" y="34" width="2.57143" height="32" rx="1.28572" fill="#2FC6F6"/>
	<rect x="16" y="26" width="2" height="40" rx="1" fill="#2FC6F6"/>
	<rect x="20.9453" y="34" width="2.57143" height="32" rx="1.28572" fill="#2FC6F6"/>
	<rect x="26.0879" y="42" width="2.57143" height="24" rx="1.28572" fill="#2FC6F6"/>
	<rect x="31.231" y="42" width="2.57143" height="24" rx="1.28571" fill="#2FC6F6"/>
	<rect x="36.374" y="50" width="2.57143" height="16" rx="1.28572" fill="#2FC6F6"/>
	<rect x="41.5166" y="42" width="2.57143" height="24" rx="1.28572" fill="#2FC6F6"/>
	<rect x="46.6597" y="50" width="2.57143" height="16" rx="1.28571" fill="#2FC6F6"/>
	<rect x="51.8022" y="50" width="2.57143" height="16" rx="1.28571" fill="#2FC6F6"/>
	<rect x="56.9453" y="34" width="2.57143" height="32" rx="1.28571" fill="#2FC6F6"/>
	<rect x="62.0879" y="36.9839" width="2.57143" height="29.0161" rx="1.28571" fill="#2FC6F6"/>
	<rect x="67.231" y="42" width="2.57143" height="24" rx="1.28571" fill="#2FC6F6"/>
	<g opacity="0.9" filter="url(#filter0_d_470_238923)">
		<circle cx="40" cy="40" r="20" fill="white"/>
	</g>
	<path fill-rule="evenodd" clip-rule="evenodd" d="M46.6778 38.872L37.1494 32.1349C36.9248 31.9739 36.6321 31.9556 36.3903 32.0876C36.1486 32.2197 35.9981 32.4799 36 32.7626V46.2362C35.9972 46.5193 36.1476 46.7803 36.3896 46.9125C36.6317 47.0447 36.925 47.026 37.1494 46.8639L46.6778 40.1268C46.8793 39.986 47 39.7509 47 39.4994C47 39.2479 46.8793 39.0128 46.6778 38.872Z" fill="#2FC6F6"/>
	<defs>
		<filter id="filter0_d_470_238923" x="11" y="15" width="58" height="58" filterUnits="userSpaceOnUse" color-interpolation-filters="sRGB">
			<feFlood flood-opacity="0" result="BackgroundImageFix"/>
			<feColorMatrix in="SourceAlpha" type="matrix" values="0 0 0 0 0 0 0 0 0 0 0 0 0 0 0 0 0 0 127 0" result="hardAlpha"/>
			<feOffset dy="4"/>
			<feGaussianBlur stdDeviation="4.5"/>
			<feComposite in2="hardAlpha" operator="out"/>
			<feColorMatrix type="matrix" values="0 0 0 0 0 0 0 0 0 0 0 0 0 0 0 0 0 0 0.1 0"/>
			<feBlend mode="normal" in2="BackgroundImageFix" result="effect1_dropShadow_470_238923"/>
			<feBlend mode="normal" in="SourceGraphic" in2="effect1_dropShadow_470_238923" result="shape"/>
		</filter>
	</defs>
</svg>
