<svg width="24" height="24" viewBox="0 0 24 24" fill="none" xmlns="http://www.w3.org/2000/svg">
	<path fill-rule="evenodd" clip-rule="evenodd" d="M12.0836 4.00263C14.1832 4.00263 16.2391 4.827 17.7264 6.34558C19.2136 7.82077 20.0447 9.81661 20.0447 11.9426C20.0447 16.3248 16.4578 19.926 12.0398 19.926C10.7276 19.926 9.41527 19.6223 8.23422 18.9715L3.99119 20.0562L5.1285 15.9343C4.47236 14.7194 4.07868 13.3744 4.07868 11.986C4.03493 7.60383 7.62183 4.00263 12.0836 4.00263ZM8.71539 17.6698C9.72147 18.2773 10.9025 18.581 12.0836 18.581C13.3084 18.581 14.5332 18.2339 15.5392 17.5831C18.6887 15.674 19.6073 11.6389 17.6826 8.51497C15.758 5.39104 11.6899 4.4799 8.54042 6.38897C5.39095 8.29803 4.47236 12.3765 6.39703 15.457L6.57201 15.7174L5.91587 18.1905L8.45294 17.5397L8.71539 17.6698ZM13.5213 13.4539C13.7857 13.1139 13.9746 12.925 14.088 12.925C14.1635 12.925 14.5035 13.0762 15.108 13.3784C15.7125 13.6806 16.0147 13.8695 16.0525 13.9451C16.0525 13.9607 16.059 13.9764 16.0666 13.9947C16.0773 14.0206 16.0903 14.0519 16.0903 14.0962C16.0903 14.3229 16.0147 14.5873 15.9014 14.8896C15.788 15.154 15.5236 15.3807 15.1458 15.5696C14.768 15.7585 14.3902 15.8341 14.088 15.8341C13.6724 15.8341 13.0301 15.6074 12.0856 15.1918C11.4056 14.8896 10.8011 14.474 10.31 13.9451C9.81887 13.4162 9.28995 12.7739 8.76104 11.9805C8.2699 11.225 8.00545 10.5449 8.00545 9.94044L8.00545 9.86489C8.04323 9.22263 8.2699 8.65594 8.79882 8.20258C8.94994 8.05146 9.13883 7.97591 9.36551 7.97591L9.55441 7.97591L9.74331 7.97591C9.89442 7.97591 9.96998 8.01369 10.0078 8.05146C10.0455 8.08924 10.1211 8.20258 10.1589 8.3537C10.1746 8.41654 10.2099 8.50552 10.2567 8.62335C10.3223 8.78886 10.4106 9.01129 10.4989 9.29819C10.6878 9.78933 10.7634 10.0538 10.7634 10.0916C10.7634 10.2427 10.65 10.4316 10.3856 10.696C10.3359 10.754 10.2898 10.8065 10.2482 10.854C10.0999 11.0231 10.0078 11.1282 10.0078 11.1872C10.0078 11.225 10.0078 11.3005 10.0455 11.3383C10.2722 11.8672 10.65 12.3206 11.1034 12.7739C11.4812 13.1517 12.0101 13.4917 12.6901 13.8317C12.7657 13.8695 12.8412 13.9073 12.9168 13.9073C13.0679 13.9451 13.2568 13.794 13.5213 13.4539Z" fill="white"/>
</svg>
