<svg width="24" height="24" viewBox="0 0 24 24" fill="none" xmlns="http://www.w3.org/2000/svg">
	<path fill-rule="evenodd" clip-rule="evenodd" d="M6.00488 6.03114C4.9003 6.03114 4.00487 6.92658 4.00488 8.03116L4.00495 15.9488C4.00496 17.0534 4.90038 17.9488 6.00495 17.9488H7.68893V20.0549C7.68893 20.4176 8.13294 20.5931 8.38088 20.3284L10.6096 17.9488H18.108C19.2125 17.9488 20.108 17.0533 20.108 15.9488L20.1079 8.03112C20.1079 6.92656 19.2125 6.03114 18.1079 6.03114H6.00488ZM8.65663 13.5362C8.79597 13.3232 8.86564 13.0793 8.86564 12.8047C8.86564 12.5058 8.79143 12.2579 8.643 12.061C8.49457 11.8641 8.22952 11.6798 7.84785 11.5082C7.45002 11.3264 7.20617 11.2012 7.11631 11.1326C7.02644 11.0639 6.98151 10.9862 6.98151 10.8993C6.98151 10.8186 7.01685 10.7509 7.08753 10.6964C7.15821 10.6419 7.2713 10.6146 7.4268 10.6146C7.72769 10.6146 8.08513 10.7095 8.49912 10.8993L8.86564 9.97544C8.38905 9.7634 7.92156 9.65738 7.46315 9.65738C6.94415 9.65738 6.53623 9.77148 6.23937 9.99967C5.94251 10.2279 5.79409 10.5459 5.79409 10.9539C5.79409 11.172 5.82892 11.3608 5.89859 11.5203C5.96826 11.6798 6.07529 11.8212 6.21968 11.9444C6.36407 12.0676 6.58065 12.1948 6.86943 12.3261C7.18851 12.4694 7.38489 12.5644 7.4586 12.6108C7.53231 12.6572 7.58583 12.7032 7.61915 12.7486C7.65247 12.7941 7.66913 12.8471 7.66913 12.9077C7.66913 13.0046 7.62773 13.0839 7.54493 13.1454C7.46214 13.207 7.33188 13.2378 7.15417 13.2378C6.94819 13.2378 6.72202 13.205 6.47564 13.1394C6.22927 13.0738 5.99199 12.9824 5.76379 12.8652V13.9315C5.97987 14.0345 6.18787 14.1067 6.3878 14.1481C6.58772 14.1895 6.8351 14.2102 7.12994 14.2102C7.48334 14.2102 7.7913 14.1511 8.05383 14.033C8.31636 13.9148 8.51729 13.7493 8.65663 13.5362ZM10.5742 10.9596L11.4799 14.1493H12.6189L13.5125 10.9656H13.5398C13.5155 11.4463 13.5019 11.7482 13.4989 11.8713C13.4958 11.9945 13.4943 12.1066 13.4943 12.2076V14.1493H14.5939V9.72065H12.9975L12.0918 12.8649H12.0676L11.1437 9.72065H9.55036V14.1493H10.6106V12.2258C10.6106 11.9249 10.5894 11.5028 10.547 10.9596H10.5742ZM18.4445 12.8047C18.4445 13.0793 18.3749 13.3232 18.2355 13.5362C18.0962 13.7493 17.8952 13.9148 17.6327 14.033C17.3702 14.1511 17.0622 14.2102 16.7088 14.2102C16.414 14.2102 16.1666 14.1895 15.9667 14.1481C15.7668 14.1067 15.5588 14.0345 15.3427 13.9315V12.8652C15.5709 12.9824 15.8082 13.0738 16.0545 13.1394C16.3009 13.205 16.5271 13.2378 16.7331 13.2378C16.9108 13.2378 17.041 13.207 17.1238 13.1454C17.2066 13.0839 17.248 13.0046 17.248 12.9077C17.248 12.8471 17.2314 12.7941 17.198 12.7486C17.1647 12.7032 17.1112 12.6572 17.0375 12.6108C16.9638 12.5644 16.7674 12.4694 16.4483 12.3261C16.1595 12.1948 15.943 12.0676 15.7986 11.9444C15.6542 11.8212 15.5471 11.6798 15.4775 11.5203C15.4078 11.3608 15.373 11.172 15.373 10.9539C15.373 10.5459 15.5214 10.2279 15.8183 9.99967C16.1151 9.77148 16.523 9.65738 17.042 9.65738C17.5004 9.65738 17.9679 9.7634 18.4445 9.97544L18.078 10.8993C17.664 10.7095 17.3066 10.6146 17.0057 10.6146C16.8502 10.6146 16.7371 10.6419 16.6664 10.6964C16.5957 10.7509 16.5604 10.8186 16.5604 10.8993C16.5604 10.9862 16.6053 11.0639 16.6952 11.1326C16.7851 11.2012 17.0289 11.3264 17.4267 11.5082C17.8084 11.6798 18.0735 11.8641 18.2219 12.061C18.3703 12.2579 18.4445 12.5058 18.4445 12.8047Z" fill="white"/>
</svg>
