<svg width="24" height="24" viewBox="0 0 24 24" fill="none" xmlns="http://www.w3.org/2000/svg">
	<path fill-rule="evenodd" clip-rule="evenodd" d="M16.3684 13.4415L17.6684 14.7415C18.4733 15.5464 18.4738 16.8637 17.6689 17.6686C16.864 18.4736 15.5462 18.4736 14.7412 17.6686L13.4412 16.3686C12.8671 15.7945 12.7111 14.9623 12.9555 14.2385L13.3564 14.6394C13.7092 14.9922 14.287 14.9932 14.6402 14.64C14.9935 14.2867 14.993 13.7084 14.6402 13.3556L14.2393 12.9547C14.9626 12.7108 15.7942 12.8673 16.3684 13.4415ZM7.1525 10.0799L5.85247 8.77988C5.04754 7.97495 5.04807 6.65765 5.853 5.85272C6.65792 5.04779 7.9747 5.04779 8.77963 5.85272L10.0797 7.15275C10.6538 7.72688 10.8108 8.55902 10.5664 9.28178L9.92945 8.64485C9.57619 8.29158 8.9984 8.29158 8.64513 8.64485C8.29186 8.99812 8.29238 9.57539 8.64565 9.92866L9.28258 10.5656C8.5593 10.8105 7.72663 10.654 7.1525 10.0799ZM11.3158 6.08195L9.85043 4.61654C8.41118 3.1773 6.05606 3.1773 4.61682 4.61654C3.17757 6.05578 3.17757 8.41091 4.61682 9.85015L6.08223 11.3156C7.29904 12.5324 9.1643 12.7082 10.5847 11.8677L11.6539 12.9369C10.8129 14.3568 10.9893 16.2226 12.2056 17.4389L13.6715 18.9048C15.1107 20.3441 17.4659 20.3441 18.9051 18.9048C20.3443 17.4656 20.3443 15.1105 18.9051 13.6712L17.4392 12.2053C16.2229 10.989 14.3571 10.8126 12.9377 11.6531L11.8685 10.5839C12.7085 9.16403 12.5327 7.29877 11.3158 6.08195Z" fill="#828B95"/>
</svg>
