<svg width="26" height="26" viewBox="0 0 26 26" fill="none" xmlns="http://www.w3.org/2000/svg">
<path fill-rule="evenodd" clip-rule="evenodd" d="M8.58325 4.3335C8.03097 4.3335 7.58325 4.78121 7.58325 5.3335V19.5835C7.58325 20.1358 8.03097 20.5835 8.58325 20.5835H19.6078C20.1601 20.5835 20.6078 20.1358 20.6078 19.5835V9.68538C20.6078 9.18319 20.4189 8.69938 20.0786 8.33008L16.9899 4.97819C16.6112 4.56727 16.0779 4.3335 15.5191 4.3335H8.58325ZM10.5634 8.64778C10.1272 8.64778 9.7736 9.00136 9.7736 9.43753V9.56916C9.7736 10.0053 10.1272 10.3589 10.5634 10.3589H16.9975C17.4337 10.3589 17.7873 10.0053 17.7873 9.56916V9.43753C17.7873 9.00136 17.4337 8.64778 16.9975 8.64778H10.5634ZM10.5634 11.8978C10.1272 11.8978 9.7736 12.2514 9.7736 12.6875V12.8192C9.7736 13.2553 10.1272 13.6089 10.5634 13.6089H16.9975C17.4337 13.6089 17.7873 13.2553 17.7873 12.8192V12.6875C17.7873 12.2514 17.4337 11.8978 16.9975 11.8978H10.5634ZM9.7736 15.894C9.7736 15.4578 10.1272 15.1042 10.5634 15.1042H15.1514C15.5876 15.1042 15.9412 15.4578 15.9412 15.894V16.0256C15.9412 16.4618 15.5876 16.8154 15.1514 16.8154H10.5634C10.1272 16.8154 9.7736 16.4618 9.7736 16.0256V15.894Z" fill="white"/>
</svg>
