<svg width="24" height="25" viewBox="0 0 24 25" fill="none" xmlns="http://www.w3.org/2000/svg">
<path fill-rule="evenodd" clip-rule="evenodd" d="M16.5112 4.50195C17.1693 4.50195 17.707 4.97771 17.7757 5.58149L17.7832 5.71271V12.1319C17.7832 12.169 17.7166 12.2821 17.6243 12.4248L17.2449 12.9968C17.1666 13.1181 17.1051 13.2207 17.0836 13.2783L17.0753 13.3126L17.0751 19.8336C17.0751 20.4601 16.5753 20.9718 15.941 21.0373L15.8031 21.0443H8.19745C7.53932 21.0443 7.00163 20.5686 6.93286 19.9648L6.92543 19.8336V13.2545C6.92543 13.2166 6.85873 13.1028 6.76627 12.9593L6.33169 12.2982C6.28044 12.2153 6.24185 12.1466 6.22576 12.1032L6.21753 12.0687V5.71271C6.21753 5.08628 6.71736 4.57448 7.3517 4.50903L7.48955 4.50195H16.5112ZM9.75334 17.4883H8.84843C8.52869 17.4883 8.26928 17.7351 8.26928 18.0395C8.26928 18.3439 8.52868 18.5907 8.84843 18.5907H9.75334C10.0731 18.5907 10.3325 18.3439 10.3325 18.0395C10.3325 17.7351 10.0731 17.4883 9.75334 17.4883ZM11.5514 17.4883H12.4563C12.7761 17.4883 13.0354 17.7352 13.0354 18.0396C13.0354 18.344 12.7761 18.5908 12.4563 18.5908H11.5514C11.2317 18.5908 10.9722 18.344 10.9722 18.0396C10.9722 17.7352 11.2317 17.4883 11.5514 17.4883ZM15.1587 17.4883H14.2538C13.934 17.4883 13.6746 17.7352 13.6746 18.0396C13.6746 18.3101 13.8796 18.5352 14.1497 18.5819L14.2538 18.5908H15.1587C15.4784 18.5908 15.7379 18.344 15.7379 18.0396C15.7379 17.7691 15.5329 17.5439 15.2627 17.4972L15.1587 17.4883ZM8.84843 15.4785H9.75334C10.0731 15.4785 10.3325 15.7255 10.3325 16.0298C10.3325 16.3342 10.0731 16.581 9.75334 16.581H8.84843C8.52868 16.581 8.26928 16.3342 8.26928 16.0298C8.26928 15.7255 8.52869 15.4785 8.84843 15.4785ZM12.4563 15.4785H11.5514C11.2317 15.4785 10.9722 15.7255 10.9722 16.0298C10.9722 16.3004 11.1772 16.5255 11.4474 16.5722L11.5514 16.581H12.4563C12.7761 16.581 13.0354 16.3342 13.0354 16.0298C13.0354 15.7593 12.8305 15.5341 12.5604 15.4874L12.4563 15.4785ZM14.2538 15.4785H15.1587C15.4784 15.4785 15.7379 15.7255 15.7379 16.0298C15.7379 16.3342 15.4784 16.581 15.1587 16.581H14.2538C13.934 16.581 13.6746 16.3341 13.6746 16.0298C13.6746 15.7255 13.934 15.4785 14.2538 15.4785ZM12.4563 13.4629H11.5514C11.2317 13.4629 10.9722 13.7098 10.9722 14.0141C10.9722 14.3185 11.2317 14.5654 11.5514 14.5654H12.4563C12.7761 14.5654 13.0354 14.3185 13.0354 14.0141C13.0354 13.7098 12.7761 13.4629 12.4563 13.4629ZM8.84843 13.4629H9.75334L9.85741 13.4718C10.1275 13.5185 10.3325 13.7437 10.3325 14.0142C10.3325 14.3185 10.0731 14.5654 9.75334 14.5654H8.84843L8.74435 14.5565C8.47423 14.5098 8.26928 14.2847 8.26928 14.0142C8.26928 13.7098 8.52869 13.4629 8.84843 13.4629ZM15.1587 13.4629H14.2538C13.934 13.4629 13.6746 13.7098 13.6746 14.0141C13.6746 14.2846 13.8796 14.5098 14.1497 14.5565L14.2538 14.5654H15.1587C15.4784 14.5654 15.7379 14.3185 15.7379 14.0141C15.7379 13.7437 15.5329 13.5185 15.2627 13.4718L15.1587 13.4629ZM8.08378 7.24902H15.9163L15.988 7.25679C16.1258 7.2873 16.2274 7.40414 16.2274 7.54513V11.1208L16.2193 11.189C16.1872 11.3202 16.0644 11.4169 15.9163 11.4169H8.08378L8.01214 11.4091C7.87428 11.3786 7.7727 11.2618 7.7727 11.1208V7.54513L7.78086 7.47694C7.81291 7.34572 7.93564 7.24902 8.08378 7.24902ZM13.349 7.86133L13.9949 8.46053L11.536 10.7197L10.1412 9.43663L10.7871 8.83743L11.536 9.52127L13.349 7.86133ZM8.0838 5.92589H15.9164L15.988 5.93366C16.1259 5.96416 16.2275 6.08098 16.2275 6.22199C16.2275 6.38649 16.0892 6.5181 15.9164 6.5181H8.0838L8.01214 6.51033C7.87428 6.47983 7.7727 6.36299 7.7727 6.22199C7.7727 6.05749 7.91096 5.92589 8.0838 5.92589Z" fill="#525C69"/>
</svg>
