<svg width="24" height="24" viewBox="0 0 24 24" fill="none" xmlns="http://www.w3.org/2000/svg">
<path fill-rule="evenodd" clip-rule="evenodd" d="M17.1435 16.6483C17.1435 16.9281 16.925 17.1457 16.6441 17.1457H7.31093C7.02999 17.1457 6.81149 16.9281 6.81149 16.6483V7.35175C6.81149 7.07192 7.02999 6.85427 7.31093 6.85427H13.7411L15.5204 5.08203H6.71785C5.81263 5.08203 5.06348 5.82824 5.06348 6.72991V17.2701C5.06348 18.1718 5.81263 18.918 6.71785 18.918H17.2996C18.2048 18.918 18.954 18.1718 18.954 17.2701V13.197L17.1747 14.9693V16.6483H17.1435ZM19.5386 7.35151L18.727 6.54312C18.5085 6.32547 18.1652 6.32547 17.9779 6.54312L12.328 12.1397L9.79965 9.62122C9.58115 9.40358 9.23779 9.40358 9.0505 9.62122L8.23892 10.4296C8.02042 10.6473 8.02042 10.9893 8.23892 11.1758L11.9847 14.9069C12.1095 15.0312 12.2968 15.0934 12.4841 15.0623C12.5777 15.0312 12.6714 15.0001 12.765 14.9069L19.601 8.09772C19.7571 7.91116 19.7571 7.56915 19.5386 7.35151Z" fill="#525C69"/>
</svg>
