<svg width="24" height="24" viewBox="0 0 24 24" fill="none" xmlns="http://www.w3.org/2000/svg">
	<path fill-rule="evenodd" clip-rule="evenodd" d="M18.3853 16.221C20.6257 13.1126 20.1266 8.80961 17.222 6.20303C14.3343 3.61738 9.94851 3.61569 7.13987 6.19931C4.31528 8.80353 3.94754 13.1062 6.28326 16.216C8.59321 19.3143 12.9023 20.1883 16.1941 18.2265C16.2239 18.2484 16.2555 18.267 16.2894 18.2819L18.3374 18.8242C18.5142 18.8705 18.7008 18.8205 18.8266 18.6925C18.9532 18.5632 19 18.3771 18.9508 18.2021L18.3853 16.221ZM14.5116 13.1998C14.3883 13.063 14.1955 13.0074 14.0176 13.057C13.8366 13.1141 13.7014 13.2615 13.664 13.4437C13.6193 13.6302 13.6724 13.8275 13.806 13.9714L14.0672 14.2465H9.34468C9.10834 14.2597 8.92927 14.4551 8.94264 14.6855L8.94607 14.899C8.93958 15.1294 9.12514 15.3252 9.36224 15.3376H14.0882L13.8358 15.6134C13.7072 15.757 13.6602 15.9539 13.7106 16.1407C13.7537 16.323 13.8931 16.4703 14.0767 16.5275C14.2558 16.5774 14.4467 16.5214 14.5662 16.3846L15.6719 15.179C15.8663 14.9576 15.8609 14.6287 15.6597 14.4074L14.5116 13.1998ZM10.1484 10.5029C10.2854 10.5029 10.4156 10.445 10.5042 10.3443C10.6982 10.1233 10.6928 9.79441 10.492 9.57304L10.2312 9.29756H14.9576C15.1943 9.28516 15.3737 9.08972 15.3596 8.85896L15.3562 8.64624C15.363 8.41548 15.1771 8.21929 14.94 8.20764H10.214L10.4668 7.93178C10.66 7.71117 10.6543 7.38269 10.4527 7.16283C10.3614 7.06173 10.2301 7.00347 10.0926 7.0031C9.95518 7.00235 9.82537 7.05985 9.73602 7.16057L8.63032 8.36887C8.43598 8.58949 8.44133 8.91872 8.64254 9.13933L9.7868 10.3443C9.87882 10.445 10.0105 10.5029 10.1484 10.5029ZM9.45731 11.2594L9.45616 11.2602C9.21944 11.2722 9.04 11.468 9.05374 11.6988L9.05718 11.9152C9.05069 12.146 9.23662 12.3414 9.47334 12.3538H15.1863C15.423 12.3414 15.6024 12.146 15.5887 11.9152L15.5849 11.701C15.5925 11.4691 15.407 11.2722 15.1691 11.2594H9.45731Z" fill="#6A737F"/>
</svg>
