<svg width="18" height="14" viewBox="0 0 18 14" fill="none" xmlns="http://www.w3.org/2000/svg">
<path fill-rule="evenodd" clip-rule="evenodd" d="M17.8251 7.17872C17.1157 8.19247 13.4824 13.0595 9.1068 13.0595C4.73124 13.0595 1.09786 8.19247 0.388536 7.17872C0.309717 7.06607 0.309717 6.92412 0.388536 6.81148C1.09786 5.79773 4.73124 0.930664 9.1068 0.930664C13.4824 0.930664 17.1157 5.79773 17.8251 6.81147C17.9039 6.92412 17.9039 7.06607 17.8251 7.17872ZM12.2002 6.99507C12.2002 8.70356 10.8152 10.0886 9.10666 10.0886C7.39817 10.0886 6.01317 8.70356 6.01317 6.99507C6.01317 5.28659 7.39817 3.90158 9.10666 3.90158C10.8152 3.90158 12.2002 5.28659 12.2002 6.99507Z" fill="#BDC1C6"/>
</svg>
