<svg width="24" height="24" viewBox="0 0 24 24" fill="none" xmlns="http://www.w3.org/2000/svg">
	<path fill-rule="evenodd" clip-rule="evenodd" d="M14.9383 13.1734L13.542 11.777C14.9444 11.0279 16.7269 11.2446 17.9094 12.4271L19.4073 13.9251C20.8551 15.3729 20.8551 17.7202 19.4073 19.168C17.9596 20.6158 15.6122 20.6158 14.1644 19.168L12.6665 17.67C11.4745 16.4781 11.2639 14.6764 12.0346 13.2689L13.4213 14.6557C13.2937 15.2648 13.4663 15.9243 13.9393 16.3972L15.4372 17.8952C16.1821 18.64 17.3897 18.64 18.1345 17.8952C18.8794 17.1504 18.8794 15.9427 18.1345 15.1979L16.6366 13.6999C16.1748 13.2382 15.5353 13.0627 14.9383 13.1734ZM9.5006 10.735L10.8873 12.1217C9.47988 12.8924 7.67821 12.6818 6.48625 11.4898L4.98828 9.99183C3.54049 8.54404 3.54049 6.19671 4.98828 4.74893C6.43606 3.30114 8.78339 3.30114 10.2312 4.74893L11.7292 6.2469C12.9116 7.42937 13.1283 9.21191 12.3792 10.6143L10.9829 9.21794C11.0936 8.62101 10.9181 7.98143 10.4564 7.51969L8.95839 6.02172C8.21354 5.27687 7.00591 5.27687 6.26107 6.02172C5.51622 6.76656 5.51622 7.97419 6.26107 8.71904L7.75904 10.217C8.23197 10.6899 8.89146 10.8626 9.5006 10.735ZM6.33892 18.0761C6.02881 17.766 6.02881 17.2632 6.33892 16.9531L8.02346 15.2686C8.33358 14.9584 8.83637 14.9584 9.14649 15.2686C9.4566 15.5787 9.4566 16.0815 9.14649 16.3916L7.46195 18.0761C7.15183 18.3862 6.64904 18.3862 6.33892 18.0761ZM20.5916 9.8496C20.7051 10.2732 20.4537 10.7087 20.0301 10.8222L17.729 11.4388C17.3054 11.5523 16.8699 11.3009 16.7564 10.8772C16.6429 10.4536 16.8943 10.0182 17.3179 9.90467L19.6191 9.28809C20.0427 9.17458 20.4781 9.42598 20.5916 9.8496ZM9.95449 20.4867C9.53087 20.3732 9.27947 19.9378 9.39298 19.5142L10.0096 17.213C10.1231 16.7894 10.5585 16.538 10.9821 16.6515C11.4058 16.765 11.6572 17.2005 11.5436 17.6241L10.9271 19.9252C10.8136 20.3489 10.3781 20.6002 9.95449 20.4867ZM14.6957 3.95372C15.1194 4.06723 15.3708 4.50266 15.2573 4.92628L14.6407 7.22741C14.5272 7.65103 14.0917 7.90243 13.6681 7.78892C13.2445 7.67541 12.9931 7.23998 13.1066 6.81635L13.7232 4.51523C13.8367 4.0916 14.2721 3.8402 14.6957 3.95372ZM4.05861 14.5908C3.9451 14.1672 4.19649 13.7318 4.62012 13.6183L6.92124 13.0017C7.34487 12.8882 7.7803 13.1396 7.89381 13.5632C8.00732 13.9868 7.75593 14.4223 7.3323 14.5358L5.03118 15.1524C4.60755 15.2659 4.17212 15.0145 4.05861 14.5908ZM18.0763 6.33877C18.3864 6.64888 18.3864 7.15168 18.0763 7.46179L16.3917 9.14633C16.0816 9.45645 15.5788 9.45645 15.2687 9.14633C14.9586 8.83622 14.9586 8.33342 15.2687 8.02331L16.9533 6.33877C17.2634 6.02865 17.7662 6.02865 18.0763 6.33877Z" fill="#828B95"/>
</svg>
