<svg width="24" height="25" viewBox="0 0 24 25" fill="none" xmlns="http://www.w3.org/2000/svg">
<path fill-rule="evenodd" clip-rule="evenodd" d="M18.2416 8.71639C18.5779 8.92258 18.8132 9.26362 18.8614 9.6578L18.8705 9.80795L18.87 11.0594L13.9643 11.0603C13.4515 11.0603 13.0288 11.4463 12.9711 11.9436L12.9643 12.0603V14.7452C12.9643 15.258 13.3504 15.6807 13.8477 15.7384L13.9643 15.7452L18.87 15.7444L18.8705 17.2117C18.8705 17.8866 18.3238 18.443 17.6267 18.5061L17.4943 18.5121H6.73381C5.82656 18.5121 5.0822 17.8155 5.00636 16.9279L5 16.7782V8.71739L18.2416 8.71639ZM18.87 12.0164V14.7884L13.9363 14.7888V12.0166L18.87 12.0164ZM16.2698 12.4087C15.7911 12.4087 15.4029 12.7969 15.4029 13.2756C15.4029 13.7543 15.7911 14.1425 16.2698 14.1425C16.7485 14.1425 17.1367 13.7543 17.1367 13.2756C17.1367 12.7969 16.7485 12.4087 16.2698 12.4087ZM16.3788 4.5L17.252 7.762H6.72796L6.55896 7.13121L16.3788 4.5Z" fill="#525C69"/>
</svg>
