<svg width="25" height="25" viewBox="0 0 25 25" fill="none" xmlns="http://www.w3.org/2000/svg">
	<path fill-rule="evenodd" clip-rule="evenodd" d="M14.1635 18.7517C14.2065 18.5878 14.334 18.4606 14.4952 18.4083C14.7811 18.3157 15.0577 18.2028 15.3236 18.0714C15.4734 17.9973 15.6508 17.9984 15.7951 18.0826L16.7461 18.638C16.9069 18.7319 17.1086 18.7243 17.2564 18.6109C17.788 18.2029 18.2643 17.7266 18.6723 17.195C18.7857 17.0472 18.7933 16.8455 18.6994 16.6847L18.144 15.7337C18.0597 15.5893 18.0587 15.4119 18.1328 15.2621C18.2642 14.9963 18.377 14.7196 18.4697 14.4338C18.5219 14.2726 18.6491 14.1451 18.8131 14.1021L19.8571 13.8279C20.0386 13.7802 20.1764 13.6302 20.1998 13.444C20.2864 12.7547 20.2824 12.0803 20.1981 11.4311C20.1741 11.246 20.0367 11.0975 19.8562 11.0501L18.8002 10.7728C18.638 10.7302 18.5116 10.6048 18.4583 10.4458C18.365 10.1668 18.2526 9.89655 18.1227 9.63655C18.0477 9.48645 18.0484 9.3083 18.133 9.1634L18.6833 8.22105C18.7774 8.05992 18.7696 7.85782 18.6558 7.70995C18.2442 7.17512 17.7645 6.69542 17.2296 6.28385C17.0818 6.17005 16.8797 6.16222 16.7186 6.25631L15.7763 6.8066C15.6314 6.89121 15.4532 6.89192 15.3031 6.81692C15.0431 6.68699 14.7728 6.57458 14.4938 6.48123C14.3348 6.42802 14.2095 6.3016 14.1669 6.13942L13.8895 5.08355C13.8421 4.90304 13.6937 4.76566 13.5086 4.74165C12.8593 4.65739 12.1848 4.65344 11.4956 4.74007C11.3093 4.76348 11.1594 4.90123 11.1117 5.08279L10.8347 6.13748C10.7926 6.29793 10.6693 6.42325 10.5131 6.47919C10.2519 6.57273 9.99296 6.68936 9.73947 6.82593C9.58697 6.90808 9.40242 6.91033 9.25285 6.82298L8.35738 6.30004C8.19297 6.20403 7.98641 6.21446 7.83764 6.33328C7.30736 6.75681 6.81823 7.24596 6.3947 7.77626C6.27589 7.92502 6.26546 8.13158 6.36147 8.29598L6.88438 9.19139C6.97173 9.34097 6.96948 9.52553 6.88732 9.67803C6.75073 9.93154 6.63408 10.1905 6.54052 10.4517C6.48458 10.6079 6.35926 10.7312 6.19882 10.7733L5.14428 11.0503C4.96272 11.098 4.82497 11.2479 4.80156 11.4342C4.71495 12.1234 4.71893 12.7979 4.8032 13.4472C4.82722 13.6323 4.9646 13.7808 5.1451 13.8282L6.20071 14.1054C6.36289 14.148 6.48931 14.2733 6.54251 14.4324C6.63588 14.7114 6.74831 14.9817 6.87826 15.2418C6.95326 15.3919 6.95256 15.5701 6.86794 15.715L6.31782 16.657C6.22372 16.8181 6.23156 17.0202 6.34535 17.1681C6.75694 17.7029 7.23666 18.1827 7.77151 18.5943C7.91939 18.7081 8.12148 18.7159 8.28261 18.6218L9.22468 18.0717C9.36958 17.9871 9.54773 17.9864 9.69783 18.0614C9.95789 18.1913 10.2282 18.3037 10.5072 18.3971C10.6663 18.4503 10.7916 18.5767 10.8342 18.7389L11.1115 19.7947C11.1589 19.9752 11.3074 20.1126 11.4924 20.1366C12.1417 20.2209 12.8161 20.2248 13.5054 20.1383C13.6917 20.1149 13.8416 19.9771 13.8893 19.7955L14.1635 18.7517ZM13.2752 15.8892C10.724 16.4318 8.50765 14.2149 9.05035 11.6641C9.307 10.458 10.519 9.24585 11.7252 8.98915C14.276 8.44623 16.4932 10.6627 15.9505 13.2141C15.6658 14.5523 14.6134 15.6046 13.2752 15.8892Z" fill="#BDC1C6"/>
</svg>
