<svg width="31" height="31" viewBox="0 0 31 31" fill="none" xmlns="http://www.w3.org/2000/svg">
	<path fill-rule="evenodd" clip-rule="evenodd" d="M21.9373 18.8399C21.5984 18.6711 19.9325 17.8554 19.6218 17.7427C19.3113 17.6302 19.0854 17.574 18.8595 17.9115C18.6336 18.249 17.9842 19.0087 17.7865 19.2338C17.5889 19.4588 17.3912 19.4871 17.0523 19.3182C16.7135 19.1494 15.6216 18.7934 14.3274 17.6443C13.3201 16.7501 12.6399 15.6458 12.4423 15.3082C12.2447 14.9706 12.4212 14.7881 12.5909 14.62C12.7433 14.4689 12.9298 14.226 13.0992 14.0291C13.2686 13.8323 13.3251 13.6915 13.438 13.4666C13.551 13.2414 13.4945 13.0445 13.4097 12.8758C13.3251 12.707 12.6474 11.047 12.365 10.3717C12.09 9.7142 11.8106 9.80325 11.6026 9.79283C11.4052 9.78305 11.179 9.78098 10.9532 9.78098C10.7273 9.78098 10.3601 9.86537 10.0495 10.2029C9.73895 10.5405 8.86357 11.3565 8.86357 13.0163C8.86357 14.6763 10.0777 16.2798 10.2472 16.5049C10.4166 16.73 12.6366 20.1362 16.0359 21.5969C16.8443 21.9445 17.4755 22.1519 17.9676 22.3073C18.7793 22.564 19.518 22.5278 20.1019 22.4409C20.7529 22.3442 22.1067 21.6252 22.3891 20.8375C22.6714 20.0496 22.6714 19.3744 22.5867 19.2338C22.502 19.0931 22.2761 19.0087 21.9373 18.8399ZM15.7545 27.2415H15.7499C13.7273 27.2407 11.7435 26.6999 10.0129 25.6779L9.60129 25.4347L5.3352 26.5485L6.47387 22.4089L6.2059 21.9844C5.07757 20.1984 4.48161 18.1342 4.48252 16.0145C4.48499 9.82952 9.54153 4.79755 15.759 4.79755C18.7697 4.79859 21.5997 5.96695 23.728 8.08739C25.8561 10.2077 27.0274 13.0262 27.0262 16.0236C27.0237 22.2091 21.9672 27.2415 15.7545 27.2415ZM25.3476 6.47619C22.7872 3.92507 19.3822 2.51953 15.7544 2.51804C8.27944 2.51804 2.19576 8.57224 2.19277 16.0137C2.19179 18.3925 2.81623 20.7142 4.00302 22.7611L2.0791 29.7549L9.26823 27.8781C11.249 28.9533 13.4792 29.5201 15.749 29.5208H15.7545H15.7546C23.2287 29.5208 29.3129 23.466 29.3159 16.0245C29.3173 12.4182 27.908 9.02725 25.3476 6.47619Z" fill="#A8ADB4"/>
</svg>
