<svg width="68" height="19" viewBox="0 0 68 19" fill="none" xmlns="http://www.w3.org/2000/svg">
<path d="M9.67416 15.8221H12.138V7.42221H9.67416V15.8221Z" fill="white"/>
<path d="M9.41837 4.82947C9.41837 4.06595 10.0571 3.44434 10.915 3.44434C11.7545 3.44434 12.3932 4.03047 12.3932 4.82947C12.3932 5.61098 11.7545 6.2502 10.915 6.2502C10.0571 6.2502 9.41837 5.62872 9.41837 4.82947Z" fill="white"/>
<path fill-rule="evenodd" clip-rule="evenodd" d="M0 4.11913H3.77788C6.38764 4.11913 7.55577 5.59308 7.55577 7.0849C7.55577 8.0438 7.06298 8.98496 6.13217 9.44679V9.48227C7.57406 9.85516 8.37707 10.9917 8.37707 12.3057C8.37707 14.0818 6.95348 15.822 4.10641 15.822H0V4.11913ZM3.77745 13.8332C5.16446 13.8332 5.85797 13.3714 5.85797 12.3058C5.85797 11.4002 5.16446 10.8852 4.01476 10.8852H2.49995V13.8332H3.77745ZM3.44893 8.89603C4.544 8.89603 5.10971 8.29228 5.10971 7.52876C5.10971 6.72951 4.5623 6.10803 3.39418 6.10803H2.49995V8.89603H3.44893Z" fill="white"/>
<path d="M14.4908 9.287V13.6378C14.4908 15.1117 15.5129 15.9997 17.1555 15.9997C18.0132 15.9997 19.1448 15.7688 19.7835 15.3426L19.0717 13.7087C18.7432 13.9218 18.2687 14.0817 17.7941 14.0817C17.2284 14.0817 16.9729 13.8154 16.9729 13.034V9.287H19.017L19.5828 7.4223H16.9729V4.75847L14.4908 5.45103V7.4223H12.903V9.287H14.4908Z" fill="white"/>
<path d="M20.4592 7.42228H22.5399L22.8135 8.31023C23.5436 7.65314 24.2371 7.20917 25.1678 7.20917C25.5876 7.20917 26.0987 7.33346 26.4819 7.59992L25.6241 9.58892C25.1862 9.32247 24.7663 9.26925 24.5292 9.26925C23.9998 9.26925 23.58 9.44676 22.9231 9.96182V15.8221H20.4592V7.42228Z" fill="white"/>
<path d="M29.4215 15.8221H26.9576V7.42221H29.4215V15.8221Z" fill="white"/>
<path d="M28.1983 3.44434C27.3407 3.44434 26.7018 4.06595 26.7018 4.82948C26.7018 5.62872 27.3407 6.25021 28.1983 6.25021C29.0379 6.25021 29.6767 5.61098 29.6767 4.82948C29.6767 4.03048 29.0379 3.44434 28.1983 3.44434Z" fill="white"/>
<path d="M33.3087 11.5955L30.1513 7.42216H32.7066L34.641 9.97956L36.5756 7.42216H39.1307L35.9368 11.5955L39.1671 15.822H36.6121L34.6228 13.1938L32.6152 15.822H30.0602L33.3087 11.5955Z" fill="white"/>
<path d="M62.2677 6.86926H64.7018V5.89576H63.2413V4.19156H62.2677V6.86926Z" fill="white"/>
<path fill-rule="evenodd" clip-rule="evenodd" d="M62.7562 2C60.3363 2 58.3746 3.96121 58.3746 6.38057C58.3746 8.79993 60.3363 10.7613 62.7562 10.7613C65.176 10.7613 67.1377 8.79993 67.1377 6.38057C67.1377 3.96121 65.176 2 62.7562 2ZM62.7562 9.78775C60.8741 9.78775 59.3483 8.26226 59.3483 6.38057C59.3483 4.49887 60.8741 2.97351 62.7562 2.97351C64.6384 2.97351 66.1642 4.49887 66.1642 6.38057C66.1642 8.26226 64.6384 9.78775 62.7562 9.78775Z" fill="white"/>
<path d="M45.8851 7.56375C45.8851 6.57092 45.0637 6.22259 44.1898 6.22259C43.0189 6.22259 42.0576 6.60572 41.1662 7.00641L40.5543 5.17761C41.5506 4.72468 42.9315 4.21959 44.5744 4.21959C47.1436 4.21959 48.3845 5.50849 48.3845 7.31982C48.3845 9.11416 46.9846 10.1774 45.6364 11.2014C44.6028 11.9865 43.5994 12.7486 43.2809 13.7993H48.5419V15.8197H40.1699C40.4555 12.3943 42.4883 10.9205 44.049 9.78893C45.0675 9.0506 45.8851 8.45781 45.8851 7.56375Z" fill="white"/>
<path fill-rule="evenodd" clip-rule="evenodd" d="M48.1217 11.5702L53.8893 4.25489H55.6023V11.1696H57.3152V13.0854H55.6023V15.82H53.2777V13.0854H48.1217V11.5702ZM52.229 11.1696H53.2777V9.93294C53.2777 9.04473 53.3475 8.01699 53.3827 7.79063L50.7783 11.2219C50.9881 11.2044 51.827 11.1696 52.229 11.1696Z" fill="white"/>
</svg>
