<svg width="42" height="42" viewBox="0 0 42 42" fill="none" xmlns="http://www.w3.org/2000/svg">
<ellipse cx="9.87905" cy="28.255" rx="3.93837" ry="3.93837" fill="#2FC6F6"/>
<path fill-rule="evenodd" clip-rule="evenodd" d="M1.27271 20.8135C1.27271 19.1567 2.61585 17.8135 4.27271 17.8135H37.1712C38.4757 17.8135 39.6307 18.6565 40.0284 19.8989L41.2503 23.7157C41.87 25.6516 40.4257 27.6304 38.3931 27.6304H37.4127C37.1024 24.8793 34.7679 22.7413 31.9339 22.7413C29.1 22.7413 26.7654 24.8793 26.4552 27.6304H15.3577C15.0475 24.8793 12.713 22.7413 9.87902 22.7413C7.04508 22.7413 4.71051 24.8793 4.40029 27.6304H4.2727C2.61585 27.6304 1.27271 26.2872 1.27271 24.6304V20.8135Z" fill="#7FDEFC"/>
<ellipse cx="31.9337" cy="28.255" rx="3.93837" ry="3.93837" fill="#2FC6F6"/>
<path fill-rule="evenodd" clip-rule="evenodd" d="M26.3752 9.99149H7.90985H4.73525C2.91662 9.99149 6.06375 13.9025 6.06375 13.9025L4.21765 17.8135H18.9429V11.9236H25.8409C25.9941 11.9236 26.1366 12.002 26.2185 12.1315L29.8141 17.8135H32.6865L28.0364 10.8777C27.665 10.3239 27.0421 9.99149 26.3752 9.99149Z" fill="#2FC6F6"/>
</svg>
