<svg width="42" height="42" viewBox="0 0 42 42" fill="none" xmlns="http://www.w3.org/2000/svg">
<path fill-rule="evenodd" clip-rule="evenodd" d="M35.8201 13.4562L33.8896 11.5256L30.7556 15.5339C30.0753 16.404 28.8183 16.5579 27.9481 15.8776L25.1514 13.6909C24.2812 13.0105 24.1274 11.7536 24.8077 10.8834L28.5109 6.14702L27.1021 4.73813C24.8179 4.71495 22.5264 5.57478 20.7836 7.31762C18.2989 9.80227 17.6089 13.402 18.7136 16.5059L4.76736 30.4522C3.29311 31.9264 3.29311 34.3167 4.76736 35.7909C6.24162 37.2652 8.63185 37.2652 10.1061 35.7909L24.0524 21.8447C27.1563 22.9493 30.756 22.2593 33.2407 19.7747C34.9835 18.0319 35.8433 15.7404 35.8201 13.4562ZM8.32654 32.2317C8.81796 32.7231 8.81796 33.5199 8.32654 34.0113C7.83512 34.5027 7.03838 34.5027 6.54696 34.0113C6.05554 33.5199 6.05554 32.7231 6.54696 32.2317C7.03838 31.7403 7.83512 31.7403 8.32654 32.2317Z" fill="#2FC6F6"/>
<rect x="9.11621" y="28.6726" width="12.5835" height="3.77506" rx="1.88753" transform="rotate(-45 9.11621 28.6726)" fill="#7FDEFC"/>
<path fill-rule="evenodd" clip-rule="evenodd" d="M25.9873 30.8103C26.2616 29.0185 28.2475 28.1227 29.7722 29.1024C30.4932 29.5657 30.9832 30.6515 30.8537 31.4986C30.5796 33.2902 28.5939 34.1867 27.0687 33.2069C26.2688 32.6929 25.8434 31.7502 25.9873 30.8103ZM27.856 35.7962C28.2224 35.841 28.5883 35.8435 28.9466 35.8028C28.9617 35.8011 28.9763 35.8083 28.984 35.8214L29.6086 36.8858C29.7428 37.1163 30.0243 37.2146 30.2739 37.1195L30.9646 36.8556C31.2143 36.7598 31.3582 36.4986 31.3047 36.2377L31.0573 35.0153C31.5183 34.7003 31.9234 34.3 32.2517 33.8274C32.2604 33.8149 32.2757 33.8087 32.2906 33.8116L33.5001 34.0525C33.7613 34.1049 34.0221 33.9604 34.1166 33.7107L34.3783 33.0185C34.4725 32.7693 34.3728 32.4876 34.142 32.355L33.0756 31.7342C33.0625 31.7265 33.0552 31.7118 33.0569 31.6966C33.1108 31.2341 33.0937 30.774 33.0127 30.3279C33.0099 30.3129 33.0163 30.2977 33.029 30.2892L34.0336 29.6173C34.2547 29.4696 34.3372 29.183 34.2277 28.9397L33.9233 28.2657C33.8133 28.0226 33.5438 27.8949 33.2865 27.9633L32.1157 28.273C32.1009 28.2769 32.0853 28.2716 32.0759 28.2596C31.7969 27.9069 31.465 27.5923 31.0863 27.3283C31.0738 27.3195 31.0676 27.3043 31.0706 27.2894L31.3122 26.0726C31.3645 25.8118 31.22 25.5506 30.9703 25.4561L30.2786 25.1946C30.0289 25.1002 29.7478 25.2005 29.6144 25.4306L28.9906 26.5029C28.9829 26.5161 28.9682 26.5234 28.953 26.5216C28.5787 26.4785 28.2054 26.4774 27.8401 26.5234C27.8248 26.5254 27.8099 26.5181 27.8022 26.5049L27.1817 25.4461C27.0474 25.2162 26.766 25.1173 26.5165 25.2125L25.826 25.476C25.5759 25.5717 25.4327 25.8333 25.4858 26.0941L25.7314 27.3094C25.7344 27.3243 25.7283 27.3395 25.7159 27.3483C25.2742 27.6604 24.8868 28.0543 24.5708 28.5141L23.3361 28.2693C23.0752 28.216 22.8141 28.3612 22.7199 28.6105L22.4581 29.3026C22.3637 29.5524 22.4637 29.8333 22.6942 29.9668L23.7606 30.5868C23.7738 30.5945 23.7811 30.6093 23.7793 30.6244C23.7261 31.081 23.7421 31.5347 23.8206 31.976C23.8233 31.991 23.8169 32.0061 23.8043 32.0146L22.7564 32.7148C22.5348 32.862 22.4524 33.1489 22.5625 33.3922L22.8668 34.0664C22.9763 34.309 23.2452 34.4379 23.5033 34.3684L24.719 34.0475C24.7337 34.0436 24.7493 34.0489 24.7588 34.0608C25.0387 34.4147 25.3711 34.7304 25.7519 34.9946C25.7644 35.0033 25.7706 35.0186 25.7677 35.0335L25.5287 36.2366C25.4762 36.4982 25.6209 36.7586 25.8707 36.8531L26.5623 37.1146C26.8122 37.2086 27.093 37.1091 27.2267 36.8782L27.856 35.7962Z" fill="#7FDEFC"/>
</svg>
