<svg width="42" height="42" viewBox="0 0 42 42" fill="none" xmlns="http://www.w3.org/2000/svg">
<path fill-rule="evenodd" clip-rule="evenodd" d="M30.284 32.9822C29.515 29.8593 27.5308 27.9258 25.0389 26.7893C26.7478 26.0547 28.7405 25.7919 30.647 25.7919C34.8582 25.7919 39.4894 27.0741 40.5558 31.8901C40.6837 32.4678 40.2153 32.9822 39.6236 32.9822H30.284ZM30.6354 23.9444C24.9755 23.9444 23.6456 15.1308 27.6529 12.0164C28.3183 11.4993 29.5973 11.0121 30.6355 11.0121C38.0172 11.0121 37.4305 23.9444 30.6354 23.9444Z" fill="#7FDEFC"/>
<path d="M15.7304 23.6108C7.76111 23.6108 5.88854 11.8566 11.5309 7.70307C12.4678 7.01337 14.2687 6.36365 15.7304 6.36365C26.1241 6.36365 25.2981 23.6108 15.7304 23.6108Z" fill="#2FC6F6"/>
<path d="M2.86084 34.4539C2.58497 35.5752 3.52254 36.5609 4.67728 36.5609H26.8163C27.9711 36.5609 28.9086 35.5752 28.6328 34.4539C27.1549 28.4472 21.1827 26.8398 15.7468 26.8398C10.3109 26.8398 4.33867 28.4472 2.86084 34.4539Z" fill="#2FC6F6"/>
</svg>
