<svg width="42" height="42" viewBox="0 0 42 42" fill="none" xmlns="http://www.w3.org/2000/svg">
<path d="M17.394 11.6242C17.394 10.8276 18.0398 10.1818 18.8364 10.1818H23.1637C23.9603 10.1818 24.6061 10.8276 24.6061 11.6242V30.3758C24.6061 31.1724 23.9603 31.8182 23.1637 31.8182H18.8364C18.0398 31.8182 17.394 31.1724 17.394 30.3758V11.6242Z" fill="#2FC6F6"/>
<path d="M30.3758 17.3939C31.1725 17.3939 31.8182 18.0397 31.8182 18.8364V23.1636C31.8182 23.9603 31.1725 24.6061 30.3758 24.6061L11.6243 24.6061C10.8277 24.6061 10.1819 23.9603 10.1819 23.1636L10.1819 18.8364C10.1819 18.0397 10.8277 17.3939 11.6243 17.3939L30.3758 17.3939Z" fill="#2FC6F6"/>
<path fill-rule="evenodd" clip-rule="evenodd" d="M20.9999 36.2575C29.4264 36.2575 36.2574 29.4265 36.2574 21C36.2574 12.5735 29.4264 5.74254 20.9999 5.74254C12.5735 5.74254 5.74248 12.5735 5.74248 21C5.74248 29.4265 12.5735 36.2575 20.9999 36.2575ZM20.9999 38.1818C30.4892 38.1818 38.1818 30.4893 38.1818 21C38.1818 11.5107 30.4892 3.81818 20.9999 3.81818C11.5107 3.81818 3.81812 11.5107 3.81812 21C3.81812 30.4893 11.5107 38.1818 20.9999 38.1818Z" fill="#7FDEFC"/>
</svg>
