<svg width="42" height="42" viewBox="0 0 42 42" fill="none" xmlns="http://www.w3.org/2000/svg">
<rect opacity="0.12" x="2" y="1.5" width="38" height="38" rx="10" fill="#2FC6F6"/>
<path fill-rule="evenodd" clip-rule="evenodd" d="M13.2677 25.9979L21.1494 30.5475C21.4055 30.6954 21.7209 30.6954 21.977 30.5475L29.8587 25.9979C30.1148 25.8501 30.2726 25.5768 30.2726 25.2811V16.1801C30.2726 15.8845 30.1149 15.6112 29.8588 15.4634L21.9771 10.912C21.721 10.7641 21.4054 10.7641 21.1493 10.912L13.2676 15.4634C13.0115 15.6112 12.8538 15.8845 12.8538 16.1801V25.2811C12.8538 25.5768 13.0115 25.8501 13.2677 25.9979ZM27.9967 24.4443L22.7015 27.5009V21.3863L27.9967 18.3286V24.4443ZM20.4253 21.3875V27.5019L15.1301 24.4453V18.3309L20.4253 21.3875ZM16.2683 16.3596L21.5635 13.3019L26.8575 16.359L21.5634 19.4161L16.2683 16.3596Z" fill="#2FC6F6"/>
<rect x="7" y="6" width="28" height="28" rx="3" fill="white" fill-opacity="0.01"/>
</svg>
