<svg width="42" height="42" viewBox="0 0 42 42" fill="none" xmlns="http://www.w3.org/2000/svg">
<path d="M7 10.9815C7 9.90552 7.68852 8.9502 8.70931 8.60988L27.4264 2.36981C29.0453 1.83011 30.7171 3.03504 30.7171 4.74148V39.4545H7L7 10.9815Z" fill="#2FC6F6"/>
<rect opacity="0.8" x="19.0242" y="9.03293" width="7.43064" height="3.15813" rx="0.446809" fill="white"/>
<rect opacity="0.8" x="11.2759" y="15.3627" width="15.1788" height="3.24253" rx="0.446809" fill="white"/>
<rect opacity="0.8" x="11.2759" y="21.7769" width="15.1788" height="3.24253" rx="0.446809" fill="white"/>
<path d="M16.1677 24.4174C16.1677 23.4715 16.8304 22.655 17.756 22.4603L32.5931 19.3392C33.8361 19.0777 35.0048 20.0261 35.0048 21.2964V39.4545H16.1677V24.4174Z" fill="#7FDEFC"/>
<rect x="20.6106" y="25.2636" width="4.03652" height="4.03652" rx="0.446809" fill="white"/>
<rect x="27.3379" y="25.2636" width="4.03652" height="4.03652" rx="0.446809" fill="white"/>
<rect x="20.6106" y="31.9908" width="4.03652" height="4.03652" rx="0.446809" fill="white"/>
<rect x="11.3826" y="3.99799" width="4.492" height="7.35461" rx="0.5" fill="#2FC6F6"/>
</svg>
