<svg width="38" height="38" viewBox="0 0 38 38" fill="none" xmlns="http://www.w3.org/2000/svg">
<path fill-rule="evenodd" clip-rule="evenodd" d="M14.5969 8.63364C13.4924 8.63364 12.5969 9.52907 12.5969 10.6336V12.3813H7.84578C7.04792 12.3813 6.40112 13.0281 6.40112 13.826V17.7818L16.2529 19.3808V18.4858C16.2529 18.0869 16.5763 17.7635 16.9752 17.7635H21.0246C21.4235 17.7635 21.7469 18.0869 21.7469 18.4858V19.3809L31.5989 17.7819V13.826C31.5989 13.0281 30.9521 12.3813 30.1542 12.3813H25.4034V10.6336C25.4034 9.52907 24.508 8.63364 23.4034 8.63364H14.5969ZM16.2529 20.9556V22.5351C16.2529 22.9341 16.5763 23.2575 16.9752 23.2575H21.0246C21.4235 23.2575 21.7469 22.9341 21.7469 22.5351V20.9557L31.5989 19.3566V28.6751C31.5989 29.473 30.9521 30.1198 30.1542 30.1198H7.84578C7.04792 30.1198 6.40112 29.473 6.40112 28.6751V19.3566L16.2529 20.9556ZM15.1558 12.3813H22.8449V11.2664C22.8449 10.8674 22.5215 10.544 22.1225 10.544H15.8782C15.4792 10.544 15.1558 10.8674 15.1558 11.2664V12.3813Z" fill="#05A9DD"/>
</svg>
