<svg width="109" height="108" viewBox="0 0 109 108" fill="none" xmlns="http://www.w3.org/2000/svg">
	<path d="M32.625 20.6133C32.625 17.2996 35.3113 14.6133 38.625 14.6133H72.625C75.9387 14.6133 78.625 17.2996 78.625 20.6133V85.6133C78.625 88.927 75.9387 91.6133 72.625 91.6133H38.625C35.3113 91.6133 32.625 88.927 32.625 85.6133V20.6133Z" fill="white"/>
	<path fill-rule="evenodd" clip-rule="evenodd" d="M72.625 15.6133H38.625C35.8636 15.6133 33.625 17.8519 33.625 20.6133V85.6133C33.625 88.3747 35.8636 90.6133 38.625 90.6133H72.625C75.3864 90.6133 77.625 88.3747 77.625 85.6133V20.6133C77.625 17.8519 75.3864 15.6133 72.625 15.6133ZM38.625 14.6133C35.3113 14.6133 32.625 17.2996 32.625 20.6133V85.6133C32.625 88.927 35.3113 91.6133 38.625 91.6133H72.625C75.9387 91.6133 78.625 88.927 78.625 85.6133V20.6133C78.625 17.2996 75.9387 14.6133 72.625 14.6133H38.625Z" fill="#D0D0D0"/>
	<path fill-rule="evenodd" clip-rule="evenodd" d="M48.125 86.6133C48.125 86.3371 48.3489 86.1133 48.625 86.1133H63.125C63.4011 86.1133 63.625 86.3371 63.625 86.6133C63.625 86.8894 63.4011 87.1133 63.125 87.1133H48.625C48.3489 87.1133 48.125 86.8894 48.125 86.6133Z" fill="#D0D0D0"/>
	<path d="M49.625 21.1133C49.625 20.2849 50.2966 19.6133 51.125 19.6133H61.125C61.9534 19.6133 62.625 20.2849 62.625 21.1133C62.625 21.9417 61.9534 22.6133 61.125 22.6133H51.125C50.2966 22.6133 49.625 21.9417 49.625 21.1133Z" fill="#D0D0D0"/>
	<path opacity="0.3" fill-rule="evenodd" clip-rule="evenodd" d="M51.125 29.6133C51.125 29.3371 51.3489 29.1133 51.625 29.1133H67.625C67.9011 29.1133 68.125 29.3371 68.125 29.6133C68.125 29.8894 67.9011 30.1133 67.625 30.1133H51.625C51.3489 30.1133 51.125 29.8894 51.125 29.6133Z" fill="#D0D0D0"/>
	<path opacity="0.3" fill-rule="evenodd" clip-rule="evenodd" d="M51.125 32.6133C51.125 32.3371 51.3489 32.1133 51.625 32.1133H64.625C64.9011 32.1133 65.125 32.3371 65.125 32.6133C65.125 32.8894 64.9011 33.1133 64.625 33.1133H51.625C51.3489 33.1133 51.125 32.8894 51.125 32.6133Z" fill="#D0D0D0"/>
	<path opacity="0.3" fill-rule="evenodd" clip-rule="evenodd" d="M51.125 42.6133C51.125 42.3371 51.3489 42.1133 51.625 42.1133H65.625C65.9011 42.1133 66.125 42.3371 66.125 42.6133C66.125 42.8894 65.9011 43.1133 65.625 43.1133H51.625C51.3489 43.1133 51.125 42.8894 51.125 42.6133Z" fill="#D0D0D0"/>
	<path opacity="0.3" fill-rule="evenodd" clip-rule="evenodd" d="M51.125 45.6133C51.125 45.3371 51.3489 45.1133 51.625 45.1133H61.625C61.9011 45.1133 62.125 45.3371 62.125 45.6133C62.125 45.8894 61.9011 46.1133 61.625 46.1133H51.625C51.3489 46.1133 51.125 45.8894 51.125 45.6133Z" fill="#D0D0D0"/>
	<path opacity="0.3" fill-rule="evenodd" clip-rule="evenodd" d="M51.125 56.6133C51.125 56.3371 51.3489 56.1133 51.625 56.1133H65.625C65.9011 56.1133 66.125 56.3371 66.125 56.6133C66.125 56.8894 65.9011 57.1133 65.625 57.1133H51.625C51.3489 57.1133 51.125 56.8894 51.125 56.6133Z" fill="#D0D0D0"/>
	<path opacity="0.3" fill-rule="evenodd" clip-rule="evenodd" d="M51.125 69.6133C51.125 69.3371 51.3489 69.1133 51.625 69.1133H62.625C62.9011 69.1133 63.125 69.3371 63.125 69.6133C63.125 69.8894 62.9011 70.1133 62.625 70.1133H51.625C51.3489 70.1133 51.125 69.8894 51.125 69.6133Z" fill="#D0D0D0"/>
	<path opacity="0.3" fill-rule="evenodd" clip-rule="evenodd" d="M45.625 27.6133H40.625C40.0727 27.6133 39.625 28.061 39.625 28.6133V33.6133C39.625 34.1656 40.0727 34.6133 40.625 34.6133H45.625C46.1773 34.6133 46.625 34.1656 46.625 33.6133V28.6133C46.625 28.061 46.1773 27.6133 45.625 27.6133ZM40.625 26.6133C39.5204 26.6133 38.625 27.5087 38.625 28.6133V33.6133C38.625 34.7179 39.5204 35.6133 40.625 35.6133H45.625C46.7296 35.6133 47.625 34.7179 47.625 33.6133V28.6133C47.625 27.5087 46.7296 26.6133 45.625 26.6133H40.625Z" fill="#D0D0D0"/>
	<path opacity="0.3" fill-rule="evenodd" clip-rule="evenodd" d="M45.625 40.6133H40.625C40.0727 40.6133 39.625 41.061 39.625 41.6133V46.6133C39.625 47.1656 40.0727 47.6133 40.625 47.6133H45.625C46.1773 47.6133 46.625 47.1656 46.625 46.6133V41.6133C46.625 41.061 46.1773 40.6133 45.625 40.6133ZM40.625 39.6133C39.5204 39.6133 38.625 40.5087 38.625 41.6133V46.6133C38.625 47.7179 39.5204 48.6133 40.625 48.6133H45.625C46.7296 48.6133 47.625 47.7179 47.625 46.6133V41.6133C47.625 40.5087 46.7296 39.6133 45.625 39.6133H40.625Z" fill="#D0D0D0"/>
	<path opacity="0.3" fill-rule="evenodd" clip-rule="evenodd" d="M45.625 53.6133H40.625C40.0727 53.6133 39.625 54.061 39.625 54.6133V59.6133C39.625 60.1656 40.0727 60.6133 40.625 60.6133H45.625C46.1773 60.6133 46.625 60.1656 46.625 59.6133V54.6133C46.625 54.061 46.1773 53.6133 45.625 53.6133ZM40.625 52.6133C39.5204 52.6133 38.625 53.5087 38.625 54.6133V59.6133C38.625 60.7179 39.5204 61.6133 40.625 61.6133H45.625C46.7296 61.6133 47.625 60.7179 47.625 59.6133V54.6133C47.625 53.5087 46.7296 52.6133 45.625 52.6133H40.625Z" fill="#D0D0D0"/>
	<path opacity="0.3" fill-rule="evenodd" clip-rule="evenodd" d="M45.625 66.6133H40.625C40.0727 66.6133 39.625 67.061 39.625 67.6133V72.6133C39.625 73.1656 40.0727 73.6133 40.625 73.6133H45.625C46.1773 73.6133 46.625 73.1656 46.625 72.6133V67.6133C46.625 67.061 46.1773 66.6133 45.625 66.6133ZM40.625 65.6133C39.5204 65.6133 38.625 66.5087 38.625 67.6133V72.6133C38.625 73.7179 39.5204 74.6133 40.625 74.6133H45.625C46.7296 74.6133 47.625 73.7179 47.625 72.6133V67.6133C47.625 66.5087 46.7296 65.6133 45.625 65.6133H40.625Z" fill="#D0D0D0"/>
	<path fill-rule="evenodd" clip-rule="evenodd" d="M21.5324 66.0086C21.9438 66.3771 22.0929 66.8818 21.8653 67.1359L8.6794 81.8592C8.45183 82.1133 7.93383 82.0206 7.52242 81.6522C7.111 81.2837 6.96197 80.779 7.18955 80.5249L20.3754 65.8016C20.603 65.5475 21.121 65.6402 21.5324 66.0086Z" fill="#D0D0D0"/>
	<g opacity="0.5" filter="url(#filter0_d_10890_66320)">
		<path d="M19.261 38.566C26.6569 30.3078 39.3469 29.6088 47.605 37.0046C55.8632 44.4004 56.5622 57.0904 49.1664 65.3486C41.7706 73.6067 29.0806 74.3058 20.8224 66.91C12.5643 59.5142 11.8652 46.8241 19.261 38.566Z" fill="white"/>
	</g>
	<g filter="url(#filter1_d_10890_66320)">
		<path fill-rule="evenodd" clip-rule="evenodd" d="M20.155 39.3665C13.2013 47.131 13.8586 59.0624 21.623 66.0161C29.3875 72.9697 41.3189 72.3125 48.2725 64.548C55.2262 56.7836 54.5689 44.8522 46.8045 37.8985C39.04 30.9448 27.1086 31.6021 20.155 39.3665ZM47.605 37.0046C39.3469 29.6088 26.6569 30.3078 19.261 38.566C11.8652 46.8241 12.5643 59.5142 20.8224 66.91C29.0806 74.3058 41.7706 73.6067 49.1664 65.3486C56.5622 57.0904 55.8632 44.4004 47.605 37.0046Z" fill="#D0D0D0"/>
	</g>
	<g filter="url(#filter2_d_10890_66320)">
		<path d="M65.6842 28.984C64.6419 25.8385 66.3468 22.4436 69.4923 21.4012L89.4263 14.7955C92.5718 13.7532 95.9667 15.4581 97.0091 18.6036L103.615 38.5376C104.657 41.6831 102.952 45.0781 99.8067 46.1204L79.8727 52.7261C76.7272 53.7685 73.3323 52.0635 72.2899 48.918L65.6842 28.984Z" fill="white"/>
	</g>
	<path fill-rule="evenodd" clip-rule="evenodd" d="M89.8038 15.9346L69.8698 22.5403C67.3534 23.3742 65.9894 26.0901 66.8233 28.6065L73.429 48.5405C74.2629 51.0569 76.9788 52.4209 79.4952 51.587L99.4292 44.9813C101.946 44.1474 103.31 41.4315 102.476 38.9151L95.87 18.9811C95.0361 16.4647 92.3202 15.1007 89.8038 15.9346ZM69.4923 21.4012C66.3468 22.4436 64.6419 25.8385 65.6842 28.984L72.2899 48.918C73.3323 52.0635 76.7272 53.7685 79.8727 52.7261L99.8067 46.1204C102.952 45.0781 104.657 41.6831 103.615 38.5376L97.0091 18.6036C95.9667 15.4581 92.5718 13.7532 89.4263 14.7955L69.4923 21.4012Z" fill="#D0D0D0"/>
	<path d="M96.5326 41.4799C96.7947 41.3931 96.9374 41.108 96.8394 40.8499C94.7147 35.2515 89.6258 35.3409 85.473 36.717C81.3202 38.0932 77.185 41.0604 78.8239 46.8198" fill="#F0F0F0"/>
	<path fill-rule="evenodd" clip-rule="evenodd" d="M79.5143 39.7428C80.9646 37.9851 83.158 36.8522 85.2848 36.1474C87.4116 35.4427 89.8474 35.0415 92.0604 35.5853C94.3165 36.1396 96.2713 37.6607 97.4009 40.6369C97.6251 41.2277 97.2942 41.8597 96.7218 42.0494L79.6355 47.7114C79.0631 47.9011 78.4203 47.5918 78.2473 46.984C77.3761 43.9222 78.0357 41.5348 79.5143 39.7428ZM79.3682 46.5359L96.2342 40.9468C95.2347 38.404 93.6042 37.2003 91.774 36.7506C89.8732 36.2835 87.6882 36.6151 85.6622 37.2865C83.6362 37.9579 81.6856 38.9967 80.4399 40.5065C79.2405 41.9601 78.6515 43.8993 79.3682 46.5359Z" fill="#D0D0D0"/>
	<path d="M84.8278 34.8076C79.2599 36.6527 75.3791 29.3232 78.4122 25.2737C78.9159 24.6013 80.0319 23.7552 81.0532 23.4168C88.315 21.0104 91.5126 32.5925 84.8278 34.8076Z" fill="#F0F0F0"/>
	<path fill-rule="evenodd" clip-rule="evenodd" d="M81.4307 24.5559C80.6416 24.8173 79.7291 25.5172 79.3727 25.9931C78.2243 27.5262 78.3167 29.8208 79.4188 31.6258C80.4912 33.3822 82.3236 34.3733 84.4504 33.6686C86.9581 32.8376 87.7788 30.2207 87.0222 27.7276C86.6529 26.5109 85.9314 25.4795 84.9977 24.8793C84.0984 24.3012 82.9161 24.0636 81.4307 24.5559ZM78.4122 25.2737C75.3791 29.3232 79.2599 36.6527 84.8278 34.8076C91.5126 32.5925 88.315 21.0104 81.0532 23.4168C80.0319 23.7552 78.9159 24.6013 78.4122 25.2737Z" fill="#D0D0D0"/>
	<defs>
		<filter id="filter0_d_10890_66320" x="10.1406" y="29.8843" width="48.1445" height="48.146" filterUnits="userSpaceOnUse" color-interpolation-filters="sRGB">
			<feFlood flood-opacity="0" result="BackgroundImageFix"/>
			<feColorMatrix in="SourceAlpha" type="matrix" values="0 0 0 0 0 0 0 0 0 0 0 0 0 0 0 0 0 0 127 0" result="hardAlpha"/>
			<feOffset dy="2"/>
			<feGaussianBlur stdDeviation="2"/>
			<feComposite in2="hardAlpha" operator="out"/>
			<feColorMatrix type="matrix" values="0 0 0 0 0 0 0 0 0 0 0 0 0 0 0 0 0 0 0.08 0"/>
			<feBlend mode="normal" in2="BackgroundImageFix" result="effect1_dropShadow_10890_66320"/>
			<feBlend mode="normal" in="SourceGraphic" in2="effect1_dropShadow_10890_66320" result="shape"/>
		</filter>
		<filter id="filter1_d_10890_66320" x="10.1406" y="29.8843" width="48.1445" height="48.146" filterUnits="userSpaceOnUse" color-interpolation-filters="sRGB">
			<feFlood flood-opacity="0" result="BackgroundImageFix"/>
			<feColorMatrix in="SourceAlpha" type="matrix" values="0 0 0 0 0 0 0 0 0 0 0 0 0 0 0 0 0 0 127 0" result="hardAlpha"/>
			<feOffset dy="2"/>
			<feGaussianBlur stdDeviation="2"/>
			<feComposite in2="hardAlpha" operator="out"/>
			<feColorMatrix type="matrix" values="0 0 0 0 0 0 0 0 0 0 0 0 0 0 0 0 0 0 0.08 0"/>
			<feBlend mode="normal" in2="BackgroundImageFix" result="effect1_dropShadow_10890_66320"/>
			<feBlend mode="normal" in="SourceGraphic" in2="effect1_dropShadow_10890_66320" result="shape"/>
		</filter>
		<filter id="filter2_d_10890_66320" x="61.3789" y="12.4893" width="46.543" height="46.543" filterUnits="userSpaceOnUse" color-interpolation-filters="sRGB">
			<feFlood flood-opacity="0" result="BackgroundImageFix"/>
			<feColorMatrix in="SourceAlpha" type="matrix" values="0 0 0 0 0 0 0 0 0 0 0 0 0 0 0 0 0 0 127 0" result="hardAlpha"/>
			<feOffset dy="2"/>
			<feGaussianBlur stdDeviation="2"/>
			<feComposite in2="hardAlpha" operator="out"/>
			<feColorMatrix type="matrix" values="0 0 0 0 0 0 0 0 0 0 0 0 0 0 0 0 0 0 0.08 0"/>
			<feBlend mode="normal" in2="BackgroundImageFix" result="effect1_dropShadow_10890_66320"/>
			<feBlend mode="normal" in="SourceGraphic" in2="effect1_dropShadow_10890_66320" result="shape"/>
		</filter>
	</defs>
</svg>
