<svg width="128" height="106" viewBox="0 0 128 106" fill="none" xmlns="http://www.w3.org/2000/svg">
	<path d="M1 18.2992C1 8.9713 8.94707 1.62108 18.2466 2.34786L63.2467 5.8647C71.5743 6.51552 78 13.463 78 21.8161V69.4114C78 77.8858 71.3925 84.8903 62.9325 85.3842L17.9325 88.0114C8.745 88.5478 1 81.2418 1 72.0386V18.2992Z" fill="#0075FF" fill-opacity="0.78"/>
	<path d="M1.5 18.2992C1.5 9.2628 9.19872 2.14227 18.2077 2.84634L63.2077 6.36318C71.2751 6.99367 77.5 13.724 77.5 21.8161V69.4114C77.5 77.6209 71.0989 84.4066 62.9034 84.8851L17.9034 87.5123C9.00297 88.0319 1.5 80.9542 1.5 72.0386V18.2992Z" stroke="white" stroke-opacity="0.18"/>
	<path d="M69 54.1409C69 47.4587 74.4583 42.0637 81.14 42.1417L115.14 42.5384C121.712 42.6151 127 47.9648 127 54.5376V89.8327C127 96.0453 122.258 101.231 116.07 101.785L82.0703 104.83C75.0485 105.458 69 99.9273 69 92.8774V54.1409Z" fill="#DFE0E3" fill-opacity="0.68"/>
	<path d="M69.5 54.1409C69.5 47.7371 74.7309 42.5669 81.1342 42.6416L115.134 43.0384C121.433 43.1119 126.5 48.2387 126.5 54.5376V89.8327C126.5 95.7865 121.956 100.756 116.026 101.287L82.0257 104.332C75.2965 104.934 69.5 99.6336 69.5 92.8774V54.1409Z" stroke="white" stroke-opacity="0.4"/>
	<g filter="url(#filter0_d_1971_43923)">
		<path fill-rule="evenodd" clip-rule="evenodd" d="M47.0818 57.8444C44.2484 59.9867 40.8208 61.2726 37.0975 61.3349C26.695 61.5093 18 52.1183 18 40.3515C18 28.5847 26.6981 19.4927 37.0975 20.022C47.1572 20.5358 55.0692 29.9143 55.0692 40.9836C55.0692 45.0408 54.0189 48.8115 52.2044 51.975L61.217 62.2721C62.261 63.4678 62.261 65.4357 61.217 66.6781L60.0818 68.0263C59.0283 69.278 57.3145 69.331 56.2516 68.1384L47.0818 57.8444ZM50.0409 40.9026C50.0409 48.8769 44.3145 55.3846 37.0943 55.4344C29.8742 55.4842 23.5723 48.7772 23.5723 40.448C23.5723 32.1188 29.6981 25.6205 37.0943 25.9256C44.4906 26.2308 50.0409 32.9253 50.0409 40.8995V40.9026Z" fill="white" fill-opacity="0.9" shape-rendering="crispEdges"/>
	</g>
	<g filter="url(#filter1_d_1971_43923)">
		<path d="M86.0396 61.5311L113.292 61.0005C114.791 60.9716 116 62.3139 116 64.0004C116 65.6869 114.791 67.0897 113.292 67.137L86.0396 67.9986C84.3645 68.0511 83 66.6378 83 64.8436C83 63.0495 84.3645 61.5652 86.0396 61.5337V61.5311Z" fill="white" fill-opacity="0.9" shape-rendering="crispEdges"/>
	</g>
	<g filter="url(#filter2_d_1971_43923)">
		<path d="M86.0808 79.8029L103.143 79.0032C104.726 78.9277 106 80.2028 106 81.8501C106 83.4975 104.723 84.9059 103.143 84.9989L86.0808 85.9948C84.383 86.0929 83 84.7801 83 83.0624C83 81.3446 84.383 79.8859 86.0808 79.8055V79.8029Z" fill="white" fill-opacity="0.9" shape-rendering="crispEdges"/>
	</g>
	<defs>
		<filter id="filter0_d_1971_43923" x="8" y="14" width="64" height="69" filterUnits="userSpaceOnUse" color-interpolation-filters="sRGB">
			<feFlood flood-opacity="0" result="BackgroundImageFix"/>
			<feColorMatrix in="SourceAlpha" type="matrix" values="0 0 0 0 0 0 0 0 0 0 0 0 0 0 0 0 0 0 127 0" result="hardAlpha"/>
			<feOffset dy="4"/>
			<feGaussianBlur stdDeviation="5"/>
			<feComposite in2="hardAlpha" operator="out"/>
			<feColorMatrix type="matrix" values="0 0 0 0 0 0 0 0 0 0 0 0 0 0 0 0 0 0 0.05 0"/>
			<feBlend mode="normal" in2="BackgroundImageFix" result="effect1_dropShadow_1971_43923"/>
			<feBlend mode="normal" in="SourceGraphic" in2="effect1_dropShadow_1971_43923" result="shape"/>
		</filter>
		<filter id="filter1_d_1971_43923" x="73" y="55" width="53" height="27" filterUnits="userSpaceOnUse" color-interpolation-filters="sRGB">
			<feFlood flood-opacity="0" result="BackgroundImageFix"/>
			<feColorMatrix in="SourceAlpha" type="matrix" values="0 0 0 0 0 0 0 0 0 0 0 0 0 0 0 0 0 0 127 0" result="hardAlpha"/>
			<feOffset dy="4"/>
			<feGaussianBlur stdDeviation="5"/>
			<feComposite in2="hardAlpha" operator="out"/>
			<feColorMatrix type="matrix" values="0 0 0 0 0 0 0 0 0 0 0 0 0 0 0 0 0 0 0.05 0"/>
			<feBlend mode="normal" in2="BackgroundImageFix" result="effect1_dropShadow_1971_43923"/>
			<feBlend mode="normal" in="SourceGraphic" in2="effect1_dropShadow_1971_43923" result="shape"/>
		</filter>
		<filter id="filter2_d_1971_43923" x="73" y="73" width="43" height="27" filterUnits="userSpaceOnUse" color-interpolation-filters="sRGB">
			<feFlood flood-opacity="0" result="BackgroundImageFix"/>
			<feColorMatrix in="SourceAlpha" type="matrix" values="0 0 0 0 0 0 0 0 0 0 0 0 0 0 0 0 0 0 127 0" result="hardAlpha"/>
			<feOffset dy="4"/>
			<feGaussianBlur stdDeviation="5"/>
			<feComposite in2="hardAlpha" operator="out"/>
			<feColorMatrix type="matrix" values="0 0 0 0 0 0 0 0 0 0 0 0 0 0 0 0 0 0 0.05 0"/>
			<feBlend mode="normal" in2="BackgroundImageFix" result="effect1_dropShadow_1971_43923"/>
			<feBlend mode="normal" in="SourceGraphic" in2="effect1_dropShadow_1971_43923" result="shape"/>
		</filter>
	</defs>
</svg>
