<svg width="218" height="178" viewBox="0 0 218 178" fill="none" xmlns="http://www.w3.org/2000/svg">
	<path fill-rule="evenodd" clip-rule="evenodd" d="M156.909 5.08173C158.238 5.08173 159.315 4.0047 159.315 2.67612C159.315 1.34754 158.238 0.270508 156.909 0.270508C155.58 0.270508 154.503 1.34754 154.503 2.67612C154.503 4.0047 155.58 5.08173 156.909 5.08173ZM38.2039 25.8624C41.0841 25.8624 43.4189 23.5275 43.4189 20.6474C43.4189 17.7672 41.0841 15.4324 38.2039 15.4324C35.3237 15.4324 32.9889 17.7672 32.9889 20.6474C32.9889 23.5275 35.3237 25.8624 38.2039 25.8624ZM38.2039 22.9547C39.4782 22.9547 40.5112 21.9217 40.5112 20.6474C40.5112 19.3731 39.4782 18.34 38.2039 18.34C36.9296 18.34 35.8965 19.3731 35.8965 20.6474C35.8965 21.9217 36.9296 22.9547 38.2039 22.9547ZM11.7102 76.7733C15.5894 76.7733 18.7341 73.6286 18.7341 69.7494C18.7341 65.8702 15.5894 62.7255 11.7102 62.7255C7.83099 62.7255 4.68628 65.8702 4.68628 69.7494C4.68628 73.6286 7.83099 76.7733 11.7102 76.7733ZM11.7102 73.1075C13.5648 73.1075 15.0683 71.604 15.0683 69.7494C15.0683 67.8947 13.5648 66.3912 11.7102 66.3912C9.85555 66.3912 8.35206 67.8947 8.35206 69.7494C8.35206 71.604 9.85555 73.1075 11.7102 73.1075ZM190.039 165.155C192.801 165.155 195.04 162.916 195.04 160.154C195.04 157.393 192.801 155.154 190.039 155.154C187.278 155.154 185.039 157.393 185.039 160.154C185.039 162.916 187.278 165.155 190.039 165.155ZM190.039 162.553C191.364 162.553 192.438 161.479 192.438 160.154C192.438 158.83 191.364 157.756 190.039 157.756C188.715 157.756 187.641 158.83 187.641 160.154C187.641 161.479 188.715 162.553 190.039 162.553ZM110 178C157.496 178 196 139.496 196 91.9998C196 44.5033 157.496 5.99976 110 5.99976C62.5035 5.99976 24 44.5033 24 91.9998C24 139.496 62.5035 178 110 178ZM23.9588 171.988H7.24022C7.09716 171.988 6.95534 171.983 6.81493 171.972C3.03648 171.884 0.000190901 168.709 0 164.805C0.00109851 162.902 0.737676 161.077 2.04769 159.733C2.71919 159.043 3.51317 158.509 4.37699 158.152C4.36254 157.958 4.35518 157.763 4.35518 157.565C4.35637 155.558 5.13359 153.633 6.51587 152.214C7.89815 150.795 9.77226 149.999 11.7259 150C14.2285 150.003 16.438 151.289 17.7658 153.252C18.3964 153.022 19.0752 152.898 19.7823 152.898C22.9062 152.902 25.472 155.349 25.7694 158.479C28.7627 159.149 31.0026 161.89 31 165.166C30.9969 168.942 28.0168 172.001 24.3426 172C24.2138 172 24.0858 171.996 23.9588 171.988ZM201.138 38.992H213.003C213.093 38.9971 213.184 38.9997 213.275 38.9998C215.883 39.0008 217.998 36.9152 218 34.3407C218.002 32.1067 216.412 30.2382 214.288 29.7809C214.077 27.6471 212.256 25.9785 210.039 25.9758C209.537 25.9756 209.055 26.0606 208.608 26.2172C207.666 24.8788 206.098 24.0019 204.322 23.9998C202.935 23.9989 201.605 24.5419 200.624 25.5093C199.643 26.4767 199.092 27.7892 199.091 29.1581C199.091 29.2928 199.096 29.4262 199.106 29.5582C198.493 29.8015 197.93 30.1658 197.453 30.6358C196.524 31.5526 196.001 32.7966 196 34.0939C196 36.7558 198.155 38.9208 200.836 38.981C200.936 38.9883 201.037 38.992 201.138 38.992Z" fill="#E5F9FF"/>
	<path opacity="0.5" d="M72.7422 74.6387C72.7422 71.325 75.4285 68.6387 78.7422 68.6387H172.275C175.589 68.6387 178.275 71.325 178.275 74.6387V139.361C178.275 142.675 175.589 145.361 172.275 145.361H78.7422C75.4285 145.361 72.7422 142.675 72.7422 139.361V74.6387Z" fill="white"/>
	<path opacity="0.3" fill-rule="evenodd" clip-rule="evenodd" d="M77.5712 145.247L77.7653 144.266C78.0804 144.328 78.407 144.361 78.7422 144.361H79.7588V145.361H78.7422C78.3415 145.361 77.9499 145.322 77.5712 145.247ZM171.258 145.361V144.361H172.275C172.61 144.361 172.937 144.328 173.252 144.266L173.446 145.247C173.067 145.322 172.676 145.361 172.275 145.361H171.258ZM175.609 144.35L175.052 143.519C175.598 143.154 176.068 142.684 176.433 142.138L177.264 142.695C176.826 143.349 176.263 143.912 175.609 144.35ZM178.275 75.65H177.275V74.6387C177.275 74.3035 177.242 73.9769 177.18 73.6618L178.161 73.4677C178.236 73.8464 178.275 74.238 178.275 74.6387V75.65ZM177.264 71.305L176.433 71.8613C176.068 71.3156 175.598 70.8456 175.052 70.4802L175.609 69.6493C176.263 70.0873 176.826 70.6507 177.264 71.305ZM79.7588 68.6387H78.7422C78.3415 68.6387 77.9499 68.678 77.5712 68.7529L77.7653 69.7339C78.0804 69.6715 78.407 69.6387 78.7422 69.6387H79.7588V68.6387ZM75.4085 69.6493L75.9648 70.4803C75.4191 70.8456 74.9491 71.3156 74.5838 71.8613L73.7528 71.305C74.1908 70.6507 74.7542 70.0873 75.4085 69.6493ZM72.7422 138.35H73.7422V139.361C73.7422 139.696 73.775 140.023 73.8374 140.338L72.8564 140.532C72.7815 140.153 72.7422 139.762 72.7422 139.361V138.35ZM73.7528 142.695L74.5838 142.138C74.9491 142.684 75.4191 143.154 75.9648 143.519L75.4085 144.35C74.7542 143.912 74.1908 143.349 73.7528 142.695ZM72.7422 136.327H73.7422V134.305H72.7422V136.327ZM72.7422 132.282H73.7422V130.259H72.7422V132.282ZM72.7422 128.237H73.7422V126.214H72.7422V128.237ZM72.7422 124.192H73.7422V122.169H72.7422V124.192ZM72.7422 120.147H73.7422V118.124H72.7422V120.147ZM72.7422 116.101H73.7422V114.079H72.7422V116.101ZM72.7422 112.056H73.7422V110.034H72.7422V112.056ZM72.7422 108.011H73.7422V105.989H72.7422V108.011ZM72.7422 103.966H73.7422V101.943H72.7422V103.966ZM72.7422 99.9208H73.7422V97.8982H72.7422V99.9208ZM72.7422 95.8757H73.7422V93.8531H72.7422V95.8757ZM72.7422 91.8305H73.7422V89.808H72.7422V91.8305ZM72.7422 87.7854H73.7422V85.7628H72.7422V87.7854ZM72.7422 83.7402H73.7422V81.7177H72.7422V83.7402ZM72.7422 79.6951H73.7422V77.6725H72.7422V79.6951ZM72.7422 75.65H73.7422V74.6387C73.7422 74.3035 73.775 73.9769 73.8374 73.6618L72.8564 73.4677C72.7815 73.8464 72.7422 74.238 72.7422 74.6387V75.65ZM81.7922 68.6387V69.6387H83.8255V68.6387H81.7922ZM85.8588 68.6387V69.6387H87.8921V68.6387H85.8588ZM89.9255 68.6387V69.6387H91.9588V68.6387H89.9255ZM93.9921 68.6387V69.6387H96.0254V68.6387H93.9921ZM98.0588 68.6387V69.6387H100.092V68.6387H98.0588ZM102.125 68.6387V69.6387H104.159V68.6387H102.125ZM106.192 68.6387V69.6387H108.225V68.6387H106.192ZM110.259 68.6387V69.6387H112.292V68.6387H110.259ZM114.325 68.6387V69.6387H116.359V68.6387H114.325ZM118.392 68.6387V69.6387H120.425V68.6387H118.392ZM122.459 68.6387V69.6387H124.492V68.6387H122.459ZM126.525 68.6387V69.6387H128.559V68.6387H126.525ZM130.592 68.6387V69.6387H132.625V68.6387H130.592ZM134.659 68.6387V69.6387H136.692V68.6387H134.659ZM138.725 68.6387V69.6387H140.758V68.6387H138.725ZM142.792 68.6387V69.6387H144.825V68.6387H142.792ZM146.858 68.6387V69.6387H148.892V68.6387H146.858ZM150.925 68.6387V69.6387H152.958V68.6387H150.925ZM154.992 68.6387V69.6387H157.025V68.6387H154.992ZM159.058 68.6387V69.6387H161.092V68.6387H159.058ZM163.125 68.6387V69.6387H165.158V68.6387H163.125ZM167.192 68.6387V69.6387H169.225V68.6387H167.192ZM171.258 68.6387V69.6387H172.275C172.61 69.6387 172.937 69.6715 173.252 69.7339L173.446 68.7529C173.067 68.678 172.676 68.6387 172.275 68.6387H171.258ZM178.275 77.6725H177.275V79.6951H178.275V77.6725ZM178.275 81.7177H177.275V83.7402H178.275V81.7177ZM178.275 85.7628H177.275V87.7854H178.275V85.7628ZM178.275 89.808H177.275V91.8305H178.275V89.808ZM178.275 93.8531H177.275V95.8757H178.275V93.8531ZM178.275 97.8982H177.275V99.9208H178.275V97.8982ZM178.275 101.943H177.275V103.966H178.275V101.943ZM178.275 105.989H177.275V108.011H178.275V105.989ZM178.275 110.034H177.275V112.056H178.275V110.034ZM178.275 114.079H177.275V116.101H178.275V114.079ZM178.275 118.124H177.275V120.147H178.275V118.124ZM178.275 122.169H177.275V124.192H178.275V122.169ZM178.275 126.214H177.275V128.237H178.275V126.214ZM178.275 130.259H177.275V132.282H178.275V130.259ZM178.275 134.305H177.275V136.327H178.275V134.305ZM178.275 138.35H177.275V139.361C177.275 139.696 177.242 140.023 177.18 140.338L178.161 140.532C178.236 140.153 178.275 139.762 178.275 139.361V138.35ZM169.225 145.361V144.361H167.192V145.361H169.225ZM165.158 145.361V144.361H163.125V145.361H165.158ZM161.092 145.361V144.361H159.058V145.361H161.092ZM157.025 145.361V144.361H154.992V145.361H157.025ZM152.958 145.361V144.361H150.925V145.361H152.958ZM148.892 145.361V144.361H146.858V145.361H148.892ZM144.825 145.361V144.361H142.792V145.361H144.825ZM140.759 145.361V144.361H138.725V145.361H140.759ZM136.692 145.361V144.361H134.659V145.361H136.692ZM132.625 145.361V144.361H130.592V145.361H132.625ZM128.559 145.361V144.361H126.525V145.361H128.559ZM124.492 145.361V144.361H122.459V145.361H124.492ZM120.425 145.361V144.361H118.392V145.361H120.425ZM116.359 145.361V144.361H114.325V145.361H116.359ZM112.292 145.361V144.361H110.259V145.361H112.292ZM108.225 145.361V144.361H106.192V145.361H108.225ZM104.159 145.361V144.361H102.125V145.361H104.159ZM100.092 145.361V144.361H98.0588V145.361H100.092ZM96.0254 145.361V144.361H93.9921V145.361H96.0254ZM91.9588 145.361V144.361H89.9255V145.361H91.9588ZM87.8921 145.361V144.361H85.8588V145.361H87.8921ZM83.8255 145.361V144.361H81.7922V145.361H83.8255Z" fill="#BDC1C6"/>
	<rect opacity="0.4" x="83.7334" y="77.3477" width="70.7642" height="4.35472" rx="2.17736" fill="#2FC6F6"/>
	<rect opacity="0.4" x="83.7334" y="87.1465" width="57.9537" height="4.35472" rx="2.17736" fill="#2FC6F6"/>
	<rect opacity="0.4" x="83.7334" y="110.553" width="28.532" height="6.50304" rx="3.25152" fill="#2FC6F6"/>
	<g filter="url(#filter0_di_13713_69088)">
		<path d="M48.626 60C48.626 56.6863 51.3123 54 54.626 54H155.849C159.162 54 161.849 56.6863 161.849 60V124.722C161.849 128.036 159.162 130.722 155.849 130.722H54.626C51.3123 130.722 48.626 128.036 48.626 124.722V60Z" fill="white"/>
	</g>
	<path opacity="0.6" fill-rule="evenodd" clip-rule="evenodd" d="M53.455 130.608L53.6665 129.539C53.976 129.6 54.2967 129.632 54.626 129.632H55.6383V130.722H54.626C54.2253 130.722 53.8337 130.683 53.455 130.608ZM154.836 130.722V129.632H155.849C156.178 129.632 156.499 129.6 156.808 129.539L157.02 130.608C156.641 130.683 156.249 130.722 155.849 130.722H154.836ZM159.182 129.712L158.576 128.806C159.112 128.447 159.574 127.986 159.932 127.45L160.838 128.056C160.4 128.71 159.837 129.274 159.182 129.712ZM161.849 61.0113H160.759V60C160.759 59.6707 160.726 59.35 160.665 59.0406L161.734 58.829C161.809 59.2078 161.849 59.5993 161.849 60V61.0113ZM160.838 56.6663L159.932 57.2727C159.574 56.7368 159.112 56.2751 158.576 55.9164L159.182 55.0106C159.837 55.4487 160.4 56.012 160.838 56.6663ZM55.6382 54H54.626C54.2253 54 53.8337 54.0393 53.455 54.1142L53.6665 55.1835C53.976 55.1223 54.2967 55.09 54.626 55.09H55.6382V54ZM51.2923 55.0106L51.8987 55.9164C51.3628 56.2752 50.9011 56.7368 50.5423 57.2727L49.6366 56.6663C50.0746 56.012 50.638 55.4487 51.2923 55.0106ZM48.626 123.711H49.716V124.722C49.716 125.052 49.7482 125.372 49.8095 125.682L48.7402 125.893C48.6653 125.515 48.626 125.123 48.626 124.722V123.711ZM49.6366 128.056L50.5423 127.45C50.9011 127.986 51.3628 128.447 51.8987 128.806L51.2923 129.712C50.638 129.274 50.0746 128.71 49.6366 128.056ZM48.626 121.688H49.716V119.666H48.626V121.688ZM48.626 117.643H49.716V115.621H48.626V117.643ZM48.626 113.598H49.716V111.576H48.626V113.598ZM48.626 109.553H49.716V107.53H48.626V109.553ZM48.626 105.508H49.716V103.485H48.626V105.508ZM48.626 101.463H49.716V99.4401H48.626V101.463ZM48.626 97.4176H49.716V95.395H48.626V97.4176ZM48.626 93.3724H49.716V91.3499H48.626V93.3724ZM48.626 89.3273H49.716V87.3047H48.626V89.3273ZM48.626 85.2821H49.716V83.2596H48.626V85.2821ZM48.626 81.237H49.716V79.2144H48.626V81.237ZM48.626 77.1919H49.716V75.1693H48.626V77.1919ZM48.626 73.1467H49.716V71.1241H48.626V73.1467ZM48.626 69.1016H49.716V67.079H48.626V69.1016ZM48.626 65.0564H49.716V63.0339H48.626V65.0564ZM48.626 61.0113H49.716V60C49.716 59.6707 49.7482 59.35 49.8095 59.0406L48.7402 58.829C48.6653 59.2078 48.626 59.5993 48.626 60V61.0113ZM57.6627 54V55.09H59.6871V54H57.6627ZM61.7116 54V55.09H63.736V54H61.7116ZM65.7605 54V55.09H67.7849V54H65.7605ZM69.8094 54V55.09H71.8338V54H69.8094ZM73.8583 54V55.09H75.8827V54H73.8583ZM77.9072 54V55.09H79.9317V54H77.9072ZM81.9561 54V55.09H83.9806V54H81.9561ZM86.005 54V55.09H88.0295V54H86.005ZM90.0539 54V55.09H92.0784V54H90.0539ZM94.1028 54V55.09H96.1273V54H94.1028ZM98.1517 54V55.09H100.176V54H98.1517ZM102.201 54V55.09H104.225V54H102.201ZM106.25 54V55.09H108.274V54H106.25ZM110.298 54V55.09H112.323V54H110.298ZM114.347 54V55.09H116.372V54H114.347ZM118.396 54V55.09H120.421V54H118.396ZM122.445 54V55.09H124.47V54H122.445ZM126.494 54V55.09H128.519V54H126.494ZM130.543 54V55.09H132.567V54H130.543ZM134.592 54V55.09H136.616V54H134.592ZM138.641 54V55.09H140.665V54H138.641ZM142.69 54V55.09H144.714V54H142.69ZM146.739 54V55.09H148.763V54H146.739ZM150.787 54V55.09H152.812V54H150.787ZM154.836 54V55.09H155.849C156.178 55.09 156.499 55.1223 156.808 55.1835L157.02 54.1142C156.641 54.0393 156.249 54 155.849 54H154.836ZM161.849 63.0339H160.759V65.0564H161.849V63.0339ZM161.849 67.079H160.759V69.1016H161.849V67.079ZM161.849 71.1241H160.759V73.1467H161.849V71.1241ZM161.849 75.1693H160.759V77.1919H161.849V75.1693ZM161.849 79.2144H160.759V81.237H161.849V79.2144ZM161.849 83.2596H160.759V85.2821H161.849V83.2596ZM161.849 87.3047H160.759V89.3273H161.849V87.3047ZM161.849 91.3499H160.759V93.3724H161.849V91.3499ZM161.849 95.395H160.759V97.4176H161.849V95.395ZM161.849 99.4401H160.759V101.463H161.849V99.4401ZM161.849 103.485H160.759V105.508H161.849V103.485ZM161.849 107.53H160.759V109.553H161.849V107.53ZM161.849 111.576H160.759V113.598H161.849V111.576ZM161.849 115.621H160.759V117.643H161.849V115.621ZM161.849 119.666H160.759V121.688H161.849V119.666ZM161.849 123.711H160.759V124.722C160.759 125.052 160.726 125.372 160.665 125.682L161.734 125.893C161.809 125.515 161.849 125.123 161.849 124.722V123.711ZM152.812 130.722V129.632H150.788V130.722H152.812ZM148.763 130.722V129.632H146.739V130.722H148.763ZM144.714 130.722V129.632H142.69V130.722H144.714ZM140.665 130.722V129.632H138.641V130.722H140.665ZM136.616 130.722V129.632H134.592V130.722H136.616ZM132.567 130.722V129.632H130.543V130.722H132.567ZM128.519 130.722V129.632H126.494V130.722H128.519ZM124.47 130.722V129.632H122.445V130.722H124.47ZM120.421 130.722V129.632H118.396V130.722H120.421ZM116.372 130.722V129.632H114.347V130.722H116.372ZM112.323 130.722V129.632H110.298V130.722H112.323ZM108.274 130.722V129.632H106.25V130.722H108.274ZM104.225 130.722V129.632H102.201V130.722H104.225ZM100.176 130.722V129.632H98.1518V130.722H100.176ZM96.1273 130.722V129.632H94.1029V130.722H96.1273ZM92.0784 130.722V129.632H90.054V130.722H92.0784ZM88.0295 130.722V129.632H86.0051V130.722H88.0295ZM83.9806 130.722V129.632H81.9562V130.722H83.9806ZM79.9317 130.722V129.632H77.9072V130.722H79.9317ZM75.8828 130.722V129.632H73.8583V130.722H75.8828ZM71.8339 130.722V129.632H69.8094V130.722H71.8339ZM67.785 130.722V129.632H65.7605V130.722H67.785ZM63.7361 130.722V129.632H61.7116V130.722H63.7361ZM59.6872 130.722V129.632H57.6627V130.722H59.6872Z" fill="#2FC6F6"/>
	<g opacity="0.6">
		<path fill-rule="evenodd" clip-rule="evenodd" d="M81.7959 110.939C81.6006 111.134 81.6006 111.451 81.7959 111.646L85.2101 115.06L86.1861 116L85.2101 116.941L81.7959 120.355C81.6006 120.55 81.6006 120.867 81.7959 121.062L82.4183 121.684C82.6136 121.88 82.9302 121.88 83.1254 121.684L88.4559 116.354C88.6512 116.159 88.6512 115.842 88.4559 115.647L83.1254 110.316C82.9302 110.121 82.6136 110.121 82.4183 110.316L81.7959 110.939Z" fill="#2FC6F6"/>
	</g>
	<path opacity="0.4" d="M59.7334 65.3483C59.7334 64.1457 60.7082 63.1709 61.9108 63.1709H122.32C123.523 63.1709 124.498 64.1457 124.498 65.3483C124.498 66.5508 123.523 67.5256 122.32 67.5256H61.9108C60.7082 67.5256 59.7334 66.5508 59.7334 65.3483Z" fill="#2FC6F6"/>
	<path opacity="0.4" d="M59.7334 75.1461C59.7334 73.9436 60.7082 72.9688 61.9108 72.9688H109.51C110.712 72.9688 111.687 73.9436 111.687 75.1461C111.687 76.3486 110.712 77.3235 109.51 77.3235H61.9108C60.7082 77.3235 59.7334 76.3486 59.7334 75.1461Z" fill="#2FC6F6"/>
	<path opacity="0.35" d="M75.626 116C75.626 120.418 72.0443 124 67.626 124C63.2077 124 59.626 120.418 59.626 116C59.626 111.582 63.2077 108 67.626 108C72.0443 108 75.626 111.582 75.626 116Z" fill="#2FC6F6"/>
	<path opacity="0.35" d="M110.626 116C110.626 120.418 107.044 124 102.626 124C98.2077 124 94.626 120.418 94.626 116C94.626 111.582 98.2077 108 102.626 108C107.044 108 110.626 111.582 110.626 116Z" fill="#2FC6F6"/>
	<path opacity="0.4" d="M59.7334 93.3238C59.7334 91.528 61.1892 90.0723 62.9849 90.0723H85.0139C86.8096 90.0723 88.2654 91.528 88.2654 93.3238C88.2654 95.1195 86.8096 96.5753 85.0139 96.5753H62.9849C61.1892 96.5753 59.7334 95.1195 59.7334 93.3238Z" fill="#2FC6F6"/>
	<g opacity="0.9" filter="url(#filter1_d_13713_69088)">
		<path d="M40 34.3086C40 33.204 40.8954 32.3086 42 32.3086H104.638C105.461 32.3086 106.2 32.813 106.501 33.5796L108.665 39.1092C108.861 39.6109 108.847 40.1705 108.625 40.6615L106.535 45.2907C106.211 46.0071 105.498 46.4675 104.712 46.4675H42C40.8954 46.4675 40 45.5721 40 44.4675V34.3086Z" fill="#2FC6F6"/>
	</g>
	<g opacity="0.6" filter="url(#filter2_d_13713_69088)">
		<path d="M113.972 34.3086C113.972 33.204 114.867 32.3086 115.972 32.3086H141.972C143.076 32.3086 143.972 33.204 143.972 34.3086V44.4675C143.972 45.5721 143.076 46.4675 141.972 46.4675H115.972C114.867 46.4675 113.972 45.5721 113.972 44.4675V34.3086Z" fill="#2FC6F6"/>
	</g>
	<path fill-rule="evenodd" clip-rule="evenodd" d="M161.36 111.567C169.273 100.467 168.25 84.9559 158.291 74.9969C147.191 63.8977 129.196 63.8977 118.097 74.9969C106.998 86.0961 106.998 104.091 118.097 115.191C128.056 125.15 143.567 126.173 154.667 118.26L171.375 134.968C172.156 135.749 173.422 135.749 174.203 134.968L178.068 131.103C178.849 130.322 178.849 129.056 178.068 128.275L161.36 111.567ZM154.074 79.2133C162.845 87.9838 162.845 102.204 154.074 110.974C145.304 119.745 131.084 119.745 122.313 110.974C113.543 102.204 113.543 87.9838 122.313 79.2133C131.084 70.4428 145.304 70.4428 154.074 79.2133Z" fill="#2FC6F6"/>
	<defs>
		<filter id="filter0_di_13713_69088" x="37.086" y="44.73" width="136.303" height="99.8027" filterUnits="userSpaceOnUse" color-interpolation-filters="sRGB">
			<feFlood flood-opacity="0" result="BackgroundImageFix"/>
			<feColorMatrix in="SourceAlpha" type="matrix" values="0 0 0 0 0 0 0 0 0 0 0 0 0 0 0 0 0 0 127 0" result="hardAlpha"/>
			<feOffset dy="2.27"/>
			<feGaussianBlur stdDeviation="5.77"/>
			<feComposite in2="hardAlpha" operator="out"/>
			<feColorMatrix type="matrix" values="0 0 0 0 0.392157 0 0 0 0 0.427451 0 0 0 0 0.482353 0 0 0 0.16 0"/>
			<feBlend mode="normal" in2="BackgroundImageFix" result="effect1_dropShadow_13713_69088"/>
			<feBlend mode="normal" in="SourceGraphic" in2="effect1_dropShadow_13713_69088" result="shape"/>
			<feColorMatrix in="SourceAlpha" type="matrix" values="0 0 0 0 0 0 0 0 0 0 0 0 0 0 0 0 0 0 127 0" result="hardAlpha"/>
			<feOffset dx="3"/>
			<feComposite in2="hardAlpha" operator="arithmetic" k2="-1" k3="1"/>
			<feColorMatrix type="matrix" values="0 0 0 0 0.592157 0 0 0 0 0.886275 0 0 0 0 0.980392 0 0 0 0.25 0"/>
			<feBlend mode="normal" in2="shape" result="effect2_innerShadow_13713_69088"/>
		</filter>
		<filter id="filter1_d_13713_69088" x="37" y="30.3086" width="74.8027" height="20.1592" filterUnits="userSpaceOnUse" color-interpolation-filters="sRGB">
			<feFlood flood-opacity="0" result="BackgroundImageFix"/>
			<feColorMatrix in="SourceAlpha" type="matrix" values="0 0 0 0 0 0 0 0 0 0 0 0 0 0 0 0 0 0 127 0" result="hardAlpha"/>
			<feOffset dy="1"/>
			<feGaussianBlur stdDeviation="1.5"/>
			<feComposite in2="hardAlpha" operator="out"/>
			<feColorMatrix type="matrix" values="0 0 0 0 0 0 0 0 0 0.294033 0 0 0 0 0.3875 0 0 0 0.09 0"/>
			<feBlend mode="normal" in2="BackgroundImageFix" result="effect1_dropShadow_13713_69088"/>
			<feBlend mode="normal" in="SourceGraphic" in2="effect1_dropShadow_13713_69088" result="shape"/>
		</filter>
		<filter id="filter2_d_13713_69088" x="110.972" y="30.3086" width="36" height="20.1592" filterUnits="userSpaceOnUse" color-interpolation-filters="sRGB">
			<feFlood flood-opacity="0" result="BackgroundImageFix"/>
			<feColorMatrix in="SourceAlpha" type="matrix" values="0 0 0 0 0 0 0 0 0 0 0 0 0 0 0 0 0 0 127 0" result="hardAlpha"/>
			<feOffset dy="1"/>
			<feGaussianBlur stdDeviation="1.5"/>
			<feComposite in2="hardAlpha" operator="out"/>
			<feColorMatrix type="matrix" values="0 0 0 0 0 0 0 0 0 0.294033 0 0 0 0 0.3875 0 0 0 0.09 0"/>
			<feBlend mode="normal" in2="BackgroundImageFix" result="effect1_dropShadow_13713_69088"/>
			<feBlend mode="normal" in="SourceGraphic" in2="effect1_dropShadow_13713_69088" result="shape"/>
		</filter>
	</defs>
</svg>
