<svg width="218" height="178" viewBox="0 0 218 178" fill="none" xmlns="http://www.w3.org/2000/svg">
	<path fill-rule="evenodd" clip-rule="evenodd" d="M156.909 5.08173C158.238 5.08173 159.315 4.0047 159.315 2.67612C159.315 1.34754 158.238 0.270508 156.909 0.270508C155.58 0.270508 154.503 1.34754 154.503 2.67612C154.503 4.0047 155.58 5.08173 156.909 5.08173ZM38.2039 25.8624C41.0841 25.8624 43.4189 23.5275 43.4189 20.6474C43.4189 17.7672 41.0841 15.4324 38.2039 15.4324C35.3237 15.4324 32.9889 17.7672 32.9889 20.6474C32.9889 23.5275 35.3237 25.8624 38.2039 25.8624ZM38.2039 22.9547C39.4782 22.9547 40.5112 21.9217 40.5112 20.6474C40.5112 19.3731 39.4782 18.34 38.2039 18.34C36.9296 18.34 35.8965 19.3731 35.8965 20.6474C35.8965 21.9217 36.9296 22.9547 38.2039 22.9547ZM11.7102 76.7733C15.5894 76.7733 18.7341 73.6286 18.7341 69.7494C18.7341 65.8702 15.5894 62.7255 11.7102 62.7255C7.83099 62.7255 4.68628 65.8702 4.68628 69.7494C4.68628 73.6286 7.83099 76.7733 11.7102 76.7733ZM11.7102 73.1075C13.5648 73.1075 15.0683 71.604 15.0683 69.7494C15.0683 67.8947 13.5648 66.3912 11.7102 66.3912C9.85555 66.3912 8.35206 67.8947 8.35206 69.7494C8.35206 71.604 9.85555 73.1075 11.7102 73.1075ZM190.039 165.155C192.801 165.155 195.04 162.916 195.04 160.154C195.04 157.393 192.801 155.154 190.039 155.154C187.278 155.154 185.039 157.393 185.039 160.154C185.039 162.916 187.278 165.155 190.039 165.155ZM190.039 162.553C191.364 162.553 192.438 161.479 192.438 160.154C192.438 158.83 191.364 157.756 190.039 157.756C188.715 157.756 187.641 158.83 187.641 160.154C187.641 161.479 188.715 162.553 190.039 162.553ZM110 178C157.496 178 196 139.496 196 91.9998C196 44.5033 157.496 5.99976 110 5.99976C62.5035 5.99976 24 44.5033 24 91.9998C24 139.496 62.5035 178 110 178ZM23.9588 171.988H7.24022C7.09716 171.988 6.95534 171.983 6.81493 171.972C3.03648 171.884 0.000190901 168.709 0 164.805C0.00109851 162.902 0.737676 161.077 2.04769 159.733C2.71919 159.043 3.51317 158.509 4.37699 158.152C4.36254 157.958 4.35518 157.763 4.35518 157.565C4.35637 155.558 5.13359 153.633 6.51587 152.214C7.89815 150.795 9.77226 149.999 11.7259 150C14.2285 150.003 16.438 151.289 17.7658 153.252C18.3964 153.022 19.0752 152.898 19.7823 152.898C22.9062 152.902 25.472 155.349 25.7694 158.479C28.7627 159.149 31.0026 161.89 31 165.166C30.9969 168.942 28.0168 172.001 24.3426 172C24.2138 172 24.0858 171.996 23.9588 171.988ZM201.138 38.992H213.003C213.093 38.9971 213.184 38.9997 213.275 38.9998C215.883 39.0008 217.998 36.9152 218 34.3407C218.002 32.1067 216.412 30.2382 214.288 29.7809C214.077 27.6471 212.256 25.9785 210.039 25.9758C209.537 25.9756 209.055 26.0606 208.608 26.2172C207.666 24.8788 206.098 24.0019 204.322 23.9998C202.935 23.9989 201.605 24.5419 200.624 25.5093C199.643 26.4767 199.092 27.7892 199.091 29.1581C199.091 29.2928 199.096 29.4262 199.106 29.5582C198.493 29.8015 197.93 30.1658 197.453 30.6358C196.524 31.5526 196.001 32.7966 196 34.0939C196 36.7558 198.155 38.9208 200.836 38.981C200.936 38.9883 201.037 38.992 201.138 38.992Z" fill="#E5F9FF"/>
	<g filter="url(#filter0_d_13713_68671)">
		<path d="M52 37.0373C52 33.703 54.7047 31 58.0412 31H159.959C163.295 31 166 33.703 166 37.0373V60.9627C166 64.297 163.295 67 159.959 67H58.0412C54.7047 67 52 64.297 52 60.9627V37.0373Z" fill="white"/>
	</g>
	<g opacity="0.5">
		<path fill-rule="evenodd" clip-rule="evenodd" d="M151.833 59.6663C152.88 58.8777 153.497 57.6439 153.5 56.333C153.5 54.5402 152.289 54.7779 151.082 52.3362C151.038 52.2469 150.926 52.2122 150.843 52.2677C149.475 53.183 148.607 54.6841 148.5 56.333C148.58 57.6242 149.182 58.8274 150.167 59.6663H149.575C147.468 58.8942 146.049 56.9099 146 54.6663C146 51.185 149.168 47.9105 151.304 46.6223C151.528 46.4866 151.8 46.6757 151.813 46.938C151.967 49.9489 156 51.0133 156 55.2913C156 58.5222 152.425 59.6663 152.425 59.6663H151.833Z" fill="#2FC6F6"/>
	</g>
	<path opacity="0.4" d="M60 39.1774C60 37.9748 60.9748 37 62.1774 37H134.583C135.785 37 136.76 37.9748 136.76 39.1774C136.76 40.3799 135.785 41.3547 134.583 41.3547H62.1774C60.9748 41.3547 60 40.3799 60 39.1774Z" fill="#2FC6F6"/>
	<circle opacity="0.4" cx="67.5" cy="53.5" r="7.5" fill="#2FC6F6"/>
	<path opacity="0.35" d="M81 53.5C81 50.7386 83.2386 48.5 86 48.5H105C107.761 48.5 110 50.7386 110 53.5C110 56.2614 107.761 58.5 105 58.5H86C83.2386 58.5 81 56.2614 81 53.5Z" fill="#2FC6F6"/>
	<g filter="url(#filter1_d_13713_68671)">
		<path d="M52 79.0373C52 75.703 54.7047 73 58.0412 73H159.959C163.295 73 166 75.703 166 79.0373V102.963C166 106.297 163.295 109 159.959 109H58.0412C54.7047 109 52 106.297 52 102.963V79.0373Z" fill="white"/>
	</g>
	<path opacity="0.3" d="M60 81.1774C60 79.9748 60.9748 79 62.1774 79H114.583C115.785 79 116.76 79.9748 116.76 81.1774C116.76 82.3799 115.785 83.3547 114.583 83.3547H62.1774C60.9748 83.3547 60 82.3799 60 81.1774Z" fill="#BDC1C6"/>
	<circle opacity="0.3" cx="67.5" cy="95.5" r="7.5" fill="#BDC1C6"/>
	<path opacity="0.2" d="M81 95.5C81 92.7386 83.2386 90.5 86 90.5H105C107.761 90.5 110 92.7386 110 95.5C110 98.2614 107.761 100.5 105 100.5H86C83.2386 100.5 81 98.2614 81 95.5Z" fill="#BDC1C6"/>
	<g filter="url(#filter2_d_13713_68671)">
		<path d="M52 121.037C52 117.703 54.7047 115 58.0412 115H159.959C163.295 115 166 117.703 166 121.037V144.963C166 148.297 163.295 151 159.959 151H58.0412C54.7047 151 52 148.297 52 144.963V121.037Z" fill="white"/>
	</g>
	<path opacity="0.3" d="M60 123.177C60 121.975 60.9748 121 62.1774 121H114.583C115.785 121 116.76 121.975 116.76 123.177C116.76 124.38 115.785 125.355 114.583 125.355H62.1774C60.9748 125.355 60 124.38 60 123.177Z" fill="#BDC1C6"/>
	<circle opacity="0.3" cx="67.5" cy="137.5" r="7.5" fill="#BDC1C6"/>
	<path opacity="0.2" d="M81 137.5C81 134.739 83.2386 132.5 86 132.5H105C107.761 132.5 110 134.739 110 137.5C110 140.261 107.761 142.5 105 142.5H86C83.2386 142.5 81 140.261 81 137.5Z" fill="#BDC1C6"/>
	<path fill-rule="evenodd" clip-rule="evenodd" d="M158.379 133.48C164.171 125.355 163.423 114.001 156.133 106.711C148.008 98.5864 134.835 98.5864 126.711 106.711C118.586 114.836 118.586 128.008 126.711 136.133C134.001 143.423 145.355 144.172 153.48 138.379L165.71 150.61C166.282 151.182 167.209 151.182 167.781 150.61L170.61 147.781C171.181 147.209 171.181 146.282 170.61 145.711L158.379 133.48ZM153.046 109.797C159.466 116.217 159.466 126.626 153.046 133.046C146.626 139.466 136.217 139.466 129.797 133.046C123.377 126.626 123.377 116.217 129.797 109.797C136.217 103.377 146.626 103.377 153.046 109.797Z" fill="#2FC6F6"/>
	<defs>
		<filter id="filter0_d_13713_68671" x="40.46" y="21.73" width="137.08" height="59.08" filterUnits="userSpaceOnUse" color-interpolation-filters="sRGB">
			<feFlood flood-opacity="0" result="BackgroundImageFix"/>
			<feColorMatrix in="SourceAlpha" type="matrix" values="0 0 0 0 0 0 0 0 0 0 0 0 0 0 0 0 0 0 127 0" result="hardAlpha"/>
			<feOffset dy="2.27"/>
			<feGaussianBlur stdDeviation="5.77"/>
			<feComposite in2="hardAlpha" operator="out"/>
			<feColorMatrix type="matrix" values="0 0 0 0 0.392157 0 0 0 0 0.427451 0 0 0 0 0.482353 0 0 0 0.16 0"/>
			<feBlend mode="normal" in2="BackgroundImageFix" result="effect1_dropShadow_13713_68671"/>
			<feBlend mode="normal" in="SourceGraphic" in2="effect1_dropShadow_13713_68671" result="shape"/>
		</filter>
		<filter id="filter1_d_13713_68671" x="40.46" y="63.73" width="137.08" height="59.08" filterUnits="userSpaceOnUse" color-interpolation-filters="sRGB">
			<feFlood flood-opacity="0" result="BackgroundImageFix"/>
			<feColorMatrix in="SourceAlpha" type="matrix" values="0 0 0 0 0 0 0 0 0 0 0 0 0 0 0 0 0 0 127 0" result="hardAlpha"/>
			<feOffset dy="2.27"/>
			<feGaussianBlur stdDeviation="5.77"/>
			<feComposite in2="hardAlpha" operator="out"/>
			<feColorMatrix type="matrix" values="0 0 0 0 0.392157 0 0 0 0 0.427451 0 0 0 0 0.482353 0 0 0 0.16 0"/>
			<feBlend mode="normal" in2="BackgroundImageFix" result="effect1_dropShadow_13713_68671"/>
			<feBlend mode="normal" in="SourceGraphic" in2="effect1_dropShadow_13713_68671" result="shape"/>
		</filter>
		<filter id="filter2_d_13713_68671" x="40.46" y="105.73" width="137.08" height="59.08" filterUnits="userSpaceOnUse" color-interpolation-filters="sRGB">
			<feFlood flood-opacity="0" result="BackgroundImageFix"/>
			<feColorMatrix in="SourceAlpha" type="matrix" values="0 0 0 0 0 0 0 0 0 0 0 0 0 0 0 0 0 0 127 0" result="hardAlpha"/>
			<feOffset dy="2.27"/>
			<feGaussianBlur stdDeviation="5.77"/>
			<feComposite in2="hardAlpha" operator="out"/>
			<feColorMatrix type="matrix" values="0 0 0 0 0.392157 0 0 0 0 0.427451 0 0 0 0 0.482353 0 0 0 0.16 0"/>
			<feBlend mode="normal" in2="BackgroundImageFix" result="effect1_dropShadow_13713_68671"/>
			<feBlend mode="normal" in="SourceGraphic" in2="effect1_dropShadow_13713_68671" result="shape"/>
		</filter>
	</defs>
</svg>
