<?xml version="1.0" encoding="UTF-8"?>
<svg width="251px" height="89px" viewBox="0 0 251 89" version="1.1" xmlns="http://www.w3.org/2000/svg" xmlns:xlink="http://www.w3.org/1999/xlink">
    <g transform="translate(0, 5)">
        <g transform="translate(110.598859, 0.870722)" fill-rule="nonzero">
            <polygon fill="#67D9FE" points="0.439811614 1.36424205e-12 67.0051447 38.5894307 0.439811614 77.1802068"></polygon>
            <polygon fill="#67D9FE" points="134.151356 1.47792889e-12 67.5860233 38.5894307 134.151356 77.1802068"></polygon>
            <polygon fill="#2FC6F6" points="67.2250222 25.416405 0.439811614 76.975398 134.010233 76.975398"></polygon>
            <polygon fill="#93E5FF" points="67.1860038 0.0867081813 0.197621373 49.2583856 134.174386 49.2583856" transform="translate(134.186004, 48.672547) rotate(-180)"></polygon>
        </g>
        <path d="M3,14 L95,14 C96.6568542,14 98,15.3431458 98,17 C98,18.6568542 96.6568542,20 95,20 L3,20 C1.34314575,20 -1.13483932e-13,18.6568542 -1.13686838e-13,17 C-1.13889744e-13,15.3431458 1.34314575,14 3,14 Z" fill="#55D0E0" opacity="0.43" />
        <path d="M35,27 L87,27 C88.6568542,27 90,28.3431458 90,30 C90,31.6568542 88.6568542,33 87,33 L35,33 C33.3431458,33 32,31.6568542 32,30 C32,28.3431458 33.3431458,27 35,27 Z" fill="#55D0E0" opacity="0.43" />
    </g>
</svg>