<?xml version="1.0" encoding="UTF-8"?>
<svg width="167px" height="181px" viewBox="0 0 167 181" version="1.1" xmlns="http://www.w3.org/2000/svg" xmlns:xlink="http://www.w3.org/1999/xlink">
        <path d="M166.595042,124.31169 C166.597741,124.36319 166.59856,124.414354 166.597559,124.465114 C153.144673,157.103664 121.01749,180.077277 83.5238855,180.077277 C45.9976671,180.077277 13.8468097,157.06368 0.414814493,124.380291 C0.429107442,123.875031 0.624564248,123.373567 1.00316751,122.981512 C1.80836499,122.147705 3.13704017,122.124513 3.97084657,122.929711 C4.03205168,122.988816 4.08888903,123.050741 4.14135158,123.115085 L3.79201009,122.26517 C16.4824271,153.851581 47.3986086,176.153277 83.5238702,176.153277 C119.366628,176.153277 150.081076,154.19902 162.954101,123.004487 C163.311122,122.611755 163.817463,122.355591 164.389291,122.325623 C165.54683,122.264959 166.534378,123.154152 166.595042,124.31169 Z M83.5238855,0.445276881 C120.370418,0.445276881 152.034787,22.6330062 165.884659,54.3772816 C165.957133,54.8862964 165.844065,55.4228877 165.525928,55.8772347 C164.86108,56.8267362 163.552391,57.0574934 162.602889,56.3926452 L162.505026,56.3198702 L162.414169,56.2442769 L162.285156,55.9422755 C149.039746,25.5863564 118.759538,4.36927688 83.5238702,4.36927688 C48.3855147,4.36927688 18.1755132,25.468729 4.87262048,55.6896966 C4.48963333,56.1746068 3.89610113,56.4848 3.23011943,56.4848 C2.12138896,56.4848 1.21345808,55.6250748 1.13660347,54.535901 L1.13316913,54.4442769 L1.55271106,53.4957445 C15.6006393,22.2229941 47.0188717,0.445276881 83.5238855,0.445276881 Z" fill="#A6EAFE" fill-rule="nonzero"></path>
</svg>