<svg xmlns="http://www.w3.org/2000/svg" viewBox="0 0 70 70" width="246" height="246"><path opacity=".1" fill="#FFF" d="M24.2 61.9c-.2.6-.4.8-1 1 .6.2.8.4 1 1 .2-.6.4-.8 1-1-.6-.2-.7-.4-1-1zm-3.8 4.2c-.2 0-.4.2-.4.4s.2.4.4.4.4-.2.4-.4c.1-.2-.1-.4-.4-.4zM27 46.4c0 .2.2.4.4.4s.4-.2.4-.4-.2-.4-.4-.4-.4.2-.4.4zm-16.5-8.1c.2-.6.4-.8 1-1-.6-.2-.8-.4-1-1-.2.6-.4.8-1 1 .6.2.8.4 1 1zm7.3 9c0 .2.2.4.4.4s.4-.2.4-.4-.2-.4-.4-.4-.4.1-.4.4zm9.4-7.6h.2l4.2 2.1-1.1-3.8-3.1 1.4.8-1-.2-.1 1.1-1.4c.2-.3.2-.8-.1-1l-1.2-1 .2-.2-2.5-2-.2.2-4.2-3.3c-.3-.2-.8-.2-1 .1L19 31.1l-.2-.1-2 2.5.2.2-3.2 4c-.2.3-.2.8.1 1l4.2 3.3-.1.2 2.5 2 .2-.2 1.2 1c.3.2.8.2 1-.1l3.2-4 .2.2.8-1-.9 3.8h3.2l-2.2-4.2zm3.2-1.4l1 3.3-3.9-2 2.9-1.3zm-4.2 2.2l-2-1.6-3.8 4.8-2.1-1.6 3.8-4.8-5-3.9 1.6-2.1 5 3.9 1.7-2.2 2.1 1.6-1.7 2.2 2 1.6-1.6 2.1zm1-.5l1.8 3.6h-2.7l.9-3.6zm-14.9-8.8c.2 0 .4-.2.4-.4s-.2-.4-.4-.4-.4.2-.4.4c-.1.2.1.4.4.4zm.9 19.2c.2-.2.1-.5-.1-.6-.2-.2-.5-.1-.6.1-.2.2-.1.5.1.6.2.1.4.1.6-.1zM9.7 10.3c-.2 0-.4.2-.4.4s.2.4.4.4.4-.2.4-.4c.1-.2-.1-.4-.4-.4zm1.6 45.2c.1-.2.3-.4.5-.8-.3.3-.6.4-.8.5-.2-.3-.2-.7-.3-1.4-.1.7-.1 1.1-.3 1.4-.2-.1-.4-.3-.8-.5.3.3.4.6.5.8-.3.2-.7.2-1.4.3.7.1 1.1.1 1.4.3-.1.2-.3.4-.5.8.3-.3.6-.4.8-.5.2.3.2.7.3 1.4.1-.7.1-1.1.3-1.4.2.1.4.3.8.5-.3-.3-.4-.6-.5-.8.3-.2.7-.2 1.4-.3-.7 0-1.1-.1-1.4-.3zm33.5 12.6c-.2 0-.4.2-.4.4s.2.4.4.4.4-.2.4-.4c.1-.2-.1-.4-.4-.4zm20-2c.1-.2.3-.4.5-.8-.3.3-.6.4-.8.5-.2-.3-.2-.7-.3-1.4-.1.7-.1 1.1-.3 1.4-.2-.1-.4-.3-.8-.5.3.3.4.6.5.8-.3.2-.7.2-1.4.3.7.1 1.1.1 1.4.3-.1.2-.3.4-.5.8.3-.3.6-.4.8-.5.2.3.2.7.3 1.4.1-.7.1-1.1.3-1.4.2.1.4.3.8.5-.3-.3-.4-.6-.5-.8.3-.2.7-.2 1.4-.3-.7 0-1.2-.1-1.4-.3zM70 17.6v-2.7c-.2 0-.4.2-.5.4l-.8 1.4-.2-.1-1.5 2.6.2.1-2.6 4.7c-.2.3-.1.8.3 1l1.6.9-.1.2 2.8 1.5.1-.2.8.4v-2.3l-1 1.8-2.4-1.3 3-5.5-2.4-1.3 1.3-2.3 1.4.7zM45.9 2.4l1.4 1.1-.2.2 2.5 2 .2-.2 4 3.2c.3.2.8.2 1-.1l3.3-4.2.2.2 2-2.5-.3-.3 1-1.2c.1-.2.2-.4.1-.6h-3.8l2.6 2-1.6 2.1L53.5.3l-3.9 4.9-2.1-1.6L50.3 0h-3.5l-1.1 1.3c-.2.4-.1.8.2 1.1zM26.7 56l-2.5-3.1.2-.1-.6-.8 2.7 1.4.5-2.4-3.4.8.1-.1 2.4-2.8-3.1.2.5 2.6-.6-.8-.2.1-.9-1.1c-.2-.2-.5-.3-.8-.1l-1 .8v-.2l-1.9 1.5.1.2-3.2 2.6c-.2.2-.3.5-.1.8l.9 1.1-.2.1 1.5 1.9.2-.1 2.5 3.1c.2.2.5.3.8.1l3.2-2.6.1.2 1.9-1.5-.1-.2 1-.8c.2-.2.2-.6 0-.8zm.2-4.9l-.5 2.1-2.6-1.3 3.1-.8zm-3.8-1.9l2.7-.2-2.2 2.6-.5-2.4zm.8 9.7l-3-3.7-3.8 3.1-1.3-1.6 3.8-3.1-1.3-1.6 1.6-1.3 1.3 1.7 1.5-1.2 1.3 1.6-1.5 1.2 3 3.7-1.6 1.2zM48 62.6c.2 0 .4-.2.4-.4s-.2-.4-.4-.4-.4.2-.4.4.2.4.4.4zm15.4-3l1.6-2.7-.2-.1 2.7-4.4c.2-.3.1-.8-.2-1l-4.6-2.8.1-.2-2.7-1.6-.1.2-1.3-.8c-.3-.2-.8-.1-1 .2L55 50.8l-.2-.1-.6 1.1.5-3.9-3.1.4 2.5 3.8-.1-.1-4.5-1.6 1.6 3.6 2.9-1.7-.7 1.1.2.1-1.1 1.5c-.2.3-.1.8.2 1l1.3.8-.1.2 2.7 1.6.1-.2 4.6 2.8c.3.2.8.1 1-.2l.9-1.5.3.1zM51 53.7l-1.4-3.2 4.1 1.5-2.7 1.7zm3-2l-2.3-3.4 2.7-.4-.4 3.8zm3.9 4.3l-1.4 2.3-2.3-1.4 1.4-2.3-2.2-1.3 1.4-2.3 2.2 1.3 3.2-5.2 2.3 1.4-3.2 5.2 5.4 3.3-1.4 2.3-5.4-3.3zM38.1 67.3l-4.3-1.6.1-.2-1-.4 3.5-.3-.9-2.7-3 2.9v-.1l.6-4.2-2.9 2 2 2.2-1.1-.4-.1.2-1.5-.5c-.3-.1-.7.1-.8.4l-.5 1.3-.2-.1-1 2.7.2.1-.4 1.4h2.6l.3-.8-2.3-.8.8-2.2 2.3.8.8-2.1 2.2.8-.8 2.1 5.1 1.9-.1.3h.3l.2-.5-.2-.1.5-1.3c.1-.4-.1-.7-.4-.8zm-2.8-4.9l.8 2.3-3.3.3 2.5-2.6zm-4.9.3L33 61l-.6 3.9-2-2.2zm-12.7.2l-1.6-.7.1-.2-2.9-1.2-.2.2-4.7-2c-.4-.2-.8 0-.9.4l-2.1 4.9-.2-.1L4 67.1l.2.1-.6 1.5c-.2.4 0 .8.4.9l.8.4h4.8l.3-.6L4.3 67l1-2.4 5.6 2.4 2.5-5.8 2.4 1-2.4 5.8 2.5 1.1-.4 1h.3l.5-1.1-.3-.2 2.1-4.9c.1-.4 0-.8-.4-1zm43.2 6.7l-4-3.2.2-.2-1-.8 3.8.9v-3.2l-4.1 2 .1-.1 2.1-4.2-3.8 1.2 1.4 3.1-1-.8-.2.2-1.4-1.1c-.3-.2-.8-.2-1 .1l-1 1.2-.2-.2-2 2.5.2.2-2.2 2.8h3.5l1-1.3-2.1-1.7 1.6-2.1 2.2 1.7 1.6-2 2.1 1.6-1.6 2 2.2 1.7h3.9c-.1 0-.2-.2-.3-.3zm-1.1-6.1v2.7l-3.7-.9 3.7-1.8zm-5.4-1.4l3.3-1-2 3.9-1.3-2.9zM31.9 70zm34.2-7.2c-.2 0-.4.2-.4.4s.2.4.4.4.4-.2.4-.4c.1-.2-.1-.4-.4-.4zm-26.3 1.5c-.2 0-.4.2-.4.4s.2.4.4.4.4-.2.4-.4c.1-.2-.1-.4-.4-.4zM45.2 52l.2-.1-.7-2.7-.2.1-.3-1.4c-.1-.3-.4-.5-.8-.5L39 48.5l-.1-.2-1.1.3 2.8-2.2-2.3-1.7-.8 4-.1-.1-1.8-3.8-1.2 3.2 2.9.7-1.1.3.1.2-1.5.4c-.3.1-.5.4-.5.8l.3 1.4-.2.1.7 2.7.2-.1 1.2 4.6c.1.3.4.5.8.5l1.5-.4.1.2 2.7-.7-.1-.2 4.5-1.1c.3-.1.5-.4.5-.8L45.2 52zm-6.7-7.1l1.9 1.5-2.6 2.1.7-3.6zm-3.9 3l1.1-2.9 1.7 3.5-2.8-.6zm5.3 5.2l1.4 5.5-2.3.5-1.4-5.5-2.4.6-.6-2.2 2.4-.6-.6-2.2 2.3-.6.6 2.2 5.3-1.3.6 2.3-5.3 1.3zm-8.7-.8c.1-.2.3-.4.5-.8-.3.3-.5.5-.7.5-.2-.3-.2-.7-.3-1.4-.1.7-.1 1.1-.3 1.4-.2-.1-.4-.3-.8-.5.3.3.4.6.5.8-.3.2-.7.2-1.4.3.7.1 1.1.1 1.4.3-.1.2-.3.4-.5.8.3-.3.6-.4.8-.5.2.3.2.7.3 1.4.1-.7.1-1.1.3-1.4.2.1.4.3.8.5-.3-.3-.4-.6-.5-.8.3-.2.7-.2 1.4-.3-.8-.1-1.2-.2-1.5-.3zm16.7-5.1c-.2-.2-.5-.1-.6.1-.2.2-.1.5.1.6.2.2.5.1.6-.1.1-.1 0-.4-.1-.6zM29.4 57.7c0 .2.2.4.4.4s.4-.2.4-.4-.2-.4-.4-.4-.4.2-.4.4zm19.7-15c-.6-.2-.8-.4-1-1-.2.6-.4.8-1 1 .6.2.8.4 1 1 .3-.6.4-.8 1-1zm-3.5-10.6l.1-.1 3.4-2.5-3.5-.7-.2 3-.4-1.1-.2.1-.7-1.4c-.1-.3-.5-.5-.8-.3l-1.3.5-.1-.2-2.6 1.2.1.2-4.3 2c-.3.1-.5.5-.3.8l.7 1.4-.2.1 1.2 2.6.2-.1 1.9 4.2c.1.3.5.5.8.3l4.3-2 .1.2 2.6-1.2-.1-.1 1.3-.6c.3-.1.5-.5.3-.8L46 33.4l.2-.1-.5-1 2.7 2.3 1.3-2.5h-4.1zm.2-3.2l3 .6-3.2 2.3.2-2.9zm.1 4.3l-2.1.9 2.3 5-2.1 1-2.3-5-5.1 2.4-1-2.1 5.1-2.4-1-2.2 2.1-1 1 2.2 2.1-.9 1 2.1zm2.5 1.2l-2.6-2.2h3.6l-1 2.2zM44 60.9c-.2.6-.4.8-1 1 .6.2.8.4 1 1 .2-.6.4-.8 1-1-.6-.2-.8-.4-1-1zM14.3 15.6c0-.2-.2-.4-.4-.4s-.4.2-.4.4.2.4.4.4.4-.2.4-.4zm-.8 8.1c.3-.2.7-.2 1.4-.3-.7-.1-1.1-.1-1.4-.3.1-.2.3-.4.5-.8-.3.3-.6.4-.8.5-.2-.3-.2-.7-.3-1.4-.1.7-.1 1.1-.3 1.4-.2-.1-.4-.3-.8-.5.3.3.4.6.5.8-.3.2-.7.2-1.4.3.7.1 1.1.1 1.4.3-.1.2-.3.4-.5.8.3-.3.6-.4.8-.5.2.3.2.7.3 1.4.1-.7.1-1.1.3-1.4.2.1.4.3.8.5-.3-.4-.4-.6-.5-.8zm36.7 33.9c0-.2-.2-.4-.4-.4s-.4.2-.4.4.2.4.4.4.4-.2.4-.4zm17.1-.3c-.2 0-.4.2-.4.4s.2.4.4.4.4-.2.4-.4-.2-.4-.4-.4zM41.8 26.7c.2-.2.1-.5-.1-.6s-.5-.1-.6.1c-.2.2-.1.5.1.6.1.1.4.1.6-.1zm25.4 12.5c-.2.2-.1.5.1.6.2.2.5.1.6-.1.2-.2.1-.5-.1-.6s-.4 0-.6.1zM65.9 1.9c.2 0 .4-.2.4-.4s-.2-.4-.4-.4-.4.2-.4.4c-.1.2.1.4.4.4zm1.4 7.4c.2 0 .4-.2.4-.4s-.2-.4-.4-.4-.4.2-.4.4c-.1.2.1.4.4.4zm-20 14.2c.2-.2.1-.5-.1-.6-.2-.2-.5-.1-.6.1-.2.2-.1.5.1.6.2.1.5.1.6-.1zM52 44.6c-.2.2-.1.5.1.6.2.2.5.1.6-.1.2-.2.1-.5-.1-.6-.1-.1-.4-.1-.6.1zm10.3-16c0 .2.2.4.4.4s.4-.2.4-.4-.2-.4-.4-.4c-.2-.1-.4.1-.4.4zM62 7.5c.2-.6.4-.8 1-1-.6-.2-.8-.4-1-1-.2.6-.4.8-1 1 .6.2.7.4 1 1zm-12.4 6.9c0-.2-.2-.4-.4-.4s-.4.2-.4.4.2.4.4.4c.2.1.4-.1.4-.4zM50.9 39c-.2.2-.1.5.1.6.2.2.5.1.6-.1.2-.2.1-.5-.1-.6-.2-.1-.5-.1-.6.1zM4.7 29.6l2.6-4.7.2.1L9 22.3l-.2-.1.8-1.4c.2-.3.1-.8-.3-1l-4.5-2.5.1-.2-1.1-.6 3.9.3-.6-3.1-3.7 2.7v-.1L5 11.7l-3.6 1.7 1.9 2.8-1.2-.6-.1.2-1.6-.9c-.1-.1-.3-.1-.4-.1v2.7l1 .5 1.2-2.2 2.3 1.3-1.2 2.2 5.4 3-1.3 2.3-5.4-3-2 3.7v2.4l3.7 2c.4.4.8.3 1-.1zM7.1 14l.5 2.7-3.8-.3L7.1 14zm-5.5-.5L4.7 12l-1.3 4.2-1.8-2.7zm2.5 45.3c.6.2.8.4 1 1 .2-.6.4-.8 1-1-.6-.2-.8-.4-1-1-.2.6-.4.8-1 1zM1.8 35.4c0 .2.2.4.4.4s.4-.2.4-.4-.1-.4-.3-.4-.5.2-.5.4zM26.1 3.8l1.5.5-.1.2 2.7 1 .1-.2 4.3 1.6c.3.1.7-.1.8-.4L37 2l.2.1L38 0h-.2l-.6 1.8L32.1 0h-.2L30 5.2l-2.2-.8L29.4 0h-2.6l-1.1 3c-.1.3.1.7.4.8zM3.9 49.2l1.1.3-3.5.7 1.2 2.5 2.5-3.2v.1l-.1 4.2 2.6-2.3-2.3-2 1.1.3.1-.2 1.6.4c.3.1.7-.1.8-.5l.3-1.4.2.1.6-2.7-.1-.1 1.1-4.6c.1-.3-.1-.7-.5-.8L9 39.6l.1-.2-2.7-.6-.1.2-4.5-1c-.3-.1-.7.1-.8.5l-1 4.4v.5l5.2 1.2L6.5 39l2.3.5L7.5 45l2.4.6-.5 2.3-2.4-.5-.5 2.2-2.3-.5.5-2.2L0 45.7V48l3.9 1v.2zm1.5.5l2.2 1.9-2.3 2 .1-3.9zm-2.7 2.8l-1.1-2.2 3.4-.7-2.3 2.9zm67-9.5l-.6 2.7.2.1-.3 1.4c-.1.3.1.7.5.8l.5.1v-2.3l-.6-.1.5-2.3h.1V43v.1l-.3-.1zM.8 66.7c-.2.2-.1.5.1.6.2.2.5.1.6-.1.2-.2.1-.5-.1-.6-.2-.1-.4-.1-.6.1zm1.9-11.6c-.2.2-.1.5.1.6.2.2.5.1.6-.1.2-.2.1-.5-.1-.6-.2-.1-.5-.1-.6.1zM2.2 7.4c.7.1 1.1.1 1.4.3-.1.2-.3.4-.6.8.4-.3.6-.5.8-.6.2.3.2.7.3 1.4.1-.7.1-1.1.3-1.4.2.1.4.3.7.6-.2-.4-.4-.6-.5-.8.3-.2.7-.2 1.4-.3-.7-.1-1.1-.1-1.4-.3.1-.2.3-.4.5-.8-.3.3-.5.5-.7.6-.2-.3-.3-.7-.3-1.4-.1.7-.1 1.1-.3 1.4-.2-.1-.4-.3-.8-.5.3.3.4.6.5.8-.2.1-.6.1-1.3.2zm4.9 23.5c-.2 0-.4.2-.4.4s.2.4.4.4.4-.2.4-.4c.1-.3-.1-.4-.4-.4zM8.6 1.8l1.1.5-4 .1.9 3 3.4-3v.1l-.9 4.7 3.4-2.1-2.1-2.6 1.2.5.1-.2 1.6.7c.4.2.8 0 .9-.4l.6-1.5.2.2.8-1.8h-.3l-.6 1.4L12.4.3l-1 2.3-2.4-1L9.6 0H4.9l3.8 1.6-.1.2zM6.7 5.2l-.8-2.6 3.8-.1-3 2.7zm5.5-.1L9.3 6.9l.9-4.3 2 2.5zM2.4 2.4c.2 0 .4-.2.4-.4s-.1-.4-.4-.4-.4.2-.4.4.2.4.4.4zm51.3 30.3c.1-.7.1-1.1.3-1.4.2.1.4.3.8.5-.3-.3-.4-.6-.5-.8.3-.2.7-.2 1.4-.3-.7-.1-1.1-.1-1.4-.3.1-.2.3-.4.5-.8-.3.3-.6.4-.8.5-.2-.3-.2-.7-.3-1.4-.1.7-.1 1.1-.3 1.4-.2-.1-.4-.3-.8-.5.3.3.4.6.5.8-.3.2-.7.2-1.4.3.7.1 1.1.1 1.4.3-.1.2-.3.4-.5.8.3-.3.6-.4.8-.5.2.3.2.7.3 1.4zm-36.2-5.5c-.6-.2-.8-.4-1-1-.2.6-.4.8-1 1 .6.2.8.4 1 1 .2-.6.4-.8 1-1zm15.1 4.7c0-.2-.2-.4-.4-.4s-.4.2-.4.4.2.4.4.4.4-.2.4-.4zm.7 12.9c-.6-.2-.8-.4-1-1-.2.6-.4.8-1 1 .6.2.8.4 1 1 .2-.6.4-.8 1-1zm29.7.3c0 .2.2.4.4.4s.4-.2.4-.4-.2-.4-.4-.4-.4.2-.4.4zm-49.1-1c.2 0 .4-.2.4-.4s-.2-.4-.4-.4-.4.2-.4.4c-.1.2.1.4.4.4zm19-16.8c.3-.2.7-.2 1.4-.3-.7-.1-1.1-.1-1.4-.3.1-.2.3-.4.5-.8-.3.3-.6.4-.8.5-.2-.3-.2-.7-.3-1.4-.1.7-.1 1.1-.3 1.4-.2-.1-.4-.3-.8-.5.3.3.4.6.5.8-.3.2-.7.2-1.4.3.7.1 1.1.1 1.4.3-.1.2-.3.4-.5.8.3-.3.6-.4.8-.5.2.3.2.7.3 1.4.1-.7.1-1.1.3-1.4.2.1.4.3.8.5-.2-.4-.4-.6-.5-.8zm1-12.4c0-.2-.2-.4-.4-.4s-.4.2-.4.4.2.4.4.4.4-.2.4-.4zM20 13.4l-1.3.4.1.2-1.7.6c-.4.1-.6.5-.5.9l.5 1.5-.2.1 1 3 .2-.1 1.7 5.1c.1.4.5.6.9.5l1.7-.6.1.2 3-1-.1-.2 4.9-1.6c.4-.1.6-.5.5-.9l-1.7-5.1.2-.1-1-3-.2.1-.5-1.5c-.1-.4-.5-.6-.9-.5L21.8 13l-.1-.2-1.2.4 2.9-2.7-2.7-1.7-.5 4.5-.1-.1-2.4-4.1-1.1 3.8 3.4.5zm.9-4.3l2.3 1.5-2.7 2.6.4-4.1zm.7 4.1l.8 2.4 5.8-1.9.8 2.5-5.8 1.9 2 6-2.5.8-2-6-2.6.9-.8-2.5 2.6-.9L19 14l2.6-.8zm-3.8-3.7l2.2 3.8-3.2-.5 1-3.3zM25.9 29c.2 0 .4-.2.4-.4s-.2-.4-.4-.4-.4.2-.4.4c-.1.2.1.4.4.4zm-6-25.7c-.1.2-.3.4-.5.8.3-.3.6-.4.8-.5.2.3.2.7.3 1.4.1-.7.1-1.1.3-1.4.2.1.4.3.8.5-.3-.3-.4-.6-.5-.8.1-.2.5-.3 1.1-.3-.7-.1-1.1-.1-1.4-.3.1-.2.3-.4.5-.8-.3.3-.6.4-.8.5-.2-.3-.2-.7-.3-1.4-.1.7-.1 1.1-.3 1.4-.2-.1-.4-.3-.8-.5.3.3.4.6.5.8-.3.2-.7.2-1.4.3 1 0 1.4.1 1.7.3zm13.8 56c.2 0 .4-.2.4-.4s-.2-.4-.4-.4-.4.2-.4.4.2.4.4.4zM24.4 7.2c.2 0 .4-.2.4-.4s-.2-.4-.4-.4-.4.2-.4.4.2.4.4.4zm6.3 2.1c-.2 0-.4.2-.4.4s.2.4.4.4.4-.2.4-.4c.1-.2-.1-.4-.4-.4zM14.9 6.9c.6.2.8.4 1 1 .2-.6.4-.8 1-1-.6-.2-.8-.4-1-1-.2.6-.3.8-1 1zm45.5 5.8c-.1.2-.3.4-.5.8.3-.3.6-.4.8-.5.2.3.2.7.3 1.4.1-.7.1-1.1.3-1.4.2.1.4.3.8.5-.3-.3-.4-.6-.5-.8.3-.2.7-.2 1.4-.3-.7-.1-1.1-.1-1.4-.3.1-.2.3-.4.5-.8-.3.3-.6.4-.8.5-.2-.3-.2-.7-.3-1.4-.1.7-.1 1.1-.3 1.4-.2-.1-.4-.3-.8-.5.3.3.4.6.5.8-.3.2-.7.2-1.4.3.7.1 1.1.2 1.4.3zM60 31.3l-3.1 2.8-.1-.1-1.8 1.6.1.1-.9.8c-.2.2-.2.6 0 .8l2.7 3-.1.1.6.7-2.8-1.2-.4 2.4 3.4-1-.1.1-2.2 3 3.1-.4-.6-2.5.7.8.1-.1.9 1c.2.2.6.2.8 0l.9-.8.1.1 1.8-1.6-.1-.1 3-2.8c.2-.2.2-.6 0-.8l-.9-1 .1-.1-1.6-1.8-.1.1-2.7-3c-.2-.3-.6-.3-.8-.1zm-5.8 10.9l.3-2.1 2.7 1.2-3 .9zm3.9 1.7l-2.6.3 2-2.7.6 2.4zm5.5-9.4L65 36l-3.6 3.3 1.4 1.6-1.5 1.4-1.4-1.6-1.6 1.3-1.4-1.5 1.5-1.3-3.2-3.5 1.5-1.4 3.2 3.5 3.7-3.3zM53.4 11.3c0-.2-.2-.4-.4-.4s-.4.2-.4.4.2.4.4.4.4-.2.4-.4zM34.6 40.9c.2 0 .4-.2.4-.4s-.2-.4-.4-.4-.4.2-.4.4c-.1.2.1.4.4.4zm17.7-15.5l.7 1c.2.3.5.3.8.1l3.3-2.3.1.2.8-.5-1.6 2.6 2.4.7-.6-3.5.1.1 2.7 2.5v-3.1l-2.6.3.8-.6H59l1.1-.8c.3-.2.3-.5.1-.8l-.7-1 .2-.1-1.4-2-.2.1-2.4-3.4c-.2-.3-.5-.3-.8-.1l-.9.8-.1-.2-2 1.4.1.2-3.3 2.3c-.3.2-.3.5-.1.8l2.4 3.4-.2.1 1.4 2 .1-.2zm6.2 1.7l-2-.6L58 24l.5 3.1zm2.3-3.6v2.7l-2.5-2.4 2.5-.3zm-5.9-2.6l-2.8-4 1.7-1.2 2.8 4 1.8-1.2 1.2 1.7-1.8 1.2 1.1 1.6-1.7 1.2-1.2-1.6-3.9 2.7-1.1-1.7 3.9-2.7zm12.5 11.9c-.6-.2-.8-.4-1-1-.2.6-.4.8-1 1 .6.2.8.4 1 1 .2-.6.3-.8 1-1zm-3-15.2c.2 0 .4-.2.4-.4s-.2-.4-.4-.4-.4.2-.4.4.2.4.4.4zM45.9 9.8c.3-.3.6-.4.8-.5.2.3.2.7.3 1.4.1-.7.1-1.1.3-1.4.2.1.4.3.8.5-.3-.3-.4-.6-.5-.8.3-.2.7-.2 1.4-.3-.7-.1-1.1-.1-1.4-.3 0-.2.2-.4.4-.7-.3.3-.6.4-.8.5-.1-.3-.2-.7-.2-1.4-.1.7-.1 1.1-.3 1.4-.2-.1-.4-.3-.8-.5.3.3.4.6.5.8-.3.2-.7.2-1.4.3.7.1 1.1.1 1.4.3 0 .1-.2.3-.5.7zm-6.7 3.1v.2l-1.4-.3c-.3-.1-.6.1-.7.4l-.2 1.2h-.2l-.5 2.4h.2l-.8 4.2c-.1.3.1.6.4.7l1.4.3v.2l2.4.5v-.2l3.9.8c.3.1.6-.1.7-.4l.8-4.1h.2l.5-2.4h-.2l.2-1.2c.1-.3-.1-.6-.4-.7l-3.9-.8v-.2l-.9-.2 3-.7-1.1-2.2-2.1 2.8V9.4l-2.2 2.1 2 1.7-1.1-.3zm3.3-2.3l1 1.9-2.8.7 1.8-2.6zm-1.1 3l-.4 1.9 4.6 1-.4 2-4.6-1-1 4.8-2-.4 1-4.8-2.1-.4.4-2 2.1.4.4-1.9 2 .4zm-3.1-2.1l1.9-1.8v3.4l-1.9-1.6zm4 32.4c0 .2.2.4.4.4s.4-.2.4-.4-.2-.4-.4-.4c-.2-.1-.4.1-.4.4zM39.9 7.4c.2 0 .4-.2.4-.4s-.2-.4-.4-.4-.4.2-.4.4c-.1.2.1.4.4.4zm2.3-3.2c.2-.6.4-.8 1-1-.6-.2-.8-.4-1-1-.2.6-.4.8-1 1 .6.2.8.4 1 1z"/></svg>