<svg width="219" height="178" viewBox="0 0 219 178" fill="none" xmlns="http://www.w3.org/2000/svg">
<path opacity="0.16" fill-rule="evenodd" clip-rule="evenodd" d="M157.409 5.08198C158.738 5.08198 159.815 4.00495 159.815 2.67636C159.815 1.34778 158.738 0.270752 157.409 0.270752C156.08 0.270752 155.003 1.34778 155.003 2.67636C155.003 4.00495 156.08 5.08198 157.409 5.08198ZM38.7039 25.8626C41.5841 25.8626 43.9189 23.5278 43.9189 20.6476C43.9189 17.7675 41.5841 15.4326 38.7039 15.4326C35.8237 15.4326 33.4889 17.7675 33.4889 20.6476C33.4889 23.5278 35.8237 25.8626 38.7039 25.8626ZM38.7039 22.955C39.9782 22.955 41.0112 21.9219 41.0112 20.6476C41.0112 19.3733 39.9782 18.3403 38.7039 18.3403C37.4296 18.3403 36.3965 19.3733 36.3965 20.6476C36.3965 21.9219 37.4296 22.955 38.7039 22.955ZM12.2102 76.7735C16.0894 76.7735 19.2341 73.6288 19.2341 69.7496C19.2341 65.8704 16.0894 62.7257 12.2102 62.7257C8.33099 62.7257 5.18628 65.8704 5.18628 69.7496C5.18628 73.6288 8.33099 76.7735 12.2102 76.7735ZM12.2102 73.1077C14.0648 73.1077 15.5683 71.6042 15.5683 69.7496C15.5683 67.895 14.0648 66.3915 12.2102 66.3915C10.3555 66.3915 8.85206 67.895 8.85206 69.7496C8.85206 71.6042 10.3555 73.1077 12.2102 73.1077ZM190.539 165.155C193.301 165.155 195.54 162.916 195.54 160.155C195.54 157.393 193.301 155.154 190.539 155.154C187.778 155.154 185.539 157.393 185.539 160.155C185.539 162.916 187.778 165.155 190.539 165.155ZM190.539 162.553C191.864 162.553 192.938 161.479 192.938 160.155C192.938 158.83 191.864 157.756 190.539 157.756C189.215 157.756 188.141 158.83 188.141 160.155C188.141 161.479 189.215 162.553 190.539 162.553ZM110.5 178C157.996 178 196.5 139.496 196.5 92C196.5 44.5035 157.996 6 110.5 6C63.0035 6 24.5 44.5035 24.5 92C24.5 139.496 63.0035 178 110.5 178ZM24.4588 171.989H7.74022C7.59716 171.989 7.45534 171.983 7.31493 171.973C3.53648 171.884 0.500191 168.709 0.5 164.805C0.501099 162.902 1.23768 161.078 2.54769 159.733C3.21919 159.044 4.01317 158.509 4.87699 158.152C4.86254 157.959 4.85518 157.763 4.85518 157.566C4.85637 155.558 5.63359 153.633 7.01587 152.214C8.39815 150.795 10.2723 149.999 12.2259 150C14.7285 150.003 16.938 151.289 18.2658 153.252C18.8964 153.023 19.5752 152.898 20.2823 152.898C23.4062 152.902 25.972 155.349 26.2694 158.479C29.2627 159.15 31.5026 161.89 31.5 165.167C31.4969 168.943 28.5168 172.002 24.8426 172C24.7138 172 24.5858 171.996 24.4588 171.989ZM201.638 38.9923H213.503C213.593 38.9974 213.684 39 213.775 39C216.383 39.0011 218.498 36.9155 218.5 34.341C218.502 32.1069 216.912 30.2384 214.788 29.7812C214.577 27.6473 212.756 25.9787 210.539 25.9761C210.037 25.9758 209.555 26.0609 209.108 26.2174C208.166 24.879 206.598 24.0021 204.822 24C203.435 23.9992 202.105 24.5422 201.124 25.5096C200.143 26.4769 199.592 27.7895 199.591 29.1584C199.591 29.293 199.596 29.4264 199.606 29.5584C198.993 29.8018 198.43 30.1661 197.953 30.636C197.024 31.5529 196.501 32.7968 196.5 34.0942C196.5 36.756 198.655 38.921 201.336 38.9813C201.436 38.9886 201.537 38.9923 201.638 38.9923Z" fill="#A8ADB4"/>
<g filter="url(#filter0_d_9996_50599)">
<path fill-rule="evenodd" clip-rule="evenodd" d="M62.5 35C62.5 31.6863 65.1863 29 68.5 29H130.662L159.5 57.875V149C159.5 152.314 156.814 155 153.5 155H68.5C65.1863 155 62.5 152.314 62.5 149V35Z" fill="white"/>
</g>
<path opacity="0.8" fill-rule="evenodd" clip-rule="evenodd" d="M131.034 29L159.838 57.875H137.007C133.691 57.875 131.003 55.1844 131.007 51.868L131.034 29Z" fill="#BDC1C6"/>
<path opacity="0.8" fill-rule="evenodd" clip-rule="evenodd" d="M101.165 130.006L96.1171 136.461C94.5765 138.432 91.4216 137.156 91.6788 134.667L91.7691 133.793L86.3755 140.288C84.781 142.207 81.6707 140.85 81.9906 138.373L82.6511 133.261L76.0494 139.812C75.5352 140.322 74.7053 140.319 74.1957 139.804C73.6861 139.289 73.6898 138.458 74.204 137.948L81.077 131.127C82.7611 129.456 85.6043 130.864 85.3001 133.218L84.6485 138.262L90.029 131.783C91.6024 129.889 94.6745 131.184 94.4212 133.635L94.3333 134.485L99.4426 127.951C101.062 125.88 104.365 127.404 103.845 129.982L102.287 137.697L107.791 131.02C108.251 130.461 109.078 130.381 109.636 130.843C110.194 131.304 110.273 132.131 109.813 132.691L103.976 139.772C102.326 141.774 99.1004 140.235 99.614 137.691L101.165 130.006Z" fill="#BDC1C6"/>
<rect x="78.6699" y="48.5209" width="33.6749" height="3.5493" rx="1.77465" fill="black" fill-opacity="0.1"/>
<rect x="78.6699" y="60.9435" width="26.5855" height="3.5493" rx="1.77465" fill="black" fill-opacity="0.1"/>
<rect x="78.6699" y="73.3661" width="63.8051" height="3.5493" rx="1.77465" fill="black" fill-opacity="0.1"/>
<rect x="78.6699" y="85.7887" width="56.7156" height="3.5493" rx="1.77465" fill="black" fill-opacity="0.1"/>
<rect x="78.6699" y="98.2113" width="60.2604" height="3.54929" rx="1.77465" fill="black" fill-opacity="0.1"/>
<circle cx="156.5" cy="129.5" r="15.5" fill="#A8ADB4"/>
<path fill-rule="evenodd" clip-rule="evenodd" d="M158.233 129.5L161.861 133.129C162.34 133.607 162.34 134.383 161.861 134.861C161.383 135.34 160.607 135.34 160.129 134.861L156.5 131.233L152.872 134.861C152.393 135.34 151.618 135.34 151.14 134.861C150.661 134.383 150.661 133.607 151.14 133.129L154.768 129.5L151.14 125.872C150.661 125.393 150.661 124.618 151.14 124.14C151.618 123.661 152.393 123.661 152.872 124.14L156.5 127.768L160.129 124.14C160.607 123.661 161.383 123.661 161.861 124.14C162.34 124.618 162.34 125.393 161.861 125.872L158.233 129.5Z" fill="white"/>
<defs>
<filter id="filter0_d_9996_50599" x="50.5" y="21" width="121" height="150" filterUnits="userSpaceOnUse" color-interpolation-filters="sRGB">
<feFlood flood-opacity="0" result="BackgroundImageFix"/>
<feColorMatrix in="SourceAlpha" type="matrix" values="0 0 0 0 0 0 0 0 0 0 0 0 0 0 0 0 0 0 127 0" result="hardAlpha"/>
<feOffset dy="4"/>
<feGaussianBlur stdDeviation="6"/>
<feComposite in2="hardAlpha" operator="out"/>
<feColorMatrix type="matrix" values="0 0 0 0 0 0 0 0 0 0 0 0 0 0 0 0 0 0 0.12 0"/>
<feBlend mode="normal" in2="BackgroundImageFix" result="effect1_dropShadow_9996_50599"/>
<feBlend mode="normal" in="SourceGraphic" in2="effect1_dropShadow_9996_50599" result="shape"/>
</filter>
</defs>
</svg>
