<svg xmlns="http://www.w3.org/2000/svg" width="84" height="18" viewBox="0 0 84 18">
    <g fill="none" fill-rule="evenodd" transform="translate(-.218 .218)">
        <path fill="#FF0000" fill-rule="nonzero" d="M4.81510224,9.12736312 L2.27003317,14.7982788 L0.413869816,14.7982788 L3.20897153,8.73432935 C2.55465487,8.40267841 2.00576545,7.89759209 1.62323821,7.27514254 C1.22055407,6.6333615 1.01855401,5.76046094 1.01855401,4.65709373 C1.01855401,3.88473668 1.13370062,3.2050886 1.36267788,2.61880236 C1.5929711,2.03186323 1.9055119,1.54546763 2.30161624,1.15961555 C2.69559925,0.774516407 3.16839813,0.477940144 3.68798143,0.289979382 C4.2226175,0.0956384377 4.78790181,-0.00252498408 5.35727828,4.93494577e-05 L7.75561767,4.93494577e-05 L7.75561767,14.7982788 L6.15014494,14.7982788 L6.15014494,9.12736312 L4.81444426,9.12736312 L4.81510224,9.12736312 Z M6.15014494,1.34568635 L5.29477012,1.34568635 C4.97499154,1.34568635 4.66179276,1.40444555 4.35583176,1.52196395 C4.04987077,1.63948235 3.77878275,1.82490027 3.54256771,2.08017635 C3.30569468,2.33545243 3.1148803,2.67429716 2.9688086,3.09475188 C2.8227369,3.5152066 2.74970105,4.03620484 2.74970105,4.65709373 C2.74970105,5.25056165 2.81549911,5.74740334 2.9484112,6.1469659 C3.08000732,6.54718134 3.260952,6.8716627 3.49058724,7.1197571 C3.7195645,7.36785151 3.99065252,7.54412911 4.30385129,7.64793703 C4.62362988,7.75239783 4.95788404,7.80462823 5.29477012,7.8027227 L6.15014494,7.8027227 L6.15014494,1.34568635 Z"/>
        <path fill="#000000" fill-rule="nonzero" d="M23.8583776,16.8470163 L22.3976606,16.8470163 L22.3976606,14.7982788 L17.8937832,14.7982788 L17.8937832,16.8470163 L16.4330662,16.8470163 L16.4330662,13.4735853 L17.0798612,13.4735853 C17.3167342,12.9219017 17.5042587,12.3114589 17.6430926,11.6422569 C17.7825845,10.9730549 17.8898353,10.2829607 17.9668191,9.57262728 C18.0431448,8.86164095 18.0918354,8.13759703 18.1122328,7.39918975 C18.1332882,6.66143534 18.1438158,5.94718462 18.1438158,5.25774333 L18.1438158,4.36656213 L23.0247162,4.36656213 L23.0247162,13.4729324 L23.8590356,13.4729324 L23.8590356,16.8463634 L23.8583776,16.8470163 L23.8583776,16.8470163 Z M30.9290374,14.0944742 C30.5839201,14.3628458 30.1963895,14.5726476 29.7821772,14.7153631 C29.3505419,14.8674841 28.870874,14.9432182 28.3425156,14.9432182 C27.2581635,14.9432182 26.4027887,14.525375 25.7770491,13.6909943 C25.1519675,12.8559608 24.8387687,11.6318108 24.8387687,10.0172386 C24.8387687,9.17567624 24.897987,8.40331919 25.0164235,7.69951455 C25.134202,6.9957099 25.3217265,6.3852671 25.578997,5.86753326 C25.8362674,5.35045229 26.1665737,4.94697245 26.5699158,4.65709373 C26.9732579,4.36721501 27.4529258,4.22227565 28.0089194,4.22227565 C28.4398967,4.22227565 28.836659,4.30845581 29.1978904,4.48146901 C29.5597798,4.65382933 29.8650828,4.93326197 30.1157734,5.31911405 C30.365806,5.70561901 30.5605683,6.2057251 30.6994022,6.82008518 C30.8388941,7.43379239 30.9079821,8.18264575 30.9079821,9.0659924 L30.9079821,9.95521496 L26.527805,9.95521496 C26.527805,11.1421508 26.6916422,12.0385551 27.0180006,12.6457335 C27.345017,13.2529119 27.8352125,13.5565011 28.4885873,13.5565011 C28.9478578,13.5565011 29.3544898,13.4768497 29.7091414,13.3181999 C30.0637929,13.15955 30.3447507,13.0048175 30.5539885,12.8526964 L30.9290374,14.0944742 L30.9290374,14.0944742 Z M15.4941279,4.36721501 L15.4941279,14.7982788 L13.8886551,14.7982788 L13.8886551,10.1210465 L11.4686024,10.1210465 L11.4686024,14.7982788 L9.84141627,14.7982788 L9.84141627,4.36721501 L11.4686024,4.36721501 L11.4686024,8.79635295 L13.8879971,8.79635295 L13.8879971,4.36721501 L15.4941279,4.36721501 L15.4941279,4.36721501 Z M34.203807,9.60331264 L34.203807,14.7982788 L32.5766209,14.7982788 L32.5766209,4.36721501 L34.203807,4.36721501 L34.203807,9.18938672 L36.7278207,4.36721501 L38.3754042,4.36721501 L35.768485,9.27230248 L38.7511112,14.7982788 L36.9778534,14.7982788 L34.203807,9.60331264 Z M42.5680568,14.9432182 C41.441594,14.9432182 40.558584,14.497954 39.9190268,13.6080786 C39.2794696,12.7182031 38.959691,11.3765347 38.959691,9.58307336 C38.959691,8.76893199 39.0393067,8.03052471 39.199196,7.36850439 C39.3590853,6.70583118 39.5953003,6.1437015 39.9084991,5.68146245 C40.2047217,5.23465729 40.6054062,4.86552535 41.0764147,4.60551621 C41.542265,4.35024013 42.0811511,4.22227565 42.6930731,4.22227565 C43.1655032,4.22227565 43.5484479,4.27450605 43.8399334,4.37766109 C44.1320768,4.48146901 44.396585,4.60878061 44.6328,4.76024877 L44.4031648,6.29190526 C44.1662917,6.08951246 43.9030995,5.91911078 43.6214838,5.78527038 C43.3261143,5.6411532 43.0011643,5.56674604 42.6720177,5.56786133 C42.0883889,5.56786133 41.608721,5.89168982 41.2330141,6.54065254 C40.8579651,7.18896238 40.6697827,8.17546407 40.6697827,9.5001576 C40.6697827,10.8104878 40.8263821,11.821146 41.1389229,12.5321323 C41.4521216,13.2424658 41.9416592,13.5976325 42.6095096,13.5976325 C43.0128517,13.5976325 43.3602655,13.5323445 43.6524089,13.4017685 C43.9155684,13.2878143 44.1613964,13.1379449 44.3827674,12.9565043 L44.7578163,14.1564978 C44.4801485,14.3915346 44.1669497,14.5808698 43.819536,14.7258092 C43.4714642,14.8707485 43.0543045,14.9432182 42.5680568,14.9432182 L42.5680568,14.9432182 Z M21.4179275,5.67101637 L19.6032169,5.67101637 L19.6032169,5.85774006 C19.6032169,6.40942366 19.5926892,7.01333766 19.5716338,7.66817631 C19.5500082,8.33548162 19.5047991,9.00182892 19.4360898,9.66598912 C19.3676719,10.3353122 19.2704212,11.0014238 19.1446044,11.6624962 C19.0301158,12.2814264 18.8550929,12.8879519 18.6228257,13.4735853 L21.4179275,13.4735853 L21.4179275,5.67101637 L21.4179275,5.67101637 Z M28.0089194,5.54696917 C27.5088541,5.54696917 27.1535446,5.82640182 26.9449647,6.3852671 C26.7363849,6.94413238 26.6047888,7.69233287 26.5488604,8.63117431 L29.2400012,8.63117431 C29.2400012,8.18917455 29.2189458,7.77851303 29.176835,7.39918975 C29.1447953,7.06565223 29.0786571,6.73621194 28.9794408,6.41595246 C28.8886395,6.1404371 28.7636232,5.92629246 28.6037339,5.7748243 C28.4441613,5.62298269 28.2299256,5.5409156 28.0089194,5.54696917 L28.0089194,5.54696917 Z"/>
        <path fill="#000000" d="M53.464216,0.848844665 L53.464216,14.7982788 L52.4213167,14.7982788 L52.4213167,0.848844665 L49.4801433,0.848844665 L49.4801433,0.000100659908 L56.4257868,0.000100659908 L56.4257868,0.848844665 L53.464216,0.848844665 Z M58.9083477,14.2185214 C59.3952534,14.2185214 59.8084652,14.0187401 60.1492992,13.6185247 C60.4894752,13.2183092 60.7572733,12.7358309 60.9520356,12.1697839 L60.9520356,9.29319464 L59.8255727,9.29319464 C58.9498005,9.29319464 58.3030056,9.5001576 57.8858458,9.91343064 C57.4686861,10.3280094 57.2607642,10.9906826 57.2607642,11.9007974 C57.2607642,12.6457335 57.4094679,13.2183092 57.7081911,13.6185247 C58.0075723,14.0187401 58.4076245,14.2191743 58.9083477,14.2191743 L58.9083477,14.2185214 L58.9083477,14.2185214 Z M61.244179,14.7982788 C61.2027262,14.6605211 61.1573255,14.4848964 61.108635,14.2707518 C61.049707,13.9804201 61.0114496,13.6863325 60.9941463,13.3906695 C60.7441137,13.8875112 60.4309149,14.280545 60.055208,14.5704237 C59.680159,14.8603024 59.2281263,15.0052418 58.6997679,15.0052418 C57.9904648,15.0052418 57.4134157,14.7395196 56.9679629,14.2087282 C56.523168,13.6772839 56.3007705,12.9356122 56.3007705,11.9837131 C56.3007705,10.8659826 56.5994937,10.0211558 57.1975981,9.44858008 C57.7957025,8.87600431 58.6648949,8.58938999 59.8051753,8.58938999 L60.9520356,8.58938999 L60.9520356,7.28558862 C60.9520356,6.48515774 60.8059639,5.90605318 60.5138205,5.54696917 C60.2223351,5.18788517 59.783462,5.00899605 59.1998332,5.00899605 C58.3192002,5.00475454 57.4926961,5.43017989 56.9890182,6.1469659 L56.7179302,5.21595901 C56.9265101,4.93979077 57.2429988,4.69496077 57.6667383,4.48146901 C58.0911358,4.26732437 58.6023867,4.16025205 59.1998332,4.16025205 C60.0762634,4.16025205 60.7467456,4.40508205 61.2132539,4.89539493 C61.6784462,5.38505493 61.9113713,6.1469659 61.9113713,7.1817807 L61.9113713,12.8735886 C61.9113713,13.2326726 61.9324267,13.5943681 61.9738795,13.9599809 C62.0159902,14.3255937 62.0712606,14.6050263 62.1410066,14.7982788 L61.244179,14.7982788 L61.244179,14.7982788 Z M65.1446881,14.7982788 L64.164297,14.7982788 L64.164297,4.36721501 L65.1446881,4.36721501 L65.1446881,9.27230248 L68.6694904,4.36721501 L69.6288261,4.36721501 L66.1665321,9.21027888 L69.8795167,14.7982788 L68.7945067,14.7982788 L65.1446881,9.39634968 L65.1446881,14.7982788 L65.1446881,14.7982788 Z M73.8004233,14.1564978 C74.1346775,14.1564978 74.4301108,14.1016559 74.6873812,13.9913191 C74.9439936,13.8803295 75.1631012,13.7497535 75.3440459,13.5976325 C75.5555503,13.4433658 75.7389172,13.2543545 75.8862219,13.0387672 L76.1994207,13.8463798 C76.0415053,14.0722763 75.8427952,14.2687931 75.6151339,14.4254843 C75.4203716,14.5776054 75.1670491,14.7120987 74.8538503,14.8296171 C74.5413095,14.9471355 74.1827101,15.0052418 73.7800259,15.0052418 C72.722651,15.0052418 71.9060971,14.5325567 71.3290481,13.5878393 C70.7519991,12.6424691 70.4631456,11.3145111 70.4631456,9.60331264 C70.4631456,7.87905655 70.7487092,6.54065254 71.3185204,5.58810061 C71.8883316,4.63620157 72.7160712,4.16025205 73.8004233,4.16025205 C74.3432573,4.16025205 74.8018698,4.25361389 75.1775768,4.43968469 C75.5526257,4.62575549 75.8585867,4.85752789 76.0948018,5.13304325 L75.8237137,6.16785806 C75.5850073,5.84832344 75.2962181,5.56882647 74.9683389,5.34000621 C74.6347428,5.10496941 74.2458762,4.98810389 73.8004233,4.98810389 C72.994397,4.98810389 72.3995826,5.38831933 72.0172958,6.18875022 C71.6350091,6.9891811 71.4435367,8.12715095 71.4435367,9.60331264 C71.4435367,11.0383429 71.6310612,12.1560735 72.0067681,12.9565043 C72.3818171,13.7562823 72.9805795,14.1564978 73.8004233,14.1564978 L73.8004233,14.1564978 Z M82.6028882,7.53368303 C82.5985169,7.05641447 82.6264342,6.57939291 82.6864517,6.10583446 L82.6232856,6.10583446 C82.5556579,6.33543907 82.4721146,6.56013016 82.3732529,6.77830086 C82.2758718,6.9924455 82.1719109,7.21638334 82.0607121,7.45076727 L78.6385549,14.7982788 L77.8048934,14.7982788 L77.8048934,4.36721501 L78.7227764,4.36721501 L78.7227764,11.6109187 C78.7247503,12.1018844 78.6964572,12.5921973 78.6392129,13.0798987 L78.701721,13.0798987 C78.770809,12.8461676 78.8543725,12.6150481 78.9517537,12.387193 C79.0491348,12.1593379 79.1537537,11.9282183 79.2649524,11.6938344 L82.6857937,4.36721501 L83.5411685,4.36721501 L83.5411685,14.7982788 L82.6022302,14.7982788 L82.6022302,7.53368303 L82.6028882,7.53368303 L82.6028882,7.53368303 Z"/>
    </g>
</svg>
