<svg width="121" height="121" viewBox="0 0 121 121" fill="none" xmlns="http://www.w3.org/2000/svg">
<path opacity="0.8" fill-rule="evenodd" clip-rule="evenodd" d="M93.0271 111.114H27.7978C27.2396 111.114 26.6863 111.094 26.1385 111.055C11.3965 110.732 0.500745 99.1176 0.5 84.8384C0.504286 77.8786 3.62041 71.6516 8.15302 66.2043C10.3197 63.6005 11.8888 61.8841 15.0573 60.3183C15.0009 59.6101 14.9722 58.8944 14.9722 58.1723C14.9768 50.8287 18.0092 43.7877 23.4023 38.5982C28.7955 33.4087 36.1075 30.4958 43.7299 30.5002C53.4939 30.5117 62.0102 35.6017 67.1909 42.7815C70.6019 41.9417 74.8196 41.6733 77.5787 41.6748C89.767 41.6889 99.7776 50.6401 100.938 62.0873C112.617 64.5401 120.51 74.1778 120.499 86.1621C120.487 99.9729 108.86 111.161 94.5246 111.155C94.022 111.155 93.5227 111.141 93.0271 111.114Z" fill="url(#paint0_linear_3867_142526)"/>
<g filter="url(#filter0_d_3867_142526)">
<rect x="28.5" y="17.5" width="64" height="79" rx="6" fill="white"/>
</g>
<rect opacity="0.4" x="38.5" y="27.5" width="44" height="44" rx="3" fill="#C3F0FF"/>
<path opacity="0.8" d="M71.164 60.4424C71.8836 60.1808 72.2829 59.4246 72.1354 58.6733L71.6256 56.077C71.6256 54.9936 70.1828 53.756 67.3415 53.0349C66.3789 52.7713 65.4639 52.3626 64.629 51.8234C64.4465 51.721 64.4742 50.7749 64.4742 50.7749L63.5591 50.6382C63.5591 50.5614 63.4809 49.4268 63.4809 49.4268C64.5758 49.0656 64.4631 46.9353 64.4631 46.9353C65.1584 47.3139 65.6113 45.628 65.6113 45.628C66.4337 43.2858 65.2017 43.4275 65.2017 43.4275C65.4173 41.9976 65.4173 40.5444 65.2017 39.1145C64.654 34.3713 56.4078 35.659 57.3856 37.2081C54.9755 36.7723 55.5254 42.1551 55.5254 42.1551L56.0482 43.5489C55.3236 44.0103 55.4659 44.5397 55.6249 45.1311C55.6911 45.3776 55.7603 45.6349 55.7707 45.9026C55.8212 47.2458 56.6586 46.9675 56.6586 46.9675C56.7102 49.1844 57.824 49.4731 57.824 49.4731C58.0332 50.8653 57.9028 50.6284 57.9028 50.6284L56.9117 50.746C56.9251 51.0626 56.8988 51.3797 56.8334 51.69C56.2576 51.9419 55.905 52.1424 55.556 52.3409C55.1986 52.544 54.845 52.7451 54.2591 52.9973C52.0216 53.9597 49.5899 55.2115 49.1576 56.8968C49.0313 57.3895 48.9075 58.0518 48.7956 58.7425C48.6783 59.4663 49.0807 60.1749 49.7695 60.4265C52.7747 61.5244 56.1664 62.1751 59.7642 62.2523H61.2128C64.7933 62.1754 68.1696 61.5307 71.164 60.4424Z" fill="#2FC6F6"/>
<path d="M38.5 34.54V29.5C38.5 28.3954 39.3954 27.5 40.5 27.5H45.54" stroke="#C3F0FF" stroke-width="2" stroke-linecap="round" stroke-linejoin="round"/>
<path d="M38.5 64.46V69.5C38.5 70.6046 39.3954 71.5 40.5 71.5H45.54" stroke="#C3F0FF" stroke-width="2" stroke-linecap="round" stroke-linejoin="round"/>
<path d="M82.5 34.54V29.5C82.5 28.3954 81.6046 27.5 80.5 27.5H75.46" stroke="#C3F0FF" stroke-width="2" stroke-linecap="round" stroke-linejoin="round"/>
<path d="M82.5 64.46V69.5C82.5 70.6046 81.6046 71.5 80.5 71.5H75.46" stroke="#C3F0FF" stroke-width="2" stroke-linecap="round" stroke-linejoin="round"/>
<rect x="37.5" y="79.5" width="46" height="3" rx="1.5" fill="#E6E7E9"/>
<rect x="41.5" y="86.5" width="38" height="3" rx="1.5" fill="#E6E7E9"/>
<defs>
<filter id="filter0_d_3867_142526" x="21.4256" y="12.7837" width="78.1488" height="93.1488" filterUnits="userSpaceOnUse" color-interpolation-filters="sRGB">
<feFlood flood-opacity="0" result="BackgroundImageFix"/>
<feColorMatrix in="SourceAlpha" type="matrix" values="0 0 0 0 0 0 0 0 0 0 0 0 0 0 0 0 0 0 127 0" result="hardAlpha"/>
<feOffset dy="2.35813"/>
<feGaussianBlur stdDeviation="3.5372"/>
<feComposite in2="hardAlpha" operator="out"/>
<feColorMatrix type="matrix" values="0 0 0 0 0.423529 0 0 0 0 0.423529 0 0 0 0 0.423529 0 0 0 0.12 0"/>
<feBlend mode="normal" in2="BackgroundImageFix" result="effect1_dropShadow_3867_142526"/>
<feBlend mode="normal" in="SourceGraphic" in2="effect1_dropShadow_3867_142526" result="shape"/>
</filter>
<linearGradient id="paint0_linear_3867_142526" x1="60.0243" y1="45.7495" x2="60.0242" y2="111.155" gradientUnits="userSpaceOnUse">
<stop stop-color="#DBF6FF" stop-opacity="0.5"/>
<stop offset="1" stop-color="#DBF6FF"/>
</linearGradient>
</defs>
</svg>
