<svg width="121" height="121" viewBox="0 0 121 121" fill="none" xmlns="http://www.w3.org/2000/svg">
<path opacity="0.12" fill-rule="evenodd" clip-rule="evenodd" d="M93.0271 111.114H27.7978C27.2396 111.114 26.6863 111.094 26.1385 111.055C11.3965 110.732 0.500745 99.1176 0.5 84.8384C0.504286 77.8786 3.62041 71.6516 8.15302 66.2043C10.3197 63.6005 11.8888 61.8841 15.0573 60.3183C15.0009 59.6101 14.9722 58.8944 14.9722 58.1723C14.9768 50.8287 18.0092 43.7877 23.4023 38.5982C28.7955 33.4087 36.1075 30.4958 43.7299 30.5002C53.4939 30.5117 62.0102 35.6017 67.1909 42.7815C70.6019 41.9417 74.8196 41.6733 77.5787 41.6748C89.767 41.6889 99.7776 50.6401 100.938 62.0873C112.617 64.5401 120.51 74.1778 120.499 86.1621C120.487 99.9729 108.86 111.161 94.5246 111.155C94.022 111.155 93.5227 111.141 93.0271 111.114Z" fill="#A8ADB4"/>
<g filter="url(#filter0_d_4020_278806)">
<rect x="27.5" y="17.5" width="64" height="79" rx="6" fill="white"/>
</g>
<g opacity="0.6">
<rect opacity="0.4" x="37.5" y="27.5" width="44" height="44" rx="3" fill="#D5D7DB"/>
<g opacity="0.7">
<path opacity="0.8" d="M70.165 60.4424C70.8846 60.1808 71.2839 59.4246 71.1363 58.6733L70.6266 56.077C70.6266 54.9936 69.1837 53.756 66.3425 53.0349C65.3799 52.7713 64.4648 52.3626 63.63 51.8234C63.4475 51.721 63.4752 50.7749 63.4752 50.7749L62.5601 50.6382C62.5601 50.5614 62.4819 49.4268 62.4819 49.4268C63.5767 49.0656 63.4641 46.9353 63.4641 46.9353C64.1594 47.3139 64.6122 45.628 64.6122 45.628C65.4346 43.2858 64.2027 43.4275 64.2027 43.4275C64.4182 41.9976 64.4182 40.5444 64.2027 39.1145C63.655 34.3713 55.4088 35.659 56.3865 37.2081C53.9765 36.7723 54.5264 42.1551 54.5264 42.1551L55.0492 43.5489C54.3246 44.0103 54.4669 44.5397 54.6258 45.1311C54.6921 45.3776 54.7612 45.6349 54.7717 45.9026C54.8222 47.2458 55.6596 46.9675 55.6596 46.9675C55.7112 49.1844 56.8249 49.4731 56.8249 49.4731C57.0341 50.8653 56.9037 50.6284 56.9037 50.6284L55.9126 50.746C55.926 51.0626 55.8998 51.3797 55.8344 51.69C55.2585 51.9419 54.906 52.1424 54.5569 52.3409C54.1996 52.544 53.8459 52.7451 53.2601 52.9973C51.0226 53.9597 48.5909 55.2115 48.1586 56.8968C48.0322 57.3895 47.9085 58.0518 47.7966 58.7425C47.6793 59.4663 48.0817 60.1749 48.7704 60.4265C51.7757 61.5244 55.1673 62.1751 58.7652 62.2523H60.2138C63.7943 62.1754 67.1705 61.5307 70.165 60.4424Z" fill="#A8ADB4"/>
</g>
<path d="M37.5 34.54V29.5C37.5 28.3954 38.3954 27.5 39.5 27.5H44.54" stroke="#DFE0E3" stroke-width="2" stroke-linecap="round" stroke-linejoin="round"/>
<path d="M37.5 64.46V69.5C37.5 70.6046 38.3954 71.5 39.5 71.5H44.54" stroke="#DFE0E3" stroke-width="2" stroke-linecap="round" stroke-linejoin="round"/>
<path d="M81.5 34.54V29.5C81.5 28.3954 80.6046 27.5 79.5 27.5H74.46" stroke="#DFE0E3" stroke-width="2" stroke-linecap="round" stroke-linejoin="round"/>
</g>
<rect x="36.5" y="79.5" width="46" height="3" rx="1.5" fill="#E6E7E9"/>
<rect x="40.5" y="86.5" width="38" height="3" rx="1.5" fill="#E6E7E9"/>
<path fill-rule="evenodd" clip-rule="evenodd" d="M97.4598 78.1719C103.32 70.2427 102.658 59.008 95.4752 51.8251C87.5637 43.9136 74.7366 43.9136 66.8251 51.8251C58.9136 59.7366 58.9136 72.5637 66.8251 80.4752C73.8393 87.4894 84.7174 88.285 92.608 82.8618L104.54 94.7937C105.097 95.3505 105.999 95.3505 106.556 94.7937L109.311 92.0391C109.868 91.4823 109.868 90.5797 109.311 90.023L97.4598 78.1719ZM92.4697 54.8305C98.7213 61.0822 98.7213 71.2181 92.4697 77.4697C86.2181 83.7213 76.0822 83.7213 69.8306 77.4697C63.5789 71.2181 63.5789 61.0822 69.8306 54.8305C76.0822 48.5789 86.2181 48.5789 92.4697 54.8305Z" fill="#2FC6F6"/>
<path opacity="0.4" d="M92.4705 54.8306C98.7221 61.0822 98.7221 71.2181 92.4705 77.4697C86.2188 83.7214 76.0829 83.7214 69.8313 77.4697C63.5797 71.2181 63.5797 61.0822 69.8313 54.8306C76.0829 48.5789 86.2188 48.5789 92.4705 54.8306Z" fill="white"/>
<defs>
<filter id="filter0_d_4020_278806" x="20.4256" y="12.7837" width="78.1488" height="93.1488" filterUnits="userSpaceOnUse" color-interpolation-filters="sRGB">
<feFlood flood-opacity="0" result="BackgroundImageFix"/>
<feColorMatrix in="SourceAlpha" type="matrix" values="0 0 0 0 0 0 0 0 0 0 0 0 0 0 0 0 0 0 127 0" result="hardAlpha"/>
<feOffset dy="2.35813"/>
<feGaussianBlur stdDeviation="3.5372"/>
<feComposite in2="hardAlpha" operator="out"/>
<feColorMatrix type="matrix" values="0 0 0 0 0.423529 0 0 0 0 0.423529 0 0 0 0 0.423529 0 0 0 0.12 0"/>
<feBlend mode="normal" in2="BackgroundImageFix" result="effect1_dropShadow_4020_278806"/>
<feBlend mode="normal" in="SourceGraphic" in2="effect1_dropShadow_4020_278806" result="shape"/>
</filter>
</defs>
</svg>
