<svg width="375" height="874" viewBox="0 0 375 874" fill="none" xmlns="http://www.w3.org/2000/svg" xmlns:xlink="http://www.w3.org/1999/xlink">
<rect width="375" height="874" fill="white"/>
<path opacity="0.178418" fill-rule="evenodd" clip-rule="evenodd" d="M0 0L375 0L375 874L0 874L0 0Z" fill="#2EEB5C"/>
<mask id="mask0" mask-type="alpha" maskUnits="userSpaceOnUse" x="0" y="0" width="375" height="874">
<path fill-rule="evenodd" clip-rule="evenodd" d="M0 0L375 0L375 874L0 874L0 0Z" fill="white"/>
</mask>
<g mask="url(#mask0)">
<g opacity="0.55">
<path fill-rule="evenodd" clip-rule="evenodd" d="M243.32 262.465C265.638 252.063 285.604 242.756 305.724 233.375C325.811 242.734 345.773 252.035 368.137 262.453C365.295 238.123 362.744 216.271 360.106 193.671C375.001 177.436 390.083 160.992 406.874 142.691C382.204 137.77 360.687 133.474 339.362 129.222C328.107 108.992 317.258 89.4943 305.681 68.6812C293.746 90.1735 282.786 109.92 272.046 129.272C249.657 133.76 228.323 138.039 204.429 142.834C221.608 161.374 236.602 177.56 251.361 193.488C248.707 216.252 246.16 238.116 243.32 262.465ZM355.542 106.947C388.115 113.339 420.378 119.665 456.024 126.659C432.251 152.381 410.06 176.383 386.554 201.817C390.322 234.213 394.228 267.782 398.492 304.431C365.984 289.191 336.25 275.253 305.746 260.956C275.906 274.949 245.766 289.088 212.845 304.53C217.115 268.619 221 235.962 225.028 202.068C202.704 177.877 180.094 153.377 155.514 126.74C190.704 119.789 223.246 113.364 255.947 106.907C272.347 77.1151 288.477 47.8137 305.69 16.5491C322.58 47.1841 338.614 76.256 355.542 106.947Z" fill="white"/>
</g>
<g opacity="0.55">
<path fill-rule="evenodd" clip-rule="evenodd" d="M-14.6796 697.465C7.63805 687.063 27.6035 677.756 47.7242 668.374C67.8107 677.734 87.7731 687.035 110.137 697.453C107.295 673.123 104.744 651.271 102.106 628.671C117.001 612.436 132.083 595.992 148.874 577.691C124.204 572.77 102.687 568.474 81.362 564.222C70.107 543.992 59.2585 524.494 47.6808 503.681C35.7461 525.173 24.7859 544.92 14.046 564.272C-8.34303 568.76 -29.677 573.039 -53.571 577.834C-36.3922 596.374 -21.3979 612.56 -6.6394 628.488C-9.29258 651.252 -11.8402 673.116 -14.6796 697.465ZM97.5417 541.947C130.115 548.339 162.378 554.665 198.024 561.659C174.251 587.381 152.06 611.383 128.554 636.817C132.322 669.213 136.228 702.782 140.492 739.43C107.984 724.191 78.2496 710.253 47.746 695.956C17.9063 709.949 -12.2343 724.088 -45.1553 739.53C-40.8854 703.619 -37.0003 670.962 -32.9725 637.068C-55.2963 612.877 -77.9057 588.377 -102.486 561.74C-67.2961 554.789 -34.7537 548.363 -2.05296 541.906C14.347 512.115 30.4771 482.814 47.6901 451.549C64.5804 482.184 80.6142 511.256 97.5417 541.947Z" fill="white"/>
</g>
<g opacity="0.4">
<g filter="url(#filter0_f)">
<path fill-rule="evenodd" clip-rule="evenodd" d="M53.0555 328.171C58.4238 325.669 63.2263 323.431 68.0661 321.174C72.8977 323.425 77.6995 325.663 83.079 328.168C82.3952 322.316 81.7817 317.06 81.1472 311.624C84.7301 307.718 88.3577 303.763 92.3966 299.361C86.4625 298.177 81.2868 297.144 76.1574 296.121C73.4501 291.255 70.8406 286.565 68.0556 281.559C65.1849 286.728 62.5485 291.478 59.9651 296.133C54.5797 297.213 49.448 298.242 43.7005 299.395C47.8327 303.855 51.4394 307.748 54.9894 311.58C54.3512 317.055 53.7384 322.315 53.0555 328.171ZM80.0492 290.763C87.8845 292.3 95.6451 293.822 104.219 295.504C98.5009 301.691 93.1632 307.465 87.509 313.583C88.4152 321.375 89.3549 329.45 90.3805 338.265C82.561 334.6 75.4087 331.247 68.0713 327.808C60.8937 331.174 53.6436 334.575 45.7248 338.289C46.7519 329.651 47.6864 321.796 48.6553 313.643C43.2855 307.824 37.847 301.931 31.9346 295.524C40.399 293.852 48.2268 292.306 56.0927 290.753C60.0375 283.587 63.9175 276.539 68.0579 269.018C72.1207 276.387 75.9775 283.38 80.0492 290.763Z" fill="white"/>
</g>
</g>
<g opacity="0.4">
<g filter="url(#filter1_f)">
<path fill-rule="evenodd" clip-rule="evenodd" d="M292.055 773.171C297.424 770.669 302.226 768.431 307.066 766.174C311.898 768.425 316.699 770.663 322.079 773.168C321.395 767.316 320.782 762.06 320.147 756.624C323.73 752.718 327.358 748.763 331.397 744.361C325.463 743.177 320.287 742.144 315.157 741.121C312.45 736.255 309.841 731.565 307.056 726.558C304.185 731.728 301.549 736.478 298.965 741.133C293.58 742.212 288.448 743.242 282.7 744.395C286.833 748.855 290.439 752.748 293.989 756.58C293.351 762.055 292.738 767.314 292.055 773.171ZM319.049 735.763C326.884 737.3 334.645 738.822 343.219 740.504C337.501 746.691 332.163 752.465 326.509 758.583C327.415 766.375 328.355 774.45 329.381 783.265C321.561 779.6 314.409 776.247 307.071 772.808C299.894 776.174 292.644 779.575 284.725 783.289C285.752 774.651 286.686 766.796 287.655 758.643C282.285 752.824 276.847 746.931 270.935 740.523C279.399 738.852 287.227 737.306 295.093 735.753C299.038 728.587 302.917 721.539 307.058 714.018C311.121 721.387 314.977 728.38 319.049 735.763Z" fill="white"/>
</g>
</g>
</g>
<defs>
<filter id="filter0_f" x="29.2163" y="266.3" width="77.7213" height="74.7076" filterUnits="userSpaceOnUse" color-interpolation-filters="sRGB">
<feFlood flood-opacity="0" result="BackgroundImageFix"/>
<feBlend mode="normal" in="SourceGraphic" in2="BackgroundImageFix" result="shape"/>
<feGaussianBlur stdDeviation="1.35914" result="effect1_foregroundBlur"/>
</filter>
<filter id="filter1_f" x="268.216" y="711.3" width="77.7213" height="74.7076" filterUnits="userSpaceOnUse" color-interpolation-filters="sRGB">
<feFlood flood-opacity="0" result="BackgroundImageFix"/>
<feBlend mode="normal" in="SourceGraphic" in2="BackgroundImageFix" result="shape"/>
<feGaussianBlur stdDeviation="1.35914" result="effect1_foregroundBlur"/>
</filter>
</defs>
</svg>
