<svg width="24" height="24" viewBox="0 0 24 24" fill="none" xmlns="http://www.w3.org/2000/svg">
<g id="Icon. Calendar">
<g id="Icon 13">
<path d="M11.4907 10.3123H12.6133C12.8394 10.3123 13.0227 10.4944 13.0227 10.7191V11.8343C13.0227 12.0589 12.8394 12.241 12.6133 12.241H11.4907C11.2646 12.241 11.0813 12.0589 11.0813 11.8343V10.7191C11.0813 10.4944 11.2646 10.3123 11.4907 10.3123Z" fill="#525C69"/>
<path d="M9.70208 10.3126H8.57947C8.35336 10.3126 8.17007 10.4947 8.17007 10.7193V11.8345C8.17007 12.0591 8.35336 12.2412 8.57947 12.2412H9.70208C9.92818 12.2412 10.1115 12.0591 10.1115 11.8345V10.7193C10.1115 10.4947 9.92818 10.3126 9.70208 10.3126Z" fill="#525C69"/>
<path d="M9.70113 13.2054H8.57852C8.35242 13.2054 8.16912 13.3874 8.16912 13.6121V14.7273C8.16912 14.9519 8.35242 15.134 8.57852 15.134H9.70113C9.92724 15.134 10.1105 14.9519 10.1105 14.7273V13.6121C10.1105 13.3874 9.92724 13.2054 9.70113 13.2054Z" fill="#525C69"/>
<path d="M12.6133 13.2054H11.4907C11.2646 13.2054 11.0813 13.3874 11.0813 13.6121V14.7273C11.0813 14.9519 11.2646 15.134 11.4907 15.134H12.6133C12.8394 15.134 13.0227 14.9519 13.0227 14.7273V13.6121C13.0227 13.3874 12.8394 13.2054 12.6133 13.2054Z" fill="#525C69"/>
<path d="M14.4029 10.3123H15.5255C15.7516 10.3123 15.9349 10.4944 15.9349 10.7191V11.8343C15.9349 12.0589 15.7516 12.241 15.5255 12.241H14.4029C14.1768 12.241 13.9935 12.0589 13.9935 11.8343V10.7191C13.9935 10.4944 14.1768 10.3123 14.4029 10.3123Z" fill="#525C69"/>
<path fill-rule="evenodd" clip-rule="evenodd" d="M16.6486 5.691V5.15946H17.8308C18.9103 5.2275 19.7467 6.16407 19.7272 7.28562V17.9164C19.7272 18.5032 19.2685 18.9795 18.701 18.9795H5.30482C4.73836 18.9795 4.27862 18.5032 4.27862 17.9164V7.28562C4.27451 7.23034 4.27246 7.17612 4.27246 7.12191C4.27451 6.03544 5.12627 5.15734 6.17505 5.15946H7.35724V5.691C7.35724 6.57123 8.04582 7.28562 8.89654 7.28562C9.74727 7.28562 10.4359 6.57123 10.4359 5.691V5.15946H13.57V5.691C13.57 6.57123 14.2596 7.28562 15.1093 7.28562C15.959 7.28562 16.6486 6.57123 16.6486 5.691ZM17.6748 16.8533H6.33106V8.40898H17.6748V16.8533Z" fill="#525C69"/>
<path d="M9.65071 4.31111V5.4805C9.65071 5.91211 9.31308 6.26186 8.89644 6.26186C8.4798 6.26186 8.14218 5.91211 8.14218 5.4805V4.31111L8.14771 4.20959C8.19329 3.82206 8.51469 3.52246 8.90157 3.52442C9.31821 3.52762 9.65275 3.8795 9.65071 4.31111Z" fill="#525C69"/>
<path d="M15.8215 4.33979V5.44858C15.8215 5.85574 15.5024 6.18636 15.1083 6.18636C14.7142 6.1853 14.3971 5.85468 14.3971 5.44752V4.33979C14.3971 3.93157 14.7163 3.60201 15.1093 3.60201C15.5024 3.60201 15.8215 3.93157 15.8215 4.33979Z" fill="#525C69"/>
</g>
</g>
</svg>
