<svg width="28" height="29" viewBox="0 0 28 29" fill="none" xmlns="http://www.w3.org/2000/svg">
	<path fill-rule="evenodd" clip-rule="evenodd" d="M6.63044 6.63184L21.0466 21.0479L19.7601 22.3344L17.6228 20.1968L17.5358 20.2369C16.4415 20.7212 15.3102 20.9633 14.1421 20.9633C10.6878 20.9633 7.55635 18.8463 4.74773 14.6123C4.69216 14.5285 4.68289 14.4238 4.71993 14.3331L4.74773 14.2806L4.93967 13.9951C5.90046 12.587 6.89865 11.424 7.93421 10.5062L5.34398 7.91828L6.63044 6.63184ZM14.1421 7.92944C17.5964 7.92944 20.7278 10.0464 23.5364 14.2805C23.592 14.3642 23.6013 14.4689 23.5642 14.5597L23.5364 14.6122L23.3445 14.8976C22.4048 16.2748 21.4293 17.4175 20.4181 18.3257L17.3635 15.2704C17.4307 15.0069 17.4664 14.7308 17.4664 14.4464C17.4664 12.6104 15.978 11.1221 14.1421 11.1221C13.8574 11.1221 13.581 11.1578 13.3172 11.2252L10.7473 8.65622C11.842 8.1717 12.9736 7.92944 14.1421 7.92944ZM10.8178 14.4464C10.8178 16.2823 12.3061 17.7707 14.1421 17.7707C14.4626 17.7707 14.7725 17.7253 15.0658 17.6407L10.9478 13.5227C10.8632 13.8159 10.8178 14.1258 10.8178 14.4464Z" fill="#A8ADB4"/>
</svg>
