<svg width="28" height="29" viewBox="0 0 28 29" fill="none" xmlns="http://www.w3.org/2000/svg">
	<path fill-rule="evenodd" clip-rule="evenodd" d="M23.5039 14.6925C22.74 15.7843 18.8271 21.0257 14.115 21.0257C9.40286 21.0257 5.49 15.7843 4.72611 14.6925C4.64122 14.5712 4.64122 14.4184 4.72611 14.297C5.49 13.2053 9.40286 7.96387 14.115 7.96387C18.8271 7.96387 22.74 13.2053 23.5039 14.297C23.5888 14.4184 23.5888 14.5712 23.5039 14.6925ZM17.4463 14.4948C17.4463 16.3347 15.9548 17.8262 14.1149 17.8262C12.2749 17.8262 10.7834 16.3347 10.7834 14.4948C10.7834 12.6549 12.2749 11.1633 14.1149 11.1633C15.9548 11.1633 17.4463 12.6549 17.4463 14.4948Z" fill="#29A8DF"/>
</svg>
