<svg width="154" height="30" viewBox="0 0 123 24" fill="none" xmlns="http://www.w3.org/2000/svg">
	<path d="M1.52734 6.36426H5.3042C6.92008 6.36426 8.14307 6.59115 8.97314 7.04492C9.80322 7.4987 10.2183 8.29557 10.2183 9.43555C10.2183 9.89486 10.1436 10.3099 9.99414 10.6807C9.85026 11.0514 9.63997 11.3558 9.36328 11.5938C9.08659 11.8317 8.74902 11.9867 8.35059 12.0586V12.1416C8.75456 12.2246 9.11979 12.3685 9.44629 12.5732C9.77279 12.7725 10.0329 13.0658 10.2266 13.4531C10.4258 13.835 10.5254 14.3441 10.5254 14.9805C10.5254 15.7165 10.3455 16.3473 9.98584 16.873C9.62614 17.3988 9.11149 17.8027 8.44189 18.085C7.77783 18.3617 6.98649 18.5 6.06787 18.5H1.52734V6.36426ZM4.10059 11.1704H5.59473C6.3418 11.1704 6.85921 11.0542 7.14697 10.8218C7.43473 10.5838 7.57861 10.2352 7.57861 9.77588C7.57861 9.31104 7.40706 8.979 7.06396 8.77979C6.7264 8.57503 6.18962 8.47266 5.45361 8.47266H4.10059V11.1704ZM4.10059 13.2124V16.375H5.77734C6.55208 16.375 7.09163 16.2256 7.396 15.9268C7.70036 15.6279 7.85254 15.2267 7.85254 14.7231C7.85254 14.4243 7.78613 14.1615 7.65332 13.9346C7.52051 13.7077 7.29639 13.5306 6.98096 13.4033C6.67106 13.276 6.24219 13.2124 5.69434 13.2124H4.10059ZM11.9492 18.5V6.36426H14.5225V18.5H11.9492Z" fill="#2FC6F6"/>
	<path d="M29.8877 18.5H26.9658L22.5664 12.3491V18.5H19.9932V6.36426H22.5664V12.2412L26.916 6.36426H29.6553L25.231 12.1914L29.8877 18.5ZM38.6494 13.8433C38.6494 14.618 38.5443 15.3042 38.334 15.9019C38.1292 16.4995 37.8276 17.0059 37.4292 17.4209C37.0363 17.8304 36.5604 18.1403 36.0015 18.3506C35.4481 18.5609 34.8228 18.666 34.1255 18.666C33.4725 18.666 32.8721 18.5609 32.3242 18.3506C31.7819 18.1403 31.3088 17.8304 30.9048 17.4209C30.5063 17.0059 30.1965 16.4995 29.9751 15.9019C29.7593 15.3042 29.6514 14.618 29.6514 13.8433C29.6514 12.814 29.834 11.9424 30.1992 11.2285C30.5645 10.5146 31.0846 9.97233 31.7598 9.60156C32.4349 9.23079 33.2401 9.04541 34.1753 9.04541C35.0441 9.04541 35.8133 9.23079 36.4829 9.60156C37.158 9.97233 37.6865 10.5146 38.0684 11.2285C38.4557 11.9424 38.6494 12.814 38.6494 13.8433ZM32.2329 13.8433C32.2329 14.452 32.2993 14.9639 32.4321 15.3789C32.5649 15.7939 32.7725 16.1066 33.0547 16.3169C33.3369 16.5272 33.7049 16.6323 34.1587 16.6323C34.6069 16.6323 34.9694 16.5272 35.2461 16.3169C35.5283 16.1066 35.7331 15.7939 35.8604 15.3789C35.9932 14.9639 36.0596 14.452 36.0596 13.8433C36.0596 13.229 35.9932 12.7199 35.8604 12.3159C35.7331 11.9064 35.5283 11.5993 35.2461 11.3945C34.9639 11.1898 34.5959 11.0874 34.1421 11.0874C33.4725 11.0874 32.9855 11.3171 32.6812 11.7764C32.3823 12.2357 32.2329 12.9246 32.2329 13.8433ZM42.2729 9.21973V12.7891H45.8091V9.21973H48.3408V18.5H45.8091V14.6733H42.2729V18.5H39.7412V9.21973H42.2729ZM53.7656 18.666C52.847 18.666 52.064 18.5 51.4165 18.168C50.769 17.8304 50.2765 17.3102 49.939 16.6074C49.6014 15.9046 49.4326 15.0054 49.4326 13.9097C49.4326 12.7752 49.6235 11.8511 50.0054 11.1372C50.3927 10.4178 50.9268 9.88932 51.6074 9.55176C52.2936 9.21419 53.0877 9.04541 53.9897 9.04541C54.6317 9.04541 55.1851 9.10905 55.6499 9.23633C56.1203 9.35807 56.5298 9.50472 56.8784 9.67627L56.1313 11.6353C55.7329 11.4748 55.3621 11.3447 55.019 11.2451C54.6759 11.14 54.3328 11.0874 53.9897 11.0874C53.547 11.0874 53.179 11.1925 52.8857 11.4028C52.5924 11.6076 52.3739 11.9175 52.23 12.3325C52.0861 12.7476 52.0142 13.2677 52.0142 13.8931C52.0142 14.5073 52.0916 15.0164 52.2466 15.4204C52.4015 15.8244 52.6257 16.126 52.9189 16.3252C53.2122 16.5189 53.5692 16.6157 53.9897 16.6157C54.5155 16.6157 54.9831 16.5465 55.3926 16.4082C55.8021 16.2643 56.2005 16.0651 56.5879 15.8105V17.9771C56.2005 18.2205 55.7938 18.3949 55.3677 18.5C54.9471 18.6107 54.4131 18.666 53.7656 18.666ZM65.4243 11.1206H62.3862V18.5H59.8545V11.1206H56.8081V9.21973H65.4243V11.1206ZM71.3223 9.04541C72.3682 9.04541 73.2121 9.45215 73.854 10.2656C74.5015 11.0791 74.8252 12.2716 74.8252 13.8433C74.8252 14.8947 74.673 15.7801 74.3687 16.4995C74.0643 17.2134 73.6437 17.7529 73.1069 18.1182C72.5701 18.4834 71.9531 18.666 71.2559 18.666C70.8076 18.666 70.423 18.6107 70.1021 18.5C69.7811 18.3838 69.5072 18.2371 69.2803 18.0601C69.0534 17.8774 68.8569 17.6838 68.6909 17.479H68.5581C68.6024 17.7004 68.6356 17.9272 68.6577 18.1597C68.6799 18.3921 68.6909 18.619 68.6909 18.8403V22.584H66.1592V9.21973H68.2178L68.5747 10.4233H68.6909C68.8569 10.1743 69.0589 9.94466 69.2969 9.73438C69.5348 9.52409 69.8198 9.35807 70.1519 9.23633C70.4894 9.10905 70.8796 9.04541 71.3223 9.04541ZM70.5088 11.0708C70.0661 11.0708 69.7147 11.1621 69.4546 11.3447C69.1945 11.5273 69.0036 11.8013 68.8818 12.1665C68.7656 12.5317 68.702 12.9938 68.6909 13.5527V13.8267C68.6909 14.4243 68.7463 14.9307 68.8569 15.3457C68.9731 15.7607 69.1641 16.0762 69.4297 16.292C69.7008 16.5078 70.0716 16.6157 70.542 16.6157C70.9294 16.6157 71.2476 16.5078 71.4966 16.292C71.7456 16.0762 71.931 15.7607 72.0527 15.3457C72.18 14.9251 72.2437 14.4132 72.2437 13.8101C72.2437 12.9025 72.1025 12.2191 71.8203 11.7598C71.5381 11.3005 71.1009 11.0708 70.5088 11.0708ZM74.5889 9.21973H77.3613L79.1128 14.4409C79.1681 14.6069 79.2152 14.7757 79.2539 14.9473C79.2926 15.1188 79.3258 15.2959 79.3535 15.4785C79.3812 15.6611 79.4033 15.8521 79.4199 16.0513H79.4697C79.5029 15.7524 79.5472 15.473 79.6025 15.2129C79.6634 14.9528 79.7381 14.6955 79.8267 14.4409L81.5449 9.21973H84.2593L80.333 19.687C80.0951 20.3289 79.7852 20.863 79.4033 21.2891C79.0215 21.7207 78.5815 22.0444 78.0835 22.2603C77.591 22.4761 77.0487 22.584 76.4565 22.584C76.1688 22.584 75.9198 22.5674 75.7095 22.5342C75.4992 22.5065 75.3193 22.4761 75.1699 22.4429V20.4341C75.2861 20.4618 75.4328 20.4867 75.6099 20.5088C75.7869 20.5309 75.9723 20.542 76.166 20.542C76.5202 20.542 76.8245 20.4673 77.0791 20.3179C77.3337 20.1685 77.5467 19.9665 77.7183 19.7119C77.8898 19.4629 78.0254 19.189 78.125 18.8901L78.2744 18.4336L74.5889 9.21973ZM90.6802 9.21973H93.4692L89.792 13.6689L93.793 18.5H90.9209L87.1274 13.7935V18.5H84.5957V9.21973H87.1274V13.7271L90.6802 9.21973ZM101.799 11.1206H98.7612V18.5H96.2295V11.1206H93.1831V9.21973H101.799V11.1206ZM110.968 13.8433C110.968 14.618 110.863 15.3042 110.652 15.9019C110.448 16.4995 110.146 17.0059 109.748 17.4209C109.355 17.8304 108.879 18.1403 108.32 18.3506C107.766 18.5609 107.141 18.666 106.444 18.666C105.791 18.666 105.19 18.5609 104.643 18.3506C104.1 18.1403 103.627 17.8304 103.223 17.4209C102.825 17.0059 102.515 16.4995 102.293 15.9019C102.078 15.3042 101.97 14.618 101.97 13.8433C101.97 12.814 102.152 11.9424 102.518 11.2285C102.883 10.5146 103.403 9.97233 104.078 9.60156C104.753 9.23079 105.558 9.04541 106.494 9.04541C107.362 9.04541 108.132 9.23079 108.801 9.60156C109.476 9.97233 110.005 10.5146 110.387 11.2285C110.774 11.9424 110.968 12.814 110.968 13.8433ZM104.551 13.8433C104.551 14.452 104.618 14.9639 104.75 15.3789C104.883 15.7939 105.091 16.1066 105.373 16.3169C105.655 16.5272 106.023 16.6323 106.477 16.6323C106.925 16.6323 107.288 16.5272 107.564 16.3169C107.847 16.1066 108.051 15.7939 108.179 15.3789C108.312 14.9639 108.378 14.452 108.378 13.8433C108.378 13.229 108.312 12.7199 108.179 12.3159C108.051 11.9064 107.847 11.5993 107.564 11.3945C107.282 11.1898 106.914 11.0874 106.46 11.0874C105.791 11.0874 105.304 11.3171 105 11.7764C104.701 12.2357 104.551 12.9246 104.551 13.8433ZM117.223 9.04541C118.269 9.04541 119.112 9.45215 119.754 10.2656C120.402 11.0791 120.726 12.2716 120.726 13.8433C120.726 14.8947 120.573 15.7801 120.269 16.4995C119.965 17.2134 119.544 17.7529 119.007 18.1182C118.471 18.4834 117.854 18.666 117.156 18.666C116.708 18.666 116.323 18.6107 116.002 18.5C115.681 18.3838 115.408 18.2371 115.181 18.0601C114.954 17.8774 114.757 17.6838 114.591 17.479H114.458C114.503 17.7004 114.536 17.9272 114.558 18.1597C114.58 18.3921 114.591 18.619 114.591 18.8403V22.584H112.06V9.21973H114.118L114.475 10.4233H114.591C114.757 10.1743 114.959 9.94466 115.197 9.73438C115.435 9.52409 115.72 9.35807 116.052 9.23633C116.39 9.10905 116.78 9.04541 117.223 9.04541ZM116.409 11.0708C115.966 11.0708 115.615 11.1621 115.355 11.3447C115.095 11.5273 114.904 11.8013 114.782 12.1665C114.666 12.5317 114.602 12.9938 114.591 13.5527V13.8267C114.591 14.4243 114.647 14.9307 114.757 15.3457C114.874 15.7607 115.064 16.0762 115.33 16.292C115.601 16.5078 115.972 16.6157 116.442 16.6157C116.83 16.6157 117.148 16.5078 117.397 16.292C117.646 16.0762 117.831 15.7607 117.953 15.3457C118.08 14.9251 118.144 14.4132 118.144 13.8101C118.144 12.9025 118.003 12.2191 117.721 11.7598C117.438 11.3005 117.001 11.0708 116.409 11.0708Z" fill="#A4A8AE"/>
</svg>