<svg width="30" height="30" viewBox="0 0 30 30" fill="none" xmlns="http://www.w3.org/2000/svg">
<path fill-rule="evenodd" clip-rule="evenodd" d="M7.45531 7.19589L21.9622 21.4922L20.6676 22.7679L18.5169 20.6481L18.4294 20.6879C17.3282 21.1681 16.1898 21.4082 15.0142 21.4082C11.5382 21.4082 8.38705 19.3088 5.56074 15.11C5.50482 15.0269 5.49549 14.9231 5.53277 14.8331L5.56074 14.781L5.75389 14.498C6.72073 13.1016 7.72521 11.9483 8.76729 11.0381L6.16074 8.47165L7.45531 7.19589ZM15.0142 8.48271C18.4903 8.48271 21.6415 10.5821 24.4678 14.781C24.5237 14.864 24.533 14.9679 24.4957 15.0578L24.4678 15.1099L24.2746 15.393C23.329 16.7587 22.3474 17.892 21.3298 18.7926L18.2559 15.7627C18.3236 15.5014 18.3595 15.2276 18.3595 14.9455C18.3595 13.1248 16.8618 11.6488 15.0142 11.6488C14.7277 11.6488 14.4496 11.6843 14.1842 11.7511L11.5981 9.20345C12.6997 8.72296 13.8384 8.48271 15.0142 8.48271ZM11.669 14.9455C11.669 16.7662 13.1667 18.2422 15.0142 18.2422C15.3368 18.2422 15.6486 18.1972 15.9438 18.1132L11.7999 14.0295C11.7147 14.3203 11.669 14.6276 11.669 14.9455Z" fill="#828B95"/>
</svg>
