<svg width="30" height="30" viewBox="0 0 30 30" fill="none" xmlns="http://www.w3.org/2000/svg">
<path fill-rule="evenodd" clip-rule="evenodd" d="M10.2932 10.592L15.5461 6.95294V22.5362L10.2932 18.9901V18.7487C10.2597 18.753 10.2256 18.7552 10.1909 18.7552H7.0266C6.58517 18.7552 6.22731 18.3973 6.22731 17.9559V11.5333C6.22731 11.0918 6.58517 10.734 7.0266 10.734H10.1909C10.2256 10.734 10.2597 10.7362 10.2932 10.7405V10.592ZM22.8873 17.8829L24 16.7702L21.7746 14.5448L24 12.3194L22.8873 11.2066L20.6619 13.4321L18.4364 11.2066L17.3237 12.3194L19.5492 14.5448L17.3237 16.7702L18.4364 17.8829L20.6619 15.6575L22.8873 17.8829Z" fill="#828B95"/>
</svg>
