<svg width="30" height="30" viewBox="0 0 30 30" fill="none" xmlns="http://www.w3.org/2000/svg">
<path d="M12.7528 7.81033C12.7528 7.53419 12.5289 7.31033 12.2528 7.31033H9.29007C9.01393 7.31033 8.79007 7.53419 8.79007 7.81033V22.1897C8.79007 22.4658 9.01393 22.6897 9.29007 22.6897H12.2528C12.5289 22.6897 12.7528 22.4658 12.7528 22.1897V7.81033Z" fill="#828B95"/>
<path d="M21.2443 7.81033C21.2443 7.53419 21.0205 7.31033 20.7443 7.31033H17.7816C17.5055 7.31033 17.2816 7.53419 17.2816 7.81033V22.1897C17.2816 22.4658 17.5055 22.6897 17.7816 22.6897H20.7443C21.0205 22.6897 21.2443 22.4658 21.2443 22.1897V7.81033Z" fill="#828B95"/>
</svg>
