<svg width="30" height="30" viewBox="0 0 30 30" fill="none" xmlns="http://www.w3.org/2000/svg">
<path fill-rule="evenodd" clip-rule="evenodd" d="M7.79814 6.99805H18.2508C19.1342 6.99805 19.8503 7.71413 19.8503 8.59746V15.4098C19.8503 16.2931 19.1342 17.0092 18.2508 17.0092H13.5022L9.13915 21.3723V17.0092H7.79814C6.91481 17.0092 6.19873 16.2931 6.19873 15.4098V8.59746C6.19873 7.71413 6.91481 6.99805 7.79814 6.99805ZM9.23442 12.6273L11.7858 15.0351L16.8907 10.0439L15.8453 9.02507L11.7858 12.9974L10.2798 11.6085L9.23442 12.6273ZM12.6074 20.1058L12.6163 20.7832V23.5161L15.3492 20.7832H21.547C22.4303 20.7832 23.1464 20.0672 23.1464 19.1838V12.5406C23.1464 11.6573 22.4303 10.9412 21.547 10.9412H21.3607V16.9667C21.3607 17.85 20.6446 18.5661 19.7613 18.5661H14.0741L12.6074 20.1058Z" fill="#828B95"/>
</svg>
