<svg width="30" height="30" viewBox="0 0 30 30" fill="none" xmlns="http://www.w3.org/2000/svg">
<path fill-rule="evenodd" clip-rule="evenodd" d="M24.5359 15C24.5359 19.39 20.9771 22.9488 16.5871 22.9488C14.758 22.9488 13.0731 22.331 11.7299 21.2926L13.0478 19.6846C14.0319 20.4292 15.2579 20.8709 16.5872 20.8709C19.8298 20.8709 22.4585 18.2422 22.4585 14.9995C22.4585 11.7569 19.8298 9.12815 16.5872 9.12815C15.2465 9.12815 14.0107 9.57751 13.0224 10.3338L11.7051 8.72658C13.0524 7.67663 14.7467 7.05118 16.5871 7.05118C20.9771 7.05118 24.5359 10.61 24.5359 15ZM16.5872 18.9324C15.7244 18.9324 14.9265 18.6545 14.2781 18.1834L15.4385 16.7674C15.7689 16.9826 16.1634 17.1077 16.5872 17.1077C17.751 17.1077 18.6945 16.1642 18.6945 15.0003C18.6945 13.8365 17.751 12.893 16.5872 12.893C16.1523 12.893 15.7482 13.0247 15.4126 13.2504L14.2529 11.8353C14.9058 11.353 15.7132 11.0678 16.5872 11.0678C18.759 11.0678 20.5195 12.8284 20.5195 15.0001C20.5195 17.1719 18.759 18.9324 16.5872 18.9324ZM9.51243 9.99894L14.049 15.12L9.51243 20.2411V16.7456H5.46405V13.4946H9.51243V9.99894Z" fill="#828B95"/>
</svg>
