<svg width="30" height="30" viewBox="0 0 30 30" fill="none" xmlns="http://www.w3.org/2000/svg">
<path fill-rule="evenodd" clip-rule="evenodd" d="M23.6124 12.8694C24.1073 12.3754 24.1315 11.597 23.6663 11.1308L19.4509 6.918C18.9815 6.47424 18.221 6.50691 17.736 6.99168C17.2509 7.47644 17.2176 8.23693 17.661 8.70668L18.5227 9.56837L11.2838 15.0888L10.4366 14.2416C9.9672 13.7978 9.20672 13.8305 8.72162 14.3153C8.23652 14.8001 8.20331 15.5605 8.64672 16.0303L10.6748 18.0571L6.71867 23.4492C6.62987 23.5283 6.58935 23.6475 6.61347 23.7588C6.63759 23.8701 6.72237 23.9552 6.8336 23.9796C6.94482 24.0041 7.06415 23.9639 7.14343 23.8753L12.475 19.8599L14.5443 21.9253C15.0154 22.3599 15.7686 22.3231 16.2497 21.842C16.7307 21.3609 16.7675 20.6077 16.333 20.1367L15.4858 19.2895L21.0062 12.0518L21.8739 12.9196C22.3391 13.3858 23.1174 13.3633 23.6124 12.8694Z" fill="#828B95"/>
</svg>
