<svg width="30" height="30" viewBox="0 0 30 30" fill="none" xmlns="http://www.w3.org/2000/svg">
<path fill-rule="evenodd" clip-rule="evenodd" d="M15.536 7.96893V23.3994L10.284 19.8881L10.2849 19.6481C10.2494 19.653 10.2132 19.6554 10.1764 19.6554H7.02305C6.57881 19.6554 6.21867 19.2919 6.21867 18.8433V12.525C6.21867 12.0765 6.57881 11.7129 7.02305 11.7129H10.1764C10.2132 11.7129 10.2494 11.7154 10.2849 11.7202L10.284 11.5723L15.536 7.96893ZM21.3008 9.41888C23.0438 11.1286 23.9968 13.4177 23.9968 15.8367C23.9968 18.2558 23.0438 20.5465 21.3008 22.2547C21.0054 22.5444 20.5121 22.5444 20.1834 22.2547C20.051 22.0933 19.9521 21.9006 19.9521 21.7065C19.9521 21.5128 20.0176 21.32 20.1821 21.1588C21.663 19.7401 22.4516 17.8692 22.4516 15.8369C22.4516 13.8046 21.663 11.9335 20.1834 10.515C19.8879 10.2252 19.8879 9.74143 20.1834 9.41888C20.4788 9.1291 20.972 9.1291 21.3008 9.41888ZM19.2577 12.0962C20.2777 13.0953 20.8364 14.4182 20.8364 15.837C20.8364 17.2558 20.2777 18.5785 19.2577 19.579C18.9623 19.8689 18.4691 19.8689 18.1403 19.579C18.0301 19.4447 17.9439 19.2875 17.9182 19.1266L17.9104 19.0295C17.9104 18.8354 17.976 18.6427 18.1403 18.4814C18.8634 17.772 19.2577 16.8359 19.2577 15.8368C19.2577 14.8365 18.8634 13.9016 18.1403 13.1923C17.8449 12.9025 17.8449 12.4187 18.1403 12.0962C18.4357 11.8064 18.929 11.8064 19.2577 12.0962Z" fill="#828B95"/>
</svg>
