<svg width="30" height="30" viewBox="0 0 30 30" fill="none" xmlns="http://www.w3.org/2000/svg">
<path d="M16.8961 17.5112L21.4999 22.1149L23.0043 20.6104L9.95397 7.56008L8.44952 9.06454L13.1175 13.7325L11.3041 15.1154L10.4554 14.2666C9.98514 13.8221 9.22329 13.8548 8.73732 14.3405C8.25135 14.8261 8.21808 15.588 8.66228 16.0585L10.694 18.089L6.73076 23.4909C6.6418 23.5701 6.60121 23.6895 6.62537 23.801C6.64954 23.9125 6.73447 23.9977 6.84589 24.0222C6.95732 24.0467 7.07686 24.0064 7.15629 23.9177L12.4975 19.895L14.5705 21.9642C15.0424 22.3996 15.797 22.3627 16.2789 21.8808C16.7609 21.3988 16.7978 20.6442 16.3624 20.1724L15.5137 19.3237L16.8961 17.5112Z" fill="#828B95"/>
<path d="M21.044 12.0729L19.1375 14.5725L16.0563 11.4913L18.5561 9.58498L17.6929 8.72173C17.2487 8.25114 17.2819 7.48928 17.7679 7.00363C18.2539 6.51799 19.0157 6.48526 19.486 6.92983L23.709 11.1502C24.175 11.6173 24.1508 12.3971 23.655 12.8919C23.1591 13.3868 22.3794 13.4093 21.9134 12.9422L21.044 12.0729Z" fill="#828B95"/>
</svg>
