<svg width="30" height="30" viewBox="0 0 30 30" fill="none" xmlns="http://www.w3.org/2000/svg">
<path d="M16.4397 16.9678C16.4397 17.244 16.2158 17.4678 15.9397 17.4678H14.1051C13.829 17.4678 13.6051 17.244 13.6051 16.9678V10.0325H11.0866C10.7451 10.0325 10.5813 9.61322 10.8324 9.38178L14.7564 5.76574C14.8999 5.63342 15.121 5.63342 15.2646 5.76574L19.1885 9.38178C19.4397 9.61322 19.2759 10.0325 18.9344 10.0325H16.4397V16.9678Z" fill="#828B95"/>
<path d="M6.25 16.3828C6.25 16.1066 6.47386 15.8828 6.75 15.8828H8.59546C8.8716 15.8828 9.09546 16.1066 9.09546 16.3828V19.7023C9.09546 20.3927 9.6551 20.9523 10.3455 20.9523H19.6545C20.3449 20.9523 20.9045 20.3927 20.9045 19.7023V16.3828C20.9045 16.1066 21.1284 15.8828 21.4045 15.8828H23.25C23.5261 15.8828 23.75 16.1066 23.75 16.3828V20.874C23.75 22.4618 22.4628 23.749 20.875 23.749H9.125C7.53718 23.749 6.25 22.4618 6.25 20.874V16.3828Z" fill="#828B95"/>
</svg>
