<svg width="30" height="30" viewBox="0 0 30 30" fill="none" xmlns="http://www.w3.org/2000/svg">
<path fill-rule="evenodd" clip-rule="evenodd" d="M9.63483 9.54063C6.61951 12.556 6.61951 17.4447 9.63483 20.4601C12.6501 23.4754 17.5389 23.4754 20.5543 20.4601C20.6543 20.36 20.751 20.258 20.8444 20.1539L19.1665 18.4763C19.0758 18.5822 18.9803 18.6855 18.88 18.7858C16.7894 20.8765 13.3997 20.8765 11.3091 18.7858C9.21841 16.6952 9.21841 13.3055 11.3091 11.2149C13.3997 9.12422 16.7894 9.12422 18.88 11.2149L18.9642 11.3019L16.7199 13.547H22.6269V7.64007L20.6397 9.62739L20.5543 9.54063C17.5389 6.52531 12.6501 6.52531 9.63483 9.54063Z" fill="#828B95"/>
</svg>
