<svg width="74" height="74" viewBox="0 0 74 74" fill="none" xmlns="http://www.w3.org/2000/svg">
	<path d="M32.3538 69.8785C14.1955 67.3123 1.55568 50.5118 4.12189 32.3535C6.68811 14.1953 23.4886 1.55544 41.6469 4.12165C59.8051 6.68786 72.445 23.4884 69.8787 41.6466C67.3125 59.8049 50.512 72.4447 32.3538 69.8785Z" fill="white"/>
	<path fill-rule="evenodd" clip-rule="evenodd" d="M41.5409 4.869C23.7954 2.36113 7.37687 14.7136 4.869 32.4591C2.36113 50.2046 14.7136 66.6231 32.4591 69.131C50.2046 71.6389 66.6231 59.2864 69.131 41.5409C71.6389 23.7954 59.2864 7.37687 41.5409 4.869ZM3.33876 32.2428C5.96607 13.6522 23.1666 0.711446 41.7572 3.33876C60.3478 5.96607 73.2886 23.1666 70.6612 41.7572C68.0339 60.3478 50.8334 73.2886 32.2428 70.6612C13.6522 68.0339 0.711445 50.8334 3.33876 32.2428Z" fill="#7FDEFC"/>
	<g filter="url(#filter0_d_1221_91907)">
		<path d="M44.3486 46.1326C45.2528 45.8141 45.7561 44.8518 45.5649 43.8985L44.9949 41.0562C44.9949 39.8053 43.2935 38.3764 39.9431 37.5437C38.808 37.2394 37.729 36.7676 36.7445 36.145C36.5292 36.0268 36.5619 34.9344 36.5619 34.9344L35.4829 34.7765C35.4829 34.6879 35.3906 33.3778 35.3906 33.3778C36.6817 32.9609 36.5489 30.5012 36.5489 30.5012C37.3688 30.9383 37.9028 28.9918 37.9028 28.9918C38.8726 26.2875 37.4198 26.451 37.4198 26.451C37.674 24.8001 37.674 23.1223 37.4198 21.4714C36.774 15.9948 27.0499 17.4816 28.2029 19.2702C25.3609 18.7671 26.0094 24.9819 26.0094 24.9819L26.6259 26.5913C25.7715 27.1239 25.9392 27.7352 26.1267 28.418C26.2048 28.7027 26.2863 28.9998 26.2987 29.3088C26.3582 30.8597 27.3457 30.5383 27.3457 30.5383C27.4065 33.098 28.7199 33.4313 28.7199 33.4313C28.9666 35.0388 28.8128 34.7652 28.8128 34.7652L27.6441 34.9011C27.6599 35.2666 27.6289 35.6327 27.5518 35.9909C26.8728 36.2818 26.457 36.5133 26.0454 36.7424C25.6241 36.977 25.207 37.2092 24.5161 37.5003C21.8777 38.6116 19.0102 40.0568 18.5004 42.0027C18.3605 42.5368 18.2233 43.2435 18.0979 43.9879C17.9433 44.9053 18.4516 45.8054 19.316 46.1116C22.8365 47.359 26.8027 48.0978 31.0078 48.1862H32.716C36.8975 48.0983 40.8429 47.3673 44.3486 46.1326Z" fill="#F1FBD0"/>
		<path d="M35.9855 34.0065C35.9784 33.9029 35.9714 33.8004 35.965 33.7079C36.2383 33.5296 36.4418 33.2853 36.5911 33.0301C36.8035 32.6667 36.9236 32.2532 36.994 31.887C37.0515 31.588 37.0792 31.3017 37.0922 31.068C37.2221 31.0271 37.3355 30.9636 37.4311 30.8936C37.6948 30.7006 37.8855 30.413 38.016 30.1741C38.1528 29.9237 38.2562 29.6649 38.3244 29.4745C38.3589 29.378 38.3855 29.2959 38.4037 29.2372C38.4128 29.2077 38.4198 29.184 38.4247 29.167L38.4268 29.1599C38.9149 27.7907 38.8896 26.8981 38.4515 26.3601C38.3228 26.2021 38.1752 26.0976 38.0335 26.0289C38.2232 24.4896 38.2003 22.9321 37.9649 21.3971C37.7788 19.845 36.9393 18.7743 35.8323 18.0964C34.742 17.4288 33.4006 17.1436 32.1575 17.0967C30.9158 17.0499 29.7079 17.2385 28.8607 17.5791C28.4469 17.7454 28.0527 17.9741 27.8077 18.2884C27.7139 18.4088 27.635 18.5508 27.5923 18.7122C27.4039 18.7397 27.2244 18.794 27.0551 18.8751C26.6899 19.05 26.4123 19.33 26.2026 19.6468C25.7932 20.2652 25.5948 21.0965 25.495 21.8667C25.3933 22.6515 25.3859 23.4442 25.4027 24.0344C25.4112 24.331 25.4259 24.5799 25.4385 24.7554C25.4449 24.8432 25.4507 24.9129 25.455 24.9612L25.4602 25.0173L25.4617 25.0326L25.4622 25.0369L25.4623 25.0382L25.4624 25.0387C25.4624 25.0389 25.4624 25.039 26.0094 24.9819L25.4624 25.039L25.4699 25.111L25.4958 25.1786L25.9648 26.4032C25.6629 26.6814 25.4908 27.0049 25.4406 27.3743C25.3837 27.7926 25.4994 28.2122 25.5847 28.5217C25.5887 28.5359 25.5925 28.5499 25.5963 28.5636C25.6771 28.8579 25.7397 29.0948 25.7491 29.3306C25.7834 30.22 26.1013 30.7757 26.6203 31.0074C26.6907 31.0388 26.76 31.0618 26.8268 31.0783C26.9298 32.1501 27.2594 32.8482 27.633 33.2967C27.8381 33.5429 28.0474 33.7027 28.2193 33.8042C28.2471 33.9985 28.2667 34.1524 28.2805 34.2734L27.5806 34.3547L27.0725 34.4138L27.0946 34.9248C27.1044 35.1523 27.0935 35.38 27.062 35.6054C26.512 35.8532 26.138 36.0614 25.7788 36.2614L25.7779 36.2619C25.3613 36.4938 24.9652 36.7143 24.3027 36.9935C22.9772 37.5517 21.5603 38.2074 20.404 38.9815C19.2653 39.744 18.2762 40.6884 17.9684 41.8633C17.8222 42.4214 17.6817 43.1474 17.5555 43.8965C17.3586 45.065 18.0045 46.2305 19.1323 46.6301C22.7102 47.8978 26.7347 48.6465 30.9963 48.736L30.9963 48.7362H31.0078H32.716V48.7363L32.7276 48.736C36.9652 48.647 40.9685 47.9061 44.5313 46.6513C45.7152 46.2344 46.3447 44.9896 46.1042 43.7903L45.5441 40.9972C45.5184 40.1379 44.9341 39.346 44.0502 38.6992C43.1315 38.027 41.7975 37.4384 40.0808 37.0112C39.0452 36.7331 38.0591 36.3088 37.1549 35.7528C37.1404 35.6778 37.1289 35.5762 37.1213 35.4597C37.113 35.3309 37.1105 35.2028 37.1102 35.1054C37.1101 35.0571 37.1105 35.0174 37.1109 34.9902L37.1115 34.9595L37.1117 34.9522L37.1117 34.9508L37.1117 34.9508V34.9508L37.1117 34.9507L37.1117 34.9506L37.1264 34.4611L36.6416 34.3902L36.0051 34.2971C35.9987 34.2013 35.9919 34.1012 35.9855 34.0065Z" stroke="#BBDE4D" stroke-width="1.1"/>
	</g>
	<g filter="url(#filter1_d_1221_91907)">
		<path fill-rule="evenodd" clip-rule="evenodd" d="M37.4316 39.6013C37.4316 38.1647 38.5887 37 40.0159 37H54.6381C56.0653 37 57.2223 38.1647 57.2223 39.6013V51.4214C57.2223 52.858 56.0653 54.0227 54.6381 54.0227H47.3672L43.094 58.2226C42.8219 58.49 42.3622 58.2973 42.3622 57.9158V54.0227H40.0159C38.5887 54.0227 37.4316 52.858 37.4316 51.4214V39.6013Z" fill="white"/>
	</g>
	<path fill-rule="evenodd" clip-rule="evenodd" d="M36.5703 39.6015C36.5703 37.6949 38.1073 36.1396 40.0151 36.1396H54.6372C56.545 36.1396 58.0819 37.6949 58.0819 39.6015V51.4215C58.0819 53.328 56.545 54.8833 54.6372 54.8833H47.7184L43.6963 58.8364C42.88 59.6387 41.5008 59.0604 41.5008 57.9159V54.8833H40.0151C38.1073 54.8833 36.5703 53.328 36.5703 51.4215V39.6015ZM47.3663 54.0228H54.6372C56.0645 54.0228 57.2215 52.8582 57.2215 51.4215V39.6015C57.2215 38.1648 56.0645 37.0001 54.6372 37.0001H40.0151C38.5878 37.0001 37.4308 38.1648 37.4308 39.6015V51.4215C37.4308 52.8582 38.5878 54.0228 40.0151 54.0228H42.3613V57.9159C42.3613 58.2974 42.821 58.4901 43.0931 58.2227L47.3663 54.0228Z" fill="#D5D7DB"/>
	<path fill-rule="evenodd" clip-rule="evenodd" d="M48.1908 40.0117L53.7789 45.6047L48.1908 51.1978V47.9214H41.7324V43.6071H48.1908V40.0117Z" fill="#2FC6F6"/>
	<defs>
		<filter id="filter0_d_1221_91907" x="12.9707" y="14.5396" width="37.7344" height="40.7466" filterUnits="userSpaceOnUse" color-interpolation-filters="sRGB">
			<feFlood flood-opacity="0" result="BackgroundImageFix"/>
			<feColorMatrix in="SourceAlpha" type="matrix" values="0 0 0 0 0 0 0 0 0 0 0 0 0 0 0 0 0 0 127 0" result="hardAlpha"/>
			<feOffset dy="2"/>
			<feGaussianBlur stdDeviation="2"/>
			<feComposite in2="hardAlpha" operator="out"/>
			<feColorMatrix type="matrix" values="0 0 0 0 0 0 0 0 0 0.332159 0 0 0 0 0.433333 0 0 0 0.1 0"/>
			<feBlend mode="normal" in2="BackgroundImageFix" result="effect1_dropShadow_1221_91907"/>
			<feBlend mode="normal" in="SourceGraphic" in2="effect1_dropShadow_1221_91907" result="shape"/>
		</filter>
		<filter id="filter1_d_1221_91907" x="33.4316" y="35" width="27.791" height="29.3469" filterUnits="userSpaceOnUse" color-interpolation-filters="sRGB">
			<feFlood flood-opacity="0" result="BackgroundImageFix"/>
			<feColorMatrix in="SourceAlpha" type="matrix" values="0 0 0 0 0 0 0 0 0 0 0 0 0 0 0 0 0 0 127 0" result="hardAlpha"/>
			<feOffset dy="2"/>
			<feGaussianBlur stdDeviation="2"/>
			<feComposite in2="hardAlpha" operator="out"/>
			<feColorMatrix type="matrix" values="0 0 0 0 0 0 0 0 0 0.332159 0 0 0 0 0.433333 0 0 0 0.1 0"/>
			<feBlend mode="normal" in2="BackgroundImageFix" result="effect1_dropShadow_1221_91907"/>
			<feBlend mode="normal" in="SourceGraphic" in2="effect1_dropShadow_1221_91907" result="shape"/>
		</filter>
	</defs>
</svg>
