<svg width="85" height="98" viewBox="0 0 85 98" fill="none" xmlns="http://www.w3.org/2000/svg">
<path d="M54 0L75 22.227V98H0V0H54Z" fill="#E5E8EB"/>
<path opacity="0.3" d="M54 0L75 22.227H54V0Z" fill="#535C69"/>
<path d="M30 44.454H85V72.742H30V44.454Z" fill="#2C77B1"/>
<path d="M37.55 65.271H41.47C46.492 65.271 49.373 62.24 49.373 57.9361C49.373 53.7201 46.708 50.7993 41.643 50.7993H37.549V65.272L37.55 65.271ZM39.824 63.316V52.7532H41.447C45.149 52.7532 46.947 54.8395 46.947 57.9584C46.947 60.8579 45.497 63.316 41.491 63.316H39.825H39.824ZM58.637 65.4912C62.709 65.4912 65.74 62.5694 65.74 58.0907C65.74 53.7413 62.817 50.668 58.637 50.668C54.479 50.668 51.513 53.6989 51.513 58.0917C51.513 62.5472 54.5 65.4922 58.637 65.4922V65.4912ZM58.637 63.5353C55.823 63.5353 53.937 61.4712 53.937 58.0897C53.937 54.7092 55.823 52.6219 58.637 52.6219C61.56 52.6219 63.337 54.8173 63.337 58.0907C63.337 61.4712 61.452 63.5363 58.637 63.5363V63.5353ZM79.139 62.5694C78.0918 63.2023 76.8943 63.5365 75.674 63.5363C72.644 63.5363 70.758 61.3186 70.758 58.1352C70.758 55.1265 72.578 52.6239 75.782 52.6239C77.045 52.6161 78.2891 52.9336 79.397 53.5463V51.3944C78.573 51.0004 77.274 50.67 75.737 50.67C71.277 50.67 68.331 54.008 68.331 58.2029C68.331 62.4401 70.886 65.4943 75.411 65.4943C76.933 65.5145 78.433 65.1366 79.766 64.393L79.136 62.5724L79.139 62.5694Z" fill="white"/>
</svg>
