<svg width="75" height="98" viewBox="0 0 75 98" fill="none" xmlns="http://www.w3.org/2000/svg">
<path d="M0 0H54L75 22.227V98H0V0Z" fill="#E5E8EB"/>
<path d="M63.14 32.0862H10.008V86.5429H65.008V32.0872H63.14V32.0862ZM63.008 84.5617H12.008V34.0665H63.008V84.5617Z" fill="#B9BEC4"/>
<path d="M54 0L75 22.227H54V0Z" fill="#535C69" fill-opacity="0.3"/>
<path d="M60.008 81.591V78.621L48.008 66.74L42.008 72.68L27.008 57.829L15.008 69.71V81.591H60.008Z" fill="#B9BEC4"/>
<path d="M51.712 51.957C54.601 51.957 56.943 49.6414 56.943 46.785C56.943 43.9286 54.601 41.613 51.712 41.613C48.823 41.613 46.481 43.9286 46.481 46.785C46.481 49.6414 48.823 51.957 51.712 51.957Z" fill="#B9BEC4"/>
</svg>
