<svg width="85" height="98" viewBox="0 0 85 98" fill="none" xmlns="http://www.w3.org/2000/svg">
<path d="M0 0H54L75 22.227V98H0V0Z" fill="#E5E8EB"/>
<path opacity="0.3" d="M54 0L75 22.227H54V0Z" fill="#535C69"/>
<path d="M30 44.454H85V72.742H30V44.454Z" fill="#D73B41"/>
<path d="M41.68 65.271H43.954V60.176H44.668C45.945 60.176 46.898 59.978 47.656 59.6486C49.561 58.8364 50.276 57.1673 50.276 55.4761C50.276 53.5666 49.453 52.1825 48.046 51.4348C47.223 50.9964 46.226 50.7983 44.863 50.7983H41.68V65.271ZM43.954 58.2878V52.6876H44.798C45.642 52.6876 46.248 52.8412 46.703 53.1049C47.503 53.5878 47.893 54.4445 47.893 55.4761C47.893 56.6399 47.483 57.4967 46.617 57.9139C46.184 58.1564 45.599 58.2878 44.82 58.2878H43.954ZM53.499 65.271H57.419C62.441 65.271 65.322 62.2401 65.322 57.9362C65.322 53.7202 62.658 50.7994 57.592 50.7994H53.5V65.272L53.499 65.271ZM55.773 63.3161V52.7533H57.397C61.099 52.7533 62.897 54.8396 62.897 57.9564C62.897 60.856 61.447 63.3161 57.44 63.3161H55.774H55.773ZM68.113 65.271H70.385V58.8798H74.977V56.9249H70.385V52.7523H75.063L75.713 50.7983H68.113V65.271Z" fill="white"/>
</svg>
