<svg width="85" height="98" viewBox="0 0 85 98" fill="none" xmlns="http://www.w3.org/2000/svg">
<path d="M0 0H54L75 22.227V98H0V0Z" fill="#E5E8EB"/>
<path opacity="0.3" d="M54 0L75 22.227H54V0Z" fill="#535C69"/>
<path d="M30 44.454H85V72.742H30V44.454Z" fill="#746781"/>
<path d="M40.08 65.271H42.353V60.176H43.069C44.346 60.176 45.299 59.978 46.056 59.6507C47.961 58.8364 48.676 57.1683 48.676 55.4761C48.676 53.5666 47.853 52.1825 46.446 51.4369C45.623 50.9974 44.626 50.8004 43.263 50.8004H40.08V65.271ZM42.353 58.2878V52.6876H43.199C44.043 52.6876 44.649 52.8412 45.103 53.1049C45.903 53.5878 46.293 54.4445 46.293 55.4761C46.293 56.6399 45.883 57.4967 45.017 57.915C44.584 58.1574 43.999 58.2888 43.22 58.2888H42.353V58.2878ZM52.767 65.271H55.04V58.8586H62.186V65.271H64.461V50.7983H62.187V56.9036H55.04V50.7994H52.767V65.272V65.271ZM68.767 65.271H71.039V60.176H71.752C73.032 60.176 73.984 59.978 74.742 59.6507C76.647 58.8364 77.362 57.1683 77.362 55.4761C77.362 53.5666 76.539 52.1825 75.132 51.4369C74.309 50.9974 73.312 50.8004 71.947 50.8004H68.765V65.271H68.767ZM71.039 58.2878V52.6876H71.882C72.728 52.6876 73.334 52.8412 73.789 53.1049C74.589 53.5878 74.979 54.4445 74.979 55.4761C74.979 56.6399 74.569 57.4967 73.703 57.915C73.27 58.1574 72.685 58.2888 71.903 58.2888H71.038L71.039 58.2878Z" fill="white"/>
</svg>
