<svg width="85" height="98" viewBox="0 0 85 98" fill="none" xmlns="http://www.w3.org/2000/svg">
<path d="M54 0L75 22.227V98H0V0H54Z" fill="#E5E8EB"/>
<path opacity="0.3" d="M54 0L75 22.227H54V0Z" fill="#535C69"/>
<path d="M30 44.454H85V72.742H30V44.454Z" fill="#E89E00"/>
<path d="M42.978 65.271H45.253V60.176H45.967C47.244 60.176 48.197 59.978 48.955 59.6506C50.86 58.8363 51.575 57.1683 51.575 55.476C51.575 53.5666 50.752 52.1824 49.345 51.4368C48.522 50.9973 47.525 50.8003 46.162 50.8003H42.978V65.271ZM45.253 58.2877V52.6876H46.097C46.941 52.6876 47.547 52.8411 48.002 53.1048C48.802 53.5878 49.192 54.4445 49.192 55.476C49.192 56.6399 48.782 57.4967 47.916 57.9149C47.483 58.1574 46.898 58.2887 46.119 58.2887H45.252L45.253 58.2877ZM54.365 65.271H56.64V60.176H57.355C58.632 60.176 59.585 59.978 60.342 59.6506C62.248 58.8363 62.962 57.1683 62.962 55.476C62.962 53.5666 62.139 52.1824 60.732 51.4368C59.909 50.9973 58.914 50.8003 57.55 50.8003H54.365V65.271ZM56.64 58.2877V52.6876H57.485C58.329 52.6876 58.935 52.8411 59.39 53.1048C60.19 53.5878 60.58 54.4445 60.58 55.476C60.58 56.6399 60.17 57.4967 59.303 57.9149C58.87 58.1574 58.286 58.2887 57.506 58.2887H56.64V58.2877ZM68.892 65.271H71.167V52.7533H75.042L75.692 50.7993H64.757V52.7543H68.892V65.272V65.271Z" fill="white"/>
</svg>
