<svg width="85" height="98" viewBox="0 0 85 98" fill="none" xmlns="http://www.w3.org/2000/svg">
<path d="M0 0H54L75 22.227V98H0V0Z" fill="#E5E8EB"/>
<path opacity="0.3" d="M54 0L75 22.227H54V0Z" fill="#535C69"/>
<path d="M30 44.454H85V72.742H30V44.454Z" fill="#7EAB34"/>
<path d="M40.08 65.271H42.353V59.4739H43.697C44.087 59.5618 44.607 60.1761 45.299 61.4278L47.485 65.2721H50.105L47.658 61.0116C46.898 59.7164 46.336 58.9253 45.903 58.6838V58.6404C47.613 58.0928 48.718 56.8178 48.718 54.8638C48.718 53.4595 48.155 52.1845 46.748 51.4591C46.012 51.0429 45.038 50.8024 43.652 50.8024H40.08V65.2731V65.271ZM42.353 57.5624V52.6876H43.589C44.476 52.6876 45.039 52.8857 45.429 53.1928C46.056 53.5868 46.359 54.291 46.359 55.1023C46.359 56.0691 45.926 56.7713 45.277 57.1684C44.7513 57.4494 44.1614 57.5853 43.567 57.5624H42.352H42.353ZM50.407 65.271H52.787L54.152 61.5592H59.436L60.844 65.2721H63.292L57.64 50.7337H55.886L50.406 65.2721L50.407 65.271ZM54.825 59.6709L55.995 56.3773C56.293 55.6145 56.553 54.8376 56.775 54.0495H56.817C56.967 54.5325 57.185 55.1912 57.575 56.3763L58.745 59.6719H54.825V59.6709ZM64.761 65.271H67.035V59.4739H68.377C68.767 59.5618 69.287 60.1761 69.981 61.4278L72.167 65.2721H74.787L72.341 61.0116C71.583 59.7164 71.021 58.9253 70.587 58.6838V58.6404C72.297 58.0928 73.401 56.8178 73.401 54.8638C73.401 53.4595 72.839 52.1845 71.431 51.4591C70.695 51.0429 69.721 50.8024 68.334 50.8024H64.76V65.2731L64.761 65.271ZM67.035 57.5624V52.6876H68.269C69.159 52.6876 69.721 52.8857 70.111 53.1928C70.739 53.5868 71.041 54.291 71.041 55.1023C71.041 56.0691 70.609 56.7713 69.959 57.1684C69.4327 57.4498 68.8421 57.5857 68.247 57.5624H67.035Z" fill="white"/>
<path d="M26 2.02063V5.05156H21V2.02063H26ZM26 6.06187V8.08249H21V6.06187H26ZM21 9.0928H26V11.1134H21V9.0928ZM21 12.1237H26V14.1443H21V12.1237ZM21 15.1547H26V17.1753H21V15.1547ZM21 18.1856H26V20.2062H21V18.1856ZM26 21.2165V23.2371H21V21.2165H26ZM21 24.2474H26V26.2681H21V24.2474ZM21 27.2784H26V29.299H21V27.2784ZM21 30.3093H26V32.3299H21V30.3093ZM21 33.3402H26V35.3608H21V33.3402ZM21 36.3711H26V39.4021H21V36.3711ZM28 2.02063H33V5.05156H28V2.02063ZM28 6.06187H33V8.08249H28V6.06187ZM28 9.0928H33V11.1134H28V9.0928ZM28 12.1237H33V14.1443H28V12.1237ZM28 15.1547H33V17.1753H28V15.1547ZM28 18.1856H33V20.2062H28V18.1856ZM28 21.2165H33V23.2371H28V21.2165ZM28 24.2474H33V26.2681H28V24.2474ZM28 27.2784H33V29.299H28V27.2784ZM28 30.3093H33V32.3299H28V30.3093ZM28 33.3402H33V35.3608H28V33.3402ZM28 36.3711H33V39.4021H28V36.3711Z" fill="#B9BEC4"/>
</svg>
