<svg width="85" height="98" viewBox="0 0 85 98" fill="none" xmlns="http://www.w3.org/2000/svg">
<path d="M0 0H54L75 22.227V98H0V0Z" fill="#E5E8EB"/>
<path opacity="0.3" d="M54 0L75 22.227H54V0Z" fill="#535C69"/>
<path d="M30 44.454H85V72.742H30V44.454Z" fill="#54B51E"/>
<path d="M41.96 65.2711H44.45L48.327 59.6942L51.964 65.2711H54.542L49.756 57.9362L54.694 50.7994H52.18L48.457 56.245L44.905 50.7994H42.328L47.006 58.0029L41.96 65.2721V65.2711ZM56.682 65.2711H64.088V63.3161H58.955V50.7984H56.682V65.2711ZM64.627 64.281C65.623 65.0084 67.095 65.4913 68.741 65.4913C71.601 65.4913 73.658 63.9526 73.658 61.4279C73.658 56.8815 67.464 57.2128 67.464 54.3577C67.464 53.0625 68.524 52.623 69.608 52.623C70.7573 52.639 71.8861 52.9328 72.9 53.4797V51.3935C72.163 50.9994 70.95 50.6691 69.542 50.6691C66.684 50.6691 65.039 52.4472 65.039 54.579C65.039 58.9486 71.253 58.5758 71.253 61.6269C71.253 63.0312 70.019 63.5364 68.696 63.5364C67.5668 63.5237 66.4668 63.172 65.536 62.5261L64.626 64.284L64.627 64.281Z" fill="white"/>
</svg>
