<svg width="28" height="28" viewBox="0 0 28 28" fill="none" xmlns="http://www.w3.org/2000/svg"><path fill-rule="evenodd" clip-rule="evenodd" d="M21.7914 19.0692C21.7914 18.3176 20.8033 17.4591 18.8576 16.9588C18.1984 16.776 17.5717 16.4925 17 16.1185C16.875 16.0474 16.894 15.3911 16.894 15.3911L16.2673 15.2962C16.2673 15.243 16.2137 14.4559 16.2137 14.4559C16.9635 14.2054 16.8864 12.7275 16.8864 12.7275C17.3626 12.9902 17.6727 11.8207 17.6727 11.8207C18.2359 10.1959 17.3922 10.2941 17.3922 10.2941C17.5398 9.3022 17.5398 8.2941 17.3922 7.30219C17.0171 4.01175 11.3699 4.90502 12.0395 5.97966C10.3891 5.67737 10.7657 9.41142 10.7657 9.41142L11.1237 10.3784C10.4206 10.8318 10.9093 11.3801 10.9337 12.0111C10.9683 12.9429 11.5417 12.7498 11.5417 12.7498C11.577 14.2877 12.3398 14.488 12.3398 14.488C12.483 15.4538 12.3937 15.2894 12.3937 15.2894L11.715 15.371C11.7242 15.5907 11.7062 15.8106 11.6614 16.0259C10.8634 16.3796 10.6916 16.587 9.89847 16.9328C8.36621 17.6004 6.70093 18.4688 6.40489 19.6379C6.10885 20.807 6 22.4935 6 22.4935H22.3273L21.7914 19.0692Z" fill="#A8ADB4"/></svg>