<svg xmlns="http://www.w3.org/2000/svg" width="15" height="15" viewBox="0 0 18 18"><path fill="#ffffff" class="cls-1" d="M307,224.041V215.8a0.042,0.042,0,0,0,.018-0.048,4.747,4.747,0,0,1,.168-0.953,5.172,5.172,0,0,1,5-3.793h7.444a5.017,5.017,0,0,1,.535.024,5.2,5.2,0,0,1,1.676.465,5.769,5.769,0,0,1,2.252,1.946,4.94,4.94,0,0,1,.852,2.178,2.229,2.229,0,0,0,.052.365v8.247a0.03,0.03,0,0,0-.019.036,3.655,3.655,0,0,1-.08.59,5.127,5.127,0,0,1-1.842,3.014,5.073,5.073,0,0,1-2.5,1.085,2.16,2.16,0,0,0-.367.05h-8.232a0.031,0.031,0,0,0-.037-0.018,5.049,5.049,0,0,1-1.767-.472,5.74,5.74,0,0,1-2.251-1.945,4.951,4.951,0,0,1-.851-2.178A1.764,1.764,0,0,0,307,224.041Zm16.613-3.943v-3.691a3.889,3.889,0,0,0-.354-1.651,4.285,4.285,0,0,0-.875-1.2,3.773,3.773,0,0,0-2.763-1.172c-2.473-.006-4.945,0-7.418,0a3.589,3.589,0,0,0-1.706.4,3.7,3.7,0,0,0-2.1,3.426c-0.021,2.47-.006,4.94,0,7.41a3.831,3.831,0,0,0,.251,1.388,4.145,4.145,0,0,0,.971,1.443,3.829,3.829,0,0,0,2.825,1.18h7.316a3.972,3.972,0,0,0,.68-0.053,3.8,3.8,0,0,0,3.182-3.8V220.1ZM320.6,220a4.5,4.5,0,0,1-1.464,3.4,4.349,4.349,0,0,1-2.323,1.152,4.515,4.515,0,0,1-4.2-1.408,4.276,4.276,0,0,1-1.135-2.28,4.623,4.623,0,0,1,.352-2.843,4.412,4.412,0,0,1,3.153-2.531,4.47,4.47,0,0,1,4.395,1.349,4.333,4.333,0,0,1,1.149,2.284A4.6,4.6,0,0,1,320.6,220Zm-1.384,0a3.616,3.616,0,0,0-.107-0.856,3.2,3.2,0,0,0-3.533-2.367,3.088,3.088,0,0,0-2.057,1.141,3.246,3.246,0,0,0,3.754,5.057A3.128,3.128,0,0,0,319.215,220.006Zm1.5-6a1.2,1.2,0,0,1,1.21,1.192A1.218,1.218,0,1,1,320.715,214.007Z" transform="translate(-307 -211)"/></svg>