<svg xmlns="http://www.w3.org/2000/svg" width="259" height="194" fill="none"><path fill="#E5F9FF" fill-rule="evenodd" d="M200.172 193.905H60.491c-1.195 0-2.38-.046-3.553-.136C25.369 193.026.002 166.324 0 133.495c.01-16.001 6.163-31.343 17.108-42.65 5.61-5.797 12.244-10.29 19.461-13.291a66.732 66.732 0 0 1-.182-4.934c.01-16.883 6.503-33.071 18.052-45.002C65.988 15.687 81.646 8.99 97.968 9c20.909.026 39.368 10.841 50.462 27.348a48.779 48.779 0 0 1 16.848-2.977c26.1.033 47.536 20.612 50.022 46.93 25.008 5.64 43.722 28.685 43.7 56.237-.025 31.753-24.924 57.475-55.622 57.462a54.95 54.95 0 0 1-3.206-.095ZM198.962 9.13c-.003-.095-.03-.185-.03-.28 0-4.888 3.985-8.85 8.901-8.85 3.575 0 6.634 2.108 8.053 5.132 1.135-.414 2.343-.676 3.623-.676a10.509 10.509 0 0 1 10.51 10.012c.218-.016.431-.064.654-.064 4.6 0 8.327 3.714 8.327 8.297 0 4.585-3.727 8.299-8.327 8.299-.738 0-1.44-.127-2.124-.304a5.261 5.261 0 0 1-1.693.304h-22.48c-.463 0-.906-.079-1.334-.189-.62.107-1.255.189-1.908.189C194.984 31 190 26.057 190 19.956c0-5.36 3.852-9.822 8.962-10.825Z" clip-rule="evenodd"/><g filter="url(#a)"><rect width="183.448" height="144.513" x="43.275" y="22.747" fill="#fff" rx="8"/></g><rect width="165.967" height="55.469" x="52.012" y="31.483" fill="#2FC6F6" rx="6"/><g opacity=".12"><mask id="b" width="166" height="56" x="52" y="31" maskUnits="userSpaceOnUse" style="mask-type:alpha"><rect width="165.967" height="55.469" x="52.012" y="31.483" fill="#2FC6F6" rx="6"/></mask><g fill="#fff" mask="url(#b)"><path d="M201.766 37.125c.229.002.461.022.687.059.215.034.427.114.62.242l26.014 17.214a2.371 2.371 0 0 1 .668 3.286l-1.012 1.531a2.372 2.372 0 0 1-3.287.669l-22.203-14.693a2.371 2.371 0 0 0-2.617 0l-22.144 14.654a2.371 2.371 0 0 1-3.286-.67l-1.013-1.53a2.371 2.371 0 0 1 .669-3.286l26.013-17.214c.275-.181.585-.266.891-.262Z"/><path fill-rule="evenodd" d="M181.004 64.254c0-1.325.664-2.562 1.768-3.294l17.99-11.923a2.372 2.372 0 0 1 2.62 0l17.99 11.923a3.952 3.952 0 0 1 1.769 3.295l-.001 20.58a3.952 3.952 0 0 1-3.952 3.953h-34.233a3.953 3.953 0 0 1-3.952-3.952l.001-20.582Zm19.985-4.492a.79.79 0 0 1 1.416 0l2.957 5.951a.79.79 0 0 0 .592.43l6.573.974a.79.79 0 0 1 .438 1.346l-4.746 4.651a.79.79 0 0 0-.226.696l1.105 6.553a.79.79 0 0 1-1.145.832l-5.89-3.076a.79.79 0 0 0-.732 0l-5.89 3.076a.79.79 0 0 1-1.145-.832l1.105-6.553a.79.79 0 0 0-.226-.696l-4.746-4.65a.79.79 0 0 1 .438-1.347l6.573-.973a.79.79 0 0 0 .592-.43l2.957-5.952Z" clip-rule="evenodd"/></g></g><rect width="91.134" height="5.46" x="65.689" y="44.705" fill="#fff" opacity=".5" rx="2.73"/><path fill="#fff" d="M81.154 73.474a.352.352 0 0 0 .285-.418c-.219-1.052-.613-2.501-.613-2.501 0-.406-.544-.87-1.616-1.14-.364-.1-.709-.252-1.023-.454a.847.847 0 0 1-.058-.393l-.344-.051c0-.03-.03-.454-.03-.454.413-.136.371-.934.371-.934.262.142.433-.489.433-.489.31-.877-.154-.824-.154-.824a5.39 5.39 0 0 0 0-1.616c-.207-1.777-3.316-1.295-2.948-.714-.908-.164-.7 1.853-.7 1.853l.196.522c-.273.172-.22.37-.16.592.025.093.051.19.055.29.02.503.335.399.335.399.02.83.439.94.439.94.079.521.03.431.03.431l-.374.044c.005.119-.005.238-.03.354-.216.094-.35.17-.48.243a4.408 4.408 0 0 1-.49.246c-.844.36-1.76.83-1.924 1.461-.099.386-.32 1.47-.475 2.253-.04.2.092.393.293.426 1.352.218 2.797.336 4.3.336 1.645 0 3.222-.142 4.682-.402Z"/><path fill="#fff" d="M85.225 71.828c.284-.076.47-.344.399-.63-.133-.53-.406-1.202-.733-1.4-.448-.27-.408-.215-.688-.367a3.39 3.39 0 0 0-.582-.26.85.85 0 0 1-.235-.325.988.988 0 0 0-.407-.292l-.011-.39.84-.255s.216-.099.238-.099a1.564 1.564 0 0 0-.116-.198 10.188 10.188 0 0 1-.095-.325c.122.153.266.29.428.404a5.773 5.773 0 0 1-.367-.81 5.034 5.034 0 0 1-.14-.785c-.057-.492-.147-.98-.269-1.46-.086-.24-.24-.451-.444-.612-.3-.203-.651-.325-1.017-.352h-.042a2.09 2.09 0 0 0-1.017.352 1.378 1.378 0 0 0-.444.611c-.122.481-.212.97-.27 1.46-.022.271-.067.54-.133.804-.101.273-.226.538-.373.792.16-.116.304-.252.426-.405 0 0-.102.311-.118.352a.93.93 0 0 0-.093.171c.02 0 .238.099.238.099l.84.257-.012.389a.993.993 0 0 0-.407.292c-.04.086-.09.168-.148.245.766.303 1.214.747 1.232 1.243.003.025.044.176.1.388.141.528.383 1.433.403 1.694h.07a25.99 25.99 0 0 0 2.947-.588ZM71.014 72.414h-.305a26.536 26.536 0 0 1-2.707-.524c-.289-.073-.483-.343-.42-.635.113-.525.36-1.194.775-1.467.27-.176.381-.207.661-.359a3.4 3.4 0 0 1 .583-.26.85.85 0 0 0 .235-.326.988.988 0 0 1 .406-.292l.012-.389-.84-.256s-.217-.098-.238-.098c.034-.069.072-.135.116-.198.016-.042.095-.325.095-.325a2.137 2.137 0 0 1-.428.404c.143-.261.265-.532.366-.81a5.05 5.05 0 0 0 .14-.786c.058-.491.148-.98.27-1.46.085-.24.24-.45.444-.612.299-.203.65-.325 1.017-.352h.042c.366.027.717.15 1.017.352.204.161.357.373.444.612.122.48.212.969.27 1.46.021.27.066.54.133.803.1.274.225.539.372.793a2.143 2.143 0 0 1-.425-.405c.003.007.102.311.118.352.037.054.068.111.093.171-.02 0-.238.098-.238.098l-.84.257.012.39c.16.061.3.162.406.292.04.086.09.168.148.244-.765.303-1.213.747-1.23 1.244-.004.025-.044.174-.1.383-.141.527-.384 1.436-.404 1.699Z"/><path fill="#fff" fill-rule="evenodd" d="M97.772 64.997a2 2 0 0 1 2-2h10.48a2 2 0 0 1 2 2v6.849a2 2 0 0 1-2 2h-10.48a2 2 0 0 1-2-2v-6.849Zm7.357 6.076a.565.565 0 0 0 .363-.652l-.091-.467c0-.264-.352-.565-1.044-.74a2.368 2.368 0 0 1-.66-.296c-.045-.025-.038-.255-.038-.255l-.223-.033c0-.019-.019-.295-.019-.295.267-.088.239-.607.239-.607.17.092.28-.319.28-.319.2-.57-.1-.535-.1-.535a3.49 3.49 0 0 0 0-1.05c-.133-1.156-2.142-.842-1.903-.465-.587-.106-.453 1.205-.453 1.205l.127.34c-.177.112-.142.24-.103.385.016.06.033.122.035.187.013.328.217.26.217.26.012.54.283.61.283.61.051.339.02.281.02.281l-.242.029a.933.933 0 0 1-.019.23 2.99 2.99 0 0 0-.311.158c-.087.05-.173.099-.316.16-.545.235-1.137.54-1.242.95a4.277 4.277 0 0 0-.062.292.55.55 0 0 0 .361.62 7.644 7.644 0 0 0 2.284.392h.353a7.648 7.648 0 0 0 2.264-.385Zm.973-4.807c0-.4.324-.725.724-.725h3.141a.725.725 0 0 1 0 1.45h-3.141a.724.724 0 0 1-.724-.725Zm0 2.475c0-.4.324-.724.724-.724h1.933a.725.725 0 0 1 0 1.45h-1.933a.724.724 0 0 1-.724-.726ZM139.3 61.874c-1.038-.35-7.763-1.647-7.763-1.647l-.525 1.222 8.136 1.45c.838 0 1.517.748 1.517 1.669v-1.025c0-.922-.631-1.42-1.365-1.669Zm-10.075.83s8.985.725 10.024 1.076c.733.248 1.365.747 1.365 1.668v1.025c0-.921-.679-1.668-1.517-1.668h-10.365l.493-2.102Zm-2.204 4.204a1 1 0 0 1 1-1h11.594a1 1 0 0 1 1 1v6.237a1 1 0 0 1-1 1h-11.594a1 1 0 0 1-1-1v-6.237Z" clip-rule="evenodd"/><path fill="#F1FBD0" d="M55.611 101a4 4 0 0 1 4-4h74.979a4 4 0 0 1 4 4v25.285a4 4 0 0 1-4 4H59.611a4 4 0 0 1-4-4V101Z"/><g fill="#E2F1B3" fill-rule="evenodd" clip-path="url(#c)" clip-rule="evenodd"><path d="M88.477 111.516c-2.828 0-5.12-2.22-5.12-4.958s2.292-4.957 5.12-4.957c2.828 0 5.12 2.219 5.12 4.957s-2.292 4.958-5.12 4.958ZM128.219 133.123H64.143l17.441-15.709 9.85 8.294 15.903-17.719 20.882 22.044v3.09Z"/></g><rect width="41.702" height="4.914" x="55.611" y="136.92" fill="#BDC1C6" opacity=".5" rx="2.457"/><rect width="31.117" height="4.914" x="55.611" y="146.202" fill="#525C69" fill-opacity=".1" rx="2.457"/><path fill="#FFCDCC" fill-rule="evenodd" d="M122.845 139.501c-1.211.641-2.155 1.847-2.176 3.163-.005.297.013.592.031.889.021.35.097.565.266 1.071.17.506.657 1.318 1.11 1.902.33.424.703.81 1.095 1.18.6.564 5.075 3.939 5.075 3.939s4.624-3.561 5.144-4.06a9.364 9.364 0 0 0 1.14-1.29c.494-.697 1.034-1.467 1.157-2.305.043-.299.067-.6.078-.902.017-.441-.003-.882-.12-1.311-.259-.942-1.049-1.677-1.9-2.188a3.743 3.743 0 0 0-1.545-.508 4.03 4.03 0 0 0-1.041.019 3.91 3.91 0 0 0-1.8.777c-.45.342-.815.758-1.114 1.233l-.025.038c-.051-.07-.092-.136-.136-.2-.432-.629-.977-1.137-1.67-1.485a3.786 3.786 0 0 0-1.727-.407c-.176 0-.35.011-.525.033a3.806 3.806 0 0 0-1.317.412Z" clip-rule="evenodd"/><rect width="23.294" height="4.914" x="175.234" y="120.211" fill="#BDC1C6" opacity=".5" rx="2.457"/><rect width="17.381" height="4.914" x="178.191" y="129.493" fill="#525C69" fill-opacity=".1" rx="2.457"/><path fill="#BBDE4D" d="M186.881 99.566c0-1.105-.896-2.007-1.998-1.933a29.66 29.66 0 0 0-16.298 6.262 30.033 30.033 0 0 0-10.578 16.319 30.229 30.229 0 0 0 1.603 19.425 29.928 29.928 0 0 0 13.107 14.335 29.596 29.596 0 0 0 19.083 3.199 29.724 29.724 0 0 0 17.007-9.287 30.12 30.12 0 0 0 7.758-17.855 30.194 30.194 0 0 0-3.724-17.167c-.541-.969-1.794-1.227-2.721-.616l-2.143 1.414c-.918.605-1.166 1.834-.648 2.803a23.554 23.554 0 0 1 2.706 13.025 23.495 23.495 0 0 1-6.051 13.927 23.181 23.181 0 0 1-13.266 7.244 23.084 23.084 0 0 1-14.885-2.495 23.343 23.343 0 0 1-10.223-11.181 23.573 23.573 0 0 1-1.25-15.151 23.423 23.423 0 0 1 8.25-12.729 23.14 23.14 0 0 1 12.274-4.851c1.1-.095 1.997-.982 1.997-2.086v-2.602Z"/><defs><clipPath id="c"><path fill="#fff" d="M55.611 97.526h77.53v32.76H55.61z"/></clipPath><filter id="a" width="193.449" height="154.513" x="38.275" y="19.747" color-interpolation-filters="sRGB" filterUnits="userSpaceOnUse"><feFlood flood-opacity="0" result="BackgroundImageFix"/><feColorMatrix in="SourceAlpha" result="hardAlpha" values="0 0 0 0 0 0 0 0 0 0 0 0 0 0 0 0 0 0 127 0"/><feOffset dy="2"/><feGaussianBlur stdDeviation="2.5"/><feComposite in2="hardAlpha" operator="out"/><feColorMatrix values="0 0 0 0 0.423529 0 0 0 0 0.423529 0 0 0 0 0.423529 0 0 0 0.08 0"/><feBlend in2="BackgroundImageFix" result="effect1_dropShadow_3342_88449"/><feBlend in="SourceGraphic" in2="effect1_dropShadow_3342_88449" result="shape"/></filter></defs></svg>