<svg xmlns="http://www.w3.org/2000/svg" fill="none" viewBox="0 0 35 33"><path fill="#EDF2F4" fill-rule="evenodd" d="M11.311 1.072c-1.12-.383-2.34.216-2.707 1.327L1.457 24.075c-.376 1.141.3 2.36 1.477 2.664l20.615 5.326a2.14 2.14 0 0 0 1.087-.003 6.504 6.504 0 0 1-.695-2.932c0-.73.12-1.431.341-2.087H7.471v-6.308l5.546-6.306 6.933 7.884 2.774-3.154 4.034 4.587a6.721 6.721 0 0 1 2.238-1.023l4.326-11.906a2.08 2.08 0 0 0-1.3-2.675l-20.71-7.07Zm14.922 10.113c0 1.46-1.202 2.645-2.684 2.645-1.482 0-2.684-1.184-2.684-2.645 0-1.46 1.202-2.645 2.684-2.645 1.482 0 2.684 1.184 2.684 2.645Z" clip-rule="evenodd"/><path fill="#DFE0E3" fill-rule="evenodd" d="M32.252 7.485 11.542.415c-1.493-.51-3.12.288-3.61 1.77L.787 23.86c-.502 1.522.399 3.146 1.97 3.552l20.614 5.327a2.852 2.852 0 0 0 1.621-.056c-.129-.2-.248-.407-.355-.62a2.14 2.14 0 0 1-1.087.003L2.934 26.739c-1.177-.304-1.853-1.522-1.477-2.663L8.604 2.399c.366-1.11 1.587-1.71 2.707-1.327l20.71 7.07a2.08 2.08 0 0 1 1.301 2.676l-4.326 11.905c.262-.065.53-.115.804-.15l4.187-11.52c.53-1.458-.25-3.062-1.735-3.568Z" clip-rule="evenodd"/><path fill="#DFE0E3" fill-rule="evenodd" d="M30.919 5.642 9.413 1.7c-1.543-.283-3.024.729-3.297 2.252L2.102 26.39c-.284 1.59.86 3.084 2.49 3.25l19.86 2.029a6.506 6.506 0 0 1-.256-.726L4.664 28.948c-1.222-.125-2.08-1.246-1.867-2.439L6.812 4.073c.204-1.143 1.315-1.901 2.472-1.69L30.79 6.327c1.154.212 1.913 1.308 1.692 2.444l-2.679 13.804c.24-.03.482-.047.729-.051L33.176 8.9c.294-1.515-.719-2.977-2.257-3.259Z" clip-rule="evenodd"/><path fill="#EDF2F4" fill-rule="evenodd" d="M9.284 2.383c-1.157-.212-2.268.547-2.472 1.69L2.797 26.509c-.213 1.193.645 2.313 1.867 2.438l19.532 1.995a6.523 6.523 0 0 1-.255-1.812c0-.729.12-1.43.341-2.087H7.47v-6.307l5.547-6.307 6.933 7.884 2.774-3.154 4.034 4.587a6.726 6.726 0 0 1 3.045-1.173l2.68-13.804c.22-1.136-.54-2.232-1.693-2.443L9.284 2.383Zm16.949 8.802c0 1.461-1.202 2.645-2.684 2.645-1.482 0-2.684-1.184-2.684-2.645 0-1.46 1.202-2.644 2.684-2.644 1.482 0 2.684 1.184 2.684 2.644Z" clip-rule="evenodd"/><path fill="#D5D7DB" fill-rule="evenodd" d="M28.26 3.39H7.386c-1.773 0-3.21 1.417-3.21 3.165v20.57c0 1.747 1.437 3.164 3.21 3.164h16.657a6.556 6.556 0 0 1 .238-3.246H7.47v-6.308l5.547-6.307 6.933 7.885 2.774-3.155 4.034 4.587a6.743 6.743 0 0 1 3.889-1.224c.279 0 .554.017.823.05V6.554c0-1.748-1.437-3.164-3.21-3.164Zm-2.027 7.795c0 1.46-1.202 2.645-2.684 2.645-1.482 0-2.684-1.184-2.684-2.645 0-1.46 1.202-2.645 2.684-2.645 1.482 0 2.684 1.184 2.684 2.645ZM31.706 25.305v2.782h2.823v2.087h-2.823v2.783h-2.118v-2.783h-2.823v-2.087h2.823v-2.782h2.118Z" clip-rule="evenodd"/></svg>