<svg xmlns="http://www.w3.org/2000/svg" width="82" height="82" viewBox="0 0 82 82">
  <path fill="#FFFFFF" fill-rule="evenodd" d="M36.029,19.708 C36.029,19.708 35.555,21.2 35.48,21.4 C35.3079773,21.6563786 35.1628752,21.9298274 35.047,22.216 C35.147,22.216 36.154,22.687 36.154,22.687 L40.071,23.913 L40.014,25.773 C39.2727193,26.0689211 38.6203514,26.551136 38.12,27.173 C37.9310958,27.5861349 37.6998592,27.978567 37.43,28.344 C40.998,29.794 43.085,31.916 43.17,34.292 C43.228,34.715 45.393,42.498 45.517,44.251 L62,44.251 C62.014,44.178 61.5,34.109 61.5,34.034 C61.5,34.034 60.554,31.609 59.054,31.362 C57.5673417,31.1737537 56.1304746,30.7026052 54.821,29.974 C53.9562051,29.4704573 53.0450159,29.0511965 52.1,28.722 C51.6172891,28.2974424 51.2420399,27.7645542 51.005,27.167 C50.5053463,26.5444096 49.8527705,26.062041 49.111,25.767 L49.055,23.906 L52.972,22.68 C52.972,22.68 53.982,22.209 54.079,22.209 C53.9221071,21.8807061 53.7416347,21.5642109 53.539,21.262 C53.465,21.062 53.096,19.708 53.096,19.708 C53.6675884,20.4411959 54.3379552,21.0917074 55.088,21.641 C54.421409,20.3937352 53.8504361,19.0976802 53.38,17.764 C53.0660261,16.5313411 52.8477105,15.2762767 52.727,14.01 C52.4573873,11.6567237 52.0382059,9.32300241 51.472,7.023 C51.0656156,5.87544843 50.3482471,4.86344637 49.4,4.1 C47.9974486,3.12634604 46.3604512,2.54466309 44.658,2.415 L44.558,2.415 L44.458,2.415 C42.7585578,2.54575809 41.1247423,3.12741437 39.725,4.1 C38.7776682,4.86491956 38.0608146,5.87737582 37.654,7.025 C37.0871982,9.32482612 36.6683401,11.6586071 36.4,14.012 C36.2965318,15.3070053 36.0885207,16.5915242 35.778,17.853 C35.3073399,19.1635512 34.7262528,20.4317731 34.041,21.644 C34.7896419,21.0932746 35.4586298,20.4417854 36.029,19.708 L36.029,19.708 Z M44.607,50 C44.607,47.024 41.271,34.439 41.271,34.439 C41.271,32.599 38.871,30.498 34.136,29.274 C32.5329103,28.8263453 31.0090796,28.1324069 29.619,27.217 C29.319,27.043 29.361,25.437 29.361,25.437 L27.836,25.2 C27.836,25.069 27.706,23.143 27.706,23.143 C29.53,22.53 29.342,18.913 29.342,18.913 C30.5,19.558 31.254,16.7 31.254,16.7 C32.624,12.724 30.572,12.964 30.572,12.964 C30.9309534,10.5361962 30.9309534,8.06880382 30.572,5.641 C29.66,-2.413 15.926,-0.227 17.554,2.4 C13.54,1.656 14.454,10.8 14.454,10.8 L15.325,13.164 C13.615,14.272 14.803,15.615 14.861,17.164 C14.945,19.445 16.337,18.972 16.337,18.972 C16.423,22.736 18.276,23.231 18.276,23.231 C18.625,25.595 18.408,25.193 18.408,25.193 L16.757,25.393 C16.7792806,25.9296432 16.735621,26.4669926 16.627,26.993 C14.682,27.859 14.268,28.367 12.34,29.212 C8.614,30.846 4.563,32.972 3.84,35.833 C3.117,38.694 0.989,50 0.989,50 L44.605,50 L44.605,50 L44.605,50 L44.607,50 Z" transform="translate(10 14)"/>
</svg>
