<svg width="108" height="66" viewBox="0 0 108 66" fill="none" xmlns="http://www.w3.org/2000/svg">
	<path fill-rule="evenodd" clip-rule="evenodd" d="M12.3355 22.3722C11.3093 22.3722 10.4774 23.1687 10.4774 24.1513V35.8202C10.4774 36.8027 11.3093 37.5993 12.3355 37.5993H16.0873L16.0089 41.3344L19.7501 37.7348V41.0977L17.0339 43.7112C15.7118 44.9833 13.474 44.0445 13.5112 42.2742L13.5596 39.9714H12.3355C9.94108 39.9714 8 38.1128 8 35.8202V24.1513C8 21.8586 9.94108 20 12.3355 20H32.3917C34.5363 20 36.3173 21.4911 36.6655 23.4496H34.0996C33.8153 22.8159 33.1576 22.3722 32.3917 22.3722H12.3355ZM43.1425 30.2206C43.1425 29.238 42.3106 28.4414 41.2844 28.4414H26.5931C25.5669 28.4414 24.735 29.238 24.735 30.2206V39.8249C24.735 40.8075 25.5669 41.604 26.5931 41.604H35.9333L38.9472 44.2018L38.8863 41.604H41.2844C42.3106 41.604 43.1425 40.8075 43.1425 39.8249V30.2206ZM41.2844 26.0693C43.6788 26.0693 45.6199 27.9279 45.6199 30.2206V39.8249C45.6199 42.0742 43.7516 43.9056 41.4199 43.9742L41.4448 45.0352C41.467 45.9805 40.8 46.6237 40.1224 46.8726C39.4472 47.1206 38.5658 47.0647 37.896 46.4875L34.9825 43.9762H26.5931C24.1987 43.9762 22.2576 42.1176 22.2576 39.8249V30.2206C22.2576 27.9279 24.1987 26.0693 26.5931 26.0693H41.2844Z" fill="#B3B7BC"/>
	<path fill-rule="evenodd" clip-rule="evenodd" d="M66.3355 22.3722C65.3093 22.3722 64.4774 23.1687 64.4774 24.1513V35.8202C64.4774 36.8027 65.3093 37.5993 66.3355 37.5993H70.0873L70.0089 41.3344L73.7501 37.7348V41.0977L71.0339 43.7112C69.7118 44.9833 67.474 44.0445 67.5112 42.2742L67.5596 39.9714H66.3355C63.9411 39.9714 62 38.1128 62 35.8202V24.1513C62 21.8586 63.9411 20 66.3355 20H86.3917C88.5363 20 90.3173 21.4911 90.6655 23.4496H88.0996C87.8153 22.8159 87.1576 22.3722 86.3917 22.3722H66.3355ZM97.1425 30.2206C97.1425 29.238 96.3106 28.4414 95.2844 28.4414H80.5931C79.5669 28.4414 78.735 29.238 78.735 30.2206V39.8249C78.735 40.8075 79.5669 41.604 80.5931 41.604H89.9333L92.9472 44.2018L92.8863 41.604H95.2844C96.3106 41.604 97.1425 40.8075 97.1425 39.8249V30.2206ZM95.2844 26.0693C97.6788 26.0693 99.6199 27.9279 99.6199 30.2206V39.8249C99.6199 42.0742 97.7516 43.9056 95.4199 43.9742L95.4448 45.0352C95.467 45.9805 94.8 46.6237 94.1224 46.8726C93.4472 47.1206 92.5658 47.0647 91.896 46.4875L88.9825 43.9762H80.5931C78.1987 43.9762 76.2576 42.1176 76.2576 39.8249V30.2206C76.2576 27.9279 78.1987 26.0693 80.5931 26.0693H95.2844Z" fill="#2FC7F7"/>
</svg>
