<svg width="30" height="30" viewBox="0 0 30 30" fill="none" xmlns="http://www.w3.org/2000/svg">
	<path fill-rule="evenodd" clip-rule="evenodd" d="M21.4373 17.9004C21.0984 17.7317 19.4325 16.9159 19.1218 16.8033C18.8113 16.6907 18.5854 16.6346 18.3595 16.972C18.1336 17.3096 17.4842 18.0693 17.2865 18.2944C17.0889 18.5194 16.8912 18.5477 16.5523 18.3787C16.2135 18.21 15.1216 17.8539 13.8274 16.7049C12.8201 15.8107 12.1399 14.7064 11.9423 14.3688C11.7447 14.0311 11.9212 13.8486 12.0909 13.6805C12.2433 13.5294 12.4298 13.2866 12.5992 13.0897C12.7686 12.8928 12.8251 12.7521 12.938 12.5271C13.051 12.302 12.9945 12.1051 12.9097 11.9363C12.8251 11.7675 12.1474 10.1075 11.865 9.43225C11.59 8.77474 11.3106 8.86379 11.1026 8.85337C10.9052 8.8436 10.679 8.84153 10.4532 8.84153C10.2273 8.84153 9.86014 8.92592 9.54951 9.26347C9.23895 9.60109 8.36357 10.417 8.36357 12.0768C8.36357 13.7368 9.57773 15.3403 9.74719 15.5654C9.91665 15.7905 12.1366 19.1967 15.5359 20.6575C16.3443 21.005 16.9755 21.2125 17.4676 21.3679C18.2793 21.6246 19.018 21.5883 19.6019 21.5015C20.2529 21.4047 21.6067 20.6858 21.8891 19.8981C22.1714 19.1102 22.1714 18.435 22.0867 18.2944C22.002 18.1537 21.7761 18.0693 21.4373 17.9004ZM15.2545 26.302H15.2499C13.2273 26.3013 11.2435 25.7604 9.5129 24.7384L9.10129 24.4953L4.8352 25.609L5.97387 21.4695L5.7059 21.045C4.57757 19.259 3.98161 17.1947 3.98252 15.0751C3.98499 8.89007 9.04153 3.8581 15.259 3.8581C18.2697 3.85914 21.0997 5.0275 23.228 7.14794C25.3561 9.26826 26.5274 12.0867 26.5262 15.0841C26.5237 21.2696 21.4672 26.302 15.2545 26.302ZM24.8476 5.53674C22.2872 2.98562 18.8822 1.58007 15.2544 1.57859C7.77944 1.57859 1.69576 7.63279 1.69277 15.0742C1.69179 17.453 2.31623 19.7748 3.50302 21.8216L1.5791 28.8154L8.76823 26.9386C10.749 28.0139 12.9792 28.5806 15.249 28.5814H15.2545H15.2546C22.7287 28.5814 28.8129 22.5266 28.8159 15.085C28.8173 11.4787 27.408 8.0878 24.8476 5.53674Z" fill="#828B95"/>
</svg>
