<svg width="30" height="31" viewBox="0 0 30 31" fill="none" xmlns="http://www.w3.org/2000/svg">
	<path fill-rule="evenodd" clip-rule="evenodd" d="M21.4371 18.1514C21.0983 17.9826 19.4323 17.1669 19.1217 17.0542C18.8111 16.9417 18.5852 16.8855 18.3593 17.223C18.1334 17.5606 17.484 18.3203 17.2863 18.5453C17.0887 18.7703 16.891 18.7986 16.5522 18.6297C16.2133 18.4609 15.1215 18.1049 13.8272 16.9559C12.8199 16.0616 12.1398 14.9573 11.9422 14.6197C11.7445 14.2821 11.921 14.0996 12.0907 13.9315C12.2432 13.7804 12.4296 13.5376 12.599 13.3406C12.7685 13.1438 12.8249 13.003 12.9379 12.7781C13.0508 12.5529 12.9944 12.3561 12.9096 12.1873C12.8249 12.0185 12.1472 10.3585 11.8649 9.68322C11.5898 9.02572 11.3105 9.11477 11.1024 9.10435C10.905 9.09458 10.6789 9.09251 10.453 9.09251C10.2271 9.09251 9.85999 9.17689 9.54936 9.51445C9.2388 9.85206 8.36342 10.668 8.36342 12.3278C8.36342 13.9878 9.57758 15.5913 9.74704 15.8164C9.91649 16.0415 12.1364 19.4477 15.5357 20.9085C16.3441 21.256 16.9753 21.4635 17.4674 21.6188C18.2791 21.8756 19.0178 21.8393 19.6017 21.7525C20.2527 21.6557 21.6065 20.9367 21.8889 20.149C22.1713 19.3611 22.1713 18.686 22.0865 18.5453C22.0019 18.4046 21.776 18.3203 21.4371 18.1514ZM15.2543 26.553H15.2498C13.2272 26.5522 11.2433 26.0114 9.51275 24.9894L9.10114 24.7462L4.83505 25.86L5.97372 21.7204L5.70575 21.296C4.57742 19.51 3.98146 17.4457 3.98237 15.326C3.98484 9.14104 9.04138 4.10908 15.2588 4.10908C18.2695 4.11011 21.0996 5.27847 23.2278 7.39892C25.3559 9.51924 26.5272 12.3377 26.526 15.3351C26.5235 21.5206 21.467 26.553 15.2543 26.553ZM24.8475 5.78772C22.2871 3.23659 18.8821 1.83105 15.2542 1.82956C7.77929 1.82956 1.69561 7.88376 1.69262 15.3252C1.69164 17.704 2.31608 20.0257 3.50287 22.0726L1.57895 29.0664L8.76807 27.1896C10.7489 28.2648 12.9791 28.8316 15.2488 28.8323H15.2543H15.2544C22.7285 28.8323 28.8127 22.7776 28.8158 15.336C28.8172 11.7297 27.4079 8.33877 24.8475 5.78772Z" fill="#25D366"/>
</svg>
