<svg xmlns="http://www.w3.org/2000/svg" width="108" height="29" viewBox="0 0 108 29"><g fill="#ED1B2F"><path d="M52.814.685C40.598-.571 32.835 1.027 28.84 2.283v8.448a22.262 22.262 0 0 1 8.448-4.795v22.49h5.822V4.452c3.197-.456 6.507-.799 9.704-1.027V.685zM.642 28.426h7.877a58.28 58.28 0 0 1 .799-9.932h11.53v9.932h5.823V.342C-1.185.457.64 28.426.64 28.426zM20.848 15.64H10.003C12.4 7.078 17.08 3.996 20.848 2.854V15.64zM81.126.457v27.969h5.822V2.74c5.366 1.598 12.33 7.078 12.33 25.686h7.877S108.982.456 81.126.456zM69.824 13.014a10.287 10.287 0 0 1 1.256 3.083v.228c-.018.197.022.396.114.571v.228a8.53 8.53 0 0 1-14.727 6.508 2.041 2.041 0 0 1-.57-.8l-1.6 1.485c5.376 5.638 14.29 5.893 19.98.57a14.41 14.41 0 0 0 2.397-18.151l-6.85 6.278z"/><path d="M57.837 12.672v-.228a1.027 1.027 0 0 0-.114-.571v-.228A8.643 8.643 0 0 1 65.6 2.397a8.51 8.51 0 0 1 6.964 2.74c.252.216.448.49.57.8l1.599-1.485c-5.376-5.638-14.29-5.893-19.978-.57a14.41 14.41 0 0 0-2.398 18.151l6.736-6.279a6.112 6.112 0 0 1-1.256-3.082z"/></g></svg>