<svg width="136" height="32" viewBox="0 0 136 32" fill="none" xmlns="http://www.w3.org/2000/svg">
<path opacity="0.75" d="M0.5 0.571899V19.6361H19.5141L0.5 0.571899Z" fill="white"/>
<path d="M19.5141 0.571899H0.5V19.6361L19.5141 0.571899Z" fill="white"/>
<path d="M88.7173 4.38525C85.8826 4.38525 83.3931 6.68783 83.3931 9.53019V15.822H85.6762V13.5329H91.7586V15.822H94.0418V9.53019C94.0418 6.68783 91.5522 4.38525 88.7173 4.38525ZM91.7586 11.2483H85.6762V9.5348C85.6762 7.95613 87.143 6.67441 88.7173 6.67441C90.2918 6.67441 91.7586 7.95613 91.7586 9.5348V11.2483Z" fill="white"/>
<path d="M120.277 4.38525C117.442 4.38525 114.953 6.68783 114.953 9.53019V15.822H117.236V13.5329H123.319V15.822H125.602V9.53019C125.602 6.68783 123.112 4.38525 120.277 4.38525ZM123.319 11.2483H117.236V9.5348C117.236 7.95613 118.703 6.67441 120.277 6.67441C121.852 6.67441 123.319 7.95613 123.319 9.5348V11.2483Z" fill="white"/>
<path d="M101.253 8.9816L101.267 8.95916H98.607C97.9791 8.95916 97.4677 8.44642 97.4677 7.81668C97.4677 7.18714 97.9791 6.67441 98.607 6.67441H102.788L104.308 4.38525H98.6026C96.7141 4.38525 95.1802 5.92345 95.1802 7.81668C95.1802 9.58869 96.5167 11.0459 98.2347 11.2257L98.2213 11.2483H100.881C101.509 11.2483 102.021 11.7608 102.021 12.3906C102.021 13.0201 101.509 13.5329 100.881 13.5329H96.7007L95.1802 15.822H100.886C102.774 15.822 104.308 14.284 104.308 12.3906C104.308 10.6186 102.967 9.16152 101.253 8.9816Z" fill="white"/>
<path d="M108.107 4.38525C106.219 4.38525 104.685 5.92345 104.685 7.81668C104.685 9.58869 106.022 11.0459 107.74 11.2257L107.726 11.2483H110.386C111.014 11.2483 111.525 11.7608 111.525 12.3906C111.525 13.0201 111.014 13.5329 110.386 13.5329H106.206L104.685 15.822H110.391C112.279 15.822 113.813 14.284 113.813 12.3906C113.813 10.6186 112.476 9.16152 110.758 8.9816L110.772 8.95916H108.112C107.484 8.95916 106.973 8.44642 106.973 7.81668C106.973 7.18714 107.484 6.67441 108.112 6.67441H112.292L113.813 4.38525H108.107Z" fill="white"/>
<path d="M82.1372 4.38525L77.4722 9.36389L82.2537 15.8176H79.5939L75.956 10.9784L75.0322 12.0848V15.813H72.749V4.38525H75.0322V8.89603L79.1452 4.38525H82.1372Z" fill="white"/>
<path d="M65.5229 4.38525C62.3741 4.38525 59.8171 6.9443 59.8171 10.1058C59.8171 13.263 62.3695 15.8264 65.5229 15.8264C68.6717 15.8264 71.2284 13.2676 71.2284 10.1058C71.2284 6.9443 68.6717 4.38525 65.5229 4.38525ZM65.5229 13.5329C63.6344 13.5329 62.1003 11.9949 62.1003 10.1014C62.1003 8.20799 63.6344 6.67 65.5229 6.67C67.4111 6.67 68.9453 8.20799 68.9453 10.1014C68.9453 11.9993 67.4111 13.5329 65.5229 13.5329Z" fill="white"/>
<path d="M57.3985 9.49886C57.6811 8.99976 57.8425 8.42852 57.8425 7.81241C57.8425 5.91897 56.3084 4.38098 54.4201 4.38098H49.9346V15.8177H55.5638C57.4522 15.8177 58.9864 14.2795 58.9864 12.3861C58.9818 11.1765 58.3493 10.1106 57.3985 9.49886ZM52.2131 6.67013H54.4201C55.048 6.67013 55.5594 7.18287 55.5594 7.81241C55.5594 8.44194 55.048 8.95468 54.4201 8.95468H52.2131V6.67013ZM55.5594 13.533H52.2131V11.2438H55.5594C56.1873 11.2438 56.6987 11.7566 56.6987 12.3861C56.6987 13.0158 56.1873 13.533 55.5594 13.533Z" fill="white"/>
<path d="M42.897 4.38525C39.7481 4.38525 37.1914 6.9443 37.1914 10.1058C37.1914 13.263 39.7435 15.8264 42.897 15.8264C46.0502 15.8264 48.6025 13.2676 48.6025 10.1058C48.6025 6.9443 46.0458 4.38525 42.897 4.38525ZM42.897 13.5329C41.0085 13.5329 39.4746 11.9949 39.4746 10.1014C39.4746 8.20799 41.0085 6.67 42.897 6.67C44.7852 6.67 46.3194 8.20799 46.3194 10.1014C46.3194 11.9993 44.7852 13.5329 42.897 13.5329Z" fill="white"/>
<path d="M29.4008 15.822H27.1177V4.38525H32.4915C33.4513 4.38525 34.2766 4.71365 34.9719 5.37465C35.6807 6.04487 36.2322 7.02965 36.2458 8.00562C36.2548 8.89163 36.044 9.61113 35.4833 10.2948C34.9495 10.956 34.4067 11.4551 33.5814 11.6304L36.4343 15.822H33.7743L31.0918 11.8644C30.9843 11.716 30.8139 11.6304 30.63 11.6304H29.4008V15.822ZM29.4008 9.53019H32.4421C33.2809 9.53019 33.9627 8.84654 33.9627 8.00562C33.9627 7.1647 33.2809 6.48106 32.4421 6.48106H29.4008V9.53019Z" fill="white"/>
</svg>
