<?xml version="1.0" encoding="UTF-8" standalone="no"?>
<svg
   xmlns:dc="http://purl.org/dc/elements/1.1/"
   xmlns:cc="http://creativecommons.org/ns#"
   xmlns:rdf="http://www.w3.org/1999/02/22-rdf-syntax-ns#"
   xmlns:svg="http://www.w3.org/2000/svg"
   xmlns="http://www.w3.org/2000/svg"
   xmlns:sodipodi="http://sodipodi.sourceforge.net/DTD/sodipodi-0.dtd"
   xmlns:inkscape="http://www.inkscape.org/namespaces/inkscape"
   id="Layer_1"
   x="0px"
   y="0px"
   viewBox="0 0 128 30.000001"
   version="1.1"
   sodipodi:docname="checkbox_s.svg"
   width="128"
   height="30"
   inkscape:version="1.0.1 (3bc2e813f5, 2020-09-07)">
  <metadata
     id="metadata27">
    <rdf:RDF>
      <cc:Work
         rdf:about="">
        <dc:format>image/svg+xml</dc:format>
        <dc:type
           rdf:resource="http://purl.org/dc/dcmitype/StillImage" />
        <dc:title></dc:title>
      </cc:Work>
    </rdf:RDF>
  </metadata>
  <defs
     id="defs25" />
  <sodipodi:namedview
     pagecolor="#ffffff"
     bordercolor="#666666"
     borderopacity="1"
     objecttolerance="10"
     gridtolerance="10"
     guidetolerance="10"
     inkscape:pageopacity="0"
     inkscape:pageshadow="2"
     inkscape:window-width="1920"
     inkscape:window-height="1027"
     id="namedview23"
     showgrid="false"
     lock-margins="true"
     inkscape:zoom="8"
     inkscape:cx="66.935381"
     inkscape:cy="22.379458"
     inkscape:window-x="-8"
     inkscape:window-y="22"
     inkscape:window-maximized="1"
     inkscape:current-layer="Layer_1" />
  <style
     type="text/css"
     id="style2"> .st0{fill:#FFFFFF;} </style>
  <g
     id="g20"
     transform="matrix(0.52385743,0,0,0.52385743,0.24157948,0.38438199)"
     style="fill:#ffffff">
    <path
       class="st0"
       d="m 24.36,26.1 c -0.21,0.27 -0.41,0.48 -0.61,0.63 -0.2,0.15 -0.49,0.23 -0.87,0.23 -0.36,0 -0.71,-0.11 -1.06,-0.33 -0.34,-0.22 -0.75,-0.47 -1.23,-0.74 -0.48,-0.28 -1.04,-0.52 -1.7,-0.74 -0.66,-0.22 -1.47,-0.33 -2.44,-0.33 -1.24,0 -2.32,0.22 -3.26,0.67 -0.93,0.45 -1.71,1.09 -2.33,1.93 -0.62,0.84 -1.08,1.85 -1.38,3.04 -0.3,1.19 -0.46,2.54 -0.46,4.04 0,1.56 0.17,2.95 0.5,4.17 0.33,1.22 0.81,2.24 1.44,3.07 0.63,0.83 1.39,1.46 2.28,1.88 0.89,0.43 1.9,0.64 3.03,0.64 1.12,0 2.03,-0.14 2.73,-0.41 0.69,-0.28 1.28,-0.58 1.76,-0.91 0.48,-0.33 0.89,-0.64 1.24,-0.91 0.35,-0.27 0.75,-0.41 1.19,-0.41 0.57,0 1,0.22 1.29,0.66 l 2.03,2.57 c -0.78,0.91 -1.63,1.68 -2.54,2.3 -0.91,0.62 -1.86,1.11 -2.84,1.48 -0.98,0.37 -1.99,0.63 -3.04,0.79 -1.05,0.15 -2.08,0.23 -3.11,0.23 -1.81,0 -3.51,-0.34 -5.11,-1.01 C 8.27,47.96 6.88,46.98 5.69,45.68 4.5,44.39 3.56,42.8 2.86,40.93 2.16,39.05 1.82,36.92 1.82,34.52 c 0,-2.15 0.31,-4.15 0.93,-5.98 0.62,-1.84 1.53,-3.43 2.73,-4.77 1.2,-1.34 2.68,-2.39 4.45,-3.16 1.77,-0.76 3.81,-1.14 6.11,-1.14 2.19,0 4.11,0.35 5.75,1.06 1.65,0.7 3.13,1.71 4.44,3.03 z"
       style="fill:#ffffff"
       id="path4" />
    <path
       class="st0"
       d="M 31.01,49.2 V 6.77 h 7.05 v 16.31 c 1.14,-1.08 2.4,-1.96 3.77,-2.63 1.37,-0.67 2.98,-1 4.83,-1 1.6,0 3.02,0.27 4.25,0.81 1.24,0.54 2.27,1.3 3.1,2.28 0.83,0.98 1.46,2.15 1.88,3.51 0.43,1.36 0.64,2.86 0.64,4.5 V 49.2 H 49.48 V 30.55 c 0,-1.79 -0.41,-3.17 -1.24,-4.15 -0.83,-0.98 -2.07,-1.47 -3.73,-1.47 -1.22,0 -2.36,0.28 -3.43,0.83 -1.07,0.55 -2.08,1.3 -3.03,2.26 V 49.2 Z"
       style="fill:#ffffff"
       id="path6" />
    <path
       class="st0"
       d="m 75.59,19.45 c 1.85,0 3.55,0.3 5.1,0.89 1.55,0.59 2.89,1.45 4.01,2.58 1.12,1.13 2,2.52 2.63,4.17 0.63,1.65 0.94,3.53 0.94,5.64 0,0.53 -0.02,0.98 -0.07,1.33 -0.05,0.35 -0.13,0.63 -0.26,0.83 -0.12,0.2 -0.29,0.34 -0.5,0.43 -0.21,0.09 -0.48,0.13 -0.8,0.13 h -18.1 c 0.21,3.01 1.02,5.22 2.43,6.62 1.41,1.41 3.27,2.11 5.6,2.11 1.14,0 2.13,-0.13 2.96,-0.4 0.83,-0.27 1.55,-0.56 2.17,-0.89 0.62,-0.32 1.16,-0.62 1.63,-0.88 0.47,-0.26 0.92,-0.4 1.36,-0.4 0.29,0 0.53,0.06 0.74,0.17 0.21,0.11 0.39,0.28 0.54,0.49 l 2.06,2.57 c -0.78,0.91 -1.66,1.68 -2.63,2.3 -0.97,0.62 -1.98,1.11 -3.04,1.48 -1.06,0.37 -2.13,0.63 -3.23,0.79 -1.1,0.15 -2.16,0.23 -3.18,0.23 -2.04,0 -3.93,-0.34 -5.68,-1.01 -1.75,-0.68 -3.27,-1.67 -4.57,-3 -1.29,-1.32 -2.31,-2.96 -3.06,-4.91 -0.74,-1.95 -1.11,-4.21 -1.11,-6.78 0,-2 0.32,-3.88 0.97,-5.64 0.65,-1.76 1.57,-3.29 2.78,-4.6 1.21,-1.3 2.68,-2.34 4.43,-3.1 1.72,-0.77 3.69,-1.15 5.88,-1.15 z m 0.14,5.05 c -2.06,0 -3.66,0.58 -4.83,1.74 -1.16,1.16 -1.9,2.81 -2.23,4.94 H 81.92 C 81.92,30.27 81.8,29.41 81.55,28.6 81.3,27.79 80.92,27.08 80.41,26.47 79.9,25.86 79.25,25.38 78.47,25.03 77.69,24.68 76.78,24.5 75.73,24.5 Z"
       style="fill:#ffffff"
       id="path8" />
    <path
       class="st0"
       d="m 114.59,26.1 c -0.21,0.27 -0.41,0.48 -0.61,0.63 -0.2,0.15 -0.49,0.23 -0.87,0.23 -0.36,0 -0.71,-0.11 -1.06,-0.33 -0.34,-0.22 -0.75,-0.47 -1.23,-0.74 -0.48,-0.28 -1.04,-0.52 -1.7,-0.74 -0.66,-0.22 -1.47,-0.33 -2.44,-0.33 -1.24,0 -2.32,0.22 -3.26,0.67 -0.93,0.45 -1.71,1.09 -2.33,1.93 -0.62,0.84 -1.08,1.85 -1.38,3.04 -0.3,1.19 -0.46,2.54 -0.46,4.04 0,1.56 0.17,2.95 0.5,4.17 0.33,1.22 0.81,2.24 1.44,3.07 0.63,0.83 1.39,1.46 2.28,1.88 0.89,0.43 1.9,0.64 3.03,0.64 1.12,0 2.03,-0.14 2.73,-0.41 0.69,-0.28 1.28,-0.58 1.76,-0.91 0.48,-0.33 0.89,-0.64 1.24,-0.91 0.35,-0.27 0.75,-0.41 1.19,-0.41 0.57,0 1,0.22 1.29,0.66 l 2.03,2.57 c -0.78,0.91 -1.63,1.68 -2.54,2.3 -0.91,0.62 -1.86,1.11 -2.84,1.48 -0.98,0.37 -1.99,0.63 -3.04,0.79 -1.05,0.15 -2.08,0.23 -3.11,0.23 -1.81,0 -3.51,-0.34 -5.11,-1.01 -1.6,-0.68 -2.99,-1.66 -4.18,-2.96 -1.19,-1.29 -2.13,-2.88 -2.83,-4.75 -0.7,-1.88 -1.04,-4.01 -1.04,-6.41 0,-2.15 0.31,-4.15 0.93,-5.98 0.62,-1.84 1.53,-3.43 2.73,-4.77 1.2,-1.34 2.68,-2.39 4.45,-3.16 1.77,-0.76 3.81,-1.14 6.11,-1.14 2.19,0 4.11,0.35 5.75,1.06 1.65,0.7 3.13,1.71 4.44,3.03 z"
       style="fill:#ffffff"
       id="path10" />
    <path
       class="st0"
       d="m 128.38,6.77 v 24.3 h 1.31 c 0.48,0 0.85,-0.07 1.11,-0.2 0.26,-0.13 0.55,-0.38 0.86,-0.74 l 7.28,-9 c 0.32,-0.38 0.67,-0.68 1.03,-0.9 0.36,-0.22 0.84,-0.33 1.43,-0.33 h 6.45 l -9.11,10.88 c -0.32,0.4 -0.66,0.77 -1,1.1 -0.34,0.33 -0.71,0.62 -1.11,0.87 0.4,0.29 0.75,0.62 1.06,1 0.3,0.38 0.61,0.79 0.91,1.23 l 9.77,14.22 H 142 c -0.55,0 -1.02,-0.1 -1.4,-0.29 -0.38,-0.19 -0.72,-0.51 -1.03,-0.97 l -7.45,-11.11 c -0.29,-0.44 -0.57,-0.72 -0.86,-0.86 -0.29,-0.13 -0.71,-0.2 -1.29,-0.2 h -1.6 V 49.2 h -7.05 V 6.77 Z"
       style="fill:#ffffff"
       id="path12" />
    <path
       class="st0"
       d="M 152.83,49.2 V 6.77 h 7.05 V 23.5 c 1.16,-1.24 2.47,-2.22 3.94,-2.96 1.47,-0.73 3.18,-1.1 5.14,-1.1 1.6,0 3.06,0.33 4.38,0.98 1.32,0.65 2.47,1.61 3.43,2.87 0.96,1.26 1.7,2.81 2.23,4.65 0.52,1.85 0.79,3.97 0.79,6.37 0,2.19 -0.29,4.22 -0.88,6.08 -0.59,1.87 -1.43,3.48 -2.53,4.85 -1.09,1.37 -2.42,2.44 -3.97,3.21 -1.55,0.77 -3.29,1.16 -5.21,1.16 -0.9,0 -1.71,-0.09 -2.46,-0.27 -0.75,-0.18 -1.42,-0.43 -2.03,-0.76 -0.61,-0.33 -1.18,-0.72 -1.7,-1.19 -0.52,-0.47 -1.02,-0.99 -1.5,-1.56 l -0.31,1.97 c -0.11,0.5 -0.31,0.85 -0.58,1.06 -0.28,0.21 -0.65,0.31 -1.13,0.31 h -4.66 z m 13.7,-24.27 c -1.47,0 -2.72,0.31 -3.75,0.93 -1.04,0.62 -2,1.49 -2.9,2.61 v 13.14 c 0.8,0.99 1.67,1.68 2.61,2.07 0.94,0.39 1.96,0.59 3.07,0.59 1.07,0 2.03,-0.2 2.88,-0.6 0.86,-0.4 1.58,-1.01 2.18,-1.83 0.6,-0.82 1.06,-1.85 1.38,-3.1 0.32,-1.25 0.49,-2.72 0.49,-4.41 0,-1.71 -0.14,-3.17 -0.41,-4.35 -0.28,-1.19 -0.67,-2.16 -1.19,-2.9 -0.51,-0.74 -1.14,-1.28 -1.87,-1.63 -0.72,-0.35 -1.55,-0.52 -2.49,-0.52 z"
       style="fill:#ffffff"
       id="path14" />
    <path
       class="st0"
       d="m 197.8,19.45 c 2.19,0 4.17,0.35 5.95,1.06 1.78,0.71 3.3,1.7 4.55,3 1.26,1.29 2.23,2.88 2.91,4.74 0.68,1.87 1.03,3.95 1.03,6.25 0,2.32 -0.34,4.42 -1.03,6.28 -0.69,1.87 -1.66,3.46 -2.91,4.77 -1.25,1.31 -2.77,2.32 -4.55,3.03 -1.78,0.71 -3.76,1.06 -5.95,1.06 -2.19,0 -4.18,-0.35 -5.97,-1.06 -1.79,-0.7 -3.32,-1.71 -4.58,-3.03 -1.27,-1.31 -2.25,-2.9 -2.94,-4.77 -0.7,-1.87 -1.04,-3.96 -1.04,-6.28 0,-2.3 0.35,-4.39 1.04,-6.25 0.69,-1.87 1.67,-3.45 2.94,-4.74 1.27,-1.29 2.79,-2.29 4.58,-3 1.79,-0.71 3.78,-1.06 5.97,-1.06 z m 0,24.75 c 2.44,0 4.24,-0.82 5.41,-2.46 1.17,-1.64 1.76,-4.04 1.76,-7.2 0,-3.16 -0.59,-5.57 -1.76,-7.22 -1.17,-1.66 -2.98,-2.48 -5.41,-2.48 -2.47,0 -4.3,0.83 -5.48,2.5 -1.18,1.67 -1.77,4.07 -1.77,7.21 0,3.14 0.59,5.54 1.77,7.18 1.18,1.65 3.01,2.47 5.48,2.47 z"
       style="fill:#ffffff"
       id="path16" />
    <path
       class="st0"
       d="m 222.99,34.1 -9.62,-14.19 h 6.8 c 0.51,0 0.89,0.07 1.14,0.21 0.25,0.14 0.47,0.38 0.66,0.7 l 6.14,9.79 c 0.09,-0.32 0.21,-0.65 0.36,-0.97 0.15,-0.32 0.32,-0.65 0.53,-0.97 l 4.94,-7.71 c 0.23,-0.36 0.47,-0.63 0.71,-0.8 0.25,-0.17 0.55,-0.26 0.91,-0.26 h 6.48 l -9.65,13.88 10.05,15.42 h -6.8 c -0.51,0 -0.93,-0.13 -1.24,-0.4 -0.31,-0.27 -0.58,-0.57 -0.79,-0.91 L 227.38,37.7 c -0.17,0.69 -0.41,1.26 -0.71,1.71 l -5.48,8.48 c -0.21,0.32 -0.47,0.62 -0.77,0.9 -0.3,0.28 -0.69,0.41 -1.14,0.41 h -6.31 z"
       style="fill:#ffffff"
       id="path18" />
  </g>
</svg>
