<svg xmlns="http://www.w3.org/2000/svg" width="38" height="36" viewBox="0 0 38 36">
  <path fill="#359FD0" fill-rule="evenodd" d="M574.696177,458.887324 C575.496268,458.887324 576.144869,459.535926 576.144869,460.336016 L576.144869,465.551308 C576.144869,466.351398 575.496268,467 574.696177,467 L541.303823,467 C540.503732,467 539.855131,466.351398 539.855131,465.551308 L539.855131,460.336016 C539.855131,459.535926 540.503732,458.887324 541.303823,458.887324 L574.696177,458.887324 Z M558,461.784708 C557.021803,461.784708 556.228818,462.577693 556.228818,463.55589 C556.228818,464.534087 557.021803,465.327072 558,465.327072 C558.978197,465.327072 559.771182,464.534087 559.771182,463.55589 C559.771182,462.577693 558.978197,461.784708 558,461.784708 Z M555.71831,431 C556.5184,431 557.167002,431.648602 557.167002,432.448692 L557.167002,436.939638 L569.227364,436.939638 C570.027455,436.939638 570.676056,437.588239 570.676056,438.38833 L570.676056,441.358149 L570.685252,441.358149 C573.431637,448.612211 574.804829,452.342593 574.804829,452.549296 L574.804829,455.193159 C574.804829,455.99325 574.156227,456.641851 573.356137,456.641851 L542.716298,456.641851 C541.916207,456.641851 541.267606,455.99325 541.267606,455.193159 L541.267606,452.549296 C541.267606,452.342593 542.426559,448.642971 544.744467,441.450431 L544.744467,438.38833 C544.744467,437.588239 545.393068,436.939638 546.193159,436.939638 L548.402414,436.939638 L548.402414,432.448692 C548.402414,431.648602 549.051016,431 549.851107,431 L555.71831,431 Z M568.867736,448.704337 L547.354657,448.704337 C547.23893,448.704337 547.144332,448.794802 547.137722,448.908872 L547.137354,448.921641 L547.137354,451.239548 C547.137354,451.355276 547.227819,451.449874 547.341889,451.456483 L547.354657,451.456852 L568.867736,451.456852 C568.983463,451.456852 569.078061,451.366387 569.084671,451.252316 L569.08504,451.239548 L569.08504,448.921641 C569.08504,448.801627 568.987749,448.704337 568.867736,448.704337 Z M567.067811,443.799948 L549.150075,443.799948 C549.053689,443.799948 548.9749,443.890413 548.969395,444.004484 L548.969088,444.017252 L548.969088,446.33516 C548.969088,446.450887 549.044434,446.545485 549.139441,446.552095 L549.150075,446.552464 L567.067811,446.552464 C567.164197,446.552464 567.242986,446.461998 567.248491,446.347928 L567.248798,446.33516 L567.248798,444.017252 C567.248798,443.897239 567.167767,443.799948 567.067811,443.799948 Z M554.607151,433.245267 L550.962265,433.245267 C550.79658,433.245267 550.662265,433.379582 550.662265,433.545267 L550.662265,438.523143 C550.662265,438.688828 550.79658,438.823143 550.962265,438.823143 L554.607151,438.823143 C554.772837,438.823143 554.907151,438.688828 554.907151,438.523143 L554.907151,433.545267 C554.907151,433.379582 554.772837,433.245267 554.607151,433.245267 Z" transform="translate(-539 -431)"/>
</svg>
