<svg xmlns="http://www.w3.org/2000/svg" width="92" height="64" viewBox="0 0 92 64"><g fill="#FFF"><path d="M34.89 34.24c-1.044-.003-1.83-.866-1.837-2.012-.006-1.177.782-2.148 1.848-2.143 1.042.006 1.829.96 1.836 2.108.01 1.174-.785 2.052-1.847 2.047zm1.826-4.853c-1.855-1.97-4.262-.926-5.032.691-.673 1.405-.667 2.909.06 4.282.716 1.345 2.338 1.912 3.614 1.506.727-.23.995-.459 1.339-.777v.613c0 .26-.157 1.907-2.065 1.907-1.298 0-2.53-.871-2.53-.871l-.867 1.491c1.382 1.018 2.863 1.12 3.41 1.12 3.667 0 3.935-2.811 3.935-4.34V28.56h-1.825c-.015.29-.025.54-.04.827zm-18.499 4.86c-1.063 0-1.853-.882-1.855-2.069-.005-1.218.792-2.106 1.88-2.091 1.055.014 1.831.904 1.83 2.093-.004 1.19-.793 2.066-1.855 2.066zm1.831-4.843c-.566-.752-1.434-1.09-2.228-1.092-1.198-.002-2.373.745-2.887 1.878-.583 1.298-.608 2.793.105 4.146.713 1.344 2.157 1.903 3.58 1.552.542-.132 1.014-.398 1.462-.806v.804h1.81v-7.318h-1.796s-.028.53-.046.836zm21.777 1.568c.051-.722.676-1.288 1.46-1.33.853-.047 1.518.458 1.69 1.33h-3.15zm1.958-2.873c-2.052-.252-3.88 1.329-4.003 3.458-.133 2.433 1.453 4.217 3.723 4.193a3.349 3.349 0 0 0 3.261-2.55h-1.776c-.321.648-.991 1.095-1.968.952-.872-.126-1.404-.967-1.36-1.922h5.235c.251-2.038-1.1-3.884-3.112-4.13zm-16.347.213c-.967 0-1.628.547-2.063 1.157v-.912H23.56v7.193h1.814v-4.098c0-.742.572-1.595 1.543-1.595 1.156 0 1.296.937 1.296 2.02v3.673h1.785v-4.437c0-1.265-.375-3-2.561-3zm37.542 5.697c-1.063.012-1.863-.848-1.874-2.017-.016-1.2.772-2.083 1.852-2.083 1.058.002 1.844.87 1.849 2.04.006 1.177-.77 2.05-1.827 2.06zm1.83-4.763c-1.88-1.965-4.324-.952-5.097.705-.65 1.388-.655 2.785.07 4.135.637 1.173 1.663 1.731 3.008 1.658.78-.042 1.417-.413 2.016-1.05v.927h1.816V25.434h-1.814v3.812zm14.706-2.373h-1.867v1.636h-1.25v1.728h1.253v3.21c0 1.416.477 2.543 2.22 2.543.951 0 1.391-.222 1.391-.222v-1.625s-.444.126-.938.126c-.818 0-.81-.873-.81-1.28v-2.752h2.129V28.51h-2.128v-1.636zM4.868 34.227c-1.072.012-1.878-.886-1.873-2.09.004-1.186.791-2.06 1.848-2.06 1.052.002 1.844.883 1.848 2.063.005 1.186-.771 2.073-1.823 2.087zm.023-5.915C2.78 28.3 1.149 29.96 1.147 32.13c-.002 2.167 1.589 3.85 3.65 3.861 2.12.014 3.738-1.634 3.741-3.813.007-2.162-1.588-3.852-3.647-3.864zm6.643 1.37v-1.127H9.73v7.195h1.804v-3.573c0-1.933 1.533-2.31 2.488-2.013v-1.809c-.96-.198-2.017.296-2.488 1.327zm61.997 4.564c-1.063 0-1.852-.881-1.855-2.068-.007-1.218.792-2.106 1.88-2.091 1.056.014 1.833.904 1.828 2.093-.002 1.19-.791 2.066-1.853 2.066zm1.831-4.842c-.567-.752-1.434-1.09-2.227-1.092-1.198-.002-2.372.745-2.889 1.878-.581 1.298-.607 2.793.107 4.146.71 1.344 2.156 1.903 3.578 1.552.543-.132 1.016-.398 1.463-.806v.804h1.81v-7.318h-1.796s-.028.53-.046.836zm12.712 4.842c-1.062 0-1.853-.881-1.854-2.068-.007-1.218.792-2.106 1.878-2.091 1.057.014 1.833.904 1.83 2.093-.003 1.19-.792 2.066-1.854 2.066zm1.876-5.678s-.026.53-.045.836c-.567-.752-1.433-1.09-2.227-1.092-1.198-.002-2.373.745-2.887 1.878-.583 1.298-.608 2.793.105 4.146.711 1.344 2.157 1.903 3.578 1.552.543-.132 1.016-.398 1.463-.806v.804h1.811v-7.318H89.95zM34.324 59.987a1.075 1.075 0 0 0-.986 1.16 1.077 1.077 0 0 0 1.153.992 1.079 1.079 0 0 0 .986-1.162 1.074 1.074 0 0 0-1.153-.99m-10.967 1.679a1.079 1.079 0 0 0-.987 1.16c.047.595.564 1.04 1.155.993a1.08 1.08 0 0 0 .984-1.162 1.075 1.075 0 0 0-1.152-.991m15.3-3.839c-.373.03-.68.258-.838.57a1.033 1.033 0 0 0-1.144 1.11c.045.569.542.995 1.111.953.36-.03.677-.246.838-.568a1.04 1.04 0 0 0 1.145-1.113 1.036 1.036 0 0 0-1.112-.952m-8.624 3.36a1.074 1.074 0 0 0-.987 1.157 1.077 1.077 0 0 0 1.154.995 1.077 1.077 0 0 0 .985-1.163 1.072 1.072 0 0 0-1.152-.99m-2.145.24a1.078 1.078 0 0 0-.987 1.16c.045.595.562 1.04 1.154.993a1.077 1.077 0 0 0 .985-1.162 1.07 1.07 0 0 0-1.153-.99m14.109-5.759a1.039 1.039 0 0 0-.883.701c-.523.094-.902.592-.861 1.162.044.604.543 1.058 1.112 1.01.41-.034.741-.318.882-.7.524-.092.903-.593.86-1.165-.043-.604-.541-1.058-1.11-1.008m6.406-6.718a1.059 1.059 0 0 0-.975 1.093c-.507.12-.85.591-.81 1.111.003.03.01.058.017.09-.022 0-.041-.005-.061-.003a1.06 1.06 0 0 0-.974 1.012c-.478.05-.862.417-.934.892a1.058 1.058 0 0 0-.807.68 1.057 1.057 0 0 0-.745 1.097 1.062 1.062 0 0 0 1.14.98c.416-.035.774-.31.914-.703.389-.12.675-.451.735-.853.485-.088.845-.5.865-.993.572-.06.992-.564.946-1.137-.002-.028-.011-.058-.016-.086.021-.003.041.002.062 0a1.06 1.06 0 0 0 .974-1.091 1.062 1.062 0 0 0-.331-2.09m1.42-2.158a1.075 1.075 0 0 0-.986 1.16 1.07 1.07 0 0 0 1.153.992 1.076 1.076 0 0 0 .985-1.162 1.073 1.073 0 0 0-1.152-.99m1.702-3.36c-.523.04-.923.484-.955 1.018a1.103 1.103 0 0 0-.303.85c.044.6.545 1.053 1.12 1.005.525-.043.924-.485.955-1.018.217-.228.327-.539.302-.854-.043-.6-.545-1.05-1.118-1m1.598-4.08c-.608.048-1.061.56-1.013 1.144.008.099.033.188.064.276a1.044 1.044 0 0 0-.478.957c.046.585.578 1.023 1.187.976.61-.044 1.064-.557 1.016-1.143a1.008 1.008 0 0 0-.065-.274c.314-.208.511-.563.478-.957-.047-.585-.579-1.022-1.189-.979"/><path d="M55.265 32.969a1.077 1.077 0 0 0-.229-.582c.162-.205.252-.467.23-.747a1.076 1.076 0 0 0-.239-.591 1.059 1.059 0 0 0-.076-1.291 1.057 1.057 0 0 0 .063-1.113 1.07 1.07 0 0 0-.865-1.358 1.07 1.07 0 1 0-.151-1.95 1.064 1.064 0 0 0-.061-1.566 1.07 1.07 0 1 0-1.055 1.824 1.07 1.07 0 0 0-.31.837c.04.495.415.898.906.973a1.071 1.071 0 0 0-.431 1.45 1.058 1.058 0 0 0-.043.383c.019.236.115.446.258.613a1.064 1.064 0 0 0 .05 1.278c-.262.386-.243.897.047 1.263a1.062 1.062 0 0 0-.024 1.293 1.073 1.073 0 0 0-.332.857c.032.386.27.725.623.887a1.072 1.072 0 0 0-.377 1.854 1.07 1.07 0 1 0 1.453.911 1.056 1.056 0 0 0-.386-.741 1.07 1.07 0 0 0 .682-1.08 1.07 1.07 0 0 0-.623-.887c.485-.144.803-.608.764-1.112a1.06 1.06 0 0 0-.206-.546c.225-.218.357-.524.332-.86M41.915 6.997a1.08 1.08 0 0 0-1.155-.994 1.08 1.08 0 0 0-.614 1.895c.216.187.498.28.782.258a1.079 1.079 0 0 0 .987-1.16M24.533.752a1.089 1.089 0 0 0-.722.353 1.092 1.092 0 0 0-.918-.38 1.073 1.073 0 0 0-1 1.144 1.082 1.082 0 0 0 1.17.98c.277-.022.535-.147.722-.352.227.266.567.408.916.38a1.072 1.072 0 0 0 1-1.146 1.084 1.084 0 0 0-1.168-.979M10.959 3.843a1.078 1.078 0 0 0-.986 1.16 1.077 1.077 0 0 0 1.153.993 1.077 1.077 0 0 0 .985-1.162 1.073 1.073 0 0 0-1.152-.99m35.605 9.354a1.067 1.067 0 0 0 1 1.234 1.071 1.071 0 0 0-.042.386c.048.597.555 1.042 1.136.995.013 0 .025-.005.04-.007a1.08 1.08 0 0 0 .53 1.49 1.067 1.067 0 0 0 1.096 1.168 1.09 1.09 0 0 0-.235.76c.041.525.438.931.93.993a1.08 1.08 0 0 0 .257 1.513 1.067 1.067 0 0 0 1.114 1.3c.58-.047 1.014-.567.969-1.163a1.074 1.074 0 0 0-.456-.802 1.072 1.072 0 0 0-.905-1.296 1.1 1.1 0 0 0 .198-.713 1.064 1.064 0 0 0-1.1-.994 1.083 1.083 0 0 0-.414-1.67c.004-.059.01-.115.004-.176a1.065 1.065 0 0 0-1.136-.993c-.014 0-.025.004-.038.008.091-.18.132-.38.117-.581a1.062 1.062 0 0 0-1.01-.992c.036-.123.053-.251.042-.387-.042-.57-.514-1-1.068-.992a1.062 1.062 0 0 0-1.124-1.238c-.582.046-1.016.569-.972 1.163.045.572.516 1 1.067.994M1.66 11.04a1.08 1.08 0 0 0 .167 2.153 1.08 1.08 0 0 0-.167-2.153m33.153-8.33a1.08 1.08 0 0 0-.58.226 1.06 1.06 0 0 0-1.108-.774 1.055 1.055 0 0 0-.979 1.124 1.061 1.061 0 0 0 1.144.962c.212-.016.414-.094.581-.225.13.476.59.813 1.108.772a1.049 1.049 0 0 0 .976-1.124 1.056 1.056 0 0 0-1.142-.961M38.1 4.835a1.076 1.076 0 0 0-1.154-.992 1.08 1.08 0 0 0 .168 2.153 1.078 1.078 0 0 0 .986-1.161m-9.807-1.718a1.079 1.079 0 0 0 .985-1.162 1.073 1.073 0 1 0-2.139.17 1.075 1.075 0 0 0 1.154.992m-14.235-.713a1.08 1.08 0 0 0 .167 2.152 1.078 1.078 0 0 0 .986-1.161 1.075 1.075 0 0 0-1.153-.992"/></g></svg>