<svg xmlns="http://www.w3.org/2000/svg" width="304" height="81" viewBox="0 0 304 81">
  <g fill="none" fill-rule="evenodd" transform="translate(.781)">
    <path fill="#F7BB19" d="M19.4376286,0.014513832 C19.3977975,0.0265985588 19.3562365,0.0507686313 19.3129404,0.0725212634 L0.651171339,7.45911022 C0.183585275,7.67905584 0.0138764045,8.1551994 -2.13162821e-14,8.71590697 L-2.13162821e-14,32.4992631 C0.00519544997,33.031001 0.284009657,33.5361575 0.651171339,33.6787167 L19.1329461,40.9873436 C19.3615389,41.0888552 19.6611362,41.0743517 19.9087834,41.0066794 L38.5563657,33.6398903 C38.9235008,33.4900364 39.1971186,32.9752335 39.1936605,32.4410702 L39.1936605,8.87056251 C39.2040511,8.14545414 39.0239474,7.72006631 38.5424893,7.49768903 L19.7840731,0.0727378243 C19.6559224,0.00747869076 19.5554803,-0.0191088221 19.4377172,0.0147303931 L19.4376286,0.014513832 Z M19.5484623,2.54753594 L35.0377219,8.69632365 L19.5484623,14.8064397 L4.04545958,8.67701879 L19.5484623,2.54753594 Z"/>
    <path fill="#FFFFFF" fill-rule="nonzero" d="M74.0119063,36.932731 C71.3173435,36.932731 68.7891496,36.5668082 66.4272488,35.8349517 C64.065348,35.1030951 62.0694055,34.0718581 60.4393613,32.7412098 L62.585021,28.0506979 C64.2815976,29.34808 66.0696295,30.2961527 67.9491702,30.8949445 C69.828711,31.4937362 71.8662357,31.7931276 74.0618054,31.7931276 C76.4902386,31.7931276 78.3614347,31.3689898 79.67545,30.5207015 C80.9894652,29.6724132 81.6464629,28.4831641 81.6464629,26.9529185 C81.6464629,25.6222702 81.0393637,24.607666 79.8251472,23.9090757 C78.6109306,23.2104853 76.5900387,22.5451711 73.762411,21.9131132 C70.8349847,21.2810552 68.4564865,20.5492096 66.6268451,19.7175544 C64.7972036,18.8858992 63.4166767,17.8213965 62.4852229,16.5240144 C61.553769,15.2266323 61.0880491,13.5799797 61.0880491,11.5840072 C61.0880491,9.52150228 61.6535662,7.67525542 62.7846172,6.04521122 C63.9156683,4.41516702 65.5124223,3.14275365 67.5749273,2.22793292 C69.6374322,1.3131122 72.0159304,0.855708697 74.7104932,0.855708697 C77.1721926,0.855708697 79.5174251,1.22994793 81.7462611,1.97843761 C83.975097,2.72692729 85.804711,3.74984785 87.235158,5.04722997 L85.0894983,9.73774186 C81.9624747,7.24277625 78.502841,5.99531216 74.7104932,5.99531216 C72.4483911,5.99531216 70.6603592,6.45271566 69.346344,7.36753638 C68.0323288,8.28235711 67.375331,9.55477048 67.375331,11.1848147 C67.375331,12.5487292 67.9574809,13.5965991 69.1217982,14.3284556 C70.2861155,15.0603122 72.2654252,15.7422593 75.0597867,16.3743172 C78.0204792,17.0396414 80.4239267,17.7798034 82.2702012,18.5948255 C84.1164758,19.4098476 85.5302684,20.449401 86.5116216,21.7135169 C87.4929747,22.9776328 87.9836439,24.5743869 87.9836439,26.5038269 C87.9836439,28.5995981 87.4264433,30.4375285 86.3120253,32.0176734 C85.1976073,33.5978183 83.5842204,34.8120166 81.4718162,35.660305 C79.359412,36.5085933 76.8728002,36.932731 74.0119063,36.932731 Z M105.08239,32.1923201 C105.814246,32.1923201 106.579358,32.1424215 107.377747,32.0426229 L107.078352,36.6832357 C106.080366,36.7830344 105.165559,36.8329329 104.333904,36.8329329 C100.907484,36.8329329 98.3792905,36.0428723 96.7492463,34.4627274 C95.1192021,32.8825826 94.3041923,30.5290336 94.3041923,27.4020101 L94.3041923,16.7735097 L89.6136804,16.7735097 L89.6136804,12.0829978 L94.3041923,12.0829978 L94.3041923,4.79773465 L100.541575,4.79773465 L100.541575,12.0829978 L106.978554,12.0829978 L106.978554,16.7735097 L100.541575,16.7735097 L100.541575,27.3022119 C100.541575,30.5623003 102.055165,32.1923201 105.08239,32.1923201 Z M121.732044,36.882832 C119.237079,36.882832 117.049858,36.3672135 115.170317,35.335961 C113.290777,34.3047086 111.835402,32.8243845 110.804149,30.8949445 C109.772897,28.9655044 109.257278,26.720069 109.257278,24.158571 C109.257278,21.597073 109.772897,19.359954 110.804149,17.4471471 C111.835402,15.5343401 113.290777,14.0623325 115.170317,13.03108 C117.049858,11.9998276 119.237079,11.4842091 121.732044,11.4842091 C124.22701,11.4842091 126.41423,11.9998276 128.293771,13.03108 C130.173312,14.0623325 131.62037,15.5343401 132.634989,17.4471471 C133.649609,19.359954 134.156911,21.597073 134.156911,24.158571 C134.156911,26.720069 133.649609,28.9655044 132.634989,30.8949445 C131.62037,32.8243845 130.173312,34.3047086 128.293771,35.335961 C126.41423,36.3672135 124.22701,36.882832 121.732044,36.882832 Z M121.682145,32.0426229 C123.711384,32.0426229 125.258239,31.3773087 126.322758,30.0466604 C127.387277,28.7160121 127.919528,26.7533352 127.919528,24.158571 C127.919528,21.597073 127.387277,19.6427126 126.322758,18.2954311 C125.258239,16.9481497 123.728017,16.2745191 121.732044,16.2745191 C119.736072,16.2745191 118.197533,16.9481497 117.116381,18.2954311 C116.035229,19.6427126 115.494661,21.597073 115.494661,24.158571 C115.494661,26.7533352 116.026913,28.7160121 117.091431,30.0466604 C118.15595,31.3773087 119.686173,32.0426229 121.682145,32.0426229 Z M154.948187,16.6737116 L151.305556,17.023005 C147.180546,17.4554657 145.118072,19.5512054 145.118072,23.3102869 L145.118072,36.4836395 L138.880689,36.4836395 L138.880689,12.0829978 L144.818678,12.0829978 L144.818678,16.3743172 C146.082794,13.4468909 148.694152,11.8501368 152.65283,11.5840072 L154.548995,11.43431 L154.948187,16.6737116 Z M178.483912,25.4060476 L161.867524,25.4060476 C162.067122,27.6681497 162.749069,29.348068 163.913386,30.4458529 C165.077703,31.5436378 166.740989,32.092522 168.903292,32.092522 C171.597855,32.092522 174.059518,31.2276135 176.288354,29.4977707 L178.08472,33.7890901 C176.953669,34.7205439 175.53156,35.4690224 173.81835,36.0345479 C172.10514,36.6000735 170.38364,36.882832 168.653797,36.882832 C164.661852,36.882832 161.509926,35.7517979 159.197925,33.4896957 C156.885923,31.2275936 155.72994,28.1338826 155.72994,24.2084701 C155.72994,21.7135044 156.228925,19.5013348 157.226912,17.5718947 C158.224898,15.6424546 159.630374,14.1454977 161.443382,13.0809791 C163.256391,12.0164604 165.310548,11.4842091 167.605917,11.4842091 C170.965804,11.4842091 173.618744,12.5653446 175.564817,14.7276481 C177.51089,16.8899517 178.483912,19.8672326 178.483912,23.6595804 L178.483912,25.4060476 Z M167.755614,15.8753266 C166.092303,15.8753266 164.753359,16.4075779 163.738739,17.4720966 C162.72412,18.5366152 162.100388,20.0668379 161.867524,22.0628104 L173.144713,22.0628104 C173.07818,20.0335717 172.579195,18.4950326 171.647741,17.4471471 C170.716287,16.3992615 169.418924,15.8753266 167.755614,15.8753266 Z M197.329125,11.4842091 C200.256552,11.4842091 202.435456,12.3158518 203.865903,13.9791622 C205.29635,15.6424726 206.011562,18.1540336 206.011562,21.5139207 L206.011562,36.4836395 L199.77418,36.4836395 L199.77418,21.8632141 C199.77418,19.9670402 199.416573,18.5865133 198.70135,17.7215919 C197.986126,16.8566705 196.863409,16.4242163 195.333163,16.4242163 C193.536788,16.4242163 192.098046,16.9897333 191.016894,18.1207844 C189.935742,19.2518355 189.395174,20.7654252 189.395174,22.6615991 L189.395174,36.4836395 L183.157792,36.4836395 L183.157792,12.0829978 L189.245477,12.0829978 L189.245477,15.7256294 C190.077132,14.3617149 191.191534,13.313845 192.588714,12.5819884 C193.985895,11.8501319 195.566016,11.4842091 197.329125,11.4842091 Z M222.411721,11.4842091 C225.838141,11.4842091 228.382968,12.3158518 230.046278,13.9791622 C231.709588,15.6424726 232.541231,18.2039322 232.541231,21.6636179 L232.541231,36.4836395 L226.603243,36.4836395 L226.603243,32.7412098 C226.037717,34.0385919 225.147859,35.053196 223.933643,35.7850526 C222.719426,36.5169092 221.31395,36.882832 219.717172,36.882832 C218.087128,36.882832 216.606804,36.5501749 215.276155,35.8848507 C213.945507,35.2195266 212.897637,34.3047196 212.132514,33.1404023 C211.367392,31.976085 210.984836,30.6787223 210.984836,29.2482754 C210.984836,27.4519001 211.44224,26.0381075 212.35706,25.0068551 C213.271881,23.9756026 214.760521,23.2271241 216.823026,22.7613972 C218.885531,22.2956703 221.729749,22.0628104 225.355766,22.0628104 L226.603243,22.0628104 L226.603243,20.9151319 C226.603243,19.2518215 226.245636,18.054256 225.530413,17.3223994 C224.815189,16.5905428 223.62594,16.22462 221.96263,16.22462 C220.665248,16.22462 219.30967,16.4491636 217.895856,16.8982574 C216.482042,17.3473512 215.093199,17.9710832 213.729284,18.7694722 L211.982817,14.4781528 C213.346732,13.6132314 214.993384,12.8980187 216.922824,12.3324931 C218.852265,11.7669676 220.681879,11.4842091 222.411721,11.4842091 Z M220.964649,32.3919163 C222.627959,32.3919163 223.983537,31.8347157 225.031422,30.7202977 C226.079308,29.6058798 226.603243,28.1671378 226.603243,26.4040288 L226.603243,25.3561485 L225.70506,25.3561485 C223.476224,25.3561485 221.746407,25.4559456 220.515557,25.6555429 C219.284707,25.8551401 218.403166,26.2044301 217.870907,26.7034232 C217.338647,27.2024163 217.072522,27.8843634 217.072522,28.7492848 C217.072522,29.8138034 217.438444,30.6870283 218.170301,31.3689856 C218.902158,32.0509428 219.833597,32.3919163 220.964649,32.3919163 Z M267.453942,11.4842091 C270.215038,11.4842091 272.277512,12.3075354 273.641426,13.9542127 C275.005341,15.60089 275.687288,18.1207674 275.687288,21.5139207 L275.687288,36.4836395 L269.449905,36.4836395 L269.449905,21.763416 C269.449905,19.9005083 269.133881,18.5449307 268.501823,17.6966424 C267.869765,16.8483541 266.855161,16.4242163 265.45798,16.4242163 C263.79467,16.4242163 262.497307,16.9897333 261.565853,18.1207844 C260.634399,19.2518355 260.168679,20.8319567 260.168679,22.8611954 L260.168679,36.4836395 L253.931296,36.4836395 L253.931296,21.763416 C253.931296,19.9005083 253.623589,18.5449307 253.008164,17.6966424 C252.392739,16.8483541 251.369818,16.4242163 249.939371,16.4242163 C248.309327,16.4242163 247.028597,16.9897333 246.097144,18.1207844 C245.16569,19.2518355 244.69997,20.8319567 244.69997,22.8611954 L244.69997,36.4836395 L238.462587,36.4836395 L238.462587,12.0829978 L244.550273,12.0829978 L244.550273,15.5260331 C245.282129,14.1953848 246.296733,13.1890971 247.594115,12.5071398 C248.891498,11.8251826 250.371822,11.4842091 252.035132,11.4842091 C255.727681,11.4842091 258.172711,13.0144317 259.370294,16.0749228 C260.135417,14.6444759 261.233185,13.5217582 262.663632,12.7067361 C264.094079,11.891714 265.690833,11.4842091 267.453942,11.4842091 Z M303.015342,25.4060476 L286.398954,25.4060476 C286.598551,27.6681497 287.280498,29.348068 288.444815,30.4458529 C289.609133,31.5436378 291.272418,32.092522 293.434722,32.092522 C296.129284,32.092522 298.590947,31.2276135 300.819783,29.4977707 L302.616149,33.7890901 C301.485098,34.7205439 300.062989,35.4690224 298.349779,36.0345479 C296.636569,36.6000735 294.915069,36.882832 293.185226,36.882832 C289.193281,36.882832 286.041355,35.7517979 283.729354,33.4896957 C281.417352,31.2275936 280.261369,28.1338826 280.261369,24.2084701 C280.261369,21.7135044 280.760355,19.5013348 281.758341,17.5718947 C282.756327,15.6424546 284.161803,14.1454977 285.974812,13.0809791 C287.78782,12.0164604 289.841978,11.4842091 292.137346,11.4842091 C295.497233,11.4842091 298.150173,12.5653446 300.096246,14.7276481 C302.04232,16.8899517 303.015342,19.8672326 303.015342,23.6595804 L303.015342,25.4060476 Z M292.287043,15.8753266 C290.623733,15.8753266 289.284788,16.4075779 288.270169,17.4720966 C287.255549,18.5366152 286.631817,20.0668379 286.398954,22.0628104 L297.676142,22.0628104 C297.609609,20.0335717 297.110624,18.4950326 296.17917,17.4471471 C295.247716,16.3992615 293.950353,15.8753266 292.287043,15.8753266 Z"/>
    <path fill="#FFFFFF" fill-rule="nonzero" d="M24.9228965,76.1567933 C22.2828833,76.1567933 20.1709044,75.4448004 18.5868965,74.0207933 L19.3548965,72.5087933 C20.1869007,73.2127968 21.0388922,73.7167918 21.9108965,74.0207933 C22.7829009,74.3247948 23.7948908,74.4767933 24.9468965,74.4767933 C26.3069033,74.4767933 27.3548928,74.212796 28.0908965,73.6847933 C28.8269002,73.1567907 29.1948965,72.4127981 29.1948965,71.4527933 C29.1948965,70.8927905 29.0188983,70.4367951 28.6668965,70.0847933 C28.3148948,69.7327916 27.8508994,69.4527944 27.2748965,69.2447933 C26.6988936,69.0367923 25.9229014,68.8207944 24.9468965,68.5967933 C23.63489,68.2927918 22.5589007,67.972795 21.7188965,67.6367933 C20.8788923,67.3007916 20.1988991,66.8207964 19.6788965,66.1967933 C19.1588939,65.5727902 18.8988965,64.7567984 18.8988965,63.7487933 C18.8988965,62.7887885 19.150894,61.936797 19.6548965,61.1927933 C20.158899,60.4487896 20.8788918,59.8727954 21.8148965,59.4647933 C22.7509012,59.0567913 23.8348904,58.8527933 25.0668965,58.8527933 C26.2349024,58.8527933 27.3268914,59.0367915 28.3428965,59.4047933 C29.3589016,59.7727952 30.218893,60.3007899 30.9228965,60.9887933 L30.1788965,62.5007933 C29.3788925,61.8127899 28.5669006,61.3127949 27.7428965,61.0007933 C26.9188924,60.6887918 26.0269013,60.5327933 25.0668965,60.5327933 C23.75489,60.5327933 22.7269002,60.8087906 21.9828965,61.3607933 C21.2388928,61.9127961 20.8668965,62.6847884 20.8668965,63.6767933 C20.8668965,64.5247976 21.1948932,65.1647912 21.8508965,65.5967933 C22.5068998,66.0287955 23.4988899,66.3967918 24.8268965,66.7007933 C26.2829038,67.0527951 27.4268924,67.3767918 28.2588965,67.6727933 C29.0909007,67.9687948 29.7828938,68.4127904 30.3348965,69.0047933 C30.8868993,69.5967963 31.1628965,70.3887884 31.1628965,71.3807933 C31.1628965,72.3407981 30.910899,73.1807897 30.4068965,73.9007933 C29.902894,74.6207969 29.1789012,75.1767914 28.2348965,75.5687933 C27.2908918,75.9607953 26.1869028,76.1567933 24.9228965,76.1567933 Z M33.8668967,75.9647933 L33.8668967,59.0447933 L35.8108967,59.0447933 L35.8108967,75.9647933 L33.8668967,75.9647933 Z M44.0828969,76.1327933 C42.9788914,76.1327933 42.0069011,75.8847958 41.1668969,75.3887933 C40.3268927,74.8927908 39.6788992,74.1847979 39.2228969,73.2647933 C38.7668946,72.3447887 38.5388969,71.2767994 38.5388969,70.0607933 C38.5388969,68.8447872 38.7668946,67.7767979 39.2228969,66.8567933 C39.6788992,65.9367887 40.3268927,65.2287958 41.1668969,64.7327933 C42.0069011,64.2367908 42.9788914,63.9887933 44.0828969,63.9887933 C45.1869024,63.9887933 46.1628927,64.2367908 47.0108969,64.7327933 C47.8589012,65.2287958 48.5108946,65.9367887 48.9668969,66.8567933 C49.4228992,67.7767979 49.6508969,68.8447872 49.6508969,70.0607933 C49.6508969,71.2767994 49.4228992,72.3447887 48.9668969,73.2647933 C48.5108946,74.1847979 47.8589012,74.8927908 47.0108969,75.3887933 C46.1628927,75.8847958 45.1869024,76.1327933 44.0828969,76.1327933 Z M44.0828969,74.5247933 C45.2349027,74.5247933 46.1188938,74.1447971 46.7348969,73.3847933 C47.3509,72.6247895 47.6588969,71.5168006 47.6588969,70.0607933 C47.6588969,68.6367862 47.3469,67.5367972 46.7228969,66.7607933 C46.0988938,65.9847894 45.2189026,65.5967933 44.0828969,65.5967933 C42.9468912,65.5967933 42.0669,65.9847894 41.4428969,66.7607933 C40.8188938,67.5367972 40.5068969,68.6367862 40.5068969,70.0607933 C40.5068969,71.5008005 40.8148938,72.6047895 41.4308969,73.3727933 C42.0469,74.1407972 42.9308912,74.5247933 44.0828969,74.5247933 Z M62.8188971,64.2767933 L62.8188971,75.1727933 C62.8188971,76.916802 62.3709016,78.2327889 61.4748971,79.1207933 C60.5788926,80.0087978 59.2509059,80.4527933 57.4908971,80.4527933 C55.4428869,80.4527933 53.7229041,79.9247986 52.3308971,78.8687933 L52.9788971,77.4287933 C53.762901,77.9407959 54.4988937,78.3087922 55.1868971,78.5327933 C55.8749006,78.7567944 56.6428929,78.8687933 57.4908971,78.8687933 C58.6109027,78.8687933 59.4588942,78.5687963 60.0348971,77.9687933 C60.6109,77.3687903 60.8988971,76.4927991 60.8988971,75.3407933 L60.8988971,73.2767933 C60.5628954,74.0287971 60.0469006,74.6047913 59.3508971,75.0047933 C58.6548936,75.4047953 57.8349018,75.6047933 56.8908971,75.6047933 C55.866892,75.6047933 54.9589011,75.3647957 54.1668971,74.8847933 C53.3748932,74.4047909 52.7588993,73.7247977 52.3188971,72.8447933 C51.8788949,71.9647889 51.6588971,70.9487991 51.6588971,69.7967933 C51.6588971,68.6447876 51.8788949,67.6287977 52.3188971,66.7487933 C52.7588993,65.8687889 53.3748932,65.1887957 54.1668971,64.7087933 C54.9589011,64.2287909 55.866892,63.9887933 56.8908971,63.9887933 C57.8189018,63.9887933 58.6268937,64.1887913 59.3148971,64.5887933 C60.0029006,64.9887953 60.5228954,65.5567896 60.8748971,66.2927933 L60.8748971,64.2767933 L62.8188971,64.2767933 Z M57.2748971,73.9967933 C58.3949027,73.9967933 59.2748939,73.624797 59.9148971,72.8807933 C60.5549003,72.1367896 60.8748971,71.1087999 60.8748971,69.7967933 C60.8748971,68.5007868 60.5589003,67.480797 59.9268971,66.7367933 C59.294894,65.9927896 58.4109028,65.6207933 57.2748971,65.6207933 C56.1388914,65.6207933 55.2469004,65.9927896 54.5988971,66.7367933 C53.9508939,67.480797 53.6268971,68.5007868 53.6268971,69.7967933 C53.6268971,71.1087999 53.9508939,72.1367896 54.5988971,72.8807933 C55.2469004,73.624797 56.1388914,73.9967933 57.2748971,73.9967933 Z M70.9708973,63.9887933 C72.4589048,63.9887933 73.5668937,64.3687895 74.2948973,65.1287933 C75.022901,65.8887971 75.3868973,67.0447856 75.3868973,68.5967933 L75.3868973,75.9647933 L73.4908973,75.9647933 L73.4908973,73.9727933 C73.1868958,74.6607968 72.7229004,75.1927914 72.0988973,75.5687933 C71.4748942,75.9447952 70.7549014,76.1327933 69.9388973,76.1327933 C69.1868936,76.1327933 68.4949005,75.9807948 67.8628973,75.6767933 C67.2308942,75.3727918 66.7308992,74.948796 66.3628973,74.4047933 C65.9948955,73.8607906 65.8108973,73.2607966 65.8108973,72.6047933 C65.8108973,71.7247889 66.0348951,71.0407958 66.4828973,70.5527933 C66.9308996,70.0647909 67.6668922,69.7127944 68.6908973,69.4967933 C69.7149024,69.2807922 71.1388882,69.1727933 72.9628973,69.1727933 L73.4908973,69.1727933 L73.4908973,68.3807933 C73.4908973,67.4047884 73.2908993,66.6967955 72.8908973,66.2567933 C72.4908953,65.8167911 71.8429018,65.5967933 70.9468973,65.5967933 C69.6028906,65.5967933 68.266904,66.0127892 66.9388973,66.8447933 L66.2908973,65.4287933 C66.8989004,64.9967912 67.630893,64.6487946 68.4868973,64.3847933 C69.3429016,64.120792 70.1708933,63.9887933 70.9708973,63.9887933 Z M70.2028973,74.5967933 C71.1629021,74.5967933 71.9508942,74.2727966 72.5668973,73.6247933 C73.1829004,72.9767901 73.4908973,72.1407984 73.4908973,71.1167933 L73.4908973,70.4207933 L73.0588973,70.4207933 C71.6508903,70.4207933 70.578901,70.4807927 69.8428973,70.6007933 C69.1068936,70.7207939 68.5828989,70.9207919 68.2708973,71.2007933 C67.9588958,71.4807947 67.8028973,71.8927906 67.8028973,72.4367933 C67.8028973,73.0607964 68.030895,73.5767913 68.4868973,73.9847933 C68.9428996,74.3927954 69.5148939,74.5967933 70.2028973,74.5967933 Z M84.6188975,63.9887933 C87.4189115,63.9887933 88.8188975,65.5327779 88.8188975,68.6207933 L88.8188975,75.9647933 L86.8748975,75.9647933 L86.8748975,68.7407933 C86.8748975,67.6527879 86.6628996,66.8607958 86.2388975,66.3647933 C85.8148954,65.8687908 85.1389022,65.6207933 84.2108975,65.6207933 C83.1388922,65.6207933 82.2829007,65.94879 81.6428975,66.6047933 C81.0028943,67.2607966 80.6828975,68.1487877 80.6828975,69.2687933 L80.6828975,75.9647933 L78.7388975,75.9647933 L78.7388975,64.2767933 L80.6588975,64.2767933 L80.6588975,66.1967933 C81.0428994,65.4767897 81.5788941,64.9287952 82.2668975,64.5527933 C82.954901,64.1767914 83.7388931,63.9887933 84.6188975,63.9887933 Z M103.010898,76.1327933 C101.906892,76.1327933 100.934902,75.8847958 100.094898,75.3887933 C99.2548937,74.8927908 98.6069002,74.1847979 98.1508979,73.2647933 C97.6948956,72.3447887 97.4668979,71.2767994 97.4668979,70.0607933 C97.4668979,68.8447872 97.6948956,67.7767979 98.1508979,66.8567933 C98.6069002,65.9367887 99.2548937,65.2287958 100.094898,64.7327933 C100.934902,64.2367908 101.906892,63.9887933 103.010898,63.9887933 C104.114903,63.9887933 105.090894,64.2367908 105.938898,64.7327933 C106.786902,65.2287958 107.438896,65.9367887 107.894898,66.8567933 C108.3509,67.7767979 108.578898,68.8447872 108.578898,70.0607933 C108.578898,71.2767994 108.3509,72.3447887 107.894898,73.2647933 C107.438896,74.1847979 106.786902,74.8927908 105.938898,75.3887933 C105.090894,75.8847958 104.114903,76.1327933 103.010898,76.1327933 Z M103.010898,74.5247933 C104.162904,74.5247933 105.046895,74.1447971 105.662898,73.3847933 C106.278901,72.6247895 106.586898,71.5168006 106.586898,70.0607933 C106.586898,68.6367862 106.274901,67.5367972 105.650898,66.7607933 C105.026895,65.9847894 104.146904,65.5967933 103.010898,65.5967933 C101.874892,65.5967933 100.994901,65.9847894 100.370898,66.7607933 C99.7468948,67.5367972 99.4348979,68.6367862 99.4348979,70.0607933 C99.4348979,71.5008005 99.7428948,72.6047895 100.358898,73.3727933 C100.974901,74.1407972 101.858892,74.5247933 103.010898,74.5247933 Z M113.850898,64.2767933 L117.162898,64.2767933 L117.162898,65.8127933 L113.850898,65.8127933 L113.850898,75.9647933 L111.906898,75.9647933 L111.906898,65.8127933 L109.626898,65.8127933 L109.626898,64.2767933 L111.906898,64.2767933 L111.906898,63.8927933 C111.906898,62.3407856 112.294894,61.1647973 113.070898,60.3647933 C113.846902,59.5647893 115.04289,59.1167938 116.658898,59.0207933 L117.618898,58.9727933 L117.762898,60.4847933 L116.658898,60.5567933 C115.682893,60.6207936 114.9709,60.8967909 114.522898,61.3847933 C114.074896,61.8727958 113.850898,62.6207883 113.850898,63.6287933 L113.850898,64.2767933 Z M128.882899,76.1327933 C126.914889,76.1327933 125.354904,75.6287984 124.202899,74.6207933 L124.850899,73.1807933 C125.474902,73.6767958 126.110895,74.0327922 126.758899,74.2487933 C127.406902,74.4647944 128.138894,74.5727933 128.954899,74.5727933 C129.818903,74.5727933 130.478896,74.4247948 130.934899,74.1287933 C131.390901,73.8327918 131.618899,73.4047961 131.618899,72.8447933 C131.618899,72.380791 131.4669,72.0127947 131.162899,71.7407933 C130.858897,71.468792 130.354902,71.2527941 129.650899,71.0927933 L127.682899,70.6367933 C126.690894,70.4127922 125.930901,70.028796 125.402899,69.4847933 C124.874896,68.9407906 124.610899,68.2687973 124.610899,67.4687933 C124.610899,66.4287881 125.018894,65.5887965 125.834899,64.9487933 C126.650903,64.3087901 127.738892,63.9887933 129.098899,63.9887933 C129.914903,63.9887933 130.690895,64.120792 131.426899,64.3847933 C132.162902,64.6487946 132.778896,65.0287908 133.274899,65.5247933 L132.626899,66.9407933 C131.554893,66.0287888 130.378905,65.5727933 129.098899,65.5727933 C128.282894,65.5727933 127.646901,65.7287918 127.190899,66.0407933 C126.734896,66.3527949 126.506899,66.7887905 126.506899,67.3487933 C126.506899,67.8127956 126.646897,68.1847919 126.926899,68.4647933 C127.2069,68.7447947 127.658895,68.9567926 128.282899,69.1007933 L130.274899,69.5807933 C131.362904,69.8367946 132.170896,70.2247907 132.698899,70.7447933 C133.226901,71.2647959 133.490899,71.9407892 133.490899,72.7727933 C133.490899,73.7967984 133.078903,74.6127903 132.254899,75.2207933 C131.430894,75.8287964 130.306906,76.1327933 128.882899,76.1327933 Z M141.258899,74.5727933 C141.6109,74.5727933 141.962897,74.5487936 142.314899,74.5007933 L142.218899,76.0367933 C141.850897,76.1007936 141.450901,76.1327933 141.018899,76.1327933 C139.610892,76.1327933 138.550902,75.764797 137.838899,75.0287933 C137.126895,74.2927896 136.770899,73.2687999 136.770899,71.9567933 L136.770899,65.8127933 L134.490899,65.8127933 L134.490899,64.2767933 L136.770899,64.2767933 L136.770899,60.7247933 L138.714899,60.7247933 L138.714899,64.2767933 L142.026899,64.2767933 L142.026899,65.8127933 L138.714899,65.8127933 L138.714899,71.8127933 C138.714899,73.6528025 139.56289,74.5727933 141.258899,74.5727933 Z M148.930899,76.1327933 C147.826893,76.1327933 146.854903,75.8847958 146.014899,75.3887933 C145.174895,74.8927908 144.526901,74.1847979 144.070899,73.2647933 C143.614897,72.3447887 143.386899,71.2767994 143.386899,70.0607933 C143.386899,68.8447872 143.614897,67.7767979 144.070899,66.8567933 C144.526901,65.9367887 145.174895,65.2287958 146.014899,64.7327933 C146.854903,64.2367908 147.826893,63.9887933 148.930899,63.9887933 C150.034904,63.9887933 151.010895,64.2367908 151.858899,64.7327933 C152.706903,65.2287958 153.358897,65.9367887 153.814899,66.8567933 C154.270901,67.7767979 154.498899,68.8447872 154.498899,70.0607933 C154.498899,71.2767994 154.270901,72.3447887 153.814899,73.2647933 C153.358897,74.1847979 152.706903,74.8927908 151.858899,75.3887933 C151.010895,75.8847958 150.034904,76.1327933 148.930899,76.1327933 Z M148.930899,74.5247933 C150.082905,74.5247933 150.966896,74.1447971 151.582899,73.3847933 C152.198902,72.6247895 152.506899,71.5168006 152.506899,70.0607933 C152.506899,68.6367862 152.194902,67.5367972 151.570899,66.7607933 C150.946896,65.9847894 150.066905,65.5967933 148.930899,65.5967933 C147.794893,65.5967933 146.914902,65.9847894 146.290899,66.7607933 C145.666896,67.5367972 145.354899,68.6367862 145.354899,70.0607933 C145.354899,71.5008005 145.662896,72.6047895 146.278899,73.3727933 C146.894902,74.1407972 147.778893,74.5247933 148.930899,74.5247933 Z M163.826899,65.6687933 L162.554899,65.7887933 C161.354893,65.9007939 160.486902,66.2767901 159.950899,66.9167933 C159.414896,67.5567965 159.146899,68.3487886 159.146899,69.2927933 L159.146899,75.9647933 L157.202899,75.9647933 L157.202899,64.2767933 L159.098899,64.2767933 L159.098899,66.3167933 C159.754902,64.9567865 161.04289,64.1967941 162.962899,64.0367933 L163.658899,63.9887933 L163.826899,65.6687933 Z M175.026899,70.4207933 L166.482899,70.4207933 C166.5469,71.7808001 166.914896,72.8087898 167.586899,73.5047933 C168.258903,74.2007968 169.210893,74.5487933 170.442899,74.5487933 C171.802906,74.5487933 173.050894,74.084798 174.186899,73.1567933 L174.834899,74.5727933 C174.322897,75.0527957 173.666903,75.4327919 172.866899,75.7127933 C172.066895,75.9927947 171.250903,76.1327933 170.418899,76.1327933 C168.59489,76.1327933 167.158905,75.5967987 166.110899,74.5247933 C165.062894,73.452788 164.538899,71.9728028 164.538899,70.0847933 C164.538899,68.8847873 164.770897,67.8247979 165.234899,66.9047933 C165.698902,65.9847887 166.350895,65.2687959 167.190899,64.7567933 C168.030904,64.2447908 168.986894,63.9887933 170.058899,63.9887933 C171.610907,63.9887933 172.826895,64.4967882 173.706899,65.5127933 C174.586904,66.5287984 175.026899,67.9247844 175.026899,69.7007933 L175.026899,70.4207933 Z M170.082899,65.5007933 C169.058894,65.5007933 168.238902,65.8207901 167.622899,66.4607933 C167.006896,67.1007965 166.6429,68.0047875 166.530899,69.1727933 L173.322899,69.1727933 C173.290899,67.9887874 172.994902,67.0807965 172.434899,66.4487933 C171.874897,65.8167902 171.090904,65.5007933 170.082899,65.5007933 Z M194.1389,64.2767933 L194.1389,75.1727933 C194.1389,76.916802 193.690904,78.2327889 192.7949,79.1207933 C191.898895,80.0087978 190.570909,80.4527933 188.8109,80.4527933 C186.762889,80.4527933 185.042907,79.9247986 183.6509,78.8687933 L184.2989,77.4287933 C185.082904,77.9407959 185.818896,78.3087922 186.5069,78.5327933 C187.194903,78.7567944 187.962895,78.8687933 188.8109,78.8687933 C189.930905,78.8687933 190.778897,78.5687963 191.3549,77.9687933 C191.930903,77.3687903 192.2189,76.4927991 192.2189,75.3407933 L192.2189,73.2767933 C191.882898,74.0287971 191.366903,74.6047913 190.6709,75.0047933 C189.974896,75.4047953 189.154904,75.6047933 188.2109,75.6047933 C187.186895,75.6047933 186.278904,75.3647957 185.4869,74.8847933 C184.694896,74.4047909 184.078902,73.7247977 183.6389,72.8447933 C183.198898,71.9647889 182.9789,70.9487991 182.9789,69.7967933 C182.9789,68.6447876 183.198898,67.6287977 183.6389,66.7487933 C184.078902,65.8687889 184.694896,65.1887957 185.4869,64.7087933 C186.278904,64.2287909 187.186895,63.9887933 188.2109,63.9887933 C189.138904,63.9887933 189.946896,64.1887913 190.6349,64.5887933 C191.322903,64.9887953 191.842898,65.5567896 192.1949,66.2927933 L192.1949,64.2767933 L194.1389,64.2767933 Z M188.5949,73.9967933 C189.714905,73.9967933 190.594897,73.624797 191.2349,72.8807933 C191.874903,72.1367896 192.1949,71.1087999 192.1949,69.7967933 C192.1949,68.5007868 191.878903,67.480797 191.2469,66.7367933 C190.614897,65.9927896 189.730905,65.6207933 188.5949,65.6207933 C187.458894,65.6207933 186.566903,65.9927896 185.9189,66.7367933 C185.270896,67.480797 184.9469,68.5007868 184.9469,69.7967933 C184.9469,71.1087999 185.270896,72.1367896 185.9189,72.8807933 C186.566903,73.624797 187.458894,73.9967933 188.5949,73.9967933 Z M202.3869,76.1327933 C201.282894,76.1327933 200.310904,75.8847958 199.4709,75.3887933 C198.630896,74.8927908 197.982902,74.1847979 197.5269,73.2647933 C197.070898,72.3447887 196.8429,71.2767994 196.8429,70.0607933 C196.8429,68.8447872 197.070898,67.7767979 197.5269,66.8567933 C197.982902,65.9367887 198.630896,65.2287958 199.4709,64.7327933 C200.310904,64.2367908 201.282894,63.9887933 202.3869,63.9887933 C203.490905,63.9887933 204.466896,64.2367908 205.3149,64.7327933 C206.162904,65.2287958 206.814898,65.9367887 207.2709,66.8567933 C207.726902,67.7767979 207.9549,68.8447872 207.9549,70.0607933 C207.9549,71.2767994 207.726902,72.3447887 207.2709,73.2647933 C206.814898,74.1847979 206.162904,74.8927908 205.3149,75.3887933 C204.466896,75.8847958 203.490905,76.1327933 202.3869,76.1327933 Z M202.3869,74.5247933 C203.538906,74.5247933 204.422897,74.1447971 205.0389,73.3847933 C205.654903,72.6247895 205.9629,71.5168006 205.9629,70.0607933 C205.9629,68.6367862 205.650903,67.5367972 205.0269,66.7607933 C204.402897,65.9847894 203.522906,65.5967933 202.3869,65.5967933 C201.250894,65.5967933 200.370903,65.9847894 199.7469,66.7607933 C199.122897,67.5367972 198.8109,68.6367862 198.8109,70.0607933 C198.8109,71.5008005 199.118897,72.6047895 199.7349,73.3727933 C200.350903,74.1407972 201.234894,74.5247933 202.3869,74.5247933 Z M220.4509,70.4207933 L211.9069,70.4207933 C211.9709,71.7808001 212.338897,72.8087898 213.0109,73.5047933 C213.682903,74.2007968 214.634894,74.5487933 215.8669,74.5487933 C217.226907,74.5487933 218.474894,74.084798 219.6109,73.1567933 L220.2589,74.5727933 C219.746898,75.0527957 219.090904,75.4327919 218.2909,75.7127933 C217.490896,75.9927947 216.674904,76.1327933 215.8429,76.1327933 C214.018891,76.1327933 212.582905,75.5967987 211.5349,74.5247933 C210.486895,73.452788 209.9629,71.9728028 209.9629,70.0847933 C209.9629,68.8847873 210.194898,67.8247979 210.6589,66.9047933 C211.122902,65.9847887 211.774896,65.2687959 212.6149,64.7567933 C213.454904,64.2447908 214.410895,63.9887933 215.4829,63.9887933 C217.034908,63.9887933 218.250896,64.4967882 219.1309,65.5127933 C220.010905,66.5287984 220.4509,67.9247844 220.4509,69.7007933 L220.4509,70.4207933 Z M215.5069,65.5007933 C214.482895,65.5007933 213.662903,65.8207901 213.0469,66.4607933 C212.430897,67.1007965 212.066901,68.0047875 211.9549,69.1727933 L218.7469,69.1727933 C218.7149,67.9887874 218.418903,67.0807965 217.8589,66.4487933 C217.298897,65.8167902 216.514905,65.5007933 215.5069,65.5007933 Z M227.0669,76.1327933 C225.09889,76.1327933 223.538906,75.6287984 222.3869,74.6207933 L223.0349,73.1807933 C223.658903,73.6767958 224.294897,74.0327922 224.9429,74.2487933 C225.590904,74.4647944 226.322896,74.5727933 227.1389,74.5727933 C228.002905,74.5727933 228.662898,74.4247948 229.1189,74.1287933 C229.574903,73.8327918 229.8029,73.4047961 229.8029,72.8447933 C229.8029,72.380791 229.650902,72.0127947 229.3469,71.7407933 C229.042899,71.468792 228.538904,71.2527941 227.8349,71.0927933 L225.8669,70.6367933 C224.874895,70.4127922 224.114903,70.028796 223.5869,69.4847933 C223.058898,68.9407906 222.7949,68.2687973 222.7949,67.4687933 C222.7949,66.4287881 223.202896,65.5887965 224.0189,64.9487933 C224.834904,64.3087901 225.922894,63.9887933 227.2829,63.9887933 C228.098904,63.9887933 228.874897,64.120792 229.6109,64.3847933 C230.346904,64.6487946 230.962898,65.0287908 231.4589,65.5247933 L230.8109,66.9407933 C229.738895,66.0287888 228.562907,65.5727933 227.2829,65.5727933 C226.466896,65.5727933 225.830903,65.7287918 225.3749,66.0407933 C224.918898,66.3527949 224.6909,66.7887905 224.6909,67.3487933 C224.6909,67.8127956 224.830899,68.1847919 225.1109,68.4647933 C225.390902,68.7447947 225.842897,68.9567926 226.4669,69.1007933 L228.4589,69.5807933 C229.546906,69.8367946 230.354898,70.2247907 230.8829,70.7447933 C231.410903,71.2647959 231.6749,71.9407892 231.6749,72.7727933 C231.6749,73.7967984 231.262904,74.6127903 230.4389,75.2207933 C229.614896,75.8287964 228.490907,76.1327933 227.0669,76.1327933 Z M246.298901,63.9887933 C249.098915,63.9887933 250.498901,65.5327779 250.498901,68.6207933 L250.498901,75.9647933 L248.554901,75.9647933 L248.554901,68.7407933 C248.554901,67.6527879 248.342903,66.8607958 247.918901,66.3647933 C247.494899,65.8687908 246.818905,65.6207933 245.890901,65.6207933 C244.818895,65.6207933 243.962904,65.94879 243.322901,66.6047933 C242.682898,67.2607966 242.362901,68.1487877 242.362901,69.2687933 L242.362901,75.9647933 L240.418901,75.9647933 L240.418901,59.0447933 L242.362901,59.0447933 L242.362901,66.1487933 C242.746903,65.4447898 243.278897,64.9087952 243.958901,64.5407933 C244.638904,64.1727915 245.418896,63.9887933 246.298901,63.9887933 Z M263.642901,70.4207933 L255.098901,70.4207933 C255.162901,71.7808001 255.530898,72.8087898 256.202901,73.5047933 C256.874904,74.2007968 257.826895,74.5487933 259.058901,74.5487933 C260.418908,74.5487933 261.666895,74.084798 262.802901,73.1567933 L263.450901,74.5727933 C262.938898,75.0527957 262.282905,75.4327919 261.482901,75.7127933 C260.682897,75.9927947 259.866905,76.1327933 259.034901,76.1327933 C257.210892,76.1327933 255.774906,75.5967987 254.726901,74.5247933 C253.678896,73.452788 253.154901,71.9728028 253.154901,70.0847933 C253.154901,68.8847873 253.386899,67.8247979 253.850901,66.9047933 C254.314903,65.9847887 254.966897,65.2687959 255.806901,64.7567933 C256.646905,64.2447908 257.602896,63.9887933 258.674901,63.9887933 C260.226909,63.9887933 261.442897,64.4967882 262.322901,65.5127933 C263.202905,66.5287984 263.642901,67.9247844 263.642901,69.7007933 L263.642901,70.4207933 Z M258.698901,65.5007933 C257.674896,65.5007933 256.854904,65.8207901 256.238901,66.4607933 C255.622898,67.1007965 255.258901,68.0047875 255.146901,69.1727933 L261.938901,69.1727933 C261.906901,67.9887874 261.610904,67.0807965 261.050901,66.4487933 C260.490898,65.8167902 259.706906,65.5007933 258.698901,65.5007933 Z M272.922901,65.6687933 L271.650901,65.7887933 C270.450895,65.9007939 269.582904,66.2767901 269.046901,66.9167933 C268.510898,67.5567965 268.242901,68.3487886 268.242901,69.2927933 L268.242901,75.9647933 L266.298901,75.9647933 L266.298901,64.2767933 L268.194901,64.2767933 L268.194901,66.3167933 C268.850904,64.9567865 270.138892,64.1967941 272.058901,64.0367933 L272.754901,63.9887933 L272.922901,65.6687933 Z M284.122901,70.4207933 L275.578901,70.4207933 C275.642902,71.7808001 276.010898,72.8087898 276.682901,73.5047933 C277.354905,74.2007968 278.306895,74.5487933 279.538901,74.5487933 C280.898908,74.5487933 282.146896,74.084798 283.282901,73.1567933 L283.930901,74.5727933 C283.418899,75.0527957 282.762905,75.4327919 281.962901,75.7127933 C281.162897,75.9927947 280.346905,76.1327933 279.514901,76.1327933 C277.690892,76.1327933 276.254907,75.5967987 275.206901,74.5247933 C274.158896,73.452788 273.634901,71.9728028 273.634901,70.0847933 C273.634901,68.8847873 273.866899,67.8247979 274.330901,66.9047933 C274.794904,65.9847887 275.446897,65.2687959 276.286901,64.7567933 C277.126906,64.2447908 278.082896,63.9887933 279.154901,63.9887933 C280.706909,63.9887933 281.922897,64.4967882 282.802901,65.5127933 C283.682906,66.5287984 284.122901,67.9247844 284.122901,69.7007933 L284.122901,70.4207933 Z M279.178901,65.5007933 C278.154896,65.5007933 277.334904,65.8207901 276.718901,66.4607933 C276.102898,67.1007965 275.738902,68.0047875 275.626901,69.1727933 L282.418901,69.1727933 C282.386901,67.9887874 282.090904,67.0807965 281.530901,66.4487933 C280.970899,65.8167902 280.186906,65.5007933 279.178901,65.5007933 Z" opacity=".8"/>
  </g>
</svg>
