<svg xmlns="http://www.w3.org/2000/svg" width="123" height="18" viewBox="0 0 123 18">
  <g fill="none" fill-rule="evenodd" transform="translate(-5 -5)">
    <path fill="#2C2C36" fill-rule="nonzero" d="M35.3,20.68 C34.2199946,20.68 33.2066714,20.5333348 32.26,20.24 C31.3133286,19.9466652 30.5133366,19.533336 29.86,19 L30.72,17.12 C31.4000034,17.6400026 32.1166629,18.0199988 32.87,18.26 C33.6233371,18.5000012 34.4399956,18.62 35.32,18.62 C36.2933382,18.62 37.0433307,18.4500017 37.57,18.11 C38.0966693,17.7699983 38.36,17.2933364 38.36,16.68 C38.36,16.146664 38.1166691,15.7400014 37.63,15.46 C37.1433309,15.1799986 36.333339,14.9133346 35.2,14.66 C34.0266608,14.4066654 33.073337,14.113335 32.34,13.78 C31.606663,13.446665 31.0533352,13.0200026 30.68,12.5 C30.3066648,11.9799974 30.12,11.320004 30.12,10.52 C30.12,9.6933292 30.3466644,8.9533366 30.8,8.3 C31.2533356,7.6466634 31.8933292,7.1366685 32.72,6.77 C33.5466708,6.4033315 34.4999946,6.22 35.58,6.22 C36.5666716,6.22 37.5066622,6.3699985 38.4,6.67 C39.2933378,6.9700015 40.0266638,7.3799974 40.6,7.9 L39.74,9.78 C38.4866604,8.779995 37.1000076,8.28 35.58,8.28 C34.6733288,8.28 33.9566693,8.4633315 33.43,8.83 C32.9033307,9.1966685 32.64,9.7066634 32.64,10.36 C32.64,10.9066694 32.873331,11.3266652 33.34,11.62 C33.806669,11.9133348 34.5999944,12.1866654 35.72,12.44 C36.9066726,12.706668 37.8699963,13.0033317 38.61,13.33 C39.3500037,13.6566683 39.9166647,14.0733308 40.31,14.58 C40.7033353,15.0866692 40.9,15.7266628 40.9,16.5 C40.9,17.3400042 40.6766689,18.0766635 40.23,18.71 C39.7833311,19.3433365 39.1366709,19.8299983 38.29,20.17 C37.4433291,20.5100017 36.4466724,20.68 35.3,20.68 Z M47.7533335,18.78 C48.0466683,18.78 48.3533319,18.7600002 48.6733335,18.72 L48.5533335,20.58 C48.1533315,20.6200002 47.7866685,20.64 47.4533335,20.64 C46.0799933,20.64 45.0666701,20.3233365 44.4133335,19.69 C43.7599969,19.0566635 43.4333335,18.1133396 43.4333335,16.86 L43.4333335,12.6 L41.5533335,12.6 L41.5533335,10.72 L43.4333335,10.72 L43.4333335,7.8 L45.9333335,7.8 L45.9333335,10.72 L48.5133335,10.72 L48.5133335,12.6 L45.9333335,12.6 L45.9333335,16.82 C45.9333335,18.1266732 46.5399941,18.78 47.7533335,18.78 Z M54.426667,20.66 C53.426662,20.66 52.5500041,20.4533354 51.796667,20.04 C51.0433299,19.6266646 50.4600024,19.0333372 50.046667,18.26 C49.6333316,17.4866628 49.426667,16.5866718 49.426667,15.56 C49.426667,14.5333282 49.6333316,13.6366705 50.046667,12.87 C50.4600024,12.1033295 51.0433299,11.5133354 51.796667,11.1 C52.5500041,10.6866646 53.426662,10.48 54.426667,10.48 C55.426672,10.48 56.3033299,10.6866646 57.056667,11.1 C57.8100041,11.5133354 58.3899983,12.1033295 58.796667,12.87 C59.2033357,13.6366705 59.406667,14.5333282 59.406667,15.56 C59.406667,16.5866718 59.2033357,17.4866628 58.796667,18.26 C58.3899983,19.0333372 57.8100041,19.6266646 57.056667,20.04 C56.3033299,20.4533354 55.426672,20.66 54.426667,20.66 Z M54.406667,18.72 C55.2200044,18.72 55.8399982,18.453336 56.266667,17.92 C56.6933358,17.386664 56.906667,16.6000052 56.906667,15.56 C56.906667,14.5333282 56.6933358,13.7500027 56.266667,13.21 C55.8399982,12.6699973 55.226671,12.4 54.426667,12.4 C53.626663,12.4 53.0100025,12.6699973 52.576667,13.21 C52.1433315,13.7500027 51.926667,14.5333282 51.926667,15.56 C51.926667,16.6000052 52.1399982,17.386664 52.566667,17.92 C52.9933358,18.453336 53.606663,18.72 54.406667,18.72 Z M67.7400005,12.56 L66.2800005,12.7 C64.6266589,12.8733342 63.8000005,13.7133258 63.8000005,15.22 L63.8000005,20.5 L61.3000005,20.5 L61.3000005,10.72 L63.6800005,10.72 L63.6800005,12.44 C64.1866697,11.2666608 65.2333259,10.6266672 66.8200005,10.52 L67.5800005,10.46 L67.7400005,12.56 Z M77.173334,16.06 L70.513334,16.06 C70.5933344,16.9666712 70.866665,17.6399978 71.333334,18.08 C71.800003,18.5200022 72.466663,18.74 73.333334,18.74 C74.4133394,18.74 75.3999962,18.3933368 76.293334,17.7 L77.013334,19.42 C76.5599984,19.7933352 75.9900041,20.0933322 75.303334,20.32 C74.6166639,20.5466678 73.9266708,20.66 73.233334,20.66 C71.633326,20.66 70.3700053,20.2066712 69.443334,19.3 C68.5166627,18.3933288 68.053334,17.1533412 68.053334,15.58 C68.053334,14.579995 68.253332,13.6933372 68.653334,12.92 C69.053336,12.1466628 69.6166637,11.5466688 70.343334,11.12 C71.0700043,10.6933312 71.8933294,10.48 72.813334,10.48 C74.1600074,10.48 75.2233301,10.913329 76.003334,11.78 C76.7833379,12.646671 77.173334,13.8399924 77.173334,15.36 L77.173334,16.06 Z M72.873334,12.24 C72.206664,12.24 71.6700027,12.4533312 71.263334,12.88 C70.8566653,13.3066688 70.6066678,13.919996 70.513334,14.72 L75.033334,14.72 C75.0066672,13.9066626 74.8066692,13.2900021 74.433334,12.87 C74.0599988,12.4499979 73.540004,12.24 72.873334,12.24 Z M84.7266675,10.48 C85.9000067,10.48 86.7733313,10.81333 87.3466675,11.48 C87.9200037,12.14667 88.2066675,13.1533266 88.2066675,14.5 L88.2066675,20.5 L85.7066675,20.5 L85.7066675,14.64 C85.7066675,13.8799962 85.5633356,13.3266684 85.2766675,12.98 C84.9899994,12.6333316 84.5400039,12.46 83.9266675,12.46 C83.2066639,12.46 82.630003,12.6866644 82.1966675,13.14 C81.763332,13.5933356 81.5466675,14.1999962 81.5466675,14.96 L81.5466675,20.5 L79.0466675,20.5 L79.0466675,10.72 L81.4866675,10.72 L81.4866675,12.18 C81.8200025,11.6333306 82.2666647,11.2133348 82.8266675,10.92 C83.3866703,10.6266652 84.0199973,10.48 84.7266675,10.48 Z M94.780001,10.48 C96.1533412,10.48 97.173331,10.81333 97.840001,11.48 C98.506671,12.14667 98.840001,13.1733264 98.840001,14.56 L98.840001,20.5 L96.460001,20.5 L96.460001,19 C96.2333332,19.5200026 95.8766701,19.9266652 95.390001,20.22 C94.9033319,20.5133348 94.3400042,20.66 93.700001,20.66 C93.0466644,20.66 92.453337,20.526668 91.920001,20.26 C91.386665,19.993332 90.9666692,19.626669 90.660001,19.16 C90.3533328,18.693331 90.200001,18.1733362 90.200001,17.6 C90.200001,16.8799964 90.3833325,16.3133354 90.750001,15.9 C91.1166695,15.4866646 91.7133302,15.1866676 92.540001,15 C93.3666718,14.8133324 94.5066604,14.72 95.960001,14.72 L96.460001,14.72 L96.460001,14.26 C96.460001,13.59333 96.3166691,13.1133348 96.030001,12.82 C95.7433329,12.5266652 95.266671,12.38 94.600001,12.38 C94.0799984,12.38 93.5366705,12.4699991 92.970001,12.65 C92.4033315,12.8300009 91.8466704,13.0799984 91.300001,13.4 L90.600001,11.68 C91.1466704,11.3333316 91.8066638,11.0466678 92.580001,10.82 C93.3533382,10.5933322 94.0866642,10.48 94.780001,10.48 Z M94.200001,18.86 C94.866671,18.86 95.4099989,18.6366689 95.830001,18.19 C96.2500031,17.7433311 96.460001,17.1666702 96.460001,16.46 L96.460001,16.04 L96.100001,16.04 C95.2066632,16.04 94.5133368,16.0799996 94.020001,16.16 C93.5266652,16.2400004 93.1733354,16.379999 92.960001,16.58 C92.7466666,16.780001 92.640001,17.0533316 92.640001,17.4 C92.640001,17.8266688 92.7866662,18.1766653 93.080001,18.45 C93.3733358,18.7233347 93.7466654,18.86 94.200001,18.86 Z M112.833335,10.48 C113.940007,10.48 114.766665,10.8099967 115.313335,11.47 C115.860004,12.1300033 116.133335,13.1399932 116.133335,14.5 L116.133335,20.5 L113.633335,20.5 L113.633335,14.6 C113.633335,13.8533296 113.506669,13.3100017 113.253335,12.97 C113,12.6299983 112.593337,12.46 112.033335,12.46 C111.366665,12.46 110.84667,12.6866644 110.473335,13.14 C110.099999,13.5933356 109.913335,14.2266626 109.913335,15.04 L109.913335,20.5 L107.413335,20.5 L107.413335,14.6 C107.413335,13.8533296 107.290002,13.3100017 107.043335,12.97 C106.796667,12.6299983 106.386671,12.46 105.813335,12.46 C105.159998,12.46 104.64667,12.6866644 104.273335,13.14 C103.899999,13.5933356 103.713335,14.2266626 103.713335,15.04 L103.713335,20.5 L101.213335,20.5 L101.213335,10.72 L103.653334,10.72 L103.653334,12.1 C103.946669,11.566664 104.353332,11.1633347 104.873334,10.89 C105.393337,10.6166653 105.986664,10.48 106.653334,10.48 C108.133342,10.48 109.113332,11.0933272 109.593334,12.32 C109.900003,11.7466638 110.339998,11.2966683 110.913335,10.97 C111.486671,10.6433317 112.126664,10.48 112.833335,10.48 Z M127.086668,16.06 L120.426668,16.06 C120.506668,16.9666712 120.779999,17.6399978 121.246668,18.08 C121.713337,18.5200022 122.379997,18.74 123.246668,18.74 C124.326673,18.74 125.31333,18.3933368 126.206668,17.7 L126.926668,19.42 C126.473332,19.7933352 125.903338,20.0933322 125.216668,20.32 C124.529998,20.5466678 123.840005,20.66 123.146668,20.66 C121.54666,20.66 120.283339,20.2066712 119.356668,19.3 C118.429997,18.3933288 117.966668,17.1533412 117.966668,15.58 C117.966668,14.579995 118.166666,13.6933372 118.566668,12.92 C118.96667,12.1466628 119.529998,11.5466688 120.256668,11.12 C120.983338,10.6933312 121.806663,10.48 122.726668,10.48 C124.073341,10.48 125.136664,10.913329 125.916668,11.78 C126.696672,12.646671 127.086668,13.8399924 127.086668,15.36 L127.086668,16.06 Z M122.786668,12.24 C122.119998,12.24 121.583337,12.4533312 121.176668,12.88 C120.769999,13.3066688 120.520002,13.919996 120.426668,14.72 L124.946668,14.72 C124.920001,13.9066626 124.720003,13.2900021 124.346668,12.87 C123.973333,12.4499979 123.453338,12.24 122.786668,12.24 Z" opacity=".7"/>
    <path fill="#FFA900" d="M13.4261311,5.88284142 C13.4101665,5.88768509 13.3935084,5.89737267 13.376155,5.90609132 L5.89634751,8.86670363 C5.70893474,8.95485984 5.64091388,9.14570253 5.63535209,9.37043924 L5.63535209,18.9030256 C5.63743447,19.116151 5.74918575,19.3186223 5.89634751,19.3757613 L13.3040116,22.3051257 C13.3956337,22.3458125 13.515715,22.3399994 13.6149743,22.3128757 L21.0890955,19.3601993 C21.2362466,19.3001365 21.3459152,19.0937988 21.3445291,18.8797013 L21.3445291,9.4324266 C21.3486938,9.14179654 21.2765065,8.97129721 21.0835338,8.88216637 L13.5649893,5.90617812 C13.5136253,5.88002167 13.4733672,5.86936515 13.4261667,5.88292822 L13.4261311,5.88284142 Z M13.4705543,6.89809981 L19.678791,9.36259007 L13.4705543,11.8115804 L7.25680923,9.35485251 L13.4705543,6.89809981 Z" opacity=".595"/>
  </g>
</svg>
