<svg xmlns="http://www.w3.org/2000/svg" width="110" height="62" viewBox="0 0 110 62">
  <g fill="none" fill-rule="evenodd">
    <path fill="#FFFFFF" d="M2.5638852,-1.03584031e-16 L107.436115,1.03584031e-16 C108.327634,-6.01853049e-17 108.65092,0.0928256111 108.976846,0.267132704 C109.302772,0.441439796 109.55856,0.697228371 109.732867,1.0231543 C109.907174,1.34908022 110,1.67236646 110,2.5638852 L110,59.4361148 C110,60.3276335 109.907174,60.6509198 109.732867,60.9768457 C109.55856,61.3027716 109.302772,61.5585602 108.976846,61.7328673 C108.65092,61.9071744 108.327634,62 107.436115,62 L2.5638852,62 C1.67236646,62 1.34908022,61.9071744 1.0231543,61.7328673 C0.697228371,61.5585602 0.441439796,61.3027716 0.267132704,60.9768457 C0.0928256111,60.6509198 4.01235366e-17,60.3276335 -6.90560205e-17,59.4361148 L6.90560205e-17,2.5638852 C-4.01235366e-17,1.67236646 0.0928256111,1.34908022 0.267132704,1.0231543 C0.441439796,0.697228371 0.697228371,0.441439796 1.0231543,0.267132704 C1.34908022,0.0928256111 1.67236646,6.01853049e-17 2.5638852,-1.03584031e-16 Z"/>
    <path fill="#4680C2" d="M31.8396057,20.1479171 C38.0521235,20.1479171 32.4312741,20.1479171 38.6437919,20.1479171 C44.8563096,20.1479171 46.3354805,21.627088 46.3354805,27.8396057 C46.3354805,34.0521235 46.3354805,28.4312741 46.3354805,34.6437919 C46.3354805,40.8563096 44.8563096,42.3354805 38.6437919,42.3354805 C32.4312741,42.3354805 38.0521235,42.3354805 31.8396057,42.3354805 C25.627088,42.3354805 24.1479171,40.8563096 24.1479171,34.6437919 C24.1479171,28.4312741 24.1479171,31.3008656 24.1479171,27.8396057 C24.1479171,21.627088 25.627088,20.1479171 31.8396057,20.1479171 Z"/>
    <path fill="#4680C2" fill-rule="nonzero" d="M64.6476162 31.3304491C64.6476162 34.4071245 62.369693 36.7146311 59.7367688 36.7146311 58.0209306 36.7146311 56.985511 35.6792115 56.985511 35.6792115L56.985511 40.2646413 54.3525868 40.2646413 54.3525868 26.0646007 56.3050924 26.0646007 56.7488436 27.1000203C56.7488436 27.1000203 57.9025969 25.946267 59.7367688 25.946267 62.3401096 25.9758504 64.6476162 28.2537736 64.6476162 31.3304491zM59.3817678 34.2000406C60.8609387 34.2000406 62.014692 33.0462873 62.014692 31.3304491 62.014692 29.6146108 60.8609387 28.4608575 59.3817678 28.4608575 57.9025969 28.4608575 56.7488436 29.6146108 56.7488436 31.3304491 56.7488436 33.0462873 57.9025969 34.2000406 59.3817678 34.2000406zM74.7355617 30.0879455L74.7355617 36.5962975 72.7830561 36.5962975 72.3393049 35.5608778C72.3393049 35.5608778 71.1855516 36.7146311 69.3513797 36.7146311 67.0734565 36.7146311 65.8013695 35.4425442 65.8013695 33.7267059 65.8013695 31.6558667 67.2805404 30.1766958 72.1026375 30.1766958 72.1026375 29.0229425 71.4222189 28.3425239 70.3867993 28.3425239 69.0259621 28.3425239 68.7892947 29.4962772 68.7892947 29.4962772L66.1563705 29.4962772C66.3930379 27.5437716 67.9905424 25.946267 70.6234666 25.946267 73.0197235 25.9758504 74.7355617 27.6916887 74.7355617 30.0879455zM72.1026375 32.4842024L72.1026375 32.0404511C69.0259621 32.0404511 68.4342937 32.602536 68.4342937 33.519622 68.4342937 34.0817069 68.9963787 34.6733753 69.7951309 34.6733753 71.1855516 34.6733753 72.1026375 33.7562893 72.1026375 32.4842024zM75.2976467 26.0941841L78.0489045 26.0941841 80.6818287 32.957537 83.0780856 26.0941841 85.8293434 26.0941841C85.8293434 26.0941841 81.835582 36.3892135 81.5989147 36.9512985 80.5634951 39.465889 79.6464091 40.3829749 77.9305709 40.3829749 77.4868196 40.3829749 77.0134849 40.2646413 77.0134849 40.2646413L77.0134849 38.1050518C78.1672382 38.1050518 78.7589066 37.5429668 79.0843242 36.7442145L79.3209915 36.1821296 75.2976467 26.0941841z"/>
    <path fill="#FFFFFF" d="M42.3121357,27.7804389 C42.4008859,27.4254379 42.3121357,27.1887706 41.8092176,27.1887706 L40.1821296,27.1887706 C39.7679617,27.1887706 39.5904612,27.3958545 39.4721276,27.6325218 C39.4721276,27.6325218 38.6437919,29.6441942 37.4900386,30.9458646 C37.1054541,31.3304491 36.9279536,31.4487827 36.7504531,31.4487827 C36.6617029,31.4487827 36.4842024,31.3304491 36.4842024,30.975448 L36.4842024,27.7804389 C36.4842024,27.3662711 36.3658687,27.1887706 36.0108677,27.1887706 L33.4666937,27.1887706 C33.200443,27.1887706 33.0525259,27.3662711 33.0525259,27.573355 C33.0525259,27.9579394 33.6441942,28.0466897 33.7033611,29.1412761 L33.7033611,31.5079496 C33.7033611,32.0404511 33.6146108,32.1292013 33.4075269,32.1292013 C32.845442,32.1292013 31.5141882,30.1175289 30.7450193,27.8100223 C30.5971022,27.3662711 30.4491851,27.1887706 30.0350173,27.1887706 L28.4079293,27.1887706 C27.9345946,27.1887706 27.8458443,27.3958545 27.8458443,27.6325218 C27.8458443,28.0466897 28.4079293,30.1766958 30.3900183,32.9871205 C31.7212721,34.9100426 33.6146108,35.9454623 35.3304491,35.9454623 C36.3658687,35.9454623 36.4842024,35.7087949 36.4842024,35.3242105 L36.4842024,33.874623 C36.4842024,33.4012883 36.5729526,33.3125381 36.8983702,33.3125381 C37.1350376,33.3125381 37.5492054,33.4308717 38.4958748,34.3479577 C39.5904612,35.4425442 39.7679617,35.9454623 40.3892135,35.9454623 L42.0458849,35.9454623 C42.5192196,35.9454623 42.7263035,35.7087949 42.6079699,35.2650436 C42.4600528,34.8212924 41.9275513,34.1408738 41.2471326,33.3717049 C40.8625482,32.9279536 40.3004633,32.4546189 40.1229628,32.2179516 C39.8862954,31.9221174 39.9454623,31.7742003 40.1229628,31.5079496 C40.1229628,31.5079496 42.1050518,28.7271083 42.3121357,27.7804389 Z"/>
  </g>
</svg>
