<svg xmlns:xlink="http://www.w3.org/1999/xlink" xmlns="http://www.w3.org/2000/svg" id="svg_wrapper" class="defs-only" style="width: 100%; height: 1200px">>
	<svg height="1200px">
		<g filter="url(#filter0_bd_2800_519536)">
			<path fill-rule="evenodd" clip-rule="evenodd" d="M20 39C20 25.7452 30.7452 15 44 15H370C383.255 15 394 25.7452 394 39V430C394 443.255 383.255 454 370 454H44C30.7452 454 20 443.255 20 430V39Z" fill="#F7F8F9" fill-opacity="0.88"/>
		</g>
		<g clip-path="url(#clip0_2800_519536)">
			<path d="M20 47C20 35.7989 20 30.1984 22.1799 25.9202C24.0973 22.1569 27.1569 19.0973 30.9202 17.1799C35.1984 15 40.7989 15 52 15H362C373.201 15 378.802 15 383.08 17.1799C386.843 19.0973 389.903 22.1569 391.82 25.9202C394 30.1984 394 35.7989 394 47V95H20V47Z" fill="#BDC1C6"/>

			<rect x="-20" y="15" width="61" height="102" fill="url(#paint0_linear_2800_519536)"/>
		</g>
		<g filter="url(#filter1_d_2800_519536)">
			<g clip-path="url(#clip1_2800_519536)">
				<rect x="32" y="73" width="350" height="64" rx="12" fill="white" fill-opacity="0.94"/>
				<rect x="279" y="94" width="1" height="22" rx="0.5" fill="#DFE0E3"/>
				<rect x="-8" y="73" width="61" height="64" fill="url(#paint1_linear_2800_519536)"/>
			</g>
		</g>
		<g filter="url(#filter2_d_2800_519536)">
			<g clip-path="url(#clip2_2800_519536)">
				<rect x="32" y="149" width="350" height="151" rx="12" fill="white" fill-opacity="0.94"/>
				<g clip-path="url(#clip3_2800_519536)">
					<rect x="44" y="190" width="328" height="60" rx="8" fill="#DFE0E3"/>
					<g filter="url(#filter3_d_2800_519536)">
						<path d="M82 216C82 209.373 87.3726 204 94 204H322C328.627 204 334 209.373 334 216V348C334 354.627 328.627 360 322 360H94C87.3726 360 82 354.627 82 348V216Z" fill="white"/>
					</g>
				</g>
				<rect x="-8" y="149" width="61" height="151" fill="url(#paint2_linear_2800_519536)"/>
			</g>
		</g>
		<g filter="url(#filter4_d_2800_519536)">
			<g clip-path="url(#clip4_2800_519536)">
				<rect x="32" y="312" width="171" height="50" rx="12" fill="white" fill-opacity="0.94"/>
				<rect x="-8" y="312" width="61" height="50" fill="url(#paint3_linear_2800_519536)"/>
			</g>
		</g>
		<g filter="url(#filter5_d_2800_519536)">
			<g clip-path="url(#clip5_2800_519536)">
				<rect x="211" y="312" width="171" height="50" rx="12" fill="white" fill-opacity="0.94"/>
				<rect x="171" y="312" width="61" height="50" fill="url(#paint4_linear_2800_519536)"/>
			</g>
		</g>
		<g filter="url(#filter6_d_2800_519536)">
			<g clip-path="url(#clip6_2800_519536)">
				<rect x="32" y="374" width="350" height="50" rx="12" fill="white" fill-opacity="0.94"/>
				<rect x="-8" y="374" width="61" height="50" fill="url(#paint5_linear_2800_519536)"/>
			</g>
		</g>
		<defs>
			<filter id="filter0_bd_2800_519536" x="-20.7742" y="-25.7742" width="455.548" height="520.548" filterUnits="userSpaceOnUse" color-interpolation-filters="sRGB">
				<feFlood flood-opacity="0" result="BackgroundImageFix"/>
				<feGaussianBlur in="BackgroundImageFix" stdDeviation="20.3871"/>
				<feComposite in2="SourceAlpha" operator="in" result="effect1_backgroundBlur_2800_519536"/>
				<feColorMatrix in="SourceAlpha" type="matrix" values="0 0 0 0 0 0 0 0 0 0 0 0 0 0 0 0 0 0 127 0" result="hardAlpha"/>
				<feOffset dy="12"/>
				<feGaussianBlur stdDeviation="13.5"/>
				<feColorMatrix type="matrix" values="0 0 0 0 0 0 0 0 0 0 0 0 0 0 0 0 0 0 0.14 0"/>
				<feBlend mode="normal" in2="effect1_backgroundBlur_2800_519536" result="effect2_dropShadow_2800_519536"/>
				<feBlend mode="normal" in="SourceGraphic" in2="effect2_dropShadow_2800_519536" result="shape"/>
			</filter>
			<filter id="filter1_d_2800_519536" x="29" y="71" width="356" height="70" filterUnits="userSpaceOnUse" color-interpolation-filters="sRGB">
				<feFlood flood-opacity="0" result="BackgroundImageFix"/>
				<feColorMatrix in="SourceAlpha" type="matrix" values="0 0 0 0 0 0 0 0 0 0 0 0 0 0 0 0 0 0 127 0" result="hardAlpha"/>
				<feOffset dy="1"/>
				<feGaussianBlur stdDeviation="1.5"/>
				<feColorMatrix type="matrix" values="0 0 0 0 0 0 0 0 0 0 0 0 0 0 0 0 0 0 0.09 0"/>
				<feBlend mode="normal" in2="BackgroundImageFix" result="effect1_dropShadow_2800_519536"/>
				<feBlend mode="normal" in="SourceGraphic" in2="effect1_dropShadow_2800_519536" result="shape"/>
			</filter>
			<filter id="filter2_d_2800_519536" x="29" y="147" width="356" height="157" filterUnits="userSpaceOnUse" color-interpolation-filters="sRGB">
				<feFlood flood-opacity="0" result="BackgroundImageFix"/>
				<feColorMatrix in="SourceAlpha" type="matrix" values="0 0 0 0 0 0 0 0 0 0 0 0 0 0 0 0 0 0 127 0" result="hardAlpha"/>
				<feOffset dy="1"/>
				<feGaussianBlur stdDeviation="1.5"/>
				<feColorMatrix type="matrix" values="0 0 0 0 0 0 0 0 0 0 0 0 0 0 0 0 0 0 0.09 0"/>
				<feBlend mode="normal" in2="BackgroundImageFix" result="effect1_dropShadow_2800_519536"/>
				<feBlend mode="normal" in="SourceGraphic" in2="effect1_dropShadow_2800_519536" result="shape"/>
			</filter>
			<filter id="filter3_d_2800_519536" x="70" y="198" width="276" height="180" filterUnits="userSpaceOnUse" color-interpolation-filters="sRGB">
				<feFlood flood-opacity="0" result="BackgroundImageFix"/>
				<feColorMatrix in="SourceAlpha" type="matrix" values="0 0 0 0 0 0 0 0 0 0 0 0 0 0 0 0 0 0 127 0" result="hardAlpha"/>
				<feOffset dy="6"/>
				<feGaussianBlur stdDeviation="6"/>
				<feComposite in2="hardAlpha" operator="out"/>
				<feColorMatrix type="matrix" values="0 0 0 0 0.00566667 0 0 0 0 0 0 0 0 0 0.283333 0 0 0 0.08 0"/>
				<feBlend mode="normal" in2="BackgroundImageFix" result="effect1_dropShadow_2800_519536"/>
				<feBlend mode="normal" in="SourceGraphic" in2="effect1_dropShadow_2800_519536" result="shape"/>
			</filter>
			<filter id="filter4_d_2800_519536" x="29" y="310" width="177" height="56" filterUnits="userSpaceOnUse" color-interpolation-filters="sRGB">
				<feFlood flood-opacity="0" result="BackgroundImageFix"/>
				<feColorMatrix in="SourceAlpha" type="matrix" values="0 0 0 0 0 0 0 0 0 0 0 0 0 0 0 0 0 0 127 0" result="hardAlpha"/>
				<feOffset dy="1"/>
				<feGaussianBlur stdDeviation="1.5"/>
				<feColorMatrix type="matrix" values="0 0 0 0 0 0 0 0 0 0 0 0 0 0 0 0 0 0 0.09 0"/>
				<feBlend mode="normal" in2="BackgroundImageFix" result="effect1_dropShadow_2800_519536"/>
				<feBlend mode="normal" in="SourceGraphic" in2="effect1_dropShadow_2800_519536" result="shape"/>
			</filter>
			<filter id="filter5_d_2800_519536" x="208" y="310" width="177" height="56" filterUnits="userSpaceOnUse" color-interpolation-filters="sRGB">
				<feFlood flood-opacity="0" result="BackgroundImageFix"/>
				<feColorMatrix in="SourceAlpha" type="matrix" values="0 0 0 0 0 0 0 0 0 0 0 0 0 0 0 0 0 0 127 0" result="hardAlpha"/>
				<feOffset dy="1"/>
				<feGaussianBlur stdDeviation="1.5"/>
				<feColorMatrix type="matrix" values="0 0 0 0 0 0 0 0 0 0 0 0 0 0 0 0 0 0 0.09 0"/>
				<feBlend mode="normal" in2="BackgroundImageFix" result="effect1_dropShadow_2800_519536"/>
				<feBlend mode="normal" in="SourceGraphic" in2="effect1_dropShadow_2800_519536" result="shape"/>
			</filter>
			<filter id="filter6_d_2800_519536" x="29" y="372" width="356" height="56" filterUnits="userSpaceOnUse" color-interpolation-filters="sRGB">
				<feFlood flood-opacity="0" result="BackgroundImageFix"/>
				<feColorMatrix in="SourceAlpha" type="matrix" values="0 0 0 0 0 0 0 0 0 0 0 0 0 0 0 0 0 0 127 0" result="hardAlpha"/>
				<feOffset dy="1"/>
				<feGaussianBlur stdDeviation="1.5"/>
				<feColorMatrix type="matrix" values="0 0 0 0 0 0 0 0 0 0 0 0 0 0 0 0 0 0 0.09 0"/>
				<feBlend mode="normal" in2="BackgroundImageFix" result="effect1_dropShadow_2800_519536"/>
				<feBlend mode="normal" in="SourceGraphic" in2="effect1_dropShadow_2800_519536" result="shape"/>
			</filter>
			<linearGradient id="paint0_linear_2800_519536" x1="41" y1="64.5097" x2="-20" y2="64.5097" gradientUnits="userSpaceOnUse">
				<stop stop-color="#BDC1C6" stop-opacity="0"/>
				<stop offset="0.491803" stop-color="#BDC1C6"/>
				<stop offset="1" stop-color="#BDC1C6" stop-opacity="0"/>
			</linearGradient>
			<linearGradient id="paint1_linear_2800_519536" x1="53" y1="104.065" x2="-8" y2="104.065" gradientUnits="userSpaceOnUse">
				<stop stop-color="white" stop-opacity="0"/>
				<stop offset="0.491803" stop-color="white"/>
				<stop offset="1" stop-color="white" stop-opacity="0"/>
			</linearGradient>
			<linearGradient id="paint2_linear_2800_519536" x1="53" y1="222.294" x2="-8" y2="222.294" gradientUnits="userSpaceOnUse">
				<stop stop-color="white" stop-opacity="0"/>
				<stop offset="0.491803" stop-color="white"/>
				<stop offset="1" stop-color="white" stop-opacity="0"/>
			</linearGradient>
			<linearGradient id="paint3_linear_2800_519536" x1="53" y1="336.269" x2="-8" y2="336.269" gradientUnits="userSpaceOnUse">
				<stop stop-color="white" stop-opacity="0"/>
				<stop offset="0.491803" stop-color="white"/>
				<stop offset="1" stop-color="white" stop-opacity="0"/>
			</linearGradient>
			<linearGradient id="paint4_linear_2800_519536" x1="232" y1="336.269" x2="171" y2="336.269" gradientUnits="userSpaceOnUse">
				<stop stop-color="white" stop-opacity="0"/>
				<stop offset="0.491803" stop-color="white"/>
				<stop offset="1" stop-color="white" stop-opacity="0"/>
			</linearGradient>
			<linearGradient id="paint5_linear_2800_519536" x1="53" y1="398.269" x2="-8" y2="398.269" gradientUnits="userSpaceOnUse">
				<stop stop-color="white" stop-opacity="0"/>
				<stop offset="0.491803" stop-color="white"/>
				<stop offset="1" stop-color="white" stop-opacity="0"/>
			</linearGradient>
			<clipPath id="clip0_2800_519536">
				<path d="M20 47C20 35.7989 20 30.1984 22.1799 25.9202C24.0973 22.1569 27.1569 19.0973 30.9202 17.1799C35.1984 15 40.7989 15 52 15H362C373.201 15 378.802 15 383.08 17.1799C386.843 19.0973 389.903 22.1569 391.82 25.9202C394 30.1984 394 35.7989 394 47V95H20V47Z" fill="white"/>
			</clipPath>
			<clipPath id="clip1_2800_519536">
				<rect x="32" y="73" width="350" height="64" rx="12" fill="white"/>
			</clipPath>
			<clipPath id="clip2_2800_519536">
				<rect x="32" y="149" width="350" height="151" rx="12" fill="white"/>
			</clipPath>
			<clipPath id="clip3_2800_519536">
				<rect x="44" y="190" width="328" height="60" rx="8" fill="white"/>
			</clipPath>
			<clipPath id="clip4_2800_519536">
				<rect x="32" y="312" width="171" height="50" rx="12" fill="white"/>
			</clipPath>
			<clipPath id="clip5_2800_519536">
				<rect x="211" y="312" width="171" height="50" rx="12" fill="white"/>
			</clipPath>
			<clipPath id="clip6_2800_519536">
				<rect x="32" y="374" width="350" height="50" rx="12" fill="white"/>
			</clipPath>
		</defs>
	</svg>
	<svg height="1200px" id="header">
		<defs>
			<g id="header-line">
				<rect x="48" y="43" width="95" height="8" rx="4" fill="#EDEEF0"/>
			</g>
			<g id="card-main">
				<rect x="92" y="107" width="129" height="6" rx="3" fill="#DFE0E3"/>
				<rect x="292" y="94" width="78" height="22" rx="11" fill="#DFE0E3"/>
				<rect x="92" y="97" width="43" height="6" rx="3" fill="#DFE0E3"/>
				<circle cx="64" cy="105" r="20" fill="#DFE0E3"/>
			</g>
			<g id="line-main">
				<rect x="44" y="168" width="80" height="6" rx="3" fill="#DFE0E3"/>
				<circle cx="150" cy="171" r="6" fill="#DFE0E3"/>
			</g>
			<g id="skeleton-icon">
				<circle cx="100" cy="222" r="8" fill="#DFE0E3"/>
				<circle cx="323" cy="215" r="3" fill="#DFE0E3"/>
				<rect x="112" y="219" width="62" height="6" rx="3" fill="#DFE0E3"/>
				<rect x="118" y="227" width="35" height="4" rx="2" fill="#DFE0E3"/>
				<rect x="92" y="240" width="26" height="4" rx="2" fill="#DFE0E3"/>
				<rect x="160" y="240" width="164" height="4" rx="2" fill="#DFE0E3"/>
				<rect x="155" y="227" width="66" height="4" rx="2" fill="#DFE0E3"/>
			</g>
			<g id="button">
				<rect x="137" y="262" width="140" height="26" rx="13" fill="#DFE0E3"/>
			</g>
			<g id="card-1">
				<rect x="78" y="329" width="50" height="6" rx="3" fill="#DFE0E3"/>
				<rect x="78" y="339" width="80" height="6" rx="3" fill="#DFE0E3"/>
				<circle cx="57" cy="337" r="13" fill="#DFE0E3"/>
				<circle cx="185" cy="337" r="6" fill="#DFE0E3"/>
			</g>
			<g id="card-2">
				<rect x="257" y="329" width="50" height="6" rx="3" fill="#DFE0E3"/>
				<rect x="257" y="339" width="80" height="6" rx="3" fill="#DFE0E3"/>
				<circle cx="236" cy="337" r="13" fill="#DFE0E3"/>
				<circle cx="364" cy="337" r="6" fill="#DFE0E3"/>
			</g>
			<g id="card-wide">
				<rect x="78" y="391" width="129" height="6" rx="3" fill="#DFE0E3"/>
				<rect x="78" y="401" width="43" height="6" rx="3" fill="#DFE0E3"/>
				<circle cx="57" cy="399" r="13" fill="#DFE0E3"/>
				<circle cx="364" cy="399" r="6" fill="#DFE0E3"/>
			</g>
			<g id="links">
				<rect x="135" y="436" width="40" height="6" rx="3" fill="#DFE0E3"/>
				<rect x="187" y="436" width="40" height="6" rx="3" fill="#DFE0E3"/>
				<rect x="239" y="436" width="40" height="6" rx="3" fill="#DFE0E3"/>
			</g>
		</defs>

		<use xlink:href="#header-line" y="0" x="0" width="100%" height="100"/>
		<use xlink:href="#card-main" y="0" x="0" width="100%" height="100"/>
		<use xlink:href="#line-main" y="0" x="0" width="100%" height="100"/>
		<use xlink:href="#skeleton-icon" y="0" x="0" width="100%" height="100"/>
		<use xlink:href="#button" y="0" x="0" width="100%" height="100"/>
		<use xlink:href="#card-1" y="0" x="0" width="100%" height="100"/>
		<use xlink:href="#card-2" y="0" x="0" width="100%" height="100"/>
		<use xlink:href="#card-wide" y="0" x="0" width="100%" height="100"/>
		<use xlink:href="#links" y="0" x="0" width="100%" height="100"/>
	</svg>

	<rect id="msk1" width="100%" fill="url(#msk_gd)" mask="url(#headerMsk)" height="1200"/>

	<mask id="headerMsk" fill="white">
		<use xlink:href="#header"/>
	</mask>

	<linearGradient x1="66.6%" y1="50%" x2="33.3%" y2="50%" id="msk_gd">
		<stop stop-color="#000000" stop-opacity="0" offset="0%"/>
		<stop stop-color="#000000" stop-opacity="0.07" offset="50%"/>
		<stop stop-color="#000000" stop-opacity="0" offset="100%"/>
	</linearGradient>

	<animate xlink:href="#msk1" attributeName="x" from="-100%" to="100%" dur="1s" begin="0s" repeatCount="indefinite"/>
</svg>
