<svg width="375" height="874" viewBox="0 0 375 874" fill="none" xmlns="http://www.w3.org/2000/svg" xmlns:xlink="http://www.w3.org/1999/xlink">
<rect width="375" height="874" fill="white"/>
<path opacity="0.168418" fill-rule="evenodd" clip-rule="evenodd" d="M0 0L375 0L375 874L0 874L0 0Z" fill="#FFCA00"/>
<mask id="mask0" mask-type="alpha" maskUnits="userSpaceOnUse" x="0" y="0" width="375" height="874">
<path fill-rule="evenodd" clip-rule="evenodd" d="M0 0L375 0L375 874L0 874L0 0Z" fill="white"/>
</mask>
<g mask="url(#mask0)">
<g opacity="0.53">
<path fill-rule="evenodd" clip-rule="evenodd" d="M289.182 154.236L314.042 143.484V239.017H336.918V104.855C316.435 114.925 297.428 124.265 278.247 133.693C281.755 141.916 289.182 154.236 289.182 154.236ZM319.585 299.6C249.978 298.912 193.528 242.146 193.796 173.105C194.063 104.1 251.394 47.1687 320.388 47.394C390.157 47.6254 446.772 105.295 446.078 175.424C445.401 243.537 387.611 300.27 319.585 299.6ZM319.765 23.3163C236.8 23.3764 169.796 90.2005 169.691 172.983C169.585 256.745 236.55 323.834 320.186 323.762C403.113 323.69 470.159 256.836 470.309 174.074C470.463 90.3897 403.423 23.2532 319.765 23.3163Z" fill="white"/>
</g>
<g opacity="0.53">
<path fill-rule="evenodd" clip-rule="evenodd" d="M31.1825 589.236L56.0421 578.484V674.017H78.9178V539.855C58.4349 549.925 39.428 559.265 20.2466 568.693C23.7546 576.916 31.1825 589.236 31.1825 589.236ZM61.5851 734.6C-8.02195 733.912 -64.4717 677.146 -64.2042 608.105C-63.9366 539.1 -6.60612 482.169 62.3877 482.394C132.157 482.625 188.772 540.295 188.078 610.424C187.401 678.537 129.611 735.27 61.5851 734.6ZM61.7655 458.316C-21.2003 458.376 -88.2041 525.2 -88.3093 607.983C-88.4145 691.745 -21.4498 758.834 62.1863 758.762C145.113 758.69 212.159 691.836 212.309 609.074C212.463 525.39 145.423 458.253 61.7655 458.316Z" fill="white"/>
</g>
<g opacity="0.4">
<g filter="url(#filter0_f)">
<path fill-rule="evenodd" clip-rule="evenodd" d="M60.664 309.011L66.6438 306.424V329.404H72.1463V297.133C67.2194 299.555 62.6474 301.802 58.0335 304.069C58.8773 306.047 60.664 309.011 60.664 309.011ZM67.9771 343.977C51.2338 343.812 37.6553 330.157 37.7197 313.55C37.784 296.951 51.5743 283.257 68.1702 283.311C84.9525 283.367 98.5707 297.239 98.4037 314.108C98.241 330.492 84.3401 344.138 67.9771 343.977ZM68.0205 277.519C48.0639 277.534 31.9467 293.608 31.9214 313.52C31.8961 333.668 48.0039 349.806 68.1217 349.789C88.0689 349.771 104.196 333.69 104.232 313.783C104.269 293.653 88.1434 277.504 68.0205 277.519Z" fill="white"/>
</g>
</g>
<g opacity="0.4">
<g filter="url(#filter1_f)">
<path fill-rule="evenodd" clip-rule="evenodd" d="M299.664 744.011L305.644 741.424V764.404H311.146V732.133C306.219 734.555 301.647 736.802 297.034 739.069C297.877 741.047 299.664 744.011 299.664 744.011ZM306.977 778.977C290.234 778.812 276.655 765.157 276.72 748.55C276.784 731.951 290.574 718.257 307.17 718.311C323.953 718.367 337.571 732.239 337.404 749.108C337.241 765.492 323.34 779.138 306.977 778.977ZM307.02 712.519C287.064 712.534 270.947 728.608 270.921 748.52C270.896 768.668 287.004 784.806 307.122 784.789C327.069 784.771 343.196 768.69 343.232 748.783C343.269 728.653 327.143 712.504 307.02 712.519Z" fill="white"/>
</g>
</g>
</g>
<defs>
<filter id="filter0_f" x="29.2031" y="274.801" width="77.7476" height="77.7059" filterUnits="userSpaceOnUse" color-interpolation-filters="sRGB">
<feFlood flood-opacity="0" result="BackgroundImageFix"/>
<feBlend mode="normal" in="SourceGraphic" in2="BackgroundImageFix" result="shape"/>
<feGaussianBlur stdDeviation="1.35914" result="effect1_foregroundBlur"/>
</filter>
<filter id="filter1_f" x="268.203" y="709.801" width="77.7476" height="77.7059" filterUnits="userSpaceOnUse" color-interpolation-filters="sRGB">
<feFlood flood-opacity="0" result="BackgroundImageFix"/>
<feBlend mode="normal" in="SourceGraphic" in2="BackgroundImageFix" result="shape"/>
<feGaussianBlur stdDeviation="1.35914" result="effect1_foregroundBlur"/>
</filter>
</defs>
</svg>
