<svg width="24" height="25" viewBox="0 0 24 25" fill="none" xmlns="http://www.w3.org/2000/svg">
<g id="icon zone">
<path id="icon shape fx" fill-rule="evenodd" clip-rule="evenodd" d="M12.2808 6.12809C12.8537 5.98575 13.3999 6.41699 13.3999 6.99216V18.9006H5.5999V8.23456C5.5999 7.83174 5.87371 7.47645 6.27077 7.37304L12.2693 6.13094L12.2808 6.12809ZM14.5999 6.99216V9.00867L18.3137 9.75143C19.0616 9.901 19.5999 10.5577 19.5999 11.3204V18.9006H19.9999C20.3313 18.9006 20.5999 19.1692 20.5999 19.5006C20.5999 19.8319 20.3313 20.1006 19.9999 20.1006H3.9999C3.66853 20.1006 3.3999 19.8319 3.3999 19.5006C3.3999 19.1692 3.66853 18.9006 3.9999 18.9006H4.3999V8.23456C4.3999 7.27252 5.05837 6.43774 5.99141 6.2059L6.00287 6.20306L12.0038 4.96047C13.32 4.64159 14.5999 5.63176 14.5999 6.99216ZM14.5999 18.9006V10.2324L18.0783 10.9281C18.2653 10.9655 18.3999 11.1297 18.3999 11.3204V18.9006H14.5999ZM7.9999 9.40055C7.66853 9.40055 7.3999 9.66918 7.3999 10.0006C7.3999 10.3319 7.66853 10.6006 7.9999 10.6006H10.9999C11.3313 10.6006 11.5999 10.3319 11.5999 10.0006C11.5999 9.66918 11.3313 9.40055 10.9999 9.40055H7.9999ZM17.0999 12.5006C17.0999 12.1692 16.8313 11.9006 16.4999 11.9006C16.1685 11.9006 15.8999 12.1692 15.8999 12.5006V13.5006C15.8999 13.8319 16.1685 14.1006 16.4999 14.1006C16.8313 14.1006 17.0999 13.8319 17.0999 13.5006V12.5006ZM7.9999 12.4006C7.66853 12.4006 7.3999 12.6692 7.3999 13.0006C7.3999 13.3319 7.66853 13.6006 7.9999 13.6006H10.9999C11.3313 13.6006 11.5999 13.3319 11.5999 13.0006C11.5999 12.6692 11.3313 12.4006 10.9999 12.4006H7.9999ZM17.0999 15.8006C17.0999 15.4692 16.8313 15.2006 16.4999 15.2006C16.1685 15.2006 15.8999 15.4692 15.8999 15.8006V16.8006C15.8999 17.1319 16.1685 17.4006 16.4999 17.4006C16.8313 17.4006 17.0999 17.1319 17.0999 16.8006V15.8006ZM7.9999 15.4006C7.66853 15.4006 7.3999 15.6692 7.3999 16.0006C7.3999 16.3319 7.66853 16.6006 7.9999 16.6006H10.9999C11.3313 16.6006 11.5999 16.3319 11.5999 16.0006C11.5999 15.6692 11.3313 15.4006 10.9999 15.4006H7.9999Z" fill="#909090"/>
</g>
</svg>
