<svg width="28" height="28" viewBox="0 0 28 28" fill="none" xmlns="http://www.w3.org/2000/svg">
<circle cx="14" cy="14" r="14" fill="url(#paint0_linear_5876_34188)"/>
<path d="M20.0592 21.2171C20.4681 21.0685 20.6949 20.6388 20.6111 20.2119L20.3214 18.7367C20.3214 18.1212 19.5017 17.418 17.8873 17.0082C17.3404 16.8585 16.8205 16.6263 16.3461 16.3199C16.2424 16.2618 16.2582 15.7242 16.2582 15.7242L15.7382 15.6465C15.7382 15.6029 15.6938 14.9582 15.6938 14.9582C16.3159 14.753 16.2519 13.5426 16.2519 13.5426C16.6469 13.7577 16.9042 12.7998 16.9042 12.7998C17.3715 11.469 16.6715 11.5495 16.6715 11.5495C16.794 10.7371 16.794 9.91139 16.6715 9.09897C16.3603 6.40396 11.675 7.13558 12.2305 8.01577C10.8612 7.76818 11.1736 10.8265 11.1736 10.8265L11.4706 11.6185C11.059 11.8806 11.1398 12.1814 11.2301 12.5174C11.2678 12.6575 11.3071 12.8037 11.313 12.9558C11.3417 13.719 11.8175 13.5609 11.8175 13.5609C11.8468 14.8205 12.4796 14.9845 12.4796 14.9845C12.5985 15.7755 12.5244 15.6409 12.5244 15.6409L11.9613 15.7078C11.9689 15.8877 11.9539 16.0678 11.9168 16.2441C11.5896 16.3873 11.3893 16.5012 11.191 16.6139C10.9879 16.7294 10.787 16.8436 10.4541 16.9869C9.18283 17.5337 7.80118 18.245 7.55556 19.2025C7.48375 19.4825 7.41343 19.8588 7.34985 20.2512C7.28323 20.6625 7.51187 21.0651 7.90319 21.2081C9.61072 21.8319 11.5378 22.2015 13.582 22.2454H14.4051C16.4394 22.2017 18.3578 21.8354 20.0592 21.2171Z" fill="white"/>
<defs>
<linearGradient id="paint0_linear_5876_34188" x1="32.5" y1="-5.5" x2="3" y2="23" gradientUnits="userSpaceOnUse">
<stop stop-color="white"/>
<stop offset="0.398083" stop-color="#7FDEFC" stop-opacity="0.31"/>
<stop offset="0.907485" stop-color="#2FC6F6" stop-opacity="0.43"/>
</linearGradient>
</defs>
</svg>
