<svg width="108" height="44" viewBox="0 0 108 44" fill="none" xmlns="http://www.w3.org/2000/svg">
	<g clip-path="url(#clip0_3_41)">
		<path d="M13.36 10.82C13.36 11.79 13.38 12.66 13.4 13.58C12.84 12.75 12.18 11.84 11.34 10.76L3.17 0H0V19.1H3.31V7.74C3.31 6.75 3.29 5.9 3.25 5.17C3.37 5.33 3.49 5.5 3.62 5.67C4.1 6.34 4.65 7.09 5.3 7.92L13.78 19.1H16.67V0H13.36V10.82V10.82Z" fill="white"/>
		<path d="M25.6 4.96002C21.98 4.96002 19.54 7.85002 19.54 12.16C19.54 15.65 21.35 19.39 26.42 19.39C28.17 19.39 29.83 18.94 31.09 18.11L31.2 18.04L30.19 15.73L30.04 15.82C28.95 16.43 27.9 16.71 26.73 16.71C24.5 16.71 23 15.3 22.88 13.1H31.54V12.23C31.54 7.69002 29.32 4.98002 25.6 4.98002V4.96002ZM25.57 7.59002C27.37 7.59002 28.1 9.15002 28.19 10.66H22.85C22.93 9.15002 23.79 7.59002 25.56 7.59002H25.57Z" fill="white"/>
		<path d="M49.76 5.29999L46.94 14.69L43.99 5.29999H41.33L38.48 14.66L35.61 5.29999H32.22L37.06 19.18H39.68L42.64 9.77999L45.6 19.18H48.14L53.04 5.29999H49.76Z" fill="white"/>
		<path d="M66.35 43.2701H77.97V40.7201H70.27C71.33 36.5001 77.79 35.5601 77.79 30.8401C77.79 28.2901 76.05 26.4301 72.45 26.4301C70.15 26.4301 68.23 27.1101 66.86 27.8001L67.67 30.1601C68.91 29.6001 70.28 29.0401 71.96 29.0401C73.33 29.0401 74.57 29.6001 74.57 31.1501C74.63 34.6301 67.05 34.8801 66.37 43.2601L66.35 43.2701Z" fill="white"/>
		<path d="M101.2 39.73C97.66 39.73 94.74 36.81 94.74 33.27C94.74 29.73 97.66 26.81 101.2 26.81C104.74 26.81 107.66 29.73 107.66 33.27C107.66 36.81 104.74 39.73 101.2 39.73ZM101.2 27.99C98.28 27.99 95.92 30.35 95.92 33.27C95.92 36.19 98.28 38.55 101.2 38.55C104.12 38.55 106.48 36.19 106.48 33.27C106.48 30.35 104.12 27.99 101.2 27.99Z" fill="white"/>
		<path d="M104.87 33.27H101.64V30.04H100.77V34.14H104.87V33.27V33.27Z" fill="white"/>
		<path d="M0 24.14H5.6C9.7 24.14 11.56 26.5 11.56 28.99C11.56 30.67 10.75 32.16 9.26 32.97V33.03C11.5 33.59 12.86 35.39 12.86 37.63C12.86 40.61 10.62 43.28 6.15 43.28H0V24.14ZM5.16 32.15C7.09 32.15 8.14 31.09 8.14 29.6C8.14 28.11 7.21 27.05 5.16 27.05H3.54V32.14H5.16V32.15ZM5.72 40.41C8.02 40.41 9.32 39.54 9.32 37.61C9.32 35.99 8.08 35 6.15 35H3.55V40.4H5.72V40.41Z" fill="white"/>
		<path d="M15.48 25.26C15.48 24.08 16.41 23.15 17.59 23.15C18.77 23.15 19.76 24.02 19.76 25.26C19.76 26.38 18.83 27.31 17.59 27.31C16.35 27.31 15.48 26.44 15.48 25.26V25.26ZM15.85 29.55H19.33V43.28H15.85V29.55V29.55Z" fill="white"/>
		<path d="M23.99 39.92V32.28H21.51V29.55H23.99V26.38L27.47 25.39V29.55H31.63L30.76 32.28H27.47V39.05C27.47 40.35 27.9 40.79 28.84 40.79C29.65 40.79 30.39 40.48 30.95 40.11L32.01 42.47C31.02 43.15 29.34 43.53 27.97 43.53C25.49 43.59 23.99 42.23 23.99 39.93V39.92Z" fill="white"/>
		<path d="M33.8601 29.54H36.78L37.1501 31.09C38.3901 29.85 39.51 29.23 40.94 29.23C41.56 29.23 42.31 29.42 42.87 29.79L41.6301 32.71C41.0101 32.34 40.4501 32.28 40.0801 32.28C39.1501 32.28 38.4 32.65 37.28 33.65V43.34H33.8V29.55H33.8601V29.54Z" fill="white"/>
		<path d="M44.24 25.26C44.24 24.08 45.17 23.15 46.35 23.15C47.53 23.15 48.46 24.08 48.46 25.26C48.46 26.38 47.53 27.31 46.29 27.31C45.05 27.31 44.24 26.44 44.24 25.26ZM44.61 29.55H48.09V43.28H44.61V29.55Z" fill="white"/>
		<path d="M55.11 36.3801L50.14 29.55H53.74L56.97 34.0201L60.26 29.55H63.86L58.83 36.3801L63.92 43.28H60.32L57.03 38.68L53.68 43.28H50.08L55.11 36.3801Z" fill="white"/>
		<path d="M88.78 36.75V26.44H86.61L78.35 37.19V39.24H85.8V43.34H88.78V39.24H91.26V36.76H88.78V36.75ZM85.8 34.33V36.69H83.81C83.19 36.69 82.07 36.75 81.7 36.75L85.92 31.03C85.92 31.53 85.8 33.02 85.8 34.32V34.33Z" fill="white"/>
	</g>
	<defs>
		<clipPath id="clip0_3_41">
			<rect width="107.66" height="43.52" fill="white"/>
		</clipPath>
	</defs>
</svg>