<svg width="28" height="28" viewBox="0 0 28 28" fill="none" xmlns="http://www.w3.org/2000/svg">
	<circle cx="14" cy="14" r="14" fill="#E89B06"/>
	<path fill-rule="evenodd" clip-rule="evenodd" d="M17.1207 12.1118C17.1207 12.0586 17.1272 12.0055 17.1397 11.9538C17.2252 11.6048 17.5715 11.3926 17.9133 11.4799L20.8899 12.2398C21.1739 12.3123 21.3731 12.5729 21.3731 12.8718V18.877H22.0361C22.257 18.877 22.4361 19.0561 22.4361 19.277V20.6483C22.4361 20.8692 22.257 21.0483 22.0361 21.0483H5.82676C5.60584 21.0483 5.42676 20.8692 5.42676 20.6483V19.277C5.42676 19.0561 5.60584 18.877 5.82676 18.877H6.48985V8.36074C6.48985 7.82839 6.86785 7.37456 7.3824 7.28917L14.824 6.05411C14.8805 6.04474 14.9374 6.04004 14.9945 6.04004C15.5816 6.04004 16.0577 6.5261 16.0577 7.12568V18.877H17.1207V12.1118ZM11.0725 18.7701V15.4346H9.1665V18.7701H11.0725ZM13.9785 17.3406V15.4346H12.0725V17.3406H13.9785ZM20.1259 15.3399H18.2199V17.2459H20.1259V15.3399ZM13.9785 9.62207H12.0725V11.5281H13.9785V9.62207ZM11.0724 9.62186H9.16642V11.5279H11.0724V9.62186ZM13.9785 12.5283H12.0725V14.4343H13.9785V12.5283ZM11.0725 12.5283H9.1665V14.4343H11.0725V12.5283Z" fill="white"/>
</svg>
