<svg width="28" height="29" viewBox="0 0 28 29" fill="none" xmlns="http://www.w3.org/2000/svg">
	<path fill-rule="evenodd" clip-rule="evenodd" d="M14 28.2989C21.732 28.2989 28 22.0312 28 14.2996C28 6.5679 21.732 0.300171 14 0.300171C6.26801 0.300171 0 6.5679 0 14.2996C0 22.0312 6.26801 28.2989 14 28.2989Z" fill="#FFA900"/>
	<path fill-rule="evenodd" clip-rule="evenodd" d="M16.9788 12.4978C16.9788 12.447 16.985 12.3963 16.997 12.347C17.0786 12.0139 17.4092 11.8113 17.7353 11.8946L20.5767 12.62C20.8478 12.6892 21.0379 12.9379 21.0379 13.2232V18.9555H21.6526C21.8735 18.9555 22.0526 19.1346 22.0526 19.3555V20.6281C22.0526 20.849 21.8735 21.0281 21.6526 21.0281H6.21641C5.99549 21.0281 5.81641 20.849 5.81641 20.6281V19.3555C5.81641 19.1346 5.99549 18.9555 6.21641 18.9555H6.83118V8.91724C6.83118 8.40908 7.192 7.97589 7.68316 7.89437L14.7865 6.71545C14.8404 6.70652 14.8947 6.70203 14.9493 6.70203C15.5097 6.70203 15.9641 7.16599 15.9641 7.73832V18.9555H16.9788V12.4978ZM11.2055 18.8534V15.6695H9.38616V18.8534H11.2055ZM13.9794 17.4889V15.6695H12.1601V17.4889H13.9794ZM19.8474 15.5792H18.0281V17.3985H19.8474V15.5792ZM13.9794 10.1212H12.1601V11.9406H13.9794V10.1212ZM11.2054 10.121H9.38608V11.9404H11.2054V10.121ZM13.9794 12.8954H12.1601V14.7147H13.9794V12.8954ZM11.2055 12.8954H9.38616V14.7147H11.2055V12.8954Z" fill="white"/>
</svg>