<svg width="28" height="28" viewBox="0 0 28 28" fill="none" xmlns="http://www.w3.org/2000/svg">
	<circle cx="14" cy="14" r="14" fill="#8DBB00"/>
	<path d="M20.6102 20.7826C21.0562 20.6205 21.3037 20.1517 21.2122 19.686L20.8963 18.0768C20.8963 17.4053 20.0019 16.6382 18.2409 16.1912C17.6442 16.0278 17.077 15.7745 16.5596 15.4403C16.4464 15.3768 16.4636 14.7904 16.4636 14.7904L15.8964 14.7056C15.8964 14.658 15.8479 13.9547 15.8479 13.9547C16.5265 13.7309 16.4567 12.4105 16.4567 12.4105C16.8877 12.6451 17.1684 11.6002 17.1684 11.6002C17.6781 10.1484 16.9145 10.2362 16.9145 10.2362C17.0481 9.34989 17.0481 8.44915 16.9145 7.56287C16.575 4.62285 11.4637 5.42099 12.0698 6.38119C10.576 6.11109 10.9168 9.44748 10.9168 9.44748L11.2408 10.3115C10.7917 10.5974 10.8799 10.9256 10.9784 11.2921C11.0195 11.4449 11.0624 11.6044 11.0689 11.7703C11.1002 12.6029 11.6192 12.4304 11.6192 12.4304C11.6512 13.8045 12.3415 13.9834 12.3415 13.9834C12.4712 14.8464 12.3904 14.6995 12.3904 14.6995L11.776 14.7725C11.7844 14.9687 11.7681 15.1652 11.7275 15.3576C11.3706 15.5137 11.1521 15.638 10.9357 15.761C10.7143 15.8869 10.495 16.0116 10.1319 16.1679C8.74504 16.7644 7.23779 17.5403 6.96984 18.5849C6.8915 18.8903 6.81478 19.3009 6.74543 19.729C6.67275 20.1776 6.92217 20.6168 7.34907 20.7728C9.21183 21.4533 11.3141 21.8566 13.5441 21.9044H14.442C16.6614 21.8568 18.7541 21.4572 20.6102 20.7826Z" fill="white"/>
</svg>
