<svg width="28" height="29" viewBox="0 0 28 29" fill="none" xmlns="http://www.w3.org/2000/svg">
	<path fill-rule="evenodd" clip-rule="evenodd" d="M14 28.7989C21.732 28.7989 28 22.5312 28 14.7996C28 7.0679 21.732 0.800171 14 0.800171C6.26801 0.800171 0 7.0679 0 14.7996C0 22.5312 6.26801 28.7989 14 28.7989Z" fill="#9DCF00"/>
	<path d="M20.6679 21.2202C21.1513 21.0528 21.4204 20.5468 21.3182 20.0456L21.0135 18.5513C21.0135 17.8936 20.1039 17.1423 18.3129 16.7046C17.706 16.5446 17.1292 16.2965 16.6029 15.9692C16.4878 15.907 16.5053 15.3327 16.5053 15.3327L15.9285 15.2497C15.9285 15.2031 15.8791 14.5143 15.8791 14.5143C16.5693 14.2951 16.4983 13.0019 16.4983 13.0019C16.9367 13.2317 17.2221 12.2084 17.2221 12.2084C17.7405 10.7865 16.9639 10.8725 16.9639 10.8725C17.0998 10.0045 17.0998 9.12239 16.9639 8.25441C16.6187 5.37509 11.4203 6.15675 12.0367 7.09713C10.5174 6.83261 10.8641 10.1001 10.8641 10.1001L11.1937 10.9463C10.7369 11.2263 10.8266 11.5477 10.9268 11.9067C10.9686 12.0563 11.0122 12.2125 11.0187 12.375C11.0506 13.1904 11.5785 13.0214 11.5785 13.0214C11.611 14.3672 12.3131 14.5424 12.3131 14.5424C12.445 15.3876 12.3628 15.2437 12.3628 15.2437L11.738 15.3152C11.7464 15.5074 11.7299 15.6998 11.6886 15.8882C11.3256 16.0411 11.1034 16.1628 10.8834 16.2833C10.6581 16.4066 10.4351 16.5287 10.0658 16.6817C8.65535 17.266 7.12244 18.0258 6.84993 19.0489C6.77513 19.3297 6.70178 19.7013 6.63472 20.0926C6.55207 20.5749 6.8238 21.0482 7.28591 21.2092C9.1679 21.865 11.2882 22.2534 13.5362 22.2999H14.4494C16.6847 22.2537 18.7938 21.8693 20.6679 21.2202Z" fill="white"/>
</svg>