<svg width="28" height="28" viewBox="0 0 28 28" fill="none" xmlns="http://www.w3.org/2000/svg">
	<circle cx="14" cy="14" r="14" fill="#A77BDE"/>
	<path fill-rule="evenodd" clip-rule="evenodd" d="M6.77779 14.6747C6.65624 14.8709 6.4223 14.879 6.28222 14.6951C6.2186 14.6115 6.1759 14.5122 6.11333 14.4277C5.57904 13.7063 5.30651 13.4217 4.76966 12.7023C4.59984 12.4441 4.56487 11.822 4.77679 11.508C4.98872 11.1941 6.6387 8.9893 7.36845 8.03861C8.0982 7.08792 8.91794 6.92361 9.57931 7.31767C10.2407 7.71173 10.9601 7.72892 11.2141 7.76903C11.468 7.80914 12.8276 7.80339 12.7652 7.96191C12.7029 8.12044 12.3926 8.22015 12.2031 8.34458C12.1511 8.37875 12.0896 8.3983 12.0357 8.42989C11.7446 8.60034 11.3719 8.59735 11.0123 8.59455C10.6528 8.59175 9.87391 8.52166 9.28472 8.21426C8.69554 7.90686 8.35324 8.30991 8.11005 8.57902C7.86686 8.84813 5.7662 11.7184 5.7285 11.7728C5.69079 11.8273 5.51376 12.2723 5.71166 12.5794C5.90956 12.8865 6.30748 13.1632 6.68947 13.8335C6.79553 14.0196 6.88006 14.2144 6.85675 14.4341C6.84797 14.5166 6.82123 14.6047 6.77779 14.6747ZM21.6612 14.656C21.7648 14.7891 21.8149 15.1612 21.752 15.5098C21.6434 16.1113 21.3212 16.5687 20.7872 16.8691C20.7084 16.9134 20.6829 16.9609 20.6728 17.0487C20.5805 17.8452 20.1586 18.4001 19.4121 18.6868C19.2477 18.7499 19.1689 18.825 19.1107 18.9878C18.9151 19.535 18.5312 19.9148 17.9898 20.1205C17.5705 20.2798 17.1414 20.2817 16.718 20.1217C16.656 20.0982 16.6236 20.1017 16.5826 20.1608C16.2662 20.6181 15.8321 20.8842 15.2785 20.9571C14.8347 21.0155 14.4313 20.9164 14.0623 20.6667C13.7639 20.4649 13.6588 20.3867 13.6643 20.3204C13.6698 20.2542 14.053 19.6304 14.1166 19.6548C14.1802 19.6791 14.2245 19.7381 14.5214 19.9475C15.0614 20.3284 15.8032 20.0284 15.9968 19.4359C15.9694 19.4164 15.9408 19.3951 15.9112 19.3751C15.2122 18.9035 15.0235 18.7577 14.3236 18.2872C14.2086 18.2099 14.1392 18.1118 14.1486 17.9681C14.1585 17.8166 14.2412 17.7167 14.3774 17.6633C14.4976 17.6162 14.6084 17.6518 14.7118 17.7217C15.3037 18.1215 15.3859 18.1945 15.9781 18.594C16.3044 18.814 16.6346 19.0285 16.9554 19.2562C17.1542 19.3974 17.371 19.4114 17.5855 19.3508C17.9982 19.2341 18.2554 18.9543 18.3577 18.5341C18.3783 18.4494 18.3603 18.3993 18.2836 18.3478C16.9877 17.4778 16.2042 16.9305 14.9102 16.0577C14.7496 15.9493 14.6845 15.8132 14.7192 15.6602C14.7704 15.4339 15.0219 15.3241 15.2222 15.441C15.2536 15.4593 15.2833 15.4805 15.3135 15.5008C16.6267 16.3866 17.4319 16.9431 18.7403 17.836C18.8885 17.9371 19.0153 17.9409 19.1607 17.8736C19.5738 17.6825 19.7958 17.3587 19.8241 16.9036C19.8285 16.8333 19.803 16.7842 19.7394 16.7415C18.2358 15.73 17.2437 15.0425 15.7416 14.0288C15.4954 13.8627 15.5064 13.5391 15.7634 13.4145C15.8793 13.3584 15.9931 13.3719 16.1003 13.4446C16.3413 13.6078 16.5827 13.7703 16.824 13.9329C18.0718 14.7737 18.8105 15.2868 20.0556 16.1316C20.149 16.195 20.2193 16.1939 20.3139 16.1496C20.8768 15.8861 21.0783 15.0352 20.8919 14.7151C20.7056 14.3951 21.5576 14.5228 21.6612 14.656ZM12.8044 17.7581C13.4659 17.8393 13.8881 18.5324 13.6236 19.1186C13.5549 19.2709 13.4557 19.4097 13.3672 19.5526C13.1865 19.8443 13.0203 20.1469 12.8176 20.4224C12.1127 21.2894 10.1098 19.8507 9.09427 18.9762C8.07872 18.1017 7.29456 17.5167 6.90181 16.4679C6.80815 16.2178 6.81427 15.9726 6.96318 15.7405C7.14329 15.4597 7.32386 15.1792 7.50036 14.8961C7.74037 14.5112 8.29534 14.3515 8.74176 14.5424C8.98369 14.6459 9.1439 14.7961 9.30695 15.079C9.52688 14.8827 9.78337 14.805 10.0651 14.8191C10.2762 14.8296 10.4713 14.9028 10.6386 15.0326C10.9758 15.2942 11.1839 15.7407 10.9593 16.276C11.4403 16.1084 11.8694 16.1804 12.2017 16.5706C12.5375 16.9652 12.5331 17.3928 12.2308 17.8449C12.4336 17.7595 12.6152 17.735 12.8044 17.7581ZM23.5656 12.1695C23.6434 12.335 23.779 12.4565 23.5357 12.8345C23.2925 13.2124 22.3404 14.0319 22.0538 14.1343C21.7672 14.2368 21.7789 14.2413 21.435 14.1993C21.091 14.1573 20.2048 13.5102 19.8373 13.2897C19.3505 12.9976 18.8631 12.7065 18.3762 12.4144C17.9545 12.1614 17.5335 11.9072 17.1117 11.6545C16.6217 11.361 16.1311 11.0687 15.6411 10.7755C15.4993 10.6907 15.3604 10.601 15.2155 10.5221C15.1805 10.503 15.1198 10.5026 15.0831 10.5198C14.5088 10.7887 13.9454 11.0829 13.3615 11.3284C12.6962 11.6081 12.0078 11.6733 11.3186 11.3891C10.965 11.2433 10.6884 10.9988 10.4609 10.696C10.2583 10.4263 10.4238 10.0758 10.6524 9.95924C11.4551 9.55005 12.2182 9.07359 12.9878 8.60787C13.2677 8.4385 13.543 8.26096 13.8279 8.10047C14.1107 7.94114 14.4192 7.84775 14.741 7.80342C14.7918 7.79645 14.8458 7.80272 14.897 7.81112C16.092 8.00772 18.127 8.3515 18.2891 8.36531C18.4511 8.37912 18.6347 8.36204 18.6977 8.34903C18.7607 8.33602 19.3661 8.06664 19.5672 7.96609C19.7683 7.86553 20.2913 7.60341 20.6506 7.86972C21.0099 8.13604 21.1711 8.36691 21.5339 8.82665C22.4576 9.99712 23.4878 12.004 23.5656 12.1695Z" fill="white"/>
</svg>
