<svg width="28" height="28" viewBox="0 0 28 28" fill="none" xmlns="http://www.w3.org/2000/svg">
	<circle cx="14" cy="14" r="14" fill="#559BE6"/>
	<path d="M13.1903 4.71291C13.1903 4.46022 13.4958 4.33367 13.6745 4.51235L16.2597 7.09755C16.3705 7.20832 16.3705 7.3879 16.2597 7.49867L13.6745 10.0839C13.4958 10.2625 13.1903 10.136 13.1903 9.88331V8.6581C12.663 8.74578 12.1504 8.91086 11.6704 9.14807C11.5301 9.21742 11.3576 9.16964 11.2809 9.03319L10.3164 7.31761C10.2395 7.18097 10.2879 7.00745 10.4273 6.93568C11.2895 6.4916 12.2271 6.20794 13.1903 6.09924V4.71291Z" fill="white"/>
	<path d="M18.0749 10.3464C17.9691 10.2308 17.967 10.0516 18.077 9.9399L19.4581 8.53734C19.5679 8.42577 19.7479 8.42406 19.8555 8.53782C22.1613 10.9752 22.7503 14.7122 21.0552 17.8158C19.3674 20.906 15.9276 22.4303 12.6436 21.8289C12.4895 21.8007 12.3928 21.6489 12.4265 21.4959L12.8496 19.5735C12.8833 19.4205 13.0347 19.3245 13.1893 19.3502C15.3994 19.7165 17.6959 18.6779 18.8304 16.6007C19.9699 14.5143 19.5943 12.0079 18.0749 10.3464Z" fill="white"/>
	<path d="M10.2631 20.9834C10.3752 21.0447 10.4882 21.1029 10.6019 21.1582C10.7428 21.2268 10.9108 21.1616 10.9742 21.0182L11.7699 19.2184C11.8332 19.0752 11.7682 18.9085 11.6286 18.8377C11.5783 18.8122 11.5281 18.7858 11.4783 18.7586C10.027 17.966 9.08275 16.6061 8.77034 15.1049C8.73844 14.9516 8.59445 14.8453 8.4397 14.869L6.49457 15.1677C6.33965 15.1915 6.23289 15.3366 6.26228 15.4905C6.69273 17.7454 8.09114 19.7971 10.2631 20.9834Z" fill="white"/>
	<path d="M6.4173 13.5493C6.26101 13.54 6.14126 13.4058 6.15602 13.2499C6.25469 12.2078 6.56196 11.1682 7.09551 10.1913C7.50791 9.43627 8.02492 8.77469 8.61869 8.21477C8.73265 8.10731 8.91222 8.11939 9.01553 8.23713L10.3138 9.71676C10.4172 9.83451 10.4049 10.0132 10.2927 10.1226C9.91556 10.4904 9.58609 10.92 9.32036 11.4065C8.97229 12.0438 8.76557 12.7203 8.68965 13.3999C8.67225 13.5557 8.5387 13.6751 8.38225 13.6659L6.4173 13.5493Z" fill="white"/>
	<path d="M10.4196 14.3819C10.198 14.1603 10.198 13.8012 10.4196 13.5796L11.0051 12.9941C11.2266 12.7726 11.5858 12.7726 11.8073 12.9941L13.2322 14.419L16.2641 11.3871C16.4856 11.1656 16.8448 11.1656 17.0663 11.3871L17.6518 11.9726C17.8734 12.1942 17.8734 12.5533 17.6518 12.7749L13.6335 16.7932C13.6066 16.8201 13.5778 16.8437 13.5473 16.864C13.3269 17.0116 13.0258 16.9881 12.831 16.7933L10.4196 14.3819Z" fill="white"/>
</svg>
