<svg width="28" height="28" viewBox="0 0 28 28" fill="none" xmlns="http://www.w3.org/2000/svg">
	<circle cx="14" cy="14" r="14" fill="#0B66C3"/>
	<path fill-rule="evenodd" clip-rule="evenodd" d="M8.5 6C7.94772 6 7.5 6.44772 7.5 7V21C7.5 21.5523 7.94772 22 8.5 22H19.5C20.0523 22 20.5 21.5523 20.5 21V7C20.5 6.44772 20.0523 6 19.5 6H8.5ZM18.8015 7.7H9.19876V20.3H18.8015V7.7ZM10.4209 12.4065C10.4209 10.4297 12.0235 8.82715 14.0004 8.82715C15.9772 8.82715 17.5798 10.4297 17.5798 12.4065C17.5798 14.3835 15.9772 15.986 14.0004 15.986C12.0235 15.986 10.4209 14.3835 10.4209 12.4065ZM14.2734 14.884V14.2646C14.9718 14.1432 15.3544 13.6817 15.3544 13.1412C15.3544 12.5946 15.0628 12.2607 14.3403 12.0056C13.824 11.8113 13.6115 11.6838 13.6115 11.4833C13.6115 11.3133 13.739 11.1433 14.1338 11.1433C14.5317 11.1433 14.7988 11.2591 14.9627 11.3301L14.9628 11.3301L14.9629 11.3302C14.979 11.3372 14.9942 11.3437 15.0083 11.3497L15.1843 10.6635C14.9839 10.5663 14.7106 10.4813 14.3038 10.4632V9.92871H13.7087V10.5056C13.0588 10.6332 12.6824 11.0522 12.6824 11.5866C12.6824 12.1757 13.1257 12.4793 13.7755 12.6979C14.2249 12.8497 14.4191 12.9954 14.4191 13.2262C14.4191 13.4691 14.1823 13.6027 13.8362 13.6027C13.4414 13.6027 13.0832 13.4753 12.8281 13.3355L12.646 14.046C12.8768 14.1796 13.2714 14.2889 13.6783 14.3071V14.884H14.2734ZM16.9418 17.2002H11.0572C10.8987 17.2002 10.769 17.3268 10.769 17.4844V18.5115C10.769 18.6681 10.8987 18.7967 11.0572 18.7967H16.9418C17.1014 18.7967 17.231 18.6681 17.231 18.5115V17.4844C17.231 17.3268 17.1014 17.2002 16.9418 17.2002Z" fill="white"/>
</svg>
