<svg width="28" height="29" viewBox="0 0 28 29" fill="none" xmlns="http://www.w3.org/2000/svg">
    <path fill-rule="evenodd" clip-rule="evenodd" d="M14 28.9987C21.732 28.9987 28 22.5072 28 14.4994C28 6.49158 21.732 0 14 0C6.26801 0 0 6.49158 0 14.4994C0 22.5072 6.26801 28.9987 14 28.9987Z" fill="#05B5AB"/>
    <path fill-rule="evenodd" clip-rule="evenodd" d="M7.13675 8.56819C6.18825 8.56819 5.41934 9.36456 5.41934 10.3469V17.2994C5.41934 18.2818 6.18825 19.0781 7.13675 19.0781H18.4216C19.3701 19.0781 20.139 18.2818 20.139 17.2994V10.3469C20.139 9.36456 19.3701 8.56819 18.4216 8.56819H7.13675ZM12.7894 16.2229C12.8365 16.4715 12.7091 16.722 12.4781 16.8052C11.7649 17.062 10.9669 17.2137 10.1229 17.2325H9.76674C8.91648 17.2136 8.11306 17.0598 7.39584 16.7995C7.17484 16.7194 7.04575 16.4844 7.0853 16.2454C7.10869 16.104 7.13377 15.9719 7.15928 15.8689C7.26555 15.4398 7.86335 15.1211 8.4134 14.876C8.55742 14.8118 8.64437 14.7606 8.73221 14.7089C8.81802 14.6584 8.90469 14.6073 9.04625 14.5432C9.06233 14.4642 9.06879 14.3834 9.06549 14.3028L9.30914 14.2729C9.30914 14.2729 9.3412 14.3332 9.28976 13.9787C9.28976 13.9787 9.01597 13.9052 9.00328 13.3407C9.00328 13.3407 8.79742 13.4116 8.78501 13.0696C8.78244 13.0015 8.76544 12.9359 8.74915 12.8732C8.71008 12.7226 8.6751 12.5878 8.85322 12.4703L8.72471 12.1154C8.72471 12.1154 8.58952 10.7449 9.18199 10.8559C8.94162 10.4614 10.9688 10.1336 11.1035 11.3413C11.1565 11.7053 11.1565 12.0753 11.1035 12.4394C11.1035 12.4394 11.4063 12.4033 11.2042 12.9997C11.2042 12.9997 11.0928 13.4289 10.9219 13.3326C10.9219 13.3326 10.9496 13.875 10.6804 13.9669C10.6804 13.9669 10.6997 14.2558 10.6997 14.2754L10.9246 14.3102C10.9246 14.3102 10.9178 14.5511 10.9627 14.5771C11.1679 14.7144 11.3929 14.8185 11.6295 14.8856C12.328 15.0692 12.6827 15.3843 12.6827 15.6602L12.7894 16.2229ZM13.304 11.9218C13.304 11.5612 13.5863 11.2688 13.9345 11.2688H16.9966C17.3448 11.2688 17.6271 11.5612 17.6271 11.9218C17.6271 12.2825 17.3448 12.5748 16.9966 12.5748H13.9345C13.5863 12.5748 13.304 12.2825 13.304 11.9218ZM13.304 14.1984C13.304 13.8378 13.5863 13.5454 13.9345 13.5454H16.0959C16.4442 13.5454 16.7264 13.8378 16.7264 14.1984C16.7264 14.559 16.4442 14.8514 16.0959 14.8514H13.9345C13.5863 14.8514 13.304 14.559 13.304 14.1984Z" fill="white"/>
    <path d="M7.84851 19.7589C7.92694 20.666 8.66281 21.3769 9.55901 21.3769H20.8439C21.7924 21.3769 22.5613 20.5805 22.5613 19.5982V12.6457C22.5613 11.7206 21.8795 10.9605 21.0079 10.875V12.3403C21.2152 12.5026 21.3492 12.7602 21.3492 13.0501V19.1941C21.3492 19.6852 20.9647 20.0834 20.4905 20.0834H9.91284C9.64567 20.0834 9.40699 19.9571 9.2495 19.7589H7.84851Z" fill="white"/>
</svg>