<svg width="28" height="28" viewBox="0 0 28 28" fill="none" xmlns="http://www.w3.org/2000/svg">
    <circle cx="14" cy="14" r="14" fill="#55D0E0"/>
    <path fill-rule="evenodd" clip-rule="evenodd" d="M6.80994 8C5.81627 8 5.01074 8.80553 5.01074 9.79919V16.8316C5.01074 17.8252 5.81627 18.6308 6.80993 18.6308H18.6322C19.6258 18.6308 20.4314 17.8252 20.4314 16.8316V9.79919C20.4314 8.80553 19.6258 8 18.6322 8H6.80994ZM12.7317 15.7427C12.7811 15.9941 12.6476 16.2476 12.4057 16.3317C11.6584 16.5914 10.8225 16.7449 9.93824 16.7639H9.56516C8.67441 16.7448 7.83273 16.5892 7.08136 16.326C6.84984 16.2449 6.7146 16.0072 6.75604 15.7654C6.78053 15.6225 6.80681 15.4888 6.83353 15.3846C6.94487 14.9506 7.57113 14.6282 8.14737 14.3803C8.29825 14.3154 8.38934 14.2636 8.48137 14.2113C8.57127 14.1602 8.66206 14.1085 8.81036 14.0437C8.8272 13.9637 8.83397 13.8821 8.83052 13.8005L9.08576 13.7702C9.08576 13.7702 9.11935 13.8313 9.06547 13.4727C9.06547 13.4727 8.77864 13.3984 8.76534 12.8274C8.76534 12.8274 8.54968 12.8991 8.53668 12.5532C8.53399 12.4842 8.51618 12.418 8.49911 12.3545C8.45818 12.2021 8.42153 12.0658 8.60814 11.947L8.47351 11.588C8.47351 11.588 8.33188 10.2017 8.95257 10.314C8.70075 9.915 10.8245 9.58337 10.9656 10.805C11.0211 11.1732 11.0211 11.5475 10.9656 11.9157C10.9656 11.9157 11.2828 11.8792 11.071 12.4824C11.071 12.4824 10.9544 12.9166 10.7753 12.8191C10.7753 12.8191 10.8043 13.3678 10.5224 13.4608C10.5224 13.4608 10.5425 13.753 10.5425 13.7728L10.7782 13.808C10.7782 13.808 10.771 14.0516 10.8181 14.078C11.0331 14.2169 11.2687 14.3221 11.5166 14.39C12.2484 14.5757 12.62 14.8945 12.62 15.1735L12.7317 15.7427ZM13.2708 11.3922C13.2708 11.0274 13.5666 10.7317 13.9314 10.7317H17.1393C17.5041 10.7317 17.7998 11.0274 17.7998 11.3922C17.7998 11.757 17.5041 12.0527 17.1393 12.0527H13.9314C13.5666 12.0527 13.2708 11.757 13.2708 11.3922ZM13.2708 13.6949C13.2708 13.3301 13.5666 13.0344 13.9314 13.0344H16.1958C16.5605 13.0344 16.8563 13.3301 16.8563 13.6949C16.8563 14.0597 16.5605 14.3554 16.1958 14.3554H13.9314C13.5666 14.3554 13.2708 14.0597 13.2708 13.6949Z" fill="white"/>
    <path d="M7.55558 19.3193C7.63775 20.2368 8.40866 20.956 9.34753 20.956H21.1698C22.1634 20.956 22.969 20.1504 22.969 19.1568V12.1244C22.969 11.1887 22.2547 10.4198 21.3416 10.3333V11.8154C21.5588 11.9797 21.6991 12.2402 21.6991 12.5334V18.748C21.6991 19.2448 21.2964 19.6476 20.7995 19.6476H9.71821C9.43832 19.6476 9.18828 19.5198 9.02329 19.3193H7.55558Z" fill="white"/>
</svg>
