<svg width="28" height="29" viewBox="0 0 28 29" fill="none" xmlns="http://www.w3.org/2000/svg">
	<path fill-rule="evenodd" clip-rule="evenodd" d="M14 0C21.732 0 28 6.49187 28 14.5C28 22.5081 21.732 29 14 29C6.26801 29 0 22.5081 0 14.5C0 6.49187 6.26801 0 14 0Z" fill="#A8ADB4"/>
	<path d="M14.458 21.5137C10.6282 21.5137 7.875 19.1003 7.875 14.831V14.823C7.875 10.8644 10.5128 8.15625 14.2965 8.15625C17.911 8.15625 20.4873 10.5139 20.4873 14.2575V14.2655C20.4873 16.8701 19.3799 18.2878 17.9033 18.2878C16.9343 18.2878 16.2729 17.6905 15.9961 16.9019L15.9576 16.8063H15.8884C15.5193 17.7701 14.7349 18.2401 13.7582 18.2401C12.1663 18.2401 11.0896 16.878 11.0896 14.8469V14.839C11.0896 12.8795 12.197 11.5255 13.7582 11.5255C14.5887 11.5255 15.327 11.9795 15.6193 12.6725H15.6808V11.6848H16.9882V15.508C16.9882 16.5594 17.3727 17.0851 17.9495 17.0851C18.7031 17.0851 19.2261 16.1213 19.2261 14.2894V14.2814C19.2261 11.2308 17.2112 9.31915 14.2119 9.31915C11.2588 9.31915 9.14392 11.5812 9.14392 14.839V14.8469C9.14392 18.3834 11.3972 20.3349 14.5118 20.3349C15.5116 20.3349 16.5344 20.1835 17.0958 19.9446V21.1075C16.3806 21.3703 15.4501 21.5137 14.458 21.5137ZM14.0197 16.9975C14.9963 16.9975 15.6193 16.1771 15.6193 14.8708V14.8549C15.6193 13.5645 14.9963 12.7521 14.035 12.7521C13.0737 12.7521 12.5046 13.5327 12.5046 14.8549V14.8629C12.5046 16.193 13.0814 16.9975 14.0197 16.9975Z" fill="white"/>
</svg>