<svg width="28" height="28" viewBox="0 0 28 28" fill="none" xmlns="http://www.w3.org/2000/svg">
	<circle cx="14" cy="14" r="14" fill="#AE914B"/>
	<path fill-rule="evenodd" clip-rule="evenodd" d="M11.1432 7.44064C11.3865 7.01927 11.9253 6.8749 12.3467 7.11818C12.768 7.36145 12.9124 7.90025 12.6691 8.32162L10.9564 11.2881H16.8203L15.1076 8.32162C14.8643 7.90025 15.0087 7.36145 15.4301 7.11818C15.8515 6.8749 16.3902 7.01927 16.6335 7.44064L18.836 11.2554C18.8422 11.2662 18.8482 11.2771 18.854 11.2881H20.2376C20.8874 11.2881 21.3646 11.898 21.2083 12.5287L19.3916 19.8565C19.281 20.3026 18.8806 20.6159 18.421 20.6159H9.57959C9.11998 20.6159 8.71956 20.3026 8.60897 19.8565L6.79232 12.5287C6.63597 11.898 7.11318 11.2881 7.76294 11.2881H8.92279C8.92853 11.2771 8.93452 11.2662 8.94077 11.2554L11.1432 7.44064ZM9.13574 13.8244C9.13574 13.5644 9.34659 13.3535 9.60667 13.3535H11.619V15.0954H9.60667C9.34659 15.0954 9.13574 14.8845 9.13574 14.6244V13.8244ZM13.0608 15.0954V13.3535H14.7983V15.0954H13.0608ZM14.7983 16.4668H13.0608V18.2087H14.7983V16.4668ZM16.2402 18.2087V16.4668H17.6149C17.875 16.4668 18.0858 16.6776 18.0858 16.9377V17.7377C18.0858 17.9978 17.875 18.2087 17.6149 18.2087H16.2402ZM16.2402 15.0954V13.3535H18.3611C18.6212 13.3535 18.832 13.5644 18.832 13.8244V14.6244C18.832 14.8845 18.6212 15.0954 18.3611 15.0954H16.2402ZM10.3857 16.4668H11.619V18.2087H10.3857C10.1256 18.2087 9.91479 17.9978 9.91479 17.7377V16.9377C9.91479 16.6776 10.1256 16.4668 10.3857 16.4668Z" fill="white"/>
</svg>
