<svg width="28" height="28" viewBox="0 0 28 28" fill="none" xmlns="http://www.w3.org/2000/svg">
	<circle cx="14" cy="14" r="14" fill="#05B5AB"/>
	<path fill-rule="evenodd" clip-rule="evenodd" d="M7.5 7C7.5 6.44772 7.94772 6 8.5 6H19.5C20.0523 6 20.5 6.44772 20.5 7V12.5698C20.5 12.6802 20.4105 12.7698 20.3 12.7698H19.0015C18.891 12.7698 18.8015 12.6802 18.8015 12.5698V7.70001H9.19876V20.3H15.8C15.9105 20.3 16 20.3896 16 20.5V21.8C16 21.9105 15.9105 22 15.8 22H8.5C7.94772 22 7.5 21.5523 7.5 21V7ZM11.0572 10.2002H16.9418C17.1014 10.2002 17.231 10.3406 17.231 10.5153V11.654C17.231 11.8276 17.1014 11.9702 16.9418 11.9702H11.0572C10.8987 11.9702 10.769 11.8276 10.769 11.654V10.5153C10.769 10.3406 10.8987 10.2002 11.0572 10.2002ZM17.6214 13.5915L20.7964 16.7664C20.7964 16.7664 21.0049 16.8833 21.0049 17.1579C21.0049 17.4323 20.8291 17.5168 20.8291 17.5168L17.7236 20.622C17.7236 20.622 17.3472 21.0901 17.3472 20.6328V18.7582H12.6376C10.8545 18.7582 10.8545 16.9751 10.8545 16.9751V14.7144C10.8545 14.6039 10.944 14.5144 11.0545 14.5144H13.6722C13.7826 14.5144 13.8722 14.6039 13.8722 14.7144V15.7861H17.3471C17.3472 15.787 17.3472 15.787 17.3472 15.7861H17.3471C17.3452 15.7495 17.3014 14.1308 17.3014 13.7287C17.3014 13.3172 17.6214 13.5915 17.6214 13.5915Z" fill="white"/>
</svg>
