<svg width="22" height="22" viewBox="0 0 22 22" fill="none" xmlns="http://www.w3.org/2000/svg">
<path fill-rule="evenodd" clip-rule="evenodd" d="M11 0C17.0751 0 22 4.92487 22 11C22 17.0751 17.0751 22 11 22C4.92487 22 0 17.0751 0 11C0 4.92487 4.92487 0 11 0Z" fill="#C6CDD3"/>
<path d="M16.132 17.1917C16.7577 16.9818 17.1007 16.3164 16.9738 15.6578L16.7954 14.7322C16.7058 14.1536 16.0459 13.504 14.5701 13.1224C14.0701 12.9829 13.5948 12.7667 13.1611 12.4813C13.0663 12.4272 13.0807 11.9265 13.0807 11.9265L12.6054 11.8541C12.6054 11.8135 12.5647 11.2131 12.5647 11.2131C13.1335 11.022 13.0749 9.89468 13.0749 9.89468C13.4361 10.095 13.6713 9.20291 13.6713 9.20291C14.0985 7.96348 13.4586 8.03842 13.4586 8.03842C13.5706 7.28178 13.5706 6.51278 13.4586 5.75614C13.1741 3.24615 8.89069 3.92755 9.39859 4.7473C8.14672 4.51671 8.43238 7.36509 8.43238 7.36509L8.70391 8.10269C8.32755 8.34681 8.40145 8.62697 8.48401 8.93991C8.51843 9.07038 8.55435 9.20655 8.55978 9.34818C8.58601 10.059 9.02098 9.91169 9.02098 9.91169C9.04779 11.0848 9.62631 11.2376 9.62631 11.2376C9.73498 11.9743 9.66724 11.8489 9.66724 11.8489L9.15243 11.9112C9.1594 12.0787 9.14575 12.2465 9.11178 12.4107C8.81267 12.544 8.62954 12.6501 8.44823 12.7551C8.26262 12.8627 8.0789 12.9691 7.77459 13.1025C6.61236 13.6118 5.44675 13.8969 5.22221 14.7887C5.17056 14.9938 5.09599 15.3464 5.02431 15.7194C4.90307 16.3501 5.24456 16.9733 5.84318 17.1762C7.30266 17.671 8.92369 17.9626 10.6345 18H11.3864C13.0793 17.963 14.6844 17.677 16.132 17.1917Z" fill="white"/>
</svg>
