<svg width="45" height="43" viewBox="0 0 45 43" fill="none" xmlns="http://www.w3.org/2000/svg">
<path fill-rule="evenodd" clip-rule="evenodd" d="M18.5799 33.9588C20.9159 33.9588 22.8087 35.8516 22.8087 38.1876C22.8087 40.5215 20.916 42.4143 18.5799 42.4143C16.246 42.4143 14.3533 40.5216 14.3533 38.1876C14.3533 35.8516 16.246 33.9588 18.5799 33.9588ZM33.4894 33.9588C35.8254 33.9588 37.7182 35.8516 37.7182 38.1876C37.7182 40.5215 35.8255 42.4143 33.4894 42.4143C31.1555 42.4143 29.2628 40.5216 29.2628 38.1876C29.2628 35.8516 31.1555 33.9588 33.4894 33.9588ZM8.07439 4.9202C8.78448 4.9242 9.40567 5.37444 9.6389 6.03166L9.68895 6.20014L10.9124 11.485L10.9628 11.4842L11.5959 14.3572L11.5543 14.3578L14.7792 29.0298H39.0111L41.392 14.3578L39.4693 14.3572L38.8761 11.4337L42.8489 11.4283C43.3596 11.4305 43.8398 11.6673 44.1528 12.0672C44.4285 12.4189 44.5494 12.8622 44.4968 13.2994L44.4635 13.4862L41.3473 30.7883C41.1828 31.4784 40.6017 31.9814 39.91 32.0581L39.7349 32.0683H13.7485C13.0404 32.0643 12.4175 31.614 12.1857 30.9568L12.1361 30.7883L6.74037 8.25802H1.61622C0.934105 8.25802 0.371914 7.74456 0.295081 7.08305L0.286133 6.92793V6.25029C0.286133 5.56817 0.799601 5.00598 1.46111 4.92915L1.61622 4.9202H8.07439ZM34.9054 2.3298L38.5532 19.4913C38.8631 20.9495 37.9323 22.3828 36.4741 22.6928L19.3126 26.3406C17.8544 26.6505 16.4211 25.7197 16.1111 24.2615L12.4633 7.1C12.1534 5.64183 13.0842 4.2085 14.5424 3.89856L31.7039 0.250762C33.1621 -0.0591804 34.5954 0.871636 34.9054 2.3298ZM21.1284 12.1237L17.6865 18.3549L18.8051 23.6175L35.9075 19.9823L35.6279 18.6668L29.949 14.3735L28.2276 17.49L21.1284 12.1237ZM28.5651 4.52831C26.8814 4.88619 25.8067 6.54119 26.1646 8.22486C26.5224 9.90853 28.1774 10.9833 29.8611 10.6254C31.5448 10.2676 32.6195 8.61255 32.2617 6.92888C31.9038 5.24521 30.2488 4.17043 28.5651 4.52831Z" fill="white"/>
</svg>
