<svg width="43" height="35" viewBox="0 0 43 35" fill="none" xmlns="http://www.w3.org/2000/svg">
<path fill-rule="evenodd" clip-rule="evenodd" d="M14.8426 0C15.7485 2.68805 18.29 4.62378 21.2836 4.62378C24.2771 4.62378 26.8186 2.68805 27.7245 0H32.1237C32.6587 0 33.1331 0.259668 33.4276 0.659846L42.3776 9.61005C42.6303 9.86278 42.6303 10.2725 42.3776 10.5253L37.1149 15.7879C36.8622 16.0407 36.4524 16.0407 36.1997 15.7879L33.7414 13.3295L33.7417 33.6531C33.7417 34.1892 33.307 34.6238 32.7709 34.6238H9.79623C9.26009 34.6238 8.82547 34.1892 8.82547 33.6531L8.82519 13.3298L6.36744 15.7879C6.1147 16.0407 5.70493 16.0407 5.4522 15.7879L0.189553 10.5253C-0.0631843 10.2725 -0.0631843 9.86278 0.189553 9.61005L9.13879 0.660829C9.43328 0.260094 9.90797 0 10.4434 0H14.8426ZM17.7523 16.4085L13.7172 21.0644V25.7209H28.8499V24.5569L24.8148 19.9004L22.7967 22.229L17.7523 16.4085Z" fill="#2FC6F6"/>
</svg>
