<svg width="47" height="40" viewBox="0 0 47 40" fill="none" xmlns="http://www.w3.org/2000/svg">
<path fill-rule="evenodd" clip-rule="evenodd" d="M19.5016 31.0921C21.9106 31.0921 23.8624 33.0439 23.8624 35.4529C23.8624 37.8596 21.9106 39.8115 19.5016 39.8115C17.0949 39.8115 15.143 37.8597 15.143 35.4529C15.143 33.0439 17.0948 31.0921 19.5016 31.0921ZM35.5897 31.0921C37.9987 31.0921 39.9505 33.0439 39.9505 35.4529C39.9505 37.8596 37.9987 39.8115 35.5897 39.8115C33.183 39.8115 31.2311 37.8597 31.2311 35.4529C31.2311 33.0439 33.1829 31.0921 35.5897 31.0921ZM8.66813 1.14687C9.40038 1.151 10.041 1.6153 10.2815 2.29303L10.3331 2.46677L11.5947 7.91666L11.6467 7.91579L12.2996 10.8785L12.2567 10.8791L15.5822 26.0092H41.2838L43.739 10.8791L42.5176 10.8785L42.5588 7.86093L45.2414 7.85814C45.768 7.86038 46.2633 8.10462 46.586 8.51695C46.8703 8.87972 46.995 9.33682 46.9407 9.78771L46.9064 9.98027L43.6929 27.8226C43.5233 28.5342 42.9241 29.0529 42.2107 29.132L42.0302 29.1425H14.5194C13.7892 29.1384 13.1468 28.6741 12.9078 27.9964L12.8566 27.8226L7.29246 4.5889H2.00833C1.30492 4.5889 0.725178 4.0594 0.645947 3.37724L0.636719 3.21728V2.51848C0.636719 1.81507 1.16622 1.23533 1.84838 1.1561L2.00833 1.14687H8.66813ZM35.6357 0.400452C37.9083 0.400452 39.7506 2.24273 39.7506 4.5153V18.679C39.7506 20.9515 37.9083 22.7938 35.6357 22.7938H20.7435C18.4709 22.7938 16.6286 20.9515 16.6286 18.679V4.5153C16.6286 2.24273 18.4709 0.400452 20.7435 0.400452H35.6357ZM21.5211 4.2309L21.0559 4.23022V7.66957L21.4046 7.66886C21.8489 7.6676 21.8489 7.6676 22.781 7.66415C24.2457 7.65872 24.2457 7.65872 26.1119 7.65872C26.1309 9.12072 26.1309 9.12072 26.1332 10.0718L26.1336 12.693C26.1336 14.7653 26.1336 14.7653 26.1173 16.4036C26.1028 17.8598 26.1028 17.8598 26.0927 18.5789L26.0902 18.7471H30.2782C30.2673 17.9876 30.2673 17.9876 30.2565 16.2517C30.2456 14.5157 30.2456 14.5157 30.2456 12.6604C30.2456 11.1632 30.2456 11.1632 30.2565 10.1976C30.2642 9.50782 30.2642 9.50782 30.2664 8.5081L30.2673 7.65872C32.0901 7.65872 32.0901 7.65872 33.4571 7.66415C34.3685 7.66776 34.3685 7.66776 34.8989 7.66897L35.3341 7.66957V4.23022L34.9037 4.2311C34.1763 4.23332 34.1763 4.23332 32.5024 4.24107C30.1588 4.25192 30.1588 4.25192 28.1733 4.25192C26.0685 4.25192 26.0685 4.25192 23.9419 4.24107C22.347 4.23293 22.347 4.23293 21.5211 4.2309Z" fill="#2FC6F6"/>
</svg>