<svg width="47" height="41" viewBox="0 0 47 41" fill="none" xmlns="http://www.w3.org/2000/svg">
<path fill-rule="evenodd" clip-rule="evenodd" d="M19.5016 31.3304C21.9106 31.3304 23.8624 33.2822 23.8624 35.6912C23.8624 38.0979 21.9106 40.0498 19.5016 40.0498C17.0949 40.0498 15.143 38.098 15.143 35.6912C15.143 33.2823 17.0948 31.3304 19.5016 31.3304ZM35.5897 31.3304C37.9987 31.3304 39.9505 33.2822 39.9505 35.6912C39.9505 38.0979 37.9987 40.0498 35.5897 40.0498C33.183 40.0498 31.2311 38.098 31.2311 35.6912C31.2311 33.2823 33.1829 31.3304 35.5897 31.3304ZM8.66813 1.38518C9.40038 1.38931 10.041 1.85361 10.2815 2.53135L10.3331 2.70509L11.5947 8.15497L11.6467 8.15411L12.2996 11.1168L12.2567 11.1174L15.5822 26.2475H41.2838L43.739 11.1174L42.5176 11.1168L42.5588 8.09924L45.2414 8.09645C45.768 8.09869 46.2633 8.34293 46.586 8.75526C46.8703 9.11803 46.995 9.57513 46.9407 10.026L46.9064 10.2186L43.6929 28.0609C43.5233 28.7725 42.9241 29.2912 42.2107 29.3704L42.0302 29.3808H14.5194C13.7892 29.3767 13.1468 28.9124 12.9078 28.2347L12.8566 28.0609L7.29246 4.82721H2.00833C1.30492 4.82721 0.725178 4.29771 0.645947 3.61556L0.636719 3.4556V2.7568C0.636719 2.05338 1.16622 1.47364 1.84838 1.39441L2.00833 1.38518H8.66813ZM35.6357 0.638763C37.9083 0.638763 39.7506 2.48104 39.7506 4.75361V18.9173C39.7506 21.1899 37.9083 23.0321 35.6357 23.0321H20.7435C18.4709 23.0321 16.6286 21.1899 16.6286 18.9173V4.75361C16.6286 2.48104 18.4709 0.638763 20.7435 0.638763H35.6357ZM21.5211 4.46921L21.0559 4.46853V7.90788L21.4046 7.90717C21.8489 7.90591 21.8489 7.90591 22.781 7.90246C24.2457 7.89703 24.2457 7.89703 26.1119 7.89703C26.1309 9.35903 26.1309 9.35903 26.1332 10.3102L26.1336 12.9313C26.1336 15.0036 26.1336 15.0036 26.1173 16.6419C26.1028 18.0982 26.1028 18.0982 26.0927 18.8172L26.0902 18.9854H30.2782C30.2673 18.2259 30.2673 18.2259 30.2565 16.49C30.2456 14.754 30.2456 14.754 30.2456 12.8987C30.2456 11.4015 30.2456 11.4015 30.2565 10.4359C30.2642 9.74613 30.2642 9.74613 30.2664 8.74641L30.2673 7.89703C32.0901 7.89703 32.0901 7.89703 33.4571 7.90246C34.3685 7.90608 34.3685 7.90608 34.8989 7.90728L35.3341 7.90788V4.46853L34.9037 4.46942C34.1763 4.47163 34.1763 4.47163 32.5024 4.47938C30.1588 4.49023 30.1588 4.49023 28.1733 4.49023C26.0685 4.49023 26.0685 4.49023 23.9419 4.47938C22.347 4.47124 22.347 4.47124 21.5211 4.46921Z" fill="white"/>
</svg>