<svg width="11" height="40" viewBox="0 0 11 40" fill="none" xmlns="http://www.w3.org/2000/svg">
	<path d="M11 0.00607597C9.49277 -0.0860636 8.52852 0.884583 7.74268 1.90874C6.66629 3.34969 5.71453 4.93601 4.94115 6.57584C1.55352 14.2348 1.24553 22.2056 3.55748 30.2784C4.15176 32.3284 5.01593 34.3155 5.85376 36.5466C3.84447 36.5558 2.07445 35.161 0 35.0427C0.245686 36.0163 0.905489 36.3222 1.44636 36.5924C3.66929 37.6912 5.92995 38.7652 8.20665 39.7721C9.30441 40.2454 9.83852 40.0096 10.1269 38.8002C10.7575 36.2897 10.6482 33.8091 9.78296 31.4258C9.73952 31.3408 9.56114 31.2873 9.30157 31.1734C7.91753 32.7021 9.48957 34.7934 8.52748 36.5567C6.4249 34.0182 5.44428 30.9163 4.73357 27.7514C3.99544 24.4343 3.54893 21.0967 3.82061 17.6866C4.07626 14.3436 4.94828 11.2215 6.07416 8.10357C7.14058 4.9678 8.81873 2.33949 11 0.00607597Z" fill="#2FC6F6"/>
</svg>
