<svg width="24" height="24" viewBox="0 0 24 24" fill="none" xmlns="http://www.w3.org/2000/svg">
	<path d="M23.9998 7.46564C23.9998 7.08402 23.6904 6.77466 23.3088 6.77466H17.3491C16.8244 6.77466 16.399 7.20003 16.399 7.72475C16.399 8.24948 16.8244 8.67485 17.3491 8.67485H20.7453L16.2413 13.431L13.4427 11.1921C12.8619 10.7275 12.0215 10.7876 11.5127 11.3303L7.59507 15.2318C7.21399 15.6113 7.22335 16.2312 7.61571 16.599C7.98882 16.9488 8.57181 16.9407 8.93509 16.5807L12.5986 12.9503L15.3837 15.1783C15.9474 15.6293 16.7594 15.5875 17.2738 15.081L22.0996 10.0081V13.4253C22.0996 13.95 22.5249 14.3754 23.0497 14.3754C23.5744 14.3754 23.9998 13.9501 23.9998 13.4253V7.46564Z" fill="#9DCF00"/>
</svg>