<svg width="88" height="36" viewBox="0 0 88 36" fill="none" xmlns="http://www.w3.org/2000/svg">
	<g clip-path="url(#clip0_246_77)">
		<path d="M78.6826 0H82.2226C83.6377 0 84.9381 0.756429 85.4454 2.07756C86.4803 4.77299 88 10.1155 88 18.2466C88 26.3594 86.4871 31.4826 85.4524 34.0378C84.942 35.2982 83.6843 36 82.3245 36H77.3724C73.4418 36 58.1558 25.6438 53.7884 25.6438L43.3067 25.6438C38.0658 25.6438 23.6533 36 17.539 36H3.99999C3.99999 36 7.05719 28.6027 7.05719 17.7534C7.05719 6.90411 3.99999 0 3.99999 0H18.8492C22.7798 0 38.9392 10.3562 43.3067 10.3562H53.7884C59.0293 10.3562 72.5683 0 78.6826 0Z" fill="#A8ADB4"/>
		<mask id="mask0_246_77" style="mask-type:alpha" maskUnits="userSpaceOnUse" x="4" y="0" width="84" height="36">
			<path d="M78.6826 0H82.2226C83.6377 0 84.9381 0.756429 85.4454 2.07756C86.4803 4.77299 88 10.1155 88 18.2466C88 26.3594 86.4871 31.4826 85.4524 34.0378C84.942 35.2982 83.6843 36 82.3245 36H77.3724C73.4418 36 58.1558 25.6438 53.7884 25.6438L43.3067 25.6438C38.0658 25.6438 23.6533 36 17.539 36H3.99999C3.99999 36 7.05719 28.6027 7.05719 17.7534C7.05719 6.90411 3.99999 0 3.99999 0H18.8492C22.7798 0 38.9392 10.3562 43.3067 10.3562H53.7884C59.0293 10.3562 72.5683 0 78.6826 0Z" fill="url(#paint0_linear_246_77)"/>
		</mask>
		<g mask="url(#mask0_246_77)">
			<path d="M78.6826 0H82.2226C83.6377 0 84.9381 0.756429 85.4454 2.07756C86.4803 4.77299 88 10.1155 88 18.2466C88 26.3594 86.4871 31.4826 85.4524 34.0378C84.942 35.2982 83.6843 36 82.3245 36H77.3724C73.4418 36 58.1558 25.6438 53.7884 25.6438L43.3067 25.6438C38.0658 25.6438 23.6533 36 17.539 36H3.99999C3.99999 36 7.05719 28.6027 7.05719 17.7534C7.05719 6.90411 3.99999 0 3.99999 0H18.8492C22.7798 0 38.9392 10.3562 43.3067 10.3562H53.7884C59.0293 10.3562 72.5683 0 78.6826 0Z" fill="#F1F4F6"/>
		</g>
		<ellipse cx="4" cy="18" rx="4" ry="18" fill="#A8ADB4"/>
		<mask id="mask1_246_77" style="mask-type:alpha" maskUnits="userSpaceOnUse" x="0" y="0" width="8" height="36">
			<ellipse cx="4" cy="18" rx="4" ry="18" fill="url(#paint1_linear_246_77)"/>
		</mask>
		<g mask="url(#mask1_246_77)">
			<ellipse cx="4" cy="18" rx="4" ry="18" fill="#F1F4F6"/>
		</g>
		<path fill-rule="evenodd" clip-rule="evenodd" d="M28.549 15.0314C28.2561 14.7385 27.7813 14.7385 27.4884 15.0314C27.1955 15.3243 27.1955 15.7992 27.4884 16.0921L28.9613 17.5649H15.5459C15.1317 17.5649 14.7959 17.9007 14.7959 18.3149C14.7959 18.7292 15.1317 19.0649 15.5459 19.0649H29.052L27.5787 20.5383C27.2858 20.8312 27.2858 21.3061 27.5787 21.599C27.8715 21.8919 28.3464 21.8919 28.6393 21.599L31.3477 18.8906C31.4883 18.75 31.5673 18.5592 31.5673 18.3603C31.5673 18.1614 31.4883 17.9706 31.3476 17.83L28.549 15.0314Z" fill="#F1F4F6"/>
		<path opacity="0.8" d="M48.3128 34.9011L48.3128 29.2165M50.6143 31.3072L48.3071 28.9999L46.0742 31.2328" stroke="#A8ADB4" stroke-width="1.5" stroke-linecap="round" stroke-linejoin="round"/>
		<path opacity="0.2" d="M78 35C79.0609 35 80.0783 33.2089 80.8284 30.0208C81.5786 26.8327 82 22.5087 82 18C82 13.4913 81.5786 9.16731 80.8284 5.97919C80.0783 2.79107 79.0609 1 78 1" stroke="#A8ADB4" stroke-linejoin="round"/>
		<rect y="18" width="8" height="1" fill="#F1F4F6"/>
	</g>
	<defs>
		<linearGradient id="paint0_linear_246_77" x1="46" y1="0" x2="46" y2="36" gradientUnits="userSpaceOnUse">
			<stop stop-color="white"/>
			<stop offset="1" stop-color="white" stop-opacity="0"/>
		</linearGradient>
		<linearGradient id="paint1_linear_246_77" x1="4" y1="0" x2="4" y2="36" gradientUnits="userSpaceOnUse">
			<stop stop-color="white" stop-opacity="0"/>
			<stop offset="1" stop-color="white"/>
		</linearGradient>
		<clipPath id="clip0_246_77">
			<rect width="88" height="36" fill="white"/>
		</clipPath>
	</defs>
</svg>
