<svg width="218" height="179" viewBox="0 0 218 179" fill="none" xmlns="http://www.w3.org/2000/svg">
	<path fill-rule="evenodd" clip-rule="evenodd" d="M156.909 5.08173C158.238 5.08173 159.315 4.0047 159.315 2.67612C159.315 1.34754 158.238 0.270508 156.909 0.270508C155.58 0.270508 154.503 1.34754 154.503 2.67612C154.503 4.0047 155.58 5.08173 156.909 5.08173ZM38.2039 25.8624C41.0841 25.8624 43.4189 23.5275 43.4189 20.6474C43.4189 17.7672 41.0841 15.4324 38.2039 15.4324C35.3237 15.4324 32.9889 17.7672 32.9889 20.6474C32.9889 23.5275 35.3237 25.8624 38.2039 25.8624ZM38.2039 22.9547C39.4782 22.9547 40.5112 21.9217 40.5112 20.6474C40.5112 19.3731 39.4782 18.34 38.2039 18.34C36.9296 18.34 35.8965 19.3731 35.8965 20.6474C35.8965 21.9217 36.9296 22.9547 38.2039 22.9547ZM11.7102 76.7733C15.5894 76.7733 18.7341 73.6286 18.7341 69.7494C18.7341 65.8702 15.5894 62.7255 11.7102 62.7255C7.83099 62.7255 4.68628 65.8702 4.68628 69.7494C4.68628 73.6286 7.83099 76.7733 11.7102 76.7733ZM11.7102 73.1075C13.5648 73.1075 15.0683 71.604 15.0683 69.7494C15.0683 67.8947 13.5648 66.3912 11.7102 66.3912C9.85555 66.3912 8.35206 67.8947 8.35206 69.7494C8.35206 71.604 9.85555 73.1075 11.7102 73.1075ZM190.039 165.155C192.801 165.155 195.04 162.916 195.04 160.154C195.04 157.393 192.801 155.154 190.039 155.154C187.278 155.154 185.039 157.393 185.039 160.154C185.039 162.916 187.278 165.155 190.039 165.155ZM190.039 162.553C191.364 162.553 192.438 161.479 192.438 160.154C192.438 158.83 191.364 157.756 190.039 157.756C188.715 157.756 187.641 158.83 187.641 160.154C187.641 161.479 188.715 162.553 190.039 162.553ZM110 178C157.496 178 196 139.496 196 91.9998C196 44.5033 157.496 5.99976 110 5.99976C62.5035 5.99976 24 44.5033 24 91.9998C24 139.496 62.5035 178 110 178ZM23.9588 171.988H7.24022C7.09716 171.988 6.95534 171.983 6.81493 171.972C3.03648 171.884 0.000190901 168.709 0 164.805C0.00109851 162.902 0.737676 161.077 2.04769 159.733C2.71919 159.043 3.51317 158.509 4.37699 158.152C4.36254 157.958 4.35518 157.763 4.35518 157.565C4.35637 155.558 5.13359 153.633 6.51587 152.214C7.89815 150.795 9.77226 149.999 11.7259 150C14.2285 150.003 16.438 151.289 17.7658 153.252C18.3964 153.022 19.0752 152.898 19.7823 152.898C22.9062 152.902 25.472 155.349 25.7694 158.479C28.7627 159.149 31.0026 161.89 31 165.166C30.9969 168.942 28.0168 172.001 24.3426 172C24.2138 172 24.0858 171.996 23.9588 171.988ZM201.138 38.992H213.003C213.093 38.9971 213.184 38.9997 213.275 38.9998C215.883 39.0008 217.998 36.9152 218 34.3407C218.002 32.1067 216.412 30.2382 214.288 29.7809C214.077 27.6471 212.256 25.9785 210.039 25.9758C209.537 25.9756 209.055 26.0606 208.608 26.2172C207.666 24.8788 206.098 24.0019 204.322 23.9998C202.935 23.9989 201.605 24.5419 200.624 25.5093C199.643 26.4767 199.092 27.7892 199.091 29.1581C199.091 29.2928 199.096 29.4262 199.106 29.5582C198.493 29.8015 197.93 30.1658 197.453 30.6358C196.524 31.5526 196.001 32.7966 196 34.0939C196 36.7558 198.155 38.9208 200.836 38.981C200.936 38.9883 201.037 38.992 201.138 38.992Z" fill="#213B49"/>
	<g opacity="0.5" filter="url(#filter0_d_13561_143302)">
		<path fill-rule="evenodd" clip-rule="evenodd" d="M85.0623 74.5019C85.0623 74.1116 85.0149 73.7227 84.9225 73.344C84.2945 70.7861 81.7493 69.2308 79.2381 69.8703L57.363 77.4401C55.2761 77.9715 53.8121 79.8809 53.8121 82.0717V118.086C53.8121 119.191 52.9167 120.086 51.8121 120.086H48C46.8954 120.086 46 120.981 46 122.086V134C46 135.105 46.8954 136 48 136H169C170.105 136 171 135.105 171 134V122.086C171 120.981 170.105 120.086 169 120.086H153.187C152.083 120.086 151.187 119.191 151.187 118.086V47.0091C151.187 43.1073 148.41 39.7811 144.628 39.1552L101.941 33.1031C101.526 33.0345 101.107 33 100.687 33C96.3729 33 92.8744 36.5625 92.8744 40.957V118.086C92.8744 119.191 91.979 120.086 90.8744 120.086H87.0623C85.9577 120.086 85.0623 119.191 85.0623 118.086V74.5019Z" fill="#6A737F"/>
	</g>
	<path opacity="0.4" fill-rule="evenodd" clip-rule="evenodd" d="M101.941 33.1031L144.628 39.1552C148.41 39.7811 151.187 43.1073 151.187 47.0091V118.086C151.187 119.191 152.083 120.086 153.187 120.086H169C170.105 120.086 171 120.981 171 122.086V134C171 135.105 170.105 136 169 136H48C46.8954 136 46 135.105 46 134V122.086C46 120.981 46.8954 120.086 48 120.086H51.8121C52.9167 120.086 53.8121 119.191 53.8121 118.086V82.0717C53.8121 79.8809 55.2761 77.9715 57.363 77.4401L79.2381 69.8703C81.7493 69.2308 84.2945 70.7861 84.9225 73.344C85.0149 73.7227 85.0623 74.1116 85.0623 74.5019V118.086C85.0623 119.191 85.9577 120.086 87.0623 120.086H90.8744C91.979 120.086 92.8744 119.191 92.8744 118.086V40.957C92.8744 36.5625 96.3729 33 100.687 33C101.107 33 101.526 33.0345 101.941 33.1031ZM83.9511 73.5813C84.0247 73.8834 84.0623 74.1927 84.0623 74.5019V118.086C84.0623 119.743 85.4054 121.086 87.0623 121.086H90.8744C92.5313 121.086 93.8744 119.743 93.8744 118.086V40.957C93.8744 37.0975 96.9423 34 100.687 34C101.053 34 101.416 34.03 101.778 34.0897L101.789 34.0916L144.476 40.1436C147.756 40.6921 150.187 43.5871 150.187 47.0091V118.086C150.187 119.743 151.531 121.086 153.187 121.086H169C169.552 121.086 170 121.534 170 122.086V134C170 134.552 169.552 135 169 135H48C47.4477 135 47 134.552 47 134V122.086C47 121.534 47.4477 121.086 48 121.086H51.8121C53.469 121.086 54.8121 119.743 54.8121 118.086V82.0717C54.8121 80.3269 55.9768 78.825 57.6097 78.4092L57.6504 78.3989L79.5232 70.8298C81.4684 70.3566 83.4547 71.5618 83.9511 73.5813Z" fill="#6A737F"/>
	<g filter="url(#filter1_d_13561_143302)">
		<path fill-rule="evenodd" clip-rule="evenodd" d="M131.25 78.4335C131.25 78.0964 131.291 77.7605 131.371 77.4335C131.914 75.2243 134.113 73.8811 136.282 74.4334L155.182 79.2438C156.985 79.7026 158.25 81.3517 158.25 83.2437V119.256C158.25 120.361 159.146 121.256 160.25 121.256H163C164.105 121.256 165 122.152 165 123.256V133C165 134.105 164.105 135 163 135H59C57.8954 135 57 134.105 57 133V123.256C57 122.152 57.8954 121.256 59 121.256H61.75C62.8546 121.256 63.75 120.361 63.75 119.256V54.6897C63.75 51.32 66.1502 48.4473 69.4173 47.9068L116.667 40.089C117.026 40.0298 117.387 40 117.75 40C121.478 40 124.501 43.0767 124.501 46.8719V119.256C124.501 120.361 125.396 121.256 126.501 121.256H129.25C130.355 121.256 131.25 120.361 131.25 119.256V78.4335Z" fill="#6A737F"/>
	</g>
	<path opacity="0.5" fill-rule="evenodd" clip-rule="evenodd" d="M130.312 77.175L130.313 77.1733C130.996 74.3924 133.779 72.6716 136.551 73.3773L155.451 78.1876C157.748 78.7723 159.34 80.8652 159.34 83.2434V119.256C159.34 119.759 159.747 120.166 160.25 120.166H163C164.706 120.166 166.089 121.55 166.089 123.256V133C166.089 134.706 164.706 136.089 163 136.089H58.9997C57.2934 136.089 55.9102 134.706 55.9102 133V123.256C55.9102 121.55 57.2934 120.166 58.9997 120.166H61.7497C62.2526 120.166 62.6602 119.759 62.6602 119.256V54.6894C62.6602 50.8007 65.4322 47.4614 69.2391 46.8315C69.2391 46.8315 69.2391 46.8315 69.2391 46.8315L116.489 39.0138L116.489 39.0138C116.906 38.9449 117.327 38.9102 117.75 38.9102C122.097 38.9102 125.59 42.493 125.59 46.8716V119.256C125.59 119.759 125.997 120.166 126.5 120.166H129.25C129.753 120.166 130.16 119.759 130.16 119.256V78.4332C130.16 78.0079 130.212 77.5853 130.312 77.175ZM69.417 47.9065C66.1499 48.447 63.7497 51.3197 63.7497 54.6894V119.256C63.7497 120.36 62.8543 121.256 61.7497 121.256H58.9997C57.8951 121.256 56.9997 122.151 56.9997 123.256V133C56.9997 134.104 57.8951 135 58.9997 135H163C164.104 135 165 134.104 165 133V123.256C165 122.151 164.104 121.256 163 121.256H160.25C159.145 121.256 158.25 120.36 158.25 119.256V83.2434C158.25 81.3514 156.985 79.7024 155.182 79.2435L136.282 74.4331C134.112 73.8808 131.913 75.224 131.371 77.4332C131.291 77.7602 131.25 78.0961 131.25 78.4332V119.256C131.25 120.36 130.354 121.256 129.25 121.256H126.5C125.396 121.256 124.5 120.36 124.5 119.256V46.8716C124.5 43.0764 121.478 39.9997 117.75 39.9997C117.387 39.9997 117.025 40.0295 116.667 40.0887L69.417 47.9065Z" fill="#24B4E1"/>
	<path opacity="0.8" fill-rule="evenodd" clip-rule="evenodd" d="M93 123V102H81V123H93Z" fill="#24B4E1"/>
	<path opacity="0.8" fill-rule="evenodd" clip-rule="evenodd" d="M111 114V102H99V114H111Z" fill="#24B4E1"/>
	<path opacity="0.8" fill-rule="evenodd" clip-rule="evenodd" d="M152 97H140V109H152V97Z" fill="#24B4E1"/>
	<path opacity="0.8" fill-rule="evenodd" clip-rule="evenodd" d="M111 63H99V75H111V63Z" fill="#24B4E1"/>
	<path opacity="0.8" fill-rule="evenodd" clip-rule="evenodd" d="M93 63H81V75H93V63Z" fill="#24B4E1"/>
	<path opacity="0.8" fill-rule="evenodd" clip-rule="evenodd" d="M111 82H99V94H111V82Z" fill="#24B4E1"/>
	<path opacity="0.8" fill-rule="evenodd" clip-rule="evenodd" d="M93 82H81V94H93V82Z" fill="#24B4E1"/>
	<defs>
		<filter id="filter0_d_13561_143302" x="43" y="31" width="131" height="109" filterUnits="userSpaceOnUse" color-interpolation-filters="sRGB">
			<feFlood flood-opacity="0" result="BackgroundImageFix"/>
			<feColorMatrix in="SourceAlpha" type="matrix" values="0 0 0 0 0 0 0 0 0 0 0 0 0 0 0 0 0 0 127 0" result="hardAlpha"/>
			<feOffset dy="1"/>
			<feGaussianBlur stdDeviation="1.5"/>
			<feComposite in2="hardAlpha" operator="out"/>
			<feColorMatrix type="matrix" values="0 0 0 0 0.392157 0 0 0 0 0.427451 0 0 0 0 0.482353 0 0 0 0.1 0"/>
			<feBlend mode="normal" in2="BackgroundImageFix" result="effect1_dropShadow_13561_143302"/>
			<feBlend mode="normal" in="SourceGraphic" in2="effect1_dropShadow_13561_143302" result="shape"/>
		</filter>
		<filter id="filter1_d_13561_143302" x="45.46" y="30.73" width="131.08" height="118.08" filterUnits="userSpaceOnUse" color-interpolation-filters="sRGB">
			<feFlood flood-opacity="0" result="BackgroundImageFix"/>
			<feColorMatrix in="SourceAlpha" type="matrix" values="0 0 0 0 0 0 0 0 0 0 0 0 0 0 0 0 0 0 127 0" result="hardAlpha"/>
			<feOffset dy="2.27"/>
			<feGaussianBlur stdDeviation="5.77"/>
			<feComposite in2="hardAlpha" operator="out"/>
			<feColorMatrix type="matrix" values="0 0 0 0 0.392157 0 0 0 0 0.427451 0 0 0 0 0.482353 0 0 0 0.16 0"/>
			<feBlend mode="normal" in2="BackgroundImageFix" result="effect1_dropShadow_13561_143302"/>
			<feBlend mode="normal" in="SourceGraphic" in2="effect1_dropShadow_13561_143302" result="shape"/>
		</filter>
	</defs>
</svg>
