<svg width="40" height="40" viewBox="0 0 40 40" fill="none" xmlns="http://www.w3.org/2000/svg"><path d="M2 8C2 6.34315 3.34315 5 5 5H14.169C14.7128 5 15.2463 5.14777 15.7125 5.42752L19.2875 7.57248C19.7537 7.85223 20.2872 8 20.831 8H35C36.6569 8 38 9.34315 38 11V12.5H2V8Z" fill="url(#paint0_linear_22386_14737)"/><path d="M2 14H37.9999L38 31C38 33.2091 36.2091 35 34 35H6.00007C3.79093 35 2.00007 33.2091 2.00006 31L2 14Z" fill="url(#paint1_linear_22386_14737)"/><g opacity="0.9"><path fill-rule="evenodd" clip-rule="evenodd" d="M28.6084 18.3205L32.2978 20.4505C32.9836 20.8465 33.4061 21.5783 33.4061 22.3702V26.6303C33.4061 27.4223 32.9836 28.154 32.2978 28.55L28.6084 30.6801C27.9226 31.076 27.0776 31.076 26.3917 30.6801L22.7024 28.55C22.0165 28.154 21.594 27.4223 21.594 26.6303V22.3702C21.594 21.5783 22.0165 20.8465 22.7024 20.4505L26.3917 18.3205C27.0776 17.9245 27.9226 17.9245 28.6084 18.3205ZM25.9167 17.4977C26.8965 16.9321 28.1036 16.9321 29.0834 17.4977L32.7728 19.6278C33.7525 20.1935 34.3561 21.2389 34.3561 22.3702V26.6303C34.3561 27.7617 33.7525 28.8071 32.7728 29.3727L29.0834 31.5028C28.1036 32.0685 26.8965 32.0685 25.9167 31.5028L22.2274 29.3727C21.2476 28.8071 20.644 27.7617 20.644 26.6303V22.3702C20.644 21.2389 21.2476 20.1935 22.2274 19.6278L25.9167 17.4977ZM27.815 21.0287L30.3484 22.4914C30.5434 22.604 30.6635 22.812 30.6635 23.0372V25.9625C30.6635 26.1877 30.5434 26.3957 30.3484 26.5083L27.815 27.9709C27.62 28.0835 27.3798 28.0835 27.1848 27.9709L24.6514 26.5083C24.4564 26.3957 24.3363 26.1877 24.3363 25.9625V23.0372C24.3363 22.812 24.4564 22.604 24.6514 22.4914L27.1848 21.0287C27.3798 20.9162 27.62 20.9162 27.815 21.0287ZM26.7098 20.206C27.1987 19.9237 27.8011 19.9237 28.29 20.206L30.8234 21.6687C31.3123 21.951 31.6135 22.4726 31.6135 23.0372V25.9625C31.6135 26.5271 31.3123 27.0487 30.8234 27.331L28.29 28.7937C27.8011 29.076 27.1987 29.076 26.7098 28.7937L24.1764 27.331C23.6875 27.0487 23.3863 26.5271 23.3863 25.9625V23.0372C23.3863 22.4726 23.6875 21.951 24.1764 21.6687L26.7098 20.206Z" fill="white"/></g><defs><linearGradient id="paint0_linear_22386_14737" x1="20" y1="5" x2="20" y2="12.5" gradientUnits="userSpaceOnUse"><stop stop-color="#19CC45"/><stop offset="1" stop-color="#1CB14E"/></linearGradient><linearGradient id="paint1_linear_22386_14737" x1="20" y1="14" x2="20" y2="35" gradientUnits="userSpaceOnUse"><stop stop-color="#19CC45"/><stop offset="1" stop-color="#1CB14E"/></linearGradient></defs></svg>