<svg width="40" height="40" viewBox="0 0 40 40" fill="none" xmlns="http://www.w3.org/2000/svg"><path d="M2 8C2 6.34315 3.34315 5 5 5H14.169C14.7128 5 15.2463 5.14777 15.7125 5.42752L19.2875 7.57248C19.7537 7.85223 20.2872 8 20.831 8H35C36.6569 8 38 9.34315 38 11V12.5H2L2 8Z" fill="url(#paint0_linear_14483_26503)"/><path d="M2 14H37.9999L38 31C38 33.2091 36.2091 35 34 35H6.00007C3.79093 35 2.00007 33.2091 2.00006 31L2 14Z" fill="url(#paint1_linear_14483_26503)"/><path fill-rule="evenodd" clip-rule="evenodd" d="M22.1275 26.2084C23.2159 25.5775 24.5617 25.3815 25.781 25.3815C27.0003 25.3815 28.3461 25.5775 29.4345 26.2084C30.5544 26.8576 31.3649 27.9487 31.4937 29.6209C31.5377 30.1916 31.0712 30.6249 30.5492 30.6249H21.0128C20.4908 30.6249 20.0243 30.1916 20.0683 29.6209C20.1971 27.9487 21.0076 26.8576 22.1275 26.2084ZM21.1266 29.5749H30.4354C30.3056 28.333 29.7101 27.5819 28.9079 27.1168C28.0472 26.6179 26.9135 26.4315 25.781 26.4315C24.6485 26.4315 23.5148 26.6179 22.6541 27.1168C21.8519 27.5819 21.2564 28.333 21.1266 29.5749Z" fill="#E6F4FF"/><path fill-rule="evenodd" clip-rule="evenodd" d="M25.2014 19.0087C24.9776 19.083 24.8158 19.1707 24.7448 19.2229C24.0642 19.7239 23.7275 20.8094 23.9657 21.8946C24.1954 22.9413 24.8535 23.5864 25.7746 23.5864C26.3612 23.5864 26.7929 23.3369 27.1098 22.9305C27.4455 22.4998 27.6544 21.8793 27.6702 21.2182C27.686 20.5563 27.5066 19.9563 27.1948 19.5479C26.9076 19.1718 26.4697 18.9003 25.7747 18.9003C25.6287 18.9003 25.4219 18.9357 25.2014 19.0087ZM24.1223 18.3774C21.9023 20.0116 22.639 24.6364 25.7746 24.6364C29.5391 24.6364 29.8641 17.8503 25.7747 17.8503C25.1995 17.8503 24.491 18.106 24.1223 18.3774Z" fill="#E6F4FF"/><path fill-rule="evenodd" clip-rule="evenodd" d="M29.3052 18.902C29.9469 18.9251 30.3586 19.1888 30.6328 19.5479C30.9446 19.9563 31.1241 20.5563 31.1082 21.2182C31.0924 21.8793 30.8835 22.4998 30.5478 22.9305C30.231 23.3369 29.7992 23.5864 29.2126 23.5864C29.1704 23.5864 29.1287 23.5851 29.0876 23.5824L28.3977 24.5217C28.6481 24.5961 28.9199 24.6364 29.2126 24.6364C32.9771 24.6364 33.3022 17.8503 29.2127 17.8503C28.9709 17.8503 28.7055 17.8955 28.4518 17.9681L29.3052 18.902ZM32.3729 30.6253H33.9872C34.5092 30.6253 34.9757 30.192 34.9317 29.6213C34.8029 27.9491 33.9924 26.858 32.8725 26.2088C32.0589 25.7372 31.1015 25.5086 30.1606 25.4232L31.4948 26.7459C31.7985 26.8432 32.0848 26.9658 32.3459 27.1172C33.1481 27.5823 33.7436 28.3334 33.8733 29.5753H32.3729V30.6253Z" fill="#E6F4FF"/><path fill-rule="evenodd" clip-rule="evenodd" d="M22.1275 26.2084C23.2159 25.5775 24.5617 25.3815 25.781 25.3815C27.0003 25.3815 28.3461 25.5775 29.4345 26.2084C30.5544 26.8576 31.3649 27.9487 31.4937 29.6209C31.5377 30.1916 31.0712 30.6249 30.5492 30.6249H21.0128C20.4908 30.6249 20.0243 30.1916 20.0683 29.6209C20.1971 27.9487 21.0076 26.8576 22.1275 26.2084ZM21.1266 29.5749H30.4354C30.3056 28.333 29.7101 27.5819 28.9079 27.1168C28.0472 26.6179 26.9135 26.4315 25.781 26.4315C24.6485 26.4315 23.5148 26.6179 22.6541 27.1168C21.8519 27.5819 21.2564 28.333 21.1266 29.5749Z" fill="#E6F4FF"/><path fill-rule="evenodd" clip-rule="evenodd" d="M25.2014 19.0087C24.9776 19.083 24.8158 19.1707 24.7448 19.2229C24.0642 19.7239 23.7275 20.8094 23.9657 21.8946C24.1954 22.9413 24.8535 23.5864 25.7746 23.5864C26.3612 23.5864 26.7929 23.3369 27.1098 22.9305C27.4455 22.4998 27.6544 21.8793 27.6702 21.2182C27.686 20.5563 27.5066 19.9563 27.1948 19.5479C26.9076 19.1718 26.4697 18.9003 25.7747 18.9003C25.6287 18.9003 25.4219 18.9357 25.2014 19.0087ZM24.1223 18.3774C21.9023 20.0116 22.639 24.6364 25.7746 24.6364C29.5391 24.6364 29.8641 17.8503 25.7747 17.8503C25.1995 17.8503 24.491 18.106 24.1223 18.3774Z" fill="#E6F4FF"/><path fill-rule="evenodd" clip-rule="evenodd" d="M29.3052 18.902C29.9469 18.9251 30.3586 19.1888 30.6328 19.5479C30.9446 19.9563 31.1241 20.5563 31.1082 21.2182C31.0924 21.8793 30.8835 22.4998 30.5478 22.9305C30.231 23.3369 29.7992 23.5864 29.2126 23.5864C29.1704 23.5864 29.1287 23.5851 29.0876 23.5824L28.3977 24.5217C28.6481 24.5961 28.9199 24.6364 29.2126 24.6364C32.9771 24.6364 33.3022 17.8503 29.2127 17.8503C28.9709 17.8503 28.7055 17.8955 28.4518 17.9681L29.3052 18.902ZM32.3729 30.6253H33.9872C34.5092 30.6253 34.9757 30.192 34.9317 29.6213C34.8029 27.9491 33.9924 26.858 32.8725 26.2088C32.0589 25.7372 31.1015 25.5086 30.1606 25.4232L31.4948 26.7459C31.7985 26.8432 32.0848 26.9658 32.3459 27.1172C33.1481 27.5823 33.7436 28.3334 33.8733 29.5753H32.3729V30.6253Z" fill="#E6F4FF"/><defs><linearGradient id="paint0_linear_14483_26503" x1="20" y1="4.2148" x2="20" y2="18.684" gradientUnits="userSpaceOnUse"><stop stop-color="#58BCF4"/><stop offset="1" stop-color="#3F81EC"/></linearGradient><linearGradient id="paint1_linear_14483_26503" x1="20" y1="11.9389" x2="20" y2="49.9206" gradientUnits="userSpaceOnUse"><stop stop-color="#58BCF4"/><stop offset="1" stop-color="#3F81EC"/></linearGradient></defs></svg>