<svg width="54" height="54" viewBox="0 0 54 54" fill="none" xmlns="http://www.w3.org/2000/svg">
	<g filter="url(#filter0_d_864_503367)">
		<rect x="12" y="8" width="30" height="30" fill="#BDC1C6"/>
		<path fill-rule="evenodd" clip-rule="evenodd" d="M13.2353 5H40.7647C43.1038 5 45 6.89621 45 9.23529V36.7647C45 39.1038 43.1038 41 40.7647 41H13.2353C10.8962 41 9 39.1038 9 36.7647V9.23529C9 6.89621 10.8962 5 13.2353 5ZM13.3448 36.6552H40.7793V34.545L33.464 26.103L29.8053 30.3246L20.6602 19.7724L13.3448 28.2132V36.6552ZM34.5518 18.9711C36.5067 18.9711 38.0915 17.3863 38.0915 15.4315C38.0915 13.4766 36.5067 11.8918 34.5518 11.8918C32.597 11.8918 31.0122 13.4766 31.0122 15.4315C31.0122 17.3863 32.597 18.9711 34.5518 18.9711Z" fill="white"/>
	</g>
	<defs>
		<filter id="filter0_d_864_503367" x="0" y="0" width="54" height="54" filterUnits="userSpaceOnUse" color-interpolation-filters="sRGB">
			<feFlood flood-opacity="0" result="BackgroundImageFix"/>
			<feColorMatrix in="SourceAlpha" type="matrix" values="0 0 0 0 0 0 0 0 0 0 0 0 0 0 0 0 0 0 127 0" result="hardAlpha"/>
			<feOffset dy="4"/>
			<feGaussianBlur stdDeviation="4.5"/>
			<feComposite in2="hardAlpha" operator="out"/>
			<feColorMatrix type="matrix" values="0 0 0 0 0 0 0 0 0 0 0 0 0 0 0 0 0 0 0.1 0"/>
			<feBlend mode="normal" in2="BackgroundImageFix" result="effect1_dropShadow_864_503367"/>
			<feBlend mode="normal" in="SourceGraphic" in2="effect1_dropShadow_864_503367" result="shape"/>
		</filter>
	</defs>
</svg>