<svg width="28" height="28" viewBox="0 0 28 28" fill="none" xmlns="http://www.w3.org/2000/svg">
	<path fill-rule="evenodd" clip-rule="evenodd" d="M8.33398 5.83301C6.95327 5.83301 5.83398 6.9523 5.83398 8.33301V19.6663C5.83398 21.0471 6.95327 22.1663 8.33398 22.1663H17.1087C17.7465 22.1663 18.3602 21.9226 18.8241 21.485L19.9675 20.4065C20.1292 20.2936 20.2735 20.1575 20.3954 20.0029L21.3827 19.0716C21.8835 18.5993 22.1673 17.9414 22.1673 17.253V8.33301C22.1673 6.9523 21.048 5.83301 19.6673 5.83301H8.33398ZM16.834 16.333H20.1737V8.82661C20.1737 8.27433 19.726 7.82661 19.1737 7.82661H8.82759C8.2753 7.82661 7.82759 8.27433 7.82759 8.82661V19.1727C7.82759 19.725 8.2753 20.1727 8.82759 20.1727H16.334V16.833C16.334 16.5569 16.5578 16.333 16.834 16.333ZM10.5111 10.4997C10.2349 10.4997 10.0111 10.7235 10.0111 10.9997V12.0275C10.0111 12.3037 10.2349 12.5275 10.5111 12.5275H16.5872C16.8634 12.5275 17.0872 12.3037 17.0872 12.0275V10.9997C17.0872 10.7235 16.8634 10.4997 16.5872 10.4997H10.5111Z" fill="#525c69"/>
</svg>