<svg width="28" height="28" viewBox="0 0 28 28" fill="none" xmlns="http://www.w3.org/2000/svg">
	<path d="M10.5943 10.7286C10.2721 10.7286 10.011 10.9898 10.011 11.312V12.1731C10.011 12.4953 10.2721 12.7565 10.5943 12.7565H16.5038C16.826 12.7565 17.0871 12.4953 17.0871 12.1731V11.312C17.0871 10.9898 16.826 10.7286 16.5038 10.7286H10.5943Z" fill="#525c69"/>
	<path d="M10.011 15.2018C10.011 14.8797 10.2721 14.6185 10.5943 14.6185H16.5038C16.826 14.6185 17.0871 14.8797 17.0871 15.2018V16.063C17.0871 16.3852 16.826 16.6463 16.5038 16.6463H10.5943C10.2721 16.6463 10.011 16.3852 10.011 16.063V15.2018Z" fill="#525c69"/>
	<path fill-rule="evenodd" clip-rule="evenodd" d="M5.83398 12.2497C5.83398 8.70589 8.70682 5.83301 12.2507 5.83301H21.6503C21.8027 5.83301 21.9448 5.86067 22.0738 5.9103C22.6367 6.01937 23.3629 6.29541 23.989 6.95623C24.723 7.73097 25.0414 8.72765 25.1809 9.33973C25.3981 10.2926 24.6243 11.0294 23.8014 11.0294L21.0007 11.0294V18.083C21.0007 20.3382 19.1725 22.1663 16.9173 22.1663H6.41732C6.09515 22.1663 5.83398 21.9056 5.83398 21.5834V12.2497ZM21.4603 9.27938L23.3486 9.27937C23.2169 8.88752 23.0158 8.47354 22.7186 8.15983C22.626 8.06207 22.5293 7.98088 22.4313 7.9135L21.5439 9.15575C21.515 9.19632 21.4871 9.23754 21.4603 9.27938ZM7.82759 12.4931C7.82759 9.91579 9.91693 7.82661 12.4943 7.82661H20.1667C20.1667 7.82661 19.0346 9.07419 19.0346 10.4997V17.4894C19.0346 18.9714 17.8333 20.1727 16.3513 20.1727H7.82759V12.4931Z" fill="#525c69"/>
</svg>