<svg width="16" height="16" viewBox="0 0 16 16" fill="none" xmlns="http://www.w3.org/2000/svg">
	<path fill="#A8ADB4" fill-rule="evenodd" clip-rule="evenodd" d="M14.1594 5.22499C14.491 5.55736 14.4738 6.11225 14.121 6.46437C13.7682 6.8165 13.2133 6.83251 12.8817 6.50014L12.2631 5.88154L8.32777 11.0411L8.9317 11.645C9.24148 11.9808 9.21525 12.5178 8.8723 12.8607C8.52936 13.2037 7.9924 13.2299 7.65663 12.9201L6.18147 11.4477L2.38073 14.3102C2.32421 14.3733 2.23915 14.402 2.15986 14.3845C2.08057 14.3671 2.02013 14.3065 2.00294 14.2271C1.98574 14.1478 2.01463 14.0628 2.07793 14.0065L4.89813 10.1625L3.45238 8.71769C3.13629 8.38282 3.15997 7.84069 3.50578 7.49512C3.85159 7.14954 4.39371 7.12625 4.72834 7.4426L5.33227 8.04652L10.4927 4.11117L9.87844 3.49689C9.56235 3.16203 9.58603 2.6199 9.93184 2.27432C10.2777 1.92874 10.8198 1.90545 11.1544 2.2218L14.1594 5.22499Z"/>
</svg>