<svg width="28" height="28" viewBox="0 0 28 28" fill="none" xmlns="http://www.w3.org/2000/svg">
	<path d="M6.99935 16.3337C8.28801 16.3337 9.33268 15.289 9.33268 14.0003C9.33268 12.7117 8.28801 11.667 6.99935 11.667C5.71068 11.667 4.66602 12.7117 4.66602 14.0003C4.66602 15.289 5.71068 16.3337 6.99935 16.3337Z" fill="#525c69"/>
	<path d="M13.9993 16.3337C15.288 16.3337 16.3327 15.289 16.3327 14.0003C16.3327 12.7117 15.288 11.667 13.9993 11.667C12.7107 11.667 11.666 12.7117 11.666 14.0003C11.666 15.289 12.7107 16.3337 13.9993 16.3337Z" fill="#525c69"/>
	<path d="M23.3327 14.0003C23.3327 15.289 22.288 16.3337 20.9993 16.3337C19.7107 16.3337 18.666 15.289 18.666 14.0003C18.666 12.7117 19.7107 11.667 20.9993 11.667C22.288 11.667 23.3327 12.7117 23.3327 14.0003Z" fill="#525c69"/>
</svg>