<svg width="82" height="21" viewBox="0 0 82 21" fill="none" xmlns="http://www.w3.org/2000/svg">
	<path fill-rule="evenodd" clip-rule="evenodd" d="M10.4423 4.57538C10.4299 4.57915 10.4169 4.58668 10.4034 4.59346L4.58581 6.89616C4.44004 6.96473 4.38714 7.11316 4.38281 7.28795V14.7022C4.38443 14.868 4.47135 15.0254 4.58581 15.0699L10.3473 17.3483C10.4186 17.3799 10.512 17.3754 10.5892 17.3543L16.4024 15.0578C16.5168 15.0111 16.6021 14.8506 16.6011 14.684V7.33617C16.6043 7.11012 16.5482 6.97751 16.3981 6.90819L10.5503 4.59353C10.5104 4.57319 10.479 4.56483 10.4423 4.57538ZM10.4769 5.36502L15.3055 7.28185L10.4769 9.18662L5.64395 7.27583L10.4769 5.36502Z" fill="#2FC6F6"/>
	<path d="M23.828 6.432H26.48L28.484 12.324H28.508L30.404 6.432H33.056V15H31.292V8.928H31.268L29.168 15H27.716L25.616 8.988H25.592V15H23.828V6.432ZM36.3827 15.156C36.0867 15.156 35.8107 15.12 35.5547 15.048C35.2987 14.976 35.0747 14.864 34.8827 14.712C34.6907 14.56 34.5387 14.368 34.4267 14.136C34.3227 13.904 34.2707 13.628 34.2707 13.308C34.2707 12.956 34.3307 12.668 34.4507 12.444C34.5787 12.212 34.7387 12.028 34.9307 11.892C35.1307 11.756 35.3547 11.656 35.6027 11.592C35.8587 11.52 36.1147 11.464 36.3707 11.424C36.6267 11.384 36.8787 11.352 37.1267 11.328C37.3747 11.304 37.5947 11.268 37.7867 11.22C37.9787 11.172 38.1307 11.104 38.2427 11.016C38.3547 10.92 38.4067 10.784 38.3987 10.608C38.3987 10.432 38.3667 10.288 38.3027 10.176C38.2467 10.064 38.1667 9.98 38.0627 9.924C37.9667 9.86 37.8507 9.82 37.7147 9.804C37.5867 9.78 37.4467 9.768 37.2947 9.768C36.9587 9.768 36.6947 9.84 36.5027 9.984C36.3107 10.128 36.1987 10.368 36.1667 10.704H34.4627C34.4867 10.312 34.5867 9.984 34.7627 9.72C34.9387 9.448 35.1627 9.232 35.4347 9.072C35.7067 8.912 36.0107 8.8 36.3467 8.736C36.6827 8.664 37.0267 8.628 37.3787 8.628C37.6907 8.628 38.0067 8.652 38.3267 8.7C38.6467 8.74 38.9387 8.824 39.2027 8.952C39.4667 9.08 39.6827 9.26 39.8507 9.492C40.0187 9.724 40.1027 10.024 40.1027 10.392V13.62C40.1027 13.9 40.1187 14.168 40.1507 14.424C40.1827 14.68 40.2387 14.872 40.3187 15H38.5907C38.5587 14.904 38.5307 14.808 38.5067 14.712C38.4907 14.608 38.4787 14.504 38.4707 14.4C38.1987 14.68 37.8787 14.876 37.5107 14.988C37.1427 15.1 36.7667 15.156 36.3827 15.156ZM37.0187 14.028C37.3547 14.028 37.6147 13.972 37.7987 13.86C37.9827 13.748 38.1187 13.616 38.2067 13.464C38.2947 13.304 38.3467 13.144 38.3627 12.984C38.3867 12.824 38.3987 12.696 38.3987 12.6V11.964C38.3267 12.028 38.2387 12.08 38.1347 12.12C38.0307 12.152 37.9147 12.18 37.7867 12.204C37.6587 12.228 37.5267 12.248 37.3907 12.264C37.2547 12.28 37.1187 12.3 36.9827 12.324C36.8467 12.348 36.7187 12.38 36.5987 12.42C36.4787 12.46 36.3707 12.516 36.2747 12.588C36.1867 12.652 36.1147 12.736 36.0587 12.84C36.0027 12.944 35.9747 13.076 35.9747 13.236C35.9747 13.396 36.0027 13.528 36.0587 13.632C36.1147 13.728 36.1907 13.808 36.2867 13.872C36.3827 13.928 36.4947 13.968 36.6227 13.992C36.7507 14.016 36.8827 14.028 37.0187 14.028ZM41.4253 8.796H43.0453V9.588H43.0693C43.2773 9.252 43.5413 9.008 43.8613 8.856C44.1813 8.704 44.5333 8.628 44.9173 8.628C45.4053 8.628 45.8253 8.72 46.1773 8.904C46.5293 9.088 46.8213 9.332 47.0533 9.636C47.2853 9.94 47.4573 10.296 47.5693 10.704C47.6813 11.104 47.7373 11.524 47.7373 11.964C47.7373 12.38 47.6813 12.78 47.5693 13.164C47.4573 13.548 47.2853 13.888 47.0533 14.184C46.8293 14.48 46.5453 14.716 46.2013 14.892C45.8653 15.068 45.4693 15.156 45.0133 15.156C44.6293 15.156 44.2733 15.08 43.9453 14.928C43.6253 14.768 43.3613 14.536 43.1533 14.232H43.1293V17.172H41.4253V8.796ZM44.5573 13.884C44.8373 13.884 45.0693 13.828 45.2533 13.716C45.4453 13.604 45.5973 13.46 45.7093 13.284C45.8293 13.1 45.9133 12.892 45.9613 12.66C46.0093 12.42 46.0333 12.172 46.0333 11.916C46.0333 11.668 46.0053 11.424 45.9493 11.184C45.9013 10.944 45.8173 10.732 45.6973 10.548C45.5773 10.356 45.4213 10.204 45.2293 10.092C45.0453 9.972 44.8173 9.912 44.5453 9.912C44.2653 9.912 44.0293 9.972 43.8373 10.092C43.6533 10.204 43.5013 10.352 43.3813 10.536C43.2693 10.72 43.1893 10.936 43.1413 11.184C43.0933 11.424 43.0693 11.668 43.0693 11.916C43.0693 12.172 43.0933 12.42 43.1413 12.66C43.1973 12.892 43.2813 13.1 43.3933 13.284C43.5133 13.46 43.6653 13.604 43.8493 13.716C44.0413 13.828 44.2773 13.884 44.5573 13.884ZM48.7613 8.796H50.4653V11.328L52.7453 8.796H54.7493L52.1573 11.532L55.0853 15H53.0213L50.8253 12.42L50.4653 12.816V15H48.7613V8.796ZM58.5199 15.156C58.0319 15.156 57.5919 15.08 57.1999 14.928C56.8079 14.768 56.4759 14.544 56.2039 14.256C55.9319 13.968 55.7199 13.624 55.5679 13.224C55.4239 12.824 55.3519 12.384 55.3519 11.904C55.3519 11.44 55.4279 11.008 55.5799 10.608C55.7319 10.208 55.9479 9.864 56.2279 9.576C56.5079 9.28 56.8399 9.048 57.2239 8.88C57.6159 8.712 58.0479 8.628 58.5199 8.628C59.0159 8.628 59.4519 8.72 59.8279 8.904C60.2119 9.088 60.5279 9.336 60.7759 9.648C61.0319 9.952 61.2239 10.308 61.3519 10.716C61.4799 11.124 61.5439 11.548 61.5439 11.988C61.5439 12.044 61.5439 12.1 61.5439 12.156C61.5439 12.204 61.5399 12.256 61.5319 12.312H57.0559C57.0799 12.864 57.2199 13.264 57.4759 13.512C57.7319 13.76 58.0999 13.884 58.5799 13.884C58.9239 13.884 59.2199 13.8 59.4679 13.632C59.7159 13.456 59.8679 13.272 59.9239 13.08H61.4239C61.1839 13.824 60.8159 14.356 60.3199 14.676C59.8239 14.996 59.2239 15.156 58.5199 15.156ZM59.8279 11.232C59.7479 10.8 59.6039 10.472 59.3959 10.248C59.1959 10.024 58.8879 9.912 58.4719 9.912C58.1919 9.912 57.9639 9.96 57.7879 10.056C57.6119 10.144 57.4679 10.256 57.3559 10.392C57.2519 10.528 57.1759 10.672 57.1279 10.824C57.0879 10.976 57.0639 11.112 57.0559 11.232H59.8279ZM64.0545 10.08H62.0145V8.796H67.7985V10.08H65.7585V15H64.0545V10.08ZM68.362 9.828H69.994C69.994 9.604 70.014 9.38 70.054 9.156C70.102 8.924 70.178 8.716 70.282 8.532C70.386 8.34 70.522 8.188 70.69 8.076C70.866 7.956 71.078 7.896 71.326 7.896C71.694 7.896 71.994 8.012 72.226 8.244C72.466 8.468 72.586 8.784 72.586 9.192C72.586 9.448 72.526 9.676 72.406 9.876C72.294 10.076 72.15 10.256 71.974 10.416C71.806 10.576 71.618 10.724 71.41 10.86C71.202 10.988 71.006 11.116 70.822 11.244C70.462 11.492 70.118 11.736 69.79 11.976C69.47 12.216 69.19 12.48 68.95 12.768C68.71 13.048 68.518 13.368 68.374 13.728C68.238 14.088 68.17 14.512 68.17 15H74.338V13.536H70.366C70.574 13.248 70.814 12.996 71.086 12.78C71.358 12.564 71.638 12.364 71.926 12.18C72.214 11.988 72.498 11.796 72.778 11.604C73.066 11.412 73.322 11.2 73.546 10.968C73.77 10.728 73.95 10.456 74.086 10.152C74.222 9.848 74.29 9.484 74.29 9.06C74.29 8.652 74.21 8.284 74.05 7.956C73.898 7.628 73.69 7.352 73.426 7.128C73.162 6.904 72.854 6.732 72.502 6.612C72.158 6.492 71.794 6.432 71.41 6.432C70.906 6.432 70.458 6.52 70.066 6.696C69.682 6.864 69.362 7.104 69.106 7.416C68.85 7.72 68.658 8.08 68.53 8.496C68.402 8.904 68.346 9.348 68.362 9.828ZM78.3299 8.736V11.652H76.1219L78.2939 8.736H78.3299ZM78.3299 13.056V15H79.9499V13.056H81.0659V11.652H79.9499V6.6H78.4259L74.7779 11.496V13.056H78.3299Z" fill="#525C69"/>
</svg>