<svg width="825" height="420" viewBox="0 0 825 420" fill="none" xmlns="http://www.w3.org/2000/svg">
<path fill-rule="evenodd" clip-rule="evenodd" d="M418.76 0.0293964C418.683 0.0101917 418.602 0 418.519 0C417.966 0 417.519 0.447715 417.519 1V41C417.519 51.4934 409.012 60 398.519 60H224.105C212.507 60 203.105 69.402 203.105 81V121C203.105 121.552 203.553 122 204.105 122C204.658 122 205.105 121.552 205.105 121V81C205.105 70.5066 213.612 62 224.105 62H398.519C408.173 62 416.305 55.4854 418.76 46.6124C421.215 55.4854 429.348 62 439.002 62H603.002C613.495 62 622.002 70.5066 622.002 81V121C622.002 121.552 622.45 122 623.002 122C623.554 122 624.002 121.552 624.002 121V81C624.002 69.402 614.6 60 603.002 60H439.002C428.509 60 420.002 51.4934 420.002 41V1C420.002 0.447715 419.554 0 419.002 0C418.919 0 418.838 0.0101917 418.76 0.0293964Z" fill="#525C69" fill-opacity="0.09"/>
<path fill-rule="evenodd" clip-rule="evenodd" d="M200.356 241C200.356 240.448 199.909 240 199.356 240C199.356 240 199.356 240 199.356 240C198.804 240 198.356 240.448 198.356 241V266.246C198.356 266.26 198.356 266.275 198.356 266.289C198.333 276.763 189.835 285.246 179.356 285.246H112C100.402 285.246 91 294.648 91 306.246V331.492C91 332.044 91.4477 332.492 92 332.492C92.5523 332.492 93 332.044 93 331.492V306.246C93 295.752 101.507 287.246 112 287.246H179.356C188.715 287.246 196.643 281.125 199.356 272.668C202.07 281.125 209.998 287.246 219.356 287.246H286.713C297.206 287.246 305.713 295.752 305.713 306.246V331.492C305.713 332.044 306.16 332.492 306.713 332.492C307.265 332.492 307.713 332.044 307.713 331.492V306.246C307.713 294.648 298.311 285.246 286.713 285.246H219.356C208.877 285.246 200.38 276.763 200.356 266.289C200.356 266.275 200.356 266.26 200.356 266.246V241Z" fill="#525C69" fill-opacity="0.09"/>
<path fill-rule="evenodd" clip-rule="evenodd" d="M623.356 241C623.356 240.448 622.909 240 622.356 240C622.356 240 622.356 240 622.356 240C621.804 240 621.356 240.448 621.356 241V266.246C621.356 266.26 621.356 266.275 621.356 266.289C621.333 276.763 612.835 285.246 602.356 285.246H535C523.402 285.246 514 294.648 514 306.246V331.492C514 332.044 514.448 332.492 515 332.492C515.552 332.492 516 332.044 516 331.492V306.246C516 295.752 524.507 287.246 535 287.246H602.356C611.715 287.246 619.643 281.125 622.356 272.668C625.07 281.125 632.998 287.246 642.356 287.246H709.713C720.206 287.246 728.713 295.752 728.713 306.246V331.492C728.713 332.044 729.16 332.492 729.713 332.492C730.265 332.492 730.713 332.044 730.713 331.492V306.246C730.713 294.648 721.311 285.246 709.713 285.246H642.356C631.877 285.246 623.38 276.763 623.356 266.289C623.356 266.275 623.356 266.26 623.356 266.246V241Z" fill="#525C69" fill-opacity="0.09"/>
<g filter="url(#filter0_d_9070_530698)">
<g clip-path="url(#clip0_9070_530698)">
<g filter="url(#filter1_d_9070_530698)">
<rect width="278" height="140" transform="translate(69 104.5)" fill="white"/>
<rect opacity="0.68" x="85" y="122.5" width="95" height="13" rx="6.5" fill="#EEF2F4"/>
<circle cx="99" cy="163.5" r="14" fill="#EEF2F4"/>
<rect opacity="0.68" x="119" y="152.5" width="78" height="8" rx="4" fill="#EEF2F4"/>
<rect opacity="0.68" x="119" y="168.5" width="149" height="8" rx="4" fill="#EEF2F4"/>
<rect opacity="0.68" x="85" y="194.5" width="78" height="6" rx="3" fill="#EEF2F4"/>
<rect opacity="0.68" x="175" y="194.5" width="78" height="6" rx="3" fill="#EEF2F4"/>
</g>
</g>
</g>
<g filter="url(#filter2_d_9070_530698)">
<g clip-path="url(#clip1_9070_530698)">
<g filter="url(#filter3_d_9070_530698)">
<rect width="182" height="97" transform="translate(215 318)" fill="white"/>
<rect opacity="0.68" x="231" y="336" width="95" height="10" rx="5" fill="#EEF2F4"/>
<circle cx="241" cy="364" r="10" fill="#EEF2F4"/>
<rect opacity="0.68" x="257" y="357.5" width="78" height="5" rx="2.5" fill="#EEF2F4"/>
<rect opacity="0.68" x="257" y="366" width="116" height="5" rx="2.5" fill="#EEF2F4"/>
<rect opacity="0.68" x="231" y="384" width="62" height="5" rx="2.5" fill="#EEF2F4"/>
<rect opacity="0.68" x="312" y="384" width="62" height="5" rx="2.5" fill="#EEF2F4"/>
</g>
</g>
</g>
<g filter="url(#filter4_d_9070_530698)">
<g clip-path="url(#clip2_9070_530698)">
<g filter="url(#filter5_d_9070_530698)">
<rect width="182" height="97" transform="translate(426 318)" fill="white"/>
<rect opacity="0.68" x="442" y="336" width="95" height="10" rx="5" fill="#EEF2F4"/>
<circle cx="452" cy="364" r="10" fill="#EEF2F4"/>
<rect opacity="0.68" x="468" y="357.5" width="78" height="5" rx="2.5" fill="#EEF2F4"/>
<rect opacity="0.68" x="468" y="366" width="116" height="5" rx="2.5" fill="#EEF2F4"/>
<rect opacity="0.68" x="442" y="384" width="62" height="5" rx="2.5" fill="#EEF2F4"/>
<rect opacity="0.68" x="523" y="384" width="62" height="5" rx="2.5" fill="#EEF2F4"/>
</g>
</g>
</g>
<g filter="url(#filter6_d_9070_530698)">
<g clip-path="url(#clip3_9070_530698)">
<g filter="url(#filter7_d_9070_530698)">
<rect width="182" height="97" transform="translate(640 318)" fill="white"/>
<rect opacity="0.68" x="656" y="336" width="95" height="10" rx="5" fill="#EEF2F4"/>
<circle cx="666" cy="364" r="10" fill="#EEF2F4"/>
<rect opacity="0.68" x="682" y="357.5" width="78" height="5" rx="2.5" fill="#EEF2F4"/>
<rect opacity="0.68" x="682" y="366" width="116" height="5" rx="2.5" fill="#EEF2F4"/>
<rect opacity="0.68" x="656" y="384" width="62" height="5" rx="2.5" fill="#EEF2F4"/>
<rect opacity="0.68" x="737" y="384" width="62" height="5" rx="2.5" fill="#EEF2F4"/>
</g>
</g>
</g>
<g filter="url(#filter8_d_9070_530698)">
<g clip-path="url(#clip4_9070_530698)">
<g filter="url(#filter9_d_9070_530698)">
<rect width="182" height="97" transform="translate(3 318)" fill="white"/>
<rect opacity="0.68" x="19" y="336" width="95" height="10" rx="5" fill="#EEF2F4"/>
<circle cx="29" cy="364" r="10" fill="#EEF2F4"/>
<rect opacity="0.68" x="45" y="357.5" width="78" height="5" rx="2.5" fill="#EEF2F4"/>
<rect opacity="0.68" x="45" y="366" width="116" height="5" rx="2.5" fill="#EEF2F4"/>
<rect opacity="0.68" x="19" y="384" width="62" height="5" rx="2.5" fill="#EEF2F4"/>
<rect opacity="0.68" x="100" y="384" width="62" height="5" rx="2.5" fill="#EEF2F4"/>
</g>
</g>
</g>
<g filter="url(#filter10_d_9070_530698)">
<g clip-path="url(#clip5_9070_530698)">
<g filter="url(#filter11_d_9070_530698)">
<rect width="278" height="140" transform="translate(485 105)" fill="white"/>
<rect opacity="0.68" x="501" y="123" width="95" height="13" rx="6.5" fill="#EEF2F4"/>
<circle cx="515" cy="164" r="14" fill="#EEF2F4"/>
<rect opacity="0.68" x="535" y="153" width="78" height="8" rx="4" fill="#EEF2F4"/>
<rect opacity="0.68" x="535" y="169" width="149" height="8" rx="4" fill="#EEF2F4"/>
<rect opacity="0.68" x="501" y="195" width="78" height="6" rx="3" fill="#EEF2F4"/>
<rect opacity="0.68" x="591" y="195" width="78" height="6" rx="3" fill="#EEF2F4"/>
</g>
</g>
</g>
<defs>
<filter id="filter0_d_9070_530698" x="66" y="103.5" width="284" height="146" filterUnits="userSpaceOnUse" color-interpolation-filters="sRGB">
<feFlood flood-opacity="0" result="BackgroundImageFix"/>
<feColorMatrix in="SourceAlpha" type="matrix" values="0 0 0 0 0 0 0 0 0 0 0 0 0 0 0 0 0 0 127 0" result="hardAlpha"/>
<feOffset dy="2"/>
<feGaussianBlur stdDeviation="1.5"/>
<feComposite in2="hardAlpha" operator="out"/>
<feColorMatrix type="matrix" values="0 0 0 0 0 0 0 0 0 0 0 0 0 0 0 0 0 0 0.06 0"/>
<feBlend mode="normal" in2="BackgroundImageFix" result="effect1_dropShadow_9070_530698"/>
<feBlend mode="normal" in="SourceGraphic" in2="effect1_dropShadow_9070_530698" result="shape"/>
</filter>
<filter id="filter1_d_9070_530698" x="65" y="104.5" width="316.094" height="148" filterUnits="userSpaceOnUse" color-interpolation-filters="sRGB">
<feFlood flood-opacity="0" result="BackgroundImageFix"/>
<feColorMatrix in="SourceAlpha" type="matrix" values="0 0 0 0 0 0 0 0 0 0 0 0 0 0 0 0 0 0 127 0" result="hardAlpha"/>
<feOffset dy="4"/>
<feGaussianBlur stdDeviation="2"/>
<feComposite in2="hardAlpha" operator="out"/>
<feColorMatrix type="matrix" values="0 0 0 0 0 0 0 0 0 0 0 0 0 0 0 0 0 0 0.35 0"/>
<feBlend mode="normal" in2="BackgroundImageFix" result="effect1_dropShadow_9070_530698"/>
<feBlend mode="normal" in="SourceGraphic" in2="effect1_dropShadow_9070_530698" result="shape"/>
</filter>
<filter id="filter2_d_9070_530698" x="212" y="317" width="188" height="103" filterUnits="userSpaceOnUse" color-interpolation-filters="sRGB">
<feFlood flood-opacity="0" result="BackgroundImageFix"/>
<feColorMatrix in="SourceAlpha" type="matrix" values="0 0 0 0 0 0 0 0 0 0 0 0 0 0 0 0 0 0 127 0" result="hardAlpha"/>
<feOffset dy="2"/>
<feGaussianBlur stdDeviation="1.5"/>
<feComposite in2="hardAlpha" operator="out"/>
<feColorMatrix type="matrix" values="0 0 0 0 0 0 0 0 0 0 0 0 0 0 0 0 0 0 0.06 0"/>
<feBlend mode="normal" in2="BackgroundImageFix" result="effect1_dropShadow_9070_530698"/>
<feBlend mode="normal" in="SourceGraphic" in2="effect1_dropShadow_9070_530698" result="shape"/>
</filter>
<filter id="filter3_d_9070_530698" x="211" y="318" width="190" height="108" filterUnits="userSpaceOnUse" color-interpolation-filters="sRGB">
<feFlood flood-opacity="0" result="BackgroundImageFix"/>
<feColorMatrix in="SourceAlpha" type="matrix" values="0 0 0 0 0 0 0 0 0 0 0 0 0 0 0 0 0 0 127 0" result="hardAlpha"/>
<feOffset dy="4"/>
<feGaussianBlur stdDeviation="2"/>
<feComposite in2="hardAlpha" operator="out"/>
<feColorMatrix type="matrix" values="0 0 0 0 0 0 0 0 0 0 0 0 0 0 0 0 0 0 0.35 0"/>
<feBlend mode="normal" in2="BackgroundImageFix" result="effect1_dropShadow_9070_530698"/>
<feBlend mode="normal" in="SourceGraphic" in2="effect1_dropShadow_9070_530698" result="shape"/>
</filter>
<filter id="filter4_d_9070_530698" x="423" y="317" width="188" height="103" filterUnits="userSpaceOnUse" color-interpolation-filters="sRGB">
<feFlood flood-opacity="0" result="BackgroundImageFix"/>
<feColorMatrix in="SourceAlpha" type="matrix" values="0 0 0 0 0 0 0 0 0 0 0 0 0 0 0 0 0 0 127 0" result="hardAlpha"/>
<feOffset dy="2"/>
<feGaussianBlur stdDeviation="1.5"/>
<feComposite in2="hardAlpha" operator="out"/>
<feColorMatrix type="matrix" values="0 0 0 0 0 0 0 0 0 0 0 0 0 0 0 0 0 0 0.06 0"/>
<feBlend mode="normal" in2="BackgroundImageFix" result="effect1_dropShadow_9070_530698"/>
<feBlend mode="normal" in="SourceGraphic" in2="effect1_dropShadow_9070_530698" result="shape"/>
</filter>
<filter id="filter5_d_9070_530698" x="422" y="318" width="190" height="108" filterUnits="userSpaceOnUse" color-interpolation-filters="sRGB">
<feFlood flood-opacity="0" result="BackgroundImageFix"/>
<feColorMatrix in="SourceAlpha" type="matrix" values="0 0 0 0 0 0 0 0 0 0 0 0 0 0 0 0 0 0 127 0" result="hardAlpha"/>
<feOffset dy="4"/>
<feGaussianBlur stdDeviation="2"/>
<feComposite in2="hardAlpha" operator="out"/>
<feColorMatrix type="matrix" values="0 0 0 0 0 0 0 0 0 0 0 0 0 0 0 0 0 0 0.35 0"/>
<feBlend mode="normal" in2="BackgroundImageFix" result="effect1_dropShadow_9070_530698"/>
<feBlend mode="normal" in="SourceGraphic" in2="effect1_dropShadow_9070_530698" result="shape"/>
</filter>
<filter id="filter6_d_9070_530698" x="637" y="317" width="188" height="103" filterUnits="userSpaceOnUse" color-interpolation-filters="sRGB">
<feFlood flood-opacity="0" result="BackgroundImageFix"/>
<feColorMatrix in="SourceAlpha" type="matrix" values="0 0 0 0 0 0 0 0 0 0 0 0 0 0 0 0 0 0 127 0" result="hardAlpha"/>
<feOffset dy="2"/>
<feGaussianBlur stdDeviation="1.5"/>
<feComposite in2="hardAlpha" operator="out"/>
<feColorMatrix type="matrix" values="0 0 0 0 0 0 0 0 0 0 0 0 0 0 0 0 0 0 0.06 0"/>
<feBlend mode="normal" in2="BackgroundImageFix" result="effect1_dropShadow_9070_530698"/>
<feBlend mode="normal" in="SourceGraphic" in2="effect1_dropShadow_9070_530698" result="shape"/>
</filter>
<filter id="filter7_d_9070_530698" x="636" y="318" width="190" height="108" filterUnits="userSpaceOnUse" color-interpolation-filters="sRGB">
<feFlood flood-opacity="0" result="BackgroundImageFix"/>
<feColorMatrix in="SourceAlpha" type="matrix" values="0 0 0 0 0 0 0 0 0 0 0 0 0 0 0 0 0 0 127 0" result="hardAlpha"/>
<feOffset dy="4"/>
<feGaussianBlur stdDeviation="2"/>
<feComposite in2="hardAlpha" operator="out"/>
<feColorMatrix type="matrix" values="0 0 0 0 0 0 0 0 0 0 0 0 0 0 0 0 0 0 0.35 0"/>
<feBlend mode="normal" in2="BackgroundImageFix" result="effect1_dropShadow_9070_530698"/>
<feBlend mode="normal" in="SourceGraphic" in2="effect1_dropShadow_9070_530698" result="shape"/>
</filter>
<filter id="filter8_d_9070_530698" x="0" y="317" width="188" height="103" filterUnits="userSpaceOnUse" color-interpolation-filters="sRGB">
<feFlood flood-opacity="0" result="BackgroundImageFix"/>
<feColorMatrix in="SourceAlpha" type="matrix" values="0 0 0 0 0 0 0 0 0 0 0 0 0 0 0 0 0 0 127 0" result="hardAlpha"/>
<feOffset dy="2"/>
<feGaussianBlur stdDeviation="1.5"/>
<feComposite in2="hardAlpha" operator="out"/>
<feColorMatrix type="matrix" values="0 0 0 0 0 0 0 0 0 0 0 0 0 0 0 0 0 0 0.06 0"/>
<feBlend mode="normal" in2="BackgroundImageFix" result="effect1_dropShadow_9070_530698"/>
<feBlend mode="normal" in="SourceGraphic" in2="effect1_dropShadow_9070_530698" result="shape"/>
</filter>
<filter id="filter9_d_9070_530698" x="-1" y="318" width="190" height="108" filterUnits="userSpaceOnUse" color-interpolation-filters="sRGB">
<feFlood flood-opacity="0" result="BackgroundImageFix"/>
<feColorMatrix in="SourceAlpha" type="matrix" values="0 0 0 0 0 0 0 0 0 0 0 0 0 0 0 0 0 0 127 0" result="hardAlpha"/>
<feOffset dy="4"/>
<feGaussianBlur stdDeviation="2"/>
<feComposite in2="hardAlpha" operator="out"/>
<feColorMatrix type="matrix" values="0 0 0 0 0 0 0 0 0 0 0 0 0 0 0 0 0 0 0.35 0"/>
<feBlend mode="normal" in2="BackgroundImageFix" result="effect1_dropShadow_9070_530698"/>
<feBlend mode="normal" in="SourceGraphic" in2="effect1_dropShadow_9070_530698" result="shape"/>
</filter>
<filter id="filter10_d_9070_530698" x="482" y="104" width="284" height="146" filterUnits="userSpaceOnUse" color-interpolation-filters="sRGB">
<feFlood flood-opacity="0" result="BackgroundImageFix"/>
<feColorMatrix in="SourceAlpha" type="matrix" values="0 0 0 0 0 0 0 0 0 0 0 0 0 0 0 0 0 0 127 0" result="hardAlpha"/>
<feOffset dy="2"/>
<feGaussianBlur stdDeviation="1.5"/>
<feComposite in2="hardAlpha" operator="out"/>
<feColorMatrix type="matrix" values="0 0 0 0 0 0 0 0 0 0 0 0 0 0 0 0 0 0 0.06 0"/>
<feBlend mode="normal" in2="BackgroundImageFix" result="effect1_dropShadow_9070_530698"/>
<feBlend mode="normal" in="SourceGraphic" in2="effect1_dropShadow_9070_530698" result="shape"/>
</filter>
<filter id="filter11_d_9070_530698" x="481" y="105" width="316.094" height="148" filterUnits="userSpaceOnUse" color-interpolation-filters="sRGB">
<feFlood flood-opacity="0" result="BackgroundImageFix"/>
<feColorMatrix in="SourceAlpha" type="matrix" values="0 0 0 0 0 0 0 0 0 0 0 0 0 0 0 0 0 0 127 0" result="hardAlpha"/>
<feOffset dy="4"/>
<feGaussianBlur stdDeviation="2"/>
<feComposite in2="hardAlpha" operator="out"/>
<feColorMatrix type="matrix" values="0 0 0 0 0 0 0 0 0 0 0 0 0 0 0 0 0 0 0.35 0"/>
<feBlend mode="normal" in2="BackgroundImageFix" result="effect1_dropShadow_9070_530698"/>
<feBlend mode="normal" in="SourceGraphic" in2="effect1_dropShadow_9070_530698" result="shape"/>
</filter>
<clipPath id="clip0_9070_530698">
<rect x="69" y="104.5" width="278" height="140" rx="12" fill="white"/>
</clipPath>
<clipPath id="clip1_9070_530698">
<rect x="215" y="318" width="182" height="97" rx="12" fill="white"/>
</clipPath>
<clipPath id="clip2_9070_530698">
<rect x="426" y="318" width="182" height="97" rx="12" fill="white"/>
</clipPath>
<clipPath id="clip3_9070_530698">
<rect x="640" y="318" width="182" height="97" rx="12" fill="white"/>
</clipPath>
<clipPath id="clip4_9070_530698">
<rect x="3" y="318" width="182" height="97" rx="12" fill="white"/>
</clipPath>
<clipPath id="clip5_9070_530698">
<rect x="485" y="105" width="278" height="140" rx="12" fill="white"/>
</clipPath>
</defs>
</svg>
