<svg width="21" height="5" viewBox="0 0 21 5" fill="none" xmlns="http://www.w3.org/2000/svg">
<path fill-rule="evenodd" clip-rule="evenodd" d="M2.5 5C3.88071 5 5 3.88071 5 2.5C5 1.11929 3.88071 0 2.5 0C1.11929 0 0 1.11929 0 2.5C0 3.88071 1.11929 5 2.5 5ZM10.5 5C11.8807 5 13 3.88071 13 2.5C13 1.11929 11.8807 0 10.5 0C9.11929 0 8 1.11929 8 2.5C8 3.88071 9.11929 5 10.5 5ZM21 2.5C21 3.88071 19.8807 5 18.5 5C17.1193 5 16 3.88071 16 2.5C16 1.11929 17.1193 0 18.5 0C19.8807 0 21 1.11929 21 2.5Z" fill="#A8ADB4"/>
</svg>
