<svg xmlns="http://www.w3.org/2000/svg" width="108" height="345" viewBox="0 0 108 345" xmlns:xlink="http://www.w3.org/1999/xlink">
  <defs>
    <rect id="a" width="80" height="80"/>
    <circle id="c" cx="40" cy="40" r="37"/>
  </defs>
  <g fill="none" fill-rule="evenodd">
    <g opacity=".839">
      <circle cx="37" cy="37" r="37" fill="#000000" transform="translate(3 3)"/>
      <circle cx="37" cy="37" r="37" fill="#4394E8" transform="translate(3 3)"/>
      <mask id="b" fill="white">
        <use xlink:href="#a"/>
      </mask>
      <circle cx="37" cy="37" r="37" stroke="#FFFFFF" stroke-opacity=".791" stroke-width="6" transform="translate(3 3)" mask="url(#b)"/>
    </g>
    <g transform="translate(8 8)">
      <circle cx="32" cy="32" r="32" fill="#29619B" opacity=".879"/>
      <g fill="#FFFFFF" transform="translate(18 20)">
        <path d="M20.0560302,15.7884462 C21.7472752,15.7884462 23.1229262,14.3802789 23.1229262,12.649502 L23.1229262,3.14671315 C23.1229262,1.41583665 21.7472752,0.00747011952 20.0560302,0.00747011952 L3.0664094,0.00747011952 C1.37555369,0.00747011952 0,1.41583665 0,3.14671315 L0,12.649502 C0,14.3802789 1.37555369,15.7884462 3.0664094,15.7884462 L5.2981443,15.7884462 L5.2981443,19.0741036 C5.2981443,19.4737052 5.53325839,19.8337649 5.89381208,19.9866534 C6.01331544,20.0371514 6.13865772,20.0616534 6.26283221,20.0616534 C6.51390604,20.0616534 6.7607953,19.9613546 6.94540268,19.7724104 L10.8371443,15.7884462 L20.0560302,15.7884462 L20.0560302,15.7884462 L20.0560302,15.7884462 Z"/>
        <path d="M26.2182383,8.22539841 L24.6666409,8.22539841 L24.6666409,12.649502 C24.6666409,15.2515936 22.598396,17.3684263 20.0560302,17.3684263 L11.476604,17.3684263 L9.67266779,19.215239 C9.89007047,20.5087649 10.9929463,21.4963147 12.3177987,21.4963147 L19.7879262,21.4963147 L22.9206074,24.7030876 C23.1051174,24.8920319 23.352104,24.9924303 23.6031779,24.9924303 C23.7273523,24.9924303 23.8526946,24.9676295 23.972198,24.9171315 C24.3327517,24.764243 24.5677685,24.4042829 24.5677685,24.0047809 L24.5677685,21.4962151 L26.2183356,21.4962151 C27.6986007,21.4962151 28.9027819,20.2633466 28.9027819,18.7481076 L28.9027819,10.9731076 C28.9026846,9.45806773 27.6985034,8.22539841 26.2182383,8.22539841 L26.2182383,8.22539841 L26.2182383,8.22539841 Z"/>
      </g>
    </g>
    <g transform="translate(0 80)">
      <ellipse cx="22.015" cy="21.843" fill="#3B5998" rx="22.015" ry="21.843"/>
      <path fill="#FFFFFF" d="M27.548998,22.6985487 L23.6207709,22.6985487 L23.6207709,36.9779115 L17.6691733,36.9779115 L17.6691733,22.6985487 L14.8385737,22.6985487 L14.8385737,17.6802124 L17.6691733,17.6802124 L17.6691733,14.4327788 C17.6691733,12.1105133 18.7809283,8.4740885 23.673749,8.4740885 L28.0823108,8.49238938 L28.0823108,13.3635398 L24.8836116,13.3635398 C24.3589323,13.3635398 23.6211633,13.623646 23.6211633,14.7314336 L23.6211633,17.684885 L28.0689681,17.684885 L27.548998,22.6985487 L27.548998,22.6985487 L27.548998,22.6985487 Z"/>
    </g>
    <g transform="translate(45 80)">
      <path fill="#4D76A1" d="M22.0145538,43.686938 C34.1728561,43.686938 44.0291076,33.9072838 44.0291076,21.843469 C44.0291076,9.77965419 34.1728561,0 22.0145538,0 C9.85625146,0 0,9.77965419 0,21.843469 C0,33.9072838 9.85625146,43.686938 22.0145538,43.686938 Z"/>
      <path fill="#FFFFFF" d="M21.182994,31.4237876 L22.9108645,31.4237876 C22.9108645,31.4237876 23.4327968,31.3669381 23.699257,31.0819115 C23.9445259,30.8202478 23.9366773,30.3288496 23.9366773,30.3288496 C23.9366773,30.3288496 23.9029283,28.0283894 24.9789721,27.6896283 C26.0397112,27.3559292 27.4018367,29.9129912 28.8455876,30.896177 C29.9373287,31.6402832 30.7669263,31.4771327 30.7669263,31.4771327 L34.6272629,31.4237876 C34.6272629,31.4237876 36.6467092,31.300354 35.6891793,29.7249204 C35.6106932,29.5960354 35.1315359,28.5595044 32.8189442,26.4295929 C30.3984343,24.2003894 30.7225817,24.5609558 33.6383386,20.7049204 C35.4140857,18.3565664 36.123992,16.9228673 35.9022689,16.3088142 C35.690749,15.7239646 34.384741,15.8785487 34.384741,15.8785487 L30.0381833,15.9054159 C30.0381833,15.9054159 29.715998,15.8618053 29.477008,16.0035398 C29.243512,16.1425487 29.0932112,16.4665133 29.0932112,16.4665133 C29.0932112,16.4665133 28.4052809,18.2837522 27.4877789,19.8292035 C25.5523127,23.0902655 24.7784402,23.2623717 24.4621414,23.0598938 C23.7263347,22.5879646 23.909992,21.164 23.909992,20.1523894 C23.909992,16.992177 24.3930737,15.6745133 22.9693367,15.3334159 C22.4968506,15.2201062 22.1491574,15.1453451 20.9408645,15.1332743 C19.3899801,15.1173097 18.0773008,15.1379469 17.3340378,15.499292 C16.8395757,15.7395398 16.4581335,16.2749381 16.6904522,16.3056991 C16.9777112,16.3438584 17.6283606,16.4797522 17.9733068,16.9458407 C18.4187151,17.5470442 18.4030179,18.8974159 18.4030179,18.8974159 C18.4030179,18.8974159 18.6588825,22.6175575 17.8053466,23.0797522 C17.2194482,23.396708 16.415751,22.7495575 14.6902351,19.7910442 C13.8060896,18.2755752 13.1385657,16.6004602 13.1385657,16.6004602 C13.1385657,16.6004602 13.0098486,16.2873982 12.7802769,16.1199646 C12.5016514,15.9170973 12.1123606,15.8524602 12.1123606,15.8524602 L7.98203187,15.8793274 C7.98203187,15.8793274 7.36199203,15.8964602 7.13438247,16.1639646 C6.93188845,16.4018761 7.11829283,16.8940531 7.11829283,16.8940531 C7.11829283,16.8940531 10.3519183,24.400531 14.0132928,28.1833628 C17.3705339,31.6515752 21.182994,31.4237876 21.182994,31.4237876 L21.182994,31.4237876 L21.182994,31.4237876 L21.182994,31.4237876 Z"/>
    </g>
    <g transform="translate(0 124)">
      <ellipse cx="22.015" cy="21.843" fill="#1F90C8" rx="22.015" ry="21.843"/>
      <path fill="#FFFFFF" d="M0.43669249,10.2702459 L6.13339094,12.3791427 L8.33836249,19.4126407 C8.47944902,19.8631109 9.03481243,20.0296156 9.40343396,19.7306918 L12.5788699,17.163069 C12.9117253,16.894062 13.3858321,16.8806566 13.7336863,17.1311086 L19.4610414,21.2554732 C19.8553749,21.5397656 20.4140347,21.3254428 20.5129272,20.852821 L24.7085209,0.835384719 C24.8164785,0.319113693 24.3050398,-0.111575356 23.8094239,0.0785523205 L0.430017251,9.02428021 C-0.146937669,9.24497872 -0.141910637,10.0551875 0.43669249,10.2702459 L0.43669249,10.2702459 L0.43669249,10.2702459 Z M7.98300902,11.256523 L19.1164836,4.4551672 C19.316576,4.33329258 19.5224371,4.60164561 19.3506115,4.75973114 L10.1622685,13.2312842 C9.83930235,13.5294724 9.63096896,13.928528 9.57196315,14.3616693 L9.25896861,16.6623286 C9.2175162,16.9695082 8.78247191,16.9999973 8.69701237,16.7027082 L7.49324426,12.5073931 C7.35537173,12.028886 7.55628819,11.5177646 7.98300902,11.256523 L7.98300902,11.256523 L7.98300902,11.256523 Z" transform="translate(8.241 11.681)"/>
    </g>
    <g transform="translate(45 124)">
      <ellipse cx="22.015" cy="21.843" fill="#15ACE5" rx="22.015" ry="21.843"/>
      <path fill="#FFFFFF" d="M22.5167935,13.345435 C22.6044757,12.794972 22.6506387,12.2318247 22.6506387,11.6570232 C22.6506387,5.68269716 17.7698258,0.839923619 11.7485431,0.839923619 C11.1707692,0.839923619 10.6015723,0.887137137 10.0472895,0.973162228 C9.04323255,0.356730386 7.85818415,0 6.58818508,0 C2.9498374,0 0.000273153326,2.92626245 0.000273153326,6.53671437 C0.000273153326,7.7965727 0.360016084,8.97143585 0.981002856,9.9696955 C0.89506882,10.52108 0.847758664,11.0824385 0.847758664,11.65724 C0.847758664,17.6319997 5.7284623,22.4733097 11.7483246,22.4733097 C12.3265902,22.4733097 12.895951,22.4290775 13.4501791,22.3422935 C14.455274,22.9575328 15.6393391,23.3152389 16.909065,23.3152389 C20.548396,23.3152389 23.4976325,20.3882176 23.4976325,16.7778741 C23.4979056,15.5175279 23.1383812,14.3429358 22.5167935,13.345435 L22.5167935,13.345435 L22.5167935,13.345435 Z M16.9246347,16.5767694 C16.4634427,17.2355362 15.7859678,17.7503316 14.9007325,18.1205051 C14.0136944,18.4916543 12.9652773,18.6763345 11.7545525,18.6763345 C10.3034527,18.6763345 9.10201514,18.4243845 8.15368142,17.915606 C7.48145109,17.5512868 6.93470739,17.0625645 6.51437905,16.4531253 C6.09317662,15.8431982 5.87962535,15.2459011 5.87962535,14.6635107 C5.87962535,14.3199524 6.01166767,14.0211683 6.26870495,13.7775661 C6.52841913,13.532175 6.86292269,13.4091814 7.25773851,13.4091814 C7.58115205,13.4091814 7.85894898,13.5058309 8.08511994,13.697341 C8.30959734,13.888797 8.49790924,14.1671454 8.65191309,14.5344459 C8.83651011,14.9599639 9.03700465,15.3156643 9.2503374,15.5994875 C9.46235901,15.8797873 9.7607517,16.113795 10.147209,16.2969575 C10.5294052,16.4806078 11.0380713,16.5724329 11.6745732,16.5724329 C12.5456591,16.5724329 13.2496299,16.385476 13.7883975,16.0166577 C14.3298967,15.6444786 14.5899933,15.1916408 14.5899933,14.6444843 C14.5899933,14.208071 14.4497563,13.8614771 14.1621805,13.5912597 C13.8719824,13.3175188 13.4972161,13.1090422 13.0321452,12.9636072 C12.5652715,12.8166544 11.9384393,12.6608119 11.1529049,12.4966216 C10.0980961,12.268197 9.21592008,12.0023161 8.50151487,11.6969731 C7.78618094,11.3904918 7.21649236,10.9715328 6.79425195,10.4423185 C6.37113745,9.90790054 6.16015382,9.24365891 6.16015382,8.45691148 C6.16015382,7.70669897 6.38288304,7.03578999 6.82877853,6.45188181 C7.2744555,5.86634745 7.91926124,5.41817137 8.76002718,5.1059984 C9.59784306,4.79393384 10.5841997,4.63782026 11.7141804,4.63782026 C12.6178262,4.63782026 13.3994818,4.74157075 14.0611138,4.9479876 C14.720943,5.15592222 15.2709645,5.43031353 15.7107414,5.77463072 C16.147732,6.11818902 16.4692881,6.48055684 16.6729513,6.86081268 C16.8764505,7.24220685 16.9789376,7.61471121 16.9789376,7.97821736 C16.9789376,8.31619243 16.8468953,8.62272796 16.5895849,8.89137343 C16.3323291,9.16039833 16.0032339,9.29753978 15.6189072,9.29629304 C15.2724395,9.29629304 15.000652,9.21698951 14.8121762,9.0491132 C14.6286171,8.8867117 14.4358255,8.62814857 14.2273003,8.26778638 C13.9637073,7.76497054 13.6479967,7.373223 13.2808786,7.09303164 C12.9234302,6.81804406 12.3336921,6.67488574 11.5130849,6.67662033 C10.7538279,6.67662033 10.1463349,6.83056567 9.68781977,7.13162639 C9.2264638,7.43751145 9.0059198,7.79239883 9.00488182,8.20821387 C9.00564665,8.46878262 9.08114623,8.68847997 9.23307411,8.87635834 C9.38735111,9.0659713 9.60199499,9.23027 9.87787985,9.36876661 C10.153874,9.50943145 10.434621,9.61822311 10.7167337,9.69649673 C11.0021789,9.77677597 11.4757722,9.89283124 12.1340717,10.0465056 C12.9596503,10.2230548 13.7084728,10.4203109 14.3813587,10.6352923 C15.0529335,10.8513578 15.6260638,11.1119266 16.0995478,11.4223649 C16.5768013,11.7318818 16.9498195,12.1265023 17.2160893,12.6031366 C17.4842713,13.0805297 17.6178432,13.6636248 17.6178432,14.3497657 C17.6188812,15.1759752 17.3869194,15.9190325 16.9246347,16.5767694 L16.9246347,16.5767694 L16.9246347,16.5767694 Z" transform="translate(10.203 10.513)"/>
    </g>
    <g fill="#80868E" transform="translate(66 171)">
      <rect width="19" height="2" y="15"/>
      <path d="M0,0 L19,0 L19,2 L0,2 L0,0 L0,0 Z M0,6 L19,6 L19,8 L0,8 L0,6 L0,6 Z M0,12 L19,12 L19,14 L0,14 L0,12 L0,12 Z" transform="translate(23)"/>
    </g>
    <polygon fill="#80868E" points="7.425 6.01 1.414 0 0 1.414 6.01 7.425 0 13.435 1.414 14.849 7.425 8.839 13.435 14.849 14.849 13.435 8.839 7.425 14.849 1.414 13.435 0" transform="translate(46 170)"/>
    <polygon fill="#AEB3B3" points="3.723 3.835 1.144 1.256 0 2.4 3.422 5.822 3.451 5.793 3.752 6.094 8.701 1.144 7.558 0" transform="translate(36 178)"/>
    <g fill="#FFFFFF" transform="translate(1 205)">
      <path d="M25.289968,13.2511887 L25.289968,2.8395404 C25.289968,1.4623799 23.904379,0 22.495172,0 L4.794796,0 C3.385491,0 2,1.4623799 2,2.8395404 L2,13.2511887 C2,14.9240314 3.385491,16.3862044 4.794796,16.0907292 L7.589592,16.0907292 L7.589592,19.8767831 L7.589592,21.7698101 L8.521191,21.7698101 C8.560963,21.7698101 8.809636,20.7191512 9.45279,20.8232966 L13.179185,16.0907292 L22.495172,16.0907292 C23.904379,16.3862044 25.289968,14.9240314 25.289968,13.2511887 L25.289968,13.2511887 Z M28.084764,9.4651348 L28.084764,14.1977022 C28.43316,16.6045614 26.329051,18.7555081 23.426771,18.9302696 L15.042382,18.9302696 L13.179185,20.8232966 C13.400357,21.9464552 14.522357,22.94992 15.973981,22.7163236 L23.426771,22.7163236 L26.221567,26.5023775 C26.844559,26.4003611 27.153166,27.448891 27.153166,27.448891 L28.084764,27.448891 L28.084764,25.555864 L28.084764,22.7163236 L29.947962,22.7163236 C31.517696,22.9498187 32.742758,21.6970818 32.742758,19.8767831 L32.742758,12.3046753 C32.742659,10.7176694 31.517597,9.4651348 29.947962,9.4651348 L28.084764,9.4651348 L28.084764,9.4651348 Z"/>
      <path d="M22.406703,-7.10542736e-15 L1.305503,-7.10542736e-15 C0.586144,-7.10542736e-15 0,0.5861444 0,1.3055035 L0,22.4067026 C0,23.1260616 0.586144,23.712206 1.305503,23.712206 L22.406703,23.712206 C23.126062,23.712206 23.712206,23.1260616 23.712206,22.4067026 L23.712206,1.2966225 C23.703325,0.5861444 23.117181,-7.10542736e-15 22.406703,-7.10542736e-15 L22.406703,-7.10542736e-15 L22.406703,-7.10542736e-15 Z M13.312583,18.0461433 C13.312583,18.4546682 12.975106,18.7832643 12.575462,18.7832643 L3.898748,18.7832643 C3.490224,18.7832643 3.161627,18.4457873 3.161627,18.0461433 L3.161627,16.4120437 C3.161627,16.0035188 3.499105,15.6749227 3.898748,15.6749227 L12.575462,15.6749227 C12.983987,15.6749227 13.312583,16.0123998 13.312583,16.4120437 L13.312583,18.0461433 L13.312583,18.0461433 L13.312583,18.0461433 Z M20.55946,12.2557469 C20.55946,12.6642718 20.221982,12.992868 19.822339,12.992868 L3.889868,12.992868 C3.481343,12.992868 3.152746,12.6553909 3.152746,12.2557469 L3.152746,10.6216474 C3.152746,10.2131225 3.490224,9.8845263 3.889868,9.8845263 L19.813458,9.8845263 C20.221982,9.8845263 20.550579,10.2220034 20.550579,10.6216474 L20.550579,12.2557469 L20.55946,12.2557469 L20.55946,12.2557469 Z M20.55946,6.4564696 C20.55946,6.8649945 20.221982,7.1935906 19.822339,7.1935906 L3.889868,7.1935906 C3.481343,7.1935906 3.152746,6.8561135 3.152746,6.4564696 L3.152746,4.82237 C3.152746,4.4138451 3.490224,4.085249 3.889868,4.085249 L19.813458,4.085249 C20.221982,4.085249 20.550579,4.4227261 20.550579,4.82237 L20.550579,6.4564696 L20.55946,6.4564696 L20.55946,6.4564696 Z" transform="translate(5 45)"/>
      <path d="M21.8724142,19.904882 C20.9247158,18.9372148 19.7416017,18.9372148 18.7999395,19.904882 C18.0816203,20.6415576 17.5443899,20.8787921 16.8381433,21.6279538 C16.6449818,21.8339733 16.4820018,21.8776744 16.2465862,21.7403281 C15.7817914,21.4781215 15.2868151,21.265859 14.8401292,20.9786804 C12.757607,19.6239463 11.0131175,17.8821454 9.46782558,15.921839 C8.70121598,14.9479288 8.01911458,13.9053454 7.54224718,12.7316588 C7.44566638,12.4944243 7.46377528,12.3383489 7.65090048,12.1448155 C8.36921968,11.4268689 8.61067158,11.1646623 9.31691818,10.4279866 C10.3008345,9.40413232 10.3008345,8.20547362 9.31088188,7.17537632 C8.74950638,6.58853302 8.20672258,5.77769032 7.74911098,5.14109012 C7.29155978,4.50449002 6.93258128,3.74796162 6.34706048,3.15487522 C5.39936198,2.19969412 4.21624798,2.19969412 3.27458578,3.16111822 C2.55023018,3.89779392 1.85605618,4.65319862 1.11962808,5.37738822 C0.437526576,6.04539072 0.0934576762,6.86322562 0.0210221762,7.81840672 C-0.0936675238,9.37291722 0.274546576,10.8400255 0.793668076,12.2696758 C1.85605618,15.2288644 3.47378358,17.8571733 5.43557978,20.2669768 C8.08551378,23.5258301 11.248533,26.1041949 14.9487826,27.9646131 C16.6148003,28.801177 18.341181,29.4442074 20.2184691,29.5503387 C21.5102365,29.6252549 22.6329876,29.2881321 23.5323957,28.2455487 C24.1480979,27.5338451 24.842272,26.8845717 25.4941919,26.2040831 C26.4599993,25.1927149 26.4660356,23.9690841 25.5062645,22.9702019 C24.3593683,21.7777862 23.0253468,21.0910546 21.8724142,19.904882 L21.8724142,19.904882 Z M21.3823575,14.5447799 L21.649524,14.4975827 C22.2325699,14.3946354 22.6031984,13.7908111 22.439977,13.202844 C21.9748804,11.5274064 21.1078872,10.0101042 19.9025595,8.75844232 C18.6153797,7.42718202 17.0456409,6.50421482 15.3140087,6.05022282 C14.7392929,5.89951652 14.1651204,6.29800812 14.0827853,6.90520362 L14.0448774,7.18514032 C13.9740716,7.70743092 14.2978586,8.19482302 14.7915069,8.32705012 C16.1176208,8.68227762 17.3214393,9.39142152 18.3089774,10.4128411 C19.2357903,11.3713934 19.9009297,12.5381503 20.2615984,13.8247107 C20.4016405,14.3244639 20.8864758,14.6323694 21.3823575,14.5447799 L21.3823575,14.5447799 Z M23.9408537,4.69422772 C21.6189321,2.29278992 18.7408864,0.690520319 15.5599394,0.0206449193 C15.0001937,-0.0972231807 14.4611524,0.302641919 14.3818355,0.887799619 L14.3439879,1.16711202 C14.2710695,1.70538472 14.6156816,2.20807222 15.1303966,2.31776192 C17.8685813,2.90154622 20.3476277,4.28612192 22.3472716,6.34862642 C24.2318636,8.29775782 25.5367297,10.7064999 26.1495949,13.3603428 C26.2718902,13.8898128 26.7669872,14.2325543 27.2858069,14.1409693 L27.5507399,14.0942091 C28.1197816,13.9936966 28.4841928,13.4157808 28.3501266,12.8350556 C27.638568,9.75362872 26.1267777,6.96056662 23.9408537,4.69422772 L23.9408537,4.69422772 Z" transform="translate(0 88)"/>
    </g>
    <polygon fill="#80868E" points="3.964 7.5 16 7.5 16 5.5 3.964 5.5 7.914 1.55 6.5 .136 .843 5.793 .136 6.5 6.5 12.864 7.914 11.45" transform="translate(18 171)"/>
    <g transform="translate(0 193)">
      <circle cx="25" cy="25" r="25" fill="#535C69"/>
      <path fill="#FFFFFF" d="M38.3039326,39.9224719 C38.3039326,38.1151685 36.2758427,30.4696629 36.2758427,30.4696629 C36.2758427,29.3522472 34.8151685,28.0758427 31.938764,27.3320225 C30.9642484,27.0602083 30.0378544,26.6387066 29.1926966,26.0825843 C29.0078652,25.9769663 29.0359551,25.0011236 29.0359551,25.0011236 L28.1095506,24.8601124 C28.1095506,24.7808989 28.0303371,23.6106742 28.0303371,23.6106742 C29.138764,23.2382022 29.0247191,21.0410112 29.0247191,21.0410112 C29.7286517,21.4314607 30.1870787,19.6926966 30.1870787,19.6926966 C31.0196629,17.2769663 29.7724719,17.4230337 29.7724719,17.4230337 C29.990663,15.9482889 29.990663,14.4494639 29.7724719,12.9747191 C29.2179775,8.08258427 20.8696629,9.41067416 21.8595506,11.008427 C19.4196629,10.5589888 19.9764045,16.1106742 19.9764045,16.1106742 L20.505618,17.5483146 C19.4662921,18.2224719 20.188764,19.0376404 20.2247191,19.9758427 C20.2758427,21.361236 21.1235955,21.0741573 21.1235955,21.0741573 C21.1758427,23.3606742 22.3033708,23.658427 22.3033708,23.658427 C22.5151685,25.094382 22.3831461,24.85 22.3831461,24.85 L21.3797753,24.9713483 C21.393358,25.2978998 21.3667541,25.6248829 21.3005618,25.9449438 C20.1207865,26.4707865 19.8668539,26.7792135 18.694382,27.2932584 C16.4292135,28.2859551 13.9674157,29.5769663 13.5297753,31.3151685 C13.0921348,33.0533708 11.7910112,39.9224719 11.7910112,39.9224719 L38.302809,39.9224719 L38.302809,39.9224719 L38.302809,39.9224719 L38.3039326,39.9224719 L38.3039326,39.9224719 Z"/>
    </g>
  </g>
</svg>
