<svg xmlns="http://www.w3.org/2000/svg" width="108" height="323" viewBox="0 0 108 323" xmlns:xlink="http://www.w3.org/1999/xlink">
  <defs>
    <rect id="a" width="80" height="80"/>
  </defs>
  <g fill="none" fill-rule="evenodd">
    <g opacity=".839">
      <circle cx="40" cy="40" r="37" fill="#000000"/>
      <circle cx="40" cy="40" r="37" fill="#4394E8"/>
      <mask id="b" fill="white">
        <use xlink:href="#a"/>
      </mask>
      <circle cx="40" cy="40" r="37" stroke="#FFFFFF" stroke-opacity=".791" stroke-width="6" mask="url(#b)"/>
    </g>
    <g transform="translate(8 8)">
      <circle cx="32" cy="32" r="32" fill="#29619B" opacity=".879"/>
      <g fill="#FFFFFF" transform="translate(18 20)">
        <path d="M20.0560302,15.7884462 C21.7472752,15.7884462 23.1229262,14.3802789 23.1229262,12.649502 L23.1229262,3.14671315 C23.1229262,1.41583665 21.7472752,0.00747011952 20.0560302,0.00747011952 L3.0664094,0.00747011952 C1.37555369,0.00747011952 0,1.41583665 0,3.14671315 L0,12.649502 C0,14.3802789 1.37555369,15.7884462 3.0664094,15.7884462 L5.2981443,15.7884462 L5.2981443,19.0741036 C5.2981443,19.4737052 5.53325839,19.8337649 5.89381208,19.9866534 C6.01331544,20.0371514 6.13865772,20.0616534 6.26283221,20.0616534 C6.51390604,20.0616534 6.7607953,19.9613546 6.94540268,19.7724104 L10.8371443,15.7884462 L20.0560302,15.7884462 L20.0560302,15.7884462 L20.0560302,15.7884462 L20.0560302,15.7884462 Z"/>
        <path d="M26.2182383,8.22539841 L24.6666409,8.22539841 L24.6666409,12.649502 C24.6666409,15.2515936 22.598396,17.3684263 20.0560302,17.3684263 L11.476604,17.3684263 L9.67266779,19.215239 C9.89007047,20.5087649 10.9929463,21.4963147 12.3177987,21.4963147 L19.7879262,21.4963147 L22.9206074,24.7030876 C23.1051174,24.8920319 23.352104,24.9924303 23.6031779,24.9924303 C23.7273523,24.9924303 23.8526946,24.9676295 23.972198,24.9171315 C24.3327517,24.764243 24.5677685,24.4042829 24.5677685,24.0047809 L24.5677685,21.4962151 L26.2183356,21.4962151 C27.6986007,21.4962151 28.9027819,20.2633466 28.9027819,18.7481076 L28.9027819,10.9731076 C28.9026846,9.45806773 27.6985034,8.22539841 26.2182383,8.22539841 L26.2182383,8.22539841 L26.2182383,8.22539841 L26.2182383,8.22539841 Z"/>
      </g>
    </g>
    <g transform="translate(0 80)">
      <ellipse cx="22.015" cy="21.843" fill="#3B5998" rx="22.015" ry="21.843"/>
      <path fill="#FFFFFF" d="M27.548998,22.6985487 L23.6207709,22.6985487 L23.6207709,36.9779115 L17.6691733,36.9779115 L17.6691733,22.6985487 L14.8385737,22.6985487 L14.8385737,17.6802124 L17.6691733,17.6802124 L17.6691733,14.4327788 C17.6691733,12.1105133 18.7809283,8.4740885 23.673749,8.4740885 L28.0823108,8.49238938 L28.0823108,13.3635398 L24.8836116,13.3635398 C24.3589323,13.3635398 23.6211633,13.623646 23.6211633,14.7314336 L23.6211633,17.684885 L28.0689681,17.684885 L27.548998,22.6985487 L27.548998,22.6985487 L27.548998,22.6985487 L27.548998,22.6985487 Z"/>
    </g>
    <g transform="translate(45 80)">
      <path fill="#4D76A1" d="M22.0145538,43.686938 C34.1728561,43.686938 44.0291076,33.9072838 44.0291076,21.843469 C44.0291076,9.77965419 34.1728561,0 22.0145538,0 C9.85625146,0 0,9.77965419 0,21.843469 C0,33.9072838 9.85625146,43.686938 22.0145538,43.686938 L22.0145538,43.686938 Z"/>
      <path fill="#FFFFFF" d="M21.182994,31.4237876 L22.9108645,31.4237876 C22.9108645,31.4237876 23.4327968,31.3669381 23.699257,31.0819115 C23.9445259,30.8202478 23.9366773,30.3288496 23.9366773,30.3288496 C23.9366773,30.3288496 23.9029283,28.0283894 24.9789721,27.6896283 C26.0397112,27.3559292 27.4018367,29.9129912 28.8455876,30.896177 C29.9373287,31.6402832 30.7669263,31.4771327 30.7669263,31.4771327 L34.6272629,31.4237876 C34.6272629,31.4237876 36.6467092,31.300354 35.6891793,29.7249204 C35.6106932,29.5960354 35.1315359,28.5595044 32.8189442,26.4295929 C30.3984343,24.2003894 30.7225817,24.5609558 33.6383386,20.7049204 C35.4140857,18.3565664 36.123992,16.9228673 35.9022689,16.3088142 C35.690749,15.7239646 34.384741,15.8785487 34.384741,15.8785487 L30.0381833,15.9054159 C30.0381833,15.9054159 29.715998,15.8618053 29.477008,16.0035398 C29.243512,16.1425487 29.0932112,16.4665133 29.0932112,16.4665133 C29.0932112,16.4665133 28.4052809,18.2837522 27.4877789,19.8292035 C25.5523127,23.0902655 24.7784402,23.2623717 24.4621414,23.0598938 C23.7263347,22.5879646 23.909992,21.164 23.909992,20.1523894 C23.909992,16.992177 24.3930737,15.6745133 22.9693367,15.3334159 C22.4968506,15.2201062 22.1491574,15.1453451 20.9408645,15.1332743 C19.3899801,15.1173097 18.0773008,15.1379469 17.3340378,15.499292 C16.8395757,15.7395398 16.4581335,16.2749381 16.6904522,16.3056991 C16.9777112,16.3438584 17.6283606,16.4797522 17.9733068,16.9458407 C18.4187151,17.5470442 18.4030179,18.8974159 18.4030179,18.8974159 C18.4030179,18.8974159 18.6588825,22.6175575 17.8053466,23.0797522 C17.2194482,23.396708 16.415751,22.7495575 14.6902351,19.7910442 C13.8060896,18.2755752 13.1385657,16.6004602 13.1385657,16.6004602 C13.1385657,16.6004602 13.0098486,16.2873982 12.7802769,16.1199646 C12.5016514,15.9170973 12.1123606,15.8524602 12.1123606,15.8524602 L7.98203187,15.8793274 C7.98203187,15.8793274 7.36199203,15.8964602 7.13438247,16.1639646 C6.93188845,16.4018761 7.11829283,16.8940531 7.11829283,16.8940531 C7.11829283,16.8940531 10.3519183,24.400531 14.0132928,28.1833628 C17.3705339,31.6515752 21.182994,31.4237876 21.182994,31.4237876 L21.182994,31.4237876 L21.182994,31.4237876 L21.182994,31.4237876 L21.182994,31.4237876 Z"/>
    </g>
    <g transform="translate(0 124)">
      <ellipse cx="22.015" cy="21.843" fill="#1F90C8" rx="22.015" ry="21.843"/>
      <path fill="#FFFFFF" d="M8.67769249,21.9512459 L14.3743909,24.0601427 L16.5793625,31.0936407 C16.720449,31.5441109 17.2758124,31.7106156 17.644434,31.4116918 L20.8198699,28.844069 C21.1527253,28.575062 21.6268321,28.5616566 21.9746863,28.8121086 L27.7020414,32.9364732 C28.0963749,33.2207656 28.6550347,33.0064428 28.7539272,32.533821 L32.9495209,12.5163847 C33.0574785,12.0001137 32.5460398,11.5694246 32.0504239,11.7595523 L8.67101725,20.7052802 C8.09406233,20.9259787 8.09908936,21.7361875 8.67769249,21.9512459 L8.67769249,21.9512459 L8.67769249,21.9512459 L8.67769249,21.9512459 Z M16.224009,22.937523 L27.3574836,16.1361672 C27.557576,16.0142926 27.7634371,16.2826456 27.5916115,16.4407311 L18.4032685,24.9122842 C18.0803024,25.2104724 17.871969,25.609528 17.8129631,26.0426693 L17.4999686,28.3433286 C17.4585162,28.6505082 17.0234719,28.6809973 16.9380124,28.3837082 L15.7342443,24.1883931 C15.5963717,23.709886 15.7972882,23.1987646 16.224009,22.937523 L16.224009,22.937523 L16.224009,22.937523 L16.224009,22.937523 Z"/>
    </g>
    <g transform="translate(45 124)">
      <ellipse cx="22.015" cy="21.843" fill="#15ACE5" rx="22.015" ry="21.843"/>
      <path fill="#FFFFFF" d="M32.7197935,23.858435 C32.8074757,23.307972 32.8536387,22.7448247 32.8536387,22.1700232 C32.8536387,16.1956972 27.9728258,11.3529236 21.9515431,11.3529236 C21.3737692,11.3529236 20.8045723,11.4001371 20.2502895,11.4861622 C19.2462325,10.8697304 18.0611841,10.513 16.7911851,10.513 C13.1528374,10.513 10.2032732,13.4392625 10.2032732,17.0497144 C10.2032732,18.3095727 10.5630161,19.4844359 11.1840029,20.4826955 C11.0980688,21.03408 11.0507587,21.5954385 11.0507587,22.17024 C11.0507587,28.1449997 15.9314623,32.9863097 21.9513246,32.9863097 C22.5295902,32.9863097 23.098951,32.9420775 23.6531791,32.8552935 C24.658274,33.4705328 25.8423391,33.8282389 27.112065,33.8282389 C30.751396,33.8282389 33.7006325,30.9012176 33.7006325,27.2908741 C33.7009056,26.0305279 33.3413812,24.8559358 32.7197935,23.858435 L32.7197935,23.858435 L32.7197935,23.858435 L32.7197935,23.858435 Z M27.1276347,27.0897694 C26.6664427,27.7485362 25.9889678,28.2633316 25.1037325,28.6335051 C24.2166944,29.0046543 23.1682773,29.1893345 21.9575525,29.1893345 C20.5064527,29.1893345 19.3050151,28.9373845 18.3566814,28.428606 C17.6844511,28.0642868 17.1377074,27.5755645 16.717379,26.9661253 C16.2961766,26.3561982 16.0826253,25.7589011 16.0826253,25.1765107 C16.0826253,24.8329524 16.2146677,24.5341683 16.4717049,24.2905661 C16.7314191,24.045175 17.0659227,23.9221814 17.4607385,23.9221814 C17.784152,23.9221814 18.061949,24.0188309 18.2881199,24.210341 C18.5125973,24.401797 18.7009092,24.6801454 18.8549131,25.0474459 C19.0395101,25.4729639 19.2400046,25.8286643 19.4533374,26.1124875 C19.665359,26.3927873 19.9637517,26.626795 20.350209,26.8099575 C20.7324052,26.9936078 21.2410713,27.0854329 21.8775732,27.0854329 C22.7486591,27.0854329 23.4526299,26.898476 23.9913975,26.5296577 C24.5328967,26.1574786 24.7929933,25.7046408 24.7929933,25.1574843 C24.7929933,24.721071 24.6527563,24.3744771 24.3651805,24.1042597 C24.0749824,23.8305188 23.7002161,23.6220422 23.2351452,23.4766072 C22.7682715,23.3296544 22.1414393,23.1738119 21.3559049,23.0096216 C20.3010961,22.781197 19.4189201,22.5153161 18.7045149,22.2099731 C17.9891809,21.9034918 17.4194924,21.4845328 16.9972519,20.9553185 C16.5741374,20.4209005 16.3631538,19.7566589 16.3631538,18.9699115 C16.3631538,18.219699 16.585883,17.54879 17.0317785,16.9648818 C17.4774555,16.3793475 18.1222612,15.9311714 18.9630272,15.6189984 C19.8008431,15.3069338 20.7871997,15.1508203 21.9171804,15.1508203 C22.8208262,15.1508203 23.6024818,15.2545708 24.2641138,15.4609876 C24.923943,15.6689222 25.4739645,15.9433135 25.9137414,16.2876307 C26.350732,16.631189 26.6722881,16.9935568 26.8759513,17.3738127 C27.0794505,17.7552069 27.1819376,18.1277112 27.1819376,18.4912174 C27.1819376,18.8291924 27.0498953,19.135728 26.7925849,19.4043734 C26.5353291,19.6733983 26.2062339,19.8105398 25.8219072,19.809293 C25.4754395,19.809293 25.203652,19.7299895 25.0151762,19.5621132 C24.8316171,19.3997117 24.6388255,19.1411486 24.4303003,18.7807864 C24.1667073,18.2779705 23.8509967,17.886223 23.4838786,17.6060316 C23.1264302,17.3310441 22.5366921,17.1878857 21.7160849,17.1896203 C20.9568279,17.1896203 20.3493349,17.3435657 19.8908198,17.6446264 C19.4294638,17.9505115 19.2089198,18.3053988 19.2078818,18.7212139 C19.2086466,18.9817826 19.2841462,19.20148 19.4360741,19.3893583 C19.5903511,19.5789713 19.804995,19.74327 20.0808798,19.8817666 C20.356874,20.0224315 20.637621,20.1312231 20.9197337,20.2094967 C21.2051789,20.289776 21.6787722,20.4058312 22.3370717,20.5595056 C23.1626503,20.7360548 23.9114728,20.9333109 24.5843587,21.1482923 C25.2559335,21.3643578 25.8290638,21.6249266 26.3025478,21.9353649 C26.7798013,22.2448818 27.1528195,22.6395023 27.4190893,23.1161366 C27.6872713,23.5935297 27.8208432,24.1766248 27.8208432,24.8627657 C27.8218812,25.6889752 27.5899194,26.4320325 27.1276347,27.0897694 L27.1276347,27.0897694 L27.1276347,27.0897694 L27.1276347,27.0897694 Z"/>
    </g>
    <g transform="translate(55 198)">
      <ellipse cx="22.015" cy="21.843" fill="#7E4EA0" rx="22.015" ry="21.843"/>
      <g fill="#FFFFFF" transform="translate(5 6)">
        <path d="M33.2119205,8.00223642 L33.2006623,7.9600639 C32.3788079,4.86038339 28.6860927,1.52875399 25.297351,0.832907348 L25.2635762,0.822364217 C19.7695364,-0.158146965 14.207947,-0.158146965 8.72516556,0.822364217 L8.68013245,0.832907348 C5.29139073,1.52875399 1.5986755,4.86038339 0.776821192,7.9600639 L0.765562914,8.00223642 C-0.247682119,12.3354633 -0.247682119,16.7319489 0.765562914,21.0651757 L0.776821192,21.1073482 C1.56490066,24.0805112 4.98741722,27.2539936 8.25231788,28.1290735 L8.25231788,31.5977636 C8.25231788,32.8523962 9.88476821,33.4638978 10.807947,32.5571885 L14.5569536,28.9092652 C15.3675497,28.9514377 16.1781457,28.972524 17,28.972524 C19.7582781,28.972524 22.5278146,28.7300319 25.2748344,28.2345048 L25.3086093,28.2239617 C28.697351,27.528115 32.4013245,24.2070288 33.2119205,21.0968051 L33.2231788,21.0546326 C34.2251656,16.7319489 34.2251656,12.3354633 33.2119205,8.00223642 L33.2119205,8.00223642 Z M30.2509934,20.4325879 C29.6993377,22.456869 26.8960265,24.9766773 24.6668874,25.4405751 C21.7509934,25.9571885 18.8125828,26.1785942 15.8741722,26.1047923 C15.8178808,26.1047923 15.7615894,26.1258786 15.7165563,26.1680511 C15.3,26.5686901 12.9807947,28.7932907 12.9807947,28.7932907 L10.0649007,31.5872204 C9.85099338,31.7980831 9.4794702,31.6504792 9.4794702,31.3658147 L9.4794702,25.6303514 C9.4794702,25.5354633 9.41192053,25.4511182 9.31059603,25.4405751 L9.31059603,25.4405751 C7.08145695,24.9766773 4.2781457,22.456869 3.72649007,20.4325879 C2.81456954,16.5105431 2.81456954,12.5463259 3.72649007,8.62428115 C4.2781457,6.6 7.08145695,4.08019169 9.31059603,3.61629393 C14.410596,2.70958466 19.5781457,2.70958466 24.6668874,3.61629393 C26.8960265,4.08019169 29.6993377,6.6 30.2509934,8.62428115 C31.1629139,12.5463259 31.1629139,16.5210863 30.2509934,20.4325879 L30.2509934,20.4325879 Z"/>
        <path d="M21.8298013 23.0789137C21.492053 22.9840256 21.1655629 22.9207668 20.8615894 22.7942492 17.7205298 21.571246 14.8271523 20.0003195 12.5304636 17.5859425 11.2245033 16.2153355 10.2112583 14.6654952 9.34437086 13.0207668 8.93907285 12.2405751 8.59006623 11.4392971 8.2410596 10.627476 7.92582781 9.9 8.38741722 9.14089457 8.89403974 8.58210863 9.35562914 8.06549521 9.96357616 7.66485623 10.605298 7.38019169 11.1119205 7.14824281 11.6072848 7.28530351 11.9788079 7.68594249 12.7781457 8.55047923 13.5099338 9.46773163 14.1066225 10.4798722 14.4781457 11.1019169 14.3768212 11.8610224 13.7125828 12.2827476 13.5549669 12.3881789 13.4086093 12.5041534 13.2509934 12.6201278 13.115894 12.7255591 12.992053 12.8204473 12.9019868 12.957508 12.7331126 13.2105431 12.7331126 13.5057508 12.8344371 13.7798722 13.6562914 15.8884984 15.0298013 17.5226837 17.2927152 18.4083067 17.6529801 18.5453674 18.013245 18.7140575 18.4410596 18.671885 19.1390728 18.5980831 19.3642384 17.8811502 19.8596026 17.5015974 20.3324503 17.1325879 20.9516556 17.1325879 21.4695364 17.4383387 21.9874172 17.7440895 22.4827815 18.0709265 22.9781457 18.4083067 23.4622517 18.7351438 23.9463576 19.0514377 24.3966887 19.4204473 24.8245033 19.7789137 24.9821192 20.2428115 24.7344371 20.7277955 24.284106 21.6134185 23.6423841 22.3514377 22.707947 22.8258786 22.4490066 22.9523962 22.1337748 22.9945687 21.8298013 23.0789137 21.492053 22.9840256 22.1337748 22.9945687 21.8298013 23.0789137L21.8298013 23.0789137zM16.9887417 6.37859425C21.0980132 6.48402556 24.4754967 9.04600639 25.1960265 12.8520767 25.3198675 13.5057508 25.3649007 14.1594249 25.4211921 14.8236422 25.4437086 15.0977636 25.2748344 15.3613419 24.9596026 15.371885 24.6331126 15.371885 24.486755 15.1188498 24.4642384 14.8447284 24.4192053 14.2964856 24.3966887 13.7482428 24.3066225 13.2 23.8788079 10.3322684 21.4357616 7.9600639 18.3960265 7.45399361 17.9344371 7.38019169 17.4728477 7.35910543 17 7.30638978 16.7072848 7.27476038 16.3245033 7.26421725 16.2569536 6.91629393 16.2006623 6.63162939 16.4596026 6.39968051 16.7523179 6.38913738 16.8311258 6.36805112 16.9099338 6.37859425 16.9887417 6.37859425 21.1092715 6.48402556 16.9099338 6.37859425 16.9887417 6.37859425L16.9887417 6.37859425z"/>
        <path d="M23.2370861,13.9591054 C23.2258278,14.0118211 23.2258278,14.1172524 23.192053,14.2226837 C23.0794702,14.6127796 22.4602649,14.6549521 22.3139073,14.2648562 C22.2688742,14.1488818 22.2688742,14.0223642 22.2688742,13.8958466 C22.2688742,13.0840256 22.0774834,12.2616613 21.6384106,11.5552716 C21.1880795,10.8277955 20.5013245,10.2162939 19.6907285,9.84728435 C19.2066225,9.62587859 18.6774834,9.48881789 18.1370861,9.40447284 C17.9006623,9.37284345 17.6642384,9.34121406 17.4278146,9.3201278 C17.1463576,9.27795527 16.9887417,9.10926518 17,8.8456869 C17.0112583,8.60319489 17.202649,8.42396166 17.4953642,8.43450479 C18.4410596,8.48722045 19.3529801,8.67699681 20.1860927,9.08817891 C21.8860927,9.93162939 22.8655629,11.270607 23.1470199,13.0523962 C23.1582781,13.1367412 23.1807947,13.2105431 23.192053,13.2948882 C23.2145695,13.4952077 23.2258278,13.6955272 23.2370861,13.9591054 C23.2370861,14.0118211 23.2258278,13.6955272 23.2370861,13.9591054 L23.2370861,13.9591054 Z"/>
        <path d="M20.681457,13.8642173 C20.3324503,13.8747604 20.1523179,13.6955272 20.118543,13.4003195 C20.0960265,13.1894569 20.0735099,12.9891374 20.0172185,12.7888179 C19.915894,12.398722 19.6907285,12.0297125 19.3304636,11.7872204 C19.1615894,11.671246 18.9701987,11.586901 18.7788079,11.5341853 C18.5311258,11.4709265 18.2609272,11.4814696 18.013245,11.428754 C17.7430464,11.3654952 17.5854305,11.1546326 17.6304636,10.9226837 C17.6642384,10.701278 17.9006623,10.5325879 18.1483444,10.5536741 C19.7470199,10.6591054 20.884106,11.428754 21.0417219,13.1894569 C21.0529801,13.3159744 21.0642384,13.442492 21.0417219,13.5584665 C20.9966887,13.7587859 20.8390728,13.8536741 20.681457,13.8642173 C20.3437086,13.8747604 20.8390728,13.8536741 20.681457,13.8642173 L20.681457,13.8642173 Z"/>
      </g>
    </g>
    <g fill="#80868E" transform="translate(66 171)">
      <rect width="19" height="2" y="15"/>
      <path d="M23,0 L42,0 L42,2 L23,2 L23,0 L23,0 L23,0 Z M23,6 L42,6 L42,8 L23,8 L23,6 L23,6 L23,6 Z M23,12 L42,12 L42,14 L23,14 L23,12 L23,12 L23,12 Z"/>
    </g>
    <polygon fill="#80868E" points="53.425 176.01 47.414 170 46 171.414 52.01 177.425 46 183.435 47.414 184.849 53.425 178.839 59.435 184.849 60.849 183.435 54.839 177.425 60.849 171.414 59.435 170"/>
    <polygon fill="#AEB3B3" points="39.723 181.835 37.144 179.256 36 180.4 39.422 183.822 39.451 183.793 39.752 184.094 44.701 179.144 43.558 178"/>
    <g fill="#FFFFFF" transform="translate(1 205)">
      <path d="M25.289968 13.2511887L25.289968 2.8395404C25.289968 1.4623799 23.904379 0 22.495172 0L4.794796 0C3.385491 0 2 1.4623799 2 2.8395404L2 13.2511887C2 14.9240314 3.385491 16.3862044 4.794796 16.0907292L7.589592 16.0907292 7.589592 19.8767831 7.589592 21.7698101 8.521191 21.7698101C8.560963 21.7698101 8.809636 20.7191512 9.45279 20.8232966L13.179185 16.0907292 22.495172 16.0907292C23.904379 16.3862044 25.289968 14.9240314 25.289968 13.2511887L25.289968 13.2511887 25.289968 13.2511887zM28.084764 9.4651348L28.084764 14.1977022C28.43316 16.6045614 26.329051 18.7555081 23.426771 18.9302696L15.042382 18.9302696 13.179185 20.8232966C13.400357 21.9464552 14.522357 22.94992 15.973981 22.7163236L23.426771 22.7163236 26.221567 26.5023775C26.844559 26.4003611 27.153166 27.448891 27.153166 27.448891L28.084764 27.448891 28.084764 25.555864 28.084764 22.7163236 29.947962 22.7163236C31.517696 22.9498187 32.742758 21.6970818 32.742758 19.8767831L32.742758 12.3046753C32.742659 10.7176694 31.517597 9.4651348 29.947962 9.4651348L28.084764 9.4651348 28.084764 9.4651348 28.084764 9.4651348zM27.406703 45L6.305503 45C5.586144 45 5 45.5861444 5 46.3055035L5 67.4067026C5 68.1260616 5.586144 68.712206 6.305503 68.712206L27.406703 68.712206C28.126062 68.712206 28.712206 68.1260616 28.712206 67.4067026L28.712206 46.2966225C28.703325 45.5861444 28.117181 45 27.406703 45L27.406703 45 27.406703 45 27.406703 45zM18.312583 63.0461433C18.312583 63.4546682 17.975106 63.7832643 17.575462 63.7832643L8.898748 63.7832643C8.490224 63.7832643 8.161627 63.4457873 8.161627 63.0461433L8.161627 61.4120437C8.161627 61.0035188 8.499105 60.6749227 8.898748 60.6749227L17.575462 60.6749227C17.983987 60.6749227 18.312583 61.0123998 18.312583 61.4120437L18.312583 63.0461433 18.312583 63.0461433 18.312583 63.0461433 18.312583 63.0461433zM25.55946 57.2557469C25.55946 57.6642718 25.221982 57.992868 24.822339 57.992868L8.889868 57.992868C8.481343 57.992868 8.152746 57.6553909 8.152746 57.2557469L8.152746 55.6216474C8.152746 55.2131225 8.490224 54.8845263 8.889868 54.8845263L24.813458 54.8845263C25.221982 54.8845263 25.550579 55.2220034 25.550579 55.6216474L25.550579 57.2557469 25.55946 57.2557469 25.55946 57.2557469 25.55946 57.2557469zM25.55946 51.4564696C25.55946 51.8649945 25.221982 52.1935906 24.822339 52.1935906L8.889868 52.1935906C8.481343 52.1935906 8.152746 51.8561135 8.152746 51.4564696L8.152746 49.82237C8.152746 49.4138451 8.490224 49.085249 8.889868 49.085249L24.813458 49.085249C25.221982 49.085249 25.550579 49.4227261 25.550579 49.82237L25.550579 51.4564696 25.55946 51.4564696 25.55946 51.4564696 25.55946 51.4564696zM21.8724142 107.904882C20.9247158 106.937215 19.7416017 106.937215 18.7999395 107.904882 18.0816203 108.641558 17.5443899 108.878792 16.8381433 109.627954 16.6449818 109.833973 16.4820018 109.877674 16.2465862 109.740328 15.7817914 109.478122 15.2868151 109.265859 14.8401292 108.97868 12.757607 107.623946 11.0131175 105.882145 9.46782558 103.921839 8.70121598 102.947929 8.01911458 101.905345 7.54224718 100.731659 7.44566638 100.494424 7.46377528 100.338349 7.65090048 100.144815 8.36921968 99.4268689 8.61067158 99.1646623 9.31691818 98.4279866 10.3008345 97.4041323 10.3008345 96.2054736 9.31088188 95.1753763 8.74950638 94.588533 8.20672258 93.7776903 7.74911098 93.1410901 7.29155978 92.50449 6.93258128 91.7479616 6.34706048 91.1548752 5.39936198 90.1996941 4.21624798 90.1996941 3.27458578 91.1611182 2.55023018 91.8977939 1.85605618 92.6531986 1.11962808 93.3773882.437526576 94.0453907.0934576762 94.8632256.0210221762 95.8184067-.0936675238 97.3729172.274546576 98.8400255.793668076 100.269676 1.85605618 103.228864 3.47378358 105.857173 5.43557978 108.266977 8.08551378 111.52583 11.248533 114.104195 14.9487826 115.964613 16.6148003 116.801177 18.341181 117.444207 20.2184691 117.550339 21.5102365 117.625255 22.6329876 117.288132 23.5323957 116.245549 24.1480979 115.533845 24.842272 114.884572 25.4941919 114.204083 26.4599993 113.192715 26.4660356 111.969084 25.5062645 110.970202 24.3593683 109.777786 23.0253468 109.091055 21.8724142 107.904882L21.8724142 107.904882 21.8724142 107.904882zM21.3823575 102.54478L21.649524 102.497583C22.2325699 102.394635 22.6031984 101.790811 22.439977 101.202844 21.9748804 99.5274064 21.1078872 98.0101042 19.9025595 96.7584423 18.6153797 95.427182 17.0456409 94.5042148 15.3140087 94.0502228 14.7392929 93.8995165 14.1651204 94.2980081 14.0827853 94.9052036L14.0448774 95.1851403C13.9740716 95.7074309 14.2978586 96.194823 14.7915069 96.3270501 16.1176208 96.6822776 17.3214393 97.3914215 18.3089774 98.4128411 19.2357903 99.3713934 19.9009297 100.53815 20.2615984 101.824711 20.4016405 102.324464 20.8864758 102.632369 21.3823575 102.54478L21.3823575 102.54478 21.3823575 102.54478zM23.9408537 92.6942277C21.6189321 90.2927899 18.7408864 88.6905203 15.5599394 88.0206449 15.0001937 87.9027768 14.4611524 88.3026419 14.3818355 88.8877996L14.3439879 89.167112C14.2710695 89.7053847 14.6156816 90.2080722 15.1303966 90.3177619 17.8685813 90.9015462 20.3476277 92.2861219 22.3472716 94.3486264 24.2318636 96.2977578 25.5367297 98.7064999 26.1495949 101.360343 26.2718902 101.889813 26.7669872 102.232554 27.2858069 102.140969L27.5507399 102.094209C28.1197816 101.993697 28.4841928 101.415781 28.3501266 100.835056 27.638568 97.7536287 26.1267777 94.9605666 23.9408537 92.6942277L23.9408537 92.6942277 23.9408537 92.6942277z"/>
    </g>
    <polygon fill="#80868E" points="21.964 178.5 34 178.5 34 176.5 21.964 176.5 25.914 172.55 24.5 171.136 18.843 176.793 18.136 177.5 24.5 183.864 25.914 182.45"/>
    <g transform="translate(0 193)">
      <circle cx="25" cy="25" r="25" fill="#535C69"/>
      <path fill="#FFFFFF" d="M38.3039326,39.9224719 C38.3039326,38.1151685 36.2758427,30.4696629 36.2758427,30.4696629 C36.2758427,29.3522472 34.8151685,28.0758427 31.938764,27.3320225 C30.9642484,27.0602083 30.0378544,26.6387066 29.1926966,26.0825843 C29.0078652,25.9769663 29.0359551,25.0011236 29.0359551,25.0011236 L28.1095506,24.8601124 C28.1095506,24.7808989 28.0303371,23.6106742 28.0303371,23.6106742 C29.138764,23.2382022 29.0247191,21.0410112 29.0247191,21.0410112 C29.7286517,21.4314607 30.1870787,19.6926966 30.1870787,19.6926966 C31.0196629,17.2769663 29.7724719,17.4230337 29.7724719,17.4230337 C29.990663,15.9482889 29.990663,14.4494639 29.7724719,12.9747191 C29.2179775,8.08258427 20.8696629,9.41067416 21.8595506,11.008427 C19.4196629,10.5589888 19.9764045,16.1106742 19.9764045,16.1106742 L20.505618,17.5483146 C19.4662921,18.2224719 20.188764,19.0376404 20.2247191,19.9758427 C20.2758427,21.361236 21.1235955,21.0741573 21.1235955,21.0741573 C21.1758427,23.3606742 22.3033708,23.658427 22.3033708,23.658427 C22.5151685,25.094382 22.3831461,24.85 22.3831461,24.85 L21.3797753,24.9713483 C21.393358,25.2978998 21.3667541,25.6248829 21.3005618,25.9449438 C20.1207865,26.4707865 19.8668539,26.7792135 18.694382,27.2932584 C16.4292135,28.2859551 13.9674157,29.5769663 13.5297753,31.3151685 C13.0921348,33.0533708 11.7910112,39.9224719 11.7910112,39.9224719 L38.302809,39.9224719 L38.302809,39.9224719 L38.302809,39.9224719 L38.3039326,39.9224719 L38.3039326,39.9224719 L38.3039326,39.9224719 Z"/>
    </g>
  </g>
</svg>
