<svg width="297" height="118" viewBox="0 0 297 118" fill="none" xmlns="http://www.w3.org/2000/svg">
<g clip-path="url(#clip0_901_177332)">
<g opacity="0.5">
<g opacity="0.570122">
<rect x="16.5" y="8.40332" width="46.4724" height="24.7373" fill="white" stroke="#ECECEC"/>
<rect x="63.2637" y="8.40332" width="46.4724" height="24.7373" fill="white" stroke="#ECECEC"/>
<rect x="110.027" y="8.40332" width="46.4724" height="24.7373" fill="white" stroke="#ECECEC"/>
</g>
<g opacity="0.570122">
<rect x="16.5" y="33.0215" width="46.4724" height="24.7373" fill="white" stroke="#ECECEC"/>
<rect x="63.2637" y="33.0215" width="46.4724" height="24.7373" fill="white" stroke="#ECECEC"/>
<rect x="110.027" y="33.0215" width="46.4724" height="24.7373" fill="white" stroke="#ECECEC"/>
</g>
<g opacity="0.570122">
<rect x="16.5" y="57.6396" width="46.4724" height="24.7373" fill="white" stroke="#ECECEC"/>
<rect x="63.2637" y="57.6396" width="46.4724" height="24.7373" fill="white" stroke="#ECECEC"/>
<rect x="110.027" y="57.6396" width="46.4724" height="24.7373" fill="white" stroke="#ECECEC"/>
</g>
<g opacity="0.570122">
<rect x="16.5" y="82.2578" width="46.4724" height="24.7373" fill="white" stroke="#ECECEC"/>
<rect x="63.2637" y="82.2578" width="46.4724" height="24.7373" fill="white" stroke="#ECECEC"/>
<rect x="110.027" y="82.2578" width="46.4724" height="24.7373" fill="white" stroke="#ECECEC"/>
</g>
<g opacity="0.570122">
<rect x="156.5" y="8.40332" width="46.4724" height="24.7373" fill="white" stroke="#ECECEC"/>
<rect x="203.264" y="8.40332" width="46.4724" height="24.7373" fill="white" stroke="#ECECEC"/>
<rect x="250.027" y="8.40332" width="46.4724" height="24.7373" fill="white" stroke="#ECECEC"/>
</g>
<g opacity="0.570122">
<rect x="156.5" y="33.0215" width="46.4724" height="24.7373" fill="white" stroke="#ECECEC"/>
<rect x="203.264" y="33.0215" width="46.4724" height="24.7373" fill="white" stroke="#ECECEC"/>
<rect x="250.027" y="33.0215" width="46.4724" height="24.7373" fill="white" stroke="#ECECEC"/>
</g>
<g opacity="0.570122">
<rect x="156.5" y="57.6396" width="46.4724" height="24.7373" fill="white" stroke="#ECECEC"/>
<rect x="203.264" y="57.6396" width="46.4724" height="24.7373" fill="white" stroke="#ECECEC"/>
<rect x="250.027" y="57.6396" width="46.4724" height="24.7373" fill="white" stroke="#ECECEC"/>
</g>
<g opacity="0.570122">
<rect x="156.5" y="82.2578" width="46.4724" height="24.7373" fill="white" stroke="#ECECEC"/>
<rect x="203.264" y="82.2578" width="46.4724" height="24.7373" fill="white" stroke="#ECECEC"/>
<rect x="250.027" y="82.2578" width="46.4724" height="24.7373" fill="white" stroke="#ECECEC"/>
</g>
<path d="M4.14697 11.0757C4.82373 11.0757 5.35547 11.2441 5.74219 11.5811C6.13184 11.915 6.32666 12.3735 6.32666 12.9565C6.32666 13.6216 6.11426 14.1431 5.68945 14.521C5.26758 14.8989 4.68457 15.0879 3.94043 15.0879C3.2168 15.0879 2.66455 14.9722 2.28369 14.7407V14.0376C2.48877 14.1694 2.74365 14.2734 3.04834 14.3496C3.35303 14.4229 3.65332 14.4595 3.94922 14.4595C4.46484 14.4595 4.86475 14.3379 5.14893 14.0947C5.43604 13.8516 5.57959 13.5 5.57959 13.04C5.57959 12.1436 5.03027 11.6953 3.93164 11.6953C3.65332 11.6953 3.28125 11.7378 2.81543 11.8228L2.4375 11.5811L2.6792 8.5752H5.87402V9.24756H3.30322L3.14062 11.1768C3.47754 11.1094 3.81299 11.0757 4.14697 11.0757ZM11.5474 11.7788C11.5474 12.8892 11.3716 13.7183 11.02 14.2661C10.6714 14.814 10.1367 15.0879 9.41602 15.0879C8.72461 15.0879 8.19873 14.8081 7.83838 14.2485C7.47803 13.686 7.29785 12.8628 7.29785 11.7788C7.29785 10.6597 7.47217 9.8291 7.8208 9.28711C8.16943 8.74512 8.70117 8.47412 9.41602 8.47412C10.1133 8.47412 10.6421 8.75684 11.0024 9.32227C11.3657 9.8877 11.5474 10.7065 11.5474 11.7788ZM8.03613 11.7788C8.03613 12.7134 8.146 13.3945 8.36572 13.8223C8.58545 14.2471 8.93555 14.4595 9.41602 14.4595C9.90234 14.4595 10.2539 14.2441 10.4707 13.8135C10.6904 13.3799 10.8003 12.7017 10.8003 11.7788C10.8003 10.856 10.6904 10.1807 10.4707 9.75293C10.2539 9.32227 9.90234 9.10693 9.41602 9.10693C8.93555 9.10693 8.58545 9.31934 8.36572 9.74414C8.146 10.166 8.03613 10.8442 8.03613 11.7788Z" fill="#828B95"/>
<path d="M6.36182 59H2.13867V58.3716L3.83057 56.6709C4.34619 56.1494 4.68604 55.7773 4.8501 55.5547C5.01416 55.332 5.13721 55.1152 5.21924 54.9043C5.30127 54.6934 5.34229 54.4663 5.34229 54.2231C5.34229 53.8804 5.23828 53.6094 5.03027 53.4102C4.82227 53.208 4.53369 53.1069 4.16455 53.1069C3.89795 53.1069 3.64453 53.1509 3.4043 53.2388C3.16699 53.3267 2.90186 53.4863 2.60889 53.7178L2.22217 53.2212C2.81396 52.729 3.4585 52.4829 4.15576 52.4829C4.75928 52.4829 5.23242 52.6382 5.5752 52.9487C5.91797 53.2563 6.08936 53.6709 6.08936 54.1924C6.08936 54.5996 5.9751 55.0024 5.74658 55.4009C5.51807 55.7993 5.09033 56.3032 4.46338 56.9126L3.05713 58.2881V58.3232H6.36182V59ZM9.29736 55.0757C9.97412 55.0757 10.5059 55.2441 10.8926 55.5811C11.2822 55.915 11.4771 56.3735 11.4771 56.9565C11.4771 57.6216 11.2646 58.1431 10.8398 58.521C10.418 58.8989 9.83496 59.0879 9.09082 59.0879C8.36719 59.0879 7.81494 58.9722 7.43408 58.7407V58.0376C7.63916 58.1694 7.89404 58.2734 8.19873 58.3496C8.50342 58.4229 8.80371 58.4595 9.09961 58.4595C9.61523 58.4595 10.0151 58.3379 10.2993 58.0947C10.5864 57.8516 10.73 57.5 10.73 57.04C10.73 56.1436 10.1807 55.6953 9.08203 55.6953C8.80371 55.6953 8.43164 55.7378 7.96582 55.8228L7.58789 55.5811L7.82959 52.5752H11.0244V53.2476H8.45361L8.29102 55.1768C8.62793 55.1094 8.96338 55.0757 9.29736 55.0757Z" fill="#828B95"/>
<path d="M11.5474 96.7788C11.5474 97.8892 11.3716 98.7183 11.02 99.2661C10.6714 99.814 10.1367 100.088 9.41602 100.088C8.72461 100.088 8.19873 99.8081 7.83838 99.2485C7.47803 98.686 7.29785 97.8628 7.29785 96.7788C7.29785 95.6597 7.47217 94.8291 7.8208 94.2871C8.16943 93.7451 8.70117 93.4741 9.41602 93.4741C10.1133 93.4741 10.6421 93.7568 11.0024 94.3223C11.3657 94.8877 11.5474 95.7065 11.5474 96.7788ZM8.03613 96.7788C8.03613 97.7134 8.146 98.3945 8.36572 98.8223C8.58545 99.2471 8.93555 99.4595 9.41602 99.4595C9.90234 99.4595 10.2539 99.2441 10.4707 98.8135C10.6904 98.3799 10.8003 97.7017 10.8003 96.7788C10.8003 95.856 10.6904 95.1807 10.4707 94.7529C10.2539 94.3223 9.90234 94.1069 9.41602 94.1069C8.93555 94.1069 8.58545 94.3193 8.36572 94.7441C8.146 95.166 8.03613 95.8442 8.03613 96.7788Z" fill="#828B95"/>
<path opacity="0.08" fill-rule="evenodd" clip-rule="evenodd" d="M73.0714 63.9965H63.9501C63.8721 63.9965 63.7947 63.9936 63.7181 63.9878C61.6566 63.9395 60.0001 62.2071 60 60.0772C60.0006 59.0391 60.4025 58.0437 61.1172 57.31C61.4835 56.934 61.9167 56.6425 62.388 56.4478C62.3801 56.3421 62.3761 56.2354 62.3761 56.1276C62.3767 55.0323 62.8008 53.982 63.5549 53.2079C64.3091 52.4338 65.3315 51.9993 66.3974 52C67.7628 52.0017 68.9682 52.7034 69.6926 53.7744C70.0367 53.6491 70.407 53.581 70.7928 53.5812C72.4972 53.5833 73.897 54.9185 74.0593 56.626C75.6923 56.9919 76.9144 58.487 76.9129 60.2747C76.9113 62.3347 75.2854 64.0036 73.2808 64.0027C73.2105 64.0027 73.1407 64.0006 73.0714 63.9965V63.9965Z" fill="#1EC6FA"/>
</g>
<path fill-rule="evenodd" clip-rule="evenodd" d="M102.574 49.5245C104.69 49.5245 106.406 47.8089 106.406 45.6924C106.406 43.576 104.69 41.8604 102.574 41.8604C100.457 41.8604 98.7417 43.576 98.7417 45.6924C98.7417 47.8089 100.457 49.5245 102.574 49.5245ZM102.574 47.5246C103.586 47.5246 104.406 46.7043 104.406 45.6925C104.406 44.6806 103.586 43.8603 102.574 43.8603C101.562 43.8603 100.742 44.6806 100.742 45.6925C100.742 46.7043 101.562 47.5246 102.574 47.5246Z" fill="url(#paint0_linear_901_177332)" fill-opacity="0.1"/>
<path fill-rule="evenodd" clip-rule="evenodd" d="M117.028 21.748C118.6 21.748 119.873 20.4742 119.873 18.9028C119.873 17.3315 118.6 16.0576 117.028 16.0576C115.457 16.0576 114.183 17.3315 114.183 18.9028C114.183 20.4742 115.457 21.748 117.028 21.748ZM117.028 20.1616C117.723 20.1616 118.287 19.598 118.287 18.9028C118.287 18.2076 117.723 17.644 117.028 17.644C116.333 17.644 115.769 18.2076 115.769 18.9028C115.769 19.598 116.333 20.1616 117.028 20.1616Z" fill="url(#paint1_linear_901_177332)" fill-opacity="0.1"/>
<path d="M183.104 9.09858C183.104 9.82343 182.516 10.411 181.791 10.411C181.067 10.411 180.479 9.82343 180.479 9.09858C180.479 8.37374 181.067 7.78613 181.791 7.78613C182.516 7.78613 183.104 8.37374 183.104 9.09858Z" fill="url(#paint2_linear_901_177332)" fill-opacity="0.1"/>
<path fill-rule="evenodd" clip-rule="evenodd" d="M199.866 97.7436C201.373 97.7436 202.595 96.5221 202.595 95.0154C202.595 93.5086 201.373 92.2871 199.866 92.2871C198.36 92.2871 197.138 93.5086 197.138 95.0154C197.138 96.5221 198.36 97.7436 199.866 97.7436ZM199.866 96.3238C200.589 96.3238 201.175 95.738 201.175 95.0154C201.175 94.2927 200.589 93.7069 199.866 93.7069C199.144 93.7069 198.558 94.2927 198.558 95.0154C198.558 95.738 199.144 96.3238 199.866 96.3238Z" fill="url(#paint3_linear_901_177332)" fill-opacity="0.1"/>
<circle cx="156.163" cy="57.8685" r="46.9573" fill="url(#paint4_linear_901_177332)" fill-opacity="0.1"/>
<path opacity="0.08" fill-rule="evenodd" clip-rule="evenodd" d="M110.502 96.9959H104.569C104.518 96.9959 104.468 96.9939 104.418 96.99C103.077 96.9579 102 95.8032 102 94.3836C102 93.6916 102.262 93.0282 102.727 92.5392C102.965 92.2886 103.247 92.0943 103.553 91.9645C103.548 91.8941 103.545 91.8229 103.545 91.7511C103.546 91.021 103.822 90.321 104.312 89.8051C104.803 89.2892 105.468 88.9996 106.161 89C107.049 89.0011 107.833 89.4688 108.304 90.1826C108.528 90.0991 108.769 90.0538 109.02 90.0539C110.128 90.0553 111.038 90.9452 111.144 92.0833C112.206 92.3272 113.001 93.3237 113 94.5152C112.999 95.8882 111.941 97.0006 110.638 97C110.592 97 110.547 96.9986 110.502 96.9959V96.9959Z" fill="#1EC6FA"/>
<path opacity="0.08" fill-rule="evenodd" clip-rule="evenodd" d="M212.395 28.9119H205.922C205.867 28.9119 205.812 28.9099 205.757 28.9059C204.294 28.873 203.119 27.6918 203.119 26.2396C203.119 25.5318 203.404 24.8531 203.911 24.3529C204.171 24.0965 204.479 23.8978 204.813 23.765C204.808 23.693 204.805 23.6202 204.805 23.5467C204.805 22.7999 205.106 22.0838 205.642 21.556C206.177 21.0282 206.902 20.732 207.659 20.7324C208.628 20.7336 209.483 21.212 209.997 21.9422C210.241 21.8568 210.504 21.8104 210.778 21.8105C211.988 21.812 212.981 22.7223 213.096 23.8865C214.255 24.136 215.122 25.1554 215.121 26.3742C215.12 27.7788 213.966 28.9167 212.544 28.9161C212.494 28.9161 212.444 28.9147 212.395 28.9119V28.9119Z" fill="#1EC6FA"/>
<path opacity="0.2" d="M245 57.5L225.5 73L195 33.5L165 81L136.5 43.5L114 76.5L94 67.5L75.5 87H64" stroke="#2FC6F6" stroke-width="12" stroke-linecap="round" stroke-linejoin="round"/>
<g opacity="0.8" filter="url(#filter0_d_901_177332)">
<path fill-rule="evenodd" clip-rule="evenodd" d="M251.605 18.6242C254.022 20.8914 254.143 24.6885 251.876 27.1052L206.376 75.6052C205.287 76.766 203.781 77.4465 202.19 77.497C200.6 77.5475 199.054 76.9638 197.893 75.8745L179.387 58.5009C178.566 57.7303 177.271 57.7888 176.523 58.6303L157.984 79.4862C155.996 81.7234 152.662 82.1527 150.172 80.4923L132.794 68.9071C132.039 68.4039 131.04 68.4718 130.36 69.0726L113.473 83.996C111.714 85.5509 109.209 85.9365 107.063 84.9829L93.985 79.1704C93.2412 78.8398 92.3711 78.993 91.785 79.5578L68.1634 102.32C65.7772 104.62 61.9789 104.549 59.6795 102.163C57.3802 99.7772 57.4505 95.9789 59.8366 93.6796L87.3366 67.1796C89.0951 65.485 91.7052 65.0253 93.9368 66.0172L107.241 71.93C107.956 72.2479 108.791 72.1194 109.378 71.6011L127.027 56.004C129.066 54.2017 132.064 53.9979 134.328 55.5077L151.036 66.6463C151.866 67.1998 152.977 67.0567 153.64 66.3109L173.016 44.5138C174.092 43.3033 175.611 42.5793 177.229 42.5061C178.847 42.433 180.426 43.0171 181.607 44.1256L200.272 61.6483C201.078 62.4044 202.344 62.3643 203.1 61.5585L243.124 18.8949C245.391 16.4782 249.188 16.357 251.605 18.6242Z" fill="white"/>
<path d="M251.263 18.9889C253.478 21.0671 253.589 24.5478 251.511 26.7631L206.011 75.2631C205.013 76.3271 203.633 76.951 202.175 76.9972C200.716 77.0435 199.299 76.5085 198.236 75.5099L179.729 58.1363C178.703 57.1731 177.084 57.2463 176.149 58.2981L157.611 79.154C155.788 81.2048 152.732 81.5983 150.449 80.0763L133.071 68.4911C132.128 67.862 130.879 67.9469 130.029 68.6979L113.142 83.6213C111.529 85.0467 109.233 85.4002 107.266 84.526L94.1881 78.7135C93.2583 78.3002 92.1707 78.4917 91.438 79.1978L67.8164 101.96C65.6291 104.068 62.1473 104.004 60.0396 101.816C57.9318 99.6291 57.9963 96.1473 60.1836 94.0396L87.6836 67.5396C89.2955 65.9863 91.6881 65.5649 93.7338 66.4741L107.038 72.387C107.932 72.7843 108.976 72.6236 109.709 71.9757L127.358 56.3787C129.227 54.7266 131.975 54.5398 134.051 55.9237L150.759 67.0623C151.797 67.7542 153.185 67.5753 154.014 66.6431L173.389 44.846C174.376 43.7364 175.769 43.0727 177.252 43.0056C178.735 42.9386 180.182 43.474 181.264 44.4901L199.93 62.0128C200.937 62.958 202.519 62.9078 203.464 61.9006L243.489 19.237C245.567 17.0217 249.048 16.9106 251.263 18.9889Z" stroke="#1EC6FA"/>
</g>
</g>
<defs>
<filter id="filter0_d_901_177332" x="55" y="15" width="201.5" height="93" filterUnits="userSpaceOnUse" color-interpolation-filters="sRGB">
<feFlood flood-opacity="0" result="BackgroundImageFix"/>
<feColorMatrix in="SourceAlpha" type="matrix" values="0 0 0 0 0 0 0 0 0 0 0 0 0 0 0 0 0 0 127 0" result="hardAlpha"/>
<feOffset dy="1"/>
<feGaussianBlur stdDeviation="1.5"/>
<feComposite in2="hardAlpha" operator="out"/>
<feColorMatrix type="matrix" values="0 0 0 0 0 0 0 0 0 0.294033 0 0 0 0 0.3875 0 0 0 0.09 0"/>
<feBlend mode="normal" in2="BackgroundImageFix" result="effect1_dropShadow_901_177332"/>
<feBlend mode="normal" in="SourceGraphic" in2="effect1_dropShadow_901_177332" result="shape"/>
</filter>
<linearGradient id="paint0_linear_901_177332" x1="102.574" y1="41.8604" x2="102.574" y2="49.5245" gradientUnits="userSpaceOnUse">
<stop stop-color="#1EC6FA"/>
<stop offset="1" stop-color="#1EC6FA"/>
</linearGradient>
<linearGradient id="paint1_linear_901_177332" x1="117.028" y1="16.0576" x2="117.028" y2="21.748" gradientUnits="userSpaceOnUse">
<stop stop-color="#1EC6FA"/>
<stop offset="1" stop-color="#1EC6FA"/>
</linearGradient>
<linearGradient id="paint2_linear_901_177332" x1="173.715" y1="5.40946" x2="173.715" y2="11.0999" gradientUnits="userSpaceOnUse">
<stop stop-color="#1EC6FA"/>
<stop offset="1" stop-color="#1EC6FA"/>
</linearGradient>
<linearGradient id="paint3_linear_901_177332" x1="199.866" y1="92.2871" x2="199.866" y2="97.7436" gradientUnits="userSpaceOnUse">
<stop stop-color="#1EC6FA"/>
<stop offset="1" stop-color="#1EC6FA"/>
</linearGradient>
<linearGradient id="paint4_linear_901_177332" x1="156.163" y1="10.9111" x2="156.163" y2="104.826" gradientUnits="userSpaceOnUse">
<stop stop-color="#1EC6FA"/>
<stop offset="1" stop-color="#1EC6FA"/>
</linearGradient>
<clipPath id="clip0_901_177332">
<rect width="297" height="118" fill="white"/>
</clipPath>
</defs>
</svg>
