<svg width="300" height="118" viewBox="0 0 300 118" fill="none" xmlns="http://www.w3.org/2000/svg">
	<g opacity="0.570122">
		<rect x="15.5" y="10.4033" width="46.4724" height="24.7373" fill="white" stroke="#ECECEC"/>
		<rect x="62.2637" y="10.4033" width="46.4724" height="24.7373" fill="white" stroke="#ECECEC"/>
		<rect x="109.027" y="10.4033" width="46.4724" height="24.7373" fill="white" stroke="#ECECEC"/>
	</g>
	<g opacity="0.570122">
		<rect x="15.5" y="35.0215" width="46.4724" height="24.7373" fill="white" stroke="#ECECEC"/>
		<rect x="62.2637" y="35.0215" width="46.4724" height="24.7373" fill="white" stroke="#ECECEC"/>
		<rect x="109.027" y="35.0215" width="46.4724" height="24.7373" fill="white" stroke="#ECECEC"/>
	</g>
	<g opacity="0.570122">
		<rect x="15.5" y="59.6399" width="46.4724" height="24.7373" fill="white" stroke="#ECECEC"/>
		<rect x="62.2637" y="59.6399" width="46.4724" height="24.7373" fill="white" stroke="#ECECEC"/>
		<rect x="109.027" y="59.6399" width="46.4724" height="24.7373" fill="white" stroke="#ECECEC"/>
	</g>
	<g opacity="0.570122">
		<rect x="15.5" y="84.2582" width="46.4724" height="24.7373" fill="white" stroke="#ECECEC"/>
		<rect x="62.2637" y="84.2582" width="46.4724" height="24.7373" fill="white" stroke="#ECECEC"/>
		<rect x="109.027" y="84.2582" width="46.4724" height="24.7373" fill="white" stroke="#ECECEC"/>
	</g>
	<g opacity="0.570122">
		<rect x="155.5" y="10.4033" width="46.4724" height="24.7373" fill="white" stroke="#ECECEC"/>
		<rect x="202.264" y="10.4033" width="46.4724" height="24.7373" fill="white" stroke="#ECECEC"/>
		<rect x="249.027" y="10.4033" width="46.4724" height="24.7373" fill="white" stroke="#ECECEC"/>
	</g>
	<g opacity="0.570122">
		<rect x="155.5" y="35.0215" width="46.4724" height="24.7373" fill="white" stroke="#ECECEC"/>
		<rect x="202.264" y="35.0215" width="46.4724" height="24.7373" fill="white" stroke="#ECECEC"/>
		<rect x="249.027" y="35.0215" width="46.4724" height="24.7373" fill="white" stroke="#ECECEC"/>
	</g>
	<g opacity="0.570122">
		<rect x="155.5" y="59.6399" width="46.4724" height="24.7373" fill="white" stroke="#ECECEC"/>
		<rect x="202.264" y="59.6399" width="46.4724" height="24.7373" fill="white" stroke="#ECECEC"/>
		<rect x="249.027" y="59.6399" width="46.4724" height="24.7373" fill="white" stroke="#ECECEC"/>
	</g>
	<g opacity="0.570122">
		<rect x="155.5" y="84.2582" width="46.4724" height="24.7373" fill="white" stroke="#ECECEC"/>
		<rect x="202.264" y="84.2582" width="46.4724" height="24.7373" fill="white" stroke="#ECECEC"/>
		<rect x="249.027" y="84.2582" width="46.4724" height="24.7373" fill="white" stroke="#ECECEC"/>
	</g>
	<path d="M15.3335 22.3333L297 92.6296" stroke="#207EDE" stroke-width="1.92593"/>
	<path d="M15.3335 22.8148L108.259 65.9074H249.815L297 92.6296" stroke="#FF0000" stroke-opacity="0.88" stroke-width="1.92593"/>
	<circle cx="15.3333" cy="22.3333" r="3.85185" fill="#FF5752" stroke="white" stroke-width="0.962963"/>
	<circle cx="62.5184" cy="44.4815" r="3.85185" fill="#FF5752" stroke="white" stroke-width="0.962963"/>
	<circle cx="62.5183" cy="33.8889" r="2.88889" fill="#207EDE" stroke="white" stroke-width="0.962963"/>
	<circle cx="108.741" cy="65.6667" r="3.85185" fill="#FF5752" stroke="white" stroke-width="0.962963"/>
	<circle cx="108.741" cy="45.4445" r="2.88889" fill="#207EDE" stroke="white" stroke-width="0.962963"/>
	<circle cx="155.926" cy="65.6667" r="3.85185" fill="#FF5752" stroke="white" stroke-width="0.962963"/>
	<circle cx="155.926" cy="57" r="2.88889" fill="#207EDE" stroke="white" stroke-width="0.962963"/>
	<circle cx="203.111" cy="69.5186" r="2.88889" fill="#207EDE" stroke="white" stroke-width="0.962963"/>
	<circle cx="203.111" cy="65.6667" r="3.85185" fill="#FF5752" stroke="white" stroke-width="0.962963"/>
	<circle cx="249.333" cy="80.1111" r="2.88889" fill="#207EDE" stroke="white" stroke-width="0.962963"/>
	<circle cx="249.333" cy="65.6667" r="3.85185" fill="#FF5752" stroke="white" stroke-width="0.962963"/>
	<circle cx="295.556" cy="91.6667" r="3.85185" fill="#FF5752" stroke="white" stroke-width="0.962963"/>
	<path d="M3.14697 13.0757C3.82373 13.0757 4.35547 13.2441 4.74219 13.5811C5.13184 13.915 5.32666 14.3735 5.32666 14.9565C5.32666 15.6216 5.11426 16.1431 4.68945 16.521C4.26758 16.8989 3.68457 17.0879 2.94043 17.0879C2.2168 17.0879 1.66455 16.9722 1.28369 16.7407V16.0376C1.48877 16.1694 1.74365 16.2734 2.04834 16.3496C2.35303 16.4229 2.65332 16.4595 2.94922 16.4595C3.46484 16.4595 3.86475 16.3379 4.14893 16.0947C4.43604 15.8516 4.57959 15.5 4.57959 15.04C4.57959 14.1436 4.03027 13.6953 2.93164 13.6953C2.65332 13.6953 2.28125 13.7378 1.81543 13.8228L1.4375 13.5811L1.6792 10.5752H4.87402V11.2476H2.30322L2.14062 13.1768C2.47754 13.1094 2.81299 13.0757 3.14697 13.0757ZM10.5474 13.7788C10.5474 14.8892 10.3716 15.7183 10.02 16.2661C9.67139 16.814 9.13672 17.0879 8.41602 17.0879C7.72461 17.0879 7.19873 16.8081 6.83838 16.2485C6.47803 15.686 6.29785 14.8628 6.29785 13.7788C6.29785 12.6597 6.47217 11.8291 6.8208 11.2871C7.16943 10.7451 7.70117 10.4741 8.41602 10.4741C9.11328 10.4741 9.64209 10.7568 10.0024 11.3223C10.3657 11.8877 10.5474 12.7065 10.5474 13.7788ZM7.03613 13.7788C7.03613 14.7134 7.146 15.3945 7.36572 15.8223C7.58545 16.2471 7.93555 16.4595 8.41602 16.4595C8.90234 16.4595 9.25391 16.2441 9.4707 15.8135C9.69043 15.3799 9.80029 14.7017 9.80029 13.7788C9.80029 12.856 9.69043 12.1807 9.4707 11.7529C9.25391 11.3223 8.90234 11.1069 8.41602 11.1069C7.93555 11.1069 7.58545 11.3193 7.36572 11.7441C7.146 12.166 7.03613 12.8442 7.03613 13.7788Z" fill="#828B95"/>
	<path d="M5.36182 61H1.13867V60.3716L2.83057 58.6709C3.34619 58.1494 3.68604 57.7773 3.8501 57.5547C4.01416 57.332 4.13721 57.1152 4.21924 56.9043C4.30127 56.6934 4.34229 56.4663 4.34229 56.2231C4.34229 55.8804 4.23828 55.6094 4.03027 55.4102C3.82227 55.208 3.53369 55.1069 3.16455 55.1069C2.89795 55.1069 2.64453 55.1509 2.4043 55.2388C2.16699 55.3267 1.90186 55.4863 1.60889 55.7178L1.22217 55.2212C1.81396 54.729 2.4585 54.4829 3.15576 54.4829C3.75928 54.4829 4.23242 54.6382 4.5752 54.9487C4.91797 55.2563 5.08936 55.6709 5.08936 56.1924C5.08936 56.5996 4.9751 57.0024 4.74658 57.4009C4.51807 57.7993 4.09033 58.3032 3.46338 58.9126L2.05713 60.2881V60.3232H5.36182V61ZM8.29736 57.0757C8.97412 57.0757 9.50586 57.2441 9.89258 57.5811C10.2822 57.915 10.4771 58.3735 10.4771 58.9565C10.4771 59.6216 10.2646 60.1431 9.83984 60.521C9.41797 60.8989 8.83496 61.0879 8.09082 61.0879C7.36719 61.0879 6.81494 60.9722 6.43408 60.7407V60.0376C6.63916 60.1694 6.89404 60.2734 7.19873 60.3496C7.50342 60.4229 7.80371 60.4595 8.09961 60.4595C8.61523 60.4595 9.01514 60.3379 9.29932 60.0947C9.58643 59.8516 9.72998 59.5 9.72998 59.04C9.72998 58.1436 9.18066 57.6953 8.08203 57.6953C7.80371 57.6953 7.43164 57.7378 6.96582 57.8228L6.58789 57.5811L6.82959 54.5752H10.0244V55.2476H7.45361L7.29102 57.1768C7.62793 57.1094 7.96338 57.0757 8.29736 57.0757Z" fill="#828B95"/>
	<path d="M10.5474 98.7788C10.5474 99.8892 10.3716 100.718 10.02 101.266C9.67139 101.814 9.13672 102.088 8.41602 102.088C7.72461 102.088 7.19873 101.808 6.83838 101.249C6.47803 100.686 6.29785 99.8628 6.29785 98.7788C6.29785 97.6597 6.47217 96.8291 6.8208 96.2871C7.16943 95.7451 7.70117 95.4741 8.41602 95.4741C9.11328 95.4741 9.64209 95.7568 10.0024 96.3223C10.3657 96.8877 10.5474 97.7065 10.5474 98.7788ZM7.03613 98.7788C7.03613 99.7134 7.146 100.395 7.36572 100.822C7.58545 101.247 7.93555 101.459 8.41602 101.459C8.90234 101.459 9.25391 101.244 9.4707 100.813C9.69043 100.38 9.80029 99.7017 9.80029 98.7788C9.80029 97.856 9.69043 97.1807 9.4707 96.7529C9.25391 96.3223 8.90234 96.1069 8.41602 96.1069C7.93555 96.1069 7.58545 96.3193 7.36572 96.7441C7.146 97.166 7.03613 97.8442 7.03613 98.7788Z" fill="#828B95"/>
</svg>
