<svg width="297" height="118" viewBox="0 0 297 118" fill="none" xmlns="http://www.w3.org/2000/svg">
<g clip-path="url(#clip0_901_177331)">
<g opacity="0.570122">
<rect x="16.5" y="10.4033" width="46.4724" height="24.7373" fill="white" stroke="#ECECEC"/>
<rect x="63.2637" y="10.4033" width="46.4724" height="24.7373" fill="white" stroke="#ECECEC"/>
<rect x="110.028" y="10.4033" width="46.4724" height="24.7373" fill="white" stroke="#ECECEC"/>
</g>
<g opacity="0.570122">
<rect x="16.5" y="35.0215" width="46.4724" height="24.7373" fill="white" stroke="#ECECEC"/>
<rect x="63.2637" y="35.0215" width="46.4724" height="24.7373" fill="white" stroke="#ECECEC"/>
<rect x="110.028" y="35.0215" width="46.4724" height="24.7373" fill="white" stroke="#ECECEC"/>
</g>
<g opacity="0.570122">
<rect x="16.5" y="59.6396" width="46.4724" height="24.7373" fill="white" stroke="#ECECEC"/>
<rect x="63.2637" y="59.6396" width="46.4724" height="24.7373" fill="white" stroke="#ECECEC"/>
<rect x="110.028" y="59.6396" width="46.4724" height="24.7373" fill="white" stroke="#ECECEC"/>
</g>
<g opacity="0.570122">
<rect x="16.5" y="84.2578" width="46.4724" height="24.7373" fill="white" stroke="#ECECEC"/>
<rect x="63.2637" y="84.2578" width="46.4724" height="24.7373" fill="white" stroke="#ECECEC"/>
<rect x="110.028" y="84.2578" width="46.4724" height="24.7373" fill="white" stroke="#ECECEC"/>
</g>
<g opacity="0.570122">
<rect x="156.5" y="10.4033" width="46.4724" height="24.7373" fill="white" stroke="#ECECEC"/>
<rect x="203.264" y="10.4033" width="46.4724" height="24.7373" fill="white" stroke="#ECECEC"/>
<rect x="250.027" y="10.4033" width="46.4724" height="24.7373" fill="white" stroke="#ECECEC"/>
</g>
<g opacity="0.570122">
<rect x="156.5" y="35.0215" width="46.4724" height="24.7373" fill="white" stroke="#ECECEC"/>
<rect x="203.264" y="35.0215" width="46.4724" height="24.7373" fill="white" stroke="#ECECEC"/>
<rect x="250.027" y="35.0215" width="46.4724" height="24.7373" fill="white" stroke="#ECECEC"/>
</g>
<g opacity="0.570122">
<rect x="156.5" y="59.6396" width="46.4724" height="24.7373" fill="white" stroke="#ECECEC"/>
<rect x="203.264" y="59.6396" width="46.4724" height="24.7373" fill="white" stroke="#ECECEC"/>
<rect x="250.027" y="59.6396" width="46.4724" height="24.7373" fill="white" stroke="#ECECEC"/>
</g>
<g opacity="0.570122">
<rect x="156.5" y="84.2578" width="46.4724" height="24.7373" fill="white" stroke="#ECECEC"/>
<rect x="203.264" y="84.2578" width="46.4724" height="24.7373" fill="white" stroke="#ECECEC"/>
<rect x="250.027" y="84.2578" width="46.4724" height="24.7373" fill="white" stroke="#ECECEC"/>
</g>
<path d="M4.14697 13.0757C4.82373 13.0757 5.35547 13.2441 5.74219 13.5811C6.13184 13.915 6.32666 14.3735 6.32666 14.9565C6.32666 15.6216 6.11426 16.1431 5.68945 16.521C5.26758 16.8989 4.68457 17.0879 3.94043 17.0879C3.2168 17.0879 2.66455 16.9722 2.28369 16.7407V16.0376C2.48877 16.1694 2.74365 16.2734 3.04834 16.3496C3.35303 16.4229 3.65332 16.4595 3.94922 16.4595C4.46484 16.4595 4.86475 16.3379 5.14893 16.0947C5.43604 15.8516 5.57959 15.5 5.57959 15.04C5.57959 14.1436 5.03027 13.6953 3.93164 13.6953C3.65332 13.6953 3.28125 13.7378 2.81543 13.8228L2.4375 13.5811L2.6792 10.5752H5.87402V11.2476H3.30322L3.14062 13.1768C3.47754 13.1094 3.81299 13.0757 4.14697 13.0757ZM11.5474 13.7788C11.5474 14.8892 11.3716 15.7183 11.02 16.2661C10.6714 16.814 10.1367 17.0879 9.41602 17.0879C8.72461 17.0879 8.19873 16.8081 7.83838 16.2485C7.47803 15.686 7.29785 14.8628 7.29785 13.7788C7.29785 12.6597 7.47217 11.8291 7.8208 11.2871C8.16943 10.7451 8.70117 10.4741 9.41602 10.4741C10.1133 10.4741 10.6421 10.7568 11.0024 11.3223C11.3657 11.8877 11.5474 12.7065 11.5474 13.7788ZM8.03613 13.7788C8.03613 14.7134 8.146 15.3945 8.36572 15.8223C8.58545 16.2471 8.93555 16.4595 9.41602 16.4595C9.90234 16.4595 10.2539 16.2441 10.4707 15.8135C10.6904 15.3799 10.8003 14.7017 10.8003 13.7788C10.8003 12.856 10.6904 12.1807 10.4707 11.7529C10.2539 11.3223 9.90234 11.1069 9.41602 11.1069C8.93555 11.1069 8.58545 11.3193 8.36572 11.7441C8.146 12.166 8.03613 12.8442 8.03613 13.7788Z" fill="#828B95"/>
<path d="M6.36182 61H2.13867V60.3716L3.83057 58.6709C4.34619 58.1494 4.68604 57.7773 4.8501 57.5547C5.01416 57.332 5.13721 57.1152 5.21924 56.9043C5.30127 56.6934 5.34229 56.4663 5.34229 56.2231C5.34229 55.8804 5.23828 55.6094 5.03027 55.4102C4.82227 55.208 4.53369 55.1069 4.16455 55.1069C3.89795 55.1069 3.64453 55.1509 3.4043 55.2388C3.16699 55.3267 2.90186 55.4863 2.60889 55.7178L2.22217 55.2212C2.81396 54.729 3.4585 54.4829 4.15576 54.4829C4.75928 54.4829 5.23242 54.6382 5.5752 54.9487C5.91797 55.2563 6.08936 55.6709 6.08936 56.1924C6.08936 56.5996 5.9751 57.0024 5.74658 57.4009C5.51807 57.7993 5.09033 58.3032 4.46338 58.9126L3.05713 60.2881V60.3232H6.36182V61ZM9.29736 57.0757C9.97412 57.0757 10.5059 57.2441 10.8926 57.5811C11.2822 57.915 11.4771 58.3735 11.4771 58.9565C11.4771 59.6216 11.2646 60.1431 10.8398 60.521C10.418 60.8989 9.83496 61.0879 9.09082 61.0879C8.36719 61.0879 7.81494 60.9722 7.43408 60.7407V60.0376C7.63916 60.1694 7.89404 60.2734 8.19873 60.3496C8.50342 60.4229 8.80371 60.4595 9.09961 60.4595C9.61523 60.4595 10.0151 60.3379 10.2993 60.0947C10.5864 59.8516 10.73 59.5 10.73 59.04C10.73 58.1436 10.1807 57.6953 9.08203 57.6953C8.80371 57.6953 8.43164 57.7378 7.96582 57.8228L7.58789 57.5811L7.82959 54.5752H11.0244V55.2476H8.45361L8.29102 57.1768C8.62793 57.1094 8.96338 57.0757 9.29736 57.0757Z" fill="#828B95"/>
<path d="M11.5474 98.7788C11.5474 99.8892 11.3716 100.718 11.02 101.266C10.6714 101.814 10.1367 102.088 9.41602 102.088C8.72461 102.088 8.19873 101.808 7.83838 101.249C7.47803 100.686 7.29785 99.8628 7.29785 98.7788C7.29785 97.6597 7.47217 96.8291 7.8208 96.2871C8.16943 95.7451 8.70117 95.4741 9.41602 95.4741C10.1133 95.4741 10.6421 95.7568 11.0024 96.3223C11.3657 96.8877 11.5474 97.7065 11.5474 98.7788ZM8.03613 98.7788C8.03613 99.7134 8.146 100.395 8.36572 100.822C8.58545 101.247 8.93555 101.459 9.41602 101.459C9.90234 101.459 10.2539 101.244 10.4707 100.813C10.6904 100.38 10.8003 99.7017 10.8003 98.7788C10.8003 97.856 10.6904 97.1807 10.4707 96.7529C10.2539 96.3223 9.90234 96.1069 9.41602 96.1069C8.93555 96.1069 8.58545 96.3193 8.36572 96.7441C8.146 97.166 8.03613 97.8442 8.03613 98.7788Z" fill="#828B95"/>
<path fill-rule="evenodd" clip-rule="evenodd" d="M102.574 51.5245C104.69 51.5245 106.406 49.8089 106.406 47.6924C106.406 45.576 104.69 43.8604 102.574 43.8604C100.457 43.8604 98.7417 45.576 98.7417 47.6924C98.7417 49.8089 100.457 51.5245 102.574 51.5245ZM102.574 49.5246C103.586 49.5246 104.406 48.7043 104.406 47.6925C104.406 46.6806 103.586 45.8603 102.574 45.8603C101.562 45.8603 100.742 46.6806 100.742 47.6925C100.742 48.7043 101.562 49.5246 102.574 49.5246Z" fill="url(#paint0_linear_901_177331)" fill-opacity="0.1"/>
<path fill-rule="evenodd" clip-rule="evenodd" d="M117.028 23.748C118.6 23.748 119.873 22.4742 119.873 20.9028C119.873 19.3315 118.6 18.0576 117.028 18.0576C115.457 18.0576 114.183 19.3315 114.183 20.9028C114.183 22.4742 115.457 23.748 117.028 23.748ZM117.028 22.1616C117.723 22.1616 118.287 21.598 118.287 20.9028C118.287 20.2076 117.723 19.644 117.028 19.644C116.333 19.644 115.769 20.2076 115.769 20.9028C115.769 21.598 116.333 22.1616 117.028 22.1616Z" fill="url(#paint1_linear_901_177331)" fill-opacity="0.1"/>
<path d="M183.104 11.0986C183.104 11.8234 182.516 12.411 181.791 12.411C181.067 12.411 180.479 11.8234 180.479 11.0986C180.479 10.3737 181.067 9.78613 181.791 9.78613C182.516 9.78613 183.104 10.3737 183.104 11.0986Z" fill="url(#paint2_linear_901_177331)" fill-opacity="0.1"/>
<path fill-rule="evenodd" clip-rule="evenodd" d="M199.866 99.7436C201.373 99.7436 202.595 98.5221 202.595 97.0154C202.595 95.5086 201.373 94.2871 199.866 94.2871C198.36 94.2871 197.138 95.5086 197.138 97.0154C197.138 98.5221 198.36 99.7436 199.866 99.7436ZM199.866 98.3238C200.589 98.3238 201.175 97.738 201.175 97.0154C201.175 96.2927 200.589 95.7069 199.866 95.7069C199.144 95.7069 198.558 96.2927 198.558 97.0154C198.558 97.738 199.144 98.3238 199.866 98.3238Z" fill="url(#paint3_linear_901_177331)" fill-opacity="0.1"/>
<circle cx="156.163" cy="59.8685" r="46.9573" fill="url(#paint4_linear_901_177331)" fill-opacity="0.1"/>
<path opacity="0.08" fill-rule="evenodd" clip-rule="evenodd" d="M106.047 102.995H99.0362C98.9762 102.995 98.9168 102.993 98.8579 102.989C97.2734 102.953 96.0001 101.654 96 100.057C96.0005 99.2781 96.3093 98.5317 96.8587 97.9816C97.1403 97.6996 97.4733 97.4811 97.8355 97.3351C97.8295 97.2558 97.8264 97.1758 97.8264 97.095C97.8269 96.2737 98.1528 95.4862 98.7325 94.9057C99.3121 94.3253 100.098 93.9995 100.917 94C101.967 94.0013 102.893 94.5274 103.45 95.3305C103.715 95.2365 103.999 95.1855 104.296 95.1856C105.606 95.1872 106.682 96.1884 106.807 97.4687C108.062 97.7431 109.001 98.8642 109 100.205C108.999 101.749 107.749 103.001 106.208 103C106.154 103 106.1 102.998 106.047 102.995V102.995Z" fill="#1EC6FA"/>
<path opacity="0.08" fill-rule="evenodd" clip-rule="evenodd" d="M72.0714 66.9965H62.9501C62.8721 66.9965 62.7947 66.9936 62.7181 66.9878C60.6566 66.9395 59.0001 65.2071 59 63.0772C59.0006 62.0391 59.4025 61.0437 60.1172 60.31C60.4835 59.934 60.9167 59.6425 61.388 59.4478C61.3801 59.3421 61.3761 59.2354 61.3761 59.1276C61.3767 58.0323 61.8008 56.982 62.5549 56.2079C63.3091 55.4338 64.3315 54.9993 65.3974 55C66.7628 55.0017 67.9682 55.7034 68.6926 56.7744C69.0367 56.6491 69.407 56.581 69.7928 56.5812C71.4972 56.5833 72.897 57.9185 73.0593 59.626C74.6923 59.9919 75.9144 61.487 75.9129 63.2747C75.9113 65.3347 74.2854 67.0036 72.2808 67.0027C72.2105 67.0027 72.1407 67.0006 72.0714 66.9965V66.9965Z" fill="#1EC6FA"/>
<path opacity="0.08" fill-rule="evenodd" clip-rule="evenodd" d="M212.395 30.9119H205.922C205.867 30.9119 205.812 30.9099 205.757 30.9059C204.294 30.873 203.119 29.6918 203.119 28.2396C203.119 27.5318 203.404 26.8531 203.911 26.3529C204.171 26.0965 204.479 25.8978 204.813 25.765C204.808 25.693 204.805 25.6202 204.805 25.5467C204.805 24.7999 205.106 24.0838 205.642 23.556C206.177 23.0282 206.902 22.732 207.659 22.7324C208.628 22.7336 209.483 23.212 209.997 23.9422C210.241 23.8568 210.504 23.8104 210.778 23.8105C211.988 23.812 212.981 24.7223 213.096 25.8865C214.255 26.136 215.122 27.1554 215.121 28.3742C215.12 29.7788 213.966 30.9167 212.544 30.9161C212.494 30.9161 212.444 30.9147 212.395 30.9119V30.9119Z" fill="#1EC6FA"/>
<g opacity="0.2">
<g filter="url(#filter0_d_901_177331)">
<path d="M134 101C130.686 101 128 98.3137 128 95L128 64C128 60.6863 130.686 58 134 58L148 58C151.314 58 154 60.6863 154 64L154 95C154 98.3137 151.314 101 148 101L134 101Z" fill="#2FC6F6"/>
</g>
<g filter="url(#filter1_d_901_177331)">
<path d="M165 101C161.686 101 159 98.3137 159 95L159 45C159 41.6863 161.686 39 165 39L180 39C183.314 39 186 41.6863 186 45L186 95C186 98.3137 183.314 101 180 101L165 101Z" fill="#2FC6F6"/>
</g>
<g filter="url(#filter2_d_901_177331)">
<path d="M197 101C193.686 101 191 98.3137 191 95L191 77C191 73.6863 193.686 71 197 71L211 71C214.314 71 217 73.6863 217 77L217 95C217 98.3137 214.314 101 211 101L197 101Z" fill="#2FC6F6"/>
</g>
<g filter="url(#filter3_d_901_177331)">
<path d="M103 101C99.6863 101 97 98.3137 97 95L97 77C97 73.6863 99.6863 71 103 71L117 71C120.314 71 123 73.6863 123 77L123 95C123 98.3137 120.314 101 117 101L103 101Z" fill="#2FC6F6"/>
</g>
</g>
<g opacity="0.8" filter="url(#filter4_d_901_177331)">
<path d="M116.578 100.604C113.816 100.604 111.578 98.3649 111.578 95.6035L111.578 43.1391C111.578 40.3776 113.816 38.1391 116.578 38.1391L133.156 38.1391C135.917 38.1391 138.156 40.3776 138.156 43.1391L138.156 95.6035C138.156 98.3649 135.917 100.604 133.156 100.604L116.578 100.604Z" fill="white"/>
<path d="M112.078 95.6035L112.078 43.1391C112.078 40.6538 114.093 38.6391 116.578 38.6391L133.156 38.6391C135.641 38.6391 137.656 40.6538 137.656 43.1391L137.656 95.6035C137.656 98.0888 135.641 100.104 133.156 100.104L116.578 100.104C114.093 100.104 112.078 98.0888 112.078 95.6035Z" stroke="#1EC6FA"/>
</g>
<g opacity="0.8" filter="url(#filter5_d_901_177331)">
<path d="M85 100.604C82.2386 100.604 80 98.3649 80 95.6035L80 76.7121C80 73.9507 82.2386 71.7121 85 71.7121L101.578 71.7121C104.339 71.7121 106.578 73.9507 106.578 76.7121L106.578 95.6035C106.578 98.3649 104.339 100.604 101.578 100.604L85 100.604Z" fill="white"/>
<path d="M80.5 95.6035L80.5 76.7121C80.5 74.2268 82.5147 72.2121 85 72.2121L101.578 72.2121C104.063 72.2121 106.078 74.2268 106.078 76.7121L106.078 95.6035C106.078 98.0888 104.063 100.104 101.578 100.104L85 100.104C82.5147 100.104 80.5 98.0888 80.5 95.6035Z" stroke="#1EC6FA"/>
</g>
<g opacity="0.8" filter="url(#filter6_d_901_177331)">
<path d="M148 101C145.239 101 143 98.7614 143 96L143 32C143 29.2386 145.239 27 148 27L165 27C167.761 27 170 29.2386 170 32L170 96C170 98.7614 167.761 101 165 101L148 101Z" fill="white"/>
<path d="M143.5 96L143.5 32C143.5 29.5147 145.515 27.5 148 27.5L165 27.5C167.485 27.5 169.5 29.5147 169.5 32L169.5 96C169.5 98.4853 167.485 100.5 165 100.5L148 100.5C145.515 100.5 143.5 98.4853 143.5 96Z" stroke="#1EC6FA"/>
</g>
<g opacity="0.8" filter="url(#filter7_d_901_177331)">
<path d="M179.733 100.604C176.972 100.604 174.733 98.3649 174.733 95.6035L174.733 67.0472C174.733 64.2857 176.972 62.0472 179.733 62.0472L196.311 62.0472C199.073 62.0472 201.311 64.2857 201.311 67.0472L201.311 95.6035C201.311 98.3649 199.073 100.604 196.311 100.604L179.733 100.604Z" fill="white"/>
<path d="M175.233 95.6035L175.233 67.0472C175.233 64.5619 177.248 62.5472 179.733 62.5472L196.311 62.5472C198.796 62.5472 200.811 64.5619 200.811 67.0472L200.811 95.6035C200.811 98.0888 198.796 100.104 196.311 100.104L179.733 100.104C177.248 100.104 175.233 98.0888 175.233 95.6035Z" stroke="#1EC6FA"/>
</g>
<g opacity="0.8" filter="url(#filter8_d_901_177331)">
<path d="M211.312 100.604C208.55 100.604 206.312 98.3649 206.312 95.6035L206.312 89.4291C206.312 86.6677 208.55 84.4291 211.312 84.4291L227.889 84.4291C230.651 84.4291 232.889 86.6677 232.889 89.4291L232.889 95.6035C232.889 98.3649 230.651 100.604 227.889 100.604L211.312 100.604Z" fill="white"/>
<path d="M206.812 95.6035L206.812 89.4291C206.812 86.9438 208.826 84.9291 211.312 84.9291L227.889 84.9291C230.375 84.9291 232.389 86.9438 232.389 89.4291L232.389 95.6035C232.389 98.0888 230.375 100.104 227.889 100.104L211.312 100.104C208.826 100.104 206.812 98.0888 206.812 95.6035Z" stroke="#1EC6FA"/>
</g>
</g>
<defs>
<filter id="filter0_d_901_177331" x="125" y="56" width="32" height="49" filterUnits="userSpaceOnUse" color-interpolation-filters="sRGB">
<feFlood flood-opacity="0" result="BackgroundImageFix"/>
<feColorMatrix in="SourceAlpha" type="matrix" values="0 0 0 0 0 0 0 0 0 0 0 0 0 0 0 0 0 0 127 0" result="hardAlpha"/>
<feOffset dy="1"/>
<feGaussianBlur stdDeviation="1.5"/>
<feComposite in2="hardAlpha" operator="out"/>
<feColorMatrix type="matrix" values="0 0 0 0 0 0 0 0 0 0.294033 0 0 0 0 0.3875 0 0 0 0.09 0"/>
<feBlend mode="normal" in2="BackgroundImageFix" result="effect1_dropShadow_901_177331"/>
<feBlend mode="normal" in="SourceGraphic" in2="effect1_dropShadow_901_177331" result="shape"/>
</filter>
<filter id="filter1_d_901_177331" x="156" y="37" width="33" height="68" filterUnits="userSpaceOnUse" color-interpolation-filters="sRGB">
<feFlood flood-opacity="0" result="BackgroundImageFix"/>
<feColorMatrix in="SourceAlpha" type="matrix" values="0 0 0 0 0 0 0 0 0 0 0 0 0 0 0 0 0 0 127 0" result="hardAlpha"/>
<feOffset dy="1"/>
<feGaussianBlur stdDeviation="1.5"/>
<feComposite in2="hardAlpha" operator="out"/>
<feColorMatrix type="matrix" values="0 0 0 0 0 0 0 0 0 0.294033 0 0 0 0 0.3875 0 0 0 0.09 0"/>
<feBlend mode="normal" in2="BackgroundImageFix" result="effect1_dropShadow_901_177331"/>
<feBlend mode="normal" in="SourceGraphic" in2="effect1_dropShadow_901_177331" result="shape"/>
</filter>
<filter id="filter2_d_901_177331" x="188" y="69" width="32" height="36" filterUnits="userSpaceOnUse" color-interpolation-filters="sRGB">
<feFlood flood-opacity="0" result="BackgroundImageFix"/>
<feColorMatrix in="SourceAlpha" type="matrix" values="0 0 0 0 0 0 0 0 0 0 0 0 0 0 0 0 0 0 127 0" result="hardAlpha"/>
<feOffset dy="1"/>
<feGaussianBlur stdDeviation="1.5"/>
<feComposite in2="hardAlpha" operator="out"/>
<feColorMatrix type="matrix" values="0 0 0 0 0 0 0 0 0 0.294033 0 0 0 0 0.3875 0 0 0 0.09 0"/>
<feBlend mode="normal" in2="BackgroundImageFix" result="effect1_dropShadow_901_177331"/>
<feBlend mode="normal" in="SourceGraphic" in2="effect1_dropShadow_901_177331" result="shape"/>
</filter>
<filter id="filter3_d_901_177331" x="94" y="69" width="32" height="36" filterUnits="userSpaceOnUse" color-interpolation-filters="sRGB">
<feFlood flood-opacity="0" result="BackgroundImageFix"/>
<feColorMatrix in="SourceAlpha" type="matrix" values="0 0 0 0 0 0 0 0 0 0 0 0 0 0 0 0 0 0 127 0" result="hardAlpha"/>
<feOffset dy="1"/>
<feGaussianBlur stdDeviation="1.5"/>
<feComposite in2="hardAlpha" operator="out"/>
<feColorMatrix type="matrix" values="0 0 0 0 0 0 0 0 0 0.294033 0 0 0 0 0.3875 0 0 0 0.09 0"/>
<feBlend mode="normal" in2="BackgroundImageFix" result="effect1_dropShadow_901_177331"/>
<feBlend mode="normal" in="SourceGraphic" in2="effect1_dropShadow_901_177331" result="shape"/>
</filter>
<filter id="filter4_d_901_177331" x="108.578" y="36.1387" width="32.5779" height="68.4648" filterUnits="userSpaceOnUse" color-interpolation-filters="sRGB">
<feFlood flood-opacity="0" result="BackgroundImageFix"/>
<feColorMatrix in="SourceAlpha" type="matrix" values="0 0 0 0 0 0 0 0 0 0 0 0 0 0 0 0 0 0 127 0" result="hardAlpha"/>
<feOffset dy="1"/>
<feGaussianBlur stdDeviation="1.5"/>
<feComposite in2="hardAlpha" operator="out"/>
<feColorMatrix type="matrix" values="0 0 0 0 0 0 0 0 0 0.294033 0 0 0 0 0.3875 0 0 0 0.09 0"/>
<feBlend mode="normal" in2="BackgroundImageFix" result="effect1_dropShadow_901_177331"/>
<feBlend mode="normal" in="SourceGraphic" in2="effect1_dropShadow_901_177331" result="shape"/>
</filter>
<filter id="filter5_d_901_177331" x="77" y="69.7119" width="32.5779" height="34.8916" filterUnits="userSpaceOnUse" color-interpolation-filters="sRGB">
<feFlood flood-opacity="0" result="BackgroundImageFix"/>
<feColorMatrix in="SourceAlpha" type="matrix" values="0 0 0 0 0 0 0 0 0 0 0 0 0 0 0 0 0 0 127 0" result="hardAlpha"/>
<feOffset dy="1"/>
<feGaussianBlur stdDeviation="1.5"/>
<feComposite in2="hardAlpha" operator="out"/>
<feColorMatrix type="matrix" values="0 0 0 0 0 0 0 0 0 0.294033 0 0 0 0 0.3875 0 0 0 0.09 0"/>
<feBlend mode="normal" in2="BackgroundImageFix" result="effect1_dropShadow_901_177331"/>
<feBlend mode="normal" in="SourceGraphic" in2="effect1_dropShadow_901_177331" result="shape"/>
</filter>
<filter id="filter6_d_901_177331" x="140" y="25" width="33" height="80" filterUnits="userSpaceOnUse" color-interpolation-filters="sRGB">
<feFlood flood-opacity="0" result="BackgroundImageFix"/>
<feColorMatrix in="SourceAlpha" type="matrix" values="0 0 0 0 0 0 0 0 0 0 0 0 0 0 0 0 0 0 127 0" result="hardAlpha"/>
<feOffset dy="1"/>
<feGaussianBlur stdDeviation="1.5"/>
<feComposite in2="hardAlpha" operator="out"/>
<feColorMatrix type="matrix" values="0 0 0 0 0 0 0 0 0 0.294033 0 0 0 0 0.3875 0 0 0 0.09 0"/>
<feBlend mode="normal" in2="BackgroundImageFix" result="effect1_dropShadow_901_177331"/>
<feBlend mode="normal" in="SourceGraphic" in2="effect1_dropShadow_901_177331" result="shape"/>
</filter>
<filter id="filter7_d_901_177331" x="171.733" y="60.0469" width="32.5776" height="44.5566" filterUnits="userSpaceOnUse" color-interpolation-filters="sRGB">
<feFlood flood-opacity="0" result="BackgroundImageFix"/>
<feColorMatrix in="SourceAlpha" type="matrix" values="0 0 0 0 0 0 0 0 0 0 0 0 0 0 0 0 0 0 127 0" result="hardAlpha"/>
<feOffset dy="1"/>
<feGaussianBlur stdDeviation="1.5"/>
<feComposite in2="hardAlpha" operator="out"/>
<feColorMatrix type="matrix" values="0 0 0 0 0 0 0 0 0 0.294033 0 0 0 0 0.3875 0 0 0 0.09 0"/>
<feBlend mode="normal" in2="BackgroundImageFix" result="effect1_dropShadow_901_177331"/>
<feBlend mode="normal" in="SourceGraphic" in2="effect1_dropShadow_901_177331" result="shape"/>
</filter>
<filter id="filter8_d_901_177331" x="203.312" y="82.4287" width="32.5776" height="22.1748" filterUnits="userSpaceOnUse" color-interpolation-filters="sRGB">
<feFlood flood-opacity="0" result="BackgroundImageFix"/>
<feColorMatrix in="SourceAlpha" type="matrix" values="0 0 0 0 0 0 0 0 0 0 0 0 0 0 0 0 0 0 127 0" result="hardAlpha"/>
<feOffset dy="1"/>
<feGaussianBlur stdDeviation="1.5"/>
<feComposite in2="hardAlpha" operator="out"/>
<feColorMatrix type="matrix" values="0 0 0 0 0 0 0 0 0 0.294033 0 0 0 0 0.3875 0 0 0 0.09 0"/>
<feBlend mode="normal" in2="BackgroundImageFix" result="effect1_dropShadow_901_177331"/>
<feBlend mode="normal" in="SourceGraphic" in2="effect1_dropShadow_901_177331" result="shape"/>
</filter>
<linearGradient id="paint0_linear_901_177331" x1="102.574" y1="43.8604" x2="102.574" y2="51.5245" gradientUnits="userSpaceOnUse">
<stop stop-color="#1EC6FA"/>
<stop offset="1" stop-color="#1EC6FA"/>
</linearGradient>
<linearGradient id="paint1_linear_901_177331" x1="117.028" y1="18.0576" x2="117.028" y2="23.748" gradientUnits="userSpaceOnUse">
<stop stop-color="#1EC6FA"/>
<stop offset="1" stop-color="#1EC6FA"/>
</linearGradient>
<linearGradient id="paint2_linear_901_177331" x1="173.715" y1="7.40946" x2="173.715" y2="13.0999" gradientUnits="userSpaceOnUse">
<stop stop-color="#1EC6FA"/>
<stop offset="1" stop-color="#1EC6FA"/>
</linearGradient>
<linearGradient id="paint3_linear_901_177331" x1="199.866" y1="94.2871" x2="199.866" y2="99.7436" gradientUnits="userSpaceOnUse">
<stop stop-color="#1EC6FA"/>
<stop offset="1" stop-color="#1EC6FA"/>
</linearGradient>
<linearGradient id="paint4_linear_901_177331" x1="156.163" y1="12.9111" x2="156.163" y2="106.826" gradientUnits="userSpaceOnUse">
<stop stop-color="#1EC6FA"/>
<stop offset="1" stop-color="#1EC6FA"/>
</linearGradient>
<clipPath id="clip0_901_177331">
<rect width="297" height="118" fill="white"/>
</clipPath>
</defs>
</svg>
