<svg width="108" height="108" viewBox="0 0 108 108" fill="none" xmlns="http://www.w3.org/2000/svg">
	<path d="M88.8159 75.7399C88.8159 79.9845 85.6162 83.5465 81.3958 84L14.9052 91.1444C9.99402 91.6721 5.70996 87.8238 5.70996 82.8843V20.1045C5.70996 15.2452 9.86239 11.4233 14.7051 11.8253L81.1957 17.3459C85.5025 17.7035 88.8159 21.3034 88.8159 25.6251V75.7399Z" fill="#1BCE7B" fill-opacity="0.78"/>
	<path fill-rule="evenodd" clip-rule="evenodd" d="M14.6981 89.2171L81.1887 82.0726C84.4243 81.725 86.8775 78.9941 86.8775 75.7399V25.6251C86.8775 22.3118 84.3372 19.5519 81.0353 19.2778L14.5447 13.7571C10.832 13.4489 7.64842 16.3791 7.64842 20.1045V82.8843C7.64842 86.6712 10.9329 89.6216 14.6981 89.2171ZM81.3958 84C85.6162 83.5465 88.8159 79.9845 88.8159 75.7399V25.6251C88.8159 21.3034 85.5025 17.7035 81.1957 17.3459L14.7051 11.8253C9.86239 11.4233 5.70996 15.2452 5.70996 20.1045V82.8843C5.70996 87.8238 9.99402 91.6721 14.9052 91.1444L81.3958 84Z" fill="white" fill-opacity="0.16"/>
	<path fill-rule="evenodd" clip-rule="evenodd" d="M10.3433 14.5124L51.1417 51.4632C51.8511 52.1057 52.9393 52.0807 53.6184 51.4063L85.1635 20.0815L86.5294 21.457L54.9843 52.7818C53.5738 54.1824 51.3138 54.2344 49.8405 52.9L9.04199 15.9492L10.3433 14.5124Z" fill="white" fill-opacity="0.16"/>
	<path d="M103.846 80.0949C103.846 84.197 100.646 87.6479 96.4044 88.1197L79.9909 89.9454C74.9971 90.5008 70.6152 86.7502 70.6152 81.9205V59.5996C70.6152 55.196 74.2862 51.6036 78.869 51.5226L95.2826 51.2322C99.9863 51.149 103.846 54.7894 103.846 59.3093V80.0949Z" fill="#1B79E6" fill-opacity="0.78"/>
	<path fill-rule="evenodd" clip-rule="evenodd" d="M79.8378 88.5692L96.2514 86.7436C99.8357 86.3449 102.461 83.4482 102.461 80.0949V59.3093C102.461 55.6169 99.2908 52.5461 95.3071 52.6166L78.8935 52.907C75.0143 52.9756 71.9998 56.0015 71.9998 59.5996V81.9205C71.9998 85.8644 75.6029 89.0403 79.8378 88.5692ZM96.4044 88.1197C100.646 87.6479 103.846 84.197 103.846 80.0949V59.3093C103.846 54.7894 99.9863 51.149 95.2826 51.2322L78.869 51.5226C74.2862 51.6036 70.6152 55.196 70.6152 59.5996V81.9205C70.6152 86.7502 74.9971 90.5008 79.9909 89.9454L96.4044 88.1197Z" fill="white" fill-opacity="0.16"/>
	<g filter="url(#filter0_d_8285_14308)">
		<path d="M88.6746 82.581C87.1619 82.7188 85.8457 81.6247 85.8457 80.2267V79.8113C85.8457 78.5896 86.8615 77.5745 88.1866 77.4711C89.686 77.3556 90.9757 78.4457 90.9757 79.8275V80.2429C90.9757 81.4504 89.9819 82.4594 88.6746 82.579V82.581Z" fill="white" fill-opacity="0.9" shape-rendering="crispEdges"/>
		<path d="M88.6083 74.373C87.1177 74.4762 85.8457 73.511 85.8457 72.2747V60.0981C85.8457 58.9468 86.9587 57.9998 88.3522 57.9654C89.792 57.931 90.9757 58.88 90.9757 60.0698V72.2464C90.9757 73.3532 89.9444 74.2799 88.6083 74.3709V74.373Z" fill="white" fill-opacity="0.9" shape-rendering="crispEdges"/>
	</g>
	<g filter="url(#filter1_d_8285_14308)">
		<path d="M18.3607 81.6061C18.3623 81.6057 18.3627 81.6035 18.3613 81.6026C16.4826 80.4432 15.0263 78.6718 14.006 76.2864C12.9781 73.891 12.4619 71.0257 12.4619 67.7028C12.4619 64.146 13.0031 61.0033 14.0856 58.2849C15.1612 55.579 16.6756 53.4963 18.6176 52.0325C20.546 50.5833 22.7722 49.8566 25.2896 49.8463C27.8183 49.8359 29.9945 50.428 31.8251 51.6185C33.6397 52.7986 35.0178 54.4672 35.9683 56.6225C36.9143 58.7694 37.385 61.2869 37.385 64.1791C37.385 66.4109 37.1121 68.3757 36.5686 70.0713C36.0229 71.7731 35.2633 73.1022 34.2901 74.0608C33.3123 75.0235 32.2071 75.5452 30.97 75.6239C30.3083 75.6653 29.6761 75.4396 29.0712 74.9427C28.4734 74.4517 28.0111 73.7583 27.6864 72.8628C27.6796 72.8441 27.6613 72.8319 27.6414 72.8333C27.6244 72.8344 27.6095 72.8453 27.6031 72.8611C27.1969 73.859 26.641 74.6391 25.9308 75.2015C25.2123 75.7709 24.4414 76.0814 23.6159 76.1332C22.0809 76.2305 20.828 75.5804 19.8638 74.1767C18.8951 72.7668 18.4084 70.7814 18.4084 68.2183C18.4084 65.8023 18.6881 63.7278 19.2475 61.9991C19.8047 60.2745 20.5778 58.9661 21.5602 58.0696C22.538 57.1773 23.6477 56.7218 24.8848 56.697C25.5624 56.6846 26.156 56.8481 26.6653 57.1918C26.8925 57.3441 27.1011 57.5207 27.2914 57.7215C27.5317 57.975 28.0275 57.8738 28.0819 57.5287C28.1096 57.3529 28.2593 57.2222 28.4372 57.2184L29.3942 57.198C30.3176 57.1784 31.0427 57.9841 30.9262 58.9003L29.6124 69.2307C29.592 69.3715 29.5829 69.5827 29.5829 69.8642C29.5829 70.3984 29.6693 70.8062 29.8398 71.0919C30.0104 71.3777 30.2469 71.5122 30.5471 71.4957C31.4271 71.448 32.1184 70.7773 32.6255 69.4812C33.1303 68.1894 33.3827 66.4751 33.3827 64.3323C33.3827 60.9391 32.7233 58.4443 31.3998 56.8419C30.0672 55.2291 28.0366 54.4403 25.2827 54.4817C22.6404 54.5211 20.5687 55.668 19.0861 57.935C17.5943 60.2165 16.8439 63.4131 16.8439 67.5144C16.8439 71.181 17.5511 73.9635 18.9587 75.8495C20.3573 77.7253 22.3379 78.57 24.8802 78.396C25.9712 78.3208 26.9909 78.1378 27.9401 77.8475C29.3152 77.4269 30.9928 78.3435 30.9928 79.7815C30.9928 80.2885 30.7827 80.7792 30.3774 81.0837C28.8777 82.2108 27.0484 82.863 24.8802 83.0336C22.4011 83.2301 20.2239 82.7589 18.3601 81.6096C18.3587 81.6087 18.359 81.6065 18.3607 81.6061ZM25.658 70.5692C25.658 70.5685 25.6581 70.5679 25.6584 70.5672C26.0675 69.7825 26.3743 68.4536 26.5789 66.5807C26.6608 65.8706 26.7017 65.1501 26.7017 64.4152C26.7017 63.1171 26.5539 62.1461 26.2583 61.5063C25.9604 60.8645 25.5579 60.5499 25.044 60.5664C24.2003 60.5913 23.534 61.2496 23.0474 62.5457C22.5585 63.8437 22.3152 65.6366 22.3152 67.9181C22.3152 69.2307 22.4766 70.2141 22.7973 70.8663C23.1179 71.5184 23.5591 71.829 24.1162 71.8C24.7345 71.7669 25.2482 71.3573 25.6575 70.5711C25.6578 70.5705 25.658 70.5699 25.658 70.5692Z" fill="white" fill-opacity="0.9" shape-rendering="crispEdges"/>
	</g>
	<defs>
		<filter id="filter0_d_8285_14308" x="75.8457" y="51.9645" width="25.1299" height="44.6282" filterUnits="userSpaceOnUse" color-interpolation-filters="sRGB">
			<feFlood flood-opacity="0" result="BackgroundImageFix"/>
			<feColorMatrix in="SourceAlpha" type="matrix" values="0 0 0 0 0 0 0 0 0 0 0 0 0 0 0 0 0 0 127 0" result="hardAlpha"/>
			<feOffset dy="4"/>
			<feGaussianBlur stdDeviation="5"/>
			<feComposite in2="hardAlpha" operator="out"/>
			<feColorMatrix type="matrix" values="0 0 0 0 0 0 0 0 0 0 0 0 0 0 0 0 0 0 0.05 0"/>
			<feBlend mode="normal" in2="BackgroundImageFix" result="effect1_dropShadow_8285_14308"/>
			<feBlend mode="normal" in="SourceGraphic" in2="effect1_dropShadow_8285_14308" result="shape"/>
		</filter>
		<filter id="filter1_d_8285_14308" x="2.46191" y="43.8462" width="44.9229" height="53.2308" filterUnits="userSpaceOnUse" color-interpolation-filters="sRGB">
			<feFlood flood-opacity="0" result="BackgroundImageFix"/>
			<feColorMatrix in="SourceAlpha" type="matrix" values="0 0 0 0 0 0 0 0 0 0 0 0 0 0 0 0 0 0 127 0" result="hardAlpha"/>
			<feOffset dy="4"/>
			<feGaussianBlur stdDeviation="5"/>
			<feComposite in2="hardAlpha" operator="out"/>
			<feColorMatrix type="matrix" values="0 0 0 0 0 0 0 0 0 0 0 0 0 0 0 0 0 0 0.05 0"/>
			<feBlend mode="normal" in2="BackgroundImageFix" result="effect1_dropShadow_8285_14308"/>
			<feBlend mode="normal" in="SourceGraphic" in2="effect1_dropShadow_8285_14308" result="shape"/>
		</filter>
	</defs>
</svg>
