<svg width="152" height="110" viewBox="0 0 152 110" fill="none" xmlns="http://www.w3.org/2000/svg">
	<path d="M35.8933 27.7417C35.8933 19.6538 43.2003 13.2236 51.8923 13.6625L103.923 16.2897C111.972 16.6961 118.275 22.879 118.275 30.3689V78.6243C118.275 86.0018 112.154 92.1321 104.236 92.6847L52.2055 96.316C43.4013 96.9305 35.8933 90.459 35.8933 82.2557V27.7417Z" fill="#224A7D" fill-opacity="0.8"/>
	<path d="M36.5933 27.7417C36.5933 20.1055 43.512 13.9402 51.857 14.3616L103.887 16.9888C111.61 17.3787 117.575 23.2959 117.575 30.3689V78.6243C117.575 85.5915 111.782 91.4563 104.187 91.9864L52.1568 95.6177C43.7029 96.2077 36.5933 90.0006 36.5933 82.2557V27.7417Z" stroke="#1587FA" stroke-opacity="0.16" stroke-width="1.4"/>
	<path d="M108.519 29.1391C108.519 24.5419 112.64 20.8735 117.575 21.0772L132.751 21.7035C137.386 21.8949 141.038 25.4476 141.038 29.7654V46.5583C141.038 50.9625 137.243 54.5533 132.511 54.6269L117.336 54.8629C112.491 54.9382 108.519 51.3038 108.519 46.7942V29.1391Z" fill="#1BCE7B" fill-opacity="0.78"/>
	<path d="M109.019 29.1391C109.019 24.8615 112.867 21.3833 117.555 21.5768L132.73 22.2031C137.13 22.3847 140.538 25.747 140.538 29.7654V46.5583C140.538 50.6569 136.996 54.0571 132.504 54.127L117.328 54.3629C112.727 54.4345 109.019 50.9906 109.019 46.7942V29.1391Z" stroke="black" stroke-opacity="0.16"/>
	<g filter="url(#filter0_d_8531_178462)">
		<path d="M133.45 47.2345C133.158 42.5051 129.403 41.2718 125.98 41.2463C122.557 41.2208 118.585 42.4337 118.275 47.2982V47.5173C118.275 47.7492 118.45 47.9378 118.664 47.9378L133.079 47.8588C133.284 47.8588 133.447 47.6728 133.447 47.446V47.2345H133.45Z" fill="white" fill-opacity="0.9" shape-rendering="crispEdges"/>
		<path d="M123.836 29.4458C124.044 29.2878 124.378 29.1069 124.795 28.9693C125.199 28.8317 125.615 28.7629 125.959 28.7731C127.301 28.8138 128.224 29.4534 128.83 30.3504C129.445 31.2728 129.759 32.5367 129.734 33.8312C129.71 35.1256 129.348 36.3895 128.697 37.2967C128.067 38.1936 127.156 38.7644 125.959 38.7517C123.995 38.7288 122.708 37.126 122.288 35.011C121.866 32.8807 122.424 30.567 123.848 29.4458H123.836Z" fill="white" fill-opacity="0.9" shape-rendering="crispEdges"/>
	</g>
	<g filter="url(#filter1_d_8531_178462)">
		<path fill-rule="evenodd" clip-rule="evenodd" d="M66.7352 34.5695C66.3216 34.199 65.9148 34.2725 65.7201 34.4482C63.6552 36.3037 61.2738 39.7307 61.2321 44.7353C61.1904 49.7495 63.4918 56.7152 71.5187 65.431C79.424 73.8561 85.4625 76.0279 89.7246 75.798C93.9206 75.5712 96.7955 72.997 98.3634 70.7965C98.5128 70.5889 98.5789 70.1641 98.2799 69.7426C95.4363 65.7408 92.9611 63.4285 91.6679 62.3617C91.5636 62.2755 91.4662 62.2468 91.3932 62.2404C91.3237 62.2372 91.2576 62.2532 91.1951 62.3011C90.3538 62.9111 89.0467 64.0736 87.8091 66.0601C87.5171 66.5296 86.94 67.3632 85.9666 67.6985C84.9411 68.0499 83.8495 67.97 82.8517 67.7241C81.8366 67.475 80.7972 67.0215 79.8099 66.4721C77.8318 65.3767 75.8886 63.8053 74.5432 62.3458L74.2442 62.0232C72.8919 60.5541 71.411 58.4047 70.3541 56.1882C69.8223 55.0736 69.3738 53.8919 69.1131 52.7325C68.8558 51.5923 68.7515 50.334 69.0505 49.1491C69.3356 48.0217 70.1004 47.351 70.528 47.0125C72.3496 45.5817 73.3995 44.0646 73.9487 43.0873C73.9904 43.0139 74.0044 42.9372 74.0009 42.8574C73.9939 42.7711 73.9626 42.6562 73.8827 42.5348C72.8606 41.0114 70.6288 38.0507 66.7318 34.5695H66.7352ZM68.828 67.8135C60.589 58.8294 57.6793 51.0334 57.7314 44.6842C57.7835 38.2519 60.8741 33.8637 63.4987 31.5259C65.157 30.0471 67.3992 30.3825 68.8628 31.6983C72.9788 35.4063 75.3914 38.6001 76.5595 40.3534C77.446 41.6853 77.6441 43.5217 76.7889 45.0515C76.0554 46.3673 74.724 48.2708 72.4956 50.037C72.433 50.0849 72.3844 50.1264 72.3461 50.1647C72.3218 50.1871 72.3044 50.2062 72.294 50.219C72.2279 50.5576 72.2314 51.0845 72.3983 51.8255C72.5721 52.608 72.8989 53.5022 73.3438 54.4412C74.2338 56.3191 75.4992 58.1619 76.6012 59.3692L76.8967 59.6918C77.9952 60.8926 79.6535 62.25 81.3256 63.1889C82.1565 63.6552 82.9421 63.9906 83.6305 64.163C84.2805 64.3259 84.7394 64.3195 85.0349 64.2429C85.0488 64.2301 85.0627 64.2109 85.0836 64.1854C85.1149 64.1439 85.1531 64.0896 85.1948 64.0225C86.7314 61.5697 88.3827 60.091 89.5264 59.2734C90.8509 58.3216 92.4292 58.5101 93.5625 59.4522C95.0399 60.685 97.6959 63.2017 100.7 67.4558C101.749 68.9441 101.972 71.2532 100.731 73.0066C98.7666 75.7788 95.113 79.1003 89.7559 79.4197C84.3814 79.7391 77.6163 77.0148 69.4294 68.4587C69.4016 68.4331 69.3738 68.4044 69.346 68.3756L68.908 67.9093C68.8802 67.8806 68.8558 67.8518 68.8315 67.8199L68.828 67.8135Z" fill="#035FCF"/>
	</g>
	<path d="M32.8726 57.2725L47.5001 57.0379C51.1142 56.98 54.0769 59.7366 54.0769 63.1573V82.1736C54.0769 85.3799 51.462 88.0428 48.0829 88.2774L27.3121 89.7196L23.1403 95.8003C22.5443 96.6689 21.182 96.6136 20.6669 95.6999L17.7882 90.5937L17.6903 90.5975C14.0189 90.738 10.9615 87.9594 10.9615 84.4822V63.8422C10.9615 60.5349 13.738 57.8259 17.2313 57.7249L32.8726 57.2725Z" fill="#1B79E6" fill-opacity="0.78"/>
	<path d="M27.2775 89.2208C27.1252 89.2313 26.9861 89.3109 26.8998 89.4367L22.728 95.5174C22.339 96.0845 21.4337 96.042 21.1024 95.4543L18.2237 90.3482C18.1317 90.185 17.9562 90.0869 17.769 90.0941L17.6711 90.0978C14.2554 90.2286 11.4615 87.6486 11.4615 84.4822V63.8422C11.4615 60.83 13.9977 58.3186 17.2457 58.2247L32.8839 57.7724L32.8871 57.7723L47.5081 57.5379C50.87 57.484 53.5769 60.0421 53.5769 63.1573V82.1736C53.5769 85.0942 51.1889 87.5605 48.0482 87.7786L27.2775 89.2208Z" stroke="black" stroke-opacity="0.16" stroke-linejoin="round"/>
	<g filter="url(#filter2_d_8531_178462)">
		<path d="M19 68.6432C19 67.2714 20.0872 66.1465 21.4581 66.0996L45.6921 65.2719C47.0799 65.2245 48.2308 66.3367 48.2308 67.7253C48.2308 69.0414 47.1929 70.1233 45.878 70.178L21.6508 71.186C20.205 71.2462 19 70.0903 19 68.6432Z" fill="white" fill-opacity="0.9" shape-rendering="crispEdges"/>
	</g>
	<g filter="url(#filter3_d_8531_178462)">
		<path d="M19 80.219C19 78.8959 20.0388 77.8058 21.3604 77.742L39.853 76.8505C41.231 76.784 42.3846 77.8834 42.3846 79.263C42.3846 80.5452 41.3827 81.604 40.1024 81.6746L21.6165 82.6951C20.1954 82.7735 19 81.6423 19 80.219Z" fill="white" fill-opacity="0.9" shape-rendering="crispEdges"/>
	</g>
	<defs>
		<filter id="filter0_d_8531_178462" x="108.275" y="22.7721" width="35.1755" height="39.1657" filterUnits="userSpaceOnUse" color-interpolation-filters="sRGB">
			<feFlood flood-opacity="0" result="BackgroundImageFix"/>
			<feColorMatrix in="SourceAlpha" type="matrix" values="0 0 0 0 0 0 0 0 0 0 0 0 0 0 0 0 0 0 127 0" result="hardAlpha"/>
			<feOffset dy="4"/>
			<feGaussianBlur stdDeviation="5"/>
			<feComposite in2="hardAlpha" operator="out"/>
			<feColorMatrix type="matrix" values="0 0 0 0 0 0 0 0 0 0 0 0 0 0 0 0 0 0 0.05 0"/>
			<feBlend mode="normal" in2="BackgroundImageFix" result="effect1_dropShadow_8531_178462"/>
			<feBlend mode="normal" in="SourceGraphic" in2="effect1_dropShadow_8531_178462" result="shape"/>
		</filter>
		<filter id="filter1_d_8531_178462" x="47.7307" y="24.5556" width="63.8462" height="68.8889" filterUnits="userSpaceOnUse" color-interpolation-filters="sRGB">
			<feFlood flood-opacity="0" result="BackgroundImageFix"/>
			<feColorMatrix in="SourceAlpha" type="matrix" values="0 0 0 0 0 0 0 0 0 0 0 0 0 0 0 0 0 0 127 0" result="hardAlpha"/>
			<feOffset dy="4"/>
			<feGaussianBlur stdDeviation="5"/>
			<feComposite in2="hardAlpha" operator="out"/>
			<feColorMatrix type="matrix" values="0 0 0 0 0 0 0 0 0 0 0 0 0 0 0 0 0 0 0.05 0"/>
			<feBlend mode="normal" in2="BackgroundImageFix" result="effect1_dropShadow_8531_178462"/>
			<feBlend mode="normal" in="SourceGraphic" in2="effect1_dropShadow_8531_178462" result="shape"/>
		</filter>
		<filter id="filter2_d_8531_178462" x="9" y="59.2704" width="49.2307" height="25.9178" filterUnits="userSpaceOnUse" color-interpolation-filters="sRGB">
			<feFlood flood-opacity="0" result="BackgroundImageFix"/>
			<feColorMatrix in="SourceAlpha" type="matrix" values="0 0 0 0 0 0 0 0 0 0 0 0 0 0 0 0 0 0 127 0" result="hardAlpha"/>
			<feOffset dy="4"/>
			<feGaussianBlur stdDeviation="5"/>
			<feComposite in2="hardAlpha" operator="out"/>
			<feColorMatrix type="matrix" values="0 0 0 0 0 0 0 0 0 0 0 0 0 0 0 0 0 0 0.05 0"/>
			<feBlend mode="normal" in2="BackgroundImageFix" result="effect1_dropShadow_8531_178462"/>
			<feBlend mode="normal" in="SourceGraphic" in2="effect1_dropShadow_8531_178462" result="shape"/>
		</filter>
		<filter id="filter3_d_8531_178462" x="9" y="70.8476" width="43.3846" height="25.8513" filterUnits="userSpaceOnUse" color-interpolation-filters="sRGB">
			<feFlood flood-opacity="0" result="BackgroundImageFix"/>
			<feColorMatrix in="SourceAlpha" type="matrix" values="0 0 0 0 0 0 0 0 0 0 0 0 0 0 0 0 0 0 127 0" result="hardAlpha"/>
			<feOffset dy="4"/>
			<feGaussianBlur stdDeviation="5"/>
			<feComposite in2="hardAlpha" operator="out"/>
			<feColorMatrix type="matrix" values="0 0 0 0 0 0 0 0 0 0 0 0 0 0 0 0 0 0 0.05 0"/>
			<feBlend mode="normal" in2="BackgroundImageFix" result="effect1_dropShadow_8531_178462"/>
			<feBlend mode="normal" in="SourceGraphic" in2="effect1_dropShadow_8531_178462" result="shape"/>
		</filter>
	</defs>
</svg>
