<svg xmlns="http://www.w3.org/2000/svg" width="25" height="918" viewBox="0 0 25 918"><g fill="none" fill-rule="evenodd"><g fill="#367BCC"><path d="M3 904h9c1.657 0 3 1.343 3 3v8c0 1.657-1.343 3-3 3H3c-1.657 0-3-1.343-3-3v-8c0-1.657 1.343-3 3-3zm-.2 1.68c-.55 0-1 .45-1 1v8.64c0 .55.45 1 1 1h9.4c.55 0 1-.45 1-1v-8.64c0-.55-.45-1-1-1H2.8z"/><path d="M10.415 910.922c0-.13-.064-.253-.172-.33l-3.053-2.93c-.128-.09-.297-.103-.44-.034-.14.07-.23.21-.23.365v1.648H1.928c-.233 0-.42.184-.42.41v1.744c0 .226.187.41.42.41H6.52v1.647c0 .155.09.296.23.366.143.07.313.056.44-.035l3.053-2.928c.108-.077.172-.2.172-.33"/></g><g fill="#367BCC"><path d="M9.51 883.172c-.282 0-.51-.23-.51-.51 0-.284.228-.512.51-.512.282 0 .51.228.51.51 0 .283-.228.512-.51.512zm1.06-13.297v-.375H8.87v.375h1.703zm-2.725 0h.375v-.375h-.375v.375zm-2.16-1.136c-.376 0-.684.306-.684.68v2.047h1.244v-.696c0-.185.15-.337.337-.337h5.794c.186 0 .34.153.34.34v10.41c0 .186-.154.337-.34.337H6.58c-.186 0-.337-.152-.337-.338V879H5v4.058c0 .375.31.68.684.68h7.558c.375 0 .68-.305.68-.68V869.42c0-.374-.304-.68-.68-.68H5.685z"/><path d="M4.704 875.954c-.408 0-.783-.34-.783-.75 0-.408.34-.75.784-.75.41 0 .785.342.785.75 0 .41-.376.75-.785.75zm-2.18 0c-.41 0-.785-.34-.785-.75 0-.408.34-.75.783-.75.407 0 .782.342.782.75 0 .41-.375.75-.782.75zm4.362-1.5c.41 0 .784.342.784.75 0 .41-.343.75-.785.75-.41 0-.784-.34-.784-.75 0-.408.344-.75.785-.75zm.954 4.875v-1.126h.683c.375 0 .682-.306.682-.68v-4.433c0-.374-.306-.68-.68-.68H.68c-.375 0-.68.306-.68.68v4.433c0 .375.306.682.68.682H6l1.84 1.125z"/></g><path fill="#367BCC" d="M3.166 838.877v-1.8c0-.093.094-.28.188-.375 3.292-2.822 6.113 0 6.113 0 .095.094.095.188.095.376v1.8h.578c.47 0 .846.375.94.75l1.035 7.43c.094.566-.282 1.036-.847 1.036h-9.97c-.563 0-.94-.47-.94-1.035l1.035-7.43c.094-.47.47-.754.94-.754h.833zm.94 0H8.62v-1.517c-.47-.47-2.35-1.693-4.512 0v1.517h-.002zm-.904 1.126c-.304.155-.512.472-.512.837 0 .52.42.94.94.94s.94-.42.94-.94c0-.355-.196-.665-.487-.825-.06.143-.223.26-.447.26-.21 0-.367-.103-.434-.272zm5.45-.016c-.322.15-.545.475-.545.853 0 .52.42.94.94.94s.94-.42.94-.94c0-.35-.19-.653-.47-.815-.072.156-.225.25-.426.25-.214 0-.375-.11-.44-.288h.002zm6.888.218c-.55 0-.994-.444-.994-.994 0-.547.445-.99.994-.99h5.143c.55 0 .993.443.993.992 0 .55-.444.995-.993.995H15.54v-.002zm5.143 1.286c.55 0 .993.446.993.995 0 .55-.444.994-.993.994H15.54c-.55 0-.994-.445-.994-.995s.445-.993.994-.993h5.143zm-1.246 3.157c.438 0 .792.445.792.994 0 .55-.356.994-.794.994h-4.1c-.437 0-.79-.444-.79-.993 0-.55.353-.993.79-.993h4.1zM17.842 726.42H2.392c-1.086 0-1.983.888-1.983 1.965v13.65c0 1.077.896 1.965 1.98 1.965h15.452c1.085 0 1.98-.888 1.98-1.966v-13.648c0-1.078-.895-1.966-1.98-1.966zm-.248 14.782c0 .38-.305.68-.686.68H3.325c-.382 0-.686-.3-.686-.68v-11.967c0-.377.304-.68.685-.68h13.583c.38 0 .686.303.686.68v11.97-.003zm-2.458-6.276H10.47c-.383 0-.706.322-.706.7v.68c0 .38.324.7.705.7h4.666c.382 0 .705-.32.705-.7v-.68c.02-.38-.304-.7-.704-.7zm-4.42-4.102l-.476-.473c-.267-.263-.724-.263-1.01 0l-2.724 2.705-.933-.927c-.266-.264-.724-.264-1.01 0l-.476.473c-.267.266-.267.72 0 1.002l1.43 1.42.475.47c.267.266.724.266 1.01 0l3.715-3.685c.267-.265.267-.7 0-.983zm4.42 7.316H10.47c-.383 0-.706.322-.706.7v.68c0 .378.324.7.705.7h4.666c.382 0 .705-.323.705-.7v-.68c.02-.378-.304-.7-.704-.7zM3.58 774.754v5.607c0 .408.33.737.735.737.406 0 .736-.33.736-.735v-5.607c0-.016.015-.03.03-.03h1.563c.016 0 .03.014.03.03v4.648c0 .826.673 1.498 1.5 1.498h1.563c.827 0 1.5-.67 1.5-1.497v-7.548h1.616c.202 0 .302-.24.16-.383l-2.412-2.406c-.088-.088-.23-.088-.318 0l-2.41 2.407c-.142.14-.042.383.158.383h1.733v7.546c0 .016-.013.028-.028.028H8.172c-.016 0-.03-.012-.03-.028v-4.648c0-.826-.672-1.498-1.5-1.498H5.08c-.828 0-1.5.672-1.5 1.498zm9.883-1.76v8.775c0 .382-.313.694-.697.694H2.234c-.384 0-.697-.312-.697-.696v-9.4c0-.383.313-.695.697-.695h3.934v-1.533H2.234c-1.232 0-2.234 1-2.234 2.23v9.4C0 783 1.002 784 2.234 784h10.532c1.232 0 2.234-1 2.234-2.23v-8.777h-1.537zM5.035 810.585c.65.002 1.06.4 1.064 1.035 0 .774.002 1.55 0 2.324 0 .648-.414 1.045-1.087 1.05-.454 0-.91-.022-1.363.003-.66.036-1.16-.232-1.583-.692-.615-.666-.998-1.457-1.294-2.29-.66-1.853-.89-3.758-.718-5.712.128-1.445.448-2.846 1.07-4.168.3-.64.663-1.242 1.224-1.71.343-.286.736-.437 1.196-.424.497.014.99 0 1.488.006.65.004 1.06.4 1.066 1.032.005.39 0 .78 0 1.17v1.137c-.003.67-.404 1.06-1.088 1.06-.49.003-.98.007-1.47 0-.13 0-.188.044-.234.154-.228.54-.34 1.11-.4 1.685-.122 1.16-.1 2.314.166 3.457.06.244.16.48.232.72.036.125.107.166.243.164.493-.006.99-.004 1.484-.002zM8 804c0-.552.438-1 1.003-1h4.994c.553 0 1.003.444 1.003 1 0 .552-.438 1-1.003 1H9.003C8.45 805 8 804.556 8 804zm0 3c0-.552.438-1 1.003-1h4.994c.553 0 1.003.444 1.003 1 0 .552-.438 1-1.003 1H9.003C8.45 808 8 807.556 8 807zm0 3c0-.552.438-1 1.003-1h4.994c.553 0 1.003.444 1.003 1 0 .552-.438 1-1.003 1H9.003C8.45 811 8 810.556 8 810z"/><path fill="#29AD49" d="M19.453 8.107c0-.13-.064-.253-.172-.33l-3.052-2.93c-.128-.09-.297-.104-.44-.034-.14.07-.23.21-.23.365v1.648h-4.594c-.232 0-.42.183-.42.41v1.743c0 .225.188.408.42.408h4.595v1.648c0 .154.088.295.23.365.14.07.31.057.438-.034l3.053-2.93c.11-.076.173-.2.173-.33zm-9.965 3.056c-.495-.002-.99-.004-1.486.002-.136.002-.207-.04-.243-.163-.074-.242-.174-.477-.233-.72-.267-1.144-.288-2.3-.167-3.458.06-.575.173-1.144.4-1.687.047-.11.106-.155.235-.155.49.008.98.004 1.47.002.684-.002 1.085-.392 1.087-1.06.002-.38 0-.757.002-1.137 0-.39.004-.78 0-1.17-.008-.632-.418-1.03-1.066-1.034C8.99.58 8.498.59 8 .58c-.46-.014-.853.137-1.198.424-.56.467-.924 1.07-1.223 1.71-.624 1.32-.944 2.722-1.072 4.167-.173 1.955.06 3.86.718 5.712.296.834.68 1.625 1.294 2.29.422.46.923.73 1.584.693.452-.025.91-.002 1.363-.004.673-.003 1.085-.4 1.087-1.048.002-.775 0-1.55-.002-2.324-.004-.635-.414-1.033-1.064-1.035z"/><path fill="#367BCC" d="M12.47 66.56c.092.093.225.137.356.116l4.244-.03c.155-.023.284-.13.333-.28.048-.15.01-.313-.102-.424l-1.184-1.185 3.215-3.214c.164-.163.164-.426 0-.59L18.077 59.7c-.162-.163-.426-.163-.59 0l-3.214 3.214-1.186-1.185c-.11-.112-.274-.15-.424-.103-.15.05-.258.178-.282.333l-.03 4.242c-.02.13.025.264.12.357zm2.673 3.26c-.46-.452-1.033-.452-1.49 0-.348.346-.696.69-1.038 1.042-.094.097-.173.117-.287.053-.225-.123-.465-.223-.682-.357-1.01-.635-1.855-1.45-2.604-2.37-.37-.455-.702-.944-.933-1.493-.048-.112-.04-.185.052-.275.348-.337.687-.682 1.03-1.027.476-.48.476-1.04-.003-1.524-.274-.276-.546-.545-.818-.82-.28-.28-.56-.564-.842-.842-.46-.447-1.033-.447-1.49.003-.35.346-.687.7-1.044 1.04-.33.312-.498.695-.533 1.143-.055.728.123 1.415.375 2.085.515 1.386 1.3 2.618 2.25 3.746 1.284 1.527 2.817 2.735 4.61 3.606.81.392 1.645.694 2.555.743.626.035 1.17-.123 1.607-.61.298-.334.635-.638.95-.957.47-.474.472-1.047.006-1.515-.556-.558-1.114-1.113-1.673-1.67zm2.142 122.46c0 .285-.232.505-.53.505H6.84c-.298 0-.53-.22-.53-.504v-9.405c0-.284.232-.504.53-.504h6.83l1.89-1.792H6.21c-.96 0-1.757.755-1.757 1.667v10.666c0 .913.796 1.668 1.757 1.668h11.24c.963 0 1.76-.755 1.76-1.667v-4.12l-1.892 1.792v1.7h-.033zm2.985-9.405l-.863-.818c-.232-.22-.596-.22-.795 0l-6.002 5.663-2.686-2.55c-.232-.22-.597-.22-.796 0l-.862.82c-.232.22-.232.566 0 .754l3.98 3.776c.132.125.33.188.53.157.1-.032.2-.063.298-.157l7.262-6.89c.166-.19.166-.535-.066-.755zm-9.386-58.107l-4.276-4.218c-.18-.13-.417-.15-.615-.05-.198.1-.323.304-.323.526v2.373H3.32c-.325 0-.59.263-.59.588v2.512c0 .325.265.59.59.59h2.35v2.372c0 .222.125.425.323.526.198.1.436.08.615-.05l4.276-4.22c.152-.11.24-.286.24-.474s-.088-.365-.24-.476zm1.074.95l4.276 4.22c.18.13.417.15.615.05.197-.1.322-.304.322-.526v-2.373h2.35c.325 0 .59-.265.59-.59v-2.512c0-.325-.265-.59-.59-.59h-2.35v-2.372c0-.222-.125-.425-.323-.526-.2-.1-.437-.08-.616.05l-4.276 4.22c-.15.11-.24.286-.24.474s.09.364.24.475z"/><path fill="#29AD49" d="M4.17 241.483l5.597 4.494c.128.1.255.17.414.17h.254c.16-.035.288-.07.415-.17l5.596-4.494c.095-.067.16-.168.223-.27v2.973h1.557v-3.817c0-.98-.763-1.792-1.686-1.792H4.14c-.924 0-1.687.81-1.687 1.79v8.278c0 .98.763 1.79 1.686 1.79h6.327v-1.655H4.52c-.286 0-.51-.236-.51-.54v-6.993c.033.1.097.17.16.236zm10.877-1.25l-4.74 3.818-4.737-3.817h9.477zm5.247 8.92l-2.608-2.737c-.095-.1-.254-.1-.38-.034-.13.068-.192.203-.192.338v1.554H13.17c-.19 0-.35.17-.35.372v1.62c0 .204.16.373.35.373h3.944v1.553c0 .135.063.27.19.338.128.068.255.068.382-.033l2.608-2.736c.095-.067.16-.202.16-.303 0-.102-.065-.237-.16-.305z"/><path fill="#367BCC" d="M18.56 525.578H5.346c-1.036 0-1.893.882-1.893 1.948v10.104c0 1.066.857 1.948 1.893 1.948H18.56c1.036 0 1.893-.882 1.893-1.948v-10.104c0-1.066-.857-1.948-1.893-1.948zm.143 11.612c0 .33-.25.587-.57.587H5.772c-.32 0-.57-.257-.57-.587v-9.224c0-.33.25-.587.57-.587h12.36c.32 0 .57.256.57.586v9.224zm-2-3.49h-9.25c-.25 0-.5.22-.5.513v1.213c0 .257.214.514.5.514h9.25c.25 0 .5-.22.5-.514v-1.213c-.036-.257-.25-.514-.5-.514zm0-4.227h-9.25c-.25 0-.5.22-.5.514v1.213c0 .257.214.514.5.514h9.25c.25 0 .5-.22.5-.514v-1.213c-.036-.294-.25-.514-.5-.514zm1.947-232.895H5.626c-.97 0-1.77.81-1.77 1.79v5.676h1.636v-4.763c.067.068.1.136.2.203l5.878 4.494c.133.1.267.17.434.17h.267c.168-.035.302-.07.435-.17l5.878-4.494c.1-.067.167-.168.234-.27v7.06c0 .305-.234.542-.535.542h-6.078v1.655h6.48c.968 0 1.77-.81 1.77-1.79v-8.278c-.034-1.013-.836-1.824-1.804-1.824zm-6.546 5.473l-4.976-3.817h9.952l-4.976 3.818zm-1.803 5.102l-2.738-2.736c-.1-.1-.267-.1-.4-.034-.134.068-.2.203-.2.338v1.554H2.82c-.2 0-.367.17-.367.372v1.62c0 .204.167.373.367.373h4.14v1.553c0 .135.068.27.202.338.133.068.267.068.4-.033l2.74-2.736c.1-.067.166-.202.166-.303 0-.136-.067-.237-.167-.305zm9.058 105.426H5.548c-.58 0-1.095.49-1.095 1.11v3.818c0 .587.483 1.11 1.095 1.11h13.81c.58 0 1.095-.49 1.095-1.11v-3.818c0-.62-.483-1.11-1.095-1.11zm-.482 4.047c0 .195-.16.36-.355.36H6.418c-.193 0-.354-.165-.354-.36v-2.09c0-.195.16-.358.354-.358H18.52c.195 0 .356.163.356.36v2.088zm.482 3.916H5.548c-.58 0-1.095.49-1.095 1.11v3.818c0 .588.483 1.11 1.095 1.11h13.81c.58 0 1.095-.49 1.095-1.11v-3.818c0-.62-.483-1.11-1.095-1.11zm-.482 4.047c0 .196-.16.36-.355.36H6.418c-.193 0-.354-.164-.354-.36V422.5c0-.197.16-.36.354-.36H18.52c.195 0 .356.163.356.36v2.087zm-1.646-65.583H7.638c-.19 0-.34-.145-.34-.326v-1.343c0-.18.15-.326.34-.326h9.592c.19 0 .34.144.34.325v1.343c.04.18-.15.326-.34.326m0 4.063H7.638c-.19 0-.34-.145-.34-.326v-1.34c0-.183.15-.328.34-.328h9.592c.19 0 .34.145.34.327v1.34c.04.182-.15.327-.34.327m1.517-8.49H6.12c-.91 0-1.667.727-1.667 1.597v8.163c0 .87.758 1.597 1.668 1.597h7.66c.114 0 .19.036.265.108l2.35 2.43c.23.22.608.074.608-.216v-1.996c0-.18.15-.326.34-.326h1.442c.91 0 1.668-.726 1.668-1.597v-8.163c-.038-.87-.796-1.596-1.706-1.596m.02 224.27H6.115c-.914 0-1.687.772-1.687 1.686v5.13H17.22c.212 0 .353.142.353.353v1.406c.07.21-.14.35-.352.35h-5.34v3.024h1.897c.14 0 .21.07.28.14l2.32 2.532c.212.21.633.07.633-.212v-2.11c0-.21.14-.35.352-.35h1.476c.914 0 1.687-.774 1.687-1.688v-8.576c-.14-.914-.843-1.687-1.757-1.687zm-1.194 4.287c.07.21-.14.35-.352.35H7.59c-.21 0-.35-.14-.35-.35v-1.406c0-.212.14-.353.35-.353h9.63c.212 0 .353.14.353.352v1.405zM6.677 587c-.07-.07-.282-.07-.422 0s-.21.212-.21.353v1.546h-4.22c-.21 0-.35.14-.35.35v1.618c0 .21.14.35.35.35h4.22v1.548c0 .14.07.28.21.35.14.07.28.07.422 0l2.81-2.74c.072-.07.142-.21.142-.282 0-.14-.07-.21-.142-.28L6.678 587z"/><path fill="#29AD49" d="M19.238 631.44c0-.913-.773-1.687-1.687-1.687H5.04c-.914 0-1.687.774-1.687 1.687v8.577c0 .914.774 1.687 1.688 1.687h1.406c.21 0 .35.14.35.352v2.108c0 .282.353.422.634.21l2.32-2.53c.07-.07.14-.14.28-.14h2.532v-3.023H6.655c-.21 0-.352-.14-.352-.35v-1.406c0-.21.14-.352.352-.352h12.653v-5.132h-.07zm-2.812 2.672c0 .21-.14.35-.35.35H6.583c-.21 0-.35-.14-.35-.35v-1.406c0-.21.14-.352.35-.352h9.49c.212 0 .352.14.352.352v1.406zm6.468 6.82l-2.812-2.743c-.07-.07-.282-.07-.422 0s-.21.21-.21.35v1.547h-4.22c-.21 0-.35.14-.35.352v1.616c0 .21.14.35.35.35h4.22v1.548c0 .14.07.28.21.35.14.07.28.07.422 0l2.812-2.74c.07-.07.14-.21.14-.282 0-.14-.07-.28-.14-.35z"/><path fill="#367BCC" d="M.487 474.373H2.16v7.173h1.536v-8.652H.453v1.48h.034zm8.16 1.576c0-2.156 1.843-3.892 4.13-3.892 2.22 0 4.063 1.672 4.13 3.763h1.537c-.068-2.894-2.594-5.242-5.7-5.242-3.142 0-5.702 2.412-5.702 5.37 0 2.96 2.56 5.373 5.7 5.373H24.42v-1.447H12.742c-2.253-.032-4.097-1.77-4.097-3.924zm-6.863-3.764H4.38v9.392h1.535v-10.84h-4.13v1.448zm9.047 3.763c0-.998.89-1.834 1.947-1.834 1.025 0 1.878.74 1.946 1.705h1.537c-.07-1.768-1.605-3.15-3.483-3.15-1.91 0-3.482 1.478-3.482 3.28 0 1.8 1.57 3.28 3.482 3.28h11.676v-1.447H12.777c-1.058 0-1.946-.837-1.946-1.834zm1.99 204.985H3.153c-.536 0-.968.432-.968.967v10.656c0 .535.432.968.968.968h9.667c.535 0 .968-.433.968-.968v-10.656c0-.535-.433-.967-.968-.967zm-4.748 10.87c-2.583 0-4.673-2.09-4.673-4.672 0-2.583 2.09-4.674 4.672-4.674 2.583 0 4.674 2.09 4.674 4.673s-2.09 4.673-4.674 4.673zm.68-4.662c.362-.268.61-.762.61-1.318 0-.855-.568-1.544-1.278-1.544-.7 0-1.276.69-1.276 1.545 0 .556.247 1.04.607 1.318-1.194.133-2.08.68-2.08 2.223 0 .278 2.73.237 2.73.237s2.758.02 2.758-.237c0-1.544-.875-2.1-2.07-2.223zm8.492-2.61h5.037c.54 0 .974-.434.974-.972 0-.537-.435-.972-.973-.972h-5.036c-.538 0-.973.435-.973.973 0 .54.436.974.974.974zm5.037 1.26h-5.036c-.538 0-.973.435-.973.974 0 .538.436.973.974.973h5.037c.54 0 .974-.435.974-.973 0-.54-.435-.973-.973-.973zm-1.218 3.09h-4.015c-.43 0-.776.436-.776.974s.348.973.777.973h4.015c.428 0 .775-.435.775-.973s-.347-.973-.775-.973z"/></g></svg>