<svg xmlns="http://www.w3.org/2000/svg" width="110" height="710" viewBox="0 0 110 710">
  <g fill="none" fill-rule="evenodd">
    <path fill="#535C69" d="M103,9.52883322 C103,9.39846125 102.936091,9.27579488 102.827963,9.19873887 L99.7751674,6.27000829 C99.6472321,6.17890089 99.4775838,6.16535942 99.3361908,6.23510645 C99.1947978,6.30479681 99.1056625,6.4458773 99.1056625,6.60010263 L99.1056625,8.24766373 L94.5112927,8.24766373 C94.2789001,8.24766373 94.0904926,8.43084173 94.0904926,8.65685381 L94.0904926,10.4008126 C94.0904926,10.6268247 94.2788419,10.8100594 94.5112927,10.8100594 L99.1056625,10.8100594 L99.1056625,12.4576205 C99.1056625,12.6118458 99.1947978,12.7528696 99.3361908,12.8226167 C99.4775838,12.8923637 99.6472904,12.8788222 99.7751674,12.7877148 L102.827963,9.85892757 C102.936091,9.78187156 103,9.65920519 103,9.52883322 Z M93.0349826,12.584899 C92.5395401,12.582866 92.0440976,12.5808329 91.5486552,12.5869321 C91.4127743,12.5889652 91.3416982,12.5483036 91.3061601,12.4242858 C91.2329935,12.1823493 91.1326507,11.9465121 91.0741174,11.7025426 C90.8065367,10.5599519 90.7856319,9.40516283 90.9068795,8.24630756 C90.9675032,7.67094608 91.0803889,7.10168384 91.3082506,6.55885163 C91.354241,6.44906534 91.4127743,6.4043376 91.5423837,6.4043376 C92.0315548,6.41246991 92.5207259,6.40840376 93.0119874,6.40637068 C93.6955726,6.4043376 94.0969437,6.01398635 94.0990342,5.34510322 C94.1011247,4.96491736 94.0990342,4.58879767 94.1011247,4.20861182 C94.1011247,3.81826057 94.1053056,3.42790932 94.1011247,3.03755807 C94.0927628,2.40730345 93.6830297,2.00881988 93.0349826,2.00475372 C92.5374497,2.00068756 92.0440976,2.01288604 91.5465647,2.00068756 C91.0866603,1.98848909 90.693651,2.13893697 90.3487227,2.42560116 C89.7884755,2.89320943 89.424733,3.49500094 89.1257951,4.13542096 C88.5028337,5.45692259 88.182991,6.85771431 88.0554721,8.30323378 C87.8819627,10.2570231 88.1140054,12.1620185 88.7725049,14.0141539 C89.0693523,14.8477164 89.4519091,15.6385843 90.0665087,16.3054344 C90.4887845,16.7649103 90.9904984,17.0332768 91.6510884,16.9966814 C92.1026309,16.9722844 92.5604449,16.9946483 93.0140779,16.9926152 C93.6872107,16.9885491 94.0990342,16.5920986 94.1011247,15.9435463 C94.1032151,15.168943 94.1011247,14.3943397 94.0990342,13.6197365 C94.0948532,12.9854157 93.6851202,12.5869321 93.0349826,12.584899 Z"/>
    <path fill="#535C69" d="M19,9.52883322 C19,9.39846125 18.9360906,9.27579488 18.8279631,9.19873887 L15.7751674,6.27000829 C15.6472321,6.17890089 15.4775838,6.16535942 15.3361908,6.23510645 C15.1947978,6.30479681 15.1056625,6.4458773 15.1056625,6.60010263 L15.1056625,8.24766373 L10.5112927,8.24766373 C10.2789001,8.24766373 10.0904926,8.43084173 10.0904926,8.65685381 L10.0904926,10.4008126 C10.0904926,10.6268247 10.2788419,10.8100594 10.5112927,10.8100594 L15.1056625,10.8100594 L15.1056625,12.4576205 C15.1056625,12.6118458 15.1947978,12.7528696 15.3361908,12.8226167 C15.4775838,12.8923637 15.6472904,12.8788222 15.7751674,12.7877148 L18.8279631,9.85892757 C18.9360906,9.78187156 19,9.65920519 19,9.52883322 Z M9.03498261,12.584899 C8.53954013,12.582866 8.04409765,12.5808329 7.54865516,12.5869321 C7.41277431,12.5889652 7.34169818,12.5483036 7.30616011,12.4242858 C7.2329935,12.1823493 7.13265072,11.9465121 7.07411743,11.7025426 C6.80653668,10.5599519 6.78563193,9.40516283 6.90687946,8.24630756 C6.96750322,7.67094608 7.08038885,7.10168384 7.30825058,6.55885163 C7.35424102,6.44906534 7.41277431,6.4043376 7.54238374,6.4043376 C8.0315548,6.41246991 8.52072586,6.40840376 9.01198739,6.40637068 C9.69557259,6.4043376 10.0969437,6.01398635 10.0990342,5.34510322 C10.1011247,4.96491736 10.0990342,4.58879767 10.1011247,4.20861182 C10.1011247,3.81826057 10.1053056,3.42790932 10.1011247,3.03755807 C10.0927628,2.40730345 9.68302974,2.00881988 9.03498261,2.00475372 C8.53744966,2.00068756 8.04409765,2.01288604 7.54656469,2.00068756 C7.08666027,1.98848909 6.69365105,2.13893697 6.34872274,2.42560116 C5.78847554,2.89320943 5.42473296,3.49500094 5.12579509,4.13542096 C4.50283365,5.45692259 4.18299104,6.85771431 4.05547209,8.30323378 C3.88196269,10.2570231 4.11400538,12.1620185 4.77250488,14.0141539 C5.06935227,14.8477164 5.45190913,15.6385843 6.06650866,16.3054344 C6.48878454,16.7649103 6.99049844,17.0332768 7.65108842,16.9966814 C8.10263094,16.9722844 8.56044488,16.9946483 9.01407787,16.9926152 C9.68721069,16.9885491 10.0990342,16.5920986 10.1011247,15.9435463 C10.1032151,15.168943 10.1011247,14.3943397 10.0990342,13.6197365 C10.0948532,12.9854157 9.68512022,12.5869321 9.03498261,12.584899 Z" opacity=".7"/>
    <path fill="#535C69" d="M96.015552,67.9812958 C96.1093645,68.0750654 96.2423571,68.1185881 96.3734743,68.0983753 L100.617319,68.0694265 C100.772409,68.0454645 100.900876,67.9365353 100.949637,67.7874657 C100.998439,67.6384368 100.9593,67.4746151 100.848323,67.3636891 L99.6627795,66.1786864 L102.878005,62.9649283 C103.040638,62.8023699 103.040679,62.5388289 102.878046,62.3762705 L101.623137,61.1219341 C101.460504,60.9593757 101.196843,60.9593349 101.034169,61.1219341 L97.8189437,64.3356922 L96.6334,63.1506896 C96.5224233,63.0397635 96.3585675,63.0006827 96.2094299,63.0494217 C96.0602922,63.0981607 95.9512725,63.2266099 95.9273403,63.3815885 L95.898419,67.6235369 C95.878197,67.7545942 95.9217396,67.8875262 96.015552,67.9812958 Z M98.6897474,71.2428854 C98.2303801,70.789577 97.6569025,70.789577 97.2004612,71.2428854 C96.8522783,71.5879848 96.5040955,71.9330841 96.1617645,72.2840326 C96.0681355,72.3805435 95.989136,72.4010155 95.8750257,72.3366749 C95.6497309,72.2138429 95.4098066,72.1144075 95.1932895,71.9798773 C94.1838519,71.3452454 93.338265,70.5292902 92.589233,69.610975 C92.2176429,69.1547419 91.8870155,68.6663386 91.6558689,68.1165193 C91.6090544,68.0053856 91.6178322,67.9322714 91.7085352,67.8416097 C92.0567181,67.505284 92.3961232,67.1601847 92.7384542,66.8150853 C93.2153769,66.3354557 93.2153769,65.7739382 92.7355283,65.291384 C92.463419,65.0164743 92.1913098,64.7474138 91.9192005,64.4725042 C91.6383135,64.1917454 91.3603524,63.908062 91.0765395,63.6302278 C90.6171722,63.1827685 90.0436946,63.1827685 89.5872533,63.6331524 C89.2361445,63.9782517 88.8996653,64.3321248 88.5427048,64.671375 C88.2120774,64.9843041 88.0453007,65.3674228 88.0101898,65.8148821 C87.9545976,66.5431003 88.1330779,67.2303744 88.3847058,67.9001011 C88.8996653,69.2863476 89.6838082,70.5175919 90.6347277,71.6464762 C91.9192005,73.1731021 93.4523753,74.3809498 95.2459558,75.2524719 C96.0535059,75.6443644 96.8903151,75.9455952 97.8002719,75.9953129 C98.4264158,76.0304077 98.9706344,75.8724809 99.4065944,75.3840776 C99.7050369,75.0506765 100.041516,74.7465212 100.357514,74.427743 C100.825659,73.9539625 100.828585,73.3807467 100.363366,72.9128153 C99.8074436,72.3542223 99.2485955,71.7985539 98.6897474,71.2428854 Z"/>
    <path fill="#535C69" d="M12.015552,67.9812958 C12.1093645,68.0750654 12.2423571,68.1185881 12.3734743,68.0983753 L16.6173189,68.0694265 C16.772409,68.0454645 16.9008762,67.9365353 16.9496374,67.7874657 C16.9984394,67.6384368 16.9593,67.4746151 16.8483233,67.3636891 L15.6627795,66.1786864 L18.8780051,62.9649283 C19.0406378,62.8023699 19.0406785,62.5388289 18.8780459,62.3762705 L17.6231368,61.1219341 C17.4605041,60.9593757 17.1968427,60.9593349 17.0341693,61.1219341 L13.8189437,64.3356922 L12.6334,63.1506896 C12.5224233,63.0397635 12.3585675,63.0006827 12.2094299,63.0494217 C12.0602922,63.0981607 11.9512725,63.2266099 11.9273403,63.3815885 L11.898419,67.6235369 C11.878197,67.7545942 11.9217396,67.8875262 12.015552,67.9812958 Z M14.6897474,71.2428854 C14.2303801,70.789577 13.6569025,70.789577 13.2004612,71.2428854 C12.8522783,71.5879848 12.5040955,71.9330841 12.1617645,72.2840326 C12.0681355,72.3805435 11.989136,72.4010155 11.8750257,72.3366749 C11.6497309,72.2138429 11.4098066,72.1144075 11.1932895,71.9798773 C10.1838519,71.3452454 9.33826499,70.5292902 8.58923301,69.610975 C8.21764293,69.1547419 7.88701553,68.6663386 7.65586894,68.1165193 C7.60905444,68.0053856 7.61783216,67.9322714 7.70853525,67.8416097 C8.05671809,67.505284 8.3961232,67.1601847 8.73845423,66.8150853 C9.21537693,66.3354557 9.21537693,65.7739382 8.73552832,65.291384 C8.46341905,65.0164743 8.19130977,64.7474138 7.91920049,64.4725042 C7.6383135,64.1917454 7.36035241,63.908062 7.07653951,63.6302278 C6.61717224,63.1827685 6.04369463,63.1827685 5.58725327,63.6331524 C5.23614452,63.9782517 4.89966531,64.3321248 4.54270476,64.671375 C4.21207736,64.9843041 4.04530071,65.3674228 4.01018983,65.8148821 C3.95459762,66.5431003 4.13307789,67.2303744 4.38470582,67.9001011 C4.89966531,69.2863476 5.68380817,70.5175919 6.63472768,71.6464762 C7.91920049,73.1731021 9.45237534,74.3809498 11.2459558,75.2524719 C12.0535059,75.6443644 12.8903151,75.9455952 13.8002719,75.9953129 C14.4264158,76.0304077 14.9706344,75.8724809 15.4065944,75.3840776 C15.7050369,75.0506765 16.0415161,74.7465212 16.3575139,74.427743 C16.8256589,73.9539625 16.8285848,73.3807467 16.3633657,72.9128153 C15.8074436,72.3542223 15.2485955,71.7985539 14.6897474,71.2428854 Z" opacity=".7"/>
    <path fill="#535C69" d="M100.832326,193.703371 C100.832326,193.986517 100.600216,194.206742 100.30179,194.206742 L90.3874094,194.206742 C90.0889832,194.206742 89.856874,193.986517 89.856874,193.703371 L89.856874,184.296629 C89.856874,184.013483 90.0889832,183.793258 90.3874094,183.793258 L97.218053,183.793258 L99.1080855,182 L89.7573986,182 C88.7958031,182 88,182.755056 88,183.667416 L88,194.332584 C88,195.244944 88.7958031,196 89.7573986,196 L100.998118,196 C101.959713,196 102.755517,195.244944 102.755517,194.332584 L102.755517,190.211236 L100.865484,192.004494 L100.865484,193.703371 L100.832326,193.703371 Z M103.816587,184.296629 L102.954467,183.478652 C102.722358,183.258427 102.357615,183.258427 102.158664,183.478652 L96.1569822,189.141573 L93.4711466,186.593258 C93.2390373,186.373034 92.8742942,186.373034 92.6753434,186.593258 L91.8132234,187.411236 C91.5811141,187.631461 91.5811141,187.977528 91.8132234,188.166292 L95.7922391,191.941573 C95.9248729,192.067416 96.1238237,192.130337 96.3227745,192.098876 C96.4222499,192.067416 96.5217253,192.035955 96.6212007,191.941573 L103.882904,185.051685 C104.048697,184.862921 104.048697,184.516854 103.816587,184.296629 L103.816587,184.296629 Z"/>
    <path fill="#535C69" d="M16.8323256,193.703371 C16.8323256,193.986517 16.6002164,194.206742 16.3017902,194.206742 L6.38740942,194.206742 C6.08898324,194.206742 5.85687399,193.986517 5.85687399,193.703371 L5.85687399,184.296629 C5.85687399,184.013483 6.08898324,183.793258 6.38740942,183.793258 L13.218053,183.793258 L15.1080855,182 L5.7573986,182 C4.79580314,182 4,182.755056 4,183.667416 L4,194.332584 C4,195.244944 4.79580314,196 5.7573986,196 L16.9981179,196 C17.9597134,196 18.7555165,195.244944 18.7555165,194.332584 L18.7555165,190.211236 L16.8654841,192.004494 L16.8654841,193.703371 L16.8323256,193.703371 Z M19.8165874,184.296629 L18.9544673,183.478652 C18.7223581,183.258427 18.357615,183.258427 18.1586642,183.478652 L12.1569822,189.141573 L9.47114658,186.593258 C9.23903733,186.373034 8.87429423,186.373034 8.67534344,186.593258 L7.81322338,187.411236 C7.58111413,187.631461 7.58111413,187.977528 7.81322338,188.166292 L11.7922391,191.941573 C11.9248729,192.067416 12.1238237,192.130337 12.3227745,192.098876 C12.4222499,192.067416 12.5217253,192.035955 12.6212007,191.941573 L19.8829043,185.051685 C20.0486966,184.862921 20.0486966,184.516854 19.8165874,184.296629 L19.8165874,184.296629 Z" opacity=".7"/>
    <path fill="#535C69" d="M94.1532815,126.332102 L89.8771878,122.113977 C89.697987,121.982759 89.4603582,121.963256 89.2623071,122.063709 C89.0642559,122.164082 88.9394029,122.367274 88.9394029,122.589398 L88.9394029,124.962309 L86.5894205,124.962309 C86.263905,124.962309 86,125.226133 86,125.551648 L86,128.063397 C86,128.388913 86.2638234,128.652818 86.5894205,128.652818 L88.9394029,128.652818 L88.9394029,131.02573 C88.9394029,131.247854 89.0642559,131.450964 89.2623071,131.551418 C89.4603582,131.651872 89.6980686,131.632368 89.8771878,131.50115 L94.1532815,127.282944 C94.3047372,127.171963 94.394256,126.995292 94.394256,126.807523 C94.394256,126.619754 94.3047372,126.443083 94.1532815,126.332102 Z M95.2271895,127.283025 L99.5032832,131.50115 C99.682484,131.632368 99.9201128,131.651872 100.118164,131.551418 C100.316215,131.451046 100.441068,131.247854 100.441068,131.02573 L100.441068,128.652818 L102.79105,128.652818 C103.116566,128.652818 103.380471,128.388995 103.380471,128.063479 L103.380471,125.55173 C103.380471,125.226214 103.116648,124.962309 102.79105,124.962309 L100.441068,124.962309 L100.441068,122.589398 C100.441068,122.367274 100.316215,122.164163 100.118164,122.063709 C99.9201128,121.963256 99.6824024,121.982759 99.5032832,122.113977 L95.2271895,126.332184 C95.0757338,126.443164 94.986215,126.619835 94.986215,126.807605 C94.986215,126.995374 95.0757338,127.172045 95.2271895,127.283025 Z"/>
    <path fill="#535C69" d="M11.1532815,126.332102 L6.8771878,122.113977 C6.69798699,121.982759 6.46035822,121.963256 6.26230705,122.063709 C6.06425588,122.164082 5.93940285,122.367274 5.93940285,122.589398 L5.93940285,124.962309 L3.58942053,124.962309 C3.26390502,124.962309 3,125.226133 3,125.551648 L3,128.063397 C3,128.388913 3.26382342,128.652818 3.58942053,128.652818 L5.93940285,128.652818 L5.93940285,131.02573 C5.93940285,131.247854 6.06425588,131.450964 6.26230705,131.551418 C6.46035822,131.651872 6.69806859,131.632368 6.8771878,131.50115 L11.1532815,127.282944 C11.3047372,127.171963 11.394256,126.995292 11.394256,126.807523 C11.394256,126.619754 11.3047372,126.443083 11.1532815,126.332102 Z M12.2271895,127.283025 L16.5032832,131.50115 C16.682484,131.632368 16.9201128,131.651872 17.1181639,131.551418 C17.3162151,131.451046 17.4410681,131.247854 17.4410681,131.02573 L17.4410681,128.652818 L19.7910505,128.652818 C20.116566,128.652818 20.380471,128.388995 20.380471,128.063479 L20.380471,125.55173 C20.380471,125.226214 20.1166476,124.962309 19.7910505,124.962309 L17.4410681,124.962309 L17.4410681,122.589398 C17.4410681,122.367274 17.3162151,122.164163 17.1181639,122.063709 C16.9201128,121.963256 16.6824024,121.982759 16.5032832,122.113977 L12.2271895,126.332184 C12.0757338,126.443164 11.986215,126.619835 11.986215,126.807605 C11.986215,126.995374 12.0757338,127.172045 12.2271895,127.283025 Z" opacity=".7"/>
    <path fill="#535C69" d="M87.7173145,242.905448 L93.3144876,247.398758 C93.4416961,247.500111 93.5689046,247.567679 93.7279152,247.567679 L93.7597173,247.567679 L93.8551237,247.567679 L93.95053,247.567679 L93.9823322,247.567679 C94.1413428,247.533895 94.2685512,247.500111 94.3957597,247.398758 L99.9929329,242.905448 C100.088339,242.83788 100.151943,242.736527 100.215548,242.635174 L100.215548,245.608191 L101.773852,245.608191 L101.773852,241.790567 C101.773852,240.810823 101.010601,240 100.088339,240 L87.6855124,240 C86.7632509,240 86,240.810823 86,241.790567 L86,250.067716 C86,251.047461 86.7632509,251.858283 87.6855124,251.858283 L94.0141343,251.858283 L94.0141343,250.202853 L88.0671378,250.202853 C87.7809187,250.202853 87.5583039,249.966363 87.5583039,249.662305 L87.5583039,242.668958 C87.590106,242.770311 87.6537102,242.83788 87.7173145,242.905448 L87.7173145,242.905448 Z M98.5936396,241.65543 L93.8551237,245.473054 L89.1166078,241.65543 L98.5936396,241.65543 L98.5936396,241.65543 Z M103.840989,250.574481 L101.233216,247.837954 C101.137809,247.736601 100.978799,247.736601 100.85159,247.804169 C100.724382,247.871738 100.660777,248.006875 100.660777,248.142012 L100.660777,249.696089 L96.7173145,249.696089 C96.5265018,249.696089 96.3674912,249.865011 96.3674912,250.067716 L96.3674912,251.689362 C96.3674912,251.892068 96.5265018,252.060989 96.7173145,252.060989 L100.660777,252.060989 L100.660777,253.615066 C100.660777,253.750203 100.724382,253.88534 100.85159,253.952909 C100.978799,254.020477 101.106007,254.020477 101.233216,253.919125 L103.840989,251.182598 C103.936396,251.115029 104,250.979892 104,250.878539 C104,250.777186 103.936396,250.642049 103.840989,250.574481 L103.840989,250.574481 Z"/>
    <path fill="#535C69" d="M3.71731449,242.905448 L9.31448763,247.398758 C9.44169611,247.500111 9.56890459,247.567679 9.72791519,247.567679 L9.75971731,247.567679 L9.85512367,247.567679 L9.95053004,247.567679 L9.98233216,247.567679 C10.1413428,247.533895 10.2685512,247.500111 10.3957597,247.398758 L15.9929329,242.905448 C16.0883392,242.83788 16.1519435,242.736527 16.2155477,242.635174 L16.2155477,245.608191 L17.7738516,245.608191 L17.7738516,241.790567 C17.7738516,240.810823 17.0106007,240 16.0883392,240 L3.68551237,240 C2.76325088,240 2,240.810823 2,241.790567 L2,250.067716 C2,251.047461 2.76325088,251.858283 3.68551237,251.858283 L10.0141343,251.858283 L10.0141343,250.202853 L4.06713781,250.202853 C3.78091873,250.202853 3.55830389,249.966363 3.55830389,249.662305 L3.55830389,242.668958 C3.59010601,242.770311 3.65371025,242.83788 3.71731449,242.905448 L3.71731449,242.905448 Z M14.5936396,241.65543 L9.85512367,245.473054 L5.11660777,241.65543 L14.5936396,241.65543 L14.5936396,241.65543 Z M19.8409894,250.574481 L17.2332155,247.837954 C17.1378092,247.736601 16.9787986,247.736601 16.8515901,247.804169 C16.7243816,247.871738 16.6607774,248.006875 16.6607774,248.142012 L16.6607774,249.696089 L12.7173145,249.696089 C12.5265018,249.696089 12.3674912,249.865011 12.3674912,250.067716 L12.3674912,251.689362 C12.3674912,251.892068 12.5265018,252.060989 12.7173145,252.060989 L16.6607774,252.060989 L16.6607774,253.615066 C16.6607774,253.750203 16.7243816,253.88534 16.8515901,253.952909 C16.9787986,254.020477 17.1060071,254.020477 17.2332155,253.919125 L19.8409894,251.182598 C19.9363958,251.115029 20,250.979892 20,250.878539 C20,250.777186 19.9363958,250.642049 19.8409894,250.574481 L19.8409894,250.574481 Z" opacity=".7"/>
    <path fill="#535C69" d="M102.107143,527 L88.8928571,527 C87.8571429,527 87,527.88189 87,528.947507 L87,539.052493 C87,540.11811 87.8571429,541 88.8928571,541 L102.107143,541 C103.142857,541 104,540.11811 104,539.052493 L104,528.947507 C104,527.88189 103.142857,527 102.107143,527 L102.107143,527 Z M102.25,538.611549 C102.25,538.942257 102,539.199475 101.678571,539.199475 L89.3214286,539.199475 C89,539.199475 88.75,538.942257 88.75,538.611549 L88.75,529.388451 C88.75,529.057743 89,528.800525 89.3214286,528.800525 L101.678571,528.800525 C102,528.800525 102.25,529.057743 102.25,529.388451 L102.25,538.611549 L102.25,538.611549 Z M100.25,535.120735 L91,535.120735 C90.75,535.120735 90.5,535.341207 90.5,535.635171 L90.5,536.847769 C90.5,537.104987 90.7142857,537.362205 91,537.362205 L100.25,537.362205 C100.5,537.362205 100.75,537.141732 100.75,536.847769 L100.75,535.635171 C100.714286,535.377953 100.5,535.120735 100.25,535.120735 L100.25,535.120735 Z M100.25,530.895013 L91,530.895013 C90.75,530.895013 90.5,531.115486 90.5,531.409449 L90.5,532.622047 C90.5,532.879265 90.7142857,533.136483 91,533.136483 L100.25,533.136483 C100.5,533.136483 100.75,532.91601 100.75,532.622047 L100.75,531.409449 C100.714286,531.115486 100.5,530.895013 100.25,530.895013 L100.25,530.895013 Z"/>
    <path fill="#535C69" d="M18.1071429,527 L4.89285714,527 C3.85714286,527 3,527.88189 3,528.947507 L3,539.052493 C3,540.11811 3.85714286,541 4.89285714,541 L18.1071429,541 C19.1428571,541 20,540.11811 20,539.052493 L20,528.947507 C20,527.88189 19.1428571,527 18.1071429,527 L18.1071429,527 Z M18.25,538.611549 C18.25,538.942257 18,539.199475 17.6785714,539.199475 L5.32142857,539.199475 C5,539.199475 4.75,538.942257 4.75,538.611549 L4.75,529.388451 C4.75,529.057743 5,528.800525 5.32142857,528.800525 L17.6785714,528.800525 C18,528.800525 18.25,529.057743 18.25,529.388451 L18.25,538.611549 L18.25,538.611549 Z M16.25,535.120735 L7,535.120735 C6.75,535.120735 6.5,535.341207 6.5,535.635171 L6.5,536.847769 C6.5,537.104987 6.71428571,537.362205 7,537.362205 L16.25,537.362205 C16.5,537.362205 16.75,537.141732 16.75,536.847769 L16.75,535.635171 C16.7142857,535.377953 16.5,535.120735 16.25,535.120735 L16.25,535.120735 Z M16.25,530.895013 L7,530.895013 C6.75,530.895013 6.5,531.115486 6.5,531.409449 L6.5,532.622047 C6.5,532.879265 6.71428571,533.136483 7,533.136483 L16.25,533.136483 C16.5,533.136483 16.75,532.91601 16.75,532.622047 L16.75,531.409449 C16.7142857,531.115486 16.5,530.895013 16.25,530.895013 L16.25,530.895013 Z" opacity=".7"/>
    <path fill="#535C69" d="M102.19666,298 L89.1725417,298 C88.2040816,298 87.4025974,298.810823 87.4025974,299.790567 L87.4025974,305.466327 L89.038961,305.466327 L89.038961,300.702743 C89.1057514,300.770311 89.1391466,300.83788 89.2393321,300.905448 L95.1168831,305.398758 C95.2504638,305.500111 95.3840445,305.567679 95.5510204,305.567679 L95.5844156,305.567679 L95.6846011,305.567679 L95.7847866,305.567679 L95.8181818,305.567679 C95.9851577,305.533895 96.1187384,305.500111 96.2523191,305.398758 L102.12987,300.905448 C102.230056,300.83788 102.296846,300.736527 102.363636,300.635174 L102.363636,307.696089 C102.363636,308.000148 102.12987,308.236638 101.829314,308.236638 L95.7513915,308.236638 L95.7513915,309.892068 L102.230056,309.892068 C103.198516,309.892068 104,309.081245 104,308.101501 L104,299.824351 C103.966605,298.810823 103.165121,298 102.19666,298 L102.19666,298 Z M95.6512059,303.473054 L90.6753247,299.65543 L100.627087,299.65543 L95.6512059,303.473054 L95.6512059,303.473054 Z M93.8478664,308.574481 L91.109462,305.837954 C91.0092764,305.736601 90.8423006,305.736601 90.7087199,305.804169 C90.5751391,305.871738 90.5083488,306.006875 90.5083488,306.142012 L90.5083488,307.696089 L86.3673469,307.696089 C86.1669759,307.696089 86,307.865011 86,308.067716 L86,309.689362 C86,309.892068 86.1669759,310.060989 86.3673469,310.060989 L90.5083488,310.060989 L90.5083488,311.615066 C90.5083488,311.750203 90.5751391,311.88534 90.7087199,311.952909 C90.8423006,312.020477 90.9758813,312.020477 91.109462,311.919125 L93.8478664,309.182598 C93.9480519,309.115029 94.0148423,308.979892 94.0148423,308.878539 C94.0148423,308.743402 93.9480519,308.642049 93.8478664,308.574481 L93.8478664,308.574481 Z"/>
    <path fill="#535C69" d="M18.1966605,298 L5.17254174,298 C4.20408163,298 3.4025974,298.810823 3.4025974,299.790567 L3.4025974,305.466327 L5.03896104,305.466327 L5.03896104,300.702743 C5.10575139,300.770311 5.13914657,300.83788 5.2393321,300.905448 L11.1168831,305.398758 C11.2504638,305.500111 11.3840445,305.567679 11.5510204,305.567679 L11.5844156,305.567679 L11.6846011,305.567679 L11.7847866,305.567679 L11.8181818,305.567679 C11.9851577,305.533895 12.1187384,305.500111 12.2523191,305.398758 L18.1298701,300.905448 C18.2300557,300.83788 18.296846,300.736527 18.3636364,300.635174 L18.3636364,307.696089 C18.3636364,308.000148 18.1298701,308.236638 17.8293135,308.236638 L11.7513915,308.236638 L11.7513915,309.892068 L18.2300557,309.892068 C19.1985158,309.892068 20,309.081245 20,308.101501 L20,299.824351 C19.9666048,298.810823 19.1651206,298 18.1966605,298 L18.1966605,298 Z M11.6512059,303.473054 L6.67532468,299.65543 L16.6270872,299.65543 L11.6512059,303.473054 L11.6512059,303.473054 Z M9.84786642,308.574481 L7.10946197,305.837954 C7.00927644,305.736601 6.84230056,305.736601 6.70871985,305.804169 C6.57513915,305.871738 6.50834879,306.006875 6.50834879,306.142012 L6.50834879,307.696089 L2.36734694,307.696089 C2.16697588,307.696089 2,307.865011 2,308.067716 L2,309.689362 C2,309.892068 2.16697588,310.060989 2.36734694,310.060989 L6.50834879,310.060989 L6.50834879,311.615066 C6.50834879,311.750203 6.57513915,311.88534 6.70871985,311.952909 C6.84230056,312.020477 6.97588126,312.020477 7.10946197,311.919125 L9.84786642,309.182598 C9.94805195,309.115029 10.0148423,308.979892 10.0148423,308.878539 C10.0148423,308.743402 9.94805195,308.642049 9.84786642,308.574481 L9.84786642,308.574481 Z" opacity=".7"/>
    <path fill="#535C69" d="M102.905433,414 L89.0945674,414 C88.5150905,414 88,414.48951 88,415.109557 L88,418.927739 C88,419.515152 88.4828974,420.037296 89.0945674,420.037296 L102.905433,420.037296 C103.484909,420.037296 104,419.547786 104,418.927739 L104,415.109557 C104,414.48951 103.517103,414 102.905433,414 L102.905433,414 Z M102.422535,418.04662 C102.422535,418.242424 102.261569,418.405594 102.06841,418.405594 L89.9637827,418.405594 C89.7706237,418.405594 89.6096579,418.242424 89.6096579,418.04662 L89.6096579,415.958042 C89.6096579,415.762238 89.7706237,415.599068 89.9637827,415.599068 L102.06841,415.599068 C102.261569,415.599068 102.422535,415.762238 102.422535,415.958042 L102.422535,418.04662 L102.422535,418.04662 Z M102.905433,421.962704 L89.0945674,421.962704 C88.5150905,421.962704 88,422.452214 88,423.072261 L88,426.890443 C88,427.477855 88.4828974,428 89.0945674,428 L102.905433,428 C103.484909,428 104,427.51049 104,426.890443 L104,423.072261 C104,422.452214 103.517103,421.962704 102.905433,421.962704 L102.905433,421.962704 Z M102.422535,426.009324 C102.422535,426.205128 102.261569,426.368298 102.06841,426.368298 L89.9637827,426.368298 C89.7706237,426.368298 89.6096579,426.205128 89.6096579,426.009324 L89.6096579,423.920746 C89.6096579,423.724942 89.7706237,423.561772 89.9637827,423.561772 L102.06841,423.561772 C102.261569,423.561772 102.422535,423.724942 102.422535,423.920746 L102.422535,426.009324 L102.422535,426.009324 Z"/>
    <path fill="#535C69" d="M18.9054326,414 L5.0945674,414 C4.51509054,414 4,414.48951 4,415.109557 L4,418.927739 C4,419.515152 4.48289738,420.037296 5.0945674,420.037296 L18.9054326,420.037296 C19.4849095,420.037296 20,419.547786 20,418.927739 L20,415.109557 C20,414.48951 19.5171026,414 18.9054326,414 L18.9054326,414 Z M18.4225352,418.04662 C18.4225352,418.242424 18.2615694,418.405594 18.0684105,418.405594 L5.9637827,418.405594 C5.77062374,418.405594 5.60965795,418.242424 5.60965795,418.04662 L5.60965795,415.958042 C5.60965795,415.762238 5.77062374,415.599068 5.9637827,415.599068 L18.0684105,415.599068 C18.2615694,415.599068 18.4225352,415.762238 18.4225352,415.958042 L18.4225352,418.04662 L18.4225352,418.04662 Z M18.9054326,421.962704 L5.0945674,421.962704 C4.51509054,421.962704 4,422.452214 4,423.072261 L4,426.890443 C4,427.477855 4.48289738,428 5.0945674,428 L18.9054326,428 C19.4849095,428 20,427.51049 20,426.890443 L20,423.072261 C20,422.452214 19.5171026,421.962704 18.9054326,421.962704 L18.9054326,421.962704 Z M18.4225352,426.009324 C18.4225352,426.205128 18.2615694,426.368298 18.0684105,426.368298 L5.9637827,426.368298 C5.77062374,426.368298 5.60965795,426.205128 5.60965795,426.009324 L5.60965795,423.920746 C5.60965795,423.724942 5.77062374,423.561772 5.9637827,423.561772 L18.0684105,423.561772 C18.2615694,423.561772 18.4225352,423.724942 18.4225352,423.920746 L18.4225352,426.009324 L18.4225352,426.009324 Z" opacity=".7"/>
    <path fill="#535C69" d="M100.777251,360.426145 L91.1848341,360.426145 C90.9952607,360.426145 90.8436019,360.281025 90.8436019,360.099626 L90.8436019,358.75727 C90.8436019,358.575871 90.9952607,358.430752 91.1848341,358.430752 L100.777251,358.430752 C100.966825,358.430752 101.118483,358.575871 101.118483,358.75727 L101.118483,360.099626 C101.156398,360.281025 100.966825,360.426145 100.777251,360.426145 M100.777251,364.48949 L91.1848341,364.48949 C90.9952607,364.48949 90.8436019,364.344371 90.8436019,364.162971 L90.8436019,362.820616 C90.8436019,362.639217 90.9952607,362.494097 91.1848341,362.494097 L100.777251,362.494097 C100.966825,362.494097 101.118483,362.639217 101.118483,362.820616 L101.118483,364.162971 C101.156398,364.344371 100.966825,364.48949 100.777251,364.48949 M102.293839,356 L89.6682464,356 C88.7582938,356 88,356.725597 88,357.596314 L88,365.759286 C88,366.630003 88.7582938,367.3556 89.6682464,367.3556 L97.3270142,367.3556 C97.4407583,367.3556 97.5165877,367.39188 97.5924171,367.46444 L99.943128,369.895191 C100.170616,370.112871 100.549763,369.967751 100.549763,369.677512 L100.549763,367.682119 C100.549763,367.50072 100.701422,367.3556 100.890995,367.3556 L102.331754,367.3556 C103.241706,367.3556 104,366.630003 104,365.759286 L104,357.596314 C103.962085,356.725597 103.203791,356 102.293839,356"/>
    <path fill="#535C69" d="M16.7772512,360.426145 L7.18483412,360.426145 C6.99526066,360.426145 6.8436019,360.281025 6.8436019,360.099626 L6.8436019,358.75727 C6.8436019,358.575871 6.99526066,358.430752 7.18483412,358.430752 L16.7772512,358.430752 C16.9668246,358.430752 17.1184834,358.575871 17.1184834,358.75727 L17.1184834,360.099626 C17.1563981,360.281025 16.9668246,360.426145 16.7772512,360.426145 M16.7772512,364.48949 L7.18483412,364.48949 C6.99526066,364.48949 6.8436019,364.344371 6.8436019,364.162971 L6.8436019,362.820616 C6.8436019,362.639217 6.99526066,362.494097 7.18483412,362.494097 L16.7772512,362.494097 C16.9668246,362.494097 17.1184834,362.639217 17.1184834,362.820616 L17.1184834,364.162971 C17.1563981,364.344371 16.9668246,364.48949 16.7772512,364.48949 M18.2938389,356 L5.66824645,356 C4.75829384,356 4,356.725597 4,357.596314 L4,365.759286 C4,366.630003 4.75829384,367.3556 5.66824645,367.3556 L13.3270142,367.3556 C13.4407583,367.3556 13.5165877,367.39188 13.5924171,367.46444 L15.943128,369.895191 C16.1706161,370.112871 16.549763,369.967751 16.549763,369.677512 L16.549763,367.682119 C16.549763,367.50072 16.7014218,367.3556 16.8909953,367.3556 L18.3317536,367.3556 C19.2417062,367.3556 20,366.630003 20,365.759286 L20,357.596314 C19.9620853,356.725597 19.2037915,356 18.2938389,356" opacity=".7"/>
    <path fill="#535C69" d="M102.293412,580 L89.639696,580 C88.7258165,580 87.9525338,580.773283 87.9525338,581.687162 L87.9525338,586.818947 L91.1159629,586.818947 L91.1159629,586.818947 L100.746847,586.818947 C100.957742,586.818947 101.098339,586.959544 101.098339,587.170439 L101.098339,588.576408 C101.168637,588.787303 100.957742,588.9279 100.746847,588.9279 L95.4041667,588.9279 L95.4041667,591.950732 L97.3022242,591.950732 C97.442821,591.950732 97.5131194,592.02103 97.5834179,592.091329 L99.9032659,594.622072 C100.114161,594.832967 100.535952,594.692371 100.535952,594.411177 L100.535952,592.302224 C100.535952,592.091329 100.676549,591.950732 100.887444,591.950732 L102.363711,591.950732 C103.27759,591.950732 104.050873,591.177449 104.050873,590.26357 L104.050873,581.687162 C103.910276,580.773283 103.207292,580 102.293412,580 L102.293412,580 Z M101.098339,584.288204 C101.168637,584.499099 100.957742,584.639696 100.746847,584.639696 L91.1159629,584.639696 C90.9050676,584.639696 90.7644708,584.499099 90.7644708,584.288204 L90.7644708,582.882235 C90.7644708,582.67134 90.9050676,582.530743 91.1159629,582.530743 L100.746847,582.530743 C100.957742,582.530743 101.098339,582.67134 101.098339,582.882235 L101.098339,584.288204 L101.098339,584.288204 Z M90.2020834,588.154617 C90.1317849,588.084319 89.9208897,588.084319 89.7802928,588.154617 C89.639696,588.224916 89.5693976,588.365512 89.5693976,588.506109 L89.5693976,590.052675 L85.3514921,590.052675 C85.1405968,590.052675 85,590.193271 85,590.404167 L85,592.02103 C85,592.231926 85.1405968,592.372523 85.3514921,592.372523 L89.5693976,592.372523 L89.5693976,593.919088 C89.5693976,594.059685 89.639696,594.200282 89.7802928,594.27058 C89.9208897,594.340878 90.0614865,594.340878 90.2020834,594.27058 L93.0140203,591.528942 C93.0843187,591.458643 93.1546172,591.318046 93.1546172,591.247748 C93.1546172,591.107151 93.0843187,591.036853 93.0140203,590.966554 L90.2020834,588.154617 L90.2020834,588.154617 Z"/>
    <path fill="#535C69" d="M18.2934123,580 L5.63969597,580 C4.72581646,580 3.9525338,580.773283 3.9525338,581.687162 L3.9525338,586.818947 L7.11596287,586.818947 L7.11596287,586.818947 L16.7468469,586.818947 C16.9577422,586.818947 17.0983391,586.959544 17.0983391,587.170439 L17.0983391,588.576408 C17.1686375,588.787303 16.9577422,588.9279 16.7468469,588.9279 L11.4041667,588.9279 L11.4041667,591.950732 L13.3022242,591.950732 C13.442821,591.950732 13.5131194,592.02103 13.5834179,592.091329 L15.9032659,594.622072 C16.1141611,594.832967 16.5359517,594.692371 16.5359517,594.411177 L16.5359517,592.302224 C16.5359517,592.091329 16.6765485,591.950732 16.8874438,591.950732 L18.3637107,591.950732 C19.2775902,591.950732 20.0508729,591.177449 20.0508729,590.26357 L20.0508729,581.687162 C19.910276,580.773283 19.2072918,580 18.2934123,580 L18.2934123,580 Z M17.0983391,584.288204 C17.1686375,584.499099 16.9577422,584.639696 16.7468469,584.639696 L7.11596287,584.639696 C6.9050676,584.639696 6.76447076,584.499099 6.76447076,584.288204 L6.76447076,582.882235 C6.76447076,582.67134 6.9050676,582.530743 7.11596287,582.530743 L16.7468469,582.530743 C16.9577422,582.530743 17.0983391,582.67134 17.0983391,582.882235 L17.0983391,584.288204 L17.0983391,584.288204 Z M6.20208336,588.154617 C6.13178494,588.084319 5.92088967,588.084319 5.78029282,588.154617 C5.63969597,588.224916 5.56939755,588.365512 5.56939755,588.506109 L5.56939755,590.052675 L1.35149212,590.052675 C1.14059685,590.052675 1,590.193271 1,590.404167 L1,592.02103 C1,592.231926 1.14059685,592.372523 1.35149212,592.372523 L5.56939755,592.372523 L5.56939755,593.919088 C5.56939755,594.059685 5.63969597,594.200282 5.78029282,594.27058 C5.92088967,594.340878 6.06148652,594.340878 6.20208336,594.27058 L9.01402032,591.528942 C9.08431874,591.458643 9.15461717,591.318046 9.15461717,591.247748 C9.15461717,591.107151 9.08431874,591.036853 9.01402032,590.966554 L6.20208336,588.154617 L6.20208336,588.154617 Z" opacity=".7"/>
    <path fill="#535C69" d="M102.887444,632.687162 C102.887444,631.773283 102.114161,631 101.200282,631 L88.6871622,631 C87.7732827,631 87,631.773283 87,632.687162 L87,641.26357 C87,642.177449 87.7732827,642.950732 88.6871622,642.950732 L90.0931306,642.950732 C90.3040259,642.950732 90.4446228,643.091329 90.4446228,643.302224 L90.4446228,645.411177 C90.4446228,645.692371 90.7961149,645.832967 91.0773086,645.622072 L93.3971566,643.091329 C93.467455,643.02103 93.5377534,642.950732 93.6783503,642.950732 L96.2090935,642.950732 L96.2090935,639.9279 L90.3040259,639.9279 C90.0931306,639.9279 89.9525338,639.787303 89.9525338,639.576408 L89.9525338,638.170439 C89.9525338,637.959544 90.0931306,637.818947 90.3040259,637.818947 L97.3338683,637.818947 L97.3338683,637.818947 L102.957742,637.818947 L102.957742,632.687162 L102.887444,632.687162 Z M100.075507,635.358502 C100.075507,635.569398 99.93491,635.709994 99.7240147,635.709994 L90.2337275,635.709994 C90.0228322,635.709994 89.8822354,635.569398 89.8822354,635.358502 L89.8822354,633.952534 C89.8822354,633.741639 90.0228322,633.601042 90.2337275,633.601042 L99.7240147,633.601042 C99.93491,633.601042 100.075507,633.741639 100.075507,633.952534 L100.075507,635.358502 L100.075507,635.358502 Z M106.542962,642.177449 L103.731025,639.435811 C103.660726,639.365512 103.449831,639.365512 103.309234,639.435811 C103.168637,639.506109 103.098339,639.646706 103.098339,639.787303 L103.098339,641.333868 L98.8804336,641.333868 C98.6695384,641.333868 98.5289415,641.474465 98.5289415,641.68536 L98.5289415,643.302224 C98.5289415,643.513119 98.6695384,643.653716 98.8804336,643.653716 L103.098339,643.653716 L103.098339,645.200282 C103.098339,645.340878 103.168637,645.481475 103.309234,645.551774 C103.449831,645.622072 103.590428,645.622072 103.731025,645.551774 L106.542962,642.810135 C106.61326,642.739837 106.683559,642.59924 106.683559,642.528942 C106.683559,642.388345 106.61326,642.247748 106.542962,642.177449 L106.542962,642.177449 Z"/>
    <path fill="#535C69" d="M18.8874438,632.687162 C18.8874438,631.773283 18.1141611,631 17.2002816,631 L4.68716217,631 C3.77328266,631 3,631.773283 3,632.687162 L3,641.26357 C3,642.177449 3.77328266,642.950732 4.68716217,642.950732 L6.09313065,642.950732 C6.30402592,642.950732 6.44462277,643.091329 6.44462277,643.302224 L6.44462277,645.411177 C6.44462277,645.692371 6.79611489,645.832967 7.07730858,645.622072 L9.39715657,643.091329 C9.46745499,643.02103 9.53775342,642.950732 9.67835027,642.950732 L12.2090935,642.950732 L12.2090935,639.9279 L6.30402592,639.9279 C6.09313065,639.9279 5.9525338,639.787303 5.9525338,639.576408 L5.9525338,638.170439 C5.9525338,637.959544 6.09313065,637.818947 6.30402592,637.818947 L13.3338683,637.818947 L13.3338683,637.818947 L18.9577422,637.818947 L18.9577422,632.687162 L18.8874438,632.687162 Z M16.0755068,635.358502 C16.0755068,635.569398 15.93491,635.709994 15.7240147,635.709994 L6.2337275,635.709994 C6.02283223,635.709994 5.88223538,635.569398 5.88223538,635.358502 L5.88223538,633.952534 C5.88223538,633.741639 6.02283223,633.601042 6.2337275,633.601042 L15.7240147,633.601042 C15.93491,633.601042 16.0755068,633.741639 16.0755068,633.952534 L16.0755068,635.358502 L16.0755068,635.358502 Z M22.5429618,642.177449 L19.7310249,639.435811 C19.6607265,639.365512 19.4498312,639.365512 19.3092343,639.435811 C19.1686375,639.506109 19.0983391,639.646706 19.0983391,639.787303 L19.0983391,641.333868 L14.8804336,641.333868 C14.6695384,641.333868 14.5289415,641.474465 14.5289415,641.68536 L14.5289415,643.302224 C14.5289415,643.513119 14.6695384,643.653716 14.8804336,643.653716 L19.0983391,643.653716 L19.0983391,645.200282 C19.0983391,645.340878 19.1686375,645.481475 19.3092343,645.551774 C19.4498312,645.622072 19.590428,645.622072 19.7310249,645.551774 L22.5429618,642.810135 C22.6132603,642.739837 22.6835587,642.59924 22.6835587,642.528942 C22.6835587,642.388345 22.6132603,642.247748 22.5429618,642.177449 L22.5429618,642.177449 Z" opacity=".7"/>
    <path fill="#535C69" d="M84.0341394,475.795322 L85.7069701,475.795322 L85.7069701,482.967836 L87.2432432,482.967836 L87.2432432,474.315789 L84,474.315789 L84,475.795322 L84.0341394,475.795322 Z M92.1934566,477.371345 C92.1934566,475.216374 94.0369844,473.479532 96.3243243,473.479532 C98.5433855,473.479532 100.386913,475.152047 100.455192,477.24269 L101.991465,477.24269 C101.923186,474.347953 99.3968706,472 96.2901849,472 C93.1493599,472 90.5889047,474.412281 90.5889047,477.371345 C90.5889047,480.330409 93.1493599,482.74269 96.2901849,482.74269 L107.965861,482.74269 L107.965861,481.295322 L96.2901849,481.295322 C94.0369844,481.263158 92.1934566,479.526316 92.1934566,477.371345 L92.1934566,477.371345 Z M85.3314367,473.608187 L87.9260313,473.608187 L87.9260313,483 L89.4623044,483 L89.4623044,472.160819 L85.3314367,472.160819 L85.3314367,473.608187 L85.3314367,473.608187 Z M94.3783784,477.371345 C94.3783784,476.374269 95.2660028,475.538012 96.3243243,475.538012 C97.3485064,475.538012 98.2019915,476.277778 98.2702703,477.24269 L99.8065434,477.24269 C99.7382646,475.473684 98.2019915,474.090643 96.3243243,474.090643 C94.4125178,474.090643 92.8421053,475.570175 92.8421053,477.371345 C92.8421053,479.172515 94.4125178,480.652047 96.3243243,480.652047 L108,480.652047 L108,479.204678 L96.3243243,479.204678 C95.2660028,479.204678 94.3783784,478.368421 94.3783784,477.371345 Z"/>
    <path fill="#535C69" d="M0.0341394026,475.795322 L1.70697013,475.795322 L1.70697013,482.967836 L3.24324324,482.967836 L3.24324324,474.315789 L0,474.315789 L0,475.795322 L0.0341394026,475.795322 Z M8.19345661,477.371345 C8.19345661,475.216374 10.0369844,473.479532 12.3243243,473.479532 C14.5433855,473.479532 16.3869132,475.152047 16.455192,477.24269 L17.9914651,477.24269 C17.9231863,474.347953 15.3968706,472 12.2901849,472 C9.14935989,472 6.58890469,474.412281 6.58890469,477.371345 C6.58890469,480.330409 9.14935989,482.74269 12.2901849,482.74269 L23.9658606,482.74269 L23.9658606,481.295322 L12.2901849,481.295322 C10.0369844,481.263158 8.19345661,479.526316 8.19345661,477.371345 L8.19345661,477.371345 Z M1.3314367,473.608187 L3.92603129,473.608187 L3.92603129,483 L5.46230441,483 L5.46230441,472.160819 L1.3314367,472.160819 L1.3314367,473.608187 L1.3314367,473.608187 Z M10.3783784,477.371345 C10.3783784,476.374269 11.2660028,475.538012 12.3243243,475.538012 C13.3485064,475.538012 14.2019915,476.277778 14.2702703,477.24269 L15.8065434,477.24269 C15.7382646,475.473684 14.2019915,474.090643 12.3243243,474.090643 C10.4125178,474.090643 8.84210526,475.570175 8.84210526,477.371345 C8.84210526,479.172515 10.4125178,480.652047 12.3243243,480.652047 L24,480.652047 L24,479.204678 L12.3243243,479.204678 C11.2660028,479.204678 10.3783784,478.368421 10.3783784,477.371345 Z" opacity=".7"/>
    <g transform="translate(5 675)">
      <path fill="#F16C09" d="M6.99737834,0 C4.48779883,1.21921125 0,5.48917695 0,10.0533128 C0,14.6177213 4.28414257,16.0853005 4.28414257,16.0853005 L7.71167473,16.0853005 C7.71167473,16.0853005 11.9958173,14.7055089 11.9958173,10.8076861 C11.9958173,5.31551023 6.52190776,4.21298556 6.99737834,0"/>
      <path fill="#FFFFFF" d="M3,13 C3,15.1994664 5.33761983,16 5,16 L7,16 C7.20783471,16 9,15.2473527 9,13 C9,10.1253056 6.54555372,10.3225806 6,8 C4.63066116,8.66505413 3,10.2200372 3,13 L3,13 Z"/>
    </g>
  </g>
</svg>
