<svg width="12" height="16" viewBox="0 0 12 16" fill="none" xmlns="http://www.w3.org/2000/svg">
<path fill-rule="evenodd" clip-rule="evenodd" d="M12 5.99561V12.6244C12 14.4886 10.4477 15.9998 8.53281 15.9998H3.46718C1.55231 15.9998 0 14.4886 0 12.6244V5.99561H12ZM8.63919 8.0745L5.14553 11.3735L3.74449 10.0547L2.76159 10.9873L5.14553 13.2386L9.62209 9.00706L8.63919 8.0745Z" fill="#9DCF00"/>
<path opacity="0.711844" d="M6.08183 0C8.48712 0 10.437 1.89826 10.437 4.23987L10.4366 5.36436H8.7932L8.79353 4.23987C8.79353 2.78189 7.57946 1.59995 6.08183 1.59995H5.91749C4.41985 1.59995 3.20578 2.78189 3.20578 4.23987L3.20497 5.36436H1.56152L1.56233 4.23987C1.56233 1.89826 3.5122 0 5.91749 0H6.08183Z" fill="#A8ADB4"/>
</svg>
