<svg width="20" height="20" viewBox="0 0 20 20" fill="none" xmlns="http://www.w3.org/2000/svg">
	<path fill-rule="evenodd" clip-rule="evenodd" d="M9.94528 4.35764C9.93345 4.36123 9.92111 4.36841 9.90826 4.37486L4.36766 6.56791C4.22884 6.63321 4.17845 6.77458 4.17433 6.94105V14.0022C4.17587 14.1601 4.25865 14.3101 4.36766 14.3524L9.85482 16.5223C9.92269 16.5524 10.0116 16.5481 10.0852 16.528L15.6216 14.3409C15.7306 14.2964 15.8118 14.1435 15.8108 13.9849V6.98696C15.8138 6.77168 15.7604 6.64539 15.6174 6.57936L10.0481 4.37493C10.0101 4.35555 9.98027 4.34766 9.94531 4.35771L9.94528 4.35764ZM9.97819 5.10968L14.5769 6.93523L9.97819 8.7493L5.37541 6.9295L9.97819 5.10968Z" fill="#A8ADB4"/>
</svg>