<svg width="51" height="10" viewBox="0 0 51 10" fill="none" xmlns="http://www.w3.org/2000/svg">
<path d="M24.3697 1.711C24.3488 1.711 24.3279 1.71191 24.3071 1.71373C14.0588 2.60883 7.45475 3.56469 2.78996 4.31057C2.15923 4.41142 1.78364 4.92167 1.76939 5.45269C1.75502 5.98843 2.11014 6.52098 2.74655 6.64134C7.81359 7.59962 14.5058 8.19288 24.4108 8.97879C24.4298 8.9803 24.4488 8.98105 24.4678 8.98105C31.1555 8.98105 37.2455 8.56165 41.6732 7.99309C43.8837 7.70924 45.6986 7.38588 46.9726 7.05341C47.6043 6.88854 48.1363 6.71308 48.5243 6.52444C48.7156 6.43143 48.9096 6.31741 49.0662 6.17326C49.2135 6.03774 49.4245 5.78434 49.4245 5.41857C49.4245 5.05198 49.212 4.79815 49.0665 4.6635C48.9103 4.51904 48.7165 4.40354 48.5243 4.30854C48.1346 4.11588 47.5996 3.93445 46.9631 3.76261C45.68 3.41617 43.8528 3.07437 41.6295 2.7722C37.1762 2.16697 31.06 1.711 24.3697 1.711Z" fill="#525C69" fill-opacity="0.795318" stroke="white" stroke-width="1.44" stroke-linejoin="round"/>
</svg>