<svg width="20" height="14" viewBox="0 0 20 14" fill="none" xmlns="http://www.w3.org/2000/svg">
<path fill-rule="evenodd" clip-rule="evenodd" d="M3.37686 0.583557C2.82457 0.583557 2.37686 1.03127 2.37686 1.58356V10.7658H0.908517C0.492787 10.7658 0.258639 11.2437 0.513386 11.5722L1.64316 13.0292C1.83257 13.2735 2.12431 13.4165 2.43342 13.4165H17.6669C17.9918 13.4165 18.2964 13.2587 18.4838 12.9933L19.4999 11.5542C19.7338 11.2231 19.497 10.7658 19.0915 10.7658H17.6256V1.58356C17.6256 1.03127 17.1779 0.583557 16.6256 0.583557H3.37686ZM12.1985 10.7658H15.2488C15.3772 10.7319 15.4718 10.6149 15.4718 10.4758V2.72389C15.4718 2.55821 15.3375 2.42389 15.1718 2.42389H4.83072C4.66504 2.42389 4.53072 2.55821 4.53072 2.72389V10.4758C4.53072 10.6149 4.62537 10.7319 4.75377 10.7658H7.80384C7.85811 11.2669 8.28249 11.6569 8.79797 11.6569H11.2044C11.7199 11.6569 12.1443 11.2669 12.1985 10.7658Z" fill="#525C69"/>
</svg>
