<svg width="12" height="12" viewBox="0 0 12 12" fill="none" xmlns="http://www.w3.org/2000/svg">
<path fill-rule="evenodd" clip-rule="evenodd" d="M6 12C9.31371 12 12 9.31371 12 6C12 2.68629 9.31371 0 6 0C2.68629 0 0 2.68629 0 6C0 9.31371 2.68629 12 6 12ZM5.24466 7.97196V9.32716H6.62626V7.97196H5.24466ZM5.12146 5.06796H3.82786C3.83373 4.75116 3.88799 4.46077 3.99066 4.19676C4.09333 3.93276 4.23706 3.70397 4.42186 3.51036C4.60666 3.31676 4.82959 3.1657 5.09066 3.05716C5.35173 2.94863 5.64359 2.89436 5.96626 2.89436C6.3828 2.89436 6.73039 2.95156 7.00906 3.06596C7.28773 3.18037 7.51213 3.32263 7.68226 3.49276C7.85239 3.6629 7.97413 3.84623 8.04746 4.04276C8.12079 4.2393 8.15746 4.42263 8.15746 4.59276C8.15746 4.87437 8.12079 5.1061 8.04746 5.28796C7.97413 5.46983 7.88319 5.6253 7.77466 5.75436C7.66613 5.88343 7.54586 5.99343 7.41386 6.08436C7.28186 6.1753 7.15719 6.26623 7.03986 6.35716C6.92253 6.4481 6.81839 6.55223 6.72746 6.66956C6.63653 6.7869 6.57933 6.93356 6.55586 7.10956V7.44396H5.36786V7.04796C5.38546 6.7957 5.43386 6.5845 5.51306 6.41436C5.59226 6.24423 5.68466 6.09903 5.79026 5.97876C5.89586 5.8585 6.00733 5.75436 6.12466 5.66636C6.24199 5.57836 6.35053 5.49037 6.45026 5.40236C6.54999 5.31436 6.63066 5.21757 6.69226 5.11196C6.75386 5.00636 6.78173 4.87437 6.77586 4.71596C6.77586 4.4461 6.70986 4.24663 6.57786 4.11756C6.44586 3.9885 6.26253 3.92396 6.02786 3.92396C5.86946 3.92396 5.73306 3.95476 5.61866 4.01636C5.50426 4.07796 5.41039 4.1601 5.33706 4.26276C5.26373 4.36543 5.20946 4.4857 5.17426 4.62356C5.13906 4.76143 5.12146 4.90956 5.12146 5.06796Z" fill="#B0B6BC"/>
</svg>