<svg width="24" height="17" viewBox="0 0 24 17" fill="none" xmlns="http://www.w3.org/2000/svg">
	<path fill-rule="evenodd" clip-rule="evenodd" d="M18.6135 16.7924H6.11555C6.00861 16.7924 5.90259 16.7884 5.79763 16.7806C2.97305 16.7156 0.703268 14.382 0.703125 11.513C0.703946 10.1146 1.25458 8.77378 2.23388 7.78555C2.73586 7.279 3.32939 6.88635 3.97515 6.62404C3.96434 6.48174 3.95884 6.33794 3.95884 6.19285C3.95973 4.71734 4.54075 3.30261 5.57407 2.2599C6.60739 1.2172 8.00838 0.631914 9.46883 0.632814C11.3396 0.635118 12.9913 1.58029 13.984 3.02291C14.4553 2.85417 14.9628 2.76246 15.4914 2.76274C17.8267 2.76558 19.7447 4.56412 19.9671 6.86415C22.2047 7.357 23.8792 9.37099 23.8772 11.779C23.8749 14.5539 21.6471 16.8019 18.9004 16.8008C18.8041 16.8007 18.7085 16.7979 18.6135 16.7924Z" fill="#2FC6F6"/>
</svg>