<svg width="22" height="22" viewBox="0 0 22 22" fill="none" xmlns="http://www.w3.org/2000/svg">
	<path fill-rule="evenodd" clip-rule="evenodd" d="M11.2045 17.6659C14.9067 17.6659 17.9079 14.6647 17.9079 10.9626C17.9079 7.26045 14.9067 4.25928 11.2045 4.25928C7.80512 4.25928 4.99672 6.78972 4.56017 10.0698H1.73145L5.47097 13.8093L9.2105 10.0698H6.26686C6.68805 7.72496 8.73851 5.9457 11.2045 5.9457C13.9753 5.9457 16.2214 8.19184 16.2214 10.9626C16.2214 13.7333 13.9753 15.9795 11.2045 15.9795C11.0776 15.9795 10.9519 15.9748 10.8273 15.9655V17.6555C10.9522 17.6624 11.078 17.6659 11.2045 17.6659ZM11.93 8.31817H10.2448V12.5311H11.4986H11.93H13.9857V10.8959H11.93V8.31817Z" fill="#fff"/>
</svg>