<svg width="218" height="180" viewBox="0 0 218 180" fill="none" xmlns="http://www.w3.org/2000/svg">
	<path fill-rule="evenodd" clip-rule="evenodd" d="M156.909 5.2165C158.238 5.2165 159.315 4.13947 159.315 2.81089C159.315 1.4823 158.238 0.405273 156.909 0.405273C155.58 0.405273 154.503 1.4823 154.503 2.81089C154.503 4.13947 155.58 5.2165 156.909 5.2165ZM38.2039 25.9971C41.0841 25.9971 43.4189 23.6623 43.4189 20.7821C43.4189 17.902 41.0841 15.5671 38.2039 15.5671C35.3237 15.5671 32.9889 17.902 32.9889 20.7821C32.9889 23.6623 35.3237 25.9971 38.2039 25.9971ZM38.2039 23.0895C39.4782 23.0895 40.5112 22.0564 40.5112 20.7821C40.5112 19.5078 39.4782 18.4748 38.2039 18.4748C36.9296 18.4748 35.8965 19.5078 35.8965 20.7821C35.8965 22.0564 36.9296 23.0895 38.2039 23.0895ZM11.7102 76.9081C15.5894 76.9081 18.7341 73.7633 18.7341 69.8841C18.7341 66.0049 15.5894 62.8602 11.7102 62.8602C7.83099 62.8602 4.68628 66.0049 4.68628 69.8841C4.68628 73.7633 7.83099 76.9081 11.7102 76.9081ZM11.7102 73.2423C13.5648 73.2423 15.0683 71.7388 15.0683 69.8841C15.0683 68.0295 13.5648 66.526 11.7102 66.526C9.85555 66.526 8.35206 68.0295 8.35206 69.8841C8.35206 71.7388 9.85555 73.2423 11.7102 73.2423ZM190.039 165.29C192.801 165.29 195.04 163.051 195.04 160.289C195.04 157.527 192.801 155.288 190.039 155.288C187.278 155.288 185.039 157.527 185.039 160.289C185.039 163.051 187.278 165.29 190.039 165.29ZM190.039 162.687C191.364 162.687 192.438 161.614 192.438 160.289C192.438 158.965 191.364 157.891 190.039 157.891C188.715 157.891 187.641 158.965 187.641 160.289C187.641 161.614 188.715 162.687 190.039 162.687ZM110 178.135C157.496 178.135 196 139.631 196 92.1345C196 44.638 157.496 6.13452 110 6.13452C62.5035 6.13452 24 44.638 24 92.1345C24 139.631 62.5035 178.135 110 178.135ZM23.9588 172.123H7.24022C7.09716 172.123 6.95534 172.118 6.81493 172.107C3.03648 172.019 0.000190901 168.843 0 164.939C0.00109851 163.037 0.737676 161.212 2.04769 159.867C2.71919 159.178 3.51317 158.644 4.37699 158.287C4.36254 158.093 4.35518 157.898 4.35518 157.7C4.35637 155.692 5.13359 153.767 6.51587 152.349C7.89815 150.93 9.77226 150.133 11.7259 150.135C14.2285 150.138 16.438 151.424 17.7658 153.387C18.3964 153.157 19.0752 153.032 19.7823 153.033C22.9062 153.037 25.472 155.484 25.7694 158.614C28.7627 159.284 31.0026 162.025 31 165.301C30.9969 169.077 28.0168 172.136 24.3426 172.135C24.2138 172.134 24.0858 172.131 23.9588 172.123ZM201.138 39.1268H213.003C213.093 39.1319 213.184 39.1345 213.275 39.1345C215.883 39.1356 217.998 37.05 218 34.4755C218.002 32.2415 216.412 30.373 214.288 29.9157C214.077 27.7818 212.256 26.1132 210.039 26.1106C209.537 26.1103 209.055 26.1954 208.608 26.352C207.666 25.0136 206.098 24.1367 204.322 24.1345C202.935 24.1337 201.605 24.6767 200.624 25.6441C199.643 26.6115 199.092 27.924 199.091 29.2929C199.091 29.4275 199.096 29.5609 199.106 29.6929C198.493 29.9363 197.93 30.3006 197.453 30.7706C196.524 31.6874 196.001 32.9313 196 34.2287C196 36.8905 198.155 39.0555 200.836 39.1158C200.936 39.1231 201.037 39.1268 201.138 39.1268Z" fill="#1B2B34"/>
	<g filter="url(#filter0_d_13708_68446)">
		<path d="M52 37.172C52 33.8377 54.7047 31.1348 58.0412 31.1348H159.959C163.295 31.1348 166 33.8377 166 37.172V61.0975C166 64.4318 163.295 67.1348 159.959 67.1348H58.0412C54.7047 67.1348 52 64.4318 52 61.0975V37.172Z" fill="#6A737F"/>
	</g>
	<path fill-rule="evenodd" clip-rule="evenodd" d="M151.833 59.8011C152.88 59.0125 153.497 57.7786 153.5 56.4678C153.5 54.675 152.289 54.9126 151.082 52.471C151.038 52.3817 150.926 52.347 150.843 52.4024C149.475 53.3177 148.607 54.8189 148.5 56.4678C148.58 57.759 149.182 58.9622 150.167 59.8011H149.575C147.468 59.0289 146.049 57.0447 146 54.8011C146 51.3198 149.168 48.0453 151.304 46.7571C151.528 46.6214 151.8 46.8104 151.813 47.0728C151.967 50.0836 156 51.1481 156 55.4261C156 58.6569 152.425 59.8011 152.425 59.8011H151.833Z" fill="#24B4E1"/>
	<path opacity="0.5" d="M60 39.3121C60 38.1096 60.9748 37.1348 62.1774 37.1348H134.583C135.785 37.1348 136.76 38.1096 136.76 39.3121C136.76 40.5146 135.785 41.4895 134.583 41.4895H62.1774C60.9748 41.4895 60 40.5146 60 39.3121Z" fill="#24B4E1"/>
	<circle opacity="0.5" cx="67.5" cy="53.6348" r="7.5" fill="#24B4E1"/>
	<path opacity="0.35" d="M81 53.6348C81 50.8733 83.2386 48.6348 86 48.6348H105C107.761 48.6348 110 50.8733 110 53.6348C110 56.3962 107.761 58.6348 105 58.6348H86C83.2386 58.6348 81 56.3962 81 53.6348Z" fill="#24B4E1"/>
	<g filter="url(#filter1_d_13708_68446)">
		<path d="M52 79.172C52 75.8377 54.7047 73.1348 58.0412 73.1348H159.959C163.295 73.1348 166 75.8377 166 79.172V103.097C166 106.432 163.295 109.135 159.959 109.135H58.0412C54.7047 109.135 52 106.432 52 103.098V79.172Z" fill="#6A737F"/>
	</g>
	<path opacity="0.35" d="M60 81.3121C60 80.1096 60.9748 79.1348 62.1774 79.1348H114.583C115.785 79.1348 116.76 80.1096 116.76 81.3121C116.76 82.5146 115.785 83.4895 114.583 83.4895H62.1774C60.9748 83.4895 60 82.5146 60 81.3121Z" fill="#BDC1C6"/>
	<circle opacity="0.35" cx="67.5" cy="95.6348" r="7.5" fill="#BDC1C6"/>
	<path opacity="0.2" d="M81 95.6348C81 92.8733 83.2386 90.6348 86 90.6348H105C107.761 90.6348 110 92.8733 110 95.6348C110 98.3962 107.761 100.635 105 100.635H86C83.2386 100.635 81 98.3962 81 95.6348Z" fill="#BDC1C6"/>
	<g filter="url(#filter2_d_13708_68446)">
		<path d="M52 121.172C52 117.838 54.7047 115.135 58.0412 115.135H159.959C163.295 115.135 166 117.838 166 121.172V145.097C166 148.432 163.295 151.135 159.959 151.135H58.0412C54.7047 151.135 52 148.432 52 145.098V121.172Z" fill="#6A737F"/>
	</g>
	<path opacity="0.35" d="M60 123.312C60 122.11 60.9748 121.135 62.1774 121.135H114.583C115.785 121.135 116.76 122.11 116.76 123.312C116.76 124.515 115.785 125.489 114.583 125.489H62.1774C60.9748 125.489 60 124.515 60 123.312Z" fill="#BDC1C6"/>
	<circle opacity="0.35" cx="67.5" cy="137.635" r="7.5" fill="#BDC1C6"/>
	<path opacity="0.2" d="M81 137.635C81 134.873 83.2386 132.635 86 132.635H105C107.761 132.635 110 134.873 110 137.635C110 140.396 107.761 142.635 105 142.635H86C83.2386 142.635 81 140.396 81 137.635Z" fill="#BDC1C6"/>
	<g filter="url(#filter3_d_13708_68446)">
		<path d="M138 145.135C138 139.543 138 136.748 138.913 134.543C140.131 131.602 142.467 129.266 145.408 128.048C147.613 127.135 150.409 127.135 156 127.135C161.591 127.135 164.387 127.135 166.592 128.048C169.533 129.266 171.869 131.602 173.087 134.543C174 136.748 174 139.543 174 145.135C174 150.726 174 153.522 173.087 155.727C171.869 158.667 169.533 161.003 166.592 162.221C164.387 163.135 161.591 163.135 156 163.135C150.409 163.135 147.613 163.135 145.408 162.221C142.467 161.003 140.131 158.667 138.913 155.727C138 153.522 138 150.726 138 145.135Z" fill="#24B4E1"/>
	</g>
	<path fill-rule="evenodd" clip-rule="evenodd" d="M157.799 137.935C157.799 136.941 156.993 136.135 155.999 136.135C155.005 136.135 154.199 136.941 154.199 137.935V143.335H148.799C147.805 143.335 146.999 144.141 146.999 145.135C146.999 146.129 147.805 146.935 148.799 146.935H154.199V152.335C154.199 153.329 155.005 154.135 155.999 154.135C156.993 154.135 157.799 153.329 157.799 152.335V146.935H163.199C164.194 146.935 164.999 146.129 164.999 145.135C164.999 144.141 164.194 143.335 163.199 143.335H157.799V137.935Z" fill="#6A737F"/>
	<defs>
		<filter id="filter0_d_13708_68446" x="40.46" y="21.8648" width="137.08" height="59.08" filterUnits="userSpaceOnUse" color-interpolation-filters="sRGB">
			<feFlood flood-opacity="0" result="BackgroundImageFix"/>
			<feColorMatrix in="SourceAlpha" type="matrix" values="0 0 0 0 0 0 0 0 0 0 0 0 0 0 0 0 0 0 127 0" result="hardAlpha"/>
			<feOffset dy="2.27"/>
			<feGaussianBlur stdDeviation="5.77"/>
			<feComposite in2="hardAlpha" operator="out"/>
			<feColorMatrix type="matrix" values="0 0 0 0 0.392157 0 0 0 0 0.427451 0 0 0 0 0.482353 0 0 0 0.16 0"/>
			<feBlend mode="normal" in2="BackgroundImageFix" result="effect1_dropShadow_13708_68446"/>
			<feBlend mode="normal" in="SourceGraphic" in2="effect1_dropShadow_13708_68446" result="shape"/>
		</filter>
		<filter id="filter1_d_13708_68446" x="40.46" y="63.8648" width="137.08" height="59.08" filterUnits="userSpaceOnUse" color-interpolation-filters="sRGB">
			<feFlood flood-opacity="0" result="BackgroundImageFix"/>
			<feColorMatrix in="SourceAlpha" type="matrix" values="0 0 0 0 0 0 0 0 0 0 0 0 0 0 0 0 0 0 127 0" result="hardAlpha"/>
			<feOffset dy="2.27"/>
			<feGaussianBlur stdDeviation="5.77"/>
			<feComposite in2="hardAlpha" operator="out"/>
			<feColorMatrix type="matrix" values="0 0 0 0 0.392157 0 0 0 0 0.427451 0 0 0 0 0.482353 0 0 0 0.16 0"/>
			<feBlend mode="normal" in2="BackgroundImageFix" result="effect1_dropShadow_13708_68446"/>
			<feBlend mode="normal" in="SourceGraphic" in2="effect1_dropShadow_13708_68446" result="shape"/>
		</filter>
		<filter id="filter2_d_13708_68446" x="40.46" y="105.865" width="137.08" height="59.08" filterUnits="userSpaceOnUse" color-interpolation-filters="sRGB">
			<feFlood flood-opacity="0" result="BackgroundImageFix"/>
			<feColorMatrix in="SourceAlpha" type="matrix" values="0 0 0 0 0 0 0 0 0 0 0 0 0 0 0 0 0 0 127 0" result="hardAlpha"/>
			<feOffset dy="2.27"/>
			<feGaussianBlur stdDeviation="5.77"/>
			<feComposite in2="hardAlpha" operator="out"/>
			<feColorMatrix type="matrix" values="0 0 0 0 0.392157 0 0 0 0 0.427451 0 0 0 0 0.482353 0 0 0 0.16 0"/>
			<feBlend mode="normal" in2="BackgroundImageFix" result="effect1_dropShadow_13708_68446"/>
			<feBlend mode="normal" in="SourceGraphic" in2="effect1_dropShadow_13708_68446" result="shape"/>
		</filter>
		<filter id="filter3_d_13708_68446" x="126.828" y="120.928" width="58.3448" height="58.3448" filterUnits="userSpaceOnUse" color-interpolation-filters="sRGB">
			<feFlood flood-opacity="0" result="BackgroundImageFix"/>
			<feColorMatrix in="SourceAlpha" type="matrix" values="0 0 0 0 0 0 0 0 0 0 0 0 0 0 0 0 0 0 127 0" result="hardAlpha"/>
			<feOffset dy="4.96552"/>
			<feGaussianBlur stdDeviation="5.58621"/>
			<feComposite in2="hardAlpha" operator="out"/>
			<feColorMatrix type="matrix" values="0 0 0 0 0 0 0 0 0 0 0 0 0 0 0 0 0 0 0.08 0"/>
			<feBlend mode="normal" in2="BackgroundImageFix" result="effect1_dropShadow_13708_68446"/>
			<feBlend mode="normal" in="SourceGraphic" in2="effect1_dropShadow_13708_68446" result="shape"/>
		</filter>
	</defs>
</svg>
