<svg width="20" height="20" viewBox="0 0 20 20" fill="none" xmlns="http://www.w3.org/2000/svg">
	<path fill-rule="evenodd" clip-rule="evenodd" d="M5.34631 10C5.01163 10 4.70942 10.2002 4.57893 10.5084L3.33301 13.451H16.6663L15.4204 10.5084C15.2899 10.2002 14.9877 10 14.653 10H14.254L15.0851 12.18C15.189 12.4527 14.9876 12.7451 14.6957 12.7451H5.23639C4.94017 12.7451 4.73855 12.4447 4.85079 12.1706L5.73947 10H5.34631ZM16.6663 13.451H3.33301V15.8334C3.33301 16.2936 3.7061 16.6667 4.16634 16.6667H15.833C16.2932 16.6667 16.6663 16.2936 16.6663 15.8334V13.451ZM14.1663 15.7256C14.6266 15.7256 14.9997 15.3594 14.9997 14.9077C14.9997 14.4559 14.6266 14.0897 14.1663 14.0897C13.7061 14.0897 13.333 14.4559 13.333 14.9077C13.333 15.3594 13.7061 15.7256 14.1663 15.7256Z" fill="#A8ADB4"/>
	<path d="M10.5 4.16675C10.5 3.89061 10.2761 3.66675 10 3.66675C9.72386 3.66675 9.5 3.89061 9.5 4.16675L10.5 4.16675ZM9.64645 11.187C9.84171 11.3822 10.1583 11.3822 10.3536 11.187L13.5355 8.00499C13.7308 7.80973 13.7308 7.49314 13.5355 7.29788C13.3403 7.10262 13.0237 7.10262 12.8284 7.29788L10 10.1263L7.17157 7.29788C6.97631 7.10262 6.65973 7.10262 6.46447 7.29788C6.2692 7.49314 6.2692 7.80973 6.46447 8.00499L9.64645 11.187ZM9.5 4.16675L9.5 10.8334L10.5 10.8334L10.5 4.16675L9.5 4.16675Z" fill="#A8ADB4"/>
</svg>