<svg width="237" height="71" viewBox="0 0 237 71" fill="none" xmlns="http://www.w3.org/2000/svg">
	<path opacity="0.2" d="M1.41658 38.2032C1.68686 29.849 1.822 25.6718 4.39507 22.9235C6.96814 20.1752 11.1273 19.7655 19.4457 18.9462L200.24 1.139C207.184 0.455105 210.656 0.113157 213.452 1.74296C216.247 3.37276 217.66 6.56231 220.487 12.9414L230.064 34.5584C235.473 46.7685 238.178 52.8736 235.375 57.37C232.572 61.8665 225.9 62.1258 212.555 62.6446L21.8198 70.0587C11.7669 70.4495 6.74047 70.6449 3.65298 67.5774C0.565492 64.51 0.728148 59.4823 1.05346 49.4271L1.41658 38.2032Z" fill="#FAA847"/>
</svg>
