<svg width="214" height="69" viewBox="0 0 214 69" fill="none" xmlns="http://www.w3.org/2000/svg">
	<path opacity="0.2" d="M1.41658 37.2032C1.68686 28.849 1.822 24.6718 4.39507 21.9235C6.96814 19.1752 11.1273 18.7655 19.4457 17.9462L191.513 0.998594C202.261 -0.0600313 207.635 -0.589344 210.954 2.57584C214.272 5.74102 213.997 11.1341 213.448 21.9202L213.005 30.5979C212.59 38.7536 212.382 42.8314 209.841 45.5125C207.3 48.1935 203.239 48.6193 195.117 49.471L23.1761 67.5004C12.5544 68.6141 7.24356 69.171 3.91319 66.0726C0.582825 62.9742 0.755495 57.6371 1.10084 46.9627L1.41658 37.2032Z" fill="#62C6F7"/>
</svg>
