<svg width="312" height="567" viewBox="0 0 312 567" fill="none" xmlns="http://www.w3.org/2000/svg">
	<g clip-path="url(#clip0_121_103486)">
		<rect width="312" height="567" fill="#F5F7F8"/>
		<g filter="url(#filter0_f_121_103486)">
			<path d="M-36.1097 507.041C-42.6907 480.263 -45.9812 466.874 -39.7528 456.448C-33.5243 446.023 -20.1748 442.575 6.52427 435.679L66.4653 420.198C93.8314 413.13 107.514 409.595 118.13 415.962C128.745 422.329 132.07 436.064 138.721 463.535L164.242 568.947C170.508 594.829 173.641 607.77 167.739 618.008C161.837 628.245 149.068 632.019 123.53 639.566L64.4598 657.022C36.5737 665.263 22.6306 669.384 11.661 663.085C0.691303 656.786 -2.77856 642.667 -9.71829 614.429L-36.1097 507.041Z" fill="#62C6F7" fill-opacity="0.25"/>
		</g>
		<g filter="url(#filter1_f_121_103486)">
			<path d="M173.367 434.041C166.786 407.263 163.495 393.874 169.724 383.448C175.952 373.023 189.302 369.575 216.001 362.679L275.942 347.198C303.308 340.13 316.991 336.595 327.606 342.962C338.221 349.329 341.547 363.064 348.197 390.535L373.718 495.947C379.984 521.829 383.117 534.77 377.215 545.008C371.314 555.245 358.545 559.019 333.007 566.566L273.936 584.022C246.05 592.263 232.107 596.384 221.138 590.085C210.168 583.786 206.698 569.667 199.758 541.429L173.367 434.041Z" fill="#6BD8A6" fill-opacity="0.25"/>
		</g>
		<path opacity="0.1" fill-rule="evenodd" clip-rule="evenodd" d="M163.669 400.285C161.472 398.68 158.389 399.16 156.784 401.357L148.368 412.877L139.946 406.724C137.748 405.119 134.665 405.599 133.06 407.796L131.325 410.171C129.72 412.369 130.2 415.451 132.397 417.057L140.82 423.21L132.404 434.73C130.799 436.927 131.279 440.01 133.477 441.615L135.852 443.35C138.049 444.955 141.132 444.475 142.737 442.278L151.153 430.758L160.604 437.662C162.801 439.267 165.884 438.787 167.489 436.59L169.224 434.215C170.829 432.018 170.349 428.935 168.152 427.33L158.701 420.425L167.116 408.905C168.722 406.708 168.242 403.625 166.044 402.02L163.669 400.285Z" fill="white"/>
		<path fill-rule="evenodd" clip-rule="evenodd" d="M305.091 458.976C303.372 458.566 301.647 459.627 301.237 461.345L299.754 467.568L295.398 466.53C293.679 466.12 291.954 467.181 291.544 468.899C291.135 470.618 292.196 472.343 293.914 472.753L298.27 473.791L296.786 480.016C296.376 481.734 297.437 483.46 299.156 483.869C300.874 484.279 302.599 483.218 303.009 481.499L304.493 475.275L309.473 476.462C311.191 476.872 312.917 475.811 313.326 474.093C313.736 472.374 312.675 470.649 310.956 470.239L305.977 469.052L307.461 462.829C307.87 461.111 306.809 459.385 305.091 458.976Z" fill="white"/>
		<path fill-rule="evenodd" clip-rule="evenodd" d="M152.034 511.113C149.854 510.448 147.547 511.677 146.882 513.857L144.473 521.753L138.944 520.067C136.764 519.401 134.457 520.63 133.791 522.81C133.126 524.991 134.355 527.298 136.535 527.963L142.064 529.65L139.655 537.546C138.99 539.726 140.218 542.033 142.399 542.698C144.579 543.363 146.886 542.135 147.551 539.955L149.96 532.058L156.276 533.985C158.456 534.65 160.763 533.422 161.428 531.242C162.093 529.061 160.865 526.754 158.685 526.089L152.369 524.162L154.778 516.266C155.443 514.086 154.215 511.779 152.034 511.113Z" fill="#D79310"/>
		<path d="M172.312 515.971C145.505 470.531 151.825 415.625 158.336 393.853C173.187 401.78 186.235 426.302 190.902 437.571C195.875 482.638 199.119 561.411 172.312 515.971Z" fill="#80BDBB"/>
		<path fill-rule="evenodd" clip-rule="evenodd" d="M149.909 436.891C148.412 436.762 147.093 437.871 146.964 439.368L146.498 444.789L142.7 444.462C141.203 444.333 139.885 445.442 139.756 446.939C139.627 448.437 140.736 449.755 142.233 449.884L146.031 450.211L145.563 455.634C145.434 457.131 146.544 458.449 148.041 458.578C149.538 458.707 150.856 457.598 150.985 456.101L151.452 450.678L155.788 451.051C157.285 451.18 158.603 450.071 158.732 448.574C158.861 447.077 157.752 445.758 156.255 445.629L151.919 445.256L152.386 439.835C152.515 438.338 151.406 437.02 149.909 436.891Z" fill="#D79310"/>
		<path d="M126.364 439.867C140.421 442.76 172.605 473.674 186.94 488.771C185.834 509.739 180.014 547.704 165.583 531.817C147.543 511.958 118.2 438.187 126.364 439.867Z" fill="#6BD8A6"/>
		<path opacity="0.4" d="M176.515 520.55C167.993 502.844 149.342 466.258 142.908 461.565" stroke="white" stroke-width="1.23186" stroke-linecap="round"/>
		<path opacity="0.4" d="M187.287 487.64C182.553 474.836 172.186 444.631 168.59 426.244" stroke="white" stroke-width="1.23186" stroke-linecap="round"/>
		<path d="M179.7 460.654C184.029 436.357 186.194 424.209 195.159 418.389C204.123 412.569 216.101 415.536 240.057 421.47L245.183 422.739C265.872 427.864 276.217 430.426 281.518 438.354C286.818 446.283 285.233 456.821 282.061 477.899L274.075 530.984C270.58 554.21 268.833 565.823 260.516 571.887C252.199 577.951 240.608 576.062 217.426 572.286L194.272 568.514C179.418 566.094 171.991 564.884 168.116 559.521C164.241 554.157 165.425 546.726 167.793 531.863L174.398 490.405L179.7 460.654Z" fill="#2D629D"/>
		<path d="M184.909 463.217C187.529 448.081 188.838 440.514 192.611 435.114C196.519 429.519 202.243 425.449 208.812 423.594C215.15 421.804 222.728 423.052 237.885 425.547V425.547C253.311 428.087 261.024 429.357 266.504 433.163C272.181 437.106 276.297 442.913 278.137 449.576C279.912 456.008 278.555 463.706 275.84 479.102L269.505 515.034C266.945 529.555 265.665 536.816 262.06 542.086C258.294 547.592 252.777 551.663 246.404 553.637C240.305 555.526 232.99 554.606 218.359 552.767V552.767C202.407 550.762 194.43 549.76 188.731 546.049C182.782 542.174 178.425 536.288 176.457 529.466C174.573 522.932 175.944 515.011 178.686 499.168L184.909 463.217Z" fill="#62C6F7"/>
		<path d="M173.732 421.725L188.916 424.009L188.25 428.438C187.619 432.631 183.709 435.519 179.516 434.888V434.888C175.323 434.257 172.435 430.346 173.066 426.154L173.732 421.725Z" fill="#F5CD87"/>
		<path d="M188.918 424.009L204.102 426.294L203.436 430.722C202.805 434.915 198.894 437.803 194.701 437.172V437.172C190.508 436.541 187.621 432.631 188.252 428.438L188.918 424.009Z" fill="#58B1F9"/>
		<path d="M204.102 426.293L219.286 428.577L218.619 433.006C217.988 437.199 214.078 440.086 209.885 439.456V439.456C205.692 438.825 202.804 434.914 203.435 430.721L204.102 426.293Z" fill="#F5CE84"/>
		<path d="M219.285 428.578L234.469 430.862L233.803 435.291C233.172 439.484 229.262 442.372 225.069 441.741V441.741C220.876 441.11 217.988 437.199 218.619 433.007L219.285 428.578Z" fill="#58B1F9"/>
		<path d="M234.469 430.862L249.653 433.147L248.986 437.575C248.356 441.768 244.445 444.656 240.252 444.025V444.025C236.059 443.394 233.172 439.484 233.802 435.291L234.469 430.862Z" fill="#F5CF80"/>
		<path d="M249.652 433.146L264.204 435.336L263.49 440.081C262.885 444.099 259.138 446.866 255.119 446.262V446.262C251.101 445.657 248.334 441.91 248.938 437.891L249.652 433.146Z" fill="#58B1F9"/>
		<path d="M264.203 435.336L279.387 437.621L278.721 442.049C278.09 446.242 274.179 449.13 269.987 448.499V448.499C265.794 447.868 262.906 443.958 263.537 439.765L264.203 435.336Z" fill="#F5D07E"/>
		<path d="M279.387 437.621L294.571 439.906L293.904 444.334C293.274 448.527 289.363 451.415 285.17 450.784V450.784C280.977 450.153 278.09 446.243 278.72 442.05L279.387 437.621Z" fill="#58B1F9"/>
		<path fill-rule="evenodd" clip-rule="evenodd" d="M200.073 450.941C198.727 450.739 197.473 451.665 197.27 453.011C197.068 454.356 197.994 455.611 199.34 455.814L204.815 456.637L209.545 488.261L209.812 490.044L211.592 490.33L244.442 495.596C245.786 495.811 247.05 494.896 247.265 493.553C247.48 492.209 246.566 490.946 245.222 490.73L214.151 485.75L213.144 479.013L243.849 483.633C246.004 483.957 248.115 482.828 249.042 480.856L254.088 470.122C255.518 467.079 253.547 463.528 250.208 463.133L210.057 458.377L209.419 454.108L209.149 452.307L207.349 452.036L200.073 450.941ZM215.462 497.024C215.566 497.039 215.663 496.968 215.679 496.863C215.694 496.759 215.623 496.662 215.518 496.646C215.414 496.631 215.317 496.702 215.301 496.807C215.286 496.911 215.357 497.008 215.462 497.024ZM214.729 501.896C217.524 502.317 220.131 500.392 220.551 497.596C220.972 494.801 219.047 492.194 216.252 491.774C213.456 491.353 210.849 493.278 210.429 496.073C210.008 498.869 211.933 501.476 214.729 501.896ZM237.189 500.099C237.173 500.203 237.076 500.275 236.972 500.259C236.867 500.244 236.796 500.146 236.811 500.042C236.827 499.938 236.924 499.866 237.028 499.882C237.133 499.897 237.204 499.995 237.189 500.099ZM242.061 500.832C241.641 503.627 239.034 505.552 236.238 505.132C233.443 504.711 231.518 502.104 231.939 499.309C232.359 496.514 234.966 494.589 237.761 495.009C240.557 495.43 242.482 498.037 242.061 500.832Z" fill="white" fill-opacity="0.66"/>
		<path opacity="0.9" d="M195.55 517.526C195.882 516.083 196.048 515.361 196.297 514.77C197.415 512.12 199.969 510.36 202.843 510.257C203.484 510.234 204.217 510.335 205.684 510.538L240.908 515.404C245.777 516.077 248.985 520.826 247.792 525.594V525.594C246.759 529.723 242.757 532.392 238.548 531.758L202.659 526.359C201.823 526.233 201.404 526.17 201.05 526.08C197.858 525.272 195.586 522.448 195.478 519.156C195.466 518.791 195.494 518.369 195.55 517.526V517.526V517.526Z" fill="#4CB7D6"/>
		<path d="M193.309 399.114L204.697 400.827L188.916 424.009L173.732 421.725L193.309 399.114Z" fill="#F7D669"/>
		<path d="M204.382 400.78L215.77 402.493L204.102 426.293L188.918 424.009L204.382 400.78Z" fill="#53A9CC"/>
		<path d="M215.77 402.493L227.158 404.206L219.285 428.577L204.101 426.293L215.77 402.493Z" fill="#F7D669"/>
		<path d="M227.157 404.206L238.545 405.919L234.469 430.862L219.285 428.577L227.157 404.206Z" fill="#53A9CC"/>
		<path d="M238.545 405.92L249.3 407.538L249.653 433.147L234.469 430.863L238.545 405.92Z" fill="#F7D669"/>
		<path d="M249.301 407.539L260.056 409.157L264.205 435.337L249.653 433.148L249.301 407.539Z" fill="#53A9CC"/>
		<path d="M259.74 409.108L271.445 410.869L279.389 437.62L264.205 435.336L259.74 409.108Z" fill="#F7D669"/>
		<path d="M271.443 410.87L283.148 412.631L294.572 439.906L279.388 437.621L271.443 410.87Z" fill="#53A9CC"/>
		<path d="M276.457 529.991L252.051 563.197L251.43 573.779L260.682 576.789L289.188 533.524C289.188 533.524 295.146 535.715 295.848 532.262C297.507 524.101 300.994 507.092 301.666 504.346C302.338 501.6 299.626 502.853 298.186 503.823C291.566 509.836 277.434 522.633 273.865 525.719C270.295 528.805 270.942 529.377 271.712 529.277L276.457 529.991Z" fill="#FCCC84"/>
		<path d="M244.344 571.419L235.627 539.052L244.092 532.238C248.31 545.058 256.843 569.612 257.551 571.788C258.215 573.829 258.912 576.521 261.092 576.203C261.092 576.203 259.673 578.506 258.133 578.669C256.558 578.953 254.453 578.413 250.657 577.842C246.852 577.27 244.812 573.322 244.344 571.419Z" fill="#F5D276"/>
		<path d="M230.221 529.823C229.238 530.642 210.298 550.44 201.04 560.369L204.475 566.621L211.745 568.773C220.702 558.691 239.009 538.068 240.579 536.234C242.149 534.399 244.607 535.978 245.688 536.68C244.473 532.955 243.163 528.672 239.501 527.279C237.243 526.42 234.131 526.564 230.221 529.823Z" fill="#FCCC84"/>
		<path d="M190.059 534.462C186.845 533.461 180.799 536.519 178.178 538.174C182.321 540.739 190.067 551.608 192.027 555.784C193.594 559.126 198.454 567.664 200.251 569.272C202.049 570.879 209.182 572.722 211.783 568.719C211.783 568.719 206.147 567.29 202.007 558.256C197.866 549.223 193.273 535.463 190.059 534.462Z" fill="#F5D07D"/>
		<path opacity="0.5" d="M258.26 559.095L274.231 537.431" stroke="white" stroke-width="1.23186" stroke-linecap="round"/>
		<path opacity="0.5" d="M274.897 536.589L277.355 533.137" stroke="white" stroke-width="1.23186" stroke-linecap="round"/>
		<path opacity="0.4" d="M277.621 528.739C277.961 528.728 278.228 528.443 278.217 528.103C278.206 527.763 277.922 527.497 277.582 527.507L277.621 528.739ZM291.35 513.162C291.599 512.93 291.613 512.54 291.382 512.291C291.15 512.042 290.76 512.028 290.511 512.26L291.35 513.162ZM277.582 527.507C277.273 527.517 276.946 527.494 276.678 527.428C276.387 527.357 276.28 527.265 276.257 527.232C276.254 527.229 276.251 527.226 276.251 527.204C276.252 527.173 276.263 527.093 276.336 526.952C276.489 526.66 276.848 526.223 277.572 525.62L276.783 524.673C276.015 525.314 275.508 525.876 275.244 526.382C274.969 526.91 274.92 527.468 275.246 527.936C275.529 528.342 276.001 528.531 276.385 528.625C276.792 528.724 277.237 528.751 277.621 528.739L277.582 527.507ZM277.572 525.62C280.571 523.119 288.013 516.267 291.35 513.162L290.511 512.26C287.165 515.373 279.75 522.199 276.783 524.673L277.572 525.62Z" fill="white"/>
		<path opacity="0.4" d="M215.651 561.85C215.743 561.594 225.956 550.199 231.051 544.534" stroke="white" stroke-width="1.23186" stroke-linecap="round"/>
		<path opacity="0.4" d="M232.161 543.008L239.364 534.748C240.133 533.984 241.931 532.711 242.969 533.734" stroke="white" stroke-width="1.23186" stroke-linecap="round"/>
		<path fill-rule="evenodd" clip-rule="evenodd" d="M262.353 547.174C259.842 547.874 258.374 550.478 259.074 552.99L261.612 562.084L255.244 563.86C252.733 564.561 251.265 567.165 251.965 569.677C252.666 572.188 255.27 573.656 257.782 572.955L264.149 571.179L266.687 580.275C267.388 582.786 269.992 584.254 272.503 583.554C275.015 582.853 276.483 580.249 275.782 577.737L273.244 568.641L280.519 566.612C283.031 565.911 284.499 563.307 283.798 560.795C283.097 558.284 280.493 556.816 277.982 557.517L270.707 559.546L268.169 550.452C267.469 547.941 264.865 546.473 262.353 547.174Z" fill="white"/>
	</g>
	<defs>
		<filter id="filter0_f_121_103486" x="-185.072" y="270.638" width="497.951" height="537.506" filterUnits="userSpaceOnUse" color-interpolation-filters="sRGB">
			<feFlood flood-opacity="0" result="BackgroundImageFix"/>
			<feBlend mode="normal" in="SourceGraphic" in2="BackgroundImageFix" result="shape"/>
			<feGaussianBlur stdDeviation="71" result="effect1_foregroundBlur_121_103486"/>
		</filter>
		<filter id="filter1_f_121_103486" x="24.4043" y="197.638" width="497.951" height="537.506" filterUnits="userSpaceOnUse" color-interpolation-filters="sRGB">
			<feFlood flood-opacity="0" result="BackgroundImageFix"/>
			<feBlend mode="normal" in="SourceGraphic" in2="BackgroundImageFix" result="shape"/>
			<feGaussianBlur stdDeviation="71" result="effect1_foregroundBlur_121_103486"/>
		</filter>
		<clipPath id="clip0_121_103486">
			<rect width="312" height="567" fill="white"/>
		</clipPath>
	</defs>
</svg>
