<svg width="312" height="567" viewBox="0 0 312 567" fill="none" xmlns="http://www.w3.org/2000/svg">
	<g clip-path="url(#clip0_121_103547)">
		<rect width="312" height="567" fill="#F5F7F8"/>
		<g opacity="0.5" filter="url(#filter0_f_121_103547)">
			<path d="M139.759 481.917C133.178 455.138 129.888 441.749 136.116 431.324C142.345 420.898 155.694 417.45 182.393 410.555L319.425 375.162C346.791 368.094 360.474 364.56 371.089 370.927C381.704 377.293 385.03 391.029 391.68 418.499L440.544 620.33C446.81 646.212 449.944 659.153 444.042 669.391C438.14 679.628 425.371 683.402 399.833 690.949L264.658 730.895C236.772 739.136 222.829 743.257 211.86 736.958C200.89 730.659 197.42 716.54 190.48 688.302L139.759 481.917Z" fill="#E77F1F" fill-opacity="0.39"/>
		</g>
		<g filter="url(#filter1_f_121_103547)">
			<path d="M-9.63313 567.041C-16.2141 540.263 -19.5046 526.874 -13.2762 516.448C-7.04773 506.023 6.30179 502.575 33.0008 495.679L92.9419 480.198C120.308 473.13 133.991 469.595 144.606 475.962C155.221 482.329 158.547 496.064 165.197 523.535L190.718 628.947C196.984 654.829 200.117 667.77 194.215 678.008C188.314 688.245 175.545 692.019 150.007 699.566L90.9363 717.022C63.0502 725.263 49.1072 729.384 38.1375 723.085C27.1679 716.786 23.698 702.667 16.7583 674.429L-9.63313 567.041Z" fill="#F7BB62" fill-opacity="0.32"/>
		</g>
		<path d="M307.24 494.048L215.06 566.986L162.537 461.828L211.41 425.978L278.195 440.85L307.24 494.048Z" fill="#FFB547"/>
		<path d="M278.195 440.85L307.24 494.048L162.537 461.828L211.41 425.978L278.195 440.85Z" fill="#FFC368"/>
		<path d="M307.24 494.048L215.061 566.986L244.803 433.414L278.196 440.85L307.24 494.048Z" fill="#E39130"/>
		<path d="M307.24 494.048L234.889 477.938L244.803 433.414L278.196 440.85L307.24 494.048Z" fill="#FAA847"/>
		<path d="M162.537 461.828L215.061 566.986L197.785 469.676L244.803 433.414L211.41 425.979L162.537 461.828Z" fill="#FFCB7C"/>
		<path d="M213.265 426.392L162.537 461.828L197.785 469.676L244.803 433.414L213.265 426.392Z" fill="#FFDBA5"/>
		<path d="M162.537 461.828L215.061 566.986L175.524 464.719L224.396 428.87L211.41 425.979L162.537 461.828Z" fill="#FFEEC1"/>
		<path d="M211.41 425.979L162.538 461.828L175.524 464.719L224.396 428.87L211.41 425.979Z" fill="#FFF1CB"/>
		<path d="M307.24 494.048L215.061 566.986L271.992 486.2L244.803 433.414L278.196 440.85L307.24 494.048Z" fill="#CA693F"/>
		<path d="M278.196 440.85L307.24 494.048L271.992 486.2L244.803 433.414L278.196 440.85Z" fill="#DC794F"/>
		<path d="M307.24 494.048L215.061 566.986L294.254 491.157L265.21 437.958L278.196 440.85L307.24 494.048Z" fill="#E39130"/>
		<path d="M278.195 440.85L307.24 494.048L294.253 491.157L265.209 437.958L278.195 440.85Z" fill="#F0A347"/>
		<path fill-rule="evenodd" clip-rule="evenodd" d="M202.625 436.181C203.25 437.024 203.073 438.215 202.23 438.839L171.916 461.297C171.073 461.922 169.883 461.744 169.258 460.901C168.633 460.057 168.81 458.867 169.654 458.242L199.967 435.785C200.81 435.16 202.001 435.337 202.625 436.181Z" fill="white"/>
		<path fill-rule="evenodd" clip-rule="evenodd" d="M237.873 444.029C238.498 444.873 238.321 446.063 237.478 446.688L207.164 469.145C206.321 469.77 205.131 469.593 204.506 468.75C203.881 467.906 204.058 466.716 204.902 466.091L235.215 443.634C236.058 443.009 237.249 443.186 237.873 444.029Z" fill="#FFD596"/>
		<path d="M246.213 505.773C245.985 506.797 244.97 507.443 243.945 507.215C242.92 506.987 242.275 505.971 242.503 504.946C242.731 503.922 243.747 503.276 244.771 503.504C245.796 503.733 246.441 504.748 246.213 505.773Z" fill="#CA8028"/>
		<path d="M250.127 514.433C249.899 515.457 248.884 516.103 247.859 515.875C246.834 515.646 246.189 514.631 246.417 513.606C246.645 512.582 247.661 511.936 248.685 512.164C249.71 512.392 250.355 513.408 250.127 514.433Z" fill="#CA8028"/>
		<path d="M240.641 522.056C240.413 523.081 239.397 523.726 238.373 523.498C237.348 523.27 236.703 522.254 236.931 521.23C237.159 520.205 238.174 519.56 239.199 519.788C240.223 520.016 240.869 521.032 240.641 522.056Z" fill="#CA8028"/>
		<path d="M234.25 524.527C234.022 525.552 233.007 526.197 231.982 525.969C230.958 525.741 230.312 524.726 230.54 523.701C230.768 522.677 231.784 522.031 232.808 522.259C233.833 522.487 234.479 523.503 234.25 524.527Z" fill="#CA8028"/>
		<path d="M231.772 535.658C231.544 536.683 230.528 537.328 229.504 537.1C228.479 536.872 227.833 535.857 228.062 534.832C228.29 533.807 229.305 533.162 230.33 533.39C231.354 533.618 232 534.634 231.772 535.658Z" fill="#CA8028"/>
		<path d="M241.887 498.968C241.659 499.993 240.643 500.638 239.619 500.41C238.594 500.182 237.949 499.166 238.177 498.142C238.405 497.117 239.42 496.472 240.445 496.7C241.47 496.928 242.115 497.943 241.887 498.968Z" fill="#CA8028"/>
		<path d="M257.555 498.562C257.327 499.587 256.311 500.233 255.287 500.005C254.262 499.776 253.617 498.761 253.845 497.736C254.073 496.712 255.088 496.066 256.113 496.294C257.138 496.522 257.783 497.538 257.555 498.562Z" fill="#CA8028"/>
		<path d="M250.34 495.982C249.998 497.519 248.475 498.488 246.938 498.146C245.401 497.803 244.433 496.28 244.775 494.743C245.117 493.206 246.64 492.238 248.177 492.58C249.714 492.922 250.683 494.446 250.34 495.982Z" fill="#CA8028"/>
		<path d="M242.501 513.708C242.158 515.245 240.635 516.213 239.098 515.871C237.561 515.529 236.593 514.005 236.935 512.469C237.277 510.932 238.801 509.963 240.337 510.305C241.874 510.648 242.843 512.171 242.501 513.708Z" fill="#CA8028"/>
		<g clip-path="url(#clip1_121_103547)">
			<path d="M132.179 536.719L149.145 559.034L165.214 561.222L173.328 555.053L175.516 538.983L158.551 516.669L142.481 514.481L134.367 520.65L132.179 536.719Z" fill="#E9B465"/>
			<path d="M149.145 559.034L132.18 536.719L141.715 533.471L154.825 550.714L149.145 559.034Z" fill="#EEC18B"/>
			<path d="M134.367 520.65L132.179 536.719L141.714 533.471L142.28 522.637L142.481 514.481L134.367 520.65Z" fill="#FFEEC1"/>
			<path d="M165.981 542.231L165.415 553.066L165.214 561.222L173.328 555.052L175.517 538.983L158.551 516.669L142.482 514.481L142.28 522.637L152.871 524.988L165.981 542.231Z" fill="#E39130"/>
			<path d="M158.551 516.669L175.516 538.983L165.981 542.231L152.871 524.988L158.551 516.669Z" fill="#CA693F"/>
			<path d="M161.394 522.511C161.819 523.071 161.711 523.871 161.15 524.297C160.59 524.723 159.791 524.614 159.365 524.054C158.939 523.493 159.048 522.694 159.608 522.268C160.168 521.842 160.968 521.951 161.394 522.511Z" fill="#DE7A50"/>
			<path d="M163.151 527.979C163.47 528.399 163.388 528.998 162.968 529.318C162.548 529.637 161.949 529.556 161.629 529.135C161.31 528.715 161.391 528.116 161.812 527.796C162.232 527.477 162.831 527.559 163.151 527.979Z" fill="#DE7A50"/>
			<path d="M163.707 525.554C163.919 525.834 163.865 526.234 163.585 526.447C163.305 526.66 162.905 526.605 162.692 526.325C162.479 526.045 162.534 525.645 162.814 525.433C163.094 525.22 163.494 525.274 163.707 525.554Z" fill="#DE7A50"/>
			<path d="M160.015 525.961C160.228 526.241 160.174 526.64 159.894 526.853C159.613 527.066 159.214 527.012 159.001 526.732C158.788 526.452 158.842 526.052 159.122 525.839C159.402 525.626 159.802 525.68 160.015 525.961Z" fill="#DE7A50"/>
			<path d="M159.08 519.468C159.293 519.748 159.238 520.148 158.958 520.361C158.678 520.574 158.278 520.52 158.065 520.24C157.852 519.959 157.907 519.56 158.187 519.347C158.467 519.134 158.867 519.188 159.08 519.468Z" fill="#DE7A50"/>
			<path d="M168.333 531.64C168.546 531.92 168.492 532.32 168.212 532.533C167.932 532.746 167.532 532.691 167.319 532.411C167.106 532.131 167.161 531.731 167.441 531.518C167.721 531.306 168.121 531.36 168.333 531.64Z" fill="#DE7A50"/>
			<path d="M166.406 529.104C166.619 529.384 166.564 529.784 166.284 529.997C166.004 530.21 165.604 530.155 165.391 529.875C165.178 529.595 165.233 529.196 165.513 528.983C165.793 528.77 166.193 528.824 166.406 529.104Z" fill="#DE7A50"/>
			<path d="M141.716 533.471L154.826 550.714L165.417 553.066L166.001 542.255L152.873 524.988L142.282 522.637L141.716 533.471Z" fill="#FFB547"/>
			<path d="M154.826 550.714L141.716 533.471L142.282 522.637L152.873 524.988L154.826 550.714Z" fill="#FFCB7C"/>
			<path fill-rule="evenodd" clip-rule="evenodd" d="M143.46 523.521C143.812 523.534 144.087 523.829 144.074 524.181L143.759 533.002L151.719 543.472C151.932 543.752 151.878 544.151 151.598 544.364C151.317 544.577 150.918 544.523 150.705 544.243L142.608 533.593C142.518 533.476 142.473 533.331 142.478 533.184L142.801 524.135C142.813 523.784 143.109 523.509 143.46 523.521Z" fill="#FFEAC2"/>
			<path fill-rule="evenodd" clip-rule="evenodd" d="M133.964 536.962C134.244 536.749 134.644 536.804 134.857 537.084L149.509 556.356C149.722 556.636 149.668 557.035 149.388 557.248C149.108 557.461 148.708 557.407 148.495 557.127L133.843 537.855C133.63 537.575 133.684 537.175 133.964 536.962Z" fill="#FFD5A3"/>
			<path fill-rule="evenodd" clip-rule="evenodd" d="M135.732 520.647C136.081 520.695 136.325 521.016 136.278 521.365L134.454 534.756C134.407 535.104 134.086 535.348 133.737 535.301C133.388 535.253 133.144 534.932 133.192 534.584L135.015 521.193C135.063 520.844 135.384 520.6 135.732 520.647Z" fill="#FFFEFD"/>
			<path d="M173.438 542.565C173.757 542.985 173.676 543.584 173.255 543.904C172.835 544.223 172.236 544.142 171.916 543.721C171.597 543.301 171.678 542.702 172.099 542.382C172.519 542.063 173.118 542.145 173.438 542.565Z" fill="#CA8028"/>
			<path d="M172.223 551.492C172.542 551.912 172.461 552.512 172.041 552.831C171.62 553.15 171.021 553.069 170.701 552.649C170.382 552.229 170.464 551.629 170.884 551.31C171.304 550.99 171.903 551.072 172.223 551.492Z" fill="#CA8028"/>
			<path d="M172.709 547.921C173.029 548.341 172.947 548.941 172.527 549.26C172.107 549.58 171.507 549.498 171.188 549.078C170.868 548.658 170.95 548.058 171.37 547.739C171.79 547.419 172.39 547.501 172.709 547.921Z" fill="#CA8028"/>
			<path d="M169.208 548.581C169.421 548.861 169.367 549.261 169.087 549.474C168.807 549.687 168.407 549.632 168.194 549.352C167.981 549.072 168.036 548.672 168.316 548.459C168.596 548.246 168.996 548.301 169.208 548.581Z" fill="#CA8028"/>
			<path d="M172.759 545.882C172.972 546.162 172.918 546.562 172.638 546.775C172.358 546.988 171.958 546.933 171.745 546.653C171.532 546.373 171.586 545.973 171.867 545.76C172.147 545.547 172.546 545.602 172.759 545.882Z" fill="#CA8028"/>
			<path d="M170.202 544.625C170.628 545.185 170.519 545.984 169.959 546.41C169.399 546.836 168.599 546.727 168.174 546.167C167.748 545.607 167.856 544.807 168.417 544.381C168.977 543.956 169.776 544.064 170.202 544.625Z" fill="#CA8028"/>
		</g>
	</g>
	<defs>
		<filter id="filter0_f_121_103547" x="-9.20312" y="225.603" width="598.385" height="656.415" filterUnits="userSpaceOnUse" color-interpolation-filters="sRGB">
			<feFlood flood-opacity="0" result="BackgroundImageFix"/>
			<feBlend mode="normal" in="SourceGraphic" in2="BackgroundImageFix" result="shape"/>
			<feGaussianBlur stdDeviation="71" result="effect1_foregroundBlur_121_103547"/>
		</filter>
		<filter id="filter1_f_121_103547" x="-158.596" y="330.638" width="497.951" height="537.506" filterUnits="userSpaceOnUse" color-interpolation-filters="sRGB">
			<feFlood flood-opacity="0" result="BackgroundImageFix"/>
			<feBlend mode="normal" in="SourceGraphic" in2="BackgroundImageFix" result="shape"/>
			<feGaussianBlur stdDeviation="71" result="effect1_foregroundBlur_121_103547"/>
		</filter>
		<clipPath id="clip0_121_103547">
			<rect width="312" height="567" fill="white"/>
		</clipPath>
		<clipPath id="clip1_121_103547">
			<rect width="61.16" height="61.16" fill="white" transform="translate(110.998 532.016) rotate(-37.2458)"/>
		</clipPath>
	</defs>
</svg>
