<svg width="221" height="152" viewBox="0 0 221 152" fill="none" xmlns="http://www.w3.org/2000/svg">
	<path d="M1.5 0.999991C1.49999 0.723848 1.27613 0.499995 0.999991 0.5C0.723848 0.500005 0.499995 0.723867 0.5 1.00001L1.5 0.999991ZM220.354 148.354C220.549 148.158 220.549 147.842 220.354 147.646L217.172 144.464C216.976 144.269 216.66 144.269 216.464 144.464C216.269 144.66 216.269 144.976 216.464 145.172L219.293 148L216.464 150.828C216.269 151.024 216.269 151.34 216.464 151.536C216.66 151.731 216.976 151.731 217.172 151.536L220.354 148.354ZM0.5 1.00001C0.500566 31.5497 7.16787 68.4611 38.0091 97.7239C68.8416 126.979 123.742 148.5 220 148.5V147.5C123.866 147.5 69.2665 126.003 38.6974 96.9985C8.137 68.0021 1.50056 31.4135 1.5 0.999991L0.5 1.00001Z" fill="#2FC6F6"/>
</svg>