<svg width="25" height="25" viewBox="0 0 25 25" fill="none" xmlns="http://www.w3.org/2000/svg">
	<path fill-rule="evenodd" clip-rule="evenodd" d="M12.1043 3.51789C10.7347 3.58265 9.24809 4.01356 8.03298 4.698C6.7163 5.43965 5.57009 6.55151 4.77917 7.85426C4.09926 8.97418 3.68801 10.2003 3.53559 11.5618C3.49256 11.9461 3.48734 12.9465 3.52654 13.2901C3.66532 14.5062 3.93395 15.41 4.47166 16.4698C4.73983 16.9984 4.94574 17.3217 5.40167 17.9297C5.7409 18.3822 5.86709 18.5333 6.08913 18.7531C7.2761 19.928 8.74881 20.7778 10.3536 21.2137C10.8037 21.336 11.0301 21.3819 11.4426 21.4345C12.7369 21.5995 14.1599 21.4502 15.4261 21.0165C16.8421 20.5316 18.1243 19.6941 19.1193 18.6042C19.2537 18.457 19.3922 18.2938 19.4271 18.2417C19.4619 18.1897 19.561 18.0576 19.6473 17.9484C19.8201 17.7298 20.1611 17.2235 20.303 16.975C20.8849 15.9563 21.2718 14.8043 21.418 13.6557C21.5273 12.7961 21.5273 12.1551 21.418 11.2956C21.227 9.7944 20.6135 8.2959 19.6946 7.08569C19.1934 6.42557 18.5332 5.77126 17.8708 5.27807C16.4468 4.21793 14.6984 3.60128 12.8766 3.51672C12.6499 3.50619 12.4555 3.49876 12.4444 3.50017C12.4334 3.5016 12.2804 3.50957 12.1043 3.51789ZM11.8893 6.08411L11.8841 7.32069L10.7685 7.32582C10.1549 7.32866 9.65291 7.32493 9.65291 7.31756C9.65291 7.28464 9.93335 6.77982 10.0903 6.53011C10.504 5.87217 10.9532 5.35747 11.4395 4.98443L11.6179 4.84752H11.7562H11.8944L11.8893 6.08411ZM13.5888 4.97037C13.7954 5.1327 14.2221 5.548 14.4105 5.7703C14.6816 6.09005 14.8884 6.38304 15.1195 6.77441C15.2451 6.98716 15.3961 7.27965 15.3961 7.31033C15.3961 7.32391 15.0286 7.33063 14.2855 7.33063H13.1748V6.08908V4.84752H13.3036C13.4312 4.84752 13.4338 4.84864 13.5888 4.97037ZM9.03301 5.7706C8.78465 6.13806 8.5 6.67858 8.29252 7.17667L8.22839 7.33063H7.49987C7.09917 7.33063 6.77133 7.32298 6.77133 7.31364C6.77133 7.28575 7.26612 6.8167 7.48248 6.63947C7.79399 6.38429 8.16509 6.12324 8.49826 5.92493C8.80965 5.73957 9.13048 5.56359 9.15808 5.56299C9.16658 5.56282 9.11029 5.65622 9.03301 5.7706ZM16.1066 5.70328C16.8329 6.09611 17.3996 6.50822 17.9725 7.06029C18.1073 7.19022 18.2176 7.30419 18.2176 7.31356C18.2176 7.32296 17.8887 7.33063 17.4866 7.33063C16.8085 7.33063 16.7546 7.3281 16.7429 7.29586C16.5877 6.8703 16.2188 6.16037 15.9326 5.73647C15.8681 5.64089 15.8223 5.56266 15.8309 5.56266C15.8396 5.56266 15.9636 5.62593 16.1066 5.70328ZM18.9066 8.56048C19.1286 8.5744 19.1699 8.58229 19.1975 8.61608C19.263 8.69639 19.5209 9.19764 19.6479 9.49164C19.996 10.2972 20.2065 11.1577 20.2697 12.0336L20.283 12.2174H19.0033H17.7237L17.7104 11.8225C17.6787 10.8813 17.5478 9.96423 17.3036 8.97381C17.253 8.7686 17.2177 8.59473 17.2251 8.58742C17.2625 8.55025 18.4422 8.53136 18.9066 8.56048ZM7.7792 8.84532C7.74232 8.97917 7.66716 9.30767 7.61219 9.57535C7.45312 10.3496 7.38841 10.8637 7.34772 11.6761L7.32359 12.1578H6.04521H4.76681L4.77995 12.0038C4.88009 10.83 5.19512 9.78435 5.74648 8.79566L5.85448 8.60198H6.85035H7.84624L7.7792 8.84532ZM11.8941 10.4097V12.2174H10.2232H8.55231L8.55251 12.0436C8.55329 11.3533 8.69538 10.3207 8.91541 9.4065C9.01058 9.01101 9.10711 8.64949 9.12624 8.61687C9.13106 8.60867 9.75579 8.60198 10.5146 8.60198H11.8941V10.4097ZM16.0124 8.86519C16.2999 9.7793 16.4553 10.7391 16.49 11.8151L16.503 12.2174H14.8389H13.1748V10.4097V8.60198H14.5522H15.9297L16.0124 8.86519ZM20.1387 13.4843C20.1387 13.5146 20.1161 13.6688 20.0885 13.8269C19.8835 15.0007 19.4277 16.0496 18.7632 16.8766L18.6282 17.0445H17.7925C17.333 17.0445 16.9569 17.0414 16.9569 17.0377C16.9569 17.034 16.9754 16.9781 16.998 16.9136C17.2635 16.1544 17.5043 15.1867 17.6154 14.4323C17.6542 14.1694 17.7173 13.5765 17.7173 13.4756V13.4291H18.928H20.1387V13.4843ZM16.1909 13.4663C16.3143 13.4743 16.4204 13.4858 16.4265 13.4919C16.4519 13.5171 16.3422 14.3386 16.2347 14.9277C16.113 15.5946 15.8633 16.4837 15.6579 16.9813L15.603 17.1141L14.3889 17.1192L13.1748 17.1243V15.3069V13.4895L13.2199 13.4792C13.2989 13.4612 13.5579 13.457 14.7757 13.4544C15.4306 13.4529 16.0674 13.4583 16.1909 13.4663ZM7.2972 13.8612C7.35539 14.4919 7.45728 15.0795 7.62354 15.7431C7.71793 16.1198 7.90473 16.7495 7.98469 16.9604C8.01073 17.029 8.03202 17.0939 8.03202 17.1046C8.03202 17.1169 7.72941 17.124 7.20296 17.124H6.37391L6.23505 16.9402C5.68439 16.2116 5.31102 15.4557 5.05074 14.5426C4.99137 14.3343 4.88727 13.8475 4.86148 13.6576C4.85405 13.6029 4.84339 13.5426 4.83778 13.5235C4.82812 13.4907 4.895 13.4887 6.04519 13.4887H7.26282L7.2972 13.8612ZM11.8141 15.3065V17.1243L10.6011 17.1192L9.38801 17.1141L9.33075 16.9551C8.98276 15.989 8.66407 14.6017 8.56301 13.6129L8.55033 13.4887H10.1822H11.8141V15.3065ZM8.72446 18.5294C8.78734 18.6469 8.91389 18.8699 9.00572 19.025C9.09753 19.1802 9.17265 19.3126 9.17265 19.3194C9.17265 19.3373 9.10725 19.315 8.88249 19.2203C8.63999 19.1183 8.33269 18.9395 8.1083 18.7699C7.90379 18.6154 7.61179 18.3592 7.61179 18.3343C7.61179 18.3235 7.8182 18.3159 8.11098 18.3159H8.61016L8.72446 18.5294ZM11.8941 19.2495V20.1037H11.7567H11.6192L11.4015 19.9178C11.122 19.6791 10.8337 19.3809 10.5919 19.0804C10.3965 18.8377 10.1132 18.442 10.1132 18.412C10.1132 18.4028 10.5139 18.3953 11.0037 18.3953H11.8941V19.2495ZM14.8758 18.4117C14.8758 18.4368 14.6886 18.701 14.5144 18.9218C14.2941 19.2009 13.9641 19.5516 13.6416 19.8494L13.3662 20.1037H13.2305H13.0948V19.2495V18.3953H13.9853C14.4751 18.3953 14.8758 18.4027 14.8758 18.4117ZM17.3564 18.4223C17.1753 18.5888 16.7983 18.8603 16.4991 19.0399C16.2931 19.1634 15.8367 19.3956 15.8242 19.3832C15.8199 19.3789 15.8965 19.2388 15.9945 19.0719C16.0924 18.9049 16.2162 18.6845 16.2696 18.5821L16.3666 18.3958L16.8762 18.3956C17.3061 18.3954 17.3812 18.3995 17.3564 18.4223Z" fill="white"/>
</svg>