<svg width="312" height="567" viewBox="0 0 312 567" fill="none" xmlns="http://www.w3.org/2000/svg">
	<g clip-path="url(#clip0_506_10988)">
		<rect width="312" height="567" fill="#F5F7F8"/>
		<path opacity="0.15" fill-rule="evenodd" clip-rule="evenodd" d="M34.204 26.1218C31.5241 25.6484 28.9679 27.4372 28.4945 30.117L22.7714 62.5174L-2.18109 58.1098C-4.86095 57.6364 -7.41715 59.4251 -7.89052 62.105L-10.563 77.2344C-11.0363 79.9143 -9.24762 82.4705 -6.56776 82.9439L18.3847 87.3514L12.6621 119.749C12.1887 122.429 13.9774 124.985 16.6573 125.458L31.7867 128.131C34.4666 128.604 37.0228 126.815 37.4961 124.135L43.2188 91.7381L70.6469 96.583C73.3268 97.0564 75.8829 95.2676 76.3563 92.5878L79.0288 77.4583C79.5021 74.7785 77.7134 72.2223 75.0336 71.7489L47.6054 66.904L53.3286 34.5037C53.802 31.8238 52.0133 29.2676 49.3334 28.7943L34.204 26.1218Z" fill="#A397FA"/>
		<path opacity="0.15" fill-rule="evenodd" clip-rule="evenodd" d="M238.365 26.5377C235.754 27.3045 234.259 30.0428 235.026 32.6539L240.111 49.9694L227.201 53.7604C224.59 54.5272 223.095 57.2655 223.862 59.8766L225.401 65.1176C226.167 67.7287 228.906 69.2238 231.517 68.457L244.426 64.666L249.512 81.9848C250.279 84.5959 253.017 86.091 255.628 85.3242L260.87 83.7852C263.481 83.0184 264.976 80.2801 264.209 77.669L259.123 60.3502L273.499 56.1284C276.111 55.3617 277.606 52.6234 276.839 50.0123L275.3 44.7712C274.533 42.1601 271.795 40.665 269.184 41.4318L254.807 45.6536L249.722 28.3381C248.956 25.727 246.217 24.2319 243.606 24.9986L238.365 26.5377Z" fill="#A397FA"/>
		<g opacity="0.5" filter="url(#filter0_f_506_10988)">
			<path d="M114.037 329.044C107.456 302.265 104.165 288.876 110.394 278.451C116.622 268.025 129.972 264.577 156.671 257.682L293.702 222.289C321.068 215.221 334.751 211.687 345.366 218.054C355.982 224.42 359.307 238.156 365.958 265.626L414.822 467.457C421.088 493.339 424.221 506.28 418.319 516.518C412.417 526.755 399.648 530.529 374.11 538.076L238.936 578.022C211.05 586.263 197.107 590.384 186.137 584.085C175.167 577.786 171.697 563.667 164.758 535.429L114.037 329.044Z" fill="#C96BD8" fill-opacity="0.25"/>
		</g>
		<g filter="url(#filter1_f_506_10988)">
			<path d="M-40.6331 519.276C-47.2141 492.497 -50.5046 479.108 -44.2762 468.683C-38.0477 458.257 -24.6982 454.809 2.00083 447.914L61.9419 432.432C89.308 425.364 102.991 421.83 113.606 428.197C124.221 434.563 127.547 448.299 134.197 475.769L159.718 581.182C165.984 607.064 169.117 620.005 163.215 630.242C157.314 640.48 144.545 644.253 119.007 651.8L59.9363 669.257C32.0502 677.497 18.1072 681.618 7.13752 675.319C-3.83213 669.02 -7.302 654.901 -14.2417 626.663L-40.6331 519.276Z" fill="#F7E862" fill-opacity="0.25"/>
		</g>
		<path d="M280.255 572.948C279.092 577.287 274.51 579.829 270.021 578.627L203.64 560.84L211.543 531.346C212.816 532.656 214.446 534.057 214.446 534.057L214.449 534.046C215.761 535.424 217.471 536.476 219.463 537.01C225.074 538.514 230.801 535.336 232.255 529.912C233.708 524.488 230.337 518.872 224.726 517.368C222.734 516.834 220.727 516.891 218.902 517.428L218.903 517.425C218.903 517.425 216.791 517.819 215.034 518.315L222.938 488.819L253.453 496.996C252.914 495.282 252.473 493.225 252.473 493.225C251.889 491.443 251.797 489.493 252.313 487.568C253.766 482.144 259.493 478.966 265.105 480.469C270.716 481.973 274.087 487.589 272.633 493.013C272.117 494.938 271.073 496.586 269.676 497.837C269.676 497.837 268.261 499.395 266.934 500.608L297.447 508.784L280.255 572.948Z" fill="#FFE9BE"/>
		<path d="M139.065 543.537C133.579 542.067 130.288 536.558 131.715 531.234L148.429 468.854L178.943 477.031C177.615 478.245 176.199 479.804 176.199 479.804L176.211 479.807C174.814 481.058 173.759 482.7 173.243 484.626C171.79 490.05 175.161 495.666 180.772 497.169C186.383 498.673 192.111 495.495 193.564 490.071C194.08 488.145 193.988 486.195 193.403 484.414L193.406 484.415C193.406 484.415 192.964 482.357 192.424 480.643L222.939 488.819L215.035 518.315C216.792 517.821 218.903 517.428 218.903 517.428C220.728 516.89 222.735 516.834 224.727 517.368C230.339 518.871 233.709 524.487 232.256 529.911C230.803 535.335 225.076 538.513 219.464 537.01C217.472 536.476 215.757 535.434 214.445 534.056C214.445 534.056 212.816 532.655 211.544 531.346L203.641 560.84L139.065 543.537Z" fill="#8A7BFA"/>
		<path d="M195.159 544.672C195.398 543.833 196.294 543.351 197.159 543.597C198.024 543.843 198.532 544.722 198.293 545.562C198.053 546.402 197.158 546.883 196.292 546.638C195.427 546.392 194.92 545.512 195.159 544.672Z" fill="#6859D6"/>
		<path d="M192.19 537.256C192.429 536.416 193.325 535.935 194.19 536.18C195.056 536.426 195.563 537.306 195.324 538.146C195.085 538.985 194.189 539.467 193.324 539.221C192.458 538.975 191.951 538.095 192.19 537.256Z" fill="#6859D6"/>
		<path d="M200.624 531.434C200.863 530.594 201.758 530.112 202.624 530.358C203.489 530.604 203.997 531.484 203.757 532.323C203.518 533.163 202.623 533.645 201.757 533.399C200.892 533.153 200.384 532.273 200.624 531.434Z" fill="#6859D6"/>
		<path d="M206.19 529.728C206.429 528.888 207.325 528.407 208.19 528.653C209.056 528.898 209.563 529.778 209.324 530.618C209.085 531.457 208.189 531.939 207.324 531.693C206.458 531.448 205.951 530.568 206.19 529.728Z" fill="#6859D6"/>
		<path d="M198.561 550.568C198.8 549.728 199.696 549.247 200.561 549.492C201.427 549.738 201.934 550.618 201.695 551.458C201.456 552.297 200.56 552.779 199.695 552.533C198.829 552.287 198.322 551.407 198.561 550.568Z" fill="#6859D6"/>
		<path d="M185.159 550.049C185.398 549.21 186.294 548.728 187.159 548.974C188.024 549.22 188.532 550.099 188.293 550.939C188.053 551.779 187.158 552.26 186.292 552.015C185.427 551.769 184.92 550.889 185.159 550.049Z" fill="#6859D6"/>
		<path d="M191.207 552.589C191.566 551.33 192.909 550.607 194.207 550.976C195.505 551.345 196.267 552.665 195.908 553.924C195.549 555.184 194.206 555.906 192.907 555.537C191.609 555.169 190.848 553.849 191.207 552.589Z" fill="#6859D6"/>
		<path d="M198.676 538.275C199.035 537.016 200.378 536.294 201.676 536.662C202.974 537.031 203.735 538.351 203.376 539.61C203.018 540.87 201.674 541.592 200.376 541.223C199.078 540.855 198.317 539.535 198.676 538.275Z" fill="#6859D6"/>
		<path d="M165.141 406.475C166.568 401.151 172.172 398.026 177.659 399.496L242.234 416.799L234.331 446.293C233.058 444.983 231.428 443.581 231.428 443.581L231.425 443.592C230.113 442.215 228.403 441.162 226.411 440.629C220.8 439.125 215.073 442.303 213.619 447.727C212.166 453.151 215.537 458.767 221.148 460.271C223.14 460.804 225.147 460.748 226.972 460.211L226.971 460.214C226.971 460.214 229.083 459.819 230.84 459.324L222.936 488.819L192.421 480.643C192.962 482.358 193.404 484.415 193.404 484.415L193.401 484.414C193.985 486.195 194.077 488.145 193.561 490.071C192.108 495.495 186.381 498.673 180.77 497.169C175.158 495.666 171.787 490.05 173.241 484.626C173.757 482.7 174.811 481.058 176.208 479.807L176.197 479.804C176.197 479.804 177.613 478.245 178.94 477.031L148.427 468.855L165.141 406.475Z" fill="#F1E76D"/>
		<path d="M306.81 434.102C312.297 435.572 315.588 441.08 314.161 446.405L297.446 508.784L266.933 500.608C268.261 499.394 269.677 497.834 269.677 497.834L269.665 497.831C271.062 496.581 272.117 494.938 272.633 493.013C274.086 487.589 270.715 481.973 265.104 480.469C259.492 478.966 253.765 482.144 252.312 487.568C251.796 489.493 251.888 491.443 252.473 493.225L252.469 493.224C252.469 493.224 252.912 495.281 253.452 496.996L222.937 488.819L230.84 459.323C229.084 459.818 226.973 460.211 226.973 460.211C225.148 460.748 223.141 460.804 221.149 460.271C215.537 458.767 212.166 453.151 213.62 447.727C215.073 442.303 220.8 439.125 226.412 440.629C228.404 441.162 230.119 442.205 231.431 443.583C231.431 443.583 233.059 444.983 234.332 446.293L242.235 416.799L306.81 434.102Z" fill="#E6888C"/>
		<path d="M280.255 572.948C279.092 577.287 274.51 579.829 270.021 578.627L203.64 560.84L211.543 531.346C212.816 532.656 214.446 534.057 214.446 534.057L214.449 534.046C215.761 535.424 217.471 536.476 219.463 537.01C225.074 538.514 230.801 535.336 232.255 529.912C233.708 524.488 230.337 518.872 224.726 517.368C222.734 516.834 220.727 516.891 218.902 517.428L218.903 517.425C218.903 517.425 216.791 517.819 215.034 518.315L222.938 488.819L253.453 496.996C252.914 495.282 252.473 493.225 252.473 493.225C251.889 491.443 251.797 489.493 252.313 487.568C253.766 482.144 259.493 478.966 265.105 480.469C270.716 481.973 274.087 487.589 272.633 493.013C272.117 494.938 271.073 496.586 269.676 497.837C269.676 497.837 268.261 499.395 266.934 500.608L297.447 508.784L280.255 572.948Z" fill="#594DE0"/>
		<path fill-rule="evenodd" clip-rule="evenodd" d="M175.869 406.428C174.092 405.959 172.259 407.061 171.775 408.892L168.918 419.685C168.676 420.6 167.76 421.152 166.871 420.917C165.983 420.682 165.459 419.75 165.702 418.835L168.558 408.041C169.527 404.381 173.193 402.175 176.746 403.114L197.815 408.686C198.703 408.921 199.227 409.854 198.985 410.769C198.742 411.684 197.826 412.235 196.938 412L175.869 406.428Z" fill="white" fill-opacity="0.4"/>
		<path d="M256.294 488.641C256.955 486.488 259.104 484.352 261.586 483.745" stroke="white" stroke-opacity="0.2" stroke-width="2.77231" stroke-linecap="round"/>
		<path d="M221.475 443.695C220.92 444.011 220.373 444.298 219.867 444.675" stroke="white" stroke-opacity="0.2" stroke-width="2.77231" stroke-linecap="round"/>
		<g filter="url(#filter2_d_506_10988)">
			<circle cx="117.939" cy="489.007" r="44.357" transform="rotate(-15 117.939 489.007)" fill="white"/>
		</g>
		<path fill-rule="evenodd" clip-rule="evenodd" d="M112.909 467.531C112.901 467.214 113.16 466.956 113.477 466.964L120.891 467.15C121.187 467.158 121.425 467.396 121.432 467.692L122.419 510.423C122.427 510.74 122.168 510.998 121.851 510.99L114.437 510.804C114.141 510.797 113.903 510.558 113.896 510.263L112.909 467.531ZM103.342 511.781C103.448 511.889 103.61 511.921 103.75 511.861L110.553 508.953C110.792 508.851 110.854 508.541 110.673 508.355L97.2219 494.536C97.1322 494.444 97.0969 494.312 97.1284 494.188L101.868 475.495C101.932 475.243 101.723 475.006 101.465 475.037L94.1196 475.92C93.9688 475.939 93.8445 476.047 93.8061 476.194L88.5011 496.497C88.4681 496.623 88.5041 496.757 88.5958 496.85L103.342 511.781ZM140.897 501.907C141.048 501.889 141.172 501.781 141.211 501.634L146.516 481.331C146.549 481.204 146.513 481.07 146.421 480.977L131.675 466.047C131.569 465.939 131.407 465.907 131.267 465.967L124.464 468.875C124.225 468.977 124.163 469.286 124.344 469.472L137.795 483.291C137.885 483.383 137.92 483.515 137.888 483.64L133.149 502.333C133.085 502.584 133.294 502.822 133.552 502.791L140.897 501.907Z" fill="#545172"/>
	</g>
	<defs>
		<filter id="filter0_f_506_10988" x="-34.9258" y="72.7295" width="598.383" height="656.415" filterUnits="userSpaceOnUse" color-interpolation-filters="sRGB">
			<feFlood flood-opacity="0" result="BackgroundImageFix"/>
			<feBlend mode="normal" in="SourceGraphic" in2="BackgroundImageFix" result="shape"/>
			<feGaussianBlur stdDeviation="71" result="effect1_foregroundBlur_506_10988"/>
		</filter>
		<filter id="filter1_f_506_10988" x="-189.598" y="282.873" width="497.953" height="537.506" filterUnits="userSpaceOnUse" color-interpolation-filters="sRGB">
			<feFlood flood-opacity="0" result="BackgroundImageFix"/>
			<feBlend mode="normal" in="SourceGraphic" in2="BackgroundImageFix" result="shape"/>
			<feGaussianBlur stdDeviation="71" result="effect1_foregroundBlur_506_10988"/>
		</filter>
		<filter id="filter2_d_506_10988" x="65.2534" y="440.018" width="105.372" height="105.37" filterUnits="userSpaceOnUse" color-interpolation-filters="sRGB">
			<feFlood flood-opacity="0" result="BackgroundImageFix"/>
			<feColorMatrix in="SourceAlpha" type="matrix" values="0 0 0 0 0 0 0 0 0 0 0 0 0 0 0 0 0 0 127 0" result="hardAlpha"/>
			<feOffset dy="3.69641"/>
			<feGaussianBlur stdDeviation="4.15847"/>
			<feComposite in2="hardAlpha" operator="out"/>
			<feColorMatrix type="matrix" values="0 0 0 0 0 0 0 0 0 0 0 0 0 0 0 0 0 0 0.1 0"/>
			<feBlend mode="normal" in2="BackgroundImageFix" result="effect1_dropShadow_506_10988"/>
			<feBlend mode="normal" in="SourceGraphic" in2="effect1_dropShadow_506_10988" result="shape"/>
		</filter>
		<clipPath id="clip0_506_10988">
			<rect width="312" height="567" fill="white"/>
		</clipPath>
	</defs>
</svg>
