<svg width="179" height="145" viewBox="0 0 179 145" fill="none" xmlns="http://www.w3.org/2000/svg">
	<path opacity="0.3" fill-rule="evenodd" clip-rule="evenodd" d="M10.4977 62.6071C13.6551 62.6071 16.2148 60.0475 16.2148 56.89C16.2148 53.7325 13.6551 51.1729 10.4977 51.1729C7.34017 51.1729 4.78052 53.7325 4.78052 56.89C4.78052 60.0475 7.34017 62.6071 10.4977 62.6071ZM10.4977 59.6233C12.0072 59.6233 13.231 58.3996 13.231 56.89C13.231 55.3804 12.0072 54.1566 10.4977 54.1566C8.98806 54.1566 7.76429 55.3804 7.76429 56.89C7.76429 58.3996 8.98806 59.6233 10.4977 59.6233Z" fill="#C7C7C7"/>
	<path opacity="0.3" fill-rule="evenodd" clip-rule="evenodd" d="M32.0609 21.168C34.4053 21.168 36.3057 19.2676 36.3057 16.9232C36.3057 14.5789 34.4053 12.6785 32.0609 12.6785C29.7166 12.6785 27.8162 14.5789 27.8162 16.9232C27.8162 19.2676 29.7166 21.168 32.0609 21.168ZM32.0609 18.8013C33.0981 18.8013 33.939 17.9605 33.939 16.9232C33.939 15.886 33.0981 15.0452 32.0609 15.0452C31.0237 15.0452 30.1828 15.886 30.1828 16.9232C30.1828 17.9605 31.0237 18.8013 32.0609 18.8013Z" fill="#C7C7C7"/>
	<path opacity="0.3" d="M130.64 2.29521C130.64 3.37662 129.764 4.25327 128.682 4.25327C127.601 4.25327 126.724 3.37662 126.724 2.29521C126.724 1.21381 127.601 0.337158 128.682 0.337158C129.764 0.337158 130.64 1.21381 130.64 2.29521Z" fill="#C7C7C7"/>
	<path opacity="0.3" fill-rule="evenodd" clip-rule="evenodd" d="M155.649 134.545C157.897 134.545 159.719 132.723 159.719 130.475C159.719 128.227 157.897 126.405 155.649 126.405C153.401 126.405 151.578 128.227 151.578 130.475C151.578 132.723 153.401 134.545 155.649 134.545ZM155.649 132.427C156.727 132.427 157.601 131.553 157.601 130.475C157.601 129.397 156.727 128.523 155.649 128.523C154.571 128.523 153.697 129.397 153.697 130.475C153.697 131.553 154.571 132.427 155.649 132.427Z" fill="#C7C7C7"/>
	<path opacity="0.3" d="M160.392 75C160.392 113.66 129.052 145 90.3918 145C51.7319 145 20.3918 113.66 20.3918 75C20.3918 36.3401 51.7319 5 90.3918 5C129.052 5 160.392 36.3401 160.392 75Z" fill="#C7C7C7"/>
	<path fill-rule="evenodd" clip-rule="evenodd" d="M116.429 97.0041C116.422 96.9972 116.415 96.9903 116.408 96.9835L108.323 88.8982C113.407 80.0854 112.183 68.631 104.646 61.0938C95.6459 52.0936 81.0537 52.0936 72.0536 61.0938C63.0534 70.094 63.0534 84.6861 72.0536 93.6863C73.3967 95.0295 74.8644 96.1722 76.4193 97.1144H68.3851C68.0021 97.1144 67.6224 97.1003 67.2464 97.0726C57.1299 96.843 49.0005 88.5952 49 78.4548C49.0029 73.5123 50.9751 68.7734 54.4825 65.2806C56.2804 63.4902 58.4062 62.1024 60.719 61.1753C60.6803 60.6724 60.6606 60.1642 60.6606 59.6513C60.6638 54.4363 62.7448 49.4361 66.4457 45.7508C70.1467 42.0654 75.1644 39.9968 80.3952 40C87.0956 40.0081 93.0113 43.3487 96.5665 48.4475C98.2548 47.8512 100.072 47.527 101.966 47.528C110.33 47.538 117.199 53.8948 117.996 62.024C126.01 63.7659 132.007 70.8841 132 79.3948C131.992 88.4416 125.203 95.9038 116.429 97.0041ZM112.296 97.1144H105.058L100.937 92.9936C98.2611 95.1581 95.1572 96.5317 91.9383 97.1144H84.7613C80.8834 96.4124 77.1726 94.5626 74.1749 91.5649C66.3463 83.7364 66.3463 71.0437 74.1749 63.2151C82.0035 55.3865 94.6961 55.3865 102.525 63.2151C109.636 70.3263 110.288 81.4509 104.48 89.2976L112.296 97.1144ZM100.279 97.1144C100.39 97.0471 100.501 96.9789 100.611 96.9095L100.816 97.1144H100.279ZM96.7843 68.9556C101.442 73.6138 101.442 81.1663 96.7843 85.8245C92.126 90.4827 84.5736 90.4827 79.9153 85.8245C75.2571 81.1663 75.2571 73.6138 79.9153 68.9556C84.5736 64.2973 92.126 64.2973 96.7843 68.9556ZM98.9056 66.8342C104.735 72.664 104.735 82.116 98.9056 87.9458C93.0758 93.7756 83.6238 93.7756 77.794 87.9458C71.9642 82.116 71.9642 72.664 77.794 66.8342C83.6238 61.0044 93.0758 61.0044 98.9056 66.8342Z" fill="#D1D1D1"/>
	<path fill-rule="evenodd" clip-rule="evenodd" d="M98.9056 66.7938C104.735 72.6236 104.735 82.0756 98.9056 87.9054C93.0758 93.7352 83.6238 93.7352 77.794 87.9054C71.9642 82.0756 71.9642 72.6236 77.794 66.7938C83.6238 60.964 93.0758 60.964 98.9056 66.7938ZM104.48 89.2572C110.288 81.4105 109.636 70.2859 102.525 63.1747C94.6962 55.3461 82.0035 55.3461 74.1749 63.1747C66.3463 71.0033 66.3463 83.6959 74.1749 91.5245C81.4941 98.8437 93.065 99.32 100.938 92.9532L110.668 102.684C111.667 103.683 113.288 103.683 114.287 102.684C115.286 101.684 115.286 100.064 114.287 99.0644L104.48 89.2572Z" fill="#BDBDBD"/>
	<path opacity="0.3" fill-rule="evenodd" clip-rule="evenodd" d="M20.4664 140.107H6.85829C6.74185 140.107 6.62641 140.103 6.51213 140.094C3.43664 140.022 0.965243 137.438 0.965088 134.26C0.965982 132.711 1.56552 131.226 2.63182 130.132C3.17839 129.571 3.82464 129.136 4.52775 128.845C4.51599 128.688 4.51 128.528 4.51 128.368C4.51097 126.733 5.14359 125.166 6.2687 124.012C7.39382 122.857 8.91925 122.208 10.5094 122.209C12.5464 122.212 14.3448 123.259 15.4256 124.857C15.9389 124.67 16.4914 124.568 17.067 124.568C19.6097 124.572 21.6981 126.564 21.9402 129.111C24.3766 129.657 26.1998 131.888 26.1976 134.554C26.1952 137.628 23.7694 140.118 20.7788 140.116C20.674 140.116 20.5698 140.113 20.4664 140.107Z" fill="#C7C7C7"/>
	<path opacity="0.3" fill-rule="evenodd" clip-rule="evenodd" d="M174.34 31.8541H164.682C164.6 31.8541 164.518 31.8511 164.437 31.8452C162.254 31.7961 160.5 30.0339 160.5 27.8673C160.501 26.8113 160.926 25.7988 161.683 25.0525C162.071 24.67 162.529 24.3735 163.028 24.1754C163.02 24.068 163.016 23.9594 163.016 23.8498C163.016 22.7356 163.465 21.6672 164.264 20.8798C165.062 20.0924 166.145 19.6504 167.273 19.6511C168.719 19.6529 169.995 20.3666 170.762 21.456C171.127 21.3286 171.519 21.2593 171.927 21.2595C173.732 21.2617 175.214 22.6199 175.386 24.3567C177.115 24.7289 178.409 26.2498 178.407 28.0682C178.405 30.1637 176.684 31.8613 174.561 31.8604C174.487 31.8604 174.413 31.8583 174.34 31.8541Z" fill="#C7C7C7"/>
</svg>