<svg width="178" height="145" viewBox="0 0 178 145" fill="none" xmlns="http://www.w3.org/2000/svg">
	<path opacity="0.3" fill-rule="evenodd" clip-rule="evenodd" d="M9.99838 62.6061C13.1559 62.6061 15.7155 60.0465 15.7155 56.889C15.7155 53.7315 13.1559 51.1719 9.99838 51.1719C6.8409 51.1719 4.28125 53.7315 4.28125 56.889C4.28125 60.0465 6.8409 62.6061 9.99838 62.6061ZM9.99838 59.6224C11.508 59.6224 12.7317 58.3986 12.7317 56.889C12.7317 55.3794 11.508 54.1556 9.99838 54.1556C8.48879 54.1556 7.26502 55.3794 7.26502 56.889C7.26502 58.3986 8.48879 59.6224 9.99838 59.6224Z" fill="#C7C7C7"/>
	<path opacity="0.3" fill-rule="evenodd" clip-rule="evenodd" d="M31.5612 21.1673C33.9055 21.1673 35.8059 19.2668 35.8059 16.9225C35.8059 14.5782 33.9055 12.6777 31.5612 12.6777C29.2169 12.6777 27.3164 14.5782 27.3164 16.9225C27.3164 19.2668 29.2169 21.1673 31.5612 21.1673ZM31.5611 18.8006C32.5984 18.8006 33.4392 17.9597 33.4392 16.9225C33.4392 15.8853 32.5984 15.0444 31.5611 15.0444C30.5239 15.0444 29.6831 15.8853 29.6831 16.9225C29.6831 17.9597 30.5239 18.8006 31.5611 18.8006Z" fill="#C7C7C7"/>
	<path opacity="0.3" d="M130.139 2.29595C130.139 3.37735 129.262 4.254 128.181 4.254C127.099 4.254 126.223 3.37735 126.223 2.29595C126.223 1.21454 127.099 0.337891 128.181 0.337891C129.262 0.337891 130.139 1.21454 130.139 2.29595Z" fill="#C7C7C7"/>
	<path opacity="0.3" fill-rule="evenodd" clip-rule="evenodd" d="M155.148 134.545C157.396 134.545 159.219 132.723 159.219 130.475C159.219 128.227 157.396 126.404 155.148 126.404C152.9 126.404 151.078 128.227 151.078 130.475C151.078 132.723 152.9 134.545 155.148 134.545ZM155.148 132.427C156.227 132.427 157.1 131.553 157.1 130.475C157.1 129.397 156.227 128.523 155.148 128.523C154.07 128.523 153.196 129.397 153.196 130.475C153.196 131.553 154.07 132.427 155.148 132.427Z" fill="#C7C7C7"/>
	<path opacity="0.3" d="M159.891 75C159.891 113.66 128.551 145 89.8906 145C51.2307 145 19.8906 113.66 19.8906 75C19.8906 36.3401 51.2307 5 89.8906 5C128.551 5 159.891 36.3401 159.891 75Z" fill="#C7C7C7"/>
	<path d="M88.0075 42.0781V58.0434V73.3822L50.332 57.91L88.0075 42.0781Z" fill="url(#paint0_linear_4271_409074)"/>
	<path d="M88.0081 42.0781V57.3238V73.3822L125.684 57.1904L88.0081 42.0781Z" fill="url(#paint1_linear_4271_409074)"/>
	<path d="M96.3391 32.0001L88.0071 42.0773V42.081L125.683 57.1933L133.652 47.1162L96.3391 32.0001Z" fill="white"/>
	<path d="M42.0003 48.5448L50.3323 57.9067V57.9104L88.0078 42.0846L79.3135 32.7227L42.0003 48.5448Z" fill="white"/>
	<path d="M88.0078 73.3812L125.683 57.1895V100.145C125.683 100.939 125.214 101.657 124.488 101.976L88.0078 117.998L88.0078 73.3812Z" fill="#D6D6D6"/>
	<path d="M88.0078 73.3823L50.3323 57.9102V101.611L88.0078 118L88.0078 73.3823Z" fill="#F1F1F1"/>
	<path d="M138 64.3859L125.683 57.1914L88.0075 73.3831L99.9623 80.5777L138 64.3859Z" fill="white"/>
	<path d="M50.3323 57.9102L42.3625 67.9874V67.9911L80.038 83.1034L88.0078 73.3823L50.3323 57.9102Z" fill="white"/>
	<path d="M50.3323 84.5371V94.2545V94.2583L88.0078 109.371V99.6494L50.3323 84.5371Z" fill="#E4E4E4"/>
	<path d="M125.683 84.5371V94.2545V94.2583L88.0078 109.371V99.6494L125.683 84.5371Z" fill="#BDBDBD"/>
	<path opacity="0.3" fill-rule="evenodd" clip-rule="evenodd" d="M19.9662 140.107H6.35804C6.2416 140.107 6.12616 140.102 6.01188 140.094C2.9364 140.022 0.464999 137.437 0.464844 134.259C0.465738 132.711 1.06528 131.226 2.13157 130.131C2.67814 129.57 3.3244 129.135 4.02751 128.845C4.01575 128.687 4.00976 128.528 4.00976 128.367C4.01072 126.733 4.64335 125.166 5.76846 124.011C6.89357 122.856 8.41901 122.208 10.0092 122.209C12.0462 122.212 13.8446 123.258 14.9254 124.856C15.4386 124.669 15.9911 124.568 16.5667 124.568C19.1095 124.571 21.1979 126.563 21.44 129.111C23.8763 129.656 25.6996 131.887 25.6974 134.554C25.6949 137.627 23.2692 140.117 20.2786 140.116C20.1737 140.116 20.0696 140.113 19.9662 140.107Z" fill="#C7C7C7"/>
	<path opacity="0.3" fill-rule="evenodd" clip-rule="evenodd" d="M173.84 31.8534H164.182C164.1 31.8534 164.018 31.8504 163.937 31.8445C161.754 31.7954 160 30.0332 160 27.8666C160.001 26.8106 160.426 25.7981 161.183 25.0518C161.571 24.6693 162.029 24.3728 162.528 24.1747C162.52 24.0672 162.516 23.9586 162.516 23.8491C162.516 22.7348 162.965 21.6665 163.764 20.8791C164.562 20.0917 165.645 19.6497 166.773 19.6504C168.219 19.6521 169.495 20.3659 170.262 21.4553C170.627 21.3279 171.019 21.2586 171.427 21.2588C173.232 21.261 174.714 22.6191 174.886 24.356C176.615 24.7282 177.909 26.2491 177.907 28.0674C177.905 30.163 176.184 31.8606 174.061 31.8597C173.987 31.8597 173.913 31.8575 173.84 31.8534Z" fill="#C7C7C7"/>
	<defs>
		<linearGradient id="paint0_linear_4271_409074" x1="85.8339" y1="39.5555" x2="86.5487" y2="76.257" gradientUnits="userSpaceOnUse">
			<stop stop-color="#AAAAAA"/>
			<stop offset="1" stop-color="white" stop-opacity="0"/>
		</linearGradient>
		<linearGradient id="paint1_linear_4271_409074" x1="106.846" y1="42.0781" x2="106.846" y2="73.3822" gradientUnits="userSpaceOnUse">
			<stop stop-color="#828282"/>
			<stop offset="1" stop-color="white" stop-opacity="0"/>
		</linearGradient>
	</defs>
</svg>