<svg width="179" height="145" viewBox="0 0 179 145" fill="none" xmlns="http://www.w3.org/2000/svg">
	<path opacity="0.3" fill-rule="evenodd" clip-rule="evenodd" d="M10.4977 62.6071C13.6551 62.6071 16.2148 60.0475 16.2148 56.89C16.2148 53.7325 13.6551 51.1729 10.4977 51.1729C7.34017 51.1729 4.78052 53.7325 4.78052 56.89C4.78052 60.0475 7.34017 62.6071 10.4977 62.6071ZM10.4977 59.6233C12.0072 59.6233 13.231 58.3996 13.231 56.89C13.231 55.3804 12.0072 54.1566 10.4977 54.1566C8.98806 54.1566 7.76429 55.3804 7.76429 56.89C7.76429 58.3996 8.98806 59.6233 10.4977 59.6233Z" fill="#C7C7C7"/>
	<path opacity="0.3" fill-rule="evenodd" clip-rule="evenodd" d="M32.0608 21.1682C34.4051 21.1682 36.3056 19.2678 36.3056 16.9235C36.3056 14.5792 34.4051 12.6787 32.0608 12.6787C29.7165 12.6787 27.816 14.5792 27.816 16.9235C27.816 19.2678 29.7165 21.1682 32.0608 21.1682ZM32.0608 18.8015C33.098 18.8015 33.9388 17.9607 33.9388 16.9235C33.9388 15.8863 33.098 15.0454 32.0608 15.0454C31.0236 15.0454 30.1827 15.8863 30.1827 16.9235C30.1827 17.9607 31.0236 18.8015 32.0608 18.8015Z" fill="#C7C7C7"/>
	<path opacity="0.3" d="M130.64 2.29546C130.64 3.37686 129.764 4.25351 128.682 4.25351C127.601 4.25351 126.724 3.37686 126.724 2.29546C126.724 1.21405 127.601 0.337402 128.682 0.337402C129.764 0.337402 130.64 1.21405 130.64 2.29546Z" fill="#C7C7C7"/>
	<path opacity="0.3" fill-rule="evenodd" clip-rule="evenodd" d="M155.649 134.545C157.897 134.545 159.719 132.723 159.719 130.475C159.719 128.227 157.897 126.405 155.649 126.405C153.401 126.405 151.578 128.227 151.578 130.475C151.578 132.723 153.401 134.545 155.649 134.545ZM155.649 132.427C156.727 132.427 157.601 131.553 157.601 130.475C157.601 129.397 156.727 128.523 155.649 128.523C154.57 128.523 153.697 129.397 153.697 130.475C153.697 131.553 154.57 132.427 155.649 132.427Z" fill="#C7C7C7"/>
	<path opacity="0.3" d="M160.392 75C160.392 113.66 129.052 145 90.3919 145C51.732 145 20.3919 113.66 20.3919 75C20.3919 36.3401 51.732 5 90.3919 5C129.052 5 160.392 36.3401 160.392 75Z" fill="#C7C7C7"/>
	<path fill-rule="evenodd" clip-rule="evenodd" d="M109.945 97.1144H113.648C113.988 97.1338 114.33 97.1438 114.675 97.1439C124.513 97.148 132.492 89.2026 132.5 79.3948C132.507 70.8841 126.51 63.7659 118.496 62.024C117.699 53.8948 110.83 47.538 102.466 47.528C100.572 47.527 98.7548 47.8512 97.0665 48.4475C93.5113 43.3487 87.5956 40.0081 80.8952 40C75.6644 39.9968 70.6467 42.0654 66.9457 45.7508C63.2448 49.4361 61.1638 54.4363 61.1606 59.6513C61.1606 60.1642 61.1803 60.6724 61.219 61.1753C58.9062 62.1024 56.7804 63.4902 54.9825 65.2806C51.4751 68.7734 49.5029 73.5123 49.5 78.4548C49.5005 88.5952 57.6299 96.843 67.7464 97.0726C68.1224 97.1003 68.5021 97.1144 68.8851 97.1144H71.6244L71.1848 96.7131C68.4458 94.213 68.2793 89.9951 70.8129 87.2922C73.3464 84.5893 77.6206 84.425 80.3596 86.9251L84.0292 90.2747L84.0292 63.815C84.0292 60.1331 87.0538 57.1484 90.7849 57.1484C94.5159 57.1484 97.5405 60.1331 97.5405 63.815L97.5405 90.2747L101.21 86.9251C103.949 84.425 108.223 84.5893 110.757 87.2922C113.29 89.9951 113.124 94.213 110.385 96.7131L109.945 97.1144ZM105.524 97.1144L108.346 94.538C109.868 93.149 109.96 90.8058 108.553 89.3042C107.145 87.8026 104.771 87.7113 103.249 89.1002L94.538 97.0517L94.538 63.815C94.538 61.7695 92.8577 60.1113 90.7849 60.1113C88.712 60.1113 87.0317 61.7695 87.0317 63.815L87.0317 97.0517L78.3208 89.1002C76.7991 87.7113 74.4245 87.8026 73.017 89.3042C71.6095 90.8058 71.702 93.149 73.2236 94.538L76.0461 97.1144H105.524Z" fill="#D1D1D1"/>
	<path fill-rule="evenodd" clip-rule="evenodd" d="M88.0037 108.01C88.6904 108.757 89.6821 109.227 90.785 109.227C91.8878 109.227 92.8795 108.757 93.5662 108.01C93.6609 107.936 93.7533 107.859 93.8432 107.776L108.346 94.538C109.868 93.1491 109.96 90.8058 108.553 89.3042C107.145 87.8026 104.771 87.7113 103.249 89.1003L94.5381 97.0517L94.5381 63.8189C94.5381 61.7734 92.8578 60.1152 90.785 60.1152C88.7121 60.1152 87.0318 61.7734 87.0318 63.8189L87.0318 97.0517L78.3209 89.1003C76.7992 87.7113 74.4246 87.8026 73.0171 89.3042C71.6096 90.8058 71.7021 93.1491 73.2237 94.538L87.7267 107.776C87.8166 107.859 87.909 107.936 88.0037 108.01Z" fill="#BDBDBD"/>
	<path opacity="0.3" fill-rule="evenodd" clip-rule="evenodd" d="M20.4665 140.107H6.85832C6.74188 140.107 6.62644 140.103 6.51216 140.094C3.43667 140.022 0.965274 137.438 0.965118 134.26C0.966013 132.711 1.56555 131.226 2.63185 130.132C3.17842 129.571 3.82467 129.136 4.52778 128.845C4.51602 128.688 4.51003 128.528 4.51003 128.368C4.511 126.733 5.14362 125.166 6.26873 124.012C7.39385 122.857 8.91928 122.208 10.5095 122.209C12.5464 122.212 14.3448 123.259 15.4257 124.857C15.9389 124.67 16.4914 124.568 17.067 124.568C19.6097 124.572 21.6981 126.564 21.9402 129.111C24.3766 129.657 26.1998 131.888 26.1977 134.554C26.1952 137.628 23.7695 140.118 20.7789 140.116C20.674 140.116 20.5698 140.113 20.4665 140.107Z" fill="#C7C7C7"/>
	<path opacity="0.3" fill-rule="evenodd" clip-rule="evenodd" d="M174.34 31.8544H164.682C164.6 31.8544 164.518 31.8514 164.437 31.8454C162.254 31.7964 160.5 30.0342 160.5 27.8676C160.501 26.8116 160.926 25.7991 161.683 25.0528C162.071 24.6703 162.529 24.3738 163.028 24.1757C163.02 24.0682 163.016 23.9596 163.016 23.8501C163.016 22.7358 163.465 21.6675 164.264 20.8801C165.062 20.0927 166.145 19.6507 167.273 19.6514C168.719 19.6531 169.995 20.3669 170.762 21.4563C171.127 21.3288 171.519 21.2596 171.927 21.2598C173.732 21.2619 175.214 22.6201 175.386 24.357C177.115 24.7292 178.409 26.25 178.407 28.0684C178.405 30.1639 176.684 31.8615 174.561 31.8607C174.487 31.8606 174.413 31.8585 174.34 31.8544Z" fill="#C7C7C7"/>
</svg>