<svg width="178" height="145" viewBox="0 0 178 145" fill="none" xmlns="http://www.w3.org/2000/svg">
	<path opacity="0.3" fill-rule="evenodd" clip-rule="evenodd" d="M9.99838 62.6071C13.1559 62.6071 15.7155 60.0475 15.7155 56.89C15.7155 53.7325 13.1559 51.1729 9.99838 51.1729C6.8409 51.1729 4.28125 53.7325 4.28125 56.89C4.28125 60.0475 6.8409 62.6071 9.99838 62.6071ZM9.99838 59.6233C11.508 59.6233 12.7317 58.3996 12.7317 56.89C12.7317 55.3804 11.508 54.1566 9.99838 54.1566C8.48879 54.1566 7.26502 55.3804 7.26502 56.89C7.26502 58.3996 8.48879 59.6233 9.99838 59.6233Z" fill="#C7C7C7"/>
	<path opacity="0.3" fill-rule="evenodd" clip-rule="evenodd" d="M31.5612 21.168C33.9055 21.168 35.8059 19.2676 35.8059 16.9232C35.8059 14.5789 33.9055 12.6785 31.5612 12.6785C29.2169 12.6785 27.3164 14.5789 27.3164 16.9232C27.3164 19.2676 29.2169 21.168 31.5612 21.168ZM31.5611 18.8013C32.5984 18.8013 33.4392 17.9605 33.4392 16.9232C33.4392 15.886 32.5984 15.0452 31.5611 15.0452C30.5239 15.0452 29.6831 15.886 29.6831 16.9232C29.6831 17.9605 30.5239 18.8013 31.5611 18.8013Z" fill="#C7C7C7"/>
	<path opacity="0.3" d="M130.141 2.29521C130.141 3.37662 129.264 4.25327 128.183 4.25327C127.101 4.25327 126.225 3.37662 126.225 2.29521C126.225 1.21381 127.101 0.337158 128.183 0.337158C129.264 0.337158 130.141 1.21381 130.141 2.29521Z" fill="#C7C7C7"/>
	<path opacity="0.3" fill-rule="evenodd" clip-rule="evenodd" d="M155.148 134.545C157.396 134.545 159.219 132.723 159.219 130.475C159.219 128.227 157.396 126.405 155.148 126.405C152.9 126.405 151.078 128.227 151.078 130.475C151.078 132.723 152.9 134.545 155.148 134.545ZM155.148 132.427C156.227 132.427 157.1 131.553 157.1 130.475C157.1 129.397 156.227 128.523 155.148 128.523C154.07 128.523 153.196 129.397 153.196 130.475C153.196 131.553 154.07 132.427 155.148 132.427Z" fill="#C7C7C7"/>
	<path opacity="0.3" d="M159.893 75C159.893 113.66 128.553 145 89.8926 145C51.2326 145 19.8926 113.66 19.8926 75C19.8926 36.3401 51.2326 5 89.8926 5C128.553 5 159.893 36.3401 159.893 75Z" fill="#C7C7C7"/>
	<path fill-rule="evenodd" clip-rule="evenodd" d="M97.0405 97.1144H113.148C113.488 97.1338 113.83 97.1438 114.175 97.1439C124.013 97.148 131.992 89.2026 132 79.3948C132.007 70.8841 126.01 63.7659 117.996 62.024C117.199 53.8948 110.33 47.538 101.966 47.528C100.072 47.527 98.2548 47.8512 96.5665 48.4475C93.0113 43.3487 87.0956 40.0081 80.3952 40C75.1644 39.9968 70.1467 42.0654 66.4457 45.7508C62.7448 49.4361 60.6638 54.4363 60.6606 59.6513C60.6606 60.1642 60.6803 60.6724 60.719 61.1753C58.4062 62.1024 56.2804 63.4902 54.4825 65.2806C50.9751 68.7734 49.0029 73.5123 49 78.4548C49.0005 88.5952 57.1299 96.843 67.2464 97.0726C67.6224 97.1003 68.0021 97.1144 68.3851 97.1144H83.5291V87.8407L79.8596 91.1903C77.1206 93.6905 72.8464 93.5261 70.3128 90.8233C67.7793 88.1204 67.9458 83.9025 70.6848 81.4023L85.1877 68.1639C85.2755 68.0838 85.3648 68.006 85.4557 67.9306C86.6788 66.6972 88.3924 65.9259 90.2848 65.9259C92.1772 65.9259 93.8909 66.6972 95.114 67.9306C95.2048 68.006 95.2942 68.0838 95.3819 68.1639L109.885 81.4023C112.624 83.9025 112.79 88.1204 110.257 90.8232C107.723 93.5261 103.449 93.6905 100.71 91.1903L97.0405 87.8407V97.1144ZM94.038 97.1144V81.0638L102.749 89.0152C104.271 90.4042 106.645 90.3129 108.053 88.8113C109.46 87.3097 109.368 84.9664 107.846 83.5774L93.3431 70.339C93.2532 70.2569 93.1607 70.1791 93.066 70.1056C92.3793 69.3583 91.3876 68.8889 90.2848 68.8889C89.182 68.8889 88.1903 69.3583 87.5036 70.1056C87.4089 70.1791 87.3165 70.2569 87.2266 70.339L72.7236 83.5774C71.202 84.9664 71.1094 87.3097 72.517 88.8113C73.9245 90.3129 76.2991 90.4042 77.8207 89.0152L86.5317 81.0638V97.1144H94.038Z" fill="#D1D1D1"/>
	<path fill-rule="evenodd" clip-rule="evenodd" d="M93.0666 70.1056C92.3799 69.3583 91.3882 68.8889 90.2854 68.8889C89.1826 68.8889 88.1908 69.3583 87.5042 70.1056C87.4094 70.1792 87.317 70.2569 87.2271 70.339L72.7242 83.5774C71.2025 84.9664 71.11 87.3097 72.5175 88.8113C73.925 90.3129 76.2996 90.4042 77.8213 89.0152L86.5322 81.0638V114.297C86.5322 116.342 88.2125 118 90.2854 118C92.3582 118 94.0385 116.342 94.0385 114.297V81.0638L102.749 89.0152C104.271 90.4042 106.646 90.3129 108.053 88.8113C109.461 87.3097 109.368 84.9664 107.847 83.5774L93.3436 70.339C93.2537 70.2569 93.1613 70.1792 93.0666 70.1056Z" fill="#BDBDBD"/>
	<path opacity="0.3" fill-rule="evenodd" clip-rule="evenodd" d="M19.9662 140.107H6.35804C6.2416 140.107 6.12616 140.103 6.01188 140.094C2.9364 140.022 0.464999 137.437 0.464844 134.26C0.465738 132.711 1.06528 131.226 2.13157 130.131C2.67814 129.57 3.3244 129.135 4.02751 128.845C4.01575 128.687 4.00976 128.528 4.00976 128.367C4.01072 126.733 4.64335 125.166 5.76846 124.011C6.89357 122.856 8.41901 122.208 10.0092 122.209C12.0462 122.212 13.8446 123.259 14.9254 124.856C15.4386 124.67 15.9911 124.568 16.5667 124.568C19.1095 124.571 21.1979 126.563 21.44 129.111C23.8763 129.657 25.6996 131.887 25.6974 134.554C25.6949 137.628 23.2692 140.117 20.2786 140.116C20.1737 140.116 20.0696 140.113 19.9662 140.107V140.107Z" fill="#C7C7C7"/>
	<path opacity="0.3" fill-rule="evenodd" clip-rule="evenodd" d="M173.84 31.8541H164.182C164.1 31.8541 164.018 31.8511 163.937 31.8452C161.754 31.7961 160 30.0339 160 27.8673C160.001 26.8113 160.426 25.7988 161.183 25.0525C161.571 24.67 162.029 24.3735 162.528 24.1754C162.52 24.068 162.516 23.9594 162.516 23.8498C162.516 22.7356 162.965 21.6672 163.764 20.8798C164.562 20.0924 165.645 19.6504 166.773 19.6511C168.219 19.6529 169.495 20.3666 170.262 21.456C170.627 21.3286 171.019 21.2593 171.427 21.2595C173.232 21.2617 174.714 22.6199 174.886 24.3567C176.615 24.7289 177.909 26.2498 177.907 28.0682C177.905 30.1637 176.184 31.8613 174.061 31.8604C173.987 31.8604 173.913 31.8583 173.84 31.8541V31.8541Z" fill="#C7C7C7"/>
</svg>