<svg width="16" height="16" viewBox="0 0 16 16" fill="none" xmlns="http://www.w3.org/2000/svg">
	<path fill-rule="evenodd" clip-rule="evenodd" d="M8.27733 7.02921H7.62508V8.77785H9.29594V8.1256H8.27733V7.02921ZM7.98763 10.4905C6.76151 10.4905 5.76754 9.49657 5.76754 8.27044C5.76754 7.04432 6.76151 6.05035 7.98763 6.05035C9.21376 6.05035 10.2077 7.04432 10.2077 8.27044C10.2077 9.49657 9.21376 10.4905 7.98763 10.4905ZM12.3144 7.66732C12.3192 7.60471 12.3223 7.54173 12.3223 7.47795C12.3223 6.12887 11.2288 5.03525 9.87969 5.03525C9.58632 5.03525 9.30513 5.08707 9.04459 5.18179C8.65584 4.34806 7.81066 3.76994 6.83003 3.76994C5.56038 3.76994 4.51727 4.73876 4.39885 5.97732C3.0926 6.27374 2.11719 7.44099 2.11719 8.83689C2.11719 10.4568 3.43033 11.7699 5.05024 11.7699H11.9967C13.1468 11.7699 14.079 10.9584 14.079 9.68765C14.079 8.04189 12.4761 7.62703 12.3144 7.66732Z" fill="white"/>
</svg>
