<svg width="72" height="72" viewBox="0 0 72 72" fill="none" xmlns="http://www.w3.org/2000/svg">
	<g clip-path="url(#clip0_297_49143)">
		<path fill-rule="evenodd" clip-rule="evenodd" d="M10.7329 9.02246L60.1596 58.4491L55.7489 62.8598L48.421 55.531L48.1229 55.6685C44.3709 57.3288 40.4923 58.1589 36.4871 58.1589C24.6439 58.1589 13.9075 50.9005 4.27792 36.3839C4.08742 36.0967 4.05563 35.7377 4.18263 35.4266L4.27792 35.2467L4.93602 34.268C8.23015 29.4402 11.6525 25.4529 15.203 22.3062L6.32222 13.4331L10.7329 9.02246ZM36.4871 13.4714C48.3304 13.4714 59.0667 20.7297 68.6963 35.2463C68.8868 35.5335 68.9186 35.8925 68.7916 36.2036L68.6963 36.3836L68.0382 37.3622C64.8164 42.0842 61.4719 46.002 58.0048 49.1158L47.5318 38.6406C47.7623 37.737 47.8848 36.7904 47.8848 35.8151C47.8848 29.5204 42.7819 24.4175 36.4871 24.4175C35.5109 24.4175 34.5634 24.5402 33.6591 24.7711L24.848 15.9632C28.6011 14.302 32.4808 13.4714 36.4871 13.4714ZM25.0895 35.8151C25.0895 42.1099 30.1924 47.2128 36.4871 47.2128C37.586 47.2128 38.6486 47.0572 39.654 46.767L25.5353 32.6482C25.2451 33.6536 25.0895 34.7162 25.0895 35.8151Z" fill="#C9CCD0"/>
	</g>
	<defs>
		<clipPath id="clip0_297_49143">
			<rect width="72" height="72" fill="white"/>
		</clipPath>
	</defs>
</svg>
