<svg width="14" height="14" viewBox="0 0 14 14" fill="none" xmlns="http://www.w3.org/2000/svg"><path fill-rule="evenodd" clip-rule="evenodd" d="M5.9165 0.576413L5.9165 0.576411L5.91651 0.576409C5.92624 0.571351 5.93566 0.566452 5.94478 0.563686C5.97974 0.553639 6.00959 0.561597 6.04763 0.580972L11.6169 2.78541C11.7599 2.85143 11.8133 2.97773 11.8103 3.19301V5.41587C11.3739 5.28421 10.9112 5.21344 10.4319 5.21344C7.80052 5.21344 5.66738 7.34658 5.66738 9.97793C5.66738 11.0436 6.01728 12.0276 6.60845 12.8213L6.08466 13.0282C6.01113 13.0483 5.92218 13.0526 5.85432 13.0225L0.367158 10.8526C0.258149 10.8102 0.175371 10.6603 0.173828 10.5024L0.173828 3.14709C0.177948 2.98062 0.228334 2.83926 0.367158 2.77395L5.90776 0.580908L5.9165 0.576413ZM5.97754 1.79636L10.2853 3.50641L5.97754 5.2057L1.66599 3.50104L5.97754 1.79636ZM9.72452 7.12343H11.1393V9.27026H13.286V10.6851H11.1393V12.8316H9.72452V10.6851H7.57788V9.27026H9.72452V7.12343Z" fill="#6A737F"/></svg>
