<svg width="15" height="15" viewBox="0 0 15 15" fill="none" xmlns="http://www.w3.org/2000/svg"><path fill-rule="evenodd" clip-rule="evenodd" d="M7.77625 11.6224C7.77625 12.5155 8.05622 13.3432 8.53319 14.0225C8.15004 14.0569 7.76122 14.0787 7.36763 14.0871H6.61939C4.76101 14.0472 3.00912 13.7112 1.45683 13.1441C1.10108 13.0141 0.893223 12.6481 0.953789 12.2742C1.01158 11.9175 1.07552 11.5753 1.1408 11.3208C1.36409 10.4503 2.62013 9.80378 3.77585 9.30663C4.07846 9.17641 4.26115 9.07253 4.44572 8.96758C4.62602 8.86506 4.80812 8.76152 5.10556 8.63139C5.13933 8.4711 5.1529 8.30734 5.14597 8.14381L5.65791 8.08303C5.65791 8.08303 5.72527 8.20542 5.6172 7.48629C5.6172 7.48629 5.04192 7.33717 5.01527 6.19206C5.01527 6.19206 4.58273 6.33584 4.55665 5.64202C4.55125 5.50377 4.51553 5.37086 4.4813 5.24351C4.39921 4.93804 4.32571 4.66458 4.69997 4.4263L4.42996 3.70632C4.42996 3.70632 4.1459 0.925993 5.39076 1.15107C4.88571 0.350909 9.14513 -0.314208 9.42804 2.13581C9.53936 2.87437 9.53936 3.62499 9.42804 4.36356C9.42804 4.36356 10.0644 4.2904 9.63958 5.50022C9.63958 5.50022 9.40568 6.371 9.04653 6.17546C9.04653 6.17546 9.10471 7.27583 8.53918 7.46237C8.53918 7.46237 8.5796 8.04843 8.5796 8.0881L9.05226 8.15872C9.05226 8.15872 9.04433 8.42913 9.07908 8.58943C8.27661 9.35138 7.77625 10.4285 7.77625 11.6224ZM11.2816 8.80379H12.6964V10.9498H14.8166V12.3646H12.6964V14.5119H11.2816V12.3646H9.10844V10.9498H11.2816V8.80379Z" fill="#6A737F"/></svg>