<svg width="14" height="14" viewBox="0 0 14 14" fill="none" xmlns="http://www.w3.org/2000/svg"><path fill-rule="evenodd" clip-rule="evenodd" d="M10.2638 8.01651L11.8173 6.463V11.7714C11.8173 12.629 11.1214 13.3249 10.2638 13.3249H1.71952C0.861987 13.3249 0.166016 12.629 0.166016 11.7714L0.166016 3.22712C0.166016 2.36959 0.861987 1.67361 1.71952 1.67361L6.72025 1.67361L5.16674 3.22712L1.71952 3.22712L1.71952 11.7714H10.2638V8.01651ZM11.3774 0.185303L13.3139 2.14217L7.70017 7.73549L5.76369 5.77863L11.3774 0.185303ZM4.86442 8.38952L5.44778 6.22546L7.27373 8.05085L5.10901 8.63404C5.03969 8.65365 4.96644 8.63404 4.91543 8.58304C4.86573 8.53204 4.84611 8.45882 4.86442 8.38952Z" fill="#6A737F"/></svg>