<svg width="14" height="15" viewBox="0 0 14 15" fill="none" xmlns="http://www.w3.org/2000/svg"><path fill-rule="evenodd" clip-rule="evenodd" d="M13.6924 7.50026C13.6924 11.1966 10.6959 14.1931 6.99952 14.1931C3.30315 14.1931 0.306641 11.1966 0.306641 7.50026C0.306641 3.80388 3.30315 0.807373 6.99952 0.807373C10.6959 0.807373 13.6924 3.80388 13.6924 7.50026ZM12.2316 7.50026C12.2316 10.3898 9.88911 12.7323 6.99952 12.7323C4.10994 12.7323 1.76747 10.3898 1.76747 7.50026C1.76747 4.61067 4.10994 2.2682 6.99952 2.2682C9.88911 2.2682 12.2316 4.61067 12.2316 7.50026ZM6.16619 6.66692V6.66675L7.83286 6.66675V6.66692H10.3329V8.33359H8.66619V8.33341H5.33286V8.33359H3.66619V6.66692H6.16619ZM6.16619 10.8334V10.8336H7.83286V10.8334H6.16619Z" fill="#FF5752"/></svg>
