<svg width="303" height="339" viewBox="0 0 303 339" fill="none" xmlns="http://www.w3.org/2000/svg">
<path fill-rule="evenodd" clip-rule="evenodd" d="M108.407 0C113.705 0 118 4.29486 118 9.59284V9.59284C118 15.1198 121.022 20.2064 125.881 22.8587L144.729 33.1453C149.259 35.6182 154.741 35.6182 159.271 33.1453L178.119 22.8587C182.978 20.2064 186 15.1198 186 9.59284V9.59284C186 4.29486 190.295 0 195.593 0H291C297.627 0 303 5.37258 303 12V327C303 333.627 297.627 339 291 339H12C5.37258 339 0 333.627 0 327V12C0 5.37259 5.37258 0 12 0H108.407Z" fill="#171717"/>
</svg>
