<svg width="24" height="22" viewBox="0 0 24 22" fill="none" xmlns="http://www.w3.org/2000/svg">
<path fill-rule="evenodd" clip-rule="evenodd" d="M17.4424 7.68243V6.17112H3.47256V16.5703H9.97668C10.0832 17.5011 10.3497 18.3833 10.7481 19.1886H2.20885C1.51125 19.1886 0.945084 18.6021 0.945084 17.8794V4.78766C0.940029 4.71959 0.9375 4.65282 0.9375 4.58605C0.940029 3.24807 1.98896 2.16669 3.28052 2.16931H4.73639V2.8239C4.73639 3.9079 5.58437 4.78766 6.63204 4.78766C7.6797 4.78766 8.52769 3.9079 8.52769 2.8239V2.16931H12.3873V2.8239C12.3873 3.9079 13.2366 4.78766 14.283 4.78766C15.3294 4.78766 16.1786 3.9079 16.1786 2.8239V2.16931H17.6345C18.964 2.2531 19.994 3.40648 19.9699 4.78766V7.93775C19.3123 7.76248 18.6213 7.66905 17.9084 7.66905C17.752 7.66905 17.5966 7.67355 17.4424 7.68243ZM12.909 9.42779C13.3464 9.07603 13.8217 8.76943 14.3278 8.51507H13.409C13.1328 8.51507 12.909 8.73893 12.909 9.01507V9.42779ZM10.7678 12.0778H9.82275C9.54661 12.0778 9.32275 12.3016 9.32275 12.5778V13.9529C9.32275 14.2291 9.54661 14.4529 9.82275 14.4529H10.0141C10.1411 13.6109 10.3995 12.812 10.7678 12.0778ZM7.56086 2.56466V1.12457C7.56338 0.593039 7.1514 0.159702 6.63831 0.155773C6.12522 0.153156 5.70565 0.581256 5.70312 1.11147V1.12457V2.56466C5.70312 3.09619 6.1189 3.52691 6.63199 3.52691C7.14508 3.52691 7.56086 3.09619 7.56086 2.56466ZM15.16 2.52543V1.15995C15.16 0.657228 14.767 0.251381 14.2829 0.251381C13.7989 0.251381 13.4059 0.657228 13.4059 1.15995V2.52412C13.4059 3.02553 13.7964 3.43268 14.2817 3.43399C14.767 3.43399 15.16 3.02684 15.16 2.52543ZM9.82275 8.51507C9.54661 8.51507 9.32275 8.73893 9.32275 9.01507V10.3902C9.32275 10.6664 9.54661 10.8902 9.82275 10.8902H11.2136C11.4897 10.8902 11.7136 10.6664 11.7136 10.3902V9.01507C11.7136 8.73893 11.4897 8.51507 11.2136 8.51507H9.82275ZM5.73657 9.01508C5.73657 8.73893 5.96043 8.51508 6.23657 8.51508H7.62741C7.90355 8.51508 8.12741 8.73893 8.12741 9.01508V10.3902C8.12741 10.6664 7.90355 10.8902 7.62741 10.8902H6.23657C5.96043 10.8902 5.73657 10.6664 5.73657 10.3902V9.01508ZM5.73652 12.5778C5.73652 12.3016 5.96038 12.0778 6.23652 12.0778H7.62736C7.9035 12.0778 8.12736 12.3016 8.12736 12.5778V13.9529C8.12736 14.2291 7.9035 14.4529 7.62736 14.4529H6.23652C5.96038 14.4529 5.73652 14.2291 5.73652 13.9529V12.5778ZM17.9084 21.6803C14.5796 21.6803 11.8811 18.9818 11.8811 15.653C11.8811 12.3241 14.5796 9.62561 17.9084 9.62561C21.2373 9.62561 23.9358 12.3241 23.9358 15.653C23.9358 18.9818 21.2373 21.6803 17.9084 21.6803ZM16.1449 17.6581L14.9543 12.926C14.8752 12.6113 15.1839 12.3383 15.4865 12.4553L19.9418 14.178C20.2335 14.2908 20.2887 14.6797 20.04 14.8692L19.4097 15.3495C19.215 15.4979 19.1981 15.7849 19.374 15.9551L21.3961 17.9121C21.5554 18.0663 21.5589 18.3206 21.4039 18.4792L20.6313 19.2695C20.4706 19.4338 20.2048 19.4293 20.0498 19.2595L18.0901 17.1121C17.9327 16.9397 17.6618 16.9381 17.5024 17.1087L16.8251 17.8336C16.6088 18.065 16.2222 17.9653 16.1449 17.6581Z" fill="#2FC6F6"/>
</svg>
