<svg xmlns="http://www.w3.org/2000/svg" width="20" height="19" viewBox="0 0 20 19"><path fill="#828B95" d="M15.571 13.26c0-.602-.733-1.289-2.176-1.69a4.75 4.75 0 0 1-1.377-.672c-.093-.057-.079-.582-.079-.582l-.464-.076c0-.043-.04-.672-.04-.672.556-.201.499-1.384.499-1.384.353.21.583-.725.583-.725.417-1.3-.208-1.222-.208-1.222.11-.794.11-1.6 0-2.395-.278-2.633-4.466-1.918-3.97-1.058-1.224-.242-.944 2.746-.944 2.746l.265.774c-.521.363-.159.802-.14 1.307.025.746.45.591.45.591.026 1.23.592 1.391.592 1.391.106.773.04.642.04.642l-.503.065a2.3 2.3 0 0 1-.04.524c-.592.283-.72.45-1.308.726-1.136.534-2.37 1.229-2.59 2.165-.22.935-.3 2.285-.3 2.285h12.108l-.398-2.74z"/></svg>