<svg width="86" height="29" viewBox="0 0 86 29" fill="none" xmlns="http://www.w3.org/2000/svg">
<path fill-rule="evenodd" clip-rule="evenodd" d="M23.161 4.10601C20.6833 1.5554 17.2581 0.170776 13.7602 0.170776C6.32693 0.170776 0.351195 6.21938 0.42407 13.5797C0.42407 15.9117 1.07994 18.1708 2.17306 20.2113L0.27832 27.1344L7.34718 25.3126C8.99696 26.2291 10.8004 26.7358 12.6288 26.8756C11.821 26.0763 11.1167 25.1726 10.5377 24.1864C9.70069 23.9344 8.89579 23.581 8.1488 23.1263L7.71155 22.9077L3.48481 24.0008L4.57793 19.847L4.28643 19.4097C1.07994 14.2356 2.61031 7.38538 7.8573 4.17889C11.8149 1.76034 16.6432 2.03668 20.1531 4.57009C20.7065 4.49882 21.2706 4.46206 21.8434 4.46206C22.4434 4.46206 23.0339 4.5024 23.6125 4.58051C23.4663 4.41904 23.3158 4.26082 23.161 4.10601ZM22.131 6.98779C19.3895 6.98779 16.7051 8.07298 14.7631 10.072C12.8212 12.0139 11.736 14.6412 11.736 17.4398C11.736 23.2085 16.4195 27.949 22.1881 27.949C23.9015 27.949 25.615 27.5492 27.1571 26.6925L32.6973 28.1204L31.2123 22.6944C32.069 21.0952 32.583 19.3246 32.583 17.497C32.6402 11.7283 27.9567 6.98779 22.131 6.98779Z" fill="#1EC6FA"/>
<path fill-rule="evenodd" clip-rule="evenodd" d="M78.6632 15.3524C75.8611 15.3524 73.5896 13.0813 73.5896 10.2799C73.5896 7.47845 75.8611 5.20751 78.6632 5.20751C81.4654 5.20751 83.7369 7.47845 83.7369 10.2799C83.7369 13.0813 81.4654 15.3524 78.6632 15.3524ZM78.6621 3.75818C75.0595 3.75818 72.139 6.67799 72.139 10.2799C72.139 13.8818 75.0595 16.8018 78.6621 16.8018C82.2648 16.8018 85.1853 13.8818 85.1853 10.2799C85.1853 6.67799 82.2648 3.75818 78.6621 3.75818ZM47.7741 7.26163C49.2513 7.26163 50.6396 7.85038 50.6396 9.52849C50.6396 11.0396 49.2579 12.0413 47.5365 13.2893C44.8983 15.2019 41.4622 17.6929 40.9795 23.4828H55.1299V20.0679H46.2378C46.7763 18.2919 48.4721 17.004 50.2192 15.677C52.4979 13.9462 54.864 12.149 54.864 9.1162C54.864 6.05463 52.7665 3.87609 48.4241 3.87609C45.6472 3.87609 43.3133 4.7298 41.6293 5.49538L42.6635 8.58645C44.17 7.9092 45.7949 7.26163 47.7741 7.26163ZM63.1362 15.6225H61.3636C60.6843 15.6225 59.2662 15.6813 58.9118 15.7108L63.3136 9.91123C63.2542 10.2938 63.1362 12.031 63.1362 13.5322V15.6225ZM64.1697 3.93504L54.4211 16.2995V18.8607H63.1359V23.4827H67.0651V18.8607H69.96V15.6225H67.0651V3.93504H64.1697ZM79.3882 9.55533V7.38143H77.9387V9.55533H77.9378V11.0047L77.9387 11.0047H79.3882L81.5618 11.0047V9.55533H79.3882Z" fill="#1EC6FA"/>
</svg>
