<svg xmlns="http://www.w3.org/2000/svg" width="33" height="43" viewBox="0 0 33 43">
  <path fill="#56C472" d="M22.0386343,-8.66862138e-13 C24.1040494,-8.66862138e-13 25.7157229,1.39727939 25.9281991,3.28836224 L25.9460015,3.50046877 L25.9519997,3.71636412 L25.9517324,6.15126038 L3.60216947,6.15126038 L3.60216947,34.667394 L25.9517324,34.667394 L25.9519997,38.4016365 C25.9519997,40.314585 24.3719212,41.9980472 22.2662096,42.1118735 L22.0386343,42.1180018 L3.9133654,42.1180018 C1.77145351,42.1180018 0.117515979,40.5005044 0.00599818463,38.6056572 L-2.04636308e-12,38.4016376 L-2.04636308e-12,3.71636423 C-2.04636308e-12,1.68227763 1.5800785,0.111600164 3.68579012,0.00569623294 L3.9133654,-8.66862138e-13 L22.0386343,-8.66862138e-13 Z M12.9759999,35.9232686 C11.6125402,35.9232686 10.4976309,37.0381779 10.4976309,38.4016376 C10.4976309,39.7650973 11.6125402,40.8800066 12.9759999,40.8800066 C14.3394596,40.8800066 15.4543688,39.7650973 15.4543688,38.4016376 C15.4543688,37.0381779 14.3394596,35.9232686 12.9759999,35.9232686 Z M22.4346026,10.3948869 C22.4905864,10.3787999 22.5383358,10.3914394 22.5992577,10.4224632 L22.5992577,10.4224632 L31.516872,13.9522309 C31.7457537,14.0579474 31.8313737,14.2601737 31.8264341,14.6048849 L31.8264341,14.6048849 L31.8264341,25.8101324 C31.828078,26.0640698 31.6980021,26.3088033 31.5234688,26.3800428 L31.5234688,26.3800428 L22.6585441,29.8821606 C22.5408144,29.9143316 22.398388,29.9212264 22.2897167,29.8729686 L22.2897167,29.8729686 L13.5036157,26.3985006 C13.3290697,26.330729 13.1965234,26.0905813 13.1940535,25.837797 L13.1940535,25.837797 L13.1940535,14.5313628 C13.2006503,14.2648065 13.2813286,14.0384513 13.5036157,13.9338908 L13.5036157,13.9338908 L22.3752847,10.4223602 C22.3958673,10.4120192 22.4156251,10.4005289 22.4345605,10.3947839 Z M22.4872501,11.5989642 L15.1172355,14.5128756 L22.4872501,17.4267577 L29.8507312,14.522053 L22.4872501,11.5989642 Z" transform="translate(.784 .647)"/>
</svg>
