<svg xmlns="http://www.w3.org/2000/svg" width="46" height="44" viewBox="0 0 46 44">
  <path fill="#FFFFFF" fill-rule="evenodd" d="M139.454165,35.9333841 C143.547815,40.7476216 144.280664,60.5045219 139.454165,65.0094841 C138.537223,65.8655023 136.73314,66.5188261 134.382209,66.9922233 C134.330681,69.9000241 134.12119,75.7962006 133.271925,75.7962006 C132.497824,75.7962006 127.016282,70.9840181 123.657977,67.9691782 C114.05871,68.1471826 103.357835,66.9527489 100.850205,65.0094841 C96.4686318,61.6142409 96.2797546,41.0622046 100.850205,35.9333841 C105.420662,30.8045539 135.360662,31.1191421 139.454165,35.9333841 Z M107.743709,43.5274188 C106.88558,43.5274188 106.110075,43.6881449 105.417193,44.0095971 C104.724312,44.3310494 104.187982,44.7838777 103.808202,45.3680822 C103.428422,45.9522866 103.238532,46.6105649 103.238532,47.3429169 C103.238532,47.9970023 103.392183,48.5979782 103.699486,49.1458446 C104.006789,49.693711 104.499633,50.2303964 105.178019,50.7559009 C105.734643,51.2031388 106.076735,51.4924458 106.204295,51.623822 C106.331855,51.7551981 106.430423,51.8865742 106.500001,52.0179503 C106.569579,52.1493265 106.604368,52.2904859 106.604368,52.4414287 C106.604368,52.7600857 106.494203,53.0060665 106.273873,53.1793712 C106.053542,53.3526759 105.728845,53.4393282 105.299781,53.4393282 C104.789542,53.4393282 104.219872,53.3386997 103.59077,53.1374426 C103.087489,52.976437 102.629666,52.7850192 102.2173,52.5631892 L101.916549,52.3911144 L101.916549,55.326113 C102.328219,55.5888652 102.818164,55.7887247 103.386385,55.9256913 C103.954605,56.0626579 104.557615,56.1311412 105.195413,56.1311412 C106.720332,56.1311412 107.908956,55.7859294 108.761287,55.095506 C109.613618,54.4050825 110.039783,53.4393282 110.039783,52.1982431 C110.039783,51.5050244 109.874536,50.8900723 109.54404,50.3533869 C109.213544,49.8167014 108.706205,49.3051731 108.022021,48.8188019 C107.476993,48.4218783 107.10736,48.1046189 106.913121,47.8670238 C106.718882,47.6294287 106.621763,47.3736645 106.621763,47.0997313 C106.621763,46.7978458 106.721781,46.5686363 106.921818,46.4121031 C107.121855,46.2555698 107.407415,46.1773032 107.778498,46.1773032 C108.4047,46.1773032 109.150663,46.3765477 110.016388,46.7750366 L110.309398,46.9152457 L111.483527,44.4246898 C110.376077,43.8265091 109.129471,43.5274188 107.743709,43.5274188 Z M133.696312,43.5274188 C132.838183,43.5274188 132.062678,43.6881449 131.369796,44.0095971 C130.676915,44.3310494 130.140585,44.7838777 129.760805,45.3680822 C129.381025,45.9522866 129.191134,46.6105649 129.191134,47.3429169 C129.191134,47.9970023 129.344786,48.5979782 129.652089,49.1458446 C129.959392,49.693711 130.452236,50.2303964 131.130622,50.7559009 C131.687246,51.2031388 132.029338,51.4924458 132.156898,51.623822 C132.284457,51.7551981 132.383026,51.8865742 132.452604,52.0179503 C132.522182,52.1493265 132.556971,52.2904859 132.556971,52.4414287 C132.556971,52.7600857 132.446806,53.0060665 132.226476,53.1793712 C132.006145,53.3526759 131.681448,53.4393282 131.252383,53.4393282 C130.742145,53.4393282 130.172475,53.3386997 129.543373,53.1374426 C129.040092,52.976437 128.582269,52.7850192 128.169903,52.5631892 L127.869152,52.3911144 L127.869152,55.326113 C128.280822,55.5888652 128.770767,55.7887247 129.338988,55.9256913 C129.907208,56.0626579 130.510218,56.1311412 131.148016,56.1311412 C132.672935,56.1311412 133.861559,55.7859294 134.71389,55.095506 C135.566221,54.4050825 135.992386,53.4393282 135.992386,52.1982431 C135.992386,51.5050244 135.827139,50.8900723 135.496643,50.3533869 C135.166147,49.8167014 134.658808,49.3051731 133.974624,48.8188019 C133.429596,48.4218783 133.059963,48.1046189 132.865724,47.8670238 C132.671485,47.6294287 132.574366,47.3736645 132.574366,47.0997313 C132.574366,46.7978458 132.674384,46.5686363 132.874421,46.4121031 C133.074458,46.2555698 133.360018,46.1773032 133.731101,46.1773032 C134.357303,46.1773032 135.103266,46.3765477 135.968991,46.7750366 L136.262001,46.9152457 L137.43613,44.4246898 C136.32868,43.8265091 135.082074,43.5274188 133.696312,43.5274188 Z M118.780523,43.7035187 L114.275346,43.7035187 L111.587894,55.963427 L114.614538,55.963427 L115.597328,51.4603006 C115.702247,50.9544959 115.933385,49.6323045 116.290742,47.4937266 L116.345292,47.166817 L116.41487,47.166817 L116.41487,55.963427 L119.632853,55.963427 L123.824929,47.166817 L123.894507,47.166817 L123.764049,47.7035025 C123.495014,48.6337572 123.240822,49.599791 123.001473,50.6016039 L122.824745,51.3596721 L121.807167,55.963427 L124.859902,55.963427 L127.582143,43.7035187 L123.007388,43.7035187 L118.850101,52.4078859 L118.780523,52.4078859 L118.780523,43.7035187 Z" transform="translate(-97 -32)"/>
</svg>
