<svg xmlns="http://www.w3.org/2000/svg" width="46" height="45" viewBox="0 0 46 45">
  <path fill="#8EB807" fill-rule="evenodd" d="M139.454165,40.4535694 C143.547815,45.267807 144.280664,65.0247073 139.454165,69.5296694 C138.537223,70.3856877 136.73314,71.0390114 134.382209,71.5124087 C134.330681,74.4202094 134.12119,80.316386 133.271925,80.316386 C132.497824,80.316386 127.016282,75.5042035 123.657977,72.4893635 C114.05871,72.667368 103.357835,71.4729343 100.850205,69.5296694 C96.4686318,66.1344262 96.2797546,45.58239 100.850205,40.4535694 C105.420662,35.3247393 135.360662,35.6393274 139.454165,40.4535694 Z M107.743709,48.0476041 C106.88558,48.0476041 106.110075,48.2083303 105.417193,48.5297825 C104.724312,48.8512347 104.187982,49.3040631 103.808202,49.8882675 C103.428422,50.472472 103.238532,51.1307502 103.238532,51.8631023 C103.238532,52.5171877 103.392183,53.1181636 103.699486,53.66603 C104.006789,54.2138963 104.499633,54.7505818 105.178019,55.2760863 C105.734643,55.7233242 106.076735,56.0126312 106.204295,56.1440073 C106.331855,56.2753834 106.430423,56.4067596 106.500001,56.5381357 C106.569579,56.6695118 106.604368,56.8106713 106.604368,56.961614 C106.604368,57.280271 106.494203,57.5262519 106.273873,57.6995565 C106.053542,57.8728612 105.728845,57.9595136 105.299781,57.9595136 C104.789542,57.9595136 104.219872,57.858885 103.59077,57.657628 C103.087489,57.4966224 102.629666,57.3052045 102.2173,57.0833746 L101.916549,56.9112998 L101.916549,59.8462983 C102.328219,60.1090506 102.818164,60.30891 103.386385,60.4458766 C103.954605,60.5828432 104.557615,60.6513265 105.195413,60.6513265 C106.720332,60.6513265 107.908956,60.3061148 108.761287,59.6156913 C109.613618,58.9252678 110.039783,57.9595136 110.039783,56.7184284 C110.039783,56.0252097 109.874536,55.4102577 109.54404,54.8735722 C109.213544,54.3368868 108.706205,53.8253584 108.022021,53.3389873 C107.476993,52.9420636 107.10736,52.6248043 106.913121,52.3872092 C106.718882,52.149614 106.621763,51.8938499 106.621763,51.6199167 C106.621763,51.3180311 106.721781,51.0888217 106.921818,50.9322884 C107.121855,50.7757552 107.407415,50.6974886 107.778498,50.6974886 C108.4047,50.6974886 109.150663,50.896733 110.016388,51.295222 L110.309398,51.435431 L111.483527,48.9448751 C110.376077,48.3466945 109.129471,48.0476041 107.743709,48.0476041 Z M133.696312,48.0476041 C132.838183,48.0476041 132.062678,48.2083303 131.369796,48.5297825 C130.676915,48.8512347 130.140585,49.3040631 129.760805,49.8882675 C129.381025,50.472472 129.191134,51.1307502 129.191134,51.8631023 C129.191134,52.5171877 129.344786,53.1181636 129.652089,53.66603 C129.959392,54.2138963 130.452236,54.7505818 131.130622,55.2760863 C131.687246,55.7233242 132.029338,56.0126312 132.156898,56.1440073 C132.284457,56.2753834 132.383026,56.4067596 132.452604,56.5381357 C132.522182,56.6695118 132.556971,56.8106713 132.556971,56.961614 C132.556971,57.280271 132.446806,57.5262519 132.226476,57.6995565 C132.006145,57.8728612 131.681448,57.9595136 131.252383,57.9595136 C130.742145,57.9595136 130.172475,57.858885 129.543373,57.657628 C129.040092,57.4966224 128.582269,57.3052045 128.169903,57.0833746 L127.869152,56.9112998 L127.869152,59.8462983 C128.280822,60.1090506 128.770767,60.30891 129.338988,60.4458766 C129.907208,60.5828432 130.510218,60.6513265 131.148016,60.6513265 C132.672935,60.6513265 133.861559,60.3061148 134.71389,59.6156913 C135.566221,58.9252678 135.992386,57.9595136 135.992386,56.7184284 C135.992386,56.0252097 135.827139,55.4102577 135.496643,54.8735722 C135.166147,54.3368868 134.658808,53.8253584 133.974624,53.3389873 C133.429596,52.9420636 133.059963,52.6248043 132.865724,52.3872092 C132.671485,52.149614 132.574366,51.8938499 132.574366,51.6199167 C132.574366,51.3180311 132.674384,51.0888217 132.874421,50.9322884 C133.074458,50.7757552 133.360018,50.6974886 133.731101,50.6974886 C134.357303,50.6974886 135.103266,50.896733 135.968991,51.295222 L136.262001,51.435431 L137.43613,48.9448751 C136.32868,48.3466945 135.082074,48.0476041 133.696312,48.0476041 Z M118.780523,48.2237041 L114.275346,48.2237041 L111.587894,60.4836123 L114.614538,60.4836123 L115.597328,55.980486 C115.702247,55.4746812 115.933385,54.1524899 116.290742,52.0139119 L116.345292,51.6870024 L116.41487,51.6870024 L116.41487,60.4836123 L119.632853,60.4836123 L123.824929,51.6870024 L123.894507,51.6870024 L123.764049,52.2236878 C123.495014,53.1539426 123.240822,54.1199764 123.001473,55.1217892 L122.824745,55.8798574 L121.807167,60.4836123 L124.859902,60.4836123 L127.582143,48.2237041 L123.007388,48.2237041 L118.850101,56.9280712 L118.780523,56.9280712 L118.780523,48.2237041 Z" transform="translate(-97 -36)"/>
</svg>
