<svg width="44" height="45" viewBox="0 0 44 45" fill="none" xmlns="http://www.w3.org/2000/svg">
<path fill-rule="evenodd" clip-rule="evenodd" d="M33.8962 25.8567C34.4414 25.8567 34.8833 26.3315 34.8833 26.9687V30.346C34.8833 30.9832 34.4414 31.4997 33.8962 31.4997H9.73709C9.19193 31.4997 8.75 30.9832 8.75 30.346V26.9687C8.75 26.3315 9.19193 25.8567 9.73709 25.8567H33.8962ZM21.8175 26.9557C20.9984 26.9557 20.3345 27.6611 20.3345 28.5314C20.3345 29.4016 20.9984 30.107 21.8175 30.107C22.6365 30.107 23.3005 29.4016 23.3005 28.5314C23.3005 27.6611 22.6365 26.9557 21.8175 26.9557ZM20.8614 7C21.4066 7 21.8485 7.46954 21.8485 8.04876V10.2033H29.4676C30.0127 10.2033 30.4547 10.6728 30.4547 11.252V13.402C30.4547 13.402 33.2679 21.2792 33.2679 21.5036V22.3987C33.2679 22.9779 32.8259 23.4474 32.2808 23.4474H11.4039C10.8588 23.4474 10.4168 22.9779 10.4168 22.3987V21.5036C10.4168 21.2792 12.7858 13.4688 12.7858 13.4688V11.252C12.7858 10.6728 13.2278 10.2033 13.7729 10.2033H15.2782V8.04876C15.2782 7.46954 15.7202 7 16.2653 7L20.8614 7ZM29.2225 18.4589H14.5643C14.4854 18.4589 14.421 18.5243 14.4165 18.6069L14.4162 18.6162V20.2942C14.4162 20.378 14.4779 20.4464 14.5556 20.4512L29.2225 20.4515C29.3014 20.4515 29.3658 20.386 29.3703 20.3034L29.3706 18.6162C29.3706 18.5293 29.3043 18.4589 29.2225 18.4589ZM27.9962 15.1699H15.7877C15.722 15.1699 15.6683 15.2353 15.6646 15.3179L15.6644 15.3272V17.0052C15.6644 17.089 15.7157 17.1574 15.7804 17.1622L15.7877 17.1625H27.9962C28.0618 17.1625 28.1155 17.097 28.1193 17.0144L28.1195 15.3272C28.1195 15.2403 28.0643 15.1699 27.9962 15.1699ZM20.3087 8.92536C20.3087 8.75967 20.1744 8.62536 20.0087 8.62536H17.118C16.9523 8.62536 16.818 8.75967 16.818 8.92536V11.2667C16.818 11.4324 16.9523 11.5667 17.118 11.5667H20.0087C20.1744 11.5667 20.3087 11.4324 20.3087 11.2667V8.92536Z" fill="#2FC6F6"/>
<g filter="url(#filter0_d_494_163552)">
<circle cx="33" cy="32" r="7" fill="#9DCF00"/>
</g>
<path fill-rule="evenodd" clip-rule="evenodd" d="M32.3034 32.7953L36.0004 29.1455L37.1192 30.2705L32.3209 35.0277L32.3034 35.0101L32.2859 35.0277L29.3506 32.1867L30.4694 31.0617L32.3034 32.7953Z" fill="white"/>
<defs>
<filter id="filter0_d_494_163552" x="22" y="23" width="22" height="22" filterUnits="userSpaceOnUse" color-interpolation-filters="sRGB">
<feFlood flood-opacity="0" result="BackgroundImageFix"/>
<feColorMatrix in="SourceAlpha" type="matrix" values="0 0 0 0 0 0 0 0 0 0 0 0 0 0 0 0 0 0 127 0" result="hardAlpha"/>
<feOffset dy="2"/>
<feGaussianBlur stdDeviation="2"/>
<feColorMatrix type="matrix" values="0 0 0 0 0 0 0 0 0 0 0 0 0 0 0 0 0 0 0.12 0"/>
<feBlend mode="normal" in2="BackgroundImageFix" result="effect1_dropShadow_494_163552"/>
<feBlend mode="normal" in="SourceGraphic" in2="effect1_dropShadow_494_163552" result="shape"/>
</filter>
</defs>
</svg>
