<svg width="10" height="10" viewBox="0 0 10 10" fill="none" xmlns="http://www.w3.org/2000/svg">
<path fill-rule="evenodd" clip-rule="evenodd" d="M3.6269 1.97956V0.333008H1.88856C1.02945 0.333008 0.333008 1.02945 0.333008 1.88856V8.11079C0.333008 8.9699 1.02945 9.66634 1.88856 9.66634H8.11079C8.9699 9.66634 9.66634 8.9699 9.66634 8.11079V6.37167H8.01901L8.01928 7.2415L8.01405 7.33221C7.96912 7.71903 7.64038 8.01928 7.2415 8.01928H2.75784L2.66714 8.01405C2.28032 7.96912 1.98007 7.64038 1.98007 7.2415V2.75784L1.9853 2.66714C2.03023 2.28032 2.35897 1.98007 2.75784 1.98007L3.6269 1.97956Z" fill="#BDC1C6"/>
<path d="M9.66636 0.599674V4.79136C9.66636 4.96954 9.45094 5.05877 9.32494 4.93279L7.7973 3.40523L5.64304 5.55997C5.56493 5.63808 5.43829 5.63809 5.36018 5.55998L4.47837 4.67817C4.40027 4.60007 4.40026 4.47346 4.47835 4.39535L6.63297 2.24012L5.06675 0.674454C4.94072 0.548471 5.02995 0.333008 5.20815 0.333008H9.39969C9.54697 0.333008 9.66636 0.452399 9.66636 0.599674Z" fill="#BDC1C6"/>
</svg>
