<svg width="14" height="14" viewBox="0 0 14 14" fill="none" xmlns="http://www.w3.org/2000/svg">
<path fill-rule="evenodd" clip-rule="evenodd" d="M5.35966 0.830078V3.09409L4.16472 3.09478C3.61627 3.09478 3.16424 3.50763 3.10247 4.03951L3.09527 4.16423V10.3293C3.09527 10.8777 3.50812 11.3297 4.04 11.3915L4.16472 11.3987H10.3297C10.8782 11.3987 11.3302 10.9859 11.392 10.454L11.3992 10.3293L11.3988 9.13324H13.6639V11.5245C13.6639 12.7058 12.7063 13.6634 11.525 13.6634H2.96946C1.78818 13.6634 0.830566 12.7058 0.830566 11.5245V2.96897C0.830566 1.78769 1.78818 0.830078 2.96946 0.830078H5.35966ZM13.6639 6.96031V1.19674C13.6639 0.99424 13.4998 0.830078 13.2973 0.830078H7.53388C7.28886 0.830078 7.16617 1.12634 7.33946 1.29957L9.49301 3.45236L6.53041 6.4158C6.42304 6.5232 6.42306 6.69729 6.53044 6.80468L7.74293 8.01716C7.85033 8.12457 8.02446 8.12456 8.13185 8.01714L11.094 5.05438L13.1945 7.15477C13.3677 7.328 13.6639 7.20531 13.6639 6.96031Z" fill="#A8ADB4"/>
</svg>
