<svg width="43" height="45" viewBox="0 0 43 45" fill="none" xmlns="http://www.w3.org/2000/svg">
<path fill-rule="evenodd" clip-rule="evenodd" d="M31.9229 14.3787C32.5113 14.7395 32.9232 15.3363 33.0074 16.0262L33.0234 16.2889L33.0225 18.4789L24.4376 18.4805C23.5401 18.4805 22.8004 19.156 22.6993 20.0264L22.6876 20.2305V24.929C22.6876 25.8265 23.3631 26.5662 24.2335 26.6673L24.4376 26.679L33.0225 26.6777L33.0234 29.2455C33.0234 30.4266 32.0667 31.4002 30.8467 31.5107L30.615 31.5211H11.7842C10.1965 31.5211 8.89386 30.302 8.76114 28.7488L8.75 28.4869V14.3804L31.9229 14.3787ZM33.0225 20.1537V25.0047L24.3886 25.0054V20.1541L33.0225 20.1537ZM28.4721 20.8402C27.6344 20.8402 26.955 21.5195 26.955 22.3573C26.955 23.195 27.6344 23.8744 28.4721 23.8744C29.3098 23.8744 29.9892 23.195 29.9892 22.3573C29.9892 21.5195 29.3098 20.8402 28.4721 20.8402ZM28.6629 7L30.1909 12.7085H11.7739L11.4782 11.6046L28.6629 7Z" fill="#2FC6F6"/>
<g filter="url(#filter0_d_489_163526)">
<circle cx="32" cy="32" r="7" fill="#9DCF00"/>
</g>
<path fill-rule="evenodd" clip-rule="evenodd" d="M31.3034 32.7953L35.0004 29.1455L36.1192 30.2705L31.3209 35.0277L31.3034 35.0101L31.2859 35.0277L28.3506 32.1867L29.4694 31.0617L31.3034 32.7953Z" fill="white"/>
<defs>
<filter id="filter0_d_489_163526" x="21" y="23" width="22" height="22" filterUnits="userSpaceOnUse" color-interpolation-filters="sRGB">
<feFlood flood-opacity="0" result="BackgroundImageFix"/>
<feColorMatrix in="SourceAlpha" type="matrix" values="0 0 0 0 0 0 0 0 0 0 0 0 0 0 0 0 0 0 127 0" result="hardAlpha"/>
<feOffset dy="2"/>
<feGaussianBlur stdDeviation="2"/>
<feColorMatrix type="matrix" values="0 0 0 0 0 0 0 0 0 0 0 0 0 0 0 0 0 0 0.12 0"/>
<feBlend mode="normal" in2="BackgroundImageFix" result="effect1_dropShadow_489_163526"/>
<feBlend mode="normal" in="SourceGraphic" in2="effect1_dropShadow_489_163526" result="shape"/>
</filter>
</defs>
</svg>
