<svg xmlns="http://www.w3.org/2000/svg" fill="none" viewBox="0 0 49 50"><path fill="#DFF2F4" fill-rule="evenodd" d="M6.041 3.425c0-1.513 1.202-2.74 2.685-2.74h22.333c.74 0 1.448.312 1.955.863l9.215 9.99c.469.508.73 1.18.73 1.878v33.16c0 1.513-1.202 2.74-2.685 2.74H8.726c-1.483 0-2.685-1.227-2.685-2.74V3.426Z" clip-rule="evenodd"/><path fill="#92D9E2" d="M32.22.955c.295.145.565.345.794.593l9.215 9.99c.216.234.387.503.51.792h-8.52a2 2 0 0 1-2-2V.955Z"/><path fill="#28B0C1" fill-rule="evenodd" d="M11.636 6.393c0 .567-.451 1.027-1.007 1.027-.556 0-1.007-.46-1.007-1.027 0-.568.45-1.028 1.007-1.028.556 0 1.007.46 1.007 1.028Zm0 7.191c0 .568-.451 1.028-1.007 1.028-.556 0-1.007-.46-1.007-1.028 0-.567.45-1.027 1.007-1.027.556 0 1.007.46 1.007 1.027Zm-1.007 8.22c.556 0 1.007-.46 1.007-1.028 0-.567-.451-1.027-1.007-1.027-.556 0-1.007.46-1.007 1.027 0 .568.45 1.028 1.007 1.028Zm1.007 6.164c0 .567-.451 1.027-1.007 1.027-.556 0-1.007-.46-1.007-1.027s.45-1.027 1.007-1.027c.556 0 1.007.46 1.007 1.027Zm-1.007 8.22c.556 0 1.007-.46 1.007-1.028 0-.568-.451-1.028-1.007-1.028-.556 0-1.007.46-1.007 1.028 0 .567.45 1.027 1.007 1.027Zm1.007 6.163c0 .568-.451 1.028-1.007 1.028-.556 0-1.007-.46-1.007-1.027 0-.568.45-1.028 1.007-1.028.556 0 1.007.46 1.007 1.028ZM17.34 7.42c.556 0 1.007-.46 1.007-1.027 0-.568-.45-1.028-1.007-1.028-.556 0-1.007.46-1.007 1.028 0 .567.451 1.027 1.007 1.027Zm1.007 6.164c0 .568-.45 1.028-1.007 1.028-.556 0-1.007-.46-1.007-1.028 0-.567.451-1.027 1.007-1.027.556 0 1.007.46 1.007 1.027Zm-1.007 8.22c.556 0 1.007-.46 1.007-1.028 0-.567-.45-1.027-1.007-1.027-.556 0-1.007.46-1.007 1.027 0 .568.451 1.028 1.007 1.028Zm1.007 6.164c0 .567-.45 1.027-1.007 1.027-.556 0-1.007-.46-1.007-1.027s.451-1.027 1.007-1.027c.556 0 1.007.46 1.007 1.027Zm-1.007 8.22c.556 0 1.007-.46 1.007-1.028 0-.568-.45-1.028-1.007-1.028-.556 0-1.007.46-1.007 1.028 0 .567.451 1.027 1.007 1.027Zm1.007 6.163c0 .568-.45 1.028-1.007 1.028-.556 0-1.007-.46-1.007-1.027 0-.568.451-1.028 1.007-1.028.556 0 1.007.46 1.007 1.028ZM24.054 7.42c.556 0 1.006-.46 1.006-1.027 0-.568-.45-1.028-1.006-1.028s-1.007.46-1.007 1.028c0 .567.45 1.027 1.007 1.027Zm1.006 6.164c0 .568-.45 1.028-1.006 1.028s-1.007-.46-1.007-1.028c0-.567.45-1.027 1.007-1.027.556 0 1.006.46 1.006 1.027Zm5.706 1.028c.556 0 1.007-.46 1.007-1.028 0-.567-.451-1.027-1.007-1.027-.556 0-1.007.46-1.007 1.027 0 .568.45 1.028 1.007 1.028Zm-5.706 6.164c0 .568-.45 1.028-1.006 1.028s-1.007-.46-1.007-1.028c0-.567.45-1.027 1.007-1.027.556 0 1.006.46 1.006 1.027Zm5.706 1.028c.556 0 1.007-.46 1.007-1.028 0-.567-.451-1.027-1.007-1.027-.556 0-1.007.46-1.007 1.027 0 .568.45 1.028 1.007 1.028Zm7.72-1.028c0 .568-.452 1.028-1.008 1.028s-1.007-.46-1.007-1.028c0-.567.451-1.027 1.007-1.027.556 0 1.007.46 1.007 1.027Zm-14.432 8.22c.556 0 1.006-.46 1.006-1.028 0-.567-.45-1.027-1.006-1.027s-1.007.46-1.007 1.027.45 1.027 1.007 1.027Zm1.006 6.164c0 .567-.45 1.027-1.006 1.027s-1.007-.46-1.007-1.027c0-.568.45-1.028 1.007-1.028.556 0 1.006.46 1.006 1.028Zm-1.006 8.219c.556 0 1.006-.46 1.006-1.027 0-.568-.45-1.028-1.006-1.028s-1.007.46-1.007 1.028c0 .567.45 1.027 1.007 1.027Zm7.719-1.027c0 .567-.451 1.027-1.007 1.027-.556 0-1.007-.46-1.007-1.027 0-.568.45-1.028 1.007-1.028.556 0 1.007.46 1.007 1.028Zm5.705 1.027c.556 0 1.007-.46 1.007-1.027 0-.568-.45-1.028-1.007-1.028-.556 0-1.007.46-1.007 1.028 0 .567.451 1.027 1.007 1.027Z" clip-rule="evenodd" opacity=".2"/><path fill="#20ADBF" d="M13.09 23.88c0-.757.739-1.37 1.65-1.37h29.283c.912 0 1.651.613 1.651 1.37v11.439c0 .756-.74 1.37-1.651 1.37H14.741c-.912 0-1.651-.614-1.651-1.37v-11.44Z"/><path fill="#fff" d="M37.982 33.228v-7.222h1.886c2.336 0 3.563 1.457 3.563 3.561 0 2.148-1.327 3.66-3.643 3.66h-1.806Zm1.048-.976h.768c1.847 0 2.516-1.227 2.516-2.674 0-1.556-.829-2.597-2.535-2.597h-.75v5.271ZM33.004 33.228v-7.222h1.647c.639 0 1.088.12 1.427.329.65.361.909.997.909 1.698 0 .976-.51 1.611-1.298 1.885v.022c.2.12.46.515.809 1.162l1.128 2.126h-1.208L35.41 31.31c-.32-.625-.56-.931-.739-.975h-.619v2.893h-1.048Zm1.048-3.847h.56c.329 0 .568-.066.788-.197.3-.197.499-.548.499-1.03 0-.406-.14-.756-.43-.954-.179-.153-.438-.252-.848-.252h-.569v2.433ZM26.765 33.227l2.525-7.254h.809l2.605 7.255h-1.128l-.649-1.853h-2.435l-.629 1.852h-1.098Zm2.036-2.794h1.807l-.54-1.644c-.179-.592-.279-.92-.349-1.162h-.02c-.06.253-.16.581-.359 1.162l-.539 1.644ZM23.886 33.337c-1.907 0-3.284-1.469-3.284-3.693 0-2.192 1.367-3.704 3.284-3.704 1.926 0 3.273 1.534 3.273 3.704 0 2.235-1.397 3.693-3.273 3.693Zm0-.976c1.297 0 2.166-1.03 2.166-2.717 0-1.633-.819-2.73-2.166-2.73-1.298 0-2.166 1.042-2.166 2.73 0 1.687.868 2.717 2.166 2.717ZM16.1 33.228v-7.222h1.796c1.407 0 2.036.877 2.036 1.83 0 .669-.3 1.25-.828 1.512v.022c.768.197 1.257.888 1.257 1.754 0 1.15-.778 2.104-2.285 2.104H16.1Zm1.048-.954h.838c.818 0 1.307-.328 1.307-1.14 0-.69-.469-1.106-1.197-1.106h-.948v2.246Zm0-3.2h.618c.739 0 1.128-.416 1.128-1.063 0-.602-.34-1.052-1.128-1.052h-.618v2.115Z"/></svg>