<svg width="20" height="20" viewBox="0 0 20 20" fill="none" xmlns="http://www.w3.org/2000/svg">
<g id="Icon">
<path id="Shape" d="M12.7505 5.62506L10 8.37549L7.24958 5.62506C6.7495 5.12498 6.12441 5.12498 5.62433 5.62506C5.12425 6.12514 5.12425 6.75024 5.62433 7.25032L8.37476 10.0008L5.62433 12.7512C5.12425 13.2513 5.12425 13.8764 5.62433 14.3764C6.12441 14.8765 6.7495 14.8765 7.24958 14.3764L10 11.626L12.7505 14.3764C13.2505 14.8765 13.8756 14.8765 14.3757 14.3764C14.8758 13.8764 14.8758 13.2513 14.3757 12.7512L11.6253 10.0008L14.3757 7.25032C14.8758 6.75024 14.8758 6.12514 14.3757 5.62506C13.8756 5.25 13.1255 5.25 12.7505 5.62506Z" fill="#FF7C78"/>
</g>
</svg>
