<svg width="219" height="179" viewBox="0 0 219 179" fill="none" xmlns="http://www.w3.org/2000/svg">
<path fill-rule="evenodd" clip-rule="evenodd" d="M157.409 5.58198C158.738 5.58198 159.815 4.50495 159.815 3.17636C159.815 1.84778 158.738 0.770752 157.409 0.770752C156.08 0.770752 155.003 1.84778 155.003 3.17636C155.003 4.50495 156.08 5.58198 157.409 5.58198ZM38.7039 26.3626C41.5841 26.3626 43.9189 24.0278 43.9189 21.1476C43.9189 18.2675 41.5841 15.9326 38.7039 15.9326C35.8237 15.9326 33.4889 18.2675 33.4889 21.1476C33.4889 24.0278 35.8237 26.3626 38.7039 26.3626ZM38.7039 23.455C39.9782 23.455 41.0112 22.4219 41.0112 21.1476C41.0112 19.8733 39.9782 18.8403 38.7039 18.8403C37.4296 18.8403 36.3965 19.8733 36.3965 21.1476C36.3965 22.4219 37.4296 23.455 38.7039 23.455ZM12.2102 77.2735C16.0894 77.2735 19.2341 74.1288 19.2341 70.2496C19.2341 66.3704 16.0894 63.2257 12.2102 63.2257C8.33099 63.2257 5.18628 66.3704 5.18628 70.2496C5.18628 74.1288 8.33099 77.2735 12.2102 77.2735ZM12.2102 73.6077C14.0648 73.6077 15.5683 72.1042 15.5683 70.2496C15.5683 68.395 14.0648 66.8915 12.2102 66.8915C10.3555 66.8915 8.85206 68.395 8.85206 70.2496C8.85206 72.1042 10.3555 73.6077 12.2102 73.6077ZM190.539 165.655C193.301 165.655 195.54 163.416 195.54 160.655C195.54 157.893 193.301 155.654 190.539 155.654C187.778 155.654 185.539 157.893 185.539 160.655C185.539 163.416 187.778 165.655 190.539 165.655ZM190.539 163.053C191.864 163.053 192.938 161.979 192.938 160.655C192.938 159.33 191.864 158.256 190.539 158.256C189.215 158.256 188.141 159.33 188.141 160.655C188.141 161.979 189.215 163.053 190.539 163.053ZM110.5 178.5C157.996 178.5 196.5 139.996 196.5 92.5C196.5 45.0035 157.996 6.5 110.5 6.5C63.0035 6.5 24.5 45.0035 24.5 92.5C24.5 139.996 63.0035 178.5 110.5 178.5ZM24.4588 172.489H7.74022C7.59716 172.489 7.45534 172.483 7.31493 172.473C3.53648 172.384 0.500191 169.209 0.5 165.305C0.501099 163.402 1.23768 161.578 2.54769 160.233C3.21919 159.544 4.01317 159.009 4.87699 158.652C4.86254 158.459 4.85518 158.263 4.85518 158.066C4.85637 156.058 5.63359 154.133 7.01587 152.714C8.39815 151.295 10.2723 150.499 12.2259 150.5C14.7285 150.503 16.938 151.789 18.2658 153.752C18.8964 153.523 19.5752 153.398 20.2823 153.398C23.4062 153.402 25.972 155.849 26.2694 158.979C29.2627 159.65 31.5026 162.39 31.5 165.667C31.4969 169.443 28.5168 172.502 24.8426 172.5C24.7138 172.5 24.5858 172.496 24.4588 172.489ZM201.638 39.4923H213.503C213.593 39.4974 213.684 39.5 213.775 39.5C216.383 39.5011 218.498 37.4155 218.5 34.841C218.502 32.6069 216.912 30.7384 214.788 30.2812C214.577 28.1473 212.756 26.4787 210.539 26.4761C210.037 26.4758 209.555 26.5609 209.108 26.7174C208.166 25.379 206.598 24.5021 204.822 24.5C203.435 24.4992 202.105 25.0422 201.124 26.0096C200.143 26.9769 199.592 28.2895 199.591 29.6584C199.591 29.793 199.596 29.9264 199.606 30.0584C198.993 30.3018 198.43 30.6661 197.953 31.136C197.024 32.0529 196.501 33.2968 196.5 34.5942C196.5 37.256 198.655 39.421 201.336 39.4813C201.436 39.4886 201.537 39.4923 201.638 39.4923Z" fill="#E5F9FF"/>
<g filter="url(#filter0_d_6552_35054)">
<path d="M121.845 122.711C123.752 122.019 124.81 120.018 124.419 118.03L123.068 111.161C123.068 108.294 119.244 105.02 111.713 103.112C109.161 102.415 106.735 101.333 104.523 99.9067C104.039 99.6358 104.112 97.1324 104.112 97.1324L101.687 96.7707C101.687 96.5675 101.479 93.5654 101.479 93.5654C104.381 92.6099 104.083 86.9734 104.083 86.9734C105.926 87.975 107.126 83.5145 107.126 83.5145C109.306 77.3174 106.041 77.6921 106.041 77.6921C106.612 73.9089 106.612 70.0639 106.041 66.2807C104.589 53.7307 82.7308 57.1377 85.3226 61.2365C78.9344 60.0835 80.3921 74.3255 80.3921 74.3255L81.7777 78.0135C79.8571 79.2341 80.2343 80.6348 80.6556 82.1996C80.8312 82.8519 81.0145 83.5327 81.0422 84.2409C81.1761 87.7949 83.3957 87.0584 83.3957 87.0584C83.5325 92.9241 86.4847 93.6879 86.4847 93.6879C87.0392 97.3716 86.6935 96.7447 86.6935 96.7447L84.0665 97.056C84.102 97.8937 84.0324 98.7325 83.859 99.5536C82.3327 100.22 81.3982 100.751 80.473 101.276C79.5258 101.813 78.5883 102.345 77.0354 103.012C71.1046 105.559 64.659 108.871 63.5132 113.33C63.1782 114.634 62.8501 116.386 62.5535 118.214C62.2427 120.129 63.3094 122.004 65.1349 122.669C73.1008 125.574 82.0909 127.296 91.6276 127.5H95.4673C104.958 127.297 113.907 125.591 121.845 122.711Z" fill="#F4FCFE"/>
<path d="M102.524 94.1783C102.541 94.4289 102.561 94.7251 102.581 95.0252C102.6 95.3161 102.621 95.6249 102.638 95.9015L104.26 96.1433C104.761 96.218 105.127 96.6555 105.112 97.1618L105.112 97.162L105.112 97.1658L105.111 97.1834C105.111 97.1995 105.11 97.2241 105.11 97.2559C105.109 97.3197 105.108 97.4125 105.108 97.525C105.109 97.7517 105.115 98.0514 105.134 98.3543C105.154 98.6652 105.186 98.943 105.23 99.1401C105.233 99.1535 105.236 99.166 105.239 99.1777C107.316 100.492 109.584 101.493 111.967 102.145C115.81 103.119 118.779 104.459 120.812 105.976C122.785 107.447 124.022 109.204 124.067 111.057L125.401 117.837C125.881 120.281 124.583 122.781 122.186 123.651C114.142 126.569 105.084 128.294 95.4887 128.5L95.4673 128.5H91.6276L91.6061 128.5C81.9639 128.293 72.865 126.553 64.7923 123.609C62.504 122.774 61.1808 120.43 61.5664 118.053C61.8643 116.218 62.1981 114.43 62.5447 113.081C63.2109 110.488 65.366 108.369 67.9162 106.628C70.4958 104.867 73.6638 103.372 76.6409 102.094M102.524 94.1783L77.0354 103.012M102.524 94.1783C103.164 93.7893 103.636 93.2265 103.978 92.6298C104.435 91.8332 104.697 90.9188 104.852 90.0963C104.994 89.3431 105.054 88.6241 105.077 88.0669C105.41 87.989 105.696 87.8341 105.934 87.657C106.483 87.2471 106.89 86.6273 107.177 86.0919C107.476 85.5347 107.703 84.956 107.853 84.5271C107.93 84.3102 107.988 84.126 108.028 83.9946C108.048 83.9288 108.063 83.8759 108.074 83.8385L108.081 83.8146C109.176 80.6872 109.073 78.7711 108.182 77.6553C107.87 77.2642 107.501 77.0289 107.161 76.889M102.524 94.1783L107.161 76.889M76.6409 102.094L77.0354 103.012M76.6409 102.094C76.6408 102.094 76.6408 102.094 76.6407 102.094L77.0354 103.012M76.6409 102.094C78.1418 101.449 79.0409 100.939 79.9794 100.406L79.9812 100.405C80.8134 99.9326 81.6758 99.4431 82.9704 98.8548M77.0354 103.012C78.5883 102.345 79.5258 101.813 80.473 101.276C81.3982 100.751 82.3327 100.22 83.859 99.5536M82.9704 98.8548C82.945 99.0195 82.9151 99.1837 82.8806 99.3471L83.859 99.5536M82.9704 98.8548C83.0598 98.274 83.0923 97.6859 83.0674 97.0984C83.0452 96.5759 83.4294 96.1245 83.9488 96.063L85.7591 95.8484C85.7262 95.5124 85.6693 95.0372 85.5746 94.3736C85.5554 94.3627 85.5359 94.3515 85.5161 94.34C85.143 94.1216 84.676 93.7672 84.2171 93.2055C83.3948 92.1992 82.6537 90.5977 82.4475 88.078C82.2598 88.0436 82.0593 87.9856 81.855 87.8926C80.8012 87.4131 80.1173 86.254 80.0429 84.2785C80.0201 83.7014 79.8701 83.1285 79.69 82.4596C79.6826 82.4322 79.6751 82.4046 79.6676 82.3766C79.4733 81.6572 79.2272 80.7456 79.3472 79.8453C79.4571 79.0213 79.8501 78.2927 80.577 77.6609L79.456 74.6772C79.4257 74.5967 79.406 74.5127 79.3973 74.4273L80.3921 74.3255C79.3973 74.4273 79.3972 74.427 79.3972 74.4267L79.3971 74.4258L79.3968 74.423L79.3959 74.4135L79.3926 74.3794C79.3898 74.3501 79.3859 74.3077 79.3811 74.2531C79.3715 74.1439 79.3585 73.9859 79.3444 73.7863C79.3162 73.3874 79.2834 72.8212 79.2645 72.1461C79.2269 70.8014 79.2437 69.0011 79.4697 67.2226C79.6923 65.4708 80.1318 63.6162 81.0185 62.2507C81.4706 61.5543 82.0634 60.9475 82.8378 60.5693C83.2438 60.3711 83.6793 60.2457 84.1412 60.1954C84.2108 59.7999 84.3884 59.4504 84.6148 59.1542C85.1259 58.4859 85.9657 57.9813 86.883 57.6053C88.752 56.8394 91.4351 56.4096 94.2037 56.5161C96.9751 56.6226 99.9494 57.271 102.356 58.7734C104.793 60.2949 106.626 62.685 107.032 66.1483C107.568 69.7079 107.611 73.3208 107.161 76.889M82.9704 98.8548C83.1267 98.7837 83.2892 98.7112 83.4588 98.6372L83.859 99.5536M83.859 99.5536C84.0324 98.7325 84.102 97.8937 84.0665 97.056L107.161 76.889M85.7973 96.5566C85.7972 96.5567 85.7975 96.5531 85.7983 96.5463C85.7979 96.5533 85.7975 96.5566 85.7973 96.5566ZM107.126 83.5145C108.619 79.2702 107.558 78.1085 106.741 77.7978L107.126 83.5145Z" stroke="#2FC6F6" stroke-width="2" stroke-linejoin="round"/>
</g>
<g filter="url(#filter1_d_6552_35054)">
<path d="M155.845 122.711C157.752 122.019 158.81 120.018 158.419 118.03L157.068 111.161C157.068 108.294 153.244 105.02 145.713 103.112C143.161 102.415 140.735 101.333 138.523 99.9067C138.039 99.6358 138.112 97.1324 138.112 97.1324L135.687 96.7707C135.687 96.5675 135.479 93.5654 135.479 93.5654C138.381 92.6099 138.083 86.9734 138.083 86.9734C139.926 87.975 141.126 83.5145 141.126 83.5145C143.306 77.3174 140.041 77.6921 140.041 77.6921C140.612 73.9089 140.612 70.0639 140.041 66.2807C138.589 53.7307 116.731 57.1377 119.323 61.2365C112.934 60.0835 114.392 74.3255 114.392 74.3255L115.778 78.0135C113.857 79.2341 114.234 80.6348 114.656 82.1996C114.831 82.8519 115.015 83.5327 115.042 84.2409C115.176 87.7949 117.396 87.0584 117.396 87.0584C117.533 92.9241 120.485 93.6879 120.485 93.6879C121.039 97.3716 120.694 96.7447 120.694 96.7447L118.066 97.056C118.102 97.8937 118.032 98.7325 117.859 99.5536C116.333 100.22 115.398 100.751 114.473 101.276C113.526 101.813 112.588 102.345 111.035 103.012C105.105 105.559 98.659 108.871 97.5132 113.33C97.1782 114.634 96.8501 116.386 96.5535 118.214C96.2427 120.129 97.3094 122.004 99.1349 122.669C107.101 125.574 116.091 127.296 125.628 127.5H129.467C138.958 127.297 147.907 125.591 155.845 122.711Z" fill="#F4FCFE"/>
<path d="M136.524 94.1783C136.541 94.4289 136.561 94.7251 136.581 95.0252C136.6 95.3161 136.621 95.6249 136.638 95.9015L138.26 96.1433C138.761 96.218 139.127 96.6555 139.112 97.1618L139.112 97.162L139.112 97.1658L139.111 97.1834C139.111 97.1995 139.11 97.2241 139.11 97.2559C139.109 97.3197 139.108 97.4125 139.108 97.525C139.109 97.7517 139.115 98.0514 139.134 98.3543C139.154 98.6652 139.186 98.943 139.23 99.1401C139.233 99.1535 139.236 99.166 139.239 99.1777C141.316 100.492 143.584 101.493 145.967 102.145C149.81 103.119 152.779 104.459 154.812 105.976C156.785 107.447 158.022 109.204 158.067 111.057L159.401 117.837C159.881 120.281 158.583 122.781 156.186 123.651C148.142 126.569 139.084 128.294 129.489 128.5L129.467 128.5H125.628L125.606 128.5C115.964 128.293 106.865 126.553 98.7923 123.609C96.504 122.774 95.1808 120.43 95.5664 118.053C95.8643 116.218 96.1981 114.43 96.5447 113.081C97.2109 110.488 99.366 108.369 101.916 106.628C104.496 104.867 107.664 103.372 110.641 102.094M136.524 94.1783L111.035 103.012M136.524 94.1783C137.164 93.7893 137.636 93.2265 137.978 92.6298C138.435 91.8332 138.697 90.9188 138.852 90.0963C138.994 89.3431 139.054 88.6241 139.077 88.0669C139.41 87.989 139.696 87.8341 139.934 87.657C140.483 87.2471 140.89 86.6273 141.177 86.0919C141.476 85.5347 141.703 84.956 141.853 84.5271C141.93 84.3102 141.988 84.126 142.028 83.9946C142.048 83.9288 142.063 83.8759 142.074 83.8385L142.081 83.8146C143.176 80.6872 143.073 78.7711 142.182 77.6553C141.87 77.2642 141.501 77.0289 141.161 76.889M136.524 94.1783L141.161 76.889M110.641 102.094L111.035 103.012M110.641 102.094C110.641 102.094 110.641 102.094 110.641 102.094L111.035 103.012M110.641 102.094C112.142 101.449 113.041 100.939 113.979 100.406L113.981 100.405C114.813 99.9326 115.676 99.4431 116.97 98.8548M111.035 103.012C112.588 102.345 113.526 101.813 114.473 101.276C115.398 100.751 116.333 100.22 117.859 99.5536M116.97 98.8548C116.945 99.0195 116.915 99.1837 116.881 99.3471L117.859 99.5536M116.97 98.8548C117.06 98.274 117.092 97.6859 117.067 97.0984C117.045 96.5759 117.429 96.1245 117.949 96.063L119.759 95.8484C119.726 95.5124 119.669 95.0372 119.575 94.3736C119.555 94.3627 119.536 94.3515 119.516 94.34C119.143 94.1216 118.676 93.7672 118.217 93.2055C117.395 92.1992 116.654 90.5977 116.448 88.078C116.26 88.0436 116.059 87.9856 115.855 87.8926C114.801 87.4131 114.117 86.254 114.043 84.2785C114.02 83.7014 113.87 83.1285 113.69 82.4596C113.683 82.4322 113.675 82.4046 113.668 82.3766C113.473 81.6572 113.227 80.7456 113.347 79.8453C113.457 79.0213 113.85 78.2927 114.577 77.6609L113.456 74.6772C113.426 74.5967 113.406 74.5127 113.397 74.4273L114.392 74.3255C113.397 74.4273 113.397 74.427 113.397 74.4267L113.397 74.4258L113.397 74.423L113.396 74.4135L113.393 74.3794C113.39 74.3501 113.386 74.3077 113.381 74.2531C113.372 74.1439 113.359 73.9859 113.344 73.7863C113.316 73.3874 113.283 72.8212 113.265 72.1461C113.227 70.8014 113.244 69.0011 113.47 67.2226C113.692 65.4708 114.132 63.6162 115.018 62.2507C115.471 61.5543 116.063 60.9475 116.838 60.5693C117.244 60.3711 117.679 60.2457 118.141 60.1954C118.211 59.7999 118.388 59.4504 118.615 59.1542C119.126 58.4859 119.966 57.9813 120.883 57.6053C122.752 56.8394 125.435 56.4096 128.204 56.5161C130.975 56.6226 133.949 57.271 136.356 58.7734C138.793 60.2949 140.626 62.685 141.032 66.1483C141.568 69.7079 141.611 73.3208 141.161 76.889M116.97 98.8548C117.127 98.7837 117.289 98.7112 117.459 98.6372L117.859 99.5536M117.859 99.5536C118.032 98.7325 118.102 97.8937 118.066 97.056L141.161 76.889M119.797 96.5566C119.797 96.5567 119.797 96.5531 119.798 96.5463C119.798 96.5533 119.797 96.5566 119.797 96.5566ZM141.126 83.5145C142.619 79.2702 141.558 78.1085 140.741 77.7978L141.126 83.5145Z" stroke="#2FC6F6" stroke-width="2" stroke-linejoin="round"/>
</g>
<g filter="url(#filter2_d_6552_35054)">
<path d="M143.374 128.822C145.619 128.001 146.865 125.629 146.405 123.272L144.814 115.127C144.814 111.728 140.311 107.845 131.444 105.583C128.44 104.756 125.584 103.474 122.978 101.782C122.408 101.461 122.495 98.4927 122.495 98.4927L119.639 98.0638C119.639 97.8228 119.395 94.2633 119.395 94.2633C122.812 93.1303 122.46 86.447 122.46 86.447C124.63 87.6347 126.044 82.3458 126.044 82.3458C128.61 74.9977 124.766 75.442 124.766 75.442C125.438 70.9562 125.438 66.3972 124.766 61.9114C123.056 47.0307 97.3202 51.0705 100.372 55.9304C92.8502 54.5633 94.5665 71.4502 94.5665 71.4502L96.1979 75.8231C93.9366 77.2704 94.3807 78.9313 94.8767 80.7866C95.0835 81.5601 95.2994 82.3674 95.332 83.2071C95.4896 87.4211 98.103 86.5479 98.103 86.5479C98.2641 93.5029 101.74 94.4086 101.74 94.4086C102.393 98.7764 101.986 98.033 101.986 98.033L98.8928 98.4021C98.9346 99.3954 98.8526 100.39 98.6486 101.364C96.8514 102.154 95.7511 102.783 94.6618 103.405C93.5465 104.043 92.4427 104.674 90.6143 105.465C83.6313 108.484 76.0421 112.411 74.693 117.698C74.2985 119.244 73.9122 121.322 73.563 123.489C73.1971 125.76 74.453 127.983 76.6024 128.772C85.9816 132.217 96.5667 134.258 107.795 134.5H112.316C123.491 134.259 134.028 132.236 143.374 128.822Z" fill="white"/>
<path d="M125.757 61.7799C125.287 57.7364 123.166 54.9485 120.336 53.1691C117.536 51.409 114.066 50.6446 110.822 50.5189C107.58 50.3934 104.447 50.9011 102.274 51.7977C101.204 52.2391 100.25 52.8224 99.6773 53.577C99.3981 53.9447 99.1908 54.3785 99.1354 54.8677C98.559 54.9142 98.0198 55.0624 97.5215 55.3074C96.6453 55.7383 95.9701 56.4318 95.4511 57.2367C94.4305 58.8196 93.9174 60.984 93.6564 63.0525C93.392 65.1477 93.3721 67.2716 93.4162 68.8607C93.4384 69.658 93.4768 70.3265 93.5099 70.7973C93.5264 71.0328 93.5416 71.2191 93.5528 71.3476C93.5584 71.4118 93.563 71.4616 93.5662 71.4959L93.57 71.5356L93.5711 71.5465L93.5714 71.5497L93.5715 71.5507C93.5716 71.551 93.5716 71.5513 94.5665 71.4502L93.5716 71.5513C93.5802 71.6362 93.5997 71.7197 93.6296 71.7997L94.9964 75.4634C94.1049 76.2075 93.6391 77.0609 93.512 78.0206C93.3758 79.0487 93.6564 80.096 93.8872 80.9572C93.8951 80.9867 93.9029 81.0159 93.9107 81.0449C94.1219 81.835 94.305 82.5352 94.3327 83.2448C94.4189 85.5467 95.2047 86.8373 96.36 87.3668C96.6358 87.4932 96.9059 87.5619 97.1521 87.5955C97.3755 90.6362 98.2499 92.5388 99.2054 93.7164C99.7308 94.364 100.264 94.7706 100.687 95.0198C100.736 95.0491 100.784 95.0762 100.831 95.1013C100.969 96.0651 101.042 96.7098 101.079 97.1341L98.7743 97.4092C98.2554 97.4711 97.8716 97.9221 97.8936 98.4442C97.925 99.1873 97.8806 99.9312 97.7616 100.665C96.1952 101.377 95.1648 101.966 94.1674 102.536L94.1655 102.537C93.0589 103.17 91.9937 103.779 90.2174 104.547L125.757 61.7799ZM125.757 61.7799C126.393 66.033 126.438 70.3504 125.891 74.6125C126.303 74.7607 126.765 75.0313 127.151 75.517C128.135 76.7582 128.287 78.9419 126.999 82.6438L126.99 82.6772C126.977 82.7207 126.959 82.7823 126.936 82.8593C126.89 83.0129 126.822 83.2286 126.733 83.4828C126.558 83.9863 126.294 84.6626 125.949 85.3115C125.615 85.9384 125.151 86.6447 124.536 87.1067C124.24 87.3294 123.88 87.5173 123.46 87.5894C123.437 88.2617 123.37 89.1656 123.192 90.1143C123.012 91.0782 122.708 92.1395 122.184 93.0589C121.776 93.7761 121.211 94.4431 120.44 94.8861C120.461 95.2056 120.488 95.6034 120.515 96.007C120.542 96.4084 120.57 96.8345 120.592 97.1957L122.644 97.5038C123.144 97.5789 123.509 98.0161 123.495 98.5219L123.495 98.5225L123.494 98.5272L123.494 98.5488C123.494 98.5683 123.493 98.5979 123.492 98.6362C123.491 98.7129 123.49 98.824 123.49 98.9587C123.491 99.2299 123.498 99.5894 123.521 99.9537C123.545 100.326 123.583 100.667 123.638 100.915C123.65 100.966 123.66 101.006 123.67 101.038C126.147 102.625 128.854 103.832 131.7 104.616C136.212 105.768 139.685 107.349 142.055 109.129C144.365 110.864 145.769 112.907 145.813 115.024M125.757 61.7799L145.813 115.024M145.813 115.024L147.386 123.08C147.935 125.887 146.455 128.761 143.717 129.761C134.264 133.214 123.618 135.256 112.338 135.5L112.316 135.5H107.795L107.774 135.5C96.4388 135.255 85.7442 133.195 76.2577 129.711C73.6432 128.751 72.1364 126.057 72.5758 123.33C72.9262 121.156 73.3181 119.042 73.724 117.451C74.4909 114.446 76.9805 111.965 79.9745 109.907C82.9969 107.83 86.714 106.062 90.2173 104.547L145.813 115.024ZM123.7 101.126C123.7 101.125 123.699 101.124 123.699 101.124C123.706 101.136 123.706 101.139 123.7 101.126ZM101.107 97.8275C101.107 97.8271 101.108 97.8239 101.108 97.8183C101.108 97.825 101.107 97.828 101.107 97.8275ZM98.103 86.5479C98.1112 86.9023 98.128 87.2411 98.1526 87.5648L97.1062 86.5709C97.648 86.6999 98.103 86.5479 98.103 86.5479Z" stroke="#2FC6F6" stroke-width="2" stroke-linejoin="round"/>
</g>
<circle cx="151" cy="123" r="15.5" fill="#2FC6F6"/>
<path fill-rule="evenodd" clip-rule="evenodd" d="M149.102 130.518C148.985 130.631 148.8 130.631 148.683 130.518L143.679 125.64C143.053 125.031 143.053 124.026 143.679 123.417C144.281 122.829 145.243 122.829 145.845 123.417L148.892 126.387L157.155 118.334C157.757 117.747 158.719 117.747 159.322 118.334C159.947 118.944 159.947 119.948 159.322 120.558L149.102 130.518Z" fill="white"/>
<defs>
<filter id="filter0_d_6552_35054" x="54.5" y="52.5" width="77.9993" height="86" filterUnits="userSpaceOnUse" color-interpolation-filters="sRGB">
<feFlood flood-opacity="0" result="BackgroundImageFix"/>
<feColorMatrix in="SourceAlpha" type="matrix" values="0 0 0 0 0 0 0 0 0 0 0 0 0 0 0 0 0 0 127 0" result="hardAlpha"/>
<feOffset dy="3"/>
<feGaussianBlur stdDeviation="3"/>
<feComposite in2="hardAlpha" operator="out"/>
<feColorMatrix type="matrix" values="0 0 0 0 0 0 0 0 0 0 0 0 0 0 0 0 0 0 0.1 0"/>
<feBlend mode="normal" in2="BackgroundImageFix" result="effect1_dropShadow_6552_35054"/>
<feBlend mode="normal" in="SourceGraphic" in2="effect1_dropShadow_6552_35054" result="shape"/>
</filter>
<filter id="filter1_d_6552_35054" x="88.5" y="52.5" width="77.9993" height="86" filterUnits="userSpaceOnUse" color-interpolation-filters="sRGB">
<feFlood flood-opacity="0" result="BackgroundImageFix"/>
<feColorMatrix in="SourceAlpha" type="matrix" values="0 0 0 0 0 0 0 0 0 0 0 0 0 0 0 0 0 0 127 0" result="hardAlpha"/>
<feOffset dy="3"/>
<feGaussianBlur stdDeviation="3"/>
<feComposite in2="hardAlpha" operator="out"/>
<feColorMatrix type="matrix" values="0 0 0 0 0 0 0 0 0 0 0 0 0 0 0 0 0 0 0.1 0"/>
<feBlend mode="normal" in2="BackgroundImageFix" result="effect1_dropShadow_6552_35054"/>
<feBlend mode="normal" in="SourceGraphic" in2="effect1_dropShadow_6552_35054" result="shape"/>
</filter>
<filter id="filter2_d_6552_35054" x="65.5002" y="46.5" width="88.999" height="99" filterUnits="userSpaceOnUse" color-interpolation-filters="sRGB">
<feFlood flood-opacity="0" result="BackgroundImageFix"/>
<feColorMatrix in="SourceAlpha" type="matrix" values="0 0 0 0 0 0 0 0 0 0 0 0 0 0 0 0 0 0 127 0" result="hardAlpha"/>
<feOffset dy="3"/>
<feGaussianBlur stdDeviation="3"/>
<feComposite in2="hardAlpha" operator="out"/>
<feColorMatrix type="matrix" values="0 0 0 0 0 0 0 0 0 0 0 0 0 0 0 0 0 0 0.1 0"/>
<feBlend mode="normal" in2="BackgroundImageFix" result="effect1_dropShadow_6552_35054"/>
<feBlend mode="normal" in="SourceGraphic" in2="effect1_dropShadow_6552_35054" result="shape"/>
</filter>
</defs>
</svg>
