<svg width="34" height="34" viewBox="0 0 34 34" fill="none" xmlns="http://www.w3.org/2000/svg"><path fill-rule="evenodd" clip-rule="evenodd" d="M22.0218 20.4809L24.5168 22.3503C25.2707 22.923 25.3292 24.0548 24.6336 24.7004C22.0251 27.1932 17.6787 28.1609 11.9569 22.1115C6.23503 16.0622 7.37298 11.7318 9.98148 9.23893C10.6763 8.59363 11.7832 8.70039 12.312 9.48636L14.0569 12.0384C14.6681 12.9752 14.2821 14.2515 13.3444 14.8773L12.297 15.5764C12.0563 15.7297 11.9892 16.051 12.1184 16.2972C13.473 18.6748 15.4301 20.7584 17.7189 22.2515C17.9472 22.3833 18.275 22.3152 18.4342 22.098L19.1738 21.0495C19.8206 20.1358 21.1358 19.8151 22.0218 20.4809Z" fill="#fff"/><path d="M25.1882 8.94686C23.5474 7.306 21.3482 6.39974 19.0062 6.42232C18.5866 6.4488 18.252 6.78336 18.2482 7.18031C18.2666 7.59948 18.5947 7.92764 18.9917 7.92381C20.9576 7.88232 22.7617 8.61653 24.1402 9.99507C25.5187 11.3736 26.2529 13.1776 26.2106 15.1445C26.2085 15.3654 26.2948 15.5406 26.4262 15.672C26.5578 15.8036 26.7557 15.8673 26.9548 15.8869C27.3744 15.8604 27.709 15.5259 27.7128 15.1289C27.7364 12.788 26.8291 10.5877 25.1882 8.94686Z" fill="#fff"/><path d="M23.0446 11.0908C22.0822 10.1284 20.8059 9.61007 19.4364 9.62414C19.0168 9.65062 18.6823 9.98517 18.6784 10.3821C18.6968 10.8013 19.025 11.1295 19.4219 11.1256C20.3936 11.1163 21.2952 11.4829 21.9738 12.1615C22.6514 12.8392 23.019 13.7416 23.0096 14.7133C23.0075 14.9342 23.0938 15.1094 23.2254 15.241L23.2966 15.3016C23.4232 15.3933 23.5882 15.4415 23.7542 15.4578C24.1738 15.4314 24.5083 15.0968 24.5121 14.6999C24.5253 13.3294 24.007 12.0532 23.0446 11.0908Z" fill="#fff"/></svg>