<svg width="147" height="51" viewBox="0 0 147 51" fill="none" xmlns="http://www.w3.org/2000/svg">
	<g clip-path="url(#clip0_3_17)">
		<path d="M99.6 44.05H112.83V41.12H104.11C105.31 36.31 112.68 35.26 112.68 29.92C112.68 27.06 110.73 24.96 106.59 24.96C104.03 24.96 101.78 25.71 100.28 26.46L101.18 29.17C102.53 28.49 104.11 27.89 106.07 27.89C107.57 27.89 109 28.57 109 30.3C109 34.21 100.36 34.51 99.6 44.06V44.05ZM113.21 39.39H121.7V44.05H125.08V39.39H127.94V36.53H125.08V24.95H122.6L113.2 37.13V39.38L113.21 39.39ZM117.04 36.68L121.85 30.22C121.85 30.75 121.7 32.4 121.7 33.9V36.61H119.45C118.77 36.61 117.5 36.69 117.04 36.69V36.68Z" fill="white"/>
		<path d="M3.53 41.2V35.26H4.96C6.24 35.26 7.29 35.41 8.04 35.86C8.79 36.31 9.24 37.06 9.24 38.27C9.24 40.3 8.04 41.2 5.18 41.2H3.53ZM0.08 44.05H5.11C10.75 44.05 12.78 41.57 12.78 38.11C12.78 35.78 11.8 34.2 10.07 33.3C8.72 32.55 6.99 32.32 4.88 32.32H3.53V27.81H11.12L12.02 25.03H0V44.05H0.08ZM15.11 44.05H18.42L22.7 37.89C23.53 36.76 24.13 35.63 24.5 35.03H24.58C24.5 35.86 24.43 36.91 24.43 37.96V43.97H27.81V30.44H24.5L20.22 36.6C19.47 37.73 18.79 38.85 18.42 39.46H18.34C18.42 38.63 18.49 37.58 18.49 36.53V30.52H15.11V44.05ZM33.6 44.05H37.06V33.3H41.12L42.02 30.44H29.47V33.3H33.6V44.05ZM43.22 50.89H46.6V44.05C47.28 44.28 47.95 44.35 48.7 44.35C52.98 44.35 55.77 41.42 55.77 37.21C55.77 33 53.21 30.07 48.33 30.07C46.45 30.07 44.65 30.45 43.14 30.9L43.22 50.89ZM46.6 41.12V33.15C47.13 33 47.58 32.92 48.18 32.92C50.66 32.92 52.24 34.27 52.24 37.2C52.24 39.83 50.96 41.48 48.41 41.48C47.73 41.48 47.21 41.33 46.61 41.1L46.6 41.12ZM57.8 44.05H61.11L65.39 37.89C66.22 36.76 66.82 35.63 67.19 35.03H67.27C67.19 35.86 67.12 36.91 67.12 37.96V43.97H70.5V30.44H67.19L62.91 36.6C62.16 37.73 61.48 38.85 61.11 39.46H61.03C61.11 38.63 61.18 37.58 61.18 36.53V30.52H57.8V44.05ZM73.21 44.05H76.67V38.41H78.7C79.08 38.41 79.45 38.79 79.9 39.69L81.63 44.05H85.31L82.83 38.86C82.38 37.96 81.93 37.43 81.25 37.21V37.13C82.38 36.45 82.53 34.5 83.2 33.52C83.43 33.22 83.73 33.07 84.18 33.07C84.41 33.07 84.71 33.07 84.93 33.22V30.29C84.55 30.14 83.88 30.06 83.5 30.06C82.3 30.06 81.55 30.51 81.02 31.26C79.89 32.91 79.89 35.77 78.24 35.77H76.66V30.43H73.2V44.04L73.21 44.05ZM92.98 44.35C94.86 44.35 96.59 43.75 97.64 43L96.66 40.67C95.68 41.2 94.78 41.57 93.5 41.57C91.17 41.57 89.67 40.07 89.67 37.29C89.67 34.81 91.17 32.86 93.73 32.86C95.08 32.86 96.06 33.24 97.04 33.91V30.98C96.29 30.53 95.09 30.08 93.36 30.08C89.3 30.08 86.14 33.09 86.14 37.37C86.14 41.28 88.55 44.36 92.98 44.36V44.35Z" fill="white"/>
		<path d="M139.13 40.07C135.07 40.07 131.84 36.84 131.76 32.7C131.76 28.64 135.07 25.33 139.13 25.33C143.19 25.33 146.5 28.64 146.5 32.7C146.5 36.76 143.19 40.07 139.13 40.07ZM139.13 26.69C135.82 26.69 133.12 29.4 133.12 32.7C133.2 36.08 135.83 38.71 139.13 38.71C142.43 38.71 145.14 36 145.14 32.7C145.14 29.4 142.43 26.69 139.13 26.69Z" fill="white"/>
		<path d="M143.34 32.7H139.66V29.02H138.68V33.68H143.34V32.7Z" fill="white"/>
		<path d="M12.33 9.09997H3.3V1.21997H0V20.21H3.3V11.93H12.33V20.21H15.62V1.21997H12.33V9.09997Z" fill="white"/>
		<path d="M25.24 6.15002C21.29 6.15002 18.54 9.09002 18.54 13.31C18.54 17.53 21.36 20.5 25.24 20.5C29.12 20.5 31.92 17.48 31.92 13.31C31.92 9.14002 29.17 6.15002 25.24 6.15002ZM25.24 17.77C23.2 17.77 21.89 16.02 21.89 13.31C21.89 10.6 23.21 8.88002 25.24 8.88002C27.27 8.88002 28.57 10.58 28.57 13.31C28.57 16.04 27.3 17.77 25.24 17.77Z" fill="white"/>
		<path d="M43.01 13.15C44.28 12.63 44.97 11.61 44.97 10.25C44.97 9.36999 44.58 6.48999 39.54 6.48999H34.28V20.21H39.79C44.91 20.21 45.3 17.16 45.3 16.23C45.3 14.52 44.18 13.55 43 13.16L43.01 13.15ZM37.43 14.43H40.02C40.96 14.43 42.07 14.72 42.07 16.08C42.07 17.22 41.39 17.73 39.88 17.73H37.43V14.42V14.43ZM39.74 12.1H37.43V8.95999H39.57C41.51 8.95999 41.73 9.85999 41.73 10.53C41.73 11.59 41.08 12.1 39.74 12.1Z" fill="white"/>
		<path d="M62.85 6.48999H59.59V20.21H62.85V6.48999Z" fill="white"/>
		<path d="M52.27 11.33C51.85 11.33 51.38 11.35 50.93 11.4V6.48999H47.66V20.21H52.21C57.1 20.21 58.12 17.77 58.12 15.72C58.12 14.08 57.36 11.34 52.27 11.34V11.33ZM50.93 14.04C51.36 13.99 51.76 13.97 52.16 13.97C54.54 13.97 54.86 14.83 54.86 15.77C54.86 16.65 54.65 17.59 52.16 17.59H50.93V14.04Z" fill="white"/>
		<path d="M72.21 4.85C73.7 4.85 74.94 4.39 75.78 3.52C76.59 2.68 77 1.52 76.95 0.16V0.01H74.17V0.16C74.17 1.17 73.83 2.38 72.2 2.38C70.57 2.38 70.21 1.17 70.21 0.16V0H67.43V0.15C67.38 1.52 67.78 2.68 68.59 3.51C69.44 4.38 70.68 4.84 72.2 4.84L72.21 4.85Z" fill="white"/>
		<path d="M75.19 6.48999L70.58 13.1C69.99 13.96 69.48 14.75 69.04 15.46C69.08 14.79 69.12 14.02 69.12 13.16V6.48999H65.91V20.21H68.99L73.6 13.6C74.27 12.63 74.78 11.81 75.13 11.22C75.08 11.86 75.06 12.62 75.06 13.54V20.22H78.27V6.48999H75.19Z" fill="white"/>
	</g>
	<defs>
		<clipPath id="clip0_3_17">
			<rect width="146.5" height="50.89" fill="white"/>
		</clipPath>
	</defs>
</svg>