<svg width="113" height="44" viewBox="0 0 113 44" fill="none" xmlns="http://www.w3.org/2000/svg">
	<g clip-path="url(#clip0_16_112)">
		<path d="M8.06 9.17995L3.6 0.819946H0L6.36 12.1799V19.6699H9.65V12.2399L15.98 0.819946H12.41L8.06 9.17995Z" fill="white"/>
		<path d="M22.6601 5.70996C19.0801 5.70996 16.6801 8.56996 16.6801 12.82C16.6801 16.27 18.4701 19.95 23.4801 19.95C25.2101 19.95 26.8501 19.5 28.1001 18.69L28.2101 18.62L27.2101 16.34L27.0601 16.43C25.9901 17.03 24.9501 17.31 23.7901 17.31C21.5901 17.31 20.1101 15.92 19.9901 13.74H28.5301V12.88C28.5301 8.39996 26.3401 5.71996 22.6601 5.71996V5.70996ZM22.6301 8.29996C24.4001 8.29996 25.1301 9.83996 25.2201 11.33H19.9501C20.0301 9.83996 20.8801 8.29996 22.6301 8.29996Z" fill="white"/>
		<path d="M38.22 5.70996C36.73 5.70996 35.27 6.28996 33.74 7.48996L33.4599 6.03996H30.7V19.66H33.9399V10.11C35.1499 9.09996 36.2799 8.58996 37.2999 8.58996C38.7099 8.58996 39.31 9.47996 39.31 11.58V19.67H42.5499V10.65C42.5499 6.18996 39.53 5.70996 38.2299 5.70996H38.22Z" fill="white"/>
		<path d="M48.73 6.05005H45.49V19.67H48.73V6.05005Z" fill="white"/>
		<path d="M47.11 3.92C48.22 3.92 49.1 3.06 49.1 1.96C49.1 0.86 48.26 0 47.11 0C45.96 0 45.12 0.84 45.12 1.96C45.12 3.08 45.97 3.92 47.11 3.92Z" fill="white"/>
		<path d="M71.84 43.64H83.31V41.13H75.71C76.75 36.96 83.13 36.04 83.13 31.38C83.13 28.87 81.41 27.03 77.86 27.03C75.59 27.03 73.69 27.7 72.34 28.38L73.14 30.71C74.37 30.16 75.72 29.61 77.37 29.61C78.72 29.61 79.95 30.16 79.95 31.7C80.01 35.13 72.53 35.38 71.85 43.66L71.84 43.64Z" fill="white"/>
		<path d="M106.24 40.14C102.74 40.14 99.86 37.26 99.86 33.76C99.86 30.26 102.74 27.38 106.24 27.38C109.74 27.38 112.62 30.26 112.62 33.76C112.62 37.26 109.74 40.14 106.24 40.14ZM106.24 28.55C103.36 28.55 101.03 30.88 101.03 33.76C101.03 36.64 103.36 38.97 106.24 38.97C109.12 38.97 111.45 36.64 111.45 33.76C111.45 30.88 109.12 28.55 106.24 28.55Z" fill="white"/>
		<path d="M109.86 33.7601H106.67V30.5701H105.81V34.6201H109.86V33.7601Z" fill="white"/>
		<path d="M6.33997 24.75H11.86C15.91 24.75 17.75 27.08 17.75 29.53C17.75 31.19 16.95 32.66 15.48 33.46V33.52C17.69 34.07 19.04 35.85 19.04 38.06C19.04 41 16.83 43.64 12.42 43.64H6.33997V24.75ZM11.43 32.66C13.33 32.66 14.37 31.62 14.37 30.15C14.37 28.68 13.45 27.64 11.43 27.64H9.83997V32.67H11.43V32.66ZM11.98 40.82C14.25 40.82 15.54 39.96 15.54 38.06C15.54 36.47 14.31 35.48 12.41 35.48H9.82997V40.82H11.98Z" fill="white"/>
		<path d="M21.61 25.85C21.61 24.68 22.53 23.76 23.7 23.76C24.87 23.76 25.85 24.62 25.85 25.85C25.85 26.95 24.93 27.87 23.7 27.87C22.47 27.87 21.61 27.01 21.61 25.85ZM21.98 30.08H25.41V43.63H21.98V30.08Z" fill="white"/>
		<path d="M30.0099 40.32V32.78H27.5599V30.08H30.0099V26.95L33.4399 25.97V30.08H37.5499L36.6899 32.78H33.4399V39.46C33.4399 40.75 33.8699 41.18 34.7899 41.18C35.5899 41.18 36.3199 40.87 36.8799 40.51L37.9199 42.84C36.9399 43.51 35.2799 43.88 33.9299 43.88C31.4799 43.94 29.9999 42.59 29.9999 40.32H30.0099Z" fill="white"/>
		<path d="M39.7599 30.08H42.6399L43.0099 31.61C44.2399 30.38 45.34 29.77 46.75 29.77C47.36 29.77 48.1 29.95 48.65 30.32L47.4199 33.2C46.8099 32.83 46.2499 32.77 45.8899 32.77C44.9699 32.77 44.23 33.14 43.13 34.12V43.69H39.7V30.08H39.7599Z" fill="white"/>
		<path d="M50.01 25.85C50.01 24.68 50.93 23.76 52.1 23.76C53.27 23.76 54.19 24.68 54.19 25.85C54.19 26.95 53.27 27.87 52.04 27.87C50.81 27.87 50.02 27.01 50.02 25.85H50.01ZM50.38 30.08H53.81V43.63H50.38V30.08Z" fill="white"/>
		<path d="M60.74 36.83L55.83 30.08H59.39L62.58 34.5L65.83 30.08H69.39L64.42 36.83L69.45 43.64H65.89L62.64 39.1L59.33 43.64H55.77L60.74 36.83Z" fill="white"/>
		<path d="M93.9799 37.2V27.02H91.8299L83.6699 37.63V39.65H91.0299V43.7H93.9699V39.65H96.4199V37.2H93.9699H93.9799ZM91.0399 34.81V37.14H89.0799C88.4699 37.14 87.3599 37.2 86.9899 37.2L91.1599 31.56C91.1599 32.05 91.0399 33.52 91.0399 34.81Z" fill="white"/>
	</g>
	<defs>
		<clipPath id="clip0_16_112">
			<rect width="112.62" height="43.88" fill="white"/>
		</clipPath>
	</defs>
</svg>