<svg width="140" height="50" viewBox="0 0 140 50" fill="none" xmlns="http://www.w3.org/2000/svg">
	<g clip-path="url(#clip0_2_2)">
		<path d="M12.37 7.9H3.32001V0H0.0100098V19.04H3.32001V10.74H12.37V19.04H15.67V0H12.37V7.9Z" fill="white"/>
		<path d="M25.31 4.94C21.35 4.94 18.59 7.89 18.59 12.12C18.59 16.35 21.42 19.32 25.31 19.32C29.2 19.32 32 16.29 32 12.12C32 7.95 29.25 4.94 25.31 4.94ZM25.31 16.59C23.27 16.59 21.95 14.84 21.95 12.12C21.95 9.4 23.27 7.68 25.31 7.68C27.35 7.68 28.64 9.38 28.64 12.12C28.64 14.86 27.36 16.59 25.31 16.59Z" fill="white"/>
		<path d="M43.13 11.96C44.4 11.44 45.1 10.42 45.1 9.05003C45.1 8.17003 44.71 5.28003 39.66 5.28003H34.39V19.03H39.92C45.05 19.03 45.45 15.97 45.45 15.04C45.45 13.33 44.32 12.35 43.14 11.96H43.13ZM37.54 13.24H40.14C41.08 13.24 42.2 13.53 42.2 14.9C42.2 16.05 41.52 16.56 40 16.56H37.55V13.24H37.54ZM39.85 10.9H37.54V7.75003H39.68C41.62 7.75003 41.85 8.65003 41.85 9.32003C41.85 10.38 41.2 10.89 39.85 10.89V10.9Z" fill="white"/>
		<path d="M52.41 10.14C51.98 10.14 51.51 10.16 51.06 10.21V5.28003H47.79V19.03H52.35C57.25 19.03 58.28 16.58 58.28 14.52C58.28 12.88 57.52 10.13 52.41 10.13V10.14ZM51.06 12.86C51.49 12.81 51.89 12.79 52.29 12.79C54.67 12.79 55 13.66 55 14.59C55 15.47 54.79 16.42 52.29 16.42H51.06V12.86Z" fill="white"/>
		<path d="M63.02 5.28003H59.75V19.03H63.02V5.28003Z" fill="white"/>
		<path d="M136.28 31.77H132.62V28.11H131.63V32.75H136.28V31.77Z" fill="white"/>
		<path d="M110.92 35.72L115.73 29.24C115.7 29.79 115.56 31.43 115.56 32.95V35.66H113.31C112.62 35.66 111.35 35.72 110.92 35.72ZM107.09 38.48H115.55V43.11H118.95V38.48H121.77V35.66H118.95V24H116.47L107.08 36.18V38.48H107.09ZM93.47 43.11H106.68V40.17H97.96C99.14 35.36 106.51 34.33 106.51 28.94C106.51 26.06 104.52 23.96 100.44 23.96C97.85 23.96 95.66 24.74 94.11 25.49L95.03 28.17C96.41 27.51 98 26.87 99.92 26.87C101.45 26.87 102.86 27.53 102.86 29.29C102.86 33.29 94.25 33.58 93.48 43.11" fill="white"/>
		<path d="M86.91 43.41C88.78 43.41 90.48 42.83 91.57 42.09L90.56 39.73C89.61 40.25 88.66 40.65 87.39 40.65C85.06 40.65 83.53 39.12 83.53 36.33C83.53 33.83 85.03 31.93 87.56 31.93C88.88 31.93 89.92 32.3 90.87 32.99V30.08C90.15 29.62 88.91 29.16 87.21 29.16C83.15 29.16 80.01 32.18 80.01 36.41C80.01 40.35 82.46 43.41 86.89 43.41M67.11 43.12H70.54V37.48H72.58C72.98 37.48 73.36 37.85 73.76 38.78L75.49 43.13H79.2L76.72 37.92C76.29 37.03 75.83 36.51 75.14 36.25V36.19C76.29 35.5 76.41 33.54 77.1 32.59C77.33 32.3 77.65 32.16 78.05 32.16C78.31 32.16 78.6 32.19 78.83 32.28V29.37C78.43 29.23 77.79 29.17 77.42 29.17C76.24 29.17 75.46 29.63 74.92 30.38C73.8 32.02 73.83 34.87 72.13 34.87H70.55V29.52H67.12V43.14L67.11 43.12ZM60.98 43.12H64.43V29.5H60.98V43.12ZM51.88 40.5V36.99C52.34 36.96 52.8 36.93 53.2 36.93C55.33 36.93 55.79 37.68 55.79 38.69C55.79 39.7 55.42 40.5 53.17 40.5H51.87H51.88ZM48.45 43.12H53.26C57.75 43.12 59.22 41.11 59.22 38.63C59.22 36.33 57.75 34.28 53.38 34.28C52.92 34.28 52.4 34.31 51.88 34.34V29.5H48.45V43.12ZM37.25 40.21V32.21C37.77 32.07 38.26 31.98 38.86 31.98C41.31 31.98 42.92 33.36 42.92 36.27C42.92 38.89 41.62 40.56 39.09 40.56C38.37 40.56 37.85 40.45 37.25 40.21ZM33.82 49.94H37.25V43.09C37.91 43.29 38.63 43.41 39.35 43.41C43.61 43.41 46.43 40.44 46.43 36.27C46.43 32.1 43.87 29.16 38.97 29.16C37.1 29.16 35.31 29.51 33.82 30.02V49.94ZM24.23 43.12H27.66V32.35H31.69L32.58 29.5H20.09V32.35H24.24V43.12H24.23ZM16.72 27.29C17.93 27.29 18.85 26.37 18.85 25.25C18.85 24.07 17.93 23.18 16.72 23.18C15.51 23.18 14.62 24.1 14.62 25.25C14.62 26.4 15.51 27.29 16.72 27.29ZM14.99 43.12H18.44V29.5H14.99V43.12ZM-0.0400391 43.12H5.06996C10.68 43.12 12.73 40.64 12.73 37.22C12.73 34.89 11.75 33.33 10.05 32.44C8.69996 31.72 6.93996 31.49 4.86996 31.49H3.48996V26.97H11.09L12.01 24.15H-3.90634e-05V43.12H-0.0400391ZM3.43996 40.27V34.31H4.87996C6.14996 34.31 7.20996 34.45 7.95996 34.89C8.73996 35.32 9.16996 36.13 9.16996 37.31C9.16996 39.33 7.92996 40.28 5.10996 40.28H3.43996V40.27Z" fill="white"/>
		<path d="M132.11 39.1C128.07 39.1 124.78 35.81 124.78 31.77C124.78 27.73 128.07 24.44 132.11 24.44C136.15 24.44 139.44 27.73 139.44 31.77C139.44 35.81 136.15 39.1 132.11 39.1ZM132.11 25.77C128.8 25.77 126.11 28.46 126.11 31.77C126.11 35.08 128.8 37.77 132.11 37.77C135.42 37.77 138.11 35.08 138.11 31.77C138.11 28.46 135.42 25.77 132.11 25.77Z" fill="white"/>
	</g>
	<defs>
		<clipPath id="clip0_2_2">
			<rect width="139.43" height="49.94" fill="white"/>
		</clipPath>
	</defs>
</svg>