<svg width="107" height="44" viewBox="0 0 107 44" fill="none" xmlns="http://www.w3.org/2000/svg">
	<g clip-path="url(#clip0_16_299)">
		<path d="M13.19 10.68C13.19 11.64 13.21 12.52 13.23 13.4C12.68 12.58 12.02 11.69 11.19 10.61L3.13 0H0V18.85H3.27V7.64C3.27 6.66 3.25 5.83 3.21 5.1C3.33 5.26 3.45 5.43 3.57 5.6C4.05 6.26 4.59 7 5.23 7.82L13.56 18.79L13.61 18.85H16.46V0H13.19V10.68Z" fill="white"/>
		<path d="M31.46 15.01V5.22998H28.22V14.98C27.68 15.59 26.61 16.29 25.31 16.29C24.34 16.29 23.71 15.9 23.4 15.09C23.23 14.67 23.16 14.17 23.16 13.35V5.22998H19.92V13.74C19.92 14.93 20.04 15.72 20.32 16.47C21.25 18.94 23.62 19.13 24.32 19.13C25.82 19.13 27.21 18.59 28.46 17.53L28.9 18.85H31.75L31.69 18.65C31.48 17.92 31.44 16.66 31.44 15.01H31.46Z" fill="white"/>
		<path d="M40.5 4.89001C36.58 4.89001 33.84 7.81001 33.84 12C33.84 16.19 36.64 19.13 40.5 19.13C44.36 19.13 47.13 16.13 47.13 12C47.13 7.87001 44.4 4.89001 40.5 4.89001ZM40.5 16.42C38.48 16.42 37.17 14.68 37.17 11.99C37.17 9.30001 38.48 7.59001 40.5 7.59001C42.52 7.59001 43.8 9.28001 43.8 11.99C43.8 14.7 42.53 16.42 40.5 16.42Z" fill="white"/>
		<path d="M54.28 14.59L50.8801 5.22998H47.55L53.0201 18.94H55.4901L60.93 5.22998H57.6L54.28 14.59Z" fill="white"/>
		<path d="M67.9799 4.89001C64.0599 4.89001 61.3199 7.81001 61.3199 12C61.3199 16.19 64.12 19.13 67.9799 19.13C71.8399 19.13 74.6099 16.13 74.6099 12C74.6099 7.87001 71.8799 4.89001 67.9799 4.89001ZM67.9799 16.42C65.9599 16.42 64.6499 14.68 64.6499 11.99C64.6499 9.30001 65.9599 7.59001 67.9799 7.59001C70 7.59001 71.2799 9.28001 71.2799 11.99C71.2799 14.7 70.0099 16.42 67.9799 16.42Z" fill="white"/>
		<path d="M65.5 43.26H76.97V40.75H69.37C70.41 36.58 76.79 35.66 76.79 31C76.79 28.49 75.07 26.65 71.52 26.65C69.25 26.65 67.35 27.32 66 28L66.8 30.33C68.03 29.78 69.38 29.23 71.03 29.23C72.38 29.23 73.61 29.78 73.61 31.32C73.67 34.75 66.19 35 65.51 43.28L65.5 43.26Z" fill="white"/>
		<path d="M99.91 39.77C96.41 39.77 93.53 36.89 93.53 33.39C93.53 29.89 96.41 27.01 99.91 27.01C103.41 27.01 106.29 29.89 106.29 33.39C106.29 36.89 103.41 39.77 99.91 39.77ZM99.91 28.18C97.03 28.18 94.7 30.51 94.7 33.39C94.7 36.27 97.03 38.6 99.91 38.6C102.79 38.6 105.12 36.27 105.12 33.39C105.12 30.51 102.79 28.18 99.91 28.18Z" fill="white"/>
		<path d="M103.53 33.3901H100.34V30.2001H99.48V34.2501H103.53V33.3901Z" fill="white"/>
		<path d="M0 24.38H5.52C9.57 24.38 11.41 26.71 11.41 29.16C11.41 30.82 10.61 32.29 9.14 33.09V33.15C11.35 33.7 12.7 35.48 12.7 37.69C12.7 40.63 10.49 43.27 6.08 43.27H0V24.38ZM5.09 32.29C6.99 32.29 8.03 31.25 8.03 29.78C8.03 28.31 7.11 27.27 5.09 27.27H3.5V32.3H5.09V32.29ZM5.64 40.45C7.91 40.45 9.2 39.59 9.2 37.69C9.2 36.1 7.97 35.11 6.07 35.11H3.5V40.45H5.65H5.64Z" fill="white"/>
		<path d="M15.27 25.48C15.27 24.31 16.19 23.39 17.36 23.39C18.53 23.39 19.51 24.25 19.51 25.48C19.51 26.58 18.59 27.5 17.36 27.5C16.13 27.5 15.27 26.64 15.27 25.48ZM15.64 29.71H19.07V43.26H15.64V29.71Z" fill="white"/>
		<path d="M23.68 39.95V32.41H21.23V29.71H23.68V26.58L27.11 25.6V29.71H31.22L30.36 32.41H27.11V39.09C27.11 40.38 27.54 40.81 28.46 40.81C29.26 40.81 29.99 40.5 30.55 40.14L31.59 42.47C30.61 43.14 28.95 43.51 27.6 43.51C25.15 43.57 23.67 42.22 23.67 39.95H23.68Z" fill="white"/>
		<path d="M33.43 29.71H36.31L36.68 31.24C37.91 30.01 39.01 29.4 40.42 29.4C41.03 29.4 41.77 29.58 42.32 29.95L41.09 32.83C40.48 32.46 39.92 32.4 39.56 32.4C38.64 32.4 37.9 32.77 36.8 33.75V43.32H33.37V29.71H33.43Z" fill="white"/>
		<path d="M43.67 25.48C43.67 24.31 44.59 23.39 45.76 23.39C46.93 23.39 47.85 24.31 47.85 25.48C47.85 26.58 46.93 27.5 45.7 27.5C44.47 27.5 43.68 26.64 43.68 25.48H43.67ZM44.04 29.71H47.47V43.26H44.04V29.71Z" fill="white"/>
		<path d="M54.4001 36.46L49.4901 29.71H53.0501L56.2401 34.13L59.4901 29.71H63.0501L58.0801 36.46L63.1101 43.27H59.5501L56.3001 38.73L52.9901 43.27H49.4301L54.4001 36.46Z" fill="white"/>
		<path d="M87.64 36.83V26.65H85.49L77.33 37.26V39.28H84.69V43.33H87.63V39.28H90.08V36.83H87.63H87.64ZM84.7 34.44V36.77H82.74C82.13 36.77 81.02 36.83 80.65 36.83L84.82 31.19C84.82 31.68 84.7 33.15 84.7 34.44Z" fill="white"/>
	</g>
	<defs>
		<clipPath id="clip0_16_299">
			<rect width="106.29" height="43.51" fill="white"/>
		</clipPath>
	</defs>
</svg>