<svg width="107" height="44" viewBox="0 0 107 44" fill="none" xmlns="http://www.w3.org/2000/svg">
	<g clip-path="url(#clip0_16_225)">
		<path d="M13.19 10.68C13.19 11.64 13.21 12.5 13.23 13.4C12.68 12.58 12.02 11.68 11.19 10.61L3.13 0H0V18.85H3.27V7.64C3.27 6.66 3.25 5.83 3.21 5.1C3.33 5.26 3.45 5.43 3.57 5.6C4.05 6.26 4.59 7 5.23 7.82L13.56 18.79L13.61 18.85H16.46V0H13.19V10.68Z" fill="white"/>
		<path d="M25.2801 4.89001C21.7001 4.89001 19.3 7.75001 19.3 12C19.3 15.45 21.09 19.13 26.1 19.13C27.83 19.13 29.47 18.68 30.72 17.87L30.83 17.8L29.83 15.52L29.68 15.61C28.6101 16.21 27.57 16.49 26.41 16.49C24.21 16.49 22.7301 15.1 22.6101 12.92H31.15V12.06C31.15 7.58002 28.9601 4.90001 25.2801 4.90001V4.89001ZM25.25 7.48001C27.02 7.48001 27.75 9.02001 27.84 10.51H22.57C22.65 9.02001 23.5 7.48001 25.25 7.48001Z" fill="white"/>
		<path d="M44.8501 15.01V5.22998H41.6101V14.98C41.0701 15.59 40.0001 16.29 38.7001 16.29C37.7301 16.29 37.1001 15.9 36.7901 15.09C36.6201 14.67 36.5501 14.17 36.5501 13.35V5.22998H33.3101V13.74C33.3101 14.93 33.4301 15.72 33.7101 16.47C34.6401 18.94 37.0101 19.13 37.7101 19.13C39.2101 19.13 40.6001 18.59 41.8501 17.53L42.2901 18.85H45.1401L45.0801 18.65C44.8701 17.92 44.8301 16.66 44.8301 15.01H44.8501Z" fill="white"/>
		<path d="M53.24 4.89001C49.66 4.89001 47.26 7.75001 47.26 12C47.26 15.45 49.05 19.13 54.06 19.13C55.79 19.13 57.43 18.68 58.68 17.87L58.79 17.8L57.79 15.52L57.64 15.61C56.57 16.21 55.53 16.49 54.37 16.49C52.17 16.49 50.69 15.1 50.57 12.92H59.11V12.06C59.11 7.58002 56.92 4.90001 53.24 4.90001V4.89001ZM53.21 7.48001C54.98 7.48001 55.71 9.02001 55.8 10.51H50.53C50.61 9.02001 51.46 7.48001 53.21 7.48001Z" fill="white"/>
		<path d="M66.43 10.59C65.2 10.11 64.14 9.70001 64.14 8.79001C64.14 7.96001 64.8 7.54001 66.09 7.54001C67.56 7.54001 68.74 7.97002 69.6 8.34001L69.82 8.44001V5.59001L69.72 5.55001C68.61 5.12001 67.32 4.89001 65.98 4.89001C62.97 4.89001 60.96 6.52001 60.96 8.96001C60.96 11.59 63.12 12.43 64.85 13.11C66.11 13.6 67.2 14.03 67.2 14.98C67.2 16.29 65.73 16.48 64.85 16.48C63.35 16.48 62.14 15.91 61.39 15.44L61.23 15.34L60.21 17.8L60.33 17.87C61.1 18.34 62.73 19.13 65 19.13C67.62 19.13 70.42 18.02 70.42 14.92C70.42 12.14 68.21 11.28 66.44 10.59H66.43Z" fill="white"/>
		<path d="M65.51 43.11H76.98V40.6H69.38C70.42 36.43 76.8 35.51 76.8 30.85C76.8 28.34 75.08 26.5 71.53 26.5C69.26 26.5 67.36 27.17 66.01 27.85L66.81 30.18C68.04 29.63 69.39 29.08 71.04 29.08C72.39 29.08 73.62 29.63 73.62 31.17C73.68 34.6 66.2 34.85 65.52 43.13L65.51 43.11Z" fill="white"/>
		<path d="M99.92 39.61C96.42 39.61 93.54 36.73 93.54 33.23C93.54 29.73 96.42 26.85 99.92 26.85C103.42 26.85 106.3 29.73 106.3 33.23C106.3 36.73 103.42 39.61 99.92 39.61ZM99.92 28.02C97.04 28.02 94.71 30.35 94.71 33.23C94.71 36.11 97.04 38.44 99.92 38.44C102.8 38.44 105.13 36.11 105.13 33.23C105.13 30.35 102.8 28.02 99.92 28.02Z" fill="white"/>
		<path d="M103.54 33.23H100.35V30.04H99.49V34.09H103.54V33.23Z" fill="white"/>
		<path d="M0.0100098 24.22H5.53001C9.58001 24.22 11.42 26.55 11.42 29C11.42 30.66 10.62 32.13 9.15001 32.93V32.99C11.36 33.54 12.71 35.32 12.71 37.53C12.71 40.47 10.5 43.11 6.09001 43.11H0.0100098V24.22ZM5.10001 32.13C7.00001 32.13 8.04001 31.09 8.04001 29.62C8.04001 28.15 7.12001 27.11 5.10001 27.11H3.51001V32.14H5.10001V32.13ZM5.65001 40.29C7.92001 40.29 9.21001 39.43 9.21001 37.53C9.21001 35.94 7.98001 34.95 6.08001 34.95H3.51001V40.29H5.66001H5.65001Z" fill="white"/>
		<path d="M15.28 25.32C15.28 24.15 16.2 23.23 17.37 23.23C18.54 23.23 19.52 24.09 19.52 25.32C19.52 26.42 18.6 27.34 17.37 27.34C16.14 27.34 15.28 26.48 15.28 25.32ZM15.65 29.55H19.08V43.1H15.65V29.55Z" fill="white"/>
		<path d="M23.69 39.7999V32.2599H21.24V29.5599H23.69V26.43L27.12 25.45V29.5599H31.23L30.37 32.2599H27.12V38.9399C27.12 40.2299 27.55 40.66 28.47 40.66C29.27 40.66 30 40.35 30.56 39.99L31.6 42.32C30.62 42.99 28.96 43.36 27.61 43.36C25.16 43.42 23.68 42.07 23.68 39.7999H23.69Z" fill="white"/>
		<path d="M33.44 29.55H36.32L36.69 31.08C37.92 29.85 39.02 29.24 40.43 29.24C41.04 29.24 41.78 29.42 42.33 29.79L41.1 32.67C40.49 32.3 39.93 32.24 39.57 32.24C38.65 32.24 37.91 32.61 36.81 33.59V43.16H33.38V29.55H33.44Z" fill="white"/>
		<path d="M43.6801 25.32C43.6801 24.15 44.6001 23.23 45.7701 23.23C46.9401 23.23 47.8601 24.15 47.8601 25.32C47.8601 26.42 46.9401 27.34 45.7101 27.34C44.4801 27.34 43.6901 26.48 43.6901 25.32H43.6801ZM44.0501 29.55H47.4801V43.1H44.0501V29.55Z" fill="white"/>
		<path d="M54.4101 36.2999L49.5001 29.5499H53.0601L56.2501 33.9699L59.5001 29.5499H63.0601L58.0901 36.2999L63.1201 43.1099H59.5601L56.3101 38.5699L53.0001 43.1099H49.4401L54.4101 36.2999Z" fill="white"/>
		<path d="M87.65 36.67V26.49H85.5L77.34 37.1V39.12H84.7V43.17H87.64V39.12H90.09V36.67H87.64H87.65ZM84.71 34.28V36.61H82.75C82.14 36.61 81.03 36.67 80.66 36.67L84.83 31.03C84.83 31.52 84.71 32.99 84.71 34.28Z" fill="white"/>
	</g>
	<defs>
		<clipPath id="clip0_16_225">
			<rect width="106.3" height="43.35" fill="white"/>
		</clipPath>
	</defs>
</svg>