<svg width="107" height="44" viewBox="0 0 107 44" fill="none" xmlns="http://www.w3.org/2000/svg">
	<g clip-path="url(#clip0_16_338)">
		<path d="M13.21 10.68C13.21 11.64 13.23 12.52 13.25 13.4C12.7 12.58 12.04 11.69 11.21 10.61L3.15002 0H0.0200195V18.85H3.29002V7.64C3.29002 6.66 3.27002 5.83 3.23002 5.1C3.35002 5.26 3.47002 5.43 3.59002 5.6C4.07002 6.26 4.61002 7 5.25002 7.82L13.58 18.79L13.63 18.85H16.48V0H13.21V10.68Z" fill="white"/>
		<path d="M25.95 4.89001C22.03 4.89001 19.29 7.81001 19.29 12C19.29 16.19 22.09 19.13 25.95 19.13C29.81 19.13 32.58 16.13 32.58 12C32.58 7.87001 29.85 4.89001 25.95 4.89001ZM25.95 16.42C23.93 16.42 22.62 14.68 22.62 11.99C22.62 9.30001 23.93 7.59001 25.95 7.59001C27.97 7.59001 29.25 9.28001 29.25 11.99C29.25 14.7 27.98 16.42 25.95 16.42V16.42Z" fill="white"/>
		<path d="M46.3 15.01V5.22998H43.06V14.98C42.52 15.59 41.45 16.29 40.15 16.29C39.18 16.29 38.55 15.9 38.24 15.09C38.07 14.67 38 14.17 38 13.35V5.22998H34.76V13.74C34.76 14.93 34.88 15.72 35.16 16.47C36.09 18.94 38.46 19.13 39.16 19.13C40.66 19.13 42.05 18.59 43.3 17.53L43.74 18.85H46.59L46.53 18.65C46.32 17.92 46.28 16.66 46.28 15.01H46.3Z" fill="white"/>
		<path d="M55.9301 14.59L52.5301 5.22998H49.2001L54.6701 18.94H57.1401L62.5801 5.22998H59.2501L55.9301 14.59Z" fill="white"/>
		<path d="M68.98 4.89001C65.4 4.89001 63 7.75001 63 12C63 15.45 64.79 19.13 69.8 19.13C71.53 19.13 73.17 18.68 74.42 17.87L74.53 17.8L73.53 15.52L73.38 15.61C72.31 16.21 71.27 16.49 70.11 16.49C67.91 16.49 66.43 15.1 66.31 12.92H74.85V12.06C74.85 7.58002 72.66 4.90001 68.98 4.90001V4.89001ZM68.95 7.48001C70.72 7.48001 71.45 9.02002 71.54 10.51H66.27C66.35 9.02002 67.2 7.48001 68.95 7.48001V7.48001Z" fill="white"/>
		<path d="M87.6001 14.93V9.81002C87.6001 6.60002 85.7701 4.90002 82.2901 4.90002C80.4801 4.90002 78.7601 5.35002 77.2001 6.24002L77.0701 6.32002L78.2301 8.54002L78.3701 8.46002C79.4801 7.82002 80.6501 7.50002 81.8401 7.50002C83.0301 7.50002 84.3501 7.90002 84.3501 9.82002V10.23L82.1101 10.31C80.5301 10.38 79.4901 10.59 78.6401 11.03C77.1101 11.8 76.3301 13.06 76.3301 14.77C76.3301 17.35 78.1801 19.15 80.8201 19.15C82.2401 19.15 83.4901 18.66 84.6301 17.64L85.0701 18.87H87.8901L87.8301 18.67C87.6201 17.94 87.5801 16.65 87.5801 14.94L87.6001 14.93ZM84.3601 12.53V15.3C83.4601 16.09 82.5601 16.48 81.6201 16.48C80.3801 16.48 79.6101 15.75 79.6101 14.58C79.6101 13.87 79.9001 13.33 80.4601 13.03C80.9401 12.76 81.6001 12.63 82.5301 12.6L84.3601 12.52V12.53Z" fill="white"/>
		<path d="M102.16 18.65C101.95 17.92 101.91 16.66 101.91 15.01V5.22998H98.67V14.98C98.13 15.59 97.06 16.29 95.76 16.29C94.79 16.29 94.16 15.9 93.85 15.09C93.68 14.67 93.61 14.17 93.61 13.35V5.22998H90.37V13.74C90.37 14.93 90.49 15.72 90.77 16.47C91.7 18.94 94.07 19.13 94.77 19.13C96.27 19.13 97.66 18.59 98.91 17.53L99.35 18.85H102.2L102.14 18.65H102.16Z" fill="white"/>
		<path d="M65.5 42.95H76.97V40.44H69.37C70.41 36.27 76.79 35.35 76.79 30.69C76.79 28.18 75.07 26.34 71.52 26.34C69.25 26.34 67.35 27.01 66 27.69L66.8 30.02C68.03 29.47 69.38 28.92 71.03 28.92C72.38 28.92 73.61 29.47 73.61 31.01C73.67 34.44 66.19 34.69 65.51 42.97L65.5 42.95Z" fill="white"/>
		<path d="M99.9 39.4499C96.4 39.4499 93.52 36.5699 93.52 33.0699C93.52 29.5699 96.4 26.6899 99.9 26.6899C103.4 26.6899 106.28 29.5699 106.28 33.0699C106.28 36.5699 103.4 39.4499 99.9 39.4499ZM99.9 27.8599C97.02 27.8599 94.69 30.1899 94.69 33.0699C94.69 35.9499 97.02 38.2799 99.9 38.2799C102.78 38.2799 105.11 35.9499 105.11 33.0699C105.11 30.1899 102.78 27.8599 99.9 27.8599V27.8599Z" fill="white"/>
		<path d="M103.52 33.07H100.33V29.88H99.47V33.93H103.52V33.07Z" fill="white"/>
		<path d="M0 24.0599H5.52C9.57 24.0599 11.41 26.3899 11.41 28.8399C11.41 30.4999 10.61 31.9699 9.14 32.7699V32.8299C11.35 33.3799 12.7 35.1599 12.7 37.3699C12.7 40.3099 10.49 42.9499 6.08 42.9499H0V24.0599ZM5.09 31.9699C6.99 31.9699 8.03 30.9299 8.03 29.4599C8.03 27.9899 7.11 26.9499 5.09 26.9499H3.5V31.9799H5.09V31.9699ZM5.64 40.1299C7.91 40.1299 9.2 39.2699 9.2 37.3699C9.2 35.7799 7.97 34.7899 6.07 34.7899H3.5V40.1299H5.65H5.64Z" fill="white"/>
		<path d="M15.27 25.1599C15.27 23.9899 16.19 23.0699 17.36 23.0699C18.53 23.0699 19.51 23.9299 19.51 25.1599C19.51 26.2599 18.59 27.1799 17.36 27.1799C16.13 27.1799 15.27 26.3199 15.27 25.1599ZM15.64 29.3899H19.07V42.9399H15.64V29.3899V29.3899Z" fill="white"/>
		<path d="M23.67 39.6399V32.0999H21.22V29.3999H23.67V26.2699L27.1 25.2899V29.3999H31.21L30.35 32.0999H27.1V38.7799C27.1 40.0699 27.53 40.4999 28.45 40.4999C29.25 40.4999 29.98 40.1899 30.54 39.8299L31.58 42.1599C30.6 42.8299 28.94 43.1999 27.59 43.1999C25.14 43.2599 23.66 41.9099 23.66 39.6399H23.67Z" fill="white"/>
		<path d="M33.42 29.4H36.3L36.67 30.93C37.9 29.7 39 29.09 40.41 29.09C41.02 29.09 41.76 29.27 42.31 29.64L41.08 32.52C40.47 32.15 39.91 32.09 39.55 32.09C38.63 32.09 37.89 32.46 36.79 33.44V43.01H33.36V29.4H33.42V29.4Z" fill="white"/>
		<path d="M43.67 25.1599C43.67 23.9899 44.59 23.0699 45.76 23.0699C46.93 23.0699 47.85 23.9899 47.85 25.1599C47.85 26.2599 46.93 27.1799 45.7 27.1799C44.47 27.1799 43.68 26.3199 43.68 25.1599H43.67ZM44.04 29.3899H47.47V42.9399H44.04V29.3899V29.3899Z" fill="white"/>
		<path d="M54.4001 36.1399L49.4901 29.3899H53.0501L56.2401 33.8099L59.4901 29.3899H63.0501L58.0801 36.1399L63.1101 42.9499H59.5501L56.3001 38.4099L52.9901 42.9499H49.4301L54.4001 36.1399V36.1399Z" fill="white"/>
		<path d="M87.64 36.51V26.33H85.49L77.33 36.94V38.96H84.69V43.01H87.63V38.96H90.08V36.51H87.63H87.64ZM84.7 34.12V36.45H82.74C82.13 36.45 81.02 36.51 80.65 36.51L84.82 30.87C84.82 31.36 84.7 32.83 84.7 34.12Z" fill="white"/>
	</g>
	<defs>
		<clipPath id="clip0_16_338">
			<rect width="106.28" height="43.2" fill="white"/>
		</clipPath>
	</defs>
</svg>