<svg width="107" height="44" viewBox="0 0 107 44" fill="none" xmlns="http://www.w3.org/2000/svg">
	<g clip-path="url(#clip0_16_185)">
		<path d="M13.32 10.68C13.32 11.64 13.34 12.5 13.36 13.4C12.81 12.58 12.15 11.68 11.32 10.61L3.26 0H0.130005V18.85H3.39001V7.64C3.39001 6.66 3.37 5.83 3.33 5.1C3.45 5.26 3.57 5.43 3.69 5.6C4.17 6.26 4.71 7 5.35 7.82L13.68 18.79L13.73 18.85H16.58V0H13.31V10.68H13.32Z" fill="white"/>
		<path d="M31.58 15.01V5.22998H28.34V14.98C27.8 15.59 26.73 16.29 25.43 16.29C24.46 16.29 23.83 15.9 23.52 15.09C23.35 14.67 23.28 14.17 23.28 13.35V5.22998H20.04V13.74C20.04 14.93 20.16 15.72 20.44 16.47C21.37 18.94 23.74 19.13 24.44 19.13C25.94 19.13 27.33 18.59 28.58 17.53L29.02 18.85H31.87L31.81 18.65C31.6 17.92 31.56 16.66 31.56 15.01H31.58Z" fill="white"/>
		<path d="M39.97 4.89001C36.39 4.89001 33.99 7.75001 33.99 12C33.99 15.45 35.78 19.13 40.79 19.13C42.52 19.13 44.16 18.68 45.41 17.87L45.52 17.8L44.52 15.52L44.37 15.61C43.3 16.21 42.26 16.49 41.1 16.49C38.9 16.49 37.42 15.1 37.3 12.92H45.84V12.06C45.84 7.58002 43.65 4.90001 39.97 4.90001V4.89001ZM39.94 7.48001C41.71 7.48001 42.44 9.02001 42.53 10.51H37.26C37.34 9.02001 38.19 7.48001 39.94 7.48001Z" fill="white"/>
		<path d="M53.19 14.59L49.79 5.22998H46.46L51.94 18.94H54.4L59.84 5.22998H56.52L53.19 14.59Z" fill="white"/>
		<path d="M66.9 4.89001C62.98 4.89001 60.24 7.81001 60.24 12C60.24 16.19 63.04 19.13 66.9 19.13C70.76 19.13 73.53 16.13 73.53 12C73.53 7.87001 70.8 4.89001 66.9 4.89001ZM66.9 16.42C64.88 16.42 63.57 14.68 63.57 11.99C63.57 9.30001 64.88 7.59001 66.9 7.59001C68.92 7.59001 70.2 9.28001 70.2 11.99C70.2 14.7 68.93 16.42 66.9 16.42Z" fill="white"/>
		<path d="M65.5 43.4201H76.97V40.9101H69.37C70.41 36.7401 76.79 35.8201 76.79 31.1601C76.79 28.6501 75.07 26.8101 71.52 26.8101C69.25 26.8101 67.35 27.4801 66 28.1601L66.8 30.4901C68.03 29.9401 69.38 29.3901 71.03 29.3901C72.38 29.3901 73.61 29.9401 73.61 31.4801C73.67 34.9101 66.19 35.1601 65.51 43.4401L65.5 43.4201Z" fill="white"/>
		<path d="M99.9 39.93C96.4 39.93 93.52 37.05 93.52 33.55C93.52 30.05 96.4 27.17 99.9 27.17C103.4 27.17 106.28 30.05 106.28 33.55C106.28 37.05 103.4 39.93 99.9 39.93ZM99.9 28.34C97.02 28.34 94.69 30.67 94.69 33.55C94.69 36.43 97.02 38.76 99.9 38.76C102.78 38.76 105.11 36.43 105.11 33.55C105.11 30.67 102.78 28.34 99.9 28.34Z" fill="white"/>
		<path d="M103.52 33.5501H100.33V30.3601H99.47V34.4101H103.52V33.5501Z" fill="white"/>
		<path d="M0 24.53H5.52C9.57 24.53 11.41 26.86 11.41 29.31C11.41 30.97 10.61 32.44 9.14 33.24V33.3C11.35 33.85 12.7 35.63 12.7 37.84C12.7 40.78 10.49 43.42 6.08 43.42H0V24.53ZM5.09 32.44C6.99 32.44 8.03 31.4 8.03 29.93C8.03 28.46 7.11 27.42 5.09 27.42H3.5V32.45H5.09V32.44ZM5.64 40.6C7.91 40.6 9.2 39.74 9.2 37.84C9.2 36.25 7.97 35.26 6.07 35.26H3.5V40.6H5.65H5.64Z" fill="white"/>
		<path d="M15.27 25.64C15.27 24.47 16.19 23.55 17.36 23.55C18.53 23.55 19.51 24.41 19.51 25.64C19.51 26.74 18.59 27.66 17.36 27.66C16.13 27.66 15.27 26.8 15.27 25.64ZM15.64 29.8701H19.07V43.42H15.64V29.8701Z" fill="white"/>
		<path d="M23.67 40.11V32.57H21.22V29.87H23.67V26.74L27.1 25.76V29.87H31.21L30.35 32.57H27.1V39.25C27.1 40.54 27.53 40.97 28.45 40.97C29.25 40.97 29.98 40.66 30.54 40.3L31.58 42.63C30.6 43.3 28.94 43.67 27.59 43.67C25.14 43.73 23.66 42.38 23.66 40.11H23.67Z" fill="white"/>
		<path d="M33.42 29.8701H36.3L36.67 31.4001C37.9 30.1701 39 29.5601 40.41 29.5601C41.02 29.5601 41.76 29.7401 42.31 30.1101L41.08 32.9901C40.47 32.6201 39.91 32.5601 39.55 32.5601C38.63 32.5601 37.89 32.9301 36.79 33.9101V43.4801H33.36V29.8701H33.42Z" fill="white"/>
		<path d="M43.67 25.64C43.67 24.47 44.59 23.55 45.76 23.55C46.93 23.55 47.85 24.47 47.85 25.64C47.85 26.74 46.93 27.66 45.7 27.66C44.47 27.66 43.68 26.8 43.68 25.64H43.67ZM44.04 29.8701H47.47V43.42H44.04V29.8701Z" fill="white"/>
		<path d="M54.4001 36.62L49.4901 29.87H53.0501L56.2401 34.29L59.4901 29.87H63.0501L58.0801 36.62L63.1101 43.43H59.5501L56.3001 38.89L52.9901 43.43H49.4301L54.4001 36.62Z" fill="white"/>
		<path d="M87.64 36.98V26.8H85.49L77.33 37.41V39.43H84.69V43.48H87.63V39.43H90.08V36.98H87.63H87.64ZM84.7 34.59V36.92H82.74C82.13 36.92 81.02 36.98 80.65 36.98L84.82 31.34C84.82 31.83 84.7 33.3 84.7 34.59Z" fill="white"/>
	</g>
	<defs>
		<clipPath id="clip0_16_185">
			<rect width="106.28" height="43.67" fill="white"/>
		</clipPath>
	</defs>
</svg>