<svg width="107" height="43" viewBox="0 0 107 43" fill="none" xmlns="http://www.w3.org/2000/svg">
	<g clip-path="url(#clip0_16_38)">
		<path d="M13.21 10.68C13.21 11.64 13.23 12.5 13.25 13.4C12.7 12.58 12.04 11.68 11.21 10.61L3.16002 0H0.0200195V18.85H3.29002V7.64C3.29002 6.66 3.27002 5.83 3.23002 5.1C3.35002 5.26 3.47002 5.43 3.59002 5.6C4.07002 6.26 4.61002 7 5.25002 7.82L13.58 18.79L13.63 18.85H16.48V0H13.21V10.68Z" fill="white"/>
		<path d="M25.95 4.89001C22.03 4.89001 19.29 7.81001 19.29 12C19.29 16.19 22.09 19.13 25.95 19.13C29.81 19.13 32.58 16.13 32.58 12C32.58 7.87001 29.85 4.89001 25.95 4.89001ZM25.95 16.42C23.93 16.42 22.62 14.68 22.62 11.99C22.62 9.30001 23.93 7.59001 25.95 7.59001C27.97 7.59001 29.25 9.28001 29.25 11.99C29.25 14.7 27.98 16.42 25.95 16.42Z" fill="white"/>
		<path d="M39.73 14.59L36.33 5.22998H33L38.47 18.94H40.94L46.38 5.22998H43.05L39.73 14.59Z" fill="white"/>
		<path d="M53.43 4.89001C49.51 4.89001 46.77 7.81001 46.77 12C46.77 16.19 49.57 19.13 53.43 19.13C57.29 19.13 60.06 16.13 60.06 12C60.06 7.87001 57.33 4.89001 53.43 4.89001ZM53.43 16.42C51.41 16.42 50.1 14.68 50.1 11.99C50.1 9.30001 51.41 7.59001 53.43 7.59001C55.45 7.59001 56.73 9.28001 56.73 11.99C56.73 14.7 55.46 16.42 53.43 16.42Z" fill="white"/>
		<path d="M65.5 42.22H76.97V39.71H69.37C70.41 35.54 76.79 34.62 76.79 29.96C76.79 27.45 75.07 25.61 71.52 25.61C69.25 25.61 67.35 26.28 66 26.96L66.8 29.29C68.03 28.74 69.38 28.19 71.03 28.19C72.38 28.19 73.61 28.74 73.61 30.28C73.67 33.71 66.19 33.96 65.51 42.24L65.5 42.22Z" fill="white"/>
		<path d="M99.9 38.72C96.4 38.72 93.52 35.84 93.52 32.34C93.52 28.84 96.4 25.96 99.9 25.96C103.4 25.96 106.28 28.84 106.28 32.34C106.28 35.84 103.4 38.72 99.9 38.72ZM99.9 27.13C97.02 27.13 94.69 29.46 94.69 32.34C94.69 35.22 97.02 37.55 99.9 37.55C102.78 37.55 105.11 35.22 105.11 32.34C105.11 29.46 102.78 27.13 99.9 27.13Z" fill="white"/>
		<path d="M103.52 32.3499H100.33V29.1599H99.47V33.2099H103.52V32.3499Z" fill="white"/>
		<path d="M0 23.33H5.52C9.57 23.33 11.41 25.66 11.41 28.11C11.41 29.77 10.61 31.24 9.14 32.04V32.1C11.35 32.65 12.7 34.43 12.7 36.64C12.7 39.58 10.49 42.22 6.08 42.22H0V23.33ZM5.09 31.24C6.99 31.24 8.03 30.2 8.03 28.73C8.03 27.26 7.11 26.22 5.09 26.22H3.5V31.25H5.09V31.24ZM5.64 39.4C7.91 39.4 9.2 38.54 9.2 36.64C9.2 35.05 7.97 34.06 6.07 34.06H3.5V39.4H5.65H5.64Z" fill="white"/>
		<path d="M15.27 24.43C15.27 23.26 16.19 22.34 17.36 22.34C18.53 22.34 19.51 23.2 19.51 24.43C19.51 25.53 18.59 26.45 17.36 26.45C16.13 26.45 15.27 25.59 15.27 24.43ZM15.64 28.66H19.07V42.21H15.64V28.66Z" fill="white"/>
		<path d="M23.67 38.9099V31.3699H21.22V28.6699H23.67V25.5399L27.1 24.5599V28.6699H31.21L30.35 31.3699H27.1V38.0499C27.1 39.3399 27.53 39.7699 28.45 39.7699C29.25 39.7699 29.98 39.4599 30.54 39.0999L31.58 41.4299C30.6 42.0999 28.94 42.4699 27.59 42.4699C25.14 42.5299 23.66 41.1799 23.66 38.9099H23.67Z" fill="white"/>
		<path d="M33.42 28.67H36.3L36.67 30.2C37.9 28.97 39 28.36 40.41 28.36C41.02 28.36 41.76 28.54 42.31 28.91L41.08 31.79C40.47 31.42 39.91 31.36 39.55 31.36C38.63 31.36 37.89 31.73 36.79 32.71V42.28H33.36V28.67H33.42Z" fill="white"/>
		<path d="M43.67 24.43C43.67 23.26 44.59 22.34 45.76 22.34C46.93 22.34 47.85 23.26 47.85 24.43C47.85 25.53 46.93 26.45 45.7 26.45C44.47 26.45 43.68 25.59 43.68 24.43H43.67ZM44.04 28.66H47.47V42.21H44.04V28.66Z" fill="white"/>
		<path d="M54.4001 35.4099L49.4901 28.6599H53.0501L56.2401 33.0799L59.4901 28.6599H63.0501L58.0801 35.4099L63.1101 42.2199H59.5501L56.3001 37.6799L52.9901 42.2199H49.4301L54.4001 35.4099Z" fill="white"/>
		<path d="M87.64 35.78V25.6H85.49L77.33 36.21V38.23H84.69V42.28H87.63V38.23H90.08V35.78H87.63H87.64ZM84.7 33.39V35.72H82.74C82.13 35.72 81.02 35.78 80.65 35.78L84.82 30.14C84.82 30.63 84.7 32.1 84.7 33.39Z" fill="white"/>
	</g>
	<defs>
		<clipPath id="clip0_16_38">
			<rect width="106.28" height="42.47" fill="white"/>
		</clipPath>
	</defs>
</svg>
