<svg xmlns:xlink="http://www.w3.org/1999/xlink" class="defs-only" xmlns="http://www.w3.org/2000/svg" style="width:996px;height:1200px">
  <svg height="1200">
    <rect width="100%" height="1200" fill="#EEF2F4"/>
    <rect fill="#FFFFFF" width="100%" height="1200" x="259" y="75"/>
    <rect fill="#EEF2F4" width="259" x="100%" y="75" height="1200"/>
    <path fill="#fff" stroke="#C6CDD3" d="M281 115h670v39H281zM281 195h670v39H281zM281 341h670v39H281zM407 700h522v39H407zM407 752h522v39H407z"/>
    <rect fill="#EEF2F4" width="100%" x="259" y="542" height="15"/>
    <rect fill="#effbfe" width="100%" x="281" y="622" height="201"/>
    <rect fill="#fff" width="26" x="100%" y="622" height="1200" transform="translate(-45)"/>
  </svg>
  <svg height="1200">
    <defs>
      <g id="a">
        <path d="M0 0h159v12H0zM279 0h159v12H279z"/>
      </g>
      <g id="b">
        <path d="M0 0h123v8H0zM0 43h123v8H0zM0 86h123v8H0zM0 129h123v8H0zM0 172h123v8H0zM0 215h123v8H0zM0 258h123v8H0z"/>
      </g>
    </defs>
    <use xlink:href="#a" fill="#9EA6AD" opacity=".2" y="30"/>
    <use xlink:href="#b" fill="#9EA6AD" opacity=".2" y="105"/>
  </svg>
  <svg height="1200">
    <defs>
      <g id="c" fill="#ecedef">
        <path d="M281 99h142v6H281zM281 180h142v6H281zM281 283h400v10H281zM281 325h142v6H281zM281 402h400v10H281zM281 436h400v10H281zM281 470h400v10H281zM281 504h400v10H281zM281 580h400v10H281z"/>
      </g>
      <g id="d" fill="#ecedef">
        <path d="M335 642h145v8H335zM298 673h634v1H298z"/>
      </g>
    </defs>
    <use xlink:href="#c" fill="#ecedef"/>
    <use xlink:href="#d" fill="#ecedef"/>
  </svg>
  <rect id="g" width="100%" fill="url(#e)" mask="url(#f)" height="1200"/>
  <linearGradient x1="66.6%" y1="50%" x2="33.3%" y2="50%" id="e">
    <stop stop-color="#000000" stop-opacity="0" offset="0%"/>
    <stop stop-color="#000000" stop-opacity=".07" offset="50%"/>
    <stop stop-color="#000000" stop-opacity="0" offset="100%"/>
  </linearGradient>
  <mask id="f" fill="white">
    <use xlink:href="#a" y="30"/>
    <use xlink:href="#b" y="105"/>
    <use xlink:href="#c"/>
    <use xlink:href="#d"/>
  </mask>
  <animate xlink:href="#g" attributeName="x" from="-100%" to="100%" dur="1s" begin="0s" repeatCount="indefinite"/>
  <svg viewBox="0 0 100% 1200" height="1200">
    <rect fill="#EBF1F4" width="20" height="1200" x="100%" transform="translate(-20)"/>
    <path fill="#EBF1F4" d="M0 0h20v1200H0z"/>
    <path fill="#EDEEF0" d="M288 123h23v23h-23zM288 203h23v23h-23zM288 349h23v23h-23zM921 123h23v23h-23zM921 203h23v23h-23zM921 349h23v23h-23z"/>
    <path fill="#fff" stroke="#C6CDD3" d="M407 700h522v39H407zM407 752h522v39H407z"/>
    <path fill="#EDEEF0" d="M414 708h23v23h-23zM414 761h23v23h-23zM898 708h23v23h-23zM898 761h23v23h-23z"/>
  </svg>
  <svg height="1200">
    <defs>
      <g id="h" fill-rule="evenodd" clip-rule="evenodd">
        <path d="M14 28c7.732 0 14-6.268 14-14S21.732 0 14 0 0 6.268 0 14s6.268 14 14 14z" fill="#828B95"/>
        <path d="M20.605 16.99c0-.668-.862-1.431-2.559-1.876a5.726 5.726 0 0 1-1.62-.747c-.11-.064-.092-.647-.092-.647l-.547-.085c0-.047-.047-.747-.047-.747.654-.223.587-1.537.587-1.537.415.234.686-.806.686-.806.49-1.445-.245-1.357-.245-1.357a9.214 9.214 0 0 0 0-2.66C16.441 3.6 11.516 4.395 12.1 5.35c-1.44-.269-1.111 3.052-1.111 3.052l.312.86c-.613.403-.187.89-.166 1.451.03.829.53.657.53.657.032 1.368.697 1.546.697 1.546.125.859.047.713.047.713l-.592.072a2.42 2.42 0 0 1-.047.582c-.696.315-.846.5-1.537.807-1.337.594-2.79 1.366-3.047 2.405a516.266 516.266 0 0 0-1.026 4.346H21.8l-1.195-4.851z" fill="white"/>
      </g>
      <g id="i" fill-rule="evenodd" clip-rule="evenodd">
        <path d="M45 90c24.853 0 45-20.147 45-45S69.853 0 45 0 0 20.147 0 45s20.147 45 45 45z" fill="#828B95"/>
        <path d="M66.23 54.612c0-2.148-2.77-4.602-8.225-6.031a18.413 18.413 0 0 1-5.207-2.402c-.35-.203-.297-2.08-.297-2.08l-1.757-.27c0-.153-.15-2.402-.15-2.402 2.102-.716 1.885-4.94 1.885-4.94 1.335.75 2.204-2.592 2.204-2.592 1.58-4.644-.786-4.364-.786-4.364a29.608 29.608 0 0 0 0-8.55c-1.051-9.406-16.882-6.852-15.005-3.78-4.626-.865-3.57 9.808-3.57 9.808l1.003 2.763c-1.97 1.296-.6 2.863-.533 4.667.097 2.663 1.705 2.111 1.705 2.111.099 4.396 2.237 4.968 2.237 4.968.402 2.76.151 2.291.151 2.291l-1.902.233a7.77 7.77 0 0 1-.15 1.872c-2.238 1.01-2.72 1.604-4.942 2.592-4.296 1.908-8.964 4.39-9.794 7.732-.83 3.341-3.297 13.967-3.297 13.967h50.273l-3.844-15.593z" fill="white"/>
      </g>
    </defs>
    <use xlink:href="#h" fill="#ecedef" x="294" y="632"/>
    <use xlink:href="#i" fill="#ecedef" x="294" y="700"/>
  </svg>
</svg>
