<svg xmlns="http://www.w3.org/2000/svg" width="42" height="42" viewBox="0 0 42 42">
  <g fill="none" fill-rule="evenodd">
    <circle cx="21" cy="21" r="21" stroke="#FFF" opacity=".4"/>
    <path fill="#FFF" d="M19.1994602,8.99944967 C23.5550981,8.99944967 27.0551704,12.4358053 27.0551704,16.7151739 C27.0551704,20.3177234 24.6893632,24.9318063 19.9577489,30.5574227 C19.922631,30.5991759 19.8841551,30.6379852 19.8427065,30.6734622 C19.4231115,31.0326047 18.7918199,30.9835983 18.4326774,30.5640033 L18.4327084,30.5639767 C13.7067361,25.0425076 11.34375,20.42624 11.34375,16.7151739 C11.34375,12.4358053 14.8438223,8.99944967 19.1994602,8.99944967 Z M19.1994602,20.2212195 C21.1985564,20.2212195 22.7704868,18.6785796 22.7704868,16.7138272 C22.7704868,14.7490412 21.1985221,13.206435 19.1994602,13.206435 C17.1990271,13.206435 15.6284335,14.7503879 15.6284335,16.7138272 C15.6284335,18.6786133 17.2003982,20.2212195 19.1994602,20.2212195 Z M24.0808072,27.7999232 C25.0738261,26.3801766 25.8863139,25.0376186 26.5182707,23.7722492 C27.7918565,23.7603869 28.7897082,22.8138453 28.7897082,21.6103731 C28.7897082,20.9192092 28.460591,20.3127993 27.9391483,19.9195071 C28.0979926,19.1915194 28.1774147,18.4974898 28.1774147,17.8374182 C28.1774147,17.5927389 28.1659724,17.3508156 28.1435822,17.1121329 C30.1275336,17.7522731 31.5441476,19.5181569 31.5441476,21.6112032 C31.5441476,23.7666925 30.1112095,26.5096482 27.2453331,29.8400702 C27.2145371,29.8758582 27.1812451,29.9094201 27.1457071,29.9405042 C26.7300112,30.3041013 26.0982695,30.2618668 25.7346725,29.846171 L25.7346569,29.8461846 C25.1166032,29.1395716 24.5653199,28.4574845 24.0808072,27.7999232 Z"/>
  </g>
</svg>
