<svg xmlns="http://www.w3.org/2000/svg" width="95" height="20" viewBox="0 0 95 20">
  <path fill="#FFF" d="M2.14074305 4.05745124C2.80051016 5.56429441 3.96360475 6.82557798 4.57575979 8.33242117 3.68700135 10.7969469 3.28796696 13.3909496 2.648605 15.9246785 3.34464798 15.0428962 3.95226854 14.0919107 4.74580286 13.2860286 4.65738047 14.7348304 4.18806159 16.1233586 3.95000129 17.55006 4.94078558 16.4048592 5.73658715 15.1056255 6.8089921 14.0273955 9.33696572 11.3128454 12.7219564 9.54481604 16.2135075 8.32817968 17.3425934 7.91318392 18.5510328 7.67409813 19.5939637 7.05126961 17.743895 6.81017471 15.8847575 7.11154335 14.0324216 6.98653117 15.3746283 6.17618438 16.9843693 5.9953632 18.3809897 5.29663444 13.0030943 4.65572379 7.38713854 5.82548057 2.14074305 4.05745124M8.11945737.18653848C12.1120686-.605949423 16.462904 1.17547409 18.6077139 4.60214713 20.4827221 7.46648862 20.6913083 11.3014604 19.1314465 14.3441674 17.7030848 17.2440035 14.7647405 19.3692104 11.5112498 19.7888942 7.91087119 20.3447519 4.10870815 18.7352202 1.96389826 15.853243-.237592675 12.9690335-.627558115 8.86818765.993519144 5.63349759 2.33345853 2.85420902 5.04507865.758022715 8.11945737.18653848M57.6677404 16.1233586C58.2821629 15.1388877 59.5631539 15.0049461 60.6267165 14.9937843 63.7031358 15.0071784 66.7800083 15.1098671 69.8566545 15.1254935 69.3691975 16.293018 69.0583589 17.5453721 68.3829477 18.6280669 67.7526548 19.6100821 66.4648619 19.7531764 65.3879225 19.7576412 62.3180784 19.7598735 59.2457402 19.7710353 56.1736286 19.7487117 56.6316115 18.5276107 56.9716975 17.2395387 57.6677404 16.1233586M60.8668172 8.7699638C61.5764638 7.78973438 62.9300065 7.77433111 64.0341529 7.75423986 67.0019713 7.80111944 69.9743242 7.85023136 72.9421426 7.90604038 72.4864272 9.0847266 72.1644789 10.3370807 71.4797721 11.4153107 70.8630826 12.3595992 69.6251691 12.5113996 68.5799708 12.5225614 65.476345 12.5337233 62.3699981 12.5247938 59.2638779 12.5225614 59.7717399 11.2657426 60.0959554 9.90846755 60.8668172 8.7699638M78.977538.0548292238C80.8094685.0615263043 82.639132.0525968632 84.4710625.0615263043 83.4644077 2.63320535 82.2741062 5.13568125 81.3717441 7.74531042 84.3010195 6.26525556 85.3074477 2.68008493 87.9127344.789052524 90.0144666-.4633016 92.5809833.230962451 94.9003708.0657677897 91.937087 3.47458195 89.3045936 7.40576842 85.1306031 9.49525766 85.677008 10.1270156 86.4934415 10.5578611 86.7405707 11.4081672 87.75176 14.0936966 87.9827921 16.9846032 88.4772773 19.7909033 86.7834215 19.7973772 84.5481489 20.5117325 83.2898301 19.0385979 82.235563 16.9468763 82.725287 14.3707325 81.4735434 12.3368291 81.103983 11.7117682 80.3217851 11.6447974 79.6735806 11.5331794 78.5150205 14.2477295 77.3677968 16.9667443 76.2296417 19.6902239 74.3435242 19.7145566 72.4549125 19.7145566 70.5663008 19.7145566 73.3434443 13.1498547 76.2047021 6.62020083 78.977538.0548292238M63.9820063 1.12636217C64.5624201.217791525 65.7413855.0458997827 66.7435058.0525968632 69.870031.0637586649 72.9965562.0481321433 76.1230814.0637586649 75.6333574 1.29602154 75.3227455 2.62204357 74.5788636 3.73822371 73.9102544 4.72269459 72.5904933 4.77850359 71.5092462 4.79413012 68.4892813 4.78966539 65.4690896 4.80305956 62.4516188 4.78296831 62.9413428 3.55963487 63.2678254 2.25147174 63.9820063 1.12636217M46.9845011.0503645039C50.1813109.0927793501 53.5005517-.172871526 56.5499905.967864582 57.88993 1.45451913 59.0915679 2.51042555 59.3613695 3.93913611 59.8690046 6.42152077 59.0074532 8.9106025 58.159505 11.2210954 56.9172838 14.6276772 54.3324023 17.7217285 50.7819031 18.9316678 46.8641106 20.382702 42.622103 19.9208267 38.5410693 19.7176819 39.3187329 18.1304738 39.6565519 15.5764303 41.8172323 15.3310939 44.4472319 15.2976085 47.2880848 15.8356073 49.709498 14.5229795 51.412196 13.2840195 52.4528597 11.3686544 53.2418595 9.47784524 53.7134455 8.18307628 54.17823 6.69855669 53.6454282 5.35690815 53.0446094 4.43047863 51.7905985 4.37020491 50.8159115 4.10901874 49.7888514 6.54452382 48.7368516 8.96663473 47.6145674 11.359725 47.1656536 12.3285693 46.4083952 13.2750902 45.2951801 13.4983261 43.9529734 13.7483505 42.5880943 13.4804673 41.239086 13.4268906 43.1279243 8.95748206 45.0482774 4.49945856 46.9845011.0503645039M32.2746421 2.03716517C35.9498395.146355995 40.2417267-.112597798 44.309157.130729474 43.8534414 1.28039502 43.5768381 2.52605205 42.8785279 3.56186723 42.0124417 4.62223838 40.4820542 4.28515197 39.2804166 4.51285273 37.6162616 4.81868609 35.6414949 4.82315081 34.4534607 6.2005171 32.8369179 8.01542601 31.7395733 10.2745746 31.2181079 12.6274824 31.0095217 13.6054794 31.0049872 14.9893196 32.1318059 15.4179327 33.8617107 15.9985697 35.7321844 15.9583871 37.5301066 16.1680057 37.053986 17.8958527 35.8342104 19.6571849 33.8798487 19.8580974 31.6964955 19.9875743 29.3226944 20.0277567 27.3433932 18.9830121 25.3890314 17.8199524 25.2779366 15.2549705 25.6112211 13.2704021 26.4342295 8.9664115 28.2117464 4.3231021 32.2746421 2.03716517"/>
</svg>
