<svg xmlns="http://www.w3.org/2000/svg" width="72" height="32" viewBox="0 0 72 32">
  <path fill="#FFF" fill-rule="evenodd" d="M56.0537094 12.6176382C55.1910966 12.2283814 54.2773855 12.0576869 53.337024 12.0224467 52.6612207 11.9971179 51.9876566 12.035258 51.316038 12.1193204 50.35824 12.2392104 49.4209988 12.4458425 48.508756 12.7621228 48.3439349 12.8192045 48.1824909 12.8861608 48.0284621 12.9451514 47.9935156 13.1875376 48.0039775 28.0097294 48.0418974 28.1637582L49.053143 28.1637582C49.3878877 28.1637582 49.7226691 28.1671354 50.0573772 28.1628405 50.3941776 28.1584722 50.7321527 28.1818188 51.0853985 28.1464318L51.0853985 15.0251647C51.1844013 14.9923106 51.2657106 14.9548312 51.3511313 14.9388997 51.6678155 14.8799459 51.9839123 14.8085479 52.3037167 14.7779697 52.8428176 14.7263576 53.3839008 14.7280094 53.9134942 14.867208 55.0211362 15.1583431 55.7426784 15.8402034 55.9967379 16.9719996 56.1705893 17.7464387 56.115967 18.514417 55.8463432 19.2601868 55.5936052 19.9592266 55.1262327 20.4750543 54.4574773 20.8049535 54.1500804 20.9565963 53.8266419 21.0602611 53.4883731 21.111653 53.2460604 21.1484716 53.0015818 21.1710473 52.7353718 21.2026534 52.7373541 22.0770496 52.7303428 22.9532447 52.7404009 23.8374421 52.7980699 23.8414433 52.8322088 23.8459952 52.8663844 23.8458851 53.7100924 23.8427648 54.5423841 23.7524987 55.3494203 23.4956493 57.0237313 22.9627154 58.1993942 21.8943882 58.7806732 20.2231606 59.2258371 18.9432823 59.3136805 17.6245665 59.0348795 16.2992063 58.6715756 14.5720351 57.6636338 13.344136 56.0537094 12.6176382L56.0537094 12.6176382zM43.2301849 21.1076885C43.1178569 21.1273642 43.0104112 21.1518121 42.9015338 21.1644398 42.1467705 21.2519162 41.3931451 21.2890651 40.6440716 21.1121669 39.3757565 20.8127357 38.5430243 19.9298598 38.3212316 18.6463474 38.2221921 18.0734746 38.2198428 17.5016297 38.3537186 16.9340063 38.6361171 15.7368322 39.389669 15.0106281 40.5885684 14.7733811 41.4148765 14.6098081 42.2352379 14.6866757 43.0326198 14.968083 43.0767801 14.9836474 43.1199126 15.0024054 43.162678 15.0214938 43.1838588 15.0309646 43.2032409 15.0445835 43.2301849 15.0602947L43.2301849 21.1076885zM43.2358013 7.16470177L43.2358013 12.3490789C43.180555 12.3323398 43.1428554 12.3207766 43.1050824 12.3094704 42.9368106 12.2590329 42.7712553 12.195307 42.59979 12.1605074 41.5495233 11.9472677 40.4962098 11.9472677 39.4562215 12.2026487 37.4596099 12.6929273 36.1038918 13.902876 35.4686881 15.8729473 35.1029614 17.0072397 35.0742186 18.1687332 35.2882658 19.3364303 35.4352467 20.1381071 35.7353386 20.8787009 36.2206248 21.5380956 36.8562324 22.4016996 37.7013353 22.9825013 38.6972367 23.355533 39.6092959 23.6971055 40.5589079 23.8298802 41.5270944 23.84438 42.2261342 23.8548052 42.9234487 23.8135082 43.6198456 23.7516177 44.4098123 23.6813943 45.1924374 23.5669739 45.9656651 23.3902593 46.0719361 23.3659582 46.1764085 23.3338383 46.2752278 23.3070411L46.2752278 7.15853475C46.1079105 7.11628327 43.3830758 7.12006425 43.2358013 7.16470177L43.2358013 7.16470177zM68.25062 21.1064771C68.1449362 21.1249048 68.0385917 21.1483248 67.9310726 21.1614297 67.1705093 21.2543389 66.4098359 21.2943512 65.6566511 21.1097075 64.7016796 20.8755807 63.9793666 20.3463176 63.5710948 19.4309914 63.4093572 19.0683849 63.3232757 18.6850748 63.2896508 18.2916332 63.243912 17.7559094 63.267589 17.223049 63.4295468 16.705863 63.7708257 15.6163917 64.5221017 14.9772234 65.6306248 14.767728 66.4161498 14.6192789 67.1963521 14.6878871 67.9582368 14.9349719 68.0573865 14.9670919 68.1523514 15.0122066 68.25062 15.0519252L68.25062 21.1064771zM71.2915148 7.17105234C71.2908908 7.16602328 71.2856047 7.1613613 71.2819339 7.15699299 71.2781529 7.15251455 71.2737479 7.14862345 71.2695631 7.14447539 70.9996089 7.10886816 68.3887908 7.1233313 68.2539972 7.16565619L68.2539972 12.3494827C68.1989344 12.3326335 68.1610513 12.3208868 68.1230947 12.3094704 67.954823 12.2590329 67.7892309 12.1954905 67.6178023 12.1604706 66.6335375 11.9593448 65.6479145 11.9658789 64.6626585 12.1586719 62.4128317 12.5988802 60.7703102 14.2376574 60.3229805 16.4834096 60.1503038 17.3503907 60.1314356 18.2208225 60.2617141 19.0929062 60.3873305 19.9337142 60.6679669 20.7188354 61.1554924 21.4222436 61.7962025 22.34649 62.6701582 22.9640369 63.7134136 23.3546887 64.6765343 23.7153864 65.6793736 23.8478306 66.7015216 23.8448939 67.9776189 23.8412231 69.2453834 23.7344748 70.4999329 23.493924 70.7638669 23.443303 71.024901 23.3778518 71.2793276 23.321027 71.2900832 23.2857502 71.299554 23.2691579 71.299554 23.2525657 71.3009122 17.9268609 71.3016463 12.6011194 71.30194 7.27541459 71.30194 7.24061494 71.2956996 7.20574187 71.2915148 7.17105234L71.2915148 7.17105234zM26.7714184 9.75158595L26.7714184 9.53724506C26.6909534 9.57956995 26.6345691 9.60662411 26.5807178 9.63797316 24.5622646 10.8134525 22.5440317 11.9893357 20.5257253 13.165072 19.9070404 13.5254759 19.2869605 13.8834939 18.6703313 14.2473852 18.478199 14.360741 18.2970793 14.3633473 18.1077369 14.2467611 17.8928454 14.1145004 17.6734388 13.9895447 17.4575928 13.8587891 17.2896882 13.7570331 17.1970359 13.6028574 17.1888867 13.4093303 17.1772134 13.1336495 17.1769564 12.8573814 17.1759286 12.5813702 17.1753412 12.4089137 17.2569442 12.2788922 17.4007314 12.1869375 17.4402664 12.1616453 17.4814901 12.1389962 17.5220529 12.1153192 20.3009592 10.4964013 23.0799022 8.87744662 25.8587351 7.25841855 25.9270863 7.21855313 25.9945198 7.17710924 26.0811886 7.12516673 26.0032198 7.0796849 25.949295 7.04635359 25.8937183 7.01603238 21.926448 4.85371863 17.9584802 2.69272638 13.9925681.527879745 13.5856912.305756657 13.1968381.304765527 12.7897042.526962033 8.82371867 2.69166184 4.85564076 4.85254396.888260307 7.01467416.83242669 7.04514221.777731036 7.07777606.696715393 7.1241756.769691876 7.16840933.819138215 7.19946472.869575684 7.22883151 5.31273491 9.81523848 9.75475617 12.4037745 14.2022103 14.9828031 14.4941896 15.152066 14.6055999 15.355688 14.6047556 15.689258 14.5954317 19.4422976 14.597781 23.1953005 14.5969367 26.9483767 14.5969367 26.9953636 14.597157 27.0423505 14.5962025 27.0893006 14.592495 27.2687317 14.5125806 27.405838 14.357891 27.4941219 14.1234706 27.6279243 13.8873983 27.7589002 13.6497475 27.8869028 13.4774745 27.9796651 13.2995485 27.9793714 13.1273856 27.8873433 12.8945437 27.7628648 12.6645282 27.6330268 12.434109 27.5040699 12.2657272 27.4098392 12.1822521 27.2641432 12.1799027 27.0716806 12.179242 27.018857 12.1796825 26.9659601 12.1796825 26.9131366 12.1794622 23.5946889 12.1792787 20.2762778 12.1790951 16.9578301 12.1790951 16.9050066 12.1772597 16.8520729 12.1792787 16.7992861 12.1842343 16.667833 12.1256843 16.5748871 12.011631 16.5134738 11.9754731 16.4940183 11.9404165 16.4724704 11.9049194 16.4518035 9.42471011 15.0079851 6.9444274 13.5641667 4.46425481 12.1202748 3.04407665 11.2935262 1.62408204 10.4664471.203757047 9.63995542.146418382 9.6065507.0866202473 9.57733074.0112944207 9.53728177.00703623558 9.61455315.00226413155 9.66036535.00226413155 9.70617754.00145654472 14.2051337.00119958527 18.7041265-.0000117949809 23.2030459-.0000852119659 23.4214982.0631268121 23.6186228.178721855 23.8015779.278495538 23.959608.41773085 24.0715322.577522918 24.165616 2.44895857 25.2672379 4.31921956 26.3708053 6.18988434 27.4736753 8.39426602 28.7733027 10.5993452 30.0717922 12.8025889 31.3732918 13.1997381 31.6079325 13.5877101 31.6105388 13.9814454 31.3702083 14.2368998 31.2142706 14.4966124 31.0653076 14.7544161 30.9132243 18.5661893 28.6652696 22.3774852 26.4165441 26.1903596 24.1704983 26.5795798 23.941217 26.7732538 23.6154291 26.7729968 23.1603173 26.7703538 18.6907279 26.7714184 14.2211753 26.7714184 9.75158595L26.7714184 9.75158595z"/>
</svg>
