<svg xmlns="http://www.w3.org/2000/svg" width="47" height="1075" viewBox="0 0 47 1075"><g fill="none" fill-rule="evenodd"><path fill="#7BD500" d="M28.7 1065.058c-.077-.077-.203-.077-.28 0l-6.37 6.37-2.484-2.485c-.06-.06-.155-.06-.214 0l-1.308 1.308c-.06.06-.06.156 0 .215l3.9 3.9c.058.058.155.058.213 0l.033-.033 7.752-7.752c.077-.077.077-.203 0-.28l-1.242-1.242z"/><path fill="#2FC6F6" d="M37.957 1014.803l2.53-8.136c.22-.708.034-1.475-.488-2.014-.523-.54-1.303-.767-2.046-.598-.742.17-1.336.71-1.556 1.416l-2.168 6.986c-6.738-3.406-14.772-3.398-21.503.022l-2.178-7.007c-.342-1.092-1.534-1.71-2.663-1.38-1.13.33-1.768 1.483-1.427 2.577l2.54 8.17c-5.706 4.416-9.02 11.113-9 18.188 0 12.77 10.517 9.635 23.5 9.635s23.5 3.134 23.5-9.635c.023-7.094-3.31-13.807-9.043-18.222zM23.48 1031.29c-9.27 0-16.785.93-16.785-2.873 0-3.805 7.516-6.893 16.784-6.893 9.266 0 16.793 3.085 16.793 6.893 0 3.807-7.516 2.873-16.794 2.873zm-7.678-6.917c-1.323.235-2.23 1.426-2.068 2.72.162 1.292 1.335 2.24 2.677 2.162 1.344-.078 2.392-1.155 2.392-2.458-.15-1.465-1.485-2.544-3-2.424zm13.282 2.725c.164 1.293 1.34 2.24 2.682 2.16 1.343-.08 2.39-1.158 2.39-2.46-.15-1.47-1.492-2.55-3.01-2.425-1.324.24-2.227 1.432-2.062 2.725z"/><path fill="#525C69" d="M27.062 972l1.928 1.93-6.917 6.915-1.93-1.93 6.92-6.915zm-8.055 9.723c-.02.074.002.15.054.205.055.054.132.075.205.054l2.287-.616-1.93-1.93-.615 2.287z"/><path fill="#A1A1A1" d="M27.22 940.58c.196 0 .384-.076.522-.21.138-.135.216-.318.215-.508v-1.076c0-.395-.33-.716-.737-.716s-.737.32-.737.716v1.076c0 .19.077.373.216.507.137.134.325.21.52.21zm-7.434.073c.43 0 .78-.34.78-.76v-1.134c0-.42-.35-.76-.78-.76-.43 0-.78.34-.78.76v1.134c0 .2.08.394.228.536.146.143.345.223.552.223zm10.25-1.07h-1.223v.515c0 .855-.713 1.55-1.593 1.55s-1.593-.695-1.593-1.55v-.516H21.38v.516c0 .855-.714 1.55-1.594 1.55-.88 0-1.593-.695-1.593-1.55v-.516H16.97c-.55 0-1.075.222-1.448.614s-.56.918-.516 1.45v10.322c0 .57.476 1.032 1.063 1.032h14.868c.586 0 1.062-.462 1.062-1.032v-10.32c.02-1.09-.845-2-1.963-2.066zM30 951H17v-7h13v7zm-9.33-3.36c-.425.358-.803.766-1.123 1.215-.185.294-.3.625-.34.968h3.5v-.9h-1.983c.058-.097.126-.187.204-.27.083-.093.283-.28.6-.56.233-.2.45-.415.652-.646.164-.195.3-.413.4-.646.084-.206.127-.427.126-.65.01-.38-.152-.747-.44-1.005-.335-.283-.77-.428-1.212-.403-.42-.014-.83.108-1.168.348-.343.29-.545.708-.558 1.15l.99.097c-.006-.22.07-.436.21-.608.284-.242.706-.245.993-.01.13.136.194.316.182.5-.008.213-.082.42-.213.592-.25.3-.523.58-.82.834v-.005zm5 2.183h.965v-1.02h.648v-.847h-.648v-3.21h-.838l-2.26 3.214v.85h2.133v1.017-.004zm-1.197-1.87l1.197-1.73v1.733h-1.197v-.004z"/><path fill="#525C69" d="M31.212 914.448c-.796-1.108-1.74-2.1-2.805-2.952l.99-.988c.245-.244.245-.64 0-.884l-.442-.442c-.246-.243-.64-.243-.886 0l-1.265 1.26c-.962-.53-2.04-.82-3.138-.84-4.17 0-7.41 4.648-7.545 4.846-.163.237-.163.55 0 .786.812 1.13 1.778 2.14 2.87 3.002l-1.227 1.224c-.244.244-.244.64 0 .883l.443.442c.245.243.64.243.886 0l1.51-1.507c.943.51 1.993.784 3.063.803 4.17 0 7.41-4.647 7.545-4.845.163-.237.163-.55 0-.787zm-13.324.392c.784-.996 3.118-3.645 5.78-3.645.67.01 1.33.16 1.94.443l-5.464 5.448c-.84-.655-1.598-1.41-2.256-2.246zm5.78 3.647c-.642-.01-1.274-.148-1.86-.407l5.45-5.435c.812.644 1.546 1.38 2.188 2.196-.786.997-3.126 3.647-5.78 3.647z" opacity=".28"/><path fill="#FFF" d="M21.414 882.106h2.636c.21 0 .375-.4.368-.89l-.003-.206c-.006-.49-.183-.89-.393-.89h-2.636c-.21 0-.375.4-.368.89l.003.206c.008.49.185.89.394.89zm.287 4.004h4.71c.373 0 .678-.402.677-.893v-.206c0-.49-.307-.89-.68-.89h-4.71c-.373 0-.68.4-.678.89v.207c0 .49.307.893.68.893zM32.02 877l-.912-.912c-.118-.117-.31-.117-.428 0l-3.432 3.452c-.118.118-.118.31 0 .428l.91.91c.12.118.31.118.43 0l3.43-3.45c.12-.12.12-.31 0-.428zm-5.527 3.274l-.428 1.588c-.013.052 0 .105.037.142.038.038.092.052.143.038l1.586-.428-1.337-1.34zm2.576 7.45c0 .23-.19.417-.418.417h-9.29c-.23 0-.42-.187-.42-.417v-9.207c0-.228.19-.416.42-.416h5.68l1.983-1.984h-8.688c-.736 0-1.337.6-1.337 1.337v11.307c0 .736.6 1.337 1.337 1.337h11.29c.736 0 1.338-.6 1.338-1.337v-6.736l-1.896 1.895v3.803z"/><path fill="#468EE5" d="M26.063 853.824c.94 0 1.71-.77 1.71-1.71v-5.405c0-.94-.77-1.71-1.71-1.71H16.71c-.94 0-1.71.77-1.71 1.71v5.4c0 .94.77 1.71 1.71 1.71h1.267v3c0 .305.27.296.832-.18.328-.275 1.555-1.683 2.536-2.82h4.717v.004zm4.228-5.136h-.96v4.19c0 1.382-1.13 2.515-2.515 2.515h-5.028l-1.772 1.85c.265.17.584.273.922.273h4.717c.98 1.138 2.213 2.546 2.537 2.82.567.477.833.48.833.18v-3h1.268c.94 0 1.71-.77 1.71-1.71v-5.41c.004-.94-.765-1.708-1.71-1.708zm.71-27.16c0-.13-.064-.252-.172-.33l-3.053-2.928c-.128-.09-.297-.105-.44-.035-.14.07-.23.21-.23.365v1.648h-4.594c-.23 0-.42.183-.42.41v1.743c0 .227.19.41.42.41h4.596v1.648c0 .154.09.295.23.365.142.07.31.056.44-.035l3.052-2.93c.108-.076.172-.2.172-.33zm-9.965 3.057c-.495-.002-.99-.004-1.486.002-.137.002-.208-.04-.244-.163-.073-.242-.173-.477-.232-.72-.267-1.144-.288-2.3-.167-3.458.06-.575.173-1.144.4-1.687.047-.11.106-.156.235-.156.49.008.98.004 1.47.002.684-.002 1.085-.392 1.087-1.06v-1.137c0-.392.005-.782 0-1.172-.007-.63-.417-1.03-1.065-1.033-.498-.004-.99.008-1.488-.004-.46-.012-.853.14-1.198.426-.562.467-.925 1.07-1.224 1.71-.623 1.32-.943 2.722-1.07 4.167-.174 1.954.058 3.86.717 5.71.296.835.68 1.626 1.294 2.292.422.46.923.728 1.584.692.453-.025.91-.002 1.364-.004.673-.004 1.085-.4 1.087-1.05.003-.774 0-1.55 0-2.323-.005-.635-.415-1.033-1.065-1.035zm-4.195-37.472l5.997 4.814c.136.11.273.18.443.18h.272c.17-.035.307-.07.443-.18l5.997-4.814c.103-.072.17-.18.24-.29v3.186h1.67v-4.092c0-1.05-.82-1.918-1.807-1.918h-13.29c-.987 0-1.805.87-1.805 1.918v8.87c0 1.05.818 1.917 1.806 1.917h6.78v-1.773h-6.37c-.308 0-.546-.254-.546-.58v-7.492c.034.108.102.18.17.253zm11.653-1.34l-5.077 4.09-5.077-4.09h10.153zm5.622 9.557l-2.794-2.932c-.1-.11-.27-.11-.408-.036-.136.072-.204.217-.204.362v1.665h-4.225c-.205 0-.375.18-.375.397v1.737c0 .218.17.398.375.398h4.225v1.666c0 .144.068.29.204.362.137.072.273.072.41-.037l2.793-2.932c.103-.07.17-.216.17-.324 0-.11-.067-.254-.17-.326z"/><path fill="#FFF" d="M28.967 755H18.033c-.568 0-1.033.465-1.033 1.033v6.97c0 .57.465 1.034 1.033 1.034h5.234l2.753 2.75c.17.172.45.172.622 0v-2.75h2.325c.568 0 1.033-.465 1.033-1.033v-6.97c0-.57-.465-1.034-1.033-1.034zM27.5 725.085l.7-2.323c.06-.202.008-.422-.136-.576-.145-.153-.36-.218-.566-.17-.205.048-.37.202-.43.404l-.6 1.995c-1.864-.973-4.086-.97-5.948.006l-.602-2c-.094-.312-.424-.49-.736-.395-.313.095-.49.424-.395.737l.703 2.333c-1.58 1.26-2.495 3.174-2.49 5.195 0 3.646 2.91 2.75 6.5 2.75s6.5.896 6.5-2.75c.006-2.026-.915-3.944-2.5-5.205zm-4.006 4.71c-2.563 0-4.642.265-4.642-.822 0-1.086 2.08-1.968 4.642-1.968 2.563 0 4.645.88 4.645 1.968s-2.08.82-4.646.82zm-2.123-1.976c-.365.065-.616.406-.57.775.043.37.368.64.74.618.37-.022.66-.33.66-.702-.04-.418-.41-.726-.83-.69zm3.674.777c.046.37.37.64.742.617.372-.023.66-.33.66-.703-.04-.42-.41-.727-.832-.69-.365.067-.615.408-.57.777zM21.35 696.175c.758 0 .938-.437.403-.97l-1.063-1.066c.15-.212.314-.41.498-.59.064-.06.13-.12.197-.176.078-.068.16-.13.243-.194.073-.052.147-.107.22-.157.126-.08.253-.154.384-.22.06-.03.118-.055.178-.083.138-.063.28-.118.426-.168.03-.008.056-.02.084-.028.178-.055.358-.094.542-.124.047-.01.095-.016.142-.02.19-.03.384-.046.582-.046h.017c.14 0 .276.008.413.02.068.008.132.022.196.03.08.013.156.022.23.037.056.013.11.028.165.04.086.02.174.043.26.07.04.01.077.027.115.04.1.036.202.07.3.113.495.213.953.52 1.347.913.42.42.744.914.96 1.466.238.6.913.894 1.514.658.6-.236.896-.913.66-1.512-.335-.853-.835-1.615-1.484-2.264-.59-.59-1.277-1.05-2.018-1.378-.01-.005-.02-.012-.03-.016l-.024-.01c-.167-.07-.338-.134-.51-.19-.042-.015-.08-.033-.123-.045-.164-.052-.33-.093-.497-.13-.053-.012-.104-.03-.157-.04-.166-.033-.335-.056-.504-.077-.053-.006-.105-.02-.16-.024-.22-.022-.447-.034-.673-.034l-.04.003c-.188 0-.37.01-.552.027-.063.004-.126.012-.19.02-.14.017-.278.037-.415.062-.06.01-.122.02-.183.034-.173.036-.345.08-.513.13l-.05.01c-.197.062-.39.133-.58.21l-.056.024c-.18.076-.356.16-.527.25l-.035.017c-.776.416-1.468.982-2.03 1.678l-1.04-1.043c-.534-.533-.972-.353-.972.403v2.977c0 .757.618 1.373 1.373 1.373h2.978zM29.073 698h-2.978c-.755 0-.935.436-.402.97l1.065 1.066c-.15.208-.313.405-.497.583-.065.063-.133.124-.202.182-.076.067-.154.128-.233.186-.078.057-.157.116-.24.168-.12.077-.243.15-.37.213l-.18.085c-.137.062-.278.116-.42.164-.03.01-.06.022-.09.03-.176.056-.357.094-.542.125l-.142.02c-.19.026-.382.042-.577.042-.146 0-.29-.005-.435-.02-.06-.006-.122-.018-.182-.027-.082-.01-.165-.022-.248-.038-.05-.008-.102-.027-.152-.038-.09-.023-.18-.043-.27-.07-.038-.013-.076-.03-.116-.04-.1-.036-.197-.072-.294-.114-.497-.212-.955-.518-1.348-.91-.424-.425-.746-.918-.963-1.467-.235-.6-.914-.895-1.514-.66-.598.236-.896.914-.658 1.515.335.848.833 1.61 1.485 2.26.59.592 1.276 1.053 2.018 1.38.01.005.02.012.027.014.008.006.018.007.024.01.17.076.346.14.523.197.037.012.07.026.11.04.168.052.342.094.515.134.046.01.09.024.138.034.175.037.355.06.535.08.043.008.084.018.128.022.223.02.447.035.675.035.014 0 .024-.003.036-.003.19 0 .376-.01.56-.028l.184-.02c.142-.017.283-.037.423-.063.06-.008.116-.02.175-.032.178-.036.356-.08.53-.133.01-.002.02-.006.033-.007.2-.06.398-.133.59-.21l.044-.02c.184-.076.363-.162.537-.255l.03-.015c.78-.417 1.47-.983 2.03-1.68l1.043 1.042c.535.535.97.353.97-.4v-2.977c0-.755-.617-1.373-1.37-1.373zM30.883 662.346l-1.105-1.105c-.16-.16-.352-.24-.573-.24-.22 0-.412.08-.572.24l-6.5 6.5-2.642-2.64c-.16-.162-.35-.242-.57-.242-.222 0-.413.08-.574.24l-1.105 1.106c-.16.16-.24.35-.24.572 0 .22.08.412.24.573l4.32 4.318c.16.16.352.24.573.24.22 0 .412-.08.573-.24l8.177-8.177c.16-.16.24-.35.24-.57 0-.222-.08-.413-.24-.574zM25.39 628.16c0-1.4-.81-2.16-2.235-2.16-1.4 0-2.21.76-2.21 2.16 0 1.4.81 2.212 2.21 2.212 1.425 0 2.235-.81 2.235-2.21zM27 643.52v-1.94l-1.253-.172c-.368-.05-.393-.1-.393-.492v-8.303H20.27l-.27 1.99 1.326.466c.246.073.32.244.32.515v5.33c0 .37-.05.443-.393.493l-1.253.17v1.942h7z"/><path fill="#69A3E9" d="M25.104 604.753l2.7-2.7-1.35-1.352-2.7 2.702-2.702-2.7-1.35 1.35 2.7 2.7-2.7 2.703 1.35 1.35 2.7-2.7 2.703 2.7 1.35-1.35"/><path fill="#525C69" d="M28.132 573.486l-1.86 1.858c-1.025 1.027-2.69 1.027-3.715 0-.162-.16-.288-.342-.4-.53l.865-.863c.04-.04.09-.064.14-.092.06.204.164.397.324.557.513.513 1.346.512 1.858 0l1.858-1.858c.513-.513.513-1.346 0-1.858-.512-.514-1.345-.514-1.858 0l-.66.66c-.537-.21-1.114-.265-1.677-.182l1.408-1.408c1.027-1.027 2.69-1.027 3.717 0 1.026 1.026 1.026 2.69 0 3.716zm-4.914 3.056l-.66.66c-.513.513-1.347.513-1.86 0-.512-.512-.512-1.345 0-1.858l1.86-1.858c.512-.512 1.345-.512 1.857 0 .16.16.265.353.325.557.05-.028.1-.05.14-.092l.863-.863c-.11-.188-.237-.368-.4-.53-1.025-1.026-2.69-1.026-3.715 0l-1.858 1.858c-1.027 1.027-1.027 2.69 0 3.717 1.026 1.026 2.69 1.026 3.716 0l1.41-1.408c-.564.083-1.142.026-1.678-.182z"/><path fill="#468EE5" d="M25.787 544.4c1 0 1.82-.82 1.82-1.82v-5.76c0-1-.82-1.82-1.82-1.82H15.82c-1 0-1.82.82-1.82 1.82v5.755c0 1.002.82 1.82 1.82 1.82h1.352v3.197c0 .326.287.316.886-.192.35-.292 1.658-1.792 2.703-3.004h5.027v.005zm4.504-5.47h-1.024v4.465c0 1.47-1.203 2.678-2.68 2.678H21.23l-1.888 1.97c.283.18.623.292.983.292h5.026c1.045 1.212 2.358 2.712 2.703 3.004.604.507.887.51.887.19v-3.195h1.35c1.002 0 1.822-.82 1.822-1.82v-5.765c.004-1.002-.815-1.82-1.82-1.82zm.646-33.93H16.028c-1.147.036-2.05.908-2.026 1.958v9.084c-.048 1.025.81 1.896 1.93 1.958h15.04c1.148-.036 2.05-.908 2.028-1.957v-9.05c.008-1.062-.903-1.942-2.064-1.993zm-1.796 1.808l-5.693 4.173-5.693-4.172h11.39-.004zm1.987 8.79c.007.153-.055.302-.17.413-.115.112-.274.176-.442.18H16.46c-.163-.008-.317-.074-.427-.185-.11-.11-.166-.258-.156-.407V507.955c.066.082.143.156.23.22l6.727 4.913c.137.113.313.18.497.185h.307c.18-.024.35-.087.497-.185l6.727-4.912c.11-.082.2-.184.267-.298v7.72zm-3.795-32.15c-.534-.557-1.2-.557-1.732 0-.405.423-.708.56-1.106.99-.11.12-.2.144-.334.065-.262-.15-.54-.273-.793-.438-1.174-.78-2.158-1.78-3.03-2.908-.43-.56-.816-1.16-1.085-1.835-.054-.137-.044-.226.062-.338.405-.412.54-.563.94-.987.554-.59.554-1.278-.004-1.87-.317-.338-.623-.804-.88-1.17-.26-.366-.46-.802-.79-1.143-.536-.55-1.203-.55-1.734.004-.408.424-.8.858-1.215 1.275-.383.384-.577.854-.618 1.403-.065.894.143 1.738.435 2.56.6 1.702 1.512 3.214 2.618 4.6 1.494 1.874 3.277 3.356 5.363 4.426.94.48 1.913.85 2.972.912.728.043 1.36-.15 1.868-.75.347-.41.74-.783 1.106-1.174.545-.582.548-1.286.007-1.86-.646-.686-1.398-1.08-2.048-1.763zm-.276-3.083l.15-.028c.33-.06.538-.406.446-.744-.262-.964-.75-1.836-1.43-2.556-.726-.766-1.61-1.296-2.588-1.558-.324-.087-.647.142-.694.49l-.02.162c-.04.3.14.58.42.657.747.203 1.426.61 1.983 1.198.522.552.898 1.223 1.1 1.963.08.288.353.465.633.415zm1.442-5.665c-1.31-1.38-2.932-2.303-4.725-2.688-.316-.068-.62.162-.664.5l-.023.16c-.04.31.154.598.444.66 1.545.337 2.942 1.133 4.07 2.32 1.062 1.12 1.798 2.505 2.144 4.03.07.306.348.503.64.45l.15-.026c.32-.058.526-.39.45-.725-.4-1.77-1.253-3.377-2.486-4.68z"/><path fill="#FFF" d="M30.336 444.63c0-.884-.747-1.63-1.63-1.63H16.63c-.884 0-1.63.746-1.63 1.63v8.277c0 .882.746 1.63 1.63 1.63h1.356c.203 0 .34.134.34.338v2.036c0 .272.338.408.61.204l2.24-2.443c.067-.066.135-.134.27-.134h2.443v-2.918h-5.7c-.204 0-.34-.136-.34-.34v-1.357c0-.202.136-.338.34-.338h12.215v-4.953h-.07zm-2.715 2.577c0 .204-.134.34-.338.34h-9.16c-.204 0-.34-.136-.34-.34v-1.357c0-.204.136-.34.34-.34h9.16c.204 0 .34.136.34.34v1.357zm6.244 6.582l-2.714-2.647c-.068-.068-.27-.068-.407 0-.136.068-.204.203-.204.34v1.492h-4.072c-.204 0-.34.136-.34.34v1.56c0 .204.136.34.34.34h4.07v1.492c0 .136.07.272.205.34.136.067.27.067.407 0l2.714-2.647c.068-.068.136-.204.136-.27 0-.137-.068-.273-.136-.34zM29.444 411H17.412c-.87 0-1.605.735-1.605 1.604v4.88h12.166c.2 0 .334.134.334.334v1.337c.067.2-.134.334-.334.334h-5.08v2.873h1.805c.133 0 .2.067.267.134l2.206 2.406c.2.2.602.067.602-.2v-2.005c0-.2.134-.335.335-.335h1.403c.87 0 1.605-.735 1.605-1.604v-8.156c-.134-.87-.803-1.604-1.67-1.604zm-1.137 4.077c.067.2-.134.335-.334.335h-9.158c-.2 0-.334-.134-.334-.335v-1.336c0-.2.135-.334.335-.334h9.158c.2 0 .334.134.334.335v1.337zm-10.36 3.677c-.067-.067-.268-.067-.402 0-.133.067-.2.2-.2.334v1.47h-4.01c-.2 0-.335.134-.335.335v1.537c0 .2.134.334.334.334h4.01v1.47c0 .135.068.268.2.335.135.066.27.066.402 0l2.674-2.608c.067-.067.134-.2.134-.267 0-.134-.067-.2-.134-.267l-2.674-2.674zm9.71-32.58h-9.532c-.19 0-.34-.134-.34-.303v-1.245c0-.17.15-.304.34-.304h9.53c.19 0 .34.136.34.305v1.246c.038.17-.15.304-.34.304m0 3.715h-9.53c-.19 0-.34-.136-.34-.305v-1.246c0-.17.15-.304.34-.304h9.53c.19 0 .34.134.34.303v1.245c.038.17-.15.304-.34.304m1.447-7.89H16.646c-.898 0-1.646.674-1.646 1.482v7.58c0 .81.748 1.482 1.646 1.482h7.556c.112 0 .187.034.262.102l2.32 2.257c.224.202.598.067.598-.202v-1.852c0-.17.15-.304.336-.304h1.422c.898 0 1.646-.673 1.646-1.482v-7.58C30.748 382.674 30 382 29.102 382m-12.21-32c-1.035 0-1.892.882-1.892 1.948v10.104c0 1.066.857 1.948 1.893 1.948h13.214c1.036 0 1.893-.882 1.893-1.948v-10.104c0-1.066-.857-1.948-1.893-1.948H16.893zM30 361.435c0 .318-.24.565-.55.565h-11.9c-.31 0-.55-.247-.55-.565v-8.87c0-.318.24-.565.55-.565h11.9c.31 0 .55.247.55.565v8.87zM27.56 358h-8.12c-.22 0-.44.197-.44.46v1.08c0 .23.188.46.44.46h8.12c.22 0 .44-.197.44-.46v-1.08c-.03-.23-.22-.46-.44-.46zm0-4h-8.12c-.22 0-.44.197-.44.46v1.08c0 .23.188.46.44.46h8.12c.22 0 .44-.197.44-.46v-1.08c-.03-.263-.22-.46-.44-.46zm-15.526-30.205h1.673v7.173h1.536v-8.652H12v1.48h.034zm8.16 1.576c0-2.154 1.843-3.89 4.13-3.89 2.22 0 4.063 1.672 4.13 3.763h1.537c-.067-2.895-2.593-5.243-5.7-5.243-3.14 0-5.7 2.412-5.7 5.37 0 2.96 2.56 5.373 5.7 5.373h11.676v-1.448H24.29c-2.253-.032-4.097-1.77-4.097-3.924zm-6.863-3.762h2.596V331h1.536v-10.84h-4.13v1.448zm9.048 3.763c0-.996.888-1.832 1.946-1.832 1.025 0 1.878.74 1.946 1.705h1.537c-.07-1.77-1.605-3.152-3.483-3.152-1.91 0-3.482 1.48-3.482 3.28 0 1.803 1.57 3.282 3.482 3.282H36v-1.447H24.324c-1.058 0-1.946-.837-1.946-1.834zm8.46-38.37H16.162c-.616 0-1.163.49-1.163 1.11v3.818c0 .587.513 1.11 1.163 1.11h14.674c.616 0 1.163-.49 1.163-1.11v-3.818c0-.62-.513-1.11-1.163-1.11zm-.514 4.047c0 .195-.17.36-.376.36h-12.86c-.207 0-.378-.165-.378-.36v-2.09c0-.195.17-.358.377-.358h12.86c.206 0 .377.162.377.358v2.09zm.513 3.916H16.163c-.616 0-1.163.49-1.163 1.11v3.817c0 .588.513 1.11 1.163 1.11h14.674c.616 0 1.163-.49 1.163-1.11v-3.818c0-.62-.513-1.11-1.163-1.11zm-.513 4.046c0 .195-.17.358-.376.358h-12.86c-.207 0-.378-.163-.378-.36v-2.087c0-.195.17-.358.377-.358h12.86c.206 0 .377.163.377.36v2.087zM30.197 257H17.173c-.97 0-1.77.81-1.77 1.79v5.676h1.636v-4.763c.066.067.1.135.2.202l5.877 4.494c.133.1.267.168.434.168h.268c.167-.034.3-.068.434-.17l5.878-4.493c.1-.067.167-.168.234-.27v7.06c0 .305-.234.542-.535.542h-6.08v1.655h6.48c.97 0 1.77-.81 1.77-1.79v-8.278c-.033-1.013-.835-1.824-1.803-1.824zm-6.546 5.473l-4.975-3.818h9.952l-4.976 3.818zm-1.802 5.1l-2.74-2.735c-.1-.1-.266-.1-.4-.034-.133.068-.2.203-.2.338v1.554h-4.14c-.2 0-.368.17-.368.372v1.62c0 .204.167.373.367.373h4.14v1.555c0 .135.068.27.202.338.132.067.266.067.4-.034l2.738-2.737c.1-.068.167-.203.167-.304 0-.137-.067-.238-.167-.306zm-5.13-38.668l5.596 4.494c.128.1.255.168.414.168h.255c.16-.034.287-.068.414-.17l5.597-4.493c.095-.067.16-.168.223-.27v2.973h1.558v-3.817c0-.98-.763-1.79-1.686-1.79H16.686c-.923 0-1.686.81-1.686 1.79v8.278c0 .98.763 1.79 1.686 1.79h6.328v-1.655h-5.947c-.286 0-.51-.237-.51-.54v-6.994c.033.1.097.168.16.235zm10.876-1.25l-4.74 3.818-4.737-3.818h9.477zm5.247 8.92l-2.607-2.737c-.095-.1-.254-.1-.38-.034-.13.068-.192.203-.192.338v1.554h-3.943c-.19 0-.35.17-.35.372v1.62c0 .204.16.373.35.373h3.944v1.555c0 .135.064.27.192.338.127.067.254.067.38-.034l2.61-2.737c.094-.068.158-.203.158-.304 0-.103-.064-.238-.16-.306zm-4.008-29.872c0 .284-.232.504-.53.504h-9.915c-.298 0-.53-.22-.53-.504v-9.406c0-.284.232-.504.53-.504h6.83l1.89-1.793h-9.35c-.96 0-1.757.755-1.757 1.667v10.666c0 .912.796 1.667 1.757 1.667h11.24c.963 0 1.76-.755 1.76-1.667v-4.122l-1.892 1.794v1.7h-.033zm2.985-9.406l-.863-.818c-.232-.222-.596-.222-.795 0l-6.003 5.662-2.686-2.55c-.23-.22-.596-.22-.795 0l-.862.82c-.232.22-.232.566 0 .754l3.98 3.776c.132.125.33.188.53.157.1-.033.2-.064.298-.158l7.263-6.89c.166-.19.166-.535-.066-.755zm-8.664-26.965l-4.276-4.218c-.18-.13-.417-.15-.615-.05-.198.1-.323.303-.323.525v2.372h-2.35c-.326 0-.59.264-.59.59v2.51c0 .327.264.59.59.59h2.35v2.374c0 .222.124.425.322.525.198.102.436.082.615-.05l4.276-4.217c.152-.11.24-.288.24-.475 0-.188-.088-.365-.24-.476zm1.074.95l4.276 4.22c.18.13.417.15.615.05.198-.1.323-.304.323-.526v-2.373h2.35c.327 0 .59-.264.59-.59v-2.51c0-.327-.263-.59-.59-.59h-2.35v-2.374c0-.223-.124-.426-.322-.526-.198-.1-.436-.08-.615.05l-4.276 4.218c-.15.11-.24.288-.24.476 0 .187.09.364.24.475zm-.21-32.3c.092.093.225.137.356.116l4.244-.03c.155-.023.284-.13.333-.28.048-.15.01-.313-.102-.424l-1.185-1.185 3.215-3.215c.163-.163.163-.426 0-.59l-1.255-1.253c-.162-.163-.426-.163-.59 0l-3.214 3.214-1.187-1.185c-.11-.11-.274-.15-.424-.1-.15.048-.26.177-.283.332l-.03 4.242c-.02.13.025.264.12.357zm2.673 3.26c-.46-.452-1.033-.452-1.49 0-.348.346-.696.69-1.038 1.042-.094.097-.173.117-.287.053-.225-.123-.465-.223-.682-.357-1.01-.635-1.855-1.45-2.604-2.37-.372-.455-.703-.944-.934-1.493-.047-.112-.038-.185.053-.275.347-.337.686-.682 1.028-1.027.477-.48.477-1.04-.002-1.524-.273-.274-.545-.543-.817-.817-.282-.28-.56-.565-.843-.843-.46-.447-1.033-.447-1.49.003-.35.345-.687.7-1.044 1.038-.33.314-.498.697-.533 1.145-.055.728.123 1.415.375 2.085.515 1.386 1.3 2.618 2.25 3.746 1.284 1.527 2.817 2.735 4.61 3.606.81.392 1.645.694 2.555.743.626.035 1.17-.123 1.607-.61.298-.334.635-.638.95-.957.47-.474.472-1.047.006-1.515-.556-.56-1.114-1.114-1.673-1.67zM32 108.53c0-.132-.064-.254-.172-.33l-3.053-2.93c-.128-.09-.297-.105-.44-.035-.14.07-.23.21-.23.365v1.648h-4.594c-.23 0-.42.183-.42.41v1.743c0 .227.19.41.42.41h4.596v1.648c0 .154.09.295.23.365.142.07.31.056.44-.035l3.052-2.93c.108-.076.172-.2.172-.33zm-9.965 3.055c-.495-.002-.99-.004-1.486.002-.137.002-.208-.04-.244-.163-.073-.242-.173-.477-.232-.72-.267-1.144-.288-2.3-.167-3.458.06-.575.173-1.144.4-1.687.047-.11.106-.156.235-.156.49.008.98.004 1.47.002.684-.002 1.085-.392 1.087-1.06v-1.137c0-.392.005-.782 0-1.172-.007-.63-.417-1.03-1.065-1.033-.498-.004-.99.008-1.488-.004-.46-.012-.853.14-1.198.426-.562.467-.925 1.07-1.224 1.71-.623 1.32-.943 2.722-1.07 4.167-.174 1.954.058 3.86.717 5.71.296.835.68 1.626 1.294 2.292.422.46.923.728 1.584.692.453-.025.91-.002 1.364-.004.673-.004 1.085-.4 1.087-1.05.003-.774 0-1.55 0-2.323-.005-.635-.415-1.033-1.065-1.035zm0-31c-.495-.002-.99-.004-1.486.002-.137.002-.208-.04-.244-.163-.073-.242-.173-.477-.232-.72-.267-1.144-.288-2.3-.167-3.458.06-.575.173-1.144.4-1.687.047-.11.106-.156.235-.156.49.008.98.004 1.47.002.684-.002 1.085-.392 1.087-1.06v-1.137c0-.392.005-.782 0-1.172-.007-.63-.417-1.03-1.065-1.033-.498-.004-.99.008-1.488-.004-.46-.012-.853.14-1.198.426-.562.467-.925 1.07-1.224 1.71-.623 1.32-.943 2.722-1.07 4.167-.174 1.954.058 3.86.717 5.71.296.835.68 1.626 1.294 2.292.422.46.923.728 1.584.692.453-.025.91-.002 1.364-.004.673-.004 1.085-.4 1.087-1.05.003-.774 0-1.55 0-2.323-.005-.635-.415-1.033-1.065-1.035zM25 74c0-.552.438-1 1.003-1h4.994c.554 0 1.003.444 1.003 1 0 .552-.438 1-1.003 1h-4.994C25.45 75 25 74.556 25 74zm0 3c0-.552.438-1 1.003-1h4.994c.554 0 1.003.444 1.003 1 0 .552-.438 1-1.003 1h-4.994C25.45 78 25 77.556 25 77zm0 3c0-.552.438-1 1.003-1h4.994c.554 0 1.003.444 1.003 1 0 .552-.438 1-1.003 1h-4.994C25.45 81 25 80.556 25 80zm-.365-40h-9.667c-.536 0-.968.432-.968.968v10.655c0 .535.432.968.968.968h9.667c.535 0 .967-.432.967-.967V40.968c0-.536-.432-.968-.967-.968zm-4.748 10.872c-2.583 0-4.673-2.09-4.673-4.674 0-2.583 2.09-4.673 4.673-4.673s4.674 2.09 4.674 4.673-2.09 4.674-4.673 4.674zm.68-4.664c.362-.268.61-.762.61-1.318 0-.854-.568-1.544-1.278-1.544-.7 0-1.278.69-1.278 1.544 0 .556.248 1.04.608 1.318-1.194.134-2.08.68-2.08 2.224 0 .278 2.728.236 2.728.236s2.76.02 2.76-.236c0-1.545-.876-2.1-2.07-2.224zM29.06 43.6h5.036c.538 0 .973-.435.973-.973s-.436-.973-.974-.973H29.06c-.54 0-.974.435-.974.973s.435.973.973.973zm5.036 1.26H29.06c-.54 0-.974.434-.974.972s.435.973.973.973h5.036c.538 0 .973-.435.973-.973s-.436-.973-.974-.973zm-1.22 3.09h-4.014c-.43 0-.776.435-.776.973s.347.973.776.973h4.014c.43 0 .776-.435.776-.973s-.347-.973-.776-.973zm-16.11-35.696h-.82c-.464 0-.834.268-.927.714L14 20.018c0 .536.37.982.926.982h9.82c.557 0 .928-.446.835-.982l-1.018-7.05c-.093-.357-.463-.714-.927-.714h-.57v-1.707c0-.18 0-.268-.092-.357 0 0-2.78-2.677-6.022 0-.092.09-.184.268-.184.357v1.707zm.926 0h4.447v-1.44c-.464-.446-2.317-1.606-4.448 0v1.44zm-.023 1.08c.285.152.48.446.48.783 0 .493-.415.892-.927.892s-.927-.4-.927-.893c0-.347.205-.647.505-.795.067.16.222.26.43.26.22 0 .38-.113.44-.248zm5.35.01c.28.153.466.442.466.773 0 .493-.415.892-.927.892s-.927-.4-.927-.893c0-.36.22-.668.536-.81.06.17.22.274.433.274.197 0 .348-.09.418-.237zm5.935.17h5.066c.542 0 .98-.42.98-.943 0-.52-.438-.94-.98-.94h-5.065c-.54 0-.98.42-.98.94 0 .523.44.944.98.944zm5.066 1.22h-5.065c-.54 0-.98.422-.98.943 0 .52.44.943.98.943h5.066c.542 0 .98-.422.98-.943 0-.52-.438-.943-.98-.943zm-1.225 2.995h-4.038c-.432 0-.78.42-.78.94 0 .523.348.944.78.944h4.038c.43 0 .78-.42.78-.943 0-.52-.35-.94-.78-.94zM8 0h1v1H8zM38 0h1v1h-1z"/></g></svg>