<svg xmlns="http://www.w3.org/2000/svg" width="34" height="34" viewBox="0 0 34 34">
  <path fill="#06B0E7" fill-rule="evenodd" d="M16.2857734,19.3539199 C14.3833428,19.3539199 12.8357121,17.8012145 12.8357121,15.8925458 C12.8357121,13.9838771 14.3833428,12.4311717 16.2857734,12.4311717 C18.188204,12.4311717 19.7358348,13.9838771 19.7358348,15.8925458 C19.7358348,17.8012145 18.188204,19.3539199 16.2857734,19.3539199 M16.9164298,11.2092694 L16.9164298,0.632724306 C16.9164298,0.283311613 16.6340441,0 16.2857734,0 C15.9375027,0 15.6551171,0.283311613 15.6551171,0.632724306 L15.6551171,11.2092694 C13.3545568,11.519602 11.5743993,13.5008479 11.5743993,15.8925458 C11.5743993,18.2842437 13.3545568,20.2654151 15.6551171,20.5757478 L15.6551171,32.4178159 C15.6551171,32.7672286 15.9375027,33.0505402 16.2857734,33.0505402 C16.6340441,33.0505402 16.9164298,32.7672286 16.9164298,32.4178159 L16.9164298,20.5757478 C19.2169901,20.2654151 20.9971475,18.2842437 20.9971475,15.8925458 C20.9971475,13.5008479 19.2169901,11.519602 16.9164298,11.2092694 M27.8601728,13.101115 C25.9577422,13.101115 24.4101114,11.5483352 24.4101114,9.63974089 C24.4101114,7.73114664 25.9577422,6.17836675 27.8601728,6.17836675 C29.7626034,6.17836675 31.3102341,7.73114664 31.3102341,9.63974089 C31.3102341,11.5483352 29.7626034,13.101115 27.8601728,13.101115 M28.4908292,4.95646446 L28.4908292,0.632724306 C28.4908292,0.283311613 28.2084435,0 27.8601728,0 C27.5119021,0 27.2295164,0.283311613 27.2295164,0.632724306 L27.2295164,4.95646446 C24.9289561,5.26679712 23.1487987,7.24804302 23.1487987,9.63974089 C23.1487987,12.0314388 24.9289561,14.0126102 27.2295164,14.3229429 L27.2295164,32.4178159 C27.2295164,32.7672286 27.5119021,33.0505402 27.8601728,33.0505402 C28.2084435,33.0505402 28.4908292,32.7672286 28.4908292,32.4178159 L28.4908292,14.3229429 C30.7913894,14.0126102 32.5715469,12.0314388 32.5715469,9.63974089 C32.5715469,7.24804302 30.7913894,5.26679712 28.4908292,4.95646446 M4.71137409,27.5421168 C2.80901769,27.5421168 1.26131275,25.9894114 1.26131275,24.0807427 C1.26131275,22.172074 2.80901769,20.6193686 4.71137409,20.6193686 C6.6137305,20.6193686 8.16143544,22.172074 8.16143544,24.0807427 C8.16143544,25.9894114 6.6137305,27.5421168 4.71137409,27.5421168 M5.34203047,19.3975407 L5.34203047,0.632724306 C5.34203047,0.283311613 5.0596448,0 4.71137409,0 C4.36310338,0 4.08071772,0.283311613 4.08071772,0.632724306 L4.08071772,19.3975407 C1.78015746,19.7077989 0,21.6890448 0,24.0807427 C0,26.4724406 1.78015746,28.4536865 4.08071772,28.7639447 L4.08071772,32.4178159 C4.08071772,32.7672286 4.36310338,33.0505402 4.71137409,33.0505402 C5.0596448,33.0505402 5.34203047,32.7672286 5.34203047,32.4178159 L5.34203047,28.7639447 C7.64259073,28.4536865 9.42274818,26.4724406 9.42274818,24.0807427 C9.42274818,21.6890448 7.64259073,19.7077989 5.34203047,19.3975407" transform="translate(.701 .545)"/>
</svg>
