<svg xmlns="http://www.w3.org/2000/svg" width="33" height="32" viewBox="0 0 33 32">
  <path fill="#06B0E7" d="M219.739538,2 L201.848102,2 C199.735269,2 198.016364,3.65275875 198.016364,5.68416056 L198.016364,13.3111377 L194.831918,13.3111377 C192.718995,13.3112247 191,14.9637225 191,16.9950374 L191,25.8743653 C191,27.906028 192.718995,29.5589606 194.831918,29.5589606 L195.955723,29.5589606 L195.955723,33.0216228 C195.955723,33.2663407 196.098189,33.490535 196.324777,33.6021103 C196.422377,33.6502016 196.52839,33.673856 196.634041,33.673856 C196.773793,33.673856 196.912821,33.6323739 197.030502,33.5509752 L202.799229,29.5589606 L207.107661,29.5589606 C208.707709,29.5589606 210.108394,28.5882638 210.672739,27.2144869 L211.925261,28.0812613 C212.042942,28.16266 212.18197,28.204142 212.321722,28.204142 C212.427373,28.204142 212.533476,28.1804007 212.630986,28.1323963 C212.857574,28.020821 213.00004,27.7967137 213.00004,27.5519089 L213.00004,24.0891597 L219.739538,24.0891597 C221.852462,24.0891597 223.571547,22.4365749 223.571547,20.405347 L223.571547,5.68416056 C223.571547,3.65275875 221.852462,2 219.739538,2 Z M207.088215,28.4387629 L202.495229,28.4387629 C202.35097,28.4387629 202.21029,28.4824156 202.093102,28.5636237 L197.150847,31.9891208 L197.150847,29.1015058 C197.150847,28.7354067 196.842782,28.4387629 196.462588,28.4387629 L194.634203,28.4387629 C193.249608,28.4387629 192.123157,27.3538086 192.123157,26.0201932 L192.123157,16.9978766 C192.123157,15.664703 193.249608,14.5801906 194.634203,14.5801906 L197.864802,14.5801906 L197.864802,20.4630499 C197.864802,22.527008 199.608668,24.2062217 201.752184,24.2062217 L206.123183,24.2062217 L209.532087,26.5689443 C209.270457,27.6418809 208.260826,28.4387629 207.088215,28.4387629 Z M219.804259,22.8229267 C218.422918,22.8229267 212.356612,22.8229267 212.356612,22.8229267 C211.977336,22.8229267 211.670016,23.1195674 211.670016,23.4856628 L211.670016,26.3733368 L206.739704,22.9477862 C206.622891,22.8665789 206.482459,22.8229267 206.338548,22.8229267 L201.756661,22.8229267 C200.375504,22.8229267 199.251865,21.7384252 199.251865,20.4052652 L199.251865,5.76663764 C199.251865,4.43330085 200.375504,3.34862267 201.756661,3.34862267 L219.804259,3.34862267 C221.185599,3.34862267 222.309329,4.43330085 222.309329,5.76663764 L222.309329,20.4052652 C222.309329,21.7384252 221.185599,22.8229267 219.804259,22.8229267 Z" transform="translate(-191 -2)"/>
</svg>
