<svg width="121" height="121" viewBox="0 0 121 121" fill="none" xmlns="http://www.w3.org/2000/svg">
<path opacity="0.12" fill-rule="evenodd" clip-rule="evenodd" d="M93.0271 111.114H27.7978C27.2396 111.114 26.6863 111.094 26.1385 111.055C11.3965 110.732 0.500745 99.1176 0.5 84.8384C0.504286 77.8786 3.62041 71.6516 8.15302 66.2043C10.3197 63.6005 11.8888 61.8841 15.0573 60.3183C15.0009 59.6101 14.9722 58.8944 14.9722 58.1723C14.9768 50.8287 18.0092 43.7877 23.4023 38.5982C28.7955 33.4087 36.1075 30.4958 43.7299 30.5002C53.4939 30.5117 62.0102 35.6017 67.1909 42.7815C70.6019 41.9417 74.8196 41.6733 77.5787 41.6748C89.767 41.6889 99.7776 50.6401 100.938 62.0873C112.617 64.5401 120.51 74.1778 120.499 86.1621C120.487 99.9729 108.86 111.161 94.5246 111.155C94.022 111.155 93.5227 111.141 93.0271 111.114Z" fill="#A8ADB4"/>
<g filter="url(#filter0_d_4020_266724)">
<rect x="27.5" y="17.5" width="64" height="79" rx="6" fill="white"/>
</g>
<rect opacity="0.4" x="37.5" y="27.5" width="44" height="44" rx="3" fill="#D5D7DB"/>
<g opacity="0.6">
<path opacity="0.8" d="M70.164 60.4424C70.8836 60.1808 71.2829 59.4246 71.1354 58.6733L70.6256 56.077C70.6256 54.9936 69.1828 53.756 66.3415 53.0349C65.3789 52.7713 64.4639 52.3626 63.629 51.8234C63.4465 51.721 63.4742 50.7749 63.4742 50.7749L62.5591 50.6382C62.5591 50.5614 62.4809 49.4268 62.4809 49.4268C63.5758 49.0656 63.4631 46.9353 63.4631 46.9353C64.1584 47.3139 64.6113 45.628 64.6113 45.628C65.4337 43.2858 64.2017 43.4275 64.2017 43.4275C64.4173 41.9976 64.4173 40.5444 64.2017 39.1145C63.654 34.3713 55.4078 35.659 56.3856 37.2081C53.9755 36.7723 54.5254 42.1551 54.5254 42.1551L55.0482 43.5489C54.3236 44.0103 54.4659 44.5397 54.6249 45.1311C54.6911 45.3776 54.7603 45.6349 54.7707 45.9026C54.8212 47.2458 55.6586 46.9675 55.6586 46.9675C55.7102 49.1844 56.824 49.4731 56.824 49.4731C57.0332 50.8653 56.9028 50.6284 56.9028 50.6284L55.9117 50.746C55.9251 51.0626 55.8988 51.3797 55.8334 51.69C55.2576 51.9419 54.905 52.1424 54.556 52.3409C54.1986 52.544 53.845 52.7451 53.2591 52.9973C51.0216 53.9597 48.5899 55.2115 48.1576 56.8968C48.0313 57.3895 47.9075 58.0518 47.7956 58.7425C47.6783 59.4663 48.0807 60.1749 48.7695 60.4265C51.7747 61.5244 55.1664 62.1751 58.7642 62.2523H60.2128C63.7933 62.1754 67.1696 61.5307 70.164 60.4424Z" fill="#A8ADB4"/>
</g>
<path d="M37.5 34.54V29.5C37.5 28.3954 38.3954 27.5 39.5 27.5H44.54" stroke="#DFE0E3" stroke-width="2" stroke-linecap="round" stroke-linejoin="round"/>
<path d="M37.5 64.46V69.5C37.5 70.6046 38.3954 71.5 39.5 71.5H44.54" stroke="#DFE0E3" stroke-width="2" stroke-linecap="round" stroke-linejoin="round"/>
<path d="M81.5 34.54V29.5C81.5 28.3954 80.6046 27.5 79.5 27.5H74.46" stroke="#DFE0E3" stroke-width="2" stroke-linecap="round" stroke-linejoin="round"/>
<path d="M81.5 64.46V69.5C81.5 70.6046 80.6046 71.5 79.5 71.5H74.46" stroke="#DFE0E3" stroke-width="2" stroke-linecap="round" stroke-linejoin="round"/>
<rect x="36.5" y="79.5" width="46" height="3" rx="1.5" fill="#E6E7E9"/>
<rect x="40.5" y="86.5" width="38" height="3" rx="1.5" fill="#E6E7E9"/>
<defs>
<filter id="filter0_d_4020_266724" x="20.4256" y="12.7837" width="78.1488" height="93.1488" filterUnits="userSpaceOnUse" color-interpolation-filters="sRGB">
<feFlood flood-opacity="0" result="BackgroundImageFix"/>
<feColorMatrix in="SourceAlpha" type="matrix" values="0 0 0 0 0 0 0 0 0 0 0 0 0 0 0 0 0 0 127 0" result="hardAlpha"/>
<feOffset dy="2.35813"/>
<feGaussianBlur stdDeviation="3.5372"/>
<feComposite in2="hardAlpha" operator="out"/>
<feColorMatrix type="matrix" values="0 0 0 0 0.423529 0 0 0 0 0.423529 0 0 0 0 0.423529 0 0 0 0.12 0"/>
<feBlend mode="normal" in2="BackgroundImageFix" result="effect1_dropShadow_4020_266724"/>
<feBlend mode="normal" in="SourceGraphic" in2="effect1_dropShadow_4020_266724" result="shape"/>
</filter>
</defs>
</svg>
