<svg xmlns="http://www.w3.org/2000/svg" width="70" height="723" viewBox="0 0 70 723" xmlns:xlink="http://www.w3.org/1999/xlink">
  <defs>
    <circle id="a" cx="8" cy="8" r="8"/>
    <circle id="c" cx="8" cy="8" r="8"/>
  </defs>
  <g fill="none" fill-rule="evenodd">
    <path fill="#535C69" d="M7.29424,4.39666 L7.29424,3.02909 C7.294695,1.35856 5.81644,0 4.001395,0 C2.184966,0 0.707641,1.35856 0.707641,3.02909 L0.707641,4.3971 L0,4.3971 L0,10 L8,10 L8,4.39666 L7.29424,4.39666 L7.29424,4.39666 L7.29424,4.39666 Z M1.947997,3.02909 C1.947997,1.9885 2.868819,1.14272 4.000941,1.14272 C5.131203,1.14272 6.051549,1.98894 6.051549,3.02909 L6.051549,4.3971 L1.947997,4.3971 L1.947997,3.02909 L1.947997,3.02909 L1.947997,3.02909 Z M4.566764,8.46377 L3.436502,8.46377 L3.605827,6.92798 C3.396841,6.80827 3.255975,6.59457 3.255975,6.34955 C3.255975,5.97236 3.589046,5.66598 4.001395,5.66598 C4.41143,5.66598 4.74355,5.97238 4.74355,6.34955 C4.74355,6.59457 4.604997,6.80785 4.394151,6.92798 L4.566764,8.46377 L4.566764,8.46377 L4.566764,8.46377 Z" transform="translate(0 125)"/>
    <g transform="translate(0 139)">
      <mask id="b" fill="white">
        <use xlink:href="#a"/>
      </mask>
      <circle cx="8" cy="8" r="8" stroke="#3BC8F5" stroke-width="2" mask="url(#b)"/>
      <polygon fill="#3BC8F5" points="9 7 9 4 7 4 7 7 4 7 4 9 7 9 7 12 9 12 9 9 12 9 12 7"/>
    </g>
    <g transform="translate(0 159)">
      <circle cx="8" cy="8" r="8" fill="#3BC8F5"/>
      <polygon fill="#FFFFFF" points="9 7 9 4 7 4 7 7 4 7 4 9 7 9 7 12 9 12 9 9 12 9 12 7"/>
    </g>
    <g transform="translate(0 179)">
      <mask id="d" fill="white">
        <use xlink:href="#c"/>
      </mask>
      <circle cx="8" cy="8" r="8" stroke="#3BC8F5" stroke-width="2" mask="url(#d)"/>
      <rect width="2" height="8" x="7" y="4" fill="#3BC8F5" transform="rotate(90 8 8)"/>
    </g>
    <g transform="translate(0 199)">
      <circle cx="8" cy="8" r="8" fill="#3BC8F5"/>
      <rect width="2" height="8" x="7" y="4" fill="#FFFFFF" transform="rotate(90 8 8)"/>
    </g>
    <g fill="#AEAFAF" transform="translate(-3 219)">
      <path d="M16.72,4.76 L13.24,1.27 C12.9899141,1.02170042 12.6263589,0.925681383 12.2862822,1.01811234 C11.9462055,1.11054331 11.681273,1.3773818 11.5912822,1.71811234 C11.5012914,2.05884289 11.5999141,2.42170042 11.85,2.67 L12.56,3.38 L6.97,7.54 L6.27,6.84 C5.88456095,6.46004728 5.26543905,6.46004728 4.88,6.84 C4.49885712,7.22884351 4.49885712,7.85115649 4.88,8.24 L7.01,10.37 L3.08,14.57 C3.03187551,14.6175334 3.0047892,14.6823583 3.0047892,14.75 C3.0047892,14.8176417 3.03187551,14.8824666 3.08,14.93 C3.17938085,15.0198149 3.33061915,15.0198149 3.43,14.93 L7.63,10.98 L9.76,13.11 C10.0069584,13.3648513 10.3721078,13.466808 10.7153694,13.3767574 C11.0586311,13.2867068 11.3267069,13.0186311 11.4167574,12.6753694 C11.506808,12.3321078 11.4048513,11.9669584 11.15,11.72 L10.45,11.02 L14.61,5.43 L15.33,6.15 C15.7154391,6.52995272 16.3345609,6.52995272 16.72,6.15 C16.9070376,5.96712602 17.0124715,5.71658359 17.0124715,5.455 C17.0124715,5.19341641 16.9070376,4.94287398 16.72,4.76 L16.72,4.76 L16.72,4.76 Z"/>
      <path d="M16.618461,359.676632 L13.138461,356.186632 C12.8883751,355.938333 12.52482,355.842313 12.1847433,355.934744 C11.8446666,356.027175 11.5797341,356.294014 11.4897433,356.634744 C11.3997525,356.975475 11.4983751,357.338333 11.748461,357.586632 L12.458461,358.296632 L6.86846105,362.456632 L6.16846105,361.756632 C5.783022,361.376679 5.1639001,361.376679 4.77846105,361.756632 C4.39731817,362.145476 4.39731817,362.767789 4.77846105,363.156632 L6.90846105,365.286632 L2.97846105,369.486632 C2.93033655,369.534165 2.90325025,369.59899 2.90325025,369.666632 C2.90325025,369.734274 2.93033655,369.799099 2.97846105,369.846632 C3.0778419,369.936447 3.22908019,369.936447 3.32846105,369.846632 L7.52846105,365.896632 L9.65846105,368.026632 C9.90541945,368.281483 10.2705689,368.38344 10.6138305,368.293389 C10.9570921,368.203339 11.2251679,367.935263 11.3152185,367.592001 C11.4052691,367.24874 11.3033124,366.88359 11.048461,366.636632 L10.348461,365.936632 L14.508461,360.346632 L15.228461,361.066632 C15.6139001,361.446585 16.2330219,361.446585 16.618461,361.066632 C16.8054986,360.883758 16.9109325,360.633216 16.9109325,360.371632 C16.9109325,360.110048 16.8054986,359.859506 16.618461,359.676632 L16.618461,359.676632 L16.618461,359.676632 Z" transform="rotate(-45 9.907 362.907)"/>
    </g>
    <g fill="#535C68" transform="translate(-3 238)">
      <path d="M16.72,4.76 L13.24,1.27 C12.9899141,1.02170042 12.6263589,0.925681383 12.2862822,1.01811234 C11.9462055,1.11054331 11.681273,1.3773818 11.5912822,1.71811234 C11.5012914,2.05884289 11.5999141,2.42170042 11.85,2.67 L12.56,3.38 L6.97,7.54 L6.27,6.84 C5.88456095,6.46004728 5.26543905,6.46004728 4.88,6.84 C4.49885712,7.22884351 4.49885712,7.85115649 4.88,8.24 L7.01,10.37 L3.08,14.57 C3.03187551,14.6175334 3.0047892,14.6823583 3.0047892,14.75 C3.0047892,14.8176417 3.03187551,14.8824666 3.08,14.93 C3.17938085,15.0198149 3.33061915,15.0198149 3.43,14.93 L7.63,10.98 L9.76,13.11 C10.0069584,13.3648513 10.3721078,13.466808 10.7153694,13.3767574 C11.0586311,13.2867068 11.3267069,13.0186311 11.4167574,12.6753694 C11.506808,12.3321078 11.4048513,11.9669584 11.15,11.72 L10.45,11.02 L14.61,5.43 L15.33,6.15 C15.7154391,6.52995272 16.3345609,6.52995272 16.72,6.15 C16.9070376,5.96712602 17.0124715,5.71658359 17.0124715,5.455 C17.0124715,5.19341641 16.9070376,4.94287398 16.72,4.76 L16.72,4.76 L16.72,4.76 Z"/>
      <path d="M16.618461,357.676632 L13.138461,354.186632 C12.8883751,353.938333 12.52482,353.842313 12.1847433,353.934744 C11.8446666,354.027175 11.5797341,354.294014 11.4897433,354.634744 C11.3997525,354.975475 11.4983751,355.338333 11.748461,355.586632 L12.458461,356.296632 L6.86846105,360.456632 L6.16846105,359.756632 C5.783022,359.376679 5.1639001,359.376679 4.77846105,359.756632 C4.39731817,360.145476 4.39731817,360.767789 4.77846105,361.156632 L6.90846105,363.286632 L2.97846105,367.486632 C2.93033655,367.534165 2.90325025,367.59899 2.90325025,367.666632 C2.90325025,367.734274 2.93033655,367.799099 2.97846105,367.846632 C3.0778419,367.936447 3.22908019,367.936447 3.32846105,367.846632 L7.52846105,363.896632 L9.65846105,366.026632 C9.90541945,366.281483 10.2705689,366.38344 10.6138305,366.293389 C10.9570921,366.203339 11.2251679,365.935263 11.3152185,365.592001 C11.4052691,365.24874 11.3033124,364.88359 11.048461,364.636632 L10.348461,363.936632 L14.508461,358.346632 L15.228461,359.066632 C15.6139001,359.446585 16.2330219,359.446585 16.618461,359.066632 C16.8054986,358.883758 16.9109325,358.633216 16.9109325,358.371632 C16.9109325,358.110048 16.8054986,357.859506 16.618461,357.676632 L16.618461,357.676632 L16.618461,357.676632 Z" transform="rotate(-45 9.907 360.907)"/>
    </g>
    <polygon fill="#535C69" points="3.546 7.425 3.546 1.607 1.607 1.607 1.607 8.394 1.607 9.364 9.364 9.364 9.364 7.425" transform="rotate(-45 325.369 137.985)"/>
    <path fill="#737B86" d="M8.59473614,3.43675418 L6.51336109,1.38159639 L7.91862495,0 L10,2.05515778 L8.59473614,3.43675418 L8.59473614,3.43675418 Z M0.000671411307,10 L0.835235665,6.99615487 L2.91661072,9.05131265 L4.4408921e-16,9.99668523 L0.000671411307,10 L0.000671411307,10 Z M3.53565194,8.43145054 L1.45427689,6.37629276 L5.82919296,2.06178732 L7.91056801,4.11694511 L3.53565194,8.43145054 L3.53565194,8.43145054 Z" transform="translate(0 289)" opacity=".5"/>
    <path fill="#000000" d="M8.59473614,3.43675418 L6.51336109,1.38159639 L7.91862495,0 L10,2.05515778 L8.59473614,3.43675418 L8.59473614,3.43675418 Z M0.000671411307,10 L0.835235665,6.99615487 L2.91661072,9.05131265 L4.4408921e-16,9.99668523 L0.000671411307,10 L0.000671411307,10 Z M3.53565194,8.43145054 L1.45427689,6.37629276 L5.82919296,2.06178732 L7.91056801,4.11694511 L3.53565194,8.43145054 L3.53565194,8.43145054 Z" transform="translate(0 299)" opacity=".5"/>
    <g fill="#535C69" transform="translate(0 313)">
      <rect width="10" height="2" y="5" opacity=".5"/>
      <rect width="10" height="2" y="9" opacity=".5"/>
      <rect width="16" height="3"/>
    </g>
    <g fill="#535C69" transform="translate(0 326)">
      <rect width="13" height="3" y="5"/>
      <rect width="10" height="2" y="10" opacity=".4"/>
      <rect width="16" height="3" opacity=".4"/>
    </g>
    <g fill="#535C69" transform="translate(0 340)" opacity=".7">
      <rect width="16" height="2" y="4"/>
      <rect width="16" height="2"/>
      <rect width="16" height="2" y="8"/>
    </g>
    <g fill="#535C69" transform="translate(0 352)">
      <rect width="4" height="4"/>
      <rect width="4" height="4" x="6"/>
      <rect width="4" height="4" x="12"/>
    </g>
    <g fill="#535C69" transform="translate(0 361)">
      <polygon points="18.743 5.743 18.743 1.243 17.243 1.243 17.243 6.493 17.243 7.243 23.243 7.243 23.243 5.743" opacity=".7" transform="rotate(-135 20.243 4.243)"/>
      <polygon points="2.743 5.743 2.743 1.243 1.243 1.243 1.243 6.493 1.243 7.243 7.243 7.243 7.243 5.743" opacity=".7" transform="rotate(45 4.243 4.243)"/>
      <path d="M4.763,5.162 C4.763,5.39666784 4.73733359,5.6239989 4.686,5.844 C4.63466641,6.0640011 4.55400055,6.25833249 4.444,6.427 C4.33399945,6.59566751 4.19650082,6.7294995 4.0315,6.8285 C3.86649917,6.92750049 3.66666784,6.977 3.432,6.977 C3.20466553,6.977 3.00666751,6.92750049 2.838,6.8285 C2.66933249,6.7294995 2.53000055,6.59566751 2.42,6.427 C2.30999945,6.25833249 2.22933359,6.0640011 2.178,5.844 C2.12666641,5.6239989 2.101,5.39666784 2.101,5.162 C2.101,4.91999879 2.12666641,4.6890011 2.178,4.469 C2.22933359,4.2489989 2.30999945,4.05466751 2.42,3.886 C2.53000055,3.71733249 2.66933249,3.58350049 2.838,3.4845 C3.00666751,3.3854995 3.20466553,3.336 3.432,3.336 C3.66666784,3.336 3.86649917,3.3854995 4.0315,3.4845 C4.19650082,3.58350049 4.33399945,3.71733249 4.444,3.886 C4.55400055,4.05466751 4.63466641,4.2489989 4.686,4.469 C4.73733359,4.6890011 4.763,4.91999879 4.763,5.162 L4.763,5.162 Z M0.594,0.146 L0.594,8 L2.079,8 L2.079,7.274 L2.101,7.274 C2.26966751,7.58933491 2.51899835,7.81299934 2.849,7.945 C3.17900165,8.07700066 3.55299791,8.143 3.971,8.143 C4.25700143,8.143 4.53933194,8.08433392 4.818,7.967 C5.09666806,7.84966608 5.34783221,7.67000121 5.5715,7.428 C5.79516778,7.18599879 5.97666597,6.87616855 6.116,6.4985 C6.25533403,6.12083144 6.325,5.67166927 6.325,5.151 C6.325,4.63033073 6.25533403,4.18116855 6.116,3.8035 C5.97666597,3.42583144 5.79516778,3.11600121 5.5715,2.874 C5.34783221,2.63199879 5.09666806,2.45233392 4.818,2.335 C4.53933194,2.21766608 4.25700143,2.159 3.971,2.159 C3.61899824,2.159 3.27983496,2.22683265 2.9535,2.3625 C2.62716503,2.49816734 2.36866762,2.7126652 2.178,3.006 L2.156,3.006 L2.156,0.146 L0.594,0.146 Z M7.315,2.313 L7.315,8 L8.877,8 L8.877,5.437 C8.877,5.18033205 8.90266641,4.9420011 8.954,4.722 C9.00533359,4.5019989 9.09149939,4.30950082 9.2125,4.1445 C9.3335006,3.97949917 9.49299901,3.84933381 9.691,3.754 C9.88900099,3.65866619 10.1309986,3.611 10.417,3.611 C10.5123338,3.611 10.6113328,3.61649994 10.714,3.6275 C10.8166672,3.63850005 10.9046663,3.65133326 10.978,3.666 L10.978,2.214 C10.8533327,2.17733315 10.7396672,2.159 10.637,2.159 C10.438999,2.159 10.2483342,2.18833304 10.065,2.247 C9.88166575,2.30566696 9.70933414,2.38816613 9.548,2.4945 C9.38666586,2.60083386 9.24366729,2.72916591 9.119,2.8795 C8.99433271,3.02983408 8.8953337,3.19299912 8.822,3.369 L8.8,3.369 L8.8,2.313 L7.315,2.313 Z" transform="translate(7)"/>
    </g>
    <path fill="#EB314B" d="M20.580618,14.3196246 L13.0674704,1.22642038 C12.6346416,0.468091787 11.8284987,0 10.9553418,0 C10.0821849,0 9.27604205,0.468091787 8.84321326,1.22642038 L1.32942278,14.3196246 C0.888824939,15.0782273 0.888824939,16.0148325 1.32942278,16.7734352 C1.75918669,17.5352888 2.56781784,18.0046737 3.44251564,18.0000191 L18.4694537,18.0000191 C19.3437288,18.0043435 20.1518224,17.5349851 20.5812609,16.7734352 C21.02166,16.0147171 21.0214146,15.0781118 20.580618,14.3196246 L20.580618,14.3196246 L20.580618,14.3196246 Z M9.78050848,4.89460043 C9.78050848,4.24735559 10.3052041,3.72265998 10.9524489,3.72265998 C11.5996938,3.72265998 12.1243894,4.24735559 12.1243894,4.89460043 L12.1243894,9.12078615 C12.1243894,9.76803099 11.5996938,10.2927266 10.9524489,10.2927266 C10.3052041,10.2927266 9.78050848,9.76803099 9.78050848,9.12078615 L9.78050848,4.89460043 L9.78050848,4.89460043 L9.78050848,4.89460043 Z M10.9524489,15.4529932 C10.3887118,15.4563783 9.87861078,15.1193621 9.66058837,14.5994801 C9.44256596,14.0795982 9.5596886,13.4795438 9.95720828,13.0798075 C10.354728,12.6800711 10.9541218,12.5596136 11.475208,12.7747418 C11.9962943,12.9898699 12.3361418,13.498089 12.3358915,14.0618363 C12.3373198,14.8267312 11.7199048,15.4487451 10.9550204,15.4529932 L10.9524489,15.4529932 L10.9524489,15.4529932 Z" transform="translate(2 371)"/>
    <path fill="#737B86" d="M5.2201899,1.59976867 C6.06506453,1.59976867 6.75267813,2.33542098 6.75267813,3.27468299 C6.75267813,4.21394499 5.85124064,5.04951878 5.00636601,5.04951878 L2.34277463,5.04951878 L2.2662194,3.27552802 L0,5.79354957 L2.32617229,8.37818545 L2.34277463,6.53604311 L5.00544366,6.53604311 C5.32817007,6.53604311 5.61946981,6.50455255 5.87874523,6.43950987 C6.89141216,6.18546891 8.09055,4.66959213 8.09055,3.26904639 C8.09055,1.27061659 6.97588733,0.0804496103 5.21926755,0.0804496103 L5.21926755,0 L5.2201899,1.59976867 L5.2201899,1.59976867 Z" transform="translate(8 390)" opacity=".5"/>
    <path fill="#737B86" d="M5.2201899,1.59976867 C6.06506453,1.59976867 6.75267813,2.33542098 6.75267813,3.27468299 C6.75267813,4.21394499 5.85124064,5.04951878 5.00636601,5.04951878 L2.34277463,5.04951878 L2.2662194,3.27552802 L0,5.79354957 L2.32617229,8.37818545 L2.34277463,6.53604311 L5.00544366,6.53604311 C5.32817007,6.53604311 5.61946981,6.50455255 5.87874523,6.43950987 C6.89141216,6.18546891 8.09055,4.66959213 8.09055,3.26904639 C8.09055,1.27061659 6.97588733,0.0804496103 5.21926755,0.0804496103 L5.21926755,0 L5.2201899,1.59976867 L5.2201899,1.59976867 Z" transform="translate(8 399)"/>
    <path fill="#BABEC3" d="M11.1459665,428.270219 C9.71313561,428.270219 8.55104107,427.107874 8.55104107,425.675216 C8.55104107,424.242342 9.71313561,423.080213 11.1459665,423.080213 C12.57855,423.080213 13.7408604,424.242342 13.7408604,425.675216 C13.7408604,427.107874 12.57855,428.270219 11.1459665,428.270219 M17.537822,424.667459 L16.166852,424.438744 C16.0672096,424.031359 15.9219258,423.641939 15.7327121,423.278731 L16.610368,422.190498 C16.7970329,421.960516 16.7885527,421.629607 16.5917558,421.407641 L16.0464971,420.793969 C15.8488506,420.572236 15.5210866,420.52534 15.2710774,420.683296 L14.0986351,421.420338 C13.5829556,421.060034 12.9988194,420.793969 12.3686859,420.639582 L12.1393125,419.261218 C12.0911832,418.969358 11.8386263,418.755208 11.5421555,418.755208 L10.7204605,418.755208 C10.424593,418.755208 10.1711854,418.969358 10.1241215,419.261218 L9.89349849,420.640015 C9.37252021,420.767571 8.88405633,420.973472 8.43828631,421.24465 L7.3232715,420.44888 C7.08296277,420.277193 6.75289741,420.304039 6.54318808,420.513307 L5.96268086,421.094248 C5.75341892,421.303965 5.72657384,421.63404 5.8987039,421.874355 L6.69630367,422.991535 C6.42768226,423.433952 6.22390323,423.91965 6.09636622,424.43601 L4.71019812,424.667475 C4.41879438,424.715606 4.2042337,424.968186 4.2042337,425.26468 L4.2042337,426.085752 C4.2042337,426.382215 4.41879438,426.634827 4.71019812,426.682958 L6.09636622,426.914423 C6.20110508,427.339324 6.35315528,427.745194 6.55525091,428.121516 L5.68159554,429.203601 C5.49556447,429.433367 5.50337927,429.764493 5.70017729,429.986257 L6.24501799,430.599945 C6.44268031,430.822095 6.77061374,430.868141 7.0206534,430.710588 L8.20999409,429.963443 C8.71324023,430.307667 9.2825636,430.560664 9.89349849,430.710588 L10.1241215,432.089183 C10.1712012,432.381059 10.424593,432.595208 10.7204605,432.595208 L11.5421555,432.595208 C11.8386263,432.595208 12.0911832,432.381074 12.1393125,432.089198 L12.3690712,430.710603 C12.8835464,430.584761 13.3658167,430.382443 13.8076177,430.115915 L14.9690932,430.945466 C15.2089692,431.117771 15.539282,431.09074 15.7487755,430.880807 L16.3295143,430.300067 C16.5385288,430.090984 16.5668415,429.761095 16.3932597,429.520346 L15.5663428,428.360951 C15.835737,427.917051 16.0405973,427.430488 16.167331,426.911828 L17.5382853,426.682911 C17.8305386,426.63478 18.0442339,426.382184 18.0442339,426.085705 L18.0442339,425.264634 C18.0438011,424.968186 17.8301059,424.715606 17.537822,424.667459"/>
    <path fill="#535C69" d="M11.1459665,448.41827 C9.71313561,448.41827 8.55104107,447.255925 8.55104107,445.823267 C8.55104107,444.390393 9.71313561,443.228264 11.1459665,443.228264 C12.57855,443.228264 13.7408604,444.390393 13.7408604,445.823267 C13.7408604,447.255925 12.57855,448.41827 11.1459665,448.41827 M17.537822,444.81551 L16.166852,444.586794 C16.0672096,444.17941 15.9219258,443.789989 15.7327121,443.426782 L16.610368,442.338549 C16.7970329,442.108567 16.7885527,441.777657 16.5917558,441.555692 L16.0464971,440.94202 C15.8488506,440.720286 15.5210866,440.673391 15.2710774,440.831346 L14.0986351,441.568389 C13.5829556,441.208085 12.9988194,440.94202 12.3686859,440.787633 L12.1393125,439.409269 C12.0911832,439.117409 11.8386263,438.903259 11.5421555,438.903259 L10.7204605,438.903259 C10.424593,438.903259 10.1711854,439.117409 10.1241215,439.409269 L9.89349849,440.788065 C9.37252021,440.915622 8.88405633,441.121523 8.43828631,441.392701 L7.3232715,440.596931 C7.08296277,440.425244 6.75289741,440.45209 6.54318808,440.661358 L5.96268086,441.242299 C5.75341892,441.452015 5.72657384,441.78209 5.8987039,442.022406 L6.69630367,443.139586 C6.42768226,443.582003 6.22390323,444.067701 6.09636622,444.58406 L4.71019812,444.815525 C4.41879438,444.863656 4.2042337,445.116237 4.2042337,445.412731 L4.2042337,446.233802 C4.2042337,446.530266 4.41879438,446.782877 4.71019812,446.831008 L6.09636622,447.062473 C6.20110508,447.487374 6.35315528,447.893245 6.55525091,448.269567 L5.68159554,449.351652 C5.49556447,449.581418 5.50337927,449.912544 5.70017729,450.134308 L6.24501799,450.747995 C6.44268031,450.970146 6.77061374,451.016192 7.0206534,450.858638 L8.20999409,450.111494 C8.71324023,450.455718 9.2825636,450.708715 9.89349849,450.858638 L10.1241215,452.237234 C10.1712012,452.52911 10.424593,452.743259 10.7204605,452.743259 L11.5421555,452.743259 C11.8386263,452.743259 12.0911832,452.529125 12.1393125,452.237249 L12.3690712,450.858654 C12.8835464,450.732812 13.3658167,450.530494 13.8076177,450.263966 L14.9690932,451.093517 C15.2089692,451.265822 15.539282,451.238791 15.7487755,451.028858 L16.3295143,450.448118 C16.5385288,450.239035 16.5668415,449.909145 16.3932597,449.668397 L15.5663428,448.509002 C15.835737,448.065102 16.0405973,447.578539 16.167331,447.059878 L17.5382853,446.830962 C17.8305386,446.782831 18.0442339,446.530235 18.0442339,446.233756 L18.0442339,445.412685 C18.0438011,445.116237 17.8301059,444.863656 17.537822,444.81551"/>
    <g fill="#797B7F" transform="translate(0 563)">
      <polygon points="7.438 7.375 1.719 7.375 1.719 1.719 4 1.719 4 0 0 0 0 9 9 9 9 5 7.438 5" transform="rotate(90 4.5 4.5)"/>
      <path d="M3,7.908 L4.094,8.994 L5.381,7.708 L6.346,6.747 L7.361,5.737 L6.271,4.65 L3,7.908 L3,7.908 Z M8.975,3 L4.635,3.02 L6.271,4.65 L7.361,5.736 L7.37,5.726 L6.22,4.58 L7.37,5.726 L7.361,5.736 L8.994,7.365 L8.975,3 L8.975,3 Z" transform="rotate(90 5.997 5.997)"/>
    </g>
    <polyline fill="#BABEC3" points="13.554 464.875 17.75 460.679 16.071 459 11.875 463.196 7.679 459 6 460.679 10.196 464.875 6 469.071 7.679 470.75 11.875 466.554 16.071 470.75 17.75 469.071 13.554 464.875 13.554 464.875"/>
    <polyline fill="#535C69" points="13.554 481.875 17.75 477.679 16.071 476 11.875 480.196 7.679 476 6 477.679 10.196 481.875 6 486.071 7.679 487.75 11.875 483.554 16.071 487.75 17.75 486.071 13.554 481.875 13.554 481.875"/>
    <path fill="#BABEC3" d="M6,498 L20,498 L20,500.228571 L6,500.228571 L6,498 L6,498 Z M6,502.457143 L20,502.457143 L20,504.685714 L6,504.685714 L6,502.457143 L6,502.457143 Z M6,506.914286 L20,506.914286 L20,509.142857 L6,509.142857 L6,506.914286 L6,506.914286 Z"/>
    <path fill="#535C69" d="M6,515 L20,515 L20,517.228571 L6,517.228571 L6,515 L6,515 Z M6,519.457143 L20,519.457143 L20,521.685714 L6,521.685714 L6,519.457143 L6,519.457143 Z M6,523.914286 L20,523.914286 L20,526.142857 L6,526.142857 L6,523.914286 L6,523.914286 Z"/>
    <path fill="#535C69" d="M6,515 L20,515 L20,517.228571 L6,517.228571 L6,515 L6,515 Z M6,519.457143 L20,519.457143 L20,521.685714 L6,521.685714 L6,519.457143 L6,519.457143 Z M6,523.914286 L20,523.914286 L20,526.142857 L6,526.142857 L6,523.914286 L6,523.914286 Z"/>
    <polygon fill="#AEAFAF" points="3.264 3.49 .859 3.49 .859 10.154 .859 11.356 13.987 11.356 13.987 8.951 3.264 8.951" transform="rotate(-45 743.758 312.423)"/>
    <polygon fill="#535C69" points="3.264 3.49 .859 3.49 .859 10.154 .859 11.356 13.987 11.356 13.987 8.951 3.264 8.951" transform="rotate(-45 761.865 319.923)"/>
    <path fill="#535C69" d="M4.65832346,2.55351539 L3.037246,2.55351539 C2.77946102,2.55351539 2.56852537,2.76445104 2.56852537,3.02223602 L2.56852537,4.58645751 C2.56852537,4.84424248 2.77946102,5.05517814 3.037246,5.05517814 L4.65832346,5.05517814 C4.91610843,5.05517814 5.12704409,4.84424248 5.12704409,4.58645751 L5.12704409,3.02223602 C5.12704409,2.76445104 4.91610843,2.55351539 4.65832346,2.55351539 L4.65832346,2.55351539 L4.65832346,2.55351539 Z M8.75161227,4.58645751 C8.75161227,4.84424248 8.96254792,5.05517814 9.22033294,5.05517814 L10.8414103,5.05517814 C11.0991953,5.05517814 11.3101309,4.84424248 11.3101309,4.58645751 L11.3101309,3.02223602 C11.3101309,2.76445104 11.0991953,2.55351539 10.8414103,2.55351539 L9.22033294,2.55351539 C8.96254792,2.55351539 8.75161227,2.76445104 8.75161227,3.02223602 L8.75161227,4.58645751 L8.75161227,4.58645751 Z M12.2427963,8.95481551 L8.40763364,8.95481551 C8.35055025,8.95481551 8.29790162,8.97369169 8.25457737,9.00473505 C8.23058415,9.01701594 8.20761434,9.03191221 8.18760103,9.05192551 L7.52534268,9.71418391 L7.52534268,2.67757512 C7.57662676,2.66847816 7.62575032,2.64448494 7.66520837,2.6050269 L8.86623391,1.40388765 L12.2427963,1.40388765 L12.2427963,8.95481551 L12.2427963,8.95481551 Z M6.12145503,9.71418391 L5.45919667,9.05192551 C5.43918337,9.03191221 5.41621356,9.01701594 5.39222034,9.00473505 C5.34889609,8.97369169 5.29624746,8.95481551 5.23916406,8.95481551 L1.40400136,8.95481551 L1.40400136,1.40388765 L4.7805638,1.40388765 L5.98158934,2.6050269 C6.02104738,2.64448494 6.07017094,2.66847816 6.12145503,2.67757512 L6.12145503,9.71418391 L6.12145503,9.71418391 Z M13.646684,1.13962109 L13.646684,0.264266552 C13.646684,0.118942692 13.5277413,0 13.3824174,0 L8.40763364,0 C8.35055025,0 8.29790162,0.018876182 8.25457737,0.049919542 C8.23058415,0.062200432 8.20761434,0.077096702 8.18760103,0.097110002 L6.82339885,1.46131218 L5.45919667,0.097110002 C5.43918337,0.077096702 5.41621356,0.062200432 5.39222034,0.049919542 C5.34889609,0.018876182 5.29624746,0 5.23916406,0 L0.264380269,0 C0.119056404,0 0.000113712,0.118942692 0.000113712,0.264266552 L0.000113712,0.593917482 C0.000113712,0.594031192 0,0.594031192 0,0.594144902 L0,9.96480501 C0,9.96491871 0.000113712,9.96491871 0.000113712,9.96503241 L0.000113712,10.0944366 C0.000113712,10.2398742 0.119056404,10.3587031 0.264380269,10.3587031 L4.7805638,10.3587031 L5.98158934,11.5598424 C6.04197038,11.6201097 6.12475268,11.644103 6.20366876,11.6335277 C6.25120036,11.6790125 6.31522018,11.7073268 6.38572158,11.7073268 L7.26107612,11.7073268 C7.33157753,11.7073268 7.39548364,11.6788988 7.44301523,11.6335277 C7.52204503,11.644103 7.60482733,11.6202234 7.66520837,11.5598424 L8.86623391,10.3587031 L13.3824174,10.3587031 C13.5277413,10.3587031 13.646684,10.2398742 13.646684,10.0944366 L13.646684,9.21908211 L13.646684,9.21896831 L13.646684,1.1397348 C13.646684,1.1397348 13.646684,1.1397348 13.646684,1.13962109 L13.646684,1.13962109 L13.646684,1.13962109 Z" transform="translate(.45 644.89)"/>
    <path fill="#BABEC3" d="M7.94173283,31.5150107 C6.50890191,31.5150107 5.34680737,30.3526656 5.34680737,28.9200078 C5.34680737,27.4871337 6.50890191,26.3250049 7.94173283,26.3250049 C9.37431633,26.3250049 10.5366267,27.4871337 10.5366267,28.9200078 C10.5366267,30.3526656 9.37431633,31.5150107 7.94173283,31.5150107 M14.3335883,27.9122508 L12.9626183,27.6835352 C12.8629759,27.2761507 12.7176921,26.8867303 12.5284784,26.5235226 L13.4061343,25.4352896 C13.5927992,25.2053074 13.584319,24.8743982 13.3875221,24.6524328 L12.8422634,24.038761 C12.6446169,23.8170272 12.3168529,23.7701318 12.0668437,23.9280872 L10.8944014,24.6651298 C10.3787219,24.304826 9.79458573,24.038761 9.16445222,23.8843737 L8.93507879,22.5060101 C8.88694948,22.2141495 8.63439264,22 8.33792176,22 L7.51622683,22 C7.22035926,22 6.96695168,22.2141495 6.91988777,22.5060101 L6.68926479,23.8848062 C6.16828651,24.012363 5.67982263,24.2182641 5.23405261,24.4894419 L4.11903779,23.6936719 C3.87872907,23.5219847 3.54866371,23.5488306 3.33895438,23.758099 L2.75844715,24.3390399 C2.54918522,24.5487563 2.52234014,24.8788314 2.6944702,25.1191472 L3.49206997,26.2363268 C3.22344856,26.6787439 3.01966953,27.164442 2.89213251,27.6808012 L1.50596442,27.9122662 C1.21456068,27.9603973 1,28.2129776 1,28.5094721 L1,29.3305434 C1,29.6270071 1.21456068,29.8796182 1.50596442,29.9277494 L2.89213251,30.1592144 C2.99687138,30.5841152 3.14892157,30.989986 3.35101721,31.3663078 L2.47736183,32.448393 C2.29133076,32.678159 2.29914556,33.0092845 2.49594359,33.2310491 L3.04078428,33.8447364 C3.2384466,34.0668871 3.56638004,34.112933 3.81641969,33.9553792 L5.00576039,33.2082347 C5.50900652,33.5524587 6.0783299,33.805456 6.68926479,33.9553792 L6.91988777,35.3339745 C6.9669675,35.6258506 7.22035926,35.8400002 7.51622683,35.8400002 L8.33792176,35.8400002 C8.63439264,35.8400002 8.88694948,35.6258661 8.93507879,35.33399 L9.16483748,33.9553947 C9.67931265,33.8295525 10.161583,33.6272349 10.603384,33.3607066 L11.7648594,34.1902579 C12.0047355,34.362563 12.3350482,34.3355318 12.5445418,34.1255991 L13.1252806,33.544859 C13.3342951,33.335776 13.3626078,33.0058862 13.189026,32.7651379 L12.3621091,31.6057431 C12.6315033,31.1618432 12.8363636,30.6752801 12.9630973,30.1566194 L14.3340515,29.927703 C14.6263049,29.8795719 14.8400002,29.6269762 14.8400002,29.3304971 L14.8400002,28.5094258 C14.8395674,28.2129776 14.6258722,27.9603973 14.3335883,27.9122508"/>
    <path fill="#535C69" d="M47.9417328,31.5150107 C46.5089019,31.5150107 45.3468074,30.3526656 45.3468074,28.9200078 C45.3468074,27.4871337 46.5089019,26.3250049 47.9417328,26.3250049 C49.3743163,26.3250049 50.5366267,27.4871337 50.5366267,28.9200078 C50.5366267,30.3526656 49.3743163,31.5150107 47.9417328,31.5150107 M54.3335883,27.9122508 L52.9626183,27.6835352 C52.8629759,27.2761507 52.7176921,26.8867303 52.5284784,26.5235226 L53.4061343,25.4352896 C53.5927992,25.2053074 53.584319,24.8743982 53.3875221,24.6524328 L52.8422634,24.038761 C52.6446169,23.8170272 52.3168529,23.7701318 52.0668437,23.9280872 L50.8944014,24.6651298 C50.3787219,24.304826 49.7945857,24.038761 49.1644522,23.8843737 L48.9350788,22.5060101 C48.8869495,22.2141495 48.6343926,22 48.3379218,22 L47.5162268,22 C47.2203593,22 46.9669517,22.2141495 46.9198878,22.5060101 L46.6892648,23.8848062 C46.1682865,24.012363 45.6798226,24.2182641 45.2340526,24.4894419 L44.1190378,23.6936719 C43.8787291,23.5219847 43.5486637,23.5488306 43.3389544,23.758099 L42.7584472,24.3390399 C42.5491852,24.5487563 42.5223401,24.8788314 42.6944702,25.1191472 L43.49207,26.2363268 C43.2234486,26.6787439 43.0196695,27.164442 42.8921325,27.6808012 L41.5059644,27.9122662 C41.2145607,27.9603973 41,28.2129776 41,28.5094721 L41,29.3305434 C41,29.6270071 41.2145607,29.8796182 41.5059644,29.9277494 L42.8921325,30.1592144 C42.9968714,30.5841152 43.1489216,30.989986 43.3510172,31.3663078 L42.4773618,32.448393 C42.2913308,32.678159 42.2991456,33.0092845 42.4959436,33.2310491 L43.0407843,33.8447364 C43.2384466,34.0668871 43.56638,34.112933 43.8164197,33.9553792 L45.0057604,33.2082347 C45.5090065,33.5524587 46.0783299,33.805456 46.6892648,33.9553792 L46.9198878,35.3339745 C46.9669675,35.6258506 47.2203593,35.8400002 47.5162268,35.8400002 L48.3379218,35.8400002 C48.6343926,35.8400002 48.8869495,35.6258661 48.9350788,35.33399 L49.1648375,33.9553947 C49.6793127,33.8295525 50.161583,33.6272349 50.603384,33.3607066 L51.7648594,34.1902579 C52.0047355,34.362563 52.3350482,34.3355318 52.5445418,34.1255991 L53.1252806,33.544859 C53.3342951,33.335776 53.3626078,33.0058862 53.189026,32.7651379 L52.3621091,31.6057431 C52.6315033,31.1618432 52.8363636,30.6752801 52.9630973,30.1566194 L54.3340515,29.927703 C54.6263049,29.8795719 54.8400002,29.6269762 54.8400002,29.3304971 L54.8400002,28.5094258 C54.8395674,28.2129776 54.6258722,27.9603973 54.3335883,27.9122508"/>
    <polyline fill="#BABEC3" points="9.554 57.625 13.75 53.429 12.071 51.75 7.875 55.946 3.679 51.75 2 53.429 6.196 57.625 2 61.821 3.679 63.5 7.875 59.304 12.071 63.5 13.75 61.821 9.554 57.625 9.554 57.625"/>
    <polyline fill="#535C69" points="50.554 57.875 54.75 53.679 53.071 52 48.875 56.196 44.679 52 43 53.679 47.196 57.875 43 62.071 44.679 63.75 48.875 59.554 53.071 63.75 54.75 62.071 50.554 57.875 50.554 57.875"/>
    <path fill="#BABEC3" d="M1,90 L15,90 L15,92.2285714 L1,92.2285714 L1,90 L1,90 Z M1,94.4571429 L15,94.4571429 L15,96.6857143 L1,96.6857143 L1,94.4571429 L1,94.4571429 Z M1,98.9142857 L15,98.9142857 L15,101.142857 L1,101.142857 L1,98.9142857 L1,98.9142857 Z"/>
    <path fill="#535C69" d="M42,90 L56,90 L56,92.2285714 L42,92.2285714 L42,90 L42,90 Z M42,94.4571429 L56,94.4571429 L56,96.6857143 L42,96.6857143 L42,94.4571429 L42,94.4571429 Z M42,98.9142857 L56,98.9142857 L56,101.142857 L42,101.142857 L42,98.9142857 L42,98.9142857 Z"/>
    <polygon fill="#AEAFAF" points="9.486 7.485 9.486 2.485 7.486 2.485 7.486 7.485 2.486 7.485 2.486 9.485 7.486 9.485 7.486 14.485 9.486 14.485 9.486 9.485 14.486 9.485 14.486 7.485" transform="rotate(45 -789.912 337.778)"/>
    <polygon fill="#535C69" points="9.486 7.485 9.486 2.485 7.486 2.485 7.486 7.485 2.486 7.485 2.486 9.485 7.486 9.485 7.486 14.485 9.486 14.485 9.486 9.485 14.486 9.485 14.486 7.485" transform="rotate(45 -810.433 346.278)"/>
    <polygon fill="#3BC8F5" points="2.467 2.638 .649 2.638 .649 7.675 .649 8.584 10.572 8.584 10.572 6.766 2.467 6.766" transform="rotate(-45 856.414 355.196)"/>
  </g>
</svg>
