<svg width="158" height="129" viewBox="0 0 158 129" fill="none" xmlns="http://www.w3.org/2000/svg">
	<path fill-rule="evenodd" clip-rule="evenodd" d="M113.818 4.3377C114.776 4.3377 115.552 3.56123 115.552 2.60342C115.552 1.6456 114.776 0.869141 113.818 0.869141C112.86 0.869141 112.083 1.6456 112.083 2.60342C112.083 3.56123 112.86 4.3377 113.818 4.3377ZM28.2396 19.3191C30.316 19.3191 31.9993 17.6358 31.9993 15.5594C31.9993 13.483 30.316 11.7998 28.2396 11.7998C26.1632 11.7998 24.48 13.483 24.48 15.5594C24.48 17.6358 26.1632 19.3191 28.2396 19.3191ZM28.2396 17.2229C29.1583 17.2229 29.903 16.4781 29.903 15.5594C29.903 14.6408 29.1583 13.896 28.2396 13.896C27.3209 13.896 26.5762 14.6408 26.5762 15.5594C26.5762 16.4781 27.3209 17.2229 28.2396 17.2229ZM9.13949 56.0223C11.9361 56.0223 14.2032 53.7552 14.2032 50.9586C14.2032 48.1619 11.9361 45.8948 9.13949 45.8948C6.34286 45.8948 4.07575 48.1619 4.07575 50.9586C4.07575 53.7552 6.34286 56.0223 9.13949 56.0223ZM9.1395 53.3795C10.4766 53.3795 11.5605 52.2956 11.5605 50.9585C11.5605 49.6215 10.4766 48.5376 9.1395 48.5376C7.80243 48.5376 6.71852 49.6215 6.71852 50.9585C6.71852 52.2956 7.80243 53.3795 9.1395 53.3795ZM137.702 119.739C139.694 119.739 141.308 118.125 141.308 116.134C141.308 114.143 139.694 112.529 137.702 112.529C135.711 112.529 134.097 114.143 134.097 116.134C134.097 118.125 135.711 119.739 137.702 119.739ZM137.702 117.863C138.657 117.863 139.431 117.089 139.431 116.134C139.431 115.179 138.657 114.405 137.702 114.405C136.748 114.405 135.973 115.179 135.973 116.134C135.973 117.089 136.748 117.863 137.702 117.863ZM79.9996 129C114.241 129 142 101.241 142 66.9995C142 32.7579 114.241 4.99953 79.9996 4.99953C45.7579 4.99953 17.9996 32.7579 17.9996 66.9995C17.9996 101.241 45.7579 129 79.9996 129ZM17.9699 124.666H5.91696C5.81382 124.666 5.71158 124.662 5.61036 124.654C2.88636 124.59 0.697403 122.301 0.697266 119.487C0.698058 118.115 1.22908 116.8 2.17351 115.83C2.65761 115.333 3.23001 114.948 3.85277 114.691C3.84235 114.551 3.83705 114.41 3.83705 114.268C3.8379 112.82 4.39823 111.433 5.39475 110.41C6.39128 109.387 7.74238 108.813 9.15082 108.813C10.955 108.816 12.5479 109.743 13.5052 111.158C13.9598 110.993 14.4491 110.903 14.9589 110.903C17.2111 110.906 19.0608 112.67 19.2752 114.926C21.4332 115.41 23.048 117.385 23.0461 119.748C23.0439 122.47 20.8954 124.675 18.2466 124.674C18.1537 124.674 18.0614 124.671 17.9699 124.666ZM145.704 28.7846H154.258C154.323 28.7883 154.388 28.7902 154.454 28.7902C156.334 28.791 157.858 27.2874 157.86 25.4314C157.861 23.8208 156.715 22.4738 155.184 22.1441C155.032 20.6057 153.719 19.4028 152.121 19.4009C151.759 19.4007 151.412 19.462 151.089 19.5749C150.41 18.61 149.279 17.9778 147.999 17.9763C146.999 17.9757 146.04 18.3671 145.333 19.0646C144.626 19.762 144.228 20.7082 144.228 21.6951C144.228 21.7922 144.232 21.8883 144.239 21.9835C143.797 22.159 143.391 22.4216 143.047 22.7604C142.377 23.4214 142 24.3182 142 25.2535C142 27.1725 143.553 28.7333 145.486 28.7767C145.558 28.782 145.631 28.7846 145.704 28.7846Z" fill="#E5F9FF"/>
	<path opacity="0.3" d="M69.938 39.3897C70.6648 36.2885 73.7695 34.3571 76.8726 35.0759L112.539 43.3377C115.642 44.0565 117.569 47.1533 116.842 50.2546L105.87 97.074C105.144 100.175 102.039 102.107 98.9357 101.388L63.2691 93.126C60.166 92.4072 58.2395 89.3104 58.9663 86.2092L69.938 39.3897Z" fill="white"/>
	<path opacity="0.3" fill-rule="evenodd" clip-rule="evenodd" d="M76.7897 35.4266C76.5562 35.3725 76.3229 35.3344 76.0909 35.3116L76.1631 34.5945C76.4261 34.6204 76.6903 34.6635 76.9542 34.7246L77.6401 34.8835L77.4756 35.5854L76.7897 35.4266ZM80.2192 36.221L78.8474 35.9032L79.0119 35.2013L80.3837 35.5191L80.2192 36.221ZM82.9628 36.8565L81.591 36.5387L81.7555 35.8368L83.1273 36.1546L82.9628 36.8565ZM85.7064 37.492L84.3346 37.1743L84.4991 36.4723L85.8709 36.7901L85.7064 37.492ZM88.45 38.1275L87.0782 37.8098L87.2427 37.1079L88.6145 37.4256L88.45 38.1275ZM91.1936 38.7631L89.8218 38.4453L89.9863 37.7434L91.3581 38.0611L91.1936 38.7631ZM93.9372 39.3986L92.5654 39.0808L92.7299 38.3789L94.1017 38.6967L93.9372 39.3986ZM96.6808 40.0341L95.309 39.7163L95.4734 39.0144L96.8452 39.3322L96.6808 40.0341ZM99.4243 40.6696L98.0526 40.3519L98.217 39.65L99.5888 39.9677L99.4243 40.6696ZM102.168 41.3052L100.796 40.9874L100.961 40.2855L102.332 40.6032L102.168 41.3052ZM104.912 41.9407L103.54 41.6229L103.704 40.921L105.076 41.2388L104.912 41.9407ZM107.655 42.5762L106.283 42.2584L106.448 41.5565L107.82 41.8743L107.655 42.5762ZM110.399 43.2117L109.027 42.894L109.191 42.1921L110.563 42.5098L110.399 43.2117ZM112.456 43.6884L111.77 43.5295L111.935 42.8276L112.621 42.9865C112.885 43.0476 113.141 43.125 113.388 43.2174L113.134 43.8924C112.916 43.8108 112.69 43.7425 112.456 43.6884ZM115.408 45.5186C115.111 45.1561 114.766 44.8313 114.379 44.5547L114.8 43.9687C115.238 44.2824 115.63 44.6506 115.967 45.0612L115.408 45.5186ZM74.6799 35.3588C74.2103 35.4371 73.7561 35.5768 73.3283 35.7712L73.0308 35.1156C73.5154 34.8953 74.0301 34.7369 74.5628 34.6482L74.6799 35.3588ZM116.563 48.0653C116.486 47.5964 116.347 47.1431 116.153 46.7162L116.81 46.4175C117.03 46.901 117.187 47.4148 117.275 47.9467L116.563 48.0653ZM72.1277 36.5181C71.7641 36.816 71.4381 37.1616 71.1603 37.5483L70.5746 37.1291C70.8896 36.6905 71.2592 36.2988 71.671 35.9614L72.1277 36.5181ZM116.49 50.1729C116.545 49.9395 116.584 49.7064 116.607 49.4746L117.325 49.5451C117.298 49.8079 117.254 50.0718 117.193 50.3356L117.031 51.0241L116.329 50.8614L116.49 50.1729ZM70.4943 38.7931C70.4122 39.0113 70.3433 39.2374 70.2886 39.4708L70.1272 40.1593L69.4249 39.9966L69.5862 39.3081C69.648 39.0443 69.7261 38.7883 69.8192 38.541L70.4943 38.7931ZM115.684 53.6155L116.006 52.2385L116.709 52.4011L116.386 53.7782L115.684 53.6155ZM69.8045 41.5363L69.4818 42.9134L68.7795 42.7507L69.1022 41.3736L69.8045 41.5363ZM115.038 56.3696L115.361 54.9925L116.063 55.1552L115.74 56.5323L115.038 56.3696ZM69.1591 44.2904L68.8364 45.6675L68.1341 45.5048L68.4568 44.1277L69.1591 44.2904ZM114.393 59.1237L114.715 57.7466L115.418 57.9093L115.095 59.2864L114.393 59.1237ZM68.5137 47.0445L68.191 48.4215L67.4887 48.2589L67.8114 46.8818L68.5137 47.0445ZM113.747 61.8778L114.07 60.5007L114.772 60.6634L114.45 62.0404L113.747 61.8778ZM67.8683 49.7986L67.5456 51.1756L66.8433 51.0129L67.166 49.6359L67.8683 49.7986ZM113.102 64.6318L113.425 63.2548L114.127 63.4175L113.804 64.7945L113.102 64.6318ZM67.2229 52.5527L66.9002 53.9297L66.1979 53.767L66.5206 52.39L67.2229 52.5527ZM112.457 67.3859L112.779 66.0089L113.482 66.1716L113.159 67.5486L112.457 67.3859ZM66.5775 55.3068L66.2548 56.6838L65.5525 56.5211L65.8752 55.1441L66.5775 55.3068ZM111.811 70.14L112.134 68.763L112.836 68.9257L112.513 70.3027L111.811 70.14ZM65.9322 58.0608L65.6095 59.4379L64.9071 59.2752L65.2298 57.8982L65.9322 58.0608ZM111.166 72.8941L111.488 71.5171L112.191 71.6797L111.868 73.0568L111.166 72.8941ZM65.2868 60.8149L64.9641 62.192L64.2617 62.0293L64.5844 60.6522L65.2868 60.8149ZM110.52 75.6482L110.843 74.2711L111.545 74.4338L111.223 75.8109L110.52 75.6482ZM64.6414 63.569L64.3187 64.9461L63.6163 64.7834L63.939 63.4063L64.6414 63.569ZM109.875 78.4023L110.198 77.0252L110.9 77.1879L110.577 78.565L109.875 78.4023ZM63.996 66.3231L63.6733 67.7001L62.9709 67.5375L63.2936 66.1604L63.996 66.3231ZM109.23 81.1564L109.552 79.7793L110.255 79.942L109.932 81.319L109.23 81.1564ZM63.3506 69.0772L63.0279 70.4542L62.3255 70.2915L62.6482 68.9145L63.3506 69.0772ZM108.584 83.9104L108.907 82.5334L109.609 82.6961L109.287 84.0731L108.584 83.9104ZM62.7052 71.8313L62.3825 73.2083L61.6801 73.0456L62.0028 71.6686L62.7052 71.8313ZM107.939 86.6645L108.261 85.2875L108.964 85.4502L108.641 86.8272L107.939 86.6645ZM62.0598 74.5854L61.7371 75.9624L61.0348 75.7997L61.3575 74.4227L62.0598 74.5854ZM107.293 89.4186L107.616 88.0416L108.318 88.2043L107.996 89.5813L107.293 89.4186ZM61.4144 77.3394L61.0917 78.7165L60.3894 78.5538L60.7121 77.1768L61.4144 77.3394ZM106.648 92.1727L106.971 90.7957L107.673 90.9583L107.35 92.3354L106.648 92.1727ZM60.769 80.0935L60.4463 81.4706L59.744 81.3079L60.0667 79.9308L60.769 80.0935ZM106.003 94.9268L106.325 93.5497L107.028 93.7124L106.705 95.0895L106.003 94.9268ZM60.1236 82.8476L59.8009 84.2247L59.0986 84.062L59.4213 82.6849L60.1236 82.8476ZM105.519 96.9924L105.68 96.3038L106.382 96.4665L106.221 97.155C106.159 97.4188 106.081 97.6748 105.988 97.9222L105.313 97.6701C105.395 97.4518 105.464 97.2257 105.519 96.9924ZM59.4782 85.6017L59.3169 86.2902C59.2622 86.5236 59.2235 86.7567 59.2002 86.9886L58.4825 86.918C58.5089 86.6553 58.5527 86.3913 58.6145 86.1275L58.7759 85.439L59.4782 85.6017ZM103.679 99.945C104.043 99.6472 104.369 99.3015 104.647 98.9148L105.233 99.334C104.917 99.7726 104.548 100.164 104.136 100.502L103.679 99.945ZM59.2442 88.3978C59.3215 88.8667 59.4603 89.32 59.654 89.7469L58.9969 90.0456C58.7774 89.5621 58.6201 89.0483 58.5324 88.5164L59.2442 88.3978ZM101.127 101.104C101.597 101.026 102.051 100.886 102.479 100.692L102.776 101.348C102.292 101.568 101.777 101.726 101.244 101.815L101.127 101.104ZM60.399 90.9445C60.6963 91.307 61.0416 91.6318 61.428 91.9084L61.0071 92.4944C60.5687 92.1808 60.1774 91.8125 59.8406 91.402L60.399 90.9445ZM62.6727 92.5708C62.891 92.6523 63.1172 92.7207 63.3507 92.7747L64.0366 92.9336L63.8721 93.6355L63.1862 93.4767C62.9223 93.4155 62.6662 93.3381 62.4188 93.2457L62.6727 92.5708ZM99.0174 101.037C99.2509 101.091 99.4842 101.129 99.7162 101.152L99.644 101.869C99.381 101.843 99.1168 101.8 98.8529 101.738L98.167 101.58L98.3315 100.878L99.0174 101.037ZM65.4084 93.2514L66.7802 93.5692L66.6157 94.2711L65.2439 93.9533L65.4084 93.2514ZM68.152 93.8869L69.5238 94.2047L69.3593 94.9066L67.9875 94.5888L68.152 93.8869ZM70.8956 94.5224L72.2674 94.8402L72.1029 95.5421L70.7311 95.2244L70.8956 94.5224ZM73.6392 95.158L75.011 95.4757L74.8465 96.1776L73.4747 95.8599L73.6392 95.158ZM76.3828 95.7935L77.7546 96.1112L77.5901 96.8132L76.2183 96.4954L76.3828 95.7935ZM79.1264 96.429L80.4981 96.7468L80.3337 97.4487L78.9619 97.1309L79.1264 96.429ZM81.8699 97.0645L83.2417 97.3823L83.0773 98.0842L81.7055 97.7664L81.8699 97.0645ZM84.6135 97.7001L85.9853 98.0178L85.8208 98.7197L84.449 98.402L84.6135 97.7001ZM87.3571 98.3356L88.7289 98.6533L88.5644 99.3553L87.1926 99.0375L87.3571 98.3356ZM90.1007 98.9711L91.4725 99.2889L91.308 99.9908L89.9362 99.673L90.1007 98.9711ZM92.8443 99.6066L94.2161 99.9244L94.0516 100.626L92.6798 100.309L92.8443 99.6066ZM95.5879 100.242L96.9597 100.56L96.7952 101.262L95.4234 100.944L95.5879 100.242Z" fill="#2FC6F6"/>
	<path opacity="0.3" d="M43.2899 63.9203C42.461 60.8448 44.2842 57.6869 47.3621 56.8669L82.7352 47.4435C85.8131 46.6235 88.9802 48.452 89.8091 51.5276L100.737 92.0757C101.566 95.1512 99.7428 98.3092 96.6648 99.1291L61.2918 108.553C58.2139 109.372 55.0468 107.544 54.2179 104.468L43.2899 63.9203Z" fill="white"/>
	<path opacity="0.3" fill-rule="evenodd" clip-rule="evenodd" d="M47.4566 57.2153C47.225 57.277 47.0012 57.3528 46.7857 57.4414L46.5096 56.7751C46.7538 56.6747 47.0072 56.589 47.269 56.5192L47.9493 56.338L48.1369 57.0341L47.4566 57.2153ZM50.8579 56.3092L49.4974 56.6717L49.3098 55.9756L50.6703 55.6131L50.8579 56.3092ZM53.5789 55.5843L52.2184 55.9468L52.0308 55.2507L53.3913 54.8882L53.5789 55.5843ZM56.2999 54.8595L54.9394 55.2219L54.7518 54.5258L56.1123 54.1634L56.2999 54.8595ZM59.0209 54.1346L57.6604 54.497L57.4728 53.8009L58.8333 53.4385L59.0209 54.1346ZM61.7419 53.4097L60.3814 53.7721L60.1938 53.0761L61.5543 52.7136L61.7419 53.4097ZM64.4629 52.6848L63.1024 53.0473L62.9148 52.3512L64.2753 51.9887L64.4629 52.6848ZM67.1839 51.96L65.8234 52.3224L65.6358 51.6263L66.9963 51.2639L67.1839 51.96ZM69.9049 51.2351L68.5444 51.5975L68.3568 50.9014L69.7173 50.539L69.9049 51.2351ZM72.6259 50.5102L71.2654 50.8726L71.0778 50.1765L72.4383 49.8141L72.6259 50.5102ZM75.347 49.7853L73.9864 50.1478L73.7988 49.4517L75.1593 49.0892L75.347 49.7853ZM78.068 49.0605L76.7075 49.4229L76.5199 48.7268L77.8804 48.3644L78.068 49.0605ZM80.789 48.3356L79.4285 48.698L79.2409 48.0019L80.6014 47.6395L80.789 48.3356ZM82.8297 47.7919L82.1495 47.9731L81.9619 47.277L82.6421 47.0958C82.9039 47.0261 83.1665 46.9743 83.4285 46.9399L83.5245 47.6542C83.2933 47.6845 83.0613 47.7302 82.8297 47.7919ZM45.5635 58.1441C45.1863 58.4331 44.8519 58.7691 44.5667 59.141L43.9935 58.7022C44.3166 58.2809 44.6956 57.9 45.1234 57.5722L45.5635 58.1441ZM86.3009 48.023C85.8669 47.8427 85.4083 47.718 84.9363 47.6552L85.0299 46.9411C85.5652 47.0123 86.085 47.1537 86.5766 47.358L86.3009 48.023ZM43.8617 60.3623C43.6821 60.7953 43.5584 61.2528 43.4967 61.724L42.7813 61.6288C42.8513 61.0944 42.9916 60.5757 43.195 60.0853L43.8617 60.3623ZM88.5266 49.728C88.2362 49.3507 87.8989 49.0159 87.5257 48.7302L87.9638 48.1589C88.3865 48.4825 88.7688 48.8619 89.0982 49.2899L88.5266 49.728ZM89.4615 51.6207C89.3991 51.3893 89.3227 51.1656 89.2334 50.9502L89.8999 50.6761C90.0011 50.9203 90.0876 51.1735 90.1581 51.4352L90.3403 52.111L89.6436 52.2965L89.4615 51.6207ZM43.4992 63.1338C43.5302 63.3647 43.5765 63.5965 43.6389 63.8279L43.821 64.5037L43.1244 64.6893L42.9423 64.0135C42.8718 63.7519 42.8193 63.4895 42.7842 63.2278L43.4992 63.1338ZM90.3722 54.9997L90.0079 53.6481L90.7045 53.4626L91.0688 54.8142L90.3722 54.9997ZM44.1853 65.8553L44.5496 67.2069L43.8529 67.3925L43.4887 66.0409L44.1853 65.8553ZM91.1007 57.703L90.7364 56.3514L91.4331 56.1658L91.7973 57.5174L91.1007 57.703ZM44.9138 68.5585L45.2781 69.9101L44.5815 70.0957L44.2172 68.7441L44.9138 68.5585ZM91.8292 60.4062L91.465 59.0546L92.1616 58.869L92.5259 60.2206L91.8292 60.4062ZM45.6424 71.2617L46.0066 72.6133L45.31 72.7989L44.9457 71.4473L45.6424 71.2617ZM92.5578 63.1094L92.1935 61.7578L92.8901 61.5722L93.2544 62.9238L92.5578 63.1094ZM46.3709 73.9649L46.7352 75.3165L46.0385 75.5021L45.6743 74.1505L46.3709 73.9649ZM93.2863 65.8126L92.922 64.461L93.6187 64.2754L93.9829 65.627L93.2863 65.8126ZM47.0994 76.6681L47.4637 78.0197L46.7671 78.2053L46.4028 76.8537L47.0994 76.6681ZM94.0148 68.5158L93.6506 67.1642L94.3472 66.9786L94.7115 68.3302L94.0148 68.5158ZM47.828 79.3713L48.1922 80.723L47.4956 80.9085L47.1313 79.5569L47.828 79.3713ZM94.7434 71.219L94.3791 69.8674L95.0757 69.6818L95.44 71.0334L94.7434 71.219ZM48.5565 82.0746L48.9208 83.4262L48.2241 83.6117L47.8599 82.2601L48.5565 82.0746ZM95.4719 73.9222L95.1076 72.5706L95.8043 72.385L96.1685 73.7366L95.4719 73.9222ZM49.285 84.7778L49.6493 86.1294L48.9527 86.315L48.5884 84.9634L49.285 84.7778ZM96.2004 76.6254L95.8362 75.2738L96.5328 75.0882L96.8971 76.4398L96.2004 76.6254ZM50.0136 87.481L50.3778 88.8326L49.6812 89.0182L49.3169 87.6666L50.0136 87.481ZM96.929 79.3286L96.5647 77.977L97.2613 77.7914L97.6256 79.143L96.929 79.3286ZM50.7421 90.1842L51.1064 91.5358L50.4097 91.7214L50.0455 90.3698L50.7421 90.1842ZM97.6575 82.0318L97.2932 80.6802L97.9899 80.4946L98.3541 81.8463L97.6575 82.0318ZM51.4706 92.8874L51.8349 94.239L51.1383 94.4246L50.774 93.073L51.4706 92.8874ZM98.386 84.735L98.0218 83.3834L98.7184 83.1979L99.0827 84.5495L98.386 84.735ZM52.1992 95.5906L52.5634 96.9422L51.8668 97.1278L51.5025 95.7762L52.1992 95.5906ZM99.1146 87.4383L98.7503 86.0866L99.4469 85.9011L99.8112 87.2527L99.1146 87.4383ZM52.9277 98.2938L53.292 99.6454L52.5953 99.831L52.2311 98.4794L52.9277 98.2938ZM99.8431 90.1415L99.4788 88.7899L100.175 88.6043L100.54 89.9559L99.8431 90.1415ZM53.6562 100.997L54.0205 102.349L53.3239 102.534L52.9596 101.183L53.6562 100.997ZM100.389 92.1689L100.207 91.4931L100.904 91.3075L101.086 91.9833C101.157 92.2449 101.209 92.5072 101.244 92.769L100.529 92.863C100.498 92.632 100.452 92.4003 100.389 92.1689ZM54.3848 103.7L54.5669 104.376C54.6293 104.607 54.7057 104.831 54.795 105.047L54.1285 105.321C54.0273 105.076 53.9408 104.823 53.8703 104.562L53.6881 103.886L54.3848 103.7ZM100.167 95.6345C100.346 95.2015 100.47 94.7439 100.532 94.2728L101.247 94.368C101.177 94.9024 101.037 95.4211 100.833 95.9115L100.167 95.6345ZM55.5018 106.269C55.7922 106.646 56.1295 106.981 56.5027 107.267L56.0646 107.838C55.6419 107.514 55.2596 107.135 54.9302 106.707L55.5018 106.269ZM57.7275 107.974C58.1615 108.154 58.6201 108.279 59.0921 108.342L58.9985 109.056C58.4632 108.984 57.9434 108.843 57.4518 108.639L57.7275 107.974ZM98.4649 97.8527C98.8421 97.5636 99.1765 97.2277 99.4617 96.8557L100.035 97.2946C99.7118 97.7159 99.3329 98.0967 98.905 98.4246L98.4649 97.8527ZM60.5039 108.343C60.7351 108.312 60.9671 108.267 61.1987 108.205L61.8789 108.024L62.0665 108.72L61.3863 108.901C61.1245 108.971 60.8619 109.022 60.5999 109.057L60.5039 108.343ZM96.5718 98.7815C96.8034 98.7198 97.0272 98.644 97.2427 98.5554L97.5188 99.2216C97.2746 99.3221 97.0212 99.4078 96.7594 99.4775L96.0791 99.6588L95.8915 98.9627L96.5718 98.7815ZM63.2394 107.661L64.5999 107.299L64.7875 107.995L63.427 108.357L63.2394 107.661ZM65.9604 106.936L67.321 106.574L67.5086 107.27L66.1481 107.632L65.9604 106.936ZM68.6815 106.211L70.042 105.849L70.2296 106.545L68.8691 106.908L68.6815 106.211ZM71.4025 105.487L72.763 105.124L72.9506 105.82L71.5901 106.183L71.4025 105.487ZM74.1235 104.762L75.484 104.399L75.6716 105.095L74.3111 105.458L74.1235 104.762ZM76.8445 104.037L78.205 103.674L78.3926 104.37L77.0321 104.733L76.8445 104.037ZM79.5655 103.312L80.926 102.949L81.1136 103.646L79.7531 104.008L79.5655 103.312ZM82.2865 102.587L83.647 102.225L83.8346 102.921L82.4741 103.283L82.2865 102.587ZM85.0075 101.862L86.368 101.5L86.5556 102.196L85.1951 102.558L85.0075 101.862ZM87.7285 101.137L89.089 100.775L89.2766 101.471L87.9161 101.833L87.7285 101.137ZM90.4495 100.412L91.81 100.05L91.9976 100.746L90.6371 101.109L90.4495 100.412ZM93.1705 99.6875L94.531 99.3251L94.7186 100.021L93.3581 100.384L93.1705 99.6875Z" fill="#2FC6F6"/>
	<g opacity="0.8" filter="url(#filter0_d_1375_17355)">
		<path d="M51.1621 38.1C51.1621 35.711 53.0987 33.7744 55.4877 33.7744H104.511C106.9 33.7744 108.837 35.711 108.837 38.1V101.125C108.837 103.514 106.9 105.451 104.511 105.451H55.4877C53.0987 105.451 51.1621 103.514 51.1621 101.125V38.1Z" fill="#2FC6F6"/>
	</g>
	<path d="M52.6035 36.6581C52.6035 35.0655 53.8946 33.7744 55.4872 33.7744H104.51C106.103 33.7744 107.394 35.0655 107.394 36.6581V101.133C107.394 102.726 106.103 104.017 104.51 104.017H55.4872C53.8946 104.017 52.6035 102.726 52.6035 101.133V36.6581Z" fill="#ECFAFE"/>
	<g filter="url(#filter1_d_1375_17355)">
		<path d="M52.6035 36.6581C52.6035 35.0655 53.8946 33.7744 55.4872 33.7744H104.51C106.103 33.7744 107.394 35.0655 107.394 36.6581V98.2664C107.394 99.8591 106.103 101.15 104.51 101.15H55.4872C53.8946 101.15 52.6035 99.8591 52.6035 98.2664V36.6581Z" fill="white"/>
	</g>
	<path opacity="0.6" d="M102.348 84.3937C102.348 91.5606 96.5381 97.3705 89.3713 97.3705C82.2044 97.3705 76.3945 91.5606 76.3945 84.3937C76.3945 77.2269 82.2044 71.417 89.3713 71.417C96.5381 71.417 102.348 77.2269 102.348 84.3937ZM84.4401 84.3937C84.4401 87.1171 86.6479 89.3249 89.3713 89.3249C92.0947 89.3249 94.3024 87.1171 94.3024 84.3937C94.3024 81.6703 92.0947 79.4626 89.3713 79.4626C86.6479 79.4626 84.4401 81.6703 84.4401 84.3937Z" fill="#E5F9FF"/>
	<path d="M78.5496 88.3012C77.8063 88.576 77.4169 89.4038 77.7662 90.1152C78.4286 91.4643 79.3185 92.6908 80.3994 93.7381C81.8228 95.1171 83.5396 96.1487 85.4183 96.7538C87.297 97.3589 89.2879 97.5216 91.2384 97.2293C93.1889 96.937 95.0474 96.2528 96.6715 95.1228L92.2107 88.4491C91.5936 88.8785 90.8043 89.1088 90.0631 89.2199C89.3219 89.331 88.5654 89.2692 87.8515 89.0392C87.1376 88.8092 86.4852 88.4172 85.9443 87.8932C85.7516 87.7065 85.5748 87.5048 85.4155 87.2902C84.9384 86.6479 84.1199 86.2418 83.3694 86.5193L78.5496 88.3012Z" fill="#D3F4FF"/>
	<path d="M96.2483 95.3984C98.2302 94.1599 99.8407 92.4092 100.91 90.3312C101.979 88.2532 102.468 85.925 102.323 83.5925L94.293 84.0893C94.3479 84.9756 94.1623 85.8603 93.756 86.65C93.3497 87.4396 92.7376 88.1049 91.9846 88.5755L96.2483 95.3984Z" fill="#7FDEFC"/>
	<path d="M96.2483 95.3984C98.2302 94.1599 99.8407 92.4092 100.91 90.3312C101.979 88.2532 102.468 85.925 102.323 83.5925L94.293 84.0893C94.3479 84.9756 94.1623 85.8603 93.756 86.65C93.3497 87.4396 92.7376 88.1049 91.9846 88.5755L96.2483 95.3984Z" fill="white" fill-opacity="0.4"/>
	<path d="M102.348 84.394C102.348 82.6899 102.012 81.0024 101.36 79.428C100.708 77.8536 99.752 76.423 98.547 75.218C97.342 74.013 95.9115 73.0572 94.3371 72.405C93.2077 71.9372 92.0201 71.6323 90.81 71.4973C90.0186 71.409 89.3711 72.0628 89.3711 72.8591L89.3711 78.021C89.3711 78.8173 90.03 79.4426 90.7925 79.6721C90.9501 79.7196 91.1055 79.775 91.2582 79.8382C91.8564 80.086 92.4001 80.4492 92.858 80.9071C93.3159 81.365 93.6791 81.9086 93.9269 82.5069C94.1747 83.1052 94.3023 83.7464 94.3023 84.394H102.348Z" fill="#2FC6F6"/>
	<path d="M102.348 84.394C102.348 82.6899 102.012 81.0024 101.36 79.428C100.708 77.8536 99.752 76.423 98.547 75.218C97.342 74.013 95.9115 73.0572 94.3371 72.405C93.2077 71.9372 92.0201 71.6323 90.81 71.4973C90.0186 71.409 89.3711 72.0628 89.3711 72.8591L89.3711 78.021C89.3711 78.8173 90.03 79.4426 90.7925 79.6721C90.9501 79.7196 91.1055 79.775 91.2582 79.8382C91.8564 80.086 92.4001 80.4492 92.858 80.9071C93.3159 81.365 93.6791 81.9086 93.9269 82.5069C94.1747 83.1052 94.3023 83.7464 94.3023 84.394H102.348Z" fill="white" fill-opacity="0.4"/>
	<rect x="59.0918" y="47.3926" width="34.6047" height="2.86705" rx="1.43353" fill="#C3F0FF"/>
	<rect x="59.0918" y="54.5605" width="34.6047" height="2.86705" rx="1.43353" fill="#C3F0FF"/>
	<rect x="59.0918" y="61.7275" width="27.3953" height="2.86705" rx="1.43353" fill="#C3F0FF"/>
	<rect x="59.0918" y="68.8955" width="15.8605" height="2.86705" rx="1.43353" fill="#C3F0FF"/>
	<g filter="url(#filter2_d_1375_17355)">
		<path fill-rule="evenodd" clip-rule="evenodd" d="M84.3257 27.324C84.3257 27.8267 84.239 28.3092 84.0796 28.7575H86.6335C88.9641 28.7575 91.0838 30.1071 92.07 32.2188L93.8105 35.946C94.4297 37.272 93.4618 38.7922 91.9983 38.7922H67.9006C66.463 38.7922 65.4949 37.3207 66.064 36.0005L67.6236 32.3824C68.5719 30.1825 70.7379 28.7575 73.1335 28.7575H75.9207C75.7613 28.3092 75.6745 27.8267 75.6745 27.324C75.6745 24.9489 77.6112 23.0234 80.0001 23.0234C82.3891 23.0234 84.3257 24.9489 84.3257 27.324ZM80.0001 28.7575C80.7964 28.7575 81.4419 28.1157 81.4419 27.324C81.4419 26.5323 80.7964 25.8905 80.0001 25.8905C79.2038 25.8905 78.5582 26.5323 78.5582 27.324C78.5582 28.1157 79.2038 28.7575 80.0001 28.7575Z" fill="#7FDEFC"/>
	</g>
	<defs>
		<filter id="filter0_d_1375_17355" x="47.1621" y="31.7744" width="65.6738" height="79.6768" filterUnits="userSpaceOnUse" color-interpolation-filters="sRGB">
			<feFlood flood-opacity="0" result="BackgroundImageFix"/>
			<feColorMatrix in="SourceAlpha" type="matrix" values="0 0 0 0 0 0 0 0 0 0 0 0 0 0 0 0 0 0 127 0" result="hardAlpha"/>
			<feOffset dy="2"/>
			<feGaussianBlur stdDeviation="2"/>
			<feComposite in2="hardAlpha" operator="out"/>
			<feColorMatrix type="matrix" values="0 0 0 0 0.423529 0 0 0 0 0.423529 0 0 0 0 0.423529 0 0 0 0.14 0"/>
			<feBlend mode="normal" in2="BackgroundImageFix" result="effect1_dropShadow_1375_17355"/>
			<feBlend mode="normal" in="SourceGraphic" in2="effect1_dropShadow_1375_17355" result="shape"/>
		</filter>
		<filter id="filter1_d_1375_17355" x="41.0635" y="24.5044" width="77.871" height="90.456" filterUnits="userSpaceOnUse" color-interpolation-filters="sRGB">
			<feFlood flood-opacity="0" result="BackgroundImageFix"/>
			<feColorMatrix in="SourceAlpha" type="matrix" values="0 0 0 0 0 0 0 0 0 0 0 0 0 0 0 0 0 0 127 0" result="hardAlpha"/>
			<feOffset dy="2.27"/>
			<feGaussianBlur stdDeviation="5.77"/>
			<feComposite in2="hardAlpha" operator="out"/>
			<feColorMatrix type="matrix" values="0 0 0 0 0.392157 0 0 0 0 0.427451 0 0 0 0 0.482353 0 0 0 0.16 0"/>
			<feBlend mode="normal" in2="BackgroundImageFix" result="effect1_dropShadow_1375_17355"/>
			<feBlend mode="normal" in="SourceGraphic" in2="effect1_dropShadow_1375_17355" result="shape"/>
		</filter>
		<filter id="filter2_d_1375_17355" x="64.8984" y="22.0234" width="30.1016" height="17.7686" filterUnits="userSpaceOnUse" color-interpolation-filters="sRGB">
			<feFlood flood-opacity="0" result="BackgroundImageFix"/>
			<feColorMatrix in="SourceAlpha" type="matrix" values="0 0 0 0 0 0 0 0 0 0 0 0 0 0 0 0 0 0 127 0" result="hardAlpha"/>
			<feOffset/>
			<feGaussianBlur stdDeviation="0.5"/>
			<feComposite in2="hardAlpha" operator="out"/>
			<feColorMatrix type="matrix" values="0 0 0 0 0.392157 0 0 0 0 0.427451 0 0 0 0 0.482353 0 0 0 0.1 0"/>
			<feBlend mode="normal" in2="BackgroundImageFix" result="effect1_dropShadow_1375_17355"/>
			<feBlend mode="normal" in="SourceGraphic" in2="effect1_dropShadow_1375_17355" result="shape"/>
		</filter>
	</defs>
</svg>
