<svg width="64" height="64" viewBox="0 0 64 64" fill="none" xmlns="http://www.w3.org/2000/svg">
    <circle cx="32" cy="32" r="32" fill="#FFB9B7"/>
    <ellipse opacity="0.3" cx="49.8605" cy="32.7439" rx="14.1395" ry="20.8372" fill="#FFA3A1"/>
    <ellipse opacity="0.4" cx="11.1628" cy="33.488" rx="11.1628" ry="20.093" fill="#FFA3A1"/>
    <path fill-rule="evenodd" clip-rule="evenodd" d="M21.548 51.4252C21.548 52.006 22.0625 52.3266 22.4052 51.9592C25.2117 48.9548 28.5957 47.6798 32.2395 47.6808C35.8839 47.6817 39.2665 48.9597 42.0715 51.965C42.4143 52.3324 42.9288 52.0118 42.9288 51.432V49.5567C42.9288 49.3589 42.8651 49.1669 42.7535 49.0354C39.8218 45.5642 36.1845 43.9702 32.2402 43.9692C28.2959 43.9683 24.6572 45.5593 21.724 49.0286C21.6124 49.1611 21.5487 49.3521 21.5487 49.5499L21.548 51.4252Z" fill="#783E11"/>
    <path fill-rule="evenodd" clip-rule="evenodd" d="M44.9629 33.8847C44.9629 35.6159 43.5762 37.0191 41.8664 37.0191C40.1566 37.0191 38.7699 35.6159 38.7699 33.8847C38.7699 32.1527 40.1566 30.7495 41.8664 30.7495C43.5762 30.7495 44.9629 32.1527 44.9629 33.8847Z" fill="#783E11"/>
    <path fill-rule="evenodd" clip-rule="evenodd" d="M17.1813 33.8847C17.1813 35.6159 18.5672 37.0191 20.277 37.0191C21.9876 37.0191 23.3735 35.6159 23.3735 33.8847C23.3735 32.1527 21.9876 30.7495 20.277 30.7495C18.5672 30.7495 17.1813 32.1527 17.1813 33.8847Z" fill="#783E11"/>
    <path fill-rule="evenodd" clip-rule="evenodd" d="M37.6093 33.6612C40.4006 33.5737 43.0242 32.7518 44.9679 31.1607C45.9731 30.3383 47.8802 28.745 48.3546 27.7106C48.4739 27.4479 48.4521 27.1574 48.3179 26.9084L48.2775 26.8338C47.8644 26.0704 46.5769 26.0288 46.0719 26.7793C45.645 27.4122 43.9274 28.6389 43.2741 29.1733C41.6764 30.4802 39.6196 31.2675 37.3889 31.5567C36.5659 31.6633 36.0945 32.4392 36.4356 33.0694C36.6419 33.4524 37.1049 33.6772 37.6093 33.6612Z" fill="#783E11"/>
    <path fill-rule="evenodd" clip-rule="evenodd" d="M25.0527 33.6329C22.2613 33.5454 19.6378 32.7235 17.6941 31.1324C16.6889 30.31 14.7818 28.7167 14.3074 27.6823C14.188 27.4196 14.2098 27.129 14.3441 26.8801L14.3845 26.8055C14.7976 26.0421 16.085 26.0005 16.5901 26.751C17.017 27.3839 18.7345 28.6105 19.3878 29.1449C20.9856 30.4519 23.0424 31.2392 25.2731 31.5284C26.0961 31.635 26.5675 32.4109 26.2263 33.0411C26.0201 33.424 25.5571 33.6489 25.0527 33.6329Z" fill="#783E11"/>
</svg>