<svg width="34" height="34" viewBox="0 0 34 34" fill="none" xmlns="http://www.w3.org/2000/svg">
    <circle cx="17" cy="17" r="17" fill="#F6E071"/>
    <path opacity="0.5" fill-rule="evenodd" clip-rule="evenodd" d="M26.3233 11.7538C26.3732 11.576 26.2981 11.3707 26.1393 11.2268C25.2608 10.4301 24.2169 9.90724 23.1538 9.8199C22.6042 9.7746 22.0994 9.85276 21.6493 10.0288C21.5354 10.0738 21.4563 10.169 21.4239 10.2847L21.4142 10.3194C21.3152 10.6744 21.6962 11.0669 22.0719 10.9867C22.389 10.9193 22.7277 10.8972 23.0849 10.9267C23.9586 10.9988 24.8191 11.365 25.5858 11.9347C25.8687 12.1449 26.2416 12.0469 26.3233 11.7538Z" fill="#783E11"/>
    <path opacity="0.5" fill-rule="evenodd" clip-rule="evenodd" d="M7.72738 11.7538C7.67744 11.576 7.75254 11.3707 7.91135 11.2268C8.78983 10.4301 9.83374 9.90724 10.8968 9.8199C11.4465 9.7746 11.9512 9.85276 12.4013 10.0288C12.5153 10.0738 12.5943 10.169 12.6268 10.2847L12.6364 10.3194C12.7354 10.6744 12.3544 11.0669 11.9788 10.9867C11.6617 10.9193 11.3229 10.8972 10.9657 10.9267C10.0921 10.9988 9.23155 11.365 8.46483 11.9347C8.18198 12.1449 7.80908 12.0469 7.72738 11.7538Z" fill="#783E11"/>
    <ellipse cx="10.7738" cy="15.2137" rx="1.65651" ry="2.42712" fill="#783E11"/>
    <ellipse cx="23.357" cy="15.2137" rx="1.65651" ry="2.42712" fill="#783E11"/>
    <path fill-rule="evenodd" clip-rule="evenodd" d="M9.55518 25.5477C9.55518 25.8555 9.91348 26.0254 10.1522 25.8307C12.1066 24.2385 14.4632 23.3079 17.0007 23.3084C19.5387 23.3089 21.8943 24.2411 23.8478 25.8338C24.0865 26.0285 24.4448 25.8586 24.4448 25.5513V24.5575C24.4448 24.4527 24.4005 24.351 24.3227 24.2812C22.2811 22.4416 19.748 21.3494 17.0012 21.3488C14.2544 21.3483 11.7204 22.4391 9.67777 24.2776C9.60003 24.3479 9.55567 24.4491 9.55567 24.5539L9.55518 25.5477Z" fill="#783E11"/>
    <ellipse cx="27.2341" cy="19.0653" rx="2.09849" ry="3.77728" transform="rotate(-10 27.2341 19.0653)" fill="#29B5E2"/>
</svg>