<svg width="34" height="34" viewBox="0 0 34 34" fill="none" xmlns="http://www.w3.org/2000/svg">
    <circle cx="17" cy="17" r="17" fill="#F6E071"/>
    <path fill-rule="evenodd" clip-rule="evenodd" d="M26.2102 10.491C26.2425 10.5924 26.2166 10.7113 26.1362 10.8095C25.2607 11.8763 24.1043 12.7361 22.7264 13.2396C21.3507 13.7432 19.9429 13.8249 18.6371 13.5573C18.517 13.5328 18.4274 13.4558 18.3956 13.3541L18.0747 12.3561C17.9893 12.0887 18.3181 11.8051 18.6349 11.8669C19.9149 12.1144 21.2893 12.0273 22.6341 11.5359C23.6713 11.1563 24.583 10.5753 25.3455 9.85568C25.5742 9.63958 25.948 9.67339 26.027 9.91903L26.2102 10.491Z" fill="#783E11"/>
    <path fill-rule="evenodd" clip-rule="evenodd" d="M9.47489 7.76995C10.3436 7.31419 11.2835 7.64547 11.9828 8.28128L22.3113 18.0589C22.8261 18.5443 23.5252 18.9789 24.2 18.9581C24.8229 18.9389 25.116 18.5933 25.3783 18.1651L25.838 17.3921C27.1123 15.2661 27.9955 14.01 28.9875 13.1036C30.9447 11.3153 31.7836 12.9846 31.8353 13.3815L31.2107 15.02C29.1756 20.4061 28.1516 23.616 28.1386 24.6497C28.1279 25.5032 28.2983 27.0532 28.6497 29.2997C25.6595 32.1182 21.6623 33.8707 17.3467 33.8707C15.5116 33.8707 13.7529 33.603 12.1065 33.1086C12.027 32.9098 11.9417 32.7069 11.8491 32.4943L11.7047 32.1673C10.8764 30.3165 10.2189 29.2766 8.88614 27.8001L8.62813 27.5178C7.11894 25.8858 4.60949 22.5108 4.09852 21.6228C3.58754 20.7349 3.53176 19.5144 4.08354 19.0686C4.38873 18.822 5.26716 19.9319 5.85992 20.5247L10.4245 25.3621C10.5415 25.4827 10.9422 25.3848 11.1314 25.216C11.3205 25.0472 11.2485 24.6348 11.1152 24.5016L7.53477 20.6886C5.18029 18.1608 3.90716 16.7367 3.71538 16.4161C3.30566 15.7312 3.12714 14.703 3.73675 14.0934C4.26624 13.5639 4.84464 13.4955 5.17513 13.7961L5.4801 14.0936C6.92856 15.5253 12.8645 21.4834 13.0816 21.6723C13.3233 21.8827 13.7598 21.7555 13.8923 21.614C14.0247 21.4726 14.1067 21.0873 13.8669 20.8156L13.403 20.3467C11.6122 18.5596 5.28538 12.3249 4.8347 11.8204C4.3169 11.2408 4.30719 10.0718 4.93552 9.44344C5.56386 8.81511 6.1849 8.82423 6.80807 9.22062L6.9067 9.2938C7.56773 9.8257 10.3889 12.623 15.3702 17.6857C15.6789 17.991 15.9777 18.0287 16.2666 17.7989C16.6691 17.4787 16.5156 17.1028 16.385 16.9441L16.3555 16.9115L9.18358 9.5885C8.48135 8.83329 8.55509 8.25252 9.47489 7.76995Z" fill="white"/>
    <path fill-rule="evenodd" clip-rule="evenodd" d="M29.7984 26.2642L30.0944 27.952L29.8022 28.2915C28.9835 29.2184 28.0655 30.0569 27.0671 30.7882L26.7602 31.0078C26.6047 31.1165 26.4474 31.2227 26.2882 31.3262L26.0652 31.4688C25.7306 31.6792 25.3887 31.8779 25.0398 32.0645C24.8621 32.1595 24.6822 32.2516 24.5006 32.3405C24.0079 32.5815 23.502 32.7989 22.9849 32.9908C22.1826 33.2886 21.3531 33.525 20.5029 33.6939L20.1231 33.7646L19.7403 33.8264L19.3549 33.879C18.8397 33.9428 18.3181 33.982 17.7913 33.9951L17.3953 34C17.183 34 16.9716 33.9964 16.7613 33.9893C16.3859 33.9766 16.0137 33.9527 15.6453 33.9179L15.3978 33.8928L14.8709 33.828L14.4373 33.763C14.1499 33.7163 13.8655 33.663 13.5838 33.6032L13.1549 33.5067L12.6989 33.3917L12.2569 33.268L11.9079 33.1616L11.5231 33.035L11.3387 32.9709L10.9085 32.8124L10.5643 32.6762L10.5599 32.6499L10.2034 32.5C9.51551 31.0197 8.9377 30.1505 7.81788 28.9102L7.23258 28.2643L6.87842 27.8543L6.51699 27.4231L6.14078 26.9633C4.80534 25.3137 3.31101 23.29 2.84098 22.4732C2.02147 21.0492 1.95543 19.1521 3.04678 18.1233L3.09091 18.0839L2.81868 17.7565L2.65829 17.5543L2.53948 17.3933L2.47067 17.2883C1.67583 15.9596 1.59601 14.2576 2.71864 13.135C2.87735 12.9763 3.04703 12.8359 3.22427 12.7155L3.40392 12.6019L3.48491 12.5559L3.42314 12.4574C2.78677 11.3572 2.86312 9.83366 3.65174 8.7904L3.78218 8.6298L3.91741 8.48499C4.86665 7.53575 6.02851 7.31576 7.12945 7.77981L7.31233 7.86348L7.43191 7.92594L7.46465 7.8536C7.65739 7.44849 7.9839 7.07821 8.44155 6.76942L8.64571 6.64093L8.82057 6.54387C10.264 5.7866 11.8555 6.18823 13.0279 7.26593L13.1784 7.4103L23.383 17.0698C23.6092 17.2832 23.8358 17.4322 24.0014 17.5066L24.0788 17.5376L24.1039 17.5439L24.5827 16.7421C26.0268 14.3329 26.9403 13.0834 28.0182 12.0985C29.3132 10.9153 30.6828 10.5724 31.869 11.1989C32.6461 11.6093 33.1845 12.4028 33.337 13.1247L33.3652 13.2899L33.4144 13.6668L32.6775 15.5977L32.103 17.1334L31.7 18.2318C30.4162 21.7635 29.7307 23.9903 29.6836 24.7087L29.681 24.7707C29.6767 25.1178 29.7091 25.6186 29.7784 26.2689L29.7984 26.2642ZM9.51744 7.87216C8.64363 8.3306 8.53339 8.87766 9.12662 9.57873L9.22613 9.69071L16.398 17.0137L16.4275 17.0463C16.5582 17.205 16.7116 17.5809 16.3092 17.9011C16.0203 18.131 15.7214 18.0932 15.4128 17.7879L11.078 13.4067L8.61909 10.9647L7.95453 10.3198C7.4633 9.84807 7.12849 9.54037 6.95011 9.39671L6.85062 9.32283C6.22745 8.92644 5.60641 8.91732 4.97807 9.54565C4.34974 10.174 4.35945 11.343 4.87725 11.9226L5.27371 12.3326L6.40279 13.4642L13.1931 20.1974L13.9095 20.9178C14.1493 21.1895 14.0673 21.5748 13.9348 21.7163C13.8156 21.8435 13.4501 21.9593 13.202 21.8278L13.1241 21.7745L5.21768 13.8983C4.88719 13.5977 4.30879 13.6661 3.7793 14.1956C3.16969 14.8052 3.34821 15.8334 3.75793 16.5183L3.81158 16.5983L3.89876 16.7136L4.16915 17.0422C4.6986 17.6658 5.70945 18.7808 7.20169 20.387L8.96882 22.279L11.1578 24.6038C11.291 24.737 11.3631 25.1494 11.1739 25.3182C11.0058 25.4682 10.6705 25.5623 10.5159 25.4966L10.467 25.4643L5.90247 20.6269L5.70679 20.4247L5.17394 19.8548L4.97544 19.6517C4.616 19.2946 4.28919 19.039 4.12609 19.1708C3.57431 19.6166 3.63008 20.8372 4.14106 21.7251L4.27432 21.9429C4.96678 23.0284 7.09939 25.8787 8.51111 27.4451L8.92869 27.9023C9.94448 29.0277 10.568 29.8995 11.1739 31.0699L10.9846 30.994C12.9194 31.8187 15.0715 32.2801 17.3554 32.2801C21.672 32.2801 25.6344 30.3293 28.39 27.2802L28.3553 27.019L28.289 26.4427C28.2209 25.8055 28.185 25.2916 28.1811 24.9006L28.1839 24.6724C28.2365 23.7091 29.0112 21.1918 30.5079 17.1205L30.9627 15.8949L31.8778 13.4837C31.8261 13.0868 30.9872 11.4175 29.0301 13.2058C28.1985 13.9656 27.4435 14.9711 26.4704 16.5287L26.0688 17.1819L25.486 18.1587C25.2051 18.6357 24.9174 19.0395 24.2426 19.0603C23.624 19.0794 22.985 18.7158 22.4863 18.2811L22.3538 18.1611L12.0254 8.38349C11.326 7.74768 10.3861 7.4164 9.51744 7.87216Z" fill="#D29B3C"/>
</svg>