<svg width="34" height="34" viewBox="0 0 34 34" fill="none" xmlns="http://www.w3.org/2000/svg">
    <circle cx="17" cy="17" r="17" fill="#F6E071"/>
    <path fill-rule="evenodd" clip-rule="evenodd" d="M10.5284 17.3671C9.02897 17.9837 8.16181 19.1439 8.13489 20.4103C8.12896 20.6957 8.15086 20.9802 8.17367 21.2657C8.20013 21.6024 8.2763 21.934 8.38213 22.2614C8.60519 22.9473 9.01528 23.5648 9.5759 24.1264C9.98462 24.5347 10.4467 24.9056 10.933 25.2612C11.6756 25.8039 12.4579 26.3133 13.2375 26.8255C13.9007 27.2615 17.2188 28.606 17.2188 28.606C17.2188 28.606 20.9498 26.9442 21.5866 26.5249C22.2676 26.0759 22.9468 25.6252 23.5905 25.1453C24.1041 24.7596 24.589 24.3551 25.0023 23.9043C25.6145 23.2337 25.9821 22.4924 26.1336 21.6864C26.1874 21.3982 26.2166 21.1091 26.2303 20.8186C26.2513 20.3937 26.2271 19.9701 26.0816 19.5568C25.7613 18.6506 25.0849 17.943 24.0307 17.4516C23.4427 17.1773 22.8013 17.0202 22.1162 16.963C21.6856 16.9269 21.2549 16.9297 20.8266 16.9814C19.9982 17.0817 19.2579 17.3361 18.5978 17.7287C18.0404 18.058 17.5874 18.4585 17.2179 18.9148C17.207 18.9273 17.197 18.9397 17.186 18.9517C17.1235 18.8843 17.0724 18.821 17.0177 18.7591C16.4826 18.1541 15.8075 17.6655 14.9495 17.3301C14.4317 17.1278 13.882 17.0031 13.3032 16.9574C13.1385 16.9445 12.9743 16.9385 12.8101 16.9385C12.5929 16.9385 12.3763 16.9491 12.1596 16.9708C11.5835 17.0276 11.0383 17.1574 10.5284 17.3671Z" fill="#F03D37"/>
    <path fill-rule="evenodd" clip-rule="evenodd" d="M24.9579 9.96939C24.9499 9.87716 24.9008 9.79174 24.8236 9.74201C23.9828 9.20311 23.0245 8.92856 22.0272 9.01611C21.0311 9.10281 20.132 9.53674 19.3932 10.2125C19.3252 10.2745 19.2908 10.3676 19.2992 10.4598L19.376 11.3681C19.397 11.6112 19.6804 11.7204 19.8604 11.5589C20.5887 10.9082 21.4685 10.4904 22.4419 10.405C23.1928 10.3396 23.9215 10.479 24.5957 10.7816C24.798 10.8725 25.0213 10.7131 25.0024 10.4896L24.9579 9.96939Z" fill="#783E11"/>
    <path fill-rule="evenodd" clip-rule="evenodd" d="M11.455 9.01603C10.4472 8.92763 9.47883 9.20898 8.63093 9.75978C8.57132 9.79888 8.53271 9.86518 8.52641 9.937L8.47016 10.5996C8.45547 10.7734 8.63093 10.9018 8.7875 10.8278C9.48848 10.4933 10.2524 10.3361 11.0403 10.4054C12.0574 10.4942 12.9716 10.946 13.7179 11.6472C13.8552 11.7768 14.0785 11.6889 14.0944 11.4993L14.1859 10.4275C14.1922 10.3552 14.1654 10.283 14.1125 10.2345C13.3699 9.54643 12.462 9.10358 11.455 9.01603Z" fill="#783E11"/>
</svg>