<svg width="34" height="34" viewBox="0 0 34 34" fill="none" xmlns="http://www.w3.org/2000/svg">
    <circle cx="17" cy="17" r="17" fill="#F6E071"/>
    <path fill-rule="evenodd" clip-rule="evenodd" d="M24.9166 10.8582C24.9086 10.766 24.8595 10.6806 24.7823 10.6309C23.9415 10.092 22.9832 9.81742 21.9859 9.90497C20.9898 9.99167 20.0907 10.4256 19.3519 11.1013C19.2839 11.1634 19.2495 11.2565 19.2579 11.3487L19.3347 12.2569C19.3557 12.5 19.639 12.6092 19.8191 12.4477C20.5474 11.7971 21.4272 11.3793 22.4006 11.2939C23.1515 11.2284 23.8802 11.3678 24.5543 11.6704C24.7567 11.7614 24.98 11.602 24.9611 11.3784L24.9166 10.8582Z" fill="#783E11"/>
    <path fill-rule="evenodd" clip-rule="evenodd" d="M10.3572 9.90488C9.34942 9.81648 8.38105 10.0978 7.53315 10.6486C7.47355 10.6877 7.43493 10.754 7.42863 10.8259L7.37238 11.4884C7.35769 11.6623 7.53315 11.7906 7.68972 11.7167C8.39071 11.3822 9.15466 11.2249 9.94253 11.2942C10.9596 11.383 11.8738 11.8348 12.6201 12.5361C12.7574 12.6657 12.9807 12.5777 12.9967 12.3882L13.0882 11.3163C13.0945 11.2441 13.0676 11.1718 13.0147 11.1234C12.2722 10.4353 11.3642 9.99243 10.3572 9.90488Z" fill="#783E11"/>
    <path fill-rule="evenodd" clip-rule="evenodd" d="M27.6445 18.092C27.6445 22.1975 24.0897 28.0561 16.8884 28.0561C9.68708 28.0561 6.13177 22.1975 6.13177 18.0928C6.13177 15.7256 10.8032 17.6376 16.8884 17.6376C22.9744 17.6376 27.6445 15.7596 27.6445 18.092Z" fill="#B26423"/>
    <path fill-rule="evenodd" clip-rule="evenodd" d="M26.1615 19.0142C26.1615 22.0385 23.1808 26.8686 16.8883 26.8686C10.5958 26.8686 7.61469 22.0385 7.61469 19.015C7.61469 17.3851 11.7665 18.9368 16.8883 18.9368C22.0101 18.9368 26.1615 17.4179 26.1615 19.0142Z" fill="white"/>
</svg>