<svg width="34" height="34" viewBox="0 0 34 34" fill="none" xmlns="http://www.w3.org/2000/svg">
    <circle cx="17" cy="17" r="17" fill="#62A9F3"/>
    <path fill-rule="evenodd" clip-rule="evenodd" d="M24.7633 14.0304L20.5021 14.0313C20.3794 14.0313 20.2609 13.9603 20.215 13.8477C20.0231 13.3678 20.0306 12.827 20.2409 12.3505C20.5939 11.3232 20.634 10.2133 20.3569 9.16257C20.0673 8.43986 19.9906 7.11961 18.6545 7.05869C18.2363 7.12045 17.8717 7.37164 17.6613 7.73801C17.6238 7.8031 17.6079 7.87988 17.6079 7.95415C17.6079 7.95415 17.6693 9.23611 17.6079 10.1273C17.5465 11.0185 15.8412 13.2885 14.7571 14.7298C14.6887 14.8216 14.5927 14.8817 14.4792 14.8992C14.0728 14.9601 13.2976 15.0631 13.0181 15.1C12.9527 15.1087 12.9145 15.1908 12.9145 15.2294C12.9145 17.031 12.9145 19.7261 12.9145 23.3145C12.9145 23.3443 12.9504 23.4091 13.0141 23.4196C13.233 23.4558 13.7806 23.5559 14.3332 23.7337C15.0275 23.9565 15.6059 24.4839 16.7634 24.8745C16.8243 24.8953 16.8919 24.9062 16.9562 24.9062H22.3915C23.0934 24.781 23.6158 24.181 23.6517 23.4608C23.6617 23.0593 23.5816 22.6621 23.4172 22.2974C23.3938 22.2448 23.4247 22.1898 23.4814 22.1789C24.1783 22.0521 25.0495 20.7293 23.9763 19.6636C23.9479 19.6361 23.953 19.5985 23.9913 19.5885C24.583 19.4374 25.0362 18.9651 25.1747 18.3759C25.2281 18.1506 25.2089 17.9177 25.1422 17.6966C25.0637 17.4329 24.9385 17.1858 24.7725 16.9655C24.7307 16.9104 24.7541 16.8387 24.8209 16.817C25.4101 16.6175 25.8157 16.0542 25.8115 15.4133C25.8791 14.7849 25.3742 14.0313 24.7633 14.0304ZM11.2462 14.3709H8.16594C8.0057 14.3709 7.88386 14.5128 7.9114 14.6672L9.70066 24.7193C9.7282 24.8736 9.86423 24.9863 10.0236 24.9863H11.1628C11.3389 24.9863 11.4816 24.8469 11.4816 24.675L11.5066 14.6263C11.5066 14.4853 11.3906 14.3709 11.2462 14.3709Z" fill="white"/>
</svg>