<svg width="34" height="34" viewBox="0 0 34 34" fill="none" xmlns="http://www.w3.org/2000/svg">
<circle cx="17" cy="17" r="17" fill="#F6E071"/>
<path opacity="0.5" fill-rule="evenodd" clip-rule="evenodd" d="M25.4585 6.42455C25.4511 6.23999 25.3162 6.06799 25.1207 5.9802C24.039 5.49394 22.8846 5.31926 21.8466 5.56472C21.3098 5.69148 20.8539 5.92179 20.4803 6.22831C20.3858 6.30636 20.34 6.4213 20.3449 6.5413L20.3465 6.57729C20.362 6.94558 20.8457 7.20115 21.1782 7.00871C21.4589 6.84661 21.7742 6.72096 22.1231 6.6386C22.9762 6.43719 23.9078 6.51958 24.8131 6.82448C25.147 6.93699 25.4714 6.72859 25.4585 6.42455Z" fill="#783E11"/>
<path opacity="0.5" fill-rule="evenodd" clip-rule="evenodd" d="M7.687 6.42455C7.69445 6.23999 7.82931 6.06799 8.02481 5.9802C9.10649 5.49394 10.2609 5.31926 11.2989 5.56472C11.8357 5.69148 12.2916 5.92179 12.6652 6.22831C12.7597 6.30636 12.8055 6.4213 12.8006 6.5413L12.799 6.57729C12.7835 6.94558 12.2998 7.20115 11.9673 7.00871C11.6866 6.84661 11.3713 6.72096 11.0224 6.6386C10.1693 6.43719 9.2377 6.51958 8.33246 6.82448C7.99849 6.93699 7.67411 6.72859 7.687 6.42455Z" fill="#783E11"/>
<ellipse cx="10.3784" cy="12.0711" rx="1.65651" ry="2.42712" fill="#783E11"/>
<ellipse cx="22.9617" cy="12.0711" rx="1.65651" ry="2.42712" fill="#783E11"/>
<ellipse opacity="0.825408" cx="17.6193" cy="24.0414" rx="4.34884" ry="6.131" fill="#783E11"/>
</svg>
