<?xml version="1.0" encoding="UTF-8"?>
<svg width="77px" height="77px" viewBox="0 0 77 77" version="1.1" xmlns="http://www.w3.org/2000/svg" xmlns:xlink="http://www.w3.org/1999/xlink">
    <title>epik-empty</title>
    <g id="Page-1" stroke="none" stroke-width="1" fill="none" fill-rule="evenodd" opacity="0.3">
        <g id="10_нет-эпиков" transform="translate(-869.000000, -190.000000)" fill="#828B95">
            <g id="epik-empty" transform="translate(869.000000, 190.000000)">
                <path d="M52.0882353,65.6764706 L52.0882353,50.9558824 L65.6764706,50.9558824 L65.6764706,11.3235294 L11.3235294,11.3235294 L11.3235294,50.9558824 L24.9117647,50.9558824 L24.9117647,65.6764706 L52.0882353,65.6764706 Z M6.79411765,0 L70.2058824,0 C73.9581699,0 77,3.04183008 77,6.79411765 L77,70.2058824 C77,73.9581699 73.9581699,77 70.2058824,77 L6.79411765,77 C3.04183008,77 0,73.9581699 0,70.2058824 L0,6.79411765 C0,3.04183008 3.04183008,0 6.79411765,0 Z M27.8868454,29.2739778 L34.2280216,35.8416248 L50.0809628,19.7622128 L54.6103745,26.5563304 L34.2280216,46.9386834 L22.9044922,35.615154 L27.8868454,29.2739778 Z" id="Icon"></path>
            </g>
        </g>
    </g>
</svg>