<svg xmlns="http://www.w3.org/2000/svg" width="13" height="13" viewBox="0 0 13 13">
  <path fill="#818B94" fill-rule="evenodd" d="M8.75420819,11.0936642 L8.75420819,8.6194108 L11.0381344,8.6194108 L11.0381344,1.95795934 L1.90242956,1.95795934 L1.90242956,8.6194108 L4.18635577,8.6194108 L4.18635577,11.0936642 L8.75420819,11.0936642 Z M1.14112082,0.0546875 L11.7994431,0.0546875 C12.430132,0.0546875 12.9414062,0.565961798 12.9414062,1.19665061 L12.9414062,11.8549729 C12.9414062,12.4856617 12.430132,12.996936 11.7994431,12.996936 L1.14112082,12.996936 C0.510432013,12.996936 -0.000842285157,12.4856617 -0.000842285157,11.8549729 L-0.000842285157,1.19665061 C-0.000842285157,0.565961798 0.510432013,0.0546875 1.14112082,0.0546875 Z M4.68641076,4.97509134 L5.75224294,6.07898901 L8.41682352,3.37634295 L9.17813226,4.51830605 L5.75224294,7.94419537 L3.8489711,6.04092353 L4.68641076,4.97509134 Z"/>
</svg>
