<?xml version="1.0" encoding="UTF-8"?>
<svg width="14px" height="16px" viewBox="0 0 14 16" version="1.1" xmlns="http://www.w3.org/2000/svg" xmlns:xlink="http://www.w3.org/1999/xlink">
    <title>transfer</title>
    <g id="Page-1" stroke="none" stroke-width="1" fill="none" fill-rule="evenodd">
        <g id="00_Детали" transform="translate(-683.000000, -4842.000000)" fill="#828B95">
            <path d="M687.522625,4848.99169 C687.578886,4849.04795 687.610493,4849.12426 687.610493,4849.20383 L687.611147,4852.15328 L695.242147,4852.15232 C695.407832,4852.15232 695.542147,4852.28664 695.542147,4852.45232 L695.542147,4853.85232 C695.542147,4854.01801 695.407832,4854.15232 695.242147,4854.15232 L687.611147,4854.15328 L687.610493,4856.97628 C687.610493,4857.14197 687.476179,4857.27628 687.310493,4857.27628 C687.230928,4857.27628 687.154622,4857.24468 687.098361,4857.18842 L683,4853.09005 L687.098361,4848.99169 C687.215518,4848.87454 687.405468,4848.87454 687.522625,4848.99169 Z M691.984028,4842 C692.05814,4842 692.12963,4842.02743 692.184717,4842.07701 L696.684028,4846.12639 L692.184717,4850.17577 C692.061564,4850.28661 691.871877,4850.27662 691.76104,4850.15347 C691.711461,4850.09838 691.684028,4850.0269 691.684028,4849.95278 L691.684028,4847.152 L683.984028,4847.15232 C683.818342,4847.15232 683.684028,4847.01801 683.684028,4846.85232 L683.684028,4845.45232 C683.684028,4845.28664 683.818342,4845.15232 683.984028,4845.15232 L691.684028,4845.152 L691.684028,4842.3 C691.684028,4842.13431 691.818342,4842 691.984028,4842 Z" id="transfer"></path>
        </g>
    </g>
</svg>