<?xml version="1.0" encoding="UTF-8"?>
<svg width="16px" height="15px" viewBox="0 0 16 15" version="1.1" xmlns="http://www.w3.org/2000/svg" xmlns:xlink="http://www.w3.org/1999/xlink">
    <title>Shape</title>
    <g id="Page-1" stroke="none" stroke-width="1" fill="none" fill-rule="evenodd">
        <g id="00_Детали" transform="translate(-376.000000, -4774.000000)" fill="#828B95">
            <g id="Group-28" transform="translate(258.000000, 4760.000000)">
                <path d="M123.832846,20.8393687 C123.889107,20.8956296 123.920714,20.9719358 123.920714,21.0515008 L123.921368,24.0009588 L131.552368,24 C131.718054,24 131.852368,24.1343146 131.852368,24.3 L131.852368,25.7 C131.852368,25.8656854 131.718054,26 131.552368,26 L123.921368,26.0009588 L123.920714,28.8239588 C123.920714,28.9896442 123.7864,29.1239588 123.620714,29.1239588 C123.54115,29.1239588 123.464843,29.0923518 123.408582,29.0360908 L119.310221,24.9377298 L123.408582,20.8393687 C123.52574,20.7222114 123.715689,20.7222114 123.832846,20.8393687 Z M128.294249,13.8476756 C128.368362,13.8476756 128.439851,13.8751087 128.494939,13.9246873 L132.994249,17.9740668 L128.494939,22.0234463 C128.371786,22.1342841 128.182099,22.1243005 128.071261,22.0011475 C128.021682,21.9460601 127.994249,21.8745706 127.994249,21.8004581 L127.994249,18.9996756 L120.294249,19 C120.128564,19 119.994249,18.8656854 119.994249,18.7 L119.994249,17.3 C119.994249,17.1343146 120.128564,17 120.294249,17 L127.994249,16.9996756 L127.994249,14.1476756 C127.994249,13.9819902 128.128564,13.8476756 128.294249,13.8476756 Z" id="Shape" transform="translate(126.152235, 21.485817) rotate(90.000000) translate(-126.152235, -21.485817) "></path>
            </g>
        </g>
    </g>
</svg>