<svg width="19" height="18" viewBox="0 0 19 18" fill="none" xmlns="http://www.w3.org/2000/svg">
	<g clip-path="url(#clip0_2_23)">
		<g clip-path="url(#clip1_2_23)">
			<path fill-rule="evenodd" clip-rule="evenodd" d="M7.1 -47.2H4.3C4.1 -47.2 3.9 -47 3.9 -46.8V-37.9C3.9 -37.7 4.1 -37.5 4.3 -37.5H7.1C7.3 -37.5 7.5 -37.7 7.5 -37.9V-46.8C7.4 -47.1 7.2 -47.2 7.1 -47.2V-47.2ZM12.1 -47.2H9.3C9.1 -47.2 8.9 -47 8.9 -46.8V-37.9C8.9 -37.7 9.1 -37.5 9.3 -37.5H12.1C12.3 -37.5 12.5 -37.7 12.5 -37.9V-46.8C12.5 -47.1 12.3 -47.2 12.1 -47.2V-47.2ZM13.8 -20.2L13.7 -20.3H2.6C2.5 -20.3 2.4 -20.2 2.4 -20.1V-7.70001C2.4 -7.60001 2.5 -7.50001 2.6 -7.50001H3.2C3.3 -7.50001 3.4 -7.60001 3.4 -7.70001V-12.7H13.6C13.7 -12.7 13.8 -12.8 13.8 -12.9V-20.1C13.9 -20.1 13.9 -20.2 13.8 -20.2V-20.2ZM13 -17.5H11.1V-15.6H13V-13.7H11.1V-15.6H9.1V-13.7H7.2V-15.6H5.3V-13.7H3.4V-15.6H5.3V-17.5H3.4V-19.4H5.3V-17.5H7.2V-19.4H9.1V-17.5H11V-19.4H13V-17.5V-17.5ZM7.2 -17.5V-15.6H9.1V-17.5H7.2V-17.5ZM6 3.99999V13.3C6 13.5 6.3 13.6 6.5 13.5L11.5 8.79999C11.6 8.69999 11.6 8.49999 11.5 8.39999L6.5 3.79999C6.3 3.59999 6 3.69999 6 3.99999Z" fill="#555555"/>
		</g>
	</g>
	<defs>
		<clipPath id="clip0_2_23">
			<rect width="19" height="18" fill="white"/>
		</clipPath>
		<clipPath id="clip1_2_23">
			<rect width="19" height="544" fill="white" transform="translate(0 -72)"/>
		</clipPath>
	</defs>
</svg>
