<svg width="19" height="18" viewBox="0 0 19 18" fill="none" xmlns="http://www.w3.org/2000/svg">
	<g clip-path="url(#clip0_2_23)">
		<g clip-path="url(#clip1_2_23)">
			<path fill-rule="evenodd" clip-rule="evenodd" d="M7.1 3.79999H4.3C4.1 3.79999 3.9 3.99999 3.9 4.19999V13.1C3.9 13.3 4.1 13.5 4.3 13.5H7.1C7.3 13.5 7.5 13.3 7.5 13.1V4.19999C7.4 3.89999 7.2 3.79999 7.1 3.79999V3.79999ZM12.1 3.79999H9.3C9.1 3.79999 8.9 3.99999 8.9 4.19999V13.1C8.9 13.3 9.1 13.5 9.3 13.5H12.1C12.3 13.5 12.5 13.3 12.5 13.1V4.19999C12.5 3.89999 12.3 3.79999 12.1 3.79999V3.79999ZM13.8 30.8L13.7 30.7H2.6C2.5 30.7 2.4 30.8 2.4 30.9V43.3C2.4 43.4 2.5 43.5 2.6 43.5H3.2C3.3 43.5 3.4 43.4 3.4 43.3V38.3H13.6C13.7 38.3 13.8 38.2 13.8 38.1V30.9C13.9 30.9 13.9 30.8 13.8 30.8V30.8ZM13 33.5H11.1V35.4H13V37.3H11.1V35.4H9.1V37.3H7.2V35.4H5.3V37.3H3.4V35.4H5.3V33.5H3.4V31.6H5.3V33.5H7.2V31.6H9.1V33.5H11V31.6H13V33.5V33.5ZM7.2 33.5V35.4H9.1V33.5H7.2V33.5ZM6 55V64.3C6 64.5 6.3 64.6 6.5 64.5L11.5 59.8C11.6 59.7 11.6 59.5 11.5 59.4L6.5 54.8C6.3 54.6 6 54.7 6 55Z" fill="#555555"/>
		</g>
	</g>
	<defs>
		<clipPath id="clip0_2_23">
			<rect width="19" height="18" fill="white"/>
		</clipPath>
		<clipPath id="clip1_2_23">
			<rect width="19" height="544" fill="white" transform="translate(0 -21)"/>
		</clipPath>
	</defs>
</svg>
