<svg width="30" height="27" viewBox="0 0 30 27" fill="none" xmlns="http://www.w3.org/2000/svg">
	<g clip-path="url(#clip0_2_23)">
		<path fill-rule="evenodd" clip-rule="evenodd" d="M12.3689 -176C5.55016 -176 0 -170.45 0 -163.631C0 -156.812 5.55016 -151.262 12.3689 -151.262C19.1877 -151.262 24.7379 -156.812 24.7379 -163.631C24.7379 -170.45 19.1877 -176 12.3689 -176ZM12.3689 -152.531C6.34304 -152.531 1.26861 -157.447 1.26861 -163.631C1.26861 -169.657 6.18446 -174.731 12.3689 -174.731C18.3948 -174.731 23.4692 -169.816 23.4692 -163.631C23.3107 -157.447 18.3948 -152.531 12.3689 -152.531ZM16.3333 -167.754H8.24595C8.08737 -167.754 8.08737 -167.595 8.08737 -167.595V-159.508C8.08737 -159.349 8.24595 -159.35 8.24595 -159.35H16.3333C16.4919 -159.35 16.4919 -159.508 16.4919 -159.508V-167.595C16.4919 -167.754 16.4919 -167.754 16.3333 -167.754ZM12.3689 -135.563C5.55016 -135.563 0 -130.013 0 -123.194C0 -116.375 5.55016 -110.825 12.3689 -110.825C19.1877 -110.825 24.7379 -116.375 24.7379 -123.194C24.7379 -130.013 19.1877 -135.563 12.3689 -135.563ZM12.3689 -112.094C6.34304 -112.094 1.26861 -117.01 1.26861 -123.194C1.26861 -129.22 6.18446 -134.294 12.3689 -134.294C18.3948 -134.294 23.4692 -129.379 23.4692 -123.194C23.3107 -117.01 18.3948 -112.094 12.3689 -112.094ZM10.466 -128.586C10.1489 -128.744 9.83171 -128.586 9.83171 -128.427V-117.485C9.83171 -117.168 10.3074 -117.168 10.466 -117.327L17.6019 -122.877C17.7605 -123.036 17.7605 -123.194 17.6019 -123.353L10.466 -128.586ZM12.3689 -95.1263C5.55016 -95.1263 0 -89.5761 0 -82.7573C0 -75.9385 5.55016 -70.3884 12.3689 -70.3884C19.1877 -70.3884 24.7379 -75.9385 24.7379 -82.7573C24.7379 -89.5761 19.1877 -95.1263 12.3689 -95.1263ZM12.3689 -71.657C6.34304 -71.657 1.26861 -76.5728 1.26861 -82.7573C1.26861 -88.7832 6.18446 -93.8576 12.3689 -93.8576C18.3948 -93.8576 23.4692 -88.9418 23.4692 -82.7573C23.3107 -76.5728 18.3948 -71.657 12.3689 -71.657ZM11.2589 -88.466H8.40453C8.24595 -88.466 8.08737 -88.3074 8.08737 -88.1489V-77.2071C8.08737 -77.0486 8.24595 -76.89 8.40453 -76.89H11.2589C11.4175 -76.89 11.576 -77.0486 11.576 -77.2071V-88.1489C11.4175 -88.3074 11.4175 -88.466 11.2589 -88.466ZM16.1748 -88.466H13.479C13.3204 -88.466 13.1618 -88.3074 13.1618 -88.1489V-77.2071C13.1618 -77.0486 13.3204 -76.89 13.479 -76.89H16.1748C16.3333 -76.89 16.4919 -77.0486 16.4919 -77.2071V-88.1489C16.4919 -88.3074 16.3333 -88.466 16.1748 -88.466ZM11.7346 -59.4467H2.37864C2.22006 -59.4467 2.06149 -59.2881 2.06149 -59.1295V-44.5405C2.06149 -44.3819 2.22006 -44.2234 2.37864 -44.2234H3.80582C3.9644 -44.2234 4.12297 -44.3819 4.12297 -44.5405V-51.2007H11.7346C11.8932 -51.2007 12.0518 -51.3593 12.0518 -51.5179V-59.1295C12.0518 -59.4466 11.8932 -59.4467 11.7346 -59.4467ZM13.9547 -15.3625H13.6375C13.1618 -15.3625 12.2103 -15.6797 12.0518 -16.9483V-20.2784C12.0518 -21.8641 10.7832 -23.1327 9.35598 -23.2913V-26.1457C9.35598 -26.6214 9.03883 -26.9386 8.5631 -26.9386H7.45307C6.97734 -26.9386 6.66019 -26.6214 6.66019 -26.1457V-23.2913C5.07443 -23.1327 3.9644 -21.8641 3.9644 -20.2784V-16.9483C3.9644 -15.6797 3.01294 -15.5211 2.37864 -15.3625H2.06149C1.90291 -15.3625 1.58576 -15.204 1.58576 -14.8868V-12.9839C1.58576 -12.8253 1.74434 -12.5082 2.06149 -12.5082H6.66019V-11.5567C6.66019 -11.081 6.97734 -10.7638 7.45307 -10.7638H8.5631C9.03883 -10.7638 9.35598 -11.081 9.35598 -11.5567V-12.5082H13.9547C14.1133 -12.5082 14.4304 -12.6667 14.4304 -12.9839V-14.8868C14.4304 -15.204 14.2718 -15.3625 13.9547 -15.3625ZM29.2192 23.5933L17.2436 1.49567C16.4031 -0.0425178 14.2306 -0.0520006 13.3902 1.48619L1.23689 23.5933C0.418641 25.0839 1.47476 26.936 3.15566 26.936H27.2798C28.9734 26.9249 30.0311 25.0966 29.224 23.5933H29.2192ZM16.7472 22.2533C16.7472 22.7972 16.3936 23.2444 15.9638 23.2444H14.478C14.0467 23.2444 13.6915 22.7972 13.6915 22.2549V20.3837C13.6915 19.8446 14.0467 19.3957 14.4764 19.3957H15.9607C16.3888 19.3957 16.7456 19.843 16.7456 20.3837V22.2549L16.7472 22.2533ZM16.6172 17.5626C16.6077 17.8575 16.4205 18.0827 16.197 18.0827H14.3194C14.0847 18.0827 13.8976 17.8448 13.8976 17.5626L13.701 8.36044C13.6914 8.0639 13.8881 7.81654 14.1212 7.81654H16.3635C16.595 7.81654 16.7916 8.06388 16.7821 8.35884L16.614 17.5595L16.6172 17.5626Z" fill="white"/>
	</g>
	<defs>
		<clipPath id="clip0_2_23">
			<rect width="30" height="27" fill="white"/>
		</clipPath>
	</defs>
</svg>
