<svg xmlns="http://www.w3.org/2000/svg" width="19" height="544" viewBox="0 0 19 544"><g fill="none" fill-rule="evenodd"><path fill="#535C6A" d="M12.5 8.9c-.7 0-1.4.3-1.8.7L5.5 7l5-2.5c.5.5 1.2.9 2 .9 1.5 0 2.7-1.2 2.7-2.7C15.2 1.2 14 0 12.5 0c-1.4 0-2.6 1.1-2.7 2.6L4.6 5.2c-.5-.5-1.1-.7-1.8-.7C1.3 4.5.1 5.7.1 7.2c0 1.5 1.2 2.7 2.7 2.7.8 0 1.5-.3 2-.9l5 2.5v.1c0 1.5 1.2 2.7 2.7 2.7 1.5 0 2.7-1.2 2.7-2.7 0-1.5-1.2-2.7-2.7-2.7z"/><path fill="#555" d="M7.1 24.8H4.3c-.2 0-.4.2-.4.4v8.9c0 .2.2.4.4.4h2.8c.2 0 .4-.2.4-.4v-8.9c-.1-.3-.3-.4-.4-.4zm5 0H9.3c-.2 0-.4.2-.4.4v8.9c0 .2.2.4.4.4h2.8c.2 0 .4-.2.4-.4v-8.9c0-.3-.2-.4-.4-.4zm1.7 27l-.1-.1H2.6c-.1 0-.2.1-.2.2v12.4c0 .1.1.2.2.2h.6c.1 0 .2-.1.2-.2v-5h10.2c.1 0 .2-.1.2-.2v-7.2c.1 0 .1-.1 0-.1zm-.8 2.7h-1.9v1.9H13v1.9h-1.9v-1.9h-2v1.9H7.2v-1.9H5.3v1.9H3.4v-1.9h1.9v-1.9H3.4v-1.9h1.9v1.9h1.9v-1.9h1.9v1.9H11v-1.9h2v1.9zm-5.8 0v1.9h1.9v-1.9H7.2zM6 76v9.3c0 .2.3.3.5.2l5-4.7c.1-.1.1-.3 0-.4l-5-4.6c-.2-.2-.5-.1-.5.2z"/><path fill="#FFF" d="M9.1 188.4H.6c-.2 0-.4-.2-.4-.4v-8.5c0-.2.2-.4.4-.4h8.5c.2 0 .4.2.4.4v8.5c0 .2-.1.4-.4.4z"/><g fill="#535D6A"><path d="M7.8 101.8c-3.2 0-5.8 2.6-5.8 5.8 0 3.2 2.6 5.8 5.8 5.8 3.2 0 5.8-2.6 5.8-5.8.1-3.2-2.6-5.8-5.8-5.8zm0 10.1c-2.4 0-4.3-1.9-4.3-4.3s1.9-4.3 4.3-4.3 4.3 1.9 4.3 4.3c0 2.3-1.9 4.3-4.3 4.3z"/><path d="M10.3 107.1h-2v-2c0-.1-.1-.2-.2-.2h-.8c-.1 0-.2.1-.2.2V108.2c0 .1.1.2.2.2h3c.1 0 .2-.1.2-.2v-.8c0-.1-.1-.3-.2-.3z"/></g><g fill="#FFF"><path d="M5.8 531.8c-3.2 0-5.8 2.6-5.8 5.8 0 3.2 2.6 5.8 5.8 5.8 3.2 0 5.8-2.6 5.8-5.8.1-3.2-2.6-5.8-5.8-5.8zm0 10.1c-2.4 0-4.3-1.9-4.3-4.3s1.9-4.3 4.3-4.3 4.3 1.9 4.3 4.3c0 2.3-1.9 4.3-4.3 4.3z"/><path d="M8.3 537.1h-2v-2c0-.1-.1-.2-.2-.2h-.8c-.1 0-.2.1-.2.2V538.2c0 .1.1.2.2.2h3c.1 0 .2-.1.2-.2v-.8c0-.1-.1-.3-.2-.3z"/></g><path fill="#535C6A" d="M.2 128.1v9.3c0 .2.3.3.5.2l6-4.7c.1-.1.1-.3 0-.4l-6-4.6c-.1-.2-.5 0-.5.2z"/><path fill="#FFF" d="M.2 203.2v9.3c0 .2.3.3.5.2l6-4.7c.1-.1.1-.3 0-.4l-6-4.6c-.1-.1-.5 0-.5.2zM3 153.8H1.4c-.2 0-.4.2-.4.4v8.7c0 .2.2.4.4.4H3c.2 0 .4-.2.4-.4v-8.7c0-.2-.2-.4-.4-.4zm4.9 0H6.4c-.2 0-.4.2-.4.4v8.7c0 .2.2.4.4.4H8c.2 0 .4-.2.4-.4v-8.7c0-.2-.2-.4-.5-.4z"/><path fill="#AEB7C3" d="M7.7 230.1c-4.3 0-7.7 3.4-7.7 7.7 0 4.3 3.4 7.7 7.7 7.7 4.3 0 7.7-3.4 7.7-7.7 0-4.2-3.4-7.7-7.7-7.7zm0 13.5c-3.2 0-5.8-2.6-5.8-5.8 0-3.2 2.6-5.8 5.8-5.8 3.2 0 5.8 2.6 5.8 5.8 0 3.2-2.6 5.8-5.8 5.8z"/><path fill="#AEB7C3" d="M11.1 237.2H8.3v-2.7c0-.2-.1-.3-.3-.3H7c-.2 0-.3.1-.3.3v4.1c0 .2.1.3.3.3h4.1c.2 0 .3-.1.3-.3v-1c0-.2-.2-.4-.3-.4z"/><path fill="#A0A5AB" d="M12.1 266.6l-7.8 7.8 2.2 2.2 7.8-7.8-2.2-2.2zM2 278.9l3.3-.8-2.4-2.4-.9 3.2z"/><path fill="#AFAEAF" d="M12.2 296.9H4.4c-.2 0-.3.1-.3.3v.7c0 .2.1.3.3.3h7.8c.2 0 .3-.1.3-.3v-.7c0-.1-.1-.3-.3-.3zm0 3.1H4.4c-.2 0-.3.1-.3.3v.7c0 .2.1.3.3.3h7.8c.2 0 .3-.1.3-.3v-.7c0-.2-.1-.3-.3-.3zm0 3.1H4.4c-.2 0-.3.1-.3.3v.7c0 .2.1.3.3.3h7.8c.2 0 .3-.1.3-.3v-.7c0-.2-.1-.3-.3-.3z"/><path fill="#535C6A" d="M13.4 330.2c0-.2-.1-.3-.3-.3H8.5v-4.7c0-.2-.1-.3-.3-.3h-2c-.2 0-.3.1-.3.3v4.7H1.3c-.2 0-.3.1-.3.3v2c0 .2.1.3.3.3H6v4.7c0 .2.1.3.3.3h2c.2 0 .3-.1.3-.3v-4.7h4.7c.2 0 .3-.1.3-.3l-.2-2z"/><path fill="#000" d="M10.4 365.8l-3.2-3.2-.8-.8c-.1-.1-.2-.1-.3 0l-.8.8-3.3 3.2c-.1.1-.1.2 0 .3l.8.8c.1.1.2.1.3 0l3.1-3.1 3.1 3.1c.1.1.2.1.3 0l.8-.8c.1-.1.1-.2 0-.3zm-1.1 10.9c-.1-.1-.2-.1-.3 0l-3 3.1-3.1-3.1c-.1-.1-.2-.1-.3 0l-.8.8c-.1.1-.1.2 0 .3L5 381l.8.8c.1.1.2.1.3 0l.9-.8 3.2-3.2c.1-.1.1-.2 0-.3l-.9-.8z"/><path fill="#FFF" d="M8.2 393.8c-4.3 0-7.8 3.5-7.8 7.8s3.5 7.8 7.8 7.8 7.8-3.5 7.8-7.8-3.5-7.8-7.8-7.8zm0 14.8c-3.8 0-7-3.1-7-7 0-3.8 3.1-7 7-7 3.8 0 7 3.1 7 7-.1 3.9-3.2 7-7 7zm2.5-9.6H5.6c-.1 0-.1.1-.1.1v5.1c0 .1.1.1.1.1h5.1c.1 0 .1-.1.1-.1v-5.1c0-.1 0-.1-.1-.1zm-2.5 20.3c-4.3 0-7.8 3.5-7.8 7.8s3.5 7.8 7.8 7.8 7.8-3.5 7.8-7.8-3.5-7.8-7.8-7.8zm0 14.8c-3.8 0-7-3.1-7-7 0-3.8 3.1-7 7-7 3.8 0 7 3.1 7 7-.1 3.9-3.2 7-7 7zM7 423.7c-.2-.1-.4 0-.4.1v6.9c0 .2.3.2.4.1l4.5-3.5c.1-.1.1-.2 0-.3L7 423.7zm1.2 21.1c-4.3 0-7.8 3.5-7.8 7.8s3.5 7.8 7.8 7.8 7.8-3.5 7.8-7.8-3.5-7.8-7.8-7.8zm0 14.8c-3.8 0-7-3.1-7-7 0-3.8 3.1-7 7-7 3.8 0 7 3.1 7 7-.1 3.9-3.2 7-7 7zM7.5 449H5.7c-.1 0-.2.1-.2.2v6.9c0 .1.1.2.2.2h1.8c.1 0 .2-.1.2-.2v-6.9c-.1-.1-.1-.2-.2-.2zm3.1 0H8.9c-.1 0-.2.1-.2.2v6.9c0 .1.1.2.2.2h1.7c.1 0 .2-.1.2-.2v-6.9c0-.1-.1-.2-.2-.2zm-2.8 18.3H1.9c-.1 0-.2.1-.2.2v9.2c0 .1.1.2.2.2h.9c.1 0 .2-.1.2-.2v-4.2h4.8c.1 0 .2-.1.2-.2v-4.8c0-.2-.1-.2-.2-.2zm1.4 27.8H9c-.3 0-.9-.2-1-1V492c0-1-.8-1.8-1.7-1.9v-1.8c0-.3-.2-.5-.5-.5h-.7c-.3 0-.5.2-.5.5v1.8c-1 .1-1.7.9-1.7 1.9v2.1c0 .8-.6.9-1 1h-.2c-.1 0-.3.1-.3.3v1.2c0 .1.1.3.3.3h2.9v.6c0 .3.2.5.5.5h.7c.3 0 .5-.2.5-.5v-.6h2.9c.1 0 .3-.1.3-.3v-1.2c0-.2-.1-.3-.3-.3zm9.626 24.566l-7.552-13.935c-.53-.97-1.9-.976-2.43-.006L1.18 519.666c-.516.94.15 2.108 1.21 2.108h15.213c1.068-.007 1.735-1.16 1.226-2.108zm-7.865-.845c0 .343-.223.625-.494.625H9.53c-.272 0-.496-.282-.496-.624v-1.18c0-.34.224-.623.495-.623h.936c.27 0 .495.282.495.623v1.18zm-.082-2.958c-.006.186-.124.328-.265.328H9.43c-.148 0-.266-.15-.266-.328l-.124-5.803c-.006-.187.118-.343.265-.343h1.414c.146 0 .27.156.264.342l-.106 5.802z"/></g></svg>