<svg width="1017" height="199" viewBox="0 0 1017 199" fill="none" xmlns="http://www.w3.org/2000/svg">
    <g clip-path="url(#clip0_148_15403)">
        <rect width="1026" height="199" rx="10" fill="#2FC6F6"/>
        <g opacity="0.9">
            <path d="M174.693 10.8069C172.542 9.08036 169.386 9.42714 167.712 11.6189C107.081 91.0012 118.248 204.882 194.974 270.816C240.23 309.705 298.545 323.536 353.002 313.589C355.719 313.093 357.45 310.433 356.881 307.73L342.506 239.435C341.938 236.734 339.288 235.016 336.564 235.461C305.577 240.521 272.652 232.366 246.976 210.302C202.999 172.512 196.162 107.559 229.957 61.6063C231.596 59.3774 231.267 56.2269 229.109 54.4948L174.693 10.8069Z" fill="white" fill-opacity="0.08"/>
            <path d="M241.716 48.0503C239.746 49.9824 236.592 50.107 234.571 48.2286L183.45 0.713332C181.427 -1.16722 181.31 -4.3398 183.243 -6.31253C228.004 -51.9823 291.06 -70.5885 350.673 -60.4866C353.397 -60.025 355.161 -57.3874 354.626 -54.677L341.109 13.802C340.574 16.5102 337.946 18.2609 335.216 17.851C301.938 12.8546 267.046 23.2028 241.716 48.0503Z" fill="white" fill-opacity="0.08"/>
            <path d="M352.723 21.9669C350.096 21.1165 348.524 18.3767 349.254 15.7131L367.708 -51.6106C368.437 -54.273 371.189 -55.8468 373.831 -55.0479C398.389 -47.6239 421.833 -35.0751 442.542 -17.2791C459.107 -3.04477 472.615 13.4243 483.006 31.2986C484.393 33.6852 483.497 36.7254 481.075 38.0501L419.831 71.5496C417.407 72.8754 414.377 71.9774 412.943 69.6158C407.069 59.9399 399.592 51.012 390.541 43.2346C379.103 33.4055 366.226 26.3367 352.723 21.9669Z" fill="white" fill-opacity="0.08"/>
            <path d="M354.773 230.872C352.161 231.773 350.642 234.544 351.426 237.193L371.208 304.129C371.991 306.775 374.772 308.294 377.398 307.445C392.755 302.477 407.572 295.521 421.433 286.609C423.755 285.116 424.342 282.002 422.79 279.719L383.534 221.996C381.981 219.711 378.874 219.13 376.522 220.58C369.611 224.837 362.312 228.272 354.773 230.872Z" fill="white" fill-opacity="0.08"/>
            <path d="M393.423 207.75C391.397 209.623 391.119 212.765 392.896 214.877L437.832 268.287C439.611 270.402 442.774 270.677 444.839 268.84C451.146 263.229 457.152 257.132 462.806 250.552C475.358 235.945 485.3 219.977 492.674 203.218C493.786 200.69 492.554 197.767 489.997 196.723L425.369 170.33C422.813 169.287 419.906 170.517 418.746 173.022C414.568 182.041 409.09 190.64 402.292 198.551C399.48 201.824 396.517 204.89 393.423 207.75Z" fill="white" fill-opacity="0.08"/>
            <path d="M428.925 160.332C426.283 159.528 424.805 156.737 425.487 154.062C431.265 131.399 429.669 107.383 420.98 85.7018C419.953 83.1406 421.05 80.1823 423.561 79.0375L487.076 50.0732C489.59 48.9266 492.564 50.0349 493.641 52.5795C510.304 91.9425 513.242 136.044 501.883 177.311C501.149 179.975 498.348 181.464 495.706 180.66L428.925 160.332Z" fill="white" fill-opacity="0.08"/>
            <path d="M195.3 270.437C118.776 204.677 107.638 91.0953 168.11 11.9224C169.609 9.9593 172.443 9.64178 174.38 11.1968L228.796 54.8847C230.734 56.4399 231.043 59.2851 229.554 61.31C195.605 107.471 202.473 172.719 246.65 210.681C272.443 232.846 305.518 241.037 336.645 235.955C339.12 235.551 341.506 237.113 342.017 239.538L356.391 307.833C356.904 310.269 355.344 312.653 352.912 313.097C298.597 323.018 240.437 309.223 195.3 270.437ZM234.911 47.8624L183.791 0.347098C181.967 -1.34746 181.869 -4.19649 183.6 -5.96255C228.243 -51.5112 291.132 -70.0692 350.589 -59.9936C353.027 -59.5805 354.618 -57.2166 354.136 -54.7738L340.618 13.7051C340.138 16.1371 337.771 17.7289 335.291 17.3566C301.862 12.3377 266.812 22.7321 241.366 47.6934C239.576 49.4487 236.726 49.5489 234.911 47.8624ZM349.736 15.8453L368.19 -51.4784C368.848 -53.8781 371.322 -55.2843 373.687 -54.5693C398.179 -47.165 421.561 -34.6497 442.216 -16.8999C458.738 -2.70246 472.211 13.7232 482.574 31.5499C483.815 33.6858 483.018 36.4175 480.835 37.6115L419.591 71.1109C417.414 72.3015 414.673 71.502 413.371 69.3563C407.47 59.6359 399.958 50.6675 390.867 42.8554C379.378 32.9823 366.442 25.8811 352.877 21.4911C350.49 20.7186 349.08 18.2372 349.736 15.8453ZM371.688 303.987L351.905 237.052C351.202 234.672 352.563 232.163 354.936 231.345C362.51 228.732 369.842 225.282 376.784 221.005C378.921 219.689 381.726 220.225 383.121 222.277L422.377 280C423.776 282.057 423.241 284.852 421.163 286.188C407.338 295.076 392.561 302.014 377.244 306.969C374.893 307.729 372.393 306.372 371.688 303.987ZM438.215 267.965L393.278 214.555C391.683 212.659 391.922 209.819 393.763 208.117C396.871 205.245 399.847 202.164 402.671 198.877C409.5 190.931 415.002 182.292 419.199 173.232C420.253 170.957 422.885 169.856 425.18 170.793L489.808 197.186C492.113 198.127 493.212 200.754 492.216 203.016C484.862 219.731 474.946 235.657 462.426 250.226C456.787 256.789 450.797 262.87 444.506 268.466C442.658 270.111 439.818 269.871 438.215 267.965ZM425.972 154.185C431.775 131.42 430.172 107.295 421.444 85.5157C420.511 83.1889 421.514 80.5205 423.768 79.4924L487.283 50.5281C489.549 49.4948 492.217 50.497 493.181 52.7744C509.8 92.0339 512.731 136.02 501.4 177.179C500.744 179.562 498.233 180.906 495.852 180.181L429.07 159.853C426.698 159.131 425.352 156.616 425.972 154.185Z" stroke="white" stroke-opacity="0.2"/>
        </g>
        <path d="M414.828 -327.86C412.29 -328.938 409.347 -327.739 408.294 -325.191C321.598 -115.398 414.919 127.406 622.77 224.007C746.273 281.407 883.164 274.616 995.846 217.373C998.309 216.122 999.255 213.096 997.973 210.649L919.535 60.8138C918.255 58.3681 915.236 57.4278 912.765 58.6576C847.775 90.9961 769.209 94.5507 698.262 61.577C578.31 5.82774 524.135 -133.889 573.166 -255.144C574.203 -257.708 573.03 -260.665 570.483 -261.747L414.828 -327.86Z" fill="white" fill-opacity="0.1"/>
        <path d="M585.029 -280.359C583.718 -277.932 580.708 -276.956 578.253 -278.215L427.779 -355.417C425.321 -356.678 424.354 -359.705 425.645 -362.147C494.909 -493.24 624.272 -574.404 763.546 -587.302C766.297 -587.557 768.713 -585.501 768.933 -582.747L782.439 -414.141C782.659 -411.389 780.606 -408.984 777.859 -408.707C698.589 -400.703 625.107 -354.556 585.029 -280.359Z" fill="white" fill-opacity="0.1"/>
        <path d="M805.787 -409.935C803.026 -409.971 800.771 -412.188 800.75 -414.95L799.518 -584.104C799.497 -586.865 801.718 -589.122 804.479 -589.111C864.079 -588.867 924.581 -576.059 982.171 -549.293C1028.62 -527.705 1069.35 -498.815 1103.63 -464.623C1105.59 -462.673 1105.55 -459.507 1103.58 -457.575L982.766 -339.167C980.793 -337.233 977.629 -337.27 975.657 -339.205C956.085 -358.403 932.961 -374.649 906.68 -386.863C873.976 -402.063 839.653 -409.501 805.787 -409.935Z" fill="white" fill-opacity="0.1"/>
        <path d="M938.547 43.8379C936.239 45.3559 935.534 48.4404 937.006 50.7779L1027.16 193.884C1028.63 196.219 1031.72 196.923 1034.04 195.426C1067.91 173.567 1098.89 146.771 1125.78 115.48C1127.58 113.387 1127.31 110.233 1125.19 108.457L995.675 -0.357184C993.56 -2.13442 990.408 -1.85545 988.589 0.224554C973.796 17.1451 956.921 31.7538 938.547 43.8379Z" fill="white" fill-opacity="0.1"/>
        <path d="M1009.82 -27.8959C1008.32 -25.5807 1008.91 -22.4778 1011.19 -20.9279L1151.12 74.0923C1153.41 75.645 1156.52 75.0498 1158.05 72.7433C1169.6 55.2363 1180.01 36.6561 1189.12 17.0577C1208.26 -24.1322 1220.27 -66.8111 1225.64 -109.584C1225.99 -112.325 1224.01 -114.802 1221.27 -115.113L1053.18 -134.17C1050.43 -134.481 1047.96 -132.509 1047.6 -129.773C1044.36 -105.672 1037.48 -81.6454 1026.69 -58.4339C1021.71 -47.721 1016.06 -37.5328 1009.82 -27.8959Z" fill="white" fill-opacity="0.1"/>
        <path d="M1054.73 -157.367C1051.97 -157.424 1049.78 -159.709 1049.78 -162.47C1049.79 -219.221 1030.15 -274.505 994.465 -318.528C992.728 -320.671 992.986 -323.82 995.092 -325.603L1124.18 -434.924C1126.29 -436.71 1129.45 -436.447 1131.21 -434.316C1194.99 -357.027 1229.78 -259.12 1228.93 -158.772C1228.9 -156.01 1226.62 -153.815 1223.85 -153.872L1054.73 -157.367Z" fill="white" fill-opacity="0.1"/>
        <path d="M622.981 223.554C415.374 127.066 322.162 -115.454 408.756 -325C409.702 -327.29 412.349 -328.369 414.633 -327.4L570.288 -261.287C572.576 -260.315 573.64 -257.651 572.702 -255.331C523.572 -133.831 577.856 6.16836 698.051 62.0304C769.142 95.0709 847.867 91.5085 912.988 59.1052C915.221 57.9937 917.941 58.8468 919.092 61.0457L997.53 210.881C998.684 213.085 997.831 215.804 995.619 216.928C883.069 274.104 746.339 280.886 622.981 223.554ZM578.481 -278.66L428.007 -355.862C425.795 -356.997 424.928 -359.72 426.087 -361.914C495.269 -492.852 624.48 -573.921 763.592 -586.804C766.063 -587.033 768.236 -585.187 768.435 -582.707L781.941 -414.101C782.139 -411.627 780.292 -409.455 777.809 -409.205C698.38 -401.184 624.749 -354.945 584.589 -280.597C583.403 -278.402 580.688 -277.528 578.481 -278.66ZM801.25 -414.953L800.018 -584.108C799.999 -586.594 801.998 -588.621 804.477 -588.611C864.006 -588.368 924.437 -575.575 981.96 -548.84C1028.36 -527.276 1069.04 -498.42 1103.28 -464.269C1105.03 -462.519 1105 -459.672 1103.23 -457.932L982.416 -339.524C980.642 -337.786 977.79 -337.813 976.007 -339.562C956.395 -358.8 933.224 -375.078 906.891 -387.317C874.121 -402.546 839.729 -410 805.794 -410.435C803.298 -410.467 801.269 -412.47 801.25 -414.953ZM1027.59 193.617L937.429 50.5114C936.105 48.4098 936.736 45.6276 938.822 44.2556C957.233 32.1471 974.142 17.5088 988.966 0.55366C990.609 -1.32631 993.452 -1.57222 995.354 0.0256368L1124.87 108.84C1126.77 110.439 1127.02 113.275 1125.4 115.155C1098.55 146.409 1067.6 173.173 1033.77 195.006C1031.69 196.35 1028.91 195.72 1027.59 193.617ZM1151.4 73.6786L1011.47 -21.3415C1009.42 -22.735 1008.88 -25.5315 1010.24 -27.624C1016.5 -37.2804 1022.16 -47.4891 1027.14 -58.2232C1037.95 -81.4808 1044.85 -105.556 1048.09 -129.706C1048.42 -132.179 1050.66 -133.952 1053.12 -133.673L1221.21 -114.617C1223.68 -114.336 1225.45 -112.107 1225.14 -109.647C1219.78 -66.9242 1207.79 -24.2954 1188.67 16.847C1179.57 36.4229 1169.17 54.9814 1157.63 72.4678C1156.26 74.5385 1153.46 75.0769 1151.4 73.6786ZM1050.28 -162.469C1050.29 -219.336 1030.61 -274.731 994.854 -318.842C993.283 -320.78 993.522 -323.618 995.415 -325.221L1124.5 -434.543C1126.4 -436.151 1129.24 -435.911 1130.82 -433.997C1194.53 -356.799 1229.28 -259.006 1228.43 -158.776C1228.41 -156.296 1226.35 -154.32 1223.86 -154.372L1054.74 -157.867C1052.26 -157.919 1050.28 -159.974 1050.28 -162.469Z" stroke="white" stroke-opacity="0.2"/>
        <g filter="url(#filter0_d_148_15403)">
            <path fill-rule="evenodd" clip-rule="evenodd" d="M924.951 84.2653C924.951 83.6508 924.998 83.0363 924.998 82.4218C924.998 41.0916 890.091 7.54895 847.046 7.54895C838.217 7.54781 829.456 8.98383 821.169 11.7907C809.518 -16.6827 780.09 -35.6571 747.05 -36C702.818 -36 666.996 -1.5437 666.996 40.9339C666.996 41.3962 666.996 41.853 667.031 42.3152C627.436 56.5009 601.533 91.7977 602.006 130.919C602.006 182.876 645.86 225 699.966 225C701.058 225 702.139 224.951 703.226 224.918V225H905.87C947.746 223.935 980.843 191.954 979.984 153.385C980.438 121.619 957.985 93.4196 924.951 84.2653Z" fill="white"/>
        </g>
        <ellipse opacity="0.722772" cx="696.355" cy="130.108" rx="48.3376" ry="48.3376" transform="rotate(98.044 696.355 130.108)" fill="url(#paint0_angular_148_15403)"/>
        <g filter="url(#filter1_d_148_15403)">
            <rect x="673.205" y="101.784" width="48.6232" height="58.0953" rx="3.76777" fill="white"/>
        </g>
        <path d="M697.373 108.766C694.458 108.781 691.625 109.734 689.293 111.483C686.961 113.231 685.252 115.683 684.42 118.477C683.587 121.271 683.675 124.258 684.67 126.998C685.665 129.738 687.514 132.086 689.945 133.695C692.376 135.303 695.259 136.088 698.17 135.933C701.081 135.778 703.865 134.691 706.111 132.833C708.358 130.975 709.947 128.445 710.645 125.614C711.343 122.784 711.113 119.804 709.989 117.115L704.626 119.357C705.27 120.897 705.402 122.602 705.002 124.222C704.602 125.842 703.692 127.291 702.407 128.355C701.121 129.418 699.527 130.04 697.861 130.129C696.195 130.218 694.544 129.769 693.153 128.848C691.761 127.927 690.703 126.583 690.133 125.014C689.564 123.446 689.514 121.736 689.99 120.137C690.467 118.538 691.445 117.134 692.78 116.133C694.115 115.132 695.736 114.587 697.405 114.578L697.373 108.766Z" fill="#00E6BF"/>
        <path d="M699.092 106.494C701.543 106.48 703.943 107.191 705.992 108.537C708.041 109.883 709.647 111.803 710.608 114.058L704.937 116.476C704.452 115.338 703.641 114.369 702.607 113.69C701.574 113.01 700.362 112.652 699.125 112.659L699.092 106.494Z" fill="#FFC700"/>
        <path d="M681.005 146.29C681.005 145.514 681.634 144.885 682.41 144.885C683.186 144.885 683.815 145.514 683.815 146.29V152.614C683.815 153.39 683.186 154.019 682.41 154.019C681.634 154.019 681.005 153.39 681.005 152.614V146.29Z" fill="#B3E600"/>
        <path d="M686.626 141.372C686.626 140.595 687.255 139.966 688.031 139.966C688.807 139.966 689.436 140.595 689.436 141.372V152.614C689.436 153.39 688.807 154.019 688.031 154.019C687.255 154.019 686.626 153.39 686.626 152.614V141.372Z" fill="#B3E600"/>
        <path d="M692.247 144.182C692.247 143.406 692.876 142.777 693.652 142.777C694.428 142.777 695.057 143.406 695.057 144.182V152.614C695.057 153.39 694.428 154.019 693.652 154.019C692.876 154.019 692.247 153.39 692.247 152.614V144.182Z" fill="#B3E600"/>
        <path d="M700.678 152.614C700.678 152.225 700.993 151.911 701.381 151.911H715.433C715.821 151.911 716.136 152.225 716.136 152.614C716.136 153.002 715.821 153.316 715.433 153.316H701.381C700.993 153.316 700.678 153.002 700.678 152.614Z" fill="#2FC6F6"/>
        <path d="M700.678 149.1C700.678 148.712 700.993 148.398 701.381 148.398H713.325C713.713 148.398 714.028 148.712 714.028 149.1C714.028 149.488 713.713 149.803 713.325 149.803H701.381C700.993 149.803 700.678 149.488 700.678 149.1Z" fill="#2FC6F6"/>
        <path d="M700.678 145.587C700.678 145.199 700.993 144.885 701.381 144.885H714.731C715.119 144.885 715.433 145.199 715.433 145.587C715.433 145.975 715.119 146.29 714.731 146.29H701.381C700.993 146.29 700.678 145.975 700.678 145.587Z" fill="#2FC6F6"/>
        <path d="M700.678 142.074C700.678 141.686 700.993 141.372 701.381 141.372H715.433C715.821 141.372 716.136 141.686 716.136 142.074C716.136 142.462 715.821 142.777 715.433 142.777H701.381C700.993 142.777 700.678 142.462 700.678 142.074Z" fill="#2FC6F6"/>
        <g opacity="0.7">
            <ellipse cx="860.799" cy="127.694" rx="57.4579" ry="57.4579" transform="rotate(132.388 860.799 127.694)" fill="url(#paint1_angular_148_15403)"/>
            <ellipse cx="860.799" cy="127.694" rx="57.4579" ry="57.4579" transform="rotate(132.388 860.799 127.694)" fill="#525C69" fill-opacity="0.03"/>
        </g>
        <g filter="url(#filter2_d_148_15403)">
            <path fill-rule="evenodd" clip-rule="evenodd" d="M890.094 121.414C889.867 121.338 889.719 121.128 889.719 120.889V120.889C889.719 111.867 882.774 104.545 874.21 104.545C872.453 104.544 870.71 104.858 869.061 105.471C866.743 99.255 860.888 95.1129 854.314 95.0381C845.514 95.0381 838.387 102.56 838.387 111.833V111.833C838.387 112.012 838.279 112.179 838.113 112.247C830.394 115.415 825.363 123.038 825.456 131.476C825.456 142.818 834.182 152.014 844.947 152.014C845.161 152.014 845.373 152.003 845.586 151.996C845.591 151.996 845.595 152 845.595 152.005V152.005C845.595 152.01 845.599 152.014 845.604 152.014H885.914C894.246 151.781 900.831 144.8 900.66 136.38C900.748 129.582 896.456 123.532 890.094 121.414Z" fill="white"/>
        </g>
        <path fill-rule="evenodd" clip-rule="evenodd" d="M857.201 131.297C857.575 131.356 857.692 131.838 857.385 132.061L855.043 133.766C854.854 133.903 854.811 134.169 854.955 134.353C856.441 136.245 858.619 137.601 861.183 138.004C864.999 138.605 868.648 136.932 870.752 133.99C870.883 133.807 871.129 133.747 871.324 133.857L874.613 135.715C874.824 135.835 874.893 136.106 874.758 136.308C871.716 140.849 866.221 143.466 860.466 142.561C856.646 141.96 853.411 139.917 851.229 137.074C851.085 136.887 850.819 136.844 850.628 136.983L848.473 138.551C848.166 138.774 847.743 138.515 847.802 138.141L849.013 130.439C849.05 130.207 849.268 130.049 849.5 130.085L857.201 131.297Z" fill="#20DCCA"/>
        <path fill-rule="evenodd" clip-rule="evenodd" d="M864.967 113.945C868.758 114.542 871.973 116.558 874.154 119.367C874.298 119.552 874.563 119.594 874.753 119.456L876.9 117.893C877.207 117.67 877.63 117.929 877.571 118.303L876.359 126.004C876.323 126.237 876.105 126.395 875.873 126.359L868.172 125.147C867.797 125.088 867.681 124.606 867.988 124.383L870.336 122.673C870.527 122.534 870.569 122.267 870.422 122.083C868.937 120.228 866.783 118.9 864.25 118.502C859.851 117.81 855.675 120.138 853.83 123.949C853.723 124.171 853.454 124.269 853.234 124.155L849.893 122.431C849.692 122.327 849.607 122.082 849.706 121.879C852.427 116.322 858.535 112.933 864.967 113.945Z" fill="#8DEB70"/>
        <ellipse opacity="0.7" cx="774.561" cy="81.4941" rx="59.8697" ry="59.8697" transform="rotate(15 774.561 81.4941)" fill="url(#paint2_angular_148_15403)"/>
        <g filter="url(#filter3_d_148_15403)">
            <rect x="738.667" y="54.0781" width="74.6667" height="53.6667" rx="4.66667" fill="white"/>
        </g>
        <path d="M738.667 57.1892C738.667 55.471 740.06 54.0781 741.778 54.0781H810.222C811.941 54.0781 813.333 55.471 813.333 57.1892V61.0781H738.667V57.1892Z" fill="#EEF2F4"/>
        <g opacity="0.5">
            <path d="M744.111 57.5778C744.111 58.2221 743.589 58.7445 742.944 58.7445C742.3 58.7445 741.778 58.2221 741.778 57.5778C741.778 56.9335 742.3 56.4111 742.944 56.4111C743.589 56.4111 744.111 56.9335 744.111 57.5778Z" fill="#CED4DA"/>
            <path d="M748 57.5778C748 58.2221 747.477 58.7445 746.833 58.7445C746.189 58.7445 745.666 58.2221 745.666 57.5778C745.666 56.9335 746.189 56.4111 746.833 56.4111C747.477 56.4111 748 56.9335 748 57.5778Z" fill="#CED4DA"/>
            <path d="M751.889 57.5778C751.889 58.2221 751.366 58.7445 750.722 58.7445C750.078 58.7445 749.555 58.2221 749.555 57.5778C749.555 56.9335 750.078 56.4111 750.722 56.4111C751.366 56.4111 751.889 56.9335 751.889 57.5778Z" fill="#CED4DA"/>
        </g>
        <path fill-rule="evenodd" clip-rule="evenodd" d="M760.071 91.1823L752.409 95.2108C752.074 95.3871 751.682 95.1024 751.746 94.7291L753.209 86.1967L747.01 80.1539C746.739 79.8896 746.889 79.429 747.263 79.3745L755.83 78.1296L759.662 70.3665C759.829 70.0269 760.314 70.0269 760.481 70.3665L764.313 78.1296L772.88 79.3745C773.254 79.429 773.404 79.8896 773.133 80.1539L766.934 86.1967L768.397 94.7291C768.461 95.1024 768.069 95.3871 767.734 95.2108L760.071 91.1823Z" fill="#7AD5F2"/>
        <path d="M776.38 80.0074C776.38 80.0074 776.38 80.0074 776.38 80.0074L776.38 80.0074L776.385 79.9755L776.38 80.0074ZM760.798 80.0074L760.793 79.9755L760.798 80.0074L760.798 80.0074C760.798 80.0074 760.798 80.0074 760.798 80.0074ZM767.639 73.3354L768.336 73.6796L767.639 73.3354L765.456 77.7587L760.574 78.468C759.705 78.5943 759.358 79.6625 759.987 80.2756L763.519 83.7187L762.685 88.5804C762.537 89.4461 763.445 90.1062 764.223 89.6975L768.589 87.4021L772.955 89.6975C773.732 90.1062 774.641 89.4461 774.493 88.5804L773.659 83.7187L777.191 80.2756C777.82 79.6625 777.473 78.5943 776.604 78.468L771.722 77.7587L769.539 73.3354L768.842 73.6796L769.539 73.3354C769.151 72.5478 768.027 72.5478 767.639 73.3354Z" fill="#B3E600" stroke="white" stroke-width="1.55556"/>
        <path fill-rule="evenodd" clip-rule="evenodd" d="M784.945 72.7446C784.3 72.7446 783.778 73.267 783.778 73.9113C783.778 74.5556 784.3 75.078 784.945 75.078H802.056C802.7 75.078 803.222 74.5556 803.222 73.9113C803.222 73.267 802.7 72.7446 802.056 72.7446H784.945ZM784.944 78.9667C784.3 78.9667 783.778 79.489 783.778 80.1333C783.778 80.7777 784.3 81.3 784.945 81.3H799.722C800.367 81.3 800.889 80.7777 800.889 80.1333C800.889 79.489 800.367 78.9667 799.722 78.9667H784.944ZM783.778 86.3559C783.778 85.7115 784.3 85.1892 784.944 85.1892H802.056C802.7 85.1892 803.222 85.7115 803.222 86.3559C803.222 87.0002 802.7 87.5225 802.056 87.5225H784.944C784.3 87.5225 783.778 87.0002 783.778 86.3559ZM784.944 91.4113C784.3 91.4113 783.778 91.9336 783.778 92.5779C783.778 93.2223 784.3 93.7446 784.945 93.7446H799.722C800.367 93.7446 800.889 93.2223 800.889 92.5779C800.889 91.9336 800.367 91.4113 799.722 91.4113H784.944Z" fill="#D2D7DE"/>
    </g>
    <defs>
        <filter id="filter0_d_148_15403" x="566" y="-68" width="450" height="333" filterUnits="userSpaceOnUse" color-interpolation-filters="sRGB">
            <feFlood flood-opacity="0" result="BackgroundImageFix"/>
            <feColorMatrix in="SourceAlpha" type="matrix" values="0 0 0 0 0 0 0 0 0 0 0 0 0 0 0 0 0 0 127 0" result="hardAlpha"/>
            <feOffset dy="4"/>
            <feGaussianBlur stdDeviation="18"/>
            <feComposite in2="hardAlpha" operator="out"/>
            <feColorMatrix type="matrix" values="0 0 0 0 0 0 0 0 0 0.521671 0 0 0 0 0.6875 0 0 0 0.31 0"/>
            <feBlend mode="normal" in2="BackgroundImageFix" result="effect1_dropShadow_148_15403"/>
            <feBlend mode="normal" in="SourceGraphic" in2="effect1_dropShadow_148_15403" result="shape"/>
        </filter>
        <filter id="filter1_d_148_15403" x="666.423" y="99.5235" width="62.1873" height="71.6592" filterUnits="userSpaceOnUse" color-interpolation-filters="sRGB">
            <feFlood flood-opacity="0" result="BackgroundImageFix"/>
            <feColorMatrix in="SourceAlpha" type="matrix" values="0 0 0 0 0 0 0 0 0 0 0 0 0 0 0 0 0 0 127 0" result="hardAlpha"/>
            <feOffset dy="4.52133"/>
            <feGaussianBlur stdDeviation="3.391"/>
            <feComposite in2="hardAlpha" operator="out"/>
            <feColorMatrix type="matrix" values="0 0 0 0 0.276832 0 0 0 0 0.341667 0 0 0 0 0.0341667 0 0 0 0.13 0"/>
            <feBlend mode="normal" in2="BackgroundImageFix" result="effect1_dropShadow_148_15403"/>
            <feBlend mode="normal" in="SourceGraphic" in2="effect1_dropShadow_148_15403" result="shape"/>
        </filter>
        <filter id="filter2_d_148_15403" x="817.393" y="92.3509" width="91.3307" height="73.0988" filterUnits="userSpaceOnUse" color-interpolation-filters="sRGB">
            <feFlood flood-opacity="0" result="BackgroundImageFix"/>
            <feColorMatrix in="SourceAlpha" type="matrix" values="0 0 0 0 0 0 0 0 0 0 0 0 0 0 0 0 0 0 127 0" result="hardAlpha"/>
            <feOffset dy="5.37441"/>
            <feGaussianBlur stdDeviation="4.03081"/>
            <feComposite in2="hardAlpha" operator="out"/>
            <feColorMatrix type="matrix" values="0 0 0 0 0.276832 0 0 0 0 0.341667 0 0 0 0 0.0341667 0 0 0 0.13 0"/>
            <feBlend mode="normal" in2="BackgroundImageFix" result="effect1_dropShadow_148_15403"/>
            <feBlend mode="normal" in="SourceGraphic" in2="effect1_dropShadow_148_15403" result="shape"/>
        </filter>
        <filter id="filter3_d_148_15403" x="730.267" y="51.2781" width="91.4667" height="70.4665" filterUnits="userSpaceOnUse" color-interpolation-filters="sRGB">
            <feFlood flood-opacity="0" result="BackgroundImageFix"/>
            <feColorMatrix in="SourceAlpha" type="matrix" values="0 0 0 0 0 0 0 0 0 0 0 0 0 0 0 0 0 0 127 0" result="hardAlpha"/>
            <feOffset dy="5.6"/>
            <feGaussianBlur stdDeviation="4.2"/>
            <feComposite in2="hardAlpha" operator="out"/>
            <feColorMatrix type="matrix" values="0 0 0 0 0.276832 0 0 0 0 0.341667 0 0 0 0 0.0341667 0 0 0 0.13 0"/>
            <feBlend mode="normal" in2="BackgroundImageFix" result="effect1_dropShadow_148_15403"/>
            <feBlend mode="normal" in="SourceGraphic" in2="effect1_dropShadow_148_15403" result="shape"/>
        </filter>
        <radialGradient id="paint0_angular_148_15403" cx="0" cy="0" r="1" gradientUnits="userSpaceOnUse" gradientTransform="translate(696.355 130.108) scale(48.3376)">
            <stop offset="0.625" stop-color="#DAF400"/>
            <stop offset="0.625" stop-color="#B3E600"/>
        </radialGradient>
        <radialGradient id="paint1_angular_148_15403" cx="0" cy="0" r="1" gradientUnits="userSpaceOnUse" gradientTransform="translate(860.799 127.694) scale(57.4579)">
            <stop offset="0.520833" stop-color="#D2DCE4"/>
            <stop offset="0.520933" stop-color="#E8ECF0"/>
        </radialGradient>
        <radialGradient id="paint2_angular_148_15403" cx="0" cy="0" r="1" gradientUnits="userSpaceOnUse" gradientTransform="translate(774.561 81.4941) scale(59.8697)">
            <stop offset="0.583465" stop-color="#3ED0FE"/>
            <stop offset="0.583565" stop-color="#5BECFF"/>
        </radialGradient>
        <clipPath id="clip0_148_15403">
            <rect width="1017" height="199" rx="10" fill="white"/>
        </clipPath>
    </defs>
</svg>
