<svg width="123" height="40" viewBox="0 0 123 40" fill="none" xmlns="http://www.w3.org/2000/svg">
    <path fill-rule="evenodd" clip-rule="evenodd" d="M0.497559 29.8463C0.497559 31.1358 1.54147 32.1814 2.82768 32.1814V32.183C4.11389 32.183 5.15946 31.1375 5.15946 29.8479V23.2691C5.15815 22.6508 4.91216 22.0581 4.47525 21.6206C4.03833 21.1831 3.446 20.9362 2.82768 20.9341C1.54313 20.9341 0.497559 21.9796 0.497559 23.2691V29.8463ZM7.99908 32.3689C7.99908 33.6584 9.04133 34.704 10.3292 34.704C11.6154 34.704 12.661 33.6601 12.661 32.3689V20.7515C12.661 19.462 11.6171 18.4164 10.3292 18.4164C9.04133 18.4164 7.99908 19.4603 7.99908 20.7515V32.3689ZM15.5006 34.8351C15.5006 36.1246 16.5429 37.1702 17.8307 37.1702V37.1669C19.1186 37.1669 20.1608 36.123 20.1608 34.8318V18.272C20.1608 16.9825 19.1153 15.9369 17.8307 15.9369C16.5462 15.9369 15.5006 16.9808 15.5006 18.272V34.8351ZM4.96528 0.366273L37.4973 10.1183L37.4791 10.1116C38.8947 10.5348 40.0017 11.9256 40.0017 13.2782V34.158C40.0112 34.4484 39.9604 34.7377 39.8527 35.0077C39.745 35.2776 39.5827 35.5223 39.3758 35.7265C39.169 35.9307 38.9222 36.0899 38.6509 36.1941C38.3796 36.2983 38.0897 36.3453 37.7994 36.3321C37.5164 36.3297 37.2353 36.2867 36.9646 36.2043L29.9941 34.1082V32.2245L37.499 34.47C37.6012 34.5039 37.7082 34.5213 37.816 34.5214C38.2143 34.5214 38.2143 34.2791 38.2143 34.1596V13.2981C38.2143 12.7952 37.6898 12.075 36.9828 11.8625L4.44913 2.11054C4.34616 2.07726 4.2387 2.05991 4.13049 2.0591C3.73218 2.0591 3.73218 2.31468 3.73218 2.42421V18.6886C3.43489 18.6292 3.13249 18.5992 2.82934 18.599C2.52673 18.5992 2.22489 18.6292 1.92816 18.6886V2.4126C1.92816 0.864162 3.36872 -0.131615 4.96528 0.366273ZM23.0021 37.4241C23.0021 38.7137 24.0444 39.7592 25.3322 39.7592V39.7775C26.6201 39.7775 27.6624 38.7336 27.6624 37.4424V15.688C27.6624 14.3968 26.6168 13.3512 25.3322 13.3512C24.0477 13.3512 23.0021 14.3984 23.0021 15.688V37.4241ZM50.3613 27.1057V21.6439L50.3624 21.6428H52.2666C53.8611 21.6428 55.1344 21.206 56.0795 20.3325C57.0247 19.459 57.4961 18.3371 57.4961 16.9667C57.4961 15.5964 57.0617 14.5346 56.2217 13.7824C55.3817 13.0302 54.1846 12.6535 52.6398 12.6535H48.6686V27.1057H50.3613ZM50.3613 20.1107V14.1856H52.3463C54.604 14.1856 55.7318 15.1412 55.7318 17.0476C55.7318 18.0217 55.4232 18.775 54.8097 19.31C54.1962 19.8449 53.3042 20.1107 52.1349 20.1107H50.3613ZM60.1767 25.9017C61.0872 26.8654 62.305 27.3483 63.8302 27.3483V27.3252C65.3842 27.3252 66.6321 26.8307 67.5622 25.8393C68.4924 24.848 68.958 23.5308 68.958 21.8831C68.958 20.2158 68.5282 18.9137 67.6639 17.9546C66.7997 16.9956 65.6003 16.5335 64.0613 16.5335C62.4483 16.5335 61.1912 17.0338 60.2322 18.0066C59.2732 18.9795 58.811 20.3348 58.811 22.068C58.811 23.6602 59.2662 24.9381 60.1767 25.9017ZM61.4315 19.02C62.0497 18.2978 62.8874 17.9362 63.9504 17.9362L63.9388 17.935C65.0076 17.935 65.8291 18.2839 66.4022 18.983C66.9753 19.682 67.2641 20.6768 67.2641 21.9663C67.2641 23.2431 66.9764 24.2252 66.4022 24.9184C65.8279 25.6117 65.0076 25.9583 63.9388 25.9583C62.8908 25.9583 62.0416 25.6048 61.4292 24.9C60.8168 24.1951 60.5048 23.2304 60.5048 22.0079C60.5048 20.7381 60.8134 19.7421 61.4315 19.02ZM81.2299 27.1034L84.3241 16.7853L84.3253 16.7576H82.6926L80.5967 24.5371C80.495 24.8942 80.4396 25.2027 80.4257 25.465H80.3448C80.3125 25.0952 80.2616 24.7856 80.1946 24.5371L78.0571 16.7576H76.5457L74.1679 24.499C74.0727 24.8072 74.0118 25.1249 73.9865 25.4465H73.9056C73.8802 25.0629 73.8316 24.7544 73.7646 24.5198L71.6271 16.7588H69.8939L73.0182 27.0768H74.6705L76.9779 19.682C77.0803 19.3821 77.1511 19.0723 77.1893 18.7577H77.2298C77.2575 19.1159 77.3106 19.4347 77.3915 19.7167L79.5175 27.1034H81.2299ZM86.9389 22.3592H94.2378L94.2135 22.3464V21.4799C94.2135 19.927 93.8438 18.7126 93.1043 17.8403C92.3648 16.9679 91.3203 16.5311 89.9696 16.5311C88.6189 16.5311 87.4889 17.0361 86.5784 18.0471C85.6679 19.0581 85.2127 20.3556 85.2127 21.9732C85.2127 23.674 85.6298 24.9901 86.4628 25.9271C87.2959 26.8642 88.4409 27.3333 89.8991 27.3333C91.3908 27.3333 92.5901 27.004 93.4971 26.3454V24.7937C92.5219 25.562 91.4543 25.9433 90.2919 25.9433C89.2694 25.9433 88.4456 25.6429 87.8655 25.019C87.2855 24.395 86.9655 23.5077 86.9389 22.3592ZM91.8529 18.7322C92.307 19.2603 92.5358 20.0055 92.5427 20.9588L86.9701 20.9461C87.0983 20.046 87.4357 19.3169 87.9788 18.7588C88.2335 18.4893 88.5415 18.2759 88.8833 18.132C89.2251 17.9882 89.593 17.9172 89.9638 17.9234C90.7691 17.9234 91.3989 18.2042 91.8529 18.7322ZM100.767 18.1256C101.324 18.1256 101.728 18.2366 102.017 18.4584H102.018V16.7461C101.789 16.6513 101.46 16.6051 101.031 16.6051C100.431 16.6051 99.8901 16.8061 99.4072 17.214C98.9242 17.6219 98.5637 18.1869 98.3292 18.9125H98.2887V16.7865H96.6364V27.1045H98.2887V21.845C98.2887 20.6942 98.5256 19.7872 98.9993 19.1228C99.473 18.4584 100.074 18.1256 100.767 18.1256ZM109.687 12.6535V27.1057H113.9C115.25 27.1057 116.37 26.7244 117.256 25.9572C118.143 25.19 118.585 24.1894 118.585 22.953C118.585 21.9594 118.294 21.1517 117.709 20.5301C117.125 19.9085 116.346 19.5422 115.372 19.4267V19.3874C116.152 19.1309 116.762 18.7034 117.205 18.0968C117.649 17.4902 117.871 16.768 117.871 15.9592C117.871 14.9782 117.505 14.1821 116.773 13.5709C116.042 12.9597 115.051 12.6535 113.8 12.6535H109.687ZM111.381 18.8443V14.1879L113.337 14.1775C115.186 14.1775 116.11 14.88 116.11 16.2839C116.11 17.0973 115.832 17.7282 115.301 18.1742C114.771 18.6202 114.041 18.8443 113.114 18.8443H111.381ZM111.381 25.5759V20.3764L113.327 20.388C115.651 20.388 116.814 21.2418 116.814 22.9484C116.814 23.7688 116.553 24.4251 116.005 24.8826C115.457 25.3402 114.685 25.5759 113.692 25.5759H111.381ZM121.307 27.1057H123V12.6535H121.307V27.1057Z" fill="#4A4A4A"/>
</svg>