<svg xmlns="http://www.w3.org/2000/svg" xmlns:xlink="http://www.w3.org/1999/xlink" width="404" height="545"><defs><rect id="b" width="100" height="72" x="0" y="0" rx="12"/><rect id="c" width="100" height="72" x="0" y="0" rx="12"/><rect id="d" width="100" height="72" x="0" y="0" rx="12"/><rect id="e" width="324" height="56" x="0" y="0" rx="12"/><rect id="f" width="156" height="62" x="0" y="0" rx="12"/><rect id="g" width="156" height="62" x="0" y="0" rx="12"/><rect id="h" width="324" height="66" x="0" y="0" rx="12"/><path id="a" fill-opacity="1" fill="#eaeced" d="M176.414-0.014L183.828 0H326c13.255 0 24 10.745 24 24v435c0 13.255-10.745 24-24 24H24c-13.255 0-24-10.745-24-24V24C0 10.745 10.745 0 24 0h142.171l7.415-0.014a2 2 0 012.828 0z"/></defs><g fill="none" fill-rule="evenodd" transform="translate(27 23)"><use fill="eaeced" fill-opacity=".88" xlink:href="#a"/><g fill="#FFF" transform="translate(13 353)"><rect width="324" height="117" rx="16"/><path d="M42.038 43h253.253v38H42.038z"/></g><use fill="#FFF" transform="translate(13 257)" fill-opacity=".75" xlink:href="#b"/><use transform="translate(125 257)" fill="#FFF" fill-opacity=".75" xlink:href="#c"/><use transform="translate(237 257)" fill="#FFF" fill-opacity=".75" xlink:href="#d"/><use transform="translate(13 177)" fill="#FFF" fill-opacity=".75" xlink:href="#e"/><use transform="translate(13 91)" fill="#FFF" fill-opacity=".75" xlink:href="#f"/><use transform="translate(179 91)" fill="#FFF" fill-opacity=".75" xlink:href="#g"/><use fill="#FFF" transform="translate(13 13)" xlink:href="#h"/><g id="k" fill="#9EA6AD"><g transform="translate(13 257)"><rect width="40" height="7" x="29" y="43" opacity=".2" rx="2"/><rect width="50" height="7" x="24" y="55" opacity=".2" rx="2"/><circle cx="50" cy="22" r="11" opacity=".2"/></g><g transform="translate(125 257)"><rect width="54" height="7" x="22" y="43" opacity=".2" rx="2"/><rect width="46" height="7" x="26" y="55" opacity=".2" rx="2"/><circle cx="50" cy="22" r="11" opacity=".2"/></g><g transform="translate(237 257)"><rect width="40" height="7" x="29" y="43" opacity=".2" rx="2"/><rect width="50" height="7" x="24" y="55" opacity=".2" rx="2"/><circle cx="50" cy="22" r="11" opacity=".2"/></g><g transform="translate(13 177)"><circle cx="23" cy="28" r="13" opacity=".2"/><rect width="91" height="8" x="45" y="16" opacity=".2" rx="2"/><rect width="56" height="7" x="45" y="32" opacity=".2" rx="2"/><rect width="36" height="7" x="271" y="24" opacity=".2" rx="2"/></g><g transform="translate(181 91)"><circle cx="23" cy="26" r="13" opacity=".2"/><rect width="91" height="8" x="45" y="17" opacity=".2" rx="2"/><rect width="56" height="7" x="45" y="33" opacity=".2" rx="2"/></g><circle cx="23" cy="26" r="13" transform="translate(13 91)" opacity=".2"/><rect width="91" height="8" x="45" y="17" transform="translate(13 91)" opacity=".2" rx="2"/><rect width="56" height="7" x="45" y="33" transform="translate(13 91)" opacity=".2" rx="2"/><g opacity=".2" transform="translate(72 35)"><rect width="92" height="9" rx="2"/><rect width="127" height="6" y="17" rx="2"/></g><rect transform="translate(13 13)" width="36" height="7" x="271" y="30" opacity=".2" rx="2"/><circle cx="18" cy="18" r="18" opacity=".2" transform="translate(25 28)"/></g></g><rect id="l" transform="translate(27 23)" width="100%" fill="url(#i)" mask="url(#j)" height="100%"/><mask id="j" fill="#fff"><use xlink:href="#k"/></mask><linearGradient x1="66.6%" y1="50%" x2="33.3%" y2="50%" id="i"><stop stop-color="#9EA6AD" stop-opacity="0" offset="0%"/><stop stop-color="#9EA6AD" stop-opacity="0" offset="0%"/><stop stop-color="#9EA6AD" offset="50%"/><stop stop-color="#9EA6AD" stop-opacity="0" offset="100%"/></linearGradient><animate xlink:href="#l" attributeName="x" from="-100%" to="100%" dur="1s" begin="0s" repeatCount="indefinite"/></svg>
