<svg width="295" height="32" viewBox="0 0 295 32" fill="none" xmlns="http://www.w3.org/2000/svg">
	<mask id="mask0_2_11" style="mask-type:alpha" maskUnits="userSpaceOnUse" x="0" y="0" width="295" height="32">
		<path fill="#d3d7dc" d="M0 2.9961C0 1.3414 1.33554 0 2.99805 0L285.905 7.15256e-07C287.561 7.15256e-07 289.366 1.25757 289.937 2.80757L295 16.5505L290.007 29.2022C289.397 30.7474 287.567 32 285.905 32H2.99805C1.34227 32 0 30.6657 0 29.0039V2.9961Z"/>
	</mask>
	<g mask="url(#mask0_2_11)">
		<path fill="#d3d7dc" d="M0 2.9961C0 1.3414 1.33554 0 2.99805 0L285.905 7.15256e-07C287.561 7.15256e-07 289.366 1.25757 289.937 2.80757L295 16.5505L290.007 29.2022C289.397 30.7474 287.567 32 285.905 32H2.99805C1.34227 32 0 30.6657 0 29.0039V2.9961Z"/>
		<path d="M0 30H295V32H0V30Z" fill="#7bd500"/>
	</g>
</svg>