<svg width="22" height="22" viewBox="0 0 22 22" fill="none" xmlns="http://www.w3.org/2000/svg">
<rect width="22" height="22" rx="11" fill="#55D0E0"/>
<path fill-rule="evenodd" clip-rule="evenodd" d="M5.64749 5.65332C5.09521 5.65332 4.64749 6.10104 4.64749 6.65332V14.1386H3.59394C3.17821 14.1386 2.94406 14.6164 3.19881 14.9449L3.98603 15.9602C4.17544 16.2045 4.46718 16.3474 4.77629 16.3474H17.3029C17.6277 16.3474 17.9323 16.1896 18.1197 15.9242L18.8239 14.927C19.0578 14.5958 18.821 14.1386 18.4155 14.1386H17.3548V6.65332C17.3548 6.10104 16.9071 5.65332 16.3548 5.65332H5.64749ZM12.8102 14.1386H15.3304C15.4621 14.1069 15.56 13.9883 15.56 13.8469V7.48693C15.56 7.32125 15.4257 7.18693 15.26 7.18693H6.74238C6.5767 7.18693 6.44238 7.32125 6.44238 7.48693V13.8469C6.44238 13.9883 6.54027 14.1069 6.672 14.1386H9.19204C9.29464 14.5646 9.67823 14.8811 10.1357 14.8811H11.8665C12.324 14.8811 12.7076 14.5646 12.8102 14.1386Z" fill="white" fill-opacity="0.94"/>
</svg>
