<svg width="22" height="22" viewBox="0 0 22 22" fill="none" xmlns="http://www.w3.org/2000/svg">
<rect width="22" height="22" rx="11" fill="#9DCF00"/>
<path fill-rule="evenodd" clip-rule="evenodd" d="M13.876 4.31641L8.12417 4.31641C7.42019 4.31641 6.88232 4.8272 6.88232 5.49574V16.5026C6.88232 17.1313 7.42019 17.682 8.12417 17.682H13.876C14.58 17.682 15.1178 17.1313 15.1178 16.5026V5.49574C15.1178 4.82794 14.58 4.31641 13.876 4.31641ZM11.0001 17.2891C10.5674 17.2891 10.2136 16.9353 10.2136 16.5026C10.2136 16.0699 10.5674 15.7161 11.0001 15.7161C11.4327 15.7161 11.7865 16.0699 11.7865 16.5026C11.7865 16.9353 11.4327 17.2891 11.0001 17.2891ZM13.9748 15.324H8.02542V6.28222L13.9755 6.28222L13.9748 15.324Z" fill="white"/>
</svg>
