<svg width="22" height="22" viewBox="0 0 22 22" fill="none" xmlns="http://www.w3.org/2000/svg">
<rect width="22" height="22" rx="11" fill="#2FC6F6"/>
<path fill-rule="evenodd" clip-rule="evenodd" d="M3.76831 7.59931L3.76831 14.4007C3.76831 15.2331 4.32106 15.8691 5.04452 15.8691L16.9555 15.8691C17.6359 15.8691 18.2317 15.2331 18.2317 14.4007L18.2317 7.59931C18.2317 6.76687 17.6359 6.13085 16.9555 6.13085L5.04452 6.13085C4.32186 6.13085 3.76831 6.76687 3.76831 7.59931ZM17.4225 10.9999C17.4225 11.3613 17.1218 11.6568 16.754 11.6568C16.3863 11.6568 16.0856 11.3613 16.0856 10.9999C16.0856 10.6385 16.3863 10.343 16.754 10.343C17.1218 10.343 17.4225 10.6385 17.4225 10.9999ZM15.4436 7.38484L15.4436 14.6152L5.57563 14.6152L5.57563 7.38396L15.4436 7.38484Z" fill="white"/>
</svg>
