<svg width="367" height="59" viewBox="0 0 367 59" fill="none" xmlns="http://www.w3.org/2000/svg">
<g clip-path="url(#clip0)">
<path fill-rule="evenodd" clip-rule="evenodd" d="M120.855 103.434C133.591 97.507 144.985 92.2039 156.467 86.8584C167.929 92.1915 179.321 97.4911 192.084 103.427C190.462 89.5638 189.006 77.1127 187.501 64.2357C196.001 54.9848 204.607 45.6155 214.189 35.1877C200.111 32.3833 187.832 29.9358 175.663 27.5131C169.24 15.9862 163.049 4.87627 156.442 -6.98289C149.631 5.26327 143.377 16.5145 137.248 27.5414C124.471 30.0984 112.296 32.537 98.6609 35.269C108.464 45.8329 117.021 55.0555 125.443 64.1314C123.929 77.1021 122.475 89.5603 120.855 103.434M184.896 14.8206C203.485 18.4626 221.896 22.0675 242.238 26.0524C228.671 40.7089 216.008 54.3847 202.594 68.8768C204.744 87.3362 206.973 106.464 209.406 127.346C190.855 118.662 173.887 110.721 156.479 102.574C139.451 110.547 122.25 118.604 103.463 127.402C105.9 106.941 108.117 88.3329 110.416 69.02C97.6764 55.2364 84.774 41.2762 70.7471 26.0984C90.8285 22.1382 109.399 18.4768 128.061 14.7976C137.42 -2.17737 146.624 -18.8731 156.447 -36.6875C166.086 -19.2319 175.236 -2.66686 184.896 14.8206" fill="#F0FBFF"/>
<g filter="url(#filter0_d)">
<path fill-rule="evenodd" clip-rule="evenodd" d="M38 71C56.2254 71 71 56.2254 71 38C71 19.7746 56.2254 5 38 5C19.7746 5 5 19.7746 5 38C5 56.2254 19.7746 71 38 71Z" fill="white"/>
</g>
<path fill-rule="evenodd" clip-rule="evenodd" d="M37.9999 62.3021C50.9341 62.3021 61.4193 51.8169 61.4193 38.8827C61.4193 25.9486 50.9341 15.4634 37.9999 15.4634C25.0658 15.4634 14.5806 25.9486 14.5806 38.8827C14.5806 51.8169 25.0658 62.3021 37.9999 62.3021Z" fill="#29AD49"/>
<path fill-rule="evenodd" clip-rule="evenodd" d="M32.0467 46.6243C33.9798 45.7234 35.7091 44.9172 37.4518 44.1046C39.1916 44.9153 40.9207 45.7209 42.8577 46.6232C42.6115 44.5159 42.3906 42.6232 42.1621 40.6657C43.4523 39.2595 44.7585 37.8353 46.2129 36.2501C44.0761 35.8238 42.2124 35.4518 40.3654 35.0835C39.3905 33.3313 38.4509 31.6425 37.4481 29.8397C36.4143 31.7013 35.465 33.4116 34.5348 35.0878C32.5956 35.4765 30.7477 35.8472 28.6781 36.2625C30.1661 37.8683 31.4648 39.2702 32.7431 40.6499C32.5133 42.6216 32.2926 44.5154 32.0467 46.6243M41.7668 33.154C44.5881 33.7076 47.3826 34.2556 50.47 34.8614C48.4109 37.0893 46.4889 39.1682 44.4529 41.3712C44.7792 44.1772 45.1176 47.0848 45.4869 50.2591C42.6712 48.939 40.0958 47.7319 37.4537 46.4935C34.8691 47.7055 32.2585 48.9302 29.4071 50.2677C29.7769 47.1573 30.1134 44.3287 30.4623 41.3929C28.5287 39.2977 26.5704 37.1756 24.4414 34.8684C27.4893 34.2664 30.308 33.7098 33.1404 33.1505C34.5609 30.5701 35.958 28.0322 37.4489 25.3242C38.9118 27.9777 40.3006 30.4957 41.7668 33.154" fill="white"/>
</g>
<defs>
<filter id="filter0_d" x="3" y="4" width="70" height="70" filterUnits="userSpaceOnUse" color-interpolation-filters="sRGB">
<feFlood flood-opacity="0" result="BackgroundImageFix"/>
<feColorMatrix in="SourceAlpha" type="matrix" values="0 0 0 0 0 0 0 0 0 0 0 0 0 0 0 0 0 0 127 0"/>
<feOffset dy="1"/>
<feGaussianBlur stdDeviation="1"/>
<feColorMatrix type="matrix" values="0 0 0 0 0 0 0 0 0 0 0 0 0 0 0 0 0 0 0.06 0"/>
<feBlend mode="normal" in2="BackgroundImageFix" result="effect1_dropShadow"/>
<feBlend mode="normal" in="SourceGraphic" in2="effect1_dropShadow" result="shape"/>
</filter>
<clipPath id="clip0">
<rect width="367" height="129" fill="white"/>
</clipPath>
</defs>
</svg>
