<svg width="10" height="10" viewBox="0 0 10 10" fill="none" xmlns="http://www.w3.org/2000/svg">
<path d="M8.66488 0.621272C8.46962 0.42601 8.15304 0.42601 7.95778 0.621272L5.00022 3.57883L2.04245 0.621056C1.84719 0.425794 1.5306 0.425794 1.33534 0.621056L0.62176 1.33464C0.426498 1.5299 0.426498 1.84648 0.62176 2.04174L3.57953 4.99952L0.621544 7.9575C0.426282 8.15277 0.426282 8.46935 0.621544 8.66461L1.33512 9.37819C1.53039 9.57345 1.84697 9.57345 2.04223 9.37819L5.00022 6.4202L7.95799 9.37798C8.15325 9.57324 8.46984 9.57324 8.6651 9.37798L9.37868 8.6644C9.57394 8.46913 9.57394 8.15255 9.37868 7.95729L6.42091 4.99952L9.37846 2.04196C9.57373 1.8467 9.57373 1.53012 9.37846 1.33485L8.66488 0.621272Z" fill="white"/>
</svg>
