<svg width="375" height="874" viewBox="0 0 375 874" fill="none" xmlns="http://www.w3.org/2000/svg">
<path d="M0 0H375V874H0V0Z" fill="white"/>
<path opacity="0.148418" fill-rule="evenodd" clip-rule="evenodd" d="M0 0L375 0L375 874L0 874L0 0Z" fill="#2FC6F6"/>
<mask id="mask0" mask-type="alpha" maskUnits="userSpaceOnUse" x="0" y="0" width="375" height="874">
<path fill-rule="evenodd" clip-rule="evenodd" d="M0 0L375 0L375 874L0 874L0 0Z" fill="white"/>
</mask>
<g mask="url(#mask0)">
<mask id="mask1" mask-type="alpha" maskUnits="userSpaceOnUse" x="0" y="0" width="375" height="874">
<rect width="375" height="874" fill="white"/>
</mask>
<g mask="url(#mask1)">
<rect opacity="0.04" x="-197" y="-15" width="611.545" height="468.119"/>
<rect opacity="0.04" width="611.545" height="468.119" transform="matrix(-1 0 0 1 515.84 407.881)"/>
</g>
<g opacity="0.44">
<path fill-rule="evenodd" clip-rule="evenodd" d="M304.451 103.3C290.293 103.216 279.198 113.977 279.625 127.382C280.027 140.066 291.113 151.269 303.474 151.476C317.254 151.708 327.775 141.075 327.79 126.898C327.808 113.382 317.915 103.378 304.451 103.3ZM319.716 342.127C317.675 305.216 363.648 281.437 401.62 297.675C389.211 338.66 366.711 350.869 319.716 342.127ZM305.699 196.754C287.777 220.707 268.941 226.142 250.328 213.419C230.939 200.167 229.692 179.558 246.676 152.976C221.6 147.445 207.345 129.72 211.671 109.438C217.124 83.8536 233.747 75.2013 265.815 81.2519C270.646 47.7573 281.079 34.6226 302.954 34.4844C323.777 34.3522 336.204 48.6736 340.875 78.6142C354.372 76.4 367.956 72.5455 380.831 81.5734C388.718 87.1042 393.429 94.4978 395.777 103.324C401.392 124.42 388.776 142.263 363.152 150.203C380.29 173.597 380.308 196.49 363.197 209.958C345.6 223.808 326.32 219.608 305.699 196.754ZM209.951 295.992C229.725 290.266 248.801 290.392 267.02 300.505C283.09 309.424 290.218 323.908 291.33 342.534C244.304 347.494 223.073 341.954 209.951 295.992ZM372.51 268.586C351.814 269.102 334.199 277.487 317.148 288.997V239.102C368.966 252.203 410.19 216.467 399.372 160.288C436.424 126.294 426.639 57.7967 359.846 48.7268C336.324 -2.27672 268.764 -4.74323 243.745 52.5693C186.943 61.5881 167.032 123.425 210.444 165.975C204.366 213.217 234.946 251.75 290.485 242.782V286.128C254.146 261.682 217.716 265.467 179.284 279.191C182.804 297.79 187.776 314.659 197.158 330.356C212.359 355.791 233.828 368.679 263.957 367.943C293.99 367.213 324.053 367.775 354.104 367.961C371.584 368.069 386.07 361.526 398.701 349.71C419.088 330.63 426.618 305.821 432.254 279.251C412.048 272.656 392.897 268.075 372.51 268.586Z" fill="white"/>
</g>
<g opacity="0.44">
<path fill-rule="evenodd" clip-rule="evenodd" d="M46.4511 538.3C32.2928 538.216 21.1977 548.977 21.6245 562.382C22.0273 575.066 33.1135 586.269 45.4742 586.476C59.2537 586.708 69.7747 576.075 69.7897 561.898C69.8078 548.382 59.915 538.378 46.4511 538.3ZM61.7156 777.127C59.6745 740.216 105.648 716.437 143.62 732.675C131.211 773.66 108.711 785.869 61.7156 777.127ZM47.6986 631.754C29.7768 655.707 10.9412 661.142 -7.67202 648.419C-27.0608 635.167 -28.3082 614.558 -11.3243 587.976C-36.4004 582.445 -50.6549 564.72 -46.3292 544.438C-40.8764 518.854 -24.2531 510.201 7.81492 516.252C12.6456 482.757 23.0794 469.623 44.9541 469.484C65.7767 469.352 78.2035 483.674 82.8749 513.614C96.3718 511.4 109.956 507.546 122.831 516.573C130.718 522.104 135.429 529.498 137.777 538.324C143.392 559.42 130.776 577.263 105.152 585.203C122.29 608.597 122.308 631.49 105.197 644.958C87.6003 658.808 68.3198 654.608 47.6986 631.754ZM-48.0487 730.992C-28.2752 725.266 -9.19907 725.392 9.02033 735.505C25.0904 744.424 32.2177 758.908 33.3299 777.534C-13.6961 782.494 -34.9275 776.955 -48.0487 730.992ZM114.51 703.586C93.8137 704.102 76.1985 712.487 59.1485 723.997V674.102C110.966 687.203 152.19 651.467 141.372 595.288C178.424 561.294 168.639 492.797 101.846 483.727C78.3238 432.723 10.7638 430.257 -14.2552 487.569C-71.0566 496.588 -90.9684 558.425 -47.5557 600.975C-53.6338 648.217 -23.0537 686.75 32.4852 677.782V721.128C-3.85439 696.682 -40.2842 700.467 -78.7159 714.191C-75.1959 732.79 -70.224 749.659 -60.8422 765.356C-45.6409 790.791 -24.172 803.679 5.9572 802.943C35.9902 802.213 66.0533 802.775 96.1043 802.961C113.584 803.069 128.07 796.526 140.701 784.71C161.088 765.63 168.618 740.821 174.254 714.251C154.048 707.656 134.897 703.075 114.51 703.586Z" fill="white"/>
</g>
<g opacity="0.25">
<g filter="url(#filter0_f)">
<path fill-rule="evenodd" clip-rule="evenodd" d="M66.7598 287.886C63.3542 287.865 60.6854 290.454 60.788 293.678C60.8849 296.729 63.5516 299.424 66.5249 299.474C69.8394 299.53 72.3701 296.972 72.3737 293.562C72.3781 290.311 69.9985 287.904 66.7598 287.886ZM70.4316 345.333C69.9406 336.455 80.9992 330.735 90.133 334.641C87.1481 344.499 81.736 347.436 70.4316 345.333ZM67.0599 310.365C62.749 316.127 58.2183 317.434 53.741 314.373C49.0773 311.186 48.7772 306.228 52.8625 299.834C46.8307 298.504 43.4019 294.24 44.4424 289.362C45.7541 283.208 49.7526 281.126 57.4663 282.582C58.6282 274.525 61.138 271.366 66.3998 271.332C71.4084 271.301 74.3976 274.745 75.5212 281.947C78.7678 281.415 82.0353 280.488 85.1322 282.659C87.0296 283.99 88.1626 285.768 88.7273 287.891C90.078 292.966 87.0433 297.257 80.8799 299.167C85.0021 304.795 85.0064 310.301 80.8907 313.541C76.6579 316.872 72.0201 315.862 67.0599 310.365ZM44.0288 334.236C48.7851 332.858 53.3737 332.889 57.7562 335.321C61.6217 337.467 63.3361 340.95 63.6037 345.431C52.292 346.624 47.185 345.291 44.0288 334.236ZM83.1308 327.644C78.1525 327.768 73.9153 329.785 69.8141 332.553V320.551C82.2783 323.703 92.1944 315.107 89.5921 301.593C98.5046 293.417 96.151 276.94 80.0845 274.759C74.4265 262.49 58.1756 261.897 52.1575 275.683C38.4945 277.852 33.7049 292.727 44.1474 302.961C42.6854 314.325 50.0411 323.594 63.4005 321.437V331.863C54.6593 325.983 45.8965 326.893 36.6521 330.195C37.4988 334.668 38.6948 338.726 40.9515 342.502C44.608 348.62 49.7721 351.72 57.0194 351.543C64.2436 351.367 71.475 351.503 78.7034 351.547C82.9081 351.573 86.3925 349.999 89.4309 347.157C94.3347 342.568 96.146 336.6 97.5017 330.209C92.6413 328.623 88.0346 327.521 83.1308 327.644Z" fill="white"/>
</g>
</g>
<g opacity="0.25">
<g filter="url(#filter1_f)">
<path fill-rule="evenodd" clip-rule="evenodd" d="M306.76 734.886C303.354 734.865 300.685 737.454 300.788 740.678C300.885 743.729 303.552 746.424 306.525 746.474C309.839 746.53 312.37 743.972 312.374 740.562C312.378 737.311 309.998 734.904 306.76 734.886ZM310.432 792.333C309.941 783.455 320.999 777.735 330.133 781.641C327.148 791.499 321.736 794.436 310.432 792.333ZM307.06 757.365C302.749 763.127 298.218 764.434 293.741 761.373C289.077 758.186 288.777 753.228 292.863 746.834C286.831 745.504 283.402 741.24 284.442 736.362C285.754 730.208 289.753 728.126 297.466 729.582C298.628 721.525 301.138 718.366 306.4 718.332C311.408 718.301 314.398 721.745 315.521 728.947C318.768 728.415 322.035 727.488 325.132 729.659C327.03 730.99 328.163 732.768 328.727 734.891C330.078 739.966 327.043 744.257 320.88 746.167C325.002 751.795 325.006 757.301 320.891 760.541C316.658 763.872 312.02 762.862 307.06 757.365ZM284.029 781.236C288.785 779.858 293.374 779.889 297.756 782.321C301.622 784.467 303.336 787.95 303.604 792.431C292.292 793.624 287.185 792.291 284.029 781.236ZM323.131 774.644C318.152 774.768 313.915 776.785 309.814 779.553V767.551C322.278 770.703 332.194 762.107 329.592 748.593C338.505 740.417 336.151 723.94 320.085 721.759C314.427 709.49 298.176 708.897 292.158 722.683C278.494 724.852 273.705 739.727 284.147 749.961C282.685 761.325 290.041 770.594 303.4 768.437V778.863C294.659 772.983 285.896 773.893 276.652 777.195C277.499 781.668 278.695 785.726 280.951 789.502C284.608 795.62 289.772 798.72 297.019 798.543C304.244 798.367 311.475 798.503 318.703 798.547C322.908 798.573 326.393 796.999 329.431 794.157C334.335 789.568 336.146 783.6 337.502 777.209C332.641 775.623 328.035 774.521 323.131 774.644Z" fill="white"/>
</g>
</g>
</g>
<defs>
<filter id="filter0_f" x="33.9338" y="262.732" width="66.2862" height="91.5368" filterUnits="userSpaceOnUse" color-interpolation-filters="sRGB">
<feFlood flood-opacity="0" result="BackgroundImageFix"/>
<feBlend mode="normal" in="SourceGraphic" in2="BackgroundImageFix" result="shape"/>
<feGaussianBlur stdDeviation="1.35914" result="effect1_foregroundBlur"/>
</filter>
<filter id="filter1_f" x="273.934" y="709.732" width="66.2862" height="91.5368" filterUnits="userSpaceOnUse" color-interpolation-filters="sRGB">
<feFlood flood-opacity="0" result="BackgroundImageFix"/>
<feBlend mode="normal" in="SourceGraphic" in2="BackgroundImageFix" result="shape"/>
<feGaussianBlur stdDeviation="1.35914" result="effect1_foregroundBlur"/>
</filter>
</defs>
</svg>
