<svg width="364" height="59" viewBox="0 0 364 59" fill="none" xmlns="http://www.w3.org/2000/svg" xmlns:xlink="http://www.w3.org/1999/xlink">
<mask id="mask0" mask-type="alpha" maskUnits="userSpaceOnUse" x="0" y="0" width="364" height="59">
<rect y="0.882812" width="364" height="58" fill="white"/>
</mask>
<g mask="url(#mask0)">
<rect width="382" height="498" transform="translate(-18 -46)" fill="white"/>
<path opacity="0.208418" fill-rule="evenodd" clip-rule="evenodd" d="M-18 -46.1172L396 -46.1172L396 451.883L-18 451.883L-18 -46.1172Z" fill="#FF7B9D"/>
<mask id="mask1" mask-type="alpha" maskUnits="userSpaceOnUse" x="-18" y="-47" width="414" height="499">
<path fill-rule="evenodd" clip-rule="evenodd" d="M-18 -46.1172L396 -46.1172L396 451.883L-18 451.883L-18 -46.1172Z" fill="white"/>
</mask>
<g mask="url(#mask1)">
<mask id="mask2" mask-type="alpha" maskUnits="userSpaceOnUse" x="-18" y="-47" width="214" height="499">
<rect x="-18" y="-46.1172" width="214" height="498" fill="white"/>
</mask>
<g mask="url(#mask2)">
<rect opacity="0.04" x="-130.421" y="-54.6641" width="348.988" height="266.732" fill="url(#pattern0)"/>
</g>
<g opacity="0.44">
<path fill-rule="evenodd" clip-rule="evenodd" d="M155.74 12.7424C147.661 12.6944 141.329 18.8262 141.572 26.4643C141.802 33.6916 148.129 40.075 155.183 40.1931C163.046 40.3249 169.05 34.2668 169.059 26.1887C169.069 18.4872 163.424 12.7869 155.74 12.7424M164.451 148.825C163.286 127.793 189.522 114.244 211.191 123.497C204.11 146.849 191.27 153.806 164.451 148.825M156.452 65.9922C146.225 79.6405 135.476 82.7372 124.854 75.4877C113.789 67.9368 113.078 56.1938 122.77 41.0476C108.46 37.8962 100.325 27.7964 102.794 16.24C105.905 1.66212 115.392 -3.26792 133.692 0.179684C136.448 -18.9054 142.403 -26.3894 154.886 -26.4682C166.769 -26.5435 173.86 -18.3833 176.526 -1.32329C184.228 -2.5849 191.98 -4.78116 199.327 0.362849C203.829 3.51431 206.517 7.72709 207.857 12.7564C211.061 24.7768 203.861 34.9433 189.239 39.4676C199.019 52.7975 199.029 65.8416 189.265 73.5157C179.223 81.4071 168.22 79.014 156.452 65.9922M101.812 122.537C113.096 119.275 123.982 119.347 134.38 125.109C143.55 130.191 147.618 138.444 148.252 149.057C121.416 151.883 109.3 148.726 101.812 122.537M194.579 106.921C182.768 107.216 172.716 111.993 162.986 118.551V90.1215C192.557 97.5868 216.082 77.2247 209.908 45.2137C231.053 25.8445 225.469 -13.1849 187.352 -18.3529C173.929 -47.4144 135.375 -48.8198 121.097 -16.1635C88.6824 -11.0246 77.3194 24.2097 102.094 48.4542C98.625 75.3725 116.076 97.3283 147.77 92.2185V116.917C127.033 102.988 106.243 105.144 84.3115 112.964C86.3203 123.562 89.1576 133.174 94.5115 142.118C103.186 156.61 115.438 163.954 132.632 163.535C149.77 163.119 166.926 163.439 184.076 163.545C194.051 163.606 202.317 159.878 209.526 153.146C221.16 142.274 225.457 128.138 228.673 112.998C217.142 109.241 206.213 106.63 194.579 106.921" fill="white"/>
</g>
</g>
<g filter="url(#filter0_d)">
<path fill-rule="evenodd" clip-rule="evenodd" d="M38 71.8828C56.2254 71.8828 71 57.1082 71 38.8828C71 20.6574 56.2254 5.88281 38 5.88281C19.7746 5.88281 5 20.6574 5 38.8828C5 57.1082 19.7746 71.8828 38 71.8828Z" fill="white"/>
</g>
<path fill-rule="evenodd" clip-rule="evenodd" d="M37.9999 62.3021C50.9341 62.3021 61.4193 51.8169 61.4193 38.8827C61.4193 25.9486 50.9341 15.4634 37.9999 15.4634C25.0658 15.4634 14.5806 25.9486 14.5806 38.8827C14.5806 51.8169 25.0658 62.3021 37.9999 62.3021Z" fill="#FF7B9D"/>
<path fill-rule="evenodd" clip-rule="evenodd" d="M37.7481 32.1705C36.5218 32.1632 35.5608 33.0953 35.5977 34.2564C35.6326 35.355 36.5928 36.3254 37.6635 36.3433C38.857 36.3634 39.7683 35.4425 39.7696 34.2145C39.7711 33.0438 38.9143 32.1773 37.7481 32.1705M39.0702 52.8566C38.8934 49.6596 42.8754 47.5999 46.1644 49.0064C45.0896 52.5563 43.1408 53.6138 39.0702 52.8566M37.8561 40.265C36.3038 42.3397 34.6724 42.8105 33.0602 41.7084C31.3809 40.5606 31.2728 38.7756 32.7439 36.4732C30.5719 35.9941 29.3372 34.4589 29.7119 32.7021C30.1842 30.4862 31.624 29.7367 34.4016 30.2608C34.82 27.3597 35.7237 26.222 37.6184 26.21C39.422 26.1986 40.4983 27.439 40.9029 30.0323C42.072 29.8406 43.2486 29.5067 44.3637 30.2887C45.0469 30.7677 45.4549 31.4081 45.6582 32.1726C46.1446 33.9998 45.0518 35.5453 42.8325 36.233C44.3168 38.2593 44.3184 40.2421 42.8364 41.4087C41.3122 42.6083 39.6422 42.2445 37.8561 40.265M29.563 48.8605C31.2757 48.3645 32.9279 48.3754 34.506 49.2513C35.8979 50.0239 36.5152 51.2784 36.6116 52.8917C32.5384 53.3213 30.6995 52.8415 29.563 48.8605M43.643 46.4868C41.8504 46.5315 40.3247 47.2578 38.8479 48.2547V43.933C43.336 45.0678 46.9067 41.9726 45.9696 37.1065C49.1789 34.1622 48.3314 28.2293 42.5461 27.4437C40.5087 23.026 34.657 22.8124 32.49 27.7765C27.5701 28.5577 25.8455 33.9137 29.6057 37.5991C29.0792 41.691 31.7279 45.0285 36.5384 44.2518V48.0062C33.3909 45.8888 30.2355 46.2167 26.9067 47.4053C27.2116 49.0163 27.6423 50.4774 28.4549 51.837C29.7715 54.04 31.6311 55.1564 34.2407 55.0926C36.842 55.0294 39.4459 55.078 42.0488 55.0942C43.5628 55.1035 44.8175 54.5368 45.9116 53.5134C47.6774 51.8607 48.3296 49.7119 48.8178 47.4105C47.0676 46.8394 45.4088 46.4425 43.643 46.4868" fill="white"/>
</g>
<defs>
<pattern id="pattern0" patternContentUnits="objectBoundingBox" width="1" height="1">
<use xlink:href="#image0" transform="scale(0.000763942 0.000998004)"/>
</pattern>
<filter id="filter0_d" x="3" y="4.88281" width="70" height="70" filterUnits="userSpaceOnUse" color-interpolation-filters="sRGB">
<feFlood flood-opacity="0" result="BackgroundImageFix"/>
<feColorMatrix in="SourceAlpha" type="matrix" values="0 0 0 0 0 0 0 0 0 0 0 0 0 0 0 0 0 0 127 0"/>
<feOffset dy="1"/>
<feGaussianBlur stdDeviation="1"/>
<feColorMatrix type="matrix" values="0 0 0 0 0 0 0 0 0 0 0 0 0 0 0 0 0 0 0.06 0"/>
<feBlend mode="normal" in2="BackgroundImageFix" result="effect1_dropShadow"/>
<feBlend mode="normal" in="SourceGraphic" in2="effect1_dropShadow" result="shape"/>
</filter>
</defs>
</svg>
