
<svg width="18px" height="12px" viewBox="0 0 18 12" version="1.1" xmlns="http://www.w3.org/2000/svg" xmlns:xlink="http://www.w3.org/1999/xlink">
<g transform="translate(-16, -11)" fill="#767C87" stroke="none" stroke-width="1" fill-rule="evenodd">
<path d="M24.9163797,11 C28.1668953,11 31.1155532,12.9244467 33.7623534,16.7733401 C33.8562279,16.9098494 33.8562281,17.0901027 33.7623538,17.2266122 L33.7623538,17.2266122 L33.5209255,17.5712272 C30.9365856,21.1904091 28.0684037,23 24.9163797,23 C21.6658641,23 18.7172062,21.0755533 16.070406,17.2266599 C15.9765315,17.0901506 15.9765313,16.9098973 16.0704056,16.7733878 L16.0704056,16.7733878 L16.3118339,16.4287728 C18.8961738,12.8095909 21.7643557,11 24.9163797,11 Z M24.9163797,14 C23.2595254,14 21.9163797,15.3431458 21.9163797,17 C21.9163797,18.6568542 23.2595254,20 24.9163797,20 C26.5732339,20 27.9163797,18.6568542 27.9163797,17 C27.9163797,15.3431458 26.5732339,14 24.9163797,14 Z" id="Combined-Shape"></path>
</g>
</svg>