<svg xmlns="http://www.w3.org/2000/svg" width="22" height="22" viewBox="0 0 22 22" fill="none">
	<path fill-rule="evenodd" clip-rule="evenodd" d="M14.5552 10.9006C14.2402 11.2155 13.7016 10.9925 13.7016 10.547L13.7016 8.3551L5.66157 8.3551C5.38543 8.3551 5.16157 8.13124 5.16157 7.8551L5.16157 7.24291C5.16157 6.96676 5.38543 6.74291 5.66157 6.74291L13.7016 6.74291L13.7016 4.76272C13.7016 4.31727 14.2402 4.09419 14.5552 4.40917L17.4473 7.30131C17.6426 7.49657 17.6426 7.81315 17.4473 8.00841L14.5552 10.9006ZM17.4699 14.6004C17.4699 14.3242 17.246 14.1004 16.9699 14.1004L8.28262 14.1004L8.28262 12.0428C8.28262 11.5973 7.74405 11.3742 7.42907 11.6892L4.53693 14.5813C4.34167 14.7766 4.34167 15.0932 4.53693 15.2884L7.42907 18.1806C7.74405 18.4956 8.28262 18.2725 8.28262 17.827L8.28262 15.7126L16.9699 15.7126C17.246 15.7126 17.4699 15.4887 17.4699 15.2126L17.4699 14.6004Z" fill="white"/>
</svg>