<svg width="1028" height="1018" viewBox="0 0 1028 1018" fill="none" xmlns="http://www.w3.org/2000/svg">
	<g clip-path="url(#clip0_2232_307576)">
		<g filter="url(#filter0_b_2232_307576)">
			<path d="M0 16C0 7.16344 7.16344 0 16 0H1012C1020.84 0 1028 7.16344 1028 16V1018H0V16Z" fill="white" fill-opacity="0.4"/>
		</g>
		<g opacity="0.9">
			<rect x="12" y="12" width="406" height="443" rx="10" fill="#FBFBFB"/>
			<rect opacity="0.15" x="28" y="29" width="119" height="8" rx="2" fill="#525C69"/>
			<rect opacity="0.15" x="28" y="93" width="97" height="27" rx="13.5" fill="#525C69"/>
			<rect opacity="0.15" x="134" y="106" width="51" height="14" rx="7" fill="#525C69"/>
			<rect opacity="0.15" x="44" y="300" width="140" height="8" rx="2" fill="#525C69"/>
			<rect opacity="0.15" x="27" y="69" width="98" height="6" rx="2" fill="#525C69"/>
			<rect opacity="0.15" x="28" y="151" width="108" height="6" rx="2" fill="#525C69"/>
			<rect opacity="0.15" x="28" y="170" width="70" height="6" rx="2" fill="#525C69"/>
			<rect opacity="0.15" x="28" y="201" width="108" height="6" rx="2" fill="#525C69"/>
			<rect opacity="0.15" x="28" y="251" width="70" height="6" rx="2" fill="#525C69"/>
			<rect opacity="0.15" x="44" y="284" width="70" height="6" rx="2" fill="#525C69"/>
			<rect opacity="0.15" x="28" y="220" width="70" height="6" rx="2" fill="#525C69"/>
			<rect opacity="0.15" x="44" y="339" width="102" height="8" rx="2" fill="#525C69"/>
			<rect opacity="0.15" x="44" y="324" width="70" height="6" rx="2" fill="#525C69"/>
			<rect opacity="0.15" x="44" y="380" width="270" height="8" rx="2" fill="#525C69"/>
			<rect opacity="0.15" x="44" y="365" width="102" height="6" rx="2" fill="#525C69"/>
			<rect opacity="0.15" x="28" y="427" width="86" height="6" rx="2" fill="#525C69"/>
			<rect opacity="0.15" x="129" y="427" width="86" height="6" rx="2" fill="#525C69"/>
			<rect opacity="0.15" x="316" y="427" width="86" height="6" rx="2" fill="#525C69"/>
			<rect opacity="0.15" x="338" y="30" width="64" height="6" rx="2" fill="#525C69"/>
			<path d="M264.5 93C264.5 91.067 266.067 89.5 268 89.5H397C398.933 89.5 400.5 91.067 400.5 93V117C400.5 118.933 398.933 120.5 397 120.5H268C266.067 120.5 264.5 118.933 264.5 117V93Z" stroke="#525C69" stroke-opacity="0.15"/>
			<rect opacity="0.15" x="278" y="101" width="109" height="7" rx="2" fill="#525C69"/>
			<rect opacity="0.15" x="364" y="279" width="22" height="22" rx="11" fill="#525C69"/>
			<rect opacity="0.15" x="334" y="279" width="22" height="22" rx="11" fill="#525C69"/>
			<rect opacity="0.15" x="304" y="279" width="22" height="22" rx="11" fill="#525C69"/>
			<rect opacity="0.12" x="28" y="54" width="1" height="374" transform="rotate(-90 28 54)" fill="#525C69"/>
		</g>
		<rect x="12" y="471" width="406" height="142" rx="10" fill="#F6F6FA"/>
		<rect opacity="0.15" x="28" y="488" width="119" height="8" rx="2" fill="#525C69"/>
		<rect opacity="0.15" x="27" y="533" width="98" height="6" rx="2" fill="#525C69"/>
		<rect opacity="0.15" x="27" y="549" width="70" height="8" rx="2" fill="#525C69"/>
		<rect opacity="0.15" x="338" y="489" width="64" height="6" rx="2" fill="#525C69"/>
		<rect opacity="0.12" x="28" y="513" width="1" height="374" transform="rotate(-90 28 513)" fill="#525C69"/>
		<rect opacity="0.15" x="28" y="585" width="86" height="6" rx="2" fill="#525C69"/>
		<rect opacity="0.15" x="129" y="585" width="86" height="6" rx="2" fill="#525C69"/>
		<rect opacity="0.15" x="316" y="585" width="86" height="6" rx="2" fill="#525C69"/>
		<rect x="12" y="629" width="406" height="192" rx="10" fill="#F6F6FA"/>
		<rect opacity="0.15" x="28" y="646" width="119" height="8" rx="2" fill="#525C69"/>
		<rect opacity="0.15" x="27" y="688" width="98" height="6" rx="2" fill="#525C69"/>
		<rect opacity="0.15" x="27" y="704" width="70" height="8" rx="2" fill="#525C69"/>
		<rect opacity="0.15" x="27" y="738" width="108" height="6" rx="2" fill="#525C69"/>
		<rect opacity="0.15" x="27" y="754" width="70" height="8" rx="2" fill="#525C69"/>
		<rect opacity="0.15" x="338" y="647" width="64" height="6" rx="2" fill="#525C69"/>
		<rect opacity="0.12" x="28" y="671" width="1" height="374" transform="rotate(-90 28 671)" fill="#525C69"/>
		<rect opacity="0.15" x="28" y="793" width="86" height="6" rx="2" fill="#525C69"/>
		<rect opacity="0.15" x="129" y="793" width="86" height="6" rx="2" fill="#525C69"/>
		<rect opacity="0.15" x="316" y="793" width="86" height="6" rx="2" fill="#525C69"/>
		<rect x="12" y="837" width="406" height="142" rx="10" fill="#F6F6FA"/>
		<rect opacity="0.15" x="28" y="854" width="119" height="8" rx="2" fill="#525C69"/>
		<rect opacity="0.15" x="27" y="899" width="98" height="6" rx="2" fill="#525C69"/>
		<rect opacity="0.15" x="27" y="915" width="70" height="8" rx="2" fill="#525C69"/>
		<rect opacity="0.15" x="338" y="855" width="64" height="6" rx="2" fill="#525C69"/>
		<rect opacity="0.12" x="28" y="879" width="1" height="374" transform="rotate(-90 28 879)" fill="#525C69"/>
		<rect opacity="0.15" x="28" y="951" width="86" height="6" rx="2" fill="#525C69"/>
		<rect opacity="0.15" x="129" y="951" width="86" height="6" rx="2" fill="#525C69"/>
		<rect opacity="0.15" x="316" y="951" width="86" height="6" rx="2" fill="#525C69"/>
		<rect x="430" y="200" width="24" height="24" rx="12" fill="#A77BDE" fill-opacity="0.8"/>
		<g opacity="0.2">
			<rect x="437" y="207" width="10" height="10" rx="5" fill="white"/>
		</g>
		<g opacity="0.8">
			<g clip-path="url(#clip1_2232_307576)">
				<rect x="858.5" y="199.5" width="109" height="25" rx="12.5" fill="#A77BDE" stroke="#C6CDD3"/>
				<rect opacity="0.2" x="877" y="209" width="70" height="6" rx="2" fill="white"/>
			</g>
			<rect x="858.5" y="199.5" width="109" height="25" rx="12.5" stroke="#A77BDE"/>
		</g>
		<g opacity="0.7">
			<rect x="461" y="188" width="390" height="48" rx="10" fill="white"/>
			<rect opacity="0.15" x="471" y="201" width="70" height="6" rx="2" fill="#525C69"/>
			<rect opacity="0.15" x="471" y="219" width="108" height="8" rx="2" fill="#525C69"/>
		</g>
		<rect x="430" y="94" width="24" height="24" rx="12" fill="#A77BDE" fill-opacity="0.8"/>
		<g opacity="0.2">
			<rect x="437" y="101" width="10" height="10" rx="5" fill="white"/>
		</g>
		<g opacity="0.8">
			<g clip-path="url(#clip2_2232_307576)">
				<rect x="858.5" y="93.5" width="109" height="25" rx="12.5" fill="#A77BDE" stroke="#C6CDD3"/>
				<rect opacity="0.2" x="877" y="103" width="70" height="6" rx="2" fill="white"/>
			</g>
			<rect x="858.5" y="93.5" width="109" height="25" rx="12.5" stroke="#A77BDE"/>
		</g>
		<g opacity="0.7">
			<rect x="461" y="82" width="390" height="48" rx="10" fill="white"/>
			<rect opacity="0.15" x="471" y="95" width="70" height="6" rx="2" fill="#525C69"/>
			<rect opacity="0.15" x="471" y="113" width="108" height="8" rx="2" fill="#525C69"/>
		</g>
	</g>
	<defs>
		<filter id="filter0_b_2232_307576" x="-76.1119" y="-76.1119" width="1180.22" height="1170.22" filterUnits="userSpaceOnUse" color-interpolation-filters="sRGB">
			<feFlood flood-opacity="0" result="BackgroundImageFix"/>
			<feGaussianBlur in="BackgroundImageFix" stdDeviation="38.0559"/>
			<feComposite in2="SourceAlpha" operator="in" result="effect1_backgroundBlur_2232_307576"/>
			<feBlend mode="normal" in="SourceGraphic" in2="effect1_backgroundBlur_2232_307576" result="shape"/>
		</filter>
		<clipPath id="clip0_2232_307576">
			<rect width="1028" height="1018" fill="white"/>
		</clipPath>
		<clipPath id="clip1_2232_307576">
			<rect x="858" y="199" width="110" height="26" rx="13" fill="white"/>
		</clipPath>
		<clipPath id="clip2_2232_307576">
			<rect x="858" y="93" width="110" height="26" rx="13" fill="white"/>
		</clipPath>
	</defs>
</svg>
