<svg width="28" height="28" fill="none" xmlns="http://www.w3.org/2000/svg"><path d="M28 14c0-7.732-6.268-14-14-14S0 6.268 0 14s6.268 14 14 14 14-6.268 14-14z" fill="#55D0E0"/><path fill-rule="evenodd" clip-rule="evenodd" d="M11.682 20.087c1.92 0 3.759-.206 5.462-.583-.257-1.273-.8-3.223-.8-3.223 0-.488-.671-1.046-1.994-1.371a4.604 4.604 0 0 1-1.262-.547c-.084-.045-.072-.472-.072-.472l-.426-.063c0-.035-.037-.546-.037-.546.51-.163.458-1.123.458-1.123.324.17.534-.588.534-.588.382-1.055-.19-.992-.19-.992.1-.644.1-1.3 0-1.945-.255-2.138-4.092-1.557-3.637-.86-1.122-.197-.867 2.23-.867 2.23l.244.628c-.337.207-.272.446-.198.713.031.111.063.228.068.35.024.605.412.48.412.48.024.999.543 1.13.543 1.13.096.628.036.52.036.52l-.461.053c.006.144-.007.287-.036.426-.27.113-.433.204-.596.294-.166.091-.33.182-.602.295-1.041.434-2.173.998-2.375 1.758-.12.452-.38 1.698-.57 2.632 1.948.516 4.102.803 6.366.803zm6.256-1.82c1.38 0 2.693-.178 3.877-.5l-.073-1.432v-.001l-.032-.616s-.247-.616-.64-.678a3.134 3.134 0 0 1-1.106-.353 4.149 4.149 0 0 0-.711-.318 1.032 1.032 0 0 1-.288-.393 1.202 1.202 0 0 0-.495-.357l-.014-.472 1.024-.312s.264-.119.29-.119a1.9 1.9 0 0 0-.141-.24c-.02-.051-.117-.394-.117-.394.15.185.326.35.522.49a6.988 6.988 0 0 1-.446-.984 6.1 6.1 0 0 1-.172-.953c-.07-.597-.18-1.19-.328-1.774a1.668 1.668 0 0 0-.543-.741 2.557 2.557 0 0 0-1.24-.429h-.052c-.442.033-.869.181-1.237.429a1.674 1.674 0 0 0-.542.742 13.7 13.7 0 0 0-.328 1.774 5.957 5.957 0 0 1-.163.974 6.11 6.11 0 0 1-.454.963 2.59 2.59 0 0 0 .52-.492s-.123.379-.143.43a1.138 1.138 0 0 0-.114.207c.026 0 .29.12.29.12l1.024.31-.015.473a1.21 1.21 0 0 0-.495.355 1.62 1.62 0 0 1-.18.298c.933.367 1.77.906 1.793 1.51.005.03.053.211.121.465.166.612.445 1.65.488 2.018h.12z" fill="#fff"/></svg>
