<svg width="32" height="32" viewBox="0 0 32 32" fill="none" xmlns="http://www.w3.org/2000/svg">
<rect width="32" height="32" rx="16" fill="#AFAFAF"/>
<path fill-rule="evenodd" clip-rule="evenodd" d="M19.289 23.9787H19.8025C20.907 23.9787 21.8025 23.0832 21.8025 21.9787V10.0211C21.8025 8.91655 20.907 8.02112 19.8025 8.02112H19.289C19.647 8.3825 19.8681 8.87969 19.8681 9.42852V22.5712C19.8681 23.1201 19.647 23.6173 19.289 23.9787ZM8.32874 8.02121C7.22417 8.02121 6.32874 8.91664 6.32874 10.0212V21.9788C6.32874 23.0833 7.22417 23.9788 8.32873 23.9788H15.9342C17.0388 23.9788 17.9342 23.0833 17.9342 21.9788V10.0212C17.9342 8.91664 17.0388 8.02121 15.9342 8.02121H8.32874ZM14.0697 21.0845L13.8181 19.3288C13.7295 18.7045 13.0714 18.3044 12.4437 18.4119L11.7244 18.5361C11.573 18.5594 11.4137 18.455 11.3749 18.3101C11.0548 16.7888 11.1057 15.1633 11.5172 13.6619C11.5643 13.511 11.7205 13.4087 11.879 13.4438L12.5816 13.584C13.2105 13.7094 13.8792 13.3513 14.0102 12.7286L14.3349 11C14.4383 10.4711 14.036 9.98291 13.4969 9.96299C11.4448 9.91647 9.24504 11.2007 9.11331 15.9359C8.98155 20.6711 11.1192 22.0302 13.1714 22.0768C13.7109 22.0969 14.1426 21.6181 14.0697 21.0845ZM23.6714 23.9787H23.158C23.516 23.6173 23.7371 23.1201 23.7371 22.5712V9.42852C23.7371 8.87969 23.516 8.3825 23.1581 8.02112H23.6714C24.7759 8.02112 25.6714 8.91655 25.6714 10.0211V21.9787C25.6714 23.0832 24.7759 23.9787 23.6714 23.9787Z" fill="white"/>
</svg>
