<svg width="42" height="42" viewBox="0 0 42 42" fill="none" xmlns="http://www.w3.org/2000/svg">
	<rect width="42" height="42" rx="21" fill="#8E52EC"/>
	<path fill-rule="evenodd" clip-rule="evenodd" d="M26.6411 25.5401C26.9082 25.5401 27.1248 25.3233 27.1248 25.0558L27.1248 12.909C27.1248 12.6416 26.9082 12.4248 26.6411 12.4248H16.6726C15.01 12.4248 13.6498 13.7867 13.6498 15.4513V26.5483C13.6498 28.2129 15.01 29.5748 16.6726 29.5748H26.6411C26.9082 29.5748 27.1248 29.358 27.1248 29.0906V28.0417C27.1248 27.7742 26.9082 27.5574 26.6411 27.5574H16.6726C16.1181 27.5574 15.6646 27.1035 15.6646 26.5483C15.6656 25.994 16.119 25.5401 16.6726 25.5401L26.6411 25.5401ZM25.0017 22.129C25.0509 22.3797 24.9177 22.6321 24.6775 22.7194C23.6781 23.0826 22.5514 23.2978 21.3564 23.3234H20.873C19.6722 23.2976 18.5403 23.0805 17.5374 22.7141C17.3075 22.6301 17.1732 22.3937 17.2123 22.1521C17.2497 21.9216 17.291 21.7005 17.3332 21.5361C17.4774 20.9736 18.289 20.5559 19.0357 20.2347C19.2312 20.1505 19.3493 20.0834 19.4685 20.0156C19.585 19.9494 19.7027 19.8825 19.8949 19.7984C19.9167 19.6948 19.9254 19.589 19.921 19.4834L20.2517 19.4441C20.2517 19.4441 20.2953 19.5232 20.2254 19.0585C20.2254 19.0585 19.8537 18.9622 19.8365 18.2223C19.8365 18.2223 19.557 18.3152 19.5402 17.8669C19.5367 17.7776 19.5136 17.6917 19.4915 17.6095C19.4385 17.4121 19.391 17.2354 19.6328 17.0814L19.4583 16.6162C19.4583 16.6162 19.2748 14.8198 20.0791 14.9653C19.7528 14.4483 22.5049 14.0185 22.6877 15.6015C22.7596 16.0787 22.7596 16.5637 22.6877 17.0409C22.6877 17.0409 23.0988 16.9936 22.8243 17.7753C22.8243 17.7753 22.6732 18.3379 22.4412 18.2116C22.4412 18.2116 22.4788 18.9226 22.1134 19.0431C22.1134 19.0431 22.1395 19.4217 22.1395 19.4474L22.4449 19.493C22.4449 19.493 22.4356 19.8088 22.4965 19.8429C22.7752 20.0229 23.0805 20.1593 23.4018 20.2472C24.35 20.4879 24.8315 20.9009 24.8315 21.2625L25.0017 22.129Z" fill="white"/>
</svg>
