<svg width="66" height="67" viewBox="0 0 66 67" fill="none" xmlns="http://www.w3.org/2000/svg">
<g filter="url(#filter0_d)">
<path fill-rule="evenodd" clip-rule="evenodd" d="M33 63.5C50.1208 63.5 64 49.6208 64 32.5C64 15.3792 50.1208 1.5 33 1.5C15.8792 1.5 2 15.3792 2 32.5C2 49.6208 15.8792 63.5 33 63.5Z" fill="white"/>
</g>
<path fill-rule="evenodd" clip-rule="evenodd" d="M33 54.5C45.1503 54.5 55 44.6503 55 32.5C55 20.3497 45.1503 10.5 33 10.5C20.8497 10.5 11 20.3497 11 32.5C11 44.6503 20.8497 54.5 33 54.5Z" fill="#05B5AB"/>
<path fill-rule="evenodd" clip-rule="evenodd" d="M32.9291 33.5381C32.9291 33.5381 31.4359 33.1529 31.18 32.2991C31.1791 30.0302 34.9552 30.0482 35.7751 32.2949C36.31 32.2306 36.8745 32.1524 37.4566 32.0685C37.1511 30.1548 35.456 29.277 34.2738 29.0272C34.2322 28.2161 34.127 27.1677 34.127 27.1677H32.2291C32.1738 27.8507 32.1229 28.4791 32.0738 29.0888C31.7372 29.2264 31.4689 29.3217 31.2128 29.443C30.0689 29.9844 29.2593 30.828 29.2133 32.1341C29.1656 33.4919 29.9287 34.4152 31.1037 35.0229C31.5765 35.2673 32.0723 35.4282 32.603 35.5064C33.2434 35.601 33.8969 35.6773 34.5088 35.8736C35.1815 36.0894 35.8166 36.4722 35.8042 37.3019C35.7917 38.142 35.1286 38.4485 34.4487 38.6629C32.7901 39.186 31.3424 38.6905 30.2487 37.2048C29.6116 37.3038 29.2518 37.3548 28.5016 37.5057C28.8697 39.5102 30.3634 40.2479 32.0126 40.751C32.1321 41.51 32.2112 42.7112 32.2112 42.7112C32.2112 42.7112 33.4292 42.8327 34.0591 42.6449C34.0908 42.0563 34.1229 41.4643 34.1574 40.8316C34.5399 40.7133 34.8894 40.6248 35.2245 40.498C36.6551 39.9565 37.685 39.0472 37.8213 37.4312C37.9372 36.0623 36.9701 34.7503 35.4177 34.0884C34.6255 33.7506 32.9291 33.5381 32.9291 33.5381ZM27.9882 43.7994C24.4033 42.4037 22.5675 38.7221 23.7322 35.0613C24.9629 31.193 27.1683 27.9198 30.1078 25.1686C31.9972 25.1686 36.0651 25.1588 36.0651 25.1588C36.0651 25.1588 36.6221 25.5492 37.0154 25.9518C39.2885 28.2787 41.0278 30.9659 42.2294 33.9786C44.1132 38.7013 41.9029 43.0505 36.9845 44.2485C33.9617 44.985 30.9291 44.9447 27.9882 43.7994ZM37.1592 19.4129C36.6568 20.6699 36.1791 21.8654 35.6792 23.1163H30.6459C30.1814 21.9732 29.6842 20.7505 29.1402 19.4129H37.1592ZM38.2185 24.3683C37.9949 24.1464 37.8886 23.9751 37.6527 23.5467C38.4344 21.5741 39.2377 19.5459 40.0692 17.4474H26.2291C27.0854 19.5894 27.8975 21.6208 28.7415 23.7318C25.6348 26.6905 23.3597 30.0788 21.9902 34.0295C20.2517 39.0445 22.5995 43.9591 27.6037 45.7601C30.9998 46.9824 34.4766 47.0212 37.9308 46.0175C43.6101 44.3675 46.2516 39.0538 44.1489 33.5188C42.8321 30.0526 40.8593 26.9892 38.2185 24.3683Z" fill="white"/>
<defs>
<filter id="filter0_d" x="0" y="0.5" width="66" height="66" filterUnits="userSpaceOnUse" color-interpolation-filters="sRGB">
<feFlood flood-opacity="0" result="BackgroundImageFix"/>
<feColorMatrix in="SourceAlpha" type="matrix" values="0 0 0 0 0 0 0 0 0 0 0 0 0 0 0 0 0 0 127 0"/>
<feOffset dy="1"/>
<feGaussianBlur stdDeviation="1"/>
<feColorMatrix type="matrix" values="0 0 0 0 0 0 0 0 0 0 0 0 0 0 0 0 0 0 0.06 0"/>
<feBlend mode="normal" in2="BackgroundImageFix" result="effect1_dropShadow"/>
<feBlend mode="normal" in="SourceGraphic" in2="effect1_dropShadow" result="shape"/>
</filter>
</defs>
</svg>
