<svg width="367" height="59" viewBox="0 0 367 59" fill="none" xmlns="http://www.w3.org/2000/svg">

<g clip-path="url(#clip0)">
<path fill-rule="evenodd" clip-rule="evenodd" d="M157.444 71.8955C157.444 71.8955 148.402 69.5663 146.853 64.404C146.847 50.6868 169.712 50.7954 174.677 64.3789C177.916 63.9902 181.334 63.5171 184.859 63.0103C183.009 51.4398 172.745 46.1327 165.587 44.6223C165.335 39.7186 164.698 33.3798 164.698 33.3798H153.205C152.871 37.5091 152.562 41.3088 152.265 44.9947C150.227 45.8267 148.602 46.4031 147.052 47.1362C140.125 50.4097 135.223 55.51 134.944 63.4064C134.655 71.6162 139.276 77.1982 146.391 80.8723C149.254 82.3502 152.256 83.3227 155.47 83.7956C159.347 84.3675 163.304 84.8286 167.01 86.0154C171.083 87.3204 174.929 89.6348 174.853 94.6508C174.778 99.7303 170.763 101.584 166.646 102.88C156.603 106.042 147.837 103.047 141.213 94.0641C137.356 94.6625 135.177 94.9707 130.634 95.8834C132.863 108.002 141.908 112.462 151.895 115.504C152.618 120.093 153.097 127.355 153.097 127.355C153.097 127.355 160.473 128.09 164.286 126.955C164.479 123.396 164.673 119.817 164.882 115.992C167.198 115.276 169.314 114.741 171.343 113.974C180.006 110.701 186.242 105.203 187.067 95.4326C187.769 87.1563 181.913 79.2244 172.513 75.2223C167.716 73.1798 157.444 71.8955 157.444 71.8955ZM127.526 133.935C105.819 125.496 94.702 103.238 101.755 81.1046C109.207 57.7168 122.561 37.9276 140.36 21.2938C151.801 21.2938 176.433 21.2347 176.433 21.2347C176.433 21.2347 179.806 23.5949 182.187 26.029C195.952 40.0972 206.483 56.3438 213.76 74.559C225.167 103.112 211.783 129.407 182.001 136.65C163.697 141.103 145.334 140.859 127.526 133.935ZM183.058 -13.5051C180.016 -5.90567 177.124 1.32276 174.097 8.88519H143.619C140.806 1.97451 137.795 -5.41796 134.501 -13.5051H183.058ZM189.472 16.4552C188.119 15.1133 187.475 14.0776 186.047 11.488C190.78 -0.438695 195.644 -12.7009 200.679 -25.3887H116.874C122.059 -12.4378 126.976 -0.156416 132.087 12.6068C113.275 30.4953 99.499 50.9805 91.2067 74.8664C80.6796 105.187 94.8959 134.9 125.198 145.79C145.762 153.179 166.814 153.414 187.731 147.346C222.12 137.37 238.115 105.243 225.383 71.7791C217.409 50.8224 205.463 32.3013 189.472 16.4552Z" fill="#F0FBFF"/>
<g filter="url(#filter0_d)">
<path fill-rule="evenodd" clip-rule="evenodd" d="M38 71C56.2254 71 71 56.2254 71 38C71 19.7746 56.2254 5 38 5C19.7746 5 5 19.7746 5 38C5 56.2254 19.7746 71 38 71Z" fill="white"/>
</g>
<path fill-rule="evenodd" clip-rule="evenodd" d="M37.9999 62.3021C50.9341 62.3021 61.4193 51.8169 61.4193 38.8827C61.4193 25.9486 50.9341 15.4634 37.9999 15.4634C25.0658 15.4634 14.5806 25.9486 14.5806 38.8827C14.5806 51.8169 25.0658 62.3021 37.9999 62.3021Z" fill="#05B5AB"/>
<path fill-rule="evenodd" clip-rule="evenodd" d="M37.9245 39.9878C37.9245 39.9878 36.3349 39.5777 36.0626 38.6688C36.0616 36.2536 40.0813 36.2727 40.9541 38.6643C41.5235 38.5959 42.1244 38.5126 42.7441 38.4234C42.4189 36.3862 40.6144 35.4517 39.3559 35.1858C39.3117 34.3224 39.1997 33.2063 39.1997 33.2063H37.1793C37.1205 33.9334 37.0663 34.6024 37.014 35.2514C36.6557 35.3979 36.3701 35.4993 36.0975 35.6284C34.8798 36.2048 34.0179 37.1028 33.969 38.4931C33.9182 39.9386 34.7306 40.9214 35.9814 41.5683C36.4846 41.8286 37.0124 41.9998 37.5774 42.083C38.259 42.1837 38.9547 42.2649 39.6062 42.4739C40.3222 42.7037 40.9983 43.1112 40.9851 43.9943C40.9718 44.8887 40.2659 45.215 39.5421 45.4432C37.7766 46.0001 36.2355 45.4726 35.0711 43.891C34.3929 43.9964 34.0099 44.0507 33.2113 44.2113C33.6032 46.3451 35.1932 47.1304 36.9489 47.666C37.076 48.474 37.1603 49.7526 37.1603 49.7526C37.1603 49.7526 38.4569 49.882 39.1273 49.6821C39.1612 49.0555 39.1953 48.4253 39.232 47.7518C39.6392 47.6259 40.0113 47.5317 40.368 47.3966C41.8909 46.8203 42.9873 45.8523 43.1323 44.132C43.2557 42.6748 42.2262 41.2782 40.5737 40.5735C39.7304 40.2139 37.9245 39.9878 37.9245 39.9878ZM32.6648 50.9111C28.8487 49.4253 26.8944 45.5062 28.1342 41.6092C29.4444 37.4913 31.7921 34.007 34.9212 31.0783C36.9325 31.0783 41.2628 31.0679 41.2628 31.0679C41.2628 31.0679 41.8557 31.4835 42.2744 31.912C44.6942 34.389 46.5457 37.2496 47.8248 40.4567C49.8302 45.4841 47.4773 50.1138 42.2416 51.3891C39.0237 52.1732 35.7955 52.1302 32.6648 50.9111ZM42.4275 24.9513C41.8927 26.2893 41.3842 27.562 40.852 28.8935H35.494C34.9995 27.6768 34.4702 26.3752 33.8911 24.9513H42.4275ZM43.5551 30.2264C43.3171 29.9901 43.2039 29.8077 42.9529 29.3518C43.785 27.2518 44.6401 25.0928 45.5253 22.8589H30.7923C31.7038 25.1392 32.5682 27.3015 33.4667 29.5488C30.1596 32.6984 27.7377 36.3052 26.2799 40.5108C24.4292 45.8494 26.9285 51.081 32.2555 52.9983C35.8707 54.2994 39.5718 54.3407 43.2489 53.2723C49.2946 51.5159 52.1065 45.8593 49.8682 39.9672C48.4664 36.2774 46.3663 33.0164 43.5551 30.2264Z" fill="white"/>
</g>
<defs>
<filter id="filter0_d" x="3" y="4" width="70" height="70" filterUnits="userSpaceOnUse" color-interpolation-filters="sRGB">
<feFlood flood-opacity="0" result="BackgroundImageFix"/>
<feColorMatrix in="SourceAlpha" type="matrix" values="0 0 0 0 0 0 0 0 0 0 0 0 0 0 0 0 0 0 127 0"/>
<feOffset dy="1"/>
<feGaussianBlur stdDeviation="1"/>
<feColorMatrix type="matrix" values="0 0 0 0 0 0 0 0 0 0 0 0 0 0 0 0 0 0 0.06 0"/>
<feBlend mode="normal" in2="BackgroundImageFix" result="effect1_dropShadow"/>
<feBlend mode="normal" in="SourceGraphic" in2="effect1_dropShadow" result="shape"/>
</filter>
<clipPath id="clip0">
<rect width="367" height="129" fill="white"/>
</clipPath>
</defs>
</svg>
