<svg width="396" height="59" viewBox="0 0 396 59" fill="none" xmlns="http://www.w3.org/2000/svg" xmlns:xlink="http://www.w3.org/1999/xlink">
<mask id="mask0" mask-type="alpha" maskUnits="userSpaceOnUse" x="0" y="0" width="464" height="59">
<rect y="0.882812" width="464" height="58" fill="white"/>
</mask>
<g mask="url(#mask0)">
<rect width="354" height="498" transform="translate(-18 -46)" fill="white"/>
<path opacity="0.148418" fill-rule="evenodd" clip-rule="evenodd" d="M-18 -46.1172L396 -46.1172L396 451.883L-18 451.883L-18 -46.1172Z" fill="#2FC6F6"/>
<mask id="mask1" mask-type="alpha" maskUnits="userSpaceOnUse" x="-18" y="-47" width="414" height="499">
<path fill-rule="evenodd" clip-rule="evenodd" d="M-18 -46.1172L396 -46.1172L396 451.883L-18 451.883L-18 -46.1172Z" fill="white"/>
</mask>
<g mask="url(#mask1)">
<mask id="mask2" mask-type="alpha" maskUnits="userSpaceOnUse" x="-18" y="-47" width="214" height="499">
<rect x="-18" y="-46.1172" width="214" height="498" fill="white"/>
</mask>
<g mask="url(#mask2)">
<rect opacity="0.04" x="-130.421" y="-54.6641" width="348.988" height="266.732" fill="url(#pattern0)"/>
</g>
<g opacity="0.51">
<path fill-rule="evenodd" clip-rule="evenodd" d="M105.378 18.0408C103.251 12.2241 102.532 7.55938 105.018 2.92036C107.428 -1.57487 111.857 -3.3175 116.551 -4.78624C110.641 -12.3302 103.435 -14.7918 96.8853 -11.3511C90.25 -7.86751 86.4074 -2.20653 88.1949 5.47781C90.0596 13.4925 95.41 17.8799 105.378 18.0408M239.446 10.2281H118.15C139.285 26.5588 158.991 41.7871 178.828 57.1147C198.987 41.5218 218.36 26.5365 239.446 10.2281M131.856 -4.23675H215.567C228.129 -21.1632 242.686 -36.2238 256.3 -52.0752C260.588 -49.7933 263.424 -47.0698 266.659 -43.4066C255.808 -30.7733 244.12 -16.7056 233.399 -4.22135C235.802 -4.29495 237.338 -4.05359 238.597 -4.1135C245.705 -4.45758 251.188 -1.67416 253.409 5.07211C255.729 12.1162 252.723 17.5718 246.826 22.0687C226.405 37.6377 206.185 53.4686 185.979 69.1283V112.127H218.737C220.296 117.078 220.032 121.144 219.14 125.695H138.045V112.721H171.213V68.738C153.843 55.3311 136.258 41.7581 119.083 28.5017C97.1305 34.8047 82.1943 29.344 75.9622 13.2837C70.3527 -1.16918 77.0292 -17.4845 91.2604 -24.099C106.979 -31.4067 123.716 -23.4639 131.856 -4.23675" fill="white"/>
</g>
</g>
<g filter="url(#filter0_d)">
<path fill-rule="evenodd" clip-rule="evenodd" d="M38 71.8828C56.2254 71.8828 71 57.1082 71 38.8828C71 20.6574 56.2254 5.88281 38 5.88281C19.7746 5.88281 5 20.6574 5 38.8828C5 57.1082 19.7746 71.8828 38 71.8828Z" fill="white"/>
</g>
<path fill-rule="evenodd" clip-rule="evenodd" d="M37.9999 62.3021C50.9341 62.3021 61.4193 51.8169 61.4193 38.8827C61.4193 25.9486 50.9341 15.4634 37.9999 15.4634C25.0658 15.4634 14.5806 25.9486 14.5806 38.8827C14.5806 51.8169 25.0658 62.3021 37.9999 62.3021Z" fill="#2FC6F6"/>
<path fill-rule="evenodd" clip-rule="evenodd" d="M27.9744 35.9826C27.6516 35.0984 27.5425 34.3893 27.9198 33.6841C28.2856 33.0008 28.9578 32.7359 29.6702 32.5127C28.7732 31.3659 27.6794 30.9917 26.6854 31.5147C25.6783 32.0443 25.0951 32.9048 25.3664 34.0729C25.6494 35.2912 26.4615 35.9582 27.9744 35.9826M48.323 34.795H29.9128C33.1208 37.2775 36.1116 39.5923 39.1225 41.9223C42.1823 39.552 45.1226 37.2741 48.323 34.795M31.9932 32.5962H44.6987C46.6054 30.0232 48.8148 27.7338 50.8811 25.3242C51.532 25.6711 51.9624 26.0851 52.4534 26.6419C50.8064 28.5623 49.0325 30.7008 47.4052 32.5985C47.77 32.5873 48.003 32.624 48.1941 32.6149C49.2731 32.5626 50.1052 32.9857 50.4424 34.0112C50.7944 35.082 50.3382 35.9113 49.4431 36.5949C46.3437 38.9616 43.2748 41.368 40.2079 43.7485V50.2848H45.1799C45.4165 51.0374 45.3764 51.6554 45.2411 52.3473H32.9326V50.3751H37.9667V43.6892C35.3303 41.6512 32.6613 39.5879 30.0545 37.5728C26.7226 38.5309 24.4556 37.7008 23.5097 35.2595C22.6583 33.0625 23.6716 30.5824 25.8316 29.5769C28.2174 28.4661 30.7577 29.6735 31.9932 32.5962" fill="white"/>
</g>
<defs>
<pattern id="pattern0" patternContentUnits="objectBoundingBox" width="1" height="1">
<use xlink:href="#image0" transform="scale(0.000763942 0.000998004)"/>
</pattern>
<filter id="filter0_d" x="3" y="4.88281" width="70" height="70" filterUnits="userSpaceOnUse" color-interpolation-filters="sRGB">
<feFlood flood-opacity="0" result="BackgroundImageFix"/>
<feColorMatrix in="SourceAlpha" type="matrix" values="0 0 0 0 0 0 0 0 0 0 0 0 0 0 0 0 0 0 127 0"/>
<feOffset dy="1"/>
<feGaussianBlur stdDeviation="1"/>
<feColorMatrix type="matrix" values="0 0 0 0 0 0 0 0 0 0 0 0 0 0 0 0 0 0 0.06 0"/>
<feBlend mode="normal" in2="BackgroundImageFix" result="effect1_dropShadow"/>
<feBlend mode="normal" in="SourceGraphic" in2="effect1_dropShadow" result="shape"/>
</filter>
</defs>
</svg>
