<svg width="108" height="108" viewBox="0 0 108 108" fill="none" xmlns="http://www.w3.org/2000/svg">
	<path d="M88.8157 75.7399C88.8157 79.9845 85.6159 83.5465 81.3956 84L14.905 91.1444C9.99377 91.6721 5.70972 87.8238 5.70972 82.8843V20.1045C5.70972 15.2452 9.86215 11.4233 14.7048 11.8253L81.1954 17.3459C85.5023 17.7035 88.8157 21.3034 88.8157 25.6251V75.7399Z" fill="#1BCE7B" fill-opacity="0.78"/>
	<path fill-rule="evenodd" clip-rule="evenodd" d="M14.6979 89.2171L81.1885 82.0726C84.4241 81.725 86.8772 78.9941 86.8772 75.7399V25.6251C86.8772 22.3118 84.337 19.5519 81.035 19.2778L14.5444 13.7571C10.8317 13.4489 7.64818 16.3791 7.64818 20.1045V82.8843C7.64818 86.6712 10.9326 89.6216 14.6979 89.2171ZM81.3956 84C85.6159 83.5465 88.8157 79.9845 88.8157 75.7399V25.6251C88.8157 21.3034 85.5023 17.7035 81.1954 17.3459L14.7048 11.8253C9.86215 11.4233 5.70972 15.2452 5.70972 20.1045V82.8843C5.70972 87.8238 9.99377 91.6721 14.905 91.1444L81.3956 84Z" fill="white" fill-opacity="0.18"/>
	<path fill-rule="evenodd" clip-rule="evenodd" d="M10.343 14.5124L51.1415 51.4632C51.8509 52.1057 52.939 52.0807 53.6182 51.4063L85.1633 20.0815L86.5292 21.457L54.984 52.7818C53.5735 54.1824 51.3136 54.2344 49.8402 52.9L9.04175 15.9492L10.343 14.5124Z" fill="white" fill-opacity="0.18"/>
	<path d="M103.846 80.0949C103.846 84.197 100.646 87.6479 96.4047 88.1197L79.9911 89.9454C74.9974 90.5008 70.6155 86.7502 70.6155 81.9205V59.5996C70.6155 55.196 74.2864 51.6036 78.8693 51.5226L95.2828 51.2322C99.9866 51.149 103.846 54.7894 103.846 59.3093V80.0949Z" fill="#0075FF" fill-opacity="0.78"/>
	<path fill-rule="evenodd" clip-rule="evenodd" d="M79.8381 88.5692L96.2516 86.7436C99.836 86.3449 102.462 83.4482 102.462 80.0949V59.3093C102.462 55.6169 99.2911 52.5461 95.3073 52.6166L78.8938 52.907C75.0146 52.9756 72.0001 56.0015 72.0001 59.5996V81.9205C72.0001 85.8644 75.6032 89.0403 79.8381 88.5692ZM96.4047 88.1197C100.646 87.6479 103.846 84.197 103.846 80.0949V59.3093C103.846 54.7894 99.9866 51.149 95.2828 51.2322L78.8693 51.5226C74.2864 51.6036 70.6155 55.196 70.6155 59.5996V81.9205C70.6155 86.7502 74.9974 90.5008 79.9911 89.9454L96.4047 88.1197Z" fill="white" fill-opacity="0.18"/>
	<g filter="url(#filter0_d_8285_14814)">
		<path d="M88.6751 82.581C87.1624 82.7188 85.8462 81.6247 85.8462 80.2267V79.8113C85.8462 78.5896 86.862 77.5745 88.187 77.4711C89.6865 77.3556 90.9762 78.4457 90.9762 79.8275V80.2429C90.9762 81.4504 89.9824 82.4594 88.6751 82.579V82.581Z" fill="white" fill-opacity="0.9" shape-rendering="crispEdges"/>
		<path d="M88.6088 74.373C87.1182 74.4762 85.8462 73.511 85.8462 72.2747V60.0981C85.8462 58.9468 86.9592 57.9998 88.3527 57.9654C89.7925 57.931 90.9762 58.88 90.9762 60.0698V72.2464C90.9762 73.3532 89.9449 74.2799 88.6088 74.3709V74.373Z" fill="white" fill-opacity="0.9" shape-rendering="crispEdges"/>
	</g>
	<g filter="url(#filter1_d_8285_14814)">
		<path d="M18.3602 81.6061C18.3619 81.6057 18.3622 81.6035 18.3608 81.6026C16.4821 80.4432 15.0258 78.6718 14.0055 76.2864C12.9776 73.891 12.4614 71.0257 12.4614 67.7028C12.4614 64.146 13.0026 61.0033 14.0851 58.2849C15.1607 55.579 16.6752 53.4963 18.6172 52.0325C20.5455 50.5833 22.7718 49.8566 25.2891 49.8463C27.8178 49.8359 29.994 50.428 31.8246 51.6185C33.6392 52.7986 35.0173 54.4672 35.9678 56.6225C36.9138 58.7694 37.3845 61.2869 37.3845 64.1791C37.3845 66.4109 37.1116 68.3757 36.5681 70.0713C36.0224 71.7731 35.2629 73.1022 34.2896 74.0608C33.3118 75.0235 32.2066 75.5452 30.9695 75.6239C30.3078 75.6653 29.6756 75.4396 29.0707 74.9427C28.4729 74.4517 28.0106 73.7583 27.6859 72.8628C27.6791 72.8441 27.6608 72.8319 27.6409 72.8333C27.6239 72.8344 27.609 72.8453 27.6026 72.8611C27.1965 73.859 26.6405 74.6391 25.9303 75.2015C25.2118 75.7709 24.4409 76.0814 23.6154 76.1332C22.0805 76.2305 20.8275 75.5804 19.8633 74.1767C18.8946 72.7668 18.4079 70.7814 18.4079 68.2183C18.4079 65.8023 18.6876 63.7278 19.2471 61.9991C19.8042 60.2745 20.5773 58.9661 21.5597 58.0696C22.5375 57.1773 23.6472 56.7218 24.8843 56.697C25.562 56.6846 26.1555 56.8481 26.6649 57.1918C26.892 57.3441 27.1006 57.5207 27.2909 57.7215C27.5312 57.975 28.027 57.8738 28.0814 57.5287C28.1091 57.3529 28.2588 57.2222 28.4367 57.2184L29.3937 57.198C30.3171 57.1784 31.0422 57.9841 30.9257 58.9003L29.612 69.2307C29.5915 69.3715 29.5824 69.5827 29.5824 69.8642C29.5824 70.3984 29.6688 70.8062 29.8394 71.0919C30.0099 71.3777 30.2464 71.5122 30.5466 71.4957C31.4266 71.448 32.1179 70.7773 32.625 69.4812C33.1298 68.1894 33.3823 66.4751 33.3823 64.3323C33.3823 60.9391 32.7228 58.4443 31.3993 56.8419C30.0668 55.2291 28.0361 54.4403 25.2823 54.4817C22.6399 54.5211 20.5682 55.668 19.0856 57.935C17.5939 60.2165 16.8434 63.4131 16.8434 67.5144C16.8434 71.181 17.5506 73.9635 18.9583 75.8495C20.3568 77.7253 22.3374 78.57 24.8798 78.396C25.9707 78.3208 26.9904 78.1378 27.9396 77.8475C29.3148 77.4269 30.9923 78.3435 30.9923 79.7815C30.9923 80.2885 30.7822 80.7792 30.3769 81.0837C28.8772 82.2108 27.0479 82.863 24.8798 83.0336C22.4006 83.2301 20.2234 82.7589 18.3596 81.6096C18.3582 81.6087 18.3585 81.6065 18.3602 81.6061ZM25.6575 70.5692C25.6575 70.5685 25.6576 70.5679 25.6579 70.5672C26.067 69.7825 26.3739 68.4536 26.5784 66.5807C26.6603 65.8706 26.7012 65.1501 26.7012 64.4152C26.7012 63.1171 26.5534 62.1461 26.2578 61.5063C25.9599 60.8645 25.5574 60.5499 25.0435 60.5664C24.1998 60.5913 23.5335 61.2496 23.0469 62.5457C22.558 63.8437 22.3147 65.6366 22.3147 67.9181C22.3147 69.2307 22.4761 70.2141 22.7968 70.8663C23.1174 71.5184 23.5586 71.829 24.1157 71.8C24.734 71.7669 25.2477 71.3573 25.657 70.5711C25.6573 70.5705 25.6575 70.5699 25.6575 70.5692Z" fill="white" fill-opacity="0.9" shape-rendering="crispEdges"/>
	</g>
	<defs>
		<filter id="filter0_d_8285_14814" x="75.8462" y="51.9645" width="25.1299" height="44.6282" filterUnits="userSpaceOnUse" color-interpolation-filters="sRGB">
			<feFlood flood-opacity="0" result="BackgroundImageFix"/>
			<feColorMatrix in="SourceAlpha" type="matrix" values="0 0 0 0 0 0 0 0 0 0 0 0 0 0 0 0 0 0 127 0" result="hardAlpha"/>
			<feOffset dy="4"/>
			<feGaussianBlur stdDeviation="5"/>
			<feComposite in2="hardAlpha" operator="out"/>
			<feColorMatrix type="matrix" values="0 0 0 0 0 0 0 0 0 0 0 0 0 0 0 0 0 0 0.05 0"/>
			<feBlend mode="normal" in2="BackgroundImageFix" result="effect1_dropShadow_8285_14814"/>
			<feBlend mode="normal" in="SourceGraphic" in2="effect1_dropShadow_8285_14814" result="shape"/>
		</filter>
		<filter id="filter1_d_8285_14814" x="2.46143" y="43.8462" width="44.9231" height="53.2308" filterUnits="userSpaceOnUse" color-interpolation-filters="sRGB">
			<feFlood flood-opacity="0" result="BackgroundImageFix"/>
			<feColorMatrix in="SourceAlpha" type="matrix" values="0 0 0 0 0 0 0 0 0 0 0 0 0 0 0 0 0 0 127 0" result="hardAlpha"/>
			<feOffset dy="4"/>
			<feGaussianBlur stdDeviation="5"/>
			<feComposite in2="hardAlpha" operator="out"/>
			<feColorMatrix type="matrix" values="0 0 0 0 0 0 0 0 0 0 0 0 0 0 0 0 0 0 0.05 0"/>
			<feBlend mode="normal" in2="BackgroundImageFix" result="effect1_dropShadow_8285_14814"/>
			<feBlend mode="normal" in="SourceGraphic" in2="effect1_dropShadow_8285_14814" result="shape"/>
		</filter>
	</defs>
</svg>
