<svg width="148" height="110" viewBox="0 0 148 110" fill="none" xmlns="http://www.w3.org/2000/svg">
	<path d="M34.949 27.7417C34.949 19.6538 42.0637 13.2236 50.527 13.6625L101.188 16.2897C109.026 16.6961 115.162 22.879 115.162 30.3689V78.6243C115.162 86.0018 109.203 92.1321 101.493 92.6847L50.8319 96.316C42.2594 96.9305 34.949 90.459 34.949 82.2557V27.7417Z" fill="#D7EFFF" fill-opacity="0.8"/>
	<path d="M35.649 27.7417C35.649 20.0876 42.3941 13.9416 50.4907 14.3615L101.152 16.9887C108.646 17.3774 114.462 23.2797 114.462 30.3689V78.6243C114.462 85.6073 108.814 91.4581 101.443 91.9865L50.7819 95.6178C42.58 96.2057 35.649 90.0188 35.649 82.2557V27.7417Z" stroke="white" stroke-opacity="0.24" stroke-width="1.4"/>
	<g filter="url(#filter0_d_8531_178431)">
		<path fill-rule="evenodd" clip-rule="evenodd" d="M80.6278 34.6403C84.8318 30.0216 91.1913 29.16 95.556 34.2587C97.668 36.7265 98.5014 39.6959 98.2236 42.6591C97.9525 45.5669 96.6271 48.3393 94.6589 50.6102L88.8517 57.4351C86.512 60.1306 83.9983 61.6968 81.324 61.7584C78.6262 61.823 76.1828 60.346 74.0172 57.9828C73.5084 57.4289 73.0566 56.832 72.6616 56.2012C72.1026 55.3119 72.3102 54.078 73.1202 53.4534C73.9302 52.8287 75.0347 53.0472 75.5903 53.9334C75.8615 54.3673 76.1694 54.7796 76.5208 55.1642C78.2948 57.112 79.8847 57.8874 81.324 57.8628C82.7532 57.8382 84.4502 57.0166 86.4384 54.7488L92.2925 47.9208C93.8724 46.1177 94.7627 44.0991 94.9401 42.2191C95.1108 40.3974 94.6322 38.5543 93.2029 36.8988C90.4248 33.6772 86.2476 33.9233 83.0879 37.4158L78.6965 42.4252C78.0204 43.1945 76.9091 43.2068 76.2096 42.4468C75.51 41.6867 75.4933 40.4436 76.1728 39.6713L80.6278 34.631V34.6403ZM74.0942 45.9054C76.8756 45.6561 79.3927 46.93 81.5984 49.247L81.6185 49.2655L82.8871 50.681C83.5599 51.4348 83.5599 52.6595 82.8871 53.4257C82.211 54.1919 81.1131 54.2042 80.4336 53.4503L79.1952 52.0749C77.4915 50.3025 75.905 49.6778 74.3921 49.8225C72.8122 49.9732 70.9345 51.001 68.7656 53.4042L62.5868 60.266C59.176 64.0446 58.8514 69.0387 61.9307 72.2634C63.5106 73.9158 65.2778 74.4174 67.025 74.1343C68.8158 73.845 70.7303 72.7004 72.424 70.7649L76.8221 65.7247C77.5083 64.9369 78.6195 64.9031 79.3057 65.6447C79.9885 66.3832 79.9918 67.6171 79.309 68.4048L74.9444 73.445C72.8256 75.8882 70.2015 77.6052 67.42 78.0729C64.5582 78.556 61.683 77.6821 59.3066 75.2174C54.3997 70.1249 55.4038 62.4876 59.9626 57.4782L66.1916 50.6163C68.7053 47.8562 71.3462 46.1485 74.0942 45.9023V45.9054Z" fill="#82C0FF"/>
	</g>
	<path d="M10.6737 63.1829C10.6737 57.6288 15.3714 53.1197 21.1826 53.0957L38.0696 53.0262C43.9164 53.0021 48.6695 57.5253 48.6695 63.1133V81.3241C48.6695 86.6133 44.395 91.0042 38.8752 91.3851L21.9882 92.5506C15.8757 92.9724 10.6737 88.3467 10.6737 82.4895V63.1829Z" fill="#0075FF" fill-opacity="0.78"/>
	<path d="M11.1737 63.1829C11.1737 57.9251 15.6273 53.6186 21.1847 53.5957L38.0717 53.5262C43.6632 53.5032 48.1695 57.8235 48.1695 63.1133V81.3241C48.1695 86.3315 44.1177 90.5222 38.8408 90.8863L21.9538 92.0518C16.1065 92.4553 11.1737 88.0337 11.1737 82.4895V63.1829Z" stroke="white" stroke-opacity="0.18"/>
	<g filter="url(#filter1_d_8531_178431)">
		<path d="M31.9563 62.1713C31.6902 61.9153 31.264 62.1295 31.264 62.5213V67.5937C31.2151 67.5754 31.1636 67.5675 31.112 67.5702C21.806 68.1474 18.8633 77.9265 18.0733 81.7191C17.981 82.1684 18.4886 82.4113 18.7981 82.0822C20.807 79.9325 25.6364 75.44 31.1011 75.1918C31.1581 75.1892 31.2151 75.1735 31.264 75.15V81.0478C31.264 81.4396 31.6902 81.6198 31.9563 81.343L41.1048 71.8407C41.3409 71.5978 41.3409 71.1877 41.1048 70.9631L31.9563 62.1713Z" fill="white" fill-opacity="0.9" shape-rendering="crispEdges"/>
	</g>
	<path d="M105.664 29.1391C105.664 24.5419 109.676 20.8735 114.481 21.0772L129.258 21.7036C133.771 21.8949 137.327 25.4476 137.327 29.7654V46.5583C137.327 50.9625 133.632 54.5533 129.025 54.6269L114.248 54.8629C109.531 54.9382 105.664 51.3038 105.664 46.7943V29.1391Z" fill="#1BCE7B" fill-opacity="0.78"/>
	<path d="M106.164 29.1391C106.164 24.8488 109.916 21.3841 114.46 21.5768L129.236 22.2031C133.502 22.3839 136.827 25.7353 136.827 29.7654V46.5583C136.827 50.6689 133.372 54.0574 129.017 54.127L114.24 54.363C109.78 54.4342 106.164 51.0029 106.164 46.7943V29.1391Z" stroke="white" stroke-opacity="0.18"/>
	<g filter="url(#filter2_d_8531_178431)">
		<path d="M129.939 47.2345C129.654 42.5051 125.998 41.2718 122.665 41.2463C119.332 41.2208 115.465 42.4338 115.162 47.2982V47.5173C115.162 47.7492 115.333 47.9378 115.541 47.9378L129.577 47.8588C129.777 47.8588 129.936 47.6728 129.936 47.446V47.2345H129.939Z" fill="white" fill-opacity="0.9" shape-rendering="crispEdges"/>
		<path d="M120.577 29.4458C120.78 29.2878 121.106 29.1069 121.511 28.9693C121.904 28.8317 122.31 28.7629 122.644 28.7731C123.951 28.8138 124.85 29.4534 125.44 30.3504C126.039 31.2728 126.344 32.5367 126.321 33.8312C126.297 35.1257 125.945 36.3895 125.311 37.2967C124.697 38.1936 123.81 38.7644 122.644 38.7517C120.733 38.7288 119.479 37.126 119.071 35.011C118.66 32.8807 119.203 30.567 120.589 29.4458H120.577Z" fill="white" fill-opacity="0.9" shape-rendering="crispEdges"/>
	</g>
	<defs>
		<filter id="filter0_d_8531_178431" x="46.0579" y="24.7907" width="62.2175" height="67.4099" filterUnits="userSpaceOnUse" color-interpolation-filters="sRGB">
			<feFlood flood-opacity="0" result="BackgroundImageFix"/>
			<feColorMatrix in="SourceAlpha" type="matrix" values="0 0 0 0 0 0 0 0 0 0 0 0 0 0 0 0 0 0 127 0" result="hardAlpha"/>
			<feOffset dy="4"/>
			<feGaussianBlur stdDeviation="5"/>
			<feComposite in2="hardAlpha" operator="out"/>
			<feColorMatrix type="matrix" values="0 0 0 0 0 0 0 0 0 0 0 0 0 0 0 0 0 0 0.05 0"/>
			<feBlend mode="normal" in2="BackgroundImageFix" result="effect1_dropShadow_8531_178431"/>
			<feBlend mode="normal" in="SourceGraphic" in2="effect1_dropShadow_8531_178431" result="shape"/>
		</filter>
		<filter id="filter1_d_8531_178431" x="8.06226" y="56.0599" width="43.2196" height="40.1744" filterUnits="userSpaceOnUse" color-interpolation-filters="sRGB">
			<feFlood flood-opacity="0" result="BackgroundImageFix"/>
			<feColorMatrix in="SourceAlpha" type="matrix" values="0 0 0 0 0 0 0 0 0 0 0 0 0 0 0 0 0 0 127 0" result="hardAlpha"/>
			<feOffset dy="4"/>
			<feGaussianBlur stdDeviation="5"/>
			<feComposite in2="hardAlpha" operator="out"/>
			<feColorMatrix type="matrix" values="0 0 0 0 0 0 0 0 0 0 0 0 0 0 0 0 0 0 0.05 0"/>
			<feBlend mode="normal" in2="BackgroundImageFix" result="effect1_dropShadow_8531_178431"/>
			<feBlend mode="normal" in="SourceGraphic" in2="effect1_dropShadow_8531_178431" result="shape"/>
		</filter>
		<filter id="filter2_d_8531_178431" x="105.162" y="22.7721" width="34.7761" height="39.1657" filterUnits="userSpaceOnUse" color-interpolation-filters="sRGB">
			<feFlood flood-opacity="0" result="BackgroundImageFix"/>
			<feColorMatrix in="SourceAlpha" type="matrix" values="0 0 0 0 0 0 0 0 0 0 0 0 0 0 0 0 0 0 127 0" result="hardAlpha"/>
			<feOffset dy="4"/>
			<feGaussianBlur stdDeviation="5"/>
			<feComposite in2="hardAlpha" operator="out"/>
			<feColorMatrix type="matrix" values="0 0 0 0 0 0 0 0 0 0 0 0 0 0 0 0 0 0 0.05 0"/>
			<feBlend mode="normal" in2="BackgroundImageFix" result="effect1_dropShadow_8531_178431"/>
			<feBlend mode="normal" in="SourceGraphic" in2="effect1_dropShadow_8531_178431" result="shape"/>
		</filter>
	</defs>
</svg>
