<svg width="347" height="184" viewBox="0 0 347 184" fill="none" xmlns="http://www.w3.org/2000/svg">
<g filter="url(#filter0_d_838_71374)">
<rect x="50" y="37" width="246" height="105" rx="8" fill="white"/>
<path opacity="0.25" d="M62 53C62 50.7909 63.7909 49 66 49H280C282.209 49 284 50.7909 284 53V68.0476C284 70.2568 282.209 72.0476 280 72.0476H66C63.7909 72.0476 62 70.2568 62 68.0476V53Z" fill="#B095DC"/>
<path fill-rule="evenodd" clip-rule="evenodd" d="M73.0003 63.9354C75.1588 63.9354 76.9086 62.1744 76.9086 60.0021C76.9086 57.8297 75.1588 56.0687 73.0003 56.0687C70.8418 56.0687 69.0919 57.8297 69.0919 60.0021C69.0919 62.1744 70.8418 63.9354 73.0003 63.9354ZM72.3756 57.0569C72.3404 56.9611 72.2057 56.9611 72.1705 57.0569L71.7814 58.115C71.6707 58.4163 71.4347 58.6538 71.1354 58.7652L70.084 59.1568C69.9888 59.1922 69.9888 59.3278 70.084 59.3632L71.1354 59.7548C71.4347 59.8662 71.6707 60.1037 71.7814 60.405L72.1705 61.4631C72.2057 61.5589 72.3404 61.5589 72.3756 61.4631L72.7646 60.405C72.8754 60.1037 73.1114 59.8662 73.4107 59.7548L74.4621 59.3632C74.5573 59.3278 74.5573 59.1922 74.4621 59.1568L73.4107 58.7652C73.1114 58.6538 72.8754 58.4163 72.7646 58.115L72.3756 57.0569ZM74.6091 60.1146C74.5888 60.0592 74.511 60.0592 74.4906 60.1146L74.2658 60.726C74.2018 60.9 74.0655 61.0373 73.8925 61.1017L73.285 61.3279C73.23 61.3484 73.23 61.4267 73.285 61.4472L73.8925 61.6734C74.0655 61.7378 74.2018 61.8751 74.2658 62.0491L74.4906 62.6605C74.511 62.7159 74.5888 62.7159 74.6091 62.6605L74.8339 62.0491C74.8979 61.8751 75.0343 61.7378 75.2072 61.6734L75.8147 61.4472C75.8697 61.4267 75.8697 61.3484 75.8147 61.3279L75.2072 61.1017C75.0343 61.0373 74.8979 60.9 74.8339 60.726L74.6091 60.1146Z" fill="#8E52EC" fill-opacity="0.7"/>
<path d="M78.6239 60.2408C79.0079 60.2576 79.3099 60.5855 79.2519 60.9679C78.7886 64.0238 76.1661 66.3649 73.0002 66.3649C69.5073 66.3649 66.6758 63.5152 66.6758 60C66.6758 56.4848 69.5073 53.6351 73.0002 53.6351C74.6641 53.6351 76.178 54.2818 77.3072 55.3392C77.5892 55.6032 77.5541 56.0497 77.2623 56.3027C76.9708 56.5554 76.5338 56.5182 76.2442 56.2633C75.3772 55.5004 74.2423 55.0381 73.0001 55.0381C70.2768 55.0381 68.0691 57.2599 68.0691 60.0007C68.0691 62.7414 70.2768 64.9632 73.0001 64.9632C75.4154 64.9632 77.4252 63.2154 77.8488 60.908C77.9188 60.5267 78.2391 60.224 78.6239 60.2408Z" fill="#8E52EC" fill-opacity="0.7"/>
<rect opacity="0.8" x="86" y="57" width="56" height="5" rx="2.5" fill="white"/>
<rect opacity="0.8" x="152" y="57" width="56" height="5" rx="2.5" fill="white"/>
<rect opacity="0.8" x="218" y="57" width="56" height="5" rx="2.5" fill="white"/>
<path opacity="0.25" d="M62.2754 82.0479C62.2754 79.8387 64.0663 78.0479 66.2754 78.0479H280.275C282.485 78.0479 284.275 79.8387 284.275 82.0479V97.0955C284.275 99.3046 282.485 101.095 280.275 101.095H66.2754C64.0662 101.095 62.2754 99.3046 62.2754 97.0955V82.0479Z" fill="#B095DC"/>
<path fill-rule="evenodd" clip-rule="evenodd" d="M73.2757 92.9833C75.4342 92.9833 77.184 91.2222 77.184 89.0499C77.184 86.8776 75.4342 85.1165 73.2757 85.1165C71.1171 85.1165 69.3673 86.8776 69.3673 89.0499C69.3673 91.2222 71.1171 92.9833 73.2757 92.9833ZM72.651 86.1048C72.6158 86.009 72.4811 86.009 72.4459 86.1048L72.0568 87.1629C71.9461 87.4641 71.7101 87.7016 71.4108 87.8131L70.3594 88.2046C70.2642 88.2401 70.2642 88.3756 70.3594 88.411L71.4108 88.8026C71.7101 88.9141 71.9461 89.1516 72.0568 89.4528L72.4459 90.5109C72.4811 90.6067 72.6158 90.6067 72.651 90.5109L73.04 89.4528C73.1508 89.1516 73.3868 88.9141 73.6861 88.8026L74.7375 88.411C74.8327 88.3756 74.8327 88.2401 74.7375 88.2046L73.6861 87.8131C73.3868 87.7016 73.1508 87.4641 73.04 87.1629L72.651 86.1048ZM74.8845 89.1624C74.8642 89.1071 74.7864 89.1071 74.766 89.1624L74.5412 89.7738C74.4772 89.9479 74.3409 90.0851 74.1679 90.1495L73.5604 90.3757C73.5054 90.3962 73.5054 90.4745 73.5604 90.495L74.1679 90.7213C74.3409 90.7857 74.4772 90.9229 74.5412 91.0969L74.766 91.7083C74.7864 91.7637 74.8642 91.7637 74.8845 91.7083L75.1093 91.0969C75.1733 90.9229 75.3097 90.7857 75.4826 90.7213L76.0901 90.495C76.1451 90.4745 76.1451 90.3962 76.0901 90.3757L75.4826 90.1495C75.3097 90.0851 75.1733 89.9479 75.1093 89.7738L74.8845 89.1624Z" fill="#8E52EC" fill-opacity="0.7"/>
<path d="M78.8993 89.2887C79.2833 89.3054 79.5853 89.6334 79.5273 90.0158C79.064 93.0716 76.4415 95.4127 73.2756 95.4127C69.7827 95.4127 66.9512 92.5631 66.9512 89.0478C66.9512 85.5326 69.7827 82.683 73.2756 82.683C74.9395 82.683 76.4534 83.3297 77.5826 84.387C77.8645 84.651 77.8295 85.0976 77.5377 85.3506C77.2462 85.6032 76.8092 85.566 76.5196 85.3112C75.6526 84.5482 74.5176 84.086 73.2754 84.086C70.5521 84.086 68.3445 86.3078 68.3445 89.0485C68.3445 91.7893 70.5521 94.0111 73.2754 94.0111C75.6908 94.0111 77.7006 92.2633 78.1242 89.9558C78.1942 89.5745 78.5145 89.2719 78.8993 89.2887Z" fill="#8E52EC" fill-opacity="0.7"/>
<rect opacity="0.8" x="86.2754" y="86.0479" width="56" height="5" rx="2.5" fill="white"/>
<rect opacity="0.8" x="152.275" y="86.0479" width="56" height="5" rx="2.5" fill="white"/>
<rect opacity="0.8" x="218.275" y="86.0479" width="56" height="5" rx="2.5" fill="white"/>
<path opacity="0.25" d="M62.5508 111.096C62.5508 108.887 64.3416 107.096 66.5508 107.096H280.551C282.76 107.096 284.551 108.887 284.551 111.096V126.143C284.551 128.352 282.76 130.143 280.551 130.143H66.5508C64.3416 130.143 62.5508 128.352 62.5508 126.143V111.096Z" fill="#B095DC"/>
<path fill-rule="evenodd" clip-rule="evenodd" d="M73.5511 122.031C75.7096 122.031 77.4594 120.27 77.4594 118.098C77.4594 115.925 75.7096 114.164 73.5511 114.164C71.3925 114.164 69.6427 115.925 69.6427 118.098C69.6427 120.27 71.3925 122.031 73.5511 122.031ZM72.9264 115.153C72.8911 115.057 72.7565 115.057 72.7213 115.153L72.3322 116.211C72.2215 116.512 71.9855 116.749 71.6861 116.861L70.6348 117.252C70.5396 117.288 70.5396 117.423 70.6348 117.459L71.6861 117.85C71.9855 117.962 72.2215 118.199 72.3322 118.501L72.7213 119.559C72.7565 119.655 72.8911 119.655 72.9264 119.559L73.3154 118.501C73.4262 118.199 73.6622 117.962 73.9615 117.85L75.0129 117.459C75.1081 117.423 75.1081 117.288 75.0129 117.252L73.9615 116.861C73.6622 116.749 73.4262 116.512 73.3154 116.211L72.9264 115.153ZM75.1599 118.21C75.1396 118.155 75.0618 118.155 75.0414 118.21L74.8166 118.822C74.7526 118.996 74.6163 119.133 74.4433 119.197L73.8358 119.424C73.7808 119.444 73.7808 119.522 73.8358 119.543L74.4433 119.769C74.6163 119.834 74.7526 119.971 74.8166 120.145L75.0414 120.756C75.0618 120.812 75.1396 120.812 75.1599 120.756L75.3847 120.145C75.4487 119.971 75.5851 119.834 75.758 119.769L76.3655 119.543C76.4205 119.522 76.4205 119.444 76.3655 119.424L75.758 119.197C75.5851 119.133 75.4487 118.996 75.3847 118.822L75.1599 118.21Z" fill="#8E52EC" fill-opacity="0.7"/>
<path d="M79.1747 118.337C79.5587 118.353 79.8607 118.681 79.8027 119.064C79.3394 122.119 76.7168 124.461 73.551 124.461C70.0581 124.461 67.2266 121.611 67.2266 118.096C67.2266 114.58 70.0581 111.731 73.551 111.731C75.2149 111.731 76.7288 112.378 77.8579 113.435C78.1399 113.699 78.1049 114.145 77.8131 114.398C77.5216 114.651 77.0846 114.614 76.795 114.359C75.9279 113.596 74.793 113.134 73.5508 113.134C70.8275 113.134 68.6199 115.356 68.6199 118.096C68.6199 120.837 70.8275 123.059 73.5508 123.059C75.9662 123.059 77.976 121.311 78.3996 119.004C78.4696 118.622 78.7898 118.32 79.1747 118.337Z" fill="#8E52EC" fill-opacity="0.7"/>
<rect opacity="0.8" x="86.5508" y="115.096" width="56" height="5" rx="2.5" fill="white"/>
<rect opacity="0.8" x="152.551" y="115.096" width="56" height="5" rx="2.5" fill="white"/>
<rect opacity="0.8" x="218.551" y="115.096" width="56" height="5" rx="2.5" fill="white"/>
</g>
<g filter="url(#filter1_d_838_71374)">
<circle cx="274.09" cy="133.09" r="37" fill="white" fill-opacity="0.9" shape-rendering="crispEdges"/>
</g>
<path fill-rule="evenodd" clip-rule="evenodd" d="M287.664 143.192C288.264 143.192 288.75 142.706 288.75 142.105L288.75 114.837C288.75 114.237 288.264 113.75 287.664 113.75H265.286C261.554 113.75 258.5 116.807 258.5 120.544V145.456C258.5 149.193 261.554 152.25 265.286 152.25H287.664C288.264 152.25 288.75 151.763 288.75 151.163V148.808C288.75 148.208 288.264 147.721 287.664 147.721H265.286C264.041 147.721 263.023 146.702 263.023 145.456C263.025 144.212 264.043 143.192 265.286 143.192L287.664 143.192ZM271.546 119.478C271.434 119.174 271.004 119.174 270.891 119.478L269.649 122.836C269.295 123.791 268.541 124.545 267.586 124.899L264.228 126.141C263.924 126.254 263.924 126.684 264.228 126.796L267.586 128.039C268.541 128.392 269.295 129.146 269.649 130.102L270.891 133.459C271.004 133.764 271.434 133.764 271.546 133.459L272.789 130.102C273.142 129.146 273.896 128.392 274.852 128.039L278.209 126.796C278.514 126.684 278.514 126.254 278.209 126.141L274.852 124.899C273.896 124.545 273.142 123.791 272.789 122.836L271.546 119.478ZM278.219 129.027L277.391 131.265C277.155 131.903 276.653 132.405 276.015 132.641L273.777 133.469C273.574 133.544 273.574 133.831 273.777 133.906L276.015 134.734C276.653 134.97 277.155 135.472 277.391 136.11L278.219 138.348C278.294 138.551 278.581 138.551 278.656 138.348L279.484 136.11C279.72 135.472 280.222 134.97 280.86 134.734L283.098 133.906C283.301 133.831 283.301 133.544 283.098 133.469L280.86 132.641C280.222 132.405 279.72 131.903 279.484 131.265L278.656 129.027C278.581 128.824 278.294 128.824 278.219 129.027Z" fill="#8E52EC"/>
<g filter="url(#filter2_f_838_71374)">
<path d="M81.0841 30.5756C81.2856 31.1321 82.0855 31.1325 82.2876 30.5763L84.9922 23.1303C85.0567 22.9527 85.1989 22.813 85.3795 22.7498L92.9531 20.098C93.5189 19.8999 93.5193 19.1131 92.9538 18.9144L85.3832 16.2541C85.2026 16.1907 85.0605 16.0508 84.9962 15.8732L82.3 8.42415C82.0986 7.86769 81.2986 7.86724 81.0966 8.42348L78.3919 15.8695C78.3274 16.0471 78.1852 16.1868 78.0046 16.25L70.431 18.9018C69.8652 19.0999 69.8648 19.8867 70.4304 20.0854L78.001 22.7456C78.1815 22.8091 78.3236 22.9489 78.3879 23.1266L81.0841 30.5756Z" fill="#F7F3FD"/>
</g>
<path opacity="0.2" d="M81.4334 24.1917C81.5187 24.4274 81.8576 24.4276 81.9432 24.192L83.0888 21.0379C83.1162 20.9627 83.1764 20.9035 83.2529 20.8767L86.461 19.7534C86.7007 19.6695 86.7009 19.3362 86.4613 19.2521L83.2545 18.1252C83.178 18.0983 83.1178 18.0391 83.0906 17.9638L81.9484 14.8085C81.8631 14.5728 81.5243 14.5726 81.4387 14.8082L80.293 17.9623C80.2657 18.0375 80.2055 18.0967 80.129 18.1235L76.9209 19.2467C76.6812 19.3306 76.681 19.6639 76.9206 19.7481L80.1274 20.875C80.2039 20.9018 80.2641 20.9611 80.2913 21.0363L81.4334 24.1917Z" fill="#8E52EC"/>
<g filter="url(#filter3_f_838_71374)">
<path d="M24.6691 126.877C24.9357 127.614 25.9944 127.614 26.2618 126.878L29.8412 117.024C29.9266 116.789 30.1147 116.604 30.3538 116.52L40.3769 113.011C41.1257 112.749 41.1263 111.707 40.3778 111.444L30.3586 107.924C30.1197 107.84 29.9317 107.655 29.8466 107.419L26.2782 97.5612C26.0117 96.8247 24.953 96.8241 24.6856 97.5603L21.1062 107.415C21.0208 107.65 20.8326 107.834 20.5936 107.918L10.5704 111.428C9.82166 111.69 9.82108 112.731 10.5695 112.994L20.5888 116.515C20.8277 116.599 21.0157 116.784 21.1008 117.019L24.6691 126.877Z" fill="#F7F3FD"/>
</g>
<path opacity="0.2" d="M25.1336 118.429C25.2466 118.741 25.695 118.741 25.8083 118.429L27.3245 114.255C27.3606 114.156 27.4404 114.077 27.5416 114.042L31.7873 112.555C32.1045 112.444 32.1048 112.003 31.7877 111.892L27.5437 110.4C27.4424 110.365 27.3628 110.286 27.3268 110.187L25.8152 106.011C25.7023 105.699 25.2539 105.699 25.1406 106.011L23.6244 110.185C23.5882 110.284 23.5085 110.363 23.4073 110.398L19.1615 111.885C18.8444 111.996 18.8441 112.437 19.1612 112.548L23.4052 114.04C23.5065 114.075 23.5861 114.154 23.6221 114.253L25.1336 118.429Z" fill="#8E52EC"/>
<g filter="url(#filter4_f_838_71374)">
<path d="M320.669 78.8772C320.936 79.6136 321.994 79.6142 322.262 78.8781L325.841 69.0238C325.927 68.7888 326.115 68.6039 326.354 68.5202L336.377 65.0107C337.126 64.7486 337.126 63.7073 336.378 63.4443L326.359 59.9236C326.12 59.8397 325.932 59.6546 325.847 59.4194L322.278 49.5612C322.012 48.8247 320.953 48.8241 320.686 49.5603L317.106 59.4145C317.021 59.6496 316.833 59.8345 316.594 59.9182L306.57 63.4276C305.822 63.6898 305.821 64.731 306.57 64.994L316.589 68.5147C316.828 68.5987 317.016 68.7838 317.101 69.0189L320.669 78.8772Z" fill="#F7F3FD"/>
</g>
<path opacity="0.2" d="M321.134 70.429C321.247 70.741 321.695 70.7412 321.808 70.4294L323.324 66.2552C323.361 66.1557 323.44 66.0774 323.542 66.0419L327.787 64.5553C328.105 64.4443 328.105 64.0032 327.788 63.8918L323.544 62.4005C323.442 62.3649 323.363 62.2865 323.327 62.1869L321.815 58.011C321.702 57.6991 321.254 57.6988 321.141 58.0106L319.624 62.1848C319.588 62.2844 319.509 62.3627 319.407 62.3982L315.162 63.8847C314.844 63.9958 314.844 64.4368 315.161 64.5483L319.405 66.0396C319.506 66.0751 319.586 66.1536 319.622 66.2531L321.134 70.429Z" fill="#8E52EC"/>
<defs>
<filter id="filter0_d_838_71374" x="45" y="34" width="256" height="115" filterUnits="userSpaceOnUse" color-interpolation-filters="sRGB">
<feFlood flood-opacity="0" result="BackgroundImageFix"/>
<feColorMatrix in="SourceAlpha" type="matrix" values="0 0 0 0 0 0 0 0 0 0 0 0 0 0 0 0 0 0 127 0" result="hardAlpha"/>
<feOffset dy="2"/>
<feGaussianBlur stdDeviation="2.5"/>
<feComposite in2="hardAlpha" operator="out"/>
<feColorMatrix type="matrix" values="0 0 0 0 0.423529 0 0 0 0 0.423529 0 0 0 0 0.423529 0 0 0 0.12 0"/>
<feBlend mode="normal" in2="BackgroundImageFix" result="effect1_dropShadow_838_71374"/>
<feBlend mode="normal" in="SourceGraphic" in2="effect1_dropShadow_838_71374" result="shape"/>
</filter>
<filter id="filter1_d_838_71374" x="225.55" y="86.8198" width="97.08" height="97.08" filterUnits="userSpaceOnUse" color-interpolation-filters="sRGB">
<feFlood flood-opacity="0" result="BackgroundImageFix"/>
<feColorMatrix in="SourceAlpha" type="matrix" values="0 0 0 0 0 0 0 0 0 0 0 0 0 0 0 0 0 0 127 0" result="hardAlpha"/>
<feOffset dy="2.27"/>
<feGaussianBlur stdDeviation="5.77"/>
<feComposite in2="hardAlpha" operator="out"/>
<feColorMatrix type="matrix" values="0 0 0 0 0.392157 0 0 0 0 0.427451 0 0 0 0 0.482353 0 0 0 0.16 0"/>
<feBlend mode="normal" in2="BackgroundImageFix" result="effect1_dropShadow_838_71374"/>
<feBlend mode="normal" in="SourceGraphic" in2="effect1_dropShadow_838_71374" result="shape"/>
</filter>
<filter id="filter2_f_838_71374" x="62.4497" y="0.45039" width="38.4834" height="38.099" filterUnits="userSpaceOnUse" color-interpolation-filters="sRGB">
<feFlood flood-opacity="0" result="BackgroundImageFix"/>
<feBlend mode="normal" in="SourceGraphic" in2="BackgroundImageFix" result="shape"/>
<feGaussianBlur stdDeviation="3.77809" result="effect1_foregroundBlur_838_71374"/>
</filter>
<filter id="filter3_f_838_71374" x="0.0078125" y="87.0085" width="50.9316" height="50.4214" filterUnits="userSpaceOnUse" color-interpolation-filters="sRGB">
<feFlood flood-opacity="0" result="BackgroundImageFix"/>
<feBlend mode="normal" in="SourceGraphic" in2="BackgroundImageFix" result="shape"/>
<feGaussianBlur stdDeviation="5" result="effect1_foregroundBlur_838_71374"/>
</filter>
<filter id="filter4_f_838_71374" x="296.008" y="39.0085" width="50.9316" height="50.4214" filterUnits="userSpaceOnUse" color-interpolation-filters="sRGB">
<feFlood flood-opacity="0" result="BackgroundImageFix"/>
<feBlend mode="normal" in="SourceGraphic" in2="BackgroundImageFix" result="shape"/>
<feGaussianBlur stdDeviation="5" result="effect1_foregroundBlur_838_71374"/>
</filter>
</defs>
</svg>
