<svg width="78" height="78" viewBox="0 0 78 78" fill="none" xmlns="http://www.w3.org/2000/svg">
	<g opacity="0.8">
		<path d="M23.0511 8.70576C25.3546 7.58259 28.1527 7.81651 30.3883 9.28967L44.3646 18.4983C46.3931 19.8339 47.6288 22.1535 47.6288 24.5945V40.6242C47.6288 43.0652 46.3931 45.358 44.3646 46.6508L30.3883 55.5612C28.1527 56.9861 25.3546 57.1611 23.0511 55.9879L7.11599 47.8829C4.55715 46.5811 2.96436 44.0562 2.96436 41.2724V22.9963C2.96436 20.2125 4.55894 17.7197 7.11599 16.4733L23.0511 8.70576Z" fill="#19CC45"/>
		<path d="M23.2702 9.15521L23.2702 9.15519C25.404 8.11477 28.0147 8.32437 30.1132 9.70718L30.1132 9.70719L44.0895 18.9158L44.0896 18.9159C45.9756 20.1577 47.1288 22.3192 47.1288 24.5945V40.6242C47.1288 42.8989 45.9766 45.0305 44.0959 46.2291L44.0958 46.2292L30.1196 55.1395C30.1196 55.1395 30.1196 55.1396 30.1196 55.1396C28.026 56.4739 25.4162 56.6314 23.278 55.5424L23.2778 55.5423L7.3427 47.4372C4.94364 46.2168 3.46436 43.8594 3.46436 41.2724V22.9963C3.46436 20.4106 4.94362 18.0884 7.33506 16.9228L7.33507 16.9228L23.2702 9.15521Z" stroke="black" stroke-opacity="0.16"/>
	</g>
	<path d="M54.129 25.4016C56.0735 24.2785 58.4341 24.3677 60.3252 25.6123L72.1836 33.412C73.9104 34.5477 74.9639 36.6155 74.9639 38.8476V53.5024C74.9639 55.7344 73.9104 57.8754 72.1836 59.1325L60.3252 67.7608C58.4341 69.1357 56.0717 69.3911 54.129 68.4036L40.7366 61.6056C38.5956 60.5182 37.2617 58.2879 37.2617 55.7666V39.2154C37.2617 36.6941 38.5956 34.3709 40.7366 33.1353L54.129 25.4016Z" fill="#1B79E6" fill-opacity="0.78"/>
	<path d="M54.379 25.8346L54.379 25.8346C56.1558 24.8083 58.3134 24.8868 60.0503 26.03L60.0504 26.0301L71.9089 33.8298L72.1836 33.412L71.9089 33.8298C73.4813 34.864 74.4639 36.7667 74.4639 38.8476V53.5024C74.4639 55.584 73.4794 57.5707 71.8894 58.7283L60.0311 67.3564C60.0311 67.3564 60.031 67.3564 60.031 67.3565C58.2756 68.6327 56.1134 68.8514 54.3555 67.9579L54.3553 67.9578L40.963 61.1599C38.9988 60.1622 37.7617 58.1099 37.7617 55.7666V39.2154C37.7617 36.8697 39.0029 34.7132 40.9865 33.5683L40.9866 33.5683L54.379 25.8346Z" stroke="black" stroke-opacity="0.16"/>
	<g filter="url(#filter0_d_5226_19724)">
		<path fill-rule="evenodd" clip-rule="evenodd" d="M22.3804 19.9166C17.7331 23.0857 19.2879 32.6729 25.7654 32.7415C33.2471 32.8195 33.8774 19.3989 25.7654 19.0049C24.594 18.9478 23.1417 19.3989 22.3804 19.9166ZM35.996 42.5571C36.0492 43.1262 35.6183 43.6039 35.0582 43.6154L15.8593 43.9998C15.3429 44.0094 14.9367 43.5716 15.0088 43.0729C15.8441 37.34 21.1237 35.2958 25.7768 35.3129C30.4393 35.3281 35.4664 36.8223 35.9942 42.5571H35.996Z" fill="white" fill-opacity="0.9" shape-rendering="crispEdges"/>
	</g>
	<g filter="url(#filter1_d_5226_19724)">
		<path fill-rule="evenodd" clip-rule="evenodd" d="M57.059 54.9953C58.0929 54.9242 58.8952 54.0648 58.8952 53.0285V48.5054L64.1873 48.2724C65.2014 48.2277 66.0006 47.3925 66.0006 46.3775C66.0006 45.3069 65.1152 44.4485 64.0452 44.4816L58.8952 44.6411V39.9883C58.8952 38.8929 58.0022 38.0075 56.9068 38.017C55.8247 38.0262 54.9523 38.9061 54.9523 39.9883V44.7632L49.7886 44.9231C48.7141 44.9564 47.8604 45.837 47.8604 46.912C47.8604 48.0453 48.8055 48.9497 49.9377 48.8999L54.9523 48.6791V53.0285C54.9523 54.1705 55.9196 55.0736 57.059 54.9953Z" fill="white" fill-opacity="0.9" shape-rendering="crispEdges"/>
	</g>
	<defs>
		<filter id="filter0_d_5226_19724" x="5.00049" y="13" width="41" height="45" filterUnits="userSpaceOnUse" color-interpolation-filters="sRGB">
			<feFlood flood-opacity="0" result="BackgroundImageFix"/>
			<feColorMatrix in="SourceAlpha" type="matrix" values="0 0 0 0 0 0 0 0 0 0 0 0 0 0 0 0 0 0 127 0" result="hardAlpha"/>
			<feOffset dy="4"/>
			<feGaussianBlur stdDeviation="5"/>
			<feComposite in2="hardAlpha" operator="out"/>
			<feColorMatrix type="matrix" values="0 0 0 0 0 0 0 0 0 0 0 0 0 0 0 0 0 0 0.05 0"/>
			<feBlend mode="normal" in2="BackgroundImageFix" result="effect1_dropShadow_5226_19724"/>
			<feBlend mode="normal" in="SourceGraphic" in2="effect1_dropShadow_5226_19724" result="shape"/>
		</filter>
		<filter id="filter1_d_5226_19724" x="37.8604" y="32.0169" width="38.1401" height="36.9832" filterUnits="userSpaceOnUse" color-interpolation-filters="sRGB">
			<feFlood flood-opacity="0" result="BackgroundImageFix"/>
			<feColorMatrix in="SourceAlpha" type="matrix" values="0 0 0 0 0 0 0 0 0 0 0 0 0 0 0 0 0 0 127 0" result="hardAlpha"/>
			<feOffset dy="4"/>
			<feGaussianBlur stdDeviation="5"/>
			<feComposite in2="hardAlpha" operator="out"/>
			<feColorMatrix type="matrix" values="0 0 0 0 0 0 0 0 0 0 0 0 0 0 0 0 0 0 0.05 0"/>
			<feBlend mode="normal" in2="BackgroundImageFix" result="effect1_dropShadow_5226_19724"/>
			<feBlend mode="normal" in="SourceGraphic" in2="effect1_dropShadow_5226_19724" result="shape"/>
		</filter>
	</defs>
</svg>
