<svg width="209" height="162" viewBox="0 0 209 162" fill="none" xmlns="http://www.w3.org/2000/svg">
	<path d="M161.813 117.54C161.813 128.796 153.315 138.237 142.121 139.418L75.5985 146.436C62.6072 147.806 51.2905 137.621 51.2905 124.557V37.8671C51.2905 25.0117 62.2658 14.895 75.0786 15.9399L141.601 21.3645C153.02 22.2957 161.813 31.8348 161.813 43.2918V117.54Z" fill="#224A7D" fill-opacity="0.8"/>
	<path d="M161.113 117.54C161.113 128.438 152.886 137.579 142.047 138.722L75.5251 145.74C62.9471 147.066 51.9905 137.205 51.9905 124.557V37.8671C51.9905 25.4207 62.6166 15.6259 75.0217 16.6375L141.544 22.0622C152.6 22.9638 161.113 32.1994 161.113 43.2918V117.54Z" stroke="#1587FA" stroke-opacity="0.16" stroke-width="1.4"/>
	<g opacity="0.7">
		<path d="M171.419 30.0979C173.988 28.7096 177.127 28.941 179.648 30.6835L195.685 41.7534C198.053 43.3874 199.5 46.2399 199.5 49.2441V68.9724C199.5 71.9767 198.049 74.7604 195.685 76.2788L179.648 86.5786C177.127 88.1982 173.988 88.2778 171.419 86.7702L153.982 76.5283C151.238 74.9159 149.535 71.9008 149.535 68.6362V47.1907C149.535 43.9225 151.238 40.9906 153.982 39.5119L171.419 30.1051V30.0979Z" fill="#6BE860"/>
		<path d="M179.25 31.2596L179.25 31.2594C176.955 29.6734 174.135 29.4639 171.828 30.673C171.804 30.6905 171.778 30.7067 171.751 30.7212L154.315 40.128L154.314 40.1282C151.809 41.478 150.235 44.1656 150.235 47.1907V68.6362C150.235 71.6595 151.813 74.4415 154.337 75.9247L179.25 31.2596ZM179.25 31.2596L195.288 42.3295L195.288 42.3295C197.455 43.8253 198.8 46.4563 198.8 49.2441V68.9724C198.8 71.7589 197.454 74.3109 195.307 75.6898L179.27 85.9896L179.27 85.9897C176.967 87.4689 174.111 87.5385 171.774 86.1666C171.774 86.1666 171.774 86.1666 171.773 86.1665L154.337 75.9248L179.25 31.2596Z" stroke="black" stroke-opacity="0.16" stroke-width="1.4" stroke-linejoin="round"/>
	</g>
	<g opacity="0.9">
		<path d="M34.9573 80.7336C37.9536 78.9585 41.6112 78.9296 44.5527 80.6323L63.294 91.4744C66.0637 93.076 67.7592 96.1164 67.7592 99.4605V121.405C67.7592 124.749 66.0637 127.97 63.294 129.868L44.5527 142.706C41.6112 144.723 37.9536 145.081 34.9573 143.624L14.6667 133.773C11.4768 132.225 9.5 129.033 9.5 125.414V101.659C9.5 98.0397 11.4768 94.6377 14.6667 92.7506L34.9573 80.7372V80.7336Z" fill="#3DADFF" fill-opacity="0.78"/>
		<path d="M44.202 81.2381L44.2022 81.2382L62.9435 92.0803L62.9436 92.0804C65.4843 93.5495 67.0592 96.3513 67.0592 99.4605V121.405C67.0592 124.518 65.4777 127.523 62.8983 129.291L44.1571 142.128L44.1568 142.129C41.4032 144.017 38.0126 144.331 35.2634 142.995L35.2631 142.994L14.9725 133.143L14.9722 133.143C12.0292 131.715 10.2 128.771 10.2 125.414V101.659C10.2 98.2951 12.0392 95.1184 15.0232 93.3531L15.0234 93.3529L35.314 81.3395C35.3324 81.3286 35.3503 81.3169 35.3675 81.3044C38.1402 79.6869 41.5015 79.6748 44.202 81.2381Z" stroke="black" stroke-opacity="0.16" stroke-width="1.4" stroke-linejoin="round"/>
	</g>
	<g filter="url(#filter0_d_3770_65565)">
		<path fill-rule="evenodd" clip-rule="evenodd" d="M173.301 44.3342C168.894 47.8988 170.363 58.6143 176.538 58.7589C183.788 58.9288 184.405 43.6762 176.538 43.2857C175.416 43.2315 174.024 43.7449 173.301 44.3342ZM186.484 70.0602C186.536 70.7109 186.112 71.2423 185.564 71.2423L167.129 71.1917C166.643 71.1917 166.263 70.6928 166.333 70.1397C167.115 63.7769 172.106 61.5716 176.553 61.6547C181.058 61.7379 185.966 63.513 186.484 70.0602Z" fill="white" fill-opacity="0.9" shape-rendering="crispEdges"/>
	</g>
	<g filter="url(#filter1_d_3770_65565)">
		<path fill-rule="evenodd" clip-rule="evenodd" d="M113.894 52.5128C119.628 45.9825 128.275 44.8242 134.197 52.1008C137.058 55.6147 138.183 59.8244 137.808 64.0225C137.441 68.1389 135.649 72.061 132.98 75.2756L125.095 84.9544C121.91 88.7832 118.491 91.0144 114.839 91.1077C111.152 91.201 107.812 89.1059 104.848 85.7396C104.149 84.9506 103.531 84.0993 102.988 83.2014C102.222 81.9303 102.505 80.1733 103.619 79.2832C104.728 78.393 106.244 78.704 107.002 79.9712C107.374 80.5892 107.796 81.1762 108.279 81.7282C110.705 84.5035 112.88 85.6075 114.843 85.5725C116.795 85.5375 119.109 84.3675 121.815 81.1451L129.771 71.4662C131.914 68.9163 133.123 66.0554 133.363 63.3928C133.594 60.8117 132.944 58.1957 131.008 55.8363C127.238 51.2417 121.559 51.5566 117.25 56.4971L111.252 63.5949C110.33 64.6872 108.806 64.6949 107.852 63.6104C106.895 62.5221 106.871 60.7495 107.804 59.6573L113.894 52.5167V52.5128ZM104.955 68.5159C108.762 68.1739 112.206 69.9969 115.215 73.301L115.239 73.3282L116.966 75.3456C117.884 76.4184 117.884 78.1637 116.966 79.2482C116.045 80.3366 114.548 80.3521 113.618 79.2793L111.923 77.3202C109.592 74.7936 107.421 73.8996 105.35 74.1017C103.184 74.3155 100.61 75.777 97.633 79.1977L89.1295 89.0009C84.4249 94.4117 83.974 101.56 88.2277 106.159C90.4065 108.51 92.8406 109.214 95.2428 108.798C97.7049 108.37 100.335 106.726 102.657 103.958L108.682 96.7556C109.62 95.6323 111.14 95.5817 112.074 96.6351C113.008 97.6847 113.012 99.4416 112.078 100.565L106.109 107.764C103.204 111.258 99.6043 113.727 95.7815 114.419C91.843 115.13 87.8806 113.905 84.6005 110.399C77.8129 103.138 79.2055 92.1883 85.5063 85.0089L94.0936 75.2056C97.5492 71.268 101.176 68.8463 104.943 68.5043L104.955 68.5159Z" fill="#1587FA"/>
	</g>
	<g filter="url(#filter2_d_3770_65565)">
		<path d="M42.9963 95.4925C42.6309 95.1092 42.0462 95.4382 42.0462 96.0275V103.67C41.9805 103.645 41.911 103.63 41.8343 103.638C29.0673 104.61 25.0333 119.378 23.948 125.101C23.8201 125.777 24.518 126.139 24.9419 125.64C27.697 122.379 34.3217 115.557 41.8197 115.12C41.9001 115.116 41.9731 115.091 42.0426 115.054V123.941C42.0426 124.53 42.6272 124.798 42.9926 124.378L55.5404 109.961C55.8619 109.592 55.8619 108.974 55.5404 108.637L42.9926 95.4925H42.9963Z" fill="white" fill-opacity="0.9" shape-rendering="crispEdges"/>
	</g>
	<defs>
		<filter id="filter0_d_3770_65565" x="156.324" y="37.2818" width="40.1641" height="47.9605" filterUnits="userSpaceOnUse" color-interpolation-filters="sRGB">
			<feFlood flood-opacity="0" result="BackgroundImageFix"/>
			<feColorMatrix in="SourceAlpha" type="matrix" values="0 0 0 0 0 0 0 0 0 0 0 0 0 0 0 0 0 0 127 0" result="hardAlpha"/>
			<feOffset dy="4"/>
			<feGaussianBlur stdDeviation="5"/>
			<feComposite in2="hardAlpha" operator="out"/>
			<feColorMatrix type="matrix" values="0 0 0 0 0 0 0 0 0 0 0 0 0 0 0 0 0 0 0.05 0"/>
			<feBlend mode="normal" in2="BackgroundImageFix" result="effect1_dropShadow_3770_65565"/>
			<feBlend mode="normal" in="SourceGraphic" in2="effect1_dropShadow_3770_65565" result="shape"/>
		</filter>
		<filter id="filter1_d_3770_65565" x="70.1077" y="41.1125" width="77.7703" height="87.5" filterUnits="userSpaceOnUse" color-interpolation-filters="sRGB">
			<feFlood flood-opacity="0" result="BackgroundImageFix"/>
			<feColorMatrix in="SourceAlpha" type="matrix" values="0 0 0 0 0 0 0 0 0 0 0 0 0 0 0 0 0 0 127 0" result="hardAlpha"/>
			<feOffset dy="4"/>
			<feGaussianBlur stdDeviation="5"/>
			<feComposite in2="hardAlpha" operator="out"/>
			<feColorMatrix type="matrix" values="0 0 0 0 0 0 0 0 0 0 0 0 0 0 0 0 0 0 0.05 0"/>
			<feBlend mode="normal" in2="BackgroundImageFix" result="effect1_dropShadow_3770_65565"/>
			<feBlend mode="normal" in="SourceGraphic" in2="effect1_dropShadow_3770_65565" result="shape"/>
		</filter>
		<filter id="filter2_d_3770_65565" x="13.9326" y="89.3276" width="51.8489" height="50.5448" filterUnits="userSpaceOnUse" color-interpolation-filters="sRGB">
			<feFlood flood-opacity="0" result="BackgroundImageFix"/>
			<feColorMatrix in="SourceAlpha" type="matrix" values="0 0 0 0 0 0 0 0 0 0 0 0 0 0 0 0 0 0 127 0" result="hardAlpha"/>
			<feOffset dy="4"/>
			<feGaussianBlur stdDeviation="5"/>
			<feComposite in2="hardAlpha" operator="out"/>
			<feColorMatrix type="matrix" values="0 0 0 0 0 0 0 0 0 0 0 0 0 0 0 0 0 0 0.05 0"/>
			<feBlend mode="normal" in2="BackgroundImageFix" result="effect1_dropShadow_3770_65565"/>
			<feBlend mode="normal" in="SourceGraphic" in2="effect1_dropShadow_3770_65565" result="shape"/>
		</filter>
	</defs>
</svg>
