<svg width="86" height="22" viewBox="0 0 86 22" fill="none" xmlns="http://www.w3.org/2000/svg">
<path fill-rule="evenodd" clip-rule="evenodd" d="M3.89346 7.79238V0H0.5V21.45H3.57227L3.73984 19.8161L3.90794 20.0228C4.881 21.1605 6.20283 21.7293 7.87344 21.7293C9.70749 21.7293 11.1482 21.0357 12.1956 19.6485C13.1847 18.3384 13.7068 16.6007 13.7618 14.4352L13.7666 14.0486V13.8531L13.7617 13.4485C13.7065 11.1844 13.1821 9.4061 12.1886 8.11357C11.1366 6.74502 9.68887 6.06074 7.84551 6.06074C6.28583 6.06074 5.02715 6.57205 4.06949 7.59465L3.89346 7.79238ZM27.6407 8.02979C26.5188 6.71709 24.9292 6.06074 22.8717 6.06074C21.5776 6.06074 20.4046 6.39124 19.3525 7.05225C18.3005 7.71325 17.4836 8.63726 16.9017 9.82427C16.3683 10.9124 16.0794 12.1354 16.035 13.4934L16.0289 13.8671V14.286L16.0345 14.638C16.1011 16.7277 16.7672 18.4141 18.0329 19.6974C19.3688 21.052 21.1121 21.7293 23.2627 21.7293C24.5195 21.7293 25.653 21.4803 26.6631 20.9822C27.5722 20.5339 28.3173 19.9216 28.8984 19.1453L29.086 18.8805L27.2566 17.1349L27.0811 17.3501C26.1291 18.4635 24.9215 19.0201 23.4582 19.0201C22.3503 19.0201 21.431 18.657 20.7001 17.9309C20.0255 17.2605 19.6187 16.3681 19.4795 15.2536L19.4503 14.9703H29.3234V13.6018L29.3188 13.227C29.2628 11.0058 28.7035 9.27339 27.6407 8.02979ZM56.1499 6.06074C57.9188 6.06074 59.3292 6.50529 60.3812 7.39438C61.3675 8.22791 61.9037 9.37851 61.9899 10.8462L62.0012 11.1439V17.9588L62.0051 18.2929C62.0314 19.3765 62.1875 20.2732 62.4736 20.9829L62.5737 21.2126V21.45H59.1105L59.0555 21.3333C58.9292 21.041 58.8172 20.6098 58.7194 20.0396C57.6395 21.166 56.3175 21.7293 54.7534 21.7293C53.2359 21.7293 51.9977 21.2964 51.0388 20.4306C50.0798 19.5647 49.6004 18.4941 49.6004 17.2187C49.6004 15.608 50.1986 14.3722 51.3949 13.511C52.5208 12.7005 54.1024 12.2714 56.1396 12.2237L56.527 12.2192H58.6077V11.2277L58.6012 10.9978C58.5618 10.322 58.3452 9.7726 57.9514 9.34946C57.5138 8.87931 56.8481 8.64424 55.9544 8.64424C55.1817 8.64424 54.5486 8.83742 54.0552 9.22378C53.6111 9.5715 53.3668 10.0041 53.3224 10.5215L53.315 10.6971H49.9216L49.9298 10.4501C49.9793 9.71402 50.2512 9.02129 50.7455 8.37192C51.2948 7.65041 52.0419 7.08483 52.9869 6.6752C53.9318 6.26556 54.9862 6.06074 56.1499 6.06074ZM85.4621 21.45V0H82.0686V7.73652L81.8913 7.54517C80.9285 6.55555 79.6935 6.06074 78.1864 6.06074C76.371 6.06074 74.9233 6.76597 73.8434 8.17642C72.7634 9.58687 72.2234 11.4558 72.2234 13.7833C72.2234 16.2318 72.7704 18.1683 73.8643 19.5927C74.9582 21.0171 76.3896 21.7293 78.1585 21.7293C79.7532 21.7293 81.0469 21.185 82.0397 20.0964L82.2223 19.8859L82.3898 21.45H85.4621ZM40.0624 1.11719L40.4367 1.12266C42.533 1.1847 44.212 1.77405 45.4738 2.89072C46.8097 4.07308 47.4777 5.63714 47.4777 7.58291C47.4777 9.57523 46.8237 11.1253 45.5157 12.2332C44.2803 13.2795 42.5778 13.8318 40.4082 13.8899L40.0205 13.895H35.8171V21.45H32.284V1.11719H40.0624ZM69.1651 21.45V6.34004H65.7717V21.45H69.1651ZM58.6077 14.3559H56.7783L56.4938 14.3597C55.378 14.3908 54.5278 14.6083 53.9435 15.0122C53.3104 15.4498 52.9938 16.0689 52.9938 16.8695C52.9938 17.5212 53.2103 18.0403 53.6432 18.4266C54.0761 18.813 54.6557 19.0062 55.3818 19.0062C56.0521 19.0062 56.6829 18.8432 57.2741 18.5174C57.7914 18.2323 58.1964 17.8616 58.4891 17.4054L58.6077 17.2047V14.3559ZM3.99117 10.5694C4.59928 9.41629 5.60011 8.83975 6.99365 8.83975C8.09222 8.83975 8.93011 9.24938 9.50732 10.0687C10.0461 10.8333 10.3334 11.9548 10.3693 13.4331L10.3731 13.7554V14.1883L10.3657 14.5031C10.3136 15.9473 10.0181 17.0387 9.47939 17.7772C8.90218 18.5686 8.08291 18.9643 7.02158 18.9643C5.61922 18.9643 4.60957 18.3752 3.99264 17.197L3.89346 16.9952V10.7669L3.99117 10.5694ZM79.0522 8.83975C77.9537 8.83975 77.1065 9.27498 76.5107 10.1455C75.9148 11.0159 75.6169 12.3263 75.6169 14.0766C75.6169 15.6127 75.9125 16.8113 76.5037 17.6725C77.0948 18.5337 77.9351 18.9643 79.0243 18.9643C80.3344 18.9643 81.3124 18.412 81.9581 17.3076L82.0687 17.1069V10.6552L81.9612 10.4591C81.332 9.37952 80.3624 8.83975 79.0522 8.83975ZM20.6024 9.76143C21.175 9.10973 21.9267 8.78389 22.8577 8.78389C23.798 8.78389 24.5335 9.07482 25.0642 9.65669C25.5506 10.1901 25.8454 10.9562 25.9485 11.955L25.9719 12.2332V12.4846H19.5062L19.55 12.199C19.7268 11.1713 20.0775 10.3588 20.6024 9.76143ZM40.1602 3.96602H35.8171V11.0602H40.0624C41.3192 11.0602 42.2782 10.7646 42.9392 10.1734C43.6002 9.58221 43.9307 8.72803 43.9307 7.61084C43.9307 6.51227 43.5955 5.63481 42.9252 4.97847C42.3064 4.37261 41.4735 4.03844 40.4264 3.97597L40.1602 3.96602ZM68.8998 1.11719C68.5647 0.772721 68.0898 0.600488 67.4754 0.600488C66.8609 0.600488 66.3885 0.772721 66.058 1.11719C65.7275 1.46165 65.5622 1.89456 65.5622 2.41592C65.5622 2.92796 65.7275 3.35389 66.058 3.6937C66.3885 4.03351 66.8609 4.20342 67.4754 4.20342C68.0898 4.20342 68.5647 4.03351 68.8998 3.6937C69.235 3.35389 69.4025 2.92796 69.4025 2.41592C69.4025 1.89456 69.235 1.46165 68.8998 1.11719Z" fill="white"/>
</svg>
