<svg width="113" height="26" viewBox="0 0 113 26" fill="none" xmlns="http://www.w3.org/2000/svg">
<path d="M58.6809 7.15494H55.0484L52.4775 11.5638H51.1542L51.1117 2.02222H47.6729V19.2546H51.1117L51.1542 14.525H52.4691L55.8825 19.2546H59.6923L55.242 12.9868L58.6809 7.15494Z" fill="black"/>
<path d="M84.7086 12.8306C84.0103 12.3894 83.2526 12.0434 82.4582 11.8024L81.6995 11.5228L81.4973 11.4487C81.025 11.276 80.5279 11.095 80.5109 10.6262C80.5066 10.4873 80.5379 10.3496 80.6032 10.2259C80.6679 10.1022 80.764 9.99655 80.8818 9.91876C81.1312 9.7513 81.423 9.65447 81.7249 9.63913C82.3834 9.59477 83.0361 9.78468 83.5624 10.1738L83.6548 10.2313L85.4923 8.16674L85.3994 8.09277C85.1707 7.89368 84.9224 7.71736 84.6582 7.56629C84.1838 7.30168 83.6686 7.11549 83.1326 7.0152C82.3601 6.8548 81.5615 6.8548 80.7895 7.0152C80.0424 7.11167 79.334 7.39501 78.7328 7.83776C78.3481 8.1314 78.0266 8.49614 77.7862 8.91103C77.5464 9.32596 77.3925 9.78298 77.3336 10.256C77.228 11.1097 77.4503 11.9711 77.957 12.6743C78.6304 13.402 79.5107 13.9175 80.4854 14.1549L80.6377 14.2043L80.9831 14.3194C82.2306 14.7307 82.5845 14.8952 82.7867 15.142C82.8811 15.2661 82.9337 15.4154 82.9384 15.5697C82.9384 16.1537 82.2051 16.3922 81.7079 16.5403C81.3604 16.6041 81.0028 16.5975 80.6579 16.5211C80.3124 16.4447 79.9877 16.3001 79.7022 16.0962C79.2395 15.7946 78.8442 15.4058 78.5386 14.9528C78.3449 15.1502 76.44 16.9845 76.4735 17.0174L76.5329 17.0996C77.4503 18.2211 78.7365 18.9996 80.1739 19.3041C80.5019 19.366 80.8346 19.4073 81.1688 19.4275H81.5143C82.6498 19.4507 83.7619 19.1129 84.6831 18.4651C85.3066 18.0348 85.7846 17.4337 86.0574 16.7377C86.2229 16.2705 86.2813 15.7735 86.2288 15.2818C86.1768 14.7901 86.0144 14.3156 85.7539 13.8917C85.487 13.469 85.1309 13.1071 84.7086 12.8306Z" fill="black"/>
<path d="M95.8174 12.8305C95.1218 12.3893 94.3678 12.0434 93.5761 11.8023L92.8089 11.5227L92.6152 11.4487C92.1345 11.2759 91.6458 11.0949 91.6203 10.6261C91.6224 10.4875 91.658 10.3513 91.7238 10.2285C91.7901 10.1056 91.8845 9.99956 91.9997 9.91869C92.2491 9.75118 92.5404 9.65439 92.8428 9.63906C93.5008 9.59619 94.1529 9.78593 94.6798 10.1737L94.7642 10.2313L96.6017 8.16666L96.5173 8.09259C96.287 7.89165 96.0361 7.71522 95.7676 7.56622C95.2964 7.30192 94.7838 7.11568 94.25 7.01508C93.4748 6.85451 92.6741 6.85451 91.8989 7.01508C91.1528 7.11441 90.445 7.39749 89.8417 7.83763C89.4549 8.12851 89.1307 8.49119 88.8871 8.9048C88.6446 9.31841 88.4876 9.77479 88.426 10.2477C88.3156 11.1016 88.538 11.9648 89.0495 12.666C89.7228 13.3937 90.6031 13.9092 91.5784 14.1466L91.7216 14.196L92.0671 14.3111C93.323 14.7224 93.677 14.8869 93.8791 15.1337C93.9762 15.2557 94.0272 15.4069 94.0224 15.5614C94.0224 16.1454 93.2976 16.3839 92.8004 16.532C92.4512 16.5959 92.0925 16.5894 91.7461 16.5131C91.3996 16.4367 91.0727 16.292 90.7862 16.0878C90.3277 15.7819 89.933 15.3939 89.6225 14.9445C89.4374 15.1419 87.5325 16.9762 87.5579 17.0091L87.6248 17.0913C88.5433 18.2127 89.829 18.9913 91.2664 19.2958C91.5948 19.3582 91.927 19.3995 92.2613 19.4191H92.6067C93.7422 19.4424 94.8544 19.1045 95.7755 18.4568C96.399 18.0266 96.8771 17.4253 97.1498 16.7294C97.3154 16.2622 97.3737 15.7652 97.3212 15.2735C97.2692 14.7818 97.1068 14.3073 96.8463 13.8834C96.5831 13.4658 96.2324 13.107 95.8174 12.8305Z" fill="black"/>
<path fill-rule="evenodd" clip-rule="evenodd" d="M69.975 8.33942V7.15499H73.5487V19.23H69.975V18.1689H69.8403C68.8321 19.0214 67.5496 19.5017 66.2156 19.5261C65.4081 19.5464 64.6058 19.3967 63.8624 19.0873C63.119 18.7778 62.4531 18.316 61.9087 17.733C60.7811 16.4709 60.1794 14.8419 60.2229 13.1678C60.1821 11.5214 60.7848 9.92155 61.9087 8.69318C62.4663 8.11057 63.1434 7.64904 63.8953 7.33863C64.6472 7.02828 65.4585 6.87599 66.2751 6.8918C67.6069 6.89944 68.8825 7.41966 69.8238 8.33942H69.975ZM69.2163 15.9069C69.8551 15.1585 70.1883 14.2067 70.1523 13.2336C70.1878 12.2581 69.8551 11.3038 69.2163 10.5521C68.9165 10.2168 68.5434 9.95068 68.1253 9.77292C67.7072 9.59511 67.2535 9.51006 66.7972 9.5239C66.3531 9.51748 65.9121 9.60705 65.5073 9.78624C65.1019 9.96537 64.7427 10.2298 64.454 10.5603C63.8284 11.2893 63.4984 12.2172 63.527 13.1678C63.483 14.1479 63.8067 15.1101 64.4376 15.874C64.7204 16.2097 65.0769 16.4787 65.4813 16.661C65.8856 16.8433 66.3271 16.9342 66.7723 16.9268C67.2312 16.942 67.6886 16.8585 68.1105 16.6822C68.5328 16.506 68.9106 16.2413 69.2163 15.9069Z" fill="black"/>
<path fill-rule="evenodd" clip-rule="evenodd" d="M108.848 8.33945V7.15497H112.422V19.23H108.848V18.1689H108.713C107.705 19.0214 106.423 19.5017 105.089 19.5261C104.281 19.5463 103.479 19.3966 102.736 19.0872C101.992 18.7778 101.326 18.3159 100.782 17.7329C99.6543 16.4709 99.0526 14.8418 99.0961 13.1678C99.0552 11.5214 99.658 9.92153 100.782 8.69311C101.342 8.11113 102.02 7.65013 102.773 7.33978C103.527 7.02953 104.339 6.87693 105.156 6.89173C106.485 6.90155 107.757 7.42165 108.696 8.33945H108.848ZM108.089 15.9069C108.731 15.1605 109.065 14.2073 109.025 13.2336C109.065 12.2575 108.731 11.3018 108.089 10.5521C107.789 10.2168 107.417 9.95066 106.998 9.77285C106.58 9.59509 106.127 9.51004 105.671 9.52394C105.226 9.51746 104.785 9.60703 104.38 9.78622C103.975 9.96541 103.616 10.2297 103.327 10.5603C102.702 11.2893 102.372 12.2172 102.4 13.1678C102.356 14.1479 102.68 15.1101 103.31 15.874C103.594 16.2097 103.95 16.4787 104.354 16.661C104.759 16.8433 105.2 16.9342 105.645 16.9269C106.104 16.9419 106.561 16.8584 106.984 16.6822C107.406 16.5059 107.784 16.2412 108.089 15.9069Z" fill="black"/>
<path fill-rule="evenodd" clip-rule="evenodd" d="M10.8765 13C10.8765 5.84178 16.7783 0 24.1976 0C31.5327 0 37.5188 5.84178 37.5188 13C37.5188 20.1582 31.5327 26 24.1976 26C16.8626 26 10.8765 20.2405 10.8765 13ZM19.2233 12.9177C19.2233 15.5507 21.4997 17.7722 24.1976 17.7722C26.8956 17.7722 29.0877 15.6329 29.172 12.9177C29.172 10.2848 26.8956 8.06329 24.1976 8.06329C21.4997 8.06329 19.2233 10.2848 19.2233 12.9177Z" fill="url(#paint0_linear)"/>
<path d="M10.7918 3.70251V22.6266H6.07036L0 3.70251H10.7918Z" fill="url(#paint1_linear)"/>
<defs>
<linearGradient id="paint0_linear" x1="10.8765" y1="0" x2="10.8765" y2="26" gradientUnits="userSpaceOnUse">
<stop stop-color="#0160D1"/>
<stop offset="1" stop-color="#00479C"/>
</linearGradient>
<linearGradient id="paint1_linear" x1="0" y1="3.70251" x2="0" y2="22.6266" gradientUnits="userSpaceOnUse">
<stop stop-color="#0160D1"/>
<stop offset="1" stop-color="#00479C"/>
</linearGradient>
</defs>
</svg>
