<svg width="31" height="38" viewBox="0 0 31 38" fill="none" xmlns="http://www.w3.org/2000/svg">
<path fill-rule="evenodd" clip-rule="evenodd" d="M26.9619 33.6562C26.9619 33.9576 26.715 34.1998 26.4135 34.1998H4.44053C4.1367 34.1998 3.89221 33.9576 3.89221 33.6562V4.34381C3.89221 4.04472 4.1367 3.80024 4.44053 3.80024H14.8775C15.1814 3.80024 15.4258 4.04472 15.4258 4.34381V14.6598C15.4258 14.9588 15.6727 15.2009 15.9765 15.2009H26.4135C26.715 15.2009 26.9619 15.4454 26.9619 15.7445V33.6562ZM19.2712 5.8677C19.2712 5.75851 19.3638 5.66594 19.4777 5.66594C19.5323 5.66594 19.5845 5.6873 19.6225 5.72528L25.0155 11.0542C25.0962 11.1325 25.0962 11.2607 25.0155 11.3414C24.9751 11.3793 24.9253 11.4007 24.8683 11.4007H19.4777C19.3638 11.4007 19.2712 11.3081 19.2712 11.1966V5.8677ZM30.0002 10.6055L19.8741 0.59579C19.4896 0.216003 18.965 0 18.4167 0H2.10722C0.967857 0 0.046875 0.911487 0.046875 2.0366V35.9658C0.046875 37.0885 0.967857 38 2.10722 38H28.7469C29.8815 38 30.8048 37.0885 30.8048 35.9658V12.5258C30.8048 11.8042 30.5152 11.1135 30.0002 10.6055ZM22.4282 19.0012H8.42116C8.04375 19.0012 7.73518 19.305 7.73518 19.6801V22.1226C7.73518 22.4952 8.04375 22.8014 8.42116 22.8014H22.4282C22.8079 22.8014 23.1165 22.4952 23.1165 22.1226V19.6801C23.1165 19.305 22.8079 19.0012 22.4282 19.0012ZM8.56121 15.2009H10.7569C11.2126 15.2009 11.5805 14.8354 11.5805 14.3844V12.2149C11.5805 11.7639 11.2126 11.4007 10.7569 11.4007H8.56121C8.10547 11.4007 7.73518 11.7639 7.73518 12.2149V14.3844C7.73518 14.8354 8.10547 15.2009 8.56121 15.2009ZM22.4282 26.6017H8.42116C8.04375 26.6017 7.73518 26.9031 7.73518 27.2782V29.723C7.73518 30.0957 8.04375 30.4019 8.42116 30.4019H22.4282C22.8079 30.4019 23.1165 30.0957 23.1165 29.723V27.2782C23.1165 26.9031 22.8079 26.6017 22.4282 26.6017Z" fill="white"/>
</svg>
