<svg width="136" height="31" viewBox="0 0 136 31" fill="none" xmlns="http://www.w3.org/2000/svg">
<path fill-rule="evenodd" clip-rule="evenodd" d="M2.80531 0.408693C2.80531 0.0899076 3.01232 -0.063275 3.27578 0.0244192L3.35636 0.0580291L19.2865 7.52217C19.5495 7.65367 19.9276 7.6701 20.2193 7.57148L20.3385 7.52217L35.8178 0.0580291C36.0883 -0.0321417 36.3183 0.0805718 36.3616 0.323131L36.3689 0.408693V3.2641L39.074 1.96163C39.2994 1.87146 39.5249 1.98418 39.6042 2.22674L39.625 2.3123V20.9977C39.625 21.3094 39.4271 21.6211 39.1721 21.7921L39.074 21.8493L20.3385 30.2652C20.1194 30.3967 19.7084 30.4132 19.4078 30.3146L19.2865 30.2652L0.551044 21.8493C0.283871 21.7157 0.0562794 21.3842 0.00900196 21.1011L0 20.9977V2.3123C0 2.04179 0.202884 1.893 0.462576 1.93899L0.551044 1.96163L2.80531 3.06372V0.408693ZM88.7681 25.2558H89.1689C89.219 25.2558 89.2691 25.2558 89.2691 25.3058L89.3192 25.3559V25.4561L87.9666 28.9628L87.5157 30.2652C87.5157 30.2962 87.4966 30.308 87.4702 30.3244C87.4538 30.3345 87.4347 30.3463 87.4156 30.3654C87.3972 30.3654 87.3722 30.3721 87.3404 30.3807C87.2854 30.3954 87.2103 30.4155 87.115 30.4155H86.9647C86.9271 30.4155 86.9177 30.4155 86.8943 30.3944L86.8144 30.3153V30.2151L87.3154 29.0129L87.2152 28.9127L85.9628 25.5563C85.9628 25.5313 85.9503 25.5062 85.9378 25.4812C85.9252 25.4561 85.9127 25.4311 85.9127 25.406C85.9127 25.381 85.9127 25.3685 85.919 25.3622C85.9252 25.3559 85.9378 25.3559 85.9628 25.3559L85.9941 25.3309C86.0129 25.3184 86.0379 25.3058 86.063 25.3058H86.5639C86.614 25.3058 86.614 25.3559 86.614 25.3559C86.614 25.3559 86.614 25.406 86.6641 25.4561L87.666 28.2614L88.6178 25.406C88.6178 25.3559 88.6679 25.3058 88.6679 25.3058C88.6679 25.3058 88.718 25.3058 88.7681 25.2558ZM79.8011 25.2057L79.6565 25.2065C79.4705 25.2097 79.3102 25.2257 79.1499 25.3058C78.9495 25.3559 78.7992 25.5062 78.649 25.6565C78.4987 25.8068 78.3985 26.0072 78.2983 26.2577C78.1981 26.5081 78.148 26.8087 78.148 27.1594C78.148 27.4599 78.1981 27.7104 78.2482 27.9609C78.2983 28.2114 78.3985 28.4117 78.5488 28.562C78.6991 28.7123 78.8493 28.8125 79.0497 28.9127L79.1511 28.9668C79.3002 29.0309 79.5006 29.063 79.701 29.063C79.751 29.063 79.8137 29.0504 79.8763 29.0379C79.9389 29.0254 80.0015 29.0129 80.0516 29.0129C80.1017 28.9878 80.1518 28.9753 80.2019 28.9628C80.252 28.9502 80.3021 28.9377 80.3522 28.9127C80.4023 28.8876 80.4398 28.8626 80.4774 28.8376L80.4774 28.8375L80.4775 28.8375C80.515 28.8125 80.5526 28.7874 80.6027 28.7624C80.6277 28.7373 80.6528 28.7248 80.6778 28.7123C80.7029 28.6998 80.7279 28.6873 80.7529 28.6622C80.7529 28.6372 80.7655 28.6121 80.778 28.5933L80.803 28.562L80.8035 28.287C80.8058 28.2475 80.8197 28.2197 80.9032 28.2614V28.1613C80.8531 28.1613 80.8531 28.1112 80.8531 28.1112L80.7655 28.1119C80.7279 28.1143 80.6903 28.1237 80.6528 28.1613C80.6027 28.2114 80.5526 28.2614 80.4524 28.3115L80.1518 28.4618C80.0516 28.5119 79.9013 28.5119 79.751 28.5119C79.6008 28.5119 79.4505 28.4618 79.3503 28.4117C79.2501 28.3616 79.1499 28.3115 79.0497 28.1613C78.9495 28.011 78.8995 27.8607 78.8494 27.7105L78.8493 27.7104C78.7992 27.51 78.7992 27.3597 78.7992 27.1093C78.7992 26.6584 78.8994 26.3077 79.0497 26.0573C79.2 25.8068 79.4505 25.7066 79.751 25.7066C79.9013 25.7066 80.0516 25.7066 80.1518 25.7567C80.2269 25.7817 80.277 25.8068 80.3209 25.8318L80.5189 25.9446C80.5776 25.9821 80.6152 26.0197 80.6527 26.0572L80.6528 26.0573C80.7029 26.1074 80.7529 26.1074 80.803 26.1074L80.8398 26.1066C80.8751 26.1042 80.9032 26.0948 80.9032 26.0573C80.9533 26.0072 80.9533 25.9571 80.9533 25.8569V25.6565C80.9065 25.6565 80.9034 25.6127 80.9026 25.6006L80.9024 25.5986C80.9001 25.5845 80.8907 25.5563 80.8531 25.5563L80.8156 25.5477C80.803 25.5422 80.7905 25.5344 80.778 25.525L80.7029 25.4561C80.6528 25.4311 80.6152 25.4186 80.5776 25.406C80.54 25.3935 80.5025 25.381 80.4524 25.3559C80.3522 25.3058 80.252 25.2558 80.1518 25.2558C80.0015 25.2057 79.9013 25.2057 79.8011 25.2057ZM83.7141 25.2065L83.8588 25.2057C83.959 25.2057 84.0592 25.2057 84.2095 25.2558C84.2596 25.2558 84.3097 25.2683 84.3598 25.2871L84.5101 25.3559C84.5602 25.381 84.5977 25.3935 84.6353 25.406C84.6729 25.4186 84.7104 25.4311 84.7605 25.4561L84.8357 25.525C84.8607 25.5438 84.8858 25.5563 84.9108 25.5563L84.9609 25.6064L84.9672 25.6315C84.9734 25.644 84.986 25.6565 85.011 25.6565V25.8569C85.011 25.9571 85.011 26.0072 84.9609 26.0573C84.9609 26.0948 84.9327 26.1042 84.8975 26.1066L84.8607 26.1074C84.8106 26.1074 84.7605 26.1074 84.7104 26.0573L84.7104 26.0572C84.6728 26.0197 84.6353 25.9821 84.5766 25.9446L84.5101 25.907C84.4767 25.8903 84.4488 25.8736 84.421 25.8569C84.3653 25.8235 84.3097 25.7901 84.2095 25.7567C84.1093 25.7066 83.959 25.7066 83.8087 25.7066C83.5082 25.7066 83.2577 25.8068 83.1074 26.0573C82.9571 26.3077 82.8569 26.6584 82.8569 27.1093L82.8601 27.3714C82.8649 27.488 82.877 27.5902 82.907 27.7104C82.9571 27.8607 83.0072 28.011 83.1074 28.1613C83.2076 28.2614 83.3078 28.3616 83.408 28.4117C83.5082 28.4618 83.6584 28.5119 83.8087 28.5119C83.959 28.5119 84.1093 28.5119 84.2095 28.4618L84.5101 28.3115C84.6103 28.2614 84.6603 28.2114 84.7104 28.1613C84.748 28.1237 84.7856 28.1143 84.8232 28.1119L84.9108 28.1112L84.9171 28.1362C84.9233 28.1487 84.9359 28.1613 84.9609 28.1613V28.2614C84.8607 28.2114 84.8607 28.2614 84.8607 28.3115V28.562L84.8357 28.5933C84.8232 28.6121 84.8106 28.6372 84.8106 28.6622C84.7856 28.6873 84.7605 28.6998 84.7355 28.7123C84.7104 28.7248 84.6854 28.7373 84.6603 28.7624C84.6103 28.7874 84.5727 28.8125 84.5351 28.8375C84.4975 28.8626 84.46 28.8876 84.4099 28.9127C84.3598 28.9377 84.3097 28.9502 84.2596 28.9628C84.2095 28.9753 84.1594 28.9878 84.1093 29.0129C84.0592 29.0129 83.9966 29.0254 83.934 29.0379C83.8714 29.0504 83.8087 29.063 83.7586 29.063C83.5583 29.063 83.3579 29.0309 83.2088 28.9668L83.1074 28.9127C82.907 28.8125 82.7567 28.7123 82.6065 28.562C82.4562 28.4117 82.356 28.2114 82.3059 27.9609C82.2558 27.7104 82.2057 27.4599 82.2057 27.1594C82.2057 26.8087 82.2558 26.5081 82.356 26.2577C82.4562 26.0072 82.5564 25.8068 82.7066 25.6565C82.8569 25.5062 83.0072 25.3559 83.2076 25.3058C83.3679 25.2257 83.5282 25.2097 83.7141 25.2065ZM52.8 25.2057L52.6553 25.2065C52.4694 25.2097 52.3091 25.2257 52.1488 25.3058C51.9484 25.3559 51.7981 25.5062 51.6478 25.6565C51.4975 25.8068 51.3973 26.0072 51.2972 26.2577C51.197 26.5081 51.1469 26.8087 51.1469 27.1594C51.1469 27.4599 51.197 27.7104 51.2471 27.9609C51.2972 28.2114 51.3973 28.4117 51.5476 28.562C51.6979 28.7123 51.8482 28.8125 52.0486 28.9127L52.15 28.9668C52.2991 29.0309 52.4994 29.063 52.6998 29.063C52.7499 29.063 52.8125 29.0504 52.8751 29.0379C52.9378 29.0254 53.0004 29.0129 53.0505 29.0129C53.1006 28.9878 53.1507 28.9753 53.2008 28.9628C53.2509 28.9503 53.3009 28.9377 53.351 28.9127C53.4011 28.8876 53.4387 28.8626 53.4763 28.8375C53.5139 28.8125 53.5514 28.7874 53.6015 28.7624C53.6266 28.7373 53.6516 28.7248 53.6767 28.7123C53.7017 28.6998 53.7268 28.6873 53.7518 28.6622C53.7518 28.6372 53.7643 28.6121 53.7769 28.5933L53.8019 28.562L53.8024 28.287C53.8047 28.2475 53.8186 28.2197 53.9021 28.2614V28.1613C53.877 28.1613 53.8645 28.1487 53.8583 28.1362L53.852 28.1112L53.7643 28.1119C53.7268 28.1143 53.6892 28.1237 53.6516 28.1613C53.6015 28.2114 53.5514 28.2614 53.4512 28.3115L53.1507 28.4618C53.0505 28.5119 52.9002 28.5119 52.7499 28.5119C52.5996 28.5119 52.4493 28.4618 52.3491 28.4117C52.249 28.3616 52.1488 28.2614 52.0486 28.1613C51.9484 28.011 51.8983 27.8607 51.8482 27.7104C51.7981 27.51 51.7981 27.3597 51.7981 27.1093C51.7981 26.6584 51.8983 26.3077 52.0486 26.0573C52.1989 25.8068 52.4493 25.7066 52.7499 25.7066C52.9002 25.7066 53.0505 25.7066 53.1507 25.7567C53.2258 25.7817 53.2759 25.8068 53.3197 25.8318L53.5178 25.9446C53.5765 25.9821 53.614 26.0197 53.6516 26.0573C53.7017 26.1074 53.7518 26.1074 53.8019 26.1074L53.8387 26.1066C53.8739 26.1042 53.9021 26.0948 53.9021 26.0573C53.9522 26.0072 53.9522 25.9571 53.9522 25.8569V25.6565C53.9021 25.6565 53.9021 25.6064 53.9021 25.6064C53.9021 25.6064 53.9021 25.5563 53.852 25.5563L53.8144 25.5477C53.8019 25.5422 53.7894 25.5344 53.7769 25.525L53.7017 25.4561C53.6516 25.4311 53.614 25.4186 53.5765 25.406C53.5389 25.3935 53.5013 25.381 53.4512 25.3559C53.351 25.3058 53.2509 25.2558 53.1507 25.2558C53.0004 25.2057 52.9002 25.2057 52.8 25.2057ZM74.8918 25.3058C75.1423 25.3058 75.3427 25.3559 75.5431 25.406C75.6978 25.4447 75.7927 25.5132 75.8972 25.5886C75.928 25.6108 75.9597 25.6337 75.9939 25.6565C76.0941 25.7567 76.1943 25.907 76.2444 26.0573C76.282 26.17 76.2914 26.3109 76.2937 26.4588L76.2945 28.8626H76.4448C76.4448 28.8876 76.4448 28.9002 76.4385 28.9064C76.4323 28.9127 76.4197 28.9127 76.3947 28.9127L76.3634 28.9377C76.3446 28.9502 76.3195 28.9628 76.2945 28.9628H75.9939C75.9564 28.9628 75.947 28.9628 75.9235 28.9416L75.8436 28.8626V28.5119C75.6934 28.6622 75.5431 28.8125 75.3427 28.9127C75.1423 29.0129 74.9419 29.063 74.7416 29.063C74.5412 29.063 74.3909 29.063 74.2406 29.0129C74.0903 28.9628 73.94 28.9127 73.8398 28.8125C73.7397 28.7123 73.6395 28.6121 73.5894 28.4618C73.5393 28.3115 73.4892 28.1613 73.4892 28.011C73.4892 27.8106 73.5393 27.6603 73.5894 27.51C73.6896 27.3597 73.7897 27.2595 73.94 27.1594C74.0903 27.0592 74.2907 27.0091 74.4911 26.959C74.6514 26.9189 74.8438 26.9109 75.0682 26.9093L75.7435 26.9089V26.6584C75.7435 26.5457 75.7435 26.4612 75.7223 26.3837L75.6934 26.3077C75.6784 26.2778 75.6679 26.2479 75.6579 26.2194C75.6343 26.1522 75.6134 26.0924 75.5431 26.0573C75.493 26.0072 75.3928 25.9571 75.2926 25.907C75.2175 25.8694 75.1141 25.86 75.0249 25.8577L74.9419 25.8569C74.7916 25.8569 74.6414 25.8569 74.4911 25.907L74.297 25.9759C74.2406 25.9947 74.1905 26.0072 74.1404 26.0072L74.0152 26.0761C73.9776 26.0948 73.94 26.1074 73.8899 26.1074C73.8524 26.1449 73.8148 26.1543 73.7772 26.1567L73.6896 26.1575L73.6395 26.1074L73.6332 26.0761C73.6269 26.0573 73.6144 26.0322 73.5894 26.0072V25.7567C73.5894 25.7317 73.6019 25.7191 73.6144 25.7066C73.6269 25.6941 73.6395 25.6816 73.6395 25.6565C73.6704 25.6255 73.7014 25.6137 73.7442 25.5974L73.7443 25.5973L73.7454 25.5969C73.7542 25.5936 73.7635 25.59 73.7733 25.5861L73.8398 25.5563C73.94 25.5062 74.0402 25.4561 74.1404 25.4561C74.1905 25.4311 74.2531 25.4186 74.3157 25.406C74.3784 25.3935 74.441 25.381 74.4911 25.3559C74.5662 25.3559 74.6288 25.3434 74.6915 25.3309C74.7541 25.3184 74.8167 25.3058 74.8918 25.3058ZM57.559 25.2558C57.3586 25.1556 57.1583 25.1055 56.8577 25.1055C56.6072 25.1055 56.3567 25.1556 56.1564 25.2558C55.9059 25.3559 55.7556 25.5062 55.6053 25.6565C55.455 25.8068 55.3548 26.0072 55.2547 26.2576C55.2046 26.5081 55.1545 26.7586 55.1545 27.0592C55.1545 27.4098 55.1545 27.6603 55.2547 27.9108C55.3548 28.1613 55.455 28.3616 55.6053 28.5119C55.7556 28.6622 55.956 28.7624 56.1564 28.8626C56.3567 28.9127 56.6072 28.9628 56.9078 28.9628C56.9829 28.9628 57.0581 28.9502 57.1332 28.9377C57.2084 28.9252 57.2835 28.9127 57.3586 28.9127C57.4276 28.8897 57.4965 28.8773 57.5606 28.8657C57.6362 28.852 57.7052 28.8396 57.7594 28.8125C57.8033 28.7905 57.8473 28.7782 57.887 28.767C57.9378 28.7528 57.9817 28.7404 58.0099 28.7123C58.06 28.7123 58.0975 28.6998 58.1226 28.6873L58.1602 28.6622C58.2102 28.6622 58.2102 28.6121 58.2102 28.6121V28.2113C58.2102 28.1613 58.1602 28.1613 58.1602 28.1613L58.0725 28.162C58.0349 28.1644 57.9973 28.1738 57.9598 28.2113C57.9097 28.2364 57.8721 28.2489 57.8345 28.2614C57.797 28.274 57.7594 28.2865 57.7093 28.3115L57.6334 28.3413C57.6012 28.351 57.5678 28.3584 57.5316 28.3663C57.4808 28.3774 57.4245 28.3898 57.3586 28.4117C57.2084 28.4618 57.0581 28.4618 56.9078 28.4618C56.6573 28.4618 56.507 28.4117 56.3567 28.3616C56.2065 28.3115 56.1063 28.2113 56.0061 28.1112C55.9059 28.011 55.8558 27.8607 55.8057 27.7104C55.7556 27.5601 55.7556 27.4098 55.7556 27.2095L58.0975 27.2087C58.1351 27.2063 58.1727 27.1969 58.2102 27.1594C58.2603 27.1093 58.3104 27.0592 58.3104 26.959H58.4106V26.8087C58.4106 26.5582 58.3605 26.3578 58.3104 26.1575L58.2796 26.0376C58.2363 25.8789 58.1802 25.7266 58.06 25.6064C57.9097 25.4561 57.7594 25.3559 57.559 25.2558ZM47.7905 23.9533C48.0911 23.9533 48.3416 24.0034 48.5419 24.0535C48.7423 24.1036 48.8926 24.2038 49.0429 24.3039C49.1932 24.4041 49.2934 24.5544 49.3435 24.7047C49.3935 24.855 49.4436 25.0554 49.4436 25.2558C49.4436 25.3559 49.4436 25.5062 49.3935 25.6064C49.3769 25.6398 49.3657 25.6732 49.3546 25.7066C49.3323 25.7734 49.3101 25.8402 49.2433 25.907C49.2182 25.9571 49.1806 25.9947 49.1431 26.0322C49.1055 26.0698 49.0679 26.1074 49.0429 26.1575C48.9928 26.1825 48.9427 26.2201 48.8926 26.2576C48.8425 26.2952 48.7924 26.3328 48.7423 26.3578L48.9427 26.4142C49.0053 26.433 49.0679 26.458 49.1431 26.5081C49.2433 26.5582 49.3435 26.6584 49.4436 26.7586C49.5438 26.8588 49.5939 27.0091 49.644 27.1594C49.614 27.1594 49.62 27.2135 49.6296 27.3C49.636 27.3577 49.644 27.4299 49.644 27.51C49.644 27.6603 49.644 27.8106 49.5939 27.9609C49.5438 28.1112 49.4937 28.2113 49.4436 28.3115C49.3935 28.4117 49.2934 28.5119 49.1932 28.6121C49.118 28.6873 49.0429 28.7342 48.9466 28.7741L48.6421 28.8814C48.5795 28.9002 48.5169 28.9127 48.4417 28.9127C48.329 28.9502 48.2163 28.9596 48.0825 28.962L46.6383 28.9628C46.5882 28.9628 46.5381 28.9628 46.488 28.9127C46.438 28.8626 46.3879 28.8125 46.3879 28.7123V24.2038C46.3879 24.1036 46.438 24.0535 46.488 24.0034C46.5256 23.9658 46.5632 23.9564 46.6008 23.9541L47.7905 23.9533ZM70.0827 25.2057H69.5818C69.5818 25.2307 69.5693 25.2432 69.5567 25.2495L69.5317 25.2558L69.5325 28.9416C69.5348 28.9628 69.5442 28.9628 69.5818 28.9628H70.0827C70.0827 28.9377 70.0953 28.9252 70.1078 28.9189L70.1328 28.9127V27.2595H70.3833C70.4334 27.2595 70.4835 27.2721 70.5336 27.2846C70.5837 27.2971 70.6338 27.3096 70.6839 27.3096L70.7582 27.3183C70.831 27.3347 70.8968 27.3723 70.9343 27.4098C71.0345 27.4599 71.0846 27.51 71.1347 27.6102L71.285 27.9108L71.6858 28.8125C71.7359 28.8125 71.7359 28.8626 71.7359 28.8626L71.7366 28.8915C71.739 28.9127 71.7484 28.9127 71.786 28.9127H72.337L72.3621 28.9064L72.3823 28.8866L72.3871 28.8626C72.3871 28.8626 72.337 28.8125 72.2869 28.8125V28.7123L71.8862 27.8106L71.7359 27.51C71.6858 27.4098 71.5856 27.3096 71.5355 27.2595L71.4971 27.222C71.4572 27.1844 71.4102 27.1468 71.3351 27.1093C71.285 27.0842 71.2474 27.0717 71.2099 27.0592C71.1723 27.0466 71.1347 27.0341 71.0846 27.0091L71.1477 26.972C71.1598 26.9673 71.1723 26.9632 71.1848 26.959C71.2224 26.9465 71.26 26.9339 71.285 26.9089C71.3101 26.8838 71.3476 26.8588 71.3852 26.8337C71.4228 26.8087 71.4603 26.7836 71.4854 26.7586C71.5856 26.7085 71.6357 26.6584 71.6858 26.5582C71.7359 26.458 71.786 26.3578 71.8361 26.2076L72.1867 25.4561C72.2155 25.4273 72.2278 25.4151 72.233 25.4004C72.2368 25.3895 72.2368 25.3772 72.2368 25.3559V25.2558C72.2368 25.2057 72.1867 25.2057 72.1867 25.2057H71.6858L71.6357 25.2558C71.6106 25.2558 71.5981 25.2683 71.5918 25.2808L71.5856 25.3058L71.2349 26.1074L71.0846 26.4079C71.0497 26.4778 70.9904 26.5233 70.9408 26.5614L70.9407 26.5615C70.9192 26.578 70.8994 26.5932 70.8843 26.6083C70.8574 26.6217 70.8342 26.6352 70.8126 26.6476C70.7536 26.6817 70.7071 26.7085 70.6338 26.7085C70.5837 26.7586 70.4835 26.7586 70.3833 26.7586H70.1328L70.132 25.2268C70.1297 25.2057 70.1203 25.2057 70.0827 25.2057ZM62.819 25.2558H63.7708C64.0213 25.2558 64.2216 25.2558 64.422 25.3058C64.6224 25.3559 64.7727 25.406 64.8729 25.5062C64.9731 25.6064 65.0732 25.7066 65.1233 25.8068C65.1734 25.907 65.2235 26.0573 65.2235 26.2076C65.2235 26.4079 65.1734 26.5582 65.0732 26.7085C64.9731 26.8588 64.8228 26.959 64.6224 27.0091C64.8729 27.0592 65.0732 27.1594 65.2235 27.3096C65.3237 27.4098 65.3738 27.6102 65.3738 27.8106C65.3738 28.011 65.3237 28.1613 65.2736 28.3115C65.2235 28.4618 65.1233 28.562 64.9731 28.6622C64.8228 28.7624 64.6725 28.8125 64.4721 28.8626C64.2717 28.9127 64.0213 28.9628 63.7708 28.9628H62.8691C62.7689 28.9628 62.6687 28.9127 62.6186 28.8626C62.581 28.825 62.5716 28.7593 62.5693 28.6865L62.5685 25.6064C62.5685 25.5062 62.5685 25.406 62.6186 25.3559C62.6687 25.3058 62.7188 25.2558 62.819 25.2558ZM92.0164 28.1362C91.9852 28.1237 91.9539 28.1112 91.9227 28.1112L91.3612 28.1116C91.2952 28.1132 91.2852 28.1212 91.2352 28.1613C91.2352 28.1863 91.2196 28.2113 91.2039 28.2364C91.1883 28.2614 91.1727 28.2865 91.1727 28.3115L91.1737 28.7499C91.1766 28.7874 91.1883 28.825 91.2352 28.8626C91.2664 28.8626 91.2977 28.8751 91.3289 28.8876C91.3602 28.9002 91.3914 28.9127 91.4227 28.9127L91.9842 28.9123C92.0502 28.9107 92.0602 28.9027 92.1102 28.8626C92.1102 28.8375 92.1258 28.8125 92.1414 28.7874C92.1571 28.7624 92.1727 28.7373 92.1727 28.7123V28.5119C92.1727 28.4968 92.1669 28.477 92.1607 28.4554C92.1463 28.4057 92.1291 28.3465 92.1727 28.3115C92.1727 28.2614 92.1727 28.2113 92.1102 28.1613C92.0789 28.1613 92.0477 28.1487 92.0164 28.1362ZM2.15408 4.46638C1.88083 4.32976 1.64899 4.48294 1.6091 4.73774L1.60304 4.81704V19.9457C1.60304 20.2574 1.80094 20.5691 2.05602 20.7401L2.15408 20.7973L19.2865 28.4618C19.5057 28.5933 19.9166 28.6098 20.2173 28.5111L20.3385 28.4618L37.4209 20.7973C37.688 20.6637 37.9156 20.3322 37.9629 20.0491L37.9719 19.9457H38.022V4.86714C38.022 4.54835 37.815 4.39517 37.5515 4.48286L37.471 4.51647L20.3886 12.5317C20.1256 12.6632 19.7476 12.6796 19.4558 12.581L19.3366 12.5317L2.15408 4.46638ZM75.7935 27.2595V28.011C75.7034 28.1312 75.6132 28.2154 75.523 28.2851L75.3427 28.4117C75.2425 28.5119 75.0421 28.562 74.8918 28.562C74.6915 28.562 74.4911 28.5119 74.3909 28.4117C74.2907 28.3115 74.2406 28.1613 74.2406 27.9609C74.2406 27.8607 74.2406 27.7605 74.2907 27.6603C74.3059 27.6451 74.321 27.6254 74.3376 27.6038C74.3757 27.5541 74.4212 27.4949 74.4911 27.4599C74.5211 27.3998 74.5692 27.3758 74.6354 27.3553L74.7916 27.3096C74.8918 27.2595 75.0421 27.2595 75.2425 27.2595H75.7935ZM63.885 27.2599L63.1195 27.2595V28.5119H63.7207C63.871 28.5119 64.0213 28.5119 64.1715 28.4618C64.2049 28.4451 64.2383 28.434 64.2717 28.4229C64.3385 28.4006 64.4053 28.3783 64.4721 28.3115C64.5723 28.2614 64.6224 28.1613 64.6224 28.1112C64.6725 28.0611 64.7226 27.9609 64.7226 27.8607C64.7226 27.7605 64.7226 27.6603 64.6725 27.6102C64.6224 27.51 64.5723 27.4599 64.5222 27.4098C64.422 27.3597 64.3218 27.3096 64.2216 27.3096C64.1415 27.2696 64.0293 27.2616 63.885 27.2599ZM47.0391 26.5582L47.9823 26.559C48.1161 26.5613 48.2288 26.5707 48.3416 26.6083C48.4918 26.6584 48.592 26.7085 48.6922 26.8087C48.7924 26.9089 48.8425 27.0091 48.8926 27.1093C48.9427 27.2095 48.9427 27.3597 48.9427 27.51C48.9427 27.5928 48.9275 27.6755 48.9139 27.7499C48.9027 27.8106 48.8926 27.8657 48.8926 27.9108C48.8425 28.011 48.7924 28.1112 48.6922 28.1613L48.3917 28.3115C48.2915 28.3616 48.1412 28.3616 47.9909 28.3616H47.0391V26.5582ZM91.9227 23.6026C91.9696 23.6026 91.9813 23.6308 91.9842 23.6449L91.9852 27.51L91.9227 27.5601H91.2977C91.2977 27.5601 91.2352 27.5601 91.2352 27.51L91.1727 23.7529V23.6527L91.2352 23.6026C91.2664 23.6026 91.2821 23.5901 91.2977 23.5776C91.3133 23.5651 91.3289 23.5525 91.3602 23.5525H91.7977C91.8602 23.5525 91.9227 23.5525 91.9227 23.6026ZM56.3567 25.7567C56.4569 25.7066 56.6072 25.6565 56.7575 25.6565C57.0581 25.6565 57.3085 25.7567 57.4588 25.9571C57.6091 26.1575 57.6592 26.4079 57.6592 26.7586H55.8057C55.8057 26.6083 55.8057 26.5081 55.8558 26.3578C55.9059 26.2076 55.956 26.1074 56.0562 26.0072L56.0562 26.0071C56.1564 25.907 56.2566 25.8068 56.3567 25.7567ZM63.7207 25.6565H63.1195V26.7586H63.7708C64.0213 26.7586 64.2216 26.7085 64.3719 26.6083C64.5222 26.5081 64.6224 26.4079 64.6224 26.2076C64.6224 26.1074 64.6224 26.0573 64.5723 25.9571C64.5556 25.9404 64.5389 25.9181 64.5222 25.8959C64.4888 25.8513 64.4554 25.8068 64.422 25.8068C64.3819 25.7667 64.3098 25.7266 64.2056 25.7122L64.1214 25.7066C64.0764 25.7066 64.0213 25.6965 63.9605 25.6853C63.8862 25.6717 63.8034 25.6565 63.7207 25.6565ZM46.989 24.4041L47.8045 24.4045C47.9488 24.4061 48.061 24.4142 48.1412 24.4542L48.2445 24.4918C48.3384 24.5294 48.4042 24.5669 48.4417 24.6045C48.4668 24.6296 48.4918 24.6671 48.5169 24.711L48.592 24.855C48.6421 24.9552 48.6421 25.1055 48.6421 25.2057C48.6421 25.3559 48.592 25.4561 48.5419 25.5563C48.5169 25.6064 48.4918 25.644 48.4668 25.6816C48.4417 25.7191 48.4167 25.7567 48.3917 25.8068C48.3416 25.907 48.2414 25.9571 48.1412 26.0072C48.041 26.0573 47.8907 26.0573 47.7404 26.0573H46.989V24.4041ZM57.4588 23.803C57.6091 23.803 57.7093 23.8531 57.7594 23.9032C57.8095 23.9533 57.8095 24.0535 57.8095 24.2038C57.8095 24.354 57.7594 24.4542 57.7093 24.5043C57.6592 24.5544 57.559 24.6045 57.4087 24.6045C57.2584 24.6045 57.1583 24.5544 57.1082 24.5043C57.0581 24.4542 57.0581 24.354 57.0581 24.2038C57.0581 24.0535 57.1082 23.9533 57.1583 23.9032C57.2084 23.8531 57.3085 23.803 57.4588 23.803ZM56.3567 23.9032C56.3066 23.8531 56.2065 23.803 56.0562 23.803C55.9059 23.803 55.8057 23.8531 55.7556 23.9032C55.7055 23.9533 55.6554 24.0535 55.6554 24.2038C55.6554 24.354 55.6554 24.4542 55.7055 24.5043C55.7556 24.5544 55.8558 24.6045 56.0061 24.6045C56.1564 24.6045 56.2565 24.5544 56.3066 24.5043C56.3567 24.4542 56.4068 24.354 56.4068 24.2038C56.4068 24.0535 56.4068 23.9533 56.3567 23.9032ZM73.6896 8.62425C73.8398 8.62425 73.9901 8.67435 74.0402 8.77454C74.1204 8.81461 74.1364 8.88675 74.1396 8.9653L74.1404 9.02501C74.1404 9.1252 74.1404 9.27549 74.0903 9.42577L71.4854 17.0402L70.5336 19.7954C70.4835 19.9457 70.3332 20.0459 70.1328 20.096C69.8824 20.1461 69.5818 20.1962 69.1309 20.1962L68.872 20.193C68.7602 20.1882 68.6701 20.1761 68.5799 20.1461C68.4296 20.1461 68.3294 20.096 68.2793 20.0459C68.2292 19.9958 68.1791 19.9457 68.1791 19.8956C68.1791 19.858 68.1791 19.7923 68.2003 19.7195L69.2311 17.0402C69.1309 16.9901 69.0808 16.94 69.0307 16.8899C68.9806 16.8398 68.9305 16.7396 68.8805 16.6394L66.2254 9.52596L66.1461 9.21938C66.1333 9.16327 66.1252 9.11518 66.1252 9.07511C66.1252 8.97492 66.1753 8.87473 66.2254 8.82463C66.2755 8.77454 66.4258 8.72444 66.5761 8.67435C66.6417 8.67435 66.7264 8.6648 66.8218 8.65405C66.945 8.64016 67.0862 8.62425 67.2273 8.62425H67.8285C67.9112 8.62425 67.9787 8.63943 68.0395 8.65308C68.0891 8.66423 68.1341 8.67435 68.1791 8.67435C68.2793 8.72444 68.3294 8.77454 68.3795 8.82463C68.4296 8.87473 68.4797 8.97492 68.4797 9.1252L70.3332 14.285H70.3833L72.0364 9.02501C72.0865 8.87473 72.1366 8.77454 72.1867 8.72444C72.2368 8.67435 72.337 8.62425 72.4372 8.62425C72.4994 8.62425 72.5703 8.61566 72.6533 8.60559C72.7707 8.59135 72.9124 8.57416 73.0884 8.57416C73.3389 8.57416 73.5393 8.57416 73.6896 8.62425ZM114.628 6.79957C114.567 6.78592 114.499 6.77074 114.417 6.77074L113.261 6.77153C113.164 6.77387 113.089 6.78327 113.014 6.82084C112.964 6.82084 112.914 6.87093 112.864 6.92103C112.814 6.97112 112.814 7.02122 112.814 7.07131V8.77454L111.874 8.77532C111.837 8.77767 111.799 8.78706 111.762 8.82463C111.737 8.84968 111.724 8.87473 111.712 8.89977C111.699 8.92482 111.687 8.94987 111.661 8.97492C111.661 8.99567 111.653 9.02501 111.643 9.05939C111.629 9.10801 111.611 9.1667 111.611 9.22539V9.62615C111.611 9.87663 111.637 10.0504 111.67 10.1841L111.712 10.3275C111.762 10.4778 111.862 10.5279 111.962 10.5279H112.914V14.4854C112.914 14.9863 112.964 15.3871 113.064 15.7377C113.164 16.0884 113.315 16.3389 113.515 16.5893C113.715 16.7897 114.016 16.9901 114.317 17.0903C114.617 17.1905 114.968 17.2406 115.419 17.2406C115.526 17.2406 115.619 17.2262 115.705 17.2128C115.78 17.2013 115.85 17.1905 115.92 17.1905C116.07 17.1905 116.22 17.1905 116.37 17.1404C116.521 17.1404 116.621 17.0903 116.721 17.0402C116.821 16.9901 116.921 16.94 116.972 16.8899C117.032 16.8599 117.056 16.8118 117.076 16.7456L117.122 16.5893C117.172 16.4391 117.172 16.2387 117.172 15.9882L117.172 15.9382C117.168 15.8058 117.139 15.6821 116.871 15.6375C116.871 15.5788 116.854 15.5202 116.84 15.4715C116.83 15.4372 116.821 15.4078 116.821 15.3871C116.821 15.337 116.821 15.2869 116.771 15.2869C116.721 15.2368 116.721 15.2368 116.671 15.2368C116.646 15.2368 116.621 15.2493 116.596 15.2618C116.571 15.2743 116.546 15.2869 116.521 15.2869C116.471 15.2869 116.37 15.2869 116.32 15.337C116.27 15.337 116.233 15.3495 116.195 15.362C116.157 15.3745 116.12 15.3871 116.07 15.3871C115.97 15.4372 115.869 15.4372 115.769 15.4372C115.419 15.4372 115.218 15.337 115.068 15.1366C114.918 14.9362 114.868 14.5855 114.868 14.1848V10.5279H116.571C116.671 10.5279 116.771 10.4778 116.821 10.3275C116.871 10.1772 116.921 9.92672 116.921 9.62615L116.921 9.15103C116.918 9.07824 116.909 9.01249 116.871 8.97492C116.871 8.94987 116.859 8.92482 116.84 8.89977L116.771 8.82463C116.721 8.77454 116.671 8.77454 116.621 8.77454H114.968L114.967 7.03374C114.965 6.99617 114.955 6.9586 114.918 6.92103C114.918 6.89598 114.905 6.88346 114.88 6.87093L114.767 6.82084C114.722 6.82084 114.677 6.81072 114.628 6.79957ZM97.1841 8.42387C97.7852 8.42387 98.2861 8.47397 98.737 8.62425C99.1235 8.71013 99.4363 8.86962 99.6755 9.07116L99.789 9.1753C100.09 9.42577 100.29 9.72634 100.39 10.1271C100.54 10.5279 100.591 10.9787 100.591 11.4797V16.7396H100.54C100.54 16.8398 100.49 16.8899 100.44 16.94C100.39 16.9901 100.29 17.0402 100.19 17.0402C100.151 17.0402 100.097 17.0477 100.031 17.0569C99.9268 17.0715 99.7922 17.0903 99.6387 17.0903L99.4068 17.0884C99.2658 17.0847 99.1545 17.0736 99.0877 17.0402C98.9875 17.0402 98.8873 16.9901 98.8372 16.94C98.7996 16.9024 98.7902 16.8649 98.7879 16.8062L98.7871 16.1385C98.4865 16.4891 98.0858 16.7396 97.685 16.94C97.2843 17.1404 96.8334 17.2406 96.3325 17.2406C95.9317 17.2406 95.5309 17.1905 95.1803 17.0903C94.8296 16.9901 94.529 16.8398 94.2786 16.5893C94.0281 16.389 93.8277 16.1385 93.6774 15.7878C93.5271 15.4873 93.477 15.0865 93.477 14.6857C93.477 14.2349 93.5772 13.8341 93.7275 13.5336C93.9279 13.1829 94.1784 12.9324 94.529 12.732C94.8797 12.5317 95.3306 12.3313 95.8315 12.2311C96.3325 12.1309 96.9336 12.0808 97.6349 12.0808H98.3863V11.6299C98.3863 11.3795 98.3863 11.1791 98.3362 10.9787C98.2861 10.7783 98.186 10.628 98.0858 10.5279C97.9856 10.4277 97.8353 10.3275 97.6349 10.2774C97.4345 10.2273 97.2342 10.1772 96.9336 10.1772C96.5829 10.1772 96.2323 10.2273 95.9818 10.2774C95.8755 10.3128 95.7754 10.342 95.6817 10.3693L95.6814 10.3694L95.6812 10.3695C95.51 10.4194 95.3598 10.4632 95.2304 10.5279L94.9361 10.6719C94.8421 10.7157 94.7545 10.7533 94.6793 10.7783C94.5591 10.8585 94.4709 10.8745 94.3892 10.8777L94.3287 10.8785C94.2786 10.8785 94.2285 10.8785 94.1784 10.8284C94.1283 10.7783 94.0782 10.7282 94.0782 10.6781C94.0281 10.628 94.0281 10.5279 94.0281 10.3776C94.0281 10.3275 94.0156 10.2649 94.003 10.2022C93.9905 10.1396 93.978 10.077 93.978 10.0269L93.9812 9.82813C93.986 9.74638 93.998 9.68626 94.0281 9.62615L94.1784 9.32558C94.2786 9.22539 94.3788 9.1252 94.5791 9.02501C94.7795 8.92482 95.03 8.82463 95.2805 8.72444C95.4808 8.64429 95.7133 8.5962 95.9778 8.55452L96.1822 8.52406C96.4827 8.47397 96.8334 8.42387 97.1841 8.42387ZM61.8672 8.62425C61.4163 8.47397 60.9154 8.42387 60.3142 8.42387C59.9636 8.42387 59.6129 8.47397 59.3123 8.52406L59.1079 8.55452C58.8434 8.5962 58.611 8.64429 58.4106 8.72444C58.1602 8.82463 57.9097 8.92482 57.7093 9.02501C57.5089 9.1252 57.4087 9.22539 57.3085 9.32558L57.1583 9.62615C57.1082 9.72634 57.1082 9.82653 57.1082 10.0269C57.1082 10.077 57.1207 10.1396 57.1332 10.2022C57.1457 10.2649 57.1583 10.3275 57.1583 10.3776C57.1583 10.5279 57.1583 10.628 57.2084 10.6781C57.2084 10.7282 57.2584 10.7783 57.3085 10.8284C57.3586 10.8785 57.4087 10.8785 57.4588 10.8785L57.5193 10.8777C57.6011 10.8745 57.6893 10.8585 57.8095 10.7783C57.9598 10.7282 58.1602 10.628 58.3605 10.5279C58.4899 10.4632 58.6402 10.4194 58.8114 10.3695L58.8114 10.3694L58.8115 10.3694C58.9053 10.3421 59.0055 10.3129 59.112 10.2774C59.3624 10.2273 59.7131 10.1772 60.0638 10.1772C60.3643 10.1772 60.5647 10.2273 60.7651 10.2774C60.9655 10.3275 61.1157 10.4277 61.2159 10.5279C61.3161 10.628 61.4163 10.7783 61.4664 10.9787C61.5165 11.1791 61.5165 11.3795 61.5165 11.6299V12.0808H60.7651C60.0638 12.0808 59.4626 12.1309 58.9617 12.2311C58.4607 12.3313 58.0099 12.5317 57.6592 12.732C57.3085 12.9324 57.0581 13.1829 56.8577 13.5336C56.7074 13.8341 56.6072 14.2349 56.6072 14.6857C56.6072 15.0865 56.6573 15.4873 56.8076 15.7878C56.9579 16.1385 57.1583 16.389 57.4087 16.5893C57.6592 16.8398 57.9598 16.9901 58.3104 17.0903C58.6611 17.1905 59.0619 17.2406 59.4626 17.2406C59.9636 17.2406 60.4144 17.1404 60.8152 16.94C61.2159 16.7396 61.6167 16.4891 61.9173 16.1385L61.9181 16.8062C61.9204 16.8649 61.9298 16.9024 61.9674 16.94C62.0175 16.9901 62.1176 17.0402 62.2178 17.0402C62.2846 17.0736 62.396 17.0847 62.537 17.0884L62.7689 17.0903C62.9223 17.0903 63.0569 17.0715 63.1612 17.0569L63.1612 17.0569L63.1612 17.0569L63.1613 17.0569C63.2273 17.0477 63.2811 17.0402 63.3199 17.0402C63.4201 17.0402 63.5203 16.9901 63.5704 16.94C63.6205 16.8899 63.6706 16.8398 63.6706 16.7396H63.7207V11.4797C63.7207 10.9787 63.6706 10.5279 63.5203 10.1271C63.4201 9.72634 63.2197 9.42577 62.9192 9.1753L62.8057 9.07116C62.5665 8.86962 62.2536 8.71013 61.8672 8.62425ZM107.654 8.57416C107.904 8.62425 108.105 8.67435 108.255 8.72444C108.455 8.77454 108.606 8.82463 108.706 8.87473C108.826 8.9148 108.882 8.95488 108.925 8.99496L108.956 9.02501L108.956 9.02505C108.994 9.06261 109.032 9.10017 109.048 9.13773L109.057 9.1753C109.057 9.20034 109.069 9.22539 109.082 9.25044C109.094 9.27549 109.107 9.30053 109.107 9.32558C109.107 9.37568 109.107 9.47587 109.157 9.52596V10.2774C109.157 10.3776 109.157 10.4778 109.107 10.5279C109.107 10.5654 109.078 10.603 109.043 10.6194L109.006 10.628C108.956 10.628 108.906 10.6781 108.906 10.6781C108.856 10.6781 108.756 10.628 108.656 10.578L108.474 10.4778C108.405 10.4402 108.33 10.4026 108.255 10.3776C108.199 10.3589 108.136 10.3333 108.069 10.306C107.956 10.2598 107.83 10.2086 107.704 10.1772C107.504 10.1271 107.253 10.077 106.953 10.077C106.752 10.077 106.602 10.077 106.452 10.1271C106.301 10.1772 106.201 10.2273 106.101 10.2774C106.001 10.3776 105.951 10.4277 105.901 10.5279C105.85 10.628 105.85 10.7282 105.85 10.8284C105.85 11.0288 105.901 11.1791 106.001 11.2793C106.101 11.3795 106.251 11.5298 106.452 11.5799C106.652 11.68 106.852 11.7802 107.053 11.8303C107.178 11.8804 107.291 11.918 107.403 11.9556C107.516 11.9931 107.629 12.0307 107.754 12.0808C108.005 12.181 108.205 12.2812 108.455 12.4315C108.706 12.5817 108.906 12.732 109.057 12.8823C109.223 13.0483 109.32 13.2143 109.434 13.4088L109.434 13.41C109.458 13.4499 109.482 13.491 109.507 13.5336C109.608 13.8842 109.658 14.1848 109.658 14.5354C109.658 14.9863 109.557 15.337 109.407 15.6876C109.257 16.0383 109.006 16.2888 108.706 16.5392C108.405 16.7396 108.055 16.94 107.654 17.0402C107.253 17.1404 106.802 17.1905 106.301 17.1905C106.001 17.1905 105.75 17.1905 105.45 17.1404L105.08 17.0652C104.961 17.0402 104.849 17.0151 104.748 16.9901C104.548 16.94 104.348 16.8398 104.247 16.7897C104.097 16.7396 103.997 16.6394 103.947 16.5893C103.897 16.5392 103.847 16.4391 103.797 16.2888C103.755 16.1635 103.748 16.0383 103.747 15.8261L103.746 15.2869C103.746 15.2283 103.764 15.1697 103.778 15.1211L103.778 15.121L103.778 15.1209L103.778 15.1209L103.778 15.1206L103.779 15.1183C103.782 15.1056 103.786 15.0937 103.789 15.0826L103.797 15.0364C103.797 14.9988 103.825 14.9613 103.86 14.9448L103.897 14.9362C103.922 14.9362 103.947 14.9237 103.972 14.9112C103.997 14.8986 104.022 14.8861 104.047 14.8861C104.078 14.8861 104.128 14.9052 104.197 14.9317C104.24 14.948 104.29 14.9672 104.348 14.9863L104.506 15.0673C104.6 15.1165 104.708 15.1767 104.798 15.2368C104.92 15.2974 105.041 15.3397 105.174 15.3859C105.26 15.416 105.351 15.4477 105.45 15.4873L105.757 15.5442C105.917 15.5694 106.091 15.5874 106.301 15.5874C106.502 15.5874 106.652 15.5874 106.802 15.5373L107.021 15.4622C107.09 15.4372 107.153 15.4121 107.203 15.3871C107.283 15.347 107.363 15.2748 107.418 15.1707L107.454 15.0865C107.504 14.9863 107.554 14.836 107.554 14.6857C107.554 14.5354 107.504 14.3852 107.403 14.2349C107.303 14.1347 107.153 13.9844 107.003 13.9343C106.802 13.8341 106.602 13.7339 106.402 13.6838C106.288 13.627 106.158 13.5862 106.021 13.5433C105.917 13.5106 105.808 13.4767 105.7 13.4334C105.45 13.3332 105.249 13.233 104.999 13.0827L104.398 12.6318C104.197 12.4315 104.097 12.2311 103.997 11.9806C103.897 11.7301 103.847 11.4296 103.847 11.0288C103.847 10.6781 103.897 10.3275 104.047 10.0269C104.197 9.72634 104.398 9.47587 104.648 9.22539C104.899 9.02501 105.249 8.82463 105.65 8.72444C106.051 8.62425 106.502 8.52406 106.953 8.52406C107.203 8.52406 107.454 8.52406 107.654 8.57416ZM125.087 8.72444C124.636 8.52406 124.085 8.42387 123.434 8.42387C122.833 8.42387 122.282 8.52406 121.781 8.72444C121.28 8.92482 120.879 9.22539 120.528 9.62615C120.178 10.0269 119.927 10.4778 119.727 11.0288C119.576 11.5799 119.476 12.181 119.476 12.8823C119.476 13.6337 119.576 14.2349 119.727 14.7859C119.877 15.337 120.128 15.7878 120.478 16.1385C120.829 16.4891 121.28 16.7897 121.781 16.94C122.282 17.0903 122.883 17.1905 123.584 17.1905C123.935 17.1905 124.285 17.1905 124.636 17.1404C124.811 17.1153 124.974 17.0903 125.124 17.0652L125.538 16.9901C125.688 16.96 125.838 16.912 125.967 16.8675L126.292 16.7521C126.386 16.7146 126.452 16.677 126.49 16.6394C126.54 16.5893 126.59 16.5392 126.59 16.4891L126.603 16.4391L126.607 16.4296L126.61 16.4242L126.615 16.414C126.627 16.389 126.64 16.3639 126.64 16.3389C126.69 16.2387 126.69 16.1886 126.69 16.0884V15.3871C126.69 15.362 126.677 15.3244 126.665 15.2869L126.665 15.2868C126.652 15.2492 126.64 15.2117 126.64 15.1867C126.621 15.1675 126.609 15.1484 126.599 15.1321C126.582 15.1056 126.571 15.0865 126.54 15.0865C126.49 15.0364 126.439 15.0364 126.389 15.0364C126.339 15.0364 126.289 15.0489 126.233 15.0677L126.039 15.1366C125.939 15.1867 125.738 15.2869 125.538 15.337C125.337 15.4372 125.087 15.4873 124.786 15.5373L124.605 15.567C124.362 15.6055 124.105 15.6375 123.784 15.6375C123.434 15.6375 123.083 15.5874 122.833 15.4873C122.582 15.3871 122.332 15.2368 122.181 15.0364C122.031 14.836 121.931 14.5855 121.831 14.3351C121.781 14.0846 121.731 13.784 121.731 13.4334H126.439C126.64 13.4334 126.84 13.3833 126.94 13.233L127.007 13.1537C127.106 13.0145 127.141 12.8406 127.141 12.6318H127.091V12.2311C127.091 11.68 127.041 11.1791 126.89 10.7282C126.74 10.2774 126.54 9.87663 126.239 9.52596C125.939 9.1753 125.538 8.92482 125.087 8.72444ZM77.9977 5.81894H79.5006C79.751 5.81894 80.0015 5.81894 80.2019 5.86903C80.4023 5.91913 80.5526 5.96922 80.7029 6.06941C80.8531 6.1696 80.9533 6.31989 81.0535 6.47017C81.1216 6.57228 81.1665 6.69752 81.2198 6.84588L81.2198 6.84597C81.2449 6.91594 81.2719 6.99105 81.304 7.07131L83.7085 13.7339H83.7586L86.2634 7.07131C86.2955 6.99105 86.3224 6.91594 86.3476 6.84597L86.3476 6.84588C86.4008 6.69752 86.4458 6.57228 86.5139 6.47017C86.614 6.31989 86.7142 6.1696 86.8144 6.06941C86.9146 5.96922 87.0649 5.86903 87.2152 5.86903C87.3279 5.83146 87.4688 5.82207 87.6167 5.81972L89.3192 5.81894C89.4695 5.81894 89.6197 5.81894 89.7199 5.86903C89.8201 5.91913 89.9203 5.96922 90.0205 6.06941C90.0372 6.10281 90.0595 6.13064 90.0817 6.15847C90.1262 6.21413 90.1708 6.26979 90.1708 6.36998C90.2084 6.44513 90.2177 6.54845 90.2201 6.65881L90.2209 16.7396H90.1207C90.1207 16.7897 90.1207 16.8398 90.0706 16.8899C90.0205 16.94 89.9704 16.9901 89.9203 16.9901C89.8201 17.0402 89.7199 17.0402 89.5696 17.0402C89.504 17.0402 89.4384 17.0497 89.3645 17.0605C89.2691 17.0744 89.1597 17.0903 89.0186 17.0903L88.7846 17.0871C88.6739 17.0823 88.5778 17.0702 88.5176 17.0402C88.4349 17.0402 88.3674 17.025 88.3066 17.0114C88.2571 17.0002 88.212 16.9901 88.167 16.9901L88.0543 16.94C88.0292 16.9275 88.0167 16.915 88.0167 16.8899C87.9791 16.8523 87.9697 16.8148 87.9674 16.7772L87.966 7.573L84.7104 16.6895C84.7104 16.7647 84.6823 16.8116 84.647 16.8516L84.6102 16.8899C84.5602 16.94 84.5101 16.9901 84.4099 16.9901C84.3347 17.0277 84.2596 17.0371 84.1633 17.0394L83.0573 17.0402C82.9746 17.0402 82.907 17.025 82.8463 17.0114C82.7967 17.0002 82.7517 16.9901 82.7066 16.9901C82.6684 16.971 82.6374 16.9591 82.611 16.949C82.5682 16.9327 82.5372 16.9209 82.5063 16.8899C82.4562 16.8398 82.4061 16.7897 82.4061 16.7396L79.3002 7.62236V16.7396C79.3002 16.7897 79.3002 16.8398 79.2501 16.8899C79.2 16.94 79.1499 16.9901 79.0497 16.9901C78.9495 17.0402 78.8493 17.0402 78.6991 17.0402C78.6293 17.0402 78.5596 17.051 78.4848 17.0625C78.3985 17.0759 78.3055 17.0903 78.1981 17.0903L77.9641 17.0871C77.8534 17.0823 77.7573 17.0702 77.6972 17.0402C77.6144 17.0402 77.5469 17.025 77.4861 17.0114C77.4366 17.0002 77.3915 16.9901 77.3465 16.9901L77.2338 16.94C77.2087 16.9275 77.1962 16.915 77.1962 16.8899C77.1586 16.8523 77.1492 16.8148 77.1469 16.7772L77.1461 6.72065C77.1461 6.42008 77.2463 6.2197 77.3966 6.06941C77.5469 5.91913 77.7472 5.81894 77.9977 5.81894ZM49.9947 5.81894H47.3397C47.1393 5.81894 46.9389 5.86903 46.7886 6.01932C46.6383 6.1696 46.5882 6.36998 46.5882 6.62046L46.589 16.7271C46.5914 16.7647 46.6008 16.8022 46.6383 16.8398C46.6693 16.8708 46.7002 16.8826 46.743 16.8989C46.7695 16.909 46.8004 16.9209 46.8387 16.94C46.8837 16.94 46.9288 16.9501 46.9784 16.9613C47.0391 16.9749 47.1066 16.9901 47.1894 16.9901C47.3397 17.0402 47.54 17.0402 47.7404 17.0402C47.8478 17.0402 47.9552 17.0258 48.0549 17.0125C48.1412 17.0009 48.2217 16.9901 48.2915 16.9901C48.4417 16.9901 48.5419 16.9901 48.6421 16.94C48.7423 16.94 48.7924 16.8899 48.8425 16.8398C48.8926 16.7897 48.8926 16.7396 48.8926 16.6895V13.0827H49.8444C50.5457 13.0827 51.197 12.9825 51.748 12.8322C52.299 12.6819 52.8 12.4315 53.1507 12.0808L53.2977 11.9459C53.5852 11.6637 53.8305 11.3079 54.0023 10.8785C54.2027 10.4277 54.3028 9.87663 54.3028 9.22539C54.3028 8.77454 54.2027 8.37378 54.0524 8.02311C53.9522 7.67245 53.7518 7.32179 53.5013 7.07131L53.345 6.90219C53.1286 6.69059 52.8801 6.53029 52.5996 6.36998C52.5462 6.34709 52.494 6.3242 52.4425 6.30166C52.1562 6.17624 51.895 6.06178 51.5977 6.01932C51.2972 5.91913 50.9966 5.86903 50.7461 5.86903C50.4956 5.81894 50.2452 5.81894 49.9947 5.81894ZM134.805 8.57416C134.855 8.57416 134.893 8.58668 134.931 8.59921C134.968 8.61173 135.006 8.62425 135.056 8.62425C135.081 8.6493 135.106 8.66182 135.131 8.67435C135.156 8.68687 135.181 8.6994 135.206 8.72444C135.235 8.75325 135.247 8.76549 135.252 8.78022C135.256 8.7911 135.256 8.80334 135.256 8.82463C135.256 8.84968 135.269 8.87473 135.281 8.89977C135.294 8.92482 135.306 8.94987 135.306 8.97492C135.306 9.02501 135.306 9.1252 135.356 9.22539C135.437 9.34562 135.453 9.46585 135.456 9.61172L135.457 10.2273C135.457 10.3225 135.436 10.3977 135.422 10.4527C135.419 10.4628 135.416 10.4722 135.414 10.4809L135.406 10.5279C135.406 10.578 135.356 10.6781 135.306 10.6781C135.269 10.7157 135.231 10.7251 135.194 10.7275L135.156 10.7282C135.106 10.7282 135.056 10.7282 135.006 10.6781C134.985 10.6781 134.964 10.6695 134.94 10.6595C134.906 10.6452 134.864 10.628 134.805 10.628C134.785 10.628 134.755 10.6195 134.721 10.6094C134.693 10.6012 134.662 10.5921 134.629 10.5858L134.555 10.578C134.505 10.578 134.455 10.5654 134.405 10.5529C134.354 10.5404 134.304 10.5279 134.254 10.5279C134.154 10.5279 134.004 10.5279 133.904 10.578C133.803 10.628 133.653 10.7282 133.503 10.8284C133.428 10.8785 133.365 10.9411 133.302 11.01L133.102 11.2292C132.952 11.3795 132.802 11.6299 132.651 11.8804V16.6895C132.651 16.7396 132.651 16.7897 132.601 16.8398C132.551 16.8899 132.501 16.94 132.401 16.94C132.326 16.9776 132.25 16.987 132.154 16.9893L130.948 16.9901C130.865 16.9901 130.798 16.9749 130.737 16.9613C130.687 16.9501 130.642 16.94 130.597 16.94L130.435 16.8696C130.422 16.8617 130.409 16.8523 130.397 16.8398C130.359 16.8022 130.35 16.7647 130.348 16.7271L130.347 9.02501C130.347 8.97492 130.347 8.92482 130.397 8.87473C130.447 8.82463 130.497 8.77454 130.547 8.77454C130.587 8.73446 130.659 8.72645 130.764 8.72484L131.75 8.72444C131.8 8.72444 131.85 8.73697 131.9 8.74949C131.95 8.76201 132 8.77454 132.05 8.77454C132.075 8.79959 132.1 8.81211 132.125 8.82463C132.15 8.83716 132.175 8.84968 132.2 8.87473C132.238 8.9123 132.247 8.94987 132.25 8.98744L132.25 9.97681C132.376 9.78814 132.502 9.63895 132.615 9.50445L132.616 9.50415L132.617 9.50292L132.618 9.50195C132.684 9.42313 132.746 9.34931 132.802 9.27549L133.021 9.05908C133.122 8.96289 133.212 8.88475 133.302 8.82463C133.453 8.72444 133.603 8.62425 133.803 8.57416C133.916 8.53659 134.029 8.52719 134.163 8.52485L134.555 8.52406C134.655 8.52406 134.755 8.52406 134.805 8.57416ZM97.5347 13.4334H98.3863V14.7859C98.0858 15.0865 97.8353 15.337 97.5848 15.4873C97.3343 15.6375 97.0338 15.7377 96.7332 15.7377C96.3825 15.7377 96.082 15.6375 95.8816 15.4372C95.6812 15.2869 95.581 14.9863 95.581 14.6857C95.581 14.4854 95.6311 14.3351 95.6812 14.1848C95.7814 14.0345 95.8816 13.8842 96.0319 13.784C96.1822 13.6838 96.3825 13.5836 96.633 13.5336C96.8835 13.4835 97.1841 13.4334 97.5347 13.4334ZM61.5165 13.4334H60.6649C60.3142 13.4334 60.0137 13.4835 59.7632 13.5336C59.5127 13.5836 59.3123 13.6838 59.1621 13.784C59.0118 13.8842 58.9116 14.0345 58.8114 14.1848C58.7613 14.3351 58.7112 14.4854 58.7112 14.6857C58.7112 14.9863 58.8114 15.2869 59.0118 15.4372C59.2121 15.6375 59.5127 15.7377 59.8634 15.7377C60.1639 15.7377 60.4645 15.6375 60.715 15.4873C60.9655 15.337 61.2159 15.0865 61.5165 14.7859V13.4334ZM122.783 10.2273C122.983 10.1271 123.183 10.077 123.484 10.077C124.035 10.077 124.436 10.2273 124.686 10.578C124.905 10.8848 125.009 11.3067 125.032 11.8101L125.035 11.9799L121.831 11.9806L121.981 11.2292C122.031 11.0288 122.131 10.8284 122.282 10.628C122.432 10.4778 122.582 10.3275 122.783 10.2273ZM50.0315 7.57304L48.8926 7.57226V11.3795H49.8945C50.2452 11.3795 50.5457 11.3294 50.7962 11.2292C51.0467 11.129 51.2471 10.9787 51.3973 10.8284C51.5476 10.628 51.6478 10.4277 51.748 10.1772C51.8482 9.92672 51.8983 9.67624 51.8983 9.37568C51.8983 8.97492 51.8482 8.67435 51.6979 8.42387C51.5476 8.1734 51.3973 7.97302 51.197 7.87283C50.9966 7.77264 50.7962 7.67245 50.5457 7.62236C50.3954 7.58478 50.217 7.57539 50.0315 7.57304ZM34.439 2.33103C34.7053 2.23855 34.912 2.39162 34.866 2.71306V3.96543L20.3886 10.7783L20.2694 10.8276C19.9777 10.9263 19.5996 10.9098 19.3366 10.7783L4.25806 3.71496V2.71306L4.26412 2.63376C4.30402 2.37895 4.53586 2.22577 4.80911 2.36239L19.2865 9.1252L19.4057 9.17451C19.6975 9.27314 20.0755 9.2567 20.3385 9.1252L34.3651 2.36239L34.439 2.33103Z" fill="white"/>
</svg>
