<svg width="71" height="51" viewBox="0 0 71 51" fill="none" xmlns="http://www.w3.org/2000/svg">
<path opacity="0.75" d="M0 33.9553V43.9815H9.99994L0 33.9553Z" fill="white"/>
<path d="M9.99994 33.9553H0V43.9815L9.99994 33.9553Z" fill="white"/>
<path d="M46.3954 35.961C44.9045 35.961 43.5952 37.172 43.5952 38.6668V41.9758H44.796V40.7719H47.9949V41.9758H49.1956V38.6668C49.1956 37.172 47.8863 35.961 46.3954 35.961ZM47.9949 39.5704H44.796V38.6693C44.796 37.839 45.5674 37.1649 46.3954 37.1649C47.2234 37.1649 47.9949 37.839 47.9949 38.6693V39.5704Z" fill="white"/>
<path d="M62.9935 35.961C61.5026 35.961 60.1934 37.172 60.1934 38.6668V41.9758H61.3941V40.7719H64.593V41.9758H65.7938V38.6668C65.7938 37.172 64.4844 35.961 62.9935 35.961ZM64.593 39.5704H61.3941V38.6693C61.3941 37.839 62.1655 37.1649 62.9935 37.1649C63.8216 37.1649 64.593 37.839 64.593 38.6693V39.5704Z" fill="white"/>
<path d="M52.9885 38.3783L52.9956 38.3665H51.5967C51.2665 38.3665 50.9975 38.0969 50.9975 37.7657C50.9975 37.4346 51.2665 37.1649 51.5967 37.1649H53.7953L54.595 35.961H51.5944C50.6012 35.961 49.7944 36.77 49.7944 37.7657C49.7944 38.6976 50.4973 39.464 51.4009 39.5585L51.3938 39.5704H52.7927C53.123 39.5704 53.392 39.84 53.392 40.1712C53.392 40.5023 53.123 40.7719 52.7927 40.7719H50.5941L49.7944 41.9758H52.7951C53.7882 41.9758 54.595 41.167 54.595 40.1712C54.595 39.2392 53.8897 38.4729 52.9885 38.3783Z" fill="white"/>
<path d="M56.5934 35.961C55.6002 35.961 54.7935 36.77 54.7935 37.7657C54.7935 38.6976 55.4965 39.464 56.3999 39.5585L56.3928 39.5704H57.7917C58.122 39.5704 58.391 39.84 58.391 40.1712C58.391 40.5023 58.122 40.7719 57.7917 40.7719H55.5931L54.7935 41.9758H57.7941C58.7873 41.9758 59.5941 41.167 59.5941 40.1712C59.5941 39.2392 58.8911 38.4729 57.9875 38.3783L57.9947 38.3665H56.5957C56.2655 38.3665 55.9965 38.0969 55.9965 37.7657C55.9965 37.4346 56.2655 37.1649 56.5957 37.1649H58.7944L59.5941 35.961H56.5934Z" fill="white"/>
<path d="M42.9345 35.961L40.4811 38.5794L42.9958 41.9735H41.5969L39.6837 39.4285L39.1978 40.0104V41.9711H37.9971V35.961H39.1978V38.3333L41.361 35.961H42.9345Z" fill="white"/>
<path d="M34.1966 35.961C32.5405 35.961 31.1958 37.3069 31.1958 38.9696C31.1958 40.63 32.5381 41.9782 34.1966 41.9782C35.8526 41.9782 37.1973 40.6324 37.1973 38.9696C37.1973 37.3069 35.8526 35.961 34.1966 35.961ZM34.1966 40.7719C33.2034 40.7719 32.3966 39.9631 32.3966 38.9673C32.3966 37.9715 33.2034 37.1626 34.1966 37.1626C35.1897 37.1626 35.9965 37.9715 35.9965 38.9673C35.9965 39.9654 35.1897 40.7719 34.1966 40.7719Z" fill="white"/>
<path d="M29.9245 38.6503C30.0731 38.3878 30.158 38.0874 30.158 37.7633C30.158 36.7675 29.3511 35.9587 28.3581 35.9587H25.999V41.9735H28.9596C29.9527 41.9735 30.7596 41.1646 30.7596 40.1688C30.7572 39.5326 30.4245 38.972 29.9245 38.6503ZM27.1974 37.1626H28.3581C28.6883 37.1626 28.9572 37.4323 28.9572 37.7633C28.9572 38.0944 28.6883 38.3641 28.3581 38.3641H27.1974V37.1626ZM28.9572 40.7719H27.1974V39.568H28.9572C29.2875 39.568 29.5564 39.8377 29.5564 40.1688C29.5564 40.5 29.2875 40.7719 28.9572 40.7719Z" fill="white"/>
<path d="M22.2976 35.961C20.6415 35.961 19.2969 37.3069 19.2969 38.9696C19.2969 40.63 20.6391 41.9782 22.2976 41.9782C23.9559 41.9782 25.2982 40.6324 25.2982 38.9696C25.2982 37.3069 23.9536 35.961 22.2976 35.961ZM22.2976 40.7719C21.3044 40.7719 20.4976 39.9631 20.4976 38.9673C20.4976 37.9715 21.3044 37.1626 22.2976 37.1626C23.2906 37.1626 24.0975 37.9715 24.0975 38.9673C24.0975 39.9654 23.2906 40.7719 22.2976 40.7719Z" fill="white"/>
<path d="M15.1993 41.9758H13.9985V35.961H16.8248C17.3295 35.961 17.7636 36.1337 18.1292 36.4813C18.502 36.8338 18.7921 37.3517 18.7992 37.865C18.804 38.331 18.6931 38.7094 18.3982 39.0689C18.1175 39.4167 17.832 39.6792 17.398 39.7714L18.8984 41.9758H17.4994L16.0886 39.8945C16.0321 39.8164 15.9424 39.7714 15.8458 39.7714H15.1993V41.9758ZM15.1993 38.6668H16.7988C17.2399 38.6668 17.5985 38.3073 17.5985 37.865C17.5985 37.4228 17.2399 37.0632 16.7988 37.0632H15.1993V38.6668Z" fill="white"/>
<path fill-rule="evenodd" clip-rule="evenodd" d="M16.7098 5.67494C15.6872 4.65139 14.3218 4.09119 12.9087 4.11541C10.3244 4.11541 8.13093 5.94304 7.34621 8.40602V8.40694C6.93149 9.69781 6.93149 11.0957 7.34621 12.3866L7.34597 12.3868C8.13048 14.8502 10.3242 16.6782 12.9087 16.6782C14.2478 16.6782 15.3928 16.3172 16.2818 15.6847L16.2822 15.685V15.6833C16.7982 15.3241 17.2396 14.859 17.5798 14.316C17.9199 13.773 18.1517 13.1634 18.2612 12.5238H12.909V8.51961H22.2537C22.3681 9.21787 22.4252 9.92513 22.4243 10.6336C22.4243 13.7974 21.3467 16.4732 19.4764 18.2825H19.4744L19.4761 18.2839C17.8342 19.8723 15.5827 20.7936 12.9087 20.7936C11.072 20.7935 9.27141 20.2578 7.70805 19.2462C6.14469 18.2347 4.88004 16.7872 4.05531 15.0652V15.0646C3.36171 13.6162 3.00049 12.0177 3.00049 10.3968C3.00049 8.77567 3.36178 7.17703 4.05551 5.72853L4.05531 5.72836C4.88004 4.00642 6.14469 2.55888 7.70805 1.54735C9.27141 0.535814 11.072 9.85728e-05 12.9087 1.07412e-05C15.3689 -0.0301386 17.7447 0.940165 19.538 2.70751L16.7098 5.67494ZM31.3783 12.2133V19.5416H29.1626V1.44398H35.0391C35.7406 1.4286 36.438 1.55914 37.0911 1.82804C37.7443 2.09695 38.3402 2.49891 38.8445 3.01072C39.3538 3.49146 39.7592 4.08103 40.0334 4.73981C40.3076 5.3986 40.4442 6.11133 40.434 6.8301C40.4486 7.55272 40.3141 8.27011 40.0397 8.93309C39.7654 9.59607 39.3576 10.189 38.8445 10.6711C37.8169 11.6993 36.5484 12.2129 35.0391 12.2119H31.3783V12.2133ZM31.3783 3.67207V9.98958H35.0942C35.5016 10.0022 35.907 9.92557 36.2845 9.76445C36.662 9.60332 37.0033 9.3613 37.2865 9.05387C37.5683 8.76642 37.7923 8.42261 37.9453 8.04276C38.0982 7.66291 38.177 7.25474 38.177 6.84238C38.177 6.43002 38.0982 6.02185 37.9453 5.642C37.7923 5.26215 37.5683 4.91834 37.2865 4.63089C37.0068 4.31697 36.6667 4.06902 36.2887 3.90347C35.9108 3.73792 35.5036 3.65855 35.0942 3.67063H31.3783V3.67207ZM45.5395 6.75499C47.1772 6.75499 48.47 7.21419 49.4177 8.13257C50.3655 9.05095 50.8389 10.3101 50.838 11.9101V19.5416H48.7186V17.8233H48.6223C47.7048 19.2384 46.4845 19.9459 44.9615 19.9459C43.6614 19.9459 42.5737 19.5416 41.6984 18.733C41.2783 18.3618 40.9425 17.897 40.7154 17.3724C40.4882 16.8478 40.3755 16.2767 40.3855 15.7006C40.3855 14.4193 40.847 13.4003 41.77 12.6436C42.693 11.887 43.9252 11.5077 45.4666 11.5058C46.7822 11.5058 47.8658 11.7585 48.7172 12.2639V11.7325C48.7197 11.3397 48.6389 10.9513 48.4806 10.5954C48.3223 10.2395 48.0905 9.92502 47.802 9.67476C47.2161 9.12009 46.4525 8.81744 45.6634 8.82714C44.4257 8.82714 43.4462 9.37489 42.7251 10.4704L40.7736 9.18092C41.847 7.56363 43.4357 6.75499 45.5395 6.75499ZM42.6728 15.7511C42.6713 16.047 42.7372 16.339 42.8651 16.6027C42.9929 16.8664 43.1789 17.0943 43.4077 17.2673C43.8977 17.6718 44.506 17.886 45.1294 17.8738C46.0644 17.8722 46.9607 17.4817 47.6217 16.7879C48.3557 16.063 48.7227 15.2125 48.7227 14.2364C48.0319 13.6588 47.0685 13.37 45.8326 13.37C44.9326 13.37 44.1821 13.5976 43.5811 14.053C42.9742 14.5151 42.6728 15.0768 42.6728 15.7511ZM55.6056 25L63.0043 7.1594H60.5917L57.1718 16.0544H57.1236L53.6073 7.1594H51.1989L56.0639 18.7576L53.3183 25H55.6056Z" fill="white"/>
</svg>
