<svg width="153" height="22" viewBox="0 0 153 22" fill="none" xmlns="http://www.w3.org/2000/svg">
<path d="M10.9205 4.45475C7.30809 6.1638 5.5297 8.54526 5.55748 10.3104C5.55748 11.0108 5.9743 12.2716 7.91942 12.6358C7.9472 12.6358 7.9472 12.6918 7.91942 12.6918C7.25252 12.7759 4.69607 12.944 3.39007 10.7866C1.77839 8.20906 2.77874 4.76294 4.25148 2.77371H0V20.9849C1.83397 20.9009 4.47378 20.5647 7.11358 19.3039C10.7259 17.5948 12.5043 15.2134 12.4766 13.4483C12.4766 12.7478 12.0597 11.4871 10.1146 11.1228C10.0868 11.1228 10.0868 11.0668 10.1146 11.0668C10.7815 10.9828 13.338 10.8147 14.644 12.972C16.2279 15.5776 15.2275 19.0237 13.7548 20.9849H18.034V2.77371C16.2001 2.88578 13.5603 3.22199 10.9205 4.45475Z" fill="white"/>
<path d="M23.897 12.1595C23.897 8.85344 26.4812 6.16379 29.8157 6.16379C31.5385 6.16379 32.9279 6.80818 33.9004 7.76077L32.4277 9.9181C31.733 9.30172 30.955 8.93749 29.9824 8.93749C28.2874 8.93749 26.8702 10.3103 26.8702 12.1595C26.8702 13.9806 28.2874 15.3534 29.9824 15.3534C31.0106 15.3534 31.7886 14.9612 32.4555 14.4009L33.9282 16.5302C32.9279 17.4547 31.4829 18.1272 29.8435 18.1272C26.3978 18.1552 23.897 15.4375 23.897 12.1595Z" fill="white"/>
<path d="M46.2935 17.791H43.2925V10.8427L38.124 17.791H35.373V6.44397H38.3741V12.972L43.348 6.44397H46.2935V17.791Z" fill="white"/>
<path d="M48.4609 17.791V6.44397H51.462V10.5905H56.3526V6.44397H59.3536V17.791H56.3526V13.3082H51.462V17.791H48.4609Z" fill="white"/>
<path d="M70.3299 6.44396H72.9141V17.7909H70.3299L70.1632 16.4461C69.3295 17.4267 68.1625 18.0711 66.6619 18.0711C63.6053 18.0711 61.0767 15.4375 61.0767 12.1315C61.0767 8.82542 63.6053 6.1918 66.6619 6.1918C68.1625 6.1918 69.3295 6.8362 70.1632 7.8168L70.3299 6.44396ZM70.0798 12.1595C70.0798 10.3384 68.746 9.02154 67.0232 9.02154C65.3281 9.02154 64.0221 10.3384 64.0221 12.1595C64.0221 13.9806 65.3004 15.2694 67.0232 15.2694C68.7182 15.2414 70.0798 13.9806 70.0798 12.1595Z" fill="white"/>
<path d="M86.8911 12.1034C86.8911 15.4375 84.3625 18.0431 81.3059 18.0431C79.9443 18.0431 78.8606 17.5108 78.0547 16.6703V21.9935H75.0537V6.44396H77.5824L77.7769 7.84483C78.6105 6.8362 79.8054 6.19181 81.3059 6.19181C84.3903 6.16379 86.8911 8.82543 86.8911 12.1034ZM83.9179 12.1315C83.9179 10.3103 82.6397 8.99353 80.9169 8.99353C79.2218 8.99353 77.8602 10.3103 77.8602 12.1315C77.8602 13.9526 79.2218 15.2414 80.9169 15.2414C82.6397 15.2414 83.9179 13.9526 83.9179 12.1315Z" fill="white"/>
<path d="M97.3948 6.35991H99.979V17.7069H97.367L97.2003 16.3621C96.3666 17.3427 95.1996 17.9871 93.699 17.9871C90.6424 17.9871 88.1138 15.3534 88.1138 12.0474C88.1138 8.74138 90.6424 6.10776 93.699 6.10776C95.1996 6.10776 96.3666 6.75215 97.2003 7.73276L97.3948 6.35991ZM97.1447 12.0474C97.1447 10.2263 95.8109 8.90948 94.0881 8.90948C92.393 8.90948 91.1148 10.2263 91.1148 12.0474C91.1148 13.8685 92.393 15.1573 94.0881 15.1573C95.7831 15.1573 97.1447 13.8685 97.1447 12.0474Z" fill="white"/>
<path d="M117.04 12.2435C117.04 15.5216 114.456 18.1272 111.066 18.1272C107.676 18.1272 105.12 15.5216 105.12 12.2435V8.20905C105.12 3.69828 107.231 1.48491 110.399 1.09267C112.678 0.784483 113.511 0.560345 114.623 0L115.095 1.4569C113.817 2.15733 112.567 2.38147 110.594 2.66164C108.371 2.99784 106.842 4.51078 106.842 8.26509V8.68534C107.759 7.1444 109.343 6.30388 111.122 6.30388C114.456 6.3319 117.04 8.9375 117.04 12.2435ZM115.234 12.2435C115.234 9.89009 113.428 8.06897 111.122 8.06897C108.788 8.06897 106.954 9.89009 106.954 12.2435C106.954 14.625 108.788 16.4181 111.122 16.4181C113.4 16.3901 115.234 14.597 115.234 12.2435Z" fill="white"/>
<path d="M126.96 6.61208H128.794V17.819H127.016V16.1099C126.21 17.3147 124.96 18.0991 123.32 18.0991C120.291 18.0991 118.096 15.5216 118.096 12.2435C118.096 8.96553 120.291 6.35992 123.292 6.35992C124.904 6.35992 126.127 7.08837 126.933 8.23708V6.61208H126.96ZM127.099 12.2155C127.099 9.86208 125.654 8.09699 123.487 8.09699C121.32 8.09699 119.902 9.83406 119.902 12.2155C119.902 14.597 121.32 16.306 123.487 16.306C125.682 16.306 127.099 14.597 127.099 12.2155Z" fill="white"/>
<path d="M130.712 17.7909V6.61206H132.546V11.2349H138.965V6.61206H140.799V17.7909H138.965V12.9159H132.546V17.7909H130.712Z" fill="white"/>
<path d="M142.688 17.7909V6.61206H144.494V11.2069H146.717L149.774 6.61206H151.886L148.162 11.9914L152.469 17.7909H150.33L146.717 13H144.494V17.7909H142.688Z" fill="white"/>
</svg>
