<svg width="141" height="22" viewBox="0 0 141 22" fill="none" xmlns="http://www.w3.org/2000/svg">
<path d="M65.1218 8.44312C64.4204 7.30339 63.5437 6.339 62.4916 5.63763C61.3519 4.93626 60.1245 4.58558 58.7218 4.58558C58.4588 4.58558 58.1081 4.58558 57.8451 4.58558C56.53 4.76092 55.3026 5.28695 54.3382 5.98832C54.0752 6.25133 53.8122 6.42668 53.6368 6.68969C53.3738 6.33901 53.1985 5.98832 53.0231 5.72531C52.5848 5.19928 52.3218 4.84859 52.2341 4.84859C51.7081 4.41024 50.919 4.41024 50.4807 4.93626C50.0423 5.46229 50.0423 6.16366 50.5683 6.60202C50.5683 6.60202 50.919 6.9527 51.2697 7.5664C51.4451 7.82942 51.5327 8.26777 51.7081 8.61846C51.8834 8.96914 51.9711 9.4075 51.9711 9.93353V20.4541C51.9711 21.1554 52.4971 21.6815 53.1985 21.6815C53.8998 21.6815 54.4259 21.1554 54.4259 20.4541V17.9993C54.6889 18.1746 55.0396 18.2623 55.3026 18.4376C56.3546 18.876 57.4067 19.139 58.5464 19.139C58.8094 19.139 59.1601 19.139 59.5108 19.0513C60.3875 18.876 61.2642 18.7007 62.0533 18.2623C63.193 17.5609 64.1574 16.6842 64.8588 15.6322C65.5601 14.4924 65.9108 13.265 65.9108 11.8623C65.9108 11.5993 65.9108 11.2486 65.8231 10.9856C65.7355 10.1089 65.4725 9.14449 65.1218 8.44312ZM62.3163 15.0185C61.9656 15.4568 61.5272 15.8075 61.0012 16.0705C60.4752 16.3335 59.8615 16.5089 59.3355 16.5965C59.0724 16.5965 58.8971 16.5965 58.6341 16.5965C57.8451 16.5965 57.056 16.4212 56.3546 16.0705C55.6533 15.8075 55.1272 15.3691 54.5135 14.9308V9.75818C54.7766 8.96914 55.3026 8.35544 55.9163 7.91709C56.53 7.39106 57.2314 7.12805 58.1081 7.04037C58.2834 7.04037 58.4588 7.04037 58.7218 7.04037C59.8615 7.04037 61.0012 7.47873 61.8779 8.1801C62.3163 8.53079 62.667 8.96914 62.93 9.49517C63.193 10.0212 63.3683 10.6349 63.456 11.1609C63.456 11.3363 63.456 11.5116 63.456 11.7746C63.456 13.002 63.0177 14.1417 62.3163 15.0185Z" fill="white"/>
<path d="M31.1053 5.54996C29.9656 4.84859 28.6505 4.58558 27.5108 4.58558C27.2478 4.58558 26.8094 4.58558 26.5464 4.67325C25.8451 4.76092 25.4067 5.37462 25.4944 6.07599C25.5821 6.77736 26.1958 7.30339 26.8971 7.12805C27.1601 7.12805 27.3355 7.12805 27.5985 7.12805C28.3875 7.12805 29.2642 7.39106 29.9656 7.82941C30.7547 8.26777 31.2807 8.88147 31.719 9.58284C32.1574 10.2842 32.4204 11.1609 32.4204 11.95C32.4204 12.739 32.1574 13.6157 31.719 14.3171C31.2807 15.1061 30.667 15.6322 29.9656 16.0705C29.2642 16.5089 28.3875 16.7719 27.5985 16.7719C26.8095 16.7719 25.9327 16.5089 25.2314 16.0705C24.4423 15.6322 23.9163 15.0185 23.4779 14.3171C23.0396 13.528 22.7766 12.739 22.7766 11.95C22.7766 11.1609 23.0396 10.2842 23.4779 9.58284C23.5656 9.4075 23.741 9.23215 23.741 9.05681C24.1793 8.53078 24.004 7.74174 23.4779 7.39106C22.9519 6.9527 22.1629 7.12805 21.8122 7.65407C21.6368 7.91709 21.4615 8.1801 21.2862 8.35544C20.5848 9.49517 20.3218 10.7226 20.3218 11.95C20.3218 13.1774 20.5848 14.4924 21.2862 15.5445C21.8999 16.6842 22.8642 17.6486 23.9163 18.2623C25.056 18.9637 26.2834 19.2267 27.5108 19.2267C28.7382 19.2267 29.9656 18.876 31.0177 18.2623C32.1574 17.6486 33.1218 16.6842 33.7355 15.6322C34.4368 14.4924 34.6999 13.265 34.6999 12.0376C34.6999 10.8102 34.4368 9.49517 33.7355 8.44311C33.1218 7.21572 32.2451 6.25133 31.1053 5.54996Z" fill="white"/>
<path d="M20.6725 4.58557C20.1465 4.14721 19.2697 4.32256 18.9191 4.84858C18.656 5.19927 18.393 5.63762 18.13 5.98831C17.7793 6.68968 17.4287 7.21571 17.2533 7.91708L14.4478 15.0184L11.993 10.7226C11.73 10.3719 11.2917 10.0212 10.941 10.0212C10.5026 10.0212 10.1519 10.2842 9.88892 10.6349L7.34646 15.0184L3.31358 4.67324C3.05057 4.23488 2.61221 3.97187 2.17385 3.97187C1.99851 3.97187 1.91084 3.97187 1.7355 4.05954C1.03413 4.32256 0.771113 5.02393 1.03413 5.7253L6.03139 18.4376C6.20673 18.876 6.64509 19.139 7.08344 19.2267C7.60947 19.2267 8.04783 18.9637 8.22317 18.613L10.941 13.8787L13.5711 18.613C13.8341 19.0513 14.2725 19.3143 14.7108 19.3143C15.2369 19.3143 15.5876 18.9637 15.7629 18.5253L19.4451 8.96913C19.6204 8.44311 19.8834 7.91708 20.1465 7.39105C20.4095 7.04036 20.5848 6.68968 20.8478 6.339C21.2862 5.81297 21.1985 4.93625 20.6725 4.58557Z" fill="white"/>
<path d="M8.92439 8.18009C9.1874 8.79378 9.88877 9.0568 10.5901 8.79378C11.2915 8.53077 11.4669 7.74173 11.2038 7.12803L10.0641 4.58556C9.8011 4.14721 9.36275 3.88419 8.92439 3.88419C8.74905 3.88419 8.66138 3.88419 8.39836 4.05954C7.78466 4.32255 7.52165 5.11159 7.78466 5.72529L8.92439 8.18009Z" fill="white"/>
<path d="M46.8861 5.54996C45.7464 4.84859 44.519 4.58558 43.2916 4.58558C43.0286 4.58558 42.6779 4.58558 42.3272 4.58558C41.6258 4.67325 41.1875 5.28695 41.2751 5.98832C41.3628 6.68969 41.9765 7.21572 42.6779 7.04037C42.9409 7.04037 43.1162 7.04037 43.3793 7.04037C44.1683 7.04037 45.045 7.30339 45.7464 7.74174C46.5354 8.1801 47.0614 8.7938 47.4998 9.49517C47.9382 10.1965 48.2012 11.0733 48.2012 11.8623C48.2012 12.6513 47.9382 13.528 47.4998 14.2294C47.0614 15.0185 46.4477 15.5445 45.7464 15.9828C45.045 16.4212 44.1683 16.6842 43.3793 16.6842C42.5902 16.6842 41.7135 16.4212 41.0121 15.9828C40.2231 15.5445 39.6971 14.9308 39.2587 14.2294C38.8203 13.528 38.5573 12.6513 38.5573 11.8623C38.5573 11.0733 38.8203 10.1965 39.2587 9.49517C39.3464 9.31983 39.5217 9.14448 39.5217 8.96914C39.9601 8.44311 39.7847 7.65407 39.2587 7.30339C38.7327 6.86503 37.9436 7.04037 37.593 7.5664C37.4176 7.82942 37.2423 8.09243 37.0669 8.26777C36.3656 9.4075 36.1025 10.6349 36.1025 11.8623C36.1025 13.0897 36.3656 14.4048 37.0669 15.4568C37.6806 16.5965 38.645 17.5609 39.6971 18.1746C40.8368 18.876 42.0642 19.139 43.2916 19.139C44.519 19.139 45.7464 18.7883 46.7984 18.1746C47.9382 17.5609 48.9025 16.5965 49.5162 15.5445C50.2176 14.4048 50.4806 13.1774 50.4806 11.95C50.4806 10.7226 50.2176 9.4075 49.5162 8.35544C48.9025 7.21572 47.9382 6.25133 46.8861 5.54996Z" fill="white"/>
<path d="M94.755 11.2486C94.755 10.1965 94.3167 9.05681 93.7907 8.1801C93.6153 7.91708 93.5276 7.65407 93.2646 7.47873C92.8263 6.9527 92.1249 6.77736 91.5989 7.21571C91.0728 7.65407 90.8975 8.44311 91.3359 8.88147C91.5112 9.05681 91.5989 9.23215 91.5989 9.4075C92.0372 10.1089 92.3003 10.9856 92.3003 11.7746C92.3003 12.5637 92.0372 13.4404 91.5989 14.1417C91.1605 14.8431 90.6345 15.4568 89.8455 15.8952C89.1441 16.3335 88.2674 16.5965 87.4783 16.5965C86.6893 16.5965 85.8126 16.3335 85.1112 15.8952C84.4098 15.4568 83.7961 14.8431 83.3578 14.1417C82.9194 13.4404 82.6564 12.5637 82.6564 11.7746C82.6564 10.9856 82.9194 10.1089 83.3578 9.4075C83.7961 8.70613 84.3222 8.09243 85.1112 7.65407C85.8126 7.21571 86.6893 6.9527 87.4783 6.9527C87.7413 6.9527 87.9167 6.9527 88.1797 6.9527C88.8811 7.04037 89.4948 6.60201 89.5824 5.90064C89.6701 5.19927 89.2318 4.58558 88.5304 4.4979C88.2674 4.4979 87.829 4.41023 87.566 4.41023C86.3386 4.41023 85.1112 4.67325 83.9715 5.37462C82.8318 6.07599 81.8674 7.04037 81.3413 8.09243C80.7276 9.23215 80.377 10.4595 80.377 11.6869C80.377 12.9143 80.64 14.2294 81.3413 15.2815C82.0427 16.5089 83.0071 17.3856 84.0592 17.9116C85.1989 18.5253 86.3386 18.876 87.566 18.876C88.7934 18.876 90.0208 18.613 91.1605 17.9116C92.0372 17.3856 92.8263 16.6842 93.3523 15.8952C93.6153 16.5965 93.966 17.1226 94.3167 17.6486C94.6674 18.2623 95.4564 18.35 95.9824 17.9993C96.5961 17.6486 96.6838 16.8596 96.2455 16.3335C95.4564 15.1061 94.755 13.265 94.755 11.2486Z" fill="white"/>
<path d="M140.782 16.5965C139.818 15.1061 139.116 13.265 139.116 11.2486C139.116 10.1965 138.678 9.05681 138.152 8.1801C137.977 7.91708 137.889 7.65407 137.626 7.47873C137.188 6.9527 136.486 6.77736 135.96 7.21571C135.434 7.65407 135.259 8.44311 135.697 8.88147C135.873 9.05681 135.96 9.23215 135.96 9.4075C136.399 10.1089 136.662 10.9856 136.662 11.7746C136.662 12.5637 136.399 13.4404 135.96 14.1417C135.522 14.8431 134.996 15.4568 134.207 15.8952C133.505 16.3335 132.629 16.5965 131.84 16.5965C131.051 16.5965 130.174 16.3335 129.473 15.8952C128.771 15.4568 128.157 14.8431 127.719 14.1417C127.281 13.4404 127.018 12.5637 127.018 11.7746C127.018 10.9856 127.281 10.1089 127.719 9.4075C128.157 8.70613 128.683 8.09243 129.473 7.65407C130.174 7.21571 131.051 6.9527 131.84 6.9527C132.103 6.9527 132.278 6.9527 132.541 6.9527C133.242 7.04037 133.856 6.60201 133.944 5.90064C134.031 5.19927 133.593 4.58558 132.892 4.4979C132.629 4.4979 132.19 4.41023 131.927 4.41023C130.7 4.41023 129.473 4.67325 128.333 5.37462C127.193 6.07599 126.229 7.04037 125.703 8.09243C125.089 9.23215 124.738 10.4595 124.738 11.6869C124.738 12.9143 125.001 14.2294 125.703 15.2815C126.404 16.5089 127.368 17.3856 128.42 17.9116C129.56 18.5253 130.7 18.876 131.927 18.876C133.155 18.876 134.382 18.613 135.522 17.9116C136.399 17.3856 137.188 16.6842 137.714 15.8952C137.977 16.5965 138.327 17.1226 138.678 17.6486C139.029 18.1746 139.818 18.35 140.344 17.9993C140.957 17.9116 141.22 17.2102 140.782 16.5965Z" fill="white"/>
<path d="M102.996 9.58283C101.505 9.58283 100.804 9.14447 100.716 8.61844C100.716 8.00474 101.505 7.2157 103.434 7.04036C103.697 7.04036 105.1 6.95269 106.503 8.00475C107.116 8.35543 107.818 8.26776 108.256 7.74173C108.607 7.12803 108.519 6.42666 107.993 5.9883C105.889 4.49789 103.873 4.58557 103.347 4.58557C99.8397 4.84858 98.174 6.86502 98.3493 8.79379C98.437 10.4595 100.015 12.3006 103.259 12.213C105.188 12.1253 106.503 12.476 107.204 13.0897C107.467 13.3527 107.642 13.791 107.642 14.2294C107.642 15.8952 105.538 16.8595 103.522 16.8595C102.821 16.8595 100.979 16.4212 99.8397 14.7554C99.489 14.1417 98.7 14.0541 98.0863 14.4924C97.4726 14.8431 97.3849 15.6321 97.8233 16.2458C99.489 18.5253 101.856 19.3143 103.522 19.3143C106.766 19.3143 110.185 17.4732 110.185 14.0541C110.185 12.8267 109.747 11.8623 109.045 11.0732C107.555 10.1089 105.626 9.58283 102.996 9.58283Z" fill="white"/>
<path d="M116.585 9.58283C115.094 9.58283 114.393 9.14447 114.305 8.61844C114.305 8.00474 115.094 7.2157 117.023 7.04036C117.286 7.04036 118.689 6.95269 120.092 8.00475C120.705 8.35543 121.407 8.26776 121.845 7.74173C122.196 7.12803 122.108 6.42666 121.582 5.9883C119.478 4.49789 117.461 4.58557 116.935 4.58557C113.429 4.84858 111.763 6.86502 111.938 8.79379C112.026 10.4595 113.604 12.3006 116.848 12.213C118.777 12.1253 120.092 12.476 120.793 13.0897C121.056 13.3527 121.231 13.791 121.231 14.2294C121.231 15.8952 119.127 16.8595 117.111 16.8595C116.409 16.8595 114.568 16.4212 113.429 14.7554C113.078 14.1417 112.289 14.0541 111.675 14.4924C111.061 14.8431 110.974 15.6321 111.412 16.2458C113.078 18.5253 115.445 19.3143 117.111 19.3143C120.355 19.3143 123.774 17.4732 123.774 14.0541C123.774 12.8267 123.335 11.8623 122.634 11.0732C121.144 10.1089 119.215 9.58283 116.585 9.58283Z" fill="white"/>
<path d="M79.3242 14.8431C78.7105 13.528 78.0968 11.8623 76.8694 10.7226C78.0968 9.49516 78.9735 7.91708 78.9735 5.72529C78.9735 5.02392 78.3598 4.4979 77.7461 4.4979C77.0448 4.4979 76.5188 5.1116 76.5188 5.72529C76.5188 9.31982 72.3982 10.8979 70.1187 11.5116V6.60201C70.1187 4.4979 69.505 2.48146 68.453 0.640361C68.1023 0.0266623 67.3133 -0.0610087 66.7872 0.289676C66.1735 0.640361 66.0859 1.4294 66.4366 1.95543C67.3133 3.35817 67.7516 4.93625 67.7516 6.51434V17.7363C67.7516 18.4376 68.3653 18.9637 68.979 18.9637C69.5927 18.9637 70.2064 18.35 70.2064 17.7363V14.0541C71.3461 13.7911 73.2749 13.265 75.116 12.1253C76.0804 12.9143 76.6941 14.3171 77.2201 15.7198C77.6585 16.7719 78.0968 17.7363 78.7105 18.4376C78.9735 18.7006 79.3242 18.9637 79.6749 18.9637C79.9379 18.9637 80.2009 18.876 80.3763 18.7006C80.9023 18.2623 81.0777 17.5609 80.6393 16.9472C80.1133 16.6842 79.7626 15.7198 79.3242 14.8431Z" fill="white"/>
</svg>
