<svg xmlns="http://www.w3.org/2000/svg" width="33" height="53" viewBox="0 0 33 53">
  <path fill="#FFFFFF" fill-rule="evenodd" d="M27.2752213,-2.13162821e-14 L4.84321785,-2.13162821e-14 C2.09769432,-2.13162821e-14 -9.9475983e-14,1.99209532 -9.9475983e-14,4.59940736 L-9.9475983e-14,47.5262282 C-9.9475983e-14,49.9782642 2.09769432,52.1256355 4.84321785,52.1256355 L27.2752213,52.1256355 C30.0207448,52.1256355 32.1184392,49.9782629 32.1184392,47.5262269 L32.1184392,4.59940721 C32.1184392,1.9949652 30.0207448,-2.13162821e-14 27.2752213,-2.13162821e-14 Z M16.0592196,50.593481 C14.371789,50.593481 12.9919668,49.2136587 12.9919668,47.5262282 C12.9919668,45.8387976 14.371789,44.4589754 16.0592196,44.4589754 C17.7466502,44.4589754 19.1264724,45.8387976 19.1264724,47.5262282 C19.1264724,49.2136587 17.7466502,50.593481 16.0592196,50.593481 Z M27.6606023,42.9297649 L4.45807884,42.9297649 L4.45807884,7.66666014 L27.6634031,7.66666014 L27.6606023,42.9297649 Z"/>
</svg>
