<svg width="111" height="21" viewBox="0 0 111 21" xmlns="http://www.w3.org/2000/svg"><g fill-rule="evenodd" fill="#FFF"><path d="M7 1.637H5.966c-1.561 0-3.072 1.032-3.072 4.029 0 2.895 1.385 3.827 3.072 3.827h1.032V1.637zm-1.612 9.467l-3.072 6.9H.075l3.374-7.378C1.862 9.82.805 8.36.805 5.666.805 1.889 3.197 0 6.043 0h2.895v18.004H7v-6.9H5.388zM46.61 11.658c0-3.978 1.536-6.521 4.507-6.521 1.133 0 1.788.302 2.342.654l-.277 1.864c-.53-.454-1.284-.881-2.09-.881-1.41 0-2.417 1.586-2.417 4.784 0 3.172.755 4.985 2.341 4.985.957 0 1.687-.377 2.14-.78l.454 1.46c-.68.579-1.486.957-2.644.957-2.72 0-4.357-2.19-4.357-6.522zm-5.741.025v6.32h-1.964V5.314h1.964v5.867l3.046-5.867h1.99l-3.148 5.968 3.6 6.723h-2.14l-3.348-6.32zM31.628 10.5h3.248c0-2.166-.353-3.752-1.486-3.752-1.208 0-1.636 1.486-1.762 3.752zm2.165 7.68c-2.619 0-4.23-2.09-4.23-5.992 0-4.08 1.133-7.051 3.827-7.051 2.116 0 3.5 1.586 3.5 5.891v1.084h-5.288c0 2.87.806 4.381 2.367 4.381 1.108 0 1.99-.504 2.493-.856l.454 1.51c-.806.63-1.864 1.033-3.123 1.033zM25.433 6.9h-2.19v.226c0 2.669-.126 6.571-1.184 9.266h3.375V6.899zm2.946 13.596h-1.762v-2.492h-5.439v2.492h-1.762v-4.104h.78c1.158-2.695 1.284-6.622 1.284-9.996V5.313h5.892v11.079h1.007v4.104zM18.283 5.313v12.69h-1.94v-5.69h-2.92v5.69h-1.964V5.314h1.964V10.7h2.92V5.313h1.94zM65.631 1.032h-3.903c-.075 4.558-.201 8.033-.403 10.626-.226 2.694-.63 4.482-1.309 5.314h5.615V1.032zm1.335 16.972H59.26L59.084 21h-.982v-4.028h.53c.88-.731 1.308-2.745 1.56-5.314.252-2.669.327-6.647.403-11.658h6.295v16.972h1.234V21h-.982l-.176-2.996zM70.568 10.928h4.61c.2-3.374-.807-4.885-2.091-4.885-1.335 0-2.418 1.712-2.519 4.885zm2.77 6.295c1.687 0 2.568-1.36 2.568-1.36l.378.957s-.956 1.435-2.97 1.435c-2.694 0-3.929-2.443-3.929-6.597s1.561-6.597 3.702-6.597c2.19 0 3.6 2.292 3.197 6.8h-5.74c.05 3.474.956 5.362 2.794 5.362zM84.042 11.885H79.71v6.119h-1.184V5.313h1.184v5.615h4.33V5.313h1.184v12.69h-1.183v-6.118M89.205 10.953v6.119h.756c1.787 0 2.996-.881 2.996-3.072 0-2.14-1.057-3.047-2.87-3.047h-.882zm-1.182-5.64h1.182v4.709h.933c2.417 0 3.978 1.309 3.978 3.953 0 2.694-1.662 4.029-4.054 4.029h-2.04V5.313zM97.315 6.295v11.709h-1.158V5.313h5.363v.982h-4.205M109.252 9.165c0-.654.05-1.208.101-1.737h-.076a11.26 11.26 0 0 1-.68 1.637l-4.129 8.939h-1.007V5.313h1.108v8.813c0 .68-.051 1.233-.1 1.787h.074c.177-.578.428-1.132.68-1.686l4.13-8.914h1.032v12.69h-1.133V9.166"/></g></svg>