<svg xmlns="http://www.w3.org/2000/svg" width="133" height="48" viewBox="0 0 166 60" fill="none"><g fill-rule="evenodd"><g fill="#fffffe"><path d="M41.508 19.452l.545-1.765-1.806.058c-.152 0-1.262-.034-2.336-.82l.244.02c1.107 0 2.18-.674 2.607-1.64l.777-1.742c-.974.013-1.865-.11-1.865-.11-.008 0-.71-.093-1.52-.93-.582-.6-1.302-.918-2.083-.918-.31.001-.616.05-.9.146a3.49 3.49 0 0 0 .103-.432c.247-1.63-.8-2.872-.8-2.872l-1.358-1.7-.842 1.997c-.003.007-.216.476-.595.704a3.73 3.73 0 0 0-.999-1.878C29.543 6.378 28.16 6.2 27.437 6.2c-.335 0-.575.038-.633.047l-1.64.326c.094-.37.297-1.016.664-1.596l.905-1.424-2.276.262-.725-1.557-1.404.73-1.298-1.296-1.295 1.295-1.407-.73-.724 1.556-2.275-.262.906 1.426c.368.58.57 1.223.663 1.592l-1.564-.313-.054-.008c-.216-.034-.434-.05-.653-.05-.724 0-2.106.18-3.24 1.367-.603.63-.886 1.29-1 1.878-.377-.227-.59-.687-.59-.687l-.843-2-1.38 1.713c-.168.22-1 1.388-.775 2.86.024.146.062.29.103.43-.293-.096-.6-.145-.907-.146-.78 0-1.502.318-2.085.918-.808.835-1.506.93-1.5.93 0 0-.738.134-1.88.112l.774 1.742c.43.965 1.503 1.64 2.607 1.64.084 0 .163-.012.245-.02-1.073.788-2.182.82-2.316.82L0 17.686.557 19.45c.28.91 1.217 2.417 3 2.58-.195.826-.627 1.753-1.577 2.153l-1.37.57.747 1.315c.422.71 1.412 1.54 2.82 1.54.304 0 .6-.032.883-.093a9.94 9.94 0 0 0 .27.971c.418 1.262.058 2.142.053 2.152L4.72 32.07l1.508.402c.02.007.476.134 1.046.134a3.16 3.16 0 0 0 .739-.084 3.47 3.47 0 0 0 .506-.163c.196.354.433.678.71.967.967 1.004 2.34 1.512 4.075 1.512h.006l1.24-.017-2.56 1.076 1.944.95 2.398 1.074-.244.67.67.31c.06.028 1.35.6 3.492.734l.8.025.797-.026c2.127-.127 3.406-.705 3.466-.733l.672-.31-.245-.672c.877-.324 1.745-.753 2.424-1.087l1.908-.938-2.553-1.075 1.245.017c1.737 0 3.1-.51 4.076-1.513a4.66 4.66 0 0 0 .708-.966c.395.165.82.248 1.246.246a4.24 4.24 0 0 0 1.035-.13l1.516-.405-.66-1.406c-.016-.036-.376-.916.042-2.18a10.13 10.13 0 0 0 .27-.969 4.36 4.36 0 0 0 .889.093 3.29 3.29 0 0 0 2.822-1.553l.74-1.302-1.37-.568c-.952-.4-1.383-1.326-1.576-2.15 1.77-.156 2.718-1.664 3-2.58l-.001-.001z"/><path d="M21.03 7.1c-1.45.001-2.538.48-2.774 1.047l2.774 1.106 2.776-1.106C23.57 7.58 22.484 7.1 21.03 7.1zm.03 29.3h-.055c-.88.005-2.1-.176-2.673-.35l-.702 1.92c.463.166 2.03.486 3.403.486s2.94-.32 3.4-.486l-.7-1.918c-.585.172-1.795.354-2.674.348zm5.3-1.9c-.522.3-1.688.748-2.366.956l.57 1.586c1.05-.3 1.916-.63 2.63-.992l-1.182-.396.35-1.154zm-10.674 0l.35 1.154-1.183.396c.714.363 1.584.7 2.63 1l.57-1.586c-.677-.208-1.845-.655-2.366-.955h0zM21.03 5.267c1.095 0 2.166.265 3 .728a7.55 7.55 0 0 1 .323-.89l-.312.038-.326.034-.138-.3-.418-.9-.76.4-.297.152-.237-.234-.827-.826-.824.826-.236.234-.295-.152-.764-.4-.413.9-.14.3-.328-.035-.3-.038a7.75 7.75 0 0 1 .323.89c.828-.463 1.9-.728 2.988-.728h-.001zM37.724 15.56a1.29 1.29 0 0 0 .43.07c.62 0 1.217-.405 1.422-.868 0 0-1.134-.07-2.354-1.32-.387-.404-.8-.526-1.15-.526-.548 0-.96.292-.96.292 1.474.793 1.774 2.066 2.613 2.352h0zM3.9 15.63c.144 0 .288-.02.426-.07.84-.286 1.144-1.558 2.615-2.35 0 0-.412-.293-.956-.293-.354 0-.765.12-1.154.527-1.218 1.25-2.352 1.32-2.352 1.32.204.46.802.867 1.42.867h0zm33.38 9.06c-1.14-.57-1.86-2.077-2.034-2.62-.188 3-1.632 5.065-3.32 7.062-.876 1.036-1.182 2.044-1.182 2.044s.17-1.14.926-2.07c1.575-1.912 3.07-4.292 3.183-7.046.076-1.92-.412-3.478-1.175-4.763.427 1.337.366 2.975-1.082 4.503 0 0 2.885-3.493-1.148-7.075-1.614-1.362-3.38-2.204-4.288-2.8 3.284 1.083 4.888-.1 4.888-.1-1.05.92-2.407.903-3.25.77l.72.37c2.77 1.52 5.258 4.023 5.683 7.487v-.027c.643 3.402 2.077 4.276 2.077 4.276zm.843-3.964a.81.81 0 0 0 .073.002c1.544 0 2.066-1.672 2.066-1.672h-.03c-.283 0-2.58-.067-4.2-2.152-1.067-1.37-1.942-2.575-3.67-3.048l-.17-.03-.036-.175c-.048-.267.133-.517.544-.786 2.385-1.58.764-3.593.764-3.593s-.68 1.6-2.203 1.6h-.114c-.173-.01-.34-.014-.508-.05l-.28-.056s.435-1.195-.614-2.3c-.8-.83-1.75-.97-2.305-.97-.28 0-.457.037-.457.037.527.696.908 1.85.3 2.564-.526.612-1.8.642-1.8 1.556 0 .386.357.838 1 1.243 1.93 1.228 3.846 2.86 4.642 5.044.996 2.725-.126 4.534-1.726 5.57a2.25 2.25 0 0 0 1.23.527l.428.02c1.537 0 2.332-.73 2.332-.73s-.132 1.007-.93 1.942c-.74.862-1.708 1.37-3.185 1.393 0 0-.046.692.608 1.293.42.38 1.386.503 1.386.503s-1.8.37-2 3.073c-.108 1.465-.478 1.973-.478 1.973h.032c4.2 0 4.094-3.643 4.094-3.643a2.05 2.05 0 0 0 1.464 1.36c.142.038.293.052.437.052.376 0 .705-.1.705-.1s-.614-1.3-.005-3.14c.506-1.52.424-2.645.424-2.645s.566.865 1.97.873h.014a1.96 1.96 0 0 0 .953-.231 1.98 1.98 0 0 0 .725-.665c-2.8-1.176-2.524-4.97-2.524-4.97s.363.275 1.072.302v-.001zm-27.987 8.406c-1.688-1.997-3.132-4.07-3.322-7.062-.174.544-.892 2.05-2.03 2.62 0 0 1.432-.873 2.075-4.276v.027c.426-3.464 2.914-5.966 5.684-7.486l.72-.368c-.84.132-2.2.147-3.248-.77 0 0 1.605 1.2 4.887.108-.908.596-2.674 1.438-4.286 2.8-4.034 3.582-1.15 7.075-1.15 7.075-1.45-1.53-1.5-3.166-1.082-4.503C7.62 18.58 7.13 20.14 7.21 22.06c.1 2.753 1.605 5.133 3.176 7.046a4.76 4.76 0 0 1 .933 2.068s-.3-1.006-1.184-2.042zm.675-.66s.966-.123 1.386-.503c.653-.6.607-1.292.607-1.292-1.478-.02-2.446-.53-3.188-1.393-.795-.935-.927-1.942-.927-1.942s.795.73 2.33.73l.43-.02c.454-.046.884-.23 1.233-.527-1.603-1.037-2.725-2.846-1.73-5.572.797-2.183 2.7-3.815 4.644-5.044.64-.404.997-.855.997-1.242 0-.913-1.282-.944-1.807-1.556-.6-.712-.227-1.868.3-2.564 0 0-.176-.037-.457-.037-.553 0-1.515.14-2.305.97-1.05 1.097-.614 2.3-.614 2.3l-.28.056c-.167.035-.336.04-.5.05h-.1c-1.527 0-2.206-1.6-2.206-1.6s-1.62 2.013.766 3.592c.4.27.6.52.542.786l-.037.174-.174.03c-1.725.475-2.6 1.68-3.67 3.05-1.622 2.085-3.915 2.152-4.2 2.152H1.8s.523 1.672 2.068 1.672l.073-.002c.7-.026 1.073-.3 1.073-.3S5.29 24.213 2.5 25.4c0 0 .5.897 1.68.897h.013c1.405-.01 1.97-.874 1.97-.874s-.082 1.127.422 2.645c.6 1.83-.002 3.138-.002 3.138a2.99 2.99 0 0 0 .704.089 1.68 1.68 0 0 0 .436-.051c1.17-.28 1.464-1.36 1.464-1.36s-.107 3.643 4.095 3.643h.03s-.368-.508-.476-1.973c-.2-2.702-2.012-3.074-2.012-3.074h.001zm9.27-13.422h1.98v.687c-.232-.288-.686-.23-.686-.23v1s.015.487.186.698h-.98c.172-.2.186-.698.186-.698v-1s-.45-.06-.686.23v-.687zm-2.158.103l.2.238.045.058.18.255.04.06.203.333c.607 1.057 1.576 1.7 2.436 1.7s1.83-.633 2.438-1.7l.206-.338.26-.363.208-.243.034-.034c.3-.32.676-.563 1.16-.698l-.215-.126h-.01l-.854-.5-.875-.508-2.342 1.3-.007-.006-.003.006-2.342-1.3-.876.508-.854.5h-.01l-.216.126c.48.134.85.375 1.16.696.013.01.022.027.038.038h0zm2.362-4.467v.648l-.123-.058c-.006-.004-.187-.045-.5-.297-.52-.407-.53-.782-.53-.782l1.152.5zm.542 3.034V9.697l-2.532-.87.668 3.897 1.864.994zm.952-3.034l1.15-.5s-.01.375-.53.782c-.313.25-.493.293-.5.297l-.122.057v-.647zm1.32 2.04l.665-3.897-2.53.868v4.022l1.866-.993zm-5.853 10.317c.247.1.546.108.7.108l.022-.072.035-.14c.043-.223.058-.475.062-.638a.89.89 0 0 1-.333-.355c-.094-.2-.228-.294-.424-.294-.255 0-.528.156-.646.228-.093.556.313 1.06.584 1.16h0zm5.602-2.134l-1.5 1.52-2.9-.046c-.002.243-.034.485-.093.72l-.023.093 3.46.63 1.735-1.273c-.28-.413-.306-.903-.243-1.247a1.76 1.76 0 0 1-.435-.395h0z"/><path d="M23.243 17.372c-.67.672-1.314.92-1.888.98-.105.01-.21.017-.317.018h-.014c-.21 0-.422-.022-.63-.067-.038.15-.085.467.05.766.122.27.37.473.73.608l.122.048.001.132c0 .04.03.895.952 1.132l.387-.418c-.188-.448-.088-.906.185-1.13-.01.048-.133 1.17.758 1.588l.147.07-.044.157c-.014.048-.31 1.135.768 1.54l.2.074-.085.186c-.02.04-.442 1.027.554 1.588h2.16V22.9c-.768-.095-1.092-.72-1.176-1.16-.358-.06-.633-.217-.822-.47-.454-.603-.064-1.156-.06-1.186-.001.005 0 .592.358.956.178.174.39.3.708.34l.156.015.013.162c.003.035.088.83.82.956v-3.54c0-.55.158-1.1.35-1.6h-4.375v.001zm-5.813 1.623l-.058 2.253.255.04.62-2.163-.315-.665-.5.535h-.001zm1.343 8.346c-.017-.001-.034-.005-.05-.012s-.03-.018-.04-.03-.02-.028-.025-.044-.007-.034-.006-.05.005-.033.013-.05.018-.03.03-.04.027-.02.043-.025.033-.007.05-.006a.13.13 0 0 1 .122.136c-.003.034-.018.066-.044.09s-.06.034-.093.032zm5.49 1.995c.02 0 .04.002.06.008.387.112.484 1.517 1.16 1.642.066.014.128.018.18.018.196 0 .312-.084.438-.235l-.595-.904c-.337-.478-.6-1.055-1.23-1.055l-.05.002c-.12.005-.236.044-.334.114a1.29 1.29 0 0 0-.708-.218c-.393 0-.7.183-.854.183h-.006l-1.405-.14c-.22-.022-.394-.246-.457-.333l-.024-.038v-.113c-.048-1.162-.937-1.66-1.255-1.668 0 0 .038-.22-.048-.305l-.3.38-1.018-.516.726.858-.614.698c-.077.08-.068.186-.035.232l.266.237.336-.207c.017-.012.048-.017.085-.017.093 0 .232.025.358.025.138 0 .257-.03.27-.16-.042.43-.438 1.18-.178 1.77l.192.445-1.243-.18-.582.993c-.18.33-.208.688-.035.882l.218.276s.305-.327.373-.543l-.098-.1c-.083-.093-.08-.175-.028-.275l.365-.612 1.466.35.078-.134c.1-.168.244-.217.4-.217.065 0 .132.008.2.02.272.055.72.127 1.17.127.492 0 .98-.09 1.24-.383.53.796 1.61.922 1.524 1.328l-.283 1.364.54-.045.27-1.42.057-.363c-.104-.107-.355-.332-.498-.605-.19-.37-.086-.563-.263-1.043 0 0 .055-.112.18-.112v.001z"/><path d="M16.77 30.626s.487-.2.53-.346l-.066-.163c-.045-.107-.04-.223.05-.286l.525-.367.878.17s-.16-.2-.144-.47l-.837-.18-.8.486c-.138.103-.237.25-.283.417a.78.78 0 0 0 .032.504l.105.233v-.001zm6.205 2.314l.52-.01.477-1.377a10.97 10.97 0 0 1-.98-.524c.134.203.46.434.395.613l-.412 1.296z"/></g><g fill="#1a1919"><path d="M18.8 27.084a.14.14 0 0 0-.05.006c-.016.005-.03.014-.044.025s-.023.025-.03.04a.16.16 0 0 0-.012.05c-.002.018.001.034.006.05s.014.03.025.044.025.023.04.03a.16.16 0 0 0 .05.012.14.14 0 0 0 .093-.03c.026-.02.042-.054.044-.088s-.01-.068-.033-.094-.055-.04-.1-.043h0zm5.784 9.95l-.57-1.586c.678-.2 1.844-.658 2.367-.956l-.35 1.154 1.18.396c-.715.362-1.58.7-2.63 1v.001zm-3.54 1.424c-1.373 0-2.94-.32-3.403-.486l.702-1.918c.582.172 1.793.354 2.673.348h.055a11.44 11.44 0 0 0 2.674-.348l.7 1.918c-.463.168-2.03.486-3.4.486zm-6.17-2.415l1.182-.396-.35-1.154c.52.298 1.7.748 2.366.956l-.57 1.586c-1.046-.3-1.915-.63-2.628-.992zm12.393-.352l-.72-.28.417-1.57s-1.273.7-3.07 1.223L23 35.28v.557s-.96.168-1.93.168h-.055c-.972 0-1.93-.168-1.93-.168v-.558s-.386-.067-.895-.214c-1.794-.525-3.067-1.223-3.067-1.223l.215.82.204.75-.72.28-.8.3c.916.448 2.187 1.1 3.35 1.42l-.273.757s1.474.68 3.93.686v.001h.033v-.001c2.46-.007 3.933-.686 3.933-.686l-.277-.757c1.163-.322 2.436-.97 3.348-1.42l-.797-.3zM18.03 5.142l.326.036.14-.3.412-.9.764.4.297.153 1.06-1.063 1.064 1.063.297-.153.76-.4.418.9.138.3.326-.036.312-.037a7.57 7.57 0 0 0-.324.89c-.825-.466-1.896-.73-3-.73s-2.16.264-2.988.73a7.68 7.68 0 0 0-.323-.891l.3.037zm3 .588c1.464 0 2.634.5 3.28 1.013 0 0 .193-1.17.848-2.2l-1.18.134-.616-1.323-1.184.618-1.15-1.148-1.145 1.148-1.186-.618-.615 1.324-1.18-.136c.656 1.032.848 2.2.848 2.2.65-.52 1.817-1.012 3.278-1.012h0zm18.546 19.666s-.5.897-1.678.897h-.014c-1.403-.01-1.97-.874-1.97-.874s.082 1.126-.423 2.645c-.6 1.83.004 3.138.004 3.138s-.328.1-.705.1c-.144 0-.294-.014-.437-.052-1.172-.28-1.464-1.36-1.464-1.36s.108 3.642-4.094 3.642h-.033s.37-.508.48-1.973c.2-2.702 2-3.074 2-3.074s-.966-.123-1.386-.5c-.654-.6-.6-1.293-.6-1.293 1.48-.02 2.448-.53 3.186-1.393.476-.552.797-1.223.93-1.942 0 0-.795.73-2.332.73a4.41 4.41 0 0 1-.427-.021c-.728-.06-1.23-.527-1.23-.527 1.6-1.037 2.722-2.847 1.727-5.572-.797-2.183-2.714-3.815-4.642-5.043-.642-.405-1-.857-1-1.244 0-.912 1.284-.94 1.8-1.554.6-.712.227-1.868-.3-2.564 0 0 .177-.037.457-.037.556 0 1.516.14 2.306.97 1.048 1.097.613 2.3.613 2.3l.28.056c.168.035.335.042.5.05h.113c1.524 0 2.204-1.6 2.204-1.6s1.62 2.014-.765 3.593c-.4.27-.592.52-.544.786l.038.175.17.03c1.73.475 2.604 1.68 3.672 3.05 1.622 2.085 3.918 2.152 4.2 2.152h.03s-.523 1.672-2.067 1.672c-.026 0-.048 0-.073-.002-.708-.026-1.073-.3-1.073-.3s-.276 3.793 2.525 4.97h0zm-1.38-4.155c1.892 0 2.525-1.946 2.552-2.03l.2-.687-.7.022c-.25 0-2.338-.056-3.818-1.957l-.14-.177c-.967-1.243-1.885-2.425-3.525-2.965a1.69 1.69 0 0 1 .21-.157c.87-.578 1.377-1.28 1.503-2.097.187-1.227-.6-2.205-.622-2.246l-.527-.66-.33.782c-.022.048-.575 1.3-1.74 1.3h-.086l-.23-.013c.04-.558-.06-1.42-.834-2.23-.93-.975-2.073-1.12-2.67-1.12-.32 0-.53.04-.554.042l-.796.16.5.653c.385.505.735 1.435.32 1.92-.133.156-.405.28-.665.406-.536.25-1.268.597-1.268 1.48 0 .572.44 1.17 1.236 1.68 2.355 1.497 3.8 3.06 4.437 4.786.972 2.653-.296 4.167-1.527 4.965l-.55.358.484.45c.065.058.655.584 1.528.66l.473.02c.56 0 1.036-.1 1.423-.208-.116.204-.25.396-.403.574-.703.824-1.568 1.2-2.813 1.22l-.463.007-.035.47c-.005.095-.04.965.775 1.704a1.78 1.78 0 0 0 .434.285c-.553.502-1.113 1.378-1.222 2.877-.092 1.25-.387 1.714-.4 1.72l-.5.788.924.012c1.526 0 2.695-.424 3.504-1.27a4.02 4.02 0 0 0 .914-1.562 2.47 2.47 0 0 0 1.611.599c.432 0 .792-.093.832-.102l.6-.16-.26-.556c-.02-.045-.5-1.16.018-2.755.228-.7.344-1.305.4-1.787a3.21 3.21 0 0 0 1.512.36c1.46 0 2.104-1.102 2.133-1.148l.288-.507-.534-.22c-1.74-.73-2.125-2.7-2.202-3.752.158.03.337.058.54.064l.1.003zm-2.126-8.325c.352 0 .764.122 1.15.527 1.22 1.25 2.354 1.32 2.354 1.32-.206.46-.803.867-1.422.867a1.27 1.27 0 0 1-.428-.072c-.84-.286-1.14-1.558-2.613-2.35 0 0 .4-.293.958-.293h0zm-1.2.744c.705.38 1.117.9 1.477 1.34.354.44.7.865 1.217 1.042a1.78 1.78 0 0 0 .587.096c.8 0 1.583-.5 1.884-1.166l.302-.677-.73-.045c-.034 0-.976-.088-2.023-1.17-.432-.444-.953-.677-1.514-.677-.686 0-1.195.346-1.25.382l-.673.48.725.393zm.33 6.757v.026c-.425-3.464-2.913-5.965-5.683-7.486l-.72-.368c.842.132 2.2.147 3.25-.77 0 0-1.605 1.2-4.888.108.907.596 2.675 1.438 4.288 2.8 4.03 3.582 1.148 7.075 1.148 7.075 1.45-1.53 1.5-3.166 1.082-4.503.764 1.284 1.25 2.842 1.175 4.764-.1 2.753-1.608 5.133-3.183 7.046-.757.927-.925 2.068-.925 2.068s.305-1.006 1.18-2.04c1.688-2 3.132-4.073 3.32-7.063.175.544.894 2.05 2.034 2.62 0 0-1.433-.873-2.077-4.275h0zM13.27 33.522c-4.202 0-4.095-3.642-4.095-3.642S8.88 30.96 7.7 31.24a1.71 1.71 0 0 1-.437.052c-.376 0-.704-.1-.704-.1s.612-1.3.002-3.14c-.502-1.52-.42-2.645-.42-2.645s-.566.865-1.97.874h-.014c-1.168 0-1.678-.897-1.678-.897 2.8-1.176 2.525-4.97 2.525-4.97s-.365.275-1.073.302h-.074c-1.545 0-2.068-1.67-2.068-1.67h.032a5.56 5.56 0 0 0 4.199-2.152c1.068-1.37 1.944-2.575 3.67-3.048l.174-.03.037-.175c.05-.266-.133-.517-.542-.786-2.385-1.58-.766-3.592-.766-3.592s.677 1.6 2.206 1.6h.1c.173-.01.342-.017.5-.052l.28-.055s-.436-1.195.615-2.3c.8-.83 1.75-.97 2.304-.97.282 0 .456.037.456.037-.525.696-.905 1.85-.3 2.564.527.613 1.8.642 1.8 1.554 0 .388-.357.84-.998 1.244-1.93 1.228-3.847 2.86-4.644 5.044-.994 2.725.128 4.534 1.73 5.572 0 0-.503.467-1.232.526l-.43.02c-1.536 0-2.33-.728-2.33-.728s.133 1.006.927 1.942c.74.862 1.7 1.37 3.187 1.4 0 0 .048.692-.606 1.293-.42.38-1.386.503-1.386.503s1.812.37 2 3.073c.108 1.465.476 1.973.476 1.973h-.03zm.446-.3c-.001-.005-.294-.47-.388-1.72-.1-1.5-.67-2.374-1.225-2.877a1.74 1.74 0 0 0 .434-.285c.813-.74.78-1.608.774-1.704l-.03-.47-.466-.007c-1.242-.02-2.108-.395-2.8-1.22a3.82 3.82 0 0 1-.403-.574 4.8 4.8 0 0 0 1.422.208l.47-.02a2.77 2.77 0 0 0 1.531-.659l.484-.45-.55-.357c-1.235-.798-2.498-2.312-1.527-4.966.628-1.725 2.078-3.287 4.438-4.786.797-.508 1.233-1.108 1.233-1.68 0-.883-.73-1.232-1.266-1.48-.26-.126-.533-.25-.665-.406-.415-.486-.066-1.416.32-1.92l.494-.653-.8-.16c-.022-.003-.232-.042-.553-.042-.597 0-1.737.146-2.667 1.12-.776.8-.878 1.674-.838 2.23l-.23.013h-.085c-1.17 0-1.72-1.25-1.74-1.3l-.33-.782-.53.66c-.03.04-.808 1.018-.618 2.246.125.815.632 1.52 1.502 2.097a1.51 1.51 0 0 1 .208.157c-1.642.54-2.558 1.722-3.525 2.965l-.14.177a5.06 5.06 0 0 1-3.821 1.959l-.713-.022.217.686c.025.083.656 2.03 2.55 2.03l.1-.003a3.33 3.33 0 0 0 .54-.065c-.077 1.06-.465 3.023-2.204 3.752l-.53.223.288.506c.027.046.673 1.148 2.136 1.148a3.22 3.22 0 0 0 1.507-.357 9.09 9.09 0 0 0 .402 1.785c.53 1.592.037 2.7.018 2.755l-.26.556.6.157c.04.01.403.103.832.103.6.002 1.163-.2 1.6-.6.16.5.436 1.063.913 1.562.812.843 1.98 1.27 3.505 1.27l.924-.012-.5-.788z"/><path d="M4.84 13.443c.4-.405.8-.528 1.154-.528.544 0 .957.294.957.294-1.472.793-1.775 2.064-2.616 2.35-.137.048-.28.072-.426.07-.62 0-1.217-.404-1.42-.865 0 0 1.133-.07 2.352-1.32h0zM3.9 16.14a1.8 1.8 0 0 0 .589-.096c.527-.176.863-.6 1.217-1.042.362-.45.77-.96 1.475-1.34l.726-.394-.675-.48c-.055-.035-.56-.38-1.247-.38-.562 0-1.085.23-1.515.676-1.048 1.082-1.988 1.17-2.022 1.17l-.73.043.3.678c.303.676 1.096 1.165 1.884 1.165h0zm3.3 5.923c-.077-1.922.4-3.48 1.173-4.764-.425 1.338-.367 2.975 1.085 4.505 0 0-2.886-3.495 1.148-7.075 1.613-1.364 3.38-2.206 4.286-2.802-3.282 1.083-4.886-.1-4.886-.1 1.048.92 2.406.905 3.248.77l-.722.37c-2.77 1.52-5.257 4.022-5.684 7.486v-.026c-.643 3.4-2.075 4.275-2.075 4.275 1.14-.57 1.857-2.077 2.032-2.62.2 3 1.633 5.065 3.32 7.063.877 1.035 1.184 2.04 1.184 2.04s-.17-1.14-.93-2.068C8.82 27.193 7.32 24.812 7.21 22.06h0zm12.872-7v.688c.235-.3.686-.23.686-.23v1s-.014.487-.186.698h.98c-.17-.2-.187-.698-.187-.698v-1s.454-.06.686.23v-.688h-1.98zm-.42-4.074c.313.25.495.294.5.297l.122.057v-.647l-1.15-.5s.01.375.53.782h0zm2.738 0c.52-.407.53-.782.53-.782l-1.152.5v.648l.122-.058c.006-.003.186-.046.5-.297zm-1.37-1.723l-2.774-1.108c.236-.565 1.324-1.045 2.774-1.046s2.54.48 2.776 1.046L21.03 9.255zm2.068 3.472l-1.865.994V9.696l2.53-.87-.666 3.9zm1.155 1.068l.852.5h.012l.215.126c-.48.134-.85.38-1.16.698l-.033.034-.2.243-.04.05-.188.266-.032.046-.205.338c-.6 1.057-1.577 1.7-2.438 1.692s-1.83-.634-2.437-1.692l-.203-.333-.04-.06-.18-.255c-.015-.022-.03-.04-.045-.058l-.203-.238c-.014-.01-.024-.026-.038-.038-.316-.334-.717-.575-1.16-.696l.217-.126h.01l.855-.5.875-.508 2.342 1.3.004-.005.007.005 2.34-1.3.877.508zm3.364 3.578c-.2.5-.35 1.06-.35 1.6v3.54c-.732-.123-.82-.92-.82-.955l-.013-.162-.158-.014a1.11 1.11 0 0 1-.706-.341c-.36-.363-.36-.95-.36-.956-.004.03-.394.58.058 1.184a1.27 1.27 0 0 0 .823.474c.084.44.4 1.065 1.177 1.16v1.73h-2.16c-.996-.56-.574-1.544-.554-1.587l.084-.188-.2-.073c-1.08-.404-.78-1.492-.767-1.54l.044-.16-.148-.07c-.9-.418-.77-1.54-.757-1.588-.274.224-.373.68-.185 1.13l-.388.416a1.21 1.21 0 0 1-.666-.404 1.23 1.23 0 0 1-.286-.729l-.001-.132-.122-.047c-.36-.134-.606-.337-.73-.6-.136-.3-.088-.614-.05-.767a3.16 3.16 0 0 0 .629.067h.014c.107 0 .213-.007.317-.017.576-.058 1.217-.307 1.888-.98h4.376zM24.92 32.8l.24-1.27.04-.234a1.13 1.13 0 0 0 .467.093c.367 0 .582-.197.725-.363l.184-.218-.15-.24a23.51 23.51 0 0 0-.605-.925l-.147-.22c-.293-.442-.66-.997-1.394-.997l-.065.002a1.07 1.07 0 0 0-.31.064 1.66 1.66 0 0 0-.716-.165 2.21 2.21 0 0 0-.729.143l-.127.037-1.372-.136c-.018-.005-.073-.038-.142-.118v-.008l.297-.12c-.083-1-1.034-1.616-1.563-1.825a.55.55 0 0 0-.155-.28l-.294-.283-.26.314-.127.16-1.923-.8 1.25 1.587-.492.756c-.18.193.02.4.02.4l.5.355.53-.2c.018 0 .033.005.052.007-.026.08-.06.4-.08.488l-.918-.182-.963.55a1.16 1.16 0 0 0-.38 1.392l.106.237.152.334.338-.14c-.108.385-.06.757.157 1.002l.205.26.272.348.3-.325c.088-.1.374-.412.46-.7l.064-.2-.145-.162-.024-.03.164-.274 1.197.286.27.063.22-.37c.014-.028.018-.032.073-.032a.54.54 0 0 1 .131.016c.408.08.823.124 1.24.13.357 0 .573-.013.828-.1l.665.766-.394 1.228-.018.074c-.745.062-1.108.227-1.547.67-.637-.64-1.088-.707-2.8-.707-2.05 0-3.44-1.214-3.44-3.156v-4.744h12.48l.002 4.744c0 1.573-.914 2.67-2.353 3.03h0zm-7.686-2.682l.065.164c-.044.143-.53.346-.53.346l-.104-.233a.78.78 0 0 1-.032-.505c.046-.167.145-.314.284-.417l.8-.486.838.18c-.017.27.143.47.143.47l-.876-.17-.526.366c-.1.063-.095.18-.05.286h0zm7.553 1.34l-.27 1.42a5.15 5.15 0 0 1-.54.045l.283-1.362c.084-.406-.992-.533-1.524-1.33-.26.295-.748.383-1.24.383a6.23 6.23 0 0 1-1.17-.127 1.33 1.33 0 0 0-.2-.02c-.158 0-.3.05-.4.218l-.078.134-1.467-.35-.365.6c-.05.1-.055.182.028.275l.1.1c-.07.215-.374.543-.374.543l-.218-.276c-.173-.194-.144-.552.035-.882l.582-.994 1.243.182-.193-.446c-.26-.588.136-1.337.178-1.768-.014.13-.133.16-.27.16-.126 0-.266-.023-.36-.023-.037 0-.07.003-.085.016l-.336.207-.266-.237c-.032-.045-.042-.153.035-.233l.615-.697-.726-.858 1.016.517.3-.38c.085.085.048.305.048.305.318.01 1.208.506 1.255 1.667.003.036.003.075.003.114l.023.038c.063.088.237.313.457.333l1.412.14c.155 0 .462-.183.854-.183a1.29 1.29 0 0 1 .708.218s.128-.103.335-.114c.015-.002.033-.002.048-.002.63 0 .893.576 1.232 1.055l.594.904c-.125.15-.242.235-.438.235a.89.89 0 0 1-.181-.018c-.675-.126-.774-1.53-1.16-1.642a.25.25 0 0 0-.062-.008c-.124 0-.178.112-.178.112.177.48.073.672.263 1.042.142.274.393.498.497.605l-.06.362zm-1.294 1.474l-.52.01.412-1.296c.064-.18-.26-.4-.395-.614a10.37 10.37 0 0 0 .982.525l-.478 1.377zM17.37 21.25l.06-2.253.5-.535.314.665-.62 2.163-.254-.04.001-.001zm.36.7a.89.89 0 0 0 .332.354 4.17 4.17 0 0 1-.061.639l-.037.14-.02.07a2.2 2.2 0 0 1-.698-.109c-.272-.1-.678-.605-.584-1.16.117-.073.4-.228.645-.228.196 0 .33.094.424.294h0zm5.794.605L21.8 23.827l-3.462-.63.024-.093a3.13 3.13 0 0 0 .094-.721l2.9.047.055-.056 1.435-1.463c.112.142.25.276.435.394-.062.346-.037.835.243 1.25h0zm-4.707-5.18c.417.418.823.678 1.2.82-.05.2-.116.62.07 1.033.153.335.43.592.83.764.044.413.302 1.035 1.018 1.3l-.74.74-2.904-.046a.52.52 0 0 1-.228-.214c-.005-.015-.015-.022-.022-.038l.475.078.03.001c.045 0 .088-.015.122-.045a.19.19 0 0 0 .064-.114c.008-.05-.004-.1-.033-.142a.19.19 0 0 0-.123-.078l-.583-.094.646-2.257-.612-1.303-.982 1.05-.06 2.346-.66-.106c-.102-.02-.2.056-.218.16a.2.2 0 0 0 .035.143.18.18 0 0 0 .124.077l.277.042-.173.108-.055.04-.015.07c-.16.66.203 1.284.594 1.563l-.014.084c-.015.1.007.2.066.283.034.05.08.1.133.118s.112.042.172.04a.37.37 0 0 0 .23-.083c.065-.053.1-.127.13-.2a3.34 3.34 0 0 0 .371.021h.08l3.808.696.065-.043 1.84-1.35a1.32 1.32 0 0 0 .362.24c-.123.416-.13 1.056.354 1.563h-9.705v-5.66c0-.55-.158-1.1-.346-1.6h4.374zm-.524-8.543l2.533.868v4.022l-1.865-.994-.668-3.896zm6.18-.486c0-.982-1.635-1.865-3.438-1.865h-.01c-1.804 0-3.437.883-3.437 1.865l.035.24.72 4.18-.724.424-1.87 1.106h.007l-.616.353c-.713.5-.864 1.23-.45 1.532.102-.595.568-1.217 1.44-1.217.63 0 1.107.328 1.494.82.1.124.194.257.28.4l.325.5h-4.823c.354.72.692 1.483.692 2.3v10.8c0 2.6 1.986 3.857 4.136 3.857 1.66 0 1.885-.076 2.8.846.912-.922 1.136-.846 2.8-.846 2.15 0 4.133-1.246 4.133-3.857v-10.8c0-.83.338-1.6.694-2.3h-4.825l.325-.5c.088-.142.183-.275.28-.4.4-.492.868-.82 1.496-.82.87 0 1.336.622 1.44 1.217.414-.302.264-1.032-.454-1.532-.2-.134-.613-.353-.613-.353h.008l-2.595-1.53.72-4.18.035-.24z"/></g></g><path d="M55.466 26.327h3.32v-7.794h4.56v-2.836h-12.44v2.836h4.56v7.794zm17.95-10.63l-5.533 6.186v-6.186h-3.2v10.63h2.833l5.533-6.186v6.186h3.2v-10.63h-2.833zm8.474 6.678h5.157v3.953h3.2v-10.63h-3.2v3.886H81.9v-3.886h-3.2v10.63h3.2v-3.953zm17.304 3.953c.73 0 1.394-.067 2.014-.246 1.66-.47 2.744-1.83 2.744-3.685 0-1.764-.93-2.993-2.412-3.55-.708-.268-1.55-.3-2.346-.3h-3.298v-2.86h-3.2v10.63h6.507zm-3.298-5.27h2.745c.443 0 .863 0 1.24.134a1.19 1.19 0 0 1 .841 1.161 1.32 1.32 0 0 1-.82 1.25c-.354.156-.708.156-1.262.156h-2.745v-2.702zm12.926 1.25h.885l3.83 4.02h4.272l-5.334-5.54 5.135-5.092h-4.03l-3.873 3.998h-.885v-3.998h-3.2v10.63h3.2v-4.02zm15.6-6.902c-4.316 0-6.906 2.457-6.906 5.628s2.6 5.628 6.906 5.628c4.294 0 6.883-2.457 6.883-5.628s-2.6-5.628-6.883-5.628h0zm0 8.665c-2.147 0-3.52-1.295-3.52-3.037s1.372-3.015 3.52-3.015c2.125 0 3.52 1.273 3.52 3.015s-1.394 3.037-3.52 3.037zm17.572-7.906v-1.072h-3.2v1.072c-4.028.1-6.44 1.8-6.44 4.846s2.413 4.623 6.44 4.712v1.072h3.2v-1.072c4.05-.1 6.463-1.675 6.463-4.712s-2.413-4.757-6.463-4.846zm-3.2 7.28c-2.213-.1-3.187-1.005-3.187-2.434s.974-2.457 3.187-2.546v4.98zm3.2 0v-4.98c2.235.1 3.187 1.117 3.187 2.546s-.952 2.345-3.187 2.434zm17.14-7.28v-1.072h-3.2v1.072c-4.028.1-6.44 1.8-6.44 4.846s2.412 4.623 6.44 4.712v1.072h3.2v-1.072c4.05-.1 6.463-1.675 6.463-4.712s-2.413-4.757-6.463-4.846zm-3.2 7.28c-2.213-.1-3.187-1.005-3.187-2.434s.974-2.457 3.187-2.546v4.98zm3.2 0v-4.98c2.235.1 3.187 1.117 3.187 2.546s-.952 2.345-3.187 2.434z" fill="#000"/><g clip-path="url(#A)" fill="#333"><path d="M85.17 46.214h-2.492l-1.764 3h-.908l-.03-6.474h-2.36v11.7h2.36l.03-3.2h.902l2.342 3.2h2.614L82.8 50.17l2.36-3.957zm17.855 3.85a6.37 6.37 0 0 0-1.544-.697l-.66-.24c-.324-.117-.665-.24-.677-.558a.56.56 0 0 1 .063-.272.57.57 0 0 1 .192-.208 1.25 1.25 0 0 1 .578-.2 1.92 1.92 0 0 1 1.26.363l.064.04 1.26-1.4-.063-.05a3.15 3.15 0 0 0-.509-.357 3.47 3.47 0 0 0-1.046-.374 4 4 0 0 0-1.608 0 3.05 3.05 0 0 0-1.41.558c-.264.2-.484.447-.65.728a2.37 2.37 0 0 0-.31.913 2.3 2.3 0 0 0 .428 1.641 3.5 3.5 0 0 0 1.735 1.005l.104.033.237.078c.856.28 1.1.4 1.237.558a.51.51 0 0 1 .104.3c0 .396-.503.558-.844.658a1.82 1.82 0 0 1-.72-.013 1.84 1.84 0 0 1-.656-.288 2.81 2.81 0 0 1-.798-.776l-1.417 1.4.04.056c.63.76 1.512 1.3 2.498 1.496a5.5 5.5 0 0 0 .682.084h.237a3.68 3.68 0 0 0 2.174-.653c.428-.292.756-.7.943-1.172.114-.317.154-.654.118-.988a2.24 2.24 0 0 0-.326-.943 2.4 2.4 0 0 0-.717-.72zm7.62 0a6.32 6.32 0 0 0-1.538-.698l-.526-.2-.133-.05c-.33-.117-.665-.24-.682-.558a.57.57 0 0 1 .071-.27.61.61 0 0 1 .189-.21 1.15 1.15 0 0 1 .578-.19c.452-.03.9.1 1.26.363l.057.04 1.26-1.4-.058-.05c-.158-.136-.33-.256-.515-.357a3.44 3.44 0 0 0-1.04-.374 4.03 4.03 0 0 0-1.614 0 3.11 3.11 0 0 0-1.411.558 2.48 2.48 0 0 0-.654.724 2.39 2.39 0 0 0-.317.911 2.26 2.26 0 0 0 .428 1.64 3.5 3.5 0 0 0 1.735 1.005l.098.033.237.078c.862.28 1.104.4 1.243.558.067.083.102.185.098.3 0 .396-.497.558-.838.66a1.85 1.85 0 0 1-.723-.013 1.81 1.81 0 0 1-.66-.29 2.97 2.97 0 0 1-.798-.776l-1.417 1.4.047.056c.63.76 1.512 1.3 2.498 1.496a5.57 5.57 0 0 0 .682.084h.237a3.68 3.68 0 0 0 2.174-.653c.428-.292.756-.7.943-1.172a2.23 2.23 0 0 0 .118-.988 2.24 2.24 0 0 0-.326-.943 2.38 2.38 0 0 0-.706-.714zm-17.73-3.85v.804h-.104c-.646-.624-1.52-.977-2.434-.982a4.14 4.14 0 0 0-1.633.303c-.516.2-.98.524-1.363.92-.77.833-1.184 1.92-1.156 3.036-.03 1.136.383 2.24 1.156 3.097.373.396.83.7 1.34.92a4.01 4.01 0 0 0 1.614.298 3.99 3.99 0 0 0 2.486-.921h.092v.72h2.452v-8.192h-2.452zm.122 4.124c.025.66-.204 1.306-.642 1.814a2.15 2.15 0 0 1-.759.526c-.3.12-.603.176-.918.166-.306.005-.608-.057-.886-.18a2.02 2.02 0 0 1-.716-.534 2.67 2.67 0 0 1-.625-1.836c-.02-.645.207-1.274.636-1.77a2.07 2.07 0 0 1 .722-.525c.277-.12.58-.182.885-.178.313-.01.624.048.9.17a2.11 2.11 0 0 1 .748.529 2.64 2.64 0 0 1 .642 1.819zm26.546-4.124v.804h-.104a3.53 3.53 0 0 0-2.428-.982 4.14 4.14 0 0 0-1.635.304c-.517.2-.982.523-1.366.918a4.31 4.31 0 0 0-1.157 3.036c-.03 1.136.383 2.24 1.157 3.097a3.86 3.86 0 0 0 1.34.919 4.12 4.12 0 0 0 1.615.298 3.99 3.99 0 0 0 2.486-.921h.092v.72h2.452v-8.192h-2.452zm.122 4.124a2.6 2.6 0 0 1-.642 1.814 2.15 2.15 0 0 1-.759.526 2.22 2.22 0 0 1-.918.166 2.09 2.09 0 0 1-.885-.18 2.02 2.02 0 0 1-.717-.534c-.432-.518-.654-1.17-.624-1.836-.02-.645.207-1.274.636-1.77a2.06 2.06 0 0 1 .722-.525 2.15 2.15 0 0 1 .885-.178 2.14 2.14 0 0 1 .91.17c.285.122.543.3.75.53.44.5.67 1.157.642 1.82zM61.513 41.36c-5.1 0-9.14 3.963-9.14 8.82 0 4.912 4.107 8.82 9.14 8.82s9.14-3.963 9.14-8.82-4.107-8.82-9.14-8.82zm0 12.058c-1.85 0-3.413-1.507-3.413-3.294s1.562-3.294 3.413-3.294 3.413 1.507 3.413 3.294a3.4 3.4 0 0 1-3.413 3.294zm-9.197-9.546v12.84h-3.24l-4.164-12.84h7.404z"/></g><defs><clipPath id="A"><path fill="#fff" transform="translate(44.912 41.36)" d="M0 0h77.172v17.64H0z"/></clipPath></defs></svg>