<svg width="134" height="47" viewBox="0 0 134 47" fill="none" xmlns="http://www.w3.org/2000/svg">
<path fill-rule="evenodd" clip-rule="evenodd" d="M15.1669 20.3126C15.1533 20.3115 15.1396 20.3132 15.1267 20.3175C15.1137 20.3218 15.1018 20.3286 15.0915 20.3376C15.0813 20.3466 15.073 20.3576 15.067 20.3698C15.0611 20.3821 15.0577 20.3955 15.057 20.4091C15.0559 20.4227 15.0576 20.4364 15.062 20.4494C15.0663 20.4623 15.0733 20.4743 15.0824 20.4844C15.0915 20.4946 15.1025 20.5029 15.1149 20.5086C15.1273 20.5144 15.1407 20.5176 15.1544 20.5181C15.1817 20.5198 15.2086 20.5108 15.2293 20.4929C15.25 20.475 15.2629 20.4498 15.2652 20.4225C15.2666 20.3949 15.2571 20.3679 15.2387 20.3473C15.2203 20.3267 15.1945 20.3142 15.1669 20.3126ZM19.8355 28.2722L19.3754 27.0037C19.923 26.8366 20.8637 26.4775 21.2862 26.239L21.0048 27.1618L21.958 27.4789C21.3809 27.7684 20.6823 28.0391 19.8355 28.2713V28.2722ZM16.9786 29.4112C15.87 29.4112 14.605 29.1557 14.2316 29.0226L14.798 27.4879C15.2678 27.6254 16.2452 27.7711 16.9554 27.7666H17C17.7093 27.7711 18.6857 27.6245 19.1583 27.4879L19.7238 29.0226C19.3504 29.1566 18.0854 29.4112 16.9786 29.4112ZM11.9974 27.4789L12.9514 27.1618L12.6691 26.239C13.0899 26.4775 14.0333 26.8375 14.5791 27.0037L14.119 28.2722C13.2748 28.0399 12.5736 27.7684 11.9974 27.4789ZM22.0009 27.1975L21.4202 26.9742L21.581 26.3739L21.757 25.7191C21.757 25.7191 20.7297 26.2783 19.2798 26.6973C18.8689 26.8152 18.558 26.8697 18.558 26.8697V27.3155C18.558 27.3155 17.7826 27.4495 17 27.4495H16.9554C16.171 27.4495 15.3974 27.3155 15.3974 27.3155V26.8688C15.3974 26.8688 15.0856 26.8152 14.6747 26.6973C13.2266 26.2774 12.1992 25.7191 12.1992 25.7191L12.3726 26.3739L12.5369 26.9742L11.9545 27.1975L11.3086 27.4387C12.0483 27.797 13.0738 28.3178 14.0118 28.5751L13.7912 29.1807C13.7912 29.1807 14.9811 29.7239 16.9634 29.7292V29.7301H16.9902V29.7292C18.9752 29.7239 20.1651 29.1807 20.1651 29.1807L19.9418 28.5751C20.8807 28.3178 21.908 27.7979 22.6441 27.4387L22.0009 27.1975ZM14.555 2.75861L14.8185 2.7872L14.932 2.546L15.2643 1.83401L15.8807 2.15383L16.1201 2.27621L16.9759 1.42576L17.6432 2.08683L17.8344 2.27621L18.0738 2.15383L18.6866 1.83401L19.0243 2.546L19.136 2.7872L19.3995 2.75861L19.6514 2.72913C19.5362 2.98909 19.4513 3.23655 19.3897 3.44201C18.7242 3.06949 17.8594 2.85867 16.9768 2.85867C16.0978 2.85867 15.233 3.06949 14.5648 3.44201C14.4927 3.1992 14.4056 2.96112 14.3039 2.72913L14.5541 2.75861H14.555ZM16.9759 3.2294C18.1578 3.2294 19.102 3.62247 19.6246 4.03965C19.6246 4.03965 19.7801 3.10433 20.3089 2.27979L19.3575 2.38699L18.8599 1.32839L17.9041 1.8224L16.9759 0.904053L16.0513 1.8224L15.0936 1.32839L14.597 2.38788L13.6456 2.27889C14.1753 3.10433 14.3298 4.03876 14.3298 4.03876C14.8551 3.62157 15.7967 3.2294 16.9759 3.2294ZM31.9464 18.9619C31.9464 18.9619 31.5354 19.6792 30.5921 19.6792H30.5805C29.4477 19.6721 28.9903 18.9798 28.9903 18.9798C28.9903 18.9798 29.0564 19.8802 28.6491 21.0961C28.1578 22.5611 28.6527 23.6063 28.6527 23.6063C28.6527 23.6063 28.3882 23.6787 28.0836 23.6787C27.9675 23.6787 27.846 23.6671 27.7307 23.6367C26.7847 23.4125 26.5489 22.5495 26.5489 22.5495C26.5489 22.5495 26.6364 25.4627 23.2444 25.4627H23.2176C23.2176 25.4627 23.5169 25.0562 23.6053 23.8842C23.7661 21.7223 25.2276 21.4248 25.2276 21.4248C25.2276 21.4248 24.4477 21.3265 24.1092 21.0237C23.5812 20.544 23.6178 19.9892 23.6178 19.9892C24.8113 19.9723 25.5939 19.5658 26.1897 18.8752C26.5737 18.4334 26.8328 17.8971 26.9401 17.3217C26.9401 17.3217 26.2987 17.9051 25.0579 17.9051C24.9489 17.9051 24.8328 17.8997 24.7131 17.8881C24.1252 17.8408 23.7197 17.4665 23.7197 17.4665C25.0114 16.6365 25.9173 15.1885 25.1142 13.0087C24.471 11.2623 22.9237 9.95709 21.3666 8.97443C20.8485 8.65015 20.5591 8.28924 20.5591 7.97925C20.5591 7.2494 21.5953 7.22617 22.0206 6.73573C22.5119 6.16579 22.2037 5.24119 21.7785 4.68464C21.7785 4.68464 21.9214 4.65516 22.1474 4.65516C22.5959 4.65516 23.3713 4.76772 24.0091 5.43057C24.8551 6.30783 24.504 7.26369 24.504 7.26369L24.7309 7.30836C24.8667 7.33605 25.0016 7.34231 25.1419 7.34945L25.233 7.35035C26.4631 7.35035 27.0125 6.06216 27.0125 6.06216C27.0125 6.06216 28.3203 7.67373 26.3952 8.93691C26.0638 9.1522 25.9173 9.3532 25.9557 9.56581L25.9861 9.70607L26.1227 9.73019C27.5181 10.1099 28.2248 11.0747 29.0868 12.1699C30.3964 13.8377 32.2492 13.8913 32.477 13.8913H32.502C32.502 13.8913 32.0795 15.2287 30.8333 15.2287C30.8127 15.2287 30.7949 15.2287 30.7743 15.2269C30.2026 15.2063 29.9078 14.9866 29.9078 14.9866C29.9078 14.9866 29.6854 18.0212 31.9464 18.9619ZM30.8333 15.6378C32.3609 15.6378 32.8719 14.0807 32.8933 14.0146L33.063 13.4652L32.4913 13.4831H32.4895C32.2867 13.4831 30.6019 13.4384 29.4075 11.9171L29.2941 11.7759C28.5133 10.7816 27.7727 9.8356 26.4488 9.40412C26.5017 9.3578 26.5582 9.31568 26.6176 9.27816C27.3198 8.81541 27.729 8.25351 27.8308 7.60048C27.9818 6.61871 27.3555 5.83615 27.3287 5.80399L26.9035 5.27692L26.6373 5.90225C26.6194 5.94067 26.1728 6.9412 25.233 6.9412H25.1633C25.099 6.93852 25.0373 6.93584 24.9766 6.93048C25.0096 6.48381 24.9284 5.79416 24.303 5.1456C23.5517 4.36572 22.6298 4.24869 22.1474 4.24869C21.8901 4.24869 21.7186 4.28085 21.6998 4.28264L21.0575 4.41039L21.4533 4.93299C21.7642 5.33677 22.0465 6.08092 21.7124 6.46952C21.6052 6.59459 21.3854 6.69375 21.1755 6.79469C20.7431 6.99391 20.1517 7.27263 20.1517 7.97925C20.1517 8.43664 20.5064 8.91636 21.1496 9.32283C23.0506 10.5208 24.2244 11.7715 24.7309 13.1517C25.5153 15.2742 24.4924 16.4856 23.4981 17.1234L23.0532 17.4102L23.4436 17.7693C23.4963 17.8157 23.9725 18.2365 24.6773 18.2973C24.8113 18.3062 24.9391 18.3133 25.0588 18.3133C25.5099 18.3133 25.8949 18.2419 26.2076 18.1472C26.1142 18.3103 26.0053 18.464 25.8824 18.6063C25.3152 19.2656 24.6166 19.5658 23.6116 19.5819L23.2382 19.5872L23.2096 19.9624C23.206 20.0384 23.1783 20.7343 23.8349 21.3257C23.9359 21.4168 24.0574 21.4927 24.1851 21.5535C23.7384 21.9555 23.2864 22.6558 23.1989 23.8547C23.1247 24.8552 22.8862 25.2259 22.8835 25.2304L22.4708 25.8611L23.2167 25.8709C24.4486 25.8709 25.392 25.5315 26.045 24.8561C26.3833 24.5014 26.6357 24.0738 26.7829 23.6063C27.1457 23.9157 27.6069 24.0854 28.0836 24.0852C28.432 24.0852 28.7232 24.011 28.7554 24.0039L29.2315 23.877L29.0216 23.4321C29.0055 23.3964 28.6089 22.5031 29.0359 21.2283C29.2199 20.6771 29.3137 20.184 29.3593 19.7989C29.6594 19.9562 30.0606 20.0848 30.5796 20.0866C31.7588 20.0866 32.2778 19.2049 32.301 19.1683L32.5333 18.7627L32.1027 18.5858C30.6984 18.0016 30.3875 16.4329 30.325 15.5842C30.4527 15.6083 30.5974 15.6307 30.7609 15.6351L30.8333 15.6378Z" fill="#1A1919"/>
<path fill-rule="evenodd" clip-rule="evenodd" d="M29.117 8.97799C29.4011 8.97799 29.7334 9.07537 30.0461 9.39965C31.0305 10.4002 31.9462 10.4565 31.9462 10.4565C31.7801 10.8254 31.2977 11.1497 30.7983 11.1497C30.683 11.1497 30.566 11.1318 30.4526 11.0916C29.7745 10.8629 29.5324 9.84542 28.3434 9.21205C28.3434 9.21205 28.6739 8.97799 29.117 8.97799ZM28.1495 9.57295C28.7186 9.87669 29.0509 10.2849 29.3421 10.6458C29.628 10.9987 29.8987 11.3382 30.3248 11.4793C30.4749 11.5311 30.6348 11.5562 30.7983 11.5562C31.4352 11.5562 32.0758 11.1649 32.3187 10.6235L32.5626 10.0822L31.9721 10.0464C31.9444 10.0464 31.1842 9.97585 30.3391 9.1111C29.9907 8.75555 29.57 8.56974 29.117 8.56974C28.5632 8.56974 28.1522 8.84667 28.1076 8.87526L27.5644 9.2585L28.1495 9.57295ZM28.4167 14.9785V14.9991C28.0736 12.2279 26.0654 10.2269 23.8294 9.01016C23.6239 8.89938 23.4319 8.80469 23.2469 8.71535C23.9268 8.82077 25.0229 8.83327 25.8698 8.09895C25.8698 8.09895 24.5744 9.05214 21.9239 8.18561C22.6564 8.66265 24.0831 9.33622 25.3856 10.4261C28.64 13.2919 26.312 16.0862 26.312 16.0862C27.4822 14.8633 27.5305 13.5536 27.1856 12.4834C27.802 13.5108 28.1951 14.757 28.1344 16.2944C28.045 18.4965 26.8363 20.401 25.5651 21.9313C24.9541 22.6728 24.8183 23.5858 24.8183 23.5858C24.8183 23.5858 25.0649 22.7809 25.7715 21.9528C27.1338 20.3537 28.2996 18.6948 28.4515 16.3024C28.5926 16.7375 29.1733 17.9435 30.0934 18.3982C30.0934 18.3982 28.9366 17.6996 28.4167 14.9785ZM10.7108 25.4627C7.3188 25.4627 7.40546 22.5495 7.40546 22.5495C7.40546 22.5495 7.16783 23.4125 6.22358 23.6367C6.10823 23.6657 5.98964 23.6798 5.87071 23.6787C5.56698 23.6787 5.30255 23.6072 5.30255 23.6072C5.30255 23.6072 5.79656 22.5602 5.30434 21.0961C4.89876 19.8811 4.96487 18.9798 4.96487 18.9798C4.96487 18.9798 4.50838 19.6721 3.37474 19.6792H3.36312C2.42066 19.6792 2.00883 18.9619 2.00883 18.9619C4.26896 18.0212 4.04742 14.9866 4.04742 14.9866C4.04742 14.9866 3.75262 15.2063 3.18088 15.2278H3.12103C1.87394 15.2278 1.45139 13.8913 1.45139 13.8913H1.4773C1.70778 13.8913 3.55787 13.8377 4.8666 12.1699C5.72867 11.0738 6.43619 10.1098 7.8289 9.73107L7.96915 9.70606L7.99863 9.56581C8.03794 9.35319 7.89143 9.15219 7.56089 8.9369C5.63576 7.67373 6.94271 6.06305 6.94271 6.06305C6.94271 6.06305 7.48943 7.35034 8.72312 7.35034L8.81245 7.34945C8.95181 7.3423 9.08849 7.33605 9.22339 7.30746L9.4503 7.26369C9.4503 7.26369 9.09832 6.30782 9.94699 5.43057C10.5848 4.76771 11.3593 4.65515 11.8069 4.65515C12.0347 4.65515 12.175 4.68463 12.175 4.68463C11.7515 5.24118 11.4442 6.16578 11.9338 6.73573C12.359 7.22617 13.3944 7.24939 13.3944 7.97925C13.3944 8.28923 13.1058 8.65014 12.5886 8.97442C11.0297 9.95709 9.48335 11.2614 8.84015 13.0096C8.03793 15.1893 8.94377 16.6365 10.2364 17.4673C10.2364 17.4673 9.82996 17.8408 9.24215 17.8881C9.12694 17.8992 9.01128 17.9049 8.89553 17.9051C7.65559 17.9051 7.01418 17.3226 7.01418 17.3226C7.01418 17.3226 7.12138 18.1275 7.76279 18.8761C8.36132 19.5658 9.14299 19.9722 10.3356 19.9892C10.3356 19.9892 10.374 20.5431 9.84604 21.0237C9.50747 21.3274 8.72759 21.4257 8.72759 21.4257C8.72759 21.4257 10.19 21.7223 10.3508 23.8842C10.4383 25.0562 10.7349 25.4627 10.7349 25.4627H10.7108ZM11.0708 25.2304C11.0699 25.2259 10.8332 24.8552 10.7572 23.8547C10.6679 22.6558 10.2159 21.9554 9.76832 21.5534C9.89785 21.4927 10.0185 21.4168 10.1185 21.3256C10.7751 20.7343 10.7474 20.0392 10.7429 19.9624L10.7179 19.5872L10.3418 19.5819C9.33952 19.5658 8.64004 19.2656 8.07277 18.6063C7.95049 18.4636 7.84164 18.3099 7.7476 18.1472C8.06027 18.2428 8.44262 18.3133 8.89553 18.3133C9.01614 18.3133 9.14299 18.3062 9.27609 18.2972C9.73205 18.2517 10.1632 18.0678 10.5116 17.7702L10.902 17.4102L10.4571 17.1243C9.46012 16.4856 8.44083 15.2751 9.22428 13.1516C9.7308 11.7714 10.902 10.5217 12.8065 9.32282C13.4497 8.91635 13.8017 8.43663 13.8017 7.97925C13.8017 7.27262 13.2121 6.9939 12.7797 6.79469C12.5689 6.69374 12.3492 6.59369 12.2429 6.46951C11.9079 6.08091 12.1893 5.33677 12.501 4.93298L12.8995 4.41038L12.2536 4.28263C12.2357 4.27995 12.066 4.24869 11.8069 4.24869C11.3254 4.24869 10.4044 4.36571 9.65397 5.14559C9.02775 5.79415 8.94556 6.4847 8.97772 6.93047C8.91698 6.93583 8.85623 6.93851 8.79191 6.94119H8.72312C7.77976 6.94119 7.33488 5.94066 7.31791 5.90225L7.05259 5.27691L6.62379 5.80398C6.59967 5.83614 5.97166 6.6187 6.12531 7.60047C6.22625 8.25261 6.6354 8.81541 7.33756 9.27815C7.41439 9.32729 7.4671 9.36928 7.50551 9.40412C6.1798 9.8356 5.44102 10.7816 4.66024 11.7759L4.54768 11.9171C3.35419 13.4384 1.6649 13.484 1.463 13.484L0.887695 13.4661L1.06279 14.0146C1.08334 14.0807 1.59254 15.6378 3.12103 15.6378L3.19428 15.6351C3.35598 15.6306 3.50159 15.6083 3.63023 15.5833C3.5677 16.432 3.25503 18.0016 1.85071 18.5849L1.42191 18.7636L1.65418 19.1682C1.67562 19.2049 2.19732 20.0866 3.37831 20.0866C3.801 20.0908 4.21844 19.9927 4.59503 19.8007C4.64059 20.1849 4.73528 20.6771 4.91931 21.2283C5.34632 22.5022 4.94879 23.3964 4.9336 23.4321L4.72278 23.877L5.19892 24.003C5.23108 24.0119 5.5241 24.0852 5.87071 24.0852C6.34761 24.0864 6.80913 23.9165 7.1714 23.6063C7.30094 24.0056 7.52338 24.4568 7.9084 24.8561C8.56411 25.5306 9.50658 25.8709 10.7376 25.8709L11.4835 25.8611L11.0708 25.2304Z" fill="#1A1919"/>
<path fill-rule="evenodd" clip-rule="evenodd" d="M3.90748 9.39965C4.22193 9.07538 4.55336 8.97711 4.83922 8.97711C5.27874 8.97711 5.61196 9.21205 5.61196 9.21205C4.42382 9.84632 4.17905 10.8629 3.50012 11.0925C3.38955 11.1309 3.27321 11.1499 3.15618 11.1488C2.65681 11.1488 2.17352 10.8254 2.00914 10.4565C2.00914 10.4565 2.92392 10.4002 3.90748 9.39965ZM3.15618 11.5562C3.31966 11.5562 3.47957 11.5311 3.63144 11.4793C4.05666 11.3382 4.32824 10.9996 4.6141 10.6459C4.90622 10.2858 5.23497 9.87759 5.80492 9.57385L6.39094 9.25851L5.84601 8.87437C5.80134 8.84668 5.39309 8.57064 4.83922 8.57064C4.38541 8.57064 3.96376 8.75556 3.61625 9.11111C2.77026 9.97675 2.01182 10.0464 1.98413 10.0473L1.39453 10.0822L1.63573 10.6244C1.8805 11.1649 2.52013 11.5562 3.15618 11.5562ZM5.821 16.2944C5.75846 14.757 6.15153 13.5108 6.76793 12.4834C6.42489 13.5537 6.47134 14.8633 7.6434 16.0871C7.6434 16.0871 5.31359 13.291 8.56979 10.427C9.87226 9.33623 11.2971 8.66265 12.0297 8.18561C9.38004 9.05215 8.0856 8.09807 8.0856 8.09807C8.93158 8.83328 10.0277 8.82167 10.7075 8.71447C10.5235 8.80469 10.3305 8.89849 10.1251 9.01016C7.88906 10.226 5.88174 12.2279 5.53692 14.9991V14.9785C5.01789 17.6996 3.86192 18.3982 3.86192 18.3982C4.78205 17.9426 5.36093 16.7366 5.50208 16.3024C5.65573 18.6948 6.82064 20.3546 8.18208 21.9528C8.8896 22.7809 9.13794 23.5858 9.13794 23.5858C9.13794 23.5858 9.00037 22.6737 8.38665 21.9313C7.11812 20.4011 5.91033 18.4965 5.821 16.2944ZM16.2114 10.6869V11.2372C16.4007 11.0059 16.7652 11.0532 16.7652 11.0532V11.8456C16.7652 11.8456 16.7536 12.2351 16.6151 12.4039H17.4066C17.2691 12.2351 17.2557 11.8456 17.2557 11.8456V11.0532C17.2557 11.0532 17.6219 11.0059 17.8095 11.2372V10.6869H16.2105H16.2114ZM15.8719 7.42807C16.1247 7.62907 16.2712 7.66301 16.2757 7.66569L16.3739 7.71125V7.19401L15.4449 6.80273C15.4449 6.80273 15.4529 7.10289 15.8719 7.42807ZM18.082 7.42807C18.5019 7.10289 18.5108 6.80273 18.5108 6.80273L17.5808 7.19401V7.71215L17.6791 7.66569C17.6836 7.66301 17.8292 7.62907 18.082 7.42807Z" fill="#1A1919"/>
<path fill-rule="evenodd" clip-rule="evenodd" d="M16.9768 6.04967L14.7372 5.16348C14.9275 4.71146 15.8056 4.32732 16.9768 4.32643C18.1488 4.32732 19.027 4.71146 19.2172 5.16348L16.9768 6.04967ZM18.6464 8.82704L17.1411 9.62211V6.40254L19.1842 5.70752L18.6464 8.82526V8.82704ZM19.579 9.68107L20.2669 10.0813H20.2767L20.45 10.1822C20.0614 10.2894 19.764 10.4851 19.5147 10.7406L19.4879 10.7674C19.4291 10.8301 19.3728 10.895 19.3191 10.9621L19.2878 11.0032C19.2342 11.072 19.1833 11.1426 19.1359 11.2158L19.11 11.2524C19.0521 11.3409 18.997 11.4312 18.9448 11.5231C18.4534 12.3691 17.6718 12.8747 16.9768 12.8765C16.2817 12.8747 15.4992 12.3691 15.0096 11.5231C14.9576 11.4329 14.9031 11.3441 14.8462 11.2569L14.814 11.2096C14.7673 11.1406 14.7191 11.0727 14.6693 11.0059C14.6568 10.988 14.6452 10.9746 14.6327 10.9594C14.5802 10.8943 14.5257 10.8308 14.4692 10.7692C14.4576 10.7602 14.4495 10.7486 14.4388 10.7388C14.1836 10.4715 13.8601 10.279 13.5035 10.1822L13.6786 10.0813H13.6857L14.3763 9.68107L15.0829 9.2746L16.9732 10.3055L16.9768 10.3019L16.9821 10.3055L18.8715 9.2746L19.579 9.68107ZM22.2948 12.5433C22.1402 12.9507 22.0125 13.392 22.0125 13.8306L22.0143 16.6625C21.4238 16.5642 21.3532 15.9264 21.3514 15.8987L21.3407 15.7691L21.2129 15.7575C20.9963 15.7384 20.7939 15.6417 20.643 15.4851C20.3527 15.1947 20.3527 14.7248 20.3527 14.7204C20.3491 14.7445 20.0346 15.1849 20.3991 15.6673C20.5528 15.871 20.7761 15.9969 21.0638 16.0461C21.1317 16.3989 21.3943 16.8983 22.0143 16.9751V18.3598H20.2714C19.4674 17.9122 19.8077 17.1243 19.8238 17.0904L19.8917 16.9403L19.7381 16.8822C18.8671 16.5588 19.1074 15.6887 19.119 15.6512L19.1547 15.5244L19.035 15.469C18.3168 15.1349 18.4141 14.2362 18.424 14.1987C18.2024 14.3782 18.1229 14.7436 18.2748 15.1036C18.1926 15.1983 18.0818 15.3118 17.9612 15.4368C17.7514 15.391 17.5624 15.2774 17.4236 15.1135C17.2847 14.9496 17.2037 14.7446 17.1929 14.5301L17.1921 14.4247L17.0938 14.3871C16.8035 14.28 16.6042 14.1174 16.5051 13.9003C16.3952 13.66 16.4336 13.4089 16.464 13.2866C16.6309 13.3212 16.8009 13.3391 16.9714 13.3402H16.983C17.0697 13.3402 17.1545 13.3348 17.2385 13.3268C17.703 13.2803 18.2212 13.0811 18.7625 12.5433H22.2948ZM20.1168 24.8847L20.3116 23.869L20.3428 23.6814C20.4631 23.7285 20.5907 23.7536 20.7198 23.7555C21.0164 23.7555 21.1897 23.5983 21.305 23.4652L21.4533 23.291L21.3318 23.0998C21.321 23.0811 21.0504 22.6532 20.8431 22.3602C20.8019 22.3023 20.7623 22.2433 20.7243 22.1833C20.4876 21.8295 20.1919 21.3855 19.5987 21.3855L19.546 21.3873C19.4606 21.3919 19.3763 21.4091 19.2959 21.4382C19.1154 21.3519 18.9179 21.3068 18.7179 21.306C18.5166 21.3109 18.3176 21.3495 18.1292 21.4204C18.0899 21.432 18.0541 21.4445 18.0264 21.4498L16.9187 21.3409C16.9044 21.3373 16.8597 21.3105 16.8043 21.2462V21.2399L17.0438 21.1443C16.9768 20.3439 16.2094 19.8517 15.7824 19.6846C15.7634 19.599 15.72 19.5208 15.6573 19.4595L15.4197 19.2335L15.2106 19.4845L15.1079 19.6132L13.5553 18.9744L14.5648 20.2438L14.1672 20.8486C14.0207 21.0032 14.1824 21.1595 14.1824 21.1595L14.5933 21.4436L15.0204 21.2837C15.0347 21.2837 15.0472 21.2873 15.0623 21.289C15.0418 21.3543 15.015 21.6089 14.9971 21.6794L14.2566 21.5338L13.4794 21.9742C13.0783 22.269 13.0238 22.755 13.1729 23.0882L13.2587 23.2776L13.3811 23.5447L13.6536 23.4322C13.658 23.4304 13.6616 23.4295 13.6643 23.4268C13.566 23.7404 13.6062 24.0378 13.7804 24.2335L13.9457 24.4416L14.1654 24.7203L14.4066 24.4604C14.4781 24.3889 14.7086 24.1307 14.7792 23.9092L14.831 23.7404L14.7139 23.6108L14.6943 23.5867L14.8265 23.3678L15.7931 23.5965L16.0111 23.6466L16.1272 23.4545L16.1897 23.3509C16.2013 23.3285 16.204 23.325 16.2487 23.325C16.2835 23.325 16.3175 23.3285 16.3541 23.3375C16.6837 23.4025 17.0187 23.4369 17.3546 23.4402C17.6432 23.4402 17.8174 23.4295 18.0229 23.3607C18.0229 23.3607 18.5419 23.9503 18.5597 23.9735L18.2417 24.9562L18.2274 25.0151C17.6262 25.0643 17.3332 25.1965 16.9785 25.5511C16.464 25.0402 16.1004 24.9857 14.7184 24.9857C13.0631 24.9857 11.941 24.0146 11.941 22.4611V18.6662H22.0143L22.0161 22.4611C22.0161 23.7198 21.2782 24.598 20.1168 24.8847ZM13.9126 22.7389L13.9653 22.8702C13.9296 22.9846 13.5365 23.1472 13.5365 23.1472L13.4526 22.9605C13.3989 22.8325 13.3898 22.6903 13.4265 22.5565C13.4633 22.4227 13.5439 22.3051 13.6553 22.2226L14.2923 21.834L14.9685 21.9769C14.9551 22.1922 15.0838 22.353 15.0838 22.353L14.3763 22.2172L13.9519 22.5102C13.8805 22.5603 13.8751 22.6532 13.9126 22.7389ZM20.0096 23.8109L19.7925 24.9464C19.6532 24.966 19.5067 24.9767 19.3566 24.9821L19.5853 23.8922C19.6532 23.567 18.7849 23.4661 18.3552 22.8292C18.1452 23.065 17.7513 23.1356 17.3546 23.1356C16.9919 23.1356 16.631 23.0775 16.4104 23.0337C16.3573 23.0245 16.3035 23.0194 16.2496 23.0185C16.1218 23.0185 16.0066 23.0578 15.9262 23.1927L15.8637 23.2999L14.6791 23.0203L14.3843 23.509C14.3432 23.5885 14.3396 23.6546 14.4066 23.7287L14.487 23.8163C14.4317 23.9887 14.1851 24.2504 14.1851 24.2504L14.0091 24.0298C13.8697 23.8744 13.893 23.5885 14.0377 23.3241L14.5076 22.529L15.5108 22.6746L15.3554 22.3182C15.1454 21.8474 15.4652 21.2488 15.4992 20.904C15.4876 21.0085 15.392 21.0318 15.2812 21.0318C15.1794 21.0318 15.0668 21.013 14.9918 21.013C14.9623 21.013 14.9364 21.0157 14.923 21.0255L14.6514 21.1908L14.437 21.0014C14.4111 20.9657 14.4031 20.879 14.4656 20.8147L14.9623 20.2572L14.3763 19.5712L15.1963 19.9848L15.4474 19.6802C15.5162 19.748 15.4858 19.924 15.4858 19.924C15.7422 19.9312 16.4613 20.3287 16.4988 21.2578C16.5015 21.2864 16.5015 21.3176 16.5015 21.3489L16.5203 21.3793C16.5712 21.4498 16.7114 21.6294 16.8892 21.6455L18.0237 21.758H18.0282C18.1533 21.758 18.4007 21.6115 18.7179 21.6115C18.8921 21.6115 19.0841 21.6562 19.2896 21.7857C19.2896 21.7857 19.3932 21.7036 19.5603 21.6946C19.5728 21.6928 19.5871 21.6928 19.5987 21.6928C20.1079 21.6928 20.3196 22.1538 20.593 22.537C20.7984 22.8283 21.0727 23.2606 21.0727 23.2606C20.9717 23.3812 20.8771 23.4482 20.7189 23.4482C20.6697 23.4484 20.6207 23.4436 20.5724 23.4339C20.0275 23.333 19.948 22.2101 19.6371 22.1207C19.6208 22.1164 19.604 22.1143 19.5871 22.1145C19.487 22.1145 19.4433 22.2038 19.4433 22.2038C19.5862 22.5871 19.5022 22.7416 19.6559 23.0373C19.7702 23.2562 19.973 23.4357 20.057 23.5215C20.057 23.5215 20.0346 23.6876 20.0096 23.8118V23.8109ZM18.9653 24.9901C18.8135 24.9901 18.6723 24.9919 18.5455 24.9973L18.8778 23.9601C18.9296 23.8163 18.6669 23.6314 18.5589 23.4688C18.7223 23.5724 19.1467 23.7993 19.3512 23.8886C19.2187 24.2544 19.09 24.6216 18.9653 24.9901ZM14.0234 15.6441L14.0707 13.8413L14.4745 13.4134L14.7282 13.9458L14.228 15.6762L14.0225 15.645L14.0234 15.6441ZM14.3137 16.2033C14.3751 16.3207 14.4679 16.4188 14.5817 16.4865C14.5786 16.6578 14.5622 16.8287 14.5326 16.9975C14.5237 17.0368 14.5147 17.0734 14.5031 17.11C14.4978 17.1333 14.4906 17.152 14.4861 17.1672C14.362 17.1672 14.1199 17.152 13.9225 17.0797C13.7027 16.9993 13.3748 16.5955 13.4508 16.1506C13.5455 16.0925 13.7652 15.9684 13.9716 15.9684C14.1297 15.9684 14.2378 16.0434 14.3137 16.2033ZM18.9912 16.6875C18.6812 16.9171 17.8808 17.5022 17.5905 17.7059L14.7961 17.202L14.8158 17.1279C14.8515 16.9823 14.8899 16.784 14.8917 16.5508L17.2403 16.5883L17.285 16.5437C17.3207 16.5079 18.0648 15.787 18.4436 15.3734C18.5338 15.4868 18.6464 15.594 18.7947 15.6887C18.7447 15.9657 18.7652 16.357 18.9912 16.6875ZM15.1919 12.5433C15.5287 12.8774 15.8565 13.0856 16.1692 13.1999C16.129 13.3607 16.0754 13.6948 16.2255 14.0262C16.3487 14.2942 16.5721 14.4997 16.8946 14.6373C16.9303 14.9678 17.1385 15.4654 17.7164 15.6852C17.4627 15.9407 17.2162 16.1819 17.1179 16.2783L14.7738 16.2417C14.6964 16.2047 14.6321 16.1448 14.5898 16.0702C14.5853 16.0586 14.5773 16.0523 14.5719 16.0398L14.9551 16.1024L14.9793 16.1032C15.0153 16.1035 15.0502 16.0908 15.0778 16.0676C15.1053 16.0443 15.1236 16.012 15.1293 15.9764C15.1358 15.9364 15.1262 15.8954 15.1026 15.8625C15.079 15.8295 15.0434 15.8072 15.0034 15.8004L14.5326 15.7254L15.0543 13.9199L14.5603 12.8774L13.7679 13.7171L13.7197 15.594L13.1872 15.5092C13.1051 15.4931 13.0264 15.5538 13.0113 15.6369C13.0053 15.6771 13.0154 15.7181 13.0392 15.751C13.0631 15.7839 13.0989 15.8061 13.139 15.8129L13.3623 15.8469C13.2819 15.8924 13.2292 15.929 13.223 15.9335L13.1783 15.9657L13.1658 16.0211C13.0363 16.5481 13.3293 17.0484 13.6455 17.2717L13.6339 17.3387C13.6214 17.4191 13.6393 17.4995 13.6875 17.5647C13.715 17.6044 13.7517 17.6366 13.7945 17.6588C13.8374 17.6809 13.885 17.6921 13.9332 17.6916C14.0009 17.691 14.0664 17.6676 14.1191 17.6251C14.1718 17.5826 14.2086 17.5236 14.2235 17.4575C14.3414 17.4709 14.4495 17.4745 14.5228 17.4745H14.5862L17.6602 18.0311L17.7129 17.9962C17.9576 17.8247 18.8921 17.1431 19.1976 16.9171C19.2825 16.9894 19.3763 17.0555 19.4897 17.11C19.3905 17.4432 19.3843 17.9551 19.7756 18.3607H11.941V13.8315C11.941 13.392 11.8133 12.9507 11.6614 12.5433H15.1919ZM14.7684 5.70931L16.8133 6.40343V9.62122L15.308 8.82615L14.7684 5.70842V5.70931ZM19.7568 5.32071C19.7568 4.53547 18.4374 3.82884 16.9812 3.82884H16.9723C15.5162 3.82884 14.1976 4.53547 14.1976 5.32071L14.2262 5.51367L14.8077 8.85742L14.2235 9.19688L12.7129 10.0813H12.7182C12.7182 10.0813 12.3788 10.2564 12.2207 10.3636C11.6453 10.7638 11.523 11.348 11.8571 11.5892C11.9393 11.1131 12.3153 10.6155 13.0184 10.6155C13.5258 10.6155 13.9117 10.8781 14.2244 11.2703C14.3048 11.3695 14.3807 11.4758 14.4513 11.5892C14.5389 11.7331 14.6273 11.8599 14.7139 11.9814H10.8208C11.1067 12.5576 11.3791 13.1678 11.3791 13.8306V22.462C11.3791 24.5506 12.9827 25.5476 14.7175 25.5476C16.0584 25.5476 16.2389 25.4868 16.9785 26.2247C17.7147 25.4868 17.896 25.5476 19.2378 25.5476C20.9735 25.5476 22.5744 24.5506 22.5744 22.462V13.8306C22.5744 13.1678 22.8469 12.5576 23.1345 11.9814H19.2396C19.3271 11.8599 19.4147 11.7331 19.5022 11.5892C19.5737 11.4758 19.6496 11.3695 19.7282 11.2703C20.0427 10.8763 20.4286 10.6155 20.936 10.6155C21.6391 10.6155 22.0143 11.1131 22.0973 11.5892C22.4315 11.348 22.3109 10.7638 21.7311 10.3636C21.5774 10.2564 21.2362 10.0813 21.2362 10.0813H21.2424L19.7282 9.19688L19.1476 8.85742L19.7282 5.51367L19.7568 5.32071Z" fill="#1A1919"/>
<path d="M44.7738 19.7069H47.4538V13.4715H51.1343V11.2024H41.0933V13.4715H44.7738V19.7069ZM59.2637 11.2024L54.797 16.1515V11.2024H52.2063V19.7069H54.4933L58.9599 14.7579V19.7069H61.5506V11.2024H59.2637ZM66.1039 16.5445H70.2668V19.7069H72.8575V11.2024H70.2668V14.3112H66.1039V11.2024H63.5133V19.7069H66.1039V16.5445ZM80.0721 19.7069C80.6617 19.7069 81.1977 19.6533 81.6979 19.5104C83.0379 19.1352 83.9134 18.0453 83.9134 16.5624C83.9134 15.1509 83.163 14.1683 81.9659 13.7216C81.3942 13.5072 80.7153 13.4893 80.0721 13.4893H77.4099V11.2024H74.8193V19.7069H80.0721ZM77.4099 15.4904H79.6254C79.9827 15.4904 80.3222 15.4904 80.6259 15.5976C81.0547 15.7405 81.3049 16.0979 81.3049 16.5267C81.3049 16.9733 81.0547 17.3485 80.6438 17.5272C80.3579 17.6523 80.0721 17.6523 79.6254 17.6523H77.4099V15.4904ZM87.8441 16.4909H88.5587L91.6497 19.7069H95.0979L90.7921 15.276L94.9371 11.2024H91.6854L88.5587 14.4005H87.8441V11.2024H85.2534V19.7069H87.8441V16.4909Z" fill="black"/>
<path d="M100.429 10.9701C96.9449 10.9701 94.8545 12.9355 94.8545 15.4725C94.8545 18.0096 96.9449 19.9749 100.429 19.9749C103.895 19.9749 105.985 18.0096 105.985 15.4725C105.985 12.9355 103.895 10.9701 100.429 10.9701ZM100.429 17.9024C98.6958 17.9024 97.5881 16.8661 97.5881 15.4725C97.5881 14.0789 98.6958 13.0605 100.429 13.0605C102.144 13.0605 103.27 14.0789 103.27 15.4725C103.27 16.8661 102.144 17.9024 100.429 17.9024ZM114.613 11.5776V10.72H112.023V11.5776C108.771 11.6491 106.823 13.0248 106.823 15.4547C106.823 17.8845 108.771 19.1531 112.023 19.2245V20.0821H114.613V19.2245C117.883 19.1531 119.83 17.8845 119.83 15.4547C119.83 13.0248 117.883 11.6491 114.613 11.5776ZM112.023 17.4021C110.236 17.3307 109.45 16.5981 109.45 15.4547C109.45 14.3112 110.236 13.4893 112.023 13.4179V17.4021ZM114.613 17.4021V13.4179C116.418 13.4893 117.186 14.3112 117.186 15.4547C117.186 16.5981 116.418 17.3307 114.613 17.4021ZM128.449 11.5776V10.72H125.859V11.5776C122.607 11.6491 120.659 13.0248 120.659 15.4547C120.659 17.8845 122.607 19.1531 125.859 19.2245V20.0821H128.449V19.2245C131.719 19.1531 133.666 17.8845 133.666 15.4547C133.666 13.0248 131.719 11.6491 128.449 11.5776ZM125.859 17.4021C124.072 17.3307 123.286 16.5981 123.286 15.4547C123.286 14.3112 124.072 13.4893 125.859 13.4179V17.4021ZM128.449 17.4021V13.4179C130.254 13.4893 131.022 14.3112 131.022 15.4547C131.022 16.5981 130.254 17.3307 128.449 17.4021Z" fill="black"/>
<path fill-rule="evenodd" clip-rule="evenodd" d="M34.5229 37.5248C36.4954 35.5576 38.3312 33.7219 38.2996 33.7219L33.9338 29.3561L31.8351 31.4548C31.3827 31.9072 31.1303 32.5068 31.1303 33.1485C31.1303 33.7587 31.3564 34.3373 31.772 34.7844L32.035 35.0474C32.7398 35.7522 33.634 36.6412 34.5229 37.5248ZM39.6251 39.9707C40.8875 39.9707 41.9132 38.945 41.9132 37.6826C41.9132 36.4202 40.8928 35.3945 39.6251 35.3945C38.3627 35.3945 37.337 36.4202 37.337 37.6826C37.337 38.945 38.3627 39.9707 39.6251 39.9707ZM38.0787 41.817L33.7077 46.188L28.4793 40.9596C26.7435 39.2238 26.6856 36.4518 28.3005 34.6476L28.3162 34.6319C28.3178 34.6303 28.3194 34.6282 28.3212 34.6259C28.3252 34.6207 28.3299 34.6145 28.3373 34.6108C28.3951 34.5424 28.4583 34.4793 28.5214 34.4162L28.5214 34.4162L30.8095 32.1281C30.6832 32.4542 30.6201 32.8014 30.6201 33.1591C30.6201 33.8955 30.8989 34.6003 31.3986 35.1421L31.6721 35.4156C32.5926 36.3308 33.4237 37.1567 34.1601 37.8878C36.3798 40.0917 37.7947 41.5119 38.0787 41.817ZM47.4635 31.2242C45.7828 31.2242 44.3738 32.3328 44.3738 34.5428C44.3738 36.1234 44.996 36.9745 45.933 37.4466L43.9447 41.7665H45.2678L47.0773 37.7255H48.0285V41.7665H49.1729V31.2242H47.4635ZM47.4132 36.7814C46.4191 36.7814 45.6037 36.2379 45.6037 34.5428C45.6037 32.7834 46.4978 32.1826 47.4132 32.1826H48.0212V36.7814H47.4132ZM54.6656 34.3139L54.6654 34.3139H53.5282V37.4537H51.8119V34.3139L51.8117 34.3139H50.6602V41.7164L50.6604 41.7164H51.8119V38.3978H53.5282V41.7164L53.5284 41.7164H54.6656V34.3139ZM60.0011 34.3068V40.7652L60.5874 40.7652L60.5876 40.7652V43.1611H59.5649L59.5646 43.1611V41.7092L56.375 41.7092V43.1611H55.3379L55.3377 43.1611V40.7652H55.7955C56.4749 39.1988 56.5464 36.903 56.5464 34.9362V34.3068H60.0009L60.0011 34.3068ZM57.5765 35.2294H58.8636V40.7723H56.8827C57.505 39.1988 57.5765 36.9245 57.5765 35.3653V35.2294ZM63.7862 40.8341C62.9263 40.7809 62.4832 39.9047 62.4832 38.2834H65.5873V37.654C65.5873 35.2413 64.8342 34.2952 63.6772 34.2252C63.6303 34.2223 63.5828 34.2209 63.5346 34.2209L63.5339 34.2209C61.9533 34.2209 61.2882 35.9518 61.2882 38.3334C61.2882 40.5215 62.1619 41.7365 63.5975 41.8255C63.6427 41.8283 63.6884 41.83 63.7347 41.8306L63.7706 41.8308C64.5073 41.8308 65.1295 41.5948 65.6016 41.2301L65.3298 40.336L65.3292 40.3364L65.3291 40.336C65.0359 40.5434 64.5138 40.8367 63.8701 40.8367C63.8417 40.8367 63.8138 40.8358 63.7862 40.8341ZM63.5271 35.1507C63.5375 35.1507 63.5478 35.1509 63.558 35.1514C64.1983 35.1801 64.3992 36.0934 64.3992 37.3393L62.4972 37.3393C62.5687 36.0161 62.8191 35.1507 63.5271 35.1507ZM69.0273 37.7899L69.0695 37.8683L71.1441 41.7092H71.1334L71.1372 41.7164H69.8856L68.034 38.2422L67.9187 38.0263V41.7164H66.7672V41.7092H66.767V34.3068H67.9185V34.3139H67.9187V37.7322L69.7065 34.3068H70.8723L70.8685 34.3139H70.8726L69.0273 37.7899ZM75.1424 35.6728L75.1367 35.6679L75.1349 35.68C74.8274 35.4153 74.3839 35.165 73.9119 35.165C73.5419 35.165 73.2181 35.3518 72.974 35.7272C72.6789 36.1868 72.5033 36.9256 72.5033 37.9472C72.5033 39.7996 72.9467 40.8581 73.8765 40.8581C74.4415 40.8581 74.8635 40.6364 75.1353 40.4004L75.3928 41.2587L75.385 41.2651L75.3852 41.2658C74.9847 41.6019 74.5127 41.8237 73.8332 41.8237C72.2383 41.8237 71.2799 40.5434 71.2799 38.0187C71.2799 36.4432 71.6939 35.2554 72.5041 34.6536C72.8906 34.3631 73.3678 34.2066 73.9337 34.2066C74.5989 34.2066 74.9851 34.3854 75.3069 34.5857L75.1424 35.6728ZM83.7033 41.7665L80.4204 36.0877L83.4386 31.2242H82.7377L79.6695 36.152V31.2242H78.9399V41.7665H79.6695V36.2093L82.8808 41.7665H83.7033ZM88.2093 36.3666V40.4362C88.2093 40.9511 88.2808 41.5233 88.3666 41.7951H87.7373C87.6729 41.6091 87.6014 41.323 87.5585 40.7938C87.2008 41.5018 86.6716 41.9453 85.9421 41.9453C84.9408 41.9453 84.2542 41.1442 84.2542 39.7853C84.2542 38.1904 85.1196 37.3607 86.7217 37.3607H87.5298V36.431C87.5298 35.2938 87.1079 34.8074 86.2997 34.8074C85.6703 34.8074 85.0981 35.1078 84.7477 35.6228L84.5546 34.9576C84.8478 34.5786 85.4629 34.2066 86.2997 34.2066C87.5227 34.2066 88.2093 34.8861 88.2093 36.3666ZM86.0921 41.3874C86.7859 41.3874 87.2651 40.7223 87.5297 39.9284V37.8757H86.7358C85.52 37.8757 84.9335 38.4336 84.9335 39.7353C84.9335 40.7795 85.3912 41.3874 86.0921 41.3874ZM93.4019 41.1299L93.1802 40.5506C93.1802 40.5506 92.6581 41.3516 91.6854 41.3516C90.5196 41.3516 89.9975 40.1358 89.9975 38.0974C89.9975 35.9947 90.5339 34.8003 91.6854 34.8003C92.3291 34.8003 92.8083 35.1865 93.1373 35.6442L93.3304 34.9076C93.0014 34.507 92.465 34.2138 91.6854 34.2138C90.1477 34.2138 89.2966 35.6514 89.2966 38.1046C89.2966 40.5291 90.162 41.9596 91.6711 41.9596C92.8512 41.9596 93.4019 41.1299 93.4019 41.1299ZM98.1295 40.5506L98.3512 41.1299C98.3512 41.1299 97.8005 41.9596 96.6204 41.9596C95.1113 41.9596 94.2459 40.5291 94.2459 38.1046C94.2459 35.6514 95.097 34.2138 96.6347 34.2138C97.4072 34.2138 97.9507 34.507 98.2797 34.9076L98.0866 35.6442C97.7576 35.1865 97.2784 34.8003 96.6419 34.8003C95.4904 34.8003 94.954 35.9947 94.954 38.0974C94.954 40.1358 95.4761 41.3516 96.6419 41.3516C97.6074 41.3516 98.1295 40.5506 98.1295 40.5506ZM102.95 40.4362V36.3666C102.95 34.8861 102.263 34.2066 101.047 34.2066C100.211 34.2066 99.5955 34.5786 99.3023 34.9576L99.4954 35.6228C99.8458 35.1078 100.418 34.8074 101.047 34.8074C101.856 34.8074 102.278 35.2938 102.278 36.431V37.3607H101.469C99.8673 37.3607 99.0019 38.1904 99.0019 39.7853C99.0019 41.1442 99.6885 41.9453 100.69 41.9453C101.426 41.9453 101.956 41.5018 102.306 40.7938C102.349 41.323 102.428 41.6091 102.485 41.7951H103.114C103.029 41.5233 102.95 40.9511 102.95 40.4362ZM102.278 39.9284C102.013 40.7223 101.527 41.3874 100.84 41.3874C100.139 41.3874 99.6814 40.7795 99.6814 39.7353C99.6814 38.4336 100.268 37.8757 101.484 37.8757H102.278V39.9284Z" fill="#333333"/>
</svg>
