<svg xmlns="http://www.w3.org/2000/svg" width="69" height="57" viewBox="0 0 84 69" fill="#fff"><path fill-rule="evenodd" d="M50.818 11.7a3 3 0 0 1 3 3v18.998a3 3 0 0 1-3 3H22a3 3 0 0 1-3-3V14.7a3 3 0 0 1 3-3h28.818zm.253 11.606H21.746l.001 9.498a1 1 0 0 0 .883.993l.117.007h27.325a1 1 0 0 0 .993-.883l.007-.117-.001-9.498zM40.38.92l27.408 8.905a3 3 0 0 1 1.926 3.78l-5.87 18.068a3 3 0 0 1-3.78 1.926l-2.674-.87v-3.042l2.858.928a1 1 0 0 0 1.218-.533l.042-.11 2.935-9.033-7.053-2.29v-4.695l8.432 2.74 1.004-3.09a1 1 0 0 0-.642-1.26L40.196 3.902a1 1 0 0 0-1.218.533l-.042.11-1.005 3.09 4.244 1.378h-7.58L36.6 2.845A3 3 0 0 1 40.38.919zm-10.063 24.83v5.563h-5.563v-5.563h5.563zm19.755-11.164H22.747a1 1 0 0 0-.993.883l-.007.117-.001 3.248H51.07l.001-3.248a1 1 0 0 0-1-1z"/><path d="M43.17 54.214h-2.492l-1.764 3h-.908l-.03-6.474h-2.36v11.7h2.36l.03-3.2h.902l2.342 3.2h2.614L40.8 58.17l2.36-3.957zm17.855 3.85a6.37 6.37 0 0 0-1.544-.697l-.66-.24c-.324-.117-.665-.24-.677-.558a.54.54 0 0 1 .063-.272c.044-.084.1-.156.2-.208a1.15 1.15 0 0 1 .578-.19 1.92 1.92 0 0 1 1.261.363l.064.04 1.26-1.4-.063-.05a3.09 3.09 0 0 0-.51-.357 3.47 3.47 0 0 0-1.046-.374 4 4 0 0 0-1.608 0 3.05 3.05 0 0 0-1.41.558c-.264.2-.484.447-.65.728a2.37 2.37 0 0 0-.31.913c-.072.58.08 1.164.428 1.64a3.5 3.5 0 0 0 1.735 1.005l.104.033.237.078c.856.28 1.1.4 1.237.558a.5.5 0 0 1 .104.29c0 .396-.503.558-.844.658a1.82 1.82 0 0 1-.72-.013 1.84 1.84 0 0 1-.656-.288 2.81 2.81 0 0 1-.798-.776l-1.417 1.4.04.056c.63.76 1.512 1.3 2.498 1.496a5.5 5.5 0 0 0 .682.084h.237a3.68 3.68 0 0 0 2.174-.653 2.57 2.57 0 0 0 .943-1.172c.114-.317.154-.654.118-.988a2.24 2.24 0 0 0-.326-.943 2.39 2.39 0 0 0-.717-.72zm7.62 0a6.32 6.32 0 0 0-1.538-.698l-.526-.2-.133-.05c-.33-.117-.665-.24-.682-.558.002-.094.026-.187.07-.27a.61.61 0 0 1 .189-.21 1.15 1.15 0 0 1 .578-.19c.452-.03.9.1 1.26.363l.058.04 1.26-1.4-.058-.05c-.158-.136-.33-.256-.515-.357-.323-.18-.675-.306-1.04-.374-.532-.1-1.08-.1-1.613 0a3.1 3.1 0 0 0-1.41.558c-.266.197-.488.443-.655.724a2.4 2.4 0 0 0-.316.911 2.26 2.26 0 0 0 .428 1.64 3.5 3.5 0 0 0 1.735 1.005l.098.033.237.078c.862.28 1.105.4 1.243.558a.44.44 0 0 1 .098.29c0 .396-.497.558-.838.66a1.85 1.85 0 0 1-.723-.013 1.81 1.81 0 0 1-.66-.29 2.96 2.96 0 0 1-.798-.776l-1.417 1.4.046.056c.63.76 1.512 1.3 2.498 1.496a5.37 5.37 0 0 0 .682.084h.237a3.68 3.68 0 0 0 2.174-.653 2.57 2.57 0 0 0 .943-1.172 2.22 2.22 0 0 0 .118-.988 2.24 2.24 0 0 0-.326-.943 2.38 2.38 0 0 0-.706-.714zm-17.73-3.85v.804h-.104c-.646-.624-1.52-.977-2.434-.982a4.14 4.14 0 0 0-1.633.303c-.516.2-.98.524-1.363.92-.77.833-1.185 1.92-1.157 3.036-.03 1.136.383 2.24 1.157 3.097.373.396.83.7 1.34.92a4.01 4.01 0 0 0 1.614.298 3.99 3.99 0 0 0 2.486-.921h.093v.72h2.452v-8.192h-2.452zm.12 4.124c.025.66-.204 1.306-.642 1.814-.2.227-.47.406-.76.526s-.603.176-.918.166a2.09 2.09 0 0 1-.886-.18 2.02 2.02 0 0 1-.716-.534 2.67 2.67 0 0 1-.625-1.836c-.02-.645.207-1.274.636-1.77a2.06 2.06 0 0 1 .722-.525 2.15 2.15 0 0 1 .885-.178c.313-.01.624.048.9.17a2.11 2.11 0 0 1 .749.529 2.64 2.64 0 0 1 .642 1.819zm26.55-4.124v.804h-.104a3.53 3.53 0 0 0-2.43-.982 4.14 4.14 0 0 0-1.635.304 4.02 4.02 0 0 0-1.366.918c-.77.834-1.185 1.92-1.156 3.036-.03 1.136.383 2.24 1.156 3.097a3.87 3.87 0 0 0 1.34.92 3.98 3.98 0 0 0 1.615.298 3.99 3.99 0 0 0 2.486-.921h.093v.72h2.452v-8.192h-2.452zm.12 4.124a2.6 2.6 0 0 1-.642 1.814 2.15 2.15 0 0 1-.759.526 2.22 2.22 0 0 1-.918.166 2.09 2.09 0 0 1-.885-.18c-.277-.124-.522-.306-.716-.534-.433-.518-.655-1.17-.624-1.836-.02-.645.207-1.274.636-1.77a2.06 2.06 0 0 1 .722-.525 2.15 2.15 0 0 1 .885-.178c.313-.01.624.048.9.17a2.11 2.11 0 0 1 .748.53c.44.5.67 1.157.642 1.82zM19.513 49.36c-5.1 0-9.14 3.963-9.14 8.82 0 4.912 4.107 8.82 9.14 8.82s9.14-3.963 9.14-8.82-4.107-8.82-9.14-8.82zm0 12.058c-1.85 0-3.413-1.507-3.413-3.294s1.562-3.294 3.413-3.294 3.413 1.507 3.413 3.294a3.4 3.4 0 0 1-3.413 3.294zm-9.197-9.546v12.84h-3.24l-4.164-12.84h7.404z"/></svg>