<svg width="119" height="58" viewBox="0 0 119 58" fill="none" xmlns="http://www.w3.org/2000/svg">
<path fill-rule="evenodd" clip-rule="evenodd" d="M25.4263 48.2769C27.5381 46.1708 29.5034 44.2054 29.4696 44.2054L24.7956 39.5314L22.5487 41.7783C22.0644 42.2626 21.7941 42.9046 21.7941 43.5916C21.7941 44.2448 22.0362 44.8643 22.4811 45.343L22.7627 45.6245C23.5173 46.3791 24.4746 47.3308 25.4263 48.2769ZM30.8887 50.8955C32.2403 50.8955 33.3384 49.7974 33.3384 48.4458C33.3384 47.0943 32.2459 45.9962 30.8887 45.9962C29.5372 45.9962 28.4391 47.0943 28.4391 48.4458C28.4391 49.7974 29.5372 50.8955 30.8887 50.8955ZM29.2331 52.8721L24.5534 57.5518L18.9559 51.9542C17.0975 50.0958 17.0356 47.1281 18.7644 45.1965L18.7813 45.1796C18.783 45.1779 18.7847 45.1757 18.7866 45.1733C18.7908 45.1677 18.796 45.161 18.8038 45.1571C18.8657 45.0839 18.9333 45.0163 19.0009 44.9488L19.0009 44.9488L21.4506 42.4991C21.3154 42.8483 21.2478 43.2199 21.2478 43.6029C21.2478 44.3913 21.5463 45.1459 22.0813 45.7259L22.3741 46.0187C23.3596 46.9986 24.2494 47.8827 25.0377 48.6655C27.4142 51.025 28.929 52.5455 29.2331 52.8721ZM39.2806 41.5314C37.4811 41.5314 35.9727 42.7182 35.9727 45.0843C35.9727 46.7765 36.6388 47.6877 37.6419 48.1931L35.5132 52.818H36.9298L38.8671 48.4917H39.8855V52.818H41.1106V41.5314H39.2806ZM39.227 47.481C38.1626 47.481 37.2897 46.899 37.2897 45.0843C37.2897 43.2006 38.2469 42.5574 39.227 42.5574H39.8778V47.481H39.227ZM45.7738 48.2008H43.9361V44.8393H42.7033V52.7644H43.9361V49.2115H45.7738V52.7644H46.9913V44.8393H45.7738V48.2008ZM48.2012 51.746C48.9286 50.0691 49.0052 47.6112 49.0052 45.5054V44.8316H52.7036V51.746H53.3315V54.3112H52.2365V52.7568H48.8214V54.3112H47.7111V51.746H48.2012ZM50.1078 45.9649C50.1078 47.6341 50.0312 50.0691 49.3651 51.7537H51.4861V45.8194H50.1078V45.9649ZM58.4082 51.2866C58.0942 51.5087 57.5352 51.8226 56.8461 51.8226C55.866 51.8226 55.3606 50.8808 55.3606 49.089H58.6838V48.4152C58.6838 45.7275 57.8109 44.7397 56.4862 44.7397C54.794 44.7397 54.0819 46.5928 54.0819 49.1426C54.0819 51.5776 55.0926 52.8869 56.7389 52.8869C57.5276 52.8869 58.1938 52.6343 58.6991 52.2437L58.4082 51.2866ZM56.4786 45.7352C57.1907 45.7352 57.4127 46.7229 57.4127 48.0782H55.3759C55.4525 46.6617 55.7205 45.7352 56.4786 45.7352ZM64.6334 52.7568L62.3669 48.5606L64.3425 44.8393H64.3384L64.3425 44.8316H63.0943L61.1801 48.4994V44.8393L61.1801 44.8316H59.9473L59.9473 44.8393L59.9473 52.7568L59.9473 52.7644H61.1801L61.1801 52.7568L61.1801 48.8133L61.182 48.817L63.2858 52.7644H64.6258L64.6217 52.7568H64.6334ZM68.9138 46.2941L68.908 46.2892L68.9061 46.3018C68.5769 46.0185 68.1021 45.7505 67.5968 45.7505C67.1843 45.7505 66.8256 45.9672 66.5608 46.4029C66.2639 46.8979 66.0883 47.6721 66.0883 48.7291C66.0883 50.7123 66.563 51.8456 67.5585 51.8456C68.1634 51.8456 68.6152 51.6082 68.9061 51.3555L69.1818 52.2744L69.1738 52.281L69.1741 52.282C68.7453 52.6419 68.24 52.8793 67.5125 52.8793C65.805 52.8793 64.7789 51.5087 64.7789 48.8057C64.7789 47.1428 65.2097 45.8834 66.0529 45.2307C66.473 44.9019 66.996 44.7244 67.6197 44.7244C68.3318 44.7244 68.7453 44.9158 69.0899 45.1302L68.9138 46.2941ZM78.0794 52.818L74.5648 46.7382L77.7961 41.5314H77.0457L73.7608 46.8072V41.5314H72.9797V52.818H73.7608V46.8684L77.1988 52.818H78.0794ZM82.9034 47.0369V51.3938C82.9034 51.9451 82.98 52.5577 83.0719 52.8487H82.3981C82.3291 52.6496 82.2526 52.3433 82.2066 51.7767C81.8238 52.5347 81.2571 53.0095 80.4761 53.0095C79.4041 53.0095 78.669 52.1519 78.669 50.697C78.669 48.9894 79.5955 48.1012 81.3107 48.1012H82.176V47.1058C82.176 45.8883 81.7242 45.3676 80.859 45.3676C80.1851 45.3676 79.5726 45.6892 79.1974 46.2405L78.9906 45.5284C79.3046 45.1226 79.9631 44.7244 80.859 44.7244C82.1683 44.7244 82.9034 45.4518 82.9034 47.0369ZM80.6369 52.4122C81.3797 52.4122 81.8927 51.7001 82.176 50.8501V48.6525H81.326C80.0243 48.6525 79.3964 49.2498 79.3964 50.6434C79.3964 51.7613 79.8865 52.4122 80.6369 52.4122ZM88.4625 52.1365L88.2252 51.5163C88.2252 51.5163 87.6662 52.3739 86.6248 52.3739C85.3767 52.3739 84.8177 51.0722 84.8177 48.8899C84.8177 46.6387 85.392 45.36 86.6248 45.36C87.3139 45.36 87.827 45.7734 88.1792 46.2635L88.386 45.4748C88.0337 45.046 87.4594 44.7321 86.6248 44.7321C84.9785 44.7321 84.0673 46.2712 84.0673 48.8976C84.0673 51.4933 84.9938 53.0248 86.6095 53.0248C87.8729 53.0248 88.4625 52.1365 88.4625 52.1365ZM93.5239 51.5163L93.7613 52.1365C93.7613 52.1365 93.1717 53.0248 91.9082 53.0248C90.2926 53.0248 89.3661 51.4933 89.3661 48.8976C89.3661 46.2712 90.2773 44.7321 91.9236 44.7321C92.7505 44.7321 93.3325 45.046 93.6847 45.4748L93.478 46.2635C93.1257 45.7734 92.6127 45.36 91.9312 45.36C90.6984 45.36 90.1241 46.6387 90.1241 48.8899C90.1241 51.0722 90.6831 52.3739 91.9312 52.3739C92.9649 52.3739 93.5239 51.5163 93.5239 51.5163ZM98.6848 51.3938V47.0369C98.6848 45.4518 97.9498 44.7244 96.648 44.7244C95.7521 44.7244 95.0936 45.1226 94.7797 45.5284L94.9864 46.2405C95.3616 45.6892 95.9742 45.3676 96.648 45.3676C97.5133 45.3676 97.9651 45.8883 97.9651 47.1058V48.1012H97.0998C95.3846 48.1012 94.4581 48.9894 94.4581 50.697C94.4581 52.1519 95.1932 53.0095 96.2652 53.0095C97.0539 53.0095 97.6205 52.5347 97.9957 51.7767C98.0416 52.3433 98.1259 52.6496 98.1871 52.8487H98.861C98.7691 52.5577 98.6848 51.9451 98.6848 51.3938ZM97.9651 50.8501C97.6817 51.7001 97.1611 52.4122 96.426 52.4122C95.6756 52.4122 95.1855 51.7613 95.1855 50.6434C95.1855 49.2498 95.8134 48.6525 97.1151 48.6525H97.9651V50.8501Z" fill="white"/>
<path fill-rule="evenodd" clip-rule="evenodd" d="M9.83099 0C11.8681 0 12.5984 1.36689 13.1541 2.81997L19.3372 19.7457C19.3825 19.8755 19.3519 20.0884 19.1524 20.1656L15.8486 21.4459C15.6858 21.5084 15.5034 21.4178 15.4446 21.255L14.0259 17.3391H5.6385L4.21611 21.255C4.15981 21.4104 3.98476 21.5157 3.81094 21.4459L0.509588 20.1656C0.340665 20.0995 0.263547 19.9073 0.322303 19.7457L6.49701 2.82391L6.6212 2.50601C7.15668 1.18934 7.94049 0 9.83099 0ZM59.6585 12.6676V9.50352H57.5858V12.6676L57.2834 12.6922C55.9957 12.8197 55.0028 13.2155 54.3045 13.8797C53.5526 14.5951 53.1766 15.5704 53.1766 16.8058C53.1766 17.9679 53.566 18.9188 54.3448 19.6585C55.068 20.3455 56.0511 20.7682 57.2943 20.9267L57.5858 20.9586V24.5035H59.6585V20.9586L59.9509 20.9298C61.1975 20.7849 62.1767 20.3758 62.8885 19.7025C63.6551 18.9774 64.0384 18.0118 64.0384 16.8058C64.0384 15.6241 63.6502 14.6671 62.8739 13.9347C62.1529 13.2546 61.1773 12.8418 59.947 12.6964L59.6585 12.6676ZM20.5362 28.2603C20.5068 28.1125 20.3793 28 20.2219 28H0.317038L0.252807 28.0067C0.107777 28.0372 0 28.1692 0 28.3256V31.9477L0.00831163 32.0218C0.0409444 32.1647 0.165951 32.2708 0.317038 32.2708H20.2219L20.2873 32.2643C20.4348 32.2342 20.5426 32.104 20.5426 31.9477V28.3256L20.5362 28.2603ZM94.9466 20.9H97.1805V12.7115H90.9842L90.9288 13.5002C90.8335 14.766 90.7238 15.7885 90.5997 16.5677C90.4508 17.5028 90.2823 18.1705 90.0943 18.5709C89.9063 18.9713 89.6732 19.1715 89.3949 19.1715C89.2154 19.1715 89.036 19.144 88.8565 19.0891L88.6771 19.025V20.8121L88.8251 20.8743C89.1324 20.9891 89.5079 21.0465 89.9515 21.0465C90.557 21.0465 91.0465 20.8451 91.42 20.4422C91.7935 20.0394 92.0926 19.3875 92.3172 18.4867C92.5258 17.6501 92.7049 16.4126 92.8545 14.774L92.8885 14.3888H94.9466V20.9ZM69.2386 12.5431C70.3372 12.5431 71.1795 12.7823 71.7655 13.2608C72.3063 13.7025 72.5976 14.3564 72.6392 15.2225L72.6444 15.4435V20.9H71.0843L70.6522 19.7867H70.5936L70.4318 19.9808C70.1068 20.3512 69.7738 20.6149 69.4327 20.7718C69.0347 20.9549 68.5159 21.0465 67.8763 21.0465C67.0902 21.0465 66.4713 20.8219 66.0196 20.3727C65.5679 19.9234 65.3421 19.2838 65.3421 18.4537C65.3421 17.5846 65.6461 16.9437 66.254 16.5311C66.8112 16.1529 67.628 15.9296 68.7043 15.8611L69.0042 15.8463L70.4251 15.8023V15.4435L70.4202 15.2927C70.3704 14.5631 69.9472 14.1983 69.1507 14.1983C68.5691 14.1983 67.8969 14.3546 67.1339 14.6671L66.8436 14.7916L66.1038 13.2828L66.3896 13.1423C67.2562 12.7428 68.2059 12.5431 69.2386 12.5431ZM42.1243 20.9V12.7115H35.9281L35.8726 13.5002C35.7773 14.766 35.6676 15.7885 35.5435 16.5677C35.3946 17.5028 35.2261 18.1705 35.0382 18.5709C34.8502 18.9713 34.617 19.1715 34.3387 19.1715C34.1593 19.1715 33.9798 19.144 33.8004 19.0891L33.6209 19.025V20.8121L33.7689 20.8743C34.0762 20.9891 34.4517 21.0465 34.8953 21.0465C35.5008 21.0465 35.9903 20.8451 36.3638 20.4422C36.7374 20.0394 37.0364 19.3875 37.2611 18.4867C37.4696 17.6501 37.6487 16.4126 37.7983 14.774L37.8323 14.3888H39.8905V20.9H42.1243ZM46.702 12.7115V15.8756H48.2767L48.5616 15.8791C49.678 15.9076 50.5156 16.1066 51.0745 16.4762C51.68 16.8766 51.9827 17.482 51.9827 18.2926C51.9827 19.9709 50.8584 20.839 48.6098 20.8969L48.3646 20.9H44.4681V12.7115H46.702ZM33.6209 20.9L29.827 10.148H27.0511L23.2718 20.9H25.7181L26.4945 18.3512H30.3983L31.1746 20.9H33.6209ZM82.2171 10.192V15.3775L86.055 10.192H88.472L84.5682 15.3336L88.6771 20.9H86.099L82.2171 15.4728V20.9H79.9466V10.192H82.2171ZM101.685 12.7115H99.5242V20.9H102.205L105.97 15.1725L105.939 15.5168C105.891 16.0759 105.857 16.5612 105.839 16.9726L105.825 17.4309L105.823 17.6334V20.9H107.984V12.7115H105.296L101.516 18.4537L101.594 17.4964C101.633 16.9994 101.659 16.6097 101.673 16.3275L101.684 16.0238L101.685 12.7115ZM112.561 12.7115V16.6886L115.696 12.7115H118.157L114.912 16.6373L118.443 20.9H115.909L112.561 16.7472V20.9H110.327V12.7115H112.561ZM69.5609 17.1354L70.4251 17.1061V17.7799L70.4179 17.9602C70.3839 18.3704 70.2313 18.7058 69.96 18.9664C69.65 19.2643 69.2362 19.4132 68.7186 19.4132C67.9959 19.4132 67.6346 19.0982 67.6346 18.4684C67.6346 18.0289 67.7933 17.7018 68.1107 17.4869C68.3884 17.2989 68.7932 17.1857 69.3251 17.1473L69.5609 17.1354ZM48.2327 17.421H46.702V19.3546H48.262C49.2532 19.3546 49.7489 19.0104 49.7489 18.3219C49.7489 18.0045 49.6219 17.775 49.368 17.6334C49.1504 17.512 48.8412 17.4427 48.4407 17.4253L48.2327 17.421ZM57.3803 14.3793L57.5858 14.3448V19.2667L57.3728 19.231C56.8187 19.1189 56.3746 18.8708 56.0404 18.4867C55.6644 18.0545 55.4764 17.4942 55.4764 16.8058C55.4764 16.1466 55.6705 15.5924 56.0587 15.1432C56.4037 14.7439 56.8443 14.4892 57.3803 14.3793ZM59.6585 14.3741V19.2667C60.3079 19.1788 60.8182 18.9176 61.1893 18.483C61.5604 18.0484 61.7459 17.4894 61.7459 16.8058C61.7459 16.1612 61.5628 15.618 61.1966 15.1761C60.8711 14.7833 60.4298 14.5285 59.8728 14.4115L59.6585 14.3741ZM78.1522 17.7945V15.9635H74.2191V17.7945H78.1522ZM28.45 11.8106L28.2936 12.3794C28.1989 12.7114 28.0738 13.1365 27.9183 13.6549L27.0657 16.4469H29.8563L28.6441 12.5284L28.548 12.1956C28.5061 12.0444 28.4735 11.9161 28.45 11.8106ZM9.8114 5.06036H9.84812L12.6929 13.5739H6.97642L9.8114 5.06036Z" fill="white"/>
</svg>
