<svg width="94" height="60" viewBox="0 0 94 60" fill="none" xmlns="http://www.w3.org/2000/svg">
<path fill-rule="evenodd" clip-rule="evenodd" d="M22.8363 30.5395C25.744 30.5395 28.8987 31.5329 32.3906 34.6164C32.7404 34.9254 33.2061 34.5415 32.9011 34.158C29.4695 29.8401 26.2956 29.0176 23.1302 28.3225C19.2585 27.4723 17.267 25.3013 15.8791 22.9175C15.6028 22.443 15.4791 22.5267 15.4541 23.1362C15.4238 23.8819 15.4753 24.8686 15.6429 25.8393C15.4866 25.8465 15.3294 25.8443 15.1716 25.8443C9.63258 25.8443 5.14243 21.3694 5.14243 15.8492C5.14243 10.329 9.63258 5.85412 15.1716 5.85412C20.7105 5.85412 25.201 10.329 25.201 15.8492C25.201 16.2419 25.1817 16.6302 25.1375 17.0112C24.4048 16.8797 22.9635 16.8649 21.9523 16.9521C21.5718 16.9848 21.6252 17.1613 21.9128 17.2132C25.2282 17.8101 27.5061 19.8578 28.0267 23.5735C28.0387 23.6591 28.1508 23.6846 28.1953 23.6107C29.5595 21.342 30.3431 18.6867 30.3431 15.8492C30.3431 7.49878 23.5507 0.729126 15.1716 0.729126C6.79269 0.729126 0 7.49878 0 15.8492C0 24.2 6.79269 30.9703 15.1716 30.9703C17.3945 30.9703 19.5998 30.5395 22.8363 30.5395ZM24.2314 25.2404C24.9762 25.9058 25.203 26.6967 24.809 27.2547C24.5899 27.5606 24.2349 27.7291 23.8091 27.7291C23.3911 27.7291 22.9654 27.5657 22.6699 27.2934C21.9927 26.668 21.7937 25.6544 22.2358 25.0784C22.4086 24.8532 22.6894 24.7291 23.026 24.7291C23.4346 24.7291 23.8628 24.9109 24.2314 25.2404ZM26.9679 23.9647C27.0939 24.5053 26.8267 24.7291 26.5587 24.7291C26.2662 24.7291 25.8991 24.5099 25.4658 24.0777C25.0385 23.6508 24.882 23.161 25.0938 22.9136C25.2339 22.7498 25.5267 22.6787 25.8963 22.768C26.6116 22.941 26.8925 23.6418 26.9679 23.9647ZM48.6373 20.1482L46.946 17.9979C46.769 17.7723 46.9207 17.4305 47.1979 17.4305H50.7362C50.9048 16.9003 51 16.3339 51 15.7456C51 13.0518 49.1032 10.7291 46.5 10.7291C43.8968 10.7291 42 13.0518 42 15.7456C42 18.4394 43.8968 20.7291 46.5 20.7291C47.2889 20.7291 48.0115 20.5161 48.6373 20.1482ZM55.9166 23.7563C56.1065 23.971 55.9507 24.3165 55.6647 24.3165H51.6763C51.5142 24.3165 51.36 24.2427 51.2563 24.1151L50.5802 23.2841C49.2035 24.1966 47.564 24.7291 45.8045 24.7291C40.9496 24.7291 37 20.6919 37 15.7293C37 10.7667 40.9496 6.72913 45.8045 6.72913C50.6594 6.72913 54.6089 10.7667 54.6089 15.7293C54.6089 17.5182 54.0937 19.1853 53.2098 20.5878L55.9166 23.7563ZM93.5797 7.72913H90.4203C90.1882 7.72913 90 7.92538 90 8.16758V24.291C90 24.5329 90.1882 24.7291 90.4203 24.7291H93.5797C93.8118 24.7291 94 24.5329 94 24.291V8.16758C94 7.92538 93.8118 7.72913 93.5797 7.72913ZM87.5571 7.72913H83.8316C83.6368 7.72913 83.4649 7.85421 83.4081 8.03704L80.46 17.5645L77.22 8.02651C77.1597 7.8491 76.9907 7.72913 76.8 7.72913H74.2003C74.0097 7.72913 73.8403 7.8491 73.78 8.02651L70.54 17.5645L67.5919 8.03704C67.5351 7.85421 67.3632 7.72913 67.1684 7.72913H63.4429C63.3006 7.72913 63.1667 7.79645 63.0835 7.90973C63.0003 8.023 62.9777 8.16882 63.0229 8.30124L68.4945 24.4321C68.5548 24.6095 68.7242 24.7291 68.9148 24.7291H71.8716C72.0622 24.7291 72.2313 24.6095 72.2919 24.4324L75.5 15.0083L78.7081 24.4324C78.7687 24.6095 78.9378 24.7291 79.1284 24.7291H82.0852C82.2758 24.7291 82.4452 24.6095 82.5055 24.4321L87.9771 8.30124C88.0223 8.16882 87.9997 8.023 87.9165 7.90973C87.8333 7.79645 87.6994 7.72913 87.5571 7.72913ZM62 8.16758V24.291C62 24.5329 61.8118 24.7291 61.5797 24.7291H58.4203C58.1882 24.7291 58 24.5329 58 24.291V8.16758C58 7.92538 58.1882 7.72913 58.4203 7.72913H61.5797C61.8118 7.72913 62 7.92538 62 8.16758Z" fill="white"/>
<path fill-rule="evenodd" clip-rule="evenodd" d="M13.4262 50.2769C15.538 48.1708 17.5034 46.2054 17.4696 46.2054L12.7955 41.5314L10.5486 43.7783C10.0643 44.2626 9.79401 44.9046 9.79401 45.5916C9.79401 46.2448 10.0362 46.8643 10.481 47.343L10.7626 47.6245C11.5172 48.3791 12.4745 49.3308 13.4262 50.2769ZM18.8887 52.8955C20.2402 52.8955 21.3383 51.7974 21.3383 50.4458C21.3383 49.0943 20.2458 47.9962 18.8887 47.9962C17.5372 47.9962 16.439 49.0943 16.439 50.4458C16.439 51.7974 17.5372 52.8955 18.8887 52.8955ZM17.2331 54.8721L12.5534 59.5518L6.95579 53.9542C5.09744 52.0958 5.03549 49.1281 6.76432 47.1965L6.78122 47.1796C6.78292 47.1779 6.78463 47.1757 6.78649 47.1733C6.79078 47.1677 6.79589 47.161 6.80374 47.1571C6.86569 47.0839 6.93326 47.0163 7.00083 46.9488L7.00084 46.9488L9.45049 44.4991C9.31534 44.8483 9.24776 45.2199 9.24776 45.6029C9.24776 46.3913 9.54623 47.1459 10.0812 47.7259L10.374 48.0187C11.3595 48.9986 12.2493 49.8827 13.0377 50.6655C15.4141 53.025 16.929 54.5455 17.2331 54.8721ZM27.2805 43.5314C25.4811 43.5314 23.9726 44.7182 23.9726 47.0843C23.9726 48.7765 24.6388 49.6877 25.6419 50.1931L23.5132 54.818H24.9298L26.867 50.4917H27.8854V54.818H29.1106V43.5314H27.2805ZM27.2269 49.481C26.1626 49.481 25.2896 48.899 25.2896 47.0843C25.2896 45.2006 26.2468 44.5574 27.2269 44.5574H27.8778V49.481H27.2269ZM33.7738 50.2008H31.9361V46.8393H30.7033V54.7644H31.9361V51.2115H33.7738V54.7644H34.9913V46.8393H33.7738V50.2008ZM36.2011 53.746C36.9285 52.0691 37.0051 49.6112 37.0051 47.5054V46.8316H40.7035V53.746H41.3314V56.3112H40.2364V54.7568H36.8213V56.3112H35.711V53.746H36.2011ZM38.1077 47.9649C38.1077 49.6341 38.0312 52.0691 37.365 53.7537H39.486V47.8194H38.1077V47.9649ZM46.4081 53.2866C46.0942 53.5087 45.5352 53.8226 44.846 53.8226C43.8659 53.8226 43.3605 52.8808 43.3605 51.089H46.6838V50.4152C46.6838 47.7275 45.8108 46.7397 44.4862 46.7397C42.7939 46.7397 42.0818 48.5928 42.0818 51.1426C42.0818 53.5776 43.0925 54.8869 44.7388 54.8869C45.5275 54.8869 46.1937 54.6343 46.6991 54.2437L46.4081 53.2866ZM44.4785 47.7352C45.1906 47.7352 45.4127 48.7229 45.4127 50.0782H43.3759C43.4524 48.6617 43.7204 47.7352 44.4785 47.7352ZM52.6334 54.7568L50.3669 50.5606L52.3424 46.8393H52.3383L52.3424 46.8316H51.0943L49.18 50.4994V46.8393L49.18 46.8316H47.9472L47.9472 46.8393L47.9472 54.7568L47.9472 54.7644H49.18L49.18 54.7568L49.18 50.8133L49.182 50.817L51.2857 54.7644H52.6257L52.6216 54.7568H52.6334ZM56.9137 48.2941L56.908 48.2892L56.9061 48.3018C56.5768 48.0185 56.1021 47.7505 55.5967 47.7505C55.1842 47.7505 54.8256 47.9672 54.5608 48.4029C54.2639 48.8979 54.0882 49.6721 54.0882 50.7291C54.0882 52.7123 54.563 53.8456 55.5584 53.8456C56.1633 53.8456 56.6151 53.6082 56.9061 53.3555L57.1817 54.2744L57.1738 54.281L57.1741 54.282C56.7453 54.6419 56.2399 54.8793 55.5125 54.8793C53.8049 54.8793 52.7789 53.5087 52.7789 50.8057C52.7789 49.1428 53.2096 47.8834 54.0529 47.2307C54.4729 46.9019 54.9959 46.7244 55.6197 46.7244C56.3318 46.7244 56.7453 46.9158 57.0898 47.1302L56.9137 48.2941ZM66.0794 54.818L62.5647 48.7382L65.796 43.5314H65.0456L61.7607 48.8072V43.5314H60.9797V54.818H61.7607V48.8684L65.1988 54.818H66.0794ZM70.9034 49.0369V53.3938C70.9034 53.9451 70.9799 54.5577 71.0718 54.8487H70.398C70.3291 54.6496 70.2525 54.3433 70.2066 53.7767C69.8237 54.5347 69.2571 55.0095 68.476 55.0095C67.404 55.0095 66.669 54.1519 66.669 52.697C66.669 50.9894 67.5955 50.1012 69.3107 50.1012H70.1759V49.1058C70.1759 47.8883 69.7242 47.3676 68.8589 47.3676C68.1851 47.3676 67.5725 47.6892 67.1973 48.2405L66.9906 47.5284C67.3045 47.1226 67.963 46.7244 68.8589 46.7244C70.1683 46.7244 70.9034 47.4518 70.9034 49.0369ZM68.6368 54.4122C69.3796 54.4122 69.8926 53.7001 70.1759 52.8501V50.6525H69.326C68.0243 50.6525 67.3964 51.2498 67.3964 52.6434C67.3964 53.7613 67.8864 54.4122 68.6368 54.4122ZM76.4625 54.1365L76.2251 53.5163C76.2251 53.5163 75.6661 54.3739 74.6247 54.3739C73.3766 54.3739 72.8177 53.0722 72.8177 50.8899C72.8177 48.6387 73.3919 47.36 74.6247 47.36C75.3139 47.36 75.8269 47.7734 76.1792 48.2635L76.3859 47.4748C76.0337 47.046 75.4594 46.7321 74.6247 46.7321C72.9785 46.7321 72.0673 48.2712 72.0673 50.8976C72.0673 53.4933 72.9938 55.0248 74.6094 55.0248C75.8729 55.0248 76.4625 54.1365 76.4625 54.1365ZM81.5238 53.5163L81.7612 54.1365C81.7612 54.1365 81.1716 55.0248 79.9082 55.0248C78.2925 55.0248 77.366 53.4933 77.366 50.8976C77.366 48.2712 78.2772 46.7321 79.9235 46.7321C80.7505 46.7321 81.3324 47.046 81.6847 47.4748L81.4779 48.2635C81.1257 47.7734 80.6126 47.36 79.9312 47.36C78.6984 47.36 78.1241 48.6387 78.1241 50.8899C78.1241 53.0722 78.683 54.3739 79.9312 54.3739C80.9649 54.3739 81.5238 53.5163 81.5238 53.5163ZM86.6848 53.3938V49.0369C86.6848 47.4518 85.9497 46.7244 84.648 46.7244C83.7521 46.7244 83.0936 47.1226 82.7796 47.5284L82.9864 48.2405C83.3616 47.6892 83.9741 47.3676 84.648 47.3676C85.5132 47.3676 85.965 47.8883 85.965 49.1058V50.1012H85.0997C83.3845 50.1012 82.458 50.9894 82.458 52.697C82.458 54.1519 83.1931 55.0095 84.2651 55.0095C85.0538 55.0095 85.6204 54.5347 85.9956 53.7767C86.0416 54.3433 86.1258 54.6496 86.1871 54.8487H86.8609C86.769 54.5577 86.6848 53.9451 86.6848 53.3938ZM85.965 52.8501C85.6817 53.7001 85.161 54.4122 84.4259 54.4122C83.6755 54.4122 83.1855 53.7613 83.1855 52.6434C83.1855 51.2498 83.8133 50.6525 85.1151 50.6525H85.965V52.8501Z" fill="white"/>
</svg>
