<svg width="24" height="24" viewBox="0 0 24 24" fill="none" xmlns="http://www.w3.org/2000/svg">
<path d="M11.848 10.672H12.9444C13.1653 10.672 13.3443 10.851 13.3443 11.0718V12.1683C13.3443 12.3891 13.1653 12.5681 12.9444 12.5681H11.848C11.6272 12.5681 11.4481 12.3891 11.4481 12.1683V11.0718C11.4481 10.851 11.6272 10.672 11.848 10.672Z" fill="#525C69"/>
<path d="M10.1011 10.6722H9.00465C8.78382 10.6722 8.6048 10.8512 8.6048 11.072V12.1685C8.6048 12.3893 8.78382 12.5683 9.00465 12.5683H10.1011C10.3219 12.5683 10.5009 12.3893 10.5009 12.1685V11.072C10.5009 10.8512 10.3219 10.6722 10.1011 10.6722Z" fill="#525C69"/>
<path d="M10.1002 13.5162H9.00373C8.7829 13.5162 8.60388 13.6952 8.60388 13.916V15.0125C8.60388 15.2333 8.7829 15.4123 9.00373 15.4123H10.1002C10.321 15.4123 10.5 15.2333 10.5 15.0125V13.916C10.5 13.6952 10.321 13.5162 10.1002 13.5162Z" fill="#525C69"/>
<path d="M12.9444 13.5162H11.848C11.6272 13.5162 11.4481 13.6952 11.4481 13.916V15.0125C11.4481 15.2333 11.6272 15.4123 11.848 15.4123H12.9444C13.1653 15.4123 13.3443 15.2333 13.3443 15.0125V13.916C13.3443 13.6952 13.1653 13.5162 12.9444 13.5162Z" fill="#525C69"/>
<path d="M14.6923 10.672H15.7887C16.0095 10.672 16.1885 10.851 16.1885 11.0718V12.1683C16.1885 12.3891 16.0095 12.5681 15.7887 12.5681H14.6923C14.4714 12.5681 14.2924 12.3891 14.2924 12.1683V11.0718C14.2924 10.851 14.4714 10.672 14.6923 10.672Z" fill="#525C69"/>
<path fill-rule="evenodd" clip-rule="evenodd" d="M16.8856 6.12858V5.606H18.0402C19.0946 5.6729 19.9114 6.59367 19.8924 7.69631V18.1478C19.8924 18.7247 19.4444 19.193 18.8901 19.193H5.80638C5.25313 19.193 4.80411 18.7247 4.80411 18.1478V7.69631C4.8001 7.64196 4.7981 7.58866 4.7981 7.53535C4.8001 6.46721 5.63199 5.60392 6.65631 5.606H7.81093V6.12858C7.81093 6.99397 8.48345 7.69631 9.31433 7.69631C10.1452 7.69631 10.8177 6.99397 10.8177 6.12858V5.606H13.8788V6.12858C13.8788 6.99397 14.5523 7.69631 15.3822 7.69631C16.2121 7.69631 16.8856 6.99397 16.8856 6.12858ZM17.8879 17.1026H6.80868V8.80072H17.8879V17.1026Z" fill="#525C69"/>
<path d="M10.0509 4.77197V5.92163C10.0509 6.34596 9.72115 6.68981 9.31423 6.68981C8.90731 6.68981 8.57756 6.34596 8.57756 5.92163V4.77197L8.58296 4.67215C8.62748 4.29116 8.94139 3.99661 9.31924 3.99854C9.72617 4.00169 10.0529 4.34763 10.0509 4.77197Z" fill="#525C69"/>
<path d="M16.0778 4.80016V5.89025C16.0778 6.29054 15.7661 6.61558 15.3812 6.61558C14.9963 6.61454 14.6866 6.2895 14.6866 5.88921V4.80016C14.6866 4.39882 14.9983 4.07483 15.3822 4.07483C15.7661 4.07483 16.0778 4.39882 16.0778 4.80016Z" fill="#525C69"/>
</svg>
