<svg width="24" height="24" viewBox="0 0 24 24" fill="none" xmlns="http://www.w3.org/2000/svg">
<path fill-rule="evenodd" clip-rule="evenodd" d="M16.9894 10.8262C17.4912 10.8155 17.9067 11.2137 17.9174 11.7156C17.9663 14.0216 16.2676 16.7293 12.9769 17.1766L12.9762 18.3719L13.37 18.3722C13.8224 18.3722 14.189 18.7389 14.189 19.1912C14.189 19.6435 13.8224 20.0102 13.37 20.0102H10.6295C10.1772 20.0102 9.81049 19.6435 9.81049 19.1912C9.81049 18.7389 10.1772 18.3722 10.6295 18.3722L11.0221 18.3719L11.022 17.1758C7.73613 16.7321 6.05642 14.089 6.08195 11.7251C6.08737 11.2231 6.49868 10.8206 7.00063 10.8259C7.46912 10.8311 7.85099 11.1897 7.89542 11.6456L7.89968 11.7447C7.89459 12.2162 8.15796 13.1217 8.64404 13.8258C9.34192 14.8369 10.4148 15.4227 12.0094 15.4227C13.5953 15.4227 14.6643 14.8256 15.3635 13.7951C15.8099 13.1371 16.0699 12.3011 16.0977 11.851L16.0999 11.7542C16.0893 11.2523 16.4875 10.8368 16.9894 10.8262ZM11.9998 3.68457C13.3688 3.68457 14.4786 4.7944 14.4786 6.16344V11.3892C14.4786 12.7582 13.3688 13.868 11.9998 13.868C10.6307 13.868 9.5209 12.7582 9.5209 11.3892V6.16344C9.5209 4.7944 10.6307 3.68457 11.9998 3.68457Z" fill="#828B95"/>
</svg>
