<svg width="375" height="874" viewBox="0 0 375 874" fill="none" xmlns="http://www.w3.org/2000/svg" xmlns:xlink="http://www.w3.org/1999/xlink">
<mask id="mask0" mask-type="alpha" maskUnits="userSpaceOnUse" x="0" y="0" width="375" height="874">
<path fill-rule="evenodd" clip-rule="evenodd" d="M0 0L375 0L375 874L0 874L0 0Z" fill="white"/>
</mask>
<g mask="url(#mask0)">
<g opacity="0.52">
<path fill-rule="evenodd" clip-rule="evenodd" d="M226.787 61.9464C236.439 70.097 247.165 70.0039 256.937 62.0997C266.172 54.631 268.679 44.8972 262.949 34.0247C257.824 24.2939 251.006 15.8609 241.859 8.08583C232.943 15.7047 226.333 24.3029 220.955 33.8505C214.811 44.765 217.856 54.4057 226.787 61.9464ZM311.147 62.1272C320.917 70.2538 331.636 69.8963 341.292 61.944C350.457 54.3942 352.747 44.6213 346.964 33.7819C341.989 24.4506 335.439 16.312 325.973 8.02325C317.093 16.0537 310.197 24.4116 304.955 34.1034C298.982 45.1471 302.168 54.6556 311.147 62.1272ZM395.481 62.2691C405.332 70.3236 416.09 69.8099 425.625 61.7884C434.685 54.1726 436.931 44.3006 431.027 33.5423C425.953 24.2951 419.523 16.0424 410.463 8.41753C400.916 15.3844 394.976 24.0247 389.64 32.9745C382.934 44.2165 385.823 54.3739 395.481 62.2691ZM446.126 259.472H195.57C191.547 248.276 195.034 236.439 193.522 224.392C223.931 236.781 232.769 235.564 248.622 217.356C267.56 242.228 298.038 242.847 320.349 217.866C341.385 242.432 368.956 242.462 391.558 218.716C410.222 235.976 418.29 236.892 446.126 224.259V259.472ZM194.28 177.305H445.326V194.913C434.126 193.634 430.642 207.655 417.707 209.04C412.865 194.98 406.296 183.539 389.24 185.132C374.544 186.502 369.65 197.053 366.665 209.028C359.727 213.089 353.084 213.261 345.446 209.274C342.088 196.16 336.127 184.456 319.086 185.059C303.623 185.606 297.9 196.148 294.945 209.031C288.115 213.375 281.499 213.149 273.777 209.28C270.407 197.828 265.913 186.135 250.48 185.096C233.695 183.963 226.745 195.028 222.999 208.174C209.433 209.658 207.221 192.065 194.28 196.65V177.305ZM470.027 151.856H421.865V80.3844C413.379 80.4114 406.203 78.8432 397.783 81.7033V150.982H337.57V80.9432C329.057 79.8526 321.891 79.1226 313.486 81.7904V150.714H253.279V80.2913C244.964 80.3243 238.098 78.9754 229.417 81.8264V151.976H169.874C169.874 190.843 169.309 227.771 170.184 264.667C170.487 277.339 179.725 284.095 192.488 284.411C206 284.747 219.527 284.513 233.051 284.513C303.163 284.516 373.275 284.447 443.391 284.57C456.9 284.594 469.101 280.442 469.6 265.907C470.88 228.546 470.027 191.116 470.027 151.856Z" fill="white"/>
</g>
<g opacity="0.52">
<path fill-rule="evenodd" clip-rule="evenodd" d="M-31.2131 496.947C-21.5608 505.097 -10.8354 505.004 -1.06288 497.1C8.17157 489.631 10.6786 479.897 4.94913 469.025C-0.176109 459.294 -6.99373 450.861 -16.141 443.086C-25.0568 450.705 -31.667 459.303 -37.0448 468.851C-43.189 479.765 -40.144 489.406 -31.2131 496.947ZM53.1474 497.127C62.9169 505.254 73.6363 504.896 83.2916 496.944C92.4569 489.394 94.7475 479.621 88.9639 468.782C83.989 459.451 77.4389 451.312 67.973 443.023C59.0933 451.054 52.1975 459.412 46.955 469.103C40.9821 480.147 44.1684 489.656 53.1474 497.127ZM137.481 497.269C147.332 505.324 158.09 504.81 167.625 496.789C176.685 489.173 178.931 479.301 173.027 468.542C167.953 459.295 161.523 451.042 152.463 443.418C142.916 450.385 136.976 459.025 131.64 467.975C124.934 479.217 127.823 489.374 137.481 497.269ZM188.126 694.473H-62.4305C-66.4525 683.276 -62.9656 671.439 -64.4776 659.392C-34.0688 671.781 -25.2312 670.565 -9.3775 652.356C9.56033 677.228 40.0382 677.847 62.3488 652.866C83.3848 677.432 110.956 677.462 133.558 653.717C152.222 670.976 160.29 671.892 188.126 659.259V694.473ZM-63.7201 612.306H187.326V629.914C176.126 628.634 172.642 642.655 159.707 644.04C154.865 629.98 148.296 618.539 131.24 620.132C116.544 621.502 111.65 632.053 108.665 644.028C101.727 648.089 95.0842 648.261 87.4459 644.274C84.0882 631.16 78.1273 619.456 61.0863 620.06C45.6234 620.606 39.8999 631.148 36.945 644.031C30.1154 648.375 23.4992 648.15 15.7767 644.28C12.407 632.828 7.91303 621.135 -7.5198 620.096C-24.3053 618.963 -31.2552 630.028 -35.0007 643.174C-48.5668 644.659 -50.7792 627.066 -63.7201 631.65V612.306ZM212.027 586.856H163.865V515.384C155.379 515.411 148.203 513.843 139.783 516.703V585.982H79.5702V515.943C71.0572 514.853 63.8909 514.123 55.4861 516.79V585.714H-4.72121V515.291C-13.0358 515.324 -19.9015 513.975 -28.5829 516.827V586.976H-88.1258C-88.1258 625.843 -88.691 662.771 -87.8162 699.667C-87.5126 712.339 -78.2752 719.095 -65.5117 719.411C-51.9997 719.747 -38.4726 719.513 -24.9486 719.513C45.1634 719.516 115.275 719.447 185.391 719.57C198.9 719.594 211.101 715.442 211.6 700.907C212.88 663.546 212.027 626.116 212.027 586.856Z" fill="white"/>
</g>
<g opacity="0.4">
<g filter="url(#filter0_f)">
<path fill-rule="evenodd" clip-rule="evenodd" d="M49.0785 289.939C51.4002 291.899 53.9801 291.877 56.3308 289.975C58.5521 288.179 59.1551 285.837 57.777 283.222C56.5441 280.882 54.9042 278.853 52.7039 276.983C50.5593 278.815 48.9693 280.884 47.6757 283.18C46.1978 285.806 46.9302 288.125 49.0785 289.939ZM69.3706 289.982C71.7206 291.937 74.299 291.851 76.6215 289.938C78.8261 288.122 79.3771 285.771 77.9859 283.164C76.7892 280.919 75.2137 278.962 72.9368 276.968C70.8008 278.899 69.1421 280.91 67.8811 283.241C66.4443 285.898 67.2108 288.185 69.3706 289.982ZM89.6562 290.016C92.0257 291.953 94.6136 291.83 96.9071 289.9C99.0864 288.069 99.6266 285.694 98.2065 283.106C96.9859 280.882 95.4393 278.897 93.26 277.063C90.9635 278.738 89.5347 280.817 88.2513 282.97C86.6381 285.674 87.333 288.117 89.6562 290.016ZM101.838 337.451H41.5694C40.602 334.758 41.4407 331.911 41.077 329.013C48.3916 331.993 50.5174 331.701 54.3308 327.321C58.8861 333.303 66.2173 333.452 71.5839 327.443C76.6439 333.353 83.2759 333.36 88.7126 327.648C93.2021 331.8 95.1428 332.02 101.838 328.981V337.451ZM41.2592 317.687H101.646V321.922C98.952 321.615 98.1139 324.987 95.0026 325.32C93.8377 321.938 92.2578 319.186 88.1551 319.569C84.6201 319.899 83.4429 322.437 82.7249 325.317C81.0561 326.294 79.4581 326.336 77.6208 325.377C76.8131 322.222 75.3793 319.407 71.2802 319.552C67.5608 319.684 66.184 322.219 65.4733 325.318C63.8305 326.363 62.239 326.309 60.3814 325.378C59.5709 322.623 58.4899 319.811 54.7777 319.561C50.7401 319.288 49.0683 321.95 48.1674 325.112C44.9042 325.469 44.372 321.237 41.2592 322.34V317.687ZM107.588 311.565H96.0026V294.374C93.9613 294.38 92.2354 294.003 90.2101 294.691V311.355H75.7263V294.508C73.6786 294.246 71.9548 294.07 69.9331 294.712V311.291H55.4508V294.351C53.4508 294.359 51.7994 294.035 49.7111 294.72V311.594H35.3887C35.3887 320.943 35.2527 329.826 35.4631 338.701C35.5362 341.749 37.7581 343.374 40.8283 343.45C44.0785 343.531 47.3323 343.475 50.5853 343.475C67.4501 343.475 84.3149 343.459 101.18 343.488C104.43 343.494 107.365 342.496 107.485 338.999C107.793 330.012 107.588 321.009 107.588 311.565Z" fill="white"/>
</g>
</g>
<g opacity="0.4">
<g filter="url(#filter1_f)">
<path fill-rule="evenodd" clip-rule="evenodd" d="M288.078 724.939C290.4 726.899 292.98 726.877 295.331 724.975C297.552 723.179 298.155 720.837 296.777 718.222C295.544 715.882 293.904 713.853 291.704 711.983C289.559 713.815 287.969 715.884 286.676 718.18C285.198 720.806 285.93 723.125 288.078 724.939ZM308.371 724.982C310.721 726.937 313.299 726.851 315.621 724.938C317.826 723.122 318.377 720.771 316.986 718.164C315.789 715.919 314.214 713.962 311.937 711.968C309.801 713.899 308.142 715.91 306.881 718.241C305.444 720.898 306.211 723.185 308.371 724.982ZM328.656 725.016C331.026 726.953 333.614 726.83 335.907 724.9C338.086 723.069 338.627 720.694 337.206 718.106C335.986 715.882 334.439 713.897 332.26 712.063C329.964 713.738 328.535 715.817 327.251 717.97C325.638 720.674 326.333 723.117 328.656 725.016ZM340.838 772.451H280.569C279.602 769.758 280.441 766.911 280.077 764.013C287.392 766.993 289.517 766.701 293.331 762.321C297.886 768.303 305.217 768.452 310.584 762.443C315.644 768.353 322.276 768.36 327.713 762.648C332.202 766.8 334.143 767.02 340.838 763.981V772.451ZM280.259 752.687H340.646V756.922C337.952 756.615 337.114 759.987 334.003 760.32C332.838 756.938 331.258 754.186 327.155 754.569C323.62 754.899 322.443 757.437 321.725 760.317C320.056 761.294 318.458 761.336 316.621 760.377C315.813 757.222 314.379 754.407 310.28 754.552C306.561 754.684 305.184 757.219 304.473 760.318C302.83 761.363 301.239 761.309 299.381 760.378C298.571 757.623 297.49 754.811 293.778 754.561C289.74 754.288 288.068 756.95 287.167 760.112C283.904 760.469 283.372 756.237 280.259 757.34V752.687ZM346.588 746.565H335.003V729.374C332.961 729.38 331.235 729.003 329.21 729.691V746.355H314.726V729.508C312.679 729.246 310.955 729.07 308.933 729.712V746.291H294.451V729.351C292.451 729.359 290.799 729.035 288.711 729.72V746.594H274.389C274.389 755.943 274.253 764.826 274.463 773.701C274.536 776.749 276.758 778.374 279.828 778.45C283.078 778.531 286.332 778.475 289.585 778.475C306.45 778.475 323.315 778.459 340.18 778.488C343.43 778.494 346.365 777.496 346.485 773.999C346.793 765.012 346.588 756.009 346.588 746.565Z" fill="white"/>
</g>
</g>
</g>
<defs>
<filter id="filter0_f" x="32.6272" y="274.249" width="77.7457" height="71.9626" filterUnits="userSpaceOnUse" color-interpolation-filters="sRGB">
<feFlood flood-opacity="0" result="BackgroundImageFix"/>
<feBlend mode="normal" in="SourceGraphic" in2="BackgroundImageFix" result="shape"/>
<feGaussianBlur stdDeviation="1.35914" result="effect1_foregroundBlur"/>
</filter>
<filter id="filter1_f" x="271.627" y="709.249" width="77.7457" height="71.9626" filterUnits="userSpaceOnUse" color-interpolation-filters="sRGB">
<feFlood flood-opacity="0" result="BackgroundImageFix"/>
<feBlend mode="normal" in="SourceGraphic" in2="BackgroundImageFix" result="shape"/>
<feGaussianBlur stdDeviation="1.35914" result="effect1_foregroundBlur"/>
</filter>
</defs>
</svg>
