<svg width="367" height="59" viewBox="0 0 367 59" fill="none" xmlns="http://www.w3.org/2000/svg">
<rect width="367" height="129" fill="#E0F7FE"/>
<g clip-path="url(#clip0)">
<path fill-rule="evenodd" clip-rule="evenodd" d="M111.42 -10.8203C116.928 -6.17612 123.048 -6.22918 128.625 -10.733C133.895 -14.9886 135.326 -20.5348 132.056 -26.7299C129.131 -32.2745 125.241 -37.0796 120.021 -41.5097C114.933 -37.1686 111.161 -32.2693 108.092 -26.8292C104.585 -20.6102 106.323 -15.1169 111.42 -10.8203V-10.8203ZM159.561 -10.7173C165.136 -6.08683 171.254 -6.29053 176.764 -10.8217C181.994 -15.1235 183.301 -20.6921 180.001 -26.8683C177.162 -32.1852 173.424 -36.8225 168.022 -41.5454C162.954 -36.9697 159.019 -32.2074 156.027 -26.6851C152.619 -20.3925 154.437 -14.9746 159.561 -10.7173V-10.7173ZM207.688 -10.6365C213.309 -6.04708 219.449 -6.3398 224.89 -10.9103C230.06 -15.2498 231.342 -20.8748 227.973 -27.0049C225.077 -32.2738 221.408 -36.9762 216.237 -41.3208C210.789 -37.3511 207.399 -32.4279 204.355 -27.3284C200.527 -20.9228 202.176 -15.1351 207.688 -10.6365V-10.6365ZM236.589 101.729H93.6048C91.3096 95.3489 93.2995 88.6043 92.4366 81.74C109.79 88.7995 114.833 88.1062 123.88 77.7309C134.688 91.903 152.08 92.2556 164.812 78.0219C176.817 92.0194 192.551 92.0365 205.449 78.5063C216.1 88.3407 220.704 88.8628 236.589 81.6646V101.729ZM92.8689 54.9106H236.133V64.9435C229.741 64.2143 227.753 72.2033 220.371 72.9925C217.608 64.9812 213.86 58.4626 204.126 59.3699C195.74 60.1504 192.947 66.1623 191.243 72.9856C187.284 75.3 183.493 75.3976 179.134 73.126C177.218 65.6539 173.816 58.9847 164.092 59.3288C155.268 59.6403 152.001 65.6471 150.315 72.9874C146.418 75.4626 142.642 75.3343 138.235 73.1294C136.312 66.604 133.748 59.9416 124.941 59.3493C115.362 58.704 111.396 65.0086 109.258 72.4995C101.516 73.3451 100.254 63.3207 92.8689 65.933V54.9106ZM250.228 40.4097H222.744V-0.314469C217.901 -0.299062 213.806 -1.19263 209.002 0.437019V39.9115H174.64V0.00392922C169.782 -0.61746 165.692 -1.03343 160.896 0.486662V39.7592H126.538V-0.367535C121.793 -0.348705 117.875 -1.11731 112.921 0.507203V40.4781H78.9414C78.9414 62.6239 78.6189 83.6656 79.118 104.688C79.2913 111.909 84.5628 115.759 91.8465 115.938C99.5574 116.13 107.277 115.997 114.994 115.997C155.005 115.998 195.016 115.959 235.028 116.029C242.737 116.043 249.7 113.677 249.985 105.395C250.716 84.1072 250.228 62.7797 250.228 40.4097V40.4097Z" fill="#F0FBFF"/>
<g filter="url(#filter0_d)">
<path fill-rule="evenodd" clip-rule="evenodd" d="M38 71C56.2254 71 71 56.2254 71 38C71 19.7746 56.2254 5 38 5C19.7746 5 5 19.7746 5 38C5 56.2254 19.7746 71 38 71Z" fill="white"/>
</g>
<path fill-rule="evenodd" clip-rule="evenodd" d="M37.9999 62.3021C50.9341 62.3021 61.4193 51.8169 61.4193 38.8827C61.4193 25.9486 50.9341 15.4634 37.9999 15.4634C25.0658 15.4634 14.5806 25.9486 14.5806 38.8827C14.5806 51.8169 25.0658 62.3021 37.9999 62.3021Z" fill="#B47153"/>
<path fill-rule="evenodd" clip-rule="evenodd" d="M29.3865 29.9948C30.2225 30.7008 31.1515 30.6927 31.9979 30.0081C32.7978 29.3612 33.0149 28.5181 32.5186 27.5764C32.0747 26.7335 31.4842 26.0031 30.6919 25.3297C29.9197 25.9896 29.3471 26.7343 28.8813 27.5613C28.3492 28.5066 28.6129 29.3417 29.3865 29.9948V29.9948ZM36.6933 30.0104C37.5395 30.7143 38.468 30.6833 39.3043 29.9946C40.0981 29.3406 40.2965 28.4942 39.7956 27.5553C39.3647 26.7471 38.7973 26.0422 37.9775 25.3242C37.2083 26.0198 36.6111 26.7437 36.157 27.5831C35.6396 28.5397 35.9156 29.3633 36.6933 30.0104V30.0104ZM43.9979 30.0226C44.8511 30.7203 45.7829 30.6758 46.6088 29.981C47.3936 29.3214 47.5881 28.4663 47.0767 27.5345C46.6372 26.7335 46.0803 26.0187 45.2955 25.3583C44.4686 25.9617 43.9541 26.7101 43.492 27.4853C42.9111 28.459 43.1613 29.3388 43.9979 30.0226V30.0226ZM48.3845 47.1034H26.6826C26.3342 46.1336 26.6362 45.1084 26.5053 44.0649C29.1391 45.138 29.9046 45.0326 31.2777 43.4555C32.918 45.6098 35.5579 45.6634 37.4903 43.4997C39.3124 45.6275 41.7004 45.6301 43.6581 43.5733C45.2747 45.0683 45.9735 45.1476 48.3845 44.0534V47.1034ZM26.5709 39.9866H48.3153V41.5117C47.3451 41.4008 47.0434 42.6153 45.923 42.7352C45.5036 41.5174 44.9347 40.5265 43.4574 40.6644C42.1844 40.7831 41.7606 41.697 41.502 42.7342C40.9011 43.086 40.3257 43.1008 39.6641 42.7555C39.3733 41.6197 38.857 40.6059 37.381 40.6582C36.0416 40.7055 35.5459 41.6186 35.29 42.7344C34.6984 43.1107 34.1254 43.0912 33.4565 42.756C33.1646 41.7641 32.7754 40.7513 31.4387 40.6613C29.9848 40.5632 29.3828 41.5216 29.0584 42.6603C27.8834 42.7888 27.6917 41.265 26.5709 41.6621V39.9866ZM50.4547 37.7823H46.2831V31.5917C45.5481 31.5941 44.9266 31.4582 44.1973 31.706V37.7065H38.9819V31.6401C38.2446 31.5457 37.6239 31.4824 36.8959 31.7135V37.6834H31.681V31.5837C30.9609 31.5865 30.3662 31.4697 29.6143 31.7166V37.7927H24.457C24.457 41.1591 24.408 44.3576 24.4838 47.5533C24.5101 48.6509 25.3102 49.2361 26.4157 49.2635C27.586 49.2926 28.7577 49.2723 29.9291 49.2723C36.0018 49.2726 42.0746 49.2666 48.1476 49.2773C49.3177 49.2793 50.3745 48.9197 50.4177 47.6608C50.5286 44.4248 50.4547 41.1827 50.4547 37.7823V37.7823Z" fill="white"/>
</g>
<defs>
<filter id="filter0_d" x="3" y="4" width="70" height="70" filterUnits="userSpaceOnUse" color-interpolation-filters="sRGB">
<feFlood flood-opacity="0" result="BackgroundImageFix"/>
<feColorMatrix in="SourceAlpha" type="matrix" values="0 0 0 0 0 0 0 0 0 0 0 0 0 0 0 0 0 0 127 0"/>
<feOffset dy="1"/>
<feGaussianBlur stdDeviation="1"/>
<feColorMatrix type="matrix" values="0 0 0 0 0 0 0 0 0 0 0 0 0 0 0 0 0 0 0.06 0"/>
<feBlend mode="normal" in2="BackgroundImageFix" result="effect1_dropShadow"/>
<feBlend mode="normal" in="SourceGraphic" in2="effect1_dropShadow" result="shape"/>
</filter>
<clipPath id="clip0">
<rect width="367" height="129" fill="white"/>
</clipPath>
</defs>
</svg>
