<svg width="66" height="67" viewBox="0 0 66 67" fill="none" xmlns="http://www.w3.org/2000/svg">
<g filter="url(#filter0_d)">
<path fill-rule="evenodd" clip-rule="evenodd" d="M33 63.5C50.1208 63.5 64 49.6208 64 32.5C64 15.3792 50.1208 1.5 33 1.5C15.8792 1.5 2 15.3792 2 32.5C2 49.6208 15.8792 63.5 33 63.5Z" fill="white"/>
</g>
<path fill-rule="evenodd" clip-rule="evenodd" d="M33 54.5C45.1503 54.5 55 44.6503 55 32.5C55 20.3497 45.1503 10.5 33 10.5C20.8497 10.5 11 20.3497 11 32.5C11 44.6503 20.8497 54.5 33 54.5Z" fill="#B47153"/>
<path fill-rule="evenodd" clip-rule="evenodd" d="M24.9085 24.1507C25.6939 24.8139 26.5666 24.8063 27.3617 24.1631C28.1131 23.5555 28.3171 22.7635 27.8509 21.8788C27.4339 21.0871 26.8792 20.4009 26.1349 19.7683C25.4094 20.3882 24.8716 21.0878 24.434 21.8646C23.9341 22.7527 24.1819 23.5371 24.9085 24.1507V24.1507ZM31.7726 24.1654C32.5675 24.8266 33.4397 24.7975 34.2253 24.1504C34.971 23.5362 35.1574 22.741 34.6868 21.859C34.282 21.0998 33.7491 20.4376 32.9789 19.7632C32.2564 20.4166 31.6953 21.0966 31.2687 21.8852C30.7827 22.7838 31.042 23.5574 31.7726 24.1654V24.1654ZM38.6344 24.1768C39.4359 24.8322 40.3113 24.7904 41.0871 24.1377C41.8243 23.5181 42.007 22.7148 41.5266 21.8395C41.1138 21.0871 40.5906 20.4156 39.8534 19.7952C39.0766 20.362 38.5933 21.0651 38.1592 21.7933C37.6135 22.708 37.8486 23.5344 38.6344 24.1768V24.1768ZM42.7552 40.2224H22.3685C22.0413 39.3114 22.325 38.3483 22.2019 37.368C24.6762 38.3761 25.3953 38.2771 26.6852 36.7955C28.2261 38.8193 30.7059 38.8697 32.5212 36.8371C34.2329 38.8359 36.4762 38.8384 38.3152 36.9063C39.8339 38.3106 40.4903 38.3852 42.7552 37.3573V40.2224ZM22.2636 33.5369H42.6901V34.9696C41.7788 34.8654 41.4953 36.0062 40.4429 36.1189C40.0489 34.9749 39.5144 34.0441 38.1267 34.1736C36.9309 34.2851 36.5327 35.1436 36.2898 36.118C35.7253 36.4484 35.1848 36.4624 34.5633 36.138C34.2901 35.071 33.8051 34.1186 32.4185 34.1678C31.1604 34.2123 30.6947 35.07 30.4543 36.1182C29.8986 36.4717 29.3602 36.4533 28.7319 36.1385C28.4577 35.2067 28.0921 34.2553 26.8364 34.1707C25.4706 34.0786 24.9051 34.9788 24.6004 36.0485C23.4965 36.1693 23.3165 34.7378 22.2636 35.1108V33.5369ZM44.6999 31.4662H40.7811V25.6508C40.0907 25.653 39.5068 25.5254 38.8218 25.7581V31.395H33.9225V25.6963C33.2298 25.6076 32.6467 25.5482 31.9629 25.7652V31.3733H27.0641V25.6432C26.3875 25.6459 25.8289 25.5362 25.1225 25.7682V31.4759H20.2778C20.2778 34.6383 20.2318 37.643 20.303 40.645C20.3277 41.6761 21.0793 42.2259 22.1178 42.2515C23.2172 42.2789 24.3179 42.2598 25.4182 42.2598C31.123 42.2601 36.8277 42.2545 42.5326 42.2645C43.6318 42.2664 44.6246 41.9286 44.6652 40.746C44.7693 37.7061 44.6999 34.6606 44.6999 31.4662V31.4662Z" fill="white"/>
<defs>
<filter id="filter0_d" x="0" y="0.5" width="66" height="66" filterUnits="userSpaceOnUse" color-interpolation-filters="sRGB">
<feFlood flood-opacity="0" result="BackgroundImageFix"/>
<feColorMatrix in="SourceAlpha" type="matrix" values="0 0 0 0 0 0 0 0 0 0 0 0 0 0 0 0 0 0 127 0"/>
<feOffset dy="1"/>
<feGaussianBlur stdDeviation="1"/>
<feColorMatrix type="matrix" values="0 0 0 0 0 0 0 0 0 0 0 0 0 0 0 0 0 0 0.06 0"/>
<feBlend mode="normal" in2="BackgroundImageFix" result="effect1_dropShadow"/>
<feBlend mode="normal" in="SourceGraphic" in2="effect1_dropShadow" result="shape"/>
</filter>
</defs>
</svg>
