<svg xmlns="http://www.w3.org/2000/svg" width="276" height="52" fill="none"><g filter="url(#a)"><path fill="#fff" d="M12 18c0-6.627 5.373-12 12-12h228c6.627 0 12 5.373 12 12v132c0 6.627-5.373 12-12 12H24c-6.627 0-12-5.373-12-12V18Z"/></g><circle cx="30" cy="24" r="8" fill="#DFE0E3"/><circle cx="253" cy="17" r="3" fill="#DFE0E3"/><rect width="62" height="6" x="42" y="21" fill="#DFE0E3" rx="3"/><rect width="35" height="4" x="48" y="29" fill="#DFE0E3" rx="2"/><rect width="26" height="4" x="22" y="42" fill="#DFE0E3" rx="2"/><rect width="164" height="4" x="90" y="42" fill="#DFE0E3" rx="2"/><rect width="66" height="4" x="85" y="29" fill="#DFE0E3" rx="2"/><defs><filter id="a" width="276" height="180" x="0" y="0" color-interpolation-filters="sRGB" filterUnits="userSpaceOnUse"><feFlood flood-opacity="0" result="BackgroundImageFix"/><feColorMatrix in="SourceAlpha" result="hardAlpha" values="0 0 0 0 0 0 0 0 0 0 0 0 0 0 0 0 0 0 127 0"/><feOffset dy="6"/><feGaussianBlur stdDeviation="6"/><feComposite in2="hardAlpha" operator="out"/><feColorMatrix values="0 0 0 0 0.00566667 0 0 0 0 0 0 0 0 0 0.283333 0 0 0 0.08 0"/><feBlend in2="BackgroundImageFix" result="effect1_dropShadow_5187_73942"/><feBlend in="SourceGraphic" in2="effect1_dropShadow_5187_73942" result="shape"/></filter></defs></svg>