<svg width="36" height="36" viewBox="0 0 36 36" fill="none" xmlns="http://www.w3.org/2000/svg">
<path d="M3.84031 26.2528C3.41281 27.3007 3.0625 28.1843 3.0625 28.2183C3.0625 28.2811 4.56366 28.2917 5.91677 28.2896C7.15898 28.2878 8.27329 27.5153 8.71891 26.3558C8.90033 25.8837 9.08136 25.4114 9.26125 24.9388L9.87281 23.3245L14.4447 23.3075L19.0166 23.2962L19.925 25.5448C20.2114 26.2571 20.4923 26.9723 20.7897 27.6802C20.9434 28.0462 21.3021 28.2869 21.6981 28.3127C23.0692 28.4022 25.8207 28.6226 26.0644 28.2353C26.0762 28.2126 24.0219 23.2735 21.4984 17.264L16.9087 6.33232L14.6649 6.3194C13.0472 6.31008 11.5821 7.27562 10.9613 8.76943C8.54636 14.5798 6.21715 20.4269 3.84031 26.2528ZM15.9706 15.5874C16.8078 17.7454 17.4847 19.5239 17.4728 19.5352C17.4609 19.5466 16.0716 19.5522 14.3912 19.5466L11.3394 19.5296L12.8534 15.5534C13.6906 13.3671 14.3912 11.5942 14.4091 11.6169C14.4269 11.6395 15.1334 13.4237 15.9706 15.5874Z" fill="white"/>
<mask id="mask0_1580_7073" style="mask-type:alpha" maskUnits="userSpaceOnUse" x="3" y="6" width="24" height="23">
<path d="M11.7134 6.96689C11.565 7.33505 11.3216 7.92978 11.1731 8.28662C10.8881 8.99462 8.905 13.8544 6.23906 20.3794C5.6275 21.8747 5.01594 23.3757 4.87344 23.7212C4.73687 24.061 4.26781 25.2052 3.84031 26.253C3.41281 27.3009 3.0625 28.1845 3.0625 28.2185C3.0625 28.2638 3.79875 28.2808 5.52062 28.2808H7.05055C7.60967 28.2808 8.11096 27.9362 8.31125 27.4142C8.49531 26.944 8.92281 25.8282 9.26125 24.939L9.87281 23.3247L14.4447 23.3077L19.0166 23.2964L19.925 25.545C20.2163 26.2695 20.5019 26.997 20.805 27.7169C20.9511 28.0639 21.284 28.2941 21.6599 28.3154L23.532 28.4212C24.9035 28.4212 26.0644 28.5569 26.0644 28.2354C26.0762 28.2128 24.0219 23.2737 21.4984 17.2642L17.1641 6.94081C17.0092 6.57182 16.6492 6.33072 16.249 6.32795L14.4506 6.31552L12.6598 6.30727C12.2558 6.30541 11.8903 6.54682 11.7335 6.91916L11.7134 6.96689ZM15.9706 15.5876C16.8078 17.7456 17.4847 19.5241 17.4728 19.5354C17.4609 19.5468 16.0716 19.5524 14.3912 19.5468L11.3394 19.5298L12.8534 15.5536C13.6906 13.3673 14.3912 11.5944 14.4091 11.6171C14.4269 11.6397 15.1334 13.4239 15.9706 15.5876Z" fill="white"/>
</mask>
<g mask="url(#mask0_1580_7073)">
<rect opacity="0.4" x="21.0625" y="12.5569" width="4" height="16" fill="url(#paint0_linear_1580_7073)"/>
</g>
<path d="M19.9736 4.05657C19.9736 4.60885 20.4213 5.05657 20.9736 5.05657H21.6955H23.4174L23.4174 30.0566H21.6955H20.9736C20.4213 30.0566 19.9736 30.5043 19.9736 31.0566L19.9736 31.5591C19.9736 32.1114 20.4213 32.5591 20.9736 32.5591L24.4933 32.5591H29.4417C29.994 32.5591 30.4417 32.1114 30.4417 31.5591V31.0567C30.4417 30.5044 29.994 30.0567 29.4417 30.0567H28.7198H26.998V5.05659H28.7198H29.4417C29.994 5.05659 30.4417 4.60887 30.4417 4.05659V3.56591C30.4417 3.01362 29.994 2.56591 29.4417 2.56591H24.4933L20.9736 2.56589C20.4214 2.56589 19.9736 3.0136 19.9736 3.56589V4.05657Z" fill="white"/>
<defs>
<linearGradient id="paint0_linear_1580_7073" x1="23.7292" y1="19.7569" x2="21.0625" y2="19.7569" gradientUnits="userSpaceOnUse">
<stop stop-color="#ADADAD"/>
<stop offset="1" stop-color="#ACACAC" stop-opacity="0"/>
</linearGradient>
</defs>
</svg>
