<svg width="68" height="68" viewBox="0 0 68 68" fill="none" xmlns="http://www.w3.org/2000/svg">
<path d="M36.2828 2.97286C36.462 2.4712 37.1716 2.4716 37.3503 2.97346L38.0387 4.90724C38.0957 5.06747 38.2217 5.19361 38.3819 5.25083L40.3149 5.94142C40.8166 6.12065 40.8162 6.83024 40.3143 7.0089L38.3805 7.69733C38.2203 7.75437 38.0942 7.88037 38.037 8.04053L37.3464 9.97354C37.1671 10.4752 36.4575 10.4748 36.2789 9.97295L35.5905 8.03916C35.5334 7.87893 35.4074 7.7528 35.2472 7.69557L33.3142 7.00498C32.8126 6.82576 32.813 6.11616 33.3148 5.9375L35.2486 5.24907C35.4088 5.19203 35.535 5.06604 35.5922 4.90587L36.2828 2.97286Z" fill="#E6E7E9"/>
<path d="M13.0367 4.77487C13.2159 4.27321 13.9255 4.27361 14.1041 4.77547L16.4958 11.4935C16.5528 11.6538 16.6788 11.7799 16.839 11.8371L23.5544 14.2363C24.056 14.4155 24.0556 15.1251 23.5538 15.3038L16.8357 17.6954C16.6755 17.7524 16.5493 17.8784 16.4921 18.0386L14.093 24.754C13.9137 25.2557 13.2041 25.2553 13.0255 24.7534L10.6338 18.0353C10.5768 17.8751 10.4508 17.749 10.2906 17.6917L3.57525 15.2926C3.07359 15.1134 3.07399 14.4038 3.57585 14.2251L10.2939 11.8335C10.4542 11.7764 10.5803 11.6504 10.6375 11.4903L13.0367 4.77487Z" fill="#E6E7E9"/>
<path fill-rule="evenodd" clip-rule="evenodd" d="M14.6968 53.3672L14.7094 30.8527C22.5556 29.1565 28.7279 22.9614 30.3895 15.1011L52.9931 15.1138C55.8116 15.1154 58.0951 17.4015 58.0935 20.2199L58.075 53.3915C58.0734 56.2099 55.7873 58.4935 52.9688 58.4919L19.7973 58.4733C16.9788 58.4717 14.6952 56.1856 14.6968 53.3672ZM19.9328 52.4825C19.9326 52.8998 20.2707 53.2383 20.688 53.2385L52.234 53.2562C52.6513 53.2564 52.9897 52.9183 52.99 52.501L52.9908 50.9957C52.9909 50.814 52.9255 50.6383 52.8065 50.5008L44.7527 41.1961C44.4516 40.8482 43.9122 40.8479 43.6107 41.1954L40.342 44.9627C40.0406 45.3101 39.5012 45.3098 39.2001 44.962L29.329 33.5593C29.0279 33.2115 28.4885 33.2112 28.187 33.5587L20.1228 42.8531C20.0037 42.9904 19.938 43.166 19.9379 43.3478L19.9328 52.4825ZM45.2363 22.4784C45.4155 21.9767 46.1251 21.9771 46.3038 22.479L47.4372 25.6627C47.4942 25.8229 47.6202 25.9491 47.7804 26.0063L50.9628 27.1432C51.4645 27.3225 51.4641 28.0321 50.9622 28.2107L47.7785 29.3441C47.6183 29.4012 47.4922 29.5271 47.4349 29.6873L46.298 32.8697C46.1187 33.3714 45.4092 33.371 45.2305 32.8691L44.0971 29.6854C44.0401 29.5252 43.9141 29.3991 43.7539 29.3419L40.5715 28.2049C40.0698 28.0257 40.0702 27.3161 40.5721 27.1374L43.7558 26.004C43.916 25.947 44.0421 25.821 44.0994 25.6608L45.2363 22.4784Z" fill="#E6E7E9"/>
</svg>
