<svg width="248" height="77" viewBox="0 0 248 77" fill="none" xmlns="http://www.w3.org/2000/svg">
	<rect opacity="0.2" y="0" width="248" height="5" rx="2.5" fill="#D9D9D9"/>
	<rect width="220" height="5" rx="2.5" fill="#29D9D0"/>

	<rect opacity="0.2" y="22" width="248" height="5" rx="2.5" fill="#D9D9D9"/>
	<rect y="22" width="100%" height="5" rx="2.5" fill="#29D9D0"/>

	<rect opacity="0.2" y="45" width="248" height="5" rx="2.5" fill="#D9D9D9"/>
	<rect y="45" width="200" height="5" rx="2.5" fill="#29D9D0"/>

	<rect opacity="0.2" y="68" width="248" height="5" rx="2.5" fill="#D9D9D9"/>
	<rect y="68" width="0%" height="5" rx="2.5" fill="#29D9D0"/>

	<path fill-rule="evenodd" clip-rule="evenodd" d="M170 53.4141C170 52.5232 168.923 52.077 168.293 52.707L163 58H162.676H155.352H135.296H110C107.791 58 106 59.7909 106 62V73C106 75.2091 107.791 77 110 77H166C168.209 77 170 75.2091 170 73V59.9999V59V53.4141Z" fill="#BD5BDD"/>
	<path d="M112.387 70.4802C112.232 70.8586 112.106 71.1777 112.106 71.1899C112.106 71.204 112.314 71.2108 112.588 71.2138C113.367 71.2222 114.067 70.7334 114.344 70.0057L114.565 69.4227L116.216 69.4166L117.867 69.4125L118.195 70.2245C118.247 70.3527 118.298 70.4811 118.349 70.6094C118.497 70.9777 118.856 71.2273 119.252 71.2514C119.75 71.2817 120.345 71.3028 120.412 71.1961C120.416 71.1879 119.675 69.4043 118.763 67.2342L117.106 63.2867C116.031 63.2805 115.058 63.9218 114.649 64.9155C113.886 66.7668 113.143 68.6265 112.387 70.4802ZM116.767 66.6288C117.07 67.4081 117.314 68.0503 117.31 68.0544C117.305 68.0585 116.804 68.0605 116.197 68.0585L115.095 68.0523L115.642 66.6165C115.944 65.827 116.197 65.1868 116.203 65.195C116.21 65.2032 116.465 65.8475 116.767 66.6288Z" fill="white"/>

	<text x="20" y="35" class="small"></text>
	<path d="M118.213 62.3763C118.213 62.6246 118.414 62.826 118.662 62.826H118.834H119.456V71.8538H118.834H118.664C118.415 71.8538 118.213 72.0561 118.213 72.3056C118.213 72.5552 118.415 72.7574 118.664 72.7574L119.845 72.7574H121.541C121.791 72.7574 121.993 72.5552 121.993 72.3056C121.993 72.0561 121.791 71.8538 121.541 71.8538H121.371H120.749V62.826H121.371H121.543C121.791 62.826 121.993 62.6247 121.993 62.3763C121.993 62.1279 121.791 61.9266 121.543 61.9266H119.845L118.662 61.9266C118.414 61.9266 118.213 62.1279 118.213 62.3763Z" fill="white"/>
	<path d="M132.302 71V64.6587H126.813V71H128.14V65.7529H130.975V71H132.302ZM133.932 71H135.207L138.388 66.2759L137.483 66.7637H138.142V71H139.465V64.6587H138.195L135.013 69.3872L135.918 68.8994H135.255V64.6587H133.932V71ZM141.095 71H148.68V64.6587H147.353V69.9058H145.551V64.6587H144.224V69.9058H142.422V64.6587H141.095V71ZM150.306 71H154.507V69.9058H151.633V68.3018H154.345V67.2822H151.633V65.7529H154.507V64.6587H150.306V71ZM157.487 71H158.814V65.7529H160.717V64.6587H155.584V65.7529H157.487V71Z" fill="white"/>
</svg>
