<svg width="24" height="24" viewBox="0 0 24 24" fill="none" xmlns="http://www.w3.org/2000/svg">
<g opacity="1">
<path fill-rule="evenodd" clip-rule="evenodd" d="M14.9082 4.70273C14.6426 4.43434 14.2095 4.43289 13.9421 4.6995L5.4707 13.1463L7.93442 15.636L16.4094 7.1855C16.6754 6.92032 16.6768 6.49001 16.4127 6.22306L14.9082 4.70273ZM4.15063 16.9541C4.08739 16.8892 4.06243 16.7961 4.08573 16.7079L4.82792 13.9546L7.15102 16.277L4.39692 17.019C4.30872 17.0439 4.21553 17.019 4.15063 16.9541ZM5.65405 19.2486L4.95774 18.4947C5.04697 18.5016 5.13716 18.5052 5.22818 18.5052C6.69264 18.5052 7.94294 17.5883 8.43633 16.2972L8.68077 16.1238C9.21658 15.7437 9.94228 15.777 10.4411 16.2045L11.9573 17.5042L13.4652 16.3553C14.191 15.8023 15.2236 15.9189 15.8078 16.6199L16.3568 17.2787L18.563 16.6215C19.0653 16.3631 19.8045 16.4082 20.0628 16.9105C20.3212 17.4128 20.0489 17.6801 19.5466 17.9385L17.0494 19.2228C16.3395 19.5878 15.4713 19.4114 14.9602 18.7981L14.4453 18.1802L12.8023 19.4319C12.2653 19.8411 11.5154 19.8195 11.0027 19.3801L9.47355 18.0694L7.53436 19.445C6.94732 19.8614 6.14239 19.7773 5.65405 19.2486Z" fill="white"/>
</g>
</svg>
