<svg width="55" height="34" viewBox="0 0 55 34" fill="none" xmlns="http://www.w3.org/2000/svg">
<path fill-rule="evenodd" clip-rule="evenodd" d="M0.404163 32.3554C0.403778 33.0427 0.960625 33.6002 1.64791 33.6006L53.6061 33.6297C54.2933 33.6301 54.8508 33.0732 54.8512 32.3859L54.8526 29.9066C54.8527 29.6072 54.745 29.3178 54.5491 29.0915L41.2839 13.766C40.788 13.1931 39.8996 13.1925 39.403 13.7649L34.0193 19.9698C33.5228 20.5421 32.6344 20.5416 32.1385 19.9687L15.8802 1.18778C15.3843 0.614939 14.4959 0.614441 13.9993 1.18673L0.71708 16.4951C0.520865 16.7213 0.412762 17.0106 0.412595 17.31L0.404163 32.3554Z" fill="#EDEEF0"/>
</svg>
