<svg width="20" height="19" viewBox="0 0 20 19" fill="none" xmlns="http://www.w3.org/2000/svg">
<path d="M9.08041 0.937083C9.3756 0.110824 10.5443 0.111479 10.8386 0.938068L12.7054 6.1818C12.7993 6.4457 13.0068 6.65345 13.2706 6.7477L18.5123 8.62034C19.3385 8.91553 19.3379 10.0843 18.5113 10.3785L13.2676 12.2453C13.0037 12.3393 12.7959 12.5468 12.7017 12.8106L10.829 18.0522C10.5338 18.8785 9.36508 18.8778 9.07082 18.0512L7.20405 12.8075C7.1101 12.5436 6.90258 12.3358 6.63878 12.2416L1.39714 10.369C0.57088 10.0738 0.571541 8.90502 1.39813 8.61075L6.64186 6.74399C6.90577 6.65004 7.11352 6.44252 7.20776 6.17872L9.08041 0.937083Z" fill="#3CC3D4"/>
</svg>
