<svg width="112" height="112" viewBox="0 0 112 112" fill="none" xmlns="http://www.w3.org/2000/svg">
<path fill-rule="evenodd" clip-rule="evenodd" d="M21.7803 84.8124L21.8011 47.7297C34.7242 44.936 44.8903 34.7324 47.6272 21.7859L84.8566 21.8068C89.4988 21.8094 93.2599 25.5748 93.2573 30.217L93.2267 84.8524C93.2241 89.4946 89.4587 93.2558 84.8165 93.2532L30.1811 93.2225C25.5389 93.2199 21.7777 89.4546 21.7803 84.8124ZM30.4043 83.3553C30.404 84.0426 30.9608 84.6001 31.6481 84.6005L83.6062 84.6296C84.2935 84.63 84.851 84.0731 84.8514 83.3858L84.8528 80.9065C84.8529 80.6071 84.7452 80.3177 84.5493 80.0914L71.2841 64.7659C70.7882 64.193 69.8998 64.1925 69.4032 64.7648L64.0195 70.9697C63.523 71.542 62.6346 71.5415 62.1387 70.9686L45.8804 52.1877C45.3845 51.6148 44.4961 51.6143 43.9995 52.1866L30.7173 67.495C30.521 67.7212 30.4129 68.0105 30.4128 68.3099L30.4043 83.3553Z" fill="#EEF2F4"/>
<circle cx="20" cy="20" r="20" fill="#EEF2F4"/>
<path d="M25.5009 11.2482L20 16.749L14.4992 11.2482C13.499 10.248 12.2488 10.248 11.2487 11.2482C10.2485 12.2483 10.2485 13.4985 11.2487 14.4987L16.7495 19.9995L11.2487 25.5004C10.2485 26.5006 10.2485 27.7508 11.2487 28.7509C12.2488 29.7511 13.499 29.7511 14.4992 28.7509L20 23.2501L25.5009 28.7509C26.5011 29.7511 27.7513 29.7511 28.7514 28.7509C29.7516 27.7508 29.7516 26.5006 28.7514 25.5004L23.2506 19.9995L28.7514 14.4987C29.7516 13.4985 29.7516 12.2483 28.7514 11.2482C27.7513 10.498 26.251 10.498 25.5009 11.2482Z" fill="#F8FAFB"/>
</svg>
