<svg width="24" height="24" viewBox="0 0 24 24" fill="none" xmlns="http://www.w3.org/2000/svg">
<g opacity="1">
<path fill-rule="evenodd" clip-rule="evenodd" d="M4.95752 18.4947L5.65383 19.2486C6.14217 19.7773 6.9471 19.8614 7.53414 19.445L9.47333 18.0694L11.0025 19.3801C11.5151 19.8195 12.2651 19.8411 12.8021 19.4319L14.445 18.1802L14.96 18.7981C15.4711 19.4114 16.3393 19.5878 17.0491 19.2228L19.5463 17.9385C20.0487 17.6802 20.3209 17.4128 20.0626 16.9105C19.8043 16.4082 19.0651 16.3631 18.5628 16.6215L16.3566 17.2788L15.8075 16.6199C15.2234 15.9189 14.1908 15.8023 13.465 16.3553L11.9571 17.5042L10.4408 16.2046C9.94206 15.777 9.21636 15.7438 8.68055 16.1238L8.43611 16.2972C7.94272 17.5883 6.69242 18.5052 5.22796 18.5052C5.13694 18.5052 5.04675 18.5016 4.95752 18.4947Z" fill="white"/>
<path fill-rule="evenodd" clip-rule="evenodd" d="M16.162 2.51893C16.5053 1.89974 15.8747 0.865565 15.0103 1.57135C13.286 2.97929 9.83854 6.34144 8.23485 8.89909C8.01141 9.25544 8.17422 9.30109 8.48465 9.38814C8.70785 9.45073 9.00737 9.53471 9.29452 9.77097C9.57092 9.99839 9.72815 10.3066 9.8527 10.5508C10.0375 10.9131 10.1503 11.1344 10.4738 10.7413C12.5358 8.23509 15.8188 3.13811 16.162 2.51893ZM5.07855 12.4994C4.98826 12.8551 4.90567 13.1805 4.74453 13.4197C4.41505 13.9087 3.7578 14.3222 3.28749 14.6181C3.04068 14.7734 2.84535 14.8963 2.7759 14.9807C2.57412 15.226 5.4602 15.9103 6.93111 15.0976C8.40203 14.2848 9.10409 13.4128 9.31051 12.343C9.51693 11.2732 8.16321 9.63815 6.57453 10.3639C5.49541 10.8569 5.26974 11.7461 5.07855 12.4994Z" fill="white"/>
</g>
</svg>
