<svg width="86" height="23" viewBox="0 0 86 23" fill="none" xmlns="http://www.w3.org/2000/svg">
<path fill-rule="evenodd" clip-rule="evenodd" d="M12.1956 20.1485C11.1482 21.5357 9.70749 22.2293 7.87344 22.2293C6.10456 22.2293 4.72669 21.5916 3.73984 20.3161L3.57227 21.95H0.5V0.5H3.89346V8.29238C4.871 7.13796 6.18835 6.56074 7.84551 6.56074C9.68887 6.56074 11.1366 7.24502 12.1886 8.61357C13.2406 9.98213 13.7666 11.8953 13.7666 14.3531V14.5486C13.7666 16.8947 13.2429 18.7614 12.1956 20.1485ZM3.89346 17.4952C4.4986 18.8079 5.54131 19.4643 7.02158 19.4643C8.08291 19.4643 8.90218 19.0686 9.47939 18.2772C10.0566 17.4859 10.3545 16.2896 10.3731 14.6883V14.2554C10.3731 12.6168 10.0845 11.3879 9.50732 10.5687C8.93011 9.74938 8.09222 9.33975 6.99365 9.33975C5.52269 9.33975 4.48929 9.98213 3.89346 11.2669V17.4952ZM23.2627 22.2293C24.5195 22.2293 25.653 21.9803 26.6631 21.4822C27.6733 20.9841 28.4809 20.2835 29.086 19.3805L27.2566 17.6349C26.2791 18.8917 25.013 19.5201 23.4582 19.5201C22.3503 19.5201 21.431 19.157 20.7001 18.4309C19.9693 17.7047 19.5527 16.7178 19.4503 15.4703H29.3234V14.1018C29.3234 11.6998 28.7625 9.84248 27.6407 8.52979C26.5188 7.21709 24.9292 6.56074 22.8717 6.56074C21.5776 6.56074 20.4046 6.89124 19.3525 7.55225C18.3005 8.21325 17.4836 9.13726 16.9017 10.3243C16.3198 11.5113 16.0289 12.8589 16.0289 14.3671V14.786C16.0289 17.039 16.6969 18.8428 18.0329 20.1974C19.3688 21.552 21.1121 22.2293 23.2627 22.2293ZM19.5062 12.9846H25.9719V12.7332C25.8974 11.5974 25.5948 10.7386 25.0642 10.1567C24.5335 9.57482 23.798 9.28389 22.8577 9.28389C21.9267 9.28389 21.175 9.60973 20.6024 10.2614C20.0298 10.9131 19.6644 11.8208 19.5062 12.9846Z" fill="#E36F10"/>
<path fill-rule="evenodd" clip-rule="evenodd" d="M78.1585 22.2293C79.8529 22.2293 81.2075 21.6148 82.2223 20.3859L82.3899 21.95H85.4621V0.5H82.0687V8.23652C81.0818 7.11934 79.7877 6.56074 78.1864 6.56074C76.371 6.56074 74.9233 7.26597 73.8434 8.67642C72.7634 10.0869 72.2234 11.9558 72.2234 14.2833C72.2234 16.7318 72.7704 18.6683 73.8643 20.0927C74.9582 21.5171 76.3896 22.2293 78.1585 22.2293ZM67.4754 4.70342C68.0899 4.70342 68.5647 4.53351 68.8998 4.1937C69.235 3.85389 69.4025 3.42796 69.4025 2.91592C69.4025 2.39456 69.235 1.96165 68.8998 1.61719C68.5647 1.27272 68.0899 1.10049 67.4754 1.10049C66.8609 1.10049 66.3885 1.27272 66.058 1.61719C65.7275 1.96165 65.5622 2.39456 65.5622 2.91592C65.5622 3.42796 65.7275 3.85389 66.058 4.1937C66.3885 4.53351 66.8609 4.70342 67.4754 4.70342ZM35.8171 14.395V21.95H32.284V1.61719H40.0624C42.334 1.61719 44.1378 2.20837 45.4738 3.39072C46.8098 4.57308 47.4777 6.13714 47.4777 8.08291C47.4777 10.0752 46.8237 11.6253 45.5157 12.7332C44.2076 13.8411 42.3759 14.395 40.0205 14.395H35.8171ZM35.8171 11.5602H40.0624C41.3193 11.5602 42.2782 11.2646 42.9392 10.6734C43.6002 10.0822 43.9307 9.22803 43.9307 8.11084C43.9307 7.01227 43.5955 6.13481 42.9252 5.47847C42.2549 4.82212 41.3332 4.48464 40.1602 4.46602H35.8171V11.5602ZM54.7534 22.2293C56.3175 22.2293 57.6395 21.666 58.7194 20.5396C58.8312 21.1912 58.9615 21.6614 59.1105 21.95H62.5737V21.7126C62.192 20.9026 62.0012 19.818 62.0012 18.4588V11.6439C61.9733 10.0333 61.4333 8.78348 60.3813 7.89438C59.3292 7.00529 57.9188 6.56074 56.1499 6.56074C54.9862 6.56074 53.9318 6.76556 52.9869 7.1752C52.0419 7.58483 51.2948 8.15041 50.7455 8.87192C50.1962 9.59344 49.9216 10.3685 49.9216 11.1971H53.3151C53.3151 10.6012 53.5618 10.1101 54.0552 9.72378C54.5486 9.33742 55.1817 9.14424 55.9544 9.14424C56.8482 9.14424 57.5138 9.37931 57.9514 9.84946C58.3889 10.3196 58.6077 10.9457 58.6077 11.7277V12.7192H56.527C54.3019 12.7192 52.5912 13.1498 51.3949 14.011C50.1986 14.8722 49.6004 16.108 49.6004 17.7187C49.6004 18.9941 50.0799 20.0647 51.0388 20.9306C51.9977 21.7964 53.2359 22.2293 54.7534 22.2293ZM53.6432 18.9266C54.0761 19.313 54.6557 19.5062 55.3818 19.5062C56.0522 19.5062 56.6829 19.3432 57.2741 19.0174C57.8653 18.6915 58.3098 18.254 58.6077 17.7047V14.8559H56.7783C55.5215 14.8559 54.5765 15.0746 53.9435 15.5122C53.3104 15.9498 52.9939 16.5689 52.9939 17.3695C52.9939 18.0212 53.2103 18.5403 53.6432 18.9266ZM65.7717 6.84004H69.1651V21.95H65.7717V6.84004ZM76.5037 18.1725C77.0949 19.0337 77.9351 19.4643 79.0243 19.4643C80.4115 19.4643 81.4263 18.8451 82.0687 17.6069V11.1552C81.4449 9.94489 80.4394 9.33975 79.0523 9.33975C77.9537 9.33975 77.1065 9.77498 76.5107 10.6455C75.9148 11.5159 75.6169 12.8263 75.6169 14.5766C75.6169 16.1127 75.9125 17.3113 76.5037 18.1725Z" fill="#4A4038"/>
</svg>
