<svg width="44" height="35" viewBox="0 0 44 35" fill="none" xmlns="http://www.w3.org/2000/svg">
<path fill-rule="evenodd" clip-rule="evenodd" d="M2.76807 0.0240936C1.6635 0.0240936 0.768066 0.919522 0.768066 2.02409V23.9165C0.768066 25.021 1.6635 25.9165 2.76807 25.9165H41.2316C42.3361 25.9165 43.2316 25.021 43.2316 23.9165V2.02409C43.2316 0.919524 42.3361 0.0240936 41.2316 0.0240936H2.76807ZM3.8041 22.0633V9.37053C7.30274 9.36771 10.1381 6.53064 10.1381 3.03134C10.1381 2.97985 10.1375 2.92851 10.1362 2.87731H34.159C34.1578 2.92851 34.1572 2.97985 34.1572 3.03134C34.1572 6.43153 36.8342 9.20648 40.1955 9.36352V22.0632C40.1955 22.6155 39.7478 23.0633 39.1955 23.0633H4.8041C4.25181 23.0633 3.8041 22.6155 3.8041 22.0633ZM0.768066 28.0806V32.2948C0.768066 33.3993 1.6635 34.2948 2.76807 34.2948H41.2316C42.3361 34.2948 43.2316 33.3993 43.2316 32.2948V28.0806H40.1955V30.4415C40.1955 30.9938 39.7478 31.4415 39.1955 31.4415H4.8041C4.25181 31.4415 3.8041 30.9938 3.8041 30.4415V28.0806H0.768066ZM28.5896 12.9703C28.5896 16.6097 25.6393 19.5601 21.9998 19.5601C18.3604 19.5601 15.41 16.6097 15.41 12.9703C15.41 9.33083 18.3604 6.38047 21.9998 6.38047C25.6393 6.38047 28.5896 9.33083 28.5896 12.9703Z" fill="white"/>
</svg>
