<svg width="44" height="35" viewBox="0 0 44 35" fill="none" xmlns="http://www.w3.org/2000/svg">
<path fill-rule="evenodd" clip-rule="evenodd" d="M2.76807 0C1.6635 0 0.768066 0.895428 0.768066 2V23.8924C0.768066 24.9969 1.6635 25.8924 2.76807 25.8924H41.2316C42.3361 25.8924 43.2316 24.9969 43.2316 23.8924V2C43.2316 0.895431 42.3361 0 41.2316 0H2.76807ZM3.8041 22.0392V9.34644C7.30274 9.34362 10.1381 6.50655 10.1381 3.00724C10.1381 2.95575 10.1375 2.90441 10.1362 2.85322H34.159C34.1578 2.90441 34.1572 2.95575 34.1572 3.00724C34.1572 6.40744 36.8342 9.18239 40.1955 9.33943V22.0392C40.1955 22.5914 39.7478 23.0392 39.1955 23.0392H4.8041C4.25181 23.0392 3.8041 22.5914 3.8041 22.0392ZM0.768066 28.0565V32.2707C0.768066 33.3752 1.6635 34.2707 2.76807 34.2707H41.2316C42.3361 34.2707 43.2316 33.3752 43.2316 32.2707V28.0565H40.1955V30.4175C40.1955 30.9697 39.7478 31.4175 39.1955 31.4175H4.8041C4.25181 31.4175 3.8041 30.9697 3.8041 30.4175V28.0565H0.768066ZM28.5896 12.9462C28.5896 16.5856 25.6393 19.536 21.9998 19.536C18.3604 19.536 15.41 16.5856 15.41 12.9462C15.41 9.30673 18.3604 6.35637 21.9998 6.35637C25.6393 6.35637 28.5896 9.30673 28.5896 12.9462Z" fill="#39A68E"/>
</svg>
