<svg xmlns="http://www.w3.org/2000/svg" width="125" height="26" viewBox="0 0 125 26">
  <path fill="#7AB72B" d="M152,43.056316 L154.429878,41 L165,53.0003759 L154.429878,65 L152,62.9459392 L160.760369,53.0003759 L152,43.056316 Z M162,43.056316 L164.429183,41 L175,53.0003759 L164.429183,65 L162,62.9459392 L170.760245,53.0003759 L162,43.056316 Z M61,62.7884174 C61,63.0037588 60.9891124,63.1842317 60.9673371,63.3294531 C60.945173,63.4750576 60.9097882,63.5988213 60.8607939,63.7011277 C60.8114108,63.8038171 60.7515288,63.8789184 60.6803704,63.9271979 C60.609212,63.9758603 60.5248329,64 60.4264555,64 L51.0494892,64 C50.7979073,64 50.5603238,63.9168522 50.3363498,63.7497902 C50.111987,63.5827282 50,63.2892202 50,62.8692662 L50,43.516896 C50,43.4306828 50.0217752,43.3551983 50.0657146,43.2908258 C50.1092651,43.2260701 50.1858673,43.1751086 50.2951324,43.1371748 C50.4043975,43.0996241 50.5517692,43.0674379 50.7376365,43.0402328 C50.9235038,43.0137941 51.1474778,43 51.4099473,43 C51.6829156,43 51.9096115,43.0137941 52.090035,43.0402328 C52.2704585,43.0674379 52.4151083,43.0996241 52.5247623,43.1371748 C52.6336385,43.1751086 52.7106296,43.2260701 52.7541801,43.2908258 C52.7977306,43.3555815 52.8198946,43.4306828 52.8198946,43.516896 L52.8198946,61.593311 L60.4264555,61.593311 C60.5248329,61.593311 60.609212,61.6174506 60.6803704,61.6661132 C60.75114,61.7147758 60.8114108,61.7845127 60.8607939,61.875707 C60.9101771,61.9672847 60.9455618,62.0883663 60.9673371,62.2393352 C60.9891124,62.390304 61,62.5730759 61,62.7884174 Z M67,63.4854793 C67,63.5716778 66.9764203,63.6464339 66.9300882,63.7105105 C66.8833424,63.7749687 66.8018478,63.8256962 66.6860176,63.8634557 C66.5693601,63.9012152 66.4158853,63.9328721 66.2235246,63.9599522 C66.0315774,63.9862693 65.7904025,64 65.5,64 C65.2207667,64 64.9820739,63.9862693 64.7847491,63.9599522 C64.5870105,63.9328721 64.4302262,63.9008337 64.3139824,63.8634557 C64.1977386,63.8256962 64.1162439,63.7749687 64.0699118,63.7105105 C64.0231661,63.6460525 64,63.5716778 64,63.4854793 L64,43.5145208 C64,43.4287038 64.0260618,43.3535662 64.078599,43.2894895 C64.1311363,43.2250313 64.2180089,43.1743039 64.3400442,43.1365444 C64.4620794,43.0991664 64.6192774,43.067128 64.8108108,43.040048 C65.0027579,43.0137307 65.2319361,43 65.5,43 C65.7904025,43 66.0315774,43.0137307 66.2235246,43.040048 C66.4154715,43.067128 66.5693601,43.0991664 66.6860176,43.1365444 C66.8018478,43.1743039 66.8837562,43.2250313 66.9300882,43.2894895 C66.9764203,43.3539476 67,43.4287038 67,43.5145208 L67,63.4854793 Z M92,65.7713465 C92,66.0158659 91.9861214,66.2206416 91.9583641,66.3852947 C91.9302103,66.5503264 91.8885745,66.6778853 91.8330599,66.76835 C91.7771488,66.8584361 91.7160829,66.9201338 91.6490689,66.9519288 C91.5820552,66.983724 91.5150412,67 91.4484238,67 C91.2255726,67 90.8659179,66.912185 90.3702529,66.7369334 C89.8745877,66.5616819 89.3031848,66.305807 88.6568374,65.9712015 C88.0104901,65.6358389 87.3193345,65.2289373 86.5837674,64.7501182 C85.8482002,64.2712992 85.134839,63.7129924 84.4440799,63.0744408 C83.8980552,63.3935274 83.2068997,63.6702205 82.3710099,63.9041415 C81.5351202,64.1380626 80.565599,64.2554017 79.4620501,64.2554017 C77.8346822,64.2554017 76.4277861,64.0264013 75.2409654,63.5691575 C74.0541447,63.1119137 73.0731242,62.4415671 72.2986969,61.558496 C71.5238732,60.675425 70.9473154,59.5773587 70.5682307,58.2635397 C70.1891459,56.9497209 70,55.4417247 70,53.7395515 C70,52.1013469 70.2061968,50.6198467 70.6185902,49.2954294 C71.0309836,47.9710122 71.6495738,46.8434218 72.4743607,45.9122796 C73.2991475,44.9815159 74.330131,44.2634766 75.5669148,43.7581617 C76.8040951,43.2528467 78.2470756,43 79.8966493,43 C81.445504,43 82.8083848,43.2290004 83.9841027,43.6862442 C85.1598205,44.1438665 86.1459959,44.8115636 86.9430255,45.6889569 C87.7396586,46.5667287 88.3388187,47.6492761 88.7401092,48.9362205 C89.1413998,50.2235435 89.342045,51.7023941 89.342045,53.3723938 C89.342045,54.2342681 89.2889097,55.0586695 89.1830357,55.8459768 C89.0771615,56.6336624 88.909825,57.3781976 88.681819,58.0803394 C88.45302,58.7824811 88.1659306,59.4312526 87.8209477,60.0270321 C87.4751717,60.6231902 87.0683296,61.1599219 86.6004218,61.6387408 C87.4137092,62.2769138 88.1270705,62.7746585 88.7401092,63.1308393 C89.3527514,63.4873986 89.8603125,63.7561429 90.2612065,63.9366937 C90.6624971,64.117623 90.9741712,64.2478314 91.1974189,64.3273192 C91.4198734,64.4071855 91.58721,64.49765 91.6990321,64.5987131 C91.8100611,64.6993975 91.8885745,64.8432325 91.932986,65.029461 C91.9773977,65.2153108 92,65.4628584 92,65.7713465 Z M86.3161082,53.5639215 C86.3161082,52.393559 86.2074584,51.3087405 85.9901588,50.3083304 C85.7728591,49.3082989 85.4104288,48.4388544 84.9032642,47.6992398 C84.3960995,46.9600038 83.7188227,46.3827713 82.8722266,45.967921 C82.0252338,45.5530707 80.977596,45.3456455 79.7293128,45.3456455 C78.4810295,45.3456455 77.4333917,45.5663186 76.5863989,46.0080434 C75.7394063,46.4497682 75.0510265,47.0451692 74.5216562,47.7953821 C73.9922857,48.5452165 73.6132009,49.4150396 73.3847985,50.4044728 C73.1563959,51.393906 73.0417981,52.4416301 73.0417981,53.5484024 C73.0417981,54.7611583 73.1476722,55.8755008 73.3594204,56.8914298 C73.5711685,57.9073589 73.9276509,58.7881588 74.4292641,59.5326941 C74.9308773,60.2776078 75.6022062,60.8548402 76.4436473,61.2640128 C77.2850887,61.6735639 78.3410537,61.8783397 79.6115427,61.8783397 C80.8709288,61.8783397 81.9296696,61.6550169 82.7877652,61.2083714 C83.6458607,60.7617259 84.3366198,60.1579977 84.8608353,59.3971864 C85.3846542,58.6367537 85.7577909,57.7533041 85.9810385,56.7483519 C86.2046827,55.742264 86.3161082,54.6809135 86.3161082,53.5639215 Z M107,49.1225574 C107,50.1674421 106.825462,51.1096393 106.476773,51.949532 C106.127696,52.7898079 105.629293,53.505939 104.980786,54.0979255 C104.332279,54.6902951 103.535997,55.1477914 102.593102,55.4707976 C101.650207,55.7938037 100.524629,55.9554985 99.2167557,55.9554985 L96.8127816,55.9554985 L96.8127816,63.4831135 C96.8127816,63.5697084 96.7883463,63.6448082 96.7390876,63.7091795 C96.689829,63.773934 96.6138079,63.8248948 96.5102486,63.8628279 C96.4066892,63.900761 96.2651193,63.9325634 96.0851508,63.959768 C95.9051824,63.9862062 95.6790584,64 95.4067787,64 C95.1341111,64 94.907987,63.9862062 94.7280186,63.959768 C94.5480502,63.9325634 94.4033773,63.9003777 94.2943879,63.8628279 C94.1853985,63.8248948 94.1089895,63.773934 94.0655489,63.7091795 C94.0217204,63.6444251 94,63.5697084 94,63.4831135 L94,44.1954677 C94,43.7647928 94.1144195,43.4578795 94.3432586,43.2747277 C94.5720977,43.0915759 94.8280872,43 95.1120028,43 L99.6414655,43 C100.099532,43 100.538205,43.018775 100.957872,43.0567081 C101.37754,43.0946412 101.873229,43.1751054 102.445714,43.2988669 C103.017812,43.4230117 103.601158,43.654442 104.195364,43.993541 C104.789182,44.33264 105.293403,44.7502874 105.708029,45.2453336 C106.122266,45.740763 106.44109,46.3143577 106.664499,46.9657343 C106.887908,47.6178773 107,48.3366906 107,49.1225574 Z M104.040218,49.3486234 C104.040218,48.4980021 103.879255,47.7872352 103.557717,47.2159396 C103.236179,46.6454103 102.838231,46.2200996 102.363875,45.9400077 C101.889907,45.6599157 101.39926,45.4825114 100.892323,45.4070283 C100.385387,45.3319284 99.892025,45.2939953 99.4122387,45.2939953 L96.8123937,45.2939953 L96.8123937,53.6775959 L99.3470776,53.6775959 C100.197661,53.6775959 100.903184,53.5703104 101.464809,53.3545898 C102.026047,53.1396355 102.497688,52.8407686 102.879345,52.457989 C103.261002,52.0759757 103.549572,51.6180963 103.746218,51.0851169 C103.942089,50.5521375 104.040218,49.9731786 104.040218,49.3486234 Z M126.862384,62.9217761 C126.948233,63.1578641 126.994223,63.3478024 126.999588,63.4927351 C127.004571,63.6376679 126.964329,63.7475118 126.878481,63.8226479 C126.792249,63.8974028 126.64968,63.9454594 126.450389,63.9671993 C126.250715,63.9885579 125.984355,63.9996185 125.650543,63.9996185 C125.316731,63.9996185 125.049988,63.991609 124.850697,63.9755902 C124.651406,63.9595713 124.500405,63.9324918 124.39846,63.8951143 C124.295749,63.8577369 124.220631,63.8066291 124.172342,63.7425535 C124.123669,63.6780966 124.078062,63.5976207 124.035138,63.5015074 L122.24152,58.4364874 L113.548609,58.4364874 L111.835858,63.4370505 C111.803281,63.5335452 111.760357,63.6170722 111.706319,63.686106 C111.65228,63.7559026 111.57448,63.8150199 111.472152,63.8630765 C111.369824,63.9111332 111.224188,63.9458409 111.036012,63.9675808 C110.847452,63.9889393 110.602171,64 110.300935,64 C109.988585,64 109.732573,63.9862694 109.533666,63.9599527 C109.334375,63.9328732 109.194488,63.8821467 109.113622,63.8070105 C109.033139,63.7322556 108.994814,63.6220304 109.000563,63.4774791 C109.005928,63.3325462 109.051535,63.1422266 109.137767,62.9065201 L116.15012,43.5789684 C116.193045,43.4611151 116.249766,43.3646204 116.319518,43.2894842 C116.389269,43.214348 116.491981,43.1552306 116.626502,43.1125136 C116.761023,43.0697966 116.933487,43.0400472 117.143508,43.0240283 C117.353147,43.0080094 117.620273,43 117.943354,43 C118.287898,43 118.57342,43.0080094 118.799922,43.0240283 C119.02604,43.0400472 119.209234,43.0697966 119.349121,43.1125136 C119.489008,43.1556121 119.596701,43.2170178 119.672202,43.2974936 C119.747319,43.3779695 119.806723,43.477134 119.850031,43.5949873 L126.862384,62.9217761 Z M117.862488,45.8612786 L117.846392,45.8612786 L114.243444,56.2323647 L121.514109,56.2323647 L117.862488,45.8612786 Z M136.884201,55.815725 L136.884201,63.4854793 C136.884201,63.5716778 136.862828,63.6464339 136.820082,63.7105105 C136.777336,63.7749687 136.70253,63.8256961 136.596046,63.8634556 C136.489562,63.901215 136.345294,63.9328721 136.164004,63.9599522 C135.982715,63.9862693 135.764023,64 135.508309,64 C135.241527,64 135.020544,63.9862693 134.844217,63.9599522 C134.66827,63.9328721 134.524002,63.9008337 134.412175,63.8634556 C134.299966,63.8256961 134.222871,63.7749687 134.180124,63.7105105 C134.137378,63.6460524 134.116387,63.5716778 134.116387,63.4854793 L134.116387,55.815725 L128.227339,44.0774805 C128.109024,43.8310903 128.036508,43.6380973 128.010174,43.4985016 C127.983076,43.3592873 128.010174,43.2521114 128.090704,43.1769738 C128.170853,43.1022176 128.315885,43.0541601 128.525036,43.0324198 C128.734187,43.0110609 129.015472,43 129.369654,43 C129.691396,43 129.951308,43.0110609 130.150154,43.0324198 C130.348618,43.0541601 130.506626,43.0835286 130.624941,43.1209067 C130.742875,43.1586662 130.83142,43.2120634 130.890196,43.2818613 C130.949354,43.3516591 131.005458,43.440146 131.059273,43.5469406 L133.939296,49.5285784 C134.206459,50.0968779 134.473623,50.691876 134.740023,51.3135727 C135.006423,51.9352694 135.278548,52.5623059 135.556017,53.1946821 L135.588076,53.1946821 C135.833103,52.5836648 136.086145,51.9756988 136.347966,51.3696398 C136.609023,50.7643437 136.873514,50.1666758 137.141441,49.5770174 L140.037494,43.5633411 C140.069935,43.4561652 140.115353,43.3650084 140.174511,43.2898709 C140.233287,43.2151147 140.313436,43.1586662 140.415721,43.1209067 C140.517625,43.0835286 140.659603,43.0541601 140.842038,43.0324198 C141.024473,43.0110609 141.254996,43 141.533991,43 C141.920233,43 142.223273,43.0137307 142.443111,43.0400479 C142.662948,43.067128 142.815613,43.1178554 142.901869,43.192993 C142.988124,43.2681305 143.01713,43.3753065 142.990414,43.5145208 C142.963698,43.6541165 142.891182,43.8413883 142.773248,44.0770991 L136.884201,55.815725 Z" transform="translate(-50 -41)"/>
</svg>
