<svg xmlns="http://www.w3.org/2000/svg" width="88" height="24" viewBox="0 0 88 24"><path fill="#FFF" fill-rule="evenodd" d="M10.827.15c2.27 0 3.98.599 4.944 1.731.877 1.032 1.168 2.504.865 4.379-.674 4.284-3.252 6.446-7.72 6.446H6.77a.941.941 0 0 0-.93.796l-.74 4.69a.942.942 0 0 1-.931.797H.93a.565.565 0 0 1-.56-.653L3.115.946A.943.943 0 0 1 4.045.15h6.782zm.782 6.352c.136-.855.027-1.474-.329-1.89-.597-.699-1.752-.699-2.977-.699h-.469a.565.565 0 0 0-.558.477l-.718 4.545H7.58c1.798 0 3.658 0 4.028-2.433zM31.1 6.423c.347 0 .612.31.557.653L29.9 18.192a.942.942 0 0 1-.931.796h-2.925a.565.565 0 0 1-.558-.654l.145-.903s-1.603 1.86-4.495 1.86c-1.685 0-3.101-.487-4.09-1.653-1.08-1.268-1.521-3.087-1.21-4.989.596-3.813 3.661-6.531 7.25-6.531 1.565 0 3.133.34 3.836 1.361l.227.33.144-.909a.566.566 0 0 1 .558-.477H31.1zm-4.527 6.321c.142-.898-.054-1.713-.55-2.298-.493-.577-1.243-.884-2.165-.884-1.85 0-3.347 1.286-3.64 3.126-.152.902.03 1.713.51 2.282.484.573 1.238.875 2.18.875 1.88 0 3.352-1.245 3.665-3.1zm21.825-6.32c.456 0 .723.512.463.887L38.006 22.98a.941.941 0 0 1-.774.404h-3.26a.565.565 0 0 1-.46-.892l3.379-4.771-3.595-10.55a.566.566 0 0 1 .537-.748h3.206c.417 0 .785.274.905.673l1.908 6.371 4.501-6.63a.945.945 0 0 1 .78-.414h3.264zM59.203.15c2.27 0 3.978.599 4.941 1.731.878 1.032 1.17 2.504.866 4.379-.674 4.284-3.252 6.446-7.72 6.446h-2.146a.941.941 0 0 0-.93.796l-.779 4.93a.66.66 0 0 1-.65.557h-3.481a.564.564 0 0 1-.558-.653L51.49.946a.942.942 0 0 1 .93-.796h6.784zm.782 6.352c.136-.855.028-1.474-.328-1.89-.597-.699-1.753-.699-2.977-.699h-.47a.563.563 0 0 0-.556.477l-.72 4.545h1.023c1.799 0 3.658 0 4.028-2.433zm19.49-.079c.348 0 .614.31.56.653L78.28 18.192a.942.942 0 0 1-.93.796h-2.925a.565.565 0 0 1-.559-.654l.145-.903s-1.604 1.86-4.496 1.86c-1.685 0-3.098-.487-4.09-1.653-1.08-1.268-1.518-3.087-1.209-4.989.597-3.813 3.661-6.531 7.25-6.531 1.565 0 3.132.34 3.835 1.361l.228.33.144-.909a.562.562 0 0 1 .557-.477h3.246zm-4.527 6.321c.144-.898-.053-1.713-.55-2.298-.493-.577-1.243-.884-2.165-.884-1.85 0-3.345 1.286-3.64 3.126-.15.902.03 1.713.51 2.282.484.573 1.24.875 2.18.875 1.879 0 3.354-1.245 3.665-3.1zM83.304.627a.567.567 0 0 1 .557-.478h3.134c.346 0 .612.31.557.653l-2.745 17.39a.94.94 0 0 1-.93.797h-2.8a.564.564 0 0 1-.557-.653L83.304.626z"/></svg>