<svg width="111" height="46" viewBox="0 0 111 46" fill="none" xmlns="http://www.w3.org/2000/svg">
<path fill-rule="evenodd" clip-rule="evenodd" d="M14.6392 19.6667V22.7086H0V19.6667H14.6392ZM44.0869 0.179459V4.15303C47.2238 4.40016 49.3342 6.62464 49.3342 9.74254C49.3342 12.8293 47.2658 15.0588 44.1807 15.3429L44.0869 15.3509V19.3817H41.3493V15.3509C38.2124 15.0849 36.1019 12.8604 36.1019 9.74254C36.1019 6.67465 38.1704 4.46376 41.2555 4.1616L41.3493 4.15303V0.179459H44.0869ZM55.1139 3.94378C57.8995 3.94378 59.5671 5.56514 59.6001 8.14328L59.6006 8.2217V11.8148C59.6006 12.3905 59.782 12.6215 60.251 12.6319L60.285 12.6323V15.1038H59.3343C58.2887 15.1038 57.4903 14.7045 57.129 13.9821C56.7239 14.5803 55.7963 15.3701 54.1253 15.3701C51.8463 15.3701 50.2657 13.8491 50.2657 11.6246C50.2657 9.51669 51.6819 8.24726 54.0716 8.22208L54.1443 8.2217H56.863C56.863 6.92883 56.1785 6.43456 55.1139 6.43456C53.8628 6.43456 53.4306 7.07545 53.318 7.4787L53.3078 7.5182H50.532C50.6651 5.69302 52.2051 3.94378 55.1139 3.94378ZM82.491 3.94378C85.2766 3.94378 86.9441 5.56514 86.9772 8.14328L86.9777 8.2217V11.8148C86.9777 12.3905 87.159 12.6215 87.6282 12.6319L87.6622 12.6323V15.1038H86.7116C85.6658 15.1038 84.8674 14.7045 84.5061 13.9821C84.101 14.5803 83.1734 15.3701 81.5023 15.3701C79.2235 15.3701 77.6429 13.8491 77.6429 11.6246C77.6429 9.51669 79.059 8.24726 81.4486 8.22208L81.5214 8.2217H84.2401C84.2401 6.92883 83.5556 6.43456 82.491 6.43456C81.2398 6.43456 80.8077 7.07545 80.6951 7.4787L80.6849 7.5182H77.9092C78.0422 5.69302 79.5822 3.94378 82.491 3.94378ZM103.288 4.40024V8.63981L107.072 4.40024H110.513L105.893 9.49533L110.874 15.1039H107.338L103.288 10.5981V15.1039H100.551V4.40024H103.288ZM91.9399 4.40025V8.3927H95.7231V4.40025H98.4609V15.1039H95.7231V10.8832H91.9399V15.1039H89.202V4.40025H91.9399ZM24.2782 4.40028V15.1038H21.5404V6.89077H18.9168L18.8028 10.446L18.7959 10.6367C18.6731 13.6845 17.985 15.0753 15.3118 15.1033L15.2285 15.1038H14.8104V12.5943L14.8823 12.5937C15.9196 12.5765 16.1797 12.1698 16.2505 10.3266L16.2551 10.1987L16.4453 4.40028H24.2782ZM29.1055 4.40016V7.65121H31.0827C33.6875 7.65121 35.1703 8.98213 35.1703 11.3395C35.1703 13.1464 34.1268 15.065 31.2099 15.1032L31.1209 15.1038H26.3679V4.40016H29.1055ZM75.3615 0.179459V2.8982H68.2702V5.92099H71.331C74.6199 5.92099 76.5022 7.63234 76.5022 10.4649C76.5022 13.4388 74.6574 15.071 71.4293 15.1033L71.331 15.1038H65.3993V0.179459H75.3615ZM7.43357 0C9.04086 0 9.53832 0.934652 9.94907 2.13512L9.98051 2.22798L14.2969 15.1037H11.1028L10.1333 12.0429H4.35372L3.30813 15.1037H0.304211L4.83383 2.22798C5.27316 0.979241 5.78522 0 7.43357 0ZM56.863 11.1113V10.408H54.6766C53.935 10.408 53.0797 10.579 53.0797 11.6246C53.0797 12.6894 53.8591 13.0506 54.8476 13.0506C55.9719 13.0506 56.8376 12.3674 56.8625 11.1647L56.863 11.1113ZM84.2401 11.1113V10.408H82.0537C81.3123 10.408 80.4567 10.579 80.4567 11.6246C80.4567 12.6894 81.2362 13.0506 82.2249 13.0506C83.349 13.0506 84.2147 12.3674 84.2395 11.1647L84.2401 11.1113ZM44.0869 6.71975V12.7655C45.6079 12.5562 46.5584 11.4155 46.5584 9.74254C46.5584 8.08945 45.6304 6.95608 44.141 6.72762L44.0869 6.71975ZM41.3493 6.71975C39.8283 6.92884 38.8777 8.06954 38.8777 9.74254C38.8777 11.3956 39.8058 12.529 41.2952 12.7576L41.3493 12.7655V6.71975ZM30.8736 10.0277H29.1055V12.7465H30.8736C31.8433 12.7465 32.3946 12.3091 32.3946 11.3395C32.3946 10.4614 31.8438 10.0423 30.9225 10.0281L30.8736 10.0277ZM71.1979 8.52576H68.2702V12.4042H71.1979C72.7188 12.4042 73.5744 11.7388 73.5744 10.4649C73.5744 9.24573 72.7415 8.54461 71.2583 8.52613L71.1979 8.52576ZM7.35748 3.35453H7.28155L5.22826 9.45732H9.29679L7.35748 3.35453Z" fill="white"/>
<path opacity="0.75" d="M17 28.9553V38.9816H26.9999L17 28.9553Z" fill="white"/>
<path d="M26.9999 28.9553H17V38.9816L26.9999 28.9553Z" fill="white"/>
<path d="M63.3954 30.961C61.9045 30.961 60.5952 32.172 60.5952 33.6668V36.9758H61.796V35.7719H64.9949V36.9758H66.1956V33.6668C66.1956 32.172 64.8863 30.961 63.3954 30.961ZM64.9949 34.5704H61.796V33.6693C61.796 32.839 62.5674 32.1649 63.3954 32.1649C64.2234 32.1649 64.9949 32.839 64.9949 33.6693V34.5704Z" fill="white"/>
<path d="M79.9935 30.961C78.5026 30.961 77.1934 32.172 77.1934 33.6668V36.9758H78.3941V35.7719H81.593V36.9758H82.7938V33.6668C82.7938 32.172 81.4844 30.961 79.9935 30.961ZM81.593 34.5704H78.3941V33.6693C78.3941 32.839 79.1655 32.1649 79.9935 32.1649C80.8216 32.1649 81.593 32.839 81.593 33.6693V34.5704Z" fill="white"/>
<path d="M69.9885 33.3783L69.9956 33.3665H68.5967C68.2665 33.3665 67.9975 33.0969 67.9975 32.7657C67.9975 32.4346 68.2665 32.1649 68.5967 32.1649H70.7953L71.595 30.961H68.5944C67.6012 30.961 66.7944 31.77 66.7944 32.7657C66.7944 33.6976 67.4973 34.464 68.4009 34.5585L68.3938 34.5704H69.7927C70.123 34.5704 70.392 34.84 70.392 35.1712C70.392 35.5023 70.123 35.7719 69.7927 35.7719H67.5941L66.7944 36.9758H69.7951C70.7882 36.9758 71.595 36.167 71.595 35.1712C71.595 34.2392 70.8897 33.4729 69.9885 33.3783Z" fill="white"/>
<path d="M73.5934 30.961C72.6002 30.961 71.7935 31.77 71.7935 32.7657C71.7935 33.6976 72.4965 34.464 73.3999 34.5585L73.3928 34.5704H74.7917C75.122 34.5704 75.391 34.84 75.391 35.1712C75.391 35.5023 75.122 35.7719 74.7917 35.7719H72.5931L71.7935 36.9758H74.7941C75.7873 36.9758 76.5941 36.167 76.5941 35.1712C76.5941 34.2392 75.8911 33.4729 74.9875 33.3783L74.9947 33.3665H73.5957C73.2655 33.3665 72.9965 33.0969 72.9965 32.7657C72.9965 32.4346 73.2655 32.1649 73.5957 32.1649H75.7944L76.5941 30.961H73.5934Z" fill="white"/>
<path d="M59.9345 30.961L57.4811 33.5794L59.9958 36.9735H58.5969L56.6837 34.4285L56.1978 35.0104V36.9711H54.9971V30.961H56.1978V33.3333L58.361 30.961H59.9345Z" fill="white"/>
<path d="M51.1968 30.961C49.5408 30.961 48.196 32.3069 48.196 33.9696C48.196 35.63 49.5384 36.9782 51.1968 36.9782C52.8529 36.9782 54.1975 35.6324 54.1975 33.9696C54.1975 32.3069 52.8529 30.961 51.1968 30.961ZM51.1968 35.7719C50.2036 35.7719 49.3968 34.9631 49.3968 33.9673C49.3968 32.9715 50.2036 32.1626 51.1968 32.1626C52.1899 32.1626 52.9968 32.9715 52.9968 33.9673C52.9968 34.9654 52.1899 35.7719 51.1968 35.7719Z" fill="white"/>
<path d="M46.9245 33.6503C47.0731 33.3878 47.158 33.0874 47.158 32.7633C47.158 31.7675 46.3511 30.9587 45.3581 30.9587H42.999V36.9735H45.9596C46.9527 36.9735 47.7596 36.1646 47.7596 35.1688C47.7572 34.5326 47.4245 33.972 46.9245 33.6503ZM44.1974 32.1626H45.3581C45.6883 32.1626 45.9572 32.4323 45.9572 32.7633C45.9572 33.0944 45.6883 33.3641 45.3581 33.3641H44.1974V32.1626ZM45.9572 35.7719H44.1974V34.568H45.9572C46.2875 34.568 46.5564 34.8377 46.5564 35.1688C46.5564 35.5 46.2875 35.7719 45.9572 35.7719Z" fill="white"/>
<path d="M39.2976 30.961C37.6415 30.961 36.2969 32.3069 36.2969 33.9696C36.2969 35.63 37.6391 36.9782 39.2976 36.9782C40.9559 36.9782 42.2982 35.6324 42.2982 33.9696C42.2982 32.3069 40.9536 30.961 39.2976 30.961ZM39.2976 35.7719C38.3044 35.7719 37.4976 34.9631 37.4976 33.9673C37.4976 32.9715 38.3044 32.1626 39.2976 32.1626C40.2906 32.1626 41.0975 32.9715 41.0975 33.9673C41.0975 34.9654 40.2906 35.7719 39.2976 35.7719Z" fill="white"/>
<path d="M32.1993 36.9758H30.9985V30.961H33.8248C34.3295 30.961 34.7636 31.1337 35.1292 31.4813C35.502 31.8338 35.7921 32.3517 35.7992 32.865C35.804 33.331 35.6931 33.7094 35.3982 34.0689C35.1175 34.4167 34.832 34.6792 34.398 34.7714L35.8984 36.9758H34.4994L33.0886 34.8945C33.0321 34.8164 32.9424 34.7714 32.8458 34.7714H32.1993V36.9758ZM32.1993 33.6668H33.7988C34.2399 33.6668 34.5985 33.3073 34.5985 32.865C34.5985 32.4228 34.2399 32.0632 33.7988 32.0632H32.1993V33.6668Z" fill="white"/>
</svg>
