<svg width="66" height="43" viewBox="0 0 66 43" fill="none" xmlns="http://www.w3.org/2000/svg">
	<g clip-path="url(#clip0_1_12158)">
		<path d="M33.3243 12.2133V19.5416H31.0347V1.44398H37.1071C37.8319 1.42861 38.5526 1.55914 39.2275 1.82805C39.9024 2.09695 40.5182 2.49891 41.0393 3.01072C41.5656 3.49146 41.9845 4.08103 42.2678 4.73982C42.5512 5.3986 42.6923 6.11133 42.6818 6.83011C42.6969 7.55273 42.5579 8.27011 42.2744 8.93309C41.9909 9.59607 41.5695 10.189 41.0393 10.6711C39.9774 11.6993 38.6667 12.2129 37.1071 12.2119H33.3243V12.2133ZM33.3243 3.67207V9.98958H37.164C37.5849 10.0022 38.0039 9.92557 38.3939 9.76445C38.784 9.60332 39.1367 9.3613 39.4294 9.05387C39.7206 8.76642 39.9521 8.42261 40.1101 8.04276C40.2682 7.66291 40.3496 7.25474 40.3496 6.84238C40.3496 6.43002 40.2682 6.02185 40.1101 5.642C39.9521 5.26215 39.7206 4.91834 39.4294 4.63089C39.1404 4.31698 38.7889 4.06903 38.3984 3.90348C38.0078 3.73793 37.587 3.65856 37.164 3.67063H33.3243V3.67207Z" fill="#5F6368"/>
		<path d="M47.9576 6.75499C49.6499 6.75499 50.9857 7.21418 51.9651 8.13257C52.9445 9.05095 53.4337 10.3101 53.4327 11.9101V19.5416H51.2427V17.8233H51.1431C50.195 19.2384 48.9341 19.9459 47.3603 19.9459C46.0168 19.9459 44.8929 19.5416 43.9884 18.733C43.5544 18.3618 43.2073 17.897 42.9726 17.3724C42.7379 16.8478 42.6215 16.2767 42.6317 15.7006C42.6317 14.4193 43.1086 13.4003 44.0624 12.6436C45.0161 11.887 46.2894 11.5077 47.8822 11.5058C49.2417 11.5058 50.3614 11.7585 51.2412 12.2639V11.7325C51.2438 11.3397 51.1603 10.9513 50.9967 10.5954C50.8332 10.2395 50.5936 9.92502 50.2955 9.67476C49.69 9.12009 48.901 8.81744 48.0855 8.82713C46.8066 8.82713 45.7945 9.37489 45.0493 10.4704L43.0328 9.18091C44.142 7.56363 45.7836 6.75499 47.9576 6.75499ZM44.9953 15.7511C44.9938 16.047 45.0619 16.339 45.194 16.6027C45.3261 16.8664 45.5183 17.0943 45.7547 17.2673C46.2611 17.6718 46.8896 17.886 47.5338 17.8738C48.4999 17.8722 49.4261 17.4817 50.1092 16.7879C50.8677 16.063 51.2469 15.2125 51.2469 14.2364C50.533 13.6588 49.5375 13.37 48.2605 13.37C47.3304 13.37 46.5549 13.5976 45.9339 14.053C45.3067 14.5151 44.9953 15.0768 44.9953 15.7511Z" fill="#5F6368"/>
		<path d="M66.0046 7.15939L58.3593 25H55.9957L58.8328 18.7576L53.8057 7.15939H56.2944L59.9279 16.0544H59.9777L63.5116 7.15939H66.0046Z" fill="#5F6368"/>
		<path d="M24.072 10.6336C24.0729 9.92513 24.0139 9.21786 23.8957 8.51961H14.2395V12.5238H19.7701C19.6569 13.1634 19.4174 13.773 19.0659 14.316C18.7145 14.859 18.2584 15.3241 17.7251 15.6833V18.2825H21.0258C22.9585 16.4732 24.072 13.7974 24.072 10.6336Z" fill="#4285F4"/>
		<path d="M14.2391 20.7936C17.0022 20.7936 19.3288 19.8723 21.0254 18.2839L17.7247 15.6847C16.806 16.3172 15.6228 16.6782 14.2391 16.6782C11.5683 16.6782 9.30146 14.8501 8.49086 12.3866H5.09058V15.0652C5.9428 16.7872 7.2496 18.2347 8.86507 19.2462C10.4805 20.2578 12.3411 20.7935 14.2391 20.7936Z" fill="#34A853"/>
		<path d="M8.49131 12.3866C8.06277 11.0957 8.06277 9.69781 8.49131 8.40694V5.72832H5.09103C4.37411 7.17687 4.00073 8.77559 4.00073 10.3968C4.00073 12.018 4.37411 13.6167 5.09103 15.0652L8.49131 12.3866Z" fill="#FBBC04"/>
		<path d="M14.239 4.11541C15.6993 4.09119 17.1102 4.65139 18.1669 5.67494L21.0894 2.70751C19.2362 0.940165 16.7813 -0.0301386 14.239 1.07412e-05C12.3411 9.85728e-05 10.4805 0.535814 8.86507 1.54735C7.2496 2.55888 5.9428 4.00642 5.09058 5.72836L8.49086 8.40699C9.30146 5.94352 11.5683 4.11541 14.239 4.11541Z" fill="#EA4335"/>
	</g>
	<path opacity="0.7" d="M0 32V42.2182H10.1733L0 32Z" fill="#023D5E"/>
	<path d="M10.1733 32H0V42.2182L10.1733 32Z" fill="#023D5E"/>
	<path d="M45.4093 33.8598C43.9154 33.8598 42.6035 35.0754 42.6035 36.5759V39.8974H43.8067V38.689H47.0119V39.8974H48.2151V36.5759C48.2151 35.0754 46.9032 33.8598 45.4093 33.8598ZM47.0119 37.4829H43.8067V36.5783C43.8067 35.7449 44.5796 35.0683 45.4093 35.0683C46.239 35.0683 47.0119 35.7449 47.0119 36.5783V37.4829Z" fill="#FF5722"/>
	<path d="M62.0404 33.8598C60.5465 33.8598 59.2346 35.0754 59.2346 36.5759V39.8974H60.4378V38.689H63.643V39.8974H64.8462V36.5759C64.8462 35.0754 63.5343 33.8598 62.0404 33.8598ZM63.643 37.4829H60.4378V36.5783C60.4378 35.7449 61.2107 35.0683 62.0404 35.0683C62.8701 35.0683 63.643 35.7449 63.643 36.5783V37.4829V37.4829Z" fill="#FF5722"/>
	<path d="M33.1862 33.8598C31.5268 33.8598 30.1794 35.2107 30.1794 36.8798C30.1794 38.5465 31.5244 39.8998 33.1862 39.8998C34.8455 39.8998 36.1929 38.5489 36.1929 36.8798C36.1929 35.2107 34.8455 33.8598 33.1862 33.8598ZM33.1862 38.689C32.191 38.689 31.3826 37.877 31.3826 36.8774C31.3826 35.8779 32.191 35.0659 33.1862 35.0659C34.1813 35.0659 34.9897 35.8779 34.9897 36.8774C34.9897 37.8794 34.1813 38.689 33.1862 38.689Z" fill="#023D5E"/>
	<path d="M28.9055 36.5594C29.0544 36.2959 29.1395 35.9944 29.1395 35.6691C29.1395 34.6696 28.3311 33.8576 27.3359 33.8576H24.9722V39.8952H27.9387C28.9339 39.8952 29.7423 39.0832 29.7423 38.0837C29.7399 37.445 29.4066 36.8823 28.9055 36.5594ZM26.173 35.066H27.3359C27.6669 35.066 27.9363 35.3367 27.9363 35.6691C27.9363 36.0015 27.6669 36.2721 27.3359 36.2721H26.173V35.066ZM27.9363 38.6891H26.173V37.4806H27.9363C28.2673 37.4806 28.5367 37.7513 28.5367 38.0837C28.5367 38.4161 28.2673 38.6891 27.9363 38.6891Z" fill="#023D5E"/>
	<path d="M21.2633 33.8598C19.6039 33.8598 18.2566 35.2107 18.2566 36.8798C18.2566 38.5465 19.6016 39.8998 21.2633 39.8998C22.925 39.8998 24.27 38.5489 24.27 36.8798C24.27 35.2107 22.9227 33.8598 21.2633 33.8598ZM21.2633 38.689C20.2682 38.689 19.4597 37.877 19.4597 36.8774C19.4597 35.8779 20.2682 35.0659 21.2633 35.0659C22.2584 35.0659 23.0669 35.8779 23.0669 36.8774C23.0669 37.8794 22.2584 38.689 21.2633 38.689Z" fill="#023D5E"/>
	<path d="M52.0162 36.2863L52.0233 36.2744H50.6216C50.2907 36.2744 50.0212 36.0037 50.0212 35.6713C50.0212 35.3389 50.2907 35.0683 50.6216 35.0683H52.8246L53.6259 33.8598H50.6192C49.6241 33.8598 48.8157 34.6718 48.8157 35.6713C48.8157 36.6068 49.5201 37.376 50.4254 37.471L50.4183 37.4829H51.82C52.151 37.4829 52.4204 37.7535 52.4204 38.0859C52.4204 38.4183 52.151 38.689 51.82 38.689H49.617L48.8157 39.8974H51.8224C52.8175 39.8974 53.6259 39.0854 53.6259 38.0859C53.6259 37.1505 52.9192 36.3812 52.0162 36.2863Z" fill="#FF5722"/>
	<path d="M55.6278 33.8598C54.6326 33.8598 53.8242 34.6718 53.8242 35.6713C53.8242 36.6068 54.5286 37.376 55.4339 37.471L55.4268 37.4829H56.8285C57.1595 37.4829 57.4289 37.7535 57.4289 38.0859C57.4289 38.4183 57.1595 38.689 56.8285 38.689H54.6255L53.8242 39.8974H56.8309C57.8261 39.8974 58.6345 39.0854 58.6345 38.0859C58.6345 37.1505 57.9301 36.3812 57.0247 36.2863L57.0318 36.2744H55.6301C55.2992 36.2744 55.0297 36.0037 55.0297 35.6713C55.0297 35.3389 55.2992 35.0683 55.6301 35.0683H57.8331L58.6345 33.8598H55.6278V33.8598Z" fill="#FF5722"/>
	<path d="M14.1509 39.8972H12.9478V33.8596H15.7795C16.2854 33.8596 16.7203 34.033 17.0867 34.382C17.4602 34.7357 17.7509 35.2557 17.758 35.7709C17.7628 36.2386 17.6517 36.6185 17.3562 36.9793C17.0749 37.3284 16.7889 37.5919 16.3539 37.6845L17.8573 39.8972H16.4556L15.0421 37.8079C14.9853 37.7296 14.8955 37.6845 14.7986 37.6845H14.1509V39.8972ZM14.1509 36.5757H15.7535C16.1956 36.5757 16.5549 36.2148 16.5549 35.7709C16.5549 35.3269 16.1956 34.966 15.7535 34.966H14.1509V36.5757Z" fill="#023D5E"/>
	<path d="M41.9415 33.8598L39.4832 36.4881L42.003 39.8951H40.6013L38.6842 37.3404L38.1973 37.9245V39.8927H36.9941V33.8598H38.1973V36.2411L40.3649 33.8598H41.9415V33.8598Z" fill="#FF5722"/>
	<defs>
		<clipPath id="clip0_1_12158">
			<rect width="62" height="25" fill="white" transform="translate(4)"/>
		</clipPath>
	</defs>
</svg>
