<svg width="123" height="20" viewBox="0 0 123 20" fill="none" xmlns="http://www.w3.org/2000/svg">
	<path opacity="0.7" d="M0.615356 0.787842V20H19.743L0.615356 0.787842Z" fill="#023D5E"/>
	<path d="M19.743 0.787842H0.615356V20L19.743 0.787842Z" fill="#023D5E"/>
	<path d="M85.9931 4.28491C83.1842 4.28491 80.7177 6.57046 80.7177 9.39168V15.6368H82.9798V13.3646H89.0063V15.6368H91.2685V9.39168C91.2685 6.57046 88.8019 4.28491 85.9931 4.28491ZM89.0063 11.0969H82.9798V9.39614C82.9798 7.82929 84.4331 6.55707 85.9931 6.55707C87.553 6.55707 89.0063 7.82929 89.0063 9.39614V11.0969Z" fill="#FF5722"/>
	<path d="M117.263 4.28491C114.454 4.28491 111.988 6.57046 111.988 9.39168V15.6368H114.25V13.3646H120.276V15.6368H122.538V9.39168C122.538 6.57046 120.072 4.28491 117.263 4.28491ZM120.276 11.0969H114.25V9.39614C114.25 7.82929 115.703 6.55707 117.263 6.55707C118.823 6.55707 120.276 7.82929 120.276 9.39614V11.0969V11.0969Z" fill="#FF5722"/>
	<path d="M63.0115 4.28491C59.8915 4.28491 57.3583 6.8249 57.3583 9.96307C57.3583 13.0968 59.8871 15.6412 63.0115 15.6412C66.1314 15.6412 68.6646 13.1012 68.6646 9.96307C68.6646 6.8249 66.1314 4.28491 63.0115 4.28491ZM63.0115 13.3646C61.1404 13.3646 59.6204 11.8379 59.6204 9.9586C59.6204 8.07928 61.1404 6.5526 63.0115 6.5526C64.8825 6.5526 66.4025 8.07928 66.4025 9.9586C66.4025 11.8424 64.8825 13.3646 63.0115 13.3646Z" fill="#023D5E"/>
	<path d="M54.9631 9.3605C55.2431 8.865 55.4031 8.29808 55.4031 7.68652C55.4031 5.80719 53.8832 4.28052 52.0121 4.28052H47.5677V15.6324H53.1454C55.0165 15.6324 56.5364 14.1057 56.5364 12.2264C56.532 11.0256 55.9053 9.9676 54.9631 9.3605ZM49.8255 6.55267H52.0121C52.6343 6.55267 53.141 7.06156 53.141 7.68652C53.141 8.31147 52.6343 8.82036 52.0121 8.82036H49.8255V6.55267ZM53.141 13.3647H49.8255V11.0925H53.141C53.7632 11.0925 54.2698 11.6014 54.2698 12.2264C54.2698 12.8513 53.7632 13.3647 53.141 13.3647Z" fill="#023D5E"/>
	<path d="M40.5941 4.28491C37.4742 4.28491 34.9409 6.8249 34.9409 9.96307C34.9409 13.0968 37.4697 15.6412 40.5941 15.6412C43.7185 15.6412 46.2473 13.1012 46.2473 9.96307C46.2473 6.8249 43.714 4.28491 40.5941 4.28491ZM40.5941 13.3646C38.723 13.3646 37.2031 11.8379 37.2031 9.9586C37.2031 8.07928 38.723 6.5526 40.5941 6.5526C42.4652 6.5526 43.9851 8.07928 43.9851 9.9586C43.9851 11.8424 42.4652 13.3646 40.5941 13.3646Z" fill="#023D5E"/>
	<path d="M98.4157 8.84708L98.429 8.82476H95.7935C95.1713 8.82476 94.6647 8.31587 94.6647 7.69091C94.6647 7.06596 95.1713 6.55707 95.7935 6.55707H99.9357L101.442 4.28491H95.7891C93.918 4.28491 92.3981 5.81159 92.3981 7.69091C92.3981 9.44971 93.7225 10.896 95.4247 11.0746L95.4113 11.0969H98.0468C98.669 11.0969 99.1757 11.6058 99.1757 12.2308C99.1757 12.8557 98.669 13.3646 98.0468 13.3646H93.9047L92.3981 15.6368H98.0513C99.9223 15.6368 101.442 14.1101 101.442 12.2308C101.442 10.472 100.113 9.02563 98.4157 8.84708Z" fill="#FF5722"/>
	<path d="M105.206 4.28491C103.335 4.28491 101.815 5.81159 101.815 7.69091C101.815 9.44971 103.139 10.896 104.841 11.0746L104.828 11.0969H107.464C108.086 11.0969 108.592 11.6058 108.592 12.2308C108.592 12.8557 108.086 13.3646 107.464 13.3646H103.321L101.815 15.6368H107.468C109.339 15.6368 110.859 14.1101 110.859 12.2308C110.859 10.472 109.535 9.02563 107.832 8.84708L107.846 8.82476H105.21C104.588 8.82476 104.081 8.31587 104.081 7.69091C104.081 7.06596 104.588 6.55707 105.21 6.55707H109.352L110.859 4.28491H105.206V4.28491Z" fill="#FF5722"/>
	<path d="M27.2216 15.6358H24.9595V4.28394H30.2838C31.2349 4.28394 32.0526 4.6098 32.7415 5.26601C33.4437 5.93114 33.9904 6.90874 34.0037 7.87742C34.0126 8.75682 33.8037 9.47105 33.2482 10.1496C32.7193 10.8058 32.1815 11.3013 31.3638 11.4754L34.1904 15.6358H31.5549L28.8971 11.7075C28.7905 11.5602 28.6216 11.4754 28.4394 11.4754H27.2216V15.6358ZM27.2216 9.3907H30.2349C31.066 9.3907 31.7415 8.71218 31.7415 7.87742C31.7415 7.04266 31.066 6.36414 30.2349 6.36414H27.2216V9.3907Z" fill="#023D5E"/>
	<path d="M79.4735 4.28491L74.8514 9.22651L79.589 15.6323H76.9536L73.3492 10.8291L72.4337 11.9272V15.6278H70.1715V4.28491H72.4337V8.76226L76.5091 4.28491H79.4735V4.28491Z" fill="#FF5722"/>
</svg>
