<svg width="111" height="57" viewBox="0 0 111 57" fill="none" xmlns="http://www.w3.org/2000/svg">
<path fill-rule="evenodd" clip-rule="evenodd" d="M59.238 9.68996C60.7084 9.68996 61.9004 10.882 61.9004 12.3524V29.2125C61.9004 30.6829 60.7084 31.8749 59.238 31.8749H33.6624C32.192 31.8749 31 30.6829 31 29.2125V12.3524C31 10.882 32.192 9.68996 33.6624 9.68996H59.238ZM59.4623 19.9901H33.4371L33.4379 28.4192C33.4379 28.8743 33.7805 29.2494 34.2219 29.3007L34.3254 29.3066H58.5752C59.0303 29.3066 59.4055 28.964 59.4567 28.5227L59.4627 28.4192L59.4623 19.9901ZM49.9743 0.131027L74.2981 8.03432C75.6965 8.4887 76.4619 9.99072 76.0075 11.3892L70.7974 27.424C70.343 28.8225 68.841 29.5878 67.4426 29.1334L65.0695 28.3619V25.6622L67.6058 26.486C68.0386 26.6266 68.5013 26.4167 68.6864 26.0128L68.7241 25.9162L71.3284 17.8995L65.0695 15.8663V11.6996L72.5527 14.1317L73.4438 11.3904C73.5953 10.9242 73.3401 10.4236 72.874 10.2721L49.811 2.77849C49.3782 2.63785 48.9156 2.84777 48.7304 3.2517L48.6928 3.34829L47.8012 6.08949L51.5674 7.31279H44.8404L46.6194 1.84041C47.0738 0.44196 48.5758 -0.323356 49.9743 0.131027ZM41.043 22.1664V27.1034H36.106V22.1664H41.043ZM58.5752 12.2584H34.3254C33.8703 12.2584 33.4951 12.601 33.4439 13.0423L33.4379 13.1458L33.4371 16.0284H59.4623L59.4627 13.1458C59.4627 12.6557 59.0654 12.2584 58.5752 12.2584Z" fill="#19D0C8"/>
<path opacity="0.75" d="M17 39.9553V49.9816H26.9999L17 39.9553Z" fill="#1664C0"/>
<path d="M26.9999 39.9553H17V49.9816L26.9999 39.9553Z" fill="#1876D1"/>
<path d="M63.3954 41.9611C61.9045 41.9611 60.5952 43.172 60.5952 44.6669V47.9759H61.796V46.772H64.9949V47.9759H66.1956V44.6669C66.1956 43.172 64.8863 41.9611 63.3954 41.9611ZM64.9949 45.5705H61.796V44.6693C61.796 43.8391 62.5674 43.165 63.3954 43.165C64.2234 43.165 64.9949 43.8391 64.9949 44.6693V45.5705Z" fill="#FF5722"/>
<path d="M79.9935 41.9611C78.5026 41.9611 77.1934 43.172 77.1934 44.6669V47.9759H78.3941V46.772H81.593V47.9759H82.7938V44.6669C82.7938 43.172 81.4844 41.9611 79.9935 41.9611ZM81.593 45.5705H78.3941V44.6693C78.3941 43.8391 79.1655 43.165 79.9935 43.165C80.8216 43.165 81.593 43.8391 81.593 44.6693V45.5705Z" fill="#FF5722"/>
<path d="M69.9885 44.3784L69.9956 44.3666H68.5967C68.2665 44.3666 67.9975 44.0969 67.9975 43.7657C67.9975 43.4346 68.2665 43.165 68.5967 43.165H70.7953L71.595 41.9611H68.5944C67.6012 41.9611 66.7944 42.77 66.7944 43.7657C66.7944 44.6977 67.4973 45.4641 68.4009 45.5586L68.3938 45.5705H69.7927C70.123 45.5705 70.392 45.84 70.392 46.1712C70.392 46.5023 70.123 46.772 69.7927 46.772H67.5941L66.7944 47.9759H69.7951C70.7882 47.9759 71.595 47.167 71.595 46.1712C71.595 45.2393 70.8897 44.473 69.9885 44.3784Z" fill="#FF5722"/>
<path d="M73.5934 41.9611C72.6002 41.9611 71.7935 42.77 71.7935 43.7657C71.7935 44.6977 72.4965 45.4641 73.3999 45.5586L73.3928 45.5705H74.7917C75.122 45.5705 75.391 45.84 75.391 46.1712C75.391 46.5023 75.122 46.772 74.7917 46.772H72.5931L71.7935 47.9759H74.7941C75.7873 47.9759 76.5941 47.167 76.5941 46.1712C76.5941 45.2393 75.8911 44.473 74.9875 44.3784L74.9947 44.3666H73.5957C73.2655 44.3666 72.9965 44.0969 72.9965 43.7657C72.9965 43.4346 73.2655 43.165 73.5957 43.165H75.7944L76.5941 41.9611H73.5934Z" fill="#FF5722"/>
<path d="M59.9345 41.9611L57.4811 44.5794L59.9958 47.9736H58.5969L56.6837 45.4286L56.1978 46.0104V47.9712H54.9971V41.9611H56.1978V44.3334L58.361 41.9611H59.9345Z" fill="#FF5722"/>
<path d="M51.1966 41.9611C49.5405 41.9611 48.1958 43.3069 48.1958 44.9696C48.1958 46.63 49.5381 47.9782 51.1966 47.9782C52.8526 47.9782 54.1973 46.6325 54.1973 44.9696C54.1973 43.3069 52.8526 41.9611 51.1966 41.9611ZM51.1966 46.772C50.2034 46.772 49.3966 45.9631 49.3966 44.9673C49.3966 43.9715 50.2034 43.1627 51.1966 43.1627C52.1897 43.1627 52.9965 43.9715 52.9965 44.9673C52.9965 45.9654 52.1897 46.772 51.1966 46.772Z" fill="#1876D1"/>
<path d="M46.9245 44.6504C47.0731 44.3879 47.158 44.0874 47.158 43.7634C47.158 42.7676 46.3511 41.9587 45.3581 41.9587H42.999V47.9736H45.9596C46.9527 47.9736 47.7596 47.1646 47.7596 46.1688C47.7572 45.5327 47.4245 44.9721 46.9245 44.6504ZM44.1974 43.1627H45.3581C45.6883 43.1627 45.9572 43.4323 45.9572 43.7634C45.9572 44.0945 45.6883 44.3641 45.3581 44.3641H44.1974V43.1627ZM45.9572 46.772H44.1974V45.5681H45.9572C46.2875 45.5681 46.5564 45.8377 46.5564 46.1688C46.5564 46.5 46.2875 46.772 45.9572 46.772Z" fill="#1876D1"/>
<path d="M39.2976 41.9611C37.6415 41.9611 36.2969 43.3069 36.2969 44.9696C36.2969 46.63 37.6391 47.9782 39.2976 47.9782C40.9559 47.9782 42.2982 46.6325 42.2982 44.9696C42.2982 43.3069 40.9536 41.9611 39.2976 41.9611ZM39.2976 46.772C38.3044 46.772 37.4976 45.9631 37.4976 44.9673C37.4976 43.9715 38.3044 43.1627 39.2976 43.1627C40.2906 43.1627 41.0975 43.9715 41.0975 44.9673C41.0975 45.9654 40.2906 46.772 39.2976 46.772Z" fill="#1876D1"/>
<path d="M32.1993 47.9759H30.9985V41.9611H33.8248C34.3295 41.9611 34.7636 42.1338 35.1292 42.4814C35.502 42.8339 35.7921 43.3518 35.7992 43.8651C35.804 44.3311 35.6931 44.7095 35.3982 45.069C35.1175 45.4168 34.832 45.6792 34.398 45.7714L35.8984 47.9759H34.4994L33.0886 45.8945C33.0321 45.8164 32.9424 45.7714 32.8458 45.7714H32.1993V47.9759ZM32.1993 44.6669H33.7988C34.2399 44.6669 34.5985 44.3074 34.5985 43.8651C34.5985 43.4228 34.2399 43.0633 33.7988 43.0633H32.1993V44.6669Z" fill="#1876D1"/>
</svg>
