<svg width="71" height="57" viewBox="0 0 71 57" fill="none" xmlns="http://www.w3.org/2000/svg">
<path fill-rule="evenodd" clip-rule="evenodd" d="M44.238 9.68996C45.7084 9.68996 46.9004 10.882 46.9004 12.3524V29.2125C46.9004 30.6829 45.7084 31.8749 44.238 31.8749H18.6624C17.192 31.8749 16 30.6829 16 29.2125V12.3524C16 10.882 17.192 9.68996 18.6624 9.68996H44.238ZM44.4623 19.9901H18.4371L18.4379 28.4192C18.4379 28.8743 18.7805 29.2494 19.2219 29.3007L19.3254 29.3066H43.5752C44.0303 29.3066 44.4055 28.964 44.4567 28.5227L44.4627 28.4192L44.4623 19.9901ZM34.9743 0.131027L59.2981 8.03432C60.6965 8.4887 61.4619 9.99072 61.0075 11.3892L55.7974 27.424C55.343 28.8225 53.841 29.5878 52.4426 29.1334L50.0695 28.3619V25.6622L52.6058 26.486C53.0386 26.6266 53.5013 26.4167 53.6864 26.0128L53.7241 25.9162L56.3284 17.8995L50.0695 15.8663V11.6996L57.5527 14.1317L58.4438 11.3904C58.5953 10.9242 58.3401 10.4236 57.874 10.2721L34.811 2.77849C34.3782 2.63785 33.9156 2.84777 33.7304 3.2517L33.6928 3.34829L32.8012 6.08949L36.5674 7.31279H29.8404L31.6194 1.84041C32.0738 0.44196 33.5758 -0.323356 34.9743 0.131027ZM26.043 22.1664V27.1034H21.106V22.1664H26.043ZM43.5752 12.2584H19.3254C18.8703 12.2584 18.4951 12.601 18.4439 13.0423L18.4379 13.1458L18.4371 16.0284H44.4623L44.4627 13.1458C44.4627 12.6557 44.0654 12.2584 43.5752 12.2584Z" fill="white"/>
<path opacity="0.75" d="M0 39.9553V49.9816H9.99994L0 39.9553Z" fill="white"/>
<path d="M9.99994 39.9553H0V49.9816L9.99994 39.9553Z" fill="white"/>
<path d="M46.3954 41.961C44.9045 41.961 43.5952 43.172 43.5952 44.6668V47.9758H44.796V46.7719H47.9949V47.9758H49.1956V44.6668C49.1956 43.172 47.8863 41.961 46.3954 41.961ZM47.9949 45.5704H44.796V44.6693C44.796 43.839 45.5674 43.1649 46.3954 43.1649C47.2234 43.1649 47.9949 43.839 47.9949 44.6693V45.5704Z" fill="white"/>
<path d="M62.9935 41.961C61.5026 41.961 60.1934 43.172 60.1934 44.6668V47.9758H61.3941V46.7719H64.593V47.9758H65.7938V44.6668C65.7938 43.172 64.4844 41.961 62.9935 41.961ZM64.593 45.5704H61.3941V44.6693C61.3941 43.839 62.1655 43.1649 62.9935 43.1649C63.8216 43.1649 64.593 43.839 64.593 44.6693V45.5704Z" fill="white"/>
<path d="M52.9885 44.3783L52.9956 44.3665H51.5967C51.2665 44.3665 50.9975 44.0969 50.9975 43.7657C50.9975 43.4346 51.2665 43.1649 51.5967 43.1649H53.7953L54.595 41.961H51.5944C50.6012 41.961 49.7944 42.77 49.7944 43.7657C49.7944 44.6976 50.4973 45.464 51.4009 45.5585L51.3938 45.5704H52.7927C53.123 45.5704 53.392 45.84 53.392 46.1712C53.392 46.5023 53.123 46.7719 52.7927 46.7719H50.5941L49.7944 47.9758H52.7951C53.7882 47.9758 54.595 47.167 54.595 46.1712C54.595 45.2392 53.8897 44.4729 52.9885 44.3783Z" fill="white"/>
<path d="M56.5934 41.961C55.6002 41.961 54.7935 42.77 54.7935 43.7657C54.7935 44.6976 55.4965 45.464 56.3999 45.5585L56.3928 45.5704H57.7917C58.122 45.5704 58.391 45.84 58.391 46.1712C58.391 46.5023 58.122 46.7719 57.7917 46.7719H55.5931L54.7935 47.9758H57.7941C58.7873 47.9758 59.5941 47.167 59.5941 46.1712C59.5941 45.2392 58.8911 44.4729 57.9875 44.3783L57.9947 44.3665H56.5957C56.2655 44.3665 55.9965 44.0969 55.9965 43.7657C55.9965 43.4346 56.2655 43.1649 56.5957 43.1649H58.7944L59.5941 41.961H56.5934Z" fill="white"/>
<path d="M42.9345 41.961L40.4811 44.5794L42.9958 47.9735H41.5969L39.6837 45.4285L39.1978 46.0104V47.9711H37.9971V41.961H39.1978V44.3333L41.361 41.961H42.9345Z" fill="white"/>
<path d="M34.1966 41.961C32.5405 41.961 31.1958 43.3069 31.1958 44.9696C31.1958 46.63 32.5381 47.9782 34.1966 47.9782C35.8526 47.9782 37.1973 46.6324 37.1973 44.9696C37.1973 43.3069 35.8526 41.961 34.1966 41.961ZM34.1966 46.7719C33.2034 46.7719 32.3966 45.9631 32.3966 44.9673C32.3966 43.9715 33.2034 43.1626 34.1966 43.1626C35.1897 43.1626 35.9965 43.9715 35.9965 44.9673C35.9965 45.9654 35.1897 46.7719 34.1966 46.7719Z" fill="white"/>
<path d="M29.9245 44.6503C30.0731 44.3878 30.158 44.0874 30.158 43.7633C30.158 42.7675 29.3511 41.9587 28.3581 41.9587H25.999V47.9735H28.9596C29.9527 47.9735 30.7596 47.1646 30.7596 46.1688C30.7572 45.5326 30.4245 44.972 29.9245 44.6503ZM27.1974 43.1626H28.3581C28.6883 43.1626 28.9572 43.4323 28.9572 43.7633C28.9572 44.0944 28.6883 44.3641 28.3581 44.3641H27.1974V43.1626ZM28.9572 46.7719H27.1974V45.568H28.9572C29.2875 45.568 29.5564 45.8377 29.5564 46.1688C29.5564 46.5 29.2875 46.7719 28.9572 46.7719Z" fill="white"/>
<path d="M22.2976 41.961C20.6415 41.961 19.2969 43.3069 19.2969 44.9696C19.2969 46.63 20.6391 47.9782 22.2976 47.9782C23.9559 47.9782 25.2982 46.6324 25.2982 44.9696C25.2982 43.3069 23.9536 41.961 22.2976 41.961ZM22.2976 46.7719C21.3044 46.7719 20.4976 45.9631 20.4976 44.9673C20.4976 43.9715 21.3044 43.1626 22.2976 43.1626C23.2906 43.1626 24.0975 43.9715 24.0975 44.9673C24.0975 45.9654 23.2906 46.7719 22.2976 46.7719Z" fill="white"/>
<path d="M15.1993 47.9758H13.9985V41.961H16.8248C17.3295 41.961 17.7636 42.1337 18.1292 42.4813C18.502 42.8338 18.7921 43.3517 18.7992 43.865C18.804 44.331 18.6931 44.7094 18.3982 45.0689C18.1175 45.4167 17.832 45.6792 17.398 45.7714L18.8984 47.9758H17.4994L16.0886 45.8945C16.0321 45.8164 15.9424 45.7714 15.8458 45.7714H15.1993V47.9758ZM15.1993 44.6668H16.7988C17.2399 44.6668 17.5985 44.3073 17.5985 43.865C17.5985 43.4228 17.2399 43.0632 16.7988 43.0632H15.1993V44.6668Z" fill="white"/>
</svg>
