<svg width="65" height="54" viewBox="0 0 65 54" fill="none" xmlns="http://www.w3.org/2000/svg">
	<path d="M12.7804 11.2231C12.0889 12.0675 10.9826 12.7336 9.87617 12.6384C9.73788 11.4967 10.2795 10.2835 10.9134 9.53424C11.6049 8.66602 12.815 8.04756 13.7946 7.99998C13.9098 9.18933 13.4604 10.3549 12.7804 11.2231ZM13.7831 12.8644C12.1811 12.7693 10.8097 13.804 10.049 13.804C9.27689 13.804 8.11289 12.912 6.84516 12.9358C5.19712 12.9595 3.66433 13.9229 2.82302 15.4572C1.09431 18.5257 2.37356 23.069 4.04465 25.5666C4.86291 26.8035 5.84251 28.1594 7.13328 28.1118C8.35491 28.0642 8.83895 27.2911 10.3141 27.2911C11.8008 27.2911 12.2272 28.1118 13.518 28.088C14.8549 28.0642 15.6962 26.8511 16.5144 25.6142C17.4479 24.2107 17.8283 22.843 17.8513 22.7716C17.8283 22.7478 15.2698 21.7369 15.2467 18.6922C15.2237 16.147 17.2635 14.9339 17.3557 14.8625C16.2033 13.1023 14.4054 12.912 13.7831 12.8644ZM23.0374 9.4153V27.9572H25.8264V21.618H29.6872C33.2138 21.618 35.6916 19.1203 35.6916 15.5047C35.6916 11.8891 33.2599 9.4153 29.7794 9.4153H23.0374ZM25.8264 11.8416H29.0418C31.462 11.8416 32.845 13.1736 32.845 15.5166C32.845 17.8596 31.462 19.2036 29.0303 19.2036H25.8264V11.8416ZM40.7856 28.0999C42.5373 28.0999 44.1623 27.1841 44.8999 25.7331H44.9575V27.9572H47.5391V18.7279C47.5391 16.0518 45.4646 14.3273 42.2723 14.3273C39.3104 14.3273 37.1207 16.0756 37.04 18.4781H39.5524C39.7599 17.3363 40.7856 16.587 42.1916 16.587C43.8973 16.587 44.8538 17.4077 44.8538 18.9182V19.941L41.3733 20.1551C38.1349 20.3573 36.3831 21.725 36.3831 24.1037C36.3831 26.5062 38.1925 28.0999 40.7856 28.0999ZM41.5347 25.8996C40.048 25.8996 39.103 25.1622 39.103 24.0323C39.103 22.8668 40.0134 22.1889 41.7537 22.0818L44.8538 21.8796V22.9262C44.8538 24.6627 43.4247 25.8996 41.5347 25.8996ZM50.985 33C53.7048 33 54.9841 31.9296 56.102 28.6827L61 14.5057H58.1649L54.8804 25.4595H54.8227L51.5382 14.5057H48.6224L53.3476 28.0047L53.094 28.8254C52.6676 30.2169 51.9761 30.7521 50.743 30.7521C50.524 30.7521 50.0976 30.7283 49.9247 30.7045V32.9286C50.0861 32.9762 50.7775 33 50.985 33Z" fill="black"/>
	<path opacity="0.7" d="M0 43V53.2182H10.1733L0 43Z" fill="#023D5E"/>
	<path d="M10.1733 43H0V53.2182L10.1733 43Z" fill="#023D5E"/>
	<path d="M45.4093 44.8598C43.9154 44.8598 42.6035 46.0754 42.6035 47.5759V50.8974H43.8067V49.689H47.0119V50.8974H48.2151V47.5759C48.2151 46.0754 46.9032 44.8598 45.4093 44.8598ZM47.0119 48.4829H43.8067V47.5783C43.8067 46.7449 44.5796 46.0683 45.4093 46.0683C46.239 46.0683 47.0119 46.7449 47.0119 47.5783V48.4829Z" fill="#FF5722"/>
	<path d="M62.0404 44.8598C60.5465 44.8598 59.2346 46.0754 59.2346 47.5759V50.8974H60.4378V49.689H63.643V50.8974H64.8462V47.5759C64.8462 46.0754 63.5343 44.8598 62.0404 44.8598ZM63.643 48.4829H60.4378V47.5783C60.4378 46.7449 61.2107 46.0683 62.0404 46.0683C62.8701 46.0683 63.643 46.7449 63.643 47.5783V48.4829V48.4829Z" fill="#FF5722"/>
	<path d="M33.1862 44.8598C31.5268 44.8598 30.1794 46.2107 30.1794 47.8798C30.1794 49.5465 31.5244 50.8998 33.1862 50.8998C34.8455 50.8998 36.1929 49.5489 36.1929 47.8798C36.1929 46.2107 34.8455 44.8598 33.1862 44.8598ZM33.1862 49.689C32.191 49.689 31.3826 48.877 31.3826 47.8774C31.3826 46.8779 32.191 46.0659 33.1862 46.0659C34.1813 46.0659 34.9897 46.8779 34.9897 47.8774C34.9897 48.8794 34.1813 49.689 33.1862 49.689Z" fill="#023D5E"/>
	<path d="M28.9055 47.5594C29.0544 47.2959 29.1395 46.9944 29.1395 46.6691C29.1395 45.6696 28.3311 44.8576 27.3359 44.8576H24.9722V50.8952H27.9387C28.9339 50.8952 29.7423 50.0832 29.7423 49.0837C29.7399 48.445 29.4066 47.8823 28.9055 47.5594ZM26.173 46.066H27.3359C27.6669 46.066 27.9363 46.3367 27.9363 46.6691C27.9363 47.0015 27.6669 47.2721 27.3359 47.2721H26.173V46.066ZM27.9363 49.6891H26.173V48.4806H27.9363C28.2673 48.4806 28.5367 48.7513 28.5367 49.0837C28.5367 49.4161 28.2673 49.6891 27.9363 49.6891Z" fill="#023D5E"/>
	<path d="M21.2633 44.8598C19.6039 44.8598 18.2566 46.2107 18.2566 47.8798C18.2566 49.5465 19.6016 50.8998 21.2633 50.8998C22.925 50.8998 24.27 49.5489 24.27 47.8798C24.27 46.2107 22.9227 44.8598 21.2633 44.8598ZM21.2633 49.689C20.2682 49.689 19.4597 48.877 19.4597 47.8774C19.4597 46.8779 20.2682 46.0659 21.2633 46.0659C22.2584 46.0659 23.0669 46.8779 23.0669 47.8774C23.0669 48.8794 22.2584 49.689 21.2633 49.689Z" fill="#023D5E"/>
	<path d="M52.0162 47.2863L52.0233 47.2744H50.6216C50.2907 47.2744 50.0212 47.0037 50.0212 46.6713C50.0212 46.3389 50.2907 46.0683 50.6216 46.0683H52.8246L53.6259 44.8598H50.6192C49.6241 44.8598 48.8157 45.6718 48.8157 46.6713C48.8157 47.6068 49.5201 48.376 50.4254 48.471L50.4183 48.4829H51.82C52.151 48.4829 52.4204 48.7535 52.4204 49.0859C52.4204 49.4183 52.151 49.689 51.82 49.689H49.617L48.8157 50.8974H51.8224C52.8175 50.8974 53.6259 50.0854 53.6259 49.0859C53.6259 48.1505 52.9192 47.3812 52.0162 47.2863Z" fill="#FF5722"/>
	<path d="M55.6278 44.8598C54.6326 44.8598 53.8242 45.6718 53.8242 46.6713C53.8242 47.6068 54.5286 48.376 55.4339 48.471L55.4268 48.4829H56.8285C57.1595 48.4829 57.4289 48.7535 57.4289 49.0859C57.4289 49.4183 57.1595 49.689 56.8285 49.689H54.6255L53.8242 50.8974H56.8309C57.8261 50.8974 58.6345 50.0854 58.6345 49.0859C58.6345 48.1505 57.9301 47.3812 57.0247 47.2863L57.0318 47.2744H55.6301C55.2992 47.2744 55.0297 47.0037 55.0297 46.6713C55.0297 46.3389 55.2992 46.0683 55.6301 46.0683H57.8331L58.6345 44.8598H55.6278V44.8598Z" fill="#FF5722"/>
	<path d="M14.1509 50.8972H12.9478V44.8596H15.7795C16.2854 44.8596 16.7203 45.033 17.0867 45.382C17.4602 45.7357 17.7509 46.2557 17.758 46.7709C17.7628 47.2386 17.6517 47.6185 17.3562 47.9793C17.0749 48.3284 16.7889 48.5919 16.3539 48.6845L17.8573 50.8972H16.4556L15.0421 48.8079C14.9853 48.7296 14.8955 48.6845 14.7986 48.6845H14.1509V50.8972ZM14.1509 47.5757H15.7535C16.1956 47.5757 16.5549 47.2148 16.5549 46.7709C16.5549 46.3269 16.1956 45.966 15.7535 45.966H14.1509V47.5757Z" fill="#023D5E"/>
	<path d="M41.9415 44.8598L39.4832 47.4881L42.003 50.8951H40.6013L38.6842 48.3404L38.1973 48.9245V50.8927H36.9941V44.8598H38.1973V47.2411L40.3649 44.8598H41.9415V44.8598Z" fill="#FF5722"/>
</svg>
