<svg width="71" height="57" viewBox="0 0 71 57" fill="none" xmlns="http://www.w3.org/2000/svg">
<path fill-rule="evenodd" clip-rule="evenodd" d="M42.238 9.68996C43.7084 9.68996 44.9004 10.882 44.9004 12.3524V29.2125C44.9004 30.6829 43.7084 31.8749 42.238 31.8749H16.6624C15.192 31.8749 14 30.6829 14 29.2125V12.3524C14 10.882 15.192 9.68996 16.6624 9.68996H42.238ZM42.4623 19.9901H16.4371L16.4379 28.4192C16.4379 28.8743 16.7805 29.2494 17.2219 29.3007L17.3254 29.3066H41.5752C42.0303 29.3066 42.4055 28.964 42.4567 28.5227L42.4627 28.4192L42.4623 19.9901ZM32.9743 0.131027L57.2981 8.03432C58.6965 8.4887 59.4619 9.99072 59.0075 11.3892L53.7974 27.424C53.343 28.8225 51.841 29.5878 50.4426 29.1334L48.0695 28.3619V25.6622L50.6058 26.486C51.0386 26.6266 51.5013 26.4167 51.6864 26.0128L51.7241 25.9162L54.3284 17.8995L48.0695 15.8663V11.6996L55.5527 14.1317L56.4438 11.3904C56.5953 10.9242 56.3401 10.4236 55.874 10.2721L32.811 2.77849C32.3782 2.63785 31.9156 2.84777 31.7304 3.2517L31.6928 3.34829L30.8012 6.08949L34.5674 7.31279H27.8404L29.6194 1.84041C30.0738 0.44196 31.5758 -0.323356 32.9743 0.131027ZM24.043 22.1664V27.1034H19.106V22.1664H24.043ZM41.5752 12.2584H17.3254C16.8703 12.2584 16.4951 12.601 16.4439 13.0423L16.4379 13.1458L16.4371 16.0284H42.4623L42.4627 13.1458C42.4627 12.6557 42.0654 12.2584 41.5752 12.2584Z" fill="#19D0C8"/>
<path opacity="0.75" d="M0 39.9553V49.9816H9.99994L0 39.9553Z" fill="#1664C0"/>
<path d="M9.99994 39.9553H0V49.9816L9.99994 39.9553Z" fill="#1876D1"/>
<path d="M46.3954 41.9611C44.9045 41.9611 43.5952 43.172 43.5952 44.6669V47.9759H44.796V46.772H47.9949V47.9759H49.1956V44.6669C49.1956 43.172 47.8863 41.9611 46.3954 41.9611ZM47.9949 45.5705H44.796V44.6693C44.796 43.8391 45.5674 43.165 46.3954 43.165C47.2234 43.165 47.9949 43.8391 47.9949 44.6693V45.5705Z" fill="#FF5722"/>
<path d="M62.9935 41.9611C61.5026 41.9611 60.1934 43.172 60.1934 44.6669V47.9759H61.3941V46.772H64.593V47.9759H65.7938V44.6669C65.7938 43.172 64.4844 41.9611 62.9935 41.9611ZM64.593 45.5705H61.3941V44.6693C61.3941 43.8391 62.1655 43.165 62.9935 43.165C63.8216 43.165 64.593 43.8391 64.593 44.6693V45.5705Z" fill="#FF5722"/>
<path d="M52.9885 44.3784L52.9956 44.3666H51.5967C51.2665 44.3666 50.9975 44.0969 50.9975 43.7657C50.9975 43.4346 51.2665 43.165 51.5967 43.165H53.7953L54.595 41.9611H51.5944C50.6012 41.9611 49.7944 42.77 49.7944 43.7657C49.7944 44.6977 50.4973 45.4641 51.4009 45.5586L51.3938 45.5705H52.7927C53.123 45.5705 53.392 45.84 53.392 46.1712C53.392 46.5023 53.123 46.772 52.7927 46.772H50.5941L49.7944 47.9759H52.7951C53.7882 47.9759 54.595 47.167 54.595 46.1712C54.595 45.2393 53.8897 44.473 52.9885 44.3784Z" fill="#FF5722"/>
<path d="M56.5934 41.9611C55.6002 41.9611 54.7935 42.77 54.7935 43.7657C54.7935 44.6977 55.4965 45.4641 56.3999 45.5586L56.3928 45.5705H57.7917C58.122 45.5705 58.391 45.84 58.391 46.1712C58.391 46.5023 58.122 46.772 57.7917 46.772H55.5931L54.7935 47.9759H57.7941C58.7873 47.9759 59.5941 47.167 59.5941 46.1712C59.5941 45.2393 58.8911 44.473 57.9875 44.3784L57.9947 44.3666H56.5957C56.2655 44.3666 55.9965 44.0969 55.9965 43.7657C55.9965 43.4346 56.2655 43.165 56.5957 43.165H58.7944L59.5941 41.9611H56.5934Z" fill="#FF5722"/>
<path d="M42.9345 41.9611L40.4811 44.5794L42.9958 47.9736H41.5969L39.6837 45.4286L39.1978 46.0104V47.9712H37.9971V41.9611H39.1978V44.3334L41.361 41.9611H42.9345Z" fill="#FF5722"/>
<path d="M34.1966 41.9611C32.5405 41.9611 31.1958 43.3069 31.1958 44.9696C31.1958 46.63 32.5381 47.9782 34.1966 47.9782C35.8526 47.9782 37.1973 46.6325 37.1973 44.9696C37.1973 43.3069 35.8526 41.9611 34.1966 41.9611ZM34.1966 46.772C33.2034 46.772 32.3966 45.9631 32.3966 44.9673C32.3966 43.9715 33.2034 43.1627 34.1966 43.1627C35.1897 43.1627 35.9965 43.9715 35.9965 44.9673C35.9965 45.9654 35.1897 46.772 34.1966 46.772Z" fill="#1876D1"/>
<path d="M29.9245 44.6504C30.0731 44.3879 30.158 44.0874 30.158 43.7634C30.158 42.7676 29.3511 41.9587 28.3581 41.9587H25.999V47.9736H28.9596C29.9527 47.9736 30.7596 47.1646 30.7596 46.1688C30.7572 45.5327 30.4245 44.9721 29.9245 44.6504ZM27.1974 43.1627H28.3581C28.6883 43.1627 28.9572 43.4323 28.9572 43.7634C28.9572 44.0945 28.6883 44.3641 28.3581 44.3641H27.1974V43.1627ZM28.9572 46.772H27.1974V45.5681H28.9572C29.2875 45.5681 29.5564 45.8377 29.5564 46.1688C29.5564 46.5 29.2875 46.772 28.9572 46.772Z" fill="#1876D1"/>
<path d="M22.2976 41.9611C20.6415 41.9611 19.2969 43.3069 19.2969 44.9696C19.2969 46.63 20.6391 47.9782 22.2976 47.9782C23.9559 47.9782 25.2982 46.6325 25.2982 44.9696C25.2982 43.3069 23.9536 41.9611 22.2976 41.9611ZM22.2976 46.772C21.3044 46.772 20.4976 45.9631 20.4976 44.9673C20.4976 43.9715 21.3044 43.1627 22.2976 43.1627C23.2906 43.1627 24.0975 43.9715 24.0975 44.9673C24.0975 45.9654 23.2906 46.772 22.2976 46.772Z" fill="#1876D1"/>
<path d="M15.1993 47.9759H13.9985V41.9611H16.8248C17.3295 41.9611 17.7636 42.1338 18.1292 42.4814C18.502 42.8339 18.7921 43.3518 18.7992 43.8651C18.804 44.3311 18.6931 44.7095 18.3982 45.069C18.1175 45.4168 17.832 45.6792 17.398 45.7714L18.8984 47.9759H17.4994L16.0886 45.8945C16.0321 45.8164 15.9424 45.7714 15.8458 45.7714H15.1993V47.9759ZM15.1993 44.6669H16.7988C17.2399 44.6669 17.5985 44.3074 17.5985 43.8651C17.5985 43.4228 17.2399 43.0633 16.7988 43.0633H15.1993V44.6669Z" fill="#1876D1"/>
</svg>
