<svg width="71" height="60" viewBox="0 0 71 60" fill="none" xmlns="http://www.w3.org/2000/svg">
<path d="M13.7804 11.2231C13.0889 12.0676 11.9826 12.7336 10.8762 12.6384C10.7379 11.4967 11.2795 10.2835 11.9134 9.53425C12.6049 8.66603 13.815 8.04757 14.7946 8C14.9098 9.18934 14.4604 10.3549 13.7804 11.2231ZM14.7831 12.8644C13.1811 12.7693 11.8097 13.804 11.049 13.804C10.2769 13.804 9.11289 12.912 7.84516 12.9358C6.19712 12.9596 4.66433 13.9229 3.82302 15.4572C2.09431 18.5257 3.37356 23.069 5.04465 25.5666C5.86291 26.8035 6.84251 28.1594 8.13328 28.1118C9.35491 28.0642 9.83895 27.2911 11.3141 27.2911C12.8008 27.2911 13.2272 28.1118 14.518 28.088C15.8549 28.0642 16.6962 26.8511 17.5144 25.6142C18.4479 24.2107 18.8283 22.843 18.8513 22.7716C18.8283 22.7479 16.2698 21.7369 16.2467 18.6922C16.2237 16.147 18.2635 14.9339 18.3557 14.8625C17.2033 13.1023 15.4054 12.912 14.7831 12.8644ZM24.0374 9.41532V27.9572H26.8264V21.618H30.6872C34.2138 21.618 36.6916 19.1204 36.6916 15.5048C36.6916 11.8892 34.2599 9.41532 30.7794 9.41532H24.0374ZM26.8264 11.8416H30.0418C32.462 11.8416 33.845 13.1736 33.845 15.5167C33.845 17.8597 32.462 19.2036 30.0303 19.2036H26.8264V11.8416ZM41.7856 28.0999C43.5373 28.0999 45.1623 27.1841 45.8999 25.7331H45.9575V27.9572H48.5391V18.7279C48.5391 16.0519 46.4646 14.3273 43.2723 14.3273C40.3104 14.3273 38.1207 16.0756 38.04 18.4781H40.5524C40.7599 17.3363 41.7856 16.5871 43.1916 16.5871C44.8973 16.5871 45.8538 17.4077 45.8538 18.9182V19.941L42.3733 20.1551C39.1349 20.3573 37.3831 21.725 37.3831 24.1037C37.3831 26.5062 39.1925 28.0999 41.7856 28.0999ZM42.5347 25.8996C41.048 25.8996 40.103 25.1622 40.103 24.0324C40.103 22.8668 41.0134 22.1889 42.7537 22.0818L45.8538 21.8796V22.9263C45.8538 24.6627 44.4247 25.8996 42.5347 25.8996ZM51.985 33C54.7048 33 55.9841 31.9296 57.102 28.6827L62 14.5057H59.1649L55.8804 25.4596H55.8227L52.5382 14.5057H49.6224L54.3476 28.0048L54.094 28.8254C53.6676 30.2169 52.9761 30.7521 51.743 30.7521C51.524 30.7521 51.0976 30.7284 50.9247 30.7046V32.9286C51.0861 32.9762 51.7775 33 51.985 33Z" fill="black"/>
<path opacity="0.75" d="M0 42.9553V52.9816H9.99994L0 42.9553Z" fill="#1664C0"/>
<path d="M9.99994 42.9553H0V52.9816L9.99994 42.9553Z" fill="#1876D1"/>
<path d="M46.3954 44.9611C44.9045 44.9611 43.5952 46.172 43.5952 47.6669V50.9759H44.796V49.772H47.9949V50.9759H49.1956V47.6669C49.1956 46.172 47.8863 44.9611 46.3954 44.9611ZM47.9949 48.5705H44.796V47.6693C44.796 46.8391 45.5674 46.165 46.3954 46.165C47.2234 46.165 47.9949 46.8391 47.9949 47.6693V48.5705Z" fill="#FF5722"/>
<path d="M62.9935 44.9611C61.5026 44.9611 60.1934 46.172 60.1934 47.6669V50.9759H61.3941V49.772H64.593V50.9759H65.7938V47.6669C65.7938 46.172 64.4844 44.9611 62.9935 44.9611ZM64.593 48.5705H61.3941V47.6693C61.3941 46.8391 62.1655 46.165 62.9935 46.165C63.8216 46.165 64.593 46.8391 64.593 47.6693V48.5705Z" fill="#FF5722"/>
<path d="M52.9885 47.3784L52.9956 47.3666H51.5967C51.2665 47.3666 50.9975 47.0969 50.9975 46.7657C50.9975 46.4346 51.2665 46.165 51.5967 46.165H53.7953L54.595 44.9611H51.5944C50.6012 44.9611 49.7944 45.77 49.7944 46.7657C49.7944 47.6977 50.4973 48.4641 51.4009 48.5586L51.3938 48.5705H52.7927C53.123 48.5705 53.392 48.84 53.392 49.1712C53.392 49.5023 53.123 49.772 52.7927 49.772H50.5941L49.7944 50.9759H52.7951C53.7882 50.9759 54.595 50.167 54.595 49.1712C54.595 48.2393 53.8897 47.473 52.9885 47.3784Z" fill="#FF5722"/>
<path d="M56.5934 44.9611C55.6002 44.9611 54.7935 45.77 54.7935 46.7657C54.7935 47.6977 55.4965 48.4641 56.3999 48.5586L56.3928 48.5705H57.7917C58.122 48.5705 58.391 48.84 58.391 49.1712C58.391 49.5023 58.122 49.772 57.7917 49.772H55.5931L54.7935 50.9759H57.7941C58.7873 50.9759 59.5941 50.167 59.5941 49.1712C59.5941 48.2393 58.8911 47.473 57.9875 47.3784L57.9947 47.3666H56.5957C56.2655 47.3666 55.9965 47.0969 55.9965 46.7657C55.9965 46.4346 56.2655 46.165 56.5957 46.165H58.7944L59.5941 44.9611H56.5934Z" fill="#FF5722"/>
<path d="M42.9345 44.9611L40.4811 47.5794L42.9958 50.9736H41.5969L39.6837 48.4286L39.1978 49.0104V50.9712H37.9971V44.9611H39.1978V47.3334L41.361 44.9611H42.9345Z" fill="#FF5722"/>
<path d="M34.1966 44.9611C32.5405 44.9611 31.1958 46.3069 31.1958 47.9696C31.1958 49.63 32.5381 50.9782 34.1966 50.9782C35.8526 50.9782 37.1973 49.6325 37.1973 47.9696C37.1973 46.3069 35.8526 44.9611 34.1966 44.9611ZM34.1966 49.772C33.2034 49.772 32.3966 48.9631 32.3966 47.9673C32.3966 46.9715 33.2034 46.1627 34.1966 46.1627C35.1897 46.1627 35.9965 46.9715 35.9965 47.9673C35.9965 48.9654 35.1897 49.772 34.1966 49.772Z" fill="#1876D1"/>
<path d="M29.9245 47.6504C30.0731 47.3879 30.158 47.0874 30.158 46.7634C30.158 45.7676 29.3511 44.9587 28.3581 44.9587H25.999V50.9736H28.9596C29.9527 50.9736 30.7596 50.1646 30.7596 49.1688C30.7572 48.5327 30.4245 47.9721 29.9245 47.6504ZM27.1974 46.1627H28.3581C28.6883 46.1627 28.9572 46.4323 28.9572 46.7634C28.9572 47.0945 28.6883 47.3641 28.3581 47.3641H27.1974V46.1627ZM28.9572 49.772H27.1974V48.5681H28.9572C29.2875 48.5681 29.5564 48.8377 29.5564 49.1688C29.5564 49.5 29.2875 49.772 28.9572 49.772Z" fill="#1876D1"/>
<path d="M22.2976 44.9611C20.6415 44.9611 19.2969 46.3069 19.2969 47.9696C19.2969 49.63 20.6391 50.9782 22.2976 50.9782C23.9559 50.9782 25.2982 49.6325 25.2982 47.9696C25.2982 46.3069 23.9536 44.9611 22.2976 44.9611ZM22.2976 49.772C21.3044 49.772 20.4976 48.9631 20.4976 47.9673C20.4976 46.9715 21.3044 46.1627 22.2976 46.1627C23.2906 46.1627 24.0975 46.9715 24.0975 47.9673C24.0975 48.9654 23.2906 49.772 22.2976 49.772Z" fill="#1876D1"/>
<path d="M15.1993 50.9759H13.9985V44.9611H16.8248C17.3295 44.9611 17.7636 45.1338 18.1292 45.4814C18.502 45.8339 18.7921 46.3518 18.7992 46.8651C18.804 47.3311 18.6931 47.7095 18.3982 48.069C18.1175 48.4168 17.832 48.6792 17.398 48.7714L18.8984 50.9759H17.4994L16.0886 48.8945C16.0321 48.8164 15.9424 48.7714 15.8458 48.7714H15.1993V50.9759ZM15.1993 47.6669H16.7988C17.2399 47.6669 17.5985 47.3074 17.5985 46.8651C17.5985 46.4228 17.2399 46.0633 16.7988 46.0633H15.1993V47.6669Z" fill="#1876D1"/>
</svg>
