<svg width="120" height="81" viewBox="0 0 120 81" fill="none" xmlns="http://www.w3.org/2000/svg">
	<path fill-rule="evenodd" clip-rule="evenodd" d="M37.6106 29.1103L37.5836 17.0885L42.3962 20.004L42.3966 20.0039L37.6107 22.925V28.8897L52.1911 19.9949L32.4912 8V25.9859L18 17.142L18.006 40.852L18.006 40.852L32.4912 32.0156L32.494 50L35.1475 45.282L32.4944 50L52.1701 37.9961L52.1704 37.996L37.6106 29.1103ZM32.5126 32.0025L34.829 33.393L32.5326 31.9903L32.5126 32.0025ZM27.6478 29.0067L23.1075 26.2335V31.7786L23.1075 31.7786L27.6478 29.0067ZM42.3842 38.0079L37.6106 40.9022V35.092L42.3846 38.0079L42.3842 38.0079ZM72.1656 34.6695C75.4616 34.6695 77.9092 32.657 77.9092 29.6061C77.9092 26.6531 76.1034 24.7359 73.0854 24.7359C71.6925 24.7359 70.5432 25.2241 69.6776 26.0665C69.8842 24.3253 71.3629 23.0541 72.9908 23.0541C73.3666 23.0541 76.1951 23.0482 76.1951 23.0482L77.7947 20C77.7947 20 74.2435 20.0805 72.5926 20.0805C68.8207 20.1459 66.2729 23.5602 66.2729 27.707C66.2729 32.538 68.7578 34.6695 72.1656 34.6695ZM72.1856 27.4357C73.4094 27.4357 74.2579 28.2365 74.2579 29.6057C74.2579 30.8381 73.504 31.8534 72.1856 31.8562C70.9246 31.8562 70.0761 30.9155 70.0761 29.6268C70.0761 28.2572 70.9246 27.4357 72.1856 27.4357ZM90.6367 24.034V34.3023H86.9547V27.0993H83.4095V34.3023H79.7275V24.0333H90.6367V24.034ZM61.1077 31.4583C62.4064 31.3638 63.2759 30.8647 63.2759 30.8647L64.6386 33.3749C63.7659 33.9331 62.334 34.2961 61.2961 34.3346C57.5829 34.4025 55 32.1523 55 28.8742C55 25.6374 57.7481 23.3337 61.2961 23.3337C62.702 23.3337 63.9107 23.7093 64.8182 24.3942C64.3226 25.2685 63.3659 27.0168 63.3659 27.0168C63.3659 27.0168 62.0585 26.3346 61.0701 26.3346C59.4583 26.3346 58.2844 27.2674 58.2844 28.8949C58.2844 30.5633 59.6147 31.5024 61.1077 31.4583Z" fill="white"/>
	<path opacity="0.7" d="M28 63V73H37.956L28 63Z" fill="white"/>
	<path d="M37.956 63H28V73L37.956 63Z" fill="white"/>
	<path d="M72.7243 64.8203C71.2623 64.8203 69.9784 66.01 69.9784 67.4784V70.729H71.1559V69.5463H74.2927V70.729H75.4701V67.4784C75.4701 66.01 74.1863 64.8203 72.7243 64.8203ZM74.2927 68.366H71.1559V67.4807C71.1559 66.6652 71.9123 66.003 72.7243 66.003C73.5362 66.003 74.2927 66.6652 74.2927 67.4807V68.366Z" fill="white"/>
	<path d="M89.0004 64.8203C87.5384 64.8203 86.2545 66.01 86.2545 67.4784V70.729H87.432V69.5463H90.5688V70.729H91.7463V67.4784C91.7463 66.01 90.4624 64.8203 89.0004 64.8203ZM90.5688 68.366H87.432V67.4807C87.432 66.6652 88.1884 66.003 89.0004 66.003C89.8124 66.003 90.5688 66.6652 90.5688 67.4807V68.366V68.366Z" fill="white"/>
	<path d="M60.7622 64.8203C59.1383 64.8203 57.8197 66.1424 57.8197 67.7758C57.8197 69.4069 59.136 70.7313 60.7622 70.7313C62.3861 70.7313 63.7047 69.4092 63.7047 67.7758C63.7047 66.1424 62.3861 64.8203 60.7622 64.8203ZM60.7622 69.5463C59.7883 69.5463 58.9972 68.7517 58.9972 67.7735C58.9972 66.7953 59.7883 66.0007 60.7622 66.0007C61.7361 66.0007 62.5273 66.7953 62.5273 67.7735C62.5273 68.754 61.7361 69.5463 60.7622 69.5463Z" fill="white"/>
	<path d="M56.573 67.4623C56.7187 67.2044 56.802 66.9093 56.802 66.591C56.802 65.6128 56.0108 64.8181 55.0369 64.8181H52.7236V70.7268H55.6268C56.6007 70.7268 57.3919 69.9322 57.3919 68.954C57.3896 68.3289 57.0634 67.7783 56.573 67.4623ZM53.8988 66.0008H55.0369C55.3608 66.0008 55.6245 66.2657 55.6245 66.591C55.6245 66.9162 55.3608 67.1811 55.0369 67.1811H53.8988V66.0008ZM55.6245 69.5465H53.8988V68.3638H55.6245C55.9484 68.3638 56.2121 68.6287 56.2121 68.954C56.2121 69.2793 55.9484 69.5465 55.6245 69.5465Z" fill="white"/>
	<path d="M49.0939 64.8203C47.4699 64.8203 46.1514 66.1424 46.1514 67.7758C46.1514 69.4069 47.4676 70.7313 49.0939 70.7313C50.7201 70.7313 52.0364 69.4092 52.0364 67.7758C52.0364 66.1424 50.7178 64.8203 49.0939 64.8203ZM49.0939 69.5463C48.12 69.5463 47.3288 68.7517 47.3288 67.7735C47.3288 66.7953 48.12 66.0007 49.0939 66.0007C50.0678 66.0007 50.8589 66.7953 50.8589 67.7735C50.8589 68.754 50.0678 69.5463 49.0939 69.5463Z" fill="white"/>
	<path d="M79.1903 67.1949L79.1973 67.1833H77.8255C77.5016 67.1833 77.2379 66.9184 77.2379 66.5932C77.2379 66.2679 77.5016 66.003 77.8255 66.003H79.9815L80.7657 64.8203H77.8232C76.8493 64.8203 76.0581 65.615 76.0581 66.5932C76.0581 67.5086 76.7475 68.2614 77.6335 68.3544L77.6265 68.366H78.9983C79.3222 68.366 79.5859 68.6309 79.5859 68.9562C79.5859 69.2815 79.3222 69.5463 78.9983 69.5463H76.8423L76.0581 70.729H79.0006C79.9745 70.729 80.7657 69.9344 80.7657 68.9562C80.7657 68.0407 80.074 67.2879 79.1903 67.1949Z" fill="white"/>
	<path d="M82.7246 64.8203C81.7507 64.8203 80.9596 65.615 80.9596 66.5932C80.9596 67.5086 81.649 68.2614 82.5349 68.3544L82.528 68.366H83.8998C84.2236 68.366 84.4874 68.6309 84.4874 68.9562C84.4874 69.2815 84.2236 69.5463 83.8998 69.5463H81.7438L80.9596 70.729H83.9021C84.876 70.729 85.6671 69.9344 85.6671 68.9562C85.6671 68.0407 84.9778 67.2879 84.0918 67.1949L84.0987 67.1833H82.7269C82.4031 67.1833 82.1394 66.9184 82.1394 66.5932C82.1394 66.2679 82.4031 66.003 82.7269 66.003H84.8829L85.6671 64.8203H82.7246V64.8203Z" fill="white"/>
	<path d="M42.1335 70.7288H40.9561V64.8201H43.7274C44.2224 64.8201 44.6481 64.9897 45.0066 65.3312C45.3721 65.6774 45.6567 66.1863 45.6636 66.6905C45.6682 67.1482 45.5595 67.52 45.2704 67.8732C44.9951 68.2147 44.7152 68.4726 44.2895 68.5632L45.7608 70.7288H44.389L43.0056 68.6841C42.9501 68.6074 42.8622 68.5632 42.7674 68.5632H42.1335V70.7288ZM42.1335 67.4782H43.7019C44.1345 67.4782 44.4861 67.125 44.4861 66.6905C44.4861 66.256 44.1345 65.9028 43.7019 65.9028H42.1335V67.4782Z" fill="white"/>
	<path d="M69.3309 64.8203L66.925 67.3924L69.391 70.7267H68.0192L66.1431 68.2266L65.6666 68.7982V70.7244H64.4891V64.8203H65.6666V67.1508L67.7879 64.8203H69.3309V64.8203Z" fill="white"/>
</svg>
