<svg width="120" height="33" viewBox="0 0 120 33" fill="none" xmlns="http://www.w3.org/2000/svg">
<g clip-path="url(#clip0_1701_2258)">
<path d="M29.4083 6.35498C30.1749 7.35944 30.8239 8.4507 31.3421 9.60685L16.6419 20.589L10.4983 16.686V11.9905L16.6419 15.8935L29.4083 6.35498Z" fill="#21A038"/>
<path d="M4.22827 16.3545C4.22827 16.1438 4.23334 15.9345 4.24348 15.7264L0.520277 15.5415C0.507605 15.8112 0.500004 16.0835 0.500004 16.3583C0.49842 18.5055 0.915154 20.6318 1.72631 22.6153C2.53746 24.5989 3.72706 26.4006 5.22687 27.9171L7.86783 25.2419C6.71333 24.0766 5.79746 22.6915 5.17286 21.1663C4.54826 19.6411 4.22725 18.0058 4.22827 16.3545Z" fill="url(#paint0_linear_1701_2258)"/>
<path d="M16.6385 3.77735C16.8463 3.77735 17.0528 3.78506 17.2581 3.79533L17.4444 0.0207408C17.1775 0.00789774 16.9088 0.00147697 16.6385 0.00147697C14.5188 -0.00114271 12.4196 0.42059 10.4613 1.24246C8.50291 2.06433 6.72405 3.27015 5.22681 4.79068L7.86777 7.46718C9.01766 6.29676 10.3845 5.36823 11.8897 4.735C13.3949 4.10177 15.0087 3.77631 16.6385 3.77735Z" fill="url(#paint1_linear_1701_2258)"/>
<path d="M16.6385 28.9319C16.4307 28.9319 16.2241 28.9319 16.0176 28.9152L15.8313 32.6885C16.0991 32.7022 16.3682 32.7091 16.6385 32.7091C18.7573 32.7113 20.8555 32.2893 22.8128 31.4672C24.7701 30.6451 26.5478 29.4391 28.0439 27.9186L25.408 25.2434C24.2579 26.4132 22.8912 27.3412 21.3863 27.9742C19.8814 28.6072 18.2679 28.9327 16.6385 28.9319Z" fill="url(#paint2_linear_1701_2258)"/>
<path d="M23.6339 5.97207L26.7716 3.6282C23.9037 1.27465 20.3238 -0.0065332 16.6335 2.50536e-05V3.77718C19.1324 3.77404 21.5733 4.53938 23.6339 5.97207Z" fill="url(#paint3_linear_1701_2258)"/>
<path d="M32.7759 16.3544C32.7779 15.3718 32.6931 14.3909 32.5224 13.4236L29.0489 16.0179C29.0489 16.1297 29.0489 16.2414 29.0489 16.3544C29.0498 18.1117 28.6863 19.8496 27.9821 21.4554C27.2778 23.0612 26.2484 24.4991 24.9607 25.6759L27.4661 28.4822C29.1402 26.9505 30.478 25.0794 31.3927 22.9902C32.3075 20.9009 32.7787 18.6401 32.7759 16.3544Z" fill="#21A038"/>
<path d="M16.6386 28.9318C14.9045 28.9324 13.1896 28.5639 11.6049 27.8502C10.0203 27.1365 8.60119 26.0934 7.43956 24.7886L4.67188 27.3264C6.18303 29.0233 8.02923 30.3793 10.0908 31.3066C12.1523 32.2338 14.3831 32.7116 16.6386 32.7089V28.9318Z" fill="url(#paint4_linear_1701_2258)"/>
<path d="M8.31645 7.03278L5.81235 4.22656C4.13776 5.75794 2.79948 7.62894 1.8843 9.71822C0.969132 11.8075 0.497505 14.0684 0.50001 16.3543H4.22828C4.22751 14.5971 4.59104 12.8592 5.29529 11.2534C5.99955 9.64763 7.02883 8.20969 8.31645 7.03278Z" fill="url(#paint5_linear_1701_2258)"/>
<mask id="mask0_1701_2258" style="mask-type:luminance" maskUnits="userSpaceOnUse" x="41" y="5" width="169" height="23">
<path d="M209.88 5.6897H41.4656V27.3104H209.88V5.6897Z" fill="white"/>
</mask>
<g mask="url(#mask0_1701_2258)">
<path d="M93.6298 9.3527L98.2473 5.94409H82.7935V26.4269H98.2473V23.0183H87.2031V17.7716H96.6243V14.363H87.2031V9.3527H93.6298Z" fill="#21A038"/>
<path d="M72.3952 13.9237H67.03V9.35159H75.5927L80.2074 5.93262H62.623V26.4154H71.8277C76.9883 26.4154 79.95 24.0718 79.95 19.9846C79.95 16.0745 77.2674 13.9237 72.3952 13.9237ZM71.6292 23.0057H67.03V17.3302H71.6292C74.4204 17.3302 75.7291 18.2813 75.7291 20.168C75.7291 22.0546 74.3366 23.0057 71.6292 23.0057Z" fill="#21A038"/>
<path d="M109.607 5.94116H101.195V26.4239H105.604V20.6215H109.607C114.974 20.6215 118.294 17.7918 118.294 13.2704C118.294 8.74911 114.974 5.94116 109.607 5.94116ZM109.514 17.2103H105.604V9.35237H109.514C112.337 9.35237 113.895 10.7486 113.895 13.2829C113.895 15.8172 112.337 17.2103 109.514 17.2103Z" fill="#21A038"/>
<path d="M56.0064 21.5902C54.8674 22.2082 53.5913 22.5282 52.2962 22.5206C48.4198 22.5206 45.6077 19.7477 45.6077 15.9294C45.6077 12.111 48.4198 9.33209 52.2962 9.33209C53.6941 9.3083 55.063 9.73303 56.2029 10.5443L59.2871 8.2684L59.0785 8.11991C57.2794 6.53499 54.8755 5.69556 52.1239 5.69556C49.1394 5.69556 46.4332 6.70166 44.501 8.53205C43.524 9.47449 42.7514 10.6086 42.2311 11.8636C41.7109 13.1186 41.4542 14.4675 41.4773 15.8263C41.4566 17.1989 41.7121 18.5616 42.2285 19.8331C42.7449 21.1046 43.5116 22.2587 44.4829 23.2267C46.4241 25.1298 49.1243 26.1783 52.0876 26.1783C55.1839 26.1783 57.8902 25.0964 59.7226 23.1267L56.9619 21.066L56.0064 21.5902Z" fill="#21A038"/>
</g>
</g>
<defs>
<linearGradient id="paint0_linear_1701_2258" x1="5.98089" y1="27.4458" x2="1.80964" y2="15.5477" gradientUnits="userSpaceOnUse">
<stop offset="0.14" stop-color="#F1E813"/>
<stop offset="0.3" stop-color="#E6E418"/>
<stop offset="0.58" stop-color="#C9DA26"/>
<stop offset="0.89" stop-color="#A2CC39"/>
</linearGradient>
<linearGradient id="paint1_linear_1701_2258" x1="6.2913" y1="5.45852" x2="16.8181" y2="1.50017" gradientUnits="userSpaceOnUse">
<stop offset="0.06" stop-color="#0FA7DF"/>
<stop offset="0.54" stop-color="#0098F8"/>
<stop offset="0.92" stop-color="#0290EA"/>
</linearGradient>
<linearGradient id="paint2_linear_1701_2258" x1="15.5855" y1="30.4294" x2="27.4647" y2="27.7814" gradientUnits="userSpaceOnUse">
<stop offset="0.12" stop-color="#A2CC39"/>
<stop offset="0.28" stop-color="#86C239"/>
<stop offset="0.87" stop-color="#219F38"/>
</linearGradient>
<linearGradient id="paint3_linear_1701_2258" x1="15.858" y1="1.26507" x2="26.0244" y2="4.36073" gradientUnits="userSpaceOnUse">
<stop offset="0.06" stop-color="#0290EA"/>
<stop offset="0.79" stop-color="#0C89CA"/>
</linearGradient>
<linearGradient id="paint4_linear_1701_2258" x1="5.6071" y1="26.8666" x2="16.6833" y2="30.9512" gradientUnits="userSpaceOnUse">
<stop offset="0.13" stop-color="#F1E813"/>
<stop offset="0.3" stop-color="#EAE616"/>
<stop offset="0.53" stop-color="#D8DF1F"/>
<stop offset="0.8" stop-color="#BAD52D"/>
<stop offset="0.98" stop-color="#A2CC39"/>
</linearGradient>
<linearGradient id="paint5_linear_1701_2258" x1="1.88892" y1="16.8115" x2="6.42478" y2="5.16877" gradientUnits="userSpaceOnUse">
<stop offset="0.07" stop-color="#A2CC39"/>
<stop offset="0.26" stop-color="#81C45E"/>
<stop offset="0.92" stop-color="#0FA7DF"/>
</linearGradient>
<clipPath id="clip0_1701_2258">
<rect width="119" height="33" fill="white" transform="translate(0.5)"/>
</clipPath>
</defs>
</svg>
