<svg width="119" height="33" viewBox="0 0 119 33" fill="none" xmlns="http://www.w3.org/2000/svg">
<g clip-path="url(#clip0_1701_2349)">
<mask id="mask0_1701_2349" style="mask-type:luminance" maskUnits="userSpaceOnUse" x="0" y="0" width="119" height="33">
<path d="M119 0H0V33H119V0Z" fill="white"/>
</mask>
<g mask="url(#mask0_1701_2349)">
<path fill-rule="evenodd" clip-rule="evenodd" d="M23.1339 5.9721L26.2716 3.62819C23.4037 1.27464 19.8238 -0.00653493 16.1335 2.5067e-05V0.0015848C14.0155 -0.000365199 11.9181 0.421345 9.96131 1.24258C8.10591 2.02123 6.41171 3.1445 4.96541 4.5535C3.45231 6.0213 2.23541 7.7754 1.38431 9.7183C0.469706 11.8062 -0.00189428 14.0655 5.7183e-06 16.3499C5.7183e-06 16.3527 5.7183e-06 16.3555 5.7183e-06 16.3583C-0.00159428 18.5055 0.415206 20.6318 1.22631 22.6153C1.96401 24.4192 3.01461 26.0726 4.32681 27.4979C5.80861 29.1148 7.59921 30.4107 9.59081 31.3066C11.6228 32.2205 13.8192 32.6978 16.0416 32.7087C16.054 32.7088 16.0663 32.7088 16.0787 32.7089C16.0986 32.709 16.1186 32.709 16.1385 32.709C18.2573 32.7112 20.3555 32.2892 22.3128 31.4671C24.0228 30.7488 25.5958 29.7376 26.9636 28.4795L26.9661 28.4823C28.6402 26.9506 29.978 25.0795 30.8927 22.9903C31.8075 20.901 32.2787 18.6402 32.2759 16.3545C32.2779 15.3719 32.1931 14.391 32.0224 13.4237L28.5489 16.018V16.3545C28.5498 18.1118 28.1863 19.8497 27.4821 21.4555C26.8616 22.8701 25.9889 24.1545 24.9095 25.2448L24.908 25.2433C24.7653 25.3884 24.6193 25.5298 24.4701 25.6674L24.4607 25.676C23.4095 26.6434 22.2006 27.4213 20.8863 27.9741C19.3814 28.6071 17.768 28.9326 16.1386 28.9318C15.9448 28.9318 15.7519 28.9318 15.5593 28.9182L3.72831 16.3545M3.72831 16.3244C3.72861 16.1797 3.73141 16.0357 3.73651 15.8923C3.79391 14.2932 4.15281 12.7184 4.79531 11.2535C5.41541 9.83959 6.28761 8.5558 7.36621 7.4657L7.36781 7.4673C8.51771 6.2969 9.88451 5.36839 11.3897 4.7351C12.8949 4.10189 14.5087 3.7764 16.1385 3.7775C16.3463 3.7775 16.5528 3.78519 16.7581 3.79539L16.7582 3.7924C19.0375 3.9065 21.2454 4.659 23.1339 5.9721M15.5175 28.9162L15.5176 28.9151L15.5593 28.9182L15.5175 28.9162ZM15.5175 28.9162L3.72831 16.3545C3.72731 18.0058 4.04831 19.6411 4.67291 21.1663C5.29751 22.6915 6.21331 24.0766 7.36781 25.2419L7.36581 25.2439C8.44191 26.3374 9.70921 27.2216 11.1049 27.8502C12.5001 28.4785 13.9962 28.8393 15.5175 28.9162ZM30.8421 9.6067C30.3239 8.4506 29.6749 7.3593 28.9083 6.3549L16.1419 15.8934L9.99831 11.9904V16.6859L16.1419 20.5889L30.8421 9.6067Z" fill="white"/>
<mask id="mask1_1701_2349" style="mask-type:luminance" maskUnits="userSpaceOnUse" x="40" y="5" width="170" height="23">
<path d="M209.38 5.6897H40.9656V27.3104H209.38V5.6897Z" fill="white"/>
</mask>
<g mask="url(#mask1_1701_2349)">
<path d="M93.13 9.35269L97.747 5.94409H82.2935V26.4269H97.747V23.0183H86.7031V17.7716H96.124V14.363H86.7031V9.35269H93.13Z" fill="white"/>
<path d="M71.8952 13.9235H66.53V9.35137H75.0927L79.7074 5.93237H62.123V26.4152H71.3277C76.4883 26.4152 79.45 24.0716 79.45 19.9844C79.45 16.0743 76.7674 13.9235 71.8952 13.9235ZM71.1292 23.0055H66.53V17.33H71.1292C73.9204 17.33 75.2291 18.2811 75.2291 20.1678C75.2291 22.0544 73.8366 23.0055 71.1292 23.0055Z" fill="white"/>
<path d="M109.107 5.94116H100.695V26.4239H105.104V20.6215H109.107C114.474 20.6215 117.794 17.7918 117.794 13.2704C117.794 8.74906 114.474 5.94116 109.107 5.94116ZM109.014 17.2103H105.104V9.35236H109.014C111.837 9.35236 113.395 10.7486 113.395 13.2829C113.395 15.8172 111.837 17.2103 109.014 17.2103Z" fill="white"/>
<path d="M55.5064 21.5902C54.3674 22.2082 53.0913 22.5282 51.7962 22.5206C47.9198 22.5206 45.1077 19.7477 45.1077 15.9294C45.1077 12.111 47.9198 9.33206 51.7962 9.33206C53.1941 9.30826 54.563 9.73296 55.7029 10.5443L58.7871 8.26836L58.5785 8.11986C56.7794 6.53496 54.3755 5.69556 51.6239 5.69556C48.6394 5.69556 45.9332 6.70166 44.001 8.53196C43.024 9.47446 42.2514 10.6086 41.7311 11.8636C41.2109 13.1186 40.9542 14.4675 40.9773 15.8263C40.9566 17.1989 41.2121 18.5616 41.7285 19.8331C42.2449 21.1046 43.0116 22.2587 43.9829 23.2267C45.9241 25.1298 48.6243 26.1783 51.5876 26.1783C54.6839 26.1783 57.3902 25.0964 59.2226 23.1267L56.4619 21.066L55.5064 21.5902Z" fill="white"/>
</g>
</g>
</g>
<defs>
<clipPath id="clip0_1701_2349">
<rect width="119" height="33" fill="white"/>
</clipPath>
</defs>
</svg>
