<svg width="153" height="22" viewBox="0 0 153 22" fill="none" xmlns="http://www.w3.org/2000/svg">
<path d="M10.9341 4.42373C7.31724 6.12088 5.53662 8.48577 5.56444 10.2386C5.56444 10.9341 5.98177 12.1861 7.92933 12.5478C7.95715 12.5478 7.95715 12.6035 7.92933 12.6035C7.26159 12.6869 4.70195 12.8539 3.39431 10.7115C1.78062 8.1519 2.78222 4.72977 4.2568 2.75439H0V20.8388C1.83627 20.7554 4.47937 20.4215 7.12248 19.1695C10.7394 17.4723 12.52 15.1075 12.4922 13.3547C12.4922 12.6591 12.0748 11.4071 10.1273 11.0454C10.0995 11.0454 10.0995 10.9898 10.1273 10.9898C10.795 10.9063 13.3547 10.7394 14.6623 12.8817C16.2482 15.4691 15.2466 18.8913 13.772 20.8388H18.0566V2.75439C16.2203 2.86568 13.5772 3.19955 10.9341 4.42373Z" fill="#DF1D40"/>
<path d="M23.9272 12.0749C23.9272 8.79184 26.5147 6.12091 29.8534 6.12091C31.5784 6.12091 32.9695 6.76082 33.9432 7.70678L32.4687 9.84909C31.7731 9.237 30.9941 8.87531 30.0203 8.87531C28.3232 8.87531 26.9042 10.2386 26.9042 12.0749C26.9042 13.8833 28.3232 15.2466 30.0203 15.2466C31.0497 15.2466 31.8288 14.8571 32.4965 14.3006L33.9711 16.4151C32.9695 17.3333 31.5227 18.001 29.8812 18.001C26.4312 18.0288 23.9272 15.3301 23.9272 12.0749Z" fill="#19181C"/>
<path d="M46.3521 17.6671H43.3473V10.7672L38.1724 17.6671H35.418V6.39911H38.4228V12.8817L43.4029 6.39911H46.3521V17.6671Z" fill="#19181C"/>
<path d="M48.522 17.6671V6.39911H51.5268V10.5168H56.4235V6.39911H59.4283V17.6671H56.4235V13.2155H51.5268V17.6671H48.522Z" fill="#19181C"/>
<path d="M70.4181 6.39908H73.0056V17.6671H70.4181L70.2512 16.3316C69.4165 17.3054 68.248 17.9453 66.7456 17.9453C63.6851 17.9453 61.1533 15.33 61.1533 12.047C61.1533 8.76397 63.6851 6.14868 66.7456 6.14868C68.248 6.14868 69.4165 6.78859 70.2512 7.76237L70.4181 6.39908ZM70.1677 12.0748C70.1677 10.2664 68.8323 8.95872 67.1073 8.95872C65.4101 8.95872 64.1025 10.2664 64.1025 12.0748C64.1025 13.8833 65.3823 15.1631 67.1073 15.1631C68.8044 15.1353 70.1677 13.8833 70.1677 12.0748Z" fill="#19181C"/>
<path d="M87.0002 12.0192C87.0002 15.33 84.4684 17.9175 81.4079 17.9175C80.0447 17.9175 78.9596 17.3889 78.1527 16.5542V21.8404H75.1479V6.39912H77.6798L77.8745 7.79023C78.7092 6.78863 79.9055 6.14872 81.4079 6.14872C84.4962 6.12089 87.0002 8.764 87.0002 12.0192ZM84.0232 12.047C84.0232 10.2386 82.7434 8.93094 81.0184 8.93094C79.3213 8.93094 77.958 10.2386 77.958 12.047C77.958 13.8555 79.3213 15.1353 81.0184 15.1353C82.7434 15.1353 84.0232 13.8555 84.0232 12.047Z" fill="#19181C"/>
<path d="M97.5172 6.31565H100.105V17.5836H97.4894L97.3225 16.2482C96.4878 17.2219 95.3193 17.8619 93.8169 17.8619C90.7564 17.8619 88.2246 15.2466 88.2246 11.9636C88.2246 8.68053 90.7564 6.06525 93.8169 6.06525C95.3193 6.06525 96.4878 6.70516 97.3225 7.67893L97.5172 6.31565ZM97.2668 11.9636C97.2668 10.1551 95.9314 8.84747 94.2064 8.84747C92.5092 8.84747 91.2294 10.1551 91.2294 11.9636C91.2294 13.772 92.5092 15.0518 94.2064 15.0518C95.9035 15.0518 97.2668 13.772 97.2668 11.9636Z" fill="#19181C"/>
<path d="M117.187 12.1583C117.187 15.4135 114.6 18.001 111.205 18.001C107.811 18.001 105.251 15.4135 105.251 12.1583V8.15191C105.251 3.67253 107.366 1.47458 110.538 1.08507C112.819 0.779022 113.654 0.556444 114.767 0L115.24 1.44675C113.96 2.14231 112.708 2.36489 110.732 2.64311C108.507 2.97698 106.976 4.47937 106.976 8.20755V8.62488C107.895 7.09466 109.48 6.26 111.261 6.26C114.6 6.28782 117.187 8.87528 117.187 12.1583ZM115.379 12.1583C115.379 9.82124 113.57 8.01279 111.261 8.01279C108.924 8.01279 107.088 9.82124 107.088 12.1583C107.088 14.5232 108.924 16.3038 111.261 16.3038C113.542 16.276 115.379 14.4954 115.379 12.1583Z" fill="#19181C"/>
<path d="M127.12 6.56607H128.956V17.695H127.176V15.9978C126.369 17.1942 125.117 17.9732 123.475 17.9732C120.443 17.9732 118.245 15.4135 118.245 12.1583C118.245 8.90314 120.443 6.31567 123.447 6.31567C125.061 6.31567 126.285 7.03905 127.092 8.17976V6.56607H127.12ZM127.259 12.1305C127.259 9.79345 125.812 8.04065 123.642 8.04065C121.472 8.04065 120.053 9.76563 120.053 12.1305C120.053 14.4954 121.472 16.1926 123.642 16.1926C125.84 16.1926 127.259 14.4954 127.259 12.1305Z" fill="#19181C"/>
<path d="M130.876 17.6671V6.56604H132.712V11.1567H139.139V6.56604H140.975V17.6671H139.139V12.826H132.712V17.6671H130.876Z" fill="#19181C"/>
<path d="M142.867 17.6671V6.56604H144.676V11.1289H146.901L149.962 6.56604H152.076L148.348 11.9079L152.661 17.6671H150.518L146.901 12.9095H144.676V17.6671H142.867Z" fill="#19181C"/>
</svg>
