<?xml version="1.0" encoding="UTF-8"?>
<svg width="128px" height="22px" viewBox="0 0 128 22" version="1.1" xmlns="http://www.w3.org/2000/svg" xmlns:xlink="http://www.w3.org/1999/xlink">
    <!-- Generator: Sketch 63.1 (92452) - https://sketch.com -->
    <title>logo (1)</title>
    <desc>Created with Sketch.</desc>
    <g id="Page-1" stroke="none" stroke-width="1" fill="none" fill-rule="evenodd">
        <g id="logo-(1)" fill-rule="nonzero">
            <path d="M58.52,12.0511111 L53.3948148,6.31481481 L51.6837037,7.86296296 L56.9718519,13.7866667 L58.52,12.0511111 L58.52,12.0511111 Z M36.7644444,7.17037037 C34.8740741,7.09703704 33.1548148,7.78962963 31.8592593,8.96296296 C32.1037037,6.96666667 33.4725926,5.31259259 35.2977778,4.70962963 C37.5548148,3.96 40.4881481,5.06 43.4133333,2.36296296 L41.7592593,0.692592593 C39.6325926,2.72148148 37.0333333,1.84962963 34.9962963,2.4037037 C31.8918519,3.24296296 29.6022222,6.10296296 29.5696296,9.52518519 L29.5696296,9.52518519 L29.5696296,14.1533333 L29.5696296,14.1533333 C29.5696296,18.0155556 32.6659259,21.1444444 36.4955556,21.1444444 C40.4066667,21.1444444 43.56,17.8688889 43.4133333,13.8844444 C43.2748148,10.2585185 40.3496296,7.30888889 36.7644444,7.17037037 L36.7644444,7.17037037 Z M36.8703704,18.8548148 C34.0022222,19.082963 31.6066667,16.6711111 31.8348148,13.7703704 C32.0140741,11.4888889 33.8474074,9.63925926 36.1125926,9.46 C38.9888889,9.2237037 41.3762963,11.6355556 41.1481481,14.5362963 C40.9688889,16.8177778 39.1355556,18.6674074 36.8703704,18.8548148 L36.8703704,18.8548148 Z M25.4711111,20.8592593 L20.0933333,14.9355556 L17.5918519,14.9355556 C17.5918519,18.2762963 17.5918519,20.2481481 17.6162963,20.8592593 L15.3185185,20.8592593 C15.342963,19.4659259 15.342963,17.1437037 15.342963,13.8925926 C15.342963,10.6414815 15.342963,8.31925926 15.3185185,6.92592593 L17.6162963,6.92592593 C17.5918519,8.11555556 17.5918519,10.0548148 17.5918519,12.7844444 L20.1503704,12.7844444 L25.357037,6.92592593 L28.2333333,6.92592593 L22.22,13.6888889 L28.6896296,20.8592593 L25.4711111,20.8592593 L25.4711111,20.8592593 Z M11.5133333,16.8014815 C10.6414815,18.1785185 9.10962963,19.0422222 7.21111111,19.0422222 C4.22888889,19.0422222 2.26518519,16.8585185 2.26518519,13.8925926 C2.26518519,10.8044444 4.22074074,8.74296296 7.21111111,8.74296296 C8.8,8.74296296 10.1688889,9.40296296 11.0896296,10.4622222 L12.5725926,8.93851852 C11.2688889,7.51259259 9.38666667,6.64074074 7.21111111,6.64074074 C2.99851852,6.64074074 0,9.54148148 0,13.8925926 C0,18.0725926 3.00666667,21.1444444 7.21111111,21.1444444 C9.71259259,21.1444444 11.7577778,20.0851852 13.0288889,18.3577778 L11.5133333,16.8014815 Z" id="1" fill="#038C73"></path>
            <path d="M51.642963,19.7592593 L53.3540741,21.3155556 L60.0681481,13.7866667 L58.52,12.0511111 L51.642963,19.7592593 L51.642963,19.7592593 Z M96.417037,18.4962963 C96.1318519,18.9607407 95.7325926,19.197037 95.2681481,19.082963 C94.82,18.9688889 94.5266667,18.5451852 94.5266667,18.0807407 L94.5266667,11.2444444 C94.5266667,8.57185185 92.2533333,6.62444444 89.1733333,6.62444444 C87.2666667,6.62444444 85.6777778,7.26 84.7081481,8.27037037 L86.2481481,9.82666667 C86.7533333,9.17481481 87.7555556,8.74296296 89.0022222,8.74296296 C90.8681481,8.74296296 92.2207407,9.94074074 92.2207407,11.5377778 L92.2207407,12.5807407 C90.0940741,12.8088889 88.5948148,13.0125926 87.7066667,13.2162963 C84.9444444,13.7948148 83.2985185,15.2777778 83.2985185,17.5185185 C83.2985185,19.6940741 85.0259259,21.1444444 87.6740741,21.1444444 C89.5481481,21.1444444 91.0718519,20.7533333 92.2777778,19.3274074 C92.5385185,20.5740741 93.7444444,21.1444444 95.2681481,21.1444444 C96.302963,21.1444444 97.2074074,20.6881481 97.842963,19.9385185 L96.417037,18.4962963 L96.417037,18.4962963 Z M92.2207407,16.7525926 C91.2185185,18.1459259 89.6296296,18.9851852 87.9348148,18.9851852 C86.5822222,18.9851852 85.6940741,18.3822222 85.6940741,17.2496296 C85.6940741,16.3207407 86.4111111,15.6362963 87.6496296,15.2859259 C88.5948148,15.0251852 90.1185185,14.9111111 92.2207407,14.6503704 L92.2207407,16.7525926 L92.2207407,16.7525926 Z M108.997778,20.8511111 L108.997778,14.8133333 L101.745926,14.8133333 L101.745926,20.8511111 L99.4481481,20.8511111 L99.4481481,6.91777778 L101.745926,6.91777778 L101.745926,12.6622222 L108.997778,12.6622222 L108.997778,6.91777778 L111.295556,6.91777778 L111.295556,20.8511111 L108.997778,20.8511111 L108.997778,20.8511111 Z M74.9792593,7.17037037 C73.097037,7.09703704 71.3696296,7.78962963 70.0740741,8.96296296 C70.3185185,6.96666667 71.6874074,5.31259259 73.5125926,4.70962963 C75.7777778,3.96 78.702963,5.06 81.6281481,2.36296296 L79.9740741,0.692592593 C77.8474074,2.72148148 75.2481481,1.84962963 73.2111111,2.4037037 C70.1066667,3.24296296 67.817037,6.10296296 67.7844444,9.52518519 L67.7844444,9.52518519 L67.7844444,14.1533333 C67.7844444,18.0155556 70.8807407,21.1444444 74.7103704,21.1444444 C78.6214815,21.1444444 81.7748148,17.8688889 81.6281481,13.8844444 C81.4896296,10.2585185 78.5725926,7.30888889 74.9792593,7.17037037 L74.9792593,7.17037037 Z M75.0851852,18.8548148 C72.217037,19.082963 69.8214815,16.6711111 70.0496296,13.7703704 C70.2288889,11.4888889 72.0622222,9.63925926 74.3274074,9.46 C77.2037037,9.2237037 79.5911111,11.6355556 79.362963,14.5362963 C79.1837037,16.8177778 77.3503704,18.6674074 75.0851852,18.8548148 L75.0851852,18.8548148 Z M124.707407,20.8511111 L119.32963,14.9274074 L116.828148,14.9274074 C116.828148,18.2681481 116.828148,20.24 116.852593,20.8511111 L114.554815,20.8511111 C114.579259,19.4577778 114.579259,17.1355556 114.579259,13.8844444 C114.579259,10.6333333 114.579259,8.31111111 114.554815,6.91777778 L116.852593,6.91777778 C116.828148,8.10740741 116.828148,10.0548148 116.828148,12.7844444 L119.386667,12.7844444 L124.593333,6.91777778 L127.46963,6.91777778 L121.456296,13.6807407 L127.934074,20.8511111 L124.707407,20.8511111 Z" id="2" fill="#F65E64"></path>
        </g>
    </g>
</svg>