<svg xmlns="http://www.w3.org/2000/svg" width="58" height="45" viewBox="0 0 58 45">
  <g fill="none" transform="translate(.321 .5)">
    <path fill="#FFF" d="M21.1942169.434698795L21.1942169 14.5014458C21.1942169 18.7957591 17.7129881 22.276988 13.4186747 22.276988 9.12436134 22.276988 5.64313253 18.7957591 5.64313253 14.5014458L5.64313253.434698795 0 .434698795 0 14.4987952C0 21.9097246 6.0077453 27.9174699 13.4186747 27.9174699 20.8296041 27.9174699 26.8373494 21.9097246 26.8373494 14.4987952L26.8373494 14.4987952 26.8373494.434698795 21.1942169.434698795zM47.1383133 20.9106024L40.7768675 27.2720482 34.4154217 20.9106024 40.7768675 14.5491566 47.1383133 20.9106024zM40.7768675 16.7412048L36.6101205 20.9106024 40.7795181 25.0773494 44.9489157 20.9106024 40.7768675 16.7412048z"/>
    <polygon fill="#FFF" points="42.725 20.911 40.772 22.861 38.818 20.911 40.772 18.957"/>
    <path fill="#FFF" d="M19.786747,10.8674699 L13.4253012,17.2289157 L7.06385542,10.8674699 L13.4253012,4.5060241 L19.786747,10.8674699 Z M13.4253012,6.69807229 L9.24795181,10.8674699 L13.4173494,15.0342169 L17.586747,10.8674699 L13.4253012,6.69807229 Z"/>
    <polygon fill="#FFF" points="15.371 10.867 13.417 12.818 11.464 10.867 13.417 8.914"/>
    <path fill="#FFF" d="M56.940241,27.2481928 L50.3137349,6.85975904 L50.3137349,6.85975904 C48.9279115,2.75334725 45.070649,-0.0061886403 40.7367228,0.00818343428 C36.4027966,0.0226681299 32.5639933,2.80782555 31.2055422,6.92337349 L31.2055422,6.92337349 L24.5790361,27.2508434 L30.4792771,27.2508434 L36.5624096,8.59855422 L36.5624096,8.59855422 C37.1925722,6.79445538 38.9024249,5.59260683 40.8133288,5.61060027 C42.7242327,5.62859372 44.4111505,6.86242693 45.0072289,8.67807229 L45.0072289,8.67807229 L51.04,27.2508434 L56.9375904,27.2508434 L56.940241,27.2481928 Z"/>
    <path fill="#FFF" d="M16.0759036 33.6016867L17.2395181 33.6016867 17.2395181 35.173494C17.8756627 34.2351807 18.7954217 33.4346988 20.2320482 33.4346988 22.1060241 33.4346988 23.966747 34.9163855 23.966747 37.5166265 23.966747 40.0718072 22.1113253 41.5826506 20.2320482 41.5826506 18.7795181 41.5826506 17.846506 40.7874699 17.2395181 39.9207229L17.2395181 43.8356627 16.0759036 43.8356627 16.0759036 33.6016867zM22.7739759 37.5033735C22.7739759 35.6479518 21.5043373 34.4790361 20.0226506 34.4790361 18.5409639 34.4790361 17.1944578 35.7036145 17.1944578 37.5166265 17.1944578 39.3296386 18.5701205 40.5409639 20.0226506 40.5409639 21.5308434 40.5409639 22.7739759 39.4224096 22.7739759 37.5033735zM25.2231325 39.120241C25.2231325 37.4424096 26.5828916 36.5650602 28.5628916 36.5650602 29.3700521 36.5573841 30.1739162 36.6690319 30.9484337 36.8963855L30.9484337 36.6551807C30.9484337 35.2636145 30.1028916 34.5346988 28.6344578 34.5346988 27.8070893 34.5372566 26.9912083 34.7285354 26.2489157 35.0939759L25.9016867 34.1424096C26.785008 33.7049099 27.7574032 33.4772316 28.7431325 33.4771084 29.8457831 33.4771084 30.7098795 33.7792771 31.266506 34.3385542 31.8231325 34.8978313 32.0828916 35.64 32.0828916 36.6366265L32.0828916 41.4077108 30.9351807 41.4077108 30.9351807 40.2440964C30.2635611 41.1100921 29.2182974 41.6026763 28.1228916 41.5693976 26.673012 41.5826506 25.2231325 40.753012 25.2231325 39.120241zM30.966988 38.5450602L30.966988 37.8187952C30.2261328 37.5992885 29.4575091 37.4876997 28.6848193 37.4874699 27.2322892 37.4874699 26.4026506 38.1236145 26.4026506 39.0778313 26.4026506 40.0320482 27.3091566 40.6363855 28.366747 40.6363855 29.8033735 40.646988 30.966988 39.7908434 30.966988 38.5450602L30.966988 38.5450602zM33.193494 43.5016867L33.5857831 42.5792771C33.9620584 42.7797739 34.384198 42.8784559 34.8103614 42.8655422 35.5048193 42.8655422 35.9448193 42.5024096 36.4007229 41.399759L32.8489157 33.6149398 34.1344578 33.6149398 36.9759036 40.1301205 39.4860241 33.6149398 40.726506 33.6149398 37.4450602 41.6886747C36.779759 43.3055422 36.0243373 43.8966997 34.8448193 43.8966997 34.2705555 43.900311 33.7039494 43.7647985 33.193494 43.5016867L33.193494 43.5016867z"/>
  </g>
</svg>
