<svg width="94" height="58" viewBox="0 0 94 58" fill="none" xmlns="http://www.w3.org/2000/svg">
<path fill-rule="evenodd" clip-rule="evenodd" d="M22.8363 30.5395C25.744 30.5395 28.8987 31.5329 32.3906 34.6164C32.7404 34.9254 33.2061 34.5415 32.9011 34.158C29.4695 29.8401 26.2956 29.0176 23.1302 28.3225C19.2585 27.4723 17.267 25.3013 15.8791 22.9175C15.6028 22.443 15.4791 22.5267 15.4541 23.1362C15.4238 23.8819 15.4753 24.8686 15.6429 25.8393C15.4866 25.8465 15.3294 25.8443 15.1716 25.8443C9.63258 25.8443 5.14243 21.3694 5.14243 15.8492C5.14243 10.329 9.63258 5.85412 15.1716 5.85412C20.7105 5.85412 25.201 10.329 25.201 15.8492C25.201 16.2419 25.1817 16.6302 25.1375 17.0112C24.4048 16.8797 22.9635 16.8649 21.9523 16.9521C21.5718 16.9848 21.6252 17.1613 21.9128 17.2132C25.2282 17.8101 27.5061 19.8578 28.0267 23.5735C28.0387 23.6591 28.1508 23.6846 28.1953 23.6107C29.5595 21.342 30.3431 18.6867 30.3431 15.8492C30.3431 7.49878 23.5507 0.729126 15.1716 0.729126C6.79269 0.729126 0 7.49878 0 15.8492C0 24.2 6.79269 30.9703 15.1716 30.9703C17.3945 30.9703 19.5998 30.5395 22.8363 30.5395ZM24.2314 25.2404C24.9762 25.9058 25.203 26.6967 24.809 27.2547C24.5899 27.5606 24.2349 27.7291 23.8091 27.7291C23.3911 27.7291 22.9654 27.5657 22.6699 27.2934C21.9927 26.668 21.7937 25.6544 22.2358 25.0784C22.4086 24.8532 22.6894 24.7291 23.026 24.7291C23.4346 24.7291 23.8628 24.9109 24.2314 25.2404ZM26.9679 23.9647C27.0939 24.5053 26.8267 24.7291 26.5587 24.7291C26.2662 24.7291 25.8991 24.5099 25.4658 24.0777C25.0385 23.6508 24.882 23.161 25.0938 22.9136C25.2339 22.7498 25.5267 22.6787 25.8963 22.768C26.6116 22.941 26.8925 23.6418 26.9679 23.9647ZM48.6373 20.1482L46.946 17.9979C46.769 17.7723 46.9207 17.4305 47.1979 17.4305H50.7362C50.9048 16.9003 51 16.3339 51 15.7456C51 13.0518 49.1032 10.7291 46.5 10.7291C43.8968 10.7291 42 13.0518 42 15.7456C42 18.4394 43.8968 20.7291 46.5 20.7291C47.2889 20.7291 48.0115 20.5161 48.6373 20.1482ZM55.9166 23.7563C56.1065 23.971 55.9507 24.3165 55.6647 24.3165H51.6763C51.5142 24.3165 51.36 24.2427 51.2563 24.1151L50.5802 23.2841C49.2035 24.1966 47.564 24.7291 45.8045 24.7291C40.9496 24.7291 37 20.6919 37 15.7293C37 10.7667 40.9496 6.72913 45.8045 6.72913C50.6594 6.72913 54.6089 10.7667 54.6089 15.7293C54.6089 17.5182 54.0937 19.1853 53.2098 20.5878L55.9166 23.7563ZM93.5797 7.72913H90.4203C90.1882 7.72913 90 7.92538 90 8.16758V24.291C90 24.5329 90.1882 24.7291 90.4203 24.7291H93.5797C93.8118 24.7291 94 24.5329 94 24.291V8.16758C94 7.92538 93.8118 7.72913 93.5797 7.72913ZM87.5571 7.72913H83.8316C83.6368 7.72913 83.4649 7.85421 83.4081 8.03704L80.46 17.5645L77.22 8.02651C77.1597 7.8491 76.9907 7.72913 76.8 7.72913H74.2003C74.0097 7.72913 73.8403 7.8491 73.78 8.02651L70.54 17.5645L67.5919 8.03704C67.5351 7.85421 67.3632 7.72913 67.1684 7.72913H63.4429C63.3006 7.72913 63.1667 7.79645 63.0835 7.90973C63.0003 8.023 62.9777 8.16882 63.0229 8.30124L68.4945 24.4321C68.5548 24.6095 68.7242 24.7291 68.9148 24.7291H71.8716C72.0622 24.7291 72.2313 24.6095 72.2919 24.4324L75.5 15.0083L78.7081 24.4324C78.7687 24.6095 78.9378 24.7291 79.1284 24.7291H82.0852C82.2758 24.7291 82.4452 24.6095 82.5055 24.4321L87.9771 8.30124C88.0223 8.16882 87.9997 8.023 87.9165 7.90973C87.8333 7.79645 87.6994 7.72913 87.5571 7.72913ZM62 8.16758V24.291C62 24.5329 61.8118 24.7291 61.5797 24.7291H58.4203C58.1882 24.7291 58 24.5329 58 24.291V8.16758C58 7.92538 58.1882 7.72913 58.4203 7.72913H61.5797C61.8118 7.72913 62 7.92538 62 8.16758Z" fill="#E9832C"/>
<path d="M18.0032 50.7023C19.3705 50.7023 20.4789 49.5939 20.4789 48.2266C20.4789 46.8594 19.3705 45.751 18.0032 45.751C16.636 45.751 15.5276 46.8594 15.5276 48.2266C15.5276 49.5939 16.636 50.7023 18.0032 50.7023Z" fill="#00EEBC"/>
<path d="M16.5629 43.92L11.6428 39L5.98155 44.6613C4.03756 46.6053 4.03756 49.7575 5.98155 51.7014L7.38123 53.1011C7.38178 53.1011 16.6359 43.92 16.5629 43.92Z" fill="#00EEBC"/>
<path d="M9.58972 45.5507C9.54363 45.5052 9.49809 45.4596 9.45309 45.4146C9.4509 45.413 9.44925 45.4108 9.44761 45.4092C9.39823 45.3603 9.34939 45.3115 9.30166 45.2638C9.30111 45.2632 9.30001 45.2621 9.29946 45.2616C8.82101 44.7491 8.52802 44.0605 8.52802 43.3039C8.52802 42.511 8.84954 41.7939 9.36915 41.2743L5.98213 44.6613C5.91245 44.731 5.84551 44.8018 5.78131 44.8742C5.77473 44.8813 5.76815 44.889 5.76156 44.8961C5.76046 44.8972 5.75992 44.8978 5.75882 44.8989C5.75333 44.9049 5.74784 44.911 5.74236 44.917C5.74291 44.917 5.74291 44.917 5.74345 44.917C3.99535 46.8714 4.05955 49.8749 5.93659 51.7519L11.5979 57.4132L16.5179 52.4932C16.5668 52.4932 12.3243 48.2689 9.58972 45.5507Z" fill="url(#paint0_linear)"/>
<path fill-rule="evenodd" clip-rule="evenodd" d="M23.8557 44.9444C23.8557 42.551 25.3816 41.3505 27.2018 41.3505H29.053V52.7674H27.8137V48.3912H26.7835L24.8239 52.7674H23.391L25.5443 48.0891C24.5296 47.5779 23.8557 46.6562 23.8557 44.9444ZM27.1476 42.3884C26.1562 42.3884 25.188 43.039 25.188 44.9444C25.188 46.7801 26.071 47.3688 27.1476 47.3688H27.806V42.3884H27.1476ZM33.77 48.0968H31.9111V44.6965H30.6641V52.7132H31.9111V49.1192H33.77V52.7132H35.0016V44.6965H33.77V48.0968ZM36.2254 51.683C36.9612 49.9867 37.0386 47.5004 37.0386 45.3704V44.6888H40.7797V51.683H41.4149V54.2778H40.3073V52.7054H36.8527V54.2778H35.7296V51.683H36.2254ZM38.154 45.8351C38.154 47.5237 38.0765 49.9867 37.4027 51.6908H39.5482V45.688H38.154V45.8351ZM46.5502 51.2183C46.2326 51.4429 45.6672 51.7605 44.9701 51.7605C43.9787 51.7605 43.4674 50.8078 43.4674 48.9953H46.829V48.3137C46.829 45.595 45.946 44.5958 44.606 44.5958C42.8943 44.5958 42.1739 46.4703 42.1739 49.0495C42.1739 51.5126 43.1964 52.8371 44.8616 52.8371C45.6594 52.8371 46.3333 52.5815 46.8445 52.1865L46.5502 51.2183ZM44.5983 45.6028C45.3186 45.6028 45.5433 46.6019 45.5433 47.9729H43.4829C43.5604 46.54 43.8315 45.6028 44.5983 45.6028ZM52.8473 52.7054L50.5546 48.4609L50.5547 48.4606L52.553 44.6965H52.5489L52.553 44.6888H51.2904L49.3541 48.3989V44.6965V44.6888H48.107V44.6965V52.7054V52.7132H49.3541V52.7054V48.7165L51.4841 52.7132H52.8396L52.8354 52.7054H52.8473ZM57.1771 46.1682L57.1712 46.1632L57.1693 46.1759C56.8363 45.8894 56.356 45.6183 55.8448 45.6183C55.4276 45.6183 55.0648 45.8374 54.797 46.2782C54.4966 46.7789 54.319 47.5621 54.319 48.6313C54.319 50.6374 54.7992 51.7837 55.8061 51.7837C56.418 51.7837 56.875 51.5436 57.1693 51.288L57.4482 52.2175L57.4401 52.2242L57.4404 52.2252C57.0067 52.5893 56.4955 52.8294 55.7596 52.8294C54.0324 52.8294 52.9945 51.4429 52.9945 48.7087C52.9945 47.0266 53.4303 45.7526 54.2833 45.0924C54.7082 44.7599 55.2372 44.5804 55.8681 44.5804C56.5884 44.5804 57.0067 44.774 57.3552 44.9909L57.1771 46.1682ZM66.4485 52.7674L62.8933 46.6174L66.1619 41.3505H65.4028L62.08 46.6871V41.3505H61.2899V52.7674H62.08V46.7491L65.5577 52.7674H66.4485ZM71.3282 46.9195V51.3267C71.3282 51.8844 71.4056 52.5041 71.4986 52.7984H70.817C70.7473 52.597 70.6698 52.2872 70.6233 51.714C70.2361 52.4808 69.6629 52.961 68.8728 52.961C67.7885 52.961 67.0449 52.0935 67.0449 50.6219C67.0449 48.8946 67.9821 47.9961 69.7171 47.9961H70.5923V46.9892C70.5923 45.7577 70.1354 45.231 69.2601 45.231C68.5785 45.231 67.9589 45.5563 67.5793 46.114L67.3702 45.3936C67.6878 44.9831 68.3539 44.5804 69.2601 44.5804C70.5846 44.5804 71.3282 45.3162 71.3282 46.9195ZM69.0355 52.3569C69.7868 52.3569 70.3058 51.6365 70.5923 50.7768V48.5538H69.7326C68.4158 48.5538 67.7807 49.158 67.7807 50.5677C67.7807 51.6985 68.2764 52.3569 69.0355 52.3569ZM76.9514 52.078L76.7113 51.4507C76.7113 51.4507 76.1459 52.3182 75.0925 52.3182C73.83 52.3182 73.2646 51.0014 73.2646 48.7939C73.2646 46.5167 73.8455 45.2232 75.0925 45.2232C75.7896 45.2232 76.3086 45.6415 76.6649 46.1372L76.874 45.3394C76.5177 44.9057 75.9368 44.5881 75.0925 44.5881C73.4272 44.5881 72.5055 46.145 72.5055 48.8017C72.5055 51.4274 73.4427 52.9765 75.077 52.9765C76.355 52.9765 76.9514 52.078 76.9514 52.078ZM82.0712 51.4507L82.3114 52.078C82.3114 52.078 81.715 52.9765 80.4369 52.9765C78.8026 52.9765 77.8654 51.4274 77.8654 48.8017C77.8654 46.145 78.7871 44.5881 80.4524 44.5881C81.2889 44.5881 81.8776 44.9057 82.2339 45.3394L82.0248 46.1372C81.6685 45.6415 81.1495 45.2232 80.4602 45.2232C79.2131 45.2232 78.6322 46.5167 78.6322 48.7939C78.6322 51.0014 79.1976 52.3182 80.4602 52.3182C81.5058 52.3182 82.0712 51.4507 82.0712 51.4507ZM87.2917 51.3267V46.9195C87.2917 45.3162 86.5482 44.5804 85.2314 44.5804C84.3252 44.5804 83.6591 44.9831 83.3415 45.3936L83.5506 46.114C83.9302 45.5563 84.5498 45.231 85.2314 45.231C86.1067 45.231 86.5637 45.7577 86.5637 46.9892V47.9961H85.6884C83.9534 47.9961 83.0162 48.8946 83.0162 50.6219C83.0162 52.0935 83.7598 52.961 84.8442 52.961C85.6419 52.961 86.2151 52.4808 86.5946 51.714C86.6411 52.2872 86.7263 52.597 86.7883 52.7984H87.4699C87.3769 52.5041 87.2917 51.8844 87.2917 51.3267ZM86.5637 50.7768C86.2771 51.6365 85.7504 52.3569 85.0068 52.3569C84.2477 52.3569 83.752 51.6985 83.752 50.5677C83.752 49.158 84.3872 48.5538 85.7039 48.5538H86.5637V50.7768Z" fill="#333333"/>
<defs>
<linearGradient id="paint0_linear" x1="2.53123" y1="50.9284" x2="13.3949" y2="56.974" gradientUnits="userSpaceOnUse">
<stop stop-color="#00A9F9"/>
<stop offset="0.9899" stop-color="#0B89EA"/>
</linearGradient>
</defs>
</svg>
