<svg width="84" height="64" viewBox="0 0 84 64" fill="none" xmlns="http://www.w3.org/2000/svg">
<path fill-rule="evenodd" clip-rule="evenodd" d="M50.8184 11.6895C52.4752 11.6895 53.8184 13.0326 53.8184 14.6895V33.6873C53.8184 35.3442 52.4752 36.6873 50.8184 36.6873H22C20.3431 36.6873 19 35.3442 19 33.6873V14.6895C19 13.0326 20.3431 11.6895 22 11.6895H50.8184ZM51.071 23.2955H21.746L21.7469 32.7933C21.7469 33.3062 22.133 33.7288 22.6303 33.7866L22.7469 33.7933H50.0715C50.5843 33.7933 51.007 33.4073 51.0647 32.91L51.0715 32.7933L51.071 23.2955ZM40.3799 0.918514L67.7878 9.82388C69.3636 10.3359 70.226 12.0283 69.714 13.6041L63.8433 31.6721C63.3313 33.2479 61.6389 34.1102 60.0631 33.5982L57.3891 32.7289V29.6869L60.247 30.6151C60.7348 30.7735 61.256 30.537 61.4647 30.0819L61.5071 29.973L64.4417 20.9399L57.3891 18.6489V13.9539L65.8211 16.6944L66.8252 13.6055C66.9959 13.0802 66.7085 12.5161 66.1832 12.3454L40.196 3.90166C39.7083 3.74319 39.187 3.97972 38.9784 4.43487L38.936 4.5437L37.9314 7.63247L42.1751 9.01087H34.5951L36.5997 2.84463C37.1117 1.26887 38.8042 0.406518 40.3799 0.918514ZM30.3167 25.7479V31.3109H24.7537V25.7479H30.3167ZM50.0715 14.5835H22.7469C22.2341 14.5835 21.8114 14.9695 21.7537 15.4669L21.7469 15.5835L21.746 18.8315H51.071L51.0715 15.5835C51.0715 15.0312 50.6237 14.5835 50.0715 14.5835Z" fill="white"/>
<path fill-rule="evenodd" clip-rule="evenodd" d="M9.42631 54.2769C11.5381 52.1708 13.5034 50.2054 13.4696 50.2054L8.79559 45.5314L6.54867 47.7783C6.06437 48.2626 5.79407 48.9046 5.79407 49.5916C5.79407 50.2448 6.03622 50.8643 6.4811 51.343L6.76267 51.6245C7.51727 52.3791 8.47461 53.3308 9.42631 54.2769ZM14.8887 56.8955C16.2403 56.8955 17.3384 55.7974 17.3384 54.4458C17.3384 53.0943 16.2459 51.9962 14.8887 51.9962C13.5372 51.9962 12.4391 53.0943 12.4391 54.4458C12.4391 55.7974 13.5372 56.8955 14.8887 56.8955ZM13.2331 58.8721L8.55344 63.5518L2.95585 57.9542C1.0975 56.0958 1.03555 53.1281 2.76439 51.1965L2.78128 51.1796C2.78298 51.1779 2.78469 51.1757 2.78655 51.1733C2.79084 51.1677 2.79595 51.161 2.80381 51.1571C2.86575 51.0839 2.93332 51.0163 3.00089 50.9488L3.0009 50.9488L5.45055 48.4991C5.3154 48.8483 5.24782 49.2199 5.24782 49.6029C5.24782 50.3913 5.54629 51.1459 6.08127 51.7259L6.3741 52.0187C7.35959 52.9986 8.24935 53.8827 9.03774 54.6655C11.4142 57.025 12.929 58.5455 13.2331 58.8721ZM23.2806 47.5314C21.4811 47.5314 19.9727 48.7182 19.9727 51.0843C19.9727 52.7765 20.6388 53.6877 21.6419 54.1931L19.5132 58.818H20.9298L22.8671 54.4917H23.8855V58.818H25.1106V47.5314H23.2806ZM23.227 53.481C22.1626 53.481 21.2897 52.899 21.2897 51.0843C21.2897 49.2006 22.2469 48.5574 23.227 48.5574H23.8778V53.481H23.227ZM29.7738 54.2008H27.9361V50.8393H26.7033V58.7644H27.9361V55.2115H29.7738V58.7644H30.9913V50.8393H29.7738V54.2008ZM32.2012 57.746C32.9286 56.0691 33.0052 53.6112 33.0052 51.5054V50.8316H36.7036V57.746H37.3315V60.3112H36.2365V58.7568H32.8214V60.3112H31.7111V57.746H32.2012ZM34.1078 51.9649C34.1078 53.6341 34.0312 56.0691 33.3651 57.7537H35.4861V51.8194H34.1078V51.9649ZM42.4082 57.2866C42.0942 57.5087 41.5352 57.8226 40.8461 57.8226C39.866 57.8226 39.3606 56.8808 39.3606 55.089H42.6838V54.4152C42.6838 51.7275 41.8109 50.7397 40.4862 50.7397C38.794 50.7397 38.0819 52.5928 38.0819 55.1426C38.0819 57.5776 39.0926 58.8869 40.7389 58.8869C41.5276 58.8869 42.1938 58.6343 42.6991 58.2437L42.4082 57.2866ZM40.4786 51.7352C41.1907 51.7352 41.4127 52.7229 41.4127 54.0782H39.3759C39.4525 52.6617 39.7205 51.7352 40.4786 51.7352ZM48.6334 58.7568L46.3669 54.5606L48.3425 50.8393H48.3384L48.3425 50.8316H47.0943L45.1801 54.4994V50.8393L45.1801 50.8316H43.9473L43.9473 50.8393L43.9473 58.7568L43.9473 58.7644H45.1801L45.1801 58.7568L45.1801 54.8133L45.182 54.817L47.2858 58.7644H48.6258L48.6217 58.7568H48.6334ZM52.9138 52.2941L52.908 52.2892L52.9061 52.3018C52.5769 52.0185 52.1021 51.7505 51.5968 51.7505C51.1843 51.7505 50.8256 51.9672 50.5608 52.4029C50.2639 52.8979 50.0883 53.6721 50.0883 54.7291C50.0883 56.7123 50.563 57.8456 51.5585 57.8456C52.1634 57.8456 52.6152 57.6082 52.9061 57.3555L53.1818 58.2744L53.1738 58.281L53.1741 58.282C52.7453 58.6419 52.24 58.8793 51.5125 58.8793C49.805 58.8793 48.7789 57.5087 48.7789 54.8057C48.7789 53.1428 49.2097 51.8834 50.0529 51.2307C50.473 50.9019 50.996 50.7244 51.6197 50.7244C52.3318 50.7244 52.7453 50.9158 53.0899 51.1302L52.9138 52.2941ZM62.0794 58.818L58.5648 52.7382L61.7961 47.5314H61.0457L57.7608 52.8072V47.5314H56.9797V58.818H57.7608V52.8684L61.1988 58.818H62.0794ZM66.9034 53.0369V57.3938C66.9034 57.9451 66.98 58.5577 67.0719 58.8487H66.3981C66.3291 58.6496 66.2526 58.3433 66.2066 57.7767C65.8238 58.5347 65.2571 59.0095 64.4761 59.0095C63.4041 59.0095 62.669 58.1519 62.669 56.697C62.669 54.9894 63.5955 54.1012 65.3107 54.1012H66.176V53.1058C66.176 51.8883 65.7242 51.3676 64.859 51.3676C64.1851 51.3676 63.5726 51.6892 63.1974 52.2405L62.9906 51.5284C63.3046 51.1226 63.9631 50.7244 64.859 50.7244C66.1683 50.7244 66.9034 51.4518 66.9034 53.0369ZM64.6369 58.4122C65.3797 58.4122 65.8927 57.7001 66.176 56.8501V54.6525H65.326C64.0243 54.6525 63.3964 55.2498 63.3964 56.6434C63.3964 57.7613 63.8865 58.4122 64.6369 58.4122ZM72.4625 58.1365L72.2252 57.5163C72.2252 57.5163 71.6662 58.3739 70.6248 58.3739C69.3767 58.3739 68.8177 57.0722 68.8177 54.8899C68.8177 52.6387 69.392 51.36 70.6248 51.36C71.3139 51.36 71.827 51.7734 72.1792 52.2635L72.386 51.4748C72.0337 51.046 71.4594 50.7321 70.6248 50.7321C68.9785 50.7321 68.0673 52.2712 68.0673 54.8976C68.0673 57.4933 68.9938 59.0248 70.6095 59.0248C71.8729 59.0248 72.4625 58.1365 72.4625 58.1365ZM77.5239 57.5163L77.7613 58.1365C77.7613 58.1365 77.1717 59.0248 75.9082 59.0248C74.2926 59.0248 73.3661 57.4933 73.3661 54.8976C73.3661 52.2712 74.2773 50.7321 75.9236 50.7321C76.7505 50.7321 77.3325 51.046 77.6847 51.4748L77.478 52.2635C77.1257 51.7734 76.6127 51.36 75.9312 51.36C74.6984 51.36 74.1241 52.6387 74.1241 54.8899C74.1241 57.0722 74.6831 58.3739 75.9312 58.3739C76.9649 58.3739 77.5239 57.5163 77.5239 57.5163ZM82.6848 57.3938V53.0369C82.6848 51.4518 81.9498 50.7244 80.648 50.7244C79.7521 50.7244 79.0936 51.1226 78.7797 51.5284L78.9864 52.2405C79.3616 51.6892 79.9742 51.3676 80.648 51.3676C81.5133 51.3676 81.9651 51.8883 81.9651 53.1058V54.1012H81.0998C79.3846 54.1012 78.4581 54.9894 78.4581 56.697C78.4581 58.1519 79.1932 59.0095 80.2652 59.0095C81.0539 59.0095 81.6205 58.5347 81.9957 57.7767C82.0416 58.3433 82.1259 58.6496 82.1871 58.8487H82.861C82.7691 58.5577 82.6848 57.9451 82.6848 57.3938ZM81.9651 56.8501C81.6817 57.7001 81.1611 58.4122 80.426 58.4122C79.6756 58.4122 79.1855 57.7613 79.1855 56.6434C79.1855 55.2498 79.8134 54.6525 81.1151 54.6525H81.9651V56.8501Z" fill="white"/>
</svg>
