<svg width="127" height="52" viewBox="0 0 127 52" fill="none" xmlns="http://www.w3.org/2000/svg">
<path d="M36.0032 44.7023C37.3705 44.7023 38.4789 43.5939 38.4789 42.2266C38.4789 40.8594 37.3705 39.751 36.0032 39.751C34.636 39.751 33.5276 40.8594 33.5276 42.2266C33.5276 43.5939 34.636 44.7023 36.0032 44.7023Z" fill="#00EEBC"/>
<path d="M34.5629 37.92L29.6428 33L23.9815 38.6613C22.0376 40.6053 22.0376 43.7575 23.9815 45.7014L25.3812 47.1011C25.3818 47.1011 34.6359 37.92 34.5629 37.92Z" fill="#00EEBC"/>
<path d="M27.5897 39.5507C27.5436 39.5052 27.4981 39.4596 27.4531 39.4146C27.4509 39.413 27.4493 39.4108 27.4476 39.4092C27.3982 39.3603 27.3494 39.3115 27.3017 39.2638C27.3011 39.2632 27.3 39.2621 27.2995 39.2616C26.821 38.7491 26.528 38.0605 26.528 37.3039C26.528 36.511 26.8495 35.7939 27.3691 35.2743L23.9821 38.6613C23.9124 38.731 23.8455 38.8018 23.7813 38.8742C23.7747 38.8813 23.7681 38.889 23.7616 38.8961C23.7605 38.8972 23.7599 38.8978 23.7588 38.8989C23.7533 38.9049 23.7478 38.911 23.7424 38.917C23.7429 38.917 23.7429 38.917 23.7435 38.917C21.9954 40.8714 22.0595 43.8749 23.9366 45.7519L29.5979 51.4132L34.5179 46.4932C34.5668 46.4932 30.3243 42.2689 27.5897 39.5507Z" fill="url(#paint0_linear)"/>
<path fill-rule="evenodd" clip-rule="evenodd" d="M41.8557 38.9444C41.8557 36.551 43.3816 35.3505 45.2018 35.3505H47.053V46.7674H45.8137V42.3912H44.7835L42.8239 46.7674H41.391L43.5443 42.0891C42.5296 41.5779 41.8557 40.6562 41.8557 38.9444ZM45.1476 36.3884C44.1562 36.3884 43.188 37.039 43.188 38.9444C43.188 40.7801 44.071 41.3688 45.1476 41.3688H45.806V36.3884H45.1476ZM51.77 42.0968H49.9111V38.6965H48.6641V46.7132H49.9111V43.1192H51.77V46.7132H53.0016V38.6965H51.77V42.0968ZM54.2254 45.683C54.9612 43.9867 55.0386 41.5004 55.0386 39.3704V38.6888H58.7797V45.683H59.4149V48.2778H58.3073V46.7054H54.8527V48.2778H53.7296V45.683H54.2254ZM56.154 39.8351C56.154 41.5237 56.0765 43.9867 55.4027 45.6908H57.5482V39.688H56.154V39.8351ZM64.5502 45.2183C64.2326 45.4429 63.6672 45.7605 62.9701 45.7605C61.9787 45.7605 61.4674 44.8078 61.4674 42.9953H64.829V42.3137C64.829 39.595 63.946 38.5958 62.606 38.5958C60.8943 38.5958 60.1739 40.4703 60.1739 43.0495C60.1739 45.5126 61.1964 46.8371 62.8616 46.8371C63.6594 46.8371 64.3333 46.5815 64.8445 46.1865L64.5502 45.2183ZM62.5983 39.6028C63.3186 39.6028 63.5433 40.6019 63.5433 41.9729H61.4829C61.5604 40.54 61.8315 39.6028 62.5983 39.6028ZM70.8473 46.7054L68.5546 42.4609L68.5547 42.4606L70.553 38.6965H70.5489L70.553 38.6888H69.2904L67.3541 42.3989V38.6965V38.6888H66.107V38.6965V46.7054V46.7132H67.3541V46.7054V42.7165L69.4841 46.7132H70.8396L70.8354 46.7054H70.8473ZM75.1771 40.1682L75.1712 40.1632L75.1693 40.1759C74.8363 39.8894 74.356 39.6183 73.8448 39.6183C73.4276 39.6183 73.0648 39.8374 72.797 40.2782C72.4966 40.7789 72.319 41.5621 72.319 42.6313C72.319 44.6374 72.7992 45.7837 73.8061 45.7837C74.418 45.7837 74.875 45.5436 75.1693 45.288L75.4482 46.2175L75.4401 46.2242L75.4404 46.2252C75.0067 46.5893 74.4955 46.8294 73.7596 46.8294C72.0324 46.8294 70.9945 45.4429 70.9945 42.7087C70.9945 41.0266 71.4303 39.7526 72.2833 39.0924C72.7082 38.7599 73.2372 38.5804 73.8681 38.5804C74.5884 38.5804 75.0067 38.774 75.3552 38.9909L75.1771 40.1682ZM84.4485 46.7674L80.8933 40.6174L84.1619 35.3505H83.4028L80.08 40.6871V35.3505H79.2899V46.7674H80.08V40.7491L83.5577 46.7674H84.4485ZM89.3282 40.9195V45.3267C89.3282 45.8844 89.4056 46.5041 89.4986 46.7984H88.817C88.7473 46.597 88.6698 46.2872 88.6233 45.714C88.2361 46.4808 87.6629 46.961 86.8728 46.961C85.7885 46.961 85.0449 46.0935 85.0449 44.6219C85.0449 42.8946 85.9821 41.9961 87.7171 41.9961H88.5923V40.9892C88.5923 39.7577 88.1354 39.231 87.2601 39.231C86.5785 39.231 85.9589 39.5563 85.5793 40.114L85.3702 39.3936C85.6878 38.9831 86.3539 38.5804 87.2601 38.5804C88.5846 38.5804 89.3282 39.3162 89.3282 40.9195ZM87.0355 46.3569C87.7868 46.3569 88.3058 45.6365 88.5923 44.7768V42.5538H87.7326C86.4158 42.5538 85.7807 43.158 85.7807 44.5677C85.7807 45.6985 86.2764 46.3569 87.0355 46.3569ZM94.9514 46.078L94.7113 45.4507C94.7113 45.4507 94.1459 46.3182 93.0925 46.3182C91.83 46.3182 91.2646 45.0014 91.2646 42.7939C91.2646 40.5167 91.8455 39.2232 93.0925 39.2232C93.7896 39.2232 94.3086 39.6415 94.6649 40.1372L94.874 39.3394C94.5177 38.9057 93.9368 38.5881 93.0925 38.5881C91.4272 38.5881 90.5055 40.145 90.5055 42.8017C90.5055 45.4274 91.4427 46.9765 93.077 46.9765C94.355 46.9765 94.9514 46.078 94.9514 46.078ZM100.071 45.4507L100.311 46.078C100.311 46.078 99.715 46.9765 98.4369 46.9765C96.8026 46.9765 95.8654 45.4274 95.8654 42.8017C95.8654 40.145 96.7871 38.5881 98.4524 38.5881C99.2889 38.5881 99.8776 38.9057 100.234 39.3394L100.025 40.1372C99.6685 39.6415 99.1495 39.2232 98.4602 39.2232C97.2131 39.2232 96.6322 40.5167 96.6322 42.7939C96.6322 45.0014 97.1976 46.3182 98.4602 46.3182C99.5058 46.3182 100.071 45.4507 100.071 45.4507ZM105.292 45.3267V40.9195C105.292 39.3162 104.548 38.5804 103.231 38.5804C102.325 38.5804 101.659 38.9831 101.342 39.3936L101.551 40.114C101.93 39.5563 102.55 39.231 103.231 39.231C104.107 39.231 104.564 39.7577 104.564 40.9892V41.9961H103.688C101.953 41.9961 101.016 42.8946 101.016 44.6219C101.016 46.0935 101.76 46.961 102.844 46.961C103.642 46.961 104.215 46.4808 104.595 45.714C104.641 46.2872 104.726 46.597 104.788 46.7984H105.47C105.377 46.5041 105.292 45.8844 105.292 45.3267ZM104.564 44.7768C104.277 45.6365 103.75 46.3569 103.007 46.3569C102.248 46.3569 101.752 45.6985 101.752 44.5677C101.752 43.158 102.387 42.5538 103.704 42.5538H104.564V44.7768Z" fill="#333333"/>
<path fill-rule="evenodd" clip-rule="evenodd" d="M8.6092 4.31197H7.42936C5.6452 4.31197 3.91888 5.49181 3.91888 8.91637C3.91888 12.2255 5.5012 13.2904 7.42936 13.2904H8.6092V4.31197ZM6.76744 15.1321L3.25696 23.0168H0.695679L4.552 14.5852C2.73856 13.6643 1.52992 11.9953 1.52992 8.91637C1.52992 4.59973 4.26376 2.44141 7.51576 2.44141H10.8251V23.0168H8.6092V15.1321H6.76744Z" fill="#FF0000"/>
<path fill-rule="evenodd" clip-rule="evenodd" d="M53.878 15.4053C53.878 10.8583 55.6338 7.95215 59.0296 7.95215C60.3241 7.95215 61.0724 8.29751 61.7056 8.69999L61.389 10.83C60.7847 10.3116 59.9214 9.82271 59.0005 9.82271C57.3889 9.82271 56.2381 11.6354 56.2381 15.2901C56.2381 18.9158 57.1012 20.9882 58.9141 20.9882C60.0076 20.9882 60.8423 20.5565 61.3602 20.0961L61.8781 21.7649C61.1012 22.4265 60.1804 22.8583 58.8565 22.8583C55.7485 22.8583 53.878 20.3551 53.878 15.4053ZM47.3171 15.4337V22.6569H45.0724V8.15327H47.3171V14.8584L50.799 8.15327H53.0725L49.4754 14.9736L53.5902 22.6569H51.1444L47.3171 15.4337ZM36.7559 14.0815H40.4682C40.4682 11.6066 40.0652 9.79367 38.7704 9.79367C37.389 9.79367 36.8999 11.4914 36.7559 14.0815ZM39.2308 22.8583C36.238 22.8583 34.3964 20.4703 34.3964 16.0101C34.3964 11.3477 35.6915 7.95215 38.7704 7.95215C41.1877 7.95215 42.7705 9.76487 42.7705 14.6853V15.9233H36.7271C36.7271 19.2041 37.648 20.9306 39.4321 20.9306C40.6984 20.9306 41.7056 20.3551 42.2812 19.9524L42.7993 21.678C41.8784 22.398 40.6696 22.8583 39.2308 22.8583ZM29.6768 9.96623H27.1732V10.2257C27.1732 13.2758 27.0294 17.7357 25.8208 20.8152H29.6768V9.96623ZM33.0436 25.506H31.0295V22.6569H24.8135V25.506H22.7994V20.8152H23.6915C25.0148 17.7357 25.1588 13.247 25.1588 9.39071V8.15327H31.8928V20.8152H33.0436V25.506ZM21.5044 8.15327V22.6569H19.2884V16.1537H15.9503V22.6569H13.7056V8.15327H15.9503V14.3112H19.2884V8.15327H21.5044Z" fill="black"/>
<path fill-rule="evenodd" clip-rule="evenodd" d="M75.6169 1.90897H71.1568C71.0701 7.11745 70.9261 11.0887 70.696 14.053C70.437 17.1317 69.9765 19.1748 69.1998 20.1252H75.6169V1.90897ZM77.1421 21.3046H68.3365L68.1347 24.7291H67.0127V20.1252H67.617C68.6243 19.29 69.1132 16.9882 69.4009 14.053C69.6887 11.0028 69.7751 6.45553 69.8617 0.729126H77.0557V20.1252H78.4665V24.7291H77.3433L77.1421 21.3046Z" fill="black"/>
<path fill-rule="evenodd" clip-rule="evenodd" d="M81.2596 11.8945H86.5267C86.7564 8.03886 85.6056 6.31254 84.138 6.31254C82.6128 6.31254 81.3748 8.26902 81.2596 11.8945ZM84.4252 19.0892C86.3529 19.0892 87.3602 17.5357 87.3602 17.5357L87.7922 18.6281C87.7922 18.6281 86.6988 20.2685 84.3969 20.2685C81.3182 20.2685 79.9075 17.4771 79.9075 12.7297C79.9075 7.98126 81.6914 5.18982 84.138 5.18982C86.6412 5.18982 88.2523 7.80894 87.7922 12.9603H81.2313C81.2889 16.9311 82.3245 19.0892 84.4252 19.0892Z" fill="black"/>
<path fill-rule="evenodd" clip-rule="evenodd" d="M96.6575 12.9883H91.7078V19.981H90.3556V5.47729H91.7078V11.8942H96.6575V5.47729H98.0097V19.981H96.6575V12.9883Z" fill="black"/>
<path fill-rule="evenodd" clip-rule="evenodd" d="M102.559 11.9235V18.9161H103.422C105.465 18.9161 106.847 17.9095 106.847 15.4056C106.847 12.96 105.638 11.9235 103.566 11.9235H102.559ZM101.207 5.47729H102.559V10.8588H103.624C106.387 10.8588 108.171 12.3552 108.171 15.3771C108.171 18.4558 106.271 19.981 103.538 19.981H101.207V5.47729Z" fill="black"/>
<path fill-rule="evenodd" clip-rule="evenodd" d="M111.827 6.60001V19.981H110.504V5.47729H116.633V6.60001H111.827Z" fill="black"/>
<path fill-rule="evenodd" clip-rule="evenodd" d="M125.47 9.88033C125.47 9.13201 125.526 8.49889 125.585 7.89457H125.498C125.297 8.52769 125.038 9.13201 124.721 9.76513L120.002 19.981H118.851V5.47729H120.118V15.5491C120.118 16.326 120.059 16.9591 120.002 17.5923H120.088C120.29 16.9308 120.577 16.2977 120.865 15.6646L125.585 5.47729H126.764V19.981H125.47V9.88033Z" fill="black"/>
<defs>
<linearGradient id="paint0_linear" x1="20.5312" y1="44.9284" x2="31.3949" y2="50.974" gradientUnits="userSpaceOnUse">
<stop stop-color="#00A9F9"/>
<stop offset="0.9899" stop-color="#0B89EA"/>
</linearGradient>
</defs>
</svg>
