<svg width="106" height="58" viewBox="0 0 106 58" fill="none" xmlns="http://www.w3.org/2000/svg">
<path fill-rule="evenodd" clip-rule="evenodd" d="M19.4263 48.2769C21.5381 46.1708 23.5034 44.2054 23.4696 44.2054L18.7956 39.5314L16.5487 41.7783C16.0644 42.2626 15.7941 42.9046 15.7941 43.5916C15.7941 44.2448 16.0362 44.8643 16.4811 45.343L16.7627 45.6245C17.5173 46.3791 18.4746 47.3308 19.4263 48.2769ZM24.8887 50.8955C26.2403 50.8955 27.3384 49.7974 27.3384 48.4458C27.3384 47.0943 26.2459 45.9962 24.8887 45.9962C23.5372 45.9962 22.4391 47.0943 22.4391 48.4458C22.4391 49.7974 23.5372 50.8955 24.8887 50.8955ZM23.2331 52.8721L18.5534 57.5518L12.9559 51.9542C11.0975 50.0958 11.0356 47.1281 12.7644 45.1965L12.7813 45.1796C12.783 45.1779 12.7847 45.1757 12.7866 45.1733C12.7908 45.1677 12.796 45.161 12.8038 45.1571C12.8657 45.0839 12.9333 45.0163 13.0009 44.9488L13.0009 44.9488L15.4506 42.4991C15.3154 42.8483 15.2478 43.2199 15.2478 43.6029C15.2478 44.3913 15.5463 45.1459 16.0813 45.7259L16.3741 46.0187C17.3596 46.9986 18.2494 47.8827 19.0377 48.6655C21.4142 51.025 22.929 52.5455 23.2331 52.8721ZM33.2806 41.5314C31.4811 41.5314 29.9727 42.7182 29.9727 45.0843C29.9727 46.7765 30.6388 47.6877 31.6419 48.1931L29.5132 52.818H30.9298L32.8671 48.4917H33.8855V52.818H35.1106V41.5314H33.2806ZM33.227 47.481C32.1626 47.481 31.2897 46.899 31.2897 45.0843C31.2897 43.2006 32.2469 42.5574 33.227 42.5574H33.8778V47.481H33.227ZM39.7738 48.2008H37.9361V44.8393H36.7033V52.7644H37.9361V49.2115H39.7738V52.7644H40.9913V44.8393H39.7738V48.2008ZM42.2012 51.746C42.9286 50.0691 43.0052 47.6112 43.0052 45.5054V44.8316H46.7036V51.746H47.3315V54.3112H46.2365V52.7568H42.8214V54.3112H41.7111V51.746H42.2012ZM44.1078 45.9649C44.1078 47.6341 44.0312 50.0691 43.3651 51.7537H45.4861V45.8194H44.1078V45.9649ZM52.4082 51.2866C52.0942 51.5087 51.5352 51.8226 50.8461 51.8226C49.866 51.8226 49.3606 50.8808 49.3606 49.089H52.6838V48.4152C52.6838 45.7275 51.8109 44.7397 50.4862 44.7397C48.794 44.7397 48.0819 46.5928 48.0819 49.1426C48.0819 51.5776 49.0926 52.8869 50.7389 52.8869C51.5276 52.8869 52.1938 52.6343 52.6991 52.2437L52.4082 51.2866ZM50.4786 45.7352C51.1907 45.7352 51.4127 46.7229 51.4127 48.0782H49.3759C49.4525 46.6617 49.7205 45.7352 50.4786 45.7352ZM58.6334 52.7568L56.3669 48.5606L58.3425 44.8393H58.3384L58.3425 44.8316H57.0943L55.1801 48.4994V44.8393L55.1801 44.8316H53.9473L53.9473 44.8393L53.9473 52.7568L53.9473 52.7644H55.1801L55.1801 52.7568L55.1801 48.8133L55.182 48.817L57.2858 52.7644H58.6258L58.6217 52.7568H58.6334ZM62.9138 46.2941L62.908 46.2892L62.9061 46.3018C62.5769 46.0185 62.1021 45.7505 61.5968 45.7505C61.1843 45.7505 60.8256 45.9672 60.5608 46.4029C60.2639 46.8979 60.0883 47.6721 60.0883 48.7291C60.0883 50.7123 60.563 51.8456 61.5585 51.8456C62.1634 51.8456 62.6152 51.6082 62.9061 51.3555L63.1818 52.2744L63.1738 52.281L63.1741 52.282C62.7453 52.6419 62.24 52.8793 61.5125 52.8793C59.805 52.8793 58.7789 51.5087 58.7789 48.8057C58.7789 47.1428 59.2097 45.8834 60.0529 45.2307C60.473 44.9019 60.996 44.7244 61.6197 44.7244C62.3318 44.7244 62.7453 44.9158 63.0899 45.1302L62.9138 46.2941ZM72.0794 52.818L68.5648 46.7382L71.7961 41.5314H71.0457L67.7608 46.8072V41.5314H66.9797V52.818H67.7608V46.8684L71.1988 52.818H72.0794ZM76.9034 47.0369V51.3938C76.9034 51.9451 76.98 52.5577 77.0719 52.8487H76.3981C76.3291 52.6496 76.2526 52.3433 76.2066 51.7767C75.8238 52.5347 75.2571 53.0095 74.4761 53.0095C73.4041 53.0095 72.669 52.1519 72.669 50.697C72.669 48.9894 73.5955 48.1012 75.3107 48.1012H76.176V47.1058C76.176 45.8883 75.7242 45.3676 74.859 45.3676C74.1851 45.3676 73.5726 45.6892 73.1974 46.2405L72.9906 45.5284C73.3046 45.1226 73.9631 44.7244 74.859 44.7244C76.1683 44.7244 76.9034 45.4518 76.9034 47.0369ZM74.6369 52.4122C75.3797 52.4122 75.8927 51.7001 76.176 50.8501V48.6525H75.326C74.0243 48.6525 73.3964 49.2498 73.3964 50.6434C73.3964 51.7613 73.8865 52.4122 74.6369 52.4122ZM82.4625 52.1365L82.2252 51.5163C82.2252 51.5163 81.6662 52.3739 80.6248 52.3739C79.3767 52.3739 78.8177 51.0722 78.8177 48.8899C78.8177 46.6387 79.392 45.36 80.6248 45.36C81.3139 45.36 81.827 45.7734 82.1792 46.2635L82.386 45.4748C82.0337 45.046 81.4594 44.7321 80.6248 44.7321C78.9785 44.7321 78.0673 46.2712 78.0673 48.8976C78.0673 51.4933 78.9938 53.0248 80.6095 53.0248C81.8729 53.0248 82.4625 52.1365 82.4625 52.1365ZM87.5239 51.5163L87.7613 52.1365C87.7613 52.1365 87.1717 53.0248 85.9082 53.0248C84.2926 53.0248 83.3661 51.4933 83.3661 48.8976C83.3661 46.2712 84.2773 44.7321 85.9236 44.7321C86.7505 44.7321 87.3325 45.046 87.6847 45.4748L87.478 46.2635C87.1257 45.7734 86.6127 45.36 85.9312 45.36C84.6984 45.36 84.1241 46.6387 84.1241 48.8899C84.1241 51.0722 84.6831 52.3739 85.9312 52.3739C86.9649 52.3739 87.5239 51.5163 87.5239 51.5163ZM92.6848 51.3938V47.0369C92.6848 45.4518 91.9498 44.7244 90.648 44.7244C89.7521 44.7244 89.0936 45.1226 88.7797 45.5284L88.9864 46.2405C89.3616 45.6892 89.9742 45.3676 90.648 45.3676C91.5133 45.3676 91.9651 45.8883 91.9651 47.1058V48.1012H91.0998C89.3846 48.1012 88.4581 48.9894 88.4581 50.697C88.4581 52.1519 89.1932 53.0095 90.2652 53.0095C91.0539 53.0095 91.6205 52.5347 91.9957 51.7767C92.0416 52.3433 92.1259 52.6496 92.1871 52.8487H92.861C92.7691 52.5577 92.6848 51.9451 92.6848 51.3938ZM91.9651 50.8501C91.6817 51.7001 91.1611 52.4122 90.426 52.4122C89.6756 52.4122 89.1855 51.7613 89.1855 50.6434C89.1855 49.2498 89.8134 48.6525 91.1151 48.6525H91.9651V50.8501Z" fill="white"/>
<path fill-rule="evenodd" clip-rule="evenodd" d="M22.0899 0.000488281C22.5589 0.194249 23.0178 0.411522 23.4648 0.651449L23.9077 0.898896L9.95434 8.83015L3.46194 5.13826C3.68832 4.83417 3.92517 4.5381 4.17205 4.25057L4.54985 3.82574L9.95434 6.89296L22.0899 0.000488281ZM26.5183 2.69418C26.1839 2.39537 25.8375 2.11021 25.48 1.83942L9.95434 10.6691L2.54247 6.45078L2.33726 6.81822C2.13722 7.18846 1.95279 7.56698 1.78444 7.9528L9.95434 12.5993L26.8486 2.99752L26.5183 2.69418ZM54.3624 1.89557L54.608 3.24318L53.0164 3.51922C51.5105 3.79459 50.3195 4.07491 49.9616 4.42234C49.54 5.01036 49.2964 5.70715 49.2597 6.42972C50.0886 5.97608 51.017 5.73493 51.9619 5.72784C53.864 5.72784 55.0713 6.66134 55.0713 9.04072C55.0713 11.8412 53.4289 13.0906 51.239 13.0906C49.0632 13.0906 47.7226 11.743 47.7226 8.5845C47.7226 6.97719 48.0314 4.45041 48.9438 3.60114C49.744 2.85714 51.8777 2.35179 54.3624 1.89557ZM28.8057 5.26607C28.5609 4.92011 28.3014 4.58474 28.0278 4.26091L9.95434 14.5364L1.18784 9.55309L1.06216 9.97072C0.943241 10.3903 0.844635 10.8154 0.766715 11.2446L9.95434 16.4666L29.0455 5.61554L28.8057 5.26607ZM29.9018 7.09651C31.0304 9.26121 31.618 11.667 31.6144 14.1083C31.5001 22.6188 24.5685 29.4579 16.0572 29.4579C7.54593 29.4579 0.61433 22.6188 0.5 14.1083C0.5 13.7644 0.514038 13.4205 0.535094 13.0836L9.95434 18.4389L29.9018 7.09651ZM65.5644 19.4496V27.3107H64.1185V20.6288H61.8163L61.7555 21.3491C61.5469 23.664 61.2772 25.124 60.7986 25.9982C60.3082 26.7943 59.5152 27.3568 58.6017 27.5563L58.1455 26.2859C58.7778 26.0996 59.3213 25.6908 59.6756 25.1349C60.1108 24.3277 60.3915 22.1589 60.4757 19.4496H65.5644ZM73.3974 21.5061C73.3974 19.9129 72.3516 19.2461 70.4425 19.2461C69.485 19.2353 68.5351 19.4167 67.649 19.7795L67.9648 20.9165C68.6833 20.6708 69.4374 20.5452 70.1968 20.5445C71.3619 20.5445 71.9164 20.8323 71.9164 21.9132V22.7625L70.1828 22.7906C68.8001 22.8046 67.0173 23.2047 67.0173 25.191C67.0173 26.6509 67.9929 27.437 69.4668 27.437C70.4143 27.4158 71.3248 27.066 72.0427 26.4474C72.1901 27.1493 72.9903 27.3949 73.8045 27.3949C73.9056 27.3928 74.0065 27.3835 74.1063 27.3668L74.2256 26.2157C74.0339 26.2605 73.8323 26.2196 73.6732 26.1037C73.5142 25.9877 73.4135 25.8083 73.3974 25.6121V21.5061ZM43.778 16.8316C47.2102 16.8316 48.8035 19.0776 48.8035 22.0746C48.8035 25.2261 46.9505 27.3247 43.5394 27.3247C40.2195 27.3247 38.542 25.198 38.542 22.0466C38.542 18.846 40.5142 16.8316 43.778 16.8316ZM86.2278 22.7765V19.4496H84.6977V27.3107H86.2278V23.9697H89.9688V27.3107H91.4989V19.4496H89.9688V22.7765H86.2278ZM77.1173 19.4496V24.2575L77.0752 25.3103L77.7631 24.2435L81.1532 19.4496H82.6833V27.3107H81.1532V22.5309L81.1953 21.45L80.5145 22.5449L77.1173 27.3107H75.6785V19.4496H77.1173ZM51.8426 22.7765V19.4496H50.3827V27.3107H51.8426V23.9697H55.4503V27.3107H56.9804V19.4496H55.4503V22.7765H51.8426ZM71.9164 23.7241L70.2249 23.7943C69.1299 23.8294 68.5052 24.2856 68.5052 25.0927C68.5031 25.4357 68.6528 25.7621 68.9142 25.9841C69.1755 26.2062 69.5218 26.3013 69.8599 26.2438C70.5956 26.1969 71.3055 25.9546 71.9164 25.5419V23.7241ZM40.1142 22.0325C40.1142 19.8006 41.181 18.088 43.6867 18.088C46.0872 18.088 47.2172 19.8006 47.2172 22.0606C47.2172 24.3207 46.1925 26.0613 43.5885 26.0613C41.1389 26.0613 40.1142 24.2013 40.1142 22.0325ZM80.8794 15.9893L81.5181 16.7053C81.0116 17.5297 80.1134 18.032 79.1458 18.032C78.1782 18.032 77.28 17.5297 76.7734 16.7053L77.4262 15.9893C77.8367 16.5255 78.4706 16.8437 79.1458 16.8527C79.8251 16.8443 80.4634 16.5264 80.8794 15.9893ZM68.3719 4.93471C70.2459 4.93471 71.5234 6.23319 71.5234 8.84419C71.5234 12.0448 69.6072 13.0485 67.4735 13.0485C67.0589 13.058 66.6441 13.0439 66.2312 13.0063V15.8981H64.6519V5.16633H66.2312V5.74188C66.8249 5.22482 67.5846 4.93835 68.3719 4.93471ZM63.0587 8.87227C63.0587 6.31742 62.1252 4.92068 59.9072 4.92068C57.9139 4.92068 56.3206 6.0858 56.3206 9.18811C56.3206 12.2132 57.8437 13.1327 60.209 13.1327C61.1184 13.1443 62.0229 12.9995 62.8832 12.7045L62.6235 11.5394C61.9176 11.7643 61.1815 11.8803 60.4407 11.8833C59.0509 11.8833 57.8577 11.4692 57.8437 9.39868H63.0587V8.87227ZM104.75 5.16633L101.522 8.83015L103.094 10.5498C103.598 11.2054 104.284 11.6984 105.066 11.9676L104.807 13.1116C103.73 13.0558 102.74 12.5002 102.132 11.6096L99.8794 8.94245L103.038 5.16633H104.75ZM87.5192 7.17371C87.5192 5.58044 86.4734 4.92068 84.5713 4.92068C83.6163 4.91133 82.6689 5.09269 81.7849 5.4541L82.1077 6.59115C82.8201 6.33961 83.5702 6.21143 84.3257 6.21214C85.4908 6.21214 86.0383 6.49991 86.0383 7.5808V8.42306L84.1728 8.4539C82.8195 8.49406 81.1602 8.93824 81.1602 10.8516C81.1602 12.2974 82.1358 13.0906 83.6027 13.0906C84.5481 13.0696 85.4565 12.7196 86.1716 12.1009C86.319 12.8028 87.1121 13.0485 87.9263 13.0485C88.0275 13.0464 88.1283 13.037 88.2281 13.0204L88.3475 11.8693C88.1558 11.9141 87.9541 11.8731 87.7951 11.7572C87.636 11.6413 87.5353 11.4618 87.5192 11.2657V7.17371ZM79.7213 3.24318L79.4757 1.89557C76.991 2.35179 74.8573 2.85714 74.0572 3.60114C73.1447 4.45041 72.8359 6.97719 72.8359 8.5845C72.8359 11.743 74.1624 13.0906 76.3523 13.0906C78.5422 13.0906 80.1846 11.8412 80.1846 9.04072C80.1846 6.66134 78.9773 5.72784 77.0752 5.72784C76.1303 5.73493 75.2019 5.97608 74.373 6.42972C74.4097 5.70715 74.6533 5.01036 75.0749 4.42234C75.4328 4.07491 76.6238 3.79459 78.1297 3.51922L79.7213 3.24318ZM46.7961 3.19405L46.3469 4.36619C45.5214 4.06684 44.6491 3.9171 43.771 3.924C41.7145 3.90997 40.0931 5.02596 40.0931 7.74224C40.0931 10.5147 41.7706 11.7149 44.0517 11.7149C44.8636 11.7246 45.6717 11.6037 46.4451 11.3569L46.8101 12.5642C45.956 12.8879 45.0528 13.0596 44.1412 13.0722L43.799 13.0695C40.3037 13.0695 38.4928 10.999 38.4928 7.88261C38.4928 4.76205 40.281 2.70905 43.493 2.60835L43.7429 2.60447C44.7924 2.56329 45.8373 2.76506 46.7961 3.19405ZM91.169 8.4371V5.16633H89.6459V13.0274H91.169V9.6303H94.903V13.0274H96.4261V5.16633H94.903V8.4371H91.169ZM99.8232 5.16633V13.0274H98.3001V5.16633H99.8232ZM67.9508 6.21214C67.3335 6.24302 66.7375 6.44737 66.2312 6.80172V11.771C66.631 11.8532 67.0374 11.9002 67.4454 11.9114C69.2633 11.9114 69.9862 10.6621 69.9862 8.91438C69.9862 7.48956 69.4809 6.21214 67.9508 6.21214ZM74.3309 7.56677C75.048 7.15394 75.8552 6.92263 76.6822 6.89296C78.121 6.89296 78.6615 7.85454 78.6615 9.09687C78.6615 10.4515 78.1842 11.8833 76.4646 11.8833C75.0117 11.8833 74.3028 10.7954 74.3028 8.45114C74.3028 8.3248 74.3063 8.16688 74.3116 8.00895L74.3309 7.56677ZM51.5689 6.89296C50.7419 6.92263 49.9347 7.15394 49.2176 7.56677L49.1983 8.00895C49.193 8.16688 49.1895 8.3248 49.1895 8.45114C49.1895 10.7954 49.8984 11.8833 51.3513 11.8833C53.0709 11.8833 53.5482 10.4515 53.5482 9.09687C53.5482 7.85454 53.0077 6.89296 51.5689 6.89296ZM86.0383 9.38464V11.1955C85.4257 11.582 84.7199 11.7955 83.9958 11.8131C83.2237 11.8131 82.6412 11.5394 82.6412 10.7533C82.6412 9.94615 83.2658 9.48992 84.3537 9.46185L86.0383 9.38464ZM57.8858 8.35287C57.9911 6.81575 58.7702 6.05772 59.816 6.05772C60.9811 6.05772 61.4865 6.96315 61.4865 8.35287H57.8858Z" fill="white"/>
</svg>
