<svg width="119" height="62" viewBox="0 0 119 62" fill="none" xmlns="http://www.w3.org/2000/svg">
    <g clip-path="url(#clip0_1701_2082)">
        <g clip-path="url(#clip1_1701_2082)">
            <path d="M58.6652 49.1081H56.1444L54.3605 52.0993H53.4423L53.413 45.6257H51.0266V57.3173H53.413L53.4423 54.1084H54.3547L56.7234 57.3173H59.3671L56.2788 53.0648L58.6652 49.1081Z" fill="white"/>
            <path d="M76.7262 52.9588C76.2414 52.6594 75.7158 52.4247 75.1644 52.2612L74.638 52.0715L74.4977 52.0212C74.1702 51.904 73.8251 51.7813 73.8134 51.4632C73.8104 51.3689 73.8322 51.2755 73.8774 51.1916C73.9223 51.1076 73.9889 51.036 74.0707 50.9832C74.2436 50.8696 74.4461 50.8039 74.6556 50.7935C75.1125 50.7634 75.5656 50.8922 75.9306 51.1562L75.9949 51.1953L77.27 49.7945L77.2057 49.7443C77.0469 49.6093 76.8747 49.4896 76.691 49.3872C76.362 49.2076 76.0046 49.0813 75.6325 49.0132C75.0964 48.9044 74.5423 48.9044 74.0065 49.0132C73.4882 49.0787 72.9967 49.2709 72.5794 49.5713C72.3124 49.7705 72.0893 50.018 71.9227 50.2995C71.7563 50.581 71.6495 50.8911 71.6084 51.212C71.5353 51.7912 71.6894 52.3757 72.0412 52.8527C72.5084 53.3465 73.1194 53.6962 73.7958 53.8573L73.9011 53.8908L74.1409 53.9689C75.0066 54.2479 75.2522 54.3595 75.3925 54.527C75.4579 54.6112 75.4946 54.7125 75.4978 54.8171C75.4978 55.2134 74.989 55.3752 74.6439 55.4757C74.4026 55.5189 74.1547 55.5145 73.9152 55.4627C73.6758 55.4108 73.4501 55.3127 73.252 55.1743C72.9313 54.9697 72.6569 54.706 72.4447 54.3986C72.3103 54.5326 70.9883 55.777 71.0118 55.7994L71.0529 55.8552C71.6897 56.616 72.5821 57.1442 73.5795 57.3508C73.8072 57.3928 74.0379 57.4208 74.2697 57.4345H74.5095C75.2974 57.4502 76.0692 57.2211 76.7086 56.7816C77.1411 56.4897 77.4727 56.0818 77.662 55.6096C77.7771 55.2926 77.8176 54.9555 77.7812 54.6218C77.7448 54.2882 77.6324 53.9663 77.4513 53.6787C77.2664 53.3919 77.0191 53.1464 76.7262 52.9588Z" fill="white"/>
            <path d="M84.435 52.9586C83.9523 52.6593 83.4291 52.4246 82.8794 52.2611L82.3471 52.0713L82.2127 52.0211C81.8793 51.9039 81.5401 51.7811 81.5225 51.463C81.524 51.369 81.5486 51.2766 81.5944 51.1932C81.6402 51.1099 81.7056 51.0379 81.7857 50.9831C81.9586 50.8694 82.1611 50.8038 82.3706 50.7933C82.8275 50.7643 83.28 50.893 83.6456 51.1561L83.704 51.1951L84.9791 49.7944L84.9207 49.7442C84.7608 49.6078 84.5865 49.4881 84.4001 49.387C84.0732 49.2077 83.7175 49.0813 83.3472 49.0131C82.8093 48.9042 82.2535 48.9042 81.7156 49.0131C81.1979 49.0805 80.7067 49.2725 80.2882 49.5712C80.0197 49.7685 79.7947 50.0146 79.6259 50.2952C79.4575 50.5758 79.3486 50.8854 79.3058 51.2063C79.2292 51.7857 79.3835 52.3713 79.7386 52.847C80.2058 53.3408 80.8167 53.6905 81.4932 53.8516L81.5926 53.8851L81.8324 53.9632C82.7039 54.2422 82.9496 54.3538 83.0898 54.5212C83.1573 54.604 83.1925 54.7066 83.1893 54.8114C83.1893 55.2077 82.6863 55.3695 82.3412 55.47C82.0991 55.5133 81.85 55.5089 81.6097 55.4571C81.3693 55.4053 81.1425 55.3071 80.9435 55.1686C80.6254 54.961 80.3516 54.6978 80.1362 54.3929C80.0077 54.5268 78.6857 55.7713 78.7033 55.7936L78.75 55.8494C79.387 56.6103 80.2794 57.1385 81.2769 57.3451C81.5046 57.3875 81.7353 57.4154 81.9671 57.4288H82.2068C82.9948 57.4445 83.7665 57.2153 84.406 56.7758C84.8385 56.484 85.1701 56.0761 85.3594 55.6039C85.4741 55.2869 85.5149 54.9498 85.4785 54.6161C85.4422 54.2825 85.3298 53.9606 85.1487 53.673C84.9662 53.3896 84.7229 53.1462 84.435 52.9586Z" fill="white"/>
            <path d="M66.5025 49.108V49.9116H66.3974C65.7442 49.2876 64.8591 48.9347 63.935 48.9295C63.3684 48.9188 62.8055 49.0221 62.2838 49.2326C61.7617 49.4432 61.2919 49.7564 60.9051 50.1516C60.1251 50.9851 59.707 52.0705 59.7354 53.1875C59.7052 54.3233 60.1225 55.4285 60.9051 56.2848C61.2828 56.6803 61.745 56.9937 62.2609 57.2036C62.7765 57.4135 63.3335 57.5151 63.894 57.5014C64.8195 57.4848 65.7095 57.1589 66.4088 56.5806H66.5025V57.3005H68.9824V49.108H66.5025ZM66.6254 53.2322C66.6504 53.8924 66.4191 54.5381 65.976 55.0459C65.7638 55.2728 65.5018 55.4523 65.2086 55.5719C64.9158 55.6915 64.5985 55.7481 64.2801 55.7379C63.9711 55.7428 63.6648 55.6812 63.3842 55.5575C63.1037 55.4338 62.856 55.2513 62.66 55.0236C62.2221 54.5053 61.9977 53.8525 62.0282 53.1875C62.0082 52.5426 62.2371 51.913 62.6714 51.4184C62.8716 51.1942 63.121 51.0148 63.4021 50.8932C63.6832 50.7717 63.989 50.7109 64.2975 50.7153C64.6141 50.7059 64.9287 50.7636 65.2189 50.8842C65.5091 51.0048 65.7679 51.1854 65.976 51.4129C66.4191 51.9228 66.6501 52.5703 66.6254 53.2322Z" fill="white"/>
            <path d="M93.4773 49.108V49.9116H93.372C92.7202 49.2889 91.8378 48.936 90.9155 48.9294C90.3482 48.9193 89.7848 49.0229 89.2619 49.2334C88.7392 49.4439 88.2682 49.7567 87.88 50.1516C87.1 50.985 86.6818 52.0704 86.7103 53.1875C86.68 54.3232 87.0973 55.4285 87.88 56.2847C88.2577 56.6803 88.7198 56.9936 89.2354 57.2035C89.7513 57.4135 90.3083 57.515 90.8688 57.5013C91.7944 57.4847 92.6841 57.1589 93.3837 56.5805H93.4773V57.3004H95.9573V49.108H93.4773ZM93.6003 53.2321C93.6279 53.8927 93.3963 54.5394 92.9509 55.0458C92.7387 55.2727 92.4766 55.4523 92.1835 55.5718C91.8903 55.6914 91.5734 55.7481 91.2547 55.7378C90.9457 55.7428 90.6396 55.6811 90.3591 55.5574C90.0785 55.4338 89.8309 55.2512 89.6345 55.0235C89.197 54.5052 88.9722 53.8524 89.003 53.1875C88.9831 52.5425 89.212 51.913 89.6463 51.4184C89.8464 51.1941 90.0958 51.0147 90.377 50.8932C90.6581 50.7716 90.9639 50.7108 91.2723 50.7152C91.5889 50.7058 91.9035 50.7635 92.1937 50.8841C92.484 51.0047 92.7425 51.1853 92.9509 51.4128C93.3963 51.9215 93.6276 52.5698 93.6003 53.2321Z" fill="white"/>
            <path d="M34.7367 44.2537C29.5883 44.2537 25.4929 48.2171 25.4929 53.0737C25.4929 57.9861 29.6468 61.8937 34.7367 61.8937C39.8266 61.8937 43.9805 57.9302 43.9805 53.0737C43.9805 48.2171 39.8266 44.2537 34.7367 44.2537ZM34.7367 56.3114C32.8646 56.3114 31.2849 54.8042 31.2849 53.0178C31.2849 51.2315 32.8646 49.7243 34.7367 49.7243C36.6089 49.7243 38.1885 51.2315 38.1885 53.0178C38.13 54.86 36.6089 56.3114 34.7367 56.3114Z" fill="white"/>
            <path d="M25.4342 46.7656V59.6049H22.1579L17.9456 46.7656H25.4342Z" fill="white"/>
        </g>
    </g>
    <g clip-path="url(#clip2_1701_2082)">
        <mask id="mask0_1701_2082" style="mask-type:luminance" maskUnits="userSpaceOnUse" x="0" y="0" width="119" height="33">
            <path d="M119 0H0V33H119V0Z" fill="white"/>
        </mask>
        <g mask="url(#mask0_1701_2082)">
            <path fill-rule="evenodd" clip-rule="evenodd" d="M23.1339 5.9721L26.2716 3.62819C23.4037 1.27464 19.8238 -0.00653493 16.1335 2.5067e-05V0.0015848C14.0155 -0.000365199 11.9181 0.421345 9.96131 1.24258C8.10591 2.02123 6.41171 3.1445 4.96541 4.5535C3.45231 6.0213 2.23541 7.7754 1.38431 9.7183C0.469706 11.8062 -0.00189428 14.0655 5.7183e-06 16.3499C5.7183e-06 16.3527 5.7183e-06 16.3555 5.7183e-06 16.3583C-0.00159428 18.5055 0.415206 20.6318 1.22631 22.6153C1.96401 24.4192 3.01461 26.0726 4.32681 27.4979C5.80861 29.1148 7.59921 30.4107 9.59081 31.3066C11.6228 32.2205 13.8192 32.6978 16.0416 32.7087C16.054 32.7088 16.0663 32.7088 16.0787 32.7089C16.0986 32.709 16.1186 32.709 16.1385 32.709C18.2573 32.7112 20.3555 32.2892 22.3128 31.4671C24.0228 30.7488 25.5958 29.7376 26.9636 28.4795L26.9661 28.4823C28.6402 26.9506 29.978 25.0795 30.8927 22.9903C31.8075 20.901 32.2787 18.6402 32.2759 16.3545C32.2779 15.3719 32.1931 14.391 32.0224 13.4237L28.5489 16.018V16.3545C28.5498 18.1118 28.1863 19.8497 27.4821 21.4555C26.8616 22.8701 25.9889 24.1545 24.9095 25.2448L24.908 25.2433C24.7653 25.3884 24.6193 25.5298 24.4701 25.6674L24.4607 25.676C23.4095 26.6434 22.2006 27.4213 20.8863 27.9741C19.3814 28.6071 17.768 28.9326 16.1386 28.9318C15.9448 28.9318 15.7519 28.9318 15.5593 28.9182L3.72831 16.3545M3.72831 16.3244C3.72861 16.1797 3.73141 16.0357 3.73651 15.8923C3.79391 14.2932 4.15281 12.7184 4.79531 11.2535C5.41541 9.83959 6.28761 8.5558 7.36621 7.4657L7.36781 7.4673C8.51771 6.2969 9.88451 5.36839 11.3897 4.7351C12.8949 4.10189 14.5087 3.7764 16.1385 3.7775C16.3463 3.7775 16.5528 3.78519 16.7581 3.79539L16.7582 3.7924C19.0375 3.9065 21.2454 4.659 23.1339 5.9721M15.5175 28.9162L15.5176 28.9151L15.5593 28.9182L15.5175 28.9162ZM15.5175 28.9162L3.72831 16.3545C3.72731 18.0058 4.04831 19.6411 4.67291 21.1663C5.29751 22.6915 6.21331 24.0766 7.36781 25.2419L7.36581 25.2439C8.44191 26.3374 9.70921 27.2216 11.1049 27.8502C12.5001 28.4785 13.9962 28.8393 15.5175 28.9162ZM30.8421 9.6067C30.3239 8.4506 29.6749 7.3593 28.9083 6.3549L16.1419 15.8934L9.99831 11.9904V16.6859L16.1419 20.5889L30.8421 9.6067Z" fill="white"/>
            <mask id="mask1_1701_2082" style="mask-type:luminance" maskUnits="userSpaceOnUse" x="40" y="5" width="170" height="23">
                <path d="M209.38 5.6897H40.9656V27.3104H209.38V5.6897Z" fill="white"/>
            </mask>
            <g mask="url(#mask1_1701_2082)">
                <path d="M93.13 9.35269L97.747 5.94409H82.2935V26.4269H97.747V23.0183H86.7031V17.7716H96.124V14.363H86.7031V9.35269H93.13Z" fill="white"/>
                <path d="M71.8952 13.9235H66.53V9.35137H75.0927L79.7074 5.93237H62.123V26.4152H71.3277C76.4883 26.4152 79.45 24.0716 79.45 19.9844C79.45 16.0743 76.7674 13.9235 71.8952 13.9235ZM71.1292 23.0055H66.53V17.33H71.1292C73.9204 17.33 75.2291 18.2811 75.2291 20.1678C75.2291 22.0544 73.8366 23.0055 71.1292 23.0055Z" fill="white"/>
                <path d="M109.107 5.94116H100.695V26.4239H105.104V20.6215H109.107C114.474 20.6215 117.794 17.7918 117.794 13.2704C117.794 8.74906 114.474 5.94116 109.107 5.94116ZM109.014 17.2103H105.104V9.35236H109.014C111.837 9.35236 113.395 10.7486 113.395 13.2829C113.395 15.8172 111.837 17.2103 109.014 17.2103Z" fill="white"/>
                <path d="M55.5064 21.5902C54.3674 22.2082 53.0913 22.5282 51.7962 22.5206C47.9198 22.5206 45.1077 19.7477 45.1077 15.9294C45.1077 12.111 47.9198 9.33206 51.7962 9.33206C53.1941 9.30826 54.563 9.73296 55.7029 10.5443L58.7871 8.26836L58.5785 8.11986C56.7794 6.53496 54.3755 5.69556 51.6239 5.69556C48.6394 5.69556 45.9332 6.70166 44.001 8.53196C43.024 9.47446 42.2514 10.6086 41.7311 11.8636C41.2109 13.1186 40.9542 14.4675 40.9773 15.8263C40.9566 17.1989 41.2121 18.5616 41.7285 19.8331C42.2449 21.1046 43.0116 22.2587 43.9829 23.2267C45.9241 25.1298 48.6243 26.1783 51.5876 26.1783C54.6839 26.1783 57.3902 25.0964 59.2226 23.1267L56.4619 21.066L55.5064 21.5902Z" fill="white"/>
            </g>
        </g>
    </g>
    <defs>
        <clipPath id="clip0_1701_2082">
            <rect width="88" height="18" fill="white" transform="translate(15 43.8936)"/>
        </clipPath>
        <clipPath id="clip1_1701_2082">
            <rect width="78.0586" height="17.64" fill="white" transform="translate(17.9456 44.2537)"/>
        </clipPath>
        <clipPath id="clip2_1701_2082">
            <rect width="119" height="33" fill="white"/>
        </clipPath>
    </defs>
</svg>
