<svg xmlns="http://www.w3.org/2000/svg" width="116" height="52" viewBox="0 0 136 61" fill="none"><path fill-rule="evenodd" d="M.946 10.818l8.24 4.64.003-.005L26.054 6.11c.872 1.767 1.364 3.755 1.364 5.858 0 7.212-5.756 13.08-12.925 13.258l-.337.004C6.83 25.23.894 19.29.894 11.967a12.55 12.55 0 0 1 .025-.769l.028-.38zm134.433 9.774v1.357H34.34v-1.357H135.38zM41.167 3.068a13.93 13.93 0 0 1 .971.039 24.16 24.16 0 0 1 1.092.109c.37.046.724.112 1.06.2.252.064.48.138.685.22l.196.086V6.48h-.87c-.133-.846-.48-1.478-1.042-1.894s-1.226-.624-1.995-.624c-.845 0-1.513.175-2.002.534s-.86.817-1.112 1.38-.4 1.198-.474 1.905-.1 1.406-.1 2.093c0 .886.057 1.707.17 2.46s.32 1.41.625 1.966.724.99 1.26 1.31 1.227.476 2.074.476c.436 0 .82-.023 1.15-.07s.625-.1.882-.19.5-.17.725-.268l.693-.307.438.853c-.225.132-.49.272-.793.417a8.58 8.58 0 0 1-1.041.406 9.01 9.01 0 0 1-1.301.307c-.474.08-.998.118-1.565.118-1.138 0-2.117-.157-2.936-.474s-1.498-.778-2.035-1.38-.933-1.33-1.19-2.19-.39-1.833-.39-2.917c0-1.15.13-2.18.39-3.084s.66-1.674 1.208-2.302 1.253-1.107 2.113-1.438 1.898-.497 3.116-.497zm93.1.18v.02c-.385.24-.813.585-1.3 1.04s-.952.953-1.43 1.488a52.37 52.37 0 0 0-1.387 1.626l-.746.92-.644.815c.29.476.585.922.883 1.34a26.6 26.6 0 0 0 .944 1.238 37.49 37.49 0 0 0 1.051 1.251l.876.996.815.913.63.69.943 1.004.485.504-4.662-.04c-.173-.344-.36-.695-.565-1.052-.137-.237-.287-.478-.45-.722l-.503-.72-.828-1.16-1.135-1.564-.903-1.228a26.57 26.57 0 0 0 .528-.712l1.04-1.472a31.73 31.73 0 0 0 .635-.93l.317-.488.915-1.438a24.88 24.88 0 0 0 .762-1.299c.176-.323.314-.605.417-.847l.07-.174h3.233zm-35.826 0h3.945l.078.478.033.187a5.68 5.68 0 0 0 .206.766l3.237 9.282.22.6a22.08 22.08 0 0 0 .48 1.19l.084.185.388.8.158.3h-3.513c-.026-.278-.12-.69-.278-1.23l-.148-.495-.272-.86-.214-.65-.596-1.766h-4.382l-.24.735c-.337 1.058-.578 1.915-.725 2.568l-.107.5c-.08.387-.137.7-.17.942l-.03.255h-2.5a16.04 16.04 0 0 0 .407-.713c.122-.222.26-.504.417-.846l.34-.767.525-1.226.755-1.826 2.5-6.188c.106-.257.162-.583.174-.9l-.014-.212-.01-.1a.58.58 0 0 0-.15-.336.67.67 0 0 0-.234-.145l-.36-.113v-.446zm-41.304 0V6.26h-.734c-.133-.49-.265-.878-.397-1.17s-.304-.51-.515-.655-.48-.238-.806-.278c-.26-.032-.58-.05-.96-.057l-.298-.002H51.76c-.464 0-.767.046-.912.14-.126.08-.198.255-.216.53l-.004.146v3.292h1.152c1.1 0 2.054.076 2.827.227s1.4.398 1.884.736.833.772 1.052 1.31.328 1.186.328 1.953c0 1.072-.166 1.914-.497 2.53s-.766 1.078-1.31 1.388-1.16.507-1.856.584a17.65 17.65 0 0 1-1.578.113l-.533.007H46.9V16.6l.255-.08c.146-.04.258-.1.34-.18s.128-.2.15-.336a3.85 3.85 0 0 0 .027-.393l.002-.163V4.843c0-.228-.01-.414-.03-.556s-.07-.257-.15-.336a.67.67 0 0 0-.234-.145l-.36-.113v-.445l10.236-.001zm69.75 0v.446c-.044.01-.09.03-.18.057l-.076.022c-.146.04-.26.1-.337.18-.082.08-.13.19-.15.336a3.82 3.82 0 0 0-.027.407l-.002.17V15.44a4.45 4.45 0 0 0 .029.576c.02.146.07.258.15.336.057.06.136.108.233.146l.36.113v.444h-4.502V16.6l.255-.08a.74.74 0 0 0 .339-.179c.08-.078.13-.2.15-.336a3.81 3.81 0 0 0 .027-.406l.002-.17V4.863a4.65 4.65 0 0 0-.029-.576c-.02-.145-.07-.257-.15-.336-.06-.06-.138-.107-.235-.145l-.36-.113v-.445l4.502-.001zm-57.828 0V6.26h-.734c-.132-.49-.263-.878-.397-1.17s-.304-.51-.517-.655-.478-.238-.8-.278c-.262-.032-.582-.05-.963-.057L65.35 4.1h-1.49c-.277 0-.46.046-.546.14-.07.077-.112.227-.124.45l-.004.143v4.584h1.864c.16 0 .348-.004.567-.012a5.76 5.76 0 0 0 .672-.059 6.22 6.22 0 0 0 .666-.129 1.95 1.95 0 0 0 .421-.153L67.5 9v1.768c-.144-.093-.323-.17-.535-.23s-.434-.103-.666-.13a12.39 12.39 0 0 0-.672-.059l-.21-.01-.358-.01h-1.864v4.345c0 .318.018.58.06.785s.14.36.298.465.392.18.702.22.745.06 1.302.06c.594 0 1.062-.02 1.397-.06s.6-.14.786-.298.327-.396.424-.713a10.81 10.81 0 0 0 .256-1.028l.053-.26h.912v3.212h-9.898V16.6l.257-.08a.76.76 0 0 0 .339-.179c.078-.078.128-.2.148-.336.015-.1.024-.245.028-.406l.002-.17V4.863c0-.237-.01-.43-.03-.576s-.07-.257-.15-.336c-.06-.06-.138-.107-.235-.145l-.358-.113v-.445l9.58-.001zm43.365 0v.446l-.256.08c-.146.04-.258.1-.338.18s-.128.19-.148.336a3.52 3.52 0 0 0-.029.407l-.002 4.585h5.338V4.863c0-.237-.01-.43-.03-.576s-.07-.257-.15-.336c-.06-.06-.138-.107-.234-.145l-.36-.113v-.445l4.5-.001v.446l-.034.01-.222.07c-.145.04-.257.1-.338.18s-.13.19-.15.336a3.82 3.82 0 0 0-.027.407l-.002.17V7.62l-.02-.06v5.182l.018-.06.001 2.757c0 .18.005.33.016.458l.013.118c.02.146.07.258.15.336a.68.68 0 0 0 .235.146l.36.113v.444h-4.5V16.6l.256-.08c.145-.04.257-.1.337-.18s.13-.2.15-.336c.013-.1.023-.245.027-.406l.002-.17v-5.25h-5.338v5.25c0 .24.01.43.03.576s.068.258.148.336a.67.67 0 0 0 .235.146l.36.113v.444h-4.5V16.6l.257-.08c.145-.04.257-.1.337-.18s.128-.2.15-.336c.014-.106.023-.235.027-.39l.002-.162V4.84c0-.227-.01-.41-.03-.552s-.07-.257-.15-.336c-.06-.06-.137-.107-.234-.145l-.36-.113v-.445l4.5-.001zm-35.786 0c.646 0 1.275.037 1.884.11s1.147.245 1.617.516.844.672 1.122 1.2.416 1.243.416 2.143c0 .94-.146 1.693-.437 2.26s-.685 1.007-1.18 1.32-1.07.52-1.715.625c-.52.084-1.06.136-1.62.153l-.424.007H74.93v3.86a4.53 4.53 0 0 0 .029.576.57.57 0 0 0 .149.336c.06.06.138.108.235.146l.36.113v.444h-4.52V16.6l.256-.08c.146-.04.258-.1.337-.18s.13-.2.15-.336a4.15 4.15 0 0 0 .027-.406l.002-.17V4.863c0-.237-.01-.43-.03-.576s-.07-.257-.15-.336c-.06-.06-.137-.107-.234-.145l-.36-.113v-.445l5.456-.001zm16.644 0V6.26h-.736c-.132-.49-.264-.878-.396-1.17s-.304-.51-.515-.655-.48-.238-.804-.278a9.47 9.47 0 0 0-.962-.057L89.57 4.1h-1.666c-.463 0-.767.046-.913.14-.124.08-.195.255-.213.53l-.005.146v3.292h1.15c1.11 0 2.054.076 2.827.227s1.402.398 1.885.736a2.89 2.89 0 0 1 1.051 1.309c.22.534.328 1.186.328 1.953 0 1.072-.166 1.914-.495 2.53s-.767 1.078-1.31 1.388-1.16.507-1.855.584c-.522.06-1.05.098-1.58.113l-.534.007h-5.195V16.6l.255-.08a.74.74 0 0 0 .337-.179c.08-.078.13-.2.15-.336a3.82 3.82 0 0 0 .028-.406l.002-10.746c0-.237-.01-.43-.03-.576a.56.56 0 0 0-.149-.336c-.06-.06-.138-.107-.235-.145l-.358-.113v-.445l10.235-.001zM51.82 9.06h-1.192v5.774c0 .262.013.482.04.655s.09.3.19.415.24.18.426.23a3.39 3.39 0 0 0 .774.069 4.51 4.51 0 0 0 1.002-.109c.324-.07.61-.235.864-.485s.453-.615.605-1.09.228-1.124.228-1.944c0-1.243-.22-2.14-.664-2.69-.406-.503-1.077-.775-2-.817l-.26-.006zm36.143 0h-1.19v5.774c0 .262.014.482.04.655s.09.3.188.415.24.18.427.23.443.07.774.07c.344 0 .678-.036 1.002-.11s.612-.235.862-.485.453-.615.605-1.09.23-1.124.23-1.944c0-1.243-.224-2.14-.666-2.69-.41-.506-1.085-.78-2.03-.817l-.242-.005zM1.51 7.967l7.746 4.363.003-.005 15.356-8.507c.17.218.333.44.49.67l.23.346-16.144 8.944L1.17 9.26a13.05 13.05 0 0 1 .211-.868l.127-.426zm98.577-2.4l-1.905 5.575h3.77l-1.865-5.575zM76.06 4.1c-.264 0-.472.013-.623.038s-.265.07-.34.13-.117.14-.138.237c-.012.067-.02.14-.025.22l-.003.126v5.873h1.39c.845 0 1.437-.314 1.776-.94s.503-1.525.503-2.69c0-.582-.062-1.065-.187-1.45s-.304-.69-.535-.923a1.92 1.92 0 0 0-.813-.485 3.45 3.45 0 0 0-1.003-.14zM22.775 1.892l.292.257.284.265.276.273-14.37 7.96-7.22-4.066a13.24 13.24 0 0 1 .364-.753l.2-.366L9.412 9.3l.003-.005 13.36-7.402zM9.4 6.21l.003-.005L20.198.23l.537.263a7.54 7.54 0 0 1 .501.267l.26.163L9.415 7.616 3.392 4.225l.12-.16.184-.232.225-.267.28-.32L9.4 6.21z" fill="#2c9b47"/><g clip-path="url(#C)"><g clip-path="url(#D)"><g fill="#000"><path d="M69.67 48.214h-2.492l-1.764 3h-.908l-.03-6.474h-2.36v11.7h2.36l.03-3.2h.902l2.342 3.2h2.614L67.3 52.17l2.36-3.957zm17.855 3.85a6.37 6.37 0 0 0-1.544-.698l-.52-.2-.14-.05c-.324-.117-.665-.24-.677-.558a.54.54 0 0 1 .063-.272c.044-.084.1-.156.2-.208a1.15 1.15 0 0 1 .578-.19 1.92 1.92 0 0 1 1.261.363l.064.04 1.26-1.4-.064-.05a3.09 3.09 0 0 0-.51-.357 3.47 3.47 0 0 0-1.046-.374 4 4 0 0 0-1.608 0 3.05 3.05 0 0 0-1.41.558c-.264.2-.484.447-.65.728a2.41 2.41 0 0 0-.311.913 2.3 2.3 0 0 0 .428 1.641 3.5 3.5 0 0 0 1.735 1.005l.104.033.237.078c.856.28 1.1.4 1.237.558a.5.5 0 0 1 .104.29c0 .396-.503.558-.844.658a1.84 1.84 0 0 1-.72-.013c-.237-.052-.46-.15-.656-.288a2.81 2.81 0 0 1-.798-.776l-1.417 1.4.04.056c.63.76 1.512 1.3 2.498 1.496a5.57 5.57 0 0 0 .682.084h.237a3.68 3.68 0 0 0 2.174-.653c.428-.292.756-.7.943-1.172a2.22 2.22 0 0 0 .118-.988 2.24 2.24 0 0 0-.326-.943 2.39 2.39 0 0 0-.717-.72zm7.62 0a6.32 6.32 0 0 0-1.538-.698l-.526-.2-.133-.05c-.33-.117-.665-.24-.682-.558a.58.58 0 0 1 .071-.27.61.61 0 0 1 .189-.21 1.15 1.15 0 0 1 .578-.19c.452-.03.9.1 1.26.363l.058.04 1.26-1.4-.058-.05a2.99 2.99 0 0 0-.515-.357 3.45 3.45 0 0 0-1.041-.374c-.532-.1-1.08-.1-1.613 0a3.1 3.1 0 0 0-1.41.558c-.266.197-.488.443-.655.724a2.4 2.4 0 0 0-.317.911 2.26 2.26 0 0 0 .428 1.64 3.5 3.5 0 0 0 1.735 1.005l.098.033.237.078c.862.28 1.104.4 1.243.558a.44.44 0 0 1 .098.29c0 .396-.497.558-.84.66a1.85 1.85 0 0 1-.723-.013 1.84 1.84 0 0 1-.66-.288 2.96 2.96 0 0 1-.798-.776l-1.417 1.4.046.056c.63.76 1.512 1.3 2.498 1.496a5.57 5.57 0 0 0 .682.084h.237a3.68 3.68 0 0 0 2.174-.653 2.57 2.57 0 0 0 .943-1.172 2.23 2.23 0 0 0 .118-.988 2.24 2.24 0 0 0-.326-.943 2.38 2.38 0 0 0-.706-.714zm-17.73-3.85v.804h-.104c-.646-.624-1.52-.977-2.434-.982a4.14 4.14 0 0 0-1.633.303c-.516.2-.98.524-1.363.92a4.31 4.31 0 0 0-1.156 3.036c-.03 1.136.383 2.24 1.156 3.097a3.87 3.87 0 0 0 1.34.92 3.98 3.98 0 0 0 1.615.298 3.99 3.99 0 0 0 2.486-.921h.093v.72h2.452v-8.192h-2.452zm.122 4.124c.025.66-.204 1.306-.642 1.814a2.15 2.15 0 0 1-.759.526 2.22 2.22 0 0 1-.918.166c-.306.005-.608-.057-.886-.18a2.02 2.02 0 0 1-.716-.534 2.67 2.67 0 0 1-.625-1.836c-.02-.645.207-1.274.636-1.77a2.06 2.06 0 0 1 .722-.525 2.15 2.15 0 0 1 .885-.178c.313-.01.624.048.9.17a2.11 2.11 0 0 1 .748.529 2.64 2.64 0 0 1 .642 1.819zm26.546-4.124v.804h-.104a3.53 3.53 0 0 0-2.428-.982c-.56-.01-1.118.093-1.635.304a4.02 4.02 0 0 0-1.366.918c-.77.833-1.184 1.92-1.156 3.036-.03 1.136.383 2.24 1.156 3.097a3.87 3.87 0 0 0 1.34.92 3.98 3.98 0 0 0 1.615.298 3.99 3.99 0 0 0 2.486-.921h.092v.72h2.452v-8.192h-2.452zm.122 4.124a2.6 2.6 0 0 1-.642 1.814 2.15 2.15 0 0 1-.759.526 2.22 2.22 0 0 1-.918.166 2.09 2.09 0 0 1-.885-.18 2.02 2.02 0 0 1-.717-.534c-.432-.518-.654-1.17-.624-1.836-.02-.645.207-1.274.636-1.77a2.06 2.06 0 0 1 .722-.525 2.15 2.15 0 0 1 .885-.178 2.14 2.14 0 0 1 .91.17c.285.122.543.3.75.53.44.5.67 1.157.642 1.82z"/></g><path d="M46.013 43.36c-5.1 0-9.14 3.963-9.14 8.82 0 4.912 4.107 8.82 9.14 8.82s9.14-3.964 9.14-8.82-4.107-8.82-9.14-8.82zm0 12.058c-1.85 0-3.413-1.507-3.413-3.294s1.562-3.294 3.413-3.294 3.412 1.507 3.412 3.294c-.058 1.842-1.562 3.294-3.412 3.294z" fill="url(#A)"/><path d="M36.816 45.872v12.84h-3.24l-4.164-12.84h7.404z" fill="url(#B)"/></g></g><defs><linearGradient id="A" x1="46.013" y1="43.36" x2="46.013" y2="61" gradientUnits="userSpaceOnUse"><stop stop-color="#0160d1"/><stop offset="1" stop-color="#00479c"/></linearGradient><linearGradient id="B" x1="33.114" y1="45.872" x2="33.114" y2="58.711" gradientUnits="userSpaceOnUse"><stop stop-color="#0160d1"/><stop offset="1" stop-color="#00479c"/></linearGradient><clipPath id="C"><path fill="#fff" transform="translate(26.5 43)" d="M0 0h87v18H0z"/></clipPath><clipPath id="D"><path fill="#fff" transform="translate(29.412 43.36)" d="M0 0h77.172v17.64H0z"/></clipPath></defs></svg>