<svg width="132" height="30" viewBox="0 0 132 30" fill="none" xmlns="http://www.w3.org/2000/svg">
<path fill-rule="evenodd" clip-rule="evenodd" d="M12.9183 14.7811C16.2912 11.4172 19.4302 8.27821 19.3762 8.27821L11.911 0.812958L8.32223 4.40168C7.54872 5.17519 7.117 6.20053 7.117 7.29784C7.117 8.34117 7.50375 9.33055 8.2143 10.0951L8.66401 10.5448C9.86925 11.75 11.3983 13.27 12.9183 14.7811ZM21.6428 18.9634C23.8014 18.9634 25.5553 17.2095 25.5553 15.0509C25.5553 12.8923 23.8104 11.1384 21.6428 11.1384C19.4841 11.1384 17.7303 12.8923 17.7303 15.0509C17.7303 17.2095 19.4841 18.9634 21.6428 18.9634ZM18.9984 22.1204L11.5242 29.5947L2.58388 20.6544C-0.384236 17.6862 -0.483173 12.9462 2.27807 9.86121L2.30506 9.83423C2.30778 9.8315 2.3105 9.82795 2.31348 9.82408C2.32032 9.81516 2.32849 9.80452 2.34103 9.79825C2.43996 9.68133 2.54789 9.57341 2.65581 9.46548L2.65583 9.46546L6.56835 5.55295C6.35248 6.11059 6.24455 6.70421 6.24455 7.31583C6.24455 8.57503 6.72125 9.78026 7.57571 10.7067L8.04341 11.1744C9.61741 12.7394 11.0385 14.1515 12.2977 15.4017C16.0933 19.1703 18.5128 21.5987 18.9984 22.1204ZM36.2968 4.81296C33.4228 4.81296 31.0136 6.70858 31.0136 10.4876C31.0136 13.1904 32.0776 14.6457 33.6797 15.4529L30.2798 22.8397H32.5423L35.6364 15.9299H37.263V22.8397H39.2198V4.81296H36.2968ZM36.2112 14.3155C34.5113 14.3155 33.1171 13.3861 33.1171 10.4876C33.1171 7.47906 34.6458 6.45175 36.2112 6.45175H37.2508V14.3155H36.2112ZM46.6677 15.4651H43.7326V10.0962H41.7636V22.7541H43.7326V17.0795H46.6677V22.7541H48.6123V10.0962H46.6677V15.4651ZM50.5446 21.1275C51.7064 18.4492 51.8287 14.5234 51.8287 11.1602V10.084H57.7357V21.1275H58.7386V25.2245H56.9897V22.7419H51.5352V25.2245H49.7619V21.1275H50.5446ZM53.5898 11.894C53.5898 14.5601 53.4675 18.4492 52.4035 21.1398H55.7912V11.6617H53.5898V11.894ZM66.8469 20.3937L66.8468 20.3938C66.3454 20.7485 65.4526 21.2498 64.352 21.2498C62.7866 21.2498 61.9795 19.7456 61.9795 16.8838H67.2872V15.8076C67.2872 11.5149 65.893 9.93725 63.7772 9.93725C61.0744 9.93725 59.9371 12.8969 59.9371 16.9694C59.9371 20.3723 61.173 22.3988 63.2435 22.8523C63.5393 22.9171 63.8521 22.9498 64.1808 22.9498C65.4405 22.9498 66.5045 22.5462 67.3116 21.9225L66.8469 20.3937ZM63.765 11.5271C64.8313 11.5271 65.2097 12.9137 65.2528 14.8707C65.2557 15.0012 65.257 15.1342 65.257 15.2694H62.0039C62.1109 13.2897 62.452 11.9093 63.3467 11.5951C63.4745 11.5502 63.6137 11.5271 63.765 11.5271ZM76.7897 22.7419L73.1697 16.0399L76.325 10.0962H76.3185L76.325 10.084H74.3316L71.2741 15.9421V10.0962L71.2741 10.084H69.3051L69.3051 10.0962L69.3051 22.7419L69.3051 22.7541H71.2741L71.2741 22.7419L71.2741 16.4435L71.278 16.4509L74.6373 22.7541H76.7775L76.771 22.7419H76.7897ZM83.6262 12.4199L83.617 12.412L83.614 12.4321C83.0881 11.9796 82.3298 11.5516 81.5227 11.5516C80.8638 11.5516 80.2908 11.8978 79.8679 12.594C79.3938 13.3846 79.1134 14.6211 79.1134 16.309C79.1134 19.4765 79.8717 21.2865 81.4615 21.2865C82.4277 21.2865 83.1492 20.9074 83.614 20.5038L84.0543 21.9714L84.0415 21.982L84.042 21.9836C83.3572 22.5584 82.55 22.9375 81.3882 22.9375C78.6609 22.9375 77.0221 20.7484 77.0221 16.4313C77.0221 13.7755 77.7101 11.7641 79.0568 10.7216C79.7277 10.1963 80.5631 9.91279 81.5594 9.91279C82.6967 9.91279 83.3572 10.2185 83.9075 10.561L83.6262 12.4199ZM98.2653 22.8397L92.6518 13.1292L97.8128 4.81296H96.6143L91.3677 13.2393V4.81296H90.1202V22.8397H91.3677V13.3371L96.8589 22.8397H98.2653ZM105.97 13.6062V20.565C105.97 21.4455 106.092 22.4239 106.239 22.8886H105.163C105.053 22.5706 104.931 22.0814 104.857 21.1764C104.246 22.3872 103.341 23.1454 102.093 23.1454C100.381 23.1454 99.207 21.7757 99.207 19.452C99.207 16.7248 100.687 15.3061 103.426 15.3061H104.808V13.7163C104.808 11.7717 104.087 10.9401 102.705 10.9401C101.628 10.9401 100.65 11.4537 100.051 12.3343L99.7206 11.1969C100.222 10.5487 101.274 9.91279 102.705 9.91279C104.796 9.91279 105.97 11.0746 105.97 13.6062ZM102.35 22.1915C103.536 22.1915 104.356 21.0541 104.808 19.6966V16.1867H103.451C101.372 16.1867 100.369 17.1406 100.369 19.3664C100.369 21.152 101.152 22.1915 102.35 22.1915ZM114.849 21.7512L114.47 20.7606C114.47 20.7606 113.577 22.1304 111.914 22.1304C109.92 22.1304 109.028 20.0513 109.028 16.5658C109.028 12.9702 109.945 10.9279 111.914 10.9279C113.014 10.9279 113.834 11.5883 114.396 12.371L114.727 11.1113C114.164 10.4264 113.247 9.92502 111.914 9.92502C109.284 9.92502 107.829 12.3832 107.829 16.578C107.829 20.7239 109.309 23.1699 111.889 23.1699C113.907 23.1699 114.849 21.7512 114.849 21.7512ZM122.933 20.7606L123.312 21.7512C123.312 21.7512 122.37 23.1699 120.352 23.1699C117.772 23.1699 116.292 20.7239 116.292 16.578C116.292 12.3832 117.747 9.92502 120.377 9.92502C121.698 9.92502 122.627 10.4264 123.19 11.1113L122.859 12.371C122.297 11.5883 121.477 10.9279 120.389 10.9279C118.42 10.9279 117.503 12.9702 117.503 16.5658C117.503 20.0513 118.396 22.1304 120.389 22.1304C122.04 22.1304 122.933 20.7606 122.933 20.7606ZM131.176 20.565V13.6062C131.176 11.0746 130.002 9.91279 127.923 9.91279C126.492 9.91279 125.44 10.5487 124.939 11.1969L125.269 12.3343C125.868 11.4537 126.846 10.9401 127.923 10.9401C129.305 10.9401 130.026 11.7717 130.026 13.7163V15.3061H128.644C125.905 15.3061 124.425 16.7248 124.425 19.452C124.425 21.7757 125.599 23.1454 127.311 23.1454C128.571 23.1454 129.476 22.3872 130.075 21.1764C130.148 22.0814 130.283 22.5706 130.381 22.8886H131.457C131.31 22.4239 131.176 21.4455 131.176 20.565ZM130.026 19.6966C129.574 21.0541 128.742 22.1915 127.568 22.1915C126.369 22.1915 125.587 21.152 125.587 19.3664C125.587 17.1406 126.59 16.1867 128.669 16.1867H130.026V19.6966Z" fill="white"/>
</svg>
