<svg width="136" height="52" viewBox="0 0 136 52" fill="none" xmlns="http://www.w3.org/2000/svg">
<path fill-rule="evenodd" clip-rule="evenodd" d="M0.946316 10.8177L9.18539 15.4574L9.18809 15.4524L26.0543 6.10854C26.9259 7.87567 27.4179 9.86348 27.4179 11.967C27.4179 19.1787 21.6614 25.0461 14.4928 25.2249L14.1558 25.2291C6.83113 25.2291 0.893677 19.2913 0.893677 11.967C0.893677 11.7086 0.902675 11.4525 0.918272 11.1981L0.946316 10.8177ZM135.379 20.5918V21.9489H34.3413V20.5918H135.379ZM41.1665 3.0676C41.4567 3.0676 41.781 3.08178 42.138 3.10708C42.4936 3.13475 42.8587 3.17052 43.2296 3.21641C43.5984 3.26264 43.9534 3.3281 44.2908 3.4155C44.5426 3.47978 44.7716 3.55374 44.9761 3.63667L45.1722 3.72256V6.48005H44.3009C44.1676 5.63377 43.8214 5.00244 43.2586 4.58605C42.6958 4.16966 42.0327 3.96247 41.264 3.96247C40.4191 3.96247 39.751 4.13794 39.2617 4.49629C38.7714 4.85228 38.4013 5.31355 38.1492 5.87504C37.8988 6.43787 37.7396 7.07292 37.6748 7.77984C37.6076 8.48744 37.5746 9.18626 37.5746 9.87293C37.5746 10.7587 37.6313 11.58 37.7446 12.3325C37.8553 13.088 38.0648 13.7416 38.3696 14.298C38.6729 14.8514 39.0933 15.2891 39.6282 15.6066C40.1647 15.9231 40.8554 16.0824 41.7017 16.0827C42.138 16.0827 42.5213 16.0601 42.8523 16.0128C43.183 15.9666 43.4769 15.9028 43.734 15.8242C43.9925 15.7449 44.2338 15.6555 44.4595 15.5566L45.1523 15.2496L45.5899 16.1023C45.3649 16.2339 45.101 16.3739 44.7966 16.519C44.4919 16.6638 44.1444 16.7994 43.7556 16.9249C43.3649 17.0511 42.9299 17.1537 42.4542 17.232C41.9797 17.3123 41.4567 17.3501 40.8888 17.3504C39.751 17.3504 38.7718 17.1935 37.9528 16.876C37.1319 16.5581 36.4543 16.0982 35.9181 15.4959C35.3829 14.8949 34.9848 14.1661 34.7293 13.3053C34.4709 12.4445 34.3399 11.4727 34.3399 10.3882C34.3399 9.2389 34.4709 8.20939 34.7293 7.30406C34.9848 6.3984 35.3894 5.63006 35.9377 5.00244C36.4877 4.3738 37.1909 3.89532 38.0503 3.56464C38.9111 3.23362 39.9484 3.0676 41.1665 3.0676ZM134.267 3.24678V3.26669C133.882 3.50525 133.454 3.8518 132.977 4.308C132.501 4.76522 132.025 5.26091 131.548 5.79608C131.073 6.33125 130.609 6.87417 130.161 7.4225L129.415 8.34341L128.771 9.15859C129.062 9.63437 129.356 10.0808 129.654 10.4989C129.952 10.9129 130.266 11.3279 130.598 11.7366C130.927 12.1465 131.278 12.5643 131.649 12.9874L132.525 13.9835L133.34 14.8965C133.529 15.1051 133.738 15.3351 133.97 15.587C134.278 15.9217 134.592 16.2559 134.913 16.591L135.398 17.0947L130.736 17.0542C130.563 16.71 130.375 16.3594 130.171 16.002C130.034 15.7649 129.884 15.5241 129.72 15.2802L129.217 14.5604L128.389 13.3993L127.254 11.8354L126.351 10.6075C126.5 10.4153 126.675 10.1786 126.879 9.8959L127.918 8.42434C128.131 8.1247 128.342 7.81456 128.553 7.49422L128.87 7.00611C129.189 6.51177 129.492 6.03059 129.785 5.56798C130.073 5.10536 130.329 4.67176 130.547 4.26852C130.723 3.94567 130.861 3.66341 130.964 3.42107L131.034 3.24678H134.267ZM98.4405 3.24678H102.385L102.463 3.72428C102.473 3.78427 102.484 3.84657 102.496 3.91118C102.533 4.11796 102.601 4.37355 102.702 4.67742L105.939 13.9589L106.158 14.559C106.334 15.0295 106.495 15.4259 106.638 15.7487L106.722 15.9335C106.868 16.2462 106.997 16.5162 107.11 16.7439L107.268 17.0538L103.755 17.0542C103.729 16.7758 103.636 16.3655 103.477 15.8242L103.329 15.3287C103.248 15.0654 103.157 14.7789 103.057 14.4695L102.843 13.8205L102.247 12.0544H97.8645L97.6257 12.7896C97.2887 13.8475 97.0474 14.7041 96.9008 15.3576L96.794 15.8567C96.714 16.2435 96.6567 16.5573 96.6229 16.7987L96.5938 17.0538L94.0931 17.0542C94.2145 16.8578 94.3492 16.6175 94.5004 16.3408C94.6226 16.1184 94.7611 15.8366 94.917 15.4954L95.256 14.7288L95.7806 13.503C95.998 12.988 96.2503 12.3794 96.5352 11.6769L99.0338 5.48902C99.14 5.23189 99.1957 4.90627 99.2075 4.58875L99.1936 4.37704C99.1906 4.34505 99.1874 4.31487 99.1839 4.28675C99.1627 4.14199 99.1127 4.02962 99.0338 3.95066C98.9743 3.89144 98.8966 3.84323 98.7997 3.8056L98.4405 3.69253V3.24678ZM57.1365 3.24678V6.2614H56.4026C56.2696 5.77246 56.1377 5.3834 56.0054 5.0922C55.8711 4.80099 55.7014 4.58335 55.4905 4.43724C55.2783 4.29214 55.0093 4.19969 54.6847 4.15886C54.4253 4.12728 54.1054 4.10822 53.7239 4.10186L53.4261 4.09947L51.7599 4.09981C51.2959 4.09981 50.9929 4.1457 50.8478 4.23951C50.7214 4.31846 50.65 4.49411 50.6322 4.76877L50.6278 4.91437V8.20669H51.7798C52.8899 8.20669 53.8334 8.28295 54.6071 8.43345C55.3795 8.58765 56.0081 8.83128 56.4907 9.16905C56.9729 9.50513 57.3238 9.94109 57.5428 10.4779C57.7614 11.0118 57.8711 11.6644 57.8711 12.4313C57.8711 13.503 57.7047 14.3449 57.3741 14.9621C57.0434 15.5762 56.6081 16.0402 56.0635 16.3503C55.5219 16.6611 54.9037 16.8574 54.2076 16.934C53.6875 16.9953 53.161 17.032 52.6293 17.0466L52.0959 17.0538H46.9005V16.6098L47.1559 16.5305C47.302 16.4913 47.4141 16.4306 47.4947 16.3513C47.574 16.2737 47.6229 16.1617 47.6435 16.0152C47.6574 15.9087 47.667 15.7773 47.6709 15.6221L47.6729 15.4591V4.84317C47.6729 4.61507 47.6621 4.4288 47.6435 4.28675C47.6226 4.14199 47.574 4.02962 47.4934 3.95066C47.4339 3.89144 47.356 3.84323 47.2592 3.8056L46.9005 3.69253V3.24779L57.1365 3.24678ZM126.887 3.24678V3.69253C126.843 3.70306 126.798 3.72201 126.708 3.74938L126.632 3.77149C126.486 3.81232 126.372 3.8717 126.295 3.95066C126.213 4.02996 126.164 4.14165 126.144 4.28675C126.129 4.39658 126.121 4.53223 126.117 4.69326L126.115 4.86274L126.115 15.4392C126.115 15.6778 126.124 15.8688 126.144 16.0152C126.164 16.1617 126.213 16.2737 126.295 16.3513C126.352 16.4108 126.431 16.4596 126.528 16.497L126.887 16.6098V17.0538H122.385V16.6098L122.64 16.5305C122.787 16.4913 122.899 16.4306 122.979 16.3513C123.059 16.2737 123.109 16.1617 123.128 16.0152C123.142 15.9054 123.152 15.7703 123.155 15.609L123.157 15.4389V4.86274C123.157 4.62553 123.147 4.43319 123.128 4.28675C123.109 4.14199 123.059 4.02962 122.979 3.95066C122.919 3.89144 122.841 3.84323 122.744 3.8056L122.385 3.69253V3.24779L126.887 3.24678ZM69.0587 3.24678V6.2614H68.3244C68.1928 5.77246 68.0609 5.3834 67.9276 5.0922C67.7946 4.80099 67.6236 4.58335 67.411 4.43724C67.2004 4.29214 66.9325 4.19969 66.6099 4.15886C66.3481 4.12728 66.0283 4.10822 65.6471 4.10186L65.3496 4.09947L63.8602 4.09981C63.5831 4.09981 63.3999 4.1457 63.3145 4.23951C63.2443 4.31627 63.2023 4.46615 63.1903 4.69031L63.1867 4.83372V9.41807H65.0506C65.2099 9.41807 65.3982 9.41403 65.6172 9.40626C65.8345 9.40087 66.0585 9.37994 66.2894 9.34688C66.5212 9.31415 66.7432 9.27197 66.9551 9.21798C67.1143 9.17824 67.2549 9.12693 67.3759 9.06461L67.4903 8.99865V10.7665C67.3465 10.673 67.1674 10.5977 66.9551 10.5373C66.7429 10.4779 66.5212 10.4341 66.2894 10.4081C66.0585 10.3804 65.8345 10.3629 65.6172 10.3487L65.4084 10.338L65.0506 10.3278H63.1867V14.6732C63.1867 14.9911 63.2049 15.2519 63.2457 15.4578C63.2859 15.6633 63.3844 15.8171 63.544 15.9231C63.7019 16.0297 63.9364 16.1023 64.2462 16.1417C64.559 16.1802 64.9909 16.2011 65.5477 16.2011C66.1416 16.2011 66.6099 16.1799 66.9443 16.1417C67.2831 16.1023 67.5443 16.0017 67.7299 15.8441C67.9131 15.6859 68.0572 15.4483 68.1543 15.1308C68.2381 14.8662 68.3233 14.5226 68.4105 14.1028L68.4631 13.8418H69.3748V17.0538H59.4763V16.6098L59.733 16.5305C59.8781 16.4913 59.9902 16.4306 60.0718 16.3513C60.1498 16.2737 60.2001 16.1617 60.2196 16.0152C60.2343 15.9054 60.244 15.7703 60.248 15.609L60.25 15.4389L60.2497 4.86274C60.2497 4.62553 60.2392 4.43319 60.2196 4.28675C60.1997 4.14199 60.1498 4.02962 60.0705 3.95066C60.0102 3.89144 59.9322 3.84323 59.8357 3.8056L59.4773 3.69253V3.24779L69.0587 3.24678ZM112.424 3.24678L112.424 3.69253L112.168 3.77149C112.022 3.81232 111.91 3.8717 111.83 3.95066C111.75 4.02996 111.702 4.14165 111.682 4.28675C111.666 4.39658 111.657 4.53223 111.653 4.69326L111.651 9.27838H116.989V4.86274C116.989 4.62553 116.978 4.43319 116.96 4.28675C116.938 4.14199 116.889 4.02962 116.809 3.95066C116.75 3.89144 116.671 3.84323 116.575 3.8056L116.216 3.69253V3.24779L120.717 3.24678V3.69253L120.683 3.702L120.461 3.77149C120.316 3.81232 120.204 3.8717 120.123 3.95066C120.044 4.02996 119.994 4.14165 119.974 4.28675C119.959 4.39658 119.951 4.53223 119.947 4.69326L119.945 4.86274V7.62024L119.926 7.56085V12.7425L119.944 12.682L119.945 15.4392C119.945 15.6181 119.95 15.7703 119.961 15.897L119.974 16.0152C119.994 16.1617 120.044 16.2737 120.123 16.3513C120.183 16.4108 120.262 16.4596 120.358 16.497L120.717 16.6098V17.0538H116.216V16.6098L116.472 16.5305C116.617 16.4913 116.729 16.4306 116.809 16.3513C116.889 16.2737 116.939 16.1617 116.96 16.0152C116.973 15.9054 116.983 15.7703 116.987 15.609L116.989 15.4389V10.1888H111.651V15.4392C111.651 15.6778 111.661 15.8688 111.682 16.0152C111.702 16.1617 111.75 16.2737 111.83 16.3513C111.89 16.4108 111.968 16.4596 112.065 16.497L112.424 16.6098V17.0538H107.923V16.6098L108.18 16.5305C108.325 16.4913 108.437 16.4306 108.517 16.3513C108.596 16.2737 108.645 16.1617 108.666 16.0152C108.68 15.9094 108.689 15.7799 108.693 15.6261L108.695 15.4642L108.695 4.83912C108.695 4.61237 108.685 4.42779 108.666 4.28675C108.645 4.14199 108.597 4.02962 108.516 3.95066C108.457 3.89144 108.379 3.84323 108.282 3.8056L107.923 3.69253V3.24779L112.424 3.24678ZM76.6377 3.24678C77.2836 3.24678 77.9125 3.2839 78.5213 3.35611C79.129 3.42866 79.6682 3.60108 80.1386 3.8717C80.6066 4.143 80.9821 4.54387 81.2605 5.07229C81.5369 5.60104 81.6769 6.31505 81.6766 7.21566C81.6766 8.15439 81.5305 8.90821 81.2393 9.47611C80.9477 10.0443 80.5539 10.483 80.0583 10.7955C79.5626 11.1052 78.9893 11.3148 78.3434 11.4204C77.8235 11.5046 77.2844 11.5562 76.7238 11.5735L76.2993 11.58H74.931V15.4392C74.931 15.6778 74.9401 15.8688 74.9597 16.0152C74.9809 16.1617 75.0299 16.2737 75.1088 16.3513C75.169 16.4108 75.2471 16.4596 75.3436 16.497L75.703 16.6098V17.0538H71.1821V16.6098L71.4379 16.5305C71.584 16.4913 71.6964 16.4306 71.7753 16.3513C71.856 16.2737 71.9042 16.1617 71.9258 16.0152C71.9395 15.9054 71.949 15.7703 71.9529 15.609L71.9548 15.4389V4.86274C71.9548 4.62553 71.944 4.43319 71.9258 4.28675C71.9042 4.14199 71.856 4.02962 71.7753 3.95066C71.7161 3.89144 71.6383 3.84323 71.5413 3.8056L71.1821 3.69253V3.24779L76.6377 3.24678ZM93.2815 3.24678V6.2614H92.5459C92.414 5.77246 92.2824 5.3834 92.1501 5.0922C92.0185 4.80099 91.8461 4.58335 91.6352 4.43724C91.4213 4.29214 91.1554 4.19969 90.8308 4.15886C90.5714 4.12728 90.2506 4.10822 89.8689 4.10186L89.5711 4.09947L87.9046 4.09981C87.4419 4.09981 87.1379 4.1457 86.9911 4.23951C86.8671 4.31846 86.796 4.49411 86.7783 4.76877L86.7738 4.91437V8.20669H87.9248C89.036 8.20669 89.9784 8.28295 90.7522 8.43345C91.5259 8.58765 92.1545 8.83128 92.6367 9.16905C93.1192 9.50513 93.4698 9.94109 93.6875 10.4779C93.9061 11.0118 94.0155 11.6644 94.0155 12.4313C94.0155 13.503 93.8498 14.3449 93.5201 14.9621C93.1891 15.5762 92.7528 16.0402 92.2112 16.3503C91.6666 16.6611 91.0498 16.8574 90.3567 16.934C89.8346 16.9953 89.3081 17.032 88.7757 17.0466L88.2413 17.0538H83.0466V16.6098L83.302 16.5305C83.4471 16.4913 83.5601 16.4306 83.6394 16.3513C83.7201 16.2737 83.7687 16.1617 83.7886 16.0152C83.8033 15.9054 83.813 15.7703 83.8169 15.609L83.8189 4.86274C83.8189 4.62553 83.8081 4.43319 83.7886 4.28675C83.7687 4.14199 83.7201 4.02962 83.6394 3.95066C83.58 3.89144 83.5015 3.84323 83.4048 3.8056L83.0466 3.69253V3.24779L93.2815 3.24678ZM51.8196 9.05972H50.6278V14.8332C50.6278 15.095 50.6409 15.315 50.6676 15.4881C50.6953 15.6592 50.7584 15.7979 50.8569 15.9032C50.9561 16.0101 51.0982 16.0837 51.2827 16.1326C51.469 16.1785 51.7258 16.2011 52.0565 16.2011C52.4007 16.2011 52.7354 16.1654 53.0586 16.0918C53.3826 16.0206 53.6701 15.857 53.9221 15.6066C54.1739 15.3549 54.375 14.9911 54.5268 14.515C54.6783 14.0395 54.7546 13.3907 54.7546 12.571C54.7546 11.3279 54.5336 10.4317 54.0908 9.88204C53.6847 9.37941 53.014 9.10729 52.0807 9.06543L51.8196 9.05972ZM87.9629 9.05972H86.7738V14.8332C86.7738 15.095 86.7873 15.315 86.8137 15.4881C86.8413 15.6592 86.9031 15.7979 87.0019 15.9032C87.1008 16.0101 87.2432 16.0837 87.4288 16.1326C87.6137 16.1785 87.8718 16.2011 88.2025 16.2011C88.5467 16.2011 88.8804 16.1654 89.2047 16.0918C89.529 16.0206 89.8165 15.857 90.0665 15.6066C90.3182 15.3549 90.52 14.9911 90.6715 14.515C90.8244 14.0395 90.901 13.3907 90.901 12.571C90.901 11.3279 90.6769 10.4317 90.2352 9.88204C89.8266 9.3759 89.1505 9.1035 88.2049 9.06459L87.9629 9.05972ZM1.50915 7.96678L9.25524 12.3294L9.25828 12.324L24.6141 3.81704C24.784 4.03457 24.9469 4.25765 25.1031 4.48578L25.3322 4.8317L9.18776 13.7757L1.17105 9.26083C1.23178 8.96772 1.30242 8.6782 1.38235 8.39248L1.50915 7.96678ZM100.086 5.56764L98.1807 11.1424H101.951L100.086 5.56764ZM76.0604 4.09981C75.7968 4.09981 75.5883 4.11297 75.4371 4.13794C75.2856 4.16696 75.1722 4.20914 75.098 4.26852C75.0268 4.32758 74.9809 4.40788 74.9597 4.50574C74.9473 4.57255 74.9387 4.64626 74.9343 4.72667L74.931 4.85228V10.7256H76.3199C77.1648 10.7256 77.757 10.4118 78.0958 9.78452C78.4318 9.15589 78.5992 8.25967 78.5989 7.09553C78.5989 6.51312 78.5371 6.03059 78.4119 5.64693C78.2867 5.2653 78.1076 4.95621 77.8768 4.7244C77.6436 4.49393 77.3733 4.33162 77.0636 4.23951C76.7524 4.1457 76.4174 4.09947 76.0604 4.09981ZM22.7745 1.89199L23.0663 2.14879L23.3504 2.41376L23.6265 2.68698L9.25794 10.6473L2.03723 6.58095C2.15084 6.32562 2.27209 6.07465 2.40089 5.82832L2.59973 5.46236L9.41181 9.29862L9.41485 9.29356L22.7745 1.89199ZM9.41046 6.20876L9.4135 6.2037L20.1982 0.229126L20.7356 0.492377C20.9044 0.575736 21.0671 0.659743 21.2364 0.759515L21.4969 0.922886L9.41451 7.61652L3.39169 4.22466L3.51036 4.06476L3.69405 3.83266L3.91875 3.56587L4.19849 3.24611L9.41046 6.20876Z" fill="#2C9B47"/>
<path d="M41.0032 44.7023C42.3704 44.7023 43.4788 43.5939 43.4788 42.2266C43.4788 40.8594 42.3704 39.751 41.0032 39.751C39.6359 39.751 38.5275 40.8594 38.5275 42.2266C38.5275 43.5939 39.6359 44.7023 41.0032 44.7023Z" fill="#00EEBC"/>
<path d="M39.5629 37.92L34.6429 33L28.9816 38.6613C27.0376 40.6053 27.0376 43.7575 28.9816 45.7014L30.3813 47.1011C30.3818 47.1011 39.6359 37.92 39.5629 37.92Z" fill="#00EEBC"/>
<path d="M32.5897 39.5507C32.5436 39.5052 32.4981 39.4596 32.4531 39.4146C32.4509 39.413 32.4493 39.4108 32.4476 39.4092C32.3982 39.3603 32.3494 39.3115 32.3017 39.2638C32.3011 39.2632 32.3 39.2621 32.2995 39.2616C31.821 38.7491 31.528 38.0605 31.528 37.3039C31.528 36.511 31.8495 35.7939 32.3691 35.2743L28.9821 38.6613C28.9124 38.731 28.8455 38.8018 28.7813 38.8742C28.7747 38.8813 28.7681 38.889 28.7616 38.8961C28.7605 38.8972 28.7599 38.8978 28.7588 38.8989C28.7533 38.9049 28.7478 38.911 28.7424 38.917C28.7429 38.917 28.7429 38.917 28.7435 38.917C26.9954 40.8714 27.0595 43.8749 28.9366 45.7519L34.5979 51.4132L39.5179 46.4932C39.5668 46.4932 35.3243 42.2689 32.5897 39.5507Z" fill="url(#paint0_linear)"/>
<path fill-rule="evenodd" clip-rule="evenodd" d="M46.8557 38.9444C46.8557 36.551 48.3816 35.3505 50.2018 35.3505H52.053V46.7674H50.8137V42.3912H49.7835L47.8239 46.7674H46.391L48.5443 42.0891C47.5296 41.5779 46.8557 40.6562 46.8557 38.9444ZM50.1476 36.3884C49.1562 36.3884 48.188 37.039 48.188 38.9444C48.188 40.7801 49.071 41.3688 50.1476 41.3688H50.806V36.3884H50.1476ZM56.77 42.0968H54.9111V38.6965H53.6641V46.7132H54.9111V43.1192H56.77V46.7132H58.0016V38.6965H56.77V42.0968ZM59.2254 45.683C59.9612 43.9867 60.0386 41.5004 60.0386 39.3704V38.6888H63.7797V45.683H64.4149V48.2778H63.3073V46.7054H59.8527V48.2778H58.7296V45.683H59.2254ZM61.154 39.8351C61.154 41.5237 61.0765 43.9867 60.4027 45.6908H62.5482V39.688H61.154V39.8351ZM69.5502 45.2183C69.2326 45.4429 68.6672 45.7605 67.9701 45.7605C66.9787 45.7605 66.4674 44.8078 66.4674 42.9953H69.829V42.3137C69.829 39.595 68.946 38.5958 67.606 38.5958C65.8943 38.5958 65.1739 40.4703 65.1739 43.0495C65.1739 45.5126 66.1964 46.8371 67.8616 46.8371C68.6594 46.8371 69.3333 46.5815 69.8445 46.1865L69.5502 45.2183ZM67.5983 39.6028C68.3186 39.6028 68.5433 40.6019 68.5433 41.9729H66.4829C66.5604 40.54 66.8315 39.6028 67.5983 39.6028ZM75.8473 46.7054L73.5546 42.4609L73.5547 42.4606L75.553 38.6965H75.5489L75.553 38.6888H74.2904L72.3541 42.3989V38.6965V38.6888H71.107V38.6965V46.7054V46.7132H72.3541V46.7054V42.7165L74.4841 46.7132H75.8396L75.8354 46.7054H75.8473ZM80.1771 40.1682L80.1712 40.1632L80.1693 40.1759C79.8363 39.8894 79.356 39.6183 78.8448 39.6183C78.4276 39.6183 78.0648 39.8374 77.797 40.2782C77.4966 40.7789 77.319 41.5621 77.319 42.6313C77.319 44.6374 77.7992 45.7837 78.8061 45.7837C79.418 45.7837 79.875 45.5436 80.1693 45.288L80.4482 46.2175L80.4401 46.2242L80.4404 46.2252C80.0067 46.5893 79.4955 46.8294 78.7596 46.8294C77.0324 46.8294 75.9945 45.4429 75.9945 42.7087C75.9945 41.0266 76.4303 39.7526 77.2833 39.0924C77.7082 38.7599 78.2372 38.5804 78.8681 38.5804C79.5884 38.5804 80.0067 38.774 80.3552 38.9909L80.1771 40.1682ZM89.4485 46.7674L85.8933 40.6174L89.1619 35.3505H88.4028L85.08 40.6871V35.3505H84.2899V46.7674H85.08V40.7491L88.5577 46.7674H89.4485ZM94.3282 40.9195V45.3267C94.3282 45.8844 94.4056 46.5041 94.4986 46.7984H93.817C93.7473 46.597 93.6698 46.2872 93.6233 45.714C93.2361 46.4808 92.6629 46.961 91.8728 46.961C90.7885 46.961 90.0449 46.0935 90.0449 44.6219C90.0449 42.8946 90.9821 41.9961 92.7171 41.9961H93.5923V40.9892C93.5923 39.7577 93.1354 39.231 92.2601 39.231C91.5785 39.231 90.9589 39.5563 90.5793 40.114L90.3702 39.3936C90.6878 38.9831 91.3539 38.5804 92.2601 38.5804C93.5846 38.5804 94.3282 39.3162 94.3282 40.9195ZM92.0355 46.3569C92.7868 46.3569 93.3058 45.6365 93.5923 44.7768V42.5538H92.7326C91.4158 42.5538 90.7807 43.158 90.7807 44.5677C90.7807 45.6985 91.2764 46.3569 92.0355 46.3569ZM99.9514 46.078L99.7113 45.4507C99.7113 45.4507 99.1459 46.3182 98.0925 46.3182C96.83 46.3182 96.2646 45.0014 96.2646 42.7939C96.2646 40.5167 96.8455 39.2232 98.0925 39.2232C98.7896 39.2232 99.3086 39.6415 99.6649 40.1372L99.874 39.3394C99.5177 38.9057 98.9368 38.5881 98.0925 38.5881C96.4272 38.5881 95.5055 40.145 95.5055 42.8017C95.5055 45.4274 96.4427 46.9765 98.077 46.9765C99.355 46.9765 99.9514 46.078 99.9514 46.078ZM105.071 45.4507L105.311 46.078C105.311 46.078 104.715 46.9765 103.437 46.9765C101.803 46.9765 100.865 45.4274 100.865 42.8017C100.865 40.145 101.787 38.5881 103.452 38.5881C104.289 38.5881 104.878 38.9057 105.234 39.3394L105.025 40.1372C104.668 39.6415 104.15 39.2232 103.46 39.2232C102.213 39.2232 101.632 40.5167 101.632 42.7939C101.632 45.0014 102.198 46.3182 103.46 46.3182C104.506 46.3182 105.071 45.4507 105.071 45.4507ZM110.292 45.3267V40.9195C110.292 39.3162 109.548 38.5804 108.231 38.5804C107.325 38.5804 106.659 38.9831 106.342 39.3936L106.551 40.114C106.93 39.5563 107.55 39.231 108.231 39.231C109.107 39.231 109.564 39.7577 109.564 40.9892V41.9961H108.688C106.953 41.9961 106.016 42.8946 106.016 44.6219C106.016 46.0935 106.76 46.961 107.844 46.961C108.642 46.961 109.215 46.4808 109.595 45.714C109.641 46.2872 109.726 46.597 109.788 46.7984H110.47C110.377 46.5041 110.292 45.8844 110.292 45.3267ZM109.564 44.7768C109.277 45.6365 108.75 46.3569 108.007 46.3569C107.248 46.3569 106.752 45.6985 106.752 44.5677C106.752 43.158 107.387 42.5538 108.704 42.5538H109.564V44.7768Z" fill="#333333"/>
<defs>
<linearGradient id="paint0_linear" x1="25.5312" y1="44.9284" x2="36.3949" y2="50.974" gradientUnits="userSpaceOnUse">
<stop stop-color="#00A9F9"/>
<stop offset="0.9899" stop-color="#0B89EA"/>
</linearGradient>
</defs>
</svg>
