<svg width="111" height="22" viewBox="0 0 111 22" xmlns="http://www.w3.org/2000/svg"><g fill="none" fill-rule="evenodd"><path fill="red" d="M6.97 1.637H5.942c-1.555 0-3.059 1.032-3.059 4.029 0 2.895 1.379 3.827 3.06 3.827H6.97V1.637zm-1.605 9.467l-3.059 6.9H.075l3.36-7.378C1.855 9.82.802 8.36.802 5.666.802 1.889 3.184 0 6.017 0h2.884v18.004h-1.93v-6.9H5.364z"/><path fill="#000" d="M46.415 11.658c0-3.978 1.53-6.521 4.49-6.521 1.127 0 1.78.302 2.331.654l-.276 1.864c-.526-.454-1.279-.881-2.081-.881-1.404 0-2.407 1.586-2.407 4.784 0 3.172.752 4.985 2.332 4.985.952 0 1.68-.377 2.131-.78l.451 1.46c-.677.579-1.479.957-2.633.957-2.708 0-4.338-2.19-4.338-6.522zm-5.716.025v6.32h-1.956V5.314h1.956v5.867l3.034-5.867h1.98L42.58 11.28l3.586 6.723h-2.132l-3.334-6.32zM31.496 10.5h3.235c0-2.166-.351-3.752-1.48-3.752-1.203 0-1.63 1.486-1.755 3.752zm2.156 7.68c-2.607 0-4.212-2.09-4.212-5.992 0-4.08 1.128-7.051 3.811-7.051 2.107 0 3.486 1.586 3.486 5.891v1.084H31.47c0 2.87.802 4.381 2.357 4.381 1.103 0 1.981-.504 2.482-.856l.452 1.51c-.802.63-1.856 1.033-3.11 1.033zM25.328 6.9h-2.182v.226c0 2.669-.125 6.571-1.178 9.266h3.36V6.899zm2.933 13.596h-1.755v-2.492H21.09v2.492h-1.755v-4.104h.777c1.153-2.695 1.279-6.622 1.279-9.996V5.313h5.867v11.079h1.003v4.104zM18.206 5.313v12.69h-1.93v-5.69h-2.91v5.69h-1.955V5.314h1.956V10.7h2.909V5.313h1.93zM65.358 1.032H61.47c-.075 4.558-.2 8.033-.401 10.626-.226 2.694-.627 4.482-1.304 5.314h5.592V1.032zm1.329 16.972h-7.673L58.838 21h-.978v-4.028h.527c.878-.731 1.304-2.745 1.554-5.314.251-2.669.326-6.647.402-11.658h6.268v16.972h1.23V21h-.979l-.175-2.996zM70.275 10.928h4.589c.2-3.374-.803-4.885-2.081-4.885-1.33 0-2.408 1.712-2.508 4.885zm2.758 6.295c1.68 0 2.557-1.36 2.557-1.36l.377.957s-.953 1.435-2.959 1.435c-2.682 0-3.912-2.443-3.912-6.597s1.555-6.597 3.687-6.597c2.18 0 3.585 2.292 3.184 6.8H70.25c.05 3.474.952 5.362 2.783 5.362zM83.692 11.885h-4.313v6.119H78.2V5.313h1.179v5.615h4.313V5.313h1.178v12.69h-1.178v-6.118M88.834 10.953v6.119h.752c1.78 0 2.984-.881 2.984-3.072 0-2.14-1.053-3.047-2.859-3.047h-.877zm-1.178-5.64h1.178v4.709h.928c2.407 0 3.962 1.309 3.962 3.953 0 2.694-1.655 4.029-4.037 4.029h-2.031V5.313zM96.91 6.295v11.709h-1.154V5.313h5.341v.982H96.91M108.797 9.165c0-.654.05-1.208.1-1.737h-.075c-.175.554-.4 1.083-.677 1.637l-4.112 8.939h-1.003V5.313h1.104v8.813c0 .68-.051 1.233-.1 1.787h.074c.176-.578.426-1.132.677-1.686l4.113-8.914h1.027v12.69h-1.128V9.166"/></g></svg>