<svg xmlns="http://www.w3.org/2000/svg" width="112" height="59" viewBox="0 0 120 63" fill="none"><g clip-path="url(#C)"><g clip-path="url(#D)"><g fill="#000"><path d="M55.67 50.214h-2.492l-1.764 3h-.908l-.03-6.474h-2.36v11.692h2.36l.03-3.2h.902l2.342 3.2h2.614L53.3 54.17l2.36-3.957zm17.855 3.85a6.37 6.37 0 0 0-1.544-.698l-.66-.24c-.324-.117-.665-.24-.677-.558a.54.54 0 0 1 .063-.272c.044-.084.1-.156.2-.208a1.15 1.15 0 0 1 .578-.19 1.92 1.92 0 0 1 1.261.363l.064.04 1.26-1.4-.064-.05a3.09 3.09 0 0 0-.51-.357 3.47 3.47 0 0 0-1.046-.374 4 4 0 0 0-1.608 0 3.06 3.06 0 0 0-1.41.558c-.264.2-.484.447-.65.728a2.41 2.41 0 0 0-.311.913 2.3 2.3 0 0 0 .428 1.641 3.5 3.5 0 0 0 1.735 1.005l.104.034.237.078c.856.28 1.1.4 1.237.558a.5.5 0 0 1 .104.29c0 .396-.503.558-.844.66-.24.043-.484.04-.72-.013a1.84 1.84 0 0 1-.656-.288 2.81 2.81 0 0 1-.798-.776l-1.417 1.4.04.056c.63.76 1.512 1.3 2.498 1.496a5.57 5.57 0 0 0 .682.084h.237a3.68 3.68 0 0 0 2.174-.653c.428-.292.756-.7.943-1.172a2.22 2.22 0 0 0 .118-.988 2.24 2.24 0 0 0-.326-.943 2.39 2.39 0 0 0-.717-.72zm7.62 0a6.32 6.32 0 0 0-1.538-.698l-.526-.2-.133-.05c-.33-.117-.665-.24-.682-.558.001-.094.026-.186.07-.27a.61.61 0 0 1 .189-.21 1.15 1.15 0 0 1 .578-.19c.452-.03.9.1 1.26.363l.058.04 1.26-1.4-.058-.05c-.158-.136-.33-.256-.515-.357-.323-.18-.675-.306-1.04-.374a4.02 4.02 0 0 0-1.613 0 3.1 3.1 0 0 0-1.41.558c-.266.197-.488.444-.655.724a2.4 2.4 0 0 0-.317.911 2.26 2.26 0 0 0 .428 1.64 3.5 3.5 0 0 0 1.735 1.005l.098.033.237.078c.862.28 1.104.4 1.243.558a.44.44 0 0 1 .098.29c0 .396-.497.558-.84.66a1.85 1.85 0 0 1-.723-.013 1.84 1.84 0 0 1-.66-.288 2.96 2.96 0 0 1-.798-.776l-1.417 1.4.046.056c.63.76 1.512 1.3 2.498 1.496a5.57 5.57 0 0 0 .682.084h.237a3.68 3.68 0 0 0 2.174-.653 2.57 2.57 0 0 0 .943-1.172 2.23 2.23 0 0 0 .118-.988 2.24 2.24 0 0 0-.326-.943 2.38 2.38 0 0 0-.706-.714zm-17.73-3.85v.804h-.104c-.646-.624-1.52-.977-2.434-.982a4.14 4.14 0 0 0-1.633.303c-.516.2-.98.524-1.363.92a4.31 4.31 0 0 0-1.156 3.036c-.03 1.136.383 2.24 1.156 3.097.373.396.83.7 1.34.92a4.01 4.01 0 0 0 1.615.298 3.99 3.99 0 0 0 2.486-.921h.093v.72h2.452v-8.192h-2.452zm.122 4.124c.025.66-.204 1.306-.642 1.814a2.15 2.15 0 0 1-.759.526 2.22 2.22 0 0 1-.918.166c-.305.005-.608-.057-.886-.18a2.02 2.02 0 0 1-.716-.534 2.67 2.67 0 0 1-.625-1.836 2.58 2.58 0 0 1 .636-1.77 2.06 2.06 0 0 1 .722-.525 2.15 2.15 0 0 1 .885-.178 2.18 2.18 0 0 1 .911.169 2.11 2.11 0 0 1 .749.529 2.64 2.64 0 0 1 .642 1.819zm26.547-4.124v.804h-.104a3.53 3.53 0 0 0-2.43-.982 4.14 4.14 0 0 0-1.635.304 4.02 4.02 0 0 0-1.366.918c-.77.833-1.184 1.92-1.156 3.036-.03 1.136.383 2.24 1.156 3.097.373.396.83.7 1.34.92a4.01 4.01 0 0 0 1.615.298 3.99 3.99 0 0 0 2.486-.921h.093v.72h2.452v-8.192h-2.452zm.12 4.124a2.6 2.6 0 0 1-.642 1.814 2.15 2.15 0 0 1-.759.526 2.22 2.22 0 0 1-.918.166 2.09 2.09 0 0 1-.885-.18 2.02 2.02 0 0 1-.716-.534 2.67 2.67 0 0 1-.624-1.836 2.58 2.58 0 0 1 .636-1.77 2.06 2.06 0 0 1 .722-.525 2.15 2.15 0 0 1 .885-.178c.313-.01.624.048.9.17a2.11 2.11 0 0 1 .748.53c.44.5.67 1.157.642 1.82z"/></g><path d="M32.013 45.36c-5.1 0-9.14 3.964-9.14 8.82 0 4.912 4.107 8.82 9.14 8.82s9.14-3.963 9.14-8.82-4.107-8.82-9.14-8.82zm0 12.058c-1.85 0-3.413-1.507-3.413-3.294s1.562-3.294 3.413-3.294 3.413 1.507 3.413 3.294a3.4 3.4 0 0 1-3.413 3.294z" fill="url(#A)"/><path d="M22.816 47.872v12.84h-3.24l-4.164-12.84h7.403z" fill="url(#B)"/></g></g><path fill-rule="evenodd" d="M11.174.6c2.037 0 2.767 1.367 3.323 2.82l6.183 16.926c.045.13.015.343-.185.42l-3.304 1.28c-.163.062-.345-.028-.404-.19l-1.42-3.916H6.98L5.56 21.855c-.056.155-.23.26-.405.19l-3.3-1.28c-.17-.066-.246-.258-.187-.42L7.84 3.424l.124-.318C8.5 1.79 9.283.6 11.174.6zM61 13.268v-3.164H58.93v3.164l-.302.025c-1.288.128-2.28.523-2.98 1.188-.752.715-1.128 1.69-1.128 2.926 0 1.162.39 2.113 1.168 2.853.723.687 1.706 1.1 2.95 1.268l.29.032v3.545H61V21.56l.292-.03c1.246-.145 2.226-.554 2.938-1.227.767-.725 1.15-1.69 1.15-2.897 0-1.182-.388-2.14-1.165-2.87-.72-.68-1.697-1.093-2.927-1.238l-.288-.03zM21.436 28.6a.32.32 0 0 0-.314-.26H1.217l-.064.007c-.145.03-.253.163-.253.32v3.622l.008.074c.033.143.158.25.31.25l19.97-.007a.32.32 0 0 0 .255-.317v-3.622l-.006-.065zm74.853-7.1h2.234v-8.188h-6.196l-.055.79-.33 3.068c-.15.935-.317 1.603-.505 2.003s-.42.6-.7.6a1.83 1.83 0 0 1-.538-.082l-.18-.064v1.787l.148.062c.307.115.683.172 1.127.172.605 0 1.095-.2 1.468-.604s.673-1.055.897-1.956c.21-.837.388-2.074.537-3.713l.034-.385h2.058v6.51zM70.58 13.143c1.1 0 1.94.24 2.527.718.54.442.832 1.096.874 1.962l.005.22V21.5h-1.56l-.432-1.113h-.058l-.162.194c-.325.37-.658.634-1 .79-.398.183-.917.275-1.556.275-.786 0-1.405-.225-1.857-.674s-.677-1.09-.677-1.92c0-.87.304-1.5.912-1.923.557-.378 1.374-.602 2.45-.67l.3-.015 1.42-.044v-.36l-.005-.15c-.05-.73-.473-1.094-1.27-1.094-.582 0-1.254.156-2.017.47l-.3.125-.74-1.51.286-.14c.867-.4 1.816-.6 2.85-.6zM43.467 21.5v-8.188H37.27l-.055.79-.33 3.068c-.15.935-.317 1.603-.505 2.003s-.42.6-.7.6a1.83 1.83 0 0 1-.538-.082l-.18-.064v1.787l.148.062c.307.115.683.172 1.126.172.605 0 1.095-.2 1.468-.604s.673-1.055.897-1.956c.21-.837.388-2.074.537-3.713l.034-.385h2.058v6.51h2.234zm4.578-8.188v3.164h1.575l.285.003c1.116.03 1.954.228 2.513.597.605.4.908 1.006.908 1.816 0 1.678-1.124 2.546-3.373 2.604l-.245.003H45.81v-8.188h2.234zM34.964 21.5L31.17 10.748h-2.776L24.615 21.5h2.446l.776-2.55h3.904l.776 2.55h2.446zM83.56 10.792v5.185l3.838-5.185h2.417l-3.904 5.142 4.11 5.566h-2.578l-3.882-5.427V21.5h-2.27V10.792h2.27zm19.468 2.52h-2.16V21.5h2.68l3.764-5.727-.03.344-.1 1.456-.014.458-.002.203V21.5h2.16v-8.188h-2.687l-3.78 5.742.078-.957.08-1.17.01-.304.001-3.312zm10.876 0v3.977l3.135-3.977h2.46l-3.245 3.926 3.53 4.263h-2.534l-3.347-4.153V21.5h-2.234v-8.188h2.234zm-43 4.424l.864-.03v.674l-.007.18c-.034.4-.186.746-.458 1.006-.3.298-.724.447-1.24.447-.723 0-1.084-.315-1.084-.945 0-.44.16-.767.476-.982.278-.188.683-.3 1.215-.34l.236-.012zm-21.328.286h-1.53v1.934h1.56c.99 0 1.487-.344 1.487-1.033 0-.317-.127-.547-.38-.69-.218-.12-.527-.19-.927-.208l-.208-.004zm9.148-3.042l.205-.034v4.922l-.213-.036c-.554-.112-.998-.36-1.333-.744-.376-.432-.564-.992-.564-1.68 0-.66.194-1.213.582-1.663.345-.4.786-.654 1.322-.764zM61 14.974v4.893c.65-.088 1.16-.35 1.53-.784s.557-.994.557-1.677c0-.645-.183-1.188-.55-1.63-.325-.393-.767-.648-1.324-.765L61 14.974zm18.494 3.42v-1.83h-3.933v1.83h3.933zM29.793 12.41l-.156.57-.375 1.275-.853 2.792h2.79l-1.212-3.92-.096-.333-.098-.385zm-18.64-6.75h.037l2.845 8.514H8.32l2.835-8.514z" fill="#ee2a23"/><defs><linearGradient id="A" x1="32.013" y1="45.36" x2="32.013" y2="63" gradientUnits="userSpaceOnUse"><stop stop-color="#0160d1"/><stop offset="1" stop-color="#00479c"/></linearGradient><linearGradient id="B" x1="19.114" y1="47.872" x2="19.114" y2="60.711" gradientUnits="userSpaceOnUse"><stop stop-color="#0160d1"/><stop offset="1" stop-color="#00479c"/></linearGradient><clipPath id="C"><path fill="#fff" transform="translate(12.5 45)" d="M0 0h87v18H0z"/></clipPath><clipPath id="D"><path fill="#fff" transform="translate(15.412 45.36)" d="M0 0h77.172v17.64H0z"/></clipPath></defs></svg>