<svg width="134" height="48" viewBox="0 0 134 48" fill="none" xmlns="http://www.w3.org/2000/svg">
<path fill-rule="evenodd" clip-rule="evenodd" d="M33.5063 15.5613L33.9467 14.1489L32.4888 14.1954C32.3664 14.1954 31.4704 14.1686 30.6029 13.5388C30.6681 13.5441 30.7316 13.5539 30.7995 13.5539C31.6928 13.5539 32.5584 13.0144 32.9042 12.2425L33.5313 10.8489C32.7451 10.8597 32.026 10.7605 32.026 10.7605C32.0197 10.7605 31.4534 10.6863 30.7986 10.0155C30.3287 9.53573 29.7471 9.28113 29.1173 9.28113C28.868 9.28209 28.6203 9.32157 28.383 9.39816C28.416 9.2856 28.4473 9.17036 28.4661 9.05244C28.6653 7.74817 27.8282 6.75478 27.8282 6.75478L26.7321 5.39513L26.0523 6.99241C26.0496 6.99777 25.8781 7.37297 25.5717 7.55521C25.4788 7.08532 25.251 6.55736 24.765 6.05262C23.8475 5.10212 22.7318 4.95918 22.1475 4.95918C21.8768 4.95918 21.683 4.98956 21.6365 4.9967L20.3135 5.25756C20.3894 4.96186 20.5529 4.44462 20.8495 3.98098L21.5803 2.84198L19.7427 3.05192L19.1575 1.80661L18.0239 2.39174L16.976 1.35458L15.9308 2.39085L14.7954 1.80661L14.2111 3.05102L12.3745 2.84109L13.1061 3.98188C13.4036 4.44552 13.5653 4.96008 13.6412 5.25577L12.3789 5.00564L12.3351 4.99938C12.1608 4.97192 11.9846 4.95848 11.8081 4.95918C11.2238 4.95918 10.1081 5.10212 9.19329 6.05262C8.70643 6.55646 8.47773 7.08532 8.38483 7.55521C8.0802 7.37386 7.90957 7.00581 7.90957 7.00581L7.22885 5.39781L6.11487 6.76818C5.97908 6.94417 5.30819 7.8786 5.48953 9.05512C5.50919 9.17214 5.53956 9.28649 5.57261 9.39905C5.336 9.32221 5.08886 9.28272 4.84008 9.28202C4.20939 9.28202 3.62783 9.53662 3.15704 10.0163C2.50491 10.6846 1.94121 10.7605 1.94568 10.7605C1.94568 10.7605 1.34983 10.8677 0.427013 10.8498L1.05145 12.2434C1.39807 13.0153 2.2646 13.5548 3.15615 13.5548C3.22404 13.5548 3.28747 13.545 3.35357 13.5397C2.48704 14.1703 1.59192 14.1963 1.48383 14.1963L0 14.1489L0.449347 15.5604C0.676253 16.2893 1.43201 17.4944 2.87921 17.624C2.72199 18.285 2.37269 19.0265 1.60621 19.3463L0.500267 19.8019L1.10327 20.8543C1.44363 21.4215 2.24316 22.0853 3.38037 22.0853C3.62604 22.0853 3.86367 22.0594 4.09325 22.0111C4.15132 22.2702 4.22457 22.5293 4.31123 22.7883C4.64891 23.7978 4.35768 24.5017 4.35411 24.5098L3.80917 25.655L5.02679 25.9766C5.04197 25.982 5.41092 26.0838 5.87099 26.0838C6.08003 26.0838 6.28013 26.0615 6.46773 26.0168C6.60888 25.9838 6.74467 25.9391 6.87599 25.8864C7.03411 26.1696 7.22528 26.4287 7.44861 26.66C8.22939 27.4631 9.33712 27.8696 10.7379 27.8696H10.7423L11.7429 27.8562L9.67569 28.7174L11.2453 29.4776C11.8161 29.7563 12.4915 30.0851 13.1811 30.337L12.9846 30.8739L13.5251 31.1213C13.5733 31.1437 14.6149 31.6091 16.3435 31.7083C16.3435 31.7083 16.7607 31.7279 16.9903 31.7279C17.2208 31.7279 17.6335 31.7074 17.6335 31.7074C19.3505 31.6055 20.3832 31.1437 20.4314 31.1213L20.9737 30.8739L20.7763 30.3361C21.4838 30.077 22.185 29.734 22.7327 29.4669L24.2728 28.7165L22.2118 27.8562L23.2168 27.8696C24.6194 27.8696 25.7271 27.4623 26.507 26.6591C26.7294 26.4287 26.9197 26.1705 27.0787 25.8864C27.3976 26.0183 27.7396 26.0851 28.0846 26.0829C28.5375 26.0829 28.9101 25.9829 28.9199 25.9793L30.1437 25.655L29.6104 24.5303C29.5979 24.5017 29.3067 23.7978 29.6444 22.7865C29.731 22.5293 29.8034 22.2693 29.8624 22.0111C30.0919 22.0594 30.3322 22.0844 30.5797 22.0853C32.0287 22.0853 32.7237 21.0642 32.8577 20.8427L33.4553 19.801L32.3494 19.3463C31.5811 19.0274 31.2327 18.2859 31.0773 17.6258C32.5057 17.5007 33.2713 16.2947 33.5071 15.5622L33.5063 15.5613Z" fill="#FFFFFE"/>
<path fill-rule="evenodd" clip-rule="evenodd" d="M16.9762 5.68099C15.8059 5.68189 14.9278 6.06602 14.7366 6.51894L16.9762 7.40334L19.2167 6.51894C19.0273 6.06602 18.1491 5.68189 16.9762 5.68099ZM17.0003 29.1212H16.9556C16.2463 29.1256 15.2681 28.98 14.7982 28.8416L14.2319 30.3772C14.6053 30.5103 15.8702 30.7658 16.9789 30.7658C18.0857 30.7658 19.3516 30.5103 19.7241 30.3772L19.1586 28.8424C18.686 28.98 17.7096 29.1256 17.0003 29.1212ZM21.2856 27.5936C20.864 27.833 19.9233 28.1921 19.3757 28.3583L19.8349 29.6268C20.6817 29.3945 21.3812 29.1238 21.9583 28.8335L21.0042 28.5164L21.2856 27.5936ZM12.6694 27.5936L12.9517 28.5164L11.9967 28.8335C12.5729 29.1238 13.2751 29.3945 14.1193 29.6259L14.5794 28.3574C14.0327 28.1912 13.0902 27.833 12.6694 27.5936ZM16.9762 4.21325C17.8597 4.21325 18.7244 4.42497 19.3909 4.7957C19.4516 4.59202 19.5365 4.34367 19.6517 4.08371L19.3998 4.11409L19.1363 4.14089L19.0246 3.90058L18.6869 3.18859L18.0741 3.50841L17.8347 3.6299L17.6435 3.4423L16.9762 2.78123L16.3106 3.4423L16.1204 3.6299L15.8819 3.50841L15.2655 3.18859L14.9322 3.90058L14.8188 4.14178L14.5544 4.11409L14.3042 4.08371C14.4195 4.34367 14.5034 4.59202 14.5651 4.7957C15.2333 4.42497 16.098 4.21325 16.9771 4.21325H16.9762ZM30.4521 12.4471C30.5674 12.4864 30.6835 12.5043 30.7987 12.5043C31.299 12.5043 31.7814 12.18 31.9467 11.8102C31.9467 11.8102 31.031 11.7548 30.0465 10.7533C29.7339 10.43 29.4016 10.3326 29.1175 10.3326C28.6753 10.3326 28.343 10.5657 28.343 10.5657C29.5329 11.2 29.775 12.2184 30.4521 12.4471ZM3.15632 12.5034C3.27245 12.5034 3.38858 12.4864 3.50025 12.4462C4.17918 12.2175 4.42396 11.2 5.6112 10.5666C5.6112 10.5666 5.27888 10.3326 4.83936 10.3326C4.55349 10.3326 4.22206 10.4291 3.90761 10.7542C2.92405 11.7548 2.00928 11.811 2.00928 11.811C2.17365 12.18 2.65694 12.5043 3.15632 12.5043V12.5034Z" fill="#FFFFFE"/>
<path fill-rule="evenodd" clip-rule="evenodd" d="M30.0937 19.7528C29.1736 19.2972 28.5929 18.0912 28.4518 17.657C28.2999 20.0494 27.1341 21.7092 25.7718 23.3065C25.0642 24.1355 24.8177 24.9413 24.8177 24.9413C24.8177 24.9413 24.9544 24.0283 25.5654 23.285C26.8366 21.7556 28.0444 19.851 28.1346 17.6481C28.1963 16.1116 27.8023 14.8654 27.1859 13.838C27.5307 14.9073 27.4816 16.2179 26.3122 17.4408C26.3122 17.4408 28.6412 14.6465 25.3858 11.7807C24.0834 10.6908 22.6576 10.0172 21.9242 9.5402C24.5747 10.4067 25.87 9.45265 25.87 9.45265C25.0232 10.1879 23.927 10.1754 23.2472 10.069C23.4321 10.1593 23.6242 10.254 23.8297 10.3638C26.0657 11.5806 28.0739 13.5825 28.4169 16.3537V16.3322C28.936 19.0542 30.0937 19.7528 30.0937 19.7528ZM30.7744 16.5814C30.795 16.5832 30.8128 16.5832 30.8334 16.5832C32.0796 16.5832 32.5012 15.2459 32.5012 15.2459H32.4771C32.2484 15.2459 30.3957 15.1923 29.086 13.5245C28.2249 12.4283 27.5182 11.4644 26.1228 11.0857L25.9853 11.0606L25.9558 10.9204C25.9174 10.7069 26.063 10.5068 26.3953 10.2915C28.3204 9.02832 27.0117 7.41674 27.0117 7.41674C27.0117 7.41674 26.4632 8.70493 25.2331 8.70493L25.1411 8.70314C25.0017 8.696 24.8668 8.69153 24.731 8.66205L24.5041 8.61738C24.5041 8.61738 24.8552 7.66152 24.0083 6.78516C23.3714 6.1223 22.5951 6.00974 22.1475 6.00974C21.9215 6.00974 21.7786 6.03922 21.7786 6.03922C22.2038 6.59577 22.5111 7.52037 22.0198 8.09032C21.5954 8.57986 20.5592 8.60398 20.5592 9.33473C20.5592 9.64382 20.8477 10.0047 21.3658 10.329C22.9238 11.3117 24.4702 12.6159 25.1134 14.3642C25.9174 16.5439 25.0115 17.9911 23.7198 18.821C23.7198 18.821 24.1254 19.1944 24.7123 19.2427C24.832 19.2543 24.949 19.2597 25.058 19.2597C26.2988 19.2597 26.9402 18.6763 26.9402 18.6763C26.9402 18.6763 26.8339 19.4821 26.1898 20.2298C25.5931 20.9195 24.8114 21.3268 23.6188 21.3438C23.6188 21.3438 23.5813 21.8977 24.1093 22.3783C24.4478 22.6811 25.2277 22.7803 25.2277 22.7803C25.2277 22.7803 23.7662 23.076 23.6045 25.2387C23.517 26.4108 23.2186 26.8173 23.2186 26.8173H23.2445C26.6356 26.8173 26.549 23.9032 26.549 23.9032C26.549 23.9032 26.7848 24.7662 27.7308 24.9913C27.8452 25.0217 27.9676 25.0333 28.0837 25.0333C28.3874 25.0333 28.6528 24.9618 28.6528 24.9618C28.6528 24.9618 28.157 23.9148 28.6483 22.4506C29.0566 21.2348 28.9904 20.3343 28.9904 20.3343C28.9904 20.3343 29.4469 21.0267 30.5806 21.0329H30.5922C30.86 21.0371 31.1245 20.9736 31.3612 20.8483C31.5979 20.7231 31.7992 20.5402 31.9465 20.3165C29.6855 19.3758 29.9088 16.3411 29.9088 16.3411C29.9088 16.3411 30.2018 16.5609 30.7744 16.5823V16.5814ZM8.18293 23.3065C6.82059 21.7092 5.65479 20.0494 5.50114 17.657C5.36089 18.0921 4.78111 19.2981 3.86187 19.7528C3.86187 19.7528 5.01785 19.0542 5.53687 16.3322V16.3537C5.88081 13.5825 7.88902 11.5806 10.125 10.3647C10.3305 10.2531 10.5235 10.1593 10.7066 10.0699C10.0277 10.1754 8.93065 10.1879 8.08466 9.45354C8.08466 9.45354 9.37999 10.4067 12.0296 9.5402C11.2971 10.0172 9.87133 10.6908 8.56974 11.7807C5.31354 14.6465 7.64246 17.4408 7.64246 17.4408C6.47219 16.217 6.42395 14.9082 6.76878 13.838C6.15238 14.8654 5.75753 16.1116 5.82185 17.649C5.91029 19.851 7.11718 21.7556 8.38571 23.2859C9.00033 24.0274 9.13879 24.9404 9.13879 24.9404C9.13879 24.9404 8.88866 24.1355 8.18293 23.3065ZM8.72786 22.7794C8.72786 22.7794 9.50774 22.6811 9.84631 22.3774C10.3734 21.8977 10.3368 21.3438 10.3368 21.3438C9.14326 21.3268 8.36249 20.9195 7.76306 20.2298C7.12165 19.4821 7.01445 18.6763 7.01445 18.6763C7.01445 18.6763 7.65586 19.2597 8.89491 19.2597C9.00658 19.2597 9.12271 19.2543 9.24153 19.2427C9.60815 19.2056 9.95501 19.0586 10.2367 18.821C8.94315 17.9911 8.03731 16.5439 8.84042 14.3633C9.48362 12.6168 11.0291 11.3117 12.5888 10.3281C13.1061 10.0047 13.3937 9.64382 13.3937 9.33473C13.3937 8.60398 12.3593 8.57986 11.9349 8.09032C11.4436 7.52037 11.7518 6.59577 12.1761 6.03922C12.1761 6.03922 12.0341 6.00974 11.8072 6.00974C11.3605 6.00974 10.5842 6.1223 9.94637 6.78516C9.0977 7.66241 9.45057 8.61828 9.45057 8.61828L9.22366 8.66294C9.08877 8.69064 8.95209 8.696 8.81273 8.70404L8.72339 8.70493C7.49059 8.70493 6.94298 7.41764 6.94298 7.41764C6.94298 7.41764 5.63603 9.02832 7.56117 10.2915C7.8917 10.5068 8.03731 10.7078 7.9989 10.9204L7.96942 11.0598L7.82917 11.0848C6.43646 11.4644 5.72983 12.4283 4.86687 13.5245C3.55725 15.1923 1.70626 15.2459 1.47667 15.2459H1.45166C1.45166 15.2459 1.87421 16.5832 3.1213 16.5832C3.14095 16.5832 3.15882 16.5832 3.18026 16.5814C3.75289 16.5609 4.04679 16.3411 4.04679 16.3411C4.04679 16.3411 4.26834 19.3758 2.00821 20.3165C2.00821 20.3165 2.42003 21.0338 3.36339 21.0338H3.37411C4.50865 21.0267 4.96425 20.3343 4.96425 20.3343C4.96425 20.3343 4.89814 21.2357 5.30461 22.4506C5.79594 23.9157 5.30282 24.9609 5.30282 24.9609C5.30282 24.9609 5.56635 25.0324 5.87098 25.0324C5.9889 25.0324 6.1095 25.0217 6.22295 24.9913C7.1681 24.7662 7.40483 23.9032 7.40483 23.9032C7.40483 23.9032 7.31818 26.8173 10.7102 26.8173H10.7352C10.7352 26.8173 10.4377 26.4108 10.351 25.2387C10.1902 23.0769 8.72697 22.7794 8.72697 22.7794H8.72786ZM16.2113 12.0415H17.8104V12.5909C17.6228 12.3604 17.2565 12.4078 17.2565 12.4078V13.2002C17.2565 13.2002 17.269 13.5897 17.4066 13.7585H16.6151C16.7536 13.5897 16.7652 13.2002 16.7652 13.2002V12.4078C16.7652 12.4078 16.4007 12.3604 16.2113 12.5909V12.0415ZM14.4693 12.1237C14.5247 12.1836 14.5792 12.2488 14.6319 12.314C14.6444 12.3292 14.656 12.3426 14.6685 12.3604C14.7177 12.4248 14.7668 12.4944 14.8141 12.5641L14.8463 12.6115C14.9026 12.6972 14.9562 12.7857 15.0098 12.8777C15.4993 13.7237 16.2819 14.2293 16.976 14.2302C17.6719 14.2293 18.4536 13.7237 18.944 12.8777C18.9985 12.7839 19.053 12.6928 19.1102 12.607C19.1754 12.5071 19.2451 12.4102 19.3192 12.3167C19.3737 12.2488 19.43 12.1827 19.4872 12.1219C19.497 12.113 19.505 12.1032 19.5149 12.0951C19.765 11.8396 20.0607 11.6449 20.4502 11.5368L20.2769 11.4358H20.2679L19.5783 11.0356L18.8717 10.6292L16.9814 11.6601L16.976 11.6556L16.9733 11.6601L15.083 10.6292L14.3755 11.0356L13.6859 11.4358H13.6778L13.5036 11.5368C13.8922 11.644 14.1888 11.837 14.4389 12.0933C14.4497 12.1023 14.4568 12.1148 14.4693 12.1237Z" fill="#FFFFFE"/>
<path fill-rule="evenodd" clip-rule="evenodd" d="M16.3747 8.54859V9.06673L16.2755 9.02027C16.271 9.0167 16.1245 8.98454 15.8717 8.78265C15.4528 8.45747 15.4447 8.15731 15.4447 8.15731L16.3738 8.54859H16.3747ZM16.8124 10.9758V7.75799L14.7685 7.06298L15.308 10.1807L16.8133 10.9758H16.8124ZM17.5807 8.54859L18.5097 8.15731C18.5097 8.15731 18.5026 8.45747 18.0818 8.78265C17.829 8.98365 17.6834 9.0167 17.6789 9.02027L17.5807 9.06583V8.54859ZM18.6464 10.1816L19.1833 7.06387L17.1403 7.75799V10.9758L18.6464 10.1807V10.1816ZM13.9216 18.4351C14.1208 18.5066 14.362 18.5218 14.4862 18.5218C14.4906 18.5066 14.4978 18.4878 14.504 18.4646C14.5139 18.4289 14.5246 18.3913 14.5326 18.352C14.5675 18.1734 14.5791 17.9724 14.5826 17.8419C14.4684 17.774 14.3753 17.6757 14.3138 17.5579C14.2378 17.398 14.1297 17.3229 13.9716 17.3229C13.7661 17.3229 13.5455 17.448 13.4499 17.5052C13.3749 17.95 13.7027 18.3538 13.9216 18.4342V18.4351ZM18.4436 16.728C18.0649 17.1416 17.3207 17.8625 17.285 17.8982L17.2403 17.9429L14.8908 17.9063C14.8889 18.1006 14.8637 18.2941 14.8158 18.4825L14.797 18.5566L17.5905 19.0604C17.8808 18.8568 18.6804 18.2716 18.9913 18.042C18.7652 17.7115 18.7438 17.3193 18.7947 17.0442C18.6606 16.9595 18.5419 16.8525 18.4436 16.728Z" fill="#FFFFFE"/>
<path fill-rule="evenodd" clip-rule="evenodd" d="M18.7626 13.8979C18.2212 14.4357 17.7022 14.6349 17.2385 14.6813C17.1537 14.6905 17.0684 14.6953 16.983 14.6956H16.9714C16.8009 14.6956 16.6308 14.6776 16.464 14.642C16.4336 14.7626 16.3952 15.0154 16.5051 15.2549C16.6034 15.4719 16.8026 15.6336 17.0938 15.7417L17.1921 15.7801L17.193 15.8855C17.193 15.9168 17.2162 16.6011 17.9612 16.7914C18.0827 16.6663 18.1935 16.5529 18.2739 16.4573C18.122 16.0991 18.2024 15.7328 18.4231 15.5532C18.4142 15.5916 18.3159 16.4894 19.035 16.8235L19.1538 16.8798L19.1181 17.0058C19.1065 17.0442 18.8671 17.9134 19.7381 18.2368L19.8917 18.2958L19.8229 18.4449C19.8078 18.478 19.4665 19.2668 20.2705 19.7153H22.0134V18.3279C21.3934 18.252 21.1317 17.7526 21.0638 17.3989C20.7752 17.3497 20.5528 17.2255 20.4 17.0228C20.0338 16.5404 20.3482 16.0982 20.3527 16.074C20.3518 16.0776 20.3527 16.5475 20.6421 16.8387C20.786 16.9781 20.9557 17.0871 21.2139 17.1112L21.3398 17.1228L21.3505 17.2523C21.3532 17.28 21.422 17.917 22.0134 18.017L22.0125 15.1852C22.0125 14.7457 22.1403 14.3043 22.2939 13.897H18.7626V13.8979ZM14.0699 15.1959L14.0234 16.9986L14.2289 17.0308L14.7292 15.3004L14.4746 14.768L14.0708 15.1959H14.0699ZM15.1544 21.8727C15.1406 21.8722 15.1271 21.869 15.1147 21.8632C15.1023 21.8573 15.0911 21.849 15.082 21.8387C15.0729 21.8284 15.066 21.8164 15.0617 21.8033C15.0574 21.7903 15.0558 21.7765 15.057 21.7628C15.0578 21.7492 15.0613 21.736 15.0673 21.7238C15.0733 21.7116 15.0816 21.7008 15.0918 21.6919C15.1021 21.683 15.114 21.6762 15.1269 21.672C15.1398 21.6677 15.1534 21.6661 15.1669 21.6672C15.2259 21.6699 15.2669 21.7208 15.2652 21.7762C15.2631 21.8036 15.2503 21.8291 15.2296 21.8472C15.2088 21.8652 15.1818 21.8744 15.1544 21.8727ZM19.5871 23.4691C19.6023 23.4691 19.6202 23.4708 19.6362 23.4753C19.9489 23.5646 20.0266 24.6885 20.5725 24.7885C20.6261 24.8001 20.6761 24.8028 20.719 24.8028C20.8771 24.8028 20.9709 24.7358 21.0727 24.6152C21.0727 24.6152 20.7976 24.1837 20.5921 23.8916C20.3196 23.5093 20.1079 23.0474 19.5996 23.0474C19.5871 23.0474 19.5728 23.0474 19.5594 23.0492C19.4626 23.0531 19.369 23.0847 19.2896 23.1403C19.12 23.0281 18.9213 22.9675 18.7179 22.9661C18.4008 22.9661 18.1524 23.1126 18.0282 23.1126H18.0238L16.8892 23.0001C16.7115 22.9822 16.5712 22.8035 16.5203 22.7338L16.5006 22.7035C16.5006 22.6722 16.5006 22.6409 16.4989 22.6132C16.4604 21.6833 15.7422 21.2857 15.4858 21.2786C15.4858 21.2786 15.5162 21.1017 15.4474 21.0347L15.1973 21.3385L14.3754 20.9257L14.9614 21.6118L14.4656 22.1701C14.4031 22.2336 14.4111 22.3193 14.437 22.356L14.6514 22.5453L14.923 22.3801C14.9364 22.3703 14.9614 22.3667 14.9918 22.3667C15.0668 22.3667 15.1794 22.3863 15.2803 22.3863C15.392 22.3863 15.4876 22.3631 15.4992 22.2586C15.4653 22.6034 15.1455 23.2028 15.3554 23.6736L15.5108 24.0292L14.5076 23.8845L14.0377 24.6786C13.893 24.9431 13.8698 25.2289 14.0091 25.3844L14.1851 25.605C14.1851 25.605 14.4317 25.3433 14.4862 25.1709L14.4067 25.0833C14.3397 25.0092 14.3432 24.9431 14.3843 24.8635L14.6791 24.374L15.8628 24.6536L15.9253 24.5464C16.0057 24.4124 16.1219 24.3731 16.2487 24.3731C16.3014 24.3731 16.355 24.3794 16.4104 24.3883C16.6302 24.4321 16.992 24.4901 17.3538 24.4901C17.7513 24.4901 18.1453 24.4187 18.3552 24.1837C18.784 24.8207 19.6541 24.9216 19.5853 25.2459L19.3566 26.3375C19.5085 26.3304 19.6541 26.3206 19.7926 26.3018L20.0105 25.1664C20.0282 25.07 20.0437 24.9732 20.057 24.8761C19.973 24.7903 19.7702 24.6107 19.655 24.3919C19.5022 24.0962 19.5853 23.9416 19.4424 23.5575C19.4424 23.5575 19.4871 23.4682 19.5871 23.4682V23.4691Z" fill="#FFFFFE"/>
<path fill-rule="evenodd" clip-rule="evenodd" d="M13.5366 24.5009C13.5366 24.5009 13.9297 24.3401 13.9654 24.2239L13.9118 24.0935C13.8752 24.0077 13.8796 23.9148 13.952 23.8648L14.3754 23.5709L15.0838 23.7076C15.0838 23.7076 14.9552 23.5468 14.9677 23.3324L14.2924 23.1894L13.6545 23.578C13.5432 23.6606 13.4628 23.778 13.426 23.9116C13.3893 24.0452 13.3983 24.1872 13.4517 24.315L13.5366 24.5017V24.5009ZM18.5455 26.3518C18.6715 26.3465 18.8126 26.3447 18.9654 26.3447C18.9654 26.3447 19.3299 25.2772 19.3504 25.2432C19.0797 25.1169 18.8155 24.9771 18.5589 24.8242C18.667 24.9868 18.9296 25.1717 18.8778 25.3147L18.5455 26.3518Z" fill="#FFFFFE"/>
<path fill-rule="evenodd" clip-rule="evenodd" d="M22.0136 20.0208H11.9412V23.8166C11.9412 25.3692 13.0624 26.3402 14.7177 26.3402C16.0997 26.3402 16.4642 26.3938 16.9778 26.9057C17.3325 26.551 17.6255 26.4197 18.2285 26.3697L18.2419 26.3116L18.559 25.3281C18.5412 25.3057 18.023 24.7152 18.023 24.7152C17.8176 24.784 17.6443 24.7956 17.353 24.7956C17.0556 24.7956 16.7188 24.7599 16.3534 24.692C16.3192 24.6839 16.2841 24.6797 16.2489 24.6795C16.2042 24.6795 16.2015 24.6831 16.189 24.7054L16.1265 24.8099L16.0104 25.0011L15.7933 24.9502L14.8267 24.7224L14.6936 24.9413L14.7141 24.9654L14.8312 25.0949L14.7794 25.2646C14.7079 25.4853 14.4774 25.7435 14.4068 25.8149L14.1656 26.074L13.945 25.7962L13.7797 25.588C13.6055 25.3933 13.5653 25.0949 13.6636 24.7822C13.6607 24.7843 13.6573 24.7856 13.6538 24.7858L13.3813 24.8993L13.2589 24.6313L13.1722 24.4428C13.0891 24.2499 13.0741 24.0345 13.1298 23.832C13.1855 23.6295 13.3085 23.452 13.4787 23.3288L14.2559 22.8884L14.9973 23.034C15.0152 22.9625 15.042 22.7088 15.0625 22.6436C15.0482 22.6418 15.0348 22.6391 15.0206 22.6391L14.5935 22.7982L14.1826 22.5141C14.1826 22.5141 14.0218 22.3586 14.1674 22.2032L14.565 21.5984L13.5555 20.3299L15.1072 20.9677L15.2108 20.84L15.4199 20.588L15.6575 20.815C15.72 20.876 15.7634 20.9539 15.7826 21.0392C16.2096 21.2062 16.9761 21.6985 17.044 22.4989L16.8045 22.5945V22.6007C16.859 22.6659 16.9046 22.6927 16.9189 22.6954L18.0266 22.8044C18.0552 22.799 18.0892 22.7865 18.1285 22.7758C18.2669 22.7285 18.4733 22.6597 18.7181 22.6597C18.9182 22.6597 19.1111 22.7061 19.296 22.7937C19.3648 22.7669 19.4479 22.7481 19.5462 22.7419L19.5998 22.7401C20.1921 22.7401 20.4869 23.1841 20.7236 23.5387C20.7629 23.6004 20.8022 23.6575 20.8433 23.7147C21.0506 24.0077 21.3212 24.4356 21.332 24.4544L21.4543 24.6447L21.3043 24.8198C21.1899 24.9538 21.0157 25.1101 20.7191 25.1101C20.6519 25.1095 20.5849 25.1027 20.519 25.0896C20.4583 25.0779 20.3989 25.0596 20.3421 25.0351C20.333 25.0981 20.3226 25.1609 20.3109 25.2236L20.117 26.2393C21.2784 25.9534 22.0162 25.0744 22.0162 23.8166L22.0136 20.0208ZM11.9412 19.7153H19.7758C19.3845 19.3097 19.3907 18.7978 19.4899 18.4646C19.3842 18.4138 19.2859 18.3489 19.1978 18.2716C18.8914 18.4976 17.9569 19.1793 17.7131 19.3508L17.6604 19.3865L14.5855 18.8291H14.523C14.4497 18.8291 14.3416 18.8264 14.2237 18.8112C14.2111 18.8677 14.1824 18.9193 14.141 18.9597C14.0997 19.0002 14.0475 19.0279 13.9908 19.0393C13.9341 19.0507 13.8753 19.0455 13.8215 19.0242C13.7677 19.0029 13.7212 18.9665 13.6877 18.9193C13.6642 18.8871 13.6473 18.8505 13.6381 18.8117C13.6289 18.7729 13.6275 18.7326 13.6341 18.6933L13.6457 18.6263C13.3295 18.403 13.0356 17.9027 13.166 17.3756L13.1785 17.3202L13.2232 17.2881C13.2682 17.2573 13.3148 17.2287 13.3625 17.2023L13.1392 17.1666C13.0995 17.1598 13.0641 17.1378 13.0404 17.1052C13.0167 17.0727 13.0066 17.0322 13.0123 16.9924C13.0266 16.9084 13.1044 16.8494 13.1874 16.8646L13.719 16.9486L13.7681 15.0717L14.5596 14.232L15.0545 15.2745L14.5328 17.0808L15.0027 17.155C15.0428 17.1615 15.0787 17.1838 15.1025 17.2167C15.1263 17.2497 15.136 17.2908 15.1295 17.331C15.1238 17.3665 15.1055 17.3989 15.078 17.4221C15.0504 17.4454 15.0155 17.4581 14.9795 17.4578L14.9553 17.4569L14.5721 17.3944C14.5775 17.4069 14.5846 17.4131 14.59 17.4256C14.6326 17.4996 14.6968 17.5588 14.774 17.5954L17.1172 17.6338C17.2164 17.5364 17.462 17.2952 17.7157 17.0397C17.4949 16.9587 17.301 16.8177 17.1559 16.6326C17.0107 16.4475 16.92 16.2256 16.8939 15.9918C16.5723 15.8543 16.3489 15.6488 16.2257 15.3808C16.0756 15.0485 16.1292 14.7162 16.1694 14.5545C15.8567 14.441 15.528 14.232 15.1921 13.8979H11.6616C11.8135 14.3052 11.9412 14.7465 11.9412 15.1852V19.7144V19.7153Z" fill="#FFE52B"/>
<path fill-rule="evenodd" clip-rule="evenodd" d="M15.1669 21.6672C15.1533 21.6661 15.1396 21.6678 15.1267 21.672C15.1137 21.6763 15.1018 21.6832 15.0915 21.6922C15.0813 21.7012 15.073 21.7121 15.067 21.7244C15.0611 21.7367 15.0577 21.7501 15.057 21.7637C15.0559 21.7773 15.0576 21.791 15.062 21.804C15.0663 21.8169 15.0733 21.8288 15.0824 21.839C15.0915 21.8492 15.1025 21.8575 15.1149 21.8632C15.1273 21.869 15.1407 21.8722 15.1544 21.8727C15.1817 21.8744 15.2086 21.8654 15.2293 21.8475C15.25 21.8296 15.2629 21.8043 15.2652 21.7771C15.2666 21.7495 15.2571 21.7225 15.2387 21.7019C15.2203 21.6813 15.1945 21.6688 15.1669 21.6672ZM19.8355 29.6268L19.3754 28.3583C19.923 28.1912 20.8637 27.8321 21.2862 27.5936L21.0048 28.5164L21.958 28.8335C21.3809 29.123 20.6823 29.3936 19.8355 29.6259V29.6268ZM16.9786 30.7658C15.87 30.7658 14.605 30.5103 14.2316 30.3772L14.798 28.8425C15.2678 28.98 16.2452 29.1256 16.9554 29.1212H17C17.7093 29.1256 18.6857 28.9791 19.1583 28.8425L19.7238 30.3772C19.3504 30.5112 18.0854 30.7658 16.9786 30.7658ZM11.9974 28.8335L12.9514 28.5164L12.6691 27.5936C13.0899 27.8321 14.0333 28.1921 14.5791 28.3583L14.119 29.6268C13.2748 29.3945 12.5736 29.123 11.9974 28.8335ZM22.0009 28.5521L21.4202 28.3288L21.581 27.7285L21.757 27.0737C21.757 27.0737 20.7297 27.6329 19.2798 28.0519C18.8689 28.1698 18.558 28.2243 18.558 28.2243V28.67C18.558 28.67 17.7826 28.804 17 28.804H16.9554C16.171 28.804 15.3974 28.67 15.3974 28.67V28.2234C15.3974 28.2234 15.0856 28.1698 14.6747 28.0519C13.2266 27.632 12.1992 27.0737 12.1992 27.0737L12.3726 27.7285L12.5369 28.3288L11.9545 28.5521L11.3086 28.7933C12.0483 29.1515 13.0738 29.6724 14.0118 29.9296L13.7912 30.5353C13.7912 30.5353 14.9811 31.0785 16.9634 31.0838V31.0847H16.9902V31.0838C18.9752 31.0785 20.1651 30.5353 20.1651 30.5353L19.9418 29.9296C20.8807 29.6724 21.908 29.1524 22.6441 28.7933L22.0009 28.5521ZM14.555 4.1132L14.8185 4.14178L14.932 3.90058L15.2643 3.1886L15.8807 3.50841L16.1201 3.6308L16.9759 2.78034L17.6432 3.44141L17.8344 3.6308L18.0738 3.50841L18.6866 3.1886L19.0243 3.90058L19.136 4.14178L19.3995 4.1132L19.6514 4.08372C19.5362 4.34368 19.4513 4.59113 19.3897 4.7966C18.7242 4.42408 17.8594 4.21325 16.9768 4.21325C16.0978 4.21325 15.233 4.42408 14.5648 4.7966C14.4927 4.55379 14.4056 4.3157 14.3039 4.08372L14.5541 4.1132H14.555ZM16.9759 4.58398C18.1578 4.58398 19.102 4.97705 19.6246 5.39424C19.6246 5.39424 19.7801 4.45892 20.3089 3.63437L19.3575 3.74157L18.8599 2.68297L17.9041 3.17698L16.9759 2.25864L16.0513 3.17698L15.0936 2.68297L14.597 3.74246L13.6456 3.63348C14.1753 4.45892 14.3298 5.39334 14.3298 5.39334C14.8551 4.97616 15.7967 4.58398 16.9759 4.58398ZM31.9464 20.3165C31.9464 20.3165 31.5354 21.0338 30.5921 21.0338H30.5805C29.4477 21.0267 28.9903 20.3343 28.9903 20.3343C28.9903 20.3343 29.0564 21.2348 28.6491 22.4507C28.1578 23.9157 28.6527 24.9609 28.6527 24.9609C28.6527 24.9609 28.3882 25.0333 28.0836 25.0333C27.9675 25.0333 27.846 25.0217 27.7307 24.9913C26.7847 24.7671 26.5489 23.9041 26.5489 23.9041C26.5489 23.9041 26.6364 26.8173 23.2444 26.8173H23.2176C23.2176 26.8173 23.5169 26.4108 23.6053 25.2387C23.7661 23.0769 25.2276 22.7794 25.2276 22.7794C25.2276 22.7794 24.4477 22.6811 24.1092 22.3783C23.5812 21.8986 23.6178 21.3438 23.6178 21.3438C24.8113 21.3268 25.5939 20.9204 26.1897 20.2298C26.5737 19.788 26.8328 19.2517 26.9401 18.6763C26.9401 18.6763 26.2987 19.2597 25.0579 19.2597C24.9489 19.2597 24.8328 19.2543 24.7131 19.2427C24.1252 19.1953 23.7197 18.821 23.7197 18.821C25.0114 17.9911 25.9173 16.543 25.1142 14.3633C24.471 12.6168 22.9237 11.3117 21.3666 10.329C20.8485 10.0047 20.5591 9.64382 20.5591 9.33384C20.5591 8.60398 21.5953 8.58076 22.0206 8.09032C22.5119 7.52037 22.2037 6.59577 21.7785 6.03922C21.7785 6.03922 21.9214 6.00974 22.1474 6.00974C22.5959 6.00974 23.3713 6.1223 24.0091 6.78516C24.8551 7.66241 24.504 8.61828 24.504 8.61828L24.7309 8.66294C24.8667 8.69064 25.0016 8.69689 25.1419 8.70404L25.233 8.70493C26.4631 8.70493 27.0125 7.41674 27.0125 7.41674C27.0125 7.41674 28.3203 9.02832 26.3952 10.2915C26.0638 10.5068 25.9173 10.7078 25.9557 10.9204L25.9861 11.0606L26.1227 11.0848C27.5181 11.4644 28.2248 12.4292 29.0868 13.5245C30.3964 15.1923 32.2492 15.2459 32.477 15.2459H32.502C32.502 15.2459 32.0795 16.5832 30.8333 16.5832C30.8127 16.5832 30.7949 16.5832 30.7743 16.5815C30.2026 16.5609 29.9078 16.3411 29.9078 16.3411C29.9078 16.3411 29.6854 19.3758 31.9464 20.3165ZM30.8333 16.9924C32.3609 16.9924 32.8719 15.4353 32.8933 15.3692L33.063 14.8198L32.4913 14.8377H32.4895C32.2867 14.8377 30.6019 14.793 29.4075 13.2717L29.2941 13.1305C28.5133 12.1362 27.7727 11.1902 26.4488 10.7587C26.5017 10.7124 26.5582 10.6703 26.6176 10.6327C27.3198 10.17 27.729 9.60809 27.8308 8.95506C27.9818 7.97329 27.3555 7.19073 27.3287 7.15857L26.9035 6.6315L26.6373 7.25684C26.6194 7.29525 26.1728 8.29578 25.233 8.29578H25.1633C25.099 8.2931 25.0373 8.29042 24.9766 8.28506C25.0096 7.8384 24.9284 7.14874 24.303 6.50018C23.5517 5.7203 22.6298 5.60328 22.1474 5.60328C21.8901 5.60328 21.7186 5.63544 21.6998 5.63722L21.0575 5.76497L21.4533 6.28757C21.7642 6.69136 22.0465 7.4355 21.7124 7.8241C21.6052 7.94917 21.3854 8.04833 21.1755 8.14928C20.7431 8.34849 20.1517 8.62721 20.1517 9.33384C20.1517 9.79122 20.5064 10.2709 21.1496 10.6774C23.0506 11.8754 24.2244 13.126 24.7309 14.5062C25.5153 16.6288 24.4924 17.8402 23.4981 18.478L23.0532 18.7648L23.4436 19.1239C23.4963 19.1703 23.9725 19.5911 24.6773 19.6518C24.8113 19.6608 24.9391 19.6679 25.0588 19.6679C25.5099 19.6679 25.8949 19.5965 26.2076 19.5018C26.1142 19.6649 26.0053 19.8186 25.8824 19.9609C25.3152 20.6202 24.6166 20.9204 23.6116 20.9365L23.2382 20.9418L23.2096 21.317C23.206 21.3929 23.1783 22.0889 23.8349 22.6802C23.9359 22.7714 24.0574 22.8473 24.1851 22.908C23.7384 23.31 23.2864 24.0104 23.1989 25.2093C23.1247 26.2098 22.8862 26.5805 22.8835 26.585L22.4708 27.2157L23.2167 27.2255C24.4486 27.2255 25.392 26.8861 26.045 26.2107C26.3833 25.856 26.6357 25.4284 26.7829 24.9609C27.1457 25.2702 27.6069 25.44 28.0836 25.4397C28.432 25.4397 28.7232 25.3656 28.7554 25.3585L29.2315 25.2316L29.0216 24.7867C29.0055 24.751 28.6089 23.8577 29.0359 22.5829C29.2199 22.0317 29.3137 21.5386 29.3593 21.1535C29.6594 21.3108 30.0606 21.4394 30.5796 21.4412C31.7588 21.4412 32.2778 20.5595 32.301 20.5228L32.5333 20.1173L32.1027 19.9404C30.6984 19.3561 30.3875 17.7875 30.325 16.9388C30.4527 16.9629 30.5974 16.9852 30.7609 16.9897L30.8333 16.9924Z" fill="#1A1919"/>
<path fill-rule="evenodd" clip-rule="evenodd" d="M29.117 10.3326C29.4011 10.3326 29.7334 10.43 30.0461 10.7542C31.0305 11.7548 31.9462 11.8111 31.9462 11.8111C31.7801 12.18 31.2977 12.5043 30.7983 12.5043C30.683 12.5043 30.566 12.4864 30.4526 12.4462C29.7745 12.2175 29.5324 11.2 28.3434 10.5666C28.3434 10.5666 28.6739 10.3326 29.117 10.3326ZM28.1495 10.9275C28.7186 11.2313 29.0509 11.6395 29.3421 12.0004C29.628 12.3533 29.8987 12.6928 30.3248 12.8339C30.4749 12.8857 30.6348 12.9107 30.7983 12.9107C31.4352 12.9107 32.0758 12.5195 32.3187 11.9781L32.5626 11.4367L31.9721 11.401C31.9444 11.401 31.1842 11.3304 30.3391 10.4657C29.9907 10.1101 29.57 9.92433 29.117 9.92433C28.5632 9.92433 28.1522 10.2013 28.1076 10.2299L27.5644 10.6131L28.1495 10.9275ZM28.4167 16.3331V16.3537C28.0736 13.5825 26.0654 11.5815 23.8294 10.3647C23.6239 10.254 23.4319 10.1593 23.2469 10.0699C23.9268 10.1754 25.0229 10.1879 25.8698 9.45355C25.8698 9.45355 24.5744 10.4067 21.9239 9.5402C22.6564 10.0172 24.0831 10.6908 25.3856 11.7807C28.64 14.6465 26.312 17.4408 26.312 17.4408C27.4822 16.2179 27.5305 14.9082 27.1856 13.838C27.802 14.8654 28.1951 16.1116 28.1344 17.649C28.045 19.8511 26.8363 21.7556 25.5651 23.2859C24.9541 24.0274 24.8183 24.9404 24.8183 24.9404C24.8183 24.9404 25.0649 24.1355 25.7715 23.3074C27.1338 21.7083 28.2996 20.0494 28.4515 17.657C28.5926 18.0921 29.1733 19.2981 30.0934 19.7528C30.0934 19.7528 28.9366 19.0542 28.4167 16.3331ZM10.7108 26.8173C7.3188 26.8173 7.40546 23.9041 7.40546 23.9041C7.40546 23.9041 7.16783 24.7671 6.22358 24.9913C6.10823 25.0203 5.98964 25.0344 5.87071 25.0333C5.56698 25.0333 5.30255 24.9618 5.30255 24.9618C5.30255 24.9618 5.79656 23.9148 5.30434 22.4507C4.89876 21.2357 4.96487 20.3343 4.96487 20.3343C4.96487 20.3343 4.50838 21.0267 3.37474 21.0338H3.36312C2.42066 21.0338 2.00883 20.3165 2.00883 20.3165C4.26896 19.3758 4.04742 16.3411 4.04742 16.3411C4.04742 16.3411 3.75262 16.5609 3.18088 16.5823H3.12103C1.87394 16.5823 1.45139 15.2459 1.45139 15.2459H1.4773C1.70778 15.2459 3.55787 15.1923 4.8666 13.5245C5.72867 12.4283 6.43619 11.4644 7.8289 11.0857L7.96915 11.0607L7.99863 10.9204C8.03794 10.7078 7.89143 10.5068 7.56089 10.2915C5.63576 9.02832 6.94271 7.41764 6.94271 7.41764C6.94271 7.41764 7.48943 8.70493 8.72312 8.70493L8.81245 8.70404C8.95181 8.69689 9.08849 8.69064 9.22339 8.66205L9.4503 8.61828C9.4503 8.61828 9.09832 7.66241 9.94699 6.78516C10.5848 6.12231 11.3593 6.00975 11.8069 6.00975C12.0347 6.00975 12.175 6.03923 12.175 6.03923C11.7515 6.59577 11.4442 7.52037 11.9338 8.09032C12.359 8.58076 13.3944 8.60399 13.3944 9.33384C13.3944 9.64383 13.1058 10.0047 12.5886 10.329C11.0297 11.3117 9.48335 12.6159 8.84015 14.3642C8.03793 16.5439 8.94377 17.9911 10.2364 18.8219C10.2364 18.8219 9.82996 19.1953 9.24215 19.2427C9.12694 19.2538 9.01128 19.2595 8.89553 19.2597C7.65559 19.2597 7.01418 18.6772 7.01418 18.6772C7.01418 18.6772 7.12138 19.4821 7.76279 20.2307C8.36132 20.9204 9.14299 21.3268 10.3356 21.3438C10.3356 21.3438 10.374 21.8977 9.84604 22.3783C9.50747 22.682 8.72759 22.7803 8.72759 22.7803C8.72759 22.7803 10.19 23.0769 10.3508 25.2387C10.4383 26.4108 10.7349 26.8173 10.7349 26.8173H10.7108ZM11.0708 26.585C11.0699 26.5805 10.8332 26.2098 10.7572 25.2093C10.6679 24.0104 10.2159 23.31 9.76832 22.908C9.89785 22.8473 10.0185 22.7714 10.1185 22.6802C10.7751 22.0889 10.7474 21.3938 10.7429 21.317L10.7179 20.9418L10.3418 20.9365C9.33952 20.9204 8.64004 20.6202 8.07277 19.9609C7.95049 19.8182 7.84164 19.6645 7.7476 19.5018C8.06027 19.5973 8.44262 19.6679 8.89553 19.6679C9.01614 19.6679 9.14299 19.6608 9.27609 19.6518C9.73205 19.6063 10.1632 19.4224 10.5116 19.1248L10.902 18.7648L10.4571 18.4789C9.46012 17.8402 8.44083 16.6297 9.22428 14.5062C9.7308 13.126 10.902 11.8763 12.8065 10.6774C13.4497 10.2709 13.8017 9.79123 13.8017 9.33384C13.8017 8.62721 13.2121 8.34849 12.7797 8.14928C12.5689 8.04833 12.3492 7.94828 12.2429 7.82411C11.9079 7.43551 12.1893 6.69136 12.501 6.28757L12.8995 5.76497L12.2536 5.63723C12.2357 5.63455 12.066 5.60328 11.8069 5.60328C11.3254 5.60328 10.4044 5.72031 9.65397 6.50019C9.02775 7.14875 8.94556 7.83929 8.97772 8.28507C8.91698 8.29043 8.85623 8.29311 8.79191 8.29579H8.72312C7.77976 8.29579 7.33488 7.29525 7.31791 7.25684L7.05259 6.63151L6.62379 7.15857C6.59967 7.19073 5.97166 7.97329 6.12531 8.95507C6.22625 9.6072 6.6354 10.17 7.33756 10.6327C7.41439 10.6819 7.4671 10.7239 7.50551 10.7587C6.1798 11.1902 5.44102 12.1362 4.66024 13.1305L4.54768 13.2717C3.35419 14.793 1.6649 14.8386 1.463 14.8386L0.887695 14.8207L1.06279 15.3692C1.08334 15.4353 1.59254 16.9924 3.12103 16.9924L3.19428 16.9897C3.35598 16.9852 3.50159 16.9629 3.63023 16.9379C3.5677 17.7866 3.25503 19.3561 1.85071 19.9395L1.42191 20.1182L1.65418 20.5228C1.67562 20.5595 2.19732 21.4412 3.37831 21.4412C3.801 21.4454 4.21844 21.3473 4.59503 21.1553C4.64059 21.5395 4.73528 22.0317 4.91931 22.5829C5.34632 23.8568 4.94879 24.751 4.9336 24.7867L4.72278 25.2316L5.19892 25.3576C5.23108 25.3665 5.5241 25.4397 5.87071 25.4397C6.34761 25.441 6.80913 25.2711 7.1714 24.9609C7.30094 25.3602 7.52338 25.8114 7.9084 26.2107C8.56411 26.8852 9.50658 27.2255 10.7376 27.2255L11.4835 27.2157L11.0708 26.585Z" fill="#1A1919"/>
<path fill-rule="evenodd" clip-rule="evenodd" d="M3.90748 10.7542C4.22193 10.43 4.55336 10.3317 4.83922 10.3317C5.27874 10.3317 5.61196 10.5666 5.61196 10.5666C4.42382 11.2009 4.17905 12.2175 3.50012 12.4471C3.38955 12.4854 3.27321 12.5045 3.15618 12.5034C2.65681 12.5034 2.17352 12.18 2.00914 11.8111C2.00914 11.8111 2.92392 11.7548 3.90748 10.7542ZM3.15618 12.9107C3.31966 12.9107 3.47957 12.8857 3.63144 12.8339C4.05666 12.6928 4.32824 12.3542 4.6141 12.0004C4.90622 11.6404 5.23497 11.2322 5.80492 10.9284L6.39094 10.6131L5.84601 10.229C5.80134 10.2013 5.39309 9.92522 4.83922 9.92522C4.38541 9.92522 3.96376 10.1101 3.61625 10.4657C2.77026 11.3313 2.01182 11.401 1.98413 11.4019L1.39453 11.4367L1.63573 11.979C1.8805 12.5195 2.52013 12.9107 3.15618 12.9107ZM5.821 17.649C5.75846 16.1116 6.15153 14.8654 6.76793 13.838C6.42489 14.9082 6.47134 16.2179 7.6434 17.4417C7.6434 17.4417 5.31359 14.6456 8.56979 11.7816C9.87226 10.6908 11.2971 10.0172 12.0297 9.5402C9.38004 10.4067 8.0856 9.45265 8.0856 9.45265C8.93158 10.1879 10.0277 10.1763 10.7075 10.0691C10.5235 10.1593 10.3305 10.2531 10.1251 10.3647C7.88906 11.5806 5.88174 13.5825 5.53692 16.3537V16.3331C5.01789 19.0542 3.86192 19.7528 3.86192 19.7528C4.78205 19.2972 5.36093 18.0912 5.50208 17.657C5.65573 20.0494 6.82064 21.7092 8.18208 23.3074C8.8896 24.1355 9.13794 24.9404 9.13794 24.9404C9.13794 24.9404 9.00037 24.0283 8.38665 23.2859C7.11812 21.7556 5.91033 19.8511 5.821 17.649ZM16.2114 12.0415V12.5918C16.4007 12.3605 16.7652 12.4078 16.7652 12.4078V13.2002C16.7652 13.2002 16.7536 13.5897 16.6151 13.7585H17.4066C17.2691 13.5897 17.2557 13.2002 17.2557 13.2002V12.4078C17.2557 12.4078 17.6219 12.3605 17.8095 12.5918V12.0415H16.2105H16.2114ZM15.8719 8.78265C16.1247 8.98365 16.2712 9.0176 16.2757 9.02028L16.3739 9.06584V8.5486L15.4449 8.15732C15.4449 8.15732 15.4529 8.45748 15.8719 8.78265ZM18.082 8.78265C18.5019 8.45748 18.5108 8.15732 18.5108 8.15732L17.5808 8.5486V9.06673L17.6791 9.02028C17.6836 9.0176 17.8292 8.98365 18.082 8.78265Z" fill="#1A1919"/>
<path fill-rule="evenodd" clip-rule="evenodd" d="M16.9768 7.40425L14.7372 6.51806C14.9275 6.06603 15.8056 5.6819 16.9768 5.68101C18.1488 5.6819 19.027 6.06603 19.2172 6.51806L16.9768 7.40425ZM18.6464 10.1816L17.1411 10.9767V7.75711L19.1842 7.0621L18.6464 10.1798V10.1816ZM19.579 11.0356L20.2669 11.4359H20.2767L20.45 11.5368C20.0614 11.644 19.764 11.8396 19.5147 12.0951L19.4879 12.1219C19.4291 12.1847 19.3728 12.2496 19.3191 12.3167L19.2878 12.3578C19.2342 12.4266 19.1833 12.4971 19.1359 12.5704L19.11 12.607C19.0521 12.6955 18.997 12.7857 18.9448 12.8777C18.4534 13.7237 17.6718 14.2293 16.9768 14.2311C16.2817 14.2293 15.4992 13.7237 15.0096 12.8777C14.9576 12.7875 14.9031 12.6987 14.8462 12.6115L14.814 12.5641C14.7673 12.4952 14.7191 12.4272 14.6693 12.3605C14.6568 12.3426 14.6452 12.3292 14.6327 12.314C14.5802 12.2489 14.5257 12.1854 14.4692 12.1237C14.4576 12.1148 14.4495 12.1032 14.4388 12.0934C14.1836 11.8261 13.8601 11.6336 13.5035 11.5368L13.6786 11.4359H13.6857L14.3763 11.0356L15.0829 10.6292L16.9732 11.6601L16.9768 11.6565L16.9821 11.6601L18.8715 10.6292L19.579 11.0356ZM22.2948 13.8979C22.1402 14.3052 22.0125 14.7466 22.0125 15.1852L22.0143 18.017C21.4238 17.9188 21.3532 17.2809 21.3514 17.2532L21.3407 17.1237L21.2129 17.1121C20.9963 17.093 20.7939 16.9962 20.643 16.8396C20.3527 16.5493 20.3527 16.0794 20.3527 16.0749C20.3491 16.0991 20.0346 16.5395 20.3991 17.0219C20.5528 17.2256 20.7761 17.3515 21.0638 17.4006C21.1317 17.7535 21.3943 18.2529 22.0143 18.3297V19.7144H20.2714C19.4674 19.2668 19.8077 18.4789 19.8238 18.445L19.8917 18.2949L19.7381 18.2368C18.8671 17.9134 19.1074 17.0433 19.119 17.0058L19.1547 16.8789L19.035 16.8236C18.3168 16.4894 18.4141 15.5908 18.424 15.5532C18.2024 15.7328 18.1229 16.0982 18.2748 16.4582C18.1926 16.5529 18.0818 16.6663 17.9612 16.7914C17.7514 16.7456 17.5624 16.6319 17.4236 16.4681C17.2847 16.3042 17.2037 16.0992 17.1929 15.8847L17.1921 15.7792L17.0938 15.7417C16.8035 15.6345 16.6042 15.4719 16.5051 15.2549C16.3952 15.0146 16.4336 14.7635 16.464 14.6411C16.6309 14.6758 16.8009 14.6937 16.9714 14.6947H16.983C17.0697 14.6947 17.1545 14.6894 17.2385 14.6813C17.703 14.6349 18.2212 14.4357 18.7625 13.8979H22.2948ZM20.1168 26.2393L20.3116 25.2236L20.3428 25.036C20.4631 25.0831 20.5907 25.1082 20.7198 25.1101C21.0164 25.1101 21.1897 24.9529 21.305 24.8198L21.4533 24.6456L21.3318 24.4544C21.321 24.4356 21.0504 24.0077 20.8431 23.7147C20.8019 23.6568 20.7623 23.5979 20.7243 23.5378C20.4876 23.1841 20.1919 22.7401 19.5987 22.7401L19.546 22.7419C19.4606 22.7465 19.3763 22.7636 19.2959 22.7928C19.1154 22.7065 18.9179 22.6613 18.7179 22.6606C18.5166 22.6654 18.3176 22.7041 18.1292 22.7749C18.0899 22.7866 18.0541 22.7991 18.0264 22.8044L16.9187 22.6954C16.9044 22.6919 16.8597 22.6651 16.8043 22.6007V22.5945L17.0438 22.4989C16.9768 21.6985 16.2094 21.2062 15.7824 21.0392C15.7634 20.9536 15.72 20.8754 15.6573 20.8141L15.4197 20.5881L15.2106 20.8391L15.1079 20.9677L13.5553 20.329L14.5648 21.5984L14.1672 22.2032C14.0207 22.3578 14.1824 22.5141 14.1824 22.5141L14.5933 22.7982L15.0204 22.6383C15.0347 22.6383 15.0472 22.6418 15.0623 22.6436C15.0418 22.7088 15.015 22.9634 14.9971 23.034L14.2566 22.8884L13.4794 23.3288C13.0783 23.6236 13.0238 24.1096 13.1729 24.4428L13.2587 24.6322L13.3811 24.8993L13.6536 24.7867C13.658 24.7849 13.6616 24.784 13.6643 24.7814C13.566 25.0949 13.6062 25.3924 13.7804 25.588L13.9457 25.7962L14.1654 26.0749L14.4066 25.815C14.4781 25.7435 14.7086 25.4853 14.7792 25.2638L14.831 25.0949L14.7139 24.9654L14.6943 24.9413L14.8265 24.7224L15.7931 24.9511L16.0111 25.0011L16.1272 24.8091L16.1897 24.7054C16.2013 24.6831 16.204 24.6795 16.2487 24.6795C16.2835 24.6795 16.3175 24.6831 16.3541 24.692C16.6837 24.7571 17.0187 24.7915 17.3546 24.7948C17.6432 24.7948 17.8174 24.784 18.0229 24.7153C18.0229 24.7153 18.5419 25.3049 18.5597 25.3281L18.2417 26.3108L18.2274 26.3697C17.6262 26.4188 17.3332 26.5511 16.9785 26.9057C16.464 26.3947 16.1004 26.3402 14.7184 26.3402C13.0631 26.3402 11.941 25.3692 11.941 23.8157V20.0208H22.0143L22.0161 23.8157C22.0161 25.0744 21.2782 25.9525 20.1168 26.2393ZM13.9126 24.0935L13.9653 24.2248C13.9296 24.3392 13.5365 24.5018 13.5365 24.5018L13.4526 24.315C13.3989 24.1871 13.3898 24.0449 13.4265 23.9111C13.4633 23.7773 13.5439 23.6597 13.6553 23.5772L14.2923 23.1886L14.9685 23.3315C14.9551 23.5468 15.0838 23.7076 15.0838 23.7076L14.3763 23.5718L13.9519 23.8648C13.8805 23.9148 13.8751 24.0077 13.9126 24.0935ZM20.0096 25.1655L19.7925 26.3009C19.6532 26.3206 19.5067 26.3313 19.3566 26.3367L19.5853 25.2468C19.6532 24.9216 18.7849 24.8207 18.3552 24.1837C18.1452 24.4196 17.7513 24.4901 17.3546 24.4901C16.9919 24.4901 16.631 24.4321 16.4104 24.3883C16.3573 24.3791 16.3035 24.374 16.2496 24.3731C16.1218 24.3731 16.0066 24.4124 15.9262 24.5473L15.8637 24.6545L14.6791 24.3749L14.3843 24.8636C14.3432 24.9431 14.3396 25.0092 14.4066 25.0833L14.487 25.1709C14.4317 25.3433 14.1851 25.605 14.1851 25.605L14.0091 25.3844C13.8697 25.2289 13.893 24.9431 14.0377 24.6786L14.5076 23.8836L15.5108 24.0292L15.3554 23.6727C15.1454 23.202 15.4652 22.6034 15.4992 22.2586C15.4876 22.3631 15.392 22.3863 15.2812 22.3863C15.1794 22.3863 15.0668 22.3676 14.9918 22.3676C14.9623 22.3676 14.9364 22.3703 14.923 22.3801L14.6514 22.5454L14.437 22.356C14.4111 22.3202 14.4031 22.2336 14.4656 22.1693L14.9623 21.6118L14.3763 20.9257L15.1963 21.3394L15.4474 21.0347C15.5162 21.1026 15.4858 21.2786 15.4858 21.2786C15.7422 21.2858 16.4613 21.6833 16.4988 22.6124C16.5015 22.6409 16.5015 22.6722 16.5015 22.7035L16.5203 22.7338C16.5712 22.8044 16.7114 22.984 16.8892 23.0001L18.0237 23.1126H18.0282C18.1533 23.1126 18.4007 22.9661 18.7179 22.9661C18.8921 22.9661 19.0841 23.0108 19.2896 23.1403C19.2896 23.1403 19.3932 23.0581 19.5603 23.0492C19.5728 23.0474 19.5871 23.0474 19.5987 23.0474C20.1079 23.0474 20.3196 23.5084 20.593 23.8916C20.7984 24.1828 21.0727 24.6152 21.0727 24.6152C20.9717 24.7358 20.8771 24.8028 20.7189 24.8028C20.6697 24.803 20.6207 24.7982 20.5724 24.7885C20.0275 24.6876 19.948 23.5646 19.6371 23.4753C19.6208 23.471 19.604 23.4689 19.5871 23.4691C19.487 23.4691 19.4433 23.5584 19.4433 23.5584C19.5862 23.9416 19.5022 24.0962 19.6559 24.3919C19.7702 24.6107 19.973 24.7903 20.057 24.8761C20.057 24.8761 20.0346 25.0422 20.0096 25.1664V25.1655ZM18.9653 26.3447C18.8135 26.3447 18.6723 26.3465 18.5455 26.3518L18.8778 25.3147C18.9296 25.1709 18.6669 24.9859 18.5589 24.8234C18.7223 24.927 19.1467 25.1539 19.3512 25.2432C19.2187 25.609 19.09 25.9762 18.9653 26.3447ZM14.0234 16.9986L14.0707 15.1959L14.4745 14.768L14.7282 15.3004L14.228 17.0308L14.0225 16.9995L14.0234 16.9986ZM14.3137 17.5579C14.3751 17.6753 14.4679 17.7734 14.5817 17.8411C14.5786 18.0124 14.5622 18.1832 14.5326 18.352C14.5237 18.3914 14.5147 18.428 14.5031 18.4646C14.4978 18.4878 14.4906 18.5066 14.4861 18.5218C14.362 18.5218 14.1199 18.5066 13.9225 18.4342C13.7027 18.3538 13.3748 17.95 13.4508 17.5052C13.5455 17.4471 13.7652 17.3229 13.9716 17.3229C14.1297 17.3229 14.2378 17.398 14.3137 17.5579ZM18.9912 18.0421C18.6812 18.2716 17.8808 18.8568 17.5905 19.0605L14.7961 18.5566L14.8158 18.4825C14.8515 18.3369 14.8899 18.1385 14.8917 17.9054L17.2403 17.9429L17.285 17.8982C17.3207 17.8625 18.0648 17.1416 18.4436 16.728C18.5338 16.8414 18.6464 16.9486 18.7947 17.0433C18.7447 17.3202 18.7652 17.7115 18.9912 18.0421ZM15.1919 13.8979C15.5287 14.232 15.8565 14.4401 16.1692 14.5545C16.129 14.7153 16.0754 15.0494 16.2255 15.3808C16.3487 15.6488 16.5721 15.8543 16.8946 15.9919C16.9303 16.3224 17.1385 16.82 17.7164 17.0397C17.4627 17.2952 17.2162 17.5364 17.1179 17.6329L14.7738 17.5963C14.6964 17.5593 14.6321 17.4994 14.5898 17.4248C14.5853 17.4132 14.5773 17.4069 14.5719 17.3944L14.9551 17.4569L14.9793 17.4578C15.0153 17.4581 15.0502 17.4454 15.0778 17.4222C15.1053 17.3989 15.1236 17.3665 15.1293 17.331C15.1358 17.2909 15.1262 17.25 15.1026 17.217C15.079 17.1841 15.0434 17.1618 15.0034 17.155L14.5326 17.0799L15.0543 15.2745L14.5603 14.232L13.7679 15.0717L13.7197 16.9486L13.1872 16.8638C13.1051 16.8477 13.0264 16.9084 13.0113 16.9915C13.0053 17.0317 13.0154 17.0727 13.0392 17.1056C13.0631 17.1384 13.0989 17.1607 13.139 17.1675L13.3623 17.2014C13.2819 17.247 13.2292 17.2836 13.223 17.2881L13.1783 17.3202L13.1658 17.3756C13.0363 17.9027 13.3293 18.403 13.6455 18.6263L13.6339 18.6933C13.6214 18.7737 13.6393 18.8541 13.6875 18.9193C13.715 18.9589 13.7517 18.9912 13.7945 19.0133C13.8374 19.0354 13.885 19.0467 13.9332 19.0462C14.0009 19.0456 14.0664 19.0222 14.1191 18.9797C14.1718 18.9372 14.2086 18.8782 14.2235 18.8121C14.3414 18.8255 14.4495 18.8291 14.5228 18.8291H14.5862L17.6602 19.3856L17.7129 19.3508C17.9576 19.1793 18.8921 18.4977 19.1976 18.2716C19.2825 18.344 19.3763 18.4101 19.4897 18.4646C19.3905 18.7978 19.3843 19.3097 19.7756 19.7153H11.941V15.1861C11.941 14.7466 11.8133 14.3052 11.6614 13.8979H15.1919ZM14.7684 7.06389L16.8133 7.75801V10.9758L15.308 10.1807L14.7684 7.06299V7.06389ZM19.7568 6.67529C19.7568 5.89005 18.4374 5.18342 16.9812 5.18342H16.9723C15.5162 5.18342 14.1976 5.89005 14.1976 6.67529L14.2262 6.86825L14.8077 10.212L14.2235 10.5515L12.7129 11.4359H12.7182C12.7182 11.4359 12.3788 11.611 12.2207 11.7182C11.6453 12.1184 11.523 12.7026 11.8571 12.9438C11.9393 12.4677 12.3153 11.9701 13.0184 11.9701C13.5258 11.9701 13.9117 12.2327 14.2244 12.6249C14.3048 12.724 14.3807 12.8304 14.4513 12.9438C14.5389 13.0876 14.6273 13.2145 14.7139 13.336H10.8208C11.1067 13.9122 11.3791 14.5223 11.3791 15.1852V23.8166C11.3791 25.9052 12.9827 26.9021 14.7175 26.9021C16.0584 26.9021 16.2389 26.8414 16.9785 27.5793C17.7147 26.8414 17.896 26.9021 19.2378 26.9021C20.9735 26.9021 22.5744 25.9052 22.5744 23.8166V15.1852C22.5744 14.5223 22.8469 13.9122 23.1345 13.336H19.2396C19.3271 13.2145 19.4147 13.0876 19.5022 12.9438C19.5737 12.8304 19.6496 12.724 19.7282 12.6249C20.0427 12.2309 20.4286 11.9701 20.936 11.9701C21.6391 11.9701 22.0143 12.4677 22.0973 12.9438C22.4315 12.7026 22.3109 12.1184 21.7311 11.7182C21.5774 11.611 21.2362 11.4359 21.2362 11.4359H21.2424L19.7282 10.5515L19.1476 10.212L19.7282 6.86825L19.7568 6.67529Z" fill="#1A1919"/>
<path d="M44.7738 21.0615H47.4538V14.8261H51.1343V12.557H41.0933V14.8261H44.7738V21.0615ZM59.2637 12.557L54.797 17.5061V12.557H52.2063V21.0615H54.4933L58.9599 16.1125V21.0615H61.5506V12.557H59.2637ZM66.1039 17.8991H70.2668V21.0615H72.8575V12.557H70.2668V15.6658H66.1039V12.557H63.5133V21.0615H66.1039V17.8991ZM80.0721 21.0615C80.6617 21.0615 81.1977 21.0079 81.6979 20.865C83.0379 20.4898 83.9134 19.3999 83.9134 17.917C83.9134 16.5055 83.163 15.5229 81.9659 15.0762C81.3942 14.8618 80.7153 14.8439 80.0721 14.8439H77.4099V12.557H74.8193V21.0615H80.0721ZM77.4099 16.845H79.6254C79.9827 16.845 80.3222 16.845 80.6259 16.9522C81.0547 17.0951 81.3049 17.4525 81.3049 17.8813C81.3049 18.3279 81.0547 18.7031 80.6438 18.8818C80.3579 19.0069 80.0721 19.0069 79.6254 19.0069H77.4099V16.845ZM87.8441 17.8455H88.5587L91.6497 21.0615H95.0979L90.7921 16.6306L94.9371 12.557H91.6854L88.5587 15.7551H87.8441V12.557H85.2534V21.0615H87.8441V17.8455Z" fill="black"/>
<path d="M100.429 12.3247C96.9449 12.3247 94.8545 14.2901 94.8545 16.8271C94.8545 19.3642 96.9449 21.3295 100.429 21.3295C103.895 21.3295 105.985 19.3642 105.985 16.8271C105.985 14.2901 103.895 12.3247 100.429 12.3247ZM100.429 19.257C98.6958 19.257 97.5881 18.2207 97.5881 16.8271C97.5881 15.4335 98.6958 14.4151 100.429 14.4151C102.144 14.4151 103.27 15.4335 103.27 16.8271C103.27 18.2207 102.144 19.257 100.429 19.257ZM114.613 12.9322V12.0746H112.023V12.9322C108.771 13.0037 106.823 14.3794 106.823 16.8093C106.823 19.2391 108.771 20.5077 112.023 20.5791V21.4367H114.613V20.5791C117.883 20.5077 119.83 19.2391 119.83 16.8093C119.83 14.3794 117.883 13.0037 114.613 12.9322ZM112.023 18.7567C110.236 18.6853 109.45 17.9527 109.45 16.8093C109.45 15.6658 110.236 14.8439 112.023 14.7725V18.7567ZM114.613 18.7567V14.7725C116.418 14.8439 117.186 15.6658 117.186 16.8093C117.186 17.9527 116.418 18.6853 114.613 18.7567ZM128.449 12.9322V12.0746H125.859V12.9322C122.607 13.0037 120.659 14.3794 120.659 16.8093C120.659 19.2391 122.607 20.5077 125.859 20.5791V21.4367H128.449V20.5791C131.719 20.5077 133.666 19.2391 133.666 16.8093C133.666 14.3794 131.719 13.0037 128.449 12.9322ZM125.859 18.7567C124.072 18.6853 123.286 17.9527 123.286 16.8093C123.286 15.6658 124.072 14.8439 125.859 14.7725V18.7567ZM128.449 18.7567V14.7725C130.254 14.8439 131.022 15.6658 131.022 16.8093C131.022 17.9527 130.254 18.6853 128.449 18.7567Z" fill="black"/>
<path d="M39.3601 40.5813C40.5964 40.5813 41.5986 39.5791 41.5986 38.3428C41.5986 37.1065 40.5964 36.1043 39.3601 36.1043C38.1238 36.1043 37.1216 37.1065 37.1216 38.3428C37.1216 39.5791 38.1238 40.5813 39.3601 40.5813Z" fill="#00EEBC"/>
<path d="M38.0565 34.4487L33.6077 30L28.4887 35.119C26.731 36.8768 26.731 39.727 28.4887 41.4848L29.7543 42.7504C29.7548 42.7504 38.1225 34.4487 38.0565 34.4487Z" fill="#00EEBC"/>
<path d="M31.7531 35.9232C31.7114 35.882 31.6702 35.8409 31.6296 35.8002C31.6276 35.7987 31.6261 35.7967 31.6246 35.7952C31.58 35.7511 31.5358 35.7069 31.4926 35.6637C31.4921 35.6633 31.4911 35.6623 31.4907 35.6618C31.058 35.1984 30.7931 34.5757 30.7931 33.8916C30.7931 33.1747 31.0838 32.5263 31.5537 32.0564L28.4911 35.119C28.4281 35.182 28.3676 35.246 28.3095 35.3115C28.3036 35.318 28.2976 35.3249 28.2916 35.3313C28.2907 35.3323 28.2902 35.3328 28.2892 35.3338C28.2842 35.3393 28.2792 35.3447 28.2743 35.3502C28.2748 35.3502 28.2748 35.3502 28.2753 35.3502C26.6946 37.1174 26.7527 39.8332 28.4499 41.5304L33.5689 46.6494L38.0177 42.2007C38.0618 42.2007 34.2258 38.381 31.7531 35.9232Z" fill="url(#paint0_linear)"/>
<path fill-rule="evenodd" clip-rule="evenodd" d="M44.6526 35.375C44.6526 33.2108 46.0323 32.1253 47.6782 32.1253H49.352V42.4486H48.2315V38.4915H47.3L45.5281 42.4486H44.2324L46.1794 38.2184C45.262 37.7562 44.6526 36.9227 44.6526 35.375ZM47.6295 33.0638C46.733 33.0638 45.8576 33.6521 45.8576 35.375C45.8576 37.0348 46.656 37.5671 47.6295 37.5671H48.2248V33.0638H47.6295ZM54.731 35.1508H53.6175L53.6173 35.1508V38.2254H51.9366V35.1508H50.809L50.8089 35.1508V42.3996H51.9365L51.9366 42.3996V39.1499L53.6173 39.1499V42.3996H54.7309L54.731 42.3996V35.1508ZM59.9563 35.1438V41.4681H60.5306V43.8143L60.5298 43.8143H59.5283V42.3925L56.4055 42.3925V43.8143L56.4047 43.8143H55.3892V41.4681L55.3899 41.4681L55.8374 41.4681C56.5028 39.9343 56.5728 37.6861 56.5728 35.7601V35.1438L56.5735 35.1438H59.9563ZM56.9023 41.4751L58.8419 41.4751V36.0473L57.5816 36.0473V36.1804C57.5816 37.7071 57.5116 39.9343 56.9023 41.4751ZM65.1733 41.0479L65.1732 41.0479L65.1731 41.0479L65.1729 41.048L63.7444 41.5381C63.7164 41.5381 63.6889 41.5373 63.6618 41.5356C62.8196 41.4835 62.3858 40.6255 62.3858 39.0378L65.4253 39.0378L65.4254 39.0378V38.4215C65.4254 35.9632 64.627 35.0598 63.4154 35.0598L63.4152 35.0598C63.3427 35.0598 63.2722 35.0635 63.2036 35.0708C61.8078 35.22 61.2161 36.8639 61.2161 39.0869C61.2161 41.314 62.1406 42.5116 63.6464 42.5116L63.6465 42.5116C63.7367 42.5116 63.8251 42.508 63.9117 42.501C64.5179 42.4519 65.035 42.2358 65.4394 41.9233L65.1733 41.0479ZM65.1729 41.048C64.9253 41.2231 64.5112 41.4606 63.9979 41.5227C63.9159 41.5327 63.8313 41.5381 63.7445 41.5381L65.1729 41.048ZM63.4083 35.9702C64.0189 35.9702 64.2356 36.7643 64.2603 37.885C64.2619 37.9597 64.2627 38.0359 64.2627 38.1133H62.3998C62.4698 36.8177 62.7149 35.9702 63.4083 35.9702ZM68.7938 38.5546L68.821 38.6051L70.8668 42.3926H70.8561L70.8599 42.3996H69.6343L67.7811 38.9224L67.7083 38.786V42.3996H66.5807V42.3926H66.5806V35.1438H67.7081V35.1508H67.7083V38.4983L69.459 35.1438H70.6006L70.5969 35.1508H70.6008L68.7938 38.5546ZM71.0003 38.7787C71.0003 37.2278 71.41 36.0606 72.2116 35.4742C72.5878 35.1957 73.051 35.0458 73.5992 35.0458C74.2505 35.0458 74.6287 35.2209 74.9439 35.417L74.7828 36.4815L74.7771 36.4766L74.7752 36.4885C74.4741 36.2294 74.0399 35.9843 73.5776 35.9843C73.2215 35.9843 72.9091 36.1609 72.6715 36.5161C72.3753 36.9647 72.1985 37.6943 72.1985 38.7086C72.1985 40.5226 72.6327 41.5591 73.5432 41.5591C74.0964 41.5591 74.5097 41.342 74.7758 41.1109L75.0279 41.9513L75.0202 41.9578L75.0204 41.9583C74.6282 42.2875 74.1659 42.5046 73.5006 42.5046C71.9388 42.5046 71.0003 41.251 71.0003 38.7787ZM83.1657 42.4486L79.951 36.8877L82.9066 32.1253H82.2202L79.2157 36.9508V32.1253H78.5013V42.4486H79.2157V37.0068L82.3603 42.4486H83.1657ZM87.5782 37.1609V41.1459C87.5782 41.6502 87.6482 42.2104 87.7323 42.4766H87.116C87.0529 42.2945 86.9829 42.0143 86.9409 41.4961C86.5907 42.1894 86.0724 42.6237 85.3581 42.6237C84.3776 42.6237 83.7052 41.8393 83.7052 40.5086C83.7052 38.9468 84.5526 38.1344 86.1215 38.1344H86.9129V37.2239C86.9129 36.1103 86.4996 35.6341 85.7082 35.6341C85.0919 35.6341 84.5316 35.9282 84.1885 36.4325L83.9994 35.7811C84.2865 35.41 84.8888 35.0458 85.7082 35.0458C86.9059 35.0458 87.5782 35.7111 87.5782 37.1609ZM85.5048 42.0774C86.1842 42.0774 86.6534 41.426 86.9126 40.6486V38.6386H86.1352C84.9445 38.6386 84.3703 39.1849 84.3703 40.4595C84.3703 41.4821 84.8185 42.0774 85.5048 42.0774ZM92.6624 41.8253L92.4453 41.258C92.4453 41.258 91.9341 42.0424 90.9816 42.0424C89.84 42.0424 89.3287 40.8518 89.3287 38.8557C89.3287 36.7967 89.854 35.6271 90.9816 35.6271C91.6119 35.6271 92.0812 36.0053 92.4033 36.4535L92.5924 35.7321C92.2702 35.3399 91.745 35.0528 90.9816 35.0528C89.4758 35.0528 88.6424 36.4605 88.6424 38.8627C88.6424 41.237 89.4898 42.6377 90.9676 42.6377C92.1232 42.6377 92.6624 41.8253 92.6624 41.8253ZM97.2924 41.258L97.5095 41.8253C97.5095 41.8253 96.9702 42.6377 95.8146 42.6377C94.3368 42.6377 93.4894 41.237 93.4894 38.8627C93.4894 36.4605 94.3228 35.0528 95.8286 35.0528C96.585 35.0528 97.1173 35.3399 97.4394 35.7321L97.2503 36.4535C96.9282 36.0053 96.4589 35.6271 95.8356 35.6271C94.708 35.6271 94.1828 36.7967 94.1828 38.8557C94.1828 40.8518 94.694 42.0424 95.8356 42.0424C96.7811 42.0424 97.2924 41.258 97.2924 41.258ZM102.012 41.1459V37.1609C102.012 35.7111 101.34 35.0458 100.149 35.0458C99.3299 35.0458 98.7276 35.41 98.4404 35.7811L98.6295 36.4325C98.9727 35.9282 99.533 35.6341 100.149 35.6341C100.941 35.6341 101.354 36.1103 101.354 37.2239V38.1344H100.562C98.9937 38.1344 98.1463 38.9468 98.1463 40.5086C98.1463 41.8393 98.8186 42.6237 99.7991 42.6237C100.52 42.6237 101.039 42.1894 101.382 41.4961C101.424 42.0143 101.501 42.2945 101.557 42.4766H102.173C102.089 42.2104 102.012 41.6502 102.012 41.1459ZM101.354 40.6486C101.095 41.426 100.619 42.0774 99.9466 42.0774C99.2603 42.0774 98.812 41.4821 98.812 40.4595C98.812 39.1849 99.3863 38.6386 100.577 38.6386H101.354V40.6486Z" fill="#333333"/>
<defs>
<linearGradient id="paint0_linear" x1="25.3708" y1="40.7858" x2="35.1937" y2="46.2523" gradientUnits="userSpaceOnUse">
<stop stop-color="#00A9F9"/>
<stop offset="0.9899" stop-color="#0B89EA"/>
</linearGradient>
</defs>
</svg>
