<svg width="119" height="59" viewBox="0 0 119 59" fill="none" xmlns="http://www.w3.org/2000/svg">
<path d="M30.0032 51.7023C31.3704 51.7023 32.4788 50.5939 32.4788 49.2266C32.4788 47.8594 31.3704 46.751 30.0032 46.751C28.6359 46.751 27.5275 47.8594 27.5275 49.2266C27.5275 50.5939 28.6359 51.7023 30.0032 51.7023Z" fill="#00EEBC"/>
<path d="M28.5629 44.92L23.6429 40L17.9816 45.6613C16.0376 47.6053 16.0376 50.7575 17.9816 52.7014L19.3813 54.1011C19.3818 54.1011 28.6359 44.92 28.5629 44.92Z" fill="#00EEBC"/>
<path d="M21.5897 46.5507C21.5436 46.5052 21.4981 46.4596 21.4531 46.4146C21.4509 46.413 21.4493 46.4108 21.4476 46.4092C21.3982 46.3603 21.3494 46.3115 21.3017 46.2638C21.3011 46.2632 21.3 46.2621 21.2995 46.2616C20.821 45.7491 20.528 45.0605 20.528 44.3039C20.528 43.511 20.8495 42.7939 21.3691 42.2743L17.9821 45.6613C17.9124 45.731 17.8455 45.8018 17.7813 45.8742C17.7747 45.8813 17.7681 45.889 17.7616 45.8961C17.7605 45.8972 17.7599 45.8978 17.7588 45.8989C17.7533 45.9049 17.7478 45.911 17.7424 45.917C17.7429 45.917 17.7429 45.917 17.7435 45.917C15.9954 47.8714 16.0595 50.8749 17.9366 52.7519L23.5979 58.4132L28.5179 53.4932C28.5668 53.4932 24.3243 49.2689 21.5897 46.5507Z" fill="url(#paint0_linear)"/>
<path fill-rule="evenodd" clip-rule="evenodd" d="M35.8557 45.9444C35.8557 43.551 37.3816 42.3505 39.2018 42.3505H41.053V53.7674H39.8137V49.3912H38.7835L36.8239 53.7674H35.391L37.5443 49.0891C36.5296 48.5779 35.8557 47.6562 35.8557 45.9444ZM39.1476 43.3884C38.1562 43.3884 37.188 44.039 37.188 45.9444C37.188 47.7801 38.071 48.3688 39.1476 48.3688H39.806V43.3884H39.1476ZM45.77 49.0968H43.9111V45.6965H42.6641V53.7132H43.9111V50.1192H45.77V53.7132H47.0016V45.6965H45.77V49.0968ZM48.2254 52.683C48.9612 50.9867 49.0386 48.5004 49.0386 46.3704V45.6888H52.7797V52.683H53.4149V55.2778H52.3073V53.7054H48.8527V55.2778H47.7296V52.683H48.2254ZM50.154 46.8351C50.154 48.5237 50.0765 50.9867 49.4027 52.6908H51.5482V46.688H50.154V46.8351ZM58.5502 52.2183C58.2326 52.4429 57.6672 52.7605 56.9701 52.7605C55.9787 52.7605 55.4674 51.8078 55.4674 49.9953H58.829V49.3137C58.829 46.595 57.946 45.5958 56.606 45.5958C54.8943 45.5958 54.1739 47.4703 54.1739 50.0495C54.1739 52.5126 55.1964 53.8371 56.8616 53.8371C57.6594 53.8371 58.3333 53.5815 58.8445 53.1865L58.5502 52.2183ZM56.5983 46.6028C57.3186 46.6028 57.5433 47.6019 57.5433 48.9729H55.4829C55.5604 47.54 55.8315 46.6028 56.5983 46.6028ZM64.8473 53.7054L62.5546 49.4609L62.5547 49.4606L64.553 45.6965H64.5489L64.553 45.6888H63.2904L61.3541 49.3989V45.6965V45.6888H60.107V45.6965V53.7054V53.7132H61.3541V53.7054V49.7165L63.4841 53.7132H64.8396L64.8354 53.7054H64.8473ZM69.1771 47.1682L69.1712 47.1632L69.1693 47.1759C68.8363 46.8894 68.356 46.6183 67.8448 46.6183C67.4276 46.6183 67.0648 46.8374 66.797 47.2782C66.4966 47.7789 66.319 48.5621 66.319 49.6313C66.319 51.6374 66.7992 52.7837 67.8061 52.7837C68.418 52.7837 68.875 52.5436 69.1693 52.288L69.4482 53.2175L69.4401 53.2242L69.4404 53.2252C69.0067 53.5893 68.4955 53.8294 67.7596 53.8294C66.0324 53.8294 64.9945 52.4429 64.9945 49.7087C64.9945 48.0266 65.4303 46.7526 66.2833 46.0924C66.7082 45.7599 67.2372 45.5804 67.8681 45.5804C68.5884 45.5804 69.0067 45.774 69.3552 45.9909L69.1771 47.1682ZM78.4485 53.7674L74.8933 47.6174L78.1619 42.3505H77.4028L74.08 47.6871V42.3505H73.2899V53.7674H74.08V47.7491L77.5577 53.7674H78.4485ZM83.3282 47.9195V52.3267C83.3282 52.8844 83.4056 53.5041 83.4986 53.7984H82.817C82.7473 53.597 82.6698 53.2872 82.6233 52.714C82.2361 53.4808 81.6629 53.961 80.8728 53.961C79.7885 53.961 79.0449 53.0935 79.0449 51.6219C79.0449 49.8946 79.9821 48.9961 81.7171 48.9961H82.5923V47.9892C82.5923 46.7577 82.1354 46.231 81.2601 46.231C80.5785 46.231 79.9589 46.5563 79.5793 47.114L79.3702 46.3936C79.6878 45.9831 80.3539 45.5804 81.2601 45.5804C82.5846 45.5804 83.3282 46.3162 83.3282 47.9195ZM81.0355 53.3569C81.7868 53.3569 82.3058 52.6365 82.5923 51.7768V49.5538H81.7326C80.4158 49.5538 79.7807 50.158 79.7807 51.5677C79.7807 52.6985 80.2764 53.3569 81.0355 53.3569ZM88.9514 53.078L88.7113 52.4507C88.7113 52.4507 88.1459 53.3182 87.0925 53.3182C85.83 53.3182 85.2646 52.0014 85.2646 49.7939C85.2646 47.5167 85.8455 46.2232 87.0925 46.2232C87.7896 46.2232 88.3086 46.6415 88.6649 47.1372L88.874 46.3394C88.5177 45.9057 87.9368 45.5881 87.0925 45.5881C85.4272 45.5881 84.5055 47.145 84.5055 49.8017C84.5055 52.4274 85.4427 53.9765 87.077 53.9765C88.355 53.9765 88.9514 53.078 88.9514 53.078ZM94.0712 52.4507L94.3114 53.078C94.3114 53.078 93.715 53.9765 92.4369 53.9765C90.8026 53.9765 89.8654 52.4274 89.8654 49.8017C89.8654 47.145 90.7871 45.5881 92.4524 45.5881C93.2889 45.5881 93.8776 45.9057 94.2339 46.3394L94.0248 47.1372C93.6685 46.6415 93.1495 46.2232 92.4602 46.2232C91.2131 46.2232 90.6322 47.5167 90.6322 49.7939C90.6322 52.0014 91.1976 53.3182 92.4602 53.3182C93.5058 53.3182 94.0712 52.4507 94.0712 52.4507ZM99.2917 52.3267V47.9195C99.2917 46.3162 98.5482 45.5804 97.2314 45.5804C96.3252 45.5804 95.6591 45.9831 95.3415 46.3936L95.5506 47.114C95.9302 46.5563 96.5498 46.231 97.2314 46.231C98.1067 46.231 98.5637 46.7577 98.5637 47.9892V48.9961H97.6884C95.9534 48.9961 95.0162 49.8946 95.0162 51.6219C95.0162 53.0935 95.7598 53.961 96.8442 53.961C97.6419 53.961 98.2151 53.4808 98.5946 52.714C98.6411 53.2872 98.7263 53.597 98.7883 53.7984H99.4699C99.3769 53.5041 99.2917 52.8844 99.2917 52.3267ZM98.5637 51.7768C98.2771 52.6365 97.7504 53.3569 97.0068 53.3569C96.2477 53.3569 95.752 52.6985 95.752 51.5677C95.752 50.158 96.3872 49.5538 97.7039 49.5538H98.5637V51.7768Z" fill="#333333"/>
<path fill-rule="evenodd" clip-rule="evenodd" d="M10.2737 0.599976C12.3109 0.599976 13.0411 1.96687 13.5969 3.41994L19.78 20.3457C19.8253 20.4754 19.7947 20.6884 19.5951 20.7655L16.2913 22.0459C16.1285 22.1084 15.9461 22.0178 15.8874 21.855L14.4687 17.9391H6.08125L4.65886 21.855C4.60256 22.0104 4.42751 22.1157 4.25369 22.0459L0.952337 20.7655C0.783414 20.6994 0.706296 20.5073 0.765052 20.3457L6.93976 3.42388L7.06394 3.10598C7.59943 1.78932 8.38324 0.599976 10.2737 0.599976ZM60.1013 13.2676V10.1035H58.0285V13.2676L57.7261 13.2922C56.4385 13.4196 55.4455 13.8155 54.7473 14.4797C53.9953 15.195 53.6193 16.1704 53.6193 17.4057C53.6193 18.5678 54.0087 19.5188 54.7875 20.2585C55.5107 20.9454 56.4939 21.3681 57.737 21.5267L58.0285 21.5586V25.1035H60.1013V21.5586L60.3937 21.5298C61.6402 21.3849 62.6194 20.9758 63.3312 20.3025C64.0979 19.5774 64.4812 18.6118 64.4812 17.4057C64.4812 16.2241 64.093 15.2671 63.3166 14.5346C62.5957 13.8545 61.6201 13.4418 60.3897 13.2964L60.1013 13.2676ZM20.5362 28.5895C20.5068 28.4416 20.3793 28.3291 20.2219 28.3291H0.317038L0.252807 28.3358C0.107777 28.3664 0 28.4984 0 28.6548V32.2768L0.00831164 32.351C0.0409444 32.4939 0.165951 32.6 0.317038 32.6H20.2219L20.2873 32.5934C20.4348 32.5633 20.5426 32.4332 20.5426 32.2768V28.6548L20.5362 28.5895ZM95.3894 21.5H97.6232V13.3115H91.427L91.3715 14.1002C91.2762 15.366 91.1665 16.3885 91.0424 17.1677C90.8935 18.1028 90.7251 18.7705 90.5371 19.1709C90.3491 19.5713 90.1159 19.7715 89.8376 19.7715C89.6582 19.7715 89.4787 19.744 89.2993 19.6891L89.1198 19.625V21.4121L89.2678 21.4743C89.5751 21.5891 89.9506 21.6465 90.3942 21.6465C90.9997 21.6465 91.4892 21.445 91.8627 21.0422C92.2363 20.6394 92.5354 19.9875 92.76 19.0866C92.9685 18.2501 93.1476 17.0126 93.2972 15.374L93.3313 14.9887H95.3894V21.5ZM69.6814 13.143C70.78 13.143 71.6223 13.3823 72.2082 13.8608C72.7491 14.3025 73.0403 14.9564 73.0819 15.8225L73.0871 16.0434V21.5H71.5271L71.0949 20.3867H71.0363L70.8745 20.5808C70.5496 20.9512 70.2165 21.2149 69.8754 21.3718C69.4775 21.5549 68.9587 21.6465 68.319 21.6465C67.5329 21.6465 66.914 21.4219 66.4624 20.9726C66.0107 20.5234 65.7849 19.8838 65.7849 19.0537C65.7849 18.1845 66.0888 17.5437 66.6967 17.1311C67.254 16.7529 68.0707 16.5295 69.147 16.4611L69.447 16.4463L70.8679 16.4023V16.0434L70.8629 15.8927C70.8131 15.1631 70.39 14.7983 69.5935 14.7983C69.0119 14.7983 68.3396 14.9546 67.5767 15.2671L67.2863 15.3916L66.5466 13.8828L66.8324 13.7422C67.699 13.3428 68.6486 13.143 69.6814 13.143ZM42.5671 21.5V13.3115H36.3708L36.3154 14.1002C36.2201 15.366 36.1104 16.3885 35.9863 17.1677C35.8374 18.1028 35.6689 18.7705 35.4809 19.1709C35.2929 19.5713 35.0598 19.7715 34.7814 19.7715C34.602 19.7715 34.4226 19.744 34.2431 19.6891L34.0637 19.625V21.4121L34.2117 21.4743C34.519 21.5891 34.8944 21.6465 35.3381 21.6465C35.9436 21.6465 36.4331 21.445 36.8066 21.0422C37.1801 20.6394 37.4792 19.9875 37.7038 19.0866C37.9124 18.2501 38.0915 17.0126 38.2411 15.374L38.2751 14.9887H40.3332V21.5H42.5671ZM47.1447 13.3115V16.4756H48.7194L49.0043 16.4791C50.1207 16.5075 50.9584 16.7066 51.5173 17.0761C52.1228 17.4765 52.4255 18.082 52.4255 18.8926C52.4255 20.5709 51.3012 21.439 49.0526 21.4969L48.8073 21.5H44.9108V13.3115H47.1447ZM34.0637 21.5L30.2697 10.748H27.4938L23.7146 21.5H26.1608L26.9372 18.9511H30.841L31.6174 21.5H34.0637ZM82.6599 10.792V15.9775L86.4978 10.792H88.9147L85.0109 15.9336L89.1198 21.5H86.5417L82.6599 16.0727V21.5H80.3894V10.792H82.6599ZM102.128 13.3115H99.967V21.5H102.648L106.412 15.7724L106.382 16.1168C106.333 16.6759 106.3 17.1611 106.282 17.5726L106.268 18.0308L106.266 18.2334V21.5H108.426V13.3115H105.738L101.959 19.0537L102.037 18.0964C102.075 17.5993 102.102 17.2097 102.116 16.9274L102.127 16.6237L102.128 13.3115ZM113.004 13.3115V17.2885L116.139 13.3115H118.6L115.355 17.2373L118.885 21.5H116.351L113.004 17.3471V21.5H110.77V13.3115H113.004ZM70.0036 17.7353L70.8679 17.706V18.3799L70.8606 18.5602C70.8267 18.9704 70.6741 19.3058 70.4028 19.5664C70.0927 19.8642 69.6789 20.0132 69.1613 20.0132C68.4387 20.0132 68.0773 19.6982 68.0773 19.0683C68.0773 18.6289 68.236 18.3017 68.5534 18.0869C68.8311 17.8989 69.2359 17.7857 69.7679 17.7472L70.0036 17.7353ZM48.6755 18.021H47.1447V19.9546H48.7048C49.696 19.9546 50.1916 19.6103 50.1916 18.9219C50.1916 18.6045 50.0646 18.375 49.8107 18.2334C49.5931 18.112 49.284 18.0426 48.8834 18.0253L48.6755 18.021ZM57.823 14.9792L58.0285 14.9448V19.8667L57.8156 19.831C57.2615 19.7189 56.8173 19.4708 56.4831 19.0866C56.1071 18.6545 55.9191 18.0942 55.9191 17.4057C55.9191 16.7466 56.1132 16.1924 56.5014 15.7431C56.8465 15.3438 57.287 15.0892 57.823 14.9792ZM60.1013 14.9741V19.8667C60.7507 19.7788 61.2609 19.5176 61.632 19.083C62.0031 18.6484 62.1887 18.0893 62.1887 17.4057C62.1887 16.7612 62.0056 16.218 61.6394 15.7761C61.3138 15.3833 60.8726 15.1284 60.3156 15.0115L60.1013 14.9741ZM78.5949 18.3945V16.5635H74.6618V18.3945H78.5949ZM28.8928 12.4106L28.7364 12.9794C28.6417 13.3114 28.5166 13.7365 28.3611 14.2549L27.5085 17.0469H30.299L29.0869 13.1284L28.9908 12.7956C28.9489 12.6444 28.9162 12.5161 28.8928 12.4106ZM10.2542 5.66034H10.2909L13.1356 14.1738H7.41917L10.2542 5.66034Z" fill="#EE2A23"/>
<defs>
<linearGradient id="paint0_linear" x1="14.5312" y1="51.9284" x2="25.3949" y2="57.974" gradientUnits="userSpaceOnUse">
<stop stop-color="#00A9F9"/>
<stop offset="0.9899" stop-color="#0B89EA"/>
</linearGradient>
</defs>
</svg>
