<svg width="127" height="54" viewBox="0 0 127 54" fill="none" xmlns="http://www.w3.org/2000/svg">
<path fill-rule="evenodd" clip-rule="evenodd" d="M31.4262 44.2769C33.538 42.1708 35.5034 40.2054 35.4696 40.2054L30.7955 35.5314L28.5486 37.7783C28.0643 38.2626 27.794 38.9046 27.794 39.5916C27.794 40.2448 28.0362 40.8643 28.481 41.343L28.7626 41.6245C29.5172 42.3791 30.4745 43.3308 31.4262 44.2769ZM36.8887 46.8955C38.2402 46.8955 39.3383 45.7974 39.3383 44.4458C39.3383 43.0943 38.2458 41.9962 36.8887 41.9962C35.5372 41.9962 34.439 43.0943 34.439 44.4458C34.439 45.7974 35.5372 46.8955 36.8887 46.8955ZM35.2331 48.8721L30.5534 53.5518L24.9558 47.9542C23.0974 46.0958 23.0355 43.1281 24.7643 41.1965L24.7812 41.1796C24.7829 41.1779 24.7846 41.1757 24.7865 41.1733C24.7908 41.1677 24.7959 41.161 24.8037 41.1571C24.8657 41.0839 24.9333 41.0163 25.0008 40.9488L25.0008 40.9488L27.4505 38.4991C27.3153 38.8483 27.2478 39.2199 27.2478 39.6029C27.2478 40.3913 27.5462 41.1459 28.0812 41.7259L28.374 42.0187C29.3595 42.9986 30.2493 43.8827 31.0377 44.6655C33.4141 47.025 34.929 48.5455 35.2331 48.8721ZM45.2805 37.5314C43.4811 37.5314 41.9726 38.7182 41.9726 41.0843C41.9726 42.7765 42.6388 43.6877 43.6419 44.1931L41.5132 48.818H42.9298L44.867 44.4917H45.8854V48.818H47.1106V37.5314H45.2805ZM45.2269 43.481C44.1626 43.481 43.2896 42.899 43.2896 41.0843C43.2896 39.2006 44.2468 38.5574 45.2269 38.5574H45.8778V43.481H45.2269ZM51.7738 44.2008H49.9361V40.8393H48.7033V48.7644H49.9361V45.2115H51.7738V48.7644H52.9913V40.8393H51.7738V44.2008ZM54.2011 47.746C54.9285 46.0691 55.0051 43.6112 55.0051 41.5054V40.8316H58.7035V47.746H59.3314V50.3112H58.2364V48.7568H54.8213V50.3112H53.711V47.746H54.2011ZM56.1077 41.9649C56.1077 43.6341 56.0312 46.0691 55.365 47.7537H57.486V41.8194H56.1077V41.9649ZM64.4081 47.2866C64.0942 47.5087 63.5352 47.8226 62.846 47.8226C61.8659 47.8226 61.3605 46.8808 61.3605 45.089H64.6838V44.4152C64.6838 41.7275 63.8108 40.7397 62.4862 40.7397C60.7939 40.7397 60.0818 42.5928 60.0818 45.1426C60.0818 47.5776 61.0925 48.8869 62.7388 48.8869C63.5275 48.8869 64.1937 48.6343 64.6991 48.2437L64.4081 47.2866ZM62.4785 41.7352C63.1906 41.7352 63.4127 42.7229 63.4127 44.0782H61.3759C61.4524 42.6617 61.7204 41.7352 62.4785 41.7352ZM70.6334 48.7568L68.3669 44.5606L70.3424 40.8393H70.3383L70.3424 40.8316H69.0943L67.18 44.4994V40.8393L67.18 40.8316H65.9472L65.9472 40.8393L65.9472 48.7568L65.9472 48.7644H67.18L67.18 48.7568L67.18 44.8133L67.182 44.817L69.2857 48.7644H70.6257L70.6216 48.7568H70.6334ZM74.9137 42.2941L74.908 42.2892L74.9061 42.3018C74.5768 42.0185 74.1021 41.7505 73.5967 41.7505C73.1842 41.7505 72.8256 41.9672 72.5608 42.4029C72.2639 42.8979 72.0882 43.6721 72.0882 44.7291C72.0882 46.7123 72.563 47.8456 73.5584 47.8456C74.1633 47.8456 74.6151 47.6082 74.9061 47.3555L75.1817 48.2744L75.1738 48.281L75.1741 48.282C74.7453 48.6419 74.2399 48.8793 73.5125 48.8793C71.8049 48.8793 70.7789 47.5087 70.7789 44.8057C70.7789 43.1428 71.2096 41.8834 72.0529 41.2307C72.4729 40.9019 72.9959 40.7244 73.6197 40.7244C74.3318 40.7244 74.7453 40.9158 75.0898 41.1302L74.9137 42.2941ZM84.0794 48.818L80.5647 42.7382L83.796 37.5314H83.0456L79.7607 42.8072V37.5314H78.9797V48.818H79.7607V42.8684L83.1988 48.818H84.0794ZM88.9034 43.0369V47.3938C88.9034 47.9451 88.9799 48.5577 89.0718 48.8487H88.398C88.3291 48.6496 88.2525 48.3433 88.2066 47.7767C87.8237 48.5347 87.2571 49.0095 86.476 49.0095C85.404 49.0095 84.669 48.1519 84.669 46.697C84.669 44.9894 85.5955 44.1012 87.3107 44.1012H88.1759V43.1058C88.1759 41.8883 87.7242 41.3676 86.8589 41.3676C86.1851 41.3676 85.5725 41.6892 85.1973 42.2405L84.9906 41.5284C85.3045 41.1226 85.963 40.7244 86.8589 40.7244C88.1683 40.7244 88.9034 41.4518 88.9034 43.0369ZM86.6368 48.4122C87.3796 48.4122 87.8926 47.7001 88.1759 46.8501V44.6525H87.326C86.0243 44.6525 85.3964 45.2498 85.3964 46.6434C85.3964 47.7613 85.8864 48.4122 86.6368 48.4122ZM94.4625 48.1365L94.2251 47.5163C94.2251 47.5163 93.6661 48.3739 92.6247 48.3739C91.3766 48.3739 90.8177 47.0722 90.8177 44.8899C90.8177 42.6387 91.3919 41.36 92.6247 41.36C93.3139 41.36 93.8269 41.7734 94.1792 42.2635L94.3859 41.4748C94.0337 41.046 93.4594 40.7321 92.6247 40.7321C90.9785 40.7321 90.0673 42.2712 90.0673 44.8976C90.0673 47.4933 90.9938 49.0248 92.6094 49.0248C93.8729 49.0248 94.4625 48.1365 94.4625 48.1365ZM99.5238 47.5163L99.7612 48.1365C99.7612 48.1365 99.1716 49.0248 97.9082 49.0248C96.2925 49.0248 95.366 47.4933 95.366 44.8976C95.366 42.2712 96.2772 40.7321 97.9235 40.7321C98.7505 40.7321 99.3324 41.046 99.6847 41.4748L99.4779 42.2635C99.1257 41.7734 98.6126 41.36 97.9312 41.36C96.6984 41.36 96.1241 42.6387 96.1241 44.8899C96.1241 47.0722 96.683 48.3739 97.9312 48.3739C98.9649 48.3739 99.5238 47.5163 99.5238 47.5163ZM104.685 47.3938V43.0369C104.685 41.4518 103.95 40.7244 102.648 40.7244C101.752 40.7244 101.094 41.1226 100.78 41.5284L100.986 42.2405C101.362 41.6892 101.974 41.3676 102.648 41.3676C103.513 41.3676 103.965 41.8883 103.965 43.1058V44.1012H103.1C101.385 44.1012 100.458 44.9894 100.458 46.697C100.458 48.1519 101.193 49.0095 102.265 49.0095C103.054 49.0095 103.62 48.5347 103.996 47.7767C104.042 48.3433 104.126 48.6496 104.187 48.8487H104.861C104.769 48.5577 104.685 47.9451 104.685 47.3938ZM103.965 46.8501C103.682 47.7001 103.161 48.4122 102.426 48.4122C101.676 48.4122 101.185 47.7613 101.185 46.6434C101.185 45.2498 101.813 44.6525 103.115 44.6525H103.965V46.8501Z" fill="white"/>
<path fill-rule="evenodd" clip-rule="evenodd" d="M77.0558 0.729126V20.1252H78.4665V24.7291H77.3433L77.1422 21.3046H68.3366L68.1347 24.7291H67.0127V20.1252H67.617C68.5856 19.3221 69.0748 17.1631 69.3668 14.3888L69.401 14.053C69.6887 11.0028 69.7751 6.45553 69.8618 0.729126H77.0558ZM31.8928 6.80089V19.4628H33.0436V24.1536H31.0295V21.3046H24.8135V24.1536H22.7994V19.4628H23.6915C24.9597 16.5117 25.1448 12.2663 25.1581 8.52351L25.1589 6.80089H31.8928ZM84.1379 6.51313C86.6411 6.51313 88.2522 9.13225 87.7922 14.2836H81.2313C81.2889 18.2544 82.3245 20.4125 84.4252 20.4125C86.3529 20.4125 87.3602 18.859 87.3602 18.859L87.7922 19.9514L87.6789 20.0994C87.3457 20.5027 86.2725 21.5918 84.3969 21.5918C81.3182 21.5918 79.9074 18.8004 79.9074 14.053C79.9074 9.30457 81.6914 6.51313 84.1379 6.51313ZM38.7705 6.59977C41.1878 6.59977 42.7706 8.41249 42.7706 13.333V14.5709H36.7271C36.7271 17.8517 37.648 19.5782 39.4322 19.5782C40.6984 19.5782 41.7057 19.0027 42.2812 18.6L42.7994 20.3256C41.8785 21.0456 40.6696 21.5059 39.2308 21.5059C36.238 21.5059 34.3965 19.1179 34.3965 14.6578C34.3965 9.99529 35.6915 6.59977 38.7705 6.59977ZM59.0296 6.59977C60.3242 6.59977 61.0725 6.94513 61.7056 7.34761L61.389 9.47761C60.7847 8.95921 59.9214 8.47033 59.0006 8.47033C57.389 8.47033 56.2382 10.283 56.2382 13.9378C56.2382 17.5634 57.1012 19.6358 58.9142 19.6358C60.0076 19.6358 60.8423 19.2041 61.3602 18.7438L61.8782 20.4125C61.1013 21.0742 60.1804 21.5059 58.8566 21.5059C55.7486 21.5059 53.878 19.0027 53.878 14.053C53.878 9.50593 55.6338 6.59977 59.0296 6.59977ZM120.118 6.80089V16.8727C120.118 17.6496 120.059 18.2827 120.002 18.9158H120.088C120.29 18.2544 120.577 17.6213 120.865 16.9882L125.585 6.80089H126.764V21.3046H125.47V11.2039C125.47 10.4556 125.526 9.82249 125.585 9.21817H125.498C125.297 9.85129 125.038 10.4556 124.721 11.0887L120.002 21.3046H118.851V6.80089H120.118ZM10.8251 0.729126V21.3046H8.6092V13.4198H6.76744L3.25696 21.3046H0.695679L4.552 12.8729C2.73856 11.952 1.52992 10.283 1.52992 7.20409C1.52992 2.88745 4.26376 0.729126 7.51576 0.729126H10.8251ZM47.3171 6.80089V13.506L50.799 6.80089H53.0726L49.4754 13.6212L53.5902 21.3046H51.1444L47.3171 14.0813V21.3046H45.0724V6.80089H47.3171ZM15.9503 6.80089V12.9588H19.2885V6.80089H21.5044V21.3046H19.2885V14.8013H15.9503V21.3046H13.7056V6.80089H15.9503ZM91.7078 6.80089V13.2178H96.6575V6.80089H98.0097V21.3046H96.6575V14.3119H91.7078V21.3046H90.3556V6.80089H91.7078ZM102.559 6.80089V12.1824H103.624C106.387 12.1824 108.171 13.6788 108.171 16.7006C108.171 19.7794 106.271 21.3046 103.538 21.3046H101.207V6.80089H102.559ZM116.633 6.80089V7.92361H111.827V21.3046H110.504V6.80089H116.633ZM103.566 13.247H102.559V20.2397H103.422C105.465 20.2397 106.847 19.2331 106.847 16.7292C106.847 14.2836 105.638 13.247 103.566 13.247ZM75.617 1.90897H71.1568L71.1231 3.73097C71.0344 8.05605 70.8985 11.4444 70.696 14.053C70.437 17.1317 69.9765 19.1748 69.1998 20.1252H75.617V1.90897ZM29.6769 8.61385H27.1732V8.87329C27.1732 11.9234 27.0294 16.3834 25.8208 19.4628H29.6769V8.61385ZM84.1379 7.63585C82.6127 7.63585 81.3748 9.59233 81.2596 13.2178H86.5266C86.7563 9.36217 85.6055 7.63585 84.1379 7.63585ZM38.7705 8.44129C37.389 8.44129 36.8999 10.139 36.7559 12.7291H40.4682L40.4627 12.2433C40.4105 10.0206 39.979 8.44129 38.7705 8.44129ZM8.6092 2.59969H7.42936C5.6452 2.59969 3.91888 3.77953 3.91888 7.20409C3.91888 10.5132 5.5012 11.5781 7.42936 11.5781H8.6092V2.59969Z" fill="white"/>
</svg>
