<svg width="132" height="30" viewBox="0 0 132 30" fill="none" xmlns="http://www.w3.org/2000/svg">
<path d="M21.7728 18.6368C23.9316 18.6368 25.6817 16.8868 25.6817 14.7279C25.6817 12.5691 23.9316 10.819 21.7728 10.819C19.6139 10.819 17.8638 12.5691 17.8638 14.7279C17.8638 16.8868 19.6139 18.6368 21.7728 18.6368Z" fill="#00EEBC"/>
<path d="M19.4986 7.92801L11.7302 0.159538L2.79128 9.09844C-0.278164 12.1679 -0.278164 17.145 2.79128 20.2144L5.00131 22.4245C5.00218 22.4245 19.6139 7.92801 19.4986 7.92801Z" fill="#00EEBC"/>
<path d="M8.48832 10.5028C8.41554 10.4309 8.34364 10.359 8.2726 10.2879C8.26913 10.2853 8.26653 10.2819 8.26394 10.2793C8.18597 10.2022 8.10886 10.1251 8.03349 10.0497C8.03262 10.0488 8.03089 10.0471 8.03002 10.0462C7.27458 9.23705 6.81195 8.14979 6.81195 6.95511C6.81195 5.70325 7.31962 4.57094 8.14005 3.75052L2.79213 9.09844C2.68211 9.20846 2.57641 9.32022 2.47505 9.43458C2.46465 9.44584 2.45426 9.45797 2.44386 9.46923C2.44213 9.47096 2.44126 9.47183 2.43953 9.47356C2.43087 9.48309 2.4222 9.49262 2.41354 9.50215C2.41441 9.50215 2.41441 9.50215 2.41527 9.50215C-0.344886 12.5881 -0.243525 17.3304 2.72023 20.2942L11.6591 29.233L19.4276 21.4646C19.5047 21.4646 12.8062 14.7946 8.48832 10.5028Z" fill="url(#paint0_linear)"/>
<path fill-rule="evenodd" clip-rule="evenodd" d="M31.0136 9.54536C31.0136 5.76635 33.4228 3.87073 36.2969 3.87073H39.2198V21.8975H37.263V14.9876H35.6364L32.5423 21.8975H30.2798L33.6797 14.5107C32.0776 13.7035 31.0136 12.2481 31.0136 9.54536ZM36.2112 5.50952C34.6458 5.50952 33.1171 6.53683 33.1171 9.54536C33.1171 12.4438 34.5113 13.3733 36.2112 13.3733H37.2508V5.50952H36.2112ZM46.6677 14.5229H43.7326V9.15401H41.7636V21.8119H43.7326V16.1372H46.6677V21.8119H48.6123V9.15401H46.6677V14.5229ZM50.5446 20.1853C51.7064 17.507 51.8287 13.5812 51.8287 10.218V9.14178H57.7357V20.1853H58.7386V24.2823H56.9897V21.7996H51.5352V24.2823H49.7619V20.1853H50.5446ZM53.5898 10.9518C53.5898 13.6179 53.4675 17.507 52.4035 20.1975H55.7912V10.7194H53.5898V10.9518ZM66.8469 19.4515L66.8469 19.4515C66.3454 19.8062 65.4527 20.3076 64.352 20.3076C62.7866 20.3076 61.9795 18.8033 61.9795 15.9415H67.2872V14.8653C67.2872 10.5727 65.893 8.99502 63.7772 8.99502C61.0744 8.99502 59.9371 11.9546 59.9371 16.0272C59.9371 19.9162 61.5514 22.0075 64.1808 22.0075C65.4405 22.0075 66.5045 21.604 67.3116 20.9802L66.8469 19.4515ZM63.765 10.5849C64.9024 10.5849 65.257 12.1625 65.257 14.3272H62.0039C62.1262 12.0647 62.5543 10.5849 63.765 10.5849ZM76.7897 21.7996L73.1697 15.0977L76.325 9.15401H76.3185L76.325 9.14178H74.3316L71.2741 14.9999V9.15401V9.14178H69.3051V9.15401V21.7996V21.8119H71.2741V21.7996V15.5013L74.6373 21.8119H76.7775L76.7709 21.7996H76.7897ZM83.6262 11.4777L83.617 11.4698L83.614 11.4899C83.0881 11.0374 82.3299 10.6094 81.5227 10.6094C80.8638 10.6094 80.2909 10.9555 79.8679 11.6517C79.3939 12.4422 79.1134 13.6788 79.1134 15.3667C79.1134 18.5343 79.8717 20.3443 81.4615 20.3443C82.4277 20.3443 83.1492 19.9652 83.614 19.5616L84.0543 21.0292L84.0415 21.0398L84.042 21.0414C83.3572 21.6162 82.55 21.9953 81.3882 21.9953C78.6609 21.9953 77.0221 19.8062 77.0221 15.489C77.0221 12.8333 77.71 10.8219 79.0567 9.77935C79.7277 9.25411 80.5631 8.97056 81.5594 8.97056C82.6967 8.97056 83.3572 9.2763 83.9075 9.61874L83.6262 11.4777ZM98.2653 21.8975L92.6518 12.187L97.8128 3.87073H96.6143L91.3677 12.2971V3.87073H90.1202V21.8975H91.3677V12.3949L96.8589 21.8975H98.2653ZM105.97 12.664V19.6227C105.97 20.5033 106.092 21.4817 106.239 21.9464H105.163C105.053 21.6284 104.931 21.1392 104.857 20.2342C104.246 21.445 103.341 22.2032 102.093 22.2032C100.381 22.2032 99.207 20.8335 99.207 18.5098C99.207 15.7826 100.687 14.3639 103.426 14.3639H104.808V12.774C104.808 10.8295 104.087 9.99786 102.705 9.99786C101.628 9.99786 100.65 10.5115 100.051 11.3921L99.7206 10.2547C100.222 9.60651 101.274 8.97056 102.705 8.97056C104.796 8.97056 105.97 10.1324 105.97 12.664ZM102.35 21.2493C103.536 21.2493 104.356 20.1119 104.808 18.7544V15.2444H103.451C101.372 15.2444 100.369 16.1984 100.369 18.4242C100.369 20.2098 101.152 21.2493 102.35 21.2493ZM114.849 20.809L114.47 19.8184C114.47 19.8184 113.577 21.1881 111.914 21.1881C109.92 21.1881 109.028 19.1091 109.028 15.6236C109.028 12.028 109.945 9.98563 111.914 9.98563C113.014 9.98563 113.834 10.646 114.396 11.4287L114.727 10.1691C114.164 9.48421 113.247 8.98279 111.914 8.98279C109.284 8.98279 107.829 11.441 107.829 15.6358C107.829 19.7817 109.309 22.2277 111.889 22.2277C113.907 22.2277 114.849 20.809 114.849 20.809ZM122.933 19.8184L123.312 20.809C123.312 20.809 122.37 22.2277 120.352 22.2277C117.772 22.2277 116.292 19.7817 116.292 15.6358C116.292 11.441 117.747 8.98279 120.377 8.98279C121.698 8.98279 122.627 9.48421 123.19 10.1691L122.859 11.4287C122.297 10.646 121.477 9.98563 120.389 9.98563C118.42 9.98563 117.503 12.028 117.503 15.6236C117.503 19.1091 118.396 21.1881 120.389 21.1881C122.04 21.1881 122.933 19.8184 122.933 19.8184ZM131.176 19.6227V12.664C131.176 10.1324 130.002 8.97056 127.923 8.97056C126.492 8.97056 125.44 9.60651 124.939 10.2547L125.269 11.3921C125.868 10.5115 126.846 9.99786 127.923 9.99786C129.305 9.99786 130.026 10.8295 130.026 12.774V14.3639H128.644C125.905 14.3639 124.425 15.7826 124.425 18.5098C124.425 20.8335 125.599 22.2032 127.311 22.2032C128.571 22.2032 129.476 21.445 130.075 20.2342C130.148 21.1392 130.283 21.6284 130.381 21.9464H131.457C131.31 21.4817 131.176 20.5033 131.176 19.6227ZM130.026 18.7544C129.574 20.1119 128.742 21.2493 127.568 21.2493C126.369 21.2493 125.587 20.2098 125.587 18.4242C125.587 16.1984 126.59 15.2444 128.669 15.2444H130.026V18.7544Z" fill="#333333"/>
<defs>
<linearGradient id="paint0_linear" x1="-2.65666" y1="18.9939" x2="14.4964" y2="28.5396" gradientUnits="userSpaceOnUse">
<stop stop-color="#00A9F9"/>
<stop offset="0.9899" stop-color="#0B89EA"/>
</linearGradient>
</defs>
</svg>
