<svg width="84" height="62" viewBox="0 0 84 62" fill="none" xmlns="http://www.w3.org/2000/svg">
<path fill-rule="evenodd" clip-rule="evenodd" d="M50.8184 11.6895C52.4752 11.6895 53.8184 13.0326 53.8184 14.6895V33.6873C53.8184 35.3442 52.4752 36.6873 50.8184 36.6873H22C20.3431 36.6873 19 35.3442 19 33.6873V14.6895C19 13.0326 20.3431 11.6895 22 11.6895H50.8184ZM51.071 23.2955H21.746L21.7469 32.7933C21.7469 33.3062 22.133 33.7288 22.6303 33.7866L22.7469 33.7933H50.0715C50.5843 33.7933 51.007 33.4073 51.0647 32.91L51.0715 32.7933L51.071 23.2955ZM40.3799 0.918514L67.7878 9.82388C69.3636 10.3359 70.226 12.0283 69.714 13.6041L63.8433 31.6721C63.3313 33.2479 61.6389 34.1102 60.0631 33.5982L57.3891 32.7289V29.6869L60.247 30.6151C60.7348 30.7735 61.256 30.537 61.4647 30.0819L61.5071 29.973L64.4417 20.9399L57.3891 18.6489V13.9539L65.8211 16.6944L66.8252 13.6055C66.9959 13.0802 66.7085 12.5161 66.1832 12.3454L40.196 3.90166C39.7083 3.74319 39.187 3.97972 38.9784 4.43487L38.936 4.5437L37.9314 7.63247L42.1751 9.01087H34.5951L36.5997 2.84463C37.1117 1.26887 38.8042 0.406518 40.3799 0.918514ZM30.3167 25.7479V31.3109H24.7537V25.7479H30.3167ZM50.0715 14.5835H22.7469C22.2341 14.5835 21.8114 14.9695 21.7537 15.4669L21.7469 15.5835L21.746 18.8315H51.071L51.0715 15.5835C51.0715 15.0312 50.6237 14.5835 50.0715 14.5835Z" fill="#19D0C8"/>
<path d="M14.0032 54.7023C15.3705 54.7023 16.4789 53.5939 16.4789 52.2266C16.4789 50.8594 15.3705 49.751 14.0032 49.751C12.6359 49.751 11.5276 50.8594 11.5276 52.2266C11.5276 53.5939 12.6359 54.7023 14.0032 54.7023Z" fill="#00EEBC"/>
<path d="M12.5629 47.92L7.64288 43L1.98158 48.6613C0.0375949 50.6053 0.0375949 53.7575 1.98158 55.7014L3.38126 57.1011C3.38181 57.1011 12.6359 47.92 12.5629 47.92Z" fill="#00EEBC"/>
<path d="M5.58972 49.5507C5.54363 49.5052 5.49809 49.4596 5.45309 49.4146C5.4509 49.413 5.44925 49.4108 5.44761 49.4092C5.39823 49.3603 5.34939 49.3115 5.30166 49.2638C5.30111 49.2632 5.30001 49.2621 5.29946 49.2616C4.82101 48.7491 4.52802 48.0605 4.52802 47.3039C4.52802 46.511 4.84954 45.7939 5.36915 45.2743L1.98213 48.6613C1.91245 48.731 1.84551 48.8018 1.78131 48.8742C1.77473 48.8813 1.76815 48.889 1.76156 48.8961C1.76046 48.8972 1.75992 48.8978 1.75882 48.8989C1.75333 48.9049 1.74784 48.911 1.74236 48.917C1.74291 48.917 1.74291 48.917 1.74345 48.917C-0.00464642 50.8714 0.0595495 53.8749 1.93659 55.7519L7.59789 61.4132L12.5179 56.4932C12.5668 56.4932 8.32435 52.2689 5.58972 49.5507Z" fill="url(#paint0_linear)"/>
<path fill-rule="evenodd" clip-rule="evenodd" d="M19.8557 48.9444C19.8557 46.551 21.3816 45.3505 23.2018 45.3505H25.053V56.7674H23.8137V52.3912H22.7835L20.8239 56.7674H19.391L21.5442 52.0891C20.5296 51.5779 19.8557 50.6562 19.8557 48.9444ZM23.1476 46.3884C22.1561 46.3884 21.1879 47.039 21.1879 48.9444C21.1879 50.7801 22.0709 51.3688 23.1476 51.3688H23.8059V46.3884H23.1476ZM29.77 52.0968H27.9111V48.6965H26.664V56.7132H27.9111V53.1192H29.77V56.7132H31.0015V48.6965H29.77V52.0968ZM32.2253 55.683C32.9612 53.9867 33.0386 51.5004 33.0386 49.3704V48.6888H36.7797V55.683H37.4149V58.2778H36.3072V56.7054H32.8527V58.2778H31.7296V55.683H32.2253ZM34.154 49.8351C34.154 51.5237 34.0765 53.9867 33.4027 55.6908H35.5482V49.688H34.154V49.8351ZM42.5502 55.2183C42.2326 55.4429 41.6672 55.7605 40.9701 55.7605C39.9786 55.7605 39.4674 54.8078 39.4674 52.9953H42.829V52.3137C42.829 49.595 41.946 48.5958 40.606 48.5958C38.8943 48.5958 38.1739 50.4703 38.1739 53.0495C38.1739 55.5126 39.1963 56.8371 40.8616 56.8371C41.6594 56.8371 42.3333 56.5815 42.8445 56.1865L42.5502 55.2183ZM40.5983 49.6028C41.3186 49.6028 41.5432 50.6019 41.5432 51.9729H39.4829C39.5604 50.54 39.8315 49.6028 40.5983 49.6028ZM48.8473 56.7054L46.5546 52.4609L46.5547 52.4606L48.553 48.6965H48.5489L48.553 48.6888H47.2904L45.354 52.3989V48.6965V48.6888H44.107V48.6965V56.7054V56.7132H45.354V56.7054V52.7165L47.4841 56.7132H48.8395L48.8354 56.7054H48.8473ZM53.177 50.1682L53.1712 50.1632L53.1693 50.1759C52.8362 49.8894 52.356 49.6183 51.8448 49.6183C51.4276 49.6183 51.0648 49.8374 50.7969 50.2782C50.4966 50.7789 50.3189 51.5621 50.3189 52.6313C50.3189 54.6374 50.7992 55.7837 51.8061 55.7837C52.418 55.7837 52.875 55.5436 53.1693 55.288L53.4481 56.2175L53.4401 56.2242L53.4404 56.2252C53.0066 56.5893 52.4954 56.8294 51.7596 56.8294C50.0324 56.8294 48.9945 55.4429 48.9945 52.7087C48.9945 51.0266 49.4302 49.7526 50.2833 49.0924C50.7082 48.7599 51.2372 48.5804 51.868 48.5804C52.5884 48.5804 53.0066 48.774 53.3552 48.9909L53.177 50.1682ZM62.4485 56.7674L58.8933 50.6174L62.1619 45.3505H61.4028L58.08 50.6871V45.3505H57.2899V56.7674H58.08V50.7491L61.5577 56.7674H62.4485ZM67.3282 50.9195V55.3267C67.3282 55.8844 67.4056 56.5041 67.4986 56.7984H66.817C66.7472 56.597 66.6698 56.2872 66.6233 55.714C66.236 56.4808 65.6629 56.961 64.8728 56.961C63.7884 56.961 63.0449 56.0935 63.0449 54.6219C63.0449 52.8946 63.9821 51.9961 65.7171 51.9961H66.5923V50.9892C66.5923 49.7577 66.1353 49.231 65.2601 49.231C64.5785 49.231 63.9588 49.5563 63.5793 50.114L63.3702 49.3936C63.6878 48.9831 64.3539 48.5804 65.2601 48.5804C66.5846 48.5804 67.3282 49.3162 67.3282 50.9195ZM65.0355 56.3569C65.7868 56.3569 66.3057 55.6365 66.5923 54.7768V52.5538H65.7326C64.4158 52.5538 63.7807 53.158 63.7807 54.5677C63.7807 55.6985 64.2764 56.3569 65.0355 56.3569ZM72.9514 56.078L72.7113 55.4507C72.7113 55.4507 72.1459 56.3182 71.0925 56.3182C69.83 56.3182 69.2645 55.0014 69.2645 52.7939C69.2645 50.5167 69.8455 49.2232 71.0925 49.2232C71.7896 49.2232 72.3085 49.6415 72.6648 50.1372L72.874 49.3394C72.5177 48.9057 71.9368 48.5881 71.0925 48.5881C69.4272 48.5881 68.5055 50.145 68.5055 52.8017C68.5055 55.4274 69.4427 56.9765 71.077 56.9765C72.355 56.9765 72.9514 56.078 72.9514 56.078ZM78.0712 55.4507L78.3113 56.078C78.3113 56.078 77.7149 56.9765 76.4369 56.9765C74.8026 56.9765 73.8654 55.4274 73.8654 52.8017C73.8654 50.145 74.7871 48.5881 76.4524 48.5881C77.2889 48.5881 77.8776 48.9057 78.2339 49.3394L78.0248 50.1372C77.6685 49.6415 77.1495 49.2232 76.4602 49.2232C75.2131 49.2232 74.6322 50.5167 74.6322 52.7939C74.6322 55.0014 75.1976 56.3182 76.4602 56.3182C77.5058 56.3182 78.0712 55.4507 78.0712 55.4507ZM83.2917 55.3267V50.9195C83.2917 49.3162 82.5482 48.5804 81.2314 48.5804C80.3252 48.5804 79.6591 48.9831 79.3415 49.3936L79.5506 50.114C79.9302 49.5563 80.5498 49.231 81.2314 49.231C82.1067 49.231 82.5636 49.7577 82.5636 50.9892V51.9961H81.6884C79.9534 51.9961 79.0162 52.8946 79.0162 54.6219C79.0162 56.0935 79.7598 56.961 80.8441 56.961C81.6419 56.961 82.2151 56.4808 82.5946 55.714C82.6411 56.2872 82.7263 56.597 82.7883 56.7984H83.4699C83.3769 56.5041 83.2917 55.8844 83.2917 55.3267ZM82.5636 54.7768C82.2771 55.6365 81.7504 56.3569 81.0068 56.3569C80.2477 56.3569 79.752 55.6985 79.752 54.5677C79.752 53.158 80.3871 52.5538 81.7039 52.5538H82.5636V54.7768Z" fill="#333333"/>
<defs>
<linearGradient id="paint0_linear" x1="-1.46877" y1="54.9284" x2="9.39486" y2="60.974" gradientUnits="userSpaceOnUse">
<stop stop-color="#00A9F9"/>
<stop offset="0.9899" stop-color="#0B89EA"/>
</linearGradient>
</defs>
</svg>
