<svg width="73" height="61" viewBox="0 0 73 65" fill="none" xmlns="http://www.w3.org/2000/svg">
<g clip-path="url(#clip0_1270_2820)">
<path fill-rule="evenodd" clip-rule="evenodd" d="M19.6106 21.1103L19.5836 9.0885L24.3962 12.004L19.6107 14.925V20.8897L34.1911 11.9949L14.4912 0V17.9859L0 9.142L0.00600052 32.852L14.4912 24.0156L14.494 42L34.1701 29.9961L19.6106 21.1103ZM14.5126 24.0025L16.829 25.393L14.5326 23.9903L14.5126 24.0025ZM9.6478 21.0067L5.1075 18.2335V23.7786L9.6478 21.0067ZM24.3842 30.0079L19.6106 32.9022V27.092L24.3842 30.0079ZM54.1656 26.6695C57.4616 26.6695 59.9092 24.657 59.9092 21.6061C59.9092 18.6531 58.1034 16.7359 55.0854 16.7359C53.6925 16.7359 52.5432 17.2241 51.6776 18.0665C51.8842 16.3253 53.3629 15.0541 54.9908 15.0541C55.3666 15.0541 58.1951 15.0482 58.1951 15.0482L59.7947 12C59.7947 12 56.2435 12.0805 54.5926 12.0805C50.8207 12.1459 48.2729 15.5602 48.2729 19.707C48.2729 24.538 50.7578 26.6695 54.1656 26.6695ZM54.1856 19.4357C55.4094 19.4357 56.2579 20.2365 56.2579 21.6057C56.2579 22.8381 55.504 23.8534 54.1856 23.8562C52.9246 23.8562 52.0761 22.9155 52.0761 21.6268C52.0761 20.2572 52.9246 19.4357 54.1856 19.4357ZM72.6367 16.034V26.3023H68.9547V19.0993H65.4095V26.3023H61.7275V16.0333L72.6367 16.034ZM43.1077 23.4583C44.4064 23.3638 45.2759 22.8647 45.2759 22.8647L46.6386 25.3749C45.7659 25.9331 44.334 26.2961 43.2961 26.3346C39.5829 26.4025 37 24.1523 37 20.8742C37 17.6374 39.7481 15.3337 43.2961 15.3337C44.702 15.3337 45.9107 15.7093 46.8182 16.3942C46.3226 17.2685 45.3659 19.0168 45.3659 19.0168C45.3659 19.0168 44.0585 18.3346 43.0701 18.3346C41.4583 18.3346 40.2844 19.2674 40.2844 20.8949C40.2844 22.5633 41.6147 23.5024 43.1077 23.4583Z" fill="white"/>
<mask id="mask0_1270_2820" style="mask-type:luminance" maskUnits="userSpaceOnUse" x="7" y="53" width="60" height="12">
<path d="M67 53H7V65H67V53Z" fill="white"/>
</mask>
<g mask="url(#mask0_1270_2820)">
<mask id="mask1_1270_2820" style="mask-type:luminance" maskUnits="userSpaceOnUse" x="9" y="53" width="54" height="12">
<path d="M62.2301 53.24H9.0083V65H62.2301V53.24Z" fill="white"/>
</mask>
<g mask="url(#mask1_1270_2820)">
<path d="M36.7716 56.4762H35.0529L33.8366 58.4704H33.2105L33.1905 54.1547H31.5635V61.949H33.1905L33.2105 59.8098H33.8326L35.4477 61.949H37.2502L35.1445 59.114L36.7716 56.4762Z" fill="white"/>
<path d="M49.0861 59.0434C48.7556 58.8438 48.3972 58.6874 48.0213 58.5783L47.6623 58.4519L47.5667 58.4184C47.3434 58.3402 47.1081 58.2584 47.1001 58.0463C47.0981 57.9835 47.1129 57.9212 47.1437 57.8653C47.1743 57.8093 47.2197 57.7615 47.2756 57.7264C47.3934 57.6506 47.5315 57.6068 47.6743 57.5999C47.9859 57.5798 48.2948 57.6657 48.5437 57.8417L48.5875 57.8677L49.4569 56.9339L49.413 56.9004C49.3048 56.8104 49.1873 56.7306 49.0621 56.6623C48.8378 56.5426 48.5941 56.4584 48.3404 56.413C47.9749 56.3405 47.5971 56.3405 47.2317 56.413C46.8784 56.4567 46.5433 56.5848 46.2587 56.7851C46.0767 56.9179 45.9246 57.0829 45.811 57.2706C45.6975 57.4582 45.6247 57.6649 45.5967 57.8789C45.5469 58.265 45.6519 58.6547 45.8918 58.9727C46.2103 59.3019 46.6269 59.535 47.0881 59.6424L47.1599 59.6647L47.3234 59.7168C47.9136 59.9028 48.0811 59.9772 48.1767 60.0888C48.2214 60.145 48.2464 60.2125 48.2486 60.2823C48.2486 60.5465 47.9016 60.6544 47.6663 60.7213C47.5019 60.7502 47.3328 60.7472 47.1695 60.7127C47.0063 60.6781 46.8524 60.6127 46.7173 60.5204C46.4986 60.384 46.3116 60.2082 46.1669 60.0033C46.0753 60.0926 45.1739 60.9222 45.1899 60.9371L45.2179 60.9743C45.6521 61.4816 46.2605 61.8337 46.9406 61.9714C47.0959 61.9994 47.2532 62.0181 47.4112 62.0272H47.5747C48.1119 62.0377 48.6381 61.8849 49.0741 61.5919C49.369 61.3973 49.5951 61.1254 49.7242 60.8106C49.8026 60.5993 49.8302 60.3745 49.8054 60.1521C49.7806 59.9297 49.704 59.7151 49.5805 59.5233C49.4545 59.3322 49.2858 59.1685 49.0861 59.0434Z" fill="white"/>
<path d="M54.342 59.0434C54.0128 58.8438 53.6561 58.6873 53.2813 58.5783L52.9184 58.4518L52.8267 58.4183C52.5994 58.3402 52.3681 58.2583 52.3561 58.0463C52.3571 57.9836 52.3739 57.922 52.4052 57.8664C52.4364 57.8109 52.481 57.7629 52.5356 57.7263C52.6535 57.6505 52.7915 57.6068 52.9344 57.5998C53.2459 57.5804 53.5544 57.6663 53.8037 57.8416L53.8436 57.8677L54.7129 56.9339L54.6731 56.9004C54.564 56.8095 54.4452 56.7297 54.3181 56.6623C54.0953 56.5427 53.8528 56.4585 53.6003 56.413C53.2335 56.3404 52.8545 56.3404 52.4878 56.413C52.1349 56.4579 51.7999 56.5859 51.5146 56.785C51.3315 56.9166 51.1781 57.0806 51.063 57.2677C50.9482 57.4548 50.8739 57.6612 50.8447 57.8751C50.7925 58.2614 50.8977 58.6518 51.1398 58.9689C51.4584 59.2981 51.8749 59.5312 52.3361 59.6386L52.404 59.661L52.5674 59.713C53.1617 59.8991 53.3291 59.9735 53.4248 60.0851C53.4708 60.1403 53.4948 60.2087 53.4926 60.2785C53.4926 60.5427 53.1497 60.6506 52.9144 60.7176C52.7493 60.7465 52.5794 60.7435 52.4156 60.709C52.2517 60.6745 52.097 60.609 51.9614 60.5167C51.7445 60.3783 51.5578 60.2028 51.411 59.9995C51.3233 60.0888 50.422 60.9185 50.434 60.9334L50.4658 60.9706C50.9001 61.4778 51.5086 61.8299 52.1887 61.9676C52.3439 61.9959 52.5012 62.0145 52.6593 62.0234H52.8227C53.36 62.0339 53.8862 61.8812 54.3221 61.5881C54.6171 61.3936 54.8432 61.1216 54.9722 60.8068C55.0504 60.5955 55.0783 60.3708 55.0534 60.1483C55.0286 59.9259 54.952 59.7113 54.8286 59.5196C54.7041 59.3307 54.5382 59.1684 54.342 59.0434Z" fill="white"/>
<path d="M42.1152 56.4762V57.012H42.0435C41.5982 56.596 40.9947 56.3607 40.3647 56.3572C39.9783 56.3501 39.5945 56.4189 39.2388 56.5593C38.8829 56.6997 38.5625 56.9085 38.2988 57.172C37.767 57.7276 37.4819 58.4512 37.5013 59.1959C37.4807 59.9531 37.7652 60.6899 38.2988 61.2607C38.5563 61.5244 38.8715 61.7333 39.2232 61.8733C39.5747 62.0132 39.9545 62.081 40.3367 62.0718C40.9677 62.0608 41.5746 61.8435 42.0514 61.4579H42.1152V61.9379H43.8061V56.4762H42.1152ZM42.199 59.2257C42.216 59.6658 42.0584 60.0963 41.7562 60.4348C41.6116 60.5861 41.4329 60.7058 41.233 60.7855C41.0333 60.8652 40.817 60.903 40.6 60.8961C40.3893 60.8994 40.1804 60.8583 39.9891 60.7759C39.7978 60.6934 39.629 60.5718 39.4953 60.4199C39.1968 60.0744 39.0437 59.6392 39.0645 59.1959C39.0509 58.7659 39.207 58.3462 39.5031 58.0165C39.6396 57.867 39.8096 57.7474 40.0013 57.6664C40.193 57.5853 40.4015 57.5448 40.6118 57.5477C40.8277 57.5415 41.0421 57.5799 41.24 57.6603C41.4379 57.7408 41.6144 57.8611 41.7562 58.0128C42.0584 58.3528 42.2158 58.7844 42.199 59.2257Z" fill="white"/>
<path d="M60.5073 56.4762V57.0119H60.4354C59.9911 56.5968 59.3894 56.3616 58.7606 56.3571C58.3738 56.3504 57.9896 56.4195 57.6331 56.5598C57.2767 56.7002 56.9556 56.9087 56.6909 57.1719C56.1591 57.7275 55.874 58.4512 55.8934 59.1959C55.8728 59.953 56.1573 60.6899 56.6909 61.2607C56.9484 61.5244 57.2635 61.7333 57.6151 61.8732C57.9668 62.0132 58.3466 62.0809 58.7287 62.0718C59.3598 62.0607 59.9664 61.8435 60.4434 61.4579H60.5073V61.9378H62.1982V56.4762H60.5073ZM60.5911 59.2256C60.6099 59.666 60.452 60.0972 60.1483 60.4348C60.0037 60.586 59.825 60.7057 59.6251 60.7854C59.4252 60.8652 59.2091 60.9029 58.9918 60.8961C58.7812 60.8994 58.5725 60.8583 58.3812 60.7758C58.1899 60.6934 58.0211 60.5717 57.8872 60.4199C57.5889 60.0744 57.4356 59.6392 57.4566 59.1959C57.443 58.7659 57.5991 58.3462 57.8952 58.0165C58.0317 57.8669 58.2017 57.7474 58.3934 57.6663C58.5851 57.5853 58.7936 57.5448 59.0039 57.5477C59.2197 57.5414 59.4342 57.5799 59.6321 57.6603C59.83 57.7407 60.0063 57.8611 60.1483 58.0127C60.452 58.3519 60.6097 58.7841 60.5911 59.2256Z" fill="white"/>
<path d="M20.4569 53.24C16.9466 53.24 14.1543 55.8823 14.1543 59.12C14.1543 62.3949 16.9865 65 20.4569 65C23.9273 65 26.7594 62.3577 26.7594 59.12C26.7594 55.8823 23.9273 53.24 20.4569 53.24ZM20.4569 61.2785C19.1804 61.2785 18.1034 60.2737 18.1034 59.0828C18.1034 57.8919 19.1804 56.8871 20.4569 56.8871C21.7334 56.8871 22.8104 57.8919 22.8104 59.0828C22.7705 60.3109 21.7334 61.2785 20.4569 61.2785Z" fill="white"/>
<path d="M14.1142 54.9147V63.4742H11.8804L9.0083 54.9147H14.1142Z" fill="white"/>
</g>
</g>
</g>
<defs>
<clipPath id="clip0_1270_2820">
<rect width="73" height="65" fill="white"/>
</clipPath>
</defs>
</svg>
