<svg width="136" height="53" viewBox="0 0 136 53" fill="none" xmlns="http://www.w3.org/2000/svg">
<path fill-rule="evenodd" clip-rule="evenodd" d="M0.946316 10.8177L9.18539 15.4574L9.18809 15.4524L26.0543 6.10854C26.9259 7.87567 27.4179 9.86348 27.4179 11.967C27.4179 19.1787 21.6614 25.0461 14.4928 25.2249L14.1558 25.2291C6.83113 25.2291 0.893677 19.2913 0.893677 11.967C0.893677 11.7086 0.902675 11.4525 0.918272 11.1981L0.946316 10.8177ZM135.379 20.5918V21.9489H34.3413V20.5918H135.379ZM41.1665 3.0676C41.4567 3.0676 41.781 3.08178 42.138 3.10708C42.4936 3.13475 42.8587 3.17052 43.2296 3.21641C43.5984 3.26264 43.9534 3.3281 44.2908 3.4155C44.5426 3.47978 44.7716 3.55374 44.9761 3.63667L45.1722 3.72256V6.48005H44.3009C44.1676 5.63377 43.8214 5.00244 43.2586 4.58605C42.6958 4.16966 42.0327 3.96247 41.264 3.96247C40.4191 3.96247 39.751 4.13794 39.2617 4.49629C38.7714 4.85228 38.4013 5.31355 38.1492 5.87504C37.8988 6.43787 37.7396 7.07292 37.6748 7.77984C37.6076 8.48744 37.5746 9.18626 37.5746 9.87293C37.5746 10.7587 37.6313 11.58 37.7446 12.3325C37.8553 13.088 38.0648 13.7416 38.3696 14.298C38.6729 14.8514 39.0933 15.2891 39.6282 15.6066C40.1647 15.9231 40.8554 16.0824 41.7017 16.0827C42.138 16.0827 42.5213 16.0601 42.8523 16.0128C43.183 15.9666 43.4769 15.9028 43.734 15.8242C43.9925 15.7449 44.2338 15.6555 44.4595 15.5566L45.1523 15.2496L45.5899 16.1023C45.3649 16.2339 45.101 16.3739 44.7966 16.519C44.4919 16.6638 44.1444 16.7994 43.7556 16.9249C43.3649 17.0511 42.9299 17.1537 42.4542 17.232C41.9797 17.3123 41.4567 17.3501 40.8888 17.3504C39.751 17.3504 38.7718 17.1935 37.9528 16.876C37.1319 16.5581 36.4543 16.0982 35.9181 15.4959C35.3829 14.8949 34.9848 14.1661 34.7293 13.3053C34.4709 12.4445 34.3399 11.4727 34.3399 10.3882C34.3399 9.2389 34.4709 8.20939 34.7293 7.30406C34.9848 6.3984 35.3894 5.63006 35.9377 5.00244C36.4877 4.3738 37.1909 3.89532 38.0503 3.56464C38.9111 3.23362 39.9484 3.0676 41.1665 3.0676ZM134.267 3.24678V3.26669C133.882 3.50525 133.454 3.8518 132.977 4.308C132.501 4.76522 132.025 5.26091 131.548 5.79608C131.073 6.33125 130.609 6.87417 130.161 7.4225L129.415 8.34341L128.771 9.15859C129.062 9.63437 129.356 10.0808 129.654 10.4989C129.952 10.9129 130.266 11.3279 130.598 11.7366C130.927 12.1465 131.278 12.5643 131.649 12.9874L132.525 13.9835L133.34 14.8965C133.529 15.1051 133.738 15.3351 133.97 15.587C134.278 15.9217 134.592 16.2559 134.913 16.591L135.398 17.0947L130.736 17.0542C130.563 16.71 130.375 16.3594 130.171 16.002C130.034 15.7649 129.884 15.5241 129.72 15.2802L129.217 14.5604L128.389 13.3993L127.254 11.8354L126.351 10.6075C126.5 10.4153 126.675 10.1786 126.879 9.8959L127.918 8.42434C128.131 8.1247 128.342 7.81456 128.553 7.49422L128.87 7.00611C129.189 6.51177 129.492 6.03059 129.785 5.56798C130.073 5.10536 130.329 4.67176 130.547 4.26852C130.723 3.94567 130.861 3.66341 130.964 3.42107L131.034 3.24678H134.267ZM98.4405 3.24678H102.385L102.463 3.72428C102.473 3.78427 102.484 3.84657 102.496 3.91118C102.533 4.11796 102.601 4.37355 102.702 4.67742L105.939 13.9589L106.158 14.559C106.334 15.0295 106.495 15.4259 106.638 15.7487L106.722 15.9335C106.868 16.2462 106.997 16.5162 107.11 16.7439L107.268 17.0538L103.755 17.0542C103.729 16.7758 103.636 16.3655 103.477 15.8242L103.329 15.3287C103.248 15.0654 103.157 14.7789 103.057 14.4695L102.843 13.8205L102.247 12.0544H97.8645L97.6257 12.7896C97.2887 13.8475 97.0474 14.7041 96.9008 15.3576L96.794 15.8567C96.714 16.2435 96.6567 16.5573 96.6229 16.7987L96.5938 17.0538L94.0931 17.0542C94.2145 16.8578 94.3492 16.6175 94.5004 16.3408C94.6226 16.1184 94.7611 15.8366 94.917 15.4954L95.256 14.7288L95.7806 13.503C95.998 12.988 96.2503 12.3794 96.5352 11.6769L99.0338 5.48902C99.14 5.23189 99.1957 4.90627 99.2075 4.58875L99.1936 4.37704C99.1906 4.34505 99.1874 4.31487 99.1839 4.28675C99.1627 4.14199 99.1127 4.02962 99.0338 3.95066C98.9743 3.89144 98.8966 3.84323 98.7997 3.8056L98.4405 3.69253V3.24678ZM57.1365 3.24678V6.2614H56.4026C56.2696 5.77246 56.1377 5.3834 56.0054 5.0922C55.8711 4.80099 55.7014 4.58335 55.4905 4.43724C55.2783 4.29214 55.0093 4.19969 54.6847 4.15886C54.4253 4.12728 54.1054 4.10822 53.7239 4.10186L53.4261 4.09947L51.7599 4.09981C51.2959 4.09981 50.9929 4.1457 50.8478 4.23951C50.7214 4.31846 50.65 4.49411 50.6322 4.76877L50.6278 4.91437V8.20669H51.7798C52.8899 8.20669 53.8334 8.28295 54.6071 8.43345C55.3795 8.58765 56.0081 8.83128 56.4907 9.16905C56.9729 9.50513 57.3238 9.94109 57.5428 10.4779C57.7614 11.0118 57.8711 11.6644 57.8711 12.4313C57.8711 13.503 57.7047 14.3449 57.3741 14.9621C57.0434 15.5762 56.6081 16.0402 56.0635 16.3503C55.5219 16.6611 54.9037 16.8574 54.2076 16.934C53.6875 16.9953 53.161 17.032 52.6293 17.0466L52.0959 17.0538H46.9005V16.6098L47.1559 16.5305C47.302 16.4913 47.4141 16.4306 47.4947 16.3513C47.574 16.2737 47.6229 16.1617 47.6435 16.0152C47.6574 15.9087 47.667 15.7773 47.6709 15.6221L47.6729 15.4591V4.84317C47.6729 4.61507 47.6621 4.4288 47.6435 4.28675C47.6226 4.14199 47.574 4.02962 47.4934 3.95066C47.4339 3.89144 47.356 3.84323 47.2592 3.8056L46.9005 3.69253V3.24779L57.1365 3.24678ZM126.887 3.24678V3.69253C126.843 3.70306 126.798 3.72201 126.708 3.74938L126.632 3.77149C126.486 3.81232 126.372 3.8717 126.295 3.95066C126.213 4.02996 126.164 4.14165 126.144 4.28675C126.129 4.39658 126.121 4.53223 126.117 4.69326L126.115 4.86274L126.115 15.4392C126.115 15.6778 126.124 15.8688 126.144 16.0152C126.164 16.1617 126.213 16.2737 126.295 16.3513C126.352 16.4108 126.431 16.4596 126.528 16.497L126.887 16.6098V17.0538H122.385V16.6098L122.64 16.5305C122.787 16.4913 122.899 16.4306 122.979 16.3513C123.059 16.2737 123.109 16.1617 123.128 16.0152C123.142 15.9054 123.152 15.7703 123.155 15.609L123.157 15.4389V4.86274C123.157 4.62553 123.147 4.43319 123.128 4.28675C123.109 4.14199 123.059 4.02962 122.979 3.95066C122.919 3.89144 122.841 3.84323 122.744 3.8056L122.385 3.69253V3.24779L126.887 3.24678ZM69.0587 3.24678V6.2614H68.3244C68.1928 5.77246 68.0609 5.3834 67.9276 5.0922C67.7946 4.80099 67.6236 4.58335 67.411 4.43724C67.2004 4.29214 66.9325 4.19969 66.6099 4.15886C66.3481 4.12728 66.0283 4.10822 65.6471 4.10186L65.3496 4.09947L63.8602 4.09981C63.5831 4.09981 63.3999 4.1457 63.3145 4.23951C63.2443 4.31627 63.2023 4.46615 63.1903 4.69031L63.1867 4.83372V9.41807H65.0506C65.2099 9.41807 65.3982 9.41403 65.6172 9.40626C65.8345 9.40087 66.0585 9.37994 66.2894 9.34688C66.5212 9.31415 66.7432 9.27197 66.9551 9.21798C67.1143 9.17824 67.2549 9.12693 67.3759 9.06461L67.4903 8.99865V10.7665C67.3465 10.673 67.1674 10.5977 66.9551 10.5373C66.7429 10.4779 66.5212 10.4341 66.2894 10.4081C66.0585 10.3804 65.8345 10.3629 65.6172 10.3487L65.4084 10.338L65.0506 10.3278H63.1867V14.6732C63.1867 14.9911 63.2049 15.2519 63.2457 15.4578C63.2859 15.6633 63.3844 15.8171 63.544 15.9231C63.7019 16.0297 63.9364 16.1023 64.2462 16.1417C64.559 16.1802 64.9909 16.2011 65.5477 16.2011C66.1416 16.2011 66.6099 16.1799 66.9443 16.1417C67.2831 16.1023 67.5443 16.0017 67.7299 15.8441C67.9131 15.6859 68.0572 15.4483 68.1543 15.1308C68.2381 14.8662 68.3233 14.5226 68.4105 14.1028L68.4631 13.8418H69.3748V17.0538H59.4763V16.6098L59.733 16.5305C59.8781 16.4913 59.9902 16.4306 60.0718 16.3513C60.1498 16.2737 60.2001 16.1617 60.2196 16.0152C60.2343 15.9054 60.244 15.7703 60.248 15.609L60.25 15.4389L60.2497 4.86274C60.2497 4.62553 60.2392 4.43319 60.2196 4.28675C60.1997 4.14199 60.1498 4.02962 60.0705 3.95066C60.0102 3.89144 59.9322 3.84323 59.8357 3.8056L59.4773 3.69253V3.24779L69.0587 3.24678ZM112.424 3.24678L112.424 3.69253L112.168 3.77149C112.022 3.81232 111.91 3.8717 111.83 3.95066C111.75 4.02996 111.702 4.14165 111.682 4.28675C111.666 4.39658 111.657 4.53223 111.653 4.69326L111.651 9.27838H116.989V4.86274C116.989 4.62553 116.978 4.43319 116.96 4.28675C116.938 4.14199 116.889 4.02962 116.809 3.95066C116.75 3.89144 116.671 3.84323 116.575 3.8056L116.216 3.69253V3.24779L120.717 3.24678V3.69253L120.683 3.702L120.461 3.77149C120.316 3.81232 120.204 3.8717 120.123 3.95066C120.044 4.02996 119.994 4.14165 119.974 4.28675C119.959 4.39658 119.951 4.53223 119.947 4.69326L119.945 4.86274V7.62024L119.926 7.56085V12.7425L119.944 12.682L119.945 15.4392C119.945 15.6181 119.95 15.7703 119.961 15.897L119.974 16.0152C119.994 16.1617 120.044 16.2737 120.123 16.3513C120.183 16.4108 120.262 16.4596 120.358 16.497L120.717 16.6098V17.0538H116.216V16.6098L116.472 16.5305C116.617 16.4913 116.729 16.4306 116.809 16.3513C116.889 16.2737 116.939 16.1617 116.96 16.0152C116.973 15.9054 116.983 15.7703 116.987 15.609L116.989 15.4389V10.1888H111.651V15.4392C111.651 15.6778 111.661 15.8688 111.682 16.0152C111.702 16.1617 111.75 16.2737 111.83 16.3513C111.89 16.4108 111.968 16.4596 112.065 16.497L112.424 16.6098V17.0538H107.923V16.6098L108.18 16.5305C108.325 16.4913 108.437 16.4306 108.517 16.3513C108.596 16.2737 108.645 16.1617 108.666 16.0152C108.68 15.9094 108.689 15.7799 108.693 15.6261L108.695 15.4642L108.695 4.83912C108.695 4.61237 108.685 4.42779 108.666 4.28675C108.645 4.14199 108.597 4.02962 108.516 3.95066C108.457 3.89144 108.379 3.84323 108.282 3.8056L107.923 3.69253V3.24779L112.424 3.24678ZM76.6377 3.24678C77.2836 3.24678 77.9125 3.2839 78.5213 3.35611C79.129 3.42866 79.6682 3.60108 80.1386 3.8717C80.6066 4.143 80.9821 4.54387 81.2605 5.07229C81.5369 5.60104 81.6769 6.31505 81.6766 7.21566C81.6766 8.15439 81.5305 8.90821 81.2393 9.47611C80.9477 10.0443 80.5539 10.483 80.0583 10.7955C79.5626 11.1052 78.9893 11.3148 78.3434 11.4204C77.8235 11.5046 77.2844 11.5562 76.7238 11.5735L76.2993 11.58H74.931V15.4392C74.931 15.6778 74.9401 15.8688 74.9597 16.0152C74.9809 16.1617 75.0299 16.2737 75.1088 16.3513C75.169 16.4108 75.2471 16.4596 75.3436 16.497L75.703 16.6098V17.0538H71.1821V16.6098L71.4379 16.5305C71.584 16.4913 71.6964 16.4306 71.7753 16.3513C71.856 16.2737 71.9042 16.1617 71.9258 16.0152C71.9395 15.9054 71.949 15.7703 71.9529 15.609L71.9548 15.4389V4.86274C71.9548 4.62553 71.944 4.43319 71.9258 4.28675C71.9042 4.14199 71.856 4.02962 71.7753 3.95066C71.7161 3.89144 71.6383 3.84323 71.5413 3.8056L71.1821 3.69253V3.24779L76.6377 3.24678ZM93.2815 3.24678V6.2614H92.5459C92.414 5.77246 92.2824 5.3834 92.1501 5.0922C92.0185 4.80099 91.8461 4.58335 91.6352 4.43724C91.4213 4.29214 91.1554 4.19969 90.8308 4.15886C90.5714 4.12728 90.2506 4.10822 89.8689 4.10186L89.5711 4.09947L87.9046 4.09981C87.4419 4.09981 87.1379 4.1457 86.9911 4.23951C86.8671 4.31846 86.796 4.49411 86.7783 4.76877L86.7738 4.91437V8.20669H87.9248C89.036 8.20669 89.9784 8.28295 90.7522 8.43345C91.5259 8.58765 92.1545 8.83128 92.6367 9.16905C93.1192 9.50513 93.4698 9.94109 93.6875 10.4779C93.9061 11.0118 94.0155 11.6644 94.0155 12.4313C94.0155 13.503 93.8498 14.3449 93.5201 14.9621C93.1891 15.5762 92.7528 16.0402 92.2112 16.3503C91.6666 16.6611 91.0498 16.8574 90.3567 16.934C89.8346 16.9953 89.3081 17.032 88.7757 17.0466L88.2413 17.0538H83.0466V16.6098L83.302 16.5305C83.4471 16.4913 83.5601 16.4306 83.6394 16.3513C83.7201 16.2737 83.7687 16.1617 83.7886 16.0152C83.8033 15.9054 83.813 15.7703 83.8169 15.609L83.8189 4.86274C83.8189 4.62553 83.8081 4.43319 83.7886 4.28675C83.7687 4.14199 83.7201 4.02962 83.6394 3.95066C83.58 3.89144 83.5015 3.84323 83.4048 3.8056L83.0466 3.69253V3.24779L93.2815 3.24678ZM51.8196 9.05972H50.6278V14.8332C50.6278 15.095 50.6409 15.315 50.6676 15.4881C50.6953 15.6592 50.7584 15.7979 50.8569 15.9032C50.9561 16.0101 51.0982 16.0837 51.2827 16.1326C51.469 16.1785 51.7258 16.2011 52.0565 16.2011C52.4007 16.2011 52.7354 16.1654 53.0586 16.0918C53.3826 16.0206 53.6701 15.857 53.9221 15.6066C54.1739 15.3549 54.375 14.9911 54.5268 14.515C54.6783 14.0395 54.7546 13.3907 54.7546 12.571C54.7546 11.3279 54.5336 10.4317 54.0908 9.88204C53.6847 9.37941 53.014 9.10729 52.0807 9.06543L51.8196 9.05972ZM87.9629 9.05972H86.7738V14.8332C86.7738 15.095 86.7873 15.315 86.8137 15.4881C86.8413 15.6592 86.9031 15.7979 87.0019 15.9032C87.1008 16.0101 87.2432 16.0837 87.4288 16.1326C87.6137 16.1785 87.8718 16.2011 88.2025 16.2011C88.5467 16.2011 88.8804 16.1654 89.2047 16.0918C89.529 16.0206 89.8165 15.857 90.0665 15.6066C90.3182 15.3549 90.52 14.9911 90.6715 14.515C90.8244 14.0395 90.901 13.3907 90.901 12.571C90.901 11.3279 90.6769 10.4317 90.2352 9.88204C89.8266 9.3759 89.1505 9.1035 88.2049 9.06459L87.9629 9.05972ZM1.50915 7.96678L9.25524 12.3294L9.25828 12.324L24.6141 3.81704C24.784 4.03457 24.9469 4.25765 25.1031 4.48578L25.3322 4.8317L9.18776 13.7757L1.17105 9.26083C1.23178 8.96772 1.30242 8.6782 1.38235 8.39248L1.50915 7.96678ZM100.086 5.56764L98.1807 11.1424H101.951L100.086 5.56764ZM76.0604 4.09981C75.7968 4.09981 75.5883 4.11297 75.4371 4.13794C75.2856 4.16696 75.1722 4.20914 75.098 4.26852C75.0268 4.32758 74.9809 4.40788 74.9597 4.50574C74.9473 4.57255 74.9387 4.64626 74.9343 4.72667L74.931 4.85228V10.7256H76.3199C77.1648 10.7256 77.757 10.4118 78.0958 9.78452C78.4318 9.15589 78.5992 8.25967 78.5989 7.09553C78.5989 6.51312 78.5371 6.03059 78.4119 5.64693C78.2867 5.2653 78.1076 4.95621 77.8768 4.7244C77.6436 4.49393 77.3733 4.33162 77.0636 4.23951C76.7524 4.1457 76.4174 4.09947 76.0604 4.09981ZM22.7745 1.89199L23.0663 2.14879L23.3504 2.41376L23.6265 2.68698L9.25794 10.6473L2.03723 6.58095C2.15084 6.32562 2.27209 6.07465 2.40089 5.82832L2.59973 5.46236L9.41181 9.29862L9.41485 9.29356L22.7745 1.89199ZM9.41046 6.20876L9.4135 6.2037L20.1982 0.229126L20.7356 0.492377C20.9044 0.575736 21.0671 0.659743 21.2364 0.759515L21.4969 0.922886L9.41451 7.61652L3.39169 4.22466L3.51036 4.06476L3.69405 3.83266L3.91875 3.56587L4.19849 3.24611L9.41046 6.20876Z" fill="white"/>
<path fill-rule="evenodd" clip-rule="evenodd" d="M36.4263 43.2769C38.5381 41.1708 40.5034 39.2054 40.4696 39.2054L35.7956 34.5314L33.5487 36.7783C33.0644 37.2626 32.7941 37.9046 32.7941 38.5916C32.7941 39.2448 33.0362 39.8643 33.4811 40.343L33.7627 40.6245C34.5173 41.3791 35.4746 42.3308 36.4263 43.2769ZM41.8887 45.8955C43.2403 45.8955 44.3384 44.7974 44.3384 43.4458C44.3384 42.0943 43.2459 40.9962 41.8887 40.9962C40.5372 40.9962 39.4391 42.0943 39.4391 43.4458C39.4391 44.7974 40.5372 45.8955 41.8887 45.8955ZM40.2331 47.8721L35.5534 52.5518L29.9559 46.9542C28.0975 45.0958 28.0356 42.1281 29.7644 40.1965L29.7813 40.1796C29.783 40.1779 29.7847 40.1757 29.7866 40.1733C29.7908 40.1677 29.796 40.161 29.8038 40.1571C29.8657 40.0839 29.9333 40.0163 30.0009 39.9488L30.0009 39.9488L32.4506 37.4991C32.3154 37.8483 32.2478 38.2199 32.2478 38.6029C32.2478 39.3913 32.5463 40.1459 33.0813 40.7259L33.3741 41.0187C34.3596 41.9986 35.2494 42.8827 36.0377 43.6655C38.4142 46.025 39.929 47.5455 40.2331 47.8721ZM50.2806 36.5314C48.4811 36.5314 46.9727 37.7182 46.9727 40.0843C46.9727 41.7765 47.6388 42.6877 48.6419 43.1931L46.5132 47.818H47.9298L49.8671 43.4917H50.8855V47.818H52.1106V36.5314H50.2806ZM50.227 42.481C49.1626 42.481 48.2897 41.899 48.2897 40.0843C48.2897 38.2006 49.2469 37.5574 50.227 37.5574H50.8778V42.481H50.227ZM56.7738 43.2008H54.9361V39.8393H53.7033V47.7644H54.9361V44.2115H56.7738V47.7644H57.9913V39.8393H56.7738V43.2008ZM59.2012 46.746C59.9286 45.0691 60.0052 42.6112 60.0052 40.5054V39.8316H63.7036V46.746H64.3315V49.3112H63.2365V47.7568H59.8214V49.3112H58.7111V46.746H59.2012ZM61.1078 40.9649C61.1078 42.6341 61.0312 45.0691 60.3651 46.7537H62.4861V40.8194H61.1078V40.9649ZM69.4082 46.2866C69.0942 46.5087 68.5352 46.8226 67.8461 46.8226C66.866 46.8226 66.3606 45.8808 66.3606 44.089H69.6838V43.4152C69.6838 40.7275 68.8109 39.7397 67.4862 39.7397C65.794 39.7397 65.0819 41.5928 65.0819 44.1426C65.0819 46.5776 66.0926 47.8869 67.7389 47.8869C68.5276 47.8869 69.1938 47.6343 69.6991 47.2437L69.4082 46.2866ZM67.4786 40.7352C68.1907 40.7352 68.4127 41.7229 68.4127 43.0782H66.3759C66.4525 41.6617 66.7205 40.7352 67.4786 40.7352ZM75.6334 47.7568L73.3669 43.5606L75.3425 39.8393H75.3384L75.3425 39.8316H74.0943L72.1801 43.4994V39.8393L72.1801 39.8316H70.9473L70.9473 39.8393L70.9473 47.7568L70.9473 47.7644H72.1801L72.1801 47.7568L72.1801 43.8133L72.182 43.817L74.2858 47.7644H75.6258L75.6217 47.7568H75.6334ZM79.9138 41.2941L79.908 41.2892L79.9061 41.3018C79.5769 41.0185 79.1021 40.7505 78.5968 40.7505C78.1843 40.7505 77.8256 40.9672 77.5608 41.4029C77.2639 41.8979 77.0883 42.6721 77.0883 43.7291C77.0883 45.7123 77.563 46.8456 78.5585 46.8456C79.1634 46.8456 79.6152 46.6082 79.9061 46.3555L80.1818 47.2744L80.1738 47.281L80.1741 47.282C79.7453 47.6419 79.24 47.8793 78.5125 47.8793C76.805 47.8793 75.7789 46.5087 75.7789 43.8057C75.7789 42.1428 76.2097 40.8834 77.0529 40.2307C77.473 39.9019 77.996 39.7244 78.6197 39.7244C79.3318 39.7244 79.7453 39.9158 80.0899 40.1302L79.9138 41.2941ZM89.0794 47.818L85.5648 41.7382L88.7961 36.5314H88.0457L84.7608 41.8072V36.5314H83.9797V47.818H84.7608V41.8684L88.1988 47.818H89.0794ZM93.9034 42.0369V46.3938C93.9034 46.9451 93.98 47.5577 94.0719 47.8487H93.3981C93.3291 47.6496 93.2526 47.3433 93.2066 46.7767C92.8238 47.5347 92.2571 48.0095 91.4761 48.0095C90.4041 48.0095 89.669 47.1519 89.669 45.697C89.669 43.9894 90.5955 43.1012 92.3107 43.1012H93.176V42.1058C93.176 40.8883 92.7242 40.3676 91.859 40.3676C91.1851 40.3676 90.5726 40.6892 90.1974 41.2405L89.9906 40.5284C90.3046 40.1226 90.9631 39.7244 91.859 39.7244C93.1683 39.7244 93.9034 40.4518 93.9034 42.0369ZM91.6369 47.4122C92.3797 47.4122 92.8927 46.7001 93.176 45.8501V43.6525H92.326C91.0243 43.6525 90.3964 44.2498 90.3964 45.6434C90.3964 46.7613 90.8865 47.4122 91.6369 47.4122ZM99.4625 47.1365L99.2252 46.5163C99.2252 46.5163 98.6662 47.3739 97.6248 47.3739C96.3767 47.3739 95.8177 46.0722 95.8177 43.8899C95.8177 41.6387 96.392 40.36 97.6248 40.36C98.3139 40.36 98.827 40.7734 99.1792 41.2635L99.386 40.4748C99.0337 40.046 98.4594 39.7321 97.6248 39.7321C95.9785 39.7321 95.0673 41.2712 95.0673 43.8976C95.0673 46.4933 95.9938 48.0248 97.6095 48.0248C98.8729 48.0248 99.4625 47.1365 99.4625 47.1365ZM104.524 46.5163L104.761 47.1365C104.761 47.1365 104.172 48.0248 102.908 48.0248C101.293 48.0248 100.366 46.4933 100.366 43.8976C100.366 41.2712 101.277 39.7321 102.924 39.7321C103.751 39.7321 104.332 40.046 104.685 40.4748L104.478 41.2635C104.126 40.7734 103.613 40.36 102.931 40.36C101.698 40.36 101.124 41.6387 101.124 43.8899C101.124 46.0722 101.683 47.3739 102.931 47.3739C103.965 47.3739 104.524 46.5163 104.524 46.5163ZM109.685 46.3938V42.0369C109.685 40.4518 108.95 39.7244 107.648 39.7244C106.752 39.7244 106.094 40.1226 105.78 40.5284L105.986 41.2405C106.362 40.6892 106.974 40.3676 107.648 40.3676C108.513 40.3676 108.965 40.8883 108.965 42.1058V43.1012H108.1C106.385 43.1012 105.458 43.9894 105.458 45.697C105.458 47.1519 106.193 48.0095 107.265 48.0095C108.054 48.0095 108.62 47.5347 108.996 46.7767C109.042 47.3433 109.126 47.6496 109.187 47.8487H109.861C109.769 47.5577 109.685 46.9451 109.685 46.3938ZM108.965 45.8501C108.682 46.7001 108.161 47.4122 107.426 47.4122C106.676 47.4122 106.186 46.7613 106.186 45.6434C106.186 44.2498 106.813 43.6525 108.115 43.6525H108.965V45.8501Z" fill="white"/>
</svg>
