<svg width="120" height="62" viewBox="0 0 120 62" fill="none" xmlns="http://www.w3.org/2000/svg">
    <g clip-path="url(#clip0_1_6)">
        <g clip-path="url(#clip1_1_6)">
            <path d="M59.669 49.1081H57.1769L55.4132 52.0993H54.5054L54.4764 45.6257H52.1172V57.3173H54.4764L54.5054 54.1084H55.4074L57.7493 57.3173H60.3629L57.3097 53.0648L59.669 49.1081Z" fill="black"/>
            <path d="M77.5248 52.9588C77.0455 52.6594 76.5259 52.4247 75.9808 52.2612L75.4603 52.0715L75.3216 52.0212C74.9979 51.904 74.6567 51.7813 74.6451 51.4632C74.6422 51.3689 74.6636 51.2755 74.7083 51.1916C74.7527 51.1076 74.8186 51.036 74.8995 50.9832C75.0704 50.8696 75.2706 50.8039 75.4777 50.7935C75.9294 50.7634 76.3774 50.8922 76.7383 51.1562L76.8018 51.1953L78.0624 49.7945L77.9988 49.7443C77.8419 49.6093 77.6716 49.4896 77.49 49.3872C77.1647 49.2076 76.8114 49.0813 76.4435 49.0132C75.9135 48.9044 75.3657 48.9044 74.836 49.0132C74.3236 49.0787 73.8377 49.2709 73.4251 49.5713C73.1611 49.7705 72.9406 50.018 72.7758 50.2995C72.6113 50.581 72.5057 50.8911 72.4651 51.212C72.3929 51.7912 72.5452 52.3757 72.893 52.8527C73.3549 53.3465 73.9589 53.6962 74.6277 53.8573L74.7318 53.8908L74.9688 53.9689C75.8247 54.2479 76.0675 54.3595 76.2062 54.527C76.2709 54.6112 76.3072 54.7125 76.3104 54.8171C76.3104 55.2134 75.8073 55.3752 75.4661 55.4757C75.2276 55.5189 74.9825 55.5145 74.7457 55.4627C74.509 55.4108 74.2859 55.3127 74.0901 55.1743C73.773 54.9697 73.5017 54.706 73.292 54.3986C73.1591 54.5326 71.8521 55.777 71.8753 55.7994L71.9159 55.8552C72.5455 56.616 73.4277 57.1442 74.4138 57.3508C74.639 57.3928 74.867 57.4208 75.0962 57.4345H75.3332C76.1122 57.4502 76.8752 57.2211 77.5074 56.7816C77.935 56.4897 78.2628 56.0818 78.45 55.6096C78.5637 55.2926 78.6037 54.9555 78.5678 54.6218C78.5318 54.2882 78.4207 53.9663 78.2417 53.6787C78.0589 53.3919 77.8143 53.1464 77.5248 52.9588Z" fill="black"/>
            <path d="M85.146 52.9586C84.6688 52.6593 84.1515 52.4246 83.6081 52.2611L83.0818 52.0713L82.9489 52.0211C82.6194 51.9039 82.284 51.7811 82.2666 51.463C82.268 51.369 82.2924 51.2766 82.3377 51.1932C82.3829 51.1099 82.4476 51.0379 82.5268 50.9831C82.6977 50.8694 82.8979 50.8038 83.105 50.7933C83.5567 50.7643 84.0041 50.893 84.3656 51.1561L84.4233 51.1951L85.6839 49.7944L85.6262 49.7442C85.468 49.6078 85.2957 49.4881 85.1115 49.387C84.7883 49.2077 84.4367 49.0813 84.0705 49.0131C83.5388 48.9042 82.9893 48.9042 82.4575 49.0131C81.9457 49.0805 81.4601 49.2725 81.0464 49.5712C80.7809 49.7685 80.5584 50.0146 80.3916 50.2952C80.225 50.5758 80.1174 50.8854 80.075 51.2063C79.9993 51.7857 80.1519 52.3713 80.503 52.847C80.9648 53.3408 81.5689 53.6905 82.2376 53.8516L82.3359 53.8851L82.573 53.9632C83.4346 54.2422 83.6774 54.3538 83.8161 54.5212C83.8828 54.604 83.9177 54.7066 83.9145 54.8114C83.9145 55.2077 83.4172 55.3695 83.076 55.47C82.8367 55.5133 82.5904 55.5089 82.3528 55.4571C82.1151 55.4053 81.8909 55.3071 81.6942 55.1686C81.3797 54.961 81.109 54.6978 80.8961 54.3929C80.769 54.5268 79.462 55.7713 79.4794 55.7936L79.5255 55.8494C80.1554 56.6103 81.0376 57.1385 82.0238 57.3451C82.2489 57.3875 82.4769 57.4154 82.7061 57.4288H82.9431C83.7221 57.4445 84.4851 57.2153 85.1173 56.7758C85.5449 56.484 85.8728 56.0761 86.0599 55.6039C86.1733 55.2869 86.2137 54.9498 86.1777 54.6161C86.1417 54.2825 86.0306 53.9606 85.8516 53.673C85.6711 53.3896 85.4306 53.1462 85.146 52.9586Z" fill="black"/>
            <path d="M67.4172 49.108V49.9116H67.3134C66.6676 49.2876 65.7926 48.9347 64.879 48.9295C64.3188 48.9188 63.7623 49.0221 63.2465 49.2326C62.7304 49.4432 62.2659 49.7564 61.8835 50.1516C61.1124 50.9851 60.699 52.0705 60.7271 53.1875C60.6972 54.3233 61.1098 55.4285 61.8835 56.2848C62.2569 56.6803 62.7138 56.9937 63.2239 57.2036C63.7336 57.4135 64.2842 57.5151 64.8384 57.5014C65.7534 57.4848 66.6333 57.1589 67.3247 56.5806H67.4172V57.3005H69.869V49.108H67.4172ZM67.5388 53.2322C67.5635 53.8924 67.3348 54.5381 66.8968 55.0459C66.687 55.2728 66.4279 55.4523 66.1381 55.5719C65.8486 55.6915 65.535 55.7481 65.2202 55.7379C64.9147 55.7428 64.6118 55.6812 64.3344 55.5575C64.0571 55.4338 63.8122 55.2513 63.6184 55.0236C63.1856 54.5053 62.9636 53.8525 62.9938 53.1875C62.9741 52.5426 63.2004 51.913 63.6297 51.4184C63.8276 51.1942 64.0742 51.0148 64.3521 50.8932C64.6301 50.7717 64.9324 50.7109 65.2373 50.7153C65.5503 50.7059 65.8613 50.7636 66.1483 50.8842C66.4352 51.0048 66.6911 51.1854 66.8968 51.4129C67.3348 51.9228 67.5632 52.5703 67.5388 53.2322Z" fill="black"/>
            <path d="M94.0855 49.108V49.9116H93.9813C93.3369 49.2889 92.4646 48.936 91.5527 48.9294C90.9919 48.9193 90.4349 49.0229 89.9179 49.2334C89.4012 49.4439 88.9356 49.7567 88.5517 50.1516C87.7806 50.985 87.3672 52.0704 87.3953 53.1875C87.3654 54.3232 87.778 55.4285 88.5517 56.2847C88.9251 56.6803 89.3821 56.9936 89.8918 57.2035C90.4018 57.4135 90.9525 57.515 91.5066 57.5013C92.4216 57.4847 93.3013 57.1589 93.9929 56.5805H94.0855V57.3004H96.5372V49.108H94.0855ZM94.207 53.2321C94.2343 53.8927 94.0054 54.5394 93.565 55.0458C93.3552 55.2727 93.0961 55.4523 92.8063 55.5718C92.5165 55.6914 92.2032 55.7481 91.8881 55.7378C91.5826 55.7428 91.28 55.6811 91.0027 55.5574C90.7253 55.4338 90.4804 55.2512 90.2864 55.0235C89.8538 54.5052 89.6316 53.8524 89.662 53.1875C89.6423 52.5425 89.8686 51.913 90.298 51.4184C90.4958 51.1941 90.7424 51.0147 91.0204 50.8932C91.2983 50.7716 91.6006 50.7108 91.9055 50.7152C92.2185 50.7058 92.5295 50.7635 92.8165 50.8841C93.1034 51.0047 93.359 51.1853 93.565 51.4128C94.0054 51.9215 94.234 52.5698 94.207 53.2321Z" fill="black"/>
            <path d="M36.0125 44.2537C30.9226 44.2537 26.8738 48.2171 26.8738 53.0737C26.8738 57.9861 30.9804 61.8937 36.0125 61.8937C41.0446 61.8937 45.1512 57.9302 45.1512 53.0737C45.1512 48.2171 41.0446 44.2537 36.0125 44.2537ZM36.0125 56.3114C34.1616 56.3114 32.6 54.8042 32.6 53.0178C32.6 51.2315 34.1616 49.7243 36.0125 49.7243C37.8634 49.7243 39.4251 51.2315 39.4251 53.0178C39.3672 54.86 37.8634 56.3114 36.0125 56.3114Z" fill="url(#paint0_linear_1_6)"/>
            <path d="M26.8156 46.7656V59.6049H23.5766L19.4121 46.7656H26.8156Z" fill="url(#paint1_linear_1_6)"/>
        </g>
    </g>
    <g clip-path="url(#clip2_1_6)">
        <path d="M29.4083 6.35498C30.1749 7.35944 30.8239 8.4507 31.3421 9.60685L16.6419 20.589L10.4983 16.686V11.9905L16.6419 15.8935L29.4083 6.35498Z" fill="#21A038"/>
        <path d="M4.22827 16.3545C4.22827 16.1438 4.23334 15.9345 4.24348 15.7264L0.520277 15.5415C0.507605 15.8112 0.500004 16.0835 0.500004 16.3583C0.49842 18.5055 0.915154 20.6318 1.72631 22.6153C2.53746 24.5989 3.72706 26.4006 5.22687 27.9171L7.86783 25.2419C6.71333 24.0766 5.79746 22.6915 5.17286 21.1663C4.54826 19.6411 4.22725 18.0058 4.22827 16.3545Z" fill="url(#paint2_linear_1_6)"/>
        <path d="M16.6385 3.77735C16.8463 3.77735 17.0528 3.78506 17.2581 3.79533L17.4444 0.0207408C17.1775 0.00789774 16.9088 0.00147697 16.6385 0.00147697C14.5188 -0.00114271 12.4196 0.42059 10.4613 1.24246C8.50291 2.06433 6.72405 3.27015 5.22681 4.79068L7.86777 7.46718C9.01766 6.29676 10.3845 5.36823 11.8897 4.735C13.3949 4.10177 15.0087 3.77631 16.6385 3.77735Z" fill="url(#paint3_linear_1_6)"/>
        <path d="M16.6385 28.9319C16.4307 28.9319 16.2241 28.9319 16.0176 28.9152L15.8313 32.6885C16.0991 32.7022 16.3682 32.7091 16.6385 32.7091C18.7573 32.7113 20.8555 32.2893 22.8128 31.4672C24.7701 30.6451 26.5478 29.4391 28.0439 27.9186L25.408 25.2434C24.2579 26.4132 22.8912 27.3412 21.3863 27.9742C19.8814 28.6072 18.2679 28.9327 16.6385 28.9319Z" fill="url(#paint4_linear_1_6)"/>
        <path d="M23.6339 5.97207L26.7716 3.6282C23.9037 1.27465 20.3238 -0.0065332 16.6335 2.50536e-05V3.77718C19.1324 3.77404 21.5733 4.53938 23.6339 5.97207Z" fill="url(#paint5_linear_1_6)"/>
        <path d="M32.7759 16.3544C32.7779 15.3718 32.6931 14.3909 32.5224 13.4236L29.0489 16.0179C29.0489 16.1297 29.0489 16.2414 29.0489 16.3544C29.0498 18.1117 28.6863 19.8496 27.9821 21.4554C27.2778 23.0612 26.2484 24.4991 24.9607 25.6759L27.4661 28.4822C29.1402 26.9505 30.478 25.0794 31.3927 22.9902C32.3075 20.9009 32.7787 18.6401 32.7759 16.3544Z" fill="#21A038"/>
        <path d="M16.6386 28.9318C14.9045 28.9324 13.1896 28.5639 11.6049 27.8502C10.0203 27.1365 8.60119 26.0934 7.43956 24.7886L4.67188 27.3264C6.18303 29.0233 8.02923 30.3793 10.0908 31.3066C12.1523 32.2338 14.3831 32.7116 16.6386 32.7089V28.9318Z" fill="url(#paint6_linear_1_6)"/>
        <path d="M8.31645 7.03278L5.81235 4.22656C4.13776 5.75794 2.79948 7.62894 1.8843 9.71822C0.969132 11.8075 0.497505 14.0684 0.50001 16.3543H4.22828C4.22751 14.5971 4.59104 12.8592 5.29529 11.2534C5.99955 9.64763 7.02883 8.20969 8.31645 7.03278Z" fill="url(#paint7_linear_1_6)"/>
        <mask id="mask0_1_6" style="mask-type:luminance" maskUnits="userSpaceOnUse" x="41" y="5" width="169" height="23">
            <path d="M209.88 5.6897H41.4656V27.3104H209.88V5.6897Z" fill="white"/>
        </mask>
        <g mask="url(#mask0_1_6)">
            <path d="M93.6298 9.3527L98.2473 5.94409H82.7935V26.4269H98.2473V23.0183H87.2031V17.7716H96.6243V14.363H87.2031V9.3527H93.6298Z" fill="#21A038"/>
            <path d="M72.3952 13.9237H67.03V9.35159H75.5927L80.2074 5.93262H62.623V26.4154H71.8277C76.9883 26.4154 79.95 24.0718 79.95 19.9846C79.95 16.0745 77.2674 13.9237 72.3952 13.9237ZM71.6292 23.0057H67.03V17.3302H71.6292C74.4204 17.3302 75.7291 18.2813 75.7291 20.168C75.7291 22.0546 74.3366 23.0057 71.6292 23.0057Z" fill="#21A038"/>
            <path d="M109.607 5.94116H101.195V26.4239H105.604V20.6215H109.607C114.974 20.6215 118.294 17.7918 118.294 13.2704C118.294 8.74911 114.974 5.94116 109.607 5.94116ZM109.514 17.2103H105.604V9.35237H109.514C112.337 9.35237 113.895 10.7486 113.895 13.2829C113.895 15.8172 112.337 17.2103 109.514 17.2103Z" fill="#21A038"/>
            <path d="M56.0064 21.5902C54.8674 22.2082 53.5913 22.5282 52.2962 22.5206C48.4198 22.5206 45.6077 19.7477 45.6077 15.9294C45.6077 12.111 48.4198 9.33209 52.2962 9.33209C53.6941 9.3083 55.063 9.73303 56.2029 10.5443L59.2871 8.2684L59.0785 8.11991C57.2794 6.53499 54.8755 5.69556 52.1239 5.69556C49.1394 5.69556 46.4332 6.70166 44.501 8.53205C43.524 9.47449 42.7514 10.6086 42.2311 11.8636C41.7109 13.1186 41.4542 14.4675 41.4773 15.8263C41.4566 17.1989 41.7121 18.5616 42.2285 19.8331C42.7449 21.1046 43.5116 22.2587 44.4829 23.2267C46.4241 25.1298 49.1243 26.1783 52.0876 26.1783C55.1839 26.1783 57.8902 25.0964 59.7226 23.1267L56.9619 21.066L56.0064 21.5902Z" fill="#21A038"/>
        </g>
    </g>
    <defs>
        <linearGradient id="paint0_linear_1_6" x1="36.0125" y1="44.2537" x2="36.0125" y2="61.8937" gradientUnits="userSpaceOnUse">
            <stop stop-color="#0160D1"/>
            <stop offset="1" stop-color="#00479C"/>
        </linearGradient>
        <linearGradient id="paint1_linear_1_6" x1="23.1139" y1="46.7656" x2="23.1139" y2="59.6049" gradientUnits="userSpaceOnUse">
            <stop stop-color="#0160D1"/>
            <stop offset="1" stop-color="#00479C"/>
        </linearGradient>
        <linearGradient id="paint2_linear_1_6" x1="5.98089" y1="27.4458" x2="1.80964" y2="15.5477" gradientUnits="userSpaceOnUse">
            <stop offset="0.14" stop-color="#F1E813"/>
            <stop offset="0.3" stop-color="#E6E418"/>
            <stop offset="0.58" stop-color="#C9DA26"/>
            <stop offset="0.89" stop-color="#A2CC39"/>
        </linearGradient>
        <linearGradient id="paint3_linear_1_6" x1="6.2913" y1="5.45852" x2="16.8181" y2="1.50017" gradientUnits="userSpaceOnUse">
            <stop offset="0.06" stop-color="#0FA7DF"/>
            <stop offset="0.54" stop-color="#0098F8"/>
            <stop offset="0.92" stop-color="#0290EA"/>
        </linearGradient>
        <linearGradient id="paint4_linear_1_6" x1="15.5855" y1="30.4294" x2="27.4647" y2="27.7814" gradientUnits="userSpaceOnUse">
            <stop offset="0.12" stop-color="#A2CC39"/>
            <stop offset="0.28" stop-color="#86C239"/>
            <stop offset="0.87" stop-color="#219F38"/>
        </linearGradient>
        <linearGradient id="paint5_linear_1_6" x1="15.858" y1="1.26507" x2="26.0244" y2="4.36073" gradientUnits="userSpaceOnUse">
            <stop offset="0.06" stop-color="#0290EA"/>
            <stop offset="0.79" stop-color="#0C89CA"/>
        </linearGradient>
        <linearGradient id="paint6_linear_1_6" x1="5.6071" y1="26.8666" x2="16.6833" y2="30.9512" gradientUnits="userSpaceOnUse">
            <stop offset="0.13" stop-color="#F1E813"/>
            <stop offset="0.3" stop-color="#EAE616"/>
            <stop offset="0.53" stop-color="#D8DF1F"/>
            <stop offset="0.8" stop-color="#BAD52D"/>
            <stop offset="0.98" stop-color="#A2CC39"/>
        </linearGradient>
        <linearGradient id="paint7_linear_1_6" x1="1.88892" y1="16.8115" x2="6.42478" y2="5.16877" gradientUnits="userSpaceOnUse">
            <stop offset="0.07" stop-color="#A2CC39"/>
            <stop offset="0.26" stop-color="#81C45E"/>
            <stop offset="0.92" stop-color="#0FA7DF"/>
        </linearGradient>
        <clipPath id="clip0_1_6">
            <rect width="87" height="18" fill="white" transform="translate(16.5 43.8936)"/>
        </clipPath>
        <clipPath id="clip1_1_6">
            <rect width="77.1715" height="17.64" fill="white" transform="translate(19.4121 44.2537)"/>
        </clipPath>
        <clipPath id="clip2_1_6">
            <rect width="119" height="33" fill="white" transform="translate(0.5)"/>
        </clipPath>
    </defs>
</svg>
