<svg xmlns="http://www.w3.org/2000/svg" width="14" height="14" viewBox="0 0 14 14">
  <path fill="#525C69" d="M799.374993,132.95251 L801.195033,134.316234 C801.744956,134.733984 801.787612,135.559628 801.280197,136.030532 C799.377348,137.848979 796.206789,138.554902 792.032877,134.142049 C787.858906,129.729213 788.689012,126.570255 790.591852,124.751779 C791.098699,124.281048 791.906132,124.35893 792.291885,124.932276 L793.564802,126.793907 C794.010623,127.477274 793.729026,128.408331 793.04505,128.86483 L792.280958,129.374827 C792.105377,129.486674 792.056463,129.721035 792.150677,129.900622 C793.138833,131.635028 794.566465,133.15498 796.236132,134.244153 C796.402649,134.340297 796.641803,134.290582 796.757884,134.132161 L797.297441,133.36734 C797.769234,132.700753 798.728643,132.466869 799.374993,132.95251 Z" transform="rotate(90 463.332 -325.055)"/>
</svg>
