<svg width="44" height="45" viewBox="0 0 44 45" fill="none" xmlns="http://www.w3.org/2000/svg">
	<path fill-rule="evenodd" clip-rule="evenodd" d="M23.3865 13.915C26.231 13.915 28.5369 16.2209 28.5369 19.0654V28.5233C28.5369 29.6093 27.6564 30.4898 26.5704 30.4898H12.4304C9.58591 30.4898 7.28003 28.1839 7.28003 25.3394V15.8815C7.28003 14.7955 8.16046 13.915 9.24652 13.915H23.3865ZM36.4247 14.4385C36.5931 14.6405 36.6854 14.8951 36.6854 15.1581V29.1912C36.6854 29.8118 36.1823 30.3149 35.5617 30.3149C35.3025 30.3149 35.0513 30.2254 34.8506 30.0614L30.4971 26.5039C29.9094 26.0237 29.5685 25.3049 29.5685 24.546V19.8759C29.5685 19.1258 29.9016 18.4144 30.4777 17.934L34.842 14.2951C35.3187 13.8976 36.0273 13.9618 36.4247 14.4385Z" fill="#2FC6F6"/>
</svg>
