<svg width="375" height="874" viewBox="0 0 375 874" fill="none" xmlns="http://www.w3.org/2000/svg">
<path d="M0 0H375V874H0V0Z" fill="white"/>
<path opacity="0.178418" fill-rule="evenodd" clip-rule="evenodd" d="M0 0L375 0L375 874L0 874L0 0Z" fill="#9FDA0B"/>
<mask id="mask0" mask-type="alpha" maskUnits="userSpaceOnUse" x="0" y="0" width="375" height="874">
<path fill-rule="evenodd" clip-rule="evenodd" d="M0 0L375 0L375 874L0 874L0 0Z" fill="white"/>
</mask>
<g mask="url(#mask0)">
<mask id="mask1" mask-type="alpha" maskUnits="userSpaceOnUse" x="0" y="0" width="375" height="874">
<rect width="375" height="874" fill="white"/>
</mask>
<g mask="url(#mask1)">
<rect opacity="0.04" x="-197" y="-15" width="611.545" height="468.119"/>
<rect opacity="0.04" width="611.545" height="468.119" transform="matrix(-1 0 0 1 515.84 407.881)"/>
</g>
<g opacity="0.5189">
<path fill-rule="evenodd" clip-rule="evenodd" d="M372.45 156.859C386.266 157.755 397.647 147.417 398.167 133.504C398.669 120.09 388.995 109.35 375.718 108.584C361.701 107.773 350.344 117.957 349.875 131.759C349.43 144.86 359.467 156.021 372.45 156.859ZM265.836 156.901C279.706 156.913 290.281 145.992 290.002 131.941C289.734 118.608 279.393 108.52 265.984 108.511C252.021 108.499 241.283 119.452 241.662 133.32C242.017 146.41 252.76 156.889 265.836 156.901ZM385.042 192.714C373.421 222.706 352.8 241.089 319.851 241.101C286.956 241.113 266.744 222.045 254.828 192.903C250.319 194.135 246.983 195.078 243.631 195.953C239.84 196.944 235.647 197.076 233.245 200.901C247.043 244.06 283.957 268.692 329.561 265.213C366.162 262.425 400.803 232.407 406.68 197.725C402.658 196.397 398.548 194.802 394.307 193.727C391.499 193.021 388.502 193.063 385.042 192.714ZM320.305 308.557C246.108 308.737 186.739 249.862 186.231 175.597C185.723 100.913 245.528 40.3173 319.839 40.2302C393.751 40.14 454.695 101.214 454.442 175.116C454.193 248.715 394.22 308.38 320.305 308.557ZM319.713 15.9969C232.662 16.066 161.059 87.9042 161.242 174.989C161.426 261.924 233.591 333.816 320.386 333.54C407.47 333.26 478.965 261.386 478.758 174.319C478.55 87.078 407.079 15.9338 319.713 15.9969Z" fill="white"/>
</g>
<g opacity="0.5189">
<path fill-rule="evenodd" clip-rule="evenodd" d="M114.45 591.859C128.266 592.755 139.647 582.417 140.167 568.504C140.669 555.09 130.995 544.35 117.718 543.584C103.701 542.773 92.3441 552.957 91.8751 566.759C91.4302 579.86 101.467 591.021 114.45 591.859ZM7.83623 591.901C21.7059 591.913 32.2811 580.992 32.0015 566.941C31.734 553.608 21.3933 543.52 7.98352 543.511C-5.97938 543.499 -16.7168 554.452 -16.3381 568.32C-15.9834 581.41 -5.2399 591.889 7.83623 591.901ZM127.042 627.714C115.421 657.706 94.8 676.089 61.8512 676.101C28.9564 676.113 8.74406 657.045 -3.17175 627.903C-7.68076 629.135 -11.0174 630.078 -14.3691 630.953C-18.1597 631.944 -22.3531 632.076 -24.7549 635.901C-10.9573 679.06 25.9564 703.692 71.5605 700.213C108.162 697.425 142.803 667.407 148.68 632.725C144.658 631.397 140.548 629.802 136.307 628.727C133.499 628.021 130.502 628.063 127.042 627.714ZM62.305 743.557C-11.8922 743.737 -71.2608 684.862 -71.7688 610.597C-72.2768 535.913 -12.4724 475.317 61.8391 475.23C135.751 475.14 196.695 536.214 196.442 610.116C196.193 683.715 136.22 743.38 62.305 743.557ZM61.7129 450.997C-25.338 451.066 -96.9411 522.904 -96.7577 609.989C-96.5743 696.924 -24.4092 768.816 62.3862 768.54C149.47 768.26 220.965 696.386 220.758 609.319C220.55 522.078 149.079 450.934 61.7129 450.997Z" fill="white"/>
</g>
<g opacity="0.4">
<g filter="url(#filter0_f)">
<path fill-rule="evenodd" clip-rule="evenodd" d="M74.1164 294.769C77.4396 294.984 80.1771 292.497 80.3022 289.151C80.423 285.924 78.0962 283.341 74.9024 283.156C71.5307 282.961 68.799 285.411 68.6862 288.731C68.5792 291.882 70.9935 294.567 74.1164 294.769ZM48.4714 294.779C51.8076 294.782 54.3514 292.155 54.2841 288.775C54.2198 285.568 51.7324 283.141 48.5069 283.139C45.1482 283.136 42.5654 285.771 42.6565 289.107C42.7418 292.255 45.3261 294.776 48.4714 294.779ZM77.1453 303.393C74.35 310.608 69.3897 315.03 61.4642 315.032C53.5517 315.035 48.6898 310.449 45.8236 303.439C44.739 303.735 43.9364 303.962 43.1301 304.172C42.2184 304.411 41.2097 304.443 40.6319 305.363C43.9508 315.744 52.8301 321.669 63.7997 320.832C72.6038 320.162 80.9364 312.941 82.35 304.599C81.3825 304.279 80.3941 303.896 79.3738 303.637C78.6985 303.467 77.9776 303.477 77.1453 303.393ZM61.5734 331.258C43.7259 331.301 29.4454 317.14 29.3232 299.276C29.201 281.311 43.5864 266.735 61.4613 266.714C79.2401 266.693 93.8995 281.384 93.8388 299.16C93.7787 316.863 79.3528 331.215 61.5734 331.258ZM61.4309 260.886C40.4917 260.902 23.2682 278.182 23.3123 299.13C23.3564 320.041 40.7151 337.334 61.5929 337.268C82.5401 337.2 99.7375 319.912 99.6876 298.969C99.6377 277.984 82.4461 260.871 61.4309 260.886Z" fill="white"/>
</g>
</g>
<g opacity="0.4">
<g filter="url(#filter1_f)">
<path fill-rule="evenodd" clip-rule="evenodd" d="M323.116 747.769C326.44 747.984 329.177 745.497 329.302 742.151C329.423 738.924 327.096 736.341 323.902 736.156C320.531 735.961 317.799 738.411 317.686 741.731C317.579 744.882 319.993 747.567 323.116 747.769ZM297.471 747.779C300.808 747.782 303.351 745.155 303.284 741.775C303.22 738.568 300.732 736.141 297.507 736.139C294.148 736.136 291.565 738.771 291.657 742.107C291.742 745.255 294.326 747.776 297.471 747.779ZM326.145 756.393C323.35 763.608 318.39 768.03 310.464 768.032C302.552 768.035 297.69 763.449 294.824 756.439C293.739 756.735 292.936 756.962 292.13 757.172C291.218 757.411 290.21 757.443 289.632 758.363C292.951 768.744 301.83 774.669 312.8 773.832C321.604 773.162 329.936 765.941 331.35 757.599C330.383 757.279 329.394 756.896 328.374 756.637C327.698 756.467 326.978 756.477 326.145 756.393ZM310.573 784.258C292.726 784.301 278.445 770.14 278.323 752.276C278.201 734.311 292.586 719.735 310.461 719.714C328.24 719.693 342.899 734.384 342.839 752.16C342.779 769.863 328.353 784.215 310.573 784.258ZM310.431 713.886C289.492 713.902 272.268 731.182 272.312 752.13C272.356 773.041 289.715 790.334 310.593 790.268C331.54 790.2 348.738 772.912 348.688 751.969C348.638 730.984 331.446 713.871 310.431 713.886Z" fill="white"/>
</g>
</g>
</g>
<defs>
<filter id="filter0_f" x="20.594" y="258.167" width="81.8121" height="81.8187" filterUnits="userSpaceOnUse" color-interpolation-filters="sRGB">
<feFlood flood-opacity="0" result="BackgroundImageFix"/>
<feBlend mode="normal" in="SourceGraphic" in2="BackgroundImageFix" result="shape"/>
<feGaussianBlur stdDeviation="1.35914" result="effect1_foregroundBlur"/>
</filter>
<filter id="filter1_f" x="269.594" y="711.167" width="81.8121" height="81.8187" filterUnits="userSpaceOnUse" color-interpolation-filters="sRGB">
<feFlood flood-opacity="0" result="BackgroundImageFix"/>
<feBlend mode="normal" in="SourceGraphic" in2="BackgroundImageFix" result="shape"/>
<feGaussianBlur stdDeviation="1.35914" result="effect1_foregroundBlur"/>
</filter>
</defs>
</svg>
