<svg width="66" height="67" viewBox="0 0 66 67" fill="none" xmlns="http://www.w3.org/2000/svg">
<g filter="url(#filter0_d)">
<path fill-rule="evenodd" clip-rule="evenodd" d="M33 63.5C50.1208 63.5 64 49.6208 64 32.5C64 15.3792 50.1208 1.5 33 1.5C15.8792 1.5 2 15.3792 2 32.5C2 49.6208 15.8792 63.5 33 63.5Z" fill="white"/>
</g>
<path fill-rule="evenodd" clip-rule="evenodd" d="M33 54.5C45.1503 54.5 55 44.6503 55 32.5C55 20.3497 45.1503 10.5 33 10.5C20.8497 10.5 11 20.3497 11 32.5C11 44.6503 20.8497 54.5 33 54.5Z" fill="#BADA0B"/>
<path fill-rule="evenodd" clip-rule="evenodd" d="M37.4483 31.2244C38.5724 31.2973 39.4984 30.4561 39.5407 29.3241C39.5815 28.2327 38.7945 27.3588 37.7141 27.2965C36.5736 27.2305 35.6496 28.0591 35.6114 29.1821C35.5752 30.2481 36.3919 31.1562 37.4483 31.2244ZM28.7736 31.2278C29.9021 31.2288 30.7625 30.3403 30.7398 29.197C30.718 28.1122 29.8766 27.2913 28.7855 27.2906C27.6494 27.2896 26.7758 28.1808 26.8066 29.3092C26.8355 30.3742 27.7096 31.2269 28.7736 31.2278ZM38.4728 34.1419C37.5273 36.5822 35.8494 38.0779 33.1685 38.0789C30.492 38.0799 28.8474 36.5284 27.8779 34.1573C27.511 34.2575 27.2395 34.3342 26.9668 34.4054C26.6584 34.486 26.3172 34.4968 26.1218 34.808C27.2444 38.3197 30.2479 40.3239 33.9585 40.0408C36.9366 39.814 39.7552 37.3715 40.2334 34.5496C39.9061 34.4416 39.5718 34.3118 39.2266 34.2242C38.9982 34.1668 38.7544 34.1702 38.4728 34.1419ZM33.2054 43.5674C27.1683 43.5821 22.3378 38.7917 22.2965 32.749C22.2551 26.6724 27.1211 21.7419 33.1675 21.7349C39.1814 21.7275 44.1401 26.6968 44.1196 32.7099C44.0993 38.6983 39.2196 43.553 33.2054 43.5674ZM33.1573 19.7632C26.0743 19.7688 20.2483 25.6139 20.2632 32.6996C20.2781 39.7731 26.1499 45.6227 33.212 45.6002C40.2977 45.5775 46.1149 39.7294 46.098 32.6451C46.0812 25.5467 40.2659 19.758 33.1573 19.7632Z" fill="white"/>
<defs>
<filter id="filter0_d" x="0" y="0.5" width="66" height="66" filterUnits="userSpaceOnUse" color-interpolation-filters="sRGB">
<feFlood flood-opacity="0" result="BackgroundImageFix"/>
<feColorMatrix in="SourceAlpha" type="matrix" values="0 0 0 0 0 0 0 0 0 0 0 0 0 0 0 0 0 0 127 0"/>
<feOffset dy="1"/>
<feGaussianBlur stdDeviation="1"/>
<feColorMatrix type="matrix" values="0 0 0 0 0 0 0 0 0 0 0 0 0 0 0 0 0 0 0.06 0"/>
<feBlend mode="normal" in2="BackgroundImageFix" result="effect1_dropShadow"/>
<feBlend mode="normal" in="SourceGraphic" in2="effect1_dropShadow" result="shape"/>
</filter>
</defs>
</svg>
