<svg xmlns="http://www.w3.org/2000/svg" width="41" height="41" viewBox="0 0 41 41" fill="none">
	<g clip-path="url(#clip0_18659_71609)">
		<rect width="41" height="41" fill="#E6F4FF"/>
		<path d="M35.556 43.1056C35.8321 43.1056 36.0567 42.8764 36.0489 42.6004C35.7773 32.9963 27.7347 30.5747 20.5001 30.5747C13.2655 30.5747 5.22292 32.9963 4.95131 42.6004" fill="#C4E6FF"/>
		<path fill-rule="evenodd" clip-rule="evenodd" d="M9.74899 32.3891C12.8558 30.4865 16.8246 29.8748 20.5001 29.8748C24.1756 29.8748 28.1444 30.4865 31.2512 32.3891C34.4054 34.3207 36.6062 37.5462 36.7486 42.5807C36.7677 43.2542 36.2231 43.8057 35.556 43.8057H5.44423C4.77706 43.8057 4.23254 43.2542 4.25158 42.5807C4.39396 37.5462 6.59483 34.3207 9.74899 32.3891ZM5.65848 42.4057H35.3417C35.1581 37.9631 33.2205 35.2368 30.5201 33.583C27.729 31.8738 24.0592 31.2748 20.5001 31.2748C16.941 31.2748 13.2712 31.8738 10.4801 33.583C7.77967 35.2368 5.84206 37.9631 5.65848 42.4057Z" fill="#0075FF"/>
		<path d="M20.4808 26.7782C11.111 26.7782 8.90934 12.9583 15.5433 8.07482C16.6449 7.26391 18.7623 6.5 20.4809 6.5C32.7012 6.5 31.73 26.7782 20.4808 26.7782Z" fill="#C4E6FF"/>
		<path fill-rule="evenodd" clip-rule="evenodd" d="M18.2213 8.3122C17.4344 8.57305 16.773 8.90805 16.3733 9.20228C13.6289 11.2225 12.5663 15.2592 13.3781 18.9577C14.1786 22.6047 16.6582 25.3782 20.4808 25.3782C22.8204 25.3782 24.5977 24.3437 25.8409 22.749C27.1093 21.1219 27.8276 18.8908 27.8823 16.6056C27.937 14.3192 27.3252 12.1154 26.1055 10.5181C24.9187 8.96385 23.0995 7.9 20.4809 7.9C19.8104 7.9 19.0036 8.05286 18.2213 8.3122ZM15.5433 8.07482C8.90934 12.9583 11.111 26.7782 20.4808 26.7782C31.73 26.7782 32.7012 6.5 20.4809 6.5C18.7623 6.5 16.6449 7.26391 15.5433 8.07482Z" fill="#0075FF"/>
	</g>
	<defs>
		<clipPath id="clip0_18659_71609">
			<rect width="41" height="41" fill="white"/>
		</clipPath>
	</defs>
</svg>
