<svg width="20" height="20" viewBox="0 0 20 20" fill="none" xmlns="http://www.w3.org/2000/svg">
<path d="M6.06755 16.3307L6.34207 16.4927C7.49562 17.1741 8.81814 17.5346 10.1667 17.5353H10.1697C14.3114 17.5353 17.6823 14.1802 17.6841 10.0567C17.6847 8.05828 16.9039 6.17923 15.4851 4.76573C14.0662 3.35227 12.1798 2.57337 10.1725 2.57255C6.02753 2.57255 2.65671 5.92716 2.65507 10.0506C2.6545 11.4636 3.05162 12.8397 3.80389 14.0305L3.98274 14.3134L3.22341 17.073L6.06755 16.3307ZM1.05273 19.2107L2.33537 14.5483C1.54426 13.1838 1.12803 11.6358 1.12864 10.05C1.13063 5.08896 5.18618 1.0528 10.1697 1.0528C12.5881 1.05384 14.858 1.99091 16.565 3.69152C18.2718 5.39225 19.2115 7.65293 19.2106 10.0573C19.2085 15.018 15.1524 19.0549 10.1697 19.0549C10.1694 19.0549 10.1699 19.0549 10.1697 19.0549H10.1658C8.6528 19.0543 7.166 18.6765 5.84551 17.9596L1.05273 19.2107Z" fill="white"/>
<path d="M1.44027 10.0527C1.4398 11.5833 1.84151 13.0778 2.60544 14.3951L1.36719 18.8962L5.99399 17.6885C7.26874 18.3801 8.70396 18.7451 10.1646 18.7456H10.1685C14.9786 18.7456 18.8941 14.8488 18.8961 10.0594C18.897 7.73852 17.99 5.55622 16.342 3.91443C14.6944 2.2726 12.503 1.36798 10.1682 1.36695C5.35754 1.36695 1.44222 5.26337 1.44027 10.0527ZM10.1685 18.7456C10.1686 18.7456 10.1686 18.7456 10.1686 18.7456C10.1686 18.7456 10.1686 18.7456 10.1685 18.7456ZM10.1685 18.7456C10.1684 18.7456 10.1683 18.7456 10.1685 18.7456V18.7456Z" fill="url(#paint0_linear_607_41440)"/>
<path d="M1.12864 10.05C1.12807 11.6358 1.54426 13.1838 2.33537 14.5483L1.05273 19.2107L5.84551 17.9596C7.166 18.6765 8.65276 19.0543 10.1658 19.0549H10.1697C15.1524 19.0549 19.2085 15.0181 19.2106 10.0573C19.2115 7.65293 18.2719 5.39225 16.565 3.69156C14.858 1.99091 12.5881 1.05388 10.1697 1.0528C5.18619 1.0528 1.13063 5.089 1.12864 10.05ZM3.98279 14.3134L3.80389 14.0305C3.05162 12.8397 2.6545 11.4636 2.65511 10.0506C2.65672 5.92716 6.02754 2.57255 10.1725 2.57255C12.1798 2.57337 14.0662 3.35228 15.4852 4.76577C16.9039 6.17923 17.6847 8.05828 17.6841 10.0567C17.6823 14.1802 14.3114 17.5353 10.1697 17.5353H10.1668C8.81814 17.5346 7.49557 17.1741 6.34207 16.4927L6.06755 16.3307L3.22345 17.073L3.98279 14.3134ZM10.1697 19.0549C10.1697 19.0549 10.1697 19.0549 10.1697 19.0549C10.1697 19.0549 10.1697 19.0549 10.1697 19.0549ZM10.1697 19.0549C10.1696 19.0549 10.1695 19.0549 10.1697 19.0549V19.0549Z" fill="url(#paint1_linear_607_41440)"/>
<path fill-rule="evenodd" clip-rule="evenodd" d="M7.91004 6.28862C7.74081 5.91412 7.56269 5.90661 7.40169 5.90005C7.27005 5.89444 7.11928 5.89479 6.96877 5.89479C6.81818 5.89479 6.57339 5.9511 6.36645 6.17616C6.15933 6.40121 5.57568 6.94522 5.57568 8.05167C5.57568 9.15825 6.38526 10.2274 6.4981 10.3776C6.61106 10.5276 8.06089 12.8707 10.357 13.7722C12.2653 14.5213 12.6536 14.3723 13.0678 14.3348C13.482 14.2973 14.4043 13.7909 14.5926 13.2657C14.7809 12.7407 14.7809 12.2906 14.7244 12.1965C14.6679 12.1028 14.5173 12.0466 14.2914 11.9341C14.0654 11.8216 12.9549 11.2775 12.7477 11.2025C12.5407 11.1276 12.39 11.0901 12.2394 11.3152C12.0888 11.5401 11.6561 12.0466 11.5243 12.1965C11.3925 12.3468 11.2607 12.3656 11.0348 12.2531C10.8089 12.1403 10.0813 11.9031 9.21821 11.137C8.54666 10.5409 8.09328 9.80476 7.96145 9.57962C7.82967 9.35469 7.94737 9.23287 8.06068 9.12075C8.16211 9.01998 8.28661 8.85824 8.39958 8.72692C8.51228 8.5956 8.54995 8.50187 8.62525 8.3519C8.70054 8.20172 8.66292 8.0704 8.60644 7.95794C8.54995 7.84548 8.11092 6.73329 7.91004 6.28862Z" fill="white"/>
<defs>
<linearGradient id="paint0_linear_607_41440" x1="10.1316" y1="18.8962" x2="10.1316" y2="1.36695" gradientUnits="userSpaceOnUse">
<stop stop-color="#20B038"/>
<stop offset="1" stop-color="#60D66A"/>
</linearGradient>
<linearGradient id="paint1_linear_607_41440" x1="10.1317" y1="19.2107" x2="10.1317" y2="1.05281" gradientUnits="userSpaceOnUse">
<stop stop-color="#F9F9F9"/>
<stop offset="1" stop-color="white"/>
</linearGradient>
</defs>
</svg>
