<svg width="20" height="20" viewBox="0 0 20 20" fill="none" xmlns="http://www.w3.org/2000/svg">
<path fill-rule="evenodd" clip-rule="evenodd" d="M14.9265 9.45276L12.7364 11.6421C11.5276 12.8516 9.5667 12.8516 8.35773 11.6421C8.1673 11.4522 8.01832 11.2383 7.88749 11.0176L8.90511 10.0001C8.95349 9.9513 9.01322 9.92335 9.0703 9.89042C9.14065 10.1308 9.26346 10.3583 9.45249 10.5474C10.0562 11.1515 11.0384 11.1507 11.6418 10.5474L13.8312 8.35805C14.4353 7.75398 14.4353 6.77192 13.8312 6.16831C13.2278 5.5647 12.2458 5.5647 11.6418 6.16831L10.8632 6.9477C10.2314 6.7017 9.55072 6.63556 8.88809 6.73266L10.5471 5.07368C11.7566 3.86444 13.717 3.86444 14.9265 5.07368C16.1354 6.28288 16.1354 8.24359 14.9265 9.45276ZM9.13682 13.0528L8.35771 13.8322C7.75409 14.4355 6.77175 14.4355 6.16803 13.8322C5.56436 13.2281 5.56436 12.246 6.16803 11.6421L8.35771 9.45276C8.96181 8.84874 9.94348 8.84874 10.5471 9.45276C10.7357 9.6414 10.8586 9.8689 10.9297 10.109C10.9871 10.0756 11.0461 10.0485 11.0944 10.0001L12.1119 8.98293C11.982 8.76141 11.8322 8.5482 11.6417 8.3581C10.433 7.14886 8.47194 7.14886 7.26269 8.3581L5.07335 10.5475C3.86422 11.7571 3.86422 13.7173 5.07335 14.9268C6.2826 16.1356 8.24324 16.1356 9.45247 14.9268L11.1119 13.2674C10.4489 13.3651 9.76809 13.2984 9.13682 13.0528Z" fill="#A8ADB4"/>
</svg>
