<svg width="22" height="22" viewBox="0 0 22 22" fill="none" xmlns="http://www.w3.org/2000/svg">
<circle cx="11" cy="11" r="11" fill="#1AEA76"/>
<path fill-rule="evenodd" clip-rule="evenodd" d="M4.87382 9.10879C5.92165 8.62439 6.69504 8.57496 7.18402 8.98522C8.04723 9.71675 7.673 10.7449 7.34369 11.6494C7.08423 12.371 6.79982 12.811 6.5204 13.0779C6.06135 13.5128 5.7021 13.5277 5.42268 13.5128C4.82891 13.4832 4.3549 13.1421 3.826 12.3908C3.37693 11.7433 2.99772 11.0612 3.34201 10.2852C3.39689 10.1616 3.60646 9.69204 4.87382 9.10879ZM5.44106 12.4257C5.67493 12.4454 5.95854 12.4694 6.36073 11.3479C6.72997 10.3297 6.72997 10.0331 6.46052 9.83538C6.33578 9.74641 6.04639 9.69204 5.3179 10.038C4.67424 10.3445 4.41976 10.5175 4.34492 10.6954C4.24014 10.9426 4.21021 11.1304 4.64929 11.7581C4.94867 12.1882 5.2181 12.4056 5.43765 12.4254L5.44106 12.4257ZM13.2764 9.21264H12.977C12.9272 9.21264 12.8922 9.25218 12.8922 9.29667V10.216C12.6677 10.0084 12.3783 9.89969 12.0689 9.89969C11.3804 9.89969 10.8165 10.478 10.8165 11.1947C10.8165 11.9065 11.3804 12.4897 12.0689 12.4897C12.3783 12.4897 12.6777 12.376 12.9072 12.1586L12.9222 12.3167C12.9272 12.3612 12.9671 12.3909 13.007 12.3909H13.2764C13.3263 12.3909 13.3612 12.3513 13.3612 12.3068V9.30161C13.3612 9.25713 13.3213 9.21264 13.2764 9.21264ZM12.8523 11.1947C12.8523 11.6396 12.503 12.0004 12.0689 12.0004C11.6348 12.0004 11.2806 11.6396 11.2806 11.1947C11.2806 10.7499 11.6299 10.389 12.0639 10.389C12.498 10.389 12.8523 10.7449 12.8523 11.1947ZM15.9407 10.3396C15.8808 10.2506 15.8108 10.1716 15.731 10.1122C15.6512 10.048 15.5614 9.99857 15.4617 9.96397C15.287 9.89971 15.0924 9.88982 14.8928 9.92442C14.6034 9.97385 14.3938 10.1221 14.2691 10.2309L14.2541 10.0678C14.2491 10.0233 14.2092 9.99362 14.1693 9.99362H13.8798C13.83 9.99362 13.795 10.0332 13.795 10.0776V12.3069C13.795 12.3563 13.835 12.3909 13.8798 12.3909H14.1993C14.2491 12.3909 14.2841 12.3513 14.2841 12.3069V10.7202C14.5186 10.5571 14.7281 10.4434 14.9677 10.3989C15.0675 10.3792 15.1922 10.394 15.302 10.4335C15.3967 10.4681 15.4815 10.5274 15.5315 10.6164C15.6363 10.7746 15.6363 10.9723 15.6363 11.1502V12.3019C15.6363 12.3513 15.6762 12.3859 15.7211 12.3859H16.0454C16.0953 12.3859 16.1302 12.3464 16.1302 12.3019V11.3826V11.2639C16.1352 11.0514 16.1352 10.824 16.0704 10.6115C16.0354 10.5176 15.9955 10.4187 15.9407 10.3396ZM18.5603 9.98862H18.8597C18.9096 9.98862 18.9495 10.0282 18.9495 10.0875V12.3117C18.9495 12.3562 18.9146 12.3958 18.8647 12.3958H18.5953C18.5554 12.3958 18.5154 12.3661 18.5105 12.3216L18.4955 12.1635C18.2659 12.3809 17.9665 12.4946 17.6571 12.4946C16.9686 12.4946 16.4048 11.9114 16.4048 11.1996C16.4048 10.4829 16.9686 9.90459 17.6571 9.90459C17.9615 9.90459 18.251 10.0133 18.4755 10.2209V10.0726C18.4755 10.0282 18.5105 9.98862 18.5603 9.98862ZM17.6571 12.0003C18.0913 12.0003 18.4405 11.6395 18.4405 11.1947C18.4405 10.7449 18.0913 10.389 17.6571 10.389C17.2231 10.389 16.8738 10.7498 16.8738 11.1947C16.8738 11.6395 17.2231 12.0003 17.6571 12.0003ZM10.6167 10.9426C10.5269 10.3544 10.0579 9.90459 9.44916 9.90459H9.43419C8.74562 9.90459 8.18179 10.4829 8.18179 11.1996C8.18179 11.9114 8.74063 12.4897 9.43419 12.4946H9.45914C9.87826 12.4946 10.2375 12.3216 10.502 12.03C10.5319 11.9954 10.5319 11.9509 10.502 11.9163L10.3124 11.7087C10.2924 11.6889 10.2724 11.6791 10.2475 11.6791C10.2225 11.6791 10.1976 11.6939 10.1826 11.7137C10.018 11.9213 9.79843 12.0102 9.46412 12.0102H9.43419C9.05497 12.0102 8.74063 11.7334 8.66578 11.3677H10.4371C10.5469 11.3677 10.6367 11.2787 10.6367 11.165C10.6345 11.1629 10.6333 11.1424 10.6314 11.1106V11.1106C10.6289 11.0687 10.6252 11.0073 10.6167 10.9426ZM8.71069 10.8833C8.82545 10.5916 9.10487 10.389 9.42919 10.389H9.45414C9.77847 10.389 10.0529 10.5867 10.1527 10.8833H10.1477H8.71069Z" fill="white"/>
</svg>
