<svg width="20" height="20" viewBox="0 0 20 20" fill="none" xmlns="http://www.w3.org/2000/svg">
<circle cx="10" cy="10" r="9" fill="#2FC6F6"/>
<path fill-rule="evenodd" clip-rule="evenodd" d="M10.4582 4.00766C11.6473 4.2561 12.7233 4.85034 13.5913 5.74097C14.4084 6.58149 14.9736 7.61737 15.2396 8.76019C15.2897 8.97556 15.1535 9.1899 14.9408 9.22717L14.8417 9.24452C14.6478 9.27848 14.4627 9.15137 14.417 8.955C14.1879 7.97076 13.7001 7.07742 12.9955 6.35454C12.248 5.58961 11.3212 5.07611 10.2976 4.8596C10.1052 4.81892 9.97638 4.63248 10.0036 4.43285L10.0178 4.32926C10.0474 4.11224 10.2489 3.96394 10.4582 4.00766ZM12.8826 11.5119C12.5302 11.1372 12.0903 11.1372 11.7402 11.5119C11.6106 11.6502 11.4969 11.7431 11.3842 11.8351L11.3842 11.8351C11.2645 11.9328 11.146 12.0296 11.0108 12.179C10.9389 12.2587 10.8783 12.2756 10.7908 12.2225C10.7223 12.1822 10.6521 12.1451 10.5819 12.1079L10.5819 12.1079L10.5819 12.1079C10.4749 12.0513 10.3681 11.9947 10.2679 11.9276C9.49354 11.4031 8.8449 10.7288 8.27033 9.96981C7.98529 9.59276 7.73167 9.18912 7.55436 8.73473C7.51845 8.64288 7.52518 8.58246 7.59476 8.50753C7.80373 8.29005 7.90416 8.18059 8.06375 8.00664L8.21422 7.84285C8.58006 7.44647 8.58006 6.9824 8.21198 6.5836C8.04028 6.39671 7.87325 6.15113 7.72469 5.9327C7.69265 5.88559 7.66146 5.83974 7.63128 5.79602C7.5725 5.71086 7.51809 5.62017 7.46308 5.52845L7.46308 5.52845C7.35886 5.35472 7.25246 5.17733 7.10997 5.02705C6.75759 4.65725 6.31769 4.65725 5.96756 5.02947C5.8598 5.14358 5.75384 5.25885 5.64795 5.37404L5.64794 5.37405C5.48917 5.54676 5.33056 5.71931 5.1663 5.8875C4.91268 6.14612 4.78475 6.46275 4.75782 6.83255C4.71517 7.43438 4.85208 8.00238 5.0451 8.55587C5.44012 9.70153 6.04162 10.7191 6.77106 11.652C7.75636 12.9137 8.93243 13.9119 10.3083 14.6322C10.9277 14.9561 11.5696 15.205 12.2676 15.2461C12.7479 15.2751 13.1654 15.1446 13.4998 14.741C13.6503 14.5599 13.8133 14.3892 13.9763 14.2187L13.9763 14.2187L13.9763 14.2187C14.0613 14.1298 14.1462 14.0409 14.2293 13.9506C14.5884 13.5591 14.5906 13.0853 14.2337 12.6986C14.0187 12.4658 13.786 12.2828 13.5532 12.0997C13.3242 11.9197 13.0951 11.7395 12.8826 11.5119ZM12.6105 9.24479L12.7054 9.22821C12.9126 9.19205 13.0443 8.97997 12.9863 8.77346C12.821 8.18499 12.513 7.65206 12.0847 7.21244C11.6274 6.74486 11.0696 6.42068 10.4544 6.26122C10.2502 6.20829 10.0462 6.34825 10.0169 6.56152L10.0034 6.65984C9.97829 6.84329 10.0933 7.01448 10.2687 7.06092C10.7399 7.18569 11.1676 7.43476 11.5185 7.79352C11.8478 8.13019 12.0841 8.54 12.2123 8.99188C12.262 9.16741 12.4343 9.27555 12.6105 9.24479Z" fill="white"/>
</svg>
