<svg width="23" height="23" viewBox="0 0 23 23" fill="none" xmlns="http://www.w3.org/2000/svg">
<path d="M5.81169 4.75879C4.75314 4.75879 3.89502 5.61691 3.89502 6.67546V11.4671C3.89502 12.5257 4.75314 13.3838 5.81169 13.3838H6.05849V14.8706C6.05849 15.3829 6.67785 15.6394 7.04008 15.2772L8.19641 14.1209V10.4724C8.19641 8.88462 9.48359 7.59744 11.0714 7.59744H15.395V6.67546C15.395 5.61691 14.5369 4.75879 13.4784 4.75879H5.81169Z" fill="#2FC6F6"/>
<path d="M9.63326 10.779C9.63326 9.72045 10.4914 8.86233 11.5499 8.86233H18.0031C19.0617 8.86233 19.9198 9.72045 19.9198 10.779V14.5542C19.9198 15.6114 19.0638 16.4688 18.007 16.4708V17.7035C18.007 18.2474 17.3218 18.4873 16.9826 18.0622L15.7126 16.4709H11.5499C10.4914 16.4709 9.63326 15.6127 9.63326 14.5542V10.779Z" fill="#2FC6F6"/>
</svg>
