<svg width="20" height="20" viewBox="0 0 20 20" fill="none" xmlns="http://www.w3.org/2000/svg">
<path d="M18.6841 9.99989C18.6841 5.20372 14.796 1.31567 9.99989 1.31567C5.20372 1.31567 1.31567 5.20372 1.31567 9.99989C1.31567 14.3344 4.49136 17.9271 8.64298 18.5786V12.5102H6.43801V9.99989H8.64298V8.08665C8.64298 5.91016 9.93946 4.70795 11.9231 4.70795C12.8733 4.70795 13.8671 4.87756 13.8671 4.87756V7.01469H12.772C11.6932 7.01469 11.3568 7.68411 11.3568 8.37087V9.99989H13.7653L13.3803 12.5102H11.3568V18.5786C15.5084 17.9271 18.6841 14.3344 18.6841 9.99989Z" fill="#1877F2"/>
<path d="M13.3803 12.5102L13.7653 9.99995H11.3568V8.37092C11.3568 7.68417 11.6932 7.01475 12.772 7.01475H13.8671V4.87762C13.8671 4.87762 12.8732 4.70801 11.9231 4.70801C9.93945 4.70801 8.64296 5.91022 8.64296 8.08671V9.99995H6.43799V12.5102H8.64296V18.5787C9.09184 18.649 9.54551 18.6843 9.99987 18.6842C10.4615 18.6842 10.9146 18.648 11.3568 18.5787V12.5102H13.3803Z" fill="white"/>
</svg>
