<svg width="26" height="26" viewBox="0 0 26 26" fill="none" xmlns="http://www.w3.org/2000/svg">
<path fill-rule="evenodd" clip-rule="evenodd" d="M6.50008 5.41675H10.8334C11.4317 5.41675 11.9167 5.90177 11.9167 6.50008V10.8334C11.9167 11.4317 11.4317 11.9167 10.8334 11.9167H6.50008C5.90177 11.9167 5.41675 11.4317 5.41675 10.8334V6.50008C5.41675 5.90177 5.90177 5.41675 6.50008 5.41675ZM6.50008 14.0834H10.8334C11.4317 14.0834 11.9167 14.5684 11.9167 15.1667V19.5001C11.9167 20.0984 11.4317 20.5834 10.8334 20.5834H6.50008C5.90177 20.5834 5.41675 20.0984 5.41675 19.5001V15.1667C5.41675 14.5684 5.90177 14.0834 6.50008 14.0834ZM15.7084 7.04175V10.2917H18.9584V7.04175H15.7084ZM15.1667 5.41675H19.5001C20.0984 5.41675 20.5834 5.90177 20.5834 6.50008V10.8334C20.5834 11.4317 20.0984 11.9167 19.5001 11.9167H15.1667C14.5684 11.9167 14.0834 11.4317 14.0834 10.8334V6.50008C14.0834 5.90177 14.5684 5.41675 15.1667 5.41675ZM15.1667 14.0834H19.5001C20.0984 14.0834 20.5834 14.5684 20.5834 15.1667V19.5001C20.5834 20.0984 20.0984 20.5834 19.5001 20.5834H15.1667C14.5684 20.5834 14.0834 20.0984 14.0834 19.5001V15.1667C14.0834 14.5684 14.5684 14.0834 15.1667 14.0834Z" fill="#2FC6F6"/>
</svg>
