<svg width="20" height="20" viewBox="0 0 20 20" fill="none" xmlns="http://www.w3.org/2000/svg">
<path fill-rule="evenodd" clip-rule="evenodd" d="M10.1315 1.57886C5.31354 1.57886 1.57886 5.10802 1.57886 9.87491C1.57886 12.3683 2.60073 14.5229 4.26486 16.0111C4.40456 16.1361 4.48889 16.3113 4.49462 16.4988L4.5412 18.0201C4.55608 18.5054 5.05733 18.8211 5.50139 18.6251L7.19896 17.8757C7.34287 17.8123 7.50412 17.8005 7.65576 17.8422C8.43584 18.0567 9.2661 18.171 10.1315 18.171C14.9494 18.171 18.6841 14.6418 18.6841 9.87491C18.6841 5.10802 14.9494 1.57886 10.1315 1.57886Z" fill="url(#paint0_radial_607_41450)"/>
<path fill-rule="evenodd" clip-rule="evenodd" d="M4.99571 12.301L7.50805 8.31509C7.90768 7.681 8.76346 7.52311 9.36308 7.97281L11.3613 9.47145C11.5446 9.60898 11.7969 9.60824 11.9794 9.46969L14.6781 7.42159C15.0383 7.14825 15.5084 7.5793 15.2674 7.96183L12.7551 11.9477C12.3554 12.5818 11.4996 12.7397 10.9 12.29L8.90179 10.7913C8.71847 10.6538 8.4662 10.6545 8.28365 10.7931L5.58499 12.8412C5.22481 13.1145 4.75462 12.6835 4.99571 12.301Z" fill="white"/>
<defs>
<radialGradient id="paint0_radial_607_41450" cx="0" cy="0" r="1" gradientUnits="userSpaceOnUse" gradientTransform="translate(4.87118 18.5926) scale(18.6378 18.6378)">
<stop stop-color="#0099FF"/>
<stop offset="0.609754" stop-color="#A033FF"/>
<stop offset="0.934823" stop-color="#FF5280"/>
<stop offset="1" stop-color="#FF7061"/>
</radialGradient>
</defs>
</svg>
