<svg width="21" height="20" viewBox="0 0 21 20" fill="none" xmlns="http://www.w3.org/2000/svg">
<path d="M5.72248 16.9892L6.02385 17.167C7.29016 17.9151 8.74195 18.3108 10.2224 18.3116H10.2256C14.7722 18.3116 18.4726 14.6285 18.4746 10.1019C18.4752 7.90816 17.6182 5.84542 16.0607 4.29375C14.5031 2.74212 12.4322 1.88708 10.2287 1.88618C5.67856 1.88618 1.97823 5.56871 1.97643 10.0952C1.97581 11.6464 2.41174 13.157 3.23755 14.4642L3.43389 14.7747L2.60032 17.8041L5.72248 16.9892ZM1.5 19.0001L1.62548 15.0326C0.757036 13.5347 0.300116 11.8354 0.300782 10.0945C0.302971 4.64858 4.75497 0.217873 10.2256 0.217873C12.8804 0.219009 15.3722 1.24768 17.2461 3.11453C19.1198 4.98152 20.1513 7.46318 20.1503 10.1025C20.148 15.5482 15.6954 19.9797 10.2256 19.9797H10.2214C8.56046 19.9791 6.92831 19.5644 5.47875 18.7773L1.5 19.0001Z" fill="white"/>
<path d="M0.643555 10.0975C0.643032 11.7777 1.08401 13.4183 1.92262 14.8644L1.5 19L5.64241 18.4797C7.04177 19.2389 8.61729 19.6396 10.2207 19.6401H10.225C15.5053 19.6401 19.8036 15.3625 19.8057 10.1048C19.8068 7.55709 18.8111 5.16146 17.002 3.35918C15.1933 1.55685 12.7877 0.56381 10.2247 0.562674C4.94375 0.562674 0.645697 4.83998 0.643555 10.0975Z" fill="#60D06C"/>
<path d="M0.300782 10.0945C0.300163 11.8354 0.757036 13.5347 1.62548 15.0326L0.999685 17.8041L1.49951 19.0001L2.8481 19.4641L5.47875 18.7773C6.92831 19.5644 8.56042 19.9791 10.2214 19.9797H10.2256C15.6954 19.9797 20.148 15.5483 20.1503 10.1025C20.1513 7.46318 19.1198 4.98152 17.2461 3.11457C15.3722 1.24768 12.8804 0.219057 10.2256 0.217873C4.75497 0.217873 0.302971 4.64862 0.300782 10.0945ZM3.43394 14.7747L3.23755 14.4642C2.41174 13.157 1.97581 11.6464 1.97647 10.0952C1.97823 5.56871 5.67856 1.88618 10.2287 1.88618C12.4322 1.88708 14.5031 2.74213 16.0607 4.2938C17.6182 5.84542 18.4752 7.90816 18.4746 10.1019C18.4727 14.6285 14.7722 18.3116 10.2256 18.3116H10.2224C8.74196 18.3108 7.29011 17.9151 6.02385 17.167L5.72249 16.9892L2.60037 17.8041L3.43394 14.7747Z" fill="url(#paint0_linear_502_59214)"/>
<path d="M0.300782 10.0945C0.300163 11.8354 0.757036 13.5347 1.62548 15.0326L0.999685 17.8041L1.49951 19.0001L2.8481 19.4641L5.47875 18.7773C6.92831 19.5644 8.56042 19.9791 10.2214 19.9797H10.2256C15.6954 19.9797 20.148 15.5483 20.1503 10.1025C20.1513 7.46318 19.1198 4.98152 17.2461 3.11457C15.3722 1.24768 12.8804 0.219057 10.2256 0.217873C4.75497 0.217873 0.302971 4.64862 0.300782 10.0945ZM3.43394 14.7747L3.23755 14.4642C2.41174 13.157 1.97581 11.6464 1.97647 10.0952C1.97823 5.56871 5.67856 1.88618 10.2287 1.88618C12.4322 1.88708 14.5031 2.74213 16.0607 4.2938C17.6182 5.84542 18.4752 7.90816 18.4746 10.1019C18.4727 14.6285 14.7722 18.3116 10.2256 18.3116H10.2224C8.74196 18.3108 7.29011 17.9151 6.02385 17.167L5.72249 16.9892L2.60037 17.8041L3.43394 14.7747Z" fill="white"/>
<path fill-rule="evenodd" clip-rule="evenodd" d="M7.74517 5.96547C7.55939 5.55437 7.36386 5.54612 7.18713 5.53892C7.04261 5.53276 6.8771 5.53314 6.71189 5.53314C6.54657 5.53314 6.27786 5.59497 6.05068 5.84202C5.82331 6.08907 5.18262 6.68626 5.18262 7.90087C5.18262 9.11562 6.07133 10.2893 6.1952 10.4542C6.31921 10.6188 7.91077 13.191 10.4313 14.1806C12.5262 15.0029 12.9524 14.8393 13.4071 14.7982C13.8618 14.7571 14.8743 14.2011 15.081 13.6246C15.2876 13.0482 15.2876 12.5542 15.2256 12.4509C15.1636 12.348 14.9983 12.2863 14.7503 12.1628C14.5023 12.0394 13.2831 11.442 13.0558 11.3598C12.8284 11.2775 12.6631 11.2363 12.4978 11.4834C12.3324 11.7304 11.8574 12.2863 11.7127 12.4509C11.5681 12.6159 11.4234 12.6365 11.1754 12.513C10.9274 12.3892 10.1287 12.1288 9.18122 11.2877C8.44401 10.6334 7.94631 9.82533 7.8016 9.57818C7.65694 9.33127 7.78614 9.19753 7.91053 9.07446C8.02188 8.96384 8.15855 8.78628 8.28256 8.64213C8.40628 8.49797 8.44763 8.39507 8.53029 8.23045C8.61294 8.06559 8.57164 7.92143 8.50964 7.79798C8.44763 7.67452 7.96568 6.45361 7.74517 5.96547Z" fill="white"/>
<defs>
<linearGradient id="paint0_linear_502_59214" x1="10.1837" y1="20.1508" x2="10.1837" y2="0.217878" gradientUnits="userSpaceOnUse">
<stop stop-color="#F9F9F9"/>
<stop offset="1" stop-color="white"/>
</linearGradient>
</defs>
</svg>
