<svg xmlns="http://www.w3.org/2000/svg" width="42" height="42" viewBox="0 0 42 42">
  <g fill="none" fill-rule="evenodd">
    <circle cx="21" cy="21" r="21" fill="#177CE2"/>
    <path fill="#FFF" d="M7.85571019,7.46069873e-14 C12.2113481,7.46069873e-14 15.7114204,3.43635559 15.7114204,7.71572424 C15.7114204,11.3182737 13.3456132,15.9323567 8.61399894,21.557973 C8.578881,21.5997262 8.54040512,21.6385356 8.49895653,21.6740125 C8.07936149,22.0331551 7.44806993,21.9841487 7.08892737,21.5645536 L7.08895842,21.564527 C2.36298614,16.0430579 7.20780547e-13,11.4267903 7.23865412e-13,7.71572424 C7.27374575e-13,3.43635559 3.50007229,7.46069873e-14 7.85571019,7.46069873e-14 Z M7.85571019,11.2217698 C9.85480642,11.2217698 11.4267368,9.67912995 11.4267368,7.71437757 C11.4267368,5.74959152 9.85477215,4.20698534 7.85571019,4.20698534 C5.85527714,4.20698534 4.28468354,5.75093819 4.28468354,7.71437757 C4.28468354,9.67916362 5.85664824,11.2217698 7.85571019,11.2217698 Z M12.7370572,18.8004735 C13.7300761,17.380727 14.5425639,16.038169 15.1745207,14.7727995 C16.4481065,14.7609373 17.4459582,13.8143956 17.4459582,12.6109234 C17.4459582,11.9197596 17.116841,11.3133496 16.5953983,10.9200574 C16.7542426,10.1920698 16.8336647,9.49804015 16.8336647,8.83796855 C16.8336647,8.59328925 16.8222224,8.35136588 16.7998322,8.1126832 C18.7837836,8.75282338 20.2003976,10.5187072 20.2003976,12.6117535 C20.2003976,14.7672429 18.7674595,17.5101986 15.9015831,20.8406206 C15.8707871,20.8764085 15.8374951,20.9099705 15.8019571,20.9410545 C15.3862612,21.3046516 14.7545195,21.2624172 14.3909225,20.8467213 L14.3909069,20.8467349 C13.7728532,20.140122 13.2215699,19.4580348 12.7370572,18.8004735 Z" transform="translate(11.344 9)"/>
  </g>
</svg>
