<svg width="52" height="36" viewBox="0 0 52 36" xmlns="http://www.w3.org/2000/svg"><path fill="#19D0C8" d="M32.571 18.144v-3.248a1 1 0 0 0-1-1H4.247a1 1 0 0 0-1 1v3.248H32.57zm0 4.464H3.247v9.498a1 1 0 0 0 1 1H31.57a1 1 0 0 0 1-1v-9.498zM3.5 11.002h28.818a3 3 0 0 1 3 3V33a3 3 0 0 1-3 3H3.5a3 3 0 0 1-3-3V14.002a3 3 0 0 1 3-3zm2.754 14.059h5.563v5.563H6.254V25.06zm17.42-16.737h-7.578L18.1 2.157A3 3 0 0 1 21.88.231l27.408 8.906a3 3 0 0 1 1.926 3.78l-5.87 18.068a3 3 0 0 1-3.78 1.926l-2.675-.869V29l2.858.929a1 1 0 0 0 1.26-.642l2.935-9.033-7.053-2.292v-4.693l8.432 2.74 1.004-3.09a1 1 0 0 0-.642-1.26L21.696 3.214a1 1 0 0 0-1.26.642l-1.004 3.09 4.242 1.378z" fill-rule="evenodd"/></svg>