<svg xmlns="http://www.w3.org/2000/svg" width="54" height="43" viewBox="0 0 54 43">
  <path fill="#FFFFFF" d="M121.119528,48.9590498 L117.619528,48.9590498 L117.619528,38.7192923 C117.619528,38.2532375 117.241716,37.8754254 116.775661,37.8754254 L87.0938669,37.8754254 C86.6278121,37.8754254 86.25,38.2532375 86.25,38.7192923 L86.25,56.6426696 C86.25,57.1087245 86.6278121,57.4865365 87.0938669,57.4865365 L91.611968,57.4865365 C92.5784663,57.4865365 93.361968,58.2700382 93.361968,59.2365365 L93.361968,63.9009116 L99.2645657,57.9990251 C99.5927483,57.6708821 100.037836,57.4865365 100.501928,57.4865365 L104.788666,57.4865365 L105.701709,60.9865365 L101.22674,60.9865365 L92.8493303,69.3629368 C91.7468613,70.465273 89.861968,69.6844581 89.861968,68.1254254 L89.861968,60.9865365 L87.0938669,60.9865365 C84.6948155,60.9865365 82.75,59.0417211 82.75,56.6426696 L82.75,38.7192923 C82.75,36.3202409 84.6948155,34.3754254 87.0938669,34.3754254 L116.775661,34.3754254 C119.174712,34.3754254 121.119528,36.3202409 121.119528,38.7192923 L121.119528,48.9590498 Z M119.020902,73.6181592 C119.020902,75.4855449 117.506491,77 115.637325,77 C113.769939,77 112.255484,75.4855894 112.255484,73.6181592 C112.255484,71.7490374 113.769895,70.2345824 115.637325,70.2345824 C117.506447,70.2345824 119.020902,71.7489929 119.020902,73.6181592 Z M130.950396,73.6181592 C130.950396,75.4855449 129.435985,77 127.566819,77 C125.699433,77 124.184978,75.4855894 124.184978,73.6181592 C124.184978,71.7490374 125.699389,70.2345824 127.566819,70.2345824 C129.435941,70.2345824 130.950396,71.7489929 130.950396,73.6181592 Z M109.502341,52.2526985 L134.021107,52.2072969 C134.429721,52.2090328 134.813988,52.39854 135.064364,52.7184655 C135.316478,53.0401493 135.406893,53.4574345 135.313,53.8538617 L132.819651,67.69779 C132.677081,68.2959205 132.143301,68.7184305 131.529533,68.7219078 L111.771575,68.7219078 C111.157808,68.7184359 110.624032,68.2959339 110.481457,67.69779 L106.16421,49.6706826 L102,49.6706826 C101.447715,49.6706826 101,49.2229673 101,48.6706826 L101,48 C101,47.4477153 101.447715,47 102,47 L107.231593,47 C107.847096,47.0034719 108.379132,47.4259739 108.523446,48.0241177 L109.502341,52.2526985 Z" transform="translate(-82 -34)"/>
</svg>
