<svg xmlns="http://www.w3.org/2000/svg" width="54" height="43" viewBox="0 0 54 43"><path fill="#F45755" d="M39.12 14.959h-3.5V4.719a.844.844 0 0 0-.844-.844H5.094a.844.844 0 0 0-.844.844v17.924c0 .466.378.844.844.844h4.518c.966 0 1.75.783 1.75 1.75V29.9l5.903-5.902a1.75 1.75 0 0 1 1.237-.512h4.287l.913 3.5h-4.475l-8.378 8.376c-1.102 1.102-2.987.321-2.987-1.238v-7.138H5.094A4.344 4.344 0 0 1 .75 22.643V4.719C.75 2.32 2.695.375 5.094.375h29.682c2.399 0 4.344 1.945 4.344 4.344v10.24zm-2.1 24.66a3.383 3.383 0 1 1-6.764-.002 3.383 3.383 0 0 1 6.765.001zm11.93 0a3.383 3.383 0 1 1-6.765-.002 3.383 3.383 0 0 1 6.765.001zM27.502 18.252l24.52-.046a1.338 1.338 0 0 1 1.292 1.647l-2.494 13.844a1.334 1.334 0 0 1-1.29 1.024H29.772a1.334 1.334 0 0 1-1.29-1.024L24.163 15.67H20a1 1 0 0 1-1-1V14a1 1 0 0 1 1-1h5.232a1.336 1.336 0 0 1 1.291 1.024l.98 4.229z"/></svg>