<svg xmlns="http://www.w3.org/2000/svg" width="46" height="36" viewBox="0 0 46 36">
  <path fill="#9BCD00" d="M108.025661,28 C110.424712,28 112.369528,29.9448155 112.369528,32.3438669 L112.369,33.449 L108.869,33.449 L108.869528,32.3438669 C108.869528,31.8778121 108.491716,31.5 108.025661,31.5 L78.3438669,31.5 C77.8778121,31.5 77.5,31.8778121 77.5,32.3438669 L77.5,50.2672442 C77.5,50.733299 77.8778121,51.1111111 78.3438669,51.1111111 L82.861968,51.1111111 C83.8284663,51.1111111 84.611968,51.8946128 84.611968,52.8611111 L84.611968,57.5254862 L90.5145657,51.6235997 C90.8427483,51.2954566 91.2878357,51.1111111 91.751928,51.1111111 L92.724,51.111 L92.724,54.611 L92.47674,54.6111111 L84.0993303,62.9875114 C82.9968613,64.0898476 81.111968,63.3090327 81.111968,61.75 L81.111968,54.6111111 L78.3438669,54.6111111 C75.9448155,54.6111111 74,52.6662957 74,50.2672442 L74,32.3438669 C74,29.9448155 75.9448155,28 78.3438669,28 L108.025661,28 Z M117.10416,37 C118.156493,37 119.009578,37.8530846 119.009578,38.9054177 L119.009578,38.9054177 L119.009578,52.0716759 C119.009578,53.1240091 118.156493,53.9770937 117.10416,53.9770937 L117.10416,53.9770937 L113.785227,53.9770937 L113.785227,60.5067451 L107.254789,53.9770937 L97.4054177,53.9770937 C96.3530846,53.9770937 95.5,53.1240091 95.5,52.0716759 L95.5,52.0716759 L95.5,38.9054177 C95.5,37.8530846 96.3530846,37 97.4054177,37 L97.4054177,37 Z M113,46.4509734 L100,46.4509734 C99.4477153,46.4509734 99,46.8986886 99,47.4509734 C99,48.0032581 99.4477153,48.4509734 100,48.4509734 L100,48.4509734 L113,48.4509734 L113.116621,48.4442457 C113.61396,48.3864806 114,47.9638092 114,47.4509734 C114,46.8986886 113.552285,46.4509734 113,46.4509734 L113,46.4509734 Z M113,41.5 L100,41.5 C99.4477153,41.5 99,41.9477153 99,42.5 C99,43.0522847 99.4477153,43.5 100,43.5 L100,43.5 L113,43.5 L113.116621,43.4932723 C113.61396,43.4355072 114,43.0128358 114,42.5 C114,41.9477153 113.552285,41.5 113,41.5 L113,41.5 Z" transform="translate(-74 -28)"/>
</svg>
