<svg xmlns="http://www.w3.org/2000/svg" width="40" height="51" viewBox="0 0 40 51"><g fill="#FFF" fill-rule="evenodd" transform="translate(.807 .322)"><path fill-rule="nonzero" d="M23.449 25.144h6.98c.947 0 1.829.677 2.032 1.622.27 1.284-.746 2.367-1.964 2.367H21.89a2.429 2.429 0 0 1-2.44-2.435V20.88a.752.752 0 0 0-.747-.745.752.752 0 0 0-.747.745l.003 26.648c0 1.421-1.016 2.705-2.506 2.84-1.626.134-2.98-1.15-2.98-2.706V33.926h-1.491l-.003 13.601c0 1.421-1.016 2.705-2.506 2.84-1.625.135-2.98-1.15-2.98-2.705v-26.78a.752.752 0 0 0-.747-.745.752.752 0 0 0-.747.745v10.243c0 1.083-.812 2.029-1.897 2.097C.95 33.291 0 32.342 0 31.193l.003-13.22c0-2.636 2.167-4.803 4.812-4.803h13.821c2.645.003 4.812 2.167 4.812 4.803v7.171z"/><circle cx="11.783" cy="6.517" r="4.582"/><path d="M6.546 4.814a5.33 5.33 0 0 1 10.61 0H6.547z"/><path d="M6.546 4.553h13.42v1.309H6.546zm21.984 4.91h7.093a3 3 0 0 1 3 3v7.747a3 3 0 0 1-3 3H28.53a3 3 0 0 1-3-3v-7.747a3 3 0 0 1 3-3z"/></g></svg>