<svg width="44" height="40" viewBox="0 0 44 40" fill="none" xmlns="http://www.w3.org/2000/svg">
<path fill-rule="evenodd" clip-rule="evenodd" d="M22.7871 0.0852051C21.1303 0.0852051 19.7871 1.42835 19.7871 3.0852V5.06383H23.0855V4.4043C23.0855 3.85201 23.5332 3.4043 24.0855 3.4043H39.7017C40.254 3.4043 40.7017 3.85201 40.7017 4.4043V32.2766C40.7017 32.8289 40.254 33.2766 39.7017 33.2766H24.0855L24.0763 33.2766H19.7871V36.915C19.7871 38.5718 21.1303 39.915 22.7871 39.915H41C42.6569 39.915 44 38.5718 44 36.915V3.08521C44 1.42835 42.6569 0.0852051 41 0.0852051H22.7871ZM31.8937 38.2553C33.0394 38.2553 33.9682 37.3265 33.9682 36.1809C33.9682 35.0352 33.0394 34.1064 31.8937 34.1064C30.748 34.1064 29.8192 35.0352 29.8192 36.1809C29.8192 37.3265 30.748 38.2553 31.8937 38.2553Z" fill="white"/>
<path d="M33.4661 26.0778H19.7917C18.7783 26.0778 17.925 25.3197 17.8057 24.3134L15.8036 7.43748C15.6842 6.43111 14.831 5.6731 13.8176 5.6731H10.0503" stroke="white" stroke-width="2" stroke-linecap="round" stroke-linejoin="round"/>
<path d="M16.8906 9.90967L36.9346 9.90967C37.5518 9.90967 38.0216 10.4632 37.9213 11.0721L36.5292 19.5276C36.3701 20.4938 35.5349 21.2027 34.5557 21.2027H18.8036" stroke="white" stroke-width="2" stroke-linecap="round" stroke-linejoin="round"/>
<path d="M17.8047 13.6582L36.7138 13.6582" stroke="white" stroke-width="2" stroke-linecap="round" stroke-linejoin="round"/>
<path d="M23.3624 21.0168L23.3624 10.0902" stroke="white" stroke-width="2" stroke-linecap="round" stroke-linejoin="round"/>
<path d="M30.1285 21.0168L30.1285 10.0902" stroke="white" stroke-width="2" stroke-linecap="round" stroke-linejoin="round"/>
<path d="M17.8926 17.4441L36.3224 17.4441" stroke="white" stroke-width="2" stroke-linecap="round" stroke-linejoin="round"/>
<path d="M23.3825 28.1775C23.3825 29.4088 22.3934 30.4075 21.1726 30.4075C19.953 30.4075 18.9639 29.4089 18.9639 28.1775C18.9639 26.9449 19.953 25.9463 21.1726 25.9463C22.3934 25.9463 23.3825 26.9449 23.3825 28.1775Z" fill="white"/>
<path d="M34.1844 28.1775C34.1844 29.4088 33.1953 30.4075 31.9745 30.4075C30.7549 30.4075 29.7657 29.4089 29.7657 28.1775C29.7657 26.9449 30.7548 25.9463 31.9745 25.9463C33.1953 25.9463 34.1844 26.9449 34.1844 28.1775Z" fill="white"/>
<rect x="0.341309" y="10.7791" width="12.1338" height="2" rx="1" fill="white"/>
<rect x="4.23926" y="14.5457" width="8.83611" height="2" rx="1" fill="white"/>
<rect x="8.7002" y="18.3123" width="5.23237" height="2" rx="1" fill="white"/>
</svg>
