<svg width="38" height="35" viewBox="0 0 38 35" fill="none" xmlns="http://www.w3.org/2000/svg">
<path fill-rule="evenodd" clip-rule="evenodd" d="M22.5404 0.697109C23.5157 0.130041 24.7418 0.397057 25.4045 1.27839L25.5579 1.51139L31.1253 11.2269L34.5948 11.2281C35.9796 11.2281 37.1022 12.3586 37.1022 13.7533C37.1022 13.9581 37.0775 14.1621 37.0286 14.3609L32.4735 32.8653C32.1962 33.9918 31.1922 34.7828 30.0398 34.7828H7.87091C6.7185 34.7828 5.71448 33.9918 5.43718 32.8653L0.882124 14.3609C0.548905 13.0073 1.36839 11.6379 2.7125 11.3023C2.90988 11.253 3.11249 11.2281 3.31585 11.2281L6.22414 11.2269L11.7916 1.51139C12.4015 0.447352 13.7525 0.0827858 14.8091 0.697109C15.8656 1.31143 16.2276 2.67201 15.6176 3.73605L11.3214 11.2268H26.0247L21.7319 3.73605C21.1688 2.75386 21.434 1.519 22.3091 0.851648L22.5404 0.697109ZM12.9838 24.3024L9.89218 24.3046C9.3125 24.3046 8.83038 24.7253 8.7304 25.2801L8.71137 25.4938V27.514C8.71137 28.0978 9.12908 28.5833 9.67993 28.684L9.89218 28.7032L12.9838 28.7013V24.3024ZM20.9548 24.3024H16.5994V28.7013H20.9548V24.3024ZM28.0185 24.3046L24.5705 24.3024V28.7013L28.0185 28.7032C28.5982 28.7032 29.0803 28.2825 29.1803 27.7278L29.1993 27.514V25.4938C29.1993 24.837 28.6707 24.3046 28.0185 24.3046ZM12.9838 16.4439L7.93885 16.4446C7.35917 16.4446 6.87705 16.8653 6.77707 17.42L6.75804 17.6338V19.6539C6.75804 20.2378 7.17576 20.7233 7.7266 20.824L7.93885 20.8431L12.9838 20.8428V16.4439ZM20.9548 16.4439H16.5994V20.8428H20.9548V16.4439ZM29.8897 16.4446L24.5705 16.4439V20.8428L29.8897 20.8431C30.4694 20.8431 30.9515 20.4225 31.0515 19.8677L31.0705 19.6539V17.6338C31.0705 16.977 30.5418 16.4446 29.8897 16.4446Z" fill="white"/>
</svg>
