<svg width="44" height="37" viewBox="0 0 44 37" fill="none" xmlns="http://www.w3.org/2000/svg">
<path fill-rule="evenodd" clip-rule="evenodd" d="M40.8408 0.331177C42.4977 0.331177 43.8408 1.67432 43.8408 3.33118L43.8409 33.5049C43.8409 35.1617 42.4977 36.5049 40.8409 36.5049H3.15918C1.50233 36.5049 0.15918 35.1617 0.15918 33.5049V3.33118C0.15918 1.67432 1.50233 0.331177 3.15918 0.331177H40.8408ZM40.8408 8.33118H3.15918L3.15918 33.1049C3.15918 33.2982 3.29629 33.4595 3.47857 33.4968L3.55918 33.5049H40.4409C40.6342 33.5049 40.7954 33.3678 40.8327 33.1855L40.8409 33.1049L40.8408 8.33118ZM34.8408 11.3312C36.4977 11.3312 37.8408 12.6743 37.8408 14.3312V25.3312C37.8408 26.988 36.4977 28.3312 34.8408 28.3312H17.8409C16.184 28.3312 14.8409 26.988 14.8409 25.3312V14.3312C14.8409 12.6743 16.184 11.3312 17.8409 11.3312H34.8408ZM32.8408 20.3312H18.8409C18.328 20.3312 17.9054 20.7172 17.8476 21.2146L17.8409 21.3312V21.8312C17.8409 22.344 18.2269 22.7667 18.7242 22.8244L18.8409 22.8312H32.8408C33.3537 22.8312 33.7763 22.4451 33.8341 21.9478L33.8408 21.8312V21.3312C33.8408 20.7789 33.3931 20.3312 32.8408 20.3312ZM32.8408 15.3312H18.8409C18.328 15.3312 17.9054 15.7172 17.8476 16.2146L17.8409 16.3312V16.8312C17.8409 17.344 18.2269 17.7667 18.7242 17.8244L18.8409 17.8312H32.8408C33.3537 17.8312 33.7763 17.4451 33.8341 16.9478L33.8408 16.8312V16.3312C33.8408 15.7789 33.3931 15.3312 32.8408 15.3312ZM6.25159 2.42786C5.23958 2.42786 4.41919 3.24825 4.41919 4.26025C4.41919 5.27226 5.23958 6.09265 6.25159 6.09265C7.26359 6.09265 8.08398 5.27226 8.08398 4.26025C8.08398 3.24825 7.26359 2.42786 6.25159 2.42786ZM11.1215 2.42786C10.1095 2.42786 9.28906 3.24825 9.28906 4.26025C9.28906 5.27226 10.1095 6.09265 11.1215 6.09265C12.1335 6.09265 12.9539 5.27226 12.9539 4.26025C12.9539 3.24825 12.1335 2.42786 11.1215 2.42786ZM16.1215 2.42786C15.1095 2.42786 14.2891 3.24825 14.2891 4.26025C14.2891 5.27226 15.1095 6.09265 16.1215 6.09265C17.1335 6.09265 17.9539 5.27226 17.9539 4.26025C17.9539 3.24825 17.1335 2.42786 16.1215 2.42786Z" fill="#2FC6F6"/>
</svg>