<svg width="38" height="35" viewBox="0 0 38 35" fill="none" xmlns="http://www.w3.org/2000/svg">
<path fill-rule="evenodd" clip-rule="evenodd" d="M22.6303 0.515567C23.6055 -0.0515001 24.8317 0.215516 25.4943 1.09685L25.6478 1.32985L31.2152 11.0453L34.6847 11.0465C36.0695 11.0465 37.1921 12.1771 37.1921 13.5717C37.1921 13.7765 37.1674 13.9806 37.1184 14.1794L32.5634 32.6837C32.2861 33.8102 31.282 34.6013 30.1296 34.6013H7.96075C6.80835 34.6013 5.80433 33.8102 5.52703 32.6837L0.971967 14.1794C0.638748 12.8257 1.45824 11.4563 2.80234 11.1207C2.99973 11.0714 3.20233 11.0465 3.40569 11.0465L6.31398 11.0453L11.8814 1.32985C12.4914 0.265811 13.8424 -0.0987557 14.8989 0.515567C15.9554 1.12989 16.3174 2.49047 15.7074 3.55451L11.4112 11.0453H26.1146L21.8217 3.55451C21.2587 2.57232 21.5238 1.33746 22.3989 0.670107L22.6303 0.515567ZM13.0736 24.1208L9.98203 24.1231C9.40234 24.1231 8.92022 24.5438 8.82024 25.0985L8.80122 25.3123V27.3325C8.80122 27.9163 9.21893 28.4018 9.76977 28.5025L9.98203 28.5217L13.0736 28.5198V24.1208ZM21.0446 24.1208H16.6893V28.5198H21.0446V24.1208ZM28.1084 24.1231L24.6603 24.1208V28.5198L28.1084 28.5217C28.688 28.5217 29.1702 28.101 29.2701 27.5462L29.2892 27.3325V25.3123C29.2892 24.6555 28.7605 24.1231 28.1084 24.1231ZM13.0736 16.2624L8.0287 16.263C7.44902 16.263 6.96689 16.6837 6.86691 17.2385L6.84789 17.4522V19.4724C6.84789 20.0562 7.2656 20.5418 7.81645 20.6425L8.0287 20.6616L13.0736 20.6613V16.2624ZM21.0446 16.2624H16.6893V20.6613H21.0446V16.2624ZM29.9795 16.263L24.6603 16.2624V20.6613L29.9795 20.6616C30.5592 20.6616 31.0413 20.2409 31.1413 19.6862L31.1603 19.4724V17.4522C31.1603 16.7955 30.6317 16.263 29.9795 16.263Z" fill="#00B4AC"/>
</svg>
