<svg xmlns="http://www.w3.org/2000/svg" width="42" height="42" viewBox="0 0 42 42"><g fill="none" fill-rule="evenodd"><circle cx="21" cy="21" r="21" fill="#3585DA"/><path fill="#FFF" d="M25.455 27.625h-6.472C18.839 28.961 17.734 30 16.393 30c-1.34 0-2.445-1.04-2.59-2.375H12.44c-.795 0-1.44-.661-1.44-1.476V12.476c0-.815.645-1.476 1.44-1.476h10.436c.795 0 1.44.661 1.44 1.476v2.029l2.858-.011a2.86 2.86 0 0 1 2.41 1.32L33 21.094v5.055c0 .815-.645 1.476-1.44 1.476h-.926C30.49 28.961 29.385 30 28.044 30c-1.34 0-2.445-1.04-2.59-2.375zm2.59.956c.674 0 1.22-.561 1.22-1.253 0-.692-.546-1.253-1.22-1.253-.676 0-1.222.561-1.222 1.253 0 .692.546 1.253 1.221 1.253zm-11.652 0c.675 0 1.222-.56 1.222-1.253 0-.692-.547-1.253-1.222-1.253-.675 0-1.222.561-1.222 1.253 0 .692.547 1.253 1.222 1.253zm9.08-11.643V20.5H30.2l-2.224-3.563h-2.501z"/></g></svg>