<svg xmlns="http://www.w3.org/2000/svg" width="125" height="26" viewBox="0 0 125 26">
  <path fill="#FFFFFF" d="M186,78.056316 L188.429878,76 L199,88.0003759 L188.429878,100 L186,97.9459392 L194.760369,88.0003759 L186,78.056316 Z M196,78.056316 L198.429183,76 L209,88.0003759 L198.429183,100 L196,97.9459392 L204.760245,88.0003759 L196,78.056316 Z M95,97.7884174 C95,98.0037588 94.9891124,98.1842317 94.9673371,98.3294531 C94.945173,98.4750576 94.9097882,98.5988213 94.8607939,98.7011277 C94.8114108,98.8038171 94.7515288,98.8789184 94.6803704,98.9271979 C94.609212,98.9758603 94.5248329,99 94.4264555,99 L85.0494892,99 C84.7979073,99 84.5603238,98.9168522 84.3363498,98.7497902 C84.111987,98.5827282 84,98.2892202 84,97.8692662 L84,78.516896 C84,78.4306828 84.0217752,78.3551983 84.0657146,78.2908258 C84.1092651,78.2260701 84.1858673,78.1751086 84.2951324,78.1371748 C84.4043975,78.0996241 84.5517692,78.0674379 84.7376365,78.0402328 C84.9235038,78.0137941 85.1474778,78 85.4099473,78 C85.6829156,78 85.9096115,78.0137941 86.090035,78.0402328 C86.2704585,78.0674379 86.4151083,78.0996241 86.5247623,78.1371748 C86.6336385,78.1751086 86.7106296,78.2260701 86.7541801,78.2908258 C86.7977306,78.3555815 86.8198946,78.4306828 86.8198946,78.516896 L86.8198946,96.593311 L94.4264555,96.593311 C94.5248329,96.593311 94.609212,96.6174506 94.6803704,96.6661132 C94.75114,96.7147758 94.8114108,96.7845127 94.8607939,96.875707 C94.9101771,96.9672847 94.9455618,97.0883663 94.9673371,97.2393352 C94.9891124,97.390304 95,97.5730759 95,97.7884174 Z M101,98.4854793 C101,98.5716778 100.97642,98.6464339 100.930088,98.7105105 C100.883342,98.7749687 100.801848,98.8256962 100.686018,98.8634557 C100.56936,98.9012152 100.415885,98.9328721 100.223525,98.9599522 C100.031577,98.9862693 99.7904025,99 99.5,99 C99.2207667,99 98.9820739,98.9862693 98.7847491,98.9599522 C98.5870105,98.9328721 98.4302262,98.9008337 98.3139824,98.8634557 C98.1977386,98.8256962 98.1162439,98.7749687 98.0699118,98.7105105 C98.0231661,98.6460525 98,98.5716778 98,98.4854793 L98,78.5145208 C98,78.4287038 98.0260618,78.3535662 98.078599,78.2894895 C98.1311363,78.2250313 98.2180089,78.1743039 98.3400442,78.1365444 C98.4620794,78.0991664 98.6192774,78.067128 98.8108108,78.040048 C99.0027579,78.0137307 99.2319361,78 99.5,78 C99.7904025,78 100.031577,78.0137307 100.223525,78.040048 C100.415471,78.067128 100.56936,78.0991664 100.686018,78.1365444 C100.801848,78.1743039 100.883756,78.2250313 100.930088,78.2894895 C100.97642,78.3539476 101,78.4287038 101,78.5145208 L101,98.4854793 Z M126,100.771346 C126,101.015866 125.986121,101.220642 125.958364,101.385295 C125.93021,101.550326 125.888574,101.677885 125.83306,101.76835 C125.777149,101.858436 125.716083,101.920134 125.649069,101.951929 C125.582055,101.983724 125.515041,102 125.448424,102 C125.225573,102 124.865918,101.912185 124.370253,101.736933 C123.874588,101.561682 123.303185,101.305807 122.656837,100.971201 C122.01049,100.635839 121.319335,100.228937 120.583767,99.7501182 C119.8482,99.2712992 119.134839,98.7129924 118.44408,98.0744408 C117.898055,98.3935274 117.2069,98.6702205 116.37101,98.9041415 C115.53512,99.1380626 114.565599,99.2554017 113.46205,99.2554017 C111.834682,99.2554017 110.427786,99.0264013 109.240965,98.5691575 C108.054145,98.1119137 107.073124,97.4415671 106.298697,96.558496 C105.523873,95.675425 104.947315,94.5773587 104.568231,93.2635397 C104.189146,91.9497209 104,90.4417247 104,88.7395515 C104,87.1013469 104.206197,85.6198467 104.61859,84.2954294 C105.030984,82.9710122 105.649574,81.8434218 106.474361,80.9122796 C107.299148,79.9815159 108.330131,79.2634766 109.566915,78.7581617 C110.804095,78.2528467 112.247076,78 113.896649,78 C115.445504,78 116.808385,78.2290004 117.984103,78.6862442 C119.159821,79.1438665 120.145996,79.8115636 120.943025,80.6889569 C121.739659,81.5667287 122.338819,82.6492761 122.740109,83.9362205 C123.1414,85.2235435 123.342045,86.7023941 123.342045,88.3723938 C123.342045,89.2342681 123.28891,90.0586695 123.183036,90.8459768 C123.077162,91.6336624 122.909825,92.3781976 122.681819,93.0803394 C122.45302,93.7824811 122.165931,94.4312526 121.820948,95.0270321 C121.475172,95.6231902 121.06833,96.1599219 120.600422,96.6387408 C121.413709,97.2769138 122.12707,97.7746585 122.740109,98.1308393 C123.352751,98.4873986 123.860312,98.7561429 124.261206,98.9366937 C124.662497,99.117623 124.974171,99.2478314 125.197419,99.3273192 C125.419873,99.4071855 125.58721,99.49765 125.699032,99.5987131 C125.810061,99.6993975 125.888574,99.8432325 125.932986,100.029461 C125.977398,100.215311 126,100.462858 126,100.771346 Z M120.316108,88.5639215 C120.316108,87.393559 120.207458,86.3087405 119.990159,85.3083304 C119.772859,84.3082989 119.410429,83.4388544 118.903264,82.6992398 C118.3961,81.9600038 117.718823,81.3827713 116.872227,80.967921 C116.025234,80.5530707 114.977596,80.3456455 113.729313,80.3456455 C112.48103,80.3456455 111.433392,80.5663186 110.586399,81.0080434 C109.739406,81.4497682 109.051027,82.0451692 108.521656,82.7953821 C107.992286,83.5452165 107.613201,84.4150396 107.384798,85.4044728 C107.156396,86.393906 107.041798,87.4416301 107.041798,88.5484024 C107.041798,89.7611583 107.147672,90.8755008 107.35942,91.8914298 C107.571168,92.9073589 107.927651,93.7881588 108.429264,94.5326941 C108.930877,95.2776078 109.602206,95.8548402 110.443647,96.2640128 C111.285089,96.6735639 112.341054,96.8783397 113.611543,96.8783397 C114.870929,96.8783397 115.92967,96.6550169 116.787765,96.2083714 C117.645861,95.7617259 118.33662,95.1579977 118.860835,94.3971864 C119.384654,93.6367537 119.757791,92.7533041 119.981038,91.7483519 C120.204683,90.742264 120.316108,89.6809135 120.316108,88.5639215 Z M141,84.1225574 C141,85.1674421 140.825462,86.1096393 140.476773,86.949532 C140.127696,87.7898079 139.629293,88.505939 138.980786,89.0979255 C138.332279,89.6902951 137.535997,90.1477914 136.593102,90.4707976 C135.650207,90.7938037 134.524629,90.9554985 133.216756,90.9554985 L130.812782,90.9554985 L130.812782,98.4831135 C130.812782,98.5697084 130.788346,98.6448082 130.739088,98.7091795 C130.689829,98.773934 130.613808,98.8248948 130.510249,98.8628279 C130.406689,98.900761 130.265119,98.9325634 130.085151,98.959768 C129.905182,98.9862062 129.679058,99 129.406779,99 C129.134111,99 128.907987,98.9862062 128.728019,98.959768 C128.54805,98.9325634 128.403377,98.9003777 128.294388,98.8628279 C128.185398,98.8248948 128.108989,98.773934 128.065549,98.7091795 C128.02172,98.6444251 128,98.5697084 128,98.4831135 L128,79.1954677 C128,78.7647928 128.114419,78.4578795 128.343259,78.2747277 C128.572098,78.0915759 128.828087,78 129.112003,78 L133.641466,78 C134.099532,78 134.538205,78.018775 134.957872,78.0567081 C135.37754,78.0946412 135.873229,78.1751054 136.445714,78.2988669 C137.017812,78.4230117 137.601158,78.654442 138.195364,78.993541 C138.789182,79.33264 139.293403,79.7502874 139.708029,80.2453336 C140.122266,80.740763 140.44109,81.3143577 140.664499,81.9657343 C140.887908,82.6178773 141,83.3366906 141,84.1225574 Z M138.040218,84.3486234 C138.040218,83.4980021 137.879255,82.7872352 137.557717,82.2159396 C137.236179,81.6454103 136.838231,81.2200996 136.363875,80.9400077 C135.889907,80.6599157 135.39926,80.4825114 134.892323,80.4070283 C134.385387,80.3319284 133.892025,80.2939953 133.412239,80.2939953 L130.812394,80.2939953 L130.812394,88.6775959 L133.347078,88.6775959 C134.197661,88.6775959 134.903184,88.5703104 135.464809,88.3545898 C136.026047,88.1396355 136.497688,87.8407686 136.879345,87.457989 C137.261002,87.0759757 137.549572,86.6180963 137.746218,86.0851169 C137.942089,85.5521375 138.040218,84.9731786 138.040218,84.3486234 Z M160.862384,97.9217761 C160.948233,98.1578641 160.994223,98.3478024 160.999588,98.4927351 C161.004571,98.6376679 160.964329,98.7475118 160.878481,98.8226479 C160.792249,98.8974028 160.64968,98.9454594 160.450389,98.9671993 C160.250715,98.9885579 159.984355,98.9996185 159.650543,98.9996185 C159.316731,98.9996185 159.049988,98.991609 158.850697,98.9755902 C158.651406,98.9595713 158.500405,98.9324918 158.39846,98.8951143 C158.295749,98.8577369 158.220631,98.8066291 158.172342,98.7425535 C158.123669,98.6780966 158.078062,98.5976207 158.035138,98.5015074 L156.24152,93.4364874 L147.548609,93.4364874 L145.835858,98.4370505 C145.803281,98.5335452 145.760357,98.6170722 145.706319,98.686106 C145.65228,98.7559026 145.57448,98.8150199 145.472152,98.8630765 C145.369824,98.9111332 145.224188,98.9458409 145.036012,98.9675808 C144.847452,98.9889393 144.602171,99 144.300935,99 C143.988585,99 143.732573,98.9862694 143.533666,98.9599527 C143.334375,98.9328732 143.194488,98.8821467 143.113622,98.8070105 C143.033139,98.7322556 142.994814,98.6220304 143.000563,98.4774791 C143.005928,98.3325462 143.051535,98.1422266 143.137767,97.9065201 L150.15012,78.5789684 C150.193045,78.4611151 150.249766,78.3646204 150.319518,78.2894842 C150.389269,78.214348 150.491981,78.1552306 150.626502,78.1125136 C150.761023,78.0697966 150.933487,78.0400472 151.143508,78.0240283 C151.353147,78.0080094 151.620273,78 151.943354,78 C152.287898,78 152.57342,78.0080094 152.799922,78.0240283 C153.02604,78.0400472 153.209234,78.0697966 153.349121,78.1125136 C153.489008,78.1556121 153.596701,78.2170178 153.672202,78.2974936 C153.747319,78.3779695 153.806723,78.477134 153.850031,78.5949873 L160.862384,97.9217761 Z M151.862488,80.8612786 L151.846392,80.8612786 L148.243444,91.2323647 L155.514109,91.2323647 L151.862488,80.8612786 Z M170.884201,90.815725 L170.884201,98.4854793 C170.884201,98.5716778 170.862828,98.6464339 170.820082,98.7105105 C170.777336,98.7749687 170.70253,98.8256961 170.596046,98.8634556 C170.489562,98.901215 170.345294,98.9328721 170.164004,98.9599522 C169.982715,98.9862693 169.764023,99 169.508309,99 C169.241527,99 169.020544,98.9862693 168.844217,98.9599522 C168.66827,98.9328721 168.524002,98.9008337 168.412175,98.8634556 C168.299966,98.8256961 168.222871,98.7749687 168.180124,98.7105105 C168.137378,98.6460524 168.116387,98.5716778 168.116387,98.4854793 L168.116387,90.815725 L162.227339,79.0774805 C162.109024,78.8310903 162.036508,78.6380973 162.010174,78.4985016 C161.983076,78.3592873 162.010174,78.2521114 162.090704,78.1769738 C162.170853,78.1022176 162.315885,78.0541601 162.525036,78.0324198 C162.734187,78.0110609 163.015472,78 163.369654,78 C163.691396,78 163.951308,78.0110609 164.150154,78.0324198 C164.348618,78.0541601 164.506626,78.0835286 164.624941,78.1209067 C164.742875,78.1586662 164.83142,78.2120634 164.890196,78.2818613 C164.949354,78.3516591 165.005458,78.440146 165.059273,78.5469406 L167.939296,84.5285784 C168.206459,85.0968779 168.473623,85.691876 168.740023,86.3135727 C169.006423,86.9352694 169.278548,87.5623059 169.556017,88.1946821 L169.588076,88.1946821 C169.833103,87.5836648 170.086145,86.9756988 170.347966,86.3696398 C170.609023,85.7643437 170.873514,85.1666758 171.141441,84.5770174 L174.037494,78.5633411 C174.069935,78.4561652 174.115353,78.3650084 174.174511,78.2898709 C174.233287,78.2151147 174.313436,78.1586662 174.415721,78.1209067 C174.517625,78.0835286 174.659603,78.0541601 174.842038,78.0324198 C175.024473,78.0110609 175.254996,78 175.533991,78 C175.920233,78 176.223273,78.0137307 176.443111,78.0400479 C176.662948,78.067128 176.815613,78.1178554 176.901869,78.192993 C176.988124,78.2681305 177.01713,78.3753065 176.990414,78.5145208 C176.963698,78.6541165 176.891182,78.8413883 176.773248,79.0770991 L170.884201,90.815725 Z" transform="translate(-84 -76)"/>
</svg>
