<svg xmlns="http://www.w3.org/2000/svg" width="44" height="40" viewBox="0 0 44 40">
  <path fill="#FFFFFF" d="M7.01862831,0.931146504 C6.05386101,1.94426385 5.43972212,3.29432557 5.37080878,4.78673452 L5.3643244,5.06818182 L5.36423651,6.6631465 L3.50580351,6.66367444 L3.50580351,33.2355262 L5.36423651,33.2351465 L5.3643244,36.8099476 C5.3643244,38.0586479 5.7457773,39.218255 6.39851356,40.1785995 L3.79578154,40.178138 C1.79990909,40.178138 0.258740032,38.6709246 0.154825723,36.9052715 L0.149236506,36.7151623 L0.149236506,4.39479394 C0.149236506,2.49939506 1.62158238,1.03580924 3.58372275,0.937126035 L3.79578154,0.931818182 L7.01862831,0.931146504 Z M28.4564547,0.931818182 C30.381046,0.931818182 31.8828327,2.23382852 32.0808219,3.99597391 L32.0974105,4.19361863 L32.1029997,4.39479384 L32.1027506,6.66367444 L11.2770216,6.66367444 L11.2770216,33.2355262 L32.1027506,33.2355262 L32.1029997,36.7151613 C32.1029997,38.4976815 30.6306538,40.0663622 28.6685135,40.1724276 L28.4564547,40.178138 L11.5669996,40.178138 C9.57112713,40.178138 8.02995807,38.6709246 7.92604376,36.9052715 L7.92045455,36.7151623 L7.92045455,4.39479394 C7.92045455,2.49939506 9.39280042,1.03580924 11.3549408,0.937126035 L11.5669996,0.931818182 L28.4564547,0.931818182 Z M40.2554664,9.90111774 C41.9123207,9.90111774 43.2554664,11.2442635 43.2554664,12.9011177 L43.2554664,26.264137 C43.2554664,27.9209913 41.9123207,29.264137 40.2554664,29.264137 L19.2855467,29.264137 C17.6286925,29.264137 16.2855467,27.9209913 16.2855467,26.264137 L16.2855467,12.9011177 C16.2855467,11.2442635 17.6286925,9.90111774 19.2855467,9.90111774 L40.2554664,9.90111774 Z M41.1275467,18.8901177 L18.4125467,18.8901177 L18.4132818,26.0224965 C18.4132818,26.5353324 18.799322,26.9580037 19.2966607,27.0157688 L19.4132818,27.0224965 L40.1277314,27.0224965 C40.6405672,27.0224965 41.0632385,26.6364564 41.1210036,26.1391177 L41.1277314,26.0224965 L41.1275467,18.8901177 Z M25.0513109,20.790565 L25.0513109,25.0996111 L20.7422647,25.0996111 L20.7422647,20.790565 L25.0513109,20.790565 Z M40.1277314,12.1427582 L19.4132818,12.1427582 C18.9004459,12.1427582 18.4777746,12.5287984 18.4200095,13.0261371 L18.4132818,13.1427582 L18.4125467,15.4331177 L41.1275467,15.4331177 L41.1277314,13.1427582 C41.1277314,12.5904735 40.6800161,12.1427582 40.1277314,12.1427582 Z" transform="translate(.739 -.5)"/>
</svg>
