<svg xmlns="http://www.w3.org/2000/svg" width="41" height="35" viewBox="0 0 41 35">
  <path fill="#FFFFFF" d="M0.215527905,27.4732477 L0.215245584,25.3680904 L40.1370499,25.3680904 L40.1370499,27.4731647 C40.1370499,28.877627 38.9872159,30.0193676 37.5811344,30.0177459 L24.6994232,30.0177459 L27.7207941,32.9646755 C28.007852,33.3555236 28.0483941,33.8663579 27.8245885,34.2977688 C27.6007663,34.7291631 27.1612595,35 26.6828505,35 L13.6292558,35 C13.1508053,35 12.7194193,34.7372757 12.4956137,34.3140023 C12.2718082,33.8988248 12.2961376,33.3879531 12.5669744,32.9971009 L15.4213195,30.0194481 L2.76172826,30.0194481 C1.35726593,30.0194481 0.215527905,28.8777101 0.215527905,27.4732477 Z M37.5815437,-1.95399252e-14 C38.9876253,-1.95399252e-14 40.1374592,1.14173803 40.1374592,2.54620036 L40.1358376,23.7704875 L0.215693976,23.7704875 L0.215693976,2.54620036 C0.215693976,1.14173803 1.357432,-1.95399252e-14 2.76351352,-1.95399252e-14 L37.5815412,-1.95399252e-14 Z M29.1081306,8.66197582 L29.1081306,6.06856777 C29.1081306,5.51628302 28.6604154,5.06856777 28.1081306,5.06856777 L12.2450226,5.06856777 C11.6927378,5.06856777 11.2450226,5.51628302 11.2450226,6.06856777 L11.2450226,8.66197582 L29.1081306,8.66197582 Z M29.1081306,11.185895 L11.2450226,11.185895 L11.2450226,16.7635819 C11.2450226,17.3158666 11.6927378,17.7635819 12.2450226,17.7635819 L28.1081306,17.7635819 C28.6604154,17.7635819 29.1081306,17.3158666 29.1081306,16.7635819 L29.1081306,11.185895 Z M12.7552416,12.8936472 L15.9289952,12.8936472 L15.9289952,16.0674007 L12.7552416,16.0674007 L12.7552416,12.8936472 Z" transform="translate(.322)"/>
</svg>
