<svg xmlns="http://www.w3.org/2000/svg" width="53" height="46" viewBox="0 0 53 46"><g fill="#FFF" fill-rule="evenodd"><path d="M16.915 39.763a4.692 4.692 0 1 1-4.693-8.128 4.692 4.692 0 0 1 4.693 8.128M9.659 27.195c-4.697 2.711-6.306 8.717-3.594 13.414 2.711 4.696 8.717 6.306 13.414 3.594 4.696-2.712 6.305-8.717 3.594-13.414-2.712-4.696-8.717-6.306-13.414-3.594m28.64-26.13L22.825 9.999a1.937 1.937 0 0 0-.708 2.639l11.108 19.238a1.937 1.937 0 0 0 2.639.707l15.474-8.934a1.937 1.937 0 0 0 .707-2.639L40.938 1.772a1.937 1.937 0 0 0-2.639-.707"/><path d="M13.95 5.07c.66.099 1.271.486 1.63 1.11l17.518 30.34 6.723-3.882a2.266 2.266 0 0 1 2.266 3.925l-8.686 5.014a2.266 2.266 0 0 1-3.095-.83L12.03 9.092l-.003-.001L2.34 6.494a2.266 2.266 0 1 1 1.173-4.377L13.2 4.713c.279.074.53.198.75.358z"/></g></svg>