<svg xmlns="http://www.w3.org/2000/svg" width="82" height="40" viewBox="0 0 82 40"><path fill="#0055A5" d="M.5 39.35V0h39.356v39.35H.5zm3.603-17.785v8.204h1.353v-2.382c.265.23.556.367.868.367.447 0 .814-.235 1.102-.705.324-.524.486-1.297.486-2.309 0-.705-.13-1.34-.382-1.881l-.045-.089-.044-.073-.03-.074-.044-.059-.044-.073-.059-.073-.088-.118-.06-.059-.043-.059-.06-.058-.058-.045-.059-.058-.176-.133-.074-.03-.058-.043-.06-.03-.073-.029-.146-.06-.074-.028-.22-.044-.088-.03h-.073l-.088-.014h-.074l-.088-.014h-1.5v-.001zm1.28 1.161h.132c.341 0 .606.197.794.574.188.376.28.958.28 1.764 0 .435-.054.78-.177 1.015-.118.235-.27.352-.441.352-.165 0-.3-.111-.412-.323-.111-.206-.176-.503-.176-.897v-2.485zm30.545-1.56l-.112.111s-2.828 2.953-3.04 3.176V21.56h-1.323v8.221h1.323v-3.375c.035-.041 1.734-1.841 1.929-2.047.012.3.194 5.422.194 5.422h1.352l-.323-8.615zm-6.452.112l-.006.011-.012.006-.012.018-.018.017-.076.077-.03.03-.035.035-.035.041-.042.041-.04.041-.042.047-.1.1-.105.112-.112.118-.118.123-.123.13-.13.135-.135.135-.135.141-.135.147-.276.288-.135.141-.136.136-.129.135-.123.135-.123.124-.112.118-.106.111-.053.053-.047.053-.047.047-.041.047-.041.042-.036.041-.07.07-.03.03-.046.047-.018.024-.018.012-.012.017v-2.893h-1.33v8.222h1.33v-3.376c.035-.041 1.735-1.841 1.929-2.047l.194 5.423h1.346l-.323-8.617-.106.112zm-7.693 6.463l-.082-.1-.07-.1-.071-.112-.059-.111-.059-.118-.053-.117-.053-.124-.041-.123-.035-.135-.036-.13-.03-.141-.023-.141-.018-.147-.011-.148-.013-.305c0-.865.212-1.553.624-2.059.453-.553 1.112-.829 1.97-.829h.065v-1.435h-.065c-1.34 0-2.37.412-3.07 1.24-.635.748-.958 1.789-.958 3.094 0 1.259.353 2.3 1.04 3.082.73.823 1.736 1.247 3.006 1.247h.065v-1.44h-.065c-.834-.001-1.493-.284-1.958-.848zm-10.637-6.382c-.711 0-1.28.403-1.69 1.19-.4.777-.603 1.81-.603 3.074 0 1.305.19 2.361.573 3.131.388.788.967 1.191 1.72 1.191.77 0 1.38-.426 1.809-1.25.4-.77.602-1.811.602-3.087 0-1.259-.206-2.288-.617-3.059l-.089-.146-.03-.074-.058-.059-.03-.058-.059-.06-.132-.176-.103-.103-.06-.044-.043-.044-.06-.044-.043-.045-.06-.044-.058-.03-.177-.087-.117-.06-.059-.014-.073-.03-.06-.014-.073-.015-.058-.014h-.06l-.146-.03h-.146v.001zm0 1.323c.377 0 .653.268.824.809.164.488.235 1.2.235 2.117 0 .888-.083 1.626-.265 2.19l-.03.06-.058.176-.029.045-.014.044-.03.03-.015.044-.03.03-.014.044-.014.03-.03.028-.03.03-.014.029-.029.014-.015.03-.03.029-.028.014-.03.03-.06.029-.014.014-.03.015h-.03l-.029.014-.029.015h-.03l-.03.014h-.103c-.323 0-.567-.276-.75-.823-.188-.57-.28-1.303-.28-2.161 0-.876.092-1.6.28-2.147.172-.522.422-.793.751-.793zm5.539 5.059l-.036-.047-.041-.053-.077-.1-.064-.112-.065-.111-.059-.118-.053-.117-.047-.124-.047-.123-.035-.135-.035-.13-.047-.282-.018-.147-.011-.148-.012-.153v-.152c0-.865.205-1.553.623-2.059.447-.553 1.106-.829 1.964-.829h.071v-1.435h-.07c-1.336 0-2.37.412-3.064 1.24-.642.748-.959 1.789-.959 3.094 0 1.259.347 2.3 1.041 3.082.723.823 1.735 1.247 3.005 1.247h.065v-1.44h-.065c-.841-.001-1.5-.284-1.964-.848zM4.117 9.504v8.262H5.64v-6.892h1.882v6.892h1.517V9.504H4.117zm9.587-.216c-.806 0-1.453.405-1.91 1.206-.454.782-.677 1.817-.677 3.087 0 1.311.211 2.385.646 3.161.441.794 1.094 1.191 1.941 1.191.864 0 1.547-.414 2.029-1.25.453-.776.691-1.826.691-3.102 0-1.27-.247-2.311-.706-3.087l-.132-.22-.06-.06-.043-.073-.06-.058-.043-.06-.221-.22-.177-.133-.073-.044-.059-.03-.059-.044-.058-.03-.074-.029-.059-.03-.146-.058-.06-.015-.073-.03-.293-.058h-.162l-.073-.015h-.089zm.015 1.397c.412 0 .703.265.897.794.176.482.264 1.185.264 2.103 0 .876-.103 1.608-.308 2.16-.2.542-.476.795-.853.795h-.132l-.06-.03h-.03l-.029-.014-.03-.015-.088-.043-.03-.03-.029-.015-.03-.029-.03-.014-.014-.03-.03-.03-.029-.029-.015-.03-.03-.03-.029-.043-.015-.03-.03-.03-.014-.044-.029-.044-.014-.03-.015-.059-.03-.044-.029-.088-.03-.044c-.205-.571-.308-1.294-.308-2.147 0-.876.103-1.591.308-2.132.197-.522.47-.778.841-.778zm10.987-1.181v1.37h1.265v6.892h1.523v-6.892h1.282v-1.37h-4.07zm-3.334 2.875h-.83c-.34 0-.6-.076-.758-.229-.118-.106-.171-.253-.171-.441V9.503H18.09v2.359c0 .54.217 1.005.64 1.37.418.359.936.541 1.53.541h1.111v3.993h1.524V9.503H21.37v2.876zm9.387-2.87l-.28 8.263h1.515l.147-4.044h1.897l.44 4.044h1.53l-.706-6.043v-.22l-.015-.074v-.073l-.014-.059v-.073l-.015-.06-.015-.073-.058-.235-.03-.059-.029-.117-.03-.06-.029-.043-.03-.06-.014-.043-.03-.06-.03-.043-.044-.045-.03-.058-.029-.03-.044-.059-.118-.118-.044-.03-.03-.044-.059-.044c-.382-.3-.9-.441-1.558-.441h-2.248zm1.456 1.367h.544c.394 0 .659.126.823.367.136.2.227.582.28 1.118H32.17v-.235l.014-.044v-.589l.015-.058v-.427l.015-.03v-.102zM42.385.006h39.35v39.35h-39.35V.006zm2.117 37.47H79.13V2.844H44.502v34.634zm9.804-24.755l.052.123.065.117.065.124.076.13.041.058.047.064.042.065.047.065.053.065.052.065.053.064.059.065.064.07.065.065.065.071.07.07.077.071.077.07.082.071.088.077.088.07.189.153.1.082.111.077.106.082.118.076.117.082c.288.2.618.618.371 1.2-.247.588-.706 1.412-.43 1.735.277.324 1.253.488 2.053.17 0 0 .171.506.465.83 0 0-.141.276-.6.135 0 0 .171.417-.065.864 0 0-.535-.094-.77-.588 0 0-.212.388-.641.524 0 0-.353-.183-.276-.888 0 0-.26.63-1.059.735 0 0-.459-.582.141-1.364 0 0-.435.382-1.211.2 0 0-.13-.4.582-.953 0 0-.8-.035-1.105-.706 0 0 .335-.417 1.164-.324 0 0-.77-.17-.941-1.088 0 0 .553-.353 1.435.212 0 0-.153-.294-.523-.588-.371-.281-.818-1.099-.66-2.298zm3.21 9.262c.16 1.123.377 1.283.377 1.283.088-.482-.053-.958-.053-.958.112.076.23.123.324.153.241 1.176-.13 1.658-.13 1.658-.6-.724-.647-1.476-.788-2.594l.024.06.018.029.011.023.018.03.012.029.017.03.018.029.018.029.017.023.036.059.017.03.024.03.017.028.024.03zm-1.046-.117c-.17 1.193.111 1.411.112 1.412.283-.558.189-1.346.189-1.346.07-.083.217-.23.3-.37-.141 2.487-.53 2.775-.53 2.775-.576-.535-.405-2.24-.352-2.888l.005.012.012.012.006.012.006.017.018.03.017.023.017.03.024.029.018.029.017.029.024.03.017.03.018.023.012.017.006.012.012.012.006.011.012.012.005.012.012.006.011.023.006.006zm-1.36 1.304l.042-.053.04-.064.042-.07.041-.077.036-.077.035-.082.03-.088.035-.088.03-.095.029-.094.023-.094.024-.1.047-.194.017-.094.024-.094.018-.094.011-.088.018-.088.012-.088.012-.083.011-.076.012-.07.006-.066.006-.064.006-.053.006-.024v-.023l.005-.024v-.035l.007-.012v-.046a2.28 2.28 0 0 0 .282-.218c0 .064 0 .13.005.194-.07 1.035-.152 2.106-.476 2.64-.317.524-.9.795-.9.795-.546-.977.112-2.282.665-3.194.07-.023.14-.053.211-.088-.2.7-.565 1.528-.412 2.17zm-1.358-2.993v.082l.006.017v.036l.006.005v.03l.005.011v.018l.006.006v.017l.007.006v.018l.005.006c.006.012.012.04.024.07-.459.442-.8.877-1.476 1.817-.682.947-1.759.982-1.759.982.106-.764.312-1.37.888-2.017.57-.653 1.312-1.247 1.853-1.64a.996.996 0 0 0 .552.076c.012 0 .036-.006.054-.006a.821.821 0 0 0-.141.277c-.412.235-1.6.84-2.082 1.811 0 .001.752-.234 2.052-1.622zm-.853-.947c-.53.241-.982.382-1.588.813-.494.358-.765.84-.765.84 1.259-.452 2.447-1.505 2.447-1.505a.564.564 0 0 0 .1.111c-.435.324-1.459 1.341-2.335 2.064-.882.73-1.947.636-1.947.636.4-1.224 1.141-1.824 1.647-2.088.512-.265 2.088-.859 2.535-1.03a.472.472 0 0 0-.047.071l-.047.088zm-.9-.723c-.43.111-.994.305-1.511.523-.47.2-.923.518-.923.518.917-.024 1.834-.388 2.522-.694a1.2 1.2 0 0 0 .547.164c-.329.088-.87.26-2.599 1.07-1.723.812-2.64.53-2.64.53.623-1.188 1.67-1.617 2.252-1.794.582-.177 1.882-.33 2.405-.441l-.006.012-.005.006v.006l-.006.006-.007.018-.005.017-.006.012-.012.035-.006.012zm.042-.86l.029.018.058.024.036.018.029.005.058.024.03.006.03.012.035.006.03.006.035.006.017.006h.017l.018.006h.036l.023.006h.017l.018.007c-.117.076-.23.176-.335.305-.612.177-1.647.365-3.358.489-1.712.13-2.623-.188-2.623-.188.594-.365 1.547-.736 2.188-.86.647-.123 2.335-.105 3.07-.21.011.01.106.082.253.17-.63.059-1.953.118-2.641.459 0-.002 1.265.168 2.93-.314zm-.13-.981c-1.935-.553-3.31-.259-3.311-.26.564.188 2.146.43 3.093.424a1.87 1.87 0 0 0-.212.258c-.806-.005-1.917.183-3.281-.111-1.37-.3-2.564-1.141-2.564-1.141.487-.13 1.44-.206 2.752-.118 1.787.118 2.975.541 3.84.8l-.024.006-.023.012-.024.006-.017.012-.024.011-.023.006-.018.012-.017.006-.024.012-.017.012-.018.006-.018.012-.017.005-.018.012-.018.006-.017.012zm0-1.018v.013l.006.005v.012l.006.012v.017l.005.018.006.018.012.023.006.018.012.03.023.047.012.03.018.03.035.059.023.029.018.035.023.03.03.03.029.035.03.03.029.034.035.03.035.03.041.029.042.035.047.024.04.03.053.029.053.023c-1.217-.53-3.617-.835-4.899-1.376-1.74-.718-2.058-1.623-2.058-1.623 1.505-.042 2.723.33 3.658.617 1.105.335 2.776.959 3.358 1.224a1.207 1.207 0 0 0-.659.206c-.817-.312-1.2-.447-1.946-.659-.583-.165-1.018-.194-1.383-.23 0 0 .518.342 1.365.612.842.268 1.207.315 1.895.444zm-.094-1.329l.006.006.011.024.006.006.006.012.012.023.011.012.012.024.012.017.005.012.018.03.024.023.017.029.018.024.005.017.012.012.006.012.012.012.006.011.012.012.012.024.005.006.006.012.006.006.006.012c-1.923-.324-4.04-1.777-4.693-2.682-.652-.9-.465-2.247-.465-2.247.636.13 2.012 1.318 2.365 1.676.358.353 1.44 1.406 2.187 1.994l.23.67a75.84 75.84 0 0 0-1.87-1.44c-.365-.276-.912-.659-1.447-.847 0 0 .494.647.9.964a9.44 9.44 0 0 0 1.323.9c.348.187.524.3 1.224.634zm5.422 5.387l.024-.023.005-.006.024-.024.012-.006.006-.011.011-.006.007-.012.011-.012.006-.006.047-.048c.089.118.383.489.53.859.111.312.23.741.288.982.059.253.23.758.341.935 0 0-.47.065-.817-.347-.342-.394-.453-.794-.512-1.205a4.626 4.626 0 0 1 .017-1.07zm-.74.06l.01.011.007.012.011.006.012.024.011.005.006.006.006.012.011.005.006.006.006.006.006.012.012.006.005.006h.006l.006.006.006.005.006.006.005.006h.006v.006h.007l.005.006h.006v.006h.006v.005h.006v.006l.07.03.065-.018c.059-.023.112-.047.16-.064.07.182.093.276.117.441.017.212.064.547-.018.823-.1.336-.3.536-.411.67 0 0-.306-.34-.394-.616a1.576 1.576 0 0 1-.012-.977c.066-.188.166-.359.248-.458zm-1.053.029l.029-.006h.029l.023-.007.03-.005.052-.012.054-.012.053-.017.052-.012.047-.018.047-.017.041-.024.042-.017.047-.024.035-.018.041-.023.106-.07c.041.105.1.258.059.464a1.175 1.175 0 0 1-.406.618c-.318.253-.736.487-1.206.411.001 0-.105-.347.825-1.211zm-.353-.583l.006.03v.03l.006.023.006.03.005.023.006.024.007.03.005.023.012.023.006.018.006.024.011.023.007.018.011.018.006.018.006.017.012.018.005.018.007.011.011.012.006.018.006.011.006.006.012.024.006.006.006.006.011.012v.006h.006v.006c-.111.13-.506.806-1.329.694 0 0-.223-.465.324-.83.37-.254.552-.301.805-.39zm.07-.582a.951.951 0 0 0-.057.23c-.294.37-.705.622-1.252.687-.547.07-.759-.317-.759-.317.17-.312.677-.37 1.094-.718l.03.094.094.018.035.011.03.007.034.006.03.006.03.006.028.006h.03l.035.006h.029l.03.006h.052l.059.006h.053l.053-.006h.052l.188-.024.082-.024zm-.947-.482c-.252.359-.688.576-1.182.676-.594.123-.917-.159-.917-.159.259-.764.776-.882 1.282-.976a2.722 2.722 0 0 1 1.112-.012l-.03.03-.012.017-.018.017-.011.018-.012.018-.012.012-.012.017-.011.018-.006.018-.012.011-.012.018-.017.035-.018.03-.012.03-.017.03-.012.028-.018.024-.011.03-.012.023-.018.023-.012.024zM54 17.314c-.23.17-.753.335-1.323.322-.57-.018-1.065-.435-1.065-.435.112-.165.23-.359.677-.53.447-.164.905-.07 1.34.107l.042.094.017.035.018.035.017.03.018.035.018.03.024.03.017.029.023.03.018.023.023.024.024.03.018.023.047.047.023.017.024.024zm.135-.9c-.282.094-.535.141-1.224-.043-.73-.194-.835-.753-.835-.753.324-.218.735-.212.947-.13.206.077.688.077.888.03.095.394.288.653.477.823l-.018.006h-.018l-.018.007-.017.006h-.012l-.035.012h-.017l-.018.006-.012.006-.018.006-.012.006h-.017l-.012.006-.017.006-.012.006zm-.265-1.1c-.711.106-1-.035-1.417-.412-.394-.365-.741-1.264-.741-1.264.37.047 1.088.376 1.517.617.394.218.96.689 1.194.87-.282.019-.447.119-.458.124l-.095.065zm.735-.417c-.87-.412-1.57-1.047-1.91-1.649-.394-.705-.188-1.581-.188-1.581.788.212 1.194.882 1.306 1.076.111.2.3.941.388 1.247l.017.065.018.07.023.065.024.065.018.065.023.059.03.058.046.118.03.053.029.053.023.053.03.047.035.047.03.047.028.042zm4.382 4.105l.024.017.035.036.017.011.018.018.018.012.017.018.018.012.018.011.023.018.036.019.011.011.024.013.018.005.011.012.012.006.018.006.017.012.012.006s.253.482-.053 1.059a14.419 14.419 0 0 0-.682 1.505s-.165-.023-.347-.934c-.123-.612-.276-.771-.44-.977.176.088.317.112.335.112l.117.03.06-.118c.105-.206.134-.406.134-.57 0-.06 0-.112-.006-.16a.588.588 0 0 0 .494-.206c.006-.011.012-.011.012-.017l.029.033zm-6.704-6.985v.299l.017.217c-.47-.594-1.029-1.311-1.558-1.976-.365-.452-.67-.723-1.018-.947.294.84.812 1.512 1.176 1.841.365.335.894.9 1.412 1.247l.047.165c.04.159.1.317.182.47.13.212.282.418.47.623a6.58 6.58 0 0 0-.494-.229l-.164-.07c-1.418-.747-2.83-2.311-3.393-3.393-.57-1.089-.336-2.347-.189-3.023.647.547 1.583 1.623 1.983 2.205.5.718 1.135 1.741 1.529 2.57zm19.919 4.65l-.018-.012-.012-.006-.017-.012-.018-.005-.017-.012-.024-.006-.018-.012-.017-.012-.018-.006-.024-.012-.017-.006-.047-.023-.023-.006-.024-.012-.024-.006c.87-.259 2.059-.682 3.853-.8 1.311-.088 2.252-.011 2.746.118 0 0-1.2.841-2.564 1.141-1.365.294-2.476.106-3.288.111a1.446 1.446 0 0 0-.205-.258c.946.005 2.522-.236 3.093-.424 0 .001-1.377-.293-3.317.26zm.006-1.018c.681-.13 1.046-.176 1.894-.444.847-.27 1.359-.611 1.359-.611-.365.035-.795.064-1.383.23-.74.21-1.123.346-1.94.658-.2-.141-.441-.2-.665-.206.588-.265 2.258-.889 3.358-1.224.935-.288 2.158-.659 3.664-.617 0 0-.318.905-2.053 1.623-1.294.541-3.688.847-4.905 1.376l.053-.023.047-.03.047-.03.041-.023.047-.035.035-.03.036-.029.035-.03.035-.035.03-.03.029-.035.047-.059.024-.035.023-.03.018-.03.017-.029.012-.03.018-.029.024-.047.011-.03.006-.018.006-.023.012-.018v-.018l.006-.017.006-.012v-.012l.006-.005v-.013zm.094-1.329c.694-.335.876-.447 1.217-.633.389-.212.865-.53 1.33-.9.4-.318.9-.965.9-.965-.548.189-1.083.571-1.453.847-.47.359-1.23.93-1.864 1.44l.23-.67c.746-.588 1.828-1.64 2.18-1.993.36-.359 1.736-1.547 2.37-1.676 0 0 .189 1.347-.47 2.246-.653.906-2.77 2.358-4.693 2.682l.006-.012.012-.006.006-.012.005-.006.006-.012.006-.011.012-.012.006-.012.012-.012.005-.011.012-.012.006-.018.018-.024.017-.029.024-.023.017-.03.018-.03.006-.011.012-.012.005-.012.006-.012.006-.011.012-.012.006-.006.012-.024v-.006zm-.465-2.282h-.001v-.022c.394-.83 1.03-1.853 1.53-2.57.399-.583 1.328-1.659 1.975-2.206.153.677.394 1.935-.188 3.023-.564 1.082-1.976 2.647-3.393 3.393l-.16.07a5.68 5.68 0 0 0-.493.23c.182-.206.341-.412.465-.623a2.45 2.45 0 0 0 .188-.47l.047-.166c.517-.347 1.047-.911 1.411-1.246.365-.33.882-1 1.17-1.841-.34.224-.646.494-1.016.947-.53.665-1.088 1.382-1.553 1.976l.018-.218v-.277zM54.1 20.613l.019-.006c.182.006.335-.018.477-.07a1.44 1.44 0 0 0-.095.194c-1.523 1.423-1.394 2.129-1.394 2.129.518-.3 1.094-1.17 1.388-1.7l.106.018c.118.017.247.017.377 0-.2.188-.489.723-.96 1.558-.475.841-1.616 1.2-1.616 1.2l-.012-.136.006-.129.005-.135.012-.13.047-.258.035-.124.036-.123.047-.13.047-.117.047-.124.117-.235.065-.112.065-.112.064-.112.141-.211.077-.106.07-.1.076-.094.07-.094.077-.088.076-.088.141-.165.071-.076.07-.071.065-.07.183-.183zm15.714-7.892c.153 1.2-.294 2.017-.659 2.298-.37.294-.523.588-.523.588.876-.565 1.429-.212 1.429-.212-.17.918-.941 1.088-.941 1.088.829-.093 1.17.324 1.17.324-.306.67-1.106.706-1.106.706.706.553.583.953.583.953-.783.182-1.212-.2-1.212-.2.6.782.141 1.364.141 1.364-.805-.106-1.064-.735-1.064-.735.082.705-.276.888-.276.888a1.213 1.213 0 0 1-.641-.524c-.23.494-.765.588-.765.588-.235-.447-.064-.864-.064-.864-.459.14-.6-.135-.6-.135.288-.324.459-.83.459-.83.8.318 1.782.154 2.058-.17.277-.323-.182-1.147-.43-1.735-.246-.582.078-1 .372-1.2l.117-.082.118-.076.111-.082.106-.077.1-.082.188-.153.088-.07.088-.077.082-.07.077-.07.076-.071.071-.071.065-.07.064-.065.06-.071.058-.065.059-.064.053-.065.047-.065.094-.13.042-.064.04-.059.077-.13.064-.123.065-.117.059-.123zm-3.211 9.262l.023-.029.018-.029.018-.03.023-.03.018-.028.017-.03.018-.023.018-.03.017-.029.012-.03.018-.029.012-.029.017-.023.012-.03.023-.059c-.135 1.118-.182 1.87-.788 2.594 0 0-.364-.482-.13-1.658a1.09 1.09 0 0 0 .324-.153s-.135.476-.053.958c0 0 .218-.16.383-1.283zm1.041-.117l.012-.006.006-.012.005-.011.007-.006.011-.012.006-.012.012-.011.006-.012.012-.012.005-.017.024-.024.017-.03.018-.029.024-.03.017-.028.018-.03.017-.03.018-.023.018-.029.011-.017.006-.012.012-.024c.053.647.224 2.353-.347 2.888 0 0-.394-.288-.53-2.776.083.142.23.288.295.37 0 0-.094.789.188 1.347 0 0 .288-.219.112-1.412zm1.364 1.305c.147-.64-.217-1.47-.41-2.169.07.035.135.065.205.088.56.912 1.217 2.217.67 3.194 0 0-.582-.27-.9-.795-.323-.534-.405-1.605-.482-2.64.012-.065.012-.13.012-.194.024.029.053.047.082.07.065.054.13.106.2.148v.046l.006.012v.035l.006.024v.023l.006.024.006.053.006.064.006.065.012.071.011.076.012.083.012.088.017.088.012.088.017.094.018.094.024.094.04.195.03.1.024.093.03.094.029.095.03.088.035.088.029.082.04.077.036.076.041.07.041.065.047.053zm1.359-2.993c1.3 1.388 2.052 1.623 2.052 1.622-.482-.97-1.676-1.576-2.081-1.811a.821.821 0 0 0-.142-.277c.018 0 .03.006.053.006.23.03.412-.012.553-.077.535.394 1.276.988 1.847 1.641.576.647.788 1.253.893 2.017 0 0-1.082-.035-1.758-.982-.676-.94-1.017-1.375-1.476-1.817.012-.03.017-.058.023-.07l.006-.006V20.4l.006-.006v-.017l.006-.006v-.023l.006-.007v-.023l.006-.005v-.036l.006-.017v-.082zm.853-.947l-.047-.088a.472.472 0 0 0-.047-.07c.44.17 2.017.764 2.528 1.029.512.264 1.247.864 1.647 2.088 0 0-1.065.094-1.94-.636-.877-.723-1.9-1.74-2.341-2.064a.462.462 0 0 0 .106-.111s1.188 1.053 2.446 1.505c0 0-.27-.482-.77-.84-.6-.43-1.054-.572-1.582-.813zm.9-.723l-.007-.012-.006-.018-.006-.017-.011-.012-.006-.017-.006-.018-.006-.012-.006-.017c.518.111 1.823.264 2.405.441.577.176 1.63.606 2.253 1.794 0 0-.918.282-2.647-.53-1.723-.81-2.264-.982-2.593-1.07.264-.018.453-.106.547-.164.688.305 1.605.67 2.523.694 0 0-.453-.318-.93-.518a11.445 11.445 0 0 0-1.505-.524zm-.042-.86c1.664.483 2.923.313 2.923.315-.682-.341-2.01-.4-2.634-.459.153-.088.235-.16.247-.17.74.105 2.429.087 3.07.21.64.124 1.593.495 2.187.86 0 0-.911.317-2.623.188-1.71-.124-2.746-.312-3.352-.489a1.492 1.492 0 0 0-.34-.305l.023-.007h.018l.017-.006h.041l.018-.006.07-.012.03-.006.035-.006.03-.012.029-.006.029-.012.03-.012.029-.005.03-.018.034-.012.03-.012.03-.017zm-5.205 2.06c.047.3.06.746.018 1.069-.047.411-.171.811-.512 1.205-.347.412-.812.347-.812.347.106-.177.277-.682.341-.935a11.1 11.1 0 0 1 .283-.982c.147-.37.441-.741.535-.859l.006.012.011.006.007.012.011.006.006.012.012.006.006.012.059.059.011.006.018.023zm.741.059c.089.1.189.27.247.458a1.54 1.54 0 0 1-.012.977c-.082.276-.394.617-.394.617-.111-.135-.306-.335-.405-.67-.083-.277-.042-.612-.018-.824a1.68 1.68 0 0 1 .112-.441c.053.017.106.04.159.064l.07.018.06-.03v-.006h.011v-.005h.006l.006-.006.006-.006h.006l.005-.006h.006l.024-.023h.005l.036-.036.006-.005.017-.018.006-.005.012-.012.006-.012.018-.018.005-.011zm1.059.029c.93.864.818 1.211.818 1.211-.465.076-.888-.158-1.2-.411a1.144 1.144 0 0 1-.405-.618c-.047-.206.018-.359.059-.465l.029.024.035.023.041.024.036.023.041.018.041.024.041.017.047.024.047.017.047.018.047.012.053.017.053.012.053.012.029.005.03.007h.029l.029.006zm.353-.583c.253.089.43.136.8.39.547.365.329.83.329.83-.823.112-1.223-.564-1.33-.694v-.006h.006v-.006l.007-.006.005-.006v-.006l.006-.006.006-.012.006-.012.012-.006.006-.011.006-.018.005-.012.012-.011.006-.018.006-.018.012-.017.006-.018.011-.018.007-.018.005-.023.012-.024.006-.018.006-.023.006-.024.012-.03.005-.023.006-.023v-.03l.006-.023.006-.03.006-.03zm-.076-.582l.04.012.048.012.188.024h.052l.053.006h.053l.059-.006h.053l.059-.006.03-.006h.035l.058-.012.03-.006.035-.006.029-.007.03-.011.094-.018.035-.094c.417.347.923.406 1.094.718 0 0-.212.388-.759.317a1.819 1.819 0 0 1-1.252-.688 1.721 1.721 0 0 0-.064-.229zm.952-.482l-.006-.012-.005-.012-.018-.023-.012-.024-.012-.03-.017-.023-.012-.029-.017-.03-.018-.03-.012-.029-.017-.035-.012-.018-.012-.011-.006-.018-.012-.018-.012-.017-.011-.012-.012-.018-.012-.018-.018-.017-.012-.017-.017-.018-.012-.012a2.72 2.72 0 0 1 1.112.012c.505.094 1.023.212 1.282.976 0 0-.33.282-.918.16-.494-.1-.935-.318-1.182-.677zm.212-.835l.024-.024.023-.017.07-.07.024-.03.018-.024.024-.023.017-.03.024-.03.017-.03.018-.029.018-.035.017-.03.017-.035.018-.035.041-.094c.441-.177.894-.271 1.341-.106.447.17.565.364.676.529 0 0-.494.417-1.058.435-.57.013-1.1-.152-1.329-.322zm-.13-.9l-.029-.012-.017-.006h-.012l-.018-.006-.012-.006-.017-.006-.018-.006h-.018l-.011-.006-.018-.006h-.018l-.017-.006-.018-.007h-.017l-.018-.006c.2-.17.382-.429.476-.823.212.047.683.047.894-.03.212-.082.624-.088.947.13 0 0-.106.559-.84.753-.683.184-.942.137-1.219.043zm.26-1.1l-.095-.065c-.011-.005-.176-.105-.453-.123.235-.182.794-.653 1.188-.87.435-.242 1.153-.571 1.518-.618 0 0-.342.9-.741 1.264-.412.377-.7.518-1.418.412zm-.736-.417l.035-.042.03-.047.03-.047.029-.047.029-.053.03-.053.029-.053.047-.118.029-.058.023-.06.024-.064.017-.065.024-.065.018-.07.023-.065c.077-.306.27-1.047.382-1.247.112-.194.518-.864 1.306-1.076 0 0 .206.876-.188 1.581-.346.602-1.047 1.237-1.917 1.649zm-4.375 4.105l.023-.033c.012.006.012.006.018.017a.58.58 0 0 0 .494.206 1.182 1.182 0 0 0 .13.73l.058.117.118-.03c.012 0 .153-.023.335-.11-.159.205-.318.364-.441.976-.183.91-.347.934-.347.934a14.85 14.85 0 0 0-.688-1.505c-.3-.577-.053-1.059-.053-1.059l.018-.006.017-.012.012-.006.018-.006.011-.012.012-.005.012-.006.017-.007.012-.011.024-.013.006-.006.023-.018.024-.011.017-.012.018-.018.017-.012.018-.018.018-.011.017-.018.018-.018.024-.017zm4.887 1.61l.118.119.064.064.064.071.071.07.064.077.077.082.07.083.077.088.071.088.077.094.076.094.07.1.071.106.077.106.064.105.07.112.065.112.065.112.059.118.052.117.053.124.047.118.041.129.041.123.03.124.03.13.023.129.011.13.006.134v.13l-.006.135s-1.147-.359-1.617-1.2c-.47-.835-.759-1.37-.958-1.558.123.017.253.017.376 0l.106-.018c.294.53.865 1.4 1.382 1.7 0 0 .136-.706-1.387-2.129a1.063 1.063 0 0 0-.1-.194c.14.052.3.076.482.07l.018.006zm-8.857-11.36v-.013l.006-.011.006-.006.005-.012.012-.006.012-.012.012-.006.017-.012.018-.006.017-.012.047-.012.024-.012.03-.006.029-.006.029-.006.03-.006.029-.006.106-.018.04-.006.036-.006h.04l.042-.006.041-.006h.088l.041-.006h.136c.494 0 .893.088.893.194 0 .1-.4.189-.893.189-.493.002-.893-.086-.893-.186zm-3.04 1.028v-.006l.005-.006v-.006l.006-.006.006-.006.011-.006h.006l.035-.018h.012l.018-.006.017-.006.012-.006h.024l.018-.006h.017l.024-.006.023-.006h.017l.024-.006h.053l.023-.006h.053l.03-.007h.146c.312 0 .577.047.577.106 0 .06-.265.1-.577.1-.322.003-.58-.038-.58-.097zm4.11-.617v.041l-.005.006v.012l-.006.006v.012l-.006.006v.006l-.006.006-.006.012-.006.006-.006.006-.006.006-.005.007-.006.006-.006.006-.006.006-.006.006-.006.006h-.006l-.011.005-.006.006h-.006l-.012.007h-.018l-.005.005h-.03a.178.178 0 0 1-.176-.182.18.18 0 0 1 .176-.17.17.17 0 0 1 .176.167zm-1.135-.6l-.03-.07-.023-.065-.029-.059-.023-.064-.024-.06-.023-.064-.03-.058-.017-.054-.024-.058-.023-.054-.018-.053-.023-.052-.018-.054-.035-.094-.018-.047-.017-.047-.012-.04-.012-.042-.018-.042-.023-.07-.006-.035-.012-.036-.006-.03-.005-.028-.007-.03-.01-.047v-.06c.005-.106.129-.183.246-.218.123-.035.224-.047.306.012.153.123.3 1.076.347 1.476a1.37 1.37 0 0 0-.413.142zm.547-.153c-.053-.342-.1-.694-.17-1.054-.071-.358-.2-.706-.2-.706.164.048.264.224.34.477.077.253.206.882.26 1.264l-.06.006h-.087l-.03.006h-.041l-.012.007zm-.453 1.24l-.047.024-.04.018-.042.024-.047.018-.042.017-.04.018-.048.012-.04.017-.042.012-.04.006-.042.012-.041.011-.036.007-.04.005-.071.012h-.035l-.03.007h-.029l-.03.006h-.187c.1-.183.194-.353.476-.553.288-.206.753-.259.935-.235-.042.14-.23.433-.442.563zm-.101.24s-.068.215-.338.34c0 0 .147.01.294.133 0 0-.091.17-.338.264 0 0 .438.442.897.412 0 0-.21.276-.691.177-.47-.106-.624-.371-.706-.47 0 0 .065.252.03.352 0 0-.194-.015-.353-.22 0 0 .108.205.132.381 0 0-.138.003-.368-.132 0 0 .053.127.06.28 0 0-.545-.18-.81-.427 0 0-.011.165 0 .265 0 0-.846-.076-.911-1.323h.014l.03.014h.014l.015.015h.044l.03.014.03.015h.028l.029.015.044.014h.03l.044.015h.044l.044.014h.044l.089.03h.044l.044.014h.059l.044.015h.368c.57-.03 1.629-.047 1.97-.206zm-1.617.471c-.447.059-.97.03-.971.03.03.164.088.305.206.382.03-.365.765-.368.765-.368v-.044zm-1.616-.357l.006.053.006.047.005.053.006.047.006.053.059.235.012.04.017.042.012.042.018.041.018.035.017.036s-.335-.247-.417-.465c-.083-.218-.106-.36.235-.26zm-.987.24c.146-.016.303.006.398.03.123.377.535.5.735.589l.014.014.03.015h.015l.03.014.03.03.028.014.03.03.029.014.014.015h.015l.015.03h.014l.015.029h.015l.073.073v.014h.015l.029.03v.014h.015v.015c-.342.076-.486.162-.486.162-.652-.454-1.19.014-1.19.014-.359-.205-.421-.688-.25-.94a.49.49 0 0 1 .367-.206zm.31.5c-.077 0-.133.07-.133.145 0 .077.056.147.132.147h.015l.015-.014h.03v-.015h.03v-.014h.014v-.015h.014v-.03h.015v-.028h.015v-.03a.154.154 0 0 0-.148-.147zm1.324.553l.005.007.007.005v.006h.005l.006.012.006.006.012.012.006.018.023.023.012.018.012.018.018.011.012.018.017.018.012.023.018.018.035.035.029.035.035.042.018.017.018.018.017.018.018.017.017.012.018.018.018.012.017.017s-.882-.012-1.1.753c0 0-.3-.47-.082-.77.235-.325.459-.372.77-.437zm.964.183l.006.006h.012l.006.006h.018l.023.012h.012l.017.006.012.006h.018l.012.006.018.006.029.006.03.011.035.006.012.006.017.006.012.006h.017l.024.013h.011l.012.006h.012l.012.006s0-.165-.006-.241c.088.017.188.047.282.059 0 0 .283.623.506.876 0 0 .012.147-.111.353 0 0-.165-.365-.447-.67-.16-.168-.266-.256-.6-.491zm-.747-.13h.006l.012.006h.017l.012.006.018.006.017.006.024.006.018.006.023.012.024.005.023.006.03.012.024.006.029.012.023.012.03.012.176.07.053.024.029.018.03.011.023.012.03.017.046.024.024.017.017.012c.277.2.465.424.435.817 0 0-.218-.311-.465-.452a2.626 2.626 0 0 1-.728-.683zm.006-2.858h.018l.006.006h.03l.011.006h.018l.012.006h.012l.005.006h.012l.024.013.005.005.012.006.006.007.012.006.005.006.012.006.006.006.006.006.006.012.006.006.006.012.006.005v.013l.006.005v.019l.005.006v.018c0 .135-.211.459-.27.6-.06-.141-.265-.464-.265-.6 0-.135.159-.176.241-.176h.047v-.005zm-.182 1.053c-.212.012-.194.012-.276.022-.047-.064-.411-.611-.447-.723-.036-.111.053-.194.135-.2a.524.524 0 0 1 .359.106l.006.012.011.012.024.036.006.017.023.047.006.023.012.024.006.024.011.03.006.023.006.03.012.029.012.058.011.065.018.06.012.058.006.029.005.03v.023l.007.03.005.023.006.024.006.023v.024l.006.017.006.024zm.317 0l.006-.024.006-.017V9.98l.006-.023.006-.024.005-.023.007-.03.005-.023.006-.03.006-.03.024-.117.011-.065.018-.058.006-.03.006-.03.012-.023.005-.03.012-.023.006-.024.011-.023.007-.024.011-.023.006-.017.024-.036.011-.012.006-.012a.516.516 0 0 1 .359-.106.156.156 0 0 1 .135.2c-.035.112-.4.659-.447.723-.081-.01-.07-.01-.276-.022zm.236-1.711v.2h-.283v.364h-.229v-.364h-.282v-.2h.282v-.312h.23v.312h.282zM55.67 10.35c-.159-.265-.606.011-.606.011.276-.452.417-.505.624-.582a1.51 1.51 0 0 1-.007.394v.012l-.005.012v.041l-.006.024v.088zm.388.723a1.301 1.301 0 0 1-.211-.883c.023-.17.04-.44-.06-.652-.087-.177-.27-.489-.246-.806.153-.094.417-.183.417-.183-.023.27.053.518.183.783.135.264.211.71.094 1.017l-.012.023-.006.024-.018.052-.017.054-.018.053-.012.053-.017.053-.012.053-.012.047-.006.023-.006.03-.005.024v.023l-.006.024-.006.018v.023l-.006.017-.006.024v.017l-.006.018v.041l-.006.018v.012zm.03-2.405V8.65h-.007v-.096l.006-.006v-.03l.006-.006V8.5l.006-.006s.417-.405.764-.477a.493.493 0 0 1 .43.106s-.13-.011-.313.141c-.188.148-.417.336-.6.383-.169.044-.21.032-.293.02zm1.234-.506l.03.03.03.03.029.028.023.03.03.03.023.03.006.011.012.017.011.012.012.018.006.018.012.011.006.018.012.012.005.012.007.018.005.011.006.018.006.011.006.018.006.012v.018l.006.011v.042c-.006.147-.177.523-.27.664-.09.141-.219.33-.207.553.006.117.088.235.183.33 0 0-.512-.124-.57-.436-.06-.282.058-.482.14-.64.077-.148.318-.49.371-.63.059-.13.082-.236.064-.307zm2.988 3.552c.453.177.706.588.794.87.117.359-.112.87-.112.87.012-.134-.082-.535-.235-.775l-.035-.047-.03-.053-.03-.053-.034-.06-.03-.052-.03-.06-.028-.064-.03-.058-.03-.06-.028-.064-.03-.065-.024-.064-.023-.065-.024-.065-.023-.07-.018-.065zm.57.118h.048l.012.006h.064l.018.006h.035l.024.006h.017l.024.006h.018l.023.006.024.006.017.006.023.006h.018l.023.012.018.006.024.006.017.006.018.012.018.006.017.011.018.007c.212.14.411.44.488.806 0 0-.359-.06-.53-.236-.176-.173-.387-.437-.475-.684zm-1.81.635c.393.24.529.429.612.543.105.153.347.306.347.306-.047.076-.212.617-.165.882l-.03.006c-.064-.124-.288-.536-.364-.918-.053-.27-.165-.435-.288-.54-.147-.119-.447-.207-.447-.207l.005-.006h.024l.006-.006h.011l.012-.006h.012l.012-.006.07-.018h.024l.023-.007.024-.005.012-.006h.023l.012-.006h.017l.012-.006h.035zm1.552.817l.012.018.006.018.023.047.012.018.006.023.012.03.017.023.012.024.012.03.047.106.006.03.012.029.012.035.005.03.012.03.006.029.006.035.006.03.006.035.006.035v.1l-.006.035v.03l-.006.035-.006.035-.012.036c-.106.37-.341.529-.494.84 0 0-.118-.564-.094-1 .03-.442.188-.607.382-.766zm.676.012v.006l.006.006v.006l.006.006v.006l.005.006.007.006v.012l.005.011.012.018.012.023.012.03.017.03.012.029.018.035.017.03.018.035.012.04.017.036.018.035.023.042.036.082.03.077.017.04.018.036.017.035.012.042.012.035.011.03.012.035.012.03.005.03.012.023c.06.265 0 .435-.117.593-.118.16-.318.336-.506.665 0 0-.212-.282-.241-.429a2.041 2.041 0 0 1 .064-.653c.047-.147.23-.63.39-1.12zm.176 2.158c.095.212.118.447.09.584-.036.135-.212.335-.23.564-.023.354.247.783.247.783-.253-.13-.535-.43-.67-.618-.124-.188-.03-.452.023-.6l.006-.006v-.006l.006-.006.006-.012.006-.017.012-.018.011-.023.018-.024.018-.023.017-.024.018-.023.017-.03.018-.023.023-.03.018-.03.024-.029.04-.053.048-.058.023-.024.018-.03.023-.023.024-.03.018-.023.017-.023.017-.018.018-.024.018-.018.011-.017.018-.012.006-.012.006-.006.006-.006v-.005h.006l.005-.007zm-.8-.27l.006.006.006.012.006.006.006.012.012.011.006.012.006.012.005.012.006.018.012.011.006.018.006.012.006.018.005.012.018.035.059.176v.024l.006.018.006.017v.042l.005.017c.012.2-.017.365-.129.665-.135.37-.353.788-.453.976 0 0-.194-.276-.3-.517 0 0 .3-.412.423-.7.154-.343.213-.66.272-.925zm-.134-.165v.006l-.006.006v.036l-.006.023-.006.024-.006.035-.006.035-.012.042-.005.04-.012.048-.012.053-.017.053-.012.053-.018.059-.017.064-.024.059-.018.064-.023.07-.03.065-.023.07-.03.072-.029.07-.07.141-.042.07-.035.071-.047.077-.042.07-.047.065-.047.07-.052.07c-.382.483-.694.654-.9.654-.312 0-.623-.265-.73-.56-.105-.293-.07-.758.13-.917 0 0 .188.577.582.6.453.024 1.03-.481 1.612-1.458zm-.465-.4l.005.018v.018l.007.018v.017l.011.035.006.042v.04l.006.042.006.041v.136l-.006.047-.006.047v.047l-.012.047-.005.047-.012.047c-.047.188-.165.435-.382.576-.195.118-.642.148-.818-.282 0 0 .823.064 1.2-.983zm1.347 3.882l.012.023.011.03.018.03.011.029.018.03.018.03.023.029.018.03.041.058.041.059.047.059.041.059.041.058.024.024.017.03.018.029.018.03.017.023.018.03.012.023.011.03.024.046.012.047v.024l.006.018c-.012.6-.277.964-.335 1.164 0 0-.477-.382-.56-.817-.046-.225.001-.896.378-1.225zm-.536.423c-.211-.388-.67-.647-.576-1.076.088-.435.435-.888.435-.888.835.47.57 1.235.57 1.235l-.017.017-.053.054-.018.017-.017.024-.035.047-.018.024-.017.023-.012.024-.018.023-.03.053-.028.06-.03.052-.024.053-.023.047-.012.03-.023.046-.006.024-.012.017-.006.024-.012.018-.006.017-.006.018-.006.017zm-1.046-1.94c.112.229.311.558.311.559-.011.135-.005.365-.047.647-.04.282-.405.764-.405.764-.094-.258-.312-.605-.353-.94-.035-.23.018-.57.018-.57l.017-.007.012-.006.018-.011.012-.012.017-.006.012-.012.017-.012.012-.011.018-.012.012-.018.017-.012.018-.012.03-.035.028-.03.065-.065.03-.035.029-.029.03-.035.023-.036.029-.03.03-.034zm-.97 1.646l-.012-.017-.012-.018-.012-.024-.012-.017-.018-.03-.011-.024-.018-.03-.018-.028-.017-.036-.018-.03-.017-.035-.018-.041-.018-.035-.017-.042-.023-.035-.018-.041-.036-.082-.035-.088-.03-.089-.011-.04-.018-.042-.012-.047-.011-.042-.006-.04-.012-.047-.006-.042-.006-.04v-.042l-.006-.042s.417.224.765.06c0 0 .04.552-.024.735-.053.153-.123.242-.294.371zm.094.118l.011-.006.006-.006.006-.012.012-.006.006-.006.012-.006.006-.012.012-.006.011-.012.006-.006.065-.065.023-.018.018-.023.023-.018.047-.047.006-.012.012-.006.006-.012.006-.006.006-.012s.276.506.323.653c0 0-.135.03-.288-.076a1.924 1.924 0 0 1-.335-.28zm1.275-.3c.142.265.46.564.553.773.042.089.053.33-.04.57a8.797 8.797 0 0 1-.354.683 2.314 2.314 0 0 1-.517-.659c-.165-.317-.2-.54-.2-.54l.012-.012.005-.007.007-.006.005-.006.006-.006.006-.012.023-.023.012-.024.024-.023.017-.024.018-.03.047-.059.017-.029.024-.035.024-.03.047-.07.047-.065.023-.036.024-.03.018-.034.023-.03.017-.035.018-.03.018-.024.018-.029.023-.047.006-.012.006-.011.006-.006.006-.012v-.006l.006-.012v-.006l.005-.006zm.665 1.612l.006.023.012.018.011.023.012.018.018.023.011.024.018.018.012.023.017.024.018.03.036.047.03.052.035.047.07.106.03.052.011.03.018.024.012.029.023.047.012.03.006.023.006.03.011.023v.023c.036.2.007.365-.047.506-.058.135-.235.405-.352.612 0 0-.406-.382-.494-.653a.977.977 0 0 1 .058-.682c.094-.183.306-.377.4-.57zm-1.147-.054l.024.047.012.018.023.047.012.018.029.04.03.048.029.041.035.042.03.04.029.041.029.042.03.04.011.018.012.024.011.018.012.023.024.035.006.023.012.018.005.018.006.024c.065.23.088.382-.023.658-.106.241-.224.382-.265.53 0 0-.33-.424-.388-.6-.053-.183-.07-.47-.006-.653.071-.188.189-.43.271-.6zm1.618 1.624c.294.288.37.47.406.758.035.288-.065.5-.188.758-.112.224-.412.559-.412.559-.041-.282-.341-.576-.359-1.03v-.053l.006-.017.006-.041.006-.035.018-.041.011-.042.018-.047.018-.04.017-.042.024-.047.023-.041.024-.04.023-.048.024-.04.029-.042.023-.041.03-.041.023-.042.03-.035.047-.07.023-.03.024-.03.018-.029.017-.023.012-.012.006-.012.012-.012.005-.006.007-.012.017-.017.006-.006v-.006h.006v-.005zm-1.041-.071l.005.012.024.036.023.034.036.07.017.024.012.024.012.03.017.023.012.029.012.03.023.058.012.036.024.059.011.029.006.035.012.03.006.03.006.028.006.036.005.03v.11l-.005.03-.006.023c-.071.265-.353.636-.447.8 0 0-.224-.458-.27-.67-.047-.211-.006-.553.447-.976zm5.657-11.28c0 .059-.259.1-.576.097-.317 0-.576-.04-.576-.1 0-.059.259-.106.576-.106h.147l.024.007h.053l.029.006h.047l.024.006h.023l.017.006.024.006h.018l.023.006h.018l.017.006.012.006.018.006h.012l.035.018h.012l.005.006.006.006.006.006v.006l.006.006v.006zm-3.928-1.77v-.002h-.013c-.035-.259-.335-.811-.335-1.052a.341.341 0 0 1 .682 0v.047l-.006.029-.006.03-.01.059-.013.035-.011.03-.007.035-.011.035-.018.036-.012.035-.03.077-.028.07-.03.077-.03.076-.028.07-.047.142-.012.03-.012.029-.006.03-.012.059-.005.023zm.952.553a1.297 1.297 0 0 0-.417-.142c.059-.4.2-1.353.353-1.476.082-.059.182-.047.312-.012.112.035.241.112.241.218v.059l-.006.023v.024l-.006.03-.006.029-.011.03-.006.035-.035.105-.024.083-.018.041-.012.047-.017.047-.018.047-.018.047-.023.054-.018.052-.023.053-.018.054-.024.058-.023.054-.024.058-.023.065-.024.059-.03.064-.023.059-.03.064-.029.071zm-.54-.153l-.019-.007h-.04l-.03-.006h-.088l-.03-.006h-.023c.047-.382.177-1.011.253-1.264.083-.253.177-.429.341-.477 0 0-.123.348-.193.706-.072.36-.125.712-.172 1.054zm.005.676h.036l.023-.006h.07l.024.006h.059l.03.006h.028l.03.006.03.006h.035l.029.007.035.005.03.012.07.012.03.012.035.012.035.006.03.012.07.023.03.018.029.011.035.018.03.018.03.011.023.024.029.017c.288.2.382.37.482.553 0 0-.518.041-.97-.223a1.207 1.207 0 0 1-.447-.566zm.552.805c.335.158 1.39.176 1.954.203.577.03 1.132-.176 1.132-.176-.064 1.247-.911 1.323-.911 1.323v-.058l.014-.014v-.19c-.27.246-.823.426-.823.426a.903.903 0 0 1 .059-.28c-.235.135-.368.132-.368.132.024-.176.148-.382.148-.382a.567.567 0 0 1-.368.221c-.029-.1.03-.353.03-.353-.088.1-.23.365-.706.47-.476.1-.691-.176-.691-.176.464.03.897-.411.897-.411a.645.645 0 0 1-.323-.265.501.501 0 0 1 .279-.132.588.588 0 0 1-.323-.338zm1.602.47v.043s.736.003.765.367l.03-.029h.014v-.014l.015-.015h.016V11.2l.014-.015h.015v-.015l.029-.029v-.014l.015-.015v-.015h.014v-.029l.015-.014v-.03l.014-.014v-.03l.015-.03v-.029h.014v-.03s-.538.03-.985-.029zm1.628-.357c.335-.1.317.041.235.26-.082.217-.417.464-.417.464l.017-.036.018-.035.012-.041.017-.042.012-.041.017-.041.047-.188.006-.047.012-.053.006-.047.006-.053.006-.047.006-.053zm.71.24h.325l.015.015h.03l.029.015h.029l.014.014.059.03.014.014.03.015.014.014.03.015.014.014.015.03.029.03c.176.252.103.734-.25.94 0 0-.538-.467-1.19-.014 0 0-.16-.086-.5-.162 0 0 .208-.247.426-.353.206-.088.626-.212.75-.588h.029l.03-.015h.028l.03-.014zm-.044.5c-.076 0-.132.07-.134.145 0 .077.056.147.132.147.077 0 .148-.07.148-.147l-.015-.015v-.058h-.014v-.014h-.015v-.015l-.015-.015h-.014v-.014h-.03v-.015h-.043zm-1.313.553c.312.065.535.112.77.436.219.3-.081.77-.081.77-.224-.764-1.1-.752-1.1-.752l.017-.017.018-.012.018-.018.017-.012.07-.07.03-.042.07-.07.012-.018.018-.023.011-.018.03-.03.012-.017.017-.018.006-.011.012-.012.012-.018.005-.012.012-.006.006-.012.006-.006v-.005h.006v-.007h.006zm-.965.183c-.335.235-.44.323-.6.49-.288.306-.447.67-.447.67-.123-.205-.111-.352-.111-.352.223-.253.5-.876.5-.876.094-.012.2-.042.288-.06-.012.077-.006.242-.006.242l.006-.006h.012l.012-.006h.011l.012-.007.017-.006h.012l.018-.006.012-.006.017-.006.03-.006.035-.011.03-.006.017-.006.012-.006h.017l.012-.006.012-.006h.018l.012-.006.005-.006h.024v-.006h.018v-.006h.005zm.747-.13c-.182.27-.535.576-.729.683-.247.14-.47.452-.47.452-.024-.393.164-.617.44-.817l.018-.012.024-.017.047-.024.023-.017.03-.012.024-.011.029-.018.059-.024.052-.023.118-.047.03-.012.029-.012.023-.012.03-.006.023-.012.024-.006.023-.005.024-.012.024-.006.017-.006.018-.006.018-.006.017-.006h.012l.012-.006h.011zm-.006-2.858v.005h.041c.088 0 .247.04.247.176 0 .136-.205.459-.264.6-.059-.141-.27-.465-.27-.6v-.018l.005-.006V9.13l.006-.005v-.013l.006-.005.006-.012.006-.006.006-.012.006-.006.005-.006.012-.006.006-.006.012-.006.006-.007.011-.006.006-.005.024-.013h.012l.005-.006h.012l.012-.006h.017l.012-.006h.03l.005-.006h.018zm.183 1.053l.005-.024v-.017l.006-.024.006-.023v-.024l.006-.023.006-.03.006-.023.006-.03.005-.03.024-.117.012-.065.018-.058.005-.03.012-.03.006-.023.006-.03.012-.023.006-.024.023-.047.006-.023.012-.017.012-.018.005-.018.024-.024a.51.51 0 0 1 .359-.106.156.156 0 0 1 .135.2c-.035.112-.4.659-.447.723-.082-.01-.07-.01-.276-.022zm-.324 0c-.205.012-.188.012-.27.022-.053-.064-.418-.611-.447-.723a.153.153 0 0 1 .13-.2.501.501 0 0 1 .358.106l.012.012.006.012.023.036.006.017.024.047.006.023.011.024.006.024.012.03.006.023.006.03.011.029.012.058.018.065.023.118.006.029.006.03.006.023.006.03.006.023v.024l.005.023.006.024.006.017v.024zm-.229-1.711h.276v-.312h.235v.312h.283v.2h-.283v.364h-.235v-.364h-.276v-.2zM61.616 6.48h.288v-.312h.224v.312h.287v.2h-.287v.365h-.224V6.68h-.288v-.2zm6.833 3.87v-.041l-.005-.024v-.07l-.006-.006v-.036a1.306 1.306 0 0 1-.012-.394c.206.077.347.13.623.582 0 0-.447-.276-.6-.011zm-.388.723l-.005-.012v-.041l-.006-.018v-.018l-.006-.017v-.024l-.006-.017v-.023l-.006-.018-.006-.024-.006-.023-.005-.024-.006-.03-.006-.023-.012-.047-.023-.106-.018-.053-.012-.053-.017-.054-.018-.052-.006-.024-.012-.023c-.111-.306-.047-.753.088-1.017.135-.265.212-.512.183-.783 0 0 .27.089.417.183.024.317-.159.63-.24.806-.107.211-.09.482-.06.652.035.29-.024.595-.212.883zm-.029-2.405c-.088.011-.124.023-.3-.021-.176-.047-.406-.235-.594-.383-.188-.152-.306-.14-.306-.14a.46.46 0 0 1 .418-.107c.347.072.77.477.77.477v.012l.006.006v.03l.006.006v.12zm-1.241-.506c-.017.07.012.176.064.307.059.14.294.482.37.63.083.158.206.358.147.64-.058.312-.57.435-.57.435a.579.579 0 0 0 .183-.33c.018-.223-.123-.41-.212-.552-.088-.141-.264-.517-.264-.664v-.053l.005-.018.006-.012v-.018l.006-.011.006-.018.006-.011.006-.018.012-.012.005-.012.006-.018.012-.011.012-.018.006-.018.012-.012.012-.017.011-.012.047-.059.03-.03.023-.029.03-.03.029-.03zm-2.981 3.552l-.024.065-.024.07-.017.065-.03.065-.023.064-.024.065-.029.065-.03.059-.029.058-.03.065-.028.059-.036.053-.029.059-.03.053-.035.053-.029.047c-.159.24-.259.64-.235.776 0 0-.235-.512-.118-.87.094-.283.34-.694.8-.87zm-.577.118c-.082.247-.3.511-.47.684-.176.177-.53.236-.53.236.071-.365.277-.665.483-.806l.018-.007.017-.011.018-.006.018-.012.023-.006.018-.006.017-.006.024-.012h.024l.017-.006.023-.006.024-.006.017-.006h.024l.018-.006h.023l.018-.006h.04l.019-.006h.064l.012-.006h.041zm1.817.635h.041l.006.006h.018l.011.006h.024l.012.006h.011l.012.005.024.007h.023l.07.018.013.006h.011l.012.006h.012l.006.006h.017l.012.006s-.3.088-.453.206c-.123.106-.235.27-.282.541-.076.382-.3.794-.37.918l-.024-.006c.04-.265-.123-.806-.165-.882 0 0 .236-.153.347-.306.077-.114.218-.302.612-.543zm-1.552.817c.194.16.352.324.376.767.03.435-.088 1-.088 1-.153-.312-.394-.471-.506-.841l-.005-.036-.012-.035-.006-.035v-.165l.006-.035.005-.036.007-.03.005-.034.006-.03.012-.03.006-.029.012-.035.011-.03.012-.029.047-.106.012-.03.023-.047.012-.03.012-.023.012-.018.023-.047.006-.018.012-.018zm-1.435 1.03v-.002h-.013c-.012-.212-.512-.735-.488-1.017.023-.282.4-.482.494-.524h.005c.094.042.465.242.494.524v.053l-.005.03-.007.035-.011.03-.012.034-.012.03-.035.07-.018.036-.023.035-.017.035-.024.041-.118.177-.017.035-.07.106-.018.03-.018.035-.017.03-.018.029-.012.03-.017.023-.006.03-.012.023-.005.024v.018zm.758-1.018c.159.488.342.97.383 1.12.053.146.088.5.065.652-.024.147-.241.43-.241.43-.183-.33-.382-.506-.506-.666-.117-.158-.17-.328-.112-.593l.006-.024.012-.03.006-.03.012-.034.011-.03.018-.035.012-.042.017-.035.012-.035.018-.041.035-.077.035-.082.018-.042.035-.07.018-.041.017-.035.018-.03.012-.035.017-.03.012-.03.018-.029.012-.023.005-.018.006-.011.006-.012.006-.006v-.006l.006-.006.006-.006v-.012l.005-.006zm-.758 2.617v-.001h-.007c-.159-.14-.3-.347-.347-.465-.047-.123-.059-.3.047-.435.13-.158.288-.34.294-.488h.012c.011.147.17.33.294.488.106.135.094.312.052.435l-.005.012-.006.012-.006.012-.006.011-.006.018-.005.012-.012.012-.006.017-.005.012-.012.018-.012.012-.006.017-.024.03-.017.029-.024.035-.029.03-.023.03-.03.03-.023.029-.06.059-.028.03zm.582-.459l.006.007.018.017.005.012.012.012.012.017.017.018.018.024.017.018.018.023.024.024.017.03.024.023.023.03.018.023.047.058.041.053.047.06.018.029.018.024.023.029.018.023.017.024.012.023.017.024.012.023.024.035.006.012v.006l.006.006v.006c.058.148.147.412.023.6-.123.188-.417.488-.67.618 0 0 .276-.43.247-.783-.018-.229-.189-.429-.224-.564-.035-.137-.011-.372.09-.584zm.794-.27c.059.264.117.582.265.925.129.288.43.7.43.7-.107.24-.295.517-.295.517a7.522 7.522 0 0 1-.453-.976c-.111-.3-.147-.465-.135-.665v-.017l.006-.024v-.018l.006-.017v-.018l.005-.024.06-.176.017-.035.006-.012.006-.018.006-.012.011-.018.006-.011.006-.018.006-.012.006-.012.012-.012.005-.011.006-.012.006-.006.006-.012.006-.006zm.14-.165c.577.977 1.16 1.482 1.606 1.458.4-.023.588-.6.588-.6.2.16.23.624.13.918-.107.294-.419.559-.73.559-.206 0-.518-.171-.9-.653l-.053-.07-.047-.071-.047-.065-.047-.07-.041-.077-.041-.07-.106-.212-.03-.07-.029-.071-.03-.07-.023-.065-.023-.07-.024-.065-.017-.059-.018-.064-.017-.06-.018-.052-.012-.053-.011-.053-.012-.047-.012-.041-.006-.042-.006-.035-.006-.035-.005-.024-.006-.023v-.018l-.006-.018v-.012zm.466-.4c.37 1.047 1.193.982 1.193.984-.17.43-.623.4-.811.282-.223-.141-.335-.388-.382-.576l-.024-.094-.006-.048-.006-.047-.006-.047v-.224l.006-.041.006-.04.006-.042v-.018l.006-.018.006-.017v-.018l.006-.018.006-.018zm-1.988 2.859c-.118-.06-.218-.095-.347-.308-.106-.158-.2-.452-.148-.664.071-.259.207-.365.295-.53.07.066.117.113.2.165h.005c.089-.053.13-.1.194-.164.083.164.23.27.3.529.053.212-.047.506-.147.664l-.017.024-.012.018-.012.017-.011.012-.012.018-.012.012-.012.017-.023.023-.006.012-.023.024-.012.006-.012.012-.012.006-.017.018-.012.006-.012.012-.012.006-.018.011-.023.012-.018.012-.023.006-.018.012-.023.012zm0 1.617c-.059-.253-.588-.747-.536-1.008.07-.406.335-.323.535-.488h.006c.2.165.459.083.535.488v.077l-.006.03-.024.058-.011.036-.018.029-.017.035-.018.035-.017.03-.118.177-.053.07-.07.106-.024.03-.047.07-.023.03-.018.029-.018.03-.017.03-.024.059-.011.023-.006.024zm.635-.594c.376.33.43 1 .384 1.225-.082.435-.565.817-.565.817-.058-.2-.317-.564-.329-1.164v-.018l.006-.024.006-.023.006-.024.006-.023.011-.024.012-.03.018-.023.011-.03.018-.023.018-.03.017-.029.024-.029.017-.024.041-.058.047-.06.041-.058.047-.059.041-.059.018-.03.018-.029.017-.03.018-.03.017-.028.012-.03.017-.03.006-.023zm.541.423l-.006-.017-.006-.018-.006-.017-.011-.018-.006-.024-.012-.017-.006-.024-.024-.047-.011-.029-.024-.047-.023-.053-.03-.053-.029-.059-.03-.053-.017-.023-.018-.024-.034-.047-.018-.023-.018-.024-.018-.024-.017-.017-.035-.036-.018-.018-.023-.017s-.259-.765.576-1.235c0 0 .347.453.441.888.094.43-.365.688-.577 1.076zm1.047-1.94l.024.035.029.03.03.035.029.035.029.03.03.034.028.036.03.03.035.03.03.034.011.012.018.012.03.03.017.011.012.012.017.012.012.006.018.012.011.011.018.006.012.006s.053.341.023.57c-.04.336-.264.683-.353.941 0 0-.37-.482-.405-.764-.047-.282-.041-.512-.053-.647 0-.001.206-.33.318-.56zm.964 1.646c-.164-.13-.24-.218-.294-.371-.065-.183-.018-.736-.018-.736.341.165.753-.059.753-.059v.083l-.006.041-.006.042-.006.047-.012.04-.012.042-.011.047-.012.041-.017.041-.03.089-.035.088-.035.082-.018.041-.017.035-.018.042-.018.035-.023.041-.018.036-.018.03-.017.035-.012.029-.018.03-.017.023-.012.03-.017.017-.012.024-.012.018-.012.017zm-.094.118a1.764 1.764 0 0 1-.335.28c-.147.106-.282.076-.282.076.047-.147.318-.653.318-.653l.006.012.005.006.018.018.006.012.012.006.012.012.006.012.011.005.012.012.018.018.023.023.017.018.024.024.024.018.011.011.006.012.012.006.012.012.006.006.017.018.012.006.006.006.023.024zm-1.27-.3l.006.006v.006l.006.012v.006l.006.012.006.006v.011l.006.012.011.024.018.023.012.03.018.023.017.03.023.035.018.03.023.035.024.03.018.035.047.065.047.07.023.03.024.035.023.03.018.029.023.03.018.03.024.023.017.023.018.024.012.017.006.006.017.018.012.012v.007l.011.011s-.035.224-.193.541a2.46 2.46 0 0 1-.518.66s-.27-.478-.353-.683c-.094-.241-.088-.482-.041-.57.088-.21.406-.51.553-.774zM62.063 22.1h-.013c-.041-.17-.294-.37-.4-.664a.684.684 0 0 1 .006-.518c.082-.158.365-.558.4-.67.035.111.324.511.4.67.07.141.07.347.012.518l-.012.029-.012.023-.012.03-.023.047-.018.023-.011.024-.018.023-.059.094-.035.041-.03.041-.029.042-.029.035-.012.018-.017.023-.012.018-.012.018-.023.035-.006.018-.012.011-.006.018-.012.035-.005.018zm1.147-2.04c.094.193.305.387.406.57.1.188.117.476.052.682-.088.27-.494.653-.494.653-.117-.207-.294-.477-.353-.612-.047-.141-.082-.306-.047-.506l.007-.023.005-.024.006-.03.012-.023.012-.03.005-.023.018-.023.012-.03.011-.023.018-.03.03-.052.03-.053.034-.053.036-.047.035-.052.03-.047.017-.03.017-.024.018-.023.012-.018.017-.024.012-.023.012-.018.012-.023.012-.018.006-.023zm1.152-.054c.083.17.2.412.265.6.07.182.053.47-.005.653-.053.176-.382.6-.382.6-.042-.148-.166-.289-.265-.53-.112-.276-.094-.429-.03-.658l.006-.024.012-.018.006-.018.006-.023.023-.035.012-.023.012-.018.011-.024.012-.017.03-.041.029-.042.03-.04.034-.041.03-.042.035-.041.03-.047.029-.041.012-.018.023-.047.012-.018.023-.047zm-2.305 5.358c-.018-.212-.447-.859-.471-1.534-.006-.341.294-.882.464-1.082h.012c.17.2.482.74.465 1.082v.065l-.006.058-.006.065-.012.065-.011.059-.012.064-.012.06-.017.058-.018.059-.018.059-.017.058-.024.06-.018.052-.017.059-.024.052-.023.048-.018.052-.024.047-.017.047-.024.047-.017.047-.018.041-.017.042-.018.035-.018.041-.011.035-.012.03-.024.058-.006.024-.011.047zm.688-3.734v.005h.005v.006l.007.006.005.006.006.006.006.005.006.012.006.006.011.012.006.012.006.012.024.023.017.03.024.03.023.029.047.07.03.035.023.042.024.04.03.042.023.041.029.041.023.047.024.041.023.041.018.047.023.041.018.041.018.047.011.042.012.04.012.036.006.04v.071c-.012.454-.312.748-.359 1.03 0 0-.294-.335-.406-.559-.129-.258-.23-.47-.188-.758.03-.288.107-.47.407-.758zm1.041-.071c.453.423.494.765.447.976-.053.212-.276.67-.276.67-.094-.164-.377-.535-.441-.8l-.012-.023v-.03l-.006-.029v-.053l.006-.029v-.03l.006-.035.006-.029.012-.03.005-.029.012-.035.006-.03.023-.058.012-.036.03-.059.011-.03.012-.028.018-.024.011-.029.024-.047.017-.024.024-.047.023-.034.012-.018.006-.018.012-.012zm-1.34 4.899c-.03.535.564.735.564.735-.2.07-.43.106-.8-.24a1.045 1.045 0 0 1-.153-.207.727.727 0 0 1-.153.206c-.365.347-.594.312-.8.241 0 0 .6-.2.565-.735-.035-.53-.335-.853-.388-1.123-.06-.307-.036-.595.2-.947.188.652.4 1.129.564 1.458.006.011.012.017.012.03.006-.013.011-.018.017-.03.16-.33.371-.805.56-1.458.24.352.258.64.2.947l-.007.023-.006.024-.005.029-.012.023-.023.059-.024.059-.03.059-.029.059-.035.064-.03.065-.035.07-.011.036-.018.035-.018.041-.011.035-.012.041-.018.042-.012.041-.011.041-.007.041-.011.048-.006.047-.006.047-.006.047-.006.047zm-1.889-3.535l.006.018.012.023.006.018.006.024.023.047.006.023.012.024.017.047.024.047.023.053.018.047.023.053.012.024.006.023.012.018.011.023.006.024.006.018.012.023.006.018.006.018.005.011.006.018.006.011v.018l.006.006c.047.212-.018.47-.4.741 0 0-.247-.176-.346-.406-.095-.211-.036-.364.058-.47.094-.118.324-.371.412-.542zm.812.788v.042l-.006.023v.042l-.006.029v.024l-.006.029-.005.03-.007.035-.005.035-.006.035-.006.035-.006.036-.006.035-.018.076-.017.076-.024.083-.011.035-.006.035-.018.041-.035.106-.018.035-.011.03-.018.03-.012.028c-.24.418-.594.736-.906.736-.282 0-.34-.17-.487-.241 0 0 .07-.365.393-.459.394-.123 1-.594 1.247-1.04zm-1.03.765c-.176.088-.358.147-.423.183-.265.159-.353.517-.353.517-.241.106-.612.012-.612.012.13-.147.377-.435.624-.606.258-.17.559-.282.559-.282l.005.011.006.006.012.006.006.012.006.006.006.006.006.006.011.005.007.006.005.006.035.035.012.006.018.012.012.006.012.012.023.018.012.005.012.012zm-.317-.306c-.124.07-.353.224-.688.336-.312.1-.712.188-.712.188.077-.112.406-.453.565-.582.159-.123.688-.459.688-.459v.024l-.006.023v.047l.006.018v.047l.006.018v.017l.006.024.006.017.005.018.006.017v.018l.006.018.012.017.006.012.006.018.006.017.005.012.007.011.005.018.012.012.006.012.006.012.006.011.005.012.007.012.005.012.006.006.006.012.006.005zm-.894.57c-.253.247-.364.5-.604.594-.365.135-.7.365-.7.365-.212-.07-.6-.177-.6-.177.253-.282.447-.411.718-.494l.023-.011.058-.013.036-.011.03-.006.035-.006.04-.012.036-.006.04-.011.036-.006.082-.018.088-.017.083-.018.088-.018.082-.023.082-.017.042-.007.04-.011.036-.012.041-.006.035-.012.036-.006.029-.011.035-.012.03-.006.023-.012zm-.594 1.888c-.094-.276-.2-.358-.37-.393-.124-.03-.318.088-.318.088 0-.095.041-.195-.07-.265-.106-.07-.53.012-.712-.024-.088-.011-.124-.059-.094-.111.053-.13.159-.253.159-.253.206.064.84.235 1.07.346.14.065.376.195.417.306l.006.018v.012l.006.018v.011l.006.012v.07l-.006.006v.024l-.006.006v.011l-.006.006-.006.012-.005.006v.012l-.007.006-.005.006-.006.012-.018.018-.012.017-.023.023zm-.565-.882c.212-.14.395-.235.541-.288.153-.065.353-.117.353-.117.1.035.27.047.27.047-.2.04-.417.364-.47.459-.053.1-.16.14-.16.14l-.046-.023-.024-.017-.017-.012-.07-.035-.019-.012-.023-.012-.024-.006-.017-.012-.024-.011-.017-.007-.024-.011-.017-.006-.018-.006-.017-.012-.018-.005-.017-.007-.018-.006-.012-.005-.018-.006-.011-.006h-.012l-.012-.006-.012-.006h-.011l-.012-.006h-.006l-.006-.006h-.012zm1.641-.406c.159.083.3.212.3.212-.17-.035-.447.048-.606.165-.118.083-.306.388-.194.6.124.206.553.064.553.064-.253.518-.642.365-.73.318-.082-.041-.258-.2-.2-.535.065-.383.624-.771.624-.771h.041l.012-.006h.035l.012-.005h.03l.005-.006h.018l.006-.007h.018l.005-.005h.012l.006-.006h.012l.006-.006h.011l.007-.006.011-.006h.006zm-3.664 4.44c-.376-.035-.646-.1-.906-.28-.253-.177-.724-.276-.965-.276s-.294-.106-.34-.188c.158-.177.358-.3.534-.336.524-.106.7.235.994.341.3.106.494-.106.776-.788.283-.682.777-1.6 1.077-1.94.094-.118.412-.113.459-.118.052 0 .1.023.1.076.005.053.005.358.005.358.1-.064.33-.217.447-.23.118-.017.377.284.26.313-1.294.247-1.918 1.676-2.17 2.211l-.024.053-.024.053-.017.053-.024.053-.017.052-.018.053-.018.059-.017.053-.018.053-.011.053-.03.111-.03.106-.023.106zm5.164-4.422l.006.041.006.041.011.041.024.082.018.042.012.035.034.083.018.04.018.042.023.035.018.041.024.042.017.04.024.042s-.389 1.817-1.818 1.952c0 0 .03-.376.447-.659.424-.288 1.06-.735 1.012-1.411 0 0-.118.024-.318.277s-.646.988-1.329.993c0 0 .1-.346.406-.54.3-.2.688-.453.865-.76.176-.299.359-.44.482-.499zm-.676 6.622l.253-.376c.288.406.506.712.582.83.1-.189.288-.519.459-.83l.235.423-.659 1.17-.87-1.217zm-.218-1.03l-.247.377-2.082-2.929-.353.254-.017-1.124 1.035.394-.33.236.012.017.018.024.023.035.03.035.029.047.035.053.042.06.047.064.047.064.052.077.06.076.058.083.065.088.064.094.065.094.071.1.07.1.077.106.076.106.077.105.159.224.164.23.165.229.165.23.164.228.159.224zm-7.128-6.639l.024-.023.029-.024.023-.017.03-.018.058-.023.03-.006.03-.006.029-.006h.035l.03.006h.035l.035.011.036.006.07.024.035.018.042.017.035.018.041.018.036.023.041.024.041.029.035.023.042.03.04.029.042.035.041.03.041.035.035.035.082.07c.435.4.712.812.459 1.094-.235.253-.694.036-1.124-.364-.44-.4-.71-.811-.458-1.088zm.706 4.94c.223.165.647.159.753.16.094 0 .206.029.206.152.011.13-.189.148-.189.148-.206-.018-1.052-.018-1.052-.018-.018-.1-.065-.294-.183-.423-.582-.576-.924-1.282-1-1.758-.141-.865.253-1.63.4-2.041.105-.312.112-.518.088-.894.018.264.218.582.612.946.424.382.788.553 1.076.512 0 0-.435.076-.688.317-.211.2-.511.741-.605 1.341a1.518 1.518 0 0 1 2.829.259c-.035.082-.236.535-.289.635 0 0 .018-.141.018-.23 0-.658-.535-1.193-1.194-1.193-.653 0-1.188.535-1.188 1.194 0 .34.135.653.365.858h.006v.006h.006v.006h.005v.006h.006l.007.006.005.006.006.005zm4.693.288l.195.277c-.594.224-1.188.335-1.752.423-.335.059-.67.071-.994.065a.28.28 0 0 0-.059-.16.292.292 0 0 0 .024-.17c.317.012.647-.006.976-.058l.2-.03.194-.035.2-.035.1-.018.105-.023.2-.047.1-.03.106-.029.2-.059.105-.035.1-.036zm.894-.04l-.197-.27c.677-.365 1.335-.924 1.924-1.8a.695.695 0 0 0 .058-.083s.223.053.394-.023l-.111.188-.06.094-.064.088-.117.171-.124.159-.129.159-.123.147-.13.135-.123.135-.13.124-.134.117-.13.112-.135.106-.13.1-.134.093-.135.088-.135.083-.135.076zm-4.776.305c.148.03.118.153.042.236-.076.087-.57.346-.659.382-.082.035-.235.088-.306-.012-.106-.165-.176-.283-.159-.394.03-.112.265-.159.477-.188h.017l.018-.006h.018l.024-.005h.04l.041-.007h.047l.042-.006h.047l.04-.005h.195l.018.005h.058zm.5.33c.053.029.03.123 0 .176-.035.065-.258.336-.317.412a.395.395 0 0 1-.3.14.938.938 0 0 1-.235-.064c-.077-.029-.142-.1-.112-.235.035-.13.518-.418.653-.47h.011l.012-.006h.012l.012-.006h.011l.012-.006h.082l.012.006h.024l.005.006h.024l.006.006h.011l.006.005h.012l.006.006h.012l.006.007.006.005h.006l.006.006h.005l.006.006.007.006zm.06.294c.223-.242.423-.289.558-.193.13.094 0 .34-.188.47-.194.13-.523.164-.588.17-.059.012-.094-.053-.07-.088l.006-.006v-.005h.006v-.006l.005-.006.006-.012.006-.006.006-.012.012-.012.006-.012.024-.023.006-.012.023-.023.012-.018.012-.012.023-.03.018-.029.023-.023.012-.018.023-.023.006-.012.024-.024.005-.011.012-.006.006-.012.005-.006zm.105-.724c.418.112.512.282.442.382-.071.1-.435.024-.63-.07-.2-.095-.247-.2-.176-.306v-.006h.006V29.7h.006l.005-.006.007-.005h.011v-.006h.012l.012-.006h.012l.011-.006h.082l.012.006h.047l.012.006h.012l.017.006h.024l.011.005h.012l.012.006h.018l.011.006h.012zm8.286-6.78c.094.17.318.423.418.54.088.107.147.26.052.471-.093.23-.346.406-.346.406-.382-.27-.441-.53-.4-.741v-.006l.006-.018.006-.011.006-.018.005-.011.006-.018.006-.018.006-.023.012-.018.006-.024.011-.023.012-.018.006-.023.012-.024.023-.053.024-.047.018-.053.023-.047.018-.047.023-.047.006-.024.012-.023.006-.024.006-.018.011-.023.006-.018zm-.811.787c.247.447.853.918 1.247 1.041.323.094.394.459.394.459-.135.07-.2.24-.482.24-.318 0-.665-.317-.906-.735l-.012-.029-.017-.03-.018-.029-.024-.07-.018-.035-.011-.036-.012-.04-.024-.071-.017-.083-.018-.076-.017-.076-.006-.035-.012-.036-.006-.035L62.78 24l-.006-.035-.006-.036v-.03l-.006-.028-.005-.024v-.03l-.007-.023v-.07l-.005-.013zm1.03.765l.017-.012.011-.005.024-.018.012-.012.011-.006.012-.012.012-.006.035-.035.006-.006.012-.006.006-.005.005-.006.012-.012.006-.012.012-.006.006-.006.005-.011s.306.111.56.282c.246.17.493.459.628.606 0 0-.376.094-.617-.012 0 0-.088-.358-.353-.517-.058-.036-.246-.095-.423-.183zm.317-.306l.005-.005.007-.012.005-.006.006-.012.012-.024.006-.011.011-.012.006-.012.006-.012.006-.018.006-.011.012-.012.005-.017.007-.018.005-.012.006-.017.006-.018.006-.018.006-.017.006-.018.005-.017v-.024l.007-.017v-.018l.005-.023v-.042l.006-.023V23.7l-.006-.023v-.024s.53.336.688.459c.153.13.488.47.559.582 0 0-.4-.088-.706-.188-.335-.112-.57-.265-.693-.336zm.894.57l.029.012.03.006.029.012.035.011.035.006.036.012.035.006.041.012.036.011.04.007.083.017.088.023.083.018.088.018.082.017.083.018.04.006.042.011.035.006.036.012.035.006.035.006.03.011.058.013.03.011c.264.083.459.212.717.494 0 0-.394.106-.6.177 0 0-.335-.23-.705-.365-.242-.093-.354-.347-.606-.594zm.593 1.888l-.023-.023-.012-.017-.012-.012-.005-.006-.006-.012-.006-.006-.006-.006v-.012l-.006-.006-.006-.012-.006-.006v-.01l-.006-.006v-.024l-.005-.005v-.07l.005-.013v-.011l.006-.018.006-.012v-.018c.047-.111.277-.241.417-.306.236-.111.87-.282 1.077-.346 0 0 .1.123.159.253.018.052-.012.1-.1.111-.176.036-.606-.047-.706.024-.111.07-.076.17-.076.265 0 0-.194-.118-.317-.088-.172.035-.271.117-.372.393zm.571-.882h-.011l-.006.006h-.012l-.006.006h-.011l-.012.006-.012.006h-.012l-.018.006-.011.006-.018.005-.011.006-.018.007-.018.005-.017.012-.024.006-.018.006-.017.011-.024.007-.017.011-.023.012-.018.006-.07.035-.018.012-.047.024-.024.017-.047.024s-.106-.041-.159-.141c-.053-.095-.27-.418-.464-.46 0 0 .164-.01.264-.046 0 0 .206.052.353.117.146.053.328.147.546.288zm-1.64-.406h.005l.006.006h.006l.006.006h.005l.006.006h.012l.006.006h.012l.005.005h.018l.006.007h.018l.011.006h.024l.012.005h.035l.012.006h.041s.565.388.63.77c.052.336-.118.495-.207.536-.082.047-.47.2-.73-.318 0 0 .43.142.554-.064.117-.212-.07-.517-.195-.6-.153-.117-.435-.2-.6-.165.001 0 .136-.13.301-.212zm3.663 4.44l-.03-.105-.023-.106-.03-.111-.016-.053-.018-.053-.012-.053-.018-.059-.017-.053-.024-.052-.017-.053-.047-.106-.024-.053c-.247-.535-.87-1.964-2.164-2.211-.123-.03.135-.33.253-.312.118.012.347.165.453.23v-.36c.006-.052.053-.075.1-.075.052.005.364 0 .465.117.294.341.794 1.259 1.07 1.941.288.682.482.894.776.788.294-.106.47-.447.994-.341.183.035.382.16.535.336-.041.082-.094.188-.34.188-.242 0-.706.1-.965.276-.26.18-.53.245-.9.28zm-5.163-4.42c.117.059.306.2.482.5.177.306.559.559.865.759.306.194.405.54.405.54-.688-.005-1.135-.74-1.335-.993-.206-.253-.311-.277-.311-.277-.048.677.582 1.124 1.005 1.412.424.282.453.659.453.659-1.43-.136-1.823-1.953-1.823-1.953l.047-.082.018-.042.023-.04.018-.036.018-.041.023-.041.012-.042.018-.041.017-.035.012-.042.024-.082.011-.041.006-.04.012-.042zm-.947 1.765l.005.023.024.058.018.03.017.035.024.035.017.042.03.04.023.041.024.042.029.04.03.048.029.047.035.047.064.088.065.094.065.088.035.047.035.042.03.041.035.041.029.042.03.035.029.035.03.035.029.03.029.024.023.03.024.017c.23.217.806.794 1.117 1.082 0 0-.876-.218-1.37-.665 0 0-.347.2-.6.2h-.017c-.253 0-.606-.2-.606-.2-.488.447-1.364.665-1.364.665.306-.288.882-.865 1.117-1.082.236-.212.777-.977.859-1.217h.007zm-.012 2.016h.047l.017-.005h.053l.071-.012.03-.012.035-.006.03-.012.034-.006.03-.011.023-.012.03-.006.023-.012.024-.011.012-.006h.011l.012-.007.012-.005c-.106.211-.3.559-.482.694h-.006c-.188-.135-.383-.483-.488-.694.105.047.288.123.482.123zm.759 4.058l-1.547-2.764c-.253.376-.994 1.505-1.188 1.788l.353.24-1.047.412V31.77l.347.23 1.376-2.089.195-.288 1.546 2.811c.324-.452 2.882-4.034 3.046-4.275l-.323-.235 1.035-.394-.023 1.123-.347-.253-3.423 4.8zm.629-1.887l-.088-.13-.047-.064-.041-.065-.041-.059-.042-.065-.04-.058-.036-.06-.04-.058-.036-.053-.018-.023-.017-.03-.012-.023-.017-.024-.018-.024-.012-.023-.017-.024-.012-.017-.012-.024-.018-.018-.023-.035a39.94 39.94 0 0 1-.453.824l-.247-.436.67-1.2.188.289.688 1.035-.26.365zm.705.311l.242.377.347-.23.005 1.106-1.047-.412.347-.24c-.035-.054-.088-.136-.159-.242l.265-.359zm6.887-7.31c.253.277-.023.688-.457 1.088-.441.4-.888.617-1.123.364-.259-.282.011-.694.453-1.094l.082-.07.041-.035.04-.036.042-.029.041-.035.041-.03.035-.029.041-.023.042-.03.04-.023.036-.023.041-.018.035-.018.036-.017.04-.018.072-.024.035-.006.035-.011h.035l.03-.006h.035l.03.006.058.012.03.012.029.011.03.018.023.017.029.024.023.023zm-.711 4.94l.005-.005h.006v-.006h.006v-.006h.006v-.006h.006l.006-.006h.006v-.006h.006c.229-.205.358-.517.358-.858a1.19 1.19 0 1 0-2.382 0c0 .088.018.23.018.23-.048-.1-.247-.554-.288-.636a1.519 1.519 0 1 1 2.829-.259c-.094-.6-.394-1.14-.606-1.34-.253-.242-.682-.318-.682-.318.282.041.652-.13 1.07-.512.394-.364.6-.682.612-.946-.024.376-.012.582.094.894.147.411.535 1.176.4 2.04-.076.477-.424 1.183-1 1.759a.789.789 0 0 0-.182.423s-.853 0-1.047.018c0 0-.206-.018-.2-.148 0-.123.117-.153.211-.153.106 0 .524.006.748-.159zm-5.587.247l-.135-.076-.135-.083-.135-.088-.13-.094-.135-.1-.135-.105-.13-.112-.129-.117-.13-.124-.258-.27-.123-.147-.247-.318-.123-.17-.059-.089-.064-.094-.112-.188c.177.076.394.023.394.023.018.018.041.065.053.083.6.876 1.258 1.435 1.929 1.794l-.196.275zm.894.041l.1.036.105.035.1.03.106.03.1.028.1.03.106.023.1.024.1.023.1.018.199.035.2.035.194.03c.335.052.664.07.976.059 0 .052 0 .117.023.17 0 0-.052.07-.052.159a5.304 5.304 0 0 1-1-.065c-.565-.088-1.159-.2-1.758-.423l.2-.277zm3.881.265h.065l.017-.005h.189l.047.005h.041l.048.006h.04l.048.007h.04l.018.005h.024l.017.006h.018c.206.029.441.076.47.188.024.111-.053.23-.159.394-.064.1-.218.047-.306.012-.088-.036-.576-.295-.658-.382-.077-.083-.106-.207.041-.236zm-.494.33l.006-.006v-.006h.006l.012-.006h.006l.011-.012h.006l.012-.006h.006l.012-.005h.006l.012-.006h.017l.012-.006h.018l.011-.006h.083l.012.006h.011l.012.006h.012l.012.006h.011c.135.052.618.34.653.47.03.136-.035.206-.106.235a.978.978 0 0 1-.241.065.373.373 0 0 1-.294-.141c-.065-.076-.288-.347-.318-.412-.035-.053-.053-.147 0-.176zm-.064.294l.005.006.018.018.006.011.023.024.006.012.024.023.012.018.023.023.024.03.047.059.006.011.035.036.006.011.012.012.006.012.011.012.006.006.006.012.012.012v.005l.006.006c.017.035-.018.1-.077.089-.065-.007-.393-.042-.582-.17-.194-.13-.318-.377-.188-.471.13-.096.335-.049.553.193zm-.106-.724h.018l.005-.006h.018l.012-.006h.012l.011-.005h.024l.018-.006h.012l.017-.006h.041l.012-.006h.082l.012.006h.012l.011.006h.012l.006.006h.012v.005h.006l.011.012.006.006c.065.106.018.211-.176.306-.194.094-.565.17-.635.07-.071-.1.029-.27.44-.382z"/></svg>