<svg xmlns="http://www.w3.org/2000/svg" width="95" height="44" viewBox="0 0 95 44"><g fill="none"><path fill="#243F92" d="M21.994 43.422V21.768h3.505v1.588c.487-.772 1.429-1.327 2.166-1.577a7.133 7.133 0 0 1 2.292-.374c1.94 0 4.015.646 5.705 2.393 1.554 1.61 2.382 3.562 2.382 5.876 0 1.055-.204 2.11-.612 3.108-.397 1.01-.953 1.894-1.679 2.632-.76.794-1.633 1.406-2.598 1.803-.952.409-1.849.613-3.028.613a7.77 7.77 0 0 1-2.462-.397c-.76-.25-1.837-.862-2.223-1.52v7.498h-3.448v.011zm7.86-18.932c-1.281 0-2.393.397-3.312 1.327-.941.976-1.293 2.36-1.293 3.732 0 1.475.352 2.904 1.27 3.88.92.975 2.054 1.315 3.37 1.315 1.338 0 2.427-.544 3.244-1.372.953-.953 1.395-2.257 1.395-3.664 0-1.531-.454-2.893-1.373-3.857-.794-.828-1.928-1.36-3.3-1.36z"/><path fill="#263D93" d="M62.103 43.422l2.961-6.829-6.795-14.825h3.698L66.8 32.895l4.457-11.127h3.721l-9.233 21.654zM52.7 37.546v-1.633c-.386.669-1.463 1.282-2.223 1.52a7.77 7.77 0 0 1-2.462.397 7.298 7.298 0 0 1-3.029-.613 8.008 8.008 0 0 1-2.597-1.803 7.576 7.576 0 0 1-1.679-2.632 8.246 8.246 0 0 1-.613-3.108c0-2.314.829-4.265 2.383-5.876 1.678-1.735 3.754-2.393 5.705-2.393.783 0 1.554.124 2.292.374.737.25 1.69.794 2.166 1.577v-1.588h3.505v15.778H52.7zm-7.702-11.695c-.919.964-1.373 2.326-1.373 3.857 0 1.395.454 2.7 1.395 3.664.829.828 1.906 1.372 3.245 1.372 1.315 0 2.45-.34 3.369-1.315.918-.976 1.27-2.405 1.27-3.88 0-1.384-.363-2.768-1.293-3.732-.919-.93-2.03-1.327-3.312-1.327-1.373 0-2.519.533-3.301 1.361zm33.496-14.236l-.181-10.492h3.335v13.226H76.85L73.537 3.494h-.079l.181 10.855h-3.3V1.123h4.991l3.096 10.492zM17.989 2.359l-1.848 12.126h-3.63l2.495-13.362h5.989l2.485 13.362h-3.619L18.069 2.359zm15.677 8.984l1.656-10.22h5.49l.295 13.362h-3.369l-.091-12.024h-.068l-2.246 12.024H31.93L29.673 2.461h-.079l-.08 12.024h-3.357l.306-13.362h5.479l1.656 10.22zm28.199 1.135c.942 0 1.225-.636 1.293-.965.023-.147.034-.34.034-.51v-9.88h3.415v9.574c0 .25-.023.748-.046.884-.227 2.496-2.223 3.29-4.696 3.29s-4.458-.805-4.685-3.29a16.502 16.502 0 0 1-.034-.884V1.123h3.403v9.88c-.011.17.012.363.023.51.068.33.352.965 1.293.965M6.85 10.708c.125.329.091.737.034.987-.113.442-.408.896-1.315.896-.84 0-1.35-.488-1.35-1.214l-.012-1.293H.6v1.032c0 2.984 2.36 3.88 4.878 3.88 2.439 0 4.435-.817 4.753-3.052.17-1.157.045-1.917-.012-2.2-.567-2.802-5.671-3.63-6.057-5.195-.068-.273-.057-.556-.011-.704.102-.43.397-.907 1.225-.907.794 0 1.248.488 1.248 1.202v.84H9.98v-.942C9.981 1.123 7.35.67 5.444.67 3.062.67 1.11 1.463.748 3.641a4.79 4.79 0 0 0 .034 1.792c.601 2.768 5.388 3.55 6.068 5.275m43.717-.011c.136.317.08.726.034.975-.102.443-.42.885-1.293.885-.84 0-1.338-.465-1.338-1.191v-1.282h-3.573v1.021c0 2.96 2.336 3.834 4.843 3.834 2.405 0 4.379-.817 4.708-3.017.158-1.135.045-1.895-.023-2.178-.556-2.768-5.615-3.585-5.978-5.139a1.824 1.824 0 0 1-.023-.692c.091-.42.386-.884 1.214-.884.794 0 1.236.476 1.236 1.19v.829h3.313v-.92c0-2.88-2.598-3.334-4.48-3.334-2.372 0-4.311.771-4.652 2.938a4.308 4.308 0 0 0 .034 1.78c.568 2.69 5.298 3.46 5.978 5.185m39.339 1.644c.964 0 1.304-.6 1.372-.975a3.5 3.5 0 0 0 .034-.51v-1.93H89.94V6.965h4.753v3.596c0 .25-.012.43-.046.873-.227 2.427-2.348 3.3-4.741 3.3-2.382 0-4.492-.873-4.72-3.3-.044-.442-.044-.624-.044-.873V4.946c0-.239.022-.67.056-.874.295-2.507 2.326-3.3 4.708-3.3s4.48.782 4.718 3.3c.046.42.035.874.035.874v.442h-3.392v-.749s0-.317-.045-.51c-.057-.295-.318-.964-1.35-.964-.965 0-1.26.646-1.339.964-.045.17-.057.42-.057.635v6.114c0 .17.012.363.023.51.09.352.431.953 1.407.953"/></g></svg>