<svg xmlns="http://www.w3.org/2000/svg" width="46" height="41" viewBox="0 0 46 41">
  <path fill="#FEA800" d="M119.599636,56.5838869 C119.980442,56.7694866 119.92748,57.4216688 119.531434,58.3076211 C119.267404,58.898256 117.167669,61.2076987 113.232231,65.2359494 C111.790645,66.8667642 109.327665,67.0041065 109.170263,67.0112702 L98.992243,67.0116032 C98.4810543,67.0116032 97.6327792,67.2569385 97.5219478,67.2896499 L97.5098772,67.2932381 L96.8617972,67.7558352 C96.0936278,68.3041517 95.0466929,68.2408346 94.3501945,67.6039474 C92.8228438,66.2072783 91.4569389,64.7962831 90.2524799,63.3709618 C89.8353178,62.8773044 90.0252134,62.4762874 90.1845964,62.3156358 C91.6705828,60.8178215 92.8537413,59.8121928 93.734072,59.2987495 C96.4752015,57.7000159 98.7337524,57.3094238 99.9309733,57.3094238 C100.997822,57.3094238 106.185511,57.3542862 107.732798,57.3602678 L108.005811,57.360924 C109.063988,57.360924 109.855601,57.5782892 109.855601,58.8660043 C109.855601,60.0951869 108.716787,60.4540649 108.158921,60.4841505 L108.083364,60.4862703 L103.621867,60.4862703 C102.815647,60.4862703 102.815647,61.271479 102.815647,61.271479 C102.815647,61.8820807 103.464836,62.0343592 103.557577,62.052998 L103.568552,62.0550747 L109.583771,62.0550747 C110.111573,62.0550747 110.401499,61.8665778 110.48348,61.8037455 L110.507955,61.7836391 L116.295958,57.4059186 C118.294592,55.8031563 119.218829,56.3982872 119.599636,56.5838869 Z M108.025661,28 C110.424712,28 112.369528,29.9448155 112.369528,32.3438669 L112.369,36.083 L108.869,36.083 L108.869528,32.3438669 C108.869528,31.8778121 108.491716,31.5 108.025661,31.5 L78.3438669,31.5 C77.8778121,31.5 77.5,31.8778121 77.5,32.3438669 L77.5,50.2672442 C77.5,50.733299 77.8778121,51.1111111 78.3438669,51.1111111 L82.861968,51.1111111 C83.8284663,51.1111111 84.611968,51.8946128 84.611968,52.8611111 L84.611968,57.5254862 L90.5145657,51.6235997 C90.8427483,51.2954566 91.2878357,51.1111111 91.751928,51.1111111 L92.044,51.111 L92.044,55.043 L84.0993303,62.9875114 C82.9968613,64.0898476 81.111968,63.3090327 81.111968,61.75 L81.111968,54.6111111 L78.3438669,54.6111111 C75.9448155,54.6111111 74,52.6662957 74,50.2672442 L74,32.3438669 C74,29.9448155 75.9448155,28 78.3438669,28 L108.025661,28 Z M112.908065,40 C113.44121,40 113.884125,40.3221918 113.944679,40.7340789 L113.951732,40.8306162 L113.951732,53.8178777 C113.951732,54.2421884 113.546899,54.5946881 113.029364,54.6428803 L112.908065,54.6484939 L98.1286001,54.6484939 C97.5954551,54.6484939 97.1525402,54.3263021 97.0919868,53.914415 L97.0849334,53.8178777 L97.0849334,40.8306162 C97.0849334,40.4063055 97.4897664,40.0538058 98.0073014,40.0056136 L98.1286001,40 L112.908065,40 Z M100.873214,47.0275679 C100.173034,47.0275679 99.6054248,47.5951766 99.6054248,48.2953575 C99.6054248,48.9955384 100.173034,49.5631471 100.873214,49.5631471 C101.573395,49.5631471 102.141004,48.9955384 102.141004,48.2953575 C102.141004,47.5951766 101.573395,47.0275679 100.873214,47.0275679 Z M109.898547,47.395556 L104.167923,47.395556 C103.808411,47.395556 103.5085,47.7212657 103.461011,48.1411134 L103.454463,48.2577773 L103.454463,48.3018968 C103.454463,48.7369468 103.724415,49.0989106 104.071497,49.1562167 L104.167923,49.1641182 L109.898547,49.1641182 C110.258536,49.1641182 110.558049,48.8384085 110.605468,48.4185608 L110.612006,48.3018968 L110.612006,48.2577773 C110.612006,47.7831774 110.291263,47.395556 109.898547,47.395556 Z M100.873214,42.7889459 C100.173034,42.7889459 99.6054248,43.3565547 99.6054248,44.0567355 C99.6054248,44.7569164 100.173034,45.3245251 100.873214,45.3245251 C101.573395,45.3245251 102.141004,44.7569164 102.141004,44.0567355 C102.141004,43.3565547 101.573395,42.7889459 100.873214,42.7889459 Z M109.898547,43.156934 L104.167923,43.156934 C103.808411,43.156934 103.5085,43.4826437 103.461011,43.9024914 L103.454463,44.0191554 L103.454463,44.0632749 C103.454463,44.4983248 103.724415,44.8602886 104.071497,44.9175948 L104.167923,44.9254962 L109.898547,44.9254962 C110.258536,44.9254962 110.558049,44.5997865 110.605468,44.1799388 L110.612006,44.0632749 L110.612006,44.0191554 C110.612006,43.5445555 110.291263,43.156934 109.898547,43.156934 Z" transform="translate(-74 -28)"/>
</svg>
