<svg xmlns="http://www.w3.org/2000/svg" width="48" height="45" viewBox="0 0 48 45">
  <path fill="#00BEFA" d="M138.392533,36.5201854 C141.365712,36.5201854 143.775949,38.9304227 143.775949,41.903601 L143.775949,64.1162961 C143.775949,67.0894745 141.365712,69.4997118 138.392533,69.4997118 L119.122536,69.4997118 L108.740294,79.8807031 C107.373988,81.2468439 105.038013,80.279169 105.038013,78.3470377 L105.038013,69.4997118 L101.607467,69.4997118 C98.6342881,69.4997118 96.2240508,67.0894745 96.2240508,64.1162961 L96.2240508,41.903601 C96.2240508,38.9304227 98.6342881,36.5201854 101.607467,36.5201854 L138.392533,36.5201854 Z M138.392533,40.8577849 L101.607467,40.8577849 C101.029878,40.8577849 100.56165,41.3260127 100.56165,41.903601 L100.56165,64.1162961 C100.56165,64.6938844 101.029878,65.1621123 101.607467,65.1621123 L107.206813,65.1621123 C108.404608,65.1621123 109.375613,66.133117 109.375613,67.330912 L109.375613,73.111538 L116.690786,65.7972466 C117.097507,65.3905743 117.64911,65.1621123 118.224266,65.1621123 L138.392533,65.1621123 C138.970122,65.1621123 139.43835,64.6938844 139.43835,64.1162961 L139.43835,41.903601 C139.43835,41.3260127 138.970122,40.8577849 138.392533,40.8577849 Z M108.152817,46.3751238 C108.765119,46.3751238 109.349214,46.4476321 109.90512,46.5926509 C110.461025,46.7376698 111.042435,46.9417673 111.649365,47.2049497 L110.843709,49.1465813 C110.215294,48.88877 109.695651,48.7088419 109.284764,48.6067916 C108.873877,48.5047413 108.469711,48.4537169 108.072252,48.4537169 C107.599598,48.4537169 107.237056,48.5638222 106.984616,48.784036 C106.732175,49.0042498 106.605957,49.2915977 106.605957,49.6460882 C106.605957,49.866302 106.656982,50.0583148 106.759032,50.2221324 C106.861082,50.38595 107.023555,50.5443942 107.246454,50.6974696 C107.469353,50.8505451 107.997053,51.1258082 108.829568,51.5232673 C109.930638,52.049632 110.685261,52.5773316 111.093463,53.1063819 C111.501664,53.6354321 111.705761,54.2839789 111.705761,55.0520418 C111.705761,56.1155133 111.323078,56.9533875 110.557701,57.5656893 C109.792324,58.1779911 108.727525,58.4841375 107.363274,58.4841375 C106.106444,58.4841375 104.994649,58.247814 104.027857,57.7751599 L104.027857,55.4548699 C104.822775,55.8093604 105.495491,56.0591114 106.046026,56.2041302 C106.596561,56.3491491 107.100091,56.4216574 107.556632,56.4216574 C108.104481,56.4216574 108.52476,56.3169231 108.817484,56.1074515 C109.110207,55.8979798 109.256566,55.5864625 109.256566,55.1728902 C109.256566,54.9419342 109.192114,54.7364939 109.063209,54.5565631 C108.934303,54.3766324 108.744976,54.203418 108.495221,54.0369149 C108.245466,53.8704117 107.736565,53.6045478 106.968502,53.2393152 C106.248779,52.9009378 105.708995,52.575993 105.349133,52.2644711 C104.989272,51.9529491 104.701924,51.5904074 104.487081,51.1768351 C104.272238,50.7632628 104.164819,50.2798739 104.164819,49.7266538 C104.164819,48.6846665 104.517961,47.8655908 105.224257,47.2694022 C105.930552,46.6732136 106.906729,46.3751238 108.152817,46.3751238 Z M132.797842,46.3751238 C133.410144,46.3751238 133.994239,46.4476321 134.550145,46.5926509 C135.10605,46.7376698 135.68746,46.9417673 136.294391,47.2049497 L135.488734,49.1465813 C134.860319,48.88877 134.340676,48.7088419 133.929789,48.6067916 C133.518903,48.5047413 133.114736,48.4537169 132.717277,48.4537169 C132.244623,48.4537169 131.882081,48.5638222 131.629641,48.784036 C131.377201,49.0042498 131.250982,49.2915977 131.250982,49.6460882 C131.250982,49.866302 131.302007,50.0583148 131.404057,50.2221324 C131.506107,50.38595 131.66858,50.5443942 131.891479,50.6974696 C132.114378,50.8505451 132.642078,51.1258082 133.474594,51.5232673 C134.575663,52.049632 135.330287,52.5773316 135.738488,53.1063819 C136.146689,53.6354321 136.350787,54.2839789 136.350787,55.0520418 C136.350787,56.1155133 135.968104,56.9533875 135.202726,57.5656893 C134.437349,58.1779911 133.372551,58.4841375 132.008299,58.4841375 C130.751469,58.4841375 129.639675,58.247814 128.672882,57.7751599 L128.672882,55.4548699 C129.4678,55.8093604 130.140517,56.0591114 130.691051,56.2041302 C131.241586,56.3491491 131.745116,56.4216574 132.201657,56.4216574 C132.749506,56.4216574 133.169786,56.3169231 133.462509,56.1074515 C133.755232,55.8979798 133.901591,55.5864625 133.901591,55.1728902 C133.901591,54.9419342 133.83714,54.7364939 133.708234,54.5565631 C133.579328,54.3766324 133.390001,54.203418 133.140246,54.0369149 C132.890492,53.8704117 132.381591,53.6045478 131.613528,53.2393152 C130.893804,52.9009378 130.35402,52.575993 129.994159,52.2644711 C129.634297,51.9529491 129.346949,51.5904074 129.132106,51.1768351 C128.917264,50.7632628 128.809844,50.2798739 128.809844,49.7266538 C128.809844,48.6846665 129.162986,47.8655908 129.869282,47.2694022 C130.575577,46.6732136 131.551754,46.3751238 132.797842,46.3751238 Z M117.24062,46.5443116 L120.028191,55.5515486 L120.07653,55.5515486 L123.033288,46.5443116 L126.433158,46.5443116 L126.433158,58.3230062 L124.104811,58.3230062 L124.104811,52.7478648 C124.104811,52.4846825 124.10884,52.1812216 124.116896,51.8374732 C124.124953,51.4937249 124.161207,50.5806569 124.22566,49.0982419 L124.153151,49.0982419 L121.115827,58.3230062 L118.827763,58.3230062 L115.991853,49.0821288 L115.919344,49.0821288 C116.021394,50.9620028 116.072418,52.2161286 116.072418,52.8445436 L116.072418,58.3230062 L113.84075,58.3230062 L113.84075,46.5443116 L117.24062,46.5443116 Z" transform="translate(-96 -36)"/>
</svg>
