<svg xmlns="http://www.w3.org/2000/svg" width="54" height="45" viewBox="0 0 54 45">
  <path fill="#EF678B" d="M134.185873,76.9760088 L132.700598,72.136206 L132.642091,72.136206 C132.724435,73.6530724 132.765606,74.6650238 132.765606,75.1720906 L132.765606,79.5926507 L130.964878,79.5926507 L130.964878,70.0884465 L133.708226,70.0884465 L135.750442,76.687283 L135.221594,76.687283 C134.842464,76.687283 134.487973,76.7927756 134.185873,76.9760088 L134.185873,76.9760088 Z M136.216152,76.687283 L138.382318,70.0884465 L141.125666,70.0884465 L141.125666,76.687283 L139.246927,76.687283 L139.246927,75.0940807 C139.246927,74.8817194 139.250178,74.6368575 139.256679,74.3594877 C139.26318,74.0821178 139.292433,73.3453652 139.34444,72.1492076 L139.285932,72.1492076 L137.791736,76.687283 L136.216152,76.687283 Z M145.114868,79.7059806 L145.114868,78.687283 C145.114868,78.4379431 145.06924,78.1992601 144.985879,77.9791282 C145.26781,78.0320138 145.532601,78.0584563 145.780255,78.0584563 C146.222313,78.0584563 146.561436,77.9739465 146.797634,77.8049242 C147.033832,77.6359019 147.151929,77.3845393 147.151929,77.0508287 C147.151929,76.8644708 147.099923,76.6987014 146.995909,76.5535156 C146.891896,76.4083299 146.739128,76.2685635 146.537601,76.1342125 C146.336075,75.9998615 145.925443,75.7853365 145.305695,75.490631 C144.724952,75.217595 144.289401,74.9553978 143.99903,74.7040313 C143.708658,74.4526649 143.476798,74.1601307 143.303441,73.8264201 C143.130085,73.4927095 143.043408,73.102664 143.043408,72.6562719 C143.043408,71.8154945 143.328358,71.154584 143.898267,70.6735207 C144.468175,70.1924573 145.25585,69.9519293 146.261316,69.9519293 C146.755381,69.9519293 147.226686,70.0104361 147.675245,70.1274515 C148.123804,70.2444669 148.592942,70.4091528 149.082674,70.6215141 L148.432591,72.1882126 C147.925524,71.9801852 147.506226,71.8350016 147.174682,71.7526574 C146.843138,71.6703132 146.517017,71.6291417 146.196308,71.6291417 C145.814924,71.6291417 145.52239,71.7179854 145.318697,71.8956755 C145.115003,72.0733656 145.013158,72.305226 145.013158,72.5912636 C145.013158,72.7689537 145.05433,72.9238885 145.136674,73.0560725 C145.219018,73.1882566 145.350116,73.3161049 145.529974,73.4396211 C145.709831,73.5631374 146.13563,73.7852466 146.807385,74.1059555 C147.695836,74.5306781 148.30474,74.9564778 148.634117,75.3833674 C148.963494,75.8102569 149.128179,76.333568 149.128179,76.9533163 C149.128179,77.8114293 148.819393,78.4875082 148.201812,78.9815733 C147.584231,79.4756383 146.725047,79.7226672 145.624235,79.7226672 C145.451033,79.7226672 145.281244,79.717105 145.114868,79.7059806 L145.114868,79.7059806 Z M129.24216,76.9533163 C129.24216,77.8114293 128.933374,78.4875082 128.315793,78.9815733 C127.698211,79.4756383 126.839028,79.7226672 125.738216,79.7226672 C124.724082,79.7226672 123.826978,79.5319782 123.046875,79.1505947 L123.046875,77.2783575 C123.688293,77.5643951 124.231106,77.7659187 124.675331,77.8829341 C125.119556,77.9999495 125.525854,78.0584563 125.894236,78.0584563 C126.336294,78.0584563 126.675417,77.9739465 126.911615,77.8049242 C127.147812,77.6359019 127.26591,77.3845393 127.26591,77.0508287 C127.26591,76.8644708 127.213903,76.6987014 127.10989,76.5535156 C127.005876,76.4083299 126.853108,76.2685635 126.651582,76.1342125 C126.450055,75.9998615 126.039424,75.7853365 125.419676,75.490631 C124.838932,75.217595 124.403382,74.9553978 124.11301,74.7040313 C123.822639,74.4526649 123.590778,74.1601307 123.417422,73.8264201 C123.244066,73.4927095 123.157389,73.102664 123.157389,72.6562719 C123.157389,71.8154945 123.442339,71.154584 124.012247,70.6735207 C124.582156,70.1924573 125.369831,69.9519293 126.375297,69.9519293 C126.869362,69.9519293 127.340667,70.0104361 127.789226,70.1274515 C128.237785,70.2444669 128.706923,70.4091528 129.196654,70.6215141 L128.546572,72.1882126 C128.039505,71.9801852 127.620206,71.8350016 127.288662,71.7526574 C126.957119,71.6703132 126.630997,71.6291417 126.310288,71.6291417 C125.928905,71.6291417 125.636371,71.7179854 125.432677,71.8956755 C125.228984,72.0733656 125.127139,72.305226 125.127139,72.5912636 C125.127139,72.7689537 125.16831,72.9238885 125.250654,73.0560725 C125.332998,73.1882566 125.464097,73.3161049 125.643954,73.4396211 C125.823811,73.5631374 126.249611,73.7852466 126.921366,74.1059555 C127.809816,74.5306781 128.418721,74.9564778 128.748097,75.3833674 C129.077474,75.8102569 129.24216,76.333568 129.24216,76.9533163 Z M155.119528,79.0836244 L151.619528,79.0836244 L151.619528,66.3438669 C151.619528,65.8778121 151.241716,65.5 150.775661,65.5 L121.093867,65.5 C120.627812,65.5 120.25,65.8778121 120.25,66.3438669 L120.25,84.2672442 C120.25,84.733299 120.627812,85.1111111 121.093867,85.1111111 L125.611968,85.1111111 C126.578466,85.1111111 127.361968,85.8946128 127.361968,86.8611111 L127.361968,91.5254862 L133.264566,85.6235997 C133.592748,85.2954566 134.037836,85.1111111 134.501928,85.1111111 L138.012793,85.1111111 L138.854007,88.6111111 L135.22674,88.6111111 L126.84933,96.9875114 C125.746861,98.0898476 123.861968,97.3090327 123.861968,95.75 L123.861968,88.6111111 L121.093867,88.6111111 C118.694815,88.6111111 116.75,86.6662957 116.75,84.2672442 L116.75,66.3438669 C116.75,63.9448155 118.694815,62 121.093867,62 L150.775661,62 C153.174712,62 155.119528,63.9448155 155.119528,66.3438669 L155.119528,79.0836244 Z M153.020902,103.492734 C153.020902,105.36012 151.506491,106.874575 149.637325,106.874575 C147.769939,106.874575 146.255484,105.360164 146.255484,103.492734 C146.255484,101.623612 147.769895,100.109157 149.637325,100.109157 C151.506447,100.109157 153.020902,101.623568 153.020902,103.492734 Z M164.950396,103.492734 C164.950396,105.36012 163.435985,106.874575 161.566819,106.874575 C159.699433,106.874575 158.184978,105.360164 158.184978,103.492734 C158.184978,101.623612 159.699389,100.109157 161.566819,100.109157 C163.435941,100.109157 164.950396,101.623568 164.950396,103.492734 Z M143.502341,82.1272731 L168.021107,82.0818715 C168.429721,82.0836074 168.813988,82.2731146 169.064364,82.5930401 C169.316478,82.9147238 169.406893,83.3320091 169.313,83.7284363 L166.819651,97.5723646 C166.677081,98.1704951 166.143301,98.5930051 165.529533,98.5964823 L145.771575,98.5964823 C145.157808,98.5930104 144.624032,98.1705085 144.481457,97.5723646 L140.76421,81.445257 L136.6,81.445257 C136.047715,81.445257 135.6,80.9975417 135.6,80.445257 L135.6,79.774575 C135.6,79.2222903 136.047715,78.774575 136.6,78.774575 L141.831593,78.774575 C142.447096,78.7780469 142.979131,79.2005481 143.123446,79.798692 L143.502341,82.1272731 Z" transform="translate(-116 -62)"/>
</svg>
