<svg xmlns="http://www.w3.org/2000/svg" width="43" height="43" viewBox="0 0 43 43">
  <g fill="none" fill-rule="evenodd">
    <circle cx="21.5" cy="21.5" r="21" fill="#A061D1" stroke="rgba(255, 255, 255, .6)" stroke-width="1"/>
    <path fill="#FFFFFF" fill-rule="nonzero" d="M13.3660847,29.5940659 C12.3355967,28.646383 11.6898351,27.2868391 11.6898351,25.7764695 C11.6898351,22.9127329 14.0113524,20.5912156 16.875089,20.5912156 C19.7388257,20.5912156 22.0603429,22.9127329 22.0603429,25.7764695 C22.0603429,27.2868391 21.4145813,28.646383 20.3840934,29.5940659 L20.3840934,33.5558783 C20.3840934,34.3545737 19.4939479,34.8309651 18.8293932,34.3879286 L16.875089,33.0850592 L14.9207849,34.3879286 C14.2562302,34.8309651 13.3660847,34.3545737 13.3660847,33.5558783 L13.3660847,29.5940659 L13.3660847,29.5940659 Z M19.3840934,30.3153718 C18.6406057,30.7272334 17.7852314,30.9617234 16.875089,30.9617234 C15.9649466,30.9617234 15.1095723,30.7272334 14.3660847,30.3153718 L14.3660847,33.5558783 L16.875089,31.8832088 L19.3840934,33.5558783 L19.3840934,30.3153718 L19.3840934,30.3153718 Z M23.282208,28.3498171 C23.5899398,27.5687522 23.7589761,26.7178658 23.7589761,25.8274988 C23.7589761,24.8877075 23.5706525,23.9919016 23.2296844,23.1757602 L23.4302052,23.1757602 C23.8243935,23.1757602 24.1439462,22.8562075 24.1439462,22.4620192 C24.1439462,22.0678309 23.8243935,21.7482781 23.4302052,21.7482781 L22.420727,21.7482781 C22.021438,21.2063591 21.5446185,20.7250767 21.0066339,20.320796 L23.4302052,20.320796 C23.8243935,20.320796 24.1439462,20.0012433 24.1439462,19.607055 C24.1439462,19.2128667 23.8243935,18.8933139 23.4302052,18.8933139 L17.7202767,18.8933139 C17.6090902,18.8933139 17.5038416,18.9187377 17.4100273,18.964089 C17.2334955,18.9505211 17.0550991,18.9436117 16.875089,18.9436117 C16.0183059,18.9436117 15.1980812,19.1001368 14.4414503,19.3861514 L14.4414503,10.6758374 C14.4414503,10.1235526 14.8891656,9.67583736 15.4414503,9.67583736 L28.6140589,9.67583736 C29.1663436,9.67583736 29.6140589,10.1235526 29.6140589,10.6758374 L29.6140589,27.3498171 C29.6140589,27.9021018 29.1663436,28.3498171 28.6140589,28.3498171 L23.282208,28.3498171 L23.282208,28.3498171 Z M17.7202767,13.1833855 C17.3260884,13.1833855 17.0065357,13.5029383 17.0065357,13.8971266 C17.0065357,14.2913149 17.3260884,14.6108676 17.7202767,14.6108676 L26.2851694,14.6108676 C26.6793577,14.6108676 26.9989104,14.2913149 26.9989104,13.8971266 C26.9989104,13.5029383 26.6793577,13.1833855 26.2851694,13.1833855 L17.7202767,13.1833855 Z M17.7202767,16.0383497 C17.3260884,16.0383497 17.0065357,16.3579025 17.0065357,16.7520908 C17.0065357,17.1462791 17.3260884,17.4658318 17.7202767,17.4658318 L23.4302052,17.4658318 C23.8243935,17.4658318 24.1439462,17.1462791 24.1439462,16.7520908 C24.1439462,16.3579025 23.8243935,16.0383497 23.4302052,16.0383497 L17.7202767,16.0383497 Z"/>
  </g>
</svg>
