<svg xmlns="http://www.w3.org/2000/svg" width="32" height="45" viewBox="0 0 32 45">
  <path fill="#FFFFFF" d="M765.321132,448.770247 C770.385267,448.770247 774.49056,452.875539 774.49056,457.939675 C774.49056,460.61035 773.348798,463.014352 771.52677,464.690185 L771.526337,471.69652 C771.526337,473.108906 769.952233,473.95134 768.777057,473.167889 L765.321132,470.863939 L761.865206,473.167889 C760.69003,473.95134 759.115926,473.108906 759.115926,471.69652 L759.116422,464.691039 C757.293853,463.015169 756.151703,460.610804 756.151703,457.939675 C756.151703,452.875539 760.256996,448.770247 765.321132,448.770247 Z M769.758016,465.966092 C768.443247,466.69443 766.930615,467.109103 765.321132,467.109103 C763.711648,467.109103 762.199017,466.69443 760.884248,465.966092 L760.884293,471.69652 L765.321132,468.738627 L769.75797,471.69652 Z M786.848297,429.467859 C787.400582,429.467859 787.848297,429.915574 787.848297,430.467859 L787.848297,461.490296 C787.848297,462.042581 787.400582,462.490296 786.848297,462.490296 L776.651025,462.490906 C777.195359,461.109531 777.494366,459.60464 777.494366,458.029913 C777.494366,456.367784 777.161247,454.783458 776.558129,453.340058 L776.912978,453.340668 C777.610048,453.340668 778.175134,452.775582 778.175134,452.078513 C778.175134,451.381443 777.610048,450.816357 776.912978,450.816357 L775.127354,450.815683 C774.421369,449.85765 773.578353,449.0068 772.627226,448.292053 L776.912978,448.292046 C777.610048,448.292046 778.175134,447.726959 778.175134,447.02989 C778.175134,446.332821 777.610048,445.767734 776.912978,445.767734 L766.815733,445.767734 C766.619682,445.767734 766.434072,445.812434 766.268536,445.892197 C765.956031,445.86894 765.640013,445.856679 765.321132,445.856679 C763.805606,445.856679 762.354766,446.133626 761.016457,446.639671 L761.017567,430.467859 C761.017567,429.915574 761.465282,429.467859 762.017567,429.467859 L786.848297,429.467859 Z M776.912978,440.719112 L766.815733,440.719112 C766.118664,440.719112 765.553577,441.284198 765.553577,441.981267 C765.553577,442.63477 766.050235,443.172272 766.686685,443.236907 L766.815733,443.243423 L776.912978,443.243423 C777.610048,443.243423 778.175134,442.678337 778.175134,441.981267 C778.175134,441.284198 777.610048,440.719112 776.912978,440.719112 Z M781.961601,435.670489 L766.815733,435.670489 C766.118664,435.670489 765.553577,436.235576 765.553577,436.932645 C765.553577,437.586147 766.050235,438.123649 766.686685,438.188284 L766.815733,438.194801 L781.961601,438.194801 C782.65867,438.194801 783.223756,437.629714 783.223756,436.932645 C783.223756,436.235576 782.65867,435.670489 781.961601,435.670489 Z" transform="translate(-756 -429)"/>
</svg>
