<svg xmlns="http://www.w3.org/2000/svg" width="95" height="35" viewBox="0 0 95 35"><g fill="#FFF" fill-rule="evenodd"><path d="M12.373.512h10.382c9.48 0 11.737 2.257 11.737 11.737V22.63c0 9.48-2.257 11.737-11.737 11.737H12.373C2.893 34.367.636 32.11.636 22.63V12.25C.636 2.769 2.893.512 12.373.512zm15.98 11.646c.135-.541 0-.903-.768-.903h-2.482c-.632 0-.903.316-1.084.678 0 0-1.264 3.07-3.024 5.055-.587.587-.858.768-1.129.768-.135 0-.406-.18-.406-.722v-4.876c0-.632-.18-.903-.722-.903h-3.883c-.406 0-.632.271-.632.587 0 .587.903.723.993 2.393v3.611c0 .813-.135.948-.45.948-.859 0-2.89-3.07-4.064-6.59-.225-.678-.451-.949-1.083-.949H7.136c-.722 0-.858.316-.858.678 0 .632.858 3.882 3.883 8.17 2.031 2.934 4.92 4.514 7.538 4.514 1.58 0 1.76-.36 1.76-.948v-2.212c0-.722.136-.857.633-.857.36 0 .993.18 2.437 1.58 1.67 1.67 1.942 2.437 2.89 2.437h2.527c.723 0 1.039-.36.858-1.038-.226-.677-1.038-1.715-2.076-2.889-.587-.677-1.445-1.4-1.716-1.76-.36-.452-.27-.678 0-1.084 0 0 3.025-4.243 3.34-5.688z"/><path d="M62.435 17.575c0 4.695-3.476 8.216-7.493 8.216-2.619 0-4.199-1.58-4.199-1.58v6.997h-4.017V9.54h2.98l.676 1.58s1.76-1.76 4.56-1.76c3.972.044 7.493 3.52 7.493 8.215zM54.4 21.954c2.257 0 4.018-1.76 4.018-4.38 0-2.617-1.761-4.378-4.018-4.378-2.257 0-4.018 1.76-4.018 4.379 0 2.618 1.76 4.379 4.018 4.379zm23.429-6.275v9.931h-2.98l-.677-1.58s-1.76 1.76-4.56 1.76c-3.475 0-5.416-1.94-5.416-4.559 0-3.16 2.257-5.417 9.615-5.417 0-1.76-1.038-2.798-2.618-2.798-2.077 0-2.438 1.76-2.438 1.76h-4.018c.362-2.98 2.8-5.417 6.817-5.417 3.656.045 6.275 2.664 6.275 6.32zm-4.018 3.656v-.677c-4.695 0-5.598.858-5.598 2.257 0 .858.858 1.761 2.077 1.761 2.122 0 3.52-1.4 3.52-3.34zm4.875-9.75h4.198l4.018 10.473 3.657-10.473h4.198s-6.094 15.71-6.456 16.567c-1.58 3.837-2.979 5.236-5.597 5.236-.677 0-1.4-.18-1.4-.18v-3.296c1.761 0 2.664-.857 3.16-2.076l.362-.858-6.14-15.393z" fill-rule="nonzero"/></g></svg>