<svg width="126" height="34" viewBox="0 0 126 34" xmlns="http://www.w3.org/2000/svg"><g fill="#fff"><path d="M10.595.5c2.245 0 2.951 1.61 3.543 3.219l6.26 17.144c.047.134.015.353-.19.433-.208.078-3.24 1.257-3.408 1.32a.325.325 0 0 1-.416-.197c-.063-.165-1.322-3.65-1.463-4.038H6.27c-.136.389-1.41 3.88-1.467 4.038-.058.16-.238.27-.417.197l-3.405-1.32a.342.342 0 0 1-.193-.433c.215-.599 5.962-16.324 6.255-17.144C7.614 2.135 8.344.5 10.594.5zM.327 29.096A.331.331 0 0 0 0 29.43v3.736a.33.33 0 0 0 .327.333h20.527a.33.33 0 0 0 .33-.333V29.43a.332.332 0 0 0-.33-.335H.327zM10.575 5.718l-2.924 8.78h5.895l-2.934-8.78h-.037zM38.403 20l-.777-2.549h-3.903L32.946 20H30.5l3.78-10.752h2.775L40.85 20h-2.446zm-1.319-4.453a753.9 753.9 0 0 1-1.212-3.919 11.06 11.06 0 0 1-.194-.717c-.16.625-.622 2.17-1.384 4.636h2.79zM49.353 20h-2.234v-6.511H45.06c-.157 1.83-.347 3.197-.572 4.098-.224.9-.523 1.552-.897 1.955-.373.403-.863.604-1.468.604-.518 0-.943-.078-1.275-.234v-1.787c.24.098.479.146.718.146.278 0 .511-.2.7-.6.187-.4.356-1.068.505-2.003.149-.935.277-2.22.384-3.856h6.197V20zm4.577-5.024h1.575c1.26 0 2.192.2 2.798.6.605.4.908 1.006.908 1.817 0 1.738-1.206 2.607-3.618 2.607h-3.897v-8.188h2.234v3.164zm3.047 2.446c0-.318-.127-.547-.38-.689-.255-.141-.633-.212-1.136-.212h-1.53v1.934h1.56c.99 0 1.486-.345 1.486-1.033zm9.91-5.654c1.367.112 2.439.534 3.215 1.267.776.732 1.165 1.69 1.165 2.87 0 1.207-.384 2.172-1.15 2.897-.767.726-1.844 1.144-3.23 1.257v3.545h-2.073v-3.545c-1.382-.127-2.462-.56-3.241-1.3-.779-.74-1.168-1.691-1.168-2.853 0-1.236.376-2.21 1.128-2.926.752-.716 1.845-1.12 3.281-1.212V8.604h2.073v3.164zm-4.182 4.138c0 .688.188 1.249.564 1.68.376.433.89.693 1.545.78v-4.921c-.63.083-1.139.349-1.527.798-.388.45-.582 1.004-.582 1.663zm6.27 0c0-.645-.184-1.188-.55-1.63-.366-.442-.88-.71-1.538-.802v4.893c.65-.088 1.16-.35 1.53-.784.372-.435.557-.994.557-1.677zM78.312 20l-.433-1.113h-.058c-.376.473-.763.802-1.161.985-.398.183-.917.274-1.557.274-.786 0-1.405-.224-1.856-.673-.452-.45-.678-1.09-.678-1.92 0-.868.304-1.51.912-1.922.608-.412 1.525-.64 2.75-.685l1.421-.044v-.359c0-.83-.424-1.245-1.274-1.245-.654 0-1.423.198-2.307.594l-.74-1.51c.942-.492 1.987-.739 3.135-.739 1.098 0 1.94.24 2.527.718.586.478.879 1.206.879 2.182V20h-1.56zm-.66-3.794l-.864.03c-.65.019-1.133.136-1.45.35-.318.216-.476.543-.476.982 0 .63.361.945 1.084.945.517 0 .931-.149 1.241-.447.31-.297.465-.693.465-1.186v-.674zm3.794.689v-1.832h3.933v1.832h-3.933zM95.905 20h-2.578l-3.882-5.427V20h-2.27V9.292h2.27v5.186l3.838-5.186H95.7l-3.904 5.142L95.906 20zm8.504 0h-2.234v-6.511h-2.058c-.157 1.83-.347 3.197-.572 4.098-.224.9-.523 1.552-.897 1.955-.373.403-.863.604-1.468.604-.518 0-.943-.078-1.275-.234v-1.787c.24.098.479.146.718.146.278 0 .512-.2.7-.6.187-.4.356-1.068.505-2.003.149-.935.277-2.22.384-3.856h6.197V20zm4.504-8.188v3.237c0 .342-.056 1.177-.168 2.505l3.779-5.742h2.688V20h-2.16v-3.267c0-.58.048-1.401.146-2.46L109.433 20h-2.68v-8.188h2.16zm14.011 0h2.461l-3.244 3.925L125.67 20h-2.534l-3.347-4.153V20h-2.234v-8.188h2.234v3.977l3.134-3.977z"/></g></svg>