<svg xmlns="http://www.w3.org/2000/svg" width="74" height="30" viewBox="0 0 74 30">
  <path fill="#fff" d="M26.7305953 2.43456659L35.1090657 2.43456659C39.2908863 2.43456659 42.1677417 5.32625108 42.1677417 9.56738833 42.1677417 13.7492089 39.2019114 16.6260643 35.0052616 16.6260643L30.0523251 16.6260643 30.0523251 23.8330317 26.7305953 23.8330317 26.7305953 2.43456659zM30.0523251 5.37073854L30.0523251 13.7047215 34.2341457 13.7047215C37.0961719 13.7047215 38.7718661 12.2218064 38.7718661 9.56738833 38.7718661 6.85365363 37.1554886 5.37073854 34.2341457 5.37073854L30.0523251 5.37073854zM49.417536 21.4158801C51.8198584 21.4158801 53.5993562 19.8884775 53.5993562 17.8865421L53.5993562 16.5370893 49.6548024 16.7891849C47.4304295 16.9374764 46.4220471 17.6937631 46.4220471 19.1173617 46.4220471 20.5706185 47.682525 21.4158801 49.417536 21.4158801zM48.6019323 24.0999564C45.4878106 24.0999564 43.2189505 22.2166543 43.2189505 19.2656532 43.2189505 16.3591395 45.3840066 14.6834454 49.2247569 14.446179L53.5993562 14.1940835 53.5993562 12.8001433C53.5993562 11.0947909 52.4723406 10.130896 50.2924555 10.130896 48.5129576 10.130896 47.282138 10.7833787 46.9262383 11.9252233L43.8417749 11.9252233C44.1680162 9.15217207 46.7779468 7.37267393 50.4407472 7.37267393 54.4891054 7.37267393 56.7727949 9.38943848 56.7727949 12.8001433L56.7727949 23.8330317 53.7031606 23.8330317 53.7031606 21.5641716 53.4510651 21.5641716C52.4871703 23.1805491 50.722501 24.0999564 48.6019323 24.0999564zM61.0419292 29.6905465C60.7750046 29.6905465 60.018718 29.6608882 59.7221351 29.6164007L59.7221351 26.8730077C59.9742307 26.9174952 60.4635926 26.9323244 60.7601755 26.9323244 62.2727487 26.9323244 63.1328397 26.3095 63.6815181 24.6782934L63.9187845 23.8923483 58.0760993 7.68408609 61.5461203 7.68408609 65.5944785 20.5113019 65.8465741 20.5113019 69.8801032 7.68408609 73.2611501 7.68408609 67.2405144 24.5003435C65.8614038 28.4300686 64.3340009 29.6905465 61.0419292 29.6905465zM17.5950595 13.2548708C17.5838774 11.1918619 18.511993 9.63476798 20.3905884 8.48802733 19.3394696 6.97590367 17.7516091 6.14395458 15.6549623 5.98093754 13.6701367 5.82354175 11.5008063 7.14454198 10.7068761 7.14454198 9.86821737 7.14454198 7.94489341 6.03715029 6.43530772 6.03715029 3.31549737 6.08774177-1.17417187e-12 8.53861887-1.17417187e-12 13.5246921-1.17417187e-12 14.9974669.268370809 16.5208331.805112365 18.0891696 1.52076777 20.1521785 4.10383657 25.2113283 6.7987265 25.1270092 8.20767314 25.0932815 9.20288145 24.1208005 11.0367484 24.1208005 12.8147049 24.1208005 13.7372295 25.1270092 15.3083167 25.1270092 18.025571 25.0876602 20.3626332 20.4894551 21.0447423 18.420825 17.3993724 16.6950927 17.5950595 13.3616751 17.5950595 13.2548708zM14.4772269 4.04381274C16.0241706 2.23664677 15.882509.591233294 15.8371774-5.15143483e-14 14.4715605.078087423 12.8906181.914738349 11.989651 1.9466078 10.9980204 3.05098703 10.414375 4.41751684 10.5390372 5.95695451 12.0179832 6.06850796 13.3666008 5.32109982 14.4772269 4.04381274z"/>
</svg>
