<svg xmlns="http://www.w3.org/2000/svg" width="78" height="31" viewBox="0 0 78 31">
  <g fill="none" transform="translate(.467)">
    <path fill="#5F6368" d="M36.5268571 15.1598857L36.5268571 24.1498857 33.6748571 24.1498857 33.6748571 1.94857143 41.2388571 1.94857143C43.0624958 1.91047773 44.8258006 2.60240748 46.1368571 3.87057143 47.4633445 5.06373185 48.2093181 6.77204364 48.1828571 8.556 48.2208499 10.3499204 47.4735471 12.0709813 46.1368571 13.268 44.8141905 14.5292571 43.1815238 15.1592952 41.2388571 15.1581143L36.5268571 15.1581143 36.5268571 15.1598857zM36.5268571 4.68188571L36.5268571 12.4318857 41.3097143 12.4318857C42.369948 12.4633127 43.3943612 12.0466022 44.1316 11.284 44.8643657 10.5715878 45.277784 9.59305355 45.277784 8.57105714 45.277784 7.54906074 44.8643657 6.57052646 44.1316 5.85811429 43.4033027 5.07912249 42.3757103 4.65015264 41.3097143 4.68011429L36.5268571 4.68011429 36.5268571 4.68188571zM54.7548571 8.46388571C56.8628571 8.46388571 58.526819 9.0272 59.7467429 10.1538286 60.9666667 11.2804571 61.5760381 12.8251429 61.5748589 14.7878857L61.5748589 24.1498857 58.8468571 24.1498857 58.8468571 22.0418857 58.7228571 22.0418857C57.5419048 23.7778857 55.9712381 24.6458857 54.0108571 24.6458857 52.3374476 24.6458857 50.9374286 24.1498857 49.8108 23.1578857 48.7158193 22.2358064 48.0949709 20.8691589 48.1208571 19.4378857 48.1208571 17.8660381 48.7148762 16.616 49.9029143 15.6877714 51.0909524 14.7595429 52.6769714 14.2942476 54.6609714 14.2918857 56.3544571 14.2918857 57.7491619 14.6018857 58.8450857 15.2218857L58.8450857 14.57C58.8516255 13.5943191 58.4190711 12.6674168 57.6670857 12.0457143 56.9128934 11.3652697 55.929997 10.9939954 54.9142857 11.0058857 53.321181 11.0058857 52.0605143 11.6778476 51.1322857 13.0217714L48.6204 11.4398857C50.0021143 9.45588571 52.0469333 8.46388571 54.7548571 8.46388571zM51.0649397 19.4998857C51.0610916 20.2363418 51.4134802 20.9292407 52.0109143 21.3598857 52.641681 21.8560539 53.4245849 22.1188994 54.2269714 22.1038857 55.4304716 22.1018745 56.584093 21.6228445 57.4350286 20.7717714 58.3797905 19.8825143 58.8521714 18.8391429 58.8521714 17.6416571 57.9629143 16.9330857 56.7229143 16.5788 55.1321714 16.5788 53.9736571 16.5788 53.0076381 16.8580952 52.2341143 17.4166857 51.4529143 17.9835429 51.0649397 18.6726286 51.0649397 19.4998857L51.0649397 19.4998857z"/>
    <polygon fill="#5F6368" points="77.234 8.96 67.711 30.846 64.767 30.846 68.301 23.188 62.039 8.96 65.139 8.96 69.665 19.872 69.727 19.872 74.129 8.96"/>
    <path fill="#4285F4" d="M25.0019545,13.2219429 C25.0030183,12.3527949 24.9295298,11.4851568 24.7822857,10.6285714 L12.7542857,10.6285714 L12.7542857,15.5407429 L19.6433714,15.5407429 C19.3585099,17.1260865 18.4383095,18.5262246 17.0960571,19.4166286 L17.0960571,22.6052 L21.2075429,22.6052 C23.6149143,20.3856 25.0019545,17.1031429 25.0019545,13.2219429 Z"/>
    <path fill="#34A853" d="M12.7542857,25.6857143 C16.1961714,25.6857143 19.0942286,24.5555429 21.2075429,22.6069714 L17.0960571,19.4184 C15.9517143,20.1942857 14.4778857,20.6371429 12.7542857,20.6371429 C9.42754286,20.6371429 6.60388571,18.3945143 5.59417143,15.3724571 L1.35868571,15.3724571 L1.35868571,18.6584571 C3.52364403,22.9664953 7.93285054,25.6854945 12.7542857,25.6857143 Z"/>
    <path fill="#FBBC04" d="M5.59417143,15.3724571 C5.06037171,13.7888786 5.06037171,12.0739785 5.59417143,10.4904 L5.59417143,7.2044 L1.35868571,7.2044 C-0.452120195,10.8077123 -0.452120195,15.0551449 1.35868571,18.6584571 L5.59417143,15.3724571 Z"/>
    <path fill="#EA4335" d="M12.7542857,5.22571429 C14.5731665,5.19599859 16.3306881,5.88322646 17.6469714,7.13885714 L17.6469714,7.13885714 L21.2872571,3.49857143 C18.978937,1.33047715 15.9209254,0.140157093 12.7542857,0.177142857 C7.93285054,0.177362599 3.52364403,2.89636186 1.35868571,7.2044 L5.59417143,10.4904 C6.60388571,7.46834286 9.42754286,5.22571429 12.7542857,5.22571429 Z"/>
  </g>
</svg>
