<svg xmlns="http://www.w3.org/2000/svg" width="146" height="28" viewBox="0 0 146 28"><path fill="#006FA8" fill-rule="evenodd" d="M134.612 10.589l2.453-2.19 2.214 2.424-2.451 2.19-2.216-2.424zm7.356 3.623l1.634-1.46 1.503 1.616-1.66 1.46-1.477-1.616zm-4.192-9.644l1.635-1.485 1.477 1.641-1.636 1.46-1.476-1.616zm2.11 4.821l1.634-1.46 1.476 1.617-1.634 1.46-1.477-1.617zm-1.003 11.26l2.453-2.19 2.213 2.424-2.451 2.215-2.215-2.449zm-2.161-4.926l2.451-2.19 2.215 2.45-2.452 2.19-2.214-2.45zm-4.377-10.034l2.452-2.19 2.215 2.424-2.452 2.215-2.215-2.45zm-6.036 1.564l3.294-2.92 2.953 3.258-3.296 2.92-2.951-3.258zM131 18.433l3.269-2.944 2.98 3.257-3.297 2.92-2.952-3.232zm-2.347-5.629l3.295-2.92 2.954 3.258-3.297 2.92-2.952-3.258zM131.185.007c2.162 0 4.218.495 6.064 1.381.29.13.58.287.87.443l-1.266 1.121-1.897-1.954-3.27 2.866-1.924-2.059-6.011 5.343 3.848 4.196-1.502 1.303 3.797 4.196-1.503 1.303 5.431 5.968 3.215-2.919 2.796 3.128a15.61 15.61 0 0 1-1.819 1.2 13.902 13.902 0 0 1-6.802 1.77c-7.62 0-13.815-6.123-13.815-13.654C117.37 6.158 123.566.007 131.185.007zM15.708 23.518H13.25l-3.093-11.413h-.16L6.992 23.518H4.536L.849 7.304h2.549l2.548 12.098h.16L9.063 7.304h2.026l3.164 12.098h.159l2.321-12.098h2.663l-3.688 16.214zm13.952-2.602v1.738c-1.024.595-2.389 1.053-4.028 1.053-3.822 0-5.392-2.379-5.392-5.992 0-3.477 1.751-5.993 5.165-5.993 2.844 0 4.597 1.854 4.597 5.58v.847h-7.418c0 2.743 1.114 3.955 3.459 3.955 1.228 0 2.366-.435 3.617-1.188zm-7.03-4.3h5.21c-.114-2.401-1.275-3.36-2.503-3.36-1.388 0-2.459 1.074-2.708 3.36zm12.689-3.913c.68-.364 1.841-.846 3.07-.846 2.823 0 4.348 1.967 4.348 5.626 0 4.277-2.049 6.358-5.347 6.358-1.207 0-3.073-.39-4.439-1.122V6.758l2.368-.571v6.516zm-.024 9.17c.728.32 1.525.367 2.095.367 1.684 0 2.957-1.053 2.957-4.757 0-2.904-1.047-3.842-2.57-3.842-.912 0-1.571.252-2.482.754v7.478zm17.684-1.795h.114l4.869-12.784h2.823v16.215h-2.458V11.754h-.205l-4.643 11.755h-1.455L47.38 12.03h-.204v11.48h-2.048V7.294h2.754l5.097 12.784zm9.86-2.363c0-4.004 2.186-5.993 5.189-5.993 3.005 0 5.189 1.99 5.189 5.993 0 3.91-2.071 5.992-5.19 5.992-3.117 0-5.187-2.083-5.187-5.992zm7.987 0c0-3.087-1.25-4.39-2.798-4.39-1.502 0-2.8 1.303-2.8 4.39 0 3.133 1.185 4.39 2.8 4.39 1.615 0 2.798-1.257 2.798-4.39zm4.19-4.3c1.024-.618 3.187-1.693 5.803-1.693 2.73 0 3.753 1.075 3.753 3.43v8.28h-2.365v-7.753c0-1.807-.886-2.127-2.048-2.127-.91 0-2.071.413-2.776.824v9.056h-2.367V13.416zm21.596 7.501v1.738c-1.023.595-2.389 1.053-4.028 1.053-3.82 0-5.391-2.379-5.391-5.992 0-3.477 1.75-5.993 5.165-5.993 2.845 0 4.598 1.854 4.598 5.58v.847h-7.42c0 2.743 1.116 3.955 3.46 3.955 1.227 0 2.367-.435 3.616-1.188zm-7.03-4.3h5.21c-.112-2.401-1.274-3.36-2.503-3.36-1.388 0-2.456 1.074-2.708 3.36zm16.826-4.894h2.435l-4.119 11.433c-1.14 3.156-2.526 4.803-5.142 4.803v-1.874c1.548 0 2.503-1.236 3.05-2.929l-4.37-11.433h2.504l2.913 8.416h.136l2.593-8.416z"/></svg>