<svg width="98" height="38" viewBox="0 0 98 38" xmlns="http://www.w3.org/2000/svg"><path fill-rule="evenodd" fill="#2C9B47" d="M49.306 9.801h-.656c-.076.39-.15.7-.222.928-.07.229-.174.4-.306.514-.134.113-.322.186-.566.214-.24.028-.578.043-1.005.043-.401 0-.712-.015-.937-.043-.223-.028-.392-.08-.506-.157a.496.496 0 0 1-.215-.335 2.998 2.998 0 0 1-.042-.565V7.27h1.342a7.987 7.987 0 0 1 .892.058c.167.019.326.05.48.093.152.043.281.098.385.165V6.314c-.104.067-.233.12-.386.158-.152.039-.312.07-.48.093a4.146 4.146 0 0 1-.483.043c-.158.005-.293.008-.408.008h-1.342v-3.3c0-.22.031-.362.092-.429s.193-.1.393-.1h1.072c.371 0 .672.014.908.042.232.03.425.096.576.2.154.106.277.263.372.472.096.21.191.49.286.842h.529v-2.17H42.18v.32c.04.01.08.03.184.058.105.029.185.072.243.129a.41.41 0 0 1 .108.241c.014.106.021.244.021.415v7.615c0 .172-.007.31-.021.415a.407.407 0 0 1-.107.242.547.547 0 0 1-.244.129c-.104.03-.145.048-.185.057v.32h7.127V9.8zm4-6.472c0-.094.008-.178.022-.25a.297.297 0 0 1 .1-.17.564.564 0 0 1 .243-.095c.11-.018.26-.027.449-.027.257 0 .498.033.722.1.223.067.418.184.586.35.166.167.295.389.385.664.09.276.135.623.135 1.043 0 .838-.12 1.483-.363 1.936-.243.452-.67.677-1.278.677h-1V3.33zm.557 8.465c-.04-.01-.08-.028-.185-.057a.54.54 0 0 1-.243-.129.41.41 0 0 1-.107-.242 3.265 3.265 0 0 1-.021-.415V8.173h.985c.514 0 1.004-.04 1.472-.115a3.317 3.317 0 0 0 1.235-.45c.356-.225.64-.541.85-.95.21-.41.315-.952.315-1.628 0-.648-.1-1.162-.3-1.543-.2-.38-.47-.669-.808-.864a3.03 3.03 0 0 0-1.164-.372 11.516 11.516 0 0 0-1.356-.078h-3.928v.32c.039.01.08.03.184.058.105.029.186.072.243.129a.412.412 0 0 1 .108.241c.013.106.021.244.021.415v7.615c0 .172-.008.31-.02.415a.405.405 0 0 1-.11.242.529.529 0 0 1-.242.129c-.104.03-.145.048-.184.057v.32h3.255v-.32zm-28.645-.802c.386.434.873.765 1.465.994.59.228 1.294.341 2.114.341a6.814 6.814 0 0 0 2.064-.306c.28-.09.53-.188.75-.292.218-.105.408-.206.57-.3l-.315-.614-.499.22a4.14 4.14 0 0 1-1.157.328c-.238.035-.514.052-.828.052-.61 0-1.107-.115-1.493-.343a2.44 2.44 0 0 1-.906-.942c-.22-.401-.37-.872-.45-1.416a11.927 11.927 0 0 1-.123-1.77c0-.495.024-.998.072-1.507.047-.51.162-.967.342-1.372.181-.404.448-.736.801-.993.352-.258.833-.384 1.442-.384.553 0 1.03.15 1.436.449.405.3.654.754.75 1.364h.628V2.515a3.54 3.54 0 0 0-.635-.22 6.055 6.055 0 0 0-.764-.144c-.267-.033-.53-.059-.786-.079-.257-.018-.49-.028-.7-.028-.877 0-1.623.12-2.243.358-.619.238-1.125.582-1.521 1.035-.395.452-.686 1.005-.87 1.657-.186.652-.28 1.393-.28 2.22 0 .781.094 1.481.28 2.1.184.62.47 1.145.856 1.578zm-1.136 4.646H96.83v-.977H24.082v.977zm38.223-4.187a.62.62 0 0 1-.307-.166.553.553 0 0 1-.136-.299 3.236 3.236 0 0 1-.028-.471V6.358h.856c.772 0 1.317.197 1.636.592.318.396.48 1.041.48 1.936 0 .59-.056 1.058-.166 1.4-.109.343-.254.605-.436.786-.18.18-.387.298-.62.35a3.25 3.25 0 0 1-.722.078c-.238 0-.424-.016-.557-.05zm2.108.577a3.42 3.42 0 0 0 1.336-.42c.39-.224.704-.558.942-1 .237-.445.357-1.05.357-1.822 0-.553-.079-1.022-.236-1.407a2.08 2.08 0 0 0-.757-.942c-.347-.243-.8-.419-1.357-.53-.557-.108-1.236-.163-2.036-.163h-.828v-2.37c0-.26.052-.42.156-.487.106-.067.325-.1.658-.1h1.2c.37 0 .673.014.907.042.233.03.425.096.579.2.152.106.276.263.37.472.096.21.19.49.286.842h.53v-2.17h-7.37v.32c.039.01.08.03.184.058.104.029.186.072.243.129a.404.404 0 0 1 .107.241c.014.106.022.244.022.415v7.615c0 .172-.008.31-.022.415a.398.398 0 0 1-.107.242.534.534 0 0 1-.243.129c-.104.03-.145.048-.184.057v.32h3.74c.515 0 1.022-.028 1.523-.086zM35.81 6.358h.858c.77 0 1.316.197 1.635.592.319.396.478 1.041.478 1.936 0 .59-.055 1.058-.164 1.4-.11.343-.254.605-.436.786-.181.18-.388.298-.621.35a3.245 3.245 0 0 1-.722.078 2.44 2.44 0 0 1-.557-.05.622.622 0 0 1-.306-.165.555.555 0 0 1-.137-.299 3.202 3.202 0 0 1-.028-.471V6.358zM33.68 8.966v2c0 .164-.008.298-.021.4a.406.406 0 0 1-.107.242.54.54 0 0 1-.244.129c-.103.03-.144.048-.184.057v.32h3.74a13 13 0 0 0 1.521-.086 3.401 3.401 0 0 0 1.336-.42c.392-.224.706-.558.944-1 .238-.445.358-1.05.358-1.822 0-.553-.08-1.022-.237-1.407a2.09 2.09 0 0 0-.757-.942c-.348-.243-.8-.419-1.356-.53-.557-.108-1.237-.163-2.036-.163h-.83v-2.37c0-.26.053-.42.159-.487.104-.067.323-.1.657-.1h1.2c.37 0 .672.014.906.042.233.03.427.096.58.2.152.106.274.263.37.472.096.21.19.49.286.842h.529v-2.17h-7.37v.32c.04.01.08.03.184.058.105.029.186.072.243.129a.409.409 0 0 1 .108.241c.013.103.021.237.021.401v5.645-.001zm54.328 2.4a.403.403 0 0 1-.107.242.538.538 0 0 1-.244.129c-.105.03-.144.048-.184.057v.32h3.241v-.32c-.04-.01-.08-.028-.183-.057a.524.524 0 0 1-.243-.129.393.393 0 0 1-.109-.242 3.258 3.258 0 0 1-.02-.415V3.337c0-.172.006-.31.02-.416a.399.399 0 0 1 .109-.241.536.536 0 0 1 .243-.13c.103-.028.144-.047.183-.056v-.321h-3.241v.32c.04.01.08.03.184.058.105.029.186.072.244.129a.41.41 0 0 1 .107.241c.013.106.02.244.02.415v7.615c0 .172-.007.31-.02.415zm2.97-3.01a188.935 188.935 0 0 1 1.592 2.215c.192.267.36.53.509.786.147.257.282.51.407.757l3.356.03A56.804 56.804 0 0 1 95 10.155c-.304-.342-.589-.665-.855-.97a28.09 28.09 0 0 1-.757-.9 16.663 16.663 0 0 1-1.315-1.856l.157-.201c.237-.304.52-.654.843-1.05.323-.395.657-.785 1-1.17.343-.386.685-.743 1.028-1.072a5.88 5.88 0 0 1 .93-.75v-.014H93.7c-.077.2-.193.445-.35.735-.157.29-.342.603-.55.936-.21.333-.428.68-.658 1.035-.228.357-.456.698-.686 1.022l-.634.9c-.196.275-.36.498-.494.671.24.324.455.619.65.885zm-10.677 3.438c-.039-.01-.08-.028-.184-.057a.542.542 0 0 1-.244-.129.403.403 0 0 1-.107-.242 3.062 3.062 0 0 1-.021-.415v-3.78h3.842v3.78c0 .172-.007.31-.02.415a.41.41 0 0 1-.109.242.54.54 0 0 1-.243.129c-.104.03-.145.048-.184.057v.32h3.241v-.32c-.04-.01-.08-.028-.185-.057a.54.54 0 0 1-.243-.129.405.405 0 0 1-.107-.242 3.258 3.258 0 0 1-.021-.415V8.966l-.014.044V5.279l.014.043V3.336c0-.17.007-.31.02-.415a.41.41 0 0 1 .108-.241.552.552 0 0 1 .243-.13c.104-.028.145-.047.185-.056v-.321h-3.241v.32c.04.01.08.03.184.058.105.029.186.072.243.129a.418.418 0 0 1 .109.241c.013.106.02.244.02.415v3.18h-3.842v-3.18c0-.17.006-.31.021-.415a.409.409 0 0 1 .107-.241.554.554 0 0 1 .244-.13c.104-.028.145-.047.184-.056v-.321h-3.241v.32c.039.01.08.03.185.058a.54.54 0 0 1 .242.129.409.409 0 0 1 .108.241c.013.102.021.235.021.398V10.97c0 .164-.008.295-.02.397a.408.408 0 0 1-.108.242.535.535 0 0 1-.243.129c-.104.03-.145.048-.185.057v.32h3.241v-.32zm-8.884-7.95l1.343 4.014h-2.714l1.371-4.014zm-2.293 7.048c.13-.575.36-1.368.694-2.378h3.155l.43 1.272c.19.57.343 1.053.456 1.442.115.39.181.686.2.886h2.53a19.78 19.78 0 0 1-.394-.807 17.339 17.339 0 0 1-.563-1.422L73.36 3.373a4.72 4.72 0 0 1-.207-.722c-.034-.186-.06-.345-.08-.478h-2.84v.32c.039.01.08.03.184.058.105.029.186.072.243.129a.418.418 0 0 1 .108.241c.007.061.013.135.017.218a1.948 1.948 0 0 1-.125.648l-1.586 3.927c-.294.735-.548 1.349-.756 1.843-.21.495-.389.91-.536 1.242a10.972 10.972 0 0 1-.68 1.315h1.801c.02-.238.094-.645.221-1.222zM14.835.5c-.323-.215-.587-.325-.936-.5L6.134 4.302l-.002.003H6.13L2.38 2.171c-.206.233-.4.452-.581.705l4.336 2.442 8.7-4.82zM5.971 10.96l-.002.004h-.002l-5.93-3.34a9.549 9.549 0 1 0 18.078-3.39L5.972 10.96zm11.624-7.646a9.634 9.634 0 0 0-.517-.73L6.023 8.707l-.003.004-.002-.001L.443 5.57a9.463 9.463 0 0 0-.243.932l5.772 3.25 11.624-6.44zM16.368 1.77c-.196-.2-.401-.39-.614-.573l-9.619 5.33-.002.003-.002-.001-4.903-2.761c-.147.26-.282.53-.405.805l5.2 2.928L16.367 1.77z"/><path d="M33.132 36.82h-1.204v-1.702h-3.715v1.703h-1.204v-2.804h.533c.195-.458.35-.966.464-1.522.115-.556.204-1.13.267-1.72.063-.59.103-1.192.12-1.806.018-.613.026-1.206.026-1.78v-.74h4.025v7.568h.688v2.804zm5.83-2.287c-.275.218-.59.39-.946.516a3.53 3.53 0 0 1-1.186.19c-.895 0-1.6-.347-2.116-1.041s-.774-1.711-.774-3.053c0-.7.049-1.341.146-1.926a5.465 5.465 0 0 1 .465-1.522c.212-.43.484-.766.817-1.006.332-.241.728-.362 1.186-.362.356 0 .683.072.98.215.299.144.551.376.758.697.206.321.366.737.481 1.247.115.51.172 1.132.172 1.866v.74h-3.612c0 .986.135 1.73.404 2.235.27.505.674.757 1.213.757.378 0 .714-.066 1.006-.198.293-.131.525-.26.697-.387l.31 1.032zM26.235 26.45v8.668h-1.324v-3.887h-1.995v3.887h-1.342V26.45h1.342v3.68h1.995v-3.68h1.324zM41.663 30.8v4.317H40.32V26.45h1.342v4.007l2.08-4.007h1.36l-2.15 4.076 2.459 4.592H43.95l-2.287-4.317zm6.896 4.438c-.928 0-1.657-.37-2.184-1.11-.527-.74-.791-1.854-.791-3.345 0-.677.066-1.29.198-1.84s.326-1.018.584-1.402c.258-.384.58-.682.964-.894.384-.213.828-.319 1.333-.319.39 0 .705.043.945.13.241.085.46.191.654.318l-.19 1.272a2.916 2.916 0 0 0-.644-.421 1.76 1.76 0 0 0-.783-.18c-.481 0-.877.269-1.186.808-.31.539-.465 1.358-.465 2.46 0 1.088.13 1.928.387 2.519.258.59.662.886 1.213.886.332 0 .619-.055.86-.164.24-.109.441-.232.602-.37l.31.998a2.95 2.95 0 0 1-.775.473c-.286.12-.63.18-1.032.18zm-17.44-7.706h-1.496v.155c0 .459-.008.96-.026 1.505a23.726 23.726 0 0 1-.111 1.66 19.598 19.598 0 0 1-.241 1.66 8.113 8.113 0 0 1-.43 1.504h2.305v-6.484zm5.435-.103c-.412 0-.705.232-.877.697-.172.464-.28 1.086-.327 1.866h2.22c0-.367-.018-.708-.052-1.024a4.107 4.107 0 0 0-.164-.816 1.262 1.262 0 0 0-.31-.534.682.682 0 0 0-.49-.189zm18.799 1.204v6.484h-.86V22.821h.86v5.744l3.595-5.744h.825l-3.543 5.676 3.853 6.621h-.963l-3.767-6.484zm7.567 6.003c.402 0 .743-.167 1.024-.5.28-.332.501-.733.662-1.203v-2.39h-.929c-.722 0-1.255.171-1.6.515-.343.344-.515.895-.515 1.651 0 .62.123 1.095.37 1.428.246.332.576.499.988.499zm1.927.481a6.742 6.742 0 0 1-.112-.438 5.245 5.245 0 0 1-.095-.731c-.206.412-.464.74-.774.98s-.682.361-1.117.361c-.585 0-1.061-.22-1.428-.662-.367-.441-.55-1.058-.55-1.849 0-.929.246-1.631.74-2.107.492-.476 1.209-.714 2.15-.714h.945v-1.083c0-.665-.12-1.147-.361-1.445-.241-.298-.602-.447-1.084-.447a2.212 2.212 0 0 0-1.823.946l-.223-.774c.172-.23.432-.433.782-.61.35-.178.771-.267 1.264-.267.723 0 1.276.203 1.66.61.384.407.576 1.04.576 1.9v4.73c0 .299.017.6.052.904.034.303.08.536.137.696h-.74zm4.833-.533c.275 0 .519-.046.73-.138.213-.091.393-.2.542-.326.172-.127.321-.281.448-.465l.258.671a1.922 1.922 0 0 1-.482.482 2.495 2.495 0 0 1-1.514.482c-.87 0-1.545-.394-2.02-1.179-.476-.785-.714-1.889-.714-3.31 0-1.434.235-2.546.705-3.337.47-.792 1.152-1.187 2.047-1.187.447 0 .825.077 1.135.232.31.155.562.347.757.576l-.224.86a3.092 3.092 0 0 0-.705-.688 1.623 1.623 0 0 0-.963-.292c-.665 0-1.155.332-1.47.997-.316.665-.474 1.611-.474 2.838 0 1.193.155 2.121.465 2.786.31.665.802.998 1.479.998zm5.71 0c.275 0 .519-.046.73-.138.213-.091.393-.2.543-.326.171-.127.32-.281.447-.465l.258.671a1.922 1.922 0 0 1-.482.482 2.495 2.495 0 0 1-1.514.482c-.87 0-1.544-.394-2.02-1.179s-.714-1.889-.714-3.31c0-1.434.235-2.546.705-3.337.47-.792 1.152-1.187 2.047-1.187.447 0 .825.077 1.135.232.31.155.562.347.757.576l-.224.86a3.092 3.092 0 0 0-.705-.688 1.623 1.623 0 0 0-.963-.292c-.665 0-1.155.332-1.47.997-.316.665-.474 1.611-.474 2.838 0 1.193.155 2.121.465 2.786.31.665.802.998 1.479.998zm4.987.052c.402 0 .743-.167 1.024-.5.28-.332.501-.733.662-1.203v-2.39h-.929c-.722 0-1.255.171-1.6.515-.343.344-.515.895-.515 1.651 0 .62.123 1.095.37 1.428.246.332.576.499.988.499zm1.927.481a6.742 6.742 0 0 1-.112-.438 5.245 5.245 0 0 1-.095-.731c-.206.412-.464.74-.774.98s-.682.361-1.117.361c-.585 0-1.061-.22-1.428-.662-.367-.441-.55-1.058-.55-1.849 0-.929.246-1.631.74-2.107.492-.476 1.209-.714 2.15-.714h.945v-1.083c0-.665-.12-1.147-.361-1.445-.241-.298-.602-.447-1.084-.447a2.212 2.212 0 0 0-1.823.946l-.223-.774c.172-.23.432-.433.782-.61.35-.178.771-.267 1.264-.267.723 0 1.276.203 1.66.61.384.407.576 1.04.576 1.9v4.73c0 .299.017.6.052.904.034.303.08.536.137.696h-.74z"/><path fill="#F00" d="M17.43 30.406l-2.1 4.712H13.8l2.305-5.04a3.277 3.277 0 0 1-1.307-1.212c-.333-.533-.5-1.258-.5-2.175 0-.642.095-1.207.285-1.694.189-.488.447-.892.774-1.213a3.182 3.182 0 0 1 1.143-.722c.436-.16.895-.241 1.376-.241h1.978v12.297H18.53v-4.712h-1.1zm1.1-6.467h-.705a2.13 2.13 0 0 0-.774.146 1.772 1.772 0 0 0-.671.464c-.195.212-.353.493-.473.843s-.18.783-.18 1.299c0 .493.054.905.163 1.238.109.332.258.602.447.808.19.207.413.353.67.439.259.086.531.129.818.129h.705v-5.366z"/></svg>