<svg width="22" height="22" viewBox="0 0 22 22" fill="none" xmlns="http://www.w3.org/2000/svg">
	<g clip-path="url(#clip0_17668_35519)">
		<g clip-path="url(#clip1_17668_35519)">
			<path d="M0 11C0 4.92487 4.92487 0 11 0C17.0751 0 22 4.92487 22 11C22 17.0751 17.0751 22 11 22C4.92487 22 0 17.0751 0 11Z" fill="#E6F4FF"/>
			<ellipse cx="11" cy="8.85366" rx="3.4878" ry="4.02439" fill="#C4E6FF"/>
			<path d="M18.7805 21.7317C18.7805 23.9543 15.297 25.7561 11 25.7561C6.70293 25.7561 3.21948 23.9543 3.21948 21.7317C3.21948 19.5091 5.09753 16.3659 11 16.3659C16.6341 16.3659 18.7805 19.5091 18.7805 21.7317Z" fill="#C4E6FF"/>
			<path d="M19.0788 23.1299C19.227 23.1299 19.3475 23.0069 19.3433 22.8588C19.1976 17.7054 14.882 16.4059 11 16.4059C7.11804 16.4059 2.80252 17.7054 2.65678 22.8588" fill="#C4E6FF"/>
			<path fill-rule="evenodd" clip-rule="evenodd" d="M5.23116 17.3795C6.89821 16.3586 9.02781 16.0303 11 16.0303C12.9723 16.0303 15.1019 16.3586 16.7689 17.3795C18.4614 18.416 19.6424 20.1467 19.7188 22.8481C19.729 23.2095 19.4368 23.5055 19.0788 23.5055H2.92128C2.56329 23.5055 2.27111 23.2095 2.28133 22.8481C2.35772 20.1467 3.53868 18.416 5.23116 17.3795ZM3.03625 22.7542H18.9638C18.8653 20.3704 17.8256 18.9075 16.3766 18.0201C14.879 17.103 12.9098 16.7816 11 16.7816C9.09028 16.7816 7.12112 17.103 5.62348 18.0201C4.17445 18.9075 3.13475 20.3704 3.03625 22.7542Z" fill="#0075FF"/>
			<path d="M10.9897 14.3688C5.96202 14.3688 4.78064 6.95323 8.34034 4.33283C8.93143 3.89771 10.0676 3.48781 10.9898 3.48781C17.547 3.48781 17.0258 14.3688 10.9897 14.3688Z" fill="#C4E6FF"/>
			<path fill-rule="evenodd" clip-rule="evenodd" d="M9.77728 4.46021C9.35505 4.60018 9.00015 4.77994 8.78568 4.93781C7.3131 6.02182 6.74288 8.18789 7.1785 10.1724C7.60807 12.1294 8.93854 13.6176 10.9897 13.6176C12.2451 13.6176 13.1988 13.0625 13.8659 12.2068C14.5465 11.3337 14.9319 10.1365 14.9612 8.91033C14.9906 7.68348 14.6623 6.50097 14.0079 5.64387C13.371 4.80987 12.3949 4.23903 10.9898 4.23903C10.63 4.23903 10.1971 4.32105 9.77728 4.46021ZM8.34034 4.33283C4.78064 6.95323 5.96202 14.3688 10.9897 14.3688C17.0258 14.3688 17.547 3.48781 10.9898 3.48781C10.0676 3.48781 8.93143 3.89771 8.34034 4.33283Z" fill="#0075FF"/>
		</g>
	</g>
	<defs>
		<clipPath id="clip0_17668_35519">
			<path d="M0 11C0 4.92487 4.92487 0 11 0C17.0751 0 22 4.92487 22 11C22 17.0751 17.0751 22 11 22C4.92487 22 0 17.0751 0 11Z" fill="white"/>
		</clipPath>
		<clipPath id="clip1_17668_35519">
			<path d="M0 11C0 4.92487 4.92487 0 11 0C17.0751 0 22 4.92487 22 11C22 17.0751 17.0751 22 11 22C4.92487 22 0 17.0751 0 11Z" fill="white"/>
		</clipPath>
	</defs>
</svg>
