<svg width="375" height="874" viewBox="0 0 375 874" fill="none" xmlns="http://www.w3.org/2000/svg">
<mask id="mask0" mask-type="alpha" maskUnits="userSpaceOnUse" x="0" y="0" width="375" height="874">
<path fill-rule="evenodd" clip-rule="evenodd" d="M0 0L375 0L375 874L0 874L0 0Z" fill="white"/>
</mask>
<g mask="url(#mask0)">
<mask id="mask1" mask-type="alpha" maskUnits="userSpaceOnUse" x="0" y="0" width="375" height="874">
<rect width="375" height="874" fill="white"/>
</mask>
<g mask="url(#mask1)">
<rect opacity="0.04" x="-197" y="-15" width="611.545" height="468.119"/>
<rect opacity="0.04" width="611.545" height="468.119" transform="matrix(-1 0 0 1 515.84 407.881)"/>
</g>
<g opacity="0.5189">
<path fill-rule="evenodd" clip-rule="evenodd" d="M342.467 150.097V243.752H364.811V149.016C356.622 148.784 349.348 147.189 342.467 150.097ZM294.341 149.935V244.038C302.586 244.615 309.78 245.639 316.57 243.467V149.016C308.611 148.685 301.736 147.477 294.341 149.935ZM246.657 149.678V244.13C254.602 244.538 261.464 245.653 268.739 243.333V149.17C260.686 148.516 253.498 147.605 246.657 149.678ZM449.938 201.764C449.851 226.072 439.856 234.556 414.62 231.248V101.845C439.775 98.5496 449.869 107.139 449.941 131.353C450.01 154.823 450.022 178.295 449.938 201.764ZM389.803 251.292C389.713 272.075 381.326 280.607 360.849 280.676C323.325 280.803 285.798 280.86 248.274 280.643C231.885 280.55 221.869 271.967 221.713 256.564C221.247 211.11 221.545 165.646 221.545 118.338C255.095 130.147 283.718 124.481 309.879 104.596C312.66 102.481 315.542 100.573 319.342 100.582C342.248 100.636 365.154 100.606 389.836 100.606V159.781C389.836 190.284 389.935 220.786 389.803 251.292ZM253.604 40.3761C288.633 40.3401 323.659 40.319 358.688 40.3791C383.117 40.4272 391.477 50.101 388.555 76.2892H307.823C291.38 88.4806 275.569 101.711 253.033 100.582C228.155 99.335 221.283 93.1282 221.5 69.7159C221.695 48.2323 230.22 40.3972 253.604 40.3761ZM473.899 124.705C473.466 97.3932 453.939 77.8805 426.602 76.4024C422.746 76.1891 418.609 77.544 414.816 74.72C414.542 73.4161 414.046 72.0161 413.974 70.5981C412.092 32.8795 394.94 16.368 357.497 16.3439C321.473 16.3199 285.449 16.2268 249.428 16.371C217.459 16.5002 197.596 35.9588 197.506 67.5308C197.334 129.533 197.337 191.538 197.506 253.543C197.593 285.151 217.411 304.583 249.386 304.706C285.41 304.847 321.431 304.754 357.455 304.736C391.883 304.718 407.526 291.983 414.903 257.052C418.393 256.896 420.855 256.758 423.317 256.68C454.6 255.673 473.736 236.566 473.956 205.709C474.151 178.707 474.32 151.698 473.899 124.705Z" fill="white"/>
</g>
<g opacity="0.5189">
<path fill-rule="evenodd" clip-rule="evenodd" d="M105.467 585.097V678.752H127.811V584.015C119.622 583.784 112.348 582.189 105.467 585.097ZM57.341 584.935V679.038C65.5865 679.615 72.7799 680.639 79.5704 678.467V584.016C71.6105 583.685 64.7358 582.477 57.341 584.935ZM9.65679 584.678V679.129C17.6017 679.538 24.4644 680.653 31.7389 678.333V584.17C23.6858 583.515 16.4985 582.605 9.65679 584.678ZM212.938 636.764C212.851 661.072 202.856 669.556 177.62 666.248V536.845C202.775 533.55 212.869 542.139 212.941 566.353C213.01 589.823 213.022 613.295 212.938 636.764ZM152.803 686.292C152.713 707.075 144.326 715.607 123.849 715.676C86.325 715.803 48.798 715.86 11.274 715.643C-5.11472 715.55 -15.1307 706.967 -15.287 691.564C-15.753 646.109 -15.4554 600.646 -15.4554 553.337C18.0947 565.147 46.7178 559.481 72.8791 539.596C75.6597 537.481 78.5424 535.573 82.342 535.582C105.248 535.636 128.154 535.606 152.836 535.606V594.781C152.836 625.284 152.935 655.786 152.803 686.292ZM16.6036 475.376C51.6326 475.34 86.6586 475.319 121.688 475.379C146.117 475.427 154.477 485.101 151.555 511.289H70.823C54.3801 523.48 38.5685 536.711 16.0325 535.582C-8.84519 534.335 -15.7169 528.128 -15.5005 504.716C-15.3051 483.232 -6.78007 475.397 16.6036 475.376ZM236.899 559.705C236.466 532.393 216.939 512.88 189.602 511.402C185.746 511.189 181.609 512.544 177.816 509.72C177.542 508.416 177.046 507.016 176.974 505.598C175.092 467.879 157.94 451.368 120.497 451.344C84.4732 451.32 48.4493 451.227 12.4283 451.371C-19.5405 451.5 -39.4042 470.959 -39.4944 502.531C-39.6657 564.533 -39.6627 626.538 -39.4944 688.543C-39.4072 720.151 -19.5886 739.583 12.3862 739.706C48.4102 739.847 84.4311 739.754 120.455 739.736C154.883 739.718 170.526 726.983 177.903 692.052C181.393 691.896 183.855 691.758 186.317 691.68C217.6 690.673 236.736 671.566 236.956 640.709C237.151 613.707 237.32 586.698 236.899 559.705Z" fill="white"/>
</g>
<g opacity="0.3">
<g filter="url(#filter0_f)">
<path fill-rule="evenodd" clip-rule="evenodd" d="M72.6881 293.143V315.67H78.0626V292.882C76.093 292.827 74.3432 292.443 72.6881 293.143ZM61.1118 293.104V315.739C63.0951 315.878 64.8254 316.124 66.4588 315.602V292.882C64.5442 292.803 62.8905 292.512 61.1118 293.104ZM49.6418 293.042V315.762C51.5528 315.86 53.2036 316.128 54.9534 315.57V292.92C53.0163 292.763 51.2875 292.544 49.6418 293.042ZM98.5391 305.571C98.5181 311.418 96.1139 313.458 90.0438 312.663V281.536C96.0944 280.743 98.5225 282.809 98.5398 288.634C98.5565 294.279 98.5593 299.925 98.5391 305.571ZM84.0742 317.484C84.0525 322.483 82.0351 324.535 77.1096 324.552C68.0836 324.582 59.0568 324.596 50.0308 324.544C46.0886 324.522 43.6794 322.457 43.6418 318.752C43.5297 307.818 43.6013 296.882 43.6013 285.503C51.6714 288.343 58.5565 286.981 64.8493 282.197C65.5181 281.689 66.2116 281.23 67.1255 281.232C72.6353 281.245 78.145 281.238 84.0821 281.238V295.472C84.0821 302.809 84.106 310.146 84.0742 317.484ZM51.3128 266.75C59.7387 266.741 68.1638 266.736 76.5897 266.751C82.4661 266.762 84.4769 269.089 83.7741 275.388H64.3547C60.3995 278.321 56.5962 281.504 51.1754 281.232C45.1913 280.932 43.5384 279.439 43.5904 273.807C43.6374 268.64 45.688 266.755 51.3128 266.75ZM104.303 287.035C104.199 280.465 99.5015 275.772 92.926 275.416C91.9983 275.365 91.0033 275.691 90.0908 275.011C90.025 274.698 89.9057 274.361 89.8884 274.02C89.4357 264.947 85.3099 260.975 76.3034 260.97C67.6382 260.964 58.9729 260.941 50.3084 260.976C42.6186 261.007 37.8406 265.688 37.8189 273.282C37.7777 288.196 37.7784 303.111 37.8189 318.026C37.8399 325.629 42.6071 330.303 50.2983 330.332C58.9635 330.366 67.628 330.344 76.2933 330.34C84.5745 330.335 88.3374 327.272 90.1118 318.87C90.9513 318.832 91.5434 318.799 92.1356 318.78C99.6606 318.538 104.264 313.942 104.316 306.52C104.363 300.024 104.404 293.528 104.303 287.035Z" fill="white"/>
</g>
</g>
<g opacity="0.3">
<g filter="url(#filter1_f)">
<path fill-rule="evenodd" clip-rule="evenodd" d="M308.688 746.143V768.671H314.063V745.883C312.093 745.827 310.343 745.443 308.688 746.143ZM297.112 746.104V768.739C299.095 768.878 300.825 769.124 302.459 768.602V745.883C300.544 745.803 298.89 745.513 297.112 746.104ZM285.642 746.042V768.762C287.553 768.86 289.204 769.128 290.953 768.57V745.92C289.016 745.763 287.287 745.544 285.642 746.042ZM334.539 758.571C334.518 764.418 332.114 766.458 326.044 765.663V734.536C332.094 733.743 334.522 735.809 334.54 741.634C334.556 747.279 334.559 752.925 334.539 758.571ZM320.074 770.484C320.052 775.483 318.035 777.535 313.11 777.552C304.084 777.582 295.057 777.596 286.031 777.544C282.089 777.522 279.679 775.457 279.642 771.752C279.53 760.818 279.601 749.882 279.601 738.503C287.671 741.344 294.556 739.981 300.849 735.197C301.518 734.689 302.212 734.23 303.126 734.232C308.635 734.245 314.145 734.238 320.082 734.238V748.472C320.082 755.809 320.106 763.146 320.074 770.484ZM287.313 719.75C295.739 719.741 304.164 719.736 312.59 719.751C318.466 719.762 320.477 722.089 319.774 728.389H300.355C296.4 731.321 292.596 734.504 287.175 734.232C281.191 733.932 279.538 732.439 279.59 726.807C279.637 721.64 281.688 719.755 287.313 719.75ZM340.303 740.035C340.199 733.465 335.502 728.772 328.926 728.416C327.998 728.365 327.003 728.691 326.091 728.011C326.025 727.698 325.906 727.361 325.888 727.02C325.436 717.947 321.31 713.975 312.303 713.97C303.638 713.964 294.973 713.941 286.308 713.976C278.619 714.007 273.841 718.688 273.819 726.282C273.778 741.196 273.778 756.111 273.819 771.026C273.84 778.629 278.607 783.303 286.298 783.332C294.964 783.366 303.628 783.344 312.293 783.34C320.575 783.335 324.337 780.272 326.112 771.87C326.951 771.832 327.543 771.799 328.136 771.78C335.661 771.538 340.264 766.942 340.316 759.52C340.363 753.024 340.404 746.528 340.303 740.035Z" fill="white"/>
</g>
</g>
</g>
<defs>
<filter id="filter0_f" x="35.07" y="258.239" width="72.0139" height="74.8303" filterUnits="userSpaceOnUse" color-interpolation-filters="sRGB">
<feFlood flood-opacity="0" result="BackgroundImageFix"/>
<feBlend mode="normal" in="SourceGraphic" in2="BackgroundImageFix" result="shape"/>
<feGaussianBlur stdDeviation="1.35914" result="effect1_foregroundBlur"/>
</filter>
<filter id="filter1_f" x="271.07" y="711.239" width="72.0139" height="74.8303" filterUnits="userSpaceOnUse" color-interpolation-filters="sRGB">
<feFlood flood-opacity="0" result="BackgroundImageFix"/>
<feBlend mode="normal" in="SourceGraphic" in2="BackgroundImageFix" result="shape"/>
<feGaussianBlur stdDeviation="1.35914" result="effect1_foregroundBlur"/>
</filter>
</defs>
</svg>
