<svg width="66" height="67" viewBox="0 0 66 67" fill="none" xmlns="http://www.w3.org/2000/svg">
<g filter="url(#filter0_d)">
<path fill-rule="evenodd" clip-rule="evenodd" d="M33 63.5C50.1208 63.5 64 49.6208 64 32.5C64 15.3792 50.1208 1.5 33 1.5C15.8792 1.5 2 15.3792 2 32.5C2 49.6208 15.8792 63.5 33 63.5Z" fill="white"/>
</g>
<path fill-rule="evenodd" clip-rule="evenodd" d="M33 54.5C45.1503 54.5 55 44.6503 55 32.5C55 20.3497 45.1503 10.5 33 10.5C20.8497 10.5 11 20.3497 11 32.5C11 44.6503 20.8497 54.5 33 54.5Z" fill="#AE914B"/>
<path fill-rule="evenodd" clip-rule="evenodd" d="M35.5421 31.8082V39.4285H37.3601V31.7202C36.6938 31.7014 36.1019 31.5715 35.5421 31.8082ZM31.6263 31.795V39.4517C32.2972 39.4986 32.8825 39.582 33.435 39.4053V31.7202C32.7873 31.6933 32.228 31.595 31.6263 31.795ZM27.7464 31.7742V39.4593C28.3929 39.4925 28.9512 39.5832 29.5431 39.3945V31.7329C28.8879 31.6796 28.3031 31.6055 27.7464 31.7742ZM44.2865 36.0121C44.2794 37.9899 43.4662 38.6802 41.4129 38.4111V27.8821C43.4596 27.614 44.2809 28.3129 44.2867 30.2831C44.2924 32.1927 44.2934 34.1025 44.2865 36.0121ZM39.3936 40.0418C39.3862 41.7329 38.7038 42.4271 37.0377 42.4327C33.9846 42.443 30.9312 42.4476 27.878 42.43C26.5445 42.4225 25.7296 41.7241 25.7168 40.4708C25.6789 36.7724 25.7032 33.0732 25.7032 29.2239C28.433 30.1848 30.7619 29.7238 32.8905 28.1058C33.1168 27.9337 33.3513 27.7785 33.6605 27.7793C35.5242 27.7837 37.388 27.7812 39.3963 27.7812V32.596C39.3963 35.0779 39.4043 37.5597 39.3936 40.0418ZM28.3117 22.8806C31.1618 22.8777 34.0117 22.8759 36.8619 22.8808C38.8496 22.8847 39.5298 23.6719 39.2921 25.8027H32.7232C31.3854 26.7946 30.0988 27.8712 28.2652 27.7793C26.241 27.6778 25.6819 27.1728 25.6995 25.2678C25.7154 23.5198 26.409 22.8823 28.3117 22.8806ZM46.2361 29.7421C46.2009 27.5199 44.612 25.9322 42.3878 25.812C42.074 25.7946 41.7374 25.9048 41.4288 25.6751C41.4065 25.569 41.3662 25.4551 41.3603 25.3397C41.2072 22.2707 39.8116 20.9272 36.765 20.9253C33.8339 20.9233 30.9028 20.9157 27.9719 20.9275C25.3708 20.938 23.7545 22.5212 23.7472 25.0901C23.7333 30.135 23.7335 35.18 23.7472 40.2251C23.7543 42.7969 25.3668 44.378 27.9685 44.388C30.8996 44.3995 33.8305 44.3919 36.7616 44.3905C39.5628 44.389 40.8356 43.3528 41.4359 40.5106C41.7198 40.4979 41.9201 40.4867 42.1205 40.4803C44.6659 40.3984 46.2229 38.8438 46.2407 36.3331C46.2566 34.136 46.2703 31.9385 46.2361 29.7421Z" fill="white"/>
<defs>
<filter id="filter0_d" x="0" y="0.5" width="66" height="66" filterUnits="userSpaceOnUse" color-interpolation-filters="sRGB">
<feFlood flood-opacity="0" result="BackgroundImageFix"/>
<feColorMatrix in="SourceAlpha" type="matrix" values="0 0 0 0 0 0 0 0 0 0 0 0 0 0 0 0 0 0 127 0"/>
<feOffset dy="1"/>
<feGaussianBlur stdDeviation="1"/>
<feColorMatrix type="matrix" values="0 0 0 0 0 0 0 0 0 0 0 0 0 0 0 0 0 0 0.06 0"/>
<feBlend mode="normal" in2="BackgroundImageFix" result="effect1_dropShadow"/>
<feBlend mode="normal" in="SourceGraphic" in2="effect1_dropShadow" result="shape"/>
</filter>
</defs>
</svg>
