<svg width="96" height="30" viewBox="0 0 74 23" fill="none" xmlns="http://www.w3.org/2000/svg">
	<path d="M1.52734 5.86426H5.3042C6.92008 5.86426 8.14307 6.09115 8.97314 6.54492C9.80322 6.9987 10.2183 7.79557 10.2183 8.93555C10.2183 9.39486 10.1436 9.8099 9.99414 10.1807C9.85026 10.5514 9.63997 10.8558 9.36328 11.0938C9.08659 11.3317 8.74902 11.4867 8.35059 11.5586V11.6416C8.75456 11.7246 9.11979 11.8685 9.44629 12.0732C9.77279 12.2725 10.0329 12.5658 10.2266 12.9531C10.4258 13.335 10.5254 13.8441 10.5254 14.4805C10.5254 15.2165 10.3455 15.8473 9.98584 16.373C9.62614 16.8988 9.11149 17.3027 8.44189 17.585C7.77783 17.8617 6.98649 18 6.06787 18H1.52734V5.86426ZM4.10059 10.6704H5.59473C6.3418 10.6704 6.85921 10.5542 7.14697 10.3218C7.43473 10.0838 7.57861 9.73519 7.57861 9.27588C7.57861 8.81104 7.40706 8.479 7.06396 8.27979C6.7264 8.07503 6.18962 7.97266 5.45361 7.97266H4.10059V10.6704ZM4.10059 12.7124V15.875H5.77734C6.55208 15.875 7.09163 15.7256 7.396 15.4268C7.70036 15.1279 7.85254 14.7267 7.85254 14.2231C7.85254 13.9243 7.78613 13.6615 7.65332 13.4346C7.52051 13.2077 7.29639 13.0306 6.98096 12.9033C6.67106 12.776 6.24219 12.7124 5.69434 12.7124H4.10059ZM11.9492 18V5.86426H14.5225V18H11.9492Z" fill="#1EC6FA"/>
	<path d="M19.9932 5.86426H23.77C25.3859 5.86426 26.6089 6.09115 27.439 6.54492C28.269 6.9987 28.6841 7.79557 28.6841 8.93555C28.6841 9.39486 28.6094 9.8099 28.46 10.1807C28.3161 10.5514 28.1058 10.8558 27.8291 11.0938C27.5524 11.3317 27.2148 11.4867 26.8164 11.5586V11.6416C27.2204 11.7246 27.5856 11.8685 27.9121 12.0732C28.2386 12.2725 28.4987 12.5658 28.6924 12.9531C28.8916 13.335 28.9912 13.8441 28.9912 14.4805C28.9912 15.2165 28.8114 15.8473 28.4517 16.373C28.092 16.8988 27.5773 17.3027 26.9077 17.585C26.2437 17.8617 25.4523 18 24.5337 18H19.9932V5.86426ZM22.5664 10.6704H24.0605C24.8076 10.6704 25.325 10.5542 25.6128 10.3218C25.9006 10.0838 26.0444 9.73519 26.0444 9.27588C26.0444 8.81104 25.8729 8.479 25.5298 8.27979C25.1922 8.07503 24.6554 7.97266 23.9194 7.97266H22.5664V10.6704ZM22.5664 12.7124V15.875H24.2432C25.0179 15.875 25.5575 15.7256 25.8618 15.4268C26.1662 15.1279 26.3184 14.7267 26.3184 14.2231C26.3184 13.9243 26.252 13.6615 26.1191 13.4346C25.9863 13.2077 25.7622 13.0306 25.4468 12.9033C25.1369 12.776 24.708 12.7124 24.1602 12.7124H22.5664ZM38.7324 8.71973V18H36.79L36.4497 16.813H36.3169C36.1177 17.1284 35.8687 17.3857 35.5698 17.585C35.271 17.7842 34.9417 17.9308 34.582 18.0249C34.2223 18.119 33.8488 18.166 33.4614 18.166C32.7974 18.166 32.2191 18.0498 31.7266 17.8174C31.234 17.5794 30.8494 17.2114 30.5728 16.7134C30.3016 16.2153 30.166 15.5679 30.166 14.771V8.71973H32.6978V14.1401C32.6978 14.8042 32.8167 15.305 33.0547 15.6426C33.2926 15.9801 33.6717 16.1489 34.1919 16.1489C34.7065 16.1489 35.1105 16.0327 35.4038 15.8003C35.6971 15.5623 35.9019 15.2165 36.0181 14.7627C36.1398 14.3034 36.2007 13.7445 36.2007 13.0859V8.71973H38.7324ZM42.9204 8.71973V18H40.3887V8.71973H42.9204ZM41.6587 5.08398C42.035 5.08398 42.3587 5.17253 42.6299 5.34961C42.901 5.52116 43.0366 5.84489 43.0366 6.3208C43.0366 6.79118 42.901 7.11768 42.6299 7.30029C42.3587 7.47738 42.035 7.56592 41.6587 7.56592C41.2769 7.56592 40.9504 7.47738 40.6792 7.30029C40.4136 7.11768 40.2808 6.79118 40.2808 6.3208C40.2808 5.84489 40.4136 5.52116 40.6792 5.34961C40.9504 5.17253 41.2769 5.08398 41.6587 5.08398ZM47.1167 18H44.585V5.08398H47.1167V18ZM51.7197 18.166C50.6849 18.166 49.841 17.762 49.188 16.9541C48.5405 16.1406 48.2168 14.9481 48.2168 13.3765C48.2168 11.7882 48.5461 10.5874 49.2046 9.77393C49.8631 8.95492 50.7236 8.54541 51.7861 8.54541C52.2288 8.54541 52.619 8.60628 52.9565 8.72803C53.2941 8.84977 53.5846 9.01302 53.8281 9.21777C54.0771 9.42253 54.2874 9.65218 54.459 9.90674H54.542C54.5088 9.72965 54.4673 9.46956 54.4175 9.12646C54.3732 8.77783 54.3511 8.4209 54.3511 8.05566V5.08398H56.8911V18H54.9487L54.459 16.7964H54.3511C54.1906 17.0509 53.9886 17.2834 53.7451 17.4937C53.5072 17.6984 53.2222 17.8617 52.8901 17.9834C52.5581 18.1051 52.168 18.166 51.7197 18.166ZM52.6079 16.1489C53.2996 16.1489 53.7866 15.9442 54.0688 15.5347C54.3566 15.1196 54.5088 14.4971 54.5254 13.667V13.3931C54.5254 12.491 54.387 11.8021 54.1104 11.3262C53.8337 10.8447 53.319 10.604 52.5664 10.604C52.0075 10.604 51.5703 10.8447 51.2549 11.3262C50.9395 11.8076 50.7817 12.5021 50.7817 13.4097C50.7817 14.3172 50.9395 15.0007 51.2549 15.46C51.5758 15.9193 52.0269 16.1489 52.6079 16.1489ZM62.3657 8.54541C63.2235 8.54541 63.9622 8.71143 64.582 9.04346C65.2018 9.36995 65.6805 9.84587 66.0181 10.4712C66.3556 11.0965 66.5244 11.8602 66.5244 12.7622V13.9907H60.5396C60.5672 14.7046 60.7803 15.2663 61.1787 15.6758C61.5827 16.0798 62.1416 16.2817 62.8555 16.2817C63.4476 16.2817 63.9899 16.2209 64.4824 16.0991C64.9749 15.9774 65.4813 15.7948 66.0015 15.5513V17.5103C65.5422 17.7371 65.0607 17.9032 64.5571 18.0083C64.0591 18.1134 63.4531 18.166 62.7393 18.166C61.8096 18.166 60.985 17.9945 60.2656 17.6514C59.5518 17.3083 58.9901 16.7853 58.5806 16.0825C58.1766 15.3797 57.9746 14.4943 57.9746 13.4263C57.9746 12.3416 58.1572 11.4396 58.5225 10.7202C58.8932 9.99528 59.4079 9.45296 60.0664 9.09326C60.7249 8.72803 61.4914 8.54541 62.3657 8.54541ZM62.3823 10.3467C61.8898 10.3467 61.4803 10.5044 61.1538 10.8198C60.8328 11.1353 60.6475 11.6305 60.5977 12.3057H64.1504C64.1449 11.9294 64.0757 11.5946 63.9429 11.3013C63.8156 11.008 63.6219 10.7756 63.3618 10.604C63.1073 10.4325 62.7808 10.3467 62.3823 10.3467ZM72.7627 8.54541C72.89 8.54541 73.0366 8.55371 73.2026 8.57031C73.3742 8.58138 73.5125 8.59798 73.6177 8.62012L73.4268 10.9941C73.3438 10.9665 73.2248 10.9471 73.0698 10.936C72.9204 10.9194 72.7904 10.9111 72.6797 10.9111C72.3532 10.9111 72.035 10.9526 71.7251 11.0356C71.4207 11.1187 71.1468 11.2542 70.9033 11.4424C70.6598 11.625 70.4661 11.8685 70.3223 12.1729C70.1839 12.4717 70.1147 12.8397 70.1147 13.2769V18H67.583V8.71973H69.5005L69.874 10.2803H69.9985C70.1812 9.96484 70.408 9.67708 70.6792 9.41699C70.9559 9.15137 71.2686 8.94108 71.6172 8.78613C71.9714 8.62565 72.3532 8.54541 72.7627 8.54541Z" fill="#A4A8AE"/>
</svg>