<svg width="18" height="17" viewBox="0 0 24 25" fill="none" xmlns="http://www.w3.org/2000/svg">
	<path d="M5.34453 14.7184C6.56981 14.7184 7.56309 13.7251 7.56309 12.4998C7.56309 11.2745 6.56981 10.2812 5.34453 10.2812C4.11926 10.2812 3.12598 11.2745 3.12598 12.4998C3.12598 13.7251 4.11926 14.7184 5.34453 14.7184Z" fill="#A8ADB4"/>
	<path d="M12.0002 14.7184C13.2255 14.7184 14.2188 13.7251 14.2188 12.4998C14.2188 11.2745 13.2255 10.2812 12.0002 10.2812C10.7749 10.2812 9.78165 11.2745 9.78165 12.4998C9.78165 13.7251 10.7749 14.7184 12.0002 14.7184Z" fill="#A8ADB4"/>
	<path d="M20.8744 12.4998C20.8744 13.7251 19.8812 14.7184 18.6559 14.7184C17.4306 14.7184 16.4373 13.7251 16.4373 12.4998C16.4373 11.2745 17.4306 10.2812 18.6559 10.2812C19.8812 10.2812 20.8744 11.2745 20.8744 12.4998Z" fill="#A8ADB4"/>
</svg>