<svg width="30" height="30" viewBox="0 0 30 30" fill="none" xmlns="http://www.w3.org/2000/svg">
<path fill-rule="evenodd" clip-rule="evenodd" d="M22.6407 13.3782C22.789 13.5265 22.789 13.7668 22.6407 13.9151L21.646 14.9098C21.4977 15.0581 21.2574 15.0581 21.1091 14.9098L15.2512 9.05191C13.5665 7.36717 10.8096 7.36717 9.12491 9.05191C7.44017 10.7366 7.44017 13.4935 9.12491 15.1782L16.3111 22.3644C17.3677 23.421 19.0835 23.421 20.1401 22.3644C21.1966 21.3079 21.1966 19.592 20.1401 18.5355L13.7197 12.1151C13.2907 11.6861 12.617 11.6861 12.1881 12.1151C11.7591 12.544 11.7591 13.2177 12.1881 13.6467L17.2802 18.7388C17.4284 18.887 17.4284 19.1274 17.2802 19.2756L16.2854 20.2704C16.1372 20.4186 15.8969 20.4186 15.7486 20.2704L10.6565 15.1782C9.38516 13.9069 9.38516 11.8548 10.6565 10.5835C11.9278 9.31216 13.9799 9.31216 15.2512 10.5835L21.6716 17.0039C23.5705 18.9028 23.5705 21.9972 21.6716 23.896C19.7728 25.7949 16.6784 25.7949 14.7795 23.896L7.59333 16.7098C5.06622 14.1827 5.06622 10.0474 7.59333 7.52033C10.1204 4.99322 14.2557 4.99322 16.7828 7.52033L22.6407 13.3782Z" fill="#6a737f"/>
</svg>
