<svg width="30" height="30" viewBox="0 0 30 30" fill="none" xmlns="http://www.w3.org/2000/svg">
<path d="M19.3468 18.6565L19.7433 20.6758C19.789 20.9087 19.6651 21.1423 19.4441 21.2287C17.487 21.9936 15.2494 22.449 12.8664 22.5002H11.9628C9.57732 22.4489 7.33753 21.9926 5.37896 21.2263C5.16733 21.1435 5.04309 20.9247 5.07672 20.7C5.16066 20.1392 5.2599 19.5643 5.36186 19.1667C5.63094 18.1177 7.14452 17.3386 8.53722 16.7395C8.90188 16.5826 9.12203 16.4574 9.34445 16.331C9.5617 16.2074 9.78116 16.0826 10.1396 15.9258C10.1803 15.7327 10.1966 15.5354 10.1883 15.3383L10.8052 15.265C10.8052 15.265 10.8864 15.4125 10.7561 14.5459C10.7561 14.5459 10.0629 14.3662 10.0308 12.9863C10.0308 12.9863 9.50955 13.1596 9.47812 12.3235C9.47161 12.1569 9.42857 11.9968 9.38732 11.8433C9.28839 11.4752 9.19983 11.1457 9.65082 10.8585L9.32544 9.99091C9.32544 9.99091 8.98314 6.64049 10.4833 6.91173C9.87465 5.94749 15.0074 5.146 15.3484 8.09838C15.4825 8.98838 15.4825 9.89291 15.3484 10.7829C15.3484 10.7829 16.1152 10.6948 15.6033 12.1526C15.6033 12.1526 15.3214 13.202 14.8886 12.9663C14.8886 12.9663 14.9587 14.2923 14.2772 14.5171C14.2772 14.5171 14.3259 15.2233 14.3259 15.2712L14.8955 15.3563C14.8955 15.3563 14.8783 15.9452 14.9919 16.0089C15.5115 16.3445 16.0811 16.5989 16.6803 16.7629C18.4488 17.2118 19.3468 17.9821 19.3468 18.6565Z" fill="#6a737f"/>
<path d="M21.3296 8.24964H23.7696V11.2494H26.894V13.7088H23.7696V16.8577H21.3296V13.7088H18.3543V11.2494H21.3296V8.24964Z" fill="#6a737f"/>
</svg>
