<svg width="17" height="17" viewBox="0 0 17 17" fill="none" xmlns="http://www.w3.org/2000/svg">
<g id="fire">
<circle id="Ellipse 225" cx="8.5" cy="8.5" r="8.5" fill="white"/>
<path id="icon fx" fill-rule="evenodd" clip-rule="evenodd" d="M10.5442 10.8167C10.5417 12.0686 9.95258 13.2469 8.95259 14H9.51762C9.51762 14 12.9317 12.9073 12.9317 9.82193C12.9317 7.57016 11.7618 6.25068 10.6869 5.0384C9.81164 4.05123 8.99939 3.13514 8.93323 1.8446C8.92038 1.5941 8.66145 1.41354 8.44667 1.5431C6.40732 2.77332 3.38184 5.90048 3.38184 9.22507C3.42882 11.3676 4.78371 13.2626 6.79591 14H7.36094C6.42046 13.1988 5.84596 12.0498 5.7693 10.8167C5.87146 9.24203 6.70087 7.80847 8.00655 6.93438C8.08563 6.88144 8.19281 6.91455 8.23498 6.99986C8.75486 8.05164 9.27558 8.58281 9.69062 9.00617C10.1957 9.52137 10.5442 9.87691 10.5442 10.8167Z" fill="#FF9900"/>
</g>
</svg>
