<svg width="123" height="121" viewBox="0 0 123 121" fill="none" xmlns="http://www.w3.org/2000/svg">
<path opacity="0.8" fill-rule="evenodd" clip-rule="evenodd" d="M94.5709 107.958H28.2539C27.6864 107.958 27.1239 107.938 26.5669 107.898C11.5791 107.569 0.501734 95.7614 0.500977 81.2441C0.505334 74.1683 3.67341 67.8375 8.2816 62.2994C10.4844 59.6521 12.0797 57.9071 15.3009 56.3152C15.2436 55.5952 15.2144 54.8676 15.2144 54.1334C15.2192 46.6674 18.3021 39.509 23.7852 34.233C29.2682 28.9569 36.7022 25.9955 44.4516 26C54.3785 26.0117 63.0367 31.1865 68.3039 38.486C71.7717 37.6323 76.0597 37.3594 78.8648 37.3608C91.2563 37.3752 101.434 46.4757 102.614 58.1137C114.487 60.6074 122.511 70.4058 122.501 82.5899C122.489 96.631 110.668 108.006 96.0933 108C95.5823 108 95.0747 107.986 94.5709 107.958Z" fill="url(#paint0_linear_4358_215450)"/>
<g filter="url(#filter0_d_4358_215450)">
<rect x="19" y="20" width="81" height="24.75" rx="4" fill="#95C500"/>
</g>
<rect x="48.6621" y="27.9395" width="16.7927" height="2.95834" rx="1.47917" fill="white" fill-opacity="0.94"/>
<rect x="48.6621" y="33.8521" width="31.6098" height="2.95834" rx="1.47917" fill="white" fill-opacity="0.4"/>
<path d="M38.106 37.0651C38.2906 37.0327 38.4117 36.8581 38.3735 36.6771C38.1677 35.7015 37.7972 34.3579 37.7972 34.3579C37.7972 33.9816 37.2858 33.5515 36.2781 33.3011C35.9358 33.2091 35.6111 33.067 35.3157 32.8799C35.2684 32.7639 35.2497 32.6394 35.2609 32.5156L34.938 32.468C34.938 32.4413 34.9103 32.047 34.9103 32.047C35.2985 31.9216 35.2586 31.1815 35.2586 31.1815C35.5051 31.3129 35.6656 30.7281 35.6656 30.7281C35.9572 29.9148 35.5204 29.9637 35.5204 29.9637C35.5968 29.4669 35.5968 28.9623 35.5204 28.4655C35.3263 26.8179 32.4025 27.2646 32.7493 27.8032C31.8948 27.6511 32.0899 29.5218 32.0899 29.5218L32.2752 30.0055C32.0185 30.1654 32.0688 30.3493 32.125 30.5548C32.1484 30.6406 32.1729 30.7301 32.1765 30.8232C32.1945 31.2903 32.4908 31.1933 32.4908 31.1933C32.5092 31.9634 32.9037 32.0646 32.9037 32.0646C32.9778 32.5483 32.9318 32.4649 32.9318 32.4649L32.5805 32.5058C32.5853 32.6157 32.576 32.7258 32.5529 32.8336C32.3488 32.9213 32.2239 32.9908 32.1006 33.0595C31.9736 33.1301 31.8484 33.1999 31.6401 33.2875C30.8468 33.6211 29.9845 34.0567 29.8315 34.6421C29.738 35 29.5309 36.0043 29.3841 36.7306C29.3467 36.916 29.4712 37.0953 29.6604 37.1255C30.9313 37.3279 32.2903 37.4375 33.7027 37.4375C35.2497 37.4375 36.7327 37.306 38.106 37.0651Z" fill="white" fill-opacity="0.9"/>
<path d="M41.9331 35.5383C42.2011 35.4682 42.3762 35.2196 42.3088 34.9545C42.184 34.4636 41.9266 33.84 41.6191 33.6563C41.1988 33.4051 41.2363 33.4572 40.973 33.3163C40.7991 33.2192 40.6155 33.1382 40.425 33.0746C40.3273 32.9919 40.2517 32.8886 40.2042 32.7733C40.104 32.6532 39.9723 32.5598 39.8221 32.5023L39.8109 32.1418L40.601 31.9041C40.601 31.9041 40.8048 31.8129 40.8247 31.8129C40.7931 31.7494 40.7567 31.688 40.7158 31.6294C40.7008 31.591 40.6263 31.3281 40.6263 31.3281C40.7415 31.4699 40.877 31.596 41.0289 31.7027C40.8944 31.4606 40.7792 31.2094 40.6844 30.9511C40.6211 30.712 40.577 30.4688 40.5527 30.2234C40.4984 29.7674 40.4139 29.3151 40.2997 28.869C40.2185 28.6474 40.0739 28.4511 39.8818 28.302C39.6002 28.1138 39.2698 28.0009 38.9255 27.9754H38.8859C38.5417 28.0008 38.2112 28.1137 37.9296 28.302C37.7378 28.4513 37.5933 28.6475 37.512 28.869C37.3975 29.315 37.3129 29.7674 37.2588 30.2234C37.2379 30.4743 37.1959 30.7232 37.1333 30.9678C37.0384 31.2215 36.9212 31.4673 36.7827 31.7025C36.9339 31.5952 37.0685 31.4688 37.1829 31.3268C37.1829 31.3268 37.0874 31.6153 37.0722 31.6538C37.0374 31.7036 37.0081 31.7567 36.9847 31.8121C37.0044 31.8121 37.2084 31.9033 37.2084 31.9033L37.9983 32.1418L37.9869 32.5023C37.8368 32.56 37.7051 32.6535 37.6048 32.7735C37.5668 32.8534 37.5202 32.9295 37.4657 33.0004C38.1853 33.2815 38.6065 33.693 38.6235 34.1534C38.6269 34.1768 38.6648 34.3168 38.718 34.5127C38.8508 35.0023 39.0783 35.8412 39.0969 36.0838H39.1618C40.1643 35.9417 41.0954 35.7575 41.9331 35.5383Z" fill="white" fill-opacity="0.9"/>
<path d="M28.5709 36.0815H28.2843C27.3714 35.9526 26.5174 35.7889 25.7391 35.5956C25.4674 35.5281 25.2852 35.2776 25.3441 35.0074C25.4504 34.5199 25.6825 33.8996 26.0729 33.647C26.326 33.4832 26.431 33.455 26.6943 33.314C26.8683 33.2169 27.0518 33.136 27.2424 33.0723C27.3401 32.9896 27.4157 32.8864 27.4632 32.771C27.5634 32.6509 27.6951 32.5575 27.8453 32.5L27.8567 32.1395L27.0666 31.9019C27.0666 31.9019 26.8628 31.8106 26.8429 31.8106C26.8744 31.7471 26.9108 31.6858 26.9516 31.6271C26.9666 31.5888 27.0411 31.3258 27.0411 31.3258C26.9259 31.4676 26.7904 31.5937 26.6384 31.7004C26.773 31.4584 26.8882 31.2071 26.9829 30.9489C27.0463 30.7098 27.0903 30.4665 27.1147 30.2211C27.169 29.7651 27.2535 29.3128 27.3677 28.8667C27.4489 28.6451 27.5935 28.4489 27.7855 28.2997C28.0671 28.1115 28.3976 27.9986 28.7418 27.9731H28.7814C29.1257 27.9985 29.4562 28.1114 29.7377 28.2997C29.9295 28.449 30.074 28.6452 30.1554 28.8667C30.2698 29.3127 30.3544 29.7651 30.4086 30.2211C30.4295 30.472 30.4714 30.7209 30.5341 30.9655C30.6289 31.2192 30.7462 31.465 30.8846 31.7002C30.7337 31.593 30.5992 31.4667 30.4849 31.3249C30.4871 31.3313 30.5806 31.6136 30.5956 31.6518C30.6304 31.7016 30.6597 31.7546 30.6831 31.81C30.6634 31.81 30.4594 31.9012 30.4594 31.9012L29.6693 32.1395L29.6807 32.5C29.8308 32.5578 29.9625 32.6512 30.0628 32.7712C30.1008 32.8511 30.1474 32.9272 30.2019 32.9981C29.4823 33.2792 29.0611 33.6907 29.0443 34.1511C29.0409 34.1743 29.0035 34.3124 28.9509 34.506C28.8183 34.995 28.5895 35.8382 28.5709 36.0815Z" fill="white" fill-opacity="0.9"/>
<g filter="url(#filter1_d_4358_215450)">
<path d="M19 53.9139C19 51.2 21.2 49 23.9139 49H95.0861C97.8 49 100 51.2 100 53.9139V87.0849C100 89.7994 97.7994 92 95.0849 92H23.9151C21.2006 92 19 89.7994 19 87.0849V53.9139Z" fill="white"/>
<g opacity="0.7">
<path opacity="0.5" d="M55.75 81.9995C55.75 78.8239 53.1756 76.2495 50 76.2495C46.8244 76.2495 44.25 78.8239 44.25 81.9995C44.25 85.1751 46.8244 87.7495 50 87.7495C53.1756 87.7495 55.75 85.1751 55.75 81.9995Z" fill="#00ACE3" stroke="white" stroke-width="1.5"/>
<path d="M48.75 81.9995C48.75 78.8239 46.1756 76.2495 43 76.2495C39.8244 76.2495 37.25 78.8239 37.25 81.9995C37.25 85.1751 39.8244 87.7495 43 87.7495C46.1756 87.7495 48.75 85.1751 48.75 81.9995Z" fill="#FFA900" stroke="white" stroke-width="1.5"/>
<path d="M41.75 81.9995C41.75 78.8239 39.1756 76.2495 36 76.2495C32.8244 76.2495 30.25 78.8239 30.25 81.9995C30.25 85.1751 32.8244 87.7495 36 87.7495C39.1756 87.7495 41.75 85.1751 41.75 81.9995Z" fill="#9DCF00" stroke="white" stroke-width="1.5"/>
<path d="M34.75 81.9995C34.75 78.8239 32.1756 76.2495 29 76.2495C25.8244 76.2495 23.25 78.8239 23.25 81.9995C23.25 85.1751 25.8244 87.7495 29 87.7495C32.1756 87.7495 34.75 85.1751 34.75 81.9995Z" fill="#00ACE3" stroke="white" stroke-width="1.5"/>
</g>
<rect opacity="0.5" x="65" y="81" width="18" height="3" rx="1.5" fill="#BDC1C6"/>
<rect opacity="0.08" x="19" y="72" width="81" height="1" fill="#525C69"/>
<rect opacity="0.5" x="25" y="55" width="19" height="3" rx="1.5" fill="#BDC1C6"/>
<rect x="25" y="61" width="36" height="3" rx="1.40398" fill="#525C69" fill-opacity="0.1"/>
</g>
<defs>
<filter id="filter0_d_4358_215450" x="11.9256" y="15.2837" width="95.1488" height="38.8988" filterUnits="userSpaceOnUse" color-interpolation-filters="sRGB">
<feFlood flood-opacity="0" result="BackgroundImageFix"/>
<feColorMatrix in="SourceAlpha" type="matrix" values="0 0 0 0 0 0 0 0 0 0 0 0 0 0 0 0 0 0 127 0" result="hardAlpha"/>
<feOffset dy="2.35813"/>
<feGaussianBlur stdDeviation="3.5372"/>
<feComposite in2="hardAlpha" operator="out"/>
<feColorMatrix type="matrix" values="0 0 0 0 0.423529 0 0 0 0 0.423529 0 0 0 0 0.423529 0 0 0 0.12 0"/>
<feBlend mode="normal" in2="BackgroundImageFix" result="effect1_dropShadow_4358_215450"/>
<feBlend mode="normal" in="SourceGraphic" in2="effect1_dropShadow_4358_215450" result="shape"/>
</filter>
<filter id="filter1_d_4358_215450" x="13" y="45" width="93" height="55" filterUnits="userSpaceOnUse" color-interpolation-filters="sRGB">
<feFlood flood-opacity="0" result="BackgroundImageFix"/>
<feColorMatrix in="SourceAlpha" type="matrix" values="0 0 0 0 0 0 0 0 0 0 0 0 0 0 0 0 0 0 127 0" result="hardAlpha"/>
<feOffset dy="2"/>
<feGaussianBlur stdDeviation="3"/>
<feComposite in2="hardAlpha" operator="out"/>
<feColorMatrix type="matrix" values="0 0 0 0 0.193376 0 0 0 0 0.193376 0 0 0 0 0.193376 0 0 0 0.08 0"/>
<feBlend mode="normal" in2="BackgroundImageFix" result="effect1_dropShadow_4358_215450"/>
<feBlend mode="normal" in="SourceGraphic" in2="effect1_dropShadow_4358_215450" result="shape"/>
</filter>
<linearGradient id="paint0_linear_4358_215450" x1="61.0177" y1="41.5035" x2="61.0177" y2="108" gradientUnits="userSpaceOnUse">
<stop stop-color="#EAF6C3" stop-opacity="0.5"/>
<stop offset="1" stop-color="#EAF6C3"/>
</linearGradient>
</defs>
</svg>
