<svg xmlns="http://www.w3.org/2000/svg" width="82" height="82" viewBox="0 0 82 82">
  <path fill="#FFFFFF" fill-rule="evenodd" d="M48.181,54.062 C48.181,50.845 44.571,37.236 44.571,37.236 C44.571,35.247 41.971,32.975 36.851,31.651 C35.1163622,31.1671707 33.4673809,30.4168977 31.963,29.427 C31.634,29.239 31.684,27.502 31.684,27.502 L30.035,27.251 C30.035,27.11 29.894,25.027 29.894,25.027 C31.867,24.364 31.664,20.453 31.664,20.453 C32.917,21.148 33.733,18.053 33.733,18.053 C35.215,13.753 32.995,14.013 32.995,14.013 C33.3833802,11.3879543 33.3833802,8.72004571 32.995,6.095 C32.008,-2.613 17.148,-0.249 18.91,2.595 C14.567,1.795 15.558,11.677 15.558,11.677 L16.5,14.236 C14.65,15.436 15.936,16.887 16,18.557 C16.091,21.023 17.6,20.512 17.6,20.512 C17.693,24.582 19.7,25.112 19.7,25.112 C20.077,27.668 19.842,27.233 19.842,27.233 L18.056,27.449 C18.0801773,28.0302617 18.0328223,28.6122916 17.915,29.182 C15.815,30.118 15.363,30.667 13.276,31.582 C9.244,33.349 4.862,35.647 4.083,38.741 C3.304,41.835 0.988,54.062 0.988,54.062 L48.179,54.062 L48.179,54.062 L48.179,54.062 L48.181,54.062 Z" transform="translate(16.355 11)"/>
</svg>
