<svg xmlns="http://www.w3.org/2000/svg" width="82" height="82" viewBox="0 0 82 82"><path fill="#FFF" fill-rule="evenodd" d="M46.03 33.708s-.475 1.492-.55 1.692c-.172.256-.317.53-.433.816.1 0 1.107.47 1.107.47l3.917 1.227-.056 1.86c-.74.296-1.394.778-1.894 1.4-.19.413-.42.806-.69 1.17 3.568 1.45 5.655 3.573 5.74 5.95.058.422 2.223 8.205 2.347 9.958H72c.014-.072-.5-10.14-.5-10.216 0 0-.946-2.425-2.446-2.672-1.487-.188-2.924-.66-4.233-1.388-.864-.504-1.775-.923-2.72-1.252-.483-.425-.858-.957-1.095-1.555-.5-.623-1.152-1.105-1.894-1.4l-.055-1.86 3.917-1.227s1.01-.47 1.107-.47c-.158-.33-.338-.646-.54-.948-.075-.2-.444-1.554-.444-1.554.572.733 1.242 1.384 1.992 1.933-.667-1.246-1.238-2.542-1.708-3.876-.314-1.233-.532-2.488-.653-3.754-.27-2.353-.69-4.687-1.255-6.987-.406-1.148-1.124-2.16-2.072-2.923-1.403-.974-3.04-1.555-4.742-1.685h-.2c-1.7.13-3.333.712-4.733 1.685-.947.765-1.664 1.777-2.07 2.925-.568 2.3-.987 4.634-1.255 6.987-.103 1.295-.31 2.58-.622 3.84-.47 1.312-1.052 2.58-1.737 3.792.75-.55 1.42-1.202 1.99-1.936zM54.606 64c0-2.976-3.336-15.56-3.336-15.56 0-1.84-2.4-3.942-7.134-5.166-1.603-.448-3.127-1.142-4.517-2.057-.3-.174-.26-1.78-.26-1.78l-1.524-.237c0-.13-.13-2.057-.13-2.057 1.824-.613 1.636-4.23 1.636-4.23 1.158.645 1.912-2.213 1.912-2.213 1.37-3.976-.682-3.736-.682-3.736.36-2.428.36-4.895 0-7.323-.912-8.053-14.646-5.867-13.018-3.24-4.014-.744-3.1 8.4-3.1 8.4l.87 2.364c-1.71 1.108-.52 2.45-.463 4 .085 2.28 1.477 1.808 1.477 1.808.086 3.764 1.94 4.26 1.94 4.26.348 2.363.13 1.96.13 1.96l-1.65.2c.022.538-.02 1.075-.13 1.6-1.945.867-2.36 1.375-4.287 2.22-3.726 1.634-7.777 3.76-8.5 6.62C13.117 52.695 10.99 64 10.99 64H54.606z"/></svg>