<svg xmlns="http://www.w3.org/2000/svg" width="120" height="120" viewBox="0 0 120 120" fill="none">
	<path fill-rule="evenodd" clip-rule="evenodd" d="M69.8606 72.8842C69.8606 79.4499 64.7069 84.8595 58.1489 85.1775L17.5191 87.1474C10.4959 87.4879 4.61536 81.8856 4.61536 74.8542V28.0053C4.61536 20.5264 11.2306 14.7762 18.6366 15.8174L59.2665 21.5299C65.342 22.3841 69.8606 27.5824 69.8606 33.7177V72.8842Z" fill="#0075FF" fill-opacity="0.78"/>
	<path fill-rule="evenodd" clip-rule="evenodd" d="M17.4148 84.9961L58.0446 83.0262C63.4549 82.7639 67.7067 78.3009 67.7067 72.8842V33.7177C67.7067 28.6561 63.9789 24.3675 58.9666 23.6627L18.3367 17.9503C12.2268 17.0913 6.7692 21.8352 6.7692 28.0053V74.8542C6.7692 80.6551 11.6207 85.277 17.4148 84.9961ZM58.1489 85.1775C64.7069 84.8595 69.8606 79.4499 69.8606 72.8842V33.7177C69.8606 27.5824 65.342 22.3841 59.2665 21.5299L18.6366 15.8174C11.2306 14.7762 4.61536 20.5264 4.61536 28.0053V74.8542C4.61536 81.8855 10.4959 87.4879 17.5191 87.1474L58.1489 85.1775Z" fill="white" fill-opacity="0.18"/>
	<path fill-rule="evenodd" clip-rule="evenodd" d="M114.078 87.7793C114.078 94.0714 109.332 99.3503 103.075 100.018L73.5898 103.162C66.3173 103.938 59.9769 98.2378 59.9769 90.9239V54.5175C59.9769 47.3215 66.1238 41.6604 73.2955 42.2514L102.781 44.6813C109.165 45.2074 114.078 50.542 114.078 56.9474V87.7793Z" fill="#9BD4FF" fill-opacity="0.8"/>
	<path fill-rule="evenodd" clip-rule="evenodd" d="M73.4267 101.632L102.912 98.4878C108.387 97.9039 112.539 93.2849 112.539 87.7793V56.9474C112.539 51.3427 108.24 46.6749 102.654 46.2146L73.1691 43.7847C66.8939 43.2675 61.5154 48.221 61.5154 54.5175V90.9239C61.5154 97.3235 67.0632 102.311 73.4267 101.632ZM103.075 100.018C109.332 99.3503 114.078 94.0714 114.078 87.7793V56.9474C114.078 50.542 109.165 45.2074 102.781 44.6813L73.2955 42.2514C66.1238 41.6604 59.9769 47.3215 59.9769 54.5175V90.9239C59.9769 98.2378 66.3173 103.938 73.5898 103.162L103.075 100.018Z" fill="white" fill-opacity="0.24"/>
	<g filter="url(#filter0_d_7426_20098)">
		<path fill-rule="evenodd" clip-rule="evenodd" d="M34.0789 30.5608C26.4668 36.0416 29.0292 53.9374 39.5433 54.3653C51.3966 54.8471 52.383 30.6131 39.5433 29.1841C37.6603 28.975 35.3119 29.6724 34.0789 30.5608ZM55.708 72.9634C55.7538 73.7392 55.2197 74.3826 54.5649 74.394L23.1842 74.9068C22.4003 74.9199 21.7569 74.2307 21.8108 73.3766C22.5636 61.6132 31.701 58.8646 39.5645 59.0785C47.4281 59.2925 55.0842 62.2419 55.708 72.9634Z" fill="white" fill-opacity="0.9" shape-rendering="crispEdges"/>
	</g>
	<g filter="url(#filter1_d_7426_20098)">
		<path fill-rule="evenodd" clip-rule="evenodd" d="M81.3307 63.378C81.3307 57.8945 84.785 53.6344 88.9409 53.8543C92.9736 54.069 96.1548 58.4525 96.1548 63.6517V65.3632C98.3237 65.6422 100 68.0782 100 71.0292V83.697C100 86.8143 98.1256 89.4863 95.7799 89.6688L81.7431 90.758C79.1028 90.9618 76.9231 88.3864 76.9231 85.0008V71.2384C76.9231 68.0352 78.8779 65.4223 81.3307 65.1808V63.3727V63.378ZM93.9215 63.6087V65.315L83.7728 65.1916V63.4209C83.7728 59.6973 86.1078 56.7785 88.9409 56.8966C91.7739 57.0146 93.9215 60.0139 93.9215 63.6034V63.6087ZM86.4077 76.341C86.4077 74.5221 87.5431 73.0251 88.9355 73.0037C90.328 72.9822 91.4151 74.4148 91.4151 76.2015C91.4151 77.5267 90.8099 78.6857 89.937 79.2222V82.5327C89.937 83.2517 89.4925 83.858 88.9409 83.8902C88.3893 83.9224 87.934 83.359 87.934 82.6346V79.3081C87.0397 78.8359 86.4077 77.6984 86.4077 76.341Z" fill="white" fill-opacity="0.9" shape-rendering="crispEdges"/>
	</g>
	<defs>
		<filter id="filter0_d_7426_20098" x="11.8076" y="23.1467" width="53.9032" height="65.7603" filterUnits="userSpaceOnUse" color-interpolation-filters="sRGB">
			<feFlood flood-opacity="0" result="BackgroundImageFix"/>
			<feColorMatrix in="SourceAlpha" type="matrix" values="0 0 0 0 0 0 0 0 0 0 0 0 0 0 0 0 0 0 127 0" result="hardAlpha"/>
			<feOffset dy="4"/>
			<feGaussianBlur stdDeviation="5"/>
			<feComposite in2="hardAlpha" operator="out"/>
			<feColorMatrix type="matrix" values="0 0 0 0 0 0 0 0 0 0 0 0 0 0 0 0 0 0 0.05 0"/>
			<feBlend mode="normal" in2="BackgroundImageFix" result="effect1_dropShadow_7426_20098"/>
			<feBlend mode="normal" in="SourceGraphic" in2="effect1_dropShadow_7426_20098" result="shape"/>
		</filter>
		<filter id="filter1_d_7426_20098" x="66.9231" y="47.8462" width="43.0769" height="56.9231" filterUnits="userSpaceOnUse" color-interpolation-filters="sRGB">
			<feFlood flood-opacity="0" result="BackgroundImageFix"/>
			<feColorMatrix in="SourceAlpha" type="matrix" values="0 0 0 0 0 0 0 0 0 0 0 0 0 0 0 0 0 0 127 0" result="hardAlpha"/>
			<feOffset dy="4"/>
			<feGaussianBlur stdDeviation="5"/>
			<feComposite in2="hardAlpha" operator="out"/>
			<feColorMatrix type="matrix" values="0 0 0 0 0 0 0 0 0 0 0 0 0 0 0 0 0 0 0.05 0"/>
			<feBlend mode="normal" in2="BackgroundImageFix" result="effect1_dropShadow_7426_20098"/>
			<feBlend mode="normal" in="SourceGraphic" in2="effect1_dropShadow_7426_20098" result="shape"/>
		</filter>
	</defs>
</svg>