<svg width="158" height="135" viewBox="0 0 158 135" fill="none" xmlns="http://www.w3.org/2000/svg">
	<path fill-rule="evenodd" clip-rule="evenodd" d="M113.818 10.3377C114.776 10.3377 115.552 9.56123 115.552 8.60342C115.552 7.6456 114.776 6.86914 113.818 6.86914C112.86 6.86914 112.084 7.6456 112.084 8.60342C112.084 9.56123 112.86 10.3377 113.818 10.3377ZM28.2401 25.3191C30.3165 25.3191 31.9997 23.6358 31.9997 21.5594C31.9997 19.483 30.3165 17.7998 28.2401 17.7998C26.1637 17.7998 24.4804 19.483 24.4804 21.5594C24.4804 23.6358 26.1637 25.3191 28.2401 25.3191ZM28.2401 23.2229C29.1588 23.2229 29.9035 22.4781 29.9035 21.5594C29.9035 20.6408 29.1588 19.896 28.2401 19.896C27.3214 19.896 26.5766 20.6408 26.5766 21.5594C26.5766 22.4781 27.3214 23.2229 28.2401 23.2229ZM9.13998 62.0223C11.9366 62.0223 14.2037 59.7552 14.2037 56.9586C14.2037 54.1619 11.9366 51.8948 9.13998 51.8948C6.34335 51.8948 4.07623 54.1619 4.07623 56.9586C4.07623 59.7552 6.34335 62.0223 9.13998 62.0223ZM9.13998 59.3795C10.4771 59.3795 11.561 58.2956 11.561 56.9585C11.561 55.6215 10.4771 54.5376 9.13998 54.5376C7.80292 54.5376 6.71901 55.6215 6.71901 56.9585C6.71901 58.2956 7.80292 59.3795 9.13998 59.3795ZM137.703 125.739C139.694 125.739 141.308 124.125 141.308 122.134C141.308 120.143 139.694 118.529 137.703 118.529C135.712 118.529 134.098 120.143 134.098 122.134C134.098 124.125 135.712 125.739 137.703 125.739ZM137.703 123.863C138.658 123.863 139.432 123.089 139.432 122.134C139.432 121.179 138.658 120.405 137.703 120.405C136.748 120.405 135.974 121.179 135.974 122.134C135.974 123.089 136.748 123.863 137.703 123.863ZM80.0001 135C114.242 135 142 107.241 142 72.9995C142 38.7579 114.242 10.9995 80.0001 10.9995C45.7584 10.9995 18.0001 38.7579 18.0001 72.9995C18.0001 107.241 45.7584 135 80.0001 135ZM17.9704 130.666H5.91744C5.81431 130.666 5.71207 130.662 5.61085 130.654C2.88685 130.59 0.697892 128.301 0.697754 125.487C0.698546 124.115 1.22957 122.8 2.174 121.83C2.6581 121.333 3.2305 120.948 3.85326 120.691C3.84284 120.551 3.83753 120.41 3.83753 120.268C3.83839 118.82 4.39872 117.433 5.39524 116.41C6.39177 115.387 7.74287 114.813 9.15131 114.813C10.9555 114.816 12.5484 115.743 13.5057 117.158C13.9603 116.993 14.4496 116.903 14.9594 116.903C17.2116 116.906 19.0613 118.67 19.2757 120.926C21.4336 121.41 23.0485 123.385 23.0466 125.748C23.0444 128.47 20.8959 130.675 18.2471 130.674C18.1542 130.674 18.0619 130.671 17.9704 130.666ZM145.704 34.7846H154.258C154.323 34.7883 154.389 34.7902 154.454 34.7902C156.334 34.791 157.859 33.2874 157.861 31.4314C157.862 29.8208 156.716 28.4738 155.184 28.1441C155.032 26.6057 153.72 25.4028 152.121 25.4009C151.759 25.4007 151.412 25.462 151.09 25.5749C150.41 24.61 149.28 23.9778 147.999 23.9763C147 23.9757 146.041 24.3671 145.334 25.0646C144.627 25.762 144.229 26.7082 144.228 27.6951C144.228 27.7922 144.232 27.8883 144.239 27.9835C143.798 28.159 143.391 28.4216 143.048 28.7604C142.377 29.4214 142.001 30.3182 142 31.2535C142 33.1725 143.554 34.7333 145.487 34.7767C145.559 34.782 145.631 34.7846 145.704 34.7846Z" fill="#E5F9FF"/>
	<path fill-rule="evenodd" clip-rule="evenodd" d="M81.0815 72.2793L81.0815 91.0234L78.9188 91.0234L78.9188 72.2793L81.0815 72.2793Z" fill="#2FC6F6"/>
	<path fill-rule="evenodd" clip-rule="evenodd" d="M80.1137 92.0929L58.5264 102.873L58.2186 100.732L79.8059 89.9522L80.1137 92.0929Z" fill="#2FC6F6"/>
	<path fill-rule="evenodd" clip-rule="evenodd" d="M79.8468 92.1261L101.434 102.906L101.742 100.765L80.1545 89.9854L79.8468 92.1261Z" fill="#2FC6F6"/>
	<g filter="url(#filter0_d_748_13130)">
		<path d="M29.1479 85.2548C29.1479 83.6622 30.439 82.3711 32.0317 82.3711H63.1767C64.7693 82.3711 66.0604 83.6622 66.0604 85.2548V108.737H29.1479V85.2548Z" fill="#E5F9FF"/>
		<path d="M29.7153 85.2548C29.7153 83.9755 30.7524 82.9384 32.0317 82.9384H63.1767C64.456 82.9384 65.4931 83.9755 65.4931 85.2548V108.17H29.7153V85.2548Z" stroke="#2FC6F6" stroke-width="1.13462"/>
	</g>
	<path fill-rule="evenodd" clip-rule="evenodd" d="M63.1767 83.1891H32.0317C30.8908 83.1891 29.9659 84.1139 29.9659 85.2548V107.919H65.2425V85.2548C65.2425 84.1139 64.3176 83.1891 63.1767 83.1891ZM32.0317 82.3711C30.439 82.3711 29.1479 83.6622 29.1479 85.2548V108.737H66.0604V85.2548C66.0604 83.6622 64.7693 82.3711 63.1767 82.3711H32.0317Z" fill="#2FC6F6"/>
	<g filter="url(#filter1_d_748_13130)">
		<path d="M28.0933 108.4C28.0933 107.96 28.4498 107.604 28.8896 107.604H66.3187C66.7585 107.604 67.115 107.96 67.115 108.4V109.659C67.115 110.854 66.1467 111.822 64.9522 111.822H30.2561C29.0616 111.822 28.0933 110.854 28.0933 109.659V108.4Z" fill="#C3F0FF"/>
	</g>
	<g filter="url(#filter2_d_748_13130)">
		<path d="M39.6279 108.324V107.604H55.4884V108.324C55.4884 108.723 55.1656 109.045 54.7675 109.045H40.3489C39.9507 109.045 39.6279 108.723 39.6279 108.324Z" fill="#7EDCF9"/>
	</g>
	<path fill-rule="evenodd" clip-rule="evenodd" d="M28.9112 108.421V109.659C28.9112 110.402 29.5133 111.004 30.2561 111.004H64.9522C65.695 111.004 66.2971 110.402 66.2971 109.659V108.421H28.9112ZM28.8896 107.604C28.4498 107.604 28.0933 107.96 28.0933 108.4V109.659C28.0933 110.854 29.0616 111.822 30.2561 111.822H64.9522C66.1467 111.822 67.115 110.854 67.115 109.659V108.4C67.115 107.96 66.7585 107.604 66.3187 107.604H28.8896Z" fill="#2FC6F6"/>
	<g filter="url(#filter3_d_748_13130)">
		<path d="M39.6279 108.324H55.4884C55.4884 108.722 55.1656 109.045 54.7675 109.045H40.3489C39.9507 109.045 39.6279 108.722 39.6279 108.324Z" fill="#7EDCF9"/>
	</g>
	<path d="M42.8584 82.3711H52.3502C52.3502 83.536 51.4058 84.4804 50.2409 84.4804H44.9677C43.8028 84.4804 42.8584 83.536 42.8584 82.3711Z" fill="#7EDCF9"/>
	<g filter="url(#filter4_d_748_13130)">
		<path d="M94.0317 85.2548C94.0317 83.6622 95.3228 82.3711 96.9155 82.3711H128.06C129.653 82.3711 130.944 83.6622 130.944 85.2548V108.737H94.0317V85.2548Z" fill="#E5F9FF"/>
	</g>
	<path fill-rule="evenodd" clip-rule="evenodd" d="M128.061 83.1891H96.9155C95.7746 83.1891 94.8497 84.1139 94.8497 85.2548V107.919H130.126V85.2548C130.126 84.1139 129.201 83.1891 128.061 83.1891ZM96.9155 82.3711C95.3228 82.3711 94.0317 83.6622 94.0317 85.2548V108.737H130.944V85.2548C130.944 83.6622 129.653 82.3711 128.061 82.3711H96.9155Z" fill="#2FC6F6"/>
	<g filter="url(#filter5_d_748_13130)">
		<path d="M92.9771 108.4C92.9771 107.96 93.3336 107.604 93.7733 107.604H131.203C131.642 107.604 131.999 107.96 131.999 108.4V109.659C131.999 110.854 131.031 111.822 129.836 111.822H95.1398C93.9454 111.822 92.9771 110.854 92.9771 109.659V108.4Z" fill="#C3F0FF"/>
	</g>
	<g filter="url(#filter6_d_748_13130)">
		<path d="M104.512 108.324V107.604H120.372V108.324C120.372 108.723 120.049 109.045 119.651 109.045H105.233C104.834 109.045 104.512 108.723 104.512 108.324Z" fill="#7EDCF9"/>
	</g>
	<path fill-rule="evenodd" clip-rule="evenodd" d="M93.795 108.421V109.659C93.795 110.402 94.3971 111.004 95.1398 111.004H129.836C130.579 111.004 131.181 110.402 131.181 109.659V108.421H93.795ZM93.7733 107.604C93.3336 107.604 92.9771 107.96 92.9771 108.4V109.659C92.9771 110.854 93.9454 111.822 95.1398 111.822H129.836C131.031 111.822 131.999 110.854 131.999 109.659V108.4C131.999 107.96 131.642 107.604 131.203 107.604H93.7733Z" fill="#2FC6F6"/>
	<path d="M107.742 82.3711H117.234C117.234 83.536 116.29 84.4804 115.125 84.4804H109.851C108.687 84.4804 107.742 83.536 107.742 82.3711Z" fill="#7EDCF9"/>
	<g filter="url(#filter7_d_748_13130)">
		<path d="M104.512 108.324H120.372C120.372 108.722 120.049 109.045 119.651 109.045H105.233C104.834 109.045 104.512 108.722 104.512 108.324Z" fill="#7EDCF9"/>
	</g>
	<g filter="url(#filter8_d_748_13130)">
		<path d="M48.2793 36.2316C48.2793 34.2408 49.8932 32.627 51.8839 32.627H106.675C108.665 32.627 110.279 34.2408 110.279 36.2316V72.999C110.279 74.9898 108.665 76.6037 106.675 76.6037H51.8839C49.8932 76.6037 48.2793 74.9898 48.2793 72.999V36.2316Z" fill="white"/>
		<path d="M51.8838 36.9534C51.8838 36.5552 52.2066 36.2324 52.6047 36.2324H105.954C106.352 36.2324 106.674 36.5552 106.674 36.9534V66.5115C106.674 66.9096 106.352 67.2324 105.954 67.2324H52.6047C52.2066 67.2324 51.8838 66.9096 51.8838 66.5115V36.9534Z" fill="white"/>
		<path fill-rule="evenodd" clip-rule="evenodd" d="M52.7018 37.0504V66.4144H105.857V37.0504H52.7018ZM52.6047 36.2324C52.2066 36.2324 51.8838 36.5552 51.8838 36.9534V66.5115C51.8838 66.9096 52.2066 67.2324 52.6047 67.2324H105.954C106.352 67.2324 106.674 66.9096 106.674 66.5115V36.9534C106.674 36.5552 106.352 36.2324 105.954 36.2324H52.6047Z" fill="#2FC6F6" fill-opacity="0.1"/>
		<path opacity="0.5" d="M48.2793 69.3945H110.279V72.9992C110.279 74.8015 108.837 76.6038 106.675 76.6038H51.8839C49.7212 76.6038 48.2793 74.8015 48.2793 72.9992V69.3945Z" fill="#C3F0FF"/>
		<path fill-rule="evenodd" clip-rule="evenodd" d="M106.675 33.4449H51.8839C50.3449 33.4449 49.0973 34.6926 49.0973 36.2316V72.999C49.0973 74.5381 50.3449 75.7857 51.8839 75.7857H106.675C108.214 75.7857 109.461 74.5381 109.461 72.999V36.2316C109.461 34.6926 108.214 33.4449 106.675 33.4449ZM51.8839 32.627C49.8932 32.627 48.2793 34.2408 48.2793 36.2316V72.999C48.2793 74.9898 49.8932 76.6037 51.8839 76.6037H106.675C108.665 76.6037 110.279 74.9898 110.279 72.999V36.2316C110.279 34.2408 108.665 32.627 106.675 32.627H51.8839Z" fill="#2FC6F6"/>
		<path d="M71.5891 75.8828H88.4108L90.8139 82.3712H69.186L71.5891 75.8828Z" fill="#E5F9FF"/>
		<path fill-rule="evenodd" clip-rule="evenodd" d="M72.1585 76.7008L70.3613 81.5532H89.6387L87.8415 76.7008H72.1585ZM88.4108 75.8828H71.5891L69.186 82.3712H90.8139L88.4108 75.8828Z" fill="#2FC6F6"/>
		<path d="M66.769 81.4374C66.769 80.9083 67.1979 80.4794 67.727 80.4794H92.1323C92.6614 80.4794 93.0904 80.9083 93.0904 81.4374C93.0904 81.9665 92.6614 82.3955 92.1323 82.3955H67.727C67.1979 82.3955 66.769 81.9665 66.769 81.4374Z" fill="white" stroke="#2FC6F6" stroke-width="1.13462"/>
		<path fill-rule="evenodd" clip-rule="evenodd" d="M92.1323 80.7301H67.727C67.3363 80.7301 67.0196 81.0468 67.0196 81.4374C67.0196 81.8281 67.3363 82.1448 67.727 82.1448H92.1323C92.523 82.1448 92.8397 81.8281 92.8397 81.4374C92.8397 81.0468 92.523 80.7301 92.1323 80.7301ZM67.727 79.9121C66.8846 79.9121 66.2017 80.595 66.2017 81.4374C66.2017 82.2799 66.8846 82.9628 67.727 82.9628H92.1323C92.9748 82.9628 93.6577 82.2799 93.6577 81.4374C93.6577 80.595 92.9748 79.9121 92.1323 79.9121H67.727Z" fill="#2FC6F6"/>
		<path d="M49 69.3945H109.558V70.2195H49V69.3945Z" fill="#2FC6F6"/>
		<path opacity="0.5" fill-rule="evenodd" clip-rule="evenodd" d="M90.3562 50.619C90.2756 50.5944 90.2227 50.5206 90.2227 50.4362C90.2227 47.2397 87.5597 44.6455 84.2759 44.6455C83.6022 44.6454 82.9339 44.7564 82.3017 44.9735C81.4128 42.7714 79.1678 41.3039 76.6472 41.2773C73.2728 41.2773 70.54 43.9422 70.54 47.2275C70.54 47.2907 70.5013 47.3492 70.4422 47.3716C67.4783 48.4923 65.5463 51.1951 65.582 54.1871C65.582 58.2055 68.9276 61.4634 73.0552 61.4634H88.7635C91.9582 61.381 94.4831 58.9076 94.4175 55.9246C94.4515 53.5126 92.8012 51.3665 90.3562 50.619Z" fill="#E5F9FF"/>
		<path opacity="0.5" fill-rule="evenodd" clip-rule="evenodd" d="M84.4899 44.9378H84.4898C83.8655 44.9377 83.2469 45.0428 82.6628 45.2474C82.2821 45.3808 81.8657 45.1868 81.715 44.806C80.9055 42.7595 78.8395 41.356 76.4758 41.3291C73.3341 41.3312 70.8242 43.8584 70.8242 46.9318C70.8242 47.3057 70.6023 47.6659 70.2323 47.8087C67.393 48.9042 65.5849 51.5242 65.6183 54.3793L65.6184 54.3885H65.6183C65.6183 58.248 68.7731 61.4121 72.7082 61.4121H89.1918C92.1743 61.3289 94.4404 58.9861 94.3818 56.2671C94.3816 56.2578 94.3816 56.2485 94.3817 56.2392C94.4122 54.0289 92.9275 52.0138 90.653 51.3043C90.2395 51.1753 89.9771 50.7883 89.9771 50.3697C89.9771 47.3906 87.5388 44.9378 84.4899 44.9378ZM89.2019 62.1845H72.7082C68.3742 62.1845 64.8614 58.6939 64.8614 54.3885C64.8238 51.1828 66.8524 48.2869 69.9645 47.0862C70.0266 47.0622 70.0672 46.9995 70.0672 46.9318C70.0672 43.4119 72.9367 40.5566 76.4798 40.5566C79.1264 40.5851 81.4837 42.1574 82.417 44.5168C83.0808 44.2842 83.7826 44.1653 84.4899 44.1653C87.9379 44.1653 90.7341 46.9449 90.7341 50.3697C90.7341 50.4601 90.7896 50.5392 90.8743 50.5656C93.4415 51.3664 95.1743 53.6659 95.1386 56.2501C95.2075 59.4462 92.5563 62.0963 89.2019 62.1845Z" fill="#2FC6F6"/>
		<path fill-rule="evenodd" clip-rule="evenodd" d="M76.5548 49.641C77.2163 49.641 77.838 49.9047 77.838 50.6561C77.838 51.3328 77.2193 51.7814 76.4484 52.3402C75.267 53.1967 73.7284 54.3121 73.5122 56.9048H79.8487V55.3757H75.8669C76.108 54.5804 76.8674 54.0036 77.6497 53.4094C78.6701 52.6344 79.7297 51.8296 79.7297 50.4715C79.7297 49.1005 78.7904 48.125 76.8459 48.125C75.6024 48.125 74.5573 48.5073 73.8032 48.8501L74.2663 50.2343C74.9409 49.931 75.6685 49.641 76.5548 49.641ZM83.4331 53.3848H82.6393C82.3352 53.3848 81.7001 53.4112 81.5414 53.4244L83.5125 50.8274C83.4859 50.9987 83.4331 51.7766 83.4331 52.4488V53.3848ZM83.8961 48.1514L79.5307 53.6882V54.8351H83.4331V56.9048H85.1926V54.8351H86.489V53.385H85.1926V48.1514H83.8961Z" fill="#2FC6F6"/>
	</g>
	<defs>
		<filter id="filter0_d_748_13130" x="16.0545" y="71.8532" width="63.0995" height="52.5522" filterUnits="userSpaceOnUse" color-interpolation-filters="sRGB">
			<feFlood flood-opacity="0" result="BackgroundImageFix"/>
			<feColorMatrix in="SourceAlpha" type="matrix" values="0 0 0 0 0 0 0 0 0 0 0 0 0 0 0 0 0 0 127 0" result="hardAlpha"/>
			<feOffset dy="2.57558"/>
			<feGaussianBlur stdDeviation="6.54673"/>
			<feComposite in2="hardAlpha" operator="out"/>
			<feColorMatrix type="matrix" values="0 0 0 0 0.392157 0 0 0 0 0.427451 0 0 0 0 0.482353 0 0 0 0.16 0"/>
			<feBlend mode="normal" in2="BackgroundImageFix" result="effect1_dropShadow_748_13130"/>
			<feBlend mode="normal" in="SourceGraphic" in2="effect1_dropShadow_748_13130" result="shape"/>
		</filter>
		<filter id="filter1_d_748_13130" x="14.9998" y="97.0856" width="65.2089" height="30.4057" filterUnits="userSpaceOnUse" color-interpolation-filters="sRGB">
			<feFlood flood-opacity="0" result="BackgroundImageFix"/>
			<feColorMatrix in="SourceAlpha" type="matrix" values="0 0 0 0 0 0 0 0 0 0 0 0 0 0 0 0 0 0 127 0" result="hardAlpha"/>
			<feOffset dy="2.57558"/>
			<feGaussianBlur stdDeviation="6.54673"/>
			<feComposite in2="hardAlpha" operator="out"/>
			<feColorMatrix type="matrix" values="0 0 0 0 0.392157 0 0 0 0 0.427451 0 0 0 0 0.482353 0 0 0 0.16 0"/>
			<feBlend mode="normal" in2="BackgroundImageFix" result="effect1_dropShadow_748_13130"/>
			<feBlend mode="normal" in="SourceGraphic" in2="effect1_dropShadow_748_13130" result="shape"/>
		</filter>
		<filter id="filter2_d_748_13130" x="26.5345" y="97.0856" width="42.0473" height="27.6283" filterUnits="userSpaceOnUse" color-interpolation-filters="sRGB">
			<feFlood flood-opacity="0" result="BackgroundImageFix"/>
			<feColorMatrix in="SourceAlpha" type="matrix" values="0 0 0 0 0 0 0 0 0 0 0 0 0 0 0 0 0 0 127 0" result="hardAlpha"/>
			<feOffset dy="2.57558"/>
			<feGaussianBlur stdDeviation="6.54673"/>
			<feComposite in2="hardAlpha" operator="out"/>
			<feColorMatrix type="matrix" values="0 0 0 0 0.392157 0 0 0 0 0.427451 0 0 0 0 0.482353 0 0 0 0.16 0"/>
			<feBlend mode="normal" in2="BackgroundImageFix" result="effect1_dropShadow_748_13130"/>
			<feBlend mode="normal" in="SourceGraphic" in2="effect1_dropShadow_748_13130" result="shape"/>
		</filter>
		<filter id="filter3_d_748_13130" x="26.5345" y="97.8063" width="42.0473" height="26.9076" filterUnits="userSpaceOnUse" color-interpolation-filters="sRGB">
			<feFlood flood-opacity="0" result="BackgroundImageFix"/>
			<feColorMatrix in="SourceAlpha" type="matrix" values="0 0 0 0 0 0 0 0 0 0 0 0 0 0 0 0 0 0 127 0" result="hardAlpha"/>
			<feOffset dy="2.57558"/>
			<feGaussianBlur stdDeviation="6.54673"/>
			<feComposite in2="hardAlpha" operator="out"/>
			<feColorMatrix type="matrix" values="0 0 0 0 0.392157 0 0 0 0 0.427451 0 0 0 0 0.482353 0 0 0 0.16 0"/>
			<feBlend mode="normal" in2="BackgroundImageFix" result="effect1_dropShadow_748_13130"/>
			<feBlend mode="normal" in="SourceGraphic" in2="effect1_dropShadow_748_13130" result="shape"/>
		</filter>
		<filter id="filter4_d_748_13130" x="80.9383" y="71.8532" width="63.0995" height="52.5522" filterUnits="userSpaceOnUse" color-interpolation-filters="sRGB">
			<feFlood flood-opacity="0" result="BackgroundImageFix"/>
			<feColorMatrix in="SourceAlpha" type="matrix" values="0 0 0 0 0 0 0 0 0 0 0 0 0 0 0 0 0 0 127 0" result="hardAlpha"/>
			<feOffset dy="2.57558"/>
			<feGaussianBlur stdDeviation="6.54673"/>
			<feComposite in2="hardAlpha" operator="out"/>
			<feColorMatrix type="matrix" values="0 0 0 0 0.392157 0 0 0 0 0.427451 0 0 0 0 0.482353 0 0 0 0.16 0"/>
			<feBlend mode="normal" in2="BackgroundImageFix" result="effect1_dropShadow_748_13130"/>
			<feBlend mode="normal" in="SourceGraphic" in2="effect1_dropShadow_748_13130" result="shape"/>
		</filter>
		<filter id="filter5_d_748_13130" x="79.8836" y="97.0856" width="65.2089" height="30.4057" filterUnits="userSpaceOnUse" color-interpolation-filters="sRGB">
			<feFlood flood-opacity="0" result="BackgroundImageFix"/>
			<feColorMatrix in="SourceAlpha" type="matrix" values="0 0 0 0 0 0 0 0 0 0 0 0 0 0 0 0 0 0 127 0" result="hardAlpha"/>
			<feOffset dy="2.57558"/>
			<feGaussianBlur stdDeviation="6.54673"/>
			<feComposite in2="hardAlpha" operator="out"/>
			<feColorMatrix type="matrix" values="0 0 0 0 0.392157 0 0 0 0 0.427451 0 0 0 0 0.482353 0 0 0 0.16 0"/>
			<feBlend mode="normal" in2="BackgroundImageFix" result="effect1_dropShadow_748_13130"/>
			<feBlend mode="normal" in="SourceGraphic" in2="effect1_dropShadow_748_13130" result="shape"/>
		</filter>
		<filter id="filter6_d_748_13130" x="91.4183" y="97.0856" width="42.0473" height="27.6283" filterUnits="userSpaceOnUse" color-interpolation-filters="sRGB">
			<feFlood flood-opacity="0" result="BackgroundImageFix"/>
			<feColorMatrix in="SourceAlpha" type="matrix" values="0 0 0 0 0 0 0 0 0 0 0 0 0 0 0 0 0 0 127 0" result="hardAlpha"/>
			<feOffset dy="2.57558"/>
			<feGaussianBlur stdDeviation="6.54673"/>
			<feComposite in2="hardAlpha" operator="out"/>
			<feColorMatrix type="matrix" values="0 0 0 0 0.392157 0 0 0 0 0.427451 0 0 0 0 0.482353 0 0 0 0.16 0"/>
			<feBlend mode="normal" in2="BackgroundImageFix" result="effect1_dropShadow_748_13130"/>
			<feBlend mode="normal" in="SourceGraphic" in2="effect1_dropShadow_748_13130" result="shape"/>
		</filter>
		<filter id="filter7_d_748_13130" x="91.4183" y="97.8063" width="42.0473" height="26.9076" filterUnits="userSpaceOnUse" color-interpolation-filters="sRGB">
			<feFlood flood-opacity="0" result="BackgroundImageFix"/>
			<feColorMatrix in="SourceAlpha" type="matrix" values="0 0 0 0 0 0 0 0 0 0 0 0 0 0 0 0 0 0 127 0" result="hardAlpha"/>
			<feOffset dy="2.57558"/>
			<feGaussianBlur stdDeviation="6.54673"/>
			<feComposite in2="hardAlpha" operator="out"/>
			<feColorMatrix type="matrix" values="0 0 0 0 0.392157 0 0 0 0 0.427451 0 0 0 0 0.482353 0 0 0 0.16 0"/>
			<feBlend mode="normal" in2="BackgroundImageFix" result="effect1_dropShadow_748_13130"/>
			<feBlend mode="normal" in="SourceGraphic" in2="effect1_dropShadow_748_13130" result="shape"/>
		</filter>
		<filter id="filter8_d_748_13130" x="35.1858" y="22.1091" width="88.1869" height="76.5229" filterUnits="userSpaceOnUse" color-interpolation-filters="sRGB">
			<feFlood flood-opacity="0" result="BackgroundImageFix"/>
			<feColorMatrix in="SourceAlpha" type="matrix" values="0 0 0 0 0 0 0 0 0 0 0 0 0 0 0 0 0 0 127 0" result="hardAlpha"/>
			<feOffset dy="2.57558"/>
			<feGaussianBlur stdDeviation="6.54673"/>
			<feComposite in2="hardAlpha" operator="out"/>
			<feColorMatrix type="matrix" values="0 0 0 0 0.392157 0 0 0 0 0.427451 0 0 0 0 0.482353 0 0 0 0.16 0"/>
			<feBlend mode="normal" in2="BackgroundImageFix" result="effect1_dropShadow_748_13130"/>
			<feBlend mode="normal" in="SourceGraphic" in2="effect1_dropShadow_748_13130" result="shape"/>
		</filter>
	</defs>
</svg>
