<svg width="14" height="15" viewBox="0 0 14 15" fill="none" xmlns="http://www.w3.org/2000/svg">
<path fill-rule="evenodd" clip-rule="evenodd" d="M12.2367 6.55817C12.3316 6.65301 12.3316 6.80677 12.2367 6.90161L11.6003 7.53802C11.5055 7.63286 11.3517 7.63286 11.2569 7.53802L6.70947 2.99063C5.63164 1.9128 3.86791 1.9128 2.79007 2.99063C1.71224 4.06847 1.71224 5.8322 2.79007 6.91004L8.98696 13.1069C9.6629 13.7829 10.7606 13.7829 11.4366 13.1069C12.1125 12.431 12.1125 11.3332 11.4366 10.6573L5.72962 4.95034C5.45519 4.6759 5.02421 4.6759 4.74977 4.95034C4.47534 5.22477 4.47534 5.65575 4.74977 5.93019L8.80724 9.98765C8.90207 10.0825 8.90207 10.2362 8.80724 10.3311L8.17082 10.9675C8.07599 11.0623 7.92222 11.0623 7.82739 10.9675L3.76992 6.91004C2.95657 6.09668 2.95657 4.78384 3.76992 3.97048C4.58328 3.15713 5.89612 3.15713 6.70947 3.97048L12.4164 9.67745C13.6313 10.8923 13.6313 12.872 12.4164 14.0868C11.2016 15.3016 9.22193 15.3016 8.00711 14.0868L1.81022 7.88989C0.193468 6.27313 0.193468 3.62754 1.81022 2.01078C3.42698 0.394029 6.07257 0.394029 7.68933 2.01078L12.2367 6.55817Z" fill="#DFE0E3"/>
</svg>
