<svg width="367" height="59" viewBox="0 0 367 59" fill="none" xmlns="http://www.w3.org/2000/svg">

<g clip-path="url(#clip0)">
<path fill-rule="evenodd" clip-rule="evenodd" d="M177.495 51.9128C186.851 50.6322 191.384 46.8048 190.889 40.8847C190.462 35.7938 185.585 32.838 177.056 32.7429C168.286 32.645 159.514 32.7174 150.741 32.7159C143.291 32.7145 135.839 32.7159 127.717 32.7159C128.76 28.3462 129.555 25.1803 130.265 21.996C132.479 12.0796 135.018 2.17739 134.038 -8.11239C133.356 -15.2761 129.154 -19.9099 123.809 -19.5223C116.422 -18.9871 116.875 -13.439 116.375 -8.09678C114.384 13.1671 105.865 30.4445 85.8479 40.5823C81.1873 42.9433 75.7797 42.6778 71.3026 44.8584V100.461C101.96 107.72 132.745 106.972 163.508 106.229C166.65 106.153 170.257 105.838 172.48 102.202C173.892 96.5983 170.28 93.3288 165.648 90.4072C176.733 88.4409 178.489 79.7483 177.735 77.7565C176.981 75.7647 174.968 73.5684 173.134 71.6079C179.368 72.1644 182.45 69.2597 183.966 64.0069C185.71 57.9634 181.903 54.9125 177.495 51.9128M59.7705 109.82V34.0632C61.1235 32.2559 62.9274 32.6151 64.481 32.7287C88.1555 34.4635 100.184 15.8417 103.665 0.00664482C104.523 -3.88893 104.862 -7.93074 105.098 -11.9257C105.649 -21.2487 110.117 -27.6386 118.158 -30.1827C126.438 -32.8006 135.459 -29.6957 140.722 -22.3276C147.863 -12.3275 146.189 -1.24125 144.536 9.80238C144.015 13.2792 143.234 16.7162 142.352 21.3301C152.096 21.3301 161.416 21.2975 170.736 21.3443C174.996 21.3642 179.309 21.1541 183.51 21.7148C201.7 24.1396 207.732 40.8038 196.311 56.724C196.073 60.1212 193.63 73.1992 189.205 76.3282C190.772 81.2048 186.21 92.0667 184.651 94.6178C185.487 111.141 177.637 117.104 164.94 117.585C129.928 118.914 94.8862 118.917 59.7705 109.82" fill="#F0FBFF"/>
<g filter="url(#filter0_d)">
<path fill-rule="evenodd" clip-rule="evenodd" d="M38 71C56.2254 71 71 56.2254 71 38C71 19.7746 56.2254 5 38 5C19.7746 5 5 19.7746 5 38C5 56.2254 19.7746 71 38 71Z" fill="white"/>
</g>
<path fill-rule="evenodd" clip-rule="evenodd" d="M37.9999 62.3021C50.9341 62.3021 61.4193 51.8169 61.4193 38.8827C61.4193 25.9486 50.9341 15.4634 37.9999 15.4634C25.0658 15.4634 14.5806 25.9486 14.5806 38.8827C14.5806 51.8169 25.0658 62.3021 37.9999 62.3021Z" fill="#3886D8"/>
<path fill-rule="evenodd" clip-rule="evenodd" d="M47.5666 38.6822C49.2087 38.4571 50.0041 37.7844 49.9172 36.7438C49.8423 35.849 48.9865 35.3295 47.4897 35.3128C45.9505 35.2956 44.411 35.3083 42.8716 35.3081C41.5641 35.3078 40.2563 35.3081 38.8309 35.3081C39.0139 34.54 39.1535 33.9836 39.2781 33.4239C39.6666 31.681 40.1122 29.9405 39.9402 28.132C39.8206 26.8729 39.0831 26.0584 38.1451 26.1265C36.8488 26.2206 36.9282 27.1958 36.8406 28.1347C36.491 31.8721 34.996 34.9088 31.4832 36.6907C30.6653 37.1057 29.7163 37.059 28.9306 37.4423V47.2152C34.3107 48.491 39.7133 48.3595 45.1121 48.229C45.6634 48.2155 46.2965 48.1601 46.6865 47.5211C46.9345 46.5362 46.3005 45.9616 45.4876 45.448C47.433 45.1024 47.7411 43.5746 47.6088 43.2245C47.4765 42.8744 47.1232 42.4884 46.8014 42.1438C47.8954 42.2416 48.4362 41.7311 48.7024 40.8079C49.0085 39.7456 48.3403 39.2094 47.5666 38.6822M26.9067 48.8601V35.5449C27.1442 35.2273 27.4608 35.2904 27.7334 35.3103C31.8881 35.6153 33.9991 32.3422 34.61 29.559C34.7606 28.8743 34.82 28.1639 34.8614 27.4618C34.9581 25.8231 35.7423 24.7 37.1534 24.2529C38.6065 23.7927 40.1896 24.3385 41.1132 25.6335C42.3665 27.3912 42.0726 29.3397 41.7825 31.2808C41.6912 31.8918 41.5541 32.4959 41.3993 33.3069C43.1093 33.3069 44.7449 33.3012 46.3804 33.3094C47.1282 33.3129 47.8849 33.276 48.6222 33.3745C51.8145 33.8007 52.8731 36.7296 50.8687 39.5278C50.827 40.1249 50.3984 42.4236 49.6216 42.9735C49.8968 43.8306 49.0961 45.7398 48.8225 46.1882C48.9693 49.0924 47.5916 50.1404 45.3633 50.225C39.2189 50.4585 33.0693 50.459 26.9067 48.8601" fill="white"/>
</g>
<defs>
<filter id="filter0_d" x="3" y="4" width="70" height="70" filterUnits="userSpaceOnUse" color-interpolation-filters="sRGB">
<feFlood flood-opacity="0" result="BackgroundImageFix"/>
<feColorMatrix in="SourceAlpha" type="matrix" values="0 0 0 0 0 0 0 0 0 0 0 0 0 0 0 0 0 0 127 0"/>
<feOffset dy="1"/>
<feGaussianBlur stdDeviation="1"/>
<feColorMatrix type="matrix" values="0 0 0 0 0 0 0 0 0 0 0 0 0 0 0 0 0 0 0.06 0"/>
<feBlend mode="normal" in2="BackgroundImageFix" result="effect1_dropShadow"/>
<feBlend mode="normal" in="SourceGraphic" in2="effect1_dropShadow" result="shape"/>
</filter>
<clipPath id="clip0">
<rect width="367" height="129" fill="white"/>
</clipPath>
</defs>
</svg>
