<svg width="80" height="80" viewBox="0 0 80 80" fill="none" xmlns="http://www.w3.org/2000/svg"><path d="M0 12C0 5.37258 5.37258 0 12 0H68C74.6274 0 80 5.37258 80 12V68C80 74.6274 74.6274 80 68 80H12C5.37258 80 0 74.6274 0 68V12Z" fill="none"/><g filter="url(#filter0_d_13_119492)"><g clip-path="url(#clip0_13_119492)"><rect x="13" y="21" width="53" height="36" rx="2" fill="white"/><path d="M38.4971 34.3674L11.8098 58.3623H67.1902L40.5029 34.3674C39.9326 33.8547 39.0674 33.8547 38.4971 34.3674Z" fill="white" stroke="#BCEDFC"/><path d="M38.506 43.6597L9.95491 18.3965H69.0451L40.494 43.6597C39.9265 44.1618 39.0735 44.1618 38.506 43.6597Z" fill="white" stroke="#C3F0FF"/><path d="M13 25.3449L14.8706 24.1035V26.5863L13 27.8277V25.3449Z" fill="#2FC6F6"/><path d="M13 30.9308L14.8706 29.6895V32.1722L13 33.4136V30.9308Z" fill="#6DA6E0"/><path d="M13 36.5173L14.8706 35.2759V37.7586L13 39V36.5173Z" fill="#2FC6F6"/><path d="M13 42.1037L14.8706 40.8623V43.3451L13 44.5864V42.1037Z" fill="#6DA6E0"/><path d="M13 47.6896L14.8706 46.4482V48.931L13 50.1724V47.6896Z" fill="#2FC6F6"/><path d="M13 53.276L14.8706 52.0347V54.5174L13 55.7588V53.276Z" fill="#6DA6E0"/><path d="M64.1294 25.3449L66 24.1035V26.5863L64.1294 27.8277V25.3449Z" fill="#2FC6F6"/><path d="M64.1294 30.9308L66 29.6895V32.1722L64.1294 33.4136V30.9308Z" fill="#6DA6E0"/><path d="M64.1294 36.5173L66 35.2759V37.7586L64.1294 39V36.5173Z" fill="#2FC6F6"/><path d="M64.1294 42.1037L66 40.8623V43.3451L64.1294 44.5864V42.1037Z" fill="#6DA6E0"/><path d="M64.1294 47.6896L66 46.4482V48.931L64.1294 50.1724V47.6896Z" fill="#2FC6F6"/><path d="M64.1294 53.276L66 52.0347V54.5174L64.1294 55.7588V53.276Z" fill="#6DA6E0"/><path d="M17.3647 55.1377L16.1177 56.9998L18.6118 56.9998L19.8589 55.1377L17.3647 55.1377Z" fill="#2FC6F6"/><path d="M22.6647 55.1377L21.4177 56.9998L23.9118 56.9998L25.1588 55.1377L22.6647 55.1377Z" fill="#6DA6E0"/><path d="M27.9647 55.1377L26.7177 56.9998L29.2118 56.9998L30.4588 55.1377L27.9647 55.1377Z" fill="#2FC6F6"/><path d="M32.9529 55.1377L31.7059 56.9998L34.2 56.9998L35.447 55.1377L32.9529 55.1377Z" fill="#6DA6E0"/><path d="M37.9412 55.1377L36.6941 56.9998L39.1882 56.9998L40.4353 55.1377L37.9412 55.1377Z" fill="#2FC6F6"/><path d="M43.2412 55.1377L41.9941 56.9998L44.4883 56.9998L45.7353 55.1377L43.2412 55.1377Z" fill="#6DA6E0"/><path d="M48.5412 55.1377L47.2941 56.9998L49.7882 56.9998L51.0353 55.1377L48.5412 55.1377Z" fill="#2FC6F6"/><path d="M53.5294 55.1377L52.2823 56.9998L54.7765 56.9998L56.0235 55.1377L53.5294 55.1377Z" fill="#6DA6E0"/><path d="M59.1412 55.1377L57.8941 56.9998L60.3882 56.9998L61.6353 55.1377L59.1412 55.1377Z" fill="#2FC6F6"/></g></g><defs><filter id="filter0_d_13_119492" x="4" y="14" width="71" height="54" filterUnits="userSpaceOnUse" color-interpolation-filters="sRGB"><feFlood flood-opacity="0" result="BackgroundImageFix"/><feColorMatrix in="SourceAlpha" type="matrix" values="0 0 0 0 0 0 0 0 0 0 0 0 0 0 0 0 0 0 127 0" result="hardAlpha"/><feOffset dy="2"/><feGaussianBlur stdDeviation="4.5"/><feComposite in2="hardAlpha" operator="out"/><feColorMatrix type="matrix" values="0 0 0 0 0 0 0 0 0 0 0 0 0 0 0 0 0 0 0.1 0"/><feBlend mode="normal" in2="BackgroundImageFix" result="effect1_dropShadow_13_119492"/><feBlend mode="normal" in="SourceGraphic" in2="effect1_dropShadow_13_119492" result="shape"/></filter><clipPath id="clip0_13_119492"><rect x="13" y="21" width="53" height="36" rx="4" fill="white"/></clipPath></defs></svg>