<svg width="33" height="32" viewBox="0 0 33 32" fill="none" xmlns="http://www.w3.org/2000/svg">
	<path fill-rule="evenodd" clip-rule="evenodd" d="M0.914551 15.9682C0.914551 24.787 8.06356 31.936 16.8823 31.936C25.701 31.936 32.8501 24.787 32.8501 15.9682C32.8501 7.1495 25.701 0.000488281 16.8823 0.000488281C8.06356 0.000488281 0.914551 7.1495 0.914551 15.9682ZM8.1228 12.0073C8.1228 10.3505 9.46595 9.00735 11.1228 9.00735H22.6418C24.2987 9.00735 25.6418 10.3505 25.6418 12.0073V19.1466C25.6418 20.8035 24.2987 22.1466 22.6418 22.1466H17.6036L13.8945 25.8558C13.1385 26.6117 11.8459 26.0763 11.8459 25.0072V22.1466H11.1228C9.46595 22.1466 8.1228 20.8035 8.1228 19.1466V12.0073Z" fill="#2FC6F6"/>
</svg>
