<svg width="36" height="24" viewBox="0 0 36 24" fill="none" xmlns="http://www.w3.org/2000/svg">
	<path fill-rule="evenodd" clip-rule="evenodd" d="M7.90489 0.644423C7.92047 0.643806 7.93613 0.643494 7.95186 0.643494H25.1043C26.1762 0.643494 27.0451 1.51245 27.0451 2.58437V5.14782H28.0907C29.1421 5.14782 30.1486 5.57437 30.8799 6.32989L34.7202 10.2975C35.0706 10.6595 35.2665 11.1436 35.2665 11.6474V18.607C35.2665 19.2501 34.7451 19.7715 34.1019 19.7715H31.6041C31.6126 19.8711 31.617 19.9719 31.617 20.0738C31.617 21.9969 30.058 23.5559 28.1349 23.5559C26.2118 23.5559 24.6528 21.9969 24.6528 20.0738C24.6528 19.9779 24.6567 19.883 24.6643 19.7891H17.3079C17.3155 19.883 17.3194 19.9779 17.3194 20.0738C17.3194 21.9969 15.7604 23.5559 13.8373 23.5559C11.9142 23.5559 10.3552 21.9969 10.3552 20.0738C10.3552 19.9779 10.3591 19.883 10.3667 19.7891H7.95186C7.30871 19.7891 6.78733 19.2677 6.78733 18.6245V9.114H3.98894C3.10817 9.114 2.39416 8.39999 2.39416 7.51922C2.39416 6.63844 3.10817 5.92443 3.98894 5.92443H6.78733V3.83399H1.76112C0.880344 3.83399 0.166336 3.11998 0.166336 2.2392C0.166336 1.35843 0.880344 0.644423 1.76112 0.644423H7.90489ZM27.0701 8.60946C27.0701 8.39508 27.2439 8.22129 27.4583 8.22129H29.2422C29.4503 8.22129 29.6496 8.3048 29.7956 8.45308L32.2872 10.9849C32.4301 11.1301 32.5102 11.3257 32.5102 11.5294V12.6021C32.5102 12.8164 32.3364 12.9902 32.122 12.9902H27.4583C27.2439 12.9902 27.0701 12.8164 27.0701 12.6021V8.60946ZM15.7435 14.0123C15.9691 14.216 16.3134 14.2119 16.5341 14.0029L21.8935 8.92814C22.2137 8.62493 22.2174 8.11622 21.9015 7.80843L21.4865 7.40395C21.1891 7.11413 20.7163 7.10963 20.4135 7.39373L16.1431 11.3998L14.5808 10.0706C14.2756 9.81093 13.8229 9.82623 13.5359 10.1059L13.1096 10.5214C12.7885 10.8343 12.7984 11.3533 13.1312 11.6537L15.7435 14.0123Z" fill="#2FC6F6"/>
</svg>