<svg width="60" height="40" viewBox="0 0 60 40" fill="none" xmlns="http://www.w3.org/2000/svg">
<rect x="0.660156" y="8" width="2.57143" height="32" rx="1.28572" fill="#2FC6F6"/>
<rect x="6" width="2" height="40" rx="1" fill="#2FC6F6"/>
<rect x="10.9453" y="8" width="2.57143" height="32" rx="1.28572" fill="#2FC6F6"/>
<rect x="16.0879" y="16" width="2.57143" height="24" rx="1.28572" fill="#2FC6F6"/>
<rect x="21.2314" y="16" width="2.57143" height="24" rx="1.28571" fill="#2FC6F6"/>
<rect x="26.375" y="24" width="2.57143" height="16" rx="1.28572" fill="#2FC6F6"/>
<rect x="31.5176" y="16" width="2.57143" height="24" rx="1.28572" fill="#2FC6F6"/>
<rect x="36.6602" y="24" width="2.57143" height="16" rx="1.28571" fill="#2FC6F6"/>
<rect x="41.8027" y="24" width="2.57143" height="16" rx="1.28571" fill="#2FC6F6"/>
<rect x="46.9453" y="8" width="2.57143" height="32" rx="1.28571" fill="#2FC6F6"/>
<rect x="52.0879" y="10.9839" width="2.57143" height="29.0161" rx="1.28571" fill="#2FC6F6"/>
<rect x="57.2314" y="16" width="2.57143" height="24" rx="1.28571" fill="#2FC6F6"/>
</svg>
