<svg width="60" height="58" viewBox="0 0 60 58" fill="none" xmlns="http://www.w3.org/2000/svg">
<rect x="0.659668" y="19" width="2.57143" height="32" rx="1.28572" fill="#2FC6F6"/>
<rect x="6" y="11" width="2" height="40" rx="1" fill="#2FC6F6"/>
<rect x="10.9453" y="19" width="2.57143" height="32" rx="1.28572" fill="#2FC6F6"/>
<rect x="16.0879" y="27" width="2.57143" height="24" rx="1.28572" fill="#2FC6F6"/>
<rect x="21.231" y="27" width="2.57143" height="24" rx="1.28571" fill="#2FC6F6"/>
<rect x="26.374" y="35" width="2.57143" height="16" rx="1.28572" fill="#2FC6F6"/>
<rect x="31.5166" y="27" width="2.57143" height="24" rx="1.28572" fill="#2FC6F6"/>
<rect x="36.6597" y="35" width="2.57143" height="16" rx="1.28571" fill="#2FC6F6"/>
<rect x="41.8022" y="35" width="2.57143" height="16" rx="1.28571" fill="#2FC6F6"/>
<rect x="46.9453" y="19" width="2.57143" height="32" rx="1.28571" fill="#2FC6F6"/>
<rect x="52.0879" y="21.9839" width="2.57143" height="29.0161" rx="1.28571" fill="#2FC6F6"/>
<rect x="57.231" y="27" width="2.57143" height="24" rx="1.28571" fill="#2FC6F6"/>
<g opacity="0.9" filter="url(#filter0_d_9702_146543)">
<circle cx="30" cy="25" r="20" fill="white"/>
</g>
<path d="M27.7692 19.8846C27.7692 18.8438 26.9255 18 25.8846 18C24.8438 18 24 18.8438 24 19.8846V30.1154C24 31.1562 24.8438 32 25.8846 32C26.9255 32 27.7692 31.1562 27.7692 30.1154V19.8846Z" fill="#2FC6F6"/>
<path d="M35.8462 19.8846C35.8462 18.8438 35.0024 18 33.9615 18C32.9207 18 32.0769 18.8438 32.0769 19.8846V30.1154C32.0769 31.1562 32.9207 32 33.9615 32C35.0024 32 35.8462 31.1562 35.8462 30.1154V19.8846Z" fill="#2FC6F6"/>
<defs>
<filter id="filter0_d_9702_146543" x="1" y="0" width="58" height="58" filterUnits="userSpaceOnUse" color-interpolation-filters="sRGB">
<feFlood flood-opacity="0" result="BackgroundImageFix"/>
<feColorMatrix in="SourceAlpha" type="matrix" values="0 0 0 0 0 0 0 0 0 0 0 0 0 0 0 0 0 0 127 0" result="hardAlpha"/>
<feOffset dy="4"/>
<feGaussianBlur stdDeviation="4.5"/>
<feComposite in2="hardAlpha" operator="out"/>
<feColorMatrix type="matrix" values="0 0 0 0 0 0 0 0 0 0 0 0 0 0 0 0 0 0 0.1 0"/>
<feBlend mode="normal" in2="BackgroundImageFix" result="effect1_dropShadow_9702_146543"/>
<feBlend mode="normal" in="SourceGraphic" in2="effect1_dropShadow_9702_146543" result="shape"/>
</filter>
</defs>
</svg>
