<svg width="24" height="24" viewBox="0 0 24 24" fill="none" xmlns="http://www.w3.org/2000/svg">
<path fill-rule="evenodd" clip-rule="evenodd" d="M17.1292 14.1509L19.0868 15.6177C19.6783 16.067 19.7241 16.9551 19.1784 17.4616C17.1317 19.4174 13.7216 20.1767 9.23224 15.4304C4.74284 10.6841 5.63568 7.28638 7.68231 5.33048C8.22746 4.82418 9.09591 4.90795 9.51082 5.52462L10.8799 7.52693C11.3594 8.26194 11.0566 9.26336 10.3209 9.75436L9.49907 10.3029C9.31022 10.4232 9.25761 10.6753 9.35894 10.8684C10.4218 12.7339 11.9573 14.3687 13.7531 15.5402C13.9322 15.6436 14.1895 15.5901 14.3143 15.4197L14.8946 14.5971C15.4021 13.8802 16.434 13.6286 17.1292 14.1509Z" fill="#525C69"/>
</svg>
