<svg width="24" height="24" viewBox="0 0 24 24" fill="none" xmlns="http://www.w3.org/2000/svg">
<path fill-rule="evenodd" clip-rule="evenodd" d="M16.8493 10.9942C17.1643 11.3093 16.9412 11.8478 16.4958 11.8479L12.546 11.8478C12.2699 11.8479 12.046 11.624 12.0461 11.3478L12.046 7.39806C12.046 6.95263 12.5845 6.7295 12.8996 7.04455L14.1673 8.31229L17.4706 5.00898C17.6659 4.81374 17.9825 4.81374 18.1777 5.00898L18.8849 5.71609C19.0801 5.91134 19.0801 6.22795 18.8849 6.4232L15.5816 9.7265L16.8493 10.9942ZM17.5431 16.4454L15.5863 14.9792C14.8913 14.457 13.8598 14.7085 13.3526 15.4252L12.7724 16.2475C12.6476 16.4178 12.3905 16.4713 12.2115 16.3679C10.4163 15.1969 8.88132 13.5627 7.81888 11.6979C7.71759 11.5048 7.77018 11.2528 7.95896 11.1326L8.78049 10.5842C9.51588 10.0934 9.81865 9.09236 9.33931 8.35762L7.97071 6.35604C7.55596 5.73959 6.68782 5.65586 6.14288 6.16198C4.09699 8.11715 3.20448 11.5136 7.69223 16.2582C12.1799 21.0027 15.5888 20.2437 17.6347 18.2886C18.1803 17.7823 18.1344 16.8946 17.5431 16.4454Z" fill="#525C69"/>
</svg>
