<svg width="32" height="32" viewBox="0 0 32 32" fill="none" xmlns="http://www.w3.org/2000/svg">
<path fill-rule="evenodd" clip-rule="evenodd" d="M16 31.9986C24.8366 31.9986 32 24.8355 32 15.9993C32 7.16312 24.8366 0 16 0C7.16344 0 0 7.16312 0 15.9993C0 24.8355 7.16344 31.9986 16 31.9986Z" fill="#2FC6F6"/>
<path fill-rule="evenodd" clip-rule="evenodd" d="M8.76985 21.6085L16.1398 25.8626C16.3792 26.0008 16.6742 26.0008 16.9136 25.8626L24.2836 21.6085C24.523 21.4702 24.6706 21.2147 24.6706 20.9382V12.4282C24.6706 12.1517 24.5231 11.8962 24.2837 11.7579L16.9137 7.50216C16.6742 7.36386 16.3792 7.36386 16.1397 7.50216L8.76974 11.7579C8.5303 11.8962 8.38281 12.1517 8.38281 12.4282V20.9382C8.38281 21.2147 8.53035 21.4702 8.76985 21.6085ZM22.5424 20.1557L17.5911 23.0138V17.2963L22.5424 14.4371V20.1557ZM15.4627 17.2974V23.0147L10.5114 20.1566V14.4393L15.4627 17.2974ZM11.5756 12.596L16.527 9.73686L21.4773 12.5954L16.5269 15.454L11.5756 12.596Z" fill="white"/>
</svg>
