<svg width="142" height="146" viewBox="0 0 142 146" fill="none" xmlns="http://www.w3.org/2000/svg">
	<path opacity="0.3" fill-rule="evenodd" clip-rule="evenodd" d="M139.805 57.4981C140.813 58.0094 141.448 59.0435 141.448 60.1734V104.006C141.448 105.122 140.829 106.145 139.841 106.663L96.6379 129.323C95.7653 129.781 94.7236 129.781 93.851 129.323L78.46 121.25L101.124 109.363C104.087 107.809 105.944 104.739 105.944 101.393V64.872C105.944 61.4822 104.039 58.38 101.016 56.8461L76.3096 44.3094L93.5739 35.4317C94.4298 34.9915 95.445 34.9888 96.3033 35.4243L139.805 57.4981Z" fill="white"/>
	<g opacity="0.24" filter="url(#filter0_d_14557_66868)">
		<path d="M105.944 64.8716C105.944 61.4818 104.04 58.3796 101.017 56.8457L63.5333 37.8257C60.9584 36.5191 57.9129 36.5273 55.3451 37.8478L18.4223 56.8344C15.4233 58.3766 13.5381 61.4659 13.5381 64.8382V101.393C13.5381 104.739 15.3945 107.809 18.3578 109.363L55.5609 128.876C58.1787 130.249 61.3038 130.249 63.9216 128.876L101.125 109.363C104.088 107.809 105.944 104.739 105.944 101.393V64.8716Z" fill="#2FC6F6"/>
		<path d="M100.76 57.3516C103.593 58.7888 105.377 61.6955 105.377 64.8716V101.393C105.377 104.528 103.638 107.404 100.861 108.86L63.6581 128.373C61.2053 129.66 58.2772 129.66 55.8245 128.373L18.6213 108.86C15.8448 107.404 14.1054 104.528 14.1054 101.393V64.8382C14.1054 61.6785 15.8718 58.7839 18.6818 57.3389L55.6045 38.3523C58.0105 37.1151 60.864 37.1074 63.2766 38.3316L100.76 57.3516Z" stroke="#2FC6F6" stroke-width="1.13462"/>
	</g>
	<g opacity="0.35" filter="url(#filter1_d_14557_66868)">
		<path d="M100.76 57.3516C103.593 58.7888 105.377 61.6955 105.377 64.8716V101.393C105.377 104.528 103.638 107.404 100.861 108.86L63.6581 128.373C61.2053 129.66 58.2772 129.66 55.8245 128.373L18.6213 108.86C15.8448 107.404 14.1054 104.528 14.1054 101.393V64.8382C14.1054 61.6785 15.8718 58.7839 18.6818 57.3389L55.6045 38.3523C58.0105 37.1151 60.864 37.1074 63.2766 38.3316L100.76 57.3516Z" stroke="#2FC6F6" stroke-width="1.13462" shape-rendering="crispEdges"/>
	</g>
	<path opacity="0.2" d="M95.567 66.2627C97.7254 65.1306 97.7045 62.0335 95.531 60.9307L60.8341 43.3247C59.9758 42.8892 58.9606 42.8919 58.1047 43.3321L23.9015 60.9202C21.7406 62.0314 21.7281 65.1163 23.88 66.2449L58.347 84.3226C59.2196 84.7803 60.2613 84.7803 61.1339 84.3226L95.567 66.2627Z" fill="#2FC6F6"/>
	<path opacity="0.4" fill-rule="evenodd" clip-rule="evenodd" d="M94.639 64.4915C95.3584 64.1142 95.3515 63.0818 94.627 62.7142L59.9301 45.1082C59.644 44.9631 59.3056 44.964 59.0203 45.1107L24.8171 62.6989L23.9164 60.9472L24.8171 62.6989C24.0968 63.0693 24.0926 64.0975 24.8099 64.4738L59.2769 82.5514C59.5678 82.704 59.915 82.704 60.2059 82.5514L94.639 64.4915ZM95.532 60.9307C97.7055 62.0335 97.7263 65.1306 95.5679 66.2627L61.1349 84.3226C60.2623 84.7803 59.2206 84.7803 58.348 84.3226L23.881 66.2449C21.7291 65.1163 21.7416 62.0314 23.9025 60.9202L58.1057 43.3321C58.9616 42.8919 59.9768 42.8892 60.8351 43.3247L95.532 60.9307Z" fill="#2FC6F6"/>
	<path opacity="0.4" fill-rule="evenodd" clip-rule="evenodd" d="M95.5239 35.6672C95.7135 35.7123 95.8991 35.7799 96.0768 35.87L96.9831 36.3299L97.4356 35.4381L96.5293 34.9783C96.2807 34.8521 96.0208 34.7575 95.7552 34.6943L95.5239 35.6672ZM93.8023 35.8762C93.9795 35.7851 94.1647 35.7165 94.3541 35.6704L94.1176 34.6988C93.8523 34.7633 93.5929 34.8594 93.345 34.9869L92.4512 35.4465L92.9085 36.3358L93.8023 35.8762ZM98.7957 37.2496L100.608 38.1694L101.061 37.2776L99.2482 36.3579L98.7957 37.2496ZM89.3331 38.1744L91.1208 37.2551L90.6635 36.3658L88.8758 37.2851L89.3331 38.1744ZM102.421 39.0891L104.233 40.0089L104.686 39.1171L102.873 38.1974L102.421 39.0891ZM85.7577 40.0129L87.5454 39.0936L87.0881 38.2043L85.3004 39.1236L85.7577 40.0129ZM106.046 40.9286L107.859 41.8484L108.311 40.9566L106.498 40.0368L106.046 40.9286ZM82.1823 41.8515L83.97 40.9322L83.5127 40.0429L81.725 40.9622L82.1823 41.8515ZM109.671 42.7681L111.484 43.6878L111.936 42.7961L110.124 41.8763L109.671 42.7681ZM78.6069 43.69L80.3946 42.7708L79.9373 41.8814L78.1496 42.8007L78.6069 43.69ZM113.296 44.6076L115.109 45.5273L115.561 44.6356L113.749 43.7158L113.296 44.6076ZM76.79 44.5524L75.7598 44.0297L76.3619 43.72L76.79 44.5524ZM78.6177 121.168L78.9983 120.968L80.582 121.799L80.1175 122.684L78.3174 121.74L78.6177 121.168ZM116.921 46.4471L118.734 47.3668L119.187 46.475L117.374 45.5553L116.921 46.4471ZM120.547 48.2865L122.359 49.2063L122.812 48.3145L120.999 47.3948L120.547 48.2865ZM124.172 50.126L125.984 51.0458L126.437 50.154L124.624 49.2343L124.172 50.126ZM127.797 51.9655L129.609 52.8852L130.062 51.9935L128.249 51.0737L127.797 51.9655ZM131.422 53.805L133.235 54.7247L133.687 53.833L131.875 52.9132L131.422 53.805ZM135.047 55.6445L136.86 56.5642L137.312 55.6724L135.5 54.7527L135.047 55.6445ZM138.672 57.4839L139.579 57.9438C139.787 58.0494 139.976 58.1817 140.142 58.3352L140.82 57.6001C140.587 57.385 140.322 57.1997 140.031 57.0521L139.125 56.5922L138.672 57.4839ZM140.853 59.4936C140.915 59.7115 140.947 59.9398 140.947 60.1732V61.1694H141.947V60.1732C141.947 59.8468 141.902 59.5271 141.816 59.2217L140.853 59.4936ZM140.947 63.1618V65.1543H141.947V63.1618H140.947ZM140.947 67.1467V69.1391H141.947V67.1467H140.947ZM140.947 71.1315V73.1239H141.947V71.1315H140.947ZM140.947 75.1163V77.1087H141.947V75.1163H140.947ZM140.947 79.1011V81.0935H141.947V79.1011H140.947ZM140.947 83.0859V85.0783H141.947V83.0859H140.947ZM140.947 87.0707V89.0632H141.947V87.0707H140.947ZM140.947 91.0556V93.048H141.947V91.0556H140.947ZM140.947 95.0404V97.0328H141.947V95.0404H140.947ZM140.947 99.0252V101.018H141.947V99.0252H140.947ZM140.947 103.01V104.006C140.947 104.237 140.916 104.462 140.856 104.678L141.819 104.946C141.903 104.644 141.947 104.328 141.947 104.006V103.01H140.947ZM140.161 105.827C139.998 105.98 139.813 106.113 139.609 106.22L138.709 106.692L139.173 107.578L140.073 107.106C140.358 106.956 140.618 106.77 140.846 106.555L140.161 105.827ZM136.908 107.636L135.108 108.581L135.573 109.466L137.373 108.522L136.908 107.636ZM133.308 109.525L131.508 110.469L131.972 111.354L133.773 110.41L133.308 109.525ZM129.708 111.413L127.908 112.357L128.372 113.243L130.172 112.299L129.708 111.413ZM126.108 113.301L124.307 114.246L124.772 115.131L126.572 114.187L126.108 113.301ZM122.507 115.19L120.707 116.134L121.172 117.019L122.972 116.075L122.507 115.19ZM118.907 117.078L117.107 118.022L117.571 118.908L119.372 117.964L118.907 117.078ZM115.307 118.966L113.507 119.91L113.971 120.796L115.771 119.852L115.307 118.966ZM111.707 120.855L109.906 121.799L110.371 122.684L112.171 121.74L111.707 120.855ZM84.1823 123.687L82.3821 122.743L81.9177 123.629L83.7178 124.573L84.1823 123.687ZM108.106 122.743L106.306 123.687L106.771 124.573L108.571 123.629L108.106 122.743ZM87.7825 125.575L85.9824 124.631L85.5179 125.517L87.3181 126.461L87.7825 125.575ZM104.506 124.631L102.706 125.575L103.17 126.461L104.97 125.517L104.506 124.631ZM91.3828 127.464L89.5827 126.52L89.1182 127.405L90.9183 128.349L91.3828 127.464ZM100.906 126.52L99.1056 127.464L99.5701 128.349L101.37 127.405L100.906 126.52ZM94.083 128.88L93.1829 128.408L92.7185 129.293L93.6185 129.766C93.8712 129.898 94.136 129.998 94.4071 130.064L94.6462 129.093C94.4527 129.046 94.2636 128.975 94.083 128.88ZM97.3055 128.408L96.4054 128.88C96.2248 128.975 96.0357 129.046 95.8422 129.093L96.0813 130.064C96.3524 129.998 96.6173 129.898 96.8699 129.766L97.77 129.293L97.3055 128.408Z" fill="#2FC6F6"/>
	<path opacity="0.2" d="M131.071 65.7344C133.229 64.6023 133.208 61.5052 131.035 60.4023L96.338 42.7964C95.4797 42.3609 94.4645 42.3636 93.6086 42.8038L59.4054 60.3919C57.2445 61.5031 57.232 64.588 59.3839 65.7166L93.8509 83.7943C94.7235 84.2519 95.7652 84.2519 96.6378 83.7943L131.071 65.7344Z" fill="#2FC6F6"/>
	<path opacity="0.4" fill-rule="evenodd" clip-rule="evenodd" d="M130.13 62.1859L95.433 44.5799C95.1469 44.4347 94.8085 44.4357 94.5232 44.5824L60.32 62.1705C59.5997 62.5409 59.5956 63.5692 60.3129 63.9454L94.7799 82.0231C95.0707 82.1757 95.418 82.1757 95.7088 82.0231L130.142 63.9632C130.861 63.5859 130.854 62.5535 130.13 62.1859ZM131.035 60.4023C133.208 61.5052 133.229 64.6023 131.071 65.7344L96.6378 83.7943C95.7652 84.2519 94.7235 84.2519 93.8509 83.7943L59.3839 65.7166C57.232 64.588 57.2445 61.5031 59.4054 60.3919L93.6086 42.8038C94.4645 42.3636 95.4797 42.3609 96.338 42.7964L131.035 60.4023Z" fill="#2FC6F6"/>
	<g filter="url(#filter2_d_14557_66868)">
		<path d="M125.218 39.5122C125.218 36.1225 123.313 33.0202 120.29 31.4863L82.8067 12.4663C80.2318 11.1597 77.1863 11.1679 74.6185 12.4884L37.6958 31.475C34.6968 33.0172 32.8115 36.1065 32.8115 39.4788V76.0332C32.8115 79.3794 34.6679 82.4493 37.6312 84.0035L74.8344 103.516C77.4522 104.889 80.5773 104.889 83.1951 103.516L120.398 84.0035C123.362 82.4493 125.218 79.3794 125.218 76.0333V39.5122Z" fill="white"/>
	</g>
	<path opacity="0.6" fill-rule="evenodd" clip-rule="evenodd" d="M119.777 32.4981L82.2933 13.4781C80.043 12.3363 77.3815 12.3434 75.1374 13.4974L38.2146 32.4841C35.5937 33.8318 33.9461 36.5317 33.9461 39.4788V76.0332C33.9461 78.9575 35.5685 81.6404 38.1582 82.9987L75.3614 102.512C77.6492 103.711 80.3803 103.711 82.6681 102.512L119.871 82.9987C122.461 81.6404 124.083 78.9575 124.083 76.0333V39.5122C124.083 36.5498 122.419 33.8386 119.777 32.4981ZM120.29 31.4863C123.313 33.0202 125.218 36.1225 125.218 39.5122V76.0333C125.218 79.3794 123.362 82.4493 120.398 84.0035L83.1951 103.516C80.5773 104.889 77.4522 104.889 74.8344 103.516L37.6312 84.0035C34.6679 82.4493 32.8115 79.3794 32.8115 76.0332V39.4788C32.8115 36.1065 34.6968 33.0172 37.6958 31.475L74.6185 12.4884C77.1863 11.1679 80.2318 11.1597 82.8067 12.4663L120.29 31.4863Z" fill="#2FC6F6"/>
	<path opacity="0.36" d="M114.841 41.3897C117 40.2576 116.979 37.1605 114.805 36.0576L80.1085 18.4517C79.2502 18.0161 78.235 18.0189 77.3791 18.459L43.1759 36.0472C41.015 37.1584 41.0025 40.2432 43.1544 41.3719L77.6214 59.4496C78.494 59.9072 79.5357 59.9072 80.4083 59.4496L114.841 41.3897Z" fill="#2FC6F6"/>
	<path opacity="0.6" fill-rule="evenodd" clip-rule="evenodd" d="M113.9 37.8412L79.2035 20.2352C78.9174 20.09 78.579 20.0909 78.2937 20.2376L44.0905 37.8258C43.3702 38.1962 43.3661 39.2245 44.0834 39.6007L78.5504 57.6784C78.8412 57.8309 79.1885 57.8309 79.4793 57.6784L113.912 39.6185C114.632 39.2411 114.625 38.2088 113.9 37.8412ZM114.805 36.0576C116.979 37.1605 117 40.2576 114.841 41.3897L80.4083 59.4496C79.5357 59.9072 78.494 59.9072 77.6214 59.4496L43.1544 41.3719C41.0025 40.2432 41.015 37.1584 43.1759 36.0472L77.3791 18.459C78.235 18.0189 79.2502 18.0161 80.1085 18.4517L114.805 36.0576Z" fill="#2FC6F6"/>
	<defs>
		<filter id="filter0_d_14557_66868" x="0.444624" y="26.3337" width="118.593" height="119.241" filterUnits="userSpaceOnUse" color-interpolation-filters="sRGB">
			<feFlood flood-opacity="0" result="BackgroundImageFix"/>
			<feColorMatrix in="SourceAlpha" type="matrix" values="0 0 0 0 0 0 0 0 0 0 0 0 0 0 0 0 0 0 127 0" result="hardAlpha"/>
			<feOffset dy="2.57558"/>
			<feGaussianBlur stdDeviation="6.54673"/>
			<feComposite in2="hardAlpha" operator="out"/>
			<feColorMatrix type="matrix" values="0 0 0 0 0.392157 0 0 0 0 0.427451 0 0 0 0 0.482353 0 0 0 0.16 0"/>
			<feBlend mode="normal" in2="BackgroundImageFix" result="effect1_dropShadow_14557_66868"/>
			<feBlend mode="normal" in="SourceGraphic" in2="effect1_dropShadow_14557_66868" result="shape"/>
		</filter>
		<filter id="filter1_d_14557_66868" x="0.444624" y="26.3337" width="118.593" height="119.241" filterUnits="userSpaceOnUse" color-interpolation-filters="sRGB">
			<feFlood flood-opacity="0" result="BackgroundImageFix"/>
			<feColorMatrix in="SourceAlpha" type="matrix" values="0 0 0 0 0 0 0 0 0 0 0 0 0 0 0 0 0 0 127 0" result="hardAlpha"/>
			<feOffset dy="2.57558"/>
			<feGaussianBlur stdDeviation="6.54673"/>
			<feComposite in2="hardAlpha" operator="out"/>
			<feColorMatrix type="matrix" values="0 0 0 0 0.392157 0 0 0 0 0.427451 0 0 0 0 0.482353 0 0 0 0.16 0"/>
			<feBlend mode="normal" in2="BackgroundImageFix" result="effect1_dropShadow_14557_66868"/>
			<feBlend mode="normal" in="SourceGraphic" in2="effect1_dropShadow_14557_66868" result="shape"/>
		</filter>
		<filter id="filter2_d_14557_66868" x="19.7181" y="0.974303" width="118.593" height="119.241" filterUnits="userSpaceOnUse" color-interpolation-filters="sRGB">
			<feFlood flood-opacity="0" result="BackgroundImageFix"/>
			<feColorMatrix in="SourceAlpha" type="matrix" values="0 0 0 0 0 0 0 0 0 0 0 0 0 0 0 0 0 0 127 0" result="hardAlpha"/>
			<feOffset dy="2.57558"/>
			<feGaussianBlur stdDeviation="6.54673"/>
			<feComposite in2="hardAlpha" operator="out"/>
			<feColorMatrix type="matrix" values="0 0 0 0 0.392157 0 0 0 0 0.427451 0 0 0 0 0.482353 0 0 0 0.16 0"/>
			<feBlend mode="normal" in2="BackgroundImageFix" result="effect1_dropShadow_14557_66868"/>
			<feBlend mode="normal" in="SourceGraphic" in2="effect1_dropShadow_14557_66868" result="shape"/>
		</filter>
	</defs>
</svg>
