<svg width="28" height="28" viewBox="0 0 28 28" fill="none" xmlns="http://www.w3.org/2000/svg"><path fill-rule="evenodd" clip-rule="evenodd" d="M21.4486 10.9192C21.8409 11.1597 22.1155 11.5576 22.1717 12.0175L22.1823 12.1926L22.1817 13.6526L16.4584 13.6537C15.8601 13.6537 15.367 14.104 15.2996 14.6843L15.2918 14.8204V17.9527C15.2918 18.551 15.7421 19.0441 16.3224 19.1115L16.4584 19.1194L22.1817 19.1184L22.1823 20.8303C22.1823 21.6177 21.5445 22.2668 20.7312 22.3404L20.5767 22.3474H8.02279C6.96432 22.3474 6.0959 21.5347 6.00742 20.4992L6 20.3246V10.9203L21.4486 10.9192ZM22.1817 14.7692V18.0031L16.4258 18.0036V14.7694L22.1817 14.7692ZM19.1481 15.2268C18.5896 15.2268 18.1367 15.6797 18.1367 16.2382C18.1367 16.7966 18.5896 17.2496 19.1481 17.2496C19.7066 17.2496 20.1595 16.7966 20.1595 16.2382C20.1595 15.6797 19.7066 15.2268 19.1481 15.2268ZM19.2753 6L20.294 9.80569H8.01596L7.81879 9.06976L19.2753 6Z" fill="#A8ADB4"/></svg>