<svg xmlns="http://www.w3.org/2000/svg" width="21" height="19" viewBox="0 0 21 19"><path fill="#828B95" fill-rule="nonzero" d="M9.49 11.476v.442c0 .285.03.564.087.832H4.75l3-3.113 1.74 1.839zm.444 2.274a4.01 4.01 0 0 0 2.406 2H2.65a.9.9 0 0 1-.9-.9v-9.2a.9.9 0 0 1 .9-.9h6.84v2H3.85a.1.1 0 0 0-.1.1v6.8a.1.1 0 0 0 .1.1h6.084zm8.805-8.497v5.474c0 2.736-1.221 4.03-3.79 4.03-3.223 0-4.199-1.67-4.199-4.03V5.402c0-1.775.94-2.652 2.512-2.652s2.498.877 2.498 2.652v4.995c0 .177-.087.291-.26.344h-1.511c-.172-.05-.258-.165-.258-.344V5.252c0-.361-.086-.606-.469-.606-.382 0-.535.135-.535.606v5.475c0 .83-.089 2.145 2.221 2.145 1.658 0 1.831-1.345 1.831-2.145V5.253c0-.138.11-.25.245-.25h1.47c.135 0 .245.112.245.25z"/></svg>