<?xml version="1.0" encoding="UTF-8"?>
<svg width="14px" height="15px" viewBox="0 0 14 15" version="1.1" xmlns="http://www.w3.org/2000/svg" xmlns:xlink="http://www.w3.org/1999/xlink">
    <title>decompoz</title>
    <g id="Page-1" stroke="none" stroke-width="1" fill="none" fill-rule="evenodd">
        <g id="00_Детали" transform="translate(-706.000000, -4841.000000)" fill="#828B95">
            <g id="decompoz" transform="translate(706.000000, 4841.000000)">
                <path d="M8.61062927,1.90853169 C9.16291402,1.90853169 9.61062927,2.35624694 9.61062927,2.90853169 L9.61062927,6.12979024 C9.61062927,6.47729525 9.43337451,6.78340019 9.16434658,6.96262346 L10.6013219,8.86953169 L12.9616781,8.87020976 C13.5139628,8.87020976 13.9616781,9.31792501 13.9616781,9.87020976 L13.9616781,13.0914683 C13.9616781,13.6437531 13.5139628,14.0914683 12.9616781,14.0914683 L9.74041952,14.0914683 C9.18813477,14.0914683 8.74041952,13.6437531 8.74041952,13.0914683 L8.74041952,9.87020976 C8.74041952,9.54935862 8.89152595,9.26380028 9.12645661,9.08081694 L7.65632193,7.12953169 L6.35632193,7.12953169 L4.88213855,9.0875871 C5.11215319,9.2708012 5.25958048,9.55328873 5.25958048,9.87020976 L5.25958048,13.0914683 C5.25958048,13.6437531 4.81186523,14.0914683 4.25958048,14.0914683 L1.03832193,14.0914683 C0.486037184,14.0914683 0.0383219335,13.6437531 0.0383219335,13.0914683 L0.0383219335,9.87020976 C0.0383219335,9.31792501 0.486037184,8.87020976 1.03832193,8.87020976 L3.41132193,8.86953169 L4.84495457,6.9687454 C4.57071848,6.79042266 4.38937073,6.48128447 4.38937073,6.12979024 L4.38937073,2.90853169 C4.38937073,2.35624694 4.83708598,1.90853169 5.38937073,1.90853169 L8.61062927,1.90853169 Z" id="Combined-Shape"></path>
            </g>
        </g>
    </g>
</svg>