<svg xmlns="http://www.w3.org/2000/svg" width="20" height="13" viewBox="0 0 20 13">
  <path fill="#525C69" fill-rule="evenodd" d="M213.048009,29 L213.048009,31 L202,31 L202,29 L213.048009,29 Z M199.633881,25.7132526 L200.776738,26.8382526 L196.573869,30.8419147 L194.028447,28.358028 L195.171304,27.233028 L196.573869,28.5919147 L199.633881,25.7132526 Z M213.048009,24 L213.048009,26 L202,26 L202,24 L213.048009,24 Z M199.633881,18.6528801 L200.776738,19.7778801 L196.573869,23.7815422 L194.028447,21.2976555 L195.171304,20.1726555 L196.573869,21.5315422 L199.633881,18.6528801 Z M213.048009,19 L213.048009,21 L202,21 L202,19 L213.048009,19 Z" transform="translate(-194 -18)"/>
</svg>
