<?xml version="1.0" encoding="UTF-8"?>
<svg width="124px" height="123px" viewBox="0 0 124 123" version="1.1" xmlns="http://www.w3.org/2000/svg" xmlns:xlink="http://www.w3.org/1999/xlink">
    <g stroke="none" stroke-width="1" fill="none" fill-rule="evenodd" opacity="0.28">
        <path d="M83,105 L83,81.4375 L105,81.4375 L105,18 L17,18 L17,81.4375 L39,81.4375 L39,105 L83,105 Z M10.9411765,0 L113.058824,0 C119.101468,0 124,4.85902727 124,10.8529412 L124,112.147059 C124,118.140973 119.101468,123 113.058824,123 L10.9411765,123 C4.89853156,123 0,118.140973 0,112.147059 L0,10.8529412 C0,4.85902727 4.89853156,0 10.9411765,0 Z M44.0142862,47.0500004 L54.2142857,57.4416671 L79.7142857,32 L87,42.75 L54.2142857,75 L36,57.0833333 L44.0142862,47.0500004 Z" fill="#A8ADB4" />
    </g>
</svg>