<svg xmlns="http://www.w3.org/2000/svg" width="7" height="7" viewBox="0 0 7 7">
  <path fill="#6D757E" fill-rule="evenodd" d="M110.852286,948.146229 L113.5,950.794 L116.147714,948.146229 C116.342686,947.951257 116.658799,947.951257 116.853771,948.146229 C117.048743,948.341201 117.048743,948.657314 116.853771,948.852286 L114.206,951.5 L116.853771,954.147714 C117.048743,954.342686 117.048743,954.658799 116.853771,954.853771 C116.658799,955.048743 116.342686,955.048743 116.147714,954.853771 L113.5,952.206 L110.852286,954.853771 C110.657314,955.048743 110.341201,955.048743 110.146229,954.853771 C109.951257,954.658799 109.951257,954.342686 110.146229,954.147714 L112.794,951.5 L110.146229,948.852286 C109.951257,948.657314 109.951257,948.341201 110.146229,948.146229 C110.341201,947.951257 110.657314,947.951257 110.852286,948.146229 Z" transform="translate(-110 -948)"/>
</svg>
