<svg xmlns="http://www.w3.org/2000/svg" width="16" height="14" viewBox="0 0 16 14">
  <path fill="#828B95" fill-rule="evenodd" d="M434,25 L434,27 L422,27 L422,25 L434,25 Z M420,25 L420,27 L418,27 L418,25 L420,25 Z M421.5,17 C420.720304,17 420.079551,17.5948881 420.006867,18.35554 L420,18.5 C420,19.2796961 420.594888,19.9204487 421.35554,19.9931334 L421.5,20 L434,20 L434,22 L421.5,22 C419.567003,22 418,20.4329966 418,18.5 C418,16.5670034 419.567003,15 421.5,15 L430.999,14.9995339 L431,13.0355339 L434,16.0355339 L431,19.0355339 L430.999,16.9995339 L421.5,17 Z" transform="translate(-418 -13)"/>
</svg>
