<svg width="18" height="18" viewBox="0 0 18 18" fill="none" xmlns="http://www.w3.org/2000/svg">
	<path fill-rule="evenodd" clip-rule="evenodd" d="M9 17.0314C13.4356 17.0314 17.0314 13.4356 17.0314 9C17.0314 4.56431 13.4356 0.96851 9 0.96851C4.56431 0.96851 0.96851 4.56431 0.96851 9C0.96851 13.4356 4.56431 17.0314 9 17.0314ZM8.9999 15.2784C12.4674 15.2784 15.2784 12.4674 15.2784 8.9999C15.2784 5.5324 12.4674 2.72144 8.9999 2.72144C5.5324 2.72144 2.72144 5.5324 2.72144 8.9999C2.72144 12.4674 5.5324 15.2784 8.9999 15.2784ZM10 8H13.0002V10H10.0002H8.0002H5.00016V8H8.0002H10Z" fill="#A8ADB4"/>
</svg>