<svg xmlns="http://www.w3.org/2000/svg" width="12" height="14" viewBox="0 0 12 14">
  <path fill="#525C69" d="M10,0.0776912427 C11.1045695,0.0776912427 12,0.976913388 12,2.08616012 L12,5.12369124 L11,5.12369124 L11,2.08277688 C11,1.52768341 10.5522847,1.07769124 10,1.07769124 L2,1.07769124 C1.44771525,1.07769124 1,1.52768341 1,2.08277688 L1,12.0726056 C1,12.6276991 1.44771525,13.0776912 2,13.0776912 L11.7294789,13.0785723 C11.3829503,13.6760828 10.7381777,14.0776912 10,14.0776912 L2,14.0776912 C0.8954305,14.0776912 0,13.1784691 0,12.0692224 L0,2.08616012 C0,0.976913388 0.8954305,0.0776912427 2,0.0776912427 L10,0.0776912427 Z M9.57195024,7.07769124 L12,9.57769124 L9.57195024,12.0776912 L8.9649378,11.4526912 L10.2968565,10.0788076 L9.72698479,10.1199329 L4.92199565,10.1199329 C3.86050676,10.1199329 3,9.23017506 3,8.13260314 L3,7.15150786 L3.96099783,7.15150786 L3.96099783,8.13595077 C3.96099783,8.68520189 4.39125121,9.13045789 4.92199565,9.13045789 L10.3497114,9.1289116 L8.9649378,7.70269124 L9.57195024,7.07769124 Z M10.4496204,9.47769124 L10.4496204,9.67769124 L10.5503796,9.57824453 L10.4496204,9.47769124 Z M9,5.07769124 L9,6.07769124 L3,6.07769124 L3,5.07769124 L9,5.07769124 Z M9,3.07769124 L9,4.07769124 L3,4.07769124 L3,3.07769124 L9,3.07769124 Z" opacity=".7" transform="translate(0 -.078)"/>
</svg>
