<svg xmlns="http://www.w3.org/2000/svg" width="47" height="1235" viewBox="0 0 47 1235">
  <g fill="none" fill-rule="evenodd">
    <g fill="#FFFFFF" fill-rule="nonzero" transform="translate(17 1180)">
      <path d="M3.58499,12.12955 L9.48552,12.12955 C9.6452,12.12955 9.77479,12.25734 9.77479,12.41543 L9.77479,13.4443 C9.77479,13.60211 9.6452,13.73018 9.48552,13.73018 L3.58499,13.73018 C3.425313,13.73018 3.29572,13.60211 3.29572,13.4443 L3.29572,12.41543 C3.29572,12.25734 3.425313,12.12955 3.58499,12.12955 Z M3.58499,8.92746 L9.48552,8.92746 C9.6452,8.92746 9.77479,9.05554 9.77479,9.21363 L9.77479,10.24221 C9.77479,10.40002 9.6452,10.52809 9.48552,10.52809 L3.58499,10.52809 C3.425313,10.52809 3.29572,10.40002 3.29572,10.24221 L3.29572,9.21363 C3.29572,9.05554 3.425313,8.92746 3.58499,8.92746 Z M3.642844,5.72562 L4.56822,5.72562 C4.76,5.72562 4.91534,5.879136 4.91534,6.068673 L4.91534,6.9832 C4.91534,7.17273 4.76,7.32625 4.56822,7.32625 L3.642844,7.32625 C3.451058,7.32625 3.29572,7.17273 3.29572,6.9832 L3.29572,6.068673 C3.29572,5.879136 3.451058,5.72562 3.642844,5.72562 Z"/>
      <path d="M8.3033596,3.334731 C8.2868796,3.318721 8.2648896,3.309571 8.2420396,3.309571 C8.1940196,3.309571 8.1549696,3.348161 8.1549696,3.395331 L8.1549696,5.639761 C8.1549696,5.687211 8.1940196,5.725521 8.2420396,5.725521 L10.5136796,5.725521 C10.5367796,5.725521 10.5587796,5.716661 10.5749796,5.700361 C10.6088796,5.666921 10.6088796,5.612601 10.5749796,5.579151 L8.3033596,3.334731 Z M11.1636796,15.330491 C11.2914796,15.330491 11.3950796,15.228391 11.3950796,15.102091 L11.3950796,7.555741 C11.3950796,7.429381 11.2914796,7.326751 11.1636796,7.326751 L6.7670496,7.326751 C6.6391996,7.326751 6.5356396,7.224411 6.5356396,7.098331 L6.5356396,2.752991 C6.5356396,2.626641 6.4320796,2.524291 6.3042196,2.524291 L1.9073196,2.524291 C1.7797496,2.524291 1.6758996,2.626641 1.6758996,2.752991 L1.6758996,15.102091 C1.6758996,15.228391 1.7797496,15.330491 1.9073196,15.330491 L11.1636796,15.330491 Z M7.7957096,0.922791 C8.0259696,0.922791 8.2466796,1.0134142 8.4092496,1.174077 L12.6756796,5.390491 C12.8926796,5.604891 13.0146796,5.895921 13.0146796,6.199231 L13.0146796,16.074291 C13.0146796,16.547991 12.6261796,16.931891 12.1468796,16.931891 L0.9243896,16.931891 C0.4447796,16.931891 0.0565796,16.547991 0.0565796,16.074291 L0.0565796,1.780424 C0.0565796,1.307011 0.4447796,0.922791 0.9243896,0.922791 L7.7957096,0.922791 Z"/>
    </g>
    <g fill="#FFFFFF" transform="translate(15 1141)">
      <path fill-rule="nonzero" d="M3.4,0 L13.6,0 C15.4777681,-1.52211677e-15 17,1.53502371 17,3.42857143 L17,12.5714286 C17,14.4649762 15.4777681,16 13.6,16 L3.4,16 C1.52223185,16 7.3326138e-16,14.4649762 5.03301105e-16,12.5714286 L0,3.42857143 C2.7334083e-16,1.53502371 1.52223185,8.55369598e-16 3.4,0 Z M3.17456351,1.92115782 C2.54864079,1.92115782 2.04123018,2.43283239 2.04123018,3.06401496 L2.04123018,12.935985 C2.04123018,13.5671677 2.54864079,14.0788422 3.17456351,14.0788422 L13.8254364,14.0788422 C14.4513592,14.0788422 14.9587698,13.5671677 14.9587698,12.935985 L14.9587698,3.06401496 C14.9587698,2.43283239 14.4513592,1.92115782 13.8254364,1.92115782 L3.17456351,1.92115782 Z"/>
      <path d="M12,7.99996602 C12,7.84373792 11.9282683,7.69674363 11.8069064,7.60440541 L8.38045919,4.09483149 C8.23686503,3.98565513 8.04645235,3.96942805 7.88775333,4.05300771 C7.72905431,4.13651948 7.62900919,4.3055799 7.62900919,4.49039213 L7.62900919,6.46470738 L2.47230451,6.46470738 C2.21146792,6.46470738 2,6.68421433 2,6.95505047 L2,9.04488159 C2,9.31571774 2.21140253,9.53529259 2.47230451,9.53529259 L7.62900919,9.53529259 L7.62900919,11.5096079 C7.62900919,11.6944201 7.72905431,11.8634126 7.88775333,11.9469922 C8.04645235,12.030572 8.23693041,12.0143449 8.38045919,11.9051685 L11.8069064,8.39552665 C11.9282683,8.30318843 12,8.15619414 12,7.99996602"/>
    </g>
    <path fill="#78D700" fill-rule="nonzero" d="M23,390.570423 L23,386.338028 C23,385.602113 23.6021127,385 24.3380282,385 L31.6619718,385 C32.3978873,385 33,385.602113 33,386.338028 L33,390.566901 C33,391.302817 32.3978873,391.90493 31.6619718,391.90493 L30.6690141,391.90493 L30.6690141,394.253521 C30.6690141,394.492958 30.4577465,394.485915 30.0176056,394.112676 C29.7605634,393.897887 28.7992958,392.795775 28.0316901,391.90493 L24.3380282,391.90493 C23.6021127,391.908451 23,391.306338 23,390.570423 Z M20.0349826,391.584899 C19.5395401,391.582866 19.0440977,391.580833 18.5486552,391.586932 C18.4127743,391.588965 18.3416982,391.548304 18.3061601,391.424286 C18.2329935,391.182349 18.1326507,390.946512 18.0741174,390.702543 C17.8065367,389.559952 17.7856319,388.405163 17.9068795,387.246308 C17.9675032,386.670946 18.0803889,386.101684 18.3082506,385.558852 C18.354241,385.449065 18.4127743,385.404338 18.5423837,385.404338 C19.0315548,385.41247 19.5207259,385.408404 20.0119874,385.406371 C20.6955726,385.404338 21.0969437,385.013986 21.0990342,384.345103 C21.1011247,383.964917 21.0990342,383.588798 21.1011247,383.208612 C21.1011247,382.818261 21.1053056,382.427909 21.1011247,382.037558 C21.0927628,381.407303 20.6830297,381.00882 20.0349826,381.004754 C19.5374497,381.000688 19.0440977,381.012886 18.5465647,381.000688 C18.0866603,380.988489 17.6936511,381.138937 17.3487227,381.425601 C16.7884755,381.893209 16.424733,382.495001 16.1257951,383.135421 C15.5028337,384.456923 15.182991,385.857714 15.0554721,387.303234 C14.8819627,389.257023 15.1140054,391.162018 15.7725049,393.014154 C16.0693523,393.847716 16.4519091,394.638584 17.0665087,395.305434 C17.4887845,395.76491 17.9904984,396.033277 18.6510884,395.996681 C19.1026309,395.972284 19.5604449,395.994648 20.0140779,395.992615 C20.6872107,395.988549 21.0990342,395.592099 21.1011247,394.943546 C21.1032151,394.168943 21.1011247,393.39434 21.0990342,392.619736 C21.0948532,391.985416 20.6851202,391.586932 20.0349826,391.584899 Z"/>
    <g transform="translate(17 309)">
      <circle cx="5.5" cy="6.5" r="5.5" fill="#2FC6F6" opacity=".797"/>
      <circle cx="8.5" cy="6.5" r="5.5" fill="#59D2F8"/>
      <circle cx="8.5" cy="6.5" r="6" stroke="#FFFFFF"/>
      <path fill="#FFFFFF" d="M11.278288,5.09183973 L10.8196173,4.63316911 C10.7529101,4.56647649 10.6736442,4.53312287 10.5818925,4.53312287 C10.4902577,4.53312287 10.4109333,4.56647649 10.3442845,4.63316911 L7.64670143,7.33073761 L6.55023786,6.23420102 C6.48351603,6.16746459 6.40427929,6.13415478 6.31258606,6.13415478 C6.22087822,6.13415478 6.14167069,6.16746459 6.07493425,6.23420102 L5.61632205,6.69281322 C5.54961482,6.75952045 5.516232,6.83875719 5.516232,6.93050883 C5.516232,7.02221667 5.54961482,7.1014242 5.61632205,7.16816064 L7.40910804,8.96094662 C7.47582987,9.02769766 7.55506661,9.06099286 7.64675984,9.06099286 C7.73845308,9.06099286 7.81767521,9.02771227 7.88441165,8.96094662 L11.2782441,5.56712873 C11.3449076,5.50043611 11.3783342,5.42118476 11.3783342,5.32947693 C11.3783342,5.23776909 11.3449952,5.15853235 11.278288,5.09183973 Z"/>
    </g>
    <g transform="translate(18 341)">
      <circle cx="5.5" cy="5.5" r="5.5" fill="#2FC6F6" opacity=".797"/>
      <path fill="#FFFFFF" d="M8.27828795,4.09183973 L7.81961734,3.63316911 C7.75291011,3.56647649 7.67364416,3.53312287 7.58189252,3.53312287 C7.4902577,3.53312287 7.41093334,3.56647649 7.34428452,3.63316911 L4.64670143,6.33073761 L3.55023786,5.23420102 C3.48351603,5.16746459 3.40427929,5.13415478 3.31258606,5.13415478 C3.22087822,5.13415478 3.14167069,5.16746459 3.07493425,5.23420102 L2.61632205,5.69281322 C2.54961482,5.75952045 2.516232,5.83875719 2.516232,5.93050883 C2.516232,6.02221667 2.54961482,6.1014242 2.61632205,6.16816064 L4.40910804,7.96094662 C4.47582987,8.02769766 4.55506661,8.06099286 4.64675984,8.06099286 C4.73845308,8.06099286 4.81767521,8.02771227 4.88441165,7.96094662 L8.27824414,4.56712873 C8.34490756,4.50043611 8.37833419,4.42118476 8.37833419,4.32947693 C8.37833419,4.23776909 8.34499518,4.15853235 8.27828795,4.09183973 Z"/>
    </g>
    <path fill="#535C69" fill-rule="nonzero" d="M27.29424,898.39666 L27.29424,897.02909 C27.294695,895.35856 25.81644,894 24.001395,894 C22.184966,894 20.707641,895.35856 20.707641,897.02909 L20.707641,898.3971 L20,898.3971 L20,904 L28,904 L28,898.39666 L27.29424,898.39666 Z M21.947997,897.02909 C21.947997,895.9885 22.868819,895.14272 24.000941,895.14272 C25.131203,895.14272 26.051549,895.98894 26.051549,897.02909 L26.051549,898.3971 L21.947997,898.3971 L21.947997,897.02909 Z M24.566764,902.46377 L23.436502,902.46377 L23.605827,900.92798 C23.396841,900.80827 23.255975,900.59457 23.255975,900.34955 C23.255975,899.97236 23.589046,899.66598 24.001395,899.66598 C24.41143,899.66598 24.74355,899.97238 24.74355,900.34955 C24.74355,900.59457 24.604997,900.80785 24.394151,900.92798 L24.566764,902.46377 Z"/>
    <path fill="#FFFFFF" d="M23.4750808,1231.99444 C21.8310725,1233.92583 20.8393789,1234.92472 20.5,1234.99109 C19.9117943,1235.10613 19.5827328,1234.10724 19.5128156,1231.99444 L18.8,1231.99444 C17.2536027,1231.99444 16,1230.74084 16,1229.19444 L16,1222.8 C16,1221.2536 17.2536027,1220 18.8,1220 L28.2,1220 C29.7463973,1220 31,1221.2536 31,1222.8 L31,1229.19444 C31,1230.74084 29.7463973,1231.99444 28.2,1231.99444 L23.4750808,1231.99444 Z M19.0019242,1222.06774 C18.4496395,1222.06774 18.0019242,1222.51545 18.0019242,1223.06774 L18.0019242,1228.89919 C18.0019242,1229.45147 18.4496395,1229.89919 19.0019242,1229.89919 L27.9980758,1229.89919 C28.5503605,1229.89919 28.9980758,1229.45147 28.9980758,1228.89919 L28.9980758,1223.06774 C28.9980758,1222.51545 28.5503605,1222.06774 27.9980758,1222.06774 L19.0019242,1222.06774 Z"/>
    <circle cx="23.5" cy="283.5" r="4.5" fill="#C1C4C8"/>
    <path fill="#FFFFFF" fill-rule="nonzero" d="M23.5556364,259.636364 L21.6796621,259.636364 L21.6796621,265.446196 L27.3636364,265.446196 L27.3636364,263.510818 L23.5556364,263.510818 L23.5556364,259.636364 Z M23.4999712,269.946452 C19.9382643,269.946452 17.0520022,267.061678 17.0520022,263.499971 C17.0520022,259.938264 19.9382643,257.052002 23.4999712,257.052002 C27.0601903,257.052002 29.9464523,259.938264 29.9464523,263.499971 C29.9464523,267.061678 27.0601903,269.946452 23.4999712,269.946452 Z M23.5,255 C18.8049091,255 15,258.806455 15,263.5 C15,268.193545 18.8049091,272 23.5,272 C28.1935455,272 32,268.193545 32,263.5 C32,258.806455 28.1935455,255 23.5,255 Z"/>
    <path fill="#7BD500" d="M28.7000269,1065.05771 C28.6230848,1064.98076 28.4971439,1064.98076 28.4202801,1065.05771 L22.0504575,1071.42745 L19.5661591,1068.94315 C19.507298,1068.88429 19.4110226,1068.88429 19.3521615,1068.94315 L18.0441458,1070.25125 C17.9852847,1070.31011 17.9852847,1070.40646 18.0441458,1070.46524 L21.9434586,1074.36464 C22.0023197,1074.4235 22.0985952,1074.4235 22.1574563,1074.36464 L22.1904091,1074.33176 L29.9422934,1066.5798 C30.0192355,1066.50286 30.0192355,1066.37692 29.9422934,1066.29997 L28.7000269,1065.05771 Z"/>
    <path fill="#2FC6F6" fill-rule="nonzero" d="M37.9565332,1014.80347 L40.4869629,1006.66663 C40.7074407,1005.95918 40.5214664,1005.19155 39.9990946,1004.65291 C39.4767229,1004.11426 38.6973144,1003.88643 37.9544647,1004.05523 C37.2116151,1004.22404 36.618181,1004.76383 36.3977031,1005.47129 L34.2302887,1012.45621 C27.4919814,1009.05009 19.4579331,1009.05821 12.7269748,1012.47792 L10.5488835,1005.47129 C10.2080543,1004.37766 9.01634558,1003.75869 7.88712768,1004.08878 C6.75790977,1004.41886 6.11879446,1005.57301 6.45962367,1006.66663 L9.00073027,1014.83553 C3.29426625,1019.25293 -0.0196886925,1025.95023 8.80156551e-05,1033.02528 C8.80156551e-05,1045.79358 10.5168527,1042.66044 23.4999856,1042.66044 C36.4831185,1042.66044 46.9998832,1045.79358 46.9998832,1033.02528 C47.0227411,1025.93127 43.690775,1019.21756 37.9565332,1014.80347 Z M23.4786317,1031.29017 C14.2110665,1031.29017 6.6945159,1032.2208 6.6945159,1028.41658 C6.6945159,1024.61235 14.2110665,1021.52368 23.4786317,1021.52368 C32.746197,1021.52368 40.2734245,1024.60925 40.2734245,1028.41658 C40.2734245,1032.2239 32.7568739,1031.29017 23.4786317,1031.29017 Z M15.8019274,1024.37349 C14.4787745,1024.60755 13.5725846,1025.79893 13.7340489,1027.09216 C13.8955131,1028.38539 15.0687951,1029.33325 16.4114178,1029.25513 C17.7540405,1029.17701 18.8017082,1028.09992 18.8021415,1026.79728 C18.6522469,1025.33197 17.3172677,1024.25348 15.8019274,1024.37349 Z M29.0838963,1027.09849 C29.2483829,1028.3915 30.423316,1029.33733 31.7659767,1029.25758 C33.1086375,1029.17784 34.1554327,1028.10006 34.1555502,1026.79728 C34.0056985,1025.32761 32.6639833,1024.24752 31.1446592,1024.37349 C29.8221638,1024.61175 28.9194098,1025.80549 29.0838963,1027.09849 Z"/>
    <path fill="#525C69" fill-rule="nonzero" d="M27.0616687,972 L28.9902911,973.928622 L22.0727496,980.844782 L20.1441272,978.91616 L27.0616687,972 Z M19.0071241,981.723438 C18.9877826,981.79666 19.0085057,981.874026 19.061004,981.927906 C19.1148838,981.981785 19.1922498,982.002508 19.2654711,981.981785 L21.551911,981.365621 L19.6232886,979.436999 L19.0071241,981.723438 Z"/>
    <path fill="#468EE5" fill-rule="nonzero" d="M26.0634793,853.823799 C27.0034253,853.823799 27.772472,853.054753 27.772472,852.114807 L27.772472,846.708993 C27.772472,845.769047 27.0034253,845 26.0634793,845 L16.7089927,845 C15.7690467,845 15,845.769047 15,846.708993 L15,852.110309 C15,853.050255 15.7690467,853.819302 16.7089927,853.819302 L17.9772452,853.819302 L17.9772452,856.819034 C17.9772452,857.124854 18.2470862,857.115859 18.8092549,856.63914 C19.1375614,856.364802 20.3653377,854.957131 21.3457599,853.819302 L26.0634793,853.819302 L26.0634793,853.823799 Z M30.2909876,848.687826 L29.3285549,848.687826 L29.3285549,852.879356 C29.3285549,854.260042 28.1997202,855.393374 26.8145366,855.393374 L21.7865001,855.393374 L20.0145445,857.241785 C20.2798881,857.412684 20.5991999,857.516123 20.9365011,857.516123 L25.6542205,857.516123 C26.6346427,858.653952 27.8669164,860.061623 28.1907255,860.335961 C28.7573915,860.81268 29.0227351,860.817178 29.0227351,860.515855 L29.0227351,857.516123 L30.2909876,857.516123 C31.2309336,857.516123 31.9999804,856.747076 31.9999804,855.80713 L31.9999804,850.396819 C32.0044777,849.456873 31.235431,848.687826 30.2909876,848.687826 Z M16.8399798,787.11298 L22.836951,791.927241 C22.9732458,792.035833 23.1095406,792.108228 23.2799091,792.108228 L23.3139828,792.108228 L23.4162039,792.108228 L23.518425,792.108228 L23.5524987,792.108228 C23.7228673,792.072031 23.859162,792.035833 23.9954568,791.927241 L29.9924281,787.11298 C30.0946491,787.040586 30.1627966,786.931993 30.230944,786.823401 L30.230944,790.008776 L31.9005553,790.008776 L31.9005553,785.918465 C31.9005553,784.868739 31.0827865,784 30.0946491,784 L16.8059061,784 C15.8177688,784 15,784.868739 15,785.918465 L15,794.786839 C15,795.836566 15.8177688,796.705303 16.8059061,796.705303 L23.5865725,796.705303 L23.5865725,794.931628 L17.2147905,794.931628 C16.9081272,794.931628 16.6696113,794.678246 16.6696113,794.35247 L16.6696113,786.859598 C16.703685,786.96819 16.7718324,787.040586 16.8399798,787.11298 Z M28.4931853,785.773675 L23.4162039,789.863987 L18.3392226,785.773675 L28.4931853,785.773675 Z M34.1153458,795.329801 L31.3213023,792.397808 C31.2190813,792.289216 31.0487128,792.289216 30.912418,792.36161 C30.7761231,792.434005 30.7079758,792.578795 30.7079758,792.723584 L30.7079758,794.388667 L26.482837,794.388667 C26.2783948,794.388667 26.1080263,794.569655 26.1080263,794.786839 L26.1080263,796.524317 C26.1080263,796.741502 26.2783948,796.922488 26.482837,796.922488 L30.7079758,796.922488 L30.7079758,798.587571 C30.7079758,798.732361 30.7761231,798.87715 30.912418,798.949546 C31.0487128,799.02194 31.1850076,799.02194 31.3213023,798.913348 L34.1153458,795.981355 C34.2175669,795.90896 34.2857143,795.76417 34.2857143,795.655578 C34.2857143,795.546985 34.2175669,795.402196 34.1153458,795.329801 Z"/>
    <path fill="#FFFFFF" fill-rule="nonzero" d="M28.9668874,755 L18.0331126,755 C17.4649007,755 17,755.464749 17,756.032776 L17,763.004016 C17,763.572042 17.4649007,764.036792 18.0331126,764.036792 L23.2672914,764.036792 L26.0197616,766.78828 C26.1909139,766.959462 26.4711457,766.959462 26.6423841,766.78828 L26.6423841,764.036792 L28.9668874,764.036792 C29.5350993,764.036792 30,763.572042 30,763.004016 L30,756.032776 C30,755.464749 29.5350993,755 28.9668874,755 Z M27.4986156,725.08545 L28.1985216,722.761585 C28.2595049,722.559538 28.2080652,722.340306 28.0635794,722.186469 C27.9190936,722.032633 27.7035125,721.967565 27.4980434,722.015775 C27.2925744,722.063985 27.128433,722.21815 27.0674498,722.420196 L26.4679522,724.415076 C24.6041651,723.442296 22.3819815,723.444613 20.5202271,724.421278 L19.9177763,722.420196 C19.8235044,722.107859 19.4938828,721.931083 19.181546,722.025355 C18.8692091,722.119627 18.6924325,722.449248 18.7867044,722.761585 L19.4895637,725.094605 C17.91118,726.356207 16.9945542,728.268943 17.0000243,730.289562 C17.0000243,733.936161 19.9089167,733.041345 23.499996,733.041345 C27.0910753,733.041345 29.9999677,733.936161 29.9999677,730.289562 C30.0062901,728.263527 29.0846824,726.346105 27.4986156,725.08545 Z M23.4940896,729.794017 C20.9307205,729.794017 18.8516746,730.059804 18.8516746,728.973325 C18.8516746,727.886847 20.9307205,727.004729 23.4940896,727.004729 C26.0574587,727.004729 28.1394578,727.885961 28.1394578,728.973325 C28.1394578,730.06069 26.0604119,729.794017 23.4940896,729.794017 Z M21.3707459,727.818628 C21.0047674,727.885475 20.7541191,728.225731 20.7987795,728.595074 C20.8434398,728.964417 21.1679646,729.235124 21.5393283,729.212813 C21.9106921,729.190502 22.2004725,728.882889 22.2005923,728.510856 C22.1591321,728.092369 21.7898825,727.784354 21.3707459,727.818628 Z M25.044482,728.596883 C25.0899782,728.966163 25.4149597,729.236289 25.786334,729.213515 C26.1577082,729.19074 26.4472474,728.882928 26.4472798,728.510856 C26.4058315,728.091121 26.0347188,727.78265 25.6144802,727.818628 C25.2486836,727.886675 24.9989857,728.227603 25.044482,728.596883 Z M21.3505789,696.175138 C22.1075179,696.175138 22.287824,695.737549 21.7528003,695.203912 L20.6896876,694.139413 C20.8398271,693.9279 21.0038363,693.730256 21.1879566,693.551337 C21.2517573,693.490657 21.3165981,693.431018 21.3845597,693.374152 C21.4629235,693.30619 21.5454482,693.242736 21.6283197,693.180323 C21.7014824,693.127618 21.774645,693.073179 21.8488479,693.023248 C21.9736753,692.943151 22.1009298,692.868948 22.2323452,692.80376 C22.2919849,692.77394 22.3502377,692.748282 22.4098774,692.719849 C22.5478809,692.657435 22.6900454,692.601956 22.8363708,692.552025 C22.8648037,692.543703 22.8918496,692.531567 22.9202825,692.523592 C23.0978147,692.469154 23.277774,692.429972 23.4622411,692.400152 C23.5093981,692.39079 23.5569018,692.383855 23.6044055,692.378654 C23.7954607,692.351261 23.9875561,692.333924 24.1855461,692.333924 C24.1907472,692.333924 24.1976821,692.335311 24.2028832,692.335311 C24.3440074,692.335311 24.479237,692.341899 24.6162003,692.355422 C24.6838151,692.362357 24.7476158,692.37588 24.8124566,692.385242 C24.8911672,692.397378 24.968144,692.4057 25.0426937,692.42061 C25.0981725,692.432746 25.1526111,692.447656 25.2067029,692.461179 C25.2933885,692.48129 25.3814611,692.503135 25.4681468,692.53018 C25.5059417,692.540929 25.5440834,692.557226 25.5818783,692.570749 C25.6834739,692.606117 25.7836825,692.639751 25.8811172,692.683094 C26.376959,692.895994 26.8346592,693.202168 27.2289055,693.596067 C27.6501977,694.015972 27.9737085,694.510427 28.1904226,695.061748 C28.4275945,695.661613 29.1033958,695.95565 29.7036071,695.719865 C30.3048587,695.484427 30.6002834,694.806892 30.3631115,694.208414 C30.0285049,693.355081 29.5288489,692.592594 28.8800936,691.943839 C28.289591,691.354376 27.602694,690.893902 26.8617051,690.566231 C26.8509561,690.560683 26.842981,690.554095 26.8332722,690.549934 C26.8239102,690.545773 26.8159351,690.543346 26.8076133,690.540572 C26.6411769,690.468796 26.4702328,690.406382 26.2982485,690.349517 C26.2562926,690.334607 26.2171107,690.316923 26.1751549,690.304787 C26.0111456,690.253469 25.8447092,690.211513 25.677926,690.174758 C25.6252212,690.162622 25.5739033,690.144938 25.5208517,690.135576 C25.3544152,690.101596 25.1848581,690.078711 25.0156477,690.058253 C24.9629429,690.051665 24.9112782,690.039182 24.8571864,690.033981 C24.6352712,690.012136 24.4088483,690 24.1827721,690 C24.1706361,690 24.1557262,690.002774 24.1422032,690.002774 C23.955309,690.002774 23.7722289,690.012136 23.5908826,690.02982 C23.5270819,690.033981 23.4636281,690.041956 23.3998274,690.050278 C23.2604369,690.066575 23.1220866,690.086686 22.9854701,690.112345 C22.9244434,690.122053 22.8634167,690.132802 22.80239,690.146325 C22.6290187,690.181693 22.4570344,690.225036 22.289211,690.274967 C22.2729141,690.279128 22.2566172,690.283289 22.2403203,690.287103 C22.042677,690.34813 21.8488479,690.418518 21.6595265,690.495842 C21.6390687,690.503817 21.6227718,690.512139 21.603701,690.520114 C21.4251285,690.59605 21.2475964,690.678575 21.076999,690.769422 C21.064863,690.77497 21.0537673,690.781558 21.0416313,690.787106 C20.2656214,691.20285 19.5735233,691.769081 19.0128406,692.46534 L17.9712259,691.422338 C17.4375891,690.888701 17,691.068661 17,691.824559 L17,694.801691 C17,695.55863 17.6175485,696.175138 18.3734473,696.175138 L21.3505789,696.175138 Z M29.07219,698 L26.0936714,698 C25.3391596,698 25.1588535,698.435855 25.6924903,698.970879 L26.7573367,700.035726 C26.6068504,700.244118 26.4442281,700.440721 26.2601078,700.619293 C26.195267,700.683094 26.1273054,700.744121 26.0583037,700.802373 C25.982367,700.868601 25.9040032,700.929628 25.8252927,700.987881 C25.7469288,701.044746 25.6682183,701.104386 25.5856936,701.155704 C25.4650271,701.233028 25.3419335,701.304803 25.214679,701.368604 C25.1550393,701.398077 25.0953996,701.42651 25.0343729,701.45529 C24.8977563,701.517357 24.7566321,701.571448 24.6158546,701.618952 C24.5846478,701.629701 24.5548279,701.642184 24.5250081,701.650159 C24.3488628,701.705638 24.1675165,701.743779 23.9833962,701.774639 C23.9358925,701.781574 23.8883887,701.788162 23.8412317,701.796484 C23.6501766,701.820756 23.4577345,701.837053 23.2628651,701.837053 C23.1165398,701.837053 22.9716014,701.831505 22.82805,701.816595 C22.7670233,701.811394 22.7059966,701.799258 22.6463569,701.789549 C22.5638321,701.780187 22.4813074,701.768051 22.3984359,701.751754 C22.348505,701.743779 22.2958001,701.724709 22.2455225,701.71396 C22.1546759,701.690728 22.0655631,701.670617 21.9774905,701.643224 C21.9379618,701.631088 21.9001669,701.614791 21.859598,701.602655 C21.7607764,701.567634 21.662995,701.532266 21.5655603,701.490311 C21.0686782,701.277757 20.6106313,700.971584 20.217772,700.578724 C19.7940526,700.155005 19.471582,699.661937 19.2548679,699.11339 C19.0204699,698.511792 18.3405078,698.218101 17.7406432,698.453539 C17.1418188,698.689324 16.8439669,699.366512 17.082179,699.967764 C17.4167856,700.815896 17.9154014,701.578383 18.5669307,702.228525 C19.1574333,702.820415 19.8425965,703.280889 20.5849724,703.607521 C20.5943344,703.612722 20.6040432,703.619657 20.6120183,703.622431 C20.6203401,703.627632 20.6297022,703.629019 20.6362903,703.631793 C20.8072344,703.707729 20.9819926,703.771183 21.159178,703.829436 C21.1973197,703.841572 21.2309538,703.856482 21.2690954,703.868618 C21.4383058,703.921669 21.6116771,703.963625 21.7850484,704.004194 C21.8311651,704.014943 21.8758949,704.028466 21.9230519,704.038175 C22.0978102,704.074583 22.2781163,704.099202 22.4580757,704.119313 C22.5014185,704.126247 22.5423341,704.13561 22.5856769,704.13977 C22.8089791,704.161269 23.0326281,704.174791 23.2614782,704.174791 C23.2736142,704.174791 23.2843632,704.172018 23.2964992,704.172018 C23.4847804,704.170977 23.6716746,704.161269 23.8561417,704.143585 C23.9168216,704.138383 23.9792353,704.131449 24.040262,704.124861 C24.1824264,704.107177 24.3232039,704.086719 24.4629411,704.06106 C24.5222341,704.051698 24.5794467,704.040949 24.6376994,704.028466 C24.8162718,703.992058 24.993804,703.947328 25.1671753,703.894623 C25.1793113,703.893236 25.1886733,703.889076 25.2008093,703.887689 C25.4001863,703.826662 25.5978296,703.754886 25.7888847,703.676522 L25.8336145,703.657452 C26.0177348,703.581515 26.1966539,703.496216 26.3714122,703.402943 C26.3807742,703.397395 26.3901363,703.393234 26.3998451,703.388033 C27.1786289,702.970901 27.870727,702.404671 28.4314097,701.708412 L29.4730244,702.750026 C30.0080482,703.28505 30.4442503,703.103357 30.4442503,702.349192 L30.4442503,699.373447 C30.4442503,698.617548 29.8263551,698 29.07219,698 Z M30.8830746,662.34617 L29.7779555,661.241051 C29.6172314,661.080362 29.4262483,661 29.2051823,661 C28.9843977,661 28.7932739,661.080362 28.6326905,661.241051 L22.1331445,667.740562 L19.4913296,665.098571 C19.3305703,664.937776 19.1396576,664.85752 18.9187323,664.85752 C18.6977718,664.85752 18.5069295,664.937776 18.346135,665.098571 L17.2411566,666.203549 C17.0804324,666.364273 17,666.555186 17,666.776252 C17,666.997213 17.0804324,667.188055 17.2411566,667.348849 L21.560688,671.668381 C21.7214473,671.829211 21.91236,671.909432 22.1332853,671.909432 C22.3542106,671.909432 22.5450881,671.829246 22.7058826,671.668381 L30.8829691,663.49133 C31.0435877,663.330641 31.1241257,663.139693 31.1241257,662.918732 C31.1241257,662.697772 31.0437988,662.506859 30.8830746,662.34617 Z"/>
    <g transform="translate(17 417)">
      <path fill="#B1B7C5" d="M12.9779759,6.48914487 C12.9779759,2.90506841 10.0727505,7.84708249e-05 6.48909256,7.84708249e-05 C2.90525151,7.84708249e-05 0,2.90506841 0,6.48914487 C0,10.072672 2.90525151,12.9778974 6.48909256,12.9778974 C10.0727505,12.9778974 12.9779759,10.072672 12.9779759,6.48914487 Z"/>
      <path fill="#FFFFFF" fill-rule="nonzero" d="M3.9824624,4.78956902 C3.9824624,4.47209836 4.08437698,4.15040692 4.28825178,3.82456316 C4.49205814,3.49871939 4.78956568,3.22886362 5.18056908,3.01495022 C5.57159528,2.80110527 6.02778112,2.69412575 6.54912658,2.69412575 C7.03367146,2.69412575 7.46149826,2.78358335 7.83247009,2.96231603 C8.20344191,3.14113996 8.48995263,3.38427937 8.69220756,3.69171144 C8.89437124,3.99923476 8.9954873,4.33338319 8.9954873,4.69431642 C8.9954873,4.97840874 8.93783381,5.22743442 8.82252682,5.44125656 C8.70721983,5.65516996 8.57014734,5.83981171 8.41144623,5.99518183 C8.25267667,6.15059758 7.96778582,6.41212588 7.55672805,6.7797439 C7.44308656,6.88336961 7.35196346,6.97446989 7.28351848,7.05297629 C7.21498223,7.13152832 7.16399072,7.20337274 7.13061238,7.26850955 C7.09716559,7.33369199 7.07122494,7.39885162 7.0529045,7.46403406 C7.0344928,7.52917088 7.00693229,7.64370215 6.97020014,7.80742256 C6.9066832,8.15503184 6.70780488,8.32879084 6.37365645,8.32879084 C6.19985182,8.32879084 6.0536077,8.27200432 5.93501535,8.15834001 C5.81635456,8.04474415 5.75705838,7.87595881 5.75705838,7.65202963 C5.75705838,7.37129111 5.80045251,7.1281517 5.88740045,6.92263422 C5.97427996,6.71707111 6.08956413,6.53660449 6.2332986,6.38123437 C6.37694181,6.22581862 6.57082365,6.04119968 6.81480721,5.82728628 C7.02865216,5.64015769 7.18326939,5.49893287 7.27852199,5.40368026 C7.3737746,5.30842765 7.45396931,5.20238355 7.51915175,5.08534263 C7.58431138,4.96839296 7.61691401,4.84142751 7.61691401,4.70435501 C7.61691401,4.4370089 7.51744063,4.21143704 7.31863076,4.0275938 C7.11975244,3.84384183 6.86322063,3.75187458 6.54912658,3.75187458 C6.18144012,3.75187458 5.91074019,3.84461754 5.737004,4.03010345 C5.56319937,4.21558936 5.41617953,4.48879894 5.29585325,4.84973217 C5.18221176,5.22743442 4.96663286,5.41620569 4.6491622,5.41620569 C4.46194234,5.41620569 4.30403976,5.35024754 4.17543163,5.21819435 C4.04677787,5.08618678 3.9824624,4.94331928 3.9824624,4.78956902 Z M6.42882311,10.2838763 C6.2249255,10.2838763 6.04696853,10.2178268 5.8949294,10.0858421 C5.74282183,9.95388016 5.66682508,9.7692384 5.66682508,9.53191682 C5.66682508,9.32135722 5.74028936,9.14426723 5.88740045,9.00053276 C6.03442028,8.85686673 6.2148869,8.78497668 6.4288003,8.78497668 C6.63935989,8.78497668 6.81644989,8.85686673 6.96018436,9.00053276 C7.10382757,9.14426723 7.17574044,9.32135722 7.17574044,9.53191682 C7.17574044,9.7658846 7.10054221,9.94970502 6.95014576,10.0833553 C6.79974931,10.2170055 6.62599031,10.2838763 6.42882311,10.2838763 Z"/>
    </g>
    <g transform="translate(11 619)">
      <path fill="#959CA5" d="M10.2641534,14.1227742 L10.2583788,16.5365272 L7.14920757,13.4166318 L10.2724027,10.2959115 L10.2666282,12.8936245 L13.9776718,12.8936245 C14.9939889,12.8936245 15.8213963,12.0670419 15.8213963,11.0499 C15.8213963,10.0335829 14.9939889,9.20617541 13.9776718,9.20617541 L12.9201081,9.20617541 L12.9250577,7.97702572 L13.9776718,7.97702572 C15.6720835,7.97702572 17.050546,9.35548823 17.050546,11.0499 C17.050546,12.7451366 15.6720835,14.1227742 13.9776718,14.1227742 L10.2641534,14.1227742 Z"/>
      <path fill="#A1A7AF" fill-rule="nonzero" d="M12.3754069,23.8610416 C18.6932874,23.8610416 23.8149414,18.7393876 23.8149414,12.4215071 C23.8149414,6.10362668 18.6932874,0.981972635 12.3754069,0.981972635 C6.05752647,0.981972635 0.935872426,6.10362668 0.935872426,12.4215071 C0.935872426,18.7393876 6.05752647,23.8610416 12.3754069,23.8610416 Z M12.3754069,23.0305918 C18.2346426,23.0305918 22.9844916,18.2807428 22.9844916,12.4215071 C22.9844916,6.56227146 18.2346426,1.81242246 12.3754069,1.81242246 C6.51617125,1.81242246 1.76632225,6.56227146 1.76632225,12.4215071 C1.76632225,18.2807428 6.51617125,23.0305918 12.3754069,23.0305918 Z"/>
    </g>
    <polygon fill="#69A3E9" points="24.707 603.798 24.707 599.978 22.797 599.978 22.797 603.798 18.977 603.798 18.977 605.708 22.797 605.708 22.797 609.529 24.707 609.529 24.707 605.708 28.529 605.708 28.529 603.798" transform="rotate(45 23.753 604.754)"/>
    <path fill="#525C69" fill-rule="nonzero" d="M28.1319742,573.486239 L26.2732358,575.34437 C25.2473605,576.370852 23.5831294,576.370852 22.5570807,575.34437 C22.3954607,575.183205 22.2690245,575.00161 22.157992,574.814339 L23.0216407,573.950755 C23.0626957,573.909354 23.1133915,573.885631 23.1618342,573.857683 C23.2215426,574.06168 23.3257723,574.2548 23.4862007,574.41525 C23.9985318,574.927993 24.8321964,574.927278 25.3442241,574.41525 L27.2023775,572.557162 C27.7150986,572.044484 27.7150986,571.211015 27.2023775,570.698727 C26.6903281,570.186439 25.8568802,570.186439 25.3442241,570.698727 L24.683467,571.360199 C24.1472612,571.151415 23.5695672,571.095281 23.0071903,571.177694 L24.4152124,569.769715 C25.4416944,568.743428 27.1054922,568.743428 28.1319742,569.769715 C29.1579579,570.795959 29.1579579,572.460017 28.1319742,573.486239 Z M23.2182928,576.541637 L22.5570591,577.203109 C22.0447713,577.715136 21.2110634,577.715136 20.698689,577.203109 C20.186358,576.690366 20.186358,575.856896 20.698689,575.34437 L22.5570591,573.486239 C23.0697584,572.973604 23.902903,572.973604 24.4151908,573.486239 C24.5752509,573.646342 24.679589,573.83942 24.7398607,574.043156 C24.788585,574.01484 24.8386525,573.991832 24.8796858,573.950734 L25.7432696,573.087497 C25.632952,572.899489 25.5058658,572.718544 25.3441808,572.557205 C24.3183921,571.530918 22.6540094,571.530918 21.6277224,572.557205 L19.769634,574.415359 C18.7434553,575.441949 18.7434553,577.10553 19.769634,578.132034 C20.795921,579.157996 22.4599137,579.157996 23.4861791,578.132034 L24.8945696,576.723752 C24.3318893,576.806641 23.7540437,576.750031 23.2182928,576.541637 Z"/>
    <path fill="#468EE5" fill-rule="nonzero" d="M25.7869365,544.400801 C26.788347,544.400801 27.6076828,543.581465 27.6076828,542.580054 L27.6076828,536.820746 C27.6076828,535.819336 26.788347,535 25.7869365,535 L15.8207463,535 C14.8193358,535 14,535.819336 14,536.820746 L14,542.575263 C14,543.576673 14.8193358,544.396009 15.8207463,544.396009 L17.1719317,544.396009 L17.1719317,547.591898 C17.1719317,547.917716 17.4594179,547.908133 18.0583476,547.400241 C18.4081226,547.107963 19.7161851,545.608243 20.7607185,544.396009 L25.7869365,544.396009 L25.7869365,544.400801 Z M30.1951538,538.928979 L29.178752,538.928979 L29.178752,543.394599 C29.178752,544.86557 27.9866173,546.073012 26.5237587,546.073012 L21.213772,546.073012 L19.3424529,548.042293 C19.6226758,548.224368 19.9598932,548.334571 20.3161088,548.334571 L25.2983772,548.334571 C26.3337771,549.546805 27.6351513,551.046525 27.9771182,551.338802 C28.5755603,551.846695 28.8557832,551.851486 28.8557832,551.53046 L28.8557832,548.334571 L30.1951538,548.334571 C31.1878078,548.334571 31.9999792,547.515235 31.9999792,546.513825 L31.9999792,540.749725 C32.0047288,539.748315 31.1925573,538.928979 30.1951538,538.928979 Z M30.9359938,505 L16.0283608,505 C14.8813893,505.036159 13.978776,505.908097 14.0019347,506.957557 L14.0019347,516.042443 C13.9537323,517.066957 14.8119919,517.937843 15.9311113,518 L30.9731542,518 C32.1198118,517.963843 33.0223008,517.092347 32.9995803,516.043166 L32.9995803,506.994437 C33.0081194,505.930933 32.0974723,505.050801 30.9359938,505 Z M29.1396458,506.807866 L23.4469936,510.981143 L17.7543413,506.807866 L29.1451803,506.807866 L29.1396458,506.807866 Z M30.9995518,515.597708 C31.0058501,515.750752 30.9455537,515.899696 30.8322898,516.01088 C30.7190259,516.122064 30.5623555,516.186101 30.3976872,516.188519 L16.5742417,516.188519 C16.4134012,516.18239 16.2619893,516.11629 16.154165,516.005133 C16.0463407,515.893975 15.9911877,515.747123 16.0011484,515.597708 L16.0011484,513.112255 L16.0011484,507.954776 C16.0661525,508.036952 16.1419032,508.111285 16.2266532,508.176058 L22.8432757,513.087668 C22.9775049,513.200971 23.1504579,513.266537 23.3316103,513.272793 L23.6325425,513.272793 C23.8094466,513.24935 23.9774256,513.185771 24.1216548,513.087668 L30.7374996,508.176058 C30.8448046,508.093684 30.9335898,507.992441 30.9987742,507.878122 L30.9987742,515.596985 L30.9995518,515.597708 Z M27.3320701,483.447194 C26.7977403,482.890694 26.1306788,482.890694 25.5997523,483.447194 C25.1947507,483.870852 24.8918503,484.007285 24.4936554,484.438124 C24.3847474,484.556604 24.2928563,484.581737 24.1601247,484.502749 C23.8980648,484.351956 23.618988,484.229885 23.3671383,484.06473 C22.1929739,483.285629 21.2093985,482.283929 20.3381345,481.156567 C19.9059059,480.596476 19.5213245,479.996892 19.2524579,479.321911 C19.1980039,479.185478 19.208214,479.09572 19.3137187,478.98442 C19.7187203,478.571533 19.8548553,478.420739 20.2530502,477.997081 C20.8078003,477.408268 20.8078003,476.718925 20.2496468,476.126522 C19.9331329,475.789031 19.6271014,475.32272 19.3690916,474.956614 C19.1111158,474.590509 18.908717,474.155433 18.5785897,473.814352 C18.0442598,473.265033 17.3771983,473.265033 16.8462718,473.817943 C16.4378668,474.241601 16.0464787,474.67603 15.6312669,475.092508 C15.2466856,475.476673 15.0526932,475.947005 15.0118527,476.496325 C14.9471886,477.390316 15.1547944,478.234042 15.4474847,479.056227 C16.0464787,480.758041 16.9585832,482.269567 18.06468,483.655433 C19.5587617,485.529582 21.3421302,487.012387 23.428399,488.082303 C24.3677305,488.563407 25.3410958,488.93321 26.3995454,488.994246 C27.1278676,489.03733 27.7608954,488.843452 28.2679983,488.243868 C28.6151425,487.834571 29.0065306,487.461177 29.3740951,487.069832 C29.9186351,486.488199 29.9220385,485.784495 29.3809019,485.210043 C28.7342606,484.524291 27.9821148,484.129356 27.3320701,483.447194 Z M27.0557672,480.364627 L27.2064005,480.337484 C27.5351325,480.27828 27.7440997,479.931024 27.6520725,479.592887 C27.3898424,478.629351 26.9010157,477.756759 26.2214298,477.036935 C25.4956941,476.271334 24.6106464,475.74054 23.6343202,475.479452 C23.3102849,475.392781 22.9865559,475.621952 22.9401338,475.971147 L22.9187606,476.132137 C22.8788391,476.432503 23.0613961,476.7128 23.3397241,476.788843 C24.0874115,476.993133 24.7661466,477.400958 25.3229388,477.988371 C25.845493,478.539629 26.2205109,479.210625 26.4238625,479.950519 C26.5028208,480.237925 26.7761799,480.414999 27.0557672,480.364627 Z M28.4982944,474.699626 C27.1891522,473.318572 25.5664571,472.397115 23.7729805,472.011873 C23.4573856,471.944087 23.1534642,472.174048 23.1087438,472.510569 L23.0874047,472.6712 C23.0462919,472.980758 23.2405906,473.269851 23.5307964,473.332933 C25.0746353,473.668664 26.4723674,474.464926 27.5998034,475.651062 C28.6623712,476.771997 29.3980787,478.157252 29.7436234,479.683464 C29.8125758,479.987959 30.0917206,480.185068 30.3842407,480.132398 L30.5336148,480.105506 C30.854451,480.047702 31.0599127,479.715346 30.9843237,479.381374 C30.5831339,477.609261 29.7307586,476.002986 28.4982944,474.699626 Z"/>
    <path fill="#FFFFFF" fill-rule="nonzero" d="M23.1532815,170.332102 L18.8771878,166.113977 C18.697987,165.982759 18.4603582,165.963256 18.2623071,166.063709 C18.0642559,166.164082 17.9394029,166.367274 17.9394029,166.589398 L17.9394029,168.962309 L15.5894205,168.962309 C15.263905,168.962309 15,169.226133 15,169.551648 L15,172.063397 C15,172.388913 15.2638234,172.652818 15.5894205,172.652818 L17.9394029,172.652818 L17.9394029,175.02573 C17.9394029,175.247854 18.0642559,175.450964 18.2623071,175.551418 C18.4603582,175.651872 18.6980686,175.632368 18.8771878,175.50115 L23.1532815,171.282944 C23.3047372,171.171963 23.394256,170.995292 23.394256,170.807523 C23.394256,170.619754 23.3047372,170.443083 23.1532815,170.332102 Z M24.2271895,171.283025 L28.5032832,175.50115 C28.682484,175.632368 28.9201128,175.651872 29.1181639,175.551418 C29.3162151,175.451046 29.4410681,175.247854 29.4410681,175.02573 L29.4410681,172.652818 L31.7910505,172.652818 C32.116566,172.652818 32.380471,172.388995 32.380471,172.063479 L32.380471,169.55173 C32.380471,169.226214 32.1166476,168.962309 31.7910505,168.962309 L29.4410681,168.962309 L29.4410681,166.589398 C29.4410681,166.367274 29.3162151,166.164163 29.1181639,166.063709 C28.9201128,165.963256 28.6824024,165.982759 28.5032832,166.113977 L24.2271895,170.332184 C24.0757338,170.443164 23.986215,170.619835 23.986215,170.807605 C23.986215,170.995374 24.0757338,171.172045 24.2271895,171.283025 Z M25.7447183,17.6296053 C26.5726233,17.6296053 27.25,16.9646396 27.25,16.1519035 L27.25,11.477701 C27.25,10.6649657 26.5726233,10 25.7447183,10 L17.5052817,10 C16.6773768,10 16,10.6649657 16,11.477701 L16,16.1480152 C16,16.9607505 16.6773768,17.6257162 17.5052817,17.6257162 L18.6223592,17.6257162 L18.6223592,20.2194709 C18.6223592,20.4839018 18.8600352,20.4761244 19.3551936,20.0639238 C19.6443662,19.8267136 20.7257923,18.6095544 21.5893486,17.6257162 L25.7447183,17.6257162 L25.7447183,17.6296053 Z M29.8420353,13 L29.0139409,13 L29.0139409,16.6221091 C29.0139409,17.8152285 28.0426715,18.7945968 26.8508347,18.7945968 L22.5246223,18.7945968 L21,20.3919003 C21.2283064,20.5395832 21.503048,20.62897 21.7932679,20.62897 L25.852478,20.62897 C26.6960508,21.6122251 27.7563211,22.828663 28.0349322,23.0657318 C28.5225018,23.4776889 28.7508081,23.481575 28.7508081,23.2211876 L28.7508081,20.62897 L29.8420353,20.62897 C30.6507816,20.62897 31.3124831,19.9643983 31.3124831,19.1521446 L31.3124831,14.4768253 C31.3163528,13.6645716 30.6546512,13 29.8420353,13 Z M29.9738431,102 L17.0261569,102 C16.4828974,102 16,102.454545 16,103.030303 L16,106.575758 C16,107.121212 16.4527163,107.606061 17.0261569,107.606061 L29.9738431,107.606061 C30.5171026,107.606061 31,107.151515 31,106.575758 L31,103.030303 C31,102.454545 30.5472837,102 29.9738431,102 Z M29.5211268,105.757576 C29.5211268,105.939394 29.3702213,106.090909 29.1891348,106.090909 L17.8410463,106.090909 C17.6599598,106.090909 17.5090543,105.939394 17.5090543,105.757576 L17.5090543,103.818182 C17.5090543,103.636364 17.6599598,103.484848 17.8410463,103.484848 L29.1891348,103.484848 C29.3702213,103.484848 29.5211268,103.636364 29.5211268,103.818182 L29.5211268,105.757576 Z M29.9738431,109.393939 L17.0261569,109.393939 C16.4828974,109.393939 16,109.848485 16,110.424242 L16,113.969697 C16,114.515152 16.4527163,115 17.0261569,115 L29.9738431,115 C30.5171026,115 31,114.545455 31,113.969697 L31,110.424242 C31,109.848485 30.5472837,109.393939 29.9738431,109.393939 Z M29.5211268,113.151515 C29.5211268,113.333333 29.3702213,113.484848 29.1891348,113.484848 L17.8410463,113.484848 C17.6599598,113.484848 17.5090543,113.333333 17.5090543,113.151515 L17.5090543,111.212121 C17.5090543,111.030303 17.6599598,110.878788 17.8410463,110.878788 L29.1891348,110.878788 C29.3702213,110.878788 29.5211268,111.030303 29.5211268,111.212121 L29.5211268,113.151515 Z M28.6560923,231.174294 L19.1247731,231.174294 C18.9364071,231.174294 18.7857143,231.03954 18.7857143,230.871097 L18.7857143,229.624625 C18.7857143,229.456182 18.9364071,229.321429 19.1247731,229.321429 L28.6560923,229.321429 C28.8444583,229.321429 28.9951511,229.456182 28.9951511,229.624625 L28.9951511,230.871097 C29.0328243,231.03954 28.8444583,231.174294 28.6560923,231.174294 Z M28.6560923,234.888579 L19.1247731,234.888579 C18.9364071,234.888579 18.7857143,234.753825 18.7857143,234.585383 L18.7857143,233.33891 C18.7857143,233.170468 18.9364071,233.035714 19.1247731,233.035714 L28.6560923,233.035714 C28.8444583,233.035714 28.9951511,233.170468 28.9951511,233.33891 L28.9951511,234.585383 C29.0328243,234.753825 28.8444583,234.888579 28.6560923,234.888579 Z M29.3006031,227 L17.6459039,227 C16.7481381,227 16,227.673769 16,228.482292 L16,236.062194 C16,236.870717 16.7481381,237.544486 17.6459039,237.544486 L25.2020988,237.544486 C25.3143196,237.544486 25.3891334,237.578174 25.4639472,237.645551 L27.7831754,239.902678 C28.0076168,240.104809 28.3816858,239.970055 28.3816858,239.700547 L28.3816858,237.847682 C28.3816858,237.67924 28.5313135,237.544486 28.718348,237.544486 L29.33801,237.544486 C30.2357758,237.544486 30.9839139,236.870717 30.9839139,236.062194 L30.9839139,228.482292 C30.946507,227.673769 30.1983689,227 29.3006031,227 Z M25.3902834,194.161404 C25.3902834,192.761404 24.5797571,192 23.1551957,192 C21.7551957,192 20.9446694,192.761404 20.9446694,194.161404 C20.9446694,195.561404 21.7551957,196.37193 23.1551957,196.37193 C24.5797571,196.37193 25.3902834,195.561404 25.3902834,194.161404 Z M27,209.519838 L27,207.579487 L25.7473684,207.407557 C25.3789474,207.358435 25.354386,207.309312 25.354386,206.916329 L25.354386,198.612686 L20.2701754,198.612686 L20,200.602159 L21.3263158,201.068826 C21.5719298,201.14251 21.645614,201.31444 21.645614,201.584615 L21.645614,206.916329 C21.645614,207.28475 21.5964912,207.358435 21.2526316,207.407557 L20,207.579487 L20,209.519838 L27,209.519838 Z M30.1532576,71 L16.8148491,71 C15.7886115,71.0333777 14.9810101,71.838243 15.0017311,72.8069756 L15.0017311,81.1930244 C14.9586026,82.1387298 15.726519,82.9426241 16.7278364,83 L30.1865064,83 C31.2124632,82.9666242 32.0199533,82.1621669 31.9996244,81.1936919 L31.9996244,72.8410191 C32.0072647,71.8593224 31.1924752,71.0468928 30.1532576,71 Z M28.5459989,72.668799 L23.4525732,76.5210547 L18.3591475,72.668799 L28.5509508,72.668799 L28.5459989,72.668799 Z M30.3244533,80.7824999 C30.3301832,80.9237707 30.2753289,81.0612582 30.1722876,81.1638893 C30.0692464,81.2665203 29.9267163,81.3256315 29.7769101,81.3278634 L17.2011006,81.3278634 C17.0547767,81.3222059 16.9170306,81.2611911 16.818938,81.158584 C16.7208454,81.0559769 16.6706701,80.9204217 16.6797319,80.7824999 L16.6797319,78.488235 L16.6797319,73.7274851 C16.7388691,73.8033405 16.8077828,73.871955 16.8848837,73.9317461 L22.9043225,78.4655393 C23.0264369,78.5701271 23.18378,78.6306493 23.3485824,78.6364243 L23.622354,78.6364243 C23.7832916,78.6147848 23.9361097,78.5560966 24.0673214,78.4655393 L30.0860527,73.9317461 C30.1836729,73.8557087 30.2644447,73.7622533 30.3237459,73.656728 L30.3237459,80.7818323 L30.3244533,80.7824999 Z M27.8434803,49.0158145 C27.3736488,48.5163015 26.7871075,48.5163015 26.3202685,49.0158145 C25.9641542,49.396089 25.6978166,49.5185509 25.3476873,49.9052709 C25.2519255,50.0116183 25.1711264,50.0341776 25.0544167,49.9632782 C24.8239898,49.8279268 24.5786,49.7183561 24.3571508,49.5701134 C23.3247184,48.8707942 22.4598692,47.9716707 21.6937745,46.9597532 C21.3137197,46.4570169 20.9755607,45.9188317 20.7391487,45.3129704 C20.6912677,45.1905085 20.7002454,45.1099419 20.7930147,45.0100393 C21.1491291,44.6394329 21.2688314,44.5040806 21.6189606,44.1238062 C22.1067475,43.595289 22.1067475,42.9765364 21.615968,42.4447969 C21.3376602,42.1418658 21.0685694,41.7233061 20.8417036,41.3946903 C20.6148678,41.0660753 20.4369003,40.6755521 20.1466223,40.3693986 C19.6767907,39.8763312 19.0902495,39.8763312 18.6234105,40.3726219 C18.2643036,40.7528963 17.9201595,41.1428387 17.5550674,41.5166684 C17.2169084,41.861494 17.0463326,42.2836629 17.010422,42.7767312 C16.9535634,43.5791754 17.1361094,44.3365018 17.3934693,45.0744931 C17.9201595,46.6020373 18.7221649,47.9587794 19.694746,49.2027294 C21.0084789,50.884961 22.576579,52.2159232 24.4110168,53.1762773 C25.2369627,53.6081151 26.0928342,53.9400494 27.0235195,53.9948351 C27.6639268,54.0335072 28.2205426,53.8594828 28.6664337,53.3212976 C28.9716745,52.9539136 29.3158186,52.6187561 29.6390148,52.2674857 C30.117824,51.7454134 30.1208166,51.1137703 29.645,50.5981436 C29.076414,49.9826142 28.4150588,49.6281215 27.8434803,49.0158145 Z M27.4806475,45.9930514 L27.6072147,45.9709483 C27.8834265,45.9227375 28.0590078,45.6399607 27.9816835,45.3646097 C27.7613488,44.5799852 27.3506201,43.8694179 26.7796089,43.2832524 C26.1698212,42.6598098 25.4261741,42.2275748 24.6058317,42.0149662 C24.3335663,41.9443885 24.0615582,42.1310065 24.0225527,42.4153622 L24.0045943,42.5464592 C23.9710509,42.7910526 24.1244414,43.0193035 24.3583021,43.0812267 C24.9865344,43.2475836 25.5568306,43.5796828 26.0246663,44.0580237 C26.4637341,44.5069229 26.7788368,45.0533269 26.9496998,45.6558358 C27.0160432,45.8898757 27.2457288,46.0340702 27.4806475,45.9930514 Z M28.7883596,41.3212883 C27.6310085,40.1337814 26.1964599,39.3414615 24.6109315,39.010209 C24.3319289,38.9519229 24.0632462,39.1496561 24.023711,39.4390155 L24.0048461,39.577135 C23.9685002,39.8433101 24.1402706,40.0918884 24.3968279,40.1461298 C25.7616634,40.4348099 26.9973327,41.1194802 27.9940459,42.1393858 C28.9334122,43.1032279 29.5838166,44.2943471 29.8892965,45.6066689 C29.9502541,45.8684906 30.1970329,46.0379758 30.4556361,45.9926872 L30.5876908,45.969564 C30.871327,45.9198609 31.052966,45.6340828 30.9861413,45.3469151 C30.6314683,43.823154 29.8779233,42.4419896 28.7883596,41.3212883 Z M28.8323256,143.703371 C28.8323256,143.986517 28.6002164,144.206742 28.3017902,144.206742 L18.3874094,144.206742 C18.0889832,144.206742 17.856874,143.986517 17.856874,143.703371 L17.856874,134.296629 C17.856874,134.013483 18.0889832,133.793258 18.3874094,133.793258 L25.218053,133.793258 L27.1080855,132 L17.7573986,132 C16.7958031,132 16,132.755056 16,133.667416 L16,144.332584 C16,145.244944 16.7958031,146 17.7573986,146 L28.9981179,146 C29.9597134,146 30.7555165,145.244944 30.7555165,144.332584 L30.7555165,140.211236 L28.8654841,142.004494 L28.8654841,143.703371 L28.8323256,143.703371 Z M31.8165874,134.296629 L30.9544673,133.478652 C30.7223581,133.258427 30.357615,133.258427 30.1586642,133.478652 L24.1569822,139.141573 L21.4711466,136.593258 C21.2390373,136.373034 20.8742942,136.373034 20.6753434,136.593258 L19.8132234,137.411236 C19.5811141,137.631461 19.5811141,137.977528 19.8132234,138.166292 L23.7922391,141.941573 C23.9248729,142.067416 24.1238237,142.130337 24.3227745,142.098876 C24.4222499,142.067416 24.5217253,142.035955 24.6212007,141.941573 L31.8829043,135.051685 C32.0486966,134.862921 32.0486966,134.516854 31.8165874,134.296629 Z"/>
    <rect width="1" height="1" x="8" fill="#FFFFFF"/>
    <rect width="1" height="1" x="38" fill="#FFFFFF"/>
    <path fill="#FFFFFF" fill-rule="nonzero" d="M23.6347368,921 L13.9677302,921 C13.4323901,921 13,921.43239 13,921.96773 L13,932.623057 C13,933.158397 13.4323901,933.590787 13.9677302,933.590787 L23.6347368,933.590787 C24.1700769,933.590787 24.602467,933.158397 24.602467,932.623057 L24.602467,921.96773 C24.602467,921.43239 24.1700769,921 23.6347368,921 Z M18.887088,931.871604 C16.3043576,931.871604 14.2135759,929.780822 14.2135759,927.198092 C14.2135759,924.615362 16.3043576,922.52458 18.887088,922.52458 C21.4698183,922.52458 23.5606,924.615362 23.5606,927.198092 C23.5606,929.780822 21.4698183,931.871604 18.887088,931.871604 Z M19.5682111,927.207886 C19.9285362,926.940216 20.1756162,926.446056 20.1756162,925.890126 C20.1756162,925.035641 19.6093911,924.345876 18.899036,924.345876 C18.1989759,924.345876 17.6224558,925.035641 17.6224558,925.890126 C17.6224558,926.446056 17.8695358,926.929921 18.2298609,927.207886 C17.0356407,927.341721 16.1502705,927.887356 16.1502705,929.431606 C16.1502705,929.709571 18.878446,929.668391 18.878446,929.668391 C18.878446,929.668391 21.6375065,929.688981 21.6375065,929.431606 C21.6375065,927.887356 20.7624313,927.331426 19.5682111,927.207886 Z M28.0592956,924.599564 L33.0960904,924.599564 C33.6341116,924.599564 34.0691075,924.164568 34.0691075,923.626546 C34.0691075,923.088525 33.6341116,922.653529 33.0960904,922.653529 L28.0592956,922.653529 C27.5212743,922.653529 27.0862784,923.088525 27.0862784,923.626546 C27.0862784,924.164568 27.5212743,924.599564 28.0592956,924.599564 Z M33.0960904,925.858762 L28.0592956,925.858762 C27.5212743,925.858762 27.0862784,926.293758 27.0862784,926.83178 C27.0862784,927.369801 27.5212743,927.804797 28.0592956,927.804797 L33.0960904,927.804797 C33.6341116,927.804797 34.0691075,927.369801 34.0691075,926.83178 C34.0691075,926.293758 33.6341116,925.858762 33.0960904,925.858762 Z M31.8764846,928.949523 L27.8618356,928.949523 C27.4329981,928.949523 27.0862784,929.384519 27.0862784,929.92254 C27.0862784,930.460561 27.4329981,930.895557 27.8618356,930.895557 L31.8764846,930.895557 C32.3053221,930.895557 32.6520418,930.460561 32.6520418,929.92254 C32.6520418,929.384519 32.3053221,928.949523 31.8764846,928.949523 Z"/>
    <g fill="#A8ADB4" opacity=".8" transform="translate(17 951)">
      <rect width="8.011" height="1" x=".989" y="3"/>
      <polygon points="12.556 3.5 9.016 6.5 9.016 .5"/>
    </g>
    <path fill="#FFFFFF" fill-rule="nonzero" d="M20.201537,1099.68245 L18.4240931,1099.67293 L18.4240931,1096.54854 L20.3757589,1096.54854 L20.3757589,1093.95917 L17.737678,1093.95917 C16.6904427,1093.95917 15.8336138,1094.81595 15.8336138,1095.86312 L15.8336138,1099.65865 L14,1099.64818 L17.1007685,1102.77542 L20.201537,1099.68245 Z M29.894935,1100.81626 L26.7889181,1103.86153 L28.7031688,1103.8662 L28.7031688,1107.08995 L26.6242411,1107.08995 L26.6242411,1109.63251 L29.3894814,1109.63251 C30.4365604,1109.63251 31.2932613,1108.79153 31.2932613,1107.76367 L31.2932613,1103.87181 L33,1103.87555 L29.894935,1100.81626 Z M21.1285074,1107.09129 L18.2335331,1107.09129 L18.2335331,1105.14505 L15.8216454,1105.14505 L15.8216454,1107.74184 C15.8216454,1108.73435 16.6194032,1109.54641 17.5944405,1109.54641 L21.1152114,1109.54641 L21.1072338,1111 L24.0190497,1108.06125 L21.1391442,1105.1225 L21.1285074,1107.09129 Z M28.8947864,1098.85709 L31.3056313,1098.85709 L31.3056313,1095.99818 C31.3056313,1094.87423 30.5082184,1093.95464 29.5336027,1093.95464 L26.0054938,1093.95464 L26.0090378,1092 L23.108227,1095.33403 L25.9957477,1098.66806 L25.9992917,1096.73385 L28.8947864,1096.73385 L28.8947864,1098.85709 Z"/>
    <path fill="#828B95" d="M28.3844865,874.837651 L25.7498098,872.204487 C25.4568844,871.926657 24.9959731,871.932669 24.7103932,872.218044 C24.4248132,872.503419 24.4184709,872.964325 24.6960904,873.25745 L25.2346749,873.796035 L21.0092072,876.947359 L20.4796999,876.417852 C20.1867745,876.140022 19.7258633,876.146033 19.4402833,876.431408 C19.1547034,876.716783 19.1483611,877.17769 19.4259805,877.470815 L21.0394647,879.083543 L18.0636341,882.265125 C18.0111787,882.311479 17.9887577,882.383101 18.0054175,882.451092 C18.0220772,882.519082 18.0750693,882.572225 18.1430125,882.589079 C18.2109556,882.605932 18.2826407,882.583715 18.3291441,882.531391 L21.5008924,879.546483 L23.1121073,881.155429 C23.4058439,881.427703 23.8622764,881.419053 24.1454852,881.135844 C24.4286941,880.852635 24.4373446,880.396203 24.1650703,880.102466 L23.635563,879.572959 L26.7868875,875.348247 L27.3292542,875.890614 C27.6200219,876.182008 28.0919575,876.182516 28.3833518,875.891749 C28.6747462,875.600981 28.6752542,875.129046 28.3844865,874.837651 Z"/>
    <path fill="#468EE5" fill-rule="nonzero" d="M26.8434803,824.015815 C27.4150588,824.628122 28.076414,824.982614 28.645,825.598144 C29.1208166,826.11377 29.117824,826.745413 28.6390148,827.267486 C28.3158186,827.618756 27.9716745,827.953914 27.6664337,828.321298 C27.2205426,828.859483 26.6639268,829.033507 26.0235195,828.994835 C25.0928342,828.940049 24.2369627,828.608115 23.4110168,828.176277 C21.576579,827.215923 20.0084789,825.884961 18.694746,824.202729 C17.7221649,822.958779 16.9201595,821.602037 16.3934693,820.074493 C16.1361094,819.336502 15.9535634,818.579175 16.010422,817.776731 C16.0463326,817.283663 16.2169084,816.861494 16.5550674,816.516668 C16.9201595,816.142839 17.2643036,815.752896 17.6234105,815.372622 C18.0902495,814.876331 18.6767907,814.876331 19.1466223,815.369399 C19.4369003,815.675552 19.6148678,816.066075 19.8417036,816.39469 C20.0685694,816.723306 20.3376602,817.141866 20.615968,817.444797 C21.1067475,817.976536 21.1067475,818.595289 20.6189606,819.123806 C20.2688314,819.504081 20.1491291,819.639433 19.7930147,820.010039 C19.7002454,820.109942 19.6912677,820.190508 19.7391487,820.31297 C19.9755607,820.918832 20.3137197,821.457017 20.6937745,821.959753 C21.4598692,822.971671 22.3247184,823.870794 23.3571508,824.570113 C23.5786,824.718356 23.8239898,824.827927 24.0544167,824.963278 C24.1711264,825.034178 24.2519255,825.011618 24.3476873,824.905271 C24.6978166,824.518551 24.9641542,824.396089 25.3202685,824.015815 C25.7871075,823.516301 26.3736488,823.516301 26.8434803,824.015815 Z M26.4806475,820.993051 C26.2457288,821.03407 26.0160432,820.889876 25.9496998,820.655836 C25.7788368,820.053327 25.4637341,819.506923 25.0246663,819.058024 C24.5568306,818.579683 23.9865344,818.247584 23.3583021,818.081227 C23.1244414,818.019303 22.9710509,817.791053 23.0045943,817.546459 L23.0225528,817.415362 C23.0615582,817.131006 23.3335663,816.944388 23.6058317,817.014966 C24.4261741,817.227575 25.1698212,817.65981 25.7796089,818.283252 C26.3506201,818.869418 26.7613488,819.579985 26.9816835,820.36461 C27.0590078,820.639961 26.8834265,820.922737 26.6072147,820.970948 L26.4806475,820.993051 Z M27.7883596,816.321288 C28.8779233,817.44199 29.6314683,818.823154 29.9861413,820.346915 C30.052966,820.634083 29.871327,820.919861 29.5876908,820.969564 L29.4556361,820.992687 C29.1970329,821.037976 28.9502541,820.868491 28.8892965,820.606669 C28.5838166,819.294347 27.9334122,818.103228 26.9940459,817.139386 C25.9973327,816.11948 24.7616634,815.43481 23.3968279,815.14613 C23.1402706,815.091888 22.9685002,814.84331 23.0048461,814.577135 L23.023711,814.439016 C23.0632462,814.149656 23.3319289,813.951923 23.6109315,814.010209 C25.1964599,814.341461 26.6310085,815.133781 27.7883596,816.321288 Z"/>
  </g>
</svg>
