<svg xmlns="http://www.w3.org/2000/svg" width="12" height="15" viewBox="0 0 12 15">
  <path fill="#525C69" d="M3.5,6.14188452 C3.74945607,6.30188404 3.91475723,6.58163794 3.91475723,6.9 C3.91475723,7.39705627 3.5118135,7.8 3.01475723,7.8 C2.51770095,7.8 2.11475723,7.39705627 2.11475723,6.9 C2.11475723,6.59436755 2.26710363,6.32431751 2.5,6.16164631 L2.5,5 L1,5 L1,13 C1,13.5522847 1.44771525,14 2,14 L10,14 C10.5522847,14 11,13.5522847 11,13 L11,5 L9.5,5 L9.5,6.14188452 C9.74945607,6.30188404 9.91475723,6.58163794 9.91475723,6.9 C9.91475723,7.39705627 9.5118135,7.8 9.01475723,7.8 C8.51770095,7.8 8.11475723,7.39705627 8.11475723,6.9 C8.11475723,6.59436755 8.26710363,6.32431751 8.5,6.16164631 L8.5,5 L3.5,5 L3.5,6.14188452 L3.5,6.14188452 Z M2.5,4 C2.5,2.06700338 4.06700338,0.5 6,0.5 C7.93299662,0.5 9.5,2.06700338 9.5,4 L12,4 L12,13 C12,14.1045695 11.1045695,15 10,15 L2,15 C0.8954305,15 0,14.1045695 0,13 L0,4 L2.5,4 L2.5,4 Z M3.5,4 L8.5,4 C8.5,2.61928813 7.38071187,1.5 6,1.5 C4.61928813,1.5 3.5,2.61928813 3.5,4 L3.5,4 Z" opacity=".7"/>
</svg>
