<svg xmlns="http://www.w3.org/2000/svg" width="9" height="13" viewBox="0 0 9 13">
  <path fill="#16B9EB" fill-rule="evenodd" d="M5.01239287,10.1799674 L3.98278772,10.1799674 L3.98278772,8.89734992 C3.7974873,8.74836266 3.67886335,8.520731 3.67886335,8.26552192 C3.67886335,7.81664196 4.04544143,7.45275834 4.49760613,7.45275834 C4.94973915,7.45275834 5.31631723,7.81664196 5.31631723,8.26552192 C5.31631723,8.520731 5.19772496,8.74836266 5.01239287,8.89734992 L5.01239287,10.1799674 Z M2.25607289,3.44717692 C2.25607289,2.21820494 3.25964095,1.22192728 4.49757445,1.22192728 C5.73553963,1.22192728 6.7391077,2.21820494 6.7391077,3.44717692 L6.7391077,5.05671995 L2.25607289,5.05671995 L2.25607289,3.44717692 Z M7.92370002,5.05671995 L7.92370002,3.44717692 C7.92370002,1.56870473 6.38976098,0.0459404277 4.49757445,0.0459404277 C2.60541961,0.0459404277 1.07148056,1.56870473 1.07148056,3.44717692 L1.07148056,5.05671995 L0.0313592177,5.05671995 L0.0313592177,12.0090392 L8.96382137,12.0090392 L8.96382137,5.05671995 L7.92370002,5.05671995 Z"/>
</svg>
