<?xml version="1.0" encoding="UTF-8"?>
<svg width="251px" height="31px" viewBox="0 0 251 31" version="1.1" xmlns="http://www.w3.org/2000/svg" xmlns:xlink="http://www.w3.org/1999/xlink">
    <!-- Generator: Sketch 45 (43475) - http://www.bohemiancoding.com/sketch -->
    <defs>
        <path d="M0,14.5 C0,6.49187113 6.50033889,0 14.5091951,0 L234.490805,0 C242.504012,0 249,6.49011036 249,14.5 C249,22.5081289 242.499661,29 234.490805,29 L14.5091951,29 C6.49598793,29 0,22.5098896 0,14.5 Z M36,11 L36,20 L38,20 L38,11 L36,11 Z M45,11 L45,20 L47,20 L47,11 L45,11 Z M48,13 L48,18 L50,18 L50,13 L48,13 Z M57,13 L57,18 L59,18 L59,13 L57,13 Z M54,14 L54,17 L56,17 L56,14 L54,14 Z M51,12 L51,19 L53,19 L53,12 L51,12 Z M42,10 L42,21 L44,21 L44,10 L42,10 Z M63,11 L63,20 L65,20 L65,11 L63,11 Z M60,10 L60,21 L62,21 L62,10 L60,10 Z M39,7 L39,23.3770905 L41,23.3770905 L41,7 L39,7 Z M66,11 L66,20 L68,20 L68,11 L66,11 Z M75,11 L75,20 L77,20 L77,11 L75,11 Z M78,13 L78,18 L80,18 L80,13 L78,13 Z M87,13 L87,18 L89,18 L89,13 L87,13 Z M84,14 L84,17 L86,17 L86,14 L84,14 Z M81,12 L81,19 L83,19 L83,12 L81,12 Z M72,10 L72,21 L74,21 L74,10 L72,10 Z M93,11 L93,20 L95,20 L95,11 L93,11 Z M90,10 L90,21 L92,21 L92,10 L90,10 Z M69,7 L69,23.3770905 L71,23.3770905 L71,7 L69,7 Z M96,11 L96,20 L98,20 L98,11 L96,11 Z M105,11 L105,20 L107,20 L107,11 L105,11 Z M108,13 L108,18 L110,18 L110,13 L108,13 Z M117,13 L117,18 L119,18 L119,13 L117,13 Z M114,14 L114,17 L116,17 L116,14 L114,14 Z M111,12 L111,19 L113,19 L113,12 L111,12 Z M102,10 L102,21 L104,21 L104,10 L102,10 Z M123,11 L123,20 L125,20 L125,11 L123,11 Z M120,10 L120,21 L122,21 L122,10 L120,10 Z M99,7 L99,23.3770905 L101,23.3770905 L101,7 L99,7 Z M126,11 L126,20 L128,20 L128,11 L126,11 Z M135,11 L135,20 L137,20 L137,11 L135,11 Z M138,13 L138,18 L140,18 L140,13 L138,13 Z M141,12 L141,19 L143,19 L143,12 L141,12 Z M132,10 L132,21 L134,21 L134,10 L132,10 Z M153,11 L153,20 L155,20 L155,11 L153,11 Z M150,10 L150,21 L152,21 L152,10 L150,10 Z M129,7 L129,23.3770905 L131,23.3770905 L131,7 L129,7 Z M144,11 L144,20 L146,20 L146,11 L144,11 Z M156,13 L156,18 L158,18 L158,13 L156,13 Z M165,13 L165,18 L167,18 L167,13 L165,13 Z M162,14 L162,17 L164,17 L164,14 L162,14 Z M159,12 L159,19 L161,19 L161,12 L159,12 Z M171,11 L171,20 L173,20 L173,11 L171,11 Z M168,10 L168,21 L170,21 L170,10 L168,10 Z M147,7 L147,23.3770905 L149,23.3770905 L149,7 L147,7 Z M174,11 L174,20 L176,20 L176,11 L174,11 Z M183,11 L183,20 L185,20 L185,11 L183,11 Z M186,13 L186,18 L188,18 L188,13 L186,13 Z M195,13 L195,18 L197,18 L197,13 L195,13 Z M192,14 L192,17 L194,17 L194,14 L192,14 Z M189,12 L189,19 L191,19 L191,12 L189,12 Z M180,10 L180,21 L182,21 L182,10 L180,10 Z M201,11 L201,20 L203,20 L203,11 L201,11 Z M198,10 L198,21 L200,21 L200,10 L198,10 Z M177,7 L177,23.3770905 L179,23.3770905 L179,7 L177,7 Z" id="path-1"></path>
    </defs>
    <g id="Page-1" stroke="none" stroke-width="1" fill="none" fill-rule="evenodd">
        <g id="player" transform="translate(1.000000, 1.000000)">
            <mask id="mask-2" fill="white">
                <use xlink:href="#path-1"></use>
            </mask>
            <use id="Combined-Shape" fill="#FFFFFF" xlink:href="#path-1"></use>
            <path d="M0,14.5 C0,6.49187113 6.50033889,0 14.5091951,0 L234.490805,0 C242.504012,0 249,6.49011036 249,14.5 L249,14.5 C249,22.5081289 242.499661,29 234.490805,29 L14.5091951,29 C6.49598793,29 0,22.5098896 0,14.5 L0,14.5 Z" id="a" stroke="#DBE1E6" stroke-width="1"></path>
            <path d="M15.0591304,25.1182613 C9.50392934,25.1182612 5.00042892,20.6151083 5,15.0599073 C4.99957108,9.50470621 9.50237606,5.00085799 15.0575771,5 C20.6127781,4.99914201 25.1169741,9.50159912 25.1182611,15.0568 C25.1133783,20.6102807 20.6126111,25.1110479 15.0591304,25.1159308 L15.0591304,25.1182613 Z" id="Shape" stroke="#468EE5" opacity="0.5"></path>
            <path d="M18.4670959,14.4021431 L13.5885159,11.0668004 C13.4734892,10.9870562 13.3236199,10.9780272 13.1998514,11.0433851 C13.0760829,11.108743 12.9990279,11.2376027 13.0000204,11.3775646 L13.0000204,18.0479291 C12.9985622,18.1880932 13.0755477,18.3173224 13.1994987,18.3827766 C13.3234496,18.4482308 13.4735848,18.4389362 13.5885159,18.3586933 L18.4670959,15.0233506 C18.5702438,14.9536285 18.6320505,14.8372485 18.6320505,14.7127469 C18.6320505,14.5882452 18.5702438,14.4718653 18.4670959,14.4021431 L18.4670959,14.4021431 Z" id="Shape" fill="#468EE5" fill-rule="nonzero"></path>
        </g>
    </g>
</svg>