<svg xmlns="http://www.w3.org/2000/svg" width="120" height="120" viewBox="0 0 120 120" fill="none">
	<path fill-rule="evenodd" clip-rule="evenodd" d="M69.8605 72.8842C69.8605 79.4499 64.7067 84.8595 58.1488 85.1775L17.519 87.1474C10.4958 87.4879 4.61523 81.8856 4.61523 74.8542V28.0053C4.61523 20.5264 11.2305 14.7762 18.6365 15.8174L59.2664 21.5299C65.3419 22.3841 69.8605 27.5824 69.8605 33.7177V72.8842Z" fill="#1B79E6" fill-opacity="0.78"/>
	<path fill-rule="evenodd" clip-rule="evenodd" d="M17.4146 84.9961L58.0445 83.0262C63.4548 82.7639 67.7066 78.3009 67.7066 72.8842V33.7177C67.7066 28.6561 63.9788 24.3675 58.9665 23.6627L18.3366 17.9503C12.2267 17.0913 6.76908 21.8352 6.76908 28.0053V74.8542C6.76908 80.6551 11.6206 85.277 17.4146 84.9961ZM58.1488 85.1775C64.7068 84.8595 69.8605 79.4499 69.8605 72.8842V33.7177C69.8605 27.5824 65.3419 22.3841 59.2664 21.5299L18.6365 15.8174C11.2305 14.7762 4.61523 20.5264 4.61523 28.0053V74.8542C4.61523 81.8855 10.4958 87.4879 17.519 87.1474L58.1488 85.1775Z" fill="white" fill-opacity="0.16"/>
	<path fill-rule="evenodd" clip-rule="evenodd" d="M114.078 87.7793C114.078 94.0714 109.332 99.3503 103.075 100.018L73.59 103.162C66.3174 103.938 59.9771 98.2378 59.9771 90.9239V54.5175C59.9771 47.3215 66.1239 41.6604 73.2956 42.2514L102.781 44.6813C109.165 45.2074 114.078 50.542 114.078 56.9474V87.7793Z" fill="#25427A" fill-opacity="0.8"/>
	<path fill-rule="evenodd" clip-rule="evenodd" d="M73.4268 101.632L102.912 98.4878C108.387 97.9039 112.539 93.2849 112.539 87.7793V56.9474C112.539 51.3427 108.24 46.6749 102.655 46.2146L73.1692 43.7847C66.894 43.2675 61.5155 48.221 61.5155 54.5175V90.9239C61.5155 97.3235 67.0633 102.311 73.4268 101.632ZM103.075 100.018C109.332 99.3503 114.078 94.0714 114.078 87.7793V56.9474C114.078 50.542 109.165 45.2074 102.781 44.6813L73.2956 42.2514C66.1239 41.6604 59.9771 47.3215 59.9771 54.5175V90.9239C59.9771 98.2378 66.3174 103.938 73.59 103.162L103.075 100.018Z" fill="#1587FA" fill-opacity="0.16"/>
	<g filter="url(#filter0_d_7426_20175)">
		<path fill-rule="evenodd" clip-rule="evenodd" d="M34.0789 30.5608C26.4668 36.0416 29.0292 53.9374 39.5433 54.3653C51.3966 54.8471 52.383 30.6131 39.5433 29.1841C37.6603 28.975 35.3119 29.6724 34.0789 30.5608ZM55.708 72.9634C55.7538 73.7392 55.2197 74.3826 54.5649 74.394L23.1842 74.9068C22.4003 74.9199 21.7569 74.2307 21.8108 73.3766C22.5636 61.6132 31.701 58.8646 39.5645 59.0785C47.4281 59.2925 55.0842 62.2419 55.708 72.9634Z" fill="white" fill-opacity="0.9" shape-rendering="crispEdges"/>
	</g>
	<g filter="url(#filter1_d_7426_20175)">
		<path fill-rule="evenodd" clip-rule="evenodd" d="M81.3304 63.378C81.3304 57.8945 84.7847 53.6344 88.9406 53.8543C92.9733 54.069 96.1545 58.4525 96.1545 63.6517V65.3632C98.3235 65.6422 99.9998 68.0782 99.9998 71.0292V83.697C99.9998 86.8143 98.1253 89.4863 95.7796 89.6688L81.7428 90.758C79.1025 90.9618 76.9229 88.3864 76.9229 85.0008V71.2384C76.9229 68.0352 78.8776 65.4223 81.3304 65.1808V63.3727V63.378ZM93.9213 63.6087V65.315L83.7726 65.1916V63.4209C83.7726 59.6973 86.1076 56.7785 88.9406 56.8966C91.7737 57.0146 93.9213 60.0139 93.9213 63.6034V63.6087ZM86.4075 76.341C86.4075 74.5221 87.5428 73.0251 88.9353 73.0037C90.3277 72.9822 91.4149 74.4148 91.4149 76.2015C91.4149 77.5267 90.8097 78.6857 89.9368 79.2222V82.5327C89.9368 83.2517 89.4922 83.858 88.9406 83.8902C88.389 83.9224 87.9338 83.359 87.9338 82.6346V79.3081C87.0394 78.8359 86.4075 77.6984 86.4075 76.341Z" fill="white" fill-opacity="0.9" shape-rendering="crispEdges"/>
	</g>
	<defs>
		<filter id="filter0_d_7426_20175" x="11.8076" y="23.1467" width="53.9033" height="65.7603" filterUnits="userSpaceOnUse" color-interpolation-filters="sRGB">
			<feFlood flood-opacity="0" result="BackgroundImageFix"/>
			<feColorMatrix in="SourceAlpha" type="matrix" values="0 0 0 0 0 0 0 0 0 0 0 0 0 0 0 0 0 0 127 0" result="hardAlpha"/>
			<feOffset dy="4"/>
			<feGaussianBlur stdDeviation="5"/>
			<feComposite in2="hardAlpha" operator="out"/>
			<feColorMatrix type="matrix" values="0 0 0 0 0 0 0 0 0 0 0 0 0 0 0 0 0 0 0.05 0"/>
			<feBlend mode="normal" in2="BackgroundImageFix" result="effect1_dropShadow_7426_20175"/>
			<feBlend mode="normal" in="SourceGraphic" in2="effect1_dropShadow_7426_20175" result="shape"/>
		</filter>
		<filter id="filter1_d_7426_20175" x="66.9229" y="47.8462" width="43.0771" height="56.9231" filterUnits="userSpaceOnUse" color-interpolation-filters="sRGB">
			<feFlood flood-opacity="0" result="BackgroundImageFix"/>
			<feColorMatrix in="SourceAlpha" type="matrix" values="0 0 0 0 0 0 0 0 0 0 0 0 0 0 0 0 0 0 127 0" result="hardAlpha"/>
			<feOffset dy="4"/>
			<feGaussianBlur stdDeviation="5"/>
			<feComposite in2="hardAlpha" operator="out"/>
			<feColorMatrix type="matrix" values="0 0 0 0 0 0 0 0 0 0 0 0 0 0 0 0 0 0 0.05 0"/>
			<feBlend mode="normal" in2="BackgroundImageFix" result="effect1_dropShadow_7426_20175"/>
			<feBlend mode="normal" in="SourceGraphic" in2="effect1_dropShadow_7426_20175" result="shape"/>
		</filter>
	</defs>
</svg>