<svg width="56" height="56" viewBox="0 0 56 56" fill="none" xmlns="http://www.w3.org/2000/svg">
<path d="M42.2893 41.7579C43.3251 41.3992 43.9016 40.315 43.6826 39.241L43.0297 36.0388C43.0297 34.6295 41.0807 33.0197 37.2426 32.0816C35.9423 31.7388 34.7062 31.2072 33.5785 30.5058C33.3319 30.3726 33.3694 29.1418 33.3694 29.1418L32.1333 28.964C32.1333 28.8641 32.0276 27.3882 32.0276 27.3882C33.5066 26.9184 33.3544 24.1473 33.3544 24.1473C34.2937 24.6398 34.9053 22.4468 34.9053 22.4468C36.0163 19.4001 34.3521 19.5843 34.3521 19.5843C34.6433 17.7244 34.6433 15.8341 34.3521 13.9741C33.6123 7.80414 22.473 9.47912 23.7938 11.4942C20.5382 10.9274 21.2811 17.9292 21.2811 17.9292L21.9872 19.7423C21.0085 20.3424 21.2007 21.0311 21.4154 21.8004C21.5049 22.1211 21.5983 22.4558 21.6124 22.8039C21.6806 24.5512 22.8118 24.1891 22.8118 24.1891C22.8815 27.0729 24.386 27.4484 24.386 27.4484C24.6686 29.2594 24.4924 28.9512 24.4924 28.9512L23.1536 29.1043C23.1717 29.5161 23.1362 29.9285 23.0479 30.3322C22.2701 30.6599 21.7938 30.9206 21.3223 31.1788C20.8396 31.4431 20.3619 31.7047 19.5705 32.0327C16.548 33.2847 13.2632 34.9129 12.6792 37.1051C12.519 37.7068 12.3618 38.503 12.2181 39.3417C12.041 40.3752 12.6233 41.3893 13.6135 41.7344C17.6463 43.1396 22.1898 43.972 27.0069 44.0716H28.9637C33.7538 43.9725 38.2734 43.149 42.2893 41.7579Z" fill="white"/>
</svg>
