<svg width="22" height="22" viewBox="0 0 22 22" fill="none" xmlns="http://www.w3.org/2000/svg">
	<path fill-rule="evenodd" clip-rule="evenodd" d="M11 21.999C17.0752 21.999 22 17.0744 22 10.9995C22 4.92465 17.0752 0 11 0C4.92486 0 0 4.92465 0 10.9995C0 17.0744 4.92486 21.999 11 21.999Z" fill="#9DCF00"/>
	<path fill-rule="evenodd" clip-rule="evenodd" d="M13.3405 9.58412C13.3405 9.54418 13.3454 9.50438 13.3548 9.46563C13.4189 9.20388 13.6787 9.04472 13.9349 9.11017L16.1674 9.68012C16.3804 9.73449 16.5298 9.92988 16.5298 10.1541V14.658H16.9271C17.148 14.658 17.3271 14.8371 17.3271 15.058V15.8865C17.3271 16.1074 17.148 16.2865 16.9271 16.2865H4.97007C4.74915 16.2865 4.57007 16.1074 4.57007 15.8865V15.058C4.57007 14.8371 4.74915 14.658 4.97007 14.658H5.36739V6.7708C5.36739 6.37153 5.65089 6.03116 6.0368 5.96712L11.618 5.04082C11.6603 5.0338 11.703 5.03027 11.7459 5.03027C12.1862 5.03027 12.5433 5.39482 12.5433 5.8445V14.658H13.3405V9.58412ZM8.80438 14.5778V12.0762H7.37488V14.5778H8.80438ZM10.9839 13.5057V12.0762H9.55438V13.5057H10.9839ZM15.5944 12.0052H14.1649V13.4347H15.5944V12.0052ZM10.9839 7.7168H9.55438V9.1463H10.9839V7.7168ZM8.80431 7.71664H7.37481V9.14614H8.80431V7.71664ZM10.9839 9.89648H9.55438V11.326H10.9839V9.89648ZM8.80438 9.89648H7.37488V11.326H8.80438V9.89648Z" fill="white"/>
</svg>
