<svg width="23" height="23" viewBox="0 0 23 23" fill="none" xmlns="http://www.w3.org/2000/svg">
<path d="M15.9534 18.6539C13.945 19.0993 11.7745 19.3425 9.50982 19.3425C6.8383 19.3425 4.29787 19.0041 2 18.3945C2.22438 17.2916 2.53003 15.8223 2.67179 15.2892C2.91009 14.393 4.2453 13.7271 5.47338 13.2153C5.79442 13.0816 5.98809 12.9748 6.18381 12.8669C6.37551 12.7612 6.56917 12.6545 6.88637 12.5202C6.92217 12.3555 6.93656 12.1872 6.92921 12.0191L7.47338 11.9564C7.47338 11.9564 7.5449 12.0823 7.42987 11.3419C7.42987 11.3419 6.81913 11.1868 6.79078 10.0078C6.79078 10.0078 6.33198 10.156 6.3043 9.44151C6.29867 9.29861 6.26073 9.16131 6.2244 9.02984C6.13739 8.71492 6.05961 8.43344 6.45723 8.1886L6.17015 7.44813C6.17015 7.44813 5.8689 4.58397 7.19191 4.81701C6.65532 3.99416 11.182 3.30945 11.4826 5.83219C11.6009 6.59264 11.6009 7.3655 11.4826 8.12596C11.4826 8.12596 12.159 8.05078 11.7074 9.29618C11.7074 9.29618 11.4589 10.1914 11.0772 9.98935C11.0772 9.98935 11.1392 11.1223 10.538 11.3143C10.538 11.3143 10.5808 11.9176 10.5808 11.9586L11.0835 12.0329C11.0835 12.0329 11.0696 12.5359 11.1685 12.5904C11.6267 12.8771 12.1289 13.0945 12.6573 13.2347C14.218 13.6181 15.009 14.2762 15.009 14.8525C15.009 14.8525 15.6504 17.1521 15.9534 18.6539Z" fill="#ABB1B8"/>
<path d="M21.4707 16.7284C21.1109 16.9097 20.7397 17.0829 20.3578 17.2477H16.7543C16.7269 16.8718 16.3766 15.5699 16.1734 14.8145C16.0928 14.515 16.0353 14.3014 16.0302 14.2654C16.004 13.5539 15.0153 12.9185 13.9145 12.4843C13.9978 12.3749 14.0691 12.2574 14.1274 12.1336C14.2817 11.9474 14.483 11.803 14.7117 11.7144L14.7293 11.1574L13.5208 10.7903C13.5208 10.7903 13.2102 10.6493 13.1793 10.6493C13.2151 10.5636 13.2598 10.4817 13.3129 10.4049C13.336 10.345 13.4823 9.89824 13.4823 9.89824C13.3063 10.118 13.0999 10.3131 12.8689 10.478C13.0804 10.115 13.2596 9.7352 13.4048 9.34276C13.5006 8.96501 13.5648 8.58036 13.5967 8.19257C13.6795 7.48784 13.8087 6.78899 13.9836 6.1003C14.1091 5.75665 14.3303 5.45347 14.6225 5.22441C15.0544 4.93317 15.5584 4.75899 16.0827 4.71983H16.1445C16.6697 4.75866 17.1747 4.93285 17.6074 5.22441C17.9 5.45302 18.1213 5.75607 18.2467 6.0997C18.4214 6.78844 18.5507 7.48728 18.6339 8.19197C18.6711 8.57116 18.7385 8.94698 18.8353 9.31611C18.9805 9.71548 19.1566 10.1036 19.3623 10.4771C19.1309 10.3126 18.924 10.1178 18.7477 9.89824C18.7477 9.89824 18.8615 10.3037 18.8844 10.3636C18.9469 10.4541 19.0026 10.5489 19.051 10.6472C19.021 10.6472 18.7094 10.7882 18.7094 10.7882L17.501 11.1553L17.5183 11.7126C17.7471 11.801 17.9484 11.9454 18.1026 12.1318C18.1757 12.3108 18.2915 12.4704 18.4404 12.5975C18.732 12.6961 19.0131 12.8216 19.2799 12.9724C19.6839 13.1906 20.1272 13.3317 20.5858 13.388C21.0486 13.462 21.3405 14.1882 21.3405 14.1882C21.3405 14.1953 21.3563 14.501 21.3778 14.9167C21.4067 15.4746 21.4458 16.2306 21.4707 16.7284Z" fill="#ABB1B8"/>
</svg>
