<svg width="27" height="18" viewBox="0 0 27 18" fill="none" xmlns="http://www.w3.org/2000/svg">
<path fill-rule="evenodd" clip-rule="evenodd" d="M18.7077 14.7985V5.87703H22V3.59961H13V5.87703H16.2923V14.7985H18.7077Z" fill="#8E52EC"/>
<path fill-rule="evenodd" clip-rule="evenodd" d="M10 0.239746H12V2.47953H10L10 14.7983H12V17.0381H10H8V14.7983V2.47953V0.239746H10Z" fill="#8E52EC"/>
<path fill-rule="evenodd" clip-rule="evenodd" d="M25 0.239746H23V2.47953H25L25 14.7983H23V17.0381H25H27V14.7983V2.47953V0.239746H25Z" fill="#8E52EC"/>
<path d="M6.66802 5.59104L7.35502 5.45677L6.66802 5.59104C6.73704 5.94419 6.80432 6.30733 6.86251 6.65362H2.64727C1.83077 6.65362 1.3 7.3682 1.3 8.07849V9.07753C1.3 9.78783 1.83077 10.5024 2.64727 10.5024H6.77178C6.70708 10.9171 6.63724 11.3387 6.56968 11.7335C6.47139 12.3079 6.74078 12.8259 7.17219 13.085C7.62005 13.3541 8.24538 13.333 8.67409 12.8529L11.7088 9.45429C12.1482 8.96224 12.1482 8.19378 11.7088 7.70173L8.78246 4.42452C8.33945 3.92839 7.69761 3.92894 7.25343 4.20761C6.82572 4.47594 6.55352 5.00517 6.66802 5.59104Z" fill="#8E52EC" stroke="white" stroke-width="1.4"/>
</svg>
