<svg width="36" height="36" viewBox="0 0 36 36" fill="none" xmlns="http://www.w3.org/2000/svg">
<g id="Icon. Copilot AI">
<path id="Union" d="M13.7148 5.02143C13.8918 4.52625 14.5922 4.52664 14.7685 5.02202L17.1293 11.6533C17.1856 11.8114 17.3099 11.936 17.468 11.9924L24.0966 14.3606C24.5918 14.5375 24.5914 15.2379 24.0961 15.4143L17.4648 17.775C17.3066 17.8313 17.1821 17.9557 17.1256 18.1138L14.7575 24.7424C14.5806 25.2376 13.8801 25.2372 13.7038 24.7418L11.3431 18.1105C11.2868 17.9524 11.1624 17.8279 11.0043 17.7714L4.37568 15.4032C3.88051 15.2263 3.8809 14.5259 4.37627 14.3495L11.0075 11.9888C11.1657 11.9325 11.2902 11.8081 11.3467 11.65L13.7148 5.02143Z" fill="#8E52EC"/>
<path id="Union_2" d="M25.7744 19.929C25.8768 19.6425 26.2821 19.6427 26.3841 19.9294L27.7502 23.7667C27.7828 23.8582 27.8547 23.9302 27.9462 23.9629L31.782 25.3333C32.0685 25.4357 32.0683 25.841 31.7816 25.943L27.9444 27.3091C27.8528 27.3417 27.7808 27.4136 27.7481 27.5051L26.3777 31.3409C26.2754 31.6274 25.8701 31.6272 25.768 31.3405L24.4019 27.5032C24.3694 27.4117 24.2974 27.3397 24.2059 27.307L20.3702 25.9366C20.0836 25.8342 20.0838 25.4289 20.3705 25.3269L24.2078 23.9608C24.2993 23.9282 24.3713 23.8563 24.404 23.7648L25.7744 19.929Z" fill="#8E52EC"/>
</g>
</svg>
