<svg width="36" height="36" viewBox="0 0 36 36" fill="none" xmlns="http://www.w3.org/2000/svg">
<g id="Icon. Copilot AI">
<path id="Union" d="M13.7148 5.02143C13.8918 4.52625 14.5922 4.52664 14.7685 5.02202L17.1293 11.6533C17.1856 11.8114 17.3099 11.936 17.468 11.9924L24.0966 14.3606C24.5918 14.5375 24.5914 15.2379 24.0961 15.4143L17.4648 17.775C17.3066 17.8313 17.1821 17.9557 17.1256 18.1138L14.7575 24.7424C14.5806 25.2376 13.8801 25.2372 13.7038 24.7418L11.3431 18.1105C11.2868 17.9524 11.1624 17.8279 11.0043 17.7714L4.37568 15.4032C3.88051 15.2263 3.8809 14.5259 4.37627 14.3495L11.0075 11.9888C11.1657 11.9325 11.2902 11.8081 11.3467 11.65L13.7148 5.02143Z" fill="#8E52EC"/>
<path id="?" d="M23.919 26.5724L23.8908 26.3603C23.7119 25.0082 24.0979 24.1951 25.4068 23.4881C26.7439 22.7634 27.0546 22.4364 27.0546 21.7294V21.7118C27.0546 21.1196 26.5085 20.722 25.7834 20.722C25.0395 20.722 24.5028 21.261 24.5028 21.8973V21.9504H21V21.8973C21 19.5466 22.9209 18 26.0471 18C29.0508 18 31 19.414 31 21.6322V21.6499C31 22.9225 30.3879 23.7974 28.9473 24.5751C27.629 25.2821 27.2712 25.671 27.2712 26.4133V26.5724H23.919ZM25.6704 31C24.5687 31 23.6742 30.2223 23.6742 29.2325C23.6742 28.2515 24.5687 27.4738 25.6704 27.4738C26.7721 27.4738 27.6761 28.2515 27.6761 29.2325C27.6761 30.2223 26.7721 31 25.6704 31Z" fill="#8E52EC"/>
</g>
</svg>
