<svg width="24" height="24" viewBox="0 0 24 24" fill="none" xmlns="http://www.w3.org/2000/svg">
	<path fill-rule="evenodd" clip-rule="evenodd" d="M10.0245 18.201L10.0245 18.201C10.0237 18.206 10.023 18.211 10.023 18.2159C10.023 19.3148 10.9146 20.2064 12.0135 20.2064C13.1124 20.2064 14.004 19.3148 14.004 18.2159C14.004 18.211 14.0033 18.206 14.0026 18.201C14.0018 18.1957 14.001 18.1903 14.001 18.1846H10.026C10.026 18.1903 10.0252 18.1957 10.0245 18.201ZM16.9721 9.70163C16.9721 9.3445 16.9152 8.95667 16.8016 8.56178L8.25268 17.1107H18.5C18.7762 17.1107 19 16.8868 19 16.6107V16.3034C19 16.1292 18.91 15.968 18.7653 15.8712C18.2278 15.5116 16.9539 14.5858 16.9539 13.8879C16.9539 13.5307 16.9569 13.0937 16.9604 12.5726L16.9604 12.5721C16.9656 11.8029 16.9721 10.8507 16.9721 9.70163ZM15.0305 5.94249L16.8653 4.10764C16.9825 3.99048 17.1724 3.99048 17.2896 4.10764L18.0861 4.90417C18.2033 5.02133 18.2033 5.21128 18.0861 5.32843L5.51325 17.9013C5.39609 18.0184 5.20614 18.0184 5.08899 17.9013L4.29246 17.1048C4.1753 16.9876 4.1753 16.7977 4.29246 16.6805L6.95906 14.0139C6.96756 13.9712 6.97202 13.9291 6.97202 13.8879C6.97202 13.5308 6.96889 13.0939 6.96515 12.573L6.96515 12.5726C6.95964 11.8034 6.95281 10.8509 6.95281 9.70163C6.95281 7.96485 8.29835 5.50123 10.9712 5.03317V4.98666C10.9712 4.4438 11.415 4 11.9579 4C12.5008 4 12.9456 4.4438 12.9456 4.98666V5.03115C13.7653 5.17348 14.4604 5.50336 15.0305 5.94249Z" fill="#959CA4"/>
</svg>
