<svg xmlns:xlink="http://www.w3.org/1999/xlink" xmlns="http://www.w3.org/2000/svg" viewBox="0 0 100% 100%"
	 preserveAspectRatio="xMinYMin meet" style="width: 100%; height: 100%" fill="none">

	<svg height="100%">
		<rect width="100%" height="100%" fill="#EEF2F4" />
		<rect x="260" y="72" width="100%" height="275" rx="10" fill="white" />
		<rect x="260" y="364" width="100%" height="482" rx="10" fill="white" />
		<rect opacity="0.3" x="282" y="124.5" width="100%" height="37" rx="3.5" fill="white" stroke="#979797" />
		<rect opacity="0.3" x="282" y="213.5" width="419" height="37" rx="3.5" fill="white" stroke="#979797" />
		<rect opacity="0.3" x="282" y="416.5" width="419" height="37" rx="3.5" fill="white" stroke="#979797" />
		<rect opacity="0.3" x="282" y="597.5" width="419" height="37" rx="3.5" fill="white" stroke="#979797" />
		<rect opacity="0.3" x="282" y="685.5" width="419" height="37" rx="3.5" fill="white" stroke="#979797" />
		<rect x="282" y="271" width="100%" height="1" fill="#ecedee" />
		<rect x="282" y="474" width="100%" height="1" fill="#ecedee" />
		<rect width="1" height="37" fill="#e0e0e0" x="100%" y="124" transform="translate(-41)"/>
	</svg>

	<svg height="100%" id="animated-elements">
		<defs>
			<g id="block-row--animat">
				<rect x="282" y="296" width="12" height="12" rx="2" fill="#ecedee" />
				<rect x="306" y="299" width="298" height="6" rx="2" fill="#ecedee" />
			</g>
		</defs>

		<rect x="30" y="28" width="151" height="13" rx="2" fill="#dee3e6" />
		<rect x="272" y="30" width="456" height="12" rx="2" fill="#dee3e6" />
		<rect x="30" y="87" width="134" height="8" rx="2" fill="#dee3e6" />
		<rect x="30" y="127" width="134" height="8" rx="2" fill="#dee3e6" />
		<rect x="30" y="167" width="134" height="8" rx="2" fill="#dee3e6" />
		<rect x="30" y="207" width="134" height="8" rx="2" fill="#dee3e6" />
		<rect x="30" y="247" width="134" height="8" rx="2" fill="#dee3e6" />
		<rect x="30" y="287" width="134" height="8" rx="2" fill="#dee3e6" />
		<rect x="30" y="327" width="134" height="8" rx="2" fill="#dee3e6" />

		<rect x="282" y="102" width="258" height="8" rx="2" fill="#ecedee" />

		<rect x="282" y="191" width="322" height="8" rx="2" fill="#ecedee" />
		<rect x="282" y="394" width="258" height="8" rx="2" fill="#ecedee" />
		<rect x="282" y="575" width="206" height="8" rx="2" fill="#ecedee" />
		<rect x="282" y="663" width="206" height="8" rx="2" fill="#ecedee" />

		<use xlink:href="#block-row--animat"></use>
		<use xlink:href="#block-row--animat" y="203" ></use>
		<use xlink:href="#block-row--animat" y="237" ></use>
		<use xlink:href="#block-row--animat" y="449" ></use>
		<use xlink:href="#block-row--animat" y="493" ></use>

	</svg>

	<rect id="msk1" width="100%" fill="url(#msk_gd)" mask="url(#headerMsk)" height="1270"/>

	<mask id="headerMsk" fill="white">
		<use xlink:href="#animated-elements"/>
	</mask>

	<linearGradient x1="66.6%" y1="50%" x2="33.3%" y2="50%" id="msk_gd">
		<stop stop-color="#000000" stop-opacity="0" offset="0%"/>
		<stop stop-color="#000000" stop-opacity="0.07" offset="50%"/>
		<stop stop-color="#000000" stop-opacity="0" offset="100%"/>
	</linearGradient>

	<animate xlink:href="#msk1" attributeName="x" from="-100%" to="100%" dur="1s" begin="0s" repeatCount="indefinite"/>

	<svg height="100%">
		<defs>
			<g id="upper-right-corner">
				<path d="M9.99997 10V0H0C5.52285 0 9.99997 4.47715 9.99997 10Z" fill="#eef2f4"/>
			</g>
			<g id="lower-right-corner">
				<path d="M9.99997 0V10H0C5.52285 10 9.99997 5.52285 9.99997 0Z" fill="#eef2f4"/>
			</g>
		</defs>

		<rect width="20" height="100%" fill="#EEF2F4" x="100%" transform="translate(-20)" />
		<rect width="20" height="255" fill="#ffffff" x="100%" y="82" transform="translate(-40)" />
		<rect width="20" height="462" fill="#ffffff" x="100%" y="374" transform="translate(-40)" />

		<use xlink:href="#upper-right-corner" x="100%" y="72" transform="translate(-30)" ></use>
		<use xlink:href="#lower-right-corner" x="100%" y="337" transform="translate(-30)" ></use>
		<use xlink:href="#upper-right-corner" x="100%" y="364" transform="translate(-30)" ></use>
		<use xlink:href="#lower-right-corner" x="100%" y="836" transform="translate(-30)" ></use>
	</svg>

</svg>