<svg xmlns="http://www.w3.org/2000/svg" width="153" height="124" fill="none"><path fill="#C3F0FF" fill-rule="evenodd" d="M109.727 3.359a1.679 1.679 0 1 0 0-3.358 1.679 1.679 0 0 0 0 3.358ZM26.91 17.857a3.638 3.638 0 1 0 0-7.277 3.638 3.638 0 0 0 0 7.277Zm0-2.029a1.61 1.61 0 1 0 0-3.22 1.61 1.61 0 0 0 0 3.22ZM8.426 53.376a4.9 4.9 0 1 0 0-9.8 4.9 4.9 0 0 0 0 9.8Zm0-2.557a2.343 2.343 0 1 0 0-4.686 2.343 2.343 0 0 0 0 4.685Zm124.416 64.219a3.489 3.489 0 1 0-.001-6.977 3.489 3.489 0 0 0 .001 6.977Zm0-1.816a1.673 1.673 0 1 0 0-3.346 1.673 1.673 0 0 0 0 3.346ZM77 123.999c33.137 0 60-26.863 60-60S110.137 4 77 4 17 30.862 17 64s26.863 60 60 60Zm-60.029-4.194H5.307c-.1 0-.199-.004-.297-.011-2.636-.062-4.754-2.277-4.754-5.001 0-1.327.515-2.6 1.428-3.538a4.86 4.86 0 0 1 1.626-1.103 5.357 5.357 0 0 1 1.492-4.143 5.07 5.07 0 0 1 3.635-1.545c1.746.002 3.287.9 4.214 2.269.44-.16.913-.247 1.406-.247 2.18.003 3.97 1.71 4.178 3.894 2.088.468 3.65 2.38 3.649 4.666-.002 2.634-2.082 4.768-4.645 4.767-.09 0-.18-.003-.268-.008Zm123.614-92.788h8.278c.062.003.126.005.19.005 1.819.001 3.294-1.454 3.296-3.25.001-1.559-1.108-2.862-2.59-3.181-.147-1.49-1.418-2.653-2.964-2.655-.35 0-.686.06-.999.168a3.674 3.674 0 0 0-5.57-.494 3.582 3.582 0 0 0-1.059 2.825c-.427.17-.821.424-1.153.752A3.392 3.392 0 0 0 137 23.6c0 1.857 1.503 3.367 3.374 3.41.07.004.14.007.211.007Z" clip-rule="evenodd" opacity=".8"/><g filter="url(#a)"><path fill="#fff" fill-rule="evenodd" d="M46 33.464C46 28.79 49.778 25 54.438 25h32.49c2.185 0 4.284.85 5.857 2.371l13.634 13.19A8.478 8.478 0 0 1 109 46.654v48.882c0 4.674-3.778 8.464-8.438 8.464H54.438c-4.66 0-8.438-3.79-8.438-8.464V33.464Z" clip-rule="evenodd"/><path stroke="#2FC6F6" d="M46.5 33.464c0-4.4 3.555-7.964 7.938-7.964h32.49c2.055 0 4.03.8 5.51 2.23l13.634 13.19a7.98 7.98 0 0 1 2.428 5.734v48.882c0 4.4-3.555 7.964-7.938 7.964H54.438c-4.383 0-7.938-3.564-7.938-7.964V33.464Z"/></g><rect width="36.346" height="3.16" x="55.45" y="50.279" fill="#2FC6F6" rx="1.58"/><rect width="36.346" height="3.16" x="55.45" y="58.18" fill="#2FC6F6" rx="1.58"/><rect width="36.346" height="3.16" x="55.45" y="66.08" fill="#2FC6F6" rx="1.58"/><rect width="26.654" height="3.16" x="55.45" y="73.981" fill="#2FC6F6" rx="1.58"/><path fill="#2FC6F6" d="M92.913 44.75a2.817 2.817 0 0 1-2.813-2.822V28.314c0-1.244 1.488-1.879 2.381-1.017l7.857 7.578 7.875 7.505.787 2.37H92.913Z" opacity=".2"/><g filter="url(#b)"><circle cx="104.5" cy="95.5" r="13.5" fill="#fff"/></g><path fill="#7FDEFC" fill-rule="evenodd" d="M104.5 106c5.799 0 10.5-4.701 10.5-10.5S110.299 85 104.5 85 94 89.701 94 95.5s4.701 10.5 10.5 10.5Zm1.179-15.885a.682.682 0 0 1 .966.004l.786.794a.682.682 0 0 1-.003.962l-5.863 5.846-1.745-1.764 5.859-5.842Zm-6.84 8.365a.183.183 0 0 0 .046.175c.046.046.112.063.175.046l1.951-.526-1.646-1.645-.526 1.95Zm.617 1.266.494.534c.346.374.916.434 1.332.139l1.373-.974 1.083.928c.363.311.895.327 1.275.037l1.164-.887.365.438c.361.434.976.559 1.479.301l1.769-.91a.724.724 0 1 0-.663-1.289l-1.596.822-.389-.467a1.208 1.208 0 0 0-1.66-.188l-1.068.814-1.074-.92a1.013 1.013 0 0 0-1.246-.057l-.174.123a2.433 2.433 0 0 1-2.464 1.556Z" clip-rule="evenodd"/><defs><filter id="a" width="69.72" height="85.72" x="42.64" y="23.88" color-interpolation-filters="sRGB" filterUnits="userSpaceOnUse"><feFlood flood-opacity="0" result="BackgroundImageFix"/><feColorMatrix in="SourceAlpha" result="hardAlpha" values="0 0 0 0 0 0 0 0 0 0 0 0 0 0 0 0 0 0 127 0"/><feOffset dy="2.24"/><feGaussianBlur stdDeviation="1.68"/><feComposite in2="hardAlpha" operator="out"/><feColorMatrix values="0 0 0 0 0 0 0 0 0 0.24977 0 0 0 0 0.329167 0 0 0 0.2 0"/><feBlend in2="BackgroundImageFix" result="effect1_dropShadow_629_419470"/><feBlend in="SourceGraphic" in2="effect1_dropShadow_629_419470" result="shape"/></filter><filter id="b" width="31" height="31" x="89" y="81" color-interpolation-filters="sRGB" filterUnits="userSpaceOnUse"><feFlood flood-opacity="0" result="BackgroundImageFix"/><feColorMatrix in="SourceAlpha" result="hardAlpha" values="0 0 0 0 0 0 0 0 0 0 0 0 0 0 0 0 0 0 127 0"/><feOffset dy="1"/><feGaussianBlur stdDeviation="1"/><feComposite in2="hardAlpha" operator="out"/><feColorMatrix values="0 0 0 0 0 0 0 0 0 0 0 0 0 0 0 0 0 0 0.12 0"/><feBlend in2="BackgroundImageFix" result="effect1_dropShadow_629_419470"/><feBlend in="SourceGraphic" in2="effect1_dropShadow_629_419470" result="shape"/></filter></defs></svg>
