<svg width="535" height="534" viewBox="0 0 535 534" fill="none" xmlns="http://www.w3.org/2000/svg"><path opacity="0.722772" fill-rule="evenodd" clip-rule="evenodd" d="M267.444 72.125C159.856 72.125 72.6399 159.3 72.6399 266.836C72.6399 374.372 159.856 461.547 267.444 461.547C375.031 461.547 462.247 374.372 462.247 266.836C462.247 159.3 375.031 72.125 267.444 72.125ZM267.444 124.673C188.929 124.673 125.281 188.322 125.281 266.836C125.281 345.35 188.929 408.998 267.444 408.998C345.958 408.998 409.606 345.35 409.606 266.836C409.606 188.322 345.958 124.673 267.444 124.673Z" fill="url(#paint0_angular)"></path><path opacity="0.722772" fill-rule="evenodd" clip-rule="evenodd" d="M69.9197 254.045C13.1272 286.835 -6.34408 359.433 26.4295 416.199C59.2031 472.964 131.811 492.401 188.603 459.612C245.396 426.822 264.867 354.224 232.094 297.458C199.32 240.693 126.712 221.256 69.9197 254.045ZM85.9349 281.784C44.4892 305.713 30.2889 358.709 54.2175 400.155C78.1462 441.601 131.143 455.801 172.588 431.872C214.034 407.944 228.234 354.947 204.306 313.502C180.377 272.056 127.381 257.856 85.9349 281.784Z" fill="url(#paint1_angular)"></path><path d="M396 267.5C396 286.064 391.969 303.685 384.736 319.54C372.371 346.642 350.646 368.571 323.696 381.204C318.815 383.488 313.759 385.47 308.554 387.119C302.7 388.99 296.661 390.428 290.462 391.416C290.437 391.422 290.406 391.428 290.379 391.428C287.338 391.914 284.269 392.288 281.161 392.55C280.498 392.605 279.834 392.657 279.167 392.703C278.229 392.764 277.287 392.82 276.339 392.862C274.403 392.954 272.457 393 270.5 393C268.491 393 266.5 392.954 264.518 392.856C263.621 392.816 262.723 392.764 261.827 392.697C261.157 392.651 260.49 392.605 259.824 392.55C256.643 392.284 253.493 391.893 250.385 391.391C248.899 391.15 247.419 390.89 245.954 390.597C239.596 389.337 233.418 387.602 227.451 385.419C223.993 384.159 220.607 382.749 217.298 381.198C216.172 380.669 215.05 380.122 213.937 379.553C211.08 378.109 208.288 376.556 205.563 374.902C191.911 366.635 179.966 355.836 170.366 343.159C164.604 335.547 159.692 327.259 155.768 318.427C148.847 302.866 145 285.633 145 267.5C145 198.187 201.187 142 270.5 142C339.813 142 396 198.187 396 267.5Z" fill="#FFE152"></path><path d="M246 305.086V391C239.655 389.737 233.49 387.999 227.536 385.811C224.084 384.548 220.706 383.136 217.403 381.581C216.28 381.052 215.16 380.503 214.049 379.933C211.198 378.486 208.412 376.93 205.693 375.272C192.069 366.987 180.148 356.166 170.568 343.462C164.817 335.834 159.916 327.528 156 318.678V305.086C156 289.317 166.664 276.047 181.145 272.161C181.677 272.017 182.208 271.883 182.751 271.771C184.186 271.453 185.663 271.236 187.167 271.113C188.082 271.042 189.007 271 189.942 271H212.051C214.52 271 216.927 271.263 219.249 271.771C219.381 271.796 219.515 271.827 219.647 271.858C220.037 271.946 220.43 272.042 220.813 272.146C220.824 272.151 220.834 272.151 220.843 272.155C224.667 273.182 228.22 274.861 231.384 277.068C240.217 283.222 246 293.474 246 305.086Z" fill="#2BA1CF"></path><path d="M246 305.086V391C239.608 389.737 233.396 387.999 227.397 385.811C223.919 384.548 220.515 383.136 217.188 381.581C216.056 381.052 214.928 380.503 213.809 379.933C210.936 378.486 208.129 376.93 205.389 375.272C191.663 366.987 179.652 356.166 170 343.462V305.086C170 289.317 180.744 276.047 195.335 272.161C195.872 272.017 196.407 271.883 196.952 271.771C198.4 271.453 199.888 271.236 201.402 271.113C202.324 271.042 203.256 271 204.199 271H211.795C214.283 271 216.709 271.263 219.048 271.771C219.181 271.796 219.316 271.827 219.449 271.858C219.841 271.946 220.238 272.042 220.623 272.146C220.635 272.151 220.644 272.151 220.654 272.155C224.507 273.182 228.086 274.861 231.274 277.068C240.174 283.222 246 293.474 246 305.086Z" fill="#66BAED"></path><path d="M221 271L220.919 271.388L210.729 319.089C209.751 323.673 205.743 326.996 201.086 327C201.058 327 201.031 327 201.004 327C200.973 327 200.944 327 200.914 327C196.256 326.996 192.249 323.673 191.271 319.089L181.081 271.392L181 271H221Z" fill="#F2F0EC"></path><path d="M201 284.574L185.664 293L181 271.548L190.529 266" fill="#D8D5D0"></path><path d="M201 284.574L216.336 293L221 271.548L211.471 266" fill="#D8D5D0"></path><path d="M155 263V211.715C155 206.504 155.865 201.398 157.572 196.539C163.962 178.276 181.212 166 200.498 166C202.888 166 205.271 166.186 207.589 166.553C218.183 168.217 227.905 173.65 234.954 181.854C242.077 190.145 246 200.749 246 211.715V263" fill="#CC7A3B"></path><path d="M173.648 213.716C173.648 231.856 184.182 252.843 189.967 263H155V211.713C155 206.504 155.864 201.398 157.563 196.537C163.89 178.377 180.919 166.138 200 166C186.064 166.35 173.648 188.9 173.648 213.716Z" fill="#A35418"></path><path d="M213 258V272.879C213 278.326 209.446 282.93 204.549 284.459C203.428 284.811 202.233 285 200.998 285C194.37 285 189 279.575 189 272.879V258L213 258Z" fill="#EAB599"></path><path d="M213 271V271.979C213 277.633 209.404 282.413 204.45 284C199.981 282.576 196.621 278.547 196 273.617C196.81 273.669 197.626 273.695 198.444 273.695C200.741 273.695 202.994 273.506 205.186 273.133C207.889 272.682 210.502 271.961 213 271V271Z" fill="#F6CAAE"></path><path d="M168 233.499C168 239.224 163.818 243.972 158.341 244.852C157.744 244.949 157.127 245 156.499 245C150.148 245 145 239.852 145 233.499C145 227.148 150.148 222 156.499 222C157.127 222 157.744 222.051 158.341 222.148C163.818 223.028 168 227.774 168 233.499Z" fill="#F6CAAE"></path><path d="M168 232.999C168 238.547 163.887 243.147 158.501 244C157.524 240.496 157 236.807 157 232.999C157 229.193 157.524 225.504 158.501 222C163.887 222.853 168 227.451 168 232.999Z" fill="#EAB599"></path><path d="M160 232.999C160 235.209 158.209 237 155.999 237C153.791 237 152 235.209 152 232.999C152 230.791 153.791 229 155.999 229C158.209 229 160 230.791 160 232.999Z" fill="#EAB599"></path><path d="M230 218.61V257.394C224.001 263.117 216.309 267.08 207.751 268.458C207.684 268.47 207.611 268.481 207.544 268.493C205.418 268.832 203.235 269 201.007 269C177.808 269 159 250.205 159 227.023V211.037C159 208.99 159.146 206.976 159.429 205.008C169.424 212.191 183.755 211.481 192.886 202.858C195.909 200.003 198.011 196.605 199.199 193C199.86 199.312 202.749 205.456 207.87 210.294C213.966 216.045 222.02 218.819 230 218.61Z" fill="#EAB599"></path><path d="M230 218.782V257.827C223.993 263.588 216.29 267.578 207.72 268.965C207.653 268.977 207.58 268.988 207.513 269C187.391 265.841 172 248.348 172 227.251V211.158C172 210.73 172.008 210.304 172.023 209.88C179.44 210.643 187.145 208.326 192.834 202.922C195.861 200.05 197.966 196.627 199.155 193C199.817 199.355 202.71 205.539 207.839 210.41C213.944 216.2 222.009 218.992 230 218.782Z" fill="#F6CAAE"></path><path d="M223 224C223 220.133 219.865 217 216 217C212.135 217 209 220.133 209 224" fill="#EAB599"></path><path d="M192 224C192 220.133 188.865 217 184.999 217C181.133 217 178 220.133 178 224" fill="#EAB599"></path><path d="M190 226.999C190 229.761 187.761 232 184.999 232C182.237 232 180 229.761 180 226.999C180 224.237 182.237 222 184.999 222C187.761 222 190 224.237 190 226.999Z" fill="#3D4159"></path><path d="M221 226.999C221 229.761 218.762 232 216 232C213.238 232 211 229.761 211 226.999C211 224.237 213.238 222 216 222C218.762 222 221 224.237 221 226.999Z" fill="#3D4159"></path><path d="M205.892 239H196.11C194.944 239 194 238.103 194 237C194 235.897 194.944 235 196.11 235H205.892C207.056 235 208 235.897 208 237C208 238.103 207.056 239 205.892 239Z" fill="#EAB599"></path><path d="M201 252C197.549 252 194.097 251.14 190.95 249.419C190.063 248.936 189.74 247.827 190.227 246.945C190.715 246.064 191.83 245.742 192.717 246.226C197.904 249.061 204.096 249.061 209.283 246.226C210.17 245.74 211.285 246.064 211.773 246.945C212.26 247.827 211.937 248.936 211.05 249.419C207.903 251.14 204.451 252 201 252Z" fill="#EAB599"></path><path d="M189 226C189 227.105 188.103 228 187 228C185.895 228 185 227.105 185 226C185 224.895 185.895 224 187 224C188.103 224 189 224.895 189 226Z" fill="white"></path><path d="M220 226C220 227.105 219.105 228 218.001 228C216.895 228 216 227.105 216 226C216 224.895 216.895 224 218.001 224C219.105 224 220 224.895 220 226Z" fill="white"></path><path d="M229 238.001C229 240.761 226.761 243 223.999 243C221.239 243 219 240.761 219 238.001C219 235.239 221.239 233 223.999 233C226.761 233 229 235.239 229 238.001Z" fill="#EAB599"></path><path d="M183 238.001C183 240.761 180.763 243 178 243C175.239 243 173 240.761 173 238.001C173 235.239 175.239 233 178 233C180.763 233 183 235.239 183 238.001Z" fill="#EAB599"></path><path d="M385 303.529V319.216C372.682 346.28 351.038 368.176 324.191 380.791C319.328 383.072 314.292 385.051 309.106 386.698C303.274 388.566 297.257 390.002 291.082 390.989C291.057 390.994 291.027 391 291 391V303.529C291 284.885 305.325 269.589 323.554 268.117C324.513 268.034 325.477 268 326.452 268H349.539C352.269 268 354.926 268.3 357.479 268.889C373.237 272.499 385 286.644 385 303.529Z" fill="#BFD5DE"></path><path d="M385 303.619V319.347C372.664 346.479 350.991 368.431 324.106 381.078C319.236 383.365 314.192 385.349 309 387V303.619C309 283.948 324.898 268 344.507 268H349.493C369.107 268 385 283.948 385 303.619Z" fill="#DDE8ED"></path><path d="M303 229C303 234.975 298.637 239.928 292.923 240.846C292.298 240.947 291.656 241 291 241C284.371 241 279 235.629 279 229C279 222.371 284.371 217 291 217C291.656 217 292.298 217.053 292.923 217.154C298.637 218.074 303 223.027 303 229Z" fill="#D3A489"></path><path d="M347 281L337.5 296L328 281" fill="#F74F4F"></path><path d="M351 339.906L338.001 356L325 339.906L338.003 293L351 339.906Z" fill="#F74F4F"></path><path d="M302 228.5C302 234.3 297.887 239.108 292.501 240C291.523 236.337 291 232.481 291 228.5C291 224.521 291.523 220.665 292.501 217C297.887 217.894 302 222.702 302 228.5Z" fill="#BF8E75"></path><path d="M295 228.999C295 231.208 293.208 233 290.999 233C288.79 233 287 231.208 287 228.999C287 226.79 288.79 225 290.999 225C293.208 225 295 226.79 295 228.999Z" fill="#BF8E75"></path><path d="M338 282.95L321.898 292L317 268.959L327.004 263" fill="#BFD5DE"></path><path d="M338 282.95L354.102 292L359 268.959L348.995 263" fill="#BFD5DE"></path><path d="M372 229C372 234.975 376.363 239.928 382.077 240.846C382.702 240.947 383.344 241 384 241C390.629 241 396 235.629 396 229C396 222.371 390.629 217 384 217C383.344 217 382.702 217.053 382.077 217.154C376.363 218.074 372 223.027 372 229Z" fill="#D3A489"></path><path d="M372.756 228.765C372.756 234.649 377.044 239.527 382.661 240.432C383.682 236.715 384.225 232.803 384.225 228.765C384.225 224.729 383.682 220.817 382.661 217.099C377.044 218.005 372.756 222.883 372.756 228.765Z" fill="#BF8E75"></path><path d="M388.767 228.765C388.767 231.098 386.879 232.99 384.551 232.99C382.223 232.99 380.335 231.098 380.335 228.765C380.335 226.433 382.223 224.543 384.551 224.543C386.879 224.543 388.767 226.433 388.767 228.765Z" fill="#BF8E75"></path><path d="M381.85 222.484C381.85 244.364 365.896 262.517 345.008 265.886C342.718 266.264 340.365 266.453 337.965 266.453C313.727 266.453 294.082 246.77 294.082 222.484C294.082 210.994 298.065 193.745 305.266 185.911C313.285 177.189 325.195 178.513 337.965 178.513C340.365 178.513 342.716 178.705 345.008 179.083C365.896 182.452 381.85 200.602 381.85 222.484Z" fill="#BF8E75"></path><path d="M350.649 254.325V269.921C350.649 275.63 346.892 280.456 341.716 282.059C340.532 282.427 339.27 282.626 337.963 282.626C330.96 282.626 325.283 276.937 325.283 269.921V254.325H350.649Z" fill="#BF8E75"></path><path d="M350 269V269.979C350 275.634 346.193 280.413 340.947 282C336.215 280.576 332.657 276.547 332 271.617C332.859 271.669 333.721 271.695 334.59 271.695C337.021 271.695 339.405 271.505 341.728 271.133C344.589 270.682 347.354 269.962 350 269Z" fill="#D3A489"></path><path d="M382 222.501C382 244.43 365.978 262.623 344.999 266C324.022 262.623 308 244.43 308 222.501C308 208.997 314.075 196.911 323.644 188.825C329.611 183.781 336.94 180.299 344.999 179C364.556 182.148 379.812 198.178 381.783 218.106C381.927 219.552 382 221.02 382 222.501Z" fill="#D3A489"></path><path d="M337.501 244C333.891 244 330.284 243.141 326.995 241.421C326.065 240.936 325.727 239.827 326.238 238.945C326.747 238.062 327.914 237.741 328.842 238.227C334.263 241.06 340.737 241.06 346.16 238.227C347.086 237.741 348.253 238.062 348.762 238.945C349.273 239.827 348.935 240.936 348.007 241.421C344.718 243.141 341.107 244 337.501 244Z" fill="#BF8E75"></path><path d="M328 220.001C328 222.762 325.762 225 322.999 225C320.238 225 318 222.762 318 220.001C318 217.238 320.238 215 322.999 215C325.762 215 328 217.238 328 220.001Z" fill="#3D4159"></path><path d="M357 220.001C357 222.762 354.762 225 352.001 225C349.238 225 347 222.762 347 220.001C347 217.238 349.238 215 352.001 215C354.762 215 357 217.238 357 220.001Z" fill="#3D4159"></path><path d="M327 218.999C327 220.104 326.105 221 325 221C323.895 221 323 220.104 323 218.999C323 217.896 323.895 217 325 217C326.105 217 327 217.896 327 218.999Z" fill="white"></path><path d="M356 218.999C356 220.104 355.105 221 354 221C352.895 221 352 220.104 352 218.999C352 217.896 352.895 217 354 217C355.105 217 356 217.896 356 218.999Z" fill="white"></path><path d="M342.89 233H333.11C331.945 233 331 232.104 331 230.999C331 229.894 331.945 229 333.11 229H342.89C344.055 229 345 229.894 345 230.999C344.998 232.104 344.055 233 342.89 233Z" fill="#BF8E75"></path><path d="M352 303H371V309H352V303Z" fill="#BFD5DE"></path><path d="M335 166.069C348.434 167.014 359.22 177.714 359.902 191.183L360.03 193.712H367.758L371.92 221L382 217.924L380.647 191.184C379.932 177.035 368.063 165.947 353.701 166L335 166.069Z" fill="#2A2F4F"></path><path d="M379.108 156C389.631 166.523 389.631 183.585 379.108 194.108C368.585 204.631 351.523 204.631 341 194.108L379.108 156Z" fill="#3D4159"></path><path d="M341.131 193.711H308.026L303.926 221L294 217.924L295.331 191.184C296.035 177.039 307.722 165.947 321.866 166L369.679 166.181L376 177.572" fill="#3D4159"></path><path d="M340 166.069C326.566 167.014 315.78 177.714 315.098 191.183L314.97 193.712H307.244L303.08 221L293 217.924L294.353 191.184C295.068 177.035 306.937 165.947 321.299 166L340 166.069Z" fill="#2A2F4F"></path><path d="M323 371.91V381.268C306.91 388.793 288.951 393 270.003 393C251.054 393 233.09 388.793 217 381.263V371.91C217 353.442 229.559 337.91 246.619 333.356C247.243 333.188 247.87 333.034 248.508 332.897C250.202 332.529 251.942 332.276 253.708 332.133C254.79 332.046 255.877 332 256.98 332H283.016C285.929 332 288.762 332.307 291.498 332.897C291.657 332.927 291.815 332.964 291.968 333C292.427 333.106 292.885 333.219 293.339 333.341C293.356 333.345 293.36 333.345 293.375 333.35C297.878 334.552 302.067 336.519 305.788 339.102C316.193 346.306 323 358.312 323 371.91Z" fill="#3D4159"></path><path d="M294 333L293.903 333.452L281.137 392.553C280.476 392.608 279.813 392.66 279.149 392.705C278.213 392.766 277.273 392.821 276.328 392.863C274.397 392.954 272.457 393 270.505 393C268.501 393 266.515 392.954 264.538 392.857C263.645 392.817 262.749 392.766 261.855 392.7C261.187 392.654 260.522 392.608 259.857 392.553L247.095 333.458L247 333H294Z" fill="#66BAED"></path><path d="M281 346L269.999 363L259 346" fill="#3D4159"></path><path d="M279 392.704C278.08 392.765 277.156 392.82 276.227 392.862C274.329 392.954 272.422 393 270.503 393C268.533 393 266.581 392.954 264.638 392.857C263.759 392.817 262.879 392.765 262 392.698L270.503 359L279 392.704Z" fill="#3D4159"></path><path d="M271 348.015L252.598 358L247 332.576L258.433 326" fill="#2BA1CF"></path><path d="M270 348.015L288.402 358L294 332.576L282.566 326" fill="#2BA1CF"></path><path d="M294.352 367.33H300.068L290.085 391.561C285.467 392.301 280.767 392.785 276 393L293.538 333.444L293.672 333L306 337.017L294.352 367.33Z" fill="#2A2F4F"></path><path d="M264 393C259.228 392.781 254.525 392.287 249.907 391.542L239.935 367.334H245.651L234 337.017L246.33 333L246.464 333.444L264 393Z" fill="#2A2F4F"></path><path d="M285 316V333.633C285 340.09 280.704 345.546 274.788 347.358C273.432 347.775 271.989 348 270.496 348C262.489 348 256 341.568 256 333.633V316H285Z" fill="#EAB599"></path><path d="M285 333V334.13C285 340.653 280.769 346.167 274.942 348C269.683 346.355 265.73 341.708 265 336.02C265.955 336.08 266.914 336.109 267.877 336.109C270.579 336.109 273.228 335.892 275.807 335.462C278.987 334.942 282.059 334.109 285 333Z" fill="#F6CAAE"></path><path d="M231 287.501C231 294.22 226.09 299.792 219.662 300.827C218.959 300.94 218.237 301 217.501 301C210.044 301 204 294.958 204 287.501C204 280.044 210.042 274 217.501 274C218.237 274 218.959 274.06 219.662 274.175C226.09 275.21 231 280.782 231 287.501Z" fill="#F6CAAE"></path><path d="M231 287C231 293.555 226.138 298.991 219.773 300C218.617 295.858 218 291.498 218 287C218 282.5 218.617 278.142 219.773 274C226.138 275.009 231 280.445 231 287Z" fill="#EAB599"></path><path d="M223 287C223 289.761 220.761 292 218 292C215.237 292 213 289.761 213 287C213 284.237 215.237 282 218 282C220.761 282 223 284.237 223 287Z" fill="#EAB599"></path><path d="M310 287.501C310 294.22 314.91 299.792 321.338 300.827C322.039 300.94 322.763 301 323.499 301C330.956 301 337 294.958 337 287.501C337 280.044 330.958 274 323.499 274C322.763 274 322.039 274.06 321.338 274.175C314.91 275.21 310 280.782 310 287.501Z" fill="#F6CAAE"></path><path d="M310 287C310 293.555 314.862 298.991 321.227 300C322.383 295.858 323 291.498 323 287C323 282.5 322.383 278.142 321.227 274C314.862 275.009 310 280.445 310 287Z" fill="#EAB599"></path><path d="M320 261.565V280.439C320 305.103 302.004 325.563 278.442 329.36C278.363 329.374 278.279 329.387 278.201 329.4C275.694 329.803 273.122 330 270.497 330C243.16 330 221 307.81 221 280.44V261.565C221 255.802 221.982 250.264 223.796 245.118C230.565 225.829 248.921 212 270.497 212H270.501C273.122 212 275.698 212.203 278.208 212.6C301.885 216.303 320 236.818 320 261.565Z" fill="#EAB599"></path><path d="M328 287C328 289.761 325.763 292 323 292C320.239 292 318 289.761 318 287C318 284.237 320.239 282 323 282C325.763 282 328 284.237 328 287Z" fill="#EAB599"></path><path d="M320 261.049V279.955C320 304.66 301.917 325.156 278.237 328.96C278.157 328.973 278.074 328.987 277.993 329C254.201 325.288 236 304.74 236 279.955V261.049C236 236.26 254.205 215.71 278.003 212C301.797 215.71 320 236.26 320 261.049Z" fill="#F6CAAE"></path><path d="M260 277.499C260 280.537 257.537 283 254.501 283C251.463 283 249 280.537 249 277.499C249 274.463 251.463 272 254.501 272C257.537 272 260 274.463 260 277.499Z" fill="#3D4159"></path><path d="M292 277.499C292 280.537 289.538 283 286.5 283C283.462 283 281 280.537 281 277.499C281 274.463 283.462 272 286.5 272C289.538 272 292 274.463 292 277.499Z" fill="#3D4159"></path><path d="M259 276.501C259 277.881 257.881 279 256.499 279C255.119 279 254 277.881 254 276.501C254 275.119 255.119 274 256.499 274C257.881 274 259 275.119 259 276.501Z" fill="white"></path><path d="M292 276.501C292 277.881 290.881 279 289.501 279C288.119 279 287 277.881 287 276.501C287 275.119 288.119 274 289.501 274C290.881 274 292 275.119 292 276.501Z" fill="white"></path><path d="M275.589 289H264.411C263.08 289 262 287.88 262 286.5C262 285.118 263.08 284 264.411 284H275.589C276.92 284 278 285.118 278 286.5C277.998 287.88 276.918 289 275.589 289Z" fill="#EAB599"></path><path d="M270 305C265.921 305 261.841 303.997 258.124 301.99C257.075 301.425 256.691 300.131 257.269 299.104C257.845 298.075 259.163 297.7 260.212 298.263C266.341 301.571 273.659 301.571 279.788 298.263C280.837 297.698 282.155 298.073 282.731 299.104C283.309 300.131 282.925 301.425 281.876 301.99C278.157 303.997 274.079 305 270 305Z" fill="#EAB599"></path><path d="M320 244.745V264H310.787V248.92L244.284 236.597L230.213 233.989V264H221V244.743C221 222.792 238.841 205 260.849 205H280.151C280.676 205 281.2 205.01 281.724 205.036C302.999 205.853 320 223.316 320 244.745Z" fill="#2A2F4F"></path><path d="M320 244.733V264H310.752V248.911L244 236.58C247.678 219.018 263.004 205.712 281.58 205C302.935 205.817 320 223.291 320 244.733Z" fill="#3D4159"></path><defs><radialGradient id="paint0_angular" cx="0" cy="0" r="1" gradientUnits="userSpaceOnUse" gradientTransform="translate(267.444 266.836) rotate(30) scale(194.79)"><stop stop-color="#2FC6F6"></stop><stop offset="1" stop-color="#B7EB81"></stop></radialGradient><radialGradient id="paint1_angular" cx="0" cy="0" r="1" gradientUnits="userSpaceOnUse" gradientTransform="translate(129.262 356.828) scale(118.732)"><stop stop-color="#DAF400"></stop><stop offset="1" stop-color="#B3E600"></stop></radialGradient></defs></svg>