<svg width="141" height="24" viewBox="0 0 141 24" fill="none" xmlns="http://www.w3.org/2000/svg">
<path fill-rule="evenodd" clip-rule="evenodd" d="M12.4855 3.44983C12.4855 2.50593 13.2377 1.76074 14.1904 1.76074C15.1431 1.76074 15.9454 2.45625 15.9454 3.44983C15.9454 4.34405 15.1933 5.08924 14.1904 5.08924C13.1875 5.08924 12.4855 4.39373 12.4855 3.44983ZM12.7864 6.87769H15.5944V17.8568H12.7864V6.87769ZM4.51285 2.55599H0V17.8571H4.96413C8.57441 17.8571 10.3796 15.721 10.3796 13.3364C10.3796 11.5479 9.27641 10.1072 7.47127 9.6601V9.61042C8.6747 8.96459 9.32655 7.7723 9.32655 6.43096C9.32655 4.4438 7.82227 2.55599 4.51285 2.55599ZM6.5687 6.92775C6.5687 8.12005 5.71627 8.96459 4.16185 8.96459H2.85814V4.89091H4.16185C5.81656 4.89091 6.5687 5.78513 6.5687 6.92775ZM7.52141 13.3364C7.52141 14.8764 6.46842 15.5719 4.61313 15.5719H2.85814V11.2498H4.96413C6.51856 11.2498 7.52141 12.0447 7.52141 13.3364ZM76.1802 9.1798C76.2402 12.4798 78.8202 15.0598 82.0602 15.0598C85.3002 15.0598 87.9402 12.4198 87.9402 9.1798C87.9402 5.9398 85.3002 3.2998 82.0602 3.2998C78.8202 3.2998 76.1802 5.9398 76.1802 9.1798ZM77.2602 9.1798C77.2602 6.5398 79.4202 4.3798 82.0602 4.3798C84.7002 4.3798 86.8602 6.5398 86.8602 9.1798C86.8602 11.8198 84.7002 13.9798 82.0602 13.9798C79.4202 13.9798 77.3202 11.8798 77.2602 9.1798ZM62.9294 17.8566H53.5527C53.8833 13.8367 56.2135 12.1549 58.0167 10.8535C59.2219 9.98361 60.1917 9.28369 60.1716 8.16916C60.1716 6.92719 59.1687 6.48008 58.0656 6.48008C56.7117 6.48008 55.6086 6.92719 54.6057 7.3743L53.9539 5.48649C55.057 4.94002 56.6114 4.39355 58.4667 4.39355C61.375 4.39355 62.779 5.88393 62.779 7.92077C62.779 9.96103 61.2562 11.1164 59.7219 12.2805C58.4169 13.2706 57.1035 14.2671 56.7117 15.8197H62.9294V17.8566ZM85.4202 9.17975H82.4802V6.23975H81.7002V9.95975H85.4202V9.17975ZM19.3557 9.06386V15.1744C19.3557 17.0125 20.5591 18.1054 22.5648 18.0558C23.6679 18.0558 25.0218 17.7577 25.8241 17.2112L24.9717 15.3234C24.5204 15.6215 23.9187 15.8699 23.2668 15.8699C22.5147 15.8699 22.1637 15.5221 22.1637 14.4789V9.06386H24.8212L25.5232 6.87798H22.1637V3.54948L19.3557 4.34434V6.87798H17.35V9.06386H19.3557ZM27.3279 6.87793H29.6846L29.9854 8.11991C30.9883 7.12633 31.8909 6.62954 33.0441 6.62954C33.5456 6.62954 34.1473 6.77857 34.5986 7.07665L33.5957 9.41156C33.0943 9.11349 32.643 9.06381 32.3421 9.06381C31.59 9.06381 30.9883 9.36188 30.0857 10.1567V17.9067H27.2777V6.87793H27.3279ZM37.4059 1.76074C36.4532 1.76074 35.7011 2.50593 35.7011 3.44983C35.7011 4.39373 36.3529 5.08924 37.3558 5.08924C38.3586 5.08924 39.1108 4.34405 39.1108 3.44983C39.1108 2.50593 38.3586 1.76074 37.4059 1.76074ZM38.8099 17.8568V6.87769H36.0019V17.8568H38.8099ZM44.4764 12.3426L40.4649 6.87788H43.3732L45.9806 10.4548L48.6382 6.87788H51.5465L47.4849 12.3426L51.5966 17.857H48.6883L46.0308 14.1807L43.3231 17.857H40.4148L44.4764 12.3426ZM71.6535 4.39355V12.6403H73.6592V14.6274H71.6535V17.9063H69.2466V14.6274H63.2295V12.988L69.8985 4.39355H71.6535ZM69.2466 12.5906V10.7028C69.2466 10.0578 69.285 9.35576 69.3142 8.81988V8.81971V8.81951L69.3143 8.81929L69.3144 8.81685C69.3324 8.4874 69.3469 8.22105 69.3469 8.06981L65.9372 12.6403C66.0685 12.6403 66.3145 12.6308 66.5917 12.6201C66.9495 12.6064 67.3595 12.5906 67.642 12.5906H69.2466ZM136.819 18.3746C135.057 18.3746 133.672 17.8397 132.665 16.7698C131.674 15.6842 131.178 14.3075 131.178 12.6397C131.178 10.9247 131.737 9.50871 132.854 8.39162C133.987 7.25879 135.395 6.69238 137.078 6.69238C138.29 6.69238 139.289 6.94412 140.076 7.4476V9.83125C139.273 9.2491 138.369 8.95803 137.362 8.95803C136.339 8.95803 135.529 9.2963 134.931 9.97285C134.349 10.6494 134.057 11.5147 134.057 12.5689C134.057 13.7017 134.341 14.5749 134.907 15.1886C135.474 15.8022 136.244 16.109 137.22 16.109C138.022 16.109 138.888 15.8572 139.816 15.3538L140.642 17.289C139.588 18.0127 138.313 18.3746 136.819 18.3746ZM118.975 6.97559V18.1386H121.784V10.3269C122.728 9.54017 123.64 9.14683 124.521 9.14683C125.182 9.14683 125.63 9.3671 125.866 9.80764C126.118 10.2325 126.244 10.8382 126.244 11.6249V18.1386H129.076V10.7517C129.076 9.28843 128.73 8.25001 128.038 7.6364C127.361 7.00705 126.512 6.69238 125.489 6.69238C124.246 6.69238 122.971 7.20373 121.666 8.22641L121.382 6.97559H118.975ZM117.568 6.64648L113.297 18.1635C112.872 19.2806 112.431 20.201 111.975 20.9248C111.535 21.6643 111.063 22.1992 110.559 22.5296C110.071 22.8757 109.615 23.1039 109.19 23.214C108.765 23.3399 108.262 23.4028 107.68 23.4028C106.799 23.4028 105.965 23.2298 105.178 22.8836L105.886 20.6652C106.437 20.9641 106.995 21.1136 107.562 21.1136C108.223 21.1136 108.797 20.854 109.285 20.3348C109.788 19.8313 110.252 18.9659 110.677 17.7387L105.65 6.64648H108.647L111.952 14.529H111.999L114.666 6.64648H117.568ZM95.12 14.8582L94.0107 17.0294C95.2852 17.9262 96.8507 18.3747 98.7072 18.3747C100.328 18.3747 101.657 17.9734 102.696 17.171C103.734 16.3529 104.253 15.2673 104.253 13.9142C104.253 13.0016 104.017 12.2149 103.545 11.5541C103.089 10.8776 102.531 10.3505 101.87 9.97289C101.225 9.59528 100.572 9.25701 99.9109 8.95807C99.25 8.64339 98.6836 8.28939 98.2116 7.89605C97.7553 7.48697 97.5272 7.02283 97.5272 6.50362C97.5272 5.92147 97.7239 5.49666 98.1172 5.22919C98.5263 4.96172 99.0376 4.82798 99.6513 4.82798C100.847 4.82798 102.082 5.15839 103.357 5.8192V3.22315C102.318 2.70394 101.052 2.44434 99.5569 2.44434C97.9992 2.44434 96.7641 2.86128 95.8516 3.69516C94.9548 4.52904 94.5063 5.54386 94.5063 6.73962C94.5063 7.62071 94.7345 8.38379 95.1908 9.02887C95.6628 9.67395 96.2292 10.1853 96.89 10.5629C97.5508 10.9248 98.2038 11.263 98.8488 11.5777C99.5097 11.8924 100.068 12.2621 100.524 12.6869C100.996 13.1118 101.232 13.5995 101.232 14.1502C101.232 14.7795 100.981 15.2437 100.477 15.5426C99.9738 15.8415 99.3602 15.991 98.6364 15.991C97.3777 15.991 96.2056 15.6134 95.12 14.8582Z" fill="white"/>
</svg>
