<svg width="172" height="24" viewBox="0 0 172 24" fill="none" xmlns="http://www.w3.org/2000/svg">
<path fill-rule="evenodd" clip-rule="evenodd" d="M79.5 18.24H90.06V15.9H83.1C83.5423 14.1309 85.0288 12.9986 86.5035 11.8752C88.2298 10.5602 89.94 9.25742 89.94 6.96C89.94 4.68 88.38 3 85.08 3C83.04 3 81.24 3.6 80.04 4.2L80.76 6.36C81.84 5.82 83.1 5.34 84.66 5.34C85.86 5.34 87 5.88 87 7.26C87 8.49919 85.9115 9.28406 84.5616 10.2575C82.5128 11.7348 79.8617 13.6465 79.5 18.24ZM90.36 14.52H97.14V18.24H99.84V14.52H102.12V12.24H99.84V3H97.86L90.36 12.72V14.52ZM93.42 12.36L97.26 7.2C97.26 7.35612 97.2434 7.63658 97.2226 7.98901C97.1874 8.58472 97.14 9.38605 97.14 10.14V12.3H95.34C95.0427 12.3 94.6 12.3182 94.202 12.3345L94.2019 12.3345C93.8769 12.3479 93.5818 12.36 93.42 12.36ZM135.651 17.3007L134.925 15.2107C133.751 15.8854 132.563 16.2227 131.361 16.2227C129.894 16.2227 128.721 15.7534 127.841 14.8147C126.975 13.8614 126.543 12.6147 126.543 11.0747C126.543 9.57873 126.975 8.33206 127.841 7.33473C128.706 6.32273 129.909 5.81673 131.449 5.81673C132.754 5.81673 134.001 6.13206 135.189 6.76273V4.29873C134.118 3.82939 132.849 3.59473 131.383 3.59473C129.095 3.59473 127.247 4.32073 125.839 5.77273C124.431 7.21006 123.727 8.99939 123.727 11.1407C123.727 13.3261 124.365 15.0934 125.641 16.4427C126.931 17.7774 128.735 18.4447 131.053 18.4447C132.725 18.4447 134.257 18.0634 135.651 17.3007ZM161.862 7.81869V18.2247H164.48V13.9127H166.042C166.35 13.9127 166.651 14.2427 166.944 14.9027L168.264 18.2247H171.102L169.21 14.2427C168.888 13.568 168.484 13.1427 168 12.9667V12.9227C168.338 12.7174 168.646 12.248 168.924 11.5147C169.203 10.7667 169.394 10.3194 169.496 10.1727C169.672 9.95269 169.914 9.84269 170.222 9.84269C170.457 9.84269 170.655 9.87202 170.816 9.93069V7.70869C170.523 7.60602 170.164 7.55469 169.738 7.55469C168.917 7.55469 168.279 7.86269 167.824 8.47869C167.619 8.78669 167.414 9.25602 167.208 9.88669C167.018 10.5027 166.812 10.994 166.592 11.3607C166.372 11.7274 166.072 11.9107 165.69 11.9107H164.48V7.81869H161.862ZM149.917 7.81873V18.2247H152.535V13.8467H156.627V18.2247H159.267V7.81873H156.627V11.5587H152.535V7.81873H149.917ZM137.606 18.2247V7.81873H140.18V12.4387C140.18 13.1134 140.151 13.8614 140.092 14.6827H140.136C140.532 14.0227 140.994 13.2967 141.522 12.5047L144.778 7.81873H147.33V18.2247H144.756V13.6047C144.756 12.9301 144.786 12.1821 144.844 11.3607H144.8C144.302 12.2114 143.84 12.9374 143.414 13.5387L140.158 18.2247H137.606ZM2.82 11.22V15.96H4.14C6.42 15.96 7.38 15.24 7.38 13.62C7.38 12.66 7.02 12.06 6.42 11.7C5.82 11.34 4.98 11.22 3.96 11.22H2.82ZM4.08 18.24H0.06H0V3.06H9.6L8.88 5.28H2.82V8.88H3.9C5.58 8.88 6.96 9.06 8.04 9.66C9.42 10.38 10.2 11.64 10.2 13.5C10.2 16.26 8.58 18.24 4.08 18.24ZM14.7 18.24H12.06V7.44H14.76V12.24C14.76 13.08 14.7 13.92 14.64 14.58H14.7C14.7711 14.4663 14.8556 14.329 14.9512 14.1737L14.9513 14.1736L14.9513 14.1735L14.9514 14.1735L14.9514 14.1734C15.2594 13.6733 15.6822 12.9867 16.14 12.3L19.56 7.38H22.2V18.18H19.5V13.38C19.5 12.54 19.56 11.7 19.62 11.04H19.56C19.4789 11.1698 19.3846 11.3303 19.2772 11.5131L19.2771 11.5132C18.9872 12.0067 18.6015 12.6634 18.12 13.32L14.7 18.24ZM29.58 18.24H26.82V9.66H23.52V7.38H33.54L32.82 9.66H29.58V18.24ZM37.2 23.7H34.5L34.44 7.74C35.64 7.38 37.08 7.08 38.58 7.08C42.48 7.08 44.52 9.3 44.52 12.78C44.52 16.14 42.3 18.48 38.88 18.48C38.28 18.48 37.74 18.42 37.2 18.24V23.7ZM37.2 9.54V15.9C37.68 16.08 38.1 16.2 38.64 16.2C40.68 16.2 41.7 14.88 41.7 12.78C41.7 10.44 40.44 9.36 38.46 9.36C37.98 9.36 37.62 9.42 37.2 9.54ZM48.78 18.24H46.14V7.44H48.84V12.24C48.84 13.08 48.78 13.92 48.72 14.58H48.78C48.851 14.4664 48.9355 14.3292 49.031 14.1741L49.0313 14.1735L49.0314 14.1735C49.3394 13.6733 49.7622 12.9867 50.22 12.3L53.64 7.38H56.28V18.18H53.58V13.38C53.58 12.54 53.64 11.7 53.7 11.04H53.64C53.5589 11.1698 53.4646 11.3303 53.3571 11.5132C53.0672 12.0067 52.6815 12.6634 52.2 13.32L48.78 18.24ZM61.2 18.24H58.44V7.38H61.2V11.64H62.46C63.2925 11.64 63.6 10.733 63.9393 9.73198C64.138 9.14585 64.3476 8.52746 64.68 8.04C65.1 7.44 65.7 7.08 66.66 7.08C66.96 7.08 67.5 7.14 67.8 7.26V9.6C67.62 9.48 67.38 9.48 67.2 9.48C66.84 9.48 66.6 9.6 66.42 9.84C66.2154 10.1355 66.0711 10.5431 65.9218 10.9647C65.6771 11.6558 65.419 12.3846 64.86 12.72V12.78C65.4 12.96 65.76 13.38 66.12 14.1L68.1 18.24H65.16L63.78 14.76C63.42 14.04 63.12 13.74 62.82 13.74H61.2V18.24ZM77.94 17.4C77.1 18 75.72 18.48 74.22 18.48C70.68 18.48 68.76 16.02 68.76 12.9C68.76 9.48 71.28 7.08 74.52 7.08C75.9 7.08 76.86 7.44 77.46 7.8V10.14C76.68 9.6 75.9 9.3 74.82 9.3C72.78 9.3 71.58 10.86 71.58 12.84C71.58 15.06 72.78 16.26 74.64 16.26C75.66 16.26 76.38 15.96 77.16 15.54L77.94 17.4ZM111.06 15.06C107.82 15.06 105.24 12.48 105.18 9.18C105.18 5.94 107.82 3.3 111.06 3.3C114.3 3.3 116.94 5.94 116.94 9.18C116.94 12.42 114.3 15.06 111.06 15.06ZM111.06 4.38C108.42 4.38 106.26 6.54 106.26 9.18C106.32 11.88 108.42 13.98 111.06 13.98C113.7 13.98 115.86 11.82 115.86 9.18C115.86 6.54 113.7 4.38 111.06 4.38ZM111.48 9.18H114.42V9.96H110.7V6.24H111.48V9.18Z" fill="white"/>
</svg>
