<svg xmlns="http://www.w3.org/2000/svg" width="325" height="683" viewBox="0 0 325 683" xmlns:xlink="http://www.w3.org/1999/xlink"><defs><path id="a" d="M1 207.003c0-1.106.89-2.003 1.998-2.003h271.004c1.104 0 1.998.902 1.998 2.003v33.994c0 1.106-.89 2.003-1.998 2.003H2.998A2.004 2.004 0 0 1 1 240.997v-33.994z"/><path id="b" d="M7 146.003c0-1.106.896-2.003 2.002-2.003h268.996c1.106 0 2.002.902 2.002 2.003v33.994a2.002 2.002 0 0 1-2.002 2.003H9.002A2.006 2.006 0 0 1 7 179.997v-33.994z"/><path id="c" d="M7 194.003c0-1.106.896-2.003 2.002-2.003h268.996c1.106 0 2.002.902 2.002 2.003v33.994a2.002 2.002 0 0 1-2.002 2.003H9.002A2.006 2.006 0 0 1 7 227.997v-33.994z"/></defs><g fill="none" fill-rule="evenodd"><g transform="translate(6 248)"><use xlink:href="#a"/><path stroke="#C6CDD3" d="M1.5 207.003v33.994c0 .827.673 1.503 1.498 1.503h271.004c.83 0 1.498-.67 1.498-1.503v-33.994c0-.827-.673-1.503-1.498-1.503H2.998c-.83 0-1.498.67-1.498 1.503z"/><path fill="#525C69" opacity=".3" d="M0 0h275v33H0z"/></g><path fill="#525C69" opacity=".09" d="M9 512.352h298v-1H9zM9 125.576h298v1H9z"/><use xlink:href="#b"/><path stroke="#C6CDD3" d="M7.5 146.003v33.994c0 .827.675 1.503 1.502 1.503h268.996c.83 0 1.502-.673 1.502-1.503v-33.994c0-.827-.675-1.503-1.502-1.503H9.002c-.83 0-1.502.673-1.502 1.503z"/><use xlink:href="#c"/><path stroke="#C6CDD3" d="M7.5 194.003v33.994c0 .827.675 1.503 1.502 1.503h268.996c.83 0 1.502-.673 1.502-1.503v-33.994c0-.827-.675-1.503-1.502-1.503H9.002c-.83 0-1.502.673-1.502 1.503z"/><path fill="#525C69" opacity=".09" d="M9 432.416h298v1H9z"/><path fill="#9EA6AD" d="M9 28h106a2 2 0 0 1 2 2v10a2 2 0 0 1-2 2H9V28z" opacity=".2"/><rect width="64" height="14" x="154" y="28" fill="#9EA6AD" opacity=".2" rx="2"/><rect width="41" height="14" x="251" y="28" fill="#9EA6AD" opacity=".2" rx="2"/><path fill="#FAFBFC" d="M0 447h9v48H0z"/><path fill="#FFF" d="M1 142h8v92H1z"/></g></svg>