<svg xmlns="http://www.w3.org/2000/svg" width="325" height="683" viewBox="0 0 325 683" xmlns:xlink="http://www.w3.org/1999/xlink">
  <defs>
    <path id="a" d="M1,207.002859 C1,205.896711 1.88938661,205 2.99757867,205 L274.002421,205 C275.105654,205 276,205.901851 276,207.002859 L276,240.997141 C276,242.103289 275.110613,243 274.002421,243 L2.99757867,243 C1.89434644,243 1,242.098149 1,240.997141 L1,207.002859 Z"/>
    <path id="b" d="M7,146.002859 C7,144.896711 7.89580105,144 9.00210769,144 L277.997892,144 C279.103626,144 280,144.901851 280,146.002859 L280,179.997141 C280,181.103289 279.104199,182 277.997892,182 L9.00210769,182 C7.89637414,182 7,181.098149 7,179.997141 L7,146.002859 Z"/>
    <path id="c" d="M7,194.002859 C7,192.896711 7.89580105,192 9.00210769,192 L277.997892,192 C279.103626,192 280,192.901851 280,194.002859 L280,227.997141 C280,229.103289 279.104199,230 277.997892,230 L9.00210769,230 C7.89637414,230 7,229.098149 7,227.997141 L7,194.002859 Z"/>
  </defs>
  <g fill="none" fill-rule="evenodd">
    <g transform="translate(6 248)">
      <use fill="none" xlink:href="#a"/>
      <path stroke="#C6CDD3" d="M1.5,207.002859 L1.5,240.997141 C1.5,241.824275 2.1727512,242.5 2.99757867,242.5 L274.002421,242.5 C274.832269,242.5 275.5,241.829354 275.5,240.997141 L275.5,207.002859 C275.5,206.175725 274.827249,205.5 274.002421,205.5 L2.99757867,205.5 C2.16773076,205.5 1.5,206.170646 1.5,207.002859 Z"/>
      <rect width="275" height="33" fill="#525C69" opacity=".3"/>
    </g>
    <rect width="298" height="1" x="9" y="511.353" fill="#525C69" opacity=".09" transform="matrix(1 0 0 -1 0 1023.705)"/>
    <rect width="298" height="1" x="9" y="125.576" fill="#525C69" opacity=".09"/>
    <use fill="none" xlink:href="#b"/>
    <path stroke="#C6CDD3" d="M7.5,146.002859 L7.5,179.997141 C7.5,180.824022 8.17452852,181.5 9.00210769,181.5 L277.997892,181.5 C278.827794,181.5 279.5,180.827409 279.5,179.997141 L279.5,146.002859 C279.5,145.175978 278.825471,144.5 277.997892,144.5 L9.00210769,144.5 C8.17220551,144.5 7.5,145.172591 7.5,146.002859 Z"/>
    <use fill="none" xlink:href="#c"/>
    <path stroke="#C6CDD3" d="M7.5,194.002859 L7.5,227.997141 C7.5,228.824022 8.17452852,229.5 9.00210769,229.5 L277.997892,229.5 C278.827794,229.5 279.5,228.827409 279.5,227.997141 L279.5,194.002859 C279.5,193.175978 278.825471,192.5 277.997892,192.5 L9.00210769,192.5 C8.17220551,192.5 7.5,193.172591 7.5,194.002859 Z"/>
    <rect width="298" height="1" x="9" y="432.416" fill="#525C69" opacity=".09"/>
    <path fill="#9EA6AD" d="M9,28 L115,28 L115,28 C116.104569,28 117,28.8954305 117,30 L117,40 L117,40 C117,41.1045695 116.104569,42 115,42 L9,42 L9,28 Z" opacity=".2"/>
    <rect width="64" height="14" x="154" y="28" fill="#9EA6AD" opacity=".2" rx="2"/>
    <rect width="41" height="14" x="251" y="28" fill="#9EA6AD" opacity=".2" rx="2"/>
    <rect width="9" height="48" y="447" fill="#FAFBFC"/>
    <rect width="8" height="92" x="1" y="142" fill="#FFFFFF"/>
    <rect width="317" height="682" x="7.5" y=".5" opacity="0" stroke="#FF0000"/>
  </g>
</svg>
