<svg xmlns="http://www.w3.org/2000/svg" width="1670" height="543" viewBox="0 0 1670 543"><g fill="none" fill-rule="evenodd" transform="translate(-20 -27)"><path d="M192 455.003c0-1.106 2.043-2.003 4.598-2.003h1487.804c2.54 0 4.598.902 4.598 2.003v33.994c0 1.106-2.043 2.003-4.598 2.003H196.598c-2.54 0-4.598-.902-4.598-2.003v-33.994z"/><path stroke="#C6CDD3" d="M193 455.503v33.994c0 .827 1.55 1.503 3.45 1.503h1488.1c1.915 0 3.45-.67 3.45-1.503v-33.994c0-.827-1.55-1.503-3.45-1.503H196.45c-1.915 0-3.45.67-3.45 1.503z"/><path fill="#525C69" fill-rule="nonzero" opacity=".3" d="M43 248h1646v33H43z"/><rect width="112" height="39" x="43" y="531" fill="#525C69" fill-rule="nonzero" opacity=".3" rx="2"/><path fill="#525C69" fill-rule="nonzero" opacity=".09" d="M20 513h1669v-1H20zM20 124.93h848v1H20z"/><path stroke="#979797" d="M88 146.003c0-1.106 1.9-2.003 4.244-2.003h1592.512c2.344 0 4.244.902 4.244 2.003v33.994c0 1.106-1.9 2.003-4.244 2.003H92.244C89.9 182 88 181.098 88 179.997v-33.994zm0 48c0-1.106 1.9-2.003 4.244-2.003h1592.512c2.344 0 4.244.902 4.244 2.003v33.994c0 1.106-1.9 2.003-4.244 2.003H92.244C89.9 230 88 229.098 88 227.997v-33.994z"/><path fill="#525C69" fill-rule="nonzero" opacity=".09" d="M20 432h848v1H20z"/><circle cx="109.5" cy="99.5" r="11.5" fill="#ECEDEF" fill-rule="nonzero"/><rect width="49" height="8" x="42" y="95" fill="#9EA6AD" fill-rule="nonzero" opacity=".2" rx="2"/><rect width="40" height="8" x="36" y="158" fill="#9EA6AD" fill-rule="nonzero" opacity=".2" rx="2"/><rect width="137" height="8" x="43" y="468" fill="#9EA6AD" fill-rule="nonzero" opacity=".2" rx="2"/><rect width="40" height="8" x="36" y="206" fill="#9EA6AD" fill-rule="nonzero" opacity=".2" rx="2"/><rect width="12" height="12" x="52" y="403" fill="#9EA6AD" fill-rule="nonzero" opacity=".2" rx="2"/><rect width="12" height="12" x="85" y="403" fill="#9EA6AD" fill-rule="nonzero" opacity=".2" rx="2"/><rect width="12" height="12" x="117" y="403" fill="#9EA6AD" fill-rule="nonzero" opacity=".2" rx="2"/><rect width="129" height="8" x="131" y="95" fill="#9EA6AD" fill-rule="nonzero" opacity=".2" rx="2"/><rect width="97" height="14" x="581" y="28" fill="#9EA6AD" fill-rule="nonzero" opacity=".2" rx="2"/><rect width="64" height="14" x="715" y="28" fill="#9EA6AD" fill-rule="nonzero" opacity=".2" rx="2"/><rect width="877" height="14" x="812" y="28" fill="#9EA6AD" fill-rule="nonzero" opacity=".2" rx="2"/><rect width="430" height="22" x="36" y="27" fill="#9EA6AD" fill-rule="nonzero" opacity=".2" rx="2"/></g></svg>