<svg xmlns="http://www.w3.org/2000/svg" width="1920" height="1080" viewBox="0 0 1920 1080"><g fill="none" fill-rule="evenodd"><path fill="#EBF1F4" d="M0 0h1920v1602H0z"/><path d="M.5.5h1597.045v1079H.5z"/><path fill="#FFF" d="M21.503 68H1600v67H21.503zM21.503 154H1600v949H21.503z"/><path fill="#D4F1FD" d="M34.209 169h1552.108v39H34.209zM34.209 432h1552.108v39H34.209z"/><path fill="#EEF2F5" d="M49.847 486H1573.61v41H49.847z"/><path fill="#E9FAB5" d="M49.847 534H1573.61v39H49.847zM49.847 908H1573.61v39H49.847z"/><g transform="translate(1609)"><path fill="#FFF" d="M287 68H9v1024h278z"/><circle cx="148.5" cy="193.5" r="27.5" fill="#D4F1FD"/><circle cx="52.5" cy="320.5" r="13.5" fill="#D4F1FD"/><circle cx="164.5" cy="320.5" r="13" stroke="#979797" opacity=".458"/><path d="M.5.5h277v1079H.5z"/></g></g></svg>