<svg xmlns="http://www.w3.org/2000/svg" width="962" height="934" viewBox="0 0 962 934" xmlns:xlink="http://www.w3.org/1999/xlink">
  <defs>
    <path id="a" d="M59,50.5 C59,50.2238576 59.2315766,50 59.5014429,50 L960.943274,50 C961.220213,50 961.444717,50.2319336 961.444717,50.5 L961.444717,50.5 C961.444717,50.7761424 961.21314,51 960.943274,51 L59.5014429,51 C59.2245036,51 59,50.7680664 59,50.5 L59,50.5 Z"/>
  </defs>
  <g fill="none" fill-rule="evenodd">
    <rect width="902" height="94" x="59" fill="#FFFFFF"/>
    <rect width="902" height="80" x="59" y="288" fill="#FFFFFF"/>
    <rect width="902" height="80" x="59" y="708" fill="#FFFFFF"/>
    <rect width="902" height="58" x="59" y="383" fill="#FFFFFF"/>
    <rect width="902" height="58" x="59" y="803" fill="#FFFFFF"/>
    <rect width="902" height="58" x="59" y="456" fill="#FFFFFF"/>
    <rect width="902" height="58" x="59" y="876" fill="#FFFFFF"/>
    <rect width="902" height="128" x="59" y="145" fill="#FFFFFF"/>
    <rect width="902" height="128" x="59" y="565" fill="#FFFFFF"/>
    <g opacity=".4">
      <use fill="#FFFFFF" xlink:href="#a"/>
      <path stroke="#525C69" stroke-opacity=".428" d="M59.5,50.5 C59.5,50.5038298 59.5038783,50.5 59.5014429,50.5 L960.943274,50.5 C960.940381,50.5 960.944717,50.5043716 960.944717,50.5 C960.944717,50.4961702 960.940839,50.5 960.943274,50.5 L59.5014429,50.5 C59.5043359,50.5 59.5,50.4956284 59.5,50.5 Z"/>
    </g>
    <rect width="960" height="933" x=".5" y=".5" stroke="#FFFFFF" opacity=".2"/>
  </g>
</svg>
