<svg xmlns="http://www.w3.org/2000/svg" width="1920" height="1080" viewBox="0 0 1920 1080">
  <g fill="none" fill-rule="evenodd">
    <rect width="1920" height="1602" fill="#EBF1F4"/>
    <rect width="1597.045" height="1079" x=".5" y=".5" stroke="#FFFFFF" stroke-opacity="0"/>
    <rect width="1578.497" height="67" x="21.503" y="68" fill="#FFFFFF"/>
    <rect width="1578.497" height="949" x="21.503" y="154" fill="#FFFFFF"/>
    <rect width="1552.108" height="39" x="34.209" y="169" fill="#D4F1FD"/>
    <rect width="1552.108" height="39" x="34.209" y="432" fill="#D4F1FD"/>
    <rect width="1523.763" height="41" x="49.847" y="486" fill="#EEF2F5"/>
    <rect width="1523.763" height="39" x="49.847" y="534" fill="#E9FAB5"/>
    <rect width="1523.763" height="39" x="49.847" y="908" fill="#E9FAB5"/>
    <g transform="translate(1609)">
      <rect width="278" height="1024" x="9" y="68" fill="#FFFFFF" transform="matrix(-1 0 0 1 296 0)"/>
      <circle cx="148.5" cy="193.5" r="27.5" fill="#D4F1FD"/>
      <circle cx="52.5" cy="320.5" r="13.5" fill="#D4F1FD"/>
      <circle cx="164.5" cy="320.5" r="13" stroke="#979797" opacity=".458"/>
      <rect width="277" height="1079" x=".5" y=".5" stroke="#FFFFFF" stroke-opacity="0"/>
    </g>
  </g>
</svg>
