<svg xmlns="http://www.w3.org/2000/svg" width="1600" height="1080" viewBox="0 0 1600 1080">
  <g fill="none" fill-rule="evenodd">
    <rect width="1599" height="1079" x=".5" y=".5" stroke="#FFFFFF" stroke-opacity="0"/>
    <rect width="1356.33" height="12" x="27.401" y="24" fill="#9EA6AD" opacity=".2" rx="2"/>
    <rect width="371.865" height="12" x="42.08" y="97" fill="#9EA6AD" opacity=".2" rx="2"/>
    <rect width="190.826" height="12" x="42.08" y="184" fill="#9EA6AD" opacity=".2" rx="2"/>
    <rect width="190.826" height="12" x="64.587" y="239" fill="#9EA6AD" opacity=".2" rx="2"/>
    <rect width="190.826" height="12" x="64.587" y="263" fill="#9EA6AD" opacity=".2" rx="2"/>
    <rect width="190.826" height="12" x="64.587" y="287" fill="#9EA6AD" opacity=".2" rx="2"/>
    <rect width="190.826" height="12" x="42.08" y="446" fill="#9EA6AD" opacity=".2" rx="2"/>
    <rect width="190.826" height="12" x="60.673" y="499" fill="#9EA6AD" opacity=".2" rx="2"/>
    <rect width="190.826" height="12" x="60.673" y="546" fill="#9EA6AD" opacity=".2" rx="2"/>
    <rect width="190.826" height="12" x="60.673" y="921" fill="#9EA6AD" opacity=".2" rx="2"/>
    <rect width="190.826" height="12" x="69.48" y="828" fill="#9EA6AD" opacity=".2" rx="2"/>
    <rect width="190.826" height="12" x="69.48" y="727" fill="#9EA6AD" opacity=".2" rx="2"/>
  </g>
</svg>
