<svg xmlns="http://www.w3.org/2000/svg" width="903" height="927" viewBox="0 0 903 927">
  <g fill="none" fill-rule="evenodd">
    <rect width="291" height="10" x="16" y="18" fill="#9EA6AD" opacity=".2" rx="2"/>
    <rect width="291" height="10" x="16" y="67" fill="#9EA6AD" opacity=".2" rx="2"/>
    <rect width="446" height="10" x="16" y="134" fill="#9EA6AD" opacity=".2" rx="2"/>
    <rect width="633" height="13" x="16" y="153" fill="#9EA6AD" opacity=".2" rx="2"/>
    <rect width="291" height="10" x="16" y="226" fill="#9EA6AD" opacity=".2" rx="2"/>
    <rect width="291" height="10" x="16" y="256" fill="#9EA6AD" opacity=".2" rx="2"/>
    <rect width="291" height="10" x="16" y="355" fill="#9EA6AD" opacity=".2" rx="2"/>
    <rect width="64" height="10" x="816" y="226" fill="#9EA6AD" opacity=".2" rx="2"/>
    <rect width="64" height="10" x="816" y="355" fill="#9EA6AD" opacity=".2" rx="2"/>
    <rect width="64" height="10" x="735" y="226" fill="#9EA6AD" opacity=".2" rx="2"/>
    <rect width="64" height="10" x="735" y="355" fill="#9EA6AD" opacity=".2" rx="2"/>
    <rect width="719" height="20" x="16" y="86" fill="#9EA6AD" opacity=".2" rx="2"/>
    <rect width="291" height="10" x="16" y="489" fill="#9EA6AD" opacity=".2" rx="2"/>
    <rect width="865" height="10" x="16" y="514" fill="#9EA6AD" opacity=".2" rx="2"/>
    <rect width="865" height="10" x="16" y="536" fill="#9EA6AD" opacity=".2" rx="2"/>
    <rect width="291" height="10" x="16" y="607" fill="#9EA6AD" opacity=".2" rx="2"/>
    <rect width="865" height="10" x="16" y="632" fill="#9EA6AD" opacity=".2" rx="2"/>
    <rect width="865" height="10" x="16" y="654" fill="#9EA6AD" opacity=".2" rx="2"/>
    <rect width="291" height="10" x="16" y="725" fill="#9EA6AD" opacity=".2" rx="2"/>
    <rect width="865" height="10" x="16" y="750" fill="#9EA6AD" opacity=".2" rx="2"/>
    <rect width="865" height="10" x="16" y="822" fill="#9EA6AD" opacity=".2" rx="2"/>
    <rect width="865" height="10" x="16" y="894" fill="#9EA6AD" opacity=".2" rx="2"/>
    <rect width="64" height="10" x="820" y="18" fill="#9EA6AD" opacity=".2" rx="2"/>
  </g>
</svg>
