<svg xmlns="http://www.w3.org/2000/svg" width="1860" height="897" viewBox="0 0 1860 897">
  <g fill="none" fill-rule="evenodd">
    <rect width="184" height="8" x="14" y="66" fill="#9EA6AD" opacity=".2" rx="2"/>
    <rect width="1386" height="12" fill="#9EA6AD" opacity=".2" rx="2"/>
    <rect width="184" height="8" x="20" y="207" fill="#9EA6AD" opacity=".2" rx="2"/>
    <rect width="184" height="8" x="30" y="311" fill="#9EA6AD" opacity=".2" rx="2"/>
    <rect width="184" height="8" x="30" y="458" fill="#9EA6AD" opacity=".2" rx="2"/>
    <rect width="184" height="8" x="30" y="518" fill="#9EA6AD" opacity=".2" rx="2"/>
    <rect width="184" height="8" x="30" y="597" fill="#9EA6AD" opacity=".2" rx="2"/>
    <rect width="1515" height="37" x="30.5" y="533.5" stroke="#CACED7"/>
    <rect width="1515" height="37" x="30.5" y="612.5" stroke="#CACED7"/>
    <rect width="184" height="8" x="30" y="677" fill="#9EA6AD" opacity=".2" rx="2"/>
    <rect width="1515" height="37" x="30.5" y="692.5" stroke="#CACED7"/>
    <rect width="184" height="8" x="30" y="765" fill="#9EA6AD" opacity=".2" rx="2"/>
    <rect width="184" height="8" x="30" y="844" fill="#9EA6AD" opacity=".2" rx="2"/>
    <rect width="1515" height="37" x="30.5" y="780.5" stroke="#CACED7"/>
    <rect width="1515" height="37" x="30.5" y="859.5" stroke="#CACED7"/>
    <rect width="184" height="8" x="30" y="378" fill="#9EA6AD" opacity=".2" rx="2"/>
    <rect width="184" height="8" x="30" y="419" fill="#9EA6AD" opacity=".2" rx="2"/>
    <rect width="184" height="8" x="30" y="270" fill="#9EA6AD" opacity=".2" rx="2"/>
    <rect width="549" height="8" x="30" y="334" fill="#9EA6AD" opacity=".2" rx="2"/>
    <rect width="549" height="8" x="30" y="481" fill="#9EA6AD" opacity=".2" rx="2"/>
    <rect width="1858" height="1" x="2" y="101" fill="#EDEEF0"/>
  </g>
</svg>
