<svg xmlns="http://www.w3.org/2000/svg" width="962" height="934" viewBox="0 0 962 934" xmlns:xlink="http://www.w3.org/1999/xlink"><defs><path id="a" d="M59 50.5c0-.276.232-.5.501-.5h901.442c.277 0 .502.232.502.5 0 .276-.232.5-.502.5H59.501a.506.506 0 0 1-.501-.5z"/></defs><g fill="none" fill-rule="evenodd"><path fill="#FFF" d="M59 0h902v94H59zM59 288h902v80H59zM59 708h902v80H59zM59 383h902v58H59zM59 803h902v58H59zM59 456h902v58H59zM59 876h902v58H59zM59 145h902v128H59zM59 565h902v128H59z"/><g opacity=".4"><use fill="#FFF" xlink:href="#a"/><path stroke="#525C69" stroke-opacity=".428" d="M59.5 50.5c0 .004.004 0 .001 0h901.442c-.003 0 .002.004.002 0s-.004 0-.002 0H59.501c.003 0-.001-.004-.001 0z"/></g><path stroke="#FFF" opacity=".2" d="M.5.5h960v933H.5z"/></g></svg>