<svg xmlns="http://www.w3.org/2000/svg" width="1860" height="897" viewBox="0 0 1860 897"><g fill="none" fill-rule="evenodd"><rect width="184" height="8" x="14" y="66" fill="#9EA6AD" opacity=".2" rx="2"/><rect width="1386" height="12" fill="#9EA6AD" opacity=".2" rx="2"/><rect width="184" height="8" x="20" y="207" fill="#9EA6AD" opacity=".2" rx="2"/><rect width="184" height="8" x="30" y="311" fill="#9EA6AD" opacity=".2" rx="2"/><rect width="184" height="8" x="30" y="458" fill="#9EA6AD" opacity=".2" rx="2"/><rect width="184" height="8" x="30" y="518" fill="#9EA6AD" opacity=".2" rx="2"/><rect width="184" height="8" x="30" y="597" fill="#9EA6AD" opacity=".2" rx="2"/><path stroke="#CACED7" d="M30.5 533.5h1515v37H30.5zM30.5 612.5h1515v37H30.5z"/><rect width="184" height="8" x="30" y="677" fill="#9EA6AD" opacity=".2" rx="2"/><path stroke="#CACED7" d="M30.5 692.5h1515v37H30.5z"/><rect width="184" height="8" x="30" y="765" fill="#9EA6AD" opacity=".2" rx="2"/><rect width="184" height="8" x="30" y="844" fill="#9EA6AD" opacity=".2" rx="2"/><path stroke="#CACED7" d="M30.5 780.5h1515v37H30.5zM30.5 859.5h1515v37H30.5z"/><rect width="184" height="8" x="30" y="378" fill="#9EA6AD" opacity=".2" rx="2"/><rect width="184" height="8" x="30" y="419" fill="#9EA6AD" opacity=".2" rx="2"/><rect width="184" height="8" x="30" y="270" fill="#9EA6AD" opacity=".2" rx="2"/><rect width="549" height="8" x="30" y="334" fill="#9EA6AD" opacity=".2" rx="2"/><rect width="549" height="8" x="30" y="481" fill="#9EA6AD" opacity=".2" rx="2"/><path fill="#EDEEF0" d="M2 101h1858v1H2z"/></g></svg>