<svg xmlns="http://www.w3.org/2000/svg" width="13" height="13" viewBox="0 0 13 13"><path fill="#80868E" fill-rule="evenodd" d="M11.99 5.89L9.55 8.33a3.45 3.45 0 0 1-4.88 0 3.447 3.447 0 0 1-.524-.696L5.28 6.5c.054-.054.12-.085.184-.122.079.268.215.521.426.732a1.727 1.727 0 0 0 2.44 0l2.44-2.44a1.726 1.726 0 0 0 0-2.44 1.727 1.727 0 0 0-2.44 0l-.868.869a4.329 4.329 0 0 0-2.2-.24L7.11 1.011a3.45 3.45 0 0 1 4.88 4.88zM5.538 9.902l-.868.868a1.728 1.728 0 0 1-2.44 0 1.728 1.728 0 0 1 0-2.44l2.44-2.44a1.726 1.726 0 0 1 2.44 0c.21.21.347.464.426.731.064-.037.13-.067.184-.121l1.133-1.133a3.39 3.39 0 0 0-.523-.697 3.45 3.45 0 0 0-4.88 0L1.01 7.11a3.45 3.45 0 0 0 4.88 4.88l1.85-1.85a4.326 4.326 0 0 1-2.202-.238z"/></svg>