<svg xmlns="http://www.w3.org/2000/svg" width="13" height="13" viewBox="0 0 13 13">
  <path fill="#80868E" fill-rule="evenodd" d="M661.989715,99.8901526 L659.549307,102.329764 C658.202396,103.677471 656.017364,103.677471 654.670226,102.329764 C654.458029,102.118164 654.292026,101.879741 654.146247,101.633866 L655.280164,100.500034 C655.334067,100.445676 655.400627,100.41453 655.46423,100.377836 C655.542623,100.645671 655.67947,100.899226 655.890103,101.109887 C656.562762,101.783087 657.657312,101.782148 658.329572,101.109887 L660.769212,98.6703327 C661.442383,97.9972187 661.442383,96.9029249 660.769212,96.2303229 C660.096923,95.557721 659.002658,95.557721 658.329572,96.2303229 L657.462039,97.0987947 C656.758034,96.8246737 655.999558,96.7509737 655.261192,96.8591771 L657.109838,95.0105883 C658.457545,93.6631372 660.642008,93.6631372 661.989715,95.0105883 C663.336768,96.3579825 663.336768,98.5427869 661.989715,99.8901526 L661.989715,99.8901526 Z M655.538356,103.9017 L654.670198,104.770172 C653.997596,105.442433 652.902989,105.442433 652.230273,104.770172 C651.557614,104.096973 651.557614,103.002679 652.230273,102.329764 L654.670198,99.8901526 C655.34334,99.2170956 656.437207,99.2170956 657.109809,99.8901526 C657.319958,100.100359 657.456947,100.353857 657.53608,100.621351 C657.600052,100.584173 657.665788,100.553965 657.719662,100.500006 L658.853494,99.366629 C658.708654,99.1197864 658.541798,98.8822168 658.329515,98.6703896 C656.982718,97.3229385 654.797487,97.3229385 653.450036,98.6703896 L651.010482,101.11003 C649.663173,102.457879 649.663173,104.642057 651.010482,105.989793 C652.357933,107.336817 654.542652,107.336817 655.890074,105.989793 L657.739204,104.140806 C657.000439,104.249635 656.241764,104.175309 655.538356,103.9017 L655.538356,103.9017 Z" transform="translate(-650 -94)"/>
</svg>
