<svg xmlns="http://www.w3.org/2000/svg" width="1555" height="1165" viewBox="0 0 1555 1165" xmlns:xlink="http://www.w3.org/1999/xlink"><defs><path id="a" d="M0 0h1555v1166H0z"/><mask id="c" width="1555" height="1166" x="0" y="0" fill="#fff"><use xlink:href="#a"/></mask><rect id="b" width="189" height="39" x="172" y="699" rx="2"/><mask id="d" width="189" height="39" x="0" y="0" fill="#fff"><use xlink:href="#b"/></mask></defs><g fill="none" fill-rule="evenodd"><use stroke="#979797" stroke-opacity=".05" stroke-width="2" mask="url(#c)" opacity=".05" xlink:href="#a"/><rect width="549" height="8" x="45" y="142" fill="#9EA6AD" opacity=".2" rx="2"/><rect width="549" height="8" x="45" y="161" fill="#9EA6AD" opacity=".2" rx="2"/><rect width="549" height="8" x="45" y="180" fill="#9EA6AD" opacity=".2" rx="2"/><rect width="150" height="12" x="191" y="713" fill="#9EA6AD" opacity=".2" rx="2"/><rect width="77" height="12" x="64" y="713" fill="#9EA6AD" opacity=".2" rx="2"/><rect width="638" height="12" x="45" y="31" fill="#9EA6AD" opacity=".2" rx="2"/><rect width="638" height="12" x="45" y="112" fill="#9EA6AD" opacity=".2" rx="2"/><rect width="638" height="12" x="45" y="651" fill="#9EA6AD" opacity=".2" rx="2"/><use stroke="#C6CDD3" stroke-width="2" mask="url(#d)" xlink:href="#b"/></g></svg>