<svg xmlns="http://www.w3.org/2000/svg" width="1555" height="1165" viewBox="0 0 1555 1165" xmlns:xlink="http://www.w3.org/1999/xlink"><defs><path id="a" d="M0 0h1555v1166H0z"/><mask id="c" width="1555" height="1166" x="0" y="0" fill="#fff"><use xlink:href="#a"/></mask><path id="b" d="M158 786h1397v277H33.004a2 2 0 0 1-2.004-1.993V748.004c0-1.107.896-2.004 1.995-2.004h123.01a2 2 0 0 1 1.995 2.004V786z"/><mask id="d" width="1524" height="317" x="0" y="0" fill="#fff"><use xlink:href="#b"/></mask></defs><g fill="none" fill-rule="evenodd"><use stroke="#FFF" stroke-opacity=".05" stroke-width="2" mask="url(#c)" opacity=".05" xlink:href="#a"/><use stroke="#C6CDD3" stroke-width="2" mask="url(#d)" xlink:href="#b"/><rect width="103" height="10" x="44" y="762" fill="#9EA6AD" opacity=".2" rx="2"/><rect width="121" height="38" x="167" y="748" fill="#EEF2F4" fill-opacity=".1" rx="2"/><rect width="121" height="38" x="295" y="748" fill="#EEF2F4" fill-opacity=".1" rx="2"/><rect width="122" height="10" x="46" y="671" fill="#9EA6AD" opacity=".2" rx="2"/><rect width="122" height="10" x="216" y="671" fill="#9EA6AD" opacity=".2" rx="2"/><rect width="47" height="10" x="386" y="671" fill="#9EA6AD" opacity=".2" rx="2"/><path fill="#9EA6AD" d="M45 108.998A2 2 0 0 1 46.992 107H1555v8H46.992A1.99 1.99 0 0 1 45 113.002v-4.004zm0 55A2 2 0 0 1 46.992 162H1555v6.002a2 2 0 0 1-2.002 1.998H47.002A1.995 1.995 0 0 1 45 168.002v-4.004z" opacity=".2"/><rect width="1509" height="8" x="46" y="126" fill="#9EA6AD" opacity=".2" rx="2"/><rect width="1510" height="8" x="45" y="181" fill="#9EA6AD" opacity=".2" rx="2"/><rect width="1510" height="8" x="45" y="145" fill="#9EA6AD" opacity=".2" rx="2"/><path fill="#9EA6AD" d="M45 201.998A2 2 0 0 1 47.002 200H1555v6.002a2 2 0 0 1-1.992 1.998H46.992A1.99 1.99 0 0 1 45 206.002v-4.004z" opacity=".2"/><rect width="544" height="8" x="45" y="219" fill="#9EA6AD" opacity=".2" rx="2"/><rect width="184" height="8" x="42" y="261" fill="#9EA6AD" opacity=".2" rx="2"/><rect width="184" height="8" x="42" y="354" fill="#9EA6AD" opacity=".2" rx="2"/><rect width="184" height="8" x="42" y="464" fill="#9EA6AD" opacity=".2" rx="2"/><rect width="549" height="8" x="42" y="280" fill="#9EA6AD" opacity=".2" rx="2"/><rect width="549" height="8" x="42" y="373" fill="#9EA6AD" opacity=".2" rx="2"/><rect width="549" height="8" x="42" y="299" fill="#9EA6AD" opacity=".2" rx="2"/><rect width="549" height="8" x="42" y="392" fill="#9EA6AD" opacity=".2" rx="2"/><rect width="549" height="8" x="42" y="318" fill="#9EA6AD" opacity=".2" rx="2"/><rect width="549" height="8" x="42" y="411" fill="#9EA6AD" opacity=".2" rx="2"/><rect width="189" height="8" x="1366" y="591" fill="#9EA6AD" opacity=".2" rx="2"/><rect width="1386" height="12" x="28" y="31" fill="#9EA6AD" opacity=".2" rx="2"/></g></svg>