<svg xmlns="http://www.w3.org/2000/svg" width="365" height="1165" viewBox="0 0 365 1165" xmlns:xlink="http://www.w3.org/1999/xlink"><defs><path id="a" d="M1 0h365v1165H1z"/><mask id="c" width="365" height="1165" x="0" y="0" fill="#fff"><use xlink:href="#a"/></mask><rect id="b" width="39" height="277" x="1" y="786" rx="2"/><mask id="d" width="39" height="277" x="0" y="0" fill="#fff"><use xlink:href="#b"/></mask></defs><g fill="none" fill-rule="evenodd" transform="translate(-1)"><use stroke="#979797" stroke-opacity=".05" stroke-width="2" mask="url(#c)" opacity=".05" xlink:href="#a"/><use stroke="#C6CDD3" stroke-width="2" mask="url(#d)" xlink:href="#b"/><rect width="232" height="8" x="95" y="153" fill="#9EA6AD" opacity=".2" rx="2"/><rect width="232" height="8" x="95" y="496" fill="#9EA6AD" opacity=".2" rx="2"/><rect width="232" height="8" x="95" y="178" fill="#9EA6AD" opacity=".2" rx="2"/><rect width="232" height="8" x="95" y="521" fill="#9EA6AD" opacity=".2" rx="2"/><rect width="232" height="8" x="95" y="203" fill="#9EA6AD" opacity=".2" rx="2"/><rect width="232" height="8" x="95" y="546" fill="#9EA6AD" opacity=".2" rx="2"/><rect width="232" height="8" x="95" y="227" fill="#9EA6AD" opacity=".2" rx="2"/><rect width="232" height="8" x="95" y="570" fill="#9EA6AD" opacity=".2" rx="2"/><rect width="232" height="8" x="95" y="251" fill="#9EA6AD" opacity=".2" rx="2"/><rect width="232" height="8" x="95" y="594" fill="#9EA6AD" opacity=".2" rx="2"/><rect width="232" height="8" x="95" y="275" fill="#9EA6AD" opacity=".2" rx="2"/><rect width="232" height="8" x="95" y="299" fill="#9EA6AD" opacity=".2" rx="2"/><rect width="232" height="8" x="95" y="323" fill="#9EA6AD" opacity=".2" rx="2"/><rect width="232" height="8" x="95" y="347" fill="#9EA6AD" opacity=".2" rx="2"/><rect width="232" height="8" x="95" y="371" fill="#9EA6AD" opacity=".2" rx="2"/><rect width="131" height="12" x="99" y="92" fill="#9EA6AD" opacity=".2" rx="2"/><rect width="131" height="12" x="99" y="452" fill="#9EA6AD" opacity=".2" rx="2"/><rect width="131" height="12" x="99" y="665" fill="#9EA6AD" opacity=".2" rx="2"/><rect width="131" height="12" x="99" y="791" fill="#9EA6AD" opacity=".2" rx="2"/><path fill="#9EA6AD" d="M1 108.998A2 2 0 0 1 2.993 107h25.014c1.1 0 1.993.887 1.993 1.998v4.004A2 2 0 0 1 28.007 115H1v-6.002zm0 55A2 2 0 0 1 2.993 162h25.014c1.1 0 1.993.887 1.993 1.998v4.004A2 2 0 0 1 28.007 170H1v-6.002zm0-36A2 2 0 0 1 2.993 126h25.014c1.1 0 1.993.887 1.993 1.998v4.004A2 2 0 0 1 28.007 134H1v-6.002zm0 55A2 2 0 0 1 2.993 181h25.014c1.1 0 1.993.887 1.993 1.998v4.004A2 2 0 0 1 28.007 189H1v-6.002zm0-36A2 2 0 0 1 2.993 145h25.014c1.1 0 1.993.887 1.993 1.998v4.004A2 2 0 0 1 28.007 153H1v-6.002zm0 55A2 2 0 0 1 3.001 200H28c1.105 0 2.001.887 2.001 1.998v4.004A2 2 0 0 1 28.007 208H1v-6.002zm0 391A2 2 0 0 1 2.993 591h25.014c1.1 0 1.993.887 1.993 1.998v4.004A2 2 0 0 1 28.007 599H1v-6.002z" opacity=".2"/><rect width="109" height="12" x="34" y="31" fill="#9EA6AD" opacity=".2" rx="2"/><rect width="54" height="10" x="270" y="33" fill="#9EA6AD" opacity=".2" rx="2"/><rect width="54" height="10" x="176" y="33" fill="#9EA6AD" opacity=".2" rx="2"/></g></svg>