<svg xmlns="http://www.w3.org/2000/svg" width="311" height="710" viewBox="0 0 311 710">
  <g fill="none" fill-rule="evenodd">
    <path fill="#9EA6AD" d="M0,184 L294,184 L294,184 C295.104569,184 296,184.895431 296,186 L296,190 L296,190 C296,191.104569 295.104569,192 294,192 L0,192 L0,184 Z" opacity=".2"/>
    <rect width="97" height="14" x="38" y="28" fill="#9EA6AD" opacity=".2" rx="2"/>
    <rect width="64" height="14" x="172" y="28" fill="#9EA6AD" opacity=".2" rx="2"/>
    <rect width="41" height="14" x="269" y="28" fill="#9EA6AD" opacity=".2" rx="2"/>
    <path fill="#9EA6AD" d="M0 201L294 201 294 201C295.104569 201 296 201.895431 296 203L296 207 296 207C296 208.104569 295.104569 209 294 209L0 209 0 201zM0 219L294 219 294 219C295.104569 219 296 219.895431 296 221L296 225 296 225C296 226.104569 295.104569 227 294 227L0 227 0 219zM0 237L294 237 294 237C295.104569 237 296 237.895431 296 239L296 243 296 243C296 244.104569 295.104569 245 294 245L0 245 0 237zM0 255L294 255 294 255C295.104569 255 296 255.895431 296 257L296 261 296 261C296 262.104569 295.104569 263 294 263L0 263 0 255zM0 273L294 273 294 273C295.104569 273 296 273.895431 296 275L296 279 296 279C296 280.104569 295.104569 281 294 281L0 281 0 273zM0 291L294 291 294 291C295.104569 291 296 291.895431 296 293L296 297 296 297C296 298.104569 295.104569 299 294 299L0 299 0 291zM0 309L294 309 294 309C295.104569 309 296 309.895431 296 311L296 315 296 315C296 316.104569 295.104569 317 294 317L0 317 0 309zM0 327L294 327 294 327C295.104569 327 296 327.895431 296 329L296 333 296 333C296 334.104569 295.104569 335 294 335L0 335 0 327zM0 345L294 345 294 345C295.104569 345 296 345.895431 296 347L296 351 296 351C296 352.104569 295.104569 353 294 353L0 353 0 345zM0 363L294 363 294 363C295.104569 363 296 363.895431 296 365L296 369 296 369C296 370.104569 295.104569 371 294 371L0 371 0 363zM0 381L158 381 158 381C159.104569 381 160 381.895431 160 383L160 387 160 387C160 388.104569 159.104569 389 158 389L0 389 0 381zM0 678L2 678 2 678C3.1045695 678 4 678.895431 4 680L4 684 4 684C4 685.104569 3.1045695 686 2 686L0 686 0 678z" opacity=".2"/>
    <rect width="124" height="1" fill="#525C69" transform="matrix(1 0 0 -1 175 160.155)" opacity=".13"/>
    <path fill="#9EA6AD" d="M0,155 L12,155 L12,155 C13.1045695,155 14,155.895431 14,157 L14,161 L14,161 C14,162.104569 13.1045695,163 12,163 L0,163 L0,155 Z" opacity=".2"/>
    <rect width="103" height="8" x="52" y="155" fill="#9EA6AD" opacity=".2" rx="2"/>
    <rect width="310" height="709" x=".5" y=".5" opacity="0" stroke="#FF0000" />
  </g>
</svg>
