<svg xmlns="http://www.w3.org/2000/svg" width="1415" height="666" viewBox="0 0 1415 666"><g fill="none" fill-rule="nonzero" transform="translate(-35 -27)"><path fill="#9EA6AD" d="M46.47 184H1450v8H46.47c-1.917 0-3.47-.895-3.47-2v-4c0-1.105 1.553-2 3.47-2z" opacity=".2"/><rect width="374" height="14" x="91" y="99" fill="#9EA6AD" opacity=".2" rx="2"/><rect width="64" height="14" x="714" y="28" fill="#9EA6AD" opacity=".2" rx="2"/><rect width="41" height="14" x="811" y="28" fill="#9EA6AD" opacity=".2" rx="2"/><rect width="430" height="22" x="35" y="27" fill="#9EA6AD" opacity=".2" rx="2"/><path fill="#9EA6AD" d="M46.47 201H1450v8H46.47c-1.917 0-3.47-.895-3.47-2v-4c0-1.105 1.553-2 3.47-2zm0 18H1450v8H46.47c-1.917 0-3.47-.895-3.47-2v-4c0-1.105 1.553-2 3.47-2zm0 18H1450v8H46.47c-1.917 0-3.47-.895-3.47-2v-4c0-1.105 1.553-2 3.47-2zm0 18H1450v8H46.47c-1.917 0-3.47-.895-3.47-2v-4c0-1.105 1.553-2 3.47-2zm0 18H1450v8H46.47c-1.917 0-3.47-.895-3.47-2v-4c0-1.105 1.553-2 3.47-2zm0 18H1450v8H46.47c-1.917 0-3.47-.895-3.47-2v-4c0-1.105 1.553-2 3.47-2zm0 18H1450v8H46.47c-1.917 0-3.47-.895-3.47-2v-4c0-1.105 1.553-2 3.47-2zm0 18H1450v8H46.47c-1.917 0-3.47-.895-3.47-2v-4c0-1.105 1.553-2 3.47-2zm0 18H1450v8H46.47c-1.917 0-3.47-.895-3.47-2v-4c0-1.105 1.553-2 3.47-2zm0 18H1450v8H46.47c-1.917 0-3.47-.895-3.47-2v-4c0-1.105 1.553-2 3.47-2zm0 18H1450v8H46.47c-1.917 0-3.47-.895-3.47-2v-4c0-1.105 1.553-2 3.47-2zm60.998 297H1448v8H107.468c-1.915 0-3.468-.895-3.468-2v-4c0-1.105 1.553-2 3.468-2z" opacity=".2"/><circle cx="52.5" cy="681.5" r="11.5" fill="#ECEDEF"/><circle cx="60.5" cy="115.5" r="20.5" fill="#ECEDEF"/><path fill="#525C69" opacity=".13" d="M42 160h154v1H42z"/><rect width="103" height="8" x="213" y="155" fill="#9EA6AD" opacity=".2" rx="2"/><rect width="204" height="8" x="92" y="123" fill="#9EA6AD" opacity=".2" rx="2"/><rect width="103" height="8" x="333" y="155" fill="#9EA6AD" opacity=".2" rx="2"/><path fill="#9EA6AD" d="M757.48 155H1450v8H757.48c-1.922 0-3.48-.895-3.48-2v-4c0-1.105 1.558-2 3.48-2z" opacity=".2"/></g></svg>