<svg xmlns="http://www.w3.org/2000/svg" width="311" height="710" viewBox="0 0 311 710"><g fill="none" fill-rule="evenodd"><path fill="#9EA6AD" d="M0 184h294a2 2 0 0 1 2 2v4a2 2 0 0 1-2 2H0v-8z" opacity=".2"/><rect width="97" height="14" x="38" y="28" fill="#9EA6AD" opacity=".2" rx="2"/><rect width="64" height="14" x="172" y="28" fill="#9EA6AD" opacity=".2" rx="2"/><rect width="41" height="14" x="269" y="28" fill="#9EA6AD" opacity=".2" rx="2"/><path fill="#9EA6AD" d="M0 201h294a2 2 0 0 1 2 2v4a2 2 0 0 1-2 2H0v-8zm0 18h294a2 2 0 0 1 2 2v4a2 2 0 0 1-2 2H0v-8zm0 18h294a2 2 0 0 1 2 2v4a2 2 0 0 1-2 2H0v-8zm0 18h294a2 2 0 0 1 2 2v4a2 2 0 0 1-2 2H0v-8zm0 18h294a2 2 0 0 1 2 2v4a2 2 0 0 1-2 2H0v-8zm0 18h294a2 2 0 0 1 2 2v4a2 2 0 0 1-2 2H0v-8zm0 18h294a2 2 0 0 1 2 2v4a2 2 0 0 1-2 2H0v-8zm0 18h294a2 2 0 0 1 2 2v4a2 2 0 0 1-2 2H0v-8zm0 18h294a2 2 0 0 1 2 2v4a2 2 0 0 1-2 2H0v-8zm0 18h294a2 2 0 0 1 2 2v4a2 2 0 0 1-2 2H0v-8zm0 18h158a2 2 0 0 1 2 2v4a2 2 0 0 1-2 2H0v-8zm0 297h2a2 2 0 0 1 2 2v4a2 2 0 0 1-2 2H0v-8z" opacity=".2"/><path fill="#525C69" opacity=".13" d="M175 160.155h124v-1H175z"/><path fill="#9EA6AD" d="M0 155h12a2 2 0 0 1 2 2v4a2 2 0 0 1-2 2H0v-8z" opacity=".2"/><rect width="103" height="8" x="52" y="155" fill="#9EA6AD" opacity=".2" rx="2"/></g></svg>