<svg xmlns="http://www.w3.org/2000/svg" width="1415" height="666" viewBox="0 0 1415 666">
  <g fill="none" fill-rule="evenodd" transform="translate(-35 -27)">
    <path fill="#9EA6AD" fill-rule="nonzero" d="M46.4697904,184 L1450,184 L1450,192 L46.4697904,192 L46.4697904,192 C44.5534781,192 43,191.104569 43,190 L43,186 L43,186 C43,184.895431 44.5534781,184 46.4697904,184 Z" opacity=".2"/>
    <rect width="374" height="14" x="91" y="99" fill="#9EA6AD" fill-rule="nonzero" opacity=".2" rx="2"/>
    <rect width="64" height="14" x="714" y="28" fill="#9EA6AD" fill-rule="nonzero" opacity=".2" rx="2"/>
    <rect width="41" height="14" x="811" y="28" fill="#9EA6AD" fill-rule="nonzero" opacity=".2" rx="2"/>
    <rect width="430" height="22" x="35" y="27" fill="#9EA6AD" fill-rule="nonzero" opacity=".2" rx="2"/>
    <path fill="#9EA6AD" fill-rule="nonzero" d="M46.4697904,201 L1450,201 L1450,209 L46.4697904,209 L46.4697904,209 C44.5534781,209 43,208.104569 43,207 L43,203 L43,203 C43,201.895431 44.5534781,201 46.4697904,201 Z M46.4697904,219 L1450,219 L1450,227 L46.4697904,227 L46.4697904,227 C44.5534781,227 43,226.104569 43,225 L43,221 L43,221 C43,219.895431 44.5534781,219 46.4697904,219 Z M46.4697904,237 L1450,237 L1450,245 L46.4697904,245 L46.4697904,245 C44.5534781,245 43,244.104569 43,243 L43,239 L43,239 C43,237.895431 44.5534781,237 46.4697904,237 Z M46.4697904,255 L1450,255 L1450,263 L46.4697904,263 L46.4697904,263 C44.5534781,263 43,262.104569 43,261 L43,257 L43,257 C43,255.895431 44.5534781,255 46.4697904,255 Z M46.4697904,273 L1450,273 L1450,281 L46.4697904,281 L46.4697904,281 C44.5534781,281 43,280.104569 43,279 L43,275 L43,275 C43,273.895431 44.5534781,273 46.4697904,273 Z M46.4697904,291 L1450,291 L1450,299 L46.4697904,299 L46.4697904,299 C44.5534781,299 43,298.104569 43,297 L43,293 L43,293 C43,291.895431 44.5534781,291 46.4697904,291 Z M46.4697904,309 L1450,309 L1450,317 L46.4697904,317 L46.4697904,317 C44.5534781,317 43,316.104569 43,315 L43,311 L43,311 C43,309.895431 44.5534781,309 46.4697904,309 Z M46.4697904,327 L1450,327 L1450,335 L46.4697904,335 L46.4697904,335 C44.5534781,335 43,334.104569 43,333 L43,329 L43,329 C43,327.895431 44.5534781,327 46.4697904,327 Z M46.4697904,345 L1450,345 L1450,353 L46.4697904,353 L46.4697904,353 C44.5534781,353 43,352.104569 43,351 L43,347 L43,347 C43,345.895431 44.5534781,345 46.4697904,345 Z M46.4697904,363 L1450,363 L1450,371 L46.4697904,371 L46.4697904,371 C44.5534781,371 43,370.104569 43,369 L43,365 L43,365 C43,363.895431 44.5534781,363 46.4697904,363 Z M46.4697904,381 L1450,381 L1450,389 L46.4697904,389 L46.4697904,389 C44.5534781,389 43,388.104569 43,387 L43,383 L43,383 C43,381.895431 44.5534781,381 46.4697904,381 Z M107.468387,678 L1448,678 L1448,686 L107.468387,686 L107.468387,686 C105.552851,686 104,685.104569 104,684 L104,680 L104,680 C104,678.895431 105.552851,678 107.468387,678 Z" opacity=".2"/>
    <rect width="853" height="708" x=".5" y=".5" stroke="#FF0000" opacity="0"/>
    <circle cx="52.5" cy="681.5" r="11.5" fill="#ECEDEF" fill-rule="nonzero"/>
    <circle cx="60.5" cy="115.5" r="20.5" fill="#ECEDEF" fill-rule="nonzero"/>
    <rect width="154" height="1" x="42" y="160" fill="#525C69" fill-rule="nonzero" opacity=".13"/>
    <rect width="103" height="8" x="213" y="155" fill="#9EA6AD" fill-rule="nonzero" opacity=".2" rx="2"/>
    <rect width="204" height="8" x="92" y="123" fill="#9EA6AD" fill-rule="nonzero" opacity=".2" rx="2"/>
    <rect width="103" height="8" x="333" y="155" fill="#9EA6AD" fill-rule="nonzero" opacity=".2" rx="2"/>
    <path fill="#9EA6AD" fill-rule="nonzero" d="M757.48,155 L1450,155 L1450,163 L757.48,163 L757.48,163 C755.55805,163 754,162.104569 754,161 L754,157 L754,157 C754,155.895431 755.55805,155 757.48,155 Z" opacity=".2"/>
  </g>
</svg>
