<svg xmlns:xlink="http://www.w3.org/1999/xlink" id="svg_wrapper" xmlns="http://www.w3.org/2000/svg"  viewBox="0 0 1200 100%" preserveAspectRatio="xMinYMin meet" style="width: 100%; height: 1200px">
    <svg height="1200px">
        <rect fill="#EEF2F4" width="100%" height="1200"/>
        <rect fill="#fff"    width="100%" height="511" x="20" y="73"/>
        <rect fill="#EEF2F4" width="20" height="1200" x="100%" transform="translate(-20, 0)"/>
    </svg>

    <svg id="title" x="0" y="0">
        <rect fill="#DEE2E6" rx="2" ry="2" width="318" height="13" x="28" y="31"/>
        <rect fill="#DEE2E6" rx="2" ry="2" width="100" height="13" x="100%" y="31" transform="translate(-155, 0)"/>
        <rect fill="#DEE2E6" rx="2" ry="2" width="100" height="13" x="100%" y="31" transform="translate(-300, 0)"/>
        <rect fill="transparent" rx="2" ry="2" width="130" height="37" x="100%" y="19" transform="translate(-170, 0)" stroke="#DEE2E6" stroke-width="1"/>
        <rect fill="transparent" rx="2" ry="2" width="130" height="37" x="100%" y="19" transform="translate(-315, 0)" stroke="#DEE2E6" stroke-width="1"/>
    </svg>

    <svg id="post" x="0" y="55">
        <rect fill="#ECEDEF" rx="2" ry="2" width="400" height="9" x="40" y="40"></rect>

        <svg id="line" y="65" x="40">
            <rect fill="#ECEDEF" rx="2" ry="2" width="100%" height="1" x="0" y="0"></rect>
            <rect fill="#ECEDEF" rx="2" ry="2" width="10%" height="9" x="0" y="29"></rect>
            <rect fill="#ECEDEF" rx="2" ry="2" width="10%" height="9" x="12%" y="29"></rect>
            <rect fill="#ECEDEF" rx="2" ry="2" width="10%" height="9" x="24%" y="29"></rect>
            <rect fill="#ECEDEF" rx="2" ry="2" width="10%" height="9" x="36%" y="29"></rect>
            <rect fill="#ECEDEF" rx="2" ry="2" width="10%" height="9" x="48%" y="29"></rect>
            <rect fill="#ECEDEF" rx="2" ry="2" width="10%" height="9" x="60%" y="29"></rect>
            <rect fill="#ECEDEF" rx="2" ry="2" width="10%" height="9" x="72%" y="29"></rect>
            <rect fill="#ECEDEF" rx="2" ry="2" width="10%" height="9" x="84%" y="29"></rect>
            <rect fill="#ECEDEF" rx="2" ry="2" width="10%" height="9" x="96%" y="29"></rect>
        </svg>
        <use xlink:href="#line" y="65"/>
        <use xlink:href="#line" y="130"/>
        <use xlink:href="#line" y="195"/>
        <use xlink:href="#line" y="260"/>
        <use xlink:href="#line" y="325"/>
        <use xlink:href="#line" y="390"/>
    </svg>

    <rect id="msk1" width="100%" fill="url(#msk_gd)" mask="url(#mask)" height="1200"/>

    <mask id="mask" fill="white">
        <use xlink:href="#post"/>
        <use xlink:href="#title"/>
    </mask>

    <linearGradient x1="66.6%" y1="50%" x2="33.3%" y2="50%" id="msk_gd">
        <stop stop-color="#000" stop-opacity="0" offset="0%"/>
        <stop stop-color="#000" stop-opacity="0.07" offset="50%"/>
        <stop stop-color="#000" stop-opacity="0" offset="100%"/>
    </linearGradient>

    <animate xlink:href="#msk1" attributeName="x" from="-100%" to="100%" dur="1s" begin="0s" repeatCount="indefinite"/>

    <rect fill="#fff" width="20" height="511" x="100%" y="73" transform="translate(-40, 0)"/>
    <rect fill="#EEF2F4" width="20" height="1200" x="100%" transform="translate(-20, 0)"/>
</svg>
