<svg width="390" height="282" viewBox="0 0 390 282" fill="none" xmlns="http://www.w3.org/2000/svg">
<path opacity="0.117164" fill-rule="evenodd" clip-rule="evenodd" d="M381.596 207.467H361.642C361.471 207.467 361.302 207.46 361.134 207.448C356.624 207.343 353 203.597 353 198.991C353.001 196.746 353.88 194.593 355.444 193.007C356.245 192.193 357.193 191.563 358.224 191.142C358.207 190.913 358.198 190.683 358.198 190.45C358.2 188.081 359.127 185.81 360.777 184.136C362.427 182.462 364.664 181.522 366.995 181.523C369.982 181.527 372.619 183.045 374.204 185.361C374.957 185.09 375.767 184.942 376.611 184.943C380.34 184.947 383.402 187.835 383.757 191.527C387.33 192.319 390.003 195.552 390 199.418C389.996 203.873 386.439 207.482 382.054 207.48C381.9 207.48 381.748 207.475 381.596 207.467Z" fill="#2FC6F6"/>
<path opacity="0.117164" fill-rule="evenodd" clip-rule="evenodd" d="M33.2332 106.632H10.0429C9.84445 106.632 9.64773 106.624 9.45297 106.61C4.2119 106.489 0.000264798 102.167 0 96.8519C0.00152375 94.2615 1.02323 91.7778 2.84035 89.9471C3.77178 89.0088 4.8731 88.2814 6.07131 87.7955C6.05126 87.5319 6.04105 87.2656 6.04105 86.9968C6.0427 84.2635 7.12079 81.6429 9.03815 79.7113C10.9555 77.7798 13.5551 76.6956 16.265 76.6973C19.7363 76.7015 22.801 78.4524 24.6429 81.1247C25.5175 80.8122 26.4591 80.6423 27.44 80.6428C31.7732 80.6481 35.3321 83.9797 35.7447 88.2403C39.8966 89.1533 43.0037 92.884 43 97.3446C42.9958 102.485 38.862 106.649 33.7655 106.647C33.5868 106.647 33.4093 106.642 33.2332 106.632Z" fill="#2FC6F6"/>
<path fill-rule="evenodd" clip-rule="evenodd" d="M221.556 44.5042C184.583 30.0161 140.913 37.6874 111.033 67.5173C81.4303 97.0704 73.613 140.136 87.5818 176.826L88.0096 177.932L88.0767 177.994C89.0221 178.822 90.4627 178.786 91.365 177.885C91.905 177.346 92.1348 176.615 92.0523 175.913C78.3332 140.678 85.7209 99.1402 114.215 70.694C142.787 42.1695 184.546 34.8322 219.902 48.6832L220.253 48.8228L220.387 48.8115L220.526 48.7912C221.835 48.5607 222.709 47.3145 222.478 46.0076C222.368 45.3836 222.026 44.8586 221.556 44.5042ZM253.515 209.761C224.22 239.007 181.065 245.98 145.161 230.683L141.744 234.096C179.609 251.021 225.614 243.969 256.697 212.938C287.1 182.586 294.523 137.98 278.966 100.666C278.925 100.624 278.883 100.583 278.839 100.543C277.851 99.6553 276.329 99.7349 275.44 100.721C275 101.208 274.797 101.825 274.826 102.432C289.683 138.107 282.58 180.745 253.515 209.761Z" fill="#BDE5F6"/>
<path opacity="0.0938416" fill-rule="evenodd" clip-rule="evenodd" d="M307.501 140.091C307.501 207.91 252.208 262.886 184 262.886C115.794 262.886 60.5008 207.91 60.5008 140.091C60.5008 72.2737 115.793 17.2969 184 17.2969C252.208 17.2969 307.501 72.2737 307.501 140.091ZM262.99 140.091C262.99 183.374 227.625 218.46 183.999 218.46C140.374 218.46 105.009 183.374 105.009 140.091C105.009 96.8096 140.373 61.7227 183.999 61.7227C227.625 61.7227 262.99 96.8096 262.99 140.091Z" fill="#38BFFF"/>
<path opacity="0.0619187" fill-rule="evenodd" clip-rule="evenodd" d="M206.669 165.52H163.38C163.01 165.52 162.642 165.506 162.279 165.479C152.496 165.255 144.634 157.185 144.633 147.265C144.636 142.429 146.543 137.793 149.935 134.376C151.674 132.624 153.73 131.266 155.966 130.359C155.929 129.867 155.91 129.37 155.91 128.868C155.913 123.766 157.925 118.874 161.505 115.269C165.084 111.663 169.936 109.639 174.995 109.643C181.474 109.651 187.195 112.919 190.633 117.907C192.266 117.324 194.024 117.007 195.855 117.008C203.943 117.017 210.587 123.236 211.357 131.19C219.107 132.894 224.907 139.858 224.9 148.184C224.892 157.78 217.176 165.553 207.662 165.549C207.329 165.549 206.997 165.539 206.669 165.52Z" fill="#2FC6F6"/>
<path opacity="0.0460612" fill-rule="evenodd" clip-rule="evenodd" d="M113.687 181.868L132.528 163.058C135.256 169.422 139.221 175.385 144.424 180.579C149.395 185.541 155.067 189.376 161.122 192.082L142.52 210.653L113.687 181.868ZM223.62 101.516C218.417 96.3213 212.445 92.3626 206.069 89.6398L231.327 64.4237L260.161 93.209L235.142 118.186C232.431 112.141 228.591 106.478 223.62 101.516Z" fill="#2FC6F6"/>
<g filter="url(#filter0_d_3540_482312)">
<rect x="153.627" y="140.059" width="41.5861" height="41.5165" rx="5" fill="#C5F03F"/>
</g>
<g filter="url(#filter1_d_3540_482312)">
<path fill-rule="evenodd" clip-rule="evenodd" d="M113.5 136.961C113.5 135.856 114.395 134.961 115.5 134.961H201.238C202.343 134.961 203.238 135.856 203.238 136.961V188.316C203.238 189.421 202.343 190.316 201.238 190.316H115.5C114.395 190.316 113.5 189.421 113.5 188.316V136.961Z" fill="#A0E8FF"/>
</g>
<path fill-rule="evenodd" clip-rule="evenodd" d="M193.976 181.045L186.585 168.755C186.015 167.811 184.658 167.811 184.101 168.755L176.709 181.045C176.127 182.013 176.83 183.235 177.957 183.235H192.74C193.855 183.235 194.558 182.013 193.976 181.045ZM184.282 173.037C184.282 172.493 184.719 172.057 185.264 172.057H185.397C185.942 172.057 186.379 172.493 186.379 173.037V176.702C186.379 177.247 185.942 177.682 185.397 177.682H185.264C184.719 177.682 184.282 177.247 184.282 176.702V173.037ZM186.572 180.15C186.572 180.828 186.015 181.385 185.337 181.385C184.658 181.385 184.101 180.828 184.101 180.15C184.101 179.473 184.658 178.916 185.337 178.916C186.015 178.916 186.572 179.473 186.572 180.15Z" fill="#67D7FB"/>
<rect opacity="0.882673" x="122.255" y="170.65" width="11.6733" height="11.6538" rx="5.82688" fill="#67D7FB"/>
<rect opacity="0.882673" x="139.035" y="170.65" width="11.6733" height="11.6538" rx="5.82688" fill="#67D7FB"/>
<rect x="123.464" y="144.43" width="62.0143" height="5.09852" rx="2.54926" fill="#67D7FB"/>
<rect x="123.464" y="154.627" width="62.0143" height="5.09852" rx="2.54926" fill="#67D7FB"/>
<g filter="url(#filter2_d_3540_482312)">
<rect x="200.806" y="90.2832" width="41.5861" height="41.5165" rx="5" fill="#C5F03F"/>
</g>
<g filter="url(#filter3_d_3540_482312)">
<path fill-rule="evenodd" clip-rule="evenodd" d="M160.679 87.1855C160.679 86.081 161.574 85.1855 162.679 85.1855H248.417C249.522 85.1855 250.417 86.081 250.417 87.1855V138.541C250.417 139.646 249.522 140.541 248.417 140.541H162.679C161.574 140.541 160.679 139.646 160.679 138.541V87.1855Z" fill="#B3E600"/>
</g>
<g opacity="0.536319">
<rect opacity="0.882673" x="169.434" y="120.877" width="11.6733" height="11.6538" rx="5.82688" fill="#94B817"/>
<rect opacity="0.882673" x="186.214" y="120.877" width="11.6733" height="11.6538" rx="5.82688" fill="#94B817"/>
<rect x="170.643" y="94.6562" width="62.0143" height="5.09852" rx="2.54926" fill="#94B817"/>
<rect x="170.643" y="104.854" width="62.0143" height="5.09852" rx="2.54926" fill="#94B817"/>
</g>
<g opacity="0.86563" filter="url(#filter4_d_3540_482312)">
<path d="M184 176.032C164.118 176.032 148 159.941 148 140.092C148 120.243 164.117 104.152 184 104.152C203.882 104.152 220 120.243 220 140.092C220 159.941 203.882 176.032 184 176.032Z" fill="#FF5752"/>
</g>
<path fill-rule="evenodd" clip-rule="evenodd" d="M202.16 149.928L186.612 124.076C185.414 122.092 182.56 122.092 181.387 124.076L165.84 149.928C164.617 151.964 166.095 154.534 168.465 154.534H199.56C201.905 154.534 203.383 151.964 202.16 149.928ZM181.77 133.083C181.77 131.938 182.687 131.022 183.834 131.022H184.115C185.261 131.022 186.179 131.938 186.179 133.083V140.793C186.179 141.938 185.261 142.854 184.115 142.854H183.834C182.687 142.854 181.77 141.938 181.77 140.793V133.083ZM186.587 148.046C186.587 149.471 185.414 150.641 183.987 150.641C182.56 150.641 181.387 149.471 181.387 148.046C181.387 146.621 182.56 145.451 183.987 145.451C185.414 145.451 186.587 146.621 186.587 148.046Z" fill="white"/>
<defs>
<filter id="filter0_d_3540_482312" x="147.627" y="136.059" width="53.5861" height="53.5156" filterUnits="userSpaceOnUse" color-interpolation-filters="sRGB">
<feFlood flood-opacity="0" result="BackgroundImageFix"/>
<feColorMatrix in="SourceAlpha" type="matrix" values="0 0 0 0 0 0 0 0 0 0 0 0 0 0 0 0 0 0 127 0" result="hardAlpha"/>
<feOffset dy="2"/>
<feGaussianBlur stdDeviation="3"/>
<feColorMatrix type="matrix" values="0 0 0 0 0 0 0 0 0 0 0 0 0 0 0 0 0 0 0.179469 0"/>
<feBlend mode="normal" in2="BackgroundImageFix" result="effect1_dropShadow_3540_482312"/>
<feBlend mode="normal" in="SourceGraphic" in2="effect1_dropShadow_3540_482312" result="shape"/>
</filter>
<filter id="filter1_d_3540_482312" x="107.5" y="130.961" width="101.738" height="67.3555" filterUnits="userSpaceOnUse" color-interpolation-filters="sRGB">
<feFlood flood-opacity="0" result="BackgroundImageFix"/>
<feColorMatrix in="SourceAlpha" type="matrix" values="0 0 0 0 0 0 0 0 0 0 0 0 0 0 0 0 0 0 127 0" result="hardAlpha"/>
<feOffset dy="2"/>
<feGaussianBlur stdDeviation="3"/>
<feColorMatrix type="matrix" values="0 0 0 0 0 0 0 0 0 0 0 0 0 0 0 0 0 0 0.0957441 0"/>
<feBlend mode="normal" in2="BackgroundImageFix" result="effect1_dropShadow_3540_482312"/>
<feBlend mode="normal" in="SourceGraphic" in2="effect1_dropShadow_3540_482312" result="shape"/>
</filter>
<filter id="filter2_d_3540_482312" x="194.806" y="86.2832" width="53.5861" height="53.5156" filterUnits="userSpaceOnUse" color-interpolation-filters="sRGB">
<feFlood flood-opacity="0" result="BackgroundImageFix"/>
<feColorMatrix in="SourceAlpha" type="matrix" values="0 0 0 0 0 0 0 0 0 0 0 0 0 0 0 0 0 0 127 0" result="hardAlpha"/>
<feOffset dy="2"/>
<feGaussianBlur stdDeviation="3"/>
<feColorMatrix type="matrix" values="0 0 0 0 0 0 0 0 0 0 0 0 0 0 0 0 0 0 0.179469 0"/>
<feBlend mode="normal" in2="BackgroundImageFix" result="effect1_dropShadow_3540_482312"/>
<feBlend mode="normal" in="SourceGraphic" in2="effect1_dropShadow_3540_482312" result="shape"/>
</filter>
<filter id="filter3_d_3540_482312" x="154.679" y="81.1855" width="101.738" height="67.3555" filterUnits="userSpaceOnUse" color-interpolation-filters="sRGB">
<feFlood flood-opacity="0" result="BackgroundImageFix"/>
<feColorMatrix in="SourceAlpha" type="matrix" values="0 0 0 0 0 0 0 0 0 0 0 0 0 0 0 0 0 0 127 0" result="hardAlpha"/>
<feOffset dy="2"/>
<feGaussianBlur stdDeviation="3"/>
<feColorMatrix type="matrix" values="0 0 0 0 0 0 0 0 0 0 0 0 0 0 0 0 0 0 0.0957441 0"/>
<feBlend mode="normal" in2="BackgroundImageFix" result="effect1_dropShadow_3540_482312"/>
<feBlend mode="normal" in="SourceGraphic" in2="effect1_dropShadow_3540_482312" result="shape"/>
</filter>
<filter id="filter4_d_3540_482312" x="142" y="100.152" width="84" height="83.8789" filterUnits="userSpaceOnUse" color-interpolation-filters="sRGB">
<feFlood flood-opacity="0" result="BackgroundImageFix"/>
<feColorMatrix in="SourceAlpha" type="matrix" values="0 0 0 0 0 0 0 0 0 0 0 0 0 0 0 0 0 0 127 0" result="hardAlpha"/>
<feOffset dy="2"/>
<feGaussianBlur stdDeviation="3"/>
<feColorMatrix type="matrix" values="0 0 0 0 0 0 0 0 0 0 0 0 0 0 0 0 0 0 0.0741641 0"/>
<feBlend mode="normal" in2="BackgroundImageFix" result="effect1_dropShadow_3540_482312"/>
<feBlend mode="normal" in="SourceGraphic" in2="effect1_dropShadow_3540_482312" result="shape"/>
</filter>
</defs>
</svg>
