<svg width="18" height="19" viewBox="0 0 18 19" fill="none" xmlns="http://www.w3.org/2000/svg">
<g id="Icon. 2 Persons">
<g id="Icon" opacity="0.5">
<path d="M11.1539 11.5479C11.1539 11.5479 11.5274 12.9546 11.7404 13.9947C11.778 14.1786 11.6701 14.3603 11.49 14.4134C10.3288 14.7558 9.01193 14.9498 7.61604 14.9518H7.57432C5.87388 14.9494 4.29068 14.662 2.96338 14.1686C2.6983 14.0701 2.55148 13.791 2.60602 13.5135C2.73624 12.851 2.87895 12.1473 2.9535 11.8528C3.11189 11.227 3.99939 10.7619 4.81568 10.4045C5.02907 10.3111 5.15781 10.2365 5.2879 10.1612C5.41532 10.0874 5.54404 10.0128 5.75488 9.91908C5.77868 9.80402 5.78824 9.68648 5.78336 9.56909L6.14506 9.52534C6.14506 9.52534 6.1926 9.61328 6.11614 9.09616C6.11614 9.09616 5.71019 8.98788 5.69135 8.16453C5.69135 8.16453 5.38639 8.26799 5.36799 7.76903C5.36424 7.66924 5.33903 7.57335 5.31488 7.48154C5.25704 7.26161 5.20535 7.06504 5.46964 6.89405L5.27882 6.37694C5.27882 6.37694 5.07858 4.37673 5.95797 4.53948C5.60131 3.96483 8.61016 3.48665 8.80996 5.24843C8.8886 5.7795 8.8886 6.31923 8.80996 6.8503C8.80996 6.8503 9.25951 6.7978 8.95937 7.66754C8.95937 7.66754 8.79419 8.29271 8.54049 8.15162C8.54049 8.15162 8.58168 8.94282 8.18207 9.07691C8.18207 9.07691 8.21056 9.49822 8.21056 9.52687L8.54465 9.57871C8.54465 9.57871 8.53545 9.93002 8.60118 9.96808C8.90572 10.1683 9.23956 10.3201 9.59076 10.418C10.6281 10.6858 11.1539 11.1454 11.1539 11.5479Z" fill="white"/>
<path d="M15.7653 11.9414C15.7732 12.0973 15.7821 12.2743 15.7911 12.4537C15.8045 12.7222 15.638 12.9679 15.3805 13.045C14.5424 13.296 13.5921 13.4989 12.5613 13.642H12.2371C12.2177 13.3674 11.9689 12.4165 11.8246 11.8646C11.7674 11.6459 11.7266 11.4898 11.7229 11.4635C11.7043 10.9438 11.2471 10.4796 10.4654 10.1624C10.5245 10.0825 10.5752 9.99666 10.6166 9.90629C10.7262 9.77026 10.8691 9.66478 11.0315 9.60005L11.044 9.19318L10.1859 8.925C10.1859 8.925 9.96526 8.82197 9.94335 8.82197C9.96874 8.75937 10.0005 8.69956 10.0382 8.64348C10.0546 8.59973 10.1585 8.27336 10.1585 8.27336C10.0335 8.43387 9.88697 8.57638 9.72296 8.69685C9.87308 8.43168 10.0004 8.15426 10.1035 7.86759C10.1715 7.59164 10.2171 7.31066 10.2398 7.02738C10.2986 6.51259 10.3903 6.00209 10.5145 5.49901C10.6036 5.24797 10.7607 5.0265 10.9682 4.85918C11.2749 4.64643 11.6328 4.5192 12.0051 4.49059H12.0489C12.4219 4.51896 12.7805 4.6462 13.0878 4.85918C13.2956 5.02618 13.4527 5.24755 13.5418 5.49857C13.6658 6.00169 13.7576 6.51218 13.8167 7.02695C13.8431 7.30394 13.891 7.57848 13.9598 7.84812C14.0628 8.13985 14.1879 8.42336 14.3339 8.69619C14.1696 8.57604 14.0228 8.43374 13.8975 8.27336C13.8975 8.27336 13.9784 8.56954 13.9946 8.61329C14.039 8.6794 14.0785 8.74863 14.1129 8.82044C14.0916 8.82044 13.8704 8.92347 13.8704 8.92347L13.0122 9.19165L13.0245 9.59874C13.187 9.66328 13.33 9.76879 13.4394 9.90498C13.4914 10.0357 13.5736 10.1523 13.6793 10.2451C13.8864 10.3171 14.086 10.4089 14.2755 10.519C14.5623 10.6784 14.7369 10.7239 15.008 10.8908C15.5204 11.206 15.7378 11.3942 15.7652 11.9393L15.7653 11.9414Z" fill="white"/>
</g>
</g>
</svg>
