<svg width="122" height="20" viewBox="0 0 122 20" fill="none" xmlns="http://www.w3.org/2000/svg">
	<path opacity="0.7" d="M0 0V19.2121H19.1276L0 0Z" fill="white"/>
	<path d="M19.1276 0H0V19.2121L19.1276 0Z" fill="white"/>
	<path d="M85.3778 3.49707C82.569 3.49707 80.1024 5.78262 80.1024 8.60384V14.8489H82.3646V12.5768H88.3911V14.8489H90.6532V8.60384C90.6532 5.78262 88.1866 3.49707 85.3778 3.49707ZM88.3911 10.3091H82.3646V8.6083C82.3646 7.04145 83.8179 5.76922 85.3778 5.76922C86.9378 5.76922 88.3911 7.04145 88.3911 8.6083V10.3091Z" fill="white"/>
	<path d="M116.648 3.49707C113.839 3.49707 111.372 5.78262 111.372 8.60384V14.8489H113.634V12.5768H119.661V14.8489H121.923V8.60384C121.923 5.78262 119.457 3.49707 116.648 3.49707ZM119.661 10.3091H113.634V8.6083C113.634 7.04145 115.088 5.76922 116.648 5.76922C118.208 5.76922 119.661 7.04145 119.661 8.6083V10.3091V10.3091Z" fill="white"/>
	<path d="M62.3962 3.49707C59.2763 3.49707 56.743 6.03706 56.743 9.17522C56.743 12.3089 59.2719 14.8534 62.3962 14.8534C65.5161 14.8534 68.0494 12.3134 68.0494 9.17522C68.0494 6.03706 65.5161 3.49707 62.3962 3.49707ZM62.3962 12.5768C60.5252 12.5768 59.0052 11.0501 59.0052 9.17076C59.0052 7.29143 60.5252 5.76476 62.3962 5.76476C64.2673 5.76476 65.7872 7.29143 65.7872 9.17076C65.7872 11.0546 64.2673 12.5768 62.3962 12.5768Z" fill="white"/>
	<path d="M54.3479 8.57266C54.6279 8.07716 54.7879 7.51024 54.7879 6.89867C54.7879 5.01935 53.2679 3.49268 51.3969 3.49268H46.9525V14.8445H52.5302C54.4012 14.8445 55.9212 13.3178 55.9212 11.4385C55.9168 10.2377 55.2901 9.17976 54.3479 8.57266ZM49.2102 5.76483H51.3969C52.0191 5.76483 52.5257 6.27372 52.5257 6.89867C52.5257 7.52363 52.0191 8.03252 51.3969 8.03252H49.2102V5.76483ZM52.5257 12.5768H49.2102V10.3047H52.5257C53.1479 10.3047 53.6546 10.8136 53.6546 11.4385C53.6546 12.0635 53.1479 12.5768 52.5257 12.5768Z" fill="white"/>
	<path d="M39.9789 3.49707C36.8589 3.49707 34.3257 6.03706 34.3257 9.17522C34.3257 12.3089 36.8545 14.8534 39.9789 14.8534C43.1032 14.8534 45.632 12.3134 45.632 9.17522C45.632 6.03706 43.0988 3.49707 39.9789 3.49707ZM39.9789 12.5768C38.1078 12.5768 36.5878 11.0501 36.5878 9.17076C36.5878 7.29143 38.1078 5.76476 39.9789 5.76476C41.8499 5.76476 43.3699 7.29143 43.3699 9.17076C43.3699 11.0546 41.8499 12.5768 39.9789 12.5768Z" fill="white"/>
	<path d="M97.8005 8.05923L97.8138 8.03691H95.1783C94.5561 8.03691 94.0494 7.52802 94.0494 6.90307C94.0494 6.27812 94.5561 5.76922 95.1783 5.76922H99.3204L100.827 3.49707H95.1739C93.3028 3.49707 91.7828 5.02374 91.7828 6.90307C91.7828 8.66187 93.1072 10.1082 94.8094 10.2867L94.7961 10.3091H97.4316C98.0538 10.3091 98.5605 10.818 98.5605 11.4429C98.5605 12.0679 98.0538 12.5768 97.4316 12.5768H93.2895L91.7828 14.8489H97.436C99.3071 14.8489 100.827 13.3222 100.827 11.4429C100.827 9.68411 99.4982 8.23779 97.8005 8.05923Z" fill="white"/>
	<path d="M104.591 3.49707C102.72 3.49707 101.2 5.02374 101.2 6.90307C101.2 8.66187 102.524 10.1082 104.226 10.2867L104.213 10.3091H106.848C107.47 10.3091 107.977 10.818 107.977 11.4429C107.977 12.0679 107.47 12.5768 106.848 12.5768H102.706L101.2 14.8489H106.853C108.724 14.8489 110.244 13.3222 110.244 11.4429C110.244 9.68411 108.919 8.23779 107.217 8.05923L107.231 8.03691H104.595C103.973 8.03691 103.466 7.52802 103.466 6.90307C103.466 6.27812 103.973 5.76922 104.595 5.76922H108.737L110.244 3.49707H104.591V3.49707Z" fill="white"/>
	<path d="M26.6064 14.8479H24.3442V3.49609H29.6685C30.6196 3.49609 31.4374 3.82196 32.1263 4.47816C32.8285 5.14329 33.3751 6.1209 33.3885 7.08958C33.3973 7.96898 33.1885 8.68321 32.6329 9.36173C32.104 10.0179 31.5663 10.5134 30.7485 10.6875L33.5751 14.8479H30.9396L28.2819 10.9197C28.1753 10.7723 28.0064 10.6875 27.8241 10.6875H26.6064V14.8479ZM26.6064 8.60286H29.6197C30.4508 8.60286 31.1263 7.92434 31.1263 7.08958C31.1263 6.25482 30.4508 5.5763 29.6197 5.5763H26.6064V8.60286Z" fill="white"/>
	<path d="M78.8583 3.49707L74.2362 8.43867L78.9738 14.8445H76.3383L72.734 10.0412L71.8184 11.1394V14.84H69.5563V3.49707H71.8184V7.97442L75.8939 3.49707H78.8583V3.49707Z" fill="white"/>
</svg>
