<svg width="134" height="36" viewBox="0 0 134 36" fill="none" xmlns="http://www.w3.org/2000/svg">
	<path fill-rule="evenodd" clip-rule="evenodd" d="M125.255 2.94312L128.296 10.3129L131.17 2.94312H133.819L127.307 18.9356H124.751L127.046 13.343L122.568 2.94312H125.255ZM115.719 2.71863C117.156 2.71863 118.444 3.31713 119.227 4.25255V2.9431H121.746V13.8856H119.227V12.4639C118.425 13.474 117.119 14.11 115.682 14.11C113.051 14.11 110.308 11.9962 110.308 8.42372C110.308 4.79494 112.958 2.71863 115.719 2.71863ZM104.915 0.23096C107.732 0.23096 109.822 2.40072 109.822 5.09408C109.822 7.80644 107.732 9.97619 104.896 9.97619H102.788V13.8856H100.25V0.23096H104.915ZM4.71967 0.20752C6.52272 0.20752 9.01539 0.642531 9.01539 3.42404V4.32345H5.83597V3.5323C5.83597 2.83659 5.39893 2.37529 4.65245 2.37529C3.85595 2.37529 3.57913 2.82289 3.48899 3.23272C3.45659 3.37566 3.44182 3.64453 3.50265 3.90435C3.86322 5.39938 8.6967 6.19694 9.23446 8.8713C9.2889 9.14039 9.40328 9.86217 9.24812 10.9646C8.94508 13.0964 7.04991 13.8846 4.7448 13.8846C2.35065 13.8846 0.114746 13.0239 0.114746 10.1752L0.115848 9.19054H3.53197L3.53505 10.4284C3.53505 11.1241 4.01838 11.5865 4.8151 11.5865C5.66406 11.5865 5.95234 11.1524 6.05615 10.7269C6.11587 10.4874 6.15576 10.0911 6.03102 9.7822C5.37469 8.12942 0.847558 7.37494 0.295029 4.76487C0.160809 4.12174 0.173371 3.61205 0.265716 3.0425C0.603141 0.960008 2.45556 0.20752 4.71967 0.20752ZM46.1509 0.278814C47.9361 0.278814 50.4047 0.708744 50.4047 3.46286V4.35166H47.2568V3.57001C47.2568 2.8796 46.8249 2.42471 46.0839 2.42471C45.2967 2.42471 45.022 2.8679 44.9319 3.27374C44.9015 3.41558 44.8856 3.68136 44.9475 3.93653C45.303 5.41721 50.0883 6.20637 50.6218 8.85444C50.6763 9.12243 50.7884 9.8367 50.6355 10.9277C50.3355 13.0386 48.4593 13.8183 46.1773 13.8183C43.807 13.8183 41.5923 12.9671 41.5923 10.1469L41.5931 9.1717H44.976L44.978 10.3959C44.978 11.0863 45.4571 11.5423 46.2463 11.5423C47.0871 11.5423 47.3721 11.1135 47.4748 10.6932C47.5348 10.4546 47.5724 10.0649 47.4508 9.75805C46.8008 8.12095 42.3176 7.37487 41.7725 4.78888C41.6383 4.15305 41.6509 3.64888 41.7432 3.08441C42.0765 1.0218 43.9108 0.278814 46.1509 0.278814ZM56.8929 0.612242V10.0599C56.8899 10.2238 56.896 10.4098 56.9234 10.5475C56.9851 10.8616 57.2588 11.4732 58.1457 11.4732C59.0314 11.4732 59.3041 10.8616 59.3669 10.5475C59.3903 10.4295 59.3967 10.276 59.3974 10.1313L59.3973 0.612242H62.6217V9.76892C62.6258 10.0042 62.6018 10.4843 62.589 10.6093C62.3669 12.9925 60.4874 13.7649 58.1457 13.7649C55.8029 13.7649 53.9233 12.9925 53.7001 10.6093C53.6884 10.4843 53.6644 10.0042 53.6706 9.76892V0.612242H56.8929ZM84.7311 0.267127C86.9901 0.267127 88.9679 1.02801 89.2029 3.42267C89.2421 3.81413 89.2309 4.23119 89.232 4.26155L89.2322 4.68905H86.0193V3.97323C86.0204 3.97434 86.0173 3.67056 85.9794 3.48674C85.9219 3.20528 85.6797 2.55994 84.706 2.55994C83.7792 2.55994 83.5066 3.17148 83.4365 3.48674C83.3997 3.65487 83.3851 3.88287 83.3851 4.09099V9.92907C83.384 10.091 83.3902 10.2695 83.4144 10.4136C83.4742 10.7551 83.7959 11.3404 84.7174 11.3404C85.6398 11.3404 85.9618 10.7551 86.0193 10.4136C86.0455 10.2695 86.0519 10.091 86.0497 9.92907V8.07458H84.7436V6.21258H89.2562V9.63612C89.2542 9.87671 89.249 10.0521 89.2102 10.4765C88.9995 12.8032 86.9879 13.6332 84.73 13.6332C82.4709 13.6332 80.4616 12.8032 80.2487 10.4765C80.2121 10.0521 80.2057 9.87671 80.2048 9.63612L80.2057 4.26331C80.2057 4.03642 80.233 3.63609 80.2593 3.42267C80.5434 1.0353 82.4709 0.267127 84.7311 0.267127ZM19.4225 0.614363L21.7706 13.3846H18.3478L16.6497 1.79656L16.5785 1.79744L14.8363 13.3846H11.3928L13.7546 0.614363H19.4225ZM29.7912 0.614363L31.3604 10.3795H31.4327L33.0041 0.614363H38.1981L38.4791 13.3846H35.2925L35.2127 1.90482L35.1426 1.90592L33.0136 13.3846H29.7808L27.6527 1.90482H27.5826L27.5028 13.3846H24.3141L24.5952 0.614363H29.7912ZM70.9007 0.614363L73.8285 10.6391H73.8988L73.7258 0.614363H76.8809V13.2533H72.3441L69.1995 2.8831H69.1292L69.3053 13.2533H66.1722V0.614363H70.9007ZM116.092 5.0194C114.227 5.0194 112.79 6.49698 112.79 8.38616C112.79 10.2941 114.227 11.7905 116.092 11.7905C117.958 11.7905 119.358 10.2753 119.358 8.38616C119.358 6.53454 117.958 5.0194 116.092 5.0194ZM104.728 2.58762H102.788V7.61931H104.728C106.24 7.61931 107.266 6.49698 107.266 5.09408C107.266 3.71017 106.24 2.58762 104.728 2.58762Z" fill="white"/>
	<path opacity="0.7" d="M33 25V35.03H42.9859L33 25Z" fill="white"/>
	<path d="M42.9859 25H33V35.03L42.9859 25Z" fill="white"/>
	<path d="M77.5727 26.8256C76.1063 26.8256 74.8186 28.0188 74.8186 29.4916V32.752H75.9996V31.5658H79.1458V32.752H80.3268V29.4916C80.3268 28.0188 79.0391 26.8256 77.5727 26.8256ZM79.1458 30.3819H75.9996V29.494C75.9996 28.676 76.7583 28.0118 77.5727 28.0118C78.3871 28.0118 79.1458 28.676 79.1458 29.494V30.3819Z" fill="white"/>
	<path d="M93.8977 26.8256C92.4313 26.8256 91.1436 28.0188 91.1436 29.4916V32.752H92.3245V31.5658H95.4708V32.752H96.6518V29.4916C96.6518 28.0188 95.364 26.8256 93.8977 26.8256ZM95.4708 30.3819H92.3245V29.494C92.3245 28.676 93.0833 28.0118 93.8977 28.0118C94.7121 28.0118 95.4708 28.676 95.4708 29.494V30.3819V30.3819Z" fill="white"/>
	<path d="M65.5749 26.8256C63.9461 26.8256 62.6235 28.1516 62.6235 29.7899C62.6235 31.4259 63.9437 32.7543 65.5749 32.7543C67.2037 32.7543 68.5262 31.4283 68.5262 29.7899C68.5262 28.1516 67.2037 26.8256 65.5749 26.8256ZM65.5749 31.5658C64.5981 31.5658 63.8045 30.7687 63.8045 29.7876C63.8045 28.8065 64.5981 28.0095 65.5749 28.0095C66.5517 28.0095 67.3452 28.8065 67.3452 29.7876C67.3452 30.7711 66.5517 31.5658 65.5749 31.5658Z" fill="white"/>
	<path d="M61.3731 29.4755C61.5193 29.2168 61.6028 28.9208 61.6028 28.6015C61.6028 27.6204 60.8093 26.8234 59.8324 26.8234H57.5122V32.7498H60.4241C61.4009 32.7498 62.1945 31.9528 62.1945 30.9716C62.1921 30.3447 61.865 29.7924 61.3731 29.4755ZM58.6909 28.0096H59.8324C60.1573 28.0096 60.4218 28.2753 60.4218 28.6015C60.4218 28.9278 60.1573 29.1935 59.8324 29.1935H58.6909V28.0096ZM60.4218 31.5659H58.6909V30.3797H60.4218C60.7466 30.3797 61.0111 30.6454 61.0111 30.9716C61.0111 31.2979 60.7466 31.5659 60.4218 31.5659Z" fill="white"/>
	<path d="M53.8717 26.8256C52.2429 26.8256 50.9204 28.1516 50.9204 29.7899C50.9204 31.4259 52.2406 32.7543 53.8717 32.7543C55.5029 32.7543 56.8231 31.4283 56.8231 29.7899C56.8231 28.1516 55.5005 26.8256 53.8717 26.8256ZM53.8717 31.5658C52.8949 31.5658 52.1014 30.7687 52.1014 29.7876C52.1014 28.8065 52.8949 28.0095 53.8717 28.0095C54.8486 28.0095 55.6421 28.8065 55.6421 29.7876C55.6421 30.7711 54.8486 31.5658 53.8717 31.5658Z" fill="white"/>
	<path d="M84.0583 29.2073L84.0653 29.1957H82.6894C82.3646 29.1957 82.1001 28.93 82.1001 28.6037C82.1001 28.2775 82.3646 28.0118 82.6894 28.0118H84.8519L85.6384 26.8256H82.6871C81.7103 26.8256 80.9167 27.6226 80.9167 28.6037C80.9167 29.5219 81.6082 30.277 82.4968 30.3702L82.4899 30.3819H83.8658C84.1906 30.3819 84.4551 30.6476 84.4551 30.9738C84.4551 31.3001 84.1906 31.5658 83.8658 31.5658H81.7033L80.9167 32.752H83.8681C84.8449 32.752 85.6384 31.955 85.6384 30.9738C85.6384 30.0556 84.9447 29.3005 84.0583 29.2073Z" fill="white"/>
	<path d="M87.6033 26.8256C86.6265 26.8256 85.833 27.6226 85.833 28.6037C85.833 29.5219 86.5244 30.277 87.4131 30.3702L87.4061 30.3819H88.782C89.1068 30.3819 89.3713 30.6476 89.3713 30.9738C89.3713 31.3001 89.1068 31.5658 88.782 31.5658H86.6196L85.833 32.752H88.7843C89.7611 32.752 90.5547 31.955 90.5547 30.9738C90.5547 30.0556 89.8632 29.3005 88.9746 29.2073L88.9815 29.1957H87.6057C87.2808 29.1957 87.0163 28.93 87.0163 28.6037C87.0163 28.2775 87.2808 28.0118 87.6057 28.0118H89.7681L90.5547 26.8256H87.6033V26.8256Z" fill="white"/>
	<path d="M46.8902 32.7519H45.7092V26.8255H48.4889C48.9854 26.8255 49.4123 26.9956 49.772 27.3382C50.1386 27.6854 50.4239 28.1958 50.4309 28.7015C50.4356 29.1606 50.3265 29.5335 50.0365 29.8878C49.7604 30.2303 49.4796 30.489 49.0527 30.5799L50.5284 32.7519H49.1525L47.765 30.7011C47.7093 30.6242 47.6211 30.5799 47.526 30.5799H46.8902V32.7519ZM46.8902 29.4916H48.4633C48.8972 29.4916 49.2499 29.1373 49.2499 28.7015C49.2499 28.2657 48.8972 27.9115 48.4633 27.9115H46.8902V29.4916Z" fill="white"/>
	<path d="M74.1692 26.8256L71.7562 29.4054L74.2296 32.7497H72.8537L70.972 30.2421L70.494 30.8154V32.7473H69.313V26.8256H70.494V29.163L72.6216 26.8256H74.1692V26.8256Z" fill="white"/>
</svg>
