<svg width="64" height="45" viewBox="0 0 64 45" fill="none" xmlns="http://www.w3.org/2000/svg">
	<path fill-rule="evenodd" clip-rule="evenodd" d="M15.7098 5.67494C14.6872 4.65139 13.3218 4.09119 11.9087 4.11541C9.32442 4.11541 7.13093 5.94304 6.34621 8.40602V8.40694C5.93149 9.69781 5.93149 11.0957 6.34621 12.3866L6.34597 12.3868C7.13048 14.8502 9.32416 16.6782 11.9087 16.6782C13.2478 16.6782 14.3928 16.3172 15.2818 15.6847L15.2822 15.685V15.6833C15.7982 15.3241 16.2396 14.859 16.5798 14.316C16.9199 13.773 17.1517 13.1634 17.2612 12.5238H11.909V8.51961H21.2537C21.3681 9.21787 21.4252 9.92513 21.4243 10.6336C21.4243 13.7974 20.3467 16.4732 18.4764 18.2825H18.4744L18.4761 18.2839C16.8342 19.8723 14.5827 20.7936 11.9087 20.7936C10.072 20.7935 8.27141 20.2578 6.70805 19.2462C5.14469 18.2347 3.88004 16.7872 3.05531 15.0652V15.0646C2.36171 13.6162 2.00049 12.0177 2.00049 10.3968C2.00049 8.77567 2.36178 7.17703 3.05551 5.72853L3.05531 5.72836C3.88004 4.00642 5.14469 2.55888 6.70805 1.54735C8.27141 0.535814 10.072 9.85728e-05 11.9087 1.07412e-05C14.3689 -0.0301386 16.7447 0.940165 18.538 2.70751L15.7098 5.67494ZM30.3783 12.2133V19.5416H28.1626V1.44398H34.0391C34.7406 1.4286 35.438 1.55914 36.0911 1.82804C36.7443 2.09695 37.3402 2.49891 37.8445 3.01072C38.3538 3.49146 38.7592 4.08103 39.0334 4.73981C39.3076 5.3986 39.4442 6.11133 39.434 6.8301C39.4486 7.55272 39.3141 8.27011 39.0397 8.93309C38.7654 9.59607 38.3576 10.189 37.8445 10.6711C36.8169 11.6993 35.5484 12.2129 34.0391 12.2119H30.3783V12.2133ZM30.3783 3.67207V9.98958H34.0942C34.5016 10.0022 34.907 9.92557 35.2845 9.76445C35.662 9.60332 36.0033 9.3613 36.2865 9.05387C36.5683 8.76642 36.7923 8.42261 36.9453 8.04276C37.0982 7.66291 37.177 7.25474 37.177 6.84238C37.177 6.43002 37.0982 6.02185 36.9453 5.642C36.7923 5.26215 36.5683 4.91834 36.2865 4.63089C36.0068 4.31697 35.6667 4.06902 35.2887 3.90347C34.9108 3.73792 34.5036 3.65855 34.0942 3.67063H30.3783V3.67207ZM44.5395 6.75499C46.1772 6.75499 47.47 7.21419 48.4177 8.13257C49.3655 9.05095 49.8389 10.3101 49.838 11.9101V19.5416H47.7186V17.8233H47.6223C46.7048 19.2384 45.4845 19.9459 43.9615 19.9459C42.6614 19.9459 41.5737 19.5416 40.6984 18.733C40.2783 18.3618 39.9425 17.897 39.7154 17.3724C39.4882 16.8478 39.3755 16.2767 39.3855 15.7006C39.3855 14.4193 39.847 13.4003 40.77 12.6436C41.693 11.887 42.9252 11.5077 44.4666 11.5058C45.7822 11.5058 46.8658 11.7585 47.7172 12.2639V11.7325C47.7197 11.3397 47.6389 10.9513 47.4806 10.5954C47.3223 10.2395 47.0905 9.92502 46.802 9.67476C46.2161 9.12009 45.4525 8.81744 44.6634 8.82714C43.4257 8.82714 42.4462 9.37489 41.7251 10.4704L39.7736 9.18092C40.847 7.56363 42.4357 6.75499 44.5395 6.75499ZM41.6728 15.7511C41.6713 16.047 41.7372 16.339 41.8651 16.6027C41.9929 16.8664 42.1789 17.0943 42.4077 17.2673C42.8977 17.6718 43.506 17.886 44.1294 17.8738C45.0644 17.8722 45.9607 17.4817 46.6217 16.7879C47.3557 16.063 47.7227 15.2125 47.7227 14.2364C47.0319 13.6588 46.0685 13.37 44.8326 13.37C43.9326 13.37 43.1821 13.5976 42.5811 14.053C41.9742 14.5151 41.6728 15.0768 41.6728 15.7511ZM54.6056 25L62.0043 7.1594H59.5917L56.1718 16.0544H56.1236L52.6073 7.1594H50.1989L55.0639 18.7576L52.3183 25H54.6056Z" fill="white"/>
	<path opacity="0.7" d="M0 34V44.03H9.9859L0 34Z" fill="white"/>
	<path d="M9.9859 34H0V44.03L9.9859 34Z" fill="white"/>
	<path d="M44.5727 35.8256C43.1063 35.8256 41.8186 37.0188 41.8186 38.4916V41.752H42.9996V40.5658H46.1458V41.752H47.3268V38.4916C47.3268 37.0188 46.0391 35.8256 44.5727 35.8256ZM46.1458 39.3819H42.9996V38.494C42.9996 37.676 43.7583 37.0118 44.5727 37.0118C45.3871 37.0118 46.1458 37.676 46.1458 38.494V39.3819Z" fill="white"/>
	<path d="M60.8977 35.8256C59.4313 35.8256 58.1436 37.0188 58.1436 38.4916V41.752H59.3245V40.5658H62.4708V41.752H63.6518V38.4916C63.6518 37.0188 62.364 35.8256 60.8977 35.8256ZM62.4708 39.3819H59.3245V38.494C59.3245 37.676 60.0833 37.0118 60.8977 37.0118C61.7121 37.0118 62.4708 37.676 62.4708 38.494V39.3819V39.3819Z" fill="white"/>
	<path d="M32.5749 35.8256C30.9461 35.8256 29.6235 37.1516 29.6235 38.7899C29.6235 40.4259 30.9437 41.7543 32.5749 41.7543C34.2037 41.7543 35.5262 40.4283 35.5262 38.7899C35.5262 37.1516 34.2037 35.8256 32.5749 35.8256ZM32.5749 40.5658C31.5981 40.5658 30.8045 39.7687 30.8045 38.7876C30.8045 37.8065 31.5981 37.0095 32.5749 37.0095C33.5517 37.0095 34.3452 37.8065 34.3452 38.7876C34.3452 39.7711 33.5517 40.5658 32.5749 40.5658Z" fill="white"/>
	<path d="M28.3731 38.4755C28.5193 38.2168 28.6028 37.9208 28.6028 37.6015C28.6028 36.6204 27.8093 35.8234 26.8324 35.8234H24.5122V41.7498H27.4241C28.4009 41.7498 29.1945 40.9528 29.1945 39.9716C29.1921 39.3447 28.865 38.7924 28.3731 38.4755ZM25.6909 37.0096H26.8324C27.1573 37.0096 27.4218 37.2753 27.4218 37.6015C27.4218 37.9278 27.1573 38.1935 26.8324 38.1935H25.6909V37.0096ZM27.4218 40.5659H25.6909V39.3797H27.4218C27.7466 39.3797 28.0111 39.6454 28.0111 39.9716C28.0111 40.2979 27.7466 40.5659 27.4218 40.5659Z" fill="white"/>
	<path d="M20.8717 35.8256C19.2429 35.8256 17.9204 37.1516 17.9204 38.7899C17.9204 40.4259 19.2406 41.7543 20.8717 41.7543C22.5029 41.7543 23.8231 40.4283 23.8231 38.7899C23.8231 37.1516 22.5005 35.8256 20.8717 35.8256ZM20.8717 40.5658C19.8949 40.5658 19.1014 39.7687 19.1014 38.7876C19.1014 37.8065 19.8949 37.0095 20.8717 37.0095C21.8486 37.0095 22.6421 37.8065 22.6421 38.7876C22.6421 39.7711 21.8486 40.5658 20.8717 40.5658Z" fill="white"/>
	<path d="M51.0583 38.2073L51.0653 38.1957H49.6894C49.3646 38.1957 49.1001 37.93 49.1001 37.6037C49.1001 37.2775 49.3646 37.0118 49.6894 37.0118H51.8519L52.6384 35.8256H49.6871C48.7103 35.8256 47.9167 36.6226 47.9167 37.6037C47.9167 38.5219 48.6082 39.277 49.4968 39.3702L49.4899 39.3819H50.8658C51.1906 39.3819 51.4551 39.6476 51.4551 39.9738C51.4551 40.3001 51.1906 40.5658 50.8658 40.5658H48.7033L47.9167 41.752H50.8681C51.8449 41.752 52.6384 40.955 52.6384 39.9738C52.6384 39.0556 51.9447 38.3005 51.0583 38.2073Z" fill="white"/>
	<path d="M54.6033 35.8256C53.6265 35.8256 52.833 36.6226 52.833 37.6037C52.833 38.5219 53.5244 39.277 54.4131 39.3702L54.4061 39.3819H55.782C56.1068 39.3819 56.3713 39.6476 56.3713 39.9738C56.3713 40.3001 56.1068 40.5658 55.782 40.5658H53.6196L52.833 41.752H55.7843C56.7611 41.752 57.5547 40.955 57.5547 39.9738C57.5547 39.0556 56.8632 38.3005 55.9746 38.2073L55.9815 38.1957H54.6057C54.2808 38.1957 54.0163 37.93 54.0163 37.6037C54.0163 37.2775 54.2808 37.0118 54.6057 37.0118H56.7681L57.5547 35.8256H54.6033V35.8256Z" fill="white"/>
	<path d="M13.8902 41.7519H12.7092V35.8255H15.4889C15.9854 35.8255 16.4123 35.9956 16.772 36.3382C17.1386 36.6854 17.4239 37.1958 17.4309 37.7015C17.4356 38.1606 17.3265 38.5335 17.0365 38.8878C16.7604 39.2303 16.4796 39.489 16.0527 39.5799L17.5284 41.7519H16.1525L14.765 39.7011C14.7093 39.6242 14.6211 39.5799 14.526 39.5799H13.8902V41.7519ZM13.8902 38.4916H15.4633C15.8972 38.4916 16.2499 38.1373 16.2499 37.7015C16.2499 37.2657 15.8972 36.9115 15.4633 36.9115H13.8902V38.4916Z" fill="white"/>
	<path d="M41.1692 35.8256L38.7562 38.4054L41.2296 41.7497H39.8537L37.972 39.2421L37.494 39.8154V41.7473H36.313V35.8256H37.494V38.163L39.6216 35.8256H41.1692V35.8256Z" fill="white"/>
</svg>
