<svg width="71" height="59" viewBox="0 0 71 59" fill="none" xmlns="http://www.w3.org/2000/svg">
<path d="M13.7804 11.2231C13.0889 12.0676 11.9826 12.7336 10.8762 12.6384C10.7379 11.4967 11.2795 10.2835 11.9134 9.53425C12.6049 8.66603 13.815 8.04757 14.7946 8C14.9098 9.18934 14.4604 10.3549 13.7804 11.2231ZM14.7831 12.8644C13.1811 12.7693 11.8097 13.804 11.049 13.804C10.2769 13.804 9.11289 12.912 7.84516 12.9358C6.19712 12.9596 4.66433 13.9229 3.82302 15.4572C2.09431 18.5257 3.37356 23.069 5.04465 25.5666C5.86291 26.8035 6.84251 28.1594 8.13328 28.1118C9.35491 28.0642 9.83895 27.2911 11.3141 27.2911C12.8008 27.2911 13.2272 28.1118 14.518 28.088C15.8549 28.0642 16.6962 26.8511 17.5144 25.6142C18.4479 24.2107 18.8283 22.843 18.8513 22.7716C18.8283 22.7479 16.2698 21.7369 16.2467 18.6922C16.2237 16.147 18.2635 14.9339 18.3557 14.8625C17.2033 13.1023 15.4054 12.912 14.7831 12.8644ZM24.0374 9.41532V27.9572H26.8264V21.618H30.6872C34.2138 21.618 36.6916 19.1204 36.6916 15.5048C36.6916 11.8892 34.2599 9.41532 30.7794 9.41532H24.0374ZM26.8264 11.8416H30.0418C32.462 11.8416 33.845 13.1736 33.845 15.5167C33.845 17.8597 32.462 19.2036 30.0303 19.2036H26.8264V11.8416ZM41.7856 28.0999C43.5373 28.0999 45.1623 27.1841 45.8999 25.7331H45.9575V27.9572H48.5391V18.7279C48.5391 16.0519 46.4646 14.3273 43.2723 14.3273C40.3104 14.3273 38.1207 16.0756 38.04 18.4781H40.5524C40.7599 17.3363 41.7856 16.5871 43.1916 16.5871C44.8973 16.5871 45.8538 17.4077 45.8538 18.9182V19.941L42.3733 20.1551C39.1349 20.3573 37.3831 21.725 37.3831 24.1037C37.3831 26.5062 39.1925 28.0999 41.7856 28.0999ZM42.5347 25.8996C41.048 25.8996 40.103 25.1622 40.103 24.0324C40.103 22.8668 41.0134 22.1889 42.7537 22.0818L45.8538 21.8796V22.9263C45.8538 24.6627 44.4247 25.8996 42.5347 25.8996ZM51.985 33C54.7048 33 55.9841 31.9296 57.102 28.6827L62 14.5057H59.1649L55.8804 25.4596H55.8227L52.5382 14.5057H49.6224L54.3476 28.0048L54.094 28.8254C53.6676 30.2169 52.9761 30.7521 51.743 30.7521C51.524 30.7521 51.0976 30.7284 50.9247 30.7046V32.9286C51.0861 32.9762 51.7775 33 51.985 33Z" fill="white"/>
<path opacity="0.75" d="M0 41.9553V51.9816H9.99994L0 41.9553Z" fill="white"/>
<path d="M9.99994 41.9553H0V51.9816L9.99994 41.9553Z" fill="white"/>
<path d="M46.3954 43.961C44.9045 43.961 43.5952 45.172 43.5952 46.6668V49.9758H44.796V48.7719H47.9949V49.9758H49.1956V46.6668C49.1956 45.172 47.8863 43.961 46.3954 43.961ZM47.9949 47.5704H44.796V46.6693C44.796 45.839 45.5674 45.1649 46.3954 45.1649C47.2234 45.1649 47.9949 45.839 47.9949 46.6693V47.5704Z" fill="white"/>
<path d="M62.9935 43.961C61.5026 43.961 60.1934 45.172 60.1934 46.6668V49.9758H61.3941V48.7719H64.593V49.9758H65.7938V46.6668C65.7938 45.172 64.4844 43.961 62.9935 43.961ZM64.593 47.5704H61.3941V46.6693C61.3941 45.839 62.1655 45.1649 62.9935 45.1649C63.8216 45.1649 64.593 45.839 64.593 46.6693V47.5704Z" fill="white"/>
<path d="M52.9885 46.3783L52.9956 46.3665H51.5967C51.2665 46.3665 50.9975 46.0969 50.9975 45.7657C50.9975 45.4346 51.2665 45.1649 51.5967 45.1649H53.7953L54.595 43.961H51.5944C50.6012 43.961 49.7944 44.77 49.7944 45.7657C49.7944 46.6976 50.4973 47.464 51.4009 47.5585L51.3938 47.5704H52.7927C53.123 47.5704 53.392 47.84 53.392 48.1712C53.392 48.5023 53.123 48.7719 52.7927 48.7719H50.5941L49.7944 49.9758H52.7951C53.7882 49.9758 54.595 49.167 54.595 48.1712C54.595 47.2392 53.8897 46.4729 52.9885 46.3783Z" fill="white"/>
<path d="M56.5934 43.961C55.6002 43.961 54.7935 44.77 54.7935 45.7657C54.7935 46.6976 55.4965 47.464 56.3999 47.5585L56.3928 47.5704H57.7917C58.122 47.5704 58.391 47.84 58.391 48.1712C58.391 48.5023 58.122 48.7719 57.7917 48.7719H55.5931L54.7935 49.9758H57.7941C58.7873 49.9758 59.5941 49.167 59.5941 48.1712C59.5941 47.2392 58.8911 46.4729 57.9875 46.3783L57.9947 46.3665H56.5957C56.2655 46.3665 55.9965 46.0969 55.9965 45.7657C55.9965 45.4346 56.2655 45.1649 56.5957 45.1649H58.7944L59.5941 43.961H56.5934Z" fill="white"/>
<path d="M42.9345 43.961L40.4811 46.5794L42.9958 49.9735H41.5969L39.6837 47.4285L39.1978 48.0104V49.9711H37.9971V43.961H39.1978V46.3333L41.361 43.961H42.9345Z" fill="white"/>
<path d="M34.1966 43.961C32.5405 43.961 31.1958 45.3069 31.1958 46.9696C31.1958 48.63 32.5381 49.9782 34.1966 49.9782C35.8526 49.9782 37.1973 48.6324 37.1973 46.9696C37.1973 45.3069 35.8526 43.961 34.1966 43.961ZM34.1966 48.7719C33.2034 48.7719 32.3966 47.9631 32.3966 46.9673C32.3966 45.9715 33.2034 45.1626 34.1966 45.1626C35.1897 45.1626 35.9965 45.9715 35.9965 46.9673C35.9965 47.9654 35.1897 48.7719 34.1966 48.7719Z" fill="white"/>
<path d="M29.9245 46.6503C30.0731 46.3878 30.158 46.0874 30.158 45.7633C30.158 44.7675 29.3511 43.9587 28.3581 43.9587H25.999V49.9735H28.9596C29.9527 49.9735 30.7596 49.1646 30.7596 48.1688C30.7572 47.5326 30.4245 46.972 29.9245 46.6503ZM27.1974 45.1626H28.3581C28.6883 45.1626 28.9572 45.4323 28.9572 45.7633C28.9572 46.0944 28.6883 46.3641 28.3581 46.3641H27.1974V45.1626ZM28.9572 48.7719H27.1974V47.568H28.9572C29.2875 47.568 29.5564 47.8377 29.5564 48.1688C29.5564 48.5 29.2875 48.7719 28.9572 48.7719Z" fill="white"/>
<path d="M22.2976 43.961C20.6415 43.961 19.2969 45.3069 19.2969 46.9696C19.2969 48.63 20.6391 49.9782 22.2976 49.9782C23.9559 49.9782 25.2982 48.6324 25.2982 46.9696C25.2982 45.3069 23.9536 43.961 22.2976 43.961ZM22.2976 48.7719C21.3044 48.7719 20.4976 47.9631 20.4976 46.9673C20.4976 45.9715 21.3044 45.1626 22.2976 45.1626C23.2906 45.1626 24.0975 45.9715 24.0975 46.9673C24.0975 47.9654 23.2906 48.7719 22.2976 48.7719Z" fill="white"/>
<path d="M15.1993 49.9758H13.9985V43.961H16.8248C17.3295 43.961 17.7636 44.1337 18.1292 44.4813C18.502 44.8338 18.7921 45.3517 18.7992 45.865C18.804 46.331 18.6931 46.7094 18.3982 47.0689C18.1175 47.4167 17.832 47.6792 17.398 47.7714L18.8984 49.9758H17.4994L16.0886 47.8945C16.0321 47.8164 15.9424 47.7714 15.8458 47.7714H15.1993V49.9758ZM15.1993 46.6668H16.7988C17.2399 46.6668 17.5985 46.3073 17.5985 45.865C17.5985 45.4228 17.2399 45.0632 16.7988 45.0632H15.1993V46.6668Z" fill="white"/>
</svg>
