<?xml version="1.0" encoding="UTF-8"?>
<svg width="128px" height="21px" viewBox="0 0 128 21" version="1.1" xmlns="http://www.w3.org/2000/svg" xmlns:xlink="http://www.w3.org/1999/xlink">
    <!-- Generator: Sketch 63.1 (92452) - https://sketch.com -->
    <title>Combined Shape</title>
    <desc>Created with Sketch.</desc>
    <g id="Page-1" stroke="none" stroke-width="1" fill="none" fill-rule="evenodd">
        <path d="M51.6837037,7.17037037 L53.3948148,5.62222222 L58.52,11.3585185 L60.0681481,13.0940741 L53.3540741,20.622963 L51.642963,19.0666667 L56.9718519,13.0940741 L51.6837037,7.17037037 Z M41.7592593,1.19015908e-13 L43.4133333,1.67037037 C40.4881481,4.36740741 37.5548148,3.26740741 35.2977778,4.01703704 C33.4725926,4.62 32.1037037,6.27407407 31.8592593,8.27037037 C33.1548148,7.09703704 34.8740741,6.40444444 36.7644444,6.47777778 C40.3496296,6.6162963 43.2748148,9.56592593 43.4133333,13.1918519 C43.56,17.1762963 40.4066667,20.4518519 36.4955556,20.4518519 C32.6659259,20.4518519 29.5696296,17.322963 29.5696296,13.4607407 L29.5696296,13.4607407 L29.5696296,8.83259259 L29.5768656,8.56361179 C29.7232933,5.26124346 31.9735478,2.5282846 34.9962963,1.71111111 C37.0333333,1.15703704 39.6325926,2.02888889 41.7592593,1.19015908e-13 L41.7592593,1.19015908e-13 Z M7.21111111,5.94814815 C9.38666667,5.94814815 11.2688889,6.82 12.5725926,8.24592593 L12.5725926,8.24592593 L11.0896296,9.76962963 C10.1688889,8.71037037 8.8,8.05037037 7.21111111,8.05037037 C4.22074074,8.05037037 2.26518519,10.1118519 2.26518519,13.2 C2.26518519,16.1659259 4.22888889,18.3496296 7.21111111,18.3496296 C9.10962963,18.3496296 10.6414815,17.4859259 11.5133333,16.1088889 L11.5133333,16.1088889 L13.0288889,17.6651852 C11.7577778,19.3925926 9.71259259,20.4518519 7.21111111,20.4518519 C3.00666667,20.4518519 2.16715534e-13,17.38 2.16715534e-13,13.2 C2.16715534e-13,8.84888889 2.99851852,5.94814815 7.21111111,5.94814815 Z M89.1733333,5.93185185 C92.2533333,5.93185185 94.5266667,7.87925926 94.5266667,10.5518519 L94.5266667,10.5518519 L94.5266667,17.3881481 C94.5266667,17.8525926 94.82,18.2762963 95.2681481,18.3903704 C95.7325926,18.5044444 96.1318519,18.2681481 96.417037,17.8037037 L96.417037,17.8037037 L97.842963,19.2459259 C97.2074074,19.9955556 96.302963,20.4518519 95.2681481,20.4518519 C93.7444444,20.4518519 92.5385185,19.8814815 92.2777778,18.6348148 C91.0718519,20.0607407 89.5481481,20.4518519 87.6740741,20.4518519 C85.0259259,20.4518519 83.2985185,19.0014815 83.2985185,16.8259259 C83.2985185,14.5851852 84.9444444,13.1022222 87.7066667,12.5237037 C88.5948148,12.32 90.0940741,12.1162963 92.2207407,11.8881481 L92.2207407,11.8881481 L92.2207407,10.8451852 C92.2207407,9.24814815 90.8681481,8.05037037 89.0022222,8.05037037 C87.7555556,8.05037037 86.7533333,8.48222222 86.2481481,9.13407407 L86.2481481,9.13407407 L84.7081481,7.57777778 C85.6777778,6.56740741 87.2666667,5.93185185 89.1733333,5.93185185 Z M79.9740741,-2.84217094e-14 L81.6281481,1.67037037 C78.702963,4.36740741 75.7777778,3.26740741 73.5125926,4.01703704 C71.6874074,4.62 70.3185185,6.27407407 70.0740741,8.27037037 C71.3696296,7.09703704 73.097037,6.40444444 74.9792593,6.47777778 C78.5725926,6.6162963 81.4896296,9.56592593 81.6281481,13.1918519 C81.7748148,17.1762963 78.6214815,20.4518519 74.7103704,20.4518519 C70.8807407,20.4518519 67.7844444,17.322963 67.7844444,13.4607407 L67.7844444,13.4607407 L67.7844444,8.83259259 L67.7916804,8.56361179 C67.9381081,5.26124346 70.1883626,2.5282846 73.2111111,1.71111111 C75.2481481,1.15703704 77.8474074,2.02888889 79.9740741,-2.84217094e-14 L79.9740741,-2.84217094e-14 Z M17.6162963,6.23333333 C17.5918519,7.42296296 17.5918519,9.36222222 17.5918519,12.0918519 L20.1503704,12.0918519 L25.357037,6.23333333 L28.2333333,6.23333333 L22.22,12.9962963 L28.6896296,20.1666667 L25.4711111,20.1666667 L20.0933333,14.242963 L17.5918519,14.242963 L17.591991,15.9017395 C17.5926313,18.2445455 17.5962169,19.6646825 17.6162963,20.1666667 L15.3185185,20.1666667 C15.3351852,19.2166667 15.3404882,17.8348485 15.3421755,16.0212121 L15.3421755,10.3787879 C15.3404882,8.56515152 15.3351852,7.18333333 15.3185185,6.23333333 L17.6162963,6.23333333 Z M101.745926,6.22518519 L101.745926,11.9696296 L108.997778,11.9696296 L108.997778,6.22518519 L111.295556,6.22518519 L111.295556,20.1585185 L108.997778,20.1585185 L108.997778,14.1207407 L101.745926,14.1207407 L101.745926,20.1585185 L99.4481481,20.1585185 L99.4481481,6.22518519 L101.745926,6.22518519 Z M116.852593,6.22518519 C116.828148,7.41481481 116.828148,9.36222222 116.828148,12.0918519 L119.386667,12.0918519 L124.593333,6.22518519 L127.46963,6.22518519 L121.456296,12.9881481 L127.934074,20.1585185 L124.707407,20.1585185 L119.32963,14.2348148 L116.828148,14.2348148 L116.82896,17.0322283 C116.830674,18.7025879 116.836005,19.743836 116.852593,20.1585185 L114.554815,20.1585185 C114.574815,19.0185185 114.578451,17.2567003 114.579112,14.873064 L114.579112,11.5106397 C114.578451,9.12700337 114.574815,7.36518519 114.554815,6.22518519 L116.852593,6.22518519 Z M92.2207407,13.9577778 C90.1185185,14.2185185 88.5948148,14.3325926 87.6496296,14.5933333 C86.4111111,14.9437037 85.6940741,15.6281481 85.6940741,16.557037 C85.6940741,17.6896296 86.5822222,18.2925926 87.9348148,18.2925926 C89.6296296,18.2925926 91.2185185,17.4533333 92.2207407,16.06 L92.2207407,16.06 Z M41.1481481,13.8437037 C41.3762963,10.942963 38.9888889,8.53111111 36.1125926,8.76740741 C33.8474074,8.94666667 32.0140741,10.7962963 31.8348148,13.0777778 C31.6066667,15.9785185 34.0022222,18.3903704 36.8703704,18.1622222 C39.1355556,17.9748148 40.9688889,16.1251852 41.1481481,13.8437037 Z M79.362963,13.8437037 C79.5911111,10.942963 77.2037037,8.53111111 74.3274074,8.76740741 C72.0622222,8.94666667 70.2288889,10.7962963 70.0496296,13.0777778 C69.8214815,15.9785185 72.217037,18.3903704 75.0851852,18.1622222 C77.3503704,17.9748148 79.1837037,16.1251852 79.362963,13.8437037 Z" id="Combined-Shape" fill="#FFFFFF" fill-rule="nonzero"></path>
    </g>
</svg>