<svg xmlns="http://www.w3.org/2000/svg" width="104" height="52" viewBox="0 0 124 62" fill="none"><g fill="#fff"><g clip-path="url(#A)"><g clip-path="url(#B)"><path d="M61.17 49.214h-2.492l-1.764 3h-.908l-.03-6.474h-2.36v11.7h2.36l.03-3.2h.902l2.342 3.2h2.614L58.8 53.17l2.36-3.957zm17.855 3.85c-.48-.3-1-.534-1.544-.698l-.52-.2-.14-.05c-.324-.117-.665-.24-.677-.558a.56.56 0 0 1 .063-.272.48.48 0 0 1 .19-.208 1.15 1.15 0 0 1 .578-.19 1.92 1.92 0 0 1 1.261.363l.064.04 1.26-1.4-.064-.05a3.09 3.09 0 0 0-.51-.357 3.47 3.47 0 0 0-1.046-.374 4 4 0 0 0-1.608 0 3.05 3.05 0 0 0-1.41.558c-.264.2-.484.447-.65.728a2.41 2.41 0 0 0-.311.913 2.3 2.3 0 0 0 .428 1.641 3.5 3.5 0 0 0 1.735 1.005l.104.033.237.078c.856.28 1.1.4 1.237.558a.5.5 0 0 1 .104.29c0 .396-.503.558-.844.658-.24.043-.484.04-.72-.013a1.84 1.84 0 0 1-.656-.288 2.81 2.81 0 0 1-.798-.776l-1.417 1.4.04.056c.63.76 1.512 1.3 2.498 1.496a5.57 5.57 0 0 0 .682.084h.237a3.68 3.68 0 0 0 2.174-.653c.428-.292.756-.7.943-1.172a2.22 2.22 0 0 0 .118-.988 2.24 2.24 0 0 0-.326-.943 2.39 2.39 0 0 0-.717-.72zm7.62 0a6.32 6.32 0 0 0-1.538-.698l-.526-.2-.133-.05c-.33-.117-.665-.24-.682-.558a.58.58 0 0 1 .071-.27.61.61 0 0 1 .189-.21 1.15 1.15 0 0 1 .578-.19c.452-.03.9.1 1.26.363l.058.04 1.26-1.4-.058-.05c-.158-.136-.33-.256-.515-.357a3.45 3.45 0 0 0-1.041-.374c-.532-.1-1.08-.1-1.613 0a3.1 3.1 0 0 0-1.41.558c-.266.197-.488.443-.655.724a2.4 2.4 0 0 0-.317.911 2.26 2.26 0 0 0 .428 1.64 3.5 3.5 0 0 0 1.735 1.005l.098.033.237.078c.862.28 1.104.4 1.243.558a.44.44 0 0 1 .098.29c0 .396-.497.558-.84.66a1.85 1.85 0 0 1-.723-.013 1.81 1.81 0 0 1-.66-.29 2.96 2.96 0 0 1-.798-.776l-1.417 1.4.046.056c.63.76 1.512 1.3 2.498 1.496a5.57 5.57 0 0 0 .682.084h.237a3.68 3.68 0 0 0 2.174-.653 2.57 2.57 0 0 0 .943-1.172 2.22 2.22 0 0 0 .118-.988 2.24 2.24 0 0 0-.326-.943 2.38 2.38 0 0 0-.706-.714zm-17.73-3.85v.804h-.104c-.646-.624-1.52-.977-2.434-.982a4.14 4.14 0 0 0-1.633.303c-.516.2-.98.524-1.363.92-.77.834-1.185 1.92-1.156 3.036-.03 1.136.383 2.24 1.156 3.097a3.87 3.87 0 0 0 1.34.92 3.98 3.98 0 0 0 1.615.298 3.99 3.99 0 0 0 2.486-.921h.093v.72h2.452v-8.192h-2.452zm.122 4.124c.025.66-.204 1.306-.642 1.814a2.15 2.15 0 0 1-.759.526 2.22 2.22 0 0 1-.918.166c-.305.005-.608-.057-.886-.18a2.02 2.02 0 0 1-.716-.534 2.67 2.67 0 0 1-.625-1.836c-.02-.645.206-1.274.636-1.77a2.07 2.07 0 0 1 .722-.525 2.13 2.13 0 0 1 .885-.178c.313-.01.624.048.9.17a2.11 2.11 0 0 1 .749.529 2.64 2.64 0 0 1 .642 1.819zm26.547-4.124v.804h-.104a3.53 3.53 0 0 0-2.43-.982 4.14 4.14 0 0 0-1.635.304 4.02 4.02 0 0 0-1.366.918c-.77.833-1.184 1.92-1.156 3.036-.03 1.136.383 2.24 1.156 3.097a3.87 3.87 0 0 0 1.34.92 3.98 3.98 0 0 0 1.615.298 3.99 3.99 0 0 0 2.486-.921h.093v.72h2.452v-8.192h-2.452zm.12 4.124a2.6 2.6 0 0 1-.642 1.814 2.15 2.15 0 0 1-.759.526 2.22 2.22 0 0 1-.918.166 2.09 2.09 0 0 1-.885-.18c-.277-.124-.522-.306-.716-.534a2.67 2.67 0 0 1-.624-1.836c-.02-.645.207-1.274.636-1.77a2.06 2.06 0 0 1 .722-.525 2.15 2.15 0 0 1 .885-.178c.313-.01.624.048.9.17a2.11 2.11 0 0 1 .748.53c.44.5.67 1.157.642 1.82zM37.513 44.36c-5.1 0-9.14 3.963-9.14 8.82 0 4.912 4.107 8.82 9.14 8.82s9.14-3.963 9.14-8.82-4.107-8.82-9.14-8.82zm0 12.058c-1.85 0-3.413-1.507-3.413-3.294s1.562-3.294 3.413-3.294 3.413 1.507 3.413 3.294a3.4 3.4 0 0 1-3.413 3.294zm-9.197-9.546v12.84h-3.24l-4.164-12.84h7.404z"/></g></g><path d="M23.56 0C16.337 0 10.6 5.842 10.6 13c0 7.24 5.83 13 12.97 13s12.97-5.842 12.97-13c.082-7.158-5.83-13-12.97-13zm0 17.854c-2.627 0-4.844-2.22-4.844-4.854s2.217-4.854 4.844-4.854 4.843 2.222 4.843 4.854a4.86 4.86 0 0 1-4.843 4.854z"/><path d="M10.6 3.785V22.7H5.9L0 3.785h10.6zm109.42 3.373l-2.873 7.076c-.082.082-.082.247-.082.33l-.083.165-.082-.165c0-.082-.082-.247-.082-.33l-2.873-7.076h-3.694l4.843 12.095-2.052 4.608h3.694l6.814-16.703h-3.53zm-27.255.658c-.657-.494-1.478-.823-2.463-.905-1.642-.165-3.2.4-4.268 1.48V7.076h-3.366V19.17h3.366v-6.335c0-1.4.246-1.8.492-2.14.4-.658 1.15-.987 2.053-.987s1.724.4 2.134 1.07c.246.494.328 1.152.328 1.48v6.912h3.366v-7.323c0-1.892-.575-3.2-1.642-4.032zm-16.5-.576c-1.64-.576-3.448-.494-5.1.247-1.067.494-2.052 1.316-2.627 2.386-.575.905-.82 2.057-.82 3.3s.246 2.386.82 3.3 1.314 1.728 2.298 2.222 2.135.823 3.202.823a6.24 6.24 0 0 0 1.724-.247l1.478-.576c.985-.576 1.806-1.316 2.3-2.222.574-.905.82-2.057.82-3.3.082-2.715-1.478-5.02-4.105-5.924zm.985 6.1c-.082 1.07-.4 1.975-1.067 2.55-.492.4-1.23.658-2.134.74-.903 0-1.56-.247-2.135-.74-.656-.576-.985-1.48-1.067-2.55-.082-1.234.4-2.222 1.314-2.88.492-.33 1.15-.576 1.806-.576.74 0 1.314.247 1.888.576.985.576 1.478 1.646 1.396 2.88zm-13.38-5.514c-.657-.494-1.478-.823-2.463-.905h-.574c-1.314 0-2.463.576-3.448 1.728l-.164.247h-.328c-.246-.4-.575-.74-.903-.987-.657-.494-1.478-.823-2.463-.905-1.56-.165-2.8.33-3.858 1.48V7.24H46.3v12.095h3.366v-6.5c0-1.316.164-1.646.4-2.057.4-.658 1.15-1.07 1.97-.987.82 0 1.56.4 1.97 1.07.328.494.328 1.07.328 1.646v6.747H57.7v-6.5c0-1.234.164-1.646.4-2.057.4-.658 1.15-.987 1.97-.987s1.478.4 1.888 1.07a2.53 2.53 0 0 1 .328 1.234v7.158h3.366v-7.405a7.02 7.02 0 0 0-.246-1.892c-.328-.823-.82-1.563-1.56-2.057zm43.182 7.734c-.492.494-1.642 1.4-3.2 1.48-1.314.082-2.3-.33-3.038-1.07-.328-.33-.574-.823-.738-1.316h9.276v-.082c.082-.494.164-.905.164-1.4 0-.4-.082-.987-.246-1.728-.4-1.4-1.23-2.468-2.3-3.3-1.23-.905-2.38-1.152-2.7-1.152-2.38-.4-5.1.658-6.485 2.88-.985 1.563-.903 3.127-.903 3.62a6.05 6.05 0 0 0 1.56 4.032c1.724 1.892 4.104 1.975 4.843 2.057 3.284.082 5.5-1.975 5.993-2.386l-2.217-1.646zm-5.746-5.1c.492-.33 1.067-.576 1.806-.576s1.314.247 1.888.576c.493.4.903.905 1.15 1.48h-5.9c.082-.576.492-1.152 1.067-1.48z"/></g><defs><clipPath id="A"><path fill="#fff" transform="translate(18 44)" d="M0 0h87v18H0z"/></clipPath><clipPath id="B"><path fill="#fff" transform="translate(20.912 44.36)" d="M0 0h77.172v17.64H0z"/></clipPath></defs></svg>