<svg xmlns="http://www.w3.org/2000/svg" width="125" height="54" viewBox="0 0 146 63" fill="none"><g fill="#fff"><path fill-rule="evenodd" d="M100.79 12.47l2.912 8.416h.137l2.593-8.415h2.435l-4.12 11.433c-1.14 3.156-2.526 4.803-5.142 4.803V26.83c1.548 0 2.502-1.236 3.05-2.93l-4.37-11.433h2.504zM131.208.754c2.162 0 4.218.495 6.064 1.38l.87.443-1.265 1.12-1.897-1.955-3.27 2.867-1.925-2.06-6.012 5.343 3.85 4.196-1.503 1.303 3.798 4.196-1.503 1.302 5.43 5.97 3.215-2.92 2.796 3.128a15.63 15.63 0 0 1-1.819 1.199 13.9 13.9 0 0 1-6.802 1.771c-7.62 0-13.815-6.123-13.815-13.655-.027-7.48 6.17-13.632 13.788-13.632zm-95.866 6.18v6.517c.68-.364 1.84-.847 3.07-.847 2.822 0 4.347 1.967 4.347 5.626 0 4.277-2.048 6.358-5.346 6.358a10.5 10.5 0 0 1-4.439-1.122V7.504l2.368-.57zm32.71 5.536c3.005 0 5.19 1.99 5.19 5.992 0 3.9-2.07 5.992-5.19 5.992s-5.188-2.082-5.188-5.992c0-4.003 2.185-5.992 5.188-5.992zm24.33 0c2.846 0 4.598 1.854 4.598 5.58v.846h-7.42c0 2.744 1.115 3.956 3.46 3.956 1.228 0 2.367-.435 3.616-1.188V23.4c-1.023.594-2.39 1.052-4.028 1.052-3.82 0-5.392-2.378-5.392-5.99 0-3.478 1.75-5.993 5.165-5.993zm-66.953 0c2.844 0 4.597 1.854 4.597 5.58v.846h-7.418c0 2.744 1.114 3.956 3.46 3.956 1.228 0 2.366-.435 3.617-1.188V23.4c-1.024.594-2.388 1.052-4.028 1.052-3.822 0-5.392-2.378-5.392-5.99 0-3.478 1.752-5.993 5.165-5.993zM3.42 8.05l2.55 12.1h.16l2.958-12.1h2.026l3.163 12.1h.16l2.322-12.1h2.663L15.73 24.265h-2.458L10.18 12.852h-.16L7.015 24.265H4.56L.872 8.05H3.42zm44.484-.01l5.097 12.784h.114l4.87-12.784h2.823v16.215H58.35V12.5h-.205l-4.643 11.756h-1.455l-4.644-11.48H47.2v11.48H45.15V8.04h2.754zm32.937 4.428c2.73 0 3.753 1.075 3.753 3.43v8.28H82.23v-7.753c0-1.806-.886-2.126-2.048-2.126-.91 0-2.07.412-2.776.824v9.056H75.04V14.162l.28-.163c1.108-.627 3.125-1.53 5.524-1.53zm60.517 6.737l2.213 2.424-2.452 2.215-2.214-2.45 2.453-2.2zM37.8 14.387c-.91 0-1.57.252-2.48.755v7.477c.728.32 1.525.367 2.095.367 1.684 0 2.957-1.053 2.957-4.757 0-2.904-1.047-3.842-2.57-3.842zm30.252-.316c-1.5 0-2.8 1.303-2.8 4.4 0 3.133 1.185 4.4 2.8 4.4s2.798-1.257 2.798-4.4c0-3.087-1.25-4.4-2.798-4.4zm66.242 2.164l2.98 3.257-3.296 2.92-2.952-3.232 3.27-2.945zm4.903-1.955l2.215 2.45-2.452 2.19-2.214-2.45 2.45-2.19zm-46.884-.278c-1.388 0-2.457 1.075-2.708 3.36h5.21c-.112-2.4-1.274-3.36-2.503-3.36zm-66.953 0c-1.388 0-2.458 1.075-2.707 3.36h5.2c-.113-2.4-1.274-3.36-2.503-3.36zm106.612-3.37l2.954 3.258-3.297 2.92-2.952-3.257 3.295-2.92zm11.653 2.867l1.503 1.616-1.66 1.46-1.477-1.615 1.634-1.46zm-6.537-4.353l2.214 2.424-2.45 2.2-2.216-2.424 2.453-2.19zm4.455-.47l1.476 1.616-1.635 1.46-1.476-1.616 1.635-1.46zM129.626 5.08l2.953 3.258-3.296 2.92L126.332 8l3.294-2.92zm5.194-.834l2.215 2.424-2.452 2.215-2.215-2.45 2.452-2.19zm4.614-.417l1.477 1.642-1.636 1.46-1.476-1.616 1.635-1.485z"/><g clip-path="url(#A)"><path d="M73.17 50.214h-2.492l-1.764 3h-.908l-.03-6.474h-2.36v11.7h2.36l.03-3.2h.902l2.342 3.2h2.614L70.8 54.17l2.36-3.957zm17.855 3.85a6.37 6.37 0 0 0-1.544-.697l-.66-.24c-.324-.117-.665-.24-.677-.558a.54.54 0 0 1 .063-.272c.044-.084.1-.156.2-.208a1.15 1.15 0 0 1 .578-.19 1.92 1.92 0 0 1 1.261.363l.064.04 1.26-1.4-.064-.05a3.09 3.09 0 0 0-.51-.357 3.47 3.47 0 0 0-1.046-.374 4 4 0 0 0-1.608 0 3.05 3.05 0 0 0-1.41.558c-.264.2-.484.447-.65.728a2.41 2.41 0 0 0-.311.913 2.3 2.3 0 0 0 .428 1.641 3.5 3.5 0 0 0 1.735 1.005l.104.033.237.078c.856.28 1.1.4 1.237.558a.5.5 0 0 1 .104.29c0 .396-.503.558-.844.658-.24.043-.484.04-.72-.013a1.84 1.84 0 0 1-.656-.288 2.81 2.81 0 0 1-.798-.776l-1.417 1.4.04.056c.63.76 1.512 1.3 2.498 1.496a5.57 5.57 0 0 0 .682.084h.237a3.68 3.68 0 0 0 2.174-.653c.428-.292.756-.7.943-1.172a2.22 2.22 0 0 0 .118-.988 2.24 2.24 0 0 0-.326-.943 2.39 2.39 0 0 0-.717-.72zm7.62 0a6.32 6.32 0 0 0-1.538-.698l-.526-.2-.133-.05c-.33-.117-.665-.24-.682-.558.001-.094.026-.187.07-.27a.61.61 0 0 1 .189-.21 1.15 1.15 0 0 1 .578-.19c.452-.03.9.1 1.26.363l.058.04 1.26-1.4-.058-.05a2.99 2.99 0 0 0-.515-.357c-.323-.18-.675-.306-1.04-.374-.532-.1-1.08-.1-1.613 0a3.1 3.1 0 0 0-1.41.558c-.266.197-.488.443-.655.724a2.4 2.4 0 0 0-.317.911 2.26 2.26 0 0 0 .428 1.64 3.5 3.5 0 0 0 1.735 1.005l.098.033.237.078c.862.28 1.104.4 1.243.558a.44.44 0 0 1 .098.29c0 .396-.497.558-.84.66a1.85 1.85 0 0 1-.723-.013 1.81 1.81 0 0 1-.66-.29 2.96 2.96 0 0 1-.798-.776l-1.417 1.4.046.056c.63.76 1.512 1.3 2.498 1.496a5.57 5.57 0 0 0 .682.084h.237a3.68 3.68 0 0 0 2.174-.653 2.57 2.57 0 0 0 .943-1.172 2.22 2.22 0 0 0 .118-.988 2.24 2.24 0 0 0-.326-.943 2.38 2.38 0 0 0-.706-.714zm-17.73-3.85v.804h-.104c-.646-.624-1.52-.977-2.434-.982a4.14 4.14 0 0 0-1.633.303c-.516.2-.98.524-1.363.92a4.31 4.31 0 0 0-1.156 3.036c-.03 1.136.383 2.24 1.156 3.097.373.396.83.7 1.34.92a4.01 4.01 0 0 0 1.615.298 3.99 3.99 0 0 0 2.486-.921h.093v.72h2.452v-8.192h-2.452zm.122 4.124c.025.66-.204 1.306-.642 1.814a2.15 2.15 0 0 1-.759.526c-.3.12-.603.176-.918.166-.305.005-.608-.057-.886-.18a2.02 2.02 0 0 1-.716-.534 2.67 2.67 0 0 1-.625-1.836c-.02-.645.206-1.274.636-1.77a2.07 2.07 0 0 1 .722-.525c.277-.12.58-.182.885-.178.313-.01.624.048.9.17a2.11 2.11 0 0 1 .749.529 2.64 2.64 0 0 1 .642 1.819zm26.546-4.124v.804h-.104a3.53 3.53 0 0 0-2.428-.982 4.14 4.14 0 0 0-1.635.304c-.517.2-.982.523-1.366.918a4.31 4.31 0 0 0-1.157 3.036c-.03 1.136.383 2.24 1.157 3.097a3.86 3.86 0 0 0 1.34.919 4.12 4.12 0 0 0 1.615.298 3.99 3.99 0 0 0 2.486-.921h.092v.72h2.452v-8.192h-2.452zm.122 4.124a2.6 2.6 0 0 1-.642 1.814 2.15 2.15 0 0 1-.759.526 2.22 2.22 0 0 1-.918.166 2.09 2.09 0 0 1-.885-.18 2.02 2.02 0 0 1-.717-.534c-.432-.518-.654-1.17-.624-1.836-.02-.645.207-1.274.636-1.77a2.06 2.06 0 0 1 .722-.525 2.15 2.15 0 0 1 .885-.178 2.14 2.14 0 0 1 .91.17c.285.122.543.3.75.53.44.5.67 1.157.642 1.82zM49.513 45.36c-5.1 0-9.14 3.963-9.14 8.82 0 4.912 4.107 8.82 9.14 8.82s9.14-3.963 9.14-8.82-4.107-8.82-9.14-8.82zm0 12.058c-1.85 0-3.413-1.507-3.413-3.294s1.562-3.294 3.413-3.294 3.413 1.507 3.413 3.294a3.4 3.4 0 0 1-3.413 3.294zm-9.197-9.546v12.84h-3.24l-4.164-12.84h7.404z"/></g></g><defs><clipPath id="A"><path fill="#fff" transform="translate(32.912 45.36)" d="M0 0h77.172v17.64H0z"/></clipPath></defs></svg>