<svg width="134" height="83" viewBox="0 0 134 83" fill="none" xmlns="http://www.w3.org/2000/svg">
<rect width="134" height="83" rx="8" fill="white"/>
<path opacity="0.6" d="M4.32258 11.3229C4.32258 7.45691 7.45658 4.32291 11.3226 4.32291H23.3419V78.6771H11.3226C7.45659 78.6771 4.32258 75.5431 4.32258 71.6771V11.3229Z" fill="black" fill-opacity="0.06"/>
<path fill-rule="evenodd" clip-rule="evenodd" d="M17.1049 8.56815C17.5134 8.56815 17.8446 8.89933 17.8446 9.30786C17.8446 9.48027 17.7844 9.64726 17.6743 9.77998L14.8254 13.2162L14.6477 15.265C14.6096 15.7035 14.1772 15.9955 13.7563 15.8669C13.4895 15.7854 13.2977 15.5517 13.27 15.2741L13.0642 13.2162L9.97975 9.78205C9.8598 9.6485 9.79345 9.47532 9.79345 9.29581C9.79345 8.89394 10.1192 8.56815 10.5211 8.56815H17.1049ZM11.4515 9.57072C11.3649 9.57072 11.3193 9.67326 11.3772 9.73761L13.1156 11.6693C13.1903 11.7523 13.3242 11.669 13.2827 11.5652L12.5101 9.63358C12.4949 9.59561 12.4582 9.57072 12.4173 9.57072H11.4515Z" fill="black" fill-opacity="0.18"/>
<path fill-rule="evenodd" clip-rule="evenodd" d="M9.65599 26.5486C9.46169 26.4511 9.46069 26.1741 9.65429 26.0752L13.2149 24.2567C13.3402 24.1927 13.4884 24.1922 13.6142 24.2553L17.0955 26.0018C17.2898 26.0993 17.2908 26.3763 17.0972 26.4751L13.5366 28.2937C13.4113 28.3577 13.2631 28.3582 13.1373 28.2951L9.65599 26.5486ZM10.8288 27.9915L9.65428 28.5914C9.46069 28.6903 9.46169 28.9673 9.65599 29.0648L13.1373 30.8113C13.2631 30.8744 13.4113 30.8738 13.5366 30.8098L17.0972 28.9913C17.2908 28.8924 17.2898 28.6154 17.0955 28.518L15.9227 27.9296L13.5366 29.1482C13.4113 29.2122 13.2631 29.2127 13.1373 29.1496L10.8288 27.9915Z" fill="black" fill-opacity="0.18"/>
<mask id="path-5-inside-1_1_23" fill="white">
<path d="M23.3419 4.32291H58.7871V78.6771H23.3419V4.32291Z"/>
</mask>
<path d="M23.3419 4.32291H58.7871V78.6771H23.3419V4.32291Z" fill="white"/>
<path d="M58.7871 4.32291H59.7871V3.32291H58.7871V4.32291ZM58.7871 78.6771V79.6771H59.7871V78.6771H58.7871ZM23.3419 5.32291H58.7871V3.32291H23.3419V5.32291ZM57.7871 4.32291V78.6771H59.7871V4.32291H57.7871ZM58.7871 77.6771H23.3419V79.6771H58.7871V77.6771Z" fill="black" fill-opacity="0.06" mask="url(#path-5-inside-1_1_23)"/>
<mask id="path-7-inside-2_1_23" fill="white">
<path d="M23.3419 5.1875H58.7871V19.8854H23.3419V5.1875Z"/>
</mask>
<path d="M23.3419 5.1875H58.7871V19.8854H23.3419V5.1875Z" fill="white"/>
<path d="M58.7871 18.8854H23.3419V20.8854H58.7871V18.8854Z" fill="black" fill-opacity="0.06" mask="url(#path-7-inside-2_1_23)"/>
<mask id="path-9-inside-3_1_23" fill="white">
<path d="M23.3419 19.8854H95.9613V34.5833H23.3419V19.8854Z"/>
</mask>
<path d="M23.3419 19.8854H95.9613V34.5833H23.3419V19.8854Z" fill="white"/>
<path d="M95.9613 33.5833H23.3419V35.5833H95.9613V33.5833Z" fill="black" fill-opacity="0.06" mask="url(#path-9-inside-3_1_23)"/>
<rect x="38.0387" y="26.3698" width="14.6968" height="1.72917" rx="0.864583" fill="black" fill-opacity="0.18"/>
<path fill-rule="evenodd" clip-rule="evenodd" d="M32.16 24.2083H30.9497V26.8021H28.529V28.0125H30.9497V30.2604H32.16V28.0125H34.5806V26.8021H32.16V24.2083Z" fill="black" fill-opacity="0.18"/>
<mask id="path-13-inside-4_1_23" fill="white">
<path d="M23.3419 34.5833H58.7871V49.2812H23.3419V34.5833Z"/>
</mask>
<path d="M23.3419 34.5833H58.7871V49.2812H23.3419V34.5833Z" fill="white"/>
<path d="M58.7871 48.2812H23.3419V50.2812H58.7871V48.2812Z" fill="black" fill-opacity="0.06" mask="url(#path-13-inside-4_1_23)"/>
<mask id="path-15-inside-5_1_23" fill="white">
<path d="M23.3419 49.2812H58.7871V63.9792H23.3419V49.2812Z"/>
</mask>
<path d="M23.3419 49.2812H58.7871V63.9792H23.3419V49.2812Z" fill="white"/>
<path d="M58.7871 62.9792H23.3419V64.9792H58.7871V62.9792Z" fill="black" fill-opacity="0.06" mask="url(#path-15-inside-5_1_23)"/>
<rect x="27.6645" y="8.64583" width="6.91613" height="6.91667" rx="1" fill="black" fill-opacity="0.18"/>
<rect x="38.0387" y="11.2396" width="12.1032" height="1.72917" rx="0.864583" fill="black" fill-opacity="0.18"/>
<g opacity="0.06">
<mask id="path-19-inside-6_1_23" fill="white">
<path d="M58.7871 4.32291H95.9613V78.6771H58.7871V4.32291Z"/>
</mask>
<path d="M58.7871 4.32291H95.9613V78.6771H58.7871V4.32291Z" fill="white"/>
<path d="M58.7871 4.32291V3.32291H57.7871V4.32291H58.7871ZM95.9613 4.32291H96.9613V3.32291H95.9613V4.32291ZM95.9613 78.6771V79.6771H96.9613V78.6771H95.9613ZM58.7871 78.6771H57.7871V79.6771H58.7871V78.6771ZM58.7871 5.32291H95.9613V3.32291H58.7871V5.32291ZM94.9613 4.32291V78.6771H96.9613V4.32291H94.9613ZM95.9613 77.6771H58.7871V79.6771H95.9613V77.6771ZM59.7871 78.6771V4.32291H57.7871V78.6771H59.7871Z" fill="#2FC6F6" mask="url(#path-19-inside-6_1_23)"/>
</g>
<g opacity="0.18">
<mask id="path-21-inside-7_1_23" fill="white">
<path d="M59.6516 5.1875H95.0968V19.8854H59.6516V5.1875Z"/>
</mask>
<path d="M59.6516 5.1875H95.0968V19.8854H59.6516V5.1875Z" fill="white"/>
<path d="M95.0968 18.8854H59.6516V20.8854H95.0968V18.8854Z" fill="#11A9D9" mask="url(#path-21-inside-7_1_23)"/>
</g>
<g opacity="0.18">
<mask id="path-23-inside-8_1_23" fill="white">
<path d="M59.6516 19.8854H95.0968V34.5833H59.6516V19.8854Z"/>
</mask>
<path d="M95.0968 33.5833H59.6516V35.5833H95.0968V33.5833Z" fill="#2FC6F6" mask="url(#path-23-inside-8_1_23)"/>
</g>
<g opacity="0.18">
<mask id="path-25-inside-9_1_23" fill="white">
<path d="M59.6516 34.5833H95.0968V49.2812H59.6516V34.5833Z"/>
</mask>
<path d="M59.6516 34.5833H95.0968V49.2812H59.6516V34.5833Z" fill="white"/>
<path d="M95.0968 48.2812H59.6516V50.2812H95.0968V48.2812Z" fill="#11A9D9" mask="url(#path-25-inside-9_1_23)"/>
</g>
<g opacity="0.18">
<mask id="path-27-inside-10_1_23" fill="white">
<path d="M59.6516 49.2812H95.0968V63.9792H59.6516V49.2812Z"/>
</mask>
<path d="M59.6516 49.2812H95.0968V63.9792H59.6516V49.2812Z" fill="white"/>
<path d="M95.0968 62.9792H59.6516V64.9792H95.0968V62.9792Z" fill="#11A9D9" mask="url(#path-27-inside-10_1_23)"/>
</g>
<rect x="63.9742" y="8.64583" width="6.91613" height="6.91667" rx="1" fill="#2FC6F6"/>
<rect x="74.3484" y="11.2396" width="12.1032" height="1.72917" rx="0.864583" fill="#2FC6F6"/>
<rect x="25.071" y="51.0104" width="31.9871" height="10.375" rx="2" fill="black" fill-opacity="0.05"/>
<rect opacity="0.2" x="61.3806" y="36.3125" width="31.9871" height="10.375" rx="2" fill="#2FC6F6"/>
<rect x="59.2871" y="4.82291" width="36.1742" height="73.3542" stroke="#2FC6F6" stroke-dasharray="2 2"/>
</svg>
