<svg width="20" height="20" viewBox="0 0 20 20" fill="none" xmlns="http://www.w3.org/2000/svg">
<path fill-rule="evenodd" clip-rule="evenodd" d="M0 9.97985C0 15.4916 4.46813 19.9597 9.97985 19.9597C15.4916 19.9597 19.9597 15.4916 19.9597 9.97985C19.9597 4.46813 15.4916 0 9.97985 0C4.46813 0 0 4.46813 0 9.97985ZM5.81523 11.3583L3.5801 9.12316L2 10.7033L5.72924 14.4325L5.73079 14.431L5.81678 14.5169L12.7536 7.5801L11.1735 6L5.81523 11.3583ZM9.81543 12.5185L11.3955 10.9384L11.8154 11.3583L17.1737 6L18.7538 7.5801L11.817 14.5169L11.731 14.431L11.7294 14.4325L9.81543 12.5185Z" fill="#9DCF00"/>
</svg>
