<svg width="30" height="30" viewBox="0 0 30 30" fill="none" xmlns="http://www.w3.org/2000/svg"><path fill-rule="evenodd" clip-rule="evenodd" d="M5.91496 19.0853C7.58204 22.7924 11.3345 25.1147 15.396 24.9527C20.7842 24.8425 25.0645 20.3879 24.9597 14.9996C24.9595 10.9348 22.4894 7.27802 18.7186 5.76016C14.9479 4.24231 10.6332 5.16795 7.81694 8.09893C5.00065 11.0299 4.24788 15.3781 5.91496 19.0853ZM13.75 10C13.75 9.30966 14.3096 8.75001 15 8.75001C15.6904 8.75001 16.25 9.30966 16.25 10V13.75H18.75C19.4404 13.75 20 14.3097 20 15C20 15.6904 19.4404 16.25 18.75 16.25H15C14.3096 16.25 13.75 15.6904 13.75 15V10Z" fill="#2FC6F6"/></svg>
