<svg width="30" height="30" viewBox="0 0 30 30" fill="none" xmlns="http://www.w3.org/2000/svg">
<path fill-rule="evenodd" clip-rule="evenodd" d="M10.82 14.615C11.009 14.804 10.8751 15.1272 10.6078 15.1272L8.3129 15.1269C8.30216 16.8954 8.9715 18.6674 10.3209 20.0168C12.2173 21.9132 14.9482 22.4665 17.3316 21.6765C17.4816 21.6268 17.6472 21.6945 17.7127 21.8383L18.7956 24.2182C18.8665 24.3738 18.7932 24.5575 18.6326 24.6162C15.0689 25.9201 10.9154 25.1421 8.05551 22.2822C6.08092 20.3076 5.09878 17.7164 5.1091 15.1284L2.97168 15.1276C2.70447 15.1275 2.57072 14.8044 2.75967 14.6154L6.5779 10.7972C6.69506 10.68 6.88501 10.68 7.00216 10.7972L10.82 14.615ZM22.2825 8.05528C24.2421 10.0149 25.2242 12.5819 25.2289 15.1503L27.3577 15.1505C27.625 15.1506 27.7588 15.4737 27.5698 15.6627L23.7518 19.4807C23.6346 19.5979 23.4447 19.5979 23.3275 19.4807L19.5096 15.6628C19.3206 15.4738 19.4545 15.1507 19.7218 15.1507L22.0252 15.1509C22.0207 13.4022 21.3513 11.6549 20.0171 10.3207C17.8312 8.13483 14.5367 7.73345 11.9436 9.11651C11.7899 9.19852 11.5961 9.14248 11.518 8.98672L10.3513 6.66071C10.2796 6.51776 10.3326 6.34315 10.4741 6.26849C14.273 4.263 19.0858 4.85859 22.2825 8.05528Z" fill="#2FC6F6"/>
</svg>
