<svg width="30" height="30" viewBox="0 0 30 30" fill="none" xmlns="http://www.w3.org/2000/svg"><path fill-rule="evenodd" clip-rule="evenodd" d="M8.87439 7.66357C6.80332 7.66357 5.12439 9.34251 5.12439 11.4136V18.6314C5.12439 20.7025 6.80332 22.3814 8.87439 22.3814H9.40018V25.1608C9.40018 25.9464 10.3552 26.334 10.9027 25.7706L14.1959 22.3814H21.1669C23.2379 22.3814 24.9169 20.7025 24.9169 18.6314V11.4136C24.9169 9.34251 23.2379 7.66357 21.1669 7.66357H8.87439ZM8.38389 12.2156C8.38389 11.6277 8.86046 11.1511 9.44835 11.1511H18.4369C19.0248 11.1511 19.5014 11.6277 19.5014 12.2156C19.5014 12.8035 19.0248 13.28 18.4369 13.28H9.44835C8.86047 13.28 8.38389 12.8035 8.38389 12.2156ZM9.44835 15.3784C8.86046 15.3784 8.38389 15.855 8.38389 16.4429C8.38389 17.0308 8.86047 17.5073 9.44835 17.5073H18.4369C19.0248 17.5073 19.5014 17.0308 19.5014 16.4429C19.5014 15.855 19.0248 15.3784 18.4369 15.3784H9.44835Z" fill="#2FC6F6"/></svg>


