<svg width="30" height="30" viewBox="0 0 30 30" fill="none" xmlns="http://www.w3.org/2000/svg">
<path fill-rule="evenodd" clip-rule="evenodd" d="M18.417 5.13095C18.1514 4.86257 17.7183 4.86112 17.4509 5.12772L6.74053 15.8071L9.82017 18.9191L20.5342 8.23614C20.8002 7.97096 20.8016 7.54065 20.5374 7.27369L18.417 5.13095ZM5.09185 20.5668C5.01281 20.4857 4.9816 20.3693 5.01073 20.2591L5.93847 16.8175L8.84233 19.7205L5.39971 20.6479C5.28946 20.6791 5.17298 20.6479 5.09185 20.5668ZM6.96984 23.4354L6.09826 22.4917C6.2101 22.5005 6.32313 22.5049 6.43721 22.5049C8.26705 22.5049 9.82941 21.3597 10.4467 19.7469L10.7532 19.5294C11.423 19.0543 12.3301 19.0959 12.9536 19.6303L14.8489 21.2549L16.7337 19.8188C17.641 19.1275 18.9318 19.2733 19.662 20.1496L20.3483 20.9731L23.1661 19.5239C23.794 19.201 24.5648 19.4482 24.8877 20.0761C25.2106 20.704 24.9634 21.4748 24.3355 21.7978L21.214 23.4031C20.3266 23.8595 19.2414 23.6389 18.6026 22.8723L17.9589 22.0998L15.9052 23.6645C15.2339 24.176 14.2965 24.149 13.6557 23.5998L11.7442 21.9614L9.32023 23.6809C8.58643 24.2014 7.58027 24.0963 6.96984 23.4354Z" fill="#1AA9D6"/>
</svg>
