<svg width="30" height="30" viewBox="0 0 30 30" fill="none" xmlns="http://www.w3.org/2000/svg">
<path fill-rule="evenodd" clip-rule="evenodd" d="M17.5628 19.8584C16.3095 20.6813 14.81 21.16 13.1987 21.16C8.80173 21.16 5.2373 17.5956 5.2373 13.1987C5.2373 8.80173 8.80173 5.2373 13.1987 5.2373C17.5956 5.2373 21.16 8.80173 21.16 13.1987C21.16 14.81 20.6813 16.3095 19.8584 17.5628L24.1732 21.8775C24.5637 22.2681 24.5637 22.9012 24.1732 23.2917L23.2917 24.1732C22.9012 24.5637 22.2681 24.5637 21.8775 24.1732L17.5628 19.8584ZM18.8854 13.1987C18.8854 16.3393 16.3393 18.8854 13.1987 18.8854C10.058 18.8854 7.51198 16.3393 7.51198 13.1987C7.51198 10.058 10.058 7.51198 13.1987 7.51198C16.3393 7.51198 18.8854 10.058 18.8854 13.1987Z" fill="#2FC6F6"/>
</svg>
