<svg width="30" height="30" viewBox="0 0 30 30" fill="none" xmlns="http://www.w3.org/2000/svg">
<path fill-rule="evenodd" clip-rule="evenodd" d="M11.2519 21.1863C12.3446 21.8561 13.63 22.2423 15.0056 22.2423C18.9781 22.2423 22.1983 19.022 22.1983 15.0496C22.1983 13.674 21.8122 12.3886 21.1424 11.2959L11.2519 21.1863ZM8.86884 18.8039L18.7593 8.9134C17.6666 8.24358 16.3812 7.85742 15.0056 7.85742C11.0332 7.85742 7.81287 11.0777 7.81287 15.0501C7.81287 16.4257 8.19902 17.7111 8.86884 18.8039ZM15.0056 25.0689C9.47212 25.0689 4.98633 20.5831 4.98633 15.0496C4.98633 9.51607 9.47212 5.03027 15.0056 5.03027C20.5391 5.03027 25.0249 9.51607 25.0249 15.0496C25.0249 20.5831 20.5391 25.0689 15.0056 25.0689Z" fill="#FFA900"/>
</svg>
