<svg width="30" height="30" viewBox="0 0 30 30" fill="none" xmlns="http://www.w3.org/2000/svg">
<path fill-rule="evenodd" clip-rule="evenodd" d="M15 24.9999C20.5228 24.9999 24.9999 20.5228 24.9999 15C24.9999 9.47714 20.5228 5 15 5C9.47714 5 5 9.47714 5 15C5 20.5228 9.47714 24.9999 15 24.9999ZM15.8462 9.27128L20.9792 17.8208C21.3832 18.4939 20.8951 19.3438 20.1209 19.3438H9.85483C9.07225 19.3438 8.58419 18.4939 8.9881 17.8208L14.1212 9.27128C14.5082 8.61492 15.4507 8.61492 15.8462 9.27128ZM14.9291 11.5685C14.5504 11.5685 14.2475 11.8715 14.2475 12.2501V14.7998C14.2475 15.1785 14.5504 15.4814 14.9291 15.4814H15.0217C15.4003 15.4814 15.7033 15.1785 15.7033 14.7998V12.2501C15.7033 11.8715 15.4003 11.5685 15.0217 11.5685H14.9291ZM14.9796 18.0564C15.4508 18.0564 15.8379 17.6693 15.8379 17.1981C15.8379 16.7268 15.4508 16.3397 14.9796 16.3397C14.5083 16.3397 14.1213 16.7268 14.1213 17.1981C14.1213 17.6693 14.5083 18.0564 14.9796 18.0564Z" fill="#fff"/>
</svg>
