<svg width="30" height="30" viewBox="0 0 30 30" fill="none" xmlns="http://www.w3.org/2000/svg">
<path fill-rule="evenodd" clip-rule="evenodd" d="M16.3272 5L18.6887 7.37025L16.7397 9.32944C19.1309 10.0747 20.8654 12.3118 20.8654 14.9571C20.8654 15.2159 20.8477 15.4702 20.8152 15.7201L21.5738 17.9868L24.8122 16.8897C24.9349 16.2642 25 15.6181 25 14.9556C25 9.86027 21.2233 5.65208 16.3272 5V5ZM19.3172 18.9435C18.2466 20.1116 16.7087 20.8465 14.9993 20.8465C13.7083 20.8465 12.515 20.4266 11.5464 19.7168L9.07985 19.7272L9.09464 23.06C10.7479 24.2799 12.7915 25 14.9993 25C18.7553 25 22.0292 22.9196 23.7386 19.844L20.0373 21.0935L19.3172 18.9435ZM9.60481 17.2727C9.30166 16.5629 9.13161 15.7792 9.13161 14.9556C9.13161 12.2971 10.8869 10.0495 13.2972 9.31761L15.2359 7.37025L12.9882 5.11681C8.42921 6.04983 5 10.1013 5 14.9556C5 16.9917 5.60333 18.8858 6.6414 20.468L6.62662 17.2845L9.60481 17.2727V17.2727Z" fill="#525C69"/>
</svg>
