<svg width="20" height="21" viewBox="0 0 20 21" fill="none" xmlns="http://www.w3.org/2000/svg">
	<path d="M9.57563 8.90563H10.5111C10.6996 8.90563 10.8523 9.05737 10.8523 9.24456V10.1739C10.8523 10.3611 10.6996 10.5128 10.5111 10.5128H9.57563C9.38721 10.5128 9.23446 10.3611 9.23446 10.1739V9.24456C9.23446 9.05737 9.38721 8.90563 9.57563 8.90563Z" fill="#2FC6F6"/>
	<path d="M8.08511 8.90581H7.1496C6.96118 8.90581 6.80843 9.05756 6.80843 9.24474V10.1741C6.80843 10.3613 6.96118 10.513 7.1496 10.513H8.08511C8.27353 10.513 8.42627 10.3613 8.42627 10.1741V9.24474C8.42627 9.05756 8.27353 8.90581 8.08511 8.90581Z" fill="#2FC6F6"/>
	<path d="M8.08432 11.3165H7.14881C6.96039 11.3165 6.80764 11.4682 6.80764 11.6554V12.5848C6.80764 12.7719 6.96039 12.9237 7.14881 12.9237H8.08432C8.27274 12.9237 8.42549 12.7719 8.42549 12.5848V11.6554C8.42549 11.4682 8.27274 11.3165 8.08432 11.3165Z" fill="#2FC6F6"/>
	<path d="M10.5111 11.3165H9.57563C9.38721 11.3165 9.23446 11.4682 9.23446 11.6554V12.5848C9.23446 12.7719 9.38721 12.9237 9.57563 12.9237H10.5111C10.6996 12.9237 10.8523 12.7719 10.8523 12.5848V11.6554C10.8523 11.4682 10.6996 11.3165 10.5111 11.3165Z" fill="#2FC6F6"/>
	<path d="M12.0025 8.90563H12.938C13.1264 8.90563 13.2791 9.05737 13.2791 9.24456V10.1739C13.2791 10.3611 13.1264 10.5128 12.938 10.5128H12.0025C11.814 10.5128 11.6613 10.3611 11.6613 10.1739V9.24456C11.6613 9.05737 11.814 8.90563 12.0025 8.90563Z" fill="#2FC6F6"/>
	<path fill-rule="evenodd" clip-rule="evenodd" d="M13.8739 5.05451V4.61156H14.859C15.7587 4.66826 16.4556 5.44874 16.4394 6.38336V15.2424C16.4394 15.7314 16.0571 16.1283 15.5842 16.1283H4.42073C3.94867 16.1283 3.56556 15.7314 3.56556 15.2424V6.38336C3.56214 6.3373 3.56042 6.29211 3.56042 6.24693C3.56214 5.34154 4.27193 4.60979 5.14591 4.61156H6.13107V5.05451C6.13107 5.78804 6.70489 6.38336 7.41383 6.38336C8.12276 6.38336 8.69659 5.78804 8.69659 5.05451V4.61156H11.3083V5.05451C11.3083 5.78804 11.883 6.38336 12.5911 6.38336C13.2992 6.38336 13.8739 5.78804 13.8739 5.05451ZM14.7291 14.3564H5.27592V7.3195H14.7291V14.3564Z" fill="#2FC6F6"/>
	<path d="M8.0423 3.90461V4.87909C8.0423 5.23877 7.76094 5.53023 7.41374 5.53023C7.06654 5.53023 6.78519 5.23877 6.78519 4.87909V3.90461L6.7898 3.82C6.82778 3.49706 7.09562 3.24739 7.41802 3.24903C7.76522 3.2517 8.044 3.54493 8.0423 3.90461Z" fill="#2FC6F6"/>
	<path d="M13.1846 3.9285V4.8525C13.1846 5.1918 12.9187 5.46731 12.5903 5.46731C12.2619 5.46643 11.9977 5.19091 11.9977 4.85161V3.9285C11.9977 3.58832 12.2636 3.31369 12.5911 3.31369C12.9187 3.31369 13.1846 3.58832 13.1846 3.9285Z" fill="#2FC6F6"/>
</svg>