<svg width="46" height="47" viewBox="0 0 46 47" fill="none" xmlns="http://www.w3.org/2000/svg">
	<path fill-rule="evenodd" clip-rule="evenodd" d="M11.474 32.7183H17.6564L15.793 36.7113H9.55946C8.50263 36.7113 7.64491 35.8169 7.64491 34.7148V14.7503C7.63725 14.6465 7.63342 14.5447 7.63342 14.4428C7.63725 12.4025 9.22633 10.7534 11.183 10.7574H13.3886V11.7556C13.3886 13.4087 14.6732 14.7503 16.2604 14.7503C17.8475 14.7503 19.1322 13.4087 19.1322 11.7556V10.7574H24.9844V11.7556C24.9844 13.4087 26.271 14.7503 27.8562 14.7503C29.4415 14.7503 30.728 13.4087 30.728 11.7556V10.7574H33.1306C35.1447 10.8852 36.7051 12.644 36.6687 14.7503V21.9458L32.8396 18.7549V16.86H11.474V32.7183ZM17.6676 11.3603V9.16416C17.6714 8.3536 17.0473 7.69278 16.2699 7.68679C15.4926 7.68279 14.857 8.33563 14.8532 9.1442V9.16416V11.3603C14.8532 12.1708 15.4831 12.8277 16.2604 12.8277C17.0377 12.8277 17.6676 12.1708 17.6676 11.3603ZM29.1848 11.2996V9.21733C29.1848 8.45069 28.5894 7.83179 27.8561 7.83179C27.1228 7.83179 26.5274 8.45069 26.5274 9.21733V11.2976C26.5274 12.0623 27.119 12.6832 27.8542 12.6852C28.5894 12.6852 29.1848 12.0643 29.1848 11.2996ZM15.4088 20.3638C15.1327 20.3638 14.9088 20.5877 14.9088 20.8638V23.4858C14.9088 23.762 15.1327 23.9858 15.4088 23.9858H18.0308C18.307 23.9858 18.5308 23.762 18.5308 23.4858V20.8638C18.5308 20.5877 18.307 20.3638 18.0308 20.3638H15.4088ZM20.3418 20.9345C20.3418 20.6584 20.5657 20.4345 20.8418 20.4345H23.4639C23.74 20.4345 23.9639 20.6584 23.9639 20.9345V23.5566C23.9639 23.8327 23.74 24.0566 23.4639 24.0566H20.8418C20.5657 24.0566 20.3418 23.8327 20.3418 23.5566V20.9345ZM31.5845 22.3657C31.5845 22.0216 32.0255 21.8402 32.3022 22.0704L41.977 30.1212C42.2299 30.3316 42.2299 30.6981 41.977 30.9086L32.3022 38.9594C32.0255 39.1896 31.5845 39.0081 31.5845 38.6641V33.4757C31.532 33.4952 31.4747 33.506 31.415 33.506C25.8108 33.5066 20.9513 37.1951 18.9554 38.951C18.6496 39.2201 18.1465 38.9855 18.2387 38.6047C19.0187 35.3828 21.9484 27.0533 31.4257 26.8045C31.4814 26.8031 31.535 26.8118 31.5845 26.8289V22.3657Z" fill="#2FC6F6"/>
</svg>
