<svg width="147" height="128" viewBox="0 0 147 128" fill="none" xmlns="http://www.w3.org/2000/svg">
	<path fill-rule="evenodd" clip-rule="evenodd" d="M105.429 5.7657C106.319 5.7657 107.04 5.04411 107.04 4.15397C107.04 3.26383 106.319 2.54224 105.429 2.54224C104.538 2.54224 103.817 3.26383 103.817 4.15397C103.817 5.04411 104.538 5.7657 105.429 5.7657ZM25.8975 19.6885C27.8271 19.6885 29.3914 18.1242 29.3914 16.1945C29.3914 14.2648 27.8271 12.7005 25.8975 12.7005C23.9678 12.7005 22.4035 14.2648 22.4035 16.1945C22.4035 18.1242 23.9678 19.6885 25.8975 19.6885ZM25.8974 17.7404C26.7512 17.7404 27.4433 17.0483 27.4433 16.1945C27.4433 15.3407 26.7512 14.6486 25.8974 14.6486C25.0437 14.6486 24.3515 15.3407 24.3515 16.1945C24.3515 17.0483 25.0437 17.7404 25.8974 17.7404ZM8.14696 53.7982C10.746 53.7982 12.8529 51.6913 12.8529 49.0923C12.8529 46.4933 10.746 44.3864 8.14696 44.3864C5.54795 44.3864 3.44102 46.4933 3.44102 49.0923C3.44102 51.6913 5.54795 53.7982 8.14696 53.7982ZM8.14697 51.3422C9.38956 51.3422 10.3969 50.3349 10.3969 49.0923C10.3969 47.8497 9.38956 46.8424 8.14697 46.8424C6.90438 46.8424 5.89706 47.8497 5.89706 49.0923C5.89706 50.3349 6.90438 51.3422 8.14697 51.3422ZM127.626 113.013C129.476 113.013 130.976 111.513 130.976 109.663C130.976 107.812 129.476 106.312 127.626 106.312C125.775 106.312 124.275 107.812 124.275 109.663C124.275 111.513 125.775 113.013 127.626 113.013ZM127.626 111.269C128.513 111.269 129.232 110.55 129.232 109.663C129.232 108.775 128.513 108.056 127.626 108.056C126.738 108.056 126.019 108.775 126.019 109.663C126.019 110.55 126.738 111.269 127.626 111.269ZM74 121.619C105.822 121.619 131.619 95.8219 131.619 63.9998C131.619 32.1777 105.822 6.38077 74 6.38077C42.1779 6.38077 16.381 32.1777 16.381 63.9998C16.381 95.8219 42.1779 121.619 74 121.619ZM16.3534 117.591H5.15213C5.05629 117.591 4.96127 117.588 4.8672 117.581C2.33568 117.521 0.301397 115.394 0.30127 112.778C0.302006 111.503 0.795504 110.281 1.6732 109.38C2.1231 108.918 2.65505 108.56 3.2338 108.321C3.22412 108.191 3.21919 108.06 3.21919 107.928C3.21999 106.583 3.74072 105.293 4.66683 104.343C5.59294 103.392 6.84857 102.858 8.1575 102.859C9.83419 102.861 11.3145 103.723 12.2042 105.038C12.6266 104.884 13.0814 104.801 13.5552 104.801C15.6482 104.804 17.3672 106.443 17.5665 108.54C19.5719 108.989 21.0727 110.825 21.0709 113.021C21.0689 115.551 19.0722 117.6 16.6105 117.599C16.5242 117.599 16.4385 117.596 16.3534 117.591ZM135.062 28.4852H143.011C143.071 28.4886 143.132 28.4904 143.193 28.4904C144.94 28.4911 146.357 27.0938 146.359 25.3689C146.36 23.8721 145.295 22.6203 143.872 22.3139C143.73 20.8842 142.51 19.7663 141.025 19.7645C140.689 19.7643 140.366 19.8213 140.066 19.9262C139.435 19.0295 138.384 18.442 137.194 18.4406C136.266 18.44 135.374 18.8038 134.717 19.452C134.06 20.1001 133.69 20.9795 133.69 21.8966C133.69 21.9868 133.693 22.0762 133.7 22.1647C133.29 22.3277 132.912 22.5718 132.593 22.8866C131.97 23.5009 131.62 24.3343 131.619 25.2036C131.619 26.987 133.063 28.4375 134.859 28.4779C134.926 28.4827 134.994 28.4852 135.062 28.4852Z" fill="#E5F9FF"/>
	<g filter="url(#filter0_d_3222_127282)">
		<path d="M74.2764 108.486L74.0639 108.482C71.9426 108.445 70.2028 106.703 70.1981 104.559L70.0713 47.0841C70.0666 44.9582 71.7692 43.1972 73.8721 43.1283C77.9348 42.9953 83.1441 42.8949 84.4538 43.9561C86.2527 45.4137 101.057 59.4073 105.605 60.026C108.496 60.4193 113.99 60.8781 117.61 61.1601C119.601 61.3153 121.143 62.9899 121.143 65.0079V84.7533C121.143 86.8027 119.554 88.4926 117.53 88.6287C113.875 88.8747 108.473 89.3202 106.387 89.9119C103.106 90.8422 85.3902 106.676 83.5285 107.801C82.1678 108.624 78.145 108.554 74.2764 108.486Z" fill="#ECFAFE"/>
		<path d="M74.2852 107.986L74.0726 107.982C72.2214 107.95 70.7022 106.427 70.6981 104.558L70.5713 47.083C70.5672 45.2258 72.057 43.688 73.8884 43.628C75.9208 43.5615 78.2206 43.5039 80.1723 43.5939C81.1487 43.6388 82.0237 43.7202 82.7272 43.8518C83.4528 43.9876 83.9155 44.1635 84.139 44.3446C84.4425 44.5905 85.1343 45.2103 86.1055 46.0804C86.5341 46.4644 87.0172 46.8972 87.5453 47.3681C89.2587 48.896 91.4246 50.8052 93.6778 52.6892C95.9295 54.5719 98.2761 56.4359 100.35 57.8703C101.387 58.5873 102.363 59.2025 103.231 59.66C104.089 60.1122 104.88 60.4321 105.537 60.5215C108.445 60.9171 113.955 61.3769 117.571 61.6586C119.299 61.7932 120.643 63.2479 120.643 65.0079V84.7533C120.643 86.5398 119.258 88.0114 117.497 88.1299C115.666 88.253 113.395 88.4264 111.318 88.6434C109.255 88.8589 107.341 89.1215 106.25 89.4309C105.758 89.5705 105.064 89.9612 104.265 90.483C103.449 91.0163 102.47 91.7235 101.391 92.543C99.2301 94.1828 96.6429 96.2901 94.1058 98.3988C92.3755 99.837 90.6646 101.279 89.1262 102.576C88.409 103.18 87.7293 103.753 87.1026 104.279C86.1159 105.108 85.2611 105.82 84.5957 106.359C83.9176 106.909 83.4666 107.255 83.2698 107.374C83.0111 107.53 82.5792 107.667 81.9682 107.772C81.3679 107.875 80.6395 107.94 79.8198 107.978C78.1796 108.054 76.2241 108.02 74.2852 107.986Z" stroke="#7FDEFC" stroke-linejoin="round"/>
	</g>
	<path d="M95.2162 69.4761C95.4827 69.2104 95.6492 68.8827 95.7158 68.5396C95.7614 68.3049 95.7602 68.063 95.7122 67.8286C95.6434 67.492 95.478 67.1712 95.2162 66.9101L90.2049 61.9123C89.4944 61.2037 88.3425 61.2037 87.632 61.9123C86.9215 62.6209 86.9215 63.7697 87.632 64.4783L89.6866 66.5274H82.3672C81.3624 66.5274 80.5479 67.3397 80.5479 68.3418C80.5479 69.3439 81.3624 70.1562 82.3672 70.1562H89.3884L87.6598 71.8803C86.9493 72.5889 86.9493 73.7377 87.6598 74.4463C88.3703 75.1548 89.5222 75.1548 90.2327 74.4462L95.2162 69.4761Z" fill="#C3F0FF"/>
	<path d="M102.578 82.1656C101.867 81.4571 101.867 80.3082 102.578 79.5997L104.306 77.8756H97.6424C96.6376 77.8756 95.823 77.0633 95.823 76.0612C95.823 75.0591 96.6376 74.2468 97.6424 74.2468H104.604L102.55 72.1979C101.839 71.4893 101.839 70.3404 102.55 69.6319C103.26 68.9233 104.412 68.9233 105.123 69.6319L110.121 74.6165L110.134 74.6295C110.489 74.9838 110.667 75.4482 110.667 75.9125C110.667 76.0153 110.658 76.118 110.641 76.2196C110.58 76.577 110.411 76.9197 110.134 77.1956L110.121 77.2085L105.151 82.1656C104.44 82.8742 103.288 82.8742 102.578 82.1656Z" fill="#C3F0FF"/>
	<path d="M87.6598 88.4025C86.9493 89.1111 86.9493 90.2599 87.6598 90.9685C88.3703 91.6771 89.5222 91.677 90.2327 90.9685L95.2031 86.0114L95.2162 85.9985C95.5715 85.6442 95.7491 85.1798 95.7491 84.7154C95.7491 84.251 95.5715 83.7867 95.2162 83.4324L95.2031 83.4194L90.2049 78.4347C89.4944 77.7261 88.3425 77.7261 87.632 78.4347C86.9215 79.1433 86.9215 80.2921 87.632 81.0007L89.6864 83.0496H82.3672C81.3624 83.0496 80.5479 83.862 80.5479 84.864C80.5479 85.8661 81.3624 86.6785 82.3672 86.6785H89.3884L87.6598 88.4025Z" fill="#C3F0FF"/>
	<g filter="url(#filter1_di_3222_127282)">
		<path d="M34.7594 99.3092L34.4924 99.3046C31.8271 99.2578 29.6414 97.0624 29.6354 94.3613L29.4761 21.9432C29.4702 19.2645 31.6093 17.0456 34.2514 16.9589C39.3559 16.7912 45.9008 16.6648 47.5464 18.0019C49.8065 19.8384 68.4072 37.4704 74.1208 38.25C77.7529 38.7456 84.6563 39.3236 89.204 39.6789C91.7059 39.8744 93.6427 41.9845 93.6427 44.5272V69.4063C93.6427 71.9885 91.6469 74.1178 89.1042 74.2894C84.5112 74.5993 77.7246 75.1606 75.103 75.9062C70.9811 77.0784 48.7229 97.0285 46.3838 98.447C44.6742 99.4839 39.6199 99.3949 34.7594 99.3092Z" fill="white"/>
		<path d="M34.4836 99.8045L34.7506 99.8092L34.7619 99.8094C37.184 99.852 39.6755 99.8959 41.7764 99.7985C42.8288 99.7497 43.7957 99.665 44.6147 99.524C45.4228 99.3848 46.1341 99.1833 46.6431 98.8746C46.9714 98.6755 47.6045 98.1833 48.4359 97.5072C49.28 96.8207 50.3602 95.9181 51.6004 94.8739C52.391 94.2082 53.2469 93.4848 54.1491 92.7222C56.0804 91.0897 58.2242 89.2777 60.395 87.4683C63.5799 84.8136 66.8148 82.1714 69.5085 80.1211C70.8558 79.0956 72.062 78.2225 73.0556 77.5713C74.067 76.9084 74.8071 76.5101 75.2398 76.3871C76.5027 76.0279 78.8128 75.7045 81.4164 75.4317C84.0061 75.1603 86.8441 74.943 89.1379 74.7882C91.9445 74.5989 94.1427 72.2502 94.1427 69.4063V44.5272C94.1427 41.7277 92.0094 39.3966 89.243 39.1804C84.6915 38.8248 77.8035 38.2478 74.1884 37.7546C73.5632 37.6693 72.7105 37.3422 71.6649 36.7894C70.6293 36.242 69.4433 35.4942 68.1609 34.6048C65.5967 32.8262 62.6788 30.5029 59.8598 28.1392C57.0424 25.7767 54.3314 23.3803 52.182 21.4581C51.5411 20.885 50.9482 20.3523 50.4165 19.8746C49.1741 18.7583 48.266 17.9424 47.8617 17.6139C47.3464 17.1951 46.5201 16.9354 45.5849 16.7599C44.6275 16.5802 43.4696 16.4744 42.2191 16.4166C39.7169 16.301 36.7863 16.3754 34.235 16.4591C31.3201 16.5549 28.9696 18.9981 28.9761 21.9443L29.1354 94.3624C29.142 97.3367 31.547 99.753 34.4836 99.8045Z" stroke="#2FC6F6" stroke-linejoin="round"/>
	</g>
	<path d="M49.1421 71.9076C48.224 72.7948 48.224 74.2332 49.1421 75.1204C50.0602 76.0076 51.5487 76.0076 52.4668 75.1204L58.8895 68.9139L58.9064 68.8977C59.3655 68.454 59.595 67.8726 59.595 67.2912C59.595 66.7098 59.3655 66.1283 58.9064 65.6847L58.8895 65.6685L52.4309 59.4273C51.5128 58.5402 50.0242 58.5402 49.1062 59.4273C48.1881 60.3145 48.1881 61.7529 49.1062 62.6401L51.7609 65.2055H42.3031C41.0047 65.2055 39.9521 66.2226 39.9521 67.4773C39.9521 68.7319 41.0047 69.749 42.3031 69.749H51.3758L49.1421 71.9076Z" fill="#C3F0FF"/>
	<path d="M58.9064 48.7248C59.2507 48.3666 59.4659 47.9248 59.552 47.4621C59.6108 47.1456 59.6093 46.8194 59.5474 46.5034C59.4584 46.0496 59.2447 45.617 58.9064 45.2649L52.4309 38.5261C51.5128 37.5707 50.0242 37.5707 49.1062 38.5261C48.1881 39.4815 48.1881 41.0306 49.1062 41.986L51.7612 44.7489H42.3031C41.0047 44.7489 39.9521 45.8442 39.9521 47.1954C39.9521 48.5466 41.0047 49.6419 42.3031 49.6419H51.3759L49.1421 51.9665C48.224 52.9219 48.224 54.4709 49.1421 55.4264C50.0602 56.3818 51.5487 56.3818 52.4668 55.4263L58.9064 48.7248Z" fill="#C3F0FF"/>
	<path d="M68.6513 64.6441C67.8364 63.7569 67.8364 62.3185 68.6513 61.4313L70.6338 59.2727H62.9913C61.839 59.2727 60.9048 58.2556 60.9048 57.0009C60.9048 55.7463 61.839 54.7292 62.9913 54.7292H70.9756L68.6194 52.1638C67.8046 51.2766 67.8046 49.8382 68.6194 48.951C69.4342 48.0638 70.7553 48.0638 71.5702 48.951L77.3023 55.1921L77.3175 55.2084C77.7249 55.652 77.9286 56.2334 77.9286 56.8148C77.9286 56.9434 77.9186 57.0721 77.8987 57.1992C77.8285 57.6468 77.6348 58.0759 77.3175 58.4213L77.3026 58.4374L71.6021 64.6441C70.7872 65.5312 69.4661 65.5313 68.6513 64.6441Z" fill="#7FDEFC"/>
	<defs>
		<filter id="filter0_d_3222_127282" x="58.5313" y="33.7776" width="74.1513" height="88.5563" filterUnits="userSpaceOnUse" color-interpolation-filters="sRGB">
			<feFlood flood-opacity="0" result="BackgroundImageFix"/>
			<feColorMatrix in="SourceAlpha" type="matrix" values="0 0 0 0 0 0 0 0 0 0 0 0 0 0 0 0 0 0 127 0" result="hardAlpha"/>
			<feOffset dy="2.27"/>
			<feGaussianBlur stdDeviation="5.77"/>
			<feComposite in2="hardAlpha" operator="out"/>
			<feColorMatrix type="matrix" values="0 0 0 0 0.392157 0 0 0 0 0.427451 0 0 0 0 0.482353 0 0 0 0.16 0"/>
			<feBlend mode="normal" in2="BackgroundImageFix" result="effect1_dropShadow_3222_127282"/>
			<feBlend mode="normal" in="SourceGraphic" in2="effect1_dropShadow_3222_127282" result="shape"/>
		</filter>
		<filter id="filter1_di_3222_127282" x="16.9361" y="6.58718" width="89.2465" height="107.58" filterUnits="userSpaceOnUse" color-interpolation-filters="sRGB">
			<feFlood flood-opacity="0" result="BackgroundImageFix"/>
			<feColorMatrix in="SourceAlpha" type="matrix" values="0 0 0 0 0 0 0 0 0 0 0 0 0 0 0 0 0 0 127 0" result="hardAlpha"/>
			<feOffset dy="2.27"/>
			<feGaussianBlur stdDeviation="5.77"/>
			<feComposite in2="hardAlpha" operator="out"/>
			<feColorMatrix type="matrix" values="0 0 0 0 0.392157 0 0 0 0 0.427451 0 0 0 0 0.482353 0 0 0 0.16 0"/>
			<feBlend mode="normal" in2="BackgroundImageFix" result="effect1_dropShadow_3222_127282"/>
			<feBlend mode="normal" in="SourceGraphic" in2="effect1_dropShadow_3222_127282" result="shape"/>
			<feColorMatrix in="SourceAlpha" type="matrix" values="0 0 0 0 0 0 0 0 0 0 0 0 0 0 0 0 0 0 127 0" result="hardAlpha"/>
			<feOffset dx="3"/>
			<feComposite in2="hardAlpha" operator="arithmetic" k2="-1" k3="1"/>
			<feColorMatrix type="matrix" values="0 0 0 0 0.592157 0 0 0 0 0.886275 0 0 0 0 0.980392 0 0 0 0.45 0"/>
			<feBlend mode="normal" in2="shape" result="effect2_innerShadow_3222_127282"/>
		</filter>
	</defs>
</svg>
