<svg width="11px" height="11px" viewBox="0 0 11 11" version="1.1" xmlns="http://www.w3.org/2000/svg" xmlns:xlink="http://www.w3.org/1999/xlink">
    <g id="Page-1" stroke="none" stroke-width="1" fill="none" fill-rule="evenodd" opacity="0.800000012">
        <g id="Автоматизация-1" transform="translate(-435.000000, -305.000000)" fill="#FFFFFF">
            <g id="Misc-/-Counter-/-Blue" transform="translate(422.000000, 303.500000)">
                <g id="Combined-Shape-2" transform="translate(12.855152, 2.124578)">
                    <path d="M3.03719489,7.21811112 C3.5259272,8.08505833 4.45533983,8.67050313 5.52149042,8.67050313 C5.60649402,8.67050313 5.69062841,8.66678158 5.77373954,8.65949253 L5.90460365,10.2192495 C5.7783427,10.2301023 5.65056338,10.2356411 5.52149042,10.2356411 C3.8760705,10.2356411 2.44088302,9.33552909 1.68146506,8.0008421 L0.59830314,8.62620593 L1.33117635,5.89108589 L4.06629638,6.6239591 L3.03719489,7.21811112 Z M5.56196095,2.97101982 C5.54849315,2.97083236 5.53500276,2.97073832 5.52149042,2.97073832 C4.42031458,2.97073832 3.46500852,3.5952811 2.9904649,4.50947401 L1.5504995,3.88865657 C2.26707598,2.41853727 3.77599115,1.40560032 5.52149042,1.40560032 C5.53499484,1.40560032 5.5484851,1.40566095 5.56196095,1.40578196 L5.56196095,0.22436814 L7.56420778,2.22661497 L5.56196095,4.2288618 L5.56196095,2.97101982 Z M7.98270398,7.25828748 C8.22976407,6.83624467 8.37137282,6.34496994 8.37137282,5.82062072 C8.37137282,5.23050033 8.19201097,4.68227215 7.88482881,4.22747772 L9.12216517,3.26510499 C9.63497388,3.98633906 9.93651082,4.86826603 9.93651082,5.82062072 C9.93651082,6.63010331 9.71866055,7.38870424 9.33839024,8.0409933 L10.4572249,8.6869528 L7.72210488,9.41982601 L6.98923168,6.68470597 L7.98270398,7.25828748 Z" id="Combined-Shape"></path>
                </g>
            </g>
        </g>
    </g>
</svg>