<svg width="11px" height="11px" viewBox="0 0 11 11" version="1.1" xmlns="http://www.w3.org/2000/svg" xmlns:xlink="http://www.w3.org/1999/xlink">
    <g id="Symbols" stroke="none" stroke-width="1" fill="none" fill-rule="evenodd" opacity="1">
        <g id="001" transform="translate(-127.000000, -5.000000)" fill="#B1B7C5" fill-rule="nonzero">
            <g id="Misc-/-Helper-/-Small-/-Helper-small" transform="translate(126.000000, 4.000000)">
                <path d="M12,6.50013302 C12,9.53753084 9.53756062,12 6.50008868,12 C3.46246155,12 1,9.53753084 1,6.50013302 C1,3.46226963 3.46246155,1 6.50008868,1 C9.53756062,1 12,3.46226963 12,6.50013302 Z M4.37549452,5.05957245 C4.37549452,5.18989117 4.43000766,5.31098567 4.53905327,5.42287529 C4.64806021,5.53480359 4.78189683,5.59070972 4.94058247,5.59070972 C5.20966737,5.59070972 5.39238984,5.43070718 5.48871121,5.11056673 C5.59069855,4.8046397 5.71531106,4.57306726 5.86262609,4.41584939 C6.00988312,4.25863152 6.23932561,4.18002258 6.55097291,4.18002258 C6.81719582,4.18002258 7.03462957,4.25797402 7.2031968,4.41372221 C7.37170602,4.56954774 7.45601864,4.76074246 7.45601864,4.98734505 C7.45601864,5.1035277 7.42838499,5.21114362 7.37315635,5.31027017 C7.31790838,5.40947406 7.24993616,5.49935705 7.16920102,5.58009316 C7.08846589,5.66082928 6.9574139,5.78053144 6.7761611,5.93914165 C6.56936312,6.12045466 6.40503086,6.27693768 6.28328033,6.40866808 C6.16145246,6.5403598 6.06373877,6.69332332 5.99010059,6.86755862 C5.9164044,7.04175525 5.87962398,7.24784022 5.87962398,7.48579421 C5.87962398,7.67559659 5.92988281,7.81865905 6.03045849,7.91494291 C6.13097616,8.01128479 6.25493118,8.05941705 6.40224622,8.05941705 C6.68546702,8.05941705 6.85403425,7.9121389 6.90787057,7.61750527 C6.93900436,7.47873584 6.96236437,7.38165912 6.97796994,7.32644916 C6.99349816,7.27120052 7.01548519,7.21597121 7.04383434,7.16072257 C7.07212548,7.1055126 7.11534537,7.04461727 7.17343599,6.97803657 C7.23144927,6.91149454 7.30868427,6.83427794 7.40500564,6.74644478 C7.75341402,6.43485172 7.9948846,6.21318033 8.12945605,6.08144993 C8.26396949,5.94975821 8.38015074,5.79325584 8.47788377,5.61194283 C8.5756168,5.43070718 8.62448331,5.219633 8.62448331,4.97883633 C8.62448331,4.67290931 8.53877837,4.38968508 8.3674265,4.1290283 C8.19599728,3.86844886 7.95315372,3.66236389 7.63872178,3.51079271 C7.32428984,3.35929889 6.96166821,3.28347462 6.55097291,3.28347462 C6.10908581,3.28347462 5.72242735,3.37415046 5.39099752,3.55540546 C5.05958703,3.73671846 4.80742267,3.96544823 4.63467848,4.24163342 C4.46187628,4.51781862 4.37549452,4.7904843 4.37549452,5.05957245 Z M6.44900492,9.71654755 C6.61612182,9.71654755 6.76339818,9.6598679 6.89087268,9.54658594 C7.01834718,9.43330399 7.08208443,9.27749779 7.08208443,9.07918669 C7.08208443,8.90071637 7.02113181,8.75061488 6.89938129,8.62878553 C6.77755342,8.5070142 6.62745374,8.44608019 6.44898558,8.44608019 C6.26767476,8.44608019 6.1147131,8.5070142 5.99010059,8.62878553 C5.86541073,8.75061488 5.80314315,8.90071637 5.80314315,9.07918669 C5.80314315,9.28034048 5.86755722,9.43684284 5.99648205,9.54869378 C6.12534887,9.66056406 6.27618338,9.71654755 6.44900492,9.71654755 Z" id="Combined-Shape"></path>
            </g>
        </g>
    </g>
</svg>