<svg width="32" height="32" viewBox="0 0 32 32" fill="none" xmlns="http://www.w3.org/2000/svg">
	<circle cx="16" cy="16" r="16" fill="#559BE6"/>
	<path fill-rule="evenodd" clip-rule="evenodd" d="M11.5223 24.68L11.5782 24.6809C12.5953 24.6986 13.6529 24.717 14.0106 24.5029C14.1719 24.4063 14.7859 23.8942 15.5675 23.2422C17.1577 21.9158 19.4418 20.0104 20.0201 19.8481C20.5686 19.6942 21.9887 19.5782 22.9498 19.5142C23.4819 19.4788 23.8995 19.0391 23.8995 18.5059V13.3682C23.8995 12.8432 23.4942 12.4074 22.9707 12.3671C22.0191 12.2937 20.5746 12.1743 19.8146 12.072C18.8275 11.9391 16.0021 9.43388 14.7807 8.35084C14.5227 8.12211 14.3363 7.95682 14.2539 7.89069C13.9095 7.61457 12.54 7.64068 11.4719 7.6753C10.919 7.69321 10.4714 8.15141 10.4727 8.70457L10.506 23.6592C10.5072 24.217 10.9646 24.6703 11.5223 24.68ZM16.222 13.8287C16.3099 13.7409 16.3648 13.6325 16.3868 13.5191C16.4018 13.4414 16.4014 13.3614 16.3856 13.2839C16.3629 13.1726 16.3084 13.0665 16.222 12.9802L14.5693 11.3275C14.335 11.0932 13.9551 11.0932 13.7208 11.3275C13.4865 11.5618 13.4865 11.9417 13.7208 12.176L14.3984 12.8536H11.9845C11.6532 12.8536 11.3845 13.1223 11.3845 13.4536C11.3845 13.785 11.6532 14.0536 11.9845 14.0536H14.3001L13.73 14.6238C13.4957 14.8581 13.4957 15.238 13.73 15.4723C13.9643 15.7066 14.3442 15.7066 14.5785 15.4723L16.222 13.8287ZM18.6497 18.025C18.4154 17.7906 18.4154 17.4107 18.6497 17.1764L19.2198 16.6063H17.0222C16.6908 16.6063 16.4222 16.3377 16.4222 16.0063C16.4222 15.6749 16.6908 15.4063 17.0222 15.4063H19.3181L18.6406 14.7288C18.4062 14.4945 18.4062 14.1146 18.6406 13.8802C18.8749 13.6459 19.2548 13.6459 19.4891 13.8802L21.1374 15.5286L21.1418 15.5329C21.2589 15.65 21.3175 15.8036 21.3175 15.9571C21.3175 15.9911 21.3146 16.0251 21.3089 16.0587C21.2887 16.1769 21.233 16.2902 21.1418 16.3815L21.1375 16.3857L19.4983 18.0249C19.2639 18.2593 18.884 18.2593 18.6497 18.025ZM13.73 20.9359C13.4957 20.7016 13.4957 20.3217 13.73 20.0874L14.3001 19.5173H11.9845C11.6532 19.5173 11.3845 19.2486 11.3845 18.9173C11.3845 18.5859 11.6532 18.3173 11.9845 18.3173H14.3984L13.7208 17.6397C13.4865 17.4054 13.4865 17.0255 13.7208 16.7912C13.9551 16.5569 14.335 16.5569 14.5693 16.7912L16.2177 18.4395L16.222 18.4438C16.3392 18.561 16.3978 18.7146 16.3978 18.8681C16.3978 19.0217 16.3392 19.1752 16.222 19.2924L16.2177 19.2967L14.5785 20.9359C14.3442 21.1702 13.9643 21.1702 13.73 20.9359Z" fill="white"/>
</svg>
