<svg width="101" height="94" viewBox="0 0 101 94" fill="none" xmlns="http://www.w3.org/2000/svg">
	<g clip-path="url(#clip0_1917_510562)">
		<g opacity="0.722772">
			<mask id="path-2-outside-1_1917_510562" maskUnits="userSpaceOnUse" x="-2" y="-2" width="106" height="98" fill="black">
				<rect fill="white" x="-2" y="-2" width="106" height="98"/>
				<path fill-rule="evenodd" clip-rule="evenodd" d="M42 0H0V94H42H51V93.8022L87.5 93L101 0H51H42Z"/>
			</mask>
			<path fill-rule="evenodd" clip-rule="evenodd" d="M42 0H0V94H42H51V93.8022L87.5 93L101 0H51H42Z" fill="url(#paint0_angular_1917_510562)"/>
			<path d="M0 0V-2H-2V0H0ZM0 94H-2V96H0V94ZM51 94V96H53V94H51ZM51 93.8022L50.9561 91.8027L49 91.8457V93.8022H51ZM87.5 93L87.5439 94.9995L89.2361 94.9623L89.4793 93.2873L87.5 93ZM101 0L102.979 0.287311L103.311 -2H101V0ZM0 2H42V-2H0V2ZM2 94V0H-2V94H2ZM42 92H0V96H42V92ZM51 92H42V96H51V92ZM49 93.8022V94H53V93.8022H49ZM87.4561 91.0005L50.9561 91.8027L51.0439 95.8017L87.5439 94.9995L87.4561 91.0005ZM99.0207 -0.287311L85.5207 92.7127L89.4793 93.2873L102.979 0.287311L99.0207 -0.287311ZM51 2H101V-2H51V2ZM42 2H51V-2H42V2Z" fill="white" mask="url(#path-2-outside-1_1917_510562)"/>
		</g>
		<g filter="url(#filter0_d_1917_510562)">
			<path d="M19 19.7678C19 17.6869 20.6869 16 22.7678 16H67.2322C69.3131 16 71 17.6869 71 19.7678V74.2322C71 76.3131 69.3131 78 67.2322 78H22.7678C20.6869 78 19 76.3131 19 74.2322V19.7678Z" fill="white"/>
		</g>
		<path fill-rule="evenodd" clip-rule="evenodd" d="M42.6393 26.6289C42.2387 26.6289 41.9141 26.9536 41.9141 27.3541C41.9141 27.7546 42.2387 28.0793 42.6393 28.0793H57.1434C57.5439 28.0793 57.8686 27.7546 57.8686 27.3541C57.8686 26.9536 57.5439 26.6289 57.1434 26.6289H42.6393ZM42.6393 30.9786C42.2387 30.9786 41.9141 31.3032 41.9141 31.7038C41.9141 32.1043 42.2388 32.429 42.6393 32.429H61.4946C61.8951 32.429 62.2198 32.1043 62.2198 31.7038C62.2198 31.3032 61.8951 30.9786 61.4946 30.9786H42.6393Z" fill="#44CCF7"/>
		<path fill-rule="evenodd" clip-rule="evenodd" d="M42.6393 42.1426C42.2387 42.1426 41.9141 42.4673 41.9141 42.8678C41.9141 43.2683 42.2387 43.593 42.6393 43.593H57.1434C57.5439 43.593 57.8686 43.2683 57.8686 42.8678C57.8686 42.4673 57.5439 42.1426 57.1434 42.1426H42.6393ZM42.6393 46.4922C42.2387 46.4922 41.9141 46.8169 41.9141 47.2174C41.9141 47.618 42.2388 47.9426 42.6393 47.9426H61.4946C61.8951 47.9426 62.2198 47.618 62.2198 47.2174C62.2198 46.8169 61.8951 46.4922 61.4946 46.4922H42.6393Z" fill="#00E5BF"/>
		<path fill-rule="evenodd" clip-rule="evenodd" d="M42.6393 58.0977C42.2387 58.0977 41.9141 58.4223 41.9141 58.8229C41.9141 59.2234 42.2387 59.5481 42.6393 59.5481H57.1434C57.5439 59.5481 57.8686 59.2234 57.8686 58.8229C57.8686 58.4223 57.5439 58.0977 57.1434 58.0977H42.6393ZM42.6393 62.4473C42.2387 62.4473 41.9141 62.772 41.9141 63.1725C41.9141 63.573 42.2388 63.8977 42.6393 63.8977H61.4946C61.8951 63.8977 62.2198 63.573 62.2198 63.1725C62.2198 62.772 61.8951 62.4473 61.4946 62.4473H42.6393Z" fill="#DFE0E3"/>
		<path fill-rule="evenodd" clip-rule="evenodd" d="M31.6624 34.3189C34.466 34.3189 36.7388 32.0461 36.7388 29.2425C36.7388 26.4388 34.466 24.166 31.6624 24.166C28.8587 24.166 26.5859 26.4388 26.5859 29.2425C26.5859 32.0461 28.8587 34.3189 31.6624 34.3189ZM28.8667 29.8383L30.7379 31.7835L34.4554 27.9189C34.6667 27.6992 34.6667 27.3518 34.4554 27.1322C34.2322 26.9001 33.8608 26.9001 33.6375 27.1322L30.7379 30.1464L29.6846 29.0515C29.4614 28.8194 29.0899 28.8194 28.8667 29.0515C28.6554 29.2712 28.6554 29.6186 28.8667 29.8383Z" fill="#82E553"/>
		<path fill-rule="evenodd" clip-rule="evenodd" d="M31.6624 49.8345C34.466 49.8345 36.7388 47.5617 36.7388 44.7581C36.7388 41.9544 34.466 39.6816 31.6624 39.6816C28.8587 39.6816 26.5859 41.9544 26.5859 44.7581C26.5859 47.5617 28.8587 49.8345 31.6624 49.8345ZM28.8667 45.3539L30.7379 47.2991L34.4554 43.4346C34.6667 43.2149 34.6667 42.8675 34.4554 42.6478C34.2322 42.4157 33.8608 42.4157 33.6375 42.6478L30.7379 45.6621L29.6846 44.5671C29.4614 44.335 29.0899 44.335 28.8667 44.5671C28.6554 44.7868 28.6554 45.1342 28.8667 45.3539Z" fill="#82E553"/>
		<path fill-rule="evenodd" clip-rule="evenodd" d="M36.7369 60.7112C36.7369 63.5148 34.4641 65.7876 31.6604 65.7876C28.8568 65.7876 26.584 63.5148 26.584 60.7112C26.584 57.9076 28.8568 55.6348 31.6604 55.6348C34.4641 55.6348 36.7369 57.9076 36.7369 60.7112ZM28.8647 61.307L30.736 63.2522L34.4535 59.3877C34.6648 59.168 34.6648 58.8206 34.4535 58.6009C34.2302 58.3688 33.8588 58.3688 33.6356 58.6009L30.736 61.6152L29.6826 60.5202C29.4594 60.2881 29.088 60.2881 28.8647 60.5202C28.6534 60.7399 28.6534 61.0873 28.8647 61.307Z" fill="#DFE0E3"/>
	</g>
	<defs>
		<filter id="filter0_d_1917_510562" x="12.218" y="13.7393" width="65.564" height="75.564" filterUnits="userSpaceOnUse" color-interpolation-filters="sRGB">
			<feFlood flood-opacity="0" result="BackgroundImageFix"/>
			<feColorMatrix in="SourceAlpha" type="matrix" values="0 0 0 0 0 0 0 0 0 0 0 0 0 0 0 0 0 0 127 0" result="hardAlpha"/>
			<feOffset dy="4.52133"/>
			<feGaussianBlur stdDeviation="3.391"/>
			<feComposite in2="hardAlpha" operator="out"/>
			<feColorMatrix type="matrix" values="0 0 0 0 0.276832 0 0 0 0 0.341667 0 0 0 0 0.0341667 0 0 0 0.13 0"/>
			<feBlend mode="normal" in2="BackgroundImageFix" result="effect1_dropShadow_1917_510562"/>
			<feBlend mode="normal" in="SourceGraphic" in2="effect1_dropShadow_1917_510562" result="shape"/>
		</filter>
		<radialGradient id="paint0_angular_1917_510562" cx="0" cy="0" r="1" gradientUnits="userSpaceOnUse" gradientTransform="translate(55.8367 55) rotate(97.9969) scale(60.8363 60.4892)">
			<stop offset="0.625" stop-color="#DAF400"/>
			<stop offset="0.625" stop-color="#B3E600"/>
		</radialGradient>
		<clipPath id="clip0_1917_510562">
			<path d="M0 8C0 3.58172 3.58172 0 8 0H101V94H8C3.58172 94 0 90.4183 0 86V8Z" fill="white"/>
		</clipPath>
	</defs>
</svg>
