<svg width="24" height="24" viewBox="0 0 24 24" fill="none" xmlns="http://www.w3.org/2000/svg">
	<rect width="24" height="24" rx="12" fill="#C5E7F4"/>
	<path fill-rule="evenodd" clip-rule="evenodd" d="M17.1935 16.7178C17.1935 17.1846 16.8099 17.5645 16.3385 17.5645H7.66154C7.1901 17.5645 6.80652 17.1846 6.80652 16.7178V7.28216C6.80652 6.81536 7.1901 6.43555 7.66154 6.43555H16.3385C16.8099 6.43555 17.1935 6.81536 17.1935 7.28216V16.7178ZM8.7354 10.8871C8.48955 10.8871 8.29024 11.0864 8.29024 11.3323V13.3869C8.29024 13.6327 8.48955 13.832 8.7354 13.832H14.5224C14.7683 13.832 14.9676 13.6327 14.9676 13.3869V11.3323C14.9676 11.0864 14.7683 10.8871 14.5224 10.8871H8.7354ZM11.078 8.66133C10.7676 8.66133 10.516 8.91292 10.516 9.22327C10.516 9.53363 10.7676 9.78522 11.078 9.78522H14.4056C14.716 9.78522 14.9676 9.53363 14.9676 9.22327C14.9676 8.91292 14.716 8.66133 14.4056 8.66133H11.078ZM9.03217 9.99665C9.44192 9.99665 9.7741 9.66448 9.7741 9.25472C9.7741 8.84497 9.44192 8.5128 9.03217 8.5128C8.62241 8.5128 8.29024 8.84497 8.29024 9.25472C8.29024 9.66448 8.62241 9.99665 9.03217 9.99665Z" fill="#559BE6"/>
</svg>