<svg width="24" height="24" viewBox="0 0 24 24" fill="none" xmlns="http://www.w3.org/2000/svg">
	<rect width="24" height="24" rx="12" fill="#C5E7F4"/>
	<path fill-rule="evenodd" clip-rule="evenodd" d="M9.45146 13.0284V17.8226C8.08789 17.7164 6.8025 17.4289 5.64565 16.9953C5.39031 16.8996 5.24094 16.6364 5.28325 16.3671C5.33849 16.0154 5.40096 15.6709 5.46489 15.4217C5.66209 14.6529 6.77139 14.0819 7.79208 13.6428C8.05933 13.5278 8.22068 13.4361 8.38369 13.3434C8.54292 13.2528 8.70374 13.1614 8.96643 13.0465C8.99626 12.9049 9.00824 12.7603 9.00212 12.6159L9.45424 12.5622C9.45424 12.5622 9.51373 12.6703 9.4183 12.0352C9.4183 12.0352 8.91023 11.9035 8.88669 10.8921C8.88669 10.8921 8.50469 11.0191 8.48165 10.4064C8.47688 10.2843 8.44534 10.1669 8.41511 10.0544C8.3426 9.78463 8.2777 9.54312 8.60823 9.33268L8.36976 8.69682C8.36976 8.69682 8.11889 6.24133 9.21831 6.44012C8.77226 5.73344 12.534 5.14603 12.7839 7.3098C12.8822 7.96207 12.8822 8.625 12.7839 9.27727C12.7839 9.27727 13.3459 9.21266 12.9707 10.2811C12.9707 10.2811 12.7641 11.0502 12.447 10.8775C12.447 10.8775 12.4649 11.2162 12.3768 11.5276H10.9523C10.1234 11.5276 9.45146 12.1996 9.45146 13.0284ZM16.4301 12.6454H18.2268C18.5091 12.6454 18.7401 12.8727 18.7401 13.1506V17.6976C18.7401 17.9755 18.5091 18.2028 18.2268 18.2028H11.0399C10.7575 18.2028 10.5265 17.9755 10.5265 17.6976V13.1506C10.5265 12.8727 10.7575 12.6454 11.0399 12.6454H12.8366C12.9649 12.1402 13.0933 11.6349 13.6066 11.6349H15.66C16.1734 11.6349 16.3017 12.1402 16.4301 12.6454ZM14.6458 16.7631C13.8956 16.7631 13.2874 16.1646 13.2874 15.4262C13.2874 14.6879 13.8956 14.0893 14.6458 14.0893C15.396 14.0893 16.0042 14.6879 16.0042 15.4262C16.0042 16.1646 15.396 16.7631 14.6458 16.7631ZM12.5978 15.4263C12.5978 16.5394 13.5147 17.4418 14.6458 17.4418C15.7769 17.4418 16.6937 16.5394 16.6937 15.4263C16.6937 14.3131 15.7768 13.4107 14.6458 13.4107C13.5147 13.4107 12.5978 14.3131 12.5978 15.4263ZM17.2673 13.7814H17.9531V13.3243H17.2673V13.7814Z" fill="#559BE6"/>
</svg>