<svg width="24" height="24" viewBox="0 0 24 24" fill="none" xmlns="http://www.w3.org/2000/svg">
	<rect width="24" height="24" rx="12" fill="#C5E7F4"/>
	<path fill-rule="evenodd" clip-rule="evenodd" d="M7.66699 6.63184C6.56242 6.63184 5.66699 7.52727 5.66699 8.63184V13.035C5.66699 14.1396 6.56242 15.035 7.66699 15.035H8.29237V18.267L11.5741 15.035H15.4812C16.3457 15.035 17.0821 14.4865 17.3614 13.7186L17.1485 13.9314C16.7745 14.3054 16.1681 14.3054 15.794 13.9314C15.42 13.5574 15.42 12.951 15.794 12.5769L16.4742 11.8968H11.2098C10.6808 11.8968 10.252 11.468 10.252 10.939C10.252 10.4101 10.6808 9.98126 11.2098 9.98126H16.4742L15.794 9.3011C15.42 8.92707 15.42 8.32065 15.794 7.94662C16.1681 7.5726 16.7745 7.57259 17.1485 7.94662L17.4431 8.24118C17.2614 7.32363 16.4521 6.63184 15.4812 6.63184H7.66699ZM17.4812 9.11931L16.7285 8.36662C16.5865 8.22455 16.3561 8.22455 16.214 8.36662C16.072 8.50869 16.072 8.73903 16.214 8.8811L17.4812 10.1483V9.11931ZM17.4812 10.5752H11.2098C11.0089 10.5752 10.846 10.7381 10.846 10.939C10.846 11.1399 11.0089 11.3028 11.2098 11.3028H17.4812V10.5752ZM17.4812 11.7298L16.214 12.9969C16.072 13.139 16.072 13.3693 16.214 13.5114C16.3561 13.6535 16.5865 13.6535 16.7285 13.5114L17.4812 12.7587V11.7298Z" fill="#559BE6"/>
	<path fill-rule="evenodd" clip-rule="evenodd" d="M16.716 8.36681L19.0311 10.682C19.1732 10.824 19.1732 11.0544 19.0311 11.1964L16.716 13.5116C16.5739 13.6537 16.3436 13.6537 16.2015 13.5116C16.0594 13.3695 16.0594 13.1392 16.2015 12.9971L17.8956 11.303H11.1973C10.9963 11.303 10.8335 11.1401 10.8335 10.9392L-nan -nanL-nan -nanL10.8335 10.9392C10.8335 10.7383 10.9963 10.5754 11.1973 10.5754H17.8956L16.2015 8.88128C16.0594 8.73922 16.0594 8.50888 16.2015 8.36681C16.3436 8.22474 16.5739 8.22474 16.716 8.36681Z" fill="#559BE6"/>
</svg>
