<svg width="24" height="24" viewBox="0 0 24 24" fill="none" xmlns="http://www.w3.org/2000/svg">
	<rect width="24" height="24" rx="12" fill="#C5E7F4"/>
	<path d="M6.81091 8.49202C6.81091 7.60813 7.52744 6.8916 8.41133 6.8916H15.6142C16.4981 6.8916 17.2147 7.60813 17.2147 8.49202V10.0925H18.5476C18.6902 10.0925 18.7616 10.2649 18.6608 10.3657L16.3479 12.6786C16.2854 12.7411 16.184 12.7411 16.1215 12.6786L13.8086 10.3657C13.7078 10.2649 13.7792 10.0925 13.9218 10.0925H15.3076V9.13776C15.3076 8.93152 15.1404 8.76433 14.9342 8.76433H9.09142C8.88518 8.76433 8.71799 8.93152 8.71799 9.13776V9.88487L6.81091 9.67157V8.49202Z" fill="#559BE6"/>
	<path d="M6.81091 13.8754V15.5076C6.81091 16.3915 7.52744 17.1081 8.41133 17.1081H15.6142C16.4981 17.1081 17.2147 16.3915 17.2147 15.5076V14.2274L15.3076 14.0141V14.8619C15.3076 15.0681 15.1404 15.2353 14.9342 15.2353H9.09142C8.88518 15.2353 8.71799 15.0681 8.71799 14.8619V13.8754H10.0787C10.2213 13.8754 10.2927 13.703 10.1919 13.6022L7.87893 11.2893C7.81643 11.2268 7.7151 11.2268 7.6526 11.2893L5.33968 13.6022C5.23886 13.703 5.31026 13.8754 5.45284 13.8754H6.81091Z" fill="#559BE6"/>
</svg>