<svg width="24" height="24" viewBox="0 0 24 24" fill="none" xmlns="http://www.w3.org/2000/svg">
	<rect width="24" height="24" rx="12" fill="#C5E7F4"/>
	<path d="M7.99068 7.29134L8.3205 8.71608L16.5816 8.70078C16.7193 8.70137 16.8487 8.76522 16.9331 8.87301C17.018 8.98139 17.0485 9.12199 17.0169 9.25556L16.1768 13.92C16.1288 14.1215 15.9489 14.2639 15.7421 14.265H9.08507C8.87828 14.2639 8.69843 14.1215 8.65039 13.92L7.19579 7.84612H5.90573C5.65724 7.84612 5.45581 7.64469 5.45581 7.39621C5.45581 7.14772 5.65724 6.94629 5.90573 6.94629H7.55542C7.7628 6.94746 7.94206 7.08981 7.99068 7.29134Z" fill="#559BE6"/>
	<path d="M11.5276 15.9147C11.5276 16.5439 11.0173 17.0542 10.3876 17.0542C9.75838 17.0542 9.24812 16.5439 9.24812 15.9147C9.24812 15.285 9.75837 14.7747 10.3876 14.7747C11.0173 14.7747 11.5276 15.285 11.5276 15.9147Z" fill="#559BE6"/>
	<path d="M15.547 15.9147C15.547 16.5439 15.0367 17.0542 14.407 17.0542C13.7778 17.0542 13.2675 16.5439 13.2675 15.9147C13.2675 15.285 13.7778 14.7747 14.407 14.7747C15.0367 14.7747 15.547 15.285 15.547 15.9147Z" fill="#559BE6"/>
</svg>