<svg width="24" height="24" viewBox="0 0 24 24" fill="none" xmlns="http://www.w3.org/2000/svg">
	<rect width="24" height="24" rx="12" fill="#C5E7F4"/>
	<path d="M6.08594 7.54264C6.08594 7.03503 6.5128 6.62354 7.03936 6.62354H14.0036C14.5301 6.62354 14.957 7.03503 14.957 7.54264V12.1183C14.957 12.6259 14.5301 13.0374 14.0036 13.0374H10.5216L8.60897 14.8811C8.49635 14.9897 8.30379 14.9128 8.30379 14.7593V13.0374H7.03936C6.5128 13.0374 6.08594 12.6259 6.08594 12.1183V7.54264Z" fill="#559BE6"/>
	<path d="M10.5215 14.4627V14.9688C10.5215 15.4764 10.9484 15.8879 11.4749 15.8879H14.1123L15.3819 17.3159C15.49 17.4373 15.6964 17.3637 15.6964 17.2037V15.8879H16.9606C17.4872 15.8879 17.9141 15.4764 17.9141 14.9688V10.3932C17.9141 9.88562 17.4872 9.47412 16.9606 9.47412H16.4358V13.2563C16.4358 13.9226 15.8755 14.4627 15.1844 14.4627H10.5215Z" fill="#559BE6"/>
</svg>