<svg width="24" height="24" viewBox="0 0 24 24" fill="none" xmlns="http://www.w3.org/2000/svg">
	<rect width="24" height="24" rx="12" fill="#C5E7F4"/>
	<path d="M7.58064 12.5907H9.68995V14.7H7.58064V12.5907Z" fill="#559BE6"/>
	<path fill-rule="evenodd" clip-rule="evenodd" d="M6.86779 7.26025C6.05662 7.26025 5.39905 7.91783 5.39905 8.72899V15.2698C5.39905 16.081 6.05662 16.7386 6.86778 16.7386H17.1323C17.9434 16.7386 18.601 16.081 18.601 15.2698V8.72899C18.601 7.91783 17.9434 7.26025 17.1323 7.26025H6.86779ZM7.17496 8.35755C6.76938 8.35755 6.44059 8.68634 6.44059 9.09192V9.96835H17.5595V9.09192C17.5595 8.68634 17.2307 8.35755 16.8251 8.35755H7.17496ZM17.5595 11.6609H6.44059V14.9069C6.44059 15.3125 6.76938 15.6413 7.17496 15.6413H16.8251C17.2307 15.6413 17.5595 15.3125 17.5595 14.9069V11.6609Z" fill="#559BE6"/>
</svg>