<svg width="24" height="24" viewBox="0 0 24 24" fill="none" xmlns="http://www.w3.org/2000/svg">
	<rect width="24" height="24" rx="12" fill="#C5E7F4"/>
	<path fill-rule="evenodd" clip-rule="evenodd" d="M6.76323 6.27197H17.2369C17.9601 6.27197 18.5464 6.90387 18.5464 7.68335V16.3166C18.5464 17.0961 17.9601 17.728 17.2369 17.728H6.76323C6.04002 17.728 5.45374 17.0961 5.45374 16.3166V7.68335C5.45374 6.90387 6.04002 6.27197 6.76323 6.27197ZM7.09038 9.54513V16.0914H16.9099V9.54513H7.09038ZM7.90867 8.72684C8.3606 8.72684 8.72696 8.36048 8.72696 7.90855C8.72696 7.45662 8.3606 7.09026 7.90867 7.09026C7.45675 7.09026 7.09038 7.45662 7.09038 7.90855C7.09038 8.36048 7.45675 8.72684 7.90867 8.72684ZM10.3635 8.72684C10.8155 8.72684 11.1818 8.36048 11.1818 7.90855C11.1818 7.45662 10.8155 7.09026 10.3635 7.09026C9.91161 7.09026 9.54525 7.45662 9.54525 7.90855C9.54525 8.36048 9.91161 8.72684 10.3635 8.72684Z" fill="#559BE6"/>
</svg>