<svg width="24" height="24" viewBox="0 0 24 24" fill="none" xmlns="http://www.w3.org/2000/svg">
	<rect width="24" height="24" rx="12" fill="#C5E7F4"/>
	<path fill-rule="evenodd" clip-rule="evenodd" d="M8.12061 5.91211C7.56832 5.91211 7.12061 6.35982 7.12061 6.91211V17.0879C7.12061 17.6401 7.56832 18.0879 8.12061 18.0879H15.8796C16.4319 18.0879 16.8796 17.6401 16.8796 17.0879V10.118C16.8796 9.61577 16.6907 9.13196 16.3504 8.76266L14.3177 6.55681C13.9391 6.14588 13.4057 5.91211 12.847 5.91211H8.12061ZM9.40293 9.14472C9.04889 9.14472 8.76187 9.43173 8.76187 9.78578C8.76187 10.1398 9.04889 10.4268 9.40293 10.4268H14.1253C14.4793 10.4268 14.7663 10.1398 14.7663 9.78578C14.7663 9.43173 14.4793 9.14472 14.1253 9.14472H9.40293ZM9.40309 11.5801C9.04904 11.5801 8.76203 11.8671 8.76203 12.2211C8.76203 12.5752 9.04904 12.8622 9.40309 12.8622H14.1254C14.4795 12.8622 14.7665 12.5752 14.7665 12.2211C14.7665 11.8671 14.4795 11.5801 14.1254 11.5801H9.40309ZM8.76203 14.6238C8.76203 14.2697 9.04904 13.9827 9.40309 13.9827H12.7422C13.0962 13.9827 13.3832 14.2697 13.3832 14.6238C13.3832 14.9778 13.0962 15.2648 12.7422 15.2648H9.40309C9.04904 15.2648 8.76203 14.9778 8.76203 14.6238Z" fill="#559BE6"/>
</svg>