<svg width="24" height="24" viewBox="0 0 24 24" fill="none" xmlns="http://www.w3.org/2000/svg">
	<rect width="24" height="24" rx="12" fill="#C5E7F4"/>
	<path fill-rule="evenodd" clip-rule="evenodd" d="M11.9532 5.9799C11.9415 5.98344 11.9293 5.99053 11.9166 5.99692L6.44059 8.16441C6.30338 8.22895 6.25358 8.36867 6.24951 8.5332V15.5121C6.25104 15.6681 6.33285 15.8164 6.44059 15.8582L11.8638 18.0028C11.9309 18.0326 12.0188 18.0283 12.0915 18.0085L17.5634 15.8468C17.6711 15.8028 17.7514 15.6518 17.7504 15.495V8.57858C17.7534 8.36581 17.7006 8.24098 17.5593 8.17573L12.0549 5.99698C12.0173 5.97783 11.9878 5.96997 11.9532 5.9799ZM11.9857 6.72318L16.5309 8.52745L11.9857 10.3204L7.4366 8.52179L11.9857 6.72318Z" fill="#559BE6"/>
</svg>