<svg width="24" height="24" viewBox="0 0 24 24" fill="none" xmlns="http://www.w3.org/2000/svg">
	<rect width="24" height="24" rx="12" fill="#C5E7F4"/>
	<path fill-rule="evenodd" clip-rule="evenodd" d="M14.2939 15.1571C14.2764 15.1949 14.2528 15.2308 14.223 15.2631L14.1138 15.3815L13.9111 15.6342C13.8754 15.6782 13.8324 15.7128 13.7854 15.7378L13.7152 15.8139C13.5618 15.9803 13.3027 15.9908 13.1364 15.8374L10.5337 13.4377C10.3674 13.2843 10.3569 13.0251 10.5103 12.8589L10.9114 12.4148C11.0648 12.2485 11.3238 12.238 11.4902 12.3913L13.2685 13.8963L17.1407 9.38661C17.2833 9.21109 17.5413 9.18434 17.7169 9.32702L18.1561 9.69263C18.3317 9.83526 18.3584 10.0932 18.2158 10.2688L14.2939 15.1571ZM14.2099 8.43461C14.4561 8.43461 14.6556 8.63416 14.6556 8.88032V8.89427C14.6556 9.14039 14.4561 9.33994 14.2099 9.33994H10.881C10.6349 9.33994 10.4353 9.14039 10.4353 8.89427V8.88032C10.4353 8.63416 10.6349 8.43461 10.881 8.43461H14.2099ZM9.54389 8.43461C9.79006 8.43461 9.9896 8.63416 9.9896 8.88032C9.9896 9.12649 9.79006 9.32603 9.54389 9.32603H9.27927C9.03311 9.32603 8.83352 9.12649 8.83352 8.88032C8.83352 8.63416 9.03311 8.43461 9.27927 8.43461H9.54389ZM14.2099 10.2175C14.4561 10.2175 14.6556 10.417 14.6556 10.6632V10.6771C14.6556 10.9232 14.4561 11.1228 14.2099 11.1228H10.881C10.6349 11.1228 10.4353 10.9232 10.4353 10.6771V10.6632C10.4353 10.417 10.6349 10.2175 10.881 10.2175H14.2099ZM9.54389 10.2175C9.79006 10.2175 9.9896 10.417 9.9896 10.6632C9.9896 10.9093 9.79006 11.1089 9.54389 11.1089H9.27927C9.03311 11.1089 8.83352 10.9093 8.83352 10.6632C8.83352 10.417 9.03311 10.2175 9.27927 10.2175H9.54389ZM15.7838 15.3293L16.6753 14.2134V16.9031C16.6753 17.3954 16.2762 17.7945 15.7838 17.7945H7.76105C7.26872 17.7945 6.86963 17.3954 6.86963 16.9031V7.09748C6.86963 6.60514 7.26872 6.20605 7.76105 6.20605H15.7838C16.2762 6.20605 16.6753 6.60514 16.6753 7.09748V7.8152L15.7838 8.93108V7.09748H7.76105V16.9031H15.7838V15.3293Z" fill="#559BE6"/>
</svg>