<svg width="24" height="24" viewBox="0 0 24 24" fill="none" xmlns="http://www.w3.org/2000/svg">
	<rect width="24" height="24" rx="12" fill="#C5E7F4"/>
	<path fill-rule="evenodd" clip-rule="evenodd" d="M13.7818 7.01973C13.5382 6.77619 13.7107 6.3599 14.055 6.35986L17.1083 6.35993C17.3217 6.35986 17.4948 6.53294 17.4947 6.74639L17.4948 9.79961C17.4948 10.1439 17.0785 10.3164 16.8349 10.0729L15.855 9.0929L13.3015 11.6464C13.1505 11.7973 12.9058 11.7973 12.7549 11.6464L12.2083 11.0998C12.0573 10.9489 12.0573 10.7041 12.2083 10.5532L14.7617 7.9997L13.7818 7.01973ZM16.6177 15.0405L15.105 13.907C14.5678 13.5034 13.7705 13.6978 13.3783 14.2518L12.9299 14.8875C12.8334 15.0191 12.6347 15.0605 12.4963 14.9806C11.1086 14.0753 9.92203 12.8121 9.10076 11.3706C9.02245 11.2213 9.06311 11.0265 9.20904 10.9336L9.84409 10.5097C10.4126 10.1303 10.6466 9.35647 10.2761 8.7885L9.21812 7.24127C8.89751 6.76475 8.22644 6.70002 7.80519 7.09125C6.2237 8.60262 5.53378 11.2281 9.00285 14.8957C12.4719 18.5633 15.107 17.9766 16.6885 16.4653C17.1102 16.0739 17.0748 15.3877 16.6177 15.0405Z" fill="#559BE6"/>
</svg>