<svg width="24" height="24" viewBox="0 0 24 24" fill="none" xmlns="http://www.w3.org/2000/svg">
	<rect width="24" height="24" rx="12" fill="#C5E7F4"/>
	<path d="M11.5283 17.6069V8.14895C9.37474 6.87065 7.40104 6.52236 6.42021 6.42822C6.07014 6.39478 5.77008 6.65476 5.77008 6.9846V15.1977C5.77008 15.4791 5.99672 15.7106 6.29412 15.7481C8.33224 16.0065 10.0765 16.6262 11.5283 17.6069Z" fill="#559BE6"/>
	<path d="M17.7293 15.6792C16.695 15.8264 14.2701 16.2899 12.4717 17.558V8.14684C13.8534 7.20699 15.5474 6.6238 17.5532 6.39728C17.9113 6.35686 18.2299 6.61235 18.2299 6.95117V15.1283C18.2299 15.4033 18.0193 15.6383 17.7293 15.6792Z" fill="#559BE6"/>
</svg>