<svg width="24" height="24" viewBox="0 0 24 24" fill="none" xmlns="http://www.w3.org/2000/svg">
	<rect width="24" height="24" rx="12" fill="#C5E7F4"/>
	<path fill-rule="evenodd" clip-rule="evenodd" d="M5.88746 7.16553H18.1127C18.4282 7.16553 18.684 7.43361 18.684 7.7643C18.684 7.83133 18.6732 7.89789 18.6522 7.96119L18.2828 9.0732C18.2029 9.31384 17.9864 9.47509 17.7433 9.47509H6.25385C6.01023 9.47509 5.79341 9.31315 5.71388 9.07178L5.34749 7.95977C5.2445 7.64719 5.40276 7.30628 5.70098 7.19833C5.76097 7.17661 5.82399 7.16553 5.88746 7.16553ZM7.90102 11.4348H16.0991C16.4146 11.4348 16.6704 11.7029 16.6704 12.0336C16.6704 12.1054 16.6581 12.1766 16.634 12.2438L16.2362 13.3558C16.1526 13.5895 15.9395 13.7444 15.7013 13.7444H8.27766C8.03584 13.7444 7.82021 13.5848 7.73931 13.3459L7.36267 12.2339C7.25712 11.9223 7.41258 11.5799 7.7099 11.4693C7.77126 11.4465 7.8359 11.4348 7.90102 11.4348ZM10.4462 15.7176H13.5539C13.8694 15.7176 14.1251 15.9857 14.1251 16.3164C14.1251 16.3747 14.117 16.4326 14.1011 16.4884L13.7829 17.6004C13.7104 17.8537 13.488 18.0272 13.2357 18.0272H10.7988C10.5528 18.0272 10.3344 17.8621 10.2567 17.6173L9.9041 16.5053C9.80458 16.1915 9.96661 15.8525 10.266 15.7482C10.3241 15.728 10.385 15.7176 10.4462 15.7176Z" fill="#559BE6"/>
</svg>