<svg width="24" height="24" viewBox="0 0 24 24" fill="none" xmlns="http://www.w3.org/2000/svg">
	<rect width="24" height="24" rx="12" fill="#C5E7F4"/>
	<path fill-rule="evenodd" clip-rule="evenodd" d="M16.3113 16.2552H7.69343V9.84009H16.3113V16.2552ZM15.5315 7.77548V7.37167H16.4296C17.2498 7.42336 17.8852 8.13487 17.8704 8.98691V17.0631C17.8704 17.5089 17.5219 17.8707 17.0907 17.8707H6.91368C6.48334 17.8707 6.13407 17.5089 6.13407 17.0631V8.98691C6.13095 8.94492 6.12939 8.90373 6.12939 8.86254C6.13095 8.03715 6.77803 7.37005 7.57479 7.37167H8.4729V7.77548C8.4729 8.44419 8.99601 8.98691 9.64231 8.98691C10.2886 8.98691 10.8117 8.44419 10.8117 7.77548V7.37167H13.1927V7.77548C13.1927 8.44419 13.7166 8.98691 14.3621 8.98691C15.0076 8.98691 15.5315 8.44419 15.5315 7.77548ZM10.2154 6.72704V7.61542C10.2154 7.94332 9.95889 8.20903 9.64237 8.20903C9.32585 8.20903 9.06936 7.94332 9.06936 7.61542V6.72704V6.71897C9.07091 6.39188 9.32974 6.12779 9.64626 6.1294C9.96279 6.13183 10.2169 6.39915 10.2154 6.72704ZM14.903 6.74901V7.59136C14.903 7.90067 14.6606 8.15184 14.3612 8.15184C14.0618 8.15104 13.8209 7.89987 13.8209 7.59055V6.74901C13.8209 6.43888 14.0634 6.18852 14.362 6.18852C14.6606 6.18852 14.903 6.43888 14.903 6.74901ZM9.58984 11.2862C9.3137 11.2862 9.08984 11.5101 9.08984 11.7862V12.2514C9.08984 12.5276 9.3137 12.7514 9.58984 12.7514H10.0647C10.3409 12.7514 10.5647 12.5276 10.5647 12.2514V11.7862C10.5647 11.5101 10.3409 11.2862 10.0647 11.2862H9.58984ZM9.58978 13.4842C9.31364 13.4842 9.08978 13.7081 9.08978 13.9842V14.4494C9.08978 14.7256 9.31364 14.9494 9.58978 14.9494H10.0647C10.3408 14.9494 10.5647 14.7256 10.5647 14.4494V13.9842C10.5647 13.7081 10.3408 13.4842 10.0647 13.4842H9.58978ZM11.302 11.7863C11.302 11.5102 11.5259 11.2863 11.802 11.2863H12.2769C12.553 11.2863 12.7769 11.5102 12.7769 11.7863V12.2516C12.7769 12.5277 12.553 12.7516 12.2769 12.7516H11.802C11.5259 12.7516 11.302 12.5277 11.302 12.2516V11.7863ZM11.802 13.4842C11.5259 13.4842 11.302 13.7081 11.302 13.9842V14.4494C11.302 14.7256 11.5259 14.9494 11.802 14.9494H12.2769C12.553 14.9494 12.7769 14.7256 12.7769 14.4494V13.9842C12.7769 13.7081 12.553 13.4842 12.2769 13.4842H11.802ZM13.5146 11.7863C13.5146 11.5102 13.7384 11.2863 14.0146 11.2863H14.4895C14.7656 11.2863 14.9895 11.5102 14.9895 11.7863V12.2516C14.9895 12.5277 14.7656 12.7516 14.4895 12.7516H14.0146C13.7384 12.7516 13.5146 12.5277 13.5146 12.2516V11.7863Z" fill="#559BE6"/>
</svg>