<svg width="24" height="24" viewBox="0 0 24 24" fill="none" xmlns="http://www.w3.org/2000/svg">
	<rect width="24" height="24" rx="12" fill="#C5E7F4"/>
	<path fill-rule="evenodd" clip-rule="evenodd" d="M10.3253 7.11817C10.9964 7.11817 11.5403 7.66216 11.5403 8.3332V11.8159C11.5403 12.5399 11.4619 12.9581 11.3051 13.5976C11.1482 14.2371 10.9069 14.7982 10.5811 15.2808C10.2553 15.7634 9.83908 16.1495 9.33231 16.4391C8.85649 16.711 8.30621 16.8553 7.68147 16.8719C7.64084 16.8729 7.55864 16.9303 7.55864 16.7616V15.2808C7.55864 15.0691 7.65208 15.0622 7.69737 15.0595C8.04566 15.0386 8.33726 14.9374 8.57216 14.7559C8.83761 14.5508 9.0548 14.2793 9.22372 13.9415C9.39264 13.6036 9.50726 13.2236 9.56759 12.8013C9.62792 12.379 9.65809 12.2261 9.65809 11.8159H8.06317C7.39213 11.8159 6.84814 11.2719 6.84814 10.6009L6.84814 8.3332C6.84814 7.66216 7.39213 7.11817 8.06317 7.11817L10.3253 7.11817ZM15.9371 7.11816C16.6081 7.11816 17.1521 7.66215 17.1521 8.33319V11.8159C17.1521 12.5398 17.0737 12.9581 16.9168 13.5976C16.76 14.2371 16.5186 14.7981 16.1929 15.2808C15.8671 15.7634 15.4508 16.1495 14.944 16.4391C14.4682 16.711 13.918 16.8552 13.2932 16.8718C13.2526 16.8729 13.1704 16.9303 13.1704 16.7616V15.2808C13.1704 15.0691 13.2638 15.0622 13.3091 15.0595C13.6574 15.0386 13.949 14.9374 14.1839 14.7559C14.4494 14.5508 14.6665 14.2793 14.8355 13.9415C15.0044 13.6036 15.119 13.2236 15.1793 12.8013C15.2397 12.379 15.2698 12.2261 15.2698 11.8159H13.6749C13.0039 11.8159 12.4599 11.2719 12.4599 10.6009V8.33319C12.4599 7.66215 13.0039 7.11816 13.6749 7.11816L15.9371 7.11816Z" fill="#559BE6"/>
</svg>