<svg width="24" height="24" viewBox="0 0 24 24" fill="none" xmlns="http://www.w3.org/2000/svg">
	<rect width="24" height="24" rx="12" fill="#C5E7F4"/>
	<path fill-rule="evenodd" clip-rule="evenodd" d="M17.775 12C18.1064 12 18.375 12.2686 18.375 12.6V15.6C18.375 16.0971 17.9721 16.5 17.475 16.5H6.525C6.02794 16.5 5.625 16.0971 5.625 15.6V12.6C5.625 12.2686 5.89363 12 6.225 12H17.775ZM14.175 13.5H9.825C9.60132 13.5 9.41577 13.6632 9.38089 13.877L9.375 13.95V14.55C9.375 14.7737 9.53819 14.9592 9.75201 14.9941L9.825 15H14.175C14.3987 15 14.5842 14.8368 14.6191 14.623L14.625 14.55V13.95C14.625 13.7015 14.4235 13.5 14.175 13.5ZM7.875 13.5C7.46079 13.5 7.125 13.8358 7.125 14.25C7.125 14.6642 7.46079 15 7.875 15C8.28921 15 8.625 14.6642 8.625 14.25C8.625 13.8358 8.28921 13.5 7.875 13.5ZM15.8362 7.5C16.1161 7.5 16.3726 7.65581 16.5017 7.90412L18 10.7869H6.075L7.50149 7.91625C7.62821 7.66125 7.88839 7.5 8.17314 7.5H15.8362Z" fill="#559BE6"/>
</svg>