<svg width="24" height="24" viewBox="0 0 24 24" fill="none" xmlns="http://www.w3.org/2000/svg">
	<rect width="24" height="24" rx="12" fill="#C5E7F4"/>
	<path fill-rule="evenodd" clip-rule="evenodd" d="M14.7391 5.63477L9.26069 5.63477C8.59018 5.63477 8.07788 6.12128 8.07788 6.75804V17.2416C8.07788 17.8405 8.59018 18.3649 9.26069 18.3649H14.7391C15.4096 18.3649 15.9219 17.8405 15.9219 17.2416V6.75804C15.9219 6.12198 15.4096 5.63477 14.7391 5.63477ZM11.9999 17.9907C11.5878 17.9907 11.2508 17.6538 11.2508 17.2416C11.2508 16.8295 11.5878 16.4926 11.9999 16.4926C12.412 16.4926 12.749 16.8295 12.749 17.2416C12.749 17.6538 12.412 17.9907 11.9999 17.9907ZM14.8332 16.1191H9.16664V7.50712L14.8339 7.50712L14.8332 16.1191Z" fill="#559BE6"/>
</svg>