<svg width="24" height="24" viewBox="0 0 24 24" fill="none" xmlns="http://www.w3.org/2000/svg">
	<rect width="24" height="24" rx="12" fill="#C5E7F4"/>
	<path fill-rule="evenodd" clip-rule="evenodd" d="M9.24875 6.5C8.815 6.5 8.46338 6.8646 8.46338 7.31435V9.74029C8.46338 10.19 8.815 10.5546 9.24875 10.5546H15.5449C15.9787 10.5546 16.3303 10.19 16.3303 9.74029V7.31435C16.3303 6.8646 15.9787 6.5 15.5449 6.5H9.24875ZM10.3678 8.05036C10.1121 8.05036 9.90483 8.26527 9.90483 8.53038C9.90483 8.79548 10.1121 9.01039 10.3678 9.01039H10.4848C10.7404 9.01039 10.9477 8.79548 10.9477 8.53038C10.9477 8.26527 10.7404 8.05036 10.4848 8.05036H10.3678ZM14.8175 8.53038C14.8175 8.26527 14.6103 8.05036 14.3546 8.05036H12.0525C11.7969 8.05036 11.5896 8.26527 11.5896 8.53038C11.5896 8.79548 11.7969 9.01039 12.0525 9.01039H14.3546C14.6103 9.01039 14.8175 8.79548 14.8175 8.53038Z" fill="#559BE6"/>
	<path d="M18.8516 11.9692C18.8612 11.9742 18.8701 11.9789 18.8786 11.9831C19.0571 12.0734 19.0323 12.3904 18.8466 12.8212C18.6609 13.2519 15.893 16.1896 15.893 16.1896C15.1946 17.0089 13.9848 17.0529 13.9848 17.0529H9.21625C8.95945 17.0529 8.5212 17.1898 8.5212 17.1898L8.46065 17.231C7.71693 17.7368 6.71439 17.5031 6.20175 16.7494C5.88714 16.2869 5.51305 15.7671 5.11838 15.2829C4.92278 15.0428 5.01182 14.8479 5.08655 14.7698C5.7833 14.0416 6.33805 13.5527 6.75082 13.303C8.03607 12.5258 9.09505 12.3359 9.6564 12.3359C9.92954 12.3359 10.7788 12.3424 11.6117 12.3487C12.413 12.3549 13.1992 12.3609 13.4425 12.3609C13.9387 12.3609 14.3098 12.4666 14.3098 13.0926C14.3098 13.7187 13.7238 13.8804 13.4789 13.8804H11.387C11.009 13.8804 11.009 14.2621 11.009 14.2621C11.009 14.5818 11.362 14.6431 11.362 14.6431H14.1824C14.4793 14.6431 14.6157 14.5111 14.6157 14.5111L17.3296 12.3828C18.2225 11.6403 18.658 11.868 18.8516 11.9692Z" fill="#559BE6"/>
</svg>