<svg width="24" height="24" viewBox="0 0 24 24" fill="none" xmlns="http://www.w3.org/2000/svg">
	<rect width="24" height="24" rx="12" fill="#C5E7F4"/>
	<path fill-rule="evenodd" clip-rule="evenodd" d="M13.7889 11.5909L13.4878 11.5453C13.4878 11.5091 13.4513 10.974 13.4513 10.974C13.9611 10.8036 13.9087 9.79887 13.9087 9.79887C14.2324 9.97742 14.4432 9.18229 14.4432 9.18229C14.8262 8.07758 14.2526 8.14438 14.2526 8.14438C14.3529 7.46998 14.3529 6.78457 14.2526 6.11017C13.9975 3.87301 10.158 4.48034 10.6133 5.21099C9.49115 5.00547 9.7472 7.54424 9.7472 7.54424L9.9906 8.20167C9.65324 8.41925 9.71949 8.66895 9.79349 8.94788C9.82434 9.06417 9.85654 9.18553 9.86141 9.31177C9.88492 9.94531 10.2748 9.81403 10.2748 9.81403C10.2988 10.8596 10.8174 10.9958 10.8174 10.9958C10.9148 11.6525 10.8541 11.5407 10.8541 11.5407L10.3926 11.5962C10.3989 11.7455 10.3866 11.8951 10.3562 12.0414C10.0881 12.1602 9.92394 12.2548 9.76142 12.3484C9.59504 12.4442 9.43036 12.5391 9.15758 12.658C8.1158 13.112 6.98358 13.7023 6.7823 14.4972C6.58103 15.2921 6.50702 16.4388 6.50702 16.4388H12.0871C11.9831 16.0779 11.9274 15.6966 11.9274 15.3023V15.0235C11.9274 13.5859 12.6682 12.3214 13.7889 11.5909Z" fill="#559BE6"/>
	<path fill-rule="evenodd" clip-rule="evenodd" d="M17.2311 15.4137C17.125 15.9124 16.7329 16.3045 16.2342 16.4106C15.2834 16.6128 14.4575 15.7866 14.6598 14.8361C14.7554 14.3866 15.2071 13.9349 15.6565 13.8393C16.6071 13.6369 17.4333 14.4629 17.2311 15.4137ZM19.0426 14.6382L18.3805 14.5278C18.3335 14.3355 18.2654 14.1515 18.177 13.9795C18.1733 13.9723 18.1742 13.9636 18.1793 13.9572L18.5947 13.4421C18.6848 13.3311 18.6807 13.1713 18.5857 13.0641L18.3224 12.7677C18.227 12.6606 18.0687 12.638 17.948 12.7143L17.3818 13.0702C17.1363 12.8987 16.8588 12.7714 16.5595 12.6964C16.5515 12.6944 16.5455 12.6879 16.5442 12.6799L16.4356 12.0276C16.4124 11.8866 16.2904 11.7832 16.1472 11.7832H15.7504C15.6076 11.7832 15.4852 11.8866 15.4625 12.0276L15.3533 12.6801C15.352 12.6882 15.346 12.6946 15.338 12.6966C15.0958 12.7573 14.8683 12.8531 14.6599 12.9784C14.6529 12.9826 14.6441 12.9823 14.6374 12.9775L14.1099 12.6011C13.9939 12.5182 13.8345 12.5311 13.7332 12.6322L13.4529 12.9127C13.3518 13.014 13.3389 13.1734 13.422 13.2894L13.7993 13.818C13.8041 13.8246 13.8044 13.8335 13.8002 13.8405C13.6762 14.0473 13.5814 14.2734 13.5207 14.5134C13.5187 14.5214 13.5123 14.5273 13.5042 14.5287L12.8481 14.6383C12.7073 14.6615 12.6037 14.7835 12.6037 14.9266V15.3231C12.6037 15.4663 12.7073 15.5883 12.8481 15.6115L13.5042 15.7211C13.5122 15.7224 13.5187 15.7285 13.5207 15.7364C13.57 15.9323 13.6403 16.1198 13.7327 16.2943C13.7365 16.3015 13.7357 16.3104 13.7305 16.3168L13.3172 16.8288C13.2273 16.9397 13.2311 17.0996 13.3261 17.2067L13.5892 17.5031C13.6847 17.6103 13.843 17.6326 13.9638 17.5565L14.5268 17.2028C14.5337 17.1985 14.5425 17.1987 14.5492 17.2032C14.7895 17.3656 15.0606 17.4852 15.3511 17.5565L15.4625 18.2222C15.4852 18.3632 15.6076 18.4666 15.7504 18.4666H16.1472C16.2904 18.4666 16.4124 18.3632 16.4356 18.2222L16.5443 17.5698C16.5457 17.5617 16.5517 17.5553 16.5597 17.5533C16.7987 17.4934 17.0233 17.3993 17.2297 17.2762C17.2367 17.2721 17.2455 17.2724 17.2522 17.2771L17.8021 17.6699C17.918 17.7531 18.0775 17.7401 18.1786 17.6387L18.4591 17.3583C18.56 17.2573 18.5737 17.098 18.4899 16.9817L18.0984 16.4328C18.0936 16.4261 18.0933 16.4173 18.0975 16.4103C18.2219 16.2028 18.3172 15.9762 18.3775 15.7352C18.3795 15.7272 18.386 15.7212 18.394 15.7198L19.0428 15.6115C19.1839 15.5883 19.2871 15.4663 19.2871 15.3231V14.9266C19.2869 14.7835 19.1837 14.6615 19.0426 14.6382Z" fill="#559BE6"/>
</svg>
