<svg width="24" height="24" viewBox="0 0 24 24" fill="none" xmlns="http://www.w3.org/2000/svg">
	<rect width="24" height="24" rx="12" fill="#C5E7F4"/>
	<path d="M16.0089 16.4794C16.5154 16.3127 16.7929 15.7841 16.6902 15.2609L16.5458 14.5256C16.4733 14.066 15.9393 13.55 14.7449 13.2468C14.3403 13.136 13.9556 12.9642 13.6047 12.7375C13.5279 12.6945 13.5396 12.2968 13.5396 12.2968L13.1549 12.2393C13.1549 12.207 13.122 11.7301 13.122 11.7301C13.5823 11.5782 13.5349 10.6827 13.5349 10.6827C13.8272 10.8419 14.0176 10.1332 14.0176 10.1332C14.3633 9.14857 13.8454 9.20811 13.8454 9.20811C13.936 8.60703 13.936 7.99614 13.8454 7.39507C13.6152 5.40114 10.1487 5.94244 10.5597 6.59365C9.54659 6.41047 9.77777 8.67322 9.77777 8.67322L9.99752 9.25917C9.69293 9.45309 9.75275 9.67565 9.81956 9.92425C9.84741 10.0279 9.87649 10.1361 9.88088 10.2486C9.90211 10.8132 10.2541 10.6962 10.2541 10.6962C10.2758 11.6282 10.744 11.7495 10.744 11.7495C10.8319 12.3348 10.7771 12.2352 10.7771 12.2352L10.3605 12.2846C10.3661 12.4177 10.3551 12.551 10.3276 12.6814C10.0855 12.7874 9.93733 12.8716 9.7906 12.9551C9.64039 13.0405 9.49171 13.125 9.24543 13.231C8.30486 13.6356 7.36155 13.8621 7.17983 14.5705C7.13803 14.7335 7.07769 15.0136 7.01967 15.3098C6.92155 15.8109 7.19792 16.306 7.68238 16.4672C8.86351 16.8602 10.1754 17.0919 11.5599 17.1216H12.1684C13.5385 17.0922 14.8374 16.865 16.0089 16.4794Z" fill="#559BE6"/>
</svg>