<svg width="24" height="24" viewBox="0 0 24 24" fill="none" xmlns="http://www.w3.org/2000/svg">
	<rect width="24" height="24" rx="12" fill="#C5E7F4"/>
	<path fill-rule="evenodd" clip-rule="evenodd" d="M15.6448 9.71006L16.2827 7.56742C16.3383 7.38114 16.2914 7.179 16.1597 7.03716C16.028 6.89532 15.8315 6.83533 15.6442 6.87978C15.457 6.92423 15.3073 7.06637 15.2518 7.25266L14.7053 9.09196C13.0065 8.19505 10.9809 8.19718 9.28391 9.09768L8.73477 7.25266C8.64884 6.96468 8.34839 6.80169 8.06369 6.88861C7.779 6.97553 7.61786 7.27945 7.70379 7.56742L8.34445 9.7185C6.90574 10.8817 6.07023 12.6453 6.07522 14.5083C6.07522 17.8705 8.7267 17.0455 12 17.0455C15.2733 17.0455 17.9248 17.8705 17.9248 14.5083C17.9305 12.6403 17.0905 10.8724 15.6448 9.71006ZM11.9946 14.0514C9.65808 14.0514 7.76301 14.2965 7.76301 13.2947C7.76301 12.293 9.65808 11.4797 11.9946 11.4797C14.3311 11.4797 16.2289 12.2922 16.2289 13.2947C16.2289 14.2973 14.3338 14.0514 11.9946 14.0514ZM10.0592 12.2301C9.72557 12.2917 9.49711 12.6054 9.53782 12.946C9.57852 13.2865 9.87433 13.5361 10.2128 13.5155C10.5513 13.495 10.8155 13.2113 10.8156 12.8683C10.7778 12.4825 10.4412 12.1985 10.0592 12.2301ZM13.4078 12.9476C13.4493 13.2881 13.7455 13.5372 14.084 13.5162C14.4225 13.4952 14.6864 13.2114 14.6865 12.8683C14.6487 12.4813 14.3104 12.1969 13.9274 12.2301C13.5939 12.2928 13.3663 12.6072 13.4078 12.9476Z" fill="#559BE6"/>
</svg>