<svg width="24" height="24" viewBox="0 0 24 24" fill="none" xmlns="http://www.w3.org/2000/svg">
	<rect width="24" height="24" rx="12" fill="#C5E7F4"/>
	<path fill-rule="evenodd" clip-rule="evenodd" d="M14.9551 13.2931C14.3517 13.2931 13.8063 13.5458 13.4193 13.9503L10.211 12.3464C10.2292 12.2346 10.2392 12.1189 10.2392 11.9997C10.2392 11.8805 10.2292 11.7651 10.2106 11.6529L13.4193 10.049C13.8064 10.4539 14.3517 10.7066 14.9552 10.7066C16.1299 10.7066 17.0823 9.75297 17.0823 8.57912C17.0823 7.40484 16.1299 6.45117 14.9552 6.45117C13.7808 6.45117 12.8289 7.40482 12.8289 8.57912C12.8289 8.69832 12.8389 8.81016 12.8566 8.9259L9.64837 10.5302C9.26083 10.1253 8.71593 9.8726 8.11205 9.8726C6.93727 9.8726 5.98489 10.8262 5.98489 12.0001C5.98489 13.1744 6.93727 14.128 8.11205 14.128C8.7159 14.128 9.26085 13.8749 9.64837 13.4705L12.8562 15.0743C12.8384 15.19 12.8284 15.3053 12.8284 15.4211C12.8284 16.5949 13.7804 17.5486 14.9547 17.5486C16.1295 17.5486 17.0819 16.5949 17.0819 15.4211C17.0819 14.2468 16.1299 13.2931 14.9551 13.2931Z" fill="#559BE6"/>
</svg>