<svg width="24" height="24" viewBox="0 0 24 24" fill="none" xmlns="http://www.w3.org/2000/svg">
	<rect width="24" height="24" rx="12" fill="#C5E7F4"/>
	<path fill-rule="evenodd" clip-rule="evenodd" d="M18.6071 14.8674C18.6071 15.3765 18.1943 15.7893 17.6852 15.7893L17.0655 15.7893C17.0689 15.7431 17.0705 15.6964 17.0705 15.6493C17.0705 14.5886 16.2106 13.7286 15.1499 13.7286C14.0891 13.7286 13.2292 14.5886 13.2292 15.6493C13.2292 15.6964 13.2309 15.7431 13.2343 15.7893H10.549C10.5523 15.7431 10.554 15.6964 10.554 15.6493C10.554 14.5886 9.69407 13.7286 8.63332 13.7286C7.57257 13.7286 6.71267 14.5886 6.71267 15.6493C6.71267 15.6964 6.71436 15.7431 6.71769 15.7893L6.31486 15.7893C5.8057 15.7893 5.39294 15.3765 5.39294 14.8674V12.5626C5.39294 12.5367 5.39401 12.5111 5.3961 12.4858L5.39294 12.4858V8.33713C5.39294 7.65825 5.94329 7.10791 6.62217 7.10791H12.2967C12.9756 7.10791 13.5259 7.65825 13.5259 8.33713L13.5259 8.56761H15.1015C15.8231 8.56761 16.4967 8.92945 16.8951 9.53115L18.1729 11.4611C18.3029 11.6575 18.4051 11.8694 18.4776 12.0909C18.5598 12.2289 18.6071 12.3902 18.6071 12.5626V14.8674ZM9.87622 15.6493C9.87622 14.9628 9.31975 14.4064 8.63332 14.4064C7.94689 14.4064 7.39042 14.9628 7.39042 15.6493C7.39042 16.3357 7.94689 16.8922 8.63332 16.8922C9.31975 16.8922 9.87622 16.3357 9.87622 15.6493ZM16.3928 15.6493C16.3928 14.9628 15.8363 14.4064 15.1499 14.4064C14.4634 14.4064 13.907 14.9628 13.907 15.6493C13.907 16.3357 14.4634 16.8922 15.1499 16.8922C15.8363 16.8922 16.3928 16.3357 16.3928 15.6493ZM14.1511 9.48971H15.2402C15.549 9.48971 15.8373 9.64429 16.0081 9.9015L17.1635 11.6408H14.1511V9.48971Z" fill="#559BE6"/>
</svg>