<svg width="24" height="24" viewBox="0 0 24 24" fill="none" xmlns="http://www.w3.org/2000/svg">
	<rect width="24" height="24" rx="12" fill="#C5E7F4"/>
	<path d="M11.2437 8.99098H12.7437V11.241H14.9937V12.741H11.2437V8.99098Z" fill="#559BE6"/>
	<path fill-rule="evenodd" clip-rule="evenodd" d="M6.54898 14.451C7.54923 16.6753 9.80069 18.0687 12.2376 17.9715C15.4705 17.9053 18.0387 15.2326 17.9758 11.9996C17.9757 9.56074 16.4936 7.36666 14.2312 6.45595C11.9688 5.54524 9.37994 6.10063 7.69016 7.85921C6.00039 9.6178 5.54873 12.2267 6.54898 14.451ZM7.94026 13.8254C8.68521 15.482 10.362 16.5197 12.177 16.4473C14.5848 16.3981 16.4974 14.4075 16.4506 11.9997C16.4505 10.1833 15.3467 8.5492 13.6617 7.87094C11.9767 7.19267 10.0487 7.6063 8.79018 8.91604C7.53169 10.2258 7.19531 12.1688 7.94026 13.8254Z" fill="#559BE6"/>
</svg>