<svg width="24" height="24" viewBox="0 0 24 24" fill="none" xmlns="http://www.w3.org/2000/svg">
	<rect width="24" height="24" rx="12" fill="#C5E7F4"/>
	<path d="M6.47878 15.813C6.07117 15.813 5.74036 15.4856 5.74036 15.0817V13.0217C5.74036 12.6179 6.0717 12.2904 6.47878 12.2904C6.67472 12.2911 6.86243 12.3684 7.00089 12.5054C7.13935 12.6425 7.2173 12.8281 7.21772 13.0217V15.0822C7.21772 15.4861 6.88638 15.8136 6.47878 15.8136V15.813ZM8.85602 16.6031C8.44789 16.6031 8.1176 16.2757 8.1176 15.8718V12.2332C8.1176 11.8288 8.44789 11.5019 8.85602 11.5019C9.26415 11.5019 9.59496 11.8293 9.59496 12.2332V15.8718C9.59496 16.2762 9.26362 16.6031 8.85602 16.6031ZM11.2333 17.3755C10.8251 17.3755 10.4948 17.0481 10.4948 16.6442V11.4566C10.4948 11.0522 10.8262 10.7253 11.2333 10.7253C11.6403 10.7253 11.9717 11.0528 11.9717 11.4566V16.6432C11.9717 17.0476 11.6414 17.3745 11.2333 17.3745V17.3755ZM17.4656 8.90289L7.15618 5.84857C6.65023 5.69264 6.19372 6.00451 6.19372 6.48948V11.5871C6.28775 11.5685 6.3834 11.5591 6.4793 11.559C6.57537 11.5591 6.6712 11.5685 6.76541 11.5871V6.49312C6.76541 6.45881 6.76541 6.37877 6.89164 6.37877C6.92593 6.37902 6.95998 6.38446 6.99262 6.39488L17.3026 9.44919C17.5267 9.51573 17.6928 9.74132 17.6928 9.89882V16.4326C17.6928 16.4701 17.6928 16.546 17.5666 16.546C17.5325 16.5459 17.4986 16.5405 17.4662 16.5298L15.0879 15.8266V16.4165L17.2968 17.073C17.3826 17.0988 17.4717 17.1123 17.5614 17.1131C17.6534 17.1172 17.7452 17.1025 17.8312 17.0698C17.9172 17.0372 17.9954 16.9873 18.0609 16.9234C18.1265 16.8594 18.1779 16.7828 18.2121 16.6982C18.2462 16.6137 18.2623 16.5231 18.2593 16.4321V9.89258C18.2593 9.46895 17.9085 9.03336 17.4599 8.90081L17.4656 8.90289ZM13.6105 18.1864C13.2024 18.1864 12.8721 17.859 12.8721 17.4551V10.6473C12.8721 10.2434 13.2034 9.91545 13.6105 9.91545C14.0176 9.91545 14.3489 10.2429 14.3489 10.6473V17.4608C14.3489 17.8652 14.0186 18.1921 13.6105 18.1921V18.1864Z" fill="#559BE6"/>
</svg>