<svg width="24" height="24" viewBox="0 0 24 24" fill="none" xmlns="http://www.w3.org/2000/svg">
<circle cx="12" cy="12" r="12" fill="#C5E7F4"/>
<path fill-rule="evenodd" clip-rule="evenodd" d="M15.8433 8.61185L16.516 6.37733C16.5746 6.18305 16.5252 5.97224 16.3863 5.82433C16.2475 5.6764 16.0402 5.61383 15.8427 5.66019C15.6452 5.70655 15.4875 5.85478 15.4289 6.04906L14.8527 7.96725C13.0612 7.03186 10.9254 7.0341 9.13594 7.97321L8.55689 6.04906C8.46628 5.74874 8.14946 5.57875 7.84926 5.6694C7.54905 5.76005 7.37914 6.077 7.46975 6.37733L8.14531 8.62065C6.62823 9.83374 5.74721 11.6729 5.75246 13.6159C5.75246 17.1223 8.54837 16.2619 12 16.2619C15.4515 16.2619 18.2475 17.1223 18.2475 13.6159C18.2536 11.6677 17.3678 9.82402 15.8433 8.61185ZM11.9943 13.1394C9.5305 13.1394 7.5322 13.3949 7.5322 12.3503C7.5322 11.3056 9.5305 10.4573 11.9943 10.4573C14.4581 10.4573 16.4592 11.3047 16.4592 12.3503C16.4592 13.3958 14.4609 13.1394 11.9943 13.1394ZM9.95343 11.24C9.60167 11.3042 9.36075 11.6314 9.40368 11.9866C9.4466 12.3417 9.75852 12.602 10.1155 12.5806C10.4724 12.5591 10.7509 12.2633 10.7511 11.9056C10.7112 11.5032 10.3563 11.207 9.95343 11.24ZM13.4845 11.9883C13.5282 12.3434 13.8406 12.6031 14.1975 12.5812C14.5545 12.5593 14.8328 12.2634 14.8328 11.9056C14.793 11.502 14.4363 11.2054 14.0324 11.24C13.6807 11.3054 13.4408 11.6332 13.4845 11.9883Z" fill="#559BE6"/>
</svg>
