<svg width="24" height="24" viewBox="0 0 24 24" fill="none" xmlns="http://www.w3.org/2000/svg">
	<rect width="24" height="24" rx="12" fill="#C5E7F4"/>
	<path fill-rule="evenodd" clip-rule="evenodd" d="M12 5.34033C8.3222 5.34033 5.34045 8.32208 5.34045 11.9999C5.34045 15.6777 8.3222 18.6594 12 18.6594C15.6783 18.6594 18.6595 15.6782 18.6595 11.9999C18.6595 8.32208 15.6783 5.34033 12 5.34033ZM7.53653 15.8177C7.51988 15.8323 7.44496 15.889 7.35184 15.9571C6.94706 15.4826 6.61929 14.953 6.37528 14.376C6.05687 13.6237 5.8961 12.8246 5.8961 11.9999C5.8961 11.7158 5.91587 11.4344 5.95385 11.1571C6.30244 11.6087 6.68484 12.219 6.81647 12.4016C7.03083 12.7002 7.26963 12.9936 7.47827 13.297C7.82894 13.8079 8.19573 14.5071 8.00948 15.1423C7.92882 15.415 7.75037 15.6366 7.53653 15.8177ZM14.5693 10.8744C14.5693 10.8744 14.886 12.1164 16.2423 12.0133C16.671 11.9811 16.6433 13.1279 16.3696 13.6014C16.0309 14.1878 16.1189 14.8844 15.7984 15.4697C15.5965 15.8386 15.2537 16.1122 14.9826 16.427C14.6428 16.8219 14.262 17.2027 13.6959 17.1538C13.3229 17.1216 13.1673 16.708 13.0945 16.4135C12.9134 15.6814 12.787 14.1836 12.787 14.1836C12.787 14.1836 12.2608 13.0455 11.0711 13.3928C9.88142 13.7401 9.63878 12.8184 9.60548 11.9417C9.52484 9.77997 11.3432 9.55155 11.5539 9.58951C11.8557 9.64362 12.7422 9.79606 12.965 9.91885C13.7188 10.3351 14.4909 9.7612 14.4301 9.45737C14.3697 9.15405 12.4961 8.71753 11.8318 8.67018C11.1674 8.62284 11.106 8.85905 10.9239 8.65874C10.7766 8.49694 10.9124 8.24044 11.016 8.10464C11.749 7.13848 12.9712 6.90488 14.0049 6.40179C14.021 6.39399 14.045 6.33832 14.0731 6.25664C14.1745 6.29358 14.2765 6.3326 14.3764 6.37526C15.1032 6.68275 15.7561 7.1229 16.317 7.68376C16.8778 8.24461 17.318 8.89757 17.6255 9.62435C17.6947 9.78772 17.7561 9.95317 17.8102 10.1207C17.5901 10.2508 18.0288 10.076 16.8759 10.3441C15.723 10.6123 14.5693 10.8744 14.5693 10.8744Z" fill="#559BE6"/>
</svg>