<svg width="24" height="24" viewBox="0 0 24 24" fill="none" xmlns="http://www.w3.org/2000/svg">
	<rect width="24" height="24" rx="12" fill="#C5E7F4"/>
	<path fill-rule="evenodd" clip-rule="evenodd" d="M7.46667 9.47843C7.46835 9.47796 7.47006 9.47754 7.47179 9.47717L17.7743 7.29859C18.071 7.23584 18.3503 7.4622 18.3503 7.7655V15.2335C18.3503 15.5466 18.0538 15.7749 17.7511 15.6949L13.799 14.6502V15.9151C13.799 16.3544 13.4429 16.7105 13.0036 16.7105H9.28587C8.84659 16.7105 8.49048 16.3544 8.49048 15.9151V13.247L7.46792 12.9767L7.46363 12.9755C7.44195 12.9916 7.41728 13.0042 7.39033 13.0124L5.95743 13.4463C5.80421 13.4927 5.64966 13.378 5.64966 13.2179V9.23366C5.64966 9.07356 5.80421 8.95888 5.95743 9.00528L7.39033 9.4392C7.41855 9.44774 7.44427 9.46119 7.46667 9.47843ZM12.7531 14.3738L9.53639 13.5235V15.5373C9.53639 15.6691 9.64323 15.7759 9.77501 15.7759H12.5145C12.6463 15.7759 12.7531 15.6691 12.7531 15.5373V14.3738Z" fill="#559BE6"/>
</svg>