<svg width="24" height="24" viewBox="0 0 24 24" fill="none" xmlns="http://www.w3.org/2000/svg">
	<rect width="24" height="24" rx="12" fill="#C5E7F4"/>
	<path fill-rule="evenodd" clip-rule="evenodd" d="M14.6544 11.0597C14.6544 11.0597 14.6414 11.3148 14.6288 11.3489C14.5998 11.3929 14.5754 11.4398 14.5559 11.4888C14.5723 11.4888 14.7422 11.5695 14.7422 11.5695L15.4001 11.7804L15.3906 12.0992C15.2655 12.1502 15.0019 12.3437 14.9565 12.4065C15.5558 12.655 16.1064 13.152 16.1205 13.5591C16.1302 13.6316 16.4931 14.9658 16.5148 15.2661H19.0838C19.0861 15.2536 19.0004 13.5278 18.9994 13.5148C18.9994 13.5148 18.8405 13.0991 18.5886 13.0568C18.3385 13.0244 18.097 12.9436 17.8777 12.8189C17.7328 12.7331 17.5799 12.6615 17.4212 12.6052C17.3399 12.532 17.2769 12.4408 17.2373 12.3388C17.1539 12.2326 17.0442 12.15 16.9191 12.0992L16.9098 11.7804L17.5678 11.5702C17.5678 11.5702 17.7376 11.4896 17.7541 11.4896C17.7278 11.4334 17.6975 11.3791 17.6634 11.3273C17.6509 11.2934 17.5889 11.0609 17.5889 11.0609C17.6848 11.1862 17.7977 11.2977 17.9242 11.3921C17.8122 11.1781 17.7162 10.9559 17.6373 10.7275C17.5845 10.5161 17.5479 10.301 17.5276 10.084C17.4824 9.68081 17.412 9.28083 17.3169 8.8864C17.2492 8.69042 17.1288 8.51692 16.9688 8.38504C16.7343 8.2186 16.4591 8.1188 16.1723 8.09626C16.1669 8.09626 16.1617 8.09626 16.1561 8.09626C16.1506 8.09626 16.1453 8.09626 16.1394 8.09626C15.8526 8.11872 15.5774 8.21852 15.3429 8.38504C15.1831 8.51708 15.0628 8.69053 14.995 8.8864C14.8997 9.28079 14.8293 9.68079 14.7841 10.084C14.7668 10.3058 14.7318 10.526 14.6796 10.7423C14.6006 10.9666 14.503 11.1839 14.3877 11.3919C14.5135 11.2971 14.6544 11.0597 14.6544 11.0597ZM16.096 16.7799C16.096 16.211 15.4708 13.8045 15.4708 13.8045C15.4708 13.8045 15.0207 13.0509 14.1336 12.8169C13.8324 12.7309 13.5465 12.5981 13.2865 12.4233C13.2448 12.3149 13.2283 12.1985 13.2383 12.0828L12.954 12.0384C12.954 12.0134 12.9297 11.6449 12.9297 11.6449C13.2713 11.5277 13.2362 10.836 13.2362 10.836C13.4532 10.9589 13.5945 10.4123 13.5945 10.4123C13.8512 9.65222 13.4667 9.69794 13.4667 9.69794C13.5339 9.23364 13.5339 8.76207 13.4667 8.29777C13.2959 6.75794 10.722 7.17547 11.0274 7.67884C10.2752 7.53669 10.4469 9.28498 10.4469 9.28498L10.61 9.73702C10.2898 9.9488 10.5123 10.2057 10.5232 10.5012C10.5389 10.9377 10.7998 10.8471 10.7998 10.8471C10.816 11.5668 11.1633 11.6613 11.1633 11.6613C11.2285 12.1134 11.188 12.0354 11.188 12.0354L10.8788 12.0737C10.883 12.1764 10.8748 12.2793 10.8544 12.38C10.4899 12.5463 10.4124 12.6427 10.051 12.8042C9.35263 13.116 8.59363 13.5231 8.45895 14.0701C8.32428 14.6171 7.92233 16.7799 7.92233 16.7799H16.096ZM9.40024 11.3469C9.4294 11.3912 9.45397 11.4384 9.47356 11.4878C9.45706 11.4878 9.28603 11.569 9.28603 11.569L8.62365 11.7811L8.63322 12.1019C8.75907 12.1533 8.86944 12.2365 8.95353 12.3433C8.98539 12.4144 9.02448 12.4821 9.07017 12.5453C8.46687 12.7954 7.91273 13.1617 7.89867 13.5715C7.88873 13.6444 7.5236 14.9874 7.50184 15.2897H4.91569C4.91344 15.2771 4.99971 13.54 5.00046 13.5268C5.00046 13.5268 5.16043 13.1084 5.41398 13.0659C5.66579 13.0332 5.90885 12.9519 6.12961 12.8264C6.27545 12.74 6.42932 12.6679 6.58907 12.6113C6.67096 12.5376 6.73436 12.4458 6.77417 12.3431C6.85816 12.2362 6.96856 12.1531 7.09448 12.1019L7.10405 11.7811L6.44167 11.5695C6.44167 11.5695 6.27083 11.4883 6.25414 11.4883C6.28058 11.4318 6.31104 11.3772 6.34528 11.325C6.35784 11.2908 6.42029 11.0568 6.42029 11.0568C6.32373 11.183 6.21012 11.2952 6.08273 11.3902C6.19555 11.1748 6.29209 10.9512 6.37153 10.7213C6.42466 10.5085 6.46158 10.2919 6.48199 10.0735C6.52751 9.66769 6.59835 9.26508 6.69409 8.86806C6.76217 8.6708 6.8834 8.49616 7.04441 8.36341C7.28049 8.19587 7.55754 8.09542 7.84613 8.07273C7.85157 8.07273 7.85682 8.07273 7.86244 8.07273C7.86807 8.07273 7.87332 8.07273 7.87932 8.07273C8.16793 8.09534 8.445 8.19579 8.68104 8.36341C8.84184 8.49631 8.96297 8.67091 9.03117 8.86806C9.12713 9.26504 9.19803 9.66767 9.24346 10.0735C9.26095 10.2968 9.29613 10.5184 9.34866 10.7361C9.42818 10.9619 9.52648 11.1807 9.64253 11.39C9.51591 11.2945 9.40307 11.182 9.30722 11.0557C9.30722 11.0557 9.38748 11.3126 9.40024 11.3469Z" fill="#559BE6"/>
</svg>