<svg width="24" height="24" viewBox="0 0 24 24" fill="none" xmlns="http://www.w3.org/2000/svg">
	<rect width="24" height="24" rx="12" fill="#C5E7F4"/>
	<path fill-rule="evenodd" clip-rule="evenodd" d="M17.3255 15.8768C19.2753 13.1715 18.841 9.42651 16.313 7.15795C13.7998 4.90761 9.98277 4.90614 7.53835 7.15471C5.08006 9.42122 4.76 13.1659 6.79283 15.8724C8.80323 18.569 12.5536 19.3296 15.4184 17.6222C15.4444 17.6413 15.4719 17.6575 15.5014 17.6704L17.2838 18.1425C17.4377 18.1827 17.6001 18.1392 17.7096 18.0278C17.8197 17.9152 17.8605 17.7533 17.8177 17.601L17.3255 15.8768ZM13.9541 13.2474C13.8468 13.1284 13.679 13.0799 13.5242 13.1231C13.3667 13.1728 13.249 13.3011 13.2165 13.4597C13.1776 13.6219 13.2238 13.7937 13.3401 13.9189L13.5674 14.1584H9.45724C9.25155 14.1698 9.09571 14.3399 9.10734 14.5404L9.11033 14.7262C9.10468 14.9267 9.26618 15.0971 9.47253 15.1079H13.5856L13.366 15.348C13.254 15.473 13.2131 15.6444 13.257 15.8069C13.2945 15.9656 13.4158 16.0938 13.5757 16.1435C13.7315 16.187 13.8977 16.1383 14.0017 16.0192L14.964 14.9699C15.1331 14.7772 15.1285 14.491 14.9533 14.2984L13.9541 13.2474ZM10.1567 10.9002C10.276 10.9002 10.3893 10.8498 10.4664 10.7621C10.6352 10.5698 10.6306 10.2836 10.4558 10.0909L10.2288 9.85118H14.3423C14.5483 9.84039 14.7045 9.6703 14.6922 9.46946L14.6892 9.28433C14.6952 9.08349 14.5333 8.91275 14.327 8.90261H10.2139L10.4338 8.66252C10.602 8.47052 10.597 8.18463 10.4216 7.99328C10.3421 7.90529 10.2278 7.8546 10.1082 7.85427C9.98858 7.85361 9.8756 7.90366 9.79784 7.99132L8.83553 9.04293C8.66639 9.23494 8.67104 9.52147 8.84616 9.71348L9.84204 10.7621C9.92212 10.8498 10.0368 10.9002 10.1567 10.9002ZM9.55527 11.5586L9.55427 11.5593C9.34825 11.5697 9.19207 11.7402 9.20404 11.941L9.20703 12.1294C9.20138 12.3302 9.3632 12.5003 9.56923 12.5111H14.5413C14.7473 12.5003 14.9035 12.3302 14.8915 12.1294L14.8882 11.943C14.8949 11.7411 14.7334 11.5697 14.5264 11.5586H9.55527Z" fill="#559BE6"/>
</svg>