<svg width="24" height="24" viewBox="0 0 24 24" fill="none" xmlns="http://www.w3.org/2000/svg">
	<rect width="24" height="24" rx="12" fill="#C5E7F4"/>
	<path fill-rule="evenodd" clip-rule="evenodd" d="M9.59636 7.3916C9.59636 6.83932 10.0441 6.3916 10.5964 6.3916H13.4033C13.9556 6.3916 14.4033 6.83932 14.4033 7.3916V10.1985C14.4033 10.5387 14.2334 10.8392 13.9739 11.0198L15.3161 12.801H17.4091C17.9614 12.801 18.4091 13.2488 18.4091 13.801V16.608C18.4091 17.1602 17.9614 17.608 17.4091 17.608H14.6022C14.0499 17.608 13.6022 17.1602 13.6022 16.608V13.801C13.6022 13.4854 13.7484 13.2039 13.9769 13.0206L12.6038 11.1985H11.4084L10.0306 13.0269C10.2546 13.2103 10.3975 13.489 10.3975 13.801V16.608C10.3975 17.1602 9.94978 17.608 9.39749 17.608H6.59058C6.03829 17.608 5.59058 17.1602 5.59058 16.608V13.801C5.59058 13.2488 6.03829 12.801 6.59058 12.801H8.69605L10.034 11.0255C9.76983 10.8455 9.59636 10.5423 9.59636 10.1985V7.3916Z" fill="#559BE6"/>
</svg>