<svg width="24" height="24" viewBox="0 0 24 24" fill="none" xmlns="http://www.w3.org/2000/svg">
	<rect width="24" height="24" rx="12" fill="#C5E7F4"/>
	<path fill-rule="evenodd" clip-rule="evenodd" d="M15.6448 8.82236L16.2827 6.67973C16.3383 6.49344 16.2914 6.2913 16.1597 6.14947C16.028 6.00763 15.8315 5.94763 15.6443 5.99208C15.457 6.03653 15.3073 6.17868 15.2518 6.36496L14.7053 8.20427C13.0065 7.30735 10.9809 7.30949 9.28391 8.20999L8.73477 6.36496C8.64884 6.07699 8.34839 5.914 8.06369 6.00092C7.779 6.08784 7.61786 6.39175 7.70379 6.67973L8.34445 8.8308C6.90574 9.99401 6.07023 11.7576 6.07522 13.6206C6.07522 16.9828 8.7267 16.1578 12 16.1578C15.2733 16.1578 17.9248 16.9828 17.9248 13.6206C17.9305 11.7526 17.0905 9.9847 15.6448 8.82236ZM11.9946 13.1637C9.65808 13.1637 7.76301 13.4088 7.76301 12.407C7.76301 11.4053 9.65808 10.592 11.9946 10.592C14.3311 10.592 16.2289 11.4045 16.2289 12.407C16.2289 13.4096 14.3338 13.1637 11.9946 13.1637ZM10.0592 11.3424C9.72557 11.404 9.49711 11.7177 9.53782 12.0583C9.57852 12.3988 9.87433 12.6484 10.2128 12.6278C10.5513 12.6073 10.8155 12.3236 10.8156 11.9806C10.7778 11.5948 10.4412 11.3108 10.0592 11.3424ZM13.4078 12.0599C13.4493 12.4004 13.7455 12.6495 14.084 12.6285C14.4225 12.6075 14.6864 12.3237 14.6865 11.9806C14.6487 11.5936 14.3104 11.3092 13.9274 11.3424C13.5939 11.4051 13.3663 11.7195 13.4078 12.0599Z" fill="#559BE6"/>
</svg>