<svg width="24" height="24" viewBox="0 0 24 24" fill="none" xmlns="http://www.w3.org/2000/svg">
	<rect width="24" height="24" rx="12" fill="#C5E7F4"/>
	<path fill-rule="evenodd" clip-rule="evenodd" d="M16.9423 9.81382C17.2058 9.97543 17.3903 10.2427 17.428 10.5516L17.4352 10.6693L17.4348 11.6501L13.59 11.6508C13.1881 11.6508 12.8568 11.9534 12.8115 12.3431L12.8063 12.4345V14.5388C12.8063 14.9407 13.1088 15.272 13.4986 15.3173L13.59 15.3225L17.4348 15.3219L17.4352 16.4719C17.4352 17.0009 17.0067 17.4369 16.4603 17.4864L16.3566 17.4911H7.92319C7.21213 17.4911 6.62876 16.9451 6.56932 16.2495L6.56433 16.1322V9.81461L16.9423 9.81382ZM17.4348 12.4002V14.5727L13.5681 14.573V12.4004L17.4348 12.4002ZM15.3969 12.7076C15.0217 12.7076 14.7175 13.0119 14.7175 13.387C14.7175 13.7622 15.0217 14.0665 15.3969 14.0665C15.7721 14.0665 16.0763 13.7622 16.0763 13.387C16.0763 13.0119 15.7721 12.7076 15.3969 12.7076ZM15.4823 6.50928L16.1667 9.06583H7.9186L7.78615 8.57146L15.4823 6.50928Z" fill="#559BE6"/>
</svg>