<svg width="24" height="24" viewBox="0 0 24 24" fill="none" xmlns="http://www.w3.org/2000/svg">
	<rect width="24" height="24" rx="12" fill="#C5E7F4"/>
	<path fill-rule="evenodd" clip-rule="evenodd" d="M12.261 11.9877C12.261 11.9877 12.2537 12.2395 12.2849 12.3943H11.2386C10.6863 12.3943 10.2386 12.842 10.2386 13.3943V16.6695C10.2386 16.8109 10.2679 16.9454 10.3209 17.0673H4.46976C4.46976 17.0673 4.54761 15.8611 4.75933 15.025C4.97105 14.1889 6.16203 13.5678 7.25789 13.0903C7.54483 12.9652 7.71805 12.8655 7.89306 12.7647C8.06402 12.6662 8.23669 12.5667 8.51872 12.4417C8.55074 12.2878 8.56361 12.1305 8.55704 11.9734L9.04246 11.915C9.04246 11.915 9.10633 12.0326 9.00386 11.3418C9.00386 11.3418 8.45838 11.1986 8.43311 10.0987C8.43311 10.0987 8.02298 10.2368 7.99824 9.57041C7.99312 9.43762 7.95925 9.30996 7.9268 9.18764C7.84896 8.89423 7.77927 8.63156 8.13414 8.40269L7.87811 7.71114C7.87811 7.71114 7.60877 5.0406 8.78915 5.25679C8.31026 4.48822 12.349 3.84937 12.6173 6.20264C12.7229 6.91204 12.7229 7.63303 12.6173 8.34242C12.6173 8.34242 13.2207 8.27216 12.8179 9.43421C12.8179 9.43421 12.5961 10.2706 12.2555 10.0828C12.2555 10.0828 12.3107 11.1397 11.7745 11.3189C11.7745 11.3189 11.8128 11.8818 11.8128 11.9199L12.261 11.9877ZM11.7315 13.4756C11.4554 13.4756 11.2315 13.6995 11.2315 13.9756V15.7847C11.2315 16.0609 11.4554 16.2847 11.7315 16.2847H20.3595C20.6357 16.2847 20.8595 16.0609 20.8595 15.7847V13.9756C20.8595 13.6995 20.6357 13.4756 20.3595 13.4756H11.7315Z" fill="#559BE6"/>
</svg>