<svg width="24" height="24" viewBox="0 0 24 24" fill="none" xmlns="http://www.w3.org/2000/svg">
	<rect width="24" height="24" rx="12" fill="#C5E7F4"/>
	<path fill-rule="evenodd" clip-rule="evenodd" d="M6.77909 6.44398C7.2547 5.96764 8.69077 5.88841 8.70171 6.14019C8.71265 6.39197 9.99585 9.18538 10.007 9.43716C10.0182 9.68894 9.16104 10.5476 8.91023 10.7981C8.65942 11.0487 10.5871 13.2268 10.6234 13.2678L11.0866 13.668C11.7503 14.2293 12.9109 15.1628 13.0875 14.9848L13.3929 14.6832C13.7503 14.3387 14.2622 13.8781 14.4465 13.8861C14.6978 13.897 17.4863 15.1827 17.7386 15.1936C17.9909 15.2045 17.9109 16.6435 17.4353 17.1199L17.348 17.2C16.7809 17.6838 14.7129 18.8526 11.2642 16.3665C10.8881 16.1496 10.3058 15.6699 9.44026 14.8156L9.25558 14.632C8.2922 13.6664 7.76288 13.0294 7.532 12.6274C4.89729 8.95985 6.37274 6.85106 6.77909 6.44398Z" fill="#559BE6"/>
</svg>