<svg width="24" height="24" viewBox="0 0 24 24" fill="none" xmlns="http://www.w3.org/2000/svg">
	<rect width="24" height="24" rx="12" fill="#C5E7F4"/>
	<path fill-rule="evenodd" clip-rule="evenodd" d="M7.28404 6.49805H10.428C10.8621 6.49805 11.214 6.84995 11.214 7.28404V10.428C11.214 10.8621 10.8621 11.214 10.428 11.214H7.28404C6.84995 11.214 6.49805 10.8621 6.49805 10.428V7.28404C6.49805 6.84995 6.84995 6.49805 7.28404 6.49805ZM7.28404 12.786H10.428C10.8621 12.786 11.214 13.1379 11.214 13.572V16.716C11.214 17.1501 10.8621 17.502 10.428 17.502H7.28404C6.84995 17.502 6.49805 17.1501 6.49805 16.716V13.572C6.49805 13.1379 6.84995 12.786 7.28404 12.786ZM13.965 7.67704V10.035H16.323V7.67704H13.965ZM13.572 6.49805H16.716C17.1501 6.49805 17.502 6.84995 17.502 7.28404V10.428C17.502 10.8621 17.1501 11.214 16.716 11.214H13.572C13.1379 11.214 12.786 10.8621 12.786 10.428V7.28404C12.786 6.84995 13.1379 6.49805 13.572 6.49805ZM13.572 12.786H16.716C17.1501 12.786 17.502 13.1379 17.502 13.572V16.716C17.502 17.1501 17.1501 17.502 16.716 17.502H13.572C13.1379 17.502 12.786 17.1501 12.786 16.716V13.572C12.786 13.1379 13.1379 12.786 13.572 12.786Z" fill="#559BE6"/>
</svg>