<svg xmlns="http://www.w3.org/2000/svg" width="42" height="42" viewBox="-10 -10 42 42">
  <path fill="#FFFFFF" fill-rule="evenodd" d="M11.2998315,14.7285646 C11.9611867,14.0254862 12.7921202,14.0254862 13.4577149,14.7239983 C13.8689421,15.1577158 14.1210627,15.7109569 14.4424135,16.1764948 C14.7638066,16.642034 15.1450186,17.2349934 15.5392881,17.6641459 C16.2345589,18.4174435 16.2345589,19.2940097 15.5435276,20.0427423 C15.0475111,20.5814644 14.8779328,20.7732136 14.3734375,21.2982393 C14.2420143,21.439768 14.229296,21.5539039 14.2971273,21.7273917 C14.6320443,22.5856952 15.1111029,23.3481242 15.6495139,24.060334 C16.7348148,25.4938837 17.9600177,26.767642 19.4226303,27.7583442 C19.73635,27.9683548 20.0839855,28.1235798 20.4104237,28.3153277 C20.5757624,28.4157686 20.6902277,28.3838095 20.8258904,28.2331508 C21.3219068,27.6852974 21.6992185,27.5118096 22.2037138,26.9730875 C22.865069,26.265444 23.6960025,26.265444 24.3615971,26.9730875 C25.1713334,27.8405224 26.1082532,28.3427204 26.91375,29.2147203 C27.5878235,29.9451916 27.583584,30.8400192 26.905271,31.5796217 C26.4474097,32.0772547 25.9598722,32.5520612 25.5274477,33.0725219 C24.8957686,33.8349509 24.1072297,34.0814855 23.199986,34.0267 C21.8815151,33.9490869 20.6690304,33.4788466 19.4989404,32.8670764 C16.9001536,31.5065749 14.6786784,29.6210451 12.8175569,27.2378835 C11.4397336,25.475621 10.3035592,23.5535697 9.55741488,21.3895488 C9.19282161,20.3440611 8.93421476,19.271182 9.01476444,18.1343861 C9.06563792,17.4358727 9.30728693,16.8378001 9.78634553,16.3492972 C10.3035592,15.8197052 10.7910967,15.2672867 11.2998315,14.7285646 Z M30.9864909,11 L30.9864909,25 L24.9864909,21.5515905 L24.9864909,14.7862707 L30.9864909,11 Z M22.9864909,15 C23.5387756,15 23.9864909,15.4477153 23.9864909,16 L23.9864909,21 C23.9864909,21.5522847 23.5387756,22 22.9864909,22 L20.9864909,22 C20.4342061,22 19.9864909,21.5522847 19.9864909,21 L19.9864909,16 C19.9864909,15.4477153 20.4342061,15 20.9864909,15 L22.9864909,15 Z" transform="translate(-9 -11)"/>
</svg>
