<svg xmlns="http://www.w3.org/2000/svg" width="26" height="26" viewBox="-8 -8 42 42">
  <path fill="#FF9E00" d="M25.087122,21 C25.0849689,23.0757845 23.4027502,24.7580032 21.3269658,24.7601562 C19.2511813,24.7580032 17.5689626,23.0757845 17.5668095,21 C17.5689626,18.9242155 19.2511813,17.2419968 21.3269658,17.2398438 C23.4027502,17.2419968 25.0849689,18.9242155 25.087122,21 M21.3269658,8.5 C14.4347783,8.5 8.82696578,14.1078125 8.82696578,21 C8.82696578,27.8921875 14.4347783,33.5 21.3269658,33.5 C23.8519658,33.5 26.287122,32.7484375 28.368372,31.3257812 L28.4043095,31.3007812 L26.7199345,29.3429687 L26.6918095,29.3617187 C25.0920921,30.3915653 23.229511,30.9386494 21.3269658,30.9375 C15.8472783,30.9375 11.3894658,26.4796875 11.3894658,21 C11.3894658,15.5203125 15.8472783,11.0625 21.3269658,11.0625 C26.8066533,11.0625 31.2644658,15.5203125 31.2644658,21 C31.2644658,21.7101562 31.1855595,22.4289062 31.0300908,23.1359375 C30.7160283,24.4257812 29.8129033,24.8210937 29.1347783,24.76875 C28.452747,24.7132812 27.6550908,24.2273437 27.649622,23.0382812 L27.649622,21 C27.649622,17.5132812 24.8136845,14.6773437 21.3269658,14.6773437 C17.840247,14.6773437 15.0043095,17.5132812 15.0043095,21 C15.0043095,24.4867187 17.840247,27.3226562 21.3269658,27.3226562 C23.0101091,27.3266562 24.6242622,26.6541393 25.8066533,25.45625 C26.4950796,26.5358959 27.6523861,27.227616 28.9293095,27.3226562 C29.9578866,27.4027884 30.9801647,27.1031648 31.802747,26.4804687 C32.5519658,25.9117187 33.1113408,25.0890625 33.4207158,24.1007812 C33.4699345,23.9414062 33.5605595,23.5757812 33.5613408,23.5734375 L33.5636845,23.5601562 C33.7457158,22.7671875 33.8269658,21.9765625 33.8269658,21 C33.8269658,14.1078125 28.2191533,8.5 21.3269658,8.5" transform="translate(-8.327 -8)"/>
</svg>
