<svg xmlns="http://www.w3.org/2000/svg" width="24" height="24" viewBox="-9 -10 42 42">
  <path fill="#289D37" d="M22.2104951,6.01960236 C23.0630767,7.65484781 23.506965,9.47224275 23.5042202,11.3163998 C23.4178409,17.7453414 18.1816254,22.911686 11.7521037,22.911686 C5.32258201,22.911686 0.0863665166,17.7453414 1.53654867e-12,11.3163998 C1.53654867e-12,11.056597 0.0106041991,10.7967941 0.0265104979,10.5422933 L7.14192813,14.5877953 L22.2104951,6.01960236 Z M20.7948345,3.87755413 C21.0703938,4.2037265 21.3270808,4.54538565 21.563639,4.90085935 L21.563639,4.90085935 L7.14192813,13.0979053 L0.201479784,9.1531432 C0.279962433,8.72081626 0.386224627,8.29399645 0.519605758,7.87533721 L0.519605758,7.87533721 L7.14192813,11.6398279 Z M18.8701724,2.04832978 C19.2303437,2.32107371 19.5754853,2.61311654 19.9040818,2.92317621 L19.9040818,2.92317621 L7.14192813,10.1764484 L0.970284222,6.6664585 C1.13984179,6.27785506 1.33101634,5.89904625 1.54291098,5.5318092 L1.54291098,5.5318092 L7.14192813,8.71837104 Z M16.3092583,0.659179688 C16.7817134,0.854338359 17.2404981,1.08107364 17.6825021,1.33784843 L17.6825021,1.33784843 L7.14192813,7.32922095 L2.23748602,4.54031658 C2.49399768,4.19575104 2.76831236,3.86480366 3.05931145,3.54882396 L3.05931145,3.54882396 L7.14192813,5.86584147 Z" transform="translate(.673 -.5)"/>
</svg>
