<svg width="32" height="32" fill="none" xmlns="http://www.w3.org/2000/svg"><path opacity=".323" d="M16 .5C24.56.5 31.5 7.44 31.5 16c0 8.56-6.94 15.5-15.5 15.5C7.44 31.5.5 24.56.5 16 .5 7.44 7.44.5 16 .5z" stroke="#55D0E0"/><path fill-rule="evenodd" clip-rule="evenodd" d="M14.275 22.798c2.194 0 4.296-.235 6.242-.667-.293-1.455-.915-3.682-.915-3.682 0-.559-.766-1.196-2.278-1.568a5.268 5.268 0 01-1.442-.624c-.096-.053-.083-.54-.083-.54l-.487-.072c0-.04-.041-.624-.041-.624.582-.186.522-1.284.522-1.284.37.196.61-.671.61-.671.438-1.207-.217-1.134-.217-1.134a7.224 7.224 0 000-2.222c-.291-2.444-4.676-1.78-4.157-.983-1.281-.226-.99 2.549-.99 2.549l.279.717c-.386.237-.31.51-.226.815.035.127.072.26.077.399.027.692.472.548.472.548.027 1.143.619 1.293.619 1.293.111.717.042.595.042.595l-.527.06c.007.164-.007.327-.042.486-.307.13-.495.234-.68.336-.19.105-.377.208-.688.338-1.19.495-2.484 1.14-2.714 2.009-.138.516-.434 1.94-.651 3.008 2.226.59 4.687.918 7.275.918zm7.15-2.08c1.577 0 3.077-.203 4.431-.57l-.084-1.637v-.002l-.036-.704s-.283-.703-.731-.775a3.582 3.582 0 01-1.265-.403 4.744 4.744 0 00-.813-.363 1.18 1.18 0 01-.328-.451c-.15-.18-.344-.32-.566-.406l-.017-.54 1.171-.356s.302-.136.33-.136a2.165 2.165 0 00-.16-.275c-.023-.058-.133-.45-.133-.45.171.212.371.4.596.56a7.99 7.99 0 01-.511-1.125 6.985 6.985 0 01-.195-1.089c-.08-.683-.206-1.36-.375-2.027a1.907 1.907 0 00-.62-.848 2.923 2.923 0 00-1.417-.488h-.06a2.92 2.92 0 00-1.414.488 1.913 1.913 0 00-.62.849 15.66 15.66 0 00-.374 2.027 6.8 6.8 0 01-.186 1.114c-.14.38-.314.748-.519 1.1.224-.16.424-.349.594-.562 0 0-.141.433-.164.491a1.286 1.286 0 00-.13.237c.03 0 .332.136.332.136l1.17.356-.017.54a1.383 1.383 0 00-.566.406c-.056.12-.125.233-.206.34 1.066.42 2.024 1.036 2.05 1.725.005.035.06.242.138.532.189.7.508 1.886.558 2.306h.137z" fill="#55D0E0"/></svg>