<svg width="19" height="15" fill="none" xmlns="http://www.w3.org/2000/svg"><path fill-rule="evenodd" clip-rule="evenodd" d="M13.517 14.198a28.914 28.914 0 01-6.242.667c-2.588 0-5.05-.328-7.275-.918.217-1.069.513-2.492.65-3.008.231-.869 1.525-1.514 2.715-2.01.31-.129.498-.232.688-.337a6.53 6.53 0 01.68-.336c.035-.16.049-.322.042-.485l.527-.061s.07.122-.042-.595c0 0-.592-.15-.62-1.293 0 0-.444.144-.47-.548a1.764 1.764 0 00-.078-.4c-.084-.304-.16-.577.226-.814l-.278-.717S3.748.568 5.03.793c-.52-.797 3.865-1.46 4.156.984a7.223 7.223 0 010 2.222s.655-.073.218 1.134c0 0-.24.867-.61.671 0 0 .06 1.098-.523 1.284 0 0 .041.584.041.624l.487.072s-.013.487.083.54c.444.278.93.488 1.442.624 1.512.372 2.278 1.01 2.278 1.568 0 0 .622 2.227.915 3.682zm5.345-1.865c-.348.175-.708.343-1.078.503h-3.491c-.026-.364-.366-1.626-.563-2.357-.078-.29-.133-.497-.138-.532-.026-.69-.984-1.305-2.05-1.726a1.9 1.9 0 00.206-.34c.15-.18.345-.32.566-.405l.017-.54-1.17-.356s-.301-.136-.331-.136c.034-.083.078-.163.13-.237.022-.058.163-.49.163-.49-.17.212-.37.401-.594.56.205-.351.379-.719.52-1.099a6.8 6.8 0 00.185-1.114c.08-.683.206-1.36.375-2.027.121-.333.336-.627.619-.849A2.92 2.92 0 0113.642.7h.06c.509.038.998.207 1.418.49.283.22.497.514.619.847.169.667.294 1.344.375 2.027.036.367.101.732.195 1.09.14.386.311.762.51 1.124a2.972 2.972 0 01-.595-.56s.11.392.133.45c.06.088.114.18.16.275-.028 0-.33.136-.33.136l-1.17.356.016.54c.222.085.417.225.566.406.071.173.183.328.328.451.282.096.554.217.813.363.391.212.82.348 1.265.403.448.072.73.775.73.775l.037.706.09 1.755z" fill="#ACB2B8"/></svg>