<svg width="32" height="32" fill="none" xmlns="http://www.w3.org/2000/svg"><rect width="32" height="32" rx="16" fill="#55D0E0"/><path fill-rule="evenodd" clip-rule="evenodd" d="M13.351 22.956c2.194 0 4.296-.235 6.242-.666-.293-1.455-.915-3.683-.915-3.683 0-.558-.766-1.196-2.278-1.567a5.265 5.265 0 01-1.442-.625c-.096-.052-.082-.54-.082-.54l-.487-.072c0-.04-.042-.624-.042-.624.583-.186.523-1.283.523-1.283.37.195.61-.672.61-.672.437-1.206-.218-1.134-.218-1.134a7.218 7.218 0 000-2.222c-.291-2.444-4.676-1.78-4.156-.983-1.282-.226-.99 2.549-.99 2.549l.278.717c-.385.237-.31.51-.226.815.036.127.072.26.078.399.027.692.471.549.471.549.027 1.142.62 1.292.62 1.292.11.717.041.595.041.595l-.527.06c.007.164-.007.327-.041.486-.308.13-.495.234-.681.336-.19.105-.377.208-.688.338-1.19.496-2.483 1.14-2.714 2.009-.138.516-.434 1.94-.651 3.008 2.226.59 4.687.918 7.275.918zm7.15-2.08c1.577 0 3.077-.203 4.431-.57l-.084-1.637v-.002l-.036-.704s-.283-.703-.731-.775a3.582 3.582 0 01-1.265-.403 4.742 4.742 0 00-.813-.363 1.18 1.18 0 01-.328-.45c-.149-.181-.344-.321-.566-.407l-.016-.54 1.17-.356s.302-.136.331-.136a2.165 2.165 0 00-.161-.275c-.022-.058-.133-.45-.133-.45.171.212.372.4.596.56a7.99 7.99 0 01-.51-1.125 6.985 6.985 0 01-.196-1.089c-.08-.682-.206-1.36-.375-2.027a1.907 1.907 0 00-.62-.847 2.923 2.923 0 00-1.417-.49h-.06a2.92 2.92 0 00-1.414.49 1.913 1.913 0 00-.619.848c-.17.667-.294 1.344-.375 2.027a6.8 6.8 0 01-.186 1.114c-.14.38-.314.748-.519 1.1.224-.16.424-.349.594-.562 0 0-.141.433-.164.491a1.295 1.295 0 00-.13.237c.03 0 .332.136.332.136l1.17.356-.017.54a1.383 1.383 0 00-.566.406c-.056.12-.125.234-.206.34 1.067.42 2.024 1.036 2.05 1.725.005.035.06.242.138.532.189.7.508 1.886.558 2.306h.137z" fill="#fff"/></svg>