<svg width="28" height="28" fill="none" xmlns="http://www.w3.org/2000/svg"><g clip-path="url(#a)"><path opacity=".323" d="M14 .438C21.49.438 27.563 6.51 27.563 14c0 7.49-6.073 13.563-13.563 13.563S.437 21.49.437 14 6.51.437 14 .437z" stroke="#55D0E0"/><path fill-rule="evenodd" clip-rule="evenodd" d="M12.49 19.948c1.92 0 3.76-.205 5.462-.583-.256-1.273-.8-3.222-.8-3.222 0-.49-.67-1.047-1.994-1.372a4.612 4.612 0 0 1-1.261-.546c-.084-.046-.073-.473-.073-.473l-.426-.063c0-.035-.036-.546-.036-.546.51-.162.457-1.123.457-1.123.324.171.534-.587.534-.587.383-1.056-.19-.992-.19-.992.1-.645.1-1.3 0-1.945-.255-2.138-4.092-1.557-3.638-.86-1.12-.198-.866 2.23-.866 2.23l.244.628c-.338.207-.271.446-.197.713.03.111.063.227.067.35.024.605.413.479.413.479.024 1 .541 1.131.541 1.131.098.627.037.52.037.52l-.46.053c.005.144-.007.286-.038.425-.268.114-.433.205-.595.294a5.46 5.46 0 0 1-.602.296c-1.04.433-2.173.998-2.374 1.758-.121.451-.38 1.697-.57 2.632 1.948.516 4.101.803 6.366.803zm6.257-1.82c1.38 0 2.692-.177 3.877-.498l-.073-1.433v-.002l-.032-.616s-.248-.615-.64-.678a3.136 3.136 0 0 1-1.107-.352 4.148 4.148 0 0 0-.71-.318 1.033 1.033 0 0 1-.288-.395 1.216 1.216 0 0 0-.495-.355l-.015-.472 1.025-.312s.264-.119.288-.119a1.9 1.9 0 0 0-.14-.24c-.02-.051-.116-.394-.116-.394.15.185.325.35.521.49a6.993 6.993 0 0 1-.447-.985 6.1 6.1 0 0 1-.17-.953c-.07-.597-.18-1.19-.328-1.773a1.668 1.668 0 0 0-.543-.742 2.557 2.557 0 0 0-1.24-.427h-.052c-.443.032-.87.18-1.238.427-.246.192-.434.45-.542.743a13.72 13.72 0 0 0-.327 1.773 5.945 5.945 0 0 1-.163.975 6.118 6.118 0 0 1-.454.963 2.59 2.59 0 0 0 .52-.492s-.124.379-.144.43a1.12 1.12 0 0 0-.114.207c.027 0 .29.119.29.119l1.025.311-.015.473a1.21 1.21 0 0 0-.495.355c-.05.105-.11.204-.18.298.932.367 1.77.906 1.793 1.509.004.03.052.212.12.465.166.613.445 1.65.489 2.018h.12z" fill="#55D0E0"/></g><defs><clipPath id="a"><path fill="#fff" d="M0 0h28v28H0z"/></clipPath></defs></svg>