<svg xmlns="http://www.w3.org/2000/svg" viewBox="0 0 50 50" width="180" height="180"><path fill="#FFF" opacity=".1" d="M47.3 4.1L40.4 4c-.1 0-.1 0-.1.1s0 .1.1.1l6.9-.1c0 .1 0 .1 0 0zm.5-.6c0-.1 0-.1-.1-.1H40c-.1 0-.1 0-.1.1s0 .1.1.1h7.7s.1 0 .1-.1zm.5-.6c0-.1-.1-.1-.1-.1h-8.7c-.1 0-.1.1-.1.1 0 .1 0 .1.1.1h8.7l.1-.1zm-2.5 3.2c0-.1 0-.1 0 0h-4s-.1 0-.1.1c0 0 0 .1.1.1l4-.2zm-.5.6h-3 3zm-.5.7s.1-.1 0 0c.1-.1 0-.1 0 0h-2 2zm-5.8-5h9.6c.1 0 .1-.1.1-.1 0-.1-.1-.1-.1-.1h-2.8c0-.2-.1-.5-.2-.7l1.6-.9c.1-.1.1-.2.1-.3-.1-.1-.2-.1-.3-.1l-1.6.9c-.1-.2-.3-.3-.5-.5l.3-.5h-.5l-.2.3c-.2-.1-.4-.1-.6-.2V0h-.4v.2c-.2 0-.4.1-.6.2l-.2-.3h-.5l.3.5c-.2.1-.3.3-.5.5L40.4.2c-.1-.1-.2 0-.3.1-.1.1 0 .2.1.3l1.8.8c-.1.2-.2.4-.2.7H39c-.1 0-.1.1-.1.1 0 .1 0 .2.1.2zm7.8 2.4c0-.1 0-.1 0 0l-5.9-.1s-.1 0-.1.1c0 0 0 .1.1.1l5.9-.1c0 .1 0 0 0 0zm-.5.6l-4.9-.1s-.1 0-.1.1c0 0 0 .1.1.1l4.9-.1c0 .1 0 .1 0 0zm-2.5 42.7c-.1 0-.2.1-.2.2V50h.4v-1.7c0-.1 0-.2-.2-.2zm2.1.5c-.1-.1-.2 0-.3.1l-.7 1.3h.5l.6-1c0-.2 0-.3-.1-.4zm-4.1.1c-.1.1-.1.2-.1.3l.6 1h.5l-.7-1.2c-.1-.2-.2-.2-.3-.1zM24 17.8c-2.2 0-4.1 1.8-4.1 4.1 0 2.2 1.8 4.1 4.1 4.1 2.2 0 4.1-1.8 4.1-4.1-.1-2.3-1.9-4.1-4.1-4.1zm-1.2.7c-.3.3-.5.8-.7 1.4-.2-.1-.5-.3-.7-.5.4-.4.9-.7 1.4-.9zm-1.7 1.2c.3.3.6.5.9.6-.1.4-.1.9-.2 1.3h-1.5c.1-.7.4-1.4.8-1.9zm-.7 2.4h1.5c0 .5.1.9.2 1.3l-.9.6c-.5-.4-.8-1.1-.8-1.9zm1 2.4c.2-.2.4-.4.7-.5.2.6.4 1 .7 1.4-.5-.3-1-.6-1.4-.9zm2.3 1c-.5-.2-1-.8-1.2-1.8.4-.2.8-.3 1.2-.3v2.1zm0-2.6c-.5 0-.9.1-1.3.3-.1-.4-.1-.7-.1-1.1h1.5l-.1.8zm0-1.2h-1.5c0-.4.1-.8.1-1.1.4.2.9.3 1.3.3l.1.8zm0-1.3c-.4 0-.8-.1-1.2-.3.3-.9.7-1.6 1.2-1.8v2.1zm3.9 1.3h-1.5c0-.5-.1-.9-.2-1.3l.9-.6c.5.4.7 1.1.8 1.9zm-1.1-2.4c-.2.2-.4.4-.7.5-.2-.5-.4-1-.7-1.4.6.3 1 .6 1.4.9zm-2.3-1c.5.2 1 .8 1.2 1.7-.4.2-.8.3-1.2.3v-2zm0 2.5c.5 0 .9-.1 1.3-.3.1.4.1.7.1 1.1h-1.5l.1-.8zm0 1.3h1.5c0 .4-.1.8-.1 1.1-.4-.2-.9-.3-1.3-.3l-.1-.8zm0 3.4v-2.1c.4 0 .8.1 1.2.3-.2.9-.7 1.6-1.2 1.8zm1-.2c.3-.3.5-.8.7-1.4.2.1.5.3.7.5-.5.4-.9.7-1.4.9zm1.6-1.2c-.3-.3-.5-.5-.9-.6.1-.4.1-.9.2-1.3h1.5c-.1.7-.3 1.3-.8 1.9zm-12.4 8.5l-1.9-.2c-.5-.1-.9-.5-.8-1l.2-2.5c0-.5-.1-.6-.4-.1l-1.3 2.1c-.3.4-.9.7-1.4.7l-2.3-.2c-.5-.1-.6.1-.2.4l1.4 1c.4.3.5.9.3 1.3l-1.3 2c-.3.4-.1.6.3.3l1.8-1c.4-.2 1.1-.1 1.4.2l1.9 2c.3.4.5.3.4-.2l-.7-2.1c-.2-.5.1-1 .5-1.2l2.1-.7c.5-.4.5-.7 0-.8zm-7.5-.8c-.1 0-.2-.1-.2-.2s.1-.2.2-.2.2.1.2.2-.1.2-.2.2zm.7.2c-.1 0-.2-.1-.2-.2s.1-.2.2-.2.2.1.2.2-.1.2-.2.2zm4.4 4.5c.1 0 .2.1.2.1 0 .1-.1.1-.2.1s-.2-.1-.2-.1.1-.1.2-.1zm-.5-7.3c.1 0 .2.1.2.1 0 .1-.1.1-.2.1s-.2-.1-.2-.1.1-.1.2-.1zm-.1.6c.1 0 .2.1.2.2s-.1.2-.2.2-.2-.1-.2-.2c0-.2.1-.2.2-.2zm-.2.6c.1 0 .2.1.2.2s-.1.2-.2.2-.2-.1-.2-.2c0-.2.1-.2.2-.2zm-.2.7c.1 0 .2.1.2.2s-.1.2-.2.2-.2-.1-.2-.2c-.1-.1 0-.2.2-.2zm-.3.7c.2 0 .3.2.3.3 0 .2-.2.3-.3.3-.2 0-.3-.2-.3-.3-.1-.2.1-.3.3-.3zm-1.8.5c.2-.1.5-.1.5.1.1.2 0 .4-.2.5-.2.1-.4 0-.5-.1-.1-.2 0-.4.2-.5zm-1.4 3.4c-.1 0-.2-.1-.2-.1 0-.1.1-.1.2-.1s.2.1.2.1c-.1.1-.2.1-.2.1zm.5-.4c-.1 0-.2-.1-.2-.2s0-.1.2-.1c.1 0 .2.1.2.2 0 0-.1.1-.2.1zm-.1-3.2c0-.1.1-.3.3-.3.1 0 .3.1.3.3 0 .1-.1.3-.3.3-.1 0-.3-.1-.3-.3zm1 2.6c0 .1-.2.2-.4.2s-.3-.2-.3-.4c0-.1.2-.2.4-.2.2.1.4.3.3.4zm.5-.4c-.3 0-.5-.2-.5-.4s.2-.4.5-.4.5.2.5.4c-.1.3-.3.4-.5.4zm.8-.7c-.3 0-.5-.2-.5-.4s.2-.4.5-.4.5.2.5.4-.2.4-.5.4zm.1.7c0-.2.2-.4.4-.4s.4.2.4.4-.2.4-.4.4-.4-.2-.4-.4zm.9 1.1c-.2 0-.3-.1-.3-.3 0-.1.1-.3.3-.3.2 0 .3.1.3.3-.1.2-.2.3-.3.3zm.4.8c-.1 0-.2-.1-.2-.2s.1-.2.2-.2.2.1.2.2-.1.2-.2.2zm-.2-2.6c-.2 0-.4-.2-.4-.4s.2-.4.4-.4.4.2.4.4-.2.4-.4.4zm1-.2c-.2 0-.3-.1-.3-.3 0-.2.1-.3.3-.3.2 0 .3.1.3.3 0 .2-.2.3-.3.3zm.8-.1c-.1 0-.2-.1-.2-.2s.1-.2.2-.2.2.1.2.2-.1.2-.2.2zm.6-.2c-.1 0-.2-.1-.2-.1 0-.1.1-.1.2-.1s.2.1.2.1c0 .1-.1.1-.2.1zM26.7 9.2c.2 0 .5-.1.7-.2.1.1.1.2.2.2.1.5.3 1 .6 1.4-.1.1-.1.2 0 .3-.2.1-.4.2-.6.4-.3.3-.3.6-.2.7.1.1.4.2.7-.2.2-.2.3-.4.3-.6h.3c.4.3.9.5 1.4.6 0 .1.1.2.2.2-.1.2-.2.4-.2.7 0 .5.2.6.4.6s.4-.2.4-.6c0-.2-.1-.5-.2-.7.1-.1.2-.1.2-.2.5-.1 1-.3 1.4-.6.1.1.2.1.3 0 .1.2.2.4.4.6.3.3.6.3.7.2.1-.1.2-.4-.2-.7-.2-.2-.4-.3-.6-.3v-.3c.3-.4.5-.9.6-1.4.1 0 .2-.1.2-.2.2.1.5.2.7.2.5 0 .6-.2.6-.4s-.2-.4-.6-.4c-.2 0-.5.1-.7.2-.1-.1-.1-.2-.2-.2-.1-.5-.3-1-.6-1.4.1-.1.1-.2 0-.3.2-.1.4-.2.6-.4.5-.4.5-.6.3-.8-.1-.1-.4-.2-.7.2-.2.2-.3.4-.3.6h-.3c-.5-.3-.9-.5-1.5-.6 0-.1-.1-.2-.2-.2.1-.2.2-.5.2-.7 0-.5-.2-.6-.4-.6s-.4.2-.4.6c0 .2.1.5.2.7-.1.1-.2.1-.2.2-.5.1-1 .3-1.4.6-.1-.1-.2-.1-.3 0-.1-.2-.2-.4-.4-.6-.3-.3-.6-.3-.7-.2-.1.1-.2.4.2.7.2.2.4.3.6.3v.3c-.3.4-.5.9-.6 1.4-.1 0-.2.1-.2.2-.2-.1-.5-.2-.7-.2-.5 0-.6.2-.6.4 0 .3.2.5.6.5zm3.6 2.2c-.5-.1-1-.3-1.3-.5v-.2c.2-.1.5-.2.7-.4.2-.3.3-.4.3-.6.1.1.3.2.5.2-.1.1-.2.3-.2.6s.1.6.2.8c-.1 0-.1.1-.2.1zm2-.5c-.4.3-.8.5-1.3.5 0 0-.1-.1-.2-.1.1-.2.2-.5.2-.8 0-.3-.1-.5-.2-.6.2 0 .3-.1.5-.2 0 .1 0 .3.3.6.2.2.5.3.7.4 0 0-.1.1 0 .2zm.4-.5h-.2c-.1-.2-.2-.5-.4-.7-.2-.2-.4-.3-.6-.3.1-.1.2-.3.2-.5.1.1.3.2.6.2s.6-.1.8-.2c0 .1.1.1.1.2 0 .5-.2 1-.5 1.3zm-.2-3.3h.2c.3.5.5.9.5 1.4 0 0-.1.1-.1.2-.2-.1-.5-.2-.8-.2-.3 0-.5.1-.6.2 0-.2-.1-.3-.2-.5.1 0 .3 0 .6-.3.2-.2.3-.5.4-.8zm-1.6-.9c.5.1 1 .3 1.3.5v.2c-.2.1-.5.2-.7.4-.2.2-.3.4-.3.6-.1-.1-.3-.2-.5-.2.2-.1.3-.3.3-.6s-.1-.6-.2-.8c0 0 .1 0 .1-.1zm.4 2.6c0 .3-.3.6-.6.6s-.6-.3-.6-.6.3-.6.6-.6.6.3.6.6zm-2.3-2c.4-.3.8-.5 1.3-.5 0 0 .1.1.2.1-.1.2-.2.5-.2.8 0 .3.1.5.2.6-.2 0-.3.1-.5.2 0-.1 0-.3-.3-.6-.2-.2-.5-.4-.7-.5v-.1zm-.4.4h.2c.1.2.2.5.4.7.2.2.4.3.6.3-.1.1-.2.3-.2.5-.1-.1-.3-.2-.6-.2s-.6.1-.8.2c0-.1-.1-.1-.1-.2 0-.5.2-.9.5-1.3zM28.1 9c.2.1.5.2.8.2.3 0 .5-.1.6-.2 0 .2.1.3.2.5-.1 0-.3 0-.6.3-.2.2-.3.5-.4.7h-.2c-.3-.4-.5-.8-.5-1.3.1-.1.1-.2.1-.2zm-9.7 7.1c.8.3 1.7.3 2.4-.1l.2.4 1-1.4-2-.3.3.5c-.5.2-1.1.3-1.6 0-.2-.1-.4-.2-.6-.4l3.6-2.4c.1.1.2.1.3.2.6.2 1.2-.1 1.5-.6.2-.6-.1-1.2-.6-1.5-.6-.2-1.2.1-1.5.6-.1.2-.1.5 0 .7l-3.8 1.8c-.1-.4 0-.8.1-1.2.1-.4.4-.7.7-.9l.3.5.9-1.7-1.9.1.2.3c-.5.3-.8.8-1.1 1.4-.7 1.7 0 3.4 1.6 4zm3.5-4.7c.1-.3.4-.4.7-.3.3.1.4.4.3.7-.1.3-.4.4-.7.3-.3-.1-.4-.4-.3-.7zm4.7 19.4c-.1-.5-.5-.8-1-.6l-1.3.5c-.6-.1-1.4-.2-2.1-.3.1-.2.3-.3.4-.4.1-.1.3-.2.5-.3h.4c.2 0 .6.1.7 0 .2 0 .2-.2.1-.3-.3-.2-.8-.3-1.2-.2-.3.1-.6.2-.8.3l-.7.7h-.4c-.3 0-.6.1-.8.2-.4.2-.7.6-.8.9-.1.2.1.3.2.2.1 0 .4-.3.5-.4.1-.1.2-.2.3-.2.2-.1.4-.1.6-.1-.5.6-1.1 1.2-1.5 1.6l-.9.3c-.5.2-.7.7-.4 1.1l.7 1c.3.4 1 .7 1.5.5l.8-.3c.5-.2.9-.8.8-1.3l-.2-1.2c0-.2.2-.3.4-.4.2-.1.5 0 .6.1l.6.9c.3.4 1 .7 1.5.5l.8-.3c.5-.2.9-.8.8-1.3l-.1-1.2zM19.5 33c-.1.1-.2.2-.2.4-.1.2 0 .4 0 .6 0 .2 0 .3-.1.2-.1-.1-.3-.4-.4-.6-.1-.2 0-.4.2-.5.1-.1.4-.2.6-.2l-.1.1zm3.3-1.3c-.2 0-.3 0-.5.1s-.3.2-.5.3c-.2-.3-.5-.4-.9-.2l-.3.1c.3-.4.7-.8 1.1-1.1.4.1 1 .1 1.5.2-.3 0-.4.3-.4.6zm1.3-.4c-.1.1-.2.2-.2.3-.1.2 0 .4 0 .6 0 .2 0 .3-.1.1-.1-.1-.3-.4-.3-.5-.1-.2 0-.4.2-.5.1-.1.4-.2.6-.2l-.2.2zm22.4 1.8h-.1c.1.1.2.3.2.4h-.2v-.2c-.1-.1-.1-.2-.2-.2h-.1c.2.1.2.3.2.5l-.3.1v-.3c-.1-.1-.2-.2-.3-.2h-.2c.2.1.3.3.2.5l-.4.1c0-.1.1-.2 0-.3-.1-.2-.2-.3-.4-.2l-.4.1-2.1-2.6c-.2-.3-.5-.3-.5-.3l2.4 3-.2.1-2.2-2.8c-.4-.4-.6-.4-.6-.4l2.6 3.2-.4.1-2.4-2.9c-.4-.4-.7-.4-.7-.4l2.7 3.4-.3.1-2.8-3.4c-.1-.2-.3-.2-.5 0-.2.1-.2.3 0 .5l.6.7-.9 3.3-1 .3c-.2.1-.3.2-.2.4.1.2.2.3.4.2l4.2-1.2 1.4 1.7c.1.2.3.2.5 0 .1-.1.2-.3.1-.5l1.4-.4.1.1c.1.1.3.1.4 0 .1-.1.1-.3 0-.4l-.7-.7c.6-.3 1-.7 1-1v-.2c-.1-.2-.2-.2-.3-.2zm-6.1-1.7c.1 0 .2.1.2.2s-.1.2-.2.2-.2-.1-.2-.2c.1-.1.1-.2.2-.2zm-.9 4c-.1 0-.2-.1-.2-.2s.1-.2.2-.2.2.1.2.2l-.2.2zm.3-.7l.7-2.5L42 34l-2.2.7zm2.8-.2c-.1 0-.2-.1-.2-.2s.1-.2.2-.2.2.1.2.2-.1.2-.2.2zm1.7 1.2l-.8-1c.4.1.9.1 1.5 0h.1l.6.6-1.4.4zM3.5 40l-.1-.1 1.2-2c.2-.3.1-.6-.2-.8l-1.5-.9c-.3-.2-.6-.1-.8.2l-1.2 2-.1-.1c-.3-.1-.5-.1-.7.1v.6c.2-.2.6-.3 1-.1L3 40c.4.2.5.7.3 1l-1.8 3c-.2.3-.7.4-1.1.2L.1 44v.3l.1.1c-.1.2-.1.3 0 .4.1.1.3 0 .4-.2l.1.1c.3.2.8-.1 1.1-.6l1.7-2.9c.4-.6.4-1 0-1.2zm-1-.6l-.7-.4c.1-.2.4-.3.6-.1.2.1.2.3.1.5zm.5.3l-.3-.2c.2-.3.1-.8-.2-1-.3-.2-.8-.1-1 .2l-.3-.2 1-1.7c.1-.2.4-.3.6-.2l1.2.7c.2.1.2.4.1.6L3 39.7zm-1.7 4.2L3.1 41c.1-.2 0-.6-.3-.7L.9 39.2c-.3-.2-.6-.2-.8.1l-.1.1v4.4l.5.3c.3.1.7.1.8-.2zm47.3-1l1.4.9v-4.4l-1.7 2.8c-.1.2 0 .5.3.7zm-.7-1.1c-.3.5-.3 1.1 0 1.3h.1c-.1.2-.1.3 0 .4.1.1.3 0 .4-.2l1.6 1V44l-1.5-.9c-.4-.2-.5-.7-.3-1l1.8-2.9.1-.1v-.6c-.1.1-.2.3-.4.5l-1.8 2.8zM36.8 19l-2.3 1.4c-1.2-.9-2.2-2-2.6-3.2-1.6 3-.7 5.1.4 6.3.1-1.1 1.5-2.5 3.5-2.2-.3-.2-.5-.3-.7-.5l2.3-1.5-.6-.3zm-2.6.7l1.9-1.2-.5-.4-1.7 1.1.3.5zm-4.1-2.5l1.7-.5-.5-.9-1.2 1.4zm4.8.5l-.5-.4-1.2.8.3.5 1.4-.9zm-2.5-.8l.3.5.9-.6-.5-.4-.7.5zm-.4-.6l.4-.3-1-.7.6 1zm5.6 3.8c-.2.4-3.2 2.3-4.8 3 .4.3 1.1.3 1.6 0 .6-.3 2.2-1.2 2.6-1.6.4-.4.6-1 .6-1.4zm-27.9-.5c.1-.2.5-.6.6-.8.3-.4.7-.9.5-1.8-.2-1.1-1-1.3-1.5-1.5-.2-.1-.7-.1-.9-.2-.2-.1-.4-.2-.5-.3-.1-.1-.3-.1-.5-.2s-.6-.4-.8-.6c-.4-.3-.9-.7-1.8-.5-1.1.2-1.3 1-1.5 1.5-.1.2-.1.7-.2.9-.1.1-.2.3-.3.4-.1.1-.1.3-.2.5s-.4.6-.6.8c-.3.4-.7.9-.5 1.8.2 1.1 1 1.3 1.5 1.5.2.1.7.1.9.2.1.1.3.2.4.3.1.1.3.1.5.2s.6.4.8.6c.4.3.9.7 1.8.5 1.1-.2 1.3-1 1.5-1.5.1-.2.1-.7.2-.9.1-.1.2-.3.3-.4.1-.2.2-.3.3-.5zm-6.6 1.3c-.6-.2-1.2-.4-1.4-1.4-.2-.8.1-1.2.4-1.6.1-.2.2-.2.3-.4-.2 1.2.2 2.5 1.1 3.4-.1.1-.2.1-.4 0zm.3-5.2c0-.1 0-.2.1-.4.2-.6.4-1.2 1.4-1.4.8-.2 1.2.1 1.6.4.2.1.2.2.4.3-1.3-.2-2.6.2-3.5 1.1zm1.1 1.8c.5-.9 1.6-1.3 2.5-.8.9.5 1.2 1.6.8 2.5-.5.9-1.6 1.2-2.5.8-.9-.5-1.3-1.6-.8-2.5zm4.2 3.8c-.2.6-.4 1.2-1.4 1.4-.8.2-1.2-.1-1.6-.4-.2-.1-.2-.2-.4-.3 1.2.2 2.5-.2 3.4-1.1.1.1.1.2 0 .4zm0-5.7c.1 0 .2 0 .4.1.6.2 1.2.4 1.4 1.4.2.8-.1 1.2-.4 1.6-.1.2-.2.2-.3.4.3-1.3-.2-2.6-1.1-3.5zm6.1 11.9l3-.7-1.2-.5c-.2-.1-.4-.3-.4-.5l-.5-1.9c0-.2 0-.5.1-.7l1.8-3-3.7.9-1.8-1.7-.3.3 1.8 1.4-1.6.4 3 1.8c.2.1.4.4.4.6l.5 1.9c.1.2 0 .5-.1.7l-1 1zm.4-4.6c-.1 0-.3 0-.5-.2l-1.4-.9c-.2-.1-.2-.2 0-.3l.5-.1.3.2c-.1.1-.1.3-.1.4.1.3.4.5.7.4.1 0 .2-.1.2-.1l.3.3.1-.1-.3-.3c.1-.1.1-.3.1-.5-.1-.3-.4-.5-.7-.4-.1 0-.2.1-.2.1l-.2-.1 2.1-.5c.2-.1.3.1.2.2l-.9 1.4c.1.3-.1.5-.2.5zM28 .1h-.5.5zm5.1.6c.1-.1.1-.2.1-.2 0-.1-.2 0-.3 0-.1.1-.1.2-.1.2.1.1.2.1.3 0zm.1-.4c.1-.1.1-.2.1-.2h-.4c-.1.1-.1.2-.1.2.1.1.3.1.4 0zm-4 2.4c.2-.1.7-.6 2.4-1.4.2-.1.4 0 .7-.1.3-.1.5-.5.3-.8 0-.1-.1-.2-.2-.2l-.1-.1H31l.1.1c.6.4.2 1 0 1.1-.2.1-.6.3-1.1.4-.6.1-.7-.2-1-.3-.2-.1-.4-.1-.6 0-.4.2-.5.7-.4 1 .3.4.8.5 1.2.3zm3.1 46.1c.1 0 .3 0 .5-.1.3-.1.5-.4.4-.6-.1-.2-.4-.3-.8-.2-.3.1-.5.4-.4.6-.2-.1-.5-.1-.7 0-.4.2-.6.7-.4 1.1 0 .1.1.2.2.2h1.3c-.1-.1 0-.2 0-.4s0-.3-.1-.5c.1.1 0 0 0-.1zm-1.8-3.7c.1-.2.1-.4 0-.5-.1-.1-.3 0-.5.2-.1.2-.1.4 0 .5.2 0 .4-.1.5-.2zm2.8 4.3c-.1-.1-.2-.1-.4 0s-.2.3-.2.4c.1.1.2.1.4 0s.3-.3.2-.4zm-.3.5s0 .1 0 0h.3v-.1s-.2 0-.3.1zm.1-.6c.2-.1.3-.4.2-.5-.1-.1-.3-.1-.5 0s-.3.4-.2.5c.1.1.3.1.5 0zM29.9 45c.1-.2.1-.3 0-.4-.1-.1-.2 0-.3.2-.1.2-.1.3 0 .4 0 0 .2-.1.3-.2zm-1 0c.1-.1.1-.2 0-.3-.1 0-.2 0-.2.1-.1.1-.1.2 0 .3.1.1.2 0 .2-.1zm2.5.3c.1-.3 0-.7-.2-.7-.2-.1-.5.1-.6.5-.1.2-.1.3 0 .5-.1 0-.1-.1-.2-.1-.2-.1-.4-.1-.5 0-.2.1-.4.1-.5 0l-.2-.2c-.3-.1-.7 0-.8.4-.1.3 0 .6-.1.7-.6 1.8-1.1 2.4-1.2 2.6-.1.4 0 .8.4 1h.5c.2-.1.4-.2.5-.4.1-.2.1-.4 0-.6-.1-.2-.4-.3-.4-.9 0-.5.2-.8.3-1.1.1-.2.6-.7 1.1-.1.1.1.2.2.3.2.4.2.9-.1 1-.5.1-.2.1-.5 0-.7.2 0 .5-.2.6-.6zm-2.3-.5c-.1.1-.1.3 0 .3s.2 0 .3-.1c.1-.1.1-.3 0-.3-.1-.1-.2-.1-.3.1zM12.9 5.4c.3.4.7 1.6.8 2 .2 1.5 1.5 2.6.8 3.3.1 0 .1-.1.2-.1.8-.7-.6-1.8-.8-3.3-.1-.4-.5-1.6-.8-2-.6-.8-1.3-.8-1.9-.3.6-.4 1.2-.3 1.7.4zm-2.5 2.4c-.1-.1-.3-.2-.4-.3-.7-.5-1.4-.3-1.8.4.4-.5 1-.6 1.8-.2.4.3 1.3 1.2 1.5 1.6.8 1.3 2.4 1.9 2 2.8.1-.1.1-.1.1-.2.5-.9-1.2-1.5-2-2.8 0 0-.1-.1-.1-.2.2.1.5.2.7.2-.1-.1-.2-.2-.3-.4-1.7-.2-1.3-2.1-.8-2.8-.1.6.6 1.8 2.5 2.2-.1-.2-.1-.3-.2-.5-.6 0-2.1-.9-2-2l.3-.3-.2-.2-.2.1c-.7.8-1.1 1.8-.9 2.6zm1.3 2.2l-.4-.4c-.5.2-2.2 0-2.6-1.1l.2-.5-.3-.1-.1.2c-1.1 1.9 0 3.8 2.1 3.4l-.4-.4c-1.7.4-2-1.5-1.7-2.3.1.6 1.2 1.5 3.2 1.2zM0 26v1.2l.1-1.1L0 26zm3.1-.8l-.2.2c.2.3.3.6.4.9l.3-.1c-.1-.3-.3-.7-.5-1zm-.4 4.5c.3-.3.5-.6.6-.9l-.3-.1c-.1.3-.3.6-.6.8l.3.2zm1-2.7h-.3c0 .3 0 .7-.1 1l.3.1c.1-.4.1-.7.1-1.1zM.6 25.9l-.3-1.6-.2 1.8.5-.2zM3 27.5l-1.8-.2.2.4 1.6-.2zm-1.4-3.3c.3.1.6.3.8.6l.2-.2c-.3-.3-.6-.5-.9-.6l-.1.2zm-.6-.5c-.3-.1-.6-.1-.9-.1v.3c.3 0 .6 0 .8.1l.1-.3zm-.9 3.5V28.4L2.4 30 .1 27.2zm2.8-2.3L.1 27.2l1.1.1 1.7-2.4zM.3 30.5H.1v.3h.3l-.1-.3zM0 27.2zm1.1 3.5c.3-.1.7-.3 1-.5l-.2-.2c-.3.2-.6.3-.9.4l.1.3zm48-7c-.4.1-.7.3-1 .5l.2.2c.3-.2.6-.3.9-.4l-.1-.3zm-2.5-.6l-.2.2.8.9.2-.2-.4-.5.7.2.2-.2-.9-.8-.2.2.4.5-.6-.3zm3.3.7h.2v-.3h-.2v.3zm-3.4 2.5c-.1.4-.1.7-.1 1.1h.3c0-.3 0-.7.1-1l-.3-.1zm1.1-1.4l-.2-.2c-.3.3-.5.6-.6.9l.3.1c.1-.3.3-.6.5-.8zm-.4 2l1.8.2-.2-.4-1.6.2zm2.3 1.6l.3 1.6.2-1.8-.5.2zm-2.2 1l2.8-2.3-1.1-.1-1.7 2.4zm2.7-1.2v-.8.8zm-1.4 1.9c-.3-.1-.6-.3-.8-.6l-.2.2c.3.3.6.5.9.6l.1-.2zm.6.5c.3.1.6.1.8.1v-.3c-.3 0-.5 0-.8-.1v.3zm.8-3.6v-1.2l-2.3-1.6 2.3 2.8zm-3.2 1l-.3.1c.1.3.3.7.5 1l.2-.2c-.1-.3-.3-.6-.4-.9zm-11.6-1.8c-1.2-.8-2.8-.6-3.6.6-.8 1.2-1.3 6.3-1.3 6.3s4.7-2.1 5.6-3.3c.7-1.2.4-2.8-.7-3.6zm-.1 3.1c-.6.8-1.7 1-2.5.4s-1-1.7-.4-2.5 1.7-1 2.5-.4.9 1.7.4 2.5zM10.5 44.8v-.3-.1c1.4-.4 3.6-1.3 3.9-1.7-.2-.6-.7-1.3-1.1-1.7-.8.2-2.4 1.6-3.2 2.6-.1-.1-.2-.1-.4-.1.3-1.4 1.3-2.7 2.3-3.1-.6-.2-1.5-.2-2.5.3-.6.4-1.1 1.7-.5 3-.2.1-.3.3-.4.5-.4-.2-.7-.5-.9-.8-.2 1.2.4 2.1.5 2.3.2-.2.3-.3.5-.4.1.1.2.2.4.3-.1.4-.1.9 0 1.1.4.3 1.3.7 1.9.7-.5-.3-1-.9-1.3-1.6.2 0 .3-.1.5-.2.8.7 2.2 1.2 3 1.2.4-.3 1-.8 1.3-1.9-1 0-2.8.1-4-.1zm9.4 5.2h.7c.2-.4.6-.8 1.1-.9-.9-.4-1.7.4-1.8.9zm1 0h.8c-.3-.1-.6-.1-.8 0zm-.8-1.4c-.7.5-.9 1-.9 1.4h.5c0-.4 0-.9.4-1.4zm-.6-47.2c-.3 0-1.7 1.1-.6 2.3-.2-1.7 1.4-2 1.4-2L20 2l.7.4-.3.3.3.2c-.8.1-1.1.9-1 1-.4-.5 0-1.2.5-1.4-.9-.2-1.5.9-1 1.5-.2-.2-.9-.2-1.3.8.4-.5 1-.5 1.1-.4-.4 0-1 .8-.5 1.5 0-.5.3-1.1.7-1-.2.4-.4.9.5 1.5-.3-.8-.1-1.3.2-1.4-.1.1-.1.2-.2.3h.7l-.1.3h1.4l-.1.3h.9l-.1.3h.6c-.3.5-.6 1.2-.4 1.6.6-.6 1.8-1.8 2.9-3-.6-.3-1.5.2-1.8.5-.1-.1-.5-1.1-.5-1.1l-.3.3-.3-1.3-.3.3-.3-1-.2.3-.2-.9-.4.1-.2-.9s-.2.1-.3.2c0-.4.7-.9 1.8-.7-.3-.3-.6-.5-.8-.6h-.8c-.2.1-.3.2-.5.3 0-.1 0-.2.1-.3h-.7v.2s-.1-.1-.1-.2h-.5c0 .3.1.4.2.5-.9-.4-2.1.6-1.6 1.7.2-.6 1-1.3 1.7-.8zm3.9 4.3l-.1.1-.3-.4.4.3zm-.6-.3l-.1.2-.4-.4.5.2zm-1.7-2.3l.2.1-.3.3.9.4-.3.3 1.1.7-.3.2-.2-.2-.2.3-.4-.6-.1.3-.5-.5-.1.2-.4-.5-.2.3c-.1 0-.1-.8.8-1.3zm3.6 39.1l-.7 2.2c-.1.2.2.5.5.7h.1l1-3.1h-.1c-.3-.1-.7 0-.8.2zm.4-1.3l-3.5-1.2.2-.6-1.5-.5-.2.6-.3-.1c-.5-.2-1 .1-1.1.6l-1 3.1c-.2.5.1 1 .6 1.1l5.2 1.8c.4.1.7 0 1-.3-.6-.2-.9-.7-.7-1.1l.7-2.2c.1-.4.7-.6 1.2-.4 0-.3-.3-.7-.6-.8zm-2.1 2c-.4 1.1-1.6 1.7-2.7 1.3-1.1-.4-1.7-1.6-1.3-2.7.4-1.1 1.6-1.7 2.7-1.3 1.1.4 1.7 1.6 1.3 2.7zm-2.2-1.8c-.3-.1-.6.1-.7.3-.1.3.1.6.3.7.3.1.6-.1.7-.3.1-.3 0-.6-.3-.7zm.8-.6c-.9-.3-1.9.2-2.3 1.1-.3.9.2 1.9 1.1 2.2.9.3 1.9-.2 2.3-1.1.3-.9-.2-1.9-1.1-2.2zm.8 2.2c-.3.8-1.1 1.2-1.8.9-.8-.3-1.2-1.1-.9-1.8.3-.8 1.1-1.2 1.8-.9.7.2 1.1 1 .9 1.8zM33.8 38c.6 0 1.1-.3 1.4-.6-.1-.4-.1-.8-.3-1.1-.4.4-1 .6-1.6.8.6-.4 1-.9 1.3-1.4-.3-.5-.7-.9-1.1-1.3L32 36.9c.4.3.7.8.7 1.4.1.5-.1 1.1-.4 1.5-.3.3-.7.6-1.1.6-.4 0-.9-.1-1.2-.4-.3-.2-.5-.5-.5-.9s.1-.7.3-1c.2-.2.4-.4.7-.4.3 0 .6.1.8.2.2.2.3.4.3.6 0 .2 0 .5-.2.7-.1.2-.3.2-.5.3-.2 0-.4 0-.5-.2l.1-.1c.1.1.3.1.4.1.1 0 .3-.1.4-.2.2-.3.2-.7-.1-1-.2-.2-.4-.2-.7-.2-.2 0-.5.1-.6.3-.2.2-.3.5-.3.8 0 .3.2.6.4.8.3.2.7.4 1.1.3.4 0 .7-.2 1-.5.3-.4.5-.9.4-1.4-.1-.5-.3-.9-.7-1.3-.5-.4-1.1-.6-1.7-.5-.6.1-1.2.4-1.6.9-1 1.3-.8 3.1.4 4.2.8.6 1.7.9 2.7.8.6-.1 1.2-.3 1.7-.6-.2-.2-.4-.6-.5-.9.2.4.5.6.7.7.2-.2.4-.3.5-.5.1-.1.1-.2.2-.2-.4-.1-.7-.5-.9-.8.4.3.8.4 1.1.5.2-.3.3-.6.4-1-.4 0-.8-.2-1.2-.4.5.1 1 .1 1.3 0 .1-.3.1-.7.1-1.1-.1.2-.7.1-1.2 0zm11.4 2.9c-.6-.8-1.8-1-2.6-.4-.1.1-.3.2-.4.4l-1.1-.7-.4-.2-1.1.8.2.3.9-.7.5.3-2.7 1.9-.2-.1.4-.3s-.1-.1-.5-.1c-.4.1-.8.5-.8.5l.2.3.3-.2s.1 0 .3.1c.1 0 .3.2.3.3v.2c-.2.1-.5.2-.7.3-.8.6-1 1.8-.4 2.6s1.8 1 2.6.4 1-1.8.4-2.6c-.4-.5-1-.8-1.5-.8v-.3l2.1.7s.1 0 .2.1c.1 0 .2 0 .2-.1v-.2l.2-2.7.3.2c-.3.6-.3 1.4.2 1.9.6.8 1.8 1 2.6.4.9-.3 1.1-1.4.5-2.3zM39.1 45l-.1-1c.4 0 .9.2 1.1.6.5.6.3 1.5-.3 2s-1.5.3-2-.3-.3-1.5.3-2c.1-.1.3-.2.5-.2l.1 1c0 .2.1.4.2.4.1-.1.2-.3.2-.5zm2.1-1.8c0 .3-.2.4-.5.3l-1.4-.5c-.2-.1-.3-.3-.1-.4l1.7-1.3c.2-.2.4-.1.3.2v1.7zm3.3 0c-.6.5-1.5.3-2-.3-.3-.4-.4-1-.1-1.4l.9.6c.2.1.4.1.5 0 .1-.1-.1-.3-.3-.4l-.9-.6.2-.2c.6-.5 1.5-.3 2 .3s.4 1.5-.3 2zm.9-24.5c-.1-.1-.3-.1-.4 0-.1.1-.1.3 0 .4.1.1.3.1.4 0 .1-.1.1-.3 0-.4zm-.4-.9l-.9.9-1.2 1.1h1l-.5.5.3.3h-1.6l-.8.7h1.1l-.5.5.3.3h-1.8l-.8.7c-.5-.1-1-.1-1.3.2l2.8 2.9c.3-.4.3-.8.2-1.3l.8-.8h-1.2v-.1l.6-.6-.2-.2h1.6l.7-.7h-1l.4-.4-.4-.4h1.7l.7-.7h-.9l.4-.4-.4-.4h1.3l.2.2.9-.9-.4-1.2-1.1-.2zm-4.6 5.5c-.2-.2-.5-.3-.7-.4h1.1l-.4.4zm4.3-4.3l-.2-.2.6-.6.2.2c-.2 0-.3 0-.5.1-.1.2-.1.3-.1.5zm.3-.3c.1-.1.4-.1.5 0 .1.1.1.4 0 .5-.1.1-.4.1-.5 0-.2-.2-.2-.4 0-.5zm.4 1l-.2-.2c.2 0 .3 0 .5-.1.1-.1.2-.3.2-.5l.2.2-.7.6zM42 10.6l-2.4 2.3 1.3 1.4c.9-1 1.4-2.4 1.1-3.7zm-.8 3.9l1.3 1.4c1-1.6.9-3.7-.3-5.2.1.9 0 1.8-.4 2.7-.1.4-.3.8-.6 1.1zm-4.6 1.4c.1.1.2.1.2 0l2.8-2.8-.3-.3-2.8 2.8s0 .1.1.3zm2.5-5.4c.9-.3 1.8-.4 2.7-.2-1.4-1.3-3.5-1.5-5.1-.6l1.4 1.4c.2-.2.6-.4 1-.6zm-.9.8l1.3 1.4 2.4-2.2c-1.2-.3-2.6.1-3.7.8zm-35.4.8l.1-.4-.1-.5c.2-.3.3-.5.2-.5-.1 0-.2 0-.4.1l-.1-.3c.3-.4.5-.7.4-.7-.1-.1-.3 0-.5.2v-.2c1.2-1.2 1.8-2.3 1.5-2.6-.2-.2-.5.1-1 .2-.4 0-1.1.6-1.8 1.2l-.8.1c.2-.3.3-.5.2-.6-.1 0-.2 0-.5.2v3.5c.3-.3.7-.5 1-.8l1.8 1.1zm46.7-3.4l-.1.1-.5.1c.1-.2.1-.3.1-.4-.1-.1-.6.2-1 .6l-1.5.3-.9.5 3.5.4c-.6.6-1.1 1.1-1.4 1.5l-1.1-.2-.5.4.6.4-.5.2-.5.4 1.7-.3c.1.1.2.1.4.1l.4.5.2-.2v-.6c.4-.2.9-.5 1.5-.9V8.1c-.1.3-.2.4-.4.6zM2.9.8c.3.3.9.2 1.2.2.3 0 .4.1.5.4 0 .5.1 1.2.5 1.5.3.2.6.3.9.3-.6.4-1.1.7-1.5.9-.2.1-.5 0-.8-.2-.3-.3-.3-.8 0-1.1l-.5-.5c-.6.6-.6 1.5 0 2.1.4.4 1.1.6 1.6.3.4-.2 1.1-.6 1.8-1l.1.2.7-.5v-.2C9.4 2 10.8 1 10.8 1l-.4-.6s-1.2.8-3.1 2.1c.2-.6 0-1.2-.6-1.8-.1-.2-.3-.4-.6-.6h-.4l.6.6c.6.5.9 1.2.6 1.7-.3.4-1 .7-1.6.3-.4-.3-.3-1.3-.4-1.6 0-.2-.2-.3-.4-.4C4.2.7 3.3.7 3 .6 2.9.4 2.7.3 2.7.1h-.4c.1.3.3.5.6.7zm.7 48c-.7.2-.9 1.1-.6.9.4-.3 1.1-.7 1.8-.3.1.1-.5-.7-1.2-.6zm-.6-.4l-.4-.4-.6.6.4.3c-.2.3-.2.7-.1 1h.4c-.2-.4-.1-.8.1-1.1.3-.4 1-.5 1.6-.1.3.2.8.7 1.3 1.1h.4c-.5-.5-1.1-1.1-1.6-1.4-.4-.2-1-.2-1.5 0z"/></svg>