<svg width="396" height="59" viewBox="0 0 396 59" fill="none" xmlns="http://www.w3.org/2000/svg" xmlns:xlink="http://www.w3.org/1999/xlink">
<mask id="mask0" mask-type="alpha" maskUnits="userSpaceOnUse" x="0" y="0" width="464" height="59">
<rect y="0.882812" width="464" height="58" fill="white"/>
</mask>
<g mask="url(#mask0)">
<rect width="413" height="498" transform="translate(-18 -46)" fill="white"/>
<path opacity="0.168418" fill-rule="evenodd" clip-rule="evenodd" d="M-18 -46.1172L396 -46.1172L396 451.883L-18 451.883L-18 -46.1172Z" fill="#DAAA35"/>
<mask id="mask1" mask-type="alpha" maskUnits="userSpaceOnUse" x="-18" y="-47" width="414" height="499">
<path fill-rule="evenodd" clip-rule="evenodd" d="M-18 -46.1172L396 -46.1172L396 451.883L-18 451.883L-18 -46.1172Z" fill="white"/>
</mask>
<g mask="url(#mask1)">
<mask id="mask2" mask-type="alpha" maskUnits="userSpaceOnUse" x="-18" y="-47" width="214" height="499">
<rect x="-18" y="-46.1172" width="214" height="498" fill="white"/>
</mask>
<g mask="url(#mask2)">
<rect opacity="0.04" x="-130.421" y="-54.6641" width="348.988" height="266.732" fill="url(#pattern0)"/>
</g>
<g opacity="0.5189">
<path fill-rule="evenodd" clip-rule="evenodd" d="M177.435 39.4073V92.7715H190.185V38.791C185.513 38.6592 181.361 37.7502 177.435 39.4073M149.971 39.3149V92.9341C154.676 93.2628 158.781 93.8465 162.656 92.6089V38.7911C158.114 38.6028 154.191 37.9146 149.971 39.3149M122.759 39.1686V92.9864C127.293 93.2193 131.209 93.8543 135.36 92.5328V38.8793C130.765 38.5061 126.663 37.9875 122.759 39.1686M238.765 68.847C238.715 82.6973 233.011 87.5315 218.61 85.6468V11.9137C232.965 10.0358 238.725 14.9299 238.766 28.7272C238.806 42.0999 238.813 55.4743 238.765 68.847M204.447 97.0673C204.396 108.91 199.61 113.771 187.924 113.811C166.511 113.882 145.095 113.915 123.682 113.792C114.329 113.739 108.613 108.848 108.524 100.072C108.258 74.1717 108.428 48.2668 108.428 21.3108C127.574 28.04 143.908 24.8115 158.838 13.481C160.424 12.2758 162.07 11.1888 164.238 11.194C177.309 11.2248 190.381 11.2077 204.466 11.2077V44.9253C204.466 62.3054 204.523 79.6855 204.447 97.0673M126.723 -23.1111C146.713 -23.1317 166.701 -23.1436 186.691 -23.1094C200.632 -23.082 205.403 -17.57 203.736 -2.64806H157.664C148.281 4.29849 139.258 11.8373 126.397 11.1937C112.2 10.4833 108.279 6.94667 108.402 -6.39352C108.514 -18.6347 113.379 -23.0991 126.723 -23.1111M252.438 24.9391C252.191 9.37692 241.048 -1.74133 225.448 -2.58354C223.247 -2.70508 220.886 -1.93305 218.722 -3.54216C218.565 -4.28509 218.282 -5.0828 218.241 -5.89078C217.167 -27.3826 207.379 -36.7908 186.012 -36.8045C165.454 -36.8182 144.896 -36.8712 124.34 -36.7891C106.097 -36.7155 94.7614 -25.628 94.7099 -7.63854C94.6121 27.6899 94.6138 63.0201 94.7099 98.3503C94.7596 116.36 106.069 127.432 124.316 127.503C144.874 127.583 165.43 127.53 185.988 127.52C205.635 127.509 214.562 120.253 218.771 100.35C220.763 100.261 222.168 100.182 223.573 100.137C241.425 99.564 252.346 88.6769 252.471 71.0948C252.582 55.709 252.678 40.3197 252.438 24.9391" fill="white"/>
</g>
</g>
<g filter="url(#filter0_d)">
<path fill-rule="evenodd" clip-rule="evenodd" d="M38 71.8828C56.2254 71.8828 71 57.1082 71 38.8828C71 20.6574 56.2254 5.88281 38 5.88281C19.7746 5.88281 5 20.6574 5 38.8828C5 57.1082 19.7746 71.8828 38 71.8828Z" fill="white"/>
</g>
<path fill-rule="evenodd" clip-rule="evenodd" d="M37.9999 62.3021C50.9341 62.3021 61.4193 51.8169 61.4193 38.8827C61.4193 25.9486 50.9341 15.4634 37.9999 15.4634C25.0658 15.4634 14.5806 25.9486 14.5806 38.8827C14.5806 51.8169 25.0658 62.3021 37.9999 62.3021Z" fill="#AE914B"/>
<path fill-rule="evenodd" clip-rule="evenodd" d="M40.706 38.1462V46.2581H42.6413V38.0525C41.9321 38.0324 41.302 37.8943 40.706 38.1462M36.5376 38.1321V46.2828C37.2518 46.3328 37.8748 46.4215 38.463 46.2334V38.0525C37.7735 38.0239 37.1781 37.9193 36.5376 38.1321M32.4074 38.11V46.2909C33.0956 46.3263 33.69 46.4228 34.3201 46.2219V38.066C33.6225 38.0093 33 37.9304 32.4074 38.11M50.0146 42.6213C50.0071 44.7267 49.1413 45.4616 46.9556 45.1751V33.9668C49.1343 33.6814 50.0086 34.4253 50.0149 36.5227C50.0209 38.5555 50.0219 40.5885 50.0146 42.6213M44.806 46.911C44.7982 48.7112 44.0718 49.4502 42.2982 49.4562C39.048 49.4671 35.7976 49.4721 32.5475 49.4533C31.128 49.4452 30.2605 48.7018 30.2469 47.3677C30.2066 43.4306 30.2323 39.4928 30.2323 35.3952C33.1383 36.4181 35.6175 35.9273 37.8834 34.205C38.1243 34.0218 38.3739 33.8565 38.703 33.8573C40.687 33.862 42.671 33.8594 44.8089 33.8594V38.9849C44.8089 41.6268 44.8175 44.2688 44.806 46.911M33.0091 28.6426C36.0432 28.6395 39.0769 28.6377 42.111 28.6429C44.227 28.647 44.951 29.4849 44.698 31.7532H37.7053C36.2811 32.8092 34.9116 33.9552 32.9597 33.8573C30.8049 33.7493 30.2097 33.2117 30.2284 31.1839C30.2454 29.3231 30.9837 28.6444 33.0091 28.6426M52.09 35.9468C52.0525 33.5812 50.3612 31.8911 47.9934 31.7631C47.6593 31.7446 47.3011 31.862 46.9725 31.6174C46.9488 31.5044 46.9059 31.3832 46.8996 31.2603C46.7366 27.9933 45.251 26.5632 42.0079 26.5611C38.8876 26.559 35.7674 26.551 32.6475 26.5635C29.8785 26.5747 28.158 28.2601 28.1502 30.9947C28.1354 36.365 28.1356 41.7356 28.1502 47.1061C28.1577 49.8439 29.8743 51.5269 32.6438 51.5376C35.764 51.5498 38.884 51.5418 42.0042 51.5402C44.9862 51.5386 46.3411 50.4356 46.9801 47.4101C47.2823 47.3965 47.4956 47.3846 47.7088 47.3778C50.4184 47.2906 52.0759 45.6357 52.0949 42.963C52.1119 40.6242 52.1264 38.2849 52.09 35.9468" fill="white"/>
</g>
<defs>
<pattern id="pattern0" patternContentUnits="objectBoundingBox" width="1" height="1">
<use xlink:href="#image0" transform="scale(0.000763942 0.000998004)"/>
</pattern>
<filter id="filter0_d" x="3" y="4.88281" width="70" height="70" filterUnits="userSpaceOnUse" color-interpolation-filters="sRGB">
<feFlood flood-opacity="0" result="BackgroundImageFix"/>
<feColorMatrix in="SourceAlpha" type="matrix" values="0 0 0 0 0 0 0 0 0 0 0 0 0 0 0 0 0 0 127 0"/>
<feOffset dy="1"/>
<feGaussianBlur stdDeviation="1"/>
<feColorMatrix type="matrix" values="0 0 0 0 0 0 0 0 0 0 0 0 0 0 0 0 0 0 0.06 0"/>
<feBlend mode="normal" in2="BackgroundImageFix" result="effect1_dropShadow"/>
<feBlend mode="normal" in="SourceGraphic" in2="effect1_dropShadow" result="shape"/>
</filter>
</defs>
</svg>
