<svg width="172" height="172" viewBox="0 0 172 172" fill="none" xmlns="http://www.w3.org/2000/svg">
	<g clip-path="url(#clip0_13783_68989)">
		<path fill-rule="evenodd" clip-rule="evenodd" d="M14.5136 15H132.474C135.518 15 137.986 17.5908 137.986 20.7867C137.986 21.4345 137.883 22.0777 137.68 22.6894L134.116 33.4362C133.344 35.7617 131.256 37.3201 128.91 37.3201H18.0489C15.6982 37.3201 13.6061 35.755 12.8388 33.4224L9.30346 22.6757C8.30971 19.6549 9.83677 16.3603 12.7142 15.317C13.2931 15.1071 13.9012 15 14.5136 15ZM33.9406 56.2587H113.044C116.088 56.2587 118.556 58.8495 118.556 62.0454C118.556 62.7392 118.437 63.4274 118.205 64.077L114.367 74.8238C113.56 77.0824 111.503 78.5788 109.205 78.5788H37.5748C35.2415 78.5788 33.1609 77.0365 32.3803 74.7281L28.7461 63.9814C27.7277 60.9696 29.2277 57.6614 32.0965 56.5922C32.6886 56.3715 33.3123 56.2587 33.9406 56.2587ZM58.5018 97.647H88.4876C91.5319 97.647 93.9997 100.238 93.9997 103.434C93.9997 103.997 93.9214 104.557 93.7674 105.096L90.6975 115.843C89.9982 118.291 87.8521 119.967 85.4177 119.967H61.9045C59.5302 119.967 57.4227 118.371 56.6738 116.006L53.2711 105.259C52.3109 102.226 53.8743 98.9504 56.7631 97.9424C57.3239 97.7467 57.9109 97.647 58.5018 97.647Z" fill="#DFE0E3"/>
		<g filter="url(#filter0_d_13783_68989)">
			<ellipse cx="125.57" cy="117.509" rx="38.4297" ry="38.4906" fill="white"/>
		</g>
		<path fill-rule="evenodd" clip-rule="evenodd" d="M110.463 130.279C111.132 130.296 111.839 130.315 112.602 130.34C113.083 130.315 113.603 130.292 114.153 130.267C115.613 130.201 117.277 130.126 118.935 129.993C120.296 129.884 121.654 129.646 123.002 129.397C123.818 129.244 124.622 128.99 125.322 128.506C125.495 128.384 125.591 128.262 125.566 128.045C125.524 127.713 125.489 127.38 125.454 127.046C125.387 126.393 125.319 125.74 125.194 125.097C124.996 124.066 124.541 123.123 123.595 122.553C123.129 122.274 122.612 122.076 122.099 121.88C121.998 121.841 121.897 121.803 121.796 121.763C120.428 121.227 119.058 120.7 117.686 120.172C117.337 120.038 116.988 119.903 116.638 119.769C116.264 119.626 115.987 119.375 115.83 119.015C115.662 118.624 115.514 118.222 115.372 117.818C115.25 117.474 115.321 117.184 115.616 116.933C115.748 116.821 115.856 116.676 115.963 116.532C115.989 116.496 116.016 116.46 116.043 116.425C117.116 115.055 117.742 113.511 117.948 111.783C118.108 110.397 118.124 109.032 117.793 107.67C117.358 105.885 116.394 104.509 114.593 103.831C113.355 103.365 112.075 103.289 110.766 103.53C108.637 103.916 107.253 105.129 106.599 107.139C106.07 108.758 106.086 110.423 106.327 112.083C106.607 114.003 107.439 115.661 108.759 117.096C108.866 117.212 108.937 117.407 108.939 117.567C108.967 118.567 108.283 119.528 107.2 119.95C107.089 119.993 106.979 120.036 106.869 120.079C105.168 120.744 103.466 121.409 101.741 122.012C100.34 122.507 99.4447 123.429 99.1217 124.823C98.9678 125.482 98.8898 126.158 98.8118 126.835C98.7712 127.187 98.7305 127.539 98.6792 127.889C98.6258 128.265 98.7835 128.506 99.109 128.656C99.1868 128.692 99.2644 128.728 99.342 128.765C99.6374 128.903 99.9332 129.042 100.243 129.138C102.298 129.801 104.44 129.99 106.579 130.13C107.817 130.209 109.056 130.242 110.463 130.279ZM142.18 114.083C142.551 114.254 142.875 114.484 143.144 114.769C143.414 115.056 143.635 115.393 143.796 115.764C143.956 116.139 144.035 116.516 144.035 116.912C144.035 117.308 143.954 117.698 143.796 118.075C143.635 118.452 143.417 118.788 143.147 119.068C142.877 119.344 142.553 119.572 142.18 119.74C141.447 120.074 140.635 120.077 139.892 119.74C139.521 119.572 139.205 119.35 138.93 119.068C138.66 118.786 138.439 118.452 138.281 118.075C138.121 117.698 138.039 117.31 138.039 116.912C138.039 116.513 138.118 116.139 138.281 115.764C138.442 115.393 138.66 115.056 138.933 114.769C139.208 114.479 139.521 114.254 139.894 114.083C140.265 113.915 140.638 113.828 141.039 113.828C141.434 113.828 141.818 113.917 142.18 114.083ZM131.774 107.545C130.676 108.594 129.806 109.426 129.149 110.923C128.533 112.322 127.812 114.679 127.812 116.716C127.812 118.528 128.147 120.258 128.809 121.864C129.354 123.182 130.288 125.035 131.65 126.388C132.871 127.603 134.366 128.577 136.102 129.282C137.788 129.966 139.973 130.34 142.248 130.34C144.063 130.34 145.91 130.117 147.318 129.732C148.784 129.32 150.212 128.694 151.555 127.861C151.678 127.783 151.72 127.623 151.648 127.495L149.973 124.493C149.896 124.355 149.718 124.311 149.585 124.397C148.964 124.804 148.384 125.138 147.863 125.39C147.362 125.637 146.82 125.84 146.25 125.992C145.686 126.139 145.082 126.239 144.449 126.291C143.815 126.345 143.065 126.372 142.215 126.372C140.791 126.372 139.428 126.152 138.167 125.718C136.908 125.287 135.797 124.655 134.857 123.836C133.922 123.02 133.173 122 132.623 120.806C132.075 119.605 131.795 118.23 131.795 116.716C131.795 115.376 132.053 114.099 132.557 112.916C133.067 111.742 133.778 110.714 134.674 109.865C135.571 109.014 136.652 108.333 137.886 107.839C139.121 107.346 140.488 107.093 141.954 107.093C143.221 107.093 144.425 107.286 145.528 107.666C146.621 108.043 147.588 108.585 148.397 109.277C149.204 109.963 149.844 110.806 150.304 111.785C150.765 112.767 150.999 113.866 150.999 115.056C150.999 115.778 150.915 116.478 150.746 117.139C150.577 117.804 150.34 118.406 150.037 118.924C149.74 119.437 149.392 119.846 148.997 120.147C148.615 120.437 148.215 120.581 147.773 120.581C147.724 120.581 147.662 120.568 147.591 120.478C147.523 120.4 147.49 120.288 147.49 120.136C147.49 119.618 147.523 119.106 147.588 118.604L148.566 110.5C148.585 110.338 148.459 110.196 148.296 110.196H145.418C145.211 110.196 145.033 110.345 144.997 110.549C144.934 110.904 144.468 111.041 144.175 110.83C143.994 110.699 143.796 110.579 143.583 110.47C142.848 110.093 141.978 109.903 141.006 109.903C140.129 109.903 139.249 110.074 138.404 110.413C137.554 110.752 136.794 111.232 136.145 111.851C135.492 112.461 134.955 113.212 134.546 114.08C134.138 114.948 133.933 115.911 133.933 116.944C133.933 118.002 134.151 118.984 134.582 119.862C135.004 120.728 135.543 121.487 136.186 122.116C136.829 122.743 137.549 123.239 138.325 123.586C139.742 124.218 141.022 124.256 142.521 123.828C142.75 123.763 142.984 123.667 143.221 123.54C143.951 123.152 144.888 123.234 145.583 123.681C146.092 124.012 146.675 124.18 147.316 124.18C148.443 124.18 149.473 123.953 150.378 123.502C151.285 123.049 152.07 122.404 152.713 121.587C153.35 120.774 153.851 119.792 154.197 118.666C154.541 117.552 154.712 116.304 154.712 114.959C154.712 113.364 154.38 111.845 153.726 110.435C153.07 109.033 152.157 107.793 151.015 106.752C149.874 105.715 148.509 104.886 146.956 104.292C145.411 103.698 143.717 103.396 141.921 103.396C139.976 103.396 138.142 103.741 136.472 104.424C134.802 105.105 133.328 106.054 132.086 107.245L131.797 107.522L131.774 107.545Z" fill="#A8ADB4"/>
	</g>
	<defs>
		<filter id="filter0_d_13783_68989" x="75.6006" y="69.7486" width="99.9394" height="100.061" filterUnits="userSpaceOnUse" color-interpolation-filters="sRGB">
			<feFlood flood-opacity="0" result="BackgroundImageFix"/>
			<feColorMatrix in="SourceAlpha" type="matrix" values="0 0 0 0 0 0 0 0 0 0 0 0 0 0 0 0 0 0 127 0" result="hardAlpha"/>
			<feOffset dy="2.27"/>
			<feGaussianBlur stdDeviation="5.77"/>
			<feComposite in2="hardAlpha" operator="out"/>
			<feColorMatrix type="matrix" values="0 0 0 0 0.392157 0 0 0 0 0.427451 0 0 0 0 0.482353 0 0 0 0.16 0"/>
			<feBlend mode="normal" in2="BackgroundImageFix" result="effect1_dropShadow_13783_68989"/>
			<feBlend mode="normal" in="SourceGraphic" in2="effect1_dropShadow_13783_68989" result="shape"/>
		</filter>
		<clipPath id="clip0_13783_68989">
			<rect width="172" height="172" fill="white"/>
		</clipPath>
	</defs>
</svg>
