<svg width="172" height="172" viewBox="0 0 172 172" fill="none" xmlns="http://www.w3.org/2000/svg">
	<path d="M44.1025 78.8729C44.1025 74.2843 47.8223 70.5645 52.411 70.5645H132.82C137.408 70.5645 141.128 74.2843 141.128 78.8729V126.205C141.128 130.793 137.408 134.513 132.82 134.513H52.411C47.8223 134.513 44.1025 130.793 44.1025 126.205V78.8729Z" fill="white"/>
	<path fill-rule="evenodd" clip-rule="evenodd" d="M132.82 72.7696H52.411C49.0402 72.7696 46.3077 75.5021 46.3077 78.8729V126.205C46.3077 129.576 49.0402 132.308 52.411 132.308H132.82C136.191 132.308 138.923 129.576 138.923 126.205V78.8729C138.923 75.5021 136.191 72.7696 132.82 72.7696ZM52.411 70.5645C47.8223 70.5645 44.1025 74.2843 44.1025 78.8729V126.205C44.1025 130.793 47.8223 134.513 52.411 134.513H132.82C137.408 134.513 141.128 130.793 141.128 126.205V78.8729C141.128 74.2843 137.408 70.5645 132.82 70.5645H52.411Z" fill="#EBECEE"/>
	<g filter="url(#filter0_d_13785_68773)">
		<path d="M28.667 52.411C28.667 47.8223 32.3868 44.1025 36.9754 44.1025H117.384C121.973 44.1025 125.693 47.8223 125.693 52.411V99.7428C125.693 104.331 121.973 108.051 117.384 108.051H36.9754C32.3868 108.051 28.667 104.331 28.667 99.7428V52.411Z" fill="#F1FBD0"/>
	</g>
	<path fill-rule="evenodd" clip-rule="evenodd" d="M117.384 47.4259H36.9754C34.2222 47.4259 31.9904 49.6578 31.9904 52.411V99.7428C31.9904 102.496 34.2222 104.728 36.9754 104.728H117.384C120.137 104.728 122.369 102.496 122.369 99.7428V52.411C122.369 49.6578 120.137 47.4259 117.384 47.4259ZM36.9754 44.1025C32.3868 44.1025 28.667 47.8223 28.667 52.411V99.7428C28.667 104.331 32.3868 108.051 36.9754 108.051H117.384C121.973 108.051 125.693 104.331 125.693 99.7428V52.411C125.693 47.8223 121.973 44.1025 117.384 44.1025H36.9754Z" fill="#BBED21"/>
	<path fill-rule="evenodd" clip-rule="evenodd" d="M95.5379 72.2526C95.9759 72.4559 96.3591 72.7302 96.678 73.0691C96.9968 73.4111 97.2577 73.8113 97.4477 74.2534C97.6377 74.6987 97.7311 75.1473 97.7311 75.6184C97.7311 76.0896 97.6345 76.5543 97.4477 77.0028C97.2577 77.4514 97 77.8515 96.6812 78.1839C96.3624 78.5131 95.9791 78.7842 95.5379 78.9842C94.6715 79.3812 93.7118 79.3844 92.8326 78.9842C92.3946 78.7842 92.021 78.5195 91.6957 78.1839C91.3769 77.8483 91.116 77.4514 90.9292 77.0028C90.7392 76.5543 90.6426 76.0928 90.6426 75.6184C90.6426 75.1441 90.736 74.6987 90.9292 74.2534C91.1192 73.8113 91.3769 73.4111 91.6989 73.0691C92.0242 72.7238 92.3946 72.4559 92.8358 72.2526C93.2738 72.0525 93.715 71.9493 94.1884 71.9493C94.6554 71.9493 95.1095 72.0558 95.5379 72.2526ZM83.236 64.4735C81.9385 65.7224 80.9107 66.7117 80.1337 68.4931C79.4059 70.1583 78.5524 72.9626 78.5524 75.3861C78.5524 77.5417 78.9485 79.6006 79.7311 81.511C80.3753 83.0793 81.4799 85.2834 83.0902 86.8937C84.5331 88.3394 86.3012 89.4979 88.3527 90.337C90.3463 91.1502 92.9292 91.5955 95.6184 91.5955C97.7633 91.5955 99.9469 91.3309 101.612 90.8726C103.345 90.3821 105.032 89.6367 106.62 88.646C106.766 88.5536 106.815 88.363 106.731 88.2117L104.75 84.6379C104.659 84.4742 104.448 84.4223 104.291 84.5251C103.557 85.0091 102.871 85.406 102.256 85.7062C101.663 85.9998 101.023 86.2418 100.349 86.4226C99.6828 86.5968 98.9678 86.7162 98.2206 86.7775C97.4702 86.8421 96.5846 86.8743 95.5798 86.8743C93.8954 86.8743 92.2851 86.613 90.7939 86.0966C89.306 85.5835 87.992 84.8316 86.8809 83.8571C85.7762 82.8857 84.8906 81.6724 84.24 80.2525C83.5927 78.8229 83.2609 77.1868 83.2609 75.3861C83.2609 73.7919 83.5669 72.272 84.1627 70.865C84.765 69.4677 85.6055 68.2446 86.6651 67.2346C87.7247 66.2213 89.0033 65.4113 90.4622 64.824C91.9211 64.2367 93.5379 63.9365 95.2706 63.9365C96.7682 63.9365 98.1917 64.1657 99.496 64.6174C100.787 65.066 101.931 65.7114 102.887 66.5343C103.841 67.3507 104.597 68.3544 105.142 69.5193C105.686 70.6875 105.963 71.9945 105.963 73.4111C105.963 74.2695 105.863 75.1021 105.663 75.8895C105.464 76.6801 105.184 77.3965 104.826 78.0129C104.475 78.6228 104.063 79.1101 103.596 79.4683C103.145 79.8136 102.672 79.9846 102.15 79.9846C102.092 79.9846 102.018 79.9685 101.934 79.862C101.853 79.7684 101.815 79.6361 101.815 79.4554C101.815 78.839 101.853 78.2291 101.931 77.6321L103.087 67.9897C103.109 67.7972 102.959 67.6283 102.765 67.6283H99.3671C99.1212 67.6283 98.9109 67.8047 98.868 68.0468C98.7935 68.4683 98.239 68.6311 97.8924 68.3799C97.6789 68.2252 97.4469 68.083 97.1965 67.9542C96.3269 67.5056 95.2996 67.2798 94.1498 67.2798C93.1128 67.2798 92.0725 67.4831 91.0741 67.8864C90.0693 68.2898 89.1707 68.861 88.4042 69.5968C87.6313 70.3229 86.9968 71.2167 86.5137 72.2494C86.0307 73.282 85.7891 74.4276 85.7891 75.6571C85.7891 76.9157 86.0468 78.0839 86.5556 79.1294C87.0548 80.1589 87.6925 81.0624 88.4526 81.8111C89.2126 82.5566 90.0629 83.1471 90.9807 83.5602C92.6554 84.3121 94.1691 84.3573 95.9405 83.8474C96.2113 83.77 96.4875 83.6562 96.7678 83.5062C97.6302 83.0448 98.7397 83.141 99.5604 83.6731C100.163 84.0668 100.852 84.2669 101.609 84.2669C102.942 84.2669 104.159 83.9958 105.229 83.4601C106.301 82.9212 107.229 82.1532 107.989 81.1818C108.742 80.2137 109.335 79.0455 109.744 77.7063C110.15 76.38 110.353 74.8956 110.353 73.295C110.353 71.3975 109.96 69.5903 109.187 67.9123C108.411 66.2439 107.332 64.7691 105.982 63.5299C104.633 62.2972 103.019 61.3097 101.184 60.603C99.3575 59.8963 97.3543 59.5381 95.2319 59.5381C92.9324 59.5381 90.7649 59.9479 88.7907 60.7611C86.8165 61.5711 85.0741 62.7006 83.6055 64.1173L83.2641 64.4464L83.236 64.4735ZM58.0447 91.5226C58.8359 91.5436 59.6717 91.5657 60.5731 91.5955C61.1416 91.566 61.7569 91.5382 62.4061 91.5088C64.1331 91.4306 66.0996 91.3416 68.0597 91.1825C69.6682 91.0531 71.2738 90.7695 72.8673 90.4737C73.8325 90.2918 74.7826 89.9898 75.6094 89.4135C75.8139 89.2686 75.9281 89.1238 75.898 88.8649C75.8482 88.47 75.8074 88.0734 75.7665 87.6767C75.6864 86.8999 75.6064 86.1227 75.4591 85.3576C75.2246 84.131 74.6864 83.0092 73.5679 82.3312C73.0177 81.999 72.4067 81.7636 71.7997 81.5298C71.6802 81.4838 71.5609 81.4378 71.4422 81.3912C69.8245 80.7524 68.2049 80.1255 66.5834 79.4978C66.1706 79.338 65.7577 79.1782 65.3447 79.0181C64.9027 78.8486 64.575 78.5496 64.3885 78.1212C64.1901 77.6558 64.0157 77.1781 63.8473 76.6974C63.703 76.2875 63.7872 75.9423 64.136 75.6433C64.2923 75.5102 64.4198 75.3377 64.5461 75.1667C64.5777 75.1239 64.6092 75.0812 64.6411 75.0393C65.9099 73.4089 66.6496 71.5721 66.8931 69.5164C67.0825 67.8676 67.1006 66.2434 66.7097 64.6223C66.1956 62.4988 65.056 60.8623 62.9273 60.0548C61.4631 59.5001 59.9507 59.4107 58.4023 59.6973C55.8857 60.1565 54.2501 61.5989 53.4774 63.9905C52.852 65.9167 52.87 67.8984 53.1557 69.8739C53.4864 72.1576 54.4696 74.1301 56.03 75.8375C56.1563 75.9762 56.2405 76.2073 56.2435 76.3984C56.2766 77.588 55.4678 78.7314 54.1869 79.2338C54.0566 79.285 53.9262 79.3363 53.7958 79.3876C51.7854 80.1781 49.7733 80.9692 47.7346 81.687C46.078 82.2757 45.0196 83.3729 44.6378 85.0309C44.4558 85.8154 44.3637 86.6199 44.2714 87.4251C44.2234 87.8441 44.1753 88.2633 44.1146 88.68C44.0515 89.1269 44.2379 89.4135 44.6228 89.5922C44.7147 89.6346 44.8065 89.6778 44.8982 89.7211C45.2474 89.8858 45.5971 90.0508 45.9637 90.1655C48.3931 90.9545 50.9247 91.1794 53.4533 91.3459C54.9162 91.4398 56.3818 91.4786 58.0447 91.5226Z" fill="#9DCF00"/>
	<defs>
		<filter id="filter0_d_13785_68773" x="24.667" y="42.1025" width="105.025" height="71.9482" filterUnits="userSpaceOnUse" color-interpolation-filters="sRGB">
			<feFlood flood-opacity="0" result="BackgroundImageFix"/>
			<feColorMatrix in="SourceAlpha" type="matrix" values="0 0 0 0 0 0 0 0 0 0 0 0 0 0 0 0 0 0 127 0" result="hardAlpha"/>
			<feOffset dy="2"/>
			<feGaussianBlur stdDeviation="2"/>
			<feComposite in2="hardAlpha" operator="out"/>
			<feColorMatrix type="matrix" values="0 0 0 0 0 0 0 0 0 0.332159 0 0 0 0 0.433333 0 0 0 0.1 0"/>
			<feBlend mode="normal" in2="BackgroundImageFix" result="effect1_dropShadow_13785_68773"/>
			<feBlend mode="normal" in="SourceGraphic" in2="effect1_dropShadow_13785_68773" result="shape"/>
		</filter>
	</defs>
</svg>
