<svg width="344" height="172" viewBox="0 0 344 172" fill="none" xmlns="http://www.w3.org/2000/svg">
	<path fill-rule="evenodd" clip-rule="evenodd" d="M220.718 141.382H123.439C122.607 141.382 121.782 141.352 120.965 141.294C98.9797 140.812 82.7306 123.492 82.7295 102.197C82.7359 91.8172 87.383 82.5308 94.1426 74.4071C97.3738 70.5239 99.7139 67.9642 104.439 65.6291C104.355 64.5729 104.312 63.5056 104.312 62.4287C104.319 51.477 108.841 40.9766 116.884 33.2373C124.927 25.4981 135.832 21.154 147.199 21.1607C161.761 21.1778 174.461 28.7685 182.187 39.476C187.274 38.2236 193.564 37.8234 197.679 37.8255C215.856 37.8466 230.785 51.1958 232.515 68.2672C249.932 71.9252 261.703 86.2981 261.687 104.171C261.67 124.767 244.329 141.452 222.951 141.444C222.201 141.444 221.457 141.423 220.718 141.382Z" fill="url(#paint0_linear_629_107039)"/>
	<g filter="url(#filter0_d_629_107039)">
		<path d="M98.1996 48C98.1996 44.134 101.334 41 105.2 41H211.2C215.066 41 218.2 44.134 218.2 48V70C218.2 73.866 215.066 77 211.2 77H105.2C101.334 77 98.1996 73.866 98.1996 70V48Z" fill="white"/>
	</g>
	<circle opacity="0.3" cx="113.806" cy="57" r="10" fill="#B095DC"/>
	<path opacity="0.7" d="M110.055 52.7625C110.007 52.6312 109.821 52.6312 109.772 52.7625L109.236 54.2121C109.083 54.6248 108.758 54.9502 108.345 55.1029L106.896 55.6393C106.764 55.6879 106.764 55.8735 106.896 55.9221L108.345 56.4585C108.758 56.6112 109.083 56.9366 109.236 57.3493L109.772 58.7989C109.821 58.9301 110.007 58.9301 110.055 58.7989L110.592 57.3493C110.744 56.9366 111.07 56.6112 111.482 56.4585L112.932 55.9221C113.063 55.8735 113.063 55.6879 112.932 55.6393L111.482 55.1029C111.07 54.9502 110.744 54.6248 110.592 54.2121L110.055 52.7625Z" fill="#B094DC"/>
	<path opacity="0.7" d="M119.841 61.183C120.105 61.0872 120.251 60.8101 120.197 60.5349L120.01 59.5838C120.01 59.1868 119.481 58.7335 118.441 58.4693C118.088 58.3727 117.753 58.223 117.447 58.0255C117.38 57.988 117.39 57.6413 117.39 57.6413L117.055 57.5913C117.055 57.5631 117.026 57.1475 117.026 57.1475C117.427 57.0152 117.386 56.2347 117.386 56.2347C117.641 56.3734 117.807 55.7558 117.807 55.7558C118.108 54.8977 117.657 54.9496 117.657 54.9496C117.736 54.4258 117.736 53.8934 117.657 53.3696C117.456 51.6319 114.435 52.1036 114.793 52.6712C113.91 52.5115 114.112 54.4835 114.112 54.4835L114.303 54.9941C114.038 55.1631 114.09 55.3571 114.148 55.5737C114.172 55.6641 114.198 55.7583 114.202 55.8564C114.22 56.3485 114.527 56.2465 114.527 56.2465C114.546 57.0587 114.954 57.1644 114.954 57.1644C115.03 57.6745 114.983 57.5877 114.983 57.5877L114.62 57.6308C114.624 57.7468 114.615 57.8629 114.591 57.9766C114.38 58.0689 114.251 58.1423 114.123 58.215C113.992 58.2895 113.862 58.3631 113.648 58.4555C112.828 58.8081 111.937 59.2667 111.779 59.8841C111.733 60.0646 111.687 60.3072 111.646 60.5603C111.603 60.8254 111.751 61.085 112.003 61.1772C113.104 61.5794 114.347 61.8178 115.665 61.8461H116.195C117.507 61.8179 118.744 61.5817 119.841 61.183Z" fill="#B094DC"/>
	<rect opacity="0.3" x="130.2" y="49" width="40" height="4" rx="2" fill="#B095DC"/>
	<rect x="130.2" y="58" width="76" height="4" rx="2" fill="#525C69" fill-opacity="0.1"/>
	<rect x="130.2" y="66.5" width="65" height="4" rx="2" fill="#525C69" fill-opacity="0.1"/>
	<g filter="url(#filter1_d_629_107039)">
		<path d="M112.208 90.585C112.208 86.719 115.343 83.585 119.208 83.585H225.208C229.074 83.585 232.208 86.719 232.208 90.585V112.585C232.208 116.451 229.074 119.585 225.208 119.585H119.208C115.343 119.585 112.208 116.451 112.208 112.585V90.585Z" fill="white"/>
	</g>
	<circle opacity="0.3" cx="128.208" cy="99.585" r="10" fill="#B095DC"/>
	<path opacity="0.7" d="M124.053 95.3446C124.004 95.2133 123.818 95.2133 123.77 95.3446L123.233 96.7953C123.08 97.2083 122.754 97.5339 122.341 97.6867L120.891 98.2235C120.759 98.2721 120.759 98.4579 120.891 98.5065L122.341 99.0433C122.754 99.1961 123.08 99.5217 123.233 99.9347L123.77 101.385C123.818 101.517 124.004 101.517 124.053 101.385L124.589 99.9347C124.742 99.5217 125.068 99.1961 125.481 99.0433L126.932 98.5065C127.063 98.4579 127.063 98.2721 126.932 98.2235L125.481 97.6867C125.068 97.5339 124.742 97.2083 124.589 96.7953L124.053 95.3446Z" fill="#B094DC"/>
	<path opacity="0.7" d="M133.846 103.771C134.109 103.675 134.256 103.398 134.202 103.123L134.015 102.171C134.015 101.774 133.486 101.32 132.444 101.055C132.091 100.959 131.756 100.809 131.45 100.611C131.383 100.574 131.393 100.227 131.393 100.227L131.058 100.177C131.058 100.149 131.029 99.7327 131.029 99.7327C131.43 99.6003 131.389 98.8192 131.389 98.8192C131.644 98.958 131.81 98.34 131.81 98.34C132.111 97.4813 131.66 97.5332 131.66 97.5332C131.739 97.009 131.739 96.4762 131.66 95.952C131.459 94.2131 128.436 94.6852 128.794 95.2531C127.911 95.0933 128.112 97.0667 128.112 97.0667L128.304 97.5777C128.038 97.7469 128.09 97.941 128.149 98.1578C128.173 98.2482 128.198 98.3425 128.202 98.4406C128.221 98.9331 128.528 98.831 128.528 98.831C128.547 99.6438 128.955 99.7496 128.955 99.7496C129.032 100.26 128.984 100.173 128.984 100.173L128.62 100.216C128.625 100.332 128.616 100.449 128.592 100.562C128.381 100.655 128.251 100.728 128.123 100.801C127.992 100.875 127.863 100.949 127.648 101.042C126.828 101.395 125.936 101.853 125.778 102.471C125.731 102.652 125.686 102.895 125.645 103.148C125.602 103.413 125.75 103.673 126.002 103.765C127.104 104.168 128.347 104.406 129.666 104.435H130.197C131.51 104.407 132.748 104.17 133.846 103.771Z" fill="#B094DC"/>
	<rect opacity="0.3" x="144.208" y="91.585" width="40" height="4" rx="2" fill="#B095DC"/>
	<rect x="144.208" y="100.585" width="76" height="4" rx="2" fill="#525C69" fill-opacity="0.1"/>
	<rect x="144.208" y="109.085" width="65" height="4" rx="2" fill="#525C69" fill-opacity="0.1"/>
	<circle cx="219.806" cy="111" r="22" fill="#B095DC"/>
	<path fill-rule="evenodd" clip-rule="evenodd" d="M221.809 102.988C221.809 101.882 220.912 100.985 219.806 100.985C218.699 100.985 217.803 101.882 217.803 102.988V108.997H211.794C210.687 108.997 209.791 109.894 209.791 111C209.791 112.106 210.687 113.003 211.794 113.003H217.803V119.012C217.803 120.118 218.699 121.015 219.806 121.015C220.912 121.015 221.809 120.118 221.809 119.012V113.003H227.818C228.924 113.003 229.821 112.106 229.821 111C229.821 109.894 228.924 108.997 227.818 108.997H221.809V102.988Z" fill="white"/>
	<defs>
		<filter id="filter0_d_629_107039" x="91.1252" y="36.2837" width="134.149" height="50.1488" filterUnits="userSpaceOnUse" color-interpolation-filters="sRGB">
			<feFlood flood-opacity="0" result="BackgroundImageFix"/>
			<feColorMatrix in="SourceAlpha" type="matrix" values="0 0 0 0 0 0 0 0 0 0 0 0 0 0 0 0 0 0 127 0" result="hardAlpha"/>
			<feOffset dy="2.35813"/>
			<feGaussianBlur stdDeviation="3.5372"/>
			<feComposite in2="hardAlpha" operator="out"/>
			<feColorMatrix type="matrix" values="0 0 0 0 0.423529 0 0 0 0 0.423529 0 0 0 0 0.423529 0 0 0 0.12 0"/>
			<feBlend mode="normal" in2="BackgroundImageFix" result="effect1_dropShadow_629_107039"/>
			<feBlend mode="normal" in="SourceGraphic" in2="effect1_dropShadow_629_107039" result="shape"/>
		</filter>
		<filter id="filter1_d_629_107039" x="105.134" y="78.8687" width="134.149" height="50.1488" filterUnits="userSpaceOnUse" color-interpolation-filters="sRGB">
			<feFlood flood-opacity="0" result="BackgroundImageFix"/>
			<feColorMatrix in="SourceAlpha" type="matrix" values="0 0 0 0 0 0 0 0 0 0 0 0 0 0 0 0 0 0 127 0" result="hardAlpha"/>
			<feOffset dy="2.35813"/>
			<feGaussianBlur stdDeviation="3.5372"/>
			<feComposite in2="hardAlpha" operator="out"/>
			<feColorMatrix type="matrix" values="0 0 0 0 0.423529 0 0 0 0 0.423529 0 0 0 0 0.423529 0 0 0 0.12 0"/>
			<feBlend mode="normal" in2="BackgroundImageFix" result="effect1_dropShadow_629_107039"/>
			<feBlend mode="normal" in="SourceGraphic" in2="effect1_dropShadow_629_107039" result="shape"/>
		</filter>
		<linearGradient id="paint0_linear_629_107039" x1="172.208" y1="21.1606" x2="172.208" y2="141.444" gradientUnits="userSpaceOnUse">
			<stop stop-color="#F7F3FD" stop-opacity="0.4"/>
			<stop offset="1" stop-color="#F7F3FD" stop-opacity="0.8"/>
		</linearGradient>
	</defs>
</svg>
