<svg width="30" height="30" viewBox="0 0 30 30" fill="none" xmlns="http://www.w3.org/2000/svg">
	<path fill-rule="evenodd" clip-rule="evenodd" d="M25.1829 15.2064C24.3644 16.3761 20.1721 21.9919 15.1233 21.9919C10.0746 21.9919 5.88227 16.3761 5.06381 15.2064C4.97287 15.0764 4.97287 14.9126 5.06381 14.7826C5.88227 13.6129 10.0746 7.99707 15.1233 7.99707C20.1721 7.99707 24.3644 13.6129 25.1829 14.7826C25.2738 14.9126 25.2738 15.0764 25.1829 15.2064ZM18.6926 14.9945C18.6926 16.9658 17.0945 18.5639 15.1232 18.5639C13.1519 18.5639 11.5538 16.9658 11.5538 14.9945C11.5538 13.0231 13.1519 11.4251 15.1232 11.4251C17.0945 11.4251 18.6926 13.0231 18.6926 14.9945Z" fill="#6a737f"/>
</svg>
