<svg width="19" height="15" viewBox="0 0 19 15" fill="none" xmlns="http://www.w3.org/2000/svg">
<path fill-rule="evenodd" clip-rule="evenodd" d="M2.99682 10.9934C4.10098 10.9934 4.99609 11.8885 4.99609 12.9927C4.99609 14.0968 4.10098 14.9919 2.99682 14.9919C1.89266 14.9919 0.997559 14.0968 0.997559 12.9927C0.997559 11.8885 1.89266 10.9934 2.99682 10.9934ZM18.9909 11.9931V13.9923H6.99535V11.9931H18.9909ZM2.99682 5.99526C4.10098 5.99526 4.99609 6.89036 4.99609 7.99453C4.99609 9.09869 4.10098 9.99379 2.99682 9.99379C1.89266 9.99379 0.997559 9.09869 0.997559 7.99453C0.997559 6.89036 1.89266 5.99526 2.99682 5.99526ZM18.9909 6.99489V8.99416H6.99535V6.99489H18.9909ZM2.99734 0.99707C4.1015 0.99707 4.9966 1.89217 4.9966 2.99633C4.9966 4.1005 4.1015 4.9956 2.99734 4.9956C1.89318 4.9956 0.998076 4.1005 0.998076 2.99633C0.998076 1.89217 1.89318 0.99707 2.99734 0.99707ZM18.9909 1.99673V3.996H6.99535V1.99673H18.9909Z" fill="#6a737f"/>
</svg>
