<svg width="22" height="22" viewBox="0 0 22 22" fill="none" xmlns="http://www.w3.org/2000/svg">
	<path fill-rule="evenodd" clip-rule="evenodd" d="M3.41235 4.75122C3.41235 4.47508 3.63621 4.25122 3.91235 4.25122H15.7605C16.0367 4.25122 16.2605 4.47508 16.2605 4.75122V5.83789C16.2605 5.90014 16.2491 5.95973 16.2283 6.01471C15.5563 5.81665 14.8449 5.71037 14.1088 5.71037C13.0401 5.71037 12.0237 5.93433 11.104 6.33789H3.91235C3.63621 6.33789 3.41235 6.11403 3.41235 5.83789V4.75122ZM6.62371 13.1954C6.62371 13.0559 6.62753 12.9173 6.63506 12.7796H3.91235C3.63621 12.7796 3.41235 13.0035 3.41235 13.2796V14.3663C3.41235 14.6424 3.63621 14.8663 3.91235 14.8663H6.8109C6.6884 14.329 6.62371 13.7698 6.62371 13.1954ZM7.08532 10.6016C7.36666 9.84009 7.76832 9.13685 8.26723 8.51497H3.91235C3.63621 8.51497 3.41235 8.73883 3.41235 9.01497V10.1016C3.41235 10.3778 3.63621 10.6016 3.91235 10.6016H7.08532ZM19.8128 13.1941C19.8128 16.3444 17.259 18.8983 14.1087 18.8983C10.9584 18.8983 8.40456 16.3444 8.40456 13.1941C8.40456 10.0438 10.9584 7.48999 14.1087 7.48999C17.259 7.48999 19.8128 10.0438 19.8128 13.1941ZM12.8976 8.92312C12.9491 8.78418 13.1456 8.78418 13.197 8.92312L13.7648 10.4576C13.9264 10.8944 14.2709 11.2389 14.7077 11.4005L16.2422 11.9683C16.3811 12.0197 16.3811 12.2163 16.2422 12.2677L14.7077 12.8355C14.2709 12.9971 13.9264 13.3416 13.7648 13.7784L13.197 15.3129C13.1456 15.4518 12.9491 15.4518 12.8976 15.3129L12.3298 13.7784C12.1682 13.3416 11.8238 12.9971 11.3869 12.8355L9.85244 12.2677C9.71349 12.2163 9.71349 12.0197 9.85244 11.9683L11.3869 11.4005C11.8238 11.2389 12.1682 10.8944 12.3298 10.4576L12.8976 8.92312ZM16.2838 13.3573C16.3135 13.2771 16.4271 13.2771 16.4568 13.3573L16.7849 14.244C16.8783 14.4964 17.0773 14.6954 17.3297 14.7888L18.2163 15.1169C18.2966 15.1466 18.2966 15.2601 18.2163 15.2898L17.3297 15.6179C17.0773 15.7113 16.8783 15.9103 16.7849 16.1627L16.4568 17.0494C16.4271 17.1297 16.3135 17.1297 16.2838 17.0494L15.9558 16.1627C15.8624 15.9103 15.6633 15.7113 15.4109 15.6179L14.5243 15.2898C14.444 15.2601 14.444 15.1466 14.5243 15.1169L15.4109 14.7888C15.6633 14.6954 15.8624 14.4964 15.9558 14.244L16.2838 13.3573Z" fill="#A77BDE"/>
	<path d="M3.41235 4.77503C3.41235 4.48574 3.64687 4.25122 3.93616 4.25122H15.7367C16.026 4.25122 16.2605 4.48574 16.2605 4.77503V5.81408C16.2605 5.88429 16.2467 5.95127 16.2216 6.01246C15.5516 5.81568 14.8425 5.71011 14.1088 5.71011C13.0399 5.71011 12.0233 5.93417 11.1035 6.33789H3.93616C3.64687 6.33789 3.41235 6.10337 3.41235 5.81408V4.77503Z" fill="#A77BDE"/>
	<path d="M6.62376 13.1952C6.62376 13.0557 6.62757 12.9172 6.6351 12.7796H3.93616C3.64687 12.7796 3.41235 13.0141 3.41235 13.3034V14.3425C3.41235 14.6318 3.64687 14.8663 3.93616 14.8663H6.811C6.68847 14.329 6.62376 13.7696 6.62376 13.1952Z" fill="#A77BDE"/>
	<path d="M7.08527 10.6016C7.36658 9.8401 7.7682 9.13686 8.26707 8.51497H3.93616C3.64687 8.51497 3.41235 8.74949 3.41235 9.03878V10.0778C3.41235 10.3671 3.64687 10.6016 3.93616 10.6016H7.08527Z" fill="#A77BDE"/>
	<path fill-rule="evenodd" clip-rule="evenodd" d="M19.8129 13.1944C19.8129 16.3447 17.259 18.8985 14.1087 18.8985C10.9584 18.8985 8.4046 16.3447 8.4046 13.1944C8.4046 10.0441 10.9584 7.49025 14.1087 7.49025C17.259 7.49025 19.8129 10.0441 19.8129 13.1944ZM12.8977 8.92338C12.9491 8.78443 13.1456 8.78443 13.197 8.92338L13.7648 10.4578C13.9265 10.8947 14.2709 11.2391 14.7078 11.4008L16.2422 11.9686C16.3812 12.02 16.3812 12.2165 16.2422 12.2679L14.7078 12.8357C14.2709 12.9974 13.9265 13.3418 13.7648 13.7787L13.197 15.3131C13.1456 15.4521 12.9491 15.4521 12.8977 15.3131L12.3299 13.7787C12.1682 13.3418 11.8238 12.9974 11.3869 12.8357L9.85247 12.2679C9.71353 12.2165 9.71353 12.02 9.85247 11.9686L11.3869 11.4008C11.8238 11.2391 12.1682 10.8947 12.3299 10.4579L12.8977 8.92338ZM16.2839 13.3576C16.3136 13.2773 16.4271 13.2773 16.4568 13.3576L16.7849 14.2442C16.8783 14.4966 17.0773 14.6956 17.3297 14.789L18.2164 15.1171C18.2966 15.1468 18.2966 15.2604 18.2164 15.2901L17.3297 15.6182C17.0773 15.7116 16.8783 15.9106 16.7849 16.163L16.4568 17.0496C16.4271 17.1299 16.3136 17.1299 16.2839 17.0496L15.9558 16.163C15.8624 15.9106 15.6634 15.7116 15.411 15.6182L14.5243 15.2901C14.4441 15.2604 14.4441 15.1468 14.5243 15.1171L15.411 14.789C15.6634 14.6956 15.8624 14.4966 15.9558 14.2442L16.2839 13.3576Z" fill="#A77BDE"/>
</svg>
