<svg width="30" height="30" viewBox="0 0 30 30" fill="none" xmlns="http://www.w3.org/2000/svg">
	<path fill-rule="evenodd" clip-rule="evenodd" d="M18.4334 18.8223C18.5439 18.8223 18.6334 18.9118 18.6334 19.0223L18.6334 20.9781C18.6334 21.0885 18.5438 21.1781 18.4334 21.1781H6.56719C6.45673 21.1781 6.36719 21.0885 6.36719 20.9781L6.36724 19.0223C6.36724 18.9118 6.45678 18.8223 6.56724 18.8223H18.4334ZM23.4334 13.8223C23.5439 13.8223 23.6334 13.9118 23.6334 14.0223L23.6334 15.9781C23.6334 16.0885 23.5438 16.1781 23.4334 16.1781H6.56719C6.45673 16.1781 6.36719 16.0885 6.36719 15.9781L6.36724 14.0223C6.36724 13.9118 6.45678 13.8223 6.56724 13.8223H23.4334ZM23.4334 8.82227C23.5439 8.82227 23.6334 8.91181 23.6334 9.02227L23.6334 10.9781C23.6334 11.0885 23.5438 11.1781 23.4334 11.1781H6.56719C6.45673 11.1781 6.36719 11.0885 6.36719 10.9781L6.36724 9.02226C6.36724 8.91181 6.45678 8.82227 6.56724 8.82227H23.4334Z" fill="#A77BDE"/>
</svg>
