<svg width="66" height="67" viewBox="0 0 66 67" fill="none" xmlns="http://www.w3.org/2000/svg">
<g filter="url(#filter0_d)">
<path fill-rule="evenodd" clip-rule="evenodd" d="M33 63.5C50.1208 63.5 64 49.6208 64 32.5C64 15.3792 50.1208 1.5 33 1.5C15.8792 1.5 2 15.3792 2 32.5C2 49.6208 15.8792 63.5 33 63.5Z" fill="white"/>
</g>
<path fill-rule="evenodd" clip-rule="evenodd" d="M33 54.5C45.1503 54.5 55 44.6503 55 32.5C55 20.3497 45.1503 10.5 33 10.5C20.8497 10.5 11 20.3497 11 32.5C11 44.6503 20.8497 54.5 33 54.5Z" fill="#FF7B9D"/>
<path fill-rule="evenodd" clip-rule="evenodd" d="M32.7632 26.1944C31.6112 26.1875 30.7084 27.0631 30.7432 28.1538C30.776 29.1859 31.678 30.0974 32.6837 30.1143C33.8049 30.1331 34.6609 29.268 34.6622 28.1145C34.6636 27.0147 33.8587 26.2007 32.7632 26.1944ZM34.0052 45.6267C33.8391 42.6235 37.5798 40.6887 40.6694 42.0099C39.6598 45.3446 37.8291 46.338 34.0052 45.6267ZM32.8647 33.7983C31.4065 35.7472 29.8739 36.1894 28.3594 35.1542C26.7819 34.076 26.6804 32.3991 28.0623 30.2362C26.0219 29.7862 24.8621 28.344 25.2141 26.6938C25.6578 24.6121 27.0103 23.9081 29.6196 24.4004C30.0126 21.6751 30.8616 20.6064 32.6414 20.5951C34.3356 20.5844 35.3468 21.7496 35.7268 24.1858C36.825 24.0056 37.9303 23.692 38.9779 24.4265C39.6197 24.8766 40.0029 25.4781 40.194 26.1963C40.6508 27.9128 39.6243 29.3646 37.5395 30.0106C38.9338 31.9141 38.9353 33.7768 37.5431 34.8726C36.1113 35.9995 34.5426 35.6578 32.8647 33.7983ZM25.0742 41.8728C26.6831 41.4069 28.2352 41.4171 29.7176 42.2399C31.0252 42.9657 31.6051 44.1442 31.6956 45.6597C27.8693 46.0633 26.1418 45.6125 25.0742 41.8728ZM38.3009 39.643C36.6169 39.685 35.1836 40.3672 33.7963 41.3037V37.244C38.0125 38.31 41.3667 35.4023 40.4865 30.8312C43.5012 28.0653 42.7051 22.492 37.2704 21.754C35.3565 17.6041 29.8595 17.4034 27.8238 22.0667C23.2021 22.8005 21.582 27.8319 25.1143 31.2939C24.6197 35.1378 27.1079 38.2731 31.6269 37.5434V41.0703C28.6701 39.0812 25.7059 39.3892 22.5789 40.5058C22.8653 42.0192 23.2699 43.3917 24.0332 44.669C25.2701 46.7384 27.0169 47.7871 29.4684 47.7272C31.912 47.6678 34.3581 47.7135 36.8033 47.7287C38.2255 47.7375 39.4042 47.2051 40.4319 46.2437C42.0907 44.6912 42.7034 42.6726 43.162 40.5107C41.5179 39.9742 39.9596 39.6014 38.3009 39.643Z" fill="white"/>
<defs>
<filter id="filter0_d" x="0" y="0.5" width="66" height="66" filterUnits="userSpaceOnUse" color-interpolation-filters="sRGB">
<feFlood flood-opacity="0" result="BackgroundImageFix"/>
<feColorMatrix in="SourceAlpha" type="matrix" values="0 0 0 0 0 0 0 0 0 0 0 0 0 0 0 0 0 0 127 0"/>
<feOffset dy="1"/>
<feGaussianBlur stdDeviation="1"/>
<feColorMatrix type="matrix" values="0 0 0 0 0 0 0 0 0 0 0 0 0 0 0 0 0 0 0.06 0"/>
<feBlend mode="normal" in2="BackgroundImageFix" result="effect1_dropShadow"/>
<feBlend mode="normal" in="SourceGraphic" in2="effect1_dropShadow" result="shape"/>
</filter>
</defs>
</svg>
