<svg width="18" height="18" viewBox="0 0 18 18" fill="none" xmlns="http://www.w3.org/2000/svg">
<path fill-rule="evenodd" clip-rule="evenodd" d="M7.51949 13.6384C7.51949 13.6468 7.51721 13.6544 7.51721 13.6619C7.51721 14.4861 8.18594 15.1548 9.0101 15.1548C9.83426 15.1548 10.503 14.4861 10.503 13.6619C10.503 13.6544 10.5007 13.6468 10.5007 13.6384H7.51949ZM12.729 7.27622C12.729 5.97212 11.7176 4.12213 9.70915 3.77336V3.74C9.70915 3.33285 9.37554 3 8.96839 3C8.56124 3 8.22839 3.33285 8.22839 3.74V3.77488C6.22373 4.12592 5.21457 5.97364 5.21457 7.27622C5.21457 8.7221 5.22897 9.75248 5.22897 10.4159C5.22897 10.9155 4.35771 11.5709 3.92752 11.864C3.78351 11.9621 3.69287 12.1235 3.69287 12.2978V12.333C3.69287 12.6092 3.91673 12.833 4.19287 12.833H13.75C14.0261 12.833 14.25 12.6092 14.25 12.333V12.2976C14.25 12.1234 14.1594 11.9621 14.0155 11.8639C13.5857 11.5708 12.7154 10.9155 12.7154 10.4159C12.7154 9.75248 12.729 8.7221 12.729 7.27622Z" fill="#959CA4"/>
</svg>
