<svg width="172" height="172" viewBox="0 0 172 172" fill="none" xmlns="http://www.w3.org/2000/svg">
	<g filter="url(#filter0_d_13783_69018)">
		<path fill-rule="evenodd" clip-rule="evenodd" d="M14.478 16H131.677C134.702 16 137.154 18.5908 137.154 21.7867C137.154 22.4345 137.051 23.0777 136.849 23.6894L133.308 34.4362C132.542 36.7617 130.467 38.3201 128.136 38.3201H17.9905C15.655 38.3201 13.5764 36.755 12.814 34.4224L9.3015 23.6757C8.31416 20.6549 9.83137 17.3603 12.6903 16.317C13.2654 16.1071 13.8696 16 14.478 16ZM33.7797 57.2587H112.372C115.397 57.2587 117.849 59.8495 117.849 63.0454C117.849 63.7392 117.731 64.4274 117.5 65.077L113.687 75.8238C112.885 78.0824 110.842 79.5788 108.559 79.5788H37.3904C35.0722 79.5788 33.0051 78.0365 32.2295 75.7281L28.6187 64.9814C27.6068 61.9696 29.0972 58.6614 31.9475 57.5921C32.5358 57.3715 33.1554 57.2587 33.7797 57.2587ZM58.1824 98.6469H87.9748C90.9994 98.6469 93.4513 101.238 93.4513 104.434C93.4513 104.997 93.3736 105.557 93.2205 106.096L90.1704 116.843C89.4756 119.291 87.3433 120.967 84.9247 120.967H61.5632C59.2042 120.967 57.1103 119.371 56.3662 117.006L52.9855 106.259C52.0314 103.226 53.5848 99.9504 56.455 98.9424C57.0121 98.7467 57.5954 98.6469 58.1824 98.6469Z" fill="#24B4E1"/>
	</g>
	<g opacity="0.9" filter="url(#filter1_d_13783_69018)">
		<ellipse cx="124.819" cy="118.509" rx="38.1818" ry="38.4906" fill="#9CC51F"/>
	</g>
	<g filter="url(#filter2_d_13783_69018)">
		<path fill-rule="evenodd" clip-rule="evenodd" d="M141.321 115.083C141.689 115.254 142.011 115.484 142.279 115.769C142.547 116.056 142.767 116.393 142.926 116.764C143.086 117.139 143.165 117.516 143.165 117.912C143.165 118.308 143.083 118.698 142.926 119.075C142.767 119.452 142.55 119.788 142.282 120.068C142.014 120.344 141.692 120.572 141.321 120.74C140.593 121.074 139.786 121.077 139.047 120.74C138.679 120.572 138.365 120.35 138.092 120.068C137.824 119.786 137.605 119.452 137.448 119.075C137.288 118.698 137.207 118.31 137.207 117.912C137.207 117.513 137.285 117.139 137.448 116.764C137.607 116.393 137.824 116.056 138.095 115.769C138.368 115.479 138.679 115.254 139.05 115.083C139.418 114.915 139.789 114.828 140.187 114.828C140.58 114.828 140.961 114.917 141.321 115.083ZM130.982 108.545C129.891 109.594 129.027 110.426 128.374 111.923C127.763 113.322 127.045 115.679 127.045 117.716C127.045 119.528 127.378 121.258 128.036 122.864C128.577 124.182 129.506 126.035 130.859 127.388C132.072 128.603 133.558 129.577 135.282 130.282C136.958 130.966 139.129 131.34 141.389 131.34C143.192 131.34 145.027 131.117 146.426 130.732C147.883 130.32 149.301 129.694 150.635 128.861C150.758 128.783 150.8 128.623 150.729 128.496L149.063 125.492C148.987 125.355 148.81 125.311 148.678 125.397C148.061 125.804 147.485 126.138 146.968 126.39C146.47 126.637 145.931 126.84 145.365 126.992C144.805 127.139 144.204 127.239 143.576 127.291C142.945 127.345 142.201 127.372 141.356 127.372C139.941 127.372 138.587 127.152 137.334 126.718C136.083 126.287 134.979 125.655 134.045 124.836C133.117 124.02 132.372 123 131.826 121.806C131.282 120.605 131.003 119.23 131.003 117.716C131.003 116.376 131.26 115.099 131.761 113.916C132.267 112.742 132.973 111.714 133.864 110.865C134.754 110.014 135.829 109.333 137.055 108.839C138.281 108.346 139.64 108.093 141.097 108.093C142.355 108.093 143.552 108.286 144.648 108.666C145.733 109.043 146.694 109.585 147.498 110.277C148.299 110.963 148.936 111.806 149.393 112.785C149.85 113.767 150.083 114.866 150.083 116.056C150.083 116.778 149.999 117.478 149.831 118.139C149.664 118.804 149.428 119.406 149.128 119.924C148.833 120.437 148.486 120.846 148.094 121.147C147.715 121.437 147.317 121.581 146.878 121.581C146.83 121.581 146.767 121.568 146.697 121.478C146.629 121.4 146.597 121.288 146.597 121.136C146.597 120.618 146.629 120.106 146.694 119.604L147.666 111.5C147.685 111.338 147.558 111.196 147.395 111.196H144.54C144.333 111.196 144.156 111.344 144.12 111.548C144.057 111.902 143.591 112.039 143.3 111.828C143.121 111.698 142.926 111.578 142.715 111.47C141.984 111.093 141.121 110.903 140.155 110.903C139.283 110.903 138.409 111.074 137.57 111.413C136.725 111.752 135.97 112.232 135.326 112.851C134.676 113.461 134.143 114.212 133.737 115.08C133.331 115.948 133.128 116.911 133.128 117.944C133.128 119.002 133.344 119.984 133.772 120.862C134.191 121.728 134.727 122.487 135.366 123.116C136.005 123.743 136.72 124.239 137.491 124.586C138.899 125.218 140.171 125.256 141.66 124.828C141.887 124.763 142.119 124.667 142.355 124.541C143.08 124.153 144.012 124.234 144.702 124.681C145.208 125.012 145.787 125.18 146.424 125.18C147.544 125.18 148.567 124.953 149.466 124.502C150.367 124.049 151.147 123.404 151.786 122.587C152.419 121.774 152.917 120.792 153.261 119.666C153.602 118.552 153.773 117.304 153.773 115.959C153.773 114.364 153.442 112.845 152.793 111.435C152.14 110.033 151.234 108.793 150.099 107.752C148.965 106.715 147.609 105.886 146.066 105.292C144.532 104.698 142.848 104.396 141.064 104.396C139.131 104.396 137.31 104.741 135.65 105.424C133.991 106.105 132.527 107.054 131.292 108.245L131.005 108.522L130.982 108.545ZM109.809 131.279C110.474 131.296 111.176 131.315 111.934 131.34C112.412 131.315 112.929 131.292 113.475 131.267C114.926 131.201 116.579 131.126 118.226 130.993C119.578 130.884 120.928 130.646 122.267 130.397C123.078 130.244 123.877 129.99 124.571 129.506C124.743 129.384 124.839 129.262 124.814 129.045C124.772 128.713 124.738 128.38 124.704 128.046C124.636 127.393 124.569 126.74 124.445 126.097C124.248 125.066 123.796 124.123 122.856 123.553C122.393 123.274 121.88 123.076 121.37 122.88C121.269 122.841 121.169 122.803 121.069 122.763C119.709 122.227 118.348 121.7 116.985 121.172C116.638 121.038 116.291 120.903 115.944 120.769C115.573 120.626 115.297 120.375 115.141 120.015C114.974 119.624 114.827 119.222 114.686 118.818C114.565 118.474 114.635 118.184 114.928 117.933C115.06 117.821 115.167 117.676 115.273 117.532C115.3 117.496 115.326 117.46 115.353 117.425C116.419 116.055 117.041 114.511 117.246 112.783C117.405 111.397 117.42 110.032 117.092 108.67C116.659 106.885 115.702 105.509 113.913 104.831C112.682 104.365 111.411 104.289 110.109 104.53C107.994 104.916 106.62 106.129 105.97 108.139C105.444 109.758 105.46 111.423 105.7 113.083C105.978 115.003 106.804 116.661 108.116 118.096C108.222 118.212 108.292 118.407 108.295 118.567C108.323 119.567 107.643 120.528 106.566 120.95C106.457 120.993 106.347 121.036 106.238 121.079C104.548 121.744 102.857 122.409 101.144 123.012C99.7511 123.507 98.8616 124.429 98.5407 125.823C98.3878 126.482 98.3103 127.158 98.2327 127.835C98.1924 128.187 98.152 128.539 98.101 128.889C98.0479 129.265 98.2046 129.506 98.528 129.656C98.6054 129.692 98.6825 129.728 98.7596 129.765C99.053 129.903 99.3469 130.042 99.6551 130.138C101.697 130.801 103.825 130.99 105.95 131.13C107.179 131.209 108.411 131.242 109.809 131.279Z" fill="#242A2F"/>
	</g>
	<defs>
		<filter id="filter0_d_13783_69018" x="0.307693" y="11.6538" width="145.539" height="122.351" filterUnits="userSpaceOnUse" color-interpolation-filters="sRGB">
			<feFlood flood-opacity="0" result="BackgroundImageFix"/>
			<feColorMatrix in="SourceAlpha" type="matrix" values="0 0 0 0 0 0 0 0 0 0 0 0 0 0 0 0 0 0 127 0" result="hardAlpha"/>
			<feOffset dy="4.34615"/>
			<feGaussianBlur stdDeviation="4.34615"/>
			<feComposite in2="hardAlpha" operator="out"/>
			<feColorMatrix type="matrix" values="0 0 0 0 0.184314 0 0 0 0 0.776471 0 0 0 0 0.964706 0 0 0 0.28 0"/>
			<feBlend mode="normal" in2="BackgroundImageFix" result="effect1_dropShadow_13783_69018"/>
			<feBlend mode="normal" in="SourceGraphic" in2="effect1_dropShadow_13783_69018" result="shape"/>
		</filter>
		<filter id="filter1_d_13783_69018" x="77.9444" y="75.6724" width="93.7479" height="94.3661" filterUnits="userSpaceOnUse" color-interpolation-filters="sRGB">
			<feFlood flood-opacity="0" result="BackgroundImageFix"/>
			<feColorMatrix in="SourceAlpha" type="matrix" values="0 0 0 0 0 0 0 0 0 0 0 0 0 0 0 0 0 0 127 0" result="hardAlpha"/>
			<feOffset dy="4.34615"/>
			<feGaussianBlur stdDeviation="4.34615"/>
			<feComposite in2="hardAlpha" operator="out"/>
			<feColorMatrix type="matrix" values="0 0 0 0 0.183456 0 0 0 0 0.291667 0 0 0 0 0.0267361 0 0 0 0.1 0"/>
			<feBlend mode="normal" in2="BackgroundImageFix" result="effect1_dropShadow_13783_69018"/>
			<feBlend mode="normal" in="SourceGraphic" in2="effect1_dropShadow_13783_69018" result="shape"/>
		</filter>
		<filter id="filter2_d_13783_69018" x="91.5716" y="102.223" width="68.7201" height="39.9818" filterUnits="userSpaceOnUse" color-interpolation-filters="sRGB">
			<feFlood flood-opacity="0" result="BackgroundImageFix"/>
			<feColorMatrix in="SourceAlpha" type="matrix" values="0 0 0 0 0 0 0 0 0 0 0 0 0 0 0 0 0 0 127 0" result="hardAlpha"/>
			<feOffset dy="4.34615"/>
			<feGaussianBlur stdDeviation="3.25962"/>
			<feComposite in2="hardAlpha" operator="out"/>
			<feColorMatrix type="matrix" values="0 0 0 0 0.321569 0 0 0 0 0.360784 0 0 0 0 0.411765 0 0 0 0.1 0"/>
			<feBlend mode="normal" in2="BackgroundImageFix" result="effect1_dropShadow_13783_69018"/>
			<feBlend mode="normal" in="SourceGraphic" in2="effect1_dropShadow_13783_69018" result="shape"/>
		</filter>
	</defs>
</svg>
