<svg width="172" height="172" viewBox="0 0 172 172" fill="none" xmlns="http://www.w3.org/2000/svg">
	<g filter="url(#filter0_d_13783_68932)">
		<path d="M44.1025 78.8729C44.1025 74.2843 47.8223 70.5645 52.411 70.5645H132.82C137.408 70.5645 141.128 74.2843 141.128 78.8729V126.205C141.128 130.793 137.408 134.513 132.82 134.513H52.411C47.8223 134.513 44.1025 130.793 44.1025 126.205V78.8729Z" fill="#242A2F"/>
	</g>
	<path fill-rule="evenodd" clip-rule="evenodd" d="M132.82 72.7696H52.411C49.0402 72.7696 46.3077 75.5021 46.3077 78.8729V126.205C46.3077 129.576 49.0402 132.308 52.411 132.308H132.82C136.191 132.308 138.923 129.576 138.923 126.205V78.8729C138.923 75.5021 136.191 72.7696 132.82 72.7696ZM52.411 70.5645C47.8223 70.5645 44.1025 74.2843 44.1025 78.8729V126.205C44.1025 130.793 47.8223 134.513 52.411 134.513H132.82C137.408 134.513 141.128 130.793 141.128 126.205V78.8729C141.128 74.2843 137.408 70.5645 132.82 70.5645H52.411Z" fill="#54595F"/>
	<g filter="url(#filter1_d_13783_68932)">
		<path d="M28.666 52.411C28.666 47.8223 32.3858 44.1025 36.9744 44.1025H117.383C121.972 44.1025 125.692 47.8223 125.692 52.411V99.7428C125.692 104.331 121.972 108.051 117.383 108.051H36.9744C32.3858 108.051 28.666 104.331 28.666 99.7428V52.411Z" fill="#363C41"/>
	</g>
	<path fill-rule="evenodd" clip-rule="evenodd" d="M117.383 47.4259H36.9744C34.2213 47.4259 31.9894 49.6578 31.9894 52.411V99.7428C31.9894 102.496 34.2213 104.728 36.9744 104.728H117.383C120.136 104.728 122.368 102.496 122.368 99.7428V52.411C122.368 49.6578 120.136 47.4259 117.383 47.4259ZM36.9744 44.1025C32.3858 44.1025 28.666 47.8223 28.666 52.411V99.7428C28.666 104.331 32.3858 108.051 36.9744 108.051H117.383C121.972 108.051 125.692 104.331 125.692 99.7428V52.411C125.692 47.8223 121.972 44.1025 117.383 44.1025H36.9744Z" fill="#65696F"/>
	<path fill-rule="evenodd" clip-rule="evenodd" d="M60.5731 91.5955C57.7769 91.503 55.6121 91.4846 53.4533 91.3459C50.9247 91.1794 48.3931 90.9545 45.9637 90.1655C45.5007 90.0206 45.0647 89.7956 44.6228 89.5922C44.2379 89.4135 44.0515 89.1269 44.1146 88.68C44.292 87.4626 44.3612 86.2237 44.6378 85.0309C45.0196 83.3729 46.078 82.2757 47.7346 81.687C49.9055 80.9227 52.0462 80.0752 54.1869 79.2338C55.4678 78.7314 56.2766 77.588 56.2435 76.3984C56.2405 76.2073 56.1563 75.9762 56.03 75.8375C54.4696 74.1301 53.4864 72.1576 53.1557 69.8739C52.87 67.8984 52.852 65.9167 53.4774 63.9905C54.2501 61.5989 55.8857 60.1565 58.4023 59.6973C59.9507 59.4107 61.4631 59.5001 62.9273 60.0548C65.056 60.8623 66.1956 62.4988 66.7097 64.6223C67.1006 66.2434 67.0825 67.8676 66.8931 69.5164C66.6496 71.5721 65.9099 73.4089 64.6411 75.0393C64.4818 75.2488 64.3314 75.4769 64.136 75.6433C63.7872 75.9423 63.703 76.2875 63.8473 76.6974C64.0157 77.1781 64.1901 77.6558 64.3885 78.1212C64.575 78.5496 64.9027 78.8486 65.3447 79.0181C67.3802 79.807 69.4127 80.5899 71.4422 81.3912C72.1638 81.6747 72.9094 81.9336 73.5679 82.3312C74.6864 83.0092 75.2246 84.131 75.4591 85.3576C75.6816 86.5134 75.7507 87.6968 75.898 88.8649C75.9281 89.1238 75.8139 89.2686 75.6094 89.4135C74.7826 89.9898 73.8325 90.2918 72.8673 90.4737C71.2738 90.7695 69.6682 91.0531 68.0597 91.1825C65.3627 91.4013 62.6537 91.4876 60.5731 91.5955Z" fill="#A7ABAF"/>
	<path fill-rule="evenodd" clip-rule="evenodd" d="M96.6783 73.0691C96.3595 72.7302 95.9762 72.4559 95.5382 72.2526C95.1099 72.0558 94.6558 71.9493 94.1888 71.9493C93.7154 71.9493 93.2741 72.0525 92.8361 72.2526C92.3949 72.4559 92.0245 72.7238 91.6993 73.0691C91.3772 73.4111 91.1195 73.8113 90.9295 74.2534C90.7363 74.6987 90.6429 75.1441 90.6429 75.6184C90.6429 76.0928 90.7395 76.5543 90.9295 77.0028C91.1163 77.4514 91.3772 77.8483 91.696 78.1839C92.0213 78.5195 92.3949 78.7842 92.8329 78.9842C93.7121 79.3844 94.6719 79.3812 95.5382 78.9842C95.9794 78.7842 96.3627 78.5131 96.6815 78.1839C97.0004 77.8515 97.258 77.4514 97.448 77.0028C97.6348 76.5543 97.7315 76.0896 97.7315 75.6184C97.7315 75.1473 97.6381 74.6987 97.448 74.2534C97.258 73.8113 96.9971 73.4111 96.6783 73.0691ZM80.1341 68.4931C80.9167 66.6989 81.9537 65.7082 83.2645 64.4464L83.6059 64.1173C85.0745 62.7006 86.8168 61.5711 88.791 60.7611C90.7653 59.9479 92.9327 59.5381 95.2323 59.5381C97.3546 59.5381 99.3579 59.8963 101.184 60.603C103.02 61.3097 104.633 62.2972 105.983 63.5299C107.332 64.7691 108.411 66.2439 109.187 67.9123C109.96 69.5903 110.353 71.3975 110.353 73.295C110.353 74.8956 110.15 76.38 109.744 77.7063C109.335 79.0455 108.743 80.2137 107.989 81.1818C107.229 82.1532 106.301 82.9212 105.229 83.4601C104.16 83.9958 102.942 84.2669 101.609 84.2669C100.852 84.2669 100.163 84.0668 99.5608 83.6731C99.068 83.3536 98.6236 82.9341 98.2371 82.421C97.448 83.16 96.6751 83.6376 95.9408 83.8474C94.1695 84.3573 92.6558 84.3121 90.9811 83.5602C90.0632 83.1471 89.2129 82.5566 88.4529 81.8111C87.6928 81.0624 87.0551 80.1589 86.5559 79.1294C86.0471 78.0839 85.7894 76.9157 85.7894 75.6571C85.7894 74.4276 86.031 73.282 86.5141 72.2494C86.9972 71.2167 87.6316 70.3229 88.4046 69.5968C89.1711 68.861 90.0696 68.2898 91.0745 67.8864C92.0728 67.4831 93.1131 67.2798 94.1501 67.2798C95.2999 67.2798 96.3273 67.5056 97.1968 67.9542C97.7991 68.264 98.2951 68.6512 98.6815 69.103L98.9424 67.6283H103.129L103.087 67.9897L101.931 77.6321C101.854 78.2291 101.815 78.839 101.815 79.4554C101.815 79.6361 101.854 79.7684 101.934 79.862C102.018 79.9685 102.092 79.9846 102.15 79.9846C102.672 79.9846 103.145 79.8136 103.596 79.4683C104.063 79.1101 104.475 78.6228 104.826 78.0129C105.184 77.3965 105.464 76.6801 105.664 75.8895C105.863 75.1021 105.963 74.2695 105.963 73.4111C105.963 71.9945 105.686 70.6875 105.142 69.5193C104.598 68.3544 103.841 67.3507 102.888 66.5343C101.931 65.7114 100.788 65.066 99.4963 64.6174C98.192 64.1657 96.7685 63.9365 95.2709 63.9365C93.5382 63.9365 91.9215 64.2367 90.4625 64.824C89.0036 65.4113 87.725 66.2213 86.6654 67.2346C85.6059 68.2446 84.7653 69.4677 84.163 70.865C83.5672 72.272 83.2613 73.7919 83.2613 75.3861C83.2613 77.1868 83.593 78.8229 84.2403 80.2525C84.8909 81.6724 85.7766 82.8857 86.8812 83.8571C87.9923 84.8316 89.3063 85.5835 90.7943 86.0966C92.2854 86.613 93.8957 86.8743 95.5801 86.8743C96.5849 86.8743 97.4706 86.8421 98.221 86.7775C98.9682 86.7162 99.6831 86.5968 100.35 86.4226C101.023 86.2418 101.664 85.9998 102.256 85.7062C102.872 85.406 103.558 85.0091 104.292 84.5251L104.582 84.3347L106.881 88.4814L106.62 88.646C105.033 89.6367 103.345 90.3821 101.612 90.8726C99.9472 91.3309 97.7637 91.5955 95.6187 91.5955C92.9295 91.5955 90.3466 91.1502 88.353 90.337C86.3015 89.4979 84.5334 88.3394 83.0906 86.8937C81.4803 85.2834 80.3756 83.0793 79.7315 81.511C78.9489 79.6006 78.5527 77.5417 78.5527 75.3861C78.5527 72.9626 79.4062 70.1583 80.1341 68.4931Z" fill="#A7ABAF"/>
	<path d="M117.13 125.553C116.704 125.937 116.026 125.635 116.026 125.062L116.026 117.631C115.95 117.659 115.867 117.674 115.782 117.671C101.2 117.257 96.6921 103.389 95.492 98.0252C95.3502 97.3912 96.1242 97.0007 96.5947 97.4486C99.6657 100.372 107.142 106.513 115.765 106.514C115.857 106.514 115.945 106.532 116.026 106.565L116.026 97.9264C116.026 97.3535 116.704 97.0515 117.13 97.4348L132.016 110.839C132.405 111.189 132.405 111.799 132.016 112.15L117.13 125.553Z" fill="#24B4E1"/>
	<path fill-rule="evenodd" clip-rule="evenodd" d="M132.016 112.15C132.405 111.799 132.405 111.189 132.016 110.839L134.967 107.561C137.301 109.663 137.301 113.325 134.967 115.427C134.967 115.427 134.967 115.427 134.967 115.427L120.081 128.831C116.818 131.769 111.616 129.453 111.616 125.062L111.616 121.653C104.903 120.39 100.207 116.563 97.0733 112.328C93.4496 107.43 91.8487 101.941 91.1881 98.9881C90.6313 96.4992 91.9785 94.3462 93.7933 93.411C95.5514 92.5049 97.9246 92.6256 99.6355 94.2544C101.015 95.5675 103.365 97.5812 106.284 99.2469C107.974 100.211 109.77 101.011 111.616 101.517L111.616 97.9264C111.616 93.5347 116.818 91.2188 120.081 94.1574L134.967 107.561L132.016 110.839L117.13 97.4348C116.704 97.0515 116.026 97.3536 116.026 97.9264L116.026 106.565C115.945 106.532 115.857 106.514 115.765 106.514C114.346 106.514 112.958 106.348 111.616 106.057C107.508 105.166 103.827 103.109 100.989 101.081C100.402 100.661 99.8505 100.242 99.339 99.8355C98.3661 99.0618 97.5372 98.3307 96.8775 97.7153C96.7795 97.6237 96.6851 97.5348 96.5946 97.4486C96.1241 97.0007 95.3501 97.3913 95.4919 98.0252C95.5254 98.1748 95.5614 98.3309 95.6002 98.4932C95.813 99.3846 96.1078 100.461 96.5089 101.644C96.7504 102.356 97.0306 103.107 97.3546 103.879C99.8377 109.797 104.897 116.966 114.923 117.631C115.206 117.65 115.492 117.663 115.782 117.672C115.867 117.674 115.95 117.659 116.026 117.631L116.026 125.062C116.026 125.635 116.704 125.937 117.13 125.553L132.016 112.15Z" fill="#242A2F"/>
	<defs>
		<filter id="filter0_d_13783_68932" x="40.1025" y="68.5645" width="105.025" height="71.9482" filterUnits="userSpaceOnUse" color-interpolation-filters="sRGB">
			<feFlood flood-opacity="0" result="BackgroundImageFix"/>
			<feColorMatrix in="SourceAlpha" type="matrix" values="0 0 0 0 0 0 0 0 0 0 0 0 0 0 0 0 0 0 127 0" result="hardAlpha"/>
			<feOffset dy="2"/>
			<feGaussianBlur stdDeviation="2"/>
			<feComposite in2="hardAlpha" operator="out"/>
			<feColorMatrix type="matrix" values="0 0 0 0 0 0 0 0 0 0.332159 0 0 0 0 0.433333 0 0 0 0.1 0"/>
			<feBlend mode="normal" in2="BackgroundImageFix" result="effect1_dropShadow_13783_68932"/>
			<feBlend mode="normal" in="SourceGraphic" in2="effect1_dropShadow_13783_68932" result="shape"/>
		</filter>
		<filter id="filter1_d_13783_68932" x="24.666" y="42.1025" width="105.025" height="71.9482" filterUnits="userSpaceOnUse" color-interpolation-filters="sRGB">
			<feFlood flood-opacity="0" result="BackgroundImageFix"/>
			<feColorMatrix in="SourceAlpha" type="matrix" values="0 0 0 0 0 0 0 0 0 0 0 0 0 0 0 0 0 0 127 0" result="hardAlpha"/>
			<feOffset dy="2"/>
			<feGaussianBlur stdDeviation="2"/>
			<feComposite in2="hardAlpha" operator="out"/>
			<feColorMatrix type="matrix" values="0 0 0 0 0 0 0 0 0 0.332159 0 0 0 0 0.433333 0 0 0 0.1 0"/>
			<feBlend mode="normal" in2="BackgroundImageFix" result="effect1_dropShadow_13783_68932"/>
			<feBlend mode="normal" in="SourceGraphic" in2="effect1_dropShadow_13783_68932" result="shape"/>
		</filter>
	</defs>
</svg>
