<svg width="172" height="172" viewBox="0 0 172 172" fill="none" xmlns="http://www.w3.org/2000/svg">
	<g clip-path="url(#clip0_13783_68964)">
		<path d="M5 32.4444C5 23.9147 11.8532 17 20.3071 17H117.252C125.705 17 132.559 23.9147 132.559 32.4444V98.0833C132.559 106.613 125.705 113.528 117.252 113.528H20.3071C11.8532 113.528 5 106.613 5 98.0833V32.4444Z" fill="#54595F"/>
		<path d="M5 32.4444C5 23.9147 11.8532 17 20.3071 17H117.252C125.705 17 132.559 23.9147 132.559 32.4444V98.0833C132.559 106.613 125.705 113.528 117.252 113.528H20.3071C11.8532 113.528 5 106.613 5 98.0833V32.4444Z" stroke="#82878B"/>
		<path d="M72.3674 87.3578C73.254 87.0161 73.7502 86.0801 73.5667 85.1477L72.2444 78.43C72.2444 76.111 69.1483 73.462 63.0515 71.9184C60.9859 71.3543 59.0223 70.4795 57.2309 69.3254C56.8392 69.1062 56.8987 67.081 56.8987 67.081L54.9351 66.7883C54.9351 66.6239 54.7672 64.1953 54.7672 64.1953C57.1166 63.4223 56.8749 58.8624 56.8749 58.8624C58.367 59.6727 59.3386 56.0642 59.3386 56.0642C61.1034 51.0507 58.4598 51.3538 58.4598 51.3538C58.9223 48.2933 58.9223 45.1827 58.4598 42.1221C57.2845 31.9692 39.5894 34.7255 41.6876 38.0414C36.516 37.1086 37.6961 48.6303 37.6961 48.6303L38.8178 51.6138C37.263 52.6013 37.5684 53.7345 37.9094 55.0004C38.0516 55.5281 38.2 56.0789 38.2224 56.6518C38.3308 59.527 40.1277 58.9312 40.1277 58.9312C40.2384 63.6765 42.6283 64.2944 42.6283 64.2944C43.0773 67.2745 42.7974 66.7673 42.7974 66.7673L40.6707 67.0192C40.6995 67.6969 40.6431 68.3755 40.5028 69.0397C39.2671 69.579 38.5106 70.008 37.7616 70.4329C36.9948 70.8678 36.2359 71.2982 34.9787 71.8379C30.1775 73.8981 24.9595 76.5774 24.0318 80.1847C23.6934 81.5007 23.3637 83.3822 23.0814 85.2413C22.9448 86.1409 23.4429 87.0174 24.2917 87.3451C30.9969 89.9338 38.6482 91.4738 46.7918 91.6482H49.9002C58.0305 91.4741 65.6701 89.9389 72.3674 87.3578Z" fill="#82878B"/>
		<path fill-rule="evenodd" clip-rule="evenodd" d="M78.4326 35.0186C77.328 35.0186 76.4326 35.914 76.4326 37.0186V42.0278C76.4326 43.1324 77.3281 44.0278 78.4326 44.0278H115.252C116.356 44.0278 117.252 43.1324 117.252 42.0278V37.0186C117.252 35.914 116.356 35.0186 115.252 35.0186H78.4326ZM78.4326 51.75C77.328 51.75 76.4326 52.6455 76.4326 53.75V58.7593C76.4326 59.8639 77.328 60.7593 78.4326 60.7593H103.771C104.876 60.7593 105.771 59.8639 105.771 58.7593V53.75C105.771 52.6455 104.876 51.75 103.771 51.75H78.4326Z" fill="#82878B"/>
		<g filter="url(#filter0_d_13783_68964)">
			<ellipse cx="128.733" cy="117.388" rx="38.2677" ry="38.6111" fill="#242A2F"/>
		</g>
		<path fill-rule="evenodd" clip-rule="evenodd" d="M108.901 101.944H148.564C149.587 101.944 150.417 102.844 150.417 103.953C150.417 104.178 150.382 104.401 150.314 104.614L149.115 108.345C148.856 109.152 148.154 109.693 147.365 109.693H110.089C109.299 109.693 108.596 109.15 108.338 108.34L107.149 104.609C106.815 103.56 107.328 102.417 108.296 102.054C108.49 101.982 108.695 101.944 108.901 101.944ZM115.433 115.445H142.031C143.054 115.445 143.884 116.344 143.884 117.454C143.884 117.695 143.844 117.934 143.766 118.159L142.476 121.89C142.204 122.674 141.513 123.194 140.74 123.194H116.655C115.871 123.194 115.171 122.658 114.909 121.857L113.687 118.126C113.344 117.08 113.849 115.932 114.813 115.561C115.012 115.484 115.222 115.445 115.433 115.445ZM123.691 128.946H133.773C134.797 128.946 135.627 129.845 135.627 130.955C135.627 131.15 135.6 131.344 135.549 131.532L134.516 135.262C134.281 136.112 133.56 136.694 132.741 136.694H124.835C124.037 136.694 123.328 136.14 123.076 135.319L121.932 131.588C121.609 130.535 122.135 129.398 123.106 129.048C123.295 128.98 123.492 128.946 123.691 128.946Z" fill="#82878B"/>
	</g>
	<defs>
		<filter id="filter0_d_13783_68964" x="78.9248" y="69.5073" width="99.6152" height="100.303" filterUnits="userSpaceOnUse" color-interpolation-filters="sRGB">
			<feFlood flood-opacity="0" result="BackgroundImageFix"/>
			<feColorMatrix in="SourceAlpha" type="matrix" values="0 0 0 0 0 0 0 0 0 0 0 0 0 0 0 0 0 0 127 0" result="hardAlpha"/>
			<feOffset dy="2.27"/>
			<feGaussianBlur stdDeviation="5.77"/>
			<feComposite in2="hardAlpha" operator="out"/>
			<feColorMatrix type="matrix" values="0 0 0 0 0.392157 0 0 0 0 0.427451 0 0 0 0 0.482353 0 0 0 0.16 0"/>
			<feBlend mode="normal" in2="BackgroundImageFix" result="effect1_dropShadow_13783_68964"/>
			<feBlend mode="normal" in="SourceGraphic" in2="effect1_dropShadow_13783_68964" result="shape"/>
		</filter>
		<clipPath id="clip0_13783_68964">
			<rect width="172" height="172" fill="white"/>
		</clipPath>
	</defs>
</svg>
