<svg width="85" height="98" viewBox="0 0 85 98" fill="none" xmlns="http://www.w3.org/2000/svg">
<path d="M54 0L75 22.227V98H0V0H54Z" fill="#E5E8EB"/>
<path opacity="0.3" d="M54 0L75 22.227H54V0Z" fill="#535C69"/>
<path d="M30 44.454H85V72.742H30V44.454Z" fill="#9BA4AE"/>
<path d="M44.453 65.271H46.726V52.7533H50.602L51.252 50.7993H40.316V52.7543H44.452V65.272L44.453 65.271ZM51.509 65.271H54L57.876 59.6941L61.513 65.271H64.091L59.306 57.9361L64.244 50.7993H61.73L58.006 56.2449L54.454 50.7993H51.877L56.555 58.0028L51.509 65.272V65.271ZM69.802 65.271H72.077V52.7533H75.952L76.602 50.7993H65.668V52.7543H69.803V65.272L69.802 65.271Z" fill="white"/>
</svg>
