<svg width="75" height="98" viewBox="0 0 75 98" fill="none" xmlns="http://www.w3.org/2000/svg">
<path d="M0 0H54L75 22.227V98H0V0Z" fill="#E5E8EB"/>
<path opacity="0.3" d="M54 0L75 22.227H54V0Z" fill="#535C69"/>
<path d="M10.002 39.4344V79.675H65V39.4344H10.002ZM63 77.7938H12V41.4227H63V77.7938ZM57 77.7938H55V41.4227H57V77.7938ZM57 41.4227H63V44.4536H57V41.4227ZM57 47.4845H63V51.5258H57V47.4845ZM57 54.5567H63V58.5979H57V54.5567ZM57 61.6289H63V65.6701H57V61.6289ZM57 68.701H63V72.7423H57V68.701ZM63 75.7732V77.7938H57V75.7732H63ZM18 41.4227H20V77.7938H18V41.4227ZM18 77.7938H12V75.7732H18V77.7938ZM18 72.7423H12V68.701H18V72.7423ZM18 65.6701H12V61.6289H18V65.6701ZM18 58.5979H12V54.5567H18V58.5979ZM18 51.5258H12V47.4845H18V51.5258ZM18 44.4536H12V41.4227H18V44.4536Z" fill="#B9BEC4"/>
</svg>
