<svg width="85" height="98" viewBox="0 0 85 98" fill="none" xmlns="http://www.w3.org/2000/svg">
<path d="M0 0H54L75 22.227V98H0V0Z" fill="#E5E8EB"/>
<path opacity="0.3" d="M54 0L75 22.227H54V0Z" fill="#535C69"/>
<path d="M30 44.454H85V72.742H30V44.454Z" fill="#AC5FBD"/>
<path d="M39.04 65.271H49.912V63.3161H42.745L49.737 50.7983H39.257L39.864 52.7533H46.144L39.041 65.271H39.04ZM51.706 65.271H53.979V50.7983H51.705V65.271H51.706ZM56.988 65.271H59.262V60.176H59.976C61.256 60.176 62.208 59.978 62.966 59.6507C64.87 58.8364 65.586 57.1683 65.586 55.4761C65.586 53.5666 64.762 52.1825 63.356 51.4369C62.532 50.9974 61.536 50.8004 60.173 50.8004H56.988V65.271ZM59.262 58.2878V52.6876H60.108C60.952 52.6876 61.558 52.8412 62.013 53.1049C62.813 53.5878 63.203 54.4445 63.203 55.4761C63.203 56.6399 62.793 57.4967 61.926 57.915C61.493 58.1574 60.909 58.2888 60.129 58.2888H59.261L59.262 58.2878Z" fill="white"/>
<path d="M26 2.02063V5.05156H21V2.02063H26ZM26 6.06187V8.08249H21V6.06187H26ZM21 9.0928H26V11.1134H21V9.0928ZM21 12.1237H26V14.1443H21V12.1237ZM21 15.1547H26V17.1753H21V15.1547ZM21 18.1856H26V20.2062H21V18.1856ZM26 21.2165V23.2371H21V21.2165H26ZM21 24.2474H26V26.2681H21V24.2474ZM21 27.2784H26V29.299H21V27.2784ZM21 30.3093H26V32.3299H21V30.3093ZM21 33.3402H26V35.3608H21V33.3402ZM21 36.3711H26V39.4021H21V36.3711ZM28 2.02063H33V5.05156H28V2.02063ZM28 6.06187H33V8.08249H28V6.06187ZM28 9.0928H33V11.1134H28V9.0928ZM28 12.1237H33V14.1443H28V12.1237ZM28 15.1547H33V17.1753H28V15.1547ZM28 18.1856H33V20.2062H28V18.1856ZM28 21.2165H33V23.2371H28V21.2165ZM28 24.2474H33V26.2681H28V24.2474ZM28 27.2784H33V29.299H28V27.2784ZM28 30.3093H33V32.3299H28V30.3093ZM28 33.3402H33V35.3608H28V33.3402ZM28 36.3711H33V39.4021H28V36.3711Z" fill="#B9BEC4"/>
</svg>
