<svg width="218" height="178" viewBox="0 0 218 178" fill="none" xmlns="http://www.w3.org/2000/svg">
	<path fill-rule="evenodd" clip-rule="evenodd" d="M156.909 5.08173C158.238 5.08173 159.315 4.0047 159.315 2.67612C159.315 1.34754 158.238 0.270508 156.909 0.270508C155.58 0.270508 154.503 1.34754 154.503 2.67612C154.503 4.0047 155.58 5.08173 156.909 5.08173ZM38.2039 25.8624C41.0841 25.8624 43.4189 23.5275 43.4189 20.6474C43.4189 17.7672 41.0841 15.4324 38.2039 15.4324C35.3237 15.4324 32.9889 17.7672 32.9889 20.6474C32.9889 23.5275 35.3237 25.8624 38.2039 25.8624ZM38.2039 22.9547C39.4782 22.9547 40.5112 21.9217 40.5112 20.6474C40.5112 19.3731 39.4782 18.34 38.2039 18.34C36.9296 18.34 35.8965 19.3731 35.8965 20.6474C35.8965 21.9217 36.9296 22.9547 38.2039 22.9547ZM11.7102 76.7733C15.5894 76.7733 18.7341 73.6286 18.7341 69.7494C18.7341 65.8702 15.5894 62.7255 11.7102 62.7255C7.83099 62.7255 4.68628 65.8702 4.68628 69.7494C4.68628 73.6286 7.83099 76.7733 11.7102 76.7733ZM11.7102 73.1075C13.5648 73.1075 15.0683 71.604 15.0683 69.7494C15.0683 67.8947 13.5648 66.3912 11.7102 66.3912C9.85555 66.3912 8.35206 67.8947 8.35206 69.7494C8.35206 71.604 9.85555 73.1075 11.7102 73.1075ZM190.039 165.155C192.801 165.155 195.04 162.916 195.04 160.154C195.04 157.393 192.801 155.154 190.039 155.154C187.278 155.154 185.039 157.393 185.039 160.154C185.039 162.916 187.278 165.155 190.039 165.155ZM190.039 162.553C191.364 162.553 192.438 161.479 192.438 160.154C192.438 158.83 191.364 157.756 190.039 157.756C188.715 157.756 187.641 158.83 187.641 160.154C187.641 161.479 188.715 162.553 190.039 162.553ZM110 178C157.496 178 196 139.496 196 91.9998C196 44.5033 157.496 5.99976 110 5.99976C62.5035 5.99976 24 44.5033 24 91.9998C24 139.496 62.5035 178 110 178ZM23.9588 171.988H7.24022C7.09716 171.988 6.95534 171.983 6.81493 171.972C3.03648 171.884 0.000190901 168.709 0 164.805C0.00109851 162.902 0.737676 161.077 2.04769 159.733C2.71919 159.043 3.51317 158.509 4.37699 158.152C4.36254 157.958 4.35518 157.763 4.35518 157.565C4.35637 155.558 5.13359 153.633 6.51587 152.214C7.89815 150.795 9.77226 149.999 11.7259 150C14.2285 150.003 16.438 151.289 17.7658 153.252C18.3964 153.022 19.0752 152.898 19.7823 152.898C22.9062 152.902 25.472 155.349 25.7694 158.479C28.7627 159.149 31.0026 161.89 31 165.166C30.9969 168.942 28.0168 172.001 24.3426 172C24.2138 172 24.0858 171.996 23.9588 171.988ZM201.138 38.992H213.003C213.093 38.9971 213.184 38.9997 213.275 38.9998C215.883 39.0008 217.998 36.9152 218 34.3407C218.002 32.1067 216.412 30.2382 214.288 29.7809C214.077 27.6471 212.256 25.9785 210.039 25.9758C209.537 25.9756 209.055 26.0606 208.608 26.2172C207.666 24.8788 206.098 24.0019 204.322 23.9998C202.935 23.9989 201.605 24.5419 200.624 25.5093C199.643 26.4767 199.092 27.7892 199.091 29.1581C199.091 29.2928 199.096 29.4262 199.106 29.5582C198.493 29.8015 197.93 30.1658 197.453 30.6358C196.524 31.5526 196.001 32.7966 196 34.0939C196 36.7558 198.155 38.9208 200.836 38.981C200.936 38.9883 201.037 38.992 201.138 38.992Z" fill="#E5F9FF"/>
	<g opacity="0.7" filter="url(#filter0_d_13561_143273)">
		<path d="M52 55C52 50.5817 55.5817 47 60 47H144C148.418 47 152 50.5817 152 55V114C152 118.418 148.418 122 144 122H60C55.5817 122 52 118.418 52 114V55Z" fill="white"/>
	</g>
	<path opacity="0.4" fill-rule="evenodd" clip-rule="evenodd" d="M144 48.0896H60C56.1835 48.0896 53.0896 51.1835 53.0896 55V114C53.0896 117.817 56.1835 120.91 60 120.91H144C147.816 120.91 150.91 117.817 150.91 114V55C150.91 51.1835 147.816 48.0896 144 48.0896ZM60 47C55.5817 47 52 50.5817 52 55V114C52 118.418 55.5817 122 60 122H144C148.418 122 152 118.418 152 114V55C152 50.5817 148.418 47 144 47H60Z" fill="#2FC6F6"/>
	<path opacity="0.6" d="M104.474 101.795C105.367 101.461 105.866 100.52 105.681 99.5846L104.716 94.7298C104.716 92.928 102.289 90.8698 97.5096 89.6704C95.8903 89.2321 94.351 88.5524 92.9466 87.6556C92.6395 87.4853 92.6861 85.9118 92.6861 85.9118L91.1468 85.6844C91.1468 85.5567 91.0151 83.6697 91.0151 83.6697C92.857 83.0691 92.6675 79.5261 92.6675 79.5261C93.8372 80.1557 94.5989 77.352 94.5989 77.352C95.9824 73.4566 93.91 73.6922 93.91 73.6922C94.2725 71.3142 94.2725 68.8973 93.91 66.5193C92.9886 58.6308 79.1165 60.7723 80.7614 63.3487C76.7071 62.6239 77.6322 71.576 77.6322 71.576L78.5116 73.8942C77.2927 74.6614 77.5321 75.5419 77.7995 76.5254C77.9109 76.9355 78.0273 77.3634 78.0449 77.8086C78.1298 80.0425 79.5385 79.5796 79.5385 79.5796C79.6253 83.2666 81.4989 83.7467 81.4989 83.7467C81.8508 86.0622 81.6314 85.6681 81.6314 85.6681L79.9642 85.8638C79.9867 86.3903 79.9425 86.9176 79.8325 87.4337C78.8638 87.8527 78.2708 88.1861 77.6836 88.5162C77.0825 88.8541 76.4875 89.1885 75.502 89.6078C71.738 91.2086 67.6473 93.2903 66.9201 96.0932C66.6761 97.0338 66.4378 98.3461 66.2289 99.6749C66.0871 100.577 66.5886 101.458 67.4439 101.778C72.6233 103.716 78.5078 104.867 84.7628 105H87.1997C93.4365 104.868 99.3051 103.723 104.474 101.795Z" fill="#2FC6F6"/>
	<g opacity="0.6">
		<path d="M111 68C109.895 68 109 68.8954 109 70V73C109 74.1046 109.895 75 111 75H139C140.105 75 141 74.1046 141 73V70C141 68.8954 140.105 68 139 68H111Z" fill="#2FC6F6"/>
		<path d="M111 80C109.895 80 109 80.8954 109 82V84C109 85.1046 109.895 86 111 86H130C131.105 86 132 85.1046 132 84V82C132 80.8954 131.105 80 130 80H111Z" fill="#2FC6F6"/>
	</g>
	<g filter="url(#filter1_d_13561_143273)">
		<circle cx="142" cy="109" r="37" fill="white"/>
	</g>
	<path opacity="0.6" fill-rule="evenodd" clip-rule="evenodd" d="M180.089 109C180.089 130.036 163.036 147.089 142 147.089C120.963 147.089 103.91 130.036 103.91 109C103.91 87.9634 120.963 70.9102 142 70.9102C163.036 70.9102 180.089 87.9634 180.089 109ZM142 146C162.434 146 179 129.434 179 109C179 88.5652 162.434 71.9997 142 71.9997C121.565 71.9997 105 88.5652 105 109C105 129.434 121.565 146 142 146Z" fill="#2FC6F6"/>
	<path fill-rule="evenodd" clip-rule="evenodd" d="M120.009 95H162.992C164.101 95 165 95.9318 165 97.0812C165 97.3142 164.962 97.5455 164.888 97.7655L163.59 101.631C163.309 102.467 162.548 103.027 161.693 103.027H121.297C120.441 103.027 119.678 102.465 119.399 101.626L118.111 97.7606C117.748 96.6741 118.305 95.4892 119.353 95.114C119.564 95.0385 119.786 95 120.009 95ZM127.088 108.986H155.912C157.021 108.986 157.921 109.918 157.921 111.067C157.921 111.317 157.877 111.564 157.793 111.798L156.394 115.663C156.1 116.476 155.351 117.014 154.513 117.014H128.413C127.563 117.014 126.804 116.459 126.52 115.629L125.196 111.764C124.825 110.681 125.371 109.491 126.417 109.106C126.632 109.027 126.86 108.986 127.088 108.986ZM136.037 122.973H146.963C148.073 122.973 148.972 123.904 148.972 125.054C148.972 125.256 148.943 125.458 148.887 125.652L147.769 129.517C147.514 130.397 146.732 131 145.845 131H137.277C136.412 131 135.644 130.426 135.371 129.575L134.131 125.71C133.781 124.619 134.351 123.441 135.404 123.079C135.608 123.008 135.822 122.973 136.037 122.973Z" fill="#2FC6F6"/>
	<defs>
		<filter id="filter0_d_13561_143273" x="40.46" y="37.73" width="123.08" height="98.08" filterUnits="userSpaceOnUse" color-interpolation-filters="sRGB">
			<feFlood flood-opacity="0" result="BackgroundImageFix"/>
			<feColorMatrix in="SourceAlpha" type="matrix" values="0 0 0 0 0 0 0 0 0 0 0 0 0 0 0 0 0 0 127 0" result="hardAlpha"/>
			<feOffset dy="2.27"/>
			<feGaussianBlur stdDeviation="5.77"/>
			<feComposite in2="hardAlpha" operator="out"/>
			<feColorMatrix type="matrix" values="0 0 0 0 0.392157 0 0 0 0 0.427451 0 0 0 0 0.482353 0 0 0 0.16 0"/>
			<feBlend mode="normal" in2="BackgroundImageFix" result="effect1_dropShadow_13561_143273"/>
			<feBlend mode="normal" in="SourceGraphic" in2="effect1_dropShadow_13561_143273" result="shape"/>
		</filter>
		<filter id="filter1_d_13561_143273" x="93.46" y="62.73" width="97.08" height="97.08" filterUnits="userSpaceOnUse" color-interpolation-filters="sRGB">
			<feFlood flood-opacity="0" result="BackgroundImageFix"/>
			<feColorMatrix in="SourceAlpha" type="matrix" values="0 0 0 0 0 0 0 0 0 0 0 0 0 0 0 0 0 0 127 0" result="hardAlpha"/>
			<feOffset dy="2.27"/>
			<feGaussianBlur stdDeviation="5.77"/>
			<feComposite in2="hardAlpha" operator="out"/>
			<feColorMatrix type="matrix" values="0 0 0 0 0.392157 0 0 0 0 0.427451 0 0 0 0 0.482353 0 0 0 0.16 0"/>
			<feBlend mode="normal" in2="BackgroundImageFix" result="effect1_dropShadow_13561_143273"/>
			<feBlend mode="normal" in="SourceGraphic" in2="effect1_dropShadow_13561_143273" result="shape"/>
		</filter>
	</defs>
</svg>
