<svg width="218" height="180" viewBox="0 0 218 180" fill="none" xmlns="http://www.w3.org/2000/svg">
	<path fill-rule="evenodd" clip-rule="evenodd" d="M156.909 5.08173C158.238 5.08173 159.315 4.0047 159.315 2.67612C159.315 1.34754 158.238 0.270508 156.909 0.270508C155.58 0.270508 154.503 1.34754 154.503 2.67612C154.503 4.0047 155.58 5.08173 156.909 5.08173ZM38.2039 25.8624C41.0841 25.8624 43.4189 23.5275 43.4189 20.6474C43.4189 17.7672 41.0841 15.4324 38.2039 15.4324C35.3237 15.4324 32.9889 17.7672 32.9889 20.6474C32.9889 23.5275 35.3237 25.8624 38.2039 25.8624ZM38.2039 22.9547C39.4782 22.9547 40.5112 21.9217 40.5112 20.6474C40.5112 19.3731 39.4782 18.34 38.2039 18.34C36.9296 18.34 35.8965 19.3731 35.8965 20.6474C35.8965 21.9217 36.9296 22.9547 38.2039 22.9547ZM11.7102 76.7733C15.5894 76.7733 18.7341 73.6286 18.7341 69.7494C18.7341 65.8702 15.5894 62.7255 11.7102 62.7255C7.83099 62.7255 4.68628 65.8702 4.68628 69.7494C4.68628 73.6286 7.83099 76.7733 11.7102 76.7733ZM11.7102 73.1075C13.5648 73.1075 15.0683 71.604 15.0683 69.7494C15.0683 67.8947 13.5648 66.3912 11.7102 66.3912C9.85555 66.3912 8.35206 67.8947 8.35206 69.7494C8.35206 71.604 9.85555 73.1075 11.7102 73.1075ZM190.039 165.155C192.801 165.155 195.04 162.916 195.04 160.154C195.04 157.393 192.801 155.154 190.039 155.154C187.278 155.154 185.039 157.393 185.039 160.154C185.039 162.916 187.278 165.155 190.039 165.155ZM190.039 162.553C191.364 162.553 192.438 161.479 192.438 160.154C192.438 158.83 191.364 157.756 190.039 157.756C188.715 157.756 187.641 158.83 187.641 160.154C187.641 161.479 188.715 162.553 190.039 162.553ZM110 178C157.496 178 196 139.496 196 91.9998C196 44.5033 157.496 5.99976 110 5.99976C62.5035 5.99976 24 44.5033 24 91.9998C24 139.496 62.5035 178 110 178ZM23.9588 171.988H7.24022C7.09716 171.988 6.95534 171.983 6.81493 171.972C3.03648 171.884 0.000190901 168.709 0 164.805C0.00109851 162.902 0.737676 161.077 2.04769 159.733C2.71919 159.043 3.51317 158.509 4.37699 158.152C4.36254 157.958 4.35518 157.763 4.35518 157.565C4.35637 155.558 5.13359 153.633 6.51587 152.214C7.89815 150.795 9.77226 149.999 11.7259 150C14.2285 150.003 16.438 151.289 17.7658 153.252C18.3964 153.022 19.0752 152.898 19.7823 152.898C22.9062 152.902 25.472 155.349 25.7694 158.479C28.7627 159.149 31.0026 161.89 31 165.166C30.9969 168.942 28.0168 172.001 24.3426 172C24.2138 172 24.0858 171.996 23.9588 171.988ZM201.138 38.992H213.003C213.093 38.9971 213.184 38.9997 213.275 38.9998C215.883 39.0008 217.998 36.9152 218 34.3407C218.002 32.1067 216.412 30.2382 214.288 29.7809C214.077 27.6471 212.256 25.9785 210.039 25.9758C209.537 25.9756 209.055 26.0606 208.608 26.2172C207.666 24.8788 206.098 24.0019 204.322 23.9998C202.935 23.9989 201.605 24.5419 200.624 25.5093C199.643 26.4767 199.092 27.7892 199.091 29.1581C199.091 29.2928 199.096 29.4262 199.106 29.5582C198.493 29.8015 197.93 30.1658 197.453 30.6358C196.524 31.5526 196.001 32.7966 196 34.0939C196 36.7558 198.155 38.9208 200.836 38.981C200.936 38.9883 201.037 38.992 201.138 38.992Z" fill="#E5F9FF"/>
	<mask id="mask0_13561_142824" style="mask-type:alpha" maskUnits="userSpaceOnUse" x="21" y="8" width="172" height="172">
		<circle cx="107" cy="94" r="86" fill="#E5F9FF"/>
	</mask>
	<g mask="url(#mask0_13561_142824)">
		<g opacity="0.6" filter="url(#filter0_d_13561_142824)">
			<path d="M90.0654 36.3086C90.0654 35.204 90.9609 34.3086 92.0654 34.3086H136.704C137.527 34.3086 138.266 34.813 138.566 35.5796L140.73 41.1093C140.927 41.6109 140.912 42.1705 140.691 42.6615L138.6 47.2907C138.276 48.0071 137.563 48.4675 136.777 48.4675H92.0654C90.9609 48.4675 90.0654 47.5721 90.0654 46.4675V36.3086Z" fill="#2FC6F6"/>
		</g>
	</g>
	<g filter="url(#filter1_d_13561_142824)">
		<path d="M34.374 36.3086C34.374 35.204 35.2695 34.3086 36.374 34.3086H81.0121C81.8354 34.3086 82.5745 34.813 82.8745 35.5796L85.039 41.1093C85.2353 41.6109 85.221 42.1705 84.9993 42.6615L82.9085 47.2907C82.585 48.0071 81.8718 48.4675 81.0858 48.4675H36.374C35.2695 48.4675 34.374 47.5721 34.374 46.4675V36.3086Z" fill="#2FC6F6"/>
	</g>
	<g opacity="0.7" filter="url(#filter2_d_13561_142824)">
		<path d="M66.9141 88.0156C66.9141 84.7019 69.6004 82.0156 72.9141 82.0156H174.137C177.45 82.0156 180.137 84.7019 180.137 88.0156V143.492C180.137 146.805 177.45 149.492 174.137 149.492H72.9141C69.6004 149.492 66.9141 146.805 66.9141 143.492V88.0156Z" fill="white"/>
	</g>
	<path opacity="0.3" fill-rule="evenodd" clip-rule="evenodd" d="M174.137 83.0156H72.9141C70.1526 83.0156 67.9141 85.2542 67.9141 88.0156V143.492C67.9141 146.253 70.1526 148.492 72.9141 148.492H174.137C176.898 148.492 179.137 146.253 179.137 143.492V88.0156C179.137 85.2542 176.898 83.0156 174.137 83.0156ZM72.9141 82.0156C69.6004 82.0156 66.9141 84.7019 66.9141 88.0156V143.492C66.9141 146.805 69.6004 149.492 72.9141 149.492H174.137C177.45 149.492 180.137 146.805 180.137 143.492V88.0156C180.137 84.7019 177.45 82.0156 174.137 82.0156H72.9141Z" fill="#BDC1C6"/>
	<path opacity="0.3" d="M75.623 125.562C75.623 124.36 76.5979 123.385 77.8004 123.385H114.816C116.018 123.385 116.993 124.36 116.993 125.562C116.993 126.765 116.018 127.739 114.816 127.739H77.8004C76.5979 127.739 75.623 126.765 75.623 125.562Z" fill="#BDC1C6"/>
	<path opacity="0.3" d="M75.623 135.361C75.623 134.158 76.5979 133.184 77.8004 133.184H97.3966C98.5992 133.184 99.574 134.158 99.574 135.361C99.574 136.563 98.5992 137.538 97.3966 137.538H77.8004C76.5979 137.538 75.623 136.563 75.623 135.361Z" fill="#BDC1C6"/>
	<path opacity="0.3" d="M171.285 95.4045C171.285 98.3624 168.887 100.76 165.929 100.76C162.971 100.76 160.573 98.3624 160.573 95.4045C160.573 92.4467 162.971 90.0488 165.929 90.0488C168.887 90.0488 171.285 92.4467 171.285 95.4045Z" fill="#BDC1C6"/>
	<path opacity="0.3" d="M171.285 111.821C171.285 114.778 168.887 117.176 165.929 117.176C162.971 117.176 160.573 114.778 160.573 111.821C160.573 108.863 162.971 106.465 165.929 106.465C168.887 106.465 171.285 108.863 171.285 111.821Z" fill="#BDC1C6"/>
	<g filter="url(#filter3_di_13561_142824)">
		<path d="M43.1162 62.4609C43.1162 59.1472 45.8025 56.4609 49.1162 56.4609H150.339C153.653 56.4609 156.339 59.1472 156.339 62.4609V117.937C156.339 121.251 153.653 123.937 150.339 123.937H49.1162C45.8025 123.937 43.1162 121.251 43.1162 117.937V62.4609Z" fill="white"/>
	</g>
	<path opacity="0.6" fill-rule="evenodd" clip-rule="evenodd" d="M150.339 57.5505H49.1162C46.4042 57.5505 44.2058 59.749 44.2058 62.4609V117.937C44.2058 120.649 46.4042 122.848 49.1162 122.848H150.339C153.051 122.848 155.249 120.649 155.249 117.937V62.4609C155.249 59.749 153.051 57.5505 150.339 57.5505ZM49.1162 56.4609C45.8025 56.4609 43.1162 59.1472 43.1162 62.4609V117.937C43.1162 121.251 45.8025 123.937 49.1162 123.937H150.339C153.653 123.937 156.339 121.251 156.339 117.937V62.4609C156.339 59.1472 153.653 56.4609 150.339 56.4609H49.1162Z" fill="#2FC6F6"/>
	<path opacity="0.7" d="M54.1074 67.3473C54.1074 66.1448 55.0823 65.1699 56.2848 65.1699H122.694C123.897 65.1699 124.872 66.1448 124.872 67.3473C124.872 68.5498 123.897 69.5246 122.694 69.5246H56.2848C55.0823 69.5246 54.1074 68.5498 54.1074 67.3473Z" fill="#2FC6F6"/>
	<path opacity="0.7" d="M54.1074 77.1461C54.1074 75.9436 55.0823 74.9688 56.2848 74.9688H109.884C111.086 74.9688 112.061 75.9436 112.061 77.1461C112.061 78.3486 111.086 79.3235 109.884 79.3235H56.2848C55.0823 79.3235 54.1074 78.3486 54.1074 77.1461Z" fill="#2FC6F6"/>
	<path opacity="0.7" d="M54.1074 100.008C54.1074 98.8059 55.0823 97.8311 56.2848 97.8311H87.4017C88.6042 97.8311 89.5791 98.8059 89.5791 100.008C89.5791 101.211 88.6042 102.186 87.4017 102.186H56.2848C55.0823 102.186 54.1074 101.211 54.1074 100.008Z" fill="#2FC6F6"/>
	<path opacity="0.7" d="M54.1074 109.806C54.1074 108.604 55.0823 107.629 56.2848 107.629H75.881C77.0835 107.629 78.0584 108.604 78.0584 109.806C78.0584 111.009 77.0835 111.984 75.881 111.984H56.2848C55.0823 111.984 54.1074 111.009 54.1074 109.806Z" fill="#2FC6F6"/>
	<path opacity="0.7" d="M147.487 69.8499C147.487 72.8077 145.089 75.2056 142.131 75.2056C139.173 75.2056 136.775 72.8077 136.775 69.8499C136.775 66.892 139.173 64.4941 142.131 64.4941C145.089 64.4941 147.487 66.892 147.487 69.8499Z" fill="#2FC6F6"/>
	<path opacity="0.7" d="M147.487 86.2668C147.487 89.2247 145.089 91.6226 142.131 91.6226C139.173 91.6226 136.775 89.2247 136.775 86.2668C136.775 83.309 139.173 80.9111 142.131 80.9111C145.089 80.9111 147.487 83.309 147.487 86.2668Z" fill="#2FC6F6"/>
	<defs>
		<filter id="filter0_d_13561_142824" x="87.0654" y="32.3086" width="56.8027" height="20.1592" filterUnits="userSpaceOnUse" color-interpolation-filters="sRGB">
			<feFlood flood-opacity="0" result="BackgroundImageFix"/>
			<feColorMatrix in="SourceAlpha" type="matrix" values="0 0 0 0 0 0 0 0 0 0 0 0 0 0 0 0 0 0 127 0" result="hardAlpha"/>
			<feOffset dy="1"/>
			<feGaussianBlur stdDeviation="1.5"/>
			<feComposite in2="hardAlpha" operator="out"/>
			<feColorMatrix type="matrix" values="0 0 0 0 0 0 0 0 0 0.294033 0 0 0 0 0.3875 0 0 0 0.09 0"/>
			<feBlend mode="normal" in2="BackgroundImageFix" result="effect1_dropShadow_13561_142824"/>
			<feBlend mode="normal" in="SourceGraphic" in2="effect1_dropShadow_13561_142824" result="shape"/>
		</filter>
		<filter id="filter1_d_13561_142824" x="31.374" y="32.3086" width="56.8027" height="20.1592" filterUnits="userSpaceOnUse" color-interpolation-filters="sRGB">
			<feFlood flood-opacity="0" result="BackgroundImageFix"/>
			<feColorMatrix in="SourceAlpha" type="matrix" values="0 0 0 0 0 0 0 0 0 0 0 0 0 0 0 0 0 0 127 0" result="hardAlpha"/>
			<feOffset dy="1"/>
			<feGaussianBlur stdDeviation="1.5"/>
			<feComposite in2="hardAlpha" operator="out"/>
			<feColorMatrix type="matrix" values="0 0 0 0 0 0 0 0 0 0.294033 0 0 0 0 0.3875 0 0 0 0.09 0"/>
			<feBlend mode="normal" in2="BackgroundImageFix" result="effect1_dropShadow_13561_142824"/>
			<feBlend mode="normal" in="SourceGraphic" in2="effect1_dropShadow_13561_142824" result="shape"/>
		</filter>
		<filter id="filter2_d_13561_142824" x="60.3768" y="78.747" width="126.297" height="80.5512" filterUnits="userSpaceOnUse" color-interpolation-filters="sRGB">
			<feFlood flood-opacity="0" result="BackgroundImageFix"/>
			<feColorMatrix in="SourceAlpha" type="matrix" values="0 0 0 0 0 0 0 0 0 0 0 0 0 0 0 0 0 0 127 0" result="hardAlpha"/>
			<feOffset dy="3.26865"/>
			<feGaussianBlur stdDeviation="3.26865"/>
			<feComposite in2="hardAlpha" operator="out"/>
			<feColorMatrix type="matrix" values="0 0 0 0 0.392157 0 0 0 0 0.427451 0 0 0 0 0.482353 0 0 0 0.1 0"/>
			<feBlend mode="normal" in2="BackgroundImageFix" result="effect1_dropShadow_13561_142824"/>
			<feBlend mode="normal" in="SourceGraphic" in2="effect1_dropShadow_13561_142824" result="shape"/>
		</filter>
		<filter id="filter3_di_13561_142824" x="31.5762" y="47.1909" width="136.303" height="90.5566" filterUnits="userSpaceOnUse" color-interpolation-filters="sRGB">
			<feFlood flood-opacity="0" result="BackgroundImageFix"/>
			<feColorMatrix in="SourceAlpha" type="matrix" values="0 0 0 0 0 0 0 0 0 0 0 0 0 0 0 0 0 0 127 0" result="hardAlpha"/>
			<feOffset dy="2.27"/>
			<feGaussianBlur stdDeviation="5.77"/>
			<feComposite in2="hardAlpha" operator="out"/>
			<feColorMatrix type="matrix" values="0 0 0 0 0.392157 0 0 0 0 0.427451 0 0 0 0 0.482353 0 0 0 0.16 0"/>
			<feBlend mode="normal" in2="BackgroundImageFix" result="effect1_dropShadow_13561_142824"/>
			<feBlend mode="normal" in="SourceGraphic" in2="effect1_dropShadow_13561_142824" result="shape"/>
			<feColorMatrix in="SourceAlpha" type="matrix" values="0 0 0 0 0 0 0 0 0 0 0 0 0 0 0 0 0 0 127 0" result="hardAlpha"/>
			<feOffset dx="3"/>
			<feComposite in2="hardAlpha" operator="arithmetic" k2="-1" k3="1"/>
			<feColorMatrix type="matrix" values="0 0 0 0 0.592157 0 0 0 0 0.886275 0 0 0 0 0.980392 0 0 0 0.45 0"/>
			<feBlend mode="normal" in2="shape" result="effect2_innerShadow_13561_142824"/>
		</filter>
	</defs>
</svg>
