<svg width="218" height="178" viewBox="0 0 218 178" fill="none" xmlns="http://www.w3.org/2000/svg">
<path fill-rule="evenodd" clip-rule="evenodd" d="M156.909 5.08173C158.238 5.08173 159.315 4.0047 159.315 2.67612C159.315 1.34754 158.238 0.270508 156.909 0.270508C155.58 0.270508 154.503 1.34754 154.503 2.67612C154.503 4.0047 155.58 5.08173 156.909 5.08173ZM38.2039 25.8624C41.0841 25.8624 43.4189 23.5275 43.4189 20.6474C43.4189 17.7672 41.0841 15.4324 38.2039 15.4324C35.3237 15.4324 32.9889 17.7672 32.9889 20.6474C32.9889 23.5275 35.3237 25.8624 38.2039 25.8624ZM38.2039 22.9547C39.4782 22.9547 40.5112 21.9217 40.5112 20.6474C40.5112 19.3731 39.4782 18.34 38.2039 18.34C36.9296 18.34 35.8965 19.3731 35.8965 20.6474C35.8965 21.9217 36.9296 22.9547 38.2039 22.9547ZM11.7102 76.7733C15.5894 76.7733 18.7341 73.6286 18.7341 69.7494C18.7341 65.8702 15.5894 62.7255 11.7102 62.7255C7.83099 62.7255 4.68628 65.8702 4.68628 69.7494C4.68628 73.6286 7.83099 76.7733 11.7102 76.7733ZM11.7102 73.1075C13.5648 73.1075 15.0683 71.604 15.0683 69.7494C15.0683 67.8947 13.5648 66.3912 11.7102 66.3912C9.85555 66.3912 8.35206 67.8947 8.35206 69.7494C8.35206 71.604 9.85555 73.1075 11.7102 73.1075ZM190.039 165.155C192.801 165.155 195.04 162.916 195.04 160.154C195.04 157.393 192.801 155.154 190.039 155.154C187.278 155.154 185.039 157.393 185.039 160.154C185.039 162.916 187.278 165.155 190.039 165.155ZM190.039 162.553C191.364 162.553 192.438 161.479 192.438 160.154C192.438 158.83 191.364 157.756 190.039 157.756C188.715 157.756 187.641 158.83 187.641 160.154C187.641 161.479 188.715 162.553 190.039 162.553ZM110 178C157.496 178 196 139.496 196 91.9998C196 44.5033 157.496 5.99976 110 5.99976C62.5035 5.99976 24 44.5033 24 91.9998C24 139.496 62.5035 178 110 178ZM23.9588 171.988H7.24022C7.09716 171.988 6.95534 171.983 6.81493 171.972C3.03648 171.884 0.000190901 168.709 0 164.805C0.00109851 162.902 0.737676 161.077 2.04769 159.733C2.71919 159.043 3.51317 158.509 4.37699 158.152C4.36254 157.958 4.35518 157.763 4.35518 157.565C4.35637 155.558 5.13359 153.633 6.51587 152.214C7.89815 150.795 9.77226 149.999 11.7259 150C14.2285 150.003 16.438 151.289 17.7658 153.252C18.3964 153.022 19.0752 152.898 19.7823 152.898C22.9062 152.902 25.472 155.349 25.7694 158.479C28.7627 159.149 31.0026 161.89 31 165.166C30.9969 168.942 28.0168 172.001 24.3426 172C24.2138 172 24.0858 171.996 23.9588 171.988ZM201.138 38.992H213.003C213.093 38.9971 213.184 38.9997 213.275 38.9998C215.883 39.0008 217.998 36.9152 218 34.3407C218.002 32.1067 216.412 30.2382 214.288 29.7809C214.077 27.6471 212.256 25.9785 210.039 25.9758C209.537 25.9756 209.055 26.0606 208.608 26.2172C207.666 24.8788 206.098 24.0019 204.322 23.9998C202.935 23.9989 201.605 24.5419 200.624 25.5093C199.643 26.4767 199.092 27.7892 199.091 29.1581C199.091 29.2928 199.096 29.4262 199.106 29.5582C198.493 29.8015 197.93 30.1658 197.453 30.6358C196.524 31.5526 196.001 32.7966 196 34.0939C196 36.7558 198.155 38.9208 200.836 38.981C200.936 38.9883 201.037 38.992 201.138 38.992Z" fill="#E5F9FF"/>
<path opacity="0.5" d="M84.2344 29L90.7272 32.4628L97.22 29L103.713 32.4628L110.206 29L116.699 32.4628L123.191 29L129.684 32.4628L136.177 29V57.857H84.2344V29Z" fill="white"/>
<path opacity="0.5" fill-rule="evenodd" clip-rule="evenodd" d="M83.9771 28.5713C84.1277 28.4809 84.3147 28.4762 84.4697 28.5588L85.2813 28.9917L84.8107 29.874L84.7344 29.8333V30.0306H83.7344V29C83.7344 28.8244 83.8265 28.6616 83.9771 28.5713ZM136.434 28.5713C136.585 28.6616 136.677 28.8244 136.677 29V30.0306H135.677V29.8333L135.601 29.874L135.13 28.9917L135.942 28.5588C136.097 28.4762 136.284 28.4809 136.434 28.5713ZM96.9848 28.5588C97.1318 28.4804 97.3083 28.4804 97.4553 28.5588L98.2669 28.9917L97.7964 29.874L97.22 29.5667L96.6437 29.874L96.1731 28.9917L96.9848 28.5588ZM109.97 28.5588C110.117 28.4804 110.294 28.4804 110.441 28.5588L111.253 28.9917L110.782 29.874L110.206 29.5667L109.629 29.874L109.159 28.9917L109.97 28.5588ZM122.956 28.5588C123.103 28.4804 123.28 28.4804 123.427 28.5588L124.238 28.9917L123.768 29.874L123.191 29.5667L122.615 29.874L122.144 28.9917L122.956 28.5588ZM92.9267 30.7231L94.5499 29.8574L95.0205 30.7397L93.3973 31.6055L92.9267 30.7231ZM105.912 30.7231L107.536 29.8574L108.006 30.7397L106.383 31.6055L105.912 30.7231ZM118.898 30.7231L120.521 29.8574L120.992 30.7397L119.369 31.6055L118.898 30.7231ZM131.884 30.7231L133.507 29.8574L133.978 30.7397L132.354 31.6055L131.884 30.7231ZM86.9045 29.8574L88.5277 30.7231L88.0571 31.6055L86.4339 30.7397L86.9045 29.8574ZM99.8902 29.8574L101.513 30.7231L101.043 31.6055L99.4196 30.7397L99.8902 29.8574ZM112.876 29.8574L114.499 30.7231L114.028 31.6055L112.405 30.7397L112.876 29.8574ZM125.861 29.8574L127.485 30.7231L127.014 31.6055L125.391 30.7397L125.861 29.8574ZM90.7272 31.8962L90.1509 31.5888L89.6803 32.4712L90.4919 32.904C90.639 32.9825 90.8154 32.9825 90.9625 32.904L91.7741 32.4712L91.3035 31.5888L90.7272 31.8962ZM103.713 31.8962L103.137 31.5888L102.666 32.4712L103.478 32.904C103.625 32.9825 103.801 32.9825 103.948 32.904L104.76 32.4712L104.289 31.5888L103.713 31.8962ZM116.699 31.8962L116.122 31.5888L115.652 32.4712L116.463 32.904C116.61 32.9825 116.787 32.9825 116.934 32.904L117.745 32.4712L117.275 31.5888L116.699 31.8962ZM129.684 31.8962L129.108 31.5888L128.637 32.4712L129.449 32.904C129.596 32.9825 129.772 32.9825 129.92 32.904L130.731 32.4712L130.261 31.5888L129.684 31.8962ZM136.677 32.0918V34.153H135.677V32.0918H136.677ZM83.7344 34.153V32.0918H84.7344V34.153H83.7344ZM136.677 36.2143V38.2755H135.677V36.2143H136.677ZM83.7344 38.2755V36.2143H84.7344V38.2755H83.7344ZM83.7344 42.3979V40.3367H84.7344V42.3979H83.7344ZM136.677 40.3367V42.3979H135.677V40.3367H136.677ZM83.7344 46.5203V44.4591H84.7344V46.5203H83.7344ZM136.677 44.4591V46.5203H135.677V44.4591H136.677ZM83.7344 50.6428V48.5816H84.7344V50.6428H83.7344ZM136.677 48.5816V50.6428H135.677V48.5816H136.677ZM136.677 52.704V54.7652H135.677V52.704H136.677ZM83.7344 54.7652V52.704H84.7344V54.7652H83.7344ZM136.677 56.8264V57.857C136.677 58.1332 136.453 58.357 136.177 58.357H135.178V57.357H135.677V56.8264H136.677ZM83.7344 57.857V56.8264H84.7344V57.357H85.2333V58.357H84.2344C83.9582 58.357 83.7344 58.1332 83.7344 57.857ZM89.2289 58.357H87.2311V57.357H89.2289V58.357ZM93.2245 58.357H91.2267V57.357H93.2245V58.357ZM97.22 58.357H95.2222V57.357H97.22V58.357ZM101.216 58.357H99.2178V57.357H101.216V58.357ZM105.211 58.357H103.213V57.357H105.211V58.357ZM109.207 58.357H107.209V57.357H109.207V58.357ZM113.202 58.357H111.205V57.357H113.202V58.357ZM117.198 58.357H115.2V57.357H117.198V58.357ZM121.194 58.357H119.196V57.357H121.194V58.357ZM125.189 58.357H123.191V57.357H125.189V58.357ZM129.185 58.357H127.187V57.357H129.185V58.357ZM133.18 58.357H131.183V57.357H133.18V58.357Z" fill="#2FC6F6"/>
<g filter="url(#filter0_d_13445_66665)">
<path d="M137.948 46.2402C141.972 46.2402 145.261 49.2968 145.681 53.1759L145.727 54.019V95.26C145.727 95.4985 145.32 96.225 144.755 97.1419L142.435 100.817C141.956 101.596 141.58 102.256 141.448 102.626C141.415 102.772 141.398 102.922 141.398 103.072L141.397 144.741C141.397 148.766 138.34 152.054 134.461 152.474L133.618 152.52H87.1077C83.0831 152.52 79.795 149.464 79.3744 145.584L79.329 144.741V102.472C79.329 102.229 78.9211 101.498 78.3557 100.576L75.6981 96.3289C75.3847 95.7963 75.1487 95.3548 75.0503 95.0761C75.0169 94.9287 75 94.778 75 94.6269V54.019C75 49.9944 78.0566 46.7062 81.9357 46.2857L82.7787 46.2402H137.948Z" fill="white"/>
</g>
<path opacity="0.4" fill-rule="evenodd" clip-rule="evenodd" d="M142.435 100.817L144.755 97.1419C145.32 96.225 145.727 95.4985 145.727 95.26V54.019L145.681 53.1759C145.261 49.2968 141.972 46.2402 137.948 46.2402H82.7787L81.9357 46.2857C78.0566 46.7062 75 49.9944 75 54.019V94.6269C75 94.778 75.0169 94.9287 75.0503 95.0761C75.1487 95.3548 75.3847 95.7963 75.6981 96.3289L78.3557 100.576C78.9211 101.498 79.329 102.229 79.329 102.472V144.741L79.3744 145.584C79.795 149.464 83.0831 152.52 87.1077 152.52H133.618L134.461 152.474C138.34 152.054 141.397 148.766 141.397 144.741L141.398 103.072C141.398 102.922 141.415 102.772 141.448 102.626C141.58 102.256 141.956 101.596 142.435 100.817ZM134.372 151.388C137.695 151.014 140.307 148.19 140.307 144.741L140.308 103.072C140.308 102.84 140.335 102.609 140.386 102.383L140.401 102.321L140.422 102.261C140.599 101.761 141.045 100.998 141.506 100.247L141.514 100.235L143.827 96.5708C143.829 96.5691 143.83 96.5673 143.831 96.5656C144.108 96.1144 144.335 95.7299 144.489 95.4375C144.561 95.3019 144.609 95.202 144.637 95.1343V54.0482L144.595 53.2653C144.22 49.9427 141.397 47.3298 137.948 47.3298H82.8081L82.0249 47.372C78.7024 47.7465 76.0896 50.5703 76.0896 54.019V94.6269C76.0896 94.6761 76.0934 94.7253 76.1011 94.7739C76.1765 94.9563 76.3496 95.287 76.6297 95.7637L79.2845 100.006C79.5703 100.472 79.8289 100.911 80.0188 101.272C80.1131 101.451 80.2007 101.631 80.2674 101.797C80.3174 101.921 80.4185 102.184 80.4185 102.472V144.712L80.4607 145.495C80.8352 148.818 83.6589 151.43 87.1077 151.43H133.589L134.372 151.388Z" fill="#2FC6F6"/>
<path opacity="0.9" d="M84 69C84 65.6863 86.6863 63 90 63H131C134.314 63 137 65.6863 137 69V84C137 87.3137 134.314 90 131 90H90C86.6863 90 84 87.3137 84 84V69Z" fill="#2FC6F6"/>
<path d="M116.687 68.6739C117.76 67.6416 119.459 67.6472 120.525 68.6865C121.64 69.773 121.636 71.566 120.516 72.6471L108.521 84.2247C107.966 84.761 107.085 84.7608 106.53 84.2241L101.042 78.9202C99.9217 77.8378 99.9179 76.044 101.033 74.9569C102.1 73.9176 103.798 73.9109 104.872 74.9417L107.525 77.4866L116.687 68.6739Z" fill="white"/>
<path opacity="0.9" d="M128.731 52.5437C128.621 52.5263 128.509 52.5176 128.397 52.5176H92.435C91.6378 52.5176 91 53.3987 91 54.5C91 55.3659 91.3943 56.0957 91.9503 56.3681C92.0498 56.4169 92.1595 56.4391 92.269 56.4563C92.3795 56.4737 92.4912 56.4824 92.6031 56.4824H128.565C129.362 56.4824 130 55.6013 130 54.5C130 53.634 129.606 52.9043 129.05 52.6319C128.95 52.5831 128.841 52.5609 128.731 52.5437Z" fill="#2FC6F6"/>
<g opacity="0.5">
<path d="M96.6243 129.674H91.0905C89.1352 129.674 87.5488 131.26 87.5488 133.215C87.5488 135.171 89.1351 136.757 91.0905 136.757H96.6243C98.5794 136.757 100.166 135.171 100.166 133.215C100.166 131.26 98.5794 129.674 96.6243 129.674Z" fill="#2FC6F6"/>
<path d="M113.152 129.672H107.618C105.663 129.672 104.076 131.259 104.076 133.214C104.076 135.169 105.663 136.755 107.618 136.755H113.152C115.107 136.755 116.693 135.169 116.693 133.214C116.693 131.259 115.107 129.672 113.152 129.672Z" fill="#2FC6F6"/>
<path d="M129.68 129.672H124.146C122.19 129.672 120.604 131.259 120.604 133.214C120.604 134.952 121.858 136.398 123.509 136.698L124.146 136.755H129.68C131.635 136.755 133.222 135.169 133.222 133.214C133.222 131.476 131.968 130.029 130.316 129.729L129.68 129.672Z" fill="#2FC6F6"/>
<path d="M96.6243 116.761H91.0905C89.1352 116.761 87.5488 118.347 87.5488 120.303C87.5488 122.258 89.1351 123.844 91.0905 123.844H96.6243C98.5794 123.844 100.166 122.258 100.166 120.303C100.166 118.347 98.5794 116.761 96.6243 116.761Z" fill="#2FC6F6"/>
<path d="M113.152 116.76H107.618C105.663 116.76 104.076 118.346 104.076 120.302C104.076 122.04 105.33 123.486 106.982 123.786L107.618 123.843H113.152C115.107 123.843 116.693 122.257 116.693 120.302C116.693 118.564 115.44 117.117 113.788 116.817L113.152 116.76Z" fill="#2FC6F6"/>
<path d="M129.68 116.76H124.146C122.19 116.76 120.604 118.346 120.604 120.302C120.604 122.257 122.19 123.843 124.146 123.843H129.68C131.635 123.843 133.222 122.257 133.222 120.302C133.222 118.346 131.635 116.76 129.68 116.76Z" fill="#2FC6F6"/>
<path d="M113.152 103.811H107.618C105.663 103.811 104.076 105.397 104.076 107.352C104.076 109.307 105.663 110.894 107.618 110.894H113.152C115.107 110.894 116.693 109.307 116.693 107.352C116.693 105.397 115.107 103.811 113.152 103.811Z" fill="#2FC6F6"/>
<path d="M96.6243 103.812H91.0905C89.1352 103.812 87.5488 105.398 87.5488 107.354C87.5488 109.091 88.8022 110.538 90.454 110.838L91.0905 110.895H96.6243C98.5794 110.895 100.166 109.308 100.166 107.354C100.166 105.615 98.9124 104.169 97.2607 103.869L96.6243 103.812Z" fill="#2FC6F6"/>
<path d="M129.68 103.811H124.146C122.19 103.811 120.604 105.397 120.604 107.352C120.604 109.09 121.858 110.537 123.509 110.837L124.146 110.894H129.68C131.635 110.894 133.222 109.307 133.222 107.352C133.222 105.614 131.968 104.168 130.316 103.868L129.68 103.811Z" fill="#2FC6F6"/>
</g>
<defs>
<filter id="filter0_d_13445_66665" x="63.46" y="36.9702" width="93.8066" height="129.359" filterUnits="userSpaceOnUse" color-interpolation-filters="sRGB">
<feFlood flood-opacity="0" result="BackgroundImageFix"/>
<feColorMatrix in="SourceAlpha" type="matrix" values="0 0 0 0 0 0 0 0 0 0 0 0 0 0 0 0 0 0 127 0" result="hardAlpha"/>
<feOffset dy="2.27"/>
<feGaussianBlur stdDeviation="5.77"/>
<feComposite in2="hardAlpha" operator="out"/>
<feColorMatrix type="matrix" values="0 0 0 0 0.392157 0 0 0 0 0.427451 0 0 0 0 0.482353 0 0 0 0.16 0"/>
<feBlend mode="normal" in2="BackgroundImageFix" result="effect1_dropShadow_13445_66665"/>
<feBlend mode="normal" in="SourceGraphic" in2="effect1_dropShadow_13445_66665" result="shape"/>
</filter>
</defs>
</svg>
