<svg width="10" height="10" viewBox="0 0 10 10" fill="none" xmlns="http://www.w3.org/2000/svg">
	<path fill-rule="evenodd" clip-rule="evenodd" d="M6.24718 4.99999L9.05911 7.81192C9.29343 8.04624 9.29343 8.42614 9.05911 8.66045L8.66045 9.05911C8.42614 9.29343 8.04624 9.29343 7.81192 9.05911L4.99999 6.24718L2.18806 9.05911C1.95374 9.29343 1.57384 9.29343 1.33953 9.05911L0.940866 8.66045C0.706552 8.42614 0.706551 8.04624 0.940866 7.81192L3.7528 4.99999L0.940866 2.18806C0.706551 1.95374 0.706551 1.57384 0.940866 1.33953L1.33953 0.940865C1.57384 0.706551 1.95374 0.706551 2.18806 0.940866L4.99999 3.7528L7.81192 0.940866C8.04624 0.706551 8.42614 0.706551 8.66045 0.940866L9.05911 1.33953C9.29343 1.57384 9.29343 1.95374 9.05911 2.18806L6.24718 4.99999Z" fill="#525C69"/>
</svg>