<svg width="8" height="8" viewBox="0 0 8 8" version="1.1" xmlns="http://www.w3.org/2000/svg" xmlns:xlink="http://www.w3.org/1999/xlink">
<title>Shape</title>
<desc>Created using Figma</desc>
<g id="Canvas" transform="translate(-5201 -200)">
<g id="Shape" opacity="0.2">
<use xlink:href="#path0_fill" transform="translate(5201 200)" fill="#525C69"/>
</g>
</g>
<defs>
<path id="path0_fill" d="M 6.31579 0.315789L 4 2.63158L 1.68421 0.315789C 1.26316 -0.105263 0.736842 -0.105263 0.315789 0.315789C -0.105263 0.736842 -0.105263 1.26316 0.315789 1.68421L 2.63158 4L 0.315789 6.31579C -0.105263 6.73684 -0.105263 7.26316 0.315789 7.68421C 0.736842 8.10526 1.26316 8.10526 1.68421 7.68421L 4 5.36842L 6.31579 7.68421C 6.73684 8.10526 7.26316 8.10526 7.68421 7.68421C 8.10526 7.26316 8.10526 6.73684 7.68421 6.31579L 5.36842 4L 7.68421 1.68421C 8.10526 1.26316 8.10526 0.736842 7.68421 0.315789C 7.26316 0 6.63158 0 6.31579 0.315789Z"/>
</defs>
</svg>
