<svg width="20" height="20" viewBox="0 0 20 20" fill="none" xmlns="http://www.w3.org/2000/svg">
<path d="M15.7486 4.80729V5.63469L15.004 6.37927H4.87858C4.51039 6.37927 4.21191 6.08079 4.21191 5.7126V4.80729C4.21191 4.4391 4.51039 4.14062 4.87858 4.14062H15.0819C15.4501 4.14062 15.7486 4.4391 15.7486 4.80729Z" fill="#2FC6F6"/>
<path d="M4.87858 8.85419H12.5291L10.2904 11.0928H4.87858C4.51039 11.0928 4.21191 10.7944 4.21191 10.4262V9.52085C4.21191 9.15266 4.51039 8.85419 4.87858 8.85419Z" fill="#2FC6F6"/>
<path d="M4.87858 13.5695H8.67747C8.48207 14.3012 8.47159 15.0721 8.646 15.8081H4.87858C4.51039 15.8081 4.21191 15.5096 4.21191 15.1414V14.2361C4.21191 13.8679 4.51039 13.5695 4.87858 13.5695Z" fill="#2FC6F6"/>
<path d="M16.4769 7.82633C16.7082 7.59499 17.0833 7.59499 17.3146 7.82633L18.1049 8.61659C18.3362 8.84793 18.3362 9.22301 18.1049 9.45435L12.9077 14.6515L11.2797 13.0235L16.4769 7.82633Z" fill="#2FC6F6"/>
<path d="M12.5866 14.9732L10.5225 15.4085L10.9573 13.3462L12.5866 14.9732Z" fill="#2FC6F6"/>
</svg>
