<svg xmlns="http://www.w3.org/2000/svg" width="97" height="77" viewBox="0 0 97 77" fill="none">
	<path d="M58.8745 56.5272C58.8745 60.5282 55.734 63.8247 51.7377 64.0184L9.01702 66.0897C4.73729 66.2972 1.15381 62.8833 1.15381 58.5985V9.66501C1.15381 5.10758 5.18497 1.60353 9.69802 2.23806L52.4187 8.24447C56.121 8.765 58.8745 11.9327 58.8745 15.6714V56.5272Z" fill="#CAFFE7" stroke="#1BCE7B"/>
	<path d="M27.4631 15.9115L27.463 15.9116C24.2618 18.2165 23.1186 23.2329 24.0033 27.8287C24.8868 32.419 27.7178 36.2516 32.1091 36.4303C34.5771 36.5306 36.4819 35.3555 37.8048 33.4658C39.1379 31.5615 39.8688 28.9387 39.9228 26.2332C39.9768 23.5293 39.3534 20.7956 38.0391 18.6748C36.7319 16.5657 34.7472 15.0657 32.0337 14.7637L27.4631 15.9115ZM27.4631 15.9115C27.9554 15.5568 28.7008 15.2216 29.5388 14.9992M27.4631 15.9115L29.5388 14.9992M46.138 53.6976L46.1379 53.6972C45.8648 49.0033 44.0643 46.0765 41.5272 44.2819C38.9648 42.4694 35.5871 41.7666 32.0943 41.6716C28.6064 41.5767 24.8944 42.1425 21.9866 43.9858C19.1075 45.8109 16.958 48.9245 16.6285 54.0718C16.597 54.5735 16.9676 54.9238 17.3573 54.9173L17.3575 54.9173L45.5995 54.4558L45.6001 54.4558M46.138 53.6976L45.6082 54.9557L45.6001 54.4558M46.138 53.6976C46.1663 54.1783 45.8426 54.4512 45.6001 54.4558M46.138 53.6976L45.6001 54.4558M29.5388 14.9992C30.3747 14.7772 31.2629 14.6782 32.0335 14.7637L29.5388 14.9992Z" fill="white" stroke="#1BCE7B"/>
	<path d="M57.5592 74.9112C57.5592 74.9112 57.5592 74.9113 57.5592 74.9113C57.6095 74.8971 57.656 74.8752 57.6978 74.8473C57.6557 74.8752 57.6091 74.8969 57.5592 74.9112ZM59.9219 76.108C59.0499 76.1903 58.1909 75.5548 57.9197 74.3747C57.9178 74.3581 57.9151 74.3414 57.9116 74.3247L57.9115 74.3244L52.4721 48.8461L52.4721 48.8459C52.1863 47.5087 52.6305 46.3249 53.3581 45.6386C54.0758 44.9617 55.0537 44.7677 55.9753 45.3404C55.9754 45.3404 55.9754 45.3404 55.9754 45.3404L63.0024 49.7095L63.0026 49.7096C63.8229 50.2193 64.7448 50.2803 65.5625 49.9543C66.3738 49.6308 67.0508 48.941 67.4426 48.0026L67.4427 48.0024L73.7952 32.766L73.7952 32.766C74.2138 31.7618 74.9406 31.3839 75.5951 31.4264C76.2647 31.4698 77.0183 31.9638 77.4378 33.0373L77.4378 33.0373L83.3302 48.1125C83.6738 48.9914 84.2662 49.6498 84.9887 49.9638C85.7227 50.2828 86.5501 50.2256 87.2722 49.7388C87.2723 49.7387 87.2723 49.7387 87.2724 49.7387L93.2414 45.7178C93.5579 45.5048 93.8579 45.4543 94.1274 45.5009C94.4049 45.5489 94.6909 45.7076 94.948 45.9818C95.4657 46.534 95.8117 47.5043 95.6538 48.6197L95.6537 48.6198L92.4657 71.1768L92.4656 71.177C92.2946 72.3906 91.558 73.1416 90.8965 73.2032L90.8962 73.2033L75.5889 74.6391L59.9222 76.108L59.9219 76.108Z" fill="#E6F4FF" stroke="#0075FF"/>
</svg>