<svg xmlns="http://www.w3.org/2000/svg" width="88" height="82" viewBox="0 0 88 82" fill="none">
	<path d="M58.4131 56.5272C58.4131 60.5282 55.2725 63.8247 51.2763 64.0184L8.55559 66.0897C4.27586 66.2972 0.692383 62.8833 0.692383 58.5985V9.66501C0.692383 5.10758 4.72355 1.60353 9.23659 2.23806L51.9573 8.24447C55.6596 8.765 58.4131 11.9327 58.4131 15.6714V56.5272Z" fill="#CAFFE7" stroke="#1BCE7B"/>
	<path d="M27.0017 15.9115L27.0016 15.9116C23.8004 18.2165 22.6572 23.2329 23.5418 27.8287C24.4254 32.419 27.2564 36.2516 31.6477 36.4303C34.1157 36.5306 36.0205 35.3555 37.3434 33.4658C38.6765 31.5615 39.4074 28.9387 39.4614 26.2332C39.5154 23.5293 38.892 20.7956 37.5777 18.6748C36.2705 16.5657 34.2858 15.0657 31.5722 14.7637L27.0017 15.9115ZM27.0017 15.9115C27.494 15.5568 28.2394 15.2216 29.0773 14.9992M27.0017 15.9115L29.0773 14.9992M45.6765 53.6976L45.6765 53.6972C45.4034 49.0033 43.6028 46.0765 41.0658 44.2819C38.5034 42.4694 35.1257 41.7666 31.6329 41.6716C28.145 41.5767 24.433 42.1425 21.5252 43.9858C18.6461 45.8109 16.4966 48.9245 16.1671 54.0718C16.1356 54.5735 16.5062 54.9238 16.8959 54.9173L16.8961 54.9173L45.1381 54.4558L45.1386 54.4558M45.6765 53.6976L45.1468 54.9557L45.1386 54.4558M45.6765 53.6976C45.7049 54.1783 45.3811 54.4512 45.1386 54.4558M45.6765 53.6976L45.1386 54.4558M29.0773 14.9992C29.9133 14.7772 30.8015 14.6782 31.5721 14.7637L29.0773 14.9992Z" fill="white" stroke="#1BCE7B"/>
	<path fill-rule="evenodd" clip-rule="evenodd" d="M41.9963 71.2348L63.1034 43.7408C61.9194 37.7879 63.1034 31.2958 66.4931 27.0042C71.5073 20.6548 79.4003 21.3313 84.0408 28.1546C88.5514 34.7858 88.5514 45.152 84.0408 51.5225C80.8912 55.971 76.4871 57.4086 72.2942 56.0009L67.8504 62.1089C67.7205 62.2886 67.5472 62.4014 67.3631 62.4296L64.2189 62.9C63.9012 62.9475 63.6287 63.2417 63.5276 63.6452L62.728 66.8481C62.6269 67.2515 62.3562 67.5492 62.0385 67.6038L56.8511 68.5041C56.4666 68.5711 56.1562 68.9692 56.102 69.4678L55.6959 73.1604C55.6418 73.652 55.3385 74.0519 54.9595 74.1329L50.8496 75.0156C50.4652 75.0984 50.1547 75.4965 50.0933 75.9881L49.6222 79.767C49.5464 80.3731 49.1024 80.8205 48.6277 80.7659C48.6169 80.7659 48.6061 80.7624 48.5952 80.7607L43.5684 79.9379C43.2129 79.8798 42.9349 79.5574 42.8645 79.1187L41.749 72.2637C41.6895 71.899 41.7833 71.5132 41.9963 71.2348ZM81.0175 39.8685C82.5716 37.7509 82.5716 34.4476 81.0175 32.2031C79.449 29.9375 77.0214 29.7948 75.4132 31.9089C73.7887 34.0441 73.7887 37.439 75.4132 39.7064C77.0196 41.9491 79.4472 42.0055 81.0175 39.8667V39.8685Z" fill="#E6F4FF" stroke="#0075FF"/>
</svg>