<svg xmlns="http://www.w3.org/2000/svg" width="79" height="104" viewBox="0 0 79 104" fill="none">
	<path d="M50.683 88.2297C50.683 92.0267 47.8452 95.2248 44.0752 95.6765L9.39221 99.8319C4.92827 100.367 1 96.881 1 92.3851V9.56603C1 5.14341 4.80722 1.68106 9.20997 2.09972L43.8929 5.39773C47.7427 5.7638 50.683 8.99694 50.683 12.864V88.2297Z" fill="#CAFFE7" stroke="#1BCE7B"/>
	<path opacity="0.32" fill-rule="evenodd" clip-rule="evenodd" d="M35.5536 11.8251C35.5536 13.2355 34.3571 14.3497 32.9503 14.2495L21.0248 13.3997C19.7183 13.3066 18.7059 12.2195 18.7059 10.9097C18.7059 9.45023 19.9525 8.30203 21.4071 8.42177L33.3225 9.4027C34.5833 9.50649 35.5536 10.56 35.5536 11.8251Z" fill="#1BCE7B"/>
	<path opacity="0.23" fill-rule="evenodd" clip-rule="evenodd" d="M37.6102 92.2694C37.6102 92.7236 37.2686 93.1052 36.8171 93.1552L17.495 95.2956C16.9437 95.3566 16.4617 94.925 16.4617 94.3704C16.4617 93.8945 16.8206 93.4952 17.2938 93.4448L36.6245 91.3833C37.1511 91.3272 37.6102 91.7399 37.6102 92.2694Z" fill="#1BCE7B"/>
	<path d="M20.4922 28.4492C20.4922 31.4531 18.0219 33.8693 15.0187 33.8028C12.1082 33.7384 9.78235 31.3605 9.78235 28.4492V27.4111C9.78235 24.3505 12.343 21.9125 15.3999 22.0626C18.2518 22.2026 20.4922 24.5557 20.4922 27.4111V28.4492Z" fill="white" stroke="#1BCE7B"/>
	<path fill-rule="evenodd" clip-rule="evenodd" d="M43.7708 23.3413C43.7708 23.7702 43.4126 24.1121 42.9843 24.0921L26.1546 23.308C25.7237 23.2879 25.3846 22.9327 25.3846 22.5013C25.3846 22.0385 25.7729 21.6703 26.2351 21.6949L43.0592 22.5908C43.4582 22.6121 43.7708 22.9418 43.7708 23.3413Z" fill="#1BCE7B"/>
	<path fill-rule="evenodd" clip-rule="evenodd" d="M35.553 29.24C35.553 29.6797 35.1891 30.0321 34.7496 30.0182L25.8889 29.7365C25.4515 29.7226 25.104 29.3639 25.104 28.9262C25.104 28.4661 25.4865 28.0982 25.9463 28.1161L34.8047 28.462C35.2226 28.4783 35.553 28.8218 35.553 29.24Z" fill="#1BCE7B"/>
	<g opacity="0.64">
		<path d="M20.4922 47.5014C20.4922 50.421 18.1536 52.8025 15.2346 52.8555C12.2395 52.9099 9.78235 50.497 9.78235 47.5014V46.197C9.78235 43.2211 12.2088 40.816 15.1846 40.8423C18.1235 40.8683 20.4922 43.258 20.4922 46.197V47.5014Z" fill="white" stroke="#1BCE7B"/>
		<path fill-rule="evenodd" clip-rule="evenodd" d="M43.5077 41.906C43.5077 42.3225 43.1694 42.6598 42.7529 42.6586L25.913 42.6106C25.4658 42.6093 25.104 42.2465 25.104 41.7993C25.104 41.3482 25.4721 40.9837 25.9233 40.9881L42.7624 41.1534C43.1752 41.1574 43.5077 41.4932 43.5077 41.906Z" fill="#1BCE7B"/>
		<path fill-rule="evenodd" clip-rule="evenodd" d="M35.553 48.1527C35.553 48.5808 35.2085 48.9293 34.7804 48.9344L25.9249 49.0381C25.4731 49.0434 25.104 48.6786 25.104 48.2267C25.104 47.7802 25.4648 47.4176 25.9113 47.4154L34.7673 47.3709C35.2006 47.3687 35.553 47.7194 35.553 48.1527Z" fill="#1BCE7B"/>
	</g>
	<g opacity="0.44">
		<path d="M20.4922 67.7561C20.4922 70.5945 18.2774 72.9399 15.4436 73.1022C12.3708 73.2783 9.78235 70.8339 9.78235 67.7561V66.822C9.78235 63.9292 12.0798 61.5593 14.9712 61.4696C17.9923 61.3758 20.4922 63.7994 20.4922 66.822V67.7561Z" fill="white" stroke="#1BCE7B"/>
		<path fill-rule="evenodd" clip-rule="evenodd" d="M43.5077 60.526C43.5077 60.931 43.1882 61.2638 42.7836 61.2803L25.948 61.968C25.4875 61.9868 25.104 61.6186 25.104 61.1578C25.104 60.7208 25.4504 60.3624 25.8872 60.3474L42.727 59.7715C43.1538 59.7569 43.5077 60.099 43.5077 60.526Z" fill="#1BCE7B"/>
		<path fill-rule="evenodd" clip-rule="evenodd" d="M35.553 67.1205C35.553 67.535 35.2291 67.8772 34.8153 67.9L25.959 68.389C25.4946 68.4147 25.104 68.045 25.104 67.5799C25.104 67.1477 25.4433 66.7915 25.8751 66.7706L34.7344 66.3407C35.1799 66.3191 35.553 66.6745 35.553 67.1205Z" fill="#1BCE7B"/>
	</g>
	<path fill-rule="evenodd" clip-rule="evenodd" d="M67.8095 49.2131C67.8095 48.1049 66.9084 47.208 65.8003 47.2131L58.3606 47.2472C57.2597 47.2523 56.3698 48.1462 56.3698 49.2472V76.5402L47.8052 77.187C46.2489 77.3045 45.4209 79.08 46.3313 80.3478L60.9278 100.675C61.7821 101.865 63.5832 101.763 64.298 100.485L76.8128 78.1026C77.5913 76.7103 76.5064 75.0115 74.9157 75.1323L67.8095 75.6719V49.2131Z" fill="#E6F4FF" stroke="#0075FF"/>
</svg>