<svg width="18" height="13" viewBox="0 0 18 13" fill="none" xmlns="http://www.w3.org/2000/svg">
	<path fill-rule="evenodd" clip-rule="evenodd" d="M1.27167 0.216309H16.7287C17.1276 0.216309 17.451 0.525187 17.451 0.906211C17.451 0.983442 17.4374 1.06013 17.4108 1.13306L16.9438 2.41432C16.8427 2.69158 16.569 2.87737 16.2617 2.87737H1.73492C1.42689 2.87737 1.15276 2.69078 1.05221 2.41268L0.588958 1.13142C0.458741 0.771272 0.658841 0.378481 1.03589 0.254101C1.11174 0.22908 1.19143 0.216309 1.27167 0.216309ZM3.81753 5.13529H14.1828C14.5817 5.13529 14.9051 5.44417 14.9051 5.8252C14.9051 5.90792 14.8895 5.98996 14.8591 6.06741L14.3562 7.34867C14.2505 7.61795 13.981 7.79636 13.6799 7.79636H4.29373C3.98799 7.79636 3.71536 7.61247 3.61307 7.33726L3.13687 6.056C3.00341 5.69694 3.19997 5.30252 3.57588 5.17504C3.65347 5.14873 3.7352 5.13529 3.81753 5.13529ZM7.03557 10.0697H10.9648C11.3637 10.0697 11.6871 10.3786 11.6871 10.7596C11.6871 10.8267 11.6768 10.8935 11.6566 10.9578L11.2543 12.239C11.1627 12.5309 10.8815 12.7308 10.5625 12.7308H7.48144C7.17033 12.7308 6.89417 12.5405 6.79604 12.2585L6.35017 10.9772C6.22434 10.6157 6.42921 10.2251 6.80775 10.1049C6.88122 10.0816 6.95815 10.0697 7.03557 10.0697Z" fill="#525C69"/>
</svg>