<svg viewBox="0 0 125 125" fill="none" xmlns="http://www.w3.org/2000/svg"><g opacity=".5" fill="#2066B0"><path d="M28.785 82.02 82.02 28.784l13.802 13.802-53.234 53.234L28.785 82.02Z"/><path fill-rule="evenodd" clip-rule="evenodd" d="M62.5 4.297C30.356 4.297 4.297 30.355 4.297 62.5c0 32.144 26.059 58.203 58.203 58.203 32.145 0 58.203-26.059 58.203-58.203 0-32.145-26.058-58.203-58.203-58.203ZM.04 62.5C.039 28.003 28.004.038 62.5.038c34.497 0 62.462 27.965 62.462 62.462 0 34.496-27.965 62.462-62.462 62.462C28.004 124.962.04 96.996.04 62.5Z"/><path fill-rule="evenodd" clip-rule="evenodd" d="M62.5 26.833c-19.698 0-35.667 15.969-35.667 35.667S42.802 98.167 62.5 98.167 98.167 82.198 98.167 62.5 82.198 26.833 62.5 26.833ZM23.64 62.5c0-21.462 17.398-38.861 38.86-38.861 21.463 0 38.861 17.399 38.861 38.861 0 21.462-17.398 38.861-38.86 38.861-21.463 0-38.862-17.399-38.862-38.861Z"/><path fill-rule="evenodd" clip-rule="evenodd" d="M62.5 15.476c-25.97 0-47.023 21.054-47.023 47.024a.887.887 0 1 1-1.775 0c0-26.95 21.848-48.798 48.798-48.798a.887.887 0 1 1 0 1.774Zm47.911 46.137c.49 0 .887.397.887.887 0 26.95-21.847 48.798-48.798 48.798a.887.887 0 1 1 0-1.774c25.97 0 47.024-21.054 47.024-47.024 0-.49.397-.887.887-.887Z"/><path d="M99.764 30.56a1.775 1.775 0 1 1-3.549 0 1.775 1.775 0 0 1 3.55 0ZM30.56 96.215a1.774 1.774 0 1 1-3.55 0 1.774 1.774 0 0 1 3.55 0ZM52.48 72.22a.887.887 0 0 1 0-1.255l20.26-20.259a.887.887 0 1 1 1.255 1.255L53.734 72.22a.887.887 0 0 1-1.254 0Z"/></g></svg>