<svg xmlns="http://www.w3.org/2000/svg" width="13" height="345" viewBox="0 0 13 345"><g fill="none" fill-rule="evenodd"><path fill="#525C68" d="M.8 59.157L0 62l2.933-.842c-.183-.458-.45-.877-.792-1.233-.38-.356-.84-.618-1.34-.768zm6.49-6.56l-5.737 5.735c.476.228.917.52 1.312.87.325.378.596.798.806 1.25.354-.356 3.984-3.985 5.732-5.733-.222-.492-.525-.943-.895-1.334-.355-.336-.77-.602-1.22-.786l.002-.003zm3.278-1.163c-.29-.286-.683-.442-1.09-.434-.408.01-.794.18-1.072.48l-.344.343c.458.195.878.47 1.24.813.363.383.66.825.876 1.307l.346-.346c.297-.28.47-.665.477-1.073.01-.407-.148-.8-.435-1.09h.003z"/><g fill="#717A84" transform="translate(0 68)"><rect width="12" height="2" rx="1"/><rect width="12" height="2" y="4" rx="1"/><rect width="12" height="2" y="8" rx="1"/></g><path fill="#535C68" d="M4.456 90.253L2.42 88.177c-.03-.03-.07-.046-.11-.046-.042 0-.08.017-.11.047l-1.154 1.177c-.06.063-.06.163 0 .225l2.12 2.16c.006.01.014.02.023.03l1.153 1.178c.03.03.068.047.11.047.04 0 .08-.017.11-.047l5.386-5.5c.06-.062.06-.162 0-.225l-1.155-1.177c-.03-.03-.07-.046-.11-.046-.042 0-.08.017-.11.047l-4.12 4.206z"/><path fill="#737983" d="M1.084 160.078l5.59 5.59c.055.056.128.086.204.086.077 0 .15-.03.204-.085l.923-.924c.112-.112.112-.294 0-.407l-4.465-4.465 4.465-4.465c.112-.112.112-.294 0-.407l-.923-.92c-.113-.11-.295-.11-.407 0l-4.668 4.67-.923.922c-.08.082-.106.204-.063.31v.01c.016.03.038.06.064.083zM7.916 197.922l-5.59-5.59c-.055-.056-.128-.086-.204-.086-.077 0-.15.03-.204.085l-.923.924c-.112.112-.112.294 0 .407l4.465 4.465-4.465 4.465c-.112.112-.112.294 0 .407l.923.92c.113.11.295.11.407 0l4.668-4.67.923-.922c.08-.082.106-.204.063-.31v-.01c-.016-.03-.038-.06-.064-.083z"/><path fill="#175DD1" d="M1.084 238.078l5.59 5.59c.055.056.128.086.204.086.077 0 .15-.03.204-.085l.923-.924c.112-.112.112-.294 0-.407l-4.465-4.465 4.465-4.465c.112-.112.112-.294 0-.407l-.923-.92c-.113-.11-.295-.11-.407 0l-4.668 4.67-.923.922c-.08.082-.106.204-.063.31v.01c.016.03.038.06.064.083zM7.916 275.078l-5.59 5.59c-.055.056-.128.086-.204.086-.077 0-.15-.03-.204-.085l-.923-.924c-.112-.112-.112-.294 0-.407l4.465-4.465-4.465-4.465c-.112-.112-.112-.294 0-.407l.923-.92c.113-.11.295-.11.407 0l4.668 4.67.923.922c.08.082.106.204.063.31v.01c-.016.03-.038.06-.064.083z"/><path fill="#40C7F7" d="M10.284 109.866l-.25 1.1c-.028.127-.11.236-.226.297-.115.062-.25.07-.373.022l-1.055-.4c-.17-.065-.364-.02-.488.114l-.767.83c-.088.095-.213.148-.343.144-.13-.005-.25-.065-.332-.166l-.713-.877c-.116-.14-.305-.198-.48-.144l-1.08.336c-.123.04-.257.022-.368-.047-.11-.068-.186-.18-.206-.31l-.18-1.115c-.028-.18-.164-.325-.342-.365l-1.1-.25c-.128-.027-.237-.11-.298-.225-.062-.116-.07-.252-.022-.374l.4-1.055c.066-.17.02-.363-.114-.487l-.83-.767c-.095-.088-.148-.213-.144-.342.005-.13.065-.25.165-.333l.876-.712c.142-.115.2-.305.145-.48l-.335-1.08c-.038-.123-.02-.257.048-.367.068-.11.18-.184.31-.205l1.114-.18c.18-.028.326-.164.366-.342l.25-1.1c.027-.126.11-.234.223-.296.115-.06.25-.07.37-.024l1.057.4c.17.065.364.02.488-.115l.768-.83c.088-.095.213-.148.342-.144.13.005.25.065.333.165l.713.876c.115.142.305.2.48.145l1.08-.335c.123-.038.257-.02.367.048.11.068.185.18.206.31l.178 1.115c.03.18.165.325.343.365l1.1.25c.13.027.237.11.3.226.06.114.068.25.02.372l-.4 1.056c-.065.17-.02.364.114.488l.83.767c.096.088.15.213.145.343-.006.13-.066.25-.167.332l-.877.713c-.14.116-.2.306-.145.48l.337 1.08c.04.124.022.258-.047.37-.068.11-.18.184-.31.204l-1.115.18c-.18.03-.322.165-.36.342z"/><path fill="#FFF" d="M8.01 103.007H6.037l.29 3.08H7.72l.29-3.08zm-1.733 5.78c.212.16.475.24.74.224.264.017.524-.065.73-.23.35-.35.35-.915 0-1.266-.227-.12-.476-.195-.732-.223-.26.027-.513.1-.747.22-.344.357-.34.923.01 1.276z" opacity=".9"/><path fill="#1058D0" d="M4.452 124.253l-2.036-2.076c-.03-.03-.07-.047-.11-.047-.04 0-.08.017-.11.047l-1.154 1.177c-.06.063-.06.162 0 .225l2.12 2.16c.006.01.014.02.023.03l1.154 1.178c.028.03.068.047.11.047.04 0 .08-.017.11-.047l5.385-5.5c.06-.063.06-.162 0-.225l-1.154-1.177c-.028-.03-.068-.046-.11-.046-.04 0-.08.017-.11.047l-4.118 4.206z"/><g transform="translate(0 305)"><path fill="#9599A4" d="M6 0l6 10H0"/><rect width="2" height="3" x="5" y="3" fill="#D3DADE" rx="1"/><rect width="2" height="2" x="5" y="7" fill="#D3DADE" rx="1"/></g><path fill="#545C6A" d="M11.654 23.56v-1.467h-1.42c-.11-.69-.374-1.326-.763-1.872l.996-.995-1.037-1.037-.996.995c-.542-.394-1.174-.662-1.863-.78V17H5.106v1.4c-.696.113-1.334.378-1.882.77l-.99-.99-1.038 1.038.99.988c-.397.55-.663 1.19-.777 1.887H0v1.467h1.41c.117.69.385 1.325.778 1.87l-1 .998 1.037 1.037 1-1c.55.39 1.188.652 1.88.765v1.425H6.57v-1.43c.688-.114 1.318-.382 1.86-.772l1.005 1.006 1.04-1.038-1.01-1.008c.388-.54.653-1.17.768-1.854h1.42zM5.82 25.6c-1.536 0-2.782-1.247-2.782-2.784 0-1.54 1.246-2.785 2.783-2.785 1.54 0 2.785 1.247 2.785 2.786 0 1.537-1.246 2.784-2.784 2.784z"/><path fill="#FFF" d="M11.654 6.56V5.093h-1.42c-.11-.69-.374-1.326-.763-1.872l.996-.995L9.43 1.188l-.996.995c-.542-.394-1.174-.662-1.863-.78V0H5.106v1.4c-.696.113-1.334.378-1.882.77l-.99-.99-1.038 1.038.99.988c-.397.55-.663 1.19-.777 1.887H0V6.56h1.41c.117.69.385 1.325.778 1.87l-1 .998 1.037 1.037 1-1c.55.39 1.188.652 1.88.765v1.425H6.57v-1.43c.688-.114 1.318-.382 1.86-.772l1.005 1.006 1.04-1.038-1.01-1.008c.388-.54.653-1.17.768-1.854h1.42zM5.82 8.6C4.285 8.6 3.04 7.353 3.04 5.816c0-1.54 1.246-2.785 2.783-2.785 1.54 0 2.785 1.247 2.785 2.786C8.605 7.353 7.36 8.6 5.82 8.6z"/><path fill="#1159D0" d="M11.654 38.56v-1.467h-1.42c-.11-.69-.374-1.326-.763-1.872l.996-.995-1.037-1.037-.996.995c-.542-.394-1.174-.662-1.863-.78V32H5.106v1.4c-.696.113-1.334.378-1.882.77l-.99-.99-1.038 1.038.99.988c-.397.55-.663 1.19-.777 1.887H0v1.467h1.41c.117.69.385 1.325.778 1.87l-1 .998 1.037 1.037 1-1c.55.39 1.188.652 1.88.765v1.425H6.57v-1.43c.688-.114 1.318-.382 1.86-.772l1.005 1.006 1.04-1.038-1.01-1.008c.388-.54.653-1.17.768-1.854h1.42zM5.82 40.6c-1.536 0-2.782-1.247-2.782-2.784 0-1.54 1.246-2.785 2.783-2.785 1.54 0 2.785 1.247 2.785 2.786 0 1.537-1.246 2.784-2.784 2.784z"/><path fill="#AFB6BC" d="M0 330h2v2H0v-2zm0 4h2v2H0v-2zm4-4h2v2H4v-2zm0 4h2v2H4v-2zm-4 4h2v2H0v-2zm4 0h2v2H4v-2zm-4 4h2v2H0v-2zm4 0h2v2H4v-2z"/></g></svg>