<svg width="375" height="874" viewBox="0 0 375 874" fill="none" xmlns="http://www.w3.org/2000/svg" xmlns:xlink="http://www.w3.org/1999/xlink">
<rect width="375" height="874" fill="white"/>
<path opacity="0.148418" fill-rule="evenodd" clip-rule="evenodd" d="M0 0L375 0L375 874L0 874L0 0Z" fill="#2FC6F6"/>
<mask id="mask0" mask-type="alpha" maskUnits="userSpaceOnUse" x="0" y="0" width="375" height="874">
<path fill-rule="evenodd" clip-rule="evenodd" d="M0 0L375 0L375 874L0 874L0 0Z" fill="white"/>
</mask>
<g mask="url(#mask0)">
<g opacity="0.55">
<path fill-rule="evenodd" clip-rule="evenodd" d="M432.933 112.806C442.847 111.223 450.094 106.11 450.32 95.6426C450.563 84.4577 443.469 77.7522 432.584 77.6891C422.403 77.632 415.414 84.0702 415.11 94.4199C414.783 105.644 422.13 111.217 432.933 112.806ZM207.305 112.775C217.55 111.189 224.662 105.868 224.788 95.4494C224.924 84.2945 217.754 77.616 206.864 77.6911C196.718 77.7572 189.759 84.1984 189.576 94.6022C189.375 105.862 196.781 111.306 207.305 112.775ZM319.79 90.5194C331.931 90.6155 342.437 80.6203 342.389 69.0178C342.344 57.3282 332.018 47.1557 320.109 47.0686C308.22 46.9784 297.741 57.0067 297.51 68.6933C297.278 80.3199 307.592 90.4202 319.79 90.5194ZM213.639 133.692C212.912 133.007 211.986 131.376 212.773 134.425C215.575 169.656 224.184 203.851 229.853 238.298H410.256C416.13 205.001 421.877 172.429 427.73 139.259C422.241 139.905 421.567 143.342 419.95 145.595C396.335 178.528 361.862 177.539 339.488 143.678C330.08 129.441 326.788 112.806 319.592 95.8141C315.57 114.849 310.736 131.562 301.565 146.728C287.313 170.287 263.07 175.953 239.668 162.085C227.863 155.094 222.522 142.942 213.639 133.692ZM238.886 124.952C245.106 137.152 253.718 147.054 265.947 144.369C284.328 140.331 286.613 122.212 291.726 107.849C268.592 77.2352 267.651 54.2224 288.167 35.3736C306.473 18.5587 334.15 18.7029 352.174 35.7041C372.14 54.5439 371.184 78.1845 348.885 106.824C355.682 121.206 359.268 138.123 376.754 145.15C389.316 144.603 397.192 137.909 402.281 127.887C402.726 122.104 398.352 119.382 396.266 115.546C385.616 95.9458 390.479 73.9305 408.593 61.0511C426.097 48.6104 449.689 51.4735 464.253 67.8138C478.847 84.1931 479.367 108.098 462.735 123.116C449.704 134.881 451.095 150.092 448.122 164.2C442.979 188.571 439.615 213.314 435.148 237.835C431.746 256.509 423.401 263.236 404.316 263.257C348.254 263.311 292.192 263.305 236.124 263.26C216.245 263.245 208.09 256.449 204.546 236.915C199.478 208.955 194.043 181.048 189.798 152.964C187.953 140.736 184.685 130.669 175.457 121.398C160.83 106.707 161.716 83.8205 175.264 68.2223C189.218 52.1615 211.838 48.6916 229.604 59.8915C247.46 71.1425 254.07 93.29 245.205 112.355C243.329 116.387 241.222 120.313 238.886 124.952Z" fill="white"/>
</g>
<g opacity="0.55">
<path fill-rule="evenodd" clip-rule="evenodd" d="M174.933 546.806C184.847 545.223 192.094 540.11 192.32 529.643C192.563 518.458 185.469 511.752 174.584 511.689C164.403 511.632 157.414 518.07 157.11 528.42C156.783 539.644 164.13 545.217 174.933 546.806ZM-50.6946 546.775C-40.4501 545.189 -33.3379 539.868 -33.2117 529.449C-33.0764 518.295 -40.2457 511.616 -51.1365 511.691C-61.2817 511.757 -68.2406 518.198 -68.424 528.602C-68.6254 539.862 -61.2186 545.306 -50.6946 546.775ZM61.7901 524.519C73.9313 524.616 84.4373 514.62 84.3892 503.018C84.3441 491.328 74.0185 481.156 62.1087 481.069C50.2199 480.978 39.741 491.007 39.5095 502.693C39.2781 514.32 49.5917 524.42 61.7901 524.519ZM-44.361 567.692C-45.0884 567.007 -46.0143 565.376 -45.2267 568.425C-42.4251 603.656 -33.8159 637.851 -28.1466 672.298H152.256C158.13 639.001 163.877 606.429 169.73 573.259C164.241 573.905 163.567 577.342 161.95 579.595C138.335 612.528 103.862 611.539 81.4884 577.678C72.0797 563.441 68.7881 546.806 61.5917 529.814C57.5697 548.849 52.736 565.562 43.5647 580.728C29.3132 604.287 5.06977 609.953 -18.332 596.085C-30.1366 589.094 -35.4782 576.942 -44.361 567.692ZM-19.1135 558.952C-12.8941 571.152 -4.28192 581.054 7.94651 578.369C26.3282 574.331 28.6128 556.212 33.726 541.849C10.5918 511.235 9.65092 488.222 30.1669 469.374C48.4735 452.559 76.1498 452.703 94.1738 469.704C114.14 488.544 113.184 512.185 90.8852 540.824C97.6818 555.206 101.268 572.123 118.754 579.15C131.316 578.603 139.192 571.909 144.281 561.887C144.726 556.104 140.352 553.382 138.266 549.546C127.616 529.946 132.479 507.93 150.593 495.051C168.097 482.61 191.689 485.474 206.253 501.814C220.847 518.193 221.367 542.098 204.735 557.116C191.704 568.881 193.095 584.092 190.122 598.2C184.979 622.571 181.615 647.314 177.148 671.835C173.746 690.509 165.401 697.236 146.316 697.257C90.2539 697.311 34.1919 697.305 -21.8761 697.26C-41.7548 697.245 -49.9101 690.449 -53.4541 670.915C-58.5223 642.955 -63.9571 615.048 -68.2016 586.964C-70.0473 574.736 -73.3148 564.669 -82.5433 555.398C-97.1705 540.707 -96.2837 517.821 -82.7356 502.222C-68.7818 486.161 -46.1616 482.692 -28.3961 493.891C-10.5404 505.142 -3.93021 527.29 -12.7949 546.355C-14.6707 550.387 -16.7779 554.313 -19.1135 558.952Z" fill="white"/>
</g>
<g opacity="0.45">
<g filter="url(#filter0_f)">
<path fill-rule="evenodd" clip-rule="evenodd" d="M96.665 294.526C99.0497 294.146 100.793 292.916 100.847 290.398C100.906 287.707 99.1994 286.094 96.5811 286.079C94.1321 286.066 92.451 287.614 92.378 290.104C92.2991 292.804 94.0663 294.144 96.665 294.526ZM42.3924 294.519C44.8566 294.137 46.5674 292.858 46.5978 290.351C46.6303 287.668 44.9058 286.062 42.2861 286.08C39.8458 286.096 38.1719 287.645 38.1278 290.148C38.0793 292.856 39.861 294.166 42.3924 294.519ZM69.4495 289.166C72.37 289.189 74.8971 286.784 74.8855 283.994C74.8747 281.182 72.391 278.735 69.5262 278.714C66.6664 278.692 64.1458 281.104 64.0902 283.916C64.0345 286.712 66.5153 289.142 69.4495 289.166ZM43.9159 299.55C43.7409 299.385 43.5182 298.993 43.7077 299.727C44.3816 308.201 46.4524 316.426 47.8161 324.712H91.2102C92.6231 316.703 94.0056 308.868 95.4134 300.889C94.0931 301.045 93.9311 301.871 93.5421 302.413C87.8617 310.335 79.5696 310.097 74.1878 301.952C71.9246 298.528 71.1328 294.526 69.4018 290.439C68.4344 295.018 67.2717 299.038 65.0656 302.686C61.6375 308.353 55.806 309.716 50.1769 306.38C47.3375 304.698 46.0526 301.775 43.9159 299.55ZM49.9889 297.448C51.485 300.383 53.5565 302.764 56.498 302.118C60.9195 301.147 61.4691 296.789 62.699 293.334C57.1343 285.97 56.9079 280.435 61.8429 275.901C66.2463 271.856 72.9036 271.891 77.2391 275.98C82.0417 280.512 81.8118 286.198 76.4481 293.087C78.0829 296.547 78.9456 300.616 83.1516 302.306C86.1733 302.175 88.0678 300.565 89.2919 298.154C89.3989 296.763 88.3469 296.108 87.8451 295.185C85.2832 290.471 86.4532 285.175 90.8103 282.077C95.0208 279.085 100.695 279.773 104.199 283.704C107.709 287.644 107.834 293.394 103.833 297.006C100.699 299.836 101.034 303.495 100.319 306.889C99.0815 312.751 98.2724 318.703 97.1979 324.601C96.3794 329.093 94.3722 330.711 89.7814 330.716C76.2962 330.729 62.8111 330.727 49.3244 330.717C44.5428 330.713 42.5811 329.078 41.7286 324.38C40.5095 317.654 39.2022 310.941 38.1813 304.186C37.7373 301.245 36.9513 298.823 34.7315 296.593C31.2131 293.059 31.4264 287.554 34.6852 283.802C38.0417 279.939 43.4828 279.104 47.7561 281.798C52.0511 284.505 53.6411 289.832 51.5088 294.418C51.0576 295.388 50.5508 296.332 49.9889 297.448Z" fill="white"/>
</g>
</g>
<g opacity="0.45">
<g filter="url(#filter1_f)">
<path fill-rule="evenodd" clip-rule="evenodd" d="M337.665 734.526C340.05 734.146 341.793 732.916 341.847 730.398C341.906 727.707 340.199 726.094 337.581 726.079C335.132 726.066 333.451 727.614 333.378 730.104C333.299 732.804 335.066 734.144 337.665 734.526ZM283.392 734.519C285.857 734.137 287.567 732.858 287.598 730.351C287.63 727.668 285.906 726.062 283.286 726.08C280.846 726.096 279.172 727.645 279.128 730.148C279.079 732.856 280.861 734.166 283.392 734.519ZM310.45 729.166C313.37 729.189 315.897 726.784 315.886 723.994C315.875 721.182 313.391 718.735 310.526 718.714C307.666 718.692 305.146 721.104 305.09 723.916C305.034 726.712 307.515 729.142 310.45 729.166ZM284.916 739.55C284.741 739.385 284.518 738.993 284.708 739.727C285.382 748.201 287.452 756.426 288.816 764.712H332.21C333.623 756.703 335.006 748.868 336.413 740.889C335.093 741.045 334.931 741.871 334.542 742.413C328.862 750.335 320.57 750.097 315.188 741.952C312.925 738.528 312.133 734.526 310.402 730.439C309.434 735.018 308.272 739.038 306.066 742.686C302.638 748.353 296.806 749.716 291.177 746.38C288.337 744.698 287.053 741.775 284.916 739.55ZM290.989 737.448C292.485 740.383 294.557 742.764 297.498 742.118C301.92 741.147 302.469 736.789 303.699 733.334C298.134 725.97 297.908 720.435 302.843 715.901C307.246 711.856 313.904 711.891 318.239 715.98C323.042 720.512 322.812 726.198 317.448 733.087C319.083 736.547 319.946 740.616 324.152 742.306C327.173 742.175 329.068 740.565 330.292 738.154C330.399 736.763 329.347 736.108 328.845 735.185C326.283 730.471 327.453 725.175 331.81 722.077C336.021 719.085 341.695 719.773 345.199 723.704C348.709 727.644 348.834 733.394 344.833 737.006C341.699 739.836 342.034 743.495 341.319 746.889C340.081 752.751 339.272 758.703 338.198 764.601C337.379 769.093 335.372 770.711 330.781 770.716C317.296 770.729 303.811 770.727 290.324 770.717C285.543 770.713 283.581 769.078 282.729 764.38C281.51 757.654 280.202 750.941 279.181 744.186C278.737 741.245 277.951 738.823 275.732 736.593C272.213 733.059 272.426 727.554 275.685 723.802C279.042 719.939 284.483 719.104 288.756 721.798C293.051 724.505 294.641 729.832 292.509 734.418C292.058 735.388 291.551 736.332 290.989 737.448Z" fill="white"/>
</g>
</g>
</g>
<defs>
<filter id="filter0_f" x="29.4482" y="270.172" width="80.1035" height="63.2717" filterUnits="userSpaceOnUse" color-interpolation-filters="sRGB">
<feFlood flood-opacity="0" result="BackgroundImageFix"/>
<feBlend mode="normal" in="SourceGraphic" in2="BackgroundImageFix" result="shape"/>
<feGaussianBlur stdDeviation="1.35914" result="effect1_foregroundBlur"/>
</filter>
<filter id="filter1_f" x="270.448" y="710.172" width="80.1035" height="63.2717" filterUnits="userSpaceOnUse" color-interpolation-filters="sRGB">
<feFlood flood-opacity="0" result="BackgroundImageFix"/>
<feBlend mode="normal" in="SourceGraphic" in2="BackgroundImageFix" result="shape"/>
<feGaussianBlur stdDeviation="1.35914" result="effect1_foregroundBlur"/>
</filter>
</defs>
</svg>
