<svg width="396" height="59" viewBox="0 0 396 59" fill="none" xmlns="http://www.w3.org/2000/svg" xmlns:xlink="http://www.w3.org/1999/xlink">
<mask id="mask0" mask-type="alpha" maskUnits="userSpaceOnUse" x="0" y="0" width="464" height="59">
<rect y="0.882812" width="464" height="58" fill="white"/>
</mask>
<g mask="url(#mask0)">
<rect width="413" height="498" transform="translate(-18 -46)" fill="white"/>
<path opacity="0.168418" fill-rule="evenodd" clip-rule="evenodd" d="M-18 -46.1172L396 -46.1172L396 451.883L-18 451.883L-18 -46.1172Z" fill="#B0B7C0"/>
<mask id="mask1" mask-type="alpha" maskUnits="userSpaceOnUse" x="-18" y="-47" width="414" height="499">
<path fill-rule="evenodd" clip-rule="evenodd" d="M-18 -46.1172L396 -46.1172L396 451.883L-18 451.883L-18 -46.1172Z" fill="white"/>
</mask>
<g mask="url(#mask1)">
<mask id="mask2" mask-type="alpha" maskUnits="userSpaceOnUse" x="-18" y="-47" width="214" height="499">
<rect x="-18" y="-46.1172" width="214" height="498" fill="white"/>
</mask>
<g mask="url(#mask2)">
<rect opacity="0.04" x="-130.421" y="-54.6641" width="348.988" height="266.732" fill="url(#pattern0)"/>
</g>
<g opacity="0.55">
<path fill-rule="evenodd" clip-rule="evenodd" d="M229.06 18.1591C234.718 17.2569 238.854 14.3434 238.983 8.37944C239.121 2.00634 235.073 -1.81443 228.862 -1.85038C223.051 -1.88291 219.063 1.78552 218.89 7.68273C218.703 14.0781 222.895 17.2535 229.06 18.1591M100.302 18.1414C106.148 17.2376 110.207 14.206 110.279 8.26938C110.356 1.9134 106.265 -1.89197 100.05 -1.84918C94.2605 -1.81152 90.2893 1.85862 90.1847 7.78664C90.0698 14.2025 94.2966 17.3043 100.302 18.1414M164.494 5.46027C171.422 5.51505 177.418 -0.180167 177.39 -6.7912C177.364 -13.4519 171.472 -19.2481 164.675 -19.2977C157.891 -19.3491 151.911 -13.635 151.779 -6.97608C151.647 -0.351349 157.532 5.40378 164.494 5.46027M103.917 30.0598C103.502 29.6695 102.973 28.7399 103.423 30.4774C105.021 50.5519 109.934 70.0358 113.17 89.6635H216.119C219.471 70.6914 222.751 52.1319 226.091 33.2317C222.959 33.5998 222.574 35.5581 221.652 36.842C208.175 55.6069 188.503 55.0437 175.735 35.7498C170.365 27.6375 168.487 18.1592 164.38 8.47717C162.085 19.3232 159.327 28.8461 154.093 37.4873C145.96 50.9114 132.125 54.1399 118.771 46.2381C112.034 42.2547 108.986 35.3304 103.917 30.0598M118.325 25.0798C121.874 32.0315 126.788 37.6736 133.767 36.1432C144.257 33.8426 145.56 23.5186 148.478 15.3344C135.276 -2.10902 134.739 -15.2215 146.447 -25.9615C156.894 -35.5425 172.688 -35.4603 182.974 -25.7732C194.368 -15.0384 193.822 -1.56808 181.097 14.7507C184.976 22.9451 187.022 32.5844 197.001 36.5883C204.17 36.2768 208.664 32.4628 211.568 26.7522C211.822 23.457 209.326 21.9061 208.136 19.7201C202.058 8.55218 204.834 -3.99202 215.171 -11.3306C225.16 -18.4192 238.622 -16.7878 246.934 -7.47727C255.262 1.85555 255.559 15.4765 246.067 24.0339C238.631 30.7373 239.425 39.4043 237.729 47.443C234.793 61.3292 232.874 75.4277 230.325 89.3996C228.383 100.04 223.621 103.873 212.73 103.885C180.737 103.916 148.744 103.912 116.748 103.887C105.404 103.878 100.75 100.006 98.7275 88.8758C95.8353 72.9439 92.7338 57.0428 90.3116 41.0408C89.2583 34.0737 87.3937 28.3374 82.1273 23.0547C73.78 14.6839 74.2861 1.64329 82.0175 -7.24447C89.9805 -16.3958 102.889 -18.373 113.027 -11.9913C123.217 -5.58058 126.989 7.03893 121.93 17.9021C120.86 20.1994 119.657 22.4367 118.325 25.0798" fill="white"/>
</g>
</g>
<g filter="url(#filter0_d)">
<path fill-rule="evenodd" clip-rule="evenodd" d="M38 71.8828C56.2254 71.8828 71 57.1082 71 38.8828C71 20.6574 56.2254 5.88281 38 5.88281C19.7746 5.88281 5 20.6574 5 38.8828C5 57.1082 19.7746 71.8828 38 71.8828Z" fill="white"/>
</g>
<path fill-rule="evenodd" clip-rule="evenodd" d="M37.9999 62.3021C50.9341 62.3021 61.4193 51.8169 61.4193 38.8827C61.4193 25.9486 50.9341 15.4634 37.9999 15.4634C25.0658 15.4634 14.5806 25.9486 14.5806 38.8827C14.5806 51.8169 25.0658 62.3021 37.9999 62.3021Z" fill="#B1B4B8"/>
<path fill-rule="evenodd" clip-rule="evenodd" d="M47.6663 35.5804C48.525 35.4433 49.1528 35.0004 49.1723 34.0938C49.1934 33.1251 48.5789 32.5443 47.6361 32.5388C46.7543 32.5339 46.1489 33.0915 46.1226 33.9879C46.0943 34.9601 46.7306 35.4428 47.6663 35.5804M28.1236 35.5779C29.0109 35.4405 29.6269 34.9796 29.6379 34.0772C29.6496 33.111 29.0286 32.5326 28.0853 32.5391C27.2066 32.5448 26.6038 33.1027 26.588 34.0038C26.5705 34.9791 27.2121 35.4506 28.1236 35.5779M37.8665 33.6502C38.9181 33.6585 39.828 32.7928 39.8239 31.7878C39.82 30.7753 38.9256 29.8942 37.8941 29.8867C36.8643 29.8789 35.9567 30.7475 35.9366 31.7597C35.9166 32.7668 36.8099 33.6416 37.8665 33.6502M28.6722 37.3895C28.6092 37.3301 28.529 37.1888 28.5972 37.453C28.8399 40.5045 29.5855 43.4663 30.0766 46.4499H45.7021C46.2109 43.5659 46.7087 40.7447 47.2156 37.8716C46.7402 37.9276 46.6819 38.2253 46.5418 38.4204C44.4964 41.2729 41.5105 41.1873 39.5726 38.2544C38.7577 37.0213 38.4726 35.5805 37.8493 34.1087C37.5009 35.7574 37.0822 37.205 36.2879 38.5185C35.0535 40.5591 32.9536 41.0499 30.9267 39.8488C29.9042 39.2432 29.4416 38.1907 28.6722 37.3895M30.859 36.6325C31.3977 37.6892 32.1436 38.5469 33.2028 38.3143C34.7949 37.9645 34.9928 36.3952 35.4357 35.1511C33.4319 32.4995 33.3504 30.5063 35.1274 28.8737C36.713 27.4172 39.1102 27.4297 40.6714 28.9023C42.4007 30.5341 42.3179 32.5817 40.3865 35.0624C40.9752 36.308 41.2858 37.7733 42.8004 38.3819C43.8884 38.3346 44.5706 37.7548 45.0114 36.8867C45.0499 36.3858 44.6711 36.1501 44.4904 35.8178C43.5679 34.1201 43.9892 32.2133 45.5582 31.0977C47.0743 30.0202 49.1176 30.2682 50.3791 31.6835C51.6431 33.1022 51.6882 35.1727 50.2476 36.4735C49.1189 37.4925 49.2395 38.81 48.982 40.0319C48.5365 42.1428 48.2451 44.2859 47.8582 46.4098C47.5635 48.0273 46.8407 48.6099 45.1877 48.6118C40.3318 48.6164 35.476 48.6159 30.6197 48.612C28.8979 48.6107 28.1916 48.0221 27.8846 46.3302C27.4456 43.9084 26.9749 41.4912 26.6072 39.0587C26.4474 37.9997 26.1643 37.1277 25.365 36.3247C24.0981 35.0522 24.1749 33.0699 25.3484 31.7189C26.557 30.3277 28.5162 30.0272 30.055 30.9973C31.6016 31.9718 32.1741 33.8901 31.4063 35.5414C31.2438 35.8906 31.0613 36.2307 30.859 36.6325" fill="white"/>
</g>
<defs>
<pattern id="pattern0" patternContentUnits="objectBoundingBox" width="1" height="1">
<use xlink:href="#image0" transform="scale(0.000763942 0.000998004)"/>
</pattern>
<filter id="filter0_d" x="3" y="4.88281" width="70" height="70" filterUnits="userSpaceOnUse" color-interpolation-filters="sRGB">
<feFlood flood-opacity="0" result="BackgroundImageFix"/>
<feColorMatrix in="SourceAlpha" type="matrix" values="0 0 0 0 0 0 0 0 0 0 0 0 0 0 0 0 0 0 127 0"/>
<feOffset dy="1"/>
<feGaussianBlur stdDeviation="1"/>
<feColorMatrix type="matrix" values="0 0 0 0 0 0 0 0 0 0 0 0 0 0 0 0 0 0 0.06 0"/>
<feBlend mode="normal" in2="BackgroundImageFix" result="effect1_dropShadow"/>
<feBlend mode="normal" in="SourceGraphic" in2="effect1_dropShadow" result="shape"/>
</filter>
</defs>
</svg>
