<svg width="66" height="67" viewBox="0 0 66 67" fill="none" xmlns="http://www.w3.org/2000/svg">
<g filter="url(#filter0_d)">
<path fill-rule="evenodd" clip-rule="evenodd" d="M33 63.5C50.1208 63.5 64 49.6208 64 32.5C64 15.3792 50.1208 1.5 33 1.5C15.8792 1.5 2 15.3792 2 32.5C2 49.6208 15.8792 63.5 33 63.5Z" fill="white"/>
</g>
<path fill-rule="evenodd" clip-rule="evenodd" d="M33 54.5C45.1503 54.5 55 44.6503 55 32.5C55 20.3497 45.1503 10.5 33 10.5C20.8497 10.5 11 20.3497 11 32.5C11 44.6503 20.8497 54.5 33 54.5Z" fill="#B1B4B8"/>
<path fill-rule="evenodd" clip-rule="evenodd" d="M42.0805 29.3977C42.8872 29.2688 43.4769 28.8528 43.4952 28.0012C43.515 27.0911 42.9378 26.5455 42.0522 26.5404C41.2238 26.5357 40.6551 27.0596 40.6304 27.9017C40.6037 28.8149 41.2015 29.2684 42.0805 29.3977M23.7222 29.3952C24.5558 29.2662 25.1344 28.8333 25.1447 27.9855C25.1557 27.0779 24.5724 26.5345 23.6863 26.5406C22.8608 26.546 22.2946 27.0701 22.2796 27.9166C22.2633 28.8328 22.8659 29.2757 23.7222 29.3952M32.8746 27.5844C33.8625 27.5922 34.7173 26.7789 34.7134 25.8349C34.7097 24.8838 33.8696 24.0561 32.9005 24.049C31.9332 24.0417 31.0806 24.8576 31.0617 25.8085C31.0429 26.7545 31.8821 27.5763 32.8746 27.5844M24.2376 31.0971C24.1784 31.0413 24.103 30.9086 24.1671 31.1567C24.3951 34.0233 25.0956 36.8056 25.5568 39.6084H40.2354C40.7133 36.8992 41.181 34.2489 41.6572 31.55C41.2106 31.6026 41.1558 31.8822 41.0242 32.0655C39.1027 34.7451 36.2978 34.6647 34.4774 31.9096C33.7118 30.7512 33.444 29.3977 32.8585 28.0151C32.5312 29.5639 32.1379 30.9237 31.3917 32.1577C30.2321 34.0746 28.2595 34.5357 26.3554 33.4073C25.3949 32.8385 24.9603 31.8497 24.2376 31.0971M26.2918 30.386C26.7979 31.3786 27.4986 32.1843 28.4936 31.9658C29.9892 31.6373 30.1751 30.163 30.5911 28.9943C28.7088 26.5034 28.6323 24.631 30.3016 23.0974C31.7911 21.7292 34.043 21.7409 35.5095 23.1242C37.134 24.6572 37.0563 26.5807 35.2419 28.911C35.7949 30.0811 36.0867 31.4576 37.5095 32.0294C38.5316 31.9849 39.1724 31.4402 39.5865 30.6248C39.6227 30.1542 39.2668 29.9328 39.0971 29.6206C38.2305 28.0258 38.6263 26.2346 40.1001 25.1866C41.5244 24.1744 43.4439 24.4073 44.6289 25.7369C45.8163 27.0696 45.8586 29.0146 44.5054 30.2366C43.4451 31.1938 43.5583 32.4315 43.3164 33.5794C42.8979 35.5623 42.6243 37.5756 42.2608 39.5707C41.9839 41.0902 41.305 41.6375 39.7521 41.6392C35.1906 41.6436 30.6291 41.6431 26.067 41.6394C24.4496 41.6382 23.786 41.0853 23.4977 39.4959C23.0853 37.2209 22.6431 34.9502 22.2977 32.6652C22.1476 31.6703 21.8817 30.8511 21.1308 30.0968C19.9407 28.9014 20.0128 27.0393 21.1152 25.7701C22.2505 24.4633 24.091 24.181 25.5365 25.0923C26.9894 26.0077 27.5272 27.8098 26.8059 29.361C26.6533 29.689 26.4819 30.0085 26.2918 30.386" fill="white"/>
<defs>
<filter id="filter0_d" x="0" y="0.5" width="66" height="66" filterUnits="userSpaceOnUse" color-interpolation-filters="sRGB">
<feFlood flood-opacity="0" result="BackgroundImageFix"/>
<feColorMatrix in="SourceAlpha" type="matrix" values="0 0 0 0 0 0 0 0 0 0 0 0 0 0 0 0 0 0 127 0"/>
<feOffset dy="1"/>
<feGaussianBlur stdDeviation="1"/>
<feColorMatrix type="matrix" values="0 0 0 0 0 0 0 0 0 0 0 0 0 0 0 0 0 0 0.06 0"/>
<feBlend mode="normal" in2="BackgroundImageFix" result="effect1_dropShadow"/>
<feBlend mode="normal" in="SourceGraphic" in2="effect1_dropShadow" result="shape"/>
</filter>
</defs>
</svg>
