<svg width="111" height="23" viewBox="0 0 111 23" fill="none" xmlns="http://www.w3.org/2000/svg">
<path fill-rule="evenodd" clip-rule="evenodd" d="M14.6392 19.6667V22.7086H0V19.6667H14.6392ZM44.0869 0.179459V4.15303C47.2238 4.40016 49.3342 6.62464 49.3342 9.74254C49.3342 12.8293 47.2658 15.0588 44.1807 15.3429L44.0869 15.3509V19.3817H41.3493V15.3509C38.2124 15.0849 36.1019 12.8604 36.1019 9.74254C36.1019 6.67465 38.1704 4.46376 41.2555 4.1616L41.3493 4.15303V0.179459H44.0869ZM55.1139 3.94378C57.8995 3.94378 59.5671 5.56514 59.6001 8.14328L59.6006 8.2217V11.8148C59.6006 12.3905 59.782 12.6215 60.251 12.6319L60.285 12.6323V15.1038H59.3343C58.2887 15.1038 57.4903 14.7045 57.129 13.9821C56.7239 14.5803 55.7963 15.3701 54.1253 15.3701C51.8463 15.3701 50.2657 13.8491 50.2657 11.6246C50.2657 9.51669 51.6819 8.24726 54.0716 8.22208L54.1443 8.2217H56.863C56.863 6.92883 56.1785 6.43456 55.1139 6.43456C53.8628 6.43456 53.4306 7.07545 53.318 7.4787L53.3078 7.5182H50.532C50.6651 5.69302 52.2051 3.94378 55.1139 3.94378ZM82.491 3.94378C85.2766 3.94378 86.9441 5.56514 86.9772 8.14328L86.9777 8.2217V11.8148C86.9777 12.3905 87.159 12.6215 87.6282 12.6319L87.6622 12.6323V15.1038H86.7116C85.6658 15.1038 84.8674 14.7045 84.5061 13.9821C84.101 14.5803 83.1734 15.3701 81.5023 15.3701C79.2235 15.3701 77.6429 13.8491 77.6429 11.6246C77.6429 9.51669 79.059 8.24726 81.4486 8.22208L81.5214 8.2217H84.2401C84.2401 6.92883 83.5556 6.43456 82.491 6.43456C81.2398 6.43456 80.8077 7.07545 80.6951 7.4787L80.6849 7.5182H77.9092C78.0422 5.69302 79.5822 3.94378 82.491 3.94378ZM103.288 4.40024V8.63981L107.072 4.40024H110.513L105.893 9.49533L110.874 15.1039H107.338L103.288 10.5981V15.1039H100.551V4.40024H103.288ZM91.9399 4.40025V8.3927H95.7231V4.40025H98.4609V15.1039H95.7231V10.8832H91.9399V15.1039H89.202V4.40025H91.9399ZM24.2782 4.40028V15.1038H21.5404V6.89077H18.9168L18.8028 10.446L18.7959 10.6367C18.6731 13.6845 17.985 15.0753 15.3118 15.1033L15.2285 15.1038H14.8104V12.5943L14.8823 12.5937C15.9196 12.5765 16.1797 12.1698 16.2505 10.3266L16.2551 10.1987L16.4453 4.40028H24.2782ZM29.1055 4.40016V7.65121H31.0827C33.6875 7.65121 35.1703 8.98213 35.1703 11.3395C35.1703 13.1464 34.1268 15.065 31.2099 15.1032L31.1209 15.1038H26.3679V4.40016H29.1055ZM75.3615 0.179459V2.8982H68.2702V5.92099H71.331C74.6199 5.92099 76.5022 7.63234 76.5022 10.4649C76.5022 13.4388 74.6574 15.071 71.4293 15.1033L71.331 15.1038H65.3993V0.179459H75.3615ZM7.43357 0C9.04086 0 9.53832 0.934652 9.94907 2.13512L9.98051 2.22798L14.2969 15.1037H11.1028L10.1333 12.0429H4.35372L3.30813 15.1037H0.304211L4.83383 2.22798C5.27316 0.979241 5.78522 0 7.43357 0ZM56.863 11.1113V10.408H54.6766C53.935 10.408 53.0797 10.579 53.0797 11.6246C53.0797 12.6894 53.8591 13.0506 54.8476 13.0506C55.9719 13.0506 56.8376 12.3674 56.8625 11.1647L56.863 11.1113ZM84.2401 11.1113V10.408H82.0537C81.3123 10.408 80.4567 10.579 80.4567 11.6246C80.4567 12.6894 81.2362 13.0506 82.2249 13.0506C83.349 13.0506 84.2147 12.3674 84.2395 11.1647L84.2401 11.1113ZM44.0869 6.71975V12.7655C45.6079 12.5562 46.5584 11.4155 46.5584 9.74254C46.5584 8.08945 45.6304 6.95608 44.141 6.72762L44.0869 6.71975ZM41.3493 6.71975C39.8283 6.92884 38.8777 8.06954 38.8777 9.74254C38.8777 11.3956 39.8058 12.529 41.2952 12.7576L41.3493 12.7655V6.71975ZM30.8736 10.0277H29.1055V12.7465H30.8736C31.8433 12.7465 32.3946 12.3091 32.3946 11.3395C32.3946 10.4614 31.8438 10.0423 30.9225 10.0281L30.8736 10.0277ZM71.1979 8.52576H68.2702V12.4042H71.1979C72.7188 12.4042 73.5744 11.7388 73.5744 10.4649C73.5744 9.24573 72.7415 8.54461 71.2583 8.52613L71.1979 8.52576ZM7.35748 3.35453H7.28155L5.22826 9.45732H9.29679L7.35748 3.35453Z" fill="#EF3124"/>
</svg>
