<svg xmlns="http://www.w3.org/2000/svg" width="88" height="24" viewBox="0 0 88 24"><g fill="none" fill-rule="evenodd"><path fill="#243B80" d="M10.827.245H4.045a.943.943 0 0 0-.931.795L.37 18.431a.565.565 0 0 0 .559.653h3.238a.942.942 0 0 0 .931-.796l.74-4.691a.941.941 0 0 1 .93-.796h2.147c4.468 0 7.046-2.162 7.72-6.446.303-1.875.012-3.347-.865-4.379C14.807.844 13.097.245 10.827.245zm.782 6.352C11.24 9.03 9.38 9.03 7.581 9.03H6.558l.718-4.545a.565.565 0 0 1 .558-.477h.47c1.224 0 2.38 0 2.976.698.356.417.465 1.036.33 1.89zM31.1 6.518h-3.248a.566.566 0 0 0-.558.477l-.144.909-.227-.33c-.703-1.02-2.27-1.361-3.835-1.361-3.59 0-6.655 2.718-7.252 6.531-.31 1.902.13 3.721 1.21 4.99.99 1.165 2.406 1.652 4.09 1.652 2.893 0 4.496-1.86 4.496-1.86l-.145.903a.565.565 0 0 0 .558.654h2.925a.942.942 0 0 0 .931-.796L31.657 7.17a.563.563 0 0 0-.557-.653zm-4.527 6.321c-.313 1.856-1.786 3.101-3.664 3.101-.943 0-1.697-.302-2.18-.875-.48-.57-.663-1.38-.51-2.282.292-1.84 1.79-3.126 3.64-3.126.921 0 1.671.307 2.165.884.495.585.691 1.4.55 2.298zm21.825-6.32h-3.264a.945.945 0 0 0-.78.413l-4.502 6.63-1.908-6.371a.945.945 0 0 0-.905-.673h-3.206c-.39 0-.661.381-.537.748l3.595 10.55-3.38 4.77a.565.565 0 0 0 .461.893h3.26c.31 0 .599-.15.774-.404l10.855-15.67a.565.565 0 0 0-.463-.887"/><path fill="#169BD7" d="M59.203.245H52.42a.942.942 0 0 0-.93.795l-2.744 17.391a.564.564 0 0 0 .558.653h3.48a.66.66 0 0 0 .651-.557l.779-4.93a.941.941 0 0 1 .93-.796h2.146c4.468 0 7.046-2.162 7.72-6.446.305-1.875.012-3.347-.866-4.379C63.181.844 61.473.245 59.203.245zm.782 6.352c-.37 2.433-2.23 2.433-4.028 2.433h-1.022l.719-4.545a.563.563 0 0 1 .557-.477h.469c1.224 0 2.38 0 2.977.698.356.417.464 1.036.328 1.89zm19.49-.079h-3.246a.562.562 0 0 0-.557.477l-.144.909-.228-.33c-.703-1.02-2.27-1.361-3.835-1.361-3.589 0-6.653 2.718-7.25 6.531-.31 1.902.13 3.721 1.209 4.99.992 1.165 2.405 1.652 4.09 1.652 2.892 0 4.496-1.86 4.496-1.86l-.145.903a.565.565 0 0 0 .56.654h2.924a.942.942 0 0 0 .93-.796L80.035 7.17a.566.566 0 0 0-.56-.653zm-4.527 6.321c-.311 1.856-1.786 3.101-3.664 3.101-.942 0-1.697-.302-2.181-.875-.48-.57-.66-1.38-.51-2.282.295-1.84 1.79-3.126 3.64-3.126.922 0 1.672.307 2.166.884.496.585.693 1.4.55 2.298zM83.304.722l-2.784 17.71a.564.564 0 0 0 .558.652h2.798a.94.94 0 0 0 .931-.796L87.552.898a.565.565 0 0 0-.557-.654h-3.134a.567.567 0 0 0-.557.478"/></g></svg>