<svg xmlns="http://www.w3.org/2000/svg" width="94" height="34" viewBox="0 0 94 34"><path fill="#E9832C" fill-rule="evenodd" d="M22.836 29.81c2.908 0 6.063.994 9.555 4.077.35.31.815-.075.51-.458-3.431-4.318-6.605-5.14-9.77-5.836-3.872-.85-5.864-3.02-7.252-5.405-.276-.474-.4-.39-.425.219-.03.746.021 1.732.189 2.703-.156.007-.314.005-.471.005-5.54 0-10.03-4.475-10.03-9.995s4.49-9.995 10.03-9.995C20.71 5.125 25.2 9.6 25.2 15.12c0 .393-.02.781-.063 1.162-.733-.131-2.174-.146-3.186-.06-.38.034-.327.21-.04.262 3.316.597 5.594 2.645 6.115 6.36.012.086.124.111.168.038a15.011 15.011 0 0 0 2.148-7.762C30.343 6.77 23.551 0 15.172 0 6.792 0 0 6.77 0 15.12s6.793 15.121 15.172 15.121c2.223 0 4.428-.43 7.664-.43zm1.395-5.299c.745.666.972 1.457.578 2.015-.22.305-.574.474-1 .474-.418 0-.844-.163-1.14-.436-.676-.625-.875-1.639-.433-2.215.173-.225.453-.349.79-.349.409 0 .837.182 1.205.511zm2.737-1.275c.126.54-.141.764-.41.764-.292 0-.659-.22-1.092-.651-.428-.427-.584-.917-.372-1.165.14-.163.433-.234.802-.145.716.173.996.874 1.072 1.197zm21.67-3.817l-1.692-2.15c-.177-.226-.025-.568.252-.568h3.538c.169-.53.264-1.096.264-1.685C51 12.323 49.103 10 46.5 10c-2.603 0-4.5 2.323-4.5 5.016C42 17.71 43.897 20 46.5 20c.789 0 1.511-.213 2.137-.58zm7.279 3.608c.19.215.034.56-.252.56h-3.989a.542.542 0 0 1-.42-.201l-.676-.831A8.614 8.614 0 0 1 45.804 24C40.95 24 37 19.963 37 15c0-4.962 3.95-9 8.804-9 4.855 0 8.805 4.038 8.805 9a9.086 9.086 0 0 1-1.4 4.859l2.708 3.168zM93.58 7h-3.16a.43.43 0 0 0-.42.438v16.124a.43.43 0 0 0 .42.438h3.16a.43.43 0 0 0 .42-.438V7.438A.43.43 0 0 0 93.58 7zm-6.023 0h-3.725a.442.442 0 0 0-.424.308l-2.948 9.527-3.24-9.538A.442.442 0 0 0 76.8 7h-2.6c-.19 0-.36.12-.42.297l-3.24 9.538-2.948-9.527A.442.442 0 0 0 67.168 7h-3.725a.446.446 0 0 0-.36.18.427.427 0 0 0-.06.392l5.471 16.13c.06.178.23.298.42.298h2.958c.19 0 .36-.12.42-.297L75.5 14.28l3.208 9.424c.06.177.23.297.42.297h2.957c.19 0 .36-.12.42-.297l5.472-16.13a.427.427 0 0 0-.06-.392.446.446 0 0 0-.36-.181zM62 7.438v16.124a.43.43 0 0 1-.42.438h-3.16a.43.43 0 0 1-.42-.438V7.438A.43.43 0 0 1 58.42 7h3.16a.43.43 0 0 1 .42.438z"/></svg>