<svg width="66" height="51" viewBox="0 0 66 51" fill="none" xmlns="http://www.w3.org/2000/svg">
	<path fill-rule="evenodd" clip-rule="evenodd" d="M41.238 9.68996C42.7084 9.68996 43.9004 10.882 43.9004 12.3524V29.2125C43.9004 30.6829 42.7084 31.8749 41.238 31.8749H15.6624C14.192 31.8749 13 30.6829 13 29.2125V12.3524C13 10.882 14.192 9.68996 15.6624 9.68996H41.238ZM41.4623 19.9901H15.4371L15.4379 28.4192C15.4379 28.8743 15.7805 29.2494 16.2219 29.3007L16.3254 29.3066H40.5752C41.0303 29.3066 41.4055 28.964 41.4567 28.5227L41.4627 28.4192L41.4623 19.9901ZM31.9743 0.131027L56.2981 8.03432C57.6965 8.4887 58.4619 9.99072 58.0075 11.3892L52.7974 27.4241C52.343 28.8225 50.841 29.5878 49.4426 29.1334L47.0695 28.3619V25.6622L49.6058 26.486C50.0386 26.6266 50.5013 26.4167 50.6864 26.0128L50.7241 25.9162L53.3284 17.8995L47.0695 15.8663V11.6996L54.5527 14.1317L55.4438 11.3904C55.5953 10.9242 55.3401 10.4236 54.874 10.2721L31.811 2.77849C31.3782 2.63785 30.9156 2.84777 30.7304 3.2517L30.6928 3.34829L29.8012 6.08949L33.5674 7.31279H26.8404L28.6194 1.84041C29.0738 0.44196 30.5758 -0.323356 31.9743 0.131027ZM23.043 22.1664V27.1034H18.106V22.1664H23.043ZM40.5752 12.2584H16.3254C15.8703 12.2584 15.4951 12.601 15.4439 13.0423L15.4379 13.1458L15.4371 16.0284H41.4623L41.4627 13.1458C41.4627 12.6557 41.0654 12.2584 40.5752 12.2584Z" fill="#19D0C8"/>
	<path opacity="0.7" d="M0 40V50.2667H10.2215L0 40Z" fill="#023D5E"/>
	<path d="M10.2215 40H0V50.2667L10.2215 40Z" fill="#023D5E"/>
	<path d="M45.6248 41.8687C44.1238 41.8687 42.8057 43.09 42.8057 44.5976V47.9349H44.0145V46.7207H47.235V47.9349H48.4439V44.5976C48.4439 43.09 47.1257 41.8687 45.6248 41.8687ZM47.235 45.5089H44.0145V44.6C44.0145 43.7627 44.7911 43.0829 45.6248 43.0829C46.4584 43.0829 47.235 43.7627 47.235 44.6V45.5089Z" fill="#FF5722"/>
	<path d="M62.335 41.8687C60.834 41.8687 59.5159 43.09 59.5159 44.5976V47.9349H60.7247V46.7207H63.9452V47.9349H65.1541V44.5976C65.1541 43.09 63.8359 41.8687 62.335 41.8687ZM63.9452 45.5089H60.7247V44.6C60.7247 43.7627 61.5013 43.0829 62.335 43.0829C63.1686 43.0829 63.9452 43.7627 63.9452 44.6V45.5089V45.5089Z" fill="#FF5722"/>
	<path d="M33.3437 41.8687C31.6765 41.8687 30.3228 43.226 30.3228 44.903C30.3228 46.5776 31.6741 47.9373 33.3437 47.9373C35.011 47.9373 36.3647 46.58 36.3647 44.903C36.3647 43.226 35.011 41.8687 33.3437 41.8687ZM33.3437 46.7207C32.3439 46.7207 31.5316 45.9049 31.5316 44.9006C31.5316 43.8963 32.3439 43.0805 33.3437 43.0805C34.3436 43.0805 35.1558 43.8963 35.1558 44.9006C35.1558 45.9073 34.3436 46.7207 33.3437 46.7207Z" fill="#023D5E"/>
	<path d="M29.0428 44.5811C29.1924 44.3163 29.2779 44.0133 29.2779 43.6865C29.2779 42.6822 28.4657 41.8664 27.4658 41.8664H25.0908V47.9326H28.0714C29.0713 47.9326 29.8836 47.1168 29.8836 46.1125C29.8812 45.4708 29.5463 44.9055 29.0428 44.5811ZM26.2973 43.0806H27.4658C27.7983 43.0806 28.0691 43.3525 28.0691 43.6865C28.0691 44.0205 27.7983 44.2924 27.4658 44.2924H26.2973V43.0806ZM28.0691 46.7208H26.2973V45.5066H28.0691C28.4016 45.5066 28.6723 45.7786 28.6723 46.1125C28.6723 46.4465 28.4016 46.7208 28.0691 46.7208Z" fill="#023D5E"/>
	<path d="M21.3642 41.8687C19.697 41.8687 18.3433 43.226 18.3433 44.903C18.3433 46.5776 19.6946 47.9373 21.3642 47.9373C23.0338 47.9373 24.3852 46.58 24.3852 44.903C24.3852 43.226 23.0315 41.8687 21.3642 41.8687ZM21.3642 46.7207C20.3644 46.7207 19.5521 45.9049 19.5521 44.9006C19.5521 43.8963 20.3644 43.0805 21.3642 43.0805C22.3641 43.0805 23.1763 43.8963 23.1763 44.9006C23.1763 45.9073 22.3641 46.7207 21.3642 46.7207Z" fill="#023D5E"/>
	<path d="M52.2631 44.3066L52.2702 44.2947H50.8619C50.5294 44.2947 50.2586 44.0227 50.2586 43.6888C50.2586 43.3548 50.5294 43.0829 50.8619 43.0829H53.0753L53.8805 41.8687H50.8595C49.8596 41.8687 49.0474 42.6845 49.0474 43.6888C49.0474 44.6286 49.7551 45.4015 50.6647 45.497L50.6576 45.5089H52.066C52.3985 45.5089 52.6692 45.7808 52.6692 46.1148C52.6692 46.4488 52.3985 46.7207 52.066 46.7207H49.8525L49.0474 47.9349H52.0683C53.0682 47.9349 53.8805 47.1191 53.8805 46.1148C53.8805 45.1749 53.1703 44.402 52.2631 44.3066Z" fill="#FF5722"/>
	<path d="M55.8917 41.8687C54.8918 41.8687 54.0796 42.6845 54.0796 43.6888C54.0796 44.6286 54.7873 45.4015 55.6969 45.497L55.6898 45.5089H57.0982C57.4307 45.5089 57.7014 45.7808 57.7014 46.1148C57.7014 46.4488 57.4307 46.7207 57.0982 46.7207H54.8847L54.0796 47.9349H57.1006C58.1004 47.9349 58.9127 47.1191 58.9127 46.1148C58.9127 45.1749 58.2049 44.402 57.2953 44.3066L57.3024 44.2947H55.8941C55.5616 44.2947 55.2908 44.0227 55.2908 43.6888C55.2908 43.3548 55.5616 43.0829 55.8941 43.0829H58.1075L58.9127 41.8687H55.8917V41.8687Z" fill="#FF5722"/>
	<path d="M14.2181 47.9347H13.0093V41.8685H15.8545C16.3628 41.8685 16.7998 42.0426 17.1679 42.3933C17.5431 42.7487 17.8352 43.2711 17.8424 43.7888C17.8471 44.2587 17.7355 44.6404 17.4386 45.003C17.156 45.3536 16.8686 45.6184 16.4316 45.7115L17.9421 47.9347H16.5338L15.1135 45.8355C15.0565 45.7568 14.9663 45.7115 14.8689 45.7115H14.2181V47.9347ZM14.2181 44.5974H15.8284C16.2725 44.5974 16.6335 44.2349 16.6335 43.7888C16.6335 43.3427 16.2725 42.9801 15.8284 42.9801H14.2181V44.5974Z" fill="#023D5E"/>
	<path d="M42.1408 41.8687L39.6708 44.5094L42.2025 47.9325H40.7941L38.868 45.3658L38.3788 45.9526V47.9301H37.1699V41.8687H38.3788V44.2613L40.5566 41.8687H42.1408V41.8687Z" fill="#FF5722"/>
</svg>
