<svg width="71" height="49" viewBox="0 0 71 49" fill="none" xmlns="http://www.w3.org/2000/svg">
<g clip-path="url(#clip0)">
<path d="M34.3243 12.2133V19.5416H32.0347V1.44397H38.1071C38.8319 1.42859 39.5526 1.55912 40.2275 1.82803C40.9024 2.09694 41.5182 2.4989 42.0393 3.01071C42.5656 3.49144 42.9845 4.08102 43.2678 4.7398C43.5512 5.39858 43.6923 6.11131 43.6818 6.83009C43.6969 7.55271 43.5579 8.2701 43.2744 8.93308C42.9909 9.59606 42.5695 10.189 42.0393 10.6711C40.9774 11.6993 39.6667 12.2128 38.1071 12.2119H34.3243V12.2133ZM34.3243 3.67206V9.98956H38.164C38.5849 10.0022 39.0039 9.92556 39.3939 9.76443C39.784 9.60331 40.1367 9.36129 40.4294 9.05385C40.7206 8.76641 40.9521 8.42259 41.1101 8.04274C41.2682 7.66289 41.3496 7.25472 41.3496 6.84236C41.3496 6.43001 41.2682 6.02183 41.1101 5.64198C40.9521 5.26214 40.7206 4.91832 40.4294 4.63088C40.1404 4.31696 39.7889 4.06901 39.3984 3.90346C39.0078 3.73791 38.587 3.65854 38.164 3.67062H34.3243V3.67206Z" fill="#5F6368"/>
<path d="M48.9578 6.755C50.6501 6.755 51.986 7.2142 52.9653 8.13258C53.9447 9.05097 54.4339 10.3101 54.433 11.9101V19.5416H52.2429V17.8233H52.1433C51.1953 19.2384 49.9343 19.946 48.3605 19.946C47.0171 19.946 45.8931 19.5416 44.9887 18.733C44.5546 18.3619 44.2076 17.897 43.9729 17.3724C43.7382 16.8479 43.6217 16.2767 43.632 15.7006C43.632 14.4193 44.1089 13.4003 45.0626 12.6436C46.0164 11.887 47.2897 11.5077 48.8824 11.5058C50.242 11.5058 51.3617 11.7585 52.2415 12.2639V11.7325C52.2441 11.3397 52.1605 10.9513 51.997 10.5954C51.8334 10.2395 51.5939 9.92503 51.2958 9.67478C50.6903 9.1201 49.9012 8.81745 49.0858 8.82715C47.8068 8.82715 46.7948 9.37491 46.0496 10.4704L44.033 9.18093C45.1423 7.56365 46.7839 6.755 48.9578 6.755ZM45.9955 15.7511C45.994 16.047 46.0621 16.339 46.1942 16.6027C46.3263 16.8665 46.5186 17.0943 46.7549 17.2673C47.2613 17.6718 47.8898 17.8861 48.534 17.8738C49.5002 17.8722 50.4263 17.4817 51.1095 16.7879C51.8679 16.063 52.2472 15.2125 52.2472 14.2364C51.5333 13.6588 50.5378 13.37 49.2607 13.37C48.3307 13.37 47.5551 13.5976 46.9341 14.053C46.307 14.5151 45.9955 15.0768 45.9955 15.7511Z" fill="#5F6368"/>
<path d="M67.0046 7.15942L59.3593 25.0001H56.9957L59.8328 18.7576L54.8057 7.15942H57.2944L60.9279 16.0545H60.9777L64.5116 7.15942H67.0046Z" fill="#5F6368"/>
<path d="M25.0718 10.6337C25.0726 9.92518 25.0136 9.21791 24.8954 8.51965H15.2393V12.5239H20.7699C20.6567 13.1634 20.4172 13.773 20.0657 14.316C19.7142 14.859 19.2581 15.3242 18.7249 15.6833V18.2825H22.0256C23.9582 16.4732 25.0718 13.7975 25.0718 10.6337Z" fill="#4285F4"/>
<path d="M15.2393 20.7936C18.0025 20.7936 20.329 19.8723 22.0256 18.2839L18.7249 15.6847C17.8062 16.3172 16.623 16.6782 15.2393 16.6782C12.5686 16.6782 10.3017 14.8501 9.4911 12.3866H6.09082V15.0652C6.94305 16.7872 8.24985 18.2347 9.86532 19.2462C11.4808 20.2578 13.3414 20.7935 15.2393 20.7936Z" fill="#34A853"/>
<path d="M9.49106 12.3866C9.06253 11.0957 9.06253 9.69777 9.49106 8.40689V5.72827H6.09078C5.37386 7.17683 5.00049 8.77555 5.00049 10.3967C5.00049 12.0179 5.37386 13.6166 6.09078 15.0652L9.49106 12.3866Z" fill="#FBBC04"/>
<path d="M15.2393 4.11548C16.6995 4.09125 18.1105 4.65145 19.1672 5.675L22.0896 2.70757C20.2365 0.940226 17.7815 -0.0300776 15.2393 7.17763e-05C13.3414 0.000159608 11.4808 0.535875 9.86532 1.54741C8.24985 2.55894 6.94305 4.00648 6.09082 5.72842L9.4911 8.40705C10.3017 5.94358 12.5686 4.11548 15.2393 4.11548Z" fill="#EA4335"/>
</g>
<path opacity="0.75" d="M0 31.9553V41.9816H9.99994L0 31.9553Z" fill="#1664C0"/>
<path d="M9.99994 31.9553H0V41.9816L9.99994 31.9553Z" fill="#1876D1"/>
<path d="M46.3954 33.9611C44.9045 33.9611 43.5952 35.172 43.5952 36.6669V39.9759H44.796V38.772H47.9949V39.9759H49.1956V36.6669C49.1956 35.172 47.8863 33.9611 46.3954 33.9611ZM47.9949 37.5705H44.796V36.6693C44.796 35.8391 45.5674 35.165 46.3954 35.165C47.2234 35.165 47.9949 35.8391 47.9949 36.6693V37.5705Z" fill="#FF5722"/>
<path d="M62.9935 33.9611C61.5026 33.9611 60.1934 35.172 60.1934 36.6669V39.9759H61.3941V38.772H64.593V39.9759H65.7938V36.6669C65.7938 35.172 64.4844 33.9611 62.9935 33.9611ZM64.593 37.5705H61.3941V36.6693C61.3941 35.8391 62.1655 35.165 62.9935 35.165C63.8216 35.165 64.593 35.8391 64.593 36.6693V37.5705Z" fill="#FF5722"/>
<path d="M52.9885 36.3784L52.9956 36.3666H51.5967C51.2665 36.3666 50.9975 36.0969 50.9975 35.7657C50.9975 35.4346 51.2665 35.165 51.5967 35.165H53.7953L54.595 33.9611H51.5944C50.6012 33.9611 49.7944 34.77 49.7944 35.7657C49.7944 36.6977 50.4973 37.4641 51.4009 37.5586L51.3938 37.5705H52.7927C53.123 37.5705 53.392 37.84 53.392 38.1712C53.392 38.5023 53.123 38.772 52.7927 38.772H50.5941L49.7944 39.9759H52.7951C53.7882 39.9759 54.595 39.167 54.595 38.1712C54.595 37.2393 53.8897 36.473 52.9885 36.3784Z" fill="#FF5722"/>
<path d="M56.5934 33.9611C55.6002 33.9611 54.7935 34.77 54.7935 35.7657C54.7935 36.6977 55.4965 37.4641 56.3999 37.5586L56.3928 37.5705H57.7917C58.122 37.5705 58.391 37.84 58.391 38.1712C58.391 38.5023 58.122 38.772 57.7917 38.772H55.5931L54.7935 39.9759H57.7941C58.7873 39.9759 59.5941 39.167 59.5941 38.1712C59.5941 37.2393 58.8911 36.473 57.9875 36.3784L57.9947 36.3666H56.5957C56.2655 36.3666 55.9965 36.0969 55.9965 35.7657C55.9965 35.4346 56.2655 35.165 56.5957 35.165H58.7944L59.5941 33.9611H56.5934Z" fill="#FF5722"/>
<path d="M42.9345 33.9611L40.4811 36.5794L42.9958 39.9736H41.5969L39.6837 37.4286L39.1978 38.0104V39.9712H37.9971V33.9611H39.1978V36.3334L41.361 33.9611H42.9345Z" fill="#FF5722"/>
<path d="M34.1966 33.9611C32.5405 33.9611 31.1958 35.3069 31.1958 36.9696C31.1958 38.63 32.5381 39.9782 34.1966 39.9782C35.8526 39.9782 37.1973 38.6325 37.1973 36.9696C37.1973 35.3069 35.8526 33.9611 34.1966 33.9611ZM34.1966 38.772C33.2034 38.772 32.3966 37.9631 32.3966 36.9673C32.3966 35.9715 33.2034 35.1627 34.1966 35.1627C35.1897 35.1627 35.9965 35.9715 35.9965 36.9673C35.9965 37.9654 35.1897 38.772 34.1966 38.772Z" fill="#1876D1"/>
<path d="M29.9245 36.6504C30.0731 36.3879 30.158 36.0874 30.158 35.7634C30.158 34.7676 29.3511 33.9587 28.3581 33.9587H25.999V39.9736H28.9596C29.9527 39.9736 30.7596 39.1646 30.7596 38.1688C30.7572 37.5327 30.4245 36.9721 29.9245 36.6504ZM27.1974 35.1627H28.3581C28.6883 35.1627 28.9572 35.4323 28.9572 35.7634C28.9572 36.0945 28.6883 36.3641 28.3581 36.3641H27.1974V35.1627ZM28.9572 38.772H27.1974V37.5681H28.9572C29.2875 37.5681 29.5564 37.8377 29.5564 38.1688C29.5564 38.5 29.2875 38.772 28.9572 38.772Z" fill="#1876D1"/>
<path d="M22.2976 33.9611C20.6415 33.9611 19.2969 35.3069 19.2969 36.9696C19.2969 38.63 20.6391 39.9782 22.2976 39.9782C23.9559 39.9782 25.2982 38.6325 25.2982 36.9696C25.2982 35.3069 23.9536 33.9611 22.2976 33.9611ZM22.2976 38.772C21.3044 38.772 20.4976 37.9631 20.4976 36.9673C20.4976 35.9715 21.3044 35.1627 22.2976 35.1627C23.2906 35.1627 24.0975 35.9715 24.0975 36.9673C24.0975 37.9654 23.2906 38.772 22.2976 38.772Z" fill="#1876D1"/>
<path d="M15.1993 39.9759H13.9985V33.9611H16.8248C17.3295 33.9611 17.7636 34.1338 18.1292 34.4814C18.502 34.8339 18.7921 35.3518 18.7992 35.8651C18.804 36.3311 18.6931 36.7095 18.3982 37.069C18.1175 37.4168 17.832 37.6792 17.398 37.7714L18.8984 39.9759H17.4994L16.0886 37.8945C16.0321 37.8164 15.9424 37.7714 15.8458 37.7714H15.1993V39.9759ZM15.1993 36.6669H16.7988C17.2399 36.6669 17.5985 36.3074 17.5985 35.8651C17.5985 35.4228 17.2399 35.0633 16.7988 35.0633H15.1993V36.6669Z" fill="#1876D1"/>
<defs>
<clipPath id="clip0">
<rect width="62" height="25" fill="white" transform="translate(5)"/>
</clipPath>
</defs>
</svg>
