<svg width="134" height="42" viewBox="0 0 134 42" fill="none" xmlns="http://www.w3.org/2000/svg">
<path opacity="0.75" d="M31 24.9553V34.9816H40.9999L31 24.9553Z" fill="#1664C0"/>
<path d="M40.9999 24.9553H31V34.9816L40.9999 24.9553Z" fill="#1876D1"/>
<path d="M77.3954 26.9611C75.9045 26.9611 74.5952 28.172 74.5952 29.6669V32.9759H75.796V31.772H78.9949V32.9759H80.1956V29.6669C80.1956 28.172 78.8863 26.9611 77.3954 26.9611ZM78.9949 30.5705H75.796V29.6693C75.796 28.8391 76.5674 28.165 77.3954 28.165C78.2234 28.165 78.9949 28.8391 78.9949 29.6693V30.5705Z" fill="#FF5722"/>
<path d="M93.9935 26.9611C92.5026 26.9611 91.1934 28.172 91.1934 29.6669V32.9759H92.3941V31.772H95.593V32.9759H96.7938V29.6669C96.7938 28.172 95.4844 26.9611 93.9935 26.9611ZM95.593 30.5705H92.3941V29.6693C92.3941 28.8391 93.1655 28.165 93.9935 28.165C94.8216 28.165 95.593 28.8391 95.593 29.6693V30.5705Z" fill="#FF5722"/>
<path d="M83.9885 29.3784L83.9956 29.3666H82.5967C82.2665 29.3666 81.9975 29.0969 81.9975 28.7657C81.9975 28.4346 82.2665 28.165 82.5967 28.165H84.7953L85.595 26.9611H82.5944C81.6012 26.9611 80.7944 27.77 80.7944 28.7657C80.7944 29.6977 81.4973 30.4641 82.4009 30.5586L82.3938 30.5705H83.7927C84.123 30.5705 84.392 30.84 84.392 31.1712C84.392 31.5023 84.123 31.772 83.7927 31.772H81.5941L80.7944 32.9759H83.7951C84.7882 32.9759 85.595 32.167 85.595 31.1712C85.595 30.2393 84.8897 29.473 83.9885 29.3784Z" fill="#FF5722"/>
<path d="M87.5934 26.9611C86.6002 26.9611 85.7935 27.77 85.7935 28.7657C85.7935 29.6977 86.4965 30.4641 87.3999 30.5586L87.3928 30.5705H88.7917C89.122 30.5705 89.391 30.84 89.391 31.1712C89.391 31.5023 89.122 31.772 88.7917 31.772H86.5931L85.7935 32.9759H88.7941C89.7873 32.9759 90.5941 32.167 90.5941 31.1712C90.5941 30.2393 89.8911 29.473 88.9875 29.3784L88.9947 29.3666H87.5957C87.2655 29.3666 86.9965 29.0969 86.9965 28.7657C86.9965 28.4346 87.2655 28.165 87.5957 28.165H89.7944L90.5941 26.9611H87.5934Z" fill="#FF5722"/>
<path d="M73.9345 26.9611L71.4811 29.5794L73.9958 32.9736H72.5969L70.6837 30.4286L70.1978 31.0104V32.9712H68.9971V26.9611H70.1978V29.3334L72.361 26.9611H73.9345Z" fill="#FF5722"/>
<path d="M65.1966 26.9611C63.5405 26.9611 62.1958 28.3069 62.1958 29.9696C62.1958 31.63 63.5381 32.9782 65.1966 32.9782C66.8526 32.9782 68.1973 31.6325 68.1973 29.9696C68.1973 28.3069 66.8526 26.9611 65.1966 26.9611ZM65.1966 31.772C64.2034 31.772 63.3966 30.9631 63.3966 29.9673C63.3966 28.9715 64.2034 28.1627 65.1966 28.1627C66.1897 28.1627 66.9965 28.9715 66.9965 29.9673C66.9965 30.9654 66.1897 31.772 65.1966 31.772Z" fill="#1876D1"/>
<path d="M60.9245 29.6504C61.0731 29.3879 61.158 29.0874 61.158 28.7634C61.158 27.7676 60.3511 26.9587 59.3581 26.9587H56.999V32.9736H59.9596C60.9527 32.9736 61.7596 32.1646 61.7596 31.1688C61.7572 30.5327 61.4245 29.9721 60.9245 29.6504ZM58.1974 28.1627H59.3581C59.6883 28.1627 59.9572 28.4323 59.9572 28.7634C59.9572 29.0945 59.6883 29.3641 59.3581 29.3641H58.1974V28.1627ZM59.9572 31.772H58.1974V30.5681H59.9572C60.2875 30.5681 60.5564 30.8377 60.5564 31.1688C60.5564 31.5 60.2875 31.772 59.9572 31.772Z" fill="#1876D1"/>
<path d="M53.2976 26.9611C51.6415 26.9611 50.2969 28.3069 50.2969 29.9696C50.2969 31.63 51.6391 32.9782 53.2976 32.9782C54.9559 32.9782 56.2982 31.6325 56.2982 29.9696C56.2982 28.3069 54.9536 26.9611 53.2976 26.9611ZM53.2976 31.772C52.3044 31.772 51.4976 30.9631 51.4976 29.9673C51.4976 28.9715 52.3044 28.1627 53.2976 28.1627C54.2906 28.1627 55.0975 28.9715 55.0975 29.9673C55.0975 30.9654 54.2906 31.772 53.2976 31.772Z" fill="#1876D1"/>
<path d="M46.1993 32.9759H44.9985V26.9611H47.8248C48.3295 26.9611 48.7636 27.1338 49.1292 27.4814C49.502 27.8339 49.7921 28.3518 49.7992 28.8651C49.804 29.3311 49.6931 29.7095 49.3982 30.069C49.1175 30.4168 48.832 30.6792 48.398 30.7714L49.8984 32.9759H48.4994L47.0886 30.8945C47.0321 30.8164 46.9424 30.7714 46.8458 30.7714H46.1993V32.9759ZM46.1993 29.6669H47.7988C48.2399 29.6669 48.5985 29.3074 48.5985 28.8651C48.5985 28.4228 48.2399 28.0633 47.7988 28.0633H46.1993V29.6669Z" fill="#1876D1"/>
<path fill-rule="evenodd" clip-rule="evenodd" d="M125.255 2.94312L128.296 10.3129L131.17 2.94312H133.819L127.307 18.9356H124.751L127.046 13.343L122.568 2.94312H125.255ZM115.719 2.71863C117.156 2.71863 118.444 3.31713 119.227 4.25255V2.9431H121.746V13.8856H119.227V12.4639C118.425 13.474 117.119 14.11 115.682 14.11C113.051 14.11 110.308 11.9962 110.308 8.42372C110.308 4.79494 112.958 2.71863 115.719 2.71863ZM104.915 0.23096C107.732 0.23096 109.822 2.40072 109.822 5.09408C109.822 7.80644 107.732 9.97619 104.896 9.97619H102.788V13.8856H100.25V0.23096H104.915ZM4.71967 0.20752C6.52272 0.20752 9.01539 0.642531 9.01539 3.42404V4.32345H5.83597V3.5323C5.83597 2.83659 5.39893 2.37529 4.65245 2.37529C3.85595 2.37529 3.57913 2.82289 3.48899 3.23272C3.45659 3.37566 3.44182 3.64453 3.50265 3.90435C3.86322 5.39938 8.6967 6.19694 9.23446 8.8713C9.2889 9.14039 9.40328 9.86217 9.24812 10.9646C8.94508 13.0964 7.04991 13.8846 4.7448 13.8846C2.35065 13.8846 0.114746 13.0239 0.114746 10.1752L0.115848 9.19054H3.53197L3.53505 10.4284C3.53505 11.1241 4.01838 11.5865 4.8151 11.5865C5.66406 11.5865 5.95234 11.1524 6.05615 10.7269C6.11587 10.4874 6.15576 10.0911 6.03102 9.7822C5.37469 8.12942 0.847558 7.37494 0.295029 4.76487C0.160809 4.12174 0.173371 3.61205 0.265716 3.0425C0.603141 0.960008 2.45556 0.20752 4.71967 0.20752ZM46.1509 0.278814C47.9361 0.278814 50.4047 0.708744 50.4047 3.46286V4.35166H47.2568V3.57001C47.2568 2.8796 46.8249 2.42471 46.0839 2.42471C45.2967 2.42471 45.022 2.8679 44.9319 3.27374C44.9015 3.41558 44.8856 3.68136 44.9475 3.93653C45.303 5.41721 50.0883 6.20637 50.6218 8.85444C50.6763 9.12243 50.7884 9.8367 50.6355 10.9277C50.3355 13.0386 48.4593 13.8183 46.1773 13.8183C43.807 13.8183 41.5923 12.9671 41.5923 10.1469L41.5931 9.1717H44.976L44.978 10.3959C44.978 11.0863 45.4571 11.5423 46.2463 11.5423C47.0871 11.5423 47.3721 11.1135 47.4748 10.6932C47.5348 10.4546 47.5724 10.0649 47.4508 9.75805C46.8008 8.12095 42.3176 7.37487 41.7725 4.78888C41.6383 4.15305 41.6509 3.64888 41.7432 3.08441C42.0765 1.0218 43.9108 0.278814 46.1509 0.278814ZM56.8929 0.612242V10.0599C56.8899 10.2238 56.896 10.4098 56.9234 10.5475C56.9851 10.8616 57.2588 11.4732 58.1457 11.4732C59.0314 11.4732 59.3041 10.8616 59.3669 10.5475C59.3903 10.4295 59.3967 10.276 59.3974 10.1313L59.3973 0.612242H62.6217V9.76892C62.6258 10.0042 62.6018 10.4843 62.589 10.6093C62.3669 12.9925 60.4874 13.7649 58.1457 13.7649C55.8029 13.7649 53.9233 12.9925 53.7001 10.6093C53.6884 10.4843 53.6644 10.0042 53.6706 9.76892V0.612242H56.8929ZM84.7311 0.267127C86.9901 0.267127 88.9679 1.02801 89.2029 3.42267C89.2421 3.81413 89.2309 4.23119 89.232 4.26155L89.2322 4.68905H86.0193V3.97323C86.0204 3.97434 86.0173 3.67056 85.9794 3.48674C85.9219 3.20528 85.6797 2.55994 84.706 2.55994C83.7792 2.55994 83.5066 3.17148 83.4365 3.48674C83.3997 3.65487 83.3851 3.88287 83.3851 4.09099V9.92907C83.384 10.091 83.3902 10.2695 83.4144 10.4136C83.4742 10.7551 83.7959 11.3404 84.7174 11.3404C85.6398 11.3404 85.9618 10.7551 86.0193 10.4136C86.0455 10.2695 86.0519 10.091 86.0497 9.92907V8.07458H84.7436V6.21258H89.2562V9.63612C89.2542 9.87671 89.249 10.0521 89.2102 10.4765C88.9995 12.8032 86.9879 13.6332 84.73 13.6332C82.4709 13.6332 80.4616 12.8032 80.2487 10.4765C80.2121 10.0521 80.2057 9.87671 80.2048 9.63612L80.2057 4.26331C80.2057 4.03642 80.233 3.63609 80.2593 3.42267C80.5434 1.0353 82.4709 0.267127 84.7311 0.267127ZM19.4225 0.614363L21.7706 13.3846H18.3478L16.6497 1.79656L16.5785 1.79744L14.8363 13.3846H11.3928L13.7546 0.614363H19.4225ZM29.7912 0.614363L31.3604 10.3795H31.4327L33.0041 0.614363H38.1981L38.4791 13.3846H35.2925L35.2127 1.90482L35.1426 1.90592L33.0136 13.3846H29.7808L27.6527 1.90482H27.5826L27.5028 13.3846H24.3141L24.5952 0.614363H29.7912ZM70.9007 0.614363L73.8285 10.6391H73.8988L73.7258 0.614363H76.8809V13.2533H72.3441L69.1995 2.8831H69.1292L69.3053 13.2533H66.1722V0.614363H70.9007ZM116.092 5.0194C114.227 5.0194 112.79 6.49698 112.79 8.38616C112.79 10.2941 114.227 11.7905 116.092 11.7905C117.958 11.7905 119.358 10.2753 119.358 8.38616C119.358 6.53454 117.958 5.0194 116.092 5.0194ZM104.728 2.58762H102.788V7.61931H104.728C106.24 7.61931 107.266 6.49698 107.266 5.09408C107.266 3.71017 106.24 2.58762 104.728 2.58762Z" fill="black"/>
</svg>
