<svg width="120" height="81" viewBox="0 0 120 81" fill="none" xmlns="http://www.w3.org/2000/svg">
	<path d="M15 16.7949L20.4723 26.5355V32.477L15.0064 42.1985L15 16.7949Z" fill="#5B57A2"/>
	<path d="M36.0115 22.9911L41.1392 19.8613L51.6334 19.8516L36.0115 29.3818V22.9911Z" fill="#D90751"/>
	<path d="M35.9825 16.7376L36.0115 29.6339L30.5264 26.2776V7L35.9825 16.7376Z" fill="#FAB718"/>
	<path d="M51.6334 19.8516L41.1388 19.8614L35.9825 16.7376L30.5264 7L51.6334 19.8516Z" fill="#ED6F26"/>
	<path d="M36.0115 42.2527V35.9959L30.5264 32.7034L30.5294 52.0001L36.0115 42.2527Z" fill="#63B22F"/>
	<path d="M41.1264 39.1513L20.4719 26.5355L15 16.7949L51.6112 39.1385L41.1264 39.1513Z" fill="#1487C9"/>
	<path d="M30.5298 52L36.0111 42.2527L41.1261 39.1514L51.6109 39.1387L30.5298 52Z" fill="#017F36"/>
	<path d="M15.0063 42.1986L30.5711 32.7036L25.3383 29.5063L20.4722 32.4771L15.0063 42.1986Z" fill="#984995"/>
	<path d="M94.3519 23.7691V34.7708H90.407V27.0533H86.6085V34.7708H82.6636V23.7683H94.3519V23.7691Z" fill="black"/>
	<path fill-rule="evenodd" clip-rule="evenodd" d="M74.5618 35.1642C78.0933 35.1642 80.7157 33.0079 80.7157 29.739C80.7157 26.5752 78.7809 24.5209 75.5473 24.5209C74.055 24.5209 72.8236 25.044 71.8961 25.9467C72.1175 24.081 73.7018 22.719 75.446 22.719C75.8486 22.719 78.8792 22.7127 78.8792 22.7127L80.593 19.4468C80.593 19.4468 76.7881 19.533 75.0194 19.533C70.978 19.6032 68.2483 23.2613 68.2483 27.7043C68.2483 32.8804 70.9106 35.1642 74.5618 35.1642ZM74.5833 27.4137C75.8945 27.4137 76.8036 28.2717 76.8036 29.7387C76.8036 31.059 75.9958 32.1469 74.5833 32.1499C73.2322 32.1499 72.3231 31.1419 72.3231 29.7612C72.3231 28.2938 73.2322 27.4137 74.5833 27.4137Z" fill="black"/>
	<path d="M65.0372 31.0874C65.0372 31.0874 64.1056 31.6222 62.7142 31.7234C61.1145 31.7707 59.6892 30.7646 59.6892 28.9769C59.6892 27.2332 60.9469 26.2338 62.6739 26.2338C63.7328 26.2338 65.1336 26.9647 65.1336 26.9647C65.1336 26.9647 66.1587 25.0916 66.6896 24.1548C65.7173 23.4209 64.4223 23.0186 62.916 23.0186C59.1146 23.0186 56.1702 25.4868 56.1702 28.9548C56.1702 32.4671 58.9376 34.8779 62.916 34.8052C64.028 34.7639 65.5622 34.3751 66.4972 33.7769L65.0372 31.0874Z" fill="black"/>
	<path opacity="0.7" d="M28 62V72H37.956L28 62Z" fill="#023D5E"/>
	<path d="M37.956 62H28V72L37.956 62Z" fill="#023D5E"/>
	<path d="M72.7243 63.8203C71.2623 63.8203 69.9784 65.01 69.9784 66.4784V69.729H71.1559V68.5463H74.2927V69.729H75.4701V66.4784C75.4701 65.01 74.1863 63.8203 72.7243 63.8203ZM74.2927 67.366H71.1559V66.4807C71.1559 65.6652 71.9123 65.003 72.7243 65.003C73.5362 65.003 74.2927 65.6652 74.2927 66.4807V67.366Z" fill="#FF5722"/>
	<path d="M89.0004 63.8203C87.5384 63.8203 86.2545 65.01 86.2545 66.4784V69.729H87.432V68.5463H90.5688V69.729H91.7463V66.4784C91.7463 65.01 90.4624 63.8203 89.0004 63.8203ZM90.5688 67.366H87.432V66.4807C87.432 65.6652 88.1884 65.003 89.0004 65.003C89.8124 65.003 90.5688 65.6652 90.5688 66.4807V67.366V67.366Z" fill="#FF5722"/>
	<path d="M60.7622 63.8203C59.1383 63.8203 57.8197 65.1424 57.8197 66.7758C57.8197 68.4069 59.136 69.7313 60.7622 69.7313C62.3861 69.7313 63.7047 68.4092 63.7047 66.7758C63.7047 65.1424 62.3861 63.8203 60.7622 63.8203ZM60.7622 68.5463C59.7883 68.5463 58.9972 67.7517 58.9972 66.7735C58.9972 65.7953 59.7883 65.0007 60.7622 65.0007C61.7361 65.0007 62.5273 65.7953 62.5273 66.7735C62.5273 67.754 61.7361 68.5463 60.7622 68.5463Z" fill="#023D5E"/>
	<path d="M56.573 66.4623C56.7187 66.2044 56.802 65.9093 56.802 65.591C56.802 64.6128 56.0108 63.8181 55.0369 63.8181H52.7236V69.7268H55.6268C56.6007 69.7268 57.3919 68.9322 57.3919 67.954C57.3896 67.3289 57.0634 66.7783 56.573 66.4623ZM53.8988 65.0008H55.0369C55.3608 65.0008 55.6245 65.2657 55.6245 65.591C55.6245 65.9162 55.3608 66.1811 55.0369 66.1811H53.8988V65.0008ZM55.6245 68.5465H53.8988V67.3638H55.6245C55.9484 67.3638 56.2121 67.6287 56.2121 67.954C56.2121 68.2793 55.9484 68.5465 55.6245 68.5465Z" fill="#023D5E"/>
	<path d="M49.0939 63.8203C47.4699 63.8203 46.1514 65.1424 46.1514 66.7758C46.1514 68.4069 47.4676 69.7313 49.0939 69.7313C50.7201 69.7313 52.0364 68.4092 52.0364 66.7758C52.0364 65.1424 50.7178 63.8203 49.0939 63.8203ZM49.0939 68.5463C48.12 68.5463 47.3288 67.7517 47.3288 66.7735C47.3288 65.7953 48.12 65.0007 49.0939 65.0007C50.0678 65.0007 50.8589 65.7953 50.8589 66.7735C50.8589 67.754 50.0678 68.5463 49.0939 68.5463Z" fill="#023D5E"/>
	<path d="M79.1903 66.1949L79.1973 66.1833H77.8255C77.5016 66.1833 77.2379 65.9184 77.2379 65.5932C77.2379 65.2679 77.5016 65.003 77.8255 65.003H79.9815L80.7657 63.8203H77.8232C76.8493 63.8203 76.0581 64.615 76.0581 65.5932C76.0581 66.5086 76.7475 67.2614 77.6335 67.3544L77.6265 67.366H78.9983C79.3222 67.366 79.5859 67.6309 79.5859 67.9562C79.5859 68.2815 79.3222 68.5463 78.9983 68.5463H76.8423L76.0581 69.729H79.0006C79.9745 69.729 80.7657 68.9344 80.7657 67.9562C80.7657 67.0407 80.074 66.2879 79.1903 66.1949Z" fill="#FF5722"/>
	<path d="M82.7246 63.8203C81.7507 63.8203 80.9596 64.615 80.9596 65.5932C80.9596 66.5086 81.649 67.2614 82.5349 67.3544L82.528 67.366H83.8998C84.2236 67.366 84.4874 67.6309 84.4874 67.9562C84.4874 68.2815 84.2236 68.5463 83.8998 68.5463H81.7438L80.9596 69.729H83.9021C84.876 69.729 85.6671 68.9344 85.6671 67.9562C85.6671 67.0407 84.9778 66.2879 84.0918 66.1949L84.0987 66.1833H82.7269C82.4031 66.1833 82.1394 65.9184 82.1394 65.5932C82.1394 65.2679 82.4031 65.003 82.7269 65.003H84.8829L85.6671 63.8203H82.7246V63.8203Z" fill="#FF5722"/>
	<path d="M42.1335 69.7288H40.9561V63.8201H43.7274C44.2224 63.8201 44.6481 63.9897 45.0066 64.3312C45.3721 64.6774 45.6567 65.1863 45.6636 65.6905C45.6682 66.1482 45.5595 66.52 45.2704 66.8732C44.9951 67.2147 44.7152 67.4726 44.2895 67.5632L45.7608 69.7288H44.389L43.0056 67.6841C42.9501 67.6074 42.8622 67.5632 42.7674 67.5632H42.1335V69.7288ZM42.1335 66.4782H43.7019C44.1345 66.4782 44.4861 66.125 44.4861 65.6905C44.4861 65.256 44.1345 64.9028 43.7019 64.9028H42.1335V66.4782Z" fill="#023D5E"/>
	<path d="M69.3309 63.8203L66.925 66.3924L69.391 69.7267H68.0192L66.1431 67.2266L65.6666 67.7982V69.7244H64.4891V63.8203H65.6666V66.1508L67.7879 63.8203H69.3309V63.8203Z" fill="#FF5722"/>
</svg>
