<svg width="111" height="60" viewBox="0 0 111 60" fill="none" xmlns="http://www.w3.org/2000/svg">
<path d="M30.7804 11.2231C30.0889 12.0676 28.9826 12.7336 27.8762 12.6384C27.7379 11.4967 28.2795 10.2835 28.9134 9.53425C29.6049 8.66603 30.815 8.04757 31.7946 8C31.9098 9.18934 31.4604 10.3549 30.7804 11.2231ZM31.7831 12.8644C30.1811 12.7693 28.8097 13.804 28.049 13.804C27.2769 13.804 26.1129 12.912 24.8452 12.9358C23.1971 12.9596 21.6643 13.9229 20.823 15.4572C19.0943 18.5257 20.3736 23.069 22.0446 25.5666C22.8629 26.8035 23.8425 28.1594 25.1333 28.1118C26.3549 28.0642 26.8389 27.2911 28.3141 27.2911C29.8008 27.2911 30.2272 28.1118 31.518 28.088C32.8549 28.0642 33.6962 26.8511 34.5144 25.6142C35.4479 24.2107 35.8283 22.843 35.8513 22.7716C35.8283 22.7479 33.2698 21.7369 33.2467 18.6922C33.2237 16.147 35.2635 14.9339 35.3557 14.8625C34.2033 13.1023 32.4054 12.912 31.7831 12.8644ZM41.0374 9.41532V27.9572H43.8264V21.618H47.6872C51.2138 21.618 53.6916 19.1204 53.6916 15.5048C53.6916 11.8892 51.2599 9.41532 47.7794 9.41532H41.0374ZM43.8264 11.8416H47.0418C49.462 11.8416 50.845 13.1736 50.845 15.5167C50.845 17.8597 49.462 19.2036 47.0303 19.2036H43.8264V11.8416ZM58.7856 28.0999C60.5373 28.0999 62.1623 27.1841 62.8999 25.7331H62.9575V27.9572H65.5391V18.7279C65.5391 16.0519 63.4646 14.3273 60.2723 14.3273C57.3104 14.3273 55.1207 16.0756 55.04 18.4781H57.5524C57.7599 17.3363 58.7856 16.5871 60.1916 16.5871C61.8973 16.5871 62.8538 17.4077 62.8538 18.9182V19.941L59.3733 20.1551C56.1349 20.3573 54.3831 21.725 54.3831 24.1037C54.3831 26.5062 56.1925 28.0999 58.7856 28.0999ZM59.5347 25.8996C58.048 25.8996 57.103 25.1622 57.103 24.0324C57.103 22.8668 58.0134 22.1889 59.7537 22.0818L62.8538 21.8796V22.9263C62.8538 24.6627 61.4247 25.8996 59.5347 25.8996ZM68.985 33C71.7048 33 72.9841 31.9296 74.102 28.6827L79 14.5057H76.1649L72.8804 25.4596H72.8227L69.5382 14.5057H66.6224L71.3476 28.0048L71.094 28.8254C70.6676 30.2169 69.9761 30.7521 68.743 30.7521C68.524 30.7521 68.0976 30.7284 67.9247 30.7046V32.9286C68.0861 32.9762 68.7775 33 68.985 33Z" fill="black"/>
<path opacity="0.75" d="M17 42.9553V52.9816H26.9999L17 42.9553Z" fill="#1664C0"/>
<path d="M26.9999 42.9553H17V52.9816L26.9999 42.9553Z" fill="#1876D1"/>
<path d="M63.3954 44.9611C61.9045 44.9611 60.5952 46.172 60.5952 47.6669V50.9759H61.796V49.772H64.9949V50.9759H66.1956V47.6669C66.1956 46.172 64.8863 44.9611 63.3954 44.9611ZM64.9949 48.5705H61.796V47.6693C61.796 46.8391 62.5674 46.165 63.3954 46.165C64.2234 46.165 64.9949 46.8391 64.9949 47.6693V48.5705Z" fill="#FF5722"/>
<path d="M79.9935 44.9611C78.5026 44.9611 77.1934 46.172 77.1934 47.6669V50.9759H78.3941V49.772H81.593V50.9759H82.7938V47.6669C82.7938 46.172 81.4844 44.9611 79.9935 44.9611ZM81.593 48.5705H78.3941V47.6693C78.3941 46.8391 79.1655 46.165 79.9935 46.165C80.8216 46.165 81.593 46.8391 81.593 47.6693V48.5705Z" fill="#FF5722"/>
<path d="M69.9885 47.3784L69.9956 47.3666H68.5967C68.2665 47.3666 67.9975 47.0969 67.9975 46.7657C67.9975 46.4346 68.2665 46.165 68.5967 46.165H70.7953L71.595 44.9611H68.5944C67.6012 44.9611 66.7944 45.77 66.7944 46.7657C66.7944 47.6977 67.4973 48.4641 68.4009 48.5586L68.3938 48.5705H69.7927C70.123 48.5705 70.392 48.84 70.392 49.1712C70.392 49.5023 70.123 49.772 69.7927 49.772H67.5941L66.7944 50.9759H69.7951C70.7882 50.9759 71.595 50.167 71.595 49.1712C71.595 48.2393 70.8897 47.473 69.9885 47.3784Z" fill="#FF5722"/>
<path d="M73.5934 44.9611C72.6002 44.9611 71.7935 45.77 71.7935 46.7657C71.7935 47.6977 72.4965 48.4641 73.3999 48.5586L73.3928 48.5705H74.7917C75.122 48.5705 75.391 48.84 75.391 49.1712C75.391 49.5023 75.122 49.772 74.7917 49.772H72.5931L71.7935 50.9759H74.7941C75.7873 50.9759 76.5941 50.167 76.5941 49.1712C76.5941 48.2393 75.8911 47.473 74.9875 47.3784L74.9947 47.3666H73.5957C73.2655 47.3666 72.9965 47.0969 72.9965 46.7657C72.9965 46.4346 73.2655 46.165 73.5957 46.165H75.7944L76.5941 44.9611H73.5934Z" fill="#FF5722"/>
<path d="M59.9345 44.9611L57.4811 47.5794L59.9958 50.9736H58.5969L56.6837 48.4286L56.1978 49.0104V50.9712H54.9971V44.9611H56.1978V47.3334L58.361 44.9611H59.9345Z" fill="#FF5722"/>
<path d="M51.1966 44.9611C49.5405 44.9611 48.1958 46.3069 48.1958 47.9696C48.1958 49.63 49.5381 50.9782 51.1966 50.9782C52.8526 50.9782 54.1973 49.6325 54.1973 47.9696C54.1973 46.3069 52.8526 44.9611 51.1966 44.9611ZM51.1966 49.772C50.2034 49.772 49.3966 48.9631 49.3966 47.9673C49.3966 46.9715 50.2034 46.1627 51.1966 46.1627C52.1897 46.1627 52.9965 46.9715 52.9965 47.9673C52.9965 48.9654 52.1897 49.772 51.1966 49.772Z" fill="#1876D1"/>
<path d="M46.9245 47.6504C47.0731 47.3879 47.158 47.0874 47.158 46.7634C47.158 45.7676 46.3511 44.9587 45.3581 44.9587H42.999V50.9736H45.9596C46.9527 50.9736 47.7596 50.1646 47.7596 49.1688C47.7572 48.5327 47.4245 47.9721 46.9245 47.6504ZM44.1974 46.1627H45.3581C45.6883 46.1627 45.9572 46.4323 45.9572 46.7634C45.9572 47.0945 45.6883 47.3641 45.3581 47.3641H44.1974V46.1627ZM45.9572 49.772H44.1974V48.5681H45.9572C46.2875 48.5681 46.5564 48.8377 46.5564 49.1688C46.5564 49.5 46.2875 49.772 45.9572 49.772Z" fill="#1876D1"/>
<path d="M39.2976 44.9611C37.6415 44.9611 36.2969 46.3069 36.2969 47.9696C36.2969 49.63 37.6391 50.9782 39.2976 50.9782C40.9559 50.9782 42.2982 49.6325 42.2982 47.9696C42.2982 46.3069 40.9536 44.9611 39.2976 44.9611ZM39.2976 49.772C38.3044 49.772 37.4976 48.9631 37.4976 47.9673C37.4976 46.9715 38.3044 46.1627 39.2976 46.1627C40.2906 46.1627 41.0975 46.9715 41.0975 47.9673C41.0975 48.9654 40.2906 49.772 39.2976 49.772Z" fill="#1876D1"/>
<path d="M32.1993 50.9759H30.9985V44.9611H33.8248C34.3295 44.9611 34.7636 45.1338 35.1292 45.4814C35.502 45.8339 35.7921 46.3518 35.7992 46.8651C35.804 47.3311 35.6931 47.7095 35.3982 48.069C35.1175 48.4168 34.832 48.6792 34.398 48.7714L35.8984 50.9759H34.4994L33.0886 48.8945C33.0321 48.8164 32.9424 48.7714 32.8458 48.7714H32.1993V50.9759ZM32.1993 47.6669H33.7988C34.2399 47.6669 34.5985 47.3074 34.5985 46.8651C34.5985 46.4228 34.2399 46.0633 33.7988 46.0633H32.1993V47.6669Z" fill="#1876D1"/>
</svg>
