<svg width="64" height="53" viewBox="0 0 64 53" fill="none" xmlns="http://www.w3.org/2000/svg">
	<path d="M11.7804 11.2231C11.0889 12.0676 9.98255 12.7336 8.87617 12.6384C8.73788 11.4967 9.27954 10.2835 9.9134 9.53425C10.6049 8.66603 11.815 8.04757 12.7946 8C12.9098 9.18934 12.4604 10.3549 11.7804 11.2231ZM12.7831 12.8644C11.1811 12.7693 9.80968 13.804 9.04905 13.804C8.27689 13.804 7.11289 12.912 5.84516 12.9358C4.19712 12.9596 2.66433 13.9229 1.82302 15.4572C0.0943091 18.5257 1.37356 23.069 3.04465 25.5666C3.86291 26.8035 4.84251 28.1594 6.13328 28.1118C7.35491 28.0642 7.83895 27.2911 9.31412 27.2911C10.8008 27.2911 11.2272 28.1118 12.518 28.088C13.8549 28.0642 14.6962 26.8511 15.5144 25.6142C16.4479 24.2107 16.8283 22.843 16.8513 22.7716C16.8283 22.7479 14.2698 21.7369 14.2467 18.6922C14.2237 16.147 16.2635 14.9339 16.3557 14.8625C15.2033 13.1023 13.4054 12.912 12.7831 12.8644ZM22.0374 9.41532V27.9572H24.8264V21.618H28.6872C32.2138 21.618 34.6916 19.1204 34.6916 15.5048C34.6916 11.8892 32.2599 9.41532 28.7794 9.41532H22.0374ZM24.8264 11.8416H28.0418C30.462 11.8416 31.845 13.1736 31.845 15.5167C31.845 17.8597 30.462 19.2036 28.0303 19.2036H24.8264V11.8416ZM39.7856 28.0999C41.5373 28.0999 43.1623 27.1841 43.8999 25.7331H43.9575V27.9572H46.5391V18.7279C46.5391 16.0519 44.4646 14.3273 41.2723 14.3273C38.3104 14.3273 36.1207 16.0756 36.04 18.4781H38.5524C38.7599 17.3363 39.7856 16.5871 41.1916 16.5871C42.8973 16.5871 43.8538 17.4077 43.8538 18.9182V19.941L40.3733 20.1551C37.1349 20.3573 35.3831 21.725 35.3831 24.1037C35.3831 26.5062 37.1925 28.0999 39.7856 28.0999ZM40.5347 25.8996C39.048 25.8996 38.103 25.1622 38.103 24.0324C38.103 22.8668 39.0134 22.1889 40.7537 22.0818L43.8538 21.8796V22.9263C43.8538 24.6627 42.4247 25.8996 40.5347 25.8996ZM49.985 33C52.7048 33 53.9841 31.9296 55.102 28.6827L60 14.5057H57.1649L53.8804 25.4596H53.8227L50.5382 14.5057H47.6224L52.3476 28.0048L52.094 28.8254C51.6676 30.2169 50.9761 30.7521 49.743 30.7521C49.524 30.7521 49.0976 30.7284 48.9247 30.7046V32.9286C49.0861 32.9762 49.7775 33 49.985 33Z" fill="white"/>
	<path opacity="0.7" d="M0 42V52.03H9.9859L0 42Z" fill="white"/>
	<path d="M9.9859 42H0V52.03L9.9859 42Z" fill="white"/>
	<path d="M44.5727 43.8256C43.1063 43.8256 41.8186 45.0188 41.8186 46.4916V49.752H42.9996V48.5658H46.1458V49.752H47.3268V46.4916C47.3268 45.0188 46.0391 43.8256 44.5727 43.8256ZM46.1458 47.3819H42.9996V46.494C42.9996 45.676 43.7583 45.0118 44.5727 45.0118C45.3871 45.0118 46.1458 45.676 46.1458 46.494V47.3819Z" fill="white"/>
	<path d="M60.8977 43.8256C59.4313 43.8256 58.1436 45.0188 58.1436 46.4916V49.752H59.3245V48.5658H62.4708V49.752H63.6518V46.4916C63.6518 45.0188 62.364 43.8256 60.8977 43.8256ZM62.4708 47.3819H59.3245V46.494C59.3245 45.676 60.0833 45.0118 60.8977 45.0118C61.7121 45.0118 62.4708 45.676 62.4708 46.494V47.3819V47.3819Z" fill="white"/>
	<path d="M32.5749 43.8256C30.9461 43.8256 29.6235 45.1516 29.6235 46.7899C29.6235 48.4259 30.9437 49.7543 32.5749 49.7543C34.2037 49.7543 35.5262 48.4283 35.5262 46.7899C35.5262 45.1516 34.2037 43.8256 32.5749 43.8256ZM32.5749 48.5658C31.5981 48.5658 30.8045 47.7687 30.8045 46.7876C30.8045 45.8065 31.5981 45.0095 32.5749 45.0095C33.5517 45.0095 34.3452 45.8065 34.3452 46.7876C34.3452 47.7711 33.5517 48.5658 32.5749 48.5658Z" fill="white"/>
	<path d="M28.3731 46.4755C28.5193 46.2168 28.6028 45.9208 28.6028 45.6015C28.6028 44.6204 27.8093 43.8234 26.8324 43.8234H24.5122V49.7498H27.4241C28.4009 49.7498 29.1945 48.9528 29.1945 47.9716C29.1921 47.3447 28.865 46.7924 28.3731 46.4755ZM25.6909 45.0096H26.8324C27.1573 45.0096 27.4218 45.2753 27.4218 45.6015C27.4218 45.9278 27.1573 46.1935 26.8324 46.1935H25.6909V45.0096ZM27.4218 48.5659H25.6909V47.3797H27.4218C27.7466 47.3797 28.0111 47.6454 28.0111 47.9716C28.0111 48.2979 27.7466 48.5659 27.4218 48.5659Z" fill="white"/>
	<path d="M20.8717 43.8256C19.2429 43.8256 17.9204 45.1516 17.9204 46.7899C17.9204 48.4259 19.2406 49.7543 20.8717 49.7543C22.5029 49.7543 23.8231 48.4283 23.8231 46.7899C23.8231 45.1516 22.5005 43.8256 20.8717 43.8256ZM20.8717 48.5658C19.8949 48.5658 19.1014 47.7687 19.1014 46.7876C19.1014 45.8065 19.8949 45.0095 20.8717 45.0095C21.8486 45.0095 22.6421 45.8065 22.6421 46.7876C22.6421 47.7711 21.8486 48.5658 20.8717 48.5658Z" fill="white"/>
	<path d="M51.0583 46.2073L51.0653 46.1957H49.6894C49.3646 46.1957 49.1001 45.93 49.1001 45.6037C49.1001 45.2775 49.3646 45.0118 49.6894 45.0118H51.8519L52.6384 43.8256H49.6871C48.7103 43.8256 47.9167 44.6226 47.9167 45.6037C47.9167 46.5219 48.6082 47.277 49.4968 47.3702L49.4899 47.3819H50.8658C51.1906 47.3819 51.4551 47.6476 51.4551 47.9738C51.4551 48.3001 51.1906 48.5658 50.8658 48.5658H48.7033L47.9167 49.752H50.8681C51.8449 49.752 52.6384 48.955 52.6384 47.9738C52.6384 47.0556 51.9447 46.3005 51.0583 46.2073Z" fill="white"/>
	<path d="M54.6033 43.8256C53.6265 43.8256 52.833 44.6226 52.833 45.6037C52.833 46.5219 53.5244 47.277 54.4131 47.3702L54.4061 47.3819H55.782C56.1068 47.3819 56.3713 47.6476 56.3713 47.9738C56.3713 48.3001 56.1068 48.5658 55.782 48.5658H53.6196L52.833 49.752H55.7843C56.7611 49.752 57.5547 48.955 57.5547 47.9738C57.5547 47.0556 56.8632 46.3005 55.9746 46.2073L55.9815 46.1957H54.6057C54.2808 46.1957 54.0163 45.93 54.0163 45.6037C54.0163 45.2775 54.2808 45.0118 54.6057 45.0118H56.7681L57.5547 43.8256H54.6033V43.8256Z" fill="white"/>
	<path d="M13.8902 49.7519H12.7092V43.8255H15.4889C15.9854 43.8255 16.4123 43.9956 16.772 44.3382C17.1386 44.6854 17.4239 45.1958 17.4309 45.7015C17.4356 46.1606 17.3265 46.5335 17.0365 46.8878C16.7604 47.2303 16.4796 47.489 16.0527 47.5799L17.5284 49.7519H16.1525L14.765 47.7011C14.7093 47.6242 14.6211 47.5799 14.526 47.5799H13.8902V49.7519ZM13.8902 46.4916H15.4633C15.8972 46.4916 16.2499 46.1373 16.2499 45.7015C16.2499 45.2657 15.8972 44.9115 15.4633 44.9115H13.8902V46.4916Z" fill="white"/>
	<path d="M41.1692 43.8256L38.7562 46.4054L41.2296 49.7497H39.8537L37.972 47.2421L37.494 47.8154V49.7473H36.313V43.8256H37.494V46.163L39.6216 43.8256H41.1692V43.8256Z" fill="white"/>
</svg>
