<svg width="134" height="36" viewBox="0 0 134 36" fill="none" xmlns="http://www.w3.org/2000/svg">
	<path fill-rule="evenodd" clip-rule="evenodd" d="M125.255 2.94312L128.296 10.3129L131.17 2.94312H133.819L127.307 18.9356H124.751L127.046 13.343L122.568 2.94312H125.255ZM115.719 2.71863C117.156 2.71863 118.444 3.31713 119.227 4.25255V2.9431H121.746V13.8856H119.227V12.4639C118.425 13.474 117.119 14.11 115.682 14.11C113.051 14.11 110.308 11.9962 110.308 8.42372C110.308 4.79494 112.958 2.71863 115.719 2.71863ZM104.915 0.23096C107.732 0.23096 109.822 2.40072 109.822 5.09408C109.822 7.80644 107.732 9.97619 104.896 9.97619H102.788V13.8856H100.25V0.23096H104.915ZM4.71967 0.20752C6.52272 0.20752 9.01539 0.642531 9.01539 3.42404V4.32345H5.83597V3.5323C5.83597 2.83659 5.39893 2.37529 4.65245 2.37529C3.85595 2.37529 3.57913 2.82289 3.48899 3.23272C3.45659 3.37566 3.44182 3.64453 3.50265 3.90435C3.86322 5.39938 8.6967 6.19694 9.23446 8.8713C9.2889 9.14039 9.40328 9.86217 9.24812 10.9646C8.94508 13.0964 7.04991 13.8846 4.7448 13.8846C2.35065 13.8846 0.114746 13.0239 0.114746 10.1752L0.115848 9.19054H3.53197L3.53505 10.4284C3.53505 11.1241 4.01838 11.5865 4.8151 11.5865C5.66406 11.5865 5.95234 11.1524 6.05615 10.7269C6.11587 10.4874 6.15576 10.0911 6.03102 9.7822C5.37469 8.12942 0.847558 7.37494 0.295029 4.76487C0.160809 4.12174 0.173371 3.61205 0.265716 3.0425C0.603141 0.960008 2.45556 0.20752 4.71967 0.20752ZM46.1509 0.278814C47.9361 0.278814 50.4047 0.708744 50.4047 3.46286V4.35166H47.2568V3.57001C47.2568 2.8796 46.8249 2.42471 46.0839 2.42471C45.2967 2.42471 45.022 2.8679 44.9319 3.27374C44.9015 3.41558 44.8856 3.68136 44.9475 3.93653C45.303 5.41721 50.0883 6.20637 50.6218 8.85444C50.6763 9.12243 50.7884 9.8367 50.6355 10.9277C50.3355 13.0386 48.4593 13.8183 46.1773 13.8183C43.807 13.8183 41.5923 12.9671 41.5923 10.1469L41.5931 9.1717H44.976L44.978 10.3959C44.978 11.0863 45.4571 11.5423 46.2463 11.5423C47.0871 11.5423 47.3721 11.1135 47.4748 10.6932C47.5348 10.4546 47.5724 10.0649 47.4508 9.75805C46.8008 8.12095 42.3176 7.37487 41.7725 4.78888C41.6383 4.15305 41.6509 3.64888 41.7432 3.08441C42.0765 1.0218 43.9108 0.278814 46.1509 0.278814ZM56.8929 0.612242V10.0599C56.8899 10.2238 56.896 10.4098 56.9234 10.5475C56.9851 10.8616 57.2588 11.4732 58.1457 11.4732C59.0314 11.4732 59.3041 10.8616 59.3669 10.5475C59.3903 10.4295 59.3967 10.276 59.3974 10.1313L59.3973 0.612242H62.6217V9.76892C62.6258 10.0042 62.6018 10.4843 62.589 10.6093C62.3669 12.9925 60.4874 13.7649 58.1457 13.7649C55.8029 13.7649 53.9233 12.9925 53.7001 10.6093C53.6884 10.4843 53.6644 10.0042 53.6706 9.76892V0.612242H56.8929ZM84.7311 0.267127C86.9901 0.267127 88.9679 1.02801 89.2029 3.42267C89.2421 3.81413 89.2309 4.23119 89.232 4.26155L89.2322 4.68905H86.0193V3.97323C86.0204 3.97434 86.0173 3.67056 85.9794 3.48674C85.9219 3.20528 85.6797 2.55994 84.706 2.55994C83.7792 2.55994 83.5066 3.17148 83.4365 3.48674C83.3997 3.65487 83.3851 3.88287 83.3851 4.09099V9.92907C83.384 10.091 83.3902 10.2695 83.4144 10.4136C83.4742 10.7551 83.7959 11.3404 84.7174 11.3404C85.6398 11.3404 85.9618 10.7551 86.0193 10.4136C86.0455 10.2695 86.0519 10.091 86.0497 9.92907V8.07458H84.7436V6.21258H89.2562V9.63612C89.2542 9.87671 89.249 10.0521 89.2102 10.4765C88.9995 12.8032 86.9879 13.6332 84.73 13.6332C82.4709 13.6332 80.4616 12.8032 80.2487 10.4765C80.2121 10.0521 80.2057 9.87671 80.2048 9.63612L80.2057 4.26331C80.2057 4.03642 80.233 3.63609 80.2593 3.42267C80.5434 1.0353 82.4709 0.267127 84.7311 0.267127ZM19.4225 0.614363L21.7706 13.3846H18.3478L16.6497 1.79656L16.5785 1.79744L14.8363 13.3846H11.3928L13.7546 0.614363H19.4225ZM29.7912 0.614363L31.3604 10.3795H31.4327L33.0041 0.614363H38.1981L38.4791 13.3846H35.2925L35.2127 1.90482L35.1426 1.90592L33.0136 13.3846H29.7808L27.6527 1.90482H27.5826L27.5028 13.3846H24.3141L24.5952 0.614363H29.7912ZM70.9007 0.614363L73.8285 10.6391H73.8988L73.7258 0.614363H76.8809V13.2533H72.3441L69.1995 2.8831H69.1292L69.3053 13.2533H66.1722V0.614363H70.9007ZM116.092 5.0194C114.227 5.0194 112.79 6.49698 112.79 8.38616C112.79 10.2941 114.227 11.7905 116.092 11.7905C117.958 11.7905 119.358 10.2753 119.358 8.38616C119.358 6.53454 117.958 5.0194 116.092 5.0194ZM104.728 2.58762H102.788V7.61931H104.728C106.24 7.61931 107.266 6.49698 107.266 5.09408C107.266 3.71017 106.24 2.58762 104.728 2.58762Z" fill="black"/>
	<path opacity="0.7" d="M32 25V35.2182H42.1733L32 25Z" fill="#023D5E"/>
	<path d="M42.1733 25H32V35.2182L42.1733 25Z" fill="#023D5E"/>
	<path d="M77.4093 26.8598C75.9154 26.8598 74.6035 28.0754 74.6035 29.5759V32.8974H75.8067V31.689H79.0119V32.8974H80.2151V29.5759C80.2151 28.0754 78.9032 26.8598 77.4093 26.8598ZM79.0119 30.4829H75.8067V29.5783C75.8067 28.7449 76.5796 28.0683 77.4093 28.0683C78.239 28.0683 79.0119 28.7449 79.0119 29.5783V30.4829Z" fill="#FF5722"/>
	<path d="M94.0404 26.8598C92.5465 26.8598 91.2346 28.0754 91.2346 29.5759V32.8974H92.4378V31.689H95.643V32.8974H96.8462V29.5759C96.8462 28.0754 95.5343 26.8598 94.0404 26.8598ZM95.643 30.4829H92.4378V29.5783C92.4378 28.7449 93.2107 28.0683 94.0404 28.0683C94.8701 28.0683 95.643 28.7449 95.643 29.5783V30.4829V30.4829Z" fill="#FF5722"/>
	<path d="M65.1862 26.8598C63.5268 26.8598 62.1794 28.2107 62.1794 29.8798C62.1794 31.5465 63.5244 32.8998 65.1862 32.8998C66.8455 32.8998 68.1929 31.5489 68.1929 29.8798C68.1929 28.2107 66.8455 26.8598 65.1862 26.8598ZM65.1862 31.689C64.191 31.689 63.3826 30.877 63.3826 29.8774C63.3826 28.8779 64.191 28.0659 65.1862 28.0659C66.1813 28.0659 66.9897 28.8779 66.9897 29.8774C66.9897 30.8794 66.1813 31.689 65.1862 31.689Z" fill="#023D5E"/>
	<path d="M60.9055 29.5594C61.0544 29.2959 61.1395 28.9944 61.1395 28.6691C61.1395 27.6696 60.3311 26.8576 59.3359 26.8576H56.9722V32.8952H59.9387C60.9339 32.8952 61.7423 32.0832 61.7423 31.0837C61.7399 30.445 61.4066 29.8823 60.9055 29.5594ZM58.173 28.066H59.3359C59.6669 28.066 59.9363 28.3367 59.9363 28.6691C59.9363 29.0015 59.6669 29.2721 59.3359 29.2721H58.173V28.066ZM59.9363 31.6891H58.173V30.4806H59.9363C60.2673 30.4806 60.5367 30.7513 60.5367 31.0837C60.5367 31.4161 60.2673 31.6891 59.9363 31.6891Z" fill="#023D5E"/>
	<path d="M53.2633 26.8598C51.6039 26.8598 50.2566 28.2107 50.2566 29.8798C50.2566 31.5465 51.6016 32.8998 53.2633 32.8998C54.925 32.8998 56.27 31.5489 56.27 29.8798C56.27 28.2107 54.9227 26.8598 53.2633 26.8598ZM53.2633 31.689C52.2682 31.689 51.4597 30.877 51.4597 29.8774C51.4597 28.8779 52.2682 28.0659 53.2633 28.0659C54.2584 28.0659 55.0669 28.8779 55.0669 29.8774C55.0669 30.8794 54.2584 31.689 53.2633 31.689Z" fill="#023D5E"/>
	<path d="M84.0162 29.2863L84.0233 29.2744H82.6216C82.2907 29.2744 82.0212 29.0037 82.0212 28.6713C82.0212 28.3389 82.2907 28.0683 82.6216 28.0683H84.8246L85.6259 26.8598H82.6192C81.6241 26.8598 80.8157 27.6718 80.8157 28.6713C80.8157 29.6068 81.5201 30.376 82.4254 30.471L82.4183 30.4829H83.82C84.151 30.4829 84.4204 30.7535 84.4204 31.0859C84.4204 31.4183 84.151 31.689 83.82 31.689H81.617L80.8157 32.8974H83.8224C84.8175 32.8974 85.6259 32.0854 85.6259 31.0859C85.6259 30.1505 84.9192 29.3812 84.0162 29.2863Z" fill="#FF5722"/>
	<path d="M87.6278 26.8598C86.6326 26.8598 85.8242 27.6718 85.8242 28.6713C85.8242 29.6068 86.5286 30.376 87.4339 30.471L87.4268 30.4829H88.8285C89.1595 30.4829 89.4289 30.7535 89.4289 31.0859C89.4289 31.4183 89.1595 31.689 88.8285 31.689H86.6255L85.8242 32.8974H88.8309C89.8261 32.8974 90.6345 32.0854 90.6345 31.0859C90.6345 30.1505 89.9301 29.3812 89.0247 29.2863L89.0318 29.2744H87.6301C87.2992 29.2744 87.0297 29.0037 87.0297 28.6713C87.0297 28.3389 87.2992 28.0683 87.6301 28.0683H89.8331L90.6345 26.8598H87.6278V26.8598Z" fill="#FF5722"/>
	<path d="M46.1509 32.8972H44.9478V26.8596H47.7795C48.2854 26.8596 48.7203 27.033 49.0867 27.382C49.4602 27.7357 49.7509 28.2557 49.758 28.7709C49.7628 29.2386 49.6517 29.6185 49.3562 29.9793C49.0749 30.3284 48.7889 30.5919 48.3539 30.6845L49.8573 32.8972H48.4556L47.0421 30.8079C46.9853 30.7296 46.8955 30.6845 46.7986 30.6845H46.1509V32.8972ZM46.1509 29.5757H47.7535C48.1956 29.5757 48.5549 29.2148 48.5549 28.7709C48.5549 28.3269 48.1956 27.966 47.7535 27.966H46.1509V29.5757Z" fill="#023D5E"/>
	<path d="M73.9415 26.8598L71.4832 29.4881L74.003 32.8951H72.6013L70.6842 30.3404L70.1973 30.9245V32.8927H68.9941V26.8598H70.1973V29.2411L72.3649 26.8598H73.9415V26.8598Z" fill="#FF5722"/>
</svg>
