<svg xmlns="http://www.w3.org/2000/svg" width="83" height="58" viewBox="0 0 94 66" fill="none"><g fill="#fff"><path fill-rule="evenodd" d="M22.836 30.54c2.908 0 6.062.993 9.554 4.077.35.31.816-.075.51-.46-3.432-4.318-6.605-5.14-9.77-5.835-3.872-.85-5.863-3.02-7.25-5.405-.276-.474-.4-.39-.425.22-.03.746.02 1.733.19 2.703-.156.007-.313.005-.47.005-5.54 0-10.03-4.475-10.03-9.995s4.5-9.995 10.03-9.995S25.2 10.33 25.2 15.85a10.09 10.09 0 0 1-.064 1.162c-.733-.13-2.174-.146-3.185-.06-.38.033-.327.21-.04.26 3.315.597 5.593 2.645 6.114 6.36.012.086.124.11.17.037a15.01 15.01 0 0 0 2.148-7.761C30.343 7.5 23.55.73 15.172.73S0 7.5 0 15.85s6.793 15.12 15.172 15.12c2.223 0 4.428-.43 7.665-.43zm1.395-5.3c.745.665.972 1.456.578 2.014-.22.306-.574.474-1 .474a1.72 1.72 0 0 1-1.139-.436c-.677-.625-.876-1.64-.434-2.215.173-.225.454-.35.8-.35.41 0 .837.182 1.205.51zm2.736-1.276c.126.54-.14.764-.41.764-.293 0-.66-.22-1.093-.65-.427-.427-.584-.917-.372-1.164.14-.164.433-.235.802-.145.715.173.996.874 1.072 1.197zm21.67-3.817l-1.69-2.15c-.177-.226-.025-.567.252-.567h3.538c.17-.53.264-1.097.264-1.685 0-2.694-1.897-5.016-4.5-5.016S42 13.052 42 15.746s1.897 4.983 4.5 4.983c.79 0 1.51-.213 2.137-.58zm7.28 3.608a.34.34 0 0 1-.252.56h-3.988a.54.54 0 0 1-.42-.201l-.676-.83c-1.377.913-3.016 1.445-4.776 1.445-4.855 0-8.804-4.037-8.804-9s3.95-9 8.804-9 8.804 4.038 8.804 9c0 1.79-.515 3.456-1.4 4.86l2.707 3.168zM93.58 7.73h-3.16a.43.43 0 0 0-.42.438V24.29a.43.43 0 0 0 .42.438h3.16a.43.43 0 0 0 .42-.438V8.168a.43.43 0 0 0-.42-.438zm-6.023 0h-3.726c-.195 0-.367.125-.423.308l-2.948 9.527-3.24-9.538c-.06-.177-.23-.297-.42-.297h-2.6c-.19 0-.36.12-.42.297l-3.24 9.538-2.948-9.527c-.057-.183-.23-.308-.423-.308h-3.726c-.142 0-.276.067-.36.18s-.106.26-.06.392l5.472 16.13c.06.177.23.297.42.297h2.957c.19 0 .36-.12.42-.297l3.208-9.424 3.208 9.424c.06.177.23.297.42.297h2.957c.19 0 .36-.12.42-.297L87.977 8.3c.045-.132.023-.278-.06-.392s-.217-.18-.36-.18zM62 8.168V24.29a.43.43 0 0 1-.42.438h-3.16a.43.43 0 0 1-.42-.438V8.168a.43.43 0 0 1 .42-.438h3.16a.43.43 0 0 1 .42.438z"/><g clip-path="url(#A)"><g clip-path="url(#B)"><path d="M44.17 53.214h-2.492l-1.764 3h-.908l-.03-6.474h-2.36v11.7h2.36l.03-3.2h.902l2.342 3.2h2.614L41.8 57.17l2.36-3.957zm17.855 3.85a6.37 6.37 0 0 0-1.544-.698l-.52-.2-.14-.05c-.324-.117-.665-.24-.676-.558a.54.54 0 0 1 .063-.272c.044-.084.1-.156.2-.208a1.15 1.15 0 0 1 .578-.19 1.92 1.92 0 0 1 1.261.363l.064.04 1.26-1.4-.063-.05a3.09 3.09 0 0 0-.51-.357 3.47 3.47 0 0 0-1.046-.374 4 4 0 0 0-1.608 0 3.05 3.05 0 0 0-1.41.558c-.264.2-.484.447-.65.728a2.41 2.41 0 0 0-.311.913 2.3 2.3 0 0 0 .428 1.641 3.5 3.5 0 0 0 1.735 1.005l.104.033.237.078c.856.28 1.1.4 1.237.558a.5.5 0 0 1 .104.29c0 .396-.503.558-.844.658a1.84 1.84 0 0 1-.72-.013c-.237-.052-.46-.15-.656-.288a2.81 2.81 0 0 1-.798-.776l-1.417 1.4.04.056c.63.76 1.512 1.3 2.498 1.496a5.57 5.57 0 0 0 .682.084h.237a3.68 3.68 0 0 0 2.174-.653 2.57 2.57 0 0 0 .943-1.172 2.22 2.22 0 0 0 .118-.988 2.24 2.24 0 0 0-.326-.943 2.39 2.39 0 0 0-.717-.72zm7.62 0a6.32 6.32 0 0 0-1.538-.698l-.526-.2-.133-.05c-.33-.117-.665-.24-.682-.558a.58.58 0 0 1 .071-.27.61.61 0 0 1 .189-.21 1.15 1.15 0 0 1 .578-.19c.452-.03.9.1 1.26.363l.058.04 1.26-1.4-.058-.05a2.99 2.99 0 0 0-.515-.357 3.45 3.45 0 0 0-1.041-.374c-.532-.1-1.08-.1-1.613 0a3.1 3.1 0 0 0-1.41.558c-.266.197-.488.443-.655.724a2.4 2.4 0 0 0-.317.911 2.26 2.26 0 0 0 .428 1.64 3.5 3.5 0 0 0 1.735 1.005l.098.033.237.078c.862.28 1.104.4 1.243.558a.44.44 0 0 1 .098.29c0 .396-.497.558-.84.66a1.85 1.85 0 0 1-.723-.013 1.84 1.84 0 0 1-.66-.288 2.96 2.96 0 0 1-.798-.776l-1.417 1.4.046.056c.63.76 1.512 1.3 2.498 1.496a5.57 5.57 0 0 0 .682.084h.237a3.68 3.68 0 0 0 2.174-.653 2.57 2.57 0 0 0 .943-1.172 2.23 2.23 0 0 0 .118-.988 2.24 2.24 0 0 0-.326-.943 2.38 2.38 0 0 0-.706-.714zm-17.73-3.85v.804h-.104c-.646-.624-1.52-.977-2.434-.982a4.14 4.14 0 0 0-1.633.303c-.516.2-.98.524-1.363.92a4.31 4.31 0 0 0-1.156 3.036c-.03 1.136.383 2.24 1.156 3.097a3.87 3.87 0 0 0 1.34.92 3.98 3.98 0 0 0 1.615.298 3.99 3.99 0 0 0 2.486-.921h.093v.72h2.452v-8.192h-2.452zm.122 4.124c.025.66-.204 1.306-.642 1.814a2.15 2.15 0 0 1-.759.526 2.22 2.22 0 0 1-.918.166c-.305.005-.608-.057-.886-.18a2.02 2.02 0 0 1-.716-.534 2.67 2.67 0 0 1-.625-1.836c-.02-.645.207-1.274.636-1.77a2.07 2.07 0 0 1 .722-.525c.278-.12.58-.182.885-.178.313-.01.624.048.9.17a2.11 2.11 0 0 1 .749.529 2.64 2.64 0 0 1 .642 1.819zm26.547-4.124v.804h-.104c-.644-.623-1.517-.975-2.43-.982a4.14 4.14 0 0 0-1.635.304 4.02 4.02 0 0 0-1.366.918c-.77.833-1.184 1.92-1.156 3.036-.03 1.136.383 2.24 1.156 3.097a3.87 3.87 0 0 0 1.34.92 3.98 3.98 0 0 0 1.615.298 3.99 3.99 0 0 0 2.486-.921h.093v.72h2.452v-8.192h-2.452zm.12 4.124a2.6 2.6 0 0 1-.642 1.814 2.15 2.15 0 0 1-.759.526 2.22 2.22 0 0 1-.918.166 2.09 2.09 0 0 1-.885-.18 2.02 2.02 0 0 1-.716-.534 2.67 2.67 0 0 1-.624-1.836c-.02-.645.207-1.274.636-1.77a2.06 2.06 0 0 1 .722-.525 2.15 2.15 0 0 1 .885-.178 2.18 2.18 0 0 1 .911.169c.287.12.542.3.748.53.44.5.67 1.157.642 1.82zM20.513 48.36c-5.1 0-9.14 3.963-9.14 8.82 0 4.912 4.107 8.82 9.14 8.82s9.14-3.964 9.14-8.82-4.107-8.82-9.14-8.82zm0 12.058c-1.85 0-3.412-1.507-3.412-3.294s1.562-3.294 3.412-3.294 3.413 1.507 3.413 3.294a3.4 3.4 0 0 1-3.413 3.294zm-9.197-9.546v12.84h-3.24l-4.164-12.84h7.403z"/></g></g></g><defs><clipPath id="A"><path fill="#fff" transform="translate(1 48)" d="M0 0h87v18H0z"/></clipPath><clipPath id="B"><path fill="#fff" transform="translate(3.912 48.36)" d="M0 0h77.172v17.64H0z"/></clipPath></defs></svg>