<svg width="164" height="50" viewBox="0 0 164 50" fill="none" xmlns="http://www.w3.org/2000/svg">
<g clip-path="url(#clip0_1270_2789)">
<mask id="mask0_1270_2789" style="mask-type:luminance" maskUnits="userSpaceOnUse" x="57" y="38" width="60" height="12">
<path d="M117 38H57V50H117V38Z" fill="white"/>
</mask>
<g mask="url(#mask0_1270_2789)">
<mask id="mask1_1270_2789" style="mask-type:luminance" maskUnits="userSpaceOnUse" x="59" y="38" width="54" height="12">
<path d="M112.23 38.24H59.0083V50H112.23V38.24Z" fill="white"/>
</mask>
<g mask="url(#mask1_1270_2789)">
<path d="M86.7716 41.4762H85.0529L83.8366 43.4704H83.2105L83.1905 39.1547H81.5635V46.949H83.1905L83.2105 44.8098H83.8326L85.4477 46.949H87.2502L85.1445 44.114L86.7716 41.4762Z" fill="white"/>
<path d="M99.0859 44.0434C98.7559 43.8438 98.3969 43.6874 98.0209 43.5783L97.6619 43.4519L97.5669 43.4184C97.3429 43.3402 97.1079 43.2584 97.0999 43.0463C97.0979 42.9835 97.1129 42.9212 97.1439 42.8653C97.1739 42.8093 97.2199 42.7615 97.2759 42.7264C97.3929 42.6506 97.5309 42.6068 97.6739 42.5999C97.9859 42.5798 98.2949 42.6657 98.5439 42.8417L98.5879 42.8677L99.4569 41.9339L99.4129 41.9004C99.3049 41.8104 99.1869 41.7306 99.0619 41.6623C98.8379 41.5426 98.5939 41.4584 98.3399 41.413C97.9749 41.3405 97.5969 41.3405 97.2319 41.413C96.8779 41.4567 96.5429 41.5848 96.2589 41.7851C96.0769 41.9179 95.9249 42.0829 95.8109 42.2706C95.6979 42.4582 95.6249 42.6649 95.5969 42.8789C95.5469 43.265 95.6519 43.6547 95.8919 43.9727C96.2099 44.3019 96.6269 44.535 97.0879 44.6424L97.1599 44.6647L97.3229 44.7168C97.9139 44.9028 98.0809 44.9772 98.1769 45.0888C98.2209 45.145 98.2459 45.2125 98.2489 45.2823C98.2489 45.5465 97.9019 45.6544 97.6659 45.7213C97.5019 45.7502 97.3329 45.7472 97.1699 45.7127C97.0059 45.6781 96.8519 45.6127 96.7169 45.5204C96.4989 45.384 96.3119 45.2082 96.1669 45.0033C96.0749 45.0926 95.1739 45.9222 95.1899 45.9371L95.2179 45.9743C95.6519 46.4816 96.2609 46.8337 96.9409 46.9714C97.0959 46.9994 97.2529 47.0181 97.4109 47.0272H97.5749C98.1119 47.0377 98.6379 46.8849 99.0739 46.5919C99.3689 46.3973 99.5949 46.1254 99.7239 45.8106C99.8029 45.5993 99.8299 45.3745 99.8049 45.1521C99.7809 44.9297 99.7039 44.7151 99.5809 44.5233C99.4539 44.3322 99.2859 44.1685 99.0859 44.0434Z" fill="white"/>
<path d="M104.342 44.0434C104.013 43.8438 103.656 43.6873 103.281 43.5783L102.918 43.4518L102.827 43.4183C102.599 43.3402 102.368 43.2583 102.356 43.0463C102.357 42.9836 102.374 42.922 102.405 42.8664C102.436 42.8109 102.481 42.7629 102.536 42.7263C102.653 42.6505 102.792 42.6068 102.934 42.5998C103.246 42.5804 103.554 42.6663 103.804 42.8416L103.844 42.8677L104.713 41.9339L104.673 41.9004C104.564 41.8095 104.445 41.7297 104.318 41.6623C104.095 41.5427 103.853 41.4585 103.6 41.413C103.234 41.3404 102.855 41.3404 102.488 41.413C102.135 41.4579 101.8 41.5859 101.515 41.785C101.332 41.9166 101.178 42.0806 101.063 42.2677C100.948 42.4548 100.874 42.6612 100.845 42.8751C100.793 43.2614 100.898 43.6518 101.14 43.9689C101.458 44.2981 101.875 44.5312 102.336 44.6386L102.404 44.661L102.567 44.713C103.162 44.8991 103.329 44.9735 103.425 45.0851C103.471 45.1403 103.495 45.2087 103.493 45.2785C103.493 45.5427 103.15 45.6506 102.914 45.7176C102.749 45.7465 102.579 45.7435 102.416 45.709C102.252 45.6745 102.097 45.609 101.961 45.5167C101.744 45.3783 101.558 45.2028 101.411 44.9995C101.323 45.0888 100.422 45.9185 100.434 45.9334L100.466 45.9706C100.9 46.4778 101.509 46.8299 102.189 46.9676C102.344 46.9959 102.501 47.0145 102.659 47.0234H102.823C103.36 47.0339 103.886 46.8812 104.322 46.5881C104.617 46.3936 104.843 46.1216 104.972 45.8068C105.05 45.5955 105.078 45.3708 105.053 45.1483C105.029 44.9259 104.952 44.7113 104.829 44.5196C104.704 44.3307 104.538 44.1684 104.342 44.0434Z" fill="white"/>
<path d="M92.115 41.4762V42.012H92.044C91.598 41.596 90.995 41.3607 90.365 41.3572C89.978 41.3501 89.595 41.4189 89.239 41.5593C88.8829 41.6997 88.5625 41.9085 88.2988 42.172C87.767 42.7276 87.4819 43.4512 87.5013 44.1959C87.4807 44.9531 87.7652 45.6899 88.2988 46.2607C88.5563 46.5244 88.8715 46.7333 89.223 46.8733C89.575 47.0132 89.954 47.081 90.337 47.0718C90.968 47.0608 91.575 46.8435 92.051 46.4579H92.115V46.9379H93.806V41.4762H92.115ZM92.199 44.2257C92.216 44.6658 92.058 45.0963 91.756 45.4348C91.612 45.5861 91.433 45.7058 91.233 45.7855C91.033 45.8652 90.817 45.903 90.6 45.8961C90.389 45.8994 90.18 45.8583 89.989 45.7759C89.798 45.6934 89.629 45.5718 89.495 45.4199C89.197 45.0744 89.044 44.6392 89.065 44.1959C89.051 43.7659 89.207 43.3462 89.503 43.0165C89.64 42.867 89.81 42.7474 90.001 42.6664C90.193 42.5853 90.401 42.5448 90.612 42.5477C90.828 42.5415 91.042 42.5799 91.24 42.6603C91.438 42.7408 91.614 42.8611 91.756 43.0128C92.058 43.3528 92.216 43.7844 92.199 44.2257Z" fill="white"/>
<path d="M110.507 41.4762V42.0119H110.435C109.991 41.5968 109.389 41.3616 108.761 41.3571C108.374 41.3504 107.99 41.4195 107.633 41.5598C107.277 41.7002 106.956 41.9087 106.691 42.1719C106.159 42.7275 105.874 43.4512 105.893 44.1959C105.873 44.953 106.157 45.6899 106.691 46.2607C106.948 46.5244 107.264 46.7333 107.615 46.8732C107.967 47.0132 108.347 47.0809 108.729 47.0718C109.36 47.0607 109.966 46.8435 110.443 46.4579H110.507V46.9378H112.198V41.4762H110.507ZM110.591 44.2256C110.61 44.666 110.452 45.0972 110.148 45.4348C110.004 45.586 109.825 45.7057 109.625 45.7854C109.425 45.8652 109.209 45.9029 108.992 45.8961C108.781 45.8994 108.572 45.8583 108.381 45.7758C108.19 45.6934 108.021 45.5717 107.887 45.4199C107.589 45.0744 107.436 44.6392 107.457 44.1959C107.443 43.7659 107.599 43.3462 107.895 43.0165C108.032 42.8669 108.202 42.7474 108.393 42.6663C108.585 42.5853 108.794 42.5448 109.004 42.5477C109.22 42.5414 109.434 42.5799 109.632 42.6603C109.83 42.7407 110.006 42.8611 110.148 43.0127C110.452 43.3519 110.61 43.7841 110.591 44.2256Z" fill="white"/>
<path d="M70.4569 38.24C66.9466 38.24 64.1543 40.8823 64.1543 44.12C64.1543 47.3949 66.9865 50 70.4569 50C73.9273 50 76.7594 47.3577 76.7594 44.12C76.7594 40.8823 73.9273 38.24 70.4569 38.24ZM70.4569 46.2785C69.1804 46.2785 68.1034 45.2737 68.1034 44.0828C68.1034 42.8919 69.1804 41.8871 70.4569 41.8871C71.7334 41.8871 72.8104 42.8919 72.8104 44.0828C72.7705 45.3109 71.7334 46.2785 70.4569 46.2785Z" fill="white"/>
<path d="M64.1142 39.9147V48.4742H61.8804L59.0083 39.9147H64.1142Z" fill="white"/>
</g>
</g>
<mask id="mask2_1270_2789" style="mask-type:luminance" maskUnits="userSpaceOnUse" x="0" y="0" width="119" height="33">
<path d="M119 0H0V33H119V0Z" fill="white"/>
</mask>
<g mask="url(#mask2_1270_2789)">
<path fill-rule="evenodd" clip-rule="evenodd" d="M23.1339 5.9721L26.2716 3.62819C23.4037 1.27464 19.8238 -0.00653493 16.1335 2.5067e-05V0.0015848C14.0155 -0.000365199 11.9181 0.421345 9.96131 1.24258C8.10591 2.02123 6.41171 3.1445 4.96541 4.5535C3.45231 6.0213 2.23541 7.7754 1.38431 9.7183C0.469706 11.8062 -0.00189428 14.0655 5.7183e-06 16.3499C5.7183e-06 16.3527 5.7183e-06 16.3555 5.7183e-06 16.3583C-0.00159428 18.5055 0.415206 20.6318 1.22631 22.6153C1.96401 24.4192 3.01461 26.0726 4.32681 27.4979C5.80861 29.1148 7.59921 30.4107 9.59081 31.3066C11.6228 32.2205 13.8192 32.6978 16.0416 32.7087C16.054 32.7088 16.0663 32.7088 16.0787 32.7089C16.0986 32.709 16.1186 32.709 16.1385 32.709C18.2573 32.7112 20.3555 32.2892 22.3128 31.4671C24.0228 30.7488 25.5958 29.7376 26.9636 28.4795L26.9661 28.4823C28.6402 26.9506 29.978 25.0795 30.8927 22.9903C31.8075 20.901 32.2787 18.6402 32.2759 16.3545C32.2779 15.3719 32.1931 14.391 32.0224 13.4237L28.5489 16.018V16.3545C28.5498 18.1118 28.1863 19.8497 27.4821 21.4555C26.8616 22.8701 25.9889 24.1545 24.9095 25.2448L24.908 25.2433C24.7653 25.3884 24.6193 25.5298 24.4701 25.6674L24.4607 25.676C23.4095 26.6434 22.2006 27.4213 20.8863 27.9741C19.3814 28.6071 17.768 28.9326 16.1386 28.9318C15.9448 28.9318 15.7519 28.9318 15.5593 28.9182L3.72831 16.3545M3.72831 16.3244C3.72861 16.1797 3.73141 16.0357 3.73651 15.8923C3.79391 14.2932 4.15281 12.7184 4.79531 11.2535C5.41541 9.83959 6.28761 8.5558 7.36621 7.4657L7.36781 7.4673C8.51771 6.2969 9.88451 5.36839 11.3897 4.7351C12.8949 4.10189 14.5087 3.7764 16.1385 3.7775C16.3463 3.7775 16.5528 3.78519 16.7581 3.79539L16.7582 3.7924C19.0375 3.9065 21.2454 4.659 23.1339 5.9721M15.5175 28.9162L15.5176 28.9151L15.5593 28.9182L15.5175 28.9162ZM15.5175 28.9162L3.72831 16.3545C3.72731 18.0058 4.04831 19.6411 4.67291 21.1663C5.29751 22.6915 6.21331 24.0766 7.36781 25.2419L7.36581 25.2439C8.44191 26.3374 9.70921 27.2216 11.1049 27.8502C12.5001 28.4785 13.9962 28.8393 15.5175 28.9162ZM30.8421 9.6067C30.3239 8.4506 29.6749 7.3593 28.9083 6.3549L16.1419 15.8934L9.99831 11.9904V16.6859L16.1419 20.5889L30.8421 9.6067Z" fill="white"/>
<mask id="mask3_1270_2789" style="mask-type:luminance" maskUnits="userSpaceOnUse" x="40" y="5" width="170" height="23">
<path d="M209.38 5.6897H40.9656V27.3104H209.38V5.6897Z" fill="white"/>
</mask>
<g mask="url(#mask3_1270_2789)">
<path d="M93.13 9.35281L97.747 5.94421H82.2935V26.427H97.747V23.0184H86.7031V17.7717H96.124V14.3631H86.7031V9.35281H93.13Z" fill="white"/>
<path d="M71.8952 13.9236H66.53V9.35149H75.0927L79.7074 5.9325H62.123V26.4153H71.3277C76.4883 26.4153 79.45 24.0717 79.45 19.9845C79.45 16.0744 76.7674 13.9236 71.8952 13.9236ZM71.1292 23.0056H66.53V17.3301H71.1292C73.9204 17.3301 75.2291 18.2812 75.2291 20.1679C75.2291 22.0545 73.8366 23.0056 71.1292 23.0056Z" fill="white"/>
<path d="M109.107 5.94128H100.695V26.424H105.104V20.6216H109.107C114.474 20.6216 117.794 17.7919 117.794 13.2705C117.794 8.74918 114.474 5.94128 109.107 5.94128ZM109.014 17.2104H105.104V9.35248H109.014C111.837 9.35248 113.395 10.7487 113.395 13.283C113.395 15.8173 111.837 17.2104 109.014 17.2104Z" fill="white"/>
<path d="M55.5064 21.5902C54.3674 22.2082 53.0913 22.5282 51.7962 22.5206C47.9198 22.5206 45.1077 19.7477 45.1077 15.9294C45.1077 12.111 47.9198 9.33206 51.7962 9.33206C53.1941 9.30826 54.563 9.73296 55.7029 10.5443L58.7871 8.26836L58.5785 8.11986C56.7794 6.53496 54.3755 5.69556 51.6239 5.69556C48.6394 5.69556 45.9332 6.70166 44.001 8.53196C43.024 9.47446 42.2514 10.6086 41.7311 11.8636C41.2109 13.1186 40.9542 14.4675 40.9773 15.8263C40.9566 17.1989 41.2121 18.5616 41.7285 19.8331C42.2449 21.1046 43.0116 22.2587 43.9829 23.2267C45.9241 25.1298 48.6243 26.1783 51.5876 26.1783C54.6839 26.1783 57.3902 25.0964 59.2226 23.1267L56.4619 21.066L55.5064 21.5902Z" fill="white"/>
</g>
</g>
<path d="M145.183 15.6943C145.183 17.8779 144.793 19.7103 144.015 21.1914C143.244 22.6641 142.11 23.7432 140.612 24.4287L145.081 29.418H140.041L136.639 25.2539H136.347C133.503 25.2539 131.319 24.4287 129.796 22.7783C128.272 21.1279 127.511 18.7581 127.511 15.6689C127.511 12.5798 128.272 10.2227 129.796 8.59766C131.328 6.96416 133.52 6.14746 136.372 6.14746C139.224 6.14746 141.404 6.96836 142.91 8.61036C144.425 10.2523 145.183 12.6136 145.183 15.6943ZM131.637 15.6943C131.637 17.7679 132.03 19.3294 132.817 20.3789C133.604 21.4284 134.781 21.9531 136.347 21.9531C139.487 21.9531 141.057 19.8669 141.057 15.6943C141.057 11.5133 139.495 9.42286 136.372 9.42286C134.806 9.42286 133.626 9.95176 132.83 11.0098C132.035 12.0592 131.637 13.6208 131.637 15.6943Z" fill="white"/>
<path d="M152.965 14.6787H154.234C155.479 14.6787 156.397 14.4714 156.989 14.0566C157.582 13.6419 157.878 12.9902 157.878 12.1016C157.878 11.2214 157.573 10.5951 156.964 10.2227C156.363 9.85025 155.428 9.66405 154.158 9.66405H152.965V14.6787ZM152.965 17.8779V25H149.029V6.43945H154.438C156.96 6.43945 158.826 6.90065 160.036 7.82315C161.246 8.73725 161.852 10.1296 161.852 12C161.852 13.0918 161.551 14.0651 160.95 14.9199C160.349 15.7663 159.499 16.4307 158.398 16.9131C161.191 21.0856 163.011 23.7812 163.857 25H159.49L155.06 17.8779H152.965Z" fill="white"/>
</g>
<defs>
<clipPath id="clip0_1270_2789">
<rect width="164" height="50" fill="white"/>
</clipPath>
</defs>
</svg>
