<svg xmlns="http://www.w3.org/2000/svg" width="116" height="26" fill="none"><g clip-path="url(#A)" fill="#fff"><path d="M60.5 7.155h-3.714l-2.628 4.4h-1.353l-.043-9.542h-3.516v17.232h3.516l.043-4.73h1.344l3.5 4.73h3.895l-4.55-6.268L60.5 7.155zm26.6 5.675a9.54 9.54 0 0 0-2.301-1.028l-.982-.354c-.483-.173-1-.354-1.008-.822a.79.79 0 0 1 .094-.4c.066-.124.164-.23.285-.307a1.74 1.74 0 0 1 .862-.28 2.89 2.89 0 0 1 1.878.535l.095.058 1.88-2.065-.095-.074a4.68 4.68 0 0 0-.758-.526 5.21 5.21 0 0 0-1.559-.551c-.8-.16-1.606-.16-2.395 0a4.58 4.58 0 0 0-2.103.823 3.68 3.68 0 0 0-.968 1.073c-.245.415-.402.872-.463 1.345a3.36 3.36 0 0 0 .638 2.418 5.22 5.22 0 0 0 2.585 1.481l.155.05.353.115c1.275.4 1.637.576 1.844.823a.73.73 0 0 1 .155.428c0 .584-.75.823-1.258.97a2.75 2.75 0 0 1-1.073-.02c-.353-.077-.685-.22-.977-.425a4.28 4.28 0 0 1-1.19-1.143l-2.1 2.065.06.082a6.59 6.59 0 0 0 3.722 2.204 8.29 8.29 0 0 0 1.017.123h.353a5.53 5.53 0 0 0 3.24-.962 3.79 3.79 0 0 0 1.405-1.727 3.21 3.21 0 0 0 .175-1.456c-.055-.492-.22-.966-.486-1.4a3.54 3.54 0 0 0-1.068-1.061zm11.356 0a9.47 9.47 0 0 0-2.292-1.028l-.784-.28-.198-.074c-.5-.173-1-.354-1.017-.823a.84.84 0 0 1 .106-.398.79.79 0 0 1 .282-.3 1.73 1.73 0 0 1 .862-.28 2.9 2.9 0 0 1 1.878.535l.086.058 1.878-2.065-.086-.074a4.46 4.46 0 0 0-.767-.526c-.482-.264-1.006-.45-1.55-.55a6.06 6.06 0 0 0-2.404 0c-.763.1-1.486.382-2.103.823a3.68 3.68 0 0 0-.976 1.067 3.51 3.51 0 0 0-.472 1.343 3.31 3.31 0 0 0 .638 2.418 5.22 5.22 0 0 0 2.585 1.481l.146.05.353.115c1.284.4 1.646.576 1.853.822a.65.65 0 0 1 .147.428c0 .584-.74.823-1.25.97a2.79 2.79 0 0 1-1.078-.019c-.354-.076-.688-.22-.98-.425-.47-.306-.872-.694-1.2-1.143l-2.1 2.065.07.082a6.6 6.6 0 0 0 3.723 2.204 8.1 8.1 0 0 0 1.017.123h.353a5.53 5.53 0 0 0 3.24-.962 3.79 3.79 0 0 0 1.405-1.727 3.24 3.24 0 0 0 .175-1.456 3.38 3.38 0 0 0-.486-1.4 3.56 3.56 0 0 0-1.051-1.053zm-26.42-5.675V8.34h-.155c-.962-.92-2.266-1.44-3.628-1.448a6.19 6.19 0 0 0-2.433.447c-.77.3-1.46.772-2.03 1.355-1.15 1.228-1.765 2.828-1.723 4.475-.044 1.674.57 3.303 1.723 4.565a5.76 5.76 0 0 0 1.997 1.354 5.99 5.99 0 0 0 2.406.44c1.364-.024 2.675-.505 3.705-1.357h.138v1.06H75.7V7.155h-3.654zm.18 6.08a3.84 3.84 0 0 1-.957 2.673 3.21 3.21 0 0 1-1.13.775 3.36 3.36 0 0 1-1.368.245 3.15 3.15 0 0 1-1.32-.266 2.99 2.99 0 0 1-1.067-.787c-.645-.764-.976-1.726-.93-2.706a3.77 3.77 0 0 1 .948-2.607 3.08 3.08 0 0 1 1.077-.774 3.21 3.21 0 0 1 1.319-.262c.466-.014.93.07 1.358.25a3.15 3.15 0 0 1 1.115.78c.653.752.993 1.706.957 2.682zm39.56-6.08V8.34h-.155c-.96-.918-2.26-1.438-3.62-1.448a6.23 6.23 0 0 0-2.436.448c-.77.3-1.464.77-2.036 1.353-1.15 1.228-1.765 2.828-1.723 4.475-.045 1.674.57 3.303 1.723 4.565a5.75 5.75 0 0 0 1.997 1.354c.76.31 1.58.46 2.406.44 1.364-.024 2.675-.505 3.705-1.357h.138v1.06h3.654V7.155h-3.654zm.18 6.08c.04.974-.3 1.927-.956 2.673a3.21 3.21 0 0 1-1.131.775 3.34 3.34 0 0 1-1.368.245 3.16 3.16 0 0 1-1.32-.266 3.01 3.01 0 0 1-1.067-.787c-.645-.764-.976-1.726-.93-2.706a3.77 3.77 0 0 1 .948-2.607 3.08 3.08 0 0 1 1.077-.774 3.19 3.19 0 0 1 1.32-.262 3.28 3.28 0 0 1 1.357.249 3.15 3.15 0 0 1 1.116.779c.656.75.997 1.705.956 2.682zM25.238 0C17.653 0 11.62 5.842 11.62 13c0 7.24 6.12 13 13.618 13s13.618-5.842 13.618-13-6.12-13-13.618-13zm0 17.772c-2.758 0-5.085-2.222-5.085-4.855s2.327-4.854 5.085-4.854 5.085 2.222 5.085 4.854c-.086 2.715-2.327 4.855-5.085 4.855zM11.533 3.703v18.924H6.706L.5 3.703h11.033z"/></g><defs><clipPath id="A"><path fill="#fff" transform="translate(.5)" d="M0 0h115v26H0z"/></clipPath></defs></svg>