<svg width="164" height="55" viewBox="0 0 164 55" fill="none" xmlns="http://www.w3.org/2000/svg">
<g clip-path="url(#clip0_1270_2751)">
<mask id="mask0_1270_2751" style="mask-type:luminance" maskUnits="userSpaceOnUse" x="48" y="39" width="68" height="16">
<path d="M116 39.9656H48V54.0346H116V39.9656Z" fill="white"/>
</mask>
<g mask="url(#mask0_1270_2751)">
<mask id="mask1_1270_2751" style="mask-type:luminance" maskUnits="userSpaceOnUse" x="50" y="40" width="61" height="15">
<path d="M110.594 40.2468H50.2761V54.0344H110.594V40.2468Z" fill="white"/>
</mask>
<g mask="url(#mask1_1270_2751)">
<path d="M81.7412 44.041H79.7933L78.4148 46.3789H77.7053L77.6826 41.3191H75.8386V50.4573H77.6826L77.7053 47.9492H78.4103L80.2407 50.4573H82.2836L79.8972 47.1336L81.7412 44.041Z" fill="black"/>
<path d="M95.697 47.0507C95.323 46.8168 94.917 46.6333 94.491 46.5055L94.084 46.3572L93.975 46.318C93.722 46.2263 93.456 46.1304 93.447 45.8818C93.444 45.8081 93.461 45.7351 93.496 45.6695C93.531 45.6039 93.582 45.5479 93.645 45.5066C93.779 45.4178 93.936 45.3665 94.097 45.3583C94.45 45.3348 94.801 45.4355 95.083 45.6419L95.132 45.6724L96.118 44.5775L96.068 44.5383C95.945 44.4327 95.812 44.3392 95.67 44.2591C95.416 44.1188 95.14 44.0201 94.852 43.9669C94.438 43.8818 94.01 43.8818 93.596 43.9669C93.195 44.018 92.816 44.1683 92.493 44.4031C92.287 44.5588 92.114 44.7522 91.986 44.9722C91.857 45.1923 91.774 45.4346 91.743 45.6855C91.686 46.1381 91.805 46.595 92.077 46.9679C92.438 47.3538 92.91 47.6271 93.433 47.753L93.514 47.7792L93.7 47.8403C94.369 48.0584 94.558 48.1456 94.667 48.2764C94.717 48.3423 94.746 48.4214 94.748 48.5033C94.748 48.813 94.355 48.9395 94.088 49.018C93.902 49.0518 93.71 49.0483 93.525 49.0078C93.34 48.9673 93.166 48.8906 93.013 48.7824C92.765 48.6225 92.553 48.4164 92.389 48.1761C92.285 48.2808 91.264 49.2535 91.282 49.271L91.313 49.3146C91.806 49.9093 92.495 50.3221 93.266 50.4836C93.442 50.5164 93.62 50.5383 93.799 50.549H93.984C94.593 50.5613 95.19 50.3822 95.684 50.0387C96.018 49.8105 96.274 49.4917 96.421 49.1227C96.509 48.8749 96.541 48.6114 96.513 48.3506C96.485 48.0899 96.398 47.8382 96.258 47.6134C96.115 47.3893 95.924 47.1974 95.697 47.0507Z" fill="black"/>
<path d="M101.654 47.0507C101.281 46.8168 100.877 46.6333 100.452 46.5055L100.041 46.3572L99.937 46.3179C99.679 46.2263 99.417 46.1303 99.404 45.8817C99.405 45.8082 99.424 45.736 99.459 45.6709C99.495 45.6057 99.545 45.5495 99.607 45.5066C99.741 45.4178 99.897 45.3664 100.059 45.3583C100.412 45.3356 100.762 45.4362 101.044 45.6418L101.089 45.6723L102.075 44.5775L102.03 44.5382C101.906 44.4317 101.771 44.3381 101.627 44.2591C101.375 44.1189 101.1 44.0202 100.814 43.9668C100.398 43.8817 99.969 43.8817 99.553 43.9668C99.153 44.0195 98.773 44.1696 98.45 44.403C98.242 44.5573 98.069 44.7496 97.938 44.9689C97.808 45.1883 97.724 45.4303 97.691 45.6811C97.632 46.1339 97.751 46.5916 98.025 46.9635C98.386 47.3494 98.858 47.6227 99.381 47.7486L99.458 47.7748L99.643 47.8359C100.317 48.0539 100.506 48.1412 100.615 48.272C100.667 48.3368 100.694 48.417 100.692 48.4989C100.692 48.8086 100.303 48.9351 100.036 49.0136C99.849 49.0475 99.657 49.044 99.471 49.0036C99.285 48.963 99.11 48.8863 98.956 48.778C98.711 48.6158 98.499 48.4101 98.332 48.1717C98.233 48.2764 97.212 49.2491 97.225 49.2666L97.261 49.3102C97.754 49.9049 98.443 50.3177 99.214 50.4792C99.39 50.5123 99.568 50.5342 99.747 50.5446H99.933C100.541 50.5569 101.138 50.3778 101.632 50.0343C101.966 49.8061 102.222 49.4873 102.369 49.1183C102.457 48.8705 102.489 48.607 102.461 48.3462C102.433 48.0855 102.346 47.8338 102.206 47.609C102.065 47.3876 101.877 47.1973 101.654 47.0507Z" fill="black"/>
<path d="M87.7974 44.0411V44.6692H87.7162C87.2114 44.1814 86.5275 43.9056 85.8135 43.9015C85.3756 43.8931 84.9407 43.9739 84.5375 44.1385C84.1341 44.3031 83.7711 44.5478 83.4722 44.8568C82.8695 45.5082 82.5463 46.3566 82.5683 47.2296C82.545 48.1173 82.8674 48.9812 83.4722 49.6505C83.764 49.9596 84.1212 50.2046 84.5198 50.3687C84.9182 50.5327 85.3486 50.6121 85.7817 50.6014C86.4969 50.5884 87.1847 50.3337 87.7251 49.8817H87.7974V50.4444H89.714V44.0411H87.7974ZM87.8924 47.2645C87.9117 47.7806 87.733 48.2853 87.3906 48.6821C87.2266 48.8595 87.0241 48.9998 86.7976 49.0933C86.5713 49.1867 86.3262 49.231 86.0801 49.223C85.8414 49.2269 85.6046 49.1787 85.3879 49.082C85.1711 48.9853 84.9797 48.8427 84.8282 48.6647C84.4899 48.2596 84.3164 47.7494 84.34 47.2296C84.3246 46.7255 84.5014 46.2335 84.8371 45.8469C84.9917 45.6716 85.1844 45.5314 85.4017 45.4364C85.6189 45.3414 85.8552 45.2939 86.0935 45.2973C86.3382 45.2899 86.5813 45.335 86.8056 45.4293C87.0298 45.5236 87.2298 45.6647 87.3906 45.8425C87.733 46.2411 87.9115 46.7472 87.8924 47.2645Z" fill="black"/>
<path d="M108.641 44.0411V44.6693H108.56C108.056 44.1825 107.374 43.9068 106.662 43.9015C106.223 43.8937 105.788 43.9746 105.384 44.1392C104.98 44.3037 104.616 44.5482 104.316 44.8568C103.713 45.5082 103.39 46.3566 103.412 47.2297C103.389 48.1174 103.711 48.9813 104.316 49.6506C104.608 49.9597 104.965 50.2046 105.364 50.3687C105.762 50.5328 106.193 50.6122 106.626 50.6015C107.341 50.5885 108.028 50.3338 108.569 49.8817H108.641V50.4444H110.558V44.0411H108.641ZM108.736 47.2646C108.758 47.7809 108.579 48.2864 108.235 48.6822C108.071 48.8595 107.868 48.9999 107.642 49.0933C107.415 49.1868 107.17 49.2311 106.924 49.2231C106.685 49.227 106.449 49.1788 106.232 49.0821C106.015 48.9854 105.824 48.8428 105.672 48.6648C105.334 48.2597 105.16 47.7494 105.184 47.2297C105.169 46.7256 105.345 46.2336 105.681 45.847C105.836 45.6717 106.028 45.5315 106.246 45.4365C106.463 45.3415 106.699 45.2939 106.938 45.2974C107.182 45.29 107.425 45.3351 107.65 45.4294C107.874 45.5237 108.074 45.6648 108.235 45.8426C108.579 46.2402 108.757 46.747 108.736 47.2646Z" fill="black"/>
<path d="M63.2511 40.2468C59.2727 40.2468 56.1082 43.3447 56.1082 47.1406C56.1082 50.9802 59.318 54.0344 63.2511 54.0344C67.1842 54.0344 70.394 50.9366 70.394 47.1406C70.394 43.3447 67.1842 40.2468 63.2511 40.2468ZM63.2511 49.6713C61.8044 49.6713 60.5838 48.4932 60.5838 47.097C60.5838 45.7008 61.8044 44.5228 63.2511 44.5228C64.6978 44.5228 65.9184 45.7008 65.9184 47.097C65.8732 48.5368 64.6978 49.6713 63.2511 49.6713Z" fill="url(#paint0_linear_1270_2751)"/>
<path d="M56.0628 42.2103V52.2456H53.5311L50.2761 42.2103H56.0628Z" fill="url(#paint1_linear_1270_2751)"/>
</g>
</g>
<mask id="mask2_1270_2751" style="mask-type:luminance" maskUnits="userSpaceOnUse" x="0" y="0" width="119" height="33">
<path d="M119 0H0V33H119V0Z" fill="white"/>
</mask>
<g mask="url(#mask2_1270_2751)">
<path d="M28.9083 6.35486C29.6749 7.35926 30.3239 8.45056 30.8421 9.60666L16.1419 20.5889L9.99829 16.6859V11.9904L16.1419 15.8934L28.9083 6.35486Z" fill="#21A038"/>
<path d="M3.7283 16.3545C3.7283 16.1438 3.7333 15.9345 3.7435 15.7264L0.0203045 15.5415C0.0076045 15.8112 4.58908e-06 16.0835 4.58908e-06 16.3583C-0.00159541 18.5055 0.415205 20.6318 1.2263 22.6153C2.0375 24.5989 3.2271 26.4006 4.7269 27.9171L7.3678 25.2419C6.2133 24.0766 5.2975 22.6915 4.6729 21.1663C4.04831 19.6411 3.7273 18.0058 3.7283 16.3545Z" fill="url(#paint2_linear_1270_2751)"/>
<path d="M16.1385 3.77747C16.3463 3.77747 16.5528 3.78518 16.7581 3.79545L16.9444 0.0208595C16.6775 0.00801945 16.4088 0.00159905 16.1385 0.00159905C14.0188 -0.00102095 11.9196 0.420709 9.96131 1.24258C8.00291 2.06445 6.22401 3.27027 4.72681 4.7908L7.36781 7.4673C8.51771 6.2969 9.88451 5.3683 11.3897 4.73512C12.8949 4.10189 14.5087 3.77643 16.1385 3.77747Z" fill="url(#paint3_linear_1270_2751)"/>
<path d="M16.1385 28.9318C15.9307 28.9318 15.7241 28.9318 15.5176 28.9151L15.3313 32.6884C15.5991 32.7021 15.8682 32.709 16.1385 32.709C18.2573 32.7112 20.3555 32.2892 22.3128 31.4671C24.2701 30.645 26.0478 29.439 27.5439 27.9185L24.908 25.2433C23.7579 26.4131 22.3912 27.3411 20.8863 27.9741C19.3814 28.6071 17.7679 28.9326 16.1385 28.9318Z" fill="url(#paint4_linear_1270_2751)"/>
<path d="M23.1339 5.9721L26.2716 3.62819C23.4037 1.27464 19.8238 -0.00653493 16.1335 2.5067e-05V3.77717C18.6324 3.77403 21.0733 4.53938 23.1339 5.9721Z" fill="url(#paint5_linear_1270_2751)"/>
<path d="M32.2759 16.3545C32.2779 15.3719 32.1931 14.391 32.0224 13.4237L28.5489 16.018C28.5489 16.1298 28.5489 16.2415 28.5489 16.3545C28.5498 18.1118 28.1863 19.8497 27.4821 21.4555C26.7778 23.0613 25.7484 24.4992 24.4607 25.676L26.9661 28.4823C28.6402 26.9506 29.978 25.0795 30.8927 22.9903C31.8075 20.901 32.2787 18.6402 32.2759 16.3545Z" fill="#21A038"/>
<path d="M16.1386 28.9318C14.4045 28.9324 12.6896 28.5639 11.1049 27.8502C9.52028 27.1365 8.10118 26.0934 6.93958 24.7886L4.17188 27.3264C5.68298 29.0233 7.52917 30.3793 9.59077 31.3066C11.6523 32.2338 13.8831 32.7116 16.1386 32.7089V28.9318Z" fill="url(#paint6_linear_1270_2751)"/>
<path d="M7.81651 7.0329L5.31231 4.22668C3.63781 5.7581 2.29951 7.6291 1.38431 9.7183C0.46911 11.8076 -0.00249011 14.0685 9.88771e-06 16.3544H3.72831C3.72751 14.5972 4.09101 12.8593 4.79531 11.2535C5.49951 9.6478 6.52881 8.2098 7.81651 7.0329Z" fill="url(#paint7_linear_1270_2751)"/>
<mask id="mask3_1270_2751" style="mask-type:luminance" maskUnits="userSpaceOnUse" x="40" y="5" width="170" height="23">
<path d="M209.38 5.6897H40.9656V27.3104H209.38V5.6897Z" fill="white"/>
</mask>
<g mask="url(#mask3_1270_2751)">
<path d="M93.13 9.35281L97.747 5.94421H82.2935V26.427H97.747V23.0184H86.7031V17.7717H96.124V14.3631H86.7031V9.35281H93.13Z" fill="#21A038"/>
<path d="M71.8952 13.9236H66.53V9.35149H75.0927L79.7074 5.9325H62.123V26.4153H71.3277C76.4883 26.4153 79.45 24.0717 79.45 19.9845C79.45 16.0744 76.7674 13.9236 71.8952 13.9236ZM71.1292 23.0056H66.53V17.3301H71.1292C73.9204 17.3301 75.2291 18.2812 75.2291 20.1679C75.2291 22.0545 73.8366 23.0056 71.1292 23.0056Z" fill="#21A038"/>
<path d="M109.107 5.94128H100.695V26.424H105.104V20.6216H109.107C114.474 20.6216 117.794 17.7919 117.794 13.2705C117.794 8.74918 114.474 5.94128 109.107 5.94128ZM109.014 17.2104H105.104V9.35248H109.014C111.837 9.35248 113.395 10.7487 113.395 13.283C113.395 15.8173 111.837 17.2104 109.014 17.2104Z" fill="#21A038"/>
<path d="M55.5064 21.5902C54.3674 22.2082 53.0913 22.5282 51.7962 22.5206C47.9198 22.5206 45.1077 19.7477 45.1077 15.9294C45.1077 12.111 47.9198 9.33206 51.7962 9.33206C53.1941 9.30826 54.563 9.73296 55.7029 10.5443L58.7871 8.26836L58.5785 8.11986C56.7794 6.53496 54.3755 5.69556 51.6239 5.69556C48.6394 5.69556 45.9332 6.70166 44.001 8.53196C43.024 9.47446 42.2514 10.6086 41.7311 11.8636C41.2109 13.1186 40.9542 14.4675 40.9773 15.8263C40.9566 17.1989 41.2121 18.5616 41.7285 19.8331C42.2449 21.1046 43.0116 22.2587 43.9829 23.2267C45.9241 25.1298 48.6243 26.1783 51.5876 26.1783C54.6839 26.1783 57.3902 25.0964 59.2226 23.1267L56.4619 21.066L55.5064 21.5902Z" fill="#21A038"/>
</g>
</g>
<path d="M145.183 15.6943C145.183 17.8779 144.793 19.7103 144.015 21.1914C143.244 22.6641 142.11 23.7432 140.612 24.4287L145.081 29.418H140.041L136.639 25.2539H136.347C133.503 25.2539 131.319 24.4287 129.796 22.7783C128.272 21.1279 127.511 18.7581 127.511 15.6689C127.511 12.5798 128.272 10.2227 129.796 8.59766C131.328 6.96416 133.52 6.14746 136.372 6.14746C139.224 6.14746 141.404 6.96836 142.91 8.61036C144.425 10.2523 145.183 12.6136 145.183 15.6943ZM131.637 15.6943C131.637 17.7679 132.03 19.3294 132.817 20.3789C133.604 21.4284 134.781 21.9531 136.347 21.9531C139.487 21.9531 141.057 19.8669 141.057 15.6943C141.057 11.5133 139.495 9.42286 136.372 9.42286C134.806 9.42286 133.626 9.95176 132.83 11.0098C132.035 12.0592 131.637 13.6208 131.637 15.6943Z" fill="#2E6DBD"/>
<path d="M152.965 14.6787H154.234C155.479 14.6787 156.397 14.4714 156.989 14.0566C157.582 13.6419 157.878 12.9902 157.878 12.1016C157.878 11.2214 157.573 10.5951 156.964 10.2227C156.363 9.85025 155.428 9.66405 154.158 9.66405H152.965V14.6787ZM152.965 17.8779V25H149.029V6.43945H154.438C156.96 6.43945 158.826 6.90065 160.036 7.82315C161.246 8.73725 161.852 10.1296 161.852 12C161.852 13.0918 161.551 14.0651 160.95 14.9199C160.349 15.7663 159.499 16.4307 158.398 16.9131C161.191 21.0856 163.011 23.7812 163.857 25H159.49L155.06 17.8779H152.965Z" fill="#2E6DBD"/>
</g>
<defs>
<linearGradient id="paint0_linear_1270_2751" x1="63.2511" y1="40.2468" x2="63.2511" y2="54.0344" gradientUnits="userSpaceOnUse">
<stop stop-color="#0160D1"/>
<stop offset="1" stop-color="#00479C"/>
</linearGradient>
<linearGradient id="paint1_linear_1270_2751" x1="53.1695" y1="42.2103" x2="53.1695" y2="52.2456" gradientUnits="userSpaceOnUse">
<stop stop-color="#0160D1"/>
<stop offset="1" stop-color="#00479C"/>
</linearGradient>
<linearGradient id="paint2_linear_1270_2751" x1="5.4809" y1="27.4458" x2="1.3096" y2="15.5477" gradientUnits="userSpaceOnUse">
<stop offset="0.14" stop-color="#F1E813"/>
<stop offset="0.3" stop-color="#E6E418"/>
<stop offset="0.58" stop-color="#C9DA26"/>
<stop offset="0.89" stop-color="#A2CC39"/>
</linearGradient>
<linearGradient id="paint3_linear_1270_2751" x1="5.79131" y1="5.4586" x2="16.3181" y2="1.50029" gradientUnits="userSpaceOnUse">
<stop offset="0.06" stop-color="#0FA7DF"/>
<stop offset="0.54" stop-color="#0098F8"/>
<stop offset="0.92" stop-color="#0290EA"/>
</linearGradient>
<linearGradient id="paint4_linear_1270_2751" x1="15.0855" y1="30.4293" x2="26.9647" y2="27.7813" gradientUnits="userSpaceOnUse">
<stop offset="0.12" stop-color="#A2CC39"/>
<stop offset="0.28" stop-color="#86C239"/>
<stop offset="0.87" stop-color="#219F38"/>
</linearGradient>
<linearGradient id="paint5_linear_1270_2751" x1="15.358" y1="1.26507" x2="25.5244" y2="4.36072" gradientUnits="userSpaceOnUse">
<stop offset="0.06" stop-color="#0290EA"/>
<stop offset="0.79" stop-color="#0C89CA"/>
</linearGradient>
<linearGradient id="paint6_linear_1270_2751" x1="5.10707" y1="26.8666" x2="16.1833" y2="30.9512" gradientUnits="userSpaceOnUse">
<stop offset="0.13" stop-color="#F1E813"/>
<stop offset="0.3" stop-color="#EAE616"/>
<stop offset="0.53" stop-color="#D8DF1F"/>
<stop offset="0.8" stop-color="#BAD52D"/>
<stop offset="0.98" stop-color="#A2CC39"/>
</linearGradient>
<linearGradient id="paint7_linear_1270_2751" x1="1.38891" y1="16.8116" x2="5.92481" y2="5.1689" gradientUnits="userSpaceOnUse">
<stop offset="0.07" stop-color="#A2CC39"/>
<stop offset="0.26" stop-color="#81C45E"/>
<stop offset="0.92" stop-color="#0FA7DF"/>
</linearGradient>
<clipPath id="clip0_1270_2751">
<rect width="164" height="55" fill="white"/>
</clipPath>
</defs>
</svg>
