<svg xmlns="http://www.w3.org/2000/svg" width="94" height="57" viewBox="0 0 106 64" fill="none"><g fill-rule="evenodd"><path d="M23.908 1.628L9.954 9.56 3.462 5.867A16.35 16.35 0 0 1 4.55 4.554l5.404 3.067L22.1.73a15.08 15.08 0 0 1 1.818.898zm2.94 2.1a16.59 16.59 0 0 0-1.369-1.158l-15.526 8.83L2.542 7.18c-.28.486-.534.988-.758 1.502l8.17 4.646L26.85 3.726zm22.095.604c-.912.85-1.22 3.376-1.22 4.983 0 3.16 1.34 4.506 3.516 4.506 2.2 0 3.832-1.25 3.832-4.05 0-2.38-1.207-3.313-3.11-3.313a5.72 5.72 0 0 0-2.702.702c.037-.723.28-1.42.702-2.007.477-.463 2.436-.807 4.646-1.18l-.246-1.348c-2.485.456-4.618.962-5.42 1.706zm-5.2-.997c-3.37 0-5.25 2.078-5.25 5.278 0 3.116 1.81 5.187 5.306 5.187 1.027.03 2.05-.14 3.01-.505l-.365-1.207c-.773.247-1.58.368-2.393.358-2.28 0-3.96-1.2-3.96-3.973 0-2.716 1.62-3.832 3.678-3.818.878-.007 1.75.143 2.576.442l.45-1.172a6.82 6.82 0 0 0-3.053-.59zm9.805 6.492c0-1.242-.54-2.204-1.98-2.204a5.08 5.08 0 0 0-2.351.674l-.028.884c0 2.344.71 3.432 2.162 3.432 1.72 0 2.197-1.432 2.197-2.786zm6.36-4.176c-1.993 0-3.587 1.165-3.587 4.267 0 3.025 1.523 3.945 3.888 3.945a7.93 7.93 0 0 0 2.674-.428l-.26-1.165a7.29 7.29 0 0 1-2.183.344c-1.4 0-2.583-.414-2.597-2.485h5.215V9.6c0-2.555-.934-3.952-3.15-3.952zm1.58 3.432c0-1.4-.505-2.295-1.67-2.295-1.046 0-1.825.758-1.93 2.295h3.6zm4.745-3.187h-1.58v10.732h1.58v-2.892c.413.038.828.052 1.242.042 2.134 0 4.05-1.004 4.05-4.204 0-2.61-1.277-3.91-3.15-3.91-.787.004-1.547.3-2.14.807v-.576zm3.755 3.748c0-1.425-.505-2.702-2.035-2.702-.617.03-1.213.235-1.72.6v4.97a6.98 6.98 0 0 0 1.214.14c1.818 0 2.54-1.25 2.54-2.997zm4.07-5.313c-.912.85-1.22 3.376-1.22 4.983 0 3.16 1.327 4.506 3.516 4.506s3.832-1.25 3.832-4.05c0-2.38-1.207-3.313-3.11-3.313a5.72 5.72 0 0 0-2.702.702c.037-.723.28-1.42.702-2.007.477-.463 2.436-.807 4.646-1.18l-.246-1.348c-2.485.456-4.618.962-5.42 1.706zm4.604 5.496c0-1.242-.54-2.204-1.98-2.204a5.08 5.08 0 0 0-2.351.674l-.028.884c0 2.344.71 3.432 2.162 3.432 1.72 0 2.197-1.432 2.197-2.786zm5.65-.646c-1.376.014-3.15.42-3.15 2.4 0 1.446.976 2.24 2.442 2.24.945-.02 1.854-.37 2.57-1 .147.702.94.948 1.755.948.1-.002.202-.012.302-.028l.12-1.15c-.192.045-.393.004-.552-.112s-.26-.295-.276-.49V7.902c0-1.593-1.046-2.253-2.948-2.253a7.18 7.18 0 0 0-2.786.533l.323 1.137c.712-.252 1.463-.38 2.218-.38 1.165 0 1.713.288 1.713 1.37v.842l-1.727.028zm1.727 2.744v-1.81l-1.685.077c-1.088.028-1.713.484-1.713 1.29 0 .786.582 1.06 1.355 1.06a4.01 4.01 0 0 0 2.043-.618zm5.13-6.03h-1.523v7.86h1.523V10.36h3.734v3.397h1.523v-7.86h-1.523v3.27H91.17v-3.27zm7.13 0h1.523v7.86H98.3v-7.86zm1.58 3.776l2.253 2.667c.608.89 1.598 1.446 2.675 1.502l.26-1.144a4.22 4.22 0 0 1-1.972-1.418l-1.572-1.72 3.228-3.664h-1.712L99.88 9.67zm-68.265 5.166a15.56 15.56 0 0 1-31.114 0 16.47 16.47 0 0 1 .035-1.025l9.42 5.355L29.902 7.825a15.12 15.12 0 0 1 1.713 7.012zM1.188 10.282l8.767 4.983L28.028 5a14.82 14.82 0 0 1 1.018 1.355l-19.09 10.85-9.188-5.222a13.54 13.54 0 0 1 .421-1.691z" fill="#289d37"/><path d="M76.773 17.434l.653-.716c.41.536 1.044.854 1.72.863a2.23 2.23 0 0 0 1.734-.863l.64.716c-.507.824-1.405 1.327-2.372 1.327s-1.866-.502-2.372-1.327zm-38.23 5.34c0-3.2 1.972-5.215 5.236-5.215 3.432 0 5.025 2.246 5.025 5.243 0 3.15-1.853 5.25-5.264 5.25-3.32 0-4.997-2.127-4.997-5.278zm8.675.014c0-2.26-1.13-3.973-3.53-3.973-2.506 0-3.573 1.713-3.573 3.944 0 2.17 1.025 4.03 3.474 4.03 2.604 0 3.63-1.74 3.63-4zm4.625-2.61h-1.46v7.86h1.46v-3.34h3.608v3.34h1.53v-7.86h-1.53v3.327h-3.608v-3.327zm6.303 6.836a2.73 2.73 0 0 0 1.53-1.151c.435-.807.716-2.976.8-5.685h5.09v7.86H64.12v-6.682h-2.302c-.218 2.737-.49 4.408-1.018 5.37-.5.796-1.283 1.36-2.197 1.558l-.456-1.27zm12.037-3.495c-1.383.014-3.165.414-3.165 2.4 0 1.46.976 2.246 2.45 2.246.947-.02 1.858-.37 2.576-1 .147.702.948.948 1.762.948a2.08 2.08 0 0 0 .302-.028l.12-1.15c-.192.045-.393.004-.552-.112s-.26-.295-.276-.492v-4.106c0-1.593-1.046-2.26-2.955-2.26a7.16 7.16 0 0 0-2.794.533l.316 1.137a6.91 6.91 0 0 1 2.232-.372c1.165 0 1.72.288 1.72 1.37v.85l-1.734.028zm1.734 2.75v-1.818l-1.692.07c-1.095.035-1.72.49-1.72 1.298a1.16 1.16 0 0 0 1.355 1.151c.736-.047 1.446-.29 2.057-.702zm5.2-6.092h-1.44v7.86h1.44l3.397-4.766.68-1.095-.042 1.08v4.78h1.53v-7.86h-1.53l-3.4 4.794-.688 1.067.042-1.053v-4.808zm9.1 0h-1.53v7.86h1.53v-3.34h3.74v3.34h1.53v-7.86h-1.53v3.327h-3.74v-3.327z" fill="#f59725"/></g><g clip-path="url(#C)"><g clip-path="url(#D)"><g fill="#000"><path d="M52.67 51.214h-2.492l-1.764 3h-.908l-.03-6.474h-2.36v11.7h2.36l.03-3.2h.902l2.342 3.2h2.614L50.3 55.17l2.36-3.957zm17.855 3.85a6.37 6.37 0 0 0-1.544-.698l-.52-.2-.14-.05c-.324-.117-.665-.24-.677-.558a.54.54 0 0 1 .063-.272c.044-.084.1-.156.2-.208a1.15 1.15 0 0 1 .578-.19 1.92 1.92 0 0 1 1.261.363l.064.04 1.26-1.4-.064-.05a3.09 3.09 0 0 0-.51-.357 3.47 3.47 0 0 0-1.046-.374 4 4 0 0 0-1.608 0 3.05 3.05 0 0 0-1.41.558c-.264.2-.484.447-.65.728a2.41 2.41 0 0 0-.311.913 2.3 2.3 0 0 0 .428 1.641 3.5 3.5 0 0 0 1.735 1.005l.104.033.237.078c.856.28 1.1.4 1.237.558a.5.5 0 0 1 .104.29c0 .396-.503.558-.844.658a1.84 1.84 0 0 1-.72-.013c-.237-.052-.46-.15-.656-.288a2.81 2.81 0 0 1-.798-.776l-1.417 1.4.04.056c.63.76 1.512 1.3 2.498 1.496a5.57 5.57 0 0 0 .682.084h.237a3.68 3.68 0 0 0 2.174-.653c.428-.292.756-.7.943-1.172a2.22 2.22 0 0 0 .118-.988 2.24 2.24 0 0 0-.326-.943 2.39 2.39 0 0 0-.717-.72zm7.62 0a6.32 6.32 0 0 0-1.538-.698l-.526-.2-.133-.05c-.33-.117-.665-.24-.682-.558a.58.58 0 0 1 .071-.27.61.61 0 0 1 .189-.21 1.15 1.15 0 0 1 .578-.19c.452-.03.9.1 1.26.363l.058.04 1.26-1.4-.058-.05a2.99 2.99 0 0 0-.515-.357 3.45 3.45 0 0 0-1.041-.374c-.532-.1-1.08-.1-1.613 0a3.1 3.1 0 0 0-1.41.558c-.266.197-.488.443-.655.724a2.4 2.4 0 0 0-.317.911 2.26 2.26 0 0 0 .428 1.64 3.5 3.5 0 0 0 1.735 1.005l.098.033.237.078c.862.28 1.104.4 1.243.558a.44.44 0 0 1 .098.29c0 .396-.497.558-.84.66a1.85 1.85 0 0 1-.723-.013 1.84 1.84 0 0 1-.66-.288 2.96 2.96 0 0 1-.798-.776l-1.417 1.4.046.056c.63.76 1.512 1.3 2.498 1.496a5.57 5.57 0 0 0 .682.084h.237a3.68 3.68 0 0 0 2.174-.653 2.57 2.57 0 0 0 .943-1.172 2.23 2.23 0 0 0 .118-.988 2.24 2.24 0 0 0-.326-.943 2.38 2.38 0 0 0-.706-.714zm-17.73-3.85v.804h-.104c-.646-.624-1.52-.977-2.434-.982a4.14 4.14 0 0 0-1.633.303c-.516.2-.98.524-1.363.92-.77.833-1.185 1.92-1.157 3.036-.03 1.136.383 2.24 1.157 3.097a3.87 3.87 0 0 0 1.34.92c.5.2 1.06.312 1.614.298a3.99 3.99 0 0 0 2.486-.921h.093v.72h2.452v-8.192h-2.452zm.12 4.124c.025.66-.204 1.306-.642 1.814a2.15 2.15 0 0 1-.759.526 2.22 2.22 0 0 1-.918.166c-.306.005-.608-.057-.886-.18a2.02 2.02 0 0 1-.716-.534 2.67 2.67 0 0 1-.625-1.836c-.02-.645.207-1.274.636-1.77a2.06 2.06 0 0 1 .722-.525 2.15 2.15 0 0 1 .885-.178c.313-.01.624.048.9.17a2.11 2.11 0 0 1 .749.529 2.64 2.64 0 0 1 .642 1.819zm26.55-4.124v.804h-.104c-.644-.623-1.517-.975-2.43-.982a4.14 4.14 0 0 0-1.635.304 4.02 4.02 0 0 0-1.366.918c-.77.833-1.184 1.92-1.156 3.036-.03 1.136.383 2.24 1.156 3.097a3.87 3.87 0 0 0 1.34.92 3.98 3.98 0 0 0 1.615.298 3.99 3.99 0 0 0 2.486-.921h.093v.72h2.452v-8.192h-2.452zm.12 4.124a2.6 2.6 0 0 1-.642 1.814 2.15 2.15 0 0 1-.759.526 2.22 2.22 0 0 1-.918.166 2.09 2.09 0 0 1-.885-.18 2.02 2.02 0 0 1-.716-.534 2.67 2.67 0 0 1-.624-1.836c-.02-.645.207-1.274.636-1.77a2.06 2.06 0 0 1 .722-.525 2.15 2.15 0 0 1 .885-.178 2.18 2.18 0 0 1 .911.169c.287.12.542.3.748.53.44.5.67 1.157.642 1.82z"/></g><path d="M29.013 46.36c-5.1 0-9.14 3.963-9.14 8.82 0 4.912 4.107 8.82 9.14 8.82s9.14-3.964 9.14-8.82-4.107-8.82-9.14-8.82zm0 12.058c-1.85 0-3.413-1.507-3.413-3.294s1.562-3.294 3.413-3.294 3.412 1.507 3.412 3.294c-.058 1.842-1.562 3.294-3.412 3.294z" fill="url(#A)"/><path d="M19.816 48.872v12.84h-3.24l-4.164-12.84h7.403z" fill="url(#B)"/></g></g><defs><linearGradient id="A" x1="29.013" y1="46.36" x2="29.013" y2="64" gradientUnits="userSpaceOnUse"><stop stop-color="#0160d1"/><stop offset="1" stop-color="#00479c"/></linearGradient><linearGradient id="B" x1="16.114" y1="48.872" x2="16.114" y2="61.711" gradientUnits="userSpaceOnUse"><stop stop-color="#0160d1"/><stop offset="1" stop-color="#00479c"/></linearGradient><clipPath id="C"><path fill="#fff" transform="translate(9.5 46)" d="M0 0h87v18H0z"/></clipPath><clipPath id="D"><path fill="#fff" transform="translate(12.412 46.36)" d="M0 0h77.172v17.64H0z"/></clipPath></defs></svg>