<svg width="83" height="61" viewBox="0 0 83 68" fill="none" xmlns="http://www.w3.org/2000/svg">
<g clip-path="url(#clip0_1270_2837)">
<path d="M0 9.79504L5.4723 19.5357V25.4772L0.00640011 35.1987L0 9.79504Z" fill="#5B57A2"/>
<path d="M21.0115 15.9912L26.1392 12.8614L36.6334 12.8517L21.0115 22.3819V15.9912Z" fill="#D90751"/>
<path d="M20.9825 9.7376L21.0115 22.6339L15.5264 19.2776V0L20.9825 9.7376Z" fill="#FAB718"/>
<path d="M36.6334 12.8516L26.1388 12.8614L20.9825 9.7376L15.5264 0L36.6334 12.8516Z" fill="#ED6F26"/>
<path d="M21.0115 35.2526V28.9957L15.5264 25.7032L15.5294 45L21.0115 35.2526Z" fill="#63B22F"/>
<path d="M26.1264 32.1514L5.4719 19.5357L0 9.79504L36.6112 32.1387L26.1264 32.1514Z" fill="#1487C9"/>
<path d="M15.5298 45L21.0111 35.2527L26.1261 32.1514L36.6109 32.1387L15.5298 45Z" fill="#017F36"/>
<path d="M0.00634766 35.1986L15.5711 25.7036L10.3383 22.5063L5.47225 25.4771L0.00634766 35.1986Z" fill="#984995"/>
<path d="M79.3519 16.7691V27.7708H75.407V20.0533H71.6085V27.7708H67.6636V16.7683L79.3519 16.7691Z" fill="black"/>
<path fill-rule="evenodd" clip-rule="evenodd" d="M59.5618 28.1642C63.0933 28.1642 65.7157 26.0079 65.7157 22.739C65.7157 19.5752 63.7809 17.5209 60.5473 17.5209C59.055 17.5209 57.8236 18.044 56.8961 18.9467C57.1175 17.081 58.7018 15.719 60.446 15.719C60.8486 15.719 63.8792 15.7127 63.8792 15.7127L65.593 12.4468C65.593 12.4468 61.7881 12.533 60.0194 12.533C55.978 12.6032 53.2483 16.2613 53.2483 20.7043C53.2483 25.8804 55.9106 28.1642 59.5618 28.1642ZM59.5833 20.4137C60.8945 20.4137 61.8036 21.2717 61.8036 22.7387C61.8036 24.059 60.9958 25.1469 59.5833 25.1499C58.2322 25.1499 57.3231 24.1419 57.3231 22.7612C57.3231 21.2938 58.2322 20.4137 59.5833 20.4137Z" fill="black"/>
<path d="M50.0372 24.0876C50.0372 24.0876 49.1056 24.6223 47.7142 24.7236C46.1145 24.7708 44.6892 23.7647 44.6892 21.9771C44.6892 20.2333 45.9469 19.2339 47.6739 19.2339C48.7328 19.2339 50.1336 19.9648 50.1336 19.9648C50.1336 19.9648 51.1587 18.0917 51.6896 17.1549C50.7173 16.4211 49.4223 16.0187 47.916 16.0187C44.1146 16.0187 41.1702 18.4869 41.1702 21.9549C41.1702 25.4672 43.9376 27.8781 47.916 27.8053C49.028 27.7641 50.5622 27.3752 51.4972 26.7771L50.0372 24.0876Z" fill="black"/>
<mask id="mask0_1270_2837" style="mask-type:luminance" maskUnits="userSpaceOnUse" x="15" y="53" width="68" height="15">
<path d="M83 53H15V67.069H83V53Z" fill="white"/>
</mask>
<g mask="url(#mask0_1270_2837)">
<mask id="mask1_1270_2837" style="mask-type:luminance" maskUnits="userSpaceOnUse" x="17" y="53" width="61" height="15">
<path d="M77.5941 53.2814H17.2761V67.069H77.5941V53.2814Z" fill="white"/>
</mask>
<g mask="url(#mask1_1270_2837)">
<path d="M48.7412 57.0754H46.7933L45.4148 59.4134H44.7053L44.6826 54.3535H42.8386V63.4917H44.6826L44.7053 60.9837H45.4103L47.2407 63.4917H49.2836L46.8972 60.168L48.7412 57.0754Z" fill="black"/>
<path d="M62.6974 60.0853C62.3228 59.8513 61.9167 59.6678 61.4906 59.54L61.0838 59.3917L60.9754 59.3525C60.7223 59.2609 60.4557 59.1649 60.4466 58.9163C60.4443 58.8426 60.4611 58.7696 60.496 58.704C60.5307 58.6384 60.5822 58.5824 60.6455 58.5412C60.779 58.4523 60.9355 58.401 61.0974 58.3929C61.4505 58.3693 61.8006 58.47 62.0827 58.6764L62.1323 58.7069L63.1176 57.6121L63.0679 57.5728C62.9453 57.4673 62.8122 57.3738 62.6702 57.2937C62.416 57.1533 62.1398 57.0546 61.8523 57.0014C61.438 56.9164 61.0099 56.9164 60.5958 57.0014C60.1954 57.0526 59.8155 57.2028 59.4931 57.4376C59.2867 57.5933 59.1144 57.7867 58.9856 58.0068C58.857 58.2268 58.7745 58.4691 58.7427 58.72C58.6863 59.1727 58.8053 59.6295 59.0772 60.0024C59.4382 60.3883 59.9103 60.6616 60.433 60.7875L60.5144 60.8137L60.6997 60.8748C61.3686 61.0929 61.5584 61.1801 61.6668 61.311C61.7174 61.3768 61.7457 61.456 61.7482 61.5378C61.7482 61.8475 61.355 61.974 61.0883 62.0525C60.9019 62.0863 60.7103 62.0828 60.5253 62.0423C60.3403 62.0018 60.1659 61.9251 60.0128 61.817C59.765 61.6571 59.5529 61.4509 59.389 61.2106C59.2851 61.3153 58.2636 62.288 58.2817 62.3055L58.3135 62.3491C58.8055 62.9438 59.4951 63.3566 60.2659 63.5181C60.4418 63.551 60.6201 63.5728 60.7992 63.5835H60.9845C61.5933 63.5958 62.1897 63.4167 62.6838 63.0732C63.0181 62.845 63.2743 62.5262 63.4206 62.1572C63.5094 61.9094 63.5407 61.6459 63.5126 61.3851C63.4845 61.1244 63.3977 60.8727 63.2577 60.648C63.1149 60.4238 62.9237 60.2319 62.6974 60.0853Z" fill="black"/>
<path d="M68.6543 60.0852C68.2813 59.8513 67.877 59.6678 67.4522 59.54L67.0409 59.3917L66.937 59.3524C66.6794 59.2608 66.4173 59.1649 66.4037 58.9162C66.4048 58.8427 66.4239 58.7705 66.4593 58.7054C66.4946 58.6403 66.5452 58.584 66.6071 58.5411C66.7407 58.4523 66.8971 58.401 67.059 58.3928C67.4121 58.3701 67.7618 58.4707 68.0443 58.6763L68.0894 58.7069L69.0747 57.612L69.0296 57.5728C68.906 57.4662 68.7713 57.3726 68.6273 57.2936C68.3747 57.1535 68.0999 57.0547 67.8137 57.0014C67.398 56.9162 66.9686 56.9162 66.5529 57.0014C66.1529 57.054 65.7733 57.2041 65.45 57.4376C65.2425 57.5918 65.0685 57.7841 64.9382 58.0035C64.808 58.2228 64.7239 58.4648 64.6908 58.7156C64.6316 59.1684 64.7509 59.6262 65.0252 59.998C65.3862 60.3839 65.8584 60.6572 66.381 60.7831L66.4579 60.8093L66.6432 60.8704C67.3166 61.0885 67.5064 61.1757 67.6148 61.3066C67.667 61.3713 67.6942 61.4515 67.6917 61.5334C67.6917 61.8431 67.303 61.9696 67.0364 62.0481C66.8493 62.082 66.6568 62.0786 66.4711 62.0381C66.2853 61.9976 66.1101 61.9208 65.9563 61.8126C65.7105 61.6503 65.4989 61.4446 65.3325 61.2063C65.2332 61.3109 64.2116 62.2836 64.2252 62.3011L64.2613 62.3447C64.7536 62.9394 65.4432 63.3522 66.2139 63.5137C66.3899 63.5468 66.5681 63.5687 66.7472 63.5791H66.9325C67.5414 63.5914 68.1377 63.4123 68.6318 63.0688C68.9661 62.8407 69.2223 62.5218 69.3686 62.1528C69.4572 61.905 69.4888 61.6415 69.4607 61.3807C69.4325 61.12 69.3457 60.8683 69.2058 60.6436C69.0647 60.4221 68.8767 60.2319 68.6543 60.0852Z" fill="black"/>
<path d="M54.7974 57.0756V57.7037H54.7162C54.2114 57.2159 53.5275 56.9401 52.8135 56.936C52.3756 56.9277 51.9407 57.0084 51.5375 57.173C51.1341 57.3376 50.7711 57.5823 50.4722 57.8913C49.8695 58.5427 49.5463 59.3911 49.5683 60.2641C49.545 61.1519 49.8674 62.0157 50.4722 62.685C50.764 62.9942 51.1212 63.2391 51.5198 63.4032C51.9182 63.5673 52.3486 63.6466 52.7817 63.6359C53.4969 63.6229 54.1847 63.3683 54.7251 62.9162H54.7974V63.4789H56.7137V57.0756H54.7974ZM54.8924 60.299C54.9117 60.8151 54.733 61.3198 54.3906 61.7167C54.2266 61.894 54.0241 62.0343 53.7976 62.1278C53.5713 62.2213 53.3262 62.2655 53.0801 62.2575C52.8414 62.2614 52.6046 62.2132 52.3879 62.1166C52.1711 62.0199 51.9797 61.8772 51.8282 61.6992C51.4899 61.2941 51.3164 60.7839 51.34 60.2641C51.3246 59.76 51.5014 59.268 51.8371 58.8814C51.9917 58.7061 52.1844 58.5659 52.4017 58.4709C52.6189 58.3759 52.8552 58.3284 53.0935 58.3318C53.3382 58.3245 53.5813 58.3696 53.8056 58.4639C54.0298 58.5581 54.2298 58.6992 54.3906 58.8771C54.733 59.2757 54.9115 59.7817 54.8924 60.299Z" fill="black"/>
<path d="M75.6414 57.0757V57.7038H75.56C75.0564 57.2171 74.3745 56.9413 73.6618 56.9361C73.2235 56.9282 72.7881 57.0091 72.384 57.1737C71.9801 57.3382 71.6162 57.5827 71.3162 57.8913C70.7135 58.5427 70.3903 59.3912 70.4123 60.2642C70.389 61.1519 70.7114 62.0158 71.3162 62.6851C71.608 62.9942 71.9652 63.2392 72.3636 63.4032C72.7622 63.5673 73.1926 63.6467 73.6257 63.636C74.3409 63.623 75.0285 63.3683 75.5691 62.9163H75.6414V63.479H77.5577V57.0757H75.6414ZM75.7364 60.2991C75.7577 60.8154 75.5788 61.3209 75.2346 61.7167C75.0706 61.894 74.8681 62.0344 74.6416 62.1279C74.4151 62.2213 74.1702 62.2656 73.9239 62.2576C73.6851 62.2615 73.4486 62.2133 73.2318 62.1166C73.0151 62.0199 72.8237 61.8773 72.672 61.6993C72.3339 61.2942 72.1602 60.784 72.184 60.2642C72.1686 59.7601 72.3454 59.2681 72.681 58.8815C72.8357 58.7062 73.0284 58.566 73.2457 58.471C73.4629 58.376 73.6992 58.3285 73.9375 58.3319C74.1822 58.3245 74.4253 58.3696 74.6495 58.4639C74.8738 58.5582 75.0736 58.6993 75.2346 58.8771C75.5788 59.2747 75.7575 59.7815 75.7364 60.2991Z" fill="black"/>
<path d="M30.2511 53.2814C26.2727 53.2814 23.1082 56.3792 23.1082 60.1752C23.1082 64.0147 26.318 67.069 30.2511 67.069C34.1842 67.069 37.394 63.9711 37.394 60.1752C37.394 56.3792 34.1842 53.2814 30.2511 53.2814ZM30.2511 62.7058C28.8044 62.7058 27.5838 61.5277 27.5838 60.1315C27.5838 58.7353 28.8044 57.5573 30.2511 57.5573C31.6978 57.5573 32.9184 58.7353 32.9184 60.1315C32.8732 61.5714 31.6978 62.7058 30.2511 62.7058Z" fill="url(#paint0_linear_1270_2837)"/>
<path d="M23.0628 55.2449V65.2801H20.5311L17.2761 55.2449H23.0628Z" fill="url(#paint1_linear_1270_2837)"/>
</g>
</g>
</g>
<defs>
<linearGradient id="paint0_linear_1270_2837" x1="30.2511" y1="53.2814" x2="30.2511" y2="67.069" gradientUnits="userSpaceOnUse">
<stop stop-color="#0160D1"/>
<stop offset="1" stop-color="#00479C"/>
</linearGradient>
<linearGradient id="paint1_linear_1270_2837" x1="20.1695" y1="55.2449" x2="20.1695" y2="65.2801" gradientUnits="userSpaceOnUse">
<stop stop-color="#0160D1"/>
<stop offset="1" stop-color="#00479C"/>
</linearGradient>
<clipPath id="clip0_1270_2837">
<rect width="83" height="68" fill="white"/>
</clipPath>
</defs>
</svg>
