<svg width="26" height="26" viewBox="0 0 26 26" fill="none" xmlns="http://www.w3.org/2000/svg">
<path fill-rule="evenodd" clip-rule="evenodd" d="M21.1188 8.23718C21.353 8.05098 21.6937 8.08983 21.8799 8.32396L22.5542 9.17184C22.7404 9.40598 22.7016 9.74673 22.4675 9.93294L18.2281 13.3046C17.9939 13.4908 17.6532 13.4519 17.467 13.2178L14.2896 9.22938L12.5235 10.6339C12.1457 10.9344 11.5934 10.6281 11.6481 10.1487L12.1329 5.89731C12.1667 5.60009 12.4352 5.38657 12.7324 5.42055L16.9837 5.90517C17.4632 5.95988 17.6373 6.56692 17.2595 6.86737L15.7394 8.07633L17.902 10.7956L21.1188 8.23718ZM18.5056 17.9264L16.3857 16.338C15.6328 15.7723 14.5153 16.0448 13.9658 16.8212L13.3374 17.712C13.2021 17.8965 12.9236 17.9545 12.7296 17.8425C10.7848 16.5738 9.12198 14.8034 7.97101 12.7832C7.86127 12.5741 7.91824 12.3011 8.12276 12.1708L9.01275 11.5768C9.80942 11.0451 10.1374 9.96059 9.61814 9.16463L8.13548 6.99625C7.68617 6.32843 6.74569 6.23772 6.15533 6.78601C3.93896 8.90412 2.97207 12.5836 7.8338 17.7235C12.6955 22.8635 16.3884 22.0413 18.6048 19.9232C19.1958 19.3747 19.1462 18.413 18.5056 17.9264Z" fill="white"/>
</svg>
