<svg width="26" height="26" viewBox="0 0 26 26" fill="none" xmlns="http://www.w3.org/2000/svg">
<path fill-rule="evenodd" clip-rule="evenodd" d="M18.8372 12.0587C19.1785 12.4 18.9368 12.9834 18.4542 12.9834L14.1753 12.9833C13.8762 12.9834 13.6336 12.7409 13.6337 12.4417L13.6336 8.16282C13.6337 7.68027 14.2171 7.43854 14.5584 7.77985L15.9317 9.15323L19.5103 5.57465C19.7218 5.36314 20.0648 5.36314 20.2764 5.57466L21.0424 6.34069C21.2539 6.55221 21.2539 6.8952 21.0424 7.10672L17.4638 10.6853L18.8372 12.0587ZM19.5889 17.9645L17.4689 16.3761C16.7161 15.8104 15.5986 16.0828 15.0491 16.8593L14.4206 17.7501C14.2854 17.9346 14.0068 17.9925 13.8129 17.8805C11.8681 16.6119 10.2052 14.8415 9.05426 12.8213C8.94452 12.6121 9.0015 12.3392 9.20601 12.2089L10.096 11.6149C10.8927 11.0831 11.2207 9.99868 10.7014 9.20271L9.21873 7.03433C8.76942 6.36652 7.82894 6.2758 7.23858 6.8241C5.02221 8.94221 4.05532 12.6217 8.91705 17.7616C13.7787 22.9016 17.4717 22.0793 19.6881 19.9613C20.2791 19.4128 20.2294 18.4511 19.5889 17.9645Z" fill="#fff"/>
</svg>
