<svg width="26" height="26" viewBox="0 0 26 26" fill="none" xmlns="http://www.w3.org/2000/svg">
<path fill-rule="evenodd" clip-rule="evenodd" d="M23.2134 14.6654C23.2141 15.5769 21.9148 17.0279 21.6633 16.7973C21.4117 16.5667 17.5081 15.1206 17.2563 14.8902C17.0045 14.6598 17.0031 13.0168 17.0033 12.5367C17.0036 12.0566 13.072 11.8169 12.998 11.8123C12.9233 11.8162 8.9925 12.0524 8.99436 12.5276C8.99622 13.0029 8.99622 14.651 8.74512 14.8811C8.49402 15.1113 4.59274 16.5504 4.34071 16.7815C4.08868 17.0126 2.78732 15.5581 2.78662 14.6465C2.78592 13.8676 3.38633 10.4369 9.41721 9.4588C10.023 9.29613 11.1395 9.19514 12.9866 9.1963L13.0015 9.1963C14.8486 9.19839 15.9654 9.30149 16.5714 9.46532C22.6062 10.4544 23.2127 13.8865 23.2134 14.6654Z" fill="white"/>
</svg>
