<svg width="26" height="26" viewBox="0 0 26 26" fill="none" xmlns="http://www.w3.org/2000/svg">
<path fill-rule="evenodd" clip-rule="evenodd" d="M15.6145 6.34176C15.2732 6.00045 15.5149 5.41704 15.9974 5.41699L20.2764 5.41709C20.5755 5.41699 20.8181 5.65956 20.818 5.95869L20.8181 10.2376C20.818 10.7202 20.2346 10.9619 19.8933 10.6206L18.5199 9.2472L14.9413 12.8258C14.7298 13.0373 14.3868 13.0373 14.1753 12.8258L13.4093 12.0597C13.1978 11.8482 13.1978 11.5052 13.4093 11.2937L16.9879 7.71514L15.6145 6.34176ZM19.5889 17.5821L17.4689 15.9937C16.7161 15.428 15.5986 15.7005 15.0491 16.4769L14.4206 17.3677C14.2854 17.5523 14.0068 17.6102 13.8129 17.4982C11.8681 16.2295 10.2052 14.4591 9.05426 12.439C8.94452 12.2298 9.0015 11.9568 9.20601 11.8265L10.096 11.2325C10.8927 10.7008 11.2207 9.61631 10.7014 8.82034L9.21873 6.65196C8.76942 5.98415 7.82894 5.89343 7.23858 6.44173C5.02221 8.55984 4.05532 12.2393 8.91705 17.3792C13.7787 22.5192 17.4717 21.697 19.6881 19.5789C20.2791 19.0304 20.2294 18.0687 19.5889 17.5821Z" fill="white"/>
</svg>
