<svg width="24" height="24" viewBox="0 0 24 24" fill="none" xmlns="http://www.w3.org/2000/svg">
<path fill-rule="evenodd" clip-rule="evenodd" d="M12.0661 3.72523C14.1928 3.72523 16.2752 4.56021 17.7816 6.09833C19.288 7.59251 20.1298 9.61404 20.1298 11.7674C20.1298 16.206 16.4967 19.8535 12.0218 19.8535C10.6927 19.8535 9.3635 19.5459 8.16725 18.8867L3.86961 19.9854L5.02155 15.8105C4.35697 14.58 3.95822 13.2176 3.95822 11.8114C3.91391 7.37277 7.54697 3.72523 12.0661 3.72523ZM8.65461 17.5683C9.67364 18.1836 10.8699 18.4912 12.0661 18.4912C13.3067 18.4912 14.5473 18.1396 15.5663 17.4804C18.7563 15.5468 19.6867 11.4598 17.7373 8.29565C15.7878 5.13151 11.6674 4.20864 8.47739 6.14228C5.28739 8.07592 4.35697 12.2069 6.30642 15.3271L6.48364 15.5907L5.81905 18.0957L8.38878 17.4365L8.65461 17.5683ZM13.5225 13.2984C13.7904 12.954 13.9817 12.7626 14.0965 12.7626C14.173 12.7626 14.5174 12.9157 15.1297 13.2218C15.7419 13.528 16.0481 13.7193 16.0863 13.7958C16.0863 13.8117 16.0929 13.8275 16.1006 13.8461C16.1115 13.8724 16.1246 13.9041 16.1246 13.9489C16.1246 14.1785 16.0481 14.4463 15.9333 14.7525C15.8185 15.0203 15.5506 15.2499 15.1679 15.4413C14.7853 15.6326 14.4026 15.7091 14.0965 15.7091C13.6756 15.7091 13.0251 15.4795 12.0684 15.0586C11.3796 14.7525 10.7674 14.3315 10.2699 13.7958C9.77247 13.2601 9.23674 12.6096 8.70102 11.806C8.20357 11.0407 7.93571 10.3519 7.93571 9.73965L7.93571 9.66312C7.97397 9.0126 8.20357 8.43861 8.73929 7.97942C8.89235 7.82636 9.08368 7.74983 9.31328 7.74983L9.5046 7.74983L9.69593 7.74983C9.849 7.74983 9.92553 7.78809 9.96379 7.82636C10.0021 7.86463 10.0786 7.97942 10.1169 8.13249C10.1328 8.19614 10.1685 8.28626 10.2159 8.4056C10.2824 8.57324 10.3718 8.79854 10.4613 9.08913C10.6526 9.58659 10.7291 9.85445 10.7291 9.89271C10.7291 10.0458 10.6143 10.2371 10.3465 10.505C10.2961 10.5637 10.2495 10.6169 10.2073 10.665C10.0571 10.8363 9.96379 10.9427 9.96379 11.0024C9.96379 11.0407 9.96379 11.1172 10.0021 11.1555C10.2317 11.6912 10.6143 12.1504 11.0735 12.6096C11.4562 12.9922 11.9919 13.3366 12.6807 13.681C12.7572 13.7193 12.8337 13.7576 12.9103 13.7576C13.0633 13.7958 13.2547 13.6428 13.5225 13.2984Z" fill="#2FC6F6"/>
</svg>
