<svg width="24" height="24" viewBox="0 0 24 24" fill="none" xmlns="http://www.w3.org/2000/svg">
<path fill-rule="evenodd" clip-rule="evenodd" d="M10.6532 3.08594C12.6167 3.08594 14.5392 3.86312 15.9299 5.29477C16.0168 5.38171 16.1014 5.47055 16.1835 5.56123C15.8584 5.5173 15.5265 5.49461 15.1894 5.49461C14.8682 5.49461 14.5518 5.5152 14.2414 5.55514C12.2713 4.13325 9.56133 3.97819 7.33999 5.33568C4.39488 7.13547 3.53589 10.9805 5.33568 13.8847L5.4993 14.1301L4.88573 16.4617L7.25818 15.8481L7.50361 15.9708C7.92256 16.2258 8.37395 16.4241 8.84334 16.5655C9.16834 17.1191 9.56372 17.6264 10.0172 18.0752C8.9913 17.9966 7.97938 17.7122 7.05366 17.1979L3.08594 18.2206L4.14945 14.3346C3.53589 13.1893 3.16775 11.9213 3.16775 10.6123C3.12684 6.481 6.481 3.08594 10.6532 3.08594ZM11.2158 8.64346C12.3058 7.52142 13.8125 6.91231 15.3513 6.91231C18.6213 6.91231 21.2501 9.57316 21.218 12.8111C21.218 13.8369 20.9295 14.8308 20.4486 15.7284L21.2822 18.7739L18.1725 17.9725C17.3069 18.4534 16.3451 18.6778 15.3834 18.6778C12.1455 18.6778 9.51669 16.0169 9.51669 12.779C9.51669 11.2081 10.1258 9.73345 11.2158 8.64346ZM14.2887 11.6037C14.2887 11.1825 13.9402 11.0347 13.5695 11.0347C13.0726 11.0347 12.6648 11.1972 12.2867 11.3672L12.027 10.5913C12.4498 10.3992 13.0356 10.1849 13.7326 10.1849C14.8226 10.1849 15.3491 10.7317 15.3491 11.5002C15.3491 12.2615 14.7552 12.7126 14.1832 13.147C13.7446 13.4801 13.319 13.8034 13.1838 14.2492H15.4158V15.1063H11.8639C11.9851 13.653 12.8476 13.0278 13.5098 12.5477C13.9419 12.2344 14.2887 11.983 14.2887 11.6037ZM16.9804 13.1322H17.4254V12.6076C17.4254 12.2307 17.455 11.7947 17.4699 11.6987L16.365 13.1544C16.4539 13.147 16.8099 13.1322 16.9804 13.1322ZM15.2381 13.302L17.6851 10.1984H18.4119V13.1321H19.1385V13.9449H18.4119V15.1051H17.4256V13.9449H15.2381V13.302Z" fill="#2FC6F6"/>
</svg>
