<svg width="24" height="24" viewBox="0 0 24 24" fill="none" xmlns="http://www.w3.org/2000/svg">
<path d="M8.55279 4.4082C6.45592 4.4082 4.54492 6.31916 4.54492 8.41607V15.0958C4.54492 17.1927 6.45588 19.1037 8.55279 19.1037H14.4328C14.1706 18.7122 13.8296 18.3734 13.426 18.1115L12.8961 17.7677H8.70986C7.11837 17.7677 5.88078 16.5301 5.88078 14.9386V8.57321C5.88078 6.98172 7.11837 5.74413 8.70986 5.74413H15.0753C16.6668 5.74413 17.9044 6.98172 17.9044 8.57321V10.642L19.2404 10.3279V8.41607C19.2404 6.3192 17.3295 4.4082 15.2326 4.4082H8.55279Z" fill="#2FC6F6"/>
<path d="M11.8925 7.74805C13.8824 7.74805 15.5455 9.21747 15.8504 11.1249L14.5454 11.4317C14.3874 10.1016 13.2681 9.084 11.8926 9.084C10.4073 9.084 9.22071 10.2706 9.22071 11.7559C9.22071 12.4772 9.50058 13.1281 9.95861 13.6069C9.80023 14.0273 9.7576 14.4967 9.86049 14.9677C9.88176 15.0651 9.90895 15.1606 9.94172 15.2537C8.71687 14.5659 7.88464 13.2535 7.88464 11.7559C7.88464 9.55144 9.68799 7.74805 11.8925 7.74805Z" fill="#2FC6F6"/>
<path d="M15.2325 7.74806C15.2325 7.37885 15.5313 7.08008 15.9005 7.08008C16.2697 7.08008 16.5685 7.37885 16.5685 7.74806C16.5685 8.11726 16.2697 8.41603 15.9005 8.41603C15.5313 8.41603 15.2325 8.11726 15.2325 7.74806Z" fill="#2FC6F6"/>
<path fill-rule="evenodd" clip-rule="evenodd" d="M21.7794 13.4277C22.2803 12.6039 21.5525 11.5807 20.61 11.7836L12.8992 13.4434C11.8702 13.665 11.7121 15.0673 12.666 15.5122L15.3106 16.7459L15.7534 19.6076C15.9101 20.6199 17.2448 20.8854 17.777 20.0102L21.7794 13.4277ZM13.8153 14.5942L20.3881 13.1793L16.9637 18.8113L16.5949 16.4285C16.5389 16.0664 16.306 15.7561 15.9739 15.6012L13.8153 14.5942Z" fill="#2FC6F6"/>
</svg>
