<svg width="24" height="24" viewBox="0 0 24 24" fill="none" xmlns="http://www.w3.org/2000/svg">
<path fill-rule="evenodd" clip-rule="evenodd" d="M15.1655 8.59552L9.80531 13.5553C9.61685 13.7297 9.49546 13.9637 9.461 14.2171L9.27837 15.5641C9.25422 15.744 9.00051 15.7617 8.95043 15.5877L8.24819 13.1315C8.16795 12.8514 8.2851 12.552 8.53412 12.3992L15.0291 8.41726C15.1456 8.34605 15.2659 8.50317 15.1655 8.59552ZM17.7667 5.85495L4.12792 11.0924C3.79122 11.2215 3.79414 11.6959 4.13169 11.8217L7.45501 13.0563L8.74137 17.1742C8.82367 17.4377 9.14761 17.5354 9.36269 17.3603L11.2151 15.8572C11.4092 15.6996 11.6859 15.6919 11.8887 15.8383L15.2299 18.2531C15.46 18.4193 15.7859 18.294 15.8436 18.0174L18.2911 6.29801C18.3542 5.99578 18.0557 5.74363 17.7667 5.85495Z" fill="#2FC6F6"/>
</svg>
