<svg width="24" height="24" viewBox="0 0 24 24" fill="none" xmlns="http://www.w3.org/2000/svg">
<path fill-rule="evenodd" clip-rule="evenodd" d="M12.0521 2.8252C9.47524 2.8252 7.38631 4.9142 7.38631 7.49103C7.38631 10.0679 9.47524 12.1571 12.0521 12.1571C14.629 12.1571 16.718 10.0679 16.718 7.49103C16.718 4.9142 14.629 2.8252 12.0521 2.8252ZM12.0525 9.41998C10.9873 9.41998 10.1237 8.55636 10.1237 7.49116C10.1237 6.42596 10.9873 5.56241 12.0525 5.56241C13.1177 5.56241 13.9812 6.42596 13.9812 7.49116C13.9812 8.55636 13.1177 9.41998 12.0525 9.41998ZM16.7468 14.5573C16.6876 14.6048 15.5683 15.4894 13.7003 15.8699L16.5199 18.6644C17.0157 19.1594 17.0163 19.9627 16.5213 20.4585C16.0262 20.9543 15.2231 20.9551 14.7271 20.4599L11.9898 17.7943L9.50357 20.4427C9.25464 20.701 8.92259 20.8308 8.5902 20.8308C8.27317 20.8308 7.95588 20.7128 7.70969 20.4755C7.2053 19.9891 7.19068 19.186 7.67704 18.6816L10.3533 15.8847C8.43302 15.5131 7.26747 14.6055 7.20744 14.5573C6.66085 14.119 6.57305 13.3205 7.0114 12.7739C7.44968 12.2273 8.24807 12.1395 8.79479 12.5778C8.80634 12.5871 10.0254 13.503 11.9897 13.5043C13.9541 13.503 15.1479 12.5871 15.1595 12.5778C15.7062 12.1395 16.5046 12.2273 16.9429 12.7739C17.3812 13.3205 17.2934 14.119 16.7468 14.5573Z" fill="#2FC6F6"/>
</svg>
