<svg width="24" height="24" viewBox="0 0 24 24" fill="none" xmlns="http://www.w3.org/2000/svg">
<path fill-rule="evenodd" clip-rule="evenodd" d="M8.72421 8.81653C8.72421 8.57958 8.83388 8.36825 9.00523 8.23053V8.79289C9.00523 9.06548 9.22621 9.28647 9.49881 9.28647C9.77141 9.28647 9.99239 9.06548 9.99239 8.79289V8.27103C10.1369 8.40797 10.227 8.60172 10.227 8.81653C10.227 9.23152 9.89061 9.56793 9.47562 9.56793C9.06063 9.56793 8.72421 9.23152 8.72421 8.81653ZM14.0745 6.80918C14.0726 6.83359 14.0705 6.85186 14.0691 6.86297H9.98455C9.98316 6.85186 9.98112 6.83359 9.97916 6.80918C9.97509 6.75835 9.97152 6.68235 9.97472 6.58992C9.98123 6.40207 10.0151 6.16368 10.1156 5.93342C10.2134 5.7091 10.3752 5.4892 10.6516 5.32079C10.9312 5.15035 11.3615 5.01255 12.0268 5.01255C12.6922 5.01255 13.1224 5.15035 13.4021 5.32079C13.6785 5.4892 13.8403 5.7091 13.9381 5.93342C14.0386 6.16368 14.0725 6.40207 14.079 6.58992C14.0822 6.68235 14.0786 6.75835 14.0745 6.80918ZM16.0922 6.86297H15.0604C15.066 6.78319 15.0698 6.67826 15.0655 6.55574C15.0562 6.28718 15.0079 5.91702 14.8429 5.53873C14.6753 5.1545 14.3884 4.76584 13.9158 4.47784C13.4466 4.19187 12.8278 4.02539 12.0268 4.02539C11.2259 4.02539 10.6071 4.19187 10.1379 4.47784C9.66527 4.76584 9.37835 5.1545 9.21075 5.53873C9.04573 5.91702 8.99746 6.28718 8.98816 6.55574C8.98391 6.67826 8.98766 6.78319 8.99327 6.86297H7.907C7.39223 6.86297 6.96157 7.25375 6.9117 7.76609L6.10636 16.0405C6.04915 16.6283 6.51109 17.1374 7.10166 17.1374H16.8975C17.4881 17.1374 17.9501 16.6283 17.8928 16.0405L17.0875 7.7661C17.0376 7.25375 16.607 6.86297 16.0922 6.86297ZM14.0613 8.79289V8.22479C13.8858 8.36234 13.773 8.57626 13.773 8.81653C13.773 9.23152 14.1095 9.56793 14.5244 9.56793C14.9394 9.56793 15.2759 9.23152 15.2759 8.81653C15.2759 8.60533 15.1887 8.41449 15.0485 8.27798V8.79289C15.0485 9.06548 14.8275 9.28647 14.5549 9.28647C14.2823 9.28647 14.0613 9.06548 14.0613 8.79289ZM8.20508 10.8339C8.2656 13.7912 9.82227 15.5708 12.3873 15.5708H12.5361V13.879C13.4698 13.9737 14.1669 14.6708 14.4513 15.5708H15.7978C15.4324 14.2244 14.485 13.4799 13.8962 13.1955C14.485 12.8438 15.3173 11.9911 15.5134 10.8339H14.2889C14.0313 11.7745 13.2669 12.6272 12.5361 12.7082V10.8339H11.2907V14.1161C10.533 13.9282 9.5447 13.0063 9.5042 10.8339H8.20508Z" fill="#2FC6F6"/>
</svg>
