<svg width="24" height="24" viewBox="0 0 24 24" fill="none" xmlns="http://www.w3.org/2000/svg">
<path fill-rule="evenodd" clip-rule="evenodd" d="M3.48047 9.66967H4.72935V7.9464C4.72935 7.94004 4.72933 7.93295 4.7293 7.92516C4.72793 7.54698 4.72058 5.52148 7.358 5.52148H9.25902V7.71617H7.86103C7.58432 7.71617 7.30486 8.00553 7.30486 8.2208V9.66219H9.25644C9.17785 10.7674 9.01653 11.7781 9.01653 11.7781H7.29471V18.0417H4.72935V11.7774H3.48047V9.66967ZM12.7906 8.372C11.9622 8.372 11.2906 9.04358 11.2906 9.872V13.4364C11.2906 14.2648 11.9622 14.9364 12.7906 14.9364H13.3415V17.4611L15.9051 14.9364H19.0196C19.848 14.9364 20.5196 14.2648 20.5196 13.4364V9.872C20.5196 9.04358 19.848 8.372 19.0196 8.372H12.7906Z" fill="#2FC6F6"/>
</svg>
