<svg width="24" height="24" viewBox="0 0 24 24" fill="none" xmlns="http://www.w3.org/2000/svg">
<path fill-rule="evenodd" clip-rule="evenodd" d="M12.7473 9.89187H11.7969V12.4399H14.2316V11.4895H12.7473V9.89187ZM12.326 14.9356C10.5393 14.9356 9.09098 13.4873 9.09098 11.7007C9.09098 9.91402 10.5393 8.46567 12.326 8.46567C14.1126 8.46567 15.561 9.91402 15.561 11.7007C15.561 13.4873 14.1126 14.9356 12.326 14.9356ZM18.6302 10.8216C18.6373 10.7304 18.6418 10.6386 18.6418 10.5457C18.6418 8.57987 17.0484 6.98631 15.0826 6.98631C14.6551 6.98631 14.2453 7.06182 13.8657 7.19984C13.2992 5.98498 12.0677 5.14258 10.6388 5.14258C8.7887 5.14258 7.26875 6.55429 7.0962 8.35905C5.1928 8.79097 3.77148 10.4918 3.77148 12.5258C3.77148 14.8863 5.68491 16.7997 8.04536 16.7997H18.1673C19.8432 16.7997 21.2015 15.6172 21.2015 13.7655C21.2015 11.3674 18.8659 10.7629 18.6302 10.8216Z" fill="#2FC6F6"/>
</svg>
