<svg width="24" height="24" viewBox="0 0 24 24" fill="none" xmlns="http://www.w3.org/2000/svg">
<path fill-rule="evenodd" clip-rule="evenodd" d="M14.6795 7.93956C14.6795 8.31141 14.3656 8.61511 13.9812 8.61511H8.37155C7.98764 8.61511 7.67316 8.31141 7.67316 7.93956V7.90499C7.67316 7.53314 7.98764 7.22944 8.37155 7.22944H13.9812C14.3656 7.22944 14.6795 7.53314 14.6795 7.90499V7.93956ZM13.4598 10.952C13.4598 11.3238 13.1458 11.6275 12.7619 11.6275H8.37093C7.98702 11.6275 7.67203 11.3238 7.67203 10.952V10.9169C7.67203 10.5451 7.98702 10.2414 8.37093 10.2414H12.7619C13.1458 10.2414 13.4598 10.5451 13.4598 10.9169V10.952ZM13.4598 13.9638C13.4598 14.3356 13.1458 14.6393 12.7619 14.6393H8.37093C7.98702 14.6393 7.67203 14.3356 7.67203 13.9638V13.9292C7.67203 13.5574 7.98702 13.2537 8.37093 13.2537H12.7619C13.1458 13.2537 13.4598 13.5574 13.4598 13.9292V13.9638ZM17.4082 5.14258H6.59284C6.17268 5.14258 5.8291 5.47492 5.8291 5.88134V17.4324C5.8291 17.8388 6.17268 18.1711 6.59284 18.1711H17.4082C17.8284 18.1711 18.172 17.8388 18.172 17.4324V5.88134C18.172 5.47492 17.8284 5.14258 17.4082 5.14258Z" fill="#2FC6F6"/>
</svg>
