<svg width="24" height="24" viewBox="0 0 24 24" fill="none" xmlns="http://www.w3.org/2000/svg">
<path fill-rule="evenodd" clip-rule="evenodd" d="M14.6786 7.93956C14.6786 8.31141 14.3646 8.61511 13.9802 8.61511H8.37058C7.98667 8.61511 7.67218 8.31141 7.67218 7.93956V7.90499C7.67218 7.53314 7.98667 7.22944 8.37058 7.22944H13.9802C14.3646 7.22944 14.6786 7.53314 14.6786 7.90499V7.93956ZM13.4588 10.952C13.4588 11.3238 13.1449 11.6275 12.7609 11.6275H8.36995C7.98604 11.6275 7.67105 11.3238 7.67105 10.952V10.9169C7.67105 10.5451 7.98604 10.2414 8.36995 10.2414H12.7609C13.1449 10.2414 13.4588 10.5451 13.4588 10.9169V10.952ZM15.5 10.9998C13.6765 10.9998 12.0603 11.8872 11.0596 13.2537H8.36995C7.98604 13.2537 7.67105 13.5574 7.67105 13.9292V13.9638C7.67105 14.3356 7.98604 14.6393 8.36995 14.6393H10.3226C10.1138 15.2204 10 15.8468 10 16.4998C10 17.0825 10.0906 17.6441 10.2586 18.1711H6.59186C6.17171 18.1711 5.82812 17.8388 5.82812 17.4324V5.88134C5.82812 5.47492 6.17171 5.14258 6.59186 5.14258H17.4072C17.8274 5.14258 18.171 5.47492 18.171 5.88134V11.6907C17.3801 11.2505 16.4693 10.9998 15.5 10.9998ZM11.9531 13.9109C12.0256 17.4539 13.8907 19.5861 16.9638 19.5861H17.142V17.5592C18.2607 17.6725 19.0959 18.5077 19.4366 19.5861H21.0498C20.612 17.9729 19.477 17.081 18.7715 16.7403C19.477 16.3189 20.4741 15.2973 20.7091 13.9109H19.242C18.9335 15.0378 18.0176 16.0594 17.142 16.1564V13.9109H15.6499V17.8432C14.7422 17.618 13.5581 16.5135 13.5096 13.9109H11.9531Z" fill="#2FC6F6"/>
</svg>
