<svg width="24" height="24" viewBox="0 0 24 24" fill="none" xmlns="http://www.w3.org/2000/svg">
<path fill-rule="evenodd" clip-rule="evenodd" d="M2.53909 8.92915C4.1367 8.18671 5.31588 8.11095 6.06142 8.73975C7.37755 9.86099 6.80696 11.4368 6.30486 12.8232C5.90927 13.9293 5.47564 14.6036 5.04961 15.0127C4.3497 15.6794 3.80196 15.7021 3.37593 15.6794C2.47062 15.6339 1.74791 15.1112 0.941499 13.9596C0.256813 12.9672 -0.321365 11.9217 0.20356 10.7322C0.287244 10.5428 0.606763 9.82312 2.53909 8.92915ZM3.40396 14.0131C3.76053 14.0433 4.19294 14.08 4.80616 12.3611C5.36913 10.8004 5.36913 10.3459 4.95831 10.0428C4.76812 9.90646 4.32689 9.82312 3.21618 10.3534C2.23479 10.8231 1.8468 11.0883 1.73269 11.361C1.57293 11.7398 1.52729 12.0277 2.19675 12.9899C2.65321 13.649 3.06402 13.9823 3.39876 14.0126L3.40396 14.0131ZM15.3514 9.08838H14.895C14.8189 9.08838 14.7657 9.14899 14.7657 9.21717V10.6263C14.4233 10.3081 13.9821 10.1414 13.5104 10.1414C12.4605 10.1414 11.6009 11.0278 11.6009 12.1264C11.6009 13.2173 12.4605 14.1113 13.5104 14.1113C13.9821 14.1113 14.4385 13.937 14.7885 13.6037L14.8113 13.8461C14.8189 13.9143 14.8798 13.9597 14.9406 13.9597H15.3514C15.4275 13.9597 15.4808 13.8991 15.4808 13.8309V9.22475C15.4808 9.15656 15.4199 9.08838 15.3514 9.08838ZM14.7048 12.1264C14.7048 12.8082 14.1723 13.3612 13.5104 13.3612C12.8485 13.3612 12.3084 12.8082 12.3084 12.1264C12.3084 11.4445 12.8409 10.8915 13.5028 10.8915C14.1646 10.8915 14.7048 11.4369 14.7048 12.1264ZM19.4128 10.8156C19.3215 10.6793 19.2148 10.5581 19.0932 10.4671C18.9714 10.3687 18.8346 10.2929 18.6825 10.2399C18.4162 10.1414 18.1194 10.1262 17.8152 10.1793C17.3739 10.255 17.0543 10.4823 16.8642 10.649L16.8414 10.399C16.8337 10.3308 16.7729 10.2853 16.7121 10.2853H16.2707C16.1947 10.2853 16.1414 10.3459 16.1414 10.4141V13.8309C16.1414 13.9066 16.2024 13.9597 16.2707 13.9597H16.7577C16.8337 13.9597 16.887 13.8991 16.887 13.8309V11.399C17.2446 11.149 17.5641 10.9747 17.9293 10.9066C18.0814 10.8763 18.2716 10.899 18.439 10.9596C18.5835 11.0126 18.7128 11.1035 18.7889 11.2399C18.9487 11.4823 18.9487 11.7854 18.9487 12.0581V13.8233C18.9487 13.8991 19.0096 13.9521 19.078 13.9521H19.5724C19.6486 13.9521 19.7017 13.8915 19.7017 13.8233V12.4142V12.2324C19.7094 11.9066 19.7094 11.5581 19.6106 11.2323C19.5573 11.0884 19.4964 10.9369 19.4128 10.8156ZM23.4068 10.2777H23.8634C23.9393 10.2777 24.0002 10.3383 24.0002 10.4292V13.8384C24.0002 13.9066 23.947 13.9672 23.8709 13.9672H23.4601C23.3993 13.9672 23.3383 13.9218 23.3308 13.8536L23.308 13.6112C22.9579 13.9445 22.5015 14.1187 22.0298 14.1187C20.98 14.1187 20.1204 13.2248 20.1204 12.1338C20.1204 11.0353 20.98 10.1489 22.0298 10.1489C22.4938 10.1489 22.9352 10.3156 23.2775 10.6338V10.4065C23.2775 10.3383 23.3308 10.2777 23.4068 10.2777ZM22.0298 13.3611C22.6918 13.3611 23.2242 12.8081 23.2242 12.1263C23.2242 11.4368 22.6918 10.8914 22.0298 10.8914C21.3679 10.8914 20.8354 11.4444 20.8354 12.1263C20.8354 12.8081 21.3679 13.3611 22.0298 13.3611ZM11.2955 11.7399C11.1586 10.8383 10.4435 10.1489 9.51537 10.1489H9.49254C8.44268 10.1489 7.58303 11.0353 7.58303 12.1338C7.58303 13.2248 8.43509 14.1112 9.49254 14.1187H9.53058C10.1696 14.1187 10.7174 13.8536 11.1206 13.4066C11.1662 13.3536 11.1662 13.2854 11.1206 13.2323L10.8315 12.9142C10.8011 12.8839 10.7706 12.8687 10.7326 12.8687C10.6945 12.8687 10.6565 12.8914 10.6337 12.9217C10.3826 13.2399 10.0479 13.3763 9.53818 13.3763H9.49254C8.91436 13.3763 8.43509 12.952 8.32096 12.3914H11.0217C11.189 12.3914 11.326 12.2551 11.326 12.0808C11.3227 12.0775 11.3208 12.0461 11.3179 11.9975L11.3179 11.9974C11.3141 11.9332 11.3085 11.839 11.2955 11.7399ZM8.38943 11.649C8.56441 11.202 8.99044 10.8914 9.48492 10.8914H9.52297C10.0175 10.8914 10.4359 11.1944 10.588 11.649H10.5804H8.38943Z" fill="#2FC6F6"/>
</svg>
