<svg width="24" height="24" viewBox="0 0 24 24" fill="none" xmlns="http://www.w3.org/2000/svg">
<path fill-rule="evenodd" clip-rule="evenodd" d="M7.88365 10.9714C9.7772 10.9714 11.3122 9.43638 11.3122 7.54283C11.3122 5.64928 9.7772 4.11426 7.88365 4.11426C5.9901 4.11426 4.45508 5.64928 4.45508 7.54283C4.45508 9.43638 5.9901 10.9714 7.88365 10.9714ZM15.4272 19.8859C17.6994 19.8859 19.5415 18.0439 19.5415 15.7716C19.5415 13.4994 17.6994 11.6573 15.4272 11.6573C13.1549 11.6573 11.3129 13.4994 11.3129 15.7716C11.3129 18.0439 13.1549 19.8859 15.4272 19.8859ZM18.1697 7.54295C18.1697 9.05779 16.9417 10.2858 15.4268 10.2858C13.912 10.2858 12.684 9.05779 12.684 7.54295C12.684 6.02812 13.912 4.8001 15.4268 4.8001C16.9417 4.8001 18.1697 6.02812 18.1697 7.54295ZM7.88566 17.8285C9.02179 17.8285 9.9428 16.9075 9.9428 15.7714C9.9428 14.6353 9.02179 13.7143 7.88566 13.7143C6.74953 13.7143 5.82852 14.6353 5.82852 15.7714C5.82852 16.9075 6.74953 17.8285 7.88566 17.8285Z" fill="#2FC6F6"/>
</svg>
