<svg width="24" height="24" viewBox="0 0 24 24" fill="none" xmlns="http://www.w3.org/2000/svg">
<path fill-rule="evenodd" clip-rule="evenodd" d="M19.2008 8.23049L19.2053 8.2487C19.6552 10.3269 19.6552 12.4345 19.2053 14.5128L19.2008 14.531C18.8369 16.0192 17.1961 17.616 15.6893 17.9483L15.6723 17.9518C14.454 18.1869 13.2267 18.3042 11.9999 18.3042C11.6388 18.3042 11.2777 18.2929 10.9168 18.2724L9.25281 20.0219C8.84087 20.4558 8.11648 20.1605 8.11648 19.5593V17.8981C6.66595 17.4791 5.14738 15.9556 4.79848 14.531L4.79448 14.5128C4.34455 12.4345 4.34455 10.3269 4.79448 8.2487L4.79848 8.23049C5.16292 6.74235 6.80368 5.14548 8.30995 4.81327L8.32745 4.80973C10.7641 4.33947 13.2352 4.33947 15.6723 4.80973L15.6893 4.81327C17.1961 5.14548 18.8369 6.74235 19.2008 8.23049ZM15.3746 16.3629C16.3542 16.1465 17.5871 14.975 17.8276 14.0327C18.2288 12.2095 18.2288 10.3612 17.8276 8.53792C17.5871 7.59563 16.3547 6.42415 15.3746 6.20772C13.1354 5.78516 10.8645 5.78516 8.62482 6.20772C7.64522 6.42415 6.41282 7.59563 6.17187 8.53792C5.77113 10.3611 5.77113 12.2094 6.17187 14.0326C6.41282 14.9749 7.64522 16.1464 8.62482 16.3628L8.62556 16.363C8.66925 16.3715 8.70101 16.409 8.70101 16.4531V19.124C8.70101 19.2575 8.86527 19.3232 8.95877 19.2266L11.4401 16.7002C11.458 16.6819 11.4827 16.672 11.5083 16.6727C12.7996 16.7082 14.0922 16.6048 15.3746 16.3629ZM13.7879 15.4071C13.6865 15.3791 13.589 15.352 13.4963 15.3134C12.0782 14.7226 10.7732 13.9605 9.73945 12.7922C9.15159 12.1278 8.69148 11.3777 8.30254 10.5839C8.13716 10.2464 7.9951 9.89704 7.8533 9.54827L7.80423 9.42771C7.65977 9.07331 7.87255 8.70718 8.09661 8.44016C8.30686 8.18956 8.5774 7.99777 8.87039 7.85643C9.09907 7.7461 9.32465 7.80971 9.49167 8.00435C9.85273 8.42516 10.1844 8.8675 10.4529 9.35528C10.6181 9.65531 10.5728 10.0221 10.2735 10.2262C10.215 10.2661 10.1607 10.3115 10.1065 10.3569L10.0667 10.3902C10.0072 10.4393 9.95132 10.4889 9.91058 10.5554C9.83611 10.6771 9.83256 10.8207 9.88051 10.953C10.2496 11.9715 10.8717 12.7635 11.8926 13.1901L11.9363 13.2085C12.0854 13.2717 12.2368 13.3358 12.4082 13.3158C12.6122 13.2918 12.7269 13.138 12.8423 12.9833C12.9052 12.8989 12.9684 12.8143 13.0463 12.7502C13.2622 12.573 13.5381 12.5706 13.7706 12.7184C14.0032 12.8662 14.2287 13.0249 14.4528 13.1853L14.4981 13.2177C14.7028 13.364 14.9058 13.509 15.0947 13.6761C15.2899 13.8487 15.3571 14.075 15.2472 14.3092C15.046 14.7381 14.7534 15.0949 14.3311 15.3226C14.2496 15.3666 14.1572 15.3902 14.0639 15.414C14.0209 15.425 13.9775 15.4361 13.9351 15.4492C13.8853 15.4341 13.8361 15.4204 13.7879 15.4071ZM15.6792 10.4225C15.3818 8.60023 13.9941 7.37697 12.3045 7.32533C12.295 7.32529 12.2855 7.32512 12.276 7.32495C12.2528 7.32454 12.2296 7.32414 12.2065 7.32553C12.0867 7.33255 11.9805 7.44184 12.0029 7.57909C12.0282 7.73373 12.1707 7.74941 12.2881 7.76233L12.3085 7.7646C12.3679 7.7714 12.4275 7.77701 12.487 7.78263C12.619 7.79507 12.751 7.80751 12.8809 7.8328C14.1337 8.07656 15.1373 9.21254 15.3122 10.5856C15.3387 10.7931 15.3517 11.0027 15.3647 11.2122C15.368 11.2653 15.3713 11.3184 15.3748 11.3715C15.3836 11.504 15.4446 11.6276 15.58 11.6258C15.7111 11.6241 15.7799 11.4982 15.7705 11.3656L15.7623 11.2491C15.743 10.9724 15.7236 10.6948 15.6792 10.4225ZM14.6971 10.8443C14.6964 10.85 14.6959 10.8577 14.6952 10.8668C14.6932 10.8935 14.6903 10.9326 14.6818 10.9699C14.6406 11.1513 14.3483 11.2286 14.2938 11.0455C14.2776 10.9912 14.2752 10.9294 14.2751 10.8709C14.2746 10.4883 14.203 10.106 14.037 9.7731C13.8663 9.43093 13.6056 9.14328 13.2997 8.96922C13.1148 8.86399 12.9148 8.79858 12.7121 8.75959C12.657 8.749 12.6014 8.74099 12.5459 8.73298C12.5122 8.72813 12.4786 8.72327 12.445 8.71783C12.3371 8.70042 12.2795 8.62051 12.2846 8.49697C12.2894 8.3812 12.3622 8.29793 12.4707 8.30506C12.8275 8.32861 13.1721 8.41821 13.4892 8.61339C14.1342 9.01033 14.5583 9.58232 14.6658 10.419C14.6675 10.4325 14.6697 10.446 14.6718 10.4596C14.6756 10.4838 14.6794 10.508 14.681 10.5325C14.6852 10.5985 14.6884 10.6646 14.6921 10.7411L14.6971 10.8443ZM13.3652 10.8784C13.3846 11.0481 13.4856 11.1505 13.6743 11.1472C13.7602 11.1415 13.8483 11.083 13.8759 10.9664C13.8915 10.9004 13.885 10.8277 13.8789 10.7585L13.8783 10.7517C13.7891 9.74219 13.1642 9.29885 12.2898 9.23695C12.1499 9.22701 12.0253 9.32502 12.0039 9.45059C11.9803 9.58857 12.0632 9.70766 12.2132 9.7437C12.2779 9.75925 12.3438 9.76515 12.4099 9.77106C12.4848 9.77776 12.5599 9.78448 12.6334 9.8053C12.7424 9.83613 12.8464 9.88393 12.9382 9.94953C13.1326 10.0884 13.2555 10.2985 13.3122 10.5252C13.3369 10.6242 13.3483 10.7268 13.3596 10.8289C13.3614 10.8454 13.3633 10.8619 13.3652 10.8784Z" fill="#2FC6F6"/>
</svg>
