<svg width="24" height="24" viewBox="0 0 24 24" fill="none" xmlns="http://www.w3.org/2000/svg">
<path fill-rule="evenodd" clip-rule="evenodd" d="M6.45703 5.82812C5.35246 5.82812 4.45703 6.72355 4.45703 7.82812V11.5268C4.45703 12.6314 5.35246 13.5268 6.45703 13.5268H6.86231V16.4879L9.8689 13.5268H13.2808C14.3853 13.5268 15.2808 12.6314 15.2808 11.5268V7.82812C15.2808 6.72356 14.3853 5.82812 13.2808 5.82812H6.45703ZM17.4896 9.38133C18.5942 9.38133 19.4896 10.2768 19.4896 11.3813V14.4878C19.4896 15.5924 18.5942 16.4878 17.4896 16.4878H17.0844V18.8566L14.6791 16.4878H11.6452C10.664 16.4878 9.86855 15.6924 9.86855 14.7112H13.486C15.1429 14.7112 16.486 13.3681 16.486 11.7112V9.38133H17.4896Z" fill="#2FC6F6"/>
</svg>
