<svg width="66" height="67" viewBox="0 0 66 67" fill="none" xmlns="http://www.w3.org/2000/svg">
<g filter="url(#filter0_d)">
<path fill-rule="evenodd" clip-rule="evenodd" d="M33 63.5C50.1208 63.5 64 49.6208 64 32.5C64 15.3792 50.1208 1.5 33 1.5C15.8792 1.5 2 15.3792 2 32.5C2 49.6208 15.8792 63.5 33 63.5Z" fill="white"/>
</g>
<path fill-rule="evenodd" clip-rule="evenodd" d="M33 54.5C45.1503 54.5 55 44.6503 55 32.5C55 20.3497 45.1503 10.5 33 10.5C20.8497 10.5 11 20.3497 11 32.5C11 44.6503 20.8497 54.5 33 54.5Z" fill="#FFA800"/>
<path fill-rule="evenodd" clip-rule="evenodd" d="M20.1428 27.0467C20.1563 29.94 21.8898 32.1225 24.3995 32.3545C23.5069 30.6427 23.0358 28.8221 22.6744 26.98C21.7461 26.973 20.9395 26.8688 20.1428 27.0467V27.0467ZM43.0636 26.9994C42.7227 28.9112 42.1402 30.7269 41.2396 32.5007C44.1826 31.7363 45.8038 29.6408 45.542 26.9994H43.0636ZM30.2577 45.4927H35.5095C35.7001 44.7564 35.3434 44.2658 34.9206 43.8796C33.4384 42.5256 33.6148 41.0293 34.4524 39.4493C35.2365 37.9696 36.2703 36.6556 37.2339 35.2958C38.7427 33.1671 40.1255 30.9734 40.7979 28.4161C41.0802 27.3419 41.3511 26.2569 41.0613 25.182H24.6352C24.469 26.6543 24.7756 27.9687 25.1874 29.2686C26.0807 32.0882 27.7785 34.4547 29.4509 36.8356C30.2533 37.978 31.088 39.1028 31.6111 40.4114C32.2982 42.1304 32.0773 43.0964 30.7437 44.3465C30.4336 44.637 30.0797 44.9103 30.2577 45.4927V45.4927ZM18.0152 25.0293H22.4815C22.4815 25.0293 22.4759 23.8114 22.7381 23.2368H43.0935C43.1439 23.8067 43.1908 24.3323 43.2486 24.9826H47.6029C48.3336 27.4827 46.7917 31.5717 44.6373 33.0155C43.3391 33.8855 41.915 34.5039 40.4209 34.949C39.8323 35.1244 39.4116 35.4375 39.0707 35.9552C38.2178 37.2514 37.298 38.5035 36.4402 39.797C36.0351 40.4074 35.6684 41.058 35.7563 41.969C37.4063 43.3506 37.8281 45.2288 37.5001 47.4164H28.3345C27.8723 45.1626 28.2239 44.0949 29.9404 42.5186C30.205 41.806 29.9126 41.1669 29.5818 40.5476C28.6273 38.7612 27.3189 37.2085 26.2317 35.5093C25.9993 35.146 25.6123 35.0726 25.2537 34.9329C24.4231 34.6095 23.5738 34.3232 22.7717 33.9391C19.3234 32.2875 17.5708 29.0562 18.0152 25.0293V25.0293Z" fill="white"/>
<defs>
<filter id="filter0_d" x="0" y="0.5" width="66" height="66" filterUnits="userSpaceOnUse" color-interpolation-filters="sRGB">
<feFlood flood-opacity="0" result="BackgroundImageFix"/>
<feColorMatrix in="SourceAlpha" type="matrix" values="0 0 0 0 0 0 0 0 0 0 0 0 0 0 0 0 0 0 127 0"/>
<feOffset dy="1"/>
<feGaussianBlur stdDeviation="1"/>
<feColorMatrix type="matrix" values="0 0 0 0 0 0 0 0 0 0 0 0 0 0 0 0 0 0 0.06 0"/>
<feBlend mode="normal" in2="BackgroundImageFix" result="effect1_dropShadow"/>
<feBlend mode="normal" in="SourceGraphic" in2="effect1_dropShadow" result="shape"/>
</filter>
</defs>
</svg>
