<svg width="367" height="59" viewBox="0 0 367 59" fill="none" xmlns="http://www.w3.org/2000/svg">
<rect width="367" height="129" fill="#E0F7FE"/>
<g clip-path="url(#clip0)">
<path fill-rule="evenodd" clip-rule="evenodd" d="M83.4917 -0.661448C83.5866 19.5996 95.7446 34.8836 113.347 36.5083C107.086 24.5212 103.782 11.7715 101.248 -1.12846C94.7367 -1.17744 89.0798 -1.90735 83.4917 -0.661448V-0.661448ZM244.249 -0.993225C241.859 12.3949 237.773 25.1103 231.457 37.5318C252.097 32.1792 263.468 17.5043 261.632 -0.993225H244.249ZM154.434 128.514H191.268C192.605 123.358 190.103 119.922 187.138 117.218C176.742 107.736 177.979 97.2574 183.854 86.1929C189.353 75.8305 196.604 66.6291 203.362 57.106C213.944 42.1993 223.643 26.8369 228.359 8.92891C230.339 1.40613 232.239 -6.19176 230.206 -13.7194H115C113.834 -3.40929 115.985 5.79537 118.873 14.8988C125.138 34.6438 137.046 51.2162 148.775 67.8897C154.403 75.8893 160.258 83.7664 163.926 92.9302C168.745 104.968 167.196 111.733 157.842 120.487C155.668 122.522 153.185 124.435 154.434 128.514V128.514ZM68.5699 -14.7892H99.8945C99.8945 -14.7892 99.8552 -23.3178 101.694 -27.3413H244.459C244.812 -23.3505 245.141 -19.6699 245.547 -15.1158H276.086C281.211 2.39219 270.397 31.0267 255.287 41.1377C246.182 47.23 236.194 51.5605 225.715 54.6777C221.586 55.9056 218.636 58.0986 216.245 61.7237C210.263 70.801 203.812 79.5696 197.795 88.6273C194.955 92.9023 192.382 97.4581 192.999 103.838C204.571 113.513 207.53 126.666 205.229 141.986H140.945C137.704 126.202 140.17 118.725 152.208 107.687C154.064 102.696 152.014 98.2206 149.693 93.8837C142.999 81.374 133.822 70.5005 126.197 58.6016C124.567 56.0575 121.853 55.5431 119.338 54.565C113.512 52.3002 107.556 50.295 101.93 47.6056C77.7449 36.0398 65.4527 13.411 68.5699 -14.7892V-14.7892Z" fill="#F0FBFF"/>
<g filter="url(#filter0_d)">
<path fill-rule="evenodd" clip-rule="evenodd" d="M38 71C56.2254 71 71 56.2254 71 38C71 19.7746 56.2254 5 38 5C19.7746 5 5 19.7746 5 38C5 56.2254 19.7746 71 38 71Z" fill="white"/>
</g>
<path fill-rule="evenodd" clip-rule="evenodd" d="M37.9999 62.3021C50.9341 62.3021 61.4193 51.8169 61.4193 38.8827C61.4193 25.9486 50.9341 15.4634 37.9999 15.4634C25.0658 15.4634 14.5806 25.9486 14.5806 38.8827C14.5806 51.8169 25.0658 62.3021 37.9999 62.3021Z" fill="#FFA800"/>
<path fill-rule="evenodd" clip-rule="evenodd" d="M24.3132 33.0776C24.3276 36.1575 26.173 38.4809 28.8446 38.7279C27.8944 36.9057 27.3929 34.9676 27.0082 33.0067C26.02 32.9992 25.1614 32.8883 24.3132 33.0776V33.0776ZM48.7128 33.0273C48.35 35.0624 47.7298 36.9953 46.7711 38.8835C49.904 38.0698 51.6298 35.8391 51.3512 33.0273H48.7128ZM35.0807 52.7137H40.6714C40.8743 51.9299 40.4945 51.4076 40.0445 50.9966C38.4666 49.5552 38.6544 47.9623 39.546 46.2804C40.3808 44.7052 41.4813 43.3065 42.507 41.8589C44.1132 39.5929 45.5852 37.2576 46.301 34.5354C46.6015 33.3919 46.8898 32.2369 46.5814 31.0926H29.0954C28.9186 32.6599 29.245 34.0591 29.6833 35.4429C30.6343 38.4444 32.4416 40.9635 34.2219 43.4981C35.076 44.7141 35.9646 45.9115 36.5215 47.3046C37.2529 49.1344 37.0177 50.1628 35.5981 51.4935C35.268 51.8028 34.8912 52.0937 35.0807 52.7137V52.7137ZM22.0484 30.93H26.8028C26.8028 30.93 26.7969 29.6336 27.076 29.022H48.7446C48.7983 29.6286 48.8482 30.1881 48.9098 30.8804H53.545C54.3228 33.5418 52.6814 37.8946 50.388 39.4315C49.0061 40.3576 47.4901 41.0159 45.8996 41.4898C45.273 41.6764 44.8252 42.0098 44.4624 42.5608C43.5543 43.9407 42.5753 45.2736 41.6621 46.6505C41.2309 47.3003 40.8405 47.9929 40.9341 48.9626C42.6905 50.4333 43.1396 52.4327 42.7904 54.7615H33.0335C32.5415 52.3623 32.9158 51.2257 34.743 49.5477C35.0246 48.7891 34.7134 48.1088 34.3612 47.4495C33.3452 45.5479 31.9524 43.895 30.795 42.0862C30.5476 41.6995 30.1356 41.6213 29.7539 41.4726C28.8697 41.1284 27.9656 40.8235 27.1118 40.4147C23.441 38.6566 21.5753 35.2168 22.0484 30.93V30.93Z" fill="white"/>
</g>
<defs>
<filter id="filter0_d" x="3" y="4" width="70" height="70" filterUnits="userSpaceOnUse" color-interpolation-filters="sRGB">
<feFlood flood-opacity="0" result="BackgroundImageFix"/>
<feColorMatrix in="SourceAlpha" type="matrix" values="0 0 0 0 0 0 0 0 0 0 0 0 0 0 0 0 0 0 127 0"/>
<feOffset dy="1"/>
<feGaussianBlur stdDeviation="1"/>
<feColorMatrix type="matrix" values="0 0 0 0 0 0 0 0 0 0 0 0 0 0 0 0 0 0 0.06 0"/>
<feBlend mode="normal" in2="BackgroundImageFix" result="effect1_dropShadow"/>
<feBlend mode="normal" in="SourceGraphic" in2="effect1_dropShadow" result="shape"/>
</filter>
<clipPath id="clip0">
<rect width="367" height="129" fill="white"/>
</clipPath>
</defs>
</svg>
