<svg width="24" height="24" viewBox="0 0 24 24" fill="none" xmlns="http://www.w3.org/2000/svg">
	<path fill-rule="evenodd" clip-rule="evenodd" d="M6.89826 13.4719V7.09378C6.89826 6.98625 6.98625 6.89826 7.09378 6.89826H13.4719C13.5794 6.89826 13.6675 6.98625 13.6675 7.09378V7.40131H15.5658V5.64035C15.5658 5.28816 15.2775 5 14.9254 5H5.64035C5.28816 5 5 5.28816 5 5.64035V14.9254C5 15.2775 5.28816 15.5658 5.64035 15.5658H7.29458V13.6674H7.09378C6.98625 13.6674 6.89826 13.5795 6.89826 13.4719ZM17.1209 16.914C17.1209 17.0278 17.0278 17.1209 16.914 17.1209H10.1614C10.0475 17.1209 9.95436 17.0278 9.95436 16.914V10.1614C9.95436 10.0475 10.0475 9.95436 10.1614 9.95436H16.914C17.0278 9.95436 17.1209 10.0475 17.1209 10.1614V16.914ZM18.2686 8.05447H8.71345C8.35101 8.05447 8.05447 8.35101 8.05447 8.71345V18.2686C8.05447 18.631 8.35101 18.9276 8.71345 18.9276H18.2686C18.631 18.9276 18.9276 18.631 18.9276 18.2686V8.71345C18.9276 8.35101 18.631 8.05447 18.2686 8.05447Z" fill="#525c69"/>
</svg>