<svg width="40" height="40" viewBox="0 0 40 40" fill="none" xmlns="http://www.w3.org/2000/svg">
<path fill-rule="evenodd" clip-rule="evenodd" d="M15.4676 5.57011C15.4334 4.91389 15.9377 4.35419 16.5939 4.32C17.2501 4.28581 17.8098 4.79007 17.844 5.44629L18.0268 8.95393C18.0609 9.61015 17.5567 10.1698 16.9005 10.204C16.2442 10.2382 15.6845 9.73397 15.6504 9.07775L15.4676 5.57011ZM24.2316 5.86528C23.6549 5.55038 22.9321 5.76264 22.6172 6.33939L20.934 9.42219C20.619 9.99894 20.8313 10.7218 21.4081 11.0367C21.9848 11.3516 22.7076 11.1393 23.0225 10.5626L24.7057 7.47976C25.0207 6.90301 24.8084 6.18019 24.2316 5.86528ZM19.1849 30.8376L14.6351 15.7426C14.5675 15.5181 14.5705 15.2781 14.6439 15.0585C14.8315 14.4972 15.4207 14.2108 15.9601 14.4188L30.624 20.0738C30.8757 20.1709 31.0839 20.3653 31.2051 20.6166C31.4649 21.1551 31.2632 21.8036 30.7547 22.065L28.0382 23.4618C27.9344 23.5152 27.8403 23.5868 27.7598 23.6737C27.366 24.0987 27.382 24.785 27.7955 25.2064L31.4977 28.9799C31.5044 28.9867 31.511 28.9936 31.5175 29.0005C31.9203 29.4332 31.9188 30.1193 31.5141 30.5329L29.5507 32.5398C29.5442 32.5464 29.5376 32.553 29.5309 32.5595C29.1156 32.9614 28.4612 32.9277 28.0693 32.4842L24.6223 28.583C24.5927 28.5495 24.5612 28.518 24.528 28.4886C24.0873 28.0986 23.4357 28.1506 23.0725 28.6047L20.968 31.2362C20.8414 31.3945 20.6731 31.5102 20.4834 31.5694C19.9393 31.7392 19.3579 31.4116 19.1849 30.8376ZM10.891 21.0228C10.7179 20.3889 10.0636 20.0153 9.42974 20.1884L6.04141 21.1137C5.40751 21.2868 5.03395 21.941 5.20705 22.5749C5.38015 23.2088 6.03436 23.5824 6.66827 23.4093L10.0566 22.484C10.6905 22.3109 11.0641 21.6567 10.891 21.0228ZM9.49649 15.0014C10.1421 15.124 10.5661 15.7467 10.4435 16.3923C10.321 17.0378 9.69827 17.4618 9.05268 17.3393L5.60192 16.6842C4.95633 16.5617 4.53233 15.939 4.65488 15.2934C4.77743 14.6478 5.40013 14.2238 6.04572 14.3463L9.49649 15.0014ZM12.61 11.7729C13.0952 11.3298 13.1294 10.5772 12.6863 10.092L10.3178 7.49826C9.87474 7.01301 9.12217 6.97884 8.63692 7.42194C8.15167 7.86504 8.11751 8.61761 8.5606 9.10286L10.929 11.6966C11.3721 12.1818 12.1247 12.216 12.61 11.7729Z" fill="#559BE6"/>
</svg>
