<svg width="143" height="144" viewBox="0 0 143 144" fill="none" xmlns="http://www.w3.org/2000/svg">
<circle opacity="0.1" cx="71.5" cy="72" r="71.5" fill="#FF5752"/>
<path fill-rule="evenodd" clip-rule="evenodd" d="M108.466 72C108.466 92.4158 91.9158 108.966 71.5 108.966C51.0843 108.966 34.5341 92.4158 34.5341 72C34.5341 51.5843 51.0843 35.0341 71.5 35.0341C91.9158 35.0341 108.466 51.5843 108.466 72ZM66.8511 55.5809C66.8511 53.236 68.727 51.3601 71.0719 51.3601H71.6451C73.9901 51.3601 75.866 53.236 75.866 55.5809V71.3701C75.866 73.715 73.9901 75.5909 71.6451 75.5909H71.0719C68.727 75.5909 66.8511 73.715 66.8511 71.3701V55.5809ZM71.3845 91.5334C74.3026 91.5334 76.6996 89.1364 76.6996 86.2183C76.6996 83.3001 74.3026 80.9031 71.3845 80.9031C68.4663 80.9031 66.0693 83.3001 66.0693 86.2183C66.0693 89.1364 68.4663 91.5334 71.3845 91.5334Z" fill="#FF5752"/>
</svg>
