<svg width="22" height="22" viewBox="0 0 22 22" fill="none" xmlns="http://www.w3.org/2000/svg">
	<path fill-rule="evenodd" clip-rule="evenodd" d="M6.17465 6.26416C5.87517 6.26416 5.63574 6.5111 5.63574 6.81998L5.63653 13.7292C5.63653 14.0381 5.87596 14.2849 6.17544 14.2849H10.5282V15.0147L8.65015 16.9709C8.43021 17.1977 8.43021 17.5475 8.65015 17.7736C8.87009 18.0004 9.20935 18.0004 9.42846 17.7736L11.0858 16.0643L12.7432 17.7736C12.8429 17.8766 12.9825 17.9385 13.1425 17.9385C13.282 17.9385 13.4216 17.8766 13.5215 17.7736C13.7414 17.5467 13.7414 17.1969 13.5215 16.9709L11.645 15.0356V14.285H15.9977C16.2972 14.285 16.5366 14.0381 16.5366 13.7292V6.82012C16.5366 6.51124 16.2972 6.2643 15.9977 6.2643L6.17465 6.26416ZM8.00325 11.3113C7.78262 11.3113 7.58233 11.1509 7.58233 10.936C7.58233 10.7393 7.76228 10.5607 8.00325 10.5607H13.3905C13.6112 10.5607 13.8114 10.7211 13.8114 10.936C13.8114 11.1327 13.6314 11.3113 13.4109 11.3113H8.00325ZM7.58233 8.60007C7.58233 8.81494 7.78262 8.97538 8.00325 8.97538H13.4109C13.6314 8.97538 13.8114 8.7968 13.8114 8.60007C13.8114 8.3852 13.6112 8.22475 13.3905 8.22475H8.00325C7.76228 8.22475 7.58233 8.40334 7.58233 8.60007Z" fill="white"/>
</svg>