<svg width="24" height="24" viewBox="0 0 24 24" fill="none" xmlns="http://www.w3.org/2000/svg">
	<path fill-rule="evenodd" clip-rule="evenodd" d="M8.79774 3.02818C9.36056 3.04749 9.83486 3.45672 9.93954 4.01332L11.928 14.5859L14.0445 8.67208C14.2104 8.20851 14.6389 7.89226 15.1283 7.87229C15.6177 7.85233 16.0704 8.13262 16.2731 8.58116L17.9587 12.3115H20.1159C20.7808 12.3115 21.3198 12.8536 21.3198 13.5224C21.3198 14.1912 20.7808 14.7334 20.1159 14.7334H17.1835C16.7114 14.7334 16.2829 14.4558 16.0876 14.0235L15.3067 12.2954L12.6983 19.5837C12.5144 20.0975 12.0114 20.424 11.4703 20.3807C10.9291 20.3375 10.4837 19.9352 10.3828 19.3987L8.56952 9.75753L7.51388 13.8281C7.3756 14.3613 6.89685 14.7334 6.34903 14.7334H3.33945C2.67459 14.7334 2.13562 14.1912 2.13562 13.5224C2.13562 12.8536 2.67459 12.3115 3.33945 12.3115H5.41895L7.59185 3.93276C7.734 3.38462 8.23492 3.00886 8.79774 3.02818Z" fill="#ffffff"/>
</svg>