<svg width="12" height="17" viewBox="0 0 12 17" fill="none" xmlns="http://www.w3.org/2000/svg">
<path fill-rule="evenodd" clip-rule="evenodd" d="M10.1905 0.036377H1.80951C0.783731 0.036377 0 0.762976 0 1.71397V15.1588C0 16.0532 0.783731 16.8364 1.80951 16.8364H10.1905C11.2163 16.8364 12 16.0532 12 15.1588V1.71397C12 0.764019 11.2163 0.036377 10.1905 0.036377ZM5.99992 15.6894C5.36948 15.6894 4.85391 15.1861 4.85391 14.5706C4.85391 13.9552 5.36948 13.4519 5.99992 13.4519C6.63037 13.4519 7.14594 13.9552 7.14594 14.5706C7.14594 15.1861 6.63037 15.6894 5.99992 15.6894ZM10.0154 12.6401H1.98486V2.32031H10.0163L10.0154 12.6401Z" fill="#525C69"/>
</svg>
