<svg width="28" height="28" viewBox="0 0 28 28" fill="none" xmlns="http://www.w3.org/2000/svg">
	<path fill-rule="evenodd" clip-rule="evenodd" d="M18.976 19.7976H9.14034C9.05618 19.7976 8.97274 19.7944 8.89014 19.7882C6.66724 19.7365 4.88098 17.8784 4.88086 15.5939C4.88151 14.4804 5.31484 13.4129 6.08554 12.6259C6.48058 12.2226 6.94768 11.91 7.45588 11.7012C7.44738 11.5878 7.44305 11.4733 7.44305 11.3578C7.44374 10.1829 7.90099 9.05647 8.7142 8.22623C9.5274 7.39597 10.63 6.92995 11.7793 6.93066C13.2516 6.93251 14.5514 7.68509 15.3327 8.83376C15.7036 8.6994 16.1029 8.62638 16.5189 8.62661C18.3567 8.62887 19.8662 10.0609 20.0412 11.8923C21.8022 12.2848 23.12 13.8884 23.1184 15.8056C23.1166 18.0152 21.3634 19.8052 19.2018 19.8042C19.126 19.8042 19.0508 19.8019 18.976 19.7976Z" fill="#fff"/>
</svg>