<svg width="18" height="18" viewBox="0 0 18 18" fill="none" xmlns="http://www.w3.org/2000/svg">
	<path fill-rule="evenodd" clip-rule="evenodd" d="M3.54898 11.451C4.54923 13.6753 6.80069 15.0687 9.2376 14.9715C12.4705 14.9053 15.0387 12.2326 14.9758 8.99959C14.9757 6.56074 13.4936 4.36666 11.2312 3.45595C8.96877 2.54524 6.37994 3.10063 4.69016 4.85921C3.00039 6.6178 2.54873 9.22673 3.54898 11.451ZM4.94026 10.8254C5.68521 12.482 7.36203 13.5197 9.17696 13.4473C11.5848 13.3981 13.4974 11.4075 13.4506 8.99966C13.4505 7.18328 12.3467 5.5492 10.6617 4.87094C8.97674 4.19267 7.04866 4.6063 5.79018 5.91604C4.53169 7.22578 4.19531 9.16882 4.94026 10.8254ZM8.24374 5.99097H9.74374V8.24097H11.9937V9.74097H9.74374H8.24374V5.99097Z" fill="#A8ADB4"/>
</svg>