<svg width="11" height="18" viewBox="0 0 11 18" fill="none" xmlns="http://www.w3.org/2000/svg">
<path fill-rule="evenodd" clip-rule="evenodd" d="M0 2C0 0.89543 0.895431 0 2 0H8.42105C9.52562 0 10.4211 0.895431 10.4211 2V16C10.4211 17.1046 9.52562 18 8.42105 18H2C0.895431 18 0 17.1046 0 16V2ZM0.947368 1.94737C0.947368 1.39508 1.39508 0.947368 1.94737 0.947368H2.84211C2.84211 1.47059 3.26626 1.89474 3.78947 1.89474H6.63158C7.1548 1.89474 7.57895 1.47059 7.57895 0.947368H8.47368C9.02597 0.947368 9.47368 1.39508 9.47368 1.94737V16.0526C9.47368 16.6049 9.02597 17.0526 8.47368 17.0526H1.94737C1.39508 17.0526 0.947368 16.6049 0.947368 16.0526V1.94737Z" fill="#C1C5CA"/>
<path d="M1.79178 9.38289L7.13261 3.35997L5.89028 7.99642L8.2085 8.61758L2.86767 14.6405L4.11 10.0041L1.79178 9.38289Z" fill="#9DCF00"/>
</svg>
