<svg width="8" height="10" viewBox="0 0 8 10" fill="none" xmlns="http://www.w3.org/2000/svg">
<g opacity="0.4">
<path d="M7.09619 2.93115C7.2521 2.93115 7.38439 2.98552 7.49312 3.09426C7.60186 3.203 7.65625 3.33348 7.65625 3.48578V5.82408C7.65625 5.98019 7.60188 6.11236 7.49312 6.22111C7.38439 6.32985 7.2521 6.38424 7.09619 6.38424C6.9404 6.38424 6.80892 6.32987 6.70186 6.22111C6.59502 6.11237 6.54145 5.98019 6.54145 5.82408V3.48578C6.54145 3.33347 6.59582 3.203 6.70458 3.09426C6.81333 2.98552 6.9439 2.93115 7.09619 2.93115Z" fill="#525C69"/>
<path d="M2.59364 0.831935L2.20754 0.119682C2.1822 0.0725274 2.19121 0.0363682 2.23467 0.0109423C2.28184 -0.0109823 2.31808 0.000127259 2.34341 0.0434855L2.73491 0.761433C3.0794 0.609123 3.44376 0.532829 3.82798 0.532829C4.21228 0.532829 4.57667 0.609139 4.92103 0.761433L5.31255 0.0434855C5.33799 0.000127259 5.37423 -0.0108841 5.42129 0.0109423C5.46484 0.0364828 5.47386 0.0725274 5.44842 0.119682L5.0623 0.831935C5.45382 1.0316 5.76564 1.30966 5.99764 1.66674C6.22965 2.02401 6.3457 2.41443 6.3457 2.83869H1.31572C1.31572 2.41453 1.43179 2.02409 1.66378 1.66674C1.8958 1.30966 2.20582 1.0316 2.59364 0.831935ZM4.82591 1.86792C4.86766 1.90977 4.91753 1.9306 4.9755 1.9306C5.03358 1.9306 5.08244 1.90977 5.1223 1.86792C5.16215 1.82626 5.18208 1.77659 5.18208 1.71842C5.18208 1.66045 5.16215 1.61068 5.1223 1.56893C5.08244 1.52727 5.03347 1.50644 4.9755 1.50644C4.91753 1.50644 4.86766 1.52727 4.82591 1.56893C4.78425 1.61078 4.76332 1.66045 4.76332 1.71842C4.76344 1.77649 4.78435 1.82626 4.82591 1.86792ZM2.53387 1.86792C2.57381 1.90977 2.62278 1.9306 2.68065 1.9306C2.73875 1.9306 2.78861 1.90977 2.83028 1.86792C2.87202 1.82626 2.89285 1.77659 2.89285 1.71842C2.89285 1.66045 2.87202 1.61068 2.83028 1.56893C2.78861 1.52727 2.73875 1.50644 2.68065 1.50644C2.62268 1.50644 2.57383 1.52727 2.53387 1.56893C2.49398 1.61078 2.47409 1.66045 2.47409 1.71842C2.47409 1.77649 2.494 1.82626 2.53387 1.86792Z" fill="#525C69"/>
<path d="M6.32422 6.65589C6.32422 6.82281 6.26625 6.96411 6.15029 7.08006C6.03424 7.19602 5.89294 7.25399 5.72614 7.25399H5.32371L5.31819 8.48853C5.31819 8.64443 5.26382 8.77681 5.15508 8.88557C5.04634 8.99432 4.91576 9.04869 4.76357 9.04869C4.60776 9.04869 4.47539 8.99432 4.36663 8.88557C4.25788 8.77681 4.20351 8.64444 4.20351 8.48853V7.2541H3.4531V8.48853C3.4531 8.64443 3.39875 8.77681 3.28999 8.88557C3.18124 8.99432 3.04899 9.04869 2.89306 9.04869C2.73725 9.04869 2.60488 8.99432 2.49613 8.88557C2.38737 8.77681 2.33302 8.64444 2.33302 8.48853V7.2541H1.92515C1.76205 7.2541 1.62256 7.19611 1.5064 7.08016C1.39046 6.96421 1.33246 6.82291 1.33246 6.656V3.03418H6.32422V6.65589Z" fill="#525C69"/>
<path d="M0.559616 2.93115C0.711926 2.93115 0.842393 2.98472 0.951149 3.09156C1.05989 3.1986 1.11426 3.33008 1.11426 3.48578V5.82408C1.11426 5.98019 1.0599 6.11236 0.951149 6.22111C0.842393 6.32987 0.711828 6.38424 0.559616 6.38424C0.403804 6.38424 0.271439 6.32987 0.162683 6.22111C0.0539275 6.11236 -0.000425577 5.98019 -0.000425577 5.82408V3.48578C-0.000425577 3.33006 0.0539275 3.1986 0.162683 3.09156C0.271439 2.98472 0.403804 2.93115 0.559616 2.93115Z" fill="#525C69"/>
</g>
</svg>