<svg width="367" height="59" viewBox="0 0 367 59" fill="none" xmlns="http://www.w3.org/2000/svg">
<rect width="367" height="129" fill="#E0F7FE"/>
<g clip-path="url(#clip0)">
<path fill-rule="evenodd" clip-rule="evenodd" d="M194.545 43.2606C202.429 43.7708 208.924 37.8804 209.221 29.953C209.507 22.3097 203.987 16.19 196.41 15.7535C188.411 15.2913 181.93 21.0943 181.662 28.9584C181.408 36.4236 187.136 42.783 194.545 43.2606M133.704 43.2841C141.619 43.291 147.654 37.0685 147.494 29.0624C147.342 21.4653 141.441 15.717 133.788 15.7119C125.82 15.7051 119.692 21.9463 119.909 29.8481C120.111 37.3065 126.242 43.2773 133.704 43.2841M201.731 63.6905C195.099 80.7796 183.331 91.2542 164.529 91.261C145.757 91.2679 134.222 80.403 127.422 63.7984C124.849 64.5002 122.945 65.0377 121.032 65.5358C118.869 66.1007 116.476 66.1761 115.105 68.3552C122.979 92.9472 144.045 106.982 170.069 105C190.956 103.412 210.725 86.307 214.079 66.5458C211.783 65.7892 209.438 64.8802 207.018 64.2674C205.416 63.8651 203.706 63.8891 201.731 63.6905M164.788 129.697C122.446 129.8 88.5661 96.2532 88.2762 53.9371C87.9863 11.383 122.115 -23.1443 164.522 -23.194C206.701 -23.2453 241.479 11.5542 241.335 53.6632C241.193 95.5993 206.968 129.596 164.788 129.697M164.45 -37.0019C114.773 -36.9626 73.9112 3.97042 74.0158 53.5909C74.1205 103.126 115.303 144.09 164.834 143.932C214.53 143.773 255.33 102.819 255.211 53.2091C255.093 3.49967 214.307 -37.0379 164.45 -37.0019" fill="#F0FBFF"/>
<g filter="url(#filter0_d)">
<path fill-rule="evenodd" clip-rule="evenodd" d="M38 71C56.2254 71 71 56.2254 71 38C71 19.7746 56.2254 5 38 5C19.7746 5 5 19.7746 5 38C5 56.2254 19.7746 71 38 71Z" fill="white"/>
</g>
<path fill-rule="evenodd" clip-rule="evenodd" d="M37.9999 62.3021C50.9341 62.3021 61.4193 51.8169 61.4193 38.8827C61.4193 25.9486 50.9341 15.4634 37.9999 15.4634C25.0658 15.4634 14.5806 25.9486 14.5806 38.8827C14.5806 51.8169 25.0658 62.3021 37.9999 62.3021Z" fill="#BADA0B"/>
<path fill-rule="evenodd" clip-rule="evenodd" d="M42.7352 37.5249C43.9318 37.6025 44.9176 36.7071 44.9626 35.502C45.0061 34.3402 44.1683 33.4099 43.0182 33.3436C41.8041 33.2733 40.8205 34.1554 40.7799 35.3508C40.7413 36.4856 41.6107 37.4523 42.7352 37.5249M33.5008 37.5286C34.7022 37.5296 35.6181 36.5837 35.5939 35.3667C35.5707 34.2119 34.6751 33.3381 33.5136 33.3373C32.3042 33.3362 31.3742 34.285 31.407 35.4861C31.4377 36.6199 32.3683 37.5275 33.5008 37.5286M43.8259 40.6306C42.8193 43.2283 41.0332 44.8206 38.1793 44.8216C35.3302 44.8227 33.5795 43.1711 32.5474 40.647C32.1568 40.7537 31.8678 40.8354 31.5775 40.9111C31.2492 40.997 30.886 41.0084 30.678 41.3397C31.873 45.0779 35.0703 47.2114 39.0203 46.9101C42.1905 46.6686 45.191 44.0686 45.7 41.0646C45.3516 40.9496 44.9957 40.8114 44.6283 40.7183C44.3851 40.6571 44.1256 40.6608 43.8259 40.6306M38.2187 50.6642C31.7921 50.6799 26.6499 45.5804 26.6059 39.1479C26.5619 32.6792 31.7418 27.4307 38.1783 27.4231C44.5802 27.4153 49.8588 32.7052 49.8369 39.1063C49.8153 45.481 44.6208 50.6489 38.2187 50.6642M38.1674 25.3242C30.6274 25.3302 24.4256 31.5525 24.4414 39.0953C24.4573 46.6252 30.7079 52.8521 38.2257 52.8282C45.7685 52.804 51.961 46.5786 51.943 39.0373C51.925 31.4809 45.7346 25.3188 38.1674 25.3242" fill="white"/>
</g>
<defs>
<filter id="filter0_d" x="3" y="4" width="70" height="70" filterUnits="userSpaceOnUse" color-interpolation-filters="sRGB">
<feFlood flood-opacity="0" result="BackgroundImageFix"/>
<feColorMatrix in="SourceAlpha" type="matrix" values="0 0 0 0 0 0 0 0 0 0 0 0 0 0 0 0 0 0 127 0"/>
<feOffset dy="1"/>
<feGaussianBlur stdDeviation="1"/>
<feColorMatrix type="matrix" values="0 0 0 0 0 0 0 0 0 0 0 0 0 0 0 0 0 0 0.06 0"/>
<feBlend mode="normal" in2="BackgroundImageFix" result="effect1_dropShadow"/>
<feBlend mode="normal" in="SourceGraphic" in2="effect1_dropShadow" result="shape"/>
</filter>
<clipPath id="clip0">
<rect width="367" height="129" fill="white"/>
</clipPath>
</defs>
</svg>
