<svg xmlns="http://www.w3.org/2000/svg" width="112" height="547" viewBox="0 0 112 547" xmlns:xlink="http://www.w3.org/1999/xlink">
  <defs>
    <rect id="a" width="112" height="182"/>
    <rect id="c" width="514" height="38" rx="2"/>
    <rect id="e" width="514" height="38" rx="2"/>
    <rect id="g" width="514" height="38" rx="2"/>
    <rect id="i" width="112" height="182"/>
    <rect id="k" width="514" height="38" rx="2"/>
    <rect id="m" width="514" height="38" rx="2"/>
    <rect id="o" width="514" height="38" rx="2"/>
    <rect id="q" width="112" height="182"/>
    <rect id="s" width="514" height="38" rx="2"/>
    <rect id="u" width="514" height="38" rx="2"/>
  </defs>
  <g fill="none" fill-rule="evenodd">
    <rect width="112" height="182" fill="#FFFFFF"/>
    <rect width="112" height="182" fill="#FFFFFF"/>
    <mask id="b" fill="white">
      <use xlink:href="#a"/>
    </mask>
    <g transform="translate(18 17)" mask="url(#b)">
      <g>
        <rect width="551" height="215" fill="#000000"/>
        <rect width="551" height="215" fill="#FFFFFF"/>
      </g>
      <g transform="translate(19 39)">
        <mask id="d" fill="white">
          <use xlink:href="#c"/>
        </mask>
        <rect width="514" height="38" fill="#FFFFFF" stroke="#C6CDD3" stroke-width="2" rx="2" mask="url(#d)"/>
      </g>
      <g transform="translate(19 115)">
        <mask id="f" fill="white">
          <use xlink:href="#e"/>
        </mask>
        <rect width="514" height="38" fill="#FFFFFF" stroke="#C6CDD3" stroke-width="2" rx="2" mask="url(#f)"/>
      </g>
      <g transform="translate(19 170)">
        <mask id="h" fill="white">
          <use xlink:href="#g"/>
        </mask>
        <rect width="514" height="38" fill="#FFFFFF" stroke="#C6CDD3" stroke-width="2" rx="2" mask="url(#h)"/>
      </g>
      <rect width="143" height="9" x="19" y="19" fill="#80868E" opacity=".5" rx="4"/>
      <rect width="143" height="9" x="19" y="98" fill="#80868E" opacity=".5" rx="4"/>
    </g>
    <g transform="translate(0 182)">
      <rect width="112" height="182" fill="#FFFFFF"/>
      <rect width="112" height="182" fill="#347085"/>
      <mask id="j" fill="white">
        <use xlink:href="#i"/>
      </mask>
      <g transform="translate(16 17)" mask="url(#j)">
        <g opacity=".798">
          <rect width="551" height="215" fill="#000000"/>
          <rect width="551" height="215" fill="#FFFFFF"/>
        </g>
        <g transform="translate(16 34)">
          <mask id="l" fill="white">
            <use xlink:href="#k"/>
          </mask>
          <rect width="514" height="38" fill="#FFFFFF" stroke="#C6CDD3" stroke-width="2" rx="2" mask="url(#l)"/>
        </g>
        <g transform="translate(16 110)">
          <mask id="n" fill="white">
            <use xlink:href="#m"/>
          </mask>
          <rect width="514" height="38" fill="#FFFFFF" stroke="#C6CDD3" stroke-width="2" rx="2" mask="url(#n)"/>
        </g>
        <g transform="translate(16 165)">
          <mask id="p" fill="white">
            <use xlink:href="#o"/>
          </mask>
          <rect width="514" height="38" fill="#FFFFFF" stroke="#C6CDD3" stroke-width="2" rx="2" mask="url(#p)"/>
        </g>
        <rect width="138" height="9" x="16" y="14" fill="#80868E" opacity=".5" rx="4"/>
        <rect width="138" height="9" x="16" y="93" fill="#80868E" opacity=".5" rx="4"/>
      </g>
    </g>
    <g transform="translate(0 364)">
      <rect width="112" height="182" fill="#FFFFFF"/>
      <rect width="112" height="182" fill="#E6E6E6" fill-opacity=".22"/>
      <mask id="r" fill="white">
        <use xlink:href="#q"/>
      </mask>
      <g transform="translate(15 14)" mask="url(#r)">
        <rect width="551" height="215" fill="#000000"/>
        <rect width="551" height="215" fill="#FFFFFF"/>
        <g transform="translate(16 72)">
          <mask id="t" fill="white">
            <use xlink:href="#s"/>
          </mask>
          <rect width="514" height="38" fill="#FFFFFF" stroke="#C6CDD3" stroke-width="2" rx="2" mask="url(#t)"/>
        </g>
        <g transform="translate(16 147)">
          <mask id="v" fill="white">
            <use xlink:href="#u"/>
          </mask>
          <rect width="514" height="38" fill="#FFFFFF" stroke="#C6CDD3" stroke-width="2" rx="2" mask="url(#v)"/>
        </g>
        <rect width="555" height="38" fill="#3CA1CF"/>
        <rect width="124" height="9" x="16" y="54" fill="#80868E" opacity=".5" rx="4"/>
        <rect width="124" height="9" x="16" y="14" fill="#FFFFFF" opacity=".5" rx="4"/>
        <rect width="124" height="9" x="16" y="129" fill="#80868E" opacity=".5" rx="4"/>
      </g>
    </g>
  </g>
</svg>
