<svg width="24" height="25" viewBox="0 0 24 25" fill="none" xmlns="http://www.w3.org/2000/svg">
<path fill-rule="evenodd" clip-rule="evenodd" d="M6.23306 6.58841C6.24169 6.58806 6.25035 6.58789 6.25906 6.58789H15.7541C16.3475 6.58789 16.8285 7.06892 16.8285 7.6623V9.08136H17.4073C17.9894 9.08136 18.5466 9.31748 18.9514 9.73572L21.0772 11.9321C21.2712 12.1325 21.3796 12.4004 21.3796 12.6793V16.532C21.3796 16.888 21.091 17.1766 20.735 17.1766H19.3522C19.357 17.2318 19.3594 17.2876 19.3594 17.3439C19.3594 18.4085 18.4964 19.2715 17.4318 19.2715C16.3672 19.2715 15.5042 18.4085 15.5042 17.3439C15.5042 17.2909 15.5064 17.2383 15.5106 17.1863H11.4383C11.4425 17.2383 11.4447 17.2909 11.4447 17.3439C11.4447 18.4085 10.5816 19.2715 9.51707 19.2715C8.4525 19.2715 7.58949 18.4085 7.58949 17.3439C7.58949 17.2909 7.59163 17.2383 7.59584 17.1863H6.25906C5.90303 17.1863 5.61441 16.8977 5.61441 16.5417V11.2769H4.0653C3.57773 11.2769 3.18248 10.8817 3.18248 10.3941C3.18248 9.90652 3.57773 9.51127 4.0653 9.51127H5.61441V8.35406H2.83204C2.34447 8.35406 1.94922 7.9588 1.94922 7.47123C1.94922 6.98366 2.34447 6.58841 2.83204 6.58841H6.23306ZM16.8424 10.9976C16.8424 10.8789 16.9386 10.7827 17.0573 10.7827H18.0448C18.16 10.7827 18.2703 10.829 18.3511 10.9111L19.7304 12.3126C19.8095 12.393 19.8538 12.5012 19.8538 12.614V13.2078C19.8538 13.3265 19.7576 13.4227 19.639 13.4227H17.0573C16.9386 13.4227 16.8424 13.3265 16.8424 13.2078V10.9976ZM10.5723 13.9885C10.6972 14.1012 10.8878 14.099 11.0099 13.9833L13.9767 11.174C14.154 11.0062 14.156 10.7246 13.9812 10.5542L13.7515 10.3303C13.5868 10.1699 13.3251 10.1674 13.1575 10.3246L10.7935 12.5423L9.92868 11.8065C9.75972 11.6627 9.50911 11.6712 9.35024 11.826L9.11422 12.056C8.93651 12.2292 8.94199 12.5165 9.12617 12.6828L10.5723 13.9885Z" fill="#525C69"/>
</svg>
