<svg width="160" height="143" viewBox="0 0 160 143" fill="none" xmlns="http://www.w3.org/2000/svg">
<g clip-path="url(#clip0_2021_138547)">
<g clip-path="url(#clip1_2021_138547)">
<path opacity="0.5" fill-rule="evenodd" clip-rule="evenodd" d="M107.71 143.922H-8.48627C-9.46459 143.922 -10.4345 143.884 -11.3947 143.81C-37.2344 143.2 -57.9987 121.261 -58 94.2878C-57.9925 81.141 -52.9552 68.5358 -43.9964 59.2451C-39.4042 54.4829 -33.9745 50.7914 -28.067 48.3254C-28.1659 46.9876 -28.2162 45.6357 -28.2162 44.2716C-28.2081 30.3999 -22.8928 17.0996 -13.4398 7.29681C-3.98683 -2.50602 8.82962 -8.00845 22.1901 -7.99999C39.3044 -7.97832 58.1405 0.907499 67.2212 14.47C71.5335 12.8837 76.1755 12.0215 81.0117 12.0241C102.375 12.0508 119.922 28.9594 121.956 50.5827C142.426 55.2162 154.018 74.1503 154 96.7883C153.979 122.877 135.462 144.011 110.335 144C109.454 144 108.579 143.973 107.71 143.922Z" fill="#C3F0FF"/>
<path opacity="0.3" fill-rule="evenodd" clip-rule="evenodd" d="M13.7757 25.4858C13.7757 23.5608 15.4605 22 17.5387 22C19.0497 22 20.3432 22.8304 20.9427 24.0215C21.4226 23.8584 21.9335 23.7551 22.4744 23.7551C24.8691 23.7551 26.807 25.5069 26.9175 27.6994C27.0096 27.6927 27.0993 27.6739 27.1937 27.6739C29.1385 27.6739 30.7139 29.137 30.7139 30.9421C30.7139 32.7483 29.1385 34.2114 27.1937 34.2114C26.8818 34.2114 25.8323 34.2114 25.5803 34.2114H16.0773C15.8816 34.2114 14.9829 34.2114 14.7067 34.2114C12.1071 34.2114 10.0001 32.2643 10.0001 29.8608C10.0001 27.7494 11.6284 25.992 13.7884 25.5968C13.7873 25.5591 13.7757 25.5236 13.7757 25.4858Z" fill="white"/>
<path opacity="0.45" fill-rule="evenodd" clip-rule="evenodd" d="M131.86 120.639C131.86 119.182 130.581 118 129.003 118C127.856 118 126.874 118.629 126.419 119.53C126.054 119.407 125.666 119.329 125.256 119.329C123.438 119.329 121.966 120.655 121.882 122.315C121.812 122.31 121.744 122.296 121.673 122.296C120.196 122.296 119 123.403 119 124.77C119 126.137 120.196 127.245 121.673 127.245C121.909 127.245 122.706 127.245 122.898 127.245H130.113C130.261 127.245 130.943 127.245 131.153 127.245C133.127 127.245 134.727 125.771 134.727 123.951C134.727 122.353 133.49 121.022 131.85 120.723C131.851 120.694 131.86 120.668 131.86 120.639Z" fill="white"/>
</g>
<g filter="url(#filter0_d_2021_138547)">
<g opacity="0.7">
<path d="M23.5991 44.9648C23.5991 42.2034 25.8377 39.9648 28.5991 39.9648H68.1482C70.9096 39.9648 73.1482 42.2034 73.1482 44.9648V103.236C73.1482 105.997 70.9096 108.236 68.1482 108.236H28.5991C25.8377 108.236 23.5991 105.997 23.5991 103.236V44.9648Z" fill="white"/>
<rect x="29.021" y="49.9609" width="20.7967" height="2.9259" rx="1.40398" fill="#525C69" fill-opacity="0.1"/>
<rect x="29.021" y="59.3125" width="35.3544" height="2.9259" rx="1.40398" fill="#525C69" fill-opacity="0.1"/>
<rect x="29.021" y="66.5078" width="35.3544" height="2.9259" rx="1.40398" fill="#525C69" fill-opacity="0.1"/>
<rect x="29.021" y="73.707" width="22.3869" height="2.9259" rx="1.40398" fill="#525C69" fill-opacity="0.1"/>
<rect x="29.021" y="97.2969" width="22.3869" height="2.9259" rx="1.40398" fill="#525C69" fill-opacity="0.1"/>
</g>
<g opacity="0.7">
<path d="M53.7881 44.9648C53.7881 42.2034 56.0267 39.9648 58.7881 39.9648H98.3372C101.099 39.9648 103.337 42.2034 103.337 44.9648V103.236C103.337 105.997 101.099 108.236 98.3372 108.236H58.7881C56.0267 108.236 53.7881 105.997 53.7881 103.236V44.9648Z" fill="white"/>
</g>
<path d="M34.4639 40.0273C34.4639 37.2659 36.7024 35.0273 39.4639 35.0273H87.4725C90.234 35.0273 92.4725 37.2659 92.4725 40.0273V109.043C92.4725 111.804 90.234 114.043 87.4725 114.043H39.4639C36.7024 114.043 34.4639 111.804 34.4639 109.043V40.0273Z" fill="white"/>
<path opacity="0.4" fill-rule="evenodd" clip-rule="evenodd" d="M46.7601 96.7887L43.0241 104.966C42.8142 105.425 42.2795 105.624 41.8298 105.409C41.3801 105.195 41.1857 104.649 41.3956 104.189L47.5423 90.7356C47.9939 89.7471 49.4538 90.1855 49.3097 91.2665L48.0265 100.896C47.9328 101.599 48.804 101.983 49.2401 101.431L50.5098 99.8226C51.6883 98.3303 54.0449 99.3229 53.8513 101.23C53.8488 101.255 53.8512 101.268 53.8524 101.273C53.8536 101.279 53.8553 101.282 53.8576 101.286C53.8631 101.295 53.8779 101.311 53.9053 101.322C53.9327 101.334 53.9543 101.333 53.9641 101.33C53.9683 101.329 53.9721 101.328 53.9766 101.325C53.9808 101.322 53.9917 101.314 54.0068 101.295L56.342 98.2829C56.328 98.0143 56.3388 97.7362 56.3769 97.4502L56.8861 93.6288C57.1402 91.722 59.434 90.9534 60.7442 92.3361C61.5315 93.1669 61.5947 94.465 60.8919 95.3715L58.2522 98.7762C58.7452 100.266 60.6836 100.958 61.982 99.7401L64.6526 97.3949C65.0181 97.052 65.5866 97.0768 65.9222 97.4502C66.2579 97.8237 66.2337 98.4044 65.8681 98.7473L63.1975 101.093C61.1911 102.975 58.3277 102.299 57.0267 100.357L55.4156 102.435C54.2448 103.945 51.8691 102.957 52.0637 101.041C52.0661 101.016 52.0638 101.003 52.0626 100.998C52.0613 100.993 52.0596 100.989 52.0573 100.985C52.0518 100.976 52.0371 100.96 52.01 100.949C51.9829 100.938 51.9614 100.938 51.9515 100.941C51.9473 100.942 51.9434 100.943 51.9389 100.946C51.9346 100.949 51.9237 100.956 51.9086 100.975L50.6389 102.583C49.0601 104.583 45.9066 103.194 46.2458 100.648L46.7601 96.7887ZM58.4404 95.5764L59.483 94.2316C59.6262 94.0469 59.6134 93.7824 59.4529 93.6131C59.186 93.3314 58.7186 93.488 58.6669 93.8765L58.4404 95.5764Z" fill="#9DCF00" stroke="#9DCF00" stroke-width="0.2" stroke-linecap="round"/>
<rect opacity="0.5" x="41.7148" y="46.1406" width="24.1703" height="3.38366" rx="1.40398" fill="#BDC1C6"/>
<rect x="41.7148" y="56.9531" width="41.0895" height="3.38366" rx="1.40398" fill="#525C69" fill-opacity="0.1"/>
<rect x="41.7148" y="65.2773" width="41.0895" height="3.38367" rx="1.40398" fill="#525C69" fill-opacity="0.1"/>
<rect x="41.7148" y="73.5977" width="26.0185" height="3.38367" rx="1.40398" fill="#525C69" fill-opacity="0.1"/>
</g>
<g filter="url(#filter1_d_2021_138547)">
<ellipse cx="93.0037" cy="101.953" rx="18.1277" ry="18.5193" fill="#2FC6F6"/>
</g>
<path d="M91.1245 92.6954C91.1245 92.3545 91.395 92.0781 91.7288 92.0781H94.32C94.6537 92.0781 94.9243 92.3545 94.9243 92.6954V98.5479H99.0528C99.3842 98.5479 99.5419 98.9646 99.2967 99.1923L93.8373 104.263C93.3764 104.691 92.6724 104.691 92.2115 104.263L86.7521 99.1923C86.5069 98.9646 86.6646 98.5479 86.996 98.5479H91.1245V92.6954Z" fill="white"/>
<path d="M86.3569 108.76C86.3569 108.419 86.6275 108.142 86.9612 108.142H99.0526C99.3863 108.142 99.6569 108.419 99.6569 108.76V109.994C99.6569 110.335 99.3863 110.612 99.0526 110.612H86.9612C86.6275 110.612 86.3569 110.335 86.3569 109.994V108.76Z" fill="white"/>
</g>
<defs>
<filter id="filter0_d_2021_138547" x="16.5247" y="30.3111" width="93.8866" height="93.1644" filterUnits="userSpaceOnUse" color-interpolation-filters="sRGB">
<feFlood flood-opacity="0" result="BackgroundImageFix"/>
<feColorMatrix in="SourceAlpha" type="matrix" values="0 0 0 0 0 0 0 0 0 0 0 0 0 0 0 0 0 0 127 0" result="hardAlpha"/>
<feOffset dy="2.35813"/>
<feGaussianBlur stdDeviation="3.5372"/>
<feComposite in2="hardAlpha" operator="out"/>
<feColorMatrix type="matrix" values="0 0 0 0 0.423529 0 0 0 0 0.423529 0 0 0 0 0.423529 0 0 0 0.12 0"/>
<feBlend mode="normal" in2="BackgroundImageFix" result="effect1_dropShadow_2021_138547"/>
<feBlend mode="normal" in="SourceGraphic" in2="effect1_dropShadow_2021_138547" result="shape"/>
</filter>
<filter id="filter1_d_2021_138547" x="72.876" y="83.4336" width="40.2554" height="41.0391" filterUnits="userSpaceOnUse" color-interpolation-filters="sRGB">
<feFlood flood-opacity="0" result="BackgroundImageFix"/>
<feColorMatrix in="SourceAlpha" type="matrix" values="0 0 0 0 0 0 0 0 0 0 0 0 0 0 0 0 0 0 127 0" result="hardAlpha"/>
<feOffset dy="2"/>
<feGaussianBlur stdDeviation="1"/>
<feComposite in2="hardAlpha" operator="out"/>
<feColorMatrix type="matrix" values="0 0 0 0 0 0 0 0 0 0 0 0 0 0 0 0 0 0 0.05 0"/>
<feBlend mode="normal" in2="BackgroundImageFix" result="effect1_dropShadow_2021_138547"/>
<feBlend mode="normal" in="SourceGraphic" in2="effect1_dropShadow_2021_138547" result="shape"/>
</filter>
<clipPath id="clip0_2021_138547">
<rect width="160" height="143" fill="white"/>
</clipPath>
<clipPath id="clip1_2021_138547">
<rect width="212.96" height="152.65" fill="white" transform="translate(-58.96 -7.89453)"/>
</clipPath>
</defs>
</svg>
