<svg xmlns="http://www.w3.org/2000/svg" width="32" height="106" viewBox="0 0 32 106">
    <g fill="none" fill-rule="evenodd">
        <path fill="#FFFFFF" d="M3.00296289,0 L6.45158257,0 C8.11007317,0 9.88566711,1.27447214 10.4190383,2.85121205 L28,54.8236559 L10.4780461,103.175641 C9.9127823,104.735491 8.10198689,106 6.45158257,106 L3.00296289,106 C1.34447228,106 0,104.659768 0,102.998374 L0,3.00162636 C0,1.3438739 1.35255857,0 3.00296289,0 Z"/>
        <path fill="#4FC3F7" d="M2,102.998374 C2,103.553366 2.44720792,104 3.00296289,104 L6.45158257,104 C7.26337063,104 8.32034334,103.259615 8.5977037,102.494236 L26.1196576,54.1422512 L26.1054606,55.4645306 L8.52449887,3.49208676 C8.2660052,2.72793358 7.2527045,2 6.45158257,2 L3.00296289,2 C2.45330532,2 2,2.45226235 2,3.00162636 L2,102.998374 Z M3.00296289,0 L6.45158257,0 C8.11007317,0 9.88566711,1.27447214 10.4190383,2.85121205 L28,54.8236559 L10.4780461,103.175641 C9.9127823,104.735491 8.10198689,106 6.45158257,106 L3.00296289,106 C1.34447228,106 0,104.659768 0,102.998374 L0,3.00162636 C0,1.3438739 1.35255857,0 3.00296289,0 Z"/>
        <path fill="#FFFFFF" d="M6.45158257,106 C8.10198689,106 9.9127823,104.735491 10.4780461,103.175641 L28,54.8236559 L10.4190383,2.85121205 C9.88566711,1.27447214 8.11007317,-2.13162821e-14 6.45158257,-2.13162821e-14 L6.45158257,106 Z M6.45158257,-1.3500312e-13 C6.45158257,-1.3500312e-13 7.73471487,1.222896e-15 10,-5.04870979e-29 C12,-5.04870979e-29 13.1127455,1.4520845 13.2608474,1.88989998 L30.8418091,53.8623438 L31.178541,54.8577832 L30.8205136,55.8457631 L13.2985597,104.197748 C13.0749888,104.814694 12,106 11,106 C10,106 8.7116706,106 6.45158257,106 L6.45158257,-1.3500312e-13 Z"/>
        <polygon fill="#4FC3F7" points="21 38 8.627 1 1 1 1 38"/>
    </g>
</svg>
