<svg xmlns="http://www.w3.org/2000/svg" width="22" height="106" viewBox="0 0 22 106">
    <g fill="#F7D623" fill-rule="evenodd">
        <rect width="20" height="37" x="1" y="1"/>
        <path d="M2,102.998374 C2,103.553784 2.03647881,104 2.08173598,104 L19.89063,104 C19.9356681,104 19.9723659,103.550925 19.9723659,102.998374 L19.9723659,3.00162636 C19.9723659,2.44621568 19.9358871,2 19.89063,2 L2.08173598,2 C2.0366978,2 2,2.44907488 2,3.00162636 L2,102.998374 Z M3.00015945,0 L18.9722065,0 C20.6291488,0 21.9723659,1.34023166 21.9723659,3.00162636 L21.9723659,102.998374 C21.9723659,104.656126 20.6272526,106 18.9722065,106 L3.00015945,106 C1.34321714,106 0,104.659768 0,102.998374 L0,3.00162636 C0,1.3438739 1.34511333,0 3.00015945,0 Z"/>
    </g>
</svg>
