<svg xmlns="http://www.w3.org/2000/svg" width="10" height="10" viewBox="0 0 10 10">
  <path fill="#525C68" fill-rule="evenodd" d="M103.84683,129.411338 C103.695743,130.121606 103.137194,130.680172 102.426948,130.831219 C101.072831,131.119212 99.8965184,129.942515 100.184561,128.588647 C100.320774,127.948453 100.964078,127.305086 101.604253,127.168839 C102.958108,126.880671 104.134886,128.057107 103.84683,129.411338 M106.634086,128.271853 L105.64351,128.106587 L105.64351,128.106587 C105.573133,127.818871 105.47125,127.543554 105.339009,127.286196 C105.33345,127.275368 105.334745,127.262343 105.342385,127.252869 L105.963962,126.482147 C106.098836,126.315964 106.09271,126.07687 105.950515,125.916494 L105.556543,125.473088 C105.413737,125.312872 105.176921,125.278992 104.996277,125.393118 L104.149134,125.925662 L104.149134,125.925662 C103.781881,125.669075 103.366575,125.478618 102.918758,125.366398 C102.906883,125.363415 102.897875,125.353722 102.895852,125.341629 L102.733443,124.365605 C102.698662,124.154729 102.516171,124 102.301969,124 L101.708261,124 C101.494482,124 101.311379,124.154729 101.277369,124.365605 L101.114059,125.341992 C101.112036,125.354057 101.103042,125.36372 101.091182,125.366689 C100.728775,125.457516 100.388372,125.600864 100.07655,125.78828 C100.066043,125.794596 100.052844,125.794131 100.042861,125.787 L99.2536367,125.223748 C99.080008,125.099697 98.8415178,125.119096 98.6899947,125.270304 L98.2705557,125.690046 C98.1193528,125.841574 98.099954,126.080072 98.2243362,126.253706 L98.7889097,127.044511 C98.7960259,127.05448 98.7965207,127.06768 98.7902194,127.078187 C98.6046284,127.387602 98.4627683,127.725978 98.372032,128.085092 C98.3690341,128.096953 98.3593711,128.105918 98.3473214,128.107926 L97.3655793,128.271868 C97.1550303,128.306636 97,128.489147 97,128.70337 L97,129.29663 C97,129.510838 97.1550303,129.693364 97.3655793,129.728132 L98.3472923,129.892059 C98.3593565,129.894082 98.3690341,129.903061 98.3720174,129.914937 C98.4458289,130.208125 98.5509579,130.488579 98.6891652,130.749649 C98.6949281,130.760535 98.6937057,130.773764 98.6859636,130.783354 L98.0674578,131.549404 C97.9330487,131.715427 97.9386951,131.954681 98.0808899,132.114912 L98.474556,132.558333 C98.6173765,132.71884 98.8543242,132.752108 99.0349819,132.638273 L99.8773379,132.109105 C99.8876703,132.102614 99.900826,132.102876 99.9109256,132.109716 C100.270451,132.352682 100.676021,132.531599 101.110741,132.638273 L101.110741,132.638273 L101.277384,133.634366 C101.311394,133.845256 101.494482,134 101.708261,134 L102.301969,134 C102.516186,134 102.698662,133.845271 102.733443,133.63438 L102.896128,132.658168 C102.898151,132.646088 102.907159,132.636411 102.919034,132.633442 C103.276755,132.543867 103.612734,132.40305 103.921616,132.218938 C103.932123,132.21268 103.945279,132.213175 103.955218,132.220277 L104.778074,132.807978 C104.951397,132.932481 105.190062,132.91295 105.341425,132.761262 L105.761038,132.34165 C105.912067,132.190588 105.932513,131.952222 105.807098,131.778268 L105.221321,130.956959 C105.214205,130.94699 105.213724,130.933805 105.220026,130.923312 C105.40617,130.612849 105.548787,130.273818 105.639014,129.913088 C105.641982,129.901213 105.65166,129.892205 105.663724,129.890182 L106.634421,129.728103 C106.845595,129.693321 107,129.510809 107,129.296601 L107,128.703341 C106.99968,128.489147 106.845275,128.306636 106.634086,128.271853" transform="translate(-97 -124)" opacity=".3"/>
</svg>
