<svg width="16" height="16" xmlns="http://www.w3.org/2000/svg">
	<path fill="#FFF" d="M7.955 15.491a7.493 7.493 0 1 1 0-14.986 7.493 7.493 0 0 1 0 14.986zM6.819 9.598h1.669v-.375c0-.25.053-.452.16-.606.107-.154.362-.38.765-.675.588-.416.987-.791 1.197-1.124.21-.334.315-.73.315-1.188 0-.687-.255-1.237-.765-1.649-.51-.412-1.198-.618-2.063-.618-1.05 0-2.042.26-2.978.78l.686 1.369c.806-.408 1.524-.613 2.154-.613.36 0 .642.071.844.213.201.142.302.348.302.618 0 .242-.07.46-.211.656-.14.196-.431.45-.872.763-.458.333-.773.647-.945.943a2.037 2.037 0 0 0-.258 1.043v.463zm-.201 2.137c0 .337.096.598.29.784.192.185.465.278.818.278.344 0 .613-.095.806-.285.193-.19.29-.448.29-.777 0-.342-.096-.604-.287-.788-.191-.183-.46-.275-.81-.275-.36 0-.635.09-.824.27-.189.178-.283.443-.283.793z"/>
</svg>