<svg xmlns="http://www.w3.org/2000/svg" width="47.188" height="54.063" viewBox="0 0 47.188 54.063"><defs><style>.cls-1 { fill: #fff; fill-rule: evenodd; }</style></defs><path id="Shape_2_copy_4" data-name="Shape 2 copy 4" class="cls-1" d="M47.18 54.062c0-3.217-3.61-16.826-3.61-16.826 0-1.99-2.6-4.26-7.72-5.585a17.394 17.394 0 0 1-4.887-2.223c-.33-.188-.28-1.925-.28-1.925l-1.648-.25c0-.142-.14-2.225-.14-2.225 1.972-.663 1.77-4.574 1.77-4.574 1.252.695 2.068-2.4 2.068-2.4 1.482-4.3-.738-4.04-.738-4.04a27.05 27.05 0 0 0 0-7.918c-.987-8.708-15.847-6.344-14.085-3.5-4.343-.8-3.352 9.082-3.352 9.082l.942 2.56c-1.85 1.2-.564 2.65-.5 4.32.09 2.466 1.6 1.955 1.6 1.955.093 4.07 2.1 4.6 2.1 4.6.377 2.556.142 2.12.142 2.12l-1.786.217a7.1 7.1 0 0 1-.14 1.732c-2.1.936-2.553 1.485-4.64 2.4-4.032 1.767-8.414 4.065-9.193 7.16S-.012 54.06-.012 54.06h47.19z"/></svg>