<svg width="385" height="157" viewBox="0 0 385 157" fill="none" xmlns="http://www.w3.org/2000/svg">
<path d="M1 96.949C1 96.949 102 13.8026 170 48.3026C238 82.8026 143.721 154.921 109 102.303C60.5 28.8026 278.76 -20.8841 383 74.9489" stroke="#2FC6F6" stroke-width="2" stroke-dasharray="4 6"/>
<path d="M383.291 67.0001V75.1418H376" stroke="#2FC6F6" stroke-width="2" stroke-linecap="round" stroke-linejoin="round"/>
<mask id="path-3-outside-1" maskUnits="userSpaceOnUse" x="11.6958" y="50.5553" width="40.5726" height="40.5726" fill="black">
<rect fill="white" x="11.6958" y="50.5553" width="40.5726" height="40.5726"/>
<path fill-rule="evenodd" clip-rule="evenodd" d="M22.7291 63.3032C19.6314 64.95 18.4498 68.819 20.0962 71.916L24.4439 80.0949C26.0904 83.1919 29.9595 84.3748 33.0572 82.7281L41.2369 78.3793C44.3326 76.7326 45.5162 72.8636 43.8697 69.7665L39.5201 61.5876C37.8736 58.4907 34.0044 57.3077 30.9087 58.9545L22.7291 63.3032ZM23.8169 65.348L31.9966 60.9991C33.9966 59.9359 36.4126 60.675 37.4771 62.6748L41.8248 70.8537C42.8892 72.8535 42.149 75.2712 40.149 76.3346L31.9712 80.6833C29.9712 81.7466 27.5533 81.0075 26.4908 79.0077L22.1412 70.8288C21.0787 68.829 21.8169 66.4113 23.8169 65.348ZM33.3541 63.5551C33.0533 62.99 33.2681 62.2896 33.8326 61.9891C34.399 61.6887 35.0982 61.9028 35.399 62.4679C35.6998 63.033 35.4849 63.7334 34.9205 64.0338C34.356 64.3343 33.6548 64.1202 33.3541 63.5551ZM29.1294 65.4739C26.1783 67.0436 25.0455 70.7429 26.6158 73.6951C28.1861 76.6474 31.8853 77.7784 34.8365 76.2087C37.7896 74.6389 38.9205 70.9396 37.3501 67.9874C35.7818 65.0351 32.0826 63.9041 29.1294 65.4739ZM35.3052 69.0746C34.3228 67.2275 32.063 66.5365 30.2154 67.5186C28.3697 68.5007 27.6783 70.7609 28.6607 72.608C29.6412 74.455 31.9029 75.146 33.7486 74.1639C35.5962 73.1818 36.2876 70.9216 35.3052 69.0746Z"/>
</mask>
<path fill-rule="evenodd" clip-rule="evenodd" d="M22.7291 63.3032C19.6314 64.95 18.4498 68.819 20.0962 71.916L24.4439 80.0949C26.0904 83.1919 29.9595 84.3748 33.0572 82.7281L41.2369 78.3793C44.3326 76.7326 45.5162 72.8636 43.8697 69.7665L39.5201 61.5876C37.8736 58.4907 34.0044 57.3077 30.9087 58.9545L22.7291 63.3032ZM23.8169 65.348L31.9966 60.9991C33.9966 59.9359 36.4126 60.675 37.4771 62.6748L41.8248 70.8537C42.8892 72.8535 42.149 75.2712 40.149 76.3346L31.9712 80.6833C29.9712 81.7466 27.5533 81.0075 26.4908 79.0077L22.1412 70.8288C21.0787 68.829 21.8169 66.4113 23.8169 65.348ZM33.3541 63.5551C33.0533 62.99 33.2681 62.2896 33.8326 61.9891C34.399 61.6887 35.0982 61.9028 35.399 62.4679C35.6998 63.033 35.4849 63.7334 34.9205 64.0338C34.356 64.3343 33.6548 64.1202 33.3541 63.5551ZM29.1294 65.4739C26.1783 67.0436 25.0455 70.7429 26.6158 73.6951C28.1861 76.6474 31.8853 77.7784 34.8365 76.2087C37.7896 74.6389 38.9205 70.9396 37.3501 67.9874C35.7818 65.0351 32.0826 63.9041 29.1294 65.4739ZM35.3052 69.0746C34.3228 67.2275 32.063 66.5365 30.2154 67.5186C28.3697 68.5007 27.6783 70.7609 28.6607 72.608C29.6412 74.455 31.9029 75.146 33.7486 74.1639C35.5962 73.1818 36.2876 70.9216 35.3052 69.0746Z" fill="#1EC6FA"/>
<path d="M20.0962 71.916L22.7452 70.5079L22.7452 70.5078L20.0962 71.916ZM22.7291 63.3032L24.1373 65.9522L24.1374 65.9521L22.7291 63.3032ZM24.4439 80.0949L21.7949 81.503L21.795 81.5032L24.4439 80.0949ZM33.0572 82.7281L34.4654 85.377L34.4655 85.377L33.0572 82.7281ZM41.2369 78.3793L42.6452 81.0282L42.6457 81.0279L41.2369 78.3793ZM43.8697 69.7665L46.5186 68.3583L46.5184 68.3579L43.8697 69.7665ZM39.5201 61.5876L36.8712 62.9959L36.8713 62.9963L39.5201 61.5876ZM30.9087 58.9545L32.317 61.6034L32.3176 61.6031L30.9087 58.9545ZM31.9966 60.9991L30.5883 58.3502L30.5883 58.3502L31.9966 60.9991ZM23.8169 65.348L25.2252 67.9969L25.2253 67.9969L23.8169 65.348ZM37.4771 62.6748L40.1261 61.2667L40.1253 61.2652L37.4771 62.6748ZM41.8248 70.8537L39.1758 72.2618L39.1765 72.2633L41.8248 70.8537ZM40.149 76.3346L38.7406 73.6857L38.7404 73.6858L40.149 76.3346ZM31.9712 80.6833L33.3795 83.3323L33.3798 83.3321L31.9712 80.6833ZM26.4908 79.0077L29.1401 77.6001L29.1395 77.5991L26.4908 79.0077ZM22.1412 70.8288L19.4919 72.2364L19.4924 72.2374L22.1412 70.8288ZM33.8326 61.9891L32.4267 59.339L32.4231 59.3409L33.8326 61.9891ZM33.3541 63.5551L36.0023 62.1455L36.0023 62.1454L33.3541 63.5551ZM35.399 62.4679L32.7507 63.8774L32.7508 63.8775L35.399 62.4679ZM34.9205 64.0338L33.511 61.3855L33.5108 61.3857L34.9205 64.0338ZM29.1294 65.4739L27.7213 62.8249L27.7206 62.8253L29.1294 65.4739ZM34.8365 76.2087L33.4284 73.5597L33.4277 73.56L34.8365 76.2087ZM37.3501 67.9874L34.7008 69.3948L34.7015 69.3962L37.3501 67.9874ZM30.2154 67.5186L28.8074 64.8695L28.8061 64.8702L30.2154 67.5186ZM28.6607 72.608L31.3105 71.2014L31.3093 71.1992L28.6607 72.608ZM33.7486 74.1639L32.3405 71.5149L32.3394 71.5155L33.7486 74.1639ZM22.7452 70.5078C21.8759 68.8728 22.5035 66.8207 24.1373 65.9522L21.3209 60.6543C16.7592 63.0792 15.0236 68.7652 17.4473 73.3243L22.7452 70.5078ZM27.0929 78.6868L22.7452 70.5079L17.4472 73.3241L21.7949 81.503L27.0929 78.6868ZM31.649 80.0791C30.0139 80.9484 27.9613 80.3203 27.0928 78.6866L21.795 81.5032C24.2194 86.0635 29.9052 87.8013 34.4654 85.377L31.649 80.0791ZM39.8286 75.7304L31.6489 80.0792L34.4655 85.377L42.6452 81.0282L39.8286 75.7304ZM41.2207 71.1748C42.0894 72.8087 41.4616 74.8618 39.828 75.7307L42.6457 81.0279C47.2036 78.6035 48.9429 72.9184 46.5186 68.3583L41.2207 71.1748ZM36.8713 62.9963L41.2209 71.1752L46.5184 68.3579L42.1688 60.179L36.8713 62.9963ZM32.3176 61.6031C33.9498 60.7348 36.0023 61.3617 36.8712 62.9959L42.169 60.1794C39.7449 55.6197 34.059 53.8807 29.4998 56.3059L32.3176 61.6031ZM24.1374 65.9521L32.317 61.6034L29.5004 56.3056L21.3208 60.6543L24.1374 65.9521ZM30.5883 58.3502L22.4086 62.6991L25.2253 67.9969L33.4049 63.648L30.5883 58.3502ZM40.1253 61.2652C38.2834 57.8048 34.0522 56.5087 30.5883 58.3502L33.4049 63.6481C33.9411 63.363 34.5419 63.5453 34.8289 64.0844L40.1253 61.2652ZM44.4738 69.4456L40.1261 61.2667L34.8281 64.0829L39.1758 72.2618L44.4738 69.4456ZM41.5573 78.9835C45.019 77.143 46.3171 72.9087 44.473 69.4441L39.1765 72.2633C39.4613 72.7983 39.2789 73.3995 38.7406 73.6857L41.5573 78.9835ZM33.3798 83.3321L41.5575 78.9834L38.7404 73.6858L30.5627 78.0346L33.3798 83.3321ZM23.8415 80.4153C25.682 83.8794 29.9172 85.173 33.3795 83.3323L30.563 78.0344C30.0253 78.3203 29.4245 78.1356 29.1401 77.6001L23.8415 80.4153ZM19.4924 72.2374L23.842 80.4163L29.1395 77.5991L24.7899 69.4202L19.4924 72.2374ZM22.4087 62.699C18.9446 64.5407 17.6528 68.7751 19.4919 72.2364L24.7904 69.4212C24.5045 68.883 24.6893 68.2818 25.2252 67.9969L22.4087 62.699ZM32.4231 59.3409C30.3991 60.4181 29.6249 62.9339 30.7059 64.9647L36.0023 62.1454C36.4817 63.0461 36.1372 64.161 35.242 64.6374L32.4231 59.3409ZM38.0472 61.0584C36.9683 59.0311 34.4544 58.2633 32.4267 59.339L35.2385 64.6393C34.3436 65.1141 33.2281 64.7744 32.7507 63.8774L38.0472 61.0584ZM36.3299 66.6821C38.354 65.6049 39.1281 63.089 38.0472 61.0583L32.7508 63.8775C32.2714 62.9769 32.6159 61.8619 33.511 61.3855L36.3299 66.6821ZM30.7058 64.9646C31.7843 66.9909 34.3017 67.7618 36.3302 66.682L33.5108 61.3857C34.4104 60.9068 35.5254 61.2494 36.0023 62.1455L30.7058 64.9646ZM29.2644 72.2863C28.473 70.7984 29.0483 68.915 30.5383 68.1225L27.7206 62.8253C23.3082 65.1723 21.6179 70.6873 23.9671 75.1039L29.2644 72.2863ZM33.4277 73.56C31.9401 74.3513 30.0571 73.7766 29.2644 72.2863L23.9671 75.1039C26.3151 79.5182 31.8305 81.2055 36.2453 78.8573L33.4277 73.56ZM34.7015 69.3962C35.4936 70.8853 34.9183 72.7677 33.4284 73.5597L36.2446 78.8577C40.6609 76.5102 42.3474 70.994 39.9988 66.5786L34.7015 69.3962ZM30.5375 68.1229C32.0285 67.3303 33.9105 67.9071 34.7008 69.3948L39.9995 66.5799C37.6531 62.1631 32.1366 60.4779 27.7213 62.8249L30.5375 68.1229ZM31.6234 70.1676C32.0083 69.963 32.452 70.0988 32.6566 70.4834L37.9539 67.6658C36.1936 64.3563 32.1178 63.11 28.8074 64.8695L31.6234 70.1676ZM31.3093 71.1992C31.1052 70.8153 31.2409 70.3712 31.6246 70.167L28.8061 64.8702C25.4985 66.6302 24.2514 70.7065 26.012 74.0168L31.3093 71.1992ZM32.3394 71.5155C31.9564 71.7193 31.513 71.5829 31.3105 71.2014L26.0109 74.0146C27.7693 77.3271 31.8494 78.5727 35.1578 76.8124L32.3394 71.5155ZM32.6566 70.4834C32.8604 70.8666 32.7256 71.3102 32.3405 71.5149L35.1567 76.813C38.4669 75.0534 39.7149 70.9766 37.9539 67.6658L32.6566 70.4834Z" fill="white" mask="url(#path-3-outside-1)"/>
<mask id="path-5-outside-2" maskUnits="userSpaceOnUse" x="218.732" y="3.86357" width="31.0287" height="31.0287" fill="black">
<rect fill="white" x="218.732" y="3.86357" width="31.0287" height="31.0287"/>
<path fill-rule="evenodd" clip-rule="evenodd" d="M230.002 8.22303C226.496 8.10065 223.538 10.8599 223.414 14.3654L223.092 23.6229C222.969 27.1283 225.729 30.0872 229.235 30.2097L238.491 30.5329C241.996 30.6553 244.955 27.8961 245.079 24.3906L245.401 15.1331C245.524 11.6277 242.764 8.66876 239.258 8.54633L230.002 8.22303ZM229.92 10.5374L239.178 10.8607C241.44 10.9398 243.164 12.7888 243.086 15.0523L242.762 24.3098C242.684 26.5734 240.834 28.2976 238.571 28.2186L229.313 27.8953C227.049 27.8162 225.327 25.9672 225.405 23.7037L225.729 14.4462C225.807 12.1826 227.657 10.4584 229.92 10.5374ZM239.077 13.7537C239.1 13.1141 239.635 12.6146 240.274 12.6369C240.914 12.6592 241.414 13.1949 241.391 13.8345C241.37 14.4741 240.834 14.9736 240.194 14.9513C239.555 14.929 239.055 14.3933 239.077 13.7537ZM234.459 13.3027C231.118 13.186 228.288 15.8242 228.17 19.1658C228.055 22.5074 230.692 25.3366 234.034 25.4532C237.375 25.5699 240.205 22.9318 240.321 19.5902C240.438 16.2485 237.799 13.4194 234.459 13.3027ZM238.008 19.5093C238.08 17.4187 236.469 15.6901 234.379 15.6171C232.288 15.5441 230.559 17.156 230.487 19.2466C230.413 21.3373 232.026 23.0659 234.116 23.1389C236.205 23.2119 237.936 21.5999 238.008 19.5093Z"/>
</mask>
<path fill-rule="evenodd" clip-rule="evenodd" d="M230.002 8.22303C226.496 8.10065 223.538 10.8599 223.414 14.3654L223.092 23.6229C222.969 27.1283 225.729 30.0872 229.235 30.2097L238.491 30.5329C241.996 30.6553 244.955 27.8961 245.079 24.3906L245.401 15.1331C245.524 11.6277 242.764 8.66876 239.258 8.54633L230.002 8.22303ZM229.92 10.5374L239.178 10.8607C241.44 10.9398 243.164 12.7888 243.086 15.0523L242.762 24.3098C242.684 26.5734 240.834 28.2976 238.571 28.2186L229.313 27.8953C227.049 27.8162 225.327 25.9672 225.405 23.7037L225.729 14.4462C225.807 12.1826 227.657 10.4584 229.92 10.5374ZM239.077 13.7537C239.1 13.1141 239.635 12.6146 240.274 12.6369C240.914 12.6592 241.414 13.1949 241.391 13.8345C241.37 14.4741 240.834 14.9736 240.194 14.9513C239.555 14.929 239.055 14.3933 239.077 13.7537ZM234.459 13.3027C231.118 13.186 228.288 15.8242 228.17 19.1658C228.055 22.5074 230.692 25.3366 234.034 25.4532C237.375 25.5699 240.205 22.9318 240.321 19.5902C240.438 16.2485 237.799 13.4194 234.459 13.3027ZM238.008 19.5093C238.08 17.4187 236.469 15.6901 234.379 15.6171C232.288 15.5441 230.559 17.156 230.487 19.2466C230.413 21.3373 232.026 23.0659 234.116 23.1389C236.205 23.2119 237.936 21.5999 238.008 19.5093Z" fill="#1EC6FA"/>
<path d="M223.414 14.3654L220.416 14.2601L220.416 14.261L223.414 14.3654ZM230.002 8.22303L230.107 5.22485L230.107 5.22485L230.002 8.22303ZM223.092 23.6229L226.09 23.7281L226.09 23.7272L223.092 23.6229ZM229.235 30.2097L229.13 33.2078L229.13 33.2078L229.235 30.2097ZM238.491 30.5329L238.595 27.5347L238.595 27.5347L238.491 30.5329ZM245.079 24.3906L248.077 24.4959L248.077 24.495L245.079 24.3906ZM245.401 15.1331L242.403 15.0279L242.403 15.0287L245.401 15.1331ZM239.258 8.54633L239.153 11.5445L239.154 11.5445L239.258 8.54633ZM239.178 10.8607L239.283 7.86255L239.283 7.86255L239.178 10.8607ZM229.92 10.5374L230.025 7.53925L230.025 7.53924L229.92 10.5374ZM243.086 15.0523L246.084 15.1573L246.085 15.1558L243.086 15.0523ZM242.762 24.3098L239.764 24.2048L239.764 24.2063L242.762 24.3098ZM238.571 28.2186L238.466 31.2167L238.466 31.2167L238.571 28.2186ZM229.313 27.8953L229.418 24.8971L229.418 24.8971L229.313 27.8953ZM225.405 23.7037L222.407 23.5987L222.406 23.6002L225.405 23.7037ZM225.729 14.4462L228.727 14.5512L228.727 14.5497L225.729 14.4462ZM240.274 12.6369L240.169 15.6351L240.169 15.6351L240.274 12.6369ZM239.077 13.7537L236.079 13.6438L236.078 13.653L239.077 13.7537ZM241.391 13.8345L238.393 13.7247L238.393 13.7338L241.391 13.8345ZM240.194 14.9513L240.089 17.9495L240.089 17.9495L240.194 14.9513ZM228.17 19.1658L225.172 19.0607L225.172 19.0624L228.17 19.1658ZM234.459 13.3027L234.564 10.3046L234.564 10.3046L234.459 13.3027ZM234.034 25.4532L233.929 28.4514L233.929 28.4514L234.034 25.4532ZM240.321 19.5902L237.323 19.485L237.322 19.4868L240.321 19.5902ZM234.379 15.6171L234.484 12.619L234.484 12.619L234.379 15.6171ZM238.008 19.5093L241.006 19.613L241.006 19.613L238.008 19.5093ZM230.487 19.2466L233.485 19.3531L233.485 19.3503L230.487 19.2466ZM226.413 14.4706C226.478 12.6206 228.048 11.1566 229.898 11.2212L230.107 5.22485C224.945 5.04468 220.597 9.09915 220.416 14.2601L226.413 14.4706ZM226.09 23.7272L226.413 14.4697L220.416 14.261L220.094 23.5185L226.09 23.7272ZM229.339 27.2115C227.489 27.1469 226.025 25.5767 226.09 23.7281L220.094 23.5176C219.913 28.6799 223.969 33.0276 229.13 33.2078L229.339 27.2115ZM238.595 27.5347L229.339 27.2115L229.13 33.2078L238.386 33.5311L238.595 27.5347ZM242.08 24.2854C242.015 26.1354 240.445 27.5993 238.595 27.5347L238.386 33.5311C243.548 33.7113 247.896 29.6568 248.077 24.4959L242.08 24.2854ZM242.403 15.0287L242.08 24.2863L248.077 24.495L248.399 15.2375L242.403 15.0287ZM239.154 11.5445C241.004 11.6091 242.468 13.1793 242.403 15.0279L248.399 15.2384C248.58 10.0761 244.524 5.7284 239.363 5.54816L239.154 11.5445ZM229.898 11.2212L239.153 11.5445L239.363 5.54816L230.107 5.22485L229.898 11.2212ZM239.283 7.86255L230.025 7.53925L229.816 13.5356L239.073 13.8589L239.283 7.86255ZM246.085 15.1558C246.22 11.238 243.201 7.99948 239.283 7.86255L239.073 13.8589C239.679 13.88 240.109 14.3395 240.088 14.9488L246.085 15.1558ZM245.76 24.4148L246.084 15.1573L240.088 14.9473L239.764 24.2048L245.76 24.4148ZM238.466 31.2167C242.385 31.3536 245.625 28.3345 245.76 24.4133L239.764 24.2063C239.743 24.8122 239.284 25.2417 238.675 25.2204L238.466 31.2167ZM229.208 30.8934L238.466 31.2167L238.675 25.2204L229.418 24.8971L229.208 30.8934ZM222.406 23.6002C222.271 27.5169 225.287 30.7565 229.208 30.8934L229.418 24.8971C228.812 24.8759 228.382 24.4175 228.403 23.8072L222.406 23.6002ZM222.731 14.3412L222.407 23.5987L228.403 23.8087L228.727 14.5512L222.731 14.3412ZM230.025 7.53924C226.106 7.40242 222.866 10.4215 222.731 14.3427L228.727 14.5497C228.748 13.9438 229.207 13.5143 229.816 13.5356L230.025 7.53924ZM240.379 9.63874C238.08 9.55833 236.162 11.3568 236.079 13.6438L242.075 13.8635C242.038 14.8714 241.191 15.6708 240.169 15.6351L240.379 9.63874ZM244.389 13.9444C244.473 11.6407 242.671 9.71866 240.378 9.63873L240.169 15.6351C239.158 15.5998 238.355 14.7491 238.393 13.7247L244.389 13.9444ZM240.089 17.9495C242.385 18.0295 244.312 16.2348 244.389 13.9353L238.393 13.7338C238.427 12.7134 239.284 11.9178 240.298 11.9531L240.089 17.9495ZM236.078 13.653C236.001 15.9448 237.794 17.8692 240.089 17.9495L240.299 11.9531C241.316 11.9887 242.109 12.8418 242.075 13.8544L236.078 13.653ZM231.168 19.271C231.228 17.5854 232.668 16.242 234.355 16.3009L234.564 10.3046C229.567 10.1301 225.347 14.063 225.172 19.0607L231.168 19.271ZM234.138 22.4551C232.453 22.3962 231.11 20.9571 231.169 19.2692L225.172 19.0624C225 24.0578 228.93 28.2769 233.929 28.4514L234.138 22.4551ZM237.322 19.4868C237.264 21.1705 235.825 22.514 234.138 22.4551L233.929 28.4514C238.926 28.6258 243.147 24.693 243.319 19.6935L237.322 19.4868ZM234.355 16.3009C236.039 16.3597 237.382 17.7994 237.323 19.485L243.319 19.6953C243.494 14.6976 239.56 10.4791 234.564 10.3046L234.355 16.3009ZM234.275 18.6153C234.707 18.6304 235.025 18.9689 235.01 19.4057L241.006 19.613C241.136 15.8685 238.231 12.7498 234.484 12.619L234.275 18.6153ZM233.485 19.3503C233.5 18.9172 233.838 18.6001 234.275 18.6153L234.484 12.619C230.737 12.4882 227.618 15.3949 227.489 19.143L233.485 19.3503ZM234.22 20.1407C233.785 20.1255 233.469 19.7852 233.485 19.3531L227.489 19.1402C227.356 22.8894 230.267 26.0062 234.011 26.137L234.22 20.1407ZM235.01 19.4057C234.995 19.8379 234.656 20.1559 234.22 20.1407L234.011 26.137C237.755 26.2678 240.877 23.362 241.006 19.613L235.01 19.4057Z" fill="white" mask="url(#path-5-outside-2)"/>
<mask id="path-7-outside-3" maskUnits="userSpaceOnUse" x="117.282" y="100.118" width="34.2929" height="34.2929" fill="black">
<rect fill="white" x="117.282" y="100.118" width="34.2929" height="34.2929"/>
<path fill-rule="evenodd" clip-rule="evenodd" d="M133.057 106.544C129.918 105.703 126.672 107.578 125.83 110.717L123.609 119.008C122.768 122.147 124.643 125.394 127.781 126.235L136.072 128.456C139.211 129.298 142.457 127.423 143.299 124.284L145.522 115.993C146.361 112.854 144.488 109.607 141.348 108.766L133.057 106.544ZM132.502 108.617L140.793 110.839C142.82 111.382 143.992 113.411 143.447 115.438L141.227 123.728C140.684 125.756 138.654 126.927 136.627 126.384L128.336 124.162C126.311 123.619 125.139 121.59 125.682 119.563L127.902 111.272C128.445 109.245 130.475 108.074 132.502 108.617ZM140.1 113.429C140.252 112.857 140.84 112.517 141.414 112.671C141.986 112.824 142.326 113.412 142.172 113.985C142.018 114.558 141.432 114.897 140.858 114.743C140.285 114.59 139.945 114.002 140.1 113.429ZM136.024 112.06C133.029 111.258 129.926 113.05 129.125 116.043C128.322 119.035 130.115 122.139 133.108 122.941C136.1 123.743 139.203 121.951 140.006 118.958C140.809 115.966 139.016 112.861 136.024 112.06ZM137.934 118.403C138.436 116.531 137.34 114.634 135.467 114.132C133.596 113.631 131.699 114.726 131.197 116.598C130.695 118.47 131.791 120.367 133.662 120.868C135.535 121.37 137.432 120.275 137.934 118.403Z"/>
</mask>
<path fill-rule="evenodd" clip-rule="evenodd" d="M133.057 106.544C129.918 105.703 126.672 107.578 125.83 110.717L123.609 119.008C122.768 122.147 124.643 125.394 127.781 126.235L136.072 128.456C139.211 129.298 142.457 127.423 143.299 124.284L145.522 115.993C146.361 112.854 144.488 109.607 141.348 108.766L133.057 106.544ZM132.502 108.617L140.793 110.839C142.82 111.382 143.992 113.411 143.447 115.438L141.227 123.728C140.684 125.756 138.654 126.927 136.627 126.384L128.336 124.162C126.311 123.619 125.139 121.59 125.682 119.563L127.902 111.272C128.445 109.245 130.475 108.074 132.502 108.617ZM140.1 113.429C140.252 112.857 140.84 112.517 141.414 112.671C141.986 112.824 142.326 113.412 142.172 113.985C142.018 114.558 141.432 114.897 140.858 114.743C140.285 114.59 139.945 114.002 140.1 113.429ZM136.024 112.06C133.029 111.258 129.926 113.05 129.125 116.043C128.322 119.035 130.115 122.139 133.108 122.941C136.1 123.743 139.203 121.951 140.006 118.958C140.809 115.966 139.016 112.861 136.024 112.06ZM137.934 118.403C138.436 116.531 137.34 114.634 135.467 114.132C133.596 113.631 131.699 114.726 131.197 116.598C130.695 118.47 131.791 120.367 133.662 120.868C135.535 121.37 137.432 120.275 137.934 118.403Z" fill="#1EC6FA"/>
<path d="M125.83 110.717L122.933 109.94L122.932 109.941L125.83 110.717ZM133.057 106.544L132.28 109.442L132.28 109.442L133.057 106.544ZM123.609 119.008L126.507 119.785L126.507 119.784L123.609 119.008ZM127.781 126.235L127.005 129.133L127.005 129.133L127.781 126.235ZM136.072 128.456L136.849 125.559L136.849 125.559L136.072 128.456ZM143.299 124.284L146.197 125.061L146.197 125.061L143.299 124.284ZM145.522 115.993L148.419 116.77L148.42 116.768L145.522 115.993ZM141.348 108.766L140.571 111.664L140.572 111.664L141.348 108.766ZM140.793 110.839L140.017 113.736L140.017 113.736L140.793 110.839ZM132.502 108.617L131.726 111.515L131.726 111.515L132.502 108.617ZM143.447 115.438L140.55 114.659L140.55 114.661L143.447 115.438ZM141.227 123.728L138.329 122.952L138.329 122.952L141.227 123.728ZM136.627 126.384L137.403 123.486L137.403 123.486L136.627 126.384ZM128.336 124.162L127.559 127.06L127.56 127.06L128.336 124.162ZM125.682 119.563L122.784 118.787L122.784 118.787L125.682 119.563ZM127.902 111.272L130.8 112.049L130.8 112.049L127.902 111.272ZM141.414 112.671L142.191 109.773L142.189 109.773L141.414 112.671ZM140.1 113.429L142.996 114.21L142.999 114.2L140.1 113.429ZM140.858 114.743L140.081 117.641L140.083 117.642L140.858 114.743ZM129.125 116.043L132.023 116.82L132.023 116.818L129.125 116.043ZM136.024 112.06L136.8 109.162L136.8 109.162L136.024 112.06ZM140.006 118.958L142.904 119.735L142.904 119.735L140.006 118.958ZM135.467 114.132L134.69 117.03L134.691 117.03L135.467 114.132ZM137.934 118.403L140.831 119.18L140.831 119.18L137.934 118.403ZM133.662 120.868L132.885 123.766L132.886 123.766L133.662 120.868ZM128.728 111.494C129.141 109.954 130.743 109.03 132.28 109.442L133.833 103.647C129.094 102.376 124.203 105.201 122.933 109.94L128.728 111.494ZM126.507 119.784L128.728 111.493L122.932 109.941L120.712 118.232L126.507 119.784ZM128.558 123.337C127.019 122.925 126.095 121.323 126.507 119.785L120.712 118.231C119.441 122.971 122.266 127.863 127.005 129.133L128.558 123.337ZM136.849 125.559L128.558 123.337L127.005 129.133L135.296 131.354L136.849 125.559ZM140.401 123.507C139.988 125.047 138.387 125.971 136.849 125.559L135.296 131.354C140.036 132.624 144.926 129.799 146.197 125.061L140.401 123.507ZM142.624 115.216L140.401 123.507L146.197 125.061L148.419 116.77L142.624 115.216ZM140.572 111.664C142.111 112.076 143.036 113.677 142.623 115.218L148.42 116.768C149.687 112.03 146.866 107.138 142.124 105.868L140.572 111.664ZM132.28 109.442L140.571 111.664L142.124 105.868L133.833 103.647L132.28 109.442ZM141.569 107.941L133.278 105.719L131.726 111.515L140.017 113.736L141.569 107.941ZM146.344 116.216C147.32 112.587 145.196 108.912 141.569 107.941L140.017 113.736C140.25 113.799 140.4 113.932 140.487 114.082C140.573 114.231 140.613 114.427 140.55 114.659L146.344 116.216ZM144.124 124.505L146.345 116.214L140.55 114.661L138.329 122.952L144.124 124.505ZM135.851 129.281C139.478 130.253 143.153 128.133 144.124 124.505L138.329 122.952C138.266 123.185 138.134 123.335 137.984 123.422C137.833 123.509 137.637 123.548 137.403 123.486L135.851 129.281ZM127.56 127.06L135.851 129.281L137.403 123.486L129.112 121.264L127.56 127.06ZM122.784 118.787C121.812 122.414 123.934 126.088 127.559 127.06L129.113 121.265C128.881 121.202 128.731 121.07 128.644 120.919C128.557 120.769 128.517 120.572 128.58 120.339L122.784 118.787ZM125.005 110.496L122.784 118.787L128.58 120.339L130.8 112.049L125.005 110.496ZM133.278 105.719C129.651 104.747 125.976 106.868 125.005 110.496L130.8 112.049C130.863 111.816 130.995 111.666 131.145 111.579C131.296 111.492 131.492 111.452 131.726 111.515L133.278 105.719ZM142.189 109.773C140.02 109.193 137.781 110.475 137.2 112.658L142.999 114.2C142.723 115.238 141.66 115.842 140.639 115.569L142.189 109.773ZM145.069 114.765C145.655 112.588 144.362 110.355 142.191 109.773L140.637 115.568C139.611 115.293 138.997 114.236 139.275 113.204L145.069 114.765ZM140.083 117.642C142.259 118.223 144.485 116.932 145.069 114.765L139.275 113.204C139.55 112.183 140.604 111.57 141.632 111.845L140.083 117.642ZM137.203 112.649C136.616 114.826 137.91 117.059 140.081 117.641L141.634 111.846C142.66 112.121 143.274 113.178 142.996 114.21L137.203 112.649ZM132.023 116.818C132.395 115.427 133.853 114.584 135.247 114.957L136.8 109.162C132.206 107.931 127.456 110.673 126.227 115.267L132.023 116.818ZM133.884 120.043C132.492 119.67 131.65 118.211 132.023 116.82L126.228 115.265C124.995 119.859 127.739 124.608 132.331 125.839L133.884 120.043ZM137.108 118.181C136.735 119.575 135.275 120.416 133.884 120.043L132.331 125.839C136.924 127.07 141.672 124.327 142.904 119.735L137.108 118.181ZM135.247 114.957C136.639 115.33 137.482 116.79 137.108 118.181L142.904 119.735C144.136 115.141 141.392 110.392 136.8 109.162L135.247 114.957ZM134.691 117.03C134.964 117.103 135.108 117.356 135.036 117.626L140.831 119.18C141.763 115.705 139.715 112.164 136.243 111.234L134.691 117.03ZM134.095 117.375C134.168 117.102 134.42 116.958 134.69 117.03L136.244 111.235C132.771 110.304 129.23 112.35 128.3 115.821L134.095 117.375ZM134.439 117.971C134.168 117.898 134.022 117.646 134.095 117.375L128.3 115.821C127.368 119.294 129.415 122.836 132.885 123.766L134.439 117.971ZM135.036 117.626C134.963 117.898 134.711 118.044 134.438 117.971L132.886 123.766C136.359 124.697 139.9 122.652 140.831 119.18L135.036 117.626Z" fill="white" mask="url(#path-7-outside-3)"/>
</svg>
