<svg width="40" height="41" viewBox="0 0 40 41" fill="none" xmlns="http://www.w3.org/2000/svg">
<path fill-rule="evenodd" clip-rule="evenodd" d="M25.2014 17.353C25.2014 17.2643 25.2121 17.1759 25.2331 17.0897C25.3755 16.5081 25.9527 16.1544 26.5222 16.2998L31.4833 17.5664C31.9566 17.6872 32.2887 18.1214 32.2887 18.6196V28.6284H33.6604C33.8813 28.6284 34.0604 28.8075 34.0604 29.0284V31.8472C34.0604 32.0681 33.8813 32.2472 33.6604 32.2472H6.11143C5.89051 32.2472 5.71143 32.0681 5.71143 31.8472V29.0284C5.71143 28.8075 5.89051 28.6284 6.11143 28.6284H7.48324V11.1012C7.48324 10.214 8.11325 9.4576 8.97084 9.31528L21.3735 7.25684C21.4676 7.24124 21.5625 7.2334 21.6577 7.2334C22.6362 7.2334 23.4297 8.0435 23.4297 9.0428V28.6284H25.2014V17.353ZM15.121 28.4501V22.891H11.9443V28.4501H15.121ZM19.9643 26.0676V22.891H16.7877V26.0676H19.9643ZM30.21 22.7331H27.0334V25.9098H30.21V22.7331ZM19.9643 13.2035H16.7877V16.3801H19.9643V13.2035ZM15.1209 13.2031H11.9442V16.3798H15.1209V13.2031ZM19.9643 18.0472H16.7877V21.2239H19.9643V18.0472ZM15.121 18.0472H11.9443V21.2239H15.121V18.0472Z" fill="#2FC6F6"/>
</svg>
