<?xml version="1.0" encoding="utf-8"?>
<svg xmlns="http://www.w3.org/2000/svg"
	xmlns:xlink="http://www.w3.org/1999/xlink"
	width="100%" height="100%" viewBox="0 0 47 54">
<path fillRule="evenodd" d="M 46.46 53.23C 46.46 50.12 42.93 36.94 42.93 36.94 42.93 35.02 40.39 32.82 35.38 31.54 32.78 30.87 30.6 29.38 30.6 29.38 30.28 29.2 30.33 27.52 30.33 27.52 30.33 27.52 28.72 27.28 28.72 27.28 28.72 27.14 28.58 25.12 28.58 25.12 30.51 24.48 30.31 20.7 30.31 20.7 31.53 21.37 32.33 18.38 32.33 18.38 33.78 14.22 31.61 14.47 31.61 14.47 32.3 11.35 31.61 6.8 31.61 6.8 30.64-1.62 16.12 0.66 17.84 3.42 13.59 2.64 14.56 12.21 14.56 12.21 14.56 12.21 15.48 14.68 15.48 14.68 13.67 15.84 14.93 17.25 14.99 18.86 15.08 21.25 16.55 20.76 16.55 20.76 16.65 24.7 18.61 25.21 18.61 25.21 18.97 27.69 18.74 27.27 18.74 27.27 18.74 27.27 17 27.48 17 27.48 17.08 28.1 16.86 29.15 16.86 29.15 14.8 30.06 14.37 30.59 12.33 31.48 8.38 33.19 4.1 35.41 3.34 38.4 2.58 41.4 0.32 53.23 0.32 53.23 0.32 53.23 46.45 53.23 46.45 53.23 46.45 53.23 46.45 53.23 46.45 53.23 46.45 53.23 46.46 53.23 46.46 53.23Z" fill="rgb(255,255,255)"/></svg>