<?xml version="1.0" encoding="UTF-8" standalone="no"?>
<svg width="14px" height="15px" viewBox="0 0 14 15" version="1.1" xmlns="http://www.w3.org/2000/svg" xmlns:xlink="http://www.w3.org/1999/xlink">
    <!-- Generator: Sketch 3.8.1 (29687) - http://www.bohemiancoding.com/sketch -->
    <title>crm-interface-toolbar-calendar</title>
    <desc>Created with Sketch.</desc>
    <defs></defs>
    <g id="Page-1" stroke="none" stroke-width="1" fill="none" fill-rule="evenodd">
        <g id="crm-interface-toolbar-sprite" transform="translate(-1.000000, -1.000000)">
            <g id="crm-interface-toolbar-calendar" transform="translate(1.000000, 1.000000)">
                <g id="Group">
                    <g id="Page-1">
                        <g id="планировать">
                            <g id="Group-2">
                                <g id="Group">
                                    <path d="M12.9198813,1.81367403 L11.7774481,1.81367403 L11.7774481,1.0359116 C11.7774481,0.463798343 11.312457,0 10.7388724,0 L10.6973294,0 C10.1237448,0 9.65875371,0.463798343 9.65875371,1.0359116 L9.65875371,1.81367403 L4.29970326,1.81367403 L4.29970326,1.0359116 C4.29970326,0.463798343 3.83471217,0 3.2611276,0 L3.21958457,0 C2.646,0 2.1810089,0.463798343 2.1810089,1.0359116 L2.1810089,1.81367403 L1.03857567,1.81367403 C0.464991098,1.81367403 -1.09245946e-13,2.27747238 -1.09245946e-13,2.84958564 L-1.09245946e-13,13.954558 C-1.09245946e-13,14.5267541 0.464991098,14.9904696 1.03857567,14.9904696 L12.9198813,14.9904696 C13.4934659,14.9904696 13.958457,14.5267541 13.958457,13.954558 L13.958457,2.84958564 C13.958457,2.27747238 13.4934243,1.81367403 12.9198813,1.81367403 L12.9198813,1.81367403 L12.9198813,1.81367403 Z M12.2136499,13.3537293 L1.74480712,13.3537293 L1.74480712,4.94212707 L12.2136499,4.94212707 L12.2136499,13.3537293 L12.2136499,13.3537293 L12.2136499,13.3537293 Z" id="Shape" fill="#80868E"></path>
                                    <path d="M3.16617211,8.13389503 L4.97321068,8.13389503 C5.06497923,8.13389503 5.13938279,8.05968232 5.13938279,7.96814917 L5.13938279,6.16574586 C5.13938279,6.07421271 5.06497923,6 4.97321068,6 L3.16617211,6 C3.07440356,6 3,6.07421271 3,6.16574586 L3,7.96814917 C3,8.05968232 3.07440356,8.13389503 3.16617211,8.13389503 L3.16617211,8.13389503 L3.16617211,8.13389503 Z" id="Shape" fill="#888E91"></path>
                                    <path d="M6.16617211,8.13389503 L7.97321068,8.13389503 C8.06497923,8.13389503 8.13938279,8.05968232 8.13938279,7.96814917 L8.13938279,6.16574586 C8.13938279,6.07421271 8.06497923,6 7.97321068,6 L6.16617211,6 C6.07440356,6 6,6.07421271 6,6.16574586 L6,7.96814917 C6,8.05968232 6.07440356,8.13389503 6.16617211,8.13389503 L6.16617211,8.13389503 L6.16617211,8.13389503 Z" id="Shape" fill="#888E91"></path>
                                    <path d="M9.16617211,8.13389503 L10.9732107,8.13389503 C11.0649792,8.13389503 11.1393828,8.05968232 11.1393828,7.96814917 L11.1393828,6.16574586 C11.1393828,6.07421271 11.0649792,6 10.9732107,6 L9.16617211,6 C9.07440356,6 9,6.07421271 9,6.16574586 L9,7.96814917 C9,8.05968232 9.07440356,8.13389503 9.16617211,8.13389503 L9.16617211,8.13389503 L9.16617211,8.13389503 Z" id="Shape" fill="#888E91"></path>
                                    <path d="M3.16617211,11.133895 L4.97321068,11.133895 C5.06497923,11.133895 5.13938279,11.0596823 5.13938279,10.9681492 L5.13938279,9.16574586 C5.13938279,9.07421271 5.06497923,9 4.97321068,9 L3.16617211,9 C3.07440356,9 3,9.07421271 3,9.16574586 L3,10.9681492 C3,11.0596823 3.07440356,11.133895 3.16617211,11.133895 L3.16617211,11.133895 L3.16617211,11.133895 Z" id="Shape" fill="#888E91"></path>
                                    <path d="M6.16617211,11.133895 L7.97321068,11.133895 C8.06497923,11.133895 8.13938279,11.0596823 8.13938279,10.9681492 L8.13938279,9.16574586 C8.13938279,9.07421271 8.06497923,9 7.97321068,9 L6.16617211,9 C6.07440356,9 6,9.07421271 6,9.16574586 L6,10.9681492 C6,11.0596823 6.07440356,11.133895 6.16617211,11.133895 L6.16617211,11.133895 L6.16617211,11.133895 Z" id="Shape" fill="#888E91"></path>
                                    <path d="M9.16617211,11.133895 L10.9732107,11.133895 C11.0649792,11.133895 11.1393828,11.0596823 11.1393828,10.9681492 L11.1393828,9.16574586 C11.1393828,9.07421271 11.0649792,9 10.9732107,9 L9.16617211,9 C9.07440356,9 9,9.07421271 9,9.16574586 L9,10.9681492 C9,11.0596823 9.07440356,11.133895 9.16617211,11.133895 L9.16617211,11.133895 L9.16617211,11.133895 Z" id="Shape" fill="#888E91"></path>
                                </g>
                            </g>
                        </g>
                    </g>
                </g>
            </g>
        </g>
    </g>
</svg>