<svg xmlns="http://www.w3.org/2000/svg" width="44" height="428" viewBox="0 0 44 428"><g fill="none" fill-rule="evenodd"><g fill-rule="nonzero" transform="translate(12 364)"><path fill="#5F9CE7" d="M6.8087203,7.842566 L4.8572495,7.832847 L4.8572495,4.643343 L7,4.643343 L7,2 L4.1036285,2 C2.9538599,2 2.0131402,2.874636 2.0131402,3.943635 L2.0131402,7.81827 L0,7.80758 L3.4043602,11 L6.8087203,7.842566 Z M17.4511845,9 L14.0410621,12.108744 L16.1427342,12.113514 L16.1427342,15.404451 L13.8602618,15.404451 L13.8602618,18 L16.8962427,18 C18.0458396,18 18.9864189,17.141494 18.9864189,16.09221 L18.9864189,12.119237 L20.8602618,12.123052 L17.4511845,9 Z M7.826449,15.405814 L4.648032,15.405814 L4.648032,13.419016 L2,13.419016 L2,16.069922 C2,17.083124 2.875865,17.912108 3.9463668,17.912108 L7.8118512,17.912108 L7.8030926,19.395989 L11,16.395989 L7.8381272,13.395989 L7.826449,15.405814 Z M16.3531128,7 L19,7 L19,4.081508 C19,2.934138 18.1245136,1.995381 17.0544747,1.995381 L13.1809339,1.995381 L13.1848249,0 L10,3.403517 L13.1702335,6.807033 L13.1741245,4.832514 L16.3531128,4.832514 L16.3531128,7 Z"/><path fill="#818992" d="M6.8087203,51.842566 L4.8572495,51.832847 L4.8572495,48.643343 L7,48.643343 L7,46 L4.1036285,46 C2.9538599,46 2.0131402,46.874636 2.0131402,47.943635 L2.0131402,51.81827 L0,51.80758 L3.4043602,55 L6.8087203,51.842566 Z M17.4511845,53 L14.0410621,56.108744 L16.1427342,56.113514 L16.1427342,59.404451 L13.8602618,59.404451 L13.8602618,62 L16.8962427,62 C18.0458396,62 18.9864189,61.141494 18.9864189,60.09221 L18.9864189,56.119237 L20.8602618,56.123052 L17.4511845,53 Z M7.826449,59.405814 L4.648032,59.405814 L4.648032,57.419016 L2,57.419016 L2,60.069922 C2,61.083124 2.875865,61.912108 3.9463668,61.912108 L7.8118512,61.912108 L7.8030926,63.395989 L11,60.395989 L7.8381272,57.395989 L7.826449,59.405814 Z M16.3531128,51 L19,51 L19,48.081508 C19,46.934138 18.1245136,45.995381 17.0544747,45.995381 L13.1809339,45.995381 L13.1848249,44 L10,47.403517 L13.1702335,50.807033 L13.1741245,48.832514 L16.3531128,48.832514 L16.3531128,51 Z"/></g><g transform="translate(12 278)"><path fill="#5F9CE7" d="M15.0264377,8.37036071 L15.0264377,2.01057969 C15.0264377,0.90476086 14.1216768,0 13.015858,0 L2.01057969,0 C0.90476086,0 0,0.90476086 0,2.01057969 L0,8.36506971 C0,9.47088854 0.90476086,10.3756494 2.01057969,10.3756494 L3.50264146,10.3756494 L3.50264146,13.9047459 C3.50264146,14.2645338 3.82010141,14.2539518 4.48147631,13.6931059 C4.86771925,13.3703549 6.31216203,11.7142722 7.46559985,10.3756494 L13.015858,10.3756494 C14.1216768,10.3809404 15.0264377,9.47617954 15.0264377,8.37036071 Z M16.8571234,4.33861933 L16.8571234,9.26983057 C16.8571234,10.8941673 15.5290826,12.2274991 13.8994549,12.2274991 L7.98411777,12.2274991 L5.89946409,14.4020998 C6.21163304,14.6031577 6.58729398,14.7248507 6.98411892,14.7248507 L12.5343771,14.7248507 C13.6878149,16.0634735 15.1375487,17.7195563 15.5185006,18.0423072 C16.1851665,18.6031531 16.4973355,18.6084441 16.4973355,18.2539472 L16.4973355,14.7248507 L17.9893972,14.7248507 C19.0952161,14.7248507 19.9999769,13.8200899 19.9999769,12.714271 L19.9999769,6.34919902 C20.0052679,5.24338019 19.1005071,4.33861933 17.9893972,4.33861933 L16.8571234,4.33861933 Z"/><path fill="#C3C3C4" d="M15.0264377,52.3703607 L15.0264377,46.0105797 C15.0264377,44.9047609 14.1216768,44 13.015858,44 L2.01057969,44 C0.90476086,44 0,44.9047609 0,46.0105797 L0,52.3650697 C0,53.4708885 0.90476086,54.3756494 2.01057969,54.3756494 L3.50264146,54.3756494 L3.50264146,57.9047459 C3.50264146,58.2645338 3.82010141,58.2539518 4.48147631,57.6931059 C4.86771925,57.3703549 6.31216203,55.7142722 7.46559985,54.3756494 L13.015858,54.3756494 C14.1216768,54.3809404 15.0264377,53.4761795 15.0264377,52.3703607 Z M16.8571234,48.3386193 L16.8571234,53.2698306 C16.8571234,54.8941673 15.5290826,56.2274991 13.8994549,56.2274991 L7.98411777,56.2274991 L5.89946409,58.4020998 C6.21163304,58.6031577 6.58729398,58.7248507 6.98411892,58.7248507 L12.5343771,58.7248507 C13.6878149,60.0634735 15.1375487,61.7195563 15.5185006,62.0423072 C16.1851665,62.6031531 16.4973355,62.6084441 16.4973355,62.2539472 L16.4973355,58.7248507 L17.9893972,58.7248507 C19.0952161,58.7248507 19.9999769,57.8200899 19.9999769,56.714271 L19.9999769,50.349199 C20.0052679,49.2433802 19.1005071,48.3386193 17.9893972,48.3386193 L16.8571234,48.3386193 Z"/></g><g transform="translate(13 192)"><path fill="#5F9CE7" d="M1.92160497,0 C0.835000373,0.0357617961 -0.0201069194,0.898117519 0.0018329083,1.93604526 L0.0018329083,10.9210976 C-0.0438325579,11.9343534 0.769255454,12.7956687 1.82947389,12.8571429 L16.0798303,12.8571429 C17.1661375,12.821383 18.0211271,11.9594645 17.9996024,10.9218128 L17.9996024,1.97252044 C18.0076921,0.920702573 17.1449737,0.0502422895 16.0446257,0 L1.92160497,0 Z M8.94978338,5.91541573 L3.55674442,1.78799895 L14.3480656,1.78799895 L8.94978338,5.91541573 Z M16.0647751,10.8898814 C15.9556726,10.9998432 15.8047584,11.0631766 15.6461401,11.0655679 L2.33057709,11.0655679 C2.17564594,11.0595063 2.02979707,10.9941333 1.92593433,10.8841971 C1.82207159,10.774261 1.76894485,10.6290232 1.77853963,10.4812499 L1.77853963,8.02310889 L1.77853963,2.92230549 C1.84115551,3.00357907 1.914123,3.07709459 1.99575926,3.14115656 L8.36928266,7.99879211 C8.4985802,8.11085043 8.66517881,8.17569563 8.8396755,8.1818832 L9.12955134,8.1818832 C9.2999558,8.15869802 9.4617632,8.09581782 9.60069322,7.99879211 L15.9734676,3.14115656 C16.0768302,3.05968788 16.1623532,2.95955713 16.2251427,2.84649433 L16.2251427,10.4805347 C16.2319587,10.6326115 16.1738776,10.7799195 16.0647751,10.8898814 Z"/><path fill="#C3C3C4" d="M1.92160497,44 C0.835000373,44.0357618 -0.0201069194,44.8981175 0.0018329083,45.9360453 L0.0018329083,54.9210976 C-0.0438325579,55.9343534 0.769255454,56.7956687 1.82947389,56.8571429 L16.0798303,56.8571429 C17.1661375,56.821383 18.0211271,55.9594645 17.9996024,54.9218128 L17.9996024,45.9725204 C18.0076921,44.9207026 17.1449737,44.0502423 16.0446257,44 L1.92160497,44 Z M8.94978338,49.9154157 L3.55674442,45.787999 L14.3480656,45.787999 L8.94978338,49.9154157 Z M16.0647751,54.8898814 C15.9556726,54.9998432 15.8047584,55.0631766 15.6461401,55.0655679 L2.33057709,55.0655679 C2.17564594,55.0595063 2.02979707,54.9941333 1.92593433,54.8841971 C1.82207159,54.774261 1.76894485,54.6290232 1.77853963,54.4812499 L1.77853963,52.0231089 L1.77853963,46.9223055 C1.84115551,47.0035791 1.914123,47.0770946 1.99575926,47.1411566 L8.36928266,51.9987921 C8.4985802,52.1108504 8.66517881,52.1756956 8.8396755,52.1818832 L9.12955134,52.1818832 C9.2999558,52.158698 9.4617632,52.0958178 9.60069322,51.9987921 L15.9734676,47.1411566 C16.0768302,47.0596879 16.1623532,46.9595571 16.2251427,46.8464943 L16.2251427,54.4805347 C16.2319587,54.6326115 16.1738776,54.7799195 16.0647751,54.8898814 Z"/></g><g transform="translate(9 105)"><path fill="#5F9CE7" d="M5.96981644,7.37936942 C5.96981644,8.28380919 5.67226823,8.99638741 5.07716288,9.51712546 C4.48205753,10.0378635 3.65414268,10.2982286 2.5933935,10.2982286 C1.61616788,10.2982286 0.75171202,10.097245 0,9.6952718 L0,7.72195853 C0.618074327,8.02343845 1.14113276,8.23584157 1.56919099,8.35917427 C1.99724923,8.48250697 2.38876003,8.54417239 2.74373515,8.54417239 C3.1697053,8.54417239 3.49648632,8.45510011 3.72408801,8.27695288 C3.9516897,8.09880566 4.06548885,7.83387273 4.06548885,7.48214615 C4.06548885,7.28572741 4.01537546,7.11100871 3.91514719,6.95798481 C3.81491892,6.80496091 3.66771086,6.65764907 3.47351859,6.51604486 C3.27932632,6.37444065 2.8836394,6.1483341 2.28644596,5.83771842 C1.72683812,5.54994213 1.30713854,5.27358968 1.02733462,5.00865278 C0.747530705,4.74371588 0.524108539,4.43538876 0.357061424,4.08366218 C0.190014309,3.73193561 0.106492004,3.32083279 0.106492004,2.85034139 C0.106492004,1.96417313 0.381071581,1.26758224 0.930238973,0.760547823 C1.47940637,0.253513406 2.23841531,0 3.20728858,0 C3.68337286,0 4.13752539,0.061665423 4.5697598,0.184998119 C5.00199421,0.308330815 5.45405869,0.481907561 5.92596679,0.705733565 L5.29954324,2.35701307 C4.81093043,2.13775495 4.40689128,1.98473334 4.08741367,1.89794367 C3.76793606,1.81115399 3.45368339,1.7677598 3.14464623,1.7677598 C2.77714257,1.7677598 2.49525479,1.86139989 2.29897443,2.04868287 C2.10269407,2.23596586 2.00455536,2.48034364 2.00455536,2.78182357 C2.00455536,2.96910655 2.04422846,3.13240573 2.12357584,3.27172599 C2.20292322,3.41104626 2.3292507,3.54579663 2.50256209,3.67598114 C2.67587347,3.80616566 3.08617679,4.04026587 3.73348436,4.37828882 C4.58960083,4.82594083 5.17634502,5.27472807 5.49373454,5.72466402 C5.81112406,6.17459996 5.96981644,6.72616292 5.96981644,7.37936942 Z M11.5074006,10.161193 L9.30238973,2.30219882 L9.24601161,2.30219882 C9.32535899,3.90095599 9.36503209,4.96753941 9.36503209,5.5019811 L9.36503209,10.161193 L7.62983885,10.161193 L7.62983885,0.143887426 L10.2733462,0.143887426 L12.4407717,7.80417991 L12.4783571,7.80417991 L14.7773316,0.143887426 L17.4208389,0.143887426 L17.4208389,10.161193 L15.6104749,10.161193 L15.6104749,5.41975971 C15.6104749,5.19593371 15.613607,4.93785249 15.6198712,4.64550832 C15.6261355,4.35316416 15.6543243,3.57663661 15.7044384,2.31590238 L15.6480603,2.31590238 L13.2864435,10.161193 L11.5074006,10.161193 Z M25.1321129,7.37936942 C25.1321129,8.28380919 24.8345646,8.99638741 24.2394593,9.51712546 C23.644354,10.0378635 22.8164391,10.2982286 21.7556899,10.2982286 C20.7784643,10.2982286 19.9140084,10.097245 19.1622964,9.6952718 L19.1622964,7.72195853 C19.7803707,8.02343845 20.3034292,8.23584157 20.7314874,8.35917427 C21.1595456,8.48250697 21.5510565,8.54417239 21.9060316,8.54417239 C22.3320017,8.54417239 22.6587827,8.45510011 22.8863844,8.27695288 C23.1139861,8.09880566 23.2277853,7.83387273 23.2277853,7.48214615 C23.2277853,7.28572741 23.1776719,7.11100871 23.0774436,6.95798481 C22.9772153,6.80496091 22.8300073,6.65764907 22.635815,6.51604486 C22.4416227,6.37444065 22.0459358,6.1483341 21.4487424,5.83771842 C20.8891345,5.54994213 20.469435,5.27358968 20.189631,5.00865278 C19.9098271,4.74371588 19.686405,4.43538876 19.5193578,4.08366218 C19.3523107,3.73193561 19.2687884,3.32083279 19.2687884,2.85034139 C19.2687884,1.96417313 19.543368,1.26758224 20.0925354,0.760547823 C20.6417028,0.253513406 21.4007117,0 22.369585,0 C22.8456693,0 23.2998218,0.061665423 23.7320562,0.184998119 C24.1642906,0.308330815 24.6163551,0.481907561 25.0882632,0.705733565 L24.4618397,2.35701307 C23.9732268,2.13775495 23.5691877,1.98473334 23.2497101,1.89794367 C22.9302325,1.81115399 22.6159798,1.7677598 22.3069426,1.7677598 C21.939439,1.7677598 21.6575512,1.86139989 21.4612709,2.04868287 C21.2649905,2.23596586 21.1668518,2.48034364 21.1668518,2.78182357 C21.1668518,2.96910655 21.2065249,3.13240573 21.2858723,3.27172599 C21.3652196,3.41104626 21.4915471,3.54579663 21.6648585,3.67598114 C21.8381699,3.80616566 22.2484732,4.04026587 22.8957808,4.37828882 C23.7518973,4.82594083 24.3386414,5.27472807 24.656031,5.72466402 C24.9734205,6.17459996 25.1321129,6.72616292 25.1321129,7.37936942 Z"/><path fill="#C3C3C4" d="M5.96981644,51.3793694 C5.96981644,52.2838092 5.67226823,52.9963874 5.07716288,53.5171255 C4.48205753,54.0378635 3.65414268,54.2982286 2.5933935,54.2982286 C1.61616788,54.2982286 0.75171202,54.097245 0,53.6952718 L0,51.7219585 C0.618074327,52.0234384 1.14113276,52.2358416 1.56919099,52.3591743 C1.99724923,52.482507 2.38876003,52.5441724 2.74373515,52.5441724 C3.1697053,52.5441724 3.49648632,52.4551001 3.72408801,52.2769529 C3.9516897,52.0988057 4.06548885,51.8338727 4.06548885,51.4821461 C4.06548885,51.2857274 4.01537546,51.1110087 3.91514719,50.9579848 C3.81491892,50.8049609 3.66771086,50.6576491 3.47351859,50.5160449 C3.27932632,50.3744407 2.8836394,50.1483341 2.28644596,49.8377184 C1.72683812,49.5499421 1.30713854,49.2735897 1.02733462,49.0086528 C0.747530705,48.7437159 0.524108539,48.4353888 0.357061424,48.0836622 C0.190014309,47.7319356 0.106492004,47.3208328 0.106492004,46.8503414 C0.106492004,45.9641731 0.381071581,45.2675822 0.930238973,44.7605478 C1.47940637,44.2535134 2.23841531,44 3.20728858,44 C3.68337286,44 4.13752539,44.0616654 4.5697598,44.1849981 C5.00199421,44.3083308 5.45405869,44.4819076 5.92596679,44.7057336 L5.29954324,46.3570131 C4.81093043,46.1377549 4.40689128,45.9847333 4.08741367,45.8979437 C3.76793606,45.811154 3.45368339,45.7677598 3.14464623,45.7677598 C2.77714257,45.7677598 2.49525479,45.8613999 2.29897443,46.0486829 C2.10269407,46.2359659 2.00455536,46.4803436 2.00455536,46.7818236 C2.00455536,46.9691066 2.04422846,47.1324057 2.12357584,47.271726 C2.20292322,47.4110463 2.3292507,47.5457966 2.50256209,47.6759811 C2.67587347,47.8061657 3.08617679,48.0402659 3.73348436,48.3782888 C4.58960083,48.8259408 5.17634502,49.2747281 5.49373454,49.724664 C5.81112406,50.1746 5.96981644,50.7261629 5.96981644,51.3793694 Z M11.5074006,54.161193 L9.30238973,46.3021988 L9.24601161,46.3021988 C9.32535899,47.900956 9.36503209,48.9675394 9.36503209,49.5019811 L9.36503209,54.161193 L7.62983885,54.161193 L7.62983885,44.1438874 L10.2733462,44.1438874 L12.4407717,51.8041799 L12.4783571,51.8041799 L14.7773316,44.1438874 L17.4208389,44.1438874 L17.4208389,54.161193 L15.6104749,54.161193 L15.6104749,49.4197597 C15.6104749,49.1959337 15.613607,48.9378525 15.6198712,48.6455083 C15.6261355,48.3531642 15.6543243,47.5766366 15.7044384,46.3159024 L15.6480603,46.3159024 L13.2864435,54.161193 L11.5074006,54.161193 Z M25.1321129,51.3793694 C25.1321129,52.2838092 24.8345646,52.9963874 24.2394593,53.5171255 C23.644354,54.0378635 22.8164391,54.2982286 21.7556899,54.2982286 C20.7784643,54.2982286 19.9140084,54.097245 19.1622964,53.6952718 L19.1622964,51.7219585 C19.7803707,52.0234384 20.3034292,52.2358416 20.7314874,52.3591743 C21.1595456,52.482507 21.5510565,52.5441724 21.9060316,52.5441724 C22.3320017,52.5441724 22.6587827,52.4551001 22.8863844,52.2769529 C23.1139861,52.0988057 23.2277853,51.8338727 23.2277853,51.4821461 C23.2277853,51.2857274 23.1776719,51.1110087 23.0774436,50.9579848 C22.9772153,50.8049609 22.8300073,50.6576491 22.635815,50.5160449 C22.4416227,50.3744407 22.0459358,50.1483341 21.4487424,49.8377184 C20.8891345,49.5499421 20.469435,49.2735897 20.189631,49.0086528 C19.9098271,48.7437159 19.686405,48.4353888 19.5193578,48.0836622 C19.3523107,47.7319356 19.2687884,47.3208328 19.2687884,46.8503414 C19.2687884,45.9641731 19.543368,45.2675822 20.0925354,44.7605478 C20.6417028,44.2535134 21.4007117,44 22.369585,44 C22.8456693,44 23.2998218,44.0616654 23.7320562,44.1849981 C24.1642906,44.3083308 24.6163551,44.4819076 25.0882632,44.7057336 L24.4618397,46.3570131 C23.9732268,46.1377549 23.5691877,45.9847333 23.2497101,45.8979437 C22.9302325,45.811154 22.6159798,45.7677598 22.3069426,45.7677598 C21.939439,45.7677598 21.6575512,45.8613999 21.4612709,46.0486829 C21.2649905,46.2359659 21.1668518,46.4803436 21.1668518,46.7818236 C21.1668518,46.9691066 21.2065249,47.1324057 21.2858723,47.271726 C21.3652196,47.4110463 21.4915471,47.5457966 21.6648585,47.6759811 C21.8381699,47.8061657 22.2484732,48.0402659 22.8957808,48.3782888 C23.7518973,48.8259408 24.3386414,49.2747281 24.656031,49.724664 C24.9734205,50.1746 25.1321129,50.7261629 25.1321129,51.3793694 Z"/></g><g transform="translate(13 13)" opacity=".85"><path fill="#468EE5" d="M13.8735789,12.6255816 C14.6048791,13.3779658 15.4510432,13.8135567 16.1785146,14.5699009 C16.7872933,15.2034877 16.7834645,15.9796314 16.170857,16.621138 C15.757347,17.052769 15.3170353,17.4646003 14.9264981,17.9160309 C14.3560073,18.5773371 13.6438511,18.7911726 12.8244886,18.7436536 C11.6337328,18.676335 10.5386968,18.2684635 9.48194891,17.7378346 C7.13489643,16.5577793 5.12860688,14.9223335 3.44776505,12.8552568 C2.20340607,11.3267288 1.17728851,9.65960364 0.503420261,7.78260291 C0.174143731,6.87578189 -0.0594128781,5.94520136 0.0133342623,4.95918198 C0.0592798247,4.35331466 0.277521246,3.83456551 0.710175292,3.41085438 C1.17728851,2.95150399 1.61760015,2.47235401 2.07705577,2.00508379 C2.67434808,1.39525655 3.42479227,1.39525655 4.02591338,2.00112387 C4.39730667,2.377316 4.62500522,2.85717876 4.91522803,3.26097151 C5.20548912,3.66476427 5.54977453,4.17907831 5.90585264,4.55131052 C6.53377533,5.20469685 6.53377533,5.96500094 5.90968144,6.61442735 C5.4617122,7.08169758 5.30856033,7.2480141 4.8529335,7.70340457 C4.7342408,7.826162 4.72275441,7.92515993 4.78401516,8.07563678 C5.08649011,8.82010121 5.51914416,9.48140737 6.00540136,10.0991544 C6.98557336,11.3425684 8.09209565,12.4473853 9.41303057,13.3066873 C9.69636154,13.4888435 10.0103229,13.6234807 10.3051402,13.7897972 C10.4544633,13.8769154 10.5578408,13.849196 10.6803623,13.7185187 C11.1283316,13.2433287 11.4690945,13.0928518 11.9247213,12.6255816 C12.5220136,12.0117944 13.2724578,12.0117944 13.8735789,12.6255816 Z M13.562738,9.22569176 C13.2482024,9.2812494 12.9406734,9.08594628 12.8518453,8.76895492 C12.6230747,7.95289519 12.2011796,7.21282627 11.6133061,6.60482059 C10.986915,5.95693855 10.223338,5.50713156 9.38218961,5.28181227 C9.0690706,5.19794123 8.86369394,4.8887905 8.90860573,4.55750383 L8.93265057,4.37994114 C8.98487536,3.9947996 9.34907052,3.74203809 9.71361027,3.83763049 C10.8119772,4.12559566 11.8076558,4.71102982 12.6241085,5.55544255 C13.3886427,6.34936634 13.9385727,7.3117846 14.2335815,8.37450757 C14.3371122,8.74745257 14.1020241,9.13045575 13.7322006,9.19575479 L13.562738,9.22569176 Z M15.1855813,2.97752856 C16.5721035,4.41505769 17.5310256,6.18668502 17.9823642,8.14122093 C18.0674018,8.50957242 17.8362573,8.87614195 17.4753166,8.93989662 L17.3072707,8.9695564 C16.9781857,9.02764838 16.6641477,8.81024893 16.5865763,8.47440836 C16.1978386,6.79108718 15.3701676,5.26323234 14.1747789,4.02690661 C12.9064133,2.71866878 11.3339648,1.84043835 9.59714592,1.4701465 C9.27066441,1.40057076 9.0520784,1.08171823 9.09833027,0.740294172 L9.12233682,0.563127479 C9.17264722,0.191964444 9.51455878,-0.0616682494 9.86960311,0.0130949864 C11.8872642,0.437994097 13.7127963,1.45430683 15.1855813,2.97752856 Z"/><path fill="#C3C3C4" d="M13.8735789,56.6255816 C14.6048791,57.3779658 15.4510432,57.8135567 16.1785146,58.5699009 C16.7872933,59.2034877 16.7834645,59.9796314 16.170857,60.621138 C15.757347,61.052769 15.3170353,61.4646003 14.9264981,61.9160309 C14.3560073,62.5773371 13.6438511,62.7911726 12.8244886,62.7436536 C11.6337328,62.676335 10.5386968,62.2684635 9.48194891,61.7378346 C7.13489643,60.5577793 5.12860688,58.9223335 3.44776505,56.8552568 C2.20340607,55.3267288 1.17728851,53.6596036 0.503420261,51.7826029 C0.174143731,50.8757819 -0.0594128781,49.9452014 0.0133342623,48.959182 C0.0592798247,48.3533147 0.277521246,47.8345655 0.710175292,47.4108544 C1.17728851,46.951504 1.61760015,46.472354 2.07705577,46.0050838 C2.67434808,45.3952565 3.42479227,45.3952565 4.02591338,46.0011239 C4.39730667,46.377316 4.62500522,46.8571788 4.91522803,47.2609715 C5.20548912,47.6647643 5.54977453,48.1790783 5.90585264,48.5513105 C6.53377533,49.2046968 6.53377533,49.9650009 5.90968144,50.6144274 C5.4617122,51.0816976 5.30856033,51.2480141 4.8529335,51.7034046 C4.7342408,51.826162 4.72275441,51.9251599 4.78401516,52.0756368 C5.08649011,52.8201012 5.51914416,53.4814074 6.00540136,54.0991544 C6.98557336,55.3425684 8.09209565,56.4473853 9.41303057,57.3066873 C9.69636154,57.4888435 10.0103229,57.6234807 10.3051402,57.7897972 C10.4544633,57.8769154 10.5578408,57.849196 10.6803623,57.7185187 C11.1283316,57.2433287 11.4690945,57.0928518 11.9247213,56.6255816 C12.5220136,56.0117944 13.2724578,56.0117944 13.8735789,56.6255816 Z M13.562738,53.2256918 C13.2482024,53.2812494 12.9406734,53.0859463 12.8518453,52.7689549 C12.6230747,51.9528952 12.2011796,51.2128263 11.6133061,50.6048206 C10.986915,49.9569385 10.223338,49.5071316 9.38218961,49.2818123 C9.0690706,49.1979412 8.86369394,48.8887905 8.90860573,48.5575038 L8.93265057,48.3799411 C8.98487536,47.9947996 9.34907052,47.7420381 9.71361027,47.8376305 C10.8119772,48.1255957 11.8076558,48.7110298 12.6241085,49.5554425 C13.3886427,50.3493663 13.9385727,51.3117846 14.2335815,52.3745076 C14.3371122,52.7474526 14.1020241,53.1304558 13.7322006,53.1957548 L13.562738,53.2256918 Z M15.1855813,46.9775286 C16.5721035,48.4150577 17.5310256,50.186685 17.9823642,52.1412209 C18.0674018,52.5095724 17.8362573,52.876142 17.4753166,52.9398966 L17.3072707,52.9695564 C16.9781857,53.0276484 16.6641477,52.8102489 16.5865763,52.4744084 C16.1978386,50.7910872 15.3701676,49.2632323 14.1747789,48.0269066 C12.9064133,46.7186688 11.3339648,45.8404384 9.59714592,45.4701465 C9.27066441,45.4005708 9.0520784,45.0817182 9.09833027,44.7402942 L9.12233682,44.5631275 C9.17264722,44.1919644 9.51455878,43.9383318 9.86960311,44.013095 C11.8872642,44.4379941 13.7127963,45.4543068 15.1855813,46.9775286 Z"/></g><rect width="1" height="1" fill="#D8D8D8" fill-rule="nonzero" opacity=".184"/><rect width="1" height="1" x="43" fill="#D8D8D8" fill-rule="nonzero" opacity=".184"/></g></svg>