<svg width="18" height="13" viewBox="0 0 18 13" fill="none" xmlns="http://www.w3.org/2000/svg">
<path fill-rule="evenodd" clip-rule="evenodd" d="M2.00488 0.0130615C0.900313 0.0130615 0.00488281 0.908491 0.00488281 2.01306V10.9198C0.00488281 12.0244 0.900312 12.9198 2.00488 12.9198H15.9822C17.0867 12.9198 17.9822 12.0244 17.9822 10.9198V2.01306C17.9822 0.908492 17.0867 0.0130615 15.9822 0.0130615H2.00488ZM2.42316 1.50727C1.87088 1.50727 1.42316 1.95498 1.42316 2.50727V3.70071H16.5639V2.50727C16.5639 1.95498 16.1162 1.50727 15.5639 1.50727H2.42316ZM16.5639 6.00549H1.42316V10.4256C1.42316 10.9779 1.87088 11.4256 2.42316 11.4256H15.5639C16.1162 11.4256 16.5639 10.9779 16.5639 10.4256V6.00549ZM2.97559 7.27162H5.84786V10.1439H2.97559V7.27162Z" fill="#959CA4"/>
</svg>
