<svg width="21" height="25" viewBox="0 0 21 25" fill="none" xmlns="http://www.w3.org/2000/svg">
	<path fill-rule="evenodd" clip-rule="evenodd" d="M0 1H12.9968L18 6.01203V25H0V1Z" fill="#E5E8EB"/>
	<path opacity="0.3" fill-rule="evenodd" clip-rule="evenodd" d="M13.0078 1L18 6.01172H13.0078V1Z" fill="#535C69"/>
	<path d="M3 12H21V21H3V12Z" fill="#D73B41"/>
	<path fill-rule="evenodd" clip-rule="evenodd" d="M7 18.9833H7.75542V17.2288H7.99267C8.41683 17.2288 8.73316 17.1608 8.98478 17.0473C9.61744 16.7675 9.85468 16.1929 9.85468 15.6106C9.85468 14.9528 9.58149 14.4767 9.11419 14.2194C8.841 14.0682 8.51029 14 8.05737 14H7V18.9833ZM7.75542 16.5788V14.6503H8.0358C8.31618 14.6503 8.51748 14.7033 8.66846 14.794C8.93446 14.9603 9.06386 15.2553 9.06386 15.6106C9.06386 16.0114 8.92727 16.3063 8.6397 16.45C8.49591 16.5332 8.30181 16.5785 8.04299 16.5785H7.75542V16.5788ZM10.9253 18.9833H12.2271C13.895 18.9833 14.8518 17.9398 14.8518 16.4578C14.8518 15.006 13.9669 14.0002 12.2846 14.0002H10.9253V18.9833ZM11.6807 18.3104V14.673H12.2199C13.4493 14.673 14.0466 15.3914 14.0466 16.4651C14.0466 17.4632 13.5643 18.3101 12.2343 18.3101H11.6807V18.3104ZM15.7781 18.9833H16.5329V16.7827H18.0576V16.1097H16.5329V14.673H18.0864L18.302 14H15.7781V18.9833Z" fill="white"/>
</svg>
