<svg xmlns:xlink="http://www.w3.org/1999/xlink" id="svg_wrapper" class="defs-only" xmlns="http://www.w3.org/2000/svg" style="width: 100%; height: 1200px">
    <svg height="1200px">
        <rect width="100%" height="1200" fill="#EBF1F4"/>
        <rect fill="#FFFFFF" width="100%" height="1200" x="20" y="75"/>
        <rect fill="#f9fbfc" width="280" height="374" x="100%" y="75" transform="translate(-300, 0)"/>
        <rect fill="#fff" stroke="#dfe0e1" width="250" height="112" x="100%" y="90"  transform="translate(-285, 0)"/>
        <rect fill="none" stroke="#C6CDD3" x="100%" y="20" width="42" height="39" rx="2" transform="translate(-265, 0)"/>
        <rect fill="none" stroke="#C6CDD3" x="100%" y="20"  width="83"  height="39" rx="2" transform="translate(-204, 0)"/>
        <rect fill="none" stroke="#C6CDD3" x="100%" y="20"  width="83"  height="39" rx="2" transform="translate(-104, 0)"/>
        <rect fill="#fff" stroke="#afafaf" x="100%" y="224" width="14" height="14" rx="2" transform="translate(-280, 0)"/>
    </svg>

    <svg height="1200">
        <defs>
            <g id="a2">
                <rect x="0" y="0" width="100%" height="10" transform="translate(-545, 0)"/>
            </g>
            <g id="a3">
                <rect x="0"    y="0"   width="100%" height="10" transform="translate(-545, 0)"/>
                <rect x="0"    y="43"  width="100%" height="8" transform="translate(-400, 0)"/>
                <rect x="0"    y="63"  width="100%" height="8" transform="translate(-400, 0)"/>
                <rect x="0"    y="83"  width="100%" height="8" transform="translate(-400, 0)"/>
                <rect x="0"    y="103"  width="100%" height="8" transform="translate(-400, 0)"/>
                <rect x="0"    y="123" width="100%" height="8" transform="translate(-400, 0)"/>
                <rect x="0"    y="143" width="100%" height="8" transform="translate(-400, 0)"/>
                <rect x="0"    y="163" width="100%" height="8" transform="translate(-600, 0)"/>
            </g>
            <g id="a8">
                <rect x="0" y="0" width="100%" height="255"/>
            </g>
        </defs>
        <use xlink:href="#a2" fill="#9EA6AD" opacity="0.2" x="0" y="30"  preserveAspectRatio="none"/>
        <use xlink:href="#a3" fill="#9EA6AD" opacity="0.2" x="0" y="105" preserveAspectRatio="none"/>
    </svg>

    <svg height="1200">
        <defs>
            <g id="a4">
                <rect x="100%" y="0" width="13" height="12" transform="translate(-251, 0)"/>
                <rect x="100%" y="0" width="60" height="12" transform="translate(-191, 0)"/>
                <rect x="100%" y="0" width="60" height="12" transform="translate(-91, 0)"/>
            </g>
            <g id="a5">
                <rect x="0" y="0" width="112" height="7" transform="translate(60, 0)"/>
                <polygon fill-rule="evenodd" points="0 0 22.851 0 32 9.6 32 42 0 42" transform="translate(75, 25)"/>
                <polygon fill-rule="evenodd" points="0 0 22.851 0 32 9.6 32 42 0 42" transform="translate(125, 25)"/>
                <rect x="0" y="120" width="152" height="7" transform="translate(30, 0)"/>
                <rect x="0" y="150" width="212" height="1"/>
                <rect x="0" y="170" width="111" height="7"/>
                <rect x="0" y="162" width="53" height="22" transform="translate(130, 0)" rx="12"/>
            </g>
        </defs>
        <use xlink:href="#a4" fill="#9EA6AD" opacity="0.2" x="0"    y="33"  preserveAspectRatio="none"/>
        <use xlink:href="#a5" fill="#9EA6AD" opacity="0.2" x="100%" y="108" preserveAspectRatio="none"  transform="translate(-275, 0)"/>
    </svg>

    <rect id="msk1" width="100%" fill="url(#msk_gd)" mask="url(#c1)" height="1200"/>

    <linearGradient x1="66.6%" y1="50%" x2="33.3%" y2="50%" id="msk_gd">
        <stop stop-color="#000000" stop-opacity="0" offset="0%"/>
        <stop stop-color="#000000" stop-opacity="0.07" offset="50%"/>
        <stop stop-color="#000000" stop-opacity="0" offset="100%"/>
    </linearGradient>

    <mask id="c1" fill="white">
        <use xlink:href="#a2" x="0"    y="30"  preserveAspectRatio="none"/>
        <use xlink:href="#a3" x="0"    y="105" preserveAspectRatio="none"/>
        <use xlink:href="#a4" x="0"    y="32"  preserveAspectRatio="none"/>
        <use xlink:href="#a5" x="100%" y="108" preserveAspectRatio="none"  transform="translate(-275, 0)"/>
        <use xlink:href="#a6" x="45"   y="672"/>
        <use xlink:href="#a7" x="45"   y="746"/>
    </mask>

    <animate xlink:href="#msk1" attributeName="x" from="-100%" to="100%" dur="1s" begin="0s" repeatCount="indefinite"/>

    <svg viewBox="0 0 100% 1200" height="1200px">
        <rect fill="#EBF1F4" width="20"   height="1200" x="100%" y="0"   transform="translate(-20, 0)"/>
        <rect fill="#EBF1F4" width="35"   height="75"   x="0"    y="0"/>
        <rect fill="#EBF1F4" width="20"   height="1200" x="0"    y="0"/>
        <rect fill="#EBF1F4" width="15"   height="1200" x="100%" y="75"  transform="translate(-315, 0)"/>
        <rect fill="#EBF1F4" width="280"  height="900" x="100%" y="449" transform="translate(-300, 0)"/>
        <rect fill="#FFFFFF" width="15"   height="1200" x="20"   y="75"/>
        <rect fill="#fff" x="100%" y="273" width="16" height="16" rx="8" transform="translate(-142, 0)"/>
        <rect fill="#fff" x="100%" y="273" width="16" height="16" rx="8" transform="translate(-142, 0)"/>
    </svg>

</svg>
