<svg width="100" height="1481" viewBox="0 0 100 1481" xmlns="http://www.w3.org/2000/svg"><title>Group 2</title><g fill="none" fill-rule="evenodd"><path fill="#86E0FB" d="M0 1413.83h99.795v66.863H0z"/><path fill="#2FC7F7" d="M0 1407.143h99.795v6.686H0z"/><path d="M0 1398.818h49.887l11.088 11.142H0v-11.142z" fill="#2FC7F7"/><path d="M96.967 1468.155c-3.552-2.405-6.43-3.332-9.148-3.51-3.937-.257-10.35 3.135-13.475 3.19-3.123.054-9.314-5.762-7.875-4.583 1.44 1.178-8.945-6.63-9.43-7.604-.486-.975.9-2.067 2.152-1.403 1.25.664 11.103 6.202 12.66 6.722 1.557.52 8.15.168 8.15.168l.786-.29c.457-.324.558-.774-.12-1.135-.915-.485-9.315-2.754-9.315-2.754s-.826-1.822.56-2.17c1.388-.35 14.228.532 16.113 1.07 1.884.54 5.39 3.02 5.39 3.02l4.145 2.292-.593 6.987zM14.79 1469.116c0 1.365.665 2.048 1.992 2.048s1.99-.683 1.99-2.048v-18.435h2.04v18.436c0 1.365.664 2.048 1.99 2.048 1.328 0 1.99-.683 1.99-2.048v-31.407h.972v11.313c0 .715.243 1.236.728 1.56.45.326 1.056.326 1.505 0 .518-.324.777-.845.777-1.56v-12.192c0-1.3-.437-2.308-1.31-3.023-.874-.715-2.088-1.073-3.64-1.073H15.86c-1.49 0-2.704.326-3.642.976-.938.65-1.407 1.658-1.407 3.023v12.973a1.32 1.32 0 0 0 .778 1.268 1.55 1.55 0 0 0 1.505 0 1.33 1.33 0 0 0 .73-1.268v-11.997h.968v31.406zm.78-42.283a4.14 4.14 0 0 0 2.545 3.83 4.104 4.104 0 0 0 4.494-.904 4.06 4.06 0 0 0 1.213-2.977 3.948 3.948 0 0 0-1.214-2.877 4.11 4.11 0 0 0-4.492-.896 4.147 4.147 0 0 0-2.548 3.822zM36.413 1469.116c0 1.365.664 2.048 1.99 2.048 1.33 0 1.992-.683 1.992-2.048v-18.435h2.04v18.436c0 1.365.663 2.048 1.99 2.048 1.328 0 1.99-.683 1.99-2.048v-31.407h.97v11.313c0 .715.244 1.236.73 1.56.45.326 1.055.326 1.505 0 .517-.324.776-.845.776-1.56v-12.192c0-1.3-.437-2.308-1.31-3.023-.874-.715-2.088-1.073-3.64-1.073h-7.963c-1.49 0-2.705.326-3.643.976-.938.65-1.407 1.658-1.407 3.023v12.973a1.32 1.32 0 0 0 .777 1.268 1.55 1.55 0 0 0 1.505 0 1.33 1.33 0 0 0 .73-1.268v-11.997h.968v31.406zm.78-42.283a4.14 4.14 0 0 0 2.544 3.83 4.104 4.104 0 0 0 4.494-.904 4.06 4.06 0 0 0 1.215-2.977 3.948 3.948 0 0 0-1.214-2.877 4.11 4.11 0 0 0-4.49-.896 4.147 4.147 0 0 0-2.548 3.822z" fill="#3EAFD2"/><path fill="#86E0FB" d="M0 1326.03h100v66.938H0z"/><path fill="#2FC7F7" d="M0 1319h100v7H0z"/><path d="M0 1311.002h49.99l11.11 11.155H0v-11.155z" fill="#2FC7F7"/><path d="M33.488 1381.714c0 1.367.665 2.05 1.995 2.05s1.995-.684 1.995-2.05v-18.457h2.044v18.457c0 1.367.665 2.05 1.995 2.05s1.994-.684 1.993-2.05v-31.443h.973v11.33c0 .714.244 1.236.73 1.56.45.327 1.058.327 1.51 0 .517-.324.777-.846.777-1.56v-12.207c0-1.302-.438-2.31-1.313-3.028-.876-.716-2.092-1.074-3.65-1.074H34.56c-1.493 0-2.71.327-3.65.978-.94.652-1.41 1.66-1.41 3.026v12.988a1.324 1.324 0 0 0 .778 1.27c.47.26 1.04.26 1.51 0 .473-.24.76-.738.73-1.27v-12.01h.97v31.442zm.78-42.33a4.144 4.144 0 0 0 2.55 3.835 4.115 4.115 0 0 0 4.504-.908 4.06 4.06 0 0 0 1.216-2.977 3.953 3.953 0 0 0-1.216-2.882 4.122 4.122 0 0 0-4.5-.896 4.15 4.15 0 0 0-2.554 3.827zM55.155 1381.714c0 1.367.665 2.05 1.995 2.05s1.995-.684 1.995-2.05v-18.457h2.043v18.457c0 1.367.665 2.05 1.995 2.05s1.995-.684 1.994-2.05v-31.443h.973v11.33c0 .714.243 1.236.73 1.56.45.327 1.058.327 1.508 0 .52-.324.78-.846.78-1.56v-12.207c0-1.302-.44-2.31-1.315-3.028-.875-.716-2.09-1.074-3.648-1.074h-7.978c-1.494 0-2.71.327-3.65.978-.94.652-1.41 1.66-1.41 3.026v12.988a1.324 1.324 0 0 0 .778 1.27c.47.26 1.04.26 1.508 0 .474-.24.76-.738.73-1.27v-12.01h.972v31.442zm.78-42.33a4.144 4.144 0 0 0 2.55 3.835 4.115 4.115 0 0 0 4.503-.908 4.06 4.06 0 0 0 1.217-2.977 3.953 3.953 0 0 0-1.217-2.882 4.122 4.122 0 0 0-4.5-.896 4.15 4.15 0 0 0-2.553 3.827z" fill="#3EAFD2"/><path fill="#86E0FB" d="M0 1239.013h100v66.864H0z"/><path fill="#2FC7F7" d="M0 1232h100v7.013H0z"/><path d="M0 1224.002h49.99l11.11 11.142H0v-11.142z" fill="#2FC7F7"/><path d="M0 1122h54l21 22v75H0v-97z" fill="#E5E8EB"/><path d="M75 1144H54v-22l21 22z" fill="#535C69" opacity=".3"/><g transform="translate(9.992 1153.593)" fill="#B9BEC4"><path d="M53.14.407H.008v55.001h55v-55H53.14zm-.132 53h-51v-51h51v51z"/><path d="M50.008 50.407v-3l-12-12-6 6-15-15-12 12v12h45z"/><ellipse cx="41.712" cy="15.253" rx="5.231" ry="5.224"/></g><g><path d="M0 1020h54l21 22v75H0v-97z" fill="#E5E8EB"/><path d="M74.953 1042H54v-22l20.953 22z" fill="#B9BDC4"/><path d="M33.235 1070.177l11.516 9.403-11.515 9.402v-18.805z" fill="#31404A" opacity=".3"/><path d="M10.002 1059.032v39.83H65v-39.83H10.002zM63 1097H12v-36h51v36zm-6 0h-2v-36h2v36zm0-36h6v3h-6v-3zm0 6h6v4h-6v-4zm0 7h6v4h-6v-4zm0 7h6v4h-6v-4zm0 7h6v4h-6v-4zm6 7v2h-6v-2h6zm-45-34h2v36h-2v-36zm0 36h-6v-2h6v2zm0-5h-6v-4h6v4zm0-7h-6v-4h6v4zm0-7h-6v-4h6v4zm0-7h-6v-4h6v4zm0-7h-6v-3h6v3z" fill="#B9BEC4"/></g><g><path d="M0 918h54l21 22v75H0v-97z" fill="#E5E8EB"/><path d="M75 940H54v-22l21 22zM59.608 972.36v5.346H54.04a15.876 15.876 0 0 1-2.65 6.434l5.587 4.874-3.844 4.766-6.157-5.374a15.86 15.86 0 0 1-6.01 2.397v5.615H35.64v-5.59c-2.15-.376-4.2-1.198-6.02-2.412l-6.147 5.364-3.843-4.766 5.593-4.883a15.98 15.98 0 0 1-2.63-6.424H17v-5.346h5.568a15.922 15.922 0 0 1 2.65-6.434l-5.586-4.874 3.843-4.766 6.16 5.374a15.81 15.81 0 0 1 6.007-2.395v-5.617h5.326v5.617a15.83 15.83 0 0 1 6.01 2.395l6.157-5.374 3.844 4.766-5.586 4.874a15.876 15.876 0 0 1 2.65 6.434h5.568zm-21.305-5.346a7.988 7.988 0 0 0-7.38 4.95 8.04 8.04 0 0 0 1.73 8.74 7.967 7.967 0 0 0 8.707 1.737 8.02 8.02 0 0 0 4.932-7.407c0-4.428-3.577-8.018-7.99-8.02z" fill="#535C69" opacity=".3"/></g><g><path d="M0 816h54l21 22v75H0v-97z" fill="#E5E8EB"/><path d="M75 838H54v-22l21 22z" fill="#535C69" opacity=".3"/><path fill="#AC5FBD" d="M30 860h55v28H30z"/><path d="M39.04 880.605h10.872v-1.935h-7.167l6.992-12.39h-10.48l.607 1.935h6.28l-7.103 12.39zm12.666 0h2.273V866.28h-2.274v14.325zm5.282 0h2.274v-5.043h.714c1.28 0 2.232-.196 2.99-.52 1.904-.806 2.62-2.457 2.62-4.132 0-1.89-.824-3.26-2.23-3.998-.824-.435-1.82-.63-3.183-.63h-3.185v14.323zm2.274-6.912v-5.543h.846c.844 0 1.45.152 1.905.413.8.478 1.19 1.326 1.19 2.347 0 1.152-.41 2-1.277 2.414-.433.24-1.017.37-1.797.37h-.868z" fill="#FFF"/><path d="M26 818v3h-5v-3h5zm0 4v2h-5v-2h5zm-5 3h5v2h-5v-2zm0 3h5v2h-5v-2zm0 3h5v2h-5v-2zm0 3h5v2h-5v-2zm5 3v2h-5v-2h5zm-5 3h5v2h-5v-2zm0 3h5v2h-5v-2zm0 3h5v2h-5v-2zm0 3h5v2h-5v-2zm0 3h5v3h-5v-3zm7-34h5v3h-5v-3zm0 4h5v2h-5v-2zm0 3h5v2h-5v-2zm0 3h5v2h-5v-2zm0 3h5v2h-5v-2zm0 3h5v2h-5v-2zm0 3h5v2h-5v-2zm0 3h5v2h-5v-2zm0 3h5v2h-5v-2zm0 3h5v2h-5v-2zm0 3h5v2h-5v-2zm0 3h5v3h-5v-3z" fill="#B9BEC4"/></g><g><path d="M0 714h54l21 22v75H0v-97z" fill="#E5E8EB"/><path d="M75 736H54v-22l21 22z" fill="#535C69" opacity=".3"/><path fill="#7EAB34" d="M30 758h55v28H30z"/><path d="M40.08 778.605h2.273v-5.738h1.344c.39.087.91.695 1.602 1.934l2.186 3.805h2.62l-2.447-4.217c-.76-1.282-1.322-2.065-1.755-2.304v-.043c1.71-.542 2.815-1.804 2.815-3.738 0-1.39-.563-2.652-1.97-3.37-.736-.412-1.71-.65-3.096-.65H40.08v14.323zm2.273-7.63v-4.825h1.236c.887 0 1.45.196 1.84.5.627.39.93 1.087.93 1.89 0 .957-.433 1.652-1.082 2.045a3.38 3.38 0 0 1-1.71.39h-1.215zm8.054 7.63h2.38l1.365-3.674h5.284l1.408 3.675h2.448l-5.652-14.39h-1.754l-5.48 14.39zm4.418-5.543l1.17-3.26c.298-.755.558-1.524.78-2.304h.042c.15.478.368 1.13.758 2.303l1.17 3.262h-3.92zm9.936 5.543h2.274v-5.738h1.342c.39.087.91.695 1.604 1.934l2.186 3.805h2.62l-2.446-4.217c-.758-1.282-1.32-2.065-1.754-2.304v-.043c1.71-.542 2.814-1.804 2.814-3.738 0-1.39-.562-2.652-1.97-3.37-.736-.412-1.71-.65-3.097-.65H64.76v14.323zm2.274-7.63v-4.825h1.234c.89 0 1.452.196 1.842.5.628.39.93 1.087.93 1.89 0 .957-.432 1.652-1.082 2.045a3.38 3.38 0 0 1-1.712.39h-1.212z" fill="#FFF"/><path d="M26 716v3h-5v-3h5zm0 4v2h-5v-2h5zm-5 3h5v2h-5v-2zm0 3h5v2h-5v-2zm0 3h5v2h-5v-2zm0 3h5v2h-5v-2zm5 3v2h-5v-2h5zm-5 3h5v2h-5v-2zm0 3h5v2h-5v-2zm0 3h5v2h-5v-2zm0 3h5v2h-5v-2zm0 3h5v3h-5v-3zm7-34h5v3h-5v-3zm0 4h5v2h-5v-2zm0 3h5v2h-5v-2zm0 3h5v2h-5v-2zm0 3h5v2h-5v-2zm0 3h5v2h-5v-2zm0 3h5v2h-5v-2zm0 3h5v2h-5v-2zm0 3h5v2h-5v-2zm0 3h5v2h-5v-2zm0 3h5v2h-5v-2zm0 3h5v3h-5v-3z" fill="#B9BEC4"/></g><g><path d="M54 612l21 22v75H0v-97h54z" fill="#E5E8EB"/><path d="M54 612l21 22H54v-22z" fill="#535C69" opacity=".3"/><path fill="#E89E00" d="M30 656h55v28H30z"/><path d="M42.978 676.605h2.275v-5.043h.714c1.277 0 2.23-.196 2.988-.52 1.905-.806 2.62-2.457 2.62-4.132 0-1.89-.823-3.26-2.23-3.998-.823-.435-1.82-.63-3.183-.63h-3.184v14.323zm2.275-6.912v-5.543h.844c.844 0 1.45.152 1.905.413.8.478 1.19 1.326 1.19 2.347 0 1.152-.41 2-1.276 2.414-.433.24-1.018.37-1.797.37h-.867zm9.112 6.912h2.275v-5.043h.715c1.277 0 2.23-.196 2.987-.52 1.906-.806 2.62-2.457 2.62-4.132 0-1.89-.823-3.26-2.23-3.998-.823-.435-1.818-.63-3.182-.63h-3.185v14.323zm2.275-6.912v-5.543h.845c.844 0 1.45.152 1.905.413.8.478 1.19 1.326 1.19 2.347 0 1.152-.41 2-1.277 2.414-.433.24-1.017.37-1.797.37h-.866zm12.252 6.912h2.275v-12.39h3.875l.65-1.934H64.757v1.935h4.135v12.39z" fill="#FFF"/></g><g><path d="M0 510h54l21 22v75H0v-97z" fill="#E5E8EB"/><path d="M54 510l21 22H54v-22z" fill="#535C69" opacity=".3"/><path fill="#D73B41" d="M30 554h55v28H30z"/><path d="M41.68 574.605h2.274v-5.043h.714c1.277 0 2.23-.196 2.988-.522 1.905-.804 2.62-2.456 2.62-4.13 0-1.89-.823-3.26-2.23-4-.823-.434-1.82-.63-3.183-.63H41.68v14.325zm2.274-6.912v-5.543h.844c.844 0 1.45.152 1.905.413.8.478 1.19 1.326 1.19 2.347 0 1.152-.41 2-1.276 2.413-.433.24-1.018.37-1.797.37h-.866zm9.545 6.912h3.92c5.022 0 7.903-3 7.903-7.26 0-4.173-2.664-7.064-7.73-7.064H53.5v14.325zm2.274-1.935v-10.455h1.624c3.702 0 5.5 2.065 5.5 5.15 0 2.87-1.45 5.305-5.457 5.305h-1.666zm12.34 1.935h2.272v-6.326h4.592v-1.935h-4.592v-4.13h4.678l.65-1.934h-7.6v14.325z" fill="#FFF"/></g><g><path d="M0 408h54l21 22v75H0v-97z" fill="#E5E8EB"/><path d="M54 408l21 22H54v-22z" fill="#535C69" opacity=".3"/><path fill="#746781" d="M30 452h55v28H30z"/><path d="M40.08 472.605h2.273v-5.043h.716c1.277 0 2.23-.196 2.987-.52 1.905-.806 2.62-2.457 2.62-4.132 0-1.89-.823-3.26-2.23-3.998-.823-.435-1.82-.63-3.183-.63H40.08v14.323zm2.273-6.912v-5.543h.846c.844 0 1.45.152 1.904.413.8.478 1.19 1.326 1.19 2.347 0 1.152-.41 2-1.276 2.414-.433.24-1.018.37-1.797.37h-.867zm10.414 6.912h2.273v-6.347h7.146v6.347h2.275V458.28h-2.274v6.043H55.04v-6.042h-2.273v14.325zm16 0h2.272v-5.043h.713c1.28 0 2.232-.196 2.99-.52 1.905-.806 2.62-2.457 2.62-4.132 0-1.89-.823-3.26-2.23-3.998-.823-.435-1.82-.63-3.185-.63h-3.182v14.323zm2.272-6.912v-5.543h.843c.846 0 1.452.152 1.907.413.8.478 1.19 1.326 1.19 2.347 0 1.152-.41 2-1.276 2.414-.433.24-1.018.37-1.8.37h-.865z" fill="#FFF"/></g><g><path d="M0 306h54l21 22v75H0v-97z" fill="#E5E8EB"/><path d="M75 328H54v-22l21 22z" fill="#535C69" opacity=".3"/><path d="M30 350h55v28H30v-28z" fill="#54B51E"/><path d="M41.96 370.605h2.49l3.877-5.52 3.637 5.52h2.578l-4.786-7.26 4.938-7.064H52.18l-3.723 5.39-3.552-5.39h-2.577l4.678 7.13-5.046 7.195zm14.722 0h7.406v-1.935h-5.133v-12.39h-2.273v14.325zm7.945-.98c.996.72 2.468 1.198 4.114 1.198 2.86 0 4.917-1.523 4.917-4.022 0-4.5-6.194-4.172-6.194-6.998 0-1.282 1.06-1.717 2.144-1.717a7.2 7.2 0 0 1 3.292.848v-2.065c-.737-.39-1.95-.717-3.358-.717-2.858 0-4.503 1.76-4.503 3.87 0 4.325 6.214 3.956 6.214 6.976 0 1.39-1.234 1.89-2.557 1.89a5.693 5.693 0 0 1-3.16-1l-.91 1.74z" fill="#FFF"/></g><g><path d="M54 204l21 22v75H0v-97h54z" fill="#E5E8EB"/><path d="M75 226H54v-22l21 22z" fill="#535C69" opacity=".3"/><path fill="#2C77B1" d="M30 248h55v28H30z"/><path d="M37.55 268.605h3.92c5.022 0 7.903-3 7.903-7.26 0-4.173-2.665-7.064-7.73-7.064h-4.094v14.325zm2.274-1.935v-10.455h1.623c3.702 0 5.5 2.065 5.5 5.152 0 2.87-1.45 5.303-5.456 5.303h-1.666zm18.813 2.153c4.072 0 7.103-2.892 7.103-7.325 0-4.305-2.923-7.347-7.103-7.347-4.158 0-7.124 3-7.124 7.348 0 4.41 2.987 7.325 7.124 7.325zm0-1.936c-2.814 0-4.7-2.043-4.7-5.39 0-3.346 1.886-5.412 4.7-5.412 2.923 0 4.7 2.173 4.7 5.413 0 3.346-1.885 5.39-4.7 5.39zm20.502-.956a6.747 6.747 0 0 1-3.465.957c-3.03 0-4.916-2.195-4.916-5.346 0-2.978 1.82-5.455 5.024-5.455a7.434 7.434 0 0 1 3.615.913v-2.13c-.824-.39-2.123-.717-3.66-.717-4.46 0-7.406 3.304-7.406 7.456 0 4.194 2.555 7.217 7.08 7.217 1.522.02 3.022-.354 4.355-1.09l-.63-1.802z" fill="#FFF"/></g><g><path d="M54 102l21 22v75H0v-97h54z" fill="#E5E8EB"/><path d="M75 124H54v-22l21 22z" fill="#535C69" opacity=".3"/><path d="M30 146h55v28H30v-28z" fill="#9BA4AE"/><path d="M44.453 166.605h2.273v-12.39h3.876l.65-1.934H40.316v1.935h4.136v12.39zm7.056 0H54l3.876-5.52 3.637 5.52h2.578l-4.785-7.26 4.938-7.064H61.73l-3.724 5.39-3.552-5.39h-2.577l4.678 7.13-5.046 7.195zm18.293 0h2.275v-12.39h3.875l.65-1.934H65.668v1.935h4.135v12.39z" fill="#FFF"/></g><g><path d="M54 0l21 22.002V97.01H0V0h54z" fill="#E5E8EB"/><path d="M75 22H54V0l21 22z" fill="#535C69" opacity=".3"/></g></g></svg>
