<?xml version="1.0" encoding="UTF-8"?>
<svg width="25px" height="29px" viewBox="0 0 25 29" version="1.1" xmlns="http://www.w3.org/2000/svg" xmlns:xlink="http://www.w3.org/1999/xlink">
    <!-- Generator: Sketch 41.2 (35397) - http://www.bohemiancoding.com/sketch -->
    <title>Linux_Tux</title>
    <desc>Created with Sketch.</desc>
    <defs></defs>
    <g id="Page-1" stroke="none" stroke-width="1" fill="none" fill-rule="evenodd">
        <g id="icons" transform="translate(-416.000000, -68.000000)">
            <g id="Linux_Tux" transform="translate(416.000000, 68.000000)">
                <g id="Linux_Tux-2">
                    <g id="Page-1">
                        <g id="Linux_Tux-2">
                            <polyline id="Fill-2" fill="#FFFFFF" points="8.60347682 7.37222599 8.55562914 4.14552542 10.4956954 3.02124294 13.3764901 1.10134463 14.5604305 1.05399435 15.7923841 2.36440113 16.4562914 6.7189887 15.5562914 8.31038418 11.8198675 8.21551977 8.60347682 7.37222599"></polyline>
                            <polyline id="Fill-3" fill="#FFFFFF" points="4.77119205 16.5960282 5.7634106 13.833 7.70347682 11.5406893 8.69569536 9.57327684 9.1236755 8.91987571 16.2165563 7.84310734 17.6365894 10.0441582 21.609106 19.4504802 20.2369205 21.1331356 16.6407285 27.082887 15.7923841 27.2690113 9.21589404 27.4551356 4.62748344 22.3997966 3.87119205 18.1875876 4.77119205 16.5960282"></polyline>
                            <path d="M13.8521523,9.43466667 C13.8521523,9.43466667 13.6160596,9.38715254 14.2764901,9.24477401 C14.9402318,9.10616384 14.9440397,8.96738983 15.1284768,8.77749718 C15.3165563,8.59137288 15.4124172,8.16800565 15.4124172,7.70072881 C15.4124172,7.23361582 15.6485099,5.87569492 15.6004967,5.50344633 C15.5562914,5.12742938 14.7485099,3.72576271 14.4201987,3.5360339 C14.088245,3.3499096 10.3998344,3.02124294 10.3998344,3.02124294 L9.26374172,3.91188701 L8.41175497,4.70406215 L8.60347682,7.23361582 C8.60347682,7.23361582 8.36374172,8.02923164 8.41175497,8.35412994 C8.45976821,8.68263277 8.93543046,9.05864972 9.1236755,9.24477401 C9.31175497,9.43466667 10.0198675,10.1865367 10.2559603,10.4165706 C10.4956954,10.6500452 10.5437086,10.8836836 11.107947,10.6975593 C11.6759934,10.511435 12.007947,10.511435 12.4359272,10.1829322 C12.8600993,9.85426554 13.8521523,9.43466667 13.8521523,9.43466667" id="Fill-4" fill="#FCD01F"></path>
                            <path d="M11.6759934,5.4559322 C11.8198675,5.0800791 12.007947,4.37916384 12.3362583,4.14552542 C12.6682119,3.91188701 13.3801325,3.71855367 13.8043046,3.76967232 C14.2321192,3.8170226 15.0324503,4.23678531 15.2243377,4.56528814 C15.4124172,4.89379096 15.4124172,6.20419774 15.4124172,6.20419774 L15.3165563,7.2809661 L14.6562914,7.23361582 L13.2362583,6.67147458 L13.0001656,6.67147458 C13.0001656,6.67147458 12.7640728,6.76273446 12.0523179,6.39048588 C11.3440397,6.01446893 11.5321192,5.83194915 11.6759934,5.4559322" id="Fill-5" fill="#FFFFFF"></path>
                            <path d="M10.1637417,6.48535028 C10.1859272,6.46339548 10.2301325,6.43423164 10.2892384,6.40129944 C10.5768212,6.24433898 11.2039735,6.01446893 11.2039735,6.01446893 C11.2039735,6.01446893 11.8162252,4.47402825 11.2961921,3.86453672 C10.7798013,3.25488136 9.64370861,3.3499096 9.64370861,3.3499096 C9.64370861,3.3499096 8.41539735,4.05066102 8.45976821,4.33164972 C8.50761589,4.61280226 8.55562914,5.59470621 8.60347682,5.73331638 C8.64784768,5.87569492 8.83956954,7.37222599 8.83956954,7.37222599 L9.26374172,7.18610169 L9.87980132,6.7189887 C9.87980132,6.7189887 10.0236755,6.62772881 10.1637417,6.48535028" id="Fill-6" fill="#FFFFFF"></path>
                            <path d="M19.1968543,20.622113 C19.1968543,20.622113 19.4955298,20.6440678 19.8827815,20.6733955 C19.9824503,20.6806045 20.0821192,20.684209 20.1816225,20.6879774 C20.6905629,20.7061638 21.1369205,20.7828418 21.6127483,20.8411695 C21.9263245,20.8777062 22.4463576,21.0748079 22.4832781,21.4654068 C22.5349338,22.0421299 22.3652318,22.6771808 22.8594371,22.9144237 C23.3647351,23.253904 24.4933775,24.0387062 24.4933775,24.0387062 L24.8253311,24.6445932 L23.8332781,25.5352373 L18.9607616,28.4370395 L16.7402318,27.688774 L16.7402318,25.9112542 L16.8324503,23.5240791 L16.5963576,21.3705424 L16.9726821,20.5272486 L17.9205298,20.2462599 L19.1968543,20.622113" id="Fill-7" fill="#FCD01F"></path>
                            <path d="M5.10695364,19.5710678 C5.0589404,19.5271582 4.19586093,19.7789831 4.14056291,19.7899605 C3.7384106,19.848452 3.2294702,20.1220678 3.2294702,20.5565763 C3.2294702,20.7792373 3.21109272,21.0091073 3.10778146,21.2098136 C3.02665563,21.366774 2.84221854,21.6040169 2.84586093,21.6551356 C2.78311258,21.826678 2.66887417,22.0676893 2.5102649,22.1699266 C2.32582781,22.188113 1.50695364,22.2610226 1.50695364,22.2610226 L0.795033113,22.2610226 L0.370860927,22.7720452 L0.70281457,24.1335706 L0.606953642,25.2067345 L0.278642384,26.4258814 L1.07913907,26.8456441 L7.13559603,28.4370395 L8.50761589,28.0172768 L9.21589404,26.2835028 L9.07201987,25.6301017 L8.41175497,24.3196949 C8.41175497,24.3196949 5.53476821,20.1841638 5.10695364,19.5710678" id="Fill-8" fill="#FCD01F"></path>
                            <path d="M8.19039735,4.87920904 C8.09089404,1.61236723 9.3781457,0.170559322 12.0523179,0.12320904 C14.7226821,0.0720903955 16.3971854,1.46638418 16.7402318,3.29518644 C17.0796358,5.12022034 16.884106,7.52558192 17.5665563,8.77389266 C18.2451987,10.0259718 18.6804636,10.9859209 19.8496689,12.4277288 C21.0152318,13.8695367 21.7418874,15.336904 22.0811258,17.1180282 C22.4241722,18.8957119 22.6160596,19.7352373 21.7418874,20.6514407 C20.8677152,21.5638757 19.3147351,23.0531977 18.1493377,21.3705424 C17.5627483,20.5272486 17.5001656,19.4798079 18.4885762,19.2571469 C19.1193709,19.111 19.5730132,19.1585141 20.0413907,19.3993616 C20.5135762,19.6403729 20.6241722,19.5271582 20.0599338,19.111 C19.4918874,18.6950056 19.3774834,19.0782316 19.5730132,18.4064802 C19.768543,17.7348927 20.0230132,16.5267232 19.4918874,15.1981299 C19.244702,14.5848701 18.4074503,12.9058192 17.6218543,12.4934294 C17.5518212,12.4532881 17.3451987,12.3692373 17.4852649,12.5407797 C17.6955298,12.7999774 18.8279801,14.4498644 19.1488411,15.4317684 C19.4918874,16.4865819 19.5397351,17.4940452 19.3627483,18.1328644 C19.1857616,18.7752881 18.8758278,19.0307175 18.5033113,19.0307175 C18.1307947,19.0307175 17.7913907,19.2058644 17.7913907,18.3591299 C17.7913907,17.5086271 17.8799669,16.2273842 17.4190397,15.1434068 C16.957947,14.0628701 16.3971854,13.3183729 16.2754967,12.8620734 C16.1574503,12.405774 15.888245,11.1794181 15.3312914,10.4821073 C14.7706954,9.78496045 14.5271523,9.32882486 14.818543,8.5330452 C15.1099338,7.74087006 14.8923841,7.52558192 14.3096026,7.35764407 C13.7268212,7.18970621 12.9485099,6.94885876 12.7567881,6.56202825 C12.5612583,6.17863842 12.682947,5.40858192 13.1182119,5.21868927 C13.5571192,5.02519209 14.2837748,5.28815819 14.3096026,5.84292655 C14.3354305,6.3940904 14.0662252,6.68245198 14.1399007,6.80287571 C14.2137417,6.92329944 14.6009934,7.11679661 14.7965232,6.90150847 C14.988245,6.68245198 15.0399007,6.01086441 14.8443709,5.38662712 C14.6488411,4.76238983 14.5529801,4.3280452 13.8485099,4.18583051 C13.1440397,4.03968362 12.8268212,4.08719774 12.4874172,4.52154237 C12.1481788,4.95228249 12.0006623,5.64942938 12.1001656,6.15684746 C12.1960265,6.66049718 12.0006623,6.37213559 11.6612583,6.34657627 C11.3220199,6.32462147 11.4178808,6.29922599 11.0784768,6.32462147 C10.7392384,6.34657627 10.8609272,6.13128814 10.8350993,5.76985311 C10.8129139,5.40858192 10.7649007,4.6639209 10.2523179,4.37555932 C9.74321192,4.08719774 8.86903974,4.4229096 8.89122517,5.62747458 C8.91705298,6.82843503 9.33013245,7.40515819 9.5736755,6.97081356 C9.81705298,6.54007345 9.69536424,6.75536158 9.45182119,6.56202825 C9.20844371,6.37213559 9.03874172,5.57635593 9.30430464,5.33911299 C9.5736755,5.09826554 9.88708609,5.09826554 10.0604305,5.24064407 C10.2301325,5.38662712 10.4956954,5.86848588 10.4476821,6.17863842 C10.3998344,6.49255932 10.3740066,6.51451412 10.0604305,6.73357062 C9.74321192,6.94885876 9.62152318,7.14235593 9.25645695,7.37959887 C8.89122517,7.62044633 8.74735099,8.17537853 9.03874172,8.31759322 C9.33013245,8.46357627 9.35596026,8.43818079 9.59569536,8.79945198 C9.83923841,9.16088701 10.2523179,9.32882486 11.2740066,9.16088701 C12.292053,8.99294915 12.7124172,8.75193785 13.4834437,8.48553107 C14.0440397,8.29580226 13.8485099,8.31759322 14.0440397,8.10230508 C14.2357616,7.88701695 14.5529801,8.19716949 14.2615894,8.39066667 C13.9701987,8.58416384 13.3137417,8.77389266 12.8268212,8.94183051 C12.3437086,9.11337288 11.782947,9.59162712 10.7649007,9.54411299 C9.74321192,9.49659887 10.4476821,9.51855367 10.1306291,9.49659887 C9.81705298,9.47103955 9.66953642,9.51855367 10.0089404,9.75940113 C10.3518212,10.0004124 10.3259934,10.073322 10.6173841,10.1681864 C10.9087748,10.2668192 11.2961921,10.2668192 11.7609272,10.0988814 C12.2218543,9.92733898 13.3874172,9.42368927 13.752649,9.18267797 C14.1140728,8.94183051 14.4054636,9.25575141 14.0440397,9.49659887 C13.6788079,9.73761017 13.5793046,9.66453672 13.2399007,9.87982486 C12.9006623,10.0988814 12.2698675,10.456548 11.8567881,10.8435424 C11.4437086,11.2267684 11.3476821,11.2523277 10.8350993,11.2742825 C10.3259934,11.2998418 10.0089404,10.7704689 9.79122517,10.5296215 C9.5736755,10.288774 9.59569536,10.1463955 9.33013245,9.8580339 C9.06456954,9.56967232 9.03874172,9.6389774 8.99089404,9.95289831 C8.94288079,10.2668192 8.57781457,11.0588305 8.26059603,11.5882034 C7.94701987,12.1174124 7.92119205,12.767209 7.9692053,13.2235085 C8.01705298,13.6796441 7.89536424,13.7271582 7.5339404,14.2563672 C7.16870861,14.7855763 6.56009934,16.3479718 6.46423841,16.8516215 C6.36837748,17.355435 6.24668874,18.3920621 6.29453642,18.9905763 C6.34254967,19.5928588 6.17284768,19.7132825 5.7339404,19.3044972 C5.2986755,18.8957119 5.15115894,18.4394124 5.17698675,17.8371299 C5.19917219,17.3225028 5.2692053,16.9612316 5.33559603,16.771339 C5.40198675,16.5814463 5.33923841,16.450209 5.19917219,16.6836836 C4.90033113,17.1947062 4.88559603,18.0781412 4.95927152,18.3920621 C5.0294702,18.7022147 5.05529801,19.2571469 5.85562914,20.0016441 C6.65976821,20.7463051 7.82533113,21.7793277 8.79536424,22.4764746 C9.76903974,23.1736215 10.1084437,24.0387062 8.6736755,24.6629435 C9.5736755,25.8673446 10.0604305,26.4915819 9.66953642,27.2835932 C10.4735099,26.8274576 10.1637417,25.7505254 9.77649007,25.4621638 C9.38543046,25.1739661 9.62152318,24.9511412 9.96092715,25.1701977 C10.3001656,25.3856497 10.4220199,25.8163898 11.7609272,25.794435 C13.0960265,25.7688757 14.5346026,25.6374746 15.3385762,24.4804237 C16.1390728,23.3269774 16.2940397,24.297904 16.0985099,24.973096 C15.9067881,25.6446836 15.4271523,27.1631695 16.1796358,27.0209548 C16.2754967,26.1303107 16.4968543,25.3600904 16.4968543,24.4001412 C16.4968543,23.4364237 16.5927152,22.9729153 16.5190397,21.5786215 C16.4451987,20.2352825 17.0316225,20.1440226 17.6365894,20.1440226 C18.2451987,20.1440226 18.0496689,20.5308531 17.6624172,20.5054576 C17.2713576,20.4798983 16.8619205,20.6258814 16.8362583,21.6113898 C16.8104305,22.5968983 16.8362583,22.5020339 17.0057947,23.3890734 C17.1754967,24.2795537 17.2013245,24.5423559 17.0538079,25.5280282 C16.9099338,26.5135367 16.788245,27.0427458 17.4448675,27.6450282 C18.0976821,28.2473107 19.093543,28.0757684 19.6061258,27.6925424 C20.1152318,27.3091525 21.0852649,26.4186723 21.9594371,26.1303107 C22.8372517,25.8417853 23.7594371,25.6264972 24.2463576,25.1446384 C24.7294702,24.6629435 24.6077815,24.3270678 24.0986755,24.0642655 C23.5897351,23.7978588 23.1028146,23.9182825 22.7155629,23.4875424 C22.3246689,23.0531977 22.1327815,22.0932486 22.2766556,21.5858305 C22.4241722,21.0821808 22.5938742,21.2974689 22.5938742,21.658904 C22.5938742,22.0201751 22.6160596,22.3560508 22.9811258,22.8123503 C23.3463576,23.2684859 23.685596,23.4875424 24.2683775,23.845209 C24.8511589,24.2066441 25.2163907,24.7833672 24.4860927,25.2907853 C23.7594371,25.794435 23.3463576,26.0827966 22.7377483,26.3236441 C22.1327815,26.5644915 21.1369205,27.1413785 20.5283113,27.7398927 C19.919702,28.3421751 19.5804636,28.8713842 18.3890728,28.8713842 C17.2013245,28.8713842 16.6554636,28.586791 16.3013245,27.8858757 C16.057947,27.4041808 15.9362583,27.4770904 15.3793046,27.4515311 C14.818543,27.4297401 12.9485099,27.4041808 11.4915563,27.4297401 C10.0346026,27.4515311 9.54784768,27.6925424 8.89122517,28.2217514 C8.2384106,28.7509605 7.99503311,29.1597458 6.75562914,28.7509605 C5.51639073,28.3421751 4.85976821,27.8858757 3.01556291,27.5246045 C1.16754967,27.1631695 2.16357616,27.3311073 1.04586093,27.0902599 C-0.0716887417,26.8530169 0.00198675497,26.3236441 0.149668874,25.8892994 C0.293377483,25.4585593 0.658609272,24.7833672 0.341390728,23.8963277 C0.0278145695,23.0056836 0.149668874,22.0932486 0.997847682,22.0932486 C1.85,22.0932486 2.65033113,22.2610226 2.9897351,21.1550904 C3.32897351,20.0491582 3.42864238,20.9142429 3.32897351,21.2026045 C3.23311258,21.4909661 3.1852649,22.2829774 2.43278146,22.4034011 C1.68029801,22.5238249 1.51059603,22.3560508 1.04586093,22.3560508 C0.584768212,22.3560508 0.393046358,22.6699718 0.632781457,23.1991808 C0.87615894,23.7283898 1.1455298,24.2795537 1.09751656,24.7358531 C1.04586093,25.1921525 0.997847682,25.3600904 0.658609272,25.794435 C0.319205298,26.2251751 0.367218543,26.4440678 0.975827815,26.5864463 C1.5807947,26.7324294 2.67615894,27.0209548 3.6942053,27.2618023 C4.71589404,27.4990452 4.7897351,27.4990452 6.56009934,27.9589492 C8.33427152,28.4152486 8.82119205,27.5975141 8.96506623,26.6120056 C9.11258278,25.6264972 8.43013245,24.6885028 7.79950331,23.7503446 C7.16870861,22.8123503 6.49006623,21.7318136 5.66390728,20.7463051 C4.83758278,19.7607966 4.35066225,19.6877232 3.93758278,19.9031751 C3.52450331,20.1220678 3.45082781,20.0747175 3.42864238,19.5197853 C3.40281457,18.9687853 3.35480132,18.6073503 3.81589404,17.7897797 C4.27698675,16.9720452 4.69006623,16.0814011 5.17698675,14.7126667 C5.66390728,13.3439322 6.09900662,13.0773616 6.92533113,11.8983559 C7.75149007,10.7231186 7.38642384,11.1794181 7.9692053,10.3872429 C8.55182119,9.59162712 8.38228477,9.73761017 8.33427152,8.48553107 C8.28642384,7.23722034 8.2384106,6.51451412 8.19039735,4.87920904 Z M5.87036424,14.654339 C5.99586093,14.8039266 6.17284768,14.4498644 6.35728477,14.3148588 C6.52317881,14.1651073 6.59337748,13.9498192 6.55645695,13.7417401 C6.53807947,13.6285254 6.35364238,13.6650621 6.31672185,13.7052034 C6.20231788,13.8184181 6.2281457,14.0009379 6.14701987,14.1578983 C6.05480132,14.3476271 5.74503311,14.5009831 5.87036424,14.654339 Z M16.3124172,9.63176836 C16.5743377,9.85066102 16.7365894,10.0405537 16.8804636,9.71565537 C17.0279801,9.39075706 17.0279801,9.25935593 16.6738411,9.1279548 C16.3235099,8.99294915 16.1649007,8.85057062 16.0062914,8.67165537 C15.8476821,8.48929944 15.7923841,8.79945198 15.9215232,9.10239548 C16.0799669,9.47480791 16.1721854,9.51855367 16.3124172,9.63176836 Z M10.8387417,6.64951977 C10.657947,6.61298305 10.4403974,6.62772881 10.3187086,6.7699435 C10.2706954,6.81745763 10.2928808,6.95246328 10.377649,6.989 C10.4884106,7.03651412 10.5620861,6.92690395 10.5842715,6.84301695 C10.5953642,6.80648023 10.6100993,6.75912994 10.6470199,6.74815254 C10.6948675,6.72259322 10.7649007,6.74438418 10.8165563,6.72259322 C10.8756623,6.70063842 10.8534768,6.64951977 10.8387417,6.64951977 Z M11.6981788,6.68245198 C11.7718543,6.79189831 11.9046358,6.79189831 12.0153974,6.83941243 C12.0743377,6.86497175 12.1960265,6.90150847 12.232947,6.81745763 C12.3178808,6.55105085 11.952649,6.63493785 11.782947,6.63493785 C11.7461921,6.63493785 11.6612583,6.62396045 11.6981788,6.68245198 Z M13.4687086,5.51802825 C13.6346026,5.52523729 13.8596026,5.81736723 13.8817881,6.15684746 C13.8854305,6.2079661 14.0254967,6.20419774 14.0551325,6.1530791 C14.1324503,6.01807345 14.0773179,5.86848588 14.0403974,5.70775706 C14.0107616,5.57635593 13.8521523,5.44135028 13.7193709,5.3830226 C13.6309603,5.33911299 13.5387417,5.32453107 13.4206954,5.33911299 C13.3912252,5.35369492 13.2879139,5.50705085 13.4687086,5.51802825 Z M9.85016556,5.4339774 C9.69900662,5.4449548 9.75430464,5.56177401 9.76175497,5.65663842 C9.97201987,5.77345763 9.99039735,6.03625989 10.0346026,6.24433898 C10.0384106,6.32462147 10.1600993,6.28824859 10.1711921,6.26268927 C10.2634106,6.09475141 10.1490066,5.90485876 10.1084437,5.70775706 C10.0715232,5.60568362 10.0014901,5.48886441 9.90562914,5.41939548 C9.89089404,5.40481356 9.86490066,5.4339774 9.85016556,5.4339774 Z M14.4903974,1.75114124 C14.3390728,1.63071751 14.1029801,1.58320339 14.032947,1.78030508 C13.9592715,1.94824294 13.9887417,2.11978531 13.9481788,2.30230508 C13.9481788,2.36063277 13.8743377,2.37521469 13.8337748,2.42993785 C13.7748344,2.49940678 13.7895695,2.58706215 13.8190397,2.61245763 C13.9592715,2.75483616 14.2173841,2.47384746 14.4054636,2.37521469 C14.5456954,2.28772316 14.7485099,2.40077401 14.9034768,2.30230508 C14.9476821,2.27314124 14.9624172,2.20367232 14.9182119,2.14894915 C14.818543,1.97740678 14.6451987,1.87893785 14.4903974,1.75114124 L14.4903974,1.75114124 Z" id="Fill-9" fill="#1A1918"></path>
                            <path d="M18.8649007,20.8631243 C18.8869205,20.7644915 18.9385762,20.5711582 19.0344371,20.5418305 C19.0677152,20.5308531 19.0971854,20.5455989 19.1082781,20.5783672 C19.1304636,20.6404633 19.0640728,20.9945254 19.0899007,21.0748079 C19.1193709,21.1586949 19.2188742,21.1478814 19.2890728,21.1259266 C19.4549669,21.0712034 19.5508278,20.8777062 19.543543,20.8595198 C19.543543,20.8521469 19.5397351,20.8521469 19.5324503,20.8521469 C19.5066225,20.8595198 19.4844371,20.9507797 19.4107616,20.9725706 C19.3627483,20.9871525 19.3258278,20.9799435 19.3110927,20.9324294 C19.2963576,20.8813107 19.359106,20.5162712 19.3296358,20.4323842 C19.3038079,20.3484972 19.2188742,20.3265424 19.1377483,20.3521017 C18.9571192,20.4104294 18.8796358,20.684209 18.8316225,20.844774 L18.8279801,20.844774 L18.8538079,20.4689209 L18.6288079,20.5418305 L18.6177152,21.3194237 L18.8279801,21.2499548 C18.8316225,21.1149492 18.8390728,20.9615932 18.8649007,20.8631243" id="Fill-10" fill="#1A1918"></path>
                            <path d="M19.9572088,20.9470113 C20.2310436,20.8886836 20.3539182,20.677 20.3426338,20.6514407 C20.337117,20.6440678 20.3316002,20.6404633 20.3203158,20.6404633 C20.2979977,20.6476723 20.2475941,20.7682599 20.0913678,20.8010282 C20.0241629,20.8156102 19.9627256,20.8046328 19.9459244,20.7754689 C19.9236064,20.7317232 19.9404076,20.6550452 19.9404076,20.5893446 L19.951692,20.238887 L20.3260834,20.1586045 L20.3203158,20.0747175 L19.9459244,20.155 L19.9627256,19.8227288 L19.6277043,19.9469209 L19.610903,20.6879774 C19.610903,20.7682599 19.5996186,20.837565 19.6219367,20.8741017 C19.6668235,20.9689661 19.817533,20.9799435 19.9572088,20.9470113" id="Fill-11" fill="#1A1918"></path>
                        </g>
                    </g>
                </g>
            </g>
        </g>
    </g>
</svg>