<?xml version="1.0" encoding="UTF-8"?>
<svg width="78px" height="19px" viewBox="0 0 78 19" version="1.1" xmlns="http://www.w3.org/2000/svg" xmlns:xlink="http://www.w3.org/1999/xlink">
    <!-- Generator: Sketch 41.2 (35397) - http://www.bohemiancoding.com/sketch -->
    <title>Download_on_the_App_Store</title>
    <desc>Created with Sketch.</desc>
    <defs></defs>
    <g id="Page-1" stroke="none" stroke-width="1" fill="none" fill-rule="evenodd">
        <g id="Download_on_the_App_Store" transform="translate(-1.000000, 0.000000)" fill="#FFFFFF">
            <path d="M13.2852835,9.97658333 C13.264631,7.63767014 15.1646648,6.49978125 15.2515479,6.44680556 C14.1754793,4.84810069 12.5076085,4.62966667 11.9215036,4.61225 C10.5206916,4.46203125 9.16189679,5.46639236 8.44831587,5.46639236 C7.72049183,5.46639236 6.62163419,4.62676389 5.43731776,4.6514375 C3.91330264,4.67538542 2.48756512,5.57452083 1.70561717,6.97075694 C0.0918703148,9.81765625 1.29541497,14.0012847 2.84150695,16.3024618 C3.61490902,17.4294653 4.51863575,18.6878194 5.70152786,18.6435521 C6.85878234,18.5949306 7.29106139,17.8917326 8.68760049,17.8917326 C10.0713208,17.8917326 10.47725,18.6435521 11.6836433,18.61525 C12.9256444,18.5949306 13.7075924,17.4831667 14.4539325,16.3460035 C15.347689,15.0542674 15.7066159,13.782125 15.7208591,13.7168125 C15.6916607,13.7066528 13.3087847,12.779941 13.2852835,9.97658333 Z" id="Shape"></path>
            <path d="M11.0063824,3.09845139 C11.6288073,2.30526736 12.0546769,1.22615972 11.9364589,0.131086806 C11.0355808,0.171725694 9.90894906,0.766069444 9.2601744,1.54183681 C8.68617618,2.22544097 8.17342342,3.34591319 8.30588455,4.39962153 C9.31785908,4.47654514 10.3568956,3.87929861 11.0063824,3.09845139 Z" id="Shape"></path>
            <path d="M30.0330703,14.5824685 L28.4157627,14.5824685 L27.5298398,11.7457289 L24.4504747,11.7457289 L23.6065691,14.5824685 L22.0319909,14.5824685 L25.0828698,4.92492682 L26.9672361,4.92492682 L30.0330703,14.5824685 Z M27.2627811,10.55559 L26.4616049,8.03380182 C26.3768583,7.7761803 26.2180474,7.16949974 25.9837479,6.21448585 L25.9552616,6.21448585 C25.8619691,6.62522891 25.711704,7.23190946 25.5051786,8.03380182 L24.7182456,10.55559 L27.2627811,10.55559 L27.2627811,10.55559 Z" id="Shape"></path>
            <path d="M37.8788996,11.0149546 C37.8788996,12.1992879 37.5648385,13.1354338 36.9367164,13.8226664 C36.3741127,14.4344268 35.675487,14.7399442 34.8415517,14.7399442 C33.9413857,14.7399442 33.2947475,14.4104789 32.9009249,13.7515484 L32.8724387,13.7515484 L32.8724387,17.4199338 L31.3541208,17.4199338 L31.3541208,9.91117335 C31.3541208,9.16661085 31.3348926,8.4024546 31.2978604,7.6187046 L32.633154,7.6187046 L32.7179007,8.72248585 L32.7463869,8.72248585 C33.2527303,7.89084002 34.0211473,7.4757428 35.05235,7.4757428 C35.8585113,7.4757428 36.5314993,7.80012821 37.0698897,8.44962474 C37.6097044,9.09984696 37.8788996,9.95471502 37.8788996,11.0149546 Z M36.3320954,11.0715588 C36.3320954,10.3937602 36.1825425,9.83497544 35.8820125,9.3952046 C35.5537083,8.93656571 35.1128833,8.70724627 34.5602498,8.70724627 C34.1856554,8.70724627 33.8452446,8.83496849 33.5411537,9.08678446 C33.2363507,9.34077752 33.0369468,9.67241988 32.9436543,10.0831629 C32.896652,10.2747463 32.8731508,10.4314963 32.8731508,10.5548643 L32.8731508,11.7159754 C32.8731508,12.2225102 33.0255523,12.6499442 33.3303554,12.9990032 C33.6351584,13.3480622 34.0311175,13.5222289 34.5182326,13.5222289 C35.0900943,13.5222289 35.5351922,13.2972636 35.8535262,12.8487845 C36.1725724,12.3995796 36.3320954,11.8074129 36.3320954,11.0715588 Z" id="Shape"></path>
            <path d="M45.738972,11.0149546 C45.738972,12.1992879 45.4249109,13.1354338 44.7960766,13.8226664 C44.2341851,14.4344268 43.5355594,14.7399442 42.7016241,14.7399442 C41.8014581,14.7399442 41.1548199,14.4104789 40.7617095,13.7515484 L40.7332232,13.7515484 L40.7332232,17.4199338 L39.2149053,17.4199338 L39.2149053,9.91117335 C39.2149053,9.16661085 39.1956771,8.4024546 39.158645,7.6187046 L40.4939386,7.6187046 L40.5786852,8.72248585 L40.6071715,8.72248585 C41.1128027,7.89084002 41.8812197,7.4757428 42.9131346,7.4757428 C43.7185837,7.4757428 44.3915717,7.80012821 44.9313864,8.44962474 C45.4690646,9.09984696 45.738972,9.95471502 45.738972,11.0149546 Z M44.1921678,11.0715588 C44.1921678,10.3937602 44.0419028,9.83497544 43.7413727,9.3952046 C43.4130685,8.93656571 42.9736679,8.70724627 42.4203222,8.70724627 C42.0450157,8.70724627 41.705317,8.83496849 41.400514,9.08678446 C41.0957109,9.34077752 40.8970192,9.67241988 40.8037267,10.0831629 C40.7574365,10.2747463 40.7332232,10.4314963 40.7332232,10.5548643 L40.7332232,11.7159754 C40.7332232,12.2225102 40.8856247,12.6499442 41.1890034,12.9990032 C41.4938065,13.3473365 41.8897655,13.5222289 42.378305,13.5222289 C42.9501667,13.5222289 43.3952646,13.2972636 43.7135986,12.8487845 C44.0326448,12.3995796 44.1921678,11.8074129 44.1921678,11.0715588 Z" id="Shape"></path>
            <path d="M54.5269844,11.8741768 C54.5269844,12.6956629 54.2471069,13.3640275 53.6852153,13.8799963 C53.0677756,14.4438609 52.2082025,14.7254303 51.1036476,14.7254303 C50.0838394,14.7254303 49.2662836,14.5251386 48.6474195,14.1238296 L48.9992249,12.8342706 C49.6658035,13.2450136 50.3971883,13.4511109 51.1940915,13.4511109 C51.7659533,13.4511109 52.2110512,13.3190345 52.5308095,13.0563331 C52.8491435,12.7936317 53.0079544,12.4409442 53.0079544,12.0011734 C53.0079544,11.6092984 52.8769176,11.2791074 52.6141318,11.0113261 C52.3527703,10.7435449 51.9162183,10.4946317 51.3066123,10.2645865 C49.6472874,9.63395807 48.8183371,8.71014905 48.8183371,7.49533655 C48.8183371,6.70142682 49.108897,6.05047891 49.690729,5.54394419 C50.2704244,5.03668377 51.0438265,4.78341641 52.0109352,4.78341641 C52.8733568,4.78341641 53.5897863,4.93653794 54.1616481,5.2420553 L53.7820686,6.50331224 C53.2479512,6.20722891 52.6440424,6.05918724 51.9682058,6.05918724 C51.4340883,6.05918724 51.0167645,6.19344071 50.7176588,6.46049627 C50.4648432,6.69924974 50.3380793,6.99025321 50.3380793,7.33495807 C50.3380793,7.71667335 50.4826471,8.03235044 50.773207,8.28053794 C51.0260226,8.50985738 51.4853636,8.75804488 52.1519422,9.02582613 C52.9673615,9.36037127 53.5662852,9.75152057 53.9515619,10.1999997 C54.3354143,10.6470275 54.5269844,11.2065379 54.5269844,11.8741768 Z" id="Shape"></path>
            <path d="M59.5469763,8.77981571 L57.8734083,8.77981571 L57.8734083,12.1608261 C57.8734083,13.020774 58.1682411,13.4503852 58.7593311,13.4503852 C59.0306628,13.4503852 59.2557043,13.4264372 59.4337434,13.3785414 L59.4757606,14.5534407 C59.1766549,14.6673747 58.7828323,14.7247046 58.295005,14.7247046 C57.6953691,14.7247046 57.2267701,14.5382011 56.8884957,14.1659199 C56.5516456,13.7929129 56.3821524,13.1673643 56.3821524,12.2885484 L56.3821524,8.77836432 L55.3851331,8.77836432 L55.3851331,7.61725321 L56.3821524,7.61725321 L56.3821524,6.34220807 L57.8734083,5.88356919 L57.8734083,7.61725321 L59.5469763,7.61725321 L59.5469763,8.77981571 Z" id="Shape"></path>
            <path d="M67.0979728,11.0432567 C67.0979728,12.113656 66.7974427,12.992472 66.1978068,13.6797046 C65.5689725,14.3872567 64.734325,14.7399442 63.6938642,14.7399442 C62.6911477,14.7399442 61.8928202,14.4010449 61.2974572,13.7232463 C60.7020943,13.0454477 60.4044129,12.1898539 60.4044129,11.1586421 C60.4044129,10.0795345 60.7106402,9.19563863 61.3252313,8.50840599 C61.9383982,7.82044766 62.7659241,7.47646849 63.8063849,7.47646849 C64.8091014,7.47646849 65.6159749,7.8153678 66.2248688,8.4938921 C66.8074129,9.15209696 67.0979728,10.0018852 67.0979728,11.0432567 Z M65.5226823,11.0933296 C65.5226823,10.45109 65.3880848,9.90028794 65.1153288,9.44092335 C64.7969948,8.88504141 64.3419267,8.60782613 63.752261,8.60782613 C63.1419428,8.60782613 62.6783289,8.8857671 62.3599949,9.44092335 C62.0872389,9.90101363 61.9526413,10.460524 61.9526413,11.1223574 C61.9526413,11.764597 62.0872389,12.315399 62.3599949,12.7740379 C62.6882991,13.3299199 63.1469279,13.6071352 63.7387301,13.6071352 C64.3184255,13.6071352 64.7734936,13.3241143 65.1017978,12.759524 C65.3816753,12.2914511 65.5226823,11.7348435 65.5226823,11.0933296 Z" id="Shape"></path>
            <path d="M72.033218,8.97938169 C71.882953,8.9510796 71.7227177,8.93656571 71.5546488,8.93656571 C71.0205313,8.93656571 70.6074805,9.14193724 70.3169206,9.55340599 C70.064105,9.91625321 69.9373411,10.3748921 69.9373411,10.928597 L69.9373411,14.5824685 L68.4197354,14.5824685 L68.4339785,9.81175321 C68.4339785,9.00913516 68.4147503,8.27836085 68.377006,7.6194303 L69.6994808,7.6194303 L69.755029,8.9518053 L69.7970463,8.9518053 C69.9572815,8.4938921 70.2100971,8.12523932 70.5562052,7.84874974 C70.8944796,7.59983655 71.2598159,7.4757428 71.6536385,7.4757428 C71.7939334,7.4757428 71.9206973,7.48590252 72.033218,7.50404488 L72.033218,8.97938169 Z" id="Shape"></path>
            <path d="M78.8236312,10.7711213 C78.8236312,11.0483365 78.8058273,11.2820102 78.768083,11.4728678 L74.2131294,11.4728678 C74.2309333,12.1608261 74.4509897,12.6869546 74.8740107,13.0498018 C75.2578631,13.3741872 75.7542362,13.5367428 76.3638423,13.5367428 C77.0382546,13.5367428 77.6535579,13.4271629 78.2069036,13.2072775 L78.4447639,14.2813053 C77.7981257,14.5686803 77.0346938,14.7116421 76.1537561,14.7116421 C75.0940671,14.7116421 74.2622682,14.3937879 73.656935,13.7588053 C73.0530262,13.1238227 72.7503597,12.2711317 72.7503597,11.2014581 C72.7503597,10.1513782 73.0316616,9.27691641 73.5949774,8.57952405 C74.1846431,7.83496155 74.9815463,7.4626803 75.9842628,7.4626803 C76.9691754,7.4626803 77.7148034,7.83496155 78.2211467,8.57952405 C78.6220909,9.17096502 78.8236312,9.90246502 78.8236312,10.7711213 Z M77.3758168,10.3698122 C77.385787,9.91117335 77.2867972,9.51494419 77.080984,9.18039905 C76.8181982,8.75006224 76.4144054,8.53525669 75.8710299,8.53525669 C75.3746568,8.53525669 74.970864,8.74498238 74.6625002,9.16588516 C74.4096846,9.5004303 74.2594195,9.90173932 74.2131294,10.3690865 L77.3758168,10.3690865 L77.3758168,10.3698122 Z" id="Shape"></path>
        </g>
    </g>
</svg>