<?xml version="1.0" encoding="UTF-8" standalone="no"?>
<svg
   xmlns:dc="http://purl.org/dc/elements/1.1/"
   xmlns:cc="http://creativecommons.org/ns#"
   xmlns:rdf="http://www.w3.org/1999/02/22-rdf-syntax-ns#"
   xmlns:svg="http://www.w3.org/2000/svg"
   xmlns="http://www.w3.org/2000/svg"
   xmlns:sodipodi="http://sodipodi.sourceforge.net/DTD/sodipodi-0.dtd"
   xmlns:inkscape="http://www.inkscape.org/namespaces/inkscape"
   width="27"
   height="28"
   viewBox="-1 0 42 42"
   version="1.1"
   id="svg4"
   sodipodi:docname="ui-service-light-crm.svg"
   inkscape:version="1.0.2 (e86c870879, 2021-01-15, custom)">
  <metadata
     id="metadata10">
    <rdf:RDF>
      <cc:Work
         rdf:about="">
        <dc:format>image/svg+xml</dc:format>
        <dc:type
           rdf:resource="http://purl.org/dc/dcmitype/StillImage" />
      </cc:Work>
    </rdf:RDF>
  </metadata>
  <defs
     id="defs8" />
  <sodipodi:namedview
     pagecolor="#ffffff"
     bordercolor="#666666"
     borderopacity="1"
     objecttolerance="10"
     gridtolerance="10"
     guidetolerance="10"
     inkscape:pageopacity="0"
     inkscape:pageshadow="2"
     inkscape:window-width="1920"
     inkscape:window-height="1017"
     id="namedview6"
     showgrid="false"
     inkscape:zoom="10.119048"
     inkscape:cx="11.65375"
     inkscape:cy="15.517155"
     inkscape:window-x="-8"
     inkscape:window-y="1569"
     inkscape:window-maximized="1"
     inkscape:current-layer="svg4" />
  <path
     fill="#80868e"
     d="m 28.174,28.962 h 3.217 c 0.606,-1.523 0.942,-3.193 0.942,-4.94 0,-7.394 -5.977,-13.37 -13.13,-12.895 -5.9,0.393 -10.776,5.234 -11.453,11.388 -0.2463132,2.187008 0.049027,4.401029 0.86,6.447 h 3.216 c -0.964598,-1.765099 -1.390171,-3.774403 -1.224,-5.779 0.381,-4.862 4.208,-8.758 8.858,-9.026 5.473,-0.316 9.971,4.203 9.971,9.865 0,1.801 -0.459,3.489 -1.257,4.94 z m -6.781,-1.788 c -0.946105,0.842238 -2.36937,0.854633 -3.33,0.029 -1.297,-1.108 -1.38,-3.15 -0.252,-4.377 0.513,-0.558 1.177,-0.846 1.85,-0.86 l 6.718,-4.359 -3.977,7.34 c -0.0083,0.851393 -0.374924,1.659887 -1.01,2.227 z"
     id="path2"
     sodipodi:nodetypes="ccsccccccsccccccccc" />
</svg>
