<svg width="990" height="667" viewBox="0 0 990 667" fill="none" xmlns="http://www.w3.org/2000/svg">
<g clip-path="url(#clip0_10271_192246)">
<mask id="mask0_10271_192246" style="mask-type:alpha" maskUnits="userSpaceOnUse" x="-53" y="-133" width="1135" height="1030">
<path fill-rule="evenodd" clip-rule="evenodd" d="M-53 -133H1082V897H-53V-133Z" fill="white"/>
</mask>
<g mask="url(#mask0_10271_192246)">
<g opacity="0.4">
<circle opacity="0.226469" cx="495" cy="600" r="362" stroke="url(#paint0_angular_10271_192246)" stroke-width="2"/>
<ellipse opacity="0.183431" cx="495" cy="600" rx="441" ry="440" stroke="url(#paint1_angular_10271_192246)" stroke-width="2"/>
<path opacity="0.722772" fill-rule="evenodd" clip-rule="evenodd" d="M573.316 164.923C388.011 164.923 237.792 315.07 237.792 500.287C237.792 685.503 388.011 835.651 573.316 835.651C758.621 835.651 908.84 685.503 908.84 500.287C908.84 315.07 758.621 164.923 573.316 164.923ZM573.316 255.431C438.086 255.431 328.46 365.057 328.46 500.287C328.46 635.517 438.086 745.143 573.316 745.143C708.547 745.143 818.172 635.517 818.172 500.287C818.172 365.057 708.546 255.431 573.316 255.431Z" fill="url(#paint2_angular_10271_192246)"/>
<path opacity="0.722772" fill-rule="evenodd" clip-rule="evenodd" d="M205.316 469.445C107.498 525.92 73.9614 650.962 130.41 748.733C186.858 846.504 311.915 879.981 409.733 823.506C507.551 767.031 541.087 641.99 484.639 544.218C428.191 446.447 303.134 412.97 205.316 469.445ZM232.9 517.222C161.515 558.436 137.057 649.715 178.271 721.1C219.485 792.485 310.764 816.943 382.149 775.729C453.534 734.515 477.992 643.236 436.778 571.851C395.564 500.466 304.284 476.008 232.9 517.222Z" fill="url(#paint3_angular_10271_192246)"/>
<path opacity="0.362677" fill-rule="evenodd" clip-rule="evenodd" d="M915.793 724.957C915.244 724.957 914.7 724.937 914.161 724.896C899.656 724.563 888.001 712.583 888 697.855C888.004 690.676 890.832 683.793 895.861 678.719C898.438 676.119 901.486 674.103 904.802 672.757C904.747 672.026 904.718 671.288 904.718 670.543C904.723 662.968 907.706 655.706 913.013 650.353C918.319 645 925.513 641.995 933.012 642C942.619 642.012 951.101 646.864 956.198 654.27C958.618 653.404 961.224 652.933 963.939 652.934C975.93 652.949 985.78 662.182 986.921 673.989C998.412 676.519 1007.01 686.858 1007 699.22C1006.99 713.466 995.548 725.006 981.444 725C980.95 725 980.458 724.985 979.971 724.957H915.793Z" stroke="#EDEEF0" stroke-width="4"/>
<path opacity="0.062407" fill-rule="evenodd" clip-rule="evenodd" d="M505.47 531.952C506.093 531.952 506.711 531.928 507.322 531.883C523.777 531.505 536.999 517.938 537 501.257C536.995 493.127 533.788 485.331 528.083 479.586C525.158 476.641 521.701 474.358 517.939 472.833C518.002 472.005 518.034 471.169 518.034 470.326C518.029 461.747 514.644 453.522 508.624 447.46C502.605 441.398 494.443 437.995 485.936 438C475.037 438.013 465.415 443.509 459.633 451.896C456.887 450.915 453.931 450.382 450.851 450.383C437.247 450.4 426.074 460.857 424.778 474.229C411.743 477.094 401.988 488.803 402 502.803C402.013 518.937 414.991 532.007 430.992 532C431.553 532 432.11 531.983 432.663 531.952H505.47Z" fill="#2FC6F6"/>
<path opacity="0.062407" fill-rule="evenodd" clip-rule="evenodd" d="M91.8226 227.963C91.3519 227.963 90.8853 227.946 90.4233 227.911C77.991 227.626 68.0006 217.378 68 204.779C68.0036 198.638 70.4272 192.75 74.7376 188.411C76.947 186.186 79.5594 184.462 82.4017 183.31C82.3542 182.685 82.3299 182.054 82.3299 181.416C82.3339 174.937 84.8912 168.724 89.4393 164.145C93.9875 159.566 100.154 156.996 106.582 157C114.816 157.01 122.086 161.161 126.455 167.496C128.53 166.755 130.763 166.352 133.09 166.353C143.369 166.366 151.811 174.264 152.79 184.364C162.639 186.529 170.009 195.373 170 205.947C169.99 218.133 160.184 228.005 148.095 228C147.671 228 147.25 227.988 146.832 227.963H91.8226Z" fill="#2FC6F6"/>
<path opacity="0.062407" fill-rule="evenodd" clip-rule="evenodd" d="M46.7435 16.9835C46.5313 16.9835 46.3208 16.9756 46.1125 16.9601C40.5057 16.8315 36.0003 12.2128 36 6.53428C36.0016 3.76653 37.0946 1.1128 39.0385 -0.843128C40.0349 -1.84571 41.2131 -2.62286 42.4949 -3.14203C42.4734 -3.42367 42.4625 -3.70827 42.4625 -3.99545C42.4643 -6.91582 43.6176 -9.71587 45.6687 -11.7796C47.7198 -13.8434 50.5008 -15.0018 53.3997 -15C57.1132 -14.9954 60.3918 -13.1247 62.3622 -10.2695C63.2978 -10.6034 64.3051 -10.7849 65.3544 -10.7844C69.9899 -10.7788 73.7972 -7.21906 74.2385 -2.66679C78.6801 -1.69133 82.0039 2.2948 82 7.0607C81.9955 12.553 77.5733 17.0023 72.1213 17C71.9301 16.9999 71.7402 16.9944 71.5518 16.9835H46.7435Z" fill="#2FC6F6"/>
<path opacity="0.062407" fill-rule="evenodd" clip-rule="evenodd" d="M951.744 260.983C951.531 260.983 951.321 260.976 951.112 260.96C945.506 260.831 941 256.213 941 250.534C941.002 247.767 942.095 245.113 944.039 243.157C945.035 242.154 946.213 241.377 947.495 240.858C947.473 240.576 947.463 240.292 947.463 240.005C947.464 237.084 948.618 234.284 950.669 232.22C952.72 230.157 955.501 228.998 958.4 229C962.113 229.005 965.392 230.875 967.362 233.731C968.298 233.397 969.305 233.215 970.354 233.216C974.99 233.221 978.797 236.781 979.239 241.333C983.68 242.309 987.004 246.295 987 251.061C986.995 256.553 982.573 261.002 977.121 261C976.93 261 976.74 260.994 976.552 260.983H951.744Z" fill="#2FC6F6"/>
<path opacity="0.062407" fill-rule="evenodd" clip-rule="evenodd" d="M19.4804 585.978C19.1943 585.978 18.9107 585.967 18.6299 585.946C11.073 585.774 5.00038 579.567 5 571.937C5.0022 568.218 6.47535 564.652 9.09539 562.023C10.4384 560.676 12.0263 559.632 13.754 558.934C13.7251 558.556 13.7104 558.173 13.7104 557.787C13.7127 553.863 15.2672 550.101 18.0317 547.327C20.7963 544.554 24.5445 542.998 28.4518 543C33.4569 543.006 37.8759 545.52 40.5316 549.357C41.7927 548.908 43.1503 548.664 44.5647 548.665C50.8125 548.672 55.944 553.456 56.5389 559.573C62.5254 560.884 67.0053 566.24 67 572.644C66.9939 580.024 61.0336 586.003 53.6852 586C53.4275 586 53.1716 585.992 52.9176 585.978H19.4804Z" fill="#2FC6F6"/>
</g>
</g>
</g>
<defs>
<radialGradient id="paint0_angular_10271_192246" cx="0" cy="0" r="1" gradientUnits="userSpaceOnUse" gradientTransform="translate(495 600) scale(362)">
<stop stop-color="#D3F003"/>
<stop offset="1" stop-color="#9AB800"/>
</radialGradient>
<radialGradient id="paint1_angular_10271_192246" cx="0" cy="0" r="1" gradientUnits="userSpaceOnUse" gradientTransform="translate(495 600) scale(441 440)">
<stop stop-color="#2FC6F6"/>
<stop offset="1" stop-color="#55D0E0"/>
</radialGradient>
<radialGradient id="paint2_angular_10271_192246" cx="0" cy="0" r="1" gradientUnits="userSpaceOnUse" gradientTransform="translate(573.316 500.287) rotate(30) scale(335.54 335.46)">
<stop stop-color="#2FC6F6"/>
<stop offset="1" stop-color="#B7EB81"/>
</radialGradient>
<radialGradient id="paint3_angular_10271_192246" cx="0" cy="0" r="1" gradientUnits="userSpaceOnUse" gradientTransform="translate(307.524 646.476) scale(204.524 204.476)">
<stop stop-color="#DAF400"/>
<stop offset="1" stop-color="#B3E600"/>
</radialGradient>
<clipPath id="clip0_10271_192246">
<rect width="990" height="964" fill="white" transform="translate(0 -90)"/>
</clipPath>
</defs>
</svg>
