<svg xmlns="http://www.w3.org/2000/svg" width="139" height="146" fill="none"><path fill="#0E294B" d="M18.2 22c0-7.1 6-12.8 13.2-12.3l32.7 2c3.3.3 6.4 1.8 8.6 4.4l8.8 10.3 8 9.5c2 2.2 3 5 3 8v58c0 6.5-5 11.9-11.5 12.3l-49.6 3.4c-7.1.5-13.2-5.2-13.2-12.3V22Z"/><path fill="#fff" fill-rule="evenodd" d="m64 13.5-32.7-2A10.6 10.6 0 0 0 20 22v83.3c0 6.1 5.2 11 11.3 10.6l49.5-3.4c5.6-.4 10-5 10-10.6v-58c0-2.5-1-5-2.6-6.9l-8-9.5-8.9-10.3a10.6 10.6 0 0 0-7.4-3.7Zm17.5 12.9L72.7 16c-2.2-2.6-5.3-4.1-8.6-4.3L31.4 9.7A12.4 12.4 0 0 0 18.2 22v83.3c0 7.1 6 12.8 13.2 12.3l49.6-3.4c6.5-.4 11.5-5.8 11.5-12.3v-58c0-3-1-5.8-3-8l-8-9.5Z" clip-rule="evenodd" opacity=".2"/><path fill="#1587FA" d="m32.6 48.2 42.3.7c1.4 0 2.6 1.5 2.6 3.3 0 1.8-1.2 3.2-2.6 3.2L32.6 55c-1.6 0-3-1.5-3-3.4 0-2 1.4-3.5 3-3.4ZM32.6 62H53c1.5 0 2.8 1.4 2.8 3.3 0 1.8-1.3 3.3-2.8 3.3l-20.4.2c-1.6 0-3-1.5-3-3.4 0-2 1.4-3.5 3-3.5ZM32.6 75.7l20.4-.4c1.5 0 2.8 1.4 2.8 3.3 0 1.8-1.3 3.3-2.8 3.4l-20.4.6c-1.6 0-3-1.5-3-3.4 0-2 1.4-3.5 3-3.5Z" opacity=".3"/><g filter="url(#a)" opacity=".6"><path fill="#F2473D" d="M64.2 81.8a16 16 0 0 1 15.8-16l24.7-.2c8.9 0 16.1 7 16.1 16V110a16 16 0 0 1-14.7 15.9l-24.7 2a16 16 0 0 1-17.2-16V81.8Z"/></g><g filter="url(#b)" opacity=".2"><path fill="#fff" fill-rule="evenodd" d="M80 67.6c-7.8.1-14 6.4-14 14.2v30.1c0 8.3 7 14.8 15.2 14.1l24.8-1.9c7.4-.6 13-6.7 13-14.1V81.5c0-7.8-6.4-14.2-14.3-14.1l-24.7.2Zm0-1.7a16 16 0 0 0-15.8 15.9v30.1a16 16 0 0 0 17.2 16l24.7-2a16 16 0 0 0 14.7-16V81.6a16 16 0 0 0-16-15.9L80 66Z" clip-rule="evenodd"/></g><path fill="#fff" fill-rule="evenodd" d="m106.4 104.5-11-20.2c-.8-1.6-2.8-1.5-3.7.1L80.4 106c-.9 1.8.2 3.8 2 3.7l22.1-1.4c1.7-.1 2.7-2.2 1.9-3.8ZM92 91.7c0-1 .7-1.7 1.5-1.7h.2c.8 0 1.5.7 1.5 1.6v6.2c0 1-.7 1.7-1.5 1.7h-.2c-.8 0-1.5-.6-1.5-1.5v-6.3Zm3.4 12c0 1-.8 2-1.8 2.1-1 .1-1.9-.8-1.9-2 0-1.1.9-2.1 1.9-2.2 1 0 1.8.9 1.8 2Z" clip-rule="evenodd"/><defs><filter id="a" width="72.6" height="78.2" x="56.2" y="61.6" color-interpolation-filters="sRGB" filterUnits="userSpaceOnUse"><feFlood flood-opacity="0" result="BackgroundImageFix"/><feColorMatrix in="SourceAlpha" result="hardAlpha" values="0 0 0 0 0 0 0 0 0 0 0 0 0 0 0 0 0 0 127 0"/><feOffset dy="4"/><feGaussianBlur stdDeviation="4"/><feComposite in2="hardAlpha" operator="out"/><feColorMatrix values="0 0 0 0 1 0 0 0 0 0.114518 0 0 0 0 0.114518 0 0 0 0.24 0"/><feBlend in2="BackgroundImageFix" result="effect1_dropShadow_2001_25024"/><feBlend in="SourceGraphic" in2="effect1_dropShadow_2001_25024" result="shape"/></filter><filter id="b" width="84.6" height="90.2" x="50.2" y="55.6" color-interpolation-filters="sRGB" filterUnits="userSpaceOnUse"><feFlood flood-opacity="0" result="BackgroundImageFix"/><feColorMatrix in="SourceAlpha" result="hardAlpha" values="0 0 0 0 0 0 0 0 0 0 0 0 0 0 0 0 0 0 127 0"/><feOffset dy="4"/><feGaussianBlur stdDeviation="7"/><feComposite in2="hardAlpha" operator="out"/><feColorMatrix values="0 0 0 0 0 0 0 0 0 0 0 0 0 0 0 0 0 0 0.02 0"/><feBlend in2="BackgroundImageFix" result="effect1_dropShadow_2001_25024"/><feBlend in="SourceGraphic" in2="effect1_dropShadow_2001_25024" result="shape"/></filter></defs></svg>