<svg xmlns="http://www.w3.org/2000/svg" width="139" height="146" fill="none"><path fill="#0E294B" d="M18.2 22.05c0-7.15 6.03-12.82 13.17-12.36l32.7 2.1c3.32.22 6.41 1.76 8.58 4.28l8.87 10.3 8.06 9.57a12.38 12.38 0 0 1 2.92 7.98v57.99c0 6.51-5.04 11.91-11.54 12.35l-49.54 3.38a12.38 12.38 0 0 1-13.23-12.36V22.05Z"/><path fill="#fff" fill-rule="evenodd" d="M31.26 11.46a10.62 10.62 0 0 0-11.3 10.6v83.22c0 6.15 5.2 11.01 11.34 10.6l49.54-3.38c5.57-.38 9.9-5.01 9.9-10.6V43.93c0-2.5-.9-4.93-2.51-6.84l-8.05-9.55-.01-.02-8.86-10.28a10.62 10.62 0 0 0-7.36-3.67l-32.7-2.1Zm50.26 14.91-8.87-10.3a12.38 12.38 0 0 0-8.59-4.28L31.37 9.7A12.38 12.38 0 0 0 18.2 22.05v83.23c0 7.17 6.07 12.84 13.23 12.36l49.54-3.38a12.39 12.39 0 0 0 11.54-12.35V43.92c0-2.92-1.03-5.75-2.92-7.98l-8.06-9.57Z" clip-rule="evenodd" opacity=".18"/><path fill="#1587FA" fill-rule="evenodd" d="M56.58 90.58c.6.57.71 1.63.24 2.36l-3.43 5.3c-1.31 2.01-3.94 1.6-4.78-.74l-.23-.66-4 6.1c-1.57 2.4-4.8 1.22-4.98-1.83l-.2-3.54-6.2 8.04c-.52.69-1.4.73-1.97.1a1.92 1.92 0 0 1-.08-2.37l6.19-8.05c1.66-2.16 4.66-.9 4.84 2.04l.2 3.54 4-6.1c1.31-2 3.93-1.59 4.77.75l.23.66 3.44-5.3c.47-.73 1.35-.86 1.96-.3Z" clip-rule="evenodd" opacity=".5"/><path fill="#1587FA" d="m32.63 48.17 42.24.8c1.46.03 2.64 1.5 2.64 3.28 0 1.78-1.18 3.22-2.64 3.2l-42.24-.4c-1.66-.01-3-1.57-3-3.48 0-1.9 1.34-3.42 3-3.4ZM32.63 61.93h20.33c1.55 0 2.81 1.5 2.81 3.34 0 1.84-1.26 3.34-2.81 3.35l-20.33.19c-1.66.01-3-1.52-3-3.43 0-1.9 1.34-3.45 3-3.45ZM32.63 75.68l20.33-.37c1.55-.02 2.81 1.44 2.81 3.28 0 1.84-1.26 3.37-2.81 3.41l-20.33.56c-1.66.05-3-1.46-3-3.37 0-1.9 1.34-3.48 3-3.5Z" opacity=".3"/><g filter="url(#a)" opacity=".77"><path fill="#1CAE6A" d="M64.2 81.62c0-8.76 7.07-15.87 15.82-15.92l24.77-.15a15.92 15.92 0 0 1 16.02 15.93v28.51c0 8.31-6.4 15.23-14.68 15.88l-24.77 1.94a15.92 15.92 0 0 1-17.17-15.88V81.62Z"/></g><path fill="#fff" fill-rule="evenodd" d="m88.52 100.05-3.44-3.78a3.26 3.26 0 1 0-4.82 4.38l8.03 8.8a.3.3 0 0 0 .45-.02l16.25-19.66a3.05 3.05 0 0 0-4.7-3.9l-11.77 14.18Z" clip-rule="evenodd"/><g filter="url(#b)" opacity=".24"><path fill="#fff" fill-rule="evenodd" d="M80.03 67.47a14.15 14.15 0 0 0-14.07 14.15v30.31c0 8.26 7.03 14.76 15.26 14.11L106 124.1a14.15 14.15 0 0 0 13.05-14.1V81.47c0-7.85-6.39-14.2-14.24-14.16l-24.77.15Zm0-1.77a15.92 15.92 0 0 0-15.84 15.92v30.31c0 9.29 7.91 16.6 17.17 15.88l24.77-1.94a15.92 15.92 0 0 0 14.68-15.88V81.48c0-8.83-7.19-15.98-16.02-15.93l-24.77.15Z" clip-rule="evenodd"/></g><defs><filter id="a" width="72.62" height="78.3" x="56.19" y="61.55" color-interpolation-filters="sRGB" filterUnits="userSpaceOnUse"><feFlood flood-opacity="0" result="BackgroundImageFix"/><feColorMatrix in="SourceAlpha" result="hardAlpha" values="0 0 0 0 0 0 0 0 0 0 0 0 0 0 0 0 0 0 127 0"/><feOffset dy="4"/><feGaussianBlur stdDeviation="4"/><feComposite in2="hardAlpha" operator="out"/><feColorMatrix values="0 0 0 0 0.114518 0 0 0 0 1 0 0 0 0 0.52184 0 0 0 0.24 0"/><feBlend in2="BackgroundImageFix" result="effect1_dropShadow_2001_26244"/><feBlend in="SourceGraphic" in2="effect1_dropShadow_2001_26244" result="shape"/></filter><filter id="b" width="84.62" height="90.3" x="50.19" y="55.55" color-interpolation-filters="sRGB" filterUnits="userSpaceOnUse"><feFlood flood-opacity="0" result="BackgroundImageFix"/><feColorMatrix in="SourceAlpha" result="hardAlpha" values="0 0 0 0 0 0 0 0 0 0 0 0 0 0 0 0 0 0 127 0"/><feOffset dy="4"/><feGaussianBlur stdDeviation="7"/><feComposite in2="hardAlpha" operator="out"/><feColorMatrix values="0 0 0 0 0 0 0 0 0 0 0 0 0 0 0 0 0 0 0.02 0"/><feBlend in2="BackgroundImageFix" result="effect1_dropShadow_2001_26244"/><feBlend in="SourceGraphic" in2="effect1_dropShadow_2001_26244" result="shape"/></filter></defs></svg>