<svg width="219" height="179" viewBox="0 0 219 179" fill="none" xmlns="http://www.w3.org/2000/svg">
	<path opacity="0.16" fill-rule="evenodd" clip-rule="evenodd" d="M157.409 5.58173C158.738 5.58173 159.815 4.5047 159.815 3.17612C159.815 1.84754 158.738 0.770508 157.409 0.770508C156.08 0.770508 155.003 1.84754 155.003 3.17612C155.003 4.5047 156.08 5.58173 157.409 5.58173ZM38.7039 26.3624C41.5841 26.3624 43.9189 24.0275 43.9189 21.1474C43.9189 18.2672 41.5841 15.9324 38.7039 15.9324C35.8237 15.9324 33.4889 18.2672 33.4889 21.1474C33.4889 24.0275 35.8237 26.3624 38.7039 26.3624ZM38.7039 23.4547C39.9782 23.4547 41.0112 22.4217 41.0112 21.1474C41.0112 19.8731 39.9782 18.84 38.7039 18.84C37.4296 18.84 36.3965 19.8731 36.3965 21.1474C36.3965 22.4217 37.4296 23.4547 38.7039 23.4547ZM12.2102 77.2733C16.0894 77.2733 19.2341 74.1286 19.2341 70.2494C19.2341 66.3702 16.0894 63.2255 12.2102 63.2255C8.33099 63.2255 5.18628 66.3702 5.18628 70.2494C5.18628 74.1286 8.33099 77.2733 12.2102 77.2733ZM12.2102 73.6075C14.0648 73.6075 15.5683 72.104 15.5683 70.2494C15.5683 68.3947 14.0648 66.8912 12.2102 66.8912C10.3555 66.8912 8.85206 68.3947 8.85206 70.2494C8.85206 72.104 10.3555 73.6075 12.2102 73.6075ZM190.539 165.655C193.301 165.655 195.54 163.416 195.54 160.654C195.54 157.893 193.301 155.654 190.539 155.654C187.778 155.654 185.539 157.893 185.539 160.654C185.539 163.416 187.778 165.655 190.539 165.655ZM190.539 163.053C191.864 163.053 192.938 161.979 192.938 160.654C192.938 159.33 191.864 158.256 190.539 158.256C189.215 158.256 188.141 159.33 188.141 160.654C188.141 161.979 189.215 163.053 190.539 163.053ZM110.5 178.5C157.996 178.5 196.5 139.996 196.5 92.4998C196.5 45.0033 157.996 6.49976 110.5 6.49976C63.0035 6.49976 24.5 45.0033 24.5 92.4998C24.5 139.996 63.0035 178.5 110.5 178.5ZM24.4588 172.488H7.74022C7.59716 172.488 7.45534 172.483 7.31493 172.472C3.53648 172.384 0.500191 169.209 0.5 165.305C0.501099 163.402 1.23768 161.577 2.54769 160.233C3.21919 159.543 4.01317 159.009 4.87699 158.652C4.86254 158.458 4.85518 158.263 4.85518 158.065C4.85637 156.058 5.63359 154.133 7.01587 152.714C8.39815 151.295 10.2723 150.499 12.2259 150.5C14.7285 150.503 16.938 151.789 18.2658 153.752C18.8964 153.522 19.5752 153.398 20.2823 153.398C23.4062 153.402 25.972 155.849 26.2694 158.979C29.2627 159.649 31.5026 162.39 31.5 165.666C31.4969 169.442 28.5168 172.501 24.8426 172.5C24.7138 172.5 24.5858 172.496 24.4588 172.488ZM201.638 39.492H213.503C213.593 39.4971 213.684 39.4997 213.775 39.4998C216.383 39.5008 218.498 37.4152 218.5 34.8407C218.502 32.6067 216.912 30.7382 214.788 30.2809C214.577 28.1471 212.756 26.4785 210.539 26.4758C210.037 26.4756 209.555 26.5606 209.108 26.7172C208.166 25.3788 206.598 24.5019 204.822 24.4998C203.435 24.4989 202.105 25.0419 201.124 26.0093C200.143 26.9767 199.592 28.2892 199.591 29.6581C199.591 29.7928 199.596 29.9262 199.606 30.0582C198.993 30.3015 198.43 30.6658 197.953 31.1358C197.024 32.0526 196.501 33.2966 196.5 34.5939C196.5 37.2558 198.655 39.4208 201.336 39.481C201.436 39.4883 201.537 39.492 201.638 39.492Z" fill="#A8ADB4"/>
	<g opacity="0.4" filter="url(#filter0_d_9428_462012)">
		<path d="M126.035 131.567C128.479 130.681 129.835 128.117 129.334 125.57L127.603 116.769C127.603 113.096 122.703 108.901 113.054 106.456C109.784 105.562 106.677 104.177 103.841 102.349C103.221 102.002 103.316 98.7946 103.316 98.7946L100.208 98.3312C100.208 98.0708 99.9422 94.2245 99.9422 94.2245C103.661 93.0002 103.278 85.7784 103.278 85.7784C105.639 87.0618 107.177 81.3467 107.177 81.3467C109.97 73.4066 105.786 73.8867 105.786 73.8867C106.518 69.0395 106.518 64.1131 105.786 59.2659C103.926 43.1863 75.9208 47.5515 79.2415 52.803C71.0566 51.3258 72.9242 69.5732 72.9242 69.5732L74.6995 74.2985C72.2388 75.8624 72.7221 77.6571 73.2618 79.662C73.4869 80.4978 73.7217 81.3701 73.7572 82.2774C73.9287 86.8309 76.7726 85.8874 76.7726 85.8874C76.9479 93.4028 80.7303 94.3814 80.7303 94.3814C81.4408 99.1012 80.998 98.2979 80.998 98.2979L77.632 98.6968C77.6776 99.7701 77.5883 100.845 77.3663 101.897C75.4106 102.751 74.2133 103.43 73.0279 104.103C71.8143 104.792 70.6132 105.474 68.6235 106.328C61.0247 109.591 52.7663 113.835 51.2982 119.548C50.8689 121.218 50.4486 123.464 50.0686 125.805C49.6704 128.259 51.037 130.661 53.376 131.514C63.5823 135.236 75.1009 137.441 87.3197 137.703H92.2393C104.399 137.443 115.866 135.257 126.035 131.567Z" fill="white"/>
	</g>
	<g opacity="0.4" filter="url(#filter1_d_9428_462012)">
		<path d="M165.598 131.567C168.042 130.681 169.398 128.117 168.897 125.57L167.165 116.769C167.165 113.096 162.265 108.901 152.616 106.456C149.347 105.562 146.239 104.177 143.404 102.349C142.784 102.002 142.878 98.7946 142.878 98.7946L139.77 98.3312C139.77 98.0708 139.505 94.2245 139.505 94.2245C143.223 93.0002 142.84 85.7784 142.84 85.7784C145.202 87.0618 146.74 81.3467 146.74 81.3467C149.533 73.4066 145.349 73.8867 145.349 73.8867C146.081 69.0395 146.081 64.1131 145.349 59.2659C143.489 43.1863 115.483 47.5515 118.804 52.803C110.619 51.3258 112.487 69.5732 112.487 69.5732L114.262 74.2985C111.801 75.8624 112.285 77.6571 112.824 79.662C113.049 80.4978 113.284 81.3701 113.32 82.2774C113.491 86.8309 116.335 85.8874 116.335 85.8874C116.51 93.4028 120.293 94.3814 120.293 94.3814C121.003 99.1012 120.56 98.2979 120.56 98.2979L117.195 98.6968C117.24 99.7701 117.151 100.845 116.929 101.897C114.973 102.751 113.776 103.43 112.59 104.103C111.377 104.792 110.176 105.474 108.186 106.328C100.587 109.591 92.3288 113.835 90.8607 119.548C90.4314 121.218 90.0111 123.464 89.6311 125.805C89.2329 128.259 90.5995 130.661 92.9385 131.514C103.145 135.236 114.663 137.441 126.882 137.703H131.802C143.962 137.443 155.428 135.257 165.598 131.567Z" fill="white"/>
	</g>
	<g filter="url(#filter2_d_9428_462012)">
		<path d="M153.525 139.397C156.403 138.346 157.999 135.306 157.41 132.286L155.371 121.85C155.371 117.495 149.602 112.52 138.24 109.622C134.391 108.562 130.732 106.92 127.394 104.752C126.664 104.341 126.775 100.538 126.775 100.538L123.116 99.988C123.116 99.6793 122.803 95.1186 122.803 95.1186C127.181 93.667 126.731 85.104 126.731 85.104C129.511 86.6257 131.322 79.8493 131.322 79.8493C134.61 70.4346 129.684 71.0039 129.684 71.0039C130.546 65.2564 130.546 59.4152 129.684 53.6677C127.494 34.6019 94.5196 39.7778 98.4295 46.0046C88.7924 44.253 90.9914 65.8893 90.9914 65.8893L93.0817 71.4921C90.1844 73.3464 90.7534 75.4745 91.3889 77.8516C91.6539 78.8426 91.9304 79.877 91.9722 80.9528C92.1741 86.352 95.5226 85.2332 95.5226 85.2332C95.729 94.1443 100.182 95.3047 100.182 95.3047C101.019 100.901 100.498 99.9486 100.498 99.9486L96.5345 100.421C96.5881 101.694 96.483 102.968 96.2216 104.216C93.919 105.228 92.5093 106.034 91.1135 106.832C89.6846 107.649 88.2704 108.457 85.9277 109.471C76.9807 113.339 67.2571 118.371 65.5285 125.145C65.0231 127.125 64.5282 129.788 64.0807 132.564C63.6119 135.474 65.221 138.322 67.975 139.333C79.9921 143.746 93.5543 146.361 107.941 146.672H113.733C128.051 146.363 141.551 143.771 153.525 139.397Z" fill="white"/>
	</g>
	<circle cx="157.5" cy="135" r="15.5" fill="#A8ADB4"/>
	<path fill-rule="evenodd" clip-rule="evenodd" d="M159.233 135L162.861 138.629C163.34 139.107 163.34 139.883 162.861 140.361C162.383 140.84 161.607 140.84 161.129 140.361L157.5 136.733L153.872 140.361C153.393 140.84 152.618 140.84 152.14 140.361C151.661 139.883 151.661 139.107 152.14 138.629L155.768 135L152.14 131.372C151.661 130.893 151.661 130.118 152.14 129.64C152.618 129.161 153.393 129.161 153.872 129.64L157.5 133.268L161.129 129.64C161.607 129.161 162.383 129.161 162.861 129.64C163.34 130.118 163.34 130.893 162.861 131.372L159.233 135Z" fill="white"/>
	<defs>
		<filter id="filter0_d_9428_462012" x="42.3125" y="44.1719" width="94.8125" height="105.062" filterUnits="userSpaceOnUse" color-interpolation-filters="sRGB">
			<feFlood flood-opacity="0" result="BackgroundImageFix"/>
			<feColorMatrix in="SourceAlpha" type="matrix" values="0 0 0 0 0 0 0 0 0 0 0 0 0 0 0 0 0 0 127 0" result="hardAlpha"/>
			<feOffset dy="3.84375"/>
			<feGaussianBlur stdDeviation="3.84375"/>
			<feComposite in2="hardAlpha" operator="out"/>
			<feColorMatrix type="matrix" values="0 0 0 0 0 0 0 0 0 0 0 0 0 0 0 0 0 0 0.1 0"/>
			<feBlend mode="normal" in2="BackgroundImageFix" result="effect1_dropShadow_9428_462012"/>
			<feBlend mode="normal" in="SourceGraphic" in2="effect1_dropShadow_9428_462012" result="shape"/>
		</filter>
		<filter id="filter1_d_9428_462012" x="81.875" y="44.1719" width="94.8125" height="105.062" filterUnits="userSpaceOnUse" color-interpolation-filters="sRGB">
			<feFlood flood-opacity="0" result="BackgroundImageFix"/>
			<feColorMatrix in="SourceAlpha" type="matrix" values="0 0 0 0 0 0 0 0 0 0 0 0 0 0 0 0 0 0 127 0" result="hardAlpha"/>
			<feOffset dy="3.84375"/>
			<feGaussianBlur stdDeviation="3.84375"/>
			<feComposite in2="hardAlpha" operator="out"/>
			<feColorMatrix type="matrix" values="0 0 0 0 0 0 0 0 0 0 0 0 0 0 0 0 0 0 0.1 0"/>
			<feBlend mode="normal" in2="BackgroundImageFix" result="effect1_dropShadow_9428_462012"/>
			<feBlend mode="normal" in="SourceGraphic" in2="effect1_dropShadow_9428_462012" result="shape"/>
		</filter>
		<filter id="filter2_d_9428_462012" x="52" y="32.3281" width="117.531" height="130.344" filterUnits="userSpaceOnUse" color-interpolation-filters="sRGB">
			<feFlood flood-opacity="0" result="BackgroundImageFix"/>
			<feColorMatrix in="SourceAlpha" type="matrix" values="0 0 0 0 0 0 0 0 0 0 0 0 0 0 0 0 0 0 127 0" result="hardAlpha"/>
			<feOffset dy="4"/>
			<feGaussianBlur stdDeviation="6"/>
			<feComposite in2="hardAlpha" operator="out"/>
			<feColorMatrix type="matrix" values="0 0 0 0 0 0 0 0 0 0 0 0 0 0 0 0 0 0 0.12 0"/>
			<feBlend mode="normal" in2="BackgroundImageFix" result="effect1_dropShadow_9428_462012"/>
			<feBlend mode="normal" in="SourceGraphic" in2="effect1_dropShadow_9428_462012" result="shape"/>
		</filter>
	</defs>
</svg>
