<svg width="241" height="213" viewBox="0 0 241 213" fill="none" xmlns="http://www.w3.org/2000/svg">
<path fill-rule="evenodd" clip-rule="evenodd" d="M157.409 40.0817C158.738 40.0817 159.815 39.0047 159.815 37.6761C159.815 36.3475 158.738 35.2705 157.409 35.2705C156.08 35.2705 155.003 36.3475 155.003 37.6761C155.003 39.0047 156.08 40.0817 157.409 40.0817ZM38.7039 60.8624C41.5841 60.8624 43.9189 58.5275 43.9189 55.6474C43.9189 52.7672 41.5841 50.4324 38.7039 50.4324C35.8237 50.4324 33.4889 52.7672 33.4889 55.6474C33.4889 58.5275 35.8237 60.8624 38.7039 60.8624ZM38.7039 57.9547C39.9782 57.9547 41.0112 56.9217 41.0112 55.6474C41.0112 54.3731 39.9782 53.34 38.7039 53.34C37.4296 53.34 36.3965 54.3731 36.3965 55.6474C36.3965 56.9217 37.4296 57.9547 38.7039 57.9547ZM12.2102 111.773C16.0894 111.773 19.2341 108.629 19.2341 104.749C19.2341 100.87 16.0894 97.7255 12.2102 97.7255C8.33099 97.7255 5.18628 100.87 5.18628 104.749C5.18628 108.629 8.33099 111.773 12.2102 111.773ZM12.2102 108.107C14.0648 108.107 15.5683 106.604 15.5683 104.749C15.5683 102.895 14.0648 101.391 12.2102 101.391C10.3555 101.391 8.85206 102.895 8.85206 104.749C8.85206 106.604 10.3555 108.107 12.2102 108.107ZM190.539 200.155C193.301 200.155 195.54 197.916 195.54 195.154C195.54 192.393 193.301 190.154 190.539 190.154C187.778 190.154 185.539 192.393 185.539 195.154C185.539 197.916 187.778 200.155 190.539 200.155ZM190.539 197.553C191.864 197.553 192.938 196.479 192.938 195.154C192.938 193.83 191.864 192.756 190.539 192.756C189.215 192.756 188.141 193.83 188.141 195.154C188.141 196.479 189.215 197.553 190.539 197.553ZM110.5 213C157.996 213 196.5 174.496 196.5 127C196.5 79.5033 157.996 40.9998 110.5 40.9998C63.0035 40.9998 24.5 79.5033 24.5 127C24.5 174.496 63.0035 213 110.5 213ZM24.4588 206.988H7.74022C7.59716 206.988 7.45534 206.983 7.31493 206.972C3.53648 206.884 0.500191 203.709 0.5 199.805C0.501099 197.902 1.23768 196.077 2.54769 194.733C3.21919 194.043 4.01317 193.509 4.87699 193.152C4.86254 192.958 4.85518 192.763 4.85518 192.565C4.85637 190.558 5.63359 188.633 7.01587 187.214C8.39815 185.795 10.2723 184.999 12.2259 185C14.7285 185.003 16.938 186.289 18.2658 188.252C18.8964 188.022 19.5752 187.898 20.2823 187.898C23.4062 187.902 25.972 190.349 26.2694 193.479C29.2627 194.149 31.5026 196.89 31.5 200.166C31.4969 203.942 28.5168 207.001 24.8426 207C24.7138 207 24.5858 206.996 24.4588 206.988ZM201.638 73.992H213.503C213.593 73.9971 213.684 73.9997 213.775 73.9998C216.383 74.0008 218.498 71.9152 218.5 69.3407C218.502 67.1067 216.912 65.2382 214.788 64.7809C214.577 62.6471 212.756 60.9785 210.539 60.9758C210.037 60.9756 209.555 61.0606 209.108 61.2172C208.166 59.8788 206.598 59.0019 204.822 58.9998C203.435 58.9989 202.105 59.5419 201.124 60.5093C200.143 61.4767 199.592 62.7892 199.591 64.1581C199.591 64.2928 199.596 64.4262 199.606 64.5582C198.993 64.8015 198.43 65.1658 197.953 65.6358C197.024 66.5526 196.501 67.7966 196.5 69.0939C196.5 71.7558 198.655 73.9208 201.336 73.981C201.436 73.9883 201.537 73.992 201.638 73.992Z" fill="#E5F9FF"/>
<g filter="url(#filter0_d_8587_228411)">
<path d="M99.4194 178.047C94.6134 123.883 119.21 83.7617 132.596 73.6164C114.129 58.7096 74.5342 60.4162 62.0816 63.8316C79.7716 25.1344 122.551 41.3306 137.706 55.4359C139.947 39.2852 125.126 29.1821 83.5576 22.6185C114.734 -3.08846 156.015 19.4095 156.85 50.3892C197.009 19.9533 222.364 58.8228 225.767 71.2977C197.872 55.436 175.316 61.7254 164.542 65.3746C217.485 68.605 216.446 98.2955 202.871 122.132C196.778 97.0048 179.275 81.4585 152.043 81.4585C136.613 111.226 134.972 122.132 143.776 178.047C126.538 183.885 107.347 182.576 99.4194 178.047Z" fill="white"/>
<path d="M98.427 178.135C98.4558 178.46 98.6419 178.75 98.9252 178.912C103.099 181.296 110.073 182.766 118.086 182.931C126.131 183.097 135.355 181.951 144.095 178.99C144.555 178.835 144.835 178.371 144.76 177.892C140.356 149.922 138.588 133.334 139.814 120.039C141.019 106.96 145.127 97.0142 152.648 82.4574C165.792 82.5708 176.538 86.3848 184.751 93.1419C193.095 100.006 198.897 109.97 201.903 122.367C201.999 122.764 202.328 123.061 202.732 123.118C203.137 123.175 203.535 122.98 203.737 122.625C210.569 110.629 214.418 96.8812 209.566 85.6314C205.002 75.0527 192.955 67.1198 169.736 64.7913C181.549 61.4418 201.416 58.5977 225.274 72.1638C225.624 72.3628 226.06 72.3317 226.378 72.0848C226.696 71.838 226.834 71.424 226.728 71.0356C225.839 67.7775 223.555 62.9042 220.024 57.9124C216.485 52.9118 211.653 47.7326 205.625 43.9105C199.589 40.0829 192.346 37.6126 184.027 38.0669C176.122 38.4986 167.327 41.5672 157.747 48.4859C155.321 17.6276 114.081 -3.84096 82.9238 21.8498C82.6214 22.0992 82.4933 22.5028 82.5965 22.8809C82.6997 23.2591 83.0151 23.5415 83.4022 23.6027C104.165 26.881 118.093 31.0247 126.534 36.2779C130.739 38.8946 133.533 41.7565 135.152 44.8767C136.497 47.4662 137.061 50.2886 136.902 53.3929C128.872 46.6056 115.048 39.7701 100.91 38.8387C93.364 38.3415 85.6861 39.5241 78.7497 43.3378C71.8048 47.1562 65.6759 53.5727 61.1754 63.4174C61.0146 63.7693 61.072 64.1825 61.3227 64.4772C61.5734 64.7719 61.972 64.8948 62.3451 64.7925C68.4301 63.1235 81.3218 61.8425 95.0107 62.8468C108.231 63.8167 121.96 66.9031 130.984 73.6265C124.189 79.2811 115.171 91.6641 108.261 108.955C100.987 127.153 96.0087 150.881 98.427 178.135Z" stroke="#7FDEFC" stroke-width="1.99264" stroke-linejoin="round"/>
</g>
<mask id="mask0_8587_228411" style="mask-type:alpha" maskUnits="userSpaceOnUse" x="62" y="11" width="164" height="171">
<path d="M99.4194 178.047C94.6134 123.883 119.21 83.7617 132.596 73.6164C114.129 58.7096 74.5342 60.4162 62.0816 63.8316C79.7716 25.1344 122.551 41.3306 137.706 55.4359C139.947 39.2852 125.126 29.1821 83.5576 22.6185C114.734 -3.08846 156.015 19.4095 156.85 50.3892C197.009 19.9533 222.364 58.8228 225.767 71.2977C197.872 55.436 175.316 61.7254 164.542 65.3746C217.485 68.605 216.446 98.2955 202.871 122.132C196.778 97.0048 179.275 81.4585 152.043 81.4585C136.613 111.226 134.972 122.132 143.776 178.047C126.538 183.885 107.347 182.576 99.4194 178.047Z" fill="white"/>
</mask>
<g mask="url(#mask0_8587_228411)">
<path d="M109.812 100.287L112.546 109.585L120.751 105.209L124.033 112.867L131.69 109.585L134.425 116.695L142.082 112.867" stroke="#C3F0FF" stroke-width="2" stroke-linejoin="round"/>
<path d="M99.9664 125.851L103.807 134.749L111.421 129.412L115.606 136.616L122.81 132.431L126.385 139.158L133.523 134.431L136.188 140.612L140.924 135.648" stroke="#C3F0FF" stroke-width="2" stroke-linejoin="round"/>
<path d="M103.637 155.777L108.532 164.142L115.44 157.917L120.471 164.558L127.111 159.527L131.48 165.768L137.988 160.207L141.386 166.017L145.483 160.514" stroke="#C3F0FF" stroke-width="2" stroke-linejoin="round"/>
<path d="M120.756 78.4087L122.224 87.9891L130.939 84.7493L133.168 92.7767L141.195 90.5479L142.955 97.9601L151.056 95.1893" stroke="#C3F0FF" stroke-width="2" stroke-linejoin="round"/>
<path d="M129.881 74.8618L138.597 71.622L140.825 79.6494L148.853 77.4206L150.613 84.8328" stroke="#C3F0FF" stroke-width="2" stroke-linejoin="round"/>
</g>
<g filter="url(#filter1_d_8587_228411)">
<rect x="13.5" y="151.808" width="47" height="89" rx="6" transform="rotate(-59.4946 13.5 151.808)" fill="white"/>
</g>
<rect x="20.346" y="150.038" width="37" height="79" rx="2" transform="rotate(-59.4946 20.346 150.038)" stroke="#7FDEFC" stroke-width="2" stroke-linejoin="round"/>
<circle cx="63.0848" cy="154.327" r="12" transform="rotate(-59.4946 63.0848 154.327)" fill="#C3F0FF"/>
<g filter="url(#filter2_d_8587_228411)">
<rect x="20.4027" y="140.092" width="47" height="89" rx="6" transform="rotate(-50.706 20.4027 140.092)" fill="white"/>
</g>
<rect x="27.4387" y="139.389" width="37" height="79" rx="2" transform="rotate(-50.706 27.4387 139.389)" stroke="#7FDEFC" stroke-width="2" stroke-linejoin="round"/>
<circle cx="69.0205" cy="150.157" r="12" transform="rotate(-50.706 69.0205 150.157)" fill="#C3F0FF"/>
<g filter="url(#filter3_d_8587_228411)">
<rect x="28.8729" y="127.685" width="47" height="89" rx="6" transform="rotate(-40.759 28.8729 127.685)" fill="white"/>
</g>
<rect x="35.9246" y="128.208" width="37" height="79" rx="2" transform="rotate(-40.759 35.9246 128.208)" stroke="#7FDEFC" stroke-width="2" stroke-linejoin="round"/>
<circle cx="75.0212" cy="145.997" r="12" transform="rotate(-40.759 75.0212 145.997)" fill="#C3F0FF"/>
<defs>
<filter id="filter0_d_8587_228411" x="46.9619" y="0.682265" width="193.925" height="200.763" filterUnits="userSpaceOnUse" color-interpolation-filters="sRGB">
<feFlood flood-opacity="0" result="BackgroundImageFix"/>
<feColorMatrix in="SourceAlpha" type="matrix" values="0 0 0 0 0 0 0 0 0 0 0 0 0 0 0 0 0 0 127 0" result="hardAlpha"/>
<feOffset dy="4.37566"/>
<feGaussianBlur stdDeviation="6.5635"/>
<feComposite in2="hardAlpha" operator="out"/>
<feColorMatrix type="matrix" values="0 0 0 0 0 0 0 0 0 0 0 0 0 0 0 0 0 0 0.08 0"/>
<feBlend mode="normal" in2="BackgroundImageFix" result="effect1_dropShadow_8587_228411"/>
<feBlend mode="normal" in="SourceGraphic" in2="effect1_dropShadow_8587_228411" result="shape"/>
</filter>
<filter id="filter1_d_8587_228411" x="3.71426" y="105.527" width="120.11" height="105.244" filterUnits="userSpaceOnUse" color-interpolation-filters="sRGB">
<feFlood flood-opacity="0" result="BackgroundImageFix"/>
<feColorMatrix in="SourceAlpha" type="matrix" values="0 0 0 0 0 0 0 0 0 0 0 0 0 0 0 0 0 0 127 0" result="hardAlpha"/>
<feOffset dy="4"/>
<feGaussianBlur stdDeviation="6"/>
<feComposite in2="hardAlpha" operator="out"/>
<feColorMatrix type="matrix" values="0 0 0 0 0 0 0 0 0 0 0 0 0 0 0 0 0 0 0.08 0"/>
<feBlend mode="normal" in2="BackgroundImageFix" result="effect1_dropShadow_8587_228411"/>
<feBlend mode="normal" in="SourceGraphic" in2="effect1_dropShadow_8587_228411" result="shape"/>
</filter>
<filter id="filter2_d_8587_228411" x="10.8457" y="98.1611" width="117.757" height="111.851" filterUnits="userSpaceOnUse" color-interpolation-filters="sRGB">
<feFlood flood-opacity="0" result="BackgroundImageFix"/>
<feColorMatrix in="SourceAlpha" type="matrix" values="0 0 0 0 0 0 0 0 0 0 0 0 0 0 0 0 0 0 127 0" result="hardAlpha"/>
<feOffset dy="4"/>
<feGaussianBlur stdDeviation="6"/>
<feComposite in2="hardAlpha" operator="out"/>
<feColorMatrix type="matrix" values="0 0 0 0 0 0 0 0 0 0 0 0 0 0 0 0 0 0 0.08 0"/>
<feBlend mode="normal" in2="BackgroundImageFix" result="effect1_dropShadow_8587_228411"/>
<feBlend mode="normal" in="SourceGraphic" in2="effect1_dropShadow_8587_228411" result="shape"/>
</filter>
<filter id="filter3_d_8587_228411" x="19.3348" y="91.4619" width="112.783" height="117.175" filterUnits="userSpaceOnUse" color-interpolation-filters="sRGB">
<feFlood flood-opacity="0" result="BackgroundImageFix"/>
<feColorMatrix in="SourceAlpha" type="matrix" values="0 0 0 0 0 0 0 0 0 0 0 0 0 0 0 0 0 0 127 0" result="hardAlpha"/>
<feOffset dy="4"/>
<feGaussianBlur stdDeviation="6"/>
<feComposite in2="hardAlpha" operator="out"/>
<feColorMatrix type="matrix" values="0 0 0 0 0 0 0 0 0 0 0 0 0 0 0 0 0 0 0.08 0"/>
<feBlend mode="normal" in2="BackgroundImageFix" result="effect1_dropShadow_8587_228411"/>
<feBlend mode="normal" in="SourceGraphic" in2="effect1_dropShadow_8587_228411" result="shape"/>
</filter>
</defs>
</svg>
