<svg width="219" height="178" viewBox="0 0 219 178" fill="none" xmlns="http://www.w3.org/2000/svg">
<path fill-rule="evenodd" clip-rule="evenodd" d="M157.409 5.08173C158.738 5.08173 159.815 4.0047 159.815 2.67612C159.815 1.34754 158.738 0.270508 157.409 0.270508C156.08 0.270508 155.003 1.34754 155.003 2.67612C155.003 4.0047 156.08 5.08173 157.409 5.08173ZM38.7039 25.8624C41.5841 25.8624 43.9189 23.5275 43.9189 20.6474C43.9189 17.7672 41.5841 15.4324 38.7039 15.4324C35.8237 15.4324 33.4889 17.7672 33.4889 20.6474C33.4889 23.5275 35.8237 25.8624 38.7039 25.8624ZM38.7039 22.9547C39.9782 22.9547 41.0112 21.9217 41.0112 20.6474C41.0112 19.3731 39.9782 18.34 38.7039 18.34C37.4296 18.34 36.3965 19.3731 36.3965 20.6474C36.3965 21.9217 37.4296 22.9547 38.7039 22.9547ZM12.2102 76.7733C16.0894 76.7733 19.2341 73.6286 19.2341 69.7494C19.2341 65.8702 16.0894 62.7255 12.2102 62.7255C8.33099 62.7255 5.18628 65.8702 5.18628 69.7494C5.18628 73.6286 8.33099 76.7733 12.2102 76.7733ZM12.2102 73.1075C14.0648 73.1075 15.5683 71.604 15.5683 69.7494C15.5683 67.8947 14.0648 66.3912 12.2102 66.3912C10.3555 66.3912 8.85206 67.8947 8.85206 69.7494C8.85206 71.604 10.3555 73.1075 12.2102 73.1075ZM190.539 165.155C193.301 165.155 195.54 162.916 195.54 160.154C195.54 157.393 193.301 155.154 190.539 155.154C187.778 155.154 185.539 157.393 185.539 160.154C185.539 162.916 187.778 165.155 190.539 165.155ZM190.539 162.553C191.864 162.553 192.938 161.479 192.938 160.154C192.938 158.83 191.864 157.756 190.539 157.756C189.215 157.756 188.141 158.83 188.141 160.154C188.141 161.479 189.215 162.553 190.539 162.553ZM110.5 178C157.996 178 196.5 139.496 196.5 91.9998C196.5 44.5033 157.996 5.99976 110.5 5.99976C63.0035 5.99976 24.5 44.5033 24.5 91.9998C24.5 139.496 63.0035 178 110.5 178ZM24.4588 171.988H7.74022C7.59716 171.988 7.45534 171.983 7.31493 171.972C3.53648 171.884 0.500191 168.709 0.5 164.805C0.501099 162.902 1.23768 161.077 2.54769 159.733C3.21919 159.043 4.01317 158.509 4.87699 158.152C4.86254 157.958 4.85518 157.763 4.85518 157.565C4.85637 155.558 5.63359 153.633 7.01587 152.214C8.39815 150.795 10.2723 149.999 12.2259 150C14.7285 150.003 16.938 151.289 18.2658 153.252C18.8964 153.022 19.5752 152.898 20.2823 152.898C23.4062 152.902 25.972 155.349 26.2694 158.479C29.2627 159.149 31.5026 161.89 31.5 165.166C31.4969 168.942 28.5168 172.001 24.8426 172C24.7138 172 24.5858 171.996 24.4588 171.988ZM201.638 38.992H213.503C213.593 38.9971 213.684 38.9997 213.775 38.9998C216.383 39.0008 218.498 36.9152 218.5 34.3407C218.502 32.1067 216.912 30.2382 214.788 29.7809C214.577 27.6471 212.756 25.9785 210.539 25.9758C210.037 25.9756 209.555 26.0606 209.108 26.2172C208.166 24.8788 206.598 24.0019 204.822 23.9998C203.435 23.9989 202.105 24.5419 201.124 25.5093C200.143 26.4767 199.592 27.7892 199.591 29.1581C199.591 29.2928 199.596 29.4262 199.606 29.5582C198.993 29.8015 198.43 30.1658 197.953 30.6358C197.024 31.5526 196.501 32.7966 196.5 34.0939C196.5 36.7558 198.655 38.9208 201.336 38.981C201.436 38.9883 201.537 38.992 201.638 38.992Z" fill="#E5F9FF"/>
<g filter="url(#filter0_d_9488_507448)">
<path fill-rule="evenodd" clip-rule="evenodd" d="M99.9885 53.063C102.115 52.6265 104.288 52.3198 106.5 52.1516V47H102.5V42C102.5 40.8954 103.395 40 104.5 40H116.5C117.605 40 118.5 40.8954 118.5 42V45C118.5 46.1046 117.605 47 116.5 47H114.5V52.1516C116.712 52.3198 118.885 52.6265 121.012 53.063C124.375 50.1298 126.5 45.8131 126.5 41C126.5 32.1634 119.337 25 110.5 25C101.663 25 94.5 32.1634 94.5 41C94.5 45.8131 96.6252 50.1298 99.9885 53.063ZM95.477 54.203C92.3789 50.6806 90.5 46.0597 90.5 41C90.5 29.9543 99.4543 21 110.5 21C121.546 21 130.5 29.9543 130.5 41C130.5 46.0597 128.621 50.6806 125.523 54.203C130.04 55.5639 134.298 57.5226 138.205 59.9871L141.959 55.4795C142.666 54.6307 143.927 54.5157 144.776 55.2225L150.29 59.8146C151.138 60.5214 151.253 61.7825 150.547 62.6313L146.967 66.93C156.555 76.3629 162.5 89.4872 162.5 104C162.5 132.719 139.219 156 110.5 156C81.7812 156 58.5 132.719 58.5 104C58.5 80.5045 74.0827 60.6485 95.477 54.203Z" fill="white"/>
</g>
<circle cx="110.5" cy="104" r="32" stroke="#D3F4FF" stroke-width="2"/>
<circle cx="110.5" cy="104" r="48" stroke="#D3F4FF" stroke-width="4"/>
<circle cx="110.5" cy="104" r="51" stroke="#7FDEFC" stroke-width="2"/>
<line x1="110.5" y1="104" x2="110.5" y2="64" stroke="#C3F0FF" stroke-width="2" stroke-linecap="round">
		<animateTransform
			attributeName="transform"
			begin="0s"
			dur="2s"
			fill="freeze"
			type="rotate"
			from="0 110.5 104"
			to="360 110.5 104"
			repeatCount="indefinite" />
</line>
<line x1="110.5" y1="104" x2="110.5" y2="74" stroke="#2FC6F6"  stroke-width="4" stroke-linecap="round">
	<animateTransform
		attributeName="transform"
		begin="0s"
		dur="6s"
		fill="freeze"
		type="rotate"
		from="0 110.5 104"
		to="360 110.5 104"
		repeatCount="indefinite" />
</line>
<defs>
	<filter id="filter0_d_9488_507448" x="48.2879" y="14.1919" width="124.424" height="155.424" filterUnits="userSpaceOnUse" color-interpolation-filters="sRGB">
		<feFlood flood-opacity="0" result="BackgroundImageFix"/>
		<feColorMatrix in="SourceAlpha" type="matrix" values="0 0 0 0 0 0 0 0 0 0 0 0 0 0 0 0 0 0 127 0" result="hardAlpha"/>
		<feOffset dy="3.40404"/>
		<feGaussianBlur stdDeviation="5.10606"/>
		<feComposite in2="hardAlpha" operator="out"/>
		<feColorMatrix type="matrix" values="0 0 0 0 0 0 0 0 0 0 0 0 0 0 0 0 0 0 0.12 0"/>
		<feBlend mode="normal" in2="BackgroundImageFix" result="effect1_dropShadow_9488_507448"/>
		<feBlend mode="normal" in="SourceGraphic" in2="effect1_dropShadow_9488_507448" result="shape"/>
	</filter>
	<clipPath id="clip0_9488_507448">
		<rect x="108.5" y="66" width="4" height="76" rx="2" fill="white"/>
	</clipPath>
	<clipPath id="clip1_9488_507448">
		<rect x="108.5" y="66" width="4" height="76" rx="2" fill="white"/>
	</clipPath>
</defs>
</svg>
