<svg width="218" height="178" viewBox="0 0 218 178" fill="none" xmlns="http://www.w3.org/2000/svg">
<path fill-rule="evenodd" clip-rule="evenodd" d="M156.909 5.08173C158.238 5.08173 159.315 4.0047 159.315 2.67612C159.315 1.34754 158.238 0.270508 156.909 0.270508C155.58 0.270508 154.503 1.34754 154.503 2.67612C154.503 4.0047 155.58 5.08173 156.909 5.08173ZM38.2039 25.8624C41.0841 25.8624 43.4189 23.5275 43.4189 20.6474C43.4189 17.7672 41.0841 15.4324 38.2039 15.4324C35.3237 15.4324 32.9889 17.7672 32.9889 20.6474C32.9889 23.5275 35.3237 25.8624 38.2039 25.8624ZM38.2039 22.9547C39.4782 22.9547 40.5112 21.9217 40.5112 20.6474C40.5112 19.3731 39.4782 18.34 38.2039 18.34C36.9296 18.34 35.8965 19.3731 35.8965 20.6474C35.8965 21.9217 36.9296 22.9547 38.2039 22.9547ZM11.7102 76.7733C15.5894 76.7733 18.7341 73.6286 18.7341 69.7494C18.7341 65.8702 15.5894 62.7255 11.7102 62.7255C7.83099 62.7255 4.68628 65.8702 4.68628 69.7494C4.68628 73.6286 7.83099 76.7733 11.7102 76.7733ZM11.7102 73.1075C13.5648 73.1075 15.0683 71.604 15.0683 69.7494C15.0683 67.8947 13.5648 66.3912 11.7102 66.3912C9.85555 66.3912 8.35206 67.8947 8.35206 69.7494C8.35206 71.604 9.85555 73.1075 11.7102 73.1075ZM190.039 165.155C192.801 165.155 195.04 162.916 195.04 160.154C195.04 157.393 192.801 155.154 190.039 155.154C187.278 155.154 185.039 157.393 185.039 160.154C185.039 162.916 187.278 165.155 190.039 165.155ZM190.039 162.553C191.364 162.553 192.438 161.479 192.438 160.154C192.438 158.83 191.364 157.756 190.039 157.756C188.715 157.756 187.641 158.83 187.641 160.154C187.641 161.479 188.715 162.553 190.039 162.553ZM110 178C157.496 178 196 139.496 196 91.9998C196 44.5033 157.496 5.99976 110 5.99976C62.5035 5.99976 24 44.5033 24 91.9998C24 139.496 62.5035 178 110 178ZM23.9588 171.988H7.24022C7.09716 171.988 6.95534 171.983 6.81493 171.972C3.03648 171.884 0.000190901 168.709 0 164.805C0.00109851 162.902 0.737676 161.077 2.04769 159.733C2.71919 159.043 3.51317 158.509 4.37699 158.152C4.36254 157.958 4.35518 157.763 4.35518 157.565C4.35637 155.558 5.13359 153.633 6.51587 152.214C7.89815 150.795 9.77226 149.999 11.7259 150C14.2285 150.003 16.438 151.289 17.7658 153.252C18.3964 153.022 19.0752 152.898 19.7823 152.898C22.9062 152.902 25.472 155.349 25.7694 158.479C28.7627 159.149 31.0026 161.89 31 165.166C30.9969 168.942 28.0168 172.001 24.3426 172C24.2138 172 24.0858 171.996 23.9588 171.988ZM201.138 38.992H213.003C213.093 38.9971 213.184 38.9997 213.275 38.9998C215.883 39.0008 217.998 36.9152 218 34.3407C218.002 32.1067 216.412 30.2382 214.288 29.7809C214.077 27.6471 212.256 25.9785 210.039 25.9758C209.537 25.9756 209.055 26.0606 208.608 26.2172C207.666 24.8788 206.098 24.0019 204.322 23.9998C202.935 23.9989 201.605 24.5419 200.624 25.5093C199.643 26.4767 199.092 27.7892 199.091 29.1581C199.091 29.2928 199.096 29.4262 199.106 29.5582C198.493 29.8015 197.93 30.1658 197.453 30.6358C196.524 31.5526 196.001 32.7966 196 34.0939C196 36.7558 198.155 38.9208 200.836 38.981C200.936 38.9883 201.037 38.992 201.138 38.992Z" fill="#E5F9FF"/>
<g filter="url(#filter0_d_9845_231663)">
<path d="M125.535 130.568C127.979 129.681 129.335 127.117 128.834 124.57L127.103 115.769C127.103 112.096 122.203 107.901 112.554 105.456C109.284 104.562 106.177 103.177 103.341 101.349C102.721 101.002 102.816 97.7946 102.816 97.7946L99.7079 97.3312C99.7079 97.0708 99.4422 93.2245 99.4422 93.2245C103.161 92.0002 102.778 84.7784 102.778 84.7784C105.139 86.0618 106.677 80.3467 106.677 80.3467C109.47 72.4066 105.286 72.8867 105.286 72.8867C106.018 68.0395 106.018 63.1131 105.286 58.2659C103.426 42.1863 75.4208 46.5515 78.7415 51.803C70.5566 50.3258 72.4242 68.5732 72.4242 68.5732L74.1995 73.2985C71.7388 74.8624 72.2221 76.6571 72.7618 78.662C72.9869 79.4978 73.2217 80.3701 73.2572 81.2774C73.4287 85.8309 76.2726 84.8874 76.2726 84.8874C76.4479 92.4028 80.2303 93.3814 80.2303 93.3814C80.9408 98.1012 80.498 97.2979 80.498 97.2979L77.132 97.6968C77.1776 98.7701 77.0883 99.8448 76.8663 100.897C74.9106 101.751 73.7133 102.43 72.5279 103.103C71.3143 103.792 70.1132 104.474 68.1235 105.328C60.5247 108.591 52.2663 112.835 50.7982 118.548C50.3689 120.218 49.9486 122.464 49.5686 124.805C49.1704 127.259 50.537 129.661 52.876 130.514C63.0823 134.236 74.6009 136.441 86.8197 136.703H91.7393C103.899 136.443 115.366 134.257 125.535 130.568Z" fill="#F4FCFE"/>
</g>
<g filter="url(#filter1_d_9845_231663)">
<path d="M165.098 130.568C167.542 129.681 168.898 127.117 168.397 124.57L166.665 115.769C166.665 112.096 161.765 107.901 152.116 105.456C148.847 104.562 145.739 103.177 142.904 101.349C142.284 101.002 142.378 97.7946 142.378 97.7946L139.27 97.3312C139.27 97.0708 139.005 93.2245 139.005 93.2245C142.723 92.0002 142.34 84.7784 142.34 84.7784C144.702 86.0618 146.24 80.3467 146.24 80.3467C149.033 72.4066 144.849 72.8867 144.849 72.8867C145.581 68.0395 145.581 63.1131 144.849 58.2659C142.989 42.1863 114.983 46.5515 118.304 51.803C110.119 50.3258 111.987 68.5732 111.987 68.5732L113.762 73.2985C111.301 74.8624 111.785 76.6571 112.324 78.662C112.549 79.4978 112.784 80.3701 112.82 81.2774C112.991 85.8309 115.835 84.8874 115.835 84.8874C116.01 92.4028 119.793 93.3814 119.793 93.3814C120.503 98.1012 120.06 97.2979 120.06 97.2979L116.695 97.6968C116.74 98.7701 116.651 99.8448 116.429 100.897C114.473 101.751 113.276 102.43 112.09 103.103C110.877 103.792 109.676 104.474 107.686 105.328C100.087 108.591 91.8288 112.835 90.3607 118.548C89.9314 120.218 89.5111 122.464 89.1311 124.805C88.7329 127.259 90.0995 129.661 92.4385 130.514C102.645 134.236 114.163 136.441 126.382 136.703H131.302C143.462 136.443 154.928 134.257 165.098 130.568Z" fill="#F4FCFE"/>
</g>
<g filter="url(#filter2_d_9845_231663)">
<path d="M153.025 138.397C155.903 137.346 157.499 134.306 156.91 131.286L154.871 120.85C154.871 116.495 149.102 111.52 137.74 108.622C133.891 107.562 130.232 105.92 126.894 103.752C126.164 103.341 126.275 99.5375 126.275 99.5375L122.616 98.988C122.616 98.6793 122.303 94.1186 122.303 94.1186C126.681 92.667 126.231 84.104 126.231 84.104C129.011 85.6257 130.822 78.8493 130.822 78.8493C134.11 69.4346 129.184 70.0039 129.184 70.0039C130.046 64.2564 130.046 58.4152 129.184 52.6677C126.994 33.6019 94.0196 38.7778 97.9295 45.0046C88.2924 43.253 90.4914 64.8893 90.4914 64.8893L92.5817 70.4921C89.6844 72.3464 90.2534 74.4745 90.8889 76.8516C91.1539 77.8426 91.4304 78.877 91.4722 79.9528C91.6741 85.352 95.0226 84.2332 95.0226 84.2332C95.229 93.1443 99.6825 94.3047 99.6825 94.3047C100.519 99.901 99.9976 98.9486 99.9976 98.9486L96.0345 99.4215C96.0881 100.694 95.983 101.968 95.7216 103.216C93.419 104.228 92.0093 105.034 90.6135 105.832C89.1846 106.649 87.7704 107.457 85.4277 108.471C76.4807 112.339 66.7571 117.371 65.0285 124.145C64.5231 126.125 64.0282 128.788 63.5807 131.564C63.1119 134.474 64.721 137.322 67.475 138.333C79.4921 142.746 93.0543 145.361 107.441 145.672H113.233C127.551 145.363 141.051 142.771 153.025 138.397Z" fill="white"/>
<path d="M123.35 94.7683L123.349 94.7567C124.362 94.2229 125.1 93.372 125.633 92.4363C126.282 91.2959 126.663 89.9697 126.891 88.7509C127.121 87.5242 127.205 86.3545 127.232 85.4963C127.234 85.4357 127.236 85.3766 127.237 85.319C127.275 85.316 127.313 85.3121 127.351 85.3073C127.882 85.2406 128.341 85.0104 128.722 84.7244C129.46 84.1699 130.03 83.309 130.452 82.517C130.885 81.7031 131.217 80.8513 131.44 80.2135C131.552 79.8922 131.638 79.6197 131.696 79.426C131.725 79.3291 131.747 79.2516 131.763 79.1973L131.777 79.147C133.425 74.4125 133.184 71.7432 132.02 70.2747C131.497 69.6154 130.854 69.2913 130.316 69.1365C131.046 63.6248 130.999 58.0384 130.175 52.5363C129.586 47.4465 126.922 43.9448 123.359 41.7047C119.826 39.484 115.434 38.5119 111.308 38.3522C107.185 38.1925 103.212 38.8395 100.474 39.9695C99.1218 40.5276 97.9534 41.2511 97.2637 42.1593C96.9085 42.6271 96.659 43.1729 96.6147 43.7826C96.6117 43.8247 96.6096 43.8668 96.6086 43.9088C95.8112 43.9409 95.0744 44.128 94.4017 44.4588C93.3362 44.9828 92.5063 45.8302 91.8612 46.8307C90.5884 48.8048 89.9373 51.5269 89.6044 54.1649C89.2682 56.8298 89.2425 59.5354 89.2988 61.5638C89.327 62.5806 89.3761 63.4332 89.4182 64.0331C89.4393 64.3331 89.4586 64.5703 89.4728 64.7334C89.4799 64.815 89.4858 64.8782 89.4899 64.9214L89.4946 64.9713L89.496 64.9848L89.4964 64.9886L89.4965 64.9897C89.4965 64.9901 89.4965 64.9904 90.4914 64.8893L89.4965 64.9904C89.5052 65.0754 89.5247 65.1588 89.5545 65.2388L91.3764 70.1222C90.1783 71.0672 89.5783 72.1426 89.4192 73.3445C89.2523 74.605 89.5985 75.8985 89.8976 77.0155C89.9061 77.0471 89.9145 77.0786 89.9229 77.1099C90.1923 78.1176 90.436 79.0447 90.4729 79.9905C90.5813 82.885 91.5619 84.4106 92.9065 85.0268C93.3181 85.2154 93.7199 85.2955 94.0687 85.3202C94.323 89.3087 95.4484 91.7556 96.6534 93.2407C97.3039 94.0424 97.9605 94.542 98.4756 94.8456C98.5823 94.9085 98.6827 94.9629 98.7754 95.0097C98.9974 96.5462 99.0981 97.4843 99.1372 98.0441L95.916 98.4285C95.3971 98.4904 95.0133 98.9415 95.0354 99.4636C95.0784 100.485 95.0121 101.508 94.8377 102.515C92.7657 103.45 91.4239 104.217 90.1191 104.963L90.1173 104.964C88.697 105.776 87.3213 106.562 85.0308 107.553C80.5455 109.492 75.8038 111.748 71.9547 114.394C68.1342 117.02 65.0162 120.149 64.0595 123.898C63.5427 125.923 63.0421 128.621 62.5935 131.405C62.0512 134.77 63.9112 138.09 67.1303 139.272C79.2546 143.724 92.9263 146.359 107.419 146.672L107.441 146.672H113.233L113.255 146.672C127.678 146.36 141.288 143.75 153.369 139.336C156.739 138.105 158.569 134.564 157.891 131.094L155.87 120.749C155.827 118.151 154.104 115.597 151.167 113.39C148.168 111.138 143.755 109.125 137.997 107.655C134.29 106.634 130.765 105.058 127.544 102.982C127.522 102.922 127.494 102.831 127.465 102.703C127.39 102.363 127.339 101.91 127.309 101.427C127.279 100.953 127.27 100.486 127.269 100.135C127.268 99.9608 127.27 99.8167 127.271 99.7171C127.272 99.6673 127.273 99.6287 127.274 99.603L127.274 99.5745L127.274 99.5679L127.274 99.5667C127.289 99.0609 126.924 98.6238 126.423 98.5486L123.57 98.1201C123.54 97.6204 123.497 96.9779 123.457 96.3713C123.418 95.7813 123.379 95.201 123.35 94.7683ZM127.577 103.054C127.576 103.054 127.574 103.05 127.57 103.042C127.575 103.05 127.577 103.055 127.577 103.054Z" stroke="#7FDEFC" stroke-width="2" stroke-linejoin="round"/>
</g>
<circle cx="157" cy="134" r="15.5" fill="#2FC6F6"/>
<path fill-rule="evenodd" clip-rule="evenodd" d="M155.102 141.518C154.985 141.631 154.8 141.631 154.683 141.518L149.679 136.64C149.053 136.031 149.053 135.026 149.679 134.417V134.417C150.281 133.829 151.243 133.829 151.845 134.417L154.892 137.386L163.155 129.334C163.757 128.747 164.719 128.747 165.322 129.334V129.334C165.947 129.943 165.947 130.948 165.322 131.558L155.102 141.518Z" fill="white"/>
<defs>
<filter id="filter0_d_9845_231663" x="41.8125" y="43.1719" width="94.8125" height="105.062" filterUnits="userSpaceOnUse" color-interpolation-filters="sRGB">
<feFlood flood-opacity="0" result="BackgroundImageFix"/>
<feColorMatrix in="SourceAlpha" type="matrix" values="0 0 0 0 0 0 0 0 0 0 0 0 0 0 0 0 0 0 127 0" result="hardAlpha"/>
<feOffset dy="3.84375"/>
<feGaussianBlur stdDeviation="3.84375"/>
<feComposite in2="hardAlpha" operator="out"/>
<feColorMatrix type="matrix" values="0 0 0 0 0 0 0 0 0 0 0 0 0 0 0 0 0 0 0.1 0"/>
<feBlend mode="normal" in2="BackgroundImageFix" result="effect1_dropShadow_9845_231663"/>
<feBlend mode="normal" in="SourceGraphic" in2="effect1_dropShadow_9845_231663" result="shape"/>
</filter>
<filter id="filter1_d_9845_231663" x="81.375" y="43.1719" width="94.8125" height="105.062" filterUnits="userSpaceOnUse" color-interpolation-filters="sRGB">
<feFlood flood-opacity="0" result="BackgroundImageFix"/>
<feColorMatrix in="SourceAlpha" type="matrix" values="0 0 0 0 0 0 0 0 0 0 0 0 0 0 0 0 0 0 127 0" result="hardAlpha"/>
<feOffset dy="3.84375"/>
<feGaussianBlur stdDeviation="3.84375"/>
<feComposite in2="hardAlpha" operator="out"/>
<feColorMatrix type="matrix" values="0 0 0 0 0 0 0 0 0 0 0 0 0 0 0 0 0 0 0.1 0"/>
<feBlend mode="normal" in2="BackgroundImageFix" result="effect1_dropShadow_9845_231663"/>
<feBlend mode="normal" in="SourceGraphic" in2="effect1_dropShadow_9845_231663" result="shape"/>
</filter>
<filter id="filter2_d_9845_231663" x="53.8127" y="33.4844" width="112.905" height="125.719" filterUnits="userSpaceOnUse" color-interpolation-filters="sRGB">
<feFlood flood-opacity="0" result="BackgroundImageFix"/>
<feColorMatrix in="SourceAlpha" type="matrix" values="0 0 0 0 0 0 0 0 0 0 0 0 0 0 0 0 0 0 127 0" result="hardAlpha"/>
<feOffset dy="3.84375"/>
<feGaussianBlur stdDeviation="3.84375"/>
<feComposite in2="hardAlpha" operator="out"/>
<feColorMatrix type="matrix" values="0 0 0 0 0 0 0 0 0 0 0 0 0 0 0 0 0 0 0.1 0"/>
<feBlend mode="normal" in2="BackgroundImageFix" result="effect1_dropShadow_9845_231663"/>
<feBlend mode="normal" in="SourceGraphic" in2="effect1_dropShadow_9845_231663" result="shape"/>
</filter>
</defs>
</svg>
