<svg width="24" height="24" viewBox="0 0 24 24" fill="none" xmlns="http://www.w3.org/2000/svg">
<path d="M15.3005 6.74917L12 10.0497L8.69945 6.74917C8.09936 6.14908 7.34924 6.14908 6.74914 6.74917C6.14905 7.34927 6.14905 8.09939 6.74914 8.69948L10.0497 12L6.74914 15.3005C6.14905 15.9006 6.14905 16.6507 6.74914 17.2508C7.34924 17.8509 8.09936 17.8509 8.69945 17.2508L12 13.9503L15.3005 17.2508C15.9006 17.8509 16.6507 17.8509 17.2508 17.2508C17.8509 16.6507 17.8509 15.9006 17.2508 15.3005L13.9503 12L17.2508 8.69948C17.8509 8.09939 17.8509 7.34927 17.2508 6.74917C16.6507 6.2991 15.7506 6.2991 15.3005 6.74917Z" fill="#525C69"/>
</svg>
