<svg width="27" height="27" viewBox="0 0 27 27" fill="none" xmlns="http://www.w3.org/2000/svg">
	<path fill-rule="evenodd" clip-rule="evenodd" d="M14.3405 11.1291H13.2713V13.9956H16.0103V12.9264H14.3405V11.1291ZM13.8665 16.8033C11.8565 16.8033 10.2271 15.1739 10.2271 13.164C10.2271 11.154 11.8565 9.52461 13.8665 9.52461C15.8764 9.52461 17.5058 11.154 17.5058 13.164C17.5058 15.1739 15.8764 16.8033 13.8665 16.8033ZM20.9587 12.1751C20.9667 12.0724 20.9718 11.9692 20.9718 11.8646C20.9718 9.65308 19.1792 7.86033 16.9676 7.86033C16.4867 7.86033 16.0258 7.94528 15.5987 8.10055C14.9614 6.73383 13.5759 5.78613 11.9684 5.78613C9.88705 5.78613 8.1771 7.3743 7.98298 9.40466C5.84166 9.89057 4.24268 11.804 4.24268 14.0923C4.24268 16.7478 6.39528 18.9004 9.05079 18.9004H20.438C22.3233 18.9004 23.8515 17.5701 23.8515 15.4869C23.8515 12.7891 21.2239 12.109 20.9587 12.1751Z" fill="#2FC6F6"/>
</svg>
