<?xml version="1.0" encoding="UTF-8" standalone="no"?>
<svg width="25px" height="657px" viewBox="0 0 25 657" version="1.1" xmlns="http://www.w3.org/2000/svg" xmlns:xlink="http://www.w3.org/1999/xlink">
    <!-- Generator: Sketch 3.8.3 (29802) - http://www.bohemiancoding.com/sketch -->
    <title>crm-webform-edit-sprite</title>
    <desc>Created with Sketch.</desc>
    <defs>
        <circle id="path-1" cx="8" cy="8" r="8"></circle>
        <circle id="path-3" cx="8" cy="8" r="8"></circle>
    </defs>
    <g id="Page-1" stroke="none" stroke-width="1" fill="none" fill-rule="evenodd">
        <g id="crm-webform-edit-sprite">
            <g id="crm-webform-edit-search" opacity="0.533640392" fill="#535C69">
                <g id="Shape">
                    <g id="Page-1">
                        <g id="Создание-формы-04">
                            <g id="Попап">
                                <path d="M10.030274,8.6880621 C11.54358,6.53585196 11.343823,3.53737246 9.421094,1.61429028 C7.269238,-0.53809676 3.766677,-0.53809676 1.61429,1.61429028 C-0.538097,3.76650038 -0.538097,7.26870745 1.61429,9.4210945 C3.537196,11.3445305 6.535498,11.5435799 8.687885,10.0297432 L11.361956,12.7186769 C11.7367,13.0930666 12.343579,13.0930666 12.7185,12.7186769 C13.093774,12.3437564 13.093774,11.7372309 12.718854,11.3623103 L10.030274,8.6880621 L10.030274,8.6880621 Z M5.47974,9.3236045 C3.353362,9.3236045 1.62933,7.60010251 1.62933,5.47390152 C1.62933,3.34716974 3.353362,1.62349078 5.47974,1.62349078 C7.60541,1.62349078 9.329443,3.34716974 9.329443,5.47390152 C9.329443,7.60010251 7.60541,9.3236045 5.47974,9.3236045 L5.47974,9.3236045 L5.47974,9.3236045 Z" id="Shape"></path>
                            </g>
                        </g>
                    </g>
                </g>
            </g>
            <g id="crm-webform-edit-search-hover" transform="translate(0.000000, 15.000000)" opacity="0.533640392" fill="#010101">
                <g id="Shape">
                    <g id="Page-1">
                        <g id="Создание-формы-04">
                            <g id="Попап">
                                <path d="M10.030274,8.6880621 C11.54358,6.53585196 11.343823,3.53737246 9.421094,1.61429028 C7.269238,-0.53809676 3.766677,-0.53809676 1.61429,1.61429028 C-0.538097,3.76650038 -0.538097,7.26870745 1.61429,9.4210945 C3.537196,11.3445305 6.535498,11.5435799 8.687885,10.0297432 L11.361956,12.7186769 C11.7367,13.0930666 12.343579,13.0930666 12.7185,12.7186769 C13.093774,12.3437564 13.093774,11.7372309 12.718854,11.3623103 L10.030274,8.6880621 L10.030274,8.6880621 Z M5.47974,9.3236045 C3.353362,9.3236045 1.62933,7.60010251 1.62933,5.47390152 C1.62933,3.34716974 3.353362,1.62349078 5.47974,1.62349078 C7.60541,1.62349078 9.329443,3.34716974 9.329443,5.47390152 C9.329443,7.60010251 7.60541,9.3236045 5.47974,9.3236045 L5.47974,9.3236045 L5.47974,9.3236045 Z" id="Shape"></path>
                            </g>
                        </g>
                    </g>
                </g>
            </g>
            <g id="crm-webform-edit-hamburger" transform="translate(0.000000, 35.000000)" opacity="0.4" fill="#80868E">
                <g id="Combined-Shape">
                    <g id="Page-1">
                        <g id="Создание-формы-04">
                            <g id="Элементы">
                                <g id="Group-8">
                                    <path d="M0,0 L13,0 L13,2 L0,2 L0,0 L0,0 Z M0,4 L13,4 L13,6 L0,6 L0,4 L0,4 Z M0,8 L13,8 L13,10 L0,10 L0,8 L0,8 Z" id="Combined-Shape"></path>
                                </g>
                            </g>
                        </g>
                    </g>
                </g>
            </g>
            <g id="crm-webform-edit-hamburger-hover" transform="translate(0.000000, 52.000000)" opacity="0.4" fill="#000000">
                <g id="Combined-Shape">
                    <g id="Page-1">
                        <g id="Создание-формы-04">
                            <g id="Элементы">
                                <g id="Group-8">
                                    <path d="M0,0 L13,0 L13,2 L0,2 L0,0 L0,0 Z M0,4 L13,4 L13,6 L0,6 L0,4 L0,4 Z M0,8 L13,8 L13,10 L0,10 L0,8 L0,8 Z" id="Combined-Shape"></path>
                                </g>
                            </g>
                        </g>
                    </g>
                </g>
            </g>
            <g id="crm-webform-edit-cogwheel" transform="translate(0.000000, 69.000000)" opacity="0.4" fill="#535C69">
                <g id="Page-1">
                    <g id="Создание-формы-04">
                        <g>
                            <g id="Элементы">
                                <g id="Group-8">
                                    <path d="M6.144236,8.42163062 C4.876015,8.42163062 3.847427,7.39285188 3.847427,6.12482227 C3.847427,4.85660126 4.876015,3.82801392 6.144236,3.82801392 C7.412238,3.82801392 8.441017,4.85660126 8.441017,6.12482227 C8.441017,7.39285188 7.412238,8.42163062 6.144236,8.42163062 M11.801767,5.23286768 L10.5883,5.03043411 C10.500105,4.66986254 10.371512,4.3251909 10.204036,4.00371976 L10.980863,3.04053677 C11.146083,2.83698213 11.138577,2.54409805 10.964389,2.34763891 L10.481772,1.80448475 C10.306832,1.60823068 10.016723,1.56672407 9.795436,1.70652861 L8.757689,2.35887686 C8.301253,2.03997596 7.784225,1.80448475 7.226484,1.66783832 L7.023462,0.44786396 C6.980862,0.18954137 6.75732,0 6.494909,0 L5.767614,0 C5.505737,0 5.281442,0.18954137 5.239785,0.44786396 L5.035657,1.66822112 C4.574531,1.78112019 4.142184,1.963361 3.747626,2.20337747 L2.760709,1.49905025 C2.548008,1.34709177 2.255862,1.3708528 2.070245,1.55607399 L1.556429,2.07025828 C1.371208,2.25587595 1.347447,2.54802176 1.499802,2.76072262 L2.20577,3.74952596 C1.968009,4.14110444 1.787641,4.57099041 1.674756,5.02801425 L0.447837,5.23288136 C0.189911,5.27548168 0,5.4990377 0,5.76146172 L0,6.48818282 C0,6.7505795 0.189911,6.97416286 0.447837,7.01676319 L1.674756,7.22163029 C1.767462,7.59770531 1.902044,7.95693708 2.080922,8.2900153 L1.307636,9.247757 C1.142977,9.4511203 1.149894,9.7441958 1.324083,9.9404772 L1.80633,10.483645 C1.981284,10.6802682 2.271543,10.7210229 2.492857,10.5815738 L3.545561,9.9202844 C3.990992,10.2249533 4.494909,10.4488784 5.035657,10.5815738 L5.239785,11.8017532 C5.281456,12.0600895 5.505737,12.2496309 5.767614,12.2496309 L6.494909,12.2496309 C6.75732,12.2496309 6.980862,12.0601032 7.023462,11.8017669 L7.226825,10.5815875 C7.682195,10.4702059 8.10906,10.2911369 8.500105,10.0552356 L9.528145,10.7894623 C9.740463,10.9419676 10.032828,10.9180426 10.218254,10.7322335 L10.732275,10.2182269 C10.917277,10.0331698 10.942337,9.741188 10.788697,9.5281044 L10.05678,8.50193689 C10.295225,8.10904594 10.47655,7.67839438 10.588724,7.21933348 L11.802177,7.01672217 C12.060855,6.97412184 12.25,6.75055216 12.25,6.48814181 L12.25,5.76142071 C12.249617,5.4990377 12.060472,5.27548168 11.801767,5.23286768" id="Page-1"></path>
                                </g>
                            </g>
                        </g>
                    </g>
                </g>
            </g>
            <g id="crm-webform-edit-cogwheel-hover" transform="translate(0.000000, 82.000000)" opacity="0.4" fill="#000000">
                <g id="Page-1">
                    <g id="Создание-формы-04">
                        <g>
                            <g id="Элементы">
                                <g id="Group-8">
                                    <path d="M6.144236,8.42163062 C4.876015,8.42163062 3.847427,7.39285188 3.847427,6.12482227 C3.847427,4.85660126 4.876015,3.82801392 6.144236,3.82801392 C7.412238,3.82801392 8.441017,4.85660126 8.441017,6.12482227 C8.441017,7.39285188 7.412238,8.42163062 6.144236,8.42163062 M11.801767,5.23286768 L10.5883,5.03043411 C10.500105,4.66986254 10.371512,4.3251909 10.204036,4.00371976 L10.980863,3.04053677 C11.146083,2.83698213 11.138577,2.54409805 10.964389,2.34763891 L10.481772,1.80448475 C10.306832,1.60823068 10.016723,1.56672407 9.795436,1.70652861 L8.757689,2.35887686 C8.301253,2.03997596 7.784225,1.80448475 7.226484,1.66783832 L7.023462,0.44786396 C6.980862,0.18954137 6.75732,0 6.494909,0 L5.767614,0 C5.505737,0 5.281442,0.18954137 5.239785,0.44786396 L5.035657,1.66822112 C4.574531,1.78112019 4.142184,1.963361 3.747626,2.20337747 L2.760709,1.49905025 C2.548008,1.34709177 2.255862,1.3708528 2.070245,1.55607399 L1.556429,2.07025828 C1.371208,2.25587595 1.347447,2.54802176 1.499802,2.76072262 L2.20577,3.74952596 C1.968009,4.14110444 1.787641,4.57099041 1.674756,5.02801425 L0.447837,5.23288136 C0.189911,5.27548168 0,5.4990377 0,5.76146172 L0,6.48818282 C0,6.7505795 0.189911,6.97416286 0.447837,7.01676319 L1.674756,7.22163029 C1.767462,7.59770531 1.902044,7.95693708 2.080922,8.2900153 L1.307636,9.247757 C1.142977,9.4511203 1.149894,9.7441958 1.324083,9.9404772 L1.80633,10.483645 C1.981284,10.6802682 2.271543,10.7210229 2.492857,10.5815738 L3.545561,9.9202844 C3.990992,10.2249533 4.494909,10.4488784 5.035657,10.5815738 L5.239785,11.8017532 C5.281456,12.0600895 5.505737,12.2496309 5.767614,12.2496309 L6.494909,12.2496309 C6.75732,12.2496309 6.980862,12.0601032 7.023462,11.8017669 L7.226825,10.5815875 C7.682195,10.4702059 8.10906,10.2911369 8.500105,10.0552356 L9.528145,10.7894623 C9.740463,10.9419676 10.032828,10.9180426 10.218254,10.7322335 L10.732275,10.2182269 C10.917277,10.0331698 10.942337,9.741188 10.788697,9.5281044 L10.05678,8.50193689 C10.295225,8.10904594 10.47655,7.67839438 10.588724,7.21933348 L11.802177,7.01672217 C12.060855,6.97412184 12.25,6.75055216 12.25,6.48814181 L12.25,5.76142071 C12.249617,5.4990377 12.060472,5.27548168 11.801767,5.23286768" id="Page-1"></path>
                                </g>
                            </g>
                        </g>
                    </g>
                </g>
            </g>
            <g id="crm-webform-edit-close" transform="translate(0.000000, 99.000000)" opacity="0.4" fill="#535C69">
                <g id="Combined-Shape-Copy-2">
                    <g id="Page-1">
                        <g id="Создание-формы-04">
                            <g id="Элементы">
                                <g id="Group-8">
                                    <polygon id="Combined-Shape-Copy-2" transform="translate(6.290896, 6.290895) rotate(45.000000) translate(-6.290896, -6.290895) " points="7.03228531 5.5495062 7.03228531 1.84256044 5.54950693 1.84256044 5.54950693 5.5495062 1.84256099 5.5495062 1.84256099 7.0322845 5.54950693 7.0322845 5.54950693 10.7392302 7.03228531 10.7392302 7.03228531 7.0322845 10.7392304 7.0322845 10.7392304 5.5495062"></polygon>
                                </g>
                            </g>
                        </g>
                    </g>
                </g>
            </g>
            <g id="crm-webform-edit-close-hover" transform="translate(0.000000, 112.000000)" opacity="0.4" fill="#000000">
                <g id="Combined-Shape-Copy-2">
                    <g id="Page-1">
                        <g id="Создание-формы-04">
                            <g id="Элементы">
                                <g id="Group-8">
                                    <polygon id="Combined-Shape-Copy-2" transform="translate(6.290896, 6.290895) rotate(45.000000) translate(-6.290896, -6.290895) " points="7.03228531 5.5495062 7.03228531 1.84256044 5.54950693 1.84256044 5.54950693 5.5495062 1.84256099 5.5495062 1.84256099 7.0322845 5.54950693 7.0322845 5.54950693 10.7392302 7.03228531 10.7392302 7.03228531 7.0322845 10.7392304 7.0322845 10.7392304 5.5495062"></polygon>
                                </g>
                            </g>
                        </g>
                    </g>
                </g>
            </g>
            <g id="crm-webform-edit-lock" transform="translate(0.000000, 125.000000)" fill="#535C69">
                <g id="Shape">
                    <g id="Page-1">
                        <g id="Создание-формы-04">
                            <path d="M7.29424,4.39666 L7.29424,3.02909 C7.294695,1.35856 5.81644,0 4.001395,0 C2.184966,0 0.707641,1.35856 0.707641,3.02909 L0.707641,4.3971 L0,4.3971 L0,10 L8,10 L8,4.39666 L7.29424,4.39666 L7.29424,4.39666 L7.29424,4.39666 Z M1.947997,3.02909 C1.947997,1.9885 2.868819,1.14272 4.000941,1.14272 C5.131203,1.14272 6.051549,1.98894 6.051549,3.02909 L6.051549,4.3971 L1.947997,4.3971 L1.947997,3.02909 L1.947997,3.02909 L1.947997,3.02909 Z M4.566764,8.46377 L3.436502,8.46377 L3.605827,6.92798 C3.396841,6.80827 3.255975,6.59457 3.255975,6.34955 C3.255975,5.97236 3.589046,5.66598 4.001395,5.66598 C4.41143,5.66598 4.74355,5.97238 4.74355,6.34955 C4.74355,6.59457 4.604997,6.80785 4.394151,6.92798 L4.566764,8.46377 L4.566764,8.46377 L4.566764,8.46377 Z" id="Shape"></path>
                        </g>
                    </g>
                </g>
            </g>
            <g id="crm-webform-edit-plus" transform="translate(0.000000, 139.000000)">
                <g id="(+)2">
                    <g id="Symbols">
                        <g id="(+)2">
                            <g id="Oval-6-Copy-3-Clipped">
                                <mask id="mask-2" fill="white">
                                    <use xlink:href="#path-1"></use>
                                </mask>
                                <g id="path-1"></g>
                                <g id="Oval-6-Copy-3" mask="url(#mask-2)" stroke-width="2" stroke="#3BC8F5">
                                    <circle id="path-1" cx="8" cy="8" r="8"></circle>
                                </g>
                            </g>
                            <polygon id="Combined-Shape-Copy-4" fill="#3BC8F5" points="9 7 9 4 7 4 7 7 4 7 4 9 7 9 7 12 9 12 9 9 12 9 12 7"></polygon>
                        </g>
                    </g>
                </g>
            </g>
            <g id="crm-webform-edit-plus-hover" transform="translate(0.000000, 159.000000)">
                <g id="(+)">
                    <g id="Symbols">
                        <g id="(+)">
                            <circle id="Oval-6-Copy" fill="#3BC8F5" cx="8" cy="8" r="8"></circle>
                            <polygon id="Combined-Shape-Copy" fill="#FFFFFF" points="9 7 9 4 7 4 7 7 4 7 4 9 7 9 7 12 9 12 9 9 12 9 12 7"></polygon>
                        </g>
                    </g>
                </g>
            </g>
            <g id="crm-webform-edit-minus" transform="translate(0.000000, 179.000000)">
                <g id="(-)2">
                    <g id="Symbols">
                        <g id="(-)2">
                            <g id="Oval-6-Copy-4-Clipped">
                                <mask id="mask-4" fill="white">
                                    <use xlink:href="#path-3"></use>
                                </mask>
                                <g id="path-1"></g>
                                <g id="Oval-6-Copy-4" mask="url(#mask-4)" stroke-width="2" stroke="#3BC8F5">
                                    <circle id="path-1" cx="8" cy="8" r="8"></circle>
                                </g>
                            </g>
                            <rect id="Combined-Shape-Copy-5" fill="#3BC8F5" transform="translate(8.000000, 8.000000) rotate(-270.000000) translate(-8.000000, -8.000000) " x="7" y="4" width="2" height="8"></rect>
                        </g>
                    </g>
                </g>
            </g>
            <g id="crm-webform-edit-minus-hover" transform="translate(0.000000, 199.000000)">
                <g id="(-)">
                    <g id="Symbols">
                        <g id="(-)">
                            <circle id="Oval-6-Copy-2" fill="#3BC8F5" cx="8" cy="8" r="8"></circle>
                            <rect id="Combined-Shape-Copy-3" fill="#FFFFFF" transform="translate(8.000000, 8.000000) rotate(-270.000000) translate(-8.000000, -8.000000) " x="7" y="4" width="2" height="8"></rect>
                        </g>
                    </g>
                </g>
            </g>
            <g id="crm-webform-edit-needle" transform="translate(-3.000000, 219.000000)" fill="#AEAFAF">
                <g id="Shape_3_copy_7">
                    <g id="Page-1">
                        <path d="M16.72,4.76 L13.24,1.27 C12.9899141,1.02170042 12.6263589,0.925681383 12.2862822,1.01811234 C11.9462055,1.11054331 11.681273,1.3773818 11.5912822,1.71811234 C11.5012914,2.05884289 11.5999141,2.42170042 11.85,2.67 L12.56,3.38 L6.97,7.54 L6.27,6.84 C5.88456095,6.46004728 5.26543905,6.46004728 4.88,6.84 C4.49885712,7.22884351 4.49885712,7.85115649 4.88,8.24 L7.01,10.37 L3.08,14.57 C3.03187551,14.6175334 3.0047892,14.6823583 3.0047892,14.75 C3.0047892,14.8176417 3.03187551,14.8824666 3.08,14.93 C3.17938085,15.0198149 3.33061915,15.0198149 3.43,14.93 L7.63,10.98 L9.76,13.11 C10.0069584,13.3648513 10.3721078,13.466808 10.7153694,13.3767574 C11.0586311,13.2867068 11.3267069,13.0186311 11.4167574,12.6753694 C11.506808,12.3321078 11.4048513,11.9669584 11.15,11.72 L10.45,11.02 L14.61,5.43 L15.33,6.15 C15.7154391,6.52995272 16.3345609,6.52995272 16.72,6.15 C16.9070376,5.96712602 17.0124715,5.71658359 17.0124715,5.455 C17.0124715,5.19341641 16.9070376,4.94287398 16.72,4.76 L16.72,4.76 L16.72,4.76 Z" id="Shape_3_copy_7"></path>
                        <path d="M16.618461,359.676632 L13.138461,356.186632 C12.8883751,355.938333 12.52482,355.842313 12.1847433,355.934744 C11.8446666,356.027175 11.5797341,356.294014 11.4897433,356.634744 C11.3997525,356.975475 11.4983751,357.338333 11.748461,357.586632 L12.458461,358.296632 L6.86846105,362.456632 L6.16846105,361.756632 C5.783022,361.376679 5.1639001,361.376679 4.77846105,361.756632 C4.39731817,362.145476 4.39731817,362.767789 4.77846105,363.156632 L6.90846105,365.286632 L2.97846105,369.486632 C2.93033655,369.534165 2.90325025,369.59899 2.90325025,369.666632 C2.90325025,369.734274 2.93033655,369.799099 2.97846105,369.846632 C3.0778419,369.936447 3.22908019,369.936447 3.32846105,369.846632 L7.52846105,365.896632 L9.65846105,368.026632 C9.90541945,368.281483 10.2705689,368.38344 10.6138305,368.293389 C10.9570921,368.203339 11.2251679,367.935263 11.3152185,367.592001 C11.4052691,367.24874 11.3033124,366.88359 11.048461,366.636632 L10.348461,365.936632 L14.508461,360.346632 L15.228461,361.066632 C15.6139001,361.446585 16.2330219,361.446585 16.618461,361.066632 C16.8054986,360.883758 16.9109325,360.633216 16.9109325,360.371632 C16.9109325,360.110048 16.8054986,359.859506 16.618461,359.676632 L16.618461,359.676632 L16.618461,359.676632 Z" id="Shape_3_copy_7" transform="translate(9.907091, 362.907091) rotate(-45.000000) translate(-9.907091, -362.907091) "></path>
                    </g>
                </g>
            </g>
            <g id="crm-webform-edit-needle-hover" transform="translate(-3.000000, 238.000000)" fill="#535C68">
                <g id="Shape_3_copy_7">
                    <g id="Page-1">
                        <path d="M16.72,4.76 L13.24,1.27 C12.9899141,1.02170042 12.6263589,0.925681383 12.2862822,1.01811234 C11.9462055,1.11054331 11.681273,1.3773818 11.5912822,1.71811234 C11.5012914,2.05884289 11.5999141,2.42170042 11.85,2.67 L12.56,3.38 L6.97,7.54 L6.27,6.84 C5.88456095,6.46004728 5.26543905,6.46004728 4.88,6.84 C4.49885712,7.22884351 4.49885712,7.85115649 4.88,8.24 L7.01,10.37 L3.08,14.57 C3.03187551,14.6175334 3.0047892,14.6823583 3.0047892,14.75 C3.0047892,14.8176417 3.03187551,14.8824666 3.08,14.93 C3.17938085,15.0198149 3.33061915,15.0198149 3.43,14.93 L7.63,10.98 L9.76,13.11 C10.0069584,13.3648513 10.3721078,13.466808 10.7153694,13.3767574 C11.0586311,13.2867068 11.3267069,13.0186311 11.4167574,12.6753694 C11.506808,12.3321078 11.4048513,11.9669584 11.15,11.72 L10.45,11.02 L14.61,5.43 L15.33,6.15 C15.7154391,6.52995272 16.3345609,6.52995272 16.72,6.15 C16.9070376,5.96712602 17.0124715,5.71658359 17.0124715,5.455 C17.0124715,5.19341641 16.9070376,4.94287398 16.72,4.76 L16.72,4.76 L16.72,4.76 Z" id="Shape_3_copy_7"></path>
                        <path d="M16.618461,357.676632 L13.138461,354.186632 C12.8883751,353.938333 12.52482,353.842313 12.1847433,353.934744 C11.8446666,354.027175 11.5797341,354.294014 11.4897433,354.634744 C11.3997525,354.975475 11.4983751,355.338333 11.748461,355.586632 L12.458461,356.296632 L6.86846105,360.456632 L6.16846105,359.756632 C5.783022,359.376679 5.1639001,359.376679 4.77846105,359.756632 C4.39731817,360.145476 4.39731817,360.767789 4.77846105,361.156632 L6.90846105,363.286632 L2.97846105,367.486632 C2.93033655,367.534165 2.90325025,367.59899 2.90325025,367.666632 C2.90325025,367.734274 2.93033655,367.799099 2.97846105,367.846632 C3.0778419,367.936447 3.22908019,367.936447 3.32846105,367.846632 L7.52846105,363.896632 L9.65846105,366.026632 C9.90541945,366.281483 10.2705689,366.38344 10.6138305,366.293389 C10.9570921,366.203339 11.2251679,365.935263 11.3152185,365.592001 C11.4052691,365.24874 11.3033124,364.88359 11.048461,364.636632 L10.348461,363.936632 L14.508461,358.346632 L15.228461,359.066632 C15.6139001,359.446585 16.2330219,359.446585 16.618461,359.066632 C16.8054986,358.883758 16.9109325,358.633216 16.9109325,358.371632 C16.9109325,358.110048 16.8054986,357.859506 16.618461,357.676632 L16.618461,357.676632 L16.618461,357.676632 Z" id="Shape_3_copy_7" transform="translate(9.907091, 360.907091) rotate(-45.000000) translate(-9.907091, -360.907091) "></path>
                    </g>
                </g>
            </g>
            <g id="crm-webform-edit-arrow-down" transform="translate(0.000000, 265.000000)" fill="#535C69">
                <g id="Path">
                    <g id="Page-1">
                        <g id="Создание-формы-04">
                            <g id="Group-3">
                                <polygon id="Path" transform="translate(5.485282, 5.485281) rotate(-45.000000) translate(-5.485282, -5.485281) " points="3.54594221 7.4246205 3.54594221 1.6066015 1.60660221 1.6066015 1.60660221 8.3942905 1.60660221 9.3639605 9.36396121 9.3639605 9.36396121 7.4246205"></polygon>
                            </g>
                        </g>
                    </g>
                </g>
            </g>
            <g id="crm-webform-edit-pencil" transform="translate(0.000000, 289.000000)" opacity="0.5" fill="#737B86">
                <g id="Shape">
                    <g id="Page-1">
                        <g id="Создание-формы-04">
                            <g id="лицензия">
                                <g id="pencil-edit">
                                    <path d="M8.59473614,3.43675418 L6.51336109,1.38159639 L7.91862495,0 L10,2.05515778 L8.59473614,3.43675418 L8.59473614,3.43675418 Z M0.000671411307,10 L0.835235665,6.99615487 L2.91661072,9.05131265 L4.4408921e-16,9.99668523 L0.000671411307,10 L0.000671411307,10 Z M3.53565194,8.43145054 L1.45427689,6.37629276 L5.82919296,2.06178732 L7.91056801,4.11694511 L3.53565194,8.43145054 L3.53565194,8.43145054 Z" id="Shape"></path>
                                </g>
                            </g>
                        </g>
                    </g>
                </g>
            </g>
            <g id="crm-webform-edit-pencil-hover" transform="translate(0.000000, 299.000000)" opacity="0.5" fill="#000000">
                <g id="Shape">
                    <g id="Page-1">
                        <g id="Создание-формы-04">
                            <g id="лицензия">
                                <g id="pencil-edit">
                                    <path d="M8.59473614,3.43675418 L6.51336109,1.38159639 L7.91862495,0 L10,2.05515778 L8.59473614,3.43675418 L8.59473614,3.43675418 Z M0.000671411307,10 L0.835235665,6.99615487 L2.91661072,9.05131265 L4.4408921e-16,9.99668523 L0.000671411307,10 L0.000671411307,10 Z M3.53565194,8.43145054 L1.45427689,6.37629276 L5.82919296,2.06178732 L7.91056801,4.11694511 L3.53565194,8.43145054 L3.53565194,8.43145054 Z" id="Shape"></path>
                                </g>
                            </g>
                        </g>
                    </g>
                </g>
            </g>
            <g id="crm-webform-edit-header" transform="translate(0.000000, 313.000000)" fill="#535C69">
                <g id="01">
                    <g id="Page-1">
                        <g id="Создание-формы-04">
                            <g id="добавить-иконки">
                                <g id="01">
                                    <rect id="Rectangle-423" opacity="0.5" x="0" y="5" width="10" height="2"></rect>
                                    <rect id="Rectangle-423" opacity="0.5" x="0" y="9" width="10" height="2"></rect>
                                    <rect id="Rectangle-423" x="0" y="0" width="16" height="3"></rect>
                                </g>
                            </g>
                        </g>
                    </g>
                </g>
            </g>
            <g id="crm-webform-edit-subtitle" transform="translate(0.000000, 326.000000)" fill="#535C69">
                <g id="02">
                    <g id="Page-1">
                        <g id="Создание-формы-04">
                            <g id="добавить-иконки">
                                <g id="02">
                                    <rect id="Rectangle-423" x="0" y="5" width="13" height="3"></rect>
                                    <rect id="Rectangle-423" opacity="0.4" x="0" y="10" width="10" height="2"></rect>
                                    <rect id="Rectangle-423" opacity="0.4" x="0" y="0" width="16" height="3"></rect>
                                </g>
                            </g>
                        </g>
                    </g>
                </g>
            </g>
            <g id="crm-webform-edit-description" transform="translate(0.000000, 340.000000)" opacity="0.7" fill="#535C69">
                <g id="04">
                    <g id="Page-1">
                        <g id="Создание-формы-04">
                            <g id="добавить-иконки">
                                <g id="04">
                                    <rect id="Rectangle-423" x="0" y="4" width="16" height="2"></rect>
                                    <rect id="Rectangle-423-Copy" x="0" y="0" width="16" height="2"></rect>
                                    <rect id="Rectangle-423" x="0" y="8" width="16" height="2"></rect>
                                </g>
                            </g>
                        </g>
                    </g>
                </g>
            </g>
            <g id="crm-webform-edit-separator" transform="translate(0.000000, 352.000000)" fill="#535C69">
                <g id="03">
                    <g id="Page-1">
                        <g id="Создание-формы-04">
                            <g id="добавить-иконки">
                                <g id="03">
                                    <rect id="Rectangle-423-Copy-2" x="0" y="0" width="4" height="4"></rect>
                                    <rect id="Rectangle-423-Copy-3" x="6" y="0" width="4" height="4"></rect>
                                    <rect id="Rectangle-423-Copy-4" x="12" y="0" width="4" height="4"></rect>
                                </g>
                            </g>
                        </g>
                    </g>
                </g>
            </g>
            <g id="crm-webform-edit-br" transform="translate(0.000000, 358.000000)" fill="#535C69">
                <g id="br">
                    <g id="Page-1">
                        <g id="Создание-формы-04">
                            <g id="добавить-иконки">
                                <g id="br">
                                    <polygon id="Path-Copy-4" opacity="0.7" transform="translate(20.242641, 7.242641) rotate(225.000000) translate(-20.242641, -7.242641) " points="18.742641 8.74264142 18.742641 4.24264142 17.242641 4.24264142 17.242641 9.49264142 17.242641 10.2426414 23.242641 10.2426414 23.242641 8.74264142"></polygon>
                                    <polygon id="Path-Copy-5" opacity="0.7" transform="translate(4.242641, 7.242641) rotate(45.000000) translate(-4.242641, -7.242641) " points="2.742641 8.74264056 2.742641 4.24264056 1.242641 4.24264056 1.242641 9.49264056 1.242641 10.2426406 7.242641 10.2426406 7.242641 8.74264056"></polygon>
                                    <g id="Group" transform="translate(7.000000, 0.000000)" font-size="11" font-family="HelveticaNeue-Bold, Helvetica Neue" font-weight="bold">
                                        <text id="br">
                                            <tspan x="0" y="11">br</tspan>
                                        </text>
                                    </g>
                                </g>
                            </g>
                        </g>
                    </g>
                </g>
            </g>
            <g id="crm-webform-edit-alert" transform="translate(2.000000, 371.000000)" fill="#EB314B">
                <g id="Forma_1_copy">
                    <g id="Page-1">
                        <g id="попапы">
                            <g id="Group">
                                <g id="фдуке">
                                    <path d="M20.580618,14.3196246 L13.0674704,1.22642038 C12.6346416,0.468091787 11.8284987,0 10.9553418,0 C10.0821849,0 9.27604205,0.468091787 8.84321326,1.22642038 L1.32942278,14.3196246 C0.888824939,15.0782273 0.888824939,16.0148325 1.32942278,16.7734352 C1.75918669,17.5352888 2.56781784,18.0046737 3.44251564,18.0000191 L18.4694537,18.0000191 C19.3437288,18.0043435 20.1518224,17.5349851 20.5812609,16.7734352 C21.02166,16.0147171 21.0214146,15.0781118 20.580618,14.3196246 L20.580618,14.3196246 L20.580618,14.3196246 Z M9.78050848,4.89460043 C9.78050848,4.24735559 10.3052041,3.72265998 10.9524489,3.72265998 C11.5996938,3.72265998 12.1243894,4.24735559 12.1243894,4.89460043 L12.1243894,9.12078615 C12.1243894,9.76803099 11.5996938,10.2927266 10.9524489,10.2927266 C10.3052041,10.2927266 9.78050848,9.76803099 9.78050848,9.12078615 L9.78050848,4.89460043 L9.78050848,4.89460043 L9.78050848,4.89460043 Z M10.9524489,15.4529932 C10.3887118,15.4563783 9.87861078,15.1193621 9.66058837,14.5994801 C9.44256596,14.0795982 9.5596886,13.4795438 9.95720828,13.0798075 C10.354728,12.6800711 10.9541218,12.5596136 11.475208,12.7747418 C11.9962943,12.9898699 12.3361418,13.498089 12.3358915,14.0618363 C12.3373198,14.8267312 11.7199048,15.4487451 10.9550204,15.4529932 L10.9524489,15.4529932 L10.9524489,15.4529932 Z" id="Forma_1_copy"></path>
                                </g>
                            </g>
                        </g>
                    </g>
                </g>
            </g>
            <g id="crm-webform-edit-data-input" transform="translate(8.000000, 390.000000)" opacity="0.5" fill="#737B86">
                <g id="Shape">
                    <g id="Page-1">
                        <g id="Создание-формы-06-финал">
                            <g id="er">
                                <path d="M5.2201899,1.59976867 C6.06506453,1.59976867 6.75267813,2.33542098 6.75267813,3.27468299 C6.75267813,4.21394499 5.85124064,5.04951878 5.00636601,5.04951878 L2.34277463,5.04951878 L2.2662194,3.27552802 L0,5.79354957 L2.32617229,8.37818545 L2.34277463,6.53604311 L5.00544366,6.53604311 C5.32817007,6.53604311 5.61946981,6.50455255 5.87874523,6.43950987 C6.89141216,6.18546891 8.09055,4.66959213 8.09055,3.26904639 C8.09055,1.27061659 6.97588733,0.0804496103 5.21926755,0.0804496103 L5.21926755,0 L5.2201899,1.59976867 L5.2201899,1.59976867 Z" id="Shape"></path>
                            </g>
                        </g>
                    </g>
                </g>
            </g>
            <g id="er" transform="translate(8.000000, 399.000000)" fill="#737B86">
                <path d="M5.2201899,1.59976867 C6.06506453,1.59976867 6.75267813,2.33542098 6.75267813,3.27468299 C6.75267813,4.21394499 5.85124064,5.04951878 5.00636601,5.04951878 L2.34277463,5.04951878 L2.2662194,3.27552802 L0,5.79354957 L2.32617229,8.37818545 L2.34277463,6.53604311 L5.00544366,6.53604311 C5.32817007,6.53604311 5.61946981,6.50455255 5.87874523,6.43950987 C6.89141216,6.18546891 8.09055,4.66959213 8.09055,3.26904639 C8.09055,1.27061659 6.97588733,0.0804496103 5.21926755,0.0804496103 L5.21926755,0 L5.2201899,1.59976867 L5.2201899,1.59976867 Z" id="Shape"></path>
            </g>
            <path d="M11.1459665,428.270219 C9.71313561,428.270219 8.55104107,427.107874 8.55104107,425.675216 C8.55104107,424.242342 9.71313561,423.080213 11.1459665,423.080213 C12.57855,423.080213 13.7408604,424.242342 13.7408604,425.675216 C13.7408604,427.107874 12.57855,428.270219 11.1459665,428.270219 M17.537822,424.667459 L16.166852,424.438744 C16.0672096,424.031359 15.9219258,423.641939 15.7327121,423.278731 L16.610368,422.190498 C16.7970329,421.960516 16.7885527,421.629607 16.5917558,421.407641 L16.0464971,420.793969 C15.8488506,420.572236 15.5210866,420.52534 15.2710774,420.683296 L14.0986351,421.420338 C13.5829556,421.060034 12.9988194,420.793969 12.3686859,420.639582 L12.1393125,419.261218 C12.0911832,418.969358 11.8386263,418.755208 11.5421555,418.755208 L10.7204605,418.755208 C10.424593,418.755208 10.1711854,418.969358 10.1241215,419.261218 L9.89349849,420.640015 C9.37252021,420.767571 8.88405633,420.973472 8.43828631,421.24465 L7.3232715,420.44888 C7.08296277,420.277193 6.75289741,420.304039 6.54318808,420.513307 L5.96268086,421.094248 C5.75341892,421.303965 5.72657384,421.63404 5.8987039,421.874355 L6.69630367,422.991535 C6.42768226,423.433952 6.22390323,423.91965 6.09636622,424.43601 L4.71019812,424.667475 C4.41879438,424.715606 4.2042337,424.968186 4.2042337,425.26468 L4.2042337,426.085752 C4.2042337,426.382215 4.41879438,426.634827 4.71019812,426.682958 L6.09636622,426.914423 C6.20110508,427.339324 6.35315528,427.745194 6.55525091,428.121516 L5.68159554,429.203601 C5.49556447,429.433367 5.50337927,429.764493 5.70017729,429.986257 L6.24501799,430.599945 C6.44268031,430.822095 6.77061374,430.868141 7.0206534,430.710588 L8.20999409,429.963443 C8.71324023,430.307667 9.2825636,430.560664 9.89349849,430.710588 L10.1241215,432.089183 C10.1712012,432.381059 10.424593,432.595208 10.7204605,432.595208 L11.5421555,432.595208 C11.8386263,432.595208 12.0911832,432.381074 12.1393125,432.089198 L12.3690712,430.710603 C12.8835464,430.584761 13.3658167,430.382443 13.8076177,430.115915 L14.9690932,430.945466 C15.2089692,431.117771 15.539282,431.09074 15.7487755,430.880807 L16.3295143,430.300067 C16.5385288,430.090984 16.5668415,429.761095 16.3932597,429.520346 L15.5663428,428.360951 C15.835737,427.917051 16.0405973,427.430488 16.167331,426.911828 L17.5382853,426.682911 C17.8305386,426.63478 18.0442339,426.382184 18.0442339,426.085705 L18.0442339,425.264634 C18.0438011,424.968186 17.8301059,424.715606 17.537822,424.667459" id="Page-1" fill="#BABEC3"></path>
            <path d="M11.1459665,448.41827 C9.71313561,448.41827 8.55104107,447.255925 8.55104107,445.823267 C8.55104107,444.390393 9.71313561,443.228264 11.1459665,443.228264 C12.57855,443.228264 13.7408604,444.390393 13.7408604,445.823267 C13.7408604,447.255925 12.57855,448.41827 11.1459665,448.41827 M17.537822,444.81551 L16.166852,444.586794 C16.0672096,444.17941 15.9219258,443.789989 15.7327121,443.426782 L16.610368,442.338549 C16.7970329,442.108567 16.7885527,441.777657 16.5917558,441.555692 L16.0464971,440.94202 C15.8488506,440.720286 15.5210866,440.673391 15.2710774,440.831346 L14.0986351,441.568389 C13.5829556,441.208085 12.9988194,440.94202 12.3686859,440.787633 L12.1393125,439.409269 C12.0911832,439.117409 11.8386263,438.903259 11.5421555,438.903259 L10.7204605,438.903259 C10.424593,438.903259 10.1711854,439.117409 10.1241215,439.409269 L9.89349849,440.788065 C9.37252021,440.915622 8.88405633,441.121523 8.43828631,441.392701 L7.3232715,440.596931 C7.08296277,440.425244 6.75289741,440.45209 6.54318808,440.661358 L5.96268086,441.242299 C5.75341892,441.452015 5.72657384,441.78209 5.8987039,442.022406 L6.69630367,443.139586 C6.42768226,443.582003 6.22390323,444.067701 6.09636622,444.58406 L4.71019812,444.815525 C4.41879438,444.863656 4.2042337,445.116237 4.2042337,445.412731 L4.2042337,446.233802 C4.2042337,446.530266 4.41879438,446.782877 4.71019812,446.831008 L6.09636622,447.062473 C6.20110508,447.487374 6.35315528,447.893245 6.55525091,448.269567 L5.68159554,449.351652 C5.49556447,449.581418 5.50337927,449.912544 5.70017729,450.134308 L6.24501799,450.747995 C6.44268031,450.970146 6.77061374,451.016192 7.0206534,450.858638 L8.20999409,450.111494 C8.71324023,450.455718 9.2825636,450.708715 9.89349849,450.858638 L10.1241215,452.237234 C10.1712012,452.52911 10.424593,452.743259 10.7204605,452.743259 L11.5421555,452.743259 C11.8386263,452.743259 12.0911832,452.529125 12.1393125,452.237249 L12.3690712,450.858654 C12.8835464,450.732812 13.3658167,450.530494 13.8076177,450.263966 L14.9690932,451.093517 C15.2089692,451.265822 15.539282,451.238791 15.7487755,451.028858 L16.3295143,450.448118 C16.5385288,450.239035 16.5668415,449.909145 16.3932597,449.668397 L15.5663428,448.509002 C15.835737,448.065102 16.0405973,447.578539 16.167331,447.059878 L17.5382853,446.830962 C17.8305386,446.782831 18.0442339,446.530235 18.0442339,446.233756 L18.0442339,445.412685 C18.0438011,445.116237 17.8301059,444.863656 17.537822,444.81551" id="Page-1" fill="#535C69"></path>
            <g id="crm-webform-list-copy" transform="translate(0.000000, 563.000000)" fill="#797B7F">
                <g id="Group_1_copy">
                    <g id="Page-1">
                        <g id="Artboard-2-Copy">
                            <g id="01">
                                <g id="new-window">
                                    <g id="Group_1_copy">
                                        <polygon id="Shape_3_copy_3" transform="translate(4.500000, 4.500000) rotate(90.000000) translate(-4.500000, -4.500000) " points="7.438 7.375 1.719 7.375 1.719 1.719 4 1.719 4 0 -8.8817842e-16 0 -8.8817842e-16 9 9 9 9 5 7.438 5"></polygon>
                                        <path d="M3,7.908 L4.094,8.994 L5.381,7.708 L6.346,6.747 L7.361,5.737 L6.271,4.65 L3,7.908 L3,7.908 Z M8.975,3 L4.635,3.02 L6.271,4.65 L7.361,5.736 L7.37,5.726 L6.22,4.58 L7.37,5.726 L7.361,5.736 L8.994,7.365 L8.975,3 L8.975,3 Z" id="Shape_3_copy_3-2" transform="translate(5.997000, 5.997000) rotate(90.000000) translate(-5.997000, -5.997000) "></path>
                                    </g>
                                </g>
                            </g>
                        </g>
                    </g>
                </g>
            </g>
            <polyline id="Combined-Shape-Copy-2" fill="#BABEC3" points="13.5535716 464.875 17.75 460.678572 16.0714285 459 11.8750001 463.196429 7.67857135 459 6 460.678571 10.1964288 464.875 6.00000039 469.071428 7.6785719 470.75 11.8750003 466.553572 16.0714281 470.749999 17.7499995 469.071428 13.5535716 464.875 13.5535716 464.875"></polyline>
            <polyline id="Combined-Shape-Copy-2" fill="#535C69" points="13.5535716 481.875 17.75 477.678572 16.0714285 476 11.8750001 480.196429 7.67857135 476 6 477.678571 10.1964288 481.875 6.00000039 486.071428 7.6785719 487.75 11.8750003 483.553572 16.0714281 487.749999 17.7499995 486.071428 13.5535716 481.875 13.5535716 481.875"></polyline>
            <path d="M6,498 L20,498 L20,500.228571 L6,500.228571 L6,498 L6,498 Z M6,502.457143 L20,502.457143 L20,504.685714 L6,504.685714 L6,502.457143 L6,502.457143 Z M6,506.914286 L20,506.914286 L20,509.142857 L6,509.142857 L6,506.914286 L6,506.914286 Z" id="Combined-Shape" fill="#BABEC3"></path>
            <path d="M6,515 L20,515 L20,517.228571 L6,517.228571 L6,515 L6,515 Z M6,519.457143 L20,519.457143 L20,521.685714 L6,521.685714 L6,519.457143 L6,519.457143 Z M6,523.914286 L20,523.914286 L20,526.142857 L6,526.142857 L6,523.914286 L6,523.914286 Z" id="Combined-Shape" fill="#535C69"></path>
            <g id="crm-webform-edit-accept" transform="translate(0.000000, 610.000000)" fill="#AEAFAF">
                <g id="Path-Copy">
                    <g id="Page-1">
                        <g id="Создание-формы-06-финал">
                            <polygon id="Path-Copy" transform="translate(7.423008, 7.423008) rotate(-45.000000) translate(-7.423008, -7.423008) " points="3.26389758 3.48958958 0.858707585 3.48958958 0.858707585 10.1538306 0.858707585 11.3564256 13.9873076 11.3564256 13.9873076 8.95123558 3.26389758 8.95123558"></polygon>
                        </g>
                    </g>
                </g>
            </g>
            <g id="crm-webform-edit-accept" transform="translate(0.000000, 625.000000)" fill="#535C69">
                <g id="Path-Copy">
                    <g id="Page-1">
                        <g id="Создание-формы-06-финал">
                            <polygon id="Path-Copy" transform="translate(7.423008, 7.423008) rotate(-45.000000) translate(-7.423008, -7.423008) " points="3.26389758 3.48958958 0.858707585 3.48958958 0.858707585 10.1538306 0.858707585 11.3564256 13.9873076 11.3564256 13.9873076 8.95123558 3.26389758 8.95123558"></polygon>
                        </g>
                    </g>
                </g>
            </g>
            <g id="crm-webform-edit-book" transform="translate(0.000000, 644.000000)" fill="#535C69">
                <g id="Fill-1">
                    <g id="Page-1">
                        <g id="Создание-формы-06-финал">
                            <g id="добавить-иконки">
                                <g id="Page-1" transform="translate(0.449219, 0.890625)">
                                    <path d="M4.65832346,2.55351539 L3.037246,2.55351539 C2.77946102,2.55351539 2.56852537,2.76445104 2.56852537,3.02223602 L2.56852537,4.58645751 C2.56852537,4.84424248 2.77946102,5.05517814 3.037246,5.05517814 L4.65832346,5.05517814 C4.91610843,5.05517814 5.12704409,4.84424248 5.12704409,4.58645751 L5.12704409,3.02223602 C5.12704409,2.76445104 4.91610843,2.55351539 4.65832346,2.55351539 L4.65832346,2.55351539 L4.65832346,2.55351539 Z M8.75161227,4.58645751 C8.75161227,4.84424248 8.96254792,5.05517814 9.22033294,5.05517814 L10.8414103,5.05517814 C11.0991953,5.05517814 11.3101309,4.84424248 11.3101309,4.58645751 L11.3101309,3.02223602 C11.3101309,2.76445104 11.0991953,2.55351539 10.8414103,2.55351539 L9.22033294,2.55351539 C8.96254792,2.55351539 8.75161227,2.76445104 8.75161227,3.02223602 L8.75161227,4.58645751 L8.75161227,4.58645751 Z M12.2427963,8.95481551 L8.40763364,8.95481551 C8.35055025,8.95481551 8.29790162,8.97369169 8.25457737,9.00473505 C8.23058415,9.01701594 8.20761434,9.03191221 8.18760103,9.05192551 L7.52534268,9.71418391 L7.52534268,2.67757512 C7.57662676,2.66847816 7.62575032,2.64448494 7.66520837,2.6050269 L8.86623391,1.40388765 L12.2427963,1.40388765 L12.2427963,8.95481551 L12.2427963,8.95481551 Z M6.12145503,9.71418391 L5.45919667,9.05192551 C5.43918337,9.03191221 5.41621356,9.01701594 5.39222034,9.00473505 C5.34889609,8.97369169 5.29624746,8.95481551 5.23916406,8.95481551 L1.40400136,8.95481551 L1.40400136,1.40388765 L4.7805638,1.40388765 L5.98158934,2.6050269 C6.02104738,2.64448494 6.07017094,2.66847816 6.12145503,2.67757512 L6.12145503,9.71418391 L6.12145503,9.71418391 Z M13.646684,1.13962109 L13.646684,0.264266552 C13.646684,0.118942692 13.5277413,0 13.3824174,0 L8.40763364,0 C8.35055025,0 8.29790162,0.018876182 8.25457737,0.049919542 C8.23058415,0.062200432 8.20761434,0.077096702 8.18760103,0.097110002 L6.82339885,1.46131218 L5.45919667,0.097110002 C5.43918337,0.077096702 5.41621356,0.062200432 5.39222034,0.049919542 C5.34889609,0.018876182 5.29624746,0 5.23916406,0 L0.264380269,0 C0.119056404,0 0.000113712,0.118942692 0.000113712,0.264266552 L0.000113712,0.593917482 C0.000113712,0.594031192 0,0.594031192 0,0.594144902 L0,9.96480501 C0,9.96491871 0.000113712,9.96491871 0.000113712,9.96503241 L0.000113712,10.0944366 C0.000113712,10.2398742 0.119056404,10.3587031 0.264380269,10.3587031 L4.7805638,10.3587031 L5.98158934,11.5598424 C6.04197038,11.6201097 6.12475268,11.644103 6.20366876,11.6335277 C6.25120036,11.6790125 6.31522018,11.7073268 6.38572158,11.7073268 L7.26107612,11.7073268 C7.33157753,11.7073268 7.39548364,11.6788988 7.44301523,11.6335277 C7.52204503,11.644103 7.60482733,11.6202234 7.66520837,11.5598424 L8.86623391,10.3587031 L13.3824174,10.3587031 C13.5277413,10.3587031 13.646684,10.2398742 13.646684,10.0944366 L13.646684,9.21908211 L13.646684,9.21896831 L13.646684,1.1397348 C13.646684,1.1397348 13.646684,1.1397348 13.646684,1.13962109 L13.646684,1.13962109 L13.646684,1.13962109 Z" id="Fill-1"></path>
                                </g>
                            </g>
                        </g>
                    </g>
                </g>
            </g>
        </g>
    </g>
</svg>