<svg width="22" height="22" viewBox="0 0 22 22" fill="none" xmlns="http://www.w3.org/2000/svg">
<rect width="22" height="22" rx="11" fill="#FFA900"/>
<path fill-rule="evenodd" clip-rule="evenodd" d="M4.06201 6.15625C4.06201 5.60396 4.50973 5.15625 5.06201 5.15625H16.9377C17.4899 5.15625 17.9377 5.60397 17.9377 6.15625V14.6015C17.9377 15.1537 17.4899 15.6015 16.9377 15.6015H5.06201C4.50973 15.6015 4.06201 15.1537 4.06201 14.6015V6.15625ZM6.0219 7.13086C6.0219 6.96518 6.15622 6.83086 6.3219 6.83086H15.6778C15.8435 6.83086 15.9778 6.96518 15.9778 7.13086V13.7253C15.9778 13.891 15.8435 14.0253 15.6778 14.0253H6.3219C6.15622 14.0253 6.0219 13.891 6.0219 13.7253V7.13086ZM7.65895 16.3551C7.49327 16.3551 7.35895 16.4894 7.35895 16.6551V17.3965C7.35895 17.5622 7.49327 17.6965 7.65895 17.6965H14.3386C14.5043 17.6965 14.6386 17.5622 14.6386 17.3965V16.6551C14.6386 16.4894 14.5043 16.3551 14.3386 16.3551H7.65895Z" fill="white"/>
</svg>
