<svg width="22" height="22" viewBox="0 0 22 22" fill="none" xmlns="http://www.w3.org/2000/svg">
<rect width="22" height="22" rx="11" fill="#05B5AB"/>
<path fill-rule="evenodd" clip-rule="evenodd" d="M5.06201 5.15625C4.50973 5.15625 4.06201 5.60396 4.06201 6.15625V14.6015C4.06201 15.1537 4.50973 15.6015 5.06201 15.6015H16.9377C17.4899 15.6015 17.9377 15.1538 17.9377 14.6015V6.15625C17.9377 5.60397 17.4899 5.15625 16.9377 5.15625H5.06201ZM6.3219 6.83086C6.15622 6.83086 6.0219 6.96518 6.0219 7.13086V13.7253C6.0219 13.891 6.15622 14.0253 6.3219 14.0253H15.6778C15.8435 14.0253 15.9778 13.891 15.9778 13.7253V7.13086C15.9778 6.96518 15.8435 6.83086 15.6778 6.83086H6.3219Z" fill="white"/>
</svg>
