<svg width="21" height="20" viewBox="0 0 21 20" fill="none" xmlns="http://www.w3.org/2000/svg">
	<path fill-rule="evenodd" clip-rule="evenodd" d="M11.0107 5.11967C12.2271 3.90334 14.0986 3.63108 15.4066 4.93909C16.0465 5.57899 16.2997 6.36016 16.2151 7.14451C16.1321 7.91315 15.7305 8.64511 15.1356 9.2407L13.4048 11.0085C12.7164 11.6969 11.984 12.0876 11.2103 12.0874C10.4366 12.0872 9.74265 11.6961 9.13113 11.0846C8.98831 10.9418 8.86136 10.7886 8.75048 10.6273C8.59405 10.3997 8.65171 10.0884 8.87927 9.93201C9.10683 9.77558 9.41812 9.83324 9.57455 10.0608C9.65099 10.172 9.73882 10.2781 9.83824 10.3775C10.3426 10.8819 10.7973 11.0873 11.2106 11.0874C11.6234 11.0875 12.1157 10.8827 12.6958 10.3032L14.4266 8.53548C14.8991 8.06293 15.1675 7.53169 15.2208 7.03719C15.2726 6.55758 15.128 6.07478 14.6995 5.6462C13.8712 4.81796 12.6406 4.90599 11.7203 5.82435L10.4573 7.12423C10.2649 7.32228 9.94833 7.32684 9.75027 7.13441C9.55222 6.94198 9.54766 6.62543 9.74009 6.42738L11.0107 5.11967ZM9.15323 8.01553C9.93872 7.95043 10.6569 8.27503 11.2894 8.871L11.2948 8.8761L11.6609 9.2421C11.8561 9.43736 11.8561 9.75394 11.6609 9.94921C11.4656 10.1445 11.1491 10.1445 10.9538 9.94923L10.5985 9.59392C10.1123 9.1378 9.66216 8.97678 9.23583 9.01211C8.79206 9.04889 8.26819 9.30665 7.66638 9.90833L5.9745 11.6047C5.05496 12.5242 4.96733 13.7607 5.79724 14.5906C6.22576 15.0191 6.70792 15.1631 7.18688 15.111C7.68076 15.0573 8.21158 14.7887 8.6843 14.3161L9.92337 13.0728C10.1183 12.8772 10.4349 12.8766 10.6305 13.0716C10.8261 13.2665 10.8266 13.5831 10.6317 13.7787L9.39238 15.0223L9.39177 15.0229C8.7961 15.6186 8.06405 16.0215 7.29503 16.1052C6.51096 16.1904 5.7301 15.9376 5.09014 15.2977C3.78317 13.9907 4.04946 12.1157 5.26668 10.8983L6.95843 9.20206C7.65055 8.50996 8.38373 8.07931 9.15323 8.01553Z" fill="#525C69"/>
</svg>