<svg width="20" height="21" viewBox="0 0 20 21" fill="none" xmlns="http://www.w3.org/2000/svg">
	<path d="M9.57551 9.4027H10.511C10.6994 9.4027 10.8522 9.55444 10.8522 9.74163V10.671C10.8522 10.8582 10.6994 11.0099 10.511 11.0099H9.57551C9.38709 11.0099 9.23434 10.8582 9.23434 10.671V9.74163C9.23434 9.55444 9.38709 9.4027 9.57551 9.4027Z" fill="#525C69"/>
	<path d="M8.08498 9.40288H7.14948C6.96105 9.40288 6.80831 9.55463 6.80831 9.74181V10.6712C6.80831 10.8584 6.96105 11.0101 7.14948 11.0101H8.08498C8.27341 11.0101 8.42615 10.8584 8.42615 10.6712V9.74181C8.42615 9.55463 8.27341 9.40288 8.08498 9.40288Z" fill="#525C69"/>
	<path d="M8.0842 11.8135H7.14869C6.96027 11.8135 6.80752 11.9653 6.80752 12.1525V13.0818C6.80752 13.269 6.96027 13.4208 7.14869 13.4208H8.0842C8.27262 13.4208 8.42536 13.269 8.42536 13.0818V12.1525C8.42536 11.9653 8.27262 11.8135 8.0842 11.8135Z" fill="#525C69"/>
	<path d="M10.511 11.8135H9.57551C9.38709 11.8135 9.23434 11.9653 9.23434 12.1525V13.0818C9.23434 13.269 9.38709 13.4208 9.57551 13.4208H10.511C10.6994 13.4208 10.8522 13.269 10.8522 13.0818V12.1525C10.8522 11.9653 10.6994 11.8135 10.511 11.8135Z" fill="#525C69"/>
	<path d="M12.0023 9.4027H12.9378C13.1263 9.4027 13.279 9.55444 13.279 9.74163V10.671C13.279 10.8582 13.1263 11.0099 12.9378 11.0099H12.0023C11.8139 11.0099 11.6612 10.8582 11.6612 10.671V9.74163C11.6612 9.55444 11.8139 9.4027 12.0023 9.4027Z" fill="#525C69"/>
	<path fill-rule="evenodd" clip-rule="evenodd" d="M13.8737 5.55158V5.10863H14.8589C15.7585 5.16533 16.4555 5.94581 16.4393 6.88043V15.7394C16.4393 16.2284 16.057 16.6253 15.5841 16.6253H4.42061C3.94855 16.6253 3.56543 16.2284 3.56543 15.7394V6.88043C3.56201 6.83437 3.5603 6.78918 3.5603 6.744C3.56201 5.83862 4.27181 5.10686 5.14579 5.10863H6.13095V5.55158C6.13095 6.28511 6.70477 6.88043 7.41371 6.88043C8.12264 6.88043 8.69646 6.28511 8.69646 5.55158V5.10863H11.3082V5.55158C11.3082 6.28511 11.8829 6.88043 12.591 6.88043C13.2991 6.88043 13.8737 6.28511 13.8737 5.55158ZM14.7289 14.8535H5.2758V7.81657H14.7289V14.8535Z" fill="#525C69"/>
	<path d="M8.04218 4.40168V5.37616C8.04218 5.73584 7.76082 6.0273 7.41362 6.0273C7.06642 6.0273 6.78507 5.73584 6.78507 5.37616V4.40168L6.78968 4.31707C6.82766 3.99413 7.0955 3.74446 7.4179 3.7461C7.7651 3.74877 8.04388 4.042 8.04218 4.40168Z" fill="#525C69"/>
	<path d="M13.1845 4.42557V5.34957C13.1845 5.68887 12.9186 5.96438 12.5902 5.96438C12.2618 5.9635 11.9975 5.68798 11.9975 5.34868V4.42557C11.9975 4.08539 12.2635 3.81076 12.591 3.81076C12.9186 3.81076 13.1845 4.08539 13.1845 4.42557Z" fill="#525C69"/>
</svg>