<svg width="20" height="20" viewBox="0 0 20 20" fill="none" xmlns="http://www.w3.org/2000/svg">
	<path fill-rule="evenodd" clip-rule="evenodd" d="M15.0937 8.91883C15.1926 9.01765 15.1926 9.17788 15.0937 9.27671L14.4306 9.93988C14.3317 10.0387 14.1715 10.0387 14.0727 9.93988L10.1674 6.03461C9.04425 4.91145 7.20635 4.91145 6.08319 6.03461C4.96003 7.15777 4.96003 8.99566 6.08319 10.1188L10.874 14.9096C11.5784 15.614 12.7223 15.614 13.4266 14.9096C14.131 14.2053 14.131 13.0614 13.4266 12.357L9.14635 8.07672C8.86038 7.79074 8.41128 7.79074 8.1253 8.07672C7.83932 8.36269 7.83932 8.81179 8.1253 9.09777L11.52 12.4925C11.6189 12.5913 11.6189 12.7516 11.52 12.8504L10.8569 13.5136C10.758 13.6124 10.5978 13.6124 10.499 13.5136L7.10425 10.1188C6.25669 9.27127 6.25669 7.90322 7.10425 7.05566C7.9518 6.20811 9.31985 6.20811 10.1674 7.05566L14.4477 11.3359C15.7136 12.6018 15.7136 14.6648 14.4477 15.9307C13.1818 17.1966 11.1188 17.1966 9.85294 15.9307L5.06214 11.1399C3.3774 9.45514 3.3774 6.69829 5.06214 5.01355C6.74688 3.32882 9.50372 3.32882 11.1885 5.01355L15.0937 8.91883Z" fill="#525C69"/>
</svg>