<svg width="17" height="17" viewBox="0 0 17 17" fill="none" xmlns="http://www.w3.org/2000/svg">
	<path d="M12.7172 13.0214C13.022 12.9133 13.1911 12.6008 13.1286 12.2904L12.9127 11.2175C12.9127 10.7698 12.3015 10.2585 11.0981 9.96045C10.6904 9.85155 10.3028 9.68267 9.94925 9.45987C9.87192 9.41755 9.88367 9.02658 9.88367 9.02658L9.49609 8.97009C9.49609 8.93835 9.46294 8.46951 9.46294 8.46951C9.92668 8.32028 9.87897 7.43998 9.87897 7.43998C10.1735 7.59641 10.3653 6.89978 10.3653 6.89978C10.7136 5.93193 10.1918 5.99045 10.1918 5.99045C10.2831 5.3996 10.2831 4.79911 10.1918 4.20826C9.95982 2.24824 6.4671 2.78034 6.88124 3.42047C5.86046 3.2404 6.09338 5.46466 6.09338 5.46466L6.31479 6.04065C6.0079 6.23127 6.06817 6.45004 6.13549 6.69442C6.16355 6.7963 6.19285 6.90263 6.19727 7.01323C6.21866 7.56828 6.57334 7.45326 6.57334 7.45326C6.5952 8.36934 7.06693 8.48864 7.06693 8.48864C7.15554 9.06395 7.1003 8.96604 7.1003 8.96604L6.68052 9.01465C6.6862 9.14548 6.67507 9.27649 6.64738 9.40472C6.40348 9.50882 6.25416 9.59166 6.10631 9.67367C5.95496 9.75763 5.80516 9.84073 5.55702 9.94492C4.60933 10.3426 3.57937 10.8599 3.39628 11.5563C3.34275 11.7599 3.29032 12.0336 3.24293 12.319C3.19326 12.6181 3.36371 12.9109 3.65542 13.0149C4.9283 13.4685 6.36485 13.7374 7.88872 13.7693H8.50228C10.0188 13.7375 11.4488 13.4711 12.7172 13.0214Z" fill="#525C69"/>
</svg>