<svg width="24" height="24" viewBox="0 0 24 24" fill="none" xmlns="http://www.w3.org/2000/svg">
	<path fill-rule="evenodd" clip-rule="evenodd" d="M12.0059 3.50879C8.62771 3.50879 5.91309 6.22235 5.91309 9.60161C5.91309 13.2239 9.64652 18.3022 11.2684 20.3375C11.6493 20.8155 12.3582 20.8128 12.7357 20.332C14.3534 18.2716 18.0987 13.1214 18.0987 9.60161C18.0987 6.22235 15.3841 3.50879 12.0059 3.50879ZM12.006 12.3702C10.4556 12.3702 9.23636 11.1521 9.23636 9.60059C9.23636 8.05014 10.4545 6.83094 12.006 6.83094C13.5565 6.83094 14.7757 8.04907 14.7757 9.60059C14.7757 11.1521 13.5565 12.3702 12.006 12.3702Z" fill="#525C69"/>
</svg>
