<svg width="93" height="94" viewBox="0 0 93 94" fill="none" xmlns="http://www.w3.org/2000/svg">
<path opacity="0.722772" d="M40.0137 91.0713C15.5405 87.6126 -1.49514 64.9694 1.96353 40.4961C5.4222 16.0229 28.0655 -1.01272 52.5387 2.44595C77.0119 5.90462 94.0475 28.5479 90.5889 53.0211C87.1302 77.4943 64.4869 94.53 40.0137 91.0713Z" fill="url(#paint0_angular_25_113012)" stroke="white" stroke-width="3"/>
<g opacity="0.8">
<g filter="url(#filter0_d_25_113012)">
<rect x="27.5176" y="51" width="38" height="23" rx="3.76777" fill="white"/>
</g>
<rect x="32.5176" y="56" width="24" height="2" rx="1" fill="#00E5BF"/>
<rect x="32.5176" y="61" width="13" height="2" rx="1" fill="#44CCF7"/>
<rect x="53.5176" y="67" width="7" height="2" rx="1" fill="#C4C4C4"/>
</g>
<g filter="url(#filter1_d_25_113012)">
<rect x="24.5176" y="20" width="44" height="27" rx="3.76777" fill="white"/>
</g>
<rect x="29.5176" y="25" width="28" height="2" rx="1" fill="#44CCF7"/>
<rect x="29.5176" y="30" width="19" height="2" rx="1" fill="#00E5BF"/>
<rect x="29.5176" y="34" width="14" height="2" rx="1" fill="#00E5BF"/>
<rect x="49.5176" y="39" width="14" height="2" rx="1" fill="#C4C4C4"/>
<rect x="29.5176" y="38" width="6" height="4" rx="2" fill="#FF9A97"/>
<defs>
<filter id="filter0_d_25_113012" x="20.7356" y="48.7393" width="51.564" height="36.564" filterUnits="userSpaceOnUse" color-interpolation-filters="sRGB">
<feFlood flood-opacity="0" result="BackgroundImageFix"/>
<feColorMatrix in="SourceAlpha" type="matrix" values="0 0 0 0 0 0 0 0 0 0 0 0 0 0 0 0 0 0 127 0" result="hardAlpha"/>
<feOffset dy="4.52133"/>
<feGaussianBlur stdDeviation="3.391"/>
<feComposite in2="hardAlpha" operator="out"/>
<feColorMatrix type="matrix" values="0 0 0 0 0.276832 0 0 0 0 0.341667 0 0 0 0 0.0341667 0 0 0 0.13 0"/>
<feBlend mode="normal" in2="BackgroundImageFix" result="effect1_dropShadow_25_113012"/>
<feBlend mode="normal" in="SourceGraphic" in2="effect1_dropShadow_25_113012" result="shape"/>
</filter>
<filter id="filter1_d_25_113012" x="17.7356" y="17.7393" width="57.564" height="40.564" filterUnits="userSpaceOnUse" color-interpolation-filters="sRGB">
<feFlood flood-opacity="0" result="BackgroundImageFix"/>
<feColorMatrix in="SourceAlpha" type="matrix" values="0 0 0 0 0 0 0 0 0 0 0 0 0 0 0 0 0 0 127 0" result="hardAlpha"/>
<feOffset dy="4.52133"/>
<feGaussianBlur stdDeviation="3.391"/>
<feComposite in2="hardAlpha" operator="out"/>
<feColorMatrix type="matrix" values="0 0 0 0 0.276832 0 0 0 0 0.341667 0 0 0 0 0.0341667 0 0 0 0.13 0"/>
<feBlend mode="normal" in2="BackgroundImageFix" result="effect1_dropShadow_25_113012"/>
<feBlend mode="normal" in="SourceGraphic" in2="effect1_dropShadow_25_113012" result="shape"/>
</filter>
<radialGradient id="paint0_angular_25_113012" cx="0" cy="0" r="1" gradientUnits="userSpaceOnUse" gradientTransform="translate(46.2762 46.7586) rotate(98.044) scale(44.753 44.753)">
<stop offset="0.625" stop-color="#DAF400"/>
<stop offset="0.625" stop-color="#B3E600"/>
</radialGradient>
</defs>
</svg>
