<svg xmlns="http://www.w3.org/2000/svg" width="78" height="17" viewBox="0 0 78 17"><g fill="none" fill-rule="evenodd"><g fill="#0066A1"><path d="M55.743 3.854c0-1.064-.885-1.443-1.817-1.443-1.263 0-2.29.415-3.244.84l-.66-1.975C51.093.79 52.58.245 54.338.245c2.76 0 4.092 1.385 4.092 3.337 0 3.42-4.695 4.378-5.485 6.98h5.65v2.178h-9c.518-6.082 6.146-6.436 6.146-8.886z"/><path d="M58.15 8.173l6.193-7.88h1.84v7.454h1.84v2.07h-1.84v2.946h-2.5V9.817h-5.546V8.173h.012zm4.41-.426h1.134V6.41c0-.958.07-2.07.118-2.307l-2.796 3.703c.212-.024 1.12-.06 1.545-.06z"/></g><g fill="#2FC7F7"><path d="M.024 1.524h7.338l-.58 1.88H2.35v2.332h.766c1.204 0 2.277.154 3.103.592.98.508 1.58 1.42 1.58 2.85 0 2-1.202 3.503-4.624 3.503H.035V1.525h-.01zm3.185 9.264c1.592 0 2.252-.51 2.252-1.574 0-.615-.236-1.03-.625-1.266-.425-.248-1.038-.32-1.734-.32h-.767V10.8h.873v-.012zm5.555-8.59c0-.733.59-1.325 1.393-1.325.778 0 1.368.557 1.368 1.326 0 .744-.59 1.36-1.368 1.36-.803-.013-1.393-.604-1.393-1.36zM9 4.672h2.29v8.01H9V4.67zM14.558 6.564h-2.395V4.67h7.562l-.59 1.894h-2.288v6.117h-2.29M20.42 4.99c.886-.307 1.97-.52 3.175-.52 2.984 0 4.494 1.68 4.494 4.2 0 2.402-1.63 4.188-4.224 4.188-.39 0-.78-.047-1.156-.153v4h-2.29V4.99zm3.28 5.987c1.37 0 2.054-.9 2.054-2.307 0-1.562-.85-2.32-2.254-2.32-.283 0-.53.013-.778.108v4.354c.295.094.578.165.98.165zM28.904 2.2c0-.735.59-1.327 1.393-1.327.778 0 1.368.557 1.368 1.326 0 .744-.59 1.36-1.368 1.36-.803-.013-1.393-.604-1.393-1.36zm.236 2.47h2.288v8.01h-2.29V4.67zm3.727 0h2.29v3.066h.848c.968 0 .932-1.62 1.64-2.58.307-.426.78-.698 1.51-.698.236 0 .66.036.92.12v1.95c-.13-.047-.306-.082-.47-.082-.26 0-.426.083-.556.248-.402.51-.473 1.538-1.074 1.917v.037c.39.153.672.437.92.946l1.44 3.088h-2.478l-.944-2.507c-.2-.497-.4-.71-.625-.71h-1.134v3.218h-2.29V4.67zM40.69 8.72c0-2.544 1.97-4.248 4.317-4.248 1.085 0 1.793.308 2.218.58v1.917c-.578-.438-1.192-.675-1.97-.675-1.404 0-2.242 1.065-2.242 2.426 0 1.502.85 2.318 2.135 2.318.708 0 1.25-.2 1.853-.544l.65 1.562c-.66.473-1.7.816-2.808.816-2.655-.023-4.153-1.798-4.153-4.152z"/></g><path fill="#0066A1" d="M73.59.104c-2.287 0-4.15 1.858-4.15 4.153 0 2.295 1.85 4.153 4.15 4.153 2.302 0 4.154-1.846 4.154-4.14 0-2.296-1.852-4.166-4.153-4.166zm0 7.395c-1.78 0-3.22-1.445-3.22-3.23 0-1.788 1.44-3.23 3.22-3.23 1.783 0 3.222 1.442 3.222 3.23 0 1.785-1.44 3.23-3.22 3.23z"/><path fill="#0066A1" d="M74.064 3.796V2.41h-.932v2.32h2.312v-.934"/></g></svg>