<svg xmlns="http://www.w3.org/2000/svg" width="89" height="17" viewBox="0 0 89 17"><g fill="none" fill-rule="evenodd"><g fill="#2FC7F7"><path d="M.024 1.467h7.338l-.58 1.88H2.35V5.68h.766c1.204 0 2.277.153 3.103.59.98.51 1.58 1.42 1.58 2.852 0 2-1.202 3.502-4.624 3.502H.035V1.467h-.01zM3.21 10.73c1.592 0 2.252-.508 2.252-1.572 0-.616-.236-1.03-.625-1.266-.425-.25-1.038-.32-1.734-.32h-.767v3.17h.873v-.01zm5.827-6.116h2.218V7.82c0 .663-.012 1.302-.07 1.763h.046c.19-.32.58-.993 1.04-1.656l2.288-3.3h2.24v8.01h-2.24V9.43c0-.663.035-1.302.082-1.763h-.047c-.188.32-.59.994-1.038 1.656l-2.29 3.3h-2.24v-8.01h.012zM20.103 6.507h-2.395V4.614h7.562l-.59 1.893h-2.29v6.117h-2.287M25.966 4.934c.885-.308 1.97-.52 3.173-.52 2.984 0 4.494 1.68 4.494 4.2 0 2.4-1.628 4.188-4.223 4.188-.39 0-.778-.048-1.155-.154v4h-2.29V4.933zm3.268 5.986c1.368 0 2.053-.9 2.053-2.307 0-1.56-.85-2.32-2.254-2.32-.283 0-.53.013-.778.108v4.355c.306.094.59.165.98.165zm5.474-6.306h2.218V7.82c0 .663-.012 1.302-.07 1.763h.046c.19-.32.578-.993 1.038-1.656l2.29-3.3h2.24v8.01h-2.24V9.43c0-.663.034-1.302.082-1.763h-.048c-.188.32-.59.994-1.038 1.656l-2.29 3.3h-2.24v-8.01h.012zm9.237 0h2.29V7.68h.848c.968 0 .932-1.622 1.64-2.58.307-.426.78-.7 1.51-.7.236 0 .66.037.92.12v1.952c-.13-.047-.306-.083-.472-.083-.258 0-.423.082-.553.248-.4.508-.472 1.538-1.074 1.916v.036c.39.153.673.437.92.946l1.44 3.088h-2.478l-.943-2.508c-.2-.497-.402-.71-.626-.71h-1.12v3.218h-2.29v-8.01h-.01zM51.78 8.66c0-2.543 1.97-4.247 4.316-4.247 1.086 0 1.794.308 2.218.58V6.91c-.578-.438-1.19-.675-1.97-.675-1.404 0-2.24 1.065-2.24 2.426 0 1.503.848 2.32 2.134 2.32.708 0 1.25-.202 1.852-.545l.65 1.562c-.662.473-1.7.816-2.81.816-2.665-.023-4.15-1.798-4.15-4.152z"/></g><path fill="#0066A1" d="M84.21.047c-2.29 0-4.153 1.858-4.153 4.153 0 2.295 1.852 4.153 4.152 4.153s4.152-1.846 4.152-4.14c0-2.308-1.852-4.166-4.153-4.166zm0 7.395c-1.782 0-3.22-1.444-3.22-3.23 0-1.787 1.438-3.23 3.22-3.23 1.78 0 3.22 1.443 3.22 3.23.012 1.786-1.44 3.23-3.22 3.23z"/><path fill="#0066A1" d="M84.68 3.74V2.353h-.93v2.318h2.312V3.74"/><g fill="#0066A1"><path d="M66.36 3.797c0-1.064-.885-1.443-1.817-1.443-1.263 0-2.29.414-3.244.84l-.662-1.964C61.71.745 63.198.2 64.956.2c2.76 0 4.093 1.385 4.093 3.337 0 3.42-4.696 4.378-5.486 6.98h5.65v2.177h-9C60.73 6.6 66.36 6.247 66.36 3.797z"/><path d="M68.766 8.116l6.206-7.88h1.84V7.69h1.84v2.07h-1.84v2.946h-2.5V9.76h-5.546V8.116zm4.412-.426h1.133V6.353c0-.958.072-2.07.12-2.307L71.632 7.75c.212-.025 1.12-.06 1.545-.06z"/></g></g></svg>