<svg width="219" height="178" viewBox="0 0 219 178" fill="none" xmlns="http://www.w3.org/2000/svg">
<path fill-rule="evenodd" clip-rule="evenodd" d="M157.409 5.08173C158.738 5.08173 159.815 4.0047 159.815 2.67612C159.815 1.34754 158.738 0.270508 157.409 0.270508C156.08 0.270508 155.003 1.34754 155.003 2.67612C155.003 4.0047 156.08 5.08173 157.409 5.08173ZM38.7039 25.8624C41.5841 25.8624 43.9189 23.5275 43.9189 20.6474C43.9189 17.7672 41.5841 15.4324 38.7039 15.4324C35.8237 15.4324 33.4889 17.7672 33.4889 20.6474C33.4889 23.5275 35.8237 25.8624 38.7039 25.8624ZM38.7039 22.9547C39.9782 22.9547 41.0112 21.9217 41.0112 20.6474C41.0112 19.3731 39.9782 18.34 38.7039 18.34C37.4296 18.34 36.3965 19.3731 36.3965 20.6474C36.3965 21.9217 37.4296 22.9547 38.7039 22.9547ZM12.2102 76.7733C16.0894 76.7733 19.2341 73.6286 19.2341 69.7494C19.2341 65.8702 16.0894 62.7255 12.2102 62.7255C8.33099 62.7255 5.18628 65.8702 5.18628 69.7494C5.18628 73.6286 8.33099 76.7733 12.2102 76.7733ZM12.2102 73.1075C14.0648 73.1075 15.5683 71.604 15.5683 69.7494C15.5683 67.8947 14.0648 66.3912 12.2102 66.3912C10.3555 66.3912 8.85206 67.8947 8.85206 69.7494C8.85206 71.604 10.3555 73.1075 12.2102 73.1075ZM190.539 165.155C193.301 165.155 195.54 162.916 195.54 160.154C195.54 157.393 193.301 155.154 190.539 155.154C187.778 155.154 185.539 157.393 185.539 160.154C185.539 162.916 187.778 165.155 190.539 165.155ZM190.539 162.553C191.864 162.553 192.938 161.479 192.938 160.154C192.938 158.83 191.864 157.756 190.539 157.756C189.215 157.756 188.141 158.83 188.141 160.154C188.141 161.479 189.215 162.553 190.539 162.553ZM110.5 178C157.996 178 196.5 139.496 196.5 91.9998C196.5 44.5033 157.996 5.99976 110.5 5.99976C63.0035 5.99976 24.5 44.5033 24.5 91.9998C24.5 139.496 63.0035 178 110.5 178ZM24.4588 171.988H7.74022C7.59716 171.988 7.45534 171.983 7.31493 171.972C3.53648 171.884 0.500191 168.709 0.5 164.805C0.501099 162.902 1.23768 161.077 2.54769 159.733C3.21919 159.043 4.01317 158.509 4.87699 158.152C4.86254 157.958 4.85518 157.763 4.85518 157.565C4.85637 155.558 5.63359 153.633 7.01587 152.214C8.39815 150.795 10.2723 149.999 12.2259 150C14.7285 150.003 16.938 151.289 18.2658 153.252C18.8964 153.022 19.5752 152.898 20.2823 152.898C23.4062 152.902 25.972 155.349 26.2694 158.479C29.2627 159.149 31.5026 161.89 31.5 165.166C31.4969 168.942 28.5168 172.001 24.8426 172C24.7138 172 24.5858 171.996 24.4588 171.988ZM201.638 38.992H213.503C213.593 38.9971 213.684 38.9997 213.775 38.9998C216.383 39.0008 218.498 36.9152 218.5 34.3407C218.502 32.1067 216.912 30.2382 214.788 29.7809C214.577 27.6471 212.756 25.9785 210.539 25.9758C210.037 25.9756 209.555 26.0606 209.108 26.2172C208.166 24.8788 206.598 24.0019 204.822 23.9998C203.435 23.9989 202.105 24.5419 201.124 25.5093C200.143 26.4767 199.592 27.7892 199.591 29.1581C199.591 29.2928 199.596 29.4262 199.606 29.5582C198.993 29.8015 198.43 30.1658 197.953 30.6358C197.024 31.5526 196.501 32.7966 196.5 34.0939C196.5 36.7558 198.655 38.9208 201.336 38.981C201.436 38.9883 201.537 38.992 201.638 38.992Z" fill="#FFF1D6"/>
<g filter="url(#filter0_d_1298_232757)">
<circle cx="110.5" cy="92.9999" r="65.12" fill="white"/>
</g>
<path fill-rule="evenodd" clip-rule="evenodd" d="M96.4679 56.2549L124.661 56.3041C125.374 56.3053 126.057 56.5898 126.56 57.0949L146.461 77.0649C146.964 77.57 147.246 78.2543 147.245 78.9674L147.196 107.16C147.194 107.873 146.91 108.556 146.405 109.06L126.435 128.96C125.93 129.464 125.245 129.746 124.532 129.744L96.3397 129.695C95.6266 129.694 94.9433 129.409 94.4399 128.904L74.5395 108.934C74.0362 108.429 73.7541 107.745 73.7554 107.032L73.8046 78.8392C73.8058 78.1262 74.0903 77.4428 74.5954 76.9395L94.5654 57.039C95.0705 56.5357 95.7548 56.2536 96.4679 56.2549ZM110.5 105.658C106.816 105.658 103.83 108.645 103.83 112.328C103.83 116.012 106.816 118.998 110.5 118.998C114.183 118.998 117.169 116.012 117.169 112.328C117.169 108.645 114.183 105.658 110.5 105.658ZM115.568 67.8961L105.394 67.8968C104.935 67.9159 104.571 68.2773 104.538 68.7248L104.536 68.8294L105.795 99.1853C105.814 99.6311 106.156 99.9897 106.589 100.039L106.691 100.044H114.309C114.755 100.044 115.127 99.7176 115.194 99.2865L115.204 99.1853L116.465 68.7923C116.465 68.3327 116.119 67.9539 115.673 67.9021L115.568 67.8961Z" fill="#F4433E"/>
<defs>
<filter id="filter0_d_1298_232757" x="43.3799" y="26.8799" width="134.24" height="134.24" filterUnits="userSpaceOnUse" color-interpolation-filters="sRGB">
<feFlood flood-opacity="0" result="BackgroundImageFix"/>
<feColorMatrix in="SourceAlpha" type="matrix" values="0 0 0 0 0 0 0 0 0 0 0 0 0 0 0 0 0 0 127 0" result="hardAlpha"/>
<feOffset dy="1"/>
<feGaussianBlur stdDeviation="1"/>
<feComposite in2="hardAlpha" operator="out"/>
<feColorMatrix type="matrix" values="0 0 0 0 0 0 0 0 0 0 0 0 0 0 0 0 0 0 0.12 0"/>
<feBlend mode="normal" in2="BackgroundImageFix" result="effect1_dropShadow_1298_232757"/>
<feBlend mode="normal" in="SourceGraphic" in2="effect1_dropShadow_1298_232757" result="shape"/>
</filter>
</defs>
</svg>
