<svg width="21" height="21" viewBox="0 0 21 21" fill="none" xmlns="http://www.w3.org/2000/svg">
<path fill-rule="evenodd" clip-rule="evenodd" d="M13.7072 15.8498C12.3704 16.7276 10.7709 17.2382 9.05218 17.2382C4.36211 17.2382 0.560059 13.4361 0.560059 8.74603C0.560059 4.05596 4.36211 0.253906 9.05218 0.253906C13.7423 0.253906 17.5443 4.05596 17.5443 8.74603C17.5443 10.4648 17.0337 12.0643 16.1559 13.4011L20.5698 17.8149C21.0905 18.3356 21.0905 19.1798 20.5698 19.7005L20.0067 20.2636C19.486 20.7843 18.6418 20.7843 18.1211 20.2636L13.7072 15.8498ZM15.118 8.74603C15.118 12.0961 12.4022 14.8118 9.05218 14.8118C5.70213 14.8118 2.98638 12.0961 2.98638 8.74603C2.98638 5.39598 5.70213 2.68023 9.05218 2.68023C12.4022 2.68023 15.118 5.39598 15.118 8.74603Z" fill="#2FC6F6"/>
<path d="M5.64015 8.00067H12.3068V9.33401H5.64015V8.00067Z" fill="#2FC6F6"/>
<path d="M9.64015 5.33401L9.64015 12.0007H8.30681L8.30681 5.33401H9.64015Z" fill="#2FC6F6"/>
</svg>
