<svg width="158" height="129" viewBox="0 0 158 129" fill="none" xmlns="http://www.w3.org/2000/svg">
	<path fill-rule="evenodd" clip-rule="evenodd" d="M113.82 3.8377C114.777 3.8377 115.554 3.06123 115.554 2.10342C115.554 1.1456 114.777 0.369141 113.82 0.369141C112.862 0.369141 112.085 1.1456 112.085 2.10342C112.085 3.06123 112.862 3.8377 113.82 3.8377ZM28.2416 18.8191C30.318 18.8191 32.0012 17.1358 32.0012 15.0594C32.0012 12.983 30.318 11.2998 28.2416 11.2998C26.1652 11.2998 24.4819 12.983 24.4819 15.0594C24.4819 17.1358 26.1652 18.8191 28.2416 18.8191ZM28.2415 16.7229C29.1602 16.7229 29.905 15.9781 29.905 15.0594C29.905 14.1408 29.1602 13.396 28.2415 13.396C27.3229 13.396 26.5781 14.1408 26.5781 15.0594C26.5781 15.9781 27.3229 16.7229 28.2415 16.7229ZM9.14145 55.5223C11.9381 55.5223 14.2052 53.2552 14.2052 50.4586C14.2052 47.6619 11.9381 45.3948 9.14145 45.3948C6.34482 45.3948 4.0777 47.6619 4.0777 50.4586C4.0777 53.2552 6.34482 55.5223 9.14145 55.5223ZM9.14145 52.8795C10.4785 52.8795 11.5624 51.7956 11.5624 50.4585C11.5624 49.1215 10.4785 48.0376 9.14145 48.0376C7.80438 48.0376 6.72047 49.1215 6.72047 50.4585C6.72047 51.7956 7.80438 52.8795 9.14145 52.8795ZM137.704 119.239C139.695 119.239 141.31 117.625 141.31 115.634C141.31 113.643 139.695 112.029 137.704 112.029C135.713 112.029 134.099 113.643 134.099 115.634C134.099 117.625 135.713 119.239 137.704 119.239ZM137.704 117.363C138.659 117.363 139.433 116.589 139.433 115.634C139.433 114.679 138.659 113.905 137.704 113.905C136.75 113.905 135.975 114.679 135.975 115.634C135.975 116.589 136.75 117.363 137.704 117.363ZM80.0015 128.5C114.243 128.5 142.002 100.741 142.002 66.4995C142.002 32.2579 114.243 4.49953 80.0015 4.49953C45.7599 4.49953 18.0015 32.2579 18.0015 66.4995C18.0015 100.741 45.7599 128.5 80.0015 128.5ZM17.9718 124.166H5.91891C5.81578 124.166 5.71353 124.162 5.61231 124.154C2.88831 124.09 0.699356 121.801 0.699219 118.987C0.700011 117.615 1.23103 116.3 2.17546 115.33C2.65957 114.833 3.23197 114.448 3.85472 114.191C3.8443 114.051 3.839 113.91 3.839 113.768C3.83986 112.32 4.40018 110.933 5.39671 109.91C6.39324 108.887 7.74433 108.313 9.15278 108.313C10.957 108.316 12.5498 109.243 13.5071 110.658C13.9617 110.493 14.4511 110.403 14.9609 110.403C17.213 110.406 19.0628 112.17 19.2772 114.426C21.4351 114.91 23.05 116.885 23.0481 119.248C23.0459 121.97 20.8974 124.175 18.2485 124.174C18.1557 124.174 18.0634 124.171 17.9718 124.166ZM145.706 28.2846H154.26C154.325 28.2883 154.39 28.2902 154.456 28.2902C156.336 28.291 157.86 26.7874 157.862 24.9314C157.863 23.3208 156.717 21.9738 155.186 21.6441C155.034 20.1057 153.721 18.9028 152.123 18.9009C151.761 18.9007 151.414 18.962 151.091 19.0749C150.412 18.11 149.281 17.4778 148.001 17.4763C147.001 17.4757 146.042 17.8671 145.335 18.5646C144.628 19.262 144.23 20.2082 144.23 21.1951C144.23 21.2922 144.234 21.3883 144.241 21.4835C143.799 21.659 143.393 21.9216 143.049 22.2604C142.379 22.9214 142.002 23.8182 142.002 24.7535C142.002 26.6725 143.555 28.2333 145.488 28.2767C145.56 28.282 145.633 28.2846 145.706 28.2846Z" fill="#F2EAFF"/>
	<g filter="url(#filter0_d_2191_108284)">
		<circle cx="80.0017" cy="66.5007" r="46.947" fill="white"/>
	</g>
	<path fill-rule="evenodd" clip-rule="evenodd" d="M75.9822 70.8497L68.0327 62.9002L62.413 68.5199L75.6763 81.7833L75.6818 81.7778L75.9877 82.0837L100.659 57.4122L95.0394 51.7924L75.9822 70.8497ZM80.002 101.994C60.3991 101.994 44.5078 86.103 44.5078 66.5001C44.5078 46.8972 60.3991 31.0059 80.002 31.0059C99.6049 31.0059 115.496 46.8972 115.496 66.5001C115.496 86.103 99.6049 101.994 80.002 101.994Z" fill="#945CEC"/>
	<defs>
		<filter id="filter0_d_2191_108284" x="31.0547" y="18.5537" width="97.8945" height="97.8936" filterUnits="userSpaceOnUse" color-interpolation-filters="sRGB">
			<feFlood flood-opacity="0" result="BackgroundImageFix"/>
			<feColorMatrix in="SourceAlpha" type="matrix" values="0 0 0 0 0 0 0 0 0 0 0 0 0 0 0 0 0 0 127 0" result="hardAlpha"/>
			<feOffset dy="1"/>
			<feGaussianBlur stdDeviation="1"/>
			<feComposite in2="hardAlpha" operator="out"/>
			<feColorMatrix type="matrix" values="0 0 0 0 0 0 0 0 0 0 0 0 0 0 0 0 0 0 0.12 0"/>
			<feBlend mode="normal" in2="BackgroundImageFix" result="effect1_dropShadow_2191_108284"/>
			<feBlend mode="normal" in="SourceGraphic" in2="effect1_dropShadow_2191_108284" result="shape"/>
		</filter>
	</defs>
</svg>