<svg width="40" height="40" viewBox="0 0 40 40" fill="none" xmlns="http://www.w3.org/2000/svg"><path d="M2 8C2 6.34315 3.34315 5 5 5H14.169C14.7128 5 15.2463 5.14777 15.7125 5.42752L19.2875 7.57248C19.7537 7.85223 20.2872 8 20.831 8H35C36.6569 8 38 9.34315 38 11V12.5H2V8Z" fill="url(#paint0_linear_14483_26601)"/><path d="M2 14H37.9999L38 31C38 33.2091 36.2091 35 34 35H6.00007C3.79093 35 2.00007 33.2091 2.00006 31L2 14Z" fill="url(#paint1_linear_14483_26601)"/><path fill-rule="evenodd" clip-rule="evenodd" d="M28.377 19.376C29.6542 18.0989 31.6192 17.813 32.9926 19.1864C33.6645 19.8583 33.9305 20.6785 33.8416 21.5021C33.7544 22.3092 33.3328 23.0777 32.7081 23.7031L30.8908 25.5593C30.168 26.2821 29.399 26.6923 28.5866 26.6922C27.7742 26.692 27.0455 26.2813 26.4034 25.6392C26.2535 25.4893 26.1202 25.3284 26.0037 25.159C25.8395 24.9201 25.9 24.5932 26.139 24.429C26.3779 24.2647 26.7048 24.3253 26.869 24.5642C26.9493 24.681 27.0415 24.7924 27.1459 24.8968C27.6755 25.4263 28.1529 25.6421 28.5868 25.6422C29.0203 25.6423 29.5373 25.4272 30.1464 24.8188L31.9637 22.9626C32.4598 22.4665 32.7416 21.9086 32.7976 21.3894C32.852 20.8858 32.7002 20.3789 32.2502 19.9289C31.3805 19.0592 30.0884 19.1517 29.122 20.1159L27.7959 21.4808C27.5939 21.6888 27.2615 21.6936 27.0535 21.4915C26.8456 21.2895 26.8408 20.9571 27.0428 20.7491L28.377 19.376ZM26.4266 22.4167C27.2514 22.3483 28.0055 22.6892 28.6697 23.3149L28.6753 23.3203L29.0597 23.7046C29.2647 23.9096 29.2647 24.242 29.0597 24.447C28.8547 24.6521 28.5223 24.6521 28.3172 24.4471L27.9441 24.074C27.4337 23.5951 26.961 23.426 26.5134 23.4631C26.0474 23.5017 25.4973 23.7724 24.8654 24.4041L23.089 26.1853C22.1234 27.1508 22.0314 28.4491 22.9029 29.3205C23.3528 29.7704 23.8591 29.9217 24.362 29.8669C24.8805 29.8105 25.4379 29.5285 25.9343 29.0323L27.2353 27.7268C27.44 27.5214 27.7724 27.5208 27.9777 27.7255C28.1831 27.9302 28.1837 28.2626 27.979 28.468L26.6778 29.7738L26.6771 29.7744C26.0516 30.3999 25.283 30.8229 24.4755 30.9108C23.6523 31.0003 22.8324 30.7349 22.1604 30.0629C20.7881 28.6906 21.0677 26.7219 22.3458 25.4436L24.1221 23.6625C24.8488 22.9358 25.6187 22.4836 26.4266 22.4167Z" fill="#E6F4FF"/><defs><linearGradient id="paint0_linear_14483_26601" x1="20" y1="4.2148" x2="20" y2="18.684" gradientUnits="userSpaceOnUse"><stop stop-color="#58BCF4"/><stop offset="1" stop-color="#3F81EC"/></linearGradient><linearGradient id="paint1_linear_14483_26601" x1="20" y1="11.9389" x2="20" y2="49.9206" gradientUnits="userSpaceOnUse"><stop stop-color="#58BCF4"/><stop offset="1" stop-color="#3F81EC"/></linearGradient></defs></svg>