<svg xmlns="http://www.w3.org/2000/svg" width="40" height="40" viewBox="0 0 40 40" fill="none"><path d="M2 8C2 6.34315 3.34315 5 5 5H14.169C14.7128 5 15.2463 5.14777 15.7125 5.42752L19.2875 7.57248C19.7537 7.85223 20.2872 8 20.831 8H35C36.6569 8 38 9.34315 38 11V12.5H2V8Z" fill="url(#paint0_linear_0_66)"/><path d="M2 14H37.9999L38 31C38 33.2091 36.2091 35 34 35H6.00007C3.79093 35 2.00007 33.2091 2.00006 31L2 14Z" fill="url(#paint1_linear_0_66)"/><defs><linearGradient id="paint0_linear_0_66" x1="20" y1="5" x2="20" y2="12.5" gradientUnits="userSpaceOnUse"><stop stop-color="#19CC45"/><stop offset="1" stop-color="#1CB14E"/></linearGradient><linearGradient id="paint1_linear_0_66" x1="20" y1="14" x2="20" y2="35" gradientUnits="userSpaceOnUse"><stop stop-color="#19CC45"/><stop offset="1" stop-color="#1CB14E"/></linearGradient></defs></svg>