<svg xmlns="http://www.w3.org/2000/svg" width="30" height="15" viewBox="0 0 30 15" fill="none"><g filter="url(#filter0_d_14483_26685)"><path d="M4 4C4 2.89543 4.89543 2 6 2H23C24.1046 2 25 2.89543 25 4V10C25 11.1046 24.1046 12 23 12H6C4.89543 12 4 11.1046 4 10V4Z" fill="#1F86FF"/></g><path d="M6.43359 4.36328H8.49219C10.1758 4.36328 11.1719 5.38281 11.1719 7.16797C11.1719 8.95312 10.1797 10 8.49219 10H6.43359V4.36328ZM7.44141 5.21484V9.14844H8.38672C9.51953 9.14844 10.1445 8.45703 10.1445 7.17188C10.1445 5.91016 9.51172 5.21484 8.38672 5.21484H7.44141Z" fill="white"/><path d="M14.457 4.26953C16.0977 4.26953 17.1289 5.39062 17.1289 7.18359C17.1289 8.97656 16.0977 10.0938 14.457 10.0938C12.8125 10.0938 11.7812 8.97656 11.7812 7.18359C11.7812 5.39062 12.8125 4.26953 14.457 4.26953ZM14.457 5.12891C13.4492 5.12891 12.8125 5.92578 12.8125 7.18359C12.8125 8.4375 13.4492 9.23438 14.457 9.23438C15.4609 9.23438 16.1016 8.4375 16.1016 7.18359C16.1016 5.92578 15.4609 5.12891 14.457 5.12891Z" fill="white"/><path d="M20.3633 10.0938C18.7539 10.0938 17.7422 8.98828 17.7422 7.17969C17.7422 5.38281 18.7617 4.26953 20.3633 4.26953C21.6719 4.26953 22.668 5.08594 22.793 6.29688H21.8008C21.668 5.58984 21.0938 5.125 20.3633 5.125C19.3945 5.125 18.7734 5.92188 18.7734 7.17969C18.7734 8.44531 19.3906 9.23828 20.3672 9.23828C21.1133 9.23828 21.6484 8.83594 21.8047 8.15625H22.793C22.6172 9.36328 21.6953 10.0938 20.3633 10.0938Z" fill="white"/><defs><filter id="filter0_d_14483_26685" x="2" y="1" width="25" height="14" filterUnits="userSpaceOnUse" color-interpolation-filters="sRGB"><feFlood flood-opacity="0" result="BackgroundImageFix"/><feColorMatrix in="SourceAlpha" type="matrix" values="0 0 0 0 0 0 0 0 0 0 0 0 0 0 0 0 0 0 127 0" result="hardAlpha"/><feOffset dy="1"/><feGaussianBlur stdDeviation="1"/><feComposite in2="hardAlpha" operator="out"/><feColorMatrix type="matrix" values="0 0 0 0 0 0 0 0 0 0 0 0 0 0 0 0 0 0 0.12 0"/><feBlend mode="normal" in2="BackgroundImageFix" result="effect1_dropShadow_14483_26685"/><feBlend mode="normal" in="SourceGraphic" in2="effect1_dropShadow_14483_26685" result="shape"/></filter></defs></svg>