<svg xmlns="http://www.w3.org/2000/svg" width="30" height="15" viewBox="0 0 30 15" fill="none"><g filter="url(#filter0_d_14483_27509)"><path d="M2 4C2 2.89543 2.89543 2 4 2H25C26.1046 2 27 2.89543 27 4V10C27 11.1046 26.1046 12 25 12H4C2.89543 12 2 11.1046 2 10V4Z" fill="#1F86FF"/></g><path d="M3.88281 4.36328H5.94141C7.625 4.36328 8.62109 5.38281 8.62109 7.16797C8.62109 8.95312 7.62891 10 5.94141 10H3.88281V4.36328ZM4.89062 5.21484V9.14844H5.83594C6.96875 9.14844 7.59375 8.45703 7.59375 7.17188C7.59375 5.91016 6.96094 5.21484 5.83594 5.21484H4.89062Z" fill="white"/><path d="M11.9062 4.26953C13.5469 4.26953 14.5781 5.39062 14.5781 7.18359C14.5781 8.97656 13.5469 10.0938 11.9062 10.0938C10.2617 10.0938 9.23047 8.97656 9.23047 7.18359C9.23047 5.39062 10.2617 4.26953 11.9062 4.26953ZM11.9062 5.12891C10.8984 5.12891 10.2617 5.92578 10.2617 7.18359C10.2617 8.4375 10.8984 9.23438 11.9062 9.23438C12.9102 9.23438 13.5508 8.4375 13.5508 7.18359C13.5508 5.92578 12.9102 5.12891 11.9062 5.12891Z" fill="white"/><path d="M17.8125 10.0938C16.2031 10.0938 15.1914 8.98828 15.1914 7.17969C15.1914 5.38281 16.2109 4.26953 17.8125 4.26953C19.1211 4.26953 20.1172 5.08594 20.2422 6.29688H19.25C19.1172 5.58984 18.543 5.125 17.8125 5.125C16.8438 5.125 16.2227 5.92188 16.2227 7.17969C16.2227 8.44531 16.8398 9.23828 17.8164 9.23828C18.5625 9.23828 19.0977 8.83594 19.2539 8.15625H20.2422C20.0664 9.36328 19.1445 10.0938 17.8125 10.0938Z" fill="white"/><path d="M20.4492 10L22.2852 7.17578V7.14844L20.4648 4.36328H21.6562L22.9609 6.48047H22.9922L24.3125 4.36328H25.4414L23.5625 7.17188V7.19922L25.4102 10H24.25L22.9219 7.92969H22.8906L21.5469 10H20.4492Z" fill="white"/><defs><filter id="filter0_d_14483_27509" x="0" y="1" width="29" height="14" filterUnits="userSpaceOnUse" color-interpolation-filters="sRGB"><feFlood flood-opacity="0" result="BackgroundImageFix"/><feColorMatrix in="SourceAlpha" type="matrix" values="0 0 0 0 0 0 0 0 0 0 0 0 0 0 0 0 0 0 127 0" result="hardAlpha"/><feOffset dy="1"/><feGaussianBlur stdDeviation="1"/><feComposite in2="hardAlpha" operator="out"/><feColorMatrix type="matrix" values="0 0 0 0 0 0 0 0 0 0 0 0 0 0 0 0 0 0 0.12 0"/><feBlend mode="normal" in2="BackgroundImageFix" result="effect1_dropShadow_14483_27509"/><feBlend mode="normal" in="SourceGraphic" in2="effect1_dropShadow_14483_27509" result="shape"/></filter></defs></svg>