<svg width="40" height="40" viewBox="0 0 40 40" fill="none" xmlns="http://www.w3.org/2000/svg">
	<path d="M6.5 6C6.5 4.067 8.067 2.5 10 2.5H24.4649L33.5 11.2125V34C33.5 35.933 31.933 37.5 30 37.5H10C8.067 37.5 6.5 35.933 6.5 34V6Z" fill="url(#paint0_linear_14483_27454)" stroke="url(#paint1_linear_14483_27454)" stroke-linejoin="round"/>
	<path d="M28.65 11C26.4409 11 24.65 9.20914 24.65 7L24.65 2L34 11H28.65Z" fill="#DADEE5"/>
	<path fill-rule="evenodd" clip-rule="evenodd" d="M15.6567 19.661C15.6567 18.5544 16.5539 17.6572 17.6605 17.6572C18.7672 17.6572 19.6643 18.5544 19.6643 19.661C19.6643 20.7677 18.7672 21.6648 17.6605 21.6648C16.5539 21.6648 15.6567 20.7677 15.6567 19.661ZM17.6605 18.8572C17.2166 18.8572 16.8567 19.2171 16.8567 19.661C16.8567 20.1049 17.2166 20.4648 17.6605 20.4648C18.1045 20.4648 18.4643 20.1049 18.4643 19.661C18.4643 19.2171 18.1045 18.8572 17.6605 18.8572Z" fill="#1F86FF"/>
	<path fill-rule="evenodd" clip-rule="evenodd" d="M12.8491 17.9496C12.8491 16.2375 14.237 14.8496 15.9491 14.8496H24.0512C25.7633 14.8496 27.1512 16.2375 27.1512 17.9496V26.0517C27.1512 27.7637 25.7633 29.1517 24.0512 29.1517H15.9491C14.237 29.1517 12.8491 27.7637 12.8491 26.0517V17.9496ZM15.9491 16.0496C14.8998 16.0496 14.0491 16.9003 14.0491 17.9496V26.0517C14.0491 26.8078 14.4908 27.4607 15.1302 27.7666C15.1508 27.7334 15.175 27.7018 15.2028 27.6723L20.7777 21.7383C21.5676 20.8975 22.8877 20.8513 23.7345 21.6348L25.9512 23.6859V17.9496C25.9512 16.9003 25.1005 16.0496 24.0512 16.0496H15.9491ZM25.9512 25.3208L22.9195 22.5156C22.5566 22.1798 21.9908 22.1996 21.6523 22.5599L16.5868 27.9517H24.0512C25.1005 27.9517 25.9512 27.101 25.9512 26.0517V25.3208Z" fill="#1F86FF"/>
	<defs>
		<linearGradient id="paint0_linear_14483_27454" x1="6" y1="2" x2="18.9313" y2="38.3799" gradientUnits="userSpaceOnUse">
			<stop stop-color="#F7FAFF"/>
			<stop offset="0.37" stop-color="#EDF1F9"/>
			<stop offset="1" stop-color="#EDF1F9"/>
		</linearGradient>
		<linearGradient id="paint1_linear_14483_27454" x1="20" y1="2" x2="20" y2="37.5" gradientUnits="userSpaceOnUse">
			<stop stop-color="#E4E8F0"/>
			<stop offset="1" stop-color="#E5E9F1"/>
		</linearGradient>
	</defs>
</svg>
