<svg xmlns="http://www.w3.org/2000/svg" width="30" height="15" viewBox="0 0 30 15" fill="none"><g filter="url(#filter0_d_14483_27519)"><path d="M4 4C4 2.89543 4.89543 2 6 2H23C24.1046 2 25 2.89543 25 4V10C25 11.1046 24.1046 12 23 12H6C4.89543 12 4 11.1046 4 10V4Z" fill="#FF5D53"/></g><path d="M7.64844 4.36328H9.83984C10.9609 4.36328 11.7383 5.125 11.7383 6.25C11.7383 7.375 10.9375 8.13672 9.79688 8.13672H8.65625V10H7.64844V4.36328ZM8.65625 5.1875V7.32422H9.57031C10.293 7.32422 10.7148 6.93359 10.7148 6.25C10.7148 5.57422 10.2969 5.1875 9.57422 5.1875H8.65625Z" fill="white"/><path d="M12.4766 4.36328H14.5352C16.2188 4.36328 17.2148 5.38281 17.2148 7.16797C17.2148 8.95312 16.2227 10 14.5352 10H12.4766V4.36328ZM13.4844 5.21484V9.14844H14.4297C15.5625 9.14844 16.1875 8.45703 16.1875 7.17188C16.1875 5.91016 15.5547 5.21484 14.4297 5.21484H13.4844Z" fill="white"/><path d="M19.0234 10H18.0156V4.36328H21.6094V5.21484H19.0234V6.87891H21.3867V7.69922H19.0234V10Z" fill="white"/><defs><filter id="filter0_d_14483_27519" x="2" y="1" width="25" height="14" filterUnits="userSpaceOnUse" color-interpolation-filters="sRGB"><feFlood flood-opacity="0" result="BackgroundImageFix"/><feColorMatrix in="SourceAlpha" type="matrix" values="0 0 0 0 0 0 0 0 0 0 0 0 0 0 0 0 0 0 127 0" result="hardAlpha"/><feOffset dy="1"/><feGaussianBlur stdDeviation="1"/><feComposite in2="hardAlpha" operator="out"/><feColorMatrix type="matrix" values="0 0 0 0 0 0 0 0 0 0 0 0 0 0 0 0 0 0 0.12 0"/><feBlend mode="normal" in2="BackgroundImageFix" result="effect1_dropShadow_14483_27519"/><feBlend mode="normal" in="SourceGraphic" in2="effect1_dropShadow_14483_27519" result="shape"/></filter></defs></svg>