<svg xmlns="http://www.w3.org/2000/svg" width="30" height="15" viewBox="0 0 30 15" fill="none"><g filter="url(#filter0_d_14483_27619)"><path d="M4 4C4 2.89543 4.89543 2 6 2H23C24.1046 2 25 2.89543 25 4V10C25 11.1046 24.1046 12 23 12H6C4.89543 12 4 11.1046 4 10V4Z" fill="#7D7D7D"/></g><path d="M7.29297 4.36328H9.48438C10.6055 4.36328 11.3828 5.125 11.3828 6.25C11.3828 7.375 10.582 8.13672 9.44141 8.13672H8.30078V10H7.29297V4.36328ZM8.30078 5.1875V7.32422H9.21484C9.9375 7.32422 10.3594 6.93359 10.3594 6.25C10.3594 5.57422 9.94141 5.1875 9.21875 5.1875H8.30078Z" fill="white"/><path d="M16.875 10H15.8711V7.55469H13.1289V10H12.1211V4.36328H13.1289V6.70703H15.8711V4.36328H16.875V10Z" fill="white"/><path d="M17.8711 4.36328H20.0625C21.1836 4.36328 21.9609 5.125 21.9609 6.25C21.9609 7.375 21.1602 8.13672 20.0195 8.13672H18.8789V10H17.8711V4.36328ZM18.8789 5.1875V7.32422H19.793C20.5156 7.32422 20.9375 6.93359 20.9375 6.25C20.9375 5.57422 20.5195 5.1875 19.7969 5.1875H18.8789Z" fill="white"/><defs><filter id="filter0_d_14483_27619" x="2" y="1" width="25" height="14" filterUnits="userSpaceOnUse" color-interpolation-filters="sRGB"><feFlood flood-opacity="0" result="BackgroundImageFix"/><feColorMatrix in="SourceAlpha" type="matrix" values="0 0 0 0 0 0 0 0 0 0 0 0 0 0 0 0 0 0 127 0" result="hardAlpha"/><feOffset dy="1"/><feGaussianBlur stdDeviation="1"/><feComposite in2="hardAlpha" operator="out"/><feColorMatrix type="matrix" values="0 0 0 0 0 0 0 0 0 0 0 0 0 0 0 0 0 0 0.12 0"/><feBlend mode="normal" in2="BackgroundImageFix" result="effect1_dropShadow_14483_27619"/><feBlend mode="normal" in="SourceGraphic" in2="effect1_dropShadow_14483_27619" result="shape"/></filter></defs></svg>