<svg xmlns="http://www.w3.org/2000/svg" width="30" height="15" viewBox="0 0 30 15" fill="none"><g filter="url(#filter0_d_14483_27549)"><path d="M4 4C4 2.89543 4.89543 2 6 2H23C24.1046 2 25 2.89543 25 4V10C25 11.1046 24.1046 12 23 12H6C4.89543 12 4 11.1046 4 10V4Z" fill="#FAA72C"/></g><path d="M7.78906 4.36328H9.98047C11.1016 4.36328 11.8789 5.125 11.8789 6.25C11.8789 7.375 11.0781 8.13672 9.9375 8.13672H8.79688V10H7.78906V4.36328ZM8.79688 5.1875V7.32422H9.71094C10.4336 7.32422 10.8555 6.93359 10.8555 6.25C10.8555 5.57422 10.4375 5.1875 9.71484 5.1875H8.79688Z" fill="white"/><path d="M12.6172 4.36328H14.8086C15.9297 4.36328 16.707 5.125 16.707 6.25C16.707 7.375 15.9062 8.13672 14.7656 8.13672H13.625V10H12.6172V4.36328ZM13.625 5.1875V7.32422H14.5391C15.2617 7.32422 15.6836 6.93359 15.6836 6.25C15.6836 5.57422 15.2656 5.1875 14.543 5.1875H13.625Z" fill="white"/><path d="M19.8281 10H18.8242V5.21484H17.1367V4.36328H21.5117V5.21484H19.8281V10Z" fill="white"/><defs><filter id="filter0_d_14483_27549" x="2" y="1" width="25" height="14" filterUnits="userSpaceOnUse" color-interpolation-filters="sRGB"><feFlood flood-opacity="0" result="BackgroundImageFix"/><feColorMatrix in="SourceAlpha" type="matrix" values="0 0 0 0 0 0 0 0 0 0 0 0 0 0 0 0 0 0 127 0" result="hardAlpha"/><feOffset dy="1"/><feGaussianBlur stdDeviation="1"/><feComposite in2="hardAlpha" operator="out"/><feColorMatrix type="matrix" values="0 0 0 0 0 0 0 0 0 0 0 0 0 0 0 0 0 0 0.12 0"/><feBlend mode="normal" in2="BackgroundImageFix" result="effect1_dropShadow_14483_27549"/><feBlend mode="normal" in="SourceGraphic" in2="effect1_dropShadow_14483_27549" result="shape"/></filter></defs></svg>