<svg xmlns="http://www.w3.org/2000/svg" width="30" height="15" viewBox="0 0 30 15" fill="none"><g filter="url(#filter0_d_14483_27559)"><path d="M2 4C2 2.89543 2.89543 2 4 2H25C26.1046 2 27 2.89543 27 4V10C27 11.1046 26.1046 12 25 12H4C2.89543 12 2 11.1046 2 10V4Z" fill="#FAA72C"/></g><path d="M5.12109 4.36328H7.3125C8.43359 4.36328 9.21094 5.125 9.21094 6.25C9.21094 7.375 8.41016 8.13672 7.26953 8.13672H6.12891V10H5.12109V4.36328ZM6.12891 5.1875V7.32422H7.04297C7.76562 7.32422 8.1875 6.93359 8.1875 6.25C8.1875 5.57422 7.76953 5.1875 7.04688 5.1875H6.12891Z" fill="white"/><path d="M9.94922 4.36328H12.1406C13.2617 4.36328 14.0391 5.125 14.0391 6.25C14.0391 7.375 13.2383 8.13672 12.0977 8.13672H10.957V10H9.94922V4.36328ZM10.957 5.1875V7.32422H11.8711C12.5938 7.32422 13.0156 6.93359 13.0156 6.25C13.0156 5.57422 12.5977 5.1875 11.875 5.1875H10.957Z" fill="white"/><path d="M17.1602 10H16.1562V5.21484H14.4688V4.36328H18.8438V5.21484H17.1602V10Z" fill="white"/><path d="M19.2109 10L21.0469 7.17578V7.14844L19.2266 4.36328H20.418L21.7227 6.48047H21.7539L23.0742 4.36328H24.2031L22.3242 7.17188V7.19922L24.1719 10H23.0117L21.6836 7.92969H21.6523L20.3086 10H19.2109Z" fill="white"/><defs><filter id="filter0_d_14483_27559" x="0" y="1" width="29" height="14" filterUnits="userSpaceOnUse" color-interpolation-filters="sRGB"><feFlood flood-opacity="0" result="BackgroundImageFix"/><feColorMatrix in="SourceAlpha" type="matrix" values="0 0 0 0 0 0 0 0 0 0 0 0 0 0 0 0 0 0 127 0" result="hardAlpha"/><feOffset dy="1"/><feGaussianBlur stdDeviation="1"/><feComposite in2="hardAlpha" operator="out"/><feColorMatrix type="matrix" values="0 0 0 0 0 0 0 0 0 0 0 0 0 0 0 0 0 0 0.12 0"/><feBlend mode="normal" in2="BackgroundImageFix" result="effect1_dropShadow_14483_27559"/><feBlend mode="normal" in="SourceGraphic" in2="effect1_dropShadow_14483_27559" result="shape"/></filter></defs></svg>