<svg xmlns="http://www.w3.org/2000/svg" width="30" height="15" viewBox="0 0 30 15" fill="none"><g filter="url(#filter0_d_14483_27599)"><path d="M4 4C4 2.89543 4.89543 2 6 2H23C24.1046 2 25 2.89543 25 4V10C25 11.1046 24.1046 12 23 12H6C4.89543 12 4 11.1046 4 10V4Z" fill="#3A6DD0"/></g><path d="M7.33984 4.36328H9.53125C10.6523 4.36328 11.4297 5.125 11.4297 6.25C11.4297 7.375 10.6289 8.13672 9.48828 8.13672H8.34766V10H7.33984V4.36328ZM8.34766 5.1875V7.32422H9.26172C9.98438 7.32422 10.4062 6.93359 10.4062 6.25C10.4062 5.57422 9.98828 5.1875 9.26562 5.1875H8.34766Z" fill="white"/><path d="M11.9375 8.41406H12.9141C12.9766 8.93359 13.4961 9.27344 14.1836 9.27344C14.8633 9.27344 15.3359 8.9375 15.3359 8.46875C15.3359 8.0625 15.0469 7.82812 14.3359 7.66016L13.6055 7.48828C12.5664 7.25 12.0742 6.75 12.0742 5.94531C12.0742 4.94531 12.9453 4.26953 14.1719 4.26953C15.4141 4.26953 16.2344 4.94141 16.2578 5.93359H15.2969C15.25 5.40625 14.8086 5.08984 14.1641 5.08984C13.5273 5.08984 13.0977 5.40234 13.0977 5.87109C13.0977 6.24609 13.3828 6.46484 14.0742 6.62891L14.7227 6.77734C15.8672 7.03906 16.3516 7.51172 16.3516 8.35156C16.3516 9.42188 15.4922 10.0938 14.1289 10.0938C12.832 10.0938 11.9805 9.45312 11.9375 8.41406Z" fill="white"/><path d="M17.1133 4.36328H19.1719C20.8555 4.36328 21.8516 5.38281 21.8516 7.16797C21.8516 8.95312 20.8594 10 19.1719 10H17.1133V4.36328ZM18.1211 5.21484V9.14844H19.0664C20.1992 9.14844 20.8242 8.45703 20.8242 7.17188C20.8242 5.91016 20.1914 5.21484 19.0664 5.21484H18.1211Z" fill="white"/><defs><filter id="filter0_d_14483_27599" x="2" y="1" width="25" height="14" filterUnits="userSpaceOnUse" color-interpolation-filters="sRGB"><feFlood flood-opacity="0" result="BackgroundImageFix"/><feColorMatrix in="SourceAlpha" type="matrix" values="0 0 0 0 0 0 0 0 0 0 0 0 0 0 0 0 0 0 127 0" result="hardAlpha"/><feOffset dy="1"/><feGaussianBlur stdDeviation="1"/><feComposite in2="hardAlpha" operator="out"/><feColorMatrix type="matrix" values="0 0 0 0 0 0 0 0 0 0 0 0 0 0 0 0 0 0 0.12 0"/><feBlend mode="normal" in2="BackgroundImageFix" result="effect1_dropShadow_14483_27599"/><feBlend mode="normal" in="SourceGraphic" in2="effect1_dropShadow_14483_27599" result="shape"/></filter></defs></svg>