<svg xmlns="http://www.w3.org/2000/svg" width="30" height="15" viewBox="0 0 30 15" fill="none"><g filter="url(#filter0_d_14483_27579)"><path d="M4 4C4 2.89543 4.89543 2 6 2H23C24.1046 2 25 2.89543 25 4V10C25 11.1046 24.1046 12 23 12H6C4.89543 12 4 11.1046 4 10V4Z" fill="#DA6FEB"/></g><path d="M8.32812 5.17969V7.10547H9.46484C10.1055 7.10547 10.4766 6.75 10.4766 6.14062C10.4766 5.54688 10.082 5.17969 9.44531 5.17969H8.32812ZM8.32812 7.87891V10H7.32031V4.36328H9.55859C10.7773 4.36328 11.5078 5.03906 11.5078 6.11719C11.5078 6.86328 11.1172 7.48438 10.4453 7.72656L11.6758 10H10.5273L9.41797 7.87891H8.32812Z" fill="white"/><path d="M16.0039 10L15.5234 8.54297H13.4492L12.9688 10H11.9297L13.9297 4.36328H15.0664L17.0664 10H16.0039ZM14.4727 5.35938L13.6836 7.76562H15.2852L14.5 5.35938H14.4727Z" fill="white"/><path d="M18.6797 5.17969V7.10547H19.8164C20.457 7.10547 20.8281 6.75 20.8281 6.14062C20.8281 5.54688 20.4336 5.17969 19.7969 5.17969H18.6797ZM18.6797 7.87891V10H17.6719V4.36328H19.9102C21.1289 4.36328 21.8594 5.03906 21.8594 6.11719C21.8594 6.86328 21.4688 7.48438 20.7969 7.72656L22.0273 10H20.8789L19.7695 7.87891H18.6797Z" fill="white"/><defs><filter id="filter0_d_14483_27579" x="2" y="1" width="25" height="14" filterUnits="userSpaceOnUse" color-interpolation-filters="sRGB"><feFlood flood-opacity="0" result="BackgroundImageFix"/><feColorMatrix in="SourceAlpha" type="matrix" values="0 0 0 0 0 0 0 0 0 0 0 0 0 0 0 0 0 0 127 0" result="hardAlpha"/><feOffset dy="1"/><feGaussianBlur stdDeviation="1"/><feComposite in2="hardAlpha" operator="out"/><feColorMatrix type="matrix" values="0 0 0 0 0 0 0 0 0 0 0 0 0 0 0 0 0 0 0.12 0"/><feBlend mode="normal" in2="BackgroundImageFix" result="effect1_dropShadow_14483_27579"/><feBlend mode="normal" in="SourceGraphic" in2="effect1_dropShadow_14483_27579" result="shape"/></filter></defs></svg>