<svg xmlns="http://www.w3.org/2000/svg" width="30" height="15" viewBox="0 0 30 15" fill="none"><g filter="url(#filter0_d_14483_27609)"><path d="M4 4C4 2.89543 4.89543 2 6 2H23C24.1046 2 25 2.89543 25 4V10C25 11.1046 24.1046 12 23 12H6C4.89543 12 4 11.1046 4 10V4Z" fill="#7988A6"/></g><path d="M9.95312 10H8.94922V5.21484H7.26172V4.36328H11.6367V5.21484H9.95312V10Z" fill="white"/><path d="M12.0039 10L13.8398 7.17578V7.14844L12.0195 4.36328H13.2109L14.5156 6.48047H14.5469L15.8672 4.36328H16.9961L15.1172 7.17188V7.19922L16.9648 10H15.8047L14.4766 7.92969H14.4453L13.1016 10H12.0039Z" fill="white"/><path d="M20.0469 10H19.043V5.21484H17.3555V4.36328H21.7305V5.21484H20.0469V10Z" fill="white"/><defs><filter id="filter0_d_14483_27609" x="2" y="1" width="25" height="14" filterUnits="userSpaceOnUse" color-interpolation-filters="sRGB"><feFlood flood-opacity="0" result="BackgroundImageFix"/><feColorMatrix in="SourceAlpha" type="matrix" values="0 0 0 0 0 0 0 0 0 0 0 0 0 0 0 0 0 0 127 0" result="hardAlpha"/><feOffset dy="1"/><feGaussianBlur stdDeviation="1"/><feComposite in2="hardAlpha" operator="out"/><feColorMatrix type="matrix" values="0 0 0 0 0 0 0 0 0 0 0 0 0 0 0 0 0 0 0.12 0"/><feBlend mode="normal" in2="BackgroundImageFix" result="effect1_dropShadow_14483_27609"/><feBlend mode="normal" in="SourceGraphic" in2="effect1_dropShadow_14483_27609" result="shape"/></filter></defs></svg>