<svg xmlns="http://www.w3.org/2000/svg" width="30" height="15" viewBox="0 0 30 15" fill="none"><g filter="url(#filter0_d_14483_27529)"><path d="M4 4C4 2.89543 4.89543 2 6 2H23C24.1046 2 25 2.89543 25 4V10C25 11.1046 24.1046 12 23 12H6C4.89543 12 4 11.1046 4 10V4Z" fill="#5CC94A"/></g><path d="M7.38672 10L9.22266 7.17578V7.14844L7.40234 4.36328H8.59375L9.89844 6.48047H9.92969L11.25 4.36328H12.3789L10.5 7.17188V7.19922L12.3477 10H11.1875L9.85938 7.92969H9.82812L8.48438 10H7.38672Z" fill="white"/><path d="M16.6133 9.14844V10H13.0469V4.36328H14.0547V9.14844H16.6133Z" fill="white"/><path d="M17.1055 8.41406H18.082C18.1445 8.93359 18.6641 9.27344 19.3516 9.27344C20.0312 9.27344 20.5039 8.9375 20.5039 8.46875C20.5039 8.0625 20.2148 7.82812 19.5039 7.66016L18.7734 7.48828C17.7344 7.25 17.2422 6.75 17.2422 5.94531C17.2422 4.94531 18.1133 4.26953 19.3398 4.26953C20.582 4.26953 21.4023 4.94141 21.4258 5.93359H20.4648C20.418 5.40625 19.9766 5.08984 19.332 5.08984C18.6953 5.08984 18.2656 5.40234 18.2656 5.87109C18.2656 6.24609 18.5508 6.46484 19.2422 6.62891L19.8906 6.77734C21.0352 7.03906 21.5195 7.51172 21.5195 8.35156C21.5195 9.42188 20.6602 10.0938 19.2969 10.0938C18 10.0938 17.1484 9.45312 17.1055 8.41406Z" fill="white"/><defs><filter id="filter0_d_14483_27529" x="2" y="1" width="25" height="14" filterUnits="userSpaceOnUse" color-interpolation-filters="sRGB"><feFlood flood-opacity="0" result="BackgroundImageFix"/><feColorMatrix in="SourceAlpha" type="matrix" values="0 0 0 0 0 0 0 0 0 0 0 0 0 0 0 0 0 0 127 0" result="hardAlpha"/><feOffset dy="1"/><feGaussianBlur stdDeviation="1"/><feComposite in2="hardAlpha" operator="out"/><feColorMatrix type="matrix" values="0 0 0 0 0 0 0 0 0 0 0 0 0 0 0 0 0 0 0.12 0"/><feBlend mode="normal" in2="BackgroundImageFix" result="effect1_dropShadow_14483_27529"/><feBlend mode="normal" in="SourceGraphic" in2="effect1_dropShadow_14483_27529" result="shape"/></filter></defs></svg>