<svg xmlns="http://www.w3.org/2000/svg" width="30" height="15" viewBox="0 0 30 15" fill="none"><g filter="url(#filter0_d_14483_27543)"><path d="M2 4C2 2.89543 2.89543 2 4 2H25C26.1046 2 27 2.89543 27 4V10C27 11.1046 26.1046 12 25 12H4C2.89543 12 2 11.1046 2 10V4Z" fill="#5CC94A"/></g><path d="M4.75781 10L6.59375 7.17578V7.14844L4.77344 4.36328H5.96484L7.26953 6.48047H7.30078L8.62109 4.36328H9.75L7.87109 7.17188V7.19922L9.71875 10H8.55859L7.23047 7.92969H7.19922L5.85547 10H4.75781Z" fill="white"/><path d="M13.9844 9.14844V10H10.418V4.36328H11.4258V9.14844H13.9844Z" fill="white"/><path d="M14.4766 8.41406H15.4531C15.5156 8.93359 16.0352 9.27344 16.7227 9.27344C17.4023 9.27344 17.875 8.9375 17.875 8.46875C17.875 8.0625 17.5859 7.82812 16.875 7.66016L16.1445 7.48828C15.1055 7.25 14.6133 6.75 14.6133 5.94531C14.6133 4.94531 15.4844 4.26953 16.7109 4.26953C17.9531 4.26953 18.7734 4.94141 18.7969 5.93359H17.8359C17.7891 5.40625 17.3477 5.08984 16.7031 5.08984C16.0664 5.08984 15.6367 5.40234 15.6367 5.87109C15.6367 6.24609 15.9219 6.46484 16.6133 6.62891L17.2617 6.77734C18.4062 7.03906 18.8906 7.51172 18.8906 8.35156C18.8906 9.42188 18.0312 10.0938 16.668 10.0938C15.3711 10.0938 14.5195 9.45312 14.4766 8.41406Z" fill="white"/><path d="M19.25 10L21.0859 7.17578V7.14844L19.2656 4.36328H20.457L21.7617 6.48047H21.793L23.1133 4.36328H24.2422L22.3633 7.17188V7.19922L24.2109 10H23.0508L21.7227 7.92969H21.6914L20.3477 10H19.25Z" fill="white"/><defs><filter id="filter0_d_14483_27543" x="0" y="1" width="29" height="14" filterUnits="userSpaceOnUse" color-interpolation-filters="sRGB"><feFlood flood-opacity="0" result="BackgroundImageFix"/><feColorMatrix in="SourceAlpha" type="matrix" values="0 0 0 0 0 0 0 0 0 0 0 0 0 0 0 0 0 0 127 0" result="hardAlpha"/><feOffset dy="1"/><feGaussianBlur stdDeviation="1"/><feComposite in2="hardAlpha" operator="out"/><feColorMatrix type="matrix" values="0 0 0 0 0 0 0 0 0 0 0 0 0 0 0 0 0 0 0.12 0"/><feBlend mode="normal" in2="BackgroundImageFix" result="effect1_dropShadow_14483_27543"/><feBlend mode="normal" in="SourceGraphic" in2="effect1_dropShadow_14483_27543" result="shape"/></filter></defs></svg>