<svg xmlns="http://www.w3.org/2000/svg" width="30" height="15" viewBox="0 0 30 15" fill="none"><g filter="url(#filter0_d_14483_27569)"><path d="M4 4C4 2.89543 4.89543 2 6 2H23C24.1046 2 25 2.89543 25 4V10C25 11.1046 24.1046 12 23 12H6C4.89543 12 4 11.1046 4 10V4Z" fill="#B367F2"/></g><path d="M8.94141 10V9.32812L11.9336 5.24219V5.21484H9.02344V4.36328H13.1523V5.03516L10.1758 9.12109V9.14844H13.2266V10H8.94141Z" fill="white"/><path d="M15.0938 10H14.0859V4.36328H15.0938V10Z" fill="white"/><path d="M16.0859 4.36328H18.2773C19.3984 4.36328 20.1758 5.125 20.1758 6.25C20.1758 7.375 19.375 8.13672 18.2344 8.13672H17.0938V10H16.0859V4.36328ZM17.0938 5.1875V7.32422H18.0078C18.7305 7.32422 19.1523 6.93359 19.1523 6.25C19.1523 5.57422 18.7344 5.1875 18.0117 5.1875H17.0938Z" fill="white"/><defs><filter id="filter0_d_14483_27569" x="2" y="1" width="25" height="14" filterUnits="userSpaceOnUse" color-interpolation-filters="sRGB"><feFlood flood-opacity="0" result="BackgroundImageFix"/><feColorMatrix in="SourceAlpha" type="matrix" values="0 0 0 0 0 0 0 0 0 0 0 0 0 0 0 0 0 0 127 0" result="hardAlpha"/><feOffset dy="1"/><feGaussianBlur stdDeviation="1"/><feComposite in2="hardAlpha" operator="out"/><feColorMatrix type="matrix" values="0 0 0 0 0 0 0 0 0 0 0 0 0 0 0 0 0 0 0.12 0"/><feBlend mode="normal" in2="BackgroundImageFix" result="effect1_dropShadow_14483_27569"/><feBlend mode="normal" in="SourceGraphic" in2="effect1_dropShadow_14483_27569" result="shape"/></filter></defs></svg>