<svg xmlns="http://www.w3.org/2000/svg" width="17" height="15" viewBox="0 0 17 15">
  <path fill="#5E646A" fill-rule="evenodd" d="M105.506097,10.499 C105.690331,10.4990002 105.867004,10.4257453 105.997183,10.2953787 C106.127362,10.1650121 106.200363,9.98823344 106.200097,9.804 L106.200097,8.762 C106.200097,8.37871438 105.889383,8.068 105.506097,8.068 C105.122812,8.068 104.812097,8.37871438 104.812097,8.762 L104.812097,9.804 C104.811832,9.98823344 104.884832,10.1650121 105.015011,10.2953787 C105.14519,10.4257453 105.321864,10.4990002 105.506097,10.499 L105.506097,10.499 Z M98.5060973,10.57 C98.9120265,10.57 99.2410973,10.2409293 99.2410973,9.835 L99.2410973,8.735 C99.2410973,8.32907071 98.9120265,8 98.5060973,8 C98.100168,8 97.7710973,8.32907071 97.7710973,8.735 L97.7710973,9.835 C97.7710973,10.2409293 98.100168,10.57 98.5060973,10.57 L98.5060973,10.57 Z M108.158097,9.533 L107.006097,9.533 L107.006097,10.033 C107.006097,10.8614271 106.334524,11.533 105.506097,11.533 C104.67767,11.533 104.006097,10.8614271 104.006097,10.033 L104.006097,9.533 L100.006097,9.533 L100.006097,10.033 C100.006097,10.8614271 99.3345244,11.533 98.5060973,11.533 C97.6776701,11.533 97.0060973,10.8614271 97.0060973,10.033 L97.0060973,9.533 L95.8540973,9.533 C95.3366641,9.53185564 94.8423995,9.74746254 94.4912447,10.1275002 C94.1400899,10.5075379 93.9641418,11.0172694 94.0060973,11.533 L94.0060973,21.533 C94.0060973,22.0852847 94.4538125,22.533 95.0060973,22.533 L109.006097,22.533 C109.558382,22.533 110.006097,22.0852847 110.006097,21.533 L110.006097,11.533 C110.025707,10.4787818 109.210577,9.59660699 108.158097,9.533 L108.158097,9.533 Z M108.006097,20.533 L96.0060973,20.533 L96.0060973,13.533 L108.006097,13.533 L108.006097,20.533 L108.006097,20.533 Z M99.3390973,17.341 C98.9384218,17.6869913 98.5829537,18.0821052 98.2810973,18.517 C98.1067641,18.8023368 97.9975028,19.122609 97.9610973,19.455 L101.256097,19.455 L101.256097,18.582 L99.3890973,18.582 C99.4441349,18.4887499 99.5084622,18.401305 99.5810973,18.321 C99.6597639,18.2316667 99.8477639,18.051 100.145097,17.779 C100.365675,17.5862307 100.571268,17.3769602 100.760097,17.153 C100.915235,16.9635634 101.042211,16.7527221 101.137097,16.527 C101.215999,16.3259948 101.256368,16.1119363 101.256097,15.896 C101.264,15.526897 101.112396,15.1723042 100.840097,14.923 C100.526129,14.6481202 100.116683,14.5076874 99.7000973,14.532 C99.3060833,14.5183261 98.9188349,14.6369649 98.6000973,14.869 C98.2777773,15.1511541 98.0875442,15.5548106 98.0750973,15.983 L99.0060973,16.077 C99.0014237,15.8632561 99.0722392,15.6547043 99.2060973,15.488 C99.4727552,15.2550997 99.869489,15.2517015 100.140097,15.48 C100.260258,15.6110812 100.321667,15.785554 100.310097,15.963 C100.302521,16.1703711 100.232845,16.3706886 100.110097,16.538 C99.8761022,16.8283827 99.6182011,17.0986604 99.3390973,17.346 L99.3390973,17.341 Z M104.046097,19.455 L104.955097,19.455 L104.955097,18.468 L105.565097,18.468 L105.565097,17.646 L104.955097,17.646 L104.955097,14.536 L104.166097,14.536 L102.039097,17.65 L102.039097,18.472 L104.046097,18.472 L104.046097,19.459 L104.046097,19.455 Z M102.919097,17.642 L104.046097,15.966 L104.046097,17.646 L102.919097,17.646 L102.919097,17.642 Z" transform="translate(-94 -8)" opacity=".5"/>
</svg>
