<svg xmlns="http://www.w3.org/2000/svg" width="50" height="36" viewBox="0 0 50 36">
  <path fill="#FFFFFF" fill-rule="evenodd" d="M118.025661,28 C120.424712,28 122.369528,29.9448155 122.369528,32.3438669 L122.369,39 L118.869,39 L118.869528,32.3438669 C118.869528,31.8778121 118.491716,31.5 118.025661,31.5 L88.3438669,31.5 C87.8778121,31.5 87.5,31.8778121 87.5,32.3438669 L87.5,50.2672442 C87.5,50.733299 87.8778121,51.1111111 88.3438669,51.1111111 L92.861968,51.1111111 C93.8284663,51.1111111 94.611968,51.8946128 94.611968,52.8611111 L94.611968,57.5254862 L100.514566,51.6235997 C100.842748,51.2954566 101.287836,51.1111111 101.751928,51.1111111 L103,51.111 L103,54.611 L102.47674,54.6111111 L94.0993303,62.9875114 C92.9968613,64.0898476 91.111968,63.3090327 91.111968,61.75 L91.111968,54.6111111 L88.3438669,54.6111111 C85.9448155,54.6111111 84,52.6662957 84,50.2672442 L84,32.3438669 C84,29.9448155 85.9448155,28 88.3438669,28 L118.025661,28 Z M130.399178,42.4227527 C132.056032,42.4227527 133.399178,43.7658984 133.399178,45.4227527 L133.399178,58.7857719 C133.399178,60.4426262 132.056032,61.7857719 130.399178,61.7857719 L109.429258,61.7857719 C107.772404,61.7857719 106.429258,60.4426262 106.429258,58.7857719 L106.429258,45.4227527 C106.429258,43.7658984 107.772404,42.4227527 109.429258,42.4227527 L130.399178,42.4227527 Z M131.271258,51.4117527 L108.556258,51.4117527 L108.556993,58.5441315 C108.556993,59.0569673 108.943033,59.4796386 109.440372,59.5374037 L109.556993,59.5441315 L130.271443,59.5441315 C130.784279,59.5441315 131.20695,59.1580913 131.264715,58.6607526 L131.271443,58.5441315 L131.271258,51.4117527 Z M115.195022,53.3121999 L115.195022,57.6212461 L110.885976,57.6212461 L110.885976,53.3121999 L115.195022,53.3121999 Z M130.271443,44.6643931 L109.556993,44.6643931 C109.044157,44.6643931 108.621486,45.0504333 108.563721,45.547772 L108.556993,45.6643931 L108.556258,47.9547527 L131.271258,47.9547527 L131.271443,45.6643931 C131.271443,45.1121084 130.823727,44.6643931 130.271443,44.6643931 Z M93.6252967,35.9519293 C94.1193618,35.9519293 94.5906668,36.0104361 95.0392258,36.1274515 C95.4877849,36.2444669 95.956923,36.4091528 96.4466542,36.6215141 L95.7965718,38.1882126 C95.289505,37.9801852 94.8702061,37.8350016 94.5386624,37.7526574 C94.2071188,37.6703132 93.8809974,37.6291417 93.5602885,37.6291417 C93.1789049,37.6291417 92.8863708,37.7179854 92.6826773,37.8956755 C92.4789838,38.0733656 92.3771386,38.305226 92.3771386,38.5912636 C92.3771386,38.7689537 92.41831,38.9238885 92.5006542,39.0560725 C92.5829984,39.1882566 92.714097,39.3161049 92.893954,39.4396211 C93.0738111,39.5631374 93.4996107,39.7852466 94.1713659,40.1059555 C95.0598162,40.5306781 95.6687206,40.9564778 95.9980973,41.3833674 C96.327474,41.8102569 96.4921599,42.333568 96.4921599,42.9533163 C96.4921599,43.8114293 96.1833739,44.4875082 95.5657925,44.9815733 C94.9482112,45.4756383 94.0890276,45.7226672 92.988216,45.7226672 C91.9740824,45.7226672 91.0769777,45.5319782 90.296875,45.1505947 L90.296875,43.2783575 C90.9382928,43.5643951 91.4811061,43.7659187 91.9253313,43.8829341 C92.3695565,43.9999495 92.7758539,44.0584563 93.1442357,44.0584563 C93.586294,44.0584563 93.9254169,43.9739465 94.1616146,43.8049242 C94.3978124,43.6359019 94.5159095,43.3845393 94.5159095,43.0508287 C94.5159095,42.8644708 94.4639035,42.6987014 94.3598898,42.5535156 C94.2558761,42.4083299 94.1031082,42.2685635 93.9015817,42.1342125 C93.7000552,41.9998615 93.2894239,41.7853365 92.6696756,41.490631 C92.0889325,41.217595 91.6533816,40.9553978 91.3630101,40.7040313 C91.0726385,40.4526649 90.8407781,40.1601307 90.6674219,39.8264201 C90.4940658,39.4927095 90.407389,39.102664 90.407389,38.6562719 C90.407389,37.8154945 90.6923389,37.154584 91.2622473,36.6735207 C91.8321557,36.1924573 92.6198309,35.9519293 93.6252967,35.9519293 Z M100.958226,36.0884465 L103.098642,43.006803 C103.050122,43.2475533 103.018896,43.494566 103.006315,43.7464896 L103,44 L103,45.592 L102.238888,45.5926507 L99.9505981,38.136206 L99.8920907,38.136206 C99.9689452,39.551948 100.009934,40.5278529 100.015057,41.0639455 L100.015606,45.5926507 L98.2148782,45.5926507 L98.2148782,36.0884465 L100.958226,36.0884465 Z M108.375666,36.0884465 L108.375,39 L108,39 C107.495677,39 107.008793,39.0746661 106.5498,39.2135469 C106.561524,38.9137435 106.576651,38.5583499 106.59444,38.1492076 L106.535932,38.1492076 L106.137615,39.358362 C105.301034,39.6943376 104.576305,40.2499247 104.034777,40.9537724 L105.632318,36.0884465 L108.375666,36.0884465 Z M113.511316,35.9519293 C114.005381,35.9519293 114.476686,36.0104361 114.925245,36.1274515 C115.373804,36.2444669 115.842942,36.4091528 116.332674,36.6215141 L115.682591,38.1882126 C115.175524,37.9801852 114.756226,37.8350016 114.424682,37.7526574 C114.093138,37.6703132 113.767017,37.6291417 113.446308,37.6291417 C113.064924,37.6291417 112.77239,37.7179854 112.568697,37.8956755 C112.365003,38.0733656 112.263158,38.305226 112.263158,38.5912636 C112.263158,38.7450339 112.293991,38.8817629 112.355658,39.0014537 L110.311966,39.0019628 C110.299594,38.8907536 110.293408,38.7755234 110.293408,38.6562719 C110.293408,37.8154945 110.578358,37.154584 111.148267,36.6735207 C111.718175,36.1924573 112.50585,35.9519293 113.511316,35.9519293 Z" transform="translate(-84 -28)"/>
</svg>
