<svg xmlns="http://www.w3.org/2000/svg" width="44" height="57" viewBox="0 0 44 57">
  <g fill="#FFFFFF" fill-rule="evenodd" transform="translate(.4 .9)">
    <path d="M3.48372501 12.8925518L39.4994496 12.8925518C41.4234578 12.8925518 42.9831746 14.4522686 42.9831746 16.3762768L42.9831746 40.4484903C42.9831746 42.3724985 41.4234578 43.9322153 39.4994496 43.9322153L21.4915873 43.9322153 9.55181657 55.8705475 9.55181657 43.9322153 3.48372501 43.9322153C1.55971682 43.9322153.13686838e-13 42.3724985.13686838e-13 40.4484903L.13686838e-13 16.3762768C.13686838e-13 14.4522686 1.55971682 12.8925518 3.48372501 12.8925518zM32.4879623 31.1200389C34.3049436 31.1200389 35.777898 29.6470845 35.777898 27.8301032 35.777898 26.0131218 34.3049436 24.5401674 32.4879623 24.5401674 30.6709809 24.5401674 29.1980265 26.0131218 29.1980265 27.8301032 29.1980265 29.6470845 30.6709809 31.1200389 32.4879623 31.1200389zM39.5948068 10.3370244L8.70449967 10.3370244 8.20807673 8.33695668 37.0291256.95763414e-12 39.5948068 10.3370244z"/>
  </g>
</svg>
