<svg width="20" height="20" fill="none" xmlns="http://www.w3.org/2000/svg"><path fill-rule="evenodd" clip-rule="evenodd" d="M3.346 6.027a1 1 0 0 1 1-1h11.31a1 1 0 0 1 1 1v7.947a1 1 0 0 1-1 1H4.346a1 1 0 0 1-1-1V6.027Zm1.352 6.266a1.079 1.079 0 0 1 1.34 1.33h7.927a1.08 1.08 0 0 1 1.339-1.33V7.708a1.078 1.078 0 0 1-1.338-1.335h-7.93a1.078 1.078 0 0 1-1.338 1.335v4.585Zm2.28-2.277a3.024 3.024 0 1 1 6.046 0 3.024 3.024 0 0 1-6.047 0Zm2.684-2.182h.688v.456c.307.023.524.092.69.172l.068.034-.194.757-.1-.042-.04-.017a1.547 1.547 0 0 0-.66-.15c-.155 0-.242.034-.288.07a.149.149 0 0 0-.059.123c0 .042.018.086.103.145.089.061.232.125.45.207.31.11.54.24.693.412a.908.908 0 0 1 .222.633c0 .486-.333.894-.91 1.023v.538h-.689v-.491c-.322-.027-.63-.115-.823-.227l-.061-.036.2-.784.107.058c.204.112.49.214.804.214a.59.59 0 0 0 .305-.068c.062-.039.092-.09.092-.156 0-.064-.024-.118-.094-.174a1.298 1.298 0 0 0-.384-.182c-.278-.093-.523-.208-.7-.37a.85.85 0 0 1-.285-.655c0-.482.328-.854.865-.985v-.505Z" fill="#525C69"/></svg>