<svg width="20" height="20" viewBox="0 0 20 20" fill="none" xmlns="http://www.w3.org/2000/svg">
<path fill-rule="evenodd" clip-rule="evenodd" d="M7.58882 12.9277C8.0291 12.2848 8.24923 11.2942 8.24923 9.95588C8.24923 8.66302 8.02211 7.68114 7.56786 7.01024C7.1171 6.33935 6.44971 6.00391 5.56566 6.00391C4.65716 6.00391 3.98453 6.32538 3.54775 6.96831C3.11097 7.60776 2.89258 8.60361 2.89258 9.95588C2.89258 11.2522 3.11621 12.2324 3.56347 12.8963C4.01423 13.5602 4.68162 13.8921 5.56566 13.8921C6.47766 13.8921 7.15205 13.5707 7.58882 12.9277ZM4.74277 11.979C4.58204 11.5702 4.50167 10.8958 4.50167 9.95588C4.50167 9.01593 4.58379 8.34155 4.74801 7.93272C4.91224 7.5204 5.18479 7.31424 5.56566 7.31424C5.93955 7.31424 6.21035 7.5204 6.37807 7.93272C6.54929 8.34155 6.6349 9.01593 6.6349 9.95588C6.6349 10.8853 6.55104 11.5562 6.38331 11.9686C6.21559 12.3809 5.94304 12.587 5.56566 12.587C5.1813 12.587 4.907 12.3844 4.74277 11.979Z" fill="#525C69"/>
<path d="M14.6822 8.89259C15.423 8.89259 16.0117 9.1005 16.4485 9.51631C16.8888 9.93213 17.1089 10.5017 17.1089 11.225C17.1089 12.0811 16.8451 12.7397 16.3175 13.201C15.7899 13.6622 15.0351 13.8928 14.0532 13.8928C13.2514 13.8928 12.5949 13.7708 12.0836 13.5267C12.0243 13.4983 11.9881 13.4376 11.9881 13.372V12.2266C11.9881 12.1598 12.0594 12.1168 12.1196 12.1456C12.3648 12.2628 12.6425 12.3612 12.9525 12.441C13.3194 12.5318 13.6671 12.5773 13.9956 12.5773C14.9844 12.5773 15.4789 12.1719 15.4789 11.3613C15.4789 10.589 14.967 10.2029 13.9432 10.2029C13.758 10.2029 13.5536 10.2221 13.3299 10.2606C13.1421 10.2899 12.9839 10.3217 12.8552 10.356C12.8099 10.3681 12.7616 10.3635 12.7204 10.3413L12.2414 10.0843C12.1798 10.0513 12.1435 9.98505 12.1486 9.91533L12.4163 6.28912C12.4231 6.19668 12.5001 6.12516 12.5928 6.12516H16.4078C16.5056 6.12516 16.5848 6.2044 16.5848 6.30215V7.32141C16.5848 7.41915 16.5056 7.4984 16.4078 7.4984H13.8488L13.7073 9.00266L13.8907 8.96597C14.1039 8.91705 14.3677 8.89259 14.6822 8.89259Z" fill="#525C69"/>
<path d="M8.93831 13.0383C8.93831 12.7448 9.01693 12.5229 9.17417 12.3727C9.33141 12.2224 9.56029 12.1473 9.86079 12.1473C10.1508 12.1473 10.3744 12.2242 10.5317 12.3779C10.6924 12.5317 10.7728 12.7518 10.7728 13.0383C10.7728 13.3144 10.6924 13.5328 10.5317 13.6935C10.3709 13.8507 10.1473 13.9294 9.86079 13.9294C9.56728 13.9294 9.34015 13.8525 9.17942 13.6987C9.01868 13.5415 8.93831 13.3214 8.93831 13.0383Z" fill="#525C69"/>
</svg>
