<svg width="135" height="109" fill="none" xmlns="http://www.w3.org/2000/svg"><path fill-rule="evenodd" clip-rule="evenodd" d="M96.76 2.94a1.469 1.469 0 1 0 0-2.937 1.469 1.469 0 0 0 0 2.937ZM24.295 15.626a3.184 3.184 0 1 0 0-6.367 3.184 3.184 0 0 0 0 6.367Zm0-1.775a1.408 1.408 0 1 0 0-2.817 1.408 1.408 0 0 0 0 2.817ZM8.12 46.705a4.288 4.288 0 1 0 0-8.576 4.288 4.288 0 0 0 0 8.576Zm0-2.238a2.05 2.05 0 1 0 0-4.1 2.05 2.05 0 0 0 0 4.1Zm108.864 56.192a3.053 3.053 0 1 0 0-6.106 3.053 3.053 0 0 0 0 6.106Zm0-1.589a1.464 1.464 0 1 0 0-2.927 1.464 1.464 0 0 0 0 2.927Zm-48.861 9.43c28.995 0 52.5-23.505 52.5-52.5 0-28.994-23.505-52.5-52.5-52.5s-52.5 23.506-52.5 52.5c0 28.995 23.505 52.5 52.5 52.5Zm-52.525-3.669H5.393c-.088 0-.174-.004-.26-.01-2.307-.054-4.16-1.993-4.16-4.376 0-1.161.45-2.275 1.25-3.096.41-.42.894-.747 1.422-.965A4.687 4.687 0 0 1 4.95 92.76a4.436 4.436 0 0 1 3.18-1.352c1.528.002 2.877.788 3.687 1.986.385-.14.8-.217 1.231-.216 1.907.002 3.473 1.496 3.655 3.407 1.827.409 3.195 2.082 3.193 4.082-.002 2.305-1.821 4.173-4.064 4.172a4.54 4.54 0 0 1-.234-.007Zm108.162-81.19h7.243c.055.003.11.005.166.005 1.592 0 2.883-1.273 2.884-2.844.001-1.364-.969-2.505-2.266-2.784-.129-1.303-1.24-2.321-2.594-2.323-.306 0-.6.052-.873.147a3.2 3.2 0 0 0-2.617-1.353c-.847 0-1.658.33-2.257.921a3.128 3.128 0 0 0-.927 2.472 3.03 3.03 0 0 0-1.009.658 2.963 2.963 0 0 0-.887 2.111c0 1.625 1.315 2.947 2.952 2.983.061.005.123.007.185.007Z" fill="#E5F9FF"/><g filter="url(#a)"><circle cx="68.125" cy="56" r="39.754" fill="#fff"/></g><path fill-rule="evenodd" clip-rule="evenodd" d="m64.718 59.683-6.731-6.731-4.759 4.758 11.231 11.231.005-.004.259.259 20.89-20.892-4.758-4.758-16.137 16.137Zm3.404 26.372c-16.6 0-30.056-13.456-30.056-30.055 0-16.6 13.457-30.056 30.056-30.056 16.6 0 30.056 13.457 30.056 30.056 0 16.6-13.457 30.055-30.056 30.055Z" fill="#2FC6F6"/><defs><filter id="a" x="26.371" y="15.246" width="83.508" height="83.507" filterUnits="userSpaceOnUse" color-interpolation-filters="sRGB"><feFlood flood-opacity="0" result="BackgroundImageFix"/><feColorMatrix in="SourceAlpha" values="0 0 0 0 0 0 0 0 0 0 0 0 0 0 0 0 0 0 127 0" result="hardAlpha"/><feOffset dy="1"/><feGaussianBlur stdDeviation="1"/><feComposite in2="hardAlpha" operator="out"/><feColorMatrix values="0 0 0 0 0 0 0 0 0 0 0 0 0 0 0 0 0 0 0.12 0"/><feBlend in2="BackgroundImageFix" result="effect1_dropShadow_981_8103"/><feBlend in="SourceGraphic" in2="effect1_dropShadow_981_8103" result="shape"/></filter></defs></svg>