<svg width="105" height="106" fill="none" xmlns="http://www.w3.org/2000/svg"><path d="M45.327 103.768C17.288 99.805-2.23 73.863 1.734 45.825 5.696 17.786 31.638-1.731 59.676 2.232c28.039 3.962 47.556 29.904 43.594 57.943-3.963 28.038-29.905 47.555-57.943 43.593Z" fill="#fff"/><path fill-rule="evenodd" clip-rule="evenodd" d="M59.512 3.386C32.11-.486 6.758 18.587 2.886 45.988-.986 73.39 18.087 98.742 45.488 102.614c27.401 3.872 52.754-15.201 56.626-42.602C105.987 32.61 86.913 7.258 59.512 3.386ZM.523 45.654C4.58 16.948 31.14-3.034 59.846 1.024c28.706 4.056 48.688 30.616 44.631 59.322-4.057 28.706-30.617 48.688-59.323 44.631C16.448 100.92-3.534 74.36.524 45.654Z" fill="#FFCDCC"/><g filter="url(#a)"><circle cx="52.5" cy="53.611" r="39.754" fill="#fff"/></g><path fill-rule="evenodd" clip-rule="evenodd" d="m43.935 31.179 17.211.03c.435 0 .853.174 1.16.483l12.148 12.19c.308.309.48.727.48 1.162l-.031 17.21c0 .436-.174.853-.483 1.16L62.23 75.563c-.309.307-.727.48-1.162.478l-17.21-.03c-.436 0-.853-.174-1.16-.482L30.548 63.338a1.641 1.641 0 0 1-.479-1.162l.03-17.21c.001-.436.175-.853.483-1.16l12.191-12.149c.308-.307.726-.479 1.161-.478Zm8.567 30.159a4.072 4.072 0 1 0 0 8.143 4.072 4.072 0 0 0 0-8.143Zm3.094-23.053h-6.211a.547.547 0 0 0-.523.506l-.001.064.769 18.531c.011.272.22.491.484.521l.062.004h4.65c.273 0 .5-.2.541-.463l.006-.062.77-18.554a.547.547 0 0 0-.483-.543l-.064-.004Z" fill="#F4433E"/><defs><filter id="a" x="10.746" y="12.857" width="83.508" height="83.507" filterUnits="userSpaceOnUse" color-interpolation-filters="sRGB"><feFlood flood-opacity="0" result="BackgroundImageFix"/><feColorMatrix in="SourceAlpha" values="0 0 0 0 0 0 0 0 0 0 0 0 0 0 0 0 0 0 127 0" result="hardAlpha"/><feOffset dy="1"/><feGaussianBlur stdDeviation="1"/><feComposite in2="hardAlpha" operator="out"/><feColorMatrix values="0 0 0 0 0 0 0 0 0 0 0 0 0 0 0 0 0 0 0.12 0"/><feBlend in2="BackgroundImageFix" result="effect1_dropShadow_981_29986"/><feBlend in="SourceGraphic" in2="effect1_dropShadow_981_29986" result="shape"/></filter></defs></svg>