<svg width="141" height="114" viewBox="0 0 141 114" fill="none" xmlns="http://www.w3.org/2000/svg">
<g opacity="0.7">
<path fill-rule="evenodd" clip-rule="evenodd" d="M101.002 3.41288C101.852 3.41288 102.541 2.72409 102.541 1.87441C102.541 1.02474 101.852 0.335938 101.002 0.335938C100.153 0.335938 99.4639 1.02474 99.4639 1.87441C99.4639 2.72409 100.153 3.41288 101.002 3.41288ZM25.085 16.7034C26.9269 16.7034 28.4201 15.2102 28.4201 13.3682C28.4201 11.5263 26.9269 10.033 25.085 10.033C23.243 10.033 21.7498 11.5263 21.7498 13.3682C21.7498 15.2102 23.243 16.7034 25.085 16.7034ZM25.0853 14.8436C25.9003 14.8436 26.5609 14.1829 26.5609 13.3679C26.5609 12.553 25.9003 11.8923 25.0853 11.8923C24.2703 11.8923 23.6097 12.553 23.6097 13.3679C23.6097 14.1829 24.2703 14.8436 25.0853 14.8436ZM8.14024 49.262C10.6211 49.262 12.6323 47.2509 12.6323 44.77C12.6323 42.2891 10.6211 40.278 8.14024 40.278C5.65936 40.278 3.64821 42.2891 3.64821 44.77C3.64821 47.2509 5.65936 49.262 8.14024 49.262ZM8.1404 46.9178C9.32651 46.9178 10.288 45.9563 10.288 44.7702C10.288 43.584 9.32651 42.6225 8.1404 42.6225C6.95429 42.6225 5.99275 43.584 5.99275 44.7702C5.99275 45.9563 6.95429 46.9178 8.1404 46.9178ZM122.189 105.785C123.956 105.785 125.388 104.353 125.388 102.587C125.388 100.821 123.956 99.3891 122.189 99.3891C120.423 99.3891 118.991 100.821 118.991 102.587C118.991 104.353 120.423 105.785 122.189 105.785ZM122.189 104.121C123.036 104.121 123.723 103.434 123.723 102.587C123.723 101.74 123.036 101.054 122.189 101.054C121.342 101.054 120.655 101.74 120.655 102.587C120.655 103.434 121.342 104.121 122.189 104.121ZM71.0012 114C101.377 114 126.001 89.376 126.001 59.0003C126.001 28.6246 101.377 4.0003 71.0012 4.0003C40.6255 4.0003 16.0012 28.6246 16.0012 59.0003C16.0012 89.376 40.6255 114 71.0012 114ZM15.9748 110.156H5.28272C5.19123 110.156 5.10053 110.152 5.01073 110.146C2.59428 110.089 0.652466 108.058 0.652344 105.562C0.653046 104.345 1.12411 103.178 1.96192 102.318C2.39136 101.877 2.89914 101.535 3.45158 101.307C3.44234 101.183 3.43763 101.058 3.43763 100.932C3.43839 99.6478 3.93546 98.4167 4.81947 97.5093C5.70349 96.6019 6.90204 96.0926 8.15147 96.0933C9.75195 96.0953 11.165 96.9178 12.0142 98.1733C12.4175 98.0264 12.8516 97.9466 13.3038 97.9469C15.3017 97.9493 16.9426 99.5145 17.1328 101.516C19.0471 101.945 20.4796 103.698 20.4779 105.793C20.476 108.208 18.5701 110.164 16.2203 110.163C16.1379 110.163 16.0561 110.161 15.9748 110.156ZM129.287 25.1H136.875C136.933 25.1033 136.991 25.1049 137.049 25.1049C138.717 25.1056 140.07 23.7718 140.071 22.1253C140.072 20.6966 139.056 19.5016 137.697 19.2092C137.562 17.8445 136.397 16.7774 134.98 16.7757C134.659 16.7755 134.351 16.8299 134.064 16.9301C133.462 16.0741 132.459 15.5133 131.323 15.5119C130.436 15.5114 129.586 15.8587 128.959 16.4773C128.331 17.096 127.978 17.9354 127.978 18.8109C127.978 18.897 127.981 18.9823 127.988 19.0667C127.596 19.2224 127.235 19.4553 126.931 19.7559C126.336 20.3423 126.002 21.1378 126.001 21.9675C126.001 23.6698 127.379 25.0544 129.094 25.093C129.158 25.0976 129.222 25.1 129.287 25.1Z" fill="#E5F9FF"/>
<path d="M62.0793 32.6449C62.7205 29.893 65.4711 28.1819 68.2231 28.823L99.8658 36.1954C102.618 36.8365 104.329 39.5872 103.688 42.3391L93.9419 84.1689C93.3008 86.9209 90.5501 88.632 87.7982 87.9908L56.1554 80.6185C53.4035 79.9773 51.6924 77.2267 52.3335 74.4747L62.0793 32.6449Z" fill="white" fill-opacity="0.5"/>
<path fill-rule="evenodd" clip-rule="evenodd" d="M68.1491 29.1347C67.9421 29.0864 67.7352 29.0524 67.5294 29.0319L67.5927 28.3955C67.8259 28.4187 68.0602 28.4573 68.2943 28.5118L68.9028 28.6536L68.7577 29.2764L68.1491 29.1347ZM71.1917 29.8435L69.9747 29.56L70.1198 28.9371L71.3368 29.2207L71.1917 29.8435ZM73.6258 30.4106L72.4087 30.1271L72.5539 29.5042L73.7709 29.7878L73.6258 30.4106ZM76.0598 30.9777L74.8428 30.6942L74.9879 30.0713L76.2049 30.3549L76.0598 30.9777ZM78.4939 31.5448L77.2769 31.2613L77.422 30.6384L78.639 30.922L78.4939 31.5448ZM80.9279 32.1119L79.7109 31.8284L79.856 31.2055L81.0731 31.4891L80.9279 32.1119ZM83.362 32.679L82.145 32.3955L82.2901 31.7726L83.5071 32.0562L83.362 32.679ZM85.7961 33.2462L84.579 32.9626L84.7241 32.3397L85.9412 32.6233L85.7961 33.2462ZM88.2301 33.8133L87.0131 33.5297L87.1582 32.9068L88.3752 33.1904L88.2301 33.8133ZM90.6642 34.3804L89.4471 34.0968L89.5923 33.474L90.8093 33.7575L90.6642 34.3804ZM93.0982 34.9475L91.8812 34.6639L92.0263 34.0411L93.2433 34.3246L93.0982 34.9475ZM95.5323 35.5146L94.3153 35.231L94.4604 34.6082L95.6774 34.8917L95.5323 35.5146ZM97.9663 36.0817L96.7493 35.7981L96.8944 35.1753L98.1115 35.4588L97.9663 36.0817ZM99.7919 36.507L99.1834 36.3652L99.3285 35.7424L99.937 35.8841C100.171 35.9387 100.398 36.0076 100.618 36.0899L100.393 36.6887C100.2 36.6162 99.999 36.5552 99.7919 36.507ZM66.2785 29.0724C65.8622 29.1414 65.4597 29.2649 65.0806 29.4371L64.8162 28.8548C65.2456 28.6598 65.7018 28.5197 66.174 28.4415L66.2785 29.0724ZM102.411 38.1345C102.147 37.8125 101.84 37.5238 101.497 37.2779L101.87 36.7582C102.259 37.037 102.606 37.3643 102.905 37.729L102.411 38.1345ZM64.0169 30.0988C63.6949 30.3628 63.4062 30.6692 63.1603 31.0122L62.6405 30.6395C62.9194 30.2506 63.2467 29.9032 63.6114 29.6042L64.0169 30.0988ZM103.437 40.3961C103.368 39.9799 103.245 39.5773 103.072 39.1982L103.655 38.9338C103.85 39.3632 103.99 39.8194 104.068 40.2916L103.437 40.3961ZM62.5711 32.1164C62.4985 32.31 62.4376 32.5106 62.3894 32.7177L62.246 33.3328L61.6232 33.1877L61.7665 32.5726C61.8211 32.3385 61.89 32.1113 61.9723 31.8919L62.5711 32.1164ZM103.375 42.2668C103.423 42.0597 103.457 41.8528 103.478 41.647L104.114 41.7104C104.091 41.9436 104.052 42.1778 103.998 42.4119L103.854 43.027L103.232 42.8819L103.375 42.2668ZM61.9594 34.5631L61.6728 35.7934L61.0499 35.6483L61.3366 34.418L61.9594 34.5631ZM102.658 45.3425L102.945 44.1122L103.568 44.2573L103.281 45.4876L102.658 45.3425ZM61.3861 37.0237L61.0995 38.254L60.4766 38.1089L60.7633 36.8786L61.3861 37.0237ZM102.085 47.8031L102.372 46.5728L102.995 46.7179L102.708 47.9482L102.085 47.8031ZM60.8128 39.4843L60.5262 40.7146L59.9034 40.5694L60.19 39.3391L60.8128 39.4843ZM101.512 50.2636L101.798 49.0333L102.421 49.1785L102.135 50.4088L101.512 50.2636ZM60.2396 41.9448L59.9529 43.1751L59.3301 43.03L59.6167 41.7997L60.2396 41.9448ZM100.938 52.7242L101.225 51.4939L101.848 51.639L101.561 52.8693L100.938 52.7242ZM59.6663 44.4054L59.3796 45.6357L58.7568 45.4906L59.0434 44.2603L59.6663 44.4054ZM100.365 55.1848L100.652 53.9545L101.275 54.0996L100.988 55.3299L100.365 55.1848ZM59.093 46.866L58.8064 48.0963L58.1835 47.9512L58.4702 46.7209L59.093 46.866ZM99.7919 57.6454L100.079 56.4151L100.701 56.5602L100.415 57.7905L99.7919 57.6454ZM58.5197 49.3266L58.2331 50.5569L57.6102 50.4117L57.8969 49.1815L58.5197 49.3266ZM99.2186 60.1059L99.5053 58.8757L100.128 59.0208L99.8415 60.2511L99.2186 60.1059ZM57.9464 51.7872L57.6598 53.0174L57.0369 52.8723L57.3236 51.642L57.9464 51.7872ZM98.6454 62.5665L98.932 61.3362L99.5549 61.4814L99.2682 62.7116L98.6454 62.5665ZM57.3732 54.2477L57.0865 55.478L56.4637 55.3329L56.7503 54.1026L57.3732 54.2477ZM98.0721 65.0271L98.3587 63.7968L98.9816 63.9419L98.6949 65.1722L98.0721 65.0271ZM56.7999 56.7083L56.5132 57.9386L55.8904 57.7935L56.177 56.5632L56.7999 56.7083ZM97.4988 67.4877L97.7854 66.2574L98.4083 66.4025L98.1216 67.6328L97.4988 67.4877ZM56.2266 59.1689L55.94 60.3992L55.3171 60.2541L55.6037 59.0238L56.2266 59.1689ZM96.9255 69.9483L97.2122 68.718L97.835 68.8631L97.5484 70.0934L96.9255 69.9483ZM55.6533 61.6295L55.3667 62.8598L54.7438 62.7146L55.0305 61.4843L55.6533 61.6295ZM96.3522 72.4088L96.6389 71.1785L97.2617 71.3237L96.9751 72.554L96.3522 72.4088ZM55.08 64.09L54.7934 65.3203L54.1705 65.1752L54.4572 63.9449L55.08 64.09ZM95.779 74.8694L96.0656 73.6391L96.6884 73.7842L96.4018 75.0145L95.779 74.8694ZM54.5068 66.5506L54.2201 67.7809L53.5973 67.6358L53.8839 66.4055L54.5068 66.5506ZM95.2057 77.33L95.4923 76.0997L96.1152 76.2448L95.8285 77.4751L95.2057 77.33ZM53.9335 69.0112L53.6468 70.2415L53.024 70.0964L53.3106 68.8661L53.9335 69.0112ZM94.6324 79.7906L94.919 78.5603L95.5419 78.7054L95.2552 79.9357L94.6324 79.7906ZM53.3602 71.4718L53.0736 72.7021L52.4507 72.5569L52.7373 71.3267L53.3602 71.4718ZM94.0591 82.2511L94.3458 81.0209L94.9686 81.166L94.682 82.3963L94.0591 82.2511ZM52.7869 73.9324L52.6436 74.5475C52.5954 74.7546 52.5613 74.9615 52.5409 75.1672L51.9045 75.1039C51.9277 74.8707 51.9662 74.6365 52.0207 74.4024L52.1641 73.7872L52.7869 73.9324ZM93.6292 84.0966L93.7725 83.4814L94.3953 83.6265L94.252 84.2417C94.1975 84.4758 94.1285 84.7029 94.0463 84.9223L93.4474 84.6979C93.52 84.5043 93.5809 84.3036 93.6292 84.0966ZM52.5813 76.4181C52.6503 76.8344 52.7738 77.2369 52.946 77.616L52.3637 77.8805C52.1687 77.4511 52.0286 76.9948 51.9504 76.5227L52.5813 76.4181ZM92.0016 86.7154C92.3237 86.4515 92.6124 86.145 92.8582 85.8021L93.378 86.1747C93.0991 86.5637 92.7718 86.911 92.4071 87.21L92.0016 86.7154ZM53.6077 78.6798C53.8717 79.0018 54.1782 79.2905 54.5211 79.5363L54.1485 80.0561C53.7595 79.7772 53.4122 79.4499 53.1132 79.0852L53.6077 78.6798ZM89.74 87.7418C90.1563 87.6729 90.5588 87.5494 90.9379 87.3772L91.2024 87.9595C90.7729 88.1545 90.3167 88.2945 89.8445 88.3728L89.74 87.7418ZM55.6253 80.1255C55.8189 80.1981 56.0196 80.259 56.2266 80.3073L56.8351 80.449L56.69 81.0719L56.0815 80.9301C55.8474 80.8756 55.6203 80.8066 55.4008 80.7244L55.6253 80.1255ZM87.8694 87.6796C88.0765 87.7278 88.2834 87.7619 88.4891 87.7823L88.4258 88.4187C88.1926 88.3955 87.9583 88.357 87.7243 88.3024L87.1158 88.1607L87.2609 87.5378L87.8694 87.6796ZM58.0522 80.7326L59.2692 81.0161L59.1241 81.639L57.9071 81.3554L58.0522 80.7326ZM60.4862 81.2997L61.7033 81.5832L61.5581 82.2061L60.3411 81.9225L60.4862 81.2997ZM62.9203 81.8668L64.1373 82.1503L63.9922 82.7732L62.7752 82.4896L62.9203 81.8668ZM65.3543 82.4339L66.5714 82.7174L66.4263 83.3403L65.2092 83.0567L65.3543 82.4339ZM67.7884 83.001L69.0054 83.2845L68.8603 83.9074L67.6433 83.6239L67.7884 83.001ZM70.2225 83.5681L71.4395 83.8517L71.2944 84.4745L70.0773 84.191L70.2225 83.5681ZM72.6565 84.1352L73.8735 84.4188L73.7284 85.0416L72.5114 84.7581L72.6565 84.1352ZM75.0906 84.7023L76.3076 84.9859L76.1625 85.6087L74.9455 85.3252L75.0906 84.7023ZM77.5246 85.2694L78.7417 85.553L78.5965 86.1758L77.3795 85.8923L77.5246 85.2694ZM79.9587 85.8365L81.1757 86.1201L81.0306 86.7429L79.8136 86.4594L79.9587 85.8365ZM82.3928 86.4036L83.6098 86.6872L83.4647 87.31L82.2476 87.0265L82.3928 86.4036ZM84.8268 86.9707L86.0438 87.2543L85.8987 87.8771L84.6817 87.5936L84.8268 86.9707Z" fill="#2FC6F6"/>
<path d="M38.4277 54.5337C37.6964 51.8044 39.3161 48.9989 42.0455 48.2676L73.4286 39.8585C76.158 39.1272 78.9634 40.7469 79.6948 43.4763L89.4033 79.7091C90.1346 82.4385 88.5149 85.2439 85.7856 85.9752L54.4024 94.3843C51.673 95.1157 48.8676 93.4959 48.1363 90.7666L38.4277 54.5337Z" fill="white" fill-opacity="0.5"/>
<path fill-rule="evenodd" clip-rule="evenodd" d="M42.1273 48.576C41.9219 48.6311 41.7234 48.6986 41.5323 48.7774L41.2882 48.1863C41.5048 48.0969 41.7296 48.0205 41.9618 47.9583L42.5653 47.7966L42.7308 48.4143L42.1273 48.576ZM45.1449 47.7675L43.9378 48.0909L43.7723 47.4731L44.9794 47.1497L45.1449 47.7675ZM47.559 47.1206L46.3519 47.444L46.1864 46.8263L47.3935 46.5029L47.559 47.1206ZM49.9731 46.4738L48.766 46.7972L48.6005 46.1794L49.8075 45.856L49.9731 46.4738ZM52.3872 45.8269L51.1801 46.1503L51.0146 45.5326L52.2216 45.2092L52.3872 45.8269ZM54.8012 45.18L53.5942 45.5035L53.4287 44.8857L54.6357 44.5623L54.8012 45.18ZM57.2153 44.5332L56.0083 44.8566L55.8428 44.2389L57.0498 43.9154L57.2153 44.5332ZM59.6294 43.8863L58.4224 44.2098L58.2569 43.592L59.4639 43.2686L59.6294 43.8863ZM62.0435 43.2395L60.8365 43.5629L60.6709 42.9452L61.878 42.6217L62.0435 43.2395ZM64.4576 42.5926L63.2506 42.9161L63.085 42.2983L64.2921 41.9749L64.4576 42.5926ZM66.8717 41.9458L65.6646 42.2692L65.4991 41.6515L66.7062 41.328L66.8717 41.9458ZM69.2858 41.2989L68.0787 41.6224L67.9132 41.0046L69.1203 40.6812L69.2858 41.2989ZM71.6999 40.6521L70.4928 40.9755L70.3273 40.3578L71.5343 40.0343L71.6999 40.6521ZM73.5104 40.1669L72.9069 40.3286L72.7414 39.7109L73.3449 39.5492C73.5771 39.487 73.8099 39.4408 74.0422 39.4099L74.1264 40.0439C73.9215 40.0711 73.7158 40.1119 73.5104 40.1669ZM40.448 49.4026C40.1134 49.6596 39.8166 49.9583 39.5633 50.2888L39.0557 49.8998C39.3425 49.5255 39.6789 49.1869 40.0585 48.8954L40.448 49.4026ZM76.5872 40.3683C76.2027 40.2086 75.7963 40.0984 75.378 40.0432L75.4617 39.4092C75.9362 39.4718 76.3968 39.5968 76.8324 39.7776L76.5872 40.3683ZM38.937 51.3737C38.7773 51.7583 38.6671 52.1646 38.6119 52.583L37.9779 52.4992C38.0405 52.0247 38.1655 51.5642 38.3463 51.1286L38.937 51.3737ZM78.5583 41.8793C78.3013 41.5447 78.0027 41.2479 77.6722 40.9946L78.0611 40.487C78.4355 40.7738 78.774 41.1102 79.0655 41.4898L78.5583 41.8793ZM38.6126 53.8345C38.6398 54.0395 38.6806 54.2452 38.7356 54.4505L38.8974 55.0544L38.2797 55.2199L38.1179 54.6161C38.0557 54.3839 38.0095 54.1511 37.9786 53.9187L38.6126 53.8345ZM79.3849 43.5586C79.3299 43.3532 79.2624 43.1547 79.1835 42.9636L79.7747 42.7195C79.8641 42.9361 79.9405 43.1609 80.0027 43.3931L80.1645 43.9969L79.5468 44.1625L79.3849 43.5586ZM39.2211 56.2622L39.5447 57.4699L38.9269 57.6354L38.6033 56.4277L39.2211 56.2622ZM80.194 46.578L79.8704 45.3702L80.4881 45.2047L80.8117 46.4125L80.194 46.578ZM39.8683 58.6777L40.1919 59.8854L39.5742 60.051L39.2506 58.8432L39.8683 58.6777ZM80.8412 48.9935L80.5176 47.7857L81.1353 47.6202L81.459 48.828L80.8412 48.9935ZM40.5155 61.0932L40.8392 62.301L40.2214 62.4665L39.8978 61.2587L40.5155 61.0932ZM81.4885 51.409L81.1648 50.2013L81.7826 50.0357L82.1062 51.2435L81.4885 51.409ZM41.1628 63.5087L41.4864 64.7165L40.8686 64.882L40.545 63.6743L41.1628 63.5087ZM82.1357 53.8246L81.8121 52.6168L82.4298 52.4513L82.7534 53.659L82.1357 53.8246ZM41.81 65.9243L42.1336 67.132L41.5159 67.2975L41.1923 66.0898L41.81 65.9243ZM82.7829 56.2401L82.4593 55.0323L83.0771 54.8668L83.4007 56.0745L82.7829 56.2401ZM42.4572 68.3398L42.7809 69.5475L42.1631 69.7131L41.8395 68.5053L42.4572 68.3398ZM83.4302 58.6556L83.1066 57.4478L83.7243 57.2823L84.0479 58.4901L83.4302 58.6556ZM43.1045 70.7553L43.4281 71.9631L42.8104 72.1286L42.4867 70.9208L43.1045 70.7553ZM84.0774 61.0711L83.7538 59.8634L84.3715 59.6978L84.6952 60.9056L84.0774 61.0711ZM84.7246 63.4866L84.401 62.2789L85.0188 62.1134L85.3424 63.3211L84.7246 63.4866ZM43.7517 73.1708L44.0753 74.3786L43.4576 74.5441L43.134 73.3364L43.7517 73.1708ZM44.399 75.5864L44.7226 76.7941L44.1048 76.9596L43.7812 75.7519L44.399 75.5864ZM85.3719 65.9022L85.0483 64.6944L85.666 64.5289L85.9896 65.7366L85.3719 65.9022ZM45.0462 78.0019L45.3698 79.2096L44.7521 79.3752L44.4285 78.1674L45.0462 78.0019ZM86.0191 68.3177L85.6955 67.1099L86.3132 66.9444L86.6369 68.1522L86.0191 68.3177ZM45.6934 80.4174L46.0171 81.6252L45.3993 81.7907L45.0757 80.5829L45.6934 80.4174ZM86.6664 70.7332L86.3427 69.5255L86.9605 69.3599L87.2841 70.5677L86.6664 70.7332ZM46.3407 82.8329L46.6643 84.0407L46.0465 84.2062L45.7229 82.9984L46.3407 82.8329ZM87.3136 73.1487L86.99 71.941L87.6077 71.7755L87.9313 72.9832L87.3136 73.1487ZM46.9879 85.2484L47.3115 86.4562L46.6938 86.6217L46.3702 85.414L46.9879 85.2484ZM87.9608 75.5643L87.6372 74.3565L88.255 74.191L88.5786 75.3987L87.9608 75.5643ZM47.6351 87.664L47.9588 88.8717L47.341 89.0372L47.0174 87.8295L47.6351 87.664ZM88.6081 77.9798L88.2845 76.772L88.9022 76.6065L89.2258 77.8143L88.6081 77.9798ZM48.2824 90.0795L48.4442 90.6834C48.4992 90.8887 48.5667 91.0873 48.6456 91.2784L48.0545 91.5224C47.965 91.3058 47.8887 91.081 47.8264 90.8489L47.6646 90.245L48.2824 90.0795ZM89.0935 79.7914L88.9317 79.1875L89.5494 79.022L89.7112 79.6259C89.7735 79.8581 89.8197 80.0909 89.8505 80.3232L89.2166 80.4074C89.1893 80.2025 89.1485 79.9968 89.0935 79.7914ZM49.2708 92.3626C49.5278 92.6973 49.8264 92.9941 50.157 93.2473L49.768 93.755C49.3936 93.4681 49.0551 93.1317 48.7636 92.7521L49.2708 92.3626ZM88.8922 82.8682C89.0518 82.4837 89.162 82.0773 89.2172 81.659L89.8513 81.7427C89.7886 82.2172 89.6636 82.6778 89.4828 83.1134L88.8922 82.8682ZM51.2419 93.8737C51.6265 94.0333 52.0328 94.1435 52.4511 94.1988L52.3674 94.8328C51.8929 94.7701 51.4323 94.6452 50.9967 94.4644L51.2419 93.8737ZM87.3811 84.8393C87.7157 84.5823 88.0125 84.2837 88.2658 83.9532L88.7734 84.3421C88.4866 84.7165 88.1502 85.055 87.7706 85.3465L87.3811 84.8393ZM53.7027 94.1981C53.9077 94.1709 54.1133 94.13 54.3187 94.075L54.9222 93.9133L55.0877 94.531L54.4842 94.6928C54.2521 94.755 54.0192 94.8012 53.7869 94.832L53.7027 94.1981ZM85.7019 85.6659C85.9072 85.6109 86.1057 85.5434 86.2969 85.4645L86.5409 86.0556C86.3243 86.1451 86.0995 86.2215 85.8674 86.2837L85.2639 86.4454L85.0983 85.8276L85.7019 85.6659ZM56.1293 93.5899L57.3363 93.2664L57.5018 93.8842L56.2948 94.2076L56.1293 93.5899ZM58.5434 92.943L59.7504 92.6196L59.9159 93.2373L58.7089 93.5608L58.5434 92.943ZM60.9574 92.2962L62.1645 91.9727L62.33 92.5905L61.123 92.9139L60.9574 92.2962ZM63.3715 91.6493L64.5786 91.3259L64.7441 91.9436L63.5371 92.2671L63.3715 91.6493ZM65.7856 91.0025L66.9927 90.679L67.1582 91.2968L65.9511 91.6202L65.7856 91.0025ZM68.1997 90.3556L69.4068 90.0322L69.5723 90.6499L68.3652 90.9734L68.1997 90.3556ZM70.6138 89.7088L71.8208 89.3853L71.9864 90.0031L70.7793 90.3265L70.6138 89.7088ZM73.0279 89.0619L74.2349 88.7385L74.4005 89.3562L73.1934 89.6796L73.0279 89.0619ZM75.442 88.415L76.649 88.0916L76.8145 88.7094L75.6075 89.0328L75.442 88.415ZM77.8561 87.7682L79.0631 87.4448L79.2286 88.0625L78.0216 88.3859L77.8561 87.7682ZM80.2702 87.1213L81.4772 86.7979L81.6427 87.4157L80.4357 87.7391L80.2702 87.1213ZM82.6842 86.4745L83.8913 86.1511L84.0568 86.7688L82.8498 87.0922L82.6842 86.4745Z" fill="#2FC6F6"/>
<g filter="url(#filter0_d_408_54118)">
<path d="M45.416 30.8597C45.416 28.7404 47.134 27.0225 49.2532 27.0225H92.7416C94.8608 27.0225 96.5788 28.7404 96.5788 30.8597V87.7783C96.5788 89.8975 94.8608 91.6155 92.7416 91.6155H49.2532C47.134 91.6155 45.416 89.8975 45.416 87.7783V30.8597Z" fill="#2FC6F6"/>
</g>
<g filter="url(#filter1_d_408_54118)">
<path d="M46.6953 30.2202C46.6953 28.8074 47.8406 27.6621 49.2535 27.6621H92.7418C94.1547 27.6621 95.3 28.8074 95.3 30.2202V87.7784C95.3 89.1912 94.1547 90.3365 92.7418 90.3365H49.2535C47.8406 90.3365 46.6953 89.1912 46.6953 87.7784V30.2202Z" fill="white"/>
</g>
<g filter="url(#filter2_d_408_54118)">
<path fill-rule="evenodd" clip-rule="evenodd" d="M92.7418 28.3016H49.2535C48.1938 28.3016 47.3348 29.1606 47.3348 30.2202V87.7784C47.3348 88.838 48.1938 89.697 49.2535 89.697H92.7418C93.8014 89.697 94.6604 88.838 94.6604 87.7784V30.2202C94.6604 29.1606 93.8014 28.3016 92.7418 28.3016ZM49.2535 27.6621C47.8406 27.6621 46.6953 28.8074 46.6953 30.2202V87.7784C46.6953 89.1912 47.8406 90.3365 49.2535 90.3365H92.7418C94.1546 90.3365 95.3 89.1912 95.3 87.7784V30.2202C95.3 28.8074 94.1547 27.6621 92.7418 27.6621H49.2535Z" fill="#7FDEFC"/>
</g>
<g filter="url(#filter3_d_408_54118)">
<path d="M46.6953 30.2202C46.6953 28.8074 47.8406 27.6621 49.2535 27.6621H70.9976H81.8697H92.7418C94.1547 27.6621 95.3 28.8074 95.3 30.2202V37.0952V43.9703V57.7203V85.2203C95.3 86.6331 94.1547 87.7784 92.7418 87.7784H49.2535C47.8406 87.7784 46.6953 86.6331 46.6953 85.2203V30.2202Z" fill="white"/>
</g>
<g filter="url(#filter4_d_408_54118)">
<path fill-rule="evenodd" clip-rule="evenodd" d="M92.7418 28.3016H49.2535C48.1938 28.3016 47.3348 29.1606 47.3348 30.2202V85.2203C47.3348 86.2799 48.1938 87.1389 49.2535 87.1389H92.7418C93.8014 87.1389 94.6604 86.2799 94.6604 85.2203V30.2202C94.6604 29.1606 93.8014 28.3016 92.7418 28.3016ZM49.2535 27.6621C47.8406 27.6621 46.6953 28.8074 46.6953 30.2202V85.2203C46.6953 86.6331 47.8406 87.7784 49.2535 87.7784H92.7418C94.1546 87.7784 95.3 86.6331 95.3 85.2203V30.2202C95.3 28.8074 94.1547 27.6621 92.7418 27.6621H49.2535Z" fill="#2FC6F6"/>
</g>
<path d="M52.4531 40.4519C52.4531 39.7455 53.0258 39.1729 53.7322 39.1729H85.7089C86.4154 39.1729 86.988 39.7455 86.988 40.4519C86.988 41.1583 86.4154 41.731 85.7089 41.731H53.7322C53.0258 41.731 52.4531 41.1583 52.4531 40.4519Z" fill="#C3F0FF"/>
<path d="M52.4531 46.8474C52.4531 46.141 53.0258 45.5684 53.7322 45.5684H85.7089C86.4154 45.5684 86.988 46.141 86.988 46.8474C86.988 47.5538 86.4154 48.1265 85.7089 48.1265H53.7322C53.0258 48.1265 52.4531 47.5538 52.4531 46.8474Z" fill="#C3F0FF"/>
<path d="M52.4531 53.2429C52.4531 52.5365 53.0258 51.9639 53.7322 51.9639H65.2438C65.9502 51.9639 66.5229 52.5365 66.5229 53.2429C66.5229 53.9493 65.9502 54.522 65.2438 54.522H53.7322C53.0258 54.522 52.4531 53.9493 52.4531 53.2429Z" fill="#C3F0FF"/>
<path d="M52.4531 59.6384C52.4531 58.932 53.0258 58.3594 53.7322 58.3594H81.8717C82.5781 58.3594 83.1508 58.932 83.1508 59.6384C83.1508 60.3449 82.5781 60.9175 81.8717 60.9175H53.7322C53.0258 60.9175 52.4531 60.3449 52.4531 59.6384Z" fill="#C3F0FF"/>
<path d="M52.4531 66.033C52.4531 65.3266 53.0258 64.7539 53.7322 64.7539H67.802C68.5084 64.7539 69.081 65.3266 69.081 66.033C69.081 66.7394 68.5084 67.312 67.802 67.312H53.7322C53.0258 67.312 52.4531 66.7394 52.4531 66.033Z" fill="#C3F0FF"/>
<path d="M52.4531 80.1033C52.4531 79.3969 53.0258 78.8242 53.7322 78.8242H71.6392C72.3456 78.8242 72.9182 79.3969 72.9182 80.1033C72.9182 80.8097 72.3456 81.3824 71.6392 81.3824H53.7322C53.0258 81.3824 52.4531 80.8097 52.4531 80.1033Z" fill="#C3F0FF"/>
</g>
<defs>
<filter id="filter0_d_408_54118" x="41.2352" y="24.932" width="59.5238" height="72.9544" filterUnits="userSpaceOnUse" color-interpolation-filters="sRGB">
<feFlood flood-opacity="0" result="BackgroundImageFix"/>
<feColorMatrix in="SourceAlpha" type="matrix" values="0 0 0 0 0 0 0 0 0 0 0 0 0 0 0 0 0 0 127 0" result="hardAlpha"/>
<feOffset dy="2.09042"/>
<feGaussianBlur stdDeviation="2.09042"/>
<feComposite in2="hardAlpha" operator="out"/>
<feColorMatrix type="matrix" values="0 0 0 0 0.392157 0 0 0 0 0.427451 0 0 0 0 0.482353 0 0 0 0.1 0"/>
<feBlend mode="normal" in2="BackgroundImageFix" result="effect1_dropShadow_408_54118"/>
<feBlend mode="normal" in="SourceGraphic" in2="effect1_dropShadow_408_54118" result="shape"/>
</filter>
<filter id="filter1_d_408_54118" x="39.3151" y="21.7336" width="63.3659" height="77.4353" filterUnits="userSpaceOnUse" color-interpolation-filters="sRGB">
<feFlood flood-opacity="0" result="BackgroundImageFix"/>
<feColorMatrix in="SourceAlpha" type="matrix" values="0 0 0 0 0 0 0 0 0 0 0 0 0 0 0 0 0 0 127 0" result="hardAlpha"/>
<feOffset dy="1.45174"/>
<feGaussianBlur stdDeviation="3.69012"/>
<feComposite in2="hardAlpha" operator="out"/>
<feColorMatrix type="matrix" values="0 0 0 0 0.392157 0 0 0 0 0.427451 0 0 0 0 0.482353 0 0 0 0.16 0"/>
<feBlend mode="normal" in2="BackgroundImageFix" result="effect1_dropShadow_408_54118"/>
<feBlend mode="normal" in="SourceGraphic" in2="effect1_dropShadow_408_54118" result="shape"/>
</filter>
<filter id="filter2_d_408_54118" x="39.3151" y="21.7336" width="63.3659" height="77.4353" filterUnits="userSpaceOnUse" color-interpolation-filters="sRGB">
<feFlood flood-opacity="0" result="BackgroundImageFix"/>
<feColorMatrix in="SourceAlpha" type="matrix" values="0 0 0 0 0 0 0 0 0 0 0 0 0 0 0 0 0 0 127 0" result="hardAlpha"/>
<feOffset dy="1.45174"/>
<feGaussianBlur stdDeviation="3.69012"/>
<feComposite in2="hardAlpha" operator="out"/>
<feColorMatrix type="matrix" values="0 0 0 0 0.392157 0 0 0 0 0.427451 0 0 0 0 0.482353 0 0 0 0.16 0"/>
<feBlend mode="normal" in2="BackgroundImageFix" result="effect1_dropShadow_408_54118"/>
<feBlend mode="normal" in="SourceGraphic" in2="effect1_dropShadow_408_54118" result="shape"/>
</filter>
<filter id="filter3_d_408_54118" x="39.3151" y="21.7336" width="63.3659" height="74.8767" filterUnits="userSpaceOnUse" color-interpolation-filters="sRGB">
<feFlood flood-opacity="0" result="BackgroundImageFix"/>
<feColorMatrix in="SourceAlpha" type="matrix" values="0 0 0 0 0 0 0 0 0 0 0 0 0 0 0 0 0 0 127 0" result="hardAlpha"/>
<feOffset dy="1.45174"/>
<feGaussianBlur stdDeviation="3.69012"/>
<feComposite in2="hardAlpha" operator="out"/>
<feColorMatrix type="matrix" values="0 0 0 0 0.392157 0 0 0 0 0.427451 0 0 0 0 0.482353 0 0 0 0.16 0"/>
<feBlend mode="normal" in2="BackgroundImageFix" result="effect1_dropShadow_408_54118"/>
<feBlend mode="normal" in="SourceGraphic" in2="effect1_dropShadow_408_54118" result="shape"/>
</filter>
<filter id="filter4_d_408_54118" x="39.3151" y="21.7336" width="63.3659" height="74.8767" filterUnits="userSpaceOnUse" color-interpolation-filters="sRGB">
<feFlood flood-opacity="0" result="BackgroundImageFix"/>
<feColorMatrix in="SourceAlpha" type="matrix" values="0 0 0 0 0 0 0 0 0 0 0 0 0 0 0 0 0 0 127 0" result="hardAlpha"/>
<feOffset dy="1.45174"/>
<feGaussianBlur stdDeviation="3.69012"/>
<feComposite in2="hardAlpha" operator="out"/>
<feColorMatrix type="matrix" values="0 0 0 0 0.392157 0 0 0 0 0.427451 0 0 0 0 0.482353 0 0 0 0.16 0"/>
<feBlend mode="normal" in2="BackgroundImageFix" result="effect1_dropShadow_408_54118"/>
<feBlend mode="normal" in="SourceGraphic" in2="effect1_dropShadow_408_54118" result="shape"/>
</filter>
</defs>
</svg>
