<svg width="691" height="511" viewBox="0 0 691 511" fill="none" xmlns="http://www.w3.org/2000/svg"><path opacity="0.362677" fill-rule="evenodd" clip-rule="evenodd" d="M625.915 508.598C625.538 508.598 625.164 508.584 624.794 508.557C614.839 508.328 606.84 500.106 606.839 489.997C606.842 485.07 608.783 480.346 612.234 476.864C614.003 475.079 616.095 473.696 618.371 472.771C618.333 472.27 618.314 471.763 618.314 471.252C618.317 466.053 620.364 461.069 624.006 457.395C627.648 453.721 632.586 451.659 637.733 451.662C644.326 451.67 650.147 455 653.646 460.083C655.307 459.489 657.095 459.166 658.959 459.167C667.189 459.177 673.949 465.514 674.732 473.617C682.618 475.354 688.52 482.45 688.513 490.934C688.505 500.711 680.653 508.632 670.973 508.628C670.634 508.628 670.297 508.618 669.962 508.598H625.915Z" stroke="#EDEEF0" stroke-width="4"></path><path opacity="0.062407" fill-rule="evenodd" clip-rule="evenodd" d="M344.296 376.132C344.724 376.132 345.148 376.117 345.568 376.085C356.861 375.826 365.936 366.514 365.937 355.066C365.933 349.486 363.732 344.135 359.816 340.192C357.809 338.171 355.436 336.604 352.854 335.557C352.897 334.989 352.919 334.416 352.919 333.837C352.916 327.949 350.593 322.304 346.461 318.143C342.33 313.982 336.729 311.647 330.889 311.65C323.409 311.66 316.806 315.431 312.837 321.188C310.952 320.514 308.923 320.148 306.81 320.149C297.473 320.161 289.804 327.338 288.915 336.515C279.969 338.482 273.274 346.518 273.282 356.127C273.291 367.2 282.198 376.17 293.18 376.166C293.565 376.166 293.947 376.154 294.327 376.132H344.296Z" fill="#2FC6F6"></path><path opacity="0.062407" fill-rule="evenodd" clip-rule="evenodd" d="M60.3967 167.496C60.0736 167.496 59.7533 167.484 59.4363 167.46C50.9035 167.264 44.0468 160.231 44.0464 151.583C44.0489 147.369 45.7122 143.328 48.6706 140.349C50.187 138.822 51.98 137.639 53.9308 136.848C53.8981 136.419 53.8815 135.986 53.8815 135.549C53.8842 131.102 55.6394 126.838 58.7609 123.695C61.8824 120.552 66.1147 118.788 70.5265 118.791C76.1779 118.798 81.1675 121.647 84.1661 125.995C85.5901 125.486 87.123 125.21 88.72 125.211C95.7746 125.219 101.569 130.64 102.24 137.572C109 139.057 114.058 145.128 114.052 152.385C114.045 160.749 107.315 167.524 99.0182 167.521C98.7273 167.521 98.4383 167.512 98.1515 167.496H60.3967Z" fill="#2FC6F6"></path><path opacity="0.062407" fill-rule="evenodd" clip-rule="evenodd" d="M29.4571 22.6925C29.3115 22.6925 29.167 22.6871 29.024 22.6765C25.1759 22.5882 22.0837 19.4183 22.0835 15.5209C22.0846 13.6213 22.8348 11.8 24.1689 10.4575C24.8528 9.76943 25.6614 9.23605 26.5412 8.87973C26.5264 8.68643 26.5189 8.4911 26.5189 8.294C26.5202 6.28965 27.3117 4.36789 28.7195 2.95146C30.1272 1.53504 32.0359 0.739991 34.0255 0.741212C36.5742 0.744343 38.8244 2.02827 40.1767 3.98793C40.8189 3.75872 41.5102 3.63414 42.2304 3.63452C45.4119 3.63838 48.0249 6.08153 48.3279 9.2059C51.3763 9.87539 53.6575 12.6112 53.6548 15.8822C53.6517 19.6517 50.6166 22.7054 46.8747 22.7039C46.7435 22.7038 46.6132 22.7 46.4838 22.6925H29.4571Z" fill="#2FC6F6"></path><path opacity="0.062407" fill-rule="evenodd" clip-rule="evenodd" d="M650.588 190.158C650.443 190.158 650.298 190.153 650.155 190.142C646.307 190.054 643.215 186.884 643.215 182.987C643.216 181.087 643.966 179.266 645.3 177.923C645.984 177.235 646.793 176.702 647.672 176.346C647.658 176.152 647.65 175.957 647.65 175.76C647.651 173.755 648.443 171.834 649.851 170.417C651.259 169.001 653.167 168.206 655.157 168.207C657.706 168.21 659.956 169.494 661.308 171.454C661.95 171.225 662.642 171.1 663.362 171.1C666.543 171.104 669.156 173.547 669.459 176.672C672.508 177.341 674.789 180.077 674.786 183.348C674.783 187.118 671.748 190.171 668.006 190.17C667.875 190.17 667.745 190.166 667.615 190.158H650.588Z" fill="#2FC6F6"></path><path opacity="0.062407" fill-rule="evenodd" clip-rule="evenodd" d="M10.7455 413.213C10.5492 413.213 10.3545 413.206 10.1618 413.191C4.97521 413.073 0.807391 408.813 0.807129 403.576C0.808637 401.023 1.81971 398.576 3.61793 396.772C4.53967 395.847 5.62953 395.131 6.81527 394.652C6.79544 394.392 6.78533 394.13 6.78533 393.865C6.78697 391.172 7.85384 388.589 9.75125 386.686C11.6487 384.783 14.2212 383.714 16.9029 383.716C20.3381 383.72 23.371 385.445 25.1936 388.079C26.0592 387.771 26.991 387.603 27.9617 387.604C32.2497 387.609 35.7717 390.892 36.18 395.09C40.2887 395.99 43.3634 399.666 43.3598 404.062C43.3556 409.127 39.2648 413.23 34.2214 413.228C34.0446 413.228 33.8689 413.223 33.6945 413.213H10.7455Z" fill="#2FC6F6"></path></svg>