<svg width="375" height="127" viewBox="0 0 375 127" fill="none" xmlns="http://www.w3.org/2000/svg">
<g opacity="0.52">
<path d="M101.802 25.7939L94.156 29.9828L92.8045 27.6039L100.451 23.415L101.802 25.7939Z" fill="white"/>
<path d="M53.9874 3.75879L48.2837 16.5876L44.0001 15.4513L49.7037 2.62237L53.9874 3.75879Z" fill="#F5CD0B"/>
<path d="M24.6503 -12.0981L30.8319 0.761704L27.1179 1.84363L20.9362 -11.0162L24.6503 -12.0981Z" fill="#F169B3"/>
<path d="M18.6747 38.1293L13.6114 48.915L10.7917 47.1103L15.855 36.3244L18.6747 38.1293Z" fill="#2DBEEC"/>
<path d="M9.1094 2.05917L6.83009 14.5412L3.09708 13.5687L5.37755 1.08689L9.1094 2.05917Z" fill="#29B54B"/>
<path d="M64.5104 19.9594L75.5756 23.7077L74.0794 26.9057L63.0142 23.1573L64.5104 19.9594Z" fill="#B6D40C"/>
<path d="M99.6197 11.5714L103.759 20.647L100.895 21.5866L96.7553 12.511L99.6197 11.5714Z" fill="#2DBEEC"/>
<path d="M194.51 -0.0406761L205.575 3.70762L204.079 6.90561L193.014 3.15725L194.51 -0.0406761Z" fill="#B6D40C"/>
<path d="M128.897 25.7295L126.855 36.3222L123.532 35.6902L125.574 25.0975L128.897 25.7295Z" fill="white"/>
<path d="M52.1322 55L59.9569 71.3045L55.067 74.742L47.2421 58.4374L52.1322 55Z" fill="#F5CD0B"/>
<path d="M17.1882 71.2357L33.5759 75.5978L31.7719 79.8016L15.3842 75.4395L17.1882 71.2357Z" fill="#F169B3"/>
<path d="M37.8114 110.226L24.726 117.886L22.7887 113.723L35.8742 106.063L37.8114 110.226Z" fill="#2DBEEC"/>
<path d="M137.811 0.22621L124.726 7.88602L122.789 3.72273L135.874 -3.93716L137.811 0.22621Z" fill="#2DBEEC"/>
<path d="M-2.2326 78.5093L7.61556 90.5172L3.96097 93.1227L-5.88607 81.1139L-2.2326 78.5093Z" fill="#29B54B"/>
<path d="M338.122 -1.97576L345.122 7.3783L342.078 9.16778L335.078 -0.186361L338.122 -1.97576Z" fill="#B6D40C"/>
<path d="M282.596 3.2616L277.581 12.8122L274.582 11.2464L279.598 1.69585L282.596 3.2616Z" fill="white"/>
<path d="M258.218 -19.0002L260.998 -1.12933L255.324 0.748135L252.544 -17.1228L258.218 -19.0002Z" fill="#F5CD0B"/>
<path d="M218.674 -15.7016L233.102 -6.78882L230.16 -3.28572L215.732 -12.1985L218.674 -15.7016Z" fill="#F169B3"/>
<path d="M289.089 14.161L291.005 29.2026L286.415 29.3519L284.5 14.3101L289.089 14.161Z" fill="#2DBEEC"/>
<path d="M100.676 -10.7579L94.2 3.35863L90.2563 1.21604L96.7331 -12.8999L100.676 -10.7579Z" fill="#29B54B"/>
<path d="M44.3955 34.629L45.0439 45.4087L42.1478 45.0627L41.4995 34.2831L44.3955 34.629Z" fill="#1DCEC4"/>
<path d="M79.3858 43.3212L70.2479 49.0764L69.1577 46.3711L78.2955 40.6161L79.3858 43.3212Z" fill="#F169B3"/>
<path d="M250.444 19.0528L245.326 9.5435L248.099 8.64045L253.217 18.1497L250.444 19.0528Z" fill="#B6D40C"/>
<path d="M154.026 12.0198L166.499 10.8989L166.197 14.2679L153.724 15.3888L154.026 12.0198Z" fill="#F5CD0B"/>
<path d="M375.06 76.3887L362.056 84.5809L358.68 80.7846L371.684 72.5922L375.06 76.3887Z" fill="#F5CD0B"/>
<path d="M365.053 36.6424L358.598 50.0278L355.279 47.783L361.735 34.3976L365.053 36.6424Z" fill="#F169B3"/>
<path d="M319.88 47.0382L309.449 53.2132L307.885 49.8907L318.316 43.7157L319.88 47.0382Z" fill="#1DCEC4"/>
<path d="M325.425 12.2346L314.623 23.3928L311.618 20.0588L322.421 8.90164L325.425 12.2346Z" fill="#29B54B"/>
<path d="M273.584 -1.96255L267.452 12.3056L263.459 10.2567L269.592 -4.01082L273.584 -1.96255Z" fill="#F169B3"/>
<path d="M227.078 -4.83952L228.743 7.22723L225.231 7.46978L223.568 -4.59705L227.078 -4.83952Z" fill="#2DBEEC"/>
<path d="M291.011 -4.86272L280.216 -4.73385L280.7 -7.61071L291.496 -7.73949L291.011 -4.86272Z" fill="#1DCEC4"/>
<path d="M354.21 13.664L365.823 12.3909L365.817 15.9216L354.204 17.1946L354.21 13.664Z" fill="#B6D40C"/>
<path d="M373.298 0.87207L375.917 11.337L372.638 12.1671L370.019 1.70216L373.298 0.87207Z" fill="white"/>
<path d="M328.389 66.6956L340.091 64.6187L340.188 67.8231L328.487 69.8999L328.389 66.6956Z" fill="#F169B3"/>
<path d="M335.182 88.4872L335.373 99.6147L332.013 99.356L331.821 88.2285L335.182 88.4872Z" fill="#2DBEEC"/>
<path d="M364.202 111.333L378.198 118.061L375.984 121.966L361.989 115.236L364.202 111.333Z" fill="#29B54B"/>
</g>
</svg>
