<svg width="19" height="19" viewBox="0 0 19 19" fill="none" xmlns="http://www.w3.org/2000/svg">
	<g clip-path="url(#clip0_2_23)">
		<g clip-path="url(#clip1_2_23)">
			<path fill-rule="evenodd" clip-rule="evenodd" d="M7.1 -24.2H4.3C4.1 -24.2 3.9 -24 3.9 -23.8V-14.9C3.9 -14.7 4.1 -14.5 4.3 -14.5H7.1C7.3 -14.5 7.5 -14.7 7.5 -14.9V-23.8C7.4 -24.1 7.2 -24.2 7.1 -24.2ZM12.1 -24.2H9.3C9.1 -24.2 8.9 -24 8.9 -23.8V-14.9C8.9 -14.7 9.1 -14.5 9.3 -14.5H12.1C12.3 -14.5 12.5 -14.7 12.5 -14.9V-23.8C12.5 -24.1 12.3 -24.2 12.1 -24.2ZM13.8 2.79999L13.7 2.69999H2.6C2.5 2.69999 2.4 2.79999 2.4 2.89999V15.3C2.4 15.4 2.5 15.5 2.6 15.5H3.2C3.3 15.5 3.4 15.4 3.4 15.3V10.3H13.6C13.7 10.3 13.8 10.2 13.8 10.1V2.89999C13.9 2.89999 13.9 2.79999 13.8 2.79999ZM13 5.49999H11.1V7.39999H13V9.29999H11.1V7.39999H9.1V9.29999H7.2V7.39999H5.3V9.29999H3.4V7.39999H5.3V5.49999H3.4V3.59999H5.3V5.49999H7.2V3.59999H9.1V5.49999H11V3.59999H13V5.49999ZM7.2 5.49999V7.39999H9.1V5.49999H7.2ZM6 27V36.3C6 36.5 6.3 36.6 6.5 36.5L11.5 31.8C11.6 31.7 11.6 31.5 11.5 31.4L6.5 26.8C6.3 26.6 6 26.7 6 27Z" fill="#555555"/>
		</g>
	</g>
	<defs>
		<clipPath id="clip0_2_23">
			<rect width="19" height="19" fill="white"/>
		</clipPath>
		<clipPath id="clip1_2_23">
			<rect width="19" height="544" fill="white" transform="translate(0 -49)"/>
		</clipPath>
	</defs>
</svg>
