<svg width="16" height="16" viewBox="0 0 16 16" fill="none" xmlns="http://www.w3.org/2000/svg">
	<path fill-rule="evenodd" clip-rule="evenodd" d="M7.7 0C3.4 0 0 3.4 0 7.7C0 12 3.4 15.4 7.7 15.4C12 15.4 15.4 12 15.4 7.7C15.4 3.5 12 0 7.7 0ZM7.7 13.5C4.5 13.5 1.9 10.9 1.9 7.7C1.9 4.5 4.5 1.89999 7.7 1.89999C10.9 1.89999 13.5 4.5 13.5 7.7C13.5 10.9 10.9 13.5 7.7 13.5Z" fill="#AEB7C3"/>
	<path fill-rule="evenodd" clip-rule="evenodd" d="M11.1 7.10001H8.3V4.40001C8.3 4.20001 8.2 4.10001 8 4.10001H7C6.8 4.10001 6.7 4.20001 6.7 4.40001V8.50002C6.7 8.70002 6.8 8.8 7 8.8H11.1C11.3 8.8 11.4 8.70002 11.4 8.50002V7.50002C11.4 7.30002 11.2 7.10001 11.1 7.10001Z" fill="#AEB7C3"/>
</svg>