<svg width="25" height="19" viewBox="0 0 25 19" fill="none" xmlns="http://www.w3.org/2000/svg">
	<path fill-rule="evenodd" clip-rule="evenodd" d="M15.6071 6H5.39286C5.13095 6 5 6.13098 5 6.39288V7.30952C5 7.57143 5.13095 7.70241 5.39286 7.70241H15.6071C15.869 7.70241 16 7.57143 16 7.30952V6.39288C16 6.26193 15.869 6 15.6071 6ZM15.6071 10.0595H5.39286C5.13095 10.0595 5 10.1905 5 10.4524V11.3691C5 11.631 5.13095 11.7619 5.39286 11.7619H15.6071C15.869 11.7619 16 11.631 16 11.3691V10.4524C16 10.1905 15.869 10.0595 15.6071 10.0595ZM15.6071 14.1191H5.39286C5.13095 14.1191 5 14.25 5 14.5119V15.4286C5 15.6905 5.13095 15.8214 5.39286 15.8214H15.6071C15.869 15.8214 16 15.6905 16 15.4286V14.5119C16 14.25 15.869 14.1191 15.6071 14.1191Z" fill="#AFAEAF"/>
</svg>
