<svg xmlns="http://www.w3.org/2000/svg" width="46" height="18" viewBox="0 0 46 18"><path opacity=".5" fill="#525C69" d="M9.3565622,10.6643334 C11.1839022,10.6643334 12.6652022,12.1457334 12.6652022,13.9730334 C12.6652022,15.8004334 11.1839022,17.2817334 9.3565622,17.2817334 C7.5292222,17.2817334 6.0478722,15.8004334 6.0478722,13.9730334 C6.0478722,12.1457334 7.5292222,10.6643334 9.3565622,10.6643334 Z M36.2186022,10.6643334 C38.0459022,10.6643334 39.5273022,12.1457334 39.5273022,13.9730334 C39.5273022,15.8004334 38.0459022,17.2817334 36.2186022,17.2817334 C34.3912022,17.2817334 32.9099022,15.8004334 32.9099022,13.9730334 C32.9099022,12.1457334 34.3912022,10.6643334 36.2186022,10.6643334 Z M26.9993022,0.715593401 C28.6745022,1.2585634 32.3983022,3.5481134 34.4882022,5.5361134 C38.2301022,6.5280534 41.5361022,6.9630934 43.8327022,9.0172234 L44.0275134,9.43439682 C44.7057786,10.9323251 44.9839105,12.1321501 44.7409022,14.7063334 L40.9336022,14.7120334 C40.9720022,14.4717334 40.9915022,14.2246334 40.9915022,13.9730334 C40.9915022,11.3370334 38.8546022,9.2001634 36.2186022,9.2001634 C33.5826022,9.2001634 31.4457022,11.3370334 31.4457022,13.9730334 C31.4457022,14.2295334 31.4659022,14.4813334 31.5048022,14.7268334 L15.4150127,14.7296518 C14.9640797,14.7292074 14.5151484,14.7287026 14.0688022,14.7281334 L14.0882022,14.6035334 C14.1154022,14.3972334 14.1295022,14.1868334 14.1295022,13.9730334 C14.1295022,11.3370334 11.9926022,9.2001634 9.3565622,9.2001634 C6.7205622,9.2001634 4.5836522,11.3370334 4.5836522,13.9730334 C4.5836522,14.2142334 4.6015422,14.4512334 4.6360722,14.6828334 L4.03165928,14.6431907 C1.99661168,14.4823797 0.801048807,14.0995247 0.297223198,13.7970334 C-0.0131968017,13.6506334 -0.306130802,6.6840234 0.663982198,5.8043434 C1.3218022,5.0783634 5.4541722,4.4473134 6.6215922,4.1014934 L7.12267586,3.75681402 C8.77969673,2.60152599 11.0866022,0.899829116 13.5433022,0.353823401 C17.0037022,-0.122197599 23.0486022,-0.221951599 26.9993022,0.715593401 Z M15.1157022,1.4933634 C14.9566022,1.5158834 14.8047022,1.5769634 14.6805022,1.6790434 L14.501795,1.83368556 C13.8811361,2.39790299 13.0252931,3.46298067 12.3692022,5.4316534 C12.3064022,5.6202134 12.4466022,5.8137434 12.6454022,5.8172734 C15.6353022,5.8704134 18.0051022,5.8441734 20.6460022,5.8138134 C20.8286022,5.8117134 20.9672022,5.6486834 20.9388022,5.4683034 L20.6092334,3.43653934 C20.5156709,2.87151646 20.4113272,2.24844423 20.2962022,1.5673234 C20.2732022,1.4307734 20.1595022,1.3273534 20.0213022,1.3188534 C18.3146022,1.2139034 16.6794022,1.2720734 15.1157022,1.4933634 Z M21.8799022,1.3862034 C21.6921022,1.3822534 21.5505022,1.5528634 21.5847022,1.7374934 L22.1020449,4.5579719 C22.1650422,4.9069589 22.2233622,5.2328294 22.2770022,5.5355834 C22.3022022,5.6776934 22.4248022,5.7816634 22.5691022,5.7833134 L25.2687615,5.80999451 C27.0939022,5.82339896 28.9800355,5.82429673 30.9887022,5.7902434 C31.2183022,5.7863534 31.3537022,5.5389834 31.2124022,5.3580634 C29.9485022,3.7402534 27.2028022,2.4667634 25.9392022,1.7992234 C25.9094022,1.7834434 25.8780022,1.7732734 25.8446022,1.7682034 C24.3244022,1.5371834 23.0028022,1.4098534 21.8799022,1.3862034 Z" transform="translate(.5)"/></svg>