<svg xmlns="http://www.w3.org/2000/svg" fill="none" viewBox="0 0 50 50"><path fill="#E5E8EB" fill-rule="evenodd" d="M6.164 3.425a2.74 2.74 0 0 1 2.74-2.74h22.789a2.74 2.74 0 0 1 1.995.863l9.403 9.99a2.74 2.74 0 0 1 .745 1.878v33.16a2.74 2.74 0 0 1-2.74 2.74H8.904a2.74 2.74 0 0 1-2.74-2.74V3.426Z" clip-rule="evenodd"/><path fill="#535C69" d="M32.877.955c.301.145.577.345.811.593l9.403 9.99c.22.234.395.503.52.792h-8.734a2 2 0 0 1-2-2V.955Z" opacity=".3"/><path fill="#2C77B1" d="M21.595 23.88c0-.757.614-1.37 1.37-1.37H47.26c.757 0 1.37.613 1.37 1.37v11.439a1.37 1.37 0 0 1-1.37 1.37H22.965a1.37 1.37 0 0 1-1.37-1.37v-11.44Z"/><path fill="#fff" fill-rule="evenodd" d="M25.32 32.979h1.929c2.47 0 3.888-1.5 3.888-3.63 0-2.085-1.31-3.53-3.803-3.53h-2.013v7.16Zm1.12-.968v-5.225h.798c1.822 0 2.706 1.032 2.706 2.575 0 1.434-.714 2.65-2.684 2.65h-.82Zm9.254 1.077c2.003 0 3.494-1.446 3.494-3.662 0-2.151-1.437-3.672-3.494-3.672-2.045 0-3.504 1.499-3.504 3.672 0 2.205 1.47 3.662 3.505 3.662Zm0-.968c-1.384 0-2.312-1.021-2.312-2.694s.928-2.706 2.312-2.706c1.438 0 2.312 1.087 2.312 2.706 0 1.673-.927 2.694-2.312 2.694Zm10.086-.478a3.28 3.28 0 0 1-1.704.478c-1.491 0-2.418-1.097-2.418-2.672 0-1.489.895-2.727 2.471-2.727a3.612 3.612 0 0 1 1.779.456v-1.065c-.405-.195-1.044-.358-1.8-.358-2.195 0-3.643 1.651-3.643 3.726 0 2.097 1.257 3.608 3.483 3.608a4.26 4.26 0 0 0 2.142-.544l-.31-.902Z" clip-rule="evenodd"/></svg>