<svg xmlns="http://www.w3.org/2000/svg" width="168" height="168" fill="none"><rect width="146" height="146" x="11" y="11" fill="url(#a)" rx="73"/><mask id="c" width="146" height="146" x="11" y="11" maskUnits="userSpaceOnUse" style="mask-type:alpha"><rect width="146" height="146" x="11" y="11" fill="url(#b)" rx="73"/></mask><g fill="#D3F4FF" mask="url(#c)"><path d="M25.207 23.207a1 1 0 1 1-2 0 1 1 0 0 1 2 0ZM40.208 23.207a1 1 0 1 1-2 0 1 1 0 0 1 2 0ZM55.208 23.207a1 1 0 1 1-2 0 1 1 0 0 1 2 0ZM70.207 23.207a1 1 0 1 1-2 0 1 1 0 0 1 2 0ZM85.207 23.207a1 1 0 1 1-2 0 1 1 0 0 1 2 0ZM100.208 23.207a1 1 0 1 1-2 0 1 1 0 0 1 2 0ZM115.208 23.207a1 1 0 1 1-2 0 1 1 0 0 1 2 0ZM130.208 23.207a1 1 0 1 1-2 0 1 1 0 0 1 2 0ZM145.208 23.207a1 1 0 1 1-2 0 1 1 0 0 1 2 0ZM25.207 38.207a1 1 0 1 1-2 0 1 1 0 0 1 2 0ZM40.208 38.207a1 1 0 1 1-2 0 1 1 0 0 1 2 0ZM55.208 38.207a1 1 0 1 1-2 0 1 1 0 0 1 2 0ZM70.207 38.207a1 1 0 1 1-2 0 1 1 0 0 1 2 0ZM85.207 38.207a1 1 0 1 1-2 0 1 1 0 0 1 2 0ZM100.208 38.207a1 1 0 1 1-2 0 1 1 0 0 1 2 0ZM115.208 38.207a1 1 0 1 1-2 0 1 1 0 0 1 2 0ZM130.208 38.207a1 1 0 1 1-2 0 1 1 0 0 1 2 0ZM145.208 38.207a1 1 0 1 1-2 0 1 1 0 0 1 2 0ZM25.207 53.207a1 1 0 1 1-2 0 1 1 0 0 1 2 0ZM40.208 53.207a1 1 0 1 1-2 0 1 1 0 0 1 2 0ZM55.208 53.207a1 1 0 1 1-2 0 1 1 0 0 1 2 0ZM70.207 53.207a1 1 0 1 1-2 0 1 1 0 0 1 2 0ZM85.207 53.207a1 1 0 1 1-2 0 1 1 0 0 1 2 0ZM100.208 53.207a1 1 0 1 1-2 0 1 1 0 0 1 2 0ZM115.208 53.207a1 1 0 1 1-2 0 1 1 0 0 1 2 0ZM130.208 53.207a1 1 0 1 1-2 0 1 1 0 0 1 2 0ZM145.208 53.207a1 1 0 1 1-2 0 1 1 0 0 1 2 0ZM25.207 68.207a1 1 0 1 1-2 0 1 1 0 0 1 2 0ZM40.208 68.207a1 1 0 1 1-2 0 1 1 0 0 1 2 0ZM55.208 68.207a1 1 0 1 1-2 0 1 1 0 0 1 2 0ZM70.207 68.207a1 1 0 1 1-2 0 1 1 0 0 1 2 0ZM85.207 68.207a1 1 0 1 1-2 0 1 1 0 0 1 2 0ZM100.208 68.207a1 1 0 1 1-2 0 1 1 0 0 1 2 0ZM115.208 68.207a1 1 0 1 1-2 0 1 1 0 0 1 2 0ZM130.208 68.207a1 1 0 1 1-2 0 1 1 0 0 1 2 0ZM145.208 68.207a1 1 0 1 1-2 0 1 1 0 0 1 2 0ZM25.207 83.207a1 1 0 1 1-2 0 1 1 0 0 1 2 0ZM40.208 83.207a1 1 0 1 1-2 0 1 1 0 0 1 2 0ZM55.208 83.207a1 1 0 1 1-2 0 1 1 0 0 1 2 0ZM70.207 83.207a1 1 0 1 1-2 0 1 1 0 0 1 2 0ZM85.207 83.207a1 1 0 1 1-2 0 1 1 0 0 1 2 0ZM100.208 83.207a1 1 0 1 1-2 0 1 1 0 0 1 2 0ZM115.208 83.207a1 1 0 1 1-2 0 1 1 0 0 1 2 0ZM130.208 83.207a1 1 0 1 1-2 0 1 1 0 0 1 2 0ZM145.208 83.207a1 1 0 1 1-2 0 1 1 0 0 1 2 0ZM25.207 98.207a1 1 0 1 1-2 0 1 1 0 0 1 2 0ZM40.208 98.207a1 1 0 1 1-2 0 1 1 0 0 1 2 0ZM55.208 98.207a1 1 0 1 1-2 0 1 1 0 0 1 2 0ZM70.207 98.207a1 1 0 1 1-2 0 1 1 0 0 1 2 0ZM85.207 98.207a1 1 0 1 1-2 0 1 1 0 0 1 2 0ZM100.208 98.207a1 1 0 1 1-2 0 1 1 0 0 1 2 0ZM115.208 98.207a1 1 0 1 1-2 0 1 1 0 0 1 2 0ZM130.208 98.207a1 1 0 1 1-2 0 1 1 0 0 1 2 0ZM145.208 98.207a1 1 0 1 1-2 0 1 1 0 0 1 2 0ZM25.207 113.207a1 1 0 1 1-2 0 1 1 0 0 1 2 0ZM40.208 113.207a1 1 0 1 1-2 0 1 1 0 0 1 2 0ZM55.208 113.207a1 1 0 1 1-2 0 1 1 0 0 1 2 0ZM70.207 113.207a1 1 0 1 1-2 0 1 1 0 0 1 2 0ZM85.207 113.207a1 1 0 1 1-2 0 1 1 0 0 1 2 0ZM100.208 113.207a1 1 0 1 1-2.001-.001 1 1 0 0 1 2.001.001ZM115.208 113.207a1 1 0 1 1-2 0 1 1 0 0 1 2 0ZM130.208 113.207a1 1 0 1 1-2 0 1 1 0 0 1 2 0ZM145.208 113.207a1 1 0 1 1-2 0 1 1 0 0 1 2 0ZM25.207 128.207a1 1 0 1 1-2 0 1 1 0 0 1 2 0ZM40.208 128.207a1 1 0 1 1-2 0 1 1 0 0 1 2 0ZM55.208 128.207a1 1 0 1 1-2 0 1 1 0 0 1 2 0ZM70.207 128.207a1 1 0 1 1-2 0 1 1 0 0 1 2 0ZM85.207 128.207a1 1 0 1 1-2 0 1 1 0 0 1 2 0ZM100.208 128.207a1 1 0 1 1-2.001-.001 1 1 0 0 1 2.001.001ZM115.208 128.207a1 1 0 1 1-2 0 1 1 0 0 1 2 0ZM130.208 128.207a1 1 0 1 1-2 0 1 1 0 0 1 2 0ZM145.208 128.207a1 1 0 1 1-2 0 1 1 0 0 1 2 0ZM25.207 143.207a1 1 0 1 1-2 0 1 1 0 0 1 2 0ZM40.208 143.207a1 1 0 1 1-2 0 1 1 0 0 1 2 0ZM55.208 143.207a1 1 0 1 1-2 0 1 1 0 0 1 2 0ZM70.207 143.207a1 1 0 1 1-2 0 1 1 0 0 1 2 0ZM85.207 143.207a1 1 0 1 1-2 0 1 1 0 0 1 2 0ZM100.208 143.207a1 1 0 1 1-2.001-.001 1 1 0 0 1 2.001.001ZM115.208 143.207a1 1 0 1 1-2 0 1 1 0 0 1 2 0ZM130.208 143.207a1 1 0 1 1-2 0 1 1 0 0 1 2 0ZM145.208 143.207a1 1 0 1 1-2 0 1 1 0 0 1 2 0Z"/></g><path fill="#E6E7E9" fill-rule="evenodd" d="M83.528 105.022v-8.659h1.048v8.659a8.912 8.912 0 0 1-8.911 8.912H49.978a5.767 5.767 0 0 0-5.767 5.766v8.117h-1.048V119.7a6.815 6.815 0 0 1 6.815-6.814h25.687a7.864 7.864 0 0 0 7.863-7.864ZM83.528 56.51v10.496h1.048V56.509a6.815 6.815 0 0 0-6.814-6.815H29.006a5.766 5.766 0 0 1-5.767-5.766V38.95h-1.048v4.978a6.815 6.815 0 0 0 6.815 6.815h48.756a5.766 5.766 0 0 1 5.766 5.766Z" clip-rule="evenodd"/><path fill="#E6E7E9" fill-rule="evenodd" d="M83.528 56.51v10.496h1.048V56.509a6.815 6.815 0 0 0-6.814-6.815H57.397a5.766 5.766 0 0 1-5.767-5.766V38.95h-1.048v4.978a6.815 6.815 0 0 0 6.815 6.815H77.76a5.766 5.766 0 0 1 5.767 5.766ZM84.576 104.994v-8.63h-1.048v8.63a8.912 8.912 0 0 0 8.912 8.912h25.687a5.767 5.767 0 0 1 5.766 5.766v8.145h1.048v-8.145a6.815 6.815 0 0 0-6.814-6.815H92.44a7.863 7.863 0 0 1-7.864-7.863Z" clip-rule="evenodd"/><path fill="#E6E7E9" fill-rule="evenodd" d="M84.576 56.51v10.496h-1.048V56.509a6.815 6.815 0 0 1 6.815-6.815h32.502a5.767 5.767 0 0 0 5.766-5.766V38.95h1.048v4.978a6.815 6.815 0 0 1-6.814 6.815H90.343a5.766 5.766 0 0 0-5.767 5.766Z" clip-rule="evenodd"/><g filter="url(#d)"><path fill="#fff" d="M42.114 69.103a6.29 6.29 0 0 1 6.291-6.29H119.7a6.29 6.29 0 0 1 6.291 6.29v20.969a6.29 6.29 0 0 1-6.291 6.29H48.405a6.29 6.29 0 0 1-6.29-6.29V69.103Z"/></g><path fill="#A8ADB4" d="M72.689 74.866c0-1.013.82-1.835 1.834-1.835h40.365a1.835 1.835 0 1 1 0 3.67H74.523a1.835 1.835 0 0 1-1.834-1.835ZM72.689 82.212c0-1.014.82-1.835 1.834-1.835h18.179a1.835 1.835 0 1 1 0 3.67H74.523a1.835 1.835 0 0 1-1.834-1.835Z" opacity=".3"/><path fill="#FFF5E3" d="M48.574 72.249a3.145 3.145 0 0 1 3.145-3.145h12.582a3.145 3.145 0 0 1 3.145 3.145V84.83a3.145 3.145 0 0 1-3.145 3.145H51.72a3.145 3.145 0 0 1-3.146-3.145V72.25Z"/><path fill="#FFA900" fill-rule="evenodd" d="m58.01 81.727-2.74 1.513c-.12.066-.26-.041-.237-.181l.523-3.203-2.217-2.268c-.097-.1-.043-.272.09-.293l3.064-.467 1.37-2.914a.16.16 0 0 1 .294 0l1.37 2.914 3.064.467c.134.02.187.194.09.293l-2.217 2.268.524 3.203c.023.14-.118.247-.237.18l-2.74-1.512Z" clip-rule="evenodd"/><circle cx="84.052" cy="96.363" r="4.012" fill="#2FC6F6"/><path fill="#fff" fill-rule="evenodd" d="M84.052 94.188c-.3 0-.544.243-.544.543v1.088h-1.087a.544.544 0 0 0 0 1.087h1.087v1.088a.544.544 0 0 0 1.088 0v-1.088h1.087a.544.544 0 0 0 0-1.087h-1.087V94.73c0-.3-.244-.543-.544-.543Z" clip-rule="evenodd"/><g filter="url(#e)"><path fill="#fff" d="M9.089 126.261a6.29 6.29 0 0 1 6.29-6.29h56.616a6.29 6.29 0 0 1 6.29 6.29v12.582a6.29 6.29 0 0 1-6.29 6.29H15.38a6.29 6.29 0 0 1-6.29-6.29v-12.582Z"/></g><circle cx="43.687" cy="120.506" r="1.573" fill="#D5D7DB"/><path fill="#2FC6F6" d="M36.348 132.552c0-1.014.822-1.835 1.835-1.835h27.784a1.834 1.834 0 1 1 0 3.669H38.183a1.834 1.834 0 0 1-1.835-1.834Z" opacity=".3"/><rect width="16.775" height="16.775" x="14.331" y="124.164" fill="#ECFAFE" rx="8.388"/><path fill="#2FC6F6" d="M26.184 136.108a.504.504 0 0 0 .315-.575l-.165-.843c0-.352-.47-.755-1.392-.989a3.153 3.153 0 0 1-.882-.394c-.059-.033-.05-.34-.05-.34l-.297-.045c0-.025-.026-.393-.026-.393.356-.118.32-.81.32-.81.225.123.372-.425.372-.425.268-.761-.133-.715-.133-.715a4.7 4.7 0 0 0 0-1.401c-.178-1.541-2.857-1.123-2.54-.62-.782-.141-.604 1.608-.604 1.608l.17.453c-.235.15-.19.322-.137.514.021.08.043.164.047.251.016.436.288.346.288.346.017.72.38.814.38.814.067.452.025.375.025.375l-.322.038c.004.103-.005.206-.026.307a3.885 3.885 0 0 0-.415.212 3.832 3.832 0 0 1-.421.213c-.727.313-1.517.719-1.658 1.267-.04.16-.081.375-.117.6a.496.496 0 0 0 .316.547c.976.357 2.079.568 3.248.593h.47a10.122 10.122 0 0 0 3.234-.588Z"/><g filter="url(#f)"><path fill="#fff" d="M89.819 126.261a6.29 6.29 0 0 1 6.29-6.29h56.616a6.29 6.29 0 0 1 6.291 6.29v12.582a6.29 6.29 0 0 1-6.291 6.29H96.109a6.29 6.29 0 0 1-6.29-6.29v-12.582Z"/></g><circle cx="124.417" cy="120.5" r="1.573" fill="#D5D7DB"/><path fill="#9DCF00" d="M117.078 132.552c0-1.014.822-1.835 1.835-1.835h27.784a1.834 1.834 0 0 1 0 3.669h-27.784a1.835 1.835 0 0 1-1.835-1.834Z" opacity=".3"/><rect width="16.775" height="16.775" x="95.061" y="124.164" fill="#F5FCDE" rx="8.388"/><path fill="#9DCF00" d="M106.914 136.108a.504.504 0 0 0 .315-.575l-.165-.843c0-.352-.469-.755-1.392-.989a3.164 3.164 0 0 1-.882-.394c-.059-.033-.05-.34-.05-.34l-.297-.045c0-.025-.026-.393-.026-.393.356-.118.319-.81.319-.81.226.123.373-.425.373-.425.268-.761-.133-.715-.133-.715a4.7 4.7 0 0 0 0-1.401c-.178-1.541-2.857-1.123-2.539-.62-.783-.141-.605 1.608-.605 1.608l.17.453c-.235.15-.189.322-.137.514.021.08.044.164.047.251.016.436.288.346.288.346.017.72.379.814.379.814.068.452.026.375.026.375l-.322.038c.004.103-.005.206-.026.307-.187.082-.301.147-.415.212a3.83 3.83 0 0 1-.421.213c-.727.313-1.517.719-1.658 1.267a7.24 7.24 0 0 0-.118.6.496.496 0 0 0 .317.547c.976.357 2.078.568 3.248.593h.47a10.122 10.122 0 0 0 3.234-.588Z"/><g filter="url(#g)"><path fill="#fff" d="M102.924 32.208a8.388 8.388 0 0 1 8.388-8.388h34.598a8.387 8.387 0 1 1 0 16.775h-34.598a8.388 8.388 0 0 1-8.388-8.387Z"/></g><circle cx="129.135" cy="40.596" r="1.573" fill="#D5D7DB"/><path fill="#2FC6F6" d="M121.796 32.208c0-1.013.822-1.835 1.835-1.835h19.396a1.835 1.835 0 1 1 0 3.67h-19.396a1.835 1.835 0 0 1-1.835-1.835Z" opacity=".3"/><path fill="#2FC6F6" fill-rule="evenodd" d="m116.978 31.926-4.199-3.006a.31.31 0 0 0-.334-.022.34.34 0 0 0-.172.302v6.012a.34.34 0 0 0 .171.301.31.31 0 0 0 .335-.021l4.199-3.006a.342.342 0 0 0 .142-.28.342.342 0 0 0-.142-.28Z" clip-rule="evenodd"/><g filter="url(#h)"><circle cx="22.873" cy="30.254" r="11.533" fill="#fff"/></g><circle cx="22.873" cy="41.786" r="1.573" fill="#D5D7DB"/><path fill="#FB6DBA" fill-rule="evenodd" d="M23.272 25.23c0-.172-.213-.31-.476-.31s-.476.138-.476.31v.773c0 .171.213.31.476.31s.476-.139.476-.31v-.774Zm2.824 4.903c0 .842-.619 1.61-1.143 2.188-.186.206-.197.417-.207.61-.02.423-.037.759-1.91.759-1.88 0-1.906-.34-1.938-.766-.015-.19-.03-.4-.215-.603-.524-.578-1.106-1.346-1.106-2.188a3.26 3.26 0 0 1 6.52 0Zm-4.684 4.485c0-.34.275-.614.614-.614h1.52a.614.614 0 0 1 0 1.228h-1.52a.614.614 0 0 1-.614-.614Zm4.775-8.723c.2.17.272.415.161.546l-.504.593c-.111.132-.364.1-.564-.07-.2-.17-.273-.414-.161-.545l.504-.594c.111-.131.364-.1.564.07Zm-7.07.549c-.102-.137-.016-.376.193-.534.21-.16.463-.177.566-.04l.468.616c.103.137.017.376-.192.534-.21.16-.463.177-.566.04l-.468-.616Zm-1.393 2.45c-.073.252.003.495.167.542l.747.213c.164.047.356-.12.429-.372.072-.252-.003-.495-.168-.542l-.746-.214c-.165-.047-.357.12-.43.372Zm10.054.372c.164-.047.24-.29.167-.543-.072-.252-.264-.419-.429-.372l-.746.213c-.165.048-.24.29-.167.543.072.253.264.42.429.372l.746-.213Z" clip-rule="evenodd"/><g filter="url(#i)"><circle cx="51.182" cy="30.254" r="11.533" fill="#fff"/></g><circle cx="51.182" cy="41.788" r="1.573" fill="#D5D7DB"/><path fill="#9DCF00" d="M49.264 31.843v2.24c0 .097-.08.177-.178.177h-.818a.177.177 0 0 1-.177-.178v-6.801c0-.098.079-.177.177-.177h6.374c.14 0 .225.154.15.272l-1.23 1.939a.296.296 0 0 0 0 .317l1.23 1.938a.178.178 0 0 1-.15.273h-5.378Z"/><path fill="#A3E9FF" d="M71.708 46.814a2.097 2.097 0 0 1 1.695-.863h20.043c.677 0 1.312.327 1.706.877l1.697 2.374c.522.73.522 1.71 0 2.44l-1.697 2.373a2.097 2.097 0 0 1-1.706.878H73.414a2.097 2.097 0 0 1-1.705-.876l-1.719-2.4A2.097 2.097 0 0 1 70 49.16l1.708-2.347Z"/><defs><filter id="d" width="96.457" height="46.132" x="35.824" y="57.57" color-interpolation-filters="sRGB" filterUnits="userSpaceOnUse"><feFlood flood-opacity="0" result="BackgroundImageFix"/><feColorMatrix in="SourceAlpha" result="hardAlpha" values="0 0 0 0 0 0 0 0 0 0 0 0 0 0 0 0 0 0 127 0"/><feOffset dy="1.048"/><feGaussianBlur stdDeviation="3.145"/><feComposite in2="hardAlpha" operator="out"/><feColorMatrix values="0 0 0 0 0.423529 0 0 0 0 0.423529 0 0 0 0 0.423529 0 0 0 0.1 0"/><feBlend in2="BackgroundImageFix" result="effect1_dropShadow_764_174260"/><feBlend in="SourceGraphic" in2="effect1_dropShadow_764_174260" result="shape"/></filter><filter id="e" width="81.779" height="37.743" x="2.798" y="114.728" color-interpolation-filters="sRGB" filterUnits="userSpaceOnUse"><feFlood flood-opacity="0" result="BackgroundImageFix"/><feColorMatrix in="SourceAlpha" result="hardAlpha" values="0 0 0 0 0 0 0 0 0 0 0 0 0 0 0 0 0 0 127 0"/><feOffset dy="1.048"/><feGaussianBlur stdDeviation="3.145"/><feComposite in2="hardAlpha" operator="out"/><feColorMatrix values="0 0 0 0 0.423529 0 0 0 0 0.423529 0 0 0 0 0.423529 0 0 0 0.1 0"/><feBlend in2="BackgroundImageFix" result="effect1_dropShadow_764_174260"/><feBlend in="SourceGraphic" in2="effect1_dropShadow_764_174260" result="shape"/></filter><filter id="f" width="81.779" height="37.743" x="83.528" y="114.728" color-interpolation-filters="sRGB" filterUnits="userSpaceOnUse"><feFlood flood-opacity="0" result="BackgroundImageFix"/><feColorMatrix in="SourceAlpha" result="hardAlpha" values="0 0 0 0 0 0 0 0 0 0 0 0 0 0 0 0 0 0 127 0"/><feOffset dy="1.048"/><feGaussianBlur stdDeviation="3.145"/><feComposite in2="hardAlpha" operator="out"/><feColorMatrix values="0 0 0 0 0.423529 0 0 0 0 0.423529 0 0 0 0 0.423529 0 0 0 0.1 0"/><feBlend in2="BackgroundImageFix" result="effect1_dropShadow_764_174260"/><feBlend in="SourceGraphic" in2="effect1_dropShadow_764_174260" result="shape"/></filter><filter id="g" width="63.955" height="29.357" x="96.634" y="18.578" color-interpolation-filters="sRGB" filterUnits="userSpaceOnUse"><feFlood flood-opacity="0" result="BackgroundImageFix"/><feColorMatrix in="SourceAlpha" result="hardAlpha" values="0 0 0 0 0 0 0 0 0 0 0 0 0 0 0 0 0 0 127 0"/><feOffset dy="1.048"/><feGaussianBlur stdDeviation="3.145"/><feComposite in2="hardAlpha" operator="out"/><feColorMatrix values="0 0 0 0 0.423529 0 0 0 0 0.423529 0 0 0 0 0.423529 0 0 0 0.1 0"/><feBlend in2="BackgroundImageFix" result="effect1_dropShadow_764_174260"/><feBlend in="SourceGraphic" in2="effect1_dropShadow_764_174260" result="shape"/></filter><filter id="h" width="35.647" height="35.648" x="5.05" y="13.479" color-interpolation-filters="sRGB" filterUnits="userSpaceOnUse"><feFlood flood-opacity="0" result="BackgroundImageFix"/><feColorMatrix in="SourceAlpha" result="hardAlpha" values="0 0 0 0 0 0 0 0 0 0 0 0 0 0 0 0 0 0 127 0"/><feOffset dy="1.048"/><feGaussianBlur stdDeviation="3.145"/><feComposite in2="hardAlpha" operator="out"/><feColorMatrix values="0 0 0 0 0.423529 0 0 0 0 0.423529 0 0 0 0 0.423529 0 0 0 0.1 0"/><feBlend in2="BackgroundImageFix" result="effect1_dropShadow_764_174260"/><feBlend in="SourceGraphic" in2="effect1_dropShadow_764_174260" result="shape"/></filter><filter id="i" width="35.647" height="35.648" x="33.358" y="13.479" color-interpolation-filters="sRGB" filterUnits="userSpaceOnUse"><feFlood flood-opacity="0" result="BackgroundImageFix"/><feColorMatrix in="SourceAlpha" result="hardAlpha" values="0 0 0 0 0 0 0 0 0 0 0 0 0 0 0 0 0 0 127 0"/><feOffset dy="1.048"/><feGaussianBlur stdDeviation="3.145"/><feComposite in2="hardAlpha" operator="out"/><feColorMatrix values="0 0 0 0 0.423529 0 0 0 0 0.423529 0 0 0 0 0.423529 0 0 0 0.1 0"/><feBlend in2="BackgroundImageFix" result="effect1_dropShadow_764_174260"/><feBlend in="SourceGraphic" in2="effect1_dropShadow_764_174260" result="shape"/></filter><linearGradient id="a" x1="84" x2="84" y1="11" y2="157" gradientUnits="userSpaceOnUse"><stop stop-color="#E5F9FF" stop-opacity=".4"/><stop offset="1" stop-color="#E5F9FF" stop-opacity=".8"/></linearGradient><linearGradient id="b" x1="84" x2="84" y1="11" y2="157" gradientUnits="userSpaceOnUse"><stop stop-color="#E5F9FF" stop-opacity=".4"/><stop offset="1" stop-color="#E5F9FF" stop-opacity=".8"/></linearGradient></defs></svg>