<svg xmlns="http://www.w3.org/2000/svg" width="24" height="24" fill="none"><path fill="#E5E8EB" fill-rule="evenodd" d="M2 2a2 2 0 0 1 2-2h10.167a2 2 0 0 1 1.416.587l3.833 3.84A2 2 0 0 1 20 5.838V22a2 2 0 0 1-2 2H4a2 2 0 0 1-2-2V2Z" clip-rule="evenodd"/><path fill="#535C69" d="M15 .182a2 2 0 0 1 .583.405l3.833 3.84c.167.167.302.362.4.573H15.4a.4.4 0 0 1-.4-.4V.182Z" opacity=".3"/><path fill="#D73B41" d="M5 12a1 1 0 0 1 1-1h16a1 1 0 0 1 1 1v7a1 1 0 0 1-1 1H6a1 1 0 0 1-1-1v-7Z"/><path fill="#fff" fill-rule="evenodd" d="M8.969 18.017h.755v-1.755h.237c.425 0 .74-.068.992-.181.633-.28.87-.855.87-1.437 0-.658-.273-1.134-.74-1.391-.273-.152-.604-.22-1.057-.22H8.97v4.984Zm.755-2.405v-1.928h.28c.28 0 .482.053.633.143.266.166.396.462.396.817 0 .4-.137.695-.425.84-.143.082-.337.128-.596.128h-.288Zm3.17 2.405h1.302c1.668 0 2.624-1.044 2.624-2.526 0-1.452-.884-2.458-2.567-2.458h-1.359v4.984Zm.755-.673v-3.638h.54c1.23 0 1.826.719 1.826 1.792 0 .998-.482 1.845-1.812 1.845h-.553Zm4.098.672h.755v-2.2h1.524v-.673h-1.524v-1.437h1.553l.216-.673h-2.524v4.984Z" clip-rule="evenodd"/></svg>