<svg xmlns="http://www.w3.org/2000/svg" fill="none" viewBox="0 0 50 50"><path fill="#E5E8EB" fill-rule="evenodd" d="M6.164 3.425a2.74 2.74 0 0 1 2.74-2.74h22.789a2.74 2.74 0 0 1 1.995.863l9.403 9.99a2.74 2.74 0 0 1 .745 1.878v33.16a2.74 2.74 0 0 1-2.74 2.74H8.904a2.74 2.74 0 0 1-2.74-2.74V3.426Z" clip-rule="evenodd"/><path fill="#535C69" d="M32.877.955c.301.145.577.345.811.593l9.403 9.99c.22.234.395.503.52.792h-8.734a2 2 0 0 1-2-2V.955Z" opacity=".3"/><path fill="#E89E00" d="M21.596 23.796c0-.757.613-1.37 1.37-1.37H47.26c.757 0 1.37.613 1.37 1.37v11.439a1.37 1.37 0 0 1-1.37 1.37H22.965a1.37 1.37 0 0 1-1.37-1.37v-11.44Z"/><path fill="#fff" fill-rule="evenodd" d="M27.991 32.896h1.12v-2.52h.35c.63 0 1.098-.098 1.47-.261.938-.402 1.29-1.228 1.29-2.065 0-.945-.406-1.63-1.098-1.999-.405-.217-.895-.315-1.565-.315H27.99v7.16Zm1.12-3.454V26.67h.415c.415 0 .713.076.937.206.394.24.585.663.585 1.173 0 .576-.202 1-.628 1.207-.213.12-.5.184-.884.184h-.426Zm4.482 3.454h1.12v-2.52h.35c.629 0 1.098-.098 1.47-.261.938-.402 1.289-1.228 1.289-2.065 0-.945-.405-1.63-1.097-1.999-.405-.217-.895-.315-1.566-.315h-1.566v7.16Zm1.12-3.454V26.67h.415c.415 0 .713.076.937.206.394.24.586.663.586 1.173 0 .576-.203 1-.629 1.207-.213.12-.5.184-.884.184h-.426Zm6.026 3.454h1.12v-6.193h1.906l.32-.967h-5.38v.967h2.034v6.193Z" clip-rule="evenodd"/></svg>