<svg xmlns="http://www.w3.org/2000/svg" fill="none" viewBox="0 0 50 50"><path fill="#E5E8EB" fill-rule="evenodd" d="M6.164 3.425a2.74 2.74 0 0 1 2.74-2.74h22.789a2.74 2.74 0 0 1 1.995.863l9.403 9.99a2.74 2.74 0 0 1 .745 1.878v33.16a2.74 2.74 0 0 1-2.74 2.74H8.904a2.74 2.74 0 0 1-2.74-2.74V3.426Z" clip-rule="evenodd"/><path fill="#535C69" d="M32.877.955c.301.145.577.345.811.593l9.403 9.99c.22.234.395.503.52.792h-8.734a2 2 0 0 1-2-2V.955Z" opacity=".3"/><path fill="#54B51E" d="M21.595 23.88c0-.757.614-1.37 1.37-1.37H47.26c.757 0 1.37.613 1.37 1.37v11.439a1.37 1.37 0 0 1-1.37 1.37H22.965a1.37 1.37 0 0 1-1.37-1.37v-11.44Z"/><path fill="#fff" fill-rule="evenodd" d="M27.49 32.979h1.226l1.907-2.76 1.789 2.76h1.268l-2.354-3.63 2.429-3.53h-1.237l-1.832 2.694-1.747-2.694h-1.267l2.301 3.564-2.482 3.596Zm7.243 0h3.643v-.968H35.85V25.82h-1.118v7.16Zm3.908-.49c.49.36 1.214.599 2.024.599 1.406 0 2.418-.761 2.418-2.01 0-2.25-3.047-2.086-3.047-3.5 0-.64.522-.857 1.055-.857.565.007 1.12.153 1.62.423v-1.032c-.363-.195-.96-.358-1.651-.358-1.407 0-2.216.88-2.216 1.933 0 2.163 3.057 1.978 3.057 3.488 0 .695-.607.945-1.258.945a2.769 2.769 0 0 1-1.554-.5l-.448.87Z" clip-rule="evenodd"/></svg>