<svg width="32" height="32" viewBox="0 0 32 32" fill="none" xmlns="http://www.w3.org/2000/svg">
<rect width="32" height="32" rx="16" fill="#FFDD00"/>
<path fill-rule="evenodd" clip-rule="evenodd" d="M4.6283 13.887H6.39315V21.9334H8.01393V12.2272H4.59229V13.887H4.6283ZM17.5948 11.2887C19.9359 11.2887 21.8809 13.165 21.9529 15.5103H23.5737C23.5016 12.2629 20.8364 9.62891 17.5588 9.62891C14.2452 9.62891 11.5439 12.3351 11.5439 15.6547C11.5439 18.9743 14.2452 21.6804 17.5588 21.6804H28.799V20.0567H17.5588C15.1816 20.0206 13.2367 18.0722 13.2367 15.6547C13.2367 13.2371 15.1816 11.2887 17.5948 11.2887ZM8.73471 11.4333V21.9693H10.3555V9.80955H5.99739V11.4333H8.73471ZM15.5416 15.6546C15.5416 14.536 16.478 13.5979 17.5946 13.5979C18.6751 13.5979 19.5755 14.4278 19.6475 15.5103H21.2683C21.1963 13.5257 19.5755 11.9742 17.5946 11.9742C15.5776 11.9742 13.9208 13.634 13.9208 15.6546C13.9208 17.6752 15.5776 19.335 17.5946 19.335H28.8347V17.7113H17.5946C16.478 17.7113 15.5416 16.7731 15.5416 15.6546Z" fill="#D10A11"/>
</svg>
