<svg width="22" height="22" viewBox="0 0 22 22" fill="none" xmlns="http://www.w3.org/2000/svg">
	<path fill-rule="evenodd" clip-rule="evenodd" d="M2.71228 1.50724C2.71228 0.841469 3.25199 0.301758 3.91776 0.301758H13.9449C14.2772 0.301758 14.5949 0.439 14.8227 0.681044L18.96 5.07692C19.1704 5.30053 19.2876 5.59603 19.2876 5.90311V20.4935C19.2876 21.1593 18.7479 21.699 18.0821 21.699H3.91776C3.25199 21.699 2.71228 21.1593 2.71228 20.4935V1.50724Z" fill="#E5E8EB"/>
	<path opacity="0.3" d="M14.4657 0.419922C14.5984 0.483505 14.7197 0.571488 14.8227 0.680877L18.96 5.07675C19.0567 5.17955 19.1338 5.29755 19.1888 5.42488H16.4657C15.3611 5.42488 14.4657 4.52945 14.4657 3.42488V0.419922Z" fill="#535C69"/>
	<path d="M8.29651 10.507C8.29651 10.1742 8.56636 9.9043 8.89925 9.9043H19.589C19.9219 9.9043 20.1918 10.1742 20.1918 10.507V15.5402C20.1918 15.8731 19.9219 16.143 19.589 16.143H8.89925C8.56636 16.143 8.29651 15.8731 8.29651 15.5402V10.507Z" fill="#43AA55"/>
	<path d="M16.8193 14.6237L15.5415 11.4268H16.0912L16.7856 13.2253C16.882 13.4761 16.9543 13.6882 17.0218 13.8859H17.0315C17.0942 13.6979 17.1665 13.4857 17.2726 13.2157L17.9621 11.4268H18.507L17.2292 14.6237H16.8193Z" fill="white"/>
	<path d="M13.2339 14.387L13.4364 14.0013C13.61 14.117 13.8511 14.2231 14.1404 14.2231C14.4345 14.2231 14.7094 14.1122 14.7094 13.8036C14.7094 13.1334 13.3255 13.2153 13.3255 12.2558C13.3255 11.788 13.692 11.3975 14.3285 11.3975C14.6419 11.3975 14.9119 11.4698 15.0759 11.5566V12.0147C14.8396 11.8941 14.5937 11.8266 14.3429 11.8266C14.1018 11.8266 13.8656 11.923 13.8656 12.2075C13.8656 12.8344 15.2446 12.7621 15.2446 13.7602C15.2446 14.3147 14.7865 14.6523 14.1501 14.6523C13.7836 14.6523 13.4557 14.5462 13.2339 14.387Z" fill="white"/>
	<path d="M12.6831 14.0109L12.823 14.4112C12.4902 14.5944 12.1623 14.6523 11.8537 14.6523C10.846 14.6523 10.277 13.982 10.277 13.0514C10.277 12.1304 10.9328 11.3975 11.9261 11.3975C12.2684 11.3975 12.5577 11.4698 12.741 11.5566V12.0291C12.5047 11.9038 12.2491 11.8266 11.9357 11.8266C11.2221 11.8266 10.817 12.3763 10.817 13.0369C10.817 13.7361 11.2365 14.2231 11.9116 14.2231C12.2202 14.2231 12.4613 14.1363 12.6831 14.0109Z" fill="white"/>
</svg>
