<svg width="30" height="30" viewBox="0 0 30 30" fill="none" xmlns="http://www.w3.org/2000/svg">
<path d="M5.83333 18.6667C7.39814 18.6667 8.66667 17.3981 8.66667 15.8333C8.66667 14.2685 7.39814 13 5.83333 13C4.26853 13 3 14.2685 3 15.8333C3 17.3981 4.26853 18.6667 5.83333 18.6667Z" fill="#3886D8"/>
<path d="M14.3333 18.6667C15.8981 18.6667 17.1667 17.3981 17.1667 15.8333C17.1667 14.2685 15.8981 13 14.3333 13C12.7685 13 11.5 14.2685 11.5 15.8333C11.5 17.3981 12.7685 18.6667 14.3333 18.6667Z" fill="#3886D8"/>
<path d="M25.6667 15.8333C25.6667 17.3981 24.3981 18.6667 22.8333 18.6667C21.2685 18.6667 20 17.3981 20 15.8333C20 14.2685 21.2685 13 22.8333 13C24.3981 13 25.6667 14.2685 25.6667 15.8333Z" fill="#3886D8"/>
</svg>
