<svg width="20" height="15" viewBox="0 0 20 15" fill="none" xmlns="http://www.w3.org/2000/svg">
	<path d="M11.4093 15C11.4072 14.822 11.4012 14.6449 11.3914 14.4688L11.4021 14.4561C11.5421 14.2894 11.7451 14.0448 11.9987 13.7315C12.5056 13.105 13.2151 12.2033 14.0273 11.1002C15.6474 8.89958 17.6832 5.8875 19.3336 2.65284C19.4721 2.41731 19.5222 2.15754 19.4759 1.90502C19.4294 1.65108 19.2917 1.43896 19.1143 1.2873C18.7631 0.986872 18.2264 0.895286 17.7423 1.14193C13.962 3.00959 9.89682 3.55797 6.76007 3.63427C5.19406 3.67236 3.86676 3.59263 2.93262 3.50361C2.46573 3.45912 2.09753 3.41236 1.84744 3.37696C1.72241 3.35927 1.62692 3.34442 1.56345 3.33412C1.53168 3.32897 1.50793 3.32497 1.49249 3.32231L1.47559 3.31937L1.47119 3.31859C1.47119 3.31859 1.47122 3.31859 1.47083 3.32079C0.989771 3.23753 0.498884 3.18292 0 3.15877V4.16008C0.500292 4.18651 0.991733 4.24637 1.47211 4.33747L1.46594 4.3312C1.52969 4.34119 1.61047 4.35339 1.70731 4.36709C1.97116 4.40444 2.35449 4.45305 2.83777 4.4991C3.80396 4.59117 5.17166 4.6732 6.78439 4.63397C10.0043 4.55565 14.2301 3.99339 18.1884 2.03696L18.1952 2.03349C18.3121 1.97346 18.4144 2.00452 18.4644 2.04726C18.4881 2.06759 18.4919 2.08284 18.4923 2.08545C18.4923 2.08545 18.4932 2.09088 18.4916 2.09869C18.49 2.10672 18.4851 2.12399 18.4692 2.1501L18.4591 2.16651L18.4504 2.18364C16.8324 5.35766 14.8269 8.32733 13.222 10.5073C12.4203 11.5963 11.7203 12.4858 11.2213 13.1024C10.9718 13.4107 10.7727 13.6506 10.6363 13.8131C10.5681 13.8943 10.5156 13.9561 10.4803 13.9974L10.4406 14.0438L10.4308 14.0552L10.4279 14.0586L10.5428 14.1582L10.3668 14.0996L10.3605 14.0922C10.3889 14.3915 10.4053 14.6942 10.4092 15H11.4093Z" fill="#DFE0E3"/>
</svg>