<svg width="18" height="18" viewBox="0 0 18 18" fill="none" xmlns="http://www.w3.org/2000/svg">
	<path d="M5.82804 4.34811H11.8151C12.6436 4.34811 13.3151 5.01968 13.3151 5.84811V12.0264H13.4755C14.3039 12.0264 14.9755 11.3548 14.9755 10.5264V4.53125C14.9755 3.70282 14.3039 3.03125 13.4755 3.03125H7.317C6.54982 3.03125 5.91824 3.60687 5.82804 4.34811Z" fill="#A8ADB4"/>
	<path fill-rule="evenodd" clip-rule="evenodd" d="M3.01709 7.46348C3.01709 6.63505 3.68866 5.96348 4.51709 5.96348H10.5211C11.3495 5.96348 12.0211 6.63505 12.0211 7.46348V13.4675C12.0211 14.2959 11.3495 14.9675 10.5211 14.9675H4.51709C3.68866 14.9675 3.01709 14.2959 3.01709 13.4675V7.46348ZM10.4628 7.52205H4.57552V13.4093H10.4628V7.52205Z" fill="#A8ADB4"/>
</svg>
