<svg width="18" height="18" viewBox="0 0 18 18" fill="none" xmlns="http://www.w3.org/2000/svg">
	<path d="M13.0001 0.958984C13.0001 0.682842 13.224 0.458984 13.5001 0.458984H14.5001C14.7763 0.458984 15.0001 0.682842 15.0001 0.958984V3H17.0009C17.277 3 17.5009 3.22386 17.5009 3.5V4.5C17.5009 4.77614 17.277 5 17.0009 5H15.0001V7.04102C15.0001 7.31716 14.7763 7.54102 14.5001 7.54102H13.5001C13.224 7.54102 13.0001 7.31716 13.0001 7.04102V5H10.9994C10.7232 5 10.4994 4.77614 10.4994 4.5V3.5C10.4994 3.22386 10.7232 3 10.9994 3H13.0001V0.958984Z" fill="#C9CCD0"/>
	<path d="M14.1608 10C14.8126 10 15.4403 9.89699 16.0286 9.70635V12.7328C16.0286 13.4063 15.4826 13.9523 14.8091 13.9523H8.50549L5.00883 17.4485C4.75684 17.7005 4.32601 17.522 4.32601 17.1656V13.9523H2.20189C1.5284 13.9523 0.982422 13.4063 0.982422 12.7328V4.30638C0.982422 3.63289 1.5284 3.08691 2.20189 3.08691H8.16815C8.12821 3.36779 8.10754 3.65487 8.10754 3.94678C8.10754 7.28988 10.8177 10 14.1608 10Z" fill="#C9CCD0"/>
</svg>
