<svg width="24" height="24" viewBox="0 0 24 24" fill="none" xmlns="http://www.w3.org/2000/svg">
<path fill-rule="evenodd" clip-rule="evenodd" d="M15.1903 17.2925C15.1662 17.3446 15.1338 17.3938 15.0928 17.4382L14.9429 17.6009L14.6644 17.948C14.6153 18.0084 14.5563 18.056 14.4916 18.0903L14.3952 18.1949C14.1845 18.4234 13.8285 18.4379 13.6001 18.2272L10.0245 14.9304C9.79606 14.7197 9.78161 14.3637 9.99231 14.1353L10.5434 13.5252C10.7541 13.2968 11.11 13.2823 11.3385 13.4929L13.7816 15.5606L19.1012 9.36509C19.2971 9.12396 19.6515 9.08722 19.8928 9.28323L20.4962 9.78551C20.7373 9.98145 20.774 10.3359 20.5781 10.5771L15.1903 17.2925ZM15.0748 8.05769C15.413 8.05769 15.6871 8.33182 15.6871 8.67V8.68917C15.6871 9.02729 15.413 9.30143 15.0748 9.30143H10.5015C10.1634 9.30143 9.88923 9.02729 9.88923 8.68917V8.67C9.88923 8.33182 10.1634 8.05769 10.5015 8.05769H15.0748ZM8.66463 8.05769C9.00281 8.05769 9.27695 8.33182 9.27695 8.67C9.27695 9.00819 9.00281 9.28232 8.66463 9.28232H8.30109C7.96291 9.28232 7.68872 9.00819 7.68872 8.67C7.68872 8.33182 7.96291 8.05769 8.30109 8.05769H8.66463ZM15.0748 10.507C15.413 10.507 15.6871 10.7811 15.6871 11.1193V11.1384C15.6871 11.4766 15.413 11.7507 15.0748 11.7507H10.5015C10.1634 11.7507 9.88923 11.4766 9.88923 11.1384V11.1193C9.88923 10.7811 10.1634 10.507 10.5015 10.507H15.0748ZM8.66463 10.507C9.00281 10.507 9.27695 10.7811 9.27695 11.1193C9.27695 11.4575 9.00281 11.7316 8.66463 11.7316H8.30109C7.96291 11.7316 7.68872 11.4575 7.68872 11.1193C7.68872 10.7811 7.96291 10.507 8.30109 10.507H8.66463ZM17.2371 17.5296L18.4617 15.9966V19.6917C18.4617 20.3681 17.9134 20.9163 17.2371 20.9163H6.21536C5.53899 20.9163 4.99072 20.3681 4.99072 19.6917V6.22073C4.99072 5.54436 5.53899 4.99609 6.21536 4.99609H17.2371C17.9134 4.99609 18.4617 5.54436 18.4617 6.22073V7.20674L17.2371 8.73974V6.22073H6.21536V19.6917H17.2371V17.5296Z" fill="#525C69"/>
</svg>
