<svg width="24" height="24" viewBox="0 0 24 24" fill="none" xmlns="http://www.w3.org/2000/svg">
<path fill-rule="evenodd" clip-rule="evenodd" d="M7.97117 6.32228C6.13143 6.32228 5.69954 7.27564 5.69954 7.61665V8.55579H10.019V7.61665C10.019 7.37848 9.92177 7.07223 9.64879 6.82081C9.3809 6.57409 8.87858 6.32228 7.97117 6.32228ZM4.20135 10.836V9.83491C3.83834 10.0769 3.59917 10.49 3.59917 10.959C3.59917 11.7046 4.20359 12.309 4.94917 12.309C5.69476 12.309 6.29917 11.7046 6.29917 10.959C6.29917 10.4911 6.06113 10.0788 5.69954 9.83661V10.836C5.69954 11.2497 5.36416 11.5851 4.95045 11.5851C4.53674 11.5851 4.20135 11.2497 4.20135 10.836ZM4.20135 7.61665V8.55579H2.53816C2.37247 8.55579 2.23816 8.6901 2.23816 8.85579V15.6443C2.23816 17.3012 3.5813 18.6443 5.23816 18.6443H10.4804C12.1372 18.6443 13.4804 17.3012 13.4804 15.6443V8.85579C13.4804 8.6901 13.3461 8.55579 13.1804 8.55579H11.5172V7.61665C11.5172 6.98785 11.2648 6.27237 10.6637 5.7188C10.0576 5.16054 9.16145 4.8241 7.97117 4.8241C5.61554 4.8241 4.20135 6.16778 4.20135 7.61665ZM10.019 10.836V9.83671C9.65749 10.0789 9.41951 10.4912 9.41951 10.959C9.41951 11.7046 10.0239 12.309 10.7695 12.309C11.5151 12.309 12.1195 11.7046 12.1195 10.959C12.1195 10.49 11.8803 10.0768 11.5172 9.83481V10.836C11.5172 11.2497 11.1818 11.5851 10.7681 11.5851C10.3544 11.5851 10.019 11.2497 10.019 10.836ZM16.4342 8.41296C16.0228 8.41296 15.6893 8.74647 15.6893 9.15787C15.6893 9.56928 16.0228 9.90279 16.4342 9.90279H21.9444C22.3558 9.90279 22.6893 9.56928 22.6893 9.15787C22.6893 8.74647 22.3558 8.41296 21.9444 8.41296H16.4342ZM16.4342 11.4447C16.0228 11.4447 15.6893 11.7782 15.6893 12.1896C15.6893 12.601 16.0228 12.9345 16.4342 12.9345H21.9444C22.3558 12.9345 22.6893 12.601 22.6893 12.1896C22.6893 11.7782 22.3558 11.4447 21.9444 11.4447H16.4342ZM15.6893 15.2214C15.6893 14.8099 16.0228 14.4764 16.4342 14.4764H20.8088C21.2203 14.4764 21.5538 14.8099 21.5538 15.2214C21.5538 15.6328 21.2203 15.9663 20.8089 15.9663H16.4342C16.0228 15.9663 15.6893 15.6328 15.6893 15.2214Z" fill="#525C69"/>
</svg>
