<svg width="86" height="87" viewBox="0 0 86 87" fill="none" xmlns="http://www.w3.org/2000/svg">
	<g filter="url(#filter0_d_13851_69346)">
		<rect x="8" y="4" width="70" height="70" rx="18" fill="#242A2F"/>
	</g>
	<path d="M16.7 20.8396C16.7 18.3101 18.7506 16.2596 21.28 16.2596H54.7201C57.2496 16.2596 59.3002 18.3101 59.3002 20.8396V43.2797C59.3002 45.8091 57.2496 47.8597 54.7201 47.8597H21.28C18.7505 47.8597 16.7 45.8091 16.7 43.2797V20.8396Z" fill="#242A2F" stroke="#24B4E1" stroke-width="1.4"/>
	<path d="M71 49.721C71 56.9774 65.1832 62.8599 58.0078 62.8599C50.8324 62.8599 45.0156 56.9774 45.0156 49.721C45.0156 42.4645 50.8324 36.582 58.0078 36.582C65.1832 36.582 71 42.4645 71 49.721Z" fill="#24B4E1"/>
	<g filter="url(#filter1_d_13851_69346)">
		<path fill-rule="evenodd" clip-rule="evenodd" d="M51.2749 44.4648H64.7407C65.0883 44.4648 65.37 44.7709 65.37 45.1485C65.37 45.225 65.3581 45.301 65.335 45.3732L64.9281 46.6428C64.8401 46.9176 64.6016 47.1017 64.3339 47.1017H51.6785C51.4101 47.1017 51.1713 46.9168 51.0837 46.6412L50.6801 45.3716C50.5667 45.0148 50.741 44.6255 51.0695 44.5023C51.1356 44.4775 51.205 44.4648 51.2749 44.4648ZM53.4928 49.059H62.5228C62.8704 49.059 63.1521 49.365 63.1521 49.7426C63.1521 49.8245 63.1385 49.9058 63.112 49.9826L62.6739 51.2522C62.5818 51.519 62.347 51.6958 62.0847 51.6958H53.9077C53.6413 51.6958 53.4038 51.5136 53.3147 51.2409L52.8998 49.9713C52.7836 49.6155 52.9548 49.2247 53.2823 49.0984C53.3499 49.0723 53.4211 49.059 53.4928 49.059ZM56.2963 53.6531H59.7193C60.0669 53.6531 60.3486 53.9591 60.3486 54.3367C60.3486 54.4032 60.3396 54.4694 60.3221 54.5331L59.9716 55.8026C59.8918 56.0918 59.6468 56.2899 59.3689 56.2899H56.6847C56.4137 56.2899 56.1731 56.1013 56.0876 55.8219L55.6992 54.5523C55.5896 54.194 55.768 53.8071 56.0978 53.688C56.1618 53.6649 56.2289 53.6531 56.2963 53.6531Z" fill="#242A2F"/>
	</g>
	<path fill-rule="evenodd" clip-rule="evenodd" d="M24.25 21.0596C22.7312 21.0596 21.5 22.2908 21.5 23.8096C21.5 25.3284 22.7312 26.5596 24.25 26.5596H24.5496C24.6877 26.5596 24.7996 26.6715 24.7996 26.8096V29.2559C24.7996 29.4786 25.0689 29.5902 25.2264 29.4327L26.9996 27.6595L28.0263 26.6328C28.0732 26.5859 28.1368 26.5596 28.2031 26.5596H40.7501C42.2689 26.5596 43.5001 25.3284 43.5001 23.8096C43.5001 22.2908 42.2689 21.0596 40.7501 21.0596H24.25Z" fill="#779E00"/>
	<path fill-rule="evenodd" clip-rule="evenodd" d="M24.25 36.46C22.7312 36.46 21.5 37.6912 21.5 39.21C21.5 40.7288 22.7312 41.96 24.25 41.96H24.5496C24.6877 41.96 24.7996 42.0719 24.7996 42.21V44.6565C24.7996 44.8792 25.0689 44.9908 25.2264 44.8333L26.9996 43.06L28.0265 42.0332C28.0734 41.9863 28.137 41.96 28.2033 41.96H35.25C36.7688 41.96 38.0001 40.7288 38.0001 39.21C38.0001 37.6912 36.7688 36.46 35.25 36.46H24.25Z" fill="#779E00"/>
	<path fill-rule="evenodd" clip-rule="evenodd" d="M51.75 28.7598C53.2688 28.7598 54.5 29.991 54.5 31.5098C54.5 33.0286 53.2688 34.2598 51.75 34.2598H51.1995V37.5598L48.9995 35.3597L47.8996 34.2598H36.3499C34.8311 34.2598 33.5999 33.0286 33.5999 31.5098C33.5999 29.991 34.8311 28.7598 36.3499 28.7598H51.75Z" fill="#24B4E1"/>
	<rect x="33" y="67" width="20" height="20" rx="6" fill="#213B49"/>
	<path d="M34.666 72.5131C34.666 70.389 36.388 68.667 38.5122 68.667H47.4865C49.6107 68.667 51.3327 70.389 51.3327 72.5131V81.4875C51.3327 83.6117 49.6107 85.3337 47.4865 85.3337H38.5122C36.388 85.3337 34.666 83.6117 34.666 81.4875V72.5131Z" fill="#6ED8F9"/>
	<path fill-rule="evenodd" clip-rule="evenodd" d="M46.3974 80.8847H39.9557C39.9006 80.8847 39.8459 80.8826 39.7918 80.8786C38.336 80.8451 37.1661 79.6423 37.166 78.1635C37.1664 77.4428 37.4502 76.7517 37.955 76.2423C38.2137 75.9813 38.5197 75.7789 38.8525 75.6437C38.8469 75.5703 38.8441 75.4962 38.8441 75.4214C38.8445 74.6609 39.144 73.9317 39.6766 73.3943C40.2092 72.8569 40.9313 72.5552 41.6841 72.5557C42.6483 72.5569 43.4996 73.044 44.0113 73.7876C44.2542 73.7006 44.5158 73.6533 44.7882 73.6535C45.9919 73.6549 46.9805 74.5819 47.0951 75.7674C48.2484 76.0215 49.1115 77.0595 49.1105 78.3006C49.1093 79.7309 47.961 80.8896 46.5453 80.889C46.4957 80.889 46.4464 80.8875 46.3974 80.8847Z" fill="white"/>
	<path fill-rule="evenodd" clip-rule="evenodd" d="M45.4982 77.2779C45.4982 76.0506 44.5032 75.0557 43.2759 75.0557C42.0487 75.0557 41.0537 76.0506 41.0537 77.2779C41.0537 78.5051 42.0487 79.5001 43.2759 79.5001C44.5032 79.5001 45.4982 78.5051 45.4982 77.2779ZM44.2073 77.153H43.449V76.1271C43.4484 75.9814 43.3193 75.8638 43.1605 75.8642C43.0842 75.864 43.011 75.8915 42.9569 75.9409C42.9029 75.9902 42.8724 76.0572 42.8722 76.1271V77.4159C42.8722 77.562 43.0013 77.6805 43.1606 77.6805C43.1724 77.6805 43.184 77.6799 43.1954 77.6786H44.2073C44.2835 77.6789 44.3568 77.6514 44.4109 77.6021C44.465 77.5528 44.4956 77.4859 44.4958 77.4159C44.4952 77.2702 44.3661 77.1526 44.2073 77.153Z" fill="#5DDB01"/>
	<defs>
		<filter id="filter0_d_13851_69346" x="0" y="0" width="86" height="86" filterUnits="userSpaceOnUse" color-interpolation-filters="sRGB">
			<feFlood flood-opacity="0" result="BackgroundImageFix"/>
			<feColorMatrix in="SourceAlpha" type="matrix" values="0 0 0 0 0 0 0 0 0 0 0 0 0 0 0 0 0 0 127 0" result="hardAlpha"/>
			<feOffset dy="4"/>
			<feGaussianBlur stdDeviation="4"/>
			<feComposite in2="hardAlpha" operator="out"/>
			<feColorMatrix type="matrix" values="0 0 0 0 0 0 0 0 0 0 0 0 0 0 0 0 0 0 0.06 0"/>
			<feBlend mode="normal" in2="BackgroundImageFix" result="effect1_dropShadow_13851_69346"/>
			<feBlend mode="normal" in="SourceGraphic" in2="effect1_dropShadow_13851_69346" result="shape"/>
		</filter>
		<filter id="filter1_d_13851_69346" x="44.1263" y="42.2918" width="27.7631" height="24.8637" filterUnits="userSpaceOnUse" color-interpolation-filters="sRGB">
			<feFlood flood-opacity="0" result="BackgroundImageFix"/>
			<feColorMatrix in="SourceAlpha" type="matrix" values="0 0 0 0 0 0 0 0 0 0 0 0 0 0 0 0 0 0 127 0" result="hardAlpha"/>
			<feOffset dy="4.34615"/>
			<feGaussianBlur stdDeviation="3.25962"/>
			<feComposite in2="hardAlpha" operator="out"/>
			<feColorMatrix type="matrix" values="0 0 0 0 0.321569 0 0 0 0 0.360784 0 0 0 0 0.411765 0 0 0 0.1 0"/>
			<feBlend mode="normal" in2="BackgroundImageFix" result="effect1_dropShadow_13851_69346"/>
			<feBlend mode="normal" in="SourceGraphic" in2="effect1_dropShadow_13851_69346" result="shape"/>
		</filter>
	</defs>
</svg>
