<?xml version="1.0" encoding="UTF-8"?> <!-- Generator: Adobe Illustrator 24.2.1, SVG Export Plug-In . SVG Version: 6.00 Build 0) --> <svg xmlns="http://www.w3.org/2000/svg" xmlns:xlink="http://www.w3.org/1999/xlink" id="Layer_1" x="0px" y="0px" viewBox="0 0 243.12 59.51" style="enable-background:new 0 0 243.12 59.51;" xml:space="preserve"> <style type="text/css"> .st0{fill:#FFFFFF;} </style> <g> <path class="st0" d="M24.36,26.1c-0.21,0.27-0.41,0.48-0.61,0.63c-0.2,0.15-0.49,0.23-0.87,0.23c-0.36,0-0.71-0.11-1.06-0.33 c-0.34-0.22-0.75-0.47-1.23-0.74c-0.48-0.28-1.04-0.52-1.7-0.74c-0.66-0.22-1.47-0.33-2.44-0.33c-1.24,0-2.32,0.22-3.26,0.67 c-0.93,0.45-1.71,1.09-2.33,1.93c-0.62,0.84-1.08,1.85-1.38,3.04c-0.3,1.19-0.46,2.54-0.46,4.04c0,1.56,0.17,2.95,0.5,4.17 c0.33,1.22,0.81,2.24,1.44,3.07s1.39,1.46,2.28,1.88c0.89,0.43,1.9,0.64,3.03,0.64c1.12,0,2.03-0.14,2.73-0.41 c0.69-0.28,1.28-0.58,1.76-0.91c0.48-0.33,0.89-0.64,1.24-0.91s0.75-0.41,1.19-0.41c0.57,0,1,0.22,1.29,0.66l2.03,2.57 c-0.78,0.91-1.63,1.68-2.54,2.3c-0.91,0.62-1.86,1.11-2.84,1.48s-1.99,0.63-3.04,0.79c-1.05,0.15-2.08,0.23-3.11,0.23 c-1.81,0-3.51-0.34-5.11-1.01c-1.6-0.68-2.99-1.66-4.18-2.96c-1.19-1.29-2.13-2.88-2.83-4.75c-0.7-1.88-1.04-4.01-1.04-6.41 c0-2.15,0.31-4.15,0.93-5.98c0.62-1.84,1.53-3.43,2.73-4.77c1.2-1.34,2.68-2.39,4.45-3.16c1.77-0.76,3.81-1.14,6.11-1.14 c2.19,0,4.11,0.35,5.75,1.06c1.65,0.7,3.13,1.71,4.44,3.03L24.36,26.1z"></path> <path class="st0" d="M31.01,49.2V6.77h7.05v16.31c1.14-1.08,2.4-1.96,3.77-2.63s2.98-1,4.83-1c1.6,0,3.02,0.27,4.25,0.81 c1.24,0.54,2.27,1.3,3.1,2.28c0.83,0.98,1.46,2.15,1.88,3.51c0.43,1.36,0.64,2.86,0.64,4.5V49.2h-7.05V30.55 c0-1.79-0.41-3.17-1.24-4.15c-0.83-0.98-2.07-1.47-3.73-1.47c-1.22,0-2.36,0.28-3.43,0.83c-1.07,0.55-2.08,1.3-3.03,2.26V49.2 H31.01z"></path> <path class="st0" d="M75.59,19.45c1.85,0,3.55,0.3,5.1,0.89c1.55,0.59,2.89,1.45,4.01,2.58c1.12,1.13,2,2.52,2.63,4.17 c0.63,1.65,0.94,3.53,0.94,5.64c0,0.53-0.02,0.98-0.07,1.33c-0.05,0.35-0.13,0.63-0.26,0.83c-0.12,0.2-0.29,0.34-0.5,0.43 c-0.21,0.09-0.48,0.13-0.8,0.13h-18.1c0.21,3.01,1.02,5.22,2.43,6.62c1.41,1.41,3.27,2.11,5.6,2.11c1.14,0,2.13-0.13,2.96-0.4 c0.83-0.27,1.55-0.56,2.17-0.89c0.62-0.32,1.16-0.62,1.63-0.88s0.92-0.4,1.36-0.4c0.29,0,0.53,0.06,0.74,0.17 c0.21,0.11,0.39,0.28,0.54,0.49l2.06,2.57c-0.78,0.91-1.66,1.68-2.63,2.3c-0.97,0.62-1.98,1.11-3.04,1.48s-2.13,0.63-3.23,0.79 c-1.1,0.15-2.16,0.23-3.18,0.23c-2.04,0-3.93-0.34-5.68-1.01c-1.75-0.68-3.27-1.67-4.57-3c-1.29-1.32-2.31-2.96-3.06-4.91 c-0.74-1.95-1.11-4.21-1.11-6.78c0-2,0.32-3.88,0.97-5.64c0.65-1.76,1.57-3.29,2.78-4.6c1.21-1.3,2.68-2.34,4.43-3.1 C71.43,19.83,73.4,19.45,75.59,19.45z M75.73,24.5c-2.06,0-3.66,0.58-4.83,1.74c-1.16,1.16-1.9,2.81-2.23,4.94h13.25 c0-0.91-0.12-1.77-0.37-2.58c-0.25-0.81-0.63-1.52-1.14-2.13c-0.51-0.61-1.16-1.09-1.94-1.44C77.69,24.68,76.78,24.5,75.73,24.5z"></path> <path class="st0" d="M114.59,26.1c-0.21,0.27-0.41,0.48-0.61,0.63c-0.2,0.15-0.49,0.23-0.87,0.23c-0.36,0-0.71-0.11-1.06-0.33 c-0.34-0.22-0.75-0.47-1.23-0.74c-0.48-0.28-1.04-0.52-1.7-0.74c-0.66-0.22-1.47-0.33-2.44-0.33c-1.24,0-2.32,0.22-3.26,0.67 c-0.93,0.45-1.71,1.09-2.33,1.93c-0.62,0.84-1.08,1.85-1.38,3.04c-0.3,1.19-0.46,2.54-0.46,4.04c0,1.56,0.17,2.95,0.5,4.17 c0.33,1.22,0.81,2.24,1.44,3.07s1.39,1.46,2.28,1.88c0.89,0.43,1.9,0.64,3.03,0.64c1.12,0,2.03-0.14,2.73-0.41 c0.69-0.28,1.28-0.58,1.76-0.91c0.48-0.33,0.89-0.64,1.24-0.91s0.75-0.41,1.19-0.41c0.57,0,1,0.22,1.29,0.66l2.03,2.57 c-0.78,0.91-1.63,1.68-2.54,2.3c-0.91,0.62-1.86,1.11-2.84,1.48s-1.99,0.63-3.04,0.79c-1.05,0.15-2.08,0.23-3.11,0.23 c-1.81,0-3.51-0.34-5.11-1.01c-1.6-0.68-2.99-1.66-4.18-2.96c-1.19-1.29-2.13-2.88-2.83-4.75c-0.7-1.88-1.04-4.01-1.04-6.41 c0-2.15,0.31-4.15,0.93-5.98c0.62-1.84,1.53-3.43,2.73-4.77c1.2-1.34,2.68-2.39,4.45-3.16c1.77-0.76,3.81-1.14,6.11-1.14 c2.19,0,4.11,0.35,5.75,1.06c1.65,0.7,3.13,1.71,4.44,3.03L114.59,26.1z"></path> <path class="st0" d="M128.38,6.77v24.3h1.31c0.48,0,0.85-0.07,1.11-0.2s0.55-0.38,0.86-0.74l7.28-9c0.32-0.38,0.67-0.68,1.03-0.9 c0.36-0.22,0.84-0.33,1.43-0.33h6.45l-9.11,10.88c-0.32,0.4-0.66,0.77-1,1.1s-0.71,0.62-1.11,0.87c0.4,0.29,0.75,0.62,1.06,1 c0.3,0.38,0.61,0.79,0.91,1.23l9.77,14.22H142c-0.55,0-1.02-0.1-1.4-0.29c-0.38-0.19-0.72-0.51-1.03-0.97l-7.45-11.11 c-0.29-0.44-0.57-0.72-0.86-0.86c-0.29-0.13-0.71-0.2-1.29-0.2h-1.6V49.2h-7.05V6.77H128.38z"></path> <path class="st0" d="M152.83,49.2V6.77h7.05V23.5c1.16-1.24,2.47-2.22,3.94-2.96c1.47-0.73,3.18-1.1,5.14-1.1 c1.6,0,3.06,0.33,4.38,0.98s2.47,1.61,3.43,2.87s1.7,2.81,2.23,4.65c0.52,1.85,0.79,3.97,0.79,6.37c0,2.19-0.29,4.22-0.88,6.08 c-0.59,1.87-1.43,3.48-2.53,4.85c-1.09,1.37-2.42,2.44-3.97,3.21s-3.29,1.16-5.21,1.16c-0.9,0-1.71-0.09-2.46-0.27 s-1.42-0.43-2.03-0.76s-1.18-0.72-1.7-1.19c-0.52-0.47-1.02-0.99-1.5-1.56l-0.31,1.97c-0.11,0.5-0.31,0.85-0.58,1.06 c-0.28,0.21-0.65,0.31-1.13,0.31H152.83z M166.53,24.93c-1.47,0-2.72,0.31-3.75,0.93c-1.04,0.62-2,1.49-2.9,2.61v13.14 c0.8,0.99,1.67,1.68,2.61,2.07s1.96,0.59,3.07,0.59c1.07,0,2.03-0.2,2.88-0.6c0.86-0.4,1.58-1.01,2.18-1.83s1.06-1.85,1.38-3.1 c0.32-1.25,0.49-2.72,0.49-4.41c0-1.71-0.14-3.17-0.41-4.35c-0.28-1.19-0.67-2.16-1.19-2.9c-0.51-0.74-1.14-1.28-1.87-1.63 C168.3,25.1,167.47,24.93,166.53,24.93z"></path> <path class="st0" d="M197.8,19.45c2.19,0,4.17,0.35,5.95,1.06s3.3,1.7,4.55,3c1.26,1.29,2.23,2.88,2.91,4.74 c0.68,1.87,1.03,3.95,1.03,6.25c0,2.32-0.34,4.42-1.03,6.28c-0.69,1.87-1.66,3.46-2.91,4.77s-2.77,2.32-4.55,3.03 s-3.76,1.06-5.95,1.06s-4.18-0.35-5.97-1.06c-1.79-0.7-3.32-1.71-4.58-3.03c-1.27-1.31-2.25-2.9-2.94-4.77 c-0.7-1.87-1.04-3.96-1.04-6.28c0-2.3,0.35-4.39,1.04-6.25c0.69-1.87,1.67-3.45,2.94-4.74c1.27-1.29,2.79-2.29,4.58-3 C193.62,19.8,195.61,19.45,197.8,19.45z M197.8,44.2c2.44,0,4.24-0.82,5.41-2.46c1.17-1.64,1.76-4.04,1.76-7.2 s-0.59-5.57-1.76-7.22c-1.17-1.66-2.98-2.48-5.41-2.48c-2.47,0-4.3,0.83-5.48,2.5c-1.18,1.67-1.77,4.07-1.77,7.21 s0.59,5.54,1.77,7.18C193.5,43.38,195.33,44.2,197.8,44.2z"></path> <path class="st0" d="M222.99,34.1l-9.62-14.19h6.8c0.51,0,0.89,0.07,1.14,0.21s0.47,0.38,0.66,0.7l6.14,9.79 c0.09-0.32,0.21-0.65,0.36-0.97s0.32-0.65,0.53-0.97l4.94-7.71c0.23-0.36,0.47-0.63,0.71-0.8c0.25-0.17,0.55-0.26,0.91-0.26h6.48 l-9.65,13.88l10.05,15.42h-6.8c-0.51,0-0.93-0.13-1.24-0.4c-0.31-0.27-0.58-0.57-0.79-0.91l-6.23-10.19 c-0.17,0.69-0.41,1.26-0.71,1.71l-5.48,8.48c-0.21,0.32-0.47,0.62-0.77,0.9c-0.3,0.28-0.69,0.41-1.14,0.41h-6.31L222.99,34.1z"></path> </g> </svg> 