<svg xmlns="http://www.w3.org/2000/svg" width="13" height="103" viewBox="0 0 13 103">
  <g fill="none" fill-rule="evenodd" transform="translate(-2)">
    <g fill="#535C69" transform="translate(2 13)">
      <path d="M5.61052631,2.88888889 L5.61052631,0 L1.36842105,0 C0.615771586,0 0,0.433320746 0,0.962962963 L0,12.037037 C0,12.5666541 0.615771586,13 1.36842105,13 L11.6315789,13 C12.3841926,13 13,12.5666541 13,12.037037 L13,5.85185185 L9.57894737,5.85185185 L6.5,5 L5.61052631,2.88888889 L5.61052631,2.88888889 L5.61052631,2.88888889 Z" opacity=".5"/>
      <path fill-opacity=".5" d="M8.66666667,4 L13,4 L7.8,0 L7.8,3.42857143 C7.8,3.77142857 8.23335599,4 8.66666667,4 L8.66666667,4 L8.66666667,4 L8.66666667,4 Z"/>
    </g>
    <path fill="#535C69" d="M4.734645,1.99999999e-07 L4.734645,2.2253597 L8.781811,2.2253597 C10.023114,2.2253597 11.033062,3.36796979 11.033062,4.7724497 C11.033062,6.17692962 10.023114,7.31954079 8.781811,7.31954079 L3.765018,7.31954079 L3.329057,4.66574354 L0,8.43221945 L3.329057,12.1988069 L3.765067,9.5448992 L8.78186,9.5448992 C11.107755,9.5448992 13,7.40404837 13,4.7724497 C12.999951,2.14090737 11.107706,1.99999999e-07 8.781811,1.99999999e-07 L4.734645,1.99999999e-07 L4.734645,1.99999999e-07 L4.734645,1.99999999e-07 Z" transform="matrix(1 0 0 -1 2 38.199)" opacity=".5"/>
    <path fill="#535C69" d="M0,0 L12,0 L12,2.2 L0,2.2 L0,0 L0,0 L0,0 Z M0,4.4 L12,4.4 L12,6.6 L0,6.6 L0,4.4 L0,4.4 L0,4.4 Z M0,8.8 L5,8.8 L9,8.8 L12,8.8 L12,11 L0,11 L0,8.8 L0,8.8 L0,8.8 Z" opacity=".3" transform="translate(2 39)"/>
    <path fill="#A9AEB4" d="M6.49235294,0.00383480826 C2.92117647,0.00383480826 0.0229411765,2.91061947 0.0229411765,6.49233038 C0.0229411765,10.0740413 2.92117647,12.980826 6.49235294,12.980826 C10.0635294,12.980826 12.9617647,10.0740413 12.9617647,6.49233038 C12.9617647,2.91061947 10.0673529,0.00383480826 6.49235294,0.00383480826 L6.49235294,0.00383480826 L6.49235294,0.00383480826 Z M6.49235294,10.9867257 C4.01470588,10.9867257 2.00735294,8.97345133 2.00735294,6.48849558 C2.00735294,4.00353982 4.01852941,1.99410029 6.49235294,1.99410029 C8.96617647,1.99410029 10.9773529,4.00737463 10.9773529,6.49233038 C10.9773529,8.97728614 8.97,10.9867257 6.49235294,10.9867257 L6.49235294,10.9867257 L6.49235294,10.9867257 Z M6.21323529,3.54336283 C6.15205882,3.75044248 6.06411765,3.91533923 5.94941176,4.0380531 C5.78117647,4.21828909 5.55941176,4.33716814 5.28794118,4.39852507 C5.11970588,4.43687316 4.82147059,4.46371681 4.39323529,4.48289086 L4.39323529,5.40324484 L6.00676471,5.40324484 L6.00676471,10.1545723 L7.39088235,10.1545723 L7.39088235,3.26725664 L6.26294118,3.26725664 C6.26294118,3.32861357 6.24764706,3.41681416 6.21323529,3.54336283 L6.21323529,3.54336283 L6.21323529,3.54336283 Z" transform="translate(2)"/>
    <path fill="#000000" d="M0,0 L12,0 L12,2.2 L0,2.2 L0,0 L0,0 L0,0 Z M0,4.4 L12,4.4 L12,6.6 L0,6.6 L0,4.4 L0,4.4 L0,4.4 Z M0,8.8 L5,8.8 L9,8.8 L12,8.8 L12,11 L0,11 L0,8.8 L0,8.8 L0,8.8 Z" opacity=".3" transform="translate(2 53)"/>
    <polygon fill="#535C69" points="9.61 7.36 9.61 2.485 7.36 2.485 7.36 7.36 2.485 7.36 2.485 9.61 7.36 9.61 7.36 14.485 9.61 14.485 9.61 9.61 14.485 9.61 14.485 7.36" transform="rotate(45 -67.562 39.985)" opacity=".3"/>
    <polygon fill="#000000" points="9.61 7.36 9.61 2.485 7.36 2.485 7.36 7.36 2.485 7.36 2.485 9.61 7.36 9.61 7.36 14.485 9.61 14.485 9.61 9.61 14.485 9.61 14.485 7.36" transform="rotate(45 -82.048 45.985)" opacity=".3"/>
    <path fill="#A9AEB4" d="M5.76857301,2.24246372 L6.69325945,2.24246372 L6.69325945,6.86213706 L5.97405889,6.86213706 C5.56174085,6.86537207 5.17031957,6.68095686 4.91029359,6.36095199 C4.54152117,5.83184316 4.36468418,5.19257743 4.40910852,4.54916798 C4.40910852,2.52813921 5.57060491,2.26752297 5.73098413,2.24121076 C5.74351827,2.24010475 5.75614035,2.24052549 5.76857301,2.24246372 L5.76857301,2.24246372 Z M10.5,0 L13,6.38 L10.5,13 L0,13 L0,0 L10.5,0 L10.5,0 Z M7.80338437,1.38167837 L5.89011039,1.38167837 C4.24584474,1.60910011 3.07097262,3.08914099 3.22255288,4.74212423 C3.24036635,5.97809376 3.94126701,7.10252558 5.04310763,7.6627802 L2.883,11.562 L4.24371745,11.562 L5.96403519,7.76301721 L6.72458352,7.76301721 L6.72458352,11.562 L7.80338437,11.562 L7.80338437,1.38167837 L7.80338437,1.38167837 L7.80338437,1.38167837 Z" transform="translate(2 90)"/>
  </g>
</svg>
