<svg width="122" height="121" viewBox="0 0 122 121" fill="none" xmlns="http://www.w3.org/2000/svg">
	<path opacity="0.8" fill-rule="evenodd" clip-rule="evenodd" d="M94.0699 107.57H27.7529C27.1855 107.57 26.6229 107.549 26.066 107.51C11.0781 107.181 0.00075724 95.3733 0 80.8559C0.00435744 73.7801 3.17244 67.4493 7.78062 61.9112C9.9834 59.2639 11.5787 57.5189 14.8 55.927C14.7426 55.207 14.7135 54.4794 14.7135 53.7452C14.7182 46.2792 17.8012 39.1208 23.2842 33.8448C28.7672 28.5688 36.2012 25.6073 43.9506 25.6118C53.8775 25.6235 62.5358 30.7983 67.8029 38.0979C71.2707 37.2441 75.5587 36.9712 78.3638 36.9726C90.7553 36.987 100.933 46.0875 102.113 57.7255C113.986 60.2193 122.01 70.0176 122 82.2017C121.988 96.2429 110.167 107.618 95.5923 107.612C95.0813 107.612 94.5737 107.597 94.0699 107.57Z" fill="url(#paint0_linear_7238_371423)"/>
	<g filter="url(#filter0_d_7238_371423)">
		<path d="M35.4597 35.4714C35.4562 31.4328 37.663 27.7742 41.0834 26.1478L56.3079 18.9086C58.7268 17.7585 61.4816 17.7599 63.8995 18.9126L79.1611 26.1887C82.5711 27.8145 84.7728 31.4612 84.7763 35.4892L84.7925 54.1816C84.7959 58.1444 82.6704 61.7489 79.3452 63.419L64.114 71.0689C61.5944 72.3344 58.6863 72.3325 56.1681 71.0638L40.9132 63.3783C37.5993 61.7087 35.4794 58.1166 35.476 54.165L35.4597 35.4714Z" fill="white"/>
	</g>
	<g filter="url(#filter1_d_7238_371423)">
		<path d="M40.8219 35.9806C40.82 33.737 42.0459 31.7044 43.9462 30.8008L57.9998 24.1184C59.3437 23.4794 60.8741 23.4802 62.2174 24.1206L76.2952 30.8323C78.1897 31.7355 79.4128 33.7614 79.4148 35.9992L79.43 53.6063C79.4319 55.8079 78.2511 57.8104 76.4038 58.7382L62.3446 65.7995C60.9448 66.5025 59.3292 66.5015 57.9302 65.7966L43.8579 58.7068C42.0168 57.7793 40.8391 55.7837 40.8372 53.5884L40.8219 35.9806Z" fill="#F6F6F6"/>
	</g>
	<g opacity="0.8">
		<path fill-rule="evenodd" clip-rule="evenodd" d="M65.3926 40.0585C65.3926 39.9874 65.4019 39.9165 65.4201 39.8475C65.5437 39.3815 66.0446 39.0981 66.5388 39.2147L70.8437 40.2294C71.2544 40.3262 71.5425 40.6741 71.5425 41.0732V48.8884H65.3926V40.0585ZM69.7387 44.3689H66.9821V46.914H69.7387V44.3689Z" fill="#BBBBBB"/>
		<path fill-rule="evenodd" clip-rule="evenodd" d="M49.8945 35.0187V48.8572H53.766V44.4645H56.5225V48.8572H63.732V33.3696C63.732 32.569 63.0435 31.9199 62.1944 31.9199C62.1117 31.9199 62.0294 31.9262 61.9477 31.9387L51.1854 33.5879C50.4412 33.7019 49.8945 34.3079 49.8945 35.0187ZM60.725 47.0096V44.4645H57.9685V47.0096H60.725ZM60.725 36.7029H57.9685V39.2479H60.725V36.7029ZM56.5225 36.7029H53.766V39.2479H56.5225V36.7029ZM60.725 40.5834H57.9685V43.1285H60.725V40.5834ZM56.5225 40.5834H53.766V43.1285H56.5225V40.5834Z" fill="#A6A6A6"/>
		<rect x="46.5" y="50.3311" width="28.117" height="2.97308" rx="1.48654" fill="#A8ADB4"/>
	</g>
	<g filter="url(#filter2_d_7238_371423)">
		<rect x="20" y="58" width="82" height="38" rx="4" fill="white"/>
	</g>
	<rect opacity="0.5" x="59" y="68.1055" width="17" height="3" rx="1.5" fill="#BDC1C6"/>
	<rect x="59" y="75.1055" width="32" height="3" rx="1.5" fill="black" fill-opacity="0.05"/>
	<rect x="59" y="81.1055" width="23.0366" height="3" rx="1.5" fill="black" fill-opacity="0.05"/>
	<rect x="25" y="63" width="28" height="28" rx="3" fill="#F6F6F6"/>
	<path d="M25.4922 67.5593V64.6455C25.4922 63.5409 26.3876 62.6455 27.4922 62.6455H30.406" stroke="#E4E4E4" stroke-linecap="round" stroke-linejoin="round"/>
	<path d="M25.4922 85.2492V88.1631C25.4922 89.2677 26.3876 90.1631 27.4922 90.1631H30.406" stroke="#E4E4E4" stroke-linecap="round" stroke-linejoin="round"/>
	<path d="M53.0078 67.5593V64.6455C53.0078 63.5409 52.1124 62.6455 51.0078 62.6455H48.094" stroke="#E4E4E4" stroke-linecap="round" stroke-linejoin="round"/>
	<path d="M53.0078 85.2492V88.1631C53.0078 89.2677 52.1124 90.1631 51.0078 90.1631H48.094" stroke="#E4E4E4" stroke-linecap="round" stroke-linejoin="round"/>
	<g opacity="0.9">
		<path d="M43.9945 82.5586C44.2102 82.5202 44.3518 82.3133 44.3072 82.0987C44.0667 80.9426 43.6336 79.35 43.6336 79.35C43.6336 78.9041 43.0359 78.3943 41.8582 78.0976C41.4582 77.9885 41.0786 77.8201 40.7334 77.5984C40.6781 77.461 40.6562 77.3133 40.6694 77.1666L40.2919 77.1102C40.2919 77.0786 40.2597 76.6113 40.2597 76.6113C40.7133 76.4626 40.6667 75.5855 40.6667 75.5855C40.9547 75.7413 41.1424 75.0481 41.1424 75.0481C41.4832 74.0842 40.9727 74.1422 40.9727 74.1422C41.062 73.5534 41.062 72.9553 40.9727 72.3665C40.7459 70.4137 37.3286 70.9433 37.734 71.5816C36.7354 71.4013 36.9633 73.6185 36.9633 73.6185L37.1799 74.1917C36.8799 74.3812 36.9387 74.5992 37.0043 74.8427C37.0317 74.9444 37.0603 75.0505 37.0646 75.1609C37.0855 75.7144 37.4318 75.5995 37.4318 75.5995C37.4534 76.5122 37.9145 76.6321 37.9145 76.6321C38.0011 77.2054 37.9473 77.1065 37.9473 77.1065L37.5367 77.155C37.5423 77.2853 37.5315 77.4158 37.5044 77.5435C37.2659 77.6474 37.12 77.7298 36.9758 77.8112C36.8275 77.8949 36.6811 77.9776 36.4376 78.0815C35.5105 78.4768 34.5028 78.9932 34.324 79.6869C34.2146 80.1111 33.9726 81.3013 33.8011 82.1622C33.7573 82.3819 33.9028 82.5945 34.1239 82.6302C35.6092 82.8701 37.1976 83 38.8483 83C40.6563 83 42.3895 82.8442 43.9945 82.5586Z" fill="#B0B0B0"/>
		<path d="M48.4674 80.7491C48.7805 80.666 48.9852 80.3714 48.9064 80.0571C48.7605 79.4754 48.4597 78.7363 48.1004 78.5185C47.6092 78.2208 47.653 78.2826 47.3453 78.1156C47.142 78.0005 46.9274 77.9046 46.7047 77.8291C46.5906 77.7311 46.5022 77.6088 46.4467 77.472C46.3296 77.3297 46.1757 77.219 46.0002 77.1509L45.9871 76.7236L46.9105 76.4419C46.9105 76.4419 47.1487 76.3338 47.1719 76.3338C47.135 76.2585 47.0924 76.1858 47.0446 76.1163C47.0271 76.0709 46.94 75.7592 46.94 75.7592C47.0747 75.9273 47.233 76.0767 47.4106 76.2032C47.2533 75.9163 47.1188 75.6186 47.008 75.3125C46.9339 75.0291 46.8825 74.7407 46.854 74.4499C46.7906 73.9095 46.6918 73.3734 46.5583 72.8447C46.4634 72.5821 46.2944 72.3495 46.07 72.1727C45.7409 71.9497 45.3546 71.8159 44.9523 71.7857H44.906C44.5037 71.8158 44.1174 71.9496 43.7884 72.1727C43.5642 72.3497 43.3953 72.5822 43.3003 72.8447C43.1665 73.3733 43.0677 73.9095 43.0043 74.4499C42.9799 74.7473 42.9309 75.0423 42.8577 75.3322C42.7468 75.6329 42.6098 75.9242 42.448 76.203C42.6246 76.0758 42.782 75.926 42.9157 75.7577C42.9157 75.7577 42.8041 76.0996 42.7863 76.1453C42.7456 76.2043 42.7114 76.2671 42.6841 76.3328C42.7071 76.3328 42.9455 76.4409 42.9455 76.4409L43.8686 76.7236L43.8553 77.1509C43.6799 77.2193 43.526 77.33 43.4088 77.4723C43.3643 77.567 43.3099 77.6571 43.2462 77.7412C44.0872 78.0744 44.5795 78.5621 44.5994 79.1077C44.6033 79.1355 44.6476 79.3014 44.7098 79.5336C44.865 80.1139 45.1309 81.1081 45.1526 81.3956H45.2285C46.4001 81.2272 47.4883 81.0089 48.4674 80.7491Z" fill="#B0B0B0"/>
		<path d="M32.8506 81.3929H32.5157C31.4487 81.2402 30.4507 81.0461 29.541 80.817C29.2234 80.737 29.0105 80.4401 29.0794 80.1199C29.2036 79.5421 29.4749 78.807 29.9312 78.5075C30.2269 78.3135 30.3497 78.2799 30.6574 78.1129C30.8607 77.9978 31.0753 77.9019 31.298 77.8264C31.4121 77.7284 31.5005 77.6061 31.556 77.4693C31.6731 77.327 31.827 77.2163 32.0025 77.1482L32.0159 76.7209L31.0925 76.4392C31.0925 76.4392 30.8543 76.3311 30.831 76.3311C30.8679 76.2558 30.9104 76.1831 30.9581 76.1136C30.9756 76.0682 31.0627 75.7565 31.0627 75.7565C30.9281 75.9246 30.7697 76.074 30.5921 76.2005C30.7494 75.9136 30.8839 75.6159 30.9947 75.3098C31.0688 75.0264 31.1202 74.738 31.1487 74.4472C31.2121 73.9068 31.3109 73.3707 31.4444 72.842C31.5393 72.5794 31.7083 72.3468 31.9327 72.17C32.2618 71.947 32.6481 71.8132 33.0504 71.783H33.0967C33.499 71.8131 33.8853 71.9469 34.2143 72.17C34.4385 72.347 34.6074 72.5795 34.7024 72.842C34.8362 73.3706 34.935 73.9068 34.9984 74.4472C35.0228 74.7446 35.0718 75.0396 35.145 75.3295C35.2559 75.6302 35.3929 75.9214 35.5547 76.2003C35.3783 76.0732 35.2211 75.9235 35.0876 75.7554C35.0901 75.7631 35.1994 76.0977 35.2169 76.1428C35.2576 76.2019 35.2918 76.2647 35.3192 76.3304C35.2961 76.3304 35.0577 76.4385 35.0577 76.4385L34.1343 76.7209L34.1476 77.1482C34.3231 77.2166 34.477 77.3273 34.5942 77.4696C34.6386 77.5643 34.6931 77.6544 34.7568 77.7385C33.9158 78.0717 33.4235 78.5594 33.4039 79.105C33.3999 79.1326 33.3562 79.2962 33.2948 79.5256C33.1397 80.1051 32.8724 81.1046 32.8506 81.3929Z" fill="#B0B0B0"/>
	</g>
	<defs>
		<filter id="filter0_d_7238_371423" x="27.7535" y="12.9099" width="64.7449" height="69.3806" filterUnits="userSpaceOnUse" color-interpolation-filters="sRGB">
			<feFlood flood-opacity="0" result="BackgroundImageFix"/>
			<feColorMatrix in="SourceAlpha" type="matrix" values="0 0 0 0 0 0 0 0 0 0 0 0 0 0 0 0 0 0 127 0" result="hardAlpha"/>
			<feOffset dy="2.56848"/>
			<feGaussianBlur stdDeviation="3.85272"/>
			<feComposite in2="hardAlpha" operator="out"/>
			<feColorMatrix type="matrix" values="0 0 0 0 0.423529 0 0 0 0 0.423529 0 0 0 0 0.423529 0 0 0 0.12 0"/>
			<feBlend mode="normal" in2="BackgroundImageFix" result="effect1_dropShadow_7238_371423"/>
			<feBlend mode="normal" in="SourceGraphic" in2="effect1_dropShadow_7238_371423" result="shape"/>
		</filter>
		<filter id="filter1_d_7238_371423" x="33.1168" y="18.5027" width="54.0183" height="58.0974" filterUnits="userSpaceOnUse" color-interpolation-filters="sRGB">
			<feFlood flood-opacity="0" result="BackgroundImageFix"/>
			<feColorMatrix in="SourceAlpha" type="matrix" values="0 0 0 0 0 0 0 0 0 0 0 0 0 0 0 0 0 0 127 0" result="hardAlpha"/>
			<feOffset dy="2.56848"/>
			<feGaussianBlur stdDeviation="3.85272"/>
			<feComposite in2="hardAlpha" operator="out"/>
			<feColorMatrix type="matrix" values="0 0 0 0 0.423529 0 0 0 0 0.423529 0 0 0 0 0.423529 0 0 0 0.12 0"/>
			<feBlend mode="normal" in2="BackgroundImageFix" result="effect1_dropShadow_7238_371423"/>
			<feBlend mode="normal" in="SourceGraphic" in2="effect1_dropShadow_7238_371423" result="shape"/>
		</filter>
		<filter id="filter2_d_7238_371423" x="12.9256" y="53.2837" width="96.1488" height="52.1488" filterUnits="userSpaceOnUse" color-interpolation-filters="sRGB">
			<feFlood flood-opacity="0" result="BackgroundImageFix"/>
			<feColorMatrix in="SourceAlpha" type="matrix" values="0 0 0 0 0 0 0 0 0 0 0 0 0 0 0 0 0 0 127 0" result="hardAlpha"/>
			<feOffset dy="2.35813"/>
			<feGaussianBlur stdDeviation="3.5372"/>
			<feComposite in2="hardAlpha" operator="out"/>
			<feColorMatrix type="matrix" values="0 0 0 0 0.423529 0 0 0 0 0.423529 0 0 0 0 0.423529 0 0 0 0.12 0"/>
			<feBlend mode="normal" in2="BackgroundImageFix" result="effect1_dropShadow_7238_371423"/>
			<feBlend mode="normal" in="SourceGraphic" in2="effect1_dropShadow_7238_371423" result="shape"/>
		</filter>
		<linearGradient id="paint0_linear_7238_371423" x1="60.5167" y1="41.1153" x2="60.5167" y2="107.612" gradientUnits="userSpaceOnUse">
			<stop stop-color="#A6A6A6" stop-opacity="0.06"/>
			<stop offset="1" stop-color="#979797" stop-opacity="0.16"/>
		</linearGradient>
	</defs>
</svg>
