<svg width="130" height="121" viewBox="0 0 130 121" fill="none" xmlns="http://www.w3.org/2000/svg">
<g opacity="0.8" filter="url(#filter0_d_4530_79207)">
<path fill-rule="evenodd" clip-rule="evenodd" d="M98.0699 107.57H31.7529C31.1855 107.57 30.6229 107.549 30.066 107.51C15.0781 107.181 4.00076 95.3733 4 80.8559C4.00436 73.7801 7.17244 67.4493 11.7806 61.9112C13.9834 59.2639 15.5787 57.5189 18.8 55.927C18.7426 55.207 18.7135 54.4794 18.7135 53.7452C18.7182 46.2792 21.8012 39.1208 27.2842 33.8448C32.7672 28.5688 40.2012 25.6073 47.9506 25.6118C57.8775 25.6235 66.5358 30.7983 71.8029 38.0979C75.2707 37.2441 79.5587 36.9712 82.3638 36.9726C94.7553 36.987 104.933 46.0875 106.113 57.7255C117.986 60.2193 126.01 70.0176 126 82.2017C125.988 96.2429 114.167 107.618 99.5923 107.612C99.0813 107.612 98.5737 107.597 98.0699 107.57Z" fill="url(#paint0_linear_4530_79207)" shape-rendering="crispEdges"/>
</g>
<g filter="url(#filter1_d_4530_79207)">
<rect x="17.2949" y="63.0762" width="26.7495" height="26.7495" rx="4" fill="white"/>
</g>
<rect opacity="0.15" x="20.9961" y="66.7769" width="19.3486" height="19.3486" rx="3" fill="#0AE989"/>
<path opacity="0.8" fill-rule="evenodd" clip-rule="evenodd" d="M30.5433 75.5378C31.8886 75.5378 32.9793 74.4473 32.9793 73.1021C32.9793 71.757 31.8886 70.6665 30.5433 70.6665C29.198 70.6665 28.1073 71.757 28.1073 73.1021C28.1073 74.4473 29.198 75.5378 30.5433 75.5378ZM30.5925 82.2357C33.1483 82.2357 35.2202 82.1908 35.2202 80.5472C35.2202 78.2607 33.1483 76.4072 30.5925 76.4072C28.0367 76.4072 25.9648 78.2607 25.9648 80.5472C25.9648 82.1908 28.0367 82.2357 30.5925 82.2357Z" fill="#14CBC3"/>
<g filter="url(#filter2_d_4530_79207)">
<rect x="51.125" y="71.1406" width="26.7495" height="26.7495" rx="4" fill="white"/>
</g>
<rect opacity="0.4" x="54.8281" y="74.8428" width="19.3449" height="19.3449" rx="3" fill="#FFE1A6"/>
<path fill-rule="evenodd" clip-rule="evenodd" d="M64.3718 83.6016C65.7172 83.6016 66.8079 82.5111 66.8079 81.1658C66.8079 79.8205 65.7172 78.73 64.3718 78.73C63.0263 78.73 61.9356 79.8205 61.9356 81.1658C61.9356 82.5111 63.0263 83.6016 64.3718 83.6016ZM64.421 90.3C66.977 90.3 69.049 90.2552 69.049 88.6114C69.049 86.3248 66.977 84.4711 64.421 84.4711C61.865 84.4711 59.793 86.3248 59.793 88.6114C59.793 90.2552 61.865 90.3 64.421 90.3Z" fill="#FFC34D"/>
<g filter="url(#filter3_d_4530_79207)">
<rect x="84.9551" y="63.0762" width="26.7495" height="26.7495" rx="4" fill="white"/>
</g>
<rect opacity="0.4" x="88.6562" y="66.7769" width="19.3486" height="19.3486" rx="3" fill="#E2F1B3"/>
<path opacity="0.8" fill-rule="evenodd" clip-rule="evenodd" d="M98.202 75.5394C99.5453 75.5394 100.634 74.4506 100.634 73.1076C100.634 71.7645 99.5453 70.6758 98.202 70.6758C96.8588 70.6758 95.7699 71.7645 95.7699 73.1076C95.7699 74.4506 96.8588 75.5394 98.202 75.5394ZM98.2512 82.2267C100.803 82.2267 102.872 82.182 102.872 80.5409C102.872 78.258 100.803 76.4074 98.2512 76.4074C95.6995 76.4074 93.6309 78.258 93.6309 80.5409C93.6309 82.182 95.6995 82.2267 98.2512 82.2267Z" fill="#9DCF00"/>
<g filter="url(#filter4_d_4530_79207)">
<rect x="45.8281" y="14.7319" width="37.3452" height="45.6987" rx="4" fill="white"/>
</g>
<rect opacity="0.5" x="56" y="52.3413" width="17" height="3" rx="1.5" fill="#BDC1C6"/>
<rect x="50.7422" y="19.646" width="27.5175" height="27.5175" rx="3" fill="#ECFAFE"/>
<path fill-rule="evenodd" clip-rule="evenodd" d="M65.7936 41.4902L65.1484 37.7744C65.1399 37.725 65.1297 37.6753 65.1196 37.6254C65.0804 37.4331 65.0408 37.239 65.0885 37.0511C65.1764 36.7047 65.4741 36.3044 65.9982 36.4141L67.8142 36.8908C68.109 36.9351 68.3814 36.9187 68.5132 36.6647L69.0603 35.6104C69.0132 35.5977 68.9655 35.5852 68.9171 35.5729C68.2956 35.4027 67.7048 35.1389 67.1658 34.7907C67.0479 34.7246 67.0658 34.1137 67.0658 34.1137L66.475 34.0255C66.475 33.9759 66.4245 33.2433 66.4245 33.2433C67.1314 33.0101 67.0586 31.6347 67.0586 31.6347C67.5076 31.8791 67.8 30.7906 67.8 30.7906C68.331 29.2783 67.5355 29.3698 67.5355 29.3698C67.6747 28.4466 67.6747 27.5083 67.5355 26.5851C67.1819 23.5226 61.8576 24.354 62.4889 25.3542C60.9329 25.0728 61.2879 28.5482 61.2879 28.5482L61.6254 29.4482C61.1576 29.7461 61.2495 30.0879 61.3521 30.4697C61.3949 30.6289 61.4396 30.7951 61.4463 30.9679C61.4789 31.8351 62.0196 31.6554 62.0196 31.6554C62.0529 33.0868 62.772 33.2732 62.772 33.2732C62.9071 34.1721 62.8229 34.0191 62.8229 34.0191L62.183 34.0951C62.1916 34.2995 62.1747 34.5042 62.1324 34.7046C61.7606 34.8672 61.533 34.9967 61.3076 35.1248C61.0769 35.256 60.8486 35.3859 60.4703 35.5486C59.0257 36.1701 57.4556 36.9783 57.1765 38.0664C57.0949 38.3845 57.015 38.8122 56.9427 39.2581C56.867 39.7255 57.1268 40.183 57.5715 40.3454C59.5119 41.0543 61.7017 41.4744 64.0247 41.5242H64.96C65.2399 41.5182 65.5178 41.5069 65.7936 41.4902Z" fill="#2FC6F6"/>
<path fill-rule="evenodd" clip-rule="evenodd" d="M67.4025 41.5251C67.4463 41.7257 67.4902 41.9546 67.6719 42.0503C67.7344 42.0832 67.805 42.1014 67.8786 42.1014H70.819H73.9286C73.9725 42.1014 74.0155 42.0949 74.0562 42.0827C74.3065 42.0075 74.3607 41.6975 74.4048 41.44L74.8478 38.8507C74.8919 38.5931 75.027 38.278 74.8315 38.1046C74.7414 38.0248 74.6076 37.9942 74.4792 38.0587L72.9243 38.6039C72.7695 38.6816 72.5809 38.6207 72.5009 38.467L71.1005 36.0178C70.9821 35.7902 70.6564 35.7903 70.5382 36.0181L69.1422 38.4662C69.0623 38.6202 68.8734 38.6813 68.7185 38.6033L67.1694 38.0589C67.0112 37.9792 66.8445 38.044 66.7619 38.1676C66.6477 38.3384 66.7559 38.5634 66.7997 38.764L67.4025 41.5251Z" fill="#FFA900"/>
<path d="M50.7422 24.5598V21.646C50.7422 20.5414 51.6376 19.646 52.7422 19.646H55.656" stroke="#C3F0FF" stroke-linecap="round" stroke-linejoin="round"/>
<path d="M50.7422 42.2497V45.1636C50.7422 46.2681 51.6376 47.1636 52.7422 47.1636H55.656" stroke="#C3F0FF" stroke-linecap="round" stroke-linejoin="round"/>
<path d="M78.2598 24.5598V21.646C78.2598 20.5414 77.3643 19.646 76.2598 19.646H73.3459" stroke="#C3F0FF" stroke-linecap="round" stroke-linejoin="round"/>
<path d="M78.2598 42.2497V45.1636C78.2598 46.2681 77.3643 47.1636 76.2598 47.1636H73.3459" stroke="#C3F0FF" stroke-linecap="round" stroke-linejoin="round"/>
<defs>
<filter id="filter0_d_4530_79207" x="0" y="23.6118" width="130" height="90" filterUnits="userSpaceOnUse" color-interpolation-filters="sRGB">
<feFlood flood-opacity="0" result="BackgroundImageFix"/>
<feColorMatrix in="SourceAlpha" type="matrix" values="0 0 0 0 0 0 0 0 0 0 0 0 0 0 0 0 0 0 127 0" result="hardAlpha"/>
<feOffset dy="2"/>
<feGaussianBlur stdDeviation="2"/>
<feComposite in2="hardAlpha" operator="out"/>
<feColorMatrix type="matrix" values="0 0 0 0 0.025382 0 0 0 0 0.275095 0 0 0 0 0.358333 0 0 0 0.06 0"/>
<feBlend mode="normal" in2="BackgroundImageFix" result="effect1_dropShadow_4530_79207"/>
<feBlend mode="normal" in="SourceGraphic" in2="effect1_dropShadow_4530_79207" result="shape"/>
</filter>
<filter id="filter1_d_4530_79207" x="10.2205" y="58.3599" width="40.8988" height="40.8983" filterUnits="userSpaceOnUse" color-interpolation-filters="sRGB">
<feFlood flood-opacity="0" result="BackgroundImageFix"/>
<feColorMatrix in="SourceAlpha" type="matrix" values="0 0 0 0 0 0 0 0 0 0 0 0 0 0 0 0 0 0 127 0" result="hardAlpha"/>
<feOffset dy="2.35813"/>
<feGaussianBlur stdDeviation="3.5372"/>
<feComposite in2="hardAlpha" operator="out"/>
<feColorMatrix type="matrix" values="0 0 0 0 0.423529 0 0 0 0 0.423529 0 0 0 0 0.423529 0 0 0 0.12 0"/>
<feBlend mode="normal" in2="BackgroundImageFix" result="effect1_dropShadow_4530_79207"/>
<feBlend mode="normal" in="SourceGraphic" in2="effect1_dropShadow_4530_79207" result="shape"/>
</filter>
<filter id="filter2_d_4530_79207" x="44.0506" y="66.4244" width="40.8988" height="40.8983" filterUnits="userSpaceOnUse" color-interpolation-filters="sRGB">
<feFlood flood-opacity="0" result="BackgroundImageFix"/>
<feColorMatrix in="SourceAlpha" type="matrix" values="0 0 0 0 0 0 0 0 0 0 0 0 0 0 0 0 0 0 127 0" result="hardAlpha"/>
<feOffset dy="2.35813"/>
<feGaussianBlur stdDeviation="3.5372"/>
<feComposite in2="hardAlpha" operator="out"/>
<feColorMatrix type="matrix" values="0 0 0 0 0.423529 0 0 0 0 0.423529 0 0 0 0 0.423529 0 0 0 0.12 0"/>
<feBlend mode="normal" in2="BackgroundImageFix" result="effect1_dropShadow_4530_79207"/>
<feBlend mode="normal" in="SourceGraphic" in2="effect1_dropShadow_4530_79207" result="shape"/>
</filter>
<filter id="filter3_d_4530_79207" x="77.8807" y="58.3599" width="40.8988" height="40.8983" filterUnits="userSpaceOnUse" color-interpolation-filters="sRGB">
<feFlood flood-opacity="0" result="BackgroundImageFix"/>
<feColorMatrix in="SourceAlpha" type="matrix" values="0 0 0 0 0 0 0 0 0 0 0 0 0 0 0 0 0 0 127 0" result="hardAlpha"/>
<feOffset dy="2.35813"/>
<feGaussianBlur stdDeviation="3.5372"/>
<feComposite in2="hardAlpha" operator="out"/>
<feColorMatrix type="matrix" values="0 0 0 0 0.423529 0 0 0 0 0.423529 0 0 0 0 0.423529 0 0 0 0.12 0"/>
<feBlend mode="normal" in2="BackgroundImageFix" result="effect1_dropShadow_4530_79207"/>
<feBlend mode="normal" in="SourceGraphic" in2="effect1_dropShadow_4530_79207" result="shape"/>
</filter>
<filter id="filter4_d_4530_79207" x="38.7537" y="10.0157" width="51.4945" height="59.8475" filterUnits="userSpaceOnUse" color-interpolation-filters="sRGB">
<feFlood flood-opacity="0" result="BackgroundImageFix"/>
<feColorMatrix in="SourceAlpha" type="matrix" values="0 0 0 0 0 0 0 0 0 0 0 0 0 0 0 0 0 0 127 0" result="hardAlpha"/>
<feOffset dy="2.35813"/>
<feGaussianBlur stdDeviation="3.5372"/>
<feComposite in2="hardAlpha" operator="out"/>
<feColorMatrix type="matrix" values="0 0 0 0 0.423529 0 0 0 0 0.423529 0 0 0 0 0.423529 0 0 0 0.12 0"/>
<feBlend mode="normal" in2="BackgroundImageFix" result="effect1_dropShadow_4530_79207"/>
<feBlend mode="normal" in="SourceGraphic" in2="effect1_dropShadow_4530_79207" result="shape"/>
</filter>
<linearGradient id="paint0_linear_4530_79207" x1="64.5167" y1="41.1153" x2="64.5167" y2="107.612" gradientUnits="userSpaceOnUse">
<stop stop-color="white" stop-opacity="0.4"/>
<stop offset="1" stop-color="white" stop-opacity="0.8"/>
</linearGradient>
</defs>
</svg>
