<svg width="155" height="125" viewBox="0 0 155 125" fill="none" xmlns="http://www.w3.org/2000/svg">
<path fill-rule="evenodd" clip-rule="evenodd" d="M96.2644 142.89H-51.1736C-52.415 142.89 -53.6456 142.846 -54.864 142.759C-87.6512 142.041 -113.998 116.225 -114 84.4846C-113.99 69.0143 -107.599 54.1814 -96.2313 43.2487C-90.4044 37.6448 -83.5148 33.301 -76.019 30.3991C-76.1444 28.8248 -76.2083 27.234 -76.2083 25.6289C-76.198 9.30554 -69.4537 -6.34529 -57.459 -17.8806C-45.4644 -29.4159 -29.202 -35.8908 -12.2494 -35.8808C9.46642 -35.8554 33.3669 -25.3991 44.8892 -9.43962C50.3609 -11.3063 56.2511 -12.3209 62.3874 -12.3178C89.4949 -12.2864 111.759 7.61055 114.34 33.0554C140.314 38.5077 155.023 60.7881 155 87.427C154.974 118.126 131.477 142.995 99.5949 142.983C98.477 142.982 97.3666 142.951 96.2644 142.89Z" fill="#F1F4F6"/>
</svg>
