<svg width="156" height="125" viewBox="0 0 156 125" fill="none" xmlns="http://www.w3.org/2000/svg">
<g clip-path="url(#clip0_4568_87433)">
<path opacity="0.5" fill-rule="evenodd" clip-rule="evenodd" d="M97.2644 142.89H-50.1736C-51.415 142.89 -52.6456 142.846 -53.864 142.759C-86.6512 142.041 -112.998 116.225 -113 84.4846C-112.99 69.0143 -106.599 54.1814 -95.2313 43.2487C-89.4044 37.6448 -82.5148 33.301 -75.019 30.3991C-75.1444 28.8248 -75.2083 27.234 -75.2083 25.6289C-75.198 9.30554 -68.4537 -6.34529 -56.459 -17.8806C-44.4644 -29.4159 -28.202 -35.8908 -11.2494 -35.8808C10.4664 -35.8554 34.3669 -25.3991 45.8892 -9.43962C51.3609 -11.3063 57.2511 -12.3209 63.3874 -12.3178C90.4949 -12.2864 112.759 7.61055 115.34 33.0554C141.314 38.5077 156.023 60.7881 156 87.427C155.974 118.126 132.477 142.995 100.595 142.983C99.477 142.982 98.3666 142.951 97.2644 142.89Z" fill="#C3F0FF"/>
</g>
<defs>
<clipPath id="clip0_4568_87433">
<rect width="303" height="168" fill="white" transform="translate(-147 -43)"/>
</clipPath>
</defs>
</svg>
