<svg width="122" height="121" viewBox="0 0 122 121" fill="none" xmlns="http://www.w3.org/2000/svg">
	<path opacity="0.8" fill-rule="evenodd" clip-rule="evenodd" d="M94.0699 107.57H27.7529C27.1855 107.57 26.6229 107.549 26.066 107.51C11.0781 107.181 0.00075724 95.3733 0 80.8559C0.00435744 73.7801 3.17244 67.4493 7.78062 61.9112C9.9834 59.2639 11.5787 57.5189 14.8 55.927C14.7426 55.207 14.7135 54.4794 14.7135 53.7452C14.7182 46.2792 17.8012 39.1208 23.2842 33.8448C28.7672 28.5688 36.2012 25.6073 43.9506 25.6118C53.8775 25.6235 62.5358 30.7983 67.8029 38.0979C71.2707 37.2441 75.5587 36.9712 78.3638 36.9726C90.7553 36.987 100.933 46.0875 102.113 57.7255C113.986 60.2193 122.01 70.0176 122 82.2017C121.988 96.2429 110.167 107.618 95.5923 107.612C95.0813 107.612 94.5737 107.597 94.0699 107.57Z" fill="url(#paint0_linear_7238_371375)"/>
	<path d="M80.998 79.21L40.0002 78.7899" stroke="#C3F0FF" stroke-linecap="round" stroke-linejoin="round"/>
	<g filter="url(#filter0_d_7238_371375)">
		<rect x="13" y="66" width="26.7495" height="26.7495" rx="4" fill="white"/>
	</g>
	<rect x="16.7012" y="69.7007" width="19.3486" height="19.3486" rx="3" fill="#F6F6F6"/>
	<path opacity="0.8" fill-rule="evenodd" clip-rule="evenodd" d="M26.2484 78.4616C27.5937 78.4616 28.6843 77.3711 28.6843 76.026C28.6843 74.6808 27.5937 73.5903 26.2484 73.5903C24.903 73.5903 23.8124 74.6808 23.8124 76.026C23.8124 77.3711 24.903 78.4616 26.2484 78.4616ZM26.2976 85.1595C28.8534 85.1595 30.9253 85.1147 30.9253 83.471C30.9253 81.1846 28.8534 79.331 26.2976 79.331C23.7418 79.331 21.6699 81.1846 21.6699 83.471C21.6699 85.1147 23.7418 85.1595 26.2976 85.1595Z" fill="#B0B0B0"/>
	<g filter="url(#filter1_d_7238_371375)">
		<rect x="46.8301" y="66" width="26.7495" height="26.7495" rx="4" fill="white"/>
	</g>
	<rect x="50.5332" y="69.7021" width="19.3449" height="19.3449" rx="3" fill="#F6F6F6"/>
	<path fill-rule="evenodd" clip-rule="evenodd" d="M60.0768 78.461C61.4223 78.461 62.513 77.3704 62.513 76.0252C62.513 74.6799 61.4223 73.5894 60.0768 73.5894C58.7314 73.5894 57.6407 74.6799 57.6407 76.0252C57.6407 77.3704 58.7314 78.461 60.0768 78.461ZM60.1261 85.1594C62.682 85.1594 64.7541 85.1145 64.7541 83.4707C64.7541 81.1841 62.682 79.3305 60.1261 79.3305C57.5701 79.3305 55.498 81.1841 55.498 83.4707C55.498 85.1145 57.5701 85.1594 60.1261 85.1594Z" fill="#B0B0B0"/>
	<g filter="url(#filter2_d_7238_371375)">
		<rect x="80.6602" y="66" width="26.7495" height="26.7495" rx="4" fill="white"/>
	</g>
	<rect x="84.3613" y="69.7007" width="19.3486" height="19.3486" rx="3" fill="#F6F6F6"/>
	<path opacity="0.8" fill-rule="evenodd" clip-rule="evenodd" d="M93.9071 78.4632C95.2503 78.4632 96.3392 77.3744 96.3392 76.0314C96.3392 74.6884 95.2503 73.5996 93.9071 73.5996C92.5639 73.5996 91.475 74.6884 91.475 76.0314C91.475 77.3744 92.5639 78.4632 93.9071 78.4632ZM93.9563 85.1506C96.5081 85.1506 98.5767 85.1058 98.5767 83.4647C98.5767 81.1819 96.5081 79.3313 93.9563 79.3313C91.4045 79.3313 89.3359 81.1819 89.3359 83.4647C89.3359 85.1058 91.4045 85.1506 93.9563 85.1506Z" fill="#B0B0B0"/>
	<g filter="url(#filter3_d_7238_371375)">
		<circle cx="59" cy="39" r="22" fill="white"/>
	</g>
	<circle cx="59" cy="39" r="17" fill="#DCDCDC"/>
	<circle cx="59" cy="39" r="13" fill="white"/>
	<circle cx="59" cy="39" r="9" fill="#DCDCDC"/>
	<circle cx="59" cy="39" r="5" fill="white"/>
	<path d="M75.1289 17L76.2706 21.7301L81.0007 22.8718L74.0231 29.8494L69.293 28.7077L68.1513 23.9776L75.1289 17Z" fill="#9E9E9E"/>
	<path d="M75.758 22.2573L59 38.9998" stroke="#6A737F" stroke-width="1.5" stroke-linecap="round" stroke-linejoin="round"/>
	<defs>
		<filter id="filter0_d_7238_371375" x="5.9256" y="61.2837" width="40.8988" height="40.8983" filterUnits="userSpaceOnUse" color-interpolation-filters="sRGB">
			<feFlood flood-opacity="0" result="BackgroundImageFix"/>
			<feColorMatrix in="SourceAlpha" type="matrix" values="0 0 0 0 0 0 0 0 0 0 0 0 0 0 0 0 0 0 127 0" result="hardAlpha"/>
			<feOffset dy="2.35813"/>
			<feGaussianBlur stdDeviation="3.5372"/>
			<feComposite in2="hardAlpha" operator="out"/>
			<feColorMatrix type="matrix" values="0 0 0 0 0.423529 0 0 0 0 0.423529 0 0 0 0 0.423529 0 0 0 0.12 0"/>
			<feBlend mode="normal" in2="BackgroundImageFix" result="effect1_dropShadow_7238_371375"/>
			<feBlend mode="normal" in="SourceGraphic" in2="effect1_dropShadow_7238_371375" result="shape"/>
		</filter>
		<filter id="filter1_d_7238_371375" x="39.7557" y="61.2837" width="40.8988" height="40.8983" filterUnits="userSpaceOnUse" color-interpolation-filters="sRGB">
			<feFlood flood-opacity="0" result="BackgroundImageFix"/>
			<feColorMatrix in="SourceAlpha" type="matrix" values="0 0 0 0 0 0 0 0 0 0 0 0 0 0 0 0 0 0 127 0" result="hardAlpha"/>
			<feOffset dy="2.35813"/>
			<feGaussianBlur stdDeviation="3.5372"/>
			<feComposite in2="hardAlpha" operator="out"/>
			<feColorMatrix type="matrix" values="0 0 0 0 0.423529 0 0 0 0 0.423529 0 0 0 0 0.423529 0 0 0 0.12 0"/>
			<feBlend mode="normal" in2="BackgroundImageFix" result="effect1_dropShadow_7238_371375"/>
			<feBlend mode="normal" in="SourceGraphic" in2="effect1_dropShadow_7238_371375" result="shape"/>
		</filter>
		<filter id="filter2_d_7238_371375" x="73.5858" y="61.2837" width="40.8988" height="40.8983" filterUnits="userSpaceOnUse" color-interpolation-filters="sRGB">
			<feFlood flood-opacity="0" result="BackgroundImageFix"/>
			<feColorMatrix in="SourceAlpha" type="matrix" values="0 0 0 0 0 0 0 0 0 0 0 0 0 0 0 0 0 0 127 0" result="hardAlpha"/>
			<feOffset dy="2.35813"/>
			<feGaussianBlur stdDeviation="3.5372"/>
			<feComposite in2="hardAlpha" operator="out"/>
			<feColorMatrix type="matrix" values="0 0 0 0 0.423529 0 0 0 0 0.423529 0 0 0 0 0.423529 0 0 0 0.12 0"/>
			<feBlend mode="normal" in2="BackgroundImageFix" result="effect1_dropShadow_7238_371375"/>
			<feBlend mode="normal" in="SourceGraphic" in2="effect1_dropShadow_7238_371375" result="shape"/>
		</filter>
		<filter id="filter3_d_7238_371375" x="29.9256" y="12.2837" width="58.1488" height="58.1488" filterUnits="userSpaceOnUse" color-interpolation-filters="sRGB">
			<feFlood flood-opacity="0" result="BackgroundImageFix"/>
			<feColorMatrix in="SourceAlpha" type="matrix" values="0 0 0 0 0 0 0 0 0 0 0 0 0 0 0 0 0 0 127 0" result="hardAlpha"/>
			<feOffset dy="2.35813"/>
			<feGaussianBlur stdDeviation="3.5372"/>
			<feComposite in2="hardAlpha" operator="out"/>
			<feColorMatrix type="matrix" values="0 0 0 0 0.423529 0 0 0 0 0.423529 0 0 0 0 0.423529 0 0 0 0.12 0"/>
			<feBlend mode="normal" in2="BackgroundImageFix" result="effect1_dropShadow_7238_371375"/>
			<feBlend mode="normal" in="SourceGraphic" in2="effect1_dropShadow_7238_371375" result="shape"/>
		</filter>
		<linearGradient id="paint0_linear_7238_371375" x1="60.5167" y1="41.1153" x2="60.5167" y2="107.612" gradientUnits="userSpaceOnUse">
			<stop stop-color="#A6A6A6" stop-opacity="0.06"/>
			<stop offset="1" stop-color="#979797" stop-opacity="0.16"/>
		</linearGradient>
	</defs>
</svg>
