<svg width="30" height="30" viewBox="0 0 30 30" fill="none" xmlns="http://www.w3.org/2000/svg">
	<path fill-rule="evenodd" clip-rule="evenodd"
		  d="M4.65332 7.0271C4.65332 6.75096 4.87718 6.5271 5.15332 6.5271H21.6735C21.9497 6.5271 22.1735 6.75096 22.1735 7.0271V8.87255C22.1735 9.06972 22.0594 9.24023 21.8936 9.32164C21.5558 9.28365 21.2124 9.26413 20.8645 9.26413C20.385 9.26413 19.9143 9.30117 19.4549 9.37255H5.15332C4.87718 9.37255 4.65332 9.14869 4.65332 8.87255V7.0271ZM11.7566 18.372C11.7566 18.3001 11.7574 18.2283 11.7591 18.1567H5.15332C4.87718 18.1567 4.65332 18.3806 4.65332 18.6567V20.5022C4.65332 20.7783 4.87718 21.0022 5.15332 21.0022H12.1421C11.8913 20.1695 11.7566 19.2865 11.7566 18.372ZM12.3291 15.1868C12.723 14.1318 13.3068 13.1694 14.0391 12.3413H5.15332C4.87718 12.3413 4.65332 12.5652 4.65332 12.8413V14.6868C4.65332 14.9629 4.87718 15.1868 5.15332 15.1868H12.3291ZM18.607 17.7132L20.1063 19.2125L23.7006 15.6182L24.7605 16.6781L20.1073 21.3313L20.0497 21.2736L20.0486 21.2747L17.5471 18.7731L18.607 17.7132ZM14.1701 18.3922C14.1701 22.0894 17.1672 25.0866 20.8645 25.0866C24.5617 25.0866 27.5589 22.0894 27.5589 18.3922C27.5589 14.695 24.5617 11.6978 20.8645 11.6978C17.1672 11.6978 14.1701 14.695 14.1701 18.3922Z"
		  fill="#a8adb4"/>
</svg>
