<svg width="30" height="30" viewBox="0 0 30 30" fill="none" xmlns="http://www.w3.org/2000/svg">
	<path fill-rule="evenodd" clip-rule="evenodd"
		  d="M12.0634 6.85056V5.38883C12.0659 4.84932 11.6478 4.40947 11.127 4.40547C10.6434 4.40301 10.2416 4.77751 10.1846 5.26192L10.1777 5.38883V6.85056C10.1777 7.39008 10.5998 7.82727 11.1206 7.82727C11.6414 7.82727 12.0634 7.39008 12.0634 6.85056ZM20.8107 7.11369V6.44926H22.2885C23.6379 6.53431 24.6834 7.70503 24.659 9.10697V13.1031C23.859 12.7402 22.9971 12.4898 22.0935 12.3721V10.5112H7.91383V21.0666H11.8445C11.8248 21.1768 11.8145 21.2842 11.8145 21.3883C11.8145 22.1959 11.9197 22.9789 12.1173 23.7243H6.63103C5.92295 23.7243 5.34827 23.129 5.34827 22.3955V9.10697C5.34314 9.03787 5.34058 8.97009 5.34058 8.90232C5.34314 7.54424 6.40783 6.44661 7.71881 6.44926H9.19655V7.11369C9.19655 8.21398 10.0573 9.10697 11.1207 9.10697C12.1841 9.10697 13.0448 8.21398 13.0448 7.11369V6.44926H16.9625V7.11369C16.9625 8.21398 17.8245 9.10697 18.8866 9.10697C19.9487 9.10697 20.8107 8.21398 20.8107 7.11369ZM14.3634 12.8904H15.7666C16.0493 12.8904 16.2784 13.118 16.2784 13.3988V14.7928C16.2784 15.0736 16.0493 15.3012 15.7666 15.3012H14.3634C14.0808 15.3012 13.8516 15.0736 13.8516 14.7928V13.3988C13.8516 13.118 14.0808 12.8904 14.3634 12.8904ZM12.1276 12.8906H10.7243C10.4417 12.8906 10.2126 13.1183 10.2126 13.399V14.7931C10.2126 15.0739 10.4417 15.3015 10.7243 15.3015H12.1276C12.4102 15.3015 12.6393 15.0739 12.6393 14.7931V13.399C12.6393 13.1183 12.4102 12.8906 12.1276 12.8906ZM10.7232 16.5066H12.1264C12.409 16.5066 12.6382 16.7342 12.6382 17.015V18.4091C12.6382 18.6898 12.409 18.9175 12.1264 18.9175H10.7232C10.4405 18.9175 10.2114 18.6898 10.2114 18.4091V17.015C10.2114 16.7342 10.4405 16.5066 10.7232 16.5066ZM19.7769 5.42468V6.81067C19.7769 7.31962 19.378 7.73289 18.8854 7.73289C18.3928 7.73156 17.9964 7.31829 17.9964 6.80934V5.42468C17.9964 4.9144 18.3954 4.50246 18.8867 4.50246C19.378 4.50246 19.7769 4.9144 19.7769 5.42468Z"
		  fill="#a8adb4"/>
	<path fill-rule="evenodd" clip-rule="evenodd"
		  d="M14.7992 24.1348C15.92 26.6271 18.4427 28.1883 21.1733 28.0795C24.7958 28.0053 27.6734 25.0106 27.6029 21.388C27.6027 18.6553 25.9421 16.1968 23.4071 15.1764C20.8721 14.156 17.9713 14.7783 16.0779 16.7487C14.1845 18.7192 13.6785 21.6425 14.7992 24.1348ZM20.2468 18.0268C20.2468 17.5627 20.623 17.1864 21.0872 17.1864C21.5513 17.1864 21.9275 17.5627 21.9275 18.0268V20.5479H23.6082C24.0723 20.5479 24.4485 20.9242 24.4485 21.3883C24.4485 21.8524 24.0723 22.2287 23.6082 22.2287H21.0871C20.6229 22.2287 20.2467 21.8524 20.2467 21.3883L20.2468 21.3751V18.0268Z"
		  fill="#a8adb4"/>
</svg>
