<svg width="30" height="30" viewBox="0 0 30 30" fill="none" xmlns="http://www.w3.org/2000/svg">
	<path fill-rule="evenodd" clip-rule="evenodd"
		  d="M4.65332 7.0271C4.65332 6.75096 4.87718 6.5271 5.15332 6.5271H21.6735C21.9497 6.5271 22.1735 6.75096 22.1735 7.0271V8.87255C22.1735 9.13902 21.9651 9.3568 21.7024 9.37173V9.34949H15.9103L15.907 9.37255H5.15332C4.87718 9.37255 4.65332 9.14869 4.65332 8.87255V7.0271ZM5.15332 12.3413H15.4827L15.0761 15.1868H5.15332C4.87718 15.1868 4.65332 14.9629 4.65332 14.6868V12.8413C4.65332 12.5652 4.87718 12.3413 5.15332 12.3413ZM5.15332 18.1567H14.1487L11.8388 21.0022H5.15332C4.87718 21.0022 4.65332 20.7783 4.65332 20.5022V18.6567C4.65332 18.3806 4.87718 18.1567 5.15332 18.1567ZM26.9127 23.2536C26.9882 23.6384 26.7838 24.0257 26.4152 24.1596C24.8816 24.717 23.1525 25.0472 21.3187 25.0866H20.5768C18.7342 25.047 16.9972 24.7138 15.4581 24.1515C15.1054 24.0227 14.8993 23.6598 14.9593 23.2891C15.0166 22.9353 15.08 22.5961 15.1447 22.3438C15.3661 21.4807 16.6115 20.8396 17.7574 20.3467C18.0575 20.2175 18.2386 20.1146 18.4216 20.0105C18.6004 19.9088 18.7809 19.8062 19.0758 19.6772C19.1093 19.5182 19.1228 19.3559 19.1159 19.1937L19.6235 19.1335C19.6235 19.1335 19.6903 19.2548 19.5831 18.5418C19.5831 18.5418 19.0128 18.3939 18.9863 17.2585C18.9863 17.2585 18.5575 17.4011 18.5316 16.7132C18.5262 16.5761 18.4908 16.4443 18.4569 16.318C18.3755 16.0152 18.3026 15.744 18.6737 15.5078L18.406 14.7939C18.406 14.7939 18.1243 12.0372 19.3586 12.2603C18.8579 11.467 23.0811 10.8075 23.3616 13.2367C23.472 13.969 23.472 14.7133 23.3616 15.4455C23.3616 15.4455 23.9926 15.373 23.5714 16.5726C23.5714 16.5726 23.3395 17.436 22.9834 17.2421C22.9834 17.2421 23.0411 18.3331 22.4803 18.5181C22.4803 18.5181 22.5204 19.0991 22.5204 19.1385L22.989 19.2085C22.989 19.2085 22.9748 19.6931 23.0683 19.7455C23.4959 20.0216 23.9645 20.2309 24.4575 20.3659C25.9127 20.7353 26.6516 21.3691 26.6516 21.9239L26.9127 23.2536Z"
		  fill="#a8adb4"/>
</svg>
