<svg width="30" height="30" viewBox="0 0 30 30" fill="none" xmlns="http://www.w3.org/2000/svg">
	<path fill-rule="evenodd" clip-rule="evenodd"
		  d="M23.75 7.29693L23.75 22.7031C23.75 23.279 23.2956 23.75 22.7398 23.75L7.26016 23.75C6.70443 23.75 6.25 23.279 6.25 22.7031L6.25 7.29693C6.25 6.72098 6.70444 6.25 7.26016 6.25L22.7398 6.25C23.2956 6.25 23.75 6.72098 23.75 7.29693ZM19.4789 8.92502C18.8576 8.92502 18.3539 9.4287 18.3539 10.05L18.3539 18.874C18.3539 19.4953 18.8576 19.999 19.4789 19.999C20.1002 19.999 20.6039 19.4953 20.6039 18.874L20.6039 10.05C20.6039 9.4287 20.1002 8.92502 19.4789 8.92502ZM13.8751 10.05C13.8751 9.4287 14.3788 8.92502 15.0001 8.92502C15.6214 8.92502 16.1251 9.4287 16.1251 10.05L16.1251 13.875C16.1251 14.4963 15.6214 15 15.0001 15C14.3788 15 13.8751 14.4963 13.8751 13.875L13.8751 10.05ZM10.522 8.92502C9.90065 8.92502 9.39697 9.4287 9.39697 10.05L9.39697 15.93C9.39697 16.5513 9.90065 17.055 10.522 17.055C11.1433 17.055 11.647 16.5513 11.647 15.93L11.647 10.05C11.647 9.4287 11.1433 8.92502 10.522 8.92502Z"
		  fill="#a8adb4"/>
</svg>
