<svg width="421" height="392" viewBox="0 0 421 392" fill="none"
	 xmlns:xlink="http://www.w3.org/1999/xlink" xmlns="http://www.w3.org/2000/svg"
	 preserveAspectRatio="xMinYMin meet">
	<svg height="392px">
		<g filter="url(#filter0_bd_5671_99655)">
			<path fill-rule="evenodd" clip-rule="evenodd" d="M20 39C20 25.7452 30.7452 15 44 15H370C383.255 15 394 25.7452 394 39V329C394 342.255 383.255 353 370 353H44C30.7452 353 20 342.255 20 329V39Z" fill="#F7F8F9" fill-opacity="0.88"/>
		</g>
		<g clip-path="url(#clip0_5671_99655)">
			<path d="M20 47C20 35.7989 20 30.1984 22.1799 25.9202C24.0973 22.1569 27.1569 19.0973 30.9202 17.1799C35.1984 15 40.799 15 52 15H362C373.201 15 378.802 15 383.08 17.1799C386.843 19.0973 389.903 22.1569 391.82 25.9202C394 30.1984 394 35.799 394 47V95H20V47Z" fill="#BDC1C6"/>
		</g>
		<g filter="url(#filter1_d_5671_99655)">
			<g clip-path="url(#clip1_5671_99655)">
				<rect x="32" y="73" width="350" height="64" rx="12" fill="white" fill-opacity="0.94"/>
				<rect x="297" y="94" width="1" height="22" rx="0.5" fill="#DFE0E3"/>
			</g>
		</g>
		<g filter="url(#filter2_d_5671_99655)">
			<g clip-path="url(#clip2_5671_99655)">
				<rect x="32" y="149" width="350" height="50" rx="12" fill="white" fill-opacity="0.94"/>
			</g>
		</g>
		<g filter="url(#filter3_d_5671_99655)">
			<g clip-path="url(#clip3_5671_99655)">
				<rect x="32" y="211" width="171" height="50" rx="12" fill="white" fill-opacity="0.94"/>
			</g>
		</g>
		<g filter="url(#filter4_d_5671_99655)">
			<g clip-path="url(#clip4_5671_99655)">
				<rect x="211" y="211" width="171" height="50" rx="12" fill="white" fill-opacity="0.94"/>
			</g>
		</g>
		<g filter="url(#filter5_d_5671_99655)">
			<g clip-path="url(#clip5_5671_99655)">
				<rect x="32" y="273" width="350" height="50" rx="12" fill="white" fill-opacity="0.94"/>
			</g>
		</g>
		<defs>
			<filter id="filter0_bd_5671_99655" x="-20.7742" y="-25.7742" width="455.548" height="419.548" filterUnits="userSpaceOnUse" color-interpolation-filters="sRGB">
				<feFlood flood-opacity="0" result="BackgroundImageFix"/>
				<feGaussianBlur in="BackgroundImageFix" stdDeviation="20.3871"/>
				<feComposite in2="SourceAlpha" operator="in" result="effect1_backgroundBlur_5671_99655"/>
				<feColorMatrix in="SourceAlpha" type="matrix" values="0 0 0 0 0 0 0 0 0 0 0 0 0 0 0 0 0 0 127 0" result="hardAlpha"/>
				<feOffset dy="12"/>
				<feGaussianBlur stdDeviation="13.5"/>
				<feColorMatrix type="matrix" values="0 0 0 0 0 0 0 0 0 0 0 0 0 0 0 0 0 0 0.14 0"/>
				<feBlend mode="normal" in2="effect1_backgroundBlur_5671_99655" result="effect2_dropShadow_5671_99655"/>
				<feBlend mode="normal" in="SourceGraphic" in2="effect2_dropShadow_5671_99655" result="shape"/>
			</filter>
			<filter id="filter1_d_5671_99655" x="29" y="71" width="356" height="70" filterUnits="userSpaceOnUse" color-interpolation-filters="sRGB">
				<feFlood flood-opacity="0" result="BackgroundImageFix"/>
				<feColorMatrix in="SourceAlpha" type="matrix" values="0 0 0 0 0 0 0 0 0 0 0 0 0 0 0 0 0 0 127 0" result="hardAlpha"/>
				<feOffset dy="1"/>
				<feGaussianBlur stdDeviation="1.5"/>
				<feColorMatrix type="matrix" values="0 0 0 0 0 0 0 0 0 0 0 0 0 0 0 0 0 0 0.09 0"/>
				<feBlend mode="normal" in2="BackgroundImageFix" result="effect1_dropShadow_5671_99655"/>
				<feBlend mode="normal" in="SourceGraphic" in2="effect1_dropShadow_5671_99655" result="shape"/>
			</filter>
			<filter id="filter2_d_5671_99655" x="29" y="147" width="356" height="56" filterUnits="userSpaceOnUse" color-interpolation-filters="sRGB">
				<feFlood flood-opacity="0" result="BackgroundImageFix"/>
				<feColorMatrix in="SourceAlpha" type="matrix" values="0 0 0 0 0 0 0 0 0 0 0 0 0 0 0 0 0 0 127 0" result="hardAlpha"/>
				<feOffset dy="1"/>
				<feGaussianBlur stdDeviation="1.5"/>
				<feColorMatrix type="matrix" values="0 0 0 0 0 0 0 0 0 0 0 0 0 0 0 0 0 0 0.09 0"/>
				<feBlend mode="normal" in2="BackgroundImageFix" result="effect1_dropShadow_5671_99655"/>
				<feBlend mode="normal" in="SourceGraphic" in2="effect1_dropShadow_5671_99655" result="shape"/>
			</filter>
			<filter id="filter3_d_5671_99655" x="29" y="209" width="177" height="56" filterUnits="userSpaceOnUse" color-interpolation-filters="sRGB">
				<feFlood flood-opacity="0" result="BackgroundImageFix"/>
				<feColorMatrix in="SourceAlpha" type="matrix" values="0 0 0 0 0 0 0 0 0 0 0 0 0 0 0 0 0 0 127 0" result="hardAlpha"/>
				<feOffset dy="1"/>
				<feGaussianBlur stdDeviation="1.5"/>
				<feColorMatrix type="matrix" values="0 0 0 0 0 0 0 0 0 0 0 0 0 0 0 0 0 0 0.09 0"/>
				<feBlend mode="normal" in2="BackgroundImageFix" result="effect1_dropShadow_5671_99655"/>
				<feBlend mode="normal" in="SourceGraphic" in2="effect1_dropShadow_5671_99655" result="shape"/>
			</filter>
			<filter id="filter4_d_5671_99655" x="208" y="209" width="177" height="56" filterUnits="userSpaceOnUse" color-interpolation-filters="sRGB">
				<feFlood flood-opacity="0" result="BackgroundImageFix"/>
				<feColorMatrix in="SourceAlpha" type="matrix" values="0 0 0 0 0 0 0 0 0 0 0 0 0 0 0 0 0 0 127 0" result="hardAlpha"/>
				<feOffset dy="1"/>
				<feGaussianBlur stdDeviation="1.5"/>
				<feColorMatrix type="matrix" values="0 0 0 0 0 0 0 0 0 0 0 0 0 0 0 0 0 0 0.09 0"/>
				<feBlend mode="normal" in2="BackgroundImageFix" result="effect1_dropShadow_5671_99655"/>
				<feBlend mode="normal" in="SourceGraphic" in2="effect1_dropShadow_5671_99655" result="shape"/>
			</filter>
			<filter id="filter5_d_5671_99655" x="29" y="271" width="356" height="56" filterUnits="userSpaceOnUse" color-interpolation-filters="sRGB">
				<feFlood flood-opacity="0" result="BackgroundImageFix"/>
				<feColorMatrix in="SourceAlpha" type="matrix" values="0 0 0 0 0 0 0 0 0 0 0 0 0 0 0 0 0 0 127 0" result="hardAlpha"/>
				<feOffset dy="1"/>
				<feGaussianBlur stdDeviation="1.5"/>
				<feColorMatrix type="matrix" values="0 0 0 0 0 0 0 0 0 0 0 0 0 0 0 0 0 0 0.09 0"/>
				<feBlend mode="normal" in2="BackgroundImageFix" result="effect1_dropShadow_5671_99655"/>
				<feBlend mode="normal" in="SourceGraphic" in2="effect1_dropShadow_5671_99655" result="shape"/>
			</filter>
			<linearGradient id="paint0_linear_5671_99655" x1="41" y1="64.5097" x2="-20" y2="64.5097" gradientUnits="userSpaceOnUse">
				<stop stop-color="#BDC1C6" stop-opacity="0"/>
				<stop offset="0.491803" stop-color="#BDC1C6"/>
				<stop offset="1" stop-color="#BDC1C6" stop-opacity="0"/>
			</linearGradient>
			<linearGradient id="paint1_linear_5671_99655" x1="53" y1="104.065" x2="-8" y2="104.065" gradientUnits="userSpaceOnUse">
				<stop stop-color="white" stop-opacity="0"/>
				<stop offset="0.491803" stop-color="white"/>
				<stop offset="1" stop-color="white" stop-opacity="0"/>
			</linearGradient>
			<linearGradient id="paint2_linear_5671_99655" x1="53" y1="173.269" x2="-8" y2="173.269" gradientUnits="userSpaceOnUse">
				<stop stop-color="white" stop-opacity="0"/>
				<stop offset="0.491803" stop-color="white"/>
				<stop offset="1" stop-color="white" stop-opacity="0"/>
			</linearGradient>
			<linearGradient id="paint3_linear_5671_99655" x1="53" y1="235.269" x2="-8" y2="235.269" gradientUnits="userSpaceOnUse">
				<stop stop-color="white" stop-opacity="0"/>
				<stop offset="0.491803" stop-color="white"/>
				<stop offset="1" stop-color="white" stop-opacity="0"/>
			</linearGradient>
			<linearGradient id="paint4_linear_5671_99655" x1="232" y1="235.269" x2="171" y2="235.269" gradientUnits="userSpaceOnUse">
				<stop stop-color="white" stop-opacity="0"/>
				<stop offset="0.491803" stop-color="white"/>
				<stop offset="1" stop-color="white" stop-opacity="0"/>
			</linearGradient>
			<linearGradient id="paint5_linear_5671_99655" x1="53" y1="297.269" x2="-8" y2="297.269" gradientUnits="userSpaceOnUse">
				<stop stop-color="white" stop-opacity="0"/>
				<stop offset="0.491803" stop-color="white"/>
				<stop offset="1" stop-color="white" stop-opacity="0"/>
			</linearGradient>
			<clipPath id="clip0_5671_99655">
				<path d="M20 47C20 35.7989 20 30.1984 22.1799 25.9202C24.0973 22.1569 27.1569 19.0973 30.9202 17.1799C35.1984 15 40.799 15 52 15H362C373.201 15 378.802 15 383.08 17.1799C386.843 19.0973 389.903 22.1569 391.82 25.9202C394 30.1984 394 35.799 394 47V95H20V47Z" fill="white"/>
			</clipPath>
			<clipPath id="clip1_5671_99655">
				<rect x="32" y="73" width="350" height="64" rx="12" fill="white"/>
			</clipPath>
			<clipPath id="clip2_5671_99655">
				<rect x="32" y="149" width="350" height="50" rx="12" fill="white"/>
			</clipPath>
			<clipPath id="clip3_5671_99655">
				<rect x="32" y="211" width="171" height="50" rx="12" fill="white"/>
			</clipPath>
			<clipPath id="clip4_5671_99655">
				<rect x="211" y="211" width="171" height="50" rx="12" fill="white"/>
			</clipPath>
			<clipPath id="clip5_5671_99655">
				<rect x="32" y="273" width="350" height="50" rx="12" fill="white"/>
			</clipPath>
		</defs>
	</svg>
	<svg height="392px" id="animated-elements">
		<defs>
			<g id="header">
				<rect x="48" y="43" width="95" height="8" rx="4" fill="#EDEEF0"/>
			</g>
			<g id="card-xl">
				<rect x="92" y="108" width="130" height="6" rx="3" fill="#DFE0E3"/>
				<rect x="310" y="96" width="60" height="18" rx="9" fill="#DFE0E3"/>
				<rect x="92" y="96" width="44" height="6" rx="3" fill="#DFE0E3"/>
				<circle cx="64" cy="105" r="20" fill="#DFE0E3"/>
			</g>
			<g id="card-wide">
				<rect x="78" y="171" width="130" height="6" rx="3" fill="#DFE0E3"/>
				<circle cx="57" cy="174" r="13" fill="#DFE0E3"/>
				<circle cx="364" cy="174" r="6" fill="#DFE0E3"/>
			</g>
			<g id="card-left">
				<rect x="78" y="233" width="74" height="6" rx="3" fill="#DFE0E3"/>
				<circle cx="57" cy="236" r="13" fill="#DFE0E3"/>
				<circle cx="185" cy="236" r="6" fill="#DFE0E3"/>
			</g>
			<g id="card-right">
				<rect x="257" y="233" width="74" height="6" rx="3" fill="#DFE0E3"/>
				<circle cx="236" cy="236" r="13" fill="#DFE0E3"/>
				<circle cx="364" cy="236" r="6" fill="#DFE0E3"/>
			</g>
			<g id="card-wide-bottom">
				<rect x="78" y="295" width="130" height="6" rx="3" fill="#DFE0E3"/>
				<circle cx="57" cy="298" r="13" fill="#DFE0E3"/>
				<circle cx="364" cy="298" r="6" fill="#DFE0E3"/>
			</g>
			<g id="footer">
				<rect x="135" y="335" width="40" height="6" rx="3" fill="#DFE0E3"/>
				<rect x="187" y="335" width="40" height="6" rx="3" fill="#DFE0E3"/>
				<rect x="239" y="335" width="40" height="6" rx="3" fill="#DFE0E3"/>
			</g>
		</defs>

		<use xlink:href="#header"></use>
		<use xlink:href="#card-xl"></use>
		<use xlink:href="#card-wide"></use>
		<use xlink:href="#card-left"></use>
		<use xlink:href="#card-right"></use>
		<use xlink:href="#card-wide-bottom"></use>
		<use xlink:href="#footer"></use>
	</svg>

	<rect id="msk1" width="100%" fill="url(#msk_gd)" mask="url(#headerMsk)" height="392"/>

	<mask id="headerMsk" fill="white">
		<use xlink:href="#animated-elements"/>
	</mask>

	<linearGradient x1="66.6%" y1="50%" x2="33.3%" y2="50%" id="msk_gd">
		<stop stop-color="#000000" stop-opacity="0" offset="0%"/>
		<stop stop-color="#000000" stop-opacity="0.07" offset="50%"/>
		<stop stop-color="#000000" stop-opacity="0" offset="100%"/>
	</linearGradient>

	<animate xlink:href="#msk1" attributeName="x" from="-100%" to="100%" dur="1s" begin="0s" repeatCount="indefinite"/>
</svg>
