<svg width="428" height="330" viewBox="0 0 428 330" fill="none"
	 xmlns:xlink="http://www.w3.org/1999/xlink" xmlns="http://www.w3.org/2000/svg"
	 preserveAspectRatio="xMinYMin meet">
	<svg height="330px">
		<g filter="url(#filter0_bd_5671_100624)">
			<path fill-rule="evenodd" clip-rule="evenodd" d="M27 39C27 25.7452 37.7452 15 51 15H377C390.255 15 401 25.7452 401 39V267C401 280.255 390.255 291 377 291H51C37.7452 291 27 280.255 27 267V39Z" fill="#F7F8F9" fill-opacity="0.88"/>
		</g>
		<g clip-path="url(#clip0_5671_100624)">
			<path d="M27 47C27 35.7989 27 30.1984 29.1799 25.9202C31.0973 22.1569 34.1569 19.0973 37.9202 17.1799C42.1984 15 47.7989 15 59 15H369C380.201 15 385.802 15 390.08 17.1799C393.843 19.0973 396.903 22.1569 398.82 25.9202C401 30.1984 401 35.7989 401 47V95H27V47Z" fill="#BDC1C6"/>
		</g>
		<g filter="url(#filter1_d_5671_100624)">
			<g clip-path="url(#clip1_5671_100624)">
				<rect x="39" y="73" width="350" height="64" rx="12" fill="white" fill-opacity="0.94"/>
				<rect x="304" y="94" width="1" height="22" rx="0.5" fill="#DFE0E3"/>
			</g>
		</g>
		<g filter="url(#filter2_d_5671_100624)">
			<g clip-path="url(#clip2_5671_100624)">
				<rect x="39" y="149" width="171" height="50" rx="12" fill="white" fill-opacity="0.94"/>
			</g>
		</g>
		<g filter="url(#filter3_d_5671_100624)">
			<g clip-path="url(#clip3_5671_100624)">
				<rect x="218" y="149" width="171" height="50" rx="12" fill="white" fill-opacity="0.94"/>
			</g>
		</g>
		<g filter="url(#filter4_d_5671_100624)">
			<g clip-path="url(#clip4_5671_100624)">
				<rect x="39" y="211" width="350" height="50" rx="12" fill="white" fill-opacity="0.94"/>
			</g>
		</g>
		<defs>
			<filter id="filter0_bd_5671_100624" x="-13.7742" y="-25.7742" width="455.548" height="357.548" filterUnits="userSpaceOnUse" color-interpolation-filters="sRGB">
				<feFlood flood-opacity="0" result="BackgroundImageFix"/>
				<feGaussianBlur in="BackgroundImageFix" stdDeviation="20.3871"/>
				<feComposite in2="SourceAlpha" operator="in" result="effect1_backgroundBlur_5671_100624"/>
				<feColorMatrix in="SourceAlpha" type="matrix" values="0 0 0 0 0 0 0 0 0 0 0 0 0 0 0 0 0 0 127 0" result="hardAlpha"/>
				<feOffset dy="12"/>
				<feGaussianBlur stdDeviation="13.5"/>
				<feColorMatrix type="matrix" values="0 0 0 0 0 0 0 0 0 0 0 0 0 0 0 0 0 0 0.14 0"/>
				<feBlend mode="normal" in2="effect1_backgroundBlur_5671_100624" result="effect2_dropShadow_5671_100624"/>
				<feBlend mode="normal" in="SourceGraphic" in2="effect2_dropShadow_5671_100624" result="shape"/>
			</filter>
			<filter id="filter1_d_5671_100624" x="36" y="71" width="356" height="70" filterUnits="userSpaceOnUse" color-interpolation-filters="sRGB">
				<feFlood flood-opacity="0" result="BackgroundImageFix"/>
				<feColorMatrix in="SourceAlpha" type="matrix" values="0 0 0 0 0 0 0 0 0 0 0 0 0 0 0 0 0 0 127 0" result="hardAlpha"/>
				<feOffset dy="1"/>
				<feGaussianBlur stdDeviation="1.5"/>
				<feColorMatrix type="matrix" values="0 0 0 0 0 0 0 0 0 0 0 0 0 0 0 0 0 0 0.09 0"/>
				<feBlend mode="normal" in2="BackgroundImageFix" result="effect1_dropShadow_5671_100624"/>
				<feBlend mode="normal" in="SourceGraphic" in2="effect1_dropShadow_5671_100624" result="shape"/>
			</filter>
			<filter id="filter2_d_5671_100624" x="36" y="147" width="177" height="56" filterUnits="userSpaceOnUse" color-interpolation-filters="sRGB">
				<feFlood flood-opacity="0" result="BackgroundImageFix"/>
				<feColorMatrix in="SourceAlpha" type="matrix" values="0 0 0 0 0 0 0 0 0 0 0 0 0 0 0 0 0 0 127 0" result="hardAlpha"/>
				<feOffset dy="1"/>
				<feGaussianBlur stdDeviation="1.5"/>
				<feColorMatrix type="matrix" values="0 0 0 0 0 0 0 0 0 0 0 0 0 0 0 0 0 0 0.09 0"/>
				<feBlend mode="normal" in2="BackgroundImageFix" result="effect1_dropShadow_5671_100624"/>
				<feBlend mode="normal" in="SourceGraphic" in2="effect1_dropShadow_5671_100624" result="shape"/>
			</filter>
			<filter id="filter3_d_5671_100624" x="215" y="147" width="177" height="56" filterUnits="userSpaceOnUse" color-interpolation-filters="sRGB">
				<feFlood flood-opacity="0" result="BackgroundImageFix"/>
				<feColorMatrix in="SourceAlpha" type="matrix" values="0 0 0 0 0 0 0 0 0 0 0 0 0 0 0 0 0 0 127 0" result="hardAlpha"/>
				<feOffset dy="1"/>
				<feGaussianBlur stdDeviation="1.5"/>
				<feColorMatrix type="matrix" values="0 0 0 0 0 0 0 0 0 0 0 0 0 0 0 0 0 0 0.09 0"/>
				<feBlend mode="normal" in2="BackgroundImageFix" result="effect1_dropShadow_5671_100624"/>
				<feBlend mode="normal" in="SourceGraphic" in2="effect1_dropShadow_5671_100624" result="shape"/>
			</filter>
			<filter id="filter4_d_5671_100624" x="36" y="209" width="356" height="56" filterUnits="userSpaceOnUse" color-interpolation-filters="sRGB">
				<feFlood flood-opacity="0" result="BackgroundImageFix"/>
				<feColorMatrix in="SourceAlpha" type="matrix" values="0 0 0 0 0 0 0 0 0 0 0 0 0 0 0 0 0 0 127 0" result="hardAlpha"/>
				<feOffset dy="1"/>
				<feGaussianBlur stdDeviation="1.5"/>
				<feColorMatrix type="matrix" values="0 0 0 0 0 0 0 0 0 0 0 0 0 0 0 0 0 0 0.09 0"/>
				<feBlend mode="normal" in2="BackgroundImageFix" result="effect1_dropShadow_5671_100624"/>
				<feBlend mode="normal" in="SourceGraphic" in2="effect1_dropShadow_5671_100624" result="shape"/>
			</filter>
			<linearGradient id="paint0_linear_5671_100624" x1="48" y1="64.5097" x2="-13" y2="64.5097" gradientUnits="userSpaceOnUse">
				<stop stop-color="#BDC1C6" stop-opacity="0"/>
				<stop offset="0.491803" stop-color="#BDC1C6"/>
				<stop offset="1" stop-color="#BDC1C6" stop-opacity="0"/>
			</linearGradient>
			<linearGradient id="paint1_linear_5671_100624" x1="60" y1="104.065" x2="-1" y2="104.065" gradientUnits="userSpaceOnUse">
				<stop stop-color="white" stop-opacity="0"/>
				<stop offset="0.491803" stop-color="white"/>
				<stop offset="1" stop-color="white" stop-opacity="0"/>
			</linearGradient>
			<linearGradient id="paint2_linear_5671_100624" x1="60" y1="173.269" x2="-1" y2="173.269" gradientUnits="userSpaceOnUse">
				<stop stop-color="white" stop-opacity="0"/>
				<stop offset="0.491803" stop-color="white"/>
				<stop offset="1" stop-color="white" stop-opacity="0"/>
			</linearGradient>
			<linearGradient id="paint3_linear_5671_100624" x1="239" y1="173.269" x2="178" y2="173.269" gradientUnits="userSpaceOnUse">
				<stop stop-color="white" stop-opacity="0"/>
				<stop offset="0.491803" stop-color="white"/>
				<stop offset="1" stop-color="white" stop-opacity="0"/>
			</linearGradient>
			<linearGradient id="paint4_linear_5671_100624" x1="60" y1="235.269" x2="-1" y2="235.269" gradientUnits="userSpaceOnUse">
				<stop stop-color="white" stop-opacity="0"/>
				<stop offset="0.491803" stop-color="white"/>
				<stop offset="1" stop-color="white" stop-opacity="0"/>
			</linearGradient>
			<clipPath id="clip0_5671_100624">
				<path d="M27 47C27 35.7989 27 30.1984 29.1799 25.9202C31.0973 22.1569 34.1569 19.0973 37.9202 17.1799C42.1984 15 47.7989 15 59 15H369C380.201 15 385.802 15 390.08 17.1799C393.843 19.0973 396.903 22.1569 398.82 25.9202C401 30.1984 401 35.7989 401 47V95H27V47Z" fill="white"/>
			</clipPath>
			<clipPath id="clip1_5671_100624">
				<rect x="39" y="73" width="350" height="64" rx="12" fill="white"/>
			</clipPath>
			<clipPath id="clip2_5671_100624">
				<rect x="39" y="149" width="171" height="50" rx="12" fill="white"/>
			</clipPath>
			<clipPath id="clip3_5671_100624">
				<rect x="218" y="149" width="171" height="50" rx="12" fill="white"/>
			</clipPath>
			<clipPath id="clip4_5671_100624">
				<rect x="39" y="211" width="350" height="50" rx="12" fill="white"/>
			</clipPath>
		</defs>
	</svg>
	<svg height="330px" id="animated-elements">
		<defs>
			<g id="header">
				<rect x="55" y="43" width="95" height="8" rx="4" fill="#EDEEF0"/>
			</g>
			<g id="card-xl">
				<rect x="99" y="108" width="130" height="6" rx="3" fill="#DFE0E3"/>
				<rect x="317" y="96" width="60" height="18" rx="9" fill="#DFE0E3"/>
				<rect x="99" y="96" width="44" height="6" rx="3" fill="#DFE0E3"/>
				<circle cx="71" cy="105" r="20" fill="#DFE0E3"/>
			</g>
			<g id="card-sm">
				<rect x="85" y="171" width="74" height="6" rx="3" fill="#DFE0E3"/>
				<circle cx="64" cy="174" r="13" fill="#DFE0E3"/>
				<circle cx="192" cy="174" r="6" fill="#DFE0E3"/>
			</g>
			<g id="card-sm-2">
				<rect x="264" y="171" width="74" height="6" rx="3" fill="#DFE0E3"/>
				<circle cx="243" cy="174" r="13" fill="#DFE0E3"/>
				<circle cx="371" cy="174" r="6" fill="#DFE0E3"/>
			</g>
			<g id="card-wide">
				<rect x="85" y="233" width="130" height="6" rx="3" fill="#DFE0E3"/>
				<circle cx="64" cy="236" r="13" fill="#DFE0E3"/>
				<circle cx="371" cy="236" r="6" fill="#DFE0E3"/>
			</g>
			<g id="links">
				<rect x="142" y="273" width="40" height="6" rx="3" fill="#DFE0E3"/>
				<rect x="194" y="273" width="40" height="6" rx="3" fill="#DFE0E3"/>
				<rect x="246" y="273" width="40" height="6" rx="3" fill="#DFE0E3"/>
			</g>
		</defs>

		<use xlink:href="#header"></use>
		<use xlink:href="#card-xl"></use>
		<use xlink:href="#card-sm"></use>
		<use xlink:href="#card-sm-2"></use>
		<use xlink:href="#card-wide"></use>
		<use xlink:href="#links"></use>
	</svg>
	<rect id="msk1" width="100%" fill="url(#msk_gd)" mask="url(#headerMsk)" height="330"/>

	<mask id="headerMsk" fill="white">
		<use xlink:href="#animated-elements"/>
	</mask>

	<linearGradient x1="66.6%" y1="50%" x2="33.3%" y2="50%" id="msk_gd">
		<stop stop-color="#000000" stop-opacity="0" offset="0%"/>
		<stop stop-color="#000000" stop-opacity="0.07" offset="50%"/>
		<stop stop-color="#000000" stop-opacity="0" offset="100%"/>
	</linearGradient>

	<animate xlink:href="#msk1" attributeName="x" from="-100%" to="100%" dur="1s" begin="0s" repeatCount="indefinite"/>
</svg>
