<svg width="38" height="34" viewBox="0 0 38 34" fill="none" xmlns="http://www.w3.org/2000/svg">
<path fill-rule="evenodd" clip-rule="evenodd" d="M2.38338 0.771729C1.44299 0.771729 0.680664 1.53406 0.680664 2.47444V22.8115C0.680664 23.7518 1.44299 24.5142 2.38338 24.5142H36.0644C37.0048 24.5142 37.7671 23.7518 37.7671 22.8115V2.47444C37.7671 1.53406 37.0048 0.771729 36.0644 0.771729H2.38338ZM4.4253 19.8116V9.74683C7.4039 9.74443 9.81777 7.32906 9.81777 4.3499C9.81777 4.30606 9.81726 4.26235 9.81623 4.21877H28.8945C28.8934 4.26235 28.8929 4.30606 28.8929 4.3499C28.8929 7.24468 31.172 9.60716 34.0338 9.74086V19.8116C34.0338 20.2817 33.6526 20.663 33.1824 20.663H5.27666C4.80647 20.663 4.4253 20.2817 4.4253 19.8116ZM0.680664 26.3566V30.4708C0.680664 31.4111 1.44299 33.0187 2.38338 33.0187H36.0644C37.0048 33.0187 37.7671 32.2564 37.7671 31.316V26.3566H34.0331V28.3666C34.0331 28.8368 33.6519 29.218 33.1817 29.218H5.36899C4.8988 29.218 4.51763 28.8368 4.51763 28.3666V26.3566H0.680664ZM24.4993 12.6215C24.4993 15.4901 22.1738 17.8157 19.3051 17.8157C16.4365 17.8157 14.1109 15.4901 14.1109 12.6215C14.1109 9.75288 16.4365 7.42737 19.3051 7.42737C22.1738 7.42737 24.4993 9.75288 24.4993 12.6215Z" fill="#2FC6F6"/>
</svg>
