<svg width="45" height="43" viewBox="0 0 45 43" fill="none" xmlns="http://www.w3.org/2000/svg">
<path fill-rule="evenodd" clip-rule="evenodd" d="M18.5799 34.0524C20.9159 34.0524 22.8087 35.9451 22.8087 38.2812C22.8087 40.6151 20.916 42.5078 18.5799 42.5078C16.246 42.5078 14.3533 40.6151 14.3533 38.2812C14.3533 35.9452 16.246 34.0524 18.5799 34.0524ZM33.4894 34.0524C35.8254 34.0524 37.7182 35.9451 37.7182 38.2812C37.7182 40.6151 35.8255 42.5078 33.4894 42.5078C31.1555 42.5078 29.2628 40.6151 29.2628 38.2812C29.2628 35.9452 31.1555 34.0524 33.4894 34.0524ZM8.07439 5.01377C8.78448 5.01777 9.40567 5.46801 9.6389 6.12523L9.68895 6.29371L10.9124 11.5786L10.9628 11.5778L11.5959 14.4508L11.5543 14.4514L14.7792 29.1234H39.0111L41.392 14.4514L39.4693 14.4508L38.8761 11.5272L42.8489 11.5219C43.3596 11.524 43.8398 11.7609 44.1528 12.1607C44.4285 12.5125 44.5494 12.9558 44.4968 13.393L44.4635 13.5797L41.3473 30.8819C41.1828 31.572 40.6017 32.075 39.91 32.1517L39.7349 32.1619H13.7485C13.0404 32.1579 12.4175 31.7076 12.1857 31.0504L12.1361 30.8819L6.74037 8.35159H1.61622C0.934105 8.35159 0.371914 7.83812 0.295081 7.17662L0.286133 7.0215V6.34386C0.286133 5.66174 0.799601 5.09955 1.46111 5.02271L1.61622 5.01377H8.07439ZM34.9054 2.42337L38.5532 19.5849C38.8631 21.0431 37.9323 22.4764 36.4741 22.7863L19.3126 26.4341C17.8544 26.7441 16.4211 25.8133 16.1111 24.3551L12.4633 7.19356C12.1534 5.7354 13.0842 4.30207 14.5424 3.99213L31.7039 0.344329C33.1621 0.0343865 34.5954 0.965203 34.9054 2.42337ZM21.1284 12.2173L17.6865 18.4485L18.8051 23.7111L35.9075 20.0759L35.6279 18.7604L29.949 14.4671L28.2276 17.5836L21.1284 12.2173ZM28.5651 4.62188C26.8814 4.97975 25.8067 6.63475 26.1646 8.31843C26.5224 10.0021 28.1774 11.0769 29.8611 10.719C31.5448 10.3611 32.6195 8.70612 32.2617 7.02244C31.9038 5.33877 30.2488 4.264 28.5651 4.62188Z" fill="#2FC6F6"/>
</svg>
