<svg width="38" height="33" viewBox="0 0 38 33" fill="none" xmlns="http://www.w3.org/2000/svg">
<path fill-rule="evenodd" clip-rule="evenodd" d="M2.38338 0.150879C1.44299 0.150879 0.680664 0.913209 0.680664 1.8536V22.1906C0.680664 23.1309 1.44299 23.8933 2.38338 23.8933H36.0644C37.0048 23.8933 37.7671 23.1309 37.7671 22.1906V1.8536C37.7671 0.913211 37.0048 0.150879 36.0644 0.150879H2.38338ZM4.4253 19.1908V9.12598C7.4039 9.12358 9.81777 6.70821 9.81777 3.72905C9.81777 3.68521 9.81726 3.6415 9.81623 3.59792H28.8945C28.8934 3.6415 28.8929 3.68521 28.8929 3.72905C28.8929 6.62383 31.172 8.98631 34.0338 9.12001V19.1908C34.0338 19.6609 33.6526 20.0421 33.1824 20.0421H5.27666C4.80647 20.0421 4.4253 19.6609 4.4253 19.1908ZM0.680664 25.7357V29.8499C0.680664 30.7903 1.44299 32.3979 2.38338 32.3979H36.0644C37.0048 32.3979 37.7671 31.6355 37.7671 30.6952V25.7357H34.0331V27.7458C34.0331 28.2159 33.6519 28.5972 33.1817 28.5972H5.36899C4.8988 28.5972 4.51763 28.2159 4.51763 27.7458V25.7357H0.680664ZM24.4993 12.0007C24.4993 14.8693 22.1738 17.1948 19.3051 17.1948C16.4365 17.1948 14.1109 14.8693 14.1109 12.0007C14.1109 9.13203 16.4365 6.80652 19.3051 6.80652C22.1738 6.80652 24.4993 9.13203 24.4993 12.0007Z" fill="white"/>
</svg>
