<svg width="17" height="17" viewBox="0 0 17 17" fill="none" xmlns="http://www.w3.org/2000/svg">
	<path fill-rule="evenodd" clip-rule="evenodd" d="M4.38867 4.86133C4.38867 4.30904 4.83639 3.86133 5.38867 3.86133H11.3635C11.9158 3.86133 12.3635 4.30904 12.3635 4.86133V11.0339C12.3635 11.5862 11.9158 12.0339 11.3635 12.0339H9.66662V13.6315C9.66662 13.9942 9.29262 14.2362 8.96179 14.0876L4.97901 12.299C4.61978 12.1377 4.38867 11.7806 4.38867 11.3868V11.0339V5.40661V4.86133ZM9.66662 11.0771V6.5551C9.66662 6.35821 9.55107 6.17964 9.37145 6.09898L6.51942 4.8182H11.1761C11.3418 4.8182 11.4761 4.95251 11.4761 5.1182V10.7771C11.4761 10.9428 11.3418 11.0771 11.1761 11.0771H9.66662Z" fill="#525C69"/>
</svg>