<svg width="21" height="21" viewBox="0 0 21 21" fill="none" xmlns="http://www.w3.org/2000/svg">
	<g clip-path="url(#clip0_5437_924)">
		<path fill-rule="evenodd" clip-rule="evenodd" d="M8.15986 4.18586V5.16034C8.15986 5.52002 7.8785 5.81148 7.5313 5.81148C7.1841 5.81148 6.90275 5.52002 6.90275 5.16034V4.18586L6.90735 4.10125C6.94534 3.77831 7.21317 3.52864 7.53557 3.53028C7.88277 3.53295 8.16156 3.82618 8.15986 4.18586ZM13.9914 4.89281V5.33576C13.9914 6.06929 13.4167 6.66461 12.7087 6.66461C12.0006 6.66461 11.4259 6.06929 11.4259 5.33576V4.89281H8.81414V5.33576C8.81414 6.06929 8.24032 6.66461 7.53138 6.66461C6.82244 6.66461 6.24862 6.06929 6.24862 5.33576V4.89281H5.26347C4.38948 4.89104 3.67969 5.62279 3.67798 6.52818C3.67798 6.57336 3.67969 6.61855 3.68311 6.66461V15.5236C3.68311 16.0126 4.06623 16.4095 4.53828 16.4095H15.7018C16.1747 16.4095 16.5569 16.0126 16.5569 15.5236V6.66461C16.5732 5.72999 15.8762 4.94951 14.9766 4.89281H13.9914ZM5.39348 14.6377H14.8466V7.60075H5.39348V14.6377ZM10.6287 9.18688H9.69318C9.50476 9.18688 9.35202 9.33862 9.35202 9.52581V10.4552C9.35202 10.6424 9.50476 10.7941 9.69318 10.7941H10.6287C10.8171 10.7941 10.9699 10.6424 10.9699 10.4552V9.52581C10.9699 9.33862 10.8171 9.18688 10.6287 9.18688ZM7.26715 9.18706H8.20266C8.39108 9.18706 8.54383 9.33881 8.54383 9.52599V10.4554C8.54383 10.6425 8.39108 10.7943 8.20266 10.7943H7.26715C7.07873 10.7943 6.92598 10.6425 6.92598 10.4554V9.52599C6.92598 9.33881 7.07873 9.18706 7.26715 9.18706ZM8.20187 11.5977H7.26636C7.07794 11.5977 6.9252 11.7495 6.9252 11.9366V12.866C6.9252 13.0532 7.07794 13.2049 7.26636 13.2049H8.20187C8.39029 13.2049 8.54304 13.0532 8.54304 12.866V11.9366C8.54304 11.7495 8.39029 11.5977 8.20187 11.5977ZM9.69318 11.5977H10.6287C10.8171 11.5977 10.9699 11.7495 10.9699 11.9366V12.866C10.9699 13.0532 10.8171 13.2049 10.6287 13.2049H9.69318C9.50476 13.2049 9.35202 13.0532 9.35202 12.866V11.9366C9.35202 11.7495 9.50476 11.5977 9.69318 11.5977ZM12.12 9.18688H13.0555C13.2439 9.18688 13.3967 9.33862 13.3967 9.52581V10.4552C13.3967 10.6424 13.2439 10.7941 13.0555 10.7941H12.12C11.9316 10.7941 11.7788 10.6424 11.7788 10.4552V9.52581C11.7788 9.33862 11.9316 9.18688 12.12 9.18688ZM13.3022 5.13375V4.20975C13.3022 3.86957 13.0362 3.59494 12.7087 3.59494C12.3812 3.59494 12.1152 3.86957 12.1152 4.20975V5.13286C12.1152 5.47216 12.3795 5.74768 12.7078 5.74856C13.0362 5.74856 13.3022 5.47305 13.3022 5.13375Z" fill="#828B95"/>
	</g>
	<defs>
		<clipPath id="clip0_5437_924">
			<rect width="20" height="20" fill="white" transform="translate(0.117554 0.59375)"/>
		</clipPath>
	</defs>
</svg>