<svg width="22" height="22" viewBox="0 0 22 22" fill="none" xmlns="http://www.w3.org/2000/svg">
<path fill-rule="evenodd" clip-rule="evenodd" d="M20.3186 6.47368C19.9419 6.47368 19.6365 6.78106 19.6365 7.16023V13.4777C19.6365 14.6651 18.6801 15.6277 17.5005 15.6277C16.3208 15.6277 15.3645 14.6651 15.3645 13.4777V7.10479C15.3645 6.70069 15.6899 6.37311 16.0914 6.37311C16.4929 6.37311 16.8184 6.70069 16.8184 7.10479V13.2338C16.8184 13.613 17.1237 13.9203 17.5005 13.9203C17.8772 13.9203 18.1826 13.613 18.1826 13.2338V7.10479C18.1826 5.94235 17.2463 5 16.0914 5C14.9365 5 14.0002 5.94235 14.0002 7.10479V13.4777C14.0002 15.4235 15.5673 17.0008 17.5005 17.0008C19.4336 17.0008 21.0007 15.4235 21.0007 13.4777V7.16023C21.0007 6.78106 20.6953 6.47368 20.3186 6.47368ZM1.55524 5.99984H12.0002V8.24599H1.91157C1.67464 8.24599 1.46377 8.08849 1.38643 7.85375L1.0301 6.77227C0.929935 6.46827 1.08385 6.13673 1.37388 6.03174C1.43222 6.01062 1.49352 5.99984 1.55524 5.99984ZM11.4866 10.1523C11.7183 10.1523 11.9169 10.301 12.0002 10.5123V10.9574L11.6199 12.0205C11.5386 12.2478 11.3313 12.3984 11.0997 12.3984H3.8799C3.64472 12.3984 3.43501 12.2432 3.35633 12.0109L2.99003 10.9294C2.88738 10.6264 3.03857 10.2934 3.32773 10.1858C3.38741 10.1636 3.45027 10.1523 3.5136 10.1523H11.4866ZM5.98846 14.3154H9.0108C9.31764 14.3154 9.56638 14.5761 9.56638 14.8977C9.56638 14.9544 9.55849 15.0107 9.54296 15.065L9.23354 16.1465C9.16305 16.3928 8.94674 16.5615 8.70137 16.5615H6.33142C6.09211 16.5615 5.87969 16.4009 5.8042 16.1629L5.46124 15.0814C5.36446 14.7762 5.52204 14.4465 5.81321 14.3451C5.86973 14.3254 5.9289 14.3154 5.98846 14.3154Z" fill="#A8ADB4"/>
</svg>
