<svg width="358" height="186" viewBox="0 0 358 186" fill="none" xmlns="http://www.w3.org/2000/svg">
<path fill-rule="evenodd" clip-rule="evenodd" d="M206.988 147.221H109.71C108.878 147.221 108.052 147.192 107.235 147.134C85.2502 146.651 69.0011 129.331 69 108.036C69.0064 97.6566 73.6535 88.3701 80.4131 80.2464C83.6443 76.3632 85.9844 73.8035 90.7096 71.4684C90.6255 70.4122 90.5827 69.3449 90.5827 68.268C90.5896 57.3164 95.112 46.816 103.155 39.0767C111.198 31.3375 122.102 26.9933 133.47 27C148.031 27.0171 160.732 34.6079 168.458 45.3154C173.545 44.063 179.835 43.6627 183.949 43.6648C202.126 43.6859 217.055 57.0351 218.786 74.1065C236.202 77.7646 247.973 92.1375 247.958 110.01C247.94 130.606 230.6 147.292 209.221 147.283C208.472 147.283 207.727 147.262 206.988 147.221Z" fill="url(#paint0_linear_1099_149301)"/>
<g filter="url(#filter0_d_1099_149301)">
<path d="M84.4701 53.8394C84.4701 49.9734 87.6041 46.8394 91.4701 46.8394H197.47C201.336 46.8394 204.47 49.9734 204.47 53.8394V75.8394C204.47 79.7053 201.336 82.8394 197.47 82.8394H91.4701C87.6041 82.8394 84.4701 79.7053 84.4701 75.8394V53.8394Z" fill="white"/>
</g>
<circle opacity="0.3" cx="100.076" cy="62.8394" r="10" fill="#B095DC"/>
<path opacity="0.6" d="M96.3257 58.6019C96.2771 58.4706 96.0915 58.4706 96.0429 58.6019L95.5065 60.0515C95.3538 60.4642 95.0284 60.7895 94.6157 60.9422L93.1661 61.4786C93.0348 61.5272 93.0348 61.7129 93.1661 61.7614L94.6157 62.2978C95.0284 62.4506 95.3538 62.7759 95.5065 63.1886L96.0429 64.6382C96.0915 64.7695 96.2771 64.7695 96.3257 64.6382L96.8621 63.1886C97.0148 62.7759 97.3402 62.4506 97.7529 62.2978L99.2025 61.7614C99.3337 61.7129 99.3337 61.5272 99.2025 61.4786L97.7529 60.9422C97.3402 60.7895 97.0148 60.4642 96.8621 60.0515L96.3257 58.6019Z" fill="#B094DC"/>
<path opacity="0.6" d="M106.111 67.0224C106.375 66.9265 106.521 66.6495 106.467 66.3742L106.28 65.4231C106.28 65.0262 105.752 64.5728 104.711 64.3086C104.358 64.2121 104.023 64.0624 103.717 63.8648C103.65 63.8273 103.661 63.4807 103.661 63.4807L103.325 63.4306C103.325 63.4025 103.297 62.9868 103.297 62.9868C103.698 62.8545 103.656 62.0741 103.656 62.0741C103.911 62.2128 104.077 61.5952 104.077 61.5952C104.378 60.7371 103.927 60.789 103.927 60.789C104.006 60.2651 104.006 59.7328 103.927 59.2089C103.726 57.4713 100.705 57.943 101.064 58.5105C100.181 58.3509 100.382 60.3228 100.382 60.3228L100.574 60.8335C100.308 61.0025 100.36 61.1964 100.419 61.4131C100.443 61.5034 100.468 61.5977 100.472 61.6957C100.491 62.1878 100.797 62.0858 100.797 62.0858C100.816 62.898 101.224 63.0038 101.224 63.0038C101.301 63.5138 101.253 63.427 101.253 63.427L100.89 63.4701C100.895 63.5861 100.885 63.7023 100.861 63.8159C100.65 63.9082 100.521 63.9817 100.393 64.0544C100.262 64.1288 100.133 64.2025 99.9182 64.2949C99.0986 64.6475 98.2077 65.106 98.0493 65.7234C98.003 65.9039 97.9577 66.1466 97.9167 66.3996C97.8737 66.6648 98.0212 66.9244 98.2735 67.0166C99.3744 67.4188 100.617 67.6571 101.935 67.6854H102.466C103.777 67.6573 105.014 67.4211 106.111 67.0224Z" fill="#B094DC"/>
<rect opacity="0.3" x="116.47" y="54.8394" width="40" height="4" rx="2" fill="#B095DC"/>
<rect x="116.47" y="63.8394" width="76" height="4" rx="2" fill="#525C69" fill-opacity="0.1"/>
<rect x="116.47" y="72.3394" width="65" height="4" rx="2" fill="#525C69" fill-opacity="0.1"/>
<g filter="url(#filter1_d_1099_149301)">
<path d="M98.479 96.4243C98.479 92.5583 101.613 89.4243 105.479 89.4243H211.479C215.345 89.4243 218.479 92.5583 218.479 96.4243V118.424C218.479 122.29 215.345 125.424 211.479 125.424H105.479C101.613 125.424 98.479 122.29 98.479 118.424V96.4243Z" fill="white"/>
</g>
<circle opacity="0.3" cx="114.479" cy="105.424" r="10" fill="#B095DC"/>
<path opacity="0.6" d="M110.323 101.184C110.275 101.053 110.089 101.053 110.04 101.184L109.503 102.635C109.351 103.048 109.025 103.373 108.612 103.526L107.161 104.063C107.03 104.111 107.03 104.297 107.161 104.346L108.612 104.883C109.025 105.035 109.351 105.361 109.503 105.774L110.04 107.225C110.089 107.356 110.275 107.356 110.323 107.225L110.86 105.774C111.013 105.361 111.338 105.035 111.751 104.883L113.202 104.346C113.333 104.297 113.333 104.111 113.202 104.063L111.751 103.526C111.338 103.373 111.013 103.048 110.86 102.635L110.323 101.184Z" fill="#B094DC"/>
<path opacity="0.6" d="M120.116 109.611C120.38 109.515 120.526 109.237 120.472 108.962L120.285 108.01C120.285 107.613 119.756 107.159 118.715 106.895C118.362 106.798 118.026 106.648 117.72 106.451C117.653 106.413 117.664 106.066 117.664 106.066L117.328 106.016C117.328 105.988 117.299 105.572 117.299 105.572C117.701 105.44 117.659 104.659 117.659 104.659C117.914 104.797 118.08 104.179 118.08 104.179C118.382 103.321 117.93 103.373 117.93 103.373C118.009 102.848 118.009 102.316 117.93 101.791C117.729 100.052 114.706 100.525 115.065 101.092C114.181 100.933 114.383 102.906 114.383 102.906L114.574 103.417C114.309 103.586 114.361 103.78 114.419 103.997C114.443 104.088 114.469 104.182 114.473 104.28C114.491 104.772 114.798 104.67 114.798 104.67C114.817 105.483 115.225 105.589 115.225 105.589C115.302 106.099 115.254 106.013 115.254 106.013L114.891 106.056C114.896 106.172 114.886 106.288 114.862 106.402C114.651 106.494 114.522 106.568 114.394 106.64C114.263 106.715 114.133 106.789 113.918 106.881C113.098 107.234 112.207 107.693 112.048 108.311C112.002 108.491 111.957 108.734 111.915 108.987C111.872 109.253 112.02 109.512 112.273 109.605C113.374 110.007 114.618 110.246 115.937 110.274H116.468C117.78 110.246 119.018 110.009 120.116 109.611Z" fill="#B094DC"/>
<rect opacity="0.3" x="130.479" y="97.4243" width="40" height="4" rx="2" fill="#B095DC"/>
<rect x="130.479" y="106.424" width="76" height="4" rx="2" fill="#525C69" fill-opacity="0.1"/>
<rect x="130.479" y="114.924" width="65" height="4" rx="2" fill="#525C69" fill-opacity="0.1"/>
<g filter="url(#filter2_d_1099_149301)">
<circle cx="218" cy="129" r="29.1418" fill="#B095DC"/>
</g>
<path fill-rule="evenodd" clip-rule="evenodd" d="M228.691 136.957C229.164 136.957 229.547 136.574 229.547 136.101L229.547 114.624C229.547 114.151 229.164 113.768 228.691 113.768H211.066C208.126 113.768 205.721 116.176 205.721 119.119V138.74C205.721 141.683 208.126 144.091 211.066 144.091H228.691C229.164 144.091 229.547 143.708 229.547 143.235V141.38C229.547 140.907 229.164 140.524 228.691 140.524H211.066C210.085 140.524 209.284 139.721 209.284 138.74C209.285 137.76 210.087 136.957 211.066 136.957L228.691 136.957ZM225.793 130.926C225.88 131.369 225.644 131.815 225.22 131.97C223.453 132.612 221.46 132.992 219.347 133.038H218.493C216.37 132.992 214.368 132.608 212.595 131.96C212.188 131.812 211.951 131.394 212.02 130.967C212.086 130.559 212.159 130.168 212.234 129.877C212.489 128.883 213.924 128.144 215.244 127.576C215.59 127.428 215.799 127.309 216.009 127.189C216.215 127.072 216.423 126.954 216.763 126.805C216.802 126.622 216.817 126.435 216.809 126.248L217.394 126.179C217.394 126.179 217.471 126.318 217.348 125.497C217.348 125.497 216.691 125.326 216.66 124.018C216.66 124.018 216.166 124.183 216.136 123.39C216.13 123.232 216.089 123.08 216.05 122.935C215.956 122.586 215.872 122.273 216.3 122.001L215.991 121.179C215.991 121.179 215.667 118.002 217.089 118.259C216.512 117.345 221.378 116.585 221.701 119.384C221.828 120.228 221.828 121.086 221.701 121.929C221.701 121.929 222.428 121.846 221.943 123.228C221.943 123.228 221.676 124.223 221.265 123.999C221.265 123.999 221.332 125.256 220.686 125.469C220.686 125.469 220.732 126.139 220.732 126.184L221.272 126.265C221.272 126.265 221.256 126.823 221.363 126.884C221.856 127.202 222.396 127.443 222.964 127.599C224.641 128.024 225.492 128.754 225.492 129.394L225.793 130.926Z" fill="white"/>
<g filter="url(#filter3_f_1099_149301)">
<path d="M81.0841 30.5758C81.2856 31.1322 82.0855 31.1327 82.2876 30.5764L84.9922 23.1305C85.0567 22.9529 85.1989 22.8132 85.3795 22.7499L92.9531 20.0982C93.5189 19.9001 93.5193 19.1133 92.9538 18.9145L85.3832 16.2543C85.2026 16.1908 85.0605 16.051 84.9962 15.8733L82.3 8.42431C82.0986 7.86785 81.2986 7.8674 81.0966 8.42363L78.3919 15.8696C78.3274 16.0472 78.1852 16.1869 78.0046 16.2502L70.431 18.9019C69.8652 19.1 69.8648 19.8868 70.4304 20.0855L78.001 22.7458C78.1815 22.8092 78.3236 22.9491 78.3879 23.1268L81.0841 30.5758Z" fill="#F7F3FD"/>
</g>
<path opacity="0.2" d="M81.4334 24.1916C81.5187 24.4273 81.8576 24.4275 81.9432 24.1919L83.0888 21.0378C83.1162 20.9626 83.1764 20.9034 83.2529 20.8766L86.461 19.7534C86.7007 19.6695 86.7009 19.3362 86.4613 19.252L83.2545 18.1251C83.178 18.0983 83.1178 18.039 83.0906 17.9638L81.9484 14.8084C81.8631 14.5727 81.5243 14.5725 81.4387 14.8081L80.293 17.9622C80.2657 18.0374 80.2055 18.0966 80.129 18.1234L76.9209 19.2467C76.6812 19.3306 76.681 19.6639 76.9206 19.748L80.1274 20.8749C80.2039 20.9018 80.2641 20.961 80.2913 21.0363L81.4334 24.1916Z" fill="#8E52EC"/>
<g filter="url(#filter4_f_1099_149301)">
<path d="M24.6691 126.877C24.9357 127.614 25.9944 127.614 26.2618 126.878L29.8412 117.024C29.9266 116.789 30.1147 116.604 30.3538 116.52L40.3769 113.011C41.1257 112.749 41.1263 111.708 40.3778 111.444L30.3586 107.924C30.1197 107.84 29.9317 107.655 29.8466 107.42L26.2782 97.5613C26.0117 96.8249 24.953 96.8243 24.6856 97.5605L21.1062 107.415C21.0208 107.65 20.8326 107.835 20.5936 107.918L10.5704 111.428C9.82166 111.69 9.82108 112.731 10.5695 112.994L20.5888 116.515C20.8277 116.599 21.0157 116.784 21.1008 117.019L24.6691 126.877Z" fill="#F7F3FD"/>
</g>
<path opacity="0.2" d="M25.1336 118.429C25.2466 118.741 25.695 118.741 25.8083 118.43L27.3245 114.255C27.3606 114.156 27.4404 114.078 27.5416 114.042L31.7873 112.556C32.1045 112.444 32.1048 112.003 31.7877 111.892L27.5437 110.401C27.4424 110.365 27.3628 110.287 27.3268 110.187L25.8152 106.011C25.7023 105.699 25.2539 105.699 25.1406 106.011L23.6244 110.185C23.5882 110.285 23.5085 110.363 23.4073 110.398L19.1615 111.885C18.8444 111.996 18.8441 112.437 19.1612 112.548L23.4052 114.04C23.5065 114.075 23.5861 114.154 23.6221 114.253L25.1336 118.429Z" fill="#8E52EC"/>
<g filter="url(#filter5_f_1099_149301)">
<path d="M320.669 78.8774C320.936 79.6138 321.994 79.6144 322.262 78.8783L325.841 69.024C325.927 68.789 326.115 68.6041 326.354 68.5204L336.377 65.0109C337.126 64.7488 337.126 63.7075 336.378 63.4445L326.359 59.9238C326.12 59.8399 325.932 59.6548 325.847 59.4196L322.278 49.5613C322.012 48.8249 320.953 48.8243 320.686 49.5605L317.106 59.4147C317.021 59.6498 316.833 59.8347 316.594 59.9184L306.57 63.4278C305.822 63.69 305.821 64.7312 306.57 64.9942L316.589 68.5149C316.828 68.5989 317.016 68.784 317.101 69.0191L320.669 78.8774Z" fill="#F7F3FD"/>
</g>
<path opacity="0.2" d="M321.134 70.4292C321.247 70.7412 321.695 70.7414 321.808 70.4296L323.324 66.2554C323.361 66.1559 323.44 66.0776 323.542 66.0421L327.787 64.5555C328.105 64.4445 328.105 64.0034 327.788 63.892L323.544 62.4007C323.442 62.3651 323.363 62.2867 323.327 62.1871L321.815 58.0112C321.702 57.6993 321.254 57.699 321.141 58.0108L319.624 62.185C319.588 62.2846 319.509 62.3629 319.407 62.3983L315.162 63.8849C314.844 63.996 314.844 64.437 315.161 64.5484L319.405 66.0398C319.506 66.0753 319.586 66.1537 319.622 66.2533L321.134 70.4292Z" fill="#8E52EC"/>
<defs>
<filter id="filter0_d_1099_149301" x="77.3957" y="42.1231" width="134.149" height="50.1488" filterUnits="userSpaceOnUse" color-interpolation-filters="sRGB">
<feFlood flood-opacity="0" result="BackgroundImageFix"/>
<feColorMatrix in="SourceAlpha" type="matrix" values="0 0 0 0 0 0 0 0 0 0 0 0 0 0 0 0 0 0 127 0" result="hardAlpha"/>
<feOffset dy="2.35813"/>
<feGaussianBlur stdDeviation="3.5372"/>
<feComposite in2="hardAlpha" operator="out"/>
<feColorMatrix type="matrix" values="0 0 0 0 0.423529 0 0 0 0 0.423529 0 0 0 0 0.423529 0 0 0 0.12 0"/>
<feBlend mode="normal" in2="BackgroundImageFix" result="effect1_dropShadow_1099_149301"/>
<feBlend mode="normal" in="SourceGraphic" in2="effect1_dropShadow_1099_149301" result="shape"/>
</filter>
<filter id="filter1_d_1099_149301" x="91.4046" y="84.708" width="134.149" height="50.1488" filterUnits="userSpaceOnUse" color-interpolation-filters="sRGB">
<feFlood flood-opacity="0" result="BackgroundImageFix"/>
<feColorMatrix in="SourceAlpha" type="matrix" values="0 0 0 0 0 0 0 0 0 0 0 0 0 0 0 0 0 0 127 0" result="hardAlpha"/>
<feOffset dy="2.35813"/>
<feGaussianBlur stdDeviation="3.5372"/>
<feComposite in2="hardAlpha" operator="out"/>
<feColorMatrix type="matrix" values="0 0 0 0 0.423529 0 0 0 0 0.423529 0 0 0 0 0.423529 0 0 0 0.12 0"/>
<feBlend mode="normal" in2="BackgroundImageFix" result="effect1_dropShadow_1099_149301"/>
<feBlend mode="normal" in="SourceGraphic" in2="effect1_dropShadow_1099_149301" result="shape"/>
</filter>
<filter id="filter2_d_1099_149301" x="177.318" y="90.5884" width="81.3637" height="81.3637" filterUnits="userSpaceOnUse" color-interpolation-filters="sRGB">
<feFlood flood-opacity="0" result="BackgroundImageFix"/>
<feColorMatrix in="SourceAlpha" type="matrix" values="0 0 0 0 0 0 0 0 0 0 0 0 0 0 0 0 0 0 127 0" result="hardAlpha"/>
<feOffset dy="2.27"/>
<feGaussianBlur stdDeviation="5.77"/>
<feComposite in2="hardAlpha" operator="out"/>
<feColorMatrix type="matrix" values="0 0 0 0 0.392157 0 0 0 0 0.427451 0 0 0 0 0.482353 0 0 0 0.16 0"/>
<feBlend mode="normal" in2="BackgroundImageFix" result="effect1_dropShadow_1099_149301"/>
<feBlend mode="normal" in="SourceGraphic" in2="effect1_dropShadow_1099_149301" result="shape"/>
</filter>
<filter id="filter3_f_1099_149301" x="62.4503" y="0.450665" width="38.4836" height="38.0987" filterUnits="userSpaceOnUse" color-interpolation-filters="sRGB">
<feFlood flood-opacity="0" result="BackgroundImageFix"/>
<feBlend mode="normal" in="SourceGraphic" in2="BackgroundImageFix" result="shape"/>
<feGaussianBlur stdDeviation="3.77809" result="effect1_foregroundBlur_1099_149301"/>
</filter>
<filter id="filter4_f_1099_149301" x="0.00854492" y="87.0088" width="50.9303" height="50.4214" filterUnits="userSpaceOnUse" color-interpolation-filters="sRGB">
<feFlood flood-opacity="0" result="BackgroundImageFix"/>
<feBlend mode="normal" in="SourceGraphic" in2="BackgroundImageFix" result="shape"/>
<feGaussianBlur stdDeviation="5" result="effect1_foregroundBlur_1099_149301"/>
</filter>
<filter id="filter5_f_1099_149301" x="296.009" y="39.0088" width="50.9304" height="50.4214" filterUnits="userSpaceOnUse" color-interpolation-filters="sRGB">
<feFlood flood-opacity="0" result="BackgroundImageFix"/>
<feBlend mode="normal" in="SourceGraphic" in2="BackgroundImageFix" result="shape"/>
<feGaussianBlur stdDeviation="5" result="effect1_foregroundBlur_1099_149301"/>
</filter>
<linearGradient id="paint0_linear_1099_149301" x1="158.479" y1="27" x2="158.479" y2="147.283" gradientUnits="userSpaceOnUse">
<stop stop-color="#F7F3FD" stop-opacity="0.4"/>
<stop offset="1" stop-color="#F7F3FD" stop-opacity="0.8"/>
</linearGradient>
</defs>
</svg>
