<svg width="220" height="141" viewBox="0 0 220 141" fill="none" xmlns="http://www.w3.org/2000/svg">
	<path opacity="0.117164" fill-rule="evenodd" clip-rule="evenodd" d="M215.808 104.106H205.853C205.768 104.106 205.683 104.102 205.6 104.096C203.35 104.044 201.542 102.161 201.542 99.8471C201.543 98.7191 201.981 97.6375 202.761 96.8404C203.161 96.4318 203.634 96.1151 204.148 95.9035C204.14 95.7887 204.135 95.6727 204.135 95.5557C204.136 94.3655 204.599 93.2243 205.422 92.3833C206.245 91.5422 207.361 91.0701 208.524 91.0708C210.014 91.0727 211.33 91.8351 212.12 92.9987C212.496 92.8626 212.9 92.7886 213.321 92.7889C215.181 92.7912 216.709 94.2419 216.886 96.0972C218.668 96.4947 220.002 98.1193 220 100.062C219.998 102.3 218.224 104.113 216.036 104.112C215.959 104.112 215.883 104.11 215.808 104.106V104.106Z" fill="#2FC6F6"/>
	<path opacity="0.117164" fill-rule="evenodd" clip-rule="evenodd" d="M42.0229 53.4432H30.4542C30.3552 53.4432 30.2571 53.4395 30.1599 53.4322C27.5453 53.3718 25.4443 51.1998 25.4442 48.5295C25.4449 47.228 25.9546 45.9801 26.8611 45.0603C27.3258 44.5889 27.8752 44.2234 28.4729 43.9793C28.4629 43.8468 28.4578 43.713 28.4578 43.5779C28.4587 42.2046 28.9965 40.8879 29.953 39.9175C30.9095 38.947 32.2063 38.4022 33.5581 38.4031C35.2898 38.4052 36.8187 39.2849 37.7376 40.6276C38.1739 40.4706 38.6436 40.3852 39.1329 40.3855C41.2946 40.3881 43.07 42.062 43.2758 44.2027C45.3471 44.6615 46.897 46.5359 46.8952 48.7771C46.8931 51.3598 44.8309 53.4521 42.2885 53.451C42.1994 53.451 42.1108 53.4484 42.0229 53.4432V53.4432Z" fill="#2FC6F6"/>
	<path opacity="0.302432" fill-rule="evenodd" clip-rule="evenodd" d="M39.1696 123.657H12.5347C12.3067 123.657 12.0808 123.648 11.8571 123.632C5.83753 123.492 1.0003 118.497 1 112.355C1.00175 109.362 2.17522 106.492 4.26226 104.376C5.33205 103.292 6.59695 102.451 7.97314 101.89C7.95012 101.585 7.9384 101.277 7.93839 100.967C7.94029 97.8081 9.17852 94.7796 11.3807 92.5475C13.5828 90.3154 16.5685 89.0625 19.681 89.0645C23.6679 89.0694 27.1879 91.0927 29.3034 94.1809C30.3079 93.8197 31.3893 93.6233 32.516 93.6239C37.4928 93.63 41.5804 97.4801 42.0543 102.404C46.8229 103.459 50.3915 107.77 50.3872 112.925C50.3824 118.865 45.6346 123.677 39.7811 123.675C39.5759 123.675 39.372 123.669 39.1696 123.657V123.657Z" stroke="#2FC6F6" stroke-width="0.441121"/>
	<path opacity="0.302432" fill-rule="evenodd" clip-rule="evenodd" d="M192.157 43.9152H184.085C184.016 43.9152 183.948 43.9126 183.88 43.9075C182.056 43.8652 180.59 42.3448 180.59 40.4756C180.59 39.5645 180.946 38.691 181.579 38.0472C181.903 37.7171 182.286 37.4613 182.703 37.2904C182.696 37.1977 182.693 37.104 182.693 37.0095C182.693 36.0482 183.068 35.1265 183.736 34.4471C184.403 33.7678 185.308 33.3865 186.251 33.3871C187.459 33.3886 188.526 34.0044 189.167 34.9443C189.471 34.8343 189.799 34.7746 190.14 34.7748C191.648 34.7766 192.887 35.9484 193.031 37.4469C194.476 37.7679 195.557 39.0801 195.556 40.6489C195.554 42.4568 194.116 43.9214 192.342 43.9206C192.28 43.9206 192.218 43.9188 192.157 43.9152V43.9152Z" stroke="#2FC6F6" stroke-width="0.441121"/>
	<path opacity="0.245858" fill-rule="evenodd" clip-rule="evenodd" d="M178.844 70.2543C178.844 104.329 151.261 131.951 117.235 131.951C83.2091 131.951 55.6257 104.329 55.6257 70.2543C55.6257 36.1804 83.2086 8.55798 117.235 8.55798C151.261 8.55798 178.844 36.1804 178.844 70.2543ZM156.64 70.2543C156.64 92.0013 138.997 109.63 117.234 109.63C95.4712 109.63 77.8289 92.0013 77.8289 70.2543C77.8289 48.508 95.4709 30.8791 117.234 30.8791C138.997 30.8791 156.64 48.508 156.64 70.2543Z" fill="#1EC6FA"/>
	<path opacity="0.252906" fill-rule="evenodd" clip-rule="evenodd" d="M135.97 22.2273C117.525 14.9479 95.7399 18.8022 80.834 33.7899C66.0664 48.6385 62.1667 70.2763 69.1352 88.7106L69.3486 89.2665L69.3821 89.2973C69.8537 89.7137 70.5724 89.6956 71.0225 89.243C71.2919 88.9722 71.4065 88.6046 71.3654 88.2518C64.5214 70.5485 68.2069 49.6785 82.4214 35.386C96.675 21.0542 117.507 17.3677 135.144 24.327L135.32 24.3971L135.387 24.3914L135.456 24.3812C136.109 24.2654 136.545 23.6392 136.43 22.9826C136.375 22.6691 136.204 22.4053 135.97 22.2273ZM151.913 105.259C137.299 119.953 115.771 123.456 97.8593 115.77L96.1547 117.485C115.044 125.989 137.994 122.446 153.5 106.855C168.667 91.6044 172.37 69.1927 164.609 50.445C164.589 50.4238 164.568 50.4032 164.546 50.3832C164.053 49.9371 163.294 49.9771 162.85 50.4726C162.631 50.7173 162.53 51.0274 162.544 51.3322C169.956 69.2566 166.412 90.6796 151.913 105.259Z" fill="#1EC6FA"/>
	<path opacity="0.0619187" fill-rule="evenodd" clip-rule="evenodd" d="M128.543 83.0308H106.948C106.763 83.0308 106.58 83.0239 106.399 83.0103C101.518 82.8974 97.5964 78.8431 97.5961 73.8585C97.5975 71.429 98.549 69.0996 100.241 67.3827C101.108 66.5026 102.134 65.8204 103.25 65.3647C103.231 65.1175 103.222 64.8676 103.222 64.6156C103.223 62.0521 104.227 59.5942 106.013 57.7826C107.798 55.9711 110.219 54.9542 112.742 54.9558C115.975 54.9598 118.829 56.6019 120.544 59.1083C121.358 58.8151 122.235 58.6558 123.148 58.6563C127.184 58.6612 130.498 61.7859 130.882 65.7819C134.748 66.6381 137.641 70.1371 137.638 74.3206C137.634 79.1417 133.785 83.0473 129.039 83.0453C128.872 83.0452 128.707 83.0403 128.543 83.0308V83.0308Z" fill="#2FC6F6"/>
	<path opacity="0.0460612" fill-rule="evenodd" clip-rule="evenodd" d="M82.1581 91.2445L91.5574 81.7938C92.9179 84.9918 94.8961 87.9877 97.4919 90.5977C99.9713 93.0908 102.801 95.0172 105.821 96.3771L96.542 105.707L82.1581 91.2445ZM137 50.8732C134.404 48.2632 131.424 46.2741 128.244 44.9061L140.844 32.2363L155.228 46.6991L142.748 59.2484C141.395 56.2113 139.479 53.3662 137 50.8732Z" fill="#2FC6F6"/>
	<g filter="url(#filter0_d_848_125175)">
		<rect x="102.083" y="70.2372" width="20.7457" height="20.8595" rx="2.20561" fill="#C5F03F"/>
	</g>
	<g filter="url(#filter1_d_848_125175)">
		<path fill-rule="evenodd" clip-rule="evenodd" d="M82.0649 68.5578C82.0649 68.0705 82.4599 67.6755 82.9472 67.6755H125.95C126.437 67.6755 126.832 68.0705 126.832 68.5578V94.6059C126.832 95.0932 126.437 95.4882 125.95 95.4882H82.9472C82.4599 95.4882 82.0649 95.0932 82.0649 94.6059V68.5578Z" fill="#A0E8FF"/>
	</g>
	<path fill-rule="evenodd" clip-rule="evenodd" d="M122.211 90.8303L118.524 84.655C118.24 84.1809 117.563 84.1809 117.285 84.655L113.597 90.8303C113.307 91.3166 113.658 91.9305 114.22 91.9305H121.595C122.151 91.9305 122.502 91.3166 122.211 90.8303ZM117.375 86.8067C117.375 86.5332 117.593 86.3144 117.865 86.3144H117.932C118.204 86.3144 118.421 86.5332 118.421 86.8067V88.6483C118.421 88.9219 118.204 89.1407 117.932 89.1407H117.865C117.593 89.1407 117.375 88.9219 117.375 88.6483V86.8067ZM118.518 90.3806C118.518 90.721 118.24 91.0006 117.901 91.0006C117.563 91.0006 117.285 90.721 117.285 90.3806V90.3806C117.285 90.0403 117.563 89.7607 117.901 89.7607C118.24 89.7607 118.518 90.0403 118.518 90.3806V90.3806Z" fill="#67D7FB"/>
	<rect opacity="0.882673" x="86.4324" y="85.6074" width="5.82335" height="5.85529" rx="2.91167" fill="#67D7FB"/>
	<rect opacity="0.882673" x="94.8035" y="85.6074" width="5.82335" height="5.85529" rx="2.91167" fill="#67D7FB"/>
	<rect x="87.0356" y="72.433" width="30.9365" height="2.56169" rx="1.28084" fill="#67D7FB"/>
	<rect x="87.0356" y="77.5564" width="30.9365" height="2.56169" rx="1.28084" fill="#67D7FB"/>
	<g filter="url(#filter2_d_848_125175)">
		<rect x="125.618" y="45.2283" width="20.7457" height="20.8595" rx="2.20561" fill="#C5F03F"/>
	</g>
	<g filter="url(#filter3_d_848_125175)">
		<path fill-rule="evenodd" clip-rule="evenodd" d="M105.601 43.5489C105.601 43.0616 105.996 42.6666 106.483 42.6666H149.485C149.973 42.6666 150.368 43.0616 150.368 43.5489V69.597C150.368 70.0843 149.973 70.4793 149.485 70.4793H106.483C105.996 70.4793 105.601 70.0843 105.601 69.597V43.5489Z" fill="#B3E600"/>
	</g>
	<g opacity="0.536319">
		<rect opacity="0.882673" x="109.968" y="60.5984" width="5.82335" height="5.85529" rx="2.91167" fill="#94B817"/>
		<rect opacity="0.882673" x="118.339" y="60.5984" width="5.82335" height="5.85529" rx="2.91167" fill="#94B817"/>
		<rect x="110.571" y="47.424" width="30.9365" height="2.56169" rx="1.28085" fill="#94B817"/>
		<rect x="110.571" y="52.5474" width="30.9365" height="2.56169" rx="1.28084" fill="#94B817"/>
	</g>
	<g opacity="0.86563" filter="url(#filter4_d_848_125175)">
		<path d="M117.235 88.3121C107.316 88.3121 99.2756 80.2276 99.2756 70.2545C99.2756 60.2816 107.316 52.197 117.235 52.197C127.153 52.197 135.194 60.2816 135.194 70.2545C135.194 80.2276 127.153 88.3121 117.235 88.3121Z" fill="#FF5752"/>
	</g>
	<path fill-rule="evenodd" clip-rule="evenodd" d="M126.294 75.1962L118.538 62.2071C117.94 61.2099 116.516 61.2099 115.931 62.2071L108.175 75.1962C107.565 76.2189 108.302 77.5102 109.485 77.5102H124.997C126.167 77.5102 126.904 76.2189 126.294 75.1962ZM116.122 66.7328C116.122 66.1574 116.58 65.6972 117.152 65.6972H117.292C117.864 65.6972 118.322 66.1574 118.322 66.7328V70.6065C118.322 71.1818 117.864 71.642 117.292 71.642H117.152C116.58 71.642 116.122 71.1818 116.122 70.6065V66.7328ZM118.525 74.2501C118.525 74.966 117.94 75.5541 117.228 75.5541C116.516 75.5541 115.931 74.966 115.931 74.2501V74.2501C115.931 73.5341 116.516 72.946 117.228 72.946C117.94 72.946 118.525 73.5341 118.525 74.2501V74.2501Z" fill="white"/>
	<defs>
		<filter id="filter0_d_848_125175" x="99.4359" y="68.4727" width="26.0391" height="26.153" filterUnits="userSpaceOnUse" color-interpolation-filters="sRGB">
			<feFlood flood-opacity="0" result="BackgroundImageFix"/>
			<feColorMatrix in="SourceAlpha" type="matrix" values="0 0 0 0 0 0 0 0 0 0 0 0 0 0 0 0 0 0 127 0" result="hardAlpha"/>
			<feOffset dy="0.882243"/>
			<feGaussianBlur stdDeviation="1.32336"/>
			<feColorMatrix type="matrix" values="0 0 0 0 0 0 0 0 0 0 0 0 0 0 0 0 0 0 0.179469 0"/>
			<feBlend mode="normal" in2="BackgroundImageFix" result="effect1_dropShadow_848_125175"/>
			<feBlend mode="normal" in="SourceGraphic" in2="effect1_dropShadow_848_125175" result="shape"/>
		</filter>
		<filter id="filter1_d_848_125175" x="79.4182" y="65.9111" width="50.0604" height="33.1061" filterUnits="userSpaceOnUse" color-interpolation-filters="sRGB">
			<feFlood flood-opacity="0" result="BackgroundImageFix"/>
			<feColorMatrix in="SourceAlpha" type="matrix" values="0 0 0 0 0 0 0 0 0 0 0 0 0 0 0 0 0 0 127 0" result="hardAlpha"/>
			<feOffset dy="0.882243"/>
			<feGaussianBlur stdDeviation="1.32336"/>
			<feColorMatrix type="matrix" values="0 0 0 0 0 0 0 0 0 0 0 0 0 0 0 0 0 0 0.0957441 0"/>
			<feBlend mode="normal" in2="BackgroundImageFix" result="effect1_dropShadow_848_125175"/>
			<feBlend mode="normal" in="SourceGraphic" in2="effect1_dropShadow_848_125175" result="shape"/>
		</filter>
		<filter id="filter2_d_848_125175" x="122.972" y="43.4638" width="26.0391" height="26.153" filterUnits="userSpaceOnUse" color-interpolation-filters="sRGB">
			<feFlood flood-opacity="0" result="BackgroundImageFix"/>
			<feColorMatrix in="SourceAlpha" type="matrix" values="0 0 0 0 0 0 0 0 0 0 0 0 0 0 0 0 0 0 127 0" result="hardAlpha"/>
			<feOffset dy="0.882243"/>
			<feGaussianBlur stdDeviation="1.32336"/>
			<feColorMatrix type="matrix" values="0 0 0 0 0 0 0 0 0 0 0 0 0 0 0 0 0 0 0.179469 0"/>
			<feBlend mode="normal" in2="BackgroundImageFix" result="effect1_dropShadow_848_125175"/>
			<feBlend mode="normal" in="SourceGraphic" in2="effect1_dropShadow_848_125175" result="shape"/>
		</filter>
		<filter id="filter3_d_848_125175" x="102.954" y="40.9021" width="50.0604" height="33.1061" filterUnits="userSpaceOnUse" color-interpolation-filters="sRGB">
			<feFlood flood-opacity="0" result="BackgroundImageFix"/>
			<feColorMatrix in="SourceAlpha" type="matrix" values="0 0 0 0 0 0 0 0 0 0 0 0 0 0 0 0 0 0 127 0" result="hardAlpha"/>
			<feOffset dy="0.882243"/>
			<feGaussianBlur stdDeviation="1.32336"/>
			<feColorMatrix type="matrix" values="0 0 0 0 0 0 0 0 0 0 0 0 0 0 0 0 0 0 0.0957441 0"/>
			<feBlend mode="normal" in2="BackgroundImageFix" result="effect1_dropShadow_848_125175"/>
			<feBlend mode="normal" in="SourceGraphic" in2="effect1_dropShadow_848_125175" result="shape"/>
		</filter>
		<filter id="filter4_d_848_125175" x="96.6289" y="50.4325" width="41.2115" height="41.4084" filterUnits="userSpaceOnUse" color-interpolation-filters="sRGB">
			<feFlood flood-opacity="0" result="BackgroundImageFix"/>
			<feColorMatrix in="SourceAlpha" type="matrix" values="0 0 0 0 0 0 0 0 0 0 0 0 0 0 0 0 0 0 127 0" result="hardAlpha"/>
			<feOffset dy="0.882243"/>
			<feGaussianBlur stdDeviation="1.32336"/>
			<feColorMatrix type="matrix" values="0 0 0 0 0 0 0 0 0 0 0 0 0 0 0 0 0 0 0.0741641 0"/>
			<feBlend mode="normal" in2="BackgroundImageFix" result="effect1_dropShadow_848_125175"/>
			<feBlend mode="normal" in="SourceGraphic" in2="effect1_dropShadow_848_125175" result="shape"/>
		</filter>
	</defs>
</svg>
