<svg width="102" height="96" viewBox="0 0 102 96" fill="none" xmlns="http://www.w3.org/2000/svg">
<g opacity="0.77" filter="url(#filter0_d_381_351571)">
<path d="M14 14.0994C14 11.7581 15.9695 9.8923 18.3223 10.0048L34.3993 10.7739C36.1018 10.8553 37.695 11.6319 38.8022 12.92L42.8 17.5713L46.5592 22.0371C47.49 23.1428 48 24.5386 48 25.9804V53.2161C48 56.5386 45.343 59.2594 42.0018 59.3581L20.3683 59.9972C16.8839 60.1002 14.003 57.3206 14.0028 53.8556L14 14.0994Z" fill="#1BCE7B"/>
</g>
<g opacity="0.24" filter="url(#filter1_d_381_351571)">
<path fill-rule="evenodd" clip-rule="evenodd" d="M34.3696 11.3876L18.2926 10.6186C16.2925 10.5229 14.6182 12.109 14.6182 14.0994C14.6182 14.0994 14.6182 14.0994 14.6182 14.0994L14.621 53.8555C14.6212 56.9741 17.214 59.4757 20.3499 59.383L41.9835 58.7439C44.9905 58.6551 47.3818 56.2064 47.3818 53.2161V25.9804C47.3818 24.6828 46.9228 23.4266 46.0851 22.4314L42.33 17.9705L42.3259 17.9657L38.3322 13.3192C37.3357 12.1598 35.9018 11.4609 34.3696 11.3876ZM42.8 17.5713L38.8022 12.92C37.695 11.6319 36.1018 10.8553 34.3993 10.7739L18.3223 10.0048C15.9695 9.8923 14 11.7581 14 14.0994L14.0028 53.8556C14.003 57.3206 16.8839 60.1002 20.3683 59.9972L42.0018 59.3581C45.343 59.2594 48 56.5386 48 53.2161V25.9804C48 24.5386 47.49 23.1428 46.5592 22.0371L42.8 17.5713Z" fill="white"/>
</g>
<g opacity="0.77" filter="url(#filter2_d_381_351571)">
<path d="M40 32.9971C40 30.1966 42.3307 27.9428 45.1666 28.0011L58.8037 28.2814C60.2038 28.3102 61.5292 28.9105 62.4647 29.9394L66.2378 34.0895L69.7399 38.0225C70.5521 38.9346 71 40.1075 71 41.3219V66.0193C71 68.6865 68.8784 70.8836 66.18 71.0107L45.3024 71.9942C42.4158 72.1302 40 69.8561 40 67.0028V32.9971Z" fill="#1F86FF"/>
</g>
<g opacity="0.24" filter="url(#filter3_d_381_351571)">
<path fill-rule="evenodd" clip-rule="evenodd" d="M58.7905 28.9059L45.1534 28.6256C42.672 28.5746 40.6327 30.5466 40.6327 32.9971V67.0028C40.6327 69.4995 42.7465 71.4893 45.2723 71.3703L66.1498 70.3868C68.5109 70.2755 70.3673 68.3531 70.3673 66.0193V41.3219C70.3673 40.2593 69.9754 39.233 69.2648 38.4349L65.767 34.5068L65.7627 34.502L61.9939 30.3567C61.1754 29.4564 60.0156 28.9311 58.7905 28.9059ZM66.2378 34.0895L62.4647 29.9394C61.5292 28.9105 60.2038 28.3102 58.8037 28.2814L45.1666 28.0011C42.3307 27.9428 40 30.1966 40 32.9971V67.0028C40 69.8561 42.4158 72.1302 45.3024 71.9942L66.18 71.0107C68.8784 70.8836 71 68.6865 71 66.0193V41.3219C71 40.1075 70.5521 38.9346 69.7399 38.0225L66.2378 34.0895Z" fill="white"/>
</g>
<g opacity="0.8" filter="url(#filter4_d_381_351571)">
<path d="M69.0526 44H77.9107C79.3712 44 80.7603 44.5919 81.7199 45.6232L84.2853 48.3804L86.7921 51.1339C87.5717 51.9902 88 53.0788 88 54.2043V72.4439C88 74.9414 85.9278 77.009 83.2665 77.1667L69.3718 77.9904C66.4615 78.1629 64 75.9987 64 73.2676V48.7328C64 46.1464 66.2171 44.0391 68.9783 44.001L69.0526 44Z" fill="#DFE0E3"/>
</g>
<g opacity="0.42" filter="url(#filter5_d_381_351571)">
<path fill-rule="evenodd" clip-rule="evenodd" d="M69.0573 44.5915L68.9876 44.5925C66.5715 44.6258 64.6316 46.4697 64.6316 48.7328V73.2676C64.6316 75.6573 66.7854 77.5509 69.3319 77.4L83.2266 76.5764C85.5552 76.4384 87.3684 74.6292 87.3684 72.4439V54.2043C87.3684 53.2195 86.9937 52.267 86.3115 51.5177L83.8092 48.769L81.2437 46.0118C80.4041 45.1095 79.1887 44.5915 77.9107 44.5915H69.0573ZM84.2853 48.3804L81.7199 45.6232C80.7603 44.5919 79.3712 44 77.9107 44H69.0526L68.9783 44.001C66.2171 44.0391 64 46.1464 64 48.7328V73.2676C64 75.9987 66.4615 78.1629 69.3718 77.9904L83.2665 77.1667C85.9278 77.009 88 74.9414 88 72.4439V54.2043C88 53.0788 87.5717 51.9902 86.7921 51.1339L84.2853 48.3804Z" fill="white"/>
</g>
<path opacity="0.9" d="M21.2012 25L37.8978 25.473C38.7826 25.494 39.5 26.3023 39.5 27.2723C39.5 28.2423 38.786 29.0177 37.8978 28.9997L21.2012 28.6255C20.2618 28.6075 19.5 27.7782 19.5 26.7753C19.5 25.7724 20.2618 24.979 21.2012 25.003V25Z" fill="white"/>
<path opacity="0.9" d="M47.4672 41.0026L62.6159 41.0232C63.3799 41.0232 64 41.6784 64 42.4807C64 43.2855 63.3799 43.9407 62.6159 43.9432L47.4672 44C46.6585 44.0026 46 43.3319 46 42.5013C46 41.6707 46.6585 41 47.4672 41V41.0026Z" fill="white"/>
<path opacity="0.9" d="M70.3879 54.2797L81.6872 54.0002C82.4122 53.988 83 54.569 83 55.2982C83 56.0298 82.4122 56.635 81.6872 56.6496L70.3879 56.9996C69.6205 57.0167 69 56.4211 69 55.6676C69 54.9141 69.6237 54.2943 70.3879 54.2797Z" fill="white"/>
<path opacity="0.6" d="M21.141 35.0001L32.9249 35.1118C33.7948 35.1191 34.5 35.7725 34.5 36.5668C34.5 37.3636 33.7948 38.0048 32.9249 38L21.141 37.9417C20.2348 37.9368 19.5 37.2737 19.5 36.4599C19.5 35.6462 20.2348 34.9928 21.141 35.0001Z" fill="white"/>
<path opacity="0.6" d="M47.4207 49.119L57.635 49.0001C58.3902 48.9902 59 49.6169 59 50.3972C59 51.1774 58.3902 51.819 57.635 51.8314L47.4207 51.9998C46.6376 52.0122 46 51.3781 46 50.5805C46 49.7829 46.6376 49.1289 47.4207 49.1215V49.119Z" fill="white"/>
<path opacity="0.3" d="M47.4207 58.119L56.635 58.0001C57.3902 57.9902 58 58.6169 58 59.3972C58 60.1774 57.3902 60.819 56.635 60.8314L47.4207 60.9998C46.6376 61.0122 46 60.3781 46 59.5805C46 58.7829 46.6376 58.1289 47.4207 58.1215V58.119Z" fill="white"/>
<path opacity="0.3" d="M21.141 43.0294L32.9249 43C33.7948 43 34.5 43.6476 34.5 44.4497C34.5 45.2542 33.7948 45.9092 32.9249 45.9165L21.141 45.9999C20.2348 46.0073 19.5 45.345 19.5 44.5233C19.5 43.7015 20.2348 43.0319 21.141 43.0294Z" fill="white"/>
<path opacity="0.3" d="M70.4192 68.3923L79.6342 68.001C80.3889 67.9731 81 68.5204 81 69.2285C81 69.9342 80.3889 70.5328 79.6342 70.5654L70.4192 70.9986C69.6345 71.0312 69 70.4746 69 69.7525C69 69.0305 69.6378 68.4226 70.4192 68.3923Z" fill="white"/>
<path opacity="0.6" d="M70.4192 61.3923L80.6342 61.001C81.3889 60.9731 82 61.5204 82 62.2285C82 62.9342 81.3889 63.5328 80.6342 63.5654L70.4192 63.9986C69.6345 64.0312 69 63.4746 69 62.7525C69 62.0305 69.6378 61.4226 70.4192 61.3923Z" fill="white"/>
<defs>
<filter id="filter0_d_381_351571" x="4.87213" y="3.48009" width="52.2557" height="68.2557" filterUnits="userSpaceOnUse" color-interpolation-filters="sRGB">
<feFlood flood-opacity="0" result="BackgroundImageFix"/>
<feColorMatrix in="SourceAlpha" type="matrix" values="0 0 0 0 0 0 0 0 0 0 0 0 0 0 0 0 0 0 127 0" result="hardAlpha"/>
<feOffset dy="2.60796"/>
<feGaussianBlur stdDeviation="4.56393"/>
<feComposite in2="hardAlpha" operator="out"/>
<feColorMatrix type="matrix" values="0 0 0 0 0.345098 0 0 0 0 0.85098 0 0 0 0 0.639216 0 0 0 0.34 0"/>
<feBlend mode="normal" in2="BackgroundImageFix" result="effect1_dropShadow_381_351571"/>
<feBlend mode="normal" in="SourceGraphic" in2="effect1_dropShadow_381_351571" result="shape"/>
</filter>
<filter id="filter1_d_381_351571" x="0" y="0" width="62" height="78" filterUnits="userSpaceOnUse" color-interpolation-filters="sRGB">
<feFlood flood-opacity="0" result="BackgroundImageFix"/>
<feColorMatrix in="SourceAlpha" type="matrix" values="0 0 0 0 0 0 0 0 0 0 0 0 0 0 0 0 0 0 127 0" result="hardAlpha"/>
<feOffset dy="4"/>
<feGaussianBlur stdDeviation="7"/>
<feComposite in2="hardAlpha" operator="out"/>
<feColorMatrix type="matrix" values="0 0 0 0 0 0 0 0 0 0 0 0 0 0 0 0 0 0 0.02 0"/>
<feBlend mode="normal" in2="BackgroundImageFix" result="effect1_dropShadow_381_351571"/>
<feBlend mode="normal" in="SourceGraphic" in2="effect1_dropShadow_381_351571" result="shape"/>
</filter>
<filter id="filter2_d_381_351571" x="32" y="24" width="47" height="60" filterUnits="userSpaceOnUse" color-interpolation-filters="sRGB">
<feFlood flood-opacity="0" result="BackgroundImageFix"/>
<feColorMatrix in="SourceAlpha" type="matrix" values="0 0 0 0 0 0 0 0 0 0 0 0 0 0 0 0 0 0 127 0" result="hardAlpha"/>
<feOffset dy="4"/>
<feGaussianBlur stdDeviation="4"/>
<feComposite in2="hardAlpha" operator="out"/>
<feColorMatrix type="matrix" values="0 0 0 0 0.114518 0 0 0 0 0.523572 0 0 0 0 1 0 0 0 0.24 0"/>
<feBlend mode="normal" in2="BackgroundImageFix" result="effect1_dropShadow_381_351571"/>
<feBlend mode="normal" in="SourceGraphic" in2="effect1_dropShadow_381_351571" result="shape"/>
</filter>
<filter id="filter3_d_381_351571" x="26" y="18" width="59" height="72" filterUnits="userSpaceOnUse" color-interpolation-filters="sRGB">
<feFlood flood-opacity="0" result="BackgroundImageFix"/>
<feColorMatrix in="SourceAlpha" type="matrix" values="0 0 0 0 0 0 0 0 0 0 0 0 0 0 0 0 0 0 127 0" result="hardAlpha"/>
<feOffset dy="4"/>
<feGaussianBlur stdDeviation="7"/>
<feComposite in2="hardAlpha" operator="out"/>
<feColorMatrix type="matrix" values="0 0 0 0 0 0 0 0 0 0 0 0 0 0 0 0 0 0 0.02 0"/>
<feBlend mode="normal" in2="BackgroundImageFix" result="effect1_dropShadow_381_351571"/>
<feBlend mode="normal" in="SourceGraphic" in2="effect1_dropShadow_381_351571" result="shape"/>
</filter>
<filter id="filter4_d_381_351571" x="50" y="34" width="52" height="62" filterUnits="userSpaceOnUse" color-interpolation-filters="sRGB">
<feFlood flood-opacity="0" result="BackgroundImageFix"/>
<feColorMatrix in="SourceAlpha" type="matrix" values="0 0 0 0 0 0 0 0 0 0 0 0 0 0 0 0 0 0 127 0" result="hardAlpha"/>
<feOffset dy="4"/>
<feGaussianBlur stdDeviation="7"/>
<feComposite in2="hardAlpha" operator="out"/>
<feColorMatrix type="matrix" values="0 0 0 0 0 0 0 0 0 0 0 0 0 0 0 0 0 0 0.04 0"/>
<feBlend mode="normal" in2="BackgroundImageFix" result="effect1_dropShadow_381_351571"/>
<feBlend mode="normal" in="SourceGraphic" in2="effect1_dropShadow_381_351571" result="shape"/>
</filter>
<filter id="filter5_d_381_351571" x="50" y="34" width="52" height="62" filterUnits="userSpaceOnUse" color-interpolation-filters="sRGB">
<feFlood flood-opacity="0" result="BackgroundImageFix"/>
<feColorMatrix in="SourceAlpha" type="matrix" values="0 0 0 0 0 0 0 0 0 0 0 0 0 0 0 0 0 0 127 0" result="hardAlpha"/>
<feOffset dy="4"/>
<feGaussianBlur stdDeviation="7"/>
<feComposite in2="hardAlpha" operator="out"/>
<feColorMatrix type="matrix" values="0 0 0 0 0.114518 0 0 0 0 0.523572 0 0 0 0 1 0 0 0 0.3 0"/>
<feBlend mode="normal" in2="BackgroundImageFix" result="effect1_dropShadow_381_351571"/>
<feBlend mode="normal" in="SourceGraphic" in2="effect1_dropShadow_381_351571" result="shape"/>
</filter>
</defs>
</svg>
