<svg xmlns="http://www.w3.org/2000/svg" width="139" height="146" fill="none"><path fill="#C4E6FF" d="M18.2 22.05c0-7.15 6.03-12.82 13.17-12.36l32.7 2.1c3.31.2 6.41 1.75 8.59 4.27l8.86 10.3 8.06 9.55a12.38 12.38 0 0 1 2.92 7.98v58c0 6.5-5.04 11.9-11.54 12.35l-49.54 3.4a12.38 12.38 0 0 1-13.23-12.36V22.05Z" opacity=".72"/><path fill="#fff" fill-rule="evenodd" d="m63.95 13.55-32.7-2.1a10.62 10.62 0 0 0-11.29 10.6v83.23c0 6.14 5.2 11 11.34 10.59l49.54-3.4c5.57-.38 9.9-5 9.9-10.59V43.9c0-2.5-.9-4.93-2.51-6.84l-8.05-9.54-.01-.02-8.86-10.28a10.62 10.62 0 0 0-7.36-3.66Zm17.57 12.8-8.86-10.29a12.38 12.38 0 0 0-8.6-4.28l-32.7-2.1A12.38 12.38 0 0 0 18.2 22.06v83.23c0 7.17 6.08 12.84 13.23 12.35l49.54-3.39a12.38 12.38 0 0 0 11.54-12.36V43.9c0-2.92-1.03-5.75-2.92-7.98l-8.06-9.56Z" clip-rule="evenodd" opacity=".18"/><path fill="#0075FF" d="m32.63 48.17 42.24.78c1.46.03 2.64 1.5 2.64 3.28 0 1.78-1.18 3.22-2.64 3.2l-42.24-.38c-1.66-.02-3-1.58-3-3.48s1.34-3.43 3-3.4ZM32.63 61.92h20.33c1.55 0 2.81 1.49 2.81 3.33s-1.26 3.35-2.81 3.36l-20.33.2c-1.66 0-3-1.53-3-3.43 0-1.91 1.34-3.46 3-3.46ZM32.63 75.68l20.33-.38c1.55-.03 2.81 1.44 2.81 3.28 0 1.84-1.26 3.36-2.81 3.4l-20.33.57c-1.66.05-3-1.46-3-3.37 0-1.9 1.34-3.48 3-3.5Z" opacity=".3"/><g filter="url(#a)" opacity=".6"><path fill="#FF5752" d="M64.2 81.8c0-8.73 7.02-15.83 15.75-15.92l24.77-.26a15.92 15.92 0 0 1 16.09 15.93v28.44c0 8.31-6.4 15.23-14.68 15.87l-24.77 1.95a15.92 15.92 0 0 1-17.17-15.88V81.8Z"/></g><g filter="url(#b)" opacity=".24"><path fill="#fff" fill-rule="evenodd" d="M79.97 67.65a14.15 14.15 0 0 0-14 14.15v30.13c0 8.26 7.02 14.76 15.25 14.11L106 124.1A14.15 14.15 0 0 0 119.04 110V81.55c0-7.88-6.43-14.24-14.3-14.16l-24.77.26Zm-.02-1.77A15.92 15.92 0 0 0 64.2 81.8v30.13c0 9.29 7.91 16.6 17.17 15.88l24.77-1.95A15.92 15.92 0 0 0 120.81 110V81.55c0-8.86-7.23-16.02-16.09-15.93l-24.77.26Z" clip-rule="evenodd"/></g><path fill="#fff" fill-rule="evenodd" d="M106.35 104.52 95.47 84.3c-.86-1.58-2.89-1.52-3.73.12l-11.3 21.6c-.9 1.73.19 3.78 1.93 3.67l22.18-1.4c1.62-.1 2.64-2.2 1.8-3.78ZM92.01 91.7c0-.93.66-1.7 1.48-1.73h.2c.82-.04 1.47.67 1.47 1.6v6.22c0 .93-.65 1.7-1.47 1.74h-.2c-.82.05-1.48-.66-1.48-1.59v-6.24Zm3.44 11.92c0 1.15-.83 2.15-1.85 2.2-1.02.07-1.86-.83-1.86-1.98 0-1.16.84-2.16 1.86-2.2 1.02-.06 1.85.83 1.85 1.99Z" clip-rule="evenodd"/><defs><filter id="a" width="72.62" height="78.23" x="56.19" y="61.62" color-interpolation-filters="sRGB" filterUnits="userSpaceOnUse"><feFlood flood-opacity="0" result="BackgroundImageFix"/><feColorMatrix in="SourceAlpha" result="hardAlpha" values="0 0 0 0 0 0 0 0 0 0 0 0 0 0 0 0 0 0 127 0"/><feOffset dy="4"/><feGaussianBlur stdDeviation="4"/><feComposite in2="hardAlpha" operator="out"/><feColorMatrix values="0 0 0 0 1 0 0 0 0 0.114518 0 0 0 0 0.114518 0 0 0 0.24 0"/><feBlend in2="BackgroundImageFix" result="effect1_dropShadow_2001_35932"/><feBlend in="SourceGraphic" in2="effect1_dropShadow_2001_35932" result="shape"/></filter><filter id="b" width="84.62" height="90.23" x="50.19" y="55.62" color-interpolation-filters="sRGB" filterUnits="userSpaceOnUse"><feFlood flood-opacity="0" result="BackgroundImageFix"/><feColorMatrix in="SourceAlpha" result="hardAlpha" values="0 0 0 0 0 0 0 0 0 0 0 0 0 0 0 0 0 0 127 0"/><feOffset dy="4"/><feGaussianBlur stdDeviation="7"/><feComposite in2="hardAlpha" operator="out"/><feColorMatrix values="0 0 0 0 0 0 0 0 0 0 0 0 0 0 0 0 0 0 0.02 0"/><feBlend in2="BackgroundImageFix" result="effect1_dropShadow_2001_35932"/><feBlend in="SourceGraphic" in2="effect1_dropShadow_2001_35932" result="shape"/></filter></defs></svg>