<svg xmlns="http://www.w3.org/2000/svg" width="141" height="146" fill="none"><path fill="#C4E6FF" d="m32.96 17.7 85.97 3.5c4.12.18 7.42 4.23 7.42 9.07v66.55c0 4.84-3.3 8.96-7.41 9.22l-85.98 5.4c-5.08.32-9.23-3.83-9.23-9.28V27.19c0-5.45 4.15-9.7 9.23-9.5Z" opacity=".72"/><path fill="#fff" fill-rule="evenodd" d="M118.86 22.98 32.9 19.47c-3.96-.16-7.39 3.16-7.39 7.72v74.97c0 4.54 3.4 7.77 7.35 7.52l85.97-5.4c2.94-.2 5.76-3.3 5.76-7.46V30.27c0-4.16-2.8-7.17-5.72-7.3Zm.08-1.77L32.95 17.7c-5.08-.2-9.23 4.04-9.23 9.49v74.97c0 5.45 4.15 9.6 9.23 9.28l85.97-5.4c4.11-.26 7.42-4.39 7.42-9.22V30.27c0-4.84-3.3-8.9-7.41-9.06Z" clip-rule="evenodd" opacity=".18"/><path fill="#0075FF" d="M23.73 27.12c0-5.41 4.15-9.62 9.23-9.42l85.97 3.48c4.12.17 7.42 4.2 7.42 9v5.2l-102.62-2.4v-5.87Z" opacity=".3"/><path fill="#fff" d="M33.22 23c1.32.05 2.4 1.24 2.4 2.66 0 1.43-1.08 2.55-2.4 2.51-1.33-.03-2.41-1.22-2.41-2.66 0-1.43 1.08-2.55 2.4-2.5ZM39.57 23.22c1.3.05 2.36 1.23 2.36 2.64 0 1.42-1.05 2.53-2.36 2.5-1.3-.04-2.37-1.22-2.37-2.65 0-1.42 1.06-2.53 2.37-2.49ZM45.83 23.44c1.28.04 2.32 1.21 2.32 2.61s-1.03 2.51-2.32 2.47c-1.28-.03-2.33-1.2-2.33-2.62 0-1.4 1.05-2.51 2.33-2.47Z" opacity=".4"/><path fill="#1F86FF" d="M73.27 48.17c0-4.18 3.17-7.53 7.04-7.48l17.67.25a6.5 6.5 0 0 1 4.78 2.27l4.93 5.62 4.47 5.19a7.71 7.71 0 0 1 1.8 5v32.84c0 4-2.9 7.4-6.53 7.58l-27.12 1.4c-3.87.2-7.04-3.03-7.04-7.22V48.16Z" opacity=".77"/><g filter="url(#a)" opacity=".24"><path fill="#fff" fill-rule="evenodd" d="M80.3 40.7a6.96 6.96 0 0 0-6.56 4.76 8 8 0 0 0-.47 2.7v45.46c0 4.19 3.17 7.42 7.04 7.22l27.12-1.4c3.62-.19 6.53-3.58 6.53-7.58V59.03c0-1.87-.65-3.66-1.8-5.01l-4.47-5.2-4.93-5.6a6.5 6.5 0 0 0-4.78-2.28l-17.67-.25Zm21.13 3.68a4.74 4.74 0 0 0-3.47-1.67l-17.68-.25c-2.69-.04-5.11 2.26-5.24 5.46v45.7c0 3.3 2.45 5.6 5.18 5.45l27.12-1.4c2.52-.13 4.85-2.59 4.85-5.8V59.02c0-1.47-.5-2.85-1.38-3.86l-4.45-5.18-4.93-5.6Z" clip-rule="evenodd"/></g><path fill="#fff" d="m82.7 65.64 20.8-.23c.75-.01 1.35.69 1.35 1.56 0 .87-.6 1.6-1.34 1.6l-20.82.32c-.78.01-1.42-.7-1.42-1.6 0-.9.64-1.64 1.42-1.65Z" opacity=".9"/><path fill="#fff" d="m82.7 75.4 9.85-.24c.77-.01 1.39.69 1.39 1.57 0 .89-.62 1.62-1.39 1.64l-9.86.28c-.78.03-1.42-.69-1.42-1.59 0-.9.64-1.64 1.42-1.66Z" opacity=".6"/><path fill="#fff" d="m82.7 85.17 9.85-.37c.77-.03 1.39.66 1.39 1.55 0 .88-.62 1.63-1.39 1.66l-9.86.41c-.78.03-1.42-.67-1.42-1.57s.64-1.66 1.42-1.69Z" opacity=".3"/><g filter="url(#b)" opacity=".77"><path fill="#1F86FF" d="M30.04 55.85c-.7-1.28.26-2.87 1.65-2.77l25.28 1.9c1.64.12 2.62 2 1.91 3.63L48 83.17c-.58 1.33-2.29 1.47-2.96.24l-2.57-4.72a40.08 40.08 0 0 0-8.72 5.88c-3.32 3-6.24 6.86-8.3 11.33a31.66 31.66 0 0 0-2.92 14.96c.15 2.7.61 5.47 1.25 8.24.65 2.77 1.46 5.53 2.27 8.29l-.36-.53c-2.93-4.24-5.9-8.56-8.04-13.87a32 32 0 0 1-1.44-4.32l-.3-1.13c-.07-.24-.1-.5-.16-.74l-.08-.4c-.15-.78-.3-1.55-.4-2.34-.43-3.14-.5-6.37-.23-9.6a51.7 51.7 0 0 1 5.24-18.54 59.62 59.62 0 0 1 11-15.25l.4-.3.22-.17.37-.27-2.22-4.08Z"/></g><g filter="url(#c)" opacity=".24"><path fill="#fff" fill-rule="evenodd" d="m56.97 54.97-25.28-1.89c-1.4-.1-2.35 1.5-1.65 2.77l2.23 4.08-.1.07-.27.2-.1.08-.12.09-.4.3a59.62 59.62 0 0 0-11 15.25 51.7 51.7 0 0 0-5.24 18.55 43.79 43.79 0 0 0 .71 12.33l.03.14.13.6.3 1.13a32 32 0 0 0 1.44 4.32 55.56 55.56 0 0 0 5.22 9.7c.93 1.42 1.88 2.8 2.82 4.17l.36.53-.19-.64c-.47-1.6-.93-3.2-1.36-4.79-.25-.95-.5-1.9-.72-2.86a49.1 49.1 0 0 1-1.25-8.24 31.66 31.66 0 0 1 2.92-14.96 35.19 35.19 0 0 1 13.6-15.3c1.11-.7 2.26-1.33 3.42-1.91l2.57 4.72c.67 1.23 2.38 1.1 2.96-.24l10.88-24.56c.71-1.63-.27-3.51-1.91-3.64Zm.3 2.92s-.01 0 0 0c.12-.3.1-.6-.03-.84-.12-.23-.28-.3-.4-.31L31.6 54.85a.17.17 0 0 0-.02.08v.03l2.98 5.48-1.24.92a155.78 155.78 0 0 1-.36.26h-.01l-.02.02-.2.15-.29.22a57.8 57.8 0 0 0-10.58 14.7 49.93 49.93 0 0 0-5.05 17.9c-.26 3.1-.2 6.2.22 9.21v.05a24.76 24.76 0 0 0 .5 2.76c.03.2.05.32.09.46l.3 1.14v.02c.34 1.39.83 2.73 1.37 4.08a44.98 44.98 0 0 0 2.26 4.76c-.4-2.05-.68-4.1-.79-6.14-.3-5.7.91-11.06 3.09-15.79a36.96 36.96 0 0 1 8.72-11.9 41.84 41.84 0 0 1 9.11-6.15l1.53-.77 3.24 5.97 10.81-24.42Z" clip-rule="evenodd"/></g><defs><filter id="a" width="68.69" height="88.15" x="59.27" y="30.69" color-interpolation-filters="sRGB" filterUnits="userSpaceOnUse"><feFlood flood-opacity="0" result="BackgroundImageFix"/><feColorMatrix in="SourceAlpha" result="hardAlpha" values="0 0 0 0 0 0 0 0 0 0 0 0 0 0 0 0 0 0 127 0"/><feOffset dy="4"/><feGaussianBlur stdDeviation="7"/><feComposite in2="hardAlpha" operator="out"/><feColorMatrix values="0 0 0 0 0 0 0 0 0 0 0 0 0 0 0 0 0 0 0.02 0"/><feBlend in2="BackgroundImageFix" result="effect1_dropShadow_2001_29615"/><feBlend in="SourceGraphic" in2="effect1_dropShadow_2001_29615" result="shape"/></filter><filter id="b" width="60.23" height="90.31" x="6.88" y="49.08" color-interpolation-filters="sRGB" filterUnits="userSpaceOnUse"><feFlood flood-opacity="0" result="BackgroundImageFix"/><feColorMatrix in="SourceAlpha" result="hardAlpha" values="0 0 0 0 0 0 0 0 0 0 0 0 0 0 0 0 0 0 127 0"/><feOffset dy="4"/><feGaussianBlur stdDeviation="4"/><feComposite in2="hardAlpha" operator="out"/><feColorMatrix values="0 0 0 0 0.114518 0 0 0 0 0.523572 0 0 0 0 1 0 0 0 0.24 0"/><feBlend in2="BackgroundImageFix" result="effect1_dropShadow_2001_29615"/><feBlend in="SourceGraphic" in2="effect1_dropShadow_2001_29615" result="shape"/></filter><filter id="c" width="72.23" height="102.31" x=".88" y="43.08" color-interpolation-filters="sRGB" filterUnits="userSpaceOnUse"><feFlood flood-opacity="0" result="BackgroundImageFix"/><feColorMatrix in="SourceAlpha" result="hardAlpha" values="0 0 0 0 0 0 0 0 0 0 0 0 0 0 0 0 0 0 127 0"/><feOffset dy="4"/><feGaussianBlur stdDeviation="7"/><feComposite in2="hardAlpha" operator="out"/><feColorMatrix values="0 0 0 0 0 0 0 0 0 0 0 0 0 0 0 0 0 0 0.02 0"/><feBlend in2="BackgroundImageFix" result="effect1_dropShadow_2001_29615"/><feBlend in="SourceGraphic" in2="effect1_dropShadow_2001_29615" result="shape"/></filter></defs></svg>