<svg width="40" height="40" viewBox="0 0 40 40" fill="none" xmlns="http://www.w3.org/2000/svg">
	<path d="M30 37.5H10C8.067 37.5 6.5 35.933 6.5 34V6C6.5 4.067 8.067 2.5 10 2.5H24.4649L33.5 11.2125V34C33.5 35.933 31.933 37.5 30 37.5Z" fill="url(#paint0_linear_7831_72007)" stroke="url(#paint1_linear_7831_72007)" stroke-linejoin="round"/>
	<path d="M28.65 11C26.4409 11 24.65 9.20914 24.65 7L24.65 2L34 11H28.65Z" fill="#DADEE5"/>
	<g filter="url(#filter0_d_7831_72007)">
		<path d="M4 18C4 16.8954 4.89543 16 6 16H23C24.1046 16 25 16.8954 25 18V24C25 25.1046 24.1046 26 23 26H6C4.89543 26 4 25.1046 4 24V18Z" fill="#FF5D53"/>
	</g>
	<path d="M7.64844 18.3633H9.83984C10.9609 18.3633 11.7383 19.125 11.7383 20.25C11.7383 21.375 10.9375 22.1367 9.79688 22.1367H8.65625V24H7.64844V18.3633ZM8.65625 19.1875V21.3242H9.57031C10.293 21.3242 10.7148 20.9336 10.7148 20.25C10.7148 19.5742 10.2969 19.1875 9.57422 19.1875H8.65625Z" fill="white"/>
	<path d="M12.4766 18.3633H14.5352C16.2188 18.3633 17.2148 19.3828 17.2148 21.168C17.2148 22.9531 16.2227 24 14.5352 24H12.4766V18.3633ZM13.4844 19.2148V23.1484H14.4297C15.5625 23.1484 16.1875 22.457 16.1875 21.1719C16.1875 19.9102 15.5547 19.2148 14.4297 19.2148H13.4844Z" fill="white"/>
	<path d="M19.0234 24H18.0156V18.3633H21.6094V19.2148H19.0234V20.8789H21.3867V21.6992H19.0234V24Z" fill="white"/>
	<defs>
		<filter id="filter0_d_7831_72007" x="2" y="15" width="25" height="14" filterUnits="userSpaceOnUse" color-interpolation-filters="sRGB">
			<feFlood flood-opacity="0" result="BackgroundImageFix"/>
			<feColorMatrix in="SourceAlpha" type="matrix" values="0 0 0 0 0 0 0 0 0 0 0 0 0 0 0 0 0 0 127 0" result="hardAlpha"/>
			<feOffset dy="1"/>
			<feGaussianBlur stdDeviation="1"/>
			<feComposite in2="hardAlpha" operator="out"/>
			<feColorMatrix type="matrix" values="0 0 0 0 0 0 0 0 0 0 0 0 0 0 0 0 0 0 0.12 0"/>
			<feBlend mode="normal" in2="BackgroundImageFix" result="effect1_dropShadow_7831_72007"/>
			<feBlend mode="normal" in="SourceGraphic" in2="effect1_dropShadow_7831_72007" result="shape"/>
		</filter>
		<linearGradient id="paint0_linear_7831_72007" x1="6" y1="2" x2="18.9313" y2="38.3799" gradientUnits="userSpaceOnUse">
			<stop stop-color="#F7FAFF"/>
			<stop offset="0.37" stop-color="#EDF1F9"/>
			<stop offset="1" stop-color="#EDF1F9"/>
		</linearGradient>
		<linearGradient id="paint1_linear_7831_72007" x1="20" y1="2" x2="20" y2="37.5" gradientUnits="userSpaceOnUse">
			<stop stop-color="#E4E8F0"/>
			<stop offset="1" stop-color="#E5E9F1"/>
		</linearGradient>
	</defs>
</svg>
