<svg xmlns="http://www.w3.org/2000/svg" width="139" height="146" fill="none"><path fill="#C4E6FF" d="M18.2 22.05c0-7.15 6.03-12.82 13.17-12.36l32.7 2.09c3.31.21 6.41 1.75 8.59 4.28l8.86 10.29 8.06 9.56a12.38 12.38 0 0 1 2.92 7.98v58c0 6.5-5.04 11.9-11.54 12.35l-49.54 3.4a12.38 12.38 0 0 1-13.23-12.36V22.05Z" opacity=".72"/><path fill="#fff" fill-rule="evenodd" d="M31.25 11.45a10.62 10.62 0 0 0-11.29 10.6v83.23c0 6.14 5.2 11 11.34 10.59l49.54-3.4a10.62 10.62 0 0 0 9.9-10.59V43.9c0-2.5-.9-4.93-2.51-6.84l-8.05-9.55h-.01L71.3 17.2a10.62 10.62 0 0 0-7.36-3.66l-32.7-2.1Zm50.27 14.9-8.86-10.3a12.38 12.38 0 0 0-8.6-4.27l-32.7-2.1A12.38 12.38 0 0 0 18.2 22.06v83.23c0 7.17 6.08 12.84 13.23 12.35l49.54-3.4a12.38 12.38 0 0 0 11.54-12.35V43.9c0-2.92-1.03-5.75-2.92-7.98l-8.06-9.56Z" clip-rule="evenodd" opacity=".18"/><g filter="url(#a)" opacity=".77"><path fill="#1F86FF" d="M64.2 81.64c0-8.76 7.06-15.87 15.82-15.93l24.77-.15a15.92 15.92 0 0 1 16.02 15.92v28.5c0 8.3-6.4 15.22-14.68 15.87l-24.77 1.95a15.92 15.92 0 0 1-17.17-15.87v-30.3Z"/></g><g filter="url(#b)" opacity=".24"><path fill="#fff" fill-rule="evenodd" d="M80.03 67.48a14.15 14.15 0 0 0-14.07 14.16v30.29c0 8.25 7.04 14.76 15.27 14.1L106 124.1a14.15 14.15 0 0 0 13.04-14.11v-28.5c0-7.85-6.4-14.2-14.24-14.15l-24.77.15Zm-.01-1.77a15.92 15.92 0 0 0-15.83 15.93v30.29c0 9.28 7.92 16.6 17.17 15.87l24.77-1.95a15.92 15.92 0 0 0 14.68-15.87v-28.5c0-8.83-7.2-15.97-16.02-15.92l-24.77.15Z" clip-rule="evenodd"/></g><path fill="#0075FF" d="m32.63 48.16 42.24.78c1.46.03 2.64 1.5 2.64 3.28 0 1.79-1.18 3.22-2.64 3.2l-42.24-.38c-1.66-.01-3-1.57-3-3.48 0-1.9 1.34-3.43 3-3.4ZM32.63 65.36l20.33-.1c1.55 0 2.81 1.48 2.81 3.32 0 1.84-1.26 3.35-2.81 3.37l-20.33.29c-1.66.02-3-1.5-3-3.41 0-1.91 1.34-3.46 3-3.47ZM32.63 82.55l20.33-.57c1.55-.04 2.81 1.41 2.81 3.25s-1.26 3.38-2.81 3.44l-20.33.75c-1.66.06-3-1.43-3-3.34 0-1.9 1.34-3.49 3-3.53Z" opacity=".3"/><g filter="url(#c)"><path fill="#fff" fill-rule="evenodd" d="M98.97 82.8c.25-.32.64-.33.89-.03l3.95 4.92c.24.3.24.8 0 1.1l-15.3 19.92-5.06-6 15.53-19.92Zm-17.9 28.52c-.05.22 0 .46.13.62.14.15.33.2.51.13l5.68-2.27-4.78-5.6-1.55 7.12Z" clip-rule="evenodd"/></g><defs><filter id="a" width="72.62" height="78.29" x="56.19" y="61.56" color-interpolation-filters="sRGB" filterUnits="userSpaceOnUse"><feFlood flood-opacity="0" result="BackgroundImageFix"/><feColorMatrix in="SourceAlpha" result="hardAlpha" values="0 0 0 0 0 0 0 0 0 0 0 0 0 0 0 0 0 0 127 0"/><feOffset dy="4"/><feGaussianBlur stdDeviation="4"/><feComposite in2="hardAlpha" operator="out"/><feColorMatrix values="0 0 0 0 0.114518 0 0 0 0 0.523572 0 0 0 0 1 0 0 0 0.24 0"/><feBlend in2="BackgroundImageFix" result="effect1_dropShadow_2001_36874"/><feBlend in="SourceGraphic" in2="effect1_dropShadow_2001_36874" result="shape"/></filter><filter id="b" width="84.62" height="90.29" x="50.19" y="55.56" color-interpolation-filters="sRGB" filterUnits="userSpaceOnUse"><feFlood flood-opacity="0" result="BackgroundImageFix"/><feColorMatrix in="SourceAlpha" result="hardAlpha" values="0 0 0 0 0 0 0 0 0 0 0 0 0 0 0 0 0 0 127 0"/><feOffset dy="4"/><feGaussianBlur stdDeviation="7"/><feComposite in2="hardAlpha" operator="out"/><feColorMatrix values="0 0 0 0 0 0 0 0 0 0 0 0 0 0 0 0 0 0 0.02 0"/><feBlend in2="BackgroundImageFix" result="effect1_dropShadow_2001_36874"/><feBlend in="SourceGraphic" in2="effect1_dropShadow_2001_36874" result="shape"/></filter><filter id="c" width="42.94" height="49.55" x="71.05" y="74.55" color-interpolation-filters="sRGB" filterUnits="userSpaceOnUse"><feFlood flood-opacity="0" result="BackgroundImageFix"/><feColorMatrix in="SourceAlpha" result="hardAlpha" values="0 0 0 0 0 0 0 0 0 0 0 0 0 0 0 0 0 0 127 0"/><feOffset dy="2"/><feGaussianBlur stdDeviation="5"/><feComposite in2="hardAlpha" operator="out"/><feColorMatrix values="0 0 0 0 0.145392 0 0 0 0 0.312805 0 0 0 0 0.743294 0 0 0 0.24 0"/><feBlend in2="BackgroundImageFix" result="effect1_dropShadow_2001_36874"/><feBlend in="SourceGraphic" in2="effect1_dropShadow_2001_36874" result="shape"/></filter></defs></svg>