<svg xmlns="http://www.w3.org/2000/svg" width="139" height="146" fill="none"><path fill="#C4E6FF" fill-rule="evenodd" d="M56.13 10.69h-.01c-3.7 3.28-10.45 7.55-17.1 10.98-6.77 3.48-13.48 6.05-18.88 5.83-.28 0-1.13.74-1.16 1.04C14.5 67 29.42 89.81 56.55 109.62c.18.13 1.07.07 1.25-.08 25.24-21.76 37.73-43.25 34.08-78.12-.03-.26-.73-1.01-.97-1.02-4.54-.19-10.36-3.1-16.42-6.98-6.16-3.95-12.64-8.88-16.27-12.6a4.77 4.77 0 0 0-2.1-.13Z" clip-rule="evenodd" opacity=".72"/><path fill="#fff" fill-rule="evenodd" d="M39.84 23.24c-6.56 3.37-13.4 6.08-19.17 6.04-2.09 18.7.5 33.49 6.82 46 6.3 12.48 16.4 22.83 29.6 32.54 12.29-10.66 21.37-21.18 26.98-33.17 5.6-12 7.8-25.6 6.1-42.53a24.67 24.67 0 0 1-7.62-2.2 69.53 69.53 0 0 1-9.01-5.01c-6.03-3.86-12.4-8.69-16.22-12.48a6.95 6.95 0 0 0-.46-.04c-3.92 3.36-10.56 7.52-17.02 10.85Zm50.28 8.36Zm.79-1.2c.24 0 .94.76.97 1.02 3.65 34.87-8.84 56.36-34.08 78.12-.18.15-1.07.21-1.25.08C29.42 89.81 14.5 66.99 18.98 28.54c.03-.3.88-1.05 1.16-1.04 5.4.22 12.11-2.35 18.89-5.83 6.64-3.43 13.4-7.7 17.09-10.98h.02c.21-.17 1.94-.01 2.08.13 3.63 3.72 10.1 8.65 16.27 12.6 6.06 3.88 11.88 6.79 16.42 6.98Z" clip-rule="evenodd" opacity=".18"/><g filter="url(#a)" opacity=".77"><path fill="#1F86FF" d="M64.2 81.64c0-8.76 7.06-15.87 15.82-15.93l24.77-.15a15.92 15.92 0 0 1 16.02 15.92v28.5c0 8.3-6.4 15.22-14.68 15.87l-24.77 1.95a15.92 15.92 0 0 1-17.17-15.87v-30.3Z"/></g><g filter="url(#b)" opacity=".24"><path fill="#fff" fill-rule="evenodd" d="M80.03 67.48a14.15 14.15 0 0 0-14.07 14.16v30.29c0 8.25 7.04 14.76 15.27 14.1L106 124.1a14.15 14.15 0 0 0 13.04-14.11v-28.5c0-7.85-6.4-14.2-14.24-14.15l-24.77.15Zm-.01-1.77a15.92 15.92 0 0 0-15.83 15.93v30.29c0 9.28 7.92 16.6 17.17 15.87l24.77-1.95a15.92 15.92 0 0 0 14.68-15.87v-28.5c0-8.83-7.2-15.97-16.02-15.92l-24.77.15Z" clip-rule="evenodd"/></g><g fill="#fff" filter="url(#c)"><path d="m92.94 85.15 4.42 5.33 3.03-3.91a2.5 2.5 0 0 0 0-2.97l-2.77-3.4c-.66-.8-1.74-.78-2.4.06l-3.08 3.93.8.96ZM85.73 105.5Z"/><path d="m85.73 105.5 11.63-15.02-5.22-6.3-11.81 15.04 5.4 6.28ZM78.37 107.3l1.45-6.83 4.9 5.7-5.48 2.13c-.52.2-1.01-.36-.87-1ZM109.8 103.6c.68-.93.45-2.2-.51-2.86a2.19 2.19 0 0 0-2.98.5l-3.5 4.78a.9.9 0 0 1-.07.09l-1.4-2.1a4.28 4.28 0 0 0-3.66-1.95 4.55 4.55 0 0 0-3.6 2l-2.15 3.07a.82.82 0 0 1-.19.19l-.6-.47a2.19 2.19 0 0 0-3 .32 2 2 0 0 0 .33 2.89l.66.5c1 .78 2.26 1.07 3.48.8a4.7 4.7 0 0 0 2.84-1.92l2.16-3.06.13-.15.02.02 1.4 2.1a4.25 4.25 0 0 0 3.59 1.95 4.48 4.48 0 0 0 3.55-1.9l3.5-4.8Z"/></g><path fill="#0075FF" d="m35.35 44.23 42.24.78c1.46.03 2.64 1.5 2.64 3.28 0 1.78-1.18 3.22-2.64 3.2l-42.24-.38c-1.66-.02-3-1.58-3-3.48 0-1.91 1.34-3.43 3-3.4ZM37.12 61.42l20.33-.1c1.55 0 2.81 1.49 2.81 3.33S59 68 57.45 68.02l-20.33.29c-1.66.02-3-1.5-3-3.41 0-1.91 1.34-3.46 3-3.47Z" opacity=".3"/><defs><filter id="a" width="72.62" height="78.29" x="56.19" y="61.56" color-interpolation-filters="sRGB" filterUnits="userSpaceOnUse"><feFlood flood-opacity="0" result="BackgroundImageFix"/><feColorMatrix in="SourceAlpha" result="hardAlpha" values="0 0 0 0 0 0 0 0 0 0 0 0 0 0 0 0 0 0 127 0"/><feOffset dy="4"/><feGaussianBlur stdDeviation="4"/><feComposite in2="hardAlpha" operator="out"/><feColorMatrix values="0 0 0 0 0.114518 0 0 0 0 0.523572 0 0 0 0 1 0 0 0 0.24 0"/><feBlend in2="BackgroundImageFix" result="effect1_dropShadow_2001_38436"/><feBlend in="SourceGraphic" in2="effect1_dropShadow_2001_38436" result="shape"/></filter><filter id="b" width="84.62" height="90.29" x="50.19" y="55.56" color-interpolation-filters="sRGB" filterUnits="userSpaceOnUse"><feFlood flood-opacity="0" result="BackgroundImageFix"/><feColorMatrix in="SourceAlpha" result="hardAlpha" values="0 0 0 0 0 0 0 0 0 0 0 0 0 0 0 0 0 0 127 0"/><feOffset dy="4"/><feGaussianBlur stdDeviation="7"/><feComposite in2="hardAlpha" operator="out"/><feColorMatrix values="0 0 0 0 0 0 0 0 0 0 0 0 0 0 0 0 0 0 0.02 0"/><feBlend in2="BackgroundImageFix" result="effect1_dropShadow_2001_38436"/><feBlend in="SourceGraphic" in2="effect1_dropShadow_2001_38436" result="shape"/></filter><filter id="c" width="51.85" height="51.85" x="68.35" y="71.62" color-interpolation-filters="sRGB" filterUnits="userSpaceOnUse"><feFlood flood-opacity="0" result="BackgroundImageFix"/><feColorMatrix in="SourceAlpha" result="hardAlpha" values="0 0 0 0 0 0 0 0 0 0 0 0 0 0 0 0 0 0 127 0"/><feOffset dy="2"/><feGaussianBlur stdDeviation="5"/><feComposite in2="hardAlpha" operator="out"/><feColorMatrix values="0 0 0 0 0.145392 0 0 0 0 0.312805 0 0 0 0 0.743294 0 0 0 0.24 0"/><feBlend in2="BackgroundImageFix" result="effect1_dropShadow_2001_38436"/><feBlend in="SourceGraphic" in2="effect1_dropShadow_2001_38436" result="shape"/></filter></defs></svg>