<svg width="367" height="59" viewBox="0 0 367 59" fill="none" xmlns="http://www.w3.org/2000/svg">
<rect width="367" height="129" fill="#E0F7FE"/>
<g clip-path="url(#clip0)">
<path fill-rule="evenodd" clip-rule="evenodd" d="M155.552 5.88295C148.844 -6.8147 143.748 -18.2734 130.974 -23.417C125.753 -25.5209 121.63 -24.3013 118.433 -19.8157C115.21 -15.2932 116.757 -11.4319 120.067 -7.65404C129.103 2.66842 141.45 4.03255 155.552 5.88295V5.88295ZM173.499 5.55269C187.328 4.51274 199.067 2.29321 208.213 -6.99251C212.167 -11.0079 213.216 -15.7807 209.684 -20.7028C206.256 -25.4789 201.613 -25.3361 196.862 -23.1567C184.853 -17.6472 179.528 -6.78708 173.499 5.55269V5.55269ZM233.974 26.655H171.152C171.567 32.7567 170.078 38.2678 172.085 43.5815H233.99C234.847 37.6659 234.905 32.4261 233.974 26.655V26.655ZM157.661 26.6153H94.3684C93.8923 32.6673 93.2555 38.1125 94.7753 43.7777H157.796C158.286 37.8814 158.595 32.4586 157.661 26.6153V26.6153ZM107.098 115.265H157.69V58.9567H107.098V115.265ZM171.855 115.436H221.856V58.8023H171.855V115.436ZM93.7524 128.307V58.6865C93.7524 58.6865 85.6855 57.9498 81.5571 57.5727V13.6397H124.94C118.109 7.25392 111.162 3.67669 107.263 -3.09582C102.477 -11.4106 102.54 -20.2197 108.021 -27.923C113.272 -35.3038 122.178 -39.027 130.42 -37.0803C139.578 -34.9154 147.26 -30.1249 153.111 -22.842C157.108 -17.8686 160.429 -12.351 164.29 -6.72922C167.856 -11.9386 171.173 -17.3181 175.025 -22.2851C180.755 -29.6755 188.242 -34.5174 197.473 -36.7674C207.019 -39.0944 214.401 -35.6905 220.025 -28.3852C225.728 -20.9772 226.497 -12.725 222.002 -4.33798C218.124 2.89833 211.572 7.54761 203.023 13.1486H247.669V56.8955L235.682 58.5982V128.307H93.7524Z" fill="#F0FBFF"/>
<g filter="url(#filter0_d)">
<path fill-rule="evenodd" clip-rule="evenodd" d="M38 71C56.2254 71 71 56.2254 71 38C71 19.7746 56.2254 5 38 5C19.7746 5 5 19.7746 5 38C5 56.2254 19.7746 71 38 71Z" fill="white"/>
</g>
<path fill-rule="evenodd" clip-rule="evenodd" d="M37.9999 62.3021C50.9341 62.3021 61.4193 51.8169 61.4193 38.8827C61.4193 25.9486 50.9341 15.4634 37.9999 15.4634C25.0658 15.4634 14.5806 25.9486 14.5806 38.8827C14.5806 51.8169 25.0658 62.3021 37.9999 62.3021Z" fill="#5CD1DF"/>
<path fill-rule="evenodd" clip-rule="evenodd" d="M36.9047 31.933C35.8866 30.0028 35.1131 28.261 33.1742 27.4791C32.3819 27.1592 31.756 27.3447 31.2707 28.0265C30.7816 28.714 31.0164 29.3009 31.5187 29.8752C32.8903 31.4443 34.7642 31.6517 36.9047 31.933V31.933ZM39.6286 31.8827C41.7276 31.7247 43.5093 31.3873 44.8974 29.9757C45.4977 29.3654 45.6568 28.6398 45.1208 27.8916C44.6004 27.1656 43.8957 27.1873 43.1746 27.5186C41.3519 28.3561 40.5437 30.007 39.6286 31.8827V31.8827ZM48.8074 35.0905H39.2725C39.3355 36.018 39.1094 36.8558 39.4141 37.6635H48.8098C48.9399 36.7643 48.9487 35.9678 48.8074 35.0905V35.0905ZM37.2247 35.0844H27.6183C27.5461 36.0044 27.4494 36.8321 27.6801 37.6933H37.2452C37.3197 36.797 37.3666 35.9727 37.2247 35.0844V35.0844ZM29.5503 48.5601H37.2291V40.0007H29.5503V48.5601ZM39.3791 48.5862H46.9681V39.9772H39.3791V48.5862ZM27.5248 50.5427V39.9597C27.5248 39.9597 26.3004 39.8477 25.6738 39.7903V33.112H32.2583C31.2217 32.1413 30.1672 31.5976 29.5755 30.5681C28.849 29.3041 28.8586 27.965 29.6904 26.7941C30.4874 25.6721 31.8392 25.1061 33.0902 25.402C34.4801 25.7311 35.6462 26.4593 36.5342 27.5664C37.1408 28.3224 37.6448 29.1612 38.2309 30.0157C38.7721 29.2239 39.2756 28.4061 39.8603 27.6511C40.73 26.5277 41.8662 25.7916 43.2674 25.4496C44.7163 25.0959 45.8367 25.6133 46.6903 26.7238C47.5559 27.8499 47.6726 29.1043 46.9903 30.3792C46.4018 31.4792 45.4074 32.186 44.1097 33.0374H50.8861V39.6874L49.0666 39.9462V50.5427H27.5248Z" fill="white"/>
</g>
<defs>
<filter id="filter0_d" x="3" y="4" width="70" height="70" filterUnits="userSpaceOnUse" color-interpolation-filters="sRGB">
<feFlood flood-opacity="0" result="BackgroundImageFix"/>
<feColorMatrix in="SourceAlpha" type="matrix" values="0 0 0 0 0 0 0 0 0 0 0 0 0 0 0 0 0 0 127 0"/>
<feOffset dy="1"/>
<feGaussianBlur stdDeviation="1"/>
<feColorMatrix type="matrix" values="0 0 0 0 0 0 0 0 0 0 0 0 0 0 0 0 0 0 0.06 0"/>
<feBlend mode="normal" in2="BackgroundImageFix" result="effect1_dropShadow"/>
<feBlend mode="normal" in="SourceGraphic" in2="effect1_dropShadow" result="shape"/>
</filter>
<clipPath id="clip0">
<rect width="367" height="129" fill="white"/>
</clipPath>
</defs>
</svg>
