<svg width="135" height="122" viewBox="0 0 135 122" fill="none" xmlns="http://www.w3.org/2000/svg">
<path d="M131.745 116.117C134.083 115.266 135.38 112.808 134.901 110.366L133.245 101.926C133.245 98.4046 128.557 94.3818 119.325 92.0375C116.197 91.1808 113.224 89.8524 110.512 88.0997C109.918 87.7668 110.009 84.6912 110.009 84.6912L107.035 84.2468C107.035 83.9972 106.781 80.309 106.781 80.309C110.339 79.135 109.972 72.2102 109.972 72.2102C112.232 73.4408 113.703 67.9607 113.703 67.9607C116.375 60.3471 112.372 60.8074 112.372 60.8074C113.073 56.1595 113.073 51.4356 112.372 46.7877C110.593 31.3692 83.7991 35.5549 86.9761 40.5906C79.1454 39.1741 80.9322 56.6713 80.9322 56.6713L82.6307 61.2023C80.2765 62.7018 80.7388 64.4228 81.2552 66.3452C81.4705 67.1466 81.6952 67.9831 81.7292 68.8531C81.8933 73.2194 84.6141 72.3146 84.6141 72.3146C84.7818 79.521 88.4005 80.4595 88.4005 80.4595C89.0803 84.9852 88.6566 84.2149 88.6566 84.2149L85.4363 84.5974C85.4799 85.6266 85.3945 86.6571 85.1821 87.6659C83.311 88.4848 82.1656 89.1364 81.0314 89.7816C79.8704 90.4421 78.7212 91.0958 76.8176 91.9153C69.5476 95.044 61.6466 99.1129 60.242 104.591C59.8313 106.193 59.4292 108.346 59.0656 110.591C58.6846 112.944 59.9921 115.247 62.2299 116.065C71.9946 119.634 83.0147 121.749 94.7047 122H99.4115C111.045 121.75 122.015 119.654 131.745 116.117Z" fill="#2FC6F6" fill-opacity="0.2"/>
<path fill-rule="evenodd" clip-rule="evenodd" d="M132.679 99.7625C133.056 100.492 133.245 101.219 133.245 101.926L133.659 104.036L132.678 104.229L132.263 102.119C132.251 102.055 132.245 101.991 132.245 101.926C132.245 101.401 132.105 100.831 131.791 100.221L132.679 99.7625ZM134.487 108.256L133.506 108.448L133.92 110.558C134.015 111.045 134.024 111.53 133.955 111.996L134.944 112.142C135.029 111.565 135.019 110.965 134.901 110.366L134.487 108.256ZM133.276 115.217L132.62 114.462C132.272 114.764 131.864 115.009 131.403 115.177C130.767 115.408 130.125 115.633 129.478 115.852L129.798 116.799C130.453 116.578 131.102 116.35 131.745 116.116C132.323 115.906 132.837 115.598 133.276 115.217ZM125.862 118.034L125.583 117.074C124.287 117.45 122.971 117.801 121.638 118.126L121.875 119.097C123.222 118.769 124.551 118.414 125.862 118.034ZM117.847 119.992L117.651 119.011C116.325 119.277 114.984 119.518 113.629 119.733L113.786 120.721C115.154 120.504 116.508 120.26 117.847 119.992ZM109.699 121.286L109.582 120.293C108.238 120.452 106.882 120.586 105.514 120.694L105.593 121.69C106.973 121.582 108.342 121.446 109.699 121.286ZM101.474 121.936L101.433 120.937C100.758 120.964 100.081 120.985 99.4007 121H98.2348V122H99.4115C100.101 121.985 100.789 121.964 101.474 121.936ZM95.8814 122V121H94.7156C94.0325 120.985 93.3518 120.964 92.6736 120.936L92.633 121.936C93.3212 121.964 94.0118 121.985 94.7047 122H95.8814ZM88.4954 121.688L88.5743 120.691C87.2006 120.583 85.8383 120.448 84.4884 120.288L84.3706 121.281C85.7334 121.442 87.1087 121.578 88.4954 121.688ZM80.2651 120.71L80.4225 119.723C79.0614 119.506 77.7147 119.263 76.3834 118.995L76.186 119.975C77.5307 120.246 78.8908 120.491 80.2651 120.71ZM72.1406 119.073L72.3788 118.102C71.04 117.773 69.7189 117.419 68.4167 117.04L68.1371 118C69.4532 118.383 70.7881 118.741 72.1406 119.073ZM64.1843 116.754L64.5061 115.807C63.8564 115.586 63.2121 115.359 62.5732 115.126C62.1329 114.965 61.7393 114.732 61.4 114.446L60.7547 115.21C61.1822 115.571 61.6777 115.863 62.2299 116.065C62.8759 116.301 63.5275 116.531 64.1843 116.754ZM59.0797 112.297L60.0638 112.119C59.9843 111.678 59.9773 111.216 60.0527 110.751C60.1346 110.245 60.2184 109.744 60.3038 109.254L59.3186 109.083C59.2325 109.577 59.1481 110.082 59.0656 110.591C58.9719 111.17 58.9803 111.745 59.0797 112.297ZM59.8946 106.08L60.8723 106.29C60.9849 105.766 61.0979 105.279 61.2107 104.839C61.3366 104.348 61.5249 103.863 61.7727 103.384L60.8842 102.925C60.605 103.465 60.3883 104.02 60.242 104.591C60.1253 105.046 60.0092 105.546 59.8946 106.08ZM129.646 96.4658L129.054 97.2714C128.051 96.5337 126.808 95.8126 125.319 95.1376L125.732 94.2268C127.273 94.9253 128.578 95.68 129.646 96.4658ZM110.009 85.5687L109.877 85.5716L109.861 85.6801L109.229 85.5857L109.009 85.5905C109.003 85.327 109.003 85.0971 109.004 84.9327C109.005 84.8503 109.006 84.7839 109.007 84.7376L109.008 84.6833L109.009 84.6683L109.009 84.6626L109.252 84.6689L109.265 84.58L110.009 84.6911C110.009 84.6911 109.998 85.0662 110.009 85.5687ZM112.865 55.556L111.865 55.5186C111.908 54.3715 111.908 53.2233 111.865 52.0762L112.865 52.0388C112.909 53.2108 112.909 54.384 112.865 55.556ZM110.059 41.0978L109.283 41.7274C108.493 40.7525 107.516 39.9455 106.406 39.2896L106.914 38.4286C108.113 39.1366 109.185 40.0184 110.059 41.0978ZM103.099 36.8273L102.826 37.7894C101.568 37.4326 100.25 37.2054 98.9339 37.0905L99.0208 36.0943C100.392 36.214 101.772 36.4512 103.099 36.8273ZM94.8729 36.0757L94.9504 37.0727C93.5159 37.1843 92.1879 37.4186 91.0606 37.7381L90.7879 36.776C91.9867 36.4362 93.3807 36.1917 94.8729 36.0757ZM81.7619 44.6048C81.2842 46.0591 81.0201 47.743 80.884 49.383L81.8806 49.4657C82.0133 47.8665 82.2681 46.2681 82.712 44.9169L81.7619 44.6048ZM80.7844 54.25L81.7838 54.2161C81.808 54.9299 81.8442 55.5221 81.8742 55.9344C81.8892 56.1405 81.9026 56.3013 81.9122 56.4097C81.9133 56.422 81.9143 56.4337 81.9153 56.4447L82.2932 57.4528L81.3568 57.8039L80.9322 56.6711C80.9322 56.6711 80.8338 55.7071 80.7844 54.25ZM80.9171 64.9176L81.9029 64.7495C81.9725 65.1576 82.0871 65.5871 82.221 66.0856L82.2219 66.0891C82.2761 66.2908 82.3331 66.5028 82.3876 66.7183L81.4181 66.9634C81.3654 66.755 81.31 66.5489 81.2552 66.345C81.1239 65.8561 80.996 65.3802 80.9171 64.9176ZM81.6724 68.2162L82.6633 68.0818C82.6955 68.3192 82.7186 68.5635 82.7284 68.8139L82.7285 68.8154C82.7457 69.2732 82.7934 69.6503 82.859 69.9597L81.8808 70.1674C81.8015 69.7935 81.7482 69.3586 81.7292 68.8529C81.7208 68.6386 81.7009 68.4264 81.6724 68.2162ZM86.2414 84.5016L86.2486 84.5628L86.4354 84.5549C86.4472 84.833 86.4502 85.1111 86.4446 85.389L86.3465 85.387L86.3593 85.4946L85.5542 85.5902L85.5281 85.3705L85.4448 85.3688C85.45 85.1118 85.4472 84.8545 85.4363 84.5972L86.2414 84.5016ZM82.0468 89.2099L82.5297 90.0856C82.1851 90.2756 81.8582 90.4616 81.5259 90.6506L81.5241 90.6516C81.1875 90.8431 80.8453 91.0378 80.484 91.2367L80.0017 90.3607C80.3565 90.1653 80.6935 89.9736 81.0314 89.7814C81.363 89.5928 81.6955 89.4036 82.0468 89.2099ZM71.9366 94.1549L72.3811 95.0506C71.3132 95.5806 70.2712 96.1317 69.2779 96.7054L68.7777 95.8394C69.7928 95.2532 70.8539 94.6922 71.9366 94.1549ZM65.7636 97.7692L66.3471 98.5813C65.3635 99.2882 64.4835 100.019 63.7355 100.775L63.0247 100.072C63.8205 99.2676 64.7455 98.5008 65.7636 97.7692ZM75.1781 92.6334L75.586 93.5465C76.1292 93.3038 76.6725 93.0663 77.2129 92.8337C77.6107 92.6625 77.9773 92.4978 78.3191 92.3384L77.8964 91.4322C77.5639 91.5872 77.2065 91.7477 76.8176 91.9152C76.2737 92.1493 75.7262 92.3886 75.1781 92.6334ZM84.1207 88.1478L84.5475 89.0521C84.8663 88.9016 85.2095 88.7453 85.583 88.5818C85.8789 88.4523 86.094 88.1878 86.1606 87.8718C86.218 87.5994 86.2667 87.3256 86.3069 87.0507L85.3174 86.906C85.2803 87.1604 85.2351 87.4137 85.1821 87.6657C84.8 87.8329 84.4483 87.9931 84.1207 88.1478ZM87.8515 84.3104L87.8903 84.6368C87.7807 84.6973 87.7808 84.6976 87.781 84.6978L87.7816 84.6989L87.7828 84.7011L87.7854 84.7057L87.7911 84.7157C87.7951 84.7227 87.7998 84.7306 87.805 84.7392C87.8152 84.7559 87.8287 84.7771 87.8454 84.8009C87.8605 84.8225 87.8857 84.8573 87.9213 84.898L87.9694 85.3034L88.4945 85.2411C88.5627 85.2559 88.6376 85.2648 88.7186 85.2644C89.178 85.2622 89.4621 84.9763 89.5862 84.7819C89.695 84.6113 89.7338 84.4437 89.7503 84.3586C89.77 84.2571 89.7791 84.1548 89.7834 84.06C89.7921 83.8699 89.7851 83.6256 89.7622 83.3125L89.1688 83.3559C89.0426 83.2807 88.9003 83.2334 88.7517 83.2193C88.753 83.2348 88.7543 83.2502 88.7555 83.2653C88.9079 83.2717 89.034 83.3124 89.1307 83.3587L88.7649 83.3855C88.7747 83.5196 88.7809 83.6339 88.7842 83.7313C88.7846 83.7445 88.785 83.7573 88.7853 83.7698C88.7904 83.9572 88.7839 84.0769 88.7716 84.1515C88.7371 84.3611 88.6566 84.2148 88.6566 84.2148L87.8515 84.3104ZM89.5305 83.7287C89.5305 83.7288 89.5305 83.7286 89.5305 83.7287ZM89.5305 83.7287L89.5316 83.7307ZM88.5417 81.4352L89.5322 81.2983C89.491 80.9997 89.4436 80.6715 89.3894 80.3108C89.3308 79.9205 89.0484 79.6019 88.6694 79.4961C88.6696 79.4962 88.6693 79.4961 88.6694 79.4961C88.6675 79.4955 88.6641 79.4944 88.6604 79.4931C88.6507 79.4897 88.6351 79.4841 88.6142 79.4756C88.5559 79.4522 88.4567 79.4075 88.3291 79.332C88.0756 79.1819 87.7038 78.9061 87.3163 78.4216L86.5353 79.0461C87.473 80.2188 88.4005 80.4593 88.4005 80.4593C88.4542 80.8166 88.501 81.1409 88.5417 81.4352ZM84.8162 74.6784L85.8041 74.5234C85.7015 73.8691 85.6333 73.1286 85.6138 72.2912C85.6064 71.9741 85.449 71.6793 85.1896 71.4967C84.9347 71.3173 84.6109 71.2672 84.3141 71.3605C84.3147 71.3604 84.3152 71.3602 84.3155 71.3601C84.3155 71.3601 84.315 71.3603 84.313 71.3609L84.3074 71.3627L84.3033 71.364L84.301 71.3647L84.2998 71.3651M84.2998 71.3651C84.3048 71.3635 84.3091 71.3621 84.3141 71.3605C84.3105 71.3615 84.3019 71.3638 84.2887 71.3667C84.2574 71.3737 84.2049 71.3833 84.1386 71.3885C84.0012 71.3993 83.8394 71.3884 83.6859 71.3274L83.5012 71.792C83.7456 71.8891 83.9887 71.9018 84.1777 71.887C84.271 71.8797 84.3469 71.866 84.3972 71.8548C84.4222 71.8493 84.4404 71.8444 84.4507 71.8415M83.3166 72.2566C83.4176 72.2968 83.5176 72.3261 83.6146 72.347ZM84.6629 73.3317C84.6985 73.8116 84.7505 74.2599 84.8162 74.6784ZM84.6141 72.3145C84.6141 72.3145 84.4125 72.3815 84.1158 72.391C83.968 72.3958 83.7965 72.3862 83.6146 72.347M84.6141 72.3145C84.6182 72.4889 84.6242 72.6597 84.6322 72.8269ZM84.6322 72.8269C84.6405 72.9989 84.6507 73.1672 84.6629 73.3317ZM81.5164 62.1494L82.2861 62.7878C82.4765 62.5583 82.7557 62.3081 83.168 62.0455C83.5665 61.7917 83.7329 61.2935 83.5671 60.8511L83.1425 59.7183L82.2061 60.0694L82.6307 61.2021C82.1494 61.5087 81.7859 61.8245 81.5164 62.1494ZM84.5878 40.8189L84.9935 41.7329C85.4633 41.5244 86.0467 41.4385 86.7981 41.5744C87.1883 41.645 87.5834 41.4784 87.8051 41.1496C88.0269 40.8209 88.0334 40.3922 87.8219 40.0568C87.7154 39.888 87.7097 39.7837 87.7168 39.7202C87.7253 39.6448 87.7666 39.5131 87.9247 39.3261L87.1608 38.6807C86.927 38.9574 86.7797 39.2468 86.7318 39.5444C86.7051 39.7105 86.7093 39.8792 86.7467 40.0497C86.7859 40.2282 86.8615 40.4087 86.9761 40.5904C86.7688 40.5529 86.5682 40.5286 86.3741 40.517C86.1902 40.5059 86.0122 40.5062 85.8399 40.5171C85.3839 40.5462 84.9676 40.6503 84.5878 40.8189ZM111.963 44.7471L111.004 45.0291C111.175 45.6106 111.302 46.234 111.379 46.9022C111.38 46.9137 111.382 46.9251 111.384 46.9365C111.469 47.5044 111.544 48.0734 111.608 48.6434L112.602 48.5314C112.536 47.9491 112.46 47.3677 112.372 46.7875C112.289 46.065 112.151 45.3855 111.963 44.7471ZM112.602 59.0634L111.608 58.9514C111.544 59.5213 111.469 60.0904 111.384 60.6583C111.337 60.9661 111.437 61.2779 111.653 61.5019C111.865 61.7216 112.166 61.832 112.469 61.8026C112.47 61.8025 112.47 61.8025 112.471 61.8025C112.479 61.8021 112.5 61.8014 112.529 61.8024C112.589 61.8045 112.676 61.8131 112.774 61.8392C112.959 61.8886 113.169 61.9943 113.333 62.2587L114.183 61.7324C113.911 61.2937 113.554 61.0598 113.228 60.9362C113.103 60.8887 112.982 60.8575 112.873 60.8372C112.582 60.7831 112.372 60.8073 112.372 60.8073C112.398 60.6391 112.422 60.4709 112.446 60.3025C112.469 60.1358 112.491 59.9689 112.513 59.8019C112.544 59.5559 112.574 59.3097 112.602 59.0634ZM112.429 61.3041C112.428 61.3042 112.428 61.3043 112.427 61.3043L112.428 61.3042M112.429 61.3041C112.486 61.8007 112.486 61.8008 112.486 61.8008C112.485 61.8008 112.486 61.8008 112.486 61.8008L112.429 61.3041ZM114.316 65.9079L113.343 65.6772C113.207 66.2473 113.017 66.8949 112.759 67.6294C112.751 67.653 112.744 67.6769 112.737 67.7011C112.737 67.7011 112.737 67.7011 112.737 67.7011M113.703 67.9605C113.703 67.9605 113.521 68.6379 113.187 69.4629L112.26 69.0876C112.416 68.7037 112.536 68.3525 112.618 68.0975C112.659 67.9704 112.689 67.8684 112.709 67.7994C112.715 67.7806 112.72 67.7643 112.723 67.7506C112.727 67.7393 112.729 67.7298 112.731 67.7222L112.736 67.7043M111.467 72.0956L110.887 71.2807C110.768 71.3651 110.692 71.3848 110.653 71.3889C110.624 71.392 110.564 71.3934 110.451 71.3318C110.133 71.1585 109.746 71.1709 109.439 71.364C109.133 71.5572 108.955 71.901 108.974 72.2628L108.974 72.268L108.975 72.2954C108.976 72.3209 108.978 72.3604 108.979 72.4126C108.982 72.5171 108.984 72.6721 108.983 72.8669C108.98 73.2574 108.962 73.8029 108.9 74.4188L109.895 74.518C109.941 74.062 109.964 73.6432 109.975 73.2911C109.981 73.093 109.983 72.916 109.983 72.7654C109.983 72.417 109.972 72.21 109.972 72.21C110.146 72.3045 110.315 72.3594 110.479 72.3803C110.651 72.4022 110.817 72.3866 110.978 72.3399C111.147 72.2906 111.311 72.2067 111.467 72.0956ZM108.561 78.8996L107.735 78.3356C107.384 78.8495 106.969 79.1938 106.468 79.3592C106.034 79.5024 105.752 79.9216 105.783 80.3776L105.783 80.3788L105.85 81.36L106.848 81.2924C106.81 80.7275 106.781 80.3088 106.781 80.3088C107.538 80.0589 108.118 79.5484 108.561 78.8996ZM106.979 83.2625L105.981 83.3263C105.997 83.5821 106.011 83.8068 106.021 83.9763C106.026 84.0612 106.03 84.1303 106.032 84.1817C106.035 84.2426 106.035 84.2565 106.035 84.2466C106.035 84.7418 106.398 85.1625 106.887 85.2357L107.631 85.3468L107.779 84.3577L107.035 84.2466C107.035 84.1706 107.012 83.7753 106.979 83.2625ZM110.16 87.3174L109.179 87.5092C109.223 87.7367 109.286 87.9859 109.383 88.2128C109.463 88.399 109.633 88.7366 109.986 88.9502C110.681 89.3987 111.392 89.8202 112.119 90.2139L112.595 89.3348C111.885 88.9501 111.19 88.5381 110.512 88.0995C110.348 88.0075 110.236 87.7058 110.16 87.3174ZM117.015 91.3089L116.678 92.2505C117.461 92.5307 118.256 92.7814 119.061 93.0018L119.079 93.0066C119.82 93.1948 120.53 93.3938 121.21 93.6023L121.503 92.6463C120.808 92.4328 120.082 92.2295 119.325 92.0373C118.545 91.8237 117.774 91.5806 117.015 91.3089ZM113.703 67.9605C113.971 67.1982 114.171 66.5169 114.316 65.9079Z" fill="#7FDEFC"/>
<g filter="url(#filter0_d_8925_376976)">
<path d="M91.2311 97.1589C93.9385 96.1703 95.4405 93.3119 94.8855 90.472L92.9676 80.6586C92.9676 76.5635 87.5394 71.8858 76.85 69.1599C73.2285 68.1638 69.7858 66.6191 66.645 64.581C65.9581 64.1939 66.0625 60.6177 66.0625 60.6177L62.6198 60.1009C62.6198 59.8106 62.3254 55.522 62.3254 55.522C66.4446 54.157 66.0208 46.1049 66.0208 46.1049C68.6367 47.5358 70.3404 41.1636 70.3404 41.1636C73.4344 32.3105 68.7996 32.8458 68.7996 32.8458C69.6104 27.4413 69.6104 21.9484 68.7996 16.5438C66.739 -1.38465 35.7148 3.48248 39.3934 9.33786C30.3262 7.69077 32.3952 28.0364 32.3952 28.0364L34.3619 33.305C31.6359 35.0487 32.1712 37.0498 32.7692 39.2851C33.0185 40.217 33.2787 41.1896 33.318 42.2013C33.508 47.2784 36.6584 46.2263 36.6584 46.2263C36.8526 54.6059 41.0427 55.6971 41.0427 55.6971C41.8298 60.9595 41.3392 60.0639 41.3392 60.0639L37.6104 60.5086C37.6609 61.7053 37.5621 62.9036 37.3161 64.0766C35.1496 65.0288 33.8233 65.7865 32.5101 66.5367C31.1657 67.3047 29.8351 68.0649 27.6309 69.0178C19.213 72.6558 10.0645 77.3871 8.43809 83.7572C7.96261 85.6195 7.49693 88.1231 7.07596 90.7338C6.63482 93.4697 8.14878 96.148 10.7399 97.099C22.0463 101.249 34.8065 103.708 48.3423 104H53.7923C67.2629 103.709 79.9652 101.272 91.2311 97.1589Z" fill="white"/>
<path d="M91.2311 97.1589C93.9385 96.1703 95.4405 93.3119 94.8855 90.472L92.9676 80.6586C92.9676 76.5635 87.5394 71.8858 76.85 69.1599C73.2285 68.1638 69.7858 66.6191 66.645 64.581C65.9581 64.1939 66.0625 60.6177 66.0625 60.6177L62.6198 60.1009C62.6198 59.8106 62.3254 55.522 62.3254 55.522C66.4446 54.157 66.0208 46.1049 66.0208 46.1049C68.6367 47.5358 70.3404 41.1636 70.3404 41.1636C73.4344 32.3105 68.7996 32.8458 68.7996 32.8458C69.6104 27.4413 69.6104 21.9484 68.7996 16.5438C66.739 -1.38465 35.7148 3.48248 39.3934 9.33786C30.3262 7.69077 32.3952 28.0364 32.3952 28.0364L34.3619 33.305C31.6359 35.0487 32.1712 37.0498 32.7692 39.2851C33.0185 40.217 33.2787 41.1896 33.318 42.2013C33.508 47.2784 36.6584 46.2263 36.6584 46.2263C36.8526 54.6059 41.0427 55.6971 41.0427 55.6971C41.8298 60.9595 41.3392 60.0639 41.3392 60.0639L37.6104 60.5086C37.6609 61.7053 37.5621 62.9036 37.3161 64.0766C35.1496 65.0288 33.8233 65.7865 32.5101 66.5367C31.1657 67.3047 29.8351 68.0649 27.6309 69.0178C19.213 72.6558 10.0645 77.3871 8.43809 83.7572C7.96261 85.6195 7.49693 88.1231 7.07596 90.7338C6.63482 93.4697 8.14878 96.148 10.7399 97.099C22.0463 101.249 34.8065 103.708 48.3423 104H53.7923C67.2629 103.709 79.9652 101.272 91.2311 97.1589Z" stroke="#2FC6F6"/>
</g>
<defs>
<filter id="filter0_d_8925_376976" x="0.5" y="0.5" width="101" height="113" filterUnits="userSpaceOnUse" color-interpolation-filters="sRGB">
<feFlood flood-opacity="0" result="BackgroundImageFix"/>
<feColorMatrix in="SourceAlpha" type="matrix" values="0 0 0 0 0 0 0 0 0 0 0 0 0 0 0 0 0 0 127 0" result="hardAlpha"/>
<feOffset dy="3"/>
<feGaussianBlur stdDeviation="3"/>
<feComposite in2="hardAlpha" operator="out"/>
<feColorMatrix type="matrix" values="0 0 0 0 0 0 0 0 0 0 0 0 0 0 0 0 0 0 0.1 0"/>
<feBlend mode="normal" in2="BackgroundImageFix" result="effect1_dropShadow_8925_376976"/>
<feBlend mode="normal" in="SourceGraphic" in2="effect1_dropShadow_8925_376976" result="shape"/>
</filter>
</defs>
</svg>
