<svg width="219" height="178" viewBox="0 0 219 178" fill="none" xmlns="http://www.w3.org/2000/svg">
<path fill-rule="evenodd" clip-rule="evenodd" d="M157.409 5.08198C158.738 5.08198 159.815 4.00495 159.815 2.67636C159.815 1.34778 158.738 0.270752 157.409 0.270752C156.08 0.270752 155.003 1.34778 155.003 2.67636C155.003 4.00495 156.08 5.08198 157.409 5.08198ZM38.7039 25.8626C41.5841 25.8626 43.9189 23.5278 43.9189 20.6476C43.9189 17.7675 41.5841 15.4326 38.7039 15.4326C35.8237 15.4326 33.4889 17.7675 33.4889 20.6476C33.4889 23.5278 35.8237 25.8626 38.7039 25.8626ZM38.7039 22.955C39.9782 22.955 41.0112 21.9219 41.0112 20.6476C41.0112 19.3733 39.9782 18.3403 38.7039 18.3403C37.4296 18.3403 36.3965 19.3733 36.3965 20.6476C36.3965 21.9219 37.4296 22.955 38.7039 22.955ZM12.2102 76.7735C16.0894 76.7735 19.2341 73.6288 19.2341 69.7496C19.2341 65.8704 16.0894 62.7257 12.2102 62.7257C8.33099 62.7257 5.18628 65.8704 5.18628 69.7496C5.18628 73.6288 8.33099 76.7735 12.2102 76.7735ZM12.2102 73.1077C14.0648 73.1077 15.5683 71.6042 15.5683 69.7496C15.5683 67.895 14.0648 66.3915 12.2102 66.3915C10.3555 66.3915 8.85206 67.895 8.85206 69.7496C8.85206 71.6042 10.3555 73.1077 12.2102 73.1077ZM190.539 165.155C193.301 165.155 195.54 162.916 195.54 160.155C195.54 157.393 193.301 155.154 190.539 155.154C187.778 155.154 185.539 157.393 185.539 160.155C185.539 162.916 187.778 165.155 190.539 165.155ZM190.539 162.553C191.864 162.553 192.938 161.479 192.938 160.155C192.938 158.83 191.864 157.756 190.539 157.756C189.215 157.756 188.141 158.83 188.141 160.155C188.141 161.479 189.215 162.553 190.539 162.553ZM110.5 178C157.996 178 196.5 139.496 196.5 92C196.5 44.5035 157.996 6 110.5 6C63.0035 6 24.5 44.5035 24.5 92C24.5 139.496 63.0035 178 110.5 178ZM24.4588 171.989H7.74022C7.59716 171.989 7.45534 171.983 7.31493 171.973C3.53648 171.884 0.500191 168.709 0.5 164.805C0.501099 162.902 1.23768 161.078 2.54769 159.733C3.21919 159.044 4.01317 158.509 4.87699 158.152C4.86254 157.959 4.85518 157.763 4.85518 157.566C4.85637 155.558 5.63359 153.633 7.01587 152.214C8.39815 150.795 10.2723 149.999 12.2259 150C14.7285 150.003 16.938 151.289 18.2658 153.252C18.8964 153.023 19.5752 152.898 20.2823 152.898C23.4062 152.902 25.972 155.349 26.2694 158.479C29.2627 159.15 31.5026 161.89 31.5 165.167C31.4969 168.943 28.5168 172.002 24.8426 172C24.7138 172 24.5858 171.996 24.4588 171.989ZM201.638 38.9923H213.503C213.593 38.9974 213.684 39 213.775 39C216.383 39.0011 218.498 36.9155 218.5 34.341C218.502 32.1069 216.912 30.2384 214.788 29.7812C214.577 27.6473 212.756 25.9787 210.539 25.9761C210.037 25.9758 209.555 26.0609 209.108 26.2174C208.166 24.879 206.598 24.0021 204.822 24C203.435 23.9992 202.105 24.5422 201.124 25.5096C200.143 26.4769 199.592 27.7895 199.591 29.1584C199.591 29.293 199.596 29.4264 199.606 29.5584C198.993 29.8018 198.43 30.1661 197.953 30.636C197.024 31.5529 196.501 32.7968 196.5 34.0942C196.5 36.756 198.655 38.921 201.336 38.9813C201.436 38.9886 201.537 38.9923 201.638 38.9923Z" fill="#E5F9FF"/>
<path d="M96.5544 50.7913C97.5569 46.4883 101.858 43.8127 106.161 44.8152L155.639 56.3429C159.942 57.3454 162.617 61.6464 161.615 65.9495L146.376 131.356C145.373 135.659 141.072 138.335 136.769 137.332L87.2916 125.804C82.9885 124.802 80.313 120.501 81.3155 116.198L96.5544 50.7913Z" fill="white" fill-opacity="0.5"/>
<path fill-rule="evenodd" clip-rule="evenodd" d="M106.047 45.3022C105.724 45.2268 105.4 45.1736 105.078 45.1416L105.177 44.1465C105.542 44.1828 105.908 44.243 106.274 44.3283L107.226 44.55L106.999 45.5239L106.047 45.3022ZM110.805 46.4106L108.902 45.9673L109.129 44.9933L111.032 45.4367L110.805 46.4106ZM114.611 47.2974L112.708 46.854L112.935 45.8801L114.838 46.3235L114.611 47.2974ZM118.417 48.1841L116.514 47.7407L116.741 46.7668L118.644 47.2102L118.417 48.1841ZM122.223 49.0709L120.32 48.6275L120.547 47.6536L122.45 48.0969L122.223 49.0709ZM126.029 49.9576L124.126 49.5142L124.353 48.5403L126.256 48.9837L126.029 49.9576ZM129.835 50.8443L127.932 50.401L128.159 49.4271L130.062 49.8704L129.835 50.8443ZM133.641 51.7311L131.738 51.2877L131.965 50.3138L133.868 50.7572L133.641 51.7311ZM137.447 52.6178L135.544 52.1745L135.771 51.2005L137.674 51.6439L137.447 52.6178ZM141.253 53.5046L139.35 53.0612L139.577 52.0873L141.48 52.5307L141.253 53.5046ZM145.059 54.3913L143.156 53.9479L143.383 52.974L145.286 53.4174L145.059 54.3913ZM148.865 55.278L146.962 54.8347L147.189 53.8608L149.092 54.3041L148.865 55.278ZM152.671 56.1648L150.768 55.7214L150.995 54.7475L152.898 55.1909L152.671 56.1648ZM155.525 56.8298L154.574 56.6082L154.801 55.6342L155.752 55.8559C156.118 55.9412 156.473 56.049 156.816 56.1776L156.465 57.114C156.163 57.0006 155.849 56.9053 155.525 56.8298ZM103.122 45.2049C102.472 45.3127 101.842 45.5059 101.249 45.7751L100.836 44.8646C101.507 44.5596 102.221 44.3407 102.959 44.2183L103.122 45.2049ZM159.62 59.3747C159.207 58.8712 158.728 58.4198 158.192 58.0353L158.775 57.2226C159.383 57.6587 159.926 58.1704 160.394 58.7407L159.62 59.3747ZM99.5861 46.8098C99.0826 47.2225 98.6312 47.7017 98.2468 48.2379L97.434 47.6553C97.8701 47.0471 98.3818 46.504 98.9521 46.0364L99.5861 46.8098ZM161.225 62.9111C161.117 62.2601 160.924 61.6308 160.655 61.038L161.565 60.6245C161.87 61.2959 162.089 62.0093 162.212 62.7476L161.225 62.9111ZM97.3255 49.9645C97.212 50.2672 97.1167 50.581 97.0413 50.9048L96.8172 51.8666L95.8433 51.6397L96.0674 50.6778C96.1526 50.3118 96.2605 49.9567 96.3891 49.6135L97.3255 49.9645ZM161.128 65.836C161.203 65.5123 161.256 65.1887 161.288 64.867L162.284 64.966C162.247 65.3307 162.187 65.6969 162.102 66.0629L161.878 67.0248L160.904 66.7979L161.128 65.836ZM96.369 53.7903L95.9208 55.7141L94.9469 55.4871L95.3951 53.5634L96.369 53.7903ZM160.007 70.6453L160.455 68.7216L161.429 68.9485L160.981 70.8723L160.007 70.6453ZM95.4726 57.6378L95.0244 59.5615L94.0505 59.3346L94.4987 57.4109L95.4726 57.6378ZM159.111 74.4928L159.559 72.5691L160.533 72.796L160.085 74.7197L159.111 74.4928ZM94.5762 61.4852L94.128 63.4089L93.1541 63.182L93.6023 61.2583L94.5762 61.4852ZM158.214 78.3402L158.663 76.4165L159.637 76.6434L159.188 78.5671L158.214 78.3402ZM93.6798 65.3327L93.2316 67.2564L92.2577 67.0295L92.7059 65.1058L93.6798 65.3327ZM157.318 82.1877L157.766 80.264L158.74 80.4909L158.292 82.4146L157.318 82.1877ZM92.7834 69.1801L92.3352 71.1038L91.3613 70.8769L91.8095 68.9532L92.7834 69.1801ZM156.422 86.0351L156.87 84.1114L157.844 84.3383L157.396 86.262L156.422 86.0351ZM91.887 73.0276L91.4388 74.9513L90.4649 74.7244L90.9131 72.8007L91.887 73.0276ZM155.525 89.8826L155.973 87.9589L156.947 88.1858L156.499 90.1095L155.525 89.8826ZM90.9906 76.875L90.5424 78.7987L89.5685 78.5718L90.0167 76.6481L90.9906 76.875ZM154.629 93.73L155.077 91.8063L156.051 92.0332L155.603 93.9569L154.629 93.73ZM90.0942 80.7225L89.646 82.6462L88.6721 82.4193L89.1203 80.4956L90.0942 80.7225ZM153.732 97.5775L154.181 95.6538L155.155 95.8807L154.706 97.8044L153.732 97.5775ZM89.1978 84.5699L88.7496 86.4936L87.7756 86.2667L88.2239 84.343L89.1978 84.5699ZM152.836 101.425L153.284 99.5012L154.258 99.7281L153.81 101.652L152.836 101.425ZM88.3014 88.4174L87.8532 90.3411L86.8792 90.1142L87.3274 88.1904L88.3014 88.4174ZM151.94 105.272L152.388 103.349L153.362 103.576L152.914 105.499L151.94 105.272ZM87.405 92.2648L86.9568 94.1885L85.9828 93.9616L86.431 92.0379L87.405 92.2648ZM151.043 109.12L151.491 107.196L152.465 107.423L152.017 109.347L151.043 109.12ZM86.5086 96.1123L86.0604 98.036L85.0864 97.8091L85.5346 95.8853L86.5086 96.1123ZM150.147 112.967L150.595 111.044L151.569 111.27L151.121 113.194L150.147 112.967ZM85.6122 99.9597L85.164 101.883L84.19 101.657L84.6382 99.7328L85.6122 99.9597ZM149.25 116.815L149.699 114.891L150.673 115.118L150.224 117.042L149.25 116.815ZM84.7158 103.807L84.2676 105.731L83.2936 105.504L83.7418 103.58L84.7158 103.807ZM148.354 120.662L148.802 118.738L149.776 118.965L149.328 120.889L148.354 120.662ZM83.8194 107.655L83.3712 109.578L82.3972 109.351L82.8454 107.428L83.8194 107.655ZM147.458 124.51L147.906 122.586L148.88 122.813L148.432 124.737L147.458 124.51ZM82.9229 111.502L82.4747 113.426L81.5008 113.199L81.949 111.275L82.9229 111.502ZM146.561 128.357L147.009 126.433L147.983 126.66L147.535 128.584L146.561 128.357ZM82.0265 115.349L81.8024 116.311C81.727 116.635 81.6738 116.959 81.6418 117.28L80.6467 117.181C80.683 116.817 80.7433 116.45 80.8285 116.084L81.0526 115.123L82.0265 115.349ZM145.889 131.243L146.113 130.281L147.087 130.508L146.863 131.47C146.778 131.836 146.67 132.191 146.541 132.534L145.605 132.183C145.718 131.88 145.814 131.566 145.889 131.243ZM81.7051 119.236C81.813 119.887 82.0061 120.517 82.2753 121.109L81.3648 121.523C81.0599 120.851 80.8409 120.138 80.7186 119.4L81.7051 119.236ZM143.344 135.338C143.848 134.925 144.299 134.446 144.683 133.909L145.496 134.492C145.06 135.1 144.548 135.643 143.978 136.111L143.344 135.338ZM83.31 122.773C83.7228 123.276 84.202 123.728 84.7382 124.112L84.1555 124.925C83.5473 124.489 83.0042 123.977 82.5367 123.407L83.31 122.773ZM139.808 136.943C140.459 136.835 141.088 136.642 141.681 136.372L142.094 137.283C141.423 137.588 140.71 137.807 139.971 137.929L139.808 136.943ZM86.4648 125.033C86.7675 125.147 87.0812 125.242 87.405 125.318L88.3565 125.539L88.1296 126.513L87.1781 126.291C86.8121 126.206 86.4569 126.098 86.1138 125.97L86.4648 125.033ZM136.883 136.845C137.207 136.921 137.53 136.974 137.852 137.006L137.753 138.001C137.388 137.965 137.022 137.904 136.656 137.819L135.704 137.597L135.931 136.623L136.883 136.845ZM90.2595 125.983L92.1625 126.426L91.9356 127.4L90.0326 126.957L90.2595 125.983ZM94.0655 126.869L95.9685 127.313L95.7416 128.287L93.8386 127.843L94.0655 126.869ZM97.8715 127.756L99.7744 128.199L99.5475 129.173L97.6445 128.73L97.8715 127.756ZM101.677 128.643L103.58 129.086L103.354 130.06L101.451 129.617L101.677 128.643ZM105.483 129.53L107.386 129.973L107.159 130.947L105.257 130.503L105.483 129.53ZM109.289 130.416L111.192 130.86L110.965 131.834L109.062 131.39L109.289 130.416ZM113.095 131.303L114.998 131.746L114.771 132.72L112.868 132.277L113.095 131.303ZM116.901 132.19L118.804 132.633L118.577 133.607L116.674 133.164L116.901 132.19ZM120.707 133.077L122.61 133.52L122.383 134.494L120.48 134.05L120.707 133.077ZM124.513 133.963L126.416 134.407L126.189 135.381L124.286 134.937L124.513 133.963ZM128.319 134.85L130.222 135.293L129.995 136.267L128.092 135.824L128.319 134.85ZM132.125 135.737L134.028 136.18L133.801 137.154L131.898 136.711L132.125 135.737Z" fill="#2FC6F6"/>
<path d="M59.5706 85.0172C58.427 80.7494 60.9597 76.3627 65.2274 75.2192L114.299 62.0705C118.567 60.9269 122.954 63.4596 124.097 67.7273L139.278 124.382C140.421 128.65 137.889 133.037 133.621 134.18L84.5492 147.329C80.2814 148.473 75.8947 145.94 74.7512 141.672L59.5706 85.0172Z" fill="white" fill-opacity="0.5"/>
<path fill-rule="evenodd" clip-rule="evenodd" d="M65.3569 75.7022C65.0358 75.7882 64.7253 75.8938 64.4265 76.0171L64.0449 75.0928C64.3836 74.953 64.7351 74.8335 65.0981 74.7363L66.0418 74.4834L66.3006 75.4493L65.3569 75.7022ZM70.0753 74.4379L68.188 74.9436L67.9291 73.9777L69.8165 73.472L70.0753 74.4379ZM73.8501 73.4264L71.9627 73.9322L71.7039 72.9662L73.5913 72.4605L73.8501 73.4264ZM77.6248 72.415L75.7375 72.9207L75.4786 71.9548L77.366 71.4491L77.6248 72.415ZM81.3996 71.4035L79.5122 71.9093L79.2534 70.9433L81.1408 70.4376L81.3996 71.4035ZM85.1744 70.3921L83.287 70.8978L83.0282 69.9319L84.9155 69.4262L85.1744 70.3921ZM88.9491 69.3807L87.0617 69.8864L86.8029 68.9205L88.6903 68.4147L88.9491 69.3807ZM92.7239 68.3692L90.8365 68.8749L90.5777 67.909L92.4651 67.4033L92.7239 68.3692ZM96.4986 67.3578L94.6113 67.8635L94.3524 66.8976L96.2398 66.3919L96.4986 67.3578ZM100.273 66.3463L98.386 66.8521L98.1272 65.8861L100.015 65.3804L100.273 66.3463ZM104.048 65.3349L102.161 65.8406L101.902 64.8747L103.789 64.369L104.048 65.3349ZM107.823 64.3234L105.936 64.8292L105.677 63.8632L107.564 63.3575L107.823 64.3234ZM111.598 63.312L109.71 63.8177L109.451 62.8518L111.339 62.3461L111.598 63.312ZM114.429 62.5534L113.485 62.8063L113.226 61.8404L114.17 61.5875C114.533 61.4902 114.897 61.418 115.26 61.3697L115.392 62.361C115.071 62.4036 114.75 62.4674 114.429 62.5534ZM62.7312 76.9947C62.2079 77.3966 61.7438 77.8635 61.3478 78.3803L60.554 77.7721C61.0026 77.1867 61.5285 76.6574 62.1221 76.2016L62.7312 76.9947ZM119.24 62.8682C118.638 62.6186 118.003 62.4463 117.349 62.3599L117.48 61.3685C118.222 61.4665 118.942 61.6619 119.623 61.9446L119.24 62.8682ZM60.3684 80.0767C60.1188 80.6781 59.9465 81.3135 59.8601 81.9676L58.8687 81.8366C58.9667 81.0947 59.1621 80.3745 59.4448 79.6934L60.3684 80.0767ZM122.322 65.231C121.92 64.7077 121.453 64.2436 120.936 63.8477L121.544 63.0539C122.13 63.5024 122.659 64.0284 123.115 64.6219L122.322 65.231ZM59.8611 83.9245C59.9037 84.245 59.9675 84.5666 60.0536 84.8878L60.3066 85.832L59.3407 86.0908L59.0877 85.1466C58.9904 84.7836 58.9181 84.4195 58.8699 84.0563L59.8611 83.9245ZM123.614 67.8567C123.528 67.5356 123.423 67.2252 123.299 66.9263L124.224 66.5448C124.364 66.8835 124.483 67.2349 124.58 67.5979L124.833 68.5422L123.867 68.801L123.614 67.8567ZM60.8126 87.7205L61.3186 89.609L60.3527 89.8678L59.8467 87.9793L60.8126 87.7205ZM124.879 72.578L124.373 70.6895L125.339 70.4307L125.845 72.3192L124.879 72.578ZM61.8247 91.4975L62.3307 93.386L61.3648 93.6448L60.8587 91.7563L61.8247 91.4975ZM125.891 76.355L125.385 74.4665L126.351 74.2077L126.857 76.0962L125.891 76.355ZM62.8367 95.2745L63.3427 97.163L62.3768 97.4218L61.8708 95.5333L62.8367 95.2745ZM126.903 80.132L126.397 78.2435L127.363 77.9846L127.869 79.8731L126.903 80.132ZM63.8487 99.0515L64.3548 100.94L63.3888 101.199L62.8828 99.3103L63.8487 99.0515ZM127.915 83.909L127.409 82.0205L128.375 81.7616L128.881 83.6501L127.915 83.909ZM64.8608 102.829L65.3668 104.717L64.4009 104.976L63.8949 103.087L64.8608 102.829ZM128.928 87.686L128.422 85.7975L129.387 85.5386L129.893 87.4271L128.928 87.686ZM65.8728 106.606L66.3789 108.494L65.4129 108.753L64.9069 106.864L65.8728 106.606ZM129.94 91.463L129.434 89.5745L130.399 89.3156L130.906 91.2041L129.94 91.463ZM66.8849 110.383L67.3909 112.271L66.425 112.53L65.919 110.641L66.8849 110.383ZM130.952 95.24L130.446 93.3515L131.412 93.0926L131.918 94.9811L130.952 95.24ZM131.964 99.017L131.458 97.1285L132.424 96.8696L132.93 98.7581L131.964 99.017ZM67.8969 114.16L68.4029 116.048L67.437 116.307L66.931 114.418L67.8969 114.16ZM68.909 117.937L69.415 119.825L68.4491 120.084L67.943 118.195L68.909 117.937ZM132.976 102.794L132.47 100.905L133.436 100.647L133.942 102.535L132.976 102.794ZM69.921 121.714L70.427 123.602L69.4611 123.861L68.9551 121.972L69.921 121.714ZM133.988 106.571L133.482 104.682L134.448 104.424L134.954 106.312L133.988 106.571ZM70.9331 125.491L71.4391 127.379L70.4731 127.638L69.9671 125.749L70.9331 125.491ZM135 110.348L134.494 108.459L135.46 108.201L135.966 110.089L135 110.348ZM71.9451 129.268L72.4511 131.156L71.4852 131.415L70.9792 129.526L71.9451 129.268ZM136.012 114.125L135.506 112.236L136.472 111.978L136.978 113.866L136.012 114.125ZM72.9571 133.045L73.4632 134.933L72.4972 135.192L71.9912 133.303L72.9571 133.045ZM137.024 117.902L136.518 116.013L137.484 115.755L137.99 117.643L137.024 117.902ZM73.9692 136.821L74.4752 138.71L73.5093 138.969L73.0033 137.08L73.9692 136.821ZM138.036 121.679L137.53 119.79L138.496 119.532L139.002 121.42L138.036 121.679ZM74.9812 140.598L75.2342 141.543C75.3203 141.864 75.4258 142.174 75.5492 142.473L74.6249 142.855C74.485 142.516 74.3656 142.165 74.2683 141.802L74.0153 140.857L74.9812 140.598ZM138.795 124.512L138.542 123.567L139.508 123.309L139.761 124.253C139.858 124.616 139.93 124.98 139.979 125.343L138.987 125.475C138.945 125.154 138.881 124.833 138.795 124.512ZM76.5268 144.168C76.9286 144.692 77.3956 145.156 77.9124 145.552L77.3042 146.346C76.7188 145.897 76.1895 145.371 75.7337 144.778L76.5268 144.168ZM138.48 129.323C138.73 128.721 138.902 128.086 138.988 127.432L139.98 127.563C139.882 128.305 139.686 129.025 139.404 129.706L138.48 129.323ZM79.6088 146.531C80.2101 146.781 80.8455 146.953 81.4996 147.04L81.3687 148.031C80.6268 147.933 79.9066 147.738 79.2255 147.455L79.6088 146.531ZM136.117 132.405C136.641 132.003 137.105 131.536 137.501 131.019L138.295 131.627C137.846 132.213 137.32 132.742 136.726 133.198L136.117 132.405ZM83.4566 147.038C83.7771 146.996 84.0987 146.932 84.4198 146.846L85.3635 146.593L85.6223 147.559L84.6786 147.812C84.3156 147.909 83.9516 147.982 83.5883 148.03L83.4566 147.038ZM133.492 133.697C133.813 133.611 134.123 133.506 134.422 133.382L134.804 134.307C134.465 134.446 134.113 134.566 133.75 134.663L132.807 134.916L132.548 133.95L133.492 133.697ZM87.2509 146.087L89.1383 145.582L89.3971 146.548L87.5097 147.053L87.2509 146.087ZM91.0257 145.076L92.913 144.57L93.1719 145.536L91.2845 146.042L91.0257 145.076ZM94.8004 144.065L96.6878 143.559L96.9466 144.525L95.0592 145.031L94.8004 144.065ZM98.5752 143.053L100.463 142.547L100.721 143.513L98.834 144.019L98.5752 143.053ZM102.35 142.042L104.237 141.536L104.496 142.502L102.609 143.008L102.35 142.042ZM106.125 141.03L108.012 140.525L108.271 141.49L106.383 141.996L106.125 141.03ZM109.899 140.019L111.787 139.513L112.046 140.479L110.158 140.985L109.899 140.019ZM113.674 139.007L115.562 138.502L115.82 139.468L113.933 139.973L113.674 139.007ZM117.449 137.996L119.336 137.49L119.595 138.456L117.708 138.962L117.449 137.996ZM121.224 136.984L123.111 136.479L123.37 137.445L121.483 137.95L121.224 136.984ZM124.998 135.973L126.886 135.467L127.145 136.433L125.257 136.939L124.998 135.973ZM128.773 134.962L130.661 134.456L130.919 135.422L129.032 135.928L128.773 134.962Z" fill="#2FC6F6"/>
<g opacity="0.2" filter="url(#filter0_d_2608_24440)">
<path d="M70.5 48.0001C70.5 44.6864 73.1863 42.0001 76.5 42.0001H144.5C147.814 42.0001 150.5 44.6864 150.5 48.0001V137C150.5 140.314 147.814 143 144.5 143H76.5C73.1863 143 70.5 140.314 70.5 137V48.0001Z" fill="#2FC6F6"/>
</g>
<g filter="url(#filter1_d_2608_24440)">
<path d="M72.5 47C72.5 44.7908 74.2909 43 76.5 43H144.5C146.709 43 148.5 44.7908 148.5 47V137C148.5 139.209 146.709 141 144.5 141H76.5C74.2909 141 72.5 139.209 72.5 137V47Z" fill="white"/>
</g>
<g filter="url(#filter2_d_2608_24440)">
<path fill-rule="evenodd" clip-rule="evenodd" d="M144.5 44H76.5C74.8431 44 73.5 45.3431 73.5 47V137C73.5 138.657 74.8431 140 76.5 140H144.5C146.157 140 147.5 138.657 147.5 137V47C147.5 45.3431 146.157 44 144.5 44ZM76.5 43C74.2909 43 72.5 44.7908 72.5 47V137C72.5 139.209 74.2909 141 76.5 141H144.5C146.709 141 148.5 139.209 148.5 137V47C148.5 44.7908 146.709 43 144.5 43H76.5Z" fill="#7FDEFC"/>
</g>
<g filter="url(#filter3_d_2608_24440)">
<path d="M72.5 47C72.5 44.7908 74.2909 43 76.5 43H110.5H127.5H144.5C146.709 43 148.5 44.7908 148.5 47V57.75V68.5V90V133C148.5 135.209 146.709 137 144.5 137H76.5C74.2909 137 72.5 135.209 72.5 133V47Z" fill="white"/>
</g>
<g filter="url(#filter4_d_2608_24440)">
<path fill-rule="evenodd" clip-rule="evenodd" d="M144.5 44H76.5C74.8431 44 73.5 45.3431 73.5 47V133C73.5 134.657 74.8431 136 76.5 136H144.5C146.157 136 147.5 134.657 147.5 133V47C147.5 45.3431 146.157 44 144.5 44ZM76.5 43C74.2909 43 72.5 44.7908 72.5 47V133C72.5 135.209 74.2909 137 76.5 137H144.5C146.709 137 148.5 135.209 148.5 133V47C148.5 44.7908 146.709 43 144.5 43H76.5Z" fill="#2FC6F6"/>
</g>
<path d="M81.5 63C81.5 61.8955 82.3954 61 83.5 61H133.5C134.605 61 135.5 61.8955 135.5 63C135.5 64.1046 134.605 65 133.5 65H83.5C82.3954 65 81.5 64.1046 81.5 63Z" fill="#C3F0FF"/>
<path d="M81.5 73C81.5 71.8955 82.3954 71 83.5 71H133.5C134.605 71 135.5 71.8955 135.5 73C135.5 74.1046 134.605 75 133.5 75H83.5C82.3954 75 81.5 74.1046 81.5 73Z" fill="#C3F0FF"/>
<path d="M81.5 83C81.5 81.8955 82.3954 81 83.5 81H101.5C102.605 81 103.5 81.8955 103.5 83C103.5 84.1046 102.605 85 101.5 85H83.5C82.3954 85 81.5 84.1046 81.5 83Z" fill="#C3F0FF"/>
<path d="M81.5 93C81.5 91.8955 82.3954 91 83.5 91H127.5C128.605 91 129.5 91.8955 129.5 93C129.5 94.1046 128.605 95 127.5 95H83.5C82.3954 95 81.5 94.1046 81.5 93Z" fill="#C3F0FF"/>
<path d="M81.5 103C81.5 101.895 82.3954 101 83.5 101H105.5C106.605 101 107.5 101.895 107.5 103C107.5 104.105 106.605 105 105.5 105H83.5C82.3954 105 81.5 104.105 81.5 103Z" fill="#C3F0FF"/>
<path d="M81.5 125C81.5 123.895 82.3954 123 83.5 123H111.5C112.605 123 113.5 123.895 113.5 125C113.5 126.105 112.605 127 111.5 127H83.5C82.3954 127 81.5 126.105 81.5 125Z" fill="#C3F0FF"/>
<defs>
<filter id="filter0_d_2608_24440" x="63.9627" y="38.7314" width="93.0746" height="114.075" filterUnits="userSpaceOnUse" color-interpolation-filters="sRGB">
<feFlood flood-opacity="0" result="BackgroundImageFix"/>
<feColorMatrix in="SourceAlpha" type="matrix" values="0 0 0 0 0 0 0 0 0 0 0 0 0 0 0 0 0 0 127 0" result="hardAlpha"/>
<feOffset dy="3.26865"/>
<feGaussianBlur stdDeviation="3.26865"/>
<feComposite in2="hardAlpha" operator="out"/>
<feColorMatrix type="matrix" values="0 0 0 0 0.392157 0 0 0 0 0.427451 0 0 0 0 0.482353 0 0 0 0.1 0"/>
<feBlend mode="normal" in2="BackgroundImageFix" result="effect1_dropShadow_2608_24440"/>
<feBlend mode="normal" in="SourceGraphic" in2="effect1_dropShadow_2608_24440" result="shape"/>
</filter>
<filter id="filter1_d_2608_24440" x="60.96" y="33.73" width="99.08" height="121.08" filterUnits="userSpaceOnUse" color-interpolation-filters="sRGB">
<feFlood flood-opacity="0" result="BackgroundImageFix"/>
<feColorMatrix in="SourceAlpha" type="matrix" values="0 0 0 0 0 0 0 0 0 0 0 0 0 0 0 0 0 0 127 0" result="hardAlpha"/>
<feOffset dy="2.27"/>
<feGaussianBlur stdDeviation="5.77"/>
<feComposite in2="hardAlpha" operator="out"/>
<feColorMatrix type="matrix" values="0 0 0 0 0.392157 0 0 0 0 0.427451 0 0 0 0 0.482353 0 0 0 0.16 0"/>
<feBlend mode="normal" in2="BackgroundImageFix" result="effect1_dropShadow_2608_24440"/>
<feBlend mode="normal" in="SourceGraphic" in2="effect1_dropShadow_2608_24440" result="shape"/>
</filter>
<filter id="filter2_d_2608_24440" x="60.96" y="33.73" width="99.08" height="121.08" filterUnits="userSpaceOnUse" color-interpolation-filters="sRGB">
<feFlood flood-opacity="0" result="BackgroundImageFix"/>
<feColorMatrix in="SourceAlpha" type="matrix" values="0 0 0 0 0 0 0 0 0 0 0 0 0 0 0 0 0 0 127 0" result="hardAlpha"/>
<feOffset dy="2.27"/>
<feGaussianBlur stdDeviation="5.77"/>
<feComposite in2="hardAlpha" operator="out"/>
<feColorMatrix type="matrix" values="0 0 0 0 0.392157 0 0 0 0 0.427451 0 0 0 0 0.482353 0 0 0 0.16 0"/>
<feBlend mode="normal" in2="BackgroundImageFix" result="effect1_dropShadow_2608_24440"/>
<feBlend mode="normal" in="SourceGraphic" in2="effect1_dropShadow_2608_24440" result="shape"/>
</filter>
<filter id="filter3_d_2608_24440" x="60.96" y="33.73" width="99.08" height="117.08" filterUnits="userSpaceOnUse" color-interpolation-filters="sRGB">
<feFlood flood-opacity="0" result="BackgroundImageFix"/>
<feColorMatrix in="SourceAlpha" type="matrix" values="0 0 0 0 0 0 0 0 0 0 0 0 0 0 0 0 0 0 127 0" result="hardAlpha"/>
<feOffset dy="2.27"/>
<feGaussianBlur stdDeviation="5.77"/>
<feComposite in2="hardAlpha" operator="out"/>
<feColorMatrix type="matrix" values="0 0 0 0 0.392157 0 0 0 0 0.427451 0 0 0 0 0.482353 0 0 0 0.16 0"/>
<feBlend mode="normal" in2="BackgroundImageFix" result="effect1_dropShadow_2608_24440"/>
<feBlend mode="normal" in="SourceGraphic" in2="effect1_dropShadow_2608_24440" result="shape"/>
</filter>
<filter id="filter4_d_2608_24440" x="60.96" y="33.73" width="99.08" height="117.08" filterUnits="userSpaceOnUse" color-interpolation-filters="sRGB">
<feFlood flood-opacity="0" result="BackgroundImageFix"/>
<feColorMatrix in="SourceAlpha" type="matrix" values="0 0 0 0 0 0 0 0 0 0 0 0 0 0 0 0 0 0 127 0" result="hardAlpha"/>
<feOffset dy="2.27"/>
<feGaussianBlur stdDeviation="5.77"/>
<feComposite in2="hardAlpha" operator="out"/>
<feColorMatrix type="matrix" values="0 0 0 0 0.392157 0 0 0 0 0.427451 0 0 0 0 0.482353 0 0 0 0.16 0"/>
<feBlend mode="normal" in2="BackgroundImageFix" result="effect1_dropShadow_2608_24440"/>
<feBlend mode="normal" in="SourceGraphic" in2="effect1_dropShadow_2608_24440" result="shape"/>
</filter>
</defs>
</svg>

