<svg xmlns="http://www.w3.org/2000/svg" width="54" height="36" viewBox="0 0 54 36">
  <g fill="#FFF" fill-rule="evenodd">
    <path d="M53.5256655 10.9270987C53.4066969 11.1985045 53.408983 11.4959718 53.3448808 11.7794481 52.9583471 13.492834 52.1413865 14.9977276 51.1072465 16.3938944 49.3987986 18.700386 47.2679709 20.5643801 44.9470312 22.2250943 43.9201152 22.9599381 42.8561645 23.6378124 41.759934 24.2647523 41.6720564 24.3150465 41.5913113 24.3941456 41.4529566 24.3504353 41.8906989 24.02206 42.321583 23.7083157 42.7424082 23.3816778 44.5325156 21.9919121 46.1780501 20.4578479 47.4741771 18.5817831 48.368865 17.2867534 49.0394237 15.8930557 49.2923578 14.3232368 49.6346326 12.1985359 49.1030687 10.2844304 47.8729643 8.54918941 46.7163808 6.91764587 45.1760983 5.72283879 43.4558541 4.74393095 41.0501458 3.37492308 38.4531367 2.53382132 35.7522472 1.99210717 33.1296338 1.46602993 30.4773925 1.25854354 27.805125 1.32090833 25.5120757 1.37449451 23.238321 1.61993016 20.9880675 2.07047466 20.8974465 2.08858057 20.8072828 2.11336189 20.6579547 2.04971688 21.5536485 1.8457968 22.3971278 1.64782057 23.2433505 1.46228073 25.3690573.995916418 27.5137845.639467773 29.6743315.380772745 30.9539071.227695518 32.238055.121803385 33.525129.0523974022 33.6045024.048099535 33.7012501.0949188543 33.7627919-2.84217094e-14L37.7885218-2.84217094e-14C37.8190641.0602615848 37.8770396.0433444479 37.9260536.0467278753 38.4385057.0824824726 38.9516893.10927556 39.4634098.153443003 41.5246486.331210106 43.5503158.692413839 45.5137095 1.35977203 47.7116571 2.10686937 49.7038557 3.19395544 51.3037596 4.9149312 52.2727915 5.95720971 53.0088241 7.13244778 53.3457952 8.53410115 53.4117263 8.80797588 53.4140124 9.09520143 53.5256655 9.35865155L53.5256655 10.9270987zM53.5256655 15.7893948C53.4646724 15.7690028 53.479212 15.8449013 53.4419028 15.8548687 53.44172 15.8547772 53.4217852 15.842158 53.4217852 15.842158 53.4028563 15.7543717 53.5027131 15.744953 53.5256655 15.6848743L53.5256655 15.7893948z"/>
    <path d="M17.5475517,23.5764169 L17.5475517,23.5917795 C17.8697088,23.5917795 18.1921403,23.5973576 18.5141146,23.5897677 C18.7098047,23.5851041 18.8127706,23.4183102 18.8183487,23.1529398 C18.8229209,22.9331999 18.6938934,22.8936961 18.514206,22.896348 C18.279195,22.8998229 18.044001,22.8931474 17.8088986,22.8950678 C17.1627554,22.9000972 17.0490905,22.7822259 17.0845708,22.1382774 C17.1105409,21.6657863 17.3738081,21.3660329 17.8346858,21.2680964 C18.0506765,21.2221915 18.267673,21.2320675 18.4848525,21.2257579 C18.6153431,21.2219172 18.7490342,21.2317932 18.8754097,21.2064632 C19.10594,21.1601925 19.1206625,20.9648682 19.1334647,20.7786882 C19.1415117,20.6635603 19.0854566,20.5880275 18.9684083,20.5915938 C18.3946887,20.6092425 17.8199633,20.5008814 17.2472496,20.6039388 C16.7825313,20.6875186 16.4259912,20.9158542 16.2188706,21.35698 C15.9917237,21.8405358 15.8947931,22.3452151 15.9344798,22.877602 C15.9663023,23.3030908 16.2529792,23.5724848 16.6853264,23.5759597 C16.9727348,23.5783372 17.2601432,23.5764169 17.5475517,23.5764169 M35.4913301,23.639879 L35.4913301,23.6599967 C35.8046172,23.6599967 36.1180872,23.6654833 36.4312828,23.6581678 C36.6505655,23.6530469 36.7977903,23.4617461 36.8051058,23.2087206 C36.8124213,22.9560609 36.6376719,22.9664855 36.4674946,22.9629192 C36.1280546,22.9557866 35.7886145,22.9512144 35.4493573,22.9382293 C35.1716419,22.9277133 35.0309097,22.8156029 35.042523,22.5420025 C35.0781862,21.7024553 35.3169464,21.3051312 36.110223,21.3213168 C36.2232477,21.3236029 36.3366383,21.3252489 36.4496631,21.3206767 C36.6057579,21.31455 36.7663336,21.3224141 36.9164846,21.2878483 C37.1429913,21.2357253 37.1440887,21.0309822 37.1624689,20.8489172 C37.1765513,20.7086421 37.0781575,20.6556046 36.9697964,20.6568848 C36.387664,20.6638346 35.8054402,20.5530045 35.2235821,20.6549645 C34.6596471,20.7536326 34.2768626,21.0563122 34.1136351,21.621436 C34.0021648,22.0075125 33.9641241,22.4063911 33.8919748,22.7988687 C33.8195512,23.1930837 34.2281229,23.6354897 34.6294706,23.6393303 C34.9166961,23.6420737 35.2040131,23.639879 35.4913301,23.639879 M32.318041,23.6646603 C32.5704264,23.6646603 32.8229947,23.6719758 33.0750143,23.6624657 C33.3109398,23.6535956 33.4423448,23.4781146 33.4390528,23.1845794 C33.4364009,22.9410641 33.2562563,22.9532261 33.0858047,22.9502999 C32.8595723,22.9466422 32.6335228,22.9317368 32.4072903,22.9301823 C31.6604673,22.9246956 31.683877,22.842396 31.7241123,22.0892634 C31.7503568,21.5981178 32.0530363,21.3427147 32.5475654,21.3235115 C32.8082722,21.3134526 33.0696191,21.3182077 33.3306002,21.3233286 C33.5017834,21.3266206 33.6365718,21.2602322 33.7366115,21.1284615 C33.8746919,20.9464879 33.7960501,20.6664865 33.6006343,20.656702 C33.1055566,20.632195 32.6089243,20.5955259 32.1145782,20.6118944 C31.3880557,20.6359442 30.9456497,20.9964163 30.737889,21.6769425 C30.6361118,22.0104387 30.5794166,22.3551825 30.5424732,22.6998349 C30.4887956,23.2013137 30.7826051,23.5516356 31.2769513,23.6352154 C31.6230667,23.6936481 31.9702795,23.686424 32.318041,23.6646603 M13.3836499,22.1189827 C13.669138,22.5187758 13.9412753,22.849803 14.15562,23.2146645 C14.3481096,23.5421254 14.6250934,23.625248 14.9622474,23.6281742 C15.128584,23.6296373 15.3446661,23.6447255 15.4181871,23.5030788 C15.4944514,23.3561283 15.3301265,23.2055201 15.2320071,23.0785044 C15.0621042,22.8583073 14.8783932,22.648992 14.7079417,22.4293436 C14.5334665,22.2042999 14.5624543,21.9843771 14.7351005,21.7661918 C14.8989681,21.5590712 15.1046257,21.3989528 15.3016874,21.2282268 C15.4461689,21.1031315 15.5888216,20.9752928 15.7237929,20.84023 C15.7939304,20.7702754 15.8468765,20.6771854 15.7187635,20.607688 C15.4743337,20.4750942 14.9162511,20.5541018 14.7073016,20.7481459 C14.3209507,21.1069721 13.8522089,21.3654843 13.4819522,21.7583276 C13.5095683,21.4437603 13.555656,21.1395262 13.6085107,20.8363894 C13.6359439,20.6789228 13.5810775,20.5752254 13.4227879,20.5579425 C13.2418203,20.538282 13.0583837,20.5361788 12.8760444,20.5352643 C12.7194008,20.5344413 12.6265852,20.6075051 12.5813204,20.7706412 C12.493077,21.0895063 12.4254084,21.4112977 12.3710907,21.7372955 C12.2926317,22.2085978 12.1981701,22.6773396 12.126478,23.1497393 C12.1021539,23.3103149 12.0450014,23.5199959 12.3006788,23.5673639 C12.4536646,23.5957116 12.6125028,23.6071421 12.7681405,23.6034843 C12.9943729,23.5980891 13.1320875,23.4944831 13.1677507,23.2461212 C13.2194165,22.8865635 13.3029049,22.5315779 13.3836499,22.1189827 M9.75231789,23.5571222 L9.75231789,23.572119 C9.95258022,23.572119 10.1533912,23.5622431 10.3530134,23.5740393 C11.0274128,23.6135431 11.4495182,23.2687079 11.7177234,22.6888616 C11.9247526,22.240969 11.9197232,21.7638143 11.9226494,21.2823617 C11.9246612,20.9484997 11.7564957,20.7700925 11.4880161,20.6433511 C11.4023331,20.6029329 11.3107063,20.5699216 11.2182564,20.5501697 C10.6209443,20.4226968 10.0209803,20.5682756 9.42101634,20.5452317 C9.19569837,20.536636 9.15235392,20.7933193 9.1443983,20.9850773 C9.13662556,21.1751893 9.2886969,21.1904605 9.43738482,21.19613 C9.78532917,21.2092065 10.133365,21.2227402 10.4807607,21.245967 C10.6271625,21.2557515 10.7731985,21.3144585 10.7715525,21.4856417 C10.7698151,21.6767596 10.6035699,21.6463087 10.4765542,21.6494178 C10.0848997,21.658928 9.69315364,21.6656034 9.30149906,21.6759366 C9.09382977,21.6814232 8.99360717,21.7868581 8.97193494,21.9989167 C8.94934828,22.2203941 9.07325488,22.2562401 9.24635834,22.2866909 C9.63691559,22.3552739 10.0285702,22.3045225 10.4192189,22.3178733 C10.5222762,22.3213482 10.6390502,22.3011391 10.6689524,22.444066 C10.6971171,22.5790374 10.5889389,22.6279599 10.5016099,22.677614 C10.2847962,22.8008805 10.0450301,22.8421217 9.79858855,22.8453222 C9.52005018,22.8490714 9.24105459,22.8389212 8.96297343,22.8517233 C8.74899451,22.8616907 8.65681898,23.0233637 8.65471577,23.3133325 C8.65297833,23.5425826 8.79892293,23.5584939 8.96882585,23.5575794 C9.22998986,23.5560249 9.49115388,23.5571222 9.75231789,23.5571222 M21.2366763,20.5643435 C21.0015738,20.5643435 20.7665628,20.5667211 20.5315517,20.5638863 C19.9759381,20.5569366 19.6826772,20.7709155 19.5750477,21.3106179 C19.4476662,21.9498113 19.350827,22.5950401 19.2303038,23.2356052 C19.1854963,23.4739082 19.2918456,23.5879388 19.5056417,23.6105255 C19.6597248,23.6268025 19.8183801,23.6124458 19.973652,23.598272 C20.0974671,23.5870244 20.1885453,23.5080168 20.2109491,23.3876765 C20.3082455,22.8667201 20.4769597,22.3601205 20.5323747,21.8315742 C20.5813887,21.3638383 20.6929503,21.2488932 21.1650756,21.2281354 C21.2433517,21.2246605 21.3219021,21.2191739 21.3999952,21.2221915 C21.6789908,21.2332563 21.7474824,21.3088804 21.7481225,21.587053 C21.7492198,22.1056319 21.5906559,22.5995208 21.5167692,23.1065777 C21.4531242,23.5429484 21.4939082,23.5979977 21.941435,23.6234191 C22.0021539,23.6268025 22.0633299,23.6259795 22.1241401,23.6232362 C22.3453431,23.6131774 22.4863497,23.5289575 22.5452397,23.2870881 C22.7224581,22.5590111 22.793693,21.8136512 22.9278413,21.0788074 C22.9692654,20.8518434 22.8534973,20.7024239 22.6135483,20.6478319 C22.1583402,20.5439515 21.6983769,20.5458718 21.2366763,20.5643435 M28.6650368,23.6232362 C28.9784153,23.6232362 29.2918853,23.627717 29.6050809,23.6217731 C29.8485963,23.6171095 29.9672905,23.4695189 29.968205,23.1835735 C29.969028,22.949294 29.7849512,22.9230496 29.6239184,22.9156427 C29.2765227,22.8997314 28.9277553,22.9080528 28.5796281,22.9077785 C28.4309402,22.907687 28.2837154,22.9009202 28.1447205,22.8402014 C28.0179792,22.7848778 27.9130015,22.7153803 27.9432694,22.5500496 C27.9739032,22.3823414 28.1033878,22.391943 28.2261057,22.3901141 C28.7222807,22.3829815 29.2185472,22.3778606 29.7147223,22.3692649 C30.0333131,22.3637782 30.2141893,22.2266123 30.3097483,21.9245728 C30.3879329,21.677674 30.3755879,21.4250143 30.3470574,21.1738177 C30.3124916,20.8702237 30.0704394,20.6302746 29.7651993,20.6024757 C29.2532959,20.5558392 28.7412096,20.5361788 28.2278431,20.6007382 C27.461634,20.6973031 27.1364592,20.9645938 26.995544,21.6860869 C26.9190968,22.0773757 26.888646,22.4778089 26.842101,22.8746758 C26.8341454,22.9425272 26.8446614,23.0139449 26.8546288,23.0825279 C26.8992535,23.3864877 27.055897,23.5317008 27.362783,23.5817206 C27.7950387,23.6521325 28.2299463,23.6433539 28.6650368,23.6232362 M26.6084616,21.4674443 C26.6136739,20.9591986 26.3719875,20.6901705 25.714871,20.6003725 C25.1847702,20.5280403 24.6561326,20.5637034 24.1261232,20.5948858 C23.7264216,20.6183869 23.4909533,20.8063958 23.4055447,21.206829 C23.3547932,21.4445833 23.317667,21.6852639 23.2788033,21.9253043 C23.1468496,22.7400702 23.0210227,23.5556591 22.8832166,24.3693277 C22.8525829,24.550021 22.920983,24.6376243 23.0846677,24.6565532 C23.7134365,24.7292512 23.8175912,24.7041955 23.9356454,24.1306589 C23.9530198,24.0457074 23.9728631,23.9604816 24.0013022,23.8789136 C24.0571745,23.7184294 24.1500816,23.6253394 24.3450401,23.6294544 C24.6663743,23.6362212 24.9886229,23.6172009 25.3098656,23.5989121 C25.805492,23.5706559 26.3159323,23.1735147 26.436364,22.6919707 C26.524516,22.3394541 26.6059926,21.9813595 26.6084616,21.4674443 M32.2779885,19.4412285 L32.2779885,19.4507387 C32.8529883,19.4507387 33.428994,19.4308039 34.0025306,19.4588772 C34.3052102,19.4736911 34.426282,19.3350621 34.4964196,19.0842312 C34.5767988,18.7969142 34.5714951,18.497801 34.6212406,18.2066433 C34.6905552,17.8009978 34.6729979,17.7773138 34.2542759,17.7719186 C33.4703266,17.7619512 32.6859202,17.763963 31.902611,17.7332378 C31.3188326,17.7102854 31.0135012,17.3735886 30.9917375,16.8056301 C30.9684193,16.193504 31.1074141,15.6185043 31.3415107,15.055758 C31.5581415,14.5347102 31.9481501,14.2435525 32.4781594,14.1153481 C32.9664703,13.9972024 33.4632855,14.0123822 33.9598263,14.0378036 C34.3168236,14.0560924 34.6731808,14.0669742 35.0296294,14.021618 C35.1607601,14.0048837 35.2780827,13.9652885 35.3083507,13.829037 C35.3911989,13.4559455 35.4658172,13.0807509 35.5338516,12.7045503 C35.5766473,12.4676189 35.470298,12.3846793 35.2264169,12.3859595 C34.2855497,12.390806 33.3445912,12.3820274 32.4038155,12.3678536 C30.7384377,12.3427065 29.4919647,13.2479105 29.0259662,14.8384871 C28.768277,15.7182697 28.5698436,16.6060078 28.6353175,17.5355359 C28.7173427,18.7012638 29.488307,19.4371136 30.6575097,19.4409542 C31.1976693,19.4426916 31.7378289,19.4412285 32.2779885,19.4412285 M17.2317041,19.3949579 L17.2317041,19.4043766 C17.8241697,19.4043766 18.4166353,19.4001702 19.0090094,19.4066627 C19.2086316,19.4088574 19.3109574,19.3371653 19.3425056,19.1315078 C19.3953602,18.7878613 19.4727218,18.4480554 19.5349952,18.105872 C19.598183,17.7583849 19.5530097,17.7039757 19.2046995,17.7006838 C18.3945058,17.692911 17.5842207,17.6890704 16.7741185,17.6794688 C16.2645011,17.6734335 15.8402011,17.3284153 15.8401096,16.8466884 C15.8398353,16.1307735 15.9311878,15.4179676 16.2944033,14.7803287 C16.5443197,14.3416719 16.9152165,14.0654197 17.4470547,14.0394496 C18.2388682,14.0007688 19.0304073,13.9581559 19.8234095,13.9557783 C19.9809675,13.9554125 20.1227971,13.9312713 20.1700737,13.7525898 C20.2745941,13.3568202 20.356345,12.956387 20.3966718,12.5486383 C20.412766,12.3859595 20.3300092,12.298539 20.1692507,12.3021968 C19.1327331,12.3258808 18.0962156,12.2224576 17.0600638,12.2915893 C15.6127799,12.3881541 14.5379473,13.0334743 14.0121444,14.4339389 C13.6888899,15.2949755 13.5128602,16.1940527 13.5048132,17.1134305 C13.4938399,18.3420719 14.0171738,19.4074857 15.7942047,19.3955065 C16.2733712,19.392306 16.7525377,19.3949579 17.2317041,19.3949579 M39.5287648,12.3759921 C38.9450779,12.3759921 38.3612081,12.3871482 37.7778869,12.3734316 C36.8962755,12.3527653 36.3284083,12.8081563 36.1650894,13.6761426 C35.9302612,14.9238958 35.6878432,16.1702773 35.4494488,17.4172989 C35.3449283,17.9640424 35.2407736,18.510786 35.1390879,19.0580782 C35.0792835,19.3795038 35.1368018,19.4490927 35.4508204,19.4538478 C35.9385826,19.4612548 36.4264363,19.4697591 36.9141985,19.4780805 C37.2403792,19.4835671 37.3042071,19.4308954 37.3652917,19.1109329 C37.4534437,18.6496894 37.5450705,18.1891775 37.6307535,17.7274768 C37.6689771,17.5214536 37.7717602,17.4185791 37.9935118,17.3944379 C38.3507835,17.3556656 38.7070492,17.3524651 39.0632235,17.3717598 C39.6896148,17.4058684 40.3151831,17.4509502 40.9431289,17.413824 C41.96657,17.3532881 42.5650709,16.9071329 42.9090831,15.9464224 C42.9589201,15.8074275 43.0102202,15.6688899 43.0558507,15.5286148 C43.2372756,14.9713552 43.3682234,14.407603 43.3321944,13.8133086 C43.2845521,13.0298166 42.8393114,12.5536677 42.13629,12.4732885 C41.2676636,12.3739803 40.3999517,12.3493819 39.5287648,12.3759921 M24.4876013,12.2854625 C23.8366116,12.3351166 23.0514736,12.2367229 22.2694446,12.3352995 C21.6296111,12.4160445 21.2059511,12.7128717 21.110575,13.1824366 C20.7124279,15.1429041 20.3796633,17.1155337 20.0217515,19.0834082 C19.984991,19.2851337 20.0482703,19.3888311 20.2723995,19.4075771 C20.8038719,19.4522018 21.3337898,19.440497 21.8650793,19.4142526 C22.0832647,19.4034622 22.1921744,19.3088176 22.230398,19.0923697 C22.3196474,18.5871417 22.4264539,18.0852057 22.5210985,17.581075 C22.7169715,16.5383393 22.9076322,15.4946891 23.104694,14.4522277 C23.1686133,14.1142507 23.3626574,13.9608077 23.7062125,13.9653799 C24.2811208,13.9730612 24.8560291,13.9825714 25.430846,13.9957393 C25.7037148,14.002049 25.8215861,14.1450674 25.7893978,14.4134555 C25.7104817,15.070389 25.5929762,15.7206472 25.4679722,16.3700824 C25.2935886,17.2751035 25.0946065,18.1755524 24.9700598,19.0899922 C24.9412549,19.3013192 25.0006935,19.3836188 25.2222623,19.4058397 C25.7715663,19.4607061 26.3184013,19.428975 26.8668823,19.4125151 C27.0610179,19.4066627 27.1371907,19.327015 27.1791635,19.1436698 C27.3364472,18.4563768 27.4479174,17.7608539 27.5699951,17.0673427 C27.7944901,15.7914248 28.0845504,14.526846 28.2325067,13.2378516 C28.2824352,12.8031269 28.0681819,12.5299837 27.6390353,12.4409173 C26.6400098,12.2336138 25.6287308,12.2786957 24.4876013,12.2854625 M19.205614,8.23421976 C17.3022075,8.62258235 15.4610743,9.2145907 13.6565187,9.92712221 C11.4587541,10.7950171 9.36715584,11.8669234 7.4033963,13.183351 C5.59929796,14.3928806 3.93849235,15.7712157 2.48873944,17.3941635 C1.63812751,18.3464612 0.851617813,19.3483214 0.182430746,20.4386081 C0.137440306,20.5118547 0.0844942403,20.5801633 2.95585778e-12,20.6372244 C0.0726065225,20.4290979 0.143201277,20.2202398 0.218551119,20.0130278 C0.298381716,19.7933793 0.376566322,19.572725 0.466089981,19.3568257 C1.36406989,17.1930782 2.58128075,15.2240149 4.09815354,13.4410401 C5.14875346,12.2060892 6.31576157,11.0884608 7.58244362,10.0774561 C10.978856,7.36678213 14.8051466,5.49757568 18.9619157,4.27368941 C20.6514348,3.77623414 22.3660095,3.39427263 24.1076516,3.14609366 C26.4211843,2.81625521 28.7455989,2.69216572 31.083913,2.81488355 C34.1870646,2.97765384 37.206362,3.53710813 40.1105315,4.6568397 C41.0774601,5.02965682 42.0628605,5.38592257 42.9050596,6.0078331 C45.0505183,7.592283 46.7564058,9.52293981 47.5253583,12.1422613 C48.157602,14.2960414 47.7827731,16.3281096 46.695687,18.2539199 C45.7122984,19.9959277 44.3389927,21.3938319 42.800722,22.6455171 C40.1148293,24.8313941 37.0960806,26.4589141 33.975006,27.9153424 C33.8437839,27.9765185 33.7121045,28.0368715 33.5483284,28.1126785 C33.8081207,28.171477 34.0139611,28.0665908 34.2183384,28.0125474 C37.2833578,27.2033596 40.2274883,26.0814334 43.0163469,24.5675782 C46.1576306,22.8624223 49.0021786,20.7613139 51.4769271,18.1737235 C52.1777538,17.4409828 52.8073456,16.6475234 53.4218492,15.8420848 C53.4218492,15.8420848 53.4416925,15.8547955 53.4418754,15.854887 C52.6860909,17.7822518 51.6831333,19.5739138 50.4881433,21.2618782 C49.3235127,22.9067726 47.9973007,24.4109347 46.5029231,25.758819 C42.9528848,28.9610044 38.8806099,31.2253403 34.2608599,32.4856213 C32.7283502,32.9036117 31.1692303,33.1805041 29.5909986,33.3609231 C27.6578728,33.5818517 25.7202662,33.6578417 23.7776302,33.5632886 C20.1159388,33.3850643 16.5482518,32.752089 13.1508335,31.3198934 C11.6281998,30.678048 10.197833,29.8762672 8.9263044,28.8129566 C7.26559022,27.4241968 6.01820285,25.7603735 5.61054557,23.5838238 C5.37215111,22.3107407 5.55028399,21.06061 5.98061937,19.8443136 C6.55799668,18.2124043 7.47984347,16.7856038 8.59299108,15.4750287 C10.1165393,13.6812635 11.9016173,12.1865201 13.8726923,10.9111509 C15.4849412,9.86795796 17.1899142,9.00756152 19.0032484,8.36754508 C19.0824389,8.33956322 19.1583374,8.30243697 19.235699,8.26960858 C19.278952,8.26137862 19.322205,8.25305722 19.4222448,8.23385398 C19.310043,8.20788389 19.2575541,8.19819083 19.205614,8.23421976"/>
    <path d="M33.1843813 33.7212489C31.9268437 33.9909172 30.6752499 34.2877444 29.4097566 34.5211094 27.8360971 34.8112612 26.2565852 35.0580685 24.6672887 35.2471747 22.0525395 35.5581757 19.4296517 35.7189342 16.7975281 35.6429442 13.7956965 35.5562553 10.828705 35.2136147 7.96595969 34.2423882 6.07562967 33.6010915 4.31935653 32.7129876 2.86576298 31.3143519 1.39644106 29.900445.420185102 28.2283918.238851683 26.1512417.0975707298 24.5319516.494620504 23.0255035 1.17871294 21.5813286 1.9969537 19.8540432 3.15746929 18.3694502 4.48496159 17.0082151 6.73594667 14.699986 9.33981409 12.8635165 12.1398288 11.2900399 12.1920434 11.2606864 12.2518477 11.2450495 12.3081772 11.22292 12.3166815 11.2310585 12.3252772 11.2392885 12.3337815 11.247427 11.5990291 11.8042294 10.8401355 12.328935 10.1280612 12.9160968 8.31619014 14.4101086 6.66782091 16.0503393 5.48362133 18.1052685 4.70653036 19.4537929 4.20916654 20.8938528 4.18566543 22.4608369 4.15539747 24.4852238 4.90642691 26.2329012 6.18874588 27.7657767 7.74887167 29.6308681 9.74472804 30.8995619 11.933074 31.8899917 14.4315979 33.0208795 17.0596066 33.6964676 19.7666228 34.0983639 22.135845 34.4501489 24.517412 34.5361063 26.9043743 34.4389013 29.0272464 34.3522124 31.1326527 34.0896767 33.211083 33.6361146 33.2019386 33.6646451 33.1931599 33.6929013 33.1843813 33.7212489M12.3779313 11.192488C12.3980313 11.177988 12.4177313 11.163088 12.4389313 11.150588 12.4401313 11.149888 12.4534313 11.169788 12.4610313 11.180188 12.4357313 11.186488 12.4103313 11.192888 12.3848313 11.199088 12.3847313 11.198988 12.3779313 11.192488 12.3779313 11.192488"/>
    <path d="M12.3088893 11.2277822C12.3340893 11.2145822 12.3592893 11.2013822 12.3843893 11.1881822 12.3843893 11.1881822 12.3911893 11.1945822 12.3913893 11.1946822 12.3732893 11.2147822 12.3550893 11.2345822 12.3368893 11.2545822 12.3275893 11.2455822 12.3182893 11.2366822 12.3088893 11.2277822M39.3319317 15.6506651C39.0363847 15.6506651 38.7407463 15.651671 38.4451994 15.6503908 38.2007696 15.6492935 38.0764972 15.5185286 38.1136235 15.2723614 38.1534931 15.007631 38.2282028 14.7484788 38.2855382 14.486949 38.3369297 14.2524866 38.5447819 14.0979463 38.7799758 14.0768227 39.3928334 14.0217734 40.0069712 14.0263456 40.6125132 14.1666207 40.7490391 14.1982603 40.8448724 14.2822974 40.9140955 14.3974253 41.1612686 14.8081917 40.7740033 15.5842768 40.2958427 15.624695 39.9756059 15.651671 39.6536316 15.6570662 39.3323889 15.672063 39.332206 15.6649304 39.3320231 15.6577977 39.3319317 15.6506651M24.6631646 22.8644249C24.2941881 22.8646992 24.2220388 22.7809365 24.2841293 22.4108627 24.321347 22.1892025 24.3675262 21.9690969 24.4093161 21.7482596 24.4482713 21.5423278 24.5040521 21.3612687 24.7690567 21.3487409 25.1307177 21.3315494 25.3650886 21.439179 25.4595503 21.6886382 25.6643848 22.2297122 25.2346895 22.8641506 24.6631646 22.8644249M28.6691518 21.7503994C28.5649056 21.7503994 28.4602937 21.7556117 28.3565048 21.7487534 28.2700902 21.7431753 28.1705077 21.7312876 28.1509387 21.6264928 28.134113 21.5366948 28.1849559 21.460522 28.2515271 21.3977 28.4382557 21.221396 28.8503023 21.2012783 29.0822957 21.3603908 29.1538049 21.4094963 29.2361045 21.4596076 29.2060194 21.5662312 29.1750199 21.675964 29.102139 21.7467417 28.9821645 21.7505823 28.8779184 21.7539657 28.7735808 21.7513139 28.6691518 21.7513139L28.6691518 21.7503994z"/>
  </g>
</svg>
