<svg width="55" height="43" viewBox="0 0 55 43" fill="none" xmlns="http://www.w3.org/2000/svg">
<path fill-rule="evenodd" clip-rule="evenodd" d="M5.63604 8.9871L22.3757 22.6275C22.7562 22.9352 23.1366 23.1403 23.6122 23.1403H23.7073H23.9926H24.278H24.3731C24.8486 23.0377 25.2291 22.9352 25.6095 22.6275L42.3492 8.9871C42.6346 8.78198 42.8248 8.47431 43.015 8.16663V17.1919H47.6755V5.60264C47.6755 2.62842 45.3928 0.166992 42.6346 0.166992H5.54093C2.78269 0.166992 0.5 2.62842 0.5 5.60264V30.7297C0.5 33.7039 2.78269 36.1653 5.54093 36.1653H24.4682V31.1399H6.68227C5.82627 31.1399 5.16048 30.422 5.16048 29.499V8.26919C5.2556 8.57686 5.44582 8.78198 5.63604 8.9871ZM38.1644 5.19173L23.9928 16.7809L9.82108 5.19173H38.1644ZM46.0587 23.9618L53.8578 32.2691C54.1432 32.4743 54.3334 32.8845 54.3334 33.1922C54.3334 33.4999 54.1432 33.9101 53.8578 34.1152L46.0587 42.4225C45.6782 42.7302 45.2978 42.7302 44.9173 42.5251C44.5369 42.32 44.3466 41.9097 44.3466 41.4995V36.7818H32.5528C31.9821 36.7818 31.5065 36.269 31.5065 35.6536V30.7307C31.5065 30.1154 31.9821 29.6026 32.5528 29.6026H44.3466V24.8849C44.3466 24.4746 44.5369 24.0644 44.9173 23.8593C45.2978 23.6541 45.7733 23.6541 46.0587 23.9618Z" fill="white"/>
</svg>
