<svg width="53" height="64" viewBox="0 0 53 64" fill="none" xmlns="http://www.w3.org/2000/svg">
<g filter="url(#filter0_d_2472_34764)">
<path fill-rule="evenodd" clip-rule="evenodd" d="M4 8C4 4.68629 6.68629 2 10 2H33.1043C34.6578 2 36.1508 2.60257 37.2691 3.68093L46.9648 13.0304C48.1375 14.1612 48.8 15.7203 48.8 17.3494V52C48.8 55.3137 46.1137 58 42.8 58H9.99999C6.68628 58 4 55.3137 4 52V8Z" fill="white"/>
<path d="M4.5 8C4.5 4.96243 6.96243 2.5 10 2.5H33.1043C34.5284 2.5 35.8969 3.05236 36.922 4.04086L46.6177 13.3903C47.6927 14.4269 48.3 15.8561 48.3 17.3494V52C48.3 55.0376 45.8376 57.5 42.8 57.5H9.99999C6.96243 57.5 4.5 55.0376 4.5 52V8Z" stroke="#2FC6F6"/>
</g>
<rect x="10.7198" y="19" width="25.8461" height="2.24" rx="1.12" fill="#7FDEFC"/>
<rect x="10.7198" y="24.6" width="18.9538" height="2.24" rx="1.12" fill="#7FDEFC"/>
<path d="M25.2648 40.0215C25.6513 40.0215 25.966 40.3559 25.966 40.7667V45.9832C25.966 46.3939 25.6513 46.7284 25.2648 46.7284H24.5636V49.2358C24.5636 49.6465 24.2489 49.981 23.8625 49.981H14.0459C13.6594 49.981 13.3447 49.6465 13.3447 49.2358V46.7284H12.6436C12.2571 46.7284 11.9424 46.3939 11.9424 45.9832V40.7667C11.9424 40.3559 12.2571 40.0215 12.6436 40.0215H25.2648ZM23.1613 45.9832H14.7471V48.4906H23.1613V45.9832ZM23.8625 41.5119C23.476 41.5119 23.1613 41.8463 23.1613 42.2571C23.1613 42.6678 23.476 43.0023 23.8625 43.0023C24.2489 43.0023 24.5636 42.6678 24.5636 42.2571C24.5636 41.8463 24.2489 41.5119 23.8625 41.5119ZM23.6842 35.9424C23.8401 35.9424 23.9632 36.0813 23.9632 36.2504V38.7028C23.9632 38.875 23.8374 39.0109 23.6842 39.0109H14.2248C14.0716 39.0109 13.9458 38.875 13.9458 38.7058V36.2504C13.9458 36.0813 14.0716 35.9424 14.2248 35.9424L23.6842 35.9424Z" fill="#2FC6F6"/>
<path opacity="0.2" d="M37.3601 16C36.2555 16 35.3601 15.1042 35.3601 13.9996V4.34883C35.3601 3.46734 36.4178 3.01703 37.0532 3.62799L42.6401 9L48.2401 14.32L48.8001 16H37.3601Z" fill="#2FC6F6"/>
<defs>
<filter id="filter0_d_2472_34764" x="0.64" y="0.88" width="51.52" height="62.72" filterUnits="userSpaceOnUse" color-interpolation-filters="sRGB">
<feFlood flood-opacity="0" result="BackgroundImageFix"/>
<feColorMatrix in="SourceAlpha" type="matrix" values="0 0 0 0 0 0 0 0 0 0 0 0 0 0 0 0 0 0 127 0" result="hardAlpha"/>
<feOffset dy="2.24"/>
<feGaussianBlur stdDeviation="1.68"/>
<feComposite in2="hardAlpha" operator="out"/>
<feColorMatrix type="matrix" values="0 0 0 0 0 0 0 0 0 0.24977 0 0 0 0 0.329167 0 0 0 0.2 0"/>
<feBlend mode="normal" in2="BackgroundImageFix" result="effect1_dropShadow_2472_34764"/>
<feBlend mode="normal" in="SourceGraphic" in2="effect1_dropShadow_2472_34764" result="shape"/>
</filter>
</defs>
</svg>
