<svg width="24" height="24" viewBox="0 0 24 24" fill="none" xmlns="http://www.w3.org/2000/svg">
<path d="M5.34429 14.2186C6.56957 14.2186 7.56285 13.2253 7.56285 12.0001C7.56285 10.7748 6.56957 9.78149 5.34429 9.78149C4.11901 9.78149 3.12573 10.7748 3.12573 12.0001C3.12573 13.2253 4.11901 14.2186 5.34429 14.2186Z" fill="#525C69"/>
<path d="M12 14.2186C13.2252 14.2186 14.2185 13.2253 14.2185 12.0001C14.2185 10.7748 13.2252 9.78149 12 9.78149C10.7747 9.78149 9.78141 10.7748 9.78141 12.0001C9.78141 13.2253 10.7747 14.2186 12 14.2186Z" fill="#525C69"/>
<path d="M20.8742 12.0001C20.8742 13.2253 19.8809 14.2186 18.6556 14.2186C17.4304 14.2186 16.4371 13.2253 16.4371 12.0001C16.4371 10.7748 17.4304 9.78149 18.6556 9.78149C19.8809 9.78149 20.8742 10.7748 20.8742 12.0001Z" fill="#525C69"/>
</svg>
