<svg width="24" height="24" viewBox="0 0 24 24" fill="none" xmlns="http://www.w3.org/2000/svg">
	<path d="M7.5 7.5H6.1V6.1H7.5V7.5Z" fill="#525C69"/>
	<path fill-rule="evenodd" clip-rule="evenodd" d="M5.4 4H8.2C8.9735 4 9.6 4.6265 9.6 5.4V8.2C9.6 8.9735 8.9735 9.6 8.2 9.6H5.4C4.6265 9.6 4 8.9735 4 8.2V5.4C4 4.6265 4.6265 4 5.4 4ZM5.4 8.2H8.2V5.4H5.4V8.2Z" fill="#525C69"/>
	<path d="M7.5 17.9H6.1V16.5H7.5V17.9Z" fill="#525C69"/>
	<path fill-rule="evenodd" clip-rule="evenodd" d="M5.4 14.4H8.2C8.9735 14.4 9.6 15.0265 9.6 15.8V18.6C9.6 19.3735 8.9735 20 8.2 20H5.4C4.6265 20 4 19.3735 4 18.6V15.8C4 15.0265 4.6265 14.4 5.4 14.4ZM5.4 18.6H8.2V15.8H5.4V18.6Z" fill="#525C69"/>
	<path d="M16.5 7.5H17.9V6.1H16.5V7.5Z" fill="#525C69"/>
	<path fill-rule="evenodd" clip-rule="evenodd" d="M18.6 4H15.8C15.0265 4 14.4 4.6265 14.4 5.4V8.2C14.4 8.9735 15.0265 9.6 15.8 9.6H18.6C19.3735 9.6 20 8.9735 20 8.2V5.4C20 4.6265 19.3735 4 18.6 4ZM18.6 8.2H15.8V5.4H18.6V8.2Z" fill="#525C69"/>
	<path d="M12.0646 6C11.808 6 11.6 6.20803 11.6 6.46464V6.73536C11.6 6.99197 11.808 7.2 12.0646 7.2H12.3354C12.592 7.2 12.8 6.99197 12.8 6.73536V6.46464C12.8 6.20803 12.592 6 12.3354 6H12.0646Z" fill="#525C69"/>
	<path d="M11.6 8.86464C11.6 8.60803 11.808 8.4 12.0646 8.4H12.3354C12.592 8.4 12.8 8.60803 12.8 8.86464V9.13536C12.8 9.39197 12.592 9.6 12.3354 9.6H12.0646C11.808 9.6 11.6 9.39197 11.6 9.13536V8.86464Z" fill="#525C69"/>
	<path d="M12.0646 11.6C11.808 11.6 11.6 11.808 11.6 12.0646V12.3354C11.6 12.592 11.808 12.8 12.0646 12.8H12.3354C12.592 12.8 12.8 12.592 12.8 12.3354V12.0646C12.8 11.808 12.592 11.6 12.3354 11.6H12.0646Z" fill="#525C69"/>
	<path d="M8.4 12.0646C8.4 11.808 8.60803 11.6 8.86464 11.6H9.13536C9.39197 11.6 9.6 11.808 9.6 12.0646V12.3354C9.6 12.592 9.39197 12.8 9.13536 12.8H8.86464C8.60803 12.8 8.4 12.592 8.4 12.3354V12.0646Z" fill="#525C69"/>
	<path d="M6.46464 11.6C6.20803 11.6 6 11.808 6 12.0646V12.3354C6 12.592 6.20803 12.8 6.46464 12.8H6.73536C6.99197 12.8 7.2 12.592 7.2 12.3354V12.0646C7.2 11.808 6.99197 11.6 6.73536 11.6H6.46464Z" fill="#525C69"/>
	<path d="M14.4 12.0646C14.4 11.808 14.608 11.6 14.8646 11.6H15.1354C15.392 11.6 15.6 11.808 15.6 12.0646V12.3354C15.6 12.592 15.392 12.8 15.1354 12.8H14.8646C14.608 12.8 14.4 12.592 14.4 12.3354V12.0646Z" fill="#525C69"/>
	<path d="M17.2646 11.6C17.008 11.6 16.8 11.808 16.8 12.0646V12.3354C16.8 12.592 17.008 12.8 17.2646 12.8H17.5354C17.792 12.8 18 12.592 18 12.3354V12.0646C18 11.808 17.792 11.6 17.5354 11.6H17.2646Z" fill="#525C69"/>
	<path d="M12.8 13.2646C12.8 13.008 13.008 12.8 13.2646 12.8H13.5354C13.792 12.8 14 13.008 14 13.2646V13.5354C14 13.792 13.792 14 13.5354 14H13.2646C13.008 14 12.8 13.792 12.8 13.5354V13.2646Z" fill="#525C69"/>
	<path d="M16.0646 12.8C15.808 12.8 15.6 13.008 15.6 13.2646V13.5354C15.6 13.792 15.808 14 16.0646 14H16.3354C16.592 14 16.8 13.792 16.8 13.5354V13.2646C16.8 13.008 16.592 12.8 16.3354 12.8H16.0646Z" fill="#525C69"/>
	<path d="M14.4 14.4646C14.4 14.208 14.608 14 14.8646 14H15.1354C15.392 14 15.6 14.208 15.6 14.4646V14.7354C15.6 14.992 15.392 15.2 15.1354 15.2H14.8646C14.608 15.2 14.4 14.992 14.4 14.7354V14.4646Z" fill="#525C69"/>
	<path d="M12.0646 14C11.808 14 11.6 14.208 11.6 14.4646V14.7354C11.6 14.992 11.808 15.2 12.0646 15.2H12.3354C12.592 15.2 12.8 14.992 12.8 14.7354V14.4646C12.8 14.208 12.592 14 12.3354 14H12.0646Z" fill="#525C69"/>
	<path d="M12.8 16.0646C12.8 15.808 13.008 15.6 13.2646 15.6H13.5354C13.792 15.6 14 15.808 14 16.0646V16.3354C14 16.592 13.792 16.8 13.5354 16.8H13.2646C13.008 16.8 12.8 16.592 12.8 16.3354V16.0646Z" fill="#525C69"/>
	<path d="M14.8646 16.8C14.608 16.8 14.4 17.008 14.4 17.2646V17.5354C14.4 17.792 14.608 18 14.8646 18H15.1354C15.392 18 15.6 17.792 15.6 17.5354V17.2646C15.6 17.008 15.392 16.8 15.1354 16.8H14.8646Z" fill="#525C69"/>
	<path d="M12.8 18.8646C12.8 18.608 13.008 18.4 13.2646 18.4H13.5354C13.792 18.4 14 18.608 14 18.8646V19.1354C14 19.392 13.792 19.6 13.5354 19.6H13.2646C13.008 19.6 12.8 19.392 12.8 19.1354V18.8646Z" fill="#525C69"/>
	<path d="M19.2646 12.8C19.008 12.8 18.8 13.008 18.8 13.2646V13.5354C18.8 13.792 19.008 14 19.2646 14H19.5354C19.792 14 20 13.792 20 13.5354V13.2646C20 13.008 19.792 12.8 19.5354 12.8H19.2646Z" fill="#525C69"/>
	<path d="M18.8 16.0646C18.8 15.808 19.008 15.6 19.2646 15.6H19.5354C19.792 15.6 20 15.808 20 16.0646V16.3354C20 16.592 19.792 16.8 19.5354 16.8H19.2646C19.008 16.8 18.8 16.592 18.8 16.3354V16.0646Z" fill="#525C69"/>
	<path d="M16.0646 15.6C15.808 15.6 15.6 15.808 15.6 16.0646V16.3354C15.6 16.592 15.808 16.8 16.0646 16.8H16.3354C16.592 16.8 16.8 16.592 16.8 16.3354V16.0646C16.8 15.808 16.592 15.6 16.3354 15.6H16.0646Z" fill="#525C69"/>
	<path d="M15.6 18.8646C15.6 18.608 15.808 18.4 16.0646 18.4H16.3354C16.592 18.4 16.8 18.608 16.8 18.8646V19.1354C16.8 19.392 16.592 19.6 16.3354 19.6H16.0646C15.808 19.6 15.6 19.392 15.6 19.1354V18.8646Z" fill="#525C69"/>
	<path d="M17.2646 16.8C17.008 16.8 16.8 17.008 16.8 17.2646V17.5354C16.8 17.792 17.008 18 17.2646 18H17.5354C17.792 18 18 17.792 18 17.5354V17.2646C18 17.008 17.792 16.8 17.5354 16.8H17.2646Z" fill="#525C69"/>
	<path d="M16.8 14.4646C16.8 14.208 17.008 14 17.2646 14H17.5354C17.792 14 18 14.208 18 14.4646V14.7354C18 14.992 17.792 15.2 17.5354 15.2H17.2646C17.008 15.2 16.8 14.992 16.8 14.7354V14.4646Z" fill="#525C69"/>
	<path d="M12.0646 16.8C11.808 16.8 11.6 17.008 11.6 17.2646V17.5354C11.6 17.792 11.808 18 12.0646 18H12.3354C12.592 18 12.8 17.792 12.8 17.5354V17.2646C12.8 17.008 12.592 16.8 12.3354 16.8H12.0646Z" fill="#525C69"/>
</svg>