<svg xmlns="http://www.w3.org/2000/svg" width="42" height="42" viewBox="0 0 42 42">
  <g fill="none" fill-rule="evenodd">
    <circle cx="21" cy="21" r="21" fill="#9DCF00"/>
    <path fill="#FFF" d="M25.4547886,27.625 L18.9825213,27.625 C18.8385166,28.96093 17.7341563,30 16.3931586,30 C15.0521609,30 13.9478006,28.96093 13.8037974,27.6250139 L12.4396092,27.625 C11.644535,27.625 11,26.9639854 11,26.1485826 L11,12.4764174 C11,11.6610146 11.644535,11 12.4396092,11 L22.8761803,11 C23.6712545,11 24.3157895,11.6610146 24.3157895,12.4764174 L24.3157895,14.5047669 L27.1743836,14.493811 C28.1431097,14.4900983 29.0487203,14.9862397 29.5843032,15.8140926 L33,21.09375 L33,26.1485826 C33,26.9639854 32.355465,27.625 31.5603908,27.625 L30.6335141,27.625 C30.4895094,28.96093 29.3851491,30 28.0441513,30 C26.7031536,30 25.5987933,28.96093 25.4547901,27.6250139 L25.4547886,27.625 Z M28.0441513,28.5809375 C28.7188108,28.5809375 29.2657303,28.0200342 29.2657303,27.328125 C29.2657303,26.6362158 28.7188108,26.0753125 28.0441513,26.0753125 C27.3694919,26.0753125 26.8225724,26.6362158 26.8225724,27.328125 C26.8225724,28.0200342 27.3694919,28.5809375 28.0441513,28.5809375 Z M16.3931586,28.5811592 C17.0679374,28.5811592 17.6149537,28.0201567 17.6149537,27.328125 C17.6149537,26.6360933 17.0679374,26.0750908 16.3931586,26.0750908 C15.7183798,26.0750908 15.1713635,26.6360933 15.1713635,27.328125 C15.1713635,28.0201567 15.7183798,28.5811592 16.3931586,28.5811592 Z M25.4736842,16.9375 L25.4736842,20.5 L30.198591,20.5 L27.9753216,16.9375 L25.4736842,16.9375 Z"/>
  </g>
</svg>
