<svg xmlns="http://www.w3.org/2000/svg" width="41" height="44" viewBox="0 0 41 44"><path fill="#FFF" d="M20.3622342,9.31024746 L20.3622342,9.3102604 C26.7487591,9.3102604 31.9827037,14.6133311 31.8928921,20.9931499 C31.8928921,23.7786317 30.9183084,26.4748159 29.143706,28.6317632 C27.1928355,30.9690313 26.1284147,34.0241315 26.1284147,37.4398733 C26.1284147,37.9790972 25.7741754,38.3380262 25.241965,38.3380262 L15.4842064,38.3380262 C14.9520088,38.3380262 14.5977567,37.9791102 14.5977567,37.4398733 C14.5977567,34.29375 13.4434988,31.058329 11.2265231,28.2728472 C9.27396229,25.7552582 8.38749986,22.5198372 8.91971027,19.1951186 C9.71802589,14.0723687 13.9757092,9.93879485 19.0317081,9.39955802 C19.4757845,9.31024746 19.9181578,9.31024746 20.3622342,9.31024746 Z M27.8131799,27.4657045 L27.8131799,27.4656916 C29.3216771,25.6676603 30.2081268,23.4214153 30.2081268,20.9948496 C30.2081268,15.5131837 25.7724723,11.0189682 20.3622342,11.0189682 C20.0079949,11.0189682 19.5639313,11.1082788 19.2096793,11.1082788 C14.951996,11.558218 11.3146571,15.0632574 10.6943127,19.377152 C10.2502363,22.1643594 10.9604179,24.9498412 12.6451832,27.1067885 C14.951996,29.9832935 16.1926977,33.2187145 16.3706561,36.5434331 L24.3538123,36.5434331 C24.5317834,33.1276913 25.7724723,29.8922703 27.8131799,27.4657045 Z M6.89227206,19.0842377 C6.77734766,19.5188039 6.23389717,19.8353339 5.71982139,19.6957692 L0.664194504,18.3232335 C0.150131058,18.183672 -0.10036295,17.7440756 0.0373799348,17.2232253 C0.17512282,16.7023751 0.608978832,16.4485706 1.12305461,16.5881354 L6.26545749,17.9842296 C6.77952094,18.123791 7.03001825,18.5633749 6.89227206,19.0842377 Z M10.1267731,9.86761236 L6.57756826,6.27327532 C6.22331624,5.91263373 6.22331624,5.37340984 6.57756826,5.01448086 C6.93351059,4.65555188 7.46570823,4.65555188 7.81996025,5.01448086 L11.367462,8.60881789 C11.721714,8.96945949 11.721714,9.50868338 11.367462,9.86761236 C11.1911939,10.0479202 11.0132227,10.1372308 10.7471175,10.1372308 C10.5708494,10.1372308 10.3047315,10.0479202 10.1267731,9.86761236 Z M34.1077279,19.0842377 C33.9699817,18.5633749 34.2204791,18.123791 34.7345425,17.9842296 L39.8769454,16.5881354 C40.3910212,16.4485706 40.8248772,16.7023751 40.9626201,17.2232253 C41.1003629,17.7440756 40.8498689,18.183672 40.3358055,18.3232335 L35.2801786,19.6957692 C34.7661028,19.8353339 34.2226523,19.5188039 34.1077279,19.0842377 Z M20.3971472,7.19039962 C19.8649367,7.19039962 19.5106975,6.83147065 19.5106975,6.29224675 L19.5106975,0.898152869 C19.5106975,0.358916036 19.8649495,5.11245734e-13 20.3971472,5.11146681e-13 C20.9293448,5.11047627e-13 21.2835968,0.358928978 21.2835968,0.898152869 L21.2835968,6.20122358 C21.2835968,6.74046041 20.841181,7.19039962 20.3971472,7.19039962 Z M31.2355154,9.86761236 C31.057557,10.0479202 30.791439,10.1372308 30.6151709,10.1372308 C30.3490657,10.1372308 30.1710945,10.0479202 29.9948264,9.86761236 C29.6405744,9.50868338 29.6405744,8.96945949 29.9948264,8.60881789 L33.5423282,5.01448086 C33.8965802,4.65555188 34.4287778,4.65555188 34.7847202,5.01448086 C35.1389722,5.37340984 35.1389722,5.91263373 34.7847202,6.27327532 L31.2355154,9.86761236 Z M24.290136,39.4182125 L24.2901722,39.4182125 C24.6683366,39.4182125 25.0465373,39.7771415 25.0465373,40.3163653 C25.0465373,40.8555892 24.744847,41.2145182 24.2915864,41.2145182 L16.434585,41.2145182 C15.9813352,41.2145182 15.6796341,40.8555892 15.6796341,40.3163653 C15.6796341,39.7771415 15.9813243,39.4182125 16.434585,39.4182125 L24.290136,39.4182125 Z M23.5529703,42.2036943 L23.5529997,42.2036943 C23.8601771,42.2036943 24.1673839,42.5642927 24.1673839,43.1018471 C24.1673839,43.641071 23.9223253,44 23.5541484,44 L17.1720229,44 C16.8038549,44 16.5587875,43.641071 16.5587875,43.1018471 C16.5587875,42.5626232 16.803846,42.2036943 17.1720229,42.2036943 L23.5529703,42.2036943 Z M19.2866003,26.1302802 L19.2866003,25.5125382 C19.2866003,24.8047053 19.4136183,24.2159258 19.6676582,23.7461821 C19.9216981,23.2764385 20.3662612,22.790615 21.0013609,22.2886971 C21.7571295,21.6838217 22.2445612,21.2140851 22.4636706,20.8794732 C22.6827799,20.5448612 22.792333,20.1459068 22.792333,19.682598 C22.792333,19.1420711 22.6145077,18.7270298 22.2588519,18.4374618 C21.9031961,18.1478938 21.3919485,18.0031119 20.7250939,18.0031119 C20.1217492,18.0031119 19.5628699,18.089981 19.0484391,18.2637219 C18.6073847,18.412681 18.1756727,18.5876532 17.7532937,18.7886426 C17.6830243,18.8220803 17.4764076,18.7491941 17.4444133,18.6812735 C17.1923853,18.1462433 16.9996038,17.7369873 16.8660686,17.4535055 C16.8250587,17.3664455 16.9002597,17.1051912 16.9793813,17.0636427 C18.2007153,16.4222945 19.503258,16.1016248 20.8870435,16.1016248 C22.1318389,16.1016248 23.119404,16.4104928 23.8497687,17.0282378 C24.5801333,17.6459829 24.9453101,18.4985871 24.9453101,19.5860758 C24.9453101,20.0686892 24.8754502,20.4982086 24.7357283,20.874647 C24.5960063,21.2510855 24.3848389,21.6098227 24.1022195,21.9508694 C23.8196002,22.2919162 23.3321685,22.7359138 22.6399098,23.2828756 C22.0492671,23.7526193 21.6539235,24.1419216 21.4538671,24.4507941 C21.2538107,24.7596667 21.153784,25.1747079 21.153784,25.6959303 L21.153784,26.1302802 L19.2866003,26.1302802 Z M18.896016,29.209338 C18.896016,28.2376764 19.3628072,27.751853 20.2964037,27.751853 C20.7536755,27.751853 21.1029751,27.8789392 21.344313,28.1331156 C21.5856508,28.387292 21.706318,28.7460292 21.706318,29.209338 C21.706318,29.666212 21.5840631,30.0281666 21.3395497,30.2952126 C21.0950364,30.5622587 20.7473245,30.6957797 20.2964037,30.6957797 C19.845483,30.6957797 19.4993588,30.565476 19.258021,30.3048648 C19.0166831,30.0442536 18.896016,29.6790817 18.896016,29.209338 Z"/></svg>