<svg width="141" height="114" viewBox="0 0 141 114" fill="none" xmlns="http://www.w3.org/2000/svg">
<g opacity="0.7">
<path fill-rule="evenodd" clip-rule="evenodd" d="M100.998 3.41288C101.848 3.41288 102.537 2.72409 102.537 1.87441C102.537 1.02474 101.848 0.335938 100.998 0.335938C100.149 0.335938 99.4599 1.02474 99.4599 1.87441C99.4599 2.72409 100.149 3.41288 100.998 3.41288ZM25.0791 16.7034C26.9211 16.7034 28.4143 15.2102 28.4143 13.3682C28.4143 11.5263 26.9211 10.033 25.0791 10.033C23.2371 10.033 21.7439 11.5263 21.7439 13.3682C21.7439 15.2102 23.2371 16.7034 25.0791 16.7034ZM25.0782 14.8436C25.8931 14.8436 26.5538 14.1829 26.5538 13.3679C26.5538 12.553 25.8931 11.8923 25.0782 11.8923C24.2632 11.8923 23.6026 12.553 23.6026 13.3679C23.6026 14.1829 24.2632 14.8436 25.0782 14.8436ZM8.13884 49.262C10.6197 49.262 12.6309 47.2509 12.6309 44.77C12.6309 42.2891 10.6197 40.278 8.13884 40.278C5.65795 40.278 3.6468 42.2891 3.6468 44.77C3.6468 47.2509 5.65795 49.262 8.13884 49.262ZM8.13774 46.9178C9.32385 46.9178 10.2854 45.9563 10.2854 44.7701C10.2854 43.584 9.32385 42.6225 8.13774 42.6225C6.95163 42.6225 5.9901 43.584 5.9901 44.7701C5.9901 45.9563 6.95163 46.9178 8.13774 46.9178ZM122.187 105.785C123.954 105.785 125.385 104.353 125.385 102.587C125.385 100.821 123.954 99.3891 122.187 99.3891C120.421 99.3891 118.989 100.821 118.989 102.587C118.989 104.353 120.421 105.785 122.187 105.785ZM122.187 104.121C123.034 104.121 123.721 103.434 123.721 102.587C123.721 101.74 123.034 101.054 122.187 101.054C121.34 101.054 120.653 101.74 120.653 102.587C120.653 103.434 121.34 104.121 122.187 104.121ZM70.9973 114C101.373 114 125.997 89.376 125.997 59.0003C125.997 28.6246 101.373 4.0003 70.9973 4.0003C40.6216 4.0003 15.9973 28.6246 15.9973 59.0003C15.9973 89.376 40.6216 114 70.9973 114ZM15.9709 110.156H5.27881C5.18732 110.156 5.09662 110.152 5.00682 110.146C2.59037 110.089 0.64856 108.058 0.648438 105.562C0.64914 104.345 1.12021 103.178 1.95801 102.318C2.38746 101.877 2.89523 101.535 3.44767 101.307C3.43843 101.183 3.43373 101.058 3.43373 100.932C3.43449 99.6478 3.93155 98.4166 4.81557 97.5093C5.69958 96.6019 6.89814 96.0925 8.14756 96.0933C9.74804 96.0953 11.1611 96.9178 12.0103 98.1732C12.4136 98.0264 12.8477 97.9466 13.2999 97.9468C15.2978 97.9493 16.9387 99.5144 17.1289 101.516C19.0432 101.945 20.4757 103.697 20.474 105.793C20.4721 108.208 18.5661 110.164 16.2164 110.163C16.134 110.163 16.0521 110.161 15.9709 110.156ZM129.283 25.1H136.871C136.929 25.1033 136.987 25.1049 137.045 25.1049C138.713 25.1056 140.066 23.7718 140.067 22.1253C140.068 20.6966 139.052 19.5016 137.693 19.2092C137.558 17.8445 136.394 16.7774 134.976 16.7757C134.655 16.7755 134.347 16.8299 134.061 16.9301C133.458 16.0741 132.455 15.5133 131.319 15.5119C130.433 15.5114 129.582 15.8587 128.955 16.4773C128.327 17.096 127.974 17.9354 127.974 18.8109C127.974 18.897 127.977 18.9823 127.984 19.0667C127.592 19.2224 127.231 19.4553 126.927 19.7559C126.332 20.3423 125.998 21.1378 125.997 21.9675C125.997 23.6698 127.375 25.0544 129.09 25.093C129.154 25.0976 129.218 25.1 129.283 25.1Z" fill="#E5F9FF"/>
<path d="M62.0813 32.6449C62.7224 29.893 65.4731 28.1819 68.225 28.823L99.8678 36.1954C102.62 36.8365 104.331 39.5872 103.69 42.3391L93.9439 84.1689C93.3027 86.9209 90.5521 88.632 87.8001 87.9908L56.1574 80.6185C53.4055 79.9773 51.6943 77.2267 52.3355 74.4747L62.0813 32.6449Z" fill="white" fill-opacity="0.5"/>
<path fill-rule="evenodd" clip-rule="evenodd" d="M68.153 29.1347C67.946 29.0864 67.7391 29.0524 67.5333 29.0319L67.5967 28.3955C67.8299 28.4187 68.0641 28.4573 68.2982 28.5118L68.9067 28.6536L68.7616 29.2764L68.153 29.1347ZM71.1956 29.8435L69.9786 29.56L70.1237 28.9371L71.3407 29.2207L71.1956 29.8435ZM73.6297 30.4106L72.4126 30.1271L72.5578 29.5042L73.7748 29.7878L73.6297 30.4106ZM76.0637 30.9777L74.8467 30.6942L74.9918 30.0713L76.2088 30.3549L76.0637 30.9777ZM78.4978 31.5448L77.2808 31.2613L77.4259 30.6384L78.6429 30.922L78.4978 31.5448ZM80.9318 32.1119L79.7148 31.8284L79.8599 31.2055L81.077 31.4891L80.9318 32.1119ZM83.3659 32.679L82.1489 32.3955L82.294 31.7726L83.511 32.0562L83.3659 32.679ZM85.8 33.2462L84.5829 32.9626L84.7281 32.3397L85.9451 32.6233L85.8 33.2462ZM88.234 33.8133L87.017 33.5297L87.1621 32.9068L88.3791 33.1904L88.234 33.8133ZM90.6681 34.3804L89.451 34.0968L89.5962 33.474L90.8132 33.7575L90.6681 34.3804ZM93.1021 34.9475L91.8851 34.6639L92.0302 34.0411L93.2473 34.3246L93.1021 34.9475ZM95.5362 35.5146L94.3192 35.231L94.4643 34.6082L95.6813 34.8917L95.5362 35.5146ZM97.9702 36.0817L96.7532 35.7981L96.8983 35.1753L98.1154 35.4588L97.9702 36.0817ZM99.7958 36.507L99.1873 36.3652L99.3324 35.7424L99.9409 35.8841C100.175 35.9387 100.402 36.0076 100.622 36.0899L100.397 36.6887C100.204 36.6162 100.003 36.5552 99.7958 36.507ZM66.2824 29.0724C65.8661 29.1414 65.4636 29.2649 65.0845 29.4371L64.8201 28.8548C65.2495 28.6598 65.7057 28.5197 66.1779 28.4415L66.2824 29.0724ZM102.415 38.1345C102.151 37.8125 101.844 37.5238 101.501 37.2779L101.874 36.7582C102.263 37.037 102.61 37.3643 102.909 37.729L102.415 38.1345ZM64.0208 30.0988C63.6988 30.3628 63.4101 30.6692 63.1642 31.0122L62.6445 30.6395C62.9233 30.2506 63.2506 29.9032 63.6153 29.6042L64.0208 30.0988ZM103.441 40.3961C103.372 39.9799 103.249 39.5773 103.076 39.1982L103.659 38.9338C103.854 39.3632 103.994 39.8194 104.072 40.2916L103.441 40.3961ZM62.575 32.1164C62.5024 32.31 62.4415 32.5106 62.3933 32.7177L62.25 33.3328L61.6271 33.1877L61.7704 32.5726C61.825 32.3385 61.8939 32.1113 61.9762 31.8919L62.575 32.1164ZM103.379 42.2668C103.427 42.0597 103.461 41.8528 103.482 41.647L104.118 41.7104C104.095 41.9436 104.056 42.1778 104.002 42.4119L103.858 43.027L103.236 42.8819L103.379 42.2668ZM61.9633 34.5631L61.6767 35.7934L61.0538 35.6483L61.3405 34.418L61.9633 34.5631ZM102.662 45.3425L102.949 44.1122L103.572 44.2573L103.285 45.4876L102.662 45.3425ZM61.39 37.0237L61.1034 38.254L60.4805 38.1089L60.7672 36.8786L61.39 37.0237ZM102.089 47.8031L102.376 46.5728L102.998 46.7179L102.712 47.9482L102.089 47.8031ZM60.8168 39.4843L60.5301 40.7146L59.9073 40.5694L60.1939 39.3391L60.8168 39.4843ZM101.516 50.2636L101.802 49.0333L102.425 49.1785L102.139 50.4088L101.516 50.2636ZM60.2435 41.9448L59.9568 43.1751L59.334 43.03L59.6206 41.7997L60.2435 41.9448ZM100.942 52.7242L101.229 51.4939L101.852 51.639L101.565 52.8693L100.942 52.7242ZM59.6702 44.4054L59.3836 45.6357L58.7607 45.4906L59.0473 44.2603L59.6702 44.4054ZM100.369 55.1848L100.656 53.9545L101.279 54.0996L100.992 55.3299L100.369 55.1848ZM59.0969 46.866L58.8103 48.0963L58.1874 47.9512L58.4741 46.7209L59.0969 46.866ZM99.7958 57.6454L100.082 56.4151L100.705 56.5602L100.419 57.7905L99.7958 57.6454ZM58.5236 49.3266L58.237 50.5569L57.6141 50.4117L57.9008 49.1815L58.5236 49.3266ZM99.2225 60.1059L99.5092 58.8757L100.132 59.0208L99.8454 60.2511L99.2225 60.1059ZM57.9503 51.7871L57.6637 53.0174L57.0409 52.8723L57.3275 51.642L57.9503 51.7871ZM98.6493 62.5665L98.9359 61.3362L99.5588 61.4813L99.2721 62.7116L98.6493 62.5665ZM57.3771 54.2477L57.0904 55.478L56.4676 55.3329L56.7542 54.1026L57.3771 54.2477ZM98.076 65.0271L98.3626 63.7968L98.9855 63.9419L98.6988 65.1722L98.076 65.0271ZM56.8038 56.7083L56.5171 57.9386L55.8943 57.7935L56.1809 56.5632L56.8038 56.7083ZM97.5027 67.4877L97.7893 66.2574L98.4122 66.4025L98.1256 67.6328L97.5027 67.4877ZM56.2305 59.1689L55.9439 60.3992L55.321 60.2541L55.6077 59.0238L56.2305 59.1689ZM96.9294 69.9483L97.2161 68.718L97.8389 68.8631L97.5523 70.0934L96.9294 69.9483ZM55.6572 61.6295L55.3706 62.8597L54.7477 62.7146L55.0344 61.4843L55.6572 61.6295ZM96.3561 72.4088L96.6428 71.1785L97.2656 71.3237L96.979 72.5539L96.3561 72.4088ZM55.0839 64.09L54.7973 65.3203L54.1745 65.1752L54.4611 63.9449L55.0839 64.09ZM95.7829 74.8694L96.0695 73.6391L96.6924 73.7842L96.4057 75.0145L95.7829 74.8694ZM54.5107 66.5506L54.224 67.7809L53.6012 67.6358L53.8878 66.4055L54.5107 66.5506ZM95.2096 77.33L95.4962 76.0997L96.1191 76.2448L95.8324 77.4751L95.2096 77.33ZM53.9374 69.0112L53.6507 70.2415L53.0279 70.0964L53.3145 68.8661L53.9374 69.0112ZM94.6363 79.7906L94.9229 78.5603L95.5458 78.7054L95.2591 79.9357L94.6363 79.7906ZM53.3641 71.4718L53.0775 72.7021L52.4546 72.5569L52.7413 71.3267L53.3641 71.4718ZM94.063 82.2511L94.3497 81.0208L94.9725 81.166L94.6859 82.3963L94.063 82.2511ZM52.7908 73.9323L52.6475 74.5475C52.5993 74.7546 52.5652 74.9615 52.5448 75.1672L51.9084 75.1039C51.9316 74.8707 51.9701 74.6365 52.0247 74.4024L52.168 73.7872L52.7908 73.9323ZM93.6331 84.0966L93.7764 83.4814L94.3992 83.6265L94.2559 84.2417C94.2014 84.4758 94.1324 84.7029 94.0502 84.9223L93.4513 84.6979C93.5239 84.5043 93.5848 84.3036 93.6331 84.0966ZM52.5853 76.4181C52.6542 76.8344 52.7777 77.2369 52.9499 77.616L52.3676 77.8805C52.1726 77.4511 52.0326 76.9948 51.9543 76.5227L52.5853 76.4181ZM92.0055 86.7154C92.3276 86.4515 92.6163 86.145 92.8621 85.8021L93.3819 86.1747C93.103 86.5637 92.7757 86.911 92.411 87.21L92.0055 86.7154ZM53.6117 78.6798C53.8756 79.0018 54.1821 79.2905 54.525 79.5363L54.1524 80.0561C53.7634 79.7772 53.4161 79.4499 53.1171 79.0852L53.6117 78.6798ZM89.7439 87.7418C90.1602 87.6729 90.5627 87.5493 90.9418 87.3772L91.2063 87.9595C90.7769 88.1545 90.3206 88.2945 89.8485 88.3728L89.7439 87.7418ZM55.6292 80.1255C55.8228 80.1981 56.0235 80.259 56.2305 80.3073L56.8391 80.449L56.6939 81.0719L56.0854 80.9301C55.8513 80.8756 55.6242 80.8066 55.4048 80.7244L55.6292 80.1255ZM87.8733 87.6796C88.0804 87.7278 88.2873 87.7619 88.493 87.7823L88.4297 88.4187C88.1965 88.3955 87.9622 88.357 87.7282 88.3024L87.1197 88.1607L87.2648 87.5378L87.8733 87.6796ZM58.0561 80.7326L59.2731 81.0161L59.128 81.639L57.911 81.3554L58.0561 80.7326ZM60.4901 81.2997L61.7072 81.5832L61.5621 82.2061L60.345 81.9225L60.4901 81.2997ZM62.9242 81.8668L64.1412 82.1503L63.9961 82.7732L62.7791 82.4896L62.9242 81.8668ZM65.3582 82.4339L66.5753 82.7174L66.4302 83.3403L65.2131 83.0567L65.3582 82.4339ZM67.7923 83.001L69.0093 83.2845L68.8642 83.9074L67.6472 83.6238L67.7923 83.001ZM70.2264 83.5681L71.4434 83.8516L71.2983 84.4745L70.0812 84.1909L70.2264 83.5681ZM72.6604 84.1352L73.8775 84.4187L73.7323 85.0416L72.5153 84.758L72.6604 84.1352ZM75.0945 84.7023L76.3115 84.9858L76.1664 85.6087L74.9494 85.3252L75.0945 84.7023ZM77.5285 85.2694L78.7456 85.553L78.6005 86.1758L77.3834 85.8923L77.5285 85.2694ZM79.9626 85.8365L81.1796 86.1201L81.0345 86.7429L79.8175 86.4594L79.9626 85.8365ZM82.3967 86.4036L83.6137 86.6872L83.4686 87.31L82.2515 87.0265L82.3967 86.4036ZM84.8307 86.9707L86.0477 87.2543L85.9026 87.8771L84.6856 87.5936L84.8307 86.9707Z" fill="#2FC6F6"/>
<path d="M38.4297 54.5337C37.6983 51.8044 39.3181 48.9989 42.0474 48.2676L73.4306 39.8585C76.1599 39.1272 78.9654 40.7469 79.6967 43.4763L89.4053 79.7091C90.1366 82.4385 88.5169 85.2439 85.7875 85.9752L54.4044 94.3843C51.675 95.1157 48.8695 93.4959 48.1382 90.7666L38.4297 54.5337Z" fill="white" fill-opacity="0.5"/>
<path fill-rule="evenodd" clip-rule="evenodd" d="M42.1312 48.576C41.9258 48.6311 41.7273 48.6986 41.5362 48.7774L41.2921 48.1863C41.5088 48.0969 41.7335 48.0205 41.9657 47.9583L42.5692 47.7966L42.7347 48.4143L42.1312 48.576ZM45.1488 47.7675L43.9418 48.0909L43.7762 47.4731L44.9833 47.1497L45.1488 47.7675ZM47.5629 47.1206L46.3558 47.444L46.1903 46.8263L47.3974 46.5029L47.5629 47.1206ZM49.977 46.4738L48.7699 46.7972L48.6044 46.1794L49.8114 45.856L49.977 46.4738ZM52.3911 45.8269L51.184 46.1503L51.0185 45.5326L52.2255 45.2092L52.3911 45.8269ZM54.8052 45.18L53.5981 45.5035L53.4326 44.8857L54.6396 44.5623L54.8052 45.18ZM57.2192 44.5332L56.0122 44.8566L55.8467 44.2389L57.0537 43.9154L57.2192 44.5332ZM59.6333 43.8863L58.4263 44.2098L58.2608 43.592L59.4678 43.2686L59.6333 43.8863ZM62.0474 43.2395L60.8404 43.5629L60.6749 42.9452L61.8819 42.6217L62.0474 43.2395ZM64.4615 42.5926L63.2545 42.9161L63.0889 42.2983L64.296 41.9749L64.4615 42.5926ZM66.8756 41.9458L65.6685 42.2692L65.503 41.6515L66.7101 41.328L66.8756 41.9458ZM69.2897 41.2989L68.0826 41.6224L67.9171 41.0046L69.1242 40.6812L69.2897 41.2989ZM71.7038 40.6521L70.4967 40.9755L70.3312 40.3578L71.5382 40.0343L71.7038 40.6521ZM73.5143 40.1669L72.9108 40.3286L72.7453 39.7109L73.3488 39.5492C73.581 39.487 73.8138 39.4408 74.0461 39.4099L74.1303 40.0439C73.9254 40.0711 73.7197 40.1119 73.5143 40.1669ZM40.452 49.4026C40.1173 49.6596 39.8205 49.9583 39.5673 50.2888L39.0596 49.8998C39.3464 49.5255 39.6828 49.1869 40.0624 48.8954L40.452 49.4026ZM76.5912 40.3683C76.2066 40.2086 75.8002 40.0984 75.3819 40.0432L75.4656 39.4092C75.9401 39.4718 76.4007 39.5968 76.8363 39.7776L76.5912 40.3683ZM38.9409 51.3737C38.7813 51.7583 38.671 52.1646 38.6158 52.583L37.9818 52.4992C38.0444 52.0247 38.1694 51.5642 38.3502 51.1286L38.9409 51.3737ZM78.5622 41.8793C78.3052 41.5447 78.0066 41.2479 77.6761 40.9946L78.065 40.487C78.4394 40.7738 78.7779 41.1102 79.0694 41.4898L78.5622 41.8793ZM38.6165 53.8345C38.6437 54.0395 38.6845 54.2452 38.7395 54.4505L38.9013 55.0544L38.2836 55.2199L38.1218 54.616C38.0596 54.3839 38.0134 54.1511 37.9825 53.9187L38.6165 53.8345ZM79.3888 43.5586C79.3338 43.3532 79.2663 43.1547 79.1874 42.9636L79.7786 42.7195C79.868 42.9361 79.9444 43.1609 80.0066 43.3931L80.1684 43.9969L79.5507 44.1625L79.3888 43.5586ZM39.225 56.2622L39.5486 57.4699L38.9308 57.6354L38.6072 56.4277L39.225 56.2622ZM80.1979 46.578L79.8743 45.3702L80.492 45.2047L80.8156 46.4125L80.1979 46.578ZM39.8722 58.6777L40.1958 59.8854L39.5781 60.051L39.2545 58.8432L39.8722 58.6777ZM80.8451 48.9935L80.5215 47.7857L81.1393 47.6202L81.4629 48.828L80.8451 48.9935ZM40.5194 61.0932L40.8431 62.301L40.2253 62.4665L39.9017 61.2587L40.5194 61.0932ZM81.4924 51.409L81.1687 50.2013L81.7865 50.0357L82.1101 51.2435L81.4924 51.409ZM41.1667 63.5087L41.4903 64.7165L40.8726 64.882L40.5489 63.6743L41.1667 63.5087ZM82.1396 53.8245L81.816 52.6168L82.4337 52.4513L82.7573 53.659L82.1396 53.8245ZM41.8139 65.9243L42.1375 67.132L41.5198 67.2975L41.1962 66.0898L41.8139 65.9243ZM82.7868 56.2401L82.4632 55.0323L83.081 54.8668L83.4046 56.0745L82.7868 56.2401ZM42.4612 68.3398L42.7848 69.5475L42.167 69.7131L41.8434 68.5053L42.4612 68.3398ZM83.4341 58.6556L83.1105 57.4478L83.7282 57.2823L84.0518 58.4901L83.4341 58.6556ZM43.1084 70.7553L43.432 71.9631L42.8143 72.1286L42.4906 70.9208L43.1084 70.7553ZM84.0813 61.0711L83.7577 59.8634L84.3754 59.6978L84.6991 60.9056L84.0813 61.0711ZM84.7286 63.4866L84.4049 62.2789L85.0227 62.1134L85.3463 63.3211L84.7286 63.4866ZM43.7556 73.1708L44.0792 74.3786L43.4615 74.5441L43.1379 73.3364L43.7556 73.1708ZM44.4029 75.5864L44.7265 76.7941L44.1087 76.9596L43.7851 75.7519L44.4029 75.5864ZM85.3758 65.9022L85.0522 64.6944L85.6699 64.5289L85.9935 65.7366L85.3758 65.9022ZM45.0501 78.0019L45.3737 79.2096L44.756 79.3752L44.4324 78.1674L45.0501 78.0019ZM86.023 68.3177L85.6994 67.1099L86.3172 66.9444L86.6408 68.1522L86.023 68.3177ZM45.6973 80.4174L46.021 81.6252L45.4032 81.7907L45.0796 80.5829L45.6973 80.4174ZM86.6703 70.7332L86.3466 69.5254L86.9644 69.3599L87.288 70.5677L86.6703 70.7332ZM46.3446 82.8329L46.6682 84.0407L46.0505 84.2062L45.7268 82.9984L46.3446 82.8329ZM87.3175 73.1487L86.9939 71.941L87.6116 71.7754L87.9352 72.9832L87.3175 73.1487ZM46.9918 85.2484L47.3154 86.4562L46.6977 86.6217L46.3741 85.414L46.9918 85.2484ZM87.9647 75.5643L87.6411 74.3565L88.2589 74.191L88.5825 75.3987L87.9647 75.5643ZM47.6391 87.664L47.9627 88.8717L47.3449 89.0372L47.0213 87.8295L47.6391 87.664ZM88.612 77.9798L88.2884 76.772L88.9061 76.6065L89.2297 77.8143L88.612 77.9798ZM48.2863 90.0795L48.4481 90.6834C48.5031 90.8887 48.5706 91.0873 48.6495 91.2784L48.0584 91.5224C47.969 91.3058 47.8926 91.081 47.8304 90.8489L47.6685 90.245L48.2863 90.0795ZM89.0974 79.7914L88.9356 79.1875L89.5533 79.022L89.7151 79.6259C89.7774 79.8581 89.8236 80.0909 89.8544 80.3232L89.2205 80.4074C89.1932 80.2025 89.1524 79.9968 89.0974 79.7914ZM49.2747 92.3626C49.5317 92.6973 49.8303 92.9941 50.1609 93.2473L49.7719 93.755C49.3975 93.4681 49.059 93.1317 48.7675 92.7521L49.2747 92.3626ZM88.8961 82.8682C89.0557 82.4837 89.1659 82.0773 89.2211 81.659L89.8552 81.7427C89.7925 82.2172 89.6675 82.6778 89.4867 83.1134L88.8961 82.8682ZM51.2458 93.8737C51.6304 94.0333 52.0367 94.1435 52.455 94.1988L52.3713 94.8328C51.8968 94.7701 51.4362 94.6452 51.0006 94.4644L51.2458 93.8737ZM87.385 84.8393C87.7196 84.5823 88.0164 84.2837 88.2697 83.9532L88.7773 84.3421C88.4905 84.7165 88.1541 85.055 87.7745 85.3465L87.385 84.8393ZM53.7066 94.1981C53.9116 94.1708 54.1172 94.13 54.3226 94.075L54.9261 93.9133L55.0917 94.531L54.4881 94.6928C54.256 94.755 54.0231 94.8012 53.7908 94.832L53.7066 94.1981ZM85.7058 85.6659C85.9111 85.6109 86.1097 85.5434 86.3008 85.4645L86.5448 86.0556C86.3282 86.1451 86.1034 86.2215 85.8713 86.2837L85.2678 86.4454L85.1022 85.8276L85.7058 85.6659ZM56.1332 93.5899L57.3402 93.2664L57.5057 93.8842L56.2987 94.2076L56.1332 93.5899ZM58.5473 92.943L59.7543 92.6196L59.9198 93.2373L58.7128 93.5608L58.5473 92.943ZM60.9613 92.2962L62.1684 91.9727L62.3339 92.5905L61.1269 92.9139L60.9613 92.2962ZM63.3754 91.6493L64.5825 91.3259L64.748 91.9436L63.541 92.2671L63.3754 91.6493ZM65.7895 91.0025L66.9966 90.679L67.1621 91.2968L65.955 91.6202L65.7895 91.0025ZM68.2036 90.3556L69.4107 90.0322L69.5762 90.6499L68.3691 90.9733L68.2036 90.3556ZM70.6177 89.7088L71.8247 89.3853L71.9903 90.0031L70.7832 90.3265L70.6177 89.7088ZM73.0318 89.0619L74.2388 88.7385L74.4044 89.3562L73.1973 89.6796L73.0318 89.0619ZM75.4459 88.415L76.6529 88.0916L76.8184 88.7094L75.6114 89.0328L75.4459 88.415ZM77.86 87.7682L79.067 87.4448L79.2325 88.0625L78.0255 88.3859L77.86 87.7682ZM80.2741 87.1213L81.4811 86.7979L81.6466 87.4157L80.4396 87.7391L80.2741 87.1213ZM82.6881 86.4745L83.8952 86.1511L84.0607 86.7688L82.8537 87.0922L82.6881 86.4745Z" fill="#2FC6F6"/>
<g filter="url(#filter0_d_1564_70772)">
<path d="M45.4219 30.8597C45.4219 28.7404 47.1399 27.0225 49.2591 27.0225H92.7475C94.8667 27.0225 96.5847 28.7404 96.5847 30.8597V87.7783C96.5847 89.8975 94.8667 91.6155 92.7475 91.6155H49.2591C47.1399 91.6155 45.4219 89.8975 45.4219 87.7783V30.8597Z" fill="#2FC6F6"/>
</g>
<g filter="url(#filter1_d_1564_70772)">
<path d="M46.6992 30.2202C46.6992 28.8074 47.8445 27.6621 49.2574 27.6621H92.7457C94.1586 27.6621 95.3039 28.8074 95.3039 30.2202V87.7784C95.3039 89.1912 94.1586 90.3365 92.7457 90.3365H49.2574C47.8445 90.3365 46.6992 89.1912 46.6992 87.7784V30.2202Z" fill="white"/>
</g>
<g filter="url(#filter2_d_1564_70772)">
<path fill-rule="evenodd" clip-rule="evenodd" d="M92.7457 28.3016H49.2574C48.1977 28.3016 47.3388 29.1606 47.3388 30.2202V87.7784C47.3388 88.838 48.1977 89.697 49.2574 89.697H92.7457C93.8053 89.697 94.6643 88.838 94.6643 87.7784V30.2202C94.6643 29.1606 93.8053 28.3016 92.7457 28.3016ZM49.2574 27.6621C47.8445 27.6621 46.6992 28.8074 46.6992 30.2202V87.7784C46.6992 89.1912 47.8445 90.3365 49.2574 90.3365H92.7457C94.1586 90.3365 95.3039 89.1912 95.3039 87.7784V30.2202C95.3039 28.8074 94.1586 27.6621 92.7457 27.6621H49.2574Z" fill="#7FDEFC"/>
</g>
<g filter="url(#filter3_d_1564_70772)">
<path d="M46.6992 30.2202C46.6992 28.8074 47.8445 27.6621 49.2574 27.6621H71.0015H81.8736H92.7457C94.1586 27.6621 95.3039 28.8074 95.3039 30.2202V37.0952V43.9702V57.7202V85.2202C95.3039 86.6331 94.1586 87.7784 92.7457 87.7784H49.2574C47.8445 87.7784 46.6992 86.6331 46.6992 85.2202V30.2202Z" fill="white"/>
</g>
<g filter="url(#filter4_d_1564_70772)">
<path fill-rule="evenodd" clip-rule="evenodd" d="M92.7457 28.3016H49.2574C48.1977 28.3016 47.3388 29.1606 47.3388 30.2202V85.2202C47.3388 86.2799 48.1977 87.1389 49.2574 87.1389H92.7457C93.8053 87.1389 94.6643 86.2799 94.6643 85.2202V30.2202C94.6643 29.1606 93.8053 28.3016 92.7457 28.3016ZM49.2574 27.6621C47.8445 27.6621 46.6992 28.8074 46.6992 30.2202V85.2202C46.6992 86.6331 47.8445 87.7784 49.2574 87.7784H92.7457C94.1586 87.7784 95.3039 86.6331 95.3039 85.2202V30.2202C95.3039 28.8074 94.1586 27.6621 92.7457 27.6621H49.2574Z" fill="#2FC6F6"/>
</g>
<path d="M52.457 40.4519C52.457 39.7455 53.0297 39.1729 53.7361 39.1729H85.7128C86.4193 39.1729 86.9919 39.7455 86.9919 40.4519C86.9919 41.1583 86.4193 41.731 85.7128 41.731H53.7361C53.0297 41.731 52.457 41.1583 52.457 40.4519Z" fill="#C3F0FF"/>
<path d="M52.457 46.8474C52.457 46.141 53.0297 45.5684 53.7361 45.5684H85.7128C86.4193 45.5684 86.9919 46.141 86.9919 46.8474C86.9919 47.5538 86.4193 48.1265 85.7128 48.1265H53.7361C53.0297 48.1265 52.457 47.5538 52.457 46.8474Z" fill="#C3F0FF"/>
<path d="M52.457 53.2429C52.457 52.5365 53.0297 51.9639 53.7361 51.9639H65.2477C65.9541 51.9639 66.5268 52.5365 66.5268 53.2429C66.5268 53.9493 65.9541 54.522 65.2477 54.522H53.7361C53.0297 54.522 52.457 53.9493 52.457 53.2429Z" fill="#C3F0FF"/>
<path d="M52.457 59.6384C52.457 58.932 53.0297 58.3594 53.7361 58.3594H81.8756C82.582 58.3594 83.1547 58.932 83.1547 59.6384C83.1547 60.3449 82.582 60.9175 81.8756 60.9175H53.7361C53.0297 60.9175 52.457 60.3449 52.457 59.6384Z" fill="#C3F0FF"/>
<path d="M52.457 66.033C52.457 65.3266 53.0297 64.7539 53.7361 64.7539H67.8059C68.5123 64.7539 69.0849 65.3266 69.0849 66.033C69.0849 66.7394 68.5123 67.312 67.8059 67.312H53.7361C53.0297 67.312 52.457 66.7394 52.457 66.033Z" fill="#C3F0FF"/>
<path d="M52.457 80.1033C52.457 79.3969 53.0297 78.8242 53.7361 78.8242H71.6431C72.3495 78.8242 72.9221 79.3969 72.9221 80.1033C72.9221 80.8097 72.3495 81.3824 71.6431 81.3824H53.7361C53.0297 81.3824 52.457 80.8097 52.457 80.1033Z" fill="#C3F0FF"/>
</g>
<g filter="url(#filter5_d_1564_70772)">
<path d="M93.5429 59.2777C96.0823 55.2225 102.141 55.2225 104.68 59.2777L121.814 86.6379C124.457 90.8584 121.33 96.2632 116.245 96.2632H81.9779C76.8931 96.2632 73.7662 90.8584 76.4092 86.6379L93.5429 59.2777Z" fill="white"/>
</g>
<path fill-rule="evenodd" clip-rule="evenodd" d="M121.118 87.0494L103.984 59.6892C101.762 56.1409 96.461 56.1409 94.2389 59.6892L77.1053 87.0494C74.7926 90.7423 77.5287 95.4715 81.9779 95.4715H116.245C120.694 95.4715 123.431 90.7423 121.118 87.0494ZM104.68 59.2777C102.141 55.2225 96.0823 55.2225 93.5429 59.2777L76.4092 86.6379C73.7662 90.8584 76.8931 96.2632 81.9779 96.2632H116.245C121.33 96.2632 124.457 90.8584 121.814 86.6379L104.68 59.2777Z" fill="#FFE1A6"/>
<path fill-rule="evenodd" clip-rule="evenodd" d="M116.061 87.0667L101.547 63.542C100.429 61.736 97.7641 61.736 96.6697 63.542L82.1562 87.0667C81.0142 88.9191 82.3941 91.2577 84.6068 91.2577H113.634C115.823 91.2577 117.203 88.9191 116.061 87.0667ZM97.0266 71.7386C97.0266 70.6967 97.8831 69.8631 98.9538 69.8631H99.2155C100.286 69.8631 101.143 70.6967 101.143 71.7386V78.7544C101.143 79.7963 100.286 80.6299 99.2155 80.6299H98.9538C97.8831 80.6299 97.0266 79.7963 97.0266 78.7544V71.7386ZM101.523 85.3533C101.523 86.65 100.429 87.7151 99.0965 87.7151C97.7641 87.7151 96.6697 86.65 96.6697 85.3533C96.6697 84.0567 97.7641 82.9916 99.0965 82.9916C100.429 82.9916 101.523 84.0567 101.523 85.3533Z" fill="#FFC34D"/>
<defs>
<filter id="filter0_d_1564_70772" x="41.241" y="24.932" width="59.5257" height="72.9544" filterUnits="userSpaceOnUse" color-interpolation-filters="sRGB">
<feFlood flood-opacity="0" result="BackgroundImageFix"/>
<feColorMatrix in="SourceAlpha" type="matrix" values="0 0 0 0 0 0 0 0 0 0 0 0 0 0 0 0 0 0 127 0" result="hardAlpha"/>
<feOffset dy="2.09042"/>
<feGaussianBlur stdDeviation="2.09042"/>
<feComposite in2="hardAlpha" operator="out"/>
<feColorMatrix type="matrix" values="0 0 0 0 0.392157 0 0 0 0 0.427451 0 0 0 0 0.482353 0 0 0 0.1 0"/>
<feBlend mode="normal" in2="BackgroundImageFix" result="effect1_dropShadow_1564_70772"/>
<feBlend mode="normal" in="SourceGraphic" in2="effect1_dropShadow_1564_70772" result="shape"/>
</filter>
<filter id="filter1_d_1564_70772" x="39.319" y="21.7336" width="63.3659" height="77.4353" filterUnits="userSpaceOnUse" color-interpolation-filters="sRGB">
<feFlood flood-opacity="0" result="BackgroundImageFix"/>
<feColorMatrix in="SourceAlpha" type="matrix" values="0 0 0 0 0 0 0 0 0 0 0 0 0 0 0 0 0 0 127 0" result="hardAlpha"/>
<feOffset dy="1.45174"/>
<feGaussianBlur stdDeviation="3.69012"/>
<feComposite in2="hardAlpha" operator="out"/>
<feColorMatrix type="matrix" values="0 0 0 0 0.392157 0 0 0 0 0.427451 0 0 0 0 0.482353 0 0 0 0.16 0"/>
<feBlend mode="normal" in2="BackgroundImageFix" result="effect1_dropShadow_1564_70772"/>
<feBlend mode="normal" in="SourceGraphic" in2="effect1_dropShadow_1564_70772" result="shape"/>
</filter>
<filter id="filter2_d_1564_70772" x="39.319" y="21.7336" width="63.3659" height="77.4353" filterUnits="userSpaceOnUse" color-interpolation-filters="sRGB">
<feFlood flood-opacity="0" result="BackgroundImageFix"/>
<feColorMatrix in="SourceAlpha" type="matrix" values="0 0 0 0 0 0 0 0 0 0 0 0 0 0 0 0 0 0 127 0" result="hardAlpha"/>
<feOffset dy="1.45174"/>
<feGaussianBlur stdDeviation="3.69012"/>
<feComposite in2="hardAlpha" operator="out"/>
<feColorMatrix type="matrix" values="0 0 0 0 0.392157 0 0 0 0 0.427451 0 0 0 0 0.482353 0 0 0 0.16 0"/>
<feBlend mode="normal" in2="BackgroundImageFix" result="effect1_dropShadow_1564_70772"/>
<feBlend mode="normal" in="SourceGraphic" in2="effect1_dropShadow_1564_70772" result="shape"/>
</filter>
<filter id="filter3_d_1564_70772" x="39.319" y="21.7336" width="63.3659" height="74.8767" filterUnits="userSpaceOnUse" color-interpolation-filters="sRGB">
<feFlood flood-opacity="0" result="BackgroundImageFix"/>
<feColorMatrix in="SourceAlpha" type="matrix" values="0 0 0 0 0 0 0 0 0 0 0 0 0 0 0 0 0 0 127 0" result="hardAlpha"/>
<feOffset dy="1.45174"/>
<feGaussianBlur stdDeviation="3.69012"/>
<feComposite in2="hardAlpha" operator="out"/>
<feColorMatrix type="matrix" values="0 0 0 0 0.392157 0 0 0 0 0.427451 0 0 0 0 0.482353 0 0 0 0.16 0"/>
<feBlend mode="normal" in2="BackgroundImageFix" result="effect1_dropShadow_1564_70772"/>
<feBlend mode="normal" in="SourceGraphic" in2="effect1_dropShadow_1564_70772" result="shape"/>
</filter>
<filter id="filter4_d_1564_70772" x="39.319" y="21.7336" width="63.3659" height="74.8767" filterUnits="userSpaceOnUse" color-interpolation-filters="sRGB">
<feFlood flood-opacity="0" result="BackgroundImageFix"/>
<feColorMatrix in="SourceAlpha" type="matrix" values="0 0 0 0 0 0 0 0 0 0 0 0 0 0 0 0 0 0 127 0" result="hardAlpha"/>
<feOffset dy="1.45174"/>
<feGaussianBlur stdDeviation="3.69012"/>
<feComposite in2="hardAlpha" operator="out"/>
<feColorMatrix type="matrix" values="0 0 0 0 0.392157 0 0 0 0 0.427451 0 0 0 0 0.482353 0 0 0 0.16 0"/>
<feBlend mode="normal" in2="BackgroundImageFix" result="effect1_dropShadow_1564_70772"/>
<feBlend mode="normal" in="SourceGraphic" in2="effect1_dropShadow_1564_70772" result="shape"/>
</filter>
<filter id="filter5_d_1564_70772" x="71.7011" y="55.6116" width="54.8205" height="47.5236" filterUnits="userSpaceOnUse" color-interpolation-filters="sRGB">
<feFlood flood-opacity="0" result="BackgroundImageFix"/>
<feColorMatrix in="SourceAlpha" type="matrix" values="0 0 0 0 0 0 0 0 0 0 0 0 0 0 0 0 0 0 127 0" result="hardAlpha"/>
<feOffset dy="3.12346"/>
<feGaussianBlur stdDeviation="1.87407"/>
<feComposite in2="hardAlpha" operator="out"/>
<feColorMatrix type="matrix" values="0 0 0 0 0.741667 0 0 0 0 0.491667 0 0 0 0 0 0 0 0 0.16 0"/>
<feBlend mode="normal" in2="BackgroundImageFix" result="effect1_dropShadow_1564_70772"/>
<feBlend mode="normal" in="SourceGraphic" in2="effect1_dropShadow_1564_70772" result="shape"/>
</filter>
</defs>
</svg>
