<svg width="6px" height="14px" viewBox="0 0 6 14" version="1.1" xmlns="http://www.w3.org/2000/svg" xmlns:xlink="http://www.w3.org/1999/xlink">
    <g id="Page-1" stroke="none" stroke-width="1" fill="none" fill-rule="evenodd" opacity="0.5">
        <g id="Автоматизация-3" transform="translate(-280.000000, -98.000000)" fill="#828B95">
            <g id="01" transform="translate(271.000000, 93.000000)">
                <g id="Group-2">
                    <g id="Icons-/-·-Set-5-/-Icon-10">
                        <path d="M9,5 L11,5 L11,7 L9,7 L9,5 Z M13,5 L15,5 L15,7 L13,7 L13,5 Z M9,9 L11,9 L11,11 L9,11 L9,9 Z M13,9 L15,9 L15,11 L13,11 L13,9 Z M9,13 L11,13 L11,15 L9,15 L9,13 Z M13,13 L15,13 L15,15 L13,15 L13,13 Z M9,17 L11,17 L11,19 L9,19 L9,17 Z M13,17 L15,17 L15,19 L13,19 L13,17 Z" id="Combined-Shape"></path>
                    </g>
                </g>
            </g>
        </g>
    </g>
</svg>