<svg width="17px" height="15px" viewBox="0 0 17 15" version="1.1" xmlns="http://www.w3.org/2000/svg" xmlns:xlink="http://www.w3.org/1999/xlink">
    <g id="Page-1" stroke="none" stroke-width="1" fill="none" fill-rule="evenodd">
        <g id="Автоматизация-1" transform="translate(-421.000000, -278.000000)" fill="#3BC8F5">
            <g id="Icons-/-·-Set-CRM-/-Icon-3-bot" transform="translate(417.000000, 271.500000)">
                <path d="M17.4566028,10.4012545 L18.3314854,7.46295079 C18.4077144,7.20748243 18.3434148,6.93028362 18.1628075,6.73577246 C17.9822003,6.5412613 17.7127239,6.45898866 17.4558876,6.51994586 C17.1990513,6.58090305 16.9938746,6.77582922 16.9176456,7.03129758 L16.1682736,9.553631 C13.8385397,8.32364433 11.0608102,8.32657405 8.73361719,9.56147245 L7.98055368,7.03129758 C7.86271379,6.63637772 7.45068687,6.41286078 7.06026578,6.53205853 C6.6698447,6.65125627 6.44887398,7.06803093 6.56671387,7.46295079 L7.44528796,10.41283 C5.47230837,12.0080033 4.32652607,14.4264736 4.33336376,16.9813522 C4.33336376,21.5921254 7.96947922,20.460716 12.4583283,20.460716 C16.9471775,20.460716 20.5832929,21.5921254 20.5832929,16.9813522 C20.591196,14.4196264 19.4391864,11.9952303 17.4566028,10.4012545 Z M12.4509454,16.3547829 C9.24673399,16.3547829 6.6479266,16.6908451 6.6479266,15.3170975 C6.6479266,13.94335 9.24673399,12.8279969 12.4509454,12.8279969 C15.6551568,12.8279969 18.2576556,13.9422298 18.2576556,15.3170975 C18.2576556,16.6919653 15.6588482,16.3547829 12.4509454,16.3547829 Z M9.79676567,13.857094 C9.3392926,13.941616 9.02598227,14.3718366 9.08180767,14.8388352 C9.13763307,15.3058338 9.54328908,15.6481165 10.0074937,15.6199066 C10.4716984,15.5916967 10.8339239,15.2027496 10.8340737,14.7323493 C10.7822485,14.203213 10.3206865,13.8137582 9.79676567,13.857094 Z M14.3889358,14.8411225 C14.4458061,15.3080413 14.852033,15.6495902 15.3162508,15.6207938 C15.7804686,15.5919973 16.1423925,15.2027984 16.1424331,14.7323493 C16.0906227,14.2016358 15.6267318,13.8116039 15.1014336,13.857094 C14.6441878,13.9431325 14.3320655,14.3742038 14.3889358,14.8411225 Z" id="Icon"></path>
            </g>
        </g>
    </g>
</svg>