<svg width="105" height="105" viewBox="0 0 105 105" fill="none" xmlns="http://www.w3.org/2000/svg">
	<circle cx="52.5" cy="52.5" r="52.5" fill="url(#paint0_linear_5367_74509)"/>
	<g filter="url(#filter0_d_5367_74509)">
		<rect x="17" y="20" width="71" height="22" rx="4" fill="#95C500"/>
	</g>
	<rect x="43" y="27.0571" width="14.7195" height="2.62963" rx="1.31481" fill="white" fill-opacity="0.94"/>
	<rect x="43" y="32.313" width="27.7073" height="2.62963" rx="1.31481" fill="white" fill-opacity="0.4"/>
	<path d="M33.7468 35.169C33.9086 35.1402 34.0148 34.985 33.9813 34.8241C33.801 33.9569 33.4761 32.7625 33.4761 32.7625C33.4761 32.4281 33.0279 32.0458 32.1446 31.8232C31.8446 31.7414 31.5599 31.6151 31.3011 31.4488C31.2596 31.3457 31.2432 31.235 31.253 31.125L30.9699 31.0827C30.9699 31.059 30.9457 30.7085 30.9457 30.7085C31.286 30.597 31.251 29.9391 31.251 29.9391C31.467 30.0559 31.6078 29.5361 31.6078 29.5361C31.8634 28.8132 31.4805 28.8566 31.4805 28.8566C31.5475 28.415 31.5475 27.9665 31.4805 27.5249C31.3104 26.0603 28.7475 26.4574 29.0515 26.9362C28.3025 26.801 28.4735 28.4639 28.4735 28.4639L28.6359 28.8938C28.4109 29.0359 28.455 29.1994 28.5042 29.3821C28.5248 29.4583 28.5462 29.5379 28.5494 29.6207C28.5651 30.0358 28.8249 29.9496 28.8249 29.9496C28.841 30.6341 29.1868 30.7241 29.1868 30.7241C29.2518 31.154 29.2115 31.0799 29.2115 31.0799L28.9035 31.1163C28.9077 31.214 28.8996 31.3118 28.8793 31.4077C28.7004 31.4856 28.591 31.5474 28.4829 31.6084C28.3716 31.6712 28.2618 31.7332 28.0792 31.8111C27.3838 32.1076 26.628 32.4949 26.4939 33.0152C26.4119 33.3333 26.2304 34.226 26.1018 34.8717C26.0689 35.0364 26.178 35.1958 26.3439 35.2226C27.4579 35.4026 28.6492 35.5 29.8872 35.5C31.2432 35.5 32.5431 35.3831 33.7468 35.169Z" fill="white" fill-opacity="0.9"/>
	<path d="M37.1015 33.8118C37.3364 33.7495 37.4898 33.5285 37.4308 33.2928C37.3214 32.8565 37.0957 32.3022 36.8263 32.1389C36.4579 31.9156 36.4907 31.962 36.2599 31.8367C36.1074 31.7504 35.9466 31.6784 35.7795 31.6219C35.6939 31.5483 35.6276 31.4566 35.586 31.354C35.4982 31.2473 35.3828 31.1643 35.2511 31.1132L35.2413 30.7927L35.9338 30.5815C35.9338 30.5815 36.1125 30.5004 36.1299 30.5004C36.1022 30.4439 36.0703 30.3894 36.0344 30.3372C36.0213 30.3031 35.956 30.0694 35.956 30.0694C36.057 30.1955 36.1757 30.3075 36.3089 30.4024C36.191 30.1872 36.09 29.9639 36.007 29.7343C35.9514 29.5218 35.9128 29.3056 35.8915 29.0875C35.8439 28.6821 35.7698 28.28 35.6697 27.8836C35.5986 27.6865 35.4718 27.5121 35.3034 27.3796C35.0566 27.2122 34.7669 27.1119 34.4652 27.0893H34.4305C34.1287 27.1118 33.8391 27.2122 33.5923 27.3796C33.4241 27.5123 33.2975 27.6867 33.2262 27.8836C33.1259 28.28 33.0517 28.6821 33.0042 29.0875C32.9859 29.3104 32.9491 29.5317 32.8942 29.7491C32.8111 29.9747 32.7083 30.1931 32.587 30.4022C32.7194 30.3069 32.8375 30.1945 32.9378 30.0683C32.9378 30.0683 32.854 30.3247 32.8407 30.359C32.8102 30.4032 32.7845 30.4504 32.764 30.4996C32.7813 30.4996 32.9601 30.5807 32.9601 30.5807L33.6525 30.7927L33.6425 31.1132C33.5109 31.1645 33.3955 31.2475 33.3076 31.3542C33.2742 31.4253 33.2334 31.4929 33.1856 31.5559C33.8164 31.8058 34.1856 32.1715 34.2005 32.5808C34.2034 32.6016 34.2367 32.726 34.2833 32.9002C34.3997 33.3354 34.5992 34.0811 34.6154 34.2967H34.6723C35.5511 34.1704 36.3672 34.0067 37.1015 33.8118Z" fill="white" fill-opacity="0.9"/>
	<path d="M25.389 34.2947H25.1377C24.3375 34.1801 23.589 34.0346 22.9067 33.8628C22.6685 33.8028 22.5089 33.58 22.5605 33.3399C22.6537 32.9066 22.8571 32.3552 23.1993 32.1307C23.4211 31.9851 23.5132 31.96 23.7441 31.8346C23.8965 31.7484 24.0574 31.6764 24.2244 31.6198C24.3101 31.5463 24.3764 31.4545 24.418 31.352C24.5058 31.2453 24.6212 31.1623 24.7529 31.1111L24.7629 30.7907L24.0703 30.5794C24.0703 30.5794 23.8917 30.4983 23.8743 30.4983C23.9019 30.4419 23.9337 30.3873 23.9695 30.3352C23.9827 30.3011 24.048 30.0674 24.048 30.0674C23.947 30.1934 23.8282 30.3055 23.695 30.4004C23.813 30.1852 23.9139 29.9619 23.997 29.7323C24.0525 29.5198 24.0912 29.3035 24.1125 29.0854C24.1601 28.6801 24.2341 28.278 24.3343 27.8815C24.4054 27.6845 24.5322 27.5101 24.7005 27.3775C24.9474 27.2102 25.237 27.1099 25.5388 27.0872H25.5735C25.8752 27.1098 26.1649 27.2101 26.4117 27.3775C26.5798 27.5103 26.7065 27.6846 26.7778 27.8815C26.8781 28.278 26.9523 28.6801 26.9998 29.0854C27.018 29.3084 27.0548 29.5297 27.1098 29.7471C27.1929 29.9726 27.2957 30.1911 27.417 30.4002C27.2847 30.3049 27.1668 30.1926 27.0666 30.0665C27.0685 30.0723 27.1505 30.3232 27.1637 30.3571C27.1942 30.4014 27.2199 30.4485 27.2403 30.4978C27.2231 30.4978 27.0443 30.5789 27.0443 30.5789L26.3517 30.7907L26.3617 31.1111C26.4933 31.1625 26.6087 31.2455 26.6966 31.3522C26.7299 31.4232 26.7708 31.4908 26.8186 31.5539C26.1878 31.8037 25.8186 32.1695 25.8039 32.5787C25.8009 32.5994 25.7681 32.7221 25.722 32.8942C25.6058 33.3289 25.4053 34.0784 25.389 34.2947Z" fill="white" fill-opacity="0.9"/>
	<g filter="url(#filter1_d_5367_74509)">
		<path d="M17 51.2225C17 48.5086 19.2 46.3086 21.9139 46.3086H83.0861C85.7999 46.3086 88 48.5086 88 51.2225V79.0849C88 81.7994 85.7994 84 83.0849 84H21.9151C19.2006 84 17 81.7994 17 79.0848V51.2225Z" fill="white"/>
		<g opacity="0.7">
			<path opacity="0.5" d="M53.1328 75.8516C53.1328 72.6759 50.5584 70.1016 47.3828 70.1016C44.2072 70.1016 41.6328 72.6759 41.6328 75.8516C41.6328 79.0272 44.2072 81.6016 47.3828 81.6016C50.5584 81.6016 53.1328 79.0272 53.1328 75.8516Z" fill="#00ACE3" stroke="white" stroke-width="1.5"/>
			<path d="M46.1328 75.8516C46.1328 72.6759 43.5584 70.1016 40.3828 70.1016C37.2072 70.1016 34.6328 72.6759 34.6328 75.8516C34.6328 79.0272 37.2072 81.6016 40.3828 81.6016C43.5584 81.6016 46.1328 79.0272 46.1328 75.8516Z" fill="#FFA900" stroke="white" stroke-width="1.5"/>
			<path d="M39.1328 75.8516C39.1328 72.6759 36.5584 70.1016 33.3828 70.1016C30.2072 70.1016 27.6328 72.6759 27.6328 75.8516C27.6328 79.0272 30.2072 81.6016 33.3828 81.6016C36.5584 81.6016 39.1328 79.0272 39.1328 75.8516Z" fill="#9DCF00" stroke="white" stroke-width="1.5"/>
			<path d="M32.1328 75.8516C32.1328 72.6759 29.5584 70.1016 26.3828 70.1016C23.2072 70.1016 20.6328 72.6759 20.6328 75.8516C20.6328 79.0272 23.2072 81.6016 26.3828 81.6016C29.5584 81.6016 32.1328 79.0272 32.1328 75.8516Z" fill="#00ACE3" stroke="white" stroke-width="1.5"/>
		</g>
		<rect opacity="0.5" x="57.3203" y="74.3579" width="15.7778" height="2.62963" rx="1.31481" fill="#BDC1C6"/>
		<rect opacity="0.08" x="17" y="66.4692" width="71" height="0.876543" fill="#525C69"/>
		<rect opacity="0.5" x="22.2598" y="51.5679" width="16.6543" height="2.62963" rx="1.31481" fill="#BDC1C6"/>
		<rect x="22.2598" y="56.8271" width="31.5556" height="2.62963" rx="1.31481" fill="#525C69" fill-opacity="0.1"/>
	</g>
	<defs>
		<filter id="filter0_d_5367_74509" x="9.9256" y="15.2837" width="85.1488" height="36.1488" filterUnits="userSpaceOnUse" color-interpolation-filters="sRGB">
			<feFlood flood-opacity="0" result="BackgroundImageFix"/>
			<feColorMatrix in="SourceAlpha" type="matrix" values="0 0 0 0 0 0 0 0 0 0 0 0 0 0 0 0 0 0 127 0" result="hardAlpha"/>
			<feOffset dy="2.35813"/>
			<feGaussianBlur stdDeviation="3.5372"/>
			<feComposite in2="hardAlpha" operator="out"/>
			<feColorMatrix type="matrix" values="0 0 0 0 0.423529 0 0 0 0 0.423529 0 0 0 0 0.423529 0 0 0 0.12 0"/>
			<feBlend mode="normal" in2="BackgroundImageFix" result="effect1_dropShadow_5367_74509"/>
			<feBlend mode="normal" in="SourceGraphic" in2="effect1_dropShadow_5367_74509" result="shape"/>
		</filter>
		<filter id="filter1_d_5367_74509" x="11" y="42.3086" width="83" height="49.6914" filterUnits="userSpaceOnUse" color-interpolation-filters="sRGB">
			<feFlood flood-opacity="0" result="BackgroundImageFix"/>
			<feColorMatrix in="SourceAlpha" type="matrix" values="0 0 0 0 0 0 0 0 0 0 0 0 0 0 0 0 0 0 127 0" result="hardAlpha"/>
			<feOffset dy="2"/>
			<feGaussianBlur stdDeviation="3"/>
			<feComposite in2="hardAlpha" operator="out"/>
			<feColorMatrix type="matrix" values="0 0 0 0 0.193376 0 0 0 0 0.193376 0 0 0 0 0.193376 0 0 0 0.08 0"/>
			<feBlend mode="normal" in2="BackgroundImageFix" result="effect1_dropShadow_5367_74509"/>
			<feBlend mode="normal" in="SourceGraphic" in2="effect1_dropShadow_5367_74509" result="shape"/>
		</filter>
		<linearGradient id="paint0_linear_5367_74509" x1="52.0841" y1="19.852" x2="52.084" y2="105" gradientUnits="userSpaceOnUse">
			<stop stop-color="#EAF6C3" stop-opacity="0.3"/>
			<stop offset="1" stop-color="#EAF6C3" stop-opacity="0.5"/>
		</linearGradient>
	</defs>
</svg>
