<svg xmlns="http://www.w3.org/2000/svg" width="40" height="40" viewBox="0 0 40 40" fill="none">
	<g clip-path="url(#clip0_23306_566)">
		<rect width="40" height="40" fill="#182B12"/>
		<path d="M34.6887 42.0544C34.9581 42.0544 35.1772 41.8308 35.1696 41.5615C34.9046 32.1917 27.0583 29.8291 20.0001 29.8291C12.9419 29.8291 5.0955 32.1917 4.83051 41.5615" fill="#366829"/>
		<path fill-rule="evenodd" clip-rule="evenodd" d="M9.5112 31.599C12.5422 29.7429 16.4142 29.146 20.0001 29.146C23.586 29.146 27.458 29.7429 30.489 31.599C33.5662 33.4835 35.7134 36.6304 35.8523 41.542C35.8709 42.1991 35.3396 42.7371 34.6887 42.7371H5.31143C4.66053 42.7371 4.12929 42.1991 4.14787 41.542C4.28678 36.6304 6.43397 33.4835 9.5112 31.599ZM5.52046 41.3713H34.4797C34.3006 37.037 32.4103 34.3773 29.7757 32.7638C27.0527 31.0963 23.4724 30.5118 20.0001 30.5118C16.5278 30.5118 12.9475 31.0963 10.2245 32.7638C7.58991 34.3773 5.69956 37.037 5.52046 41.3713Z" fill="#55EF7B"/>
		<path d="M19.9813 26.1252C10.84 26.1252 8.69205 12.6423 15.1642 7.87796C16.239 7.08683 18.3047 6.34155 19.9814 6.34155C31.9036 6.34155 30.9561 26.1252 19.9813 26.1252Z" fill="#366829"/>
		<path fill-rule="evenodd" clip-rule="evenodd" d="M17.7769 8.10956C17.0092 8.36404 16.3639 8.69087 15.9739 8.97792C13.2965 10.9488 12.2598 14.8871 13.0518 18.4954C13.8328 22.0535 16.2519 24.7593 19.9813 24.7593C22.2638 24.7593 23.9978 23.7501 25.2106 22.1943C26.4481 20.6068 27.1488 18.4301 27.2022 16.2007C27.2557 13.9701 26.6588 11.82 25.4688 10.2617C24.3109 8.74531 22.5361 7.70741 19.9814 7.70741C19.3272 7.70741 18.5401 7.85654 17.7769 8.10956ZM15.1642 7.87796C8.69205 12.6423 10.84 26.1252 19.9813 26.1252C30.9561 26.1252 31.9036 6.34155 19.9814 6.34155C18.3047 6.34155 16.239 7.08683 15.1642 7.87796Z" fill="#55EF7B"/>
	</g>
	<defs>
		<clipPath id="clip0_23306_566">
			<rect width="40" height="40" fill="white"/>
		</clipPath>
	</defs>
</svg>
