<svg xmlns="http://www.w3.org/2000/svg" width="158" height="129" fill="none"><path fill="#E5F9FF" fill-rule="evenodd" d="M113.818 4.338a1.734 1.734 0 1 0 0-3.468 1.734 1.734 0 0 0 0 3.468ZM28.24 19.32a3.76 3.76 0 1 0 0-7.52 3.76 3.76 0 0 0 0 7.52Zm0-2.097a1.664 1.664 0 1 0 0-3.327 1.664 1.664 0 0 0 0 3.327Zm-19.1 38.8a5.064 5.064 0 1 0 0-10.128 5.064 5.064 0 0 0 0 10.128Zm0-2.643a2.421 2.421 0 1 0 0-4.842 2.421 2.421 0 0 0 0 4.842Zm128.563 66.36a3.605 3.605 0 1 0 0-7.21 3.605 3.605 0 0 0 0 7.21Zm0-1.876a1.729 1.729 0 1 0 0-3.458 1.729 1.729 0 0 0 0 3.458ZM80 129c34.242 0 62-27.758 62-62 0-34.242-27.758-62-62-62-34.242 0-62 27.758-62 62 0 34.242 27.758 62 62 62Zm-62.03-4.334H5.917c-.103 0-.205-.004-.306-.011-2.724-.064-4.913-2.353-4.913-5.168 0-1.372.531-2.687 1.476-3.656a5.034 5.034 0 0 1 1.68-1.14 5.536 5.536 0 0 1 1.542-4.281 5.238 5.238 0 0 1 3.755-1.596c1.804.002 3.397.929 4.354 2.345a4.229 4.229 0 0 1 1.454-.256c2.252.003 4.102 1.768 4.317 4.024 2.157.483 3.772 2.459 3.77 4.821-.002 2.722-2.15 4.928-4.8 4.926-.092 0-.184-.002-.276-.008Zm127.734-95.88h8.554c.065.003.13.005.196.005 1.88 0 3.405-1.503 3.406-3.36.002-1.61-1.144-2.957-2.676-3.286-.152-1.539-1.465-2.742-3.063-2.744-.362 0-.709.061-1.032.174a3.774 3.774 0 0 0-3.09-1.598c-.999 0-1.958.39-2.665 1.088a3.697 3.697 0 0 0-1.095 2.919 3.566 3.566 0 0 0-1.191.777A3.503 3.503 0 0 0 142 25.254c0 1.919 1.553 3.48 3.487 3.523.072.005.144.008.217.008Z" clip-rule="evenodd"/><g clip-path="url(#a)"><path fill="#fff" fill-opacity=".5" d="m61.425 21.581 4.68 2.497 4.682-2.497 4.68 2.497 4.681-2.497 4.681 2.497 4.681-2.497 4.681 2.497 4.68-2.497v20.805H61.426V21.58Z"/><path fill="#2FC6F6" fill-rule="evenodd" d="M61.24 21.273a.36.36 0 0 1 .354-.01l.586.313-.34.636-.055-.03v.143h-.72v-.743a.36.36 0 0 1 .175-.31Zm37.817 0a.36.36 0 0 1 .175.309v.743h-.72v-.143l-.055.03-.34-.636.585-.312a.36.36 0 0 1 .355.009Zm-28.44-.01a.36.36 0 0 1 .34 0l.584.313-.339.636-.415-.222-.416.222-.34-.636.586-.312Zm9.362 0a.36.36 0 0 1 .34 0l.584.313-.34.636-.415-.222-.415.222-.34-.636.586-.312Zm9.362 0a.36.36 0 0 1 .339 0l.585.313-.34.636-.415-.222-.415.222-.34-.636.586-.312Zm-21.65 1.56 1.17-.623.34.636-1.17.624-.34-.636Zm9.362 0 1.17-.623.34.636-1.17.624-.34-.636Zm9.362 0 1.17-.623.34.636-1.17.624-.34-.636Zm9.362 0 1.17-.623.34.636-1.171.624-.34-.636ZM63.35 22.2l1.17.624-.34.636-1.17-.624.34-.636Zm9.362 0 1.17.624-.34.636-1.17-.624.34-.636Zm9.361 0 1.17.624-.339.636-1.17-.624.34-.636Zm9.362 0 1.17.624-.339.636-1.17-.624.34-.636Zm-25.33 1.47-.415-.222-.339.636.585.312a.36.36 0 0 0 .34 0l.585-.312-.34-.636-.415.222Zm9.363 0-.416-.222-.34.636.586.312a.36.36 0 0 0 .34 0l.584-.312-.339-.636-.415.222Zm9.361 0-.415-.222-.34.636.586.312a.36.36 0 0 0 .339 0l.585-.312-.34-.636-.415.222Zm9.362 0-.415-.222-.34.636.585.312a.36.36 0 0 0 .34 0l.585-.312-.34-.636-.415.222Zm5.041.14v1.487h-.72V23.81h.72Zm-38.167 1.487V23.81h.72v1.486h-.72Zm38.167 1.486v1.486h-.72v-1.486h.72Zm-38.167 1.486v-1.486h.72v1.486h-.72Zm0 2.972v-1.486h.72v1.486h-.72Zm38.167-1.486v1.486h-.72v-1.486h.72Zm-38.167 4.458v-1.486h.72v1.486h-.72Zm38.167-1.486v1.486h-.72v-1.486h.72Zm-38.167 4.458v-1.486h.72v1.486h-.72Zm38.167-1.486v1.486h-.72v-1.486h.72Zm0 2.972v1.486h-.72V38.67h.72Zm-38.167 1.486V38.67h.72v1.486h-.72Zm38.167 1.486v.743c0 .199-.161.36-.36.36h-.72v-.72h.36v-.383h.72Zm-38.167.743v-.743h.72v.382h.36v.721h-.72a.36.36 0 0 1-.36-.36Zm3.96.36h-1.44v-.72h1.44v.72Zm2.881 0h-1.44v-.72h1.44v.72Zm2.88 0h-1.44v-.72h1.44v.72Zm2.881 0h-1.44v-.72h1.44v.72Zm2.88 0h-1.44v-.72h1.44v.72Zm2.881 0h-1.44v-.72h1.44v.72Zm2.88 0h-1.44v-.72h1.44v.72Zm2.881 0h-1.44v-.72h1.44v.72Zm2.88 0h-1.44v-.72h1.44v.72Zm2.882 0h-1.44v-.72h1.44v.72Zm2.88 0h-1.44v-.72h1.44v.72Zm2.88 0h-1.44v-.72h1.44v.72Z" clip-rule="evenodd"/><g filter="url(#b)"><path fill="#fff" d="M100.149 34.01a5.614 5.614 0 0 1 5.575 5l.032.608V69.35c0 .172-.293.696-.7 1.357l-1.673 2.65c-.345.561-.616 1.037-.711 1.303a1.453 1.453 0 0 0-.036.322l-.001 30.041a5.614 5.614 0 0 1-5 5.575l-.608.032h-33.53a5.613 5.613 0 0 1-5.576-5l-.033-.607V74.55c0-.175-.294-.703-.701-1.367L55.27 70.12c-.226-.384-.396-.703-.467-.903a1.465 1.465 0 0 1-.037-.324V39.618a5.614 5.614 0 0 1 5-5.575l.608-.033h39.774Z"/></g><path fill="#2FC6F6" fill-rule="evenodd" d="m103.383 73.356 1.673-2.65c.407-.66.7-1.184.7-1.356V39.618l-.032-.608a5.614 5.614 0 0 0-5.575-5H60.375l-.607.033a5.614 5.614 0 0 0-5 5.575v29.276c0 .109.012.217.036.323.07.201.24.52.467.904l1.916 3.062c.407.664.701 1.191.701 1.367v30.473l.033.607a5.613 5.613 0 0 0 5.575 5h33.531l.608-.032a5.614 5.614 0 0 0 5-5.575l.001-30.041c0-.108.012-.216.036-.322.095-.266.366-.742.711-1.304Zm-5.813 36.458a4.826 4.826 0 0 0 4.279-4.791l.001-30.041c0-.167.019-.334.056-.497l.011-.045.015-.043c.128-.36.449-.91.782-1.452l.005-.008 1.668-2.642.003-.004c.2-.325.363-.602.474-.813.052-.098.086-.17.107-.218V39.64l-.03-.565a4.828 4.828 0 0 0-4.792-4.28H60.397l-.565.031a4.828 4.828 0 0 0-4.28 4.792v29.276a.67.67 0 0 0 .01.106c.054.131.178.37.38.713l1.914 3.059c.206.336.393.652.53.912.068.13.13.26.179.379.036.09.109.278.109.487V105l.03.565a4.828 4.828 0 0 0 4.792 4.279h33.51l.564-.031Z" clip-rule="evenodd"/><path fill="#2FC6F6" d="M61.256 50.419a4.326 4.326 0 0 1 4.325-4.326H95.14a4.326 4.326 0 0 1 4.325 4.326v10.814a4.326 4.326 0 0 1-4.325 4.325H65.58a4.326 4.326 0 0 1-4.325-4.325V50.419Z"/><path fill="#fff" d="M84.82 50.183a1.989 1.989 0 0 1 2.761 2.865l-8.647 8.346c-.4.387-1.035.387-1.436 0l-3.956-3.824a1.99 1.99 0 0 1 2.761-2.868l1.913 1.835 6.605-6.354Z"/><path fill="#2FC6F6" d="M93.504 38.555a1.554 1.554 0 0 0-.241-.019H67.337c-.575 0-1.035.635-1.035 1.43 0 .623.284 1.15.685 1.346.072.035.151.051.23.064.08.012.16.018.241.018h25.926c.575 0 1.034-.635 1.034-1.429 0-.624-.284-1.15-.685-1.347a.797.797 0 0 0-.23-.063Z"/><g fill="#2FC6F6" opacity=".5"><path d="M70.357 94.16h-3.99a2.554 2.554 0 0 0 0 5.106h3.99a2.554 2.554 0 0 0 0-5.106ZM82.272 94.16h-3.989a2.554 2.554 0 0 0 0 5.106h3.99a2.553 2.553 0 0 0 0-5.107ZM94.188 94.159h-3.99a2.554 2.554 0 0 0-.459 5.065l.46.041h3.989a2.554 2.554 0 0 0 .458-5.065l-.459-.041ZM70.357 84.851h-3.99a2.554 2.554 0 0 0 0 5.107h3.99a2.554 2.554 0 0 0 0-5.107ZM82.272 84.85h-3.989a2.554 2.554 0 0 0-.459 5.066l.46.041h3.988a2.553 2.553 0 0 0 .46-5.065l-.46-.041ZM94.188 84.85h-3.99a2.554 2.554 0 0 0 0 5.107h3.99a2.554 2.554 0 0 0 0-5.107ZM82.272 75.515h-3.989a2.554 2.554 0 0 0 0 5.107h3.99a2.554 2.554 0 0 0 0-5.107ZM70.357 75.516h-3.99a2.554 2.554 0 0 0-.458 5.065l.459.041h3.99a2.554 2.554 0 0 0 .458-5.065l-.459-.041ZM94.188 75.515h-3.99a2.554 2.554 0 0 0-.459 5.065l.46.041h3.989a2.554 2.554 0 0 0 .458-5.065l-.459-.041Z"/></g></g><defs><clipPath id="a"><path fill="#fff" d="M54.767 21.581h50.99v89.05h-50.99z"/></clipPath><filter id="b" width="74.069" height="99.7" x="43.227" y="24.74" color-interpolation-filters="sRGB" filterUnits="userSpaceOnUse"><feFlood flood-opacity="0" result="BackgroundImageFix"/><feColorMatrix in="SourceAlpha" result="hardAlpha" values="0 0 0 0 0 0 0 0 0 0 0 0 0 0 0 0 0 0 127 0"/><feOffset dy="2.27"/><feGaussianBlur stdDeviation="5.77"/><feComposite in2="hardAlpha" operator="out"/><feColorMatrix values="0 0 0 0 0.392157 0 0 0 0 0.427451 0 0 0 0 0.482353 0 0 0 0.16 0"/><feBlend in2="BackgroundImageFix" result="effect1_dropShadow_736_158823"/><feBlend in="SourceGraphic" in2="effect1_dropShadow_736_158823" result="shape"/></filter></defs></svg>