<svg width="18" height="20" viewBox="0 0 18 20" fill="none" xmlns="http://www.w3.org/2000/svg">
	<path fill-rule="evenodd" clip-rule="evenodd" d="M13.4387 15.8517C12.9336 16.0271 12.3769 15.7798 12.1439 15.2986C11.2127 13.3747 8.5988 8.68733 4.05289 5.76552C3.42908 5.36458 3.36399 4.4499 4.0123 4.0899C9.7624 0.896969 17.2202 2.54064 18.9257 2.98063C19.1611 3.04135 19.3546 3.19187 19.4835 3.39801L24.1363 10.8435C24.4766 11.388 24.2228 12.1075 23.6162 12.3181L13.4387 15.8517Z" fill="white"/>
	<path d="M13.2747 15.3794C13.0219 15.4672 12.7223 15.346 12.5939 15.0807C11.6501 13.1309 8.98646 8.34212 4.32323 5.34491C4.1514 5.23446 4.06185 5.05658 4.05514 4.89197C4.04879 4.73641 4.11331 4.60572 4.25504 4.52703C7.02199 2.99059 10.2237 2.60708 12.9738 2.67278C15.7188 2.73835 17.9694 3.2503 18.8008 3.46478C18.9019 3.49087 18.9928 3.55632 19.0594 3.66299L23.7123 11.1085C23.8824 11.3807 23.7555 11.7405 23.4523 11.8458L13.2747 15.3794Z" stroke="#2FC6F6"/>
</svg>