<svg xmlns="http://www.w3.org/2000/svg" width="32" height="490" viewBox="0 0 32 490"><g fill="none" fill-rule="evenodd"><path fill="#535C69" opacity=".3" d="M15.773 157.893l-3.446-3.446-1.88 1.88 3.447 3.446-3.447 3.446 1.88 1.88 3.446-3.448 3.447 3.447 1.88-1.88-3.447-3.447 3.446-3.447-1.88-1.88"/><path fill="#535C69" d="M15.773 186.893l-3.446-3.446-1.88 1.88 3.447 3.446-3.447 3.446 1.88 1.88 3.446-3.448 3.447 3.447 1.88-1.88-3.447-3.447 3.446-3.447-1.88-1.88"/><path fill="#7ED321" d="M18 214v-5h-3v5h-5v3h5v5h3v-5h5v-3"/><path fill="#9DFF31" d="M18 240v-5h-3v5h-5v3h5v5h3v-5h5v-3"/><path fill="#535C69" d="M10.41 274.723c0 .628-.494 1.123-1.122 1.123-.617-.01-1.11-.505-1.122-1.123v-9.405c0-.29.112-.583.336-.807.224-.223.516-.336.808-.337h9.406c.628 0 1.122.495 1.122 1.123s-.494 1.122-1.122 1.122l-6.724-.01 11.954 11.953c.44.438.427 1.145-.01 1.583-.438.437-1.134.437-1.572 0L10.41 267.99v6.733zM18.723 364.035c.628 0 1.123.494 1.123 1.122-.01.618-.505 1.112-1.123 1.122H9.318c-.29 0-.583-.112-.807-.336-.223-.225-.336-.517-.337-.81v-9.404c0-.628.495-1.122 1.123-1.122s1.122.494 1.122 1.122l-.01 6.723L22.36 350.5c.438-.44 1.145-.427 1.583.01.437.438.437 1.134 0 1.57L11.99 364.035h6.733zM9.91 299.57c-.445.445-1.144.445-1.588 0-.43-.443-.43-1.142 0-1.586l6.65-6.65c.206-.207.492-.334.81-.334.316 0 .602.127.81.333l6.65 6.65c.443.445.443 1.144 0 1.588-.445.445-1.144.445-1.588 0l-4.746-4.76v16.904c0 .62-.507 1.11-1.126 1.11-.62 0-1.11-.49-1.11-1.11V294.81l-4.763 4.76zM13.72 325.41c-.627 0-1.12-.495-1.12-1.123.01-.617.504-1.11 1.12-1.122h9.406c.292 0 .584.112.808.336.224.225.337.517.337.81v9.405c0 .627-.494 1.122-1.122 1.122-.628 0-1.122-.495-1.122-1.122l.01-6.724-11.952 11.955c-.437.438-1.144.427-1.582-.01-.438-.438-.438-1.134 0-1.572l11.953-11.953H13.72zM22.665 389.254c.444-.444 1.143-.444 1.587 0 .43.444.43 1.143 0 1.587l-6.65 6.652c-.206.206-.492.333-.81.333-.316 0-.602-.127-.81-.333l-6.65-6.65c-.443-.445-.443-1.144 0-1.588.445-.444 1.144-.444 1.588 0l4.746 4.762V377.11c0-.618.507-1.11 1.126-1.11.62 0 1.11.492 1.11 1.11v16.905l4.763-4.76zM22.035 412.722c0-.628.494-1.122 1.122-1.122.617.01 1.11.505 1.122 1.122v9.405c0 .292-.113.584-.337.808-.224.224-.516.336-.808.337H13.73c-.628 0-1.122-.495-1.122-1.123 0-.63.494-1.123 1.122-1.123l6.723.01L8.5 409.086c-.44-.437-.428-1.144.01-1.582.438-.438 1.133-.438 1.57 0l11.954 11.953v-6.734z"/><path fill="#80868E" d="M17.418 15.904c1.055 0 1.918-.863 1.918-1.918V7.918c0-1.055-.863-1.918-1.918-1.918h-10.5C5.863 6 5 6.863 5 7.918v6.063c0 1.056.863 1.92 1.918 1.92h1.424v3.366c0 .343.303.333.934-.202.368-.308 1.746-1.888 2.847-3.165h5.295v.004zm4.745-5.765h-1.08v4.704c0 1.55-1.267 2.822-2.822 2.822h-5.643l-1.99 2.075c.3.192.658.308 1.036.308h5.296c1.1 1.278 2.482 2.858 2.846 3.166.636.535.934.54.934.2V20.05h1.423c1.055 0 1.918-.863 1.918-1.918v-6.072c.006-1.055-.857-1.92-1.917-1.92z" opacity=".495"/><path fill="#535C69" d="M17.418 39.904c1.055 0 1.918-.863 1.918-1.918v-6.068c0-1.055-.863-1.918-1.918-1.918h-10.5C5.863 30 5 30.863 5 31.918v6.063c0 1.056.863 1.92 1.918 1.92h1.424v3.366c0 .343.303.333.934-.202.368-.308 1.746-1.888 2.847-3.165h5.295v.004zm4.745-5.765h-1.08v4.704c0 1.55-1.267 2.822-2.822 2.822h-5.643l-1.99 2.075c.3.192.658.308 1.036.308h5.296c1.1 1.278 2.482 2.858 2.846 3.166.636.535.934.54.934.2V44.05h1.423c1.055 0 1.918-.863 1.918-1.918v-6.072c.006-1.055-.857-1.92-1.917-1.92z"/><path fill="#80868E" d="M21.326 56H7.836c-.46 0-.836.375-.836.835v13.49c0 .46.375.835.835.835h13.49c.46 0 .835-.374.835-.834V56.83c-.005-.455-.38-.83-.834-.83zm-5.23 11.65c0 .265-.235.478-.513.478H9.535c-.285 0-.514-.22-.514-.48v-1.062c0-.265.237-.48.515-.48h6.048c.284 0 .513.22.513.48v1.063zm3.032-4.033c0 .266-.196.48-.428.48H9.45c-.238 0-.43-.22-.43-.48v-1.063c0-.265.197-.48.43-.48h9.245c.237 0 .428.22.428.48v1.063h.005zm-.428-2.564H9.45c-.238 0-.43-.22-.43-.48v-1.062c0-.264.197-.478.43-.478h9.245c.237 0 .428.22.428.48v1.062c.005.266-.19.48-.423.48z" opacity=".5"/><path fill="#535C69" d="M21.326 78H7.836c-.46 0-.836.375-.836.835v13.49c0 .46.375.835.835.835h13.49c.46 0 .835-.374.835-.834V78.83c-.005-.455-.38-.83-.834-.83zm-5.23 11.65c0 .265-.235.478-.513.478H9.535c-.285 0-.514-.22-.514-.48v-1.062c0-.265.237-.48.515-.48h6.048c.284 0 .513.22.513.48v1.063zm3.032-4.033c0 .266-.196.48-.428.48H9.45c-.238 0-.43-.22-.43-.48v-1.063c0-.265.197-.48.43-.48h9.245c.237 0 .428.22.428.48v1.063h.005zm-.428-2.564H9.45c-.238 0-.43-.22-.43-.48v-1.062c0-.264.197-.478.43-.478h9.245c.237 0 .428.22.428.48v1.062c.005.266-.19.48-.423.48z"/><path fill="#80868E" d="M18.993 112.825c-.563-.575-1.265-.575-1.825 0-.427.437-.746.578-1.165 1.023-.115.122-.212.148-.352.067-.275-.156-.57-.282-.834-.453-1.237-.804-2.274-1.84-3.192-3.004-.455-.578-.86-1.198-1.144-1.895-.057-.14-.046-.233.065-.348.427-.427.57-.583.99-1.02.584-.608.584-1.32-.004-1.932-.332-.35-.655-.83-.927-1.21-.27-.377-.485-.827-.833-1.18-.563-.566-1.265-.566-1.825.005-.43.437-.842.886-1.28 1.316-.405.397-.61.883-.653 1.45-.068.924.15 1.796.46 2.645.63 1.757 1.592 3.318 2.757 4.75 1.573 1.936 3.452 3.467 5.65 4.572.99.497 2.016.88 3.13.942.768.045 1.435-.155 1.97-.775.365-.423.778-.81 1.165-1.213.574-.6.577-1.328.007-1.922-.68-.708-1.474-1.116-2.16-1.82zm-.29-3.185l.158-.028c.347-.06.567-.42.47-.77-.276-.994-.79-1.895-1.507-2.64-.765-.79-1.697-1.338-2.726-1.608-.34-.09-.682.147-.73.508l-.024.166c-.042.31.15.6.444.68.788.21 1.503.63 2.09 1.238.55.57.945 1.262 1.16 2.027.083.296.37.48.665.427zm1.52-5.85c-1.38-1.428-3.09-2.38-4.98-2.778-.332-.07-.652.168-.7.515l-.022.166c-.042.32.162.62.468.684 1.627.347 3.1 1.17 4.287 2.394 1.12 1.16 1.895 2.59 2.26 4.167.072.314.366.518.674.463l.157-.027c.338-.06.554-.403.474-.748-.42-1.83-1.32-3.49-2.618-4.836z" opacity=".5"/><path fill="#535C69" d="M19.993 137.825c-.563-.575-1.265-.575-1.825 0-.427.437-.746.578-1.165 1.023-.115.122-.212.148-.352.067-.275-.156-.57-.282-.834-.453-1.237-.804-2.274-1.84-3.192-3.004-.455-.578-.86-1.198-1.144-1.895-.057-.14-.046-.233.065-.348.427-.427.57-.583.99-1.02.584-.608.584-1.32-.004-1.932-.332-.35-.655-.83-.927-1.21-.27-.377-.485-.827-.833-1.18-.563-.566-1.265-.566-1.825.005-.43.437-.842.886-1.28 1.316-.405.397-.61.883-.653 1.45-.068.924.15 1.796.46 2.645.63 1.757 1.592 3.318 2.757 4.75 1.573 1.936 3.452 3.467 5.65 4.572.99.497 2.016.88 3.13.942.768.045 1.435-.155 1.97-.775.365-.423.778-.81 1.165-1.213.574-.6.577-1.328.007-1.922-.68-.708-1.474-1.116-2.16-1.82zm-.29-3.185l.158-.028c.347-.06.567-.42.47-.77-.276-.994-.79-1.895-1.507-2.64-.765-.79-1.697-1.338-2.726-1.608-.34-.09-.682.147-.73.508l-.024.166c-.042.31.15.6.444.68.788.21 1.503.63 2.09 1.238.55.57.945 1.262 1.16 2.027.083.296.37.48.665.427zm1.52-5.85c-1.38-1.428-3.09-2.38-4.98-2.778-.332-.07-.652.168-.7.515l-.022.166c-.042.32.162.62.468.684 1.627.347 3.1 1.17 4.287 2.394 1.12 1.16 1.895 2.59 2.26 4.167.072.314.366.518.674.463l.157-.027c.338-.06.554-.403.474-.748-.42-1.83-1.32-3.49-2.618-4.836z"/><path fill="#40C7F7" d="M18 446v-5h-3v5h-5v3h5v5h3v-5h5v-3"/><path fill="#3EAFD7" d="M18 474v-5h-3v5h-5v3h5v5h3v-5h5v-3"/></g></svg>