<svg xmlns="http://www.w3.org/2000/svg" width="82" height="82" viewBox="0 0 82 82">
  <g fill="none" fill-rule="evenodd">
    <circle cx="41" cy="41" r="41" fill="#4BBAFF" opacity=".2"/>
    <ellipse cx="41.243" cy="41.243" fill="#0082FF" opacity=".8" rx="33.243" ry="33.243"/>
    <path fill="#FFFFFF" d="M48.8724142,45.904882 C47.9247158,44.9372148 46.7416017,44.9372148 45.7999395,45.904882 C45.0816203,46.6415576 44.5443899,46.8787921 43.8381433,47.6279538 C43.6449818,47.8339733 43.4820018,47.8776744 43.2465862,47.7403281 C42.7817914,47.4781215 42.2868151,47.265859 41.8401292,46.9786804 C39.757607,45.6239463 38.0131175,43.8821454 36.4678256,41.921839 C35.701216,40.9479288 35.0191146,39.9053454 34.5422472,38.7316588 C34.4456664,38.4944243 34.4637753,38.3383489 34.6509005,38.1448155 C35.3692197,37.4268689 35.6106716,37.1646623 36.3169182,36.4279866 C37.3008345,35.4041323 37.3008345,34.2054736 36.3108819,33.1753763 C35.7495064,32.588533 35.2067226,31.7776903 34.749111,31.1410901 C34.2915598,30.50449 33.9325813,29.7479616 33.3470605,29.1548752 C32.399362,28.1996941 31.216248,28.1996941 30.2745858,29.1611182 C29.5502302,29.8977939 28.8560562,30.6531986 28.1196281,31.3773882 C27.4375266,32.0453907 27.0934577,32.8632256 27.0210222,33.8184067 C26.9063325,35.3729172 27.2745466,36.8400255 27.7936681,38.2696758 C28.8560562,41.2288644 30.4737836,43.8571733 32.4355798,46.2669768 C35.0855138,49.5258301 38.248533,52.1041949 41.9487826,53.9646131 C43.6148003,54.801177 45.341181,55.4442074 47.2184691,55.5503387 C48.5102365,55.6252549 49.6329876,55.2881321 50.5323957,54.2455487 C51.1480979,53.5338451 51.842272,52.8845717 52.4941919,52.2040831 C53.4599993,51.1927149 53.4660356,49.9690841 52.5062645,48.9702019 C51.3593683,47.7777862 50.0253468,47.0910546 48.8724142,45.904882 Z M48.3823575,40.5447799 L48.649524,40.4975827 C49.2325699,40.3946354 49.6031984,39.7908111 49.439977,39.202844 C48.9748804,37.5274064 48.1078872,36.0101042 46.9025595,34.7584423 C45.6153797,33.427182 44.0456409,32.5042148 42.3140087,32.0502228 C41.7392929,31.8995165 41.1651204,32.2980081 41.0827853,32.9052036 L41.0448774,33.1851403 C40.9740716,33.7074309 41.2978586,34.194823 41.7915069,34.3270501 C43.1176208,34.6822776 44.3214393,35.3914215 45.3089774,36.4128411 C46.2357903,37.3713934 46.9009297,38.5381503 47.2615984,39.8247107 C47.4016405,40.3244639 47.8864758,40.6323694 48.3823575,40.5447799 Z M50.9408537,30.6942277 C48.6189321,28.2927899 45.7408864,26.6905203 42.5599394,26.0206449 C42.0001937,25.9027768 41.4611524,26.3026419 41.3818355,26.8877996 L41.3439879,27.167112 C41.2710695,27.7053847 41.6156816,28.2080722 42.1303966,28.3177619 C44.8685813,28.9015462 47.3476277,30.2861219 49.3472716,32.3486264 C51.2318636,34.2977578 52.5367297,36.7064999 53.1495949,39.3603428 C53.2718902,39.8898128 53.7669872,40.2325543 54.2858069,40.1409693 L54.5507399,40.0942091 C55.1197816,39.9936966 55.4841928,39.4157808 55.3501266,38.8350556 C54.638568,35.7536287 53.1267777,32.9605666 50.9408537,30.6942277 Z"/>
  </g>
</svg>
