<?xml version="1.0" encoding="UTF-8"?>
<svg width="86px" height="20px" viewBox="0 0 86 20" version="1.1" xmlns="http://www.w3.org/2000/svg" xmlns:xlink="http://www.w3.org/1999/xlink">
    <!-- Generator: Sketch 41.2 (35397) - http://www.bohemiancoding.com/sketch -->
    <title>Download_on_the_Googleplay</title>
    <desc>Created with Sketch.</desc>
    <defs></defs>
    <g id="Page-1" stroke="none" stroke-width="1" fill="none" fill-rule="evenodd">
        <g id="Download_on_the_Googleplay">
            <g id="Group">
                <path d="M1.23521403,0.870206777 C1.02615931,1.09427553 0.902594324,1.4431513 0.902594324,1.895668 L0.902594324,1.895668 L0.902594324,18.0366465 C0.902594324,18.4891632 1.02615931,18.8373091 1.23521403,19.0621077 L1.23521403,19.0621077 L1.28765731,19.1153879 L10.1886469,10.0730826 L10.1886469,9.9665222 L10.1886469,9.85923195 L1.28765731,0.816926585 L1.23521403,0.870206777 Z" id="Fill-1" fill="#00D4FF"></path>
                <path d="M10.1886469,9.85923195 L10.1886469,9.9665222 L10.1886469,10.0730826 L13.154925,13.0881575 L13.2231731,13.0502045 L16.7375913,11.0197183 C17.741916,10.4409349 17.741916,9.49210953 16.7375913,8.91259622 L16.7375913,8.91259622 L13.2231731,6.88356975 L13.1556434,6.84488687 L10.1886469,9.85923195 Z" id="Fill-3" fill="#FFD100"></path>
                <path d="M1.23521403,19.0621077 C1.40763029,19.2482235 1.63967385,19.3489449 1.90907426,19.3525943 L1.90907426,19.3525943 L1.93924711,19.3525943 C2.17847467,19.3489449 2.44571988,19.2701195 2.72805151,19.1073594 L2.72805151,19.1073594 L13.2231731,13.0494746 L10.1886469,9.9665222 L1.23521403,19.0621077 Z" id="Fill-5" fill="#FF3646"></path>
                <path d="M1.23521403,0.870206777 L10.1886469,9.9665222 L13.2231731,6.88283988 L2.72805151,0.824955107 C2.43925427,0.658545742 2.16554345,0.579720254 1.92272388,0.579720254 L1.92272388,0.579720254 C1.64757626,0.579720254 1.4105039,0.681171577 1.23521403,0.870206777" id="Fill-7" fill="#00F06C"></path>
            </g>
            <path d="M71.2101773,14.2298925 L72.6289961,14.2298925 L72.6289961,4.55444564 L71.2101773,4.55444564 L71.2101773,14.2298925 Z M83.9962834,8.03964979 L82.3690162,12.2345879 L82.3203275,12.2345879 L80.6314386,8.03964979 L79.1023095,8.03964979 L81.6356428,13.9025015 L80.1909581,17.1640272 L81.6713985,17.1640272 L85.574862,8.03964979 L83.9962834,8.03964979 Z M75.9451523,13.1308496 C75.4810882,13.1308496 74.8321593,12.8940136 74.8321593,12.3088894 C74.8321593,11.5627786 75.6400872,11.2756344 76.3377048,11.2756344 C76.9607679,11.2756344 77.2551823,11.4134017 77.6340412,11.5991554 C77.5237309,12.4961911 76.7652524,13.1308496 75.9451523,13.1308496 L75.9451523,13.1308496 Z M76.1170842,7.82758096 C75.0892964,7.82758096 74.0249921,8.28886936 73.5845117,9.30896686 L74.8443315,9.84455675 C75.1136408,9.30896686 75.6149821,9.13482275 76.1414286,9.13482275 C76.8755627,9.13482275 77.621869,9.5829536 77.6340412,10.3793727 L77.6340412,10.4792153 C77.376904,10.3298383 76.8261133,10.1061599 76.1536007,10.1061599 C74.794882,10.1061599 73.4125797,10.8654282 73.4125797,12.2841223 C73.4125797,13.5789805 74.5263335,14.4133243 75.7739811,14.4133243 C76.7279751,14.4133243 77.2551823,13.977577 77.5845917,13.4667543 L77.6340412,13.4667543 L77.6340412,14.213639 L79.0049321,14.213639 L79.0049321,10.5039825 C79.0049321,8.78653453 77.7435907,7.82758096 76.1170842,7.82758096 L76.1170842,7.82758096 Z M67.3439911,9.21763795 L65.3249321,9.21763795 L65.3249321,5.9011601 L67.3439911,5.9011601 C68.4052524,5.9011601 69.0077749,6.7943259 69.0077749,7.55901204 C69.0077749,8.30899268 68.4052524,9.21763795 67.3439911,9.21763795 L67.3439911,9.21763795 Z M67.3074746,4.55367167 L63.9061133,4.55367167 L63.9061133,14.2298925 L65.3249321,14.2298925 L65.3249321,10.5643524 L67.3074746,10.5643524 C68.8807279,10.5643524 70.4273545,9.40493962 70.4273545,7.55901204 C70.4273545,5.71308446 68.8807279,4.55367167 67.3074746,4.55367167 L67.3074746,4.55367167 Z M48.7593665,13.1323976 C47.7787459,13.1323976 46.957885,12.2972798 46.957885,11.1502506 C46.957885,9.99006383 47.7787459,9.14256249 48.7593665,9.14256249 C49.7270542,9.14256249 50.4870542,9.99006383 50.4870542,11.1502506 C50.4870542,12.2972798 49.7270542,13.1323976 48.7593665,13.1323976 L48.7593665,13.1323976 Z M50.3889161,8.58143147 L50.3402274,8.58143147 C50.0214686,8.19521853 49.4082954,7.84538236 48.636884,7.84538236 C47.0187459,7.84538236 45.5352624,9.29193944 45.5352624,11.1502506 C45.5352624,12.9954042 47.0187459,14.4295777 48.636884,14.4295777 C49.4082954,14.4295777 50.0214686,14.0805155 50.3402274,13.681145 L50.3889161,13.681145 L50.3889161,14.154817 C50.3889161,15.4148464 49.7270542,16.0874296 48.6612284,16.0874296 C47.7909181,16.0874296 47.2515387,15.4519971 47.0309181,14.9156333 L45.7931603,15.4396136 C46.1484356,16.3118821 47.0917789,17.3846098 48.6612284,17.3846098 C50.3280552,17.3846098 51.7377449,16.3869575 51.7377449,13.9551318 L51.7377449,8.0450676 L50.3889161,8.0450676 L50.3889161,8.58143147 Z M52.7183655,14.2298925 L54.1394666,14.2298925 L54.1394666,4.55444564 L52.7183655,4.55444564 L52.7183655,14.2298925 Z M56.2353625,11.0380244 C56.198846,9.76561142 57.203811,9.11779533 57.9265337,9.11779533 C58.4910182,9.11779533 58.9687759,9.40493962 59.1285357,9.81591972 L56.2353625,11.0380244 Z M60.6477749,9.94052951 C60.3777048,9.20525437 59.556844,7.84538236 57.877845,7.84538236 C56.2110182,7.84538236 54.8256728,9.17971324 54.8256728,11.137867 C54.8256728,12.9830206 56.198846,14.4295777 58.036844,14.4295777 C59.5195667,14.4295777 60.3777048,13.5070009 60.7337409,12.970637 L59.6306378,12.2222044 C59.2624296,12.7709518 58.7603275,13.1323976 58.036844,13.1323976 C57.3141213,13.1323976 56.7990862,12.795719 56.4689161,12.1347453 L60.7946017,10.3143589 L60.6477749,9.94052951 Z M26.1792264,8.85619218 L26.1792264,10.252441 L29.4634306,10.252441 C29.3660532,11.0380244 29.1081553,11.611539 28.7163635,12.0101355 C28.237845,12.4969651 27.4900172,13.0333289 26.1792264,13.0333289 C24.1563635,13.0333289 22.5755026,11.374703 22.5755026,9.31748058 C22.5755026,7.26025814 24.1563635,5.60085826 26.1792264,5.60085826 C27.2701573,5.60085826 28.0666738,6.0373795 28.6547419,6.5992845 L29.6231903,5.61401581 C28.8015687,4.8160488 27.7113985,4.20460947 26.1792264,4.20460947 C23.4085357,4.20460947 21.079847,6.49944187 21.079847,9.31748058 C21.079847,12.1347453 23.4085357,14.4295777 26.1792264,14.4295777 C27.6741213,14.4295777 28.8015687,13.9303646 29.6840512,12.9954042 C30.590878,12.0728274 30.8731203,10.7756473 30.8731203,9.72846068 C30.8731203,9.40493962 30.8487759,9.10541175 30.7993265,8.85619218 L26.1792264,8.85619218 Z M34.6069341,13.1323976 C33.6270742,13.1323976 32.7811083,12.3096634 32.7811083,11.137867 C32.7811083,9.95291309 33.6270742,9.14256249 34.6069341,9.14256249 C35.5875547,9.14256249 36.4335207,9.95291309 36.4335207,11.137867 C36.4335207,12.3096634 35.5875547,13.1323976 34.6069341,13.1323976 L34.6069341,13.1323976 Z M34.6069341,7.84538236 C32.8176248,7.84538236 31.3592464,9.23002153 31.3592464,11.137867 C31.3592464,13.0333289 32.8176248,14.4295777 34.6069341,14.4295777 C36.3970041,14.4295777 37.8553825,13.0333289 37.8553825,11.137867 C37.8553825,9.23002153 36.3970041,7.84538236 34.6069341,7.84538236 L34.6069341,7.84538236 Z M41.6926598,13.1323976 C40.7120392,13.1323976 39.8660732,12.3096634 39.8660732,11.137867 C39.8660732,9.95291309 40.7120392,9.14256249 41.6926598,9.14256249 C42.6732804,9.14256249 43.5184856,9.95291309 43.5184856,11.137867 C43.5184856,12.3096634 42.6732804,13.1323976 41.6926598,13.1323976 L41.6926598,13.1323976 Z M41.6926598,7.84538236 C39.9033505,7.84538236 38.4449721,9.23002153 38.4449721,11.137867 C38.4449721,13.0333289 39.9033505,14.4295777 41.6926598,14.4295777 C43.4819691,14.4295777 44.9403475,13.0333289 44.9403475,11.137867 C44.9403475,9.23002153 43.4819691,7.84538236 41.6926598,7.84538236 L41.6926598,7.84538236 Z" id="Fill-7" fill="#FFFFFF"></path>
        </g>
    </g>
</svg>