<svg width="24" height="24" viewBox="0 0 24 24" fill="none" xmlns="http://www.w3.org/2000/svg">
	<path fill-rule="evenodd" clip-rule="evenodd" d="M5.24901 5C4.00691 5 2.99999 5.99324 3 7.21845L3.00007 16.0008C3.00009 17.226 4.007 18.2192 5.24909 18.2192H7.14273V20.5554C7.14273 20.9577 7.64202 21.1524 7.92083 20.8587L10.427 18.2192H18.859C20.1011 18.2192 21.108 17.226 21.108 16.0008L21.1079 7.21842C21.1079 5.99322 20.101 5 18.8589 5H5.24901ZM8.2309 13.3243C8.38759 13.0879 8.46594 12.8175 8.46594 12.5128C8.46594 12.1813 8.38248 11.9063 8.21557 11.6879C8.04866 11.4695 7.75062 11.2651 7.32142 11.0747C6.87406 10.8731 6.59986 10.7343 6.4988 10.6581C6.39775 10.5819 6.34722 10.4957 6.34722 10.3994C6.34722 10.3098 6.38696 10.2347 6.46644 10.1743C6.54592 10.1138 6.67309 10.0836 6.84795 10.0836C7.18631 10.0836 7.58825 10.1888 8.05377 10.3994L8.46594 9.37459C7.93001 9.13939 7.40431 9.0218 6.88882 9.0218C6.30521 9.0218 5.8465 9.14835 5.51268 9.40147C5.17886 9.65459 5.01195 10.0074 5.01195 10.4599C5.01195 10.7018 5.05113 10.9112 5.12947 11.0882C5.20782 11.2651 5.32817 11.4219 5.49054 11.5586C5.65291 11.6952 5.89645 11.8363 6.22119 11.9819C6.57999 12.141 6.80083 12.2463 6.88371 12.2978C6.9666 12.3493 7.02678 12.4003 7.06425 12.4507C7.10172 12.5011 7.12045 12.5599 7.12045 12.6271C7.12045 12.7346 7.0739 12.8225 6.98079 12.8908C6.88769 12.9591 6.74122 12.9933 6.54138 12.9933C6.30975 12.9933 6.05542 12.9569 5.77837 12.8841C5.50132 12.8113 5.2345 12.7099 4.97789 12.58V13.7627C5.22087 13.877 5.45477 13.9571 5.67959 14.003C5.9044 14.0489 6.18258 14.0719 6.51413 14.0719C6.91153 14.0719 7.25784 14.0063 7.55305 13.8753C7.84826 13.7443 8.07421 13.5606 8.2309 13.3243ZM10.3873 10.4663L11.4058 14.0044H12.6865L13.6914 10.473H13.722C13.6948 11.0061 13.6795 11.341 13.676 11.4776C13.6726 11.6143 13.6709 11.7386 13.6709 11.8506V14.0044H14.9074V9.09206H13.1123L12.0938 12.5797H12.0666L11.0277 9.09206H9.23594V14.0044H10.4281V11.8708C10.4281 11.537 10.4043 11.0689 10.3566 10.4663H10.3873ZM19.2374 12.5128C19.2374 12.8175 19.1591 13.0879 19.0024 13.3243C18.8457 13.5606 18.6197 13.7443 18.3245 13.8753C18.0293 14.0063 17.683 14.0719 17.2856 14.0719C16.9541 14.0719 16.6759 14.0489 16.4511 14.003C16.2262 13.9571 15.9923 13.877 15.7494 13.7627V12.58C16.006 12.7099 16.2728 12.8113 16.5498 12.8841C16.8269 12.9569 17.0812 12.9933 17.3128 12.9933C17.5127 12.9933 17.6592 12.9591 17.7523 12.8908C17.8454 12.8225 17.8919 12.7346 17.8919 12.6271C17.8919 12.5599 17.8732 12.5011 17.8357 12.4507C17.7982 12.4003 17.7381 12.3493 17.6552 12.2978C17.5723 12.2463 17.3515 12.141 16.9927 11.9819C16.6679 11.8363 16.4244 11.6952 16.262 11.5586C16.0996 11.4219 15.9793 11.2651 15.9009 11.0882C15.8226 10.9112 15.7834 10.7018 15.7834 10.4599C15.7834 10.0074 15.9503 9.65459 16.2842 9.40147C16.618 9.14835 17.0767 9.0218 17.6603 9.0218C18.1758 9.0218 18.7015 9.13939 19.2374 9.37459L18.8252 10.3994C18.3597 10.1888 17.9578 10.0836 17.6194 10.0836C17.4446 10.0836 17.3174 10.1138 17.2379 10.1743C17.1584 10.2347 17.1187 10.3098 17.1187 10.3994C17.1187 10.4957 17.1692 10.5819 17.2703 10.6581C17.3713 10.7343 17.6455 10.8731 18.0929 11.0747C18.5221 11.2651 18.8201 11.4695 18.987 11.6879C19.154 11.9063 19.2374 12.1813 19.2374 12.5128Z" fill="#525C69"/>
</svg>
