<svg width="26" height="26" viewBox="0 0 26 26" fill="none" xmlns="http://www.w3.org/2000/svg">
	<path fill-rule="evenodd" clip-rule="evenodd" d="M16.5223 4.33203H5.19852C4.24157 4.33203 3.46582 5.10779 3.46582 6.06473V13.4447C3.46582 14.4017 4.24157 15.1774 5.19852 15.1774H6.65127V19.9041L11.378 15.1774H16.5223C17.4792 15.1774 18.255 14.4017 18.255 13.4447V6.06473C18.255 5.10779 17.4792 4.33203 16.5223 4.33203ZM9.51844 13.0389L6.75449 10.4304L7.88703 9.32665L9.51844 10.8314L13.9163 6.52798L15.0488 7.63173L9.51844 13.0389Z" fill="#BDC1C6"/>
	<path d="M10.4181 19.266H9.579L11.9975 16.8641H18.1586C19.1156 16.8641 19.8913 16.0883 19.8913 15.1314V8.6038H20.0931C21.05 8.6038 21.8258 9.37955 21.8258 10.3365V17.5333C21.8258 18.4902 21.05 19.266 20.0931 19.266H13.3788L10.4181 22.2266V19.266Z" fill="#BDC1C6"/>
</svg>