<svg width="26" height="26" viewBox="0 0 26 26" fill="none" xmlns="http://www.w3.org/2000/svg">
	<path d="M23.3024 7.57024C23.3024 9.91282 21.4033 11.8119 19.0607 11.8119C16.7182 11.8119 14.8191 9.91282 14.8191 7.57024C14.8191 5.22765 16.7182 3.32861 19.0607 3.32861C21.4033 3.32861 23.3024 5.22765 23.3024 7.57024Z" fill="#BDC1C6"/>
	<path d="M19.0607 13.8602C19.4953 13.8602 19.9197 13.8161 20.3295 13.7321V16.515C20.3295 17.6013 19.4488 18.482 18.3625 18.482H12.9942L7.95252 23.5237V18.482H6.52166C5.43533 18.482 4.55469 17.6013 4.55469 16.515V8.88078C4.55469 7.79445 5.43533 6.91381 6.52166 6.91381H12.8046C12.7822 7.12957 12.7708 7.34857 12.7708 7.57024C12.7708 11.0441 15.5869 13.8602 19.0607 13.8602Z" fill="#BDC1C6"/>
</svg>