<svg width="26" height="26" viewBox="0 0 26 26" fill="none" xmlns="http://www.w3.org/2000/svg">
	<path fill-rule="evenodd" clip-rule="evenodd" d="M18.2347 18.0956C18.2347 18.4024 17.9832 18.641 17.6599 18.641H6.91937C6.59607 18.641 6.34462 18.4024 6.34462 18.0956V7.90501C6.34462 7.59827 6.59607 7.35969 6.91937 7.35969H14.3192L16.3668 5.41699H6.23686C5.19513 5.41699 4.33301 6.23497 4.33301 7.22336V18.7773C4.33301 19.7657 5.19513 20.5837 6.23686 20.5837H18.4143C19.456 20.5837 20.3182 19.7657 20.3182 18.7773V14.3125L18.2706 16.2552V18.0956H18.2347ZM21.4676 7.90501L20.5337 7.01886C20.2822 6.78029 19.8871 6.78029 19.6716 7.01886L13.1697 13.1537L10.2601 10.393C10.0086 10.1544 9.61349 10.1544 9.39796 10.393L8.464 11.2792C8.21255 11.5177 8.21255 11.8926 8.464 12.0971L12.7746 16.187C12.9183 16.3234 13.1338 16.3915 13.3493 16.3574C13.4571 16.3234 13.5649 16.2893 13.6726 16.187L21.5395 8.72298C21.7191 8.51849 21.7191 8.14358 21.4676 7.90501Z" fill="white"/>
</svg>