<svg width="20" height="16" viewBox="0 0 20 16" fill="none" xmlns="http://www.w3.org/2000/svg">
	<path d="M19.678 7.99968C19.678 12.3892 16.1196 15.9476 11.73 15.9476C9.90108 15.9476 8.21642 15.3298 6.87332 14.2916L8.19081 12.684C9.17486 13.4287 10.4009 13.8704 11.73 13.8704C14.9724 13.8704 17.6008 11.242 17.6008 7.9997C17.6008 4.75739 14.9724 2.12898 11.73 2.12898C10.3896 2.12898 9.15414 2.57821 8.16591 3.33431L6.8486 1.72697C8.19572 0.677143 9.88984 0.0517578 11.73 0.0517578C16.1196 0.0517578 19.678 3.61016 19.678 7.99968Z" fill="#BDC1C6"/>
	<path d="M11.7302 11.9316C10.8674 11.9316 10.0696 11.6538 9.42126 11.1827L10.5817 9.7667C10.9121 9.98182 11.3065 10.1068 11.7301 10.1068C12.8938 10.1068 13.8372 9.16344 13.8372 7.99972C13.8372 6.836 12.8938 5.89262 11.7301 5.89262C11.2952 5.89262 10.8911 6.02435 10.5555 6.25007L9.3961 4.83536C10.0489 4.35306 10.8562 4.06794 11.7302 4.06794C13.9017 4.06794 15.662 5.82829 15.662 7.99979C15.662 10.1713 13.9017 11.9316 11.7302 11.9316Z" fill="#BDC1C6"/>
	<path d="M4.65613 2.99919L9.19223 8.11967L4.65613 13.2402V9.74503H0.608215V6.49441H4.65613V2.99919Z" fill="#BDC1C6"/>
</svg>