<svg width="86" height="87" viewBox="0 0 86 87" fill="none" xmlns="http://www.w3.org/2000/svg">
	<g filter="url(#filter0_d_13851_69305)">
		<rect x="8" y="4" width="70" height="70" rx="35" fill="white"/>
	</g>
	<path fill-rule="evenodd" clip-rule="evenodd" d="M43 63.9978C56.8072 63.9978 68 52.8055 68 38.9989C68 25.1924 56.8072 14 43 14C29.1929 14 18 25.1924 18 38.9989C18 52.8055 29.1929 63.9978 43 63.9978Z" fill="#9DCF00"/>
	<path d="M54.9069 50.4645C55.7701 50.1655 56.2505 49.262 56.068 48.367L55.5239 45.6985C55.5239 44.5241 53.8997 43.1826 50.7014 42.4008C49.6178 42.1151 48.5877 41.6721 47.648 41.0877C47.4424 40.9766 47.4737 39.951 47.4737 39.951L46.4436 39.8028C46.4436 39.7196 46.3555 38.4897 46.3555 38.4897C47.588 38.0982 47.4612 35.789 47.4612 35.789C48.2439 36.1993 48.7536 34.3719 48.7536 34.3719C49.6794 31.8329 48.2926 31.9865 48.2926 31.9865C48.5352 30.4365 48.5352 28.8612 48.2926 27.3113C47.6761 22.1696 38.3933 23.5654 39.494 25.2447C36.781 24.7723 37.4001 30.6072 37.4001 30.6072L37.9885 32.1181C37.1729 32.6182 37.3331 33.1921 37.512 33.8331C37.5866 34.1004 37.6644 34.3793 37.6762 34.6695C37.733 36.1255 38.6757 35.8238 38.6757 35.8238C38.7338 38.2269 39.9875 38.5399 39.9875 38.5399C40.223 40.0491 40.0762 39.7922 40.0762 39.7922L38.9605 39.9197C38.9756 40.2629 38.9461 40.6066 38.8725 40.943C38.2242 41.2161 37.8274 41.4334 37.4345 41.6485C37.0322 41.8688 36.6341 42.0868 35.9746 42.3601C33.4559 43.4034 30.7185 44.7603 30.2319 46.5871C30.0983 47.0885 29.9673 47.7521 29.8476 48.4509C29.7 49.3122 30.1852 50.1573 31.0104 50.4448C34.3711 51.6159 38.1574 52.3095 42.1716 52.3925H43.8023C47.794 52.31 51.5603 51.6236 54.9069 50.4645Z" fill="white"/>
	<circle cx="43" cy="77" r="10" fill="#ECFAFE"/>
	<path d="M43.0006 68.6911C38.4121 68.6911 34.6924 72.4108 34.6924 76.9993C34.6924 81.5879 38.4121 85.3076 43.0006 85.3076C47.5892 85.3076 51.3089 81.5879 51.3089 76.9993C51.3089 72.4108 47.5892 68.6911 43.0006 68.6911Z" fill="url(#paint0_linear_13851_69305)"/>
	<path d="M46.9806 73.3709L45.5309 80.6801C45.5309 80.6801 45.3281 81.187 44.7706 80.9437L41.4252 78.3788L40.2086 77.7909L38.1608 77.1015C38.1608 77.1015 37.8466 76.99 37.8162 76.7467C37.7858 76.5034 38.171 76.3716 38.171 76.3716L46.3115 73.1782C46.3115 73.1782 46.9806 72.8842 46.9806 73.3709Z" fill="white"/>
	<path d="M41.1684 80.5977C41.1684 80.5977 41.0707 80.5885 40.9491 80.2032C40.8274 79.818 40.209 77.7905 40.209 77.7905L45.1258 74.6681C45.1258 74.6681 45.4096 74.4958 45.3995 74.6681C45.3995 74.6681 45.4502 74.6985 45.2981 74.8404C45.146 74.9824 41.4357 78.3176 41.4357 78.3176" fill="#E5F9FF"/>
	<path d="M42.7078 79.3613L41.3846 80.5678C41.3846 80.5678 41.2811 80.6463 41.168 80.5971L41.4213 78.3561" fill="#A8ADB4"/>
	<defs>
		<filter id="filter0_d_13851_69305" x="0" y="0" width="86" height="86" filterUnits="userSpaceOnUse" color-interpolation-filters="sRGB">
			<feFlood flood-opacity="0" result="BackgroundImageFix"/>
			<feColorMatrix in="SourceAlpha" type="matrix" values="0 0 0 0 0 0 0 0 0 0 0 0 0 0 0 0 0 0 127 0" result="hardAlpha"/>
			<feOffset dy="4"/>
			<feGaussianBlur stdDeviation="4"/>
			<feComposite in2="hardAlpha" operator="out"/>
			<feColorMatrix type="matrix" values="0 0 0 0 0 0 0 0 0 0 0 0 0 0 0 0 0 0 0.06 0"/>
			<feBlend mode="normal" in2="BackgroundImageFix" result="effect1_dropShadow_13851_69305"/>
			<feBlend mode="normal" in="SourceGraphic" in2="effect1_dropShadow_13851_69305" result="shape"/>
		</filter>
		<linearGradient id="paint0_linear_13851_69305" x1="43.0006" y1="68.6911" x2="43.0006" y2="85.247" gradientUnits="userSpaceOnUse">
			<stop stop-color="#42BDE9"/>
			<stop offset="1" stop-color="#23A8DD"/>
		</linearGradient>
	</defs>
</svg>
