<svg width="66" height="67" viewBox="0 0 66 67" fill="none" xmlns="http://www.w3.org/2000/svg">
<g filter="url(#filter0_d)">
<path fill-rule="evenodd" clip-rule="evenodd" d="M33 63.5C50.1208 63.5 64 49.6208 64 32.5C64 15.3792 50.1208 1.5 33 1.5C15.8792 1.5 2 15.3792 2 32.5C2 49.6208 15.8792 63.5 33 63.5Z" fill="white"/>
</g>
<path fill-rule="evenodd" clip-rule="evenodd" d="M33 54.5C45.1503 54.5 55 44.6503 55 32.5C55 20.3497 45.1503 10.5 33 10.5C20.8497 10.5 11 20.3497 11 32.5C11 44.6503 20.8497 54.5 33 54.5Z" fill="#FB6DBA"/>
<path fill-rule="evenodd" clip-rule="evenodd" d="M37.4214 30.4485C38.4223 28.7486 39.3687 27.1418 40.3876 25.4111H27.2009V35.5072H40.3989C39.355 33.7337 38.4071 32.1228 37.4214 30.4485V30.4485ZM24.8947 23.2369C31.0155 23.2369 37.2843 23.2364 43.2955 23.239C43.4968 23.239 43.6982 23.2696 44.0777 23.3003C42.6381 25.7226 41.267 28.0295 39.8341 30.4405C41.2252 32.7896 42.6125 35.1321 44.1161 37.6703H27.1253V43.6508C26.4359 43.9685 25.5862 43.8301 24.8947 43.7953V23.2369Z" fill="white"/>
<defs>
<filter id="filter0_d" x="0" y="0.5" width="66" height="66" filterUnits="userSpaceOnUse" color-interpolation-filters="sRGB">
<feFlood flood-opacity="0" result="BackgroundImageFix"/>
<feColorMatrix in="SourceAlpha" type="matrix" values="0 0 0 0 0 0 0 0 0 0 0 0 0 0 0 0 0 0 127 0"/>
<feOffset dy="1"/>
<feGaussianBlur stdDeviation="1"/>
<feColorMatrix type="matrix" values="0 0 0 0 0 0 0 0 0 0 0 0 0 0 0 0 0 0 0.06 0"/>
<feBlend mode="normal" in2="BackgroundImageFix" result="effect1_dropShadow"/>
<feBlend mode="normal" in="SourceGraphic" in2="effect1_dropShadow" result="shape"/>
</filter>
</defs>
</svg>
