<svg xmlns="http://www.w3.org/2000/svg" width="43" height="280" viewBox="0 0 43 280">
  <g fill="none" fill-rule="evenodd">
    <path fill="#31C2F3" d="M21.431,0.989 L2.576,0.989 C1.12532383,1.03900254 -0.0162908619,2.24475789 0.013,3.696 L0.013,16.259 C-0.0479658783,17.6757455 1.03755079,18.8800461 2.453,18.966 L21.478,18.966 C22.9282791,18.9160002 24.0697367,17.7108562 24.041,16.26 L24.041,3.747 C24.0518002,2.27633657 22.9000244,1.05924933 21.431,0.989 L21.431,0.989 Z M19.159,3.489 L11.959,9.26 L4.759,3.489 L19.166,3.489 L19.159,3.489 Z M21.673,15.644 C21.6810997,15.8556355 21.6035583,16.0616033 21.4579005,16.2153531 C21.3122428,16.369103 21.1107641,16.4576565 20.899,16.461 L3.122,16.461 C2.9151585,16.4525246 2.72044233,16.3611193 2.58177993,16.2074054 C2.44311753,16.0536914 2.37219045,15.8506184 2.385,15.644 L2.385,12.207 L2.385,12.207 L2.385,5.075 C2.4685956,5.18863763 2.56601117,5.29142785 2.675,5.381 L11.184,12.173 C11.3566193,12.3296812 11.5790374,12.4203485 11.812,12.429 L12.199,12.429 C12.4264992,12.3965822 12.6425209,12.3086624 12.828,12.173 L21.336,5.381 C21.4739947,5.26708959 21.5881726,5.12708566 21.672,4.969 L21.672,15.643 L21.673,15.644 Z"/>
    <path fill="#31C2F3" d="M11.934,4.132 C11.4415569,4.07291133 10.9488954,4.24040787 10.5945137,4.58740253 C10.2401321,4.93439719 10.0622963,5.42342164 10.111,5.917 C10.134267,6.91348185 10.9487466,7.70916602 11.9455,7.70916602 C12.9422534,7.70916602 13.756733,6.91348185 13.78,5.917 C13.8280832,5.41938737 13.6467073,4.92699569 13.2873151,4.57947941 C12.927923,4.23196312 12.4297167,4.06722911 11.934,4.132 M13.734,9.362 L9.534,9.362 L9.322,11 L10.414,11.386 C10.5996722,11.4368513 10.7150532,11.6218964 10.679,11.811 L10.679,16.651 C10.679,16.951 10.638,17.015 10.354,17.057 L9.322,17.197 L9.322,18.797 L15.1,18.797 L15.1,17.197 L14.066,17.057 C13.766,17.015 13.74,16.974 13.74,16.652 L13.74,9.363 M12,21.468 C6.77096799,21.468 2.532,17.229032 2.532,12 C2.532,6.77096799 6.77096799,2.532 12,2.532 C17.229032,2.532 21.468,6.77096799 21.468,12 C21.468,17.229032 17.229032,21.468 12,21.468 M12,0 C5.372583,0 0,5.372583 0,12 C0,18.627417 5.372583,24 12,24 C18.627417,24 24,18.627417 24,12 C24,5.372583 18.627417,0 12,0" transform="translate(0 22)"/>
    <path fill="#31C2F3" d="M22.358,-1.94844137e-14 L1.642,-1.94844137e-14 C0.73319418,0.0157671743 0.00367089426,0.755064828 2.27373675e-13,1.664 L2.27373675e-13,7.391 C0.00367089426,8.29993517 0.73319418,9.03923283 1.642,9.055 L22.358,9.055 C23.2664188,9.0392419 23.9957869,8.30054568 24,7.392 L24,1.664 C24.0067058,1.22447417 23.8365778,0.800676031 23.5278252,0.487786667 C23.2190726,0.174897303 22.7975762,-0.000855746565 22.358,-5.27355852e-15 L22.358,-1.94844137e-14 Z M21.634,6.07 C21.632952,6.36397545 21.3969365,6.60310225 21.103,6.608 L2.946,6.608 C2.65167203,6.60364101 2.41505795,6.36435834 2.414,6.07 L2.414,2.937 C2.41505795,2.64264166 2.65167203,2.40335899 2.946,2.399 L21.1,2.399 C21.3939365,2.40389775 21.629952,2.64302455 21.631,2.937 L21.631,6.07 L21.634,6.07 Z M22.358,11.944 L1.642,11.944 C0.73319418,11.9597672 0.00367089426,12.6990648 2.27373675e-13,13.608 L2.27373675e-13,19.336 C0.00313873636,20.2451547 0.732967597,20.984762 1.642,21 L22.358,21 C23.2668058,20.9842328 23.9963291,20.2449352 24,19.336 L24,13.608 C24.0067058,13.1684742 23.8365778,12.744676 23.5278252,12.4317867 C23.2190726,12.1188973 22.7975762,11.9431443 22.358,11.944 L22.358,11.944 Z M21.634,18.014 C21.6334866,18.3081957 21.3971637,18.5476339 21.103,18.552 L2.946,18.552 C2.65167203,18.547641 2.41505795,18.3083583 2.414,18.014 L2.414,14.881 C2.41505795,14.5866417 2.65167203,14.347359 2.946,14.343 L21.1,14.343 C21.3941637,14.3473661 21.6304866,14.5868043 21.631,14.881 L21.631,18.014 L21.634,18.014 Z" transform="translate(0 49)"/>
    <path fill="#31C2F3" d="M16.676,10.209 C16.1833952,10.1495806 15.690442,10.3169296 15.3358222,10.6639671 C14.9812024,11.0110045 14.8032397,11.5002261 14.852,11.994 C14.875267,12.9904818 15.6897466,13.786166 16.6865,13.786166 C17.6832534,13.786166 18.497733,12.9904818 18.521,11.994 C18.5690235,11.4965849 18.3877744,11.0043932 18.0286218,10.6569203 C17.6694691,10.3094475 17.1715562,10.1445637 16.676,10.209 M11.976,10.209 C11.4835569,10.1499113 10.9908954,10.3174079 10.6365137,10.6644025 C10.2821321,11.0113972 10.1042963,11.5004216 10.153,11.994 C10.176267,12.9904818 10.9907466,13.786166 11.9875,13.786166 C12.9842534,13.786166 13.798733,12.9904818 13.822,11.994 C13.8700832,11.4963874 13.6887073,11.0039957 13.3293151,10.6564794 C12.969923,10.3089631 12.4717167,10.1442291 11.976,10.209 M7.208,10.209 C6.71539516,10.1495806 6.22244199,10.3169296 5.8678222,10.6639671 C5.5132024,11.0110045 5.33523968,11.5002261 5.384,11.994 C5.40726699,12.9904818 6.22174656,13.786166 7.2185,13.786166 C8.21525344,13.786166 9.02973301,12.9904818 9.053,11.994 C9.10102352,11.4965849 8.91977443,11.0043932 8.56062179,10.6569203 C8.20146914,10.3094475 7.70355625,10.1445637 7.208,10.209 M12,21.468 C8.17055147,21.468 4.7181751,19.1611959 3.25270859,15.6232467 C1.78724208,12.0852976 2.59728397,8.01294202 5.305113,5.305113 C8.01294202,2.59728397 12.0852976,1.78724208 15.6232467,3.25270859 C19.1611959,4.7181751 21.468,8.17055147 21.468,12 C21.468,17.229032 17.229032,21.468 12,21.468 M12,0 C5.372583,0 -1.13686838e-13,5.372583 -1.13686838e-13,12 C-1.13686838e-13,18.627417 5.372583,24 12,24 C18.627417,24 24,18.627417 24,12 C24,5.372583 18.627417,0 12,0" transform="translate(0 73)"/>
    <path fill="#31C2F3" d="M16.967,16.485 C16.6749089,16.127135 16.2374357,15.919508 15.7755,15.919508 C15.3135643,15.919508 14.8760911,16.127135 14.584,16.485 C14.026,17.059 13.61,17.244 13.062,17.828 C13.0143918,17.9025149 12.938154,17.9540908 12.8512757,17.970558 C12.7643974,17.9870251 12.6745739,17.9669248 12.603,17.915 C12.242,17.715 11.858,17.546 11.512,17.322 C9.91587372,16.2462823 8.5077142,14.9151526 7.344,13.382 C6.73140494,12.6281948 6.22843017,11.7915868 5.85,10.897 C5.76471436,10.7440527 5.80042523,10.5520542 5.935,10.44 C6.492,9.881 6.679,9.676 7.227,9.102 C7.59192069,8.78206026 7.80117328,8.32031283 7.80117328,7.835 C7.80117328,7.34968717 7.59192069,6.88793974 7.227,6.568 C6.7891138,6.06706249 6.3845777,5.53792526 6.016,4.984 C5.69504515,4.43990799 5.33122606,3.92226832 4.928,3.436 C4.63371459,3.08138561 4.19682021,2.87621029 3.736,2.87621029 C3.27517979,2.87621029 2.83828541,3.08138561 2.544,3.436 C1.983,4.01 1.444,4.598 0.873,5.163 C0.360629746,5.66707212 0.0562061104,6.34515524 0.02,7.063 C-0.0292815784,8.2485395 0.175283775,9.43092724 0.62,10.531 C1.45697564,12.7972831 2.67443955,14.904172 4.22,16.761 C6.22257446,19.2657931 8.73919719,21.3118278 11.6,22.761 C12.8608627,23.4523156 14.251564,23.8742252 15.684,24 C16.6568807,24.1102593 17.620811,23.7289613 18.255,22.983 C18.733,22.429 19.271,21.923 19.777,21.393 C20.13396,21.0720062 20.3385634,20.6150525 20.3402779,20.1349956 C20.3419924,19.6549388 20.1406582,19.1965353 19.786,18.873 C18.9,17.944 17.862,17.409 16.967,16.485 L16.967,16.485 Z M16.587,12.31 L16.794,12.273 C17.0144773,12.2297462 17.2066032,12.0957721 17.3234008,11.9038361 C17.4401983,11.7119 17.4709004,11.4796957 17.408,11.264 C17.0496353,9.96427392 16.3728959,8.77439478 15.439,7.802 C14.4701226,6.78319669 13.2378531,6.05283473 11.879,5.692 C11.6625347,5.63883296 11.4336577,5.68144231 11.2508271,5.80894508 C11.0679966,5.93644786 10.948916,6.13649794 10.924,6.358 L10.895,6.576 C10.834948,6.97644637 11.0835739,7.35861746 11.474,7.466 C12.5152457,7.74769482 13.4592005,8.30977862 14.203,9.091 C14.9211151,9.83727603 15.4418206,10.7508306 15.718,11.749 C15.81944,12.1322719 16.195952,12.3753366 16.587,12.31 L16.587,12.31 Z M18.572,4.635 C16.8218881,2.79386809 14.5561514,1.52470698 12.072,0.994 C11.860025,0.954296476 11.6410882,1.00459678 11.467698,1.13283725 C11.2943078,1.26107771 11.1821052,1.45569012 11.158,1.67 L11.129,1.888 C11.065916,2.30130789 11.3317277,2.69348916 11.739,2.788 C13.8778465,3.2506418 15.8286447,4.34448217 17.339,5.928 C18.8005728,7.44689031 19.8201649,9.33567687 20.288,11.391 C20.3720673,11.7969443 20.7607055,12.0648491 21.17,11.999 L21.375,11.963 C21.5904118,11.9205724 21.7789201,11.7914801 21.8963504,11.6059741 C22.0137808,11.4204682 22.0498118,11.1948536 21.996,10.982 C21.4523769,8.59459412 20.2686676,6.40037588 18.572,4.635 L18.572,4.635 Z" transform="translate(0 154)"/>
    <path fill="#31C2F3" d="M21.587,5.161 L20.228,5.161 L20.228,11.026 C20.2142478,12.9753169 18.6283625,14.5473497 16.679,14.544 L9.579,14.544 L7.079,17.13 C7.46713714,17.3787188 7.91801511,17.5119012 8.379,17.514 L15.039,17.514 C16.423,19.106 18.163,21.076 18.62,21.46 C18.8777683,21.7296506 19.2092109,21.9174565 19.573,22 C19.643698,21.998663 19.7099636,21.9652935 19.753133,21.90929 C19.7963023,21.8532865 19.811704,21.7807093 19.795,21.712 L19.795,17.512 L21.585,17.512 C22.910021,17.5153458 23.9890036,16.4479795 24,15.123 L24,7.552 C23.9976198,6.91478277 23.7419261,6.30467021 23.2892836,5.8561546 C22.8366411,5.407639 22.2242123,5.15754394 21.587,5.161 M15.619,1.34838396e-14 L2.413,1.34838396e-14 C1.08798449,-0.00223708651 0.00989861514,1.06601957 0,2.391 L0,9.95 C0.00989861514,11.2749804 1.08798449,12.3432371 2.413,12.341 L4.203,12.341 L4.203,16.541 C4.18595116,16.6101206 4.20129613,16.6832431 4.24469331,16.7396789 C4.28809049,16.7961147 4.35481933,16.8297249 4.426,16.831 C4.78966381,16.7477175 5.12076165,16.5592143 5.378,16.289 C5.841,15.905 7.578,13.935 8.959,12.343 L15.619,12.343 L15.619,12.349 C16.9438505,12.3512338 18.0216487,11.2828194 18.031,9.958 L18.031,2.393 C18.0227442,1.06739826 16.9446256,-0.00222774695 15.619,1.34838396e-14" transform="translate(0 183)"/>
    <path fill="#31C2F3" d="M9.509,16.375 C8.882,15.742 8.254,15.109 7.616,14.487 C7.44705332,14.3713625 7.4024828,14.1413786 7.516,13.971 C7.731,13.571 7.904,13.143 8.139,12.758 C9.26465979,10.9973903 10.6791588,9.43921018 12.323,8.149 C13.1239901,7.4760246 14.0195651,6.9244609 14.981,6.512 C15.1479154,6.41972359 15.3571139,6.46207146 15.475,6.612 C16.087,7.244 16.714,7.861 17.342,8.484 C17.6740342,8.8950501 18.1721053,9.13658264 18.7004712,9.14277141 C19.2288371,9.14896018 19.732429,8.91916014 20.074,8.516 C20.561,8.035 21.036,7.554 21.523,7.073 C22.01,6.592 22.523,6.085 23.012,5.583 C23.3904531,5.23962636 23.6027659,4.74994734 23.5947255,4.23899964 C23.5866851,3.72805194 23.3590698,3.24529573 22.97,2.914 C22.342,2.276 21.699,1.664 21.082,1.014 C20.5422562,0.438217182 19.8052051,0.0871894528 19.018,0.031 C17.7436601,-0.0431409699 16.4688727,0.168697179 15.287,0.651 C12.8496727,1.55828538 10.5934357,2.89245525 8.624,4.591 C5.9365568,6.82191417 3.76843288,9.61252479 2.271,12.768 C1.54196202,14.1860489 1.11046423,15.7381478 1.003,17.329 C0.897640106,18.4214984 1.31962294,19.4987433 2.139,20.229 C2.744,20.772 3.298,21.383 3.877,21.957 C4.20924928,22.3610185 4.70191576,22.5990723 5.2249217,22.6083086 C5.74792765,22.617545 6.24869238,22.3970352 6.595,22.005 C7.583,21.0223333 8.56733333,20.036 9.548,19.046 C9.93116977,18.7050988 10.1471095,18.2143893 10.1396218,17.7015768 C10.1321341,17.1887644 9.90195948,16.7045687 9.509,16.375 L9.509,16.375 Z" transform="translate(-1 127)"/>
    <path fill="#000000" d="M12.68,10.719 L2.87,1.279 C2.43239396,0.865020012 1.74760604,0.865020012 1.31,1.279 C1.10348795,1.47379116 0.986432682,1.74511477 0.986432682,2.029 C0.986432682,2.31288523 1.10348795,2.58420884 1.31,2.779 L10.34,11.47 L1.31,20.162 C1.10375557,20.3569393 0.986889272,20.6282077 0.986889272,20.912 C0.986889272,21.1957923 1.10375557,21.4670607 1.31,21.662 C1.74760604,22.07598 2.43239396,22.07598 2.87,21.662 L12.68,12.222 C12.8869417,12.0268285 13.0042428,11.7549588 13.0042428,11.4705 C13.0042428,11.1860412 12.8869417,10.9141715 12.68,10.719 L12.68,10.719 Z" transform="translate(0 216)" opacity=".602"/>
    <polygon fill="#535C69" points="11.824 9.49 11.824 3.657 9.49 3.657 9.49 9.49 3.657 9.49 3.657 11.824 9.49 11.824 9.49 17.657 11.824 17.657 11.824 11.824 17.657 11.824 17.657 9.49" transform="rotate(45 -287.499 134.157)"/>
    <circle cx="4" cy="4" r="4" fill="#535C69" transform="translate(31 6)" opacity=".6"/>
    <circle cx="4" cy="4" r="4" fill="#535C69" transform="translate(31 22)" opacity=".2"/>
    <path fill="#31C2F3" d="M0.0660523256,8.28101983 L3.30151744,8.28101983 L3.30151744,23.9297677 L6.27313953,23.9297677 L6.27313953,5.0525779 L0,5.0525779 L0,8.28101983 L0.0661133721,8.28101983 L0.0660523256,8.28101983 Z M15.8476744,11.7192068 C15.8476744,7.01765439 19.4134622,3.22803399 23.837686,3.22803399 C28.1298052,3.22803399 31.695593,6.87705382 31.8276366,11.4386176 L34.7991366,11.4386176 C34.6672151,5.12274221 29.7808692,0 23.7718779,0 C17.6968343,0 12.744314,5.2632068 12.744314,11.7192068 C12.744314,18.1752068 17.6968343,23.4385496 23.7718779,23.4385496 L41.9340087,23.4385496 L41.9340087,20.2806119 L23.7718779,20.2806119 C19.4136453,20.2103796 15.8480407,16.4209632 15.8480407,11.7192068 L15.8480407,11.7192068 L15.8476744,11.7192068 Z M2.57530814,3.50875921 L7.59381977,3.50875921 L7.59381977,24 L10.5653198,24 L10.5653198,0.350753541 L2.57530814,0.350753541 L2.57530814,3.50875921 L2.57530814,3.50875921 L2.57530814,3.50875921 Z M20.0740465,11.7192068 C20.0740465,9.54356941 21.7908576,7.71929745 23.8378692,7.71929745 C25.8187674,7.71929745 27.4697093,9.33341643 27.6017529,11.4382776 L30.5731308,11.4382776 C30.4412093,7.57869688 27.4697093,4.56095184 23.8378692,4.56095184 C20.1399767,4.56095184 17.1024244,7.78898584 17.1024244,11.7188669 C17.1024244,15.6487479 20.1399767,18.8767819 23.8378692,18.8767819 L42,18.8767819 L42,15.7193201 L23.8378692,15.7193201 C21.7908576,15.7193201 20.0740465,13.8947082 20.0740465,11.7192068 L20.0740465,11.7192068 Z" transform="translate(0 101)"/>
    <path fill="#000000" d="M12.68,10.719 L2.87,1.279 C2.43239396,0.865020012 1.74760604,0.865020012 1.31,1.279 C1.10348795,1.47379116 0.986432682,1.74511477 0.986432682,2.029 C0.986432682,2.31288523 1.10348795,2.58420884 1.31,2.779 L10.34,11.47 L1.31,20.162 C1.10375557,20.3569393 0.986889272,20.6282077 0.986889272,20.912 C0.986889272,21.1957923 1.10375557,21.4670607 1.31,21.662 C1.74760604,22.07598 2.43239396,22.07598 2.87,21.662 L12.68,12.222 C12.8869417,12.0268285 13.0042428,11.7549588 13.0042428,11.4705 C13.0042428,11.1860412 12.8869417,10.9141715 12.68,10.719 L12.68,10.719 Z" transform="matrix(-1 0 0 1 37 216)" opacity=".603"/>
  </g>
</svg>
