<svg width="10" height="10" viewBox="0 0 10 10" fill="none" xmlns="http://www.w3.org/2000/svg">
<path fill-rule="evenodd" clip-rule="evenodd" d="M1.87281 1.39858C2.20508 1.10736 2.71052 1.14064 3.00174 1.47291L5.00584 3.75953L7.00994 1.47291C7.30116 1.14064 7.80659 1.10736 8.13886 1.39858C8.47114 1.68979 8.50442 2.19523 8.2132 2.5275L6.06962 4.97326L8.21305 7.41886C8.50426 7.75113 8.47098 8.25656 8.13871 8.54778C7.80644 8.839 7.30101 8.80572 7.00979 8.47345L5.00584 6.187L3.00189 8.47345C2.71067 8.80572 2.20523 8.839 1.87296 8.54778C1.54069 8.25656 1.50741 7.75113 1.79863 7.41886L3.94206 4.97326L1.79848 2.5275C1.50726 2.19523 1.54054 1.68979 1.87281 1.39858Z" fill="#FAA72C"/>
</svg>
