<svg xmlns:xlink="http://www.w3.org/1999/xlink" class="defs-only" xmlns="http://www.w3.org/2000/svg" style="width:100%;height:1200px"><svg height="1200"><rect fill="#EBF1F4" width="100%" height="1200"/><path fill="#fff" d="M231 12h437v39H231z"/></svg><svg height="1200" id="h"><rect fill="#DEE2E6" rx="2" ry="2" width="175" height="12" x="26" y="26"/><rect fill="#ECEDEF" rx="2" ry="2" width="123" height="7" x="248" y="28"/><rect fill="#3BC8F5" stroke="#3BC8F5" rx="2" ry="2" width="190" height="39" x="100%" y="12" transform="translate(-210)"/><rect fill="#62D3F7" rx="2" ry="2" width="165" height="12" x="100%" y="26" transform="translate(-200)"/><rect fill="transparent" stroke="#868D95" opacity=".2" rx="2" ry="2" width="39" height="39" x="100%" y="12" transform="translate(-265)"/><rect fill="#DEE2E6" rx="2" ry="2" width="14" height="14" x="100%" y="25" transform="translate(-252)"/><rect fill="transparent" stroke="#868D95" opacity=".2" rx="2" ry="2" width="100" height="39" x="100%" y="12" transform="translate(-380)"/><rect fill="#DEE2E6" rx="2" ry="2" width="75" height="13" x="100%" y="25" transform="translate(-368)"/><line stroke="#DEE2E6" x1="20" y1="124" x2="100%" y2="124"/><rect fill="#DEE2E6" rx="2" ry="2" width="284" height="6" x="40" y="93"/><rect fill="#DEE2E6" rx="2" ry="2" width="40" height="6" x="100%" y="93" transform="translate(-80)"/><rect fill="#DEE2E6" rx="2" ry="2" width="90" height="6" x="100%" y="93" transform="translate(-190)"/><rect fill="#DEE2E6" rx="2" ry="2" width="40" height="6" x="100%" y="93" transform="translate(-250)"/><line stroke="#DEE2E6" x1="20" y1="70" x2="100%" y2="70"/></svg><svg viewBox="0 0 580 500" x="20" y="153" preserveAspectRatio="xMinYMin meet">&gt;<defs><svg id="a"><path fill="#fff" d="M0 0h120v120H0z"/></svg><g id="b"><use xlink:href="#a" width="100" height="100"/><use xlink:href="#a" width="100" height="100" x="110"/><use xlink:href="#a" width="100" height="100" x="220"/><use xlink:href="#a" width="100" height="100" x="330"/><use xlink:href="#a" width="100" height="100" x="440"/></g></defs><use xlink:href="#b"/><use xlink:href="#b" y="110"/><use xlink:href="#b" y="220"/><use xlink:href="#b" y="330"/><use xlink:href="#b" y="440"/></svg><svg viewBox="0 0 580 500" x="20" y="153" id="i" preserveAspectRatio="xMinYMin meet">&gt;<defs><svg id="c" viewBox="0 0 120 100" xmlns="http://www.w3.org/2000/svg" xmlns:xlink="http://www.w3.org/1999/xlink" preserveAspectRatio="xMinYMin meet"><path fill="#ECEDEF" d="M0 18h120v82H0z"/><path fill="#E1E4E6" transform="matrix(1 0 0 -1 0 28)" d="M0 10h120v8H0z"/><path fill="#E1E4E6" transform="matrix(1 0 0 -1 0 10)" d="M0 0h67.784L58 10H0z"/></svg><svg id="d"><rect fill="#DEE2E6" width="5" height="5" x="7" y="7" rx="2" ry="2"/><rect fill="#DEE2E6" width="50" height="5" x="7" y="85" rx="2" ry="2"/><use xlink:href="#c" width="50" y="25" x="25"/></svg><g id="e"><use xlink:href="#d" width="100" height="100"/><use xlink:href="#d" width="100" height="100" x="110"/><use xlink:href="#d" width="100" height="100" x="220"/><use xlink:href="#d" width="100" height="100" x="330"/><use xlink:href="#d" width="100" height="100" x="440"/></g></defs><use xlink:href="#e"/><use xlink:href="#e" y="110"/><use xlink:href="#e" y="220"/><use xlink:href="#e" y="330"/><use xlink:href="#e" y="440"/></svg><rect id="j" width="100%" fill="url(#f)" mask="url(#g)" height="1200"/><mask id="g" fill="#fff"><use xlink:href="#h"/><use xlink:href="#i"/></mask><linearGradient x1="66.6%" y1="50%" x2="33.3%" y2="50%" id="f"><stop stop-opacity="0" offset="0%"/><stop stop-opacity=".07" offset="50%"/><stop stop-opacity="0" offset="100%"/></linearGradient><animate xlink:href="#j" attributeName="x" from="-100%" to="100%" dur="1s" begin="0s" repeatCount="indefinite"/><svg viewBox="0 0 100% 1200" height="1200"><rect fill="#EBF1F4" width="20" height="1200" x="100%" transform="translate(-20)"/></svg></svg>