<svg xmlns:xlink="http://www.w3.org/1999/xlink" id="svg_wrapper" class="defs-only" xmlns="http://www.w3.org/2000/svg" style="width: 100%; height: 1200px">
    <svg height="1200px">
        <rect fill="#EBF1F4" width="100%" height="1200"/>
        <rect fill="#FFFFFF" width="100%" height="1200" x="20" y="68"/>
    </svg>

    <svg height="1200px" id="header">
        <rect fill="#DEE2E6" rx="2" ry="2" width="175"  height="12" x="40" y="26"/>
        <line stroke="#DEE2E6" x1="20" y1="108" x2="100%" y2="108"/>
        <rect fill="#DEE2E6" rx="2" ry="2" width="89"  height="9" x="45" y="84"/>
        <rect fill="#DEE2E6" rx="2" ry="2" width="69"  height="9" x="166" y="84"/>
        <rect fill="#DEE2E6" rx="2" ry="2" width="69"  height="9" x="261" y="84"/>
        <rect fill="#DEE2E6" rx="2" ry="2" width="69"  height="9" x="356" y="84"/>
        <rect fill="#DEE2E6" rx="2" ry="2" width="69"  height="9" x="451" y="84"/>
        <rect fill="#DEE2E6" rx="2" ry="2" width="188"  height="9" x="45" y="139"/>

        <defs>
            <g id="posts">
                <circle fill="#DEE2E6" r="25" cx="45" cy="45"/>
                <rect fill="#DEE2E6" rx="2" ry="2" width="156"  height="8" x="87" y="28"/>
                <rect fill="#DEE2E6" rx="2" ry="2" width="280"  height="8" x="264" y="28"/>
                <rect fill="#DEE2E6" rx="2" ry="2" width="79"  height="5" x="87" y="50"/>
                <rect fill="#DEE2E6" rx="2" ry="2" width="860"  height="5" x="87" y="80"/>
                <rect fill="#DEE2E6" rx="2" ry="2" width="860"  height="5" x="87" y="100"/>
                <rect fill="#DEE2E6" rx="2" ry="2" width="860"  height="5" x="87" y="120"/>
                <rect fill="#DEE2E6" rx="2" ry="2" width="860"  height="5" x="87" y="140"/>
                <rect fill="#DEE2E6" rx="2" ry="2" width="860"  height="5" x="87" y="160"/>
                <rect fill="#DEE2E6" rx="2" ry="2" width="860"  height="5" x="87" y="180"/>
                <rect fill="#DEE2E6" rx="2" ry="2" width="860"  height="5" x="87" y="200"/>
                <rect fill="#DEE2E6" rx="2" ry="2" width="860"  height="5" x="87" y="220"/>
                <rect fill="#DEE2E6" rx="2" ry="2" width="860"  height="5" x="87" y="240"/>
                <rect fill="#DEE2E6" rx="2" ry="2" width="860"  height="5" x="87" y="260"/>
                <rect fill="#DEE2E6" rx="2" ry="2" width="400"  height="5" x="87" y="280"/>
            </g>
        </defs>

        <use xlink:href="#posts" y="205" x="20" width="100%" height="400"/>
        <use xlink:href="#posts" y="575" x="20" width="100%" height="400"/>
        <use xlink:href="#posts" y="930" x="20" width="100%" height="400"/>
    </svg>


    <rect id="msk1" width="100%" fill="url(#msk_gd)" mask="url(#headerMsk)" height="1200"/>

    <mask id="headerMsk" fill="white">
        <use xlink:href="#header"/>
    </mask>

    <linearGradient x1="66.6%" y1="50%" x2="33.3%" y2="50%" id="msk_gd">
        <stop stop-color="#000000" stop-opacity="0" offset="0%"/>
        <stop stop-color="#000000" stop-opacity="0.07" offset="50%"/>
        <stop stop-color="#000000" stop-opacity="0" offset="100%"/>
    </linearGradient>

    <animate xlink:href="#msk1" attributeName="x" from="-100%" to="100%" dur="1s" begin="0s" repeatCount="indefinite"/>

    <svg viewBox="0 0 100% 1200" height="1200px">
        <rect fill="#fff" width="20"   height="1200" x="100%" y="110"   transform="translate(-40, 0)"/>
        <rect fill="#EBF1F4" width="20"   height="1200" x="100%" y="0"   transform="translate(-20, 0)"/>
        <rect fill="#EBF1F4" width="100%" height="33" x="0"   y="173"/>
        <rect fill="#EBF1F4" width="100%" height="20" x="0"   y="555"/>
        <rect fill="#EBF1F4" width="100%" height="20" x="0"   y="910"/>
    </svg>

</svg>
