<svg xmlns:xlink="http://www.w3.org/1999/xlink" id="svg_wrapper" class="defs-only" xmlns="http://www.w3.org/2000/svg" style="width: 100%; height: 1200px">
    <svg height="1200px">
        <rect fill="#EBF1F4" width="100%" height="1200"/>
        <rect fill="#FFFFFF" width="100%" height="1200" x="20" y="122"/>
        <rect fill="#FFFFFF" rx="2" ry="2" width="100%" height="39" x="232" y="12"/>
        <rect fill="#EBF1F4" width="100%" height="39" x="100%" y="12" transform="translate(-380, 0)"/>
    </svg>

    <svg height="1200px" id="header">
        <rect fill="#DEE2E6" rx="2" ry="2" width="175"  height="12" x="40" y="26"/>
        <rect fill="#3BC8F5" rx="2" ry="2" width="195"  height="39" x="100%" y="12" transform="translate(-225, 0)"/>
        <rect fill="#62D3F7" rx="2" ry="2" width="175"  height="14" x="100%" y="25" transform="translate(-215, 0)"/>
        <rect fill="transparent" stroke="#868D95" opacity=".2" stroke-width="1" rx="2" ry="2" width="39"  height="39" x="100%" y="12" transform="translate(-275, 0)"/>
        <rect fill="#DEE2E6" rx="2" ry="2" width="14"  height="14" x="100%" y="25" transform="translate(-263, 0)"/>
        <rect fill="transparent" stroke="#868D95" opacity=".2" stroke-width="1" rx="2" ry="2" width="39"  height="39" x="100%" y="12" transform="translate(-325, 0)"/>
        <rect fill="#DEE2E6" rx="2" ry="2" width="14"  height="14" x="100%" y="25" transform="translate(-313, 0)"/>

        <line stroke="#DEE2E6" x1="20" y1="70" x2="100%" y2="70"/>

        <rect fill="#DEE2E6" rx="2" ry="2" width="289" height="6" x="45" y="93"/>
        <rect fill="#DEE2E6" rx="2" ry="2" width="41"  height="6" x="100%" y="93" transform="translate(-80, 0)"/>
        <rect fill="#DEE2E6" rx="2" ry="2" width="65"  height="6" x="100%" y="93" transform="translate(-170, 0)"/>
        <rect fill="#DEE2E6" rx="2" ry="2" width="46"  height="6" x="100%" y="93" transform="translate(-240, 0)"/>

        <defs>
            <g id="title">
                <rect fill="#DEE2E6" rx="2" ry="2" width="10"  height="10" x="21" y="23"/>
                <rect fill="#DEE2E6" rx="2" ry="2" width="10"  height="10" x="50" y="23"/>
                <rect fill="#DEE2E6" rx="2" ry="2" width="96"  height="8 " x="89" y="24"/>
                <rect fill="#DEE2E6" rx="2" ry="2" width="105" height="8"  x="35%" y="24"/>
                <rect fill="#DEE2E6" rx="2" ry="2" width="105" height="8"  x="100%" y="24" transform="translate(-410, 0)"/>
                <rect fill="#DEE2E6" rx="2" ry="2" width="105" height="8"  x="100%" y="24" transform="translate(-210, 0)"/>
                <line stroke="#DEE2E6" x1="0" y1="53" x2="100%" y2="53"/>
            </g>

            <g id="item">
                <rect fill="#DEE2E6" rx="2" ry="2" width="10"  height="10" x="21" y="23"/>
                <rect fill="#DEE2E6" rx="2" ry="2" width="10"  height="10" x="50" y="23"/>
                <rect fill="#DEE2E6" rx="2" ry="2" width="96"  height="8 " x="89" y="24"/>
                <rect fill="#DEE2E6" rx="2" ry="2" width="105" height="8"  x="35%" y="24"/>

                <circle fill="#DEE2E6" r="10" cx="100%" cy="28" transform="translate(-400, 0)"/>
                <rect fill="#DEE2E6" rx="2" ry="2" width="105" height="8"  x="100%" y="24" transform="translate(-380, 0)"/>

                <circle fill="#DEE2E6" r="10" cx="100%" cy="28" transform="translate(-200, 0)"/>
                <rect fill="#DEE2E6" rx="2" ry="2" width="105" height="8"  x="100%" y="24" transform="translate(-180, 0)"/>

                <line stroke="#DEE2E6" x1="0" y1="53" x2="100%" y2="53"/>
            </g>
        </defs>

        <use xlink:href="#title" y="125" x="20" width="100%" height="400"/>
        <use xlink:href="#item" y="175" x="20" width="100%" height="400"/>
        <use xlink:href="#item" y="225" x="20" width="100%" height="400"/>
        <use xlink:href="#item" y="275" x="20" width="100%" height="400"/>
        <use xlink:href="#item" y="325" x="20" width="100%" height="400"/>
        <use xlink:href="#item" y="375" x="20" width="100%" height="400"/>
        <use xlink:href="#item" y="425" x="20" width="100%" height="400"/>
        <use xlink:href="#item" y="475" x="20" width="100%" height="400"/>
        <use xlink:href="#item" y="525" x="20" width="100%" height="400"/>
        <use xlink:href="#item" y="575" x="20" width="100%" height="400"/>
        <use xlink:href="#item" y="625" x="20" width="100%" height="400"/>
        <use xlink:href="#item" y="675" x="20" width="100%" height="400"/>
        <use xlink:href="#item" y="725" x="20" width="100%" height="400"/>
        <use xlink:href="#item" y="775" x="20" width="100%" height="400"/>
        <use xlink:href="#item" y="825" x="20" width="100%" height="400"/>
        <use xlink:href="#item" y="875" x="20" width="100%" height="400"/>
        <use xlink:href="#item" y="925" x="20" width="100%" height="400"/>
        <use xlink:href="#item" y="975" x="20" width="100%" height="400"/>
    </svg>

    <rect id="msk1" width="100%" fill="url(#msk_gd)" mask="url(#headerMsk)" height="1200"/>

    <mask id="headerMsk" fill="white">
        <use xlink:href="#header"/>
    </mask>

    <linearGradient x1="66.6%" y1="50%" x2="33.3%" y2="50%" id="msk_gd">
        <stop stop-color="#000000" stop-opacity="0" offset="0%"/>
        <stop stop-color="#000000" stop-opacity="0.07" offset="50%"/>
        <stop stop-color="#000000" stop-opacity="0" offset="100%"/>
    </linearGradient>

    <animate xlink:href="#msk1" attributeName="x" from="-100%" to="100%" dur="1s" begin="0s" repeatCount="indefinite"/>

    <svg viewBox="0 0 100% 1200" height="1200px">
        <rect fill="#EBF1F4" width="20"   height="1200" x="100%" y="0"   transform="translate(-20, 0)"/>
    </svg>

</svg>
