<svg width="24" height="24" viewBox="0 0 24 24" fill="none" xmlns="http://www.w3.org/2000/svg">
<path fill-rule="evenodd" clip-rule="evenodd" d="M12.5434 7.45623C12.2892 6.91563 11.5254 6.91563 11.2712 7.45623L10.5366 9.0185L8.90583 9.26721C8.29877 9.35979 8.13419 10.0815 8.50966 10.4657L9.70661 11.6903L9.42291 13.4263C9.3387 13.9417 9.88192 14.4799 10.4556 14.1633L11.9073 13.3623L13.3589 14.1633C13.9326 14.4799 14.4758 13.9417 14.3916 13.4263L14.1079 11.6903L15.3049 10.4657C15.6803 10.0815 15.5158 9.35979 14.9087 9.26721L13.278 9.0185L12.5434 7.45623ZM11.509 9.77044L11.9073 8.92353L12.3055 9.77044C12.4048 9.98159 12.6027 10.1294 12.8334 10.1646L13.78 10.3089L13.0731 11.0322C12.9176 11.1913 12.847 11.4148 12.8829 11.6344L13.0438 12.6189L12.2455 12.1784C12.035 12.0622 11.7796 12.0622 11.5691 12.1784L10.7708 12.6189L10.9317 11.6344C10.9675 11.4148 10.8969 11.1913 10.7414 11.0322L10.0345 10.3089L10.9811 10.1646C11.2118 10.1294 11.4098 9.98159 11.509 9.77044Z" fill="#333333"/>
<path fill-rule="evenodd" clip-rule="evenodd" d="M4.97461 10.8407C4.97461 7.012 8.0784 3.9082 11.9071 3.9082C15.7359 3.9082 18.8396 7.012 18.8396 10.8407C18.8396 12.9043 17.938 14.7574 16.5071 16.0273V20.4084C16.5071 20.6076 16.4082 20.7939 16.2432 20.9055C16.0781 21.0171 15.8684 21.0394 15.6835 20.9652L11.9071 19.4485L8.13074 20.9652C7.94585 21.0394 7.73616 21.0171 7.5711 20.9055C7.40603 20.7939 7.30713 20.6076 7.30713 20.4084V16.0273C5.87627 14.7574 4.97461 12.9043 4.97461 10.8407ZM11.9071 5.1082C8.74115 5.1082 6.17461 7.67474 6.17461 10.8407C6.17461 14.0067 8.74115 16.5732 11.9071 16.5732C15.0731 16.5732 17.6396 14.0067 17.6396 10.8407C17.6396 7.67474 15.0731 5.1082 11.9071 5.1082ZM11.9071 17.7732C13.1426 17.7732 14.3026 17.4501 15.3071 16.8836V19.5208L12.1307 18.2451C11.9872 18.1875 11.827 18.1875 11.6835 18.2451L8.50713 19.5208V16.8836C9.5117 17.4501 10.6717 17.7732 11.9071 17.7732Z" fill="#333333"/>
</svg>
