<svg width="24" height="24" viewBox="0 0 24 24" fill="none" xmlns="http://www.w3.org/2000/svg">
<path d="M15.9331 10.2388C16.157 9.99457 16.1405 9.61503 15.8962 9.39111C15.6519 9.16719 15.2724 9.1837 15.0485 9.42797L11.4474 13.3564L9.34693 11.556C9.09534 11.3403 8.71656 11.3694 8.5009 11.621C8.28525 11.8726 8.31439 12.2514 8.56598 12.4671L11.1071 14.6452C11.3528 14.8558 11.7212 14.8336 11.9399 14.595L15.9331 10.2388Z" fill="#333333"/>
<path fill-rule="evenodd" clip-rule="evenodd" d="M10.5 3.7613C11.4282 3.2254 12.5718 3.2254 13.5 3.7613L18.3843 6.58125C19.3125 7.11715 19.8843 8.10753 19.8843 9.17933V14.8192C19.8843 15.891 19.3125 16.8814 18.3843 17.4173L13.5 20.2373C12.5718 20.7732 11.4282 20.7732 10.5 20.2373L5.61572 17.4173C4.68752 16.8814 4.11572 15.891 4.11572 14.8192V9.17933C4.11572 8.10753 4.68752 7.11715 5.61572 6.58125L10.5 3.7613ZM12.9 4.80053L17.7843 7.62048C18.3412 7.94202 18.6843 8.53625 18.6843 9.17933V14.8192C18.6843 15.4623 18.3412 16.0565 17.7843 16.3781L12.9 19.198C12.3431 19.5196 11.6569 19.5196 11.1 19.198L6.21572 16.3781C5.6588 16.0565 5.31572 15.4623 5.31572 14.8192V9.17933C5.31572 8.53625 5.6588 7.94202 6.21572 7.62048L11.1 4.80053C11.6569 4.47899 12.3431 4.47899 12.9 4.80053Z" fill="#333333"/>
</svg>
