<svg width="24" height="24" viewBox="0 0 24 24" fill="none" xmlns="http://www.w3.org/2000/svg">
<path fill-rule="evenodd" clip-rule="evenodd" d="M3.69448 7.77428C3.12147 6.47228 4.07507 5.01074 5.49758 5.01074H18.5026C19.9251 5.01074 20.8787 6.47227 20.3057 7.77428L20.1953 8.02501C19.8807 8.73996 19.1734 9.20147 18.3922 9.20147H5.60793C4.82681 9.20147 4.11947 8.73996 3.80482 8.02502L3.69448 7.77428ZM5.49758 6.21074C4.94157 6.21074 4.56885 6.782 4.79282 7.29091L4.90316 7.54164C5.02615 7.82109 5.30262 8.00147 5.60793 8.00147H18.3922C18.6975 8.00147 18.974 7.82108 19.097 7.54164L19.2073 7.2909C19.4313 6.782 19.0586 6.21074 18.5026 6.21074H5.49758Z" fill="#333333"/>
<path d="M9.86365 16.9639C9.29999 16.9639 8.92889 17.5516 9.17113 18.0605L9.29336 18.3173C9.42052 18.5845 9.69001 18.7547 9.98588 18.7547H10.4999C10.8313 18.7547 11.0999 19.0233 11.0999 19.3547C11.0999 19.686 10.8313 19.9547 10.4999 19.9547H9.98588C9.22708 19.9547 8.53595 19.5182 8.20984 18.8331L8.08761 18.5763C7.46634 17.271 8.41808 15.7639 9.86365 15.7639H11.9999C12.3313 15.7639 12.5999 16.0326 12.5999 16.3639C12.5999 16.6953 12.3313 16.9639 11.9999 16.9639H9.86365Z" fill="#333333"/>
<path d="M17.5999 14.5003C17.5999 14.1689 17.3313 13.9003 16.9999 13.9003C16.6685 13.9003 16.3999 14.1689 16.3999 14.5003V16.4003H14.4999C14.1685 16.4003 13.8999 16.6689 13.8999 17.0003C13.8999 17.3316 14.1685 17.6003 14.4999 17.6003H16.3999V19.5003C16.3999 19.8316 16.6685 20.1003 16.9999 20.1003C17.3313 20.1003 17.5999 19.8316 17.5999 19.5003V17.6003H19.4999C19.8313 17.6003 20.0999 17.3316 20.0999 17.0003C20.0999 16.6689 19.8313 16.4003 19.4999 16.4003H17.5999V14.5003Z" fill="#333333"/>
<path d="M7.01099 10.4003C5.6221 10.4003 4.6693 11.7989 5.17774 13.0914L5.28001 13.3514C5.57641 14.1049 6.30362 14.6003 7.11327 14.6003H12.9999C13.3313 14.6003 13.5999 14.3316 13.5999 14.0003C13.5999 13.6689 13.3313 13.4003 12.9999 13.4003H7.11327C6.79681 13.4003 6.51257 13.2066 6.39672 12.9121L6.29444 12.6521C6.09571 12.147 6.46813 11.6003 7.01099 11.6003H14.9999C15.3313 11.6003 15.5999 11.3316 15.5999 11.0003C15.5999 10.6689 15.3313 10.4003 14.9999 10.4003H7.01099Z" fill="#333333"/>
</svg>
