<svg width="24" height="24" viewBox="0 0 24 24" fill="none" xmlns="http://www.w3.org/2000/svg">
<path d="M7.75244 3.81335C7.75244 3.36415 8.11659 3 8.5658 3C9.015 3 9.37915 3.36415 9.37915 3.81335V5H14.62V3.81335C14.62 3.36415 14.9841 3 15.4333 3C15.8826 3 16.2467 3.36415 16.2467 3.81335V5H17.3C18.7912 5 20 6.20883 20 7.7L19.9999 11C19.9999 11.3314 19.7313 11.6 19.3999 11.6C19.0685 11.6 18.7999 11.3314 18.7999 11V9.00002L18.8 8.98874V7.7C18.8 6.87157 18.1284 6.2 17.3 6.2H16.2467V6.79103C16.2467 7.24024 15.8826 7.60439 15.4333 7.60439C14.9841 7.60439 14.62 7.24024 14.62 6.79103V6.2H9.37915V6.79103C9.37915 7.24024 9.015 7.60439 8.5658 7.60439C8.11659 7.60439 7.75244 7.24024 7.75244 6.79103V6.2H6.7C5.87157 6.2 5.2 6.87157 5.2 7.7V15.8484C5.2 16.6768 5.87157 17.3484 6.7 17.3484H9.04117L9.05224 17.3483H12C12.3314 17.3483 12.6 17.6169 12.6 17.9483C12.6 18.2796 12.3314 18.5483 12 18.5483L6.7 18.5484C5.20883 18.5484 4 17.3395 4 15.8484V7.7C4 6.20883 5.20883 5 6.7 5H7.75244V3.81335Z" fill="#333333"/>
<path fill-rule="evenodd" clip-rule="evenodd" d="M11.5998 8.87695C11.158 8.87695 10.7998 9.23513 10.7998 9.67695V10.5231C10.7998 10.9649 11.158 11.3231 11.5998 11.3231H12.4079C12.8497 11.3231 13.2079 10.9649 13.2079 10.5231V9.67695C13.2079 9.23513 12.8497 8.87695 12.4079 8.87695H11.5998ZM11.9998 10.077V10.1231H12.0079V10.077H11.9998Z" fill="#333333"/>
<path fill-rule="evenodd" clip-rule="evenodd" d="M7.17822 9.67695C7.17822 9.23513 7.53639 8.87695 7.97822 8.87695H8.78633C9.22816 8.87695 9.58633 9.23513 9.58633 9.67695V10.5231C9.58633 10.9649 9.22816 11.3231 8.78633 11.3231H7.97822C7.5364 11.3231 7.17822 10.9649 7.17822 10.5231V9.67695ZM8.37822 10.1231V10.077H8.38633V10.1231H8.37822Z" fill="#333333"/>
<path fill-rule="evenodd" clip-rule="evenodd" d="M7.97822 12.6777C7.53639 12.6777 7.17822 13.0359 7.17822 13.4777V14.3238C7.17822 14.7657 7.5364 15.1238 7.97822 15.1238H8.78633C9.22816 15.1238 9.58633 14.7657 9.58633 14.3238V13.4777C9.58633 13.0359 9.22816 12.6777 8.78633 12.6777H7.97822ZM8.37822 13.8777V13.9238H8.38633V13.8777H8.37822Z" fill="#333333"/>
<path d="M17 12.4C17.3314 12.4 17.6 12.6687 17.6 13V14.9H19.5C19.8314 14.9 20.1 15.1687 20.1 15.5C20.1 15.8314 19.8314 16.1 19.5 16.1H17.6V18C17.6 18.3314 17.3314 18.6 17 18.6C16.6686 18.6 16.4 18.3314 16.4 18V16.1H14.5C14.1686 16.1 13.9 15.8314 13.9 15.5C13.9 15.1687 14.1686 14.9 14.5 14.9H16.4V13C16.4 12.6687 16.6686 12.4 17 12.4Z" fill="#333333"/>
</svg>
