<svg width="24" height="24" viewBox="0 0 24 24" fill="none" xmlns="http://www.w3.org/2000/svg">
<path fill-rule="evenodd" clip-rule="evenodd" d="M11.9735 11.9404C16.7135 11.9404 17.1235 3.40039 11.9735 3.40039C11.2535 3.40039 10.3535 3.72039 9.8935 4.06039C7.1035 6.12039 8.0235 11.9404 11.9735 11.9404ZM10.6135 5.03039C10.7135 4.95039 10.9335 4.84039 11.2235 4.74039C11.5135 4.65039 11.7835 4.60039 11.9835 4.60039C12.8935 4.60039 13.4835 4.96039 13.8635 5.46039C14.2735 6.00039 14.5035 6.78039 14.4835 7.64039C14.4635 8.49039 14.1935 9.30039 13.7535 9.87039C13.3335 10.4104 12.7535 10.7404 11.9735 10.7404C10.7435 10.7404 9.8735 9.87039 9.5835 8.52039C9.2735 7.12039 9.7035 5.70039 10.6135 5.04039V5.03039Z" fill="#333333"/>
<path d="M13.0532 18.3008H6.11318C6.22318 17.2708 6.63318 16.2308 7.47318 15.4408C8.35318 14.6208 9.76318 14.0008 11.9832 14.0008C12.5132 14.0008 13.0032 14.0408 13.4432 14.1008C13.7732 14.1508 14.0732 13.9208 14.1232 13.5908C14.1732 13.2608 13.9432 12.9608 13.6132 12.9108C13.1032 12.8308 12.5632 12.8008 11.9732 12.8008C9.52318 12.8008 7.79318 13.4908 6.64318 14.5708C5.51318 15.6508 5.01318 17.0508 4.90318 18.3508C4.85318 19.0108 5.38318 19.5008 5.98318 19.5008H13.0532C13.3832 19.5008 13.6532 19.2308 13.6532 18.9008C13.6532 18.5708 13.3832 18.3008 13.0532 18.3008Z" fill="#333333"/>
<path d="M17.5833 15.8008H19.4833C19.8133 15.8008 20.0833 16.0708 20.0833 16.4008C20.0833 16.7308 19.8133 17.0008 19.4833 17.0008H17.5833V18.9008C17.5833 19.2308 17.3133 19.5008 16.9833 19.5008C16.6533 19.5008 16.3833 19.2308 16.3833 18.9008V17.0008H14.4833C14.1533 17.0008 13.8833 16.7308 13.8833 16.4008C13.8833 16.0708 14.1533 15.8008 14.4833 15.8008H16.3833V13.9008C16.3833 13.5708 16.6533 13.3008 16.9833 13.3008C17.3133 13.3008 17.5833 13.5708 17.5833 13.9008V15.8008Z" fill="#333333"/>
</svg>
