<svg width="24" height="24" viewBox="0 0 24 24" fill="none" xmlns="http://www.w3.org/2000/svg">
<path d="M5.6 5.00039C5.6 4.66902 5.33137 4.40039 5 4.40039C4.66863 4.40039 4.4 4.66902 4.4 5.00039V7.22594C3.70322 7.47277 3.20413 8.13757 3.20413 8.91893C3.20413 9.7003 3.70322 10.3651 4.4 10.6119V13.4653C3.70265 13.7122 3.20312 14.3775 3.20312 15.1594C3.20312 15.9414 3.70265 16.6067 4.4 16.8536V19.0004C4.4 19.3318 4.66863 19.6004 5 19.6004C5.33137 19.6004 5.6 19.3318 5.6 19.0004V16.8535C6.29722 16.6065 6.79663 15.9413 6.79663 15.1594C6.79663 14.3776 6.29722 13.7124 5.6 13.4654V10.6117C6.29649 10.3647 6.79531 9.70009 6.79531 8.91893C6.79531 8.13778 6.29649 7.47313 5.6 7.22614V5.00039Z" fill="#333333"/>
<path fill-rule="evenodd" clip-rule="evenodd" d="M10.0422 6.0004C9.04807 6.0004 8.24219 6.80628 8.24219 7.8004V9.59096C8.24219 10.5851 9.04808 11.391 10.0422 11.391H18.1989C19.193 11.391 19.9989 10.5851 19.9989 9.59096V7.8004C19.9989 6.80628 19.193 6.0004 18.1989 6.0004H10.0422ZM18.1989 7.2004H10.0422C9.71082 7.2004 9.44219 7.46903 9.44219 7.8004V9.59096C9.44219 9.92232 9.71082 10.191 10.0422 10.191H18.1989C18.5303 10.191 18.7989 9.92233 18.7989 9.59096V7.8004C18.7989 7.46903 18.5303 7.2004 18.1989 7.2004Z" fill="#333333"/>
<path d="M10.0354 18.0004C10.0377 18.0004 10.0399 18.0004 10.0422 18.0004H11.5907C11.5907 18.0004 11.5907 18.0004 11.5907 18.0004L12 18.0004C12.3314 18.0004 12.6 17.7318 12.6 17.4004C12.6 17.069 12.3314 16.8004 12 16.8004H10.0383C9.70871 16.7983 9.44219 16.5305 9.44219 16.2004V14.4713C9.44219 14.1399 9.71082 13.8713 10.0422 13.8713H12.4763L12.4769 13.8704H14C14.3314 13.8704 14.6 13.6018 14.6 13.2704C14.6 12.939 14.3314 12.6704 14 12.6704L10.0422 12.6713C9.04807 12.6713 8.24219 13.4772 8.24219 14.4713V16.2004C8.24219 17.1804 9.02538 17.9775 10 17.9999L10.0354 18.0004Z" fill="#333333"/>
<path d="M17.6 14.5004C17.6 14.169 17.3314 13.9004 17 13.9004C16.6686 13.9004 16.4 14.169 16.4 14.5004V16.4004H14.5C14.1686 16.4004 13.9 16.669 13.9 17.0004C13.9 17.3318 14.1686 17.6004 14.5 17.6004H16.4V19.5004C16.4 19.8318 16.6686 20.1004 17 20.1004C17.3314 20.1004 17.6 19.8318 17.6 19.5004V17.6004H19.5C19.8314 17.6004 20.1 17.3318 20.1 17.0004C20.1 16.669 19.8314 16.4004 19.5 16.4004H17.6V14.5004Z" fill="#333333"/>
</svg>
