<svg width="24" height="24" viewBox="0 0 24 24" fill="none" xmlns="http://www.w3.org/2000/svg">
<path fill-rule="evenodd" clip-rule="evenodd" d="M10.7546 4.31054C11.5294 3.87778 12.4714 3.87012 13.2531 4.2902L18.2306 6.96497C19.0739 7.4181 19.5999 8.29795 19.5999 9.25523V13.0002C19.5999 13.3316 19.3313 13.6002 18.9999 13.6002C18.6685 13.6002 18.3999 13.3316 18.3999 13.0002V9.25523C18.3999 9.1283 18.3827 9.00389 18.35 8.88482L12.5998 12.3391V18.6765C12.6298 18.6625 12.6594 18.6473 12.6885 18.6311L12.7076 18.6204C12.997 18.459 13.3625 18.5627 13.5239 18.8521C13.6853 19.1415 13.5816 19.507 13.2922 19.6684L13.2731 19.6791C12.4839 20.1193 11.5228 20.1181 10.7347 19.6761L5.72856 16.8685C4.90828 16.4084 4.40039 15.5413 4.40039 14.6008V9.38543C4.40039 8.44331 4.91004 7.5749 5.73256 7.1155L10.7546 4.31054ZM11.3998 18.6702V12.3391L5.68497 8.90613C5.62982 9.05741 5.60039 9.21929 5.60039 9.38543V14.6008C5.60039 15.1072 5.87387 15.5741 6.31556 15.8219L11.3217 18.6295C11.3474 18.6439 11.3735 18.6575 11.3998 18.6702ZM12.6851 5.34725L17.5536 7.96342L11.9998 11.2997L6.55649 8.02979L11.3397 5.3582C11.7569 5.12518 12.2642 5.12105 12.6851 5.34725Z" fill="#333333"/>
<path d="M17.0013 13.9002C17.3327 13.9002 17.6013 14.1688 17.6013 14.5002V16.4002H19.5013C19.8327 16.4002 20.1013 16.6688 20.1013 17.0002C20.1013 17.3316 19.8327 17.6002 19.5013 17.6002H17.6013V19.5002C17.6013 19.8316 17.3327 20.1002 17.0013 20.1002C16.67 20.1002 16.4013 19.8316 16.4013 19.5002V17.6002H14.5013C14.17 17.6002 13.9013 17.3316 13.9013 17.0002C13.9013 16.6688 14.17 16.4002 14.5013 16.4002H16.4013V14.5002C16.4013 14.1688 16.67 13.9002 17.0013 13.9002Z" fill="#333333"/>
</svg>
