<svg width="24" height="24" viewBox="0 0 24 24" fill="none" xmlns="http://www.w3.org/2000/svg">
<path d="M7.75244 4.81335C7.75244 4.36415 8.11659 4 8.5658 4C9.015 4 9.37915 4.36415 9.37915 4.81335V6H14.62V4.81335C14.62 4.36415 14.9841 4 15.4333 4C15.8826 4 16.2467 4.36415 16.2467 4.81335V6H17.3C18.7912 6 20 7.20883 20 8.7L19.9999 12C19.9999 12.3314 19.7313 12.6 19.3999 12.6C19.0685 12.6 18.7999 12.3314 18.7999 12V10L18.8 9.98874V8.7C18.8 7.87157 18.1284 7.2 17.3 7.2H16.2467V7.79103C16.2467 8.24024 15.8826 8.60439 15.4333 8.60439C14.9841 8.60439 14.62 8.24024 14.62 7.79103V7.2H9.37915V7.79103C9.37915 8.24024 9.015 8.60439 8.5658 8.60439C8.11659 8.60439 7.75244 8.24024 7.75244 7.79103V7.2H6.7C5.87157 7.2 5.2 7.87157 5.2 8.7V16.8484C5.2 17.6768 5.87157 18.3484 6.7 18.3484H9.04117L9.05224 18.3483H12C12.3314 18.3483 12.6 18.6169 12.6 18.9483C12.6 19.2796 12.3314 19.5483 12 19.5483L6.7 19.5484C5.20883 19.5484 4 18.3395 4 16.8484V8.7C4 7.20883 5.20883 6 6.7 6H7.75244V4.81335Z" fill="#333333"/>
<path fill-rule="evenodd" clip-rule="evenodd" d="M11.5998 9.87695C11.158 9.87695 10.7998 10.2351 10.7998 10.677V11.5231C10.7998 11.9649 11.158 12.3231 11.5998 12.3231H12.4079C12.8497 12.3231 13.2079 11.9649 13.2079 11.5231V10.677C13.2079 10.2351 12.8497 9.87695 12.4079 9.87695H11.5998ZM11.9998 11.077V11.1231H12.0079V11.077H11.9998Z" fill="#333333"/>
<path fill-rule="evenodd" clip-rule="evenodd" d="M7.17822 10.677C7.17822 10.2351 7.53639 9.87695 7.97822 9.87695H8.78633C9.22816 9.87695 9.58633 10.2351 9.58633 10.677V11.5231C9.58633 11.9649 9.22816 12.3231 8.78633 12.3231H7.97822C7.5364 12.3231 7.17822 11.9649 7.17822 11.5231V10.677ZM8.37822 11.1231V11.077H8.38633V11.1231H8.37822Z" fill="#333333"/>
<path fill-rule="evenodd" clip-rule="evenodd" d="M7.97822 13.6777C7.53639 13.6777 7.17822 14.0359 7.17822 14.4777V15.3238C7.17822 15.7657 7.5364 16.1238 7.97822 16.1238H8.78633C9.22816 16.1238 9.58633 15.7657 9.58633 15.3238V14.4777C9.58633 14.0359 9.22816 13.6777 8.78633 13.6777H7.97822ZM8.37822 14.8777V14.9238H8.38633V14.8777H8.37822Z" fill="#333333"/>
<path d="M17 13.4C17.3314 13.4 17.6 13.6687 17.6 14V15.9H19.5C19.8314 15.9 20.1 16.1687 20.1 16.5C20.1 16.8314 19.8314 17.1 19.5 17.1H17.6V19C17.6 19.3314 17.3314 19.6 17 19.6C16.6686 19.6 16.4 19.3314 16.4 19V17.1H14.5C14.1686 17.1 13.9 16.8314 13.9 16.5C13.9 16.1687 14.1686 15.9 14.5 15.9H16.4V14C16.4 13.6687 16.6686 13.4 17 13.4Z" fill="#333333"/>
</svg>
