<svg width="24" height="24" viewBox="0 0 24 24" fill="none" xmlns="http://www.w3.org/2000/svg">
<path fill-rule="evenodd" clip-rule="evenodd" d="M6.6166 4.31348C6.94797 4.31348 7.2166 4.58211 7.2166 4.91348V5.63623H7.93879C8.27016 5.63623 8.53879 5.90486 8.53879 6.23623C8.53879 6.5676 8.27016 6.83623 7.93879 6.83623H7.2166V7.55891C7.2166 7.89028 6.94797 8.15891 6.6166 8.15891C6.28523 8.15891 6.0166 7.89028 6.0166 7.55891V6.83623H5.29336C4.96199 6.83623 4.69336 6.5676 4.69336 6.23623C4.69336 5.90486 4.96199 5.63623 5.29336 5.63623H6.0166V4.91348C6.0166 4.58211 6.28523 4.31348 6.6166 4.31348ZM12.0597 4.72522C12.3188 4.72522 12.5486 4.89159 12.6296 5.13775L14.0671 9.50802C14.1113 9.64244 14.1864 9.7646 14.2865 9.86466C14.3866 9.96472 14.5087 10.0399 14.6431 10.0841L19.0134 11.5216C19.2596 11.6025 19.4259 11.8324 19.4259 12.0915C19.4259 12.3507 19.2596 12.5805 19.0134 12.6615L14.6431 14.0989C14.5087 14.1431 14.3866 14.2183 14.2865 14.3184C14.1864 14.4184 14.1113 14.5406 14.0671 14.675L12.6296 19.0453C12.5486 19.2914 12.3188 19.4578 12.0597 19.4578C11.8005 19.4578 11.5707 19.2914 11.4897 19.0453L10.0522 14.675C10.008 14.5406 9.93286 14.4184 9.8328 14.3184C9.73274 14.2183 9.61059 14.1431 9.47617 14.0989L5.10589 12.6615C4.85973 12.5805 4.69336 12.3507 4.69336 12.0915C4.69336 11.8324 4.85973 11.6025 5.10589 11.5216L9.47616 10.0841C9.61058 10.0399 9.73274 9.96472 9.8328 9.86466C9.93286 9.7646 10.008 9.64245 10.0522 9.50803L11.4897 5.13775C11.5707 4.89159 11.8005 4.72522 12.0597 4.72522ZM11.1922 9.88296C11.1922 9.88297 11.1922 9.88296 11.1922 9.88296C11.0892 10.1959 10.9143 10.4803 10.6813 10.7132C10.4484 10.9461 10.164 11.1211 9.8511 11.224C9.8511 11.224 9.85111 11.224 9.8511 11.224L7.21367 12.0915L9.8511 12.959C9.85109 12.959 9.8511 12.959 9.8511 12.959C10.164 13.0619 10.4484 13.2369 10.6813 13.4698C10.9143 13.7028 11.0892 13.9871 11.1922 14.3001C11.1922 14.3001 11.1922 14.3001 11.1922 14.3001L12.0597 16.9375L12.9272 14.3001C12.9272 14.3001 12.9272 14.3001 12.9272 14.3001C13.0301 13.9871 13.205 13.7028 13.438 13.4698C13.6709 13.2369 13.9553 13.0619 14.2682 12.959C14.2682 12.959 14.2682 12.959 14.2682 12.959L16.9056 12.0915L14.2682 11.224C14.2682 11.224 14.2682 11.224 14.2682 11.224C13.9553 11.1211 13.6709 10.9461 13.438 10.7132C13.205 10.4803 13.0301 10.1959 12.9272 9.88296C12.9272 9.88296 12.9272 9.88297 12.9272 9.88296L12.0597 7.24553L11.1922 9.88296ZM17.1459 16.4094C17.4773 16.4094 17.7459 16.6781 17.7459 17.0094V17.7291H18.4649C18.7962 17.7291 19.0649 17.9978 19.0649 18.3291C19.0649 18.6605 18.7962 18.9291 18.4649 18.9291H17.7459V19.6487C17.7459 19.9801 17.4773 20.2487 17.1459 20.2487C16.8145 20.2487 16.5459 19.9801 16.5459 19.6487V18.9291H15.8256C15.4942 18.9291 15.2256 18.6605 15.2256 18.3291C15.2256 17.9978 15.4942 17.7291 15.8256 17.7291H16.5459V17.0094C16.5459 16.6781 16.8145 16.4094 17.1459 16.4094Z" fill="#333333"/>
</svg>
