<svg width="24" height="24" viewBox="0 0 24 24" fill="none" xmlns="http://www.w3.org/2000/svg">
<path d="M7.56838 5.03022C7.87838 4.83022 8.00838 4.44022 7.83838 4.11022C7.66838 3.78022 7.26838 3.66022 6.95838 3.85022C5.95838 4.47022 5.07838 5.28022 4.38838 6.23022C4.16838 6.53022 4.26838 6.94022 4.57838 7.13022C4.88838 7.32022 5.29838 7.23022 5.51838 6.94022C6.08838 6.18022 6.78838 5.54022 7.57838 5.03022H7.56838Z" fill="#333333"/>
<path d="M12.5383 11.5101H15.0083C15.3583 11.5101 15.6383 11.7901 15.6383 12.1401C15.6383 12.4901 15.3583 12.7701 15.0083 12.7701H11.9083C11.7383 12.7701 11.5783 12.7101 11.4583 12.5901C11.3483 12.4701 11.2783 12.3101 11.2783 12.1401V8.46008C11.2783 8.11008 11.5583 7.83008 11.9083 7.83008C12.2583 7.83008 12.5383 8.11008 12.5383 8.46008V11.5101Z" fill="#333333"/>
<path fill-rule="evenodd" clip-rule="evenodd" d="M12.1883 4.87988C16.1383 4.87988 19.3483 8.08988 19.3483 12.0399C19.3483 14.3199 18.2683 16.3499 16.6083 17.6599L18.1583 19.2099C18.4083 19.4499 18.4083 19.8499 18.1583 20.0999C17.9183 20.3499 17.5183 20.3499 17.2683 20.0999L15.6383 18.4699C15.5983 18.4299 15.5783 18.3899 15.5583 18.3499C14.5583 18.8799 13.4083 19.1899 12.1883 19.1899C10.9683 19.1899 9.81832 18.8899 8.81832 18.3499C8.78832 18.3899 8.73832 18.4699 8.73832 18.4699L7.10832 20.0999C6.86832 20.3499 6.46832 20.3499 6.21832 20.0999C5.96832 19.8599 5.96832 19.4599 6.21832 19.2099L7.76832 17.6599C6.09832 16.3499 5.02832 14.3199 5.02832 12.0399C5.02832 8.07988 8.23832 4.87988 12.1883 4.87988ZM12.1883 6.13988C8.92832 6.13988 6.28832 8.77988 6.28832 12.0399C6.28832 15.2999 8.92832 17.9399 12.1883 17.9399C15.4483 17.9399 18.0883 15.2999 18.0883 12.0399C18.0883 8.77988 15.4483 6.13988 12.1883 6.13988Z" fill="#333333"/>
<path d="M17.4186 3.85008C18.4286 4.47008 19.3086 5.29008 20.0086 6.25008C20.2286 6.55008 20.1286 6.96008 19.8186 7.15008C19.5086 7.34008 19.1086 7.24008 18.8886 6.95008C18.3186 6.19008 17.6086 5.54008 16.8086 5.03008C16.4986 4.83008 16.3686 4.43008 16.5386 4.11008C16.7086 3.79008 17.1086 3.66008 17.4186 3.85008Z" fill="#333333"/>
</svg>
