<svg width="24" height="24" viewBox="0 0 24 24" fill="none" xmlns="http://www.w3.org/2000/svg">
<path d="M12.0001 8.17773C11.6687 8.17773 11.4001 8.44636 11.4001 8.77773L11.4001 13.2234C11.4001 13.5548 11.6687 13.8234 12.0001 13.8234C12.3315 13.8234 12.6001 13.5548 12.6001 13.2234V8.77773C12.6001 8.44636 12.3315 8.17773 12.0001 8.17773Z" fill="#333333"/>
<path d="M12 14.7139C11.5858 14.7139 11.25 15.0497 11.25 15.4639V15.5336C11.25 15.9478 11.5858 16.2836 12 16.2836C12.4142 16.2836 12.75 15.9478 12.75 15.5336V15.4639C12.75 15.0497 12.4142 14.7139 12 14.7139Z" fill="#333333"/>
<path fill-rule="evenodd" clip-rule="evenodd" d="M13.89 5.50179C13.0371 4.06842 10.9617 4.06841 10.1088 5.50178L4.35486 15.1718C3.40294 16.7716 4.55577 18.7991 6.41735 18.7991H17.5815C19.4431 18.7991 20.5959 16.7716 19.644 15.1718L13.89 5.50179ZM11.1401 6.11541C11.5277 5.46388 12.4711 5.46387 12.8588 6.11541L18.6127 15.7854C19.0887 16.5853 18.5123 17.5991 17.5815 17.5991H6.41735C5.48656 17.5991 4.91014 16.5853 5.38611 15.7854L11.1401 6.11541Z" fill="#333333"/>
</svg>
