<svg width="24" height="24" viewBox="0 0 24 24" fill="none" xmlns="http://www.w3.org/2000/svg">
<path d="M11.9956 7.40002C12.327 7.40002 12.5956 7.66865 12.5956 8.00002L12.5956 13C12.5956 13.3314 12.327 13.6 11.9956 13.6C11.6642 13.6 11.3956 13.3314 11.3956 13L11.3956 8.00002C11.3956 7.66865 11.6642 7.40002 11.9956 7.40002Z" fill="#333333"/>
<path d="M12.7456 15.2516C12.7456 14.8374 12.4098 14.5016 11.9956 14.5016C11.5814 14.5016 11.2456 14.8374 11.2456 15.2516V15.3243C11.2456 15.7385 11.5814 16.0743 11.9956 16.0743C12.4098 16.0743 12.7456 15.7385 12.7456 15.3243V15.2516Z" fill="#333333"/>
<path fill-rule="evenodd" clip-rule="evenodd" d="M4 12C4 7.58173 7.58173 4 12 4C16.4183 4 20 7.58173 20 12C20 16.4183 16.4183 20 12 20C7.58173 20 4 16.4183 4 12ZM12 5.2C8.24447 5.2 5.2 8.24447 5.2 12C5.2 15.7555 8.24447 18.8 12 18.8C15.7555 18.8 18.8 15.7555 18.8 12C18.8 8.24447 15.7555 5.2 12 5.2Z" fill="#333333"/>
</svg>
