<svg width="24" height="24" viewBox="0 0 24 24" fill="none" xmlns="http://www.w3.org/2000/svg">
<path d="M19 7.2002H5" stroke="black" stroke-width="1.2" stroke-linecap="round" stroke-linejoin="round"/>
<path d="M19 12H5" stroke="black" stroke-width="1.2" stroke-linecap="round" stroke-linejoin="round"/>
<path d="M19 16.8008H5" stroke="black" stroke-width="1.2" stroke-linecap="round" stroke-linejoin="round"/>
<path fill-rule="evenodd" clip-rule="evenodd" d="M4.3999 7.20059C4.3999 6.86922 4.66853 6.60059 4.9999 6.60059H18.9999C19.3313 6.60059 19.5999 6.86922 19.5999 7.20059C19.5999 7.53196 19.3313 7.80059 18.9999 7.80059H4.9999C4.66853 7.80059 4.3999 7.53196 4.3999 7.20059Z" fill="#333333"/>
<path fill-rule="evenodd" clip-rule="evenodd" d="M4.3999 12.0004C4.3999 11.669 4.66853 11.4004 4.9999 11.4004H18.9999C19.3313 11.4004 19.5999 11.669 19.5999 12.0004C19.5999 12.3318 19.3313 12.6004 18.9999 12.6004H4.9999C4.66853 12.6004 4.3999 12.3318 4.3999 12.0004Z" fill="#333333"/>
<path fill-rule="evenodd" clip-rule="evenodd" d="M4.3999 16.8012C4.3999 16.4698 4.66853 16.2012 4.9999 16.2012H18.9999C19.3313 16.2012 19.5999 16.4698 19.5999 16.8012C19.5999 17.1325 19.3313 17.4012 18.9999 17.4012H4.9999C4.66853 17.4012 4.3999 17.1325 4.3999 16.8012Z" fill="#333333"/>
</svg>
