<svg width="24" height="24" viewBox="0 0 24 24" fill="none" xmlns="http://www.w3.org/2000/svg">
<path fill-rule="evenodd" clip-rule="evenodd" d="M5.19521 6.4834L18.5952 6.4834C18.9266 6.4834 19.1952 6.75203 19.1952 7.0834C19.1952 7.41477 18.9266 7.6834 18.5952 7.6834L5.19521 7.6834C4.86384 7.6834 4.59521 7.41477 4.59521 7.0834C4.59521 6.75203 4.86384 6.4834 5.19521 6.4834ZM4.59521 11.9184C4.59521 11.587 4.86384 11.3184 5.19521 11.3184H13.1952C13.5266 11.3184 13.7952 11.587 13.7952 11.9184C13.7952 12.2497 13.5266 12.5184 13.1952 12.5184H5.19521C4.86384 12.5184 4.59521 12.2497 4.59521 11.9184ZM4.59521 16.7563C4.59521 16.4249 4.86384 16.1563 5.19521 16.1563H16.1981C16.5295 16.1563 16.7981 16.4249 16.7981 16.7563C16.7981 17.0876 16.5295 17.3563 16.1981 17.3563H5.19521C4.86384 17.3563 4.59521 17.0876 4.59521 16.7563Z" fill="#333333"/>
</svg>
