<svg width="24" height="24" viewBox="0 0 24 24" fill="none" xmlns="http://www.w3.org/2000/svg">
<path fill-rule="evenodd" clip-rule="evenodd" d="M4.3999 7.20059C4.3999 6.86922 4.66853 6.60059 4.9999 6.60059H18.9999C19.3313 6.60059 19.5999 6.86922 19.5999 7.20059C19.5999 7.53196 19.3313 7.80059 18.9999 7.80059H4.9999C4.66853 7.80059 4.3999 7.53196 4.3999 7.20059Z" fill="#333333"/>
<path fill-rule="evenodd" clip-rule="evenodd" d="M7.3999 12.0004C7.3999 11.669 7.66853 11.4004 7.9999 11.4004H15.9999C16.3313 11.4004 16.5999 11.669 16.5999 12.0004C16.5999 12.3318 16.3313 12.6004 15.9999 12.6004H7.9999C7.66853 12.6004 7.3999 12.3318 7.3999 12.0004Z" fill="#333333"/>
<path fill-rule="evenodd" clip-rule="evenodd" d="M6.3999 16.8012C6.3999 16.4698 6.66853 16.2012 6.9999 16.2012H16.9999C17.3313 16.2012 17.5999 16.4698 17.5999 16.8012C17.5999 17.1325 17.3313 17.4012 16.9999 17.4012H6.9999C6.66853 17.4012 6.3999 17.1325 6.3999 16.8012Z" fill="#333333"/>
</svg>
