<svg width="24" height="24" viewBox="0 0 24 24" fill="none" xmlns="http://www.w3.org/2000/svg">
<path fill-rule="evenodd" clip-rule="evenodd" d="M19.0179 7.20059C19.0179 6.86922 18.7492 6.60059 18.4179 6.60059H4.9999C4.66853 6.60059 4.3999 6.86922 4.3999 7.20059C4.3999 7.53196 4.66853 7.80059 4.9999 7.80059H18.4179C18.7492 7.80059 19.0179 7.53196 19.0179 7.20059Z" fill="#333333"/>
<path fill-rule="evenodd" clip-rule="evenodd" d="M19.0179 12.0004C19.0179 11.669 18.7492 11.4004 18.4179 11.4004H10.4179C10.0865 11.4004 9.81787 11.669 9.81787 12.0004C9.81787 12.3318 10.0865 12.6004 10.4179 12.6004H18.4179C18.7492 12.6004 19.0179 12.3318 19.0179 12.0004Z" fill="#333333"/>
<path fill-rule="evenodd" clip-rule="evenodd" d="M19.0179 16.8002C19.0179 16.4688 18.7492 16.2002 18.4179 16.2002H7.41494C7.08357 16.2002 6.81494 16.4688 6.81494 16.8002C6.81494 17.1316 7.08357 17.4002 7.41494 17.4002H18.4179C18.7492 17.4002 19.0179 17.1316 19.0179 16.8002Z" fill="#333333"/>
</svg>
