<svg width="24" height="24" viewBox="0 0 24 24" fill="none" xmlns="http://www.w3.org/2000/svg">
<path fill-rule="evenodd" clip-rule="evenodd" d="M9.40393 6.2H6.99607C6.55641 6.2 6.2 6.55641 6.2 6.99607V9.40393C6.2 9.84359 6.55641 10.2 6.99607 10.2H9.40393C9.84359 10.2 10.2 9.84359 10.2 9.40393V6.99607C10.2 6.55641 9.84359 6.2 9.40393 6.2ZM6.99607 5C5.89367 5 5 5.89367 5 6.99607V9.40393C5 10.5063 5.89367 11.4 6.99607 11.4H9.40393C10.5063 11.4 11.4 10.5063 11.4 9.40393V6.99607C11.4 5.89367 10.5063 5 9.40393 5H6.99607Z" fill="#333333"/>
<path fill-rule="evenodd" clip-rule="evenodd" d="M17.004 6.2H14.5962C14.1565 6.2 13.8001 6.55641 13.8001 6.99607V9.40393C13.8001 9.84359 14.1565 10.2 14.5962 10.2H17.004C17.4437 10.2 17.8001 9.84359 17.8001 9.40393V6.99607C17.8001 6.55641 17.4437 6.2 17.004 6.2ZM14.5962 5C13.4938 5 12.6001 5.89367 12.6001 6.99607V9.40393C12.6001 10.5063 13.4938 11.4 14.5962 11.4H17.004C18.1064 11.4 19.0001 10.5063 19.0001 9.40393V6.99607C19.0001 5.89367 18.1064 5 17.004 5H14.5962Z" fill="#333333"/>
<path fill-rule="evenodd" clip-rule="evenodd" d="M17.004 13.7996H14.5962C14.1565 13.7996 13.8001 14.156 13.8001 14.5957V17.0035C13.8001 17.4432 14.1565 17.7996 14.5962 17.7996H17.004C17.4437 17.7996 17.8001 17.4432 17.8001 17.0035V14.5957C17.8001 14.156 17.4437 13.7996 17.004 13.7996ZM14.5962 12.5996C13.4938 12.5996 12.6001 13.4933 12.6001 14.5957V17.0035C12.6001 18.1059 13.4938 18.9996 14.5962 18.9996H17.004C18.1064 18.9996 19.0001 18.1059 19.0001 17.0035V14.5957C19.0001 13.4933 18.1064 12.5996 17.004 12.5996H14.5962Z" fill="#333333"/>
<path fill-rule="evenodd" clip-rule="evenodd" d="M9.40393 13.7996H6.99607C6.55641 13.7996 6.2 14.156 6.2 14.5957V17.0035C6.2 17.4432 6.55641 17.7996 6.99607 17.7996H9.40393C9.84359 17.7996 10.2 17.4432 10.2 17.0035V14.5957C10.2 14.156 9.84359 13.7996 9.40393 13.7996ZM6.99607 12.5996C5.89367 12.5996 5 13.4933 5 14.5957V17.0035C5 18.1059 5.89367 18.9996 6.99607 18.9996H9.40393C10.5063 18.9996 11.4 18.1059 11.4 17.0035V14.5957C11.4 13.4933 10.5063 12.5996 9.40393 12.5996H6.99607Z" fill="#333333"/>
</svg>
