<svg width="24" height="24" viewBox="0 0 24 24" fill="none" xmlns="http://www.w3.org/2000/svg">
<path d="M10.8528 7.89645C11.0481 8.09171 11.0481 8.40829 10.8528 8.60355L7.95708 11.4993H17.2495C17.5257 11.4993 17.7495 11.7231 17.7495 11.9993C17.7495 12.2754 17.5257 12.4993 17.2495 12.4993H7.95589L10.8528 15.3962C11.0481 15.5914 11.0481 15.908 10.8528 16.1033C10.6575 16.2985 10.3409 16.2985 10.1457 16.1033L6.39596 12.3536C6.29829 12.2559 6.24948 12.1279 6.24951 11.9999C6.24948 11.8719 6.29829 11.7438 6.39596 11.6462L10.1457 7.89645C10.3409 7.70118 10.6575 7.70118 10.8528 7.89645Z" fill="#333333"/>
</svg>
