<svg width="24" height="24" viewBox="0 0 24 24" fill="none" xmlns="http://www.w3.org/2000/svg">
<path d="M11.9996 6.88379C12.2481 6.88379 12.4496 7.08526 12.4496 7.33379L12.4496 15.5813L15.015 13.0158C15.1907 12.8401 15.4757 12.8401 15.6514 13.0158C15.8271 13.1916 15.8271 13.4765 15.6514 13.6522L12.3183 16.9853C12.2311 17.0725 12.117 17.1165 12.0027 17.1171C11.8866 17.1178 11.7703 17.0739 11.6817 16.9853L8.3486 13.6522C8.17286 13.4765 8.17286 13.1916 8.3486 13.0158C8.52433 12.8401 8.80926 12.8401 8.98499 13.0158L11.5496 15.5804L11.5496 7.33379C11.5496 7.08526 11.751 6.88379 11.9996 6.88379Z" fill="#333333"/>
</svg>
