<svg width="24" height="24" viewBox="0 0 24 24" fill="none" xmlns="http://www.w3.org/2000/svg">
<path fill-rule="evenodd" clip-rule="evenodd" d="M17.4124 9.58039L12.4124 4.58039C12.3524 4.52039 12.2924 4.48039 12.2124 4.45039C12.1524 4.42039 12.0724 4.40039 11.9924 4.40039C11.9124 4.40039 11.8424 4.42039 11.7624 4.45039C11.6924 4.48039 11.6324 4.52039 11.5724 4.57039L6.5724 9.58039C6.3424 9.81039 6.3424 10.1904 6.5724 10.4304C6.8024 10.6704 7.1824 10.6604 7.4224 10.4304L11.4024 6.45039V19.0004C11.4024 19.3304 11.6724 19.6004 12.0024 19.6004C12.3324 19.6004 12.6024 19.3304 12.6024 19.0004V6.45039L16.5824 10.4304C16.8124 10.6604 17.1924 10.6604 17.4324 10.4304C17.6624 10.2004 17.6624 9.82039 17.4324 9.58039H17.4124Z" fill="#333333"/>
</svg>
