<svg width="24" height="24" viewBox="0 0 24 24" fill="none" xmlns="http://www.w3.org/2000/svg">
<path d="M13.1467 7.89645C12.9515 8.09171 12.9515 8.40829 13.1467 8.60355L16.0432 11.5L6.75 11.5C6.47386 11.5 6.25 11.7239 6.25 12C6.25 12.2761 6.47386 12.5 6.75 12.5L16.0429 12.5L13.1467 15.3962C12.9515 15.5914 12.9515 15.908 13.1467 16.1033C13.342 16.2985 13.6586 16.2985 13.8538 16.1033L17.6036 12.3536C17.7012 12.2559 17.75 12.1279 17.75 11.9999C17.75 11.8719 17.7012 11.7438 17.6036 11.6462L13.8538 7.89645C13.6586 7.70118 13.342 7.70118 13.1467 7.89645Z" fill="#333333"/>
</svg>
