<svg width="24" height="24" viewBox="0 0 24 24" fill="none" xmlns="http://www.w3.org/2000/svg">
<path d="M11.999 5.3252C12.3027 5.3252 12.549 5.57144 12.549 5.8752V16.7981L15.9855 13.3616C16.2003 13.1468 16.5485 13.1468 16.7633 13.3616C16.9781 13.5764 16.9781 13.9246 16.7633 14.1394L12.3886 18.5141C12.282 18.6207 12.1426 18.6744 12.0028 18.6752C11.8609 18.676 11.7188 18.6224 11.6105 18.5141L7.2358 14.1394C7.02101 13.9246 7.02101 13.5764 7.2358 13.3616C7.45059 13.1468 7.79883 13.1468 8.01362 13.3616L11.449 16.797V5.8752C11.449 5.57144 11.6952 5.3252 11.999 5.3252Z" fill="#333333"/>
</svg>
