<svg width="24" height="24" viewBox="0 0 24 24" fill="none" xmlns="http://www.w3.org/2000/svg">
<path d="M13.576 6.57613C13.3416 6.81044 13.3416 7.19034 13.576 7.42465L17.5517 11.4004L4.9999 11.4004C4.66853 11.4004 4.3999 11.669 4.3999 12.0004C4.3999 12.3318 4.66853 12.6004 4.9999 12.6004L17.5513 12.6004L13.576 16.5758C13.3416 16.8101 13.3416 17.19 13.576 17.4243C13.8103 17.6586 14.1902 17.6586 14.4245 17.4243L19.4241 12.4247C19.5413 12.3075 19.5999 12.1538 19.5999 12.0002C19.5999 11.8466 19.5413 11.693 19.4241 11.5758L14.4245 6.57613C14.1902 6.34181 13.8103 6.34181 13.576 6.57613Z" fill="#333333"/>
</svg>
