<svg width="24" height="24" viewBox="0 0 24 24" fill="none" xmlns="http://www.w3.org/2000/svg">
<path d="M13.0154 8.3486C12.8397 8.52433 12.8397 8.80926 13.0154 8.98499L15.5805 11.5501L7.3333 11.5501C7.08477 11.5501 6.8833 11.7516 6.8833 12.0001C6.8833 12.2487 7.08477 12.4501 7.3333 12.4501L15.5803 12.4501L13.0154 15.015C12.8397 15.1908 12.8397 15.4757 13.0154 15.6514C13.1911 15.8271 13.4761 15.8271 13.6518 15.6514L16.9849 12.3183C17.0728 12.2304 17.1167 12.1152 17.1167 12C17.1167 11.8848 17.0728 11.7696 16.9849 11.6817L13.6518 8.3486C13.4761 8.17286 13.1911 8.17286 13.0154 8.3486Z" fill="#333333"/>
</svg>
