<svg width="24" height="24" viewBox="0 0 24 24" fill="none" xmlns="http://www.w3.org/2000/svg">
<path d="M11.9773 5.3247C11.8443 5.33025 11.713 5.38379 11.6115 5.48531L7.23677 9.85999C7.02199 10.0748 7.02199 10.423 7.23677 10.6378C7.45156 10.8526 7.7998 10.8526 8.01459 10.6378L11.4504 7.20202V18.1242C11.4504 18.428 11.6966 18.6742 12.0004 18.6742C12.3041 18.6742 12.5504 18.428 12.5504 18.1242V7.20204L15.9861 10.6378C16.2009 10.8526 16.5492 10.8526 16.764 10.6378C16.9788 10.423 16.9788 10.0748 16.764 9.85999L12.3893 5.48531C12.276 5.37204 12.1256 5.3185 11.9773 5.3247Z" fill="#333333"/>
</svg>
