<svg width="24" height="24" viewBox="0 0 24 24" fill="none" xmlns="http://www.w3.org/2000/svg">
<path d="M10.9841 8.3486C11.1598 8.52433 11.1598 8.80926 10.9841 8.98499L8.41963 11.5495H16.6662C16.9147 11.5495 17.1162 11.7509 17.1162 11.9995C17.1162 12.248 16.9147 12.4495 16.6662 12.4495H8.41855L10.9841 15.015C11.1598 15.1908 11.1598 15.4757 10.9841 15.6514C10.8084 15.8271 10.5234 15.8271 10.3477 15.6514L7.01461 12.3183C6.92672 12.2304 6.88278 12.1152 6.88281 12C6.88278 11.8848 6.92672 11.7696 7.01461 11.6817L10.3477 8.3486C10.5234 8.17286 10.8084 8.17286 10.9841 8.3486Z" fill="#333333"/>
</svg>
