<svg width="24" height="24" viewBox="0 0 24 24" fill="none" xmlns="http://www.w3.org/2000/svg">
<path fill-rule="evenodd" clip-rule="evenodd" d="M18.8898 11.3929H6.3398L10.3098 7.42289C10.5398 7.19289 10.5398 6.81289 10.3098 6.57289C10.0798 6.34289 9.6998 6.34289 9.4598 6.57289L4.4698 11.5629C4.4098 11.6229 4.3698 11.6829 4.3398 11.7629C4.3098 11.8229 4.2998 11.8929 4.2998 11.9629C4.2998 11.9629 4.2998 11.9829 4.2998 11.9929C4.2998 12.0729 4.3198 12.1529 4.3498 12.2229C4.3698 12.2729 4.3998 12.3129 4.4398 12.3529C4.4598 12.3729 4.4598 12.4029 4.4798 12.4129L9.5798 17.4129C9.8098 17.6429 10.1898 17.6429 10.4298 17.4129C10.6698 17.1829 10.6598 16.8029 10.4298 16.5629L6.4498 12.5829H18.8998C19.2298 12.5829 19.4998 12.3129 19.4998 11.9829C19.4998 11.6529 19.2298 11.3829 18.8998 11.3829L18.8898 11.3929Z" fill="#333333"/>
</svg>
