<svg width="24" height="24" viewBox="0 0 24 24" fill="none" xmlns="http://www.w3.org/2000/svg">
<path d="M11.9912 6.2491C11.8663 6.25134 11.742 6.30012 11.6467 6.39547L7.89693 10.1452C7.70167 10.3405 7.70167 10.657 7.89693 10.8523C8.0922 11.0476 8.40878 11.0476 8.60404 10.8523L11.5002 7.9561V17.249C11.5002 17.5252 11.7241 17.749 12.0002 17.749C12.2764 17.749 12.5002 17.5252 12.5002 17.249V7.95613L15.3964 10.8523C15.5917 11.0476 15.9083 11.0476 16.1035 10.8523C16.2988 10.657 16.2988 10.3405 16.1035 10.1452L12.3538 6.39547C12.2539 6.29555 12.1222 6.24676 11.9912 6.2491Z" fill="#333333"/>
</svg>
