<svg width="24" height="24" viewBox="0 0 24 24" fill="none" xmlns="http://www.w3.org/2000/svg">
<path d="M13.3616 7.23629C13.1468 7.45107 13.1468 7.79932 13.3616 8.0141L16.7977 11.4502L5.8752 11.4502C5.57144 11.4502 5.3252 11.6964 5.3252 12.0002C5.3252 12.304 5.57144 12.5502 5.8752 12.5502L16.7974 12.5502L13.3616 15.986C13.1468 16.2008 13.1468 16.549 13.3616 16.7638C13.5764 16.9786 13.9246 16.9786 14.1394 16.7638L18.5141 12.3891C18.6215 12.2817 18.6752 12.1408 18.6752 12C18.6752 11.8592 18.6215 11.7184 18.5141 11.611L14.1394 7.23629C13.9246 7.0215 13.5764 7.0215 13.3616 7.23629Z" fill="#333333"/>
</svg>
