<svg width="24" height="24" viewBox="0 0 24 24" fill="none" xmlns="http://www.w3.org/2000/svg">
<path d="M11.5757 4.57555L6.57661 9.57465C6.3423 9.80896 6.3423 10.1889 6.57661 10.4232C6.81093 10.6575 7.19083 10.6575 7.42514 10.4232L11.4005 6.4478V18.9993C11.4005 19.3306 11.6691 19.5993 12.0005 19.5993C12.3319 19.5993 12.6005 19.3306 12.6005 18.9993V6.4478L16.5759 10.4232C16.8102 10.6575 17.1901 10.6575 17.4244 10.4232C17.6587 10.1889 17.6587 9.80896 17.4244 9.57465L12.4248 4.57501C12.3662 4.51643 12.2985 4.4725 12.2263 4.44321C12.0096 4.35534 11.7515 4.39981 11.5757 4.57555Z" fill="#333333"/>
</svg>
