<svg width="24" height="24" viewBox="0 0 24 24" fill="none" xmlns="http://www.w3.org/2000/svg">
<path d="M11.9994 6.25C12.2755 6.25 12.4994 6.47386 12.4994 6.75L12.4994 16.0435L15.3962 13.1467C15.5914 12.9515 15.908 12.9515 16.1033 13.1467C16.2985 13.342 16.2985 13.6586 16.1033 13.8538L12.3536 17.6036C12.2566 17.7005 12.1299 17.7493 12.0029 17.75C11.8739 17.7508 11.7446 17.702 11.6462 17.6036L7.89645 13.8538C7.70118 13.6586 7.70118 13.342 7.89645 13.1467C8.09171 12.9515 8.40829 12.9515 8.60355 13.1467L11.4994 16.0425L11.4994 6.75C11.4994 6.47386 11.7232 6.25 11.9994 6.25Z" fill="#333333"/>
</svg>
