<svg width="24" height="24" viewBox="0 0 24 24" fill="none" xmlns="http://www.w3.org/2000/svg">
<path d="M11.6795 7.01725L11.6822 7.01461C11.7721 6.92468 11.8906 6.88077 12.0085 6.88289C12.1209 6.88489 12.2328 6.9288 12.3186 7.01461L12.3211 7.01715L15.6516 10.3477C15.8274 10.5234 15.8274 10.8084 15.6516 10.9841C15.4759 11.1598 15.191 11.1598 15.0152 10.9841L12.4504 8.41921V16.6661C12.4504 16.9147 12.2489 17.1161 12.0004 17.1161C11.7518 17.1161 11.5504 16.9147 11.5504 16.6661V8.41923L8.98548 10.9841C8.80975 11.1598 8.52482 11.1598 8.34909 10.9841C8.17335 10.8084 8.17335 10.5234 8.34909 10.3477L11.6795 7.01725Z" fill="#333333"/>
</svg>
