<svg width="24" height="24" viewBox="0 0 24 24" fill="none" xmlns="http://www.w3.org/2000/svg">
<path d="M10.6383 7.23629C10.8531 7.45107 10.8531 7.79932 10.6383 8.0141L7.20306 11.4493H18.1247C18.4285 11.4493 18.6747 11.6956 18.6747 11.9993C18.6747 12.3031 18.4285 12.5493 18.1247 12.5493H7.20167L10.6383 15.986C10.8531 16.2008 10.8531 16.549 10.6383 16.7638C10.4235 16.9786 10.0753 16.9786 9.86048 16.7638L5.4858 12.3891C5.37836 12.2817 5.32467 12.1408 5.32471 12C5.32467 11.8592 5.37836 11.7184 5.4858 11.611L9.86048 7.23629C10.0753 7.0215 10.4235 7.0215 10.6383 7.23629Z" fill="#333333"/>
</svg>
