<svg width="24" height="24" viewBox="0 0 24 24" fill="none" xmlns="http://www.w3.org/2000/svg">
<path d="M11.9991 4.40039C12.3305 4.40039 12.5991 4.66902 12.5991 5.00039L12.5991 17.5527L16.5753 13.5765C16.8096 13.3422 17.1895 13.3422 17.4238 13.5765C17.6581 13.8108 17.6581 14.1907 17.4238 14.425L12.4242 19.4247C12.307 19.5419 12.1533 19.6004 11.9997 19.6004C11.8461 19.6004 11.6925 19.5419 11.5753 19.4247L6.57564 14.425C6.34132 14.1907 6.34132 13.8108 6.57564 13.5765C6.80995 13.3422 7.18985 13.3422 7.42417 13.5765L11.3991 17.5514L11.3991 5.00039C11.3991 4.66902 11.6677 4.40039 11.9991 4.40039Z" fill="#333333"/>
</svg>
