<svg width="24" height="24" viewBox="0 0 24 24" fill="none" xmlns="http://www.w3.org/2000/svg">
<path fill-rule="evenodd" clip-rule="evenodd" d="M17.4262 13.5804C17.1962 13.3504 16.8162 13.3504 16.5762 13.5804L12.5962 17.5604V5.00039C12.5962 4.67039 12.3262 4.40039 11.9962 4.40039C11.6662 4.40039 11.3962 4.67039 11.3962 5.00039V17.5504L7.42617 13.5804C7.19617 13.3504 6.81617 13.3504 6.57617 13.5804C6.33617 13.8104 6.34617 14.1904 6.57617 14.4304L11.5762 19.4304C11.6362 19.4904 11.6962 19.5304 11.7762 19.5604C11.8462 19.5904 11.9162 19.6004 11.9862 19.6004C11.9862 19.6004 11.9862 19.6004 11.9962 19.6004C12.0762 19.6004 12.1562 19.5804 12.2262 19.5504C12.2862 19.5304 12.3362 19.4904 12.3862 19.4504C12.3962 19.4504 12.4162 19.4404 12.4262 19.4304L17.4262 14.4304C17.6562 14.2004 17.6562 13.8204 17.4262 13.5804Z" fill="#333333"/>
</svg>
