<svg width="24" height="24" viewBox="0 0 24 24" fill="none" xmlns="http://www.w3.org/2000/svg">
<path d="M10.4233 6.57613C10.6576 6.81044 10.6576 7.19034 10.4233 7.42465L6.44855 11.3994H18.9994C19.3308 11.3994 19.5994 11.668 19.5994 11.9994C19.5994 12.3308 19.3308 12.5994 18.9994 12.5994H6.44697L10.4233 16.5758C10.6576 16.8101 10.6576 17.19 10.4233 17.4243C10.189 17.6586 9.8091 17.6586 9.57478 17.4243L4.57515 12.4247C4.45795 12.3075 4.39937 12.1538 4.39941 12.0002C4.39937 11.8466 4.45795 11.693 4.57515 11.5758L9.57478 6.57613C9.8091 6.34181 10.189 6.34181 10.4233 6.57613Z" fill="#333333"/>
</svg>
