<svg width="24" height="24" viewBox="0 0 24 24" fill="none" xmlns="http://www.w3.org/2000/svg">
<path fill-rule="evenodd" clip-rule="evenodd" d="M19.5499 11.7629C19.5199 11.6929 19.4799 11.6229 19.4199 11.5629L14.4199 6.57289C14.1899 6.34289 13.8099 6.34289 13.5699 6.57289C13.3299 6.80289 13.3399 7.18289 13.5699 7.42289L17.5499 11.4029H4.9999C4.6699 11.4029 4.3999 11.6729 4.3999 12.0029C4.3999 12.3329 4.6699 12.6029 4.9999 12.6029H17.5499L13.5699 16.5829C13.3399 16.8129 13.3399 17.1929 13.5699 17.4329C13.7999 17.6729 14.1799 17.6629 14.4199 17.4329L19.4199 12.4329C19.4799 12.3729 19.5199 12.3129 19.5499 12.2429C19.6099 12.0929 19.6099 11.9329 19.5499 11.7829V11.7629Z" fill="#333333"/>
</svg>
