<svg width="24" height="24" viewBox="0 0 24 24" fill="none" xmlns="http://www.w3.org/2000/svg">
<path d="M16.3757 15.4712C16.3582 13.9459 16.3757 10.5832 16.3757 8.44723C16.3757 6.31122 14.7837 4.59962 11.9015 4.59961C9.01929 4.5996 7.60216 6.26998 7.60216 8.33945C7.60216 10.4089 7.60192 15.1366 7.60216 16.3123C7.6024 17.488 8.83664 18.9216 10.6633 18.9216C12.4899 18.9216 13.6635 17.9754 13.6635 16.5242C13.6635 15.0731 13.6704 9.56785 13.6635 9.14457C13.6567 8.72129 13.2479 7.86914 12.1587 7.85655C11.0696 7.84396 10.5243 8.51724 10.5243 9.11092C10.5243 9.70459 10.6084 13.8763 10.6084 14.3111" stroke="#333333" stroke-width="1.2" stroke-linecap="round"/>
<path fill-rule="evenodd" clip-rule="evenodd" d="M8.25847 5.25809C9.10894 4.45318 10.3443 4 11.9014 4C13.4615 4 14.7348 4.46496 15.6247 5.28046C16.5168 6.09801 16.9756 7.2252 16.9756 8.44762C16.9756 9.14222 16.9738 9.96379 16.9719 10.8089C16.9679 12.5716 16.9638 14.4366 16.9756 15.4647C16.9794 15.796 16.7139 16.0677 16.3825 16.0715C16.0512 16.0753 15.7795 15.8098 15.7757 15.4785C15.7637 14.4422 15.7679 12.56 15.7719 10.7918C15.7738 9.95006 15.7756 9.13413 15.7756 8.44762C15.7756 7.53403 15.4384 6.73741 14.814 6.16516C14.1873 5.59085 13.2235 5.2 11.9014 5.2C10.5763 5.2 9.66197 5.582 9.08333 6.12964C8.50575 6.67628 8.20206 7.44462 8.20206 8.33984C8.20206 8.97441 8.20204 9.85888 8.20201 10.8142C8.20196 12.9746 8.20189 15.4974 8.20206 16.3126C8.20222 17.1233 9.13324 18.322 10.6632 18.322C11.4787 18.322 12.0845 18.1106 12.4731 17.7992C12.8488 17.4983 13.0634 17.0731 13.0634 16.5246C13.0634 16.1146 13.0639 15.3855 13.0646 14.5399C13.0662 12.3779 13.0683 9.4543 13.0635 9.15467C13.0625 9.09603 13.0187 8.91364 12.8696 8.74686C12.7395 8.60134 12.5233 8.46119 12.1517 8.4569C11.3317 8.44742 11.1242 8.91313 11.1242 9.11131C11.1242 9.40108 11.145 10.584 11.1661 11.7602C11.1678 11.8549 11.1695 11.9496 11.1712 12.0438C11.1904 13.1084 11.2083 14.1052 11.2083 14.3115C11.2083 14.6429 10.9397 14.9115 10.6083 14.9115C10.2769 14.9115 10.0083 14.6429 10.0083 14.3115C10.0083 14.1168 9.99043 13.1227 9.971 12.0417C9.96945 11.9555 9.96789 11.8687 9.96633 11.7818C9.94539 10.615 9.92418 9.41522 9.92418 9.11131C9.92418 8.12214 10.8072 7.24128 12.1656 7.25698C12.8831 7.26527 13.4159 7.55749 13.7642 7.94702C14.0934 8.31528 14.2574 8.77061 14.2633 9.13526C14.2684 9.44587 14.2662 12.4136 14.2646 14.5803C14.2639 15.4112 14.2634 16.1244 14.2634 16.5246C14.2634 17.4273 13.8912 18.2008 13.2234 18.7358C12.5686 19.2604 11.6742 19.522 10.6632 19.522C8.53984 19.522 7.00237 17.8534 7.00206 16.3128C7.00189 15.4975 7.00196 12.9745 7.00201 10.814C7.00204 9.85871 7.00206 8.97431 7.00206 8.33984C7.00206 7.16559 7.40694 6.06401 8.25847 5.25809Z" fill="#333333"/>
</svg>
