<svg width="24" height="24" viewBox="0 0 24 24" fill="none" xmlns="http://www.w3.org/2000/svg">
<path fill-rule="evenodd" clip-rule="evenodd" d="M7.09802 6.91723C8.86754 5.14773 11.3646 5.51574 12.4054 6.52838C13.037 7.14293 13.8456 7.9572 14.6587 8.77716C14.7095 8.82837 14.7603 8.87959 14.811 8.93079C15.5707 9.69705 16.3243 10.4571 16.9219 11.0432C17.1585 11.2752 17.5384 11.2715 17.7704 11.0349C18.0024 10.7983 17.9987 10.4185 17.7621 10.1864C17.1709 9.60657 16.423 8.85228 15.6608 8.08356C15.6109 8.03316 15.5608 7.9827 15.5108 7.93223C14.6997 7.11426 13.883 6.29184 13.2422 5.66833C11.7381 4.20484 8.49004 3.82817 6.24949 6.0687C4.01298 8.3052 4.3955 11.4781 5.83024 12.9129C6.77762 13.8603 9.72593 16.7179 11.2749 18.2192C11.6903 18.6218 12.0051 18.9269 12.1536 19.0715C12.6381 19.5428 13.5296 19.8877 14.4308 19.9649C15.3505 20.0438 16.4336 19.8567 17.2406 19.0714C18.7528 17.6 18.6715 15.3007 17.4249 14.0877C16.928 13.6042 15.4679 12.185 14.0881 10.8439C13.7388 10.5044 13.3946 10.1698 13.0724 9.85675C12.1221 8.9331 11.3639 8.19617 11.2321 8.06798C10.9601 7.80323 10.4997 7.56045 9.98311 7.49383C9.43953 7.42373 8.80448 7.54733 8.2694 8.06798C7.74275 8.58043 7.57927 9.21452 7.59256 9.74821C7.59916 10.013 7.64886 10.2616 7.72411 10.4736C7.79511 10.6736 7.90557 10.8877 8.06701 11.0448C8.34662 11.3169 12.0402 14.9958 12.3995 15.3551C12.6338 15.5894 13.0137 15.5894 13.2481 15.3551C13.4824 15.1208 13.4824 14.7409 13.2481 14.5066C12.8917 14.1502 9.19087 10.464 8.90386 10.1848C8.90791 10.1887 8.90983 10.1908 8.91 10.1906C8.91068 10.1901 8.88489 10.1564 8.85497 10.0721C8.82159 9.97811 8.79559 9.85485 8.79219 9.71834C8.78549 9.44938 8.86486 9.1629 9.10625 8.92803C9.33922 8.70135 9.59056 8.65314 9.82963 8.68398C10.0957 8.71828 10.3142 8.84917 10.3953 8.92803C10.5272 9.05635 11.2847 9.79257 12.234 10.7153C12.5568 11.029 12.9017 11.3642 13.2518 11.7045C14.6317 13.0457 16.0914 14.4645 16.5881 14.9478C17.3286 15.6683 17.454 17.1895 16.4038 18.2114C15.9295 18.6728 15.2414 18.83 14.5333 18.7693C13.8066 18.707 13.2136 18.4286 12.9905 18.2114C12.8386 18.0636 12.519 17.7539 12.0986 17.3464C10.5461 15.8416 7.61816 13.0037 6.67877 12.0644C5.7183 11.1039 5.32447 8.69077 7.09802 6.91723Z" fill="#333333"/>
</svg>
