<svg width="24" height="24" viewBox="0 0 24 24" fill="none" xmlns="http://www.w3.org/2000/svg">
<path d="M12.325 4.4873C10.1964 4.4873 8.167 5.34349 6.64662 6.82518L5.82909 7.65388V5.26699C5.82909 4.93562 5.56046 4.66699 5.22909 4.66699C4.89772 4.66699 4.62909 4.93562 4.62909 5.26699V9.20323C4.62909 9.5346 4.89772 9.80323 5.22909 9.80323H9.00131C9.33268 9.80323 9.60131 9.5346 9.60131 9.20323C9.60131 8.87185 9.33268 8.60323 9.00131 8.60323H6.57812L7.4883 7.68053C8.79231 6.41175 10.5225 5.6873 12.325 5.6873C13.5935 5.6873 14.8342 6.06861 15.8903 6.78397C16.9465 7.49939 17.7709 8.51713 18.2581 9.7094C18.7453 10.9017 18.8729 12.2142 18.6244 13.4806C18.376 14.7468 17.7629 15.9089 16.8639 16.8202C16.6312 17.0561 16.6338 17.436 16.8697 17.6687C17.1056 17.9014 17.4855 17.8988 17.7182 17.6629C18.7837 16.5827 19.5084 15.2075 19.802 13.7116C20.0955 12.2157 19.9449 10.6651 19.369 9.25552C18.793 7.84585 17.817 6.63967 16.5633 5.79044C15.3095 4.94114 13.8345 4.4873 12.325 4.4873Z" fill="#909090"/>
<path d="M6.76827 11.9629C6.97154 12.0646 7.09994 12.2723 7.09994 12.4996V18.4996C7.09994 18.831 6.83131 19.0996 6.49994 19.0996C6.16857 19.0996 5.89994 18.831 5.89994 18.4996V13.6996L4.85994 14.4796C4.59484 14.6784 4.21876 14.6247 4.01994 14.3596C3.82112 14.0945 3.87484 13.7184 4.13994 13.5196L6.13994 12.0196C6.32175 11.8832 6.565 11.8613 6.76827 11.9629Z" fill="#909090"/>
<path fill-rule="evenodd" clip-rule="evenodd" d="M11 11.8996C9.56402 11.8996 8.39996 13.0637 8.39996 14.4996V16.4996C8.39996 17.9355 9.56402 19.0996 11 19.0996C12.4359 19.0996 13.6 17.9355 13.6 16.4996V14.4996C13.6 13.0637 12.4359 11.8996 11 11.8996ZM9.59996 14.4996C9.59996 13.7264 10.2268 13.0996 11 13.0996C11.7732 13.0996 12.4 13.7264 12.4 14.4996V16.4996C12.4 17.2728 11.7732 17.8996 11 17.8996C10.2268 17.8996 9.59996 17.2728 9.59996 16.4996V14.4996Z" fill="#909090"/>
</svg>
