<svg width="24" height="24" viewBox="0 0 24 24" fill="none" xmlns="http://www.w3.org/2000/svg">
<path d="M12.3248 4.48828C10.1963 4.48828 8.16688 5.34447 6.6465 6.82616L5.82891 7.65492V5.26797C5.82891 4.9366 5.56028 4.66797 5.22891 4.66797C4.89754 4.66797 4.62891 4.9366 4.62891 5.26797V9.2042C4.62891 9.53557 4.89754 9.8042 5.22891 9.8042H9.00112C9.33249 9.8042 9.60112 9.53557 9.60112 9.2042C9.60112 8.87283 9.33249 8.6042 9.00112 8.6042H6.578L7.48818 7.68151C8.79219 6.41272 10.5223 5.68828 12.3248 5.68828C13.5934 5.68828 14.8341 6.06958 15.8902 6.78494C16.9464 7.50037 17.7708 8.5181 18.258 9.71038C18.7452 10.9027 18.8728 12.2152 18.6243 13.4815C18.3758 14.7478 17.7627 15.9098 16.8638 16.8211C16.6311 17.057 16.6337 17.4369 16.8696 17.6696C17.1055 17.9024 17.4854 17.8998 17.7181 17.6639C18.7836 16.5837 19.5083 15.2085 19.8018 13.7126C20.0954 12.2167 19.9448 10.6661 19.3688 9.25649C18.7929 7.84683 17.8169 6.64065 16.5632 5.79142C15.3094 4.94212 13.8344 4.48828 12.3248 4.48828Z" fill="#333333"/>
<path d="M10.3233 11.5137C9.99191 11.5137 9.72328 11.7823 9.72328 12.1137V14.7958C9.72328 15.1272 9.99191 15.3958 10.3233 15.3958H11.4855C12.5413 15.3958 13.2994 16.1549 13.2994 17.0309C13.2994 17.9069 12.5413 18.666 11.4855 18.666C11.1311 18.666 10.8654 18.598 10.5916 18.4611C10.2952 18.313 9.93481 18.4331 9.78662 18.7295C9.63843 19.0259 9.75856 19.3863 10.0549 19.5345C10.4964 19.7552 10.946 19.866 11.4855 19.866C13.1118 19.866 14.4994 18.6583 14.4994 17.0309C14.4994 15.4036 13.1118 14.1958 11.4855 14.1958H10.9233V12.7137H13.8994C14.2308 12.7137 14.4994 12.445 14.4994 12.1137C14.4994 11.7823 14.2308 11.5137 13.8994 11.5137H10.3233Z" fill="#333333"/>
<path d="M7.94304 12.1137C7.94304 11.8864 7.81464 11.6787 7.61136 11.577C7.40809 11.4754 7.16485 11.4973 6.98304 11.6337L4.59892 13.4218C4.33383 13.6206 4.2801 13.9967 4.47892 14.2618C4.67774 14.5269 5.05383 14.5806 5.31892 14.3818L6.74304 13.3137V19.266C6.74304 19.5974 7.01167 19.866 7.34304 19.866C7.67441 19.866 7.94304 19.5974 7.94304 19.266V12.1137Z" fill="#333333"/>
</svg>
