<svg width="24" height="24" viewBox="0 0 24 24" fill="none" xmlns="http://www.w3.org/2000/svg">
<path fill-rule="evenodd" clip-rule="evenodd" d="M16.5181 7.56229C17.6407 8.70507 18.3332 10.2718 18.3332 12.0003C18.3332 15.4981 15.4976 18.3337 11.9998 18.3337C10.2734 18.3337 8.70828 17.6429 7.56585 16.5226C7.54972 16.5097 7.53415 16.4958 7.51922 16.4809C7.50429 16.466 7.4904 16.4504 7.47755 16.4343C6.35729 15.2919 5.6665 13.7268 5.6665 12.0003C5.6665 8.50253 8.50204 5.66699 11.9998 5.66699C13.7283 5.66699 15.2951 6.35942 16.4378 7.48201C16.4524 7.49385 16.4665 7.50655 16.48 7.5201C16.4936 7.53366 16.5063 7.54774 16.5181 7.56229ZM17.2332 12.0003C17.2332 14.8906 14.8901 17.2337 11.9998 17.2337C10.7528 17.2337 9.60763 16.7975 8.70858 16.0694L16.0689 8.70907C16.797 9.60812 17.2332 10.7533 17.2332 12.0003ZM7.93076 15.2916L15.2911 7.93125C14.392 7.20316 13.2469 6.76699 11.9998 6.76699C9.10955 6.76699 6.7665 9.11004 6.7665 12.0003C6.7665 13.2474 7.20267 14.3925 7.93076 15.2916Z" fill="#333333"/>
</svg>
