<svg width="24" height="24" viewBox="0 0 24 24" fill="none" xmlns="http://www.w3.org/2000/svg">
<path fill-rule="evenodd" clip-rule="evenodd" d="M11.9998 16.3337C14.3931 16.3337 16.3332 14.3936 16.3332 12.0003C16.3332 9.60709 14.3931 7.66699 11.9998 7.66699C9.60661 7.66699 7.6665 9.60709 7.6665 12.0003C7.6665 14.3936 9.60661 16.3337 11.9998 16.3337ZM15.4332 12.0003C15.4332 13.8965 13.896 15.4337 11.9998 15.4337C11.214 15.4337 10.4898 15.1696 9.91111 14.7254L14.7249 9.91159C15.1691 10.4903 15.4332 11.2145 15.4332 12.0003ZM9.27471 14.089L14.0885 9.2752C13.5099 8.83102 12.7857 8.56699 11.9998 8.56699C10.1037 8.56699 8.5665 10.1042 8.5665 12.0003C8.5665 12.7862 8.83053 13.5104 9.27471 14.089Z" fill="#333333"/>
</svg>
