<svg width="24" height="24" viewBox="0 0 24 24" fill="none" xmlns="http://www.w3.org/2000/svg">
<path fill-rule="evenodd" clip-rule="evenodd" d="M11.9998 17.3337C14.9454 17.3337 17.3332 14.9458 17.3332 12.0003C17.3332 9.05481 14.9454 6.66699 11.9998 6.66699C9.05432 6.66699 6.6665 9.05481 6.6665 12.0003C6.6665 14.9458 9.05432 17.3337 11.9998 17.3337ZM16.3332 12.0003C16.3332 14.3936 14.3931 16.3337 11.9998 16.3337C10.982 16.3337 10.0461 15.9827 9.30655 15.3952C9.3228 15.3826 9.33844 15.3688 9.35337 15.3539L15.3534 9.35387C15.3683 9.33894 15.3821 9.32329 15.3948 9.30704C15.9822 10.0466 16.3332 10.9825 16.3332 12.0003ZM8.6049 14.6936C8.61755 14.6773 8.63133 14.6617 8.64626 14.6468L14.6463 8.64677C14.6612 8.63183 14.6769 8.61804 14.6931 8.60539C13.9536 8.01792 13.0177 7.66699 11.9998 7.66699C9.60661 7.66699 7.6665 9.60709 7.6665 12.0003C7.6665 13.0182 8.01743 13.9541 8.6049 14.6936Z" fill="#333333"/>
</svg>
