<svg width="24" height="24" viewBox="0 0 24 24" fill="none" xmlns="http://www.w3.org/2000/svg">
<path fill-rule="evenodd" clip-rule="evenodd" d="M5.20781 6.2293H6.90781C7.23918 6.2293 7.50781 5.96067 7.50781 5.6293C7.50781 5.29793 7.23918 5.0293 6.90781 5.0293H5.10781C4.5003 5.0293 4.00781 5.52178 4.00781 6.1293V7.9293C4.00781 8.26067 4.27644 8.5293 4.60781 8.5293C4.93918 8.5293 5.20781 8.26067 5.20781 7.9293V6.2293ZM16.4915 5.6293C16.4915 5.29793 16.7601 5.0293 17.0915 5.0293H18.8979C19.5054 5.0293 19.9979 5.52178 19.9979 6.1293V7.93565C19.9979 8.26702 19.7292 8.53565 19.3979 8.53565C19.0665 8.53565 18.7979 8.26702 18.7979 7.93565V6.2293H17.0915C16.7601 6.2293 16.4915 5.96067 16.4915 5.6293ZM4.60781 15.5013C4.93918 15.5013 5.20781 15.7699 5.20781 16.1013V17.8047H6.91119C7.24256 17.8047 7.51119 18.0733 7.51119 18.4047C7.51119 18.7361 7.24256 19.0047 6.91119 19.0047H5.10781C4.5003 19.0047 4.00781 18.5122 4.00781 17.9047V16.1013C4.00781 15.7699 4.27644 15.5013 4.60781 15.5013ZM19.3979 15.5031C19.7292 15.5031 19.9979 15.7718 19.9979 16.1031V17.9047C19.9979 18.5122 19.5054 19.0047 18.8979 19.0047H17.0963C16.7649 19.0047 16.4963 18.7361 16.4963 18.4047C16.4963 18.0733 16.7649 17.8047 17.0963 17.8047H18.7979V16.1031C18.7979 15.7718 19.0665 15.5031 19.3979 15.5031Z" fill="#333333"/>
<path d="M7.9001 8.57051C7.9001 8.23914 7.63147 7.97051 7.3001 7.97051C6.96873 7.97051 6.7001 8.23914 6.7001 8.57051V15.6362C6.7001 15.9676 6.96873 16.2362 7.3001 16.2362C7.63147 16.2362 7.9001 15.9676 7.9001 15.6362L7.9001 8.57051Z" fill="#333333"/>
<path d="M12.0003 7.9802C12.3316 7.9802 12.6003 8.24883 12.6003 8.5802V15.6354C12.6003 15.9667 12.3316 16.2354 12.0003 16.2354C11.6689 16.2354 11.4003 15.9667 11.4003 15.6354L11.4003 8.5802C11.4003 8.24883 11.6689 7.9802 12.0003 7.9802Z" fill="#333333"/>
<path d="M14.9493 8.58081C14.9493 8.24944 14.6806 7.98081 14.3493 7.98081C14.0179 7.98081 13.7493 8.24944 13.7493 8.58081V13.0612C13.7493 13.3926 14.0179 13.6612 14.3493 13.6612C14.6806 13.6612 14.9493 13.3926 14.9493 13.0612V8.58081Z" fill="#333333"/>
<path d="M15.0998 15.415C15.0998 15.0008 14.764 14.665 14.3497 14.665C13.9355 14.665 13.5998 15.0008 13.5998 15.415V15.4877C13.5998 15.9019 13.9356 16.2377 14.3498 16.2377C14.764 16.2377 15.0998 15.9019 15.0998 15.4877V15.415Z" fill="#333333"/>
<path d="M10.2496 8.57988C10.2496 8.24851 9.98098 7.97988 9.64961 7.97988C9.31824 7.97988 9.04961 8.24851 9.04961 8.57988V13.0603C9.04961 13.3917 9.31824 13.6603 9.64961 13.6603C9.98098 13.6603 10.2496 13.3917 10.2496 13.0603V8.57988Z" fill="#333333"/>
<path d="M10.4001 15.4148C10.4001 15.0006 10.0643 14.6648 9.65009 14.6648C9.23587 14.6649 8.90009 15.0006 8.9001 15.4149V15.4876C8.90011 15.9018 9.2359 16.2375 9.65012 16.2375C10.0643 16.2375 10.4001 15.9017 10.4001 15.4875L10.4001 15.4148Z" fill="#333333"/>
<path d="M16.7303 7.98027C17.0617 7.98027 17.3303 8.2489 17.3303 8.58027V12.7252C17.3303 13.0566 17.0617 13.3252 16.7303 13.3252C16.3989 13.3252 16.1303 13.0566 16.1303 12.7252V8.58027C16.1303 8.2489 16.3989 7.98027 16.7303 7.98027Z" fill="#333333"/>
<path d="M16.7303 14.6648C17.1445 14.6648 17.4803 15.0006 17.4803 15.4148V15.4875C17.4803 15.9017 17.1445 16.2375 16.7303 16.2375C16.3161 16.2375 15.9803 15.9018 15.9803 15.4876V15.4149C15.9803 15.0006 16.3161 14.6649 16.7303 14.6648Z" fill="#333333"/>
</svg>
