<svg width="24" height="24" viewBox="0 0 24 24" fill="none" xmlns="http://www.w3.org/2000/svg">
<path fill-rule="evenodd" clip-rule="evenodd" d="M18.8451 7.88001L17.945 8.78686C18.4662 8.93784 18.811 9.38654 18.811 9.86406V15.0566C18.811 15.6439 18.2895 16.1875 17.5599 16.1875H10.599L9.40788 17.3875H17.5599C18.875 17.3875 20.011 16.3813 20.011 15.0566V14.0534H20.3616C20.693 14.0534 20.9616 13.7848 20.9616 13.4534V11.4682C20.9616 11.1368 20.693 10.8682 20.3616 10.8682H20.011V9.86406C20.011 9.00767 19.5362 8.28436 18.8451 7.88001ZM6.87803 18.2435L6.11236 19.0149C5.87891 19.2501 5.49902 19.2515 5.26384 19.018C5.02865 18.7846 5.02725 18.4047 5.26069 18.1695L6.06602 17.3582C4.92274 17.1837 4.00195 16.2492 4.00195 15.0566V9.86406C4.00195 8.53943 5.13797 7.5332 6.45309 7.5332H15.8184L17.172 6.1695C17.4055 5.93432 17.7854 5.93291 18.0206 6.16635C18.2327 6.37692 18.2546 6.70665 18.0856 6.94184L6.93989 18.1705C6.91701 18.1935 6.89639 18.218 6.87803 18.2435ZM6.45309 8.7332H14.6273L7.22805 16.1875H6.45309C5.7235 16.1875 5.20195 15.6439 5.20195 15.0566V9.86406C5.20195 9.27683 5.7235 8.7332 6.45309 8.7332Z" fill="#333333"/>
</svg>
