<svg width="24" height="24" viewBox="0 0 24 24" fill="none" xmlns="http://www.w3.org/2000/svg">
<path d="M6.87988 10.1801C6.87988 9.85008 7.14988 9.58008 7.47988 9.58008C7.80988 9.58008 8.07988 9.85008 8.07988 10.1801V13.6801C8.07988 14.0101 7.80988 14.2801 7.47988 14.2801C7.14988 14.2801 6.87988 14.0101 6.87988 13.6801V10.1801Z" fill="#333333"/>
<path fill-rule="evenodd" clip-rule="evenodd" d="M20.01 10.33H20.36C20.69 10.33 20.96 10.6 20.96 10.93V12.92C20.96 13.25 20.69 13.52 20.36 13.52H20.01V14.52C20.01 15.84 18.88 16.85 17.56 16.85H6.45C5.14 16.85 4 15.84 4 14.52V9.33C4 8.01 5.14 7 6.45 7H17.56C18.87 7 20.01 8.01 20.01 9.33V10.33ZM17.56 15.65C18.29 15.65 18.81 15.11 18.81 14.52V9.33C18.81 8.74 18.29 8.2 17.56 8.2H6.45C5.72 8.2 5.2 8.74 5.2 9.33V14.52C5.2 15.11 5.72 15.65 6.45 15.65H17.56Z" fill="#333333"/>
</svg>
