<svg width="24" height="24" viewBox="0 0 24 24" fill="none" xmlns="http://www.w3.org/2000/svg">
<path fill-rule="evenodd" clip-rule="evenodd" d="M12.0781 3.56123C12.2916 3.46357 12.5424 3.49938 12.72 3.65288L17.451 7.74143C17.5847 7.857 17.6607 8.02565 17.6586 8.20239C17.6565 8.37912 17.5767 8.54596 17.4403 8.65838L13.2598 12.1044L17.4531 15.7632C17.5872 15.8802 17.6624 16.0506 17.6585 16.2285C17.6546 16.4064 17.5719 16.5734 17.4328 16.6843L12.7018 20.4585C12.5217 20.6022 12.2751 20.63 12.0674 20.53C11.8597 20.43 11.7277 20.2199 11.7277 19.9894V13.3673L7.96017 16.4729C7.70447 16.6837 7.32632 16.6473 7.11555 16.3916C6.90478 16.1359 6.9412 15.7577 7.19689 15.547L11.4048 12.0783L7.18406 8.39556C6.93437 8.1777 6.90857 7.79868 7.12644 7.54899C7.3443 7.29931 7.72332 7.27351 7.97301 7.49137L11.7277 10.7675V4.10684C11.7277 3.87209 11.8646 3.65889 12.0781 3.56123ZM12.9277 13.4071L16.1224 16.1947L12.9277 18.7432V13.4071ZM12.9277 10.823V5.41838L16.1285 8.18456L12.9277 10.823Z" fill="#333333"/>
</svg>
