<svg width="24" height="24" viewBox="0 0 24 24" fill="none" xmlns="http://www.w3.org/2000/svg">
<path fill-rule="evenodd" clip-rule="evenodd" d="M6.52197 6.48574C6.52197 5.87823 7.01446 5.38574 7.62197 5.38574H12.8738C13.8383 5.38574 14.757 5.78831 15.4297 6.49456C16.1013 7.19982 16.4739 8.15037 16.4739 9.13574C16.4739 10.1568 16.0744 10.9152 15.4339 11.5893C15.3929 11.634 15.3497 11.6777 15.3046 11.7203C15.8007 11.8974 16.2574 12.1789 16.6396 12.5516C17.3553 13.2494 17.722 14.3633 17.722 15.2857C17.722 16.2455 17.3308 17.1628 16.6396 17.8367C15.949 18.5101 15.0154 18.8857 14.045 18.8857H7.62197C7.01446 18.8857 6.52197 18.3933 6.52197 17.7857V6.48574ZM13.2373 12.7025C13.2514 12.703 13.2656 12.703 13.2799 12.7025L14.045 12.7025C14.7068 12.7025 15.3385 12.959 15.8019 13.4108C16.2403 13.8382 16.522 14.6169 16.522 15.2857C16.522 15.9173 16.2648 16.5261 15.8019 16.9775C15.3385 17.4293 14.7068 17.6857 14.045 17.6857H7.72197V12.7025L13.2373 12.7025ZM13.2157 11.5025C13.3937 11.4717 13.6396 11.3866 13.896 11.2523C14.1697 11.109 14.4058 10.9357 14.5519 10.7755L14.5606 10.766C15.0428 10.2597 15.2738 9.78334 15.2738 9.13574C15.2738 8.45025 15.0142 7.79837 14.5607 7.32215C14.1081 6.84692 13.5007 6.58574 12.8738 6.58574H7.72197V11.5025L13.2157 11.5025Z" fill="#333333"/>
</svg>
