<svg width="24" height="24" viewBox="0 0 24 24" fill="none" xmlns="http://www.w3.org/2000/svg">
<path d="M9.98214 4.27263C9.73588 4.09044 9.40436 4.02676 9.15692 3.99499C8.87909 3.95931 8.5621 3.94908 8.25277 3.94922C7.94088 3.94937 7.61843 3.96022 7.32794 3.97062L7.26012 3.97305C6.99225 3.98269 6.76028 3.99104 6.57607 3.99104C6.2447 3.99104 5.97607 4.25966 5.97607 4.59104C5.97607 4.92241 6.2447 5.19104 6.57607 5.19104C6.7832 5.19104 7.03723 5.18188 7.29719 5.1725L7.37088 5.16985C7.66233 5.15941 7.96524 5.14935 8.25332 5.14922C8.54397 5.14909 8.80156 5.15921 9.00408 5.18522C9.16519 5.2059 9.24098 5.2311 9.26474 5.239C9.27532 5.24252 9.27557 5.2426 9.26843 5.23732C9.33394 5.28578 9.48859 5.4123 9.71852 5.60041C9.82773 5.68975 9.95406 5.7931 10.0957 5.90846C10.5221 6.25564 11.0638 6.69166 11.6285 7.12281C12.1914 7.55256 12.7863 7.98445 13.3181 8.32032C13.5838 8.4881 13.8427 8.63764 14.0801 8.75191C14.3068 8.86105 14.5581 8.96007 14.7973 8.98978C15.3847 9.06275 16.5959 9.14297 17.6384 9.20432C18.1645 9.23527 18.6549 9.26182 19.0138 9.28062C19.1933 9.29003 19.34 9.2975 19.4418 9.30263L19.601 9.31055C19.9319 9.32666 20.2134 9.07141 20.2295 8.74044C20.2456 8.40946 19.9897 8.12805 19.6588 8.11194L19.5021 8.10415C19.401 8.09906 19.2552 8.09163 19.0766 8.08227C18.7194 8.06355 18.2317 8.03715 17.7089 8.00639C16.654 7.94431 15.4858 7.86609 14.9452 7.79894C14.9025 7.79362 14.7923 7.76296 14.6006 7.67066C14.4195 7.58352 14.203 7.4599 13.9589 7.30571C13.471 6.99763 12.9086 6.59033 12.3567 6.16901C11.8067 5.74908 11.2762 5.32216 10.8534 4.9779C10.7365 4.88267 10.6255 4.79189 10.5237 4.70862C10.2696 4.50074 10.0724 4.33941 9.98214 4.27263Z" fill="#333333"/>
<path d="M19.6508 15.4228C19.982 15.4114 20.2412 15.1337 20.2298 14.8025C20.2185 14.4713 19.94 14.2121 19.6088 14.2235L19.5663 14.225L19.4448 14.2295C19.3398 14.2335 19.1892 14.2394 19.006 14.2471C18.6398 14.2625 18.1425 14.2854 17.6191 14.3148C17.0964 14.3443 16.5438 14.3806 16.0682 14.4231C15.6101 14.4641 15.1738 14.5148 14.9148 14.5818C14.72 14.6323 14.4953 14.7547 14.2994 14.8716C14.0838 15.0002 13.831 15.1672 13.5592 15.3556C13.0146 15.733 12.3662 16.2154 11.7358 16.6939C11.3054 17.0205 10.8787 17.3489 10.4966 17.6429C10.3191 17.7795 10.1511 17.9088 9.99696 18.027C9.75242 18.2145 9.54314 18.3737 9.38154 18.4933C9.30064 18.5532 9.23437 18.6012 9.18311 18.637C9.13315 18.6719 9.10974 18.6864 9.10576 18.6889C9.0897 18.6978 9.01891 18.726 8.85143 18.7473C8.69364 18.7673 8.49531 18.776 8.25615 18.7775C8.04416 18.7788 7.81527 18.7745 7.56837 18.7698L7.47595 18.768C7.19724 18.7628 6.90003 18.7581 6.60275 18.7626C6.27141 18.7676 6.00685 19.0402 6.01184 19.3715C6.01682 19.7029 6.28946 19.9674 6.62079 19.9625C6.89583 19.9583 7.17507 19.9626 7.45353 19.9678L7.54565 19.9696C7.79014 19.9742 8.03528 19.9789 8.26358 19.9775C8.51963 19.9759 8.77382 19.9667 9.00247 19.9377C9.22144 19.9099 9.471 19.858 9.68582 19.7394C9.78604 19.6841 9.94044 19.5726 10.0956 19.4577C10.2659 19.3316 10.482 19.1672 10.727 18.9793C10.8845 18.8586 11.0542 18.728 11.2327 18.5906C11.6133 18.2977 12.034 17.974 12.4612 17.6498C13.0887 17.1736 13.7202 16.704 14.2427 16.3419C14.5045 16.1605 14.7321 16.0108 14.9143 15.902C15.0055 15.8476 15.0797 15.8068 15.1375 15.7784C15.1929 15.7511 15.2169 15.7434 15.2169 15.7432L15.2156 15.7435C15.3634 15.7052 15.7011 15.6608 16.1752 15.6183C16.6319 15.5775 17.1696 15.5421 17.6865 15.5129C18.2026 15.4839 18.694 15.4613 19.0566 15.446C19.2378 15.4384 19.3867 15.4325 19.4901 15.4286L19.6094 15.4242L19.6508 15.4228Z" fill="#333333"/>
<path d="M9.63257 9.30952C9.61061 9.42298 9.55569 9.53133 9.46782 9.6192L7.8243 11.2627C7.58999 11.4971 7.21009 11.4971 6.97577 11.2627C6.74146 11.0284 6.74145 10.6485 6.97577 10.4142L7.54545 9.84453H4.61465C4.28328 9.84453 4.01465 9.5759 4.01465 9.24453C4.01465 8.91316 4.28328 8.64453 4.61465 8.64453H7.64464L6.9666 7.9665C6.73229 7.73219 6.73229 7.35229 6.9666 7.11797C7.20092 6.88366 7.58082 6.88366 7.81513 7.11797L9.46782 8.77066C9.55416 8.857 9.60868 8.9631 9.63139 9.0744C9.64721 9.15189 9.6476 9.2319 9.63257 9.30952Z" fill="#333333"/>
<path d="M12.3498 12.967C12.1155 13.2013 12.1155 13.5812 12.3498 13.8155C12.5841 14.0498 12.964 14.0498 13.1983 13.8155L14.8418 12.1719C14.9024 12.1114 14.9473 12.041 14.9766 11.966C15.0322 11.8234 15.0312 11.6639 14.9736 11.5219C14.9444 11.4497 14.9004 11.382 14.8418 11.3234L13.1892 9.67071C12.9548 9.43639 12.5749 9.43639 12.3406 9.67071C12.1063 9.90502 12.1063 10.2849 12.3406 10.5192L13.0187 11.1973H10.4247C10.0933 11.1973 9.82471 11.4659 9.82471 11.7973C9.82471 12.1286 10.0933 12.3973 10.4247 12.3973H12.9195L12.3498 12.967Z" fill="#333333"/>
<path d="M6.97577 16.7256C6.74146 16.4913 6.74145 16.1114 6.97577 15.8771L7.54447 15.3084H4.61465C4.28328 15.3084 4.01465 15.0398 4.01465 14.7084C4.01465 14.377 4.28328 14.1084 4.61465 14.1084H7.64561L6.9666 13.4294C6.73229 13.1951 6.73229 12.8152 6.9666 12.5809C7.20092 12.3465 7.58082 12.3465 7.81513 12.5809L9.46782 14.2336C9.5264 14.2921 9.57033 14.3598 9.59962 14.432C9.66024 14.5815 9.65813 14.7505 9.59327 14.8987C9.56413 14.9652 9.52231 15.0276 9.46782 15.0821L7.8243 16.7256C7.58999 16.9599 7.21009 16.9599 6.97577 16.7256Z" fill="#333333"/>
</svg>
