<svg width="24" height="24" viewBox="0 0 24 24" fill="none" xmlns="http://www.w3.org/2000/svg">
<path d="M7.13857 5.40039C6.8072 5.40039 6.53857 5.66902 6.53857 6.00039C6.53857 6.33176 6.8072 6.60039 7.13857 6.60039H16.8612C17.1926 6.60039 17.4612 6.33176 17.4612 6.00039C17.4612 5.66902 17.1926 5.40039 16.8612 5.40039H7.13857Z" fill="#333333"/>
<path fill-rule="evenodd" clip-rule="evenodd" d="M7.49756 15.5244C8.4708 15.5244 9.25977 14.7354 9.25977 13.7622C9.25977 12.789 8.4708 12 7.49756 12C6.52432 12 5.73535 12.789 5.73535 13.7622C5.73535 14.7354 6.52432 15.5244 7.49756 15.5244ZM7.49756 14.3244C7.80806 14.3244 8.05977 14.0727 8.05977 13.7622C8.05977 13.4517 7.80806 13.2 7.49756 13.2C7.18706 13.2 6.93535 13.4517 6.93535 13.7622C6.93535 14.0727 7.18706 14.3244 7.49756 14.3244Z" fill="#333333"/>
<path fill-rule="evenodd" clip-rule="evenodd" d="M12.022 15.5244C12.9952 15.5244 13.7842 14.7354 13.7842 13.7622C13.7842 12.789 12.9952 12 12.022 12C11.0487 12 10.2598 12.789 10.2598 13.7622C10.2598 14.7354 11.0487 15.5244 12.022 15.5244ZM12.022 14.3244C12.3325 14.3244 12.5842 14.0727 12.5842 13.7622C12.5842 13.4517 12.3325 13.2 12.022 13.2C11.7115 13.2 11.4598 13.4517 11.4598 13.7622C11.4598 14.0727 11.7115 14.3244 12.022 14.3244Z" fill="#333333"/>
<path fill-rule="evenodd" clip-rule="evenodd" d="M18.3086 13.7622C18.3086 14.7354 17.5196 15.5244 16.5464 15.5244C15.5731 15.5244 14.7842 14.7354 14.7842 13.7622C14.7842 12.789 15.5731 12 16.5464 12C17.5196 12 18.3086 12.789 18.3086 13.7622ZM17.1086 13.7622C17.1086 14.0727 16.8569 14.3244 16.5464 14.3244C16.2359 14.3244 15.9842 14.0727 15.9842 13.7622C15.9842 13.4517 16.2359 13.2 16.5464 13.2C16.8569 13.2 17.1086 13.4517 17.1086 13.7622Z" fill="#333333"/>
<path fill-rule="evenodd" clip-rule="evenodd" d="M4.44092 9C3.88863 9 3.44092 9.44829 3.44092 10.0006V15.9998C3.44092 17.6566 4.78406 19 6.44092 19H17.5591C19.2159 19 20.5591 17.6569 20.5591 16V10C20.5591 9.44772 20.1114 9 19.5591 9H4.44092ZM4.64092 10.2V15.9998C4.64092 16.994 5.44692 17.8 6.44092 17.8H17.5591C18.5532 17.8 19.3591 16.9941 19.3591 16V10.2H4.64092Z" fill="#333333"/>
</svg>
