<svg width="24" height="24" viewBox="0 0 24 24" fill="none" xmlns="http://www.w3.org/2000/svg">
<path fill-rule="evenodd" clip-rule="evenodd" d="M18.2299 6.97983L13.2499 4.30983C12.4699 3.88983 11.5299 3.89983 10.7499 4.32983L5.7299 7.12983C4.9099 7.58983 4.3999 8.45983 4.3999 9.39983V14.6198C4.3999 15.5598 4.9099 16.4298 5.7299 16.8898L10.7399 19.6998C11.5299 20.1398 12.4899 20.1398 13.2799 19.6998L18.2699 16.9098C19.0899 16.4498 19.5999 15.5798 19.5999 14.6398V9.26983C19.5999 8.30983 19.0699 7.42983 18.2299 6.97983ZM11.3399 5.37983C11.7599 5.14983 12.2599 5.13983 12.6899 5.36983L17.5599 7.98983L15.4199 9.26983L10.1199 6.05983L11.3399 5.37983ZM11.9999 11.3198L6.5599 8.04983L8.9199 6.72983L14.2599 9.95983L12.0099 11.3098L11.9999 11.3198ZM6.3199 15.8398C5.8799 15.5898 5.5999 15.1298 5.5999 14.6198V9.39983C5.5999 9.22983 5.6399 9.07983 5.6899 8.92983L11.3999 12.3598V18.6798C11.3999 18.6798 11.3499 18.6598 11.3199 18.6498L6.3099 15.8398H6.3199ZM18.3999 14.6398C18.3999 15.1498 18.1299 15.6198 17.6799 15.8598L12.6899 18.6498C12.6899 18.6498 12.6299 18.6698 12.5999 18.6898V12.3598L14.8099 11.0298V13.7398C14.8099 13.9698 15.0499 14.1098 15.2499 13.9998L15.7499 13.7298C15.9099 13.6398 16.0099 13.4698 16.0099 13.2898V10.3298C16.0099 10.3298 16.0099 10.3198 16.0099 10.3098L18.3499 8.89983C18.3799 9.01983 18.3999 9.13983 18.3999 9.26983V14.6398Z" fill="#333333"/>
</svg>
