<svg width="24" height="24" viewBox="0 0 24 24" fill="none" xmlns="http://www.w3.org/2000/svg">
<path d="M13.9999 12.6199H9.9999C9.6699 12.6199 9.3999 12.3499 9.3999 12.0199C9.3999 11.6899 9.6699 11.4199 9.9999 11.4199H13.9999C14.3299 11.4199 14.5999 11.6899 14.5999 12.0199C14.5999 12.3499 14.3299 12.6199 13.9999 12.6199Z" fill="#333333"/>
<path fill-rule="evenodd" clip-rule="evenodd" d="M6.6 5H17.4C18.28 5 19 5.72 19 6.6V8.6C19 9.27 18.58 9.84 18 10.08V17.4C18 18.28 17.28 19 16.4 19H7.6C6.72 19 6 18.28 6 17.4V10.08C5.41 9.84 5 9.27 5 8.6V6.6C5 5.72 5.72 5 6.6 5ZM16.4 17.8C16.62 17.8 16.8 17.62 16.8 17.4V10.2H7.2V17.4C7.2 17.62 7.38 17.8 7.6 17.8H16.4ZM17.4 9C17.62 9 17.8 8.82 17.8 8.6V6.6C17.8 6.38 17.62 6.2 17.4 6.2H6.6C6.38 6.2 6.2 6.38 6.2 6.6V8.6C6.2 8.82 6.38 9 6.6 9H17.4Z" fill="#333333"/>
</svg>
