<svg width="24" height="24" viewBox="0 0 24 24" fill="none" xmlns="http://www.w3.org/2000/svg">
<path fill-rule="evenodd" clip-rule="evenodd" d="M8.34465 7.08588C8.34465 6.75451 8.61328 6.48588 8.94465 6.48588H18.6102C18.9415 6.48588 19.2102 6.75451 19.2102 7.08588C19.2102 7.41725 18.9415 7.68588 18.6102 7.68588H8.94465C8.61328 7.68588 8.34465 7.41725 8.34465 7.08588Z" fill="#333333"/>
<path fill-rule="evenodd" clip-rule="evenodd" d="M8.34465 16.7516C8.34465 16.4202 8.61328 16.1516 8.94465 16.1516H18.6102C18.9415 16.1516 19.2102 16.4202 19.2102 16.7516C19.2102 17.083 18.9415 17.3516 18.6102 17.3516H8.94465C8.61328 17.3516 8.34465 17.083 8.34465 16.7516Z" fill="#333333"/>
<path fill-rule="evenodd" clip-rule="evenodd" d="M8.34465 11.9189C8.34465 11.5875 8.61328 11.3189 8.94465 11.3189H18.6102C18.9415 11.3189 19.2102 11.5875 19.2102 11.9189C19.2102 12.2502 18.9415 12.5189 18.6102 12.5189H8.94465C8.61328 12.5189 8.34465 12.2502 8.34465 11.9189Z" fill="#333333"/>
<path fill-rule="evenodd" clip-rule="evenodd" d="M5.72291 7.25664C5.75772 7.25664 5.78594 7.22842 5.78594 7.19361C5.78594 7.1588 5.75772 7.13059 5.72291 7.13059C5.6881 7.13059 5.65988 7.1588 5.65988 7.19361C5.65988 7.22842 5.6881 7.25664 5.72291 7.25664ZM4.58594 7.19361C4.58594 6.56568 5.09498 6.05664 5.72291 6.05664C6.35084 6.05664 6.85988 6.56568 6.85988 7.19361C6.85988 7.82155 6.35084 8.33059 5.72291 8.33059C5.09498 8.33059 4.58594 7.82155 4.58594 7.19361Z" fill="#333333"/>
<path fill-rule="evenodd" clip-rule="evenodd" d="M5.72291 11.9817C5.75772 11.9817 5.78594 11.9535 5.78594 11.9187C5.78594 11.8839 5.75772 11.8557 5.72291 11.8557C5.6881 11.8557 5.65988 11.8839 5.65988 11.9187C5.65988 11.9535 5.6881 11.9817 5.72291 11.9817ZM4.58594 11.9187C4.58594 11.2908 5.09498 10.7817 5.72291 10.7817C6.35084 10.7817 6.85988 11.2908 6.85988 11.9187C6.85988 12.5466 6.35084 13.0557 5.72291 13.0557C5.09498 13.0557 4.58594 12.5466 4.58594 11.9187Z" fill="#333333"/>
<path fill-rule="evenodd" clip-rule="evenodd" d="M5.72291 16.8145C5.75772 16.8145 5.78594 16.7862 5.78594 16.7514C5.78594 16.7166 5.75772 16.6884 5.72291 16.6884C5.6881 16.6884 5.65988 16.7166 5.65988 16.7514C5.65988 16.7862 5.6881 16.8145 5.72291 16.8145ZM4.58594 16.7514C4.58594 16.1235 5.09498 15.6145 5.72291 15.6145C6.35084 15.6145 6.85988 16.1235 6.85988 16.7514C6.85988 17.3794 6.35084 17.8884 5.72291 17.8884C5.09498 17.8884 4.58594 17.3794 4.58594 16.7514Z" fill="#333333"/>
</svg>
