<svg width="24" height="24" viewBox="0 0 24 24" fill="none" xmlns="http://www.w3.org/2000/svg">
<path d="M10.3619 6.09298C10.1489 6.34683 10.182 6.72528 10.4359 6.93828C10.6897 7.15128 11.0682 7.11817 11.2812 6.86433L12.5845 5.31115C12.6745 5.24872 12.7469 5.16216 12.7919 5.06041C12.9691 4.80827 12.9267 4.45813 12.6862 4.2564L10.921 2.77515C10.6671 2.56215 10.2887 2.59526 10.0757 2.84911C9.86267 3.10295 9.89578 3.48141 10.1496 3.69441L10.8483 4.28065C10.4373 4.33312 10.027 4.41581 9.62061 4.52965C6.24782 5.47459 4.0376 8.74161 4.0376 12.2681C4.0376 12.5994 4.30623 12.8681 4.6376 12.8681C4.96897 12.8681 5.2376 12.5994 5.2376 12.2681C5.2376 9.21365 7.1506 6.46787 9.94434 5.68516C10.2505 5.59938 10.5593 5.53417 10.8687 5.48898L10.3619 6.09298Z" fill="#333333"/>
<path d="M9.52383 10.0398C9.19246 10.0398 8.92383 10.3084 8.92383 10.6398C8.92383 10.9711 9.19246 11.2398 9.52383 11.2398L14.5453 11.2398C14.8767 11.2398 15.1453 10.9711 15.1453 10.6398C15.1453 10.3084 14.8767 10.0398 14.5453 10.0398L9.52383 10.0398Z" fill="#333333"/>
<path d="M5.78292 15.2458H7.67783C8.0092 15.2458 8.27783 15.5145 8.27783 15.8458C8.27783 16.1772 8.0092 16.4458 7.67783 16.4458H6.90414C7.15352 16.7331 7.42726 17.0034 7.72412 17.2533C8.75235 18.1188 9.87284 18.6259 11.1055 18.7711C12.343 18.9168 13.733 18.7021 15.3006 18.0604C15.6073 17.9349 15.9577 18.0817 16.0832 18.3884C16.2087 18.6951 16.0619 19.0455 15.7552 19.171C14.0455 19.8708 12.449 20.1376 10.9651 19.9629C9.47633 19.7875 8.14041 19.1722 6.95135 18.1714C6.59827 17.8742 6.27328 17.552 5.97792 17.2093L5.97792 18.1492C5.97792 18.4806 5.70929 18.7492 5.37792 18.7492C5.04654 18.7492 4.77792 18.4806 4.77792 18.1492L4.77792 15.8458C4.77792 15.5145 5.04654 15.2458 5.37792 15.2458H5.64228C5.68924 15.2403 5.73646 15.2404 5.78292 15.2458Z" fill="#333333"/>
<path d="M8.92383 13.6398C8.92383 13.3084 9.19246 13.0398 9.52383 13.0398L14.5453 13.0398C14.8767 13.0398 15.1453 13.3084 15.1453 13.6398C15.1453 13.9711 14.8767 14.2398 14.5453 14.2398L9.52383 14.2398C9.19246 14.2398 8.92383 13.9711 8.92383 13.6398Z" fill="#333333"/>
<path d="M18.2227 14.7034C18.4128 14.2951 18.5672 13.8654 18.6814 13.4189C19.0096 12.136 18.8057 10.6525 18.1793 9.30272C17.5534 7.95419 16.529 6.79046 15.2862 6.12842C14.9938 5.97261 14.883 5.60923 15.0388 5.31677C15.1946 5.02431 15.558 4.91352 15.8504 5.06933C17.3573 5.87208 18.5493 7.2495 19.2677 8.79753C19.9856 10.3443 20.2542 12.1128 19.844 13.7163C19.7195 14.2029 19.5539 14.6724 19.3516 15.1205L20.0983 14.8331C20.4075 14.7141 20.7547 14.8683 20.8737 15.1776C20.9928 15.4868 20.8385 15.834 20.5293 15.953L18.3792 16.7805C18.0699 16.8995 17.7228 16.7453 17.6037 16.436L16.7775 14.2892C16.6585 13.9799 16.8127 13.6327 17.122 13.5137C17.4312 13.3947 17.7784 13.5489 17.8974 13.8582L18.2227 14.7034Z" fill="#333333"/>
</svg>
