<svg width="24" height="24" viewBox="0 0 24 24" fill="none" xmlns="http://www.w3.org/2000/svg">
<path d="M10.55 17.35C10.88 17.35 11.15 17.62 11.15 17.95C11.15 18.28 10.88 18.55 10.55 18.55H6.7C5.21 18.55 4 17.34 4 15.85V7.7C4 6.21 5.21 5 6.7 5H7.75V3.81C7.75 3.36 8.11 3 8.56 3C9.01 3 9.37 3.36 9.37 3.81V5H14.61V3.81C14.61 3.36 14.97 3 15.42 3C15.87 3 16.23 3.36 16.23 3.81V5H17.28C18.77 5 19.98 6.21 19.98 7.7V10.2C19.98 10.53 19.71 10.8 19.38 10.8C19.05 10.8 18.78 10.53 18.78 10.2V7.7C18.78 6.87 18.11 6.2 17.28 6.2H16.23V6.79C16.23 7.24 15.87 7.6 15.42 7.6C14.97 7.6 14.61 7.24 14.61 6.79V6.2H9.37V6.79C9.37 7.24 9.01 7.6 8.56 7.6C8.11 7.6 7.75 7.24 7.75 6.79V6.2H6.7C5.87 6.2 5.2 6.87 5.2 7.7V15.85C5.2 16.68 5.87 17.35 6.7 17.35H10.55Z" fill="#333333"/>
<path d="M13.2098 10.5201V9.67012C13.2098 9.23012 12.8498 8.87012 12.4098 8.87012H11.5998C11.1598 8.87012 10.7998 9.23012 10.7998 9.67012V10.5201C10.7998 10.9601 11.1598 11.3201 11.5998 11.3201H12.4098C12.8498 11.3201 13.2098 10.9601 13.2098 10.5201Z" fill="#333333"/>
<path d="M9.59018 9.67988C9.59018 9.23988 9.23018 8.87988 8.79018 8.87988H7.98018C7.54018 8.87988 7.18018 9.23988 7.18018 9.67988V10.5299C7.18018 10.9699 7.54018 11.3299 7.98018 11.3299H8.79018C9.23018 11.3299 9.59018 10.9699 9.59018 10.5299V9.67988Z" fill="#333333"/>
<path d="M7.98018 12.6797H8.79018C9.23018 12.6797 9.59018 13.0397 9.59018 13.4797V14.3297C9.59018 14.7697 9.23018 15.1297 8.79018 15.1297H7.98018C7.54018 15.1297 7.18018 14.7697 7.18018 14.3297V13.4797C7.18018 13.0397 7.54018 12.6797 7.98018 12.6797Z" fill="#333333"/>
<path d="M19.9199 13.5797L17.9199 11.5797C17.6899 11.3497 17.3099 11.3497 17.0699 11.5797C16.8399 11.8097 16.8399 12.1897 17.0699 12.4297L18.0499 13.4097H16.4999C14.5099 13.4097 12.8999 15.0197 12.8999 17.0097V18.1497C12.8999 18.4797 13.1699 18.7497 13.4999 18.7497C13.8299 18.7497 14.0999 18.4797 14.0999 18.1497V17.0097C14.0999 15.6797 15.1699 14.6097 16.4999 14.6097H18.0499L17.0699 15.5897C16.8399 15.8197 16.8399 16.1997 17.0699 16.4397C17.2999 16.6697 17.6799 16.6697 17.9199 16.4397L19.9199 14.4397C20.1499 14.2097 20.1499 13.8297 19.9199 13.5897V13.5797Z" fill="#333333"/>
</svg>
