<svg width="24" height="24" viewBox="0 0 24 24" fill="none" xmlns="http://www.w3.org/2000/svg">
<path d="M12.1899 9.53021C12.3799 9.41021 12.6099 9.40021 12.7999 9.51021V9.52021C12.9899 9.62021 13.1099 9.82021 13.1099 10.0402V15.0402C13.1099 15.3702 12.8399 15.6402 12.5099 15.6402C12.1799 15.6402 11.9099 15.3702 11.9099 15.0402V11.1202L10.8299 11.8002C10.5499 11.9802 10.1799 11.8902 9.99995 11.6102C9.81995 11.3302 9.90995 10.9602 10.1899 10.7802L12.1899 9.53021Z" fill="#333333"/>
<path fill-rule="evenodd" clip-rule="evenodd" d="M16.27 5.02039H17.31C18.8 5.02039 20.01 6.23039 20.01 7.72039V16.6504C20.01 18.1404 18.8 19.3504 17.31 19.3504H6.7C5.21 19.3504 4 18.1404 4 16.6504V7.72039C4 6.23039 5.21 5.02039 6.72 5.02039H7.77V4.71039C7.77 4.26039 8.13 3.90039 8.58 3.90039C9.03 3.90039 9.39 4.26039 9.39 4.71039V5.02039H14.65V4.71039C14.65 4.26039 15.01 3.90039 15.46 3.90039C15.91 3.90039 16.27 4.26039 16.27 4.71039V5.02039ZM17.31 18.1504C18.14 18.1504 18.81 17.4804 18.81 16.6504H18.79V7.72039C18.79 6.89039 18.12 6.22039 17.29 6.22039H16.25V7.27039C16.25 7.72039 15.89 8.08039 15.44 8.08039C14.99 8.08039 14.63 7.72039 14.63 7.27039V6.22039H9.37V7.27039C9.37 7.72039 9.01 8.08039 8.56 8.08039C8.11 8.08039 7.75 7.72039 7.75 7.27039V6.22039H6.7C5.87 6.22039 5.2 6.89039 5.2 7.72039V16.6504C5.2 17.4804 5.87 18.1504 6.7 18.1504H17.31Z" fill="#333333"/>
</svg>
