<svg width="24" height="24" viewBox="0 0 24 24" fill="none" xmlns="http://www.w3.org/2000/svg">
<path d="M14.7576 9.57567C14.9919 9.80998 14.9919 10.1899 14.7576 10.4242L10.4034 14.7784C10.1691 15.0127 9.78921 15.0127 9.5549 14.7784L7.57573 12.7992C7.34142 12.5649 7.34142 12.185 7.57573 11.9507C7.81004 11.7164 8.18994 11.7164 8.42426 11.9507L9.97916 13.5056L13.9091 9.57567C14.1434 9.34135 14.5233 9.34135 14.7576 9.57567Z" fill="#333333"/>
<path d="M16.341 12.0077C16.5753 11.7734 16.5753 11.3935 16.341 11.1592C16.1067 10.9249 15.7268 10.9249 15.4925 11.1592L12.948 13.7037L12.7785 13.5342C12.5442 13.2999 12.1643 13.2999 11.93 13.5342C11.6957 13.7685 11.6957 14.1484 11.93 14.3827L12.5237 14.9764C12.758 15.2108 13.1379 15.2108 13.3723 14.9764L16.341 12.0077Z" fill="#333333"/>
<path fill-rule="evenodd" clip-rule="evenodd" d="M8.5614 3.88379C8.1122 3.88379 7.74805 4.24794 7.74805 4.69714V5.02051H6.69561C5.20444 5.02051 3.99561 6.22934 3.99561 7.72051V16.6223C3.99561 18.1134 5.20444 19.3223 6.69561 19.3223H17.3047C18.7958 19.3223 20.0047 18.1134 20.0047 16.6223V7.72051C20.0047 6.22934 18.7958 5.02051 17.3047 5.02051H16.2635V4.69714C16.2635 4.24794 15.8993 3.88379 15.4501 3.88379C15.0009 3.88379 14.6367 4.24794 14.6367 4.69714V5.02051H9.37476V4.69714C9.37476 4.24794 9.0106 3.88379 8.5614 3.88379ZM14.6367 6.22051H9.37476V7.25989C9.37476 7.70909 9.0106 8.07324 8.5614 8.07324C8.1122 8.07324 7.74805 7.70909 7.74805 7.25989V6.22051H6.69561C5.86718 6.22051 5.19561 6.89208 5.19561 7.72051V16.6223C5.19561 17.4507 5.86718 18.1223 6.69561 18.1223H17.3047C18.1331 18.1223 18.8047 17.4507 18.8047 16.6223V7.72051C18.8047 6.89208 18.1331 6.22051 17.3047 6.22051H16.2635V7.23938C16.2635 7.68858 15.8993 8.05273 15.4501 8.05273C15.0009 8.05273 14.6367 7.68858 14.6367 7.23938V6.22051Z" fill="#333333"/>
</svg>
