<svg width="24" height="24" viewBox="0 0 24 24" fill="none" xmlns="http://www.w3.org/2000/svg">
<path d="M10.55 18.35C10.88 18.35 11.15 18.62 11.15 18.95C11.15 19.28 10.88 19.55 10.55 19.55H6.7C5.21 19.55 4 18.34 4 16.85V8.7C4 7.21 5.21 6 6.7 6H7.75V4.81C7.75 4.36 8.11 4 8.56 4C9.01 4 9.37 4.36 9.37 4.81V6H14.61V4.81C14.61 4.36 14.97 4 15.42 4C15.87 4 16.23 4.36 16.23 4.81V6H17.28C18.77 6 19.98 7.21 19.98 8.7V11.2C19.98 11.53 19.71 11.8 19.38 11.8C19.05 11.8 18.78 11.53 18.78 11.2V8.7C18.78 7.87 18.11 7.2 17.28 7.2H16.23V7.79C16.23 8.24 15.87 8.6 15.42 8.6C14.97 8.6 14.61 8.24 14.61 7.79V7.2H9.37V7.79C9.37 8.24 9.01 8.6 8.56 8.6C8.11 8.6 7.75 8.24 7.75 7.79V7.2H6.7C5.87 7.2 5.2 7.87 5.2 8.7V16.85C5.2 17.68 5.87 18.35 6.7 18.35H10.55Z" fill="#333333"/>
<path d="M13.2098 11.5201V10.6701C13.2098 10.2301 12.8498 9.87012 12.4098 9.87012H11.5998C11.1598 9.87012 10.7998 10.2301 10.7998 10.6701V11.5201C10.7998 11.9601 11.1598 12.3201 11.5998 12.3201H12.4098C12.8498 12.3201 13.2098 11.9601 13.2098 11.5201Z" fill="#333333"/>
<path d="M9.59018 10.6799C9.59018 10.2399 9.23018 9.87988 8.79018 9.87988H7.98018C7.54018 9.87988 7.18018 10.2399 7.18018 10.6799V11.5299C7.18018 11.9699 7.54018 12.3299 7.98018 12.3299H8.79018C9.23018 12.3299 9.59018 11.9699 9.59018 11.5299V10.6799Z" fill="#333333"/>
<path d="M7.98018 13.6797H8.79018C9.23018 13.6797 9.59018 14.0397 9.59018 14.4797V15.3297C9.59018 15.7697 9.23018 16.1297 8.79018 16.1297H7.98018C7.54018 16.1297 7.18018 15.7697 7.18018 15.3297V14.4797C7.18018 14.0397 7.54018 13.6797 7.98018 13.6797Z" fill="#333333"/>
<path d="M19.9199 14.5797L17.9199 12.5797C17.6899 12.3497 17.3099 12.3497 17.0699 12.5797C16.8399 12.8097 16.8399 13.1897 17.0699 13.4297L18.0499 14.4097H16.4999C14.5099 14.4097 12.8999 16.0197 12.8999 18.0097V19.1497C12.8999 19.4797 13.1699 19.7497 13.4999 19.7497C13.8299 19.7497 14.0999 19.4797 14.0999 19.1497V18.0097C14.0999 16.6797 15.1699 15.6097 16.4999 15.6097H18.0499L17.0699 16.5897C16.8399 16.8197 16.8399 17.1997 17.0699 17.4397C17.2999 17.6697 17.6799 17.6697 17.9199 17.4397L19.9199 15.4397C20.1499 15.2097 20.1499 14.8297 19.9199 14.5897V14.5797Z" fill="#333333"/>
</svg>
