<svg width="24" height="24" viewBox="0 0 24 24" fill="none" xmlns="http://www.w3.org/2000/svg">
<path d="M15.9899 9.66016H15.1799C14.7381 9.66016 14.3799 10.0183 14.3799 10.4602V11.3102C14.3799 11.752 14.7381 12.1102 15.1799 12.1102H15.9899C16.4317 12.1102 16.7899 11.752 16.7899 11.3102V10.4602C16.7899 10.0183 16.4317 9.66016 15.9899 9.66016Z" fill="#333333"/>
<path d="M11.6599 9.66016H12.4699C12.9117 9.66016 13.2699 10.0183 13.2699 10.4602V11.3102C13.2699 11.752 12.9117 12.1102 12.4699 12.1102H11.6599C11.218 12.1102 10.8599 11.752 10.8599 11.3102V10.4602C10.8599 10.0183 11.218 9.66016 11.6599 9.66016Z" fill="#333333"/>
<path d="M8.79018 9.66016H7.98018C7.53835 9.66016 7.18018 10.0183 7.18018 10.4602V11.3102C7.18018 11.752 7.53835 12.1102 7.98018 12.1102H8.79018C9.232 12.1102 9.59018 11.752 9.59018 11.3102V10.4602C9.59018 10.0183 9.232 9.66016 8.79018 9.66016Z" fill="#333333"/>
<path d="M7.98018 13.46H8.79018C9.232 13.46 9.59018 13.8181 9.59018 14.26V15.11C9.59018 15.5518 9.232 15.91 8.79018 15.91H7.98018C7.53835 15.91 7.18018 15.5518 7.18018 15.11V14.26C7.18018 13.8181 7.53835 13.46 7.98018 13.46Z" fill="#333333"/>
<path fill-rule="evenodd" clip-rule="evenodd" d="M17.31 5.14039H16.27V4.71039C16.27 4.26039 15.91 3.90039 15.46 3.90039C15.01 3.90039 14.65 4.26039 14.65 4.71039V5.14039H9.39V4.71039C9.39 4.26039 9.03 3.90039 8.58 3.90039C8.13 3.90039 7.77 4.26039 7.77 4.71039V5.14039H6.72C5.21 5.14039 4 6.35039 4 7.84039V16.5904C4 18.0804 5.21 19.2904 6.7 19.2904H17.31C18.8 19.2904 20.01 18.0804 20.01 16.5904V7.84039C20.01 6.35039 18.8 5.14039 17.31 5.14039ZM18.81 16.6004C18.81 17.4304 18.14 18.1004 17.31 18.1004H6.7C5.87 18.1004 5.2 17.4304 5.2 16.6004V7.84039C5.2 7.01039 5.87 6.34039 6.7 6.34039H7.75V7.27039C7.75 7.72039 8.11 8.08039 8.56 8.08039C9.01 8.08039 9.37 7.72039 9.37 7.27039V6.34039H14.63V7.27039C14.63 7.72039 14.99 8.08039 15.44 8.08039C15.89 8.08039 16.25 7.72039 16.25 7.27039V6.34039H17.29C18.12 6.34039 18.79 7.01039 18.79 7.84039V16.5904L18.81 16.6004Z" fill="#333333"/>
</svg>
