<svg width="24" height="24" viewBox="0 0 24 24" fill="none" xmlns="http://www.w3.org/2000/svg">
<path fill-rule="evenodd" clip-rule="evenodd" d="M8.5614 3.88379C8.1122 3.88379 7.74805 4.24794 7.74805 4.69714V5.02051H6.69561C5.20444 5.02051 3.99561 6.22934 3.99561 7.72051V16.6223C3.99561 18.1134 5.20444 19.3223 6.69561 19.3223H17.3047C18.7958 19.3223 20.0047 18.1134 20.0047 16.6223V7.72051C20.0047 6.22934 18.7958 5.02051 17.3047 5.02051H16.2635V4.69714C16.2635 4.24794 15.8993 3.88379 15.4501 3.88379C15.0009 3.88379 14.6367 4.24794 14.6367 4.69714V5.02051H9.37476V4.69714C9.37476 4.24794 9.0106 3.88379 8.5614 3.88379ZM14.6367 6.22051H9.37476V7.25989C9.37476 7.70909 9.0106 8.07324 8.5614 8.07324C8.1122 8.07324 7.74805 7.70909 7.74805 7.25989V6.22051H6.69561C5.86718 6.22051 5.19561 6.89208 5.19561 7.72051V16.6223C5.19561 17.4507 5.86718 18.1223 6.69561 18.1223H17.3047C18.1331 18.1223 18.8047 17.4507 18.8047 16.6223V7.72051C18.8047 6.89208 18.1331 6.22051 17.3047 6.22051H16.2635V7.23938C16.2635 7.68858 15.8993 8.05273 15.4501 8.05273C15.0009 8.05273 14.6367 7.68858 14.6367 7.23938V6.22051Z" fill="#333333"/>
</svg>
