<svg width="24" height="24" viewBox="0 0 24 24" fill="none" xmlns="http://www.w3.org/2000/svg">
<path fill-rule="evenodd" clip-rule="evenodd" d="M4.42417 4.57613C4.18985 4.34181 3.80995 4.34181 3.57564 4.57613C3.34132 4.81044 3.34132 5.19034 3.57564 5.42465L4.64991 6.49893C4.22402 6.8657 3.95437 7.40886 3.95437 8.01501V15.9856C3.95437 17.0902 4.8498 17.9856 5.95437 17.9856H14.2555C14.7775 17.9856 15.2529 17.7856 15.609 17.458L17.5756 19.4247C17.81 19.659 18.1899 19.659 18.4242 19.4247C18.6585 19.1903 18.6585 18.8104 18.4242 18.5761L4.42417 4.57613ZM14.7586 16.6076L5.50443 7.35344C5.29312 7.49744 5.15437 7.74002 5.15437 8.01501V15.9856C5.15437 16.4274 5.51254 16.7856 5.95437 16.7856H14.2555C14.4461 16.7856 14.6212 16.7189 14.7586 16.6076Z" fill="#333333"/>
<path fill-rule="evenodd" clip-rule="evenodd" d="M15.0555 8.01501V13.7075L15.4999 14.0004L16.2555 14.5375L18.4485 16.0874C19.5745 16.8831 21.1296 16.0779 21.1296 14.6991V9.29769C21.1296 7.92099 19.5788 7.11525 18.4523 7.90671L16.2555 9.45022V8.01501C16.2555 6.91045 15.3601 6.01501 14.2555 6.01501H7.36305L8.56305 7.21501H14.2555C14.6973 7.21501 15.0555 7.57319 15.0555 8.01501ZM16.2625 10.9119L16.2625 13.073L19.1411 15.1074C19.4722 15.3414 19.9296 15.1046 19.9296 14.6991V9.29769C19.9296 8.89278 19.4735 8.6558 19.1422 8.88858L16.2625 10.9119Z" fill="#333333"/>
</svg>
