<svg width="24" height="24" viewBox="0 0 24 24" fill="none" xmlns="http://www.w3.org/2000/svg">
<path fill-rule="evenodd" clip-rule="evenodd" d="M8.43018 12.4831C8.43018 10.5131 10.0302 8.91309 12.0002 8.91309C13.9702 8.91309 15.5702 10.5131 15.5702 12.4831C15.5702 14.4531 13.9702 16.0531 12.0002 16.0531C10.0302 16.0531 8.43018 14.4531 8.43018 12.4831ZM9.63018 12.4831C9.63018 13.7931 10.6902 14.8531 12.0002 14.8531C13.3102 14.8531 14.3702 13.7931 14.3702 12.4831C14.3702 11.1731 13.3102 10.1131 12.0002 10.1131C10.6902 10.1131 9.63018 11.1731 9.63018 12.4831Z" fill="#333333"/>
<path fill-rule="evenodd" clip-rule="evenodd" d="M16.12 6.9227H18C19.1 6.9227 20 7.8227 20 8.9227V16.5227C20 17.6227 19.1 18.5227 18 18.5227H6C4.9 18.5227 4 17.6227 4 16.5227V8.9227C4 7.8227 4.9 6.9227 6 6.9227H7.82L8.84 5.4027C9.21 4.8427 9.83 4.5127 10.5 4.5127H13.4C14.06 4.5127 14.68 4.8327 15.05 5.3727L16.12 6.9227ZM18 17.3127C18.44 17.3127 18.8 16.9527 18.8 16.5127V8.91269C18.8 8.4727 18.44 8.1127 18 8.1127H16.12C15.72 8.1127 15.35 7.9127 15.13 7.5927L14.06 6.0427C13.91 5.8327 13.66 5.7027 13.4 5.7027H10.5C10.24 5.7027 9.99 5.8427 9.84 6.0627L8.82 7.5827C8.59 7.9127 8.22 8.1127 7.82 8.1127H6C5.56 8.1127 5.2 8.4727 5.2 8.91269V16.5127C5.2 16.9527 5.56 17.3127 6 17.3127H18Z" fill="#333333"/>
</svg>
