<svg width="24" height="24" viewBox="0 0 24 24" fill="none" xmlns="http://www.w3.org/2000/svg">
<path d="M9.16982 8.09961H14.5798C14.9098 8.09961 15.1798 8.36961 15.1798 8.69961C15.1798 9.02961 14.9098 9.29961 14.5798 9.29961H9.16982C8.83982 9.29961 8.56982 9.02961 8.56982 8.69961C8.56982 8.36961 8.83982 8.09961 9.16982 8.09961Z" fill="#333333"/>
<path d="M14.5798 10.2305H9.16982C8.83982 10.2305 8.56982 10.5005 8.56982 10.8305C8.56982 11.1605 8.83982 11.4305 9.16982 11.4305H14.5798C14.9098 11.4305 15.1798 11.1605 15.1798 10.8305C15.1798 10.5005 14.9098 10.2305 14.5798 10.2305Z" fill="#333333"/>
<path d="M13.4498 16.4199C13.4498 17.2499 12.7998 17.9199 11.9998 17.9199C11.1998 17.9199 10.5498 17.2499 10.5498 16.4199C10.5498 15.5899 11.1998 14.9199 11.9998 14.9199C12.7998 14.9199 13.4498 15.5899 13.4498 16.4199Z" fill="#333333"/>
<path fill-rule="evenodd" clip-rule="evenodd" d="M19.44 12.96H20C20.55 12.96 21 13.41 21 13.96V17.26C21 18.75 19.79 19.96 18.3 19.96H5.7C4.21 19.96 3 18.75 3 17.26V13.96C3 13.41 3.45 12.96 4 12.96H4.56L5.96 7.3C6.21 6.29 7.02 5.54 8.01 5.32V5C8.01 4.45 8.46 4 9.01 4H10.88C11.43 4 11.88 4.45 11.88 5V5.26H15.4C16.64 5.26 17.72 6.1 18.02 7.3L19.44 12.96ZM8.59 6.46C7.9 6.46 7.3 6.93 7.13 7.6V7.61L5.8 12.96H18.21L16.87 7.6C16.7 6.93 16.1 6.46 15.41 6.46H8.59ZM18.3 18.76C19.13 18.76 19.8 18.09 19.8 17.26V14.16H4.2V17.26C4.2 18.09 4.87 18.76 5.7 18.76H18.3Z" fill="#333333"/>
</svg>
