<svg width="24" height="24" viewBox="0 0 24 24" fill="none" xmlns="http://www.w3.org/2000/svg">
<path d="M8.5002 5.00039C8.5002 4.66902 8.23157 4.40039 7.9002 4.40039C7.56883 4.40039 7.3002 4.66902 7.3002 5.00039V17.1438L4.99498 14.5977C4.77257 14.352 4.39314 14.3332 4.14749 14.5556C3.90185 14.778 3.88301 15.1575 4.10542 15.4031L7.45542 19.1031C7.56916 19.2287 7.73073 19.3004 7.9002 19.3004C8.06967 19.3004 8.23124 19.2287 8.34498 19.1031L11.695 15.4031C11.9174 15.1575 11.8986 14.778 11.6529 14.5556C11.4073 14.3332 11.0278 14.352 10.8054 14.5977L8.5002 17.1438V5.00039Z" fill="#333333"/>
<path d="M16.1002 4.70038C16.2697 4.70038 16.4312 4.77205 16.545 4.89767L19.895 8.59767C20.1174 8.84332 20.0986 9.22275 19.8529 9.44516C19.6073 9.66757 19.2278 9.64873 19.0054 9.40308L16.7002 6.85702V19.0004C16.7002 19.3318 16.4316 19.6004 16.1002 19.6004C15.7688 19.6004 15.5002 19.3318 15.5002 19.0004V6.85702L13.195 9.40308C12.9726 9.64873 12.5932 9.66757 12.3475 9.44516C12.1019 9.22275 12.083 8.84332 12.3054 8.59767L15.6554 4.89767C15.7692 4.77205 15.9307 4.70038 16.1002 4.70038Z" fill="#333333"/>
</svg>
