<svg width="24" height="24" viewBox="0 0 24 24" fill="none" xmlns="http://www.w3.org/2000/svg">
<path fill-rule="evenodd" clip-rule="evenodd" d="M3.69275 7.77002C3.12063 6.47003 4.07275 5.01074 5.49308 5.01074H18.5074C19.9277 5.01074 20.8798 6.47002 20.3077 7.77002L20.1947 8.02682C19.8805 8.74067 19.1743 9.20147 18.3944 9.20147H5.6061C4.82618 9.20147 4.11993 8.74067 3.80577 8.02683L3.69275 7.77002ZM5.49308 6.21074C4.93926 6.21074 4.56801 6.77975 4.79109 7.28665L4.90411 7.54345C5.02661 7.8218 5.30199 8.00147 5.6061 8.00147H18.3944C18.6985 8.00147 18.9739 7.8218 19.0964 7.54345L19.2094 7.28664C19.4325 6.77975 19.0612 6.21074 18.5074 6.21074H5.49308ZM7.07571 11.5867C6.52629 11.5867 6.15507 12.1475 6.36967 12.6533L6.47863 12.9101C6.59886 13.1934 6.87686 13.3774 7.18467 13.3774H12.4873C12.8187 13.3774 13.0873 13.6461 13.0873 13.9775C13.0873 14.3088 12.8187 14.5775 12.4873 14.5775H7.18467C6.39525 14.5775 5.6823 14.1055 5.37396 13.3788L5.265 13.122C4.71463 11.8248 5.66665 10.3867 7.07571 10.3867H14.445C14.7764 10.3867 15.045 10.6553 15.045 10.9867C15.045 11.3181 14.7764 11.5867 14.445 11.5867H7.07571ZM18.0423 12.1614C18.2846 11.9353 18.6642 11.9484 18.8903 12.1906L20.3958 13.8035C20.6109 14.034 20.6109 14.3918 20.3958 14.6223L18.8903 16.2352C18.6642 16.4775 18.2846 16.4906 18.0423 16.2645C17.8001 16.0384 17.787 15.6587 18.0131 15.4164L18.576 14.8133H17.2261C16.4529 14.8133 15.8261 15.4401 15.8261 16.2133V17.9768C15.8261 18.3081 15.5575 18.5768 15.2261 18.5768C14.8947 18.5768 14.6261 18.3081 14.6261 17.9768V16.2133C14.6261 14.7773 15.7902 13.6133 17.2261 13.6133H18.5767L18.0131 13.0094C17.787 12.7671 17.8001 12.3875 18.0423 12.1614ZM11.5709 16.9637L9.86367 16.9638C9.30004 16.9638 8.92897 17.5514 9.17121 18.0604L9.29347 18.3172C9.42064 18.5844 9.69017 18.7546 9.98607 18.7546L11.5708 18.7544C11.9022 18.7544 12.1709 19.023 12.1709 19.3543C12.1709 19.6857 11.9023 19.9544 11.571 19.9544L9.98621 19.9546C9.22733 19.9547 8.53609 19.5182 8.20994 18.833L8.08768 18.5761C7.46644 17.2709 8.41808 15.7639 9.86359 15.7638L11.5709 15.7637C11.9022 15.7636 12.1709 16.0323 12.1709 16.3636C12.1709 16.695 11.9023 16.9636 11.5709 16.9637Z" fill="#333333"/>
</svg>
