<svg width="24" height="24" viewBox="0 0 24 24" fill="none" xmlns="http://www.w3.org/2000/svg">
<path fill-rule="evenodd" clip-rule="evenodd" d="M5.75527 3.99316C4.87162 3.99316 4.15527 4.70951 4.15527 5.59316V9.52991C4.15527 10.4136 4.87162 11.1299 5.75527 11.1299H9.69215C10.5758 11.1299 11.2922 10.4136 11.2922 9.52991V5.59316C11.2922 4.70951 10.5758 3.99316 9.69215 3.99316H5.75527ZM5.35527 5.59316C5.35527 5.37225 5.53436 5.19316 5.75527 5.19316H9.69215C9.91307 5.19316 10.0922 5.37225 10.0922 5.59316V9.52991C10.0922 9.75083 9.91307 9.92991 9.69215 9.92991H5.75527C5.53436 9.92991 5.35527 9.75083 5.35527 9.52991V5.59316Z" fill="#333333"/>
<path fill-rule="evenodd" clip-rule="evenodd" d="M14.4604 12.7002C13.5767 12.7002 12.8604 13.4165 12.8604 14.3002V18.239C12.8604 19.1227 13.5767 19.839 14.4604 19.839H18.3992C19.2828 19.839 19.9992 19.1227 19.9992 18.239V14.3002C19.9992 13.4165 19.2828 12.7002 18.3992 12.7002H14.4604ZM14.0604 14.3002C14.0604 14.0793 14.2394 13.9002 14.4604 13.9002H18.3992C18.6201 13.9002 18.7992 14.0793 18.7992 14.3002V18.239C18.7992 18.4599 18.6201 18.639 18.3992 18.639H14.4604C14.2394 18.639 14.0604 18.4599 14.0604 18.239V14.3002Z" fill="#333333"/>
<path d="M16.8752 7.25234C16.8752 6.47915 16.2484 5.85234 15.4752 5.85234L13.3352 5.85234C13.0039 5.85234 12.7352 5.58371 12.7352 5.25234C12.7352 4.92097 13.0039 4.65234 13.3352 4.65234L15.4752 4.65234C16.9111 4.65234 18.0752 5.8164 18.0752 7.25234V9.16375L18.9901 8.30981C19.2324 8.08371 19.612 8.0968 19.8381 8.33905C20.0642 8.58129 20.0512 8.96097 19.8089 9.18707L17.9004 10.9683C17.6699 11.1835 17.3122 11.1835 17.0817 10.9683L15.1732 9.18707C14.931 8.96097 14.9179 8.58129 15.144 8.33904C15.3701 8.0968 15.7497 8.08371 15.992 8.30981L16.8752 9.13414V7.25234Z" fill="#333333"/>
<path d="M7.32207 16.565C7.32207 17.3382 7.94887 17.965 8.72207 17.965H10.862C11.1934 17.965 11.462 18.2337 11.462 18.565C11.462 18.8964 11.1934 19.165 10.862 19.165H8.72207C7.28613 19.165 6.12207 18.001 6.12207 16.565L6.12207 14.6672L5.22375 15.5056C4.9815 15.7317 4.60183 15.7186 4.37573 15.4764C4.14963 15.2341 4.16271 14.8545 4.40496 14.6284L6.31342 12.8471C6.54394 12.6319 6.90168 12.6319 7.13221 12.8471L9.04066 14.6284C9.28291 14.8545 9.296 15.2341 9.0699 15.4764C8.84379 15.7186 8.46412 15.7317 8.22187 15.5056L7.32207 14.6658L7.32207 16.565Z" fill="#333333"/>
</svg>
