<svg width="24" height="24" viewBox="0 0 24 24" fill="none" xmlns="http://www.w3.org/2000/svg">
<mask id="path-1-inside-1_23073_15410" fill="white">
<path fill-rule="evenodd" clip-rule="evenodd" d="M7 5C5.34315 5 4 6.34315 4 8V15.2175C4 16.5559 4.87654 17.6897 6.08691 18.076V19.7279C6.08691 20.9674 7.58556 21.5881 8.46203 20.7117L10.9562 18.2175H17.0001C18.6569 18.2175 20.0001 16.8743 20.0001 15.2175V8C20.0001 6.34315 18.6569 5 17.0001 5H7Z"/>
</mask>
<path d="M6.08691 18.076H7.28691V17.1993L6.45177 16.9328L6.08691 18.076ZM8.46203 20.7117L7.61351 19.8631L8.46203 20.7117ZM10.9562 18.2175V17.0175H10.4592L10.1077 17.3689L10.9562 18.2175ZM5.2 8C5.2 7.00589 6.00589 6.2 7 6.2V3.8C4.6804 3.8 2.8 5.6804 2.8 8H5.2ZM5.2 15.2175V8H2.8V15.2175H5.2ZM6.45177 16.9328C5.72439 16.7007 5.2 16.0187 5.2 15.2175H2.8C2.8 17.0932 4.0287 18.6787 5.72206 19.2192L6.45177 16.9328ZM7.28691 19.7279V18.076H4.88691V19.7279H7.28691ZM7.61351 19.8631C7.57143 19.9052 7.53908 19.9157 7.51633 19.9196C7.48701 19.9247 7.44736 19.9222 7.40501 19.9046C7.36267 19.8871 7.33282 19.8608 7.31568 19.8365C7.30238 19.8176 7.28691 19.7874 7.28691 19.7279H4.88691C4.88691 22.0365 7.67813 23.1926 9.31056 21.5602L7.61351 19.8631ZM10.1077 17.3689L7.61351 19.8631L9.31056 21.5602L11.8048 19.066L10.1077 17.3689ZM17.0001 17.0175H10.9562V19.4175H17.0001V17.0175ZM18.8001 15.2175C18.8001 16.2116 17.9942 17.0175 17.0001 17.0175V19.4175C19.3197 19.4175 21.2001 17.5371 21.2001 15.2175H18.8001ZM18.8001 8V15.2175H21.2001V8H18.8001ZM17.0001 6.2C17.9942 6.2 18.8001 7.00589 18.8001 8H21.2001C21.2001 5.6804 19.3197 3.8 17.0001 3.8V6.2ZM7 6.2H17.0001V3.8H7V6.2Z" fill="#333333" mask="url(#path-1-inside-1_23073_15410)"/>
<path d="M13.0195 14.0098L16.5195 14.0098" stroke="#333333" stroke-width="1.2" stroke-linecap="round" stroke-linejoin="round"/>
<path d="M7.56494 13.9116L8.63627 14.7626L10.3198 13.0605" stroke="#333333" stroke-width="1.2" stroke-linecap="round" stroke-linejoin="round"/>
<path d="M13.0195 9.50977L16.5195 9.50977" stroke="#333333" stroke-width="1.2" stroke-linecap="round" stroke-linejoin="round"/>
<path d="M7.56494 9.41158L8.63627 10.2626L10.3198 8.56055" stroke="#333333" stroke-width="1.2" stroke-linecap="round" stroke-linejoin="round"/>
<path fill-rule="evenodd" clip-rule="evenodd" d="M7.28691 17.1993V19.7279C7.28691 19.7874 7.30238 19.8176 7.31568 19.8365C7.33282 19.8608 7.36267 19.8871 7.40501 19.9046C7.44736 19.9222 7.48701 19.9247 7.51633 19.9196C7.53908 19.9157 7.57143 19.9052 7.61351 19.8631L10.4592 17.0175H17.0001C17.9942 17.0175 18.8001 16.2116 18.8001 15.2175V8C18.8001 7.00589 17.9942 6.2 17.0001 6.2H7C6.00589 6.2 5.2 7.00589 5.2 8V15.2175C5.2 16.0187 5.72439 16.7007 6.45177 16.9328L7.28691 17.1993ZM4 8C4 6.34315 5.34315 5 7 5H17.0001C18.6569 5 20.0001 6.34315 20.0001 8V15.2175C20.0001 16.8743 18.6569 18.2175 17.0001 18.2175H10.9562L8.46203 20.7117C7.58556 21.5881 6.08691 20.9674 6.08691 19.7279V18.076C4.87654 17.6897 4 16.5559 4 15.2175V8Z" fill="#333333"/>
<path fill-rule="evenodd" clip-rule="evenodd" d="M12.4195 14.0102C12.4195 13.6788 12.6882 13.4102 13.0195 13.4102H16.5195C16.8509 13.4102 17.1195 13.6788 17.1195 14.0102C17.1195 14.3416 16.8509 14.6102 16.5195 14.6102H13.0195C12.6882 14.6102 12.4195 14.3416 12.4195 14.0102Z" fill="#333333"/>
<path fill-rule="evenodd" clip-rule="evenodd" d="M10.742 12.6335C10.9776 12.8665 10.9796 13.2464 10.7466 13.482L9.06309 15.1841C8.84777 15.4018 8.50306 15.4224 8.26331 15.2319L7.19198 14.3809C6.93251 14.1748 6.88925 13.7974 7.09537 13.5379C7.30148 13.2784 7.67891 13.2352 7.93838 13.4413L8.58835 13.9576L9.89345 12.6381C10.1265 12.4025 10.5064 12.4004 10.742 12.6335Z" fill="#333333"/>
<path fill-rule="evenodd" clip-rule="evenodd" d="M12.4195 9.5102C12.4195 9.17882 12.6882 8.9102 13.0195 8.9102L16.5195 8.91019C16.8509 8.91019 17.1195 9.17882 17.1195 9.51019C17.1195 9.84157 16.8509 10.1102 16.5195 10.1102H13.0195C12.6882 10.1102 12.4195 9.84157 12.4195 9.5102Z" fill="#333333"/>
<path fill-rule="evenodd" clip-rule="evenodd" d="M10.742 8.13348C10.9776 8.3665 10.9796 8.7464 10.7466 8.98199L9.06309 10.6841C8.84777 10.9018 8.50306 10.9224 8.26331 10.7319L7.19198 9.8809C6.93251 9.67479 6.88925 9.29736 7.09537 9.03789C7.30148 8.77842 7.67891 8.73517 7.93838 8.94128L8.58835 9.4576L9.89345 8.13812C10.1265 7.90253 10.5064 7.90045 10.742 8.13348Z" fill="#333333"/>
</svg>
