<svg width="24" height="24" viewBox="0 0 24 24" fill="none" xmlns="http://www.w3.org/2000/svg">
<path d="M9.85 10.13L12.65 7.36996L12.64 7.38996C12.88 7.14996 13.26 7.14996 13.49 7.38996C13.73 7.62996 13.73 8.00996 13.49 8.23996L10.29 11.39C10.07 11.61 9.71 11.62 9.47 11.41L7.67 9.79996C7.42 9.57996 7.4 9.19996 7.62 8.94996C7.84 8.69996 8.22 8.67996 8.47 8.89996L9.85 10.13Z" fill="#333333"/>
<path fill-rule="evenodd" clip-rule="evenodd" d="M16.89 9.02H17.2L17.21 9.03C18.76 9.03 20.01 10.28 20.01 11.83V14.45C20.01 16 18.76 17.25 17.21 17.25H15.66L13.79 19.12C12.91 20 11.41 19.38 11.41 18.14V16.72C11.28 16.62 11.15 16.52 11.04 16.4C10.93 16.28 11.02 16.1 11.18 16.1H12.11C12.39 16.1 12.61 16.32 12.61 16.6V18.14C12.61 18.193 12.6256 18.2226 12.6361 18.2426C12.6375 18.2452 12.6388 18.2477 12.64 18.25C12.66 18.28 12.69 18.3 12.73 18.32C12.77 18.34 12.81 18.34 12.84 18.34C12.87 18.33 12.94 18.28 12.94 18.28L15.17 16.05H17.22C18.1 16.05 18.82 15.33 18.82 14.45V11.83C18.82 10.95 18.1 10.23 17.22 10.23L16.91 10.21V11.77C16.91 13.43 15.57 14.77 13.91 14.77H10.17C10.13 14.82 10.04 14.91 10.04 14.91L7.92 17.03C7.04 17.91 5.54 17.29 5.54 16.05V14.39C4.62 13.88 4 12.89 4 11.77V7C4 5.34 5.34 4 7 4H13.89C15.55 4 16.89 5.34 16.89 7V9.02ZM13.89 13.57C14.88 13.57 15.69 12.76 15.69 11.77V7C15.69 6.01 14.88 5.2 13.89 5.2H7C6.01 5.2 5.2 6.01 5.2 7V11.78C5.2 12.45 5.57 13.04 6.12 13.35L6.73 13.69V16.05C6.73 16.103 6.74561 16.1326 6.75614 16.1526C6.75753 16.1552 6.75883 16.1577 6.76 16.16C6.78 16.19 6.81 16.21 6.85 16.23C6.89 16.25 6.93 16.25 6.96 16.25C6.99 16.24 7.06 16.19 7.06 16.19L9.18 14.07C9.19 14.06 9.2 14.04 9.2 14.04L9.56 13.57H13.89Z" fill="#333333"/>
</svg>
