<svg width="24" height="24" viewBox="0 0 24 24" fill="none" xmlns="http://www.w3.org/2000/svg">
<path fill-rule="evenodd" clip-rule="evenodd" d="M6.47051 13.6697V15.5708C6.47051 15.6303 6.48598 15.6605 6.49928 15.6794C6.51641 15.7037 6.54626 15.73 6.58861 15.7475C6.63095 15.765 6.67061 15.7676 6.69992 15.7625C6.72268 15.7586 6.75503 15.7481 6.7971 15.706L7.85754 14.6456V15.0951C7.85754 15.4541 7.95216 15.7911 8.11782 16.0824L7.64563 16.5546C6.76915 17.431 5.27051 16.8103 5.27051 15.5708V14.3608C4.37569 13.8416 3.77393 12.8732 3.77393 11.7642V7.86328C3.77393 6.20643 5.11707 4.86328 6.77393 4.86328H13.1316C14.7725 4.86328 16.1057 6.18064 16.1312 7.81543H17.4261C18.9725 7.81543 20.2261 9.06904 20.2261 10.6154V14.3C20.2261 15.3052 19.6963 16.1867 18.9008 16.6806V17.6009C18.9008 18.8404 17.4021 19.4612 16.5256 18.5847L15.0409 17.1H11.7869C10.2405 17.1 8.98692 15.8463 8.98692 14.2999V10.6154C8.98692 9.06903 10.2405 7.81543 11.7869 7.81543H14.931C14.9056 6.84344 14.1097 6.06328 13.1316 6.06328H6.77393C5.77981 6.06328 4.97393 6.86917 4.97393 7.86328V11.7642C4.97393 12.4281 5.33273 13.0096 5.87275 13.3229L6.47051 13.6697ZM17.7008 17.6009V16.0131L18.2679 15.6611C18.7256 15.3769 19.0261 14.873 19.0261 14.3V10.6154C19.0261 9.73178 18.3097 9.01543 17.4261 9.01543H11.7869C10.9033 9.01543 10.1869 9.73177 10.1869 10.6154V14.2999C10.1869 15.1836 10.9033 15.9 11.7869 15.9H15.5379L17.3742 17.7362C17.4162 17.7782 17.4486 17.7887 17.4713 17.7927C17.5007 17.7977 17.5403 17.7952 17.5827 17.7776C17.625 17.7601 17.6549 17.7339 17.672 17.7096C17.6853 17.6907 17.7008 17.6604 17.7008 17.6009Z" fill="#333333"/>
</svg>
