<svg width="24" height="24" viewBox="0 0 24 24" fill="none" xmlns="http://www.w3.org/2000/svg">
<path fill-rule="evenodd" clip-rule="evenodd" d="M10.5171 11.9996C10.5171 11.6682 10.7857 11.3996 11.1171 11.3996L18.0029 11.3996C18.3342 11.3996 18.6029 11.6682 18.6029 11.9996C18.6029 12.331 18.3342 12.5996 18.0029 12.5996L11.1171 12.5996C10.7857 12.5996 10.5171 12.331 10.5171 11.9996Z" fill="#333333"/>
<path fill-rule="evenodd" clip-rule="evenodd" d="M10.5171 7.29962C10.5171 6.96825 10.7857 6.69962 11.1171 6.69962L18.0029 6.69962C18.3342 6.69962 18.6029 6.96824 18.6029 7.29962C18.6029 7.63099 18.3342 7.89962 18.0029 7.89962L11.1171 7.89962C10.7857 7.89962 10.5171 7.63099 10.5171 7.29962Z" fill="#333333"/>
<path fill-rule="evenodd" clip-rule="evenodd" d="M10.5171 16.6997C10.5171 16.3683 10.7857 16.0997 11.1171 16.0997H18.0029C18.3342 16.0997 18.6029 16.3683 18.6029 16.6997C18.6029 17.031 18.3342 17.2997 18.0029 17.2997L11.1171 17.2997C10.7857 17.2997 10.5171 17.031 10.5171 16.6997Z" fill="#333333"/>
<path fill-rule="evenodd" clip-rule="evenodd" d="M8.7939 6.02205C9.02949 6.25508 9.03158 6.63497 8.79855 6.87057L7.11503 8.57263C6.8997 8.79033 6.555 8.81096 6.31524 8.62051L5.24391 7.76947C4.98444 7.56336 4.94119 7.18593 5.1473 6.92646C5.35342 6.667 5.73085 6.62374 5.99031 6.82986L6.64029 7.34617L7.94538 6.0267C8.17841 5.7911 8.55831 5.78902 8.7939 6.02205Z" fill="#333333"/>
<path fill-rule="evenodd" clip-rule="evenodd" d="M8.7939 15.422C9.02949 15.655 9.03158 16.0349 8.79855 16.2705L7.11503 17.9726C6.8997 18.1903 6.555 18.2109 6.31524 18.0205L5.24391 17.1694C4.98444 16.9633 4.94119 16.5859 5.1473 16.3264C5.35342 16.0669 5.73085 16.0237 5.99031 16.2298L6.64029 16.7461L7.94538 15.4266C8.17841 15.191 8.55831 15.189 8.7939 15.422Z" fill="#333333"/>
<path fill-rule="evenodd" clip-rule="evenodd" d="M8.7939 10.722C9.02949 10.955 9.03158 11.3349 8.79855 11.5705L7.11503 13.2725C6.8997 13.4902 6.555 13.5109 6.31524 13.3204L5.24391 12.4694C4.98444 12.2633 4.94119 11.8858 5.1473 11.6264C5.35342 11.3669 5.73085 11.3237 5.99031 11.5298L6.64029 12.0461L7.94538 10.7266C8.17841 10.491 8.55831 10.4889 8.7939 10.722Z" fill="#333333"/>
</svg>
