<svg width="24" height="24" viewBox="0 0 24 24" fill="none" xmlns="http://www.w3.org/2000/svg">
<path d="M9.13926 11.9996C9.13926 12.8117 8.48092 13.47 7.66881 13.47C6.85671 13.47 6.19837 12.8117 6.19837 11.9996C6.19837 11.1875 6.85671 10.5291 7.66881 10.5291C8.48092 10.5291 9.13926 11.1875 9.13926 11.9996Z" fill="#333333"/>
<path d="M13.47 11.9996C13.47 12.8117 12.8116 13.47 11.9995 13.47C11.1874 13.47 10.5291 12.8117 10.5291 11.9996C10.5291 11.1875 11.1874 10.5291 11.9995 10.5291C12.8116 10.5291 13.47 11.1875 13.47 11.9996Z" fill="#333333"/>
<path d="M16.3302 13.47C17.1423 13.47 17.8007 12.8117 17.8007 11.9996C17.8007 11.1875 17.1423 10.5291 16.3302 10.5291C15.5181 10.5291 14.8598 11.1875 14.8598 11.9996C14.8598 12.8117 15.5181 13.47 16.3302 13.47Z" fill="#333333"/>
<path fill-rule="evenodd" clip-rule="evenodd" d="M12 19.6428C16.221 19.6428 19.6428 16.221 19.6428 12C19.6428 7.77901 16.221 4.35723 12 4.35723C7.77901 4.35723 4.35723 7.77901 4.35723 12C4.35723 16.221 7.77901 19.6428 12 19.6428ZM12 20.8428C16.8837 20.8428 20.8428 16.8837 20.8428 12C20.8428 7.11627 16.8837 3.15723 12 3.15723C7.11627 3.15723 3.15723 7.11627 3.15723 12C3.15723 16.8837 7.11627 20.8428 12 20.8428Z" fill="#333333"/>
</svg>
