<svg width="24" height="24" viewBox="0 0 24 24" fill="none" xmlns="http://www.w3.org/2000/svg">
<path d="M14.924 9.07613C15.1583 9.31044 15.1583 9.69034 14.924 9.92465L12.8483 12.0003L14.9239 14.0759C15.1582 14.3102 15.1582 14.6901 14.9239 14.9244C14.6896 15.1587 14.3097 15.1587 14.0754 14.9244L11.9998 12.8488L9.92417 14.9244C9.68985 15.1588 9.30995 15.1588 9.07564 14.9244C8.84132 14.6901 8.84132 14.3102 9.07564 14.0759L11.1513 12.0003L9.07564 9.92465C8.84132 9.69034 8.84132 9.31044 9.07564 9.07613C9.30995 8.84181 9.68985 8.84181 9.92417 9.07613L11.9998 11.1518L14.0754 9.07613C14.3097 8.84181 14.6896 8.84181 14.924 9.07613Z" fill="#333333"/>
<path fill-rule="evenodd" clip-rule="evenodd" d="M12 20C16.4183 20 20 16.4183 20 12C20 7.58172 16.4183 4 12 4C7.58172 4 4 7.58172 4 12C4 16.4183 7.58172 20 12 20ZM12 18.8C15.7555 18.8 18.8 15.7555 18.8 12C18.8 8.24446 15.7555 5.2 12 5.2C8.24446 5.2 5.2 8.24446 5.2 12C5.2 15.7555 8.24446 18.8 12 18.8Z" fill="#333333"/>
</svg>
