<svg width="24" height="24" viewBox="0 0 24 24" fill="none" xmlns="http://www.w3.org/2000/svg">
<path fill-rule="evenodd" clip-rule="evenodd" d="M11.9999 5.17461C8.23013 5.17461 5.17412 8.23062 5.17412 12.0004C5.17412 15.7702 8.23013 18.8262 11.9999 18.8262C15.7697 18.8262 18.8257 15.7702 18.8257 12.0004C18.8257 8.23062 15.7697 5.17461 11.9999 5.17461ZM3.97412 12.0004C3.97412 7.56787 7.56739 3.97461 11.9999 3.97461C16.4324 3.97461 20.0257 7.56787 20.0257 12.0004C20.0257 16.4329 16.4324 20.0262 11.9999 20.0262C7.56739 20.0262 3.97412 16.4329 3.97412 12.0004ZM11.9999 8.08984C12.3313 8.08984 12.5999 8.35847 12.5999 8.68984L12.5999 11.4014L15.3109 11.4014C15.6423 11.4014 15.9109 11.67 15.9109 12.0014C15.9109 12.3327 15.6423 12.6014 15.3109 12.6014L12.5999 12.6014L12.5999 15.3123C12.5999 15.6437 12.3313 15.9123 11.9999 15.9123C11.6685 15.9123 11.3999 15.6437 11.3999 15.3123L11.3999 12.6014L8.68848 12.6014C8.3571 12.6014 8.08848 12.3327 8.08848 12.0014C8.08848 11.67 8.3571 11.4014 8.68848 11.4014L11.3999 11.4014L11.3999 8.68984C11.3999 8.35847 11.6685 8.08984 11.9999 8.08984Z" fill="#333333"/>
</svg>
