<svg width="24" height="24" viewBox="0 0 24 24" fill="none" xmlns="http://www.w3.org/2000/svg">
<path fill-rule="evenodd" clip-rule="evenodd" d="M11.9999 5.17461C8.23013 5.17461 5.17412 8.23062 5.17412 12.0004C5.17412 15.7702 8.23013 18.8262 11.9999 18.8262C15.7697 18.8262 18.8257 15.7702 18.8257 12.0004C18.8257 8.23062 15.7697 5.17461 11.9999 5.17461ZM3.97412 12.0004C3.97412 7.56787 7.56739 3.97461 11.9999 3.97461C16.4324 3.97461 20.0257 7.56787 20.0257 12.0004C20.0257 16.4329 16.4324 20.0262 11.9999 20.0262C7.56739 20.0262 3.97412 16.4329 3.97412 12.0004Z" fill="#333333"/>
<path fill-rule="evenodd" clip-rule="evenodd" d="M8.3999 12.0014C8.3999 11.67 8.66853 11.4014 8.9999 11.4014L14.9999 11.4014C15.3313 11.4014 15.5999 11.67 15.5999 12.0014C15.5999 12.3327 15.3313 12.6014 14.9999 12.6014H8.9999C8.66853 12.6014 8.3999 12.3327 8.3999 12.0014Z" fill="#333333"/>
</svg>
