<svg width="24" height="24" viewBox="0 0 24 24" fill="none" xmlns="http://www.w3.org/2000/svg">
<path fill-rule="evenodd" clip-rule="evenodd" d="M12 18.8C15.7555 18.8 18.8 15.7555 18.8 12C18.8 8.24446 15.7555 5.2 12 5.2C8.24446 5.2 5.2 8.24446 5.2 12C5.2 15.7555 8.24446 18.8 12 18.8ZM12 20C16.4183 20 20 16.4183 20 12C20 7.58172 16.4183 4 12 4C7.58172 4 4 7.58172 4 12C4 16.4183 7.58172 20 12 20Z" fill="#333333"/>
<path fill-rule="evenodd" clip-rule="evenodd" d="M15.7112 9.38624C15.9555 9.61016 15.972 9.9897 15.7481 10.234L11.7549 14.5902C11.5362 14.8287 11.1678 14.8509 10.9221 14.6403L8.38101 12.4622C8.12941 12.2465 8.10028 11.8678 8.31593 11.6162C8.53158 11.3646 8.91036 11.3354 9.16196 11.5511L11.2625 13.3515L14.8635 9.4231C15.0874 9.17883 15.467 9.16233 15.7112 9.38624Z" fill="#333333"/>
</svg>
