<svg width="24" height="24" viewBox="0 0 24 24" fill="none" xmlns="http://www.w3.org/2000/svg">
<path fill-rule="evenodd" clip-rule="evenodd" d="M12 18.8C15.7555 18.8 18.8 15.7555 18.8 12C18.8 8.24447 15.7555 5.2 12 5.2C8.24447 5.2 5.2 8.24447 5.2 12C5.2 15.7555 8.24447 18.8 12 18.8ZM20 12C20 16.4183 16.4183 20 12 20C7.58173 20 4 16.4183 4 12C4 7.58173 7.58173 4 12 4C16.4183 4 20 7.58173 20 12Z" fill="#333333"/>
<path fill-rule="evenodd" clip-rule="evenodd" d="M11.9149 7.40651C12.2463 7.40651 12.5149 7.67514 12.5149 8.00651V11.5099L15.3679 11.5099C15.6993 11.5099 15.9679 11.7785 15.9679 12.1099C15.9679 12.4413 15.6993 12.7099 15.3679 12.7099L11.9149 12.7099C11.7558 12.7099 11.6032 12.6467 11.4907 12.5342C11.3781 12.4217 11.3149 12.2691 11.3149 12.1099V8.00651C11.3149 7.67514 11.5835 7.40651 11.9149 7.40651Z" fill="#333333"/>
</svg>
