<svg width="24" height="24" viewBox="0 0 24 24" fill="none" xmlns="http://www.w3.org/2000/svg">
<path d="M12.3602 12.2902H13.2602C13.5902 12.2902 13.8602 12.5602 13.8602 12.8902C13.8602 13.2202 13.5902 13.4902 13.2602 13.4902H11.7602C11.4302 13.4902 11.1602 13.2202 11.1602 12.8902V11.0902C11.1602 10.7602 11.4302 10.4902 11.7602 10.4902C12.0902 10.4902 12.3602 10.7602 12.3602 11.0902V12.2902Z" fill="#333333"/>
<path fill-rule="evenodd" clip-rule="evenodd" d="M12.0002 8.44043C9.75018 8.44043 7.93018 10.2704 7.93018 12.5104C7.93018 14.7504 9.76018 16.5804 12.0002 16.5804C14.2402 16.5804 16.0702 14.7504 16.0702 12.5104C16.0702 10.2704 14.2402 8.44043 12.0002 8.44043ZM12.0002 15.3804C10.4202 15.3804 9.13018 14.0904 9.13018 12.5104C9.13018 10.9304 10.4202 9.64043 12.0002 9.64043C13.5802 9.64043 14.8702 10.9304 14.8702 12.5104C14.8702 14.0904 13.5802 15.3804 12.0002 15.3804Z" fill="#333333"/>
<path fill-rule="evenodd" clip-rule="evenodd" d="M18.9699 10.6405C18.7999 8.41047 16.9399 6.65047 14.6699 6.65047C14.3599 6.65047 14.0599 6.68047 13.7599 6.75047C13.0099 5.38047 11.5499 4.50047 9.89989 4.48047C7.57989 4.48047 5.66989 6.29047 5.49989 8.58047C3.59989 9.46047 2.36989 11.3505 2.38989 13.4005C2.38989 16.3205 4.74989 18.6905 7.64989 18.6905H17.4699C19.7899 18.6305 21.6299 16.7505 21.5799 14.5305C21.5999 12.8305 20.5399 11.2905 18.9499 10.6505L18.9699 10.6405ZM17.4699 17.4805H7.81989V17.5005C7.76989 17.4905 7.71989 17.4805 7.65989 17.4805C5.41989 17.4805 3.59989 15.6505 3.59989 13.3905C3.57989 11.7005 4.66989 10.1605 6.30989 9.55047C6.53989 9.46047 6.69989 9.17047 6.69989 8.92047C6.69989 7.14047 8.13989 5.69047 9.90989 5.69047C11.2299 5.70047 12.4299 6.51047 12.8899 7.69047C13.0099 7.99047 13.3399 8.14047 13.6499 8.04047C13.9799 7.92047 14.3299 7.86047 14.6799 7.86047C16.3999 7.86047 17.7899 9.26047 17.7899 11.0205V11.0905C17.7899 11.3605 17.9699 11.5905 18.2199 11.6705C19.5299 12.0505 20.4299 13.2205 20.4099 14.5505C20.4399 16.1405 19.1199 17.4605 17.4799 17.5105L17.4699 17.4805Z" fill="#333333"/>
</svg>
