<svg width="24" height="24" viewBox="0 0 24 24" fill="none" xmlns="http://www.w3.org/2000/svg">
<path d="M14.9398 11.12L15.6248 10.7227C15.7407 10.6555 15.8798 10.7623 15.8449 10.8916L15.3388 12.7658C15.3172 12.8455 15.2353 12.8928 15.1554 12.8716L13.2786 12.3727C13.1496 12.3384 13.1263 12.1654 13.2415 12.0982L13.8898 11.72C13.2598 10.89 12.1298 10.48 11.1798 10.75C10.4798 10.95 10.0798 11.29 9.81983 11.9C9.71983 12.13 9.49983 12.27 9.26983 12.27C9.18983 12.27 9.10983 12.25 9.03983 12.22C8.72983 12.09 8.58983 11.74 8.71983 11.43C9.11983 10.49 9.81983 9.88 10.8598 9.59C12.3298 9.17 14.0198 9.81999 14.9398 11.11V11.12Z" fill="#333333"/>
<path d="M13.99 14.3906C14.13 14.0906 14.5 13.9706 14.79 14.1206V14.1306C15.09 14.2706 15.21 14.6306 15.06 14.9306C14.65 15.7606 13.98 16.2906 13.03 16.5606C12.69 16.6506 12.34 16.7006 11.99 16.7006C10.8 16.7006 9.64 16.1506 8.96 15.2006L8.31567 15.5765C8.19983 15.6441 8.06031 15.5373 8.09527 15.4078L8.60105 13.5349C8.62259 13.4551 8.70456 13.4078 8.7844 13.429L10.6584 13.9272C10.7878 13.9616 10.8108 14.1353 10.6948 14.2021L10.02 14.5906C10.63 15.3506 11.71 15.6806 12.71 15.4006C13.34 15.2206 13.73 14.9206 13.99 14.3906Z" fill="#333333"/>
<path fill-rule="evenodd" clip-rule="evenodd" d="M18.9701 11.0702C18.8001 8.84016 16.9401 7.08016 14.6701 7.08016C14.3601 7.08016 14.0601 7.11016 13.7601 7.18016C13.0101 5.80016 11.5501 4.93016 9.91014 4.91016C7.59014 4.91016 5.68014 6.72016 5.51014 9.01016C3.61014 9.89016 2.38014 11.7802 2.40014 13.8202C2.40014 16.7402 4.76014 19.1102 7.66014 19.1102H17.4801C19.8001 19.0502 21.6401 17.1702 21.5901 14.9502C21.6101 13.2502 20.5501 11.7202 18.9601 11.0702H18.9701ZM17.4701 17.9102H7.67014C5.43014 17.9102 3.61014 16.0802 3.61014 13.8202C3.59014 12.1302 4.68014 10.5902 6.32014 9.98016C6.55014 9.89016 6.71014 9.60016 6.71014 9.35016C6.71014 7.57016 8.15014 6.12016 9.92014 6.12016C11.2401 6.13016 12.4401 6.94016 12.9001 8.12016C13.0201 8.42016 13.3501 8.57016 13.6601 8.47016C13.9901 8.35016 14.3401 8.29016 14.6901 8.29016C16.4101 8.29016 17.8001 9.69016 17.8001 11.4502V11.5102C17.8001 11.7802 17.9801 12.0102 18.2301 12.0902C19.5401 12.4702 20.4401 13.6402 20.4201 14.9702C20.4501 16.5602 19.1301 17.8802 17.4901 17.9302L17.4701 17.9102Z" fill="#333333"/>
</svg>
