<svg width="24" height="24" viewBox="0 0 24 24" fill="none" xmlns="http://www.w3.org/2000/svg">
<path fill-rule="evenodd" clip-rule="evenodd" d="M13.1207 6.02349C13.4781 7.35716 12.6866 8.728 11.353 9.08536C10.0193 9.44271 8.64845 8.65126 8.29109 7.31759C7.93374 5.98392 8.72519 4.61308 10.0589 4.25573C11.3925 3.89837 12.7634 4.68983 13.1207 6.02349ZM11.9616 6.33408C12.1474 7.02758 11.7359 7.74042 11.0424 7.92625C10.3489 8.11207 9.63603 7.70051 9.4502 7.00701C9.26438 6.3135 9.67593 5.60066 10.3694 5.41484C11.0629 5.22901 11.7758 5.64057 11.9616 6.33408Z" fill="#333333"/>
<path fill-rule="evenodd" clip-rule="evenodd" d="M10.1373 16.1407C10.4947 17.4743 9.70322 18.8452 8.36955 19.2025C7.03589 19.5599 5.66505 18.7684 5.30769 17.4348C4.95034 16.1011 5.74179 14.7303 7.07546 14.3729C8.40912 14.0156 9.77997 14.807 10.1373 16.1407ZM8.97821 16.4513C9.16403 17.1448 8.75248 17.8576 8.05897 18.0434C7.36547 18.2293 6.65263 17.8177 6.4668 17.1242C6.28098 16.4307 6.69254 15.7179 7.38604 15.532C8.07955 15.3462 8.79239 15.7578 8.97821 16.4513Z" fill="#333333"/>
<path fill-rule="evenodd" clip-rule="evenodd" d="M18.995 16.3559C20.3287 15.9985 21.1202 14.6277 20.7628 13.294C20.4055 11.9603 19.0346 11.1689 17.7009 11.5262C16.3673 11.8836 15.5758 13.2544 15.9332 14.5881C16.2905 15.9218 17.6614 16.7132 18.995 16.3559ZM18.6845 15.1968C19.378 15.0109 19.7895 14.2981 19.6037 13.6046C19.4179 12.9111 18.705 12.4995 18.0115 12.6853C17.318 12.8712 16.9065 13.584 17.0923 14.2775C17.2781 14.971 17.991 15.3826 18.6845 15.1968Z" fill="#333333"/>
<path d="M14.2049 6.56769C14.1968 6.30212 14.1582 6.03328 14.0864 5.76551C14.0342 5.57057 13.9665 5.38391 13.885 5.20649C16.2439 5.81993 18.2147 7.64969 18.8907 10.1722C18.9196 10.2801 18.9458 10.3881 18.9694 10.496C18.5701 10.4237 18.1531 10.4202 17.7348 10.4951L17.7315 10.4828C17.232 8.61839 15.8787 7.21071 14.2049 6.56769Z" fill="#333333"/>
<path d="M7.21986 6.9924C5.48369 8.70312 4.69179 11.2732 5.3677 13.7957C5.3966 13.9036 5.42787 14.0102 5.46144 14.1155C5.77105 13.8532 6.13045 13.6416 6.5301 13.4974L6.52681 13.4851C6.02724 11.6207 6.4954 9.72495 7.62339 8.33121C7.49761 8.09717 7.39668 7.84501 7.32493 7.57724C7.2727 7.3823 7.238 7.1868 7.21986 6.9924Z" fill="#333333"/>
<path d="M13.6303 17.5863C14.483 17.3579 15.2401 16.9509 15.8722 16.4163C16.1665 16.7101 16.5104 16.9486 16.8859 17.1214C16.0776 17.8711 15.0799 18.4403 13.9409 18.7454C12.802 19.0506 11.6533 19.0566 10.5785 18.8115C10.8173 18.474 10.9959 18.0955 11.1038 17.694C11.9185 17.8409 12.7777 17.8148 13.6303 17.5863Z" fill="#333333"/>
</svg>
