<svg width="24" height="24" viewBox="0 0 24 24" fill="none" xmlns="http://www.w3.org/2000/svg">
<path d="M4.8667 13.1084L9.66182 13.1084C10.3246 13.1084 10.8618 13.6457 10.8618 14.3084L10.8618 19.1992" stroke="black" stroke-width="1.2" stroke-linecap="round" stroke-linejoin="round"/>
<path d="M9.81494 14.1816C8.28583 15.7107 6.70241 17.2942 5.1733 18.8233" stroke="black" stroke-width="1.2" stroke-linecap="round" stroke-linejoin="round"/>
<path d="M19.1211 10.8789L14.326 10.8789C13.6632 10.8789 13.126 10.3416 13.126 9.67891L13.126 4.78809" stroke="black" stroke-width="1.2" stroke-linecap="round" stroke-linejoin="round"/>
<path d="M14.1729 9.80566C15.702 8.27656 17.2854 6.69313 18.8145 5.16402" stroke="black" stroke-width="1.2" stroke-linecap="round" stroke-linejoin="round"/>
<path d="M13.7257 9.40468C13.733 9.39657 13.7405 9.38861 13.7483 9.38081L18.3899 4.73917C18.6243 4.50486 19.0042 4.50486 19.2385 4.73917C19.4728 4.97349 19.4728 5.35338 19.2385 5.5877L14.5968 10.2293C14.5792 10.247 14.5607 10.2633 14.5415 10.2783L19.1208 10.2783C19.4522 10.2783 19.7208 10.547 19.7208 10.8783C19.7208 11.2097 19.4522 11.4783 19.1208 11.4783L14.3257 11.4783C13.3316 11.4783 12.5257 10.6724 12.5257 9.67832L12.5257 4.7875C12.5257 4.45613 12.7943 4.1875 13.1257 4.1875C13.4571 4.1875 13.7257 4.45613 13.7257 4.7875L13.7257 9.40468Z" fill="#909090"/>
<path d="M9.39058 13.7576C9.40824 13.7399 9.42672 13.7236 9.4459 13.7086H4.8666C4.53523 13.7086 4.2666 13.44 4.2666 13.1086C4.2666 12.7772 4.53523 12.5086 4.8666 12.5086H9.66172C10.6558 12.5086 11.4617 13.3145 11.4617 14.3086L11.4617 19.1994C11.4617 19.5308 11.1931 19.7994 10.8617 19.7994C10.5303 19.7994 10.2617 19.5308 10.2617 19.1994V14.5822C10.2544 14.5903 10.2469 14.5983 10.2391 14.6061L5.59746 19.2477C5.36315 19.4821 4.98325 19.4821 4.74894 19.2477C4.51462 19.0134 4.51462 18.6335 4.74894 18.3992L9.39058 13.7576Z" fill="#909090"/>
</svg>
