<svg width="24" height="24" viewBox="0 0 24 24" fill="none" xmlns="http://www.w3.org/2000/svg">
<path fill-rule="evenodd" clip-rule="evenodd" d="M17.4181 7.25547L13.3998 4.93548C12.5335 4.43531 11.4661 4.43531 10.5998 4.93548L6.58145 7.25547C5.71512 7.75565 5.18145 8.68 5.18145 9.68035V14.3203C5.18145 15.3207 5.71512 16.245 6.58145 16.7452L10.5998 19.0652C11.4661 19.5654 12.5335 19.5654 13.3998 19.0652L17.4181 16.7452C18.2845 16.245 18.8181 15.3207 18.8181 14.3203V9.68035C18.8181 8.68 18.2845 7.75565 17.4181 7.25547ZM13.9998 3.89625C12.7622 3.18172 11.2374 3.18172 9.99979 3.89625L5.98145 6.21624C4.74384 6.93077 3.98145 8.25128 3.98145 9.68035V14.3203C3.98145 15.7494 4.74384 17.0699 5.98145 17.7844L9.99979 20.1044C11.2374 20.819 12.7622 20.819 13.9998 20.1044L18.0181 17.7844C19.2557 17.0699 20.0181 15.7494 20.0181 14.3203V9.68035C20.0181 8.25128 19.2557 6.93077 18.0181 6.21624L13.9998 3.89625Z" fill="#333333"/>
<path fill-rule="evenodd" clip-rule="evenodd" d="M15.2129 9.68532L12.3979 8.06012C12.1516 7.91792 11.8482 7.91792 11.6019 8.06012L8.78692 9.68533C8.54061 9.82753 8.38888 10.0903 8.38888 10.3747V13.6252C8.38888 13.9096 8.54061 14.1724 8.78692 14.3146L11.6019 15.9398C11.8482 16.082 12.1516 16.082 12.3979 15.9398L15.2129 14.3146C15.4592 14.1724 15.6109 13.9096 15.6109 13.6252V10.3747C15.6109 10.0903 15.4592 9.82753 15.2129 9.68532ZM12.9979 7.02089C12.3803 6.66433 11.6194 6.66433 11.0019 7.02089L8.18692 8.64609C7.56933 9.00266 7.18888 9.66162 7.18888 10.3747V13.6252C7.18888 14.3383 7.56933 14.9972 8.18692 15.3538L11.0019 16.979C11.6194 17.3356 12.3803 17.3356 12.9979 16.979L15.8129 15.3538C16.4304 14.9972 16.8109 14.3383 16.8109 13.6252V10.3747C16.8109 9.66162 16.4304 9.00266 15.8129 8.64609L12.9979 7.02089Z" fill="#333333"/>
</svg>
