<svg width="24" height="24" viewBox="0 0 24 24" fill="none" xmlns="http://www.w3.org/2000/svg">
<path fill-rule="evenodd" clip-rule="evenodd" d="M6.7 5.0498C5.20883 5.0498 4 6.25864 4 7.7498V16.2502C4 17.7414 5.20883 18.9502 6.7 18.9502H17.3C18.7912 18.9502 20 17.7414 20 16.2502V7.7498C20 6.25864 18.7912 5.0498 17.3 5.0498H6.7ZM13.6499 6.2498H10.3499V17.7502H13.6499V6.2498ZM14.8499 6.2498V17.7502H17.3C18.1284 17.7502 18.8 17.0786 18.8 16.2502V7.7498C18.8 6.92138 18.1284 6.2498 17.3 6.2498H14.8499ZM6.7 6.2498H9.1499V17.7502H6.7C5.87157 17.7502 5.2 17.0786 5.2 16.2502V7.7498C5.2 6.92138 5.87157 6.2498 6.7 6.2498Z" fill="#909090"/>
</svg>
