<svg width="24" height="24" viewBox="0 0 24 24" fill="none" xmlns="http://www.w3.org/2000/svg">
<path fill-rule="evenodd" clip-rule="evenodd" d="M13.3999 6.49216C13.3999 5.91699 12.8537 5.48575 12.2808 5.62809L12.2693 5.63094L6.27077 6.87304C5.87371 6.97645 5.5999 7.33174 5.5999 7.73456V18.4006H13.3999V6.49216ZM14.5999 8.50867V6.49216C14.5999 5.13176 13.32 4.14159 12.0038 4.46047L6.00287 5.70306L5.99141 5.7059C5.05837 5.93774 4.3999 6.77252 4.3999 7.73456V18.4006H3.9999C3.66853 18.4006 3.3999 18.6692 3.3999 19.0006C3.3999 19.3319 3.66853 19.6006 3.9999 19.6006H19.9999C20.3313 19.6006 20.5999 19.3319 20.5999 19.0006C20.5999 18.6692 20.3313 18.4006 19.9999 18.4006H19.5999V10.8204C19.5999 10.0577 19.0616 9.401 18.3137 9.25143L14.5999 8.50867ZM14.5999 9.73244V18.4006H18.3999V10.8204C18.3999 10.6297 18.2653 10.4655 18.0783 10.4281L14.5999 9.73244ZM7.3999 9.50055C7.3999 9.16918 7.66853 8.90055 7.9999 8.90055H10.9999C11.3313 8.90055 11.5999 9.16918 11.5999 9.50055C11.5999 9.83192 11.3313 10.1006 10.9999 10.1006H7.9999C7.66853 10.1006 7.3999 9.83192 7.3999 9.50055ZM16.4999 11.4006C16.8313 11.4006 17.0999 11.6692 17.0999 12.0006V13.0006C17.0999 13.3319 16.8313 13.6006 16.4999 13.6006C16.1685 13.6006 15.8999 13.3319 15.8999 13.0006V12.0006C15.8999 11.6692 16.1685 11.4006 16.4999 11.4006ZM7.3999 12.5006C7.3999 12.1692 7.66853 11.9006 7.9999 11.9006H10.9999C11.3313 11.9006 11.5999 12.1692 11.5999 12.5006C11.5999 12.8319 11.3313 13.1006 10.9999 13.1006H7.9999C7.66853 13.1006 7.3999 12.8319 7.3999 12.5006ZM16.4999 14.7006C16.8313 14.7006 17.0999 14.9692 17.0999 15.3006V16.3006C17.0999 16.6319 16.8313 16.9006 16.4999 16.9006C16.1685 16.9006 15.8999 16.6319 15.8999 16.3006V15.3006C15.8999 14.9692 16.1685 14.7006 16.4999 14.7006ZM7.3999 15.5006C7.3999 15.1692 7.66853 14.9006 7.9999 14.9006H10.9999C11.3313 14.9006 11.5999 15.1692 11.5999 15.5006C11.5999 15.8319 11.3313 16.1006 10.9999 16.1006H7.9999C7.66853 16.1006 7.3999 15.8319 7.3999 15.5006Z" fill="#333333"/>
</svg>
