<svg width="24" height="24" viewBox="0 0 24 24" fill="none" xmlns="http://www.w3.org/2000/svg">
<path fill-rule="evenodd" clip-rule="evenodd" d="M17.4669 6.26218C17.4152 6.2868 17.3555 6.28423 17.3025 6.26271C17.1284 6.19205 16.9381 6.15313 16.7387 6.15313H7.15898C6.33056 6.15313 5.65898 6.8247 5.65898 7.65313V16.2984C5.65898 17.1269 6.33056 17.7984 7.15898 17.7984H16.7387C17.5671 17.7984 18.2387 17.1269 18.2387 16.2984V13.1424C18.2387 13.0928 18.2571 13.045 18.2903 13.0083L19.0903 12.1232C19.2131 11.9874 19.4387 12.0743 19.4387 12.2573V16.2984C19.4387 17.7896 18.2298 18.9984 16.7387 18.9984H7.15898C5.66782 18.9984 4.45898 17.7896 4.45898 16.2984V7.65313C4.45898 6.16196 5.66782 4.95312 7.15898 4.95312H16.7387C17.2683 4.95312 17.7622 5.1056 18.1791 5.36905C18.2769 5.43087 18.2913 5.56475 18.2159 5.65254L18.1242 5.75935C17.9404 5.97346 17.7158 6.14358 17.4669 6.26218Z" fill="#333333"/>
<path fill-rule="evenodd" clip-rule="evenodd" d="M7.94742 14.2517C7.94742 13.9203 8.21605 13.6517 8.54742 13.6517H13.9678C14.2992 13.6517 14.5678 13.9203 14.5678 14.2517C14.5678 14.583 14.2992 14.8517 13.9678 14.8517H8.54742C8.21605 14.8517 7.94742 14.583 7.94742 14.2517Z" fill="#333333"/>
<path fill-rule="evenodd" clip-rule="evenodd" d="M7.94742 10.7537C7.94742 10.4224 8.21605 10.1537 8.54742 10.1537H12.6127C12.9441 10.1537 13.2127 10.4224 13.2127 10.7537C13.2127 11.0851 12.9441 11.3537 12.6127 11.3537H8.54742C8.21605 11.3537 7.94742 11.0851 7.94742 10.7537Z" fill="#333333"/>
<path fill-rule="evenodd" clip-rule="evenodd" d="M21.68 5.80172C21.9273 6.02235 21.9489 6.40163 21.7283 6.64888L17.8411 11.0051C17.6215 11.2512 17.2445 11.2739 16.9969 11.0559L14.5233 8.87782C14.2746 8.65883 14.2505 8.2797 14.4695 8.031C14.6885 7.7823 15.0676 7.75821 15.3163 7.9772L17.3426 9.76141L20.8329 5.84993C21.0535 5.60268 21.4328 5.5811 21.68 5.80172Z" fill="#333333"/>
</svg>
