<svg width="24" height="24" viewBox="0 0 24 24" fill="none" xmlns="http://www.w3.org/2000/svg">
<path fill-rule="evenodd" clip-rule="evenodd" d="M8.63387 12.8824C9.42862 12.4451 10.3803 12.3135 11.225 12.3135C12.0696 12.3135 13.0213 12.4451 13.816 12.8824C14.6419 13.3369 15.268 14.1081 15.4215 15.2804C15.5113 15.9666 14.9406 16.4581 14.3579 16.4581H8.09206C7.50934 16.4581 6.93857 15.9666 7.02842 15.2804C7.18193 14.1081 7.80803 13.3369 8.63387 12.8824ZM14.2023 15.2581C14.0695 14.5967 13.7103 14.194 13.2375 13.9338C12.6925 13.6339 11.9705 13.5135 11.225 13.5135C10.4794 13.5135 9.75739 13.6339 9.21241 13.9338C8.73957 14.194 8.3804 14.5967 8.24765 15.2581H14.2023Z" fill="#333333"/>
<path fill-rule="evenodd" clip-rule="evenodd" d="M11.216 12.0394C9.03797 12.0394 8.5262 8.80263 10.0683 7.65888C10.3243 7.46895 10.8165 7.29004 11.216 7.29004C14.0566 7.29004 13.8308 12.0394 11.216 12.0394ZM10.4196 10.0226C10.2801 9.38239 10.5 8.83433 10.7813 8.62405C10.7809 8.62433 10.7814 8.62404 10.7813 8.62405C10.7847 8.62194 10.8004 8.61204 10.8291 8.5979C10.8664 8.57958 10.9142 8.55957 10.9685 8.54143C11.0877 8.5016 11.1793 8.49004 11.216 8.49004C11.5484 8.49004 11.7138 8.60929 11.8257 8.75692C11.966 8.94204 12.0712 9.25338 12.0621 9.6362C12.0531 10.0179 11.9324 10.3525 11.7695 10.563C11.6283 10.7455 11.4608 10.8394 11.216 10.8394C10.8723 10.8394 10.5502 10.6221 10.4196 10.0226Z" fill="#333333"/>
<path fill-rule="evenodd" clip-rule="evenodd" d="M4.7002 6.7C4.7002 5.20883 5.90903 4 7.4002 4H15.0002C16.4914 4 17.7002 5.20883 17.7002 6.7V17.3C17.7002 17.8551 17.5327 18.371 17.2455 18.8001H17.2999C18.1284 18.8001 18.7999 18.1285 18.7999 17.3001V8.70007C18.7999 8.42726 18.7271 8.17147 18.5998 7.95106V6.33301C19.4344 6.7923 19.9999 7.68014 19.9999 8.70007V17.3001C19.9999 18.7912 18.7911 20.0001 17.2999 20.0001H9.69995L9.68076 20H7.40019C5.90903 20 4.7002 18.7912 4.7002 17.3V6.7ZM7.4002 5.2H15.0002C15.8286 5.2 16.5002 5.87157 16.5002 6.7V17.3C16.5002 18.1284 15.8286 18.8 15.0002 18.8H7.40019C6.57177 18.8 5.9002 18.1284 5.9002 17.3V6.7C5.9002 5.87157 6.57177 5.2 7.4002 5.2Z" fill="#333333"/>
</svg>
