<svg width="24" height="24" viewBox="0 0 24 24" fill="none" xmlns="http://www.w3.org/2000/svg">
<path d="M11.08 4C10.16 4 9.35 4.5 8.92 5.25C8.71 5.61 9.02 6 9.44 6C9.71 6 9.94 5.83 10.12 5.63C10.36 5.37 10.7 5.2 11.09 5.2H17.51C18.23 5.2 18.81 5.78 18.81 6.5V13.3C18.81 13.68 18.64 14.03 18.38 14.27C18.18 14.45 18.01 14.68 18.01 14.95C18.01 15.37 18.4 15.68 18.76 15.47C19.51 15.04 20.01 14.23 20.01 13.3V6.5C20.01 5.12 18.89 4 17.51 4H11.08Z" fill="#333333"/>
<path fill-rule="evenodd" clip-rule="evenodd" d="M13.8 7.29004H6.5C5.12 7.29004 4 8.41004 4 9.79004V17.5C4 18.88 5.12 20 6.5 20H13.8C15.18 20 16.3 18.88 16.3 17.5V9.79004C16.3 8.41004 15.18 7.29004 13.8 7.29004ZM15.1 17.5C15.1 18.22 14.52 18.8 13.8 18.8H6.5C5.78 18.8 5.2 18.22 5.2 17.5V9.79004C5.2 9.07004 5.78 8.49004 6.5 8.49004H13.8C14.52 8.49004 15.1 9.07004 15.1 9.79004V17.5Z" fill="#333333"/>
</svg>
