<svg width="24" height="24" viewBox="0 0 24 24" fill="none" xmlns="http://www.w3.org/2000/svg">
<path d="M8.88574 13.2514C8.88574 12.92 9.15437 12.6514 9.48574 12.6514H11.3271V10.81C11.3271 10.4786 11.5958 10.21 11.9271 10.21C12.2585 10.21 12.5271 10.4786 12.5271 10.81V12.6514H14.3686C14.6999 12.6514 14.9686 12.92 14.9686 13.2514C14.9686 13.5827 14.6999 13.8514 14.3686 13.8514H12.5271V15.6928C12.5271 16.0241 12.2585 16.2928 11.9271 16.2928C11.5958 16.2928 11.3271 16.0241 11.3271 15.6928V13.8514H9.48574C9.15437 13.8514 8.88574 13.5827 8.88574 13.2514Z" fill="#333333"/>
<path fill-rule="evenodd" clip-rule="evenodd" d="M18.5 9.03112C18.5008 8.67954 18.4331 8.33128 18.3006 8.00634C18.1682 7.68141 17.9736 7.38623 17.7281 7.13778L15.4035 4.78223C15.1583 4.53347 14.867 4.3363 14.5464 4.20206C14.2257 4.06781 13.882 3.99914 13.5351 4.00001H8.13158C7.43364 4.00001 6.76429 4.28096 6.27078 4.78106C5.77726 5.28115 5.5 5.95943 5.5 6.66667V17.3334C5.5 18.0406 5.77726 18.7189 6.27078 19.2189C6.76429 19.719 7.43364 20 8.13158 20H15.8684C16.5663 20 17.2357 19.719 17.7292 19.2189C18.2228 18.7189 18.5 18.0406 18.5 17.3334V9.03112ZM17.3 9.69561H14.7856C14.2583 9.69561 13.752 9.48697 13.3784 9.11483C13.0047 8.7426 12.7944 8.23726 12.7944 7.70989V5.20001L8.13158 5.20001C7.75707 5.20001 7.39463 5.35062 7.12491 5.62394C6.85465 5.8978 6.7 6.2726 6.7 6.66667V17.3334C6.7 17.7274 6.85464 18.1022 7.12487 18.376C7.39464 18.6494 7.75711 18.8 8.13158 18.8H15.8684C16.2429 18.8 16.6054 18.6494 16.8751 18.3761C17.1453 18.1023 17.3 17.7274 17.3 17.3334V9.69561ZM17.2036 8.49561C17.1991 8.48346 17.1943 8.47137 17.1894 8.45934C17.1161 8.27954 17.0088 8.11715 16.8745 7.98116L14.5494 5.62512C14.4152 5.48899 14.2563 5.38151 14.083 5.30897C14.0538 5.29675 14.0243 5.28554 13.9944 5.27535V7.70989C13.9944 7.91754 14.0772 8.11714 14.2253 8.26465C14.3735 8.41224 14.575 8.49561 14.7856 8.49561H17.2036Z" fill="#333333"/>
</svg>
