<svg width="24" height="24" viewBox="0 0 24 24" fill="none" xmlns="http://www.w3.org/2000/svg">
<path fill-rule="evenodd" clip-rule="evenodd" d="M4.06629 7.93116C3.49416 6.63116 4.44629 5.17188 5.86661 5.17188H18.8134C20.2337 5.17188 21.1859 6.63116 20.6137 7.93116L20.5929 7.97859C20.2787 8.69243 19.5724 9.15323 18.7925 9.15323H5.88749C5.10757 9.15323 4.40132 8.69243 4.08716 7.97859L4.06629 7.93116ZM5.86661 6.37188C5.3128 6.37188 4.94154 6.94088 5.16463 7.44778L5.1855 7.49521C5.308 7.77355 5.58338 7.95323 5.88749 7.95323H18.7925C19.0966 7.95323 19.372 7.77355 19.4945 7.49521L19.5154 7.44778C19.7385 6.94088 19.3672 6.37188 18.8134 6.37188H5.86661Z" fill="#333333"/>
<path fill-rule="evenodd" clip-rule="evenodd" d="M6.10337 13.3305C5.553 12.0334 6.50503 10.5953 7.91409 10.5953H16.7657C18.1747 10.5953 19.1267 12.0334 18.5764 13.3305L18.5562 13.378C18.2479 14.1047 17.535 14.5766 16.7455 14.5766H7.93421C7.14479 14.5766 6.43184 14.1047 6.1235 13.378L6.10337 13.3305ZM7.91409 11.7953C7.36466 11.7953 6.99345 12.356 7.20805 12.8618L7.22817 12.9092C7.3484 13.1926 7.6264 13.3766 7.93421 13.3766H16.7455C17.0533 13.3766 17.3313 13.1926 17.4516 12.9092L17.4717 12.8618C17.6863 12.356 17.3151 11.7953 16.7657 11.7953H7.91409Z" fill="#333333"/>
<path fill-rule="evenodd" clip-rule="evenodd" d="M8.75743 18.7084C8.13617 17.4031 9.08791 15.8961 10.5335 15.8961H14.1474C15.593 15.8961 16.5448 17.4031 15.9235 18.7084L15.9009 18.7558C15.5748 19.441 14.8837 19.8774 14.1249 19.8774H10.5561C9.79725 19.8774 9.10612 19.441 8.78001 18.7558L8.75743 18.7084ZM10.5335 17.0961C9.96982 17.0961 9.59871 17.6837 9.84096 18.1927L9.86353 18.2401C9.99069 18.5072 10.2602 18.6774 10.5561 18.6774H14.1249C14.4207 18.6774 14.6902 18.5072 14.8174 18.2401L14.84 18.1927C15.0822 17.6837 14.7111 17.0961 14.1474 17.0961H10.5335Z" fill="#333333"/>
</svg>
