<svg width="24" height="24" viewBox="0 0 24 24" fill="none" xmlns="http://www.w3.org/2000/svg">
<path d="M9.18161 14.1814C9.00587 14.3571 9.00587 14.6421 9.18161 14.8178C9.35734 14.9935 9.64227 14.9935 9.818 14.8178L11.9997 12.6361L14.1818 14.8181C14.3575 14.9939 14.6425 14.9939 14.8182 14.8181C14.9939 14.6424 14.9939 14.3575 14.8182 14.1817L12.6361 11.9997L14.8178 9.818C14.9935 9.64227 14.9935 9.35734 14.8178 9.18161C14.6421 9.00587 14.3571 9.00587 14.1814 9.18161L11.9997 11.3633L9.81845 9.18199C9.64271 9.00626 9.35779 9.00626 9.18205 9.18199C9.00632 9.35773 9.00632 9.64266 9.18205 9.81839L11.3633 11.9997L9.18161 14.1814Z" fill="#333333"/>
</svg>
