<svg width="24" height="24" viewBox="0 0 24 24" fill="none" xmlns="http://www.w3.org/2000/svg">
<path d="M6.57564 16.5757C6.34132 16.81 6.34132 17.1899 6.57564 17.4242C6.80995 17.6586 7.18985 17.6586 7.42417 17.4242L11.9997 12.8487L16.5756 17.4246C16.8099 17.6589 17.1898 17.6589 17.4241 17.4246C17.6585 17.1903 17.6585 16.8104 17.4241 16.5761L12.8482 12.0002L17.4238 7.42465C17.6581 7.19034 17.6581 6.81044 17.4237 6.57613C17.1894 6.34181 16.8095 6.34181 16.5752 6.57613L11.9997 11.1517L7.42464 6.57659C7.19032 6.34228 6.81042 6.34228 6.57611 6.57659C6.34179 6.8109 6.34179 7.1908 6.57611 7.42512L11.1512 12.0002L6.57564 16.5757Z" fill="#333333"/>
</svg>
