<svg width="24" height="24" viewBox="0 0 24 24" fill="none" xmlns="http://www.w3.org/2000/svg">
<path d="M8.64645 14.6462C8.45118 14.8415 8.45118 15.158 8.64645 15.3533C8.84171 15.5486 9.15829 15.5486 9.35355 15.3533L11.9999 12.707L14.6466 15.3537C14.8419 15.549 15.1585 15.549 15.3537 15.3537C15.549 15.1585 15.549 14.8419 15.3537 14.6466L12.707 11.9999L15.3533 9.35355C15.5486 9.15829 15.5486 8.84171 15.3533 8.64645C15.158 8.45118 14.8415 8.45118 14.6462 8.64645L11.9999 11.2928L9.35403 8.64692C9.15877 8.45166 8.84218 8.45166 8.64692 8.64692C8.45166 8.84218 8.45166 9.15876 8.64692 9.35403L11.2928 11.9999L8.64645 14.6462Z" fill="#333333"/>
</svg>
