<svg width="24" height="24" viewBox="0 0 24 24" fill="none" xmlns="http://www.w3.org/2000/svg">
<path d="M7.61129 15.611C7.3965 15.8257 7.3965 16.174 7.61129 16.3888C7.82607 16.6036 8.17432 16.6036 8.3891 16.3888L12 12.7778L15.6114 16.3892C15.8262 16.604 16.1744 16.604 16.3892 16.3892C16.604 16.1744 16.604 15.8262 16.3892 15.6114L12.7779 12L16.3888 8.3891C16.6036 8.17432 16.6036 7.82608 16.3888 7.61129C16.174 7.3965 15.8257 7.3965 15.611 7.61129L12 11.2222L8.38961 7.61177C8.17482 7.39698 7.82658 7.39698 7.61179 7.61177C7.397 7.82656 7.397 8.1748 7.61179 8.38959L11.2222 12L7.61129 15.611Z" fill="#333333"/>
</svg>
