<svg width="24" height="24" viewBox="0 0 24 24" fill="none" xmlns="http://www.w3.org/2000/svg">
<path d="M20.01 10.7097C19.99 10.6797 19.97 10.6597 19.95 10.6297C17.9 8.06969 15.32 5.96969 11.93 6.04969C11.39 6.03969 10.78 6.07969 10.27 6.16969C9.93998 6.22969 9.72998 6.53969 9.77998 6.86969C9.82998 7.19969 10.15 7.40969 10.48 7.35969C10.91 7.27969 11.45 7.23969 11.92 7.25969C11.93 7.25969 11.94 7.25969 11.95 7.25969C14.77 7.17969 17.04 8.90969 19 11.3797C19.03 11.4197 19.06 11.4597 19.09 11.4897C19.19 11.6097 19.26 11.6997 19.33 11.7997C19.41 11.9197 19.42 11.9897 19.42 12.0297C19.42 12.0797 19.4 12.1497 19.33 12.2697C19.27 12.3697 19.19 12.4697 19.1 12.5797C19.07 12.6197 19.04 12.6597 19 12.6997C18.57 13.2497 18.12 13.7697 17.65 14.2397C17.42 14.4697 17.41 14.8497 17.65 15.0897C17.88 15.3197 18.26 15.3297 18.5 15.0897C19.01 14.5797 19.49 14.0197 19.95 13.4297C19.97 13.3997 19.99 13.3797 20.02 13.3497C20.12 13.2197 20.25 13.0597 20.36 12.8897C20.49 12.6697 20.63 12.3797 20.63 12.0197C20.63 11.6597 20.49 11.3697 20.36 11.1497C20.3584 11.1529 20.0656 10.7765 20.01 10.7097Z" fill="#333333"/>
<path d="M6.25998 5.53969C6.02998 5.30969 5.64998 5.30969 5.40998 5.53969C5.16998 5.76969 5.17998 6.14969 5.40998 6.38969L6.75998 7.73969C5.4973 8.64326 4.31782 9.84514 3.48998 11.1697C3.35998 11.3897 3.22998 11.6797 3.22998 12.0397C3.22998 12.3997 3.35998 12.6797 3.48998 12.8997C3.60844 13.1103 3.78673 13.3248 3.86998 13.4497C5.80998 16.1097 8.54998 18.1197 11.92 18.0297C13.43 18.0697 14.79 17.6797 16.02 16.9997L17.4 18.3797C17.63 18.6097 18.01 18.6097 18.25 18.3797C18.48 18.1497 18.48 17.7697 18.25 17.5297L6.25998 5.53969ZM10.31 11.2897L12.6 13.5797C12.36 13.7097 12.09 13.7997 11.8 13.7997C10.86 13.7997 10.1 13.0397 10.1 12.0997C10.1 11.8097 10.19 11.5397 10.32 11.2997L10.31 11.2897ZM11.95 16.8397C11.95 16.8397 11.93 16.8397 11.92 16.8397C9.08998 16.9197 6.66998 15.2397 4.85998 12.7597C4.72125 12.5516 4.43998 12.3154 4.43998 12.0497C4.43998 11.7955 4.70415 11.5055 4.85745 11.3222C5.3374 10.7483 6.59998 9.32969 7.62998 8.61969L9.44998 10.4397C9.10998 10.9097 8.89998 11.4797 8.89998 12.1097C8.89998 13.7097 10.2 15.0097 11.8 15.0097C12.43 15.0097 12.99 14.7897 13.47 14.4597L15.15 16.1397C14.17 16.6297 13.11 16.8897 11.95 16.8497V16.8397Z" fill="#333333"/>
<path d="M11.92 9.05969C11.92 9.05969 11.87 9.05969 11.84 9.05969L14.82 12.0397C14.82 12.0397 14.82 11.9897 14.82 11.9597C14.82 10.3597 13.52 9.05969 11.92 9.05969Z" fill="#333333"/>
</svg>
