<svg width="24" height="24" viewBox="0 0 24 24" fill="none" xmlns="http://www.w3.org/2000/svg">
<path fill-rule="evenodd" clip-rule="evenodd" d="M10.9082 5.46395C11.3595 4.56862 12.6203 4.56781 13.0727 5.46271L15.7951 10.8481C15.7981 10.854 15.8021 10.8577 15.8021 10.8577C15.8037 10.8591 15.8061 10.8601 15.8061 10.8601L15.807 10.8597L18.8298 9.29701C19.8371 8.77625 20.8244 9.76788 20.5527 10.7311L20.5426 10.7669L20.5359 10.7911C20.5337 10.7999 20.5326 10.8049 20.5326 10.8049L19.4605 17.8307C19.4454 17.9291 19.4152 18.0762 19.3336 18.2259C19.0811 18.6892 18.5966 18.992 18.0547 18.992H6.01504C5.4688 18.992 4.98111 18.6845 4.7303 18.2151C4.65408 18.0725 4.62443 17.9332 4.60928 17.8398L3.46756 10.8054C3.46756 10.8054 3.46653 10.8006 3.46433 10.7923L3.45798 10.7694L3.44824 10.7355C3.17226 9.76968 4.16262 8.77484 5.17113 9.29767L8.18253 10.8588L8.1835 10.8592C8.1835 10.8592 8.18585 10.8582 8.18748 10.8568C8.18748 10.8568 8.19149 10.853 8.19448 10.8471L10.9082 5.46395ZM11.9868 5.99311C11.9868 5.99311 11.9833 5.99695 11.9797 6.00413L9.26602 11.3873C8.96471 11.985 8.23668 12.2385 7.63024 11.9241L4.61885 10.363L4.6174 10.3623L4.61494 10.3643C4.60793 10.3704 4.60319 10.3781 4.60117 10.3844C4.6003 10.3871 4.59992 10.3895 4.59987 10.392C4.59983 10.3942 4.6 10.3986 4.60205 10.4057C4.60295 10.4089 4.60407 10.4127 4.60539 10.4172C4.61599 10.4535 4.63883 10.5317 4.65188 10.6122L5.79378 17.6476C5.7949 17.6545 5.79589 17.6598 5.79667 17.6636C5.84759 17.7476 5.9321 17.792 6.01504 17.792H18.0547C18.1367 17.792 18.2202 17.7486 18.2713 17.6664C18.2721 17.6622 18.2731 17.6567 18.2742 17.6496L19.3465 10.6229C19.3595 10.5382 19.3833 10.4557 19.3943 10.4175C19.3957 10.4127 19.3968 10.4087 19.3978 10.4054C19.3997 10.3984 19.3999 10.3941 19.3999 10.3919C19.3998 10.3895 19.3994 10.3871 19.3985 10.3844C19.3965 10.378 19.3917 10.3703 19.3847 10.3642L19.3823 10.3623L19.3809 10.363L16.3581 11.9257C15.7523 12.2389 15.0257 11.9859 14.7242 11.3895L12.0017 6.00409C11.9981 5.99692 11.9947 5.99309 11.9947 5.99309C11.9947 5.99309 11.9931 5.99199 11.9907 5.99199C11.9884 5.99199 11.9868 5.99311 11.9868 5.99311Z" fill="#333333"/>
</svg>
