<svg width="24" height="24" viewBox="0 0 24 24" fill="none" xmlns="http://www.w3.org/2000/svg">
<path fill-rule="evenodd" clip-rule="evenodd" d="M12.1429 19.8499C12.2529 19.8799 12.3629 19.8899 12.4729 19.8899C12.5629 19.8899 12.6629 19.8799 12.7529 19.8599C12.9529 19.8099 13.1429 19.7199 13.3029 19.5999C13.4629 19.4699 13.5929 19.3099 13.6829 19.1299C13.7643 18.9671 13.813 18.788 13.8215 18.5999L19.4999 18.5997C19.8299 18.5997 20.0999 18.3297 20.0999 17.9997C20.0999 17.6697 19.8299 17.3997 19.4999 17.3997L17.5729 17.3999V7.4999C17.5729 6.9399 17.3529 6.4199 16.9529 6.0199C16.5629 5.6199 16.0229 5.3999 15.4729 5.3999H13.5626C13.4318 5.15842 13.2428 4.93708 13.0229 4.76992C12.7729 4.56992 12.4729 4.43992 12.1629 4.36992C11.8529 4.30992 11.5329 4.30992 11.2229 4.38992L7.73896 5.13992C7.27896 5.24992 6.87896 5.50992 6.58896 5.87992C6.29896 6.24992 6.13896 6.69992 6.13896 7.16992V17.3999L4.4999 17.3997C4.1699 17.3997 3.8999 17.6697 3.8999 17.9997C3.8999 18.3297 4.1699 18.5997 4.4999 18.5997L6.66874 18.5999L12.1429 19.8499ZM13.8229 6.5999V17.3999H16.3729V7.4999C16.3729 7.2599 16.2829 7.0299 16.1129 6.8599C15.9429 6.6899 15.7129 6.5999 15.4729 6.5999H13.8229ZM12.6229 17.9938V6.41992C12.6229 6.27992 12.5929 6.14992 12.5329 6.01992C12.4729 5.89992 12.3829 5.78992 12.2829 5.70992C12.1729 5.62992 12.0529 5.56992 11.9129 5.53992C11.7829 5.50992 11.6429 5.50992 11.5129 5.53992L8.02896 6.28992C7.83896 6.33992 7.65896 6.44992 7.53896 6.60992C7.41896 6.76992 7.34896 6.95992 7.34896 7.15992V17.5199L7.33896 17.5299L12.4329 18.6799L12.5629 18.6499L12.6229 18.5299V18.006C12.6229 18.004 12.6229 18.0019 12.6229 17.9999C12.6229 17.9979 12.6229 17.9958 12.6229 17.9938Z" fill="#333333"/>
<path fill-rule="evenodd" clip-rule="evenodd" d="M10.8264 11.2646C11.2406 11.2646 11.5764 11.6003 11.5764 12.0146V12.0229C11.5764 12.4371 11.2406 12.7729 10.8264 12.7729C10.4122 12.7729 10.0764 12.4371 10.0764 12.0229V12.0146C10.0764 11.6003 10.4122 11.2646 10.8264 11.2646Z" fill="#333333"/>
</svg>
