<svg width="24" height="24" viewBox="0 0 24 24" fill="none" xmlns="http://www.w3.org/2000/svg">
<path d="M11.9995 4C7.58124 4 3.99951 7.58173 3.99951 12C3.99951 16.0521 7.01162 19.3997 10.9192 19.9276C11.2476 19.972 11.5497 19.7417 11.5941 19.4133C11.6385 19.0849 11.4082 18.7828 11.0798 18.7384C7.75949 18.2899 5.19951 15.4434 5.19951 12C5.19951 8.24447 8.24398 5.2 11.9995 5.2C15.2821 5.2 18.0227 7.52655 18.6597 10.621C18.7265 10.9456 19.0438 11.1545 19.3684 11.0877C19.693 11.0209 19.9019 10.7036 19.8351 10.379C19.0855 6.73799 15.8629 4 11.9995 4Z" fill="#333333"/>
<path d="M16.9994 14.4004C15.0112 14.4004 13.3994 16.0122 13.3994 18.0004V19.13C13.3994 19.4614 13.668 19.73 13.9994 19.73C14.3308 19.73 14.5994 19.4614 14.5994 19.13V18.0004C14.5994 16.6749 15.6739 15.6004 16.9994 15.6004H18.5509L17.5751 16.5761C17.3408 16.8104 17.3408 17.1903 17.5752 17.4247C17.8095 17.659 18.1894 17.659 18.4237 17.4247L20.4237 15.4247C20.658 15.1903 20.658 14.8104 20.4237 14.5761L18.4237 12.5761C18.1894 12.3418 17.8095 12.3418 17.5752 12.5761C17.3408 12.8104 17.3408 13.1903 17.5752 13.4247L18.5509 14.4004H16.9994Z" fill="#333333"/>
<path d="M12.3997 8.00039C12.3997 7.66902 12.1311 7.40039 11.7997 7.40039C11.4683 7.40039 11.1997 7.66902 11.1997 8.00039V12.0004C11.1997 12.3318 11.4683 12.6004 11.7997 12.6004H14.7997C15.1311 12.6004 15.3997 12.3318 15.3997 12.0004C15.3997 11.669 15.1311 11.4004 14.7997 11.4004H12.3997V8.00039Z" fill="#333333"/>
</svg>
