<svg width="24" height="24" viewBox="0 0 24 24" fill="none" xmlns="http://www.w3.org/2000/svg">
<path d="M7.62793 9.19668C7.62793 8.86531 7.89656 8.59668 8.22793 8.59668L15.0824 8.59668C15.4138 8.59668 15.6824 8.86531 15.6824 9.19668C15.6824 9.52805 15.4138 9.79668 15.0824 9.79668H8.22793C7.89656 9.79668 7.62793 9.52805 7.62793 9.19668Z" fill="#909090"/>
<path d="M8.22793 11.2812C7.89656 11.2812 7.62793 11.5499 7.62793 11.8812C7.62793 12.2126 7.89656 12.4812 8.22793 12.4812H15.0824C15.4138 12.4812 15.6824 12.2126 15.6824 11.8812C15.6824 11.5499 15.4138 11.2812 15.0824 11.2812L8.22793 11.2812Z" fill="#909090"/>
<path fill-rule="evenodd" clip-rule="evenodd" d="M7.11943 5.03418C5.62826 5.03418 4.41943 6.24301 4.41943 7.73418V14.3264C4.41943 15.8175 5.62826 17.0264 7.11943 17.0264H11.4434V17.5118L9.23735 19.5859C8.99593 19.8129 8.98422 20.1926 9.21121 20.434C9.43819 20.6754 9.81791 20.6872 10.0593 20.4602L12.0884 18.5525L14.0274 20.3759C14.2688 20.6029 14.6485 20.5912 14.8755 20.3498C15.1025 20.1084 15.0908 19.7287 14.8494 19.5017L12.6434 17.4271V17.0264H16.8806C18.3717 17.0264 19.5806 15.8175 19.5806 14.3264V7.73418C19.5806 6.24301 18.3717 5.03418 16.8806 5.03418H7.11943ZM16.8806 6.23418H7.11943C6.29101 6.23418 5.61943 6.90575 5.61943 7.73418V14.3264C5.61943 15.1548 6.29101 15.8264 7.11943 15.8264H16.8806C17.709 15.8264 18.3806 15.1548 18.3806 14.3264V7.73418C18.3806 6.90575 17.709 6.23418 16.8806 6.23418Z" fill="#909090"/>
</svg>
