<svg width="24" height="24" viewBox="0 0 24 24" fill="none" xmlns="http://www.w3.org/2000/svg">
<path fill-rule="evenodd" clip-rule="evenodd" d="M10.8893 4.30792C11.2248 4.10644 11.6088 4 12.0001 4C12.3916 4 12.7757 4.10651 13.1112 4.30811L15.3843 5.67197C15.7028 5.86332 15.9668 6.13388 16.1501 6.45706C16.3335 6.78024 16.4302 7.14529 16.431 7.51685L16.431 7.51825L16.431 10.5333L19.389 12.3081C19.9046 12.6174 20.2201 13.1746 20.2201 13.7759L20.2201 16.4832C20.2193 16.8547 20.1225 17.2198 19.9392 17.5429C19.7559 17.8661 19.4922 18.1365 19.1737 18.3278L16.8999 19.6921C16.5645 19.8936 16.1805 20 15.7892 20C15.3978 20 15.0138 19.8936 14.6784 19.6921L12.4049 18.328C12.2582 18.2399 12.123 18.1349 12.0019 18.0157C11.881 18.1348 11.7459 18.2397 11.5992 18.3278L9.32543 19.6921C8.98995 19.8936 8.60597 20 8.21463 20C7.82329 20 7.43932 19.8936 7.10383 19.6921L4.83041 18.328C4.51192 18.1367 4.24791 17.8661 4.06459 17.5429C3.88127 17.2198 3.78451 16.8547 3.78369 16.4832L3.78369 16.4817V13.7759C3.78369 13.1746 4.09917 12.6174 4.61476 12.3081L7.56916 10.5354V7.51825L7.56917 7.51685C7.56998 7.14529 7.66674 6.78024 7.85006 6.45706C8.03339 6.13388 8.29707 5.86352 8.61556 5.67217L10.8893 4.30792ZM12.6446 16.5449C12.6452 16.5243 12.6455 16.5038 12.6456 16.4832L12.6456 13.5314L15.7892 11.6453L18.7285 13.4089C18.8574 13.4863 18.9363 13.6255 18.9363 13.7759V16.4809C18.9358 16.6312 18.8967 16.7788 18.8225 16.9095C18.7484 17.0403 18.6414 17.1499 18.5125 17.2274L16.2391 18.5914C16.1032 18.6731 15.9477 18.7162 15.7892 18.7162C15.6306 18.7162 15.4748 18.6729 15.3389 18.5912L13.0657 17.2273C12.9368 17.1499 12.83 17.0404 12.7558 16.9095C12.6922 16.7974 12.6543 16.6729 12.6446 16.5449ZM11.3582 13.5314L8.21463 11.6453L5.27527 13.4089C5.14638 13.4863 5.06751 13.6255 5.06751 13.7759L5.06751 16.4809C5.06794 16.6312 5.10712 16.7788 5.18126 16.9095C5.25549 17.0404 5.36226 17.1499 5.49122 17.2273L7.76435 18.5912C7.90024 18.6729 8.0561 18.7162 8.21463 18.7162C8.37316 18.7162 8.5287 18.6731 8.66459 18.5914L10.938 17.2274C11.0669 17.1499 11.1738 17.0403 11.248 16.9095C11.3116 16.7974 11.3495 16.6729 11.3592 16.5449C11.3586 16.5243 11.3583 16.5038 11.3582 16.4832L11.3582 16.4817L11.3582 13.5314ZM12.0001 5.28381C11.8416 5.28381 11.686 5.32695 11.5501 5.40859L9.27672 6.77264C9.14789 6.85012 9.04091 6.95972 8.96673 7.09049C8.89259 7.22119 8.85341 7.3688 8.85298 7.51906V10.4664L12.0001 12.3547L15.1472 10.4664V7.51906C15.1468 7.3688 15.1076 7.22119 15.0335 7.09049C14.9592 6.95962 14.8525 6.85015 14.7235 6.77266L12.4504 5.40878C12.3145 5.32714 12.1586 5.28381 12.0001 5.28381Z" fill="#333333"/>
</svg>
