<svg width="24" height="24" viewBox="0 0 24 24" fill="none" xmlns="http://www.w3.org/2000/svg">
<path fill-rule="evenodd" clip-rule="evenodd" d="M15.0286 4.87267C15.8099 4.09306 17.0751 4.09378 17.8556 4.87428L18.9372 5.95599C19.7169 6.73581 19.7183 7.99964 18.9403 8.78117L9.56705 18.1966C9.35647 18.4082 9.09092 18.5566 8.80042 18.6251L4.95072 19.533C4.42706 19.6565 3.96564 19.1677 4.11912 18.652L5.22837 14.9251C5.30441 14.6696 5.44307 14.4372 5.63176 14.2489L15.0286 4.87267ZM17.007 5.72277C16.6948 5.41057 16.1887 5.41028 15.8762 5.72213L14.6801 6.91563L16.8971 9.13265L18.0898 7.93455C18.4011 7.62194 18.4005 7.11641 18.0886 6.80448L17.007 5.72277ZM16.0505 9.98309L13.8306 7.76322L6.84874 14.7298L9.09196 16.973L16.0505 9.98309ZM5.51553 18.1669L6.22043 15.7985L8.00231 17.5804L5.51553 18.1669Z" fill="#333333"/>
<path d="M4.44666 9.05555C3.82182 8.43071 3.82182 7.41764 4.44666 6.79281L6.80111 4.43836C7.42595 3.81352 8.43901 3.81352 9.06385 4.43836L11.0575 6.43203C11.0688 6.44174 11.0798 6.45194 11.0905 6.46263C11.3248 6.69694 11.3248 7.07684 11.0905 7.31116L9.72447 8.67726C9.49016 8.91158 9.11026 8.91159 8.87594 8.67728C8.64162 8.44297 8.64161 8.06308 8.87592 7.82875L9.81653 6.88809L9.34202 6.41358L7.88256 7.87272C7.64822 8.10701 7.26833 8.10697 7.03404 7.87263C6.79975 7.63829 6.79979 7.25839 7.03413 7.02411L8.49349 5.56506L8.21532 5.28688C8.05911 5.13067 7.80584 5.13067 7.64963 5.28688L5.29518 7.64133C5.13898 7.79754 5.13898 8.05081 5.29518 8.20702L7.3163 10.2281C7.55062 10.4625 7.55062 10.8424 7.3163 11.0767C7.08199 11.311 6.70209 11.311 6.46777 11.0767L4.44666 9.05555Z" fill="#333333"/>
<path d="M14.9354 19.5399C15.5602 20.1647 16.5733 20.1647 17.1981 19.5399L19.5539 17.1841C20.1787 16.5593 20.1787 15.5462 19.5539 14.9214L17.5315 12.899C17.4828 12.8503 17.4278 12.8117 17.3692 12.7833C17.3457 12.746 17.3178 12.7108 17.2853 12.6783C17.051 12.444 16.6711 12.444 16.4368 12.6783L15.0744 14.0408C14.8401 14.2751 14.8401 14.655 15.0744 14.8893C15.3088 15.1236 15.6887 15.1236 15.923 14.8893L16.8738 13.9384L17.5081 14.5726L16.0472 16.0332C15.8128 16.2675 15.8128 16.6474 16.0471 16.8817C16.2814 17.1161 16.6613 17.1161 16.8956 16.8818L18.3566 15.4211L18.7054 15.7699C18.8616 15.9261 18.8616 16.1794 18.7054 16.3356L16.3496 18.6913C16.1934 18.8476 15.9401 18.8476 15.7839 18.6913L13.7628 16.6702C13.5285 16.4359 13.1486 16.4359 12.9143 16.6702C12.6799 16.9045 12.6799 17.2844 12.9143 17.5188L14.9354 19.5399Z" fill="#333333"/>
</svg>
