<svg width="24" height="24" viewBox="0 0 24 24" fill="none" xmlns="http://www.w3.org/2000/svg">
<path fill-rule="evenodd" clip-rule="evenodd" d="M14.4179 3.9631C14.7352 4.05858 14.9151 4.39322 14.8196 4.71053L10.3289 19.6353C10.2334 19.9527 9.89881 20.1325 9.58149 20.037C9.26417 19.9415 9.08433 19.6069 9.17981 19.2896L13.6705 4.36478C13.7659 4.04746 14.1006 3.86763 14.4179 3.9631Z" fill="#333333"/>
<path fill-rule="evenodd" clip-rule="evenodd" d="M7.94333 7.10349C8.20843 7.30231 8.26215 7.67839 8.06333 7.94349L5.0209 12.0001L8.06333 16.0566C8.26215 16.3217 8.20843 16.6978 7.94333 16.8966C7.67823 17.0955 7.30215 17.0417 7.10333 16.7766L3.7909 12.3601C3.6309 12.1467 3.6309 11.8534 3.7909 11.6401L7.10333 7.22349C7.30215 6.95839 7.67823 6.90466 7.94333 7.10349Z" fill="#333333"/>
<path fill-rule="evenodd" clip-rule="evenodd" d="M16.0565 7.10349C16.3216 6.90466 16.6977 6.95839 16.8965 7.22349L20.2089 11.6401C20.3689 11.8534 20.3689 12.1467 20.2089 12.3601L16.8965 16.7766C16.6977 17.0417 16.3216 17.0955 16.0565 16.8966C15.7914 16.6978 15.7377 16.3217 15.9365 16.0566L18.9789 12.0001L15.9365 7.94349C15.7377 7.67839 15.7914 7.30231 16.0565 7.10349Z" fill="#333333"/>
</svg>
