<svg width="24" height="24" viewBox="0 0 24 24" fill="none" xmlns="http://www.w3.org/2000/svg">
<path d="M6.20009 10.0482C6.16009 10.3782 5.87009 10.6182 5.54009 10.5882C5.21009 10.5482 4.97009 10.2582 5.00009 9.92822C5.27009 7.19822 7.52009 5.06822 10.2801 4.91822L8.94009 3.68822C8.70009 3.45822 8.69009 3.07822 8.91009 2.83822C9.14009 2.59822 9.52009 2.58822 9.76009 2.80822L12.0701 4.93822C12.2901 5.12822 12.3301 5.44822 12.1801 5.68822L10.5101 8.42822C10.3401 8.70822 9.97009 8.79822 9.69009 8.62822C9.41009 8.44822 9.32009 8.07822 9.49009 7.79822L10.5401 6.08822C8.28009 6.10822 6.42009 7.83822 6.20009 10.0482Z" fill="#333333"/>
<path d="M14.6802 5.07812L18.6402 7.36812H18.6502C19.5702 7.89812 19.8902 9.07812 19.3602 9.99813L14.1002 19.1081C13.5702 20.0381 12.3802 20.3381 11.4602 19.8081L6.10016 16.7181C5.17016 16.1881 4.85016 15.0081 5.38016 14.0881L6.04016 12.9381L7.08016 13.5381L6.42016 14.6881C6.23016 15.0381 6.34016 15.4781 6.70017 15.6881L12.0602 18.7781C12.4202 18.9781 12.8602 18.8581 13.0602 18.5181L18.3202 9.40812C18.5102 9.05812 18.4002 8.61812 18.0402 8.40812L14.0802 6.11812L14.6802 5.07812Z" fill="#333333"/>
<path d="M15.5301 9.58825L13.4501 8.40825C13.1601 8.23825 13.0601 7.87825 13.2201 7.58825C13.3901 7.29825 13.7501 7.19825 14.0401 7.35825L16.1201 8.53825C16.4101 8.70825 16.5101 9.06825 16.3501 9.35825C16.1801 9.64825 15.8201 9.74825 15.5301 9.58825Z" fill="#333333"/>
<path d="M9.20993 15.0882C8.92993 15.5682 9.09993 16.1782 9.57993 16.4582C10.0599 16.7382 10.6699 16.5682 10.9499 16.0882C11.2299 15.6082 11.0599 14.9982 10.5799 14.7182C10.0999 14.4382 9.48993 14.6082 9.20993 15.0882Z" fill="#333333"/>
</svg>
