<svg width="24" height="24" viewBox="0 0 24 24" fill="none" xmlns="http://www.w3.org/2000/svg">
<path fill-rule="evenodd" clip-rule="evenodd" d="M9.53997 8.82031C9.08997 8.82031 8.53997 9.02031 8.24997 9.23031C6.50997 10.5103 7.08997 14.1303 9.53997 14.1303C12.49 14.1303 12.74 8.82031 9.53997 8.82031ZM10.29 12.5603C10.11 12.8003 9.86997 12.9303 9.53997 12.9303C9.04997 12.9303 8.64997 12.6103 8.48997 11.9003C8.32997 11.1503 8.57997 10.4703 8.94997 10.1903L8.96997 10.1803C8.97455 10.1803 8.98121 10.1761 8.98997 10.1706C9.00036 10.1641 9.0137 10.1557 9.02997 10.1503C9.04417 10.1446 9.05917 10.1382 9.07498 10.1313C9.11485 10.1141 9.15985 10.0946 9.20997 10.0803C9.35997 10.0303 9.47997 10.0103 9.53997 10.0103C9.96997 10.0103 10.2 10.1703 10.35 10.3703C10.53 10.6103 10.66 10.9903 10.64 11.4403C10.63 11.8903 10.49 12.2903 10.28 12.5603H10.29Z" fill="#333333"/>
<path d="M11.6699 8.90031C11.8599 8.85031 12.0499 8.82031 12.2299 8.82031H12.2399C15.4399 8.82031 15.1899 14.1303 12.2399 14.1303C12.0499 14.1303 11.8799 14.1103 11.7199 14.0703L12.6399 12.8403C12.7699 12.7803 12.8799 12.6903 12.9799 12.5603C13.1899 12.2903 13.3299 11.8903 13.3399 11.4403C13.3599 10.9903 13.2299 10.6103 13.0499 10.3703C12.9399 10.2303 12.7899 10.1103 12.5499 10.0503V9.99031L11.6699 8.90031Z" fill="#333333"/>
<path fill-rule="evenodd" clip-rule="evenodd" d="M18 7.42H14.31L12.96 5.75C12.58 5.28 12.01 5 11.4 5H6C4.9 5 4 5.9 4 7V17.01C4 18.11 4.9 19.01 6 19.01H18C19.1 19.01 20 18.11 20 17.01V9.41C20 8.31 19.1 7.41 18 7.41V7.42ZM6.12 17.81C6.26 17.01 6.68 16.52 7.24 16.21C7.87 15.86 8.7 15.72 9.55 15.72C10.4 15.72 11.23 15.86 11.86 16.21C12.42 16.52 12.84 17.01 12.98 17.81H6.12ZM18.8 17.01C18.8 17.45 18.44 17.81 18 17.81H16.87C16.71 16.52 16.03 15.66 15.13 15.16C14.5 14.81 13.77 14.63 13.05 14.56L14.67 16.28C15.17 16.6 15.54 17.07 15.66 17.81H14.18C14.02 16.52 13.34 15.66 12.44 15.16C11.56 14.67 10.5 14.52 9.55 14.52C8.6 14.52 7.54 14.67 6.66 15.16C6.03 15.51 5.52 16.04 5.21 16.77V7.01C5.21 6.57 5.57 6.21 6.01 6.21H11.41C11.65 6.21 11.88 6.32 12.03 6.51L13.38 8.18C13.61 8.46 13.95 8.63 14.31 8.63H18C18.44 8.63 18.8 8.99 18.8 9.43V17.01Z" fill="#333333"/>
</svg>
