<svg width="24" height="24" viewBox="0 0 24 24" fill="none" xmlns="http://www.w3.org/2000/svg">
<path fill-rule="evenodd" clip-rule="evenodd" d="M19.9406 12.4361C20.0531 12.0521 20.0419 11.6225 19.9635 11.2698C19.8735 10.8198 19.6735 10.4398 19.4035 10.1498C19.4935 9.8498 19.5035 9.4998 19.4635 9.1898C19.3935 8.6898 19.1735 8.1298 18.7535 7.7998C18.7335 7.3898 18.5735 6.9498 18.3035 6.5798C17.9435 6.0898 17.4335 5.7998 16.9035 5.7998C16.2207 5.7998 12.2859 6.03556 10.8729 6.12021C10.589 6.13722 10.407 6.14813 10.3735 6.1498C9.7535 6.1498 8.8335 6.5698 8.8335 7.7198V14.6698C8.8335 15.0798 8.9935 15.4798 9.2835 15.7698C9.3035 15.7898 9.3335 15.8198 9.3635 15.8398C9.3635 15.8398 9.37211 15.8467 9.38569 15.8573C9.62392 16.0422 11.7217 17.6703 13.4435 20.3098C13.6535 20.6398 13.9835 20.8398 14.3635 20.8698H14.4935C14.8835 20.8698 15.2635 20.6998 15.5635 20.3898C15.8435 20.0998 16.0035 19.6998 16.0035 19.2898V18.5098C16.0035 18.4298 16.0035 18.2398 15.9335 17.7798C15.8835 17.4398 15.5135 16.4998 15.2635 15.8798H19.0335C19.4235 15.8798 19.7635 15.7498 20.0135 15.4998C20.4235 15.0798 20.5135 14.4498 20.5035 13.9898C20.5035 13.4956 20.4253 12.9036 19.9406 12.4361ZM19.0335 14.7198C19.1235 14.7198 19.1635 14.6798 19.1635 14.6798C19.2335 14.6098 19.3035 14.3698 19.3035 14.0298C19.2935 13.5298 19.2035 13.3398 18.8735 13.1698C18.7035 13.0798 18.5835 12.9198 18.5535 12.7298C18.5235 12.5398 18.5935 12.3498 18.7235 12.2098C18.7835 12.1598 18.8635 11.8798 18.7835 11.4998C18.7135 11.1798 18.5535 10.9298 18.3735 10.8598C18.1535 10.7798 18.0035 10.5698 17.9935 10.3398C17.9735 10.1098 18.0935 9.8898 18.3035 9.7798C18.3015 9.77182 18.3007 9.74908 18.2995 9.71509C18.2947 9.57886 18.2835 9.26192 18.1635 8.9898C18.0835 8.8198 18.0035 8.7398 17.9735 8.7398C17.8035 8.7098 17.6635 8.5998 17.5835 8.4598C17.5035 8.3098 17.4835 8.1398 17.5335 7.9798C17.5735 7.8698 17.5135 7.5698 17.3235 7.3098C17.1935 7.1298 17.0335 7.0198 16.8935 7.0198C16.2635 7.0198 12.3735 7.2498 10.4035 7.3698C10.0235 7.3798 10.0235 7.6298 10.0235 7.7398V14.6898C10.0235 14.7798 10.0535 14.8598 10.1035 14.9298C10.4735 15.2098 12.6235 16.8998 14.4335 19.6798C14.5235 19.7098 14.6135 19.6798 14.6935 19.5898C14.7635 19.5198 14.8035 19.4198 14.8035 19.3198V18.5398C14.8035 18.4798 14.7935 18.3398 14.7435 17.9898C14.7135 17.7798 14.3135 16.7498 13.9635 15.9298C13.9598 15.9151 13.9548 15.9018 13.9499 15.8888C13.9415 15.8665 13.9335 15.8451 13.9335 15.8198C13.8535 15.4398 13.9735 15.1898 14.0935 15.0498C14.3935 14.6898 14.8635 14.6998 15.3135 14.7198H19.0335Z" fill="#333333"/>
<path fill-rule="evenodd" clip-rule="evenodd" d="M5.63359 6.01953H6.30359C7.18359 6.01953 7.90359 6.73953 7.90359 7.61953V14.1595C7.90359 15.0395 7.18359 15.7595 6.30359 15.7595H5.17359C4.73359 15.7595 4.30359 15.5695 4.00359 15.2495C3.69359 14.9295 3.54359 14.4895 3.57359 14.0495L4.03359 7.50953C4.09359 6.66953 4.79359 6.01953 5.63359 6.01953ZM6.30359 14.5595C6.52359 14.5595 6.70359 14.3795 6.70359 14.1595V7.61953C6.70359 7.39953 6.52359 7.21953 6.30359 7.21953H5.63359C5.42359 7.21953 5.24359 7.37953 5.23359 7.58953L4.77359 14.1295C4.77359 14.2395 4.80359 14.3495 4.88359 14.4295C4.95359 14.5095 5.06359 14.5595 5.17359 14.5595H6.30359Z" fill="#333333"/>
</svg>
