<svg width="24" height="24" viewBox="0 0 24 24" fill="none" xmlns="http://www.w3.org/2000/svg">
<path fill-rule="evenodd" clip-rule="evenodd" d="M11.9999 11.6004C11.779 11.6004 11.5999 11.7795 11.5999 12.0004C11.5999 12.2214 11.779 12.4004 11.9999 12.4004C12.2208 12.4004 12.3999 12.2214 12.3999 12.0004C12.3999 11.7795 12.2208 11.6004 11.9999 11.6004ZM10.3999 12.0004C10.3999 11.1168 11.1162 10.4004 11.9999 10.4004C12.8836 10.4004 13.5999 11.1168 13.5999 12.0004C13.5999 12.8841 12.8836 13.6004 11.9999 13.6004C11.1162 13.6004 10.3999 12.8841 10.3999 12.0004Z" fill="#333333"/>
<path fill-rule="evenodd" clip-rule="evenodd" d="M10.5193 8.23516C10.6852 8.522 10.5872 8.88904 10.3003 9.05496C9.28251 9.64374 8.5999 10.7427 8.5999 12.0005C8.5999 13.2582 9.28251 14.3572 10.3003 14.946C10.5872 15.1119 10.6852 15.4789 10.5193 15.7658C10.3533 16.0526 9.9863 16.1506 9.69947 15.9847C8.32609 15.1903 7.3999 13.7039 7.3999 12.0005C7.3999 10.2971 8.32609 8.81069 9.69947 8.01624C9.9863 7.85031 10.3533 7.94833 10.5193 8.23516ZM13.4805 8.23516C13.6465 7.94833 14.0135 7.85031 14.3003 8.01624C15.6737 8.81069 16.5999 10.2971 16.5999 12.0005C16.5999 13.7039 15.6737 15.1903 14.3003 15.9847C14.0135 16.1506 13.6465 16.0526 13.4805 15.7658C13.3146 15.4789 13.4126 15.1119 13.6995 14.946C14.7173 14.3572 15.3999 13.2582 15.3999 12.0005C15.3999 10.7427 14.7173 9.64374 13.6995 9.05496C13.4126 8.88904 13.3146 8.522 13.4805 8.23516Z" fill="#333333"/>
<path fill-rule="evenodd" clip-rule="evenodd" d="M8.49201 5.91207C8.68159 6.18385 8.61495 6.55786 8.34316 6.74744C6.68365 7.90498 5.5999 9.82629 5.5999 12.0006C5.5999 14.175 6.68365 16.0963 8.34316 17.2538C8.61495 17.4434 8.68159 17.8174 8.49201 18.0892C8.30244 18.361 7.92843 18.4276 7.65664 18.2381C5.68918 16.8657 4.3999 14.5838 4.3999 12.0006C4.3999 9.41749 5.68918 7.13556 7.65664 5.76321C7.92843 5.57364 8.30244 5.64028 8.49201 5.91207ZM15.5078 5.91207C15.6974 5.64028 16.0714 5.57364 16.3432 5.76321C18.3106 7.13556 19.5999 9.41749 19.5999 12.0006C19.5999 14.5838 18.3106 16.8657 16.3432 18.2381C16.0714 18.4276 15.6974 18.361 15.5078 18.0892C15.3182 17.8174 15.3849 17.4434 15.6566 17.2538C17.3162 16.0963 18.3999 14.175 18.3999 12.0006C18.3999 9.82629 17.3162 7.90498 15.6566 6.74744C15.3849 6.55786 15.3182 6.18385 15.5078 5.91207Z" fill="#333333"/>
</svg>
