<svg width="24" height="24" viewBox="0 0 24 24" fill="none" xmlns="http://www.w3.org/2000/svg">
<path fill-rule="evenodd" clip-rule="evenodd" d="M10.9668 14.3941C11.0615 14.8054 11.1902 15.2088 11.3523 15.5941H9.70508C9.37371 15.5941 9.10508 15.3255 9.10508 14.9941C9.10508 14.6628 9.37371 14.3941 9.70508 14.3941H10.9668ZM10.9022 11.3941C10.8209 11.7462 10.7778 12.1242 10.7726 12.5941H9.70508C9.37371 12.5941 9.10508 12.3255 9.10508 11.9941C9.10508 11.6628 9.37371 11.3941 9.70508 11.3941H10.9022ZM13.0659 8.2372C13.0223 8.0728 12.9996 7.9021 12.9996 7.72903V5.21954L8.33666 5.21954C7.96215 5.21954 7.59971 5.37015 7.32999 5.64347C7.05973 5.91733 6.90508 6.29213 6.90508 6.6862V17.3529C6.90508 17.7469 7.05972 18.1217 7.32995 18.3956C7.59972 18.6689 7.96219 18.8195 8.33666 18.8195H12.6244C12.6434 19.2261 12.661 19.6588 12.6697 20.0195H8.33666C7.63872 20.0195 6.96936 19.7385 6.47585 19.2385C5.98233 18.7384 5.70508 18.0601 5.70508 17.3529V6.6862C5.70508 5.97896 5.98233 5.30068 6.47585 4.80059C6.96936 4.30049 7.63872 4.01954 8.33666 4.01954H13.7402C14.0871 4.01867 14.4308 4.08734 14.7515 4.22159C15.0721 4.35583 15.3634 4.55301 15.6086 4.80176L17.9332 7.15731C18.0472 7.27275 18.1503 7.39827 18.2412 7.53218C17.6088 7.28454 16.9326 7.16181 16.2572 7.16736L14.7545 5.64465C14.6203 5.50852 14.4613 5.40105 14.288 5.3285C14.2589 5.31629 14.2294 5.30509 14.1996 5.29491V7.6037C13.8058 7.77237 13.423 7.98535 13.0659 8.2372Z" fill="#333333"/>
<path fill-rule="evenodd" clip-rule="evenodd" d="M14.4029 19.4385C14.4029 19.1071 14.6716 18.8385 15.0029 18.8385H17.8601C18.1915 18.8385 18.4601 19.1071 18.4601 19.4385C18.4601 19.7698 18.1915 20.0385 17.8601 20.0385H15.0029C14.6716 20.0385 14.4029 19.7698 14.4029 19.4385Z" fill="#333333"/>
<path fill-rule="evenodd" clip-rule="evenodd" d="M17.7113 10.5348C17.0463 10.1874 16.2345 10.1275 15.5237 10.3739C14.8132 10.6202 14.2218 11.1661 13.9263 11.8421C13.7749 12.1884 13.7053 12.4471 13.7055 12.918C13.7058 13.7352 14.1721 14.643 14.8113 15.2726C15.1912 15.6468 15.3069 16.1558 15.307 16.7583H17.5274C17.5137 16.4079 17.5492 16.1151 17.6408 15.8623C17.7384 15.5927 17.8839 15.4123 18.0163 15.2784C18.89 14.3942 19.3584 13.3059 19.0677 12.2182C18.8778 11.5074 18.376 10.8819 17.7113 10.5348ZM18.2668 9.47109C17.3083 8.97042 16.1532 8.88567 15.1307 9.24011C14.1079 9.59467 13.258 10.3749 12.8267 11.3615C12.6147 11.8465 12.5052 12.2685 12.5055 12.9184C12.5059 14.1428 13.1706 15.3409 13.9692 16.1276C14.0132 16.1708 14.107 16.2871 14.107 16.7585C14.107 17.0142 14.1716 17.3179 14.383 17.5677C14.6082 17.8339 14.9319 17.9583 15.2814 17.9583H17.5535C18.2645 17.9583 18.7643 17.3856 18.7271 16.7274C18.7156 16.4701 18.7449 16.3376 18.7691 16.2708C18.7897 16.2139 18.8161 16.1763 18.8699 16.1218C19.9118 15.0674 20.6685 13.5605 20.2271 11.9084C19.9492 10.8688 19.2258 9.97192 18.2668 9.47109Z" fill="#333333"/>
</svg>
