<svg width="24" height="24" viewBox="0 0 24 24" fill="none" xmlns="http://www.w3.org/2000/svg">
<path d="M17.1743 7.67465C17.4086 7.44034 17.4086 7.06044 17.1743 6.82613C16.94 6.59181 16.5601 6.59181 16.3258 6.82613L8.04173 15.1102L4.50766 11.5761C4.27335 11.3418 3.89345 11.3418 3.65913 11.5761C3.42482 11.8104 3.42482 12.1903 3.65913 12.4247L7.61747 16.383C7.85178 16.6173 8.23168 16.6173 8.466 16.383L17.1743 7.67465Z" fill="#333333"/>
<path d="M20.341 10.8413C20.5753 10.607 20.5753 10.2271 20.341 9.99278C20.1067 9.75847 19.7268 9.75847 19.4925 9.99278L13.9792 15.506L13.216 14.7428C12.9817 14.5085 12.6018 14.5085 12.3675 14.7428C12.1332 14.9771 12.1332 15.357 12.3675 15.5913L13.555 16.7788C13.7893 17.0131 14.1692 17.0131 14.4035 16.7788L20.341 10.8413Z" fill="#333333"/>
</svg>
