<svg width="24" height="24" viewBox="0 0 24 24" fill="none" xmlns="http://www.w3.org/2000/svg">
<path d="M11.3798 15.93C11.2998 15.9 11.2398 15.86 11.1798 15.8V15.79L7.17982 11.79C6.94982 11.55 6.94982 11.17 7.17982 10.94C7.41982 10.71 7.79982 10.71 8.02982 10.94L11.0098 13.92V4.6C11.0098 4.27 11.2798 4 11.6098 4C11.9398 4 12.2098 4.27 12.2098 4.6V13.93L15.1898 10.95C15.4298 10.72 15.8098 10.72 16.0398 10.95C16.2698 11.19 16.2698 11.57 16.0398 11.8L12.0398 15.8C11.9798 15.86 11.9098 15.9 11.8398 15.93C11.7798 15.96 11.6998 15.97 11.6298 15.97H11.5898C11.5198 15.97 11.4498 15.96 11.3798 15.93Z" fill="#333333"/>
<path d="M18 15.3695C18 15.0395 18.27 14.7695 18.6 14.7695C18.93 14.7695 19.2 15.0395 19.2 15.3695V17.3695C19.2 18.0395 18.97 18.6895 18.54 19.1795C18.11 19.6695 17.5 19.9695 16.85 19.9695H6.35C5.7 19.9695 5.09 19.6695 4.66 19.1795C4.23 18.6895 4 18.0395 4 17.3695V15.3695C4 15.0395 4.27 14.7695 4.6 14.7695C4.93 14.7695 5.2 15.0395 5.2 15.3695V17.3695C5.2 17.7695 5.33 18.1295 5.56 18.3895C5.79 18.6395 6.07 18.7695 6.35 18.7695H16.85C17.13 18.7695 17.42 18.6495 17.64 18.3895C17.86 18.1295 18 17.7695 18 17.3695V15.3695Z" fill="#333333"/>
</svg>
