<svg width="24" height="24" viewBox="0 0 24 24" fill="none" xmlns="http://www.w3.org/2000/svg">
<path fill-rule="evenodd" clip-rule="evenodd" d="M8.7499 4.40039C8.00432 4.40039 7.3999 5.00481 7.3999 5.75039C7.3999 6.49598 8.00432 7.10039 8.7499 7.10039C9.49549 7.10039 10.0999 6.49598 10.0999 5.75039C10.0999 5.00481 9.49549 4.40039 8.7499 4.40039ZM8.5999 5.75039C8.5999 5.66755 8.66706 5.60039 8.7499 5.60039C8.83275 5.60039 8.8999 5.66755 8.8999 5.75039C8.8999 5.83323 8.83275 5.90039 8.7499 5.90039C8.66706 5.90039 8.5999 5.83323 8.5999 5.75039Z" fill="#909090"/>
<path fill-rule="evenodd" clip-rule="evenodd" d="M8.7499 10.6504C8.00432 10.6504 7.3999 11.2548 7.3999 12.0004C7.3999 12.746 8.00432 13.3504 8.7499 13.3504C9.49549 13.3504 10.0999 12.746 10.0999 12.0004C10.0999 11.2548 9.49549 10.6504 8.7499 10.6504ZM8.5999 12.0004C8.5999 11.9175 8.66706 11.8504 8.7499 11.8504C8.83275 11.8504 8.8999 11.9175 8.8999 12.0004C8.8999 12.0832 8.83275 12.1504 8.7499 12.1504C8.66706 12.1504 8.5999 12.0832 8.5999 12.0004Z" fill="#909090"/>
<path fill-rule="evenodd" clip-rule="evenodd" d="M7.3999 18.2504C7.3999 17.5048 8.00432 16.9004 8.7499 16.9004C9.49549 16.9004 10.0999 17.5048 10.0999 18.2504C10.0999 18.996 9.49549 19.6004 8.7499 19.6004C8.00432 19.6004 7.3999 18.996 7.3999 18.2504ZM8.7499 18.1004C8.66706 18.1004 8.5999 18.1675 8.5999 18.2504C8.5999 18.3332 8.66706 18.4004 8.7499 18.4004C8.83275 18.4004 8.8999 18.3332 8.8999 18.2504C8.8999 18.1675 8.83275 18.1004 8.7499 18.1004Z" fill="#909090"/>
<path fill-rule="evenodd" clip-rule="evenodd" d="M15.2499 10.6504C14.5043 10.6504 13.8999 11.2548 13.8999 12.0004C13.8999 12.746 14.5043 13.3504 15.2499 13.3504C15.9955 13.3504 16.5999 12.746 16.5999 12.0004C16.5999 11.2548 15.9955 10.6504 15.2499 10.6504ZM15.0999 12.0004C15.0999 11.9175 15.1671 11.8504 15.2499 11.8504C15.3327 11.8504 15.3999 11.9175 15.3999 12.0004C15.3999 12.0832 15.3327 12.1504 15.2499 12.1504C15.1671 12.1504 15.0999 12.0832 15.0999 12.0004Z" fill="#909090"/>
<path fill-rule="evenodd" clip-rule="evenodd" d="M13.8999 5.75039C13.8999 5.00481 14.5043 4.40039 15.2499 4.40039C15.9955 4.40039 16.5999 5.00481 16.5999 5.75039C16.5999 6.49598 15.9955 7.10039 15.2499 7.10039C14.5043 7.10039 13.8999 6.49598 13.8999 5.75039ZM15.2499 5.60039C15.1671 5.60039 15.0999 5.66755 15.0999 5.75039C15.0999 5.83323 15.1671 5.90039 15.2499 5.90039C15.3327 5.90039 15.3999 5.83323 15.3999 5.75039C15.3999 5.66755 15.3327 5.60039 15.2499 5.60039Z" fill="#909090"/>
<path fill-rule="evenodd" clip-rule="evenodd" d="M15.2499 16.9004C14.5043 16.9004 13.8999 17.5048 13.8999 18.2504C13.8999 18.996 14.5043 19.6004 15.2499 19.6004C15.9955 19.6004 16.5999 18.996 16.5999 18.2504C16.5999 17.5048 15.9955 16.9004 15.2499 16.9004ZM15.0999 18.2504C15.0999 18.1675 15.1671 18.1004 15.2499 18.1004C15.3327 18.1004 15.3999 18.1675 15.3999 18.2504C15.3999 18.3332 15.3327 18.4004 15.2499 18.4004C15.1671 18.4004 15.0999 18.3332 15.0999 18.2504Z" fill="#909090"/>
</svg>
