<svg width="24" height="24" viewBox="0 0 24 24" fill="none" xmlns="http://www.w3.org/2000/svg">
<path fill-rule="evenodd" clip-rule="evenodd" d="M9.67829 6.5C9.10628 6.5 8.64258 6.96371 8.64258 7.53571C8.64258 8.10772 9.10628 8.57143 9.67829 8.57143C10.2503 8.57143 10.714 8.10772 10.714 7.53571C10.714 6.96371 10.2503 6.5 9.67829 6.5ZM9.64258 7.53571C9.64258 7.51599 9.65857 7.5 9.67829 7.5C9.69802 7.5 9.71401 7.51599 9.71401 7.53571C9.71401 7.55544 9.69802 7.57143 9.67829 7.57143C9.65857 7.57143 9.64258 7.55544 9.64258 7.53571Z" fill="#909090"/>
<path fill-rule="evenodd" clip-rule="evenodd" d="M9.67835 10.9643C9.10634 10.9643 8.64264 11.428 8.64264 12C8.64264 12.572 9.10634 13.0357 9.67835 13.0357C10.2504 13.0357 10.7141 12.572 10.7141 12C10.7141 11.428 10.2504 10.9643 9.67835 10.9643ZM9.64264 12C9.64264 11.9803 9.65863 11.9643 9.67835 11.9643C9.69808 11.9643 9.71407 11.9803 9.71407 12C9.71407 12.0197 9.69808 12.0357 9.67835 12.0357C9.65863 12.0357 9.64264 12.0197 9.64264 12Z" fill="#909090"/>
<path fill-rule="evenodd" clip-rule="evenodd" d="M8.64264 16.4643C8.64264 15.8923 9.10634 15.4286 9.67835 15.4286C10.2504 15.4286 10.7141 15.8923 10.7141 16.4643C10.7141 17.0363 10.2504 17.5 9.67835 17.5C9.10634 17.5 8.64264 17.0363 8.64264 16.4643ZM9.67835 16.4286C9.65863 16.4286 9.64264 16.4445 9.64264 16.4643C9.64264 16.484 9.65863 16.5 9.67835 16.5C9.69808 16.5 9.71407 16.484 9.71407 16.4643C9.71407 16.4445 9.69808 16.4286 9.67835 16.4286Z" fill="#909090"/>
<path fill-rule="evenodd" clip-rule="evenodd" d="M14.3212 10.9643C13.7492 10.9643 13.2855 11.428 13.2855 12C13.2855 12.572 13.7492 13.0357 14.3212 13.0357C14.8932 13.0357 15.357 12.572 15.357 12C15.357 11.428 14.8932 10.9643 14.3212 10.9643ZM14.2855 12C14.2855 11.9803 14.3015 11.9643 14.3212 11.9643C14.341 11.9643 14.357 11.9803 14.357 12C14.357 12.0197 14.341 12.0357 14.3212 12.0357C14.3015 12.0357 14.2855 12.0197 14.2855 12Z" fill="#909090"/>
<path fill-rule="evenodd" clip-rule="evenodd" d="M13.2855 7.53571C13.2855 6.96371 13.7492 6.5 14.3212 6.5C14.8932 6.5 15.357 6.96371 15.357 7.53571C15.357 8.10772 14.8932 8.57143 14.3212 8.57143C13.7492 8.57143 13.2855 8.10772 13.2855 7.53571ZM14.3212 7.5C14.3015 7.5 14.2855 7.51599 14.2855 7.53571C14.2855 7.55544 14.3015 7.57143 14.3212 7.57143C14.341 7.57143 14.357 7.55544 14.357 7.53571C14.357 7.51599 14.341 7.5 14.3212 7.5Z" fill="#909090"/>
<path fill-rule="evenodd" clip-rule="evenodd" d="M14.3212 15.4286C13.7492 15.4286 13.2855 15.8923 13.2855 16.4643C13.2855 17.0363 13.7492 17.5 14.3212 17.5C14.8932 17.5 15.357 17.0363 15.357 16.4643C15.357 15.8923 14.8932 15.4286 14.3212 15.4286ZM14.2855 16.4643C14.2855 16.4445 14.3015 16.4286 14.3212 16.4286C14.341 16.4286 14.357 16.4445 14.357 16.4643C14.357 16.484 14.341 16.5 14.3212 16.5C14.3015 16.5 14.2855 16.484 14.2855 16.4643Z" fill="#909090"/>
</svg>
