<svg width="24" height="24" viewBox="0 0 24 24" fill="none" xmlns="http://www.w3.org/2000/svg">
<path fill-rule="evenodd" clip-rule="evenodd" d="M10.1427 7.5498C9.65751 7.5498 9.26416 7.94315 9.26416 8.42838C9.26416 8.9136 9.65751 9.30695 10.1427 9.30695C10.628 9.30695 11.0213 8.9136 11.0213 8.42838C11.0213 7.94315 10.628 7.5498 10.1427 7.5498ZM10.1642 8.42838C10.1642 8.44021 10.1546 8.4498 10.1427 8.4498C10.1309 8.4498 10.1213 8.44021 10.1213 8.42838C10.1213 8.41654 10.1309 8.40695 10.1427 8.40695C10.1546 8.40695 10.1642 8.41654 10.1642 8.42838Z" fill="#909090"/>
<path fill-rule="evenodd" clip-rule="evenodd" d="M10.1428 11.1212C9.65757 11.1212 9.26422 11.5146 9.26422 11.9998C9.26422 12.485 9.65757 12.8784 10.1428 12.8784C10.628 12.8784 11.0214 12.485 11.0214 11.9998C11.0214 11.5146 10.628 11.1212 10.1428 11.1212ZM10.1642 11.9998C10.1642 12.0116 10.1546 12.0212 10.1428 12.0212C10.131 12.0212 10.1214 12.0116 10.1214 11.9998C10.1214 11.988 10.131 11.9784 10.1428 11.9784C10.1546 11.9784 10.1642 11.988 10.1642 11.9998Z" fill="#909090"/>
<path fill-rule="evenodd" clip-rule="evenodd" d="M9.26422 15.5712C9.26422 15.086 9.65757 14.6927 10.1428 14.6927C10.628 14.6927 11.0214 15.086 11.0214 15.5712C11.0214 16.0565 10.628 16.4498 10.1428 16.4498C9.65757 16.4498 9.26422 16.0565 9.26422 15.5712ZM10.1428 15.5927C10.1546 15.5927 10.1642 15.5831 10.1642 15.5712C10.1642 15.5594 10.1546 15.5498 10.1428 15.5498C10.131 15.5498 10.1214 15.5594 10.1214 15.5712C10.1214 15.5831 10.131 15.5927 10.1428 15.5927Z" fill="#909090"/>
<path fill-rule="evenodd" clip-rule="evenodd" d="M13.8571 11.1212C13.3719 11.1212 12.9785 11.5146 12.9785 11.9998C12.9785 12.485 13.3719 12.8784 13.8571 12.8784C14.3423 12.8784 14.7357 12.485 14.7357 11.9998C14.7357 11.5146 14.3423 11.1212 13.8571 11.1212ZM13.8785 11.9998C13.8785 12.0116 13.8689 12.0212 13.8571 12.0212C13.8453 12.0212 13.8357 12.0116 13.8357 11.9998C13.8357 11.988 13.8453 11.9784 13.8571 11.9784C13.8689 11.9784 13.8785 11.988 13.8785 11.9998Z" fill="#909090"/>
<path fill-rule="evenodd" clip-rule="evenodd" d="M12.9785 8.42838C12.9785 7.94315 13.3719 7.5498 13.8571 7.5498C14.3423 7.5498 14.7357 7.94315 14.7357 8.42838C14.7357 8.9136 14.3423 9.30695 13.8571 9.30695C13.3719 9.30695 12.9785 8.9136 12.9785 8.42838ZM13.8571 8.4498C13.8689 8.4498 13.8785 8.44021 13.8785 8.42838C13.8785 8.41654 13.8689 8.40695 13.8571 8.40695C13.8453 8.40695 13.8357 8.41654 13.8357 8.42838C13.8357 8.44021 13.8453 8.4498 13.8571 8.4498Z" fill="#909090"/>
<path fill-rule="evenodd" clip-rule="evenodd" d="M13.8571 14.6927C13.3719 14.6927 12.9785 15.086 12.9785 15.5712C12.9785 16.0565 13.3719 16.4498 13.8571 16.4498C14.3423 16.4498 14.7357 16.0565 14.7357 15.5712C14.7357 15.086 14.3423 14.6927 13.8571 14.6927ZM13.8785 15.5712C13.8785 15.5831 13.8689 15.5927 13.8571 15.5927C13.8453 15.5927 13.8357 15.5831 13.8357 15.5712C13.8357 15.5594 13.8453 15.5498 13.8571 15.5498C13.8689 15.5498 13.8785 15.5594 13.8785 15.5712Z" fill="#909090"/>
</svg>
