<svg width="24" height="24" viewBox="0 0 24 24" fill="none" xmlns="http://www.w3.org/2000/svg">
<path fill-rule="evenodd" clip-rule="evenodd" d="M9.21434 5.4502C8.55554 5.4502 8.02148 5.98426 8.02148 6.64305C8.02148 7.30185 8.55554 7.83591 9.21434 7.83591C9.87314 7.83591 10.4072 7.30185 10.4072 6.64305C10.4072 5.98426 9.87314 5.4502 9.21434 5.4502ZM9.12148 6.64305C9.12148 6.59177 9.16306 6.5502 9.21434 6.5502C9.26563 6.5502 9.3072 6.59177 9.3072 6.64305C9.3072 6.69434 9.26563 6.73591 9.21434 6.73591C9.16306 6.73591 9.12148 6.69434 9.12148 6.64305Z" fill="#909090"/>
<path fill-rule="evenodd" clip-rule="evenodd" d="M9.21434 10.8073C8.55554 10.8073 8.02148 11.3414 8.02148 12.0002C8.02148 12.659 8.55554 13.193 9.21434 13.193C9.87314 13.193 10.4072 12.659 10.4072 12.0002C10.4072 11.3414 9.87314 10.8073 9.21434 10.8073ZM9.12148 12.0002C9.12148 11.9489 9.16306 11.9073 9.21434 11.9073C9.26563 11.9073 9.3072 11.9489 9.3072 12.0002C9.3072 12.0515 9.26563 12.093 9.21434 12.093C9.16306 12.093 9.12148 12.0515 9.12148 12.0002Z" fill="#909090"/>
<path fill-rule="evenodd" clip-rule="evenodd" d="M8.02148 17.3573C8.02148 16.6986 8.55554 16.1645 9.21434 16.1645C9.87314 16.1645 10.4072 16.6986 10.4072 17.3573C10.4072 18.0161 9.87314 18.5502 9.21434 18.5502C8.55554 18.5502 8.02148 18.0161 8.02148 17.3573ZM9.21434 17.2645C9.16306 17.2645 9.12148 17.3061 9.12148 17.3573C9.12148 17.4086 9.16306 17.4502 9.21434 17.4502C9.26563 17.4502 9.3072 17.4086 9.3072 17.3573C9.3072 17.3061 9.26563 17.2645 9.21434 17.2645Z" fill="#909090"/>
<path fill-rule="evenodd" clip-rule="evenodd" d="M14.7858 10.8073C14.127 10.8073 13.5929 11.3414 13.5929 12.0002C13.5929 12.659 14.127 13.193 14.7858 13.193C15.4445 13.193 15.9786 12.659 15.9786 12.0002C15.9786 11.3414 15.4445 10.8073 14.7858 10.8073ZM14.6929 12.0002C14.6929 11.9489 14.7345 11.9073 14.7858 11.9073C14.837 11.9073 14.8786 11.9489 14.8786 12.0002C14.8786 12.0515 14.837 12.093 14.7858 12.093C14.7345 12.093 14.6929 12.0515 14.6929 12.0002Z" fill="#909090"/>
<path fill-rule="evenodd" clip-rule="evenodd" d="M13.5929 6.64305C13.5929 5.98426 14.127 5.4502 14.7858 5.4502C15.4445 5.4502 15.9786 5.98426 15.9786 6.64305C15.9786 7.30185 15.4445 7.83591 14.7858 7.83591C14.127 7.83591 13.5929 7.30185 13.5929 6.64305ZM14.7858 6.5502C14.7345 6.5502 14.6929 6.59177 14.6929 6.64305C14.6929 6.69434 14.7345 6.73591 14.7858 6.73591C14.837 6.73591 14.8786 6.69434 14.8786 6.64305C14.8786 6.59177 14.837 6.5502 14.7858 6.5502Z" fill="#909090"/>
<path fill-rule="evenodd" clip-rule="evenodd" d="M14.7858 16.1645C14.127 16.1645 13.5929 16.6986 13.5929 17.3573C13.5929 18.0161 14.127 18.5502 14.7858 18.5502C15.4445 18.5502 15.9786 18.0161 15.9786 17.3573C15.9786 16.6986 15.4445 16.1645 14.7858 16.1645ZM14.6929 17.3573C14.6929 17.3061 14.7345 17.2645 14.7858 17.2645C14.837 17.2645 14.8786 17.3061 14.8786 17.3573C14.8786 17.4086 14.837 17.4502 14.7858 17.4502C14.7345 17.4502 14.6929 17.4086 14.6929 17.3573Z" fill="#909090"/>
</svg>
