<svg width="24" height="24" viewBox="0 0 24 24" fill="none" xmlns="http://www.w3.org/2000/svg">
<path fill-rule="evenodd" clip-rule="evenodd" d="M12 20C16.4183 20 20 16.4183 20 12C20 7.58172 16.4183 4 12 4C7.58178 4.00007 4 7.58176 4 12C4 16.4182 7.58178 19.9999 12 20ZM10.946 18.7188C10.0529 17.4699 9.40913 16.0727 9.04478 14.6004H5.71492C6.60692 16.7539 8.57351 18.3496 10.946 18.7188ZM11.9999 18.1282C11.2137 17.0563 10.6346 15.8609 10.2853 14.6004H13.7145C13.3652 15.8609 12.7861 17.0563 11.9999 18.1282ZM9.89953 12C9.91079 12.471 9.95317 12.9387 10.0256 13.4004H13.9741C14.0466 12.9387 14.089 12.471 14.1002 12C14.089 11.5293 14.0466 11.0619 13.9742 10.6004H10.0255C9.95312 11.0619 9.91078 11.5293 9.89953 12ZM8.81233 10.6004C8.74732 11.0624 8.70933 11.5297 8.69922 12C8.70933 12.4706 8.74736 12.9381 8.81244 13.4004H5.34435C5.24974 12.9485 5.2 12.48 5.2 12C5.2 11.5202 5.24968 11.0521 5.34419 10.6004H8.81233ZM10.285 9.40039H13.7147C13.3654 8.1396 12.7862 6.94395 11.9999 5.87179C11.2135 6.94395 10.6343 8.1396 10.285 9.40039ZM14.9552 9.40039C14.5909 7.92775 13.947 6.53026 13.0537 5.28115C15.4266 5.6503 17.3935 7.24638 18.2854 9.40039H14.9552ZM15.1874 10.6004H18.6558C18.7503 11.0521 18.8 11.5202 18.8 12C18.8 12.48 18.7503 12.9485 18.6556 13.4004H15.1873C15.2524 12.9381 15.2904 12.4706 15.3005 12C15.2904 11.5297 15.2524 11.0624 15.1874 10.6004ZM9.04459 9.40039H5.7146C6.60644 7.24647 8.57322 5.65042 10.946 5.28119C10.0528 6.53029 9.4089 7.92777 9.04459 9.40039ZM18.2851 14.6004H14.955C14.5906 16.0727 13.9468 17.47 13.0537 18.7189C15.4263 18.3497 17.393 16.754 18.2851 14.6004Z" fill="#333333"/>
</svg>
