<svg width="24" height="24" viewBox="0 0 24 24" fill="none" xmlns="http://www.w3.org/2000/svg">
<path fill-rule="evenodd" clip-rule="evenodd" d="M14.923 6.06695C15.5676 5.42378 16.6113 5.42437 17.2552 6.06829L18.2894 7.10256C18.9327 7.74591 18.9338 8.78857 18.2919 9.43334L10.3338 17.4273C10.1298 17.6322 9.87259 17.776 9.59116 17.8424L6.403 18.5943C5.91675 18.709 5.48828 18.255 5.6308 17.7762L6.55048 14.6862C6.62414 14.4387 6.75847 14.2135 6.94127 14.0311L14.923 6.06695ZM16.4773 6.84607C16.2627 6.63143 15.9148 6.63123 15.6999 6.84562L14.6582 7.88505L16.4737 9.70058L17.5124 8.65727C17.7263 8.44235 17.7259 8.09479 17.5115 7.88034L16.4773 6.84607ZM15.6977 10.4801L13.8795 8.66201L8.03271 14.496L9.87039 16.3337L15.6977 10.4801ZM6.90674 17.3453L7.46171 15.4806L8.86461 16.8835L6.90674 17.3453Z" fill="#909090"/>
</svg>
