<svg width="24" height="24" viewBox="0 0 24 24" fill="none" xmlns="http://www.w3.org/2000/svg">
<path fill-rule="evenodd" clip-rule="evenodd" d="M15.5367 4.91236C16.318 4.13275 17.5832 4.13347 18.3636 4.91397L19.5189 6.06938C20.2987 6.8492 20.3001 8.11303 19.5221 8.89457L9.89434 18.5657C9.68376 18.7772 9.41822 18.9256 9.12771 18.9941L5.17449 19.9265C4.65084 20.05 4.18942 19.5611 4.34289 19.0455L5.48181 15.2189C5.55785 14.9634 5.69651 14.7309 5.8852 14.5427L15.5367 4.91236ZM17.5151 5.76246C17.2029 5.45026 16.6968 5.44998 16.3843 5.76182L15.125 7.01832L17.416 9.30926L18.6716 8.04795C18.9828 7.73533 18.9823 7.2298 18.6704 6.91787L17.5151 5.76246ZM16.5694 10.1597L14.2756 7.86592L7.10469 15.0211L9.42244 17.3388L16.5694 10.1597ZM5.73931 18.5603L6.47502 16.0884L8.33478 17.9482L5.73931 18.5603Z" fill="#909090"/>
</svg>
