<svg width="24" height="24" viewBox="0 0 24 24" fill="none" xmlns="http://www.w3.org/2000/svg">
<path fill-rule="evenodd" clip-rule="evenodd" d="M14.3835 7.02899C14.9695 6.44429 15.9184 6.44483 16.5037 7.03021L17.2706 7.79714C17.8554 8.382 17.8564 9.32987 17.2729 9.91603L10.655 16.5637C10.4576 16.762 10.2087 16.9012 9.9363 16.9654L7.32193 17.582C6.87308 17.6879 6.47758 17.2689 6.60913 16.8269L7.36439 14.2893C7.43567 14.0498 7.56567 13.8319 7.74257 13.6554L14.3835 7.02899ZM15.7966 7.73728C15.6015 7.54216 15.2852 7.54198 15.0898 7.73688L14.2908 8.53413L15.7675 10.0108L16.5642 9.21051C16.7587 9.01513 16.7584 8.69917 16.5634 8.50421L15.7966 7.73728ZM15.062 10.7195L13.583 9.24046L8.71145 14.1013L10.2068 15.5966L15.062 10.7195ZM7.7646 16.4502L8.19616 15.0002L9.28707 16.0911L7.7646 16.4502Z" fill="#909090"/>
</svg>
