<svg width="24" height="24" viewBox="0 0 24 24" fill="none" xmlns="http://www.w3.org/2000/svg">
<path fill-rule="evenodd" clip-rule="evenodd" d="M13.985 7.85058C14.4343 7.40231 15.1617 7.40272 15.6105 7.85151L16.3924 8.63348C16.8408 9.08188 16.8416 9.80858 16.3942 10.258L10.9757 15.7009C10.7849 15.8925 10.5442 16.027 10.281 16.0891L8.24037 16.5704C7.82893 16.6674 7.46639 16.2834 7.58697 15.8782L8.17781 13.8931C8.24672 13.6615 8.37238 13.4509 8.54338 13.2803L13.985 7.85058ZM14.9741 8.48788C14.8765 8.39032 14.7184 8.39023 14.6207 8.48768L13.923 9.18389L15.0608 10.3217L15.7564 9.623C15.8536 9.52531 15.8534 9.36733 15.756 9.26985L14.9741 8.48788ZM14.4258 10.9595L13.2859 9.81958L9.38971 13.7072L10.5427 14.8602L14.4258 10.9595ZM8.62197 15.5557L8.93012 14.5204L9.70906 15.2993L8.62197 15.5557Z" fill="#909090"/>
</svg>
