<svg width="24" height="24" viewBox="0 0 24 24" fill="none" xmlns="http://www.w3.org/2000/svg">
<path fill-rule="evenodd" clip-rule="evenodd" d="M7 5C5.34315 5 4 6.34315 4 8V15C4 16.3433 4.88287 17.4804 6.10001 17.8627V19.6033C6.10001 20.8428 7.59865 21.4636 8.47513 20.5871L11.0622 18H17.0001C18.6569 18 20.0001 16.6569 20.0001 15V8C20.0001 6.34315 18.6569 5 17.0001 5H7ZM7.30001 17.8627C7.30001 17.3384 6.95972 16.8749 6.45958 16.7178C5.72822 16.4881 5.2 15.8042 5.2 15V8C5.2 7.00589 6.00589 6.2 7 6.2H17.0001C17.9942 6.2 18.8001 7.00589 18.8001 8V15C18.8001 15.9941 17.9942 16.8 17.0001 16.8H11.0622C10.744 16.8 10.4387 16.9264 10.2137 17.1515L7.6266 19.7386C7.58453 19.7806 7.55217 19.7911 7.52942 19.7951C7.50011 19.8001 7.46045 19.7976 7.41811 19.78C7.37576 19.7625 7.34591 19.7363 7.32878 19.712C7.31547 19.6931 7.30001 19.6628 7.30001 19.6033V17.8627Z" fill="#333333"/>
</svg>
