<svg width="24" height="24" viewBox="0 0 24 24" fill="none" xmlns="http://www.w3.org/2000/svg">
<path fill-rule="evenodd" clip-rule="evenodd" d="M20.36 10.33H20.01V9.33C20.01 8.01 18.87 7 17.56 7H6.45C5.14 7 4 8.01 4 9.33V14.52C4 15.84 5.14 16.85 6.45 16.85H17.56C18.88 16.85 20.01 15.84 20.01 14.52V13.52H20.36C20.69 13.52 20.96 13.25 20.96 12.92V10.93C20.96 10.6 20.69 10.33 20.36 10.33ZM18.81 14.52C18.81 15.11 18.29 15.65 17.56 15.65H6.45C5.72 15.65 5.2 15.11 5.2 14.52V9.33C5.2 8.74 5.72 8.2 6.45 8.2H17.56C18.29 8.2 18.81 8.74 18.81 9.33V14.52Z" fill="#333333"/>
</svg>
