<svg width="24" height="24" viewBox="0 0 24 24" fill="none" xmlns="http://www.w3.org/2000/svg">
<path fill-rule="evenodd" clip-rule="evenodd" d="M19.98 10.25C19.98 10.25 19.98 10.24 19.98 10.23C19.98 10.21 19.98 10.2 19.98 10.19C19.98 10.14 19.97 10.08 19.95 10.03C19.95 10.01 19.93 9.99 19.92 9.96C19.92 9.94 19.91 9.92 19.89 9.9L16.93 5.28C16.82 5.11 16.63 5 16.42 5H7.56C7.36 5 7.16 5.1 7.05 5.28L4.09 9.91C4.09 9.91 4.07 9.95 4.06 9.97C4.05 9.99 4.04 10.01 4.03 10.04C4.01 10.09 4 10.14 4 10.2C4 10.22 4 10.23 4 10.24C4 10.24 4 10.25 4 10.26C4 10.33 4.01 10.4 4.04 10.47C4.04 10.49 4.06 10.5 4.07 10.52C4.09 10.56 4.11 10.6 4.14 10.63L11.53 19.33C11.64 19.46 11.81 19.54 11.99 19.54C12.17 19.54 12.33 19.46 12.45 19.33L19.84 10.63C19.84 10.63 19.89 10.56 19.91 10.52C19.91 10.5 19.93 10.49 19.94 10.47C19.97 10.4 19.98 10.33 19.98 10.26V10.25ZM8.43 10.83L10.39 16.12L5.9 10.83H8.43ZM12.42 6.2L14.21 9.63H9.78L11.57 6.2H12.43H12.42ZM14.27 10.83L11.99 16.99L9.71 10.83H14.27ZM15.55 10.83H18.08L13.59 16.12L15.55 10.83ZM18.29 9.63H15.56L13.77 6.2H16.09L18.28 9.63H18.29ZM7.89 6.2H10.22L8.43 9.63H5.69L7.89 6.2Z" fill="#333333"/>
</svg>
