<svg width="24" height="24" viewBox="0 0 24 24" fill="none" xmlns="http://www.w3.org/2000/svg">
<path fill-rule="evenodd" clip-rule="evenodd" d="M18.2617 6.30879C18.2617 5.97742 17.9931 5.70879 17.6617 5.70879L12.8666 5.70879C12.5352 5.70879 12.2666 5.44016 12.2666 5.10879C12.2666 4.77742 12.5352 4.50879 12.8666 4.50879L17.6617 4.50879C18.6558 4.50879 19.4617 5.31468 19.4617 6.30879V11.1996C19.4617 11.531 19.1931 11.7996 18.8617 11.7996C18.5303 11.7996 18.2617 11.531 18.2617 11.1996V6.30879Z" fill="#909090"/>
<path fill-rule="evenodd" clip-rule="evenodd" d="M5.72588 17.6793C5.72588 18.0107 5.99451 18.2793 6.32588 18.2793H11.121C11.4524 18.2793 11.721 18.5479 11.721 18.8793C11.721 19.2107 11.4524 19.4793 11.121 19.4793L6.32588 19.4793C5.33177 19.4793 4.52588 18.6734 4.52588 17.6793L4.52588 12.7885C4.52588 12.4571 4.79451 12.1885 5.12588 12.1885C5.45725 12.1885 5.72588 12.4571 5.72588 12.7885L5.72588 17.6793Z" fill="#909090"/>
<path fill-rule="evenodd" clip-rule="evenodd" d="M18.2391 5.75777C18.4734 5.99208 18.4734 6.37198 18.2391 6.6063L13.5975 11.2479C13.3631 11.4823 12.9833 11.4823 12.7489 11.2479C12.5146 11.0136 12.5146 10.6337 12.7489 10.3994L17.3906 5.75777C17.6249 5.52345 18.0048 5.52345 18.2391 5.75777Z" fill="#909090"/>
<path fill-rule="evenodd" clip-rule="evenodd" d="M5.74849 18.2303C5.51418 17.996 5.51418 17.6161 5.74849 17.3818L10.3901 12.7401C10.6244 12.5058 11.0043 12.5058 11.2387 12.7401C11.473 12.9745 11.473 13.3544 11.2387 13.5887L6.59702 18.2303C6.3627 18.4646 5.9828 18.4646 5.74849 18.2303Z" fill="#909090"/>
</svg>
