<svg width="24" height="24" viewBox="0 0 24 24" fill="none" xmlns="http://www.w3.org/2000/svg">
<path d="M8.5614 3.90137C8.1122 3.90137 7.74805 4.26552 7.74805 4.71472V5.15039H6.7C5.20883 5.15039 4 6.35922 4 7.85039V16.5504C4 18.0416 5.20883 19.2504 6.7 19.2504H9.99999C10.3314 19.2504 10.6 18.9818 10.6 18.6504C10.6 18.319 10.3314 18.0504 9.99999 18.0504H6.7C5.87157 18.0504 5.2 17.3788 5.2 16.5504V7.85039C5.2 7.02196 5.87157 6.35039 6.7 6.35039H7.74805V7.25003C7.74805 7.69923 8.1122 8.06338 8.5614 8.06338C9.0106 8.06338 9.37476 7.69923 9.37476 7.25003V6.35039H14.6367V7.25003C14.6367 7.69923 15.0009 8.06338 15.4501 8.06338C15.8993 8.06338 16.2634 7.69923 16.2634 7.25003V6.35039H17.3C18.1284 6.35039 18.8 7.02196 18.8 7.85039V9.00039C18.8 9.33176 19.0686 9.60039 19.4 9.60039C19.7314 9.60039 20 9.33176 20 9.00039V7.85039C20 6.35922 18.7912 5.15039 17.3 5.15039H16.2634V4.71472C16.2634 4.26552 15.8993 3.90137 15.4501 3.90137C15.0009 3.90137 14.6367 4.26552 14.6367 4.71472V5.15039H9.37476V4.71472C9.37476 4.26552 9.0106 3.90137 8.5614 3.90137Z" fill="#909090"/>
<path fill-rule="evenodd" clip-rule="evenodd" d="M7.97383 9.64941C7.532 9.64941 7.17383 10.0076 7.17383 10.4494V11.2955C7.17383 11.7374 7.532 12.0955 7.97383 12.0955H8.78193C9.22376 12.0955 9.58193 11.7374 9.58193 11.2955V10.4494C9.58193 10.0076 9.22376 9.64941 8.78193 9.64941H7.97383ZM8.37383 10.8955V10.8494H8.38193V10.8955H8.37383Z" fill="#909090"/>
<path fill-rule="evenodd" clip-rule="evenodd" d="M11.2593 15.4027C11.2593 12.8622 13.3188 10.8027 15.8593 10.8027C18.3998 10.8027 20.4593 12.8622 20.4593 15.4027C20.4593 17.9432 18.3998 20.0027 15.8593 20.0027C13.3188 20.0027 11.2593 17.9432 11.2593 15.4027ZM15.8593 12.0027C13.9815 12.0027 12.4593 13.525 12.4593 15.4027C12.4593 16.1505 12.7007 16.8419 13.1098 17.4033L17.8598 12.6533C17.2985 12.2441 16.6071 12.0027 15.8593 12.0027ZM18.6906 13.5196L13.9761 18.234C14.5152 18.5933 15.1628 18.8027 15.8593 18.8027C17.737 18.8027 19.2593 17.2805 19.2593 15.4027C19.2593 14.7063 19.0499 14.0587 18.6906 13.5196Z" fill="#909090"/>
</svg>
