<svg width="24" height="24" viewBox="0 0 24 24" fill="none" xmlns="http://www.w3.org/2000/svg">
<path fill-rule="evenodd" clip-rule="evenodd" d="M12 5.30374L13.9248 9.39729C14.0241 9.60844 14.222 9.75624 14.4527 9.79142L18.8129 10.4564L15.6359 13.7068C15.4804 13.8659 15.4098 14.0894 15.4457 14.309L16.1897 18.8619L12.3381 16.7366C12.1276 16.6205 11.8723 16.6205 11.6618 16.7366L7.81026 18.8619L8.55424 14.309C8.59012 14.0895 8.5195 13.8659 8.364 13.7068L5.18698 10.4564L9.5472 9.79142C9.77787 9.75624 9.97584 9.60844 10.0751 9.39729L12 5.30374ZM11.2164 4.15012C11.5309 3.48121 12.469 3.48121 12.7835 4.15012L14.8973 8.64534L19.6118 9.36438C20.3538 9.47754 20.5722 10.3733 20.0991 10.8573L16.6707 14.3649L17.4812 19.3246C17.5884 19.981 16.9042 20.6268 16.2098 20.2436L12 17.9206L7.79009 20.2436C7.09572 20.6268 6.41146 19.981 6.51873 19.3246L7.3292 14.3649L3.9008 10.8573C3.4277 10.3733 3.64616 9.47754 4.38813 9.36438L9.10266 8.64534L11.2164 4.15012Z" fill="#333333"/>
</svg>
