<svg width="24" height="24" viewBox="0 0 24 24" fill="none" xmlns="http://www.w3.org/2000/svg">
<path fill-rule="evenodd" clip-rule="evenodd" d="M7.62686 17.1727V19.7279C7.62686 19.7874 7.64233 19.8176 7.65563 19.8365C7.67277 19.8608 7.70262 19.8871 7.74496 19.9046C7.7873 19.9222 7.82696 19.9247 7.85627 19.9196C7.87903 19.9157 7.91138 19.9052 7.95345 19.8631L10.7991 17.0175H17.0001C17.9942 17.0175 18.8001 16.2116 18.8001 15.2175V8C18.8001 7.00589 17.9942 6.2 17.0001 6.2H7C6.00589 6.2 5.2 7.00589 5.2 8V15.2175C5.2 16.0926 5.82578 16.8243 6.65478 16.9846L7.62686 17.1727ZM4 8C4 6.34315 5.34315 5 7 5H17.0001C18.6569 5 20.0001 6.34315 20.0001 8V15.2175C20.0001 16.8743 18.6569 18.2175 17.0001 18.2175H11.2962L8.80198 20.7117C7.9255 21.5881 6.42686 20.9674 6.42686 19.7279V18.1628C5.04416 17.8953 4 16.6783 4 15.2175V8Z" fill="#333333"/>
<path fill-rule="evenodd" clip-rule="evenodd" d="M12 9.24987L11.4411 10.4384C11.3418 10.6496 11.1439 10.7974 10.9132 10.8326L9.60736 11.0317L10.5742 12.0209C10.7297 12.18 10.8003 12.4035 10.7645 12.6231L10.5422 13.9831L11.6618 13.3653C11.8723 13.2491 12.1277 13.2491 12.3382 13.3653L13.4578 13.9831L13.2355 12.6231C13.1997 12.4035 13.2703 12.18 13.4258 12.0209L14.3926 11.0317L13.0868 10.8326C12.8561 10.7974 12.6582 10.6496 12.5589 10.4384L12 9.24987ZM11.3484 7.81558C11.6089 7.26148 12.3911 7.26147 12.6516 7.81558L13.5313 9.68648L15.4866 9.98469C16.1078 10.0794 16.2781 10.8195 15.8924 11.2141L14.4606 12.679L14.7997 14.7543C14.8864 15.2845 14.3283 15.834 13.7419 15.5104L12 14.5493L10.2581 15.5104C9.6717 15.834 9.11364 15.2845 9.20028 14.7543L9.53941 12.679L8.10764 11.2141C7.72189 10.8195 7.89215 10.0794 8.51341 9.98469L10.4687 9.68648L11.3484 7.81558Z" fill="#333333"/>
</svg>
