<svg width="24" height="24" viewBox="0 0 24 24" fill="none" xmlns="http://www.w3.org/2000/svg">
<path fill-rule="evenodd" clip-rule="evenodd" d="M9.54984 13.6703L11.0946 15.215L14.6698 11.2003C14.8898 10.9503 15.2698 10.9303 15.5198 11.1503C15.7698 11.3703 15.7898 11.7503 15.5698 12.0003L11.8498 16.1803C11.4698 16.6103 10.8098 16.6303 10.3998 16.2203L8.69984 14.5203C8.46984 14.2803 8.46984 13.9003 8.69984 13.6703C8.93984 13.4403 9.31984 13.4403 9.54984 13.6703ZM11.0946 15.215L11.0998 15.2203H11.0898L11.0946 15.215Z" fill="#333333"/>
<path fill-rule="evenodd" clip-rule="evenodd" d="M17.73 7.14C17.97 7.39 18.17 7.69 18.3 8.01C18.43 8.33 18.5 8.68 18.5 9.03V17.34C18.5 18.05 18.22 18.73 17.73 19.23C17.24 19.73 16.57 20.01 15.87 20.01H8.13C7.43 20.01 6.76 19.73 6.27 19.23C5.78 18.73 5.5 18.05 5.5 17.34V6.67C5.5 5.96 5.78 5.28 6.27 4.78C6.76 4.28 7.43 4 8.13 4H13.54C13.88 4 14.23 4.07 14.55 4.2C14.87 4.33 15.16 4.53 15.41 4.78L17.73 7.14ZM13.99 5.29C13.99 5.29 13.9938 5.29 14 5.29032L13.99 5.29ZM14.08 5.31C14.0576 5.29504 14.0183 5.29127 14 5.29032V7.73C14 7.93 14.08 8.13 14.23 8.28C14.38 8.43 14.58 8.51 14.79 8.51H17.2C17.19 8.49 17.19 8.48 17.19 8.47C17.12 8.29 17.01 8.13 16.88 7.99L14.55 5.63C14.41 5.49 14.25 5.38 14.08 5.31ZM16.88 18.37C17.15 18.1 17.3 17.72 17.3 17.33L17.29 17.34V9.7H14.78C14.25 9.7 13.74 9.49 13.37 9.12C13 8.75 12.79 8.25 12.79 7.72V5.21H8.13C7.75 5.21 7.39 5.36 7.12 5.63C6.85 5.9 6.7 6.28 6.7 6.67V17.33C6.7 17.72 6.85 18.1 7.12 18.37C7.39 18.64 7.76 18.79 8.13 18.79H15.87C16.25 18.79 16.61 18.64 16.88 18.37Z" fill="#333333"/>
</svg>
