<svg width="24" height="24" viewBox="0 0 24 24" fill="none" xmlns="http://www.w3.org/2000/svg">
<path fill-rule="evenodd" clip-rule="evenodd" d="M17.3 9.0282C17.3005 8.83266 17.2628 8.63929 17.1894 8.45934C17.1161 8.27954 17.0088 8.11715 16.8745 7.98116L14.5494 5.62512C14.4152 5.48899 14.2563 5.38151 14.083 5.30897C13.9097 5.23643 13.7246 5.19954 13.5381 5.2L13.5351 5.20001L8.13158 5.20001C7.75707 5.20001 7.39463 5.35062 7.12491 5.62394C6.85465 5.8978 6.7 6.2726 6.7 6.66667V17.3334C6.7 17.7274 6.85464 18.1022 7.12487 18.376C7.39464 18.6494 7.75711 18.8 8.13158 18.8H15.8684C16.2429 18.8 16.6054 18.6494 16.8751 18.3761C17.1453 18.1023 17.3 17.7274 17.3 17.3334V9.0282ZM18.3006 8.00634C18.4331 8.33128 18.5008 8.67954 18.5 9.03112V17.3334C18.5 18.0406 18.2228 18.7189 17.7292 19.2189C17.2357 19.719 16.5663 20 15.8684 20H8.13158C7.43364 20 6.76429 19.719 6.27078 19.2189C5.77726 18.7189 5.5 18.0406 5.5 17.3334V6.66667C5.5 5.95943 5.77726 5.28115 6.27078 4.78106C6.76429 4.28096 7.43364 4.00001 8.13158 4.00001H13.5351C13.882 3.99914 14.2257 4.06781 14.5464 4.20206C14.867 4.3363 15.1583 4.53347 15.4035 4.78223L17.7281 7.13778C17.9736 7.38623 18.1682 7.68141 18.3006 8.00634Z" fill="#333333"/>
<path fill-rule="evenodd" clip-rule="evenodd" d="M15.5509 10.3018C15.7975 10.5233 15.8178 10.9026 15.5964 11.1491L12.1946 14.9367C12.0834 15.0616 11.9473 15.1653 11.7918 15.2375C11.6363 15.3097 11.4666 15.3482 11.2929 15.3482C11.1192 15.3482 10.9495 15.3097 10.794 15.2375C10.6385 15.1653 10.5024 15.0616 10.3912 14.9367L8.86319 13.2354C8.64176 12.9889 8.66211 12.6096 8.90865 12.3881C9.15518 12.1667 9.53453 12.1871 9.75595 12.4336L11.2874 14.1387C11.2894 14.141 11.2913 14.1428 11.2929 14.1443C11.2945 14.1428 11.2964 14.141 11.2984 14.1387L11.3008 14.136L14.7036 10.3473C14.9251 10.1008 15.3044 10.0804 15.5509 10.3018Z" fill="#333333"/>
</svg>
