<svg width="24" height="24" viewBox="0 0 24 24" fill="none" xmlns="http://www.w3.org/2000/svg">
<path d="M14.4999 11.3799H9.4999C9.1699 11.3799 8.8999 11.6499 8.8999 11.9799C8.8999 12.3099 9.1699 12.5799 9.4999 12.5799H14.4999C14.8299 12.5799 15.0999 12.3099 15.0999 11.9799C15.0999 11.6499 14.8299 11.3799 14.4999 11.3799Z" fill="#333333"/>
<path d="M9.4999 14.3799H13.2199C13.5499 14.3799 13.8199 14.6499 13.8199 14.9799C13.8199 15.3099 13.5499 15.5799 13.2199 15.5799H9.4999C9.1699 15.5799 8.8999 15.3099 8.8999 14.9799C8.8999 14.6499 9.1699 14.3799 9.4999 14.3799Z" fill="#333333"/>
<path fill-rule="evenodd" clip-rule="evenodd" d="M18.3 8.01C18.17 7.68 17.97 7.39 17.73 7.14L15.41 4.78C15.16 4.53 14.87 4.34 14.55 4.2C14.23 4.07 13.88 4 13.54 4H8.13C7.43 4 6.77 4.28 6.27 4.78C5.77 5.28 5.5 5.95 5.5 6.67V17.34C5.5 18.05 5.77 18.72 6.27 19.23C6.77 19.73 7.43 20.01 8.13 20.01H15.87C16.56 20.01 17.24 19.73 17.73 19.23C18.23 18.73 18.5 18.06 18.5 17.34V9.03C18.5 8.68 18.43 8.33 18.3 8.01ZM14.55 5.63L16.87 7.98C17.01 8.12 17.11 8.28 17.19 8.46C17.19 8.47 17.19 8.48 17.2 8.5H14.79C14.58 8.5 14.38 8.42 14.23 8.27C14.08 8.12 14 7.92 14 7.72V5.29C14 5.29 14.06 5.29 14.09 5.31C14.26 5.38 14.42 5.49 14.56 5.63H14.55ZM16.87 18.38C16.61 18.65 16.24 18.8 15.86 18.8H8.13C7.75 18.8 7.39 18.65 7.12 18.38C6.85 18.11 6.7 17.73 6.7 17.34V6.67C6.7 6.28 6.85 5.9 7.12 5.63C7.39 5.36 7.75 5.21 8.13 5.21H12.79V7.72C12.79 8.24 13 8.76 13.37 9.12C13.74 9.49 14.25 9.7 14.78 9.7H17.29V17.34C17.29 17.73 17.13 18.11 16.86 18.38H16.87Z" fill="#333333"/>
</svg>
