<svg width="24" height="24" viewBox="0 0 24 24" fill="none" xmlns="http://www.w3.org/2000/svg">
<path d="M5.03369 7.5998C5.03369 7.29605 5.27993 7.0498 5.58369 7.0498H18.417C18.7208 7.0498 18.967 7.29605 18.967 7.5998C18.967 7.90356 18.7208 8.1498 18.417 8.1498H5.58369C5.27993 8.1498 5.03369 7.90356 5.03369 7.5998Z" fill="#333333"/>
<path d="M7.3252 12.0002C7.3252 11.6964 7.57144 11.4502 7.8752 11.4502H16.1252C16.429 11.4502 16.6752 11.6964 16.6752 12.0002C16.6752 12.304 16.429 12.5502 16.1252 12.5502H7.8752C7.57144 12.5502 7.3252 12.304 7.3252 12.0002Z" fill="#333333"/>
<path d="M9.70869 16.0332C9.40493 16.0332 9.15869 16.2794 9.15869 16.5832C9.15869 16.887 9.40493 17.1332 9.70869 17.1332H14.292C14.5958 17.1332 14.842 16.887 14.842 16.5832C14.842 16.2794 14.5958 16.0332 14.292 16.0332H9.70869Z" fill="#333333"/>
</svg>
