<svg width="24" height="24" viewBox="0 0 24 24" fill="none" xmlns="http://www.w3.org/2000/svg">
<path d="M3.81641 6.8002C3.81641 6.46882 4.08504 6.2002 4.41641 6.2002H19.5831C19.9144 6.2002 20.1831 6.46882 20.1831 6.8002C20.1831 7.13157 19.9144 7.4002 19.5831 7.4002H4.41641C4.08504 7.4002 3.81641 7.13157 3.81641 6.8002Z" fill="#333333"/>
<path d="M6.5249 12.0004C6.5249 11.669 6.79353 11.4004 7.1249 11.4004H16.8749C17.2063 11.4004 17.4749 11.669 17.4749 12.0004C17.4749 12.3318 17.2063 12.6004 16.8749 12.6004H7.1249C6.79353 12.6004 6.5249 12.3318 6.5249 12.0004Z" fill="#333333"/>
<path d="M9.29141 16.8174C8.96004 16.8174 8.69141 17.086 8.69141 17.4174C8.69141 17.7488 8.96004 18.0174 9.29141 18.0174H14.7081C15.0394 18.0174 15.3081 17.7488 15.3081 17.4174C15.3081 17.086 15.0394 16.8174 14.7081 16.8174H9.29141Z" fill="#333333"/>
</svg>
