<svg width="24" height="24" viewBox="0 0 24 24" fill="none" xmlns="http://www.w3.org/2000/svg">
<path d="M7.46631 9.2C7.46631 8.95147 7.66778 8.75 7.91631 8.75H16.083C16.3315 8.75 16.533 8.95147 16.533 9.2C16.533 9.44853 16.3315 9.65 16.083 9.65H7.91631C7.66778 9.65 7.46631 9.44853 7.46631 9.2Z" fill="#333333"/>
<path d="M8.9248 11.9998C8.9248 11.7513 9.12628 11.5498 9.3748 11.5498H14.6248C14.8733 11.5498 15.0748 11.7513 15.0748 11.9998C15.0748 12.2483 14.8733 12.4498 14.6248 12.4498H9.3748C9.12628 12.4498 8.9248 12.2483 8.9248 11.9998Z" fill="#333333"/>
<path d="M10.5413 14.4668C10.2928 14.4668 10.0913 14.6683 10.0913 14.9168C10.0913 15.1653 10.2928 15.3668 10.5413 15.3668H13.458C13.7065 15.3668 13.908 15.1653 13.908 14.9168C13.908 14.6683 13.7065 14.4668 13.458 14.4668H10.5413Z" fill="#333333"/>
</svg>
