<svg width="24" height="24" viewBox="0 0 24 24" fill="none" xmlns="http://www.w3.org/2000/svg">
<path fill-rule="evenodd" clip-rule="evenodd" d="M12.9999 7.9002H5.9999C5.6699 7.9002 5.3999 7.6302 5.3999 7.3002C5.3999 6.9702 5.6699 6.7002 5.9999 6.7002H12.9999C13.2599 5.8302 14.0499 5.2002 14.9999 5.2002C15.9499 5.2002 16.7399 5.8302 16.9999 6.7002H17.9999C18.3299 6.7002 18.5999 6.9702 18.5999 7.3002C18.5999 7.6302 18.3299 7.9002 17.9999 7.9002H16.9999C16.7399 8.7702 15.9499 9.4002 14.9999 9.4002C14.0499 9.4002 13.2599 8.7702 12.9999 7.9002ZM15.8999 7.3002C15.8999 6.8002 15.4999 6.4002 14.9999 6.4002C14.4999 6.4002 14.0999 6.8002 14.0999 7.3002C14.0999 7.8002 14.4999 8.2002 14.9999 8.2002C15.4999 8.2002 15.8999 7.8002 15.8999 7.3002Z" fill="#333333"/>
<path fill-rule="evenodd" clip-rule="evenodd" d="M17.9999 11.4004H10.9999C10.7399 10.5304 9.9499 9.90039 8.9999 9.90039C8.0499 9.90039 7.2599 10.5304 6.9999 11.4004H5.9999C5.6699 11.4004 5.3999 11.6704 5.3999 12.0004C5.3999 12.3304 5.6699 12.6004 5.9999 12.6004H6.9999C7.2599 13.4704 8.0499 14.1004 8.9999 14.1004C9.9499 14.1004 10.7399 13.4704 10.9999 12.6004H17.9999C18.3299 12.6004 18.5999 12.3304 18.5999 12.0004C18.5999 11.6704 18.3299 11.4004 17.9999 11.4004ZM8.9999 12.9004C8.4999 12.9004 8.0999 12.5004 8.0999 12.0004C8.0999 11.5004 8.4999 11.1004 8.9999 11.1004C9.4999 11.1004 9.8999 11.5004 9.8999 12.0004C9.8999 12.5004 9.4999 12.9004 8.9999 12.9004Z" fill="#333333"/>
<path fill-rule="evenodd" clip-rule="evenodd" d="M17.9999 16.0898H16.9999C16.7399 15.2198 15.9499 14.5898 14.9999 14.5898C14.0499 14.5898 13.2599 15.2198 12.9999 16.0898H5.9999C5.6699 16.0898 5.3999 16.3598 5.3999 16.6898C5.3999 17.0198 5.6699 17.2898 5.9999 17.2898H12.9999C13.2599 18.1598 14.0499 18.7898 14.9999 18.7898C15.9499 18.7898 16.7399 18.1598 16.9999 17.2898H17.9999C18.3299 17.2898 18.5999 17.0198 18.5999 16.6898C18.5999 16.3598 18.3299 16.0898 17.9999 16.0898ZM14.9999 17.5898C14.4999 17.5898 14.0999 17.1898 14.0999 16.6898C14.0999 16.1898 14.4999 15.7898 14.9999 15.7898C15.4999 15.7898 15.8999 16.1898 15.8999 16.6898C15.8999 17.1898 15.4999 17.5898 14.9999 17.5898Z" fill="#333333"/>
</svg>
