<svg width="24" height="24" viewBox="0 0 24 24" fill="none" xmlns="http://www.w3.org/2000/svg">
<path d="M6.25 8.40039C6.25 8.12425 6.47386 7.90039 6.75 7.90039H17.25C17.5261 7.90039 17.75 8.12425 17.75 8.40039C17.75 8.67653 17.5261 8.90039 17.25 8.90039H6.75C6.47386 8.90039 6.25 8.67653 6.25 8.40039Z" fill="#333333"/>
<path d="M8.125 12C8.125 11.7239 8.34886 11.5 8.625 11.5H15.375C15.6511 11.5 15.875 11.7239 15.875 12C15.875 12.2761 15.6511 12.5 15.375 12.5H8.625C8.34886 12.5 8.125 12.2761 8.125 12Z" fill="#333333"/>
<path d="M10.125 15.25C9.84886 15.25 9.625 15.4739 9.625 15.75C9.625 16.0261 9.84886 16.25 10.125 16.25H13.875C14.1511 16.25 14.375 16.0261 14.375 15.75C14.375 15.4739 14.1511 15.25 13.875 15.25H10.125Z" fill="#333333"/>
</svg>
