<svg width="24" height="24" viewBox="0 0 24 24" fill="none" xmlns="http://www.w3.org/2000/svg">
<path d="M5.28435 10.1012C5.75849 7.31847 8.18257 5.2 11.1002 5.2C14.3587 5.2 17.0002 7.84152 17.0002 11.1C17.0002 13.2265 15.8756 15.0908 14.1859 16.1299C13.9036 16.3035 13.8155 16.673 13.989 16.9553C14.1626 17.2375 14.5322 17.3257 14.8144 17.1521C15.2193 16.9031 15.5974 16.6146 15.9433 16.2918L19.0756 19.4242C19.3099 19.6585 19.6898 19.6585 19.9242 19.4242C20.1585 19.1898 20.1585 18.8099 19.9242 18.5756L16.7496 15.4011C17.6595 14.2077 18.2002 12.7171 18.2002 11.1C18.2002 7.17878 15.0215 4 11.1002 4C7.58781 4 4.67214 6.54996 4.10139 9.89961C4.04573 10.2263 4.26543 10.5362 4.59209 10.5919C4.91875 10.6475 5.22869 10.4278 5.28435 10.1012Z" fill="#333333"/>
<path fill-rule="evenodd" clip-rule="evenodd" d="M4.9999 12.4004H7.99937C8.24857 11.6732 8.93819 11.1504 9.7499 11.1504C10.5616 11.1504 11.2512 11.6732 11.5004 12.4004H11.9999C12.3313 12.4004 12.5999 12.669 12.5999 13.0004C12.5999 13.3318 12.3313 13.6004 11.9999 13.6004H11.5004C11.2512 14.3276 10.5616 14.8504 9.7499 14.8504C8.93819 14.8504 8.24857 14.3276 7.99937 13.6004H4.9999C4.66853 13.6004 4.3999 13.3318 4.3999 13.0004C4.3999 12.669 4.66853 12.4004 4.9999 12.4004ZM9.7499 12.3504C10.1089 12.3504 10.3999 12.6414 10.3999 13.0004C10.3999 13.3594 10.1089 13.6504 9.7499 13.6504C9.39092 13.6504 9.0999 13.3594 9.0999 13.0004C9.0999 12.6414 9.39092 12.3504 9.7499 12.3504Z" fill="#333333"/>
<path fill-rule="evenodd" clip-rule="evenodd" d="M4.3999 17.0004C4.3999 16.669 4.66853 16.4004 4.9999 16.4004H5.49937C5.74857 15.6732 6.43819 15.1504 7.2499 15.1504C8.06162 15.1504 8.75123 15.6732 9.00043 16.4004H11.9999C12.3313 16.4004 12.5999 16.669 12.5999 17.0004C12.5999 17.3318 12.3313 17.6004 11.9999 17.6004H9.00043C8.75124 18.3276 8.06162 18.8504 7.2499 18.8504C6.43819 18.8504 5.74857 18.3276 5.49937 17.6004H4.9999C4.66853 17.6004 4.3999 17.3318 4.3999 17.0004ZM7.8999 17.0004C7.8999 16.6414 7.60889 16.3504 7.2499 16.3504C6.89092 16.3504 6.5999 16.6414 6.5999 17.0004C6.5999 17.3594 6.89092 17.6504 7.2499 17.6504C7.60889 17.6504 7.8999 17.3594 7.8999 17.0004Z" fill="#333333"/>
</svg>
