<svg width="24" height="24" viewBox="0 0 24 24" fill="none" xmlns="http://www.w3.org/2000/svg">
<path d="M15.7399 8.82956C14.5499 7.50956 13.5199 6.35956 13.5699 4.83956C13.5699 4.54956 13.4299 4.26956 13.1899 4.11956C12.9499 3.96956 12.6499 3.95956 12.3999 4.08956C9.5399 5.58956 5.3999 9.92956 5.3999 13.8396C5.3999 16.6196 7.2399 19.0496 10.0999 20.0296C10.1299 20.0296 10.1499 20.0296 10.1799 20.0396C10.1999 20.0396 10.2299 20.0496 10.2499 20.0496C10.2599 20.0496 10.2799 20.0496 10.2899 20.0496C10.3299 20.0496 10.3799 20.0396 10.4199 20.0296C10.4299 20.0296 10.4499 20.0296 10.4599 20.0296C10.5299 20.0096 10.5899 19.9796 10.6499 19.9296C10.6499 19.9296 10.6499 19.9296 10.6599 19.9296C10.6699 19.9296 10.6799 19.9096 10.6899 19.8996C10.7299 19.8596 10.7599 19.8196 10.7899 19.7796C10.7999 19.7596 10.8199 19.7396 10.8299 19.7096C10.8299 19.6896 10.8499 19.6796 10.8599 19.6596C10.8599 19.6396 10.8599 19.6196 10.8599 19.5996C10.8599 19.5596 10.8799 19.5196 10.8799 19.4796C10.8799 19.4396 10.8799 19.4096 10.8799 19.3696C10.8799 19.3296 10.8599 19.2996 10.8499 19.2596C10.8399 19.2196 10.8199 19.1896 10.7899 19.1496C10.7799 19.1296 10.7799 19.1096 10.7599 19.0896C9.9799 18.0996 9.5999 17.2396 9.5999 16.4596C9.5999 14.6796 10.7599 13.4596 12.0399 12.5196C12.2999 13.4896 12.8699 14.2296 13.3799 14.8996C13.9299 15.6096 14.3999 16.2196 14.3999 16.9596C14.3999 18.1396 13.3499 18.9796 13.3399 18.9896C13.3399 18.9896 13.3399 18.9996 13.3199 19.0096C13.2899 19.0396 13.2599 19.0696 13.2399 19.0996C13.2199 19.1296 13.1899 19.1596 13.1699 19.1896C13.1499 19.2196 13.1499 19.2596 13.1399 19.2896C13.1299 19.3296 13.1099 19.3696 13.1099 19.4096C13.1099 19.4396 13.1099 19.4696 13.1099 19.5096C13.1099 19.5596 13.1099 19.5996 13.1299 19.6496C13.1299 19.6496 13.1299 19.6596 13.1299 19.6696C13.1299 19.6996 13.1599 19.7196 13.1699 19.7396C13.1899 19.7696 13.1899 19.8096 13.2199 19.8396C13.2199 19.8396 13.2299 19.8396 13.2399 19.8596C13.2899 19.9196 13.3499 19.9696 13.4199 20.0096C13.4299 20.0096 13.4399 20.0196 13.4599 20.0296C13.5299 20.0596 13.5999 20.0796 13.6799 20.0796C13.6799 20.0796 13.6899 20.0796 13.6999 20.0796C13.7699 20.0796 13.8299 20.0696 13.8899 20.0496C14.0799 19.9796 18.5799 18.3696 18.5799 14.5596C18.5799 12.0296 17.0599 10.3396 15.7199 8.84956L15.7399 8.82956ZM15.4699 17.8196C15.5399 17.5496 15.5999 17.2696 15.5999 16.9696C15.5999 15.8196 14.9499 14.9796 14.3299 14.1796C13.7599 13.4396 13.2199 12.7396 13.1199 11.7896C13.0899 11.4996 12.9099 11.2496 12.6499 11.1296C12.3899 11.0096 12.0899 11.0296 11.8599 11.1896C10.2499 12.2896 8.4099 13.8896 8.4099 16.4796C8.4099 16.9596 8.5199 17.4596 8.7199 17.9696C7.3999 16.9696 6.6199 15.5096 6.6199 13.8596C6.5999 10.7996 9.8599 7.07956 12.3999 5.47956C12.5999 7.14956 13.7399 8.40956 14.8499 9.63956C16.1599 11.0996 17.3999 12.4796 17.3999 14.5496C17.3999 16.0196 16.4399 17.1096 15.4699 17.8296V17.8196Z" fill="#333333"/>
</svg>
