<svg width="24" height="24" viewBox="0 0 24 24" fill="none" xmlns="http://www.w3.org/2000/svg">
<path d="M9.00007 4.40039C7.83041 4.40039 7.10158 4.53542 6.59796 4.70844C6.21637 4.83955 5.3972 5.15523 5.39991 5.64647L5.3999 5.6498V19.5005C5.3999 19.8319 5.66853 20.1005 5.9999 20.1005C6.33127 20.1005 6.5999 19.8319 6.5999 19.5005L6.5999 13.6828C6.68562 13.635 6.7914 13.5874 6.94341 13.5391C7.29827 13.4264 7.91147 13.3147 9.00007 13.3147C10.0118 13.3147 10.8603 13.601 11.8056 13.9252L11.8093 13.9264C12.1228 14.0338 12.464 13.8667 12.5714 13.5532C12.6787 13.2398 12.5117 12.8986 12.1982 12.7912L12.1653 12.7799C11.2434 12.4638 10.2254 12.1147 9.00007 12.1147C7.85359 12.1147 7.11166 12.2296 6.5999 12.3892L6.5999 6.01438C6.70354 5.95885 6.82275 5.90006 6.98788 5.84333C7.33069 5.72555 7.91972 5.60039 9.00007 5.60039C10.0118 5.60039 10.8602 5.88671 11.8055 6.21082L11.8348 6.22088C12.7568 6.53702 13.7748 6.88611 15.0001 6.88611C16.0855 6.88611 16.8627 6.74371 17.4001 6.57733V11.0479C17.4001 11.3793 17.6687 11.6479 18.0001 11.6479C18.3314 11.6479 18.6001 11.3793 18.6001 11.0479V5.64325C18.6001 5.40893 18.4637 5.19605 18.2508 5.09814C18.0425 5.00234 17.7983 5.03375 17.6212 5.17797L17.6174 5.18069C17.6081 5.18729 17.5861 5.20213 17.55 5.22275C17.478 5.26389 17.3486 5.32877 17.1492 5.39711C16.7509 5.53366 16.0677 5.6861 15.0001 5.6861C13.9884 5.6861 13.14 5.39979 12.1947 5.07568L12.1653 5.06562C11.2434 4.74948 10.2254 4.40039 9.00007 4.40039Z" fill="#909090"/>
<path d="M14.5644 13.1582C14.7987 12.9238 15.1786 12.9238 15.4129 13.1582L16.9887 14.7339L18.5644 13.1582C18.7987 12.9238 19.1786 12.9238 19.4129 13.1582C19.6473 13.3925 19.6473 13.7724 19.4129 14.0067L17.8372 15.5824L19.4129 17.1582C19.6473 17.3925 19.6473 17.7724 19.4129 18.0067C19.1786 18.241 18.7987 18.241 18.5644 18.0067L16.9887 16.431L15.4129 18.0067C15.1786 18.241 14.7987 18.241 14.5644 18.0067C14.3301 17.7724 14.3301 17.3925 14.5644 17.1582L16.1401 15.5824L14.5644 14.0067C14.3301 13.7724 14.3301 13.3925 14.5644 13.1582Z" fill="#909090"/>
</svg>
