<svg width="24" height="24" viewBox="0 0 24 24" fill="none" xmlns="http://www.w3.org/2000/svg">
<path d="M16.6502 10.5703C16.3202 10.5703 16.0502 10.8403 16.0502 11.1703V12.8203H14.9402V11.1703C14.9402 10.8403 14.6702 10.5703 14.3402 10.5703C14.0102 10.5703 13.7402 10.8403 13.7402 11.1703V13.4203C13.7402 13.7503 14.0102 14.0203 14.3402 14.0203H16.0502V15.6703C16.0502 16.0003 16.3202 16.2703 16.6502 16.2703C16.9802 16.2703 17.2502 16.0003 17.2502 15.6703V11.1703C17.2502 10.8403 16.9802 10.5703 16.6502 10.5703Z" fill="#333333"/>
<path d="M11.4401 14.1507C11.4001 14.1807 11.3201 14.2207 11.3201 14.2207L11.3501 14.2107C11.0501 14.3907 10.8301 14.5407 10.6801 14.7407C10.6101 14.8307 10.5601 14.9307 10.5101 15.0607H12.2501C12.5801 15.0607 12.8501 15.3307 12.8501 15.6607C12.8501 15.9907 12.5801 16.2607 12.2501 16.2607H9.82013C9.49013 16.2607 9.22013 15.9907 9.22013 15.6607C9.22013 14.9707 9.40013 14.4407 9.72013 14.0207C10.0301 13.6207 10.4201 13.3807 10.7301 13.1907C10.7551 13.1757 10.7776 13.1632 10.8001 13.1507C10.8226 13.1382 10.8451 13.1257 10.8701 13.1107L10.8804 13.1046C11.1444 12.9482 11.3119 12.8489 11.4501 12.7107C11.5701 12.5907 11.6501 12.4507 11.6501 12.1807C11.6501 12.0207 11.5201 11.8007 11.2101 11.7107C10.9401 11.6207 10.5701 11.6707 10.2601 12.0107C10.0301 12.2607 9.65013 12.2707 9.41013 12.0507C9.16013 11.8207 9.15013 11.4407 9.37013 11.2007C10.0101 10.5007 10.8601 10.3407 11.5601 10.5607C12.2301 10.7707 12.8401 11.3607 12.8401 12.1807C12.8401 12.7907 12.6101 13.2307 12.2801 13.5607C12.0387 13.7929 11.7368 13.9733 11.4948 14.118C11.4762 14.1291 11.458 14.14 11.4401 14.1507Z" fill="#333333"/>
<path fill-rule="evenodd" clip-rule="evenodd" d="M18 7.40027H13.89L12.96 6.11027C12.58 5.59027 11.98 5.28027 11.33 5.28027H6C4.9 5.28027 4 6.18027 4 7.28027V17.0003C4 18.1003 4.9 19.0003 6 19.0003H18C19.1 19.0003 20 18.1003 20 17.0003V9.40027C20 8.30027 19.1 7.40027 18 7.40027ZM18.8 17.0003C18.8 17.4403 18.44 17.8003 18 17.8003H6C5.56 17.8003 5.2 17.4403 5.2 17.0003V7.28027C5.2 6.84027 5.56 6.48027 6 6.48027H11.34C11.6 6.48027 11.84 6.60027 11.99 6.81027L12.92 8.10027C13.15 8.41027 13.51 8.60027 13.9 8.60027H18.01C18.45 8.60027 18.81 8.96027 18.81 9.40027V17.0003H18.8Z" fill="#333333"/>
</svg>
