<svg width="24" height="24" viewBox="0 0 24 24" fill="none" xmlns="http://www.w3.org/2000/svg">
<path fill-rule="evenodd" clip-rule="evenodd" d="M5.20005 9.34852C5.20029 9.36193 5.20031 9.37534 5.2001 9.38874L5.2 9.40176V17.0002C5.2 17.4421 5.55817 17.8002 6 17.8002H18.0001C18.4419 17.8002 18.8001 17.4421 18.8001 17.0002V9.40176C18.8001 8.95993 18.4419 8.60176 18.0001 8.60176H14.3082C13.9452 8.60176 13.6017 8.43741 13.3739 8.15475L12.0277 6.48434C11.8759 6.29589 11.6468 6.18633 11.4048 6.18633H6.00001C5.55818 6.18633 5.20001 6.5445 5.20001 6.98632L5.20001 9.34457L5.20005 9.34852ZM14.3082 7.40177L12.9621 5.73135C12.5824 5.26024 12.0099 4.98633 11.4048 4.98633H6.00001C4.89544 4.98633 4.00001 5.88176 4.00001 6.98633L4.00001 9.34457L4.00024 9.37016L4 9.40176V17.0002C4 18.1048 4.89543 19.0002 6 19.0002H18.0001C19.1047 19.0002 20.0001 18.1048 20.0001 17.0002V9.40176C20.0001 8.29719 19.1047 7.40177 18.0001 7.40177H14.3082Z" fill="#333333"/>
</svg>
