<svg width="24" height="24" viewBox="0 0 24 24" fill="none" xmlns="http://www.w3.org/2000/svg">
<path d="M14.9298 12.5404H16.7198C17.0498 12.5404 17.3198 12.8104 17.3198 13.1404C17.3198 13.4704 17.0498 13.7404 16.7198 13.7404H14.9298V15.5304C14.9298 15.8604 14.6598 16.1304 14.3298 16.1304C13.9998 16.1304 13.7298 15.8604 13.7298 15.5304V13.7404H11.9398C11.6098 13.7404 11.3398 13.4704 11.3398 13.1404C11.3398 12.8104 11.6098 12.5404 11.9398 12.5404H13.7298V10.7504C13.7298 10.4204 13.9998 10.1504 14.3298 10.1504C14.6598 10.1504 14.9298 10.4204 14.9298 10.7504V12.5404Z" fill="#333333"/>
<path fill-rule="evenodd" clip-rule="evenodd" d="M13.89 7.40027H18C19.1 7.40027 20 8.30027 20 9.40027V17.0003C20 18.1003 19.1 19.0003 18 19.0003H6C4.9 19.0003 4 18.1003 4 17.0003V7.28027C4 6.18027 4.9 5.28027 6 5.28027H11.33C11.98 5.28027 12.58 5.59027 12.96 6.11027L13.89 7.40027ZM18 17.8003C18.44 17.8003 18.8 17.4403 18.8 17.0003H18.81V9.40027C18.81 8.96027 18.45 8.60027 18.01 8.60027H13.9C13.51 8.60027 13.15 8.41027 12.92 8.10027L11.99 6.81027C11.84 6.60027 11.6 6.48027 11.34 6.48027H6C5.56 6.48027 5.2 6.84027 5.2 7.28027V17.0003C5.2 17.4403 5.56 17.8003 6 17.8003H18Z" fill="#333333"/>
</svg>
