<svg width="24" height="24" viewBox="0 0 24 24" fill="none" xmlns="http://www.w3.org/2000/svg">
<path fill-rule="evenodd" clip-rule="evenodd" d="M13.886 8.60123C13.4993 8.60123 13.1363 8.4149 12.9109 8.10071L11.985 6.81005C11.8348 6.60059 11.5928 6.47637 11.335 6.47637H6C5.55817 6.47637 5.2 6.83454 5.2 7.27637L5.20001 9.3993L5.2 9.40123V16.9997C5.2 17.4416 5.55817 17.7997 6 17.7997H18.0001C18.4419 17.7997 18.8001 17.4416 18.8001 16.9997V9.40123C18.8001 8.95941 18.4419 8.60123 18.0001 8.60123H13.886ZM12.9601 6.11057L13.886 7.40123H18.0001C19.1047 7.40123 20.0001 8.29666 20.0001 9.40123V16.9997C20.0001 18.1043 19.1047 18.9997 18.0001 18.9997H6C4.89543 18.9997 4 18.1043 4 16.9997V9.40123L4.00001 9.39654L4 7.27637C4 6.1718 4.89543 5.27637 6 5.27637H11.335C11.9795 5.27637 12.5844 5.58692 12.9601 6.11057Z" fill="#333333"/>
<path fill-rule="evenodd" clip-rule="evenodd" d="M17.1847 11.0503C17.419 11.2847 17.419 11.6646 17.1847 11.8989L13.4398 15.6438C13.2055 15.8781 12.8257 15.8781 12.5913 15.6438L10.6685 13.7214C10.4342 13.4871 10.4342 13.1072 10.6685 12.8728C10.9028 12.6385 11.2827 12.6385 11.517 12.8728L13.0155 14.371L16.3362 11.0503C16.5705 10.816 16.9504 10.816 17.1847 11.0503Z" fill="#333333"/>
</svg>
