<svg width="24" height="24" viewBox="0 0 24 24" fill="none" xmlns="http://www.w3.org/2000/svg">
<path fill-rule="evenodd" clip-rule="evenodd" d="M13.886 8.60123C13.4993 8.60123 13.1363 8.4149 12.9109 8.10071L11.985 6.81005C11.8348 6.60059 11.5928 6.47637 11.335 6.47637H6C5.55817 6.47637 5.2 6.83454 5.2 7.27637L5.20001 9.3993L5.2 9.40123V16.9997C5.2 17.4416 5.55817 17.7997 6 17.7997H18.0001C18.4419 17.7997 18.8001 17.4416 18.8001 16.9997V9.40123C18.8001 8.95941 18.4419 8.60123 18.0001 8.60123H13.886ZM12.9601 6.11057L13.886 7.40123H18.0001C19.1047 7.40123 20.0001 8.29666 20.0001 9.40123V16.9997C20.0001 18.1043 19.1047 18.9997 18.0001 18.9997H6C4.89543 18.9997 4 18.1043 4 16.9997V9.40123L4.00001 9.39654L4 7.27637C4 6.1718 4.89543 5.27637 6 5.27637H11.335C11.9795 5.27637 12.5844 5.58692 12.9601 6.11057Z" fill="#333333"/>
<path fill-rule="evenodd" clip-rule="evenodd" d="M11.105 11.8653V14.8185H15.7135V11.8653H11.105ZM10.905 10.6653C10.3527 10.6653 9.90498 11.113 9.90498 11.6653V15.0185C9.90498 15.5708 10.3527 16.0185 10.905 16.0185H15.9135C16.4657 16.0185 16.9135 15.5708 16.9135 15.0185V11.6653C16.9135 11.113 16.4657 10.6653 15.9135 10.6653H10.905Z" fill="#333333"/>
</svg>
