<svg width="24" height="24" viewBox="0 0 24 24" fill="none" xmlns="http://www.w3.org/2000/svg">
<path fill-rule="evenodd" clip-rule="evenodd" d="M13.3102 5.69538V8.35852C13.3102 8.68989 13.0416 8.95852 12.7102 8.95852C12.6799 8.95852 12.6648 8.95827 12.6545 8.9581C12.6432 8.95792 12.6374 8.95783 12.6237 8.95824C9.73582 9.04607 7.84861 10.5468 6.59753 12.3572C5.64766 13.7318 5.07793 15.2701 4.74731 16.4579C5.41004 15.8587 6.2736 15.1635 7.28295 14.5467C8.76441 13.6415 10.5996 12.8811 12.5983 12.8809H12.7102C13.0416 12.8809 13.3102 13.1495 13.3102 13.4809V16.6938L19.014 11.1946L13.3102 5.69538ZM12.6203 4.14656C12.9256 4.001 13.3164 4.03447 13.6001 4.30799L19.9827 10.4617C20.3943 10.8585 20.3943 11.5306 19.9827 11.9275L13.6001 18.0812C13.3164 18.3547 12.9256 18.3882 12.6203 18.2426C12.32 18.0995 12.1102 17.7909 12.1102 17.4235V14.0986C10.5909 14.2079 9.15119 14.8115 7.90863 15.5707C6.53699 16.4088 5.44496 17.4126 4.80685 18.0631C4.15888 18.7235 3.14281 18.0959 3.31842 17.2554C3.58272 15.9905 4.21549 13.6935 5.61031 11.675C6.94975 9.73672 9.01262 8.03257 12.1102 7.785V4.96563C12.1102 4.59829 12.32 4.2897 12.6203 4.14656Z" fill="#333333"/>
</svg>
