<svg width="24" height="24" viewBox="0 0 24 24" fill="none" xmlns="http://www.w3.org/2000/svg">
<path d="M8.10956 6.78397C9.16565 6.06861 10.4064 5.6873 11.6749 5.6873C13.4774 5.6873 15.2076 6.41174 16.5116 7.68052L17.4218 8.60323H14.9986C14.6672 8.60323 14.3986 8.87185 14.3986 9.20323C14.3986 9.5346 14.6672 9.80323 14.9986 9.80323H18.7708C19.1021 9.80323 19.3708 9.5346 19.3708 9.20323V5.26699C19.3708 4.93562 19.1021 4.66699 18.7708 4.66699C18.4394 4.66699 18.1708 4.93562 18.1708 5.26699V7.65376L17.3617 6.83352L17.3533 6.82518C15.8329 5.34349 13.8035 4.4873 11.6749 4.4873C10.1654 4.4873 8.6904 4.94114 7.43658 5.79044C6.18285 6.63967 5.20692 7.84585 4.63094 9.25552C4.05499 10.6651 3.90442 12.2157 4.19794 13.7116C4.49146 15.2075 5.21616 16.5827 6.28165 17.6629C6.51436 17.8988 6.89425 17.9014 7.13016 17.6687C7.36607 17.436 7.36866 17.0561 7.13595 16.8202C6.23703 15.9089 5.62394 14.7468 5.37548 13.4806C5.12701 12.2142 5.25461 10.9017 5.74179 9.7094C6.22895 8.51713 7.05338 7.49939 8.10956 6.78397Z" fill="#909090"/>
<path d="M13.7682 11.9629C13.9715 12.0646 14.0999 12.2723 14.0999 12.4996V18.4996C14.0999 18.831 13.8312 19.0996 13.4999 19.0996C13.1685 19.0996 12.8999 18.831 12.8999 18.4996V13.6996L11.8599 14.4796C11.5948 14.6784 11.2187 14.6247 11.0199 14.3596C10.8211 14.0945 10.8748 13.7184 11.1399 13.5196L13.1399 12.0196C13.3217 11.8832 13.5649 11.8613 13.7682 11.9629Z" fill="#909090"/>
<path fill-rule="evenodd" clip-rule="evenodd" d="M17.9999 11.8996C16.564 11.8996 15.3999 13.0637 15.3999 14.4996V16.4996C15.3999 17.9355 16.564 19.0996 17.9999 19.0996C19.4358 19.0996 20.5999 17.9355 20.5999 16.4996V14.4996C20.5999 13.0637 19.4358 11.8996 17.9999 11.8996ZM16.5999 14.4996C16.5999 13.7264 17.2267 13.0996 17.9999 13.0996C18.7731 13.0996 19.3999 13.7264 19.3999 14.4996V16.4996C19.3999 17.2728 18.7731 17.8996 17.9999 17.8996C17.2267 17.8996 16.5999 17.2728 16.5999 16.4996V14.4996Z" fill="#909090"/>
</svg>
