<svg width="24" height="24" viewBox="0 0 24 24" fill="none" xmlns="http://www.w3.org/2000/svg">
<path d="M11.9821 4.48828C14.1106 4.48828 16.14 5.34447 17.6604 6.82616L18.478 7.65492V5.26797C18.478 4.9366 18.7466 4.66797 19.078 4.66797C19.4094 4.66797 19.678 4.9366 19.678 5.26797V9.2042C19.678 9.53557 19.4094 9.8042 19.078 9.8042H15.3058C14.9744 9.8042 14.7058 9.53557 14.7058 9.2042C14.7058 8.87283 14.9744 8.6042 15.3058 8.6042H17.7289L16.8187 7.68151C15.5147 6.41272 13.7846 5.68828 11.9821 5.68828C10.7135 5.68828 9.47278 6.06958 8.41669 6.78494C7.3605 7.50037 6.53608 8.5181 6.04892 9.71038C5.56174 10.9027 5.43414 12.2152 5.68261 13.4815C5.93107 14.7478 6.54416 15.9098 7.44308 16.8211C7.67579 17.057 7.6732 17.4369 7.43729 17.6696C7.20138 17.9024 6.82149 17.8998 6.58878 17.6639C5.52329 16.5837 4.79859 15.2085 4.50507 13.7126C4.21155 12.2167 4.36212 10.6661 4.93807 9.25649C5.51405 7.84683 6.48998 6.64065 7.74371 5.79142C8.99753 4.94212 10.4725 4.48828 11.9821 4.48828Z" fill="#333333"/>
<path d="M14.5525 11.5176C14.2212 11.5176 13.9525 11.7862 13.9525 12.1176V14.7997C13.9525 15.1311 14.2212 15.3997 14.5525 15.3997H15.7148C16.7706 15.3997 17.5287 16.1588 17.5287 17.0348C17.5287 17.9108 16.7706 18.6699 15.7148 18.6699C15.3603 18.6699 15.0946 18.6019 14.8209 18.4651C14.5245 18.3169 14.1641 18.437 14.0159 18.7334C13.8677 19.0298 13.9878 19.3902 14.2842 19.5384C14.7257 19.7591 15.1752 19.8699 15.7148 19.8699C17.3411 19.8699 18.7287 18.6622 18.7287 17.0348C18.7287 15.4075 17.3411 14.1997 15.7148 14.1997H15.1525V12.7176H18.1287C18.4601 12.7176 18.7287 12.4489 18.7287 12.1176C18.7287 11.7862 18.4601 11.5176 18.1287 11.5176H14.5525Z" fill="#333333"/>
<path d="M12.1723 12.1176C12.1723 11.8903 12.0439 11.6826 11.8406 11.5809C11.6374 11.4793 11.3941 11.5012 11.2123 11.6376L8.82819 13.4257C8.56309 13.6245 8.50936 14.0006 8.70819 14.2657C8.90701 14.5308 9.28309 14.5845 9.54819 14.3857L10.9723 13.3176V19.2699C10.9723 19.6013 11.2409 19.8699 11.5723 19.8699C11.9037 19.8699 12.1723 19.6013 12.1723 19.2699V12.1176Z" fill="#333333"/>
</svg>
