<svg width="24" height="24" viewBox="0 0 24 24" fill="none" xmlns="http://www.w3.org/2000/svg">
<path fill-rule="evenodd" clip-rule="evenodd" d="M11.9947 14.3121C9.54019 14.3121 8.96344 10.6918 10.7013 9.41254C10.9899 9.20011 11.5445 9 11.9947 9C15.196 9 14.9416 14.3121 11.9947 14.3121ZM11.4883 10.3368C11.5354 10.3102 11.5974 10.2881 11.665 10.2657C11.8107 10.2174 11.9314 10.2 11.9947 10.2C12.4209 10.2 12.6526 10.3575 12.8059 10.5583C12.9874 10.7959 13.1114 11.1762 13.1006 11.6273C13.0898 12.0774 12.9468 12.4812 12.7417 12.7443C12.5582 12.9797 12.3262 13.1121 11.9947 13.1121C11.5065 13.1121 11.103 12.7912 10.948 12.0848C10.8272 11.5346 10.9998 10.6123 11.4883 10.3368Z" fill="#333333"/>
<path d="M11.2793 17.5775C11.2793 17.2462 11.5479 16.9775 11.8793 16.9775H12.1171C12.4485 16.9775 12.7171 17.2462 12.7171 17.5775C12.7171 17.9089 12.4485 18.1775 12.1171 18.1775H11.8793C11.5479 18.1775 11.2793 17.9089 11.2793 17.5775Z" fill="#333333"/>
<path fill-rule="evenodd" clip-rule="evenodd" d="M13.1376 4.47765C12.5235 3.8512 11.4769 3.8512 10.8628 4.47765L4.42003 11.0496C3.95528 11.5236 3.89971 12.1652 4.1463 12.6735C4.38954 13.1749 4.91434 13.5311 5.55745 13.5311H5.85133V19.0347C5.85133 19.5704 6.28558 20.0047 6.82126 20.0047H17.1963C17.732 20.0047 18.1663 19.5704 18.1663 19.0347V13.5311H18.4429C19.086 13.5311 19.6108 13.1749 19.8541 12.6735C20.1007 12.1652 20.0451 11.5236 19.5804 11.0496L13.1376 4.47765ZM11.7197 5.31772C11.8633 5.17118 12.1371 5.17118 12.2807 5.31772L18.7235 11.8896C18.7751 11.9424 18.7916 11.9885 18.7967 12.0227C18.8021 12.0601 18.7966 12.104 18.7744 12.1498C18.7315 12.2382 18.6256 12.3311 18.4429 12.3311H17.5663C17.2349 12.3311 16.9663 12.5997 16.9663 12.9311V18.8047H15.6416L16.2619 16.04C16.4161 15.3525 15.8932 14.6992 15.1886 14.6992H8.80501C8.10519 14.6992 7.58329 15.3441 7.72917 16.0285L8.32088 18.8047H7.05133V12.9311C7.05133 12.5997 6.78271 12.3311 6.45133 12.3311H5.55745C5.37477 12.3311 5.26887 12.2382 5.22597 12.1498C5.20379 12.104 5.19826 12.0601 5.20374 12.0227C5.20875 11.9885 5.22526 11.9424 5.27694 11.8896L11.7197 5.31772ZM9.54783 18.8047H14.4118L15.0637 15.8992H8.92857L9.54783 18.8047Z" fill="#333333"/>
</svg>
