<svg width="24" height="24" viewBox="0 0 24 24" fill="none" xmlns="http://www.w3.org/2000/svg">
<path d="M7.47988 9.58008C7.14988 9.58008 6.87988 9.85008 6.87988 10.1801V13.6801C6.87988 14.0101 7.14988 14.2801 7.47988 14.2801C7.80988 14.2801 8.07988 14.0101 8.07988 13.6801V10.1801C8.07988 9.85008 7.80988 9.58008 7.47988 9.58008Z" fill="#333333"/>
<path d="M9.91016 10.1801C9.91016 9.85008 10.1802 9.58008 10.5102 9.58008C10.8402 9.58008 11.1102 9.85008 11.1102 10.1801V13.6801C11.1102 14.0101 10.8402 14.2801 10.5102 14.2801C10.1802 14.2801 9.91016 14.0101 9.91016 13.6801V10.1801Z" fill="#333333"/>
<path d="M13.5302 9.58008C13.2002 9.58008 12.9302 9.85008 12.9302 10.1801V13.6801C12.9302 14.0101 13.2002 14.2801 13.5302 14.2801C13.8602 14.2801 14.1302 14.0101 14.1302 13.6801V10.1801C14.1302 9.85008 13.8602 9.58008 13.5302 9.58008Z" fill="#333333"/>
<path d="M15.9199 10.1801C15.9199 9.85008 16.1899 9.58008 16.5199 9.58008C16.8499 9.58008 17.1199 9.85008 17.1199 10.1801V13.6801C17.1199 14.0101 16.8499 14.2801 16.5199 14.2801C16.1899 14.2801 15.9199 14.0101 15.9199 13.6801V10.1801Z" fill="#333333"/>
<path fill-rule="evenodd" clip-rule="evenodd" d="M20.36 10.33H20.01V9.33C20.01 8.01 18.87 7 17.56 7H6.45C5.14 7 4 8.01 4 9.33V14.52C4 15.84 5.14 16.85 6.45 16.85H17.56C18.88 16.85 20.01 15.84 20.01 14.52V13.52H20.36C20.69 13.52 20.96 13.25 20.96 12.92V10.93C20.96 10.6 20.69 10.33 20.36 10.33ZM18.81 14.52C18.81 15.11 18.29 15.65 17.56 15.65H6.45C5.72 15.65 5.2 15.11 5.2 14.52V9.33C5.2 8.74 5.72 8.2 6.45 8.2H17.56C18.29 8.2 18.81 8.74 18.81 9.33V14.52Z" fill="#333333"/>
</svg>
