<svg width="24" height="24" viewBox="0 0 24 24" fill="none" xmlns="http://www.w3.org/2000/svg">
<path fill-rule="evenodd" clip-rule="evenodd" d="M9.41712 5.44609C9.19924 5.44609 8.98806 5.53412 8.83063 5.6944C8.67285 5.85505 8.58232 6.0752 8.58232 6.30697C8.58232 6.53875 8.67285 6.7589 8.83063 6.91955C8.98805 7.07983 9.19924 7.16785 9.41712 7.16785H11.1949C11.126 6.98637 11.0397 6.7882 10.9338 6.59214C10.5718 5.92202 10.0823 5.44609 9.41712 5.44609ZM7.56928 7.16992C7.44708 6.90145 7.38232 6.60729 7.38232 6.30697C7.38232 5.76385 7.59413 5.24084 7.9745 4.85355C8.35523 4.4659 8.87393 4.24609 9.41712 4.24609C10.7607 4.24609 11.5624 5.23105 11.9896 6.02181C11.993 6.0281 11.9964 6.03439 11.9997 6.04068C12.0031 6.03439 12.0065 6.0281 12.0099 6.02181C12.437 5.23105 13.2388 4.24609 14.5824 4.24609C15.1256 4.24609 15.6443 4.4659 16.025 4.85355C16.4054 5.24084 16.6172 5.76385 16.6172 6.30697C16.6172 6.60729 16.5524 6.90145 16.4302 7.16992H17.8988C18.7825 7.16992 19.4988 7.88627 19.4988 8.76992V10.7124C19.4988 11.3782 19.0923 11.9489 18.5139 12.19V18.1055C18.5139 19.21 17.6185 20.1055 16.5139 20.1055H7.48633C6.38176 20.1055 5.48633 19.21 5.48633 18.1055V12.1903C4.90747 11.9495 4.50049 11.3785 4.50049 10.7124V8.76992C4.50049 7.88627 5.21683 7.16992 6.10049 7.16992H7.56928ZM11.3994 8.36992H6.10049C5.87957 8.36992 5.70049 8.54901 5.70049 8.76992V10.7124C5.70049 10.9334 5.87957 11.1124 6.10049 11.1124H11.3994V8.36992ZM11.3994 12.3124H6.68633V18.1055C6.68633 18.5473 7.0445 18.9055 7.48633 18.9055H11.3994L11.3994 12.3124ZM12.5994 18.9055L12.5994 12.3124H17.3139V18.1055C17.3139 18.5473 16.9557 18.9055 16.5139 18.9055H12.5994ZM12.5994 11.1124V8.36992H17.8988C18.1197 8.36992 18.2988 8.54901 18.2988 8.76992V10.7124C18.2988 10.9334 18.1197 11.1124 17.8988 11.1124H12.5994ZM12.8046 7.16785H14.5824C14.8002 7.16785 15.0114 7.07983 15.1688 6.91955C15.3266 6.7589 15.4172 6.53875 15.4172 6.30697C15.4172 6.0752 15.3266 5.85505 15.1688 5.6944C15.0114 5.53412 14.8002 5.44609 14.5824 5.44609C13.9172 5.44609 13.4277 5.92202 13.0657 6.59214C12.9598 6.7882 12.8735 6.98637 12.8046 7.16785Z" fill="#333333"/>
</svg>
