<svg width="24" height="24" viewBox="0 0 24 24" fill="none" xmlns="http://www.w3.org/2000/svg">
<path fill-rule="evenodd" clip-rule="evenodd" d="M8.86524 5.31838C9.04735 5.31702 9.22023 5.39847 9.33515 5.53975L10.7651 7.29771C10.9742 7.55478 10.9353 7.93269 10.6782 8.14178C10.4211 8.35088 10.0432 8.312 9.83414 8.05493L8.87681 6.87797L4.51942 12.4004H11.1185C11.4088 12.4004 11.6574 12.6082 11.7089 12.8939L11.1185 13.0004C11.709 12.8939 11.7089 12.8936 11.7089 12.8939L11.7092 12.8952L11.7095 12.8969L11.7103 12.9018L11.7129 12.9167C11.7149 12.929 11.7176 12.9458 11.7207 12.9669C11.7269 13.009 11.735 13.0683 11.7432 13.1423C11.7512 13.2137 11.7593 13.2992 11.7662 13.3965H12.2334C12.2402 13.2992 12.2484 13.2137 12.2563 13.1423C12.2645 13.0683 12.2726 13.009 12.2788 12.9669C12.282 12.9458 12.2846 12.929 12.2867 12.9167L12.2892 12.9018L12.29 12.8969L12.2903 12.8952C12.2904 12.8949 12.2906 12.8939 12.881 13.0004L12.2906 12.8939C12.3421 12.6082 12.5907 12.4004 12.881 12.4004H19.4796L15.1222 6.87797L14.1649 8.05493C13.9558 8.312 13.5779 8.35088 13.3208 8.14178C13.0637 7.93269 13.0249 7.55478 13.234 7.29771L14.6639 5.53975C14.7788 5.39847 14.9517 5.31702 15.1338 5.31838C15.3159 5.31973 15.4876 5.40372 15.6004 5.5467L21.1488 12.5787C21.1539 12.5851 21.1589 12.5917 21.1637 12.5983C21.2692 12.7151 21.3247 12.869 21.3178 13.0268L21.2732 13.0248C21.3178 13.0268 21.3178 13.0267 21.3178 13.0268L21.3177 13.0295L21.3174 13.034L21.3167 13.0485C21.316 13.0605 21.315 13.0772 21.3135 13.0982C21.3106 13.1403 21.3059 13.1999 21.2986 13.2745C21.2839 13.4234 21.2587 13.6332 21.2159 13.8833C21.1308 14.3803 20.9738 15.0517 20.684 15.7257C20.3951 16.3975 19.9609 17.1029 19.3042 17.6307C18.6377 18.1665 17.7722 18.4941 16.6826 18.4478C15.4097 18.4454 14.451 18.1131 13.7505 17.5619C13.0517 17.012 12.6649 16.2875 12.4558 15.5982C12.3514 15.2541 12.2895 14.9131 12.2549 14.5965H11.7446C11.71 14.9131 11.6481 15.2541 11.5437 15.5982C11.3346 16.2875 10.9478 17.012 10.249 17.5619C9.54853 18.1131 8.5898 18.4454 7.31693 18.4478C6.22734 18.4941 5.36185 18.1665 4.69533 17.6307C4.03864 17.1029 3.60443 16.3975 3.31556 15.7257C3.02572 15.0517 2.86874 14.3803 2.78366 13.8833C2.74085 13.6332 2.71559 13.4234 2.70095 13.2745C2.69361 13.1999 2.68891 13.1403 2.686 13.0982C2.68454 13.0772 2.68352 13.0605 2.68285 13.0485L2.68208 13.034L2.68186 13.0295L2.68178 13.0279C2.68178 13.0278 2.68175 13.027 2.72588 13.025L2.68173 13.0268C2.67485 12.8703 2.72944 12.7176 2.83334 12.6011C2.83876 12.5935 2.84437 12.586 2.85019 12.5787L8.39866 5.5467C8.51147 5.40372 8.68312 5.31973 8.86524 5.31838ZM3.96645 13.6808C3.96176 13.6534 3.95732 13.6266 3.95311 13.6004H10.5762C10.5788 13.6535 10.5808 13.7099 10.582 13.7693C10.5899 14.1858 10.5548 14.7241 10.3954 15.2499C10.2369 15.7725 9.96306 16.2599 9.50689 16.6189C9.05487 16.9746 8.36865 17.2478 7.30349 17.2478C7.29443 17.2478 7.28537 17.248 7.27632 17.2484C6.47162 17.2849 5.88841 17.0501 5.44715 16.6954C4.99325 16.3306 4.65948 15.8133 4.41795 15.2517C4.1774 14.6923 4.04157 14.1196 3.96645 13.6808ZM20.0464 13.6004C20.0422 13.6266 20.0377 13.6534 20.0331 13.6808C19.9579 14.1196 19.8221 14.6923 19.5816 15.2517C19.34 15.8133 19.0063 16.3306 18.5524 16.6954C18.1111 17.0501 17.5279 17.2849 16.7232 17.2484C16.7141 17.248 16.7051 17.2478 16.696 17.2478C15.6309 17.2478 14.9446 16.9746 14.4926 16.6189C14.0364 16.2599 13.7627 15.7725 13.6042 15.2499C13.4447 14.7241 13.4096 14.1858 13.4176 13.7693C13.4187 13.7099 13.4207 13.6535 13.4233 13.6004H20.0464Z" fill="#909090"/>
</svg>
