<svg width="24" height="24" viewBox="0 0 24 24" fill="none" xmlns="http://www.w3.org/2000/svg">
<path fill-rule="evenodd" clip-rule="evenodd" d="M4.03467 12.0004C4.03467 7.6015 7.60101 4.03516 11.9999 4.03516C16.3994 4.03516 19.9651 7.60153 19.9651 12.0004C19.9651 16.3999 16.3994 19.9656 11.9999 19.9656C7.60101 19.9656 4.03467 16.3993 4.03467 12.0004ZM11.8735 5.23631C8.74571 5.29363 6.13637 7.47396 5.42585 10.3969C5.6788 10.7314 5.90402 11.0947 6.09559 11.4201C6.18882 11.5785 6.2711 11.7222 6.34517 11.8516C6.46681 12.0642 6.56634 12.2381 6.65586 12.3743C6.78561 12.5718 6.94384 12.7636 7.12762 12.9835L7.15264 13.0134C7.32277 13.2169 7.5149 13.4466 7.68202 13.6926C8.2752 14.5659 8.78532 15.5196 8.42455 16.7499L8.42415 16.7513C8.36065 16.966 8.25282 17.2502 8.08329 17.5172C9.18861 18.3033 10.5403 18.7656 11.9999 18.7656C15.7366 18.7656 18.7651 15.7371 18.7651 12.0004C18.7651 11.371 18.6792 10.7618 18.5184 10.1837C18.3775 10.138 18.0736 10.0627 17.5262 10.1857C17.0062 10.3025 16.4816 10.4357 16.0885 10.5585C15.9911 10.5888 15.906 10.6173 15.8337 10.6434C15.8494 10.68 15.869 10.7165 15.8932 10.7511C15.9748 10.868 16.1923 11.0889 16.8658 11.0373C17.0326 11.0245 17.2484 11.0544 17.4348 11.2081C17.616 11.3575 17.6831 11.5531 17.7066 11.6937C17.7492 11.9477 17.683 12.2136 17.6265 12.3946C17.5017 12.7945 17.2662 13.2494 17.0809 13.5448C16.8838 13.8592 16.7955 14.0789 16.6995 14.3273L16.6854 14.3639C16.587 14.6187 16.4738 14.9121 16.2436 15.3042C16.1624 15.4425 16.091 15.5933 16.006 15.7726C15.9796 15.8283 15.952 15.8867 15.9223 15.9484C15.8072 16.1874 15.6637 16.4704 15.4727 16.7148C14.9786 17.3469 14.2954 17.9149 13.3046 17.9136C12.814 17.913 12.4814 17.6029 12.2979 17.3529C12.109 17.0955 11.9924 16.7936 11.9397 16.5562C11.808 15.9636 11.8243 15.3643 11.8497 14.9179C11.8554 14.8188 11.8611 14.7326 11.8662 14.6551C11.8737 14.5432 11.8799 14.4493 11.8831 14.36C11.8852 14.2991 11.8851 14.2572 11.8838 14.2296C11.8297 14.1122 11.7296 13.9315 11.5638 13.8005C11.4104 13.6792 11.1451 13.553 10.6385 13.6995C10.2471 13.8126 9.86865 13.8405 9.52304 13.7348C9.16284 13.6248 8.90869 13.3913 8.74153 13.1169C8.43947 12.6209 8.40032 11.9505 8.39351 11.4545C8.38404 10.7647 8.52635 10.2048 8.78528 9.75993C9.04478 9.31413 9.3999 9.02099 9.75672 8.83208C10.4124 8.48493 11.095 8.48204 11.2614 8.48133L11.2838 8.48118C11.5392 8.47777 11.8861 8.53362 12.1747 8.59564C12.4587 8.65667 12.7847 8.74478 12.9857 8.84088C13.0908 8.89117 13.1614 8.88975 13.2093 8.87989C13.2651 8.86843 13.3296 8.8364 13.3955 8.77669C13.4509 8.72653 13.4955 8.6672 13.5254 8.61317C13.518 8.60673 13.5098 8.5998 13.5007 8.59241C13.403 8.51319 13.2543 8.42216 13.0666 8.3356C12.6831 8.15875 12.2418 8.0479 11.9274 8.05069C11.9052 8.05089 11.8754 8.05164 11.8392 8.05255C11.5986 8.05858 11.0781 8.07164 10.6837 7.97576C10.4873 7.92802 10.0726 7.79901 9.90074 7.39085C9.71085 6.93983 9.95766 6.52354 10.1715 6.26423C10.6417 5.69401 11.2943 5.41454 11.8735 5.23631ZM5.31841 12.4738C5.36012 13.3208 5.5294 13.8635 5.89602 14.8026C6.13318 15.4101 6.558 16.0564 7.17315 16.6814C7.21068 16.5987 7.24478 16.5077 7.27323 16.4116C7.47135 15.7351 7.2487 15.1903 6.68938 14.3669C6.55668 14.1716 6.39896 13.9829 6.21722 13.7654L6.2069 13.7531C6.02846 13.5396 5.82635 13.2971 5.65302 13.0334C5.55611 12.8859 5.44017 12.6859 5.31841 12.4738ZM13.3689 6.07779C13.6657 5.99301 13.9892 5.88301 14.2694 5.70914C14.2717 5.70896 14.2753 5.70879 14.2803 5.7088C14.3118 5.70884 14.3808 5.71705 14.5037 5.76117C16.1636 6.35676 17.3911 7.7197 18.0161 8.91928C17.7972 8.92348 17.5472 8.9511 17.2632 9.0149C16.7278 9.13518 16.168 9.27653 15.7309 9.41296C15.5151 9.48032 15.3114 9.55194 15.151 9.62512C15.0728 9.66076 14.9829 9.70662 14.9018 9.76436C14.861 9.7934 14.8074 9.83603 14.7562 9.89415C14.7079 9.9491 14.6334 10.0499 14.6013 10.1955C14.567 10.3507 14.5776 10.5534 14.614 10.7381C14.6543 10.9424 14.7395 11.1949 14.9093 11.4381C15.2064 11.8636 15.6968 12.1716 16.4097 12.2333C16.3154 12.4654 16.1805 12.7219 16.0643 12.9073C15.8072 13.3173 15.6866 13.6194 15.5803 13.8945L15.5684 13.9251C15.473 14.1722 15.389 14.3896 15.2087 14.6967C15.0978 14.8857 14.9956 15.1018 14.9069 15.2894C14.884 15.3378 14.862 15.3843 14.841 15.428C14.7283 15.6621 14.6318 15.842 14.5272 15.9758C14.146 16.4635 13.7793 16.706 13.3293 16.7134C13.3174 16.7045 13.2958 16.6844 13.2654 16.6429C13.1914 16.5422 13.1344 16.4006 13.1111 16.2959C13.0173 15.8739 13.0234 15.4135 13.0478 14.9863C13.0518 14.915 13.0568 14.8395 13.0617 14.7644C13.0702 14.6347 13.0786 14.5062 13.0823 14.4025C13.0854 14.3156 13.0864 14.2221 13.0801 14.133C13.0745 14.0537 13.0604 13.9272 13.0062 13.8008C12.9385 13.6426 12.7386 13.1994 12.3079 12.859C11.8428 12.4914 11.1744 12.2954 10.3052 12.5467C10.0514 12.6201 9.92417 12.6026 9.87377 12.5872C9.83796 12.5763 9.80578 12.5573 9.76638 12.4926C9.65534 12.3103 9.60051 11.9558 9.5934 11.4381C9.58634 10.9244 9.69213 10.5874 9.82238 10.3636C9.95207 10.1408 10.1272 9.99372 10.3182 9.89262C10.706 9.68728 11.131 9.68285 11.2819 9.68128L11.2998 9.68108C11.4144 9.67955 11.6525 9.71082 11.9226 9.76886C12.1973 9.8279 12.4038 9.89278 12.468 9.92346C13.1732 10.2607 13.8064 10.0235 14.201 9.66622C14.3911 9.49404 14.5374 9.28734 14.6318 9.08307C14.715 8.90288 14.8019 8.62818 14.7367 8.34894C14.663 8.03323 14.4328 7.80333 14.2565 7.66039C14.0598 7.5008 13.8183 7.3608 13.5692 7.24589C13.0789 7.0198 12.4594 6.84593 11.9167 6.85074C11.8712 6.85115 11.8246 6.85216 11.7759 6.85322C11.6747 6.85543 11.5644 6.85783 11.4349 6.85537C11.3791 6.85431 11.3253 6.85231 11.2743 6.84931C11.5599 6.60808 11.9571 6.454 12.4547 6.31711C12.5926 6.27915 12.7311 6.24419 12.8741 6.20806L12.9064 6.19991C13.0583 6.16156 13.216 6.12145 13.3689 6.07779ZM11.0207 7.13872C11.0203 7.13884 11.0216 7.13513 11.0259 7.12724C11.0233 7.13466 11.0212 7.1386 11.0207 7.13872ZM11.8815 14.2023C11.8815 14.2022 11.8818 14.2037 11.8821 14.2068L11.8815 14.2023Z" fill="#333333"/>
</svg>
