<svg width="24" height="24" viewBox="0 0 24 24" fill="none" xmlns="http://www.w3.org/2000/svg">
<path d="M12 8.45C12 8.20147 11.7985 8 11.55 8H9.5C8.67157 8 8 8.67157 8 9.5V14.5C8 15.3284 8.67157 16 9.5 16H14.5C15.3284 16 16 15.3284 16 14.5V12.45C16 12.2015 15.7985 12 15.55 12C15.3015 12 15.1 12.2015 15.1 12.45V14.5C15.1 14.8314 14.8314 15.1 14.5 15.1H9.5C9.16863 15.1 8.9 14.8314 8.9 14.5V9.5C8.9 9.16863 9.16863 8.9 9.5 8.9H11.55C11.7985 8.9 12 8.69853 12 8.45Z" fill="#333333"/>
<path d="M11.8456 12.1742C11.6698 11.9985 11.6698 11.7136 11.8456 11.5378L14.4834 8.9H13.45C13.2015 8.9 13 8.69853 13 8.45C13 8.20147 13.2015 8 13.45 8H14.649C15.3945 8 15.9989 8.60438 15.999 9.34994L15.999 10.55C15.999 10.7985 15.7976 11 15.5491 11C15.3005 11 15.099 10.7986 15.099 10.55L15.099 9.5572L12.482 12.1742C12.3062 12.35 12.0213 12.35 11.8456 12.1742Z" fill="#333333"/>
</svg>
