<svg width="24" height="24" viewBox="0 0 24 24" fill="none" xmlns="http://www.w3.org/2000/svg">
<path d="M7.28691 17.1993V19.7279C7.28691 19.7874 7.30238 19.8176 7.31568 19.8365C7.33282 19.8608 7.36267 19.8871 7.40501 19.9046C7.44736 19.9222 7.48701 19.9247 7.51633 19.9196C7.53908 19.9157 7.57143 19.9052 7.61351 19.8631L10.4592 17.0175H12V17.0195C12.3313 17.0196 12.5999 17.2882 12.5999 17.6195C12.5999 17.9509 12.3313 18.2195 11.9999 18.2195H10.9999C10.9851 18.2195 10.9703 18.219 10.9558 18.2179L8.46203 20.7117C7.58556 21.5881 6.08691 20.9674 6.08691 19.7279V18.076C4.87654 17.6897 4 16.5559 4 15.2175V8C4 6.34315 5.34315 5 7 5H17.0001C18.6569 5 20.0001 6.34315 20.0001 8V11.9848L20.0003 12.0004V12.7511C20.0003 13.0825 19.7317 13.3511 19.4003 13.3511C19.0689 13.3511 18.8003 13.0825 18.8003 12.7511L18.8001 8C18.8001 7.00589 17.9942 6.2 17.0001 6.2H7C6.00589 6.2 5.2 7.00589 5.2 8V15.2175C5.2 16.0187 5.72439 16.7007 6.45177 16.9328L7.28691 17.1993Z" fill="#333333"/>
<path d="M8.17373 9.26953C7.84236 9.26953 7.57373 9.53816 7.57373 9.86953C7.57373 10.2009 7.84236 10.4695 8.17373 10.4695H15.4781C15.8095 10.4695 16.0781 10.2009 16.0781 9.86953C16.0781 9.53816 15.8095 9.26953 15.4781 9.26953H8.17373Z" fill="#333333"/>
<path d="M7.57373 12.6527C7.57373 12.3214 7.84236 12.0527 8.17373 12.0527H13.739C14.0704 12.0527 14.339 12.3214 14.339 12.6527C14.339 12.9841 14.0704 13.2527 13.739 13.2527H8.17373C7.84236 13.2527 7.57373 12.9841 7.57373 12.6527Z" fill="#333333"/>
<path d="M18.9793 16.757L17.7462 15.5239C17.5119 15.2896 17.5119 14.9097 17.7462 14.6754C17.9805 14.4411 18.3604 14.4411 18.5947 14.6754L20.8379 16.9186C20.8427 16.9231 20.8474 16.9277 20.8521 16.9323C20.9593 17.0396 21.0175 17.1773 21.0266 17.3176C21.0274 17.3306 21.0278 17.3438 21.0278 17.357C21.0278 17.3678 21.0275 17.3786 21.027 17.3892C21.0237 17.4522 21.0106 17.5126 20.9893 17.5689C20.9854 17.5793 20.9812 17.5896 20.9767 17.5997C20.9476 17.6656 20.9061 17.7273 20.8521 17.7813C20.8474 17.786 20.8427 17.7905 20.8379 17.795L18.5947 20.0381C18.3604 20.2725 17.9805 20.2724 17.7462 20.0381C17.5119 19.8038 17.5119 19.4239 17.7462 19.1896L18.9788 17.957H14.922C14.5906 17.957 14.322 17.6884 14.322 17.357C14.322 17.0257 14.5906 16.757 14.922 16.757L18.9793 16.757Z" fill="#333333"/>
</svg>
