<svg width="24" height="24" viewBox="0 0 24 24" fill="none" xmlns="http://www.w3.org/2000/svg">
<path d="M12 5.6C12 5.26863 11.7314 5 11.4 5H8C6.34315 5 5 6.34315 5 8V16C5 17.6569 6.34315 19 8 19H16C17.6569 19 19 17.6569 19 16V12.6C19 12.2686 18.7314 12 18.4 12C18.0686 12 17.8 12.2686 17.8 12.6V16C17.8 16.9941 16.9941 17.8 16 17.8H8C7.00589 17.8 6.2 16.9941 6.2 16V8C6.2 7.00589 7.00589 6.2 8 6.2H11.4C11.7314 6.2 12 5.93137 12 5.6Z" fill="#333333"/>
<path d="M11.8624 12.1723C11.628 11.938 11.628 11.5581 11.8624 11.3238L16.9862 6.2H14.58C14.2487 6.2 13.98 5.93137 13.98 5.6C13.98 5.26863 14.2487 5 14.58 5H17.3978C18.2814 5 18.9977 5.7163 18.9978 6.59993L18.9979 9.32582C18.9979 9.65719 18.7293 9.92583 18.3979 9.92584C18.0665 9.92586 17.7979 9.65724 17.7979 9.32587L17.7978 7.08543L12.7109 12.1723C12.4766 12.4066 12.0967 12.4066 11.8624 12.1723Z" fill="#333333"/>
</svg>
