<svg width="24" height="24" viewBox="0 0 24 24" fill="none" xmlns="http://www.w3.org/2000/svg">
<path d="M12 6.55C12 6.24624 11.7538 6 11.45 6H8.5C7.11929 6 6 7.11929 6 8.5V15.5C6 16.8807 7.11929 18 8.5 18H15.5C16.8807 18 18 16.8807 18 15.5V12.55C18 12.2462 17.7538 12 17.45 12C17.1462 12 16.9 12.2462 16.9 12.55V15.5C16.9 16.2732 16.2732 16.9 15.5 16.9H8.5C7.7268 16.9 7.1 16.2732 7.1 15.5V8.5C7.1 7.7268 7.7268 7.1 8.5 7.1H11.45C11.7538 7.1 12 6.85376 12 6.55Z" fill="#333333"/>
<path d="M11.8568 12.173C11.642 11.9582 11.642 11.6099 11.8568 11.3951L16.1519 7.1H14.18C13.8762 7.1 13.63 6.85376 13.63 6.55C13.63 6.24624 13.8762 6 14.18 6H16.4523C17.3083 6 18.0023 6.69392 18.0023 7.54993L18.0024 9.74355C18.0024 10.0473 17.7562 10.2936 17.4525 10.2936C17.1487 10.2936 16.9024 10.0474 16.9024 9.74361L16.9024 7.90517L12.6346 12.173C12.4198 12.3877 12.0715 12.3877 11.8568 12.173Z" fill="#333333"/>
</svg>
