<svg width="24" height="24" viewBox="0 0 24 24" fill="none" xmlns="http://www.w3.org/2000/svg">
<path d="M12 7.5C12 7.22386 11.7761 7 11.5 7H9C7.89543 7 7 7.89543 7 9V15C7 16.1046 7.89543 17 9 17H15C16.1046 17 17 16.1046 17 15V12.5C17 12.2239 16.7761 12 16.5 12C16.2239 12 16 12.2239 16 12.5V15C16 15.5523 15.5523 16 15 16H9C8.44772 16 8 15.5523 8 15V9C8 8.44772 8.44772 8 9 8H11.5C11.7761 8 12 7.77614 12 7.5Z" fill="#333333"/>
<path d="M11.8512 12.1736C11.6559 11.9783 11.6559 11.6617 11.8512 11.4665L15.3176 8H13.5C13.2239 8 13 7.77614 13 7.5C13 7.22386 13.2239 7 13.5 7H15.4979C16.3258 7 16.9971 7.67064 16.9979 8.49846L17 10.4995C17.0003 10.7756 16.7767 10.9997 16.5005 11C16.2244 11.0003 16.0003 10.7767 16 10.5005L15.9982 8.73367L12.5583 12.1736C12.363 12.3689 12.0464 12.3689 11.8512 12.1736Z" fill="#333333"/>
</svg>
