<svg width="24" height="24" viewBox="0 0 24 24" fill="none" xmlns="http://www.w3.org/2000/svg">
<path fill-rule="evenodd" clip-rule="evenodd" d="M11.9996 11.955C12.8412 11.955 13.5234 11.2728 13.5234 10.4312C13.5234 9.58964 12.8412 8.90742 11.9996 8.90742C11.158 8.90742 10.4758 9.58965 10.4758 10.4312C10.4758 11.2728 11.158 11.955 11.9996 11.955ZM14.7234 10.4312C14.7234 11.9355 13.5039 13.155 11.9996 13.155C10.4953 13.155 9.27578 11.9355 9.27578 10.4312C9.27578 8.9269 10.4953 7.70742 11.9996 7.70742C13.5039 7.70742 14.7234 8.9269 14.7234 10.4312Z" fill="#333333"/>
<path fill-rule="evenodd" clip-rule="evenodd" d="M6.95857 6.62299C8.17329 5.24939 9.98337 4.38379 11.9866 4.38379C12.6832 4.38379 13.3641 4.49184 13.9888 4.68093C15.6518 5.18155 17.0398 6.29362 17.8443 7.77025L17.845 7.77149C18.3175 8.64352 18.5919 9.6299 18.5919 10.6865C18.5919 12.5779 17.9465 13.8995 17.0665 15.1083C16.7084 15.6001 16.3048 16.0821 15.8972 16.5687C15.8153 16.6666 15.7332 16.7646 15.6513 16.8629C15.1559 17.4576 14.6524 18.0802 14.1709 18.7973L14.1686 18.8007C13.6406 19.5759 13.4336 20.1954 13.2737 20.6742C13.2644 20.7023 13.2551 20.7299 13.246 20.757L13.2432 20.7654C13.1688 20.9869 13.0726 21.2733 12.9081 21.4917C12.8135 21.6174 12.6877 21.7349 12.5195 21.8166C12.3532 21.8974 12.1797 21.9266 12.0125 21.9266C11.8464 21.9266 11.6736 21.8979 11.5078 21.8182C11.3399 21.7375 11.2138 21.621 11.1186 21.4957C10.9531 21.278 10.8565 20.9924 10.7821 20.7722L10.7794 20.7642C10.7701 20.7365 10.7606 20.7083 10.7509 20.6796C10.5911 20.2039 10.384 19.5874 9.85645 18.813C9.52544 18.3284 9.18484 17.8606 8.86018 17.4565C8.63002 17.1707 8.39421 16.89 8.15941 16.6106C7.36136 15.6607 6.57513 14.7249 6.06291 13.6492C5.64757 12.79 5.40723 11.837 5.40723 10.6741C5.40723 9.13544 5.99923 7.71311 6.95762 6.62408L6.95857 6.62299ZM7.858 7.41737C7.07862 8.30322 6.60723 9.44813 6.60723 10.6741C6.60723 11.6582 6.80755 12.4329 7.144 13.1284L7.14567 13.1319C7.58577 14.0568 8.23747 14.8338 9.01055 15.7554C9.26037 16.0532 9.52286 16.3662 9.79498 16.7041C10.1446 17.1392 10.5045 17.6343 10.8478 18.1368C11.4695 19.0495 11.7206 19.7971 11.8865 20.2917C11.8967 20.3221 11.9066 20.3515 11.9162 20.3799C11.9571 20.5008 11.9878 20.5849 12.0117 20.644C12.0359 20.584 12.067 20.4983 12.1085 20.3748C12.1179 20.3468 12.1276 20.318 12.1375 20.2882C12.3034 19.7908 12.5537 19.0404 13.1758 18.1267C13.6926 17.3572 14.228 16.6966 14.7293 16.0948C14.816 15.9908 14.9013 15.8889 14.9851 15.7888C15.3921 15.3026 15.7645 14.8578 16.0963 14.4021C16.8765 13.3305 17.3919 12.2513 17.3919 10.6865C17.3919 9.84242 17.1736 9.05157 16.7903 8.3438C16.1421 7.15464 15.0141 6.24268 13.6425 5.82989L13.6416 5.8296C13.125 5.67317 12.5609 5.58379 11.9866 5.58379C10.3325 5.58379 8.84826 6.29791 7.858 7.41737Z" fill="#333333"/>
</svg>
