<svg width="24" height="24" viewBox="0 0 24 24" fill="none" xmlns="http://www.w3.org/2000/svg">
<path fill-rule="evenodd" clip-rule="evenodd" d="M20.7299 9.27539L12.2299 5.69539C12.0799 5.63539 11.9099 5.63539 11.7599 5.69539L3.2699 9.27539C3.0499 9.36539 2.8999 9.58539 2.8999 9.82539C2.8999 10.0654 3.0399 10.2854 3.2699 10.3754L6.8799 11.8954C6.8799 11.8954 6.8599 11.9554 6.8599 11.9954V16.4854C6.8599 16.6754 6.9499 16.8454 7.0899 16.9554C9.9999 19.2054 13.9799 19.0554 16.8899 16.9654C17.0499 16.8554 17.1399 16.6754 17.1399 16.4754V11.9854C17.1399 11.9854 17.1299 11.9254 17.1199 11.8854L18.4999 11.3054V14.6854C18.4999 15.0154 18.7699 15.2854 19.0999 15.2854C19.4299 15.2854 19.6999 15.0154 19.6999 14.6854V10.8054L20.7299 10.3654C20.9499 10.2754 21.0999 10.0554 21.0999 9.81539C21.0999 9.57539 20.9599 9.35539 20.7299 9.26539V9.27539ZM11.9999 6.89539L18.9599 9.83539L11.9999 12.7754L5.0399 9.83539L11.9999 6.89539ZM15.9399 16.1854C13.5199 17.7754 10.3999 17.8554 8.0499 16.1954V12.4054L11.7599 13.9754C11.9099 14.0354 12.0799 14.0354 12.2299 13.9754L15.9399 12.4054V16.1854Z" fill="#333333"/>
</svg>
