<svg width="24" height="24" viewBox="0 0 24 24" fill="none" xmlns="http://www.w3.org/2000/svg">
<path fill-rule="evenodd" clip-rule="evenodd" d="M9.8999 6.00039C9.8999 5.11674 10.6162 4.40039 11.4999 4.40039H12.4999C13.3836 4.40039 14.0999 5.11674 14.0999 6.00039V18.0004C14.0999 18.884 13.3836 19.6004 12.4999 19.6004H11.4999C10.6162 19.6004 9.8999 18.884 9.8999 18.0004V6.00039ZM11.4999 5.60039C11.279 5.60039 11.0999 5.77948 11.0999 6.00039V18.0004C11.0999 18.2213 11.279 18.4004 11.4999 18.4004H12.4999C12.7208 18.4004 12.8999 18.2213 12.8999 18.0004V6.00039C12.8999 5.77948 12.7208 5.60039 12.4999 5.60039H11.4999Z" fill="#333333"/>
<path fill-rule="evenodd" clip-rule="evenodd" d="M4.3999 13.0004C4.3999 12.1167 5.11625 11.4004 5.9999 11.4004H6.9999C7.88356 11.4004 8.5999 12.1167 8.5999 13.0004V18.0004C8.5999 18.884 7.88356 19.6004 6.9999 19.6004H5.9999C5.11625 19.6004 4.3999 18.884 4.3999 18.0004V13.0004ZM5.9999 12.6004C5.77899 12.6004 5.5999 12.7795 5.5999 13.0004V18.0004C5.5999 18.2213 5.77899 18.4004 5.9999 18.4004H6.9999C7.22082 18.4004 7.3999 18.2213 7.3999 18.0004V13.0004C7.3999 12.7795 7.22082 12.6004 6.9999 12.6004H5.9999Z" fill="#333333"/>
<path fill-rule="evenodd" clip-rule="evenodd" d="M16.9999 9.40039C16.1162 9.40039 15.3999 10.1167 15.3999 11.0004V18.0004C15.3999 18.884 16.1162 19.6004 16.9999 19.6004H17.9999C18.8836 19.6004 19.5999 18.884 19.5999 18.0004V11.0004C19.5999 10.1167 18.8836 9.40039 17.9999 9.40039H16.9999ZM16.5999 11.0004C16.5999 10.7795 16.779 10.6004 16.9999 10.6004H17.9999C18.2208 10.6004 18.3999 10.7795 18.3999 11.0004V18.0004C18.3999 18.2213 18.2208 18.4004 17.9999 18.4004H16.9999C16.779 18.4004 16.5999 18.2213 16.5999 18.0004V11.0004Z" fill="#333333"/>
</svg>
