<svg width="24" height="24" viewBox="0 0 24 24" fill="none" xmlns="http://www.w3.org/2000/svg">
<path fill-rule="evenodd" clip-rule="evenodd" d="M5.86012 13.9525C7.10396 13.2314 8.64202 13.0074 10.0355 13.0074C11.4291 13.0074 12.9671 13.2314 14.211 13.9525C15.4909 14.6944 16.4171 15.9414 16.5644 17.8524C16.6146 18.5046 16.0815 18.9999 15.485 18.9999H4.58612C3.98957 18.9999 3.45645 18.5046 3.50671 17.8524C3.65396 15.9414 4.58021 14.6944 5.86012 13.9525ZM4.71627 17.7999H15.3548C15.2065 16.3806 14.526 15.5221 13.6091 14.9906C12.6255 14.4204 11.3299 14.2074 10.0355 14.2074C8.7412 14.2074 7.44561 14.4204 6.46194 14.9906C5.54508 15.5221 4.86458 16.3806 4.71627 17.7999Z" fill="#333333"/>
<path fill-rule="evenodd" clip-rule="evenodd" d="M9.37319 5.72428C9.11734 5.8091 8.93241 5.90936 8.85128 5.96908C8.07352 6.54161 7.68864 7.78212 7.96089 9.0224C8.22347 10.2186 8.97555 10.9559 10.0282 10.9559C10.6986 10.9559 11.192 10.6708 11.5541 10.2063C11.9378 9.71409 12.1765 9.0049 12.1946 8.24942C12.2127 7.49288 12.0076 6.80716 11.6513 6.34046C11.3231 5.91065 10.8226 5.60039 10.0283 5.60039C9.86143 5.60039 9.62513 5.64076 9.37319 5.72428ZM8.13988 5.00269C5.60268 6.8704 6.44472 12.1559 10.0282 12.1559C14.3305 12.1559 14.702 4.40039 10.0283 4.40039C9.371 4.40039 8.56119 4.69255 8.13988 5.00269Z" fill="#333333"/>
<path fill-rule="evenodd" clip-rule="evenodd" d="M14.0632 5.60227C14.7966 5.62864 15.267 5.93004 15.5804 6.34046C15.9368 6.80716 16.1419 7.49288 16.1238 8.24942C16.1057 9.0049 15.867 9.71409 15.4833 10.2063C15.1212 10.6708 14.6278 10.9559 13.9574 10.9559C13.9091 10.9559 13.8615 10.9544 13.8145 10.9513L13.0261 12.0248C13.3123 12.1098 13.6229 12.1559 13.9574 12.1559C18.2597 12.1559 18.6311 4.40039 13.9574 4.40039C13.6811 4.40039 13.3779 4.45202 13.0878 4.53491L14.0632 5.60227ZM17.5691 19.0004H19.4141C20.0106 19.0004 20.5438 18.5051 20.4935 17.8529C20.3462 15.9419 19.42 14.6949 18.1401 13.9529C17.2103 13.4139 16.1161 13.1527 15.0408 13.0551L16.5656 14.5667C16.9127 14.678 17.2398 14.8181 17.5383 14.9911C18.4551 15.5226 19.1356 16.381 19.2839 17.8004H17.5691V19.0004Z" fill="#333333"/>
<path fill-rule="evenodd" clip-rule="evenodd" d="M5.86012 13.9525C7.10396 13.2314 8.64202 13.0074 10.0355 13.0074C11.4291 13.0074 12.9671 13.2314 14.211 13.9525C15.4909 14.6944 16.4171 15.9414 16.5644 17.8524C16.6146 18.5046 16.0815 18.9999 15.485 18.9999H4.58612C3.98957 18.9999 3.45645 18.5046 3.50671 17.8524C3.65396 15.9414 4.58021 14.6944 5.86012 13.9525ZM4.71627 17.7999H15.3548C15.2065 16.3806 14.526 15.5221 13.6091 14.9906C12.6255 14.4204 11.3299 14.2074 10.0355 14.2074C8.7412 14.2074 7.44561 14.4204 6.46194 14.9906C5.54508 15.5221 4.86458 16.3806 4.71627 17.7999Z" fill="#333333"/>
<path fill-rule="evenodd" clip-rule="evenodd" d="M9.37319 5.72428C9.11734 5.8091 8.93241 5.90936 8.85128 5.96908C8.07352 6.54161 7.68864 7.78212 7.96089 9.0224C8.22347 10.2186 8.97555 10.9559 10.0282 10.9559C10.6986 10.9559 11.192 10.6708 11.5541 10.2063C11.9378 9.71409 12.1765 9.0049 12.1946 8.24942C12.2127 7.49288 12.0076 6.80716 11.6513 6.34046C11.3231 5.91065 10.8226 5.60039 10.0283 5.60039C9.86143 5.60039 9.62513 5.64076 9.37319 5.72428ZM8.13988 5.00269C5.60268 6.8704 6.44472 12.1559 10.0282 12.1559C14.3305 12.1559 14.702 4.40039 10.0283 4.40039C9.371 4.40039 8.56119 4.69255 8.13988 5.00269Z" fill="#333333"/>
<path fill-rule="evenodd" clip-rule="evenodd" d="M14.0632 5.60227C14.7966 5.62864 15.267 5.93004 15.5804 6.34046C15.9368 6.80716 16.1419 7.49288 16.1238 8.24942C16.1057 9.0049 15.867 9.71409 15.4833 10.2063C15.1212 10.6708 14.6278 10.9559 13.9574 10.9559C13.9091 10.9559 13.8615 10.9544 13.8145 10.9513L13.0261 12.0248C13.3123 12.1098 13.6229 12.1559 13.9574 12.1559C18.2597 12.1559 18.6311 4.40039 13.9574 4.40039C13.6811 4.40039 13.3779 4.45202 13.0878 4.53491L14.0632 5.60227ZM17.5691 19.0004H19.4141C20.0106 19.0004 20.5438 18.5051 20.4935 17.8529C20.3462 15.9419 19.42 14.6949 18.1401 13.9529C17.2103 13.4139 16.1161 13.1527 15.0408 13.0551L16.5656 14.5667C16.9127 14.678 17.2398 14.8181 17.5383 14.9911C18.4551 15.5226 19.1356 16.381 19.2839 17.8004H17.5691V19.0004Z" fill="#333333"/>
</svg>
