<svg width="24" height="24" viewBox="0 0 24 24" fill="none" xmlns="http://www.w3.org/2000/svg">
<path d="M18.8909 13.4746C18.5609 13.4046 18.2409 13.6146 18.1709 13.9446C18.1209 14.2046 18.0409 14.3446 17.8209 14.4746L14.1709 12.0446C13.8909 11.8546 13.5109 11.9346 13.3309 12.2146C13.1509 12.4946 13.2209 12.8646 13.5009 13.0546L16.9909 15.3746C16.9109 15.8546 16.6709 16.1446 16.2309 16.2946C16.1909 16.2446 16.1609 16.2046 16.1009 16.1646L13.2009 14.2246C12.9209 14.0346 12.5509 14.1146 12.3609 14.3946C12.1709 14.6746 12.2509 15.0446 12.5309 15.2346L15.3509 17.1146C15.2409 17.3346 15.1009 17.5246 14.8909 17.6446C14.7309 17.7446 14.4709 17.8246 14.1509 17.7946C14.1009 17.7146 14.0509 17.6346 13.9609 17.5846L11.9509 16.2446C11.6709 16.0646 11.3009 16.1346 11.1109 16.4146C10.9209 16.6946 11.0009 17.0646 11.2809 17.2546L12.9909 18.3946C12.6309 18.7546 11.9509 18.9746 11.5609 18.8246C11.5309 18.8146 8.78087 17.4946 7.37087 16.0146C6.24087 14.8346 4.42087 12.1146 3.69087 10.9946C3.60087 10.8546 3.61086 10.6846 3.71087 10.5546L6.30087 7.24457C6.40087 7.11457 6.57087 7.05457 6.74087 7.10457C7.08087 7.19457 7.49087 7.30457 7.81087 7.36457C8.01087 7.40457 8.15087 7.42457 8.28087 7.44457C8.61087 7.48457 8.92087 7.26457 8.96087 6.93457C9.01087 6.60457 8.78087 6.29457 8.45087 6.25457C8.34087 6.23457 8.22087 6.21457 8.04087 6.18457C7.75087 6.12457 7.37087 6.03457 7.05087 5.94457C6.41087 5.77457 5.74087 5.98457 5.34087 6.50457L2.75087 9.80457C2.33087 10.3446 2.29087 11.0846 2.67087 11.6646C3.60087 13.0846 5.33087 15.6446 6.48087 16.8546C8.05087 18.4946 10.9109 19.8646 11.0709 19.9446C11.3109 20.0346 11.5709 20.0746 11.8309 20.0746C12.6609 20.0746 13.5509 19.6546 14.0409 19.0146C14.5409 19.0546 15.0409 18.9546 15.4809 18.6946C15.9509 18.4146 16.3209 17.9846 16.5209 17.4846C17.4209 17.2146 17.9909 16.5746 18.1609 15.6646C18.7509 15.3946 19.1709 15.0046 19.3409 14.2046C19.4109 13.8746 19.2009 13.5546 18.8709 13.4846L18.8909 13.4746Z" fill="#333333"/>
<path d="M21.6007 9.8439C21.6007 9.8439 20.6407 7.9739 19.7307 6.8539L19.6307 6.7239C19.3707 6.4039 19.1807 6.1739 18.8307 5.9139C18.2207 5.4739 17.4907 5.8239 17.2507 5.9439C17.1207 6.0039 16.9207 6.1539 16.3407 6.5839C16.1907 6.6939 16.0607 6.7939 15.9707 6.8639C15.9307 6.8639 15.9007 6.8639 15.8707 6.8639C15.3407 6.8239 14.5107 6.6239 13.8407 6.4739C12.9507 6.2639 12.6607 6.2039 12.4307 6.2439C12.1507 6.2939 11.8307 6.4239 11.3707 6.6739C11.1907 6.7739 11.0207 6.8739 10.8507 6.9739L10.2907 7.3039C9.59074 7.7139 8.63074 8.2839 8.04074 8.5739C7.53074 8.8239 7.49074 9.2439 7.50074 9.4139C7.54074 10.3039 8.98074 10.9239 9.00074 10.9239C9.77074 11.2339 10.9007 10.8539 11.7907 10.4839C12.2707 10.2839 12.7007 10.1339 13.1807 9.9739C13.5707 9.9739 14.4607 10.5639 14.9007 10.8539C15.1007 10.9839 15.2807 11.1039 15.4307 11.1939L16.7207 11.9439C16.8007 11.9839 16.9007 12.0539 17.0207 12.1339C17.6107 12.5139 18.0307 12.7639 18.3707 12.8039C18.5007 12.8239 18.6007 12.8339 18.6807 12.8339C18.8307 12.8339 18.9607 12.8039 19.1907 12.7239C19.5507 12.5939 21.2307 11.4739 21.5307 11.0039C21.8807 10.4839 21.7607 10.1139 21.6107 9.8639M18.7507 11.5939L18.6807 11.6239C18.6807 11.6239 18.5907 11.6239 18.5407 11.6139C18.3807 11.5739 17.8907 11.2539 17.6707 11.1139C17.5407 11.0239 17.4207 10.9539 17.3307 10.9039L16.0407 10.1539C15.9107 10.0739 15.7507 9.9739 15.5607 9.8539C14.8207 9.3739 13.9107 8.7739 13.1507 8.7739C13.1007 8.7739 13.0407 8.7739 12.9907 8.7739L12.8707 8.8039C12.3307 8.9839 11.8607 9.1539 11.3307 9.3739C10.0007 9.9139 9.57074 9.8539 9.45074 9.8039C9.31074 9.7539 9.09074 9.6139 8.92074 9.4839C9.53074 9.1639 10.3107 8.6939 10.9107 8.3439L11.4807 8.0039C11.6407 7.9139 11.8007 7.8139 11.9607 7.7239C12.3607 7.5039 12.5607 7.4339 12.5807 7.4239C12.7007 7.4239 13.1907 7.5439 13.5807 7.6339C14.2907 7.8039 15.1607 8.0039 15.7907 8.0539C15.9807 8.0739 16.2007 8.0539 16.3207 8.0339C16.4807 8.0039 16.5207 7.9739 17.0907 7.5439C17.3807 7.3339 17.7007 7.0839 17.8007 7.0239C18.0407 6.9039 18.1407 6.8939 18.1407 6.8839C18.3607 7.0339 18.4607 7.1739 18.7007 7.4639L18.8107 7.5939C19.5507 8.5039 20.4107 10.1139 20.5307 10.3439C20.2607 10.6239 19.0507 11.4639 18.7807 11.5839L18.7507 11.5939Z" fill="#333333"/>
</svg>
