<svg width="24" height="24" viewBox="0 0 24 24" fill="none" xmlns="http://www.w3.org/2000/svg">
<path d="M20 11.8599C20 8.87987 18.7 6.47987 16.32 5.09987C13.76 3.61987 10.31 3.62987 7.72 5.11987C5.32 6.50987 4 8.89987 4 11.8599V13.9999C4 13.9999 4 13.9999 4 14.0099V18.0099C4 19.1099 4.9 20.0099 6 20.0099H7C8.1 20.0099 9 19.1099 9 18.0099V14.0099C9 12.9099 8.1 12.0099 7 12.0099H6C5.72 12.0099 5.45 12.0699 5.2 12.1799V11.8599C5.2 9.34987 6.31 7.32987 8.32 6.16987C10.55 4.88987 13.52 4.87987 15.72 6.14987C17.71 7.29987 18.8 9.32987 18.8 11.8699V12.1899C18.55 12.0799 18.28 12.0199 18 12.0199H17C15.9 12.0199 15 12.9199 15 14.0199V18.0199C15 19.1199 15.9 20.0199 17 20.0199H18C19.1 20.0199 20 19.1199 20 18.0199V14.1799V11.8699V11.8599ZM6 13.2099H7C7.44 13.2099 7.8 13.5699 7.8 14.0099V18.0099C7.8 18.4499 7.44 18.8099 7 18.8099H6C5.56 18.8099 5.2 18.4499 5.2 18.0099V14.1699V13.9999C5.2 13.5599 5.56 13.2099 6 13.2099ZM18.8 18.0099C18.8 18.4499 18.44 18.8099 18 18.8099H17C16.56 18.8099 16.2 18.4499 16.2 18.0099V14.0099C16.2 13.5699 16.56 13.2099 17 13.2099H18C18.44 13.2099 18.8 13.5699 18.8 14.0099V18.0099Z" fill="#333333"/>
</svg>
