<svg width="24" height="24" viewBox="0 0 24 24" fill="none" xmlns="http://www.w3.org/2000/svg">
<path fill-rule="evenodd" clip-rule="evenodd" d="M16.2599 6.60675C14.6473 6.51383 13.042 7.4051 12.5755 8.67349C12.4877 8.91199 12.2599 9.07466 12.0005 9.07466C11.7483 9.07466 11.5246 8.92064 11.4321 8.69058C10.9143 7.40278 9.29298 6.51566 7.70118 6.60771C6.92844 6.6524 6.2086 6.92895 5.66348 7.46591C5.12152 7.99974 4.70338 8.83923 4.61909 10.1012C4.50486 11.8114 5.30551 13.4648 6.67104 15.0244C8.03393 16.581 9.90459 17.9791 11.7856 19.1579C11.9111 19.2366 12.0724 19.2342 12.1986 19.1481C13.9555 17.9498 15.831 16.5516 17.2327 14.995C18.64 13.4322 19.4952 11.793 19.3822 10.1012C19.2981 8.84192 18.8748 8.0029 18.3253 7.46819C17.7718 6.9296 17.0408 6.65175 16.2599 6.60675ZM19.1622 6.60814C19.9596 7.38406 20.4793 8.51988 20.5795 10.0212C20.7242 12.1867 19.6216 14.1355 18.1244 15.798C16.6218 17.4667 14.6464 18.9311 12.8747 20.1395C12.3585 20.4916 11.6817 20.509 11.1484 20.1748C9.22348 18.9685 7.24171 17.4978 5.76821 15.8149C4.29735 14.135 3.27767 12.1785 3.42176 10.0212C3.52186 8.52248 4.03317 7.3874 4.82138 6.611C5.60641 5.83773 6.61743 5.46838 7.6319 5.40971C9.24557 5.31639 10.989 6.01206 11.9877 7.28329C12.9613 6.00575 14.713 5.31562 16.3289 5.40873C17.3486 5.46749 18.3687 5.83608 19.1622 6.60814Z" fill="#333333"/>
</svg>
