<svg width="24" height="24" viewBox="0 0 24 24" fill="none" xmlns="http://www.w3.org/2000/svg">
<path fill-rule="evenodd" clip-rule="evenodd" d="M10.5062 8.17188C10.148 8.17188 9.85763 8.46226 9.85763 8.82047L9.85759 13.7519C9.10125 14.0189 8.55928 14.7401 8.55928 15.5879C8.55928 16.6628 9.43073 17.5343 10.5057 17.5343C11.5807 17.5343 12.4521 16.6628 12.4521 15.5879C12.4521 14.7405 11.9106 14.0195 11.1548 13.7523L11.1548 8.82047C11.1548 8.46226 10.8644 8.17188 10.5062 8.17188ZM9.55928 15.5879C9.55928 15.0652 9.98302 14.6414 10.5057 14.6414C11.0284 14.6414 11.4521 15.0652 11.4521 15.5879C11.4521 16.1106 11.0284 16.5343 10.5057 16.5343C9.98302 16.5343 9.55928 16.1106 9.55928 15.5879Z" fill="#333333"/>
<path fill-rule="evenodd" clip-rule="evenodd" d="M10.5061 3.9707C8.87911 3.9707 7.56017 5.28964 7.56017 6.91663L7.56014 12.5498C6.72346 13.3348 6.19971 14.4518 6.19971 15.6908C6.19971 18.0691 8.12769 19.997 10.506 19.997C12.8842 19.997 14.8122 18.0691 14.8122 15.6908C14.8122 14.4519 14.2886 13.335 13.452 12.5499L13.452 6.91663C13.452 5.28964 12.1331 3.9707 10.5061 3.9707ZM8.56017 6.91663C8.56017 5.84192 9.4314 4.9707 10.5061 4.9707C11.5808 4.9707 12.452 5.84192 12.452 6.91663L12.452 12.7744C12.452 12.9222 12.5173 13.0623 12.6305 13.1573C13.3538 13.7646 13.8122 14.6739 13.8122 15.6908C13.8122 17.5168 12.332 18.997 10.506 18.997C8.67997 18.997 7.19971 17.5168 7.19971 15.6908C7.19971 14.6738 7.65823 13.7645 8.38162 13.1572C8.49479 13.0622 8.56014 12.922 8.56014 12.7742L8.56017 6.91663Z" fill="#333333"/>
<path d="M16.1567 11.3086C15.8253 11.3086 15.5567 11.5772 15.5567 11.9086C15.5567 12.24 15.8253 12.5086 16.1567 12.5086H20.6127C20.9441 12.5086 21.2127 12.24 21.2127 11.9086C21.2127 11.5772 20.9441 11.3086 20.6127 11.3086H16.1567Z" fill="#333333"/>
<path d="M15.5567 9.40859C15.5567 9.07722 15.8253 8.80859 16.1567 8.80859H18.7815C19.1129 8.80859 19.3815 9.07722 19.3815 9.40859C19.3815 9.73996 19.1129 10.0086 18.7815 10.0086H16.1567C15.8253 10.0086 15.5567 9.73996 15.5567 9.40859Z" fill="#333333"/>
<path d="M16.1567 6.30859C15.8253 6.30859 15.5567 6.57722 15.5567 6.90859C15.5567 7.23996 15.8253 7.50859 16.1567 7.50859H20.6127C20.9441 7.50859 21.2127 7.23996 21.2127 6.90859C21.2127 6.57722 20.9441 6.30859 20.6127 6.30859H16.1567Z" fill="#333333"/>
</svg>
