<svg width="24" height="24" viewBox="0 0 24 24" fill="none" xmlns="http://www.w3.org/2000/svg">
<path fill-rule="evenodd" clip-rule="evenodd" d="M12.2807 5.31674C12.1371 5.1702 11.8633 5.1702 11.7197 5.31674L5.27694 11.8887C5.22526 11.9414 5.20875 11.9875 5.20374 12.0217C5.19826 12.0591 5.20379 12.1031 5.22597 12.1488C5.26887 12.2372 5.37477 12.3301 5.55745 12.3301H6.45133C6.78271 12.3301 7.05133 12.5987 7.05133 12.9301V18.8037H9.55055V14.7797C9.55055 14.4483 9.81918 14.1797 10.1506 14.1797H13.8498C14.1811 14.1797 14.4498 14.4483 14.4498 14.7797V18.8037H16.949V12.9301C16.949 12.5987 17.2176 12.3301 17.549 12.3301H18.4429C18.6256 12.3301 18.7315 12.2372 18.7744 12.1488C18.7966 12.1031 18.8021 12.0591 18.7967 12.0217C18.7916 11.9875 18.7751 11.9414 18.7235 11.8887L12.2807 5.31674ZM10.8628 4.47668C11.4769 3.85022 12.5235 3.85022 13.1376 4.47668L19.5804 11.0486C20.0451 11.5227 20.1007 12.1642 19.8541 12.6726C19.6108 13.174 19.086 13.5301 18.4429 13.5301H18.149V19.0338C18.149 19.5694 17.7147 20.0037 17.1791 20.0037H14.2197C13.684 20.0037 13.2498 19.5694 13.2498 19.0338V15.3797H10.7506V19.0338C10.7506 19.5694 10.3163 20.0037 9.78063 20.0037H6.82126C6.28558 20.0037 5.85133 19.5694 5.85133 19.0338V13.5301H5.55745C4.91434 13.5301 4.38954 13.174 4.1463 12.6726C3.89971 12.1642 3.95528 11.5227 4.42003 11.0486L10.8628 4.47668Z" fill="#333333"/>
</svg>
