<svg width="24" height="24" viewBox="0 0 24 24" fill="none" xmlns="http://www.w3.org/2000/svg">
<path fill-rule="evenodd" clip-rule="evenodd" d="M6.58008 5.01309C6.58008 4.68172 6.84871 4.41309 7.18008 4.41309H16.9984C17.3298 4.41309 17.5984 4.68172 17.5984 5.01309C17.5984 5.34446 17.3298 5.61309 16.9984 5.61309H16.7449V8.29796C16.7449 8.46317 16.6952 8.60635 16.6488 8.70878C16.6001 8.81632 16.5368 8.9184 16.471 9.01115C16.3397 9.1963 16.1649 9.39143 15.974 9.58355C15.59 9.97023 15.0858 10.3996 14.5841 10.7955C14.0802 11.1931 13.5652 11.5677 13.1523 11.8451C13.1009 11.8796 13.0508 11.9129 13.002 11.9447C13.0508 11.9766 13.1009 12.0099 13.1523 12.0443C13.5652 12.3218 14.0802 12.6963 14.5841 13.0939C15.0858 13.4898 15.59 13.9192 15.974 14.3059C16.1649 14.498 16.3397 14.6932 16.471 14.8783C16.5368 14.9711 16.6001 15.0731 16.6488 15.1807C16.6952 15.2831 16.7449 15.4263 16.7449 15.5915V18.2764H16.9984C17.3298 18.2764 17.5984 18.545 17.5984 18.8764C17.5984 19.2077 17.3298 19.4764 16.9984 19.4764H7.18008C6.84871 19.4764 6.58008 19.2077 6.58008 18.8764C6.58008 18.545 6.84871 18.2764 7.18008 18.2764H7.34414V15.5915C7.34414 15.2953 7.48532 15.0314 7.60623 14.8476C7.7394 14.6452 7.91708 14.439 8.1105 14.24C8.49905 13.8404 9.0076 13.4132 9.5112 13.0264C10.0174 12.6377 10.5342 12.278 10.9483 12.0133C10.985 11.9898 11.0212 11.9669 11.0567 11.9447C11.0212 11.9225 10.985 11.8996 10.9483 11.8761C10.5342 11.6114 10.0174 11.2517 9.5112 10.863C9.0076 10.4763 8.49905 10.0491 8.1105 9.64943C7.91708 9.45049 7.7394 9.24421 7.60623 9.04182C7.48532 8.85808 7.34414 8.59418 7.34414 8.29796V5.61309H7.18008C6.84871 5.61309 6.58008 5.34446 6.58008 5.01309ZM8.54414 5.61309V8.26667C8.54985 8.28049 8.5663 8.31781 8.60868 8.3822C8.68381 8.49638 8.80441 8.6417 8.97087 8.81291C9.3021 9.15359 9.75979 9.54092 10.2421 9.91126C10.7217 10.2796 11.2104 10.6195 11.5946 10.8651C11.7738 10.9796 11.9245 11.07 12.0376 11.1322C12.1512 11.0662 12.3026 10.9703 12.483 10.8491C12.8683 10.5902 13.3587 10.2339 13.8407 9.8535C14.3248 9.4715 14.7869 9.07588 15.1226 8.7379C15.2917 8.56769 15.4151 8.42558 15.4921 8.317C15.5179 8.2807 15.5346 8.25349 15.5449 8.23491V5.61309H8.54414ZM8.54414 18.2764H15.5449V15.6545C15.5346 15.636 15.5179 15.6088 15.4921 15.5725C15.4151 15.4639 15.2917 15.3218 15.1226 15.1516C14.7869 14.8136 14.3248 14.418 13.8407 14.036C13.3587 13.6556 12.8683 13.2993 12.483 13.0404C12.3026 12.9192 12.1512 12.8233 12.0376 12.7573C11.9245 12.8195 11.7738 12.9099 11.5946 13.0244C11.2104 13.27 10.7217 13.6098 10.2421 13.9782C9.75979 14.3485 9.3021 14.7359 8.97087 15.0765C8.80441 15.2478 8.68381 15.3931 8.60868 15.5072C8.5663 15.5716 8.54985 15.609 8.54414 15.6228V18.2764Z" fill="#333333"/>
</svg>
