<svg width="24" height="24" viewBox="0 0 24 24" fill="none" xmlns="http://www.w3.org/2000/svg">
<path fill-rule="evenodd" clip-rule="evenodd" d="M9.21416 19.6478C9.21416 19.3164 9.48279 19.0478 9.81416 19.0478H14.1896C14.5209 19.0478 14.7896 19.3164 14.7896 19.6478C14.7896 19.9791 14.5209 20.2478 14.1896 20.2478H9.81416C9.48279 20.2478 9.21416 19.9791 9.21416 19.6478Z" fill="#333333"/>
<path fill-rule="evenodd" clip-rule="evenodd" d="M14.2859 5.77349C13.0978 5.15291 11.6521 5.04639 10.3828 5.48639C9.1137 5.92631 8.05779 6.89949 7.52812 8.11128C7.25968 8.72542 7.13233 9.20358 7.13262 10.0356C7.13313 11.5107 7.96391 13.0971 9.06652 14.1832C9.58305 14.6919 9.76625 15.4025 9.76625 16.3512C9.76625 16.5247 9.8113 16.6174 9.8447 16.6569C9.86416 16.6799 9.92028 16.7375 10.1108 16.7375H13.8474C14.0814 16.7375 14.2052 16.5854 14.1931 16.3877L14.1926 16.3789C14.1666 15.8155 14.2224 15.3737 14.3545 15.009C14.4902 14.6342 14.6911 14.3835 14.8835 14.1889C16.3745 12.68 17.2377 10.7554 16.7111 8.78485C16.3704 7.50994 15.4738 6.39387 14.2859 5.77349ZM14.8414 4.70983C13.3597 3.93589 11.5708 3.80453 9.98976 4.35257C8.40838 4.90076 7.09401 6.10826 6.42857 7.63068C6.09946 8.38361 5.93227 9.02491 5.93262 10.036C5.93327 11.9183 6.96242 13.795 8.22442 15.0381C8.40497 15.2159 8.56625 15.5337 8.56625 16.3512C8.56625 16.7114 8.65767 17.1118 8.92864 17.4321C9.21356 17.7688 9.62973 17.9375 10.1108 17.9375H13.8474C14.7892 17.9375 15.4413 17.1872 15.3912 16.3198C15.3704 15.8619 15.4206 15.5893 15.4828 15.4175C15.5415 15.2553 15.6233 15.1475 15.7371 15.0323C17.3963 13.3532 18.5478 11.01 17.8704 8.47505C17.4419 6.87137 16.3236 5.4839 14.8414 4.70983Z" fill="#333333"/>
</svg>
