<svg width="24" height="24" viewBox="0 0 24 24" fill="none" xmlns="http://www.w3.org/2000/svg">
<path fill-rule="evenodd" clip-rule="evenodd" d="M7.65674 9.66102C7.65674 8.55435 8.55387 7.65723 9.66053 7.65723C10.7672 7.65723 11.6643 8.55435 11.6643 9.66102C11.6643 10.7677 10.7672 11.6648 9.66053 11.6648C8.55387 11.6648 7.65674 10.7677 7.65674 9.66102ZM9.66053 8.85723C9.21661 8.85723 8.85674 9.2171 8.85674 9.66102C8.85674 10.1049 9.21661 10.4648 9.66053 10.4648C10.1045 10.4648 10.4643 10.1049 10.4643 9.66102C10.4643 9.2171 10.1045 8.85723 9.66053 8.85723Z" fill="#333333"/>
<path fill-rule="evenodd" clip-rule="evenodd" d="M4.84912 7.94961C4.84912 6.23753 6.23704 4.84961 7.94912 4.84961H16.0512C17.7633 4.84961 19.1512 6.23753 19.1512 7.94961V16.0517C19.1512 17.7637 17.7633 19.1517 16.0512 19.1517H7.94912C6.23704 19.1517 4.84912 17.7637 4.84912 16.0517V7.94961ZM7.94912 6.04961C6.89978 6.04961 6.04912 6.90027 6.04912 7.94961V16.0517C6.04912 16.8078 6.49078 17.4607 7.13018 17.7666C7.15081 17.7334 7.17499 17.7018 7.20275 17.6723L12.7777 11.7383C13.5676 10.8975 14.8877 10.8513 15.7345 11.6348L17.9512 13.6859V7.94961C17.9512 6.90027 17.1005 6.04961 16.0512 6.04961H7.94912ZM17.9512 15.3208L14.9195 12.5156C14.5566 12.1798 13.9908 12.1996 13.6523 12.5599L8.5868 17.9517H16.0512C17.1005 17.9517 17.9512 17.101 17.9512 16.0517V15.3208Z" fill="#333333"/>
</svg>
