<svg width="24" height="24" viewBox="0 0 24 24" fill="none" xmlns="http://www.w3.org/2000/svg">
<path fill-rule="evenodd" clip-rule="evenodd" d="M12 18.8C15.7555 18.8 18.8 15.7555 18.8 12C18.8 8.24447 15.7555 5.2 12 5.2C8.24447 5.2 5.2 8.24447 5.2 12C5.2 15.7555 8.24447 18.8 12 18.8ZM20 12C20 16.4183 16.4183 20 12 20C7.58173 20 4 16.4183 4 12C4 7.58173 7.58173 4 12 4C16.4183 4 20 7.58173 20 12Z" fill="#333333"/>
<path fill-rule="evenodd" clip-rule="evenodd" d="M12.0044 10.4C12.3358 10.4 12.6044 10.6686 12.6044 11V16C12.6044 16.3314 12.3358 16.6 12.0044 16.6C11.673 16.6 11.4044 16.3314 11.4044 16V11C11.4044 10.6686 11.673 10.4 12.0044 10.4Z" fill="#333333"/>
<path fill-rule="evenodd" clip-rule="evenodd" d="M12.0044 7.92572C12.4186 7.92571 12.7544 8.26149 12.7544 8.67571L12.7544 8.7484C12.7544 9.16261 12.4186 9.49841 12.0044 9.49841C11.5902 9.49842 11.2544 9.16264 11.2544 8.74843L11.2544 8.67573C11.2544 8.26152 11.5902 7.92573 12.0044 7.92572Z" fill="#333333"/>
</svg>
