<svg width="24" height="24" viewBox="0 0 24 24" fill="none" xmlns="http://www.w3.org/2000/svg">
<path d="M8.61273 7.36992C8.37273 7.59992 7.99273 7.59992 7.76273 7.36992L7.11273 6.71992V17.2699L7.76273 16.6199C8.00273 16.3899 8.38273 16.3899 8.61273 16.6199C8.84273 16.8599 8.84273 17.2399 8.61273 17.4699L6.93273 19.1499C6.82273 19.2699 6.66273 19.3299 6.51273 19.3299C6.36273 19.3299 6.20273 19.2599 6.09273 19.1499L4.41273 17.4699C4.18273 17.2299 4.18273 16.8499 4.41273 16.6199C4.65273 16.3899 5.03273 16.3899 5.26273 16.6199L5.92273 17.2799V6.70992L5.26273 7.36992C5.02273 7.59992 4.64273 7.60992 4.41273 7.36992C4.18273 7.12992 4.18273 6.74992 4.41273 6.51992L6.09273 4.84992C6.20273 4.72992 6.36273 4.66992 6.51273 4.66992C6.66273 4.66992 6.82273 4.73992 6.93273 4.84992L8.61273 6.51992C8.84273 6.75992 8.84273 7.13992 8.61273 7.36992Z" fill="#333333"/>
<path d="M11.0731 8.29961H19.6731C20.0031 8.29961 20.2731 8.02961 20.2731 7.69961C20.2731 7.36961 20.0031 7.09961 19.6731 7.09961H11.0731C10.7431 7.09961 10.4731 7.36961 10.4731 7.69961C10.4731 8.02961 10.7431 8.29961 11.0731 8.29961Z" fill="#333333"/>
<path d="M11.0731 11.3604H19.6731C20.0031 11.3604 20.2731 11.6304 20.2731 11.9604C20.2731 12.2904 20.0031 12.5604 19.6731 12.5604H11.0731C10.7431 12.5604 10.4731 12.2904 10.4731 11.9604C10.4731 11.6304 10.7431 11.3604 11.0731 11.3604Z" fill="#333333"/>
<path d="M11.0731 15.6602H19.6731C20.0031 15.6602 20.2731 15.9302 20.2731 16.2602C20.2731 16.5902 20.0031 16.8602 19.6731 16.8602H11.0731C10.7431 16.8602 10.4731 16.5902 10.4731 16.2602C10.4731 15.9302 10.7431 15.6602 11.0731 15.6602Z" fill="#333333"/>
</svg>
