<svg width="24" height="24" viewBox="0 0 24 24" fill="none" xmlns="http://www.w3.org/2000/svg">
<path fill-rule="evenodd" clip-rule="evenodd" d="M11.9722 4.21387C9.03007 4.21387 6.64502 6.59891 6.64502 9.54102C6.64502 12.4831 9.03007 14.8682 11.9722 14.8682C14.9141 14.868 17.2993 12.483 17.2993 9.54102C17.2993 6.59903 14.9141 4.21406 11.9722 4.21387ZM16.0993 9.54102C16.0993 9.85548 16.0641 10.1617 15.9975 10.4561H14.4017C14.4495 10.1539 14.4775 9.84846 14.4851 9.54102C14.4773 9.22456 14.4479 8.91021 14.3974 8.59941H15.9914C16.062 8.90185 16.0993 9.21708 16.0993 9.54102ZM13.1783 8.59941C13.2396 8.91065 13.2753 9.22528 13.2846 9.54102C13.2755 9.84777 13.2416 10.1535 13.1834 10.4561H10.7616C10.7034 10.1535 10.6695 9.84777 10.6604 9.54102C10.6698 9.22528 10.7054 8.91065 10.7668 8.59941H13.1783ZM14.0926 7.39941H15.5009C14.9783 6.54014 14.1506 5.88685 13.1683 5.58987C13.5619 6.15954 13.8722 6.76729 14.0926 7.39941ZM13.1683 13.4922C14.1607 13.1921 14.9953 12.5284 15.5169 11.6561H14.1018C13.8809 12.2977 13.5675 12.9145 13.1683 13.4922ZM11.1276 11.6561C11.3396 12.1573 11.622 12.6408 11.9725 13.0959C12.323 12.6408 12.6055 12.1573 12.8174 11.6561H11.1276ZM9.8432 11.6561C10.0642 12.2978 10.3777 12.9147 10.7769 13.4924C9.7841 13.1925 8.94922 12.5287 8.42743 11.6561H9.8432ZM9.54336 10.4561H7.94681C7.88019 10.1617 7.84502 9.85548 7.84502 9.54102C7.84502 9.21708 7.88234 8.90185 7.95292 8.59941H9.54762C9.49718 8.91021 9.46773 9.22456 9.45996 9.54102C9.46751 9.84846 9.49552 10.1539 9.54336 10.4561ZM9.8524 7.39941H8.44345C8.96622 6.53988 9.7942 5.88645 10.7769 5.5896C10.3832 6.15935 10.0729 6.76719 9.8524 7.39941ZM11.1389 7.39941C11.3496 6.90766 11.6282 6.43317 11.9725 5.98611C12.3168 6.43317 12.5955 6.90766 12.8061 7.39941H11.1389Z" fill="#909090"/>
<path fill-rule="evenodd" clip-rule="evenodd" d="M6.30491 6.73926C5.51897 6.73926 4.88184 7.37639 4.88184 8.16233V15.625C4.88184 16.4534 5.55341 17.125 6.38183 17.125H17.5624C18.3908 17.125 19.0624 16.4534 19.0624 15.625V8.15998C19.0624 7.37534 18.4263 6.73926 17.6416 6.73926C17.3655 6.73926 17.1416 6.5154 17.1416 6.23926C17.1416 5.96312 17.3655 5.73926 17.6416 5.73926C18.9786 5.73926 20.0624 6.82305 20.0624 8.15998V15.625C20.0624 17.0057 18.9431 18.125 17.5624 18.125H16.2483C16.2405 19.1105 15.4388 19.9104 14.4479 19.9104H9.6792C8.65529 19.9104 7.7944 19.1422 7.67817 18.125H6.38183C5.00112 18.125 3.88184 17.0057 3.88184 15.625V8.16233C3.88184 6.8241 4.96668 5.73926 6.30491 5.73926C6.58105 5.73926 6.80491 5.96312 6.80491 6.23926C6.80491 6.5154 6.58105 6.73926 6.30491 6.73926ZM8.6912 18.125C8.79602 18.5797 9.20252 18.9104 9.6792 18.9104H14.4479C14.8856 18.9104 15.2403 18.5593 15.2482 18.125H8.6912Z" fill="#909090"/>
</svg>
