<svg width="24" height="24" viewBox="0 0 24 24" fill="none" xmlns="http://www.w3.org/2000/svg">
<path fill-rule="evenodd" clip-rule="evenodd" d="M6.64502 9.54102C6.64502 6.59891 9.03007 4.21387 11.9722 4.21387C14.9141 4.21406 17.2993 6.59903 17.2993 9.54102C17.2993 12.483 14.9141 14.868 11.9722 14.8682C9.03007 14.8682 6.64502 12.4831 6.64502 9.54102ZM15.9975 10.4561C16.0641 10.1617 16.0993 9.85548 16.0993 9.54102C16.0993 9.21708 16.062 8.90185 15.9914 8.59941H14.3974C14.4479 8.91021 14.4773 9.22456 14.4851 9.54102C14.4775 9.84846 14.4495 10.1539 14.4017 10.4561H15.9975ZM13.2846 9.54102C13.2753 9.22528 13.2396 8.91065 13.1783 8.59941H10.7668C10.7054 8.91065 10.6698 9.22528 10.6604 9.54102C10.6695 9.84777 10.7034 10.1535 10.7616 10.4561H13.1834C13.2416 10.1535 13.2755 9.84777 13.2846 9.54102ZM15.5009 7.39941H14.0926C13.8722 6.76729 13.5619 6.15954 13.1683 5.58987C14.1506 5.88685 14.9783 6.54014 15.5009 7.39941ZM15.5169 11.6561C14.9953 12.5284 14.1607 13.1921 13.1683 13.4922C13.5675 12.9145 13.8809 12.2977 14.1018 11.6561H15.5169ZM11.9725 13.0959C11.622 12.6408 11.3396 12.1573 11.1276 11.6561H12.8174C12.6055 12.1573 12.323 12.6408 11.9725 13.0959ZM10.7769 13.4924C10.3777 12.9147 10.0642 12.2978 9.8432 11.6561H8.42743C8.94922 12.5287 9.7841 13.1925 10.7769 13.4924ZM7.94681 10.4561H9.54336C9.49552 10.1539 9.46751 9.84846 9.45996 9.54102C9.46773 9.22456 9.49718 8.91021 9.54762 8.59941H7.95292C7.88234 8.90185 7.84502 9.21708 7.84502 9.54102C7.84502 9.85548 7.88019 10.1617 7.94681 10.4561ZM8.44345 7.39941H9.8524C10.0729 6.76719 10.3832 6.15935 10.7769 5.5896C9.7942 5.88645 8.96622 6.53988 8.44345 7.39941ZM11.9725 5.98611C11.6282 6.43317 11.3496 6.90766 11.1389 7.39941H12.8061C12.5955 6.90766 12.3168 6.43317 11.9725 5.98611Z" fill="#333333"/>
<path fill-rule="evenodd" clip-rule="evenodd" d="M6.30481 6.83965C5.5741 6.83965 4.98174 7.43201 4.98174 8.16272V15.5072C4.98174 16.2804 5.60854 16.9072 6.38174 16.9072H17.5623C18.3355 16.9072 18.9623 16.2804 18.9623 15.5072V8.16037C18.9623 7.43096 18.371 6.83965 17.6415 6.83965C17.3102 6.83965 17.0415 6.57102 17.0415 6.23965C17.0415 5.90828 17.3102 5.63965 17.6415 5.63965C19.0337 5.63965 20.1623 6.76821 20.1623 8.16037V15.5072C20.1623 16.9431 18.9982 18.1072 17.5623 18.1072H16.3482C16.3502 19.1561 15.5001 20.0107 14.4477 20.0107H9.51766C8.45777 20.0107 7.5961 19.1621 7.5751 18.1072H6.38174C4.9458 18.1072 3.78174 16.9431 3.78174 15.5072V8.16272C3.78174 6.76927 4.91136 5.63965 6.30481 5.63965C6.63618 5.63965 6.90481 5.90828 6.90481 6.23965C6.90481 6.57102 6.63618 6.83965 6.30481 6.83965ZM8.77574 18.1072H15.1482C15.15 18.4947 14.8362 18.8107 14.4477 18.8107H9.51766C9.12056 18.8107 8.79623 18.4992 8.77574 18.1072Z" fill="#333333"/>
</svg>
