<svg width="24" height="24" viewBox="0 0 24 24" fill="none" xmlns="http://www.w3.org/2000/svg">
<path d="M14.5347 4.90709C15.6781 5.39038 17.0425 5.96705 18.1299 6.42711H18.1399C19.0199 6.80711 19.5999 7.67711 19.5999 8.63711V17.2171C19.5999 18.1571 18.8399 18.9171 17.8999 18.9171H17.2699C16.9399 18.9171 16.6699 18.6471 16.6699 18.3171C16.6699 17.9871 16.9399 17.7171 17.2699 17.7171H17.8999C18.1799 17.7171 18.3999 17.4971 18.3999 17.2171V8.64711C18.3999 8.15711 18.1099 7.72711 17.6699 7.53711C16.5821 7.07689 15.2171 6.49996 14.0734 6.01656C13.577 5.80672 13.1222 5.61451 12.7499 5.45711C12.2699 5.25711 11.7399 5.25711 11.2699 5.45711C10.0818 5.94973 8.03535 6.81556 6.49137 7.4688L6.3299 7.53711C5.8899 7.71711 5.5999 8.15711 5.5999 8.63711V17.2171C5.5999 17.4971 5.8199 17.7171 6.0999 17.7171H6.7599C7.0899 17.7171 7.3599 17.9871 7.3599 18.3171C7.3599 18.6471 7.0899 18.9171 6.7599 18.9171H6.0999C5.1599 18.9171 4.3999 18.1571 4.3999 17.2171V8.64711C4.3999 7.68711 4.9699 6.81711 5.8599 6.43711C6.97417 5.95854 8.38946 5.36263 9.55548 4.87168C10.0219 4.67528 10.4485 4.49569 10.7999 4.34711C11.5699 4.01711 12.4399 4.01711 13.2099 4.34711C13.5825 4.50464 14.0377 4.69705 14.5347 4.90709Z" fill="#333333"/>
<path fill-rule="evenodd" clip-rule="evenodd" d="M14.4902 11.1064V12.9064C15.0402 12.9064 15.4902 13.3564 15.4902 13.9064V17.9064C15.4902 18.4564 15.0402 18.9064 14.4902 18.9064H9.49023C8.94023 18.9064 8.49023 18.4564 8.49023 17.9064V13.9064C8.49023 13.3564 8.94023 12.9064 9.49023 12.9064V11.1064C9.49023 10.5564 9.94023 10.1064 10.4902 10.1064H13.4902C14.0402 10.1064 14.4902 10.5564 14.4902 11.1064ZM13.2902 11.3064H10.6902V12.9064H13.2902V11.3064ZM9.69024 17.7064H14.2902V14.1064H9.69024V17.7064Z" fill="#333333"/>
</svg>
