<svg width="24" height="24" viewBox="0 0 24 24" fill="none" xmlns="http://www.w3.org/2000/svg">
<path fill-rule="evenodd" clip-rule="evenodd" d="M16.8752 18.376C17.1454 18.1022 17.3 17.7274 17.3 17.3334V6.49864C17.3 5.78 16.7197 5.2 16.0024 5.2H8.13158C7.75707 5.2 7.39463 5.35061 7.12491 5.62393C6.85465 5.89779 6.7 6.27259 6.7 6.66666V17.3334C6.7 17.7274 6.85464 18.1022 7.12487 18.376C7.39464 18.6494 7.75711 18.8 8.13158 18.8H15.8684C16.2429 18.8 16.6054 18.6493 16.8752 18.376ZM17.7292 19.2189C18.2228 18.7189 18.5 18.0406 18.5 17.3334V6.49864C18.5 5.11793 17.3831 4 16.0024 4H8.13158C7.43364 4 6.76429 4.28095 6.27078 4.78105C5.77726 5.28114 5.5 5.95942 5.5 6.66666V17.3334C5.5 18.0406 5.77726 18.7189 6.27078 19.2189C6.76429 19.719 7.43364 20 8.13158 20H15.8684C16.5663 20 17.2357 19.719 17.7292 19.2189Z" fill="#333333"/>
<path fill-rule="evenodd" clip-rule="evenodd" d="M8.9 16.2998C8.9 15.9684 9.16863 15.6998 9.5 15.6998H14.5C14.8314 15.6998 15.1 15.9684 15.1 16.2998C15.1 16.6312 14.8314 16.8998 14.5 16.8998H9.5C9.16863 16.8998 8.9 16.6312 8.9 16.2998Z" fill="#333333"/>
<path fill-rule="evenodd" clip-rule="evenodd" d="M12.0304 6.95117C12.3476 6.95117 12.6073 7.19739 12.6289 7.50915C13.2621 7.6651 13.7951 8.07662 14.0884 8.75363C14.2201 9.0577 14.0803 9.41097 13.7763 9.54268C13.4722 9.67439 13.1189 9.53466 12.9872 9.23059C12.8173 8.83831 12.4952 8.63749 12.0216 8.63749C11.6607 8.63749 11.4151 8.73805 11.2789 8.84965C11.155 8.95122 11.1023 9.07254 11.1137 9.22302C11.1238 9.35581 11.1778 9.45703 11.3153 9.55421C11.4735 9.66607 11.7434 9.76803 12.1507 9.82014C12.6621 9.88557 13.1615 10.032 13.5462 10.3241C13.9583 10.6372 14.2023 11.0926 14.2023 11.6555C14.2023 12.189 13.9953 12.6742 13.5703 13.0114C13.306 13.2211 12.9841 13.3527 12.6273 13.4192C12.6019 13.7272 12.3439 13.9692 12.0294 13.9692C11.7161 13.9692 11.4589 13.7291 11.4318 13.4229C11.0665 13.3578 10.7592 13.2297 10.5072 13.048C10.1293 12.7756 9.92739 12.42 9.82618 12.1044C9.725 11.7888 9.89877 11.451 10.2143 11.3498C10.5299 11.2486 10.8677 11.4224 10.9689 11.738C11.0085 11.8615 11.0795 11.9813 11.2089 12.0746C11.3386 12.1681 11.5786 12.2721 12.0216 12.2721C12.4517 12.2721 12.6982 12.1715 12.8244 12.0714C12.9329 11.9853 13.0023 11.8623 13.0023 11.6555C13.0023 11.4782 12.9422 11.3723 12.8203 11.2797C12.671 11.1663 12.4065 11.0627 11.9985 11.0104C11.4864 10.9449 11.0016 10.802 10.6226 10.5341C10.2229 10.2516 9.95699 9.83822 9.91716 9.31394C9.8744 8.75119 10.1088 8.25702 10.5184 7.9214C10.775 7.71118 11.0888 7.57069 11.4327 7.49753C11.4599 7.19129 11.7171 6.95117 12.0304 6.95117Z" fill="#333333"/>
</svg>
