<svg width="24" height="24" viewBox="0 0 24 24" fill="none" xmlns="http://www.w3.org/2000/svg">
<path fill-rule="evenodd" clip-rule="evenodd" d="M5.46777 6.53066C5.46777 5.09472 6.63183 3.93066 8.06777 3.93066H15.9433C17.3792 3.93066 18.5433 5.09472 18.5433 6.53066V10.6733C18.5433 11.0046 18.2746 11.2733 17.9433 11.2733C17.6119 11.2733 17.3433 11.0046 17.3433 10.6733V6.53066C17.3433 5.75747 16.7165 5.13066 15.9433 5.13066H8.06777C7.29457 5.13066 6.66777 5.75747 6.66777 6.53066V17.475C6.66777 18.2482 7.29457 18.875 8.06777 18.875H13.797C14.1284 18.875 14.397 19.1436 14.397 19.475C14.397 19.8064 14.1284 20.075 13.797 20.075H8.06777C6.63183 20.075 5.46777 18.9109 5.46777 17.475V6.53066ZM8.8999 9.34219C8.8999 9.01082 9.16853 8.74219 9.4999 8.74219H14.4999C14.8313 8.74219 15.0999 9.01082 15.0999 9.34219C15.0999 9.67356 14.8313 9.94219 14.4999 9.94219H9.4999C9.16853 9.94219 8.8999 9.67356 8.8999 9.34219ZM9.40273 12.0889C9.73411 12.0889 10.0027 12.3575 10.0027 12.6889V13.2836C10.0027 13.7869 10.1671 14.2084 10.4701 14.5043C10.7718 14.7988 11.2737 15.0296 12.0648 15.0296H17.9442L16.4439 13.5439C16.2085 13.3107 16.2066 12.9308 16.4398 12.6954C16.673 12.4599 17.0529 12.4581 17.2883 12.6913L19.8249 15.2033C19.9387 15.316 20.0027 15.4695 20.0027 15.6297C20.0027 15.7898 19.9387 15.9433 19.8249 16.056L17.2883 18.5676C17.0528 18.8007 16.6729 18.7989 16.4398 18.5634C16.2066 18.3279 16.2085 17.948 16.444 17.7149L17.944 16.2296H12.0648C11.0351 16.2296 10.206 15.9234 9.63184 15.3629C9.05906 14.8037 8.80273 14.0522 8.80273 13.2836V12.6889C8.80273 12.3575 9.07136 12.0889 9.40273 12.0889Z" fill="#333333"/>
</svg>
