<svg width="24" height="24" viewBox="0 0 24 24" fill="none" xmlns="http://www.w3.org/2000/svg">
<path fill-rule="evenodd" clip-rule="evenodd" d="M16.9999 5.09961H9.9999C9.6699 5.09961 9.3999 5.36961 9.3999 5.69961C9.3999 6.02961 9.6699 6.29961 9.9999 6.29961H12.8099L9.9599 17.6996H6.9999C6.6699 17.6996 6.3999 17.9696 6.3999 18.2996C6.3999 18.6296 6.6699 18.8996 6.9999 18.8996H13.9999C14.3299 18.8996 14.5999 18.6296 14.5999 18.2996C14.5999 17.9696 14.3299 17.6996 13.9999 17.6996H11.1899L14.0399 6.29961H16.9999C17.3299 6.29961 17.5999 6.02961 17.5999 5.69961C17.5999 5.36961 17.3299 5.09961 16.9999 5.09961Z" fill="#333333"/>
</svg>
