<svg width="24" height="24" viewBox="0 0 24 24" fill="none" xmlns="http://www.w3.org/2000/svg">
<path fill-rule="evenodd" clip-rule="evenodd" d="M5.04688 8.04785C5.04688 6.391 6.39002 5.04785 8.04688 5.04785H15.9529C17.6098 5.04785 18.9529 6.391 18.9529 8.04785V15.9539C18.9529 17.6108 17.6098 18.9539 15.9529 18.9539H8.04687C6.39002 18.9539 5.04688 17.6108 5.04688 15.9539V8.04785ZM8.04688 6.24785C7.05276 6.24785 6.24688 7.05374 6.24688 8.04785V15.9539C6.24688 16.948 7.05276 17.7539 8.04687 17.7539H15.9529C16.947 17.7539 17.7529 16.948 17.7529 15.9539V8.04785C17.7529 7.05374 16.947 6.24785 15.9529 6.24785H8.04688Z" fill="#333333"/>
<path fill-rule="evenodd" clip-rule="evenodd" d="M8.70693 7.63672C9.0383 7.63672 9.30693 7.90535 9.30693 8.23672V13.1856C9.30693 13.5169 9.0383 13.7856 8.70693 13.7856C8.37556 13.7856 8.10693 13.5169 8.10693 13.1856V8.23672C8.10693 7.90535 8.37556 7.63672 8.70693 7.63672Z" fill="#333333"/>
<path fill-rule="evenodd" clip-rule="evenodd" d="M11.9999 7.63672C12.3313 7.63672 12.5999 7.90535 12.5999 8.23672V11.5359C12.5999 11.8673 12.3313 12.1359 11.9999 12.1359C11.6685 12.1359 11.3999 11.8673 11.3999 11.5359V8.23672C11.3999 7.90535 11.6685 7.63672 11.9999 7.63672Z" fill="#333333"/>
<path fill-rule="evenodd" clip-rule="evenodd" d="M15.2929 7.63672C15.6242 7.63672 15.8929 7.90535 15.8929 8.23672V14.4228C15.8929 14.7541 15.6242 15.0228 15.2929 15.0228C14.9615 15.0228 14.6929 14.7541 14.6929 14.4228V8.23672C14.6929 7.90535 14.9615 7.63672 15.2929 7.63672Z" fill="#333333"/>
</svg>
