<svg width="24" height="24" viewBox="0 0 24 24" fill="none" xmlns="http://www.w3.org/2000/svg">
<path fill-rule="evenodd" clip-rule="evenodd" d="M11.7307 4.59099C12.7991 3.92071 14.0633 3.63286 15.3166 3.77451C16.5699 3.91616 17.738 4.47894 18.6298 5.37078C19.5217 6.26262 20.0844 7.43072 20.2261 8.68398C20.3677 9.93725 20.0799 11.2015 19.4096 12.2699C18.7393 13.3383 17.7263 14.1476 16.5363 14.5654C15.4671 14.9408 14.3118 14.9802 13.2244 14.6834L12.4097 15.4981C12.2972 15.6106 12.1446 15.6738 11.9854 15.6738H11.0561V17.3678C11.0561 17.6992 10.7875 17.9678 10.4561 17.9678H8.7621V19.6618C8.7621 19.9932 8.49347 20.2618 8.1621 20.2618H5.10344C4.73769 20.2618 4.38627 20.1373 4.12479 19.8758C3.8633 19.6143 3.73877 19.2629 3.73877 18.8972V16.6032C3.73877 16.444 3.80198 16.2914 3.91451 16.1789L9.3172 10.7762C9.02041 9.68878 9.0598 8.53354 9.43519 7.46432C9.853 6.27429 10.6623 5.26127 11.7307 4.59099ZM15.1818 4.96692C14.1986 4.85578 13.2067 5.08163 12.3684 5.60751C11.5302 6.13339 10.8952 6.92818 10.5674 7.86185C10.2396 8.79551 10.2384 9.81279 10.5639 10.7473C10.6396 10.9646 10.5843 11.2061 10.4216 11.3689L4.93877 16.8517V18.8972C4.93877 18.9902 4.96717 19.0211 4.97332 19.0273C4.97947 19.0334 5.01038 19.0618 5.10344 19.0618H7.5621V17.3678C7.5621 17.0365 7.83073 16.7678 8.1621 16.7678H9.8561V15.0738C9.8561 14.7425 10.1247 14.4738 10.4561 14.4738H11.7369L12.6317 13.579C12.7945 13.4163 13.036 13.361 13.2533 13.4367C14.1878 13.7622 15.2051 13.761 16.1388 13.4332C17.0724 13.1054 17.8672 12.4704 18.3931 11.6322C18.919 10.7939 19.1448 9.80204 19.0337 8.81876C18.9225 7.83548 18.481 6.91902 17.7813 6.21931C17.0816 5.5196 16.1651 5.07805 15.1818 4.96692Z" fill="#333333"/>
<path d="M15.5592 9.80749C16.3136 9.80749 16.9252 9.19593 16.9252 8.44154C16.9252 7.68714 16.3136 7.07559 15.5592 7.07559C14.8048 7.07559 14.1933 7.68714 14.1933 8.44154C14.1933 9.19593 14.8048 9.80749 15.5592 9.80749Z" fill="#333333"/>
</svg>
