<svg width="24" height="24" viewBox="0 0 24 24" fill="none" xmlns="http://www.w3.org/2000/svg">
<path fill-rule="evenodd" clip-rule="evenodd" d="M11.7263 5.18653C12.7124 4.56787 13.8793 4.30218 15.036 4.43293C16.1928 4.56367 17.2709 5.08311 18.094 5.90626C18.9172 6.72941 19.4366 7.80754 19.5674 8.96428C19.6981 10.121 19.4324 11.2879 18.8138 12.274C18.1951 13.2601 17.2601 14.0071 16.1617 14.3927C15.1844 14.7359 14.1292 14.7748 13.134 14.5095L12.4108 15.2327C12.2983 15.3452 12.1457 15.4084 11.9865 15.4084H11.1892V16.9044C11.1892 17.2358 10.9206 17.5044 10.5892 17.5044H9.09322V19.0004C9.09322 19.3318 8.82459 19.6004 8.49322 19.6004H5.69857C5.35262 19.6004 5.0177 19.4825 4.76777 19.2325C4.51784 18.9826 4.3999 18.6477 4.3999 18.3017V16.2057C4.3999 16.0466 4.46312 15.894 4.57564 15.7815L9.49082 10.8663C9.22545 9.87112 9.26442 8.8159 9.60756 7.83856C9.99319 6.74018 10.7402 5.80518 11.7263 5.18653ZM14.9012 5.62534C14.0145 5.52511 13.12 5.72878 12.364 6.20304C11.6081 6.6773 11.0354 7.39407 10.7398 8.23608C10.4442 9.0781 10.4431 9.99551 10.7366 10.8382C10.8123 11.0556 10.757 11.2971 10.5943 11.4599L5.5999 16.4543V18.3017C5.5999 18.3398 5.60617 18.3621 5.61013 18.3724C5.61215 18.3776 5.61389 18.3806 5.61478 18.382C5.61565 18.3833 5.61616 18.3839 5.6163 18.384C5.61605 18.3838 5.61636 18.3841 5.6163 18.384C5.61661 18.3843 5.61756 18.385 5.61831 18.3855C5.61968 18.3864 5.62268 18.3881 5.62794 18.3902C5.63822 18.3941 5.66054 18.4004 5.69857 18.4004H7.89322V16.9044C7.89322 16.573 8.16185 16.3044 8.49322 16.3044H9.98921V14.8084C9.98921 14.477 10.2578 14.2084 10.5892 14.2084H11.738L12.5404 13.406C12.7032 13.2433 12.9447 13.188 13.162 13.2637C14.0048 13.5572 14.9222 13.5561 15.7642 13.2605C16.6062 12.9649 17.323 12.3922 17.7973 11.6363C18.2715 10.8803 18.4752 9.98582 18.375 9.09906C18.2747 8.2123 17.8765 7.38581 17.2455 6.75478C16.6145 6.12376 15.788 5.72556 14.9012 5.62534Z" fill="#333333"/>
<path d="M15.2519 9.99649C15.9411 9.99649 16.4999 9.43772 16.4999 8.74844C16.4999 8.05916 15.9411 7.50039 15.2519 7.50039C14.5626 7.50039 14.0038 8.05916 14.0038 8.74844C14.0038 9.43772 14.5626 9.99649 15.2519 9.99649Z" fill="#333333"/>
</svg>
