<svg width="24" height="24" viewBox="0 0 24 24" fill="none" xmlns="http://www.w3.org/2000/svg">
<path fill-rule="evenodd" clip-rule="evenodd" d="M9.65655 5.19835C8.9377 5.19843 8.21883 5.19852 7.49994 5.19858C7.00271 5.19862 6.5999 5.60148 6.5999 6.09839L6.60007 15.6369C6.98416 15.4178 7.42505 15.3013 7.8751 15.3013H17.4001L17.3999 6.09792C17.3999 5.60122 16.9974 5.19864 16.5005 5.19849C14.2192 5.19779 11.9379 5.19807 9.65655 5.19835ZM16.9583 16.5013C16.8394 16.8067 16.7465 17.1759 16.7465 17.5866C16.7465 18.0379 16.859 18.4579 16.9944 18.8013H7.8751C7.52411 18.8013 7.19511 18.6708 6.95867 18.4501C6.72363 18.2307 6.6001 17.9424 6.6001 17.6513C6.6001 17.3602 6.72363 17.0719 6.95867 16.8525C7.1951 16.6318 7.52411 16.5013 7.8751 16.5013H16.9583ZM5.4001 17.6513L5.3999 6.0984C5.39989 4.93845 6.34023 3.99867 7.49985 3.99858C8.21858 3.99852 8.93734 3.99843 9.65612 3.99835C11.9376 3.99807 14.2192 3.99779 16.5009 3.99849C17.6601 3.99884 18.5999 4.93834 18.5999 6.0979L18.6001 15.9013C18.6001 16.0493 18.5454 16.1921 18.4465 16.3022L18.4472 16.3014L18.435 16.3159C18.4233 16.3301 18.4044 16.3538 18.3806 16.3861C18.3326 16.4509 18.2668 16.5479 18.2007 16.6697C18.0659 16.9183 17.9465 17.2396 17.9465 17.5866C17.9465 18.0234 18.1342 18.4642 18.3045 18.7657C18.4595 19.0401 18.4304 19.3457 18.3093 19.5701C18.1867 19.7974 17.9345 20.0013 17.5951 20.0013H7.8751C7.23154 20.0013 6.60671 19.7631 6.13989 19.3274C5.67166 18.8904 5.4001 18.2884 5.4001 17.6513Z" fill="#333333"/>
<path fill-rule="evenodd" clip-rule="evenodd" d="M8.39989 8.40241C8.39989 8.07104 8.66852 7.80241 8.99989 7.80241H14.9999C15.3313 7.80241 15.5999 8.07104 15.5999 8.40241C15.5999 8.73378 15.3313 9.00241 14.9999 9.00241H8.99989C8.66852 9.00241 8.39989 8.73378 8.39989 8.40241Z" fill="#333333"/>
<path fill-rule="evenodd" clip-rule="evenodd" d="M8.39989 11.4024C8.39989 11.071 8.66852 10.8024 8.99989 10.8024H14.9999C15.3313 10.8024 15.5999 11.071 15.5999 11.4024C15.5999 11.7338 15.3313 12.0024 14.9999 12.0024H8.99989C8.66852 12.0024 8.39989 11.7338 8.39989 11.4024Z" fill="#333333"/>
</svg>
