<svg width="24" height="24" viewBox="0 0 24 24" fill="none" xmlns="http://www.w3.org/2000/svg">
<path fill-rule="evenodd" clip-rule="evenodd" d="M11.9999 4.40039C11.6411 4.40039 11.2912 4.50157 10.9858 4.69018L10.9849 4.69073L5.04325 8.33581L5.04179 8.3367C4.84092 8.45895 4.67886 8.6328 4.56801 8.83649C4.45699 9.04049 4.3999 9.26944 4.3999 9.50039C4.3999 9.73134 4.45699 9.96029 4.56801 10.1643C4.67888 10.368 4.84098 10.5419 5.04189 10.6641L5.04325 10.665L10.9849 14.31L10.986 14.3107C11.2914 14.4992 11.6412 14.6004 11.9999 14.6004C12.3586 14.6004 12.7084 14.4992 13.0138 14.3107L13.0149 14.31L18.9566 10.665L18.9579 10.6642C19.1588 10.5419 19.3209 10.368 19.4318 10.1643C19.5428 9.96029 19.5999 9.73135 19.5999 9.50039C19.5999 9.26944 19.5428 9.04049 19.4318 8.83649C19.3209 8.63278 19.1589 8.45892 18.958 8.33666L18.9566 8.33581L13.0149 4.69073L13.014 4.69018C12.7086 4.50157 12.3587 4.40039 11.9999 4.40039ZM11.6159 5.71144C11.7356 5.63744 11.8679 5.60039 11.9999 5.60039C12.1319 5.60039 12.2642 5.63744 12.3839 5.71144L12.3857 5.71252L18.3315 9.36018L18.334 9.3617C18.3478 9.37005 18.3643 9.38533 18.3778 9.41009C18.3913 9.43505 18.3999 9.46636 18.3999 9.50039C18.3999 9.53443 18.3913 9.56573 18.3778 9.59069C18.3643 9.61545 18.3478 9.63073 18.334 9.63908L18.3315 9.6406L12.3857 13.2883L12.3839 13.2893C12.2642 13.3633 12.1319 13.4004 11.9999 13.4004C11.8679 13.4004 11.7356 13.3633 11.6159 13.2893L5.66827 9.64059L5.66579 9.63908C5.65202 9.63073 5.63552 9.61545 5.62204 9.59069C5.60846 9.56573 5.5999 9.53443 5.5999 9.50039C5.5999 9.46635 5.60846 9.43505 5.62204 9.41009C5.63552 9.38533 5.65203 9.37006 5.66579 9.36171L11.6141 5.71252L11.6159 5.71144Z" fill="#333333"/>
<path d="M6.31365 13.9643C6.59611 13.791 6.68461 13.4215 6.51133 13.1391C6.33805 12.8566 5.96861 12.7681 5.68615 12.9414L5.04182 13.3367C4.84094 13.459 4.67886 13.6328 4.56801 13.8365C4.45699 14.0405 4.3999 14.2695 4.3999 14.5004C4.3999 14.7314 4.45699 14.9603 4.56801 15.1643C4.67886 15.368 4.84093 15.5418 5.0418 15.6641L5.04325 15.665L10.9857 19.3106C11.2912 19.4992 11.6411 19.6004 11.9999 19.6004C12.3587 19.6004 12.7095 19.4987 13.0149 19.3101L18.9566 15.665L18.958 15.6641C19.1589 15.5418 19.3209 15.368 19.4318 15.1643C19.5428 14.9603 19.5999 14.7314 19.5999 14.5004C19.5999 14.2695 19.5428 14.0405 19.4318 13.8365C19.3209 13.6328 19.1589 13.4589 18.958 13.3367L18.9566 13.3358L18.3137 12.9414C18.0312 12.7681 17.6618 12.8566 17.4885 13.1391C17.3152 13.4215 17.4037 13.791 17.6862 13.9643L18.3315 14.3602L18.334 14.3617C18.3478 14.3701 18.3643 14.3853 18.3778 14.4101C18.3913 14.4351 18.3999 14.4664 18.3999 14.5004C18.3999 14.5344 18.3913 14.5657 18.3778 14.5907C18.3643 14.6155 18.3478 14.6307 18.334 14.6391L18.3315 14.6406L12.3857 18.2883L12.3839 18.2894C12.2642 18.3633 12.1319 18.4004 11.9999 18.4004C11.8679 18.4004 11.7356 18.3633 11.6159 18.2894L5.66827 14.6406L5.66579 14.6391C5.65202 14.6307 5.63552 14.6155 5.62204 14.5907C5.60846 14.5657 5.5999 14.5344 5.5999 14.5004C5.5999 14.4664 5.60846 14.4351 5.62204 14.4101C5.63552 14.3853 5.65203 14.3701 5.66579 14.3617L6.31365 13.9643Z" fill="#333333"/>
</svg>
