<svg width="24" height="24" viewBox="0 0 24 24" fill="none" xmlns="http://www.w3.org/2000/svg">
<path d="M6.30947 17.9783C6.79165 18.7148 7.62403 19.2014 8.57006 19.2014H18.1037C19.7605 19.2014 21.1037 17.8582 21.1037 16.2014V10.2734C21.1037 9.34272 20.6327 8.52198 19.9162 8.03652V15.9783C19.9162 16.0544 19.9119 16.1294 19.9037 16.2032C19.9027 17.1965 19.0972 18.0014 18.1037 18.0014H8.57006C8.48021 18.0014 8.39221 17.9935 8.3067 17.9783H6.30947Z" fill="#333333"/>
<path fill-rule="evenodd" clip-rule="evenodd" d="M2.89648 7.63223C2.89648 6.19629 4.06054 5.03223 5.49648 5.03223H16.2602C17.6961 5.03223 18.8602 6.19629 18.8602 7.63223V14.5395C18.8602 15.9754 17.6961 17.1395 16.2602 17.1395H5.49648C4.06054 17.1395 2.89648 15.9754 2.89648 14.5395V7.63223ZM5.49648 6.23223C4.72329 6.23223 4.09648 6.85903 4.09648 7.63223V14.0155C4.93718 13.2175 6.1813 13.0186 7.18203 13.0186C7.97063 13.0186 8.8617 13.1398 9.61012 13.5444C10.3886 13.9652 10.9867 14.682 11.1428 15.7737C11.1509 15.8304 11.1545 15.8857 11.1539 15.9395H16.2602C17.0334 15.9395 17.6602 15.3127 17.6602 14.5395V7.63223C17.6602 6.85903 17.0334 6.23223 16.2602 6.23223H5.49648ZM9.9209 15.7581C9.79091 15.1839 9.46685 14.831 9.03946 14.6C8.53777 14.3288 7.87252 14.2186 7.18203 14.2186C6.04848 14.2186 5.07859 14.5089 4.65065 15.2262C4.61061 15.2933 4.60975 15.3361 4.61342 15.3632C4.61795 15.3966 4.63648 15.4487 4.6909 15.5112C4.80681 15.6442 5.03096 15.7581 5.28115 15.7581H9.9209ZM12.056 7.48948C12.7393 7.16975 13.5106 7.09009 14.2448 7.26342C14.8527 7.40692 15.4846 7.72638 15.9684 8.27031C16.4597 8.82271 16.7698 9.57553 16.7698 10.5228C16.7698 11.307 16.1188 12.0114 15.251 12.0114C14.8257 12.0114 14.5021 11.8654 14.2776 11.6996C14.0484 11.854 13.7723 11.9443 13.4749 11.9443C12.6789 11.9443 12.0356 11.298 12.0356 10.5034C12.0356 9.70872 12.6789 9.0625 13.4749 9.0625C14.2708 9.0625 14.9141 9.70872 14.9141 10.5034C14.9141 10.5509 14.9118 10.5978 14.9073 10.6442C14.9117 10.651 14.9159 10.6579 14.9201 10.6649C14.9201 10.6649 14.9225 10.6683 14.9245 10.6708C14.9337 10.6827 14.9515 10.7032 14.9778 10.7245C15.0249 10.7626 15.1069 10.8114 15.251 10.8114C15.4453 10.8114 15.5698 10.655 15.5698 10.5228C15.5698 9.85376 15.3574 9.389 15.0717 9.06783C14.7785 8.73818 14.379 8.52808 13.9691 8.43132C13.4979 8.3201 13.0031 8.37121 12.5646 8.57638C12.1262 8.78154 11.7698 9.12874 11.5533 9.56171C11.3368 9.99469 11.2729 10.4881 11.3718 10.9619C11.4708 11.4358 11.7268 11.8624 12.0985 12.1725C12.4701 12.4827 12.9356 12.6583 13.4195 12.6709C13.7258 12.6789 14.0281 12.6212 14.307 12.5042C14.6126 12.3759 14.9642 12.5197 15.0925 12.8252C15.2207 13.1308 15.077 13.4824 14.7714 13.6107C14.3368 13.7931 13.8657 13.8829 13.3884 13.8705C12.6342 13.8509 11.9088 13.5772 11.3296 13.0938C10.7504 12.6105 10.3514 11.9457 10.1972 11.2072C10.043 10.4687 10.1426 9.69981 10.48 9.02505C10.8174 8.3503 11.3727 7.80922 12.056 7.48948ZM6.94344 9.62342C6.84555 9.65587 6.78049 9.69259 6.75868 9.70865C6.48276 9.91176 6.32805 10.3728 6.43379 10.8545C6.53469 11.3142 6.81222 11.5651 7.17903 11.5651C7.41845 11.5651 7.59126 11.4657 7.72183 11.2982C7.86323 11.1169 7.95552 10.8486 7.9625 10.5572C7.96949 10.2652 7.88985 10.0087 7.7611 9.84007C7.64643 9.6899 7.47217 9.57793 7.17904 9.57793C7.12488 9.57793 7.03939 9.59161 6.94344 9.62342ZM6.56585 8.48437C6.74712 8.42428 6.96309 8.37793 7.17904 8.37793C7.84627 8.37793 8.37318 8.66436 8.71484 9.1118C9.04241 9.54078 9.17424 10.081 9.16215 10.5859C9.15005 11.0913 8.99271 11.6198 8.66823 12.036C8.33294 12.4661 7.82364 12.7651 7.17903 12.7651C6.07315 12.7651 5.44131 11.9301 5.26169 11.1118C5.08691 10.3155 5.28053 9.30669 6.04729 8.74225C6.19862 8.63085 6.38653 8.54382 6.56585 8.48437ZM13.4749 10.2625C13.3439 10.2625 13.2356 10.3692 13.2356 10.5034C13.2356 10.6375 13.3439 10.7443 13.4749 10.7443C13.6059 10.7443 13.7141 10.6375 13.7141 10.5034C13.7141 10.3692 13.6059 10.2625 13.4749 10.2625Z" fill="#333333"/>
</svg>
