<svg width="24" height="24" viewBox="0 0 24 24" fill="none" xmlns="http://www.w3.org/2000/svg">
<path fill-rule="evenodd" clip-rule="evenodd" d="M9.96319 6.40583C10.1871 6.16156 10.1706 5.78202 9.92633 5.5581C9.68206 5.33419 9.30252 5.35069 9.07861 5.59496L3.57861 11.595C3.36833 11.8244 3.36833 12.1764 3.57861 12.4058L9.07861 18.4058C9.30252 18.6501 9.68206 18.6666 9.92633 18.4427C10.1706 18.2188 10.1871 17.8392 9.96319 17.595L4.83484 12.0004L9.96319 6.40583ZM14.9692 5.59496C14.7453 5.35069 14.3658 5.33419 14.1215 5.5581C13.8772 5.78202 13.8607 6.16156 14.0847 6.40583L19.213 12.0004L14.0847 17.595C13.8607 17.8392 13.8772 18.2188 14.1215 18.4427C14.3658 18.6666 14.7453 18.6501 14.9692 18.4058L20.4692 12.4058C20.6795 12.1764 20.6795 11.8244 20.4692 11.595L14.9692 5.59496Z" fill="#333333"/>
</svg>
