<svg width="24" height="24" viewBox="0 0 24 24" fill="none" xmlns="http://www.w3.org/2000/svg">
<path fill-rule="evenodd" clip-rule="evenodd" d="M14.4834 5.13004C14.4821 5.13167 14.4805 5.13388 14.4786 5.13681C13.4893 6.65251 12.3977 7.84635 11.5544 8.66113C11.1321 9.06912 10.7704 9.3837 10.5123 9.59771C10.3833 9.70476 10.28 9.78676 10.2078 9.84283C10.1843 9.8611 10.1641 9.87663 10.1474 9.88937C10.1022 9.94802 10.0755 10.0234 10.0755 10.1014V17.0494C10.0755 17.1839 10.1066 17.242 10.12 17.2628C10.1354 17.2866 10.1591 17.3087 10.1993 17.3294C10.2425 17.3517 10.2931 17.366 10.338 17.3737C10.359 17.3773 10.3751 17.3788 10.3833 17.3794L10.3871 17.3797C10.3967 17.3799 10.4063 17.3802 10.4159 17.3808L11.3201 17.4355C11.8679 17.4684 12.6066 17.5122 13.3706 17.5559C14.9138 17.6443 16.5187 17.7302 16.9023 17.7302C17.0044 17.7302 17.1838 17.65 17.3476 17.3916C17.5166 17.1251 17.528 16.8875 17.5067 16.8186C17.4538 16.6479 17.4747 16.4629 17.5642 16.3082C17.6535 16.154 17.8029 16.044 17.9766 16.0045C17.9831 16.0017 18.0178 15.9836 18.0688 15.9056C18.1338 15.8061 18.192 15.6556 18.223 15.4792C18.254 15.3026 18.2501 15.1432 18.2278 15.0372C18.2237 15.0177 18.2196 15.0026 18.2161 14.9912C18.0438 14.8642 17.9445 14.6576 17.9566 14.4398C17.9705 14.1915 18.1269 13.9736 18.3577 13.881C18.5015 13.8232 18.6768 13.6168 18.747 13.2452C18.7792 13.075 18.779 12.9109 18.7559 12.7816C18.7337 12.6578 18.699 12.6089 18.6945 12.6025C18.5503 12.4575 18.4837 12.252 18.5156 12.05C18.5476 11.8481 18.674 11.6735 18.8559 11.5801C19.0609 11.4749 19.1388 11.366 19.181 11.2702C19.2328 11.1527 19.2564 10.9954 19.2586 10.7554C19.2607 10.5265 19.2289 10.3223 19.1684 10.1987C19.1423 10.1455 19.1219 10.1301 19.1173 10.127C19.1146 10.1251 19.1097 10.1222 19.0993 10.1191C19.0885 10.116 19.0665 10.1112 19.0291 10.1112H15.5803C15.4894 10.1112 15.4093 10.1137 15.3228 10.1163C15.2709 10.1178 15.2167 10.1195 15.1565 10.1207C15.0191 10.1235 14.8444 10.1243 14.6808 10.0982C14.5309 10.0743 14.2597 10.0094 14.0613 9.77215C13.8386 9.50584 13.8405 9.19125 13.8889 8.96678C13.8974 8.92737 13.9096 8.88886 13.9254 8.85176L13.9336 8.8324L13.9575 8.77555C13.9782 8.72618 14.008 8.65501 14.0439 8.56826C14.1159 8.39457 14.2122 8.15943 14.31 7.91248C14.4083 7.6646 14.5064 7.40928 14.5827 7.19392C14.621 7.08606 14.6522 6.99274 14.6748 6.91795C14.6861 6.88068 14.6943 6.85095 14.7 6.82834C14.7052 6.80782 14.7068 6.79885 14.7068 6.79885C14.7635 6.4067 14.7667 6.28113 14.7667 6.25556V5.47192C14.7667 5.38168 14.7304 5.29438 14.671 5.23324C14.5873 5.14699 14.5122 5.13047 14.487 5.13001L14.4834 5.13004ZM10.3492 18.6605L10.3441 18.6604C10.3294 18.6599 10.3109 18.659 10.2892 18.6574C10.2459 18.6542 10.1883 18.6481 10.121 18.6366C9.98941 18.6139 9.80454 18.5675 9.61223 18.4684C9.41702 18.3678 9.20519 18.2078 9.04402 17.9586C8.88086 17.7063 8.79416 17.4003 8.79416 17.0494V10.1014C8.79416 9.67981 8.95846 9.27182 9.25137 8.96966C9.27638 8.94386 9.30352 8.9202 9.33251 8.89895L9.33596 8.89639L9.35216 8.88425C9.36719 8.87293 9.39054 8.85515 9.42157 8.83104C9.48363 8.78281 9.57633 8.70928 9.69439 8.61137C9.93062 8.41547 10.2678 8.12245 10.6641 7.73961C11.4578 6.97275 12.4816 5.85207 13.4055 4.43648C13.6665 4.03659 14.0836 3.84113 14.5102 3.84885C14.9194 3.85626 15.3043 4.04603 15.5898 4.3401C15.8828 4.64156 16.0481 5.04973 16.0481 5.47192V6.25556C16.0481 6.37479 16.0341 6.57343 15.9746 6.98464L15.9744 6.986C15.9489 7.15977 15.8663 7.40833 15.7904 7.62222C15.7065 7.85886 15.6019 8.13062 15.5012 8.38462C15.4381 8.54388 15.3758 8.69791 15.32 8.83438C15.4038 8.83202 15.4952 8.82986 15.5803 8.82986H19.0291C19.3298 8.82986 19.6056 8.90905 19.8391 9.06825C20.0679 9.22422 20.2196 9.43198 20.3191 9.63512C20.5097 10.0243 20.5426 10.4653 20.5399 10.7669C20.5373 11.0573 20.5124 11.4266 20.3535 11.7871C20.263 11.9925 20.1359 12.1799 19.9681 12.3452C19.9888 12.4163 20.0049 12.487 20.0172 12.5558C20.0705 12.8537 20.0642 13.1757 20.0061 13.4831C19.9338 13.866 19.762 14.3052 19.4492 14.6437C19.4624 14.6889 19.4731 14.7323 19.4816 14.773C19.544 15.069 19.5385 15.3966 19.485 15.7008C19.4316 16.0053 19.3226 16.3293 19.1414 16.6066C19.0522 16.7431 18.9371 16.88 18.7935 16.9948C18.7708 17.3866 18.6219 17.7746 18.4298 18.0777C18.1406 18.5338 17.615 19.0115 16.9023 19.0115C16.4712 19.0115 14.8133 18.9221 13.2973 18.8352C12.5318 18.7913 11.7919 18.7475 11.2434 18.7146L10.3492 18.6605ZM3.53646 10.8017C3.46744 9.81361 4.25035 8.9741 5.24081 8.9741H6.23142C7.175 8.9741 7.93991 9.73902 7.93991 10.6826V17.0895C7.93991 18.033 7.175 18.7979 6.23142 18.7979H5.68836C4.79099 18.7979 4.04655 18.1037 3.98402 17.2085L3.53646 10.8017ZM5.24081 10.2555C4.99319 10.2555 4.79747 10.4654 4.81472 10.7124L5.26228 17.1192C5.27791 17.343 5.46402 17.5166 5.68836 17.5166H6.23142C6.46731 17.5166 6.65854 17.3253 6.65854 17.0895V10.6826C6.65854 10.4467 6.46731 10.2555 6.23142 10.2555H5.24081Z" fill="#333333"/>
</svg>
