<svg width="24" height="24" viewBox="0 0 24 24" fill="none" xmlns="http://www.w3.org/2000/svg">
<path fill-rule="evenodd" clip-rule="evenodd" d="M13.0022 6.144C14.4618 4.6844 16.7076 4.35769 18.2772 5.9273C19.0451 6.69517 19.349 7.63258 19.2474 8.5738C19.1479 9.49617 18.666 10.3745 17.9521 11.0892L15.8751 13.2106C15.0491 14.0366 14.1702 14.5055 13.2417 14.5053C12.3133 14.5051 11.4805 14.0358 10.7467 13.3019C10.5753 13.1305 10.423 12.9467 10.2899 12.7531C10.1022 12.4801 10.1714 12.1065 10.4445 11.9188C10.7175 11.7311 11.0911 11.8003 11.2788 12.0733C11.3705 12.2068 11.4759 12.3341 11.5952 12.4534C12.2005 13.0586 12.7461 13.3052 13.242 13.3053C13.7374 13.3054 14.3282 13.0596 15.0243 12.3643L17.1012 10.243C17.6683 9.67591 17.9903 9.03841 18.0544 8.44502C18.1165 7.86948 17.943 7.29013 17.4287 6.77583C16.4348 5.78195 14.9581 5.88758 13.8537 6.98961L12.3381 8.54946C12.1072 8.78713 11.7273 8.7926 11.4897 8.56169C11.252 8.33077 11.2465 7.95091 11.4775 7.71325L13.0022 6.144ZM10.7732 9.61903C11.7158 9.5409 12.5776 9.93042 13.3367 10.6456L13.3432 10.6517L13.7824 11.0909C14.0167 11.3252 14.0167 11.7051 13.7824 11.9394C13.5481 12.1738 13.1682 12.1738 12.9339 11.9395L12.5075 11.5131C11.9242 10.9658 11.384 10.7725 10.8723 10.8149C10.3398 10.8591 9.71118 11.1684 8.98901 11.8904L6.95875 13.926C5.8553 15.0295 5.75015 16.5132 6.74605 17.5091C7.26027 18.0233 7.83886 18.1961 8.41361 18.1336C9.00626 18.0691 9.64326 17.7469 10.2105 17.1798L11.6974 15.6877C11.9313 15.453 12.3112 15.4524 12.5459 15.6863C12.7806 15.9202 12.7813 16.3001 12.5474 16.5348L11.0602 18.0271L11.0595 18.0279C10.3447 18.7427 9.46621 19.2262 8.54339 19.3266C7.60251 19.4289 6.66548 19.1256 5.89752 18.3576C4.32916 16.7892 4.64871 14.5393 6.10937 13.0783L8.13948 11.0429C8.97002 10.2123 9.84983 9.69556 10.7732 9.61903Z" fill="#333333"/>
</svg>
