<svg width="24" height="24" viewBox="0 0 24 24" fill="none" xmlns="http://www.w3.org/2000/svg">
<path fill-rule="evenodd" clip-rule="evenodd" d="M3.72021 8.20059C3.72021 7.52458 4.26823 6.97656 4.94424 6.97656C5.62025 6.97656 6.16826 7.52458 6.16826 8.20059C6.16826 8.8766 5.62025 9.42461 4.94424 9.42461C4.26823 9.42461 3.72021 8.8766 3.72021 8.20059Z" fill="#333333"/>
<path fill-rule="evenodd" clip-rule="evenodd" d="M11.0552 8.20059C11.0552 7.86922 11.3238 7.60059 11.6552 7.60059H16.0084C16.3397 7.60059 16.6084 7.86922 16.6084 8.20059C16.6084 8.53196 16.3397 8.80059 16.0084 8.80059H11.6552C11.3238 8.80059 11.0552 8.53196 11.0552 8.20059Z" fill="#333333"/>
<path fill-rule="evenodd" clip-rule="evenodd" d="M3.72119 15.8007C3.72119 15.1228 4.27074 14.5732 4.94863 14.5732C5.62653 14.5732 6.17607 15.1228 6.17607 15.8007C6.17607 16.4786 5.62653 17.0281 4.94863 17.0281C4.27074 17.0281 3.72119 16.4786 3.72119 15.8007Z" fill="#333333"/>
<path fill-rule="evenodd" clip-rule="evenodd" d="M7.46387 8.20039C7.46387 6.65399 8.71747 5.40039 10.2639 5.40039H12.4171C12.7484 5.40039 13.0171 5.66902 13.0171 6.00039C13.0171 6.33176 12.7484 6.60039 12.4171 6.60039H10.2639C9.38021 6.60039 8.66387 7.31674 8.66387 8.20039C8.66387 9.08405 9.38021 9.80039 10.2639 9.80039H12.4171C12.7484 9.80039 13.0171 10.069 13.0171 10.4004C13.0171 10.7318 12.7484 11.0004 12.4171 11.0004H10.2639C8.71747 11.0004 7.46387 9.74679 7.46387 8.20039Z" fill="#333333"/>
<path fill-rule="evenodd" clip-rule="evenodd" d="M14.6475 6.00039C14.6475 5.66902 14.9161 5.40039 15.2475 5.40039H17.2064C18.8113 5.40039 20.2007 6.60721 20.2007 8.20039C20.2007 9.79357 18.8113 11.0004 17.2064 11.0004H15.2475C14.9161 11.0004 14.6475 10.7318 14.6475 10.4004C14.6475 10.069 14.9161 9.80039 15.2475 9.80039H17.2064C18.2462 9.80039 19.0007 9.03726 19.0007 8.20039C19.0007 7.36352 18.2462 6.60039 17.2064 6.60039H15.2475C14.9161 6.60039 14.6475 6.33176 14.6475 6.00039Z" fill="#333333"/>
<path fill-rule="evenodd" clip-rule="evenodd" d="M11.0552 15.8002C11.0552 15.4688 11.3238 15.2002 11.6552 15.2002H16.0084C16.3397 15.2002 16.6084 15.4688 16.6084 15.8002C16.6084 16.1316 16.3397 16.4002 16.0084 16.4002H11.6552C11.3238 16.4002 11.0552 16.1316 11.0552 15.8002Z" fill="#333333"/>
<path fill-rule="evenodd" clip-rule="evenodd" d="M7.46387 15.8C7.46387 14.2536 8.71747 13 10.2639 13H12.4171C12.7484 13 13.0171 13.2686 13.0171 13.6C13.0171 13.9314 12.7484 14.2 12.4171 14.2H10.2639C9.38021 14.2 8.66387 14.9163 8.66387 15.8C8.66387 16.6837 9.38021 17.4 10.2639 17.4H12.4171C12.7484 17.4 13.0171 17.6686 13.0171 18C13.0171 18.3314 12.7484 18.6 12.4171 18.6H10.2639C8.71747 18.6 7.46387 17.3464 7.46387 15.8Z" fill="#333333"/>
<path fill-rule="evenodd" clip-rule="evenodd" d="M14.6475 13.6C14.6475 13.2686 14.9161 13 15.2475 13H17.2064C18.8113 13 20.2007 14.2068 20.2007 15.8C20.2007 17.3932 18.8113 18.6 17.2064 18.6H15.2475C14.9161 18.6 14.6475 18.3314 14.6475 18C14.6475 17.6686 14.9161 17.4 15.2475 17.4H17.2064C18.2462 17.4 19.0007 16.6369 19.0007 15.8C19.0007 14.9631 18.2462 14.2 17.2064 14.2H15.2475C14.9161 14.2 14.6475 13.9314 14.6475 13.6Z" fill="#333333"/>
</svg>
