<svg width="24" height="24" viewBox="0 0 24 24" fill="none" xmlns="http://www.w3.org/2000/svg">
<path d="M12.0015 5.85299C13.4611 4.39339 15.7069 4.06667 17.2765 5.63629C17.9145 6.27433 18.2367 7.03412 18.2638 7.82392C18.2905 8.60432 18.0284 9.37102 17.575 10.0443C17.39 10.3192 17.0171 10.392 16.7422 10.2069C16.4674 10.0218 16.3946 9.64899 16.5796 9.37411C16.9201 8.86848 17.081 8.34642 17.0645 7.86501C17.0483 7.39299 16.861 6.91792 16.4279 6.48481C15.4341 5.49094 13.9574 5.59656 12.853 6.69856L11.3375 8.25844C11.1066 8.49611 10.7267 8.50159 10.489 8.27067C10.2514 8.03976 10.2459 7.6599 10.4768 7.42223L12.0015 5.85299Z" fill="#333333"/>
<path d="M9.27393 9.41281C10.0342 9.2181 10.7771 9.3277 11.4705 9.71149C11.7604 9.87197 11.8653 10.2371 11.7048 10.527C11.5444 10.8169 11.1792 10.9219 10.8893 10.7614C10.4478 10.517 10.0181 10.461 9.57166 10.5753C9.10743 10.6942 8.57774 11.0104 7.98833 11.5998L5.95827 13.6352C4.85481 14.7387 4.74966 16.2224 5.74556 17.2183C6.5027 17.9754 7.44878 18.0276 8.35853 17.5345C8.64985 17.3765 9.01403 17.4847 9.17196 17.776C9.32988 18.0673 9.22174 18.4315 8.93042 18.5894C7.63203 19.2933 6.08922 19.259 4.89704 18.0668C3.32867 16.4985 3.64822 14.2485 5.10889 12.7875L7.13901 10.752C7.82015 10.0709 8.53155 9.60294 9.27393 9.41281Z" fill="#333333"/>
<path fill-rule="evenodd" clip-rule="evenodd" d="M15.0468 13.5176C14.0251 13.5176 13.1968 14.3459 13.1968 15.3676C13.1968 16.3893 14.0251 17.2176 15.0468 17.2176C16.0685 17.2176 16.8968 16.3893 16.8968 15.3676C16.8968 14.3459 16.0685 13.5176 15.0468 13.5176ZM14.3968 15.3676C14.3968 15.0086 14.6878 14.7176 15.0468 14.7176C15.4058 14.7176 15.6968 15.0086 15.6968 15.3676C15.6968 15.7266 15.4058 16.0176 15.0468 16.0176C14.6878 16.0176 14.3968 15.7266 14.3968 15.3676Z" fill="#333333"/>
<path fill-rule="evenodd" clip-rule="evenodd" d="M14.5176 10.8485C14.9128 10.8061 15.3136 10.8036 15.7022 10.846C16.29 10.9101 16.7208 11.3254 16.8915 11.8097L16.9443 11.9597C16.9923 12.0957 17.1554 12.2132 17.359 12.1861L17.5415 12.1618C18.0246 12.0975 18.5877 12.2483 18.932 12.7079C19.1685 13.0235 19.3601 13.364 19.5048 13.7204C19.7261 14.2651 19.5398 14.823 19.2016 15.1848L19.0802 15.3147C18.9735 15.4289 18.9699 15.5867 19.0664 15.7037L19.1804 15.842C19.4961 16.225 19.6451 16.7943 19.3881 17.324C19.224 17.6623 19.0143 17.9865 18.7586 18.2892C18.387 18.7293 17.8134 18.8525 17.3284 18.7588L17.15 18.7243C16.9492 18.6855 16.7758 18.7932 16.7177 18.9293L16.6415 19.108C16.445 19.5689 16.0079 19.9486 15.4379 19.9972C15.0454 20.0308 14.6474 20.0182 14.2537 19.9576C13.6924 19.8714 13.2854 19.4677 13.1202 18.9992L13.0567 18.8191C13.0088 18.6831 12.8457 18.5655 12.6421 18.5926L12.4579 18.6172C11.9745 18.6815 11.411 18.5304 11.0668 18.0703C10.8308 17.755 10.6396 17.4147 10.4952 17.0587C10.2743 16.5141 10.4606 15.9565 10.7986 15.5948L10.9209 15.464C11.0276 15.3499 11.0312 15.1921 10.9347 15.075L10.8211 14.9373C10.5052 14.5541 10.3563 13.9844 10.6136 13.4547C10.7781 13.1162 10.9882 12.7918 11.2443 12.489C11.616 12.0496 12.1892 11.9265 12.6739 12.0202L12.851 12.0544C13.0519 12.0932 13.2253 11.9856 13.2833 11.8495L13.3294 11.7413C13.5267 11.2789 13.9606 10.9083 14.5176 10.8485ZM15.5721 12.039C15.2755 12.0066 14.9615 12.0077 14.6457 12.0416C14.5628 12.0505 14.4773 12.1088 14.4332 12.2121L14.3871 12.3202C14.0931 13.0095 13.343 13.3717 12.6233 13.2326L12.4462 13.1984C12.2941 13.169 12.1953 13.2228 12.1606 13.2639C11.9686 13.4909 11.8134 13.7312 11.693 13.9791C11.6845 13.9966 11.68 14.0181 11.6853 14.0491C11.6911 14.0828 11.7091 14.1279 11.747 14.174L11.8606 14.3117C12.3424 14.8962 12.3137 15.7312 11.7975 16.2834L11.6753 16.4142C11.6338 16.4586 11.6125 16.5033 11.6044 16.5373C11.5969 16.5686 11.6002 16.5903 11.6072 16.6076C11.713 16.8685 11.8535 17.1187 12.0276 17.3515C12.0556 17.3888 12.1456 17.4481 12.2996 17.4276L12.4838 17.4031C13.2106 17.3064 13.9387 17.7117 14.1884 18.4201L14.2519 18.6002C14.2892 18.706 14.3665 18.7609 14.436 18.7716C14.7346 18.8175 15.0371 18.8271 15.3358 18.8016C15.4085 18.7954 15.4925 18.7432 15.5377 18.6372L15.6139 18.4585C15.9079 17.7692 16.658 17.407 17.3777 17.5461L17.5561 17.5806C17.7083 17.61 17.8071 17.5561 17.8418 17.515C18.0335 17.288 18.1883 17.0478 18.3085 16.8001C18.317 16.7826 18.3215 16.7612 18.3162 16.7301C18.3104 16.6964 18.2924 16.6513 18.2545 16.6053L18.1405 16.4671C17.6586 15.8826 17.6873 15.0476 18.2035 14.4953L18.3249 14.3654C18.3664 14.321 18.3878 14.2763 18.3959 14.2423C18.4034 14.211 18.4001 14.1893 18.393 14.1719C18.287 13.9108 18.1462 13.6604 17.9717 13.4274C17.9437 13.3901 17.8537 13.3309 17.6998 13.3513L17.5173 13.3756C16.7904 13.4724 16.0624 13.067 15.8126 12.3586L15.7597 12.2086C15.7211 12.0991 15.6406 12.0464 15.5721 12.039Z" fill="#333333"/>
</svg>
