<svg width="24" height="24" viewBox="0 0 24 24" fill="none" xmlns="http://www.w3.org/2000/svg">
<path d="M12.3587 9.14199C12.3587 8.81062 12.0901 8.54199 11.7587 8.54199C11.4273 8.54199 11.1587 8.81062 11.1587 9.14199V10.9608C11.1587 11.2922 11.4273 11.5608 11.7587 11.5608L13.48 11.5609C13.8114 11.561 14.08 11.2923 14.0801 10.961C14.0801 10.6296 13.8115 10.361 13.4801 10.3609L12.3587 10.3609V9.14199Z" fill="#333333"/>
<path fill-rule="evenodd" clip-rule="evenodd" d="M8.05029 10.5903C8.05029 8.40896 9.81863 6.64062 12 6.64062C14.1813 6.64062 15.9497 8.40896 15.9497 10.5903C15.9497 12.7717 14.1813 14.54 12 14.54C9.81863 14.54 8.05029 12.7717 8.05029 10.5903ZM12 7.84063C10.4814 7.84063 9.25029 9.0717 9.25029 10.5903C9.25029 12.1089 10.4814 13.34 12 13.34C13.5186 13.34 14.7497 12.1089 14.7497 10.5903C14.7497 9.0717 13.5186 7.84063 12 7.84063Z" fill="#333333"/>
<path fill-rule="evenodd" clip-rule="evenodd" d="M5.22461 10.6225C5.22461 6.98903 8.28023 4.08301 11.9999 4.08301C15.7195 4.08301 18.7751 6.98903 18.7751 10.6225C18.7751 12.6641 17.6833 14.7608 16.4703 16.4783C15.2437 18.2151 13.8226 19.6614 13.0281 20.419C12.4513 20.969 11.5608 20.9845 10.9678 20.445C10.1661 19.7156 8.74495 18.3239 7.51991 16.6019C6.30479 14.8939 5.22461 12.7808 5.22461 10.6225ZM11.9999 5.28301C8.89851 5.28301 6.42461 7.69538 6.42461 10.6225C6.42461 12.4066 7.33221 14.268 8.49772 15.9063C9.65332 17.5307 11.0057 18.8572 11.7754 19.5574C11.8991 19.67 12.0756 19.6692 12.2 19.5506C12.9672 18.8191 14.3267 17.4334 15.4901 15.786C16.6673 14.1192 17.5751 12.2793 17.5751 10.6225C17.5751 7.69538 15.1012 5.28301 11.9999 5.28301Z" fill="#333333"/>
</svg>
