<svg width="24" height="24" viewBox="0 0 24 24" fill="none" xmlns="http://www.w3.org/2000/svg">
<path fill-rule="evenodd" clip-rule="evenodd" d="M12 7.48535C10.2852 7.48535 8.89502 8.87549 8.89502 10.5903C8.89502 12.3051 10.2852 13.6953 12 13.6953C13.7148 13.6953 15.1049 12.3051 15.1049 10.5903C15.1049 8.87549 13.7148 7.48535 12 7.48535ZM10.095 10.5903C10.095 9.53823 10.9479 8.68535 12 8.68535C13.0521 8.68535 13.9049 9.53823 13.9049 10.5903C13.9049 11.6424 13.0521 12.4953 12 12.4953C10.9479 12.4953 10.095 11.6424 10.095 10.5903Z" fill="#333333"/>
<path fill-rule="evenodd" clip-rule="evenodd" d="M11.9999 4.08301C8.28023 4.08301 5.22461 6.98903 5.22461 10.6225C5.22461 12.7808 6.30479 14.8939 7.51991 16.6019C8.74495 18.3239 10.1661 19.7156 10.9678 20.445C11.5608 20.9845 12.4513 20.969 13.0281 20.419C13.8226 19.6614 15.2437 18.2151 16.4703 16.4783C17.6833 14.7608 18.7751 12.6641 18.7751 10.6225C18.7751 6.98903 15.7195 4.08301 11.9999 4.08301ZM6.42461 10.6225C6.42461 7.69538 8.89851 5.28301 11.9999 5.28301C15.1012 5.28301 17.5751 7.69538 17.5751 10.6225C17.5751 12.2793 16.6673 14.1192 15.4901 15.786C14.3267 17.4334 12.9672 18.8191 12.2 19.5506C12.0756 19.6692 11.8991 19.67 11.7754 19.5574C11.0057 18.8572 9.65332 17.5307 8.49772 15.9063C7.33221 14.268 6.42461 12.4066 6.42461 10.6225Z" fill="#333333"/>
</svg>
