<svg width="24" height="24" viewBox="0 0 24 24" fill="none" xmlns="http://www.w3.org/2000/svg">
<path d="M13.2476 13.3332C13.2476 13.8252 12.9634 14.2508 12.5503 14.4549V15.4999C12.5503 15.8036 12.304 16.0499 12.0003 16.0499C11.6965 16.0499 11.4503 15.8036 11.4503 15.4999V14.4577C11.0339 14.2548 10.747 13.8275 10.747 13.3332C10.747 12.6426 11.3068 12.0829 11.9973 12.0829C12.6878 12.0829 13.2476 12.6426 13.2476 13.3332Z" fill="#333333"/>
<path fill-rule="evenodd" clip-rule="evenodd" d="M8.33337 8.45032C8.33337 6.42503 9.9752 4.7832 12.0005 4.7832C14.0258 4.7832 15.6676 6.42503 15.6676 8.45032V9.12473C16.8376 9.23259 17.7538 10.2168 17.7538 11.4149V16.3662C17.7538 17.6365 16.7241 18.6662 15.4538 18.6662H8.54707C7.27681 18.6662 6.24707 17.6365 6.24707 16.3662V11.4149C6.24707 10.2167 7.16331 9.23253 8.33337 9.12473V8.45032ZM14.5676 8.45032V9.11493H9.43337V8.45032C9.43337 7.03254 10.5827 5.8832 12.0005 5.8832C13.4183 5.8832 14.5676 7.03254 14.5676 8.45032ZM15.4538 10.2149H8.54707C7.88433 10.2149 7.34707 10.7522 7.34707 11.4149V16.3662C7.34707 17.029 7.88433 17.5662 8.54707 17.5662H15.4538C16.1165 17.5662 16.6538 17.029 16.6538 16.3662V11.4149C16.6538 10.7522 16.1165 10.2149 15.4538 10.2149Z" fill="#333333"/>
</svg>
