<svg width="24" height="24" viewBox="0 0 24 24" fill="none" xmlns="http://www.w3.org/2000/svg">
<path fill-rule="evenodd" clip-rule="evenodd" d="M10.6216 4.63612C10.6216 4.30475 10.8902 4.03613 11.2216 4.03613L16.3925 4.0362C17.8284 4.03622 18.9924 5.20028 18.9924 6.6362V17.3647C18.9924 18.8007 17.8283 19.9647 16.3924 19.9647L11.2215 19.9646C10.8902 19.9646 10.6216 19.696 10.6216 19.3646C10.6216 19.0333 10.8902 18.7646 11.2216 18.7646L16.3924 18.7647C17.1656 18.7647 17.7924 18.1379 17.7924 17.3647V6.6362C17.7924 5.86301 17.1656 5.23621 16.3924 5.2362L11.2215 5.23613C10.8902 5.23613 10.6216 4.9675 10.6216 4.63612ZM7.83725 7.57611C8.07158 7.3418 8.45148 7.34182 8.68578 7.57615L12.6854 11.5761C12.9197 11.8105 12.9197 12.1903 12.6854 12.4247L8.68576 16.4243C8.45145 16.6586 8.07155 16.6586 7.83723 16.4243C7.60292 16.19 7.60292 15.8101 7.83723 15.5758L10.8126 12.6004L3.26113 12.6004C2.92976 12.6004 2.66113 12.3318 2.66113 12.0004C2.66113 11.669 2.92976 11.4004 3.26113 11.4004L10.8127 11.4004L7.83722 8.42464C7.60291 8.19031 7.60293 7.81041 7.83725 7.57611Z" fill="#333333"/>
</svg>
