<svg width="24" height="24" viewBox="0 0 24 24" fill="none" xmlns="http://www.w3.org/2000/svg">
<path fill-rule="evenodd" clip-rule="evenodd" d="M7.61022 4.02644L13.0702 4.02637C13.4016 4.02636 13.6702 4.29499 13.6702 4.62636C13.6702 4.95773 13.4016 5.22636 13.0702 5.22637L7.61023 5.22644C6.83704 5.22645 6.21025 5.85325 6.21025 6.62644V17.3745C6.21025 18.1477 6.83707 18.7745 7.61027 18.7745L13.0702 18.7744C13.4016 18.7744 13.6702 19.043 13.6702 19.3744C13.6702 19.7058 13.4016 19.9744 13.0702 19.9744L7.61029 19.9745C6.17433 19.9745 5.01025 18.8104 5.01025 17.3745V6.62644C5.01025 5.19051 6.17429 4.02646 7.61022 4.02644ZM15.1307 7.57611C15.365 7.3418 15.7449 7.34182 15.9792 7.57615L19.9789 11.5761C20.2132 11.8105 20.2132 12.1903 19.9789 12.4247L15.9792 16.4243C15.7449 16.6586 15.365 16.6586 15.1307 16.4243C14.8964 16.19 14.8964 15.8101 15.1307 15.5758L18.1061 12.6004L10.5546 12.6004C10.2232 12.6004 9.95459 12.3318 9.95459 12.0004C9.95459 11.669 10.2232 11.4004 10.5546 11.4004L18.1062 11.4004L15.1307 8.42464C14.8964 8.19031 14.8964 7.81041 15.1307 7.57611Z" fill="#333333"/>
</svg>
