<svg width="24" height="24" viewBox="0 0 24 24" fill="none" xmlns="http://www.w3.org/2000/svg">
<path fill-rule="evenodd" clip-rule="evenodd" d="M14.0099 4H12.7799C12.4499 4 12.1799 4.27 12.1799 4.6C12.1799 4.93 12.4499 5.2 12.7799 5.2H14.0099C16.1499 5.2 17.8399 6.85 17.8399 8.82V10.93C17.8399 12.9 16.1499 14.55 14.0099 14.55H6.4499L9.4299 11.57C9.6599 11.34 9.6599 10.96 9.4299 10.72C9.1999 10.49 8.8199 10.49 8.5799 10.72L4.5799 14.73C4.5299 14.78 4.4799 14.85 4.4499 14.92C4.4199 15 4.3999 15.08 4.3999 15.16C4.3999 15.24 4.4199 15.31 4.4499 15.39C4.4799 15.46 4.5199 15.53 4.5799 15.59L8.5799 19.59C8.8099 19.82 9.1899 19.82 9.4299 19.59C9.6699 19.36 9.6599 18.98 9.4299 18.74L6.4499 15.76H14.0099C16.7599 15.76 19.0399 13.63 19.0399 10.94V8.83C19.0399 6.14 16.7599 4.01 14.0099 4.01V4Z" fill="#333333"/>
</svg>
