<svg width="24" height="24" viewBox="0 0 24 24" fill="none" xmlns="http://www.w3.org/2000/svg">
<path d="M18.7937 11.926V16.0015C18.7937 16.4433 18.4355 16.8015 17.9937 16.8015H5.99365C5.55183 16.8015 5.19365 16.4433 5.19365 16.0015V8.09751L10.8923 12.8639C11.5177 13.387 12.4264 13.3924 13.058 12.8769L15.5676 10.8284C15.2718 10.558 15.0143 10.2463 14.8043 9.90245L12.2992 11.9473C12.1134 12.0989 11.8461 12.0973 11.6622 11.9435L5.98752 7.19709L5.99365 7.19707H14.2123C14.2611 6.77516 14.3716 6.37207 14.5346 5.99707H5.99365C4.88908 5.99707 3.99365 6.8925 3.99365 7.99707V16.0015C3.99365 17.1061 4.88908 18.0015 5.99365 18.0015H17.9937C19.0982 18.0015 19.9937 17.1061 19.9937 16.0015V11.6459C19.617 11.7945 19.214 11.8908 18.7937 11.926Z" fill="#333333"/>
<path fill-rule="evenodd" clip-rule="evenodd" d="M18.4338 9.23691C19.288 9.23691 19.9806 8.54439 19.9806 7.69013C19.9806 6.83587 19.288 6.14336 18.4338 6.14336C17.5795 6.14336 16.887 6.83587 16.887 7.69013C16.887 8.54439 17.5795 9.23691 18.4338 9.23691ZM18.4338 10.4369C19.9508 10.4369 21.1806 9.20713 21.1806 7.69013C21.1806 6.17313 19.9508 4.94336 18.4338 4.94336C16.9168 4.94336 15.687 6.17313 15.687 7.69013C15.687 9.20713 16.9168 10.4369 18.4338 10.4369Z" fill="#333333"/>
</svg>
