<svg width="24" height="24" viewBox="0 0 24 24" fill="none" xmlns="http://www.w3.org/2000/svg">
<path fill-rule="evenodd" clip-rule="evenodd" d="M19.4041 7.34107C19.7758 7.70422 20.0065 8.21101 20.0065 8.77169V16.0027C20.0065 17.1073 19.111 18.0027 18.0065 18.0027H5.99365C4.88908 18.0027 3.99365 17.1073 3.99365 16.0027V8.77169C3.99365 8.21072 4.22461 7.70369 4.59662 7.3405C4.64563 7.26581 4.71213 7.20096 4.79438 7.15267L11.062 3.47321C11.5878 3.16453 12.2387 3.16109 12.7678 3.46418L19.2005 7.14949C19.2854 7.19815 19.3539 7.26443 19.4041 7.34107ZM18.092 7.89741L12.1712 4.50541C12.0156 4.41627 11.8242 4.41728 11.6695 4.50807L5.96048 7.85961L11.6862 12.0587C11.8605 12.1865 12.0971 12.1879 12.2729 12.0621L18.092 7.89741ZM12.9713 13.0379L18.8065 8.86171V16.0027C18.8065 16.4445 18.4483 16.8027 18.0065 16.8027H5.99365C5.55182 16.8027 5.19365 16.4445 5.19365 16.0027V8.78536L10.9765 13.0263C11.5691 13.4609 12.3737 13.4656 12.9713 13.0379Z" fill="#333333"/>
</svg>
