<svg width="24" height="24" viewBox="0 0 24 24" fill="none" xmlns="http://www.w3.org/2000/svg">
<path fill-rule="evenodd" clip-rule="evenodd" d="M17.9633 4.60347C18.1976 4.83778 18.1976 5.21768 17.9633 5.452L16.7302 6.68512H20.7875C21.1189 6.68512 21.3875 6.95375 21.3875 7.28512C21.3875 7.61649 21.1189 7.88512 20.7875 7.88512L16.7304 7.88512L17.9632 9.11764C18.1976 9.35193 18.1976 9.73183 17.9633 9.96617C17.7291 10.2005 17.3492 10.2006 17.1148 9.96628L14.8574 7.70944C14.7449 7.59692 14.6817 7.4443 14.6816 7.28516C14.6816 7.12602 14.7448 6.97339 14.8574 6.86086L17.1148 4.60347C17.3491 4.36916 17.729 4.36916 17.9633 4.60347ZM5.98686 7.19773C5.99123 7.19766 5.99561 7.19762 6 7.19762H12C12.3314 7.19762 12.6 6.92899 12.6 6.59762C12.6 6.26625 12.3314 5.99762 12 5.99762H6C4.89543 5.99762 4 6.89305 4 7.99762V16.0021C4 17.1066 4.89543 18.0021 6 18.0021H18C19.1046 18.0021 20 17.1066 20 16.0021V11.9998C20 11.6685 19.7314 11.3998 19.4 11.3998C19.0686 11.3998 18.8 11.6685 18.8 11.9998V16.0021C18.8 16.4439 18.4418 16.8021 18 16.8021H6C5.55817 16.8021 5.2 16.4439 5.2 16.0021V8.10401L10.8894 12.8627C11.5165 13.3872 12.428 13.3911 13.0595 12.872L15.0098 11.2691C15.2658 11.0587 15.3028 10.6806 15.0924 10.4246C14.882 10.1686 14.5039 10.1316 14.2479 10.342L12.2976 11.945C12.1118 12.0976 11.8437 12.0965 11.6593 11.9422L5.98686 7.19773Z" fill="#333333"/>
</svg>
