<svg width="24" height="24" viewBox="0 0 24 24" fill="none" xmlns="http://www.w3.org/2000/svg">
<path fill-rule="evenodd" clip-rule="evenodd" d="M9.94987 6.61172C9.94987 6.28035 10.2185 6.01172 10.5499 6.01172H18.0231C19.1276 6.01172 20.0231 6.90715 20.0231 8.01172V15.9646C20.0231 17.0692 19.1276 17.9646 18.0231 17.9646H7.6333C6.52873 17.9646 5.6333 17.0692 5.6333 15.9646V15.3401C5.6333 15.0088 5.90193 14.7401 6.2333 14.7401C6.56467 14.7401 6.8333 15.0088 6.8333 15.3401V15.9646C6.8333 16.4065 7.19147 16.7646 7.6333 16.7646H18.0231C18.4649 16.7646 18.8231 16.4065 18.8231 15.9646V8.48429L13.5656 12.884C13.1326 13.2464 12.5056 13.2579 12.0596 12.9117L10.4014 11.6245C10.1397 11.4213 10.0922 11.0444 10.2954 10.7826C10.4986 10.5209 10.8755 10.4734 11.1373 10.6766L12.7955 11.9638L18.3761 7.29361C18.2696 7.24117 18.1498 7.21172 18.0231 7.21172H10.5499C10.2185 7.21172 9.94987 6.94309 9.94987 6.61172ZM2.66309 7.1314C2.66309 6.80003 2.93172 6.5314 3.26309 6.5314H7.49665C7.82802 6.5314 8.09665 6.80003 8.09665 7.1314C8.09665 7.46277 7.82802 7.7314 7.49665 7.7314H3.26309C2.93172 7.7314 2.66309 7.46277 2.66309 7.1314ZM7.49596 10.3353H4.97527C4.6439 10.3353 4.37527 10.0667 4.37527 9.73534C4.37527 9.40397 4.6439 9.13534 4.97527 9.13534H7.49596C7.82733 9.13534 8.09596 9.40397 8.09596 9.73534C8.09596 10.0667 7.82733 10.3353 7.49596 10.3353ZM5.29004 12.3404C5.29004 12.009 5.55867 11.7404 5.89004 11.7404H7.49562C7.82699 11.7404 8.09562 12.009 8.09562 12.3404C8.09562 12.6718 7.82699 12.9404 7.49562 12.9404H5.89004C5.55867 12.9404 5.29004 12.6718 5.29004 12.3404Z" fill="#333333"/>
</svg>
