<svg width="24" height="24" viewBox="0 0 24 24" fill="none" xmlns="http://www.w3.org/2000/svg">
<path fill-rule="evenodd" clip-rule="evenodd" d="M4 7.99805C4 6.89348 4.89543 5.99805 6 5.99805H18C19.1046 5.99805 20 6.89348 20 7.99805V12.0003C20 12.3316 19.7314 12.6003 19.4 12.6003C19.0686 12.6003 18.8 12.3316 18.8 12.0003V8.19083L13.0575 12.8781C12.4259 13.3937 11.5172 13.3882 10.8918 12.8651L5.2 8.10445V16.0025C5.2 16.4443 5.55817 16.8025 6 16.8025H11.3672C11.6986 16.8025 11.9672 17.0711 11.9672 17.4025C11.9672 17.7339 11.6986 18.0025 11.3672 18.0025H6C4.89543 18.0025 4 17.1071 4 16.0025V7.99805ZM5.98684 7.19815L11.6617 11.9447C11.8457 12.0985 12.1129 12.1001 12.2987 11.9485L18.1095 7.20547C18.0737 7.20058 18.0371 7.19805 18 7.19805H6C5.99561 7.19805 5.99122 7.19808 5.98684 7.19815ZM17.746 14.6762C17.9803 14.4418 18.3602 14.4418 18.5945 14.6762L20.8519 16.9335C20.9644 17.0461 21.0276 17.1987 21.0276 17.3579C21.0276 17.517 20.9644 17.6696 20.8518 17.7821L18.5945 20.039C18.3601 20.2733 17.9802 20.2732 17.7459 20.0389C17.5116 19.8045 17.5117 19.4246 17.746 19.1903L18.9789 17.9578H14.9218C14.5904 17.9578 14.3218 17.6892 14.3218 17.3578C14.3218 17.0264 14.5904 16.7578 14.9218 16.7578H18.9791L17.746 15.5247C17.5117 15.2904 17.5117 14.9105 17.746 14.6762Z" fill="#333333"/>
</svg>
