<svg width="24" height="24" viewBox="0 0 24 24" fill="none" xmlns="http://www.w3.org/2000/svg">
<path fill-rule="evenodd" clip-rule="evenodd" d="M18 7.2H6C5.55817 7.2 5.2 7.55817 5.2 8V16C5.2 16.4418 5.55817 16.8 6 16.8H18C18.4418 16.8 18.8 16.4418 18.8 16V8C18.8 7.55817 18.4418 7.2 18 7.2ZM6 6C4.89543 6 4 6.89543 4 8V16C4 17.1046 4.89543 18 6 18H18C19.1046 18 20 17.1046 20 16V8C20 6.89543 19.1046 6 18 6H6Z" fill="#333333"/>
<path fill-rule="evenodd" clip-rule="evenodd" d="M19.4253 6.90569C19.6348 7.1624 19.5966 7.54037 19.3399 7.74991L13.0577 12.8777C12.4261 13.3932 11.5174 13.3878 10.8921 12.8647L4.77145 7.74534C4.51726 7.53274 4.48356 7.15434 4.69616 6.90016C4.90875 6.64598 5.28716 6.61227 5.54134 6.82487L11.662 11.9442C11.8459 12.0981 12.1131 12.0997 12.2989 11.948L18.5811 6.82028C18.8378 6.61074 19.2157 6.64898 19.4253 6.90569Z" fill="#333333"/>
</svg>
