<svg width="24" height="24" viewBox="0 0 24 24" fill="none" xmlns="http://www.w3.org/2000/svg">
<path fill-rule="evenodd" clip-rule="evenodd" d="M5.99365 5.99805C4.88908 5.99805 3.99365 6.89348 3.99365 7.99805V16.0025C3.99365 17.1071 4.88908 18.0025 5.99365 18.0025H11.3661C11.7408 18.0025 12.0012 17.6278 11.9172 17.2626C11.8576 17.0037 11.6347 16.8025 11.3691 16.8025H5.99365C5.55183 16.8025 5.19365 16.4443 5.19365 16.0025V8.09914L10.8918 12.8652C11.5172 13.3882 12.4259 13.3937 13.0575 12.8781L18.7937 8.19604V10.6369C18.7937 10.8614 18.9408 11.0593 19.1481 11.1455C19.53 11.3043 19.9937 11.0446 19.9937 10.631V7.99805C19.9937 6.89348 19.0982 5.99805 17.9937 5.99805H5.99365ZM11.6617 11.9447L5.98674 7.19808L5.99365 7.19805H17.9937C18.0327 7.19805 18.071 7.20084 18.1086 7.20624L12.2987 11.9485C12.1129 12.1001 11.8457 12.0985 11.6617 11.9447Z" fill="#333333"/>
<path fill-rule="evenodd" clip-rule="evenodd" d="M16.7476 12.4005C16.9834 12.1732 17.312 12.1446 17.5671 12.2663C17.8172 12.3855 17.9889 12.6413 17.9889 12.9396V13.9959C19.4072 14.1949 20.3561 14.9973 20.9706 15.8976C21.6437 16.8838 21.928 17.9995 22.055 18.6074C22.1987 19.295 21.3569 19.8285 20.8149 19.276C20.2801 18.7309 19.2418 17.8432 17.9889 17.6304V18.8558C17.9889 19.1541 17.8172 19.41 17.5671 19.5292C17.312 19.6508 16.9834 19.6222 16.7476 19.3949L13.7165 16.4726C13.3925 16.1602 13.3925 15.6352 13.7165 15.3229L16.7476 12.4005ZM16.7889 14.5509V14.0276L14.8492 15.8977L16.7889 17.7678V16.9835C16.7889 16.6521 17.0575 16.3835 17.3889 16.3835H17.4421C18.6209 16.3836 19.6479 16.8617 20.4255 17.3892C20.3052 17.1144 20.1585 16.8364 19.9794 16.574C19.4567 15.8082 18.6727 15.1891 17.4218 15.1507L17.4186 15.1507L17.4075 15.1508L17.3889 15.1509C17.0575 15.1509 16.7889 14.8823 16.7889 14.5509Z" fill="#333333"/>
</svg>
