<svg width="24" height="24" viewBox="0 0 24 24" fill="none" xmlns="http://www.w3.org/2000/svg">
<path fill-rule="evenodd" clip-rule="evenodd" d="M13.1316 3.78308C12.5067 3.15824 11.4937 3.15824 10.8688 3.78308L8.92761 5.72431C8.30277 6.34915 8.30278 7.36221 8.92761 7.98705L10.8688 9.92827C11.4937 10.5531 12.5067 10.5531 13.1316 9.92827L15.0728 7.98705C15.6976 7.36221 15.6976 6.34914 15.0728 5.72431L13.1316 3.78308ZM11.7174 4.63161C11.8736 4.4754 12.1268 4.4754 12.2831 4.63161L14.2243 6.57283C14.3805 6.72904 14.3805 6.98231 14.2243 7.13852L12.2831 9.07974C12.1268 9.23595 11.8736 9.23595 11.7174 9.07974L9.77614 7.13852C9.61993 6.98231 9.61993 6.72904 9.77614 6.57283L11.7174 4.63161Z" fill="#333333"/>
<path fill-rule="evenodd" clip-rule="evenodd" d="M13.1316 14.0721C12.5067 13.4473 11.4937 13.4473 10.8688 14.0721L8.92761 16.0134C8.30277 16.6382 8.30278 17.6513 8.92761 18.2761L10.8688 20.2173C11.4937 20.8422 12.5067 20.8422 13.1316 20.2173L15.0728 18.2761C15.6976 17.6513 15.6976 16.6382 15.0728 16.0134L13.1316 14.0721ZM11.7174 14.9207C11.8736 14.7645 12.1268 14.7645 12.2831 14.9207L14.2243 16.8619C14.3805 17.0181 14.3805 17.2714 14.2243 17.4276L12.2831 19.3688C12.1268 19.525 11.8736 19.525 11.7174 19.3688L9.77614 17.4276C9.61993 17.2714 9.61993 17.0181 9.77614 16.8619L11.7174 14.9207Z" fill="#333333"/>
<path fill-rule="evenodd" clip-rule="evenodd" d="M5.72431 8.92761C6.34914 8.30278 7.36221 8.30277 7.98705 8.92761L9.92827 10.8688C10.5531 11.4937 10.5531 12.5067 9.92827 13.1316L7.98705 15.0728C7.36221 15.6976 6.34915 15.6976 5.72431 15.0728L3.78308 13.1316C3.15824 12.5067 3.15824 11.4937 3.78308 10.8688L5.72431 8.92761ZM7.13852 9.77614C6.98231 9.61993 6.72904 9.61993 6.57283 9.77614L4.63161 11.7174C4.4754 11.8736 4.4754 12.1268 4.63161 12.2831L6.57283 14.2243C6.72904 14.3805 6.98231 14.3805 7.13852 14.2243L9.07974 12.2831C9.23595 12.1268 9.23595 11.8736 9.07974 11.7174L7.13852 9.77614Z" fill="#333333"/>
<path fill-rule="evenodd" clip-rule="evenodd" d="M18.2766 8.92761C17.6518 8.30277 16.6387 8.30278 16.0139 8.92761L14.0726 10.8688C13.4478 11.4937 13.4478 12.5067 14.0726 13.1316L16.0139 15.0728C16.6387 15.6976 17.6518 15.6976 18.2766 15.0728L20.2178 13.1316C20.8427 12.5067 20.8427 11.4937 20.2178 10.8688L18.2766 8.92761ZM16.8624 9.77614C17.0186 9.61993 17.2719 9.61993 17.4281 9.77614L19.3693 11.7174C19.5255 11.8736 19.5255 12.1268 19.3693 12.2831L17.4281 14.2243C17.2719 14.3805 17.0186 14.3805 16.8624 14.2243L14.9212 12.2831C14.765 12.1268 14.765 11.8736 14.9212 11.7174L16.8624 9.77614Z" fill="#333333"/>
</svg>
