<svg width="24" height="24" viewBox="0 0 24 24" fill="none" xmlns="http://www.w3.org/2000/svg">
<path fill-rule="evenodd" clip-rule="evenodd" d="M19.0653 4.74C19.2422 4.84932 19.3499 5.04244 19.3499 5.25039V16.5004C19.3499 16.7277 19.2215 16.9354 19.0182 17.037L14.529 19.2816C14.4504 19.323 14.3615 19.3475 14.2671 19.3501C14.2614 19.3503 14.2556 19.3504 14.2499 19.3504C14.2428 19.3504 14.2356 19.3503 14.2285 19.35C14.1356 19.3467 14.0482 19.3224 13.9708 19.2816L9.7499 17.1712L5.51823 19.287C5.33224 19.38 5.11135 19.3701 4.93446 19.2608C4.75757 19.1515 4.6499 18.9583 4.6499 18.7504V7.50039C4.6499 7.27313 4.7783 7.06537 4.98157 6.96373L9.47075 4.71914C9.55414 4.67524 9.64912 4.65039 9.7499 4.65039C9.85069 4.65039 9.94567 4.67524 10.029 4.71914L14.2499 6.82957L18.4816 4.71373C18.6676 4.62074 18.8885 4.63068 19.0653 4.74ZM14.8499 17.7796L18.1499 16.1296V6.22121L14.8499 7.87121V17.7796ZM13.6499 7.87121V17.7796L10.3499 16.1296V6.22121L13.6499 7.87121ZM5.8499 7.87121V17.7796L9.1499 16.1296V6.22121L5.8499 7.87121Z" fill="#333333"/>
</svg>
