<svg width="24" height="24" viewBox="0 0 24 24" fill="none" xmlns="http://www.w3.org/2000/svg">
<path fill-rule="evenodd" clip-rule="evenodd" d="M13.6543 6.38711C13.6543 6.71848 13.3857 6.98711 13.0543 6.98711L8.50275 6.98711L17.0814 15.5658C17.3157 15.8001 17.3157 16.18 17.0814 16.4143C16.8471 16.6486 16.4672 16.6486 16.2329 16.4143L7.6543 7.83571L7.6543 12.3871C7.6543 12.7185 7.38567 12.9871 7.0543 12.9871C6.72293 12.9871 6.4543 12.7185 6.4543 12.3871L6.4543 6.3965C6.45186 6.23983 6.51041 6.08239 6.62996 5.96285C6.69539 5.89741 6.77218 5.85025 6.85398 5.82136C6.91662 5.79918 6.98405 5.78711 7.0543 5.78711H13.0543C13.3857 5.78711 13.6543 6.05574 13.6543 6.38711ZM5.02002 18.7827C5.02002 18.4513 5.28865 18.1827 5.62002 18.1827L18.4325 18.1827C18.7639 18.1827 19.0325 18.4513 19.0325 18.7827C19.0325 19.114 18.7639 19.3827 18.4325 19.3827L5.62002 19.3827C5.28865 19.3827 5.02002 19.114 5.02002 18.7827Z" fill="#909090"/>
</svg>
