<svg width="24" height="24" viewBox="0 0 24 24" fill="none" xmlns="http://www.w3.org/2000/svg">
<path fill-rule="evenodd" clip-rule="evenodd" d="M15.3582 5.03906L8.27899 5.03916C7.70961 5.03917 7.21862 5.43929 7.1037 5.99695L6.07444 10.9914C5.92102 11.7359 6.48963 12.4336 7.24975 12.4336H10.2466C10.2261 12.4883 10.2148 12.5475 10.2148 12.6094V16.3532C10.2148 16.6294 10.4387 16.8532 10.7148 16.8532C10.991 16.8532 11.2148 16.6294 11.2148 16.3532V12.6094C11.2148 12.5475 11.2036 12.4883 11.1831 12.4336H12.8159C12.7954 12.4883 12.7842 12.5475 12.7842 12.6094V16.3532C12.7842 16.6294 13.008 16.8532 13.2842 16.8532C13.5603 16.8532 13.7842 16.6294 13.7842 16.3532V12.6094C13.7842 12.5475 13.7729 12.4883 13.7524 12.4336H16.6964C17.4854 12.4336 18.0597 11.6852 17.8555 10.9231L16.5174 5.92851C16.3768 5.40387 15.9014 5.03906 15.3582 5.03906ZM8.279 6.03916L15.3582 6.03906C15.4488 6.03906 15.528 6.09986 15.5514 6.1873L16.8896 11.1819C16.9236 11.3089 16.8279 11.4336 16.6964 11.4336H7.24975C7.12306 11.4336 7.02829 11.3173 7.05386 11.1933L8.08312 6.19879C8.10227 6.10585 8.1841 6.03916 8.279 6.03916Z" fill="#909090"/>
<path fill-rule="evenodd" clip-rule="evenodd" d="M21.3548 12.2671C21.4754 11.4659 20.8549 10.7451 20.0447 10.7451C19.4406 10.7451 18.9131 11.1537 18.7618 11.7384C18.5519 12.5496 18.1956 13.9237 18.0629 14.4208C18.0497 14.4702 17.9622 14.5841 17.6355 14.677C17.3506 14.758 17.05 14.773 16.9575 14.7753L16.9461 14.7756C16.9284 14.776 16.9056 14.7766 16.8835 14.7775L16.1215 14.8086C15.2904 14.8425 14.6641 15.577 14.762 16.4031C14.8146 16.8461 15.0663 17.2217 15.4212 17.4446L14.8469 18.7162C14.7332 18.9678 14.8451 19.264 15.0968 19.3777C15.3484 19.4913 15.6446 19.3795 15.7583 19.1278L16.42 17.6627L17.7717 17.6628C18.1486 17.6628 18.5121 17.5976 18.8506 17.4772L19.2272 19.091C19.2882 19.3525 19.5581 19.4993 19.83 19.4188C20.1019 19.3384 20.2729 19.0612 20.2119 18.7997L19.7821 16.9581C20.3971 16.4662 20.8308 15.751 20.9555 14.9222L21.3548 12.2671ZM20.0447 11.7451C20.2434 11.7451 20.3955 11.9219 20.366 12.1183L19.9666 14.7734C19.8032 15.8595 18.8701 16.6628 17.7717 16.6628L16.1798 16.6627C15.9631 16.6627 15.7806 16.5006 15.7551 16.2854C15.7258 16.038 15.9134 15.8179 16.1623 15.8078L16.9243 15.7767C16.9373 15.7761 16.9494 15.7758 16.9658 15.7754L16.983 15.775C17.1045 15.7719 17.5036 15.7542 17.909 15.6389C18.2726 15.5354 18.866 15.2893 19.0291 14.6787C19.163 14.177 19.5205 12.7982 19.7299 11.9889C19.7671 11.8453 19.8965 11.7451 20.0447 11.7451Z" fill="#909090"/>
<path fill-rule="evenodd" clip-rule="evenodd" d="M3.95552 10.7451C3.14532 10.7451 2.52487 11.4659 2.64538 12.2671L3.04475 14.9222C3.16941 15.751 3.60312 16.4662 4.21816 16.9581L3.78837 18.7997C3.72734 19.0612 3.89829 19.3384 4.17019 19.4188C4.4421 19.4993 4.71199 19.3525 4.77302 19.091L5.14966 17.4772C5.48813 17.5976 5.85162 17.6628 6.22852 17.6628L7.58024 17.6627L8.24195 19.1278C8.35562 19.3795 8.65178 19.4913 8.90344 19.3777C9.15511 19.264 9.26697 18.9678 9.15331 18.7162L8.579 17.4446C8.93393 17.2217 9.18567 16.8461 9.23817 16.4031C9.33607 15.577 8.70984 14.8425 7.8787 14.8086L7.11672 14.7775C7.09461 14.7766 7.07179 14.776 7.05414 14.7756L7.04268 14.7753C6.95025 14.773 6.64964 14.758 6.36474 14.677C6.03801 14.5841 5.95052 14.4702 5.93732 14.4208C5.8046 13.9237 5.44836 12.5496 5.23841 11.7384C5.0871 11.1537 4.55962 10.7451 3.95552 10.7451ZM3.63426 12.1183C3.60471 11.9219 3.75685 11.7451 3.95552 11.7451C4.10367 11.7451 4.23315 11.8453 4.2703 11.9889C4.47974 12.7982 4.83719 14.177 4.97116 14.6787C5.13417 15.2893 5.72759 15.5354 6.09118 15.6389C6.4966 15.7542 6.89575 15.7719 7.01723 15.775L7.03444 15.7754C7.05086 15.7758 7.06292 15.7761 7.07591 15.7767L7.83789 15.8078C8.08686 15.8179 8.27445 16.038 8.24512 16.2854C8.21962 16.5006 8.03717 16.6627 7.82045 16.6627L6.22849 16.6628C5.13017 16.6628 4.19699 15.8595 4.03363 14.7734L3.63426 12.1183Z" fill="#909090"/>
</svg>
