<svg width="24" height="24" viewBox="0 0 24 24" fill="none" xmlns="http://www.w3.org/2000/svg">
<path fill-rule="evenodd" clip-rule="evenodd" d="M18.5399 6.96968C17.3999 5.52968 15.6699 4.58968 13.8899 4.21968C12.1299 3.79968 10.2799 3.99968 8.63994 4.75968C6.99994 5.52968 5.65994 6.82968 4.84994 8.44968C4.03994 10.0697 3.79994 11.9197 4.16994 13.6997C4.53994 15.4797 5.49994 17.0697 6.88994 18.2397C8.27994 19.3997 10.0299 20.0597 11.8399 20.1097C13.6499 20.1597 15.4299 19.5897 16.8799 18.4997C17.1499 18.2997 17.1999 17.9297 16.9999 17.6597C16.7999 17.3897 16.4299 17.3397 16.1599 17.5397C14.9299 18.4697 13.4099 18.9497 11.8699 18.9097C10.3299 18.8697 8.83994 18.3097 7.65994 17.3197C6.47994 16.3297 5.65994 14.9697 5.33994 13.4597C5.01994 11.9497 5.22994 10.3797 5.91994 8.99968C6.60994 7.61968 7.74994 6.50968 9.13994 5.85968C10.5399 5.20968 12.1199 5.03968 13.6199 5.39968H13.6399C15.1999 5.72968 16.6599 6.53968 17.5999 7.72968C18.5299 8.89968 18.8999 10.4697 18.8999 12.0697V12.8097C18.8999 13.7697 18.1699 14.4397 17.1599 14.4397C16.1499 14.4397 15.3499 13.7397 15.3499 12.8097V12.1397C15.3499 12.1397 15.3499 12.0897 15.3499 12.0597C15.3499 12.0297 15.3499 12.0097 15.3499 11.9797V9.07968C15.3499 8.74968 15.0799 8.47968 14.7499 8.47968C14.4199 8.47968 14.1499 8.74968 14.1499 9.07968V9.33968C13.5499 8.79968 12.7699 8.45968 11.9099 8.45968C9.97994 8.45968 8.45994 10.0997 8.45994 12.0597C8.45994 14.0197 9.97994 15.6597 11.9099 15.6597C13.0099 15.6597 13.9699 15.1097 14.5999 14.2897C15.1499 15.1297 16.1399 15.6297 17.1699 15.6297C18.7499 15.6297 20.1099 14.5097 20.1099 12.7997V12.0597C20.1099 10.2997 19.6999 8.42968 18.5499 6.97968L18.5399 6.96968ZM11.8999 14.4497C10.6899 14.4497 9.64994 13.3997 9.64994 12.0497C9.64994 10.6997 10.6899 9.64968 11.8999 9.64968C13.1099 9.64968 14.0999 10.6597 14.1399 11.9697V12.1297C14.0999 13.4497 13.0899 14.4497 11.8999 14.4497Z" fill="#333333"/>
</svg>
