<svg width="24" height="24" viewBox="0 0 24 24" fill="none" xmlns="http://www.w3.org/2000/svg">
<path fill-rule="evenodd" clip-rule="evenodd" d="M7 4.86328C5.34315 4.86328 4 6.20643 4 7.86328V11.7642C4 12.8732 4.60177 13.8416 5.49658 14.3608V15.7756C5.49658 17.0151 6.99522 17.6359 7.8717 16.7594L9.72278 14.9083C9.7692 14.8619 9.81141 14.8137 9.84956 14.7642H13.8708C15.5277 14.7642 16.8708 13.421 16.8708 11.7642V10.2342H17.1999C18.0836 10.2342 18.8 10.9505 18.8 11.8341V14.451C18.8 15.0646 18.4549 15.5996 17.9425 15.8688L17.3008 16.2061V17.7562C17.3008 17.8157 17.2854 17.846 17.2721 17.8649C17.2549 17.8892 17.2251 17.9155 17.1827 17.933C17.1404 17.9505 17.1007 17.9531 17.0714 17.948C17.0487 17.9441 17.0163 17.9336 16.9742 17.8915L15.1336 16.051H13.036C12.9752 16.051 12.9151 16.0476 12.8561 16.0409C12.8175 16.0424 12.7787 16.0432 12.7398 16.0432H10.7324C11.2378 16.7729 12.0811 17.2509 13.036 17.2509H14.6365L16.1257 18.74C17.0022 19.6165 18.5008 18.9957 18.5008 17.7562V16.931C19.3921 16.4626 20 15.5278 20 14.451V11.8341C20 10.2878 18.7464 9.03418 17.1999 9.03418H16.8708V7.86328C16.8708 6.20643 15.5277 4.86328 13.8708 4.86328H7ZM6.69658 13.6697L6.09882 13.3229C5.5588 13.0096 5.2 12.4281 5.2 11.7642V7.86328C5.2 6.86917 6.00589 6.06328 7 6.06328H13.8708C14.865 6.06328 15.6708 6.86917 15.6708 7.86328V11.7642C15.6708 12.7583 14.865 13.5642 13.8708 13.5642H9.2587L8.89843 14.0325C8.89228 14.0405 8.88439 14.0497 8.87425 14.0598L7.02317 15.9109C6.9811 15.9529 6.94875 15.9634 6.92599 15.9674C6.89668 15.9724 6.85703 15.9699 6.81468 15.9523C6.77234 15.9348 6.74249 15.9086 6.72535 15.8843C6.71205 15.8654 6.69658 15.8351 6.69658 15.7756V13.6697Z" fill="#333333"/>
</svg>
