<svg width="24" height="24" viewBox="0 0 24 24" fill="none" xmlns="http://www.w3.org/2000/svg">
<path fill-rule="evenodd" clip-rule="evenodd" d="M11.9999 5.2C8.24678 5.2 5.19951 8.24622 5.19951 12.0103C5.19951 13.18 5.49862 14.2851 6.02378 15.2448L6.02485 15.2468C6.14382 15.4661 6.15133 15.7087 6.14447 15.8713C6.13681 16.053 6.10419 16.249 6.063 16.4391C5.98056 16.8196 5.84469 17.2598 5.71825 17.6617C5.70453 17.7053 5.69093 17.7484 5.6775 17.791C5.58176 18.0947 5.4945 18.3715 5.43127 18.6059C5.67173 18.5373 5.95774 18.4375 6.27717 18.3259L6.32962 18.3076C6.71758 18.1722 7.15026 18.0226 7.53151 17.9329C7.72272 17.8879 7.92363 17.8523 8.11467 17.8456C8.29443 17.8393 8.53525 17.8553 8.75646 17.9771C9.71565 18.5017 10.8203 18.8008 11.9999 18.8008C15.7535 18.8008 18.8003 15.754 18.8003 12.0004C18.8003 8.24675 15.7535 5.2 11.9999 5.2ZM5.0007 18.6899C5.0007 18.6899 5.00536 18.6897 5.01303 18.6907C5.00427 18.6906 5.0007 18.6899 5.0007 18.6899ZM3.99951 12.0103C3.99951 7.58452 7.583 4 11.9999 4C16.4163 4 20.0003 7.584 20.0003 12.0004C20.0003 16.4168 16.4163 20.0008 11.9999 20.0008C10.6266 20.0008 9.33465 19.655 8.20918 19.0454C8.19869 19.0446 8.18163 19.0439 8.1567 19.0448C8.07613 19.0476 7.96044 19.0647 7.80645 19.1009C7.4973 19.1737 7.12519 19.301 6.72501 19.4406C6.69984 19.4494 6.67452 19.4582 6.64908 19.4671C6.28827 19.5932 5.90297 19.7279 5.58038 19.8081C5.40872 19.8507 5.22002 19.8873 5.04208 19.8905C4.8912 19.8932 4.59196 19.8767 4.36272 19.6474C4.22545 19.5102 4.17752 19.3494 4.15859 19.2498C4.13868 19.1451 4.13885 19.0445 4.14376 18.9641C4.15359 18.803 4.18946 18.6249 4.2305 18.457C4.3042 18.1554 4.42003 17.7883 4.53211 17.4331C4.54601 17.389 4.55986 17.3451 4.57356 17.3016C4.70244 16.8919 4.82126 16.5032 4.89022 16.185C4.92474 16.0257 4.94199 15.9049 4.94554 15.8207C4.94639 15.8006 4.94632 15.7854 4.94594 15.7746C4.34213 14.6533 3.99951 13.3675 3.99951 12.0103Z" fill="#333333"/>
<path fill-rule="evenodd" clip-rule="evenodd" d="M16.6118 9.97578C16.8578 10.1977 16.8773 10.5771 16.6554 10.8232L14.1193 13.6345C13.6899 14.1193 12.989 14.08 12.5946 13.6309L10.5686 11.3242L8.24076 13.9747C8.02209 14.2237 7.64298 14.2482 7.39401 14.0296C7.14503 13.8109 7.12046 13.4318 7.33913 13.1828L9.79913 10.3818C9.99402 10.1599 10.2689 10.025 10.5686 10.025C10.8683 10.025 11.1432 10.1599 11.3381 10.3818L13.3603 12.6843L15.7644 10.0194C15.9863 9.77334 16.3657 9.75382 16.6118 9.97578Z" fill="#333333"/>
</svg>
