<svg width="24" height="24" viewBox="0 0 24 24" fill="none" xmlns="http://www.w3.org/2000/svg">
<path fill-rule="evenodd" clip-rule="evenodd" d="M7.28701 17.1993V19.7281C7.28701 19.7876 7.30248 19.8179 7.31578 19.8368C7.33291 19.8611 7.36276 19.8873 7.40511 19.9049C7.44745 19.9224 7.48711 19.925 7.51642 19.9199C7.53918 19.916 7.57153 19.9055 7.6136 19.8634L10.4595 17.0175H17.0001C17.9942 17.0175 18.8001 16.2116 18.8001 15.2175V8C18.8001 7.00589 17.9942 6.2 17.0001 6.2H7C6.00589 6.2 5.2 7.00589 5.2 8V15.2175C5.2 16.0188 5.72442 16.7007 6.45183 16.9328L7.28701 17.1993ZM4 8C4 6.34315 5.34315 5 7 5H17.0001C18.6569 5 20.0001 6.34315 20.0001 8V15.2175C20.0001 16.8743 18.6569 18.2175 17.0001 18.2175H10.9566L8.46213 20.7119C7.58565 21.5884 6.08701 20.9677 6.08701 19.7281V18.076C4.87659 17.6897 4 16.556 4 15.2175V8Z" fill="#333333"/>
<path fill-rule="evenodd" clip-rule="evenodd" d="M7.57407 9.8696C7.57407 9.53823 7.8427 9.2696 8.17407 9.2696H15.4785C15.8098 9.2696 16.0785 9.53823 16.0785 9.8696C16.0785 10.201 15.8098 10.4696 15.4785 10.4696H8.17407C7.8427 10.4696 7.57407 10.201 7.57407 9.8696Z" fill="#333333"/>
<path fill-rule="evenodd" clip-rule="evenodd" d="M7.57407 12.6522C7.57407 12.3209 7.8427 12.0522 8.17407 12.0522H13.7393C14.0707 12.0522 14.3393 12.3209 14.3393 12.6522C14.3393 12.9836 14.0707 13.2522 13.7393 13.2522H8.17407C7.8427 13.2522 7.57407 12.9836 7.57407 12.6522Z" fill="#333333"/>
</svg>
