<svg width="24" height="24" viewBox="0 0 24 24" fill="none" xmlns="http://www.w3.org/2000/svg">
<path fill-rule="evenodd" clip-rule="evenodd" d="M11.9999 5.60039C7.78493 5.60039 4.5999 8.33 4.5999 11.4403C4.5999 12.9407 5.32224 14.3326 6.55578 15.3908C6.84893 15.6423 7.0174 16.0484 6.92438 16.4687C6.73833 17.3093 6.47036 18.1558 6.23803 18.8191C7.08551 18.4486 8.25499 17.9007 9.43931 17.2303C9.67568 17.0965 9.94895 17.0563 10.2076 17.1072C10.7808 17.2202 11.3811 17.2803 11.9999 17.2803C16.2149 17.2803 19.3999 14.5507 19.3999 11.4403C19.3999 8.33 16.2149 5.60039 11.9999 5.60039ZM3.3999 11.4403C3.3999 7.4373 7.37832 4.40039 11.9999 4.40039C16.6215 4.40039 20.5999 7.4373 20.5999 11.4403C20.5999 15.4434 16.6215 18.4803 11.9999 18.4803C11.3132 18.4803 10.6446 18.4145 10.0032 18.29C8.67477 19.0401 7.37444 19.6375 6.49883 20.014C5.56628 20.4149 4.72951 19.4723 5.03768 18.6136C5.27056 17.9648 5.5492 17.1092 5.73894 16.2709C4.30738 15.028 3.3999 13.333 3.3999 11.4403Z" fill="#333333"/>
</svg>
