<svg width="24" height="24" viewBox="0 0 24 24" fill="none" xmlns="http://www.w3.org/2000/svg">
<path d="M14.1612 11.6052V6.2011C14.1612 5.0037 13.1905 4.03301 11.9931 4.03301C10.7957 4.03301 9.82503 5.0037 9.82503 6.2011V7.47634L8.62503 6.27634V6.2011C8.62503 4.34096 10.133 2.83301 11.9931 2.83301C13.8533 2.83301 15.3612 4.34096 15.3612 6.2011V11.6052C15.3612 12.0245 15.2846 12.4258 15.1447 12.796L14.1523 11.8036C14.1582 11.7383 14.1612 11.6721 14.1612 11.6052Z" fill="#333333"/>
<path fill-rule="evenodd" clip-rule="evenodd" d="M8.62503 9.4734L5.57592 6.42429C5.34161 6.18997 5.34161 5.81008 5.57592 5.57576C5.81023 5.34145 6.19013 5.34145 6.42445 5.57576L18.4244 17.5758C18.6588 17.8101 18.6588 18.19 18.4244 18.4243C18.1901 18.6586 17.8102 18.6586 17.5759 18.4243L16.066 16.9143C15.1442 17.6422 13.9818 18.1525 12.596 18.2687V19.9654H14.3748C14.7061 19.9654 14.9748 20.234 14.9748 20.5654C14.9748 20.8968 14.7061 21.1654 14.3748 21.1654H9.61768C9.28631 21.1654 9.01768 20.8968 9.01768 20.5654C9.01768 20.234 9.28631 19.9654 9.61768 19.9654H11.396V18.27C7.39479 17.9449 5.34257 14.3542 5.40061 11.692C5.40783 11.3607 5.68225 11.098 6.01355 11.1052C6.34484 11.1124 6.60755 11.3868 6.60033 11.7181C6.55064 13.9974 8.42183 17.0938 11.9892 17.0938C13.2829 17.0938 14.362 16.684 15.2074 16.0558L13.6754 14.5238C13.1804 14.8097 12.6059 14.9733 11.9931 14.9733C10.133 14.9733 8.62503 13.4654 8.62503 11.6052V9.4734ZM9.82503 10.6734V11.6052C9.82503 12.8026 10.7957 13.7733 11.9931 13.7733C12.2701 13.7733 12.5349 13.7214 12.7784 13.6268L9.82503 10.6734Z" fill="#333333"/>
<path d="M17.5779 15.2292C18.3004 14.088 18.65 12.7986 18.5954 11.678C18.5793 11.347 18.2979 11.0917 17.9669 11.1079C17.6359 11.124 17.3807 11.4054 17.3968 11.7364C17.4366 12.5531 17.1997 13.4941 16.706 14.3573L17.5779 15.2292Z" fill="#333333"/>
</svg>
