<svg width="24" height="24" viewBox="0 0 24 24" fill="none" xmlns="http://www.w3.org/2000/svg">
<path fill-rule="evenodd" clip-rule="evenodd" d="M8.62803 6.19665C8.62803 4.33519 10.137 2.82617 11.9985 2.82617C13.86 2.82617 15.369 4.33519 15.369 6.19666V11.6032C15.369 13.4647 13.86 14.9737 11.9985 14.9737C10.137 14.9737 8.62803 13.4647 8.62803 11.6032V6.19665ZM11.9985 4.02617C10.7998 4.02617 9.82803 4.99793 9.82803 6.19665V11.6032C9.82803 12.802 10.7998 13.7737 11.9985 13.7737C13.1972 13.7737 14.169 12.802 14.169 11.6032V6.19666C14.169 4.99793 13.1972 4.02617 11.9985 4.02617ZM5.3999 11.7047C5.3999 11.3734 5.66853 11.1047 5.9999 11.1047C6.33127 11.1047 6.5999 11.3734 6.5999 11.7047C6.5999 14.6871 9.01757 17.1047 11.9999 17.1047C14.9822 17.1047 17.3999 14.6871 17.3999 11.7047C17.3999 11.3734 17.6685 11.1047 17.9999 11.1047C18.3313 11.1047 18.5999 11.3734 18.5999 11.7047C18.5999 15.1476 15.9639 17.9746 12.5999 18.2778V19.9657H14.3999C14.7313 19.9657 14.9999 20.2344 14.9999 20.5657C14.9999 20.8971 14.7313 21.1657 14.3999 21.1657H9.5999C9.26853 21.1657 8.9999 20.8971 8.9999 20.5657C8.9999 20.2344 9.26853 19.9657 9.5999 19.9657H11.3999V18.2778C8.03595 17.9746 5.3999 15.1476 5.3999 11.7047Z" fill="#333333"/>
</svg>
