<svg width="24" height="24" viewBox="0 0 24 24" fill="none" xmlns="http://www.w3.org/2000/svg">
<path fill-rule="evenodd" clip-rule="evenodd" d="M6.57571 5.57613C6.81003 5.34181 7.18993 5.34181 7.42424 5.57613L16.0029 14.1548V9.6033C16.0029 9.27192 16.2715 9.0033 16.6029 9.0033C16.9343 9.0033 17.2029 9.27192 17.2029 9.6033V15.6033C17.2029 15.9347 16.9343 16.2033 16.6029 16.2033H10.6029C10.2715 16.2033 10.0029 15.9347 10.0029 15.6033C10.0029 15.2719 10.2715 15.0033 10.6029 15.0033H15.1544L6.57571 6.42465C6.3414 6.19034 6.3414 5.81044 6.57571 5.57613ZM18.3783 18.9962L5.56582 18.9962C5.23445 18.9962 4.96582 18.7276 4.96582 18.3962C4.96582 18.0648 5.23445 17.7962 5.56582 17.7962L18.3783 17.7962C18.7097 17.7962 18.9783 18.0648 18.9783 18.3962C18.9783 18.7276 18.7097 18.9962 18.3783 18.9962Z" fill="#333333"/>
</svg>
