<svg width="24" height="24" viewBox="0 0 24 24" fill="none" xmlns="http://www.w3.org/2000/svg">
<path fill-rule="evenodd" clip-rule="evenodd" d="M6.0166 5.60928C6.0166 4.38407 7.0176 3.40039 8.24057 3.40039H15.7593C16.9823 3.40039 17.9832 4.3841 17.9832 5.60928V18.3915C17.9832 19.6166 16.9823 20.6004 15.7593 20.6004H8.24057C7.01759 20.6004 6.0166 19.6167 6.0166 18.3915V5.60928ZM8.24057 4.60039C7.66976 4.60039 7.2166 5.05735 7.2166 5.60928V18.3915C7.2166 18.9434 7.66977 19.4004 8.24057 19.4004H15.7593C16.33 19.4004 16.7832 18.9434 16.7832 18.3915V5.60928C16.7832 5.05732 16.3301 4.60039 15.7593 4.60039H8.24057Z" fill="#333333"/>
<path fill-rule="evenodd" clip-rule="evenodd" d="M9.3999 6.20038C9.3999 5.86901 9.66853 5.60038 9.9999 5.60038H13.9999C14.3313 5.60038 14.5999 5.86901 14.5999 6.20038C14.5999 6.53175 14.3313 6.80038 13.9999 6.80038H9.9999C9.66853 6.80038 9.3999 6.53175 9.3999 6.20038Z" fill="#333333"/>
<path d="M11.9999 18.5009C12.6907 18.5009 13.2508 17.9408 13.2508 17.2499C13.2508 16.5593 12.6907 15.9992 11.9999 15.9992C11.3091 15.9992 10.749 16.5593 10.749 17.2499C10.749 17.9408 11.3091 18.5009 11.9999 18.5009Z" fill="#333333"/>
</svg>
