<svg width="24" height="24" viewBox="0 0 24 24" fill="none" xmlns="http://www.w3.org/2000/svg">
<path d="M9.8131 14.6598C10.1431 14.5998 10.3531 14.2898 10.3031 13.9698C10.2531 13.6498 9.9431 13.4298 9.6131 13.4798C6.6631 13.9898 4.8331 15.9098 4.6031 18.7498C4.5831 19.0398 4.6831 19.3298 4.8831 19.5498C5.0831 19.7698 5.3831 19.8998 5.6831 19.8998H9.6631C9.9931 19.8998 10.2631 19.6298 10.2631 19.2998C10.2631 18.9698 9.9931 18.6998 9.6631 18.6998L5.8131 18.7398C5.9531 17.3998 6.6631 15.2098 9.8131 14.6598Z" fill="#333333"/>
<path d="M11.6731 12.3398C12.7731 12.3398 13.7131 11.8798 14.3931 11.0098C15.0031 10.2298 15.3531 9.1898 15.3731 8.0698C15.4031 6.9498 15.0931 5.8998 14.5031 5.1298C13.8331 4.2598 12.8531 3.7998 11.6631 3.7998C11.3231 3.7998 10.9231 3.8698 10.5231 3.9998C10.1531 4.1198 9.8131 4.2898 9.5831 4.4598C8.2831 5.4198 7.6831 7.3098 8.0931 9.1698C8.5231 11.1198 9.8831 12.3398 11.6631 12.3398H11.6731ZM10.3031 5.4298C10.4031 5.3498 10.6231 5.2398 10.9131 5.1398C11.1831 5.0498 11.4631 4.9998 11.6731 4.9998C12.4831 4.9998 13.1231 5.2898 13.5531 5.8598C13.9731 6.4098 14.1931 7.1998 14.1731 8.0398C14.1531 8.8798 13.8831 9.6998 13.4431 10.2698C12.9931 10.8498 12.3931 11.1398 11.6631 11.1398C10.4731 11.1398 9.5731 10.3098 9.2731 8.9198C8.9731 7.5398 9.3931 6.0998 10.3031 5.4398V5.4298Z" fill="#333333"/>
<path d="M20.6631 14.8398C20.5231 14.6998 20.3131 14.6498 20.1331 14.6898L18.1031 15.1098L16.7031 12.8898C16.4831 12.5398 15.9131 12.5398 15.6931 12.8898L14.2931 15.1098L12.2631 14.6898C12.0731 14.6498 11.8731 14.7098 11.7331 14.8398C11.5931 14.9698 11.5231 15.1698 11.5531 15.3598L12.1331 19.4198C12.1731 19.7198 12.4331 19.9398 12.7231 19.9398H19.6631C19.9631 19.9398 20.2131 19.7198 20.2531 19.4298L20.8631 15.3698C20.8931 15.1798 20.8231 14.9798 20.6831 14.8398H20.6631ZM19.1231 18.7398H13.2231L12.8431 16.0398L14.4431 16.3698C14.6831 16.4198 14.9431 16.3198 15.0731 16.0998L16.1931 14.3298L17.3131 16.0998C17.4431 16.3098 17.7031 16.4198 17.9431 16.3698L19.5331 16.0398L19.1231 18.7398Z" fill="#333333"/>
</svg>
