<svg width="24" height="24" viewBox="0 0 24 24" fill="none" xmlns="http://www.w3.org/2000/svg">
<path fill-rule="evenodd" clip-rule="evenodd" d="M18 7.29961H6C5.55817 7.29961 5.2 7.65778 5.2 8.09961V15.8996C5.2 16.3414 5.55817 16.6996 6 16.6996H18C18.4418 16.6996 18.8 16.3414 18.8 15.8996V8.09961C18.8 7.65778 18.4418 7.29961 18 7.29961ZM6 6.09961C4.89543 6.09961 4 6.99504 4 8.09961V15.8996C4 17.0042 4.89543 17.8996 6 17.8996H18C19.1046 17.8996 20 17.0042 20 15.8996V8.09961C20 6.99504 19.1046 6.09961 18 6.09961H6Z" fill="#333333"/>
<path fill-rule="evenodd" clip-rule="evenodd" d="M12.0009 8.53772C12.3042 8.53772 12.5549 8.76277 12.5952 9.05499C13.2442 9.20845 13.7934 9.62146 14.0957 10.3091C14.2291 10.6124 14.0914 10.9664 13.788 11.0998C13.4847 11.2332 13.1307 11.0955 12.9973 10.7921C12.8227 10.3951 12.4879 10.1865 11.9919 10.1865C11.6171 10.1865 11.3604 10.2895 11.2173 10.405C11.0871 10.5101 11.0342 10.6336 11.0458 10.7836C11.056 10.9162 11.1108 11.02 11.2554 11.1206C11.4208 11.2358 11.7012 11.3396 12.1213 11.3926C12.6431 11.4583 13.1513 11.6053 13.5424 11.8979C13.9616 12.2115 14.2127 12.67 14.2127 13.2403C14.2127 13.7809 13.9994 14.2697 13.5669 14.6077C13.291 14.8233 12.9534 14.9565 12.5786 15.0213C12.509 15.2755 12.2762 15.4623 11.9999 15.4623C11.7249 15.4623 11.493 15.2772 11.4222 15.0248C11.037 14.9614 10.7146 14.8311 10.4515 14.6443C10.0669 14.3712 9.86012 14.0136 9.75617 13.6944C9.65358 13.3793 9.82586 13.0407 10.141 12.9381C10.456 12.8355 10.7946 13.0078 10.8972 13.3229C10.9376 13.447 11.0107 13.5696 11.1462 13.6658C11.2827 13.7627 11.5334 13.869 11.9919 13.869C12.4369 13.869 12.6947 13.7663 12.828 13.6622C12.9424 13.5728 13.0127 13.4473 13.0127 13.2403C13.0127 13.0631 12.952 12.9548 12.8236 12.8587C12.6672 12.7417 12.3921 12.6362 11.9712 12.5831C11.4486 12.5173 10.9552 12.3738 10.5698 12.1055C10.1635 11.8226 9.89032 11.4068 9.84937 10.8759C9.80537 10.3055 10.0469 9.80747 10.4638 9.47108C10.7284 9.25753 11.0527 9.11587 11.4082 9.04353C11.4534 8.75691 11.7016 8.53772 12.0009 8.53772Z" fill="#333333"/>
<path d="M8.118 12.0223C8.118 12.4364 7.78233 12.7721 7.36825 12.7721C6.95417 12.7721 6.61849 12.4364 6.61849 12.0223C6.61849 11.6083 6.95417 11.2726 7.36825 11.2726C7.78233 11.2726 8.118 11.6083 8.118 12.0223Z" fill="#333333"/>
<path d="M17.3812 12.0223C17.3812 12.4364 17.0455 12.7721 16.6314 12.7721C16.2174 12.7721 15.8817 12.4364 15.8817 12.0223C15.8817 11.6083 16.2174 11.2726 16.6314 11.2726C17.0455 11.2726 17.3812 11.6083 17.3812 12.0223Z" fill="#333333"/>
</svg>
