<svg width="24" height="24" viewBox="0 0 24 24" fill="none" xmlns="http://www.w3.org/2000/svg">
<path fill-rule="evenodd" clip-rule="evenodd" d="M17.8707 15.4342C17.2257 15.6186 16.5454 15.7171 15.8436 15.7171C11.7783 15.7171 8.48262 12.4215 8.48262 8.35612C8.48262 7.51651 8.62365 6.70796 8.88379 5.95408C6.69476 7.0847 5.2 9.369 5.2 12C5.2 15.7555 8.24446 18.8 12 18.8C14.5013 18.8 16.6894 17.4492 17.8707 15.4342ZM18.1594 14.0671C18.842 13.79 19.6962 14.3127 19.4202 14.9957C18.2345 17.9298 15.359 20 12 20C7.58172 20 4 16.4183 4 12C4 8.49044 6.25989 5.50872 9.40385 4.43065C10.1007 4.19171 10.5775 5.07283 10.2642 5.73955C9.89114 6.53375 9.68262 7.42058 9.68262 8.35612C9.68262 11.7588 12.441 14.5171 15.8436 14.5171C16.6627 14.5171 17.4445 14.3573 18.1594 14.0671Z" fill="#333333"/>
</svg>
