<svg width="24" height="24" viewBox="0 0 24 24" fill="none" xmlns="http://www.w3.org/2000/svg">
<path fill-rule="evenodd" clip-rule="evenodd" d="M9.75426 11.9999C9.75426 12.8709 9.04818 13.577 8.17718 13.577C7.30618 13.577 6.6001 12.8709 6.6001 11.9999C6.6001 11.1289 7.30618 10.4229 8.17718 10.4229C9.04818 10.4229 9.75426 11.1289 9.75426 11.9999ZM8.17718 12.677C8.55112 12.677 8.85426 12.3739 8.85426 11.9999C8.85426 11.626 8.55112 11.3229 8.17718 11.3229C7.80324 11.3229 7.5001 11.626 7.5001 11.9999C7.5001 12.3739 7.80324 12.677 8.17718 12.677Z" fill="#909090"/>
<path fill-rule="evenodd" clip-rule="evenodd" d="M13.5772 11.9999C13.5772 12.8709 12.8711 13.577 12.0001 13.577C11.1291 13.577 10.423 12.8709 10.423 11.9999C10.423 11.1289 11.1291 10.4229 12.0001 10.4229C12.8711 10.4229 13.5772 11.1289 13.5772 11.9999ZM12.0001 12.677C12.3741 12.677 12.6772 12.3739 12.6772 11.9999C12.6772 11.626 12.3741 11.3229 12.0001 11.3229C11.6262 11.3229 11.323 11.626 11.323 11.9999C11.323 12.3739 11.6262 12.677 12.0001 12.677Z" fill="#909090"/>
<path fill-rule="evenodd" clip-rule="evenodd" d="M15.8272 13.577C16.6982 13.577 17.4043 12.8709 17.4043 11.9999C17.4043 11.1289 16.6982 10.4229 15.8272 10.4229C14.9562 10.4229 14.2501 11.1289 14.2501 11.9999C14.2501 12.8709 14.9562 13.577 15.8272 13.577ZM16.5043 11.9999C16.5043 12.3739 16.2011 12.677 15.8272 12.677C15.4533 12.677 15.1501 12.3739 15.1501 11.9999C15.1501 11.626 15.4533 11.3229 15.8272 11.3229C16.2011 11.3229 16.5043 11.626 16.5043 11.9999Z" fill="#909090"/>
</svg>
