<svg width="24" height="24" viewBox="0 0 24 24" fill="none" xmlns="http://www.w3.org/2000/svg">
<path fill-rule="evenodd" clip-rule="evenodd" d="M9.28109 11.9997C9.28109 13.041 8.43696 13.8851 7.39567 13.8851C6.35438 13.8851 5.51025 13.041 5.51025 11.9997C5.51025 10.9584 6.35438 10.1143 7.39567 10.1143C8.43696 10.1143 9.28109 10.9584 9.28109 11.9997ZM7.39567 12.8851C7.88467 12.8851 8.28109 12.4887 8.28109 11.9997C8.28109 11.5107 7.88467 11.1143 7.39567 11.1143C6.90667 11.1143 6.51025 11.5107 6.51025 11.9997C6.51025 12.4887 6.90667 12.8851 7.39567 12.8851Z" fill="#909090"/>
<path fill-rule="evenodd" clip-rule="evenodd" d="M13.8852 11.9997C13.8852 13.041 13.0411 13.8851 11.9998 13.8851C10.9585 13.8851 10.1144 13.041 10.1144 11.9997C10.1144 10.9584 10.9585 10.1143 11.9998 10.1143C13.0411 10.1143 13.8852 10.9584 13.8852 11.9997ZM11.9998 12.8851C12.4888 12.8851 12.8852 12.4887 12.8852 11.9997C12.8852 11.5107 12.4888 11.1143 11.9998 11.1143C11.5108 11.1143 11.1144 11.5107 11.1144 11.9997C11.1144 12.4887 11.5108 12.8851 11.9998 12.8851Z" fill="#909090"/>
<path fill-rule="evenodd" clip-rule="evenodd" d="M16.604 13.8851C17.6453 13.8851 18.4894 13.041 18.4894 11.9997C18.4894 10.9584 17.6453 10.1143 16.604 10.1143C15.5627 10.1143 14.7186 10.9584 14.7186 11.9997C14.7186 13.041 15.5627 13.8851 16.604 13.8851ZM17.4894 11.9997C17.4894 12.4887 17.093 12.8851 16.604 12.8851C16.115 12.8851 15.7186 12.4887 15.7186 11.9997C15.7186 11.5107 16.115 11.1143 16.604 11.1143C17.093 11.1143 17.4894 11.5107 17.4894 11.9997Z" fill="#909090"/>
</svg>
