<svg width="24" height="24" viewBox="0 0 24 24" fill="none" xmlns="http://www.w3.org/2000/svg">
<path fill-rule="evenodd" clip-rule="evenodd" d="M8.94382 11.9997C8.94382 13.1538 8.00828 14.0893 6.85423 14.0893C5.70019 14.0893 4.76465 13.1538 4.76465 11.9997C4.76465 10.8457 5.70019 9.91016 6.85423 9.91016C8.00828 9.91016 8.94382 10.8457 8.94382 11.9997ZM6.85423 12.9893C7.40076 12.9893 7.84382 12.5463 7.84382 11.9997C7.84382 11.4532 7.40076 11.0102 6.85423 11.0102C6.3077 11.0102 5.86465 11.4532 5.86465 11.9997C5.86465 12.5463 6.3077 12.9893 6.85423 12.9893Z" fill="#909090"/>
<path fill-rule="evenodd" clip-rule="evenodd" d="M14.0897 11.9997C14.0897 13.1538 13.1542 14.0893 12.0001 14.0893C10.8461 14.0893 9.91052 13.1538 9.91052 11.9997C9.91052 10.8457 10.8461 9.91016 12.0001 9.91016C13.1542 9.91016 14.0897 10.8457 14.0897 11.9997ZM12.0001 12.9893C12.5466 12.9893 12.9897 12.5463 12.9897 11.9997C12.9897 11.4532 12.5466 11.0102 12.0001 11.0102C11.4536 11.0102 11.0105 11.4532 11.0105 11.9997C11.0105 12.5463 11.4536 12.9893 12.0001 12.9893Z" fill="#909090"/>
<path fill-rule="evenodd" clip-rule="evenodd" d="M17.1459 14.0893C18.3 14.0893 19.2355 13.1538 19.2355 11.9997C19.2355 10.8457 18.3 9.91016 17.1459 9.91016C15.9919 9.91016 15.0563 10.8457 15.0563 11.9997C15.0563 13.1538 15.9919 14.0893 17.1459 14.0893ZM18.1355 11.9997C18.1355 12.5463 17.6925 12.9893 17.1459 12.9893C16.5994 12.9893 16.1563 12.5463 16.1563 11.9997C16.1563 11.4532 16.5994 11.0102 17.1459 11.0102C17.6925 11.0102 18.1355 11.4532 18.1355 11.9997Z" fill="#909090"/>
</svg>
