<svg width="24" height="24" viewBox="0 0 24 24" fill="none" xmlns="http://www.w3.org/2000/svg">
<path fill-rule="evenodd" clip-rule="evenodd" d="M7.9498 11.9998C7.9498 13.3529 6.8529 14.4498 5.4998 14.4498C4.14671 14.4498 3.0498 13.3529 3.0498 11.9998C3.0498 10.6467 4.14671 9.5498 5.4998 9.5498C6.8529 9.5498 7.9498 10.6467 7.9498 11.9998ZM5.4998 13.2498C6.19016 13.2498 6.7498 12.6902 6.7498 11.9998C6.7498 11.3094 6.19016 10.7498 5.4998 10.7498C4.80945 10.7498 4.2498 11.3094 4.2498 11.9998C4.2498 12.6902 4.80945 13.2498 5.4998 13.2498Z" fill="#909090"/>
<path fill-rule="evenodd" clip-rule="evenodd" d="M14.4498 11.9998C14.4498 13.3529 13.3529 14.4498 11.9998 14.4498C10.6467 14.4498 9.5498 13.3529 9.5498 11.9998C9.5498 10.6467 10.6467 9.5498 11.9998 9.5498C13.3529 9.5498 14.4498 10.6467 14.4498 11.9998ZM11.9998 13.2498C12.6902 13.2498 13.2498 12.6902 13.2498 11.9998C13.2498 11.3094 12.6902 10.7498 11.9998 10.7498C11.3094 10.7498 10.7498 11.3094 10.7498 11.9998C10.7498 12.6902 11.3094 13.2498 11.9998 13.2498Z" fill="#909090"/>
<path fill-rule="evenodd" clip-rule="evenodd" d="M18.4998 14.4498C19.8529 14.4498 20.9498 13.3529 20.9498 11.9998C20.9498 10.6467 19.8529 9.5498 18.4998 9.5498C17.1467 9.5498 16.0498 10.6467 16.0498 11.9998C16.0498 13.3529 17.1467 14.4498 18.4998 14.4498ZM19.7498 11.9998C19.7498 12.6902 19.1902 13.2498 18.4998 13.2498C17.8094 13.2498 17.2498 12.6902 17.2498 11.9998C17.2498 11.3094 17.8094 10.7498 18.4998 10.7498C19.1902 10.7498 19.7498 11.3094 19.7498 11.9998Z" fill="#909090"/>
</svg>
