<svg width="24" height="24" viewBox="0 0 24 24" fill="none" xmlns="http://www.w3.org/2000/svg">
<path d="M5.99991 17.7999C5.55811 17.7999 5.19996 17.4418 5.19991 17V16.5C5.19991 16.1687 4.93128 15.9 4.59991 15.9C4.26854 15.9 3.99991 16.1687 3.99991 16.5V17.1H4.00237C4.05454 18.1581 4.92891 18.9999 5.99991 18.9999H18C19.1046 18.9999 20 18.1045 20 16.9999V9.4014C20 8.29683 19.1046 7.4014 18 7.4014H14.3079L12.962 5.73136C12.5823 5.26024 12.0098 4.98633 11.4047 4.98633H5.99992C4.92426 4.98633 4.04694 5.83549 4.00175 6.90002H3.99991V7.50002C3.99991 7.8314 4.26854 8.10002 4.59991 8.10002C4.93128 8.10002 5.19991 7.8314 5.19991 7.50002L5.19992 6.98633C5.19992 6.5445 5.55809 6.18633 5.99992 6.18633H11.4047C11.6468 6.18633 11.8758 6.29589 12.0276 6.48434L13.3735 8.15439C13.6013 8.43706 13.9448 8.6014 14.3079 8.6014H18C18.4418 8.6014 18.8 8.95958 18.8 9.4014V16.9999C18.8 17.4417 18.4418 17.7999 18 17.7999H5.99991Z" fill="#909090"/>
<path d="M8.57564 9.42429C8.34132 9.18997 8.34132 8.81008 8.57564 8.57576C8.80995 8.34145 9.18985 8.34145 9.42417 8.57576L12.4234 11.5749L12.431 11.5827C12.4851 11.6386 12.5263 11.7024 12.5544 11.7704C12.5837 11.8411 12.5999 11.9187 12.5999 12C12.5999 12.0814 12.5837 12.1589 12.5544 12.2297C12.5263 12.2976 12.4851 12.3615 12.431 12.4174L12.4233 12.4252L9.42417 15.4243C9.18985 15.6586 8.80995 15.6586 8.57564 15.4243C8.34132 15.19 8.34132 14.8101 8.57564 14.5758L10.5514 12.6H3.4999C3.16853 12.6 2.8999 12.3314 2.8999 12C2.8999 11.6687 3.16853 11.4 3.4999 11.4H10.5514L8.57564 9.42429Z" fill="#909090"/>
</svg>
