<svg width="24" height="24" viewBox="0 0 24 24" fill="none" xmlns="http://www.w3.org/2000/svg">
<path d="M17.3096 8.73498C17.3096 8.94963 17.5691 9.05712 17.7209 8.90534L19.6947 6.9315C19.7888 6.83741 19.7888 6.68485 19.6947 6.59076L17.7209 4.61695C17.5691 4.46517 17.3096 4.57267 17.3096 4.78732L17.3096 6.1501C16.6697 6.13201 15.8676 6.18073 15.0941 6.45601C14.5062 6.66525 13.9244 7.00869 13.4453 7.55821C12.9653 8.10885 12.6138 8.83763 12.4444 9.77815C12.3856 10.1043 12.6024 10.4163 12.9285 10.475C13.2546 10.5337 13.5666 10.317 13.6254 9.99085C13.7616 9.23429 14.0308 8.71277 14.3499 8.34673C14.67 7.97957 15.0655 7.73993 15.4965 7.58654C16.1021 7.37098 16.7559 7.33265 17.3096 7.35098L17.3096 8.73498Z" fill="#333333"/>
<path d="M11.4 4.6748C11.7314 4.6748 12 4.94343 12 5.2748C12 5.60618 11.7314 5.8748 11.4 5.8748H7.18486C6.35644 5.8748 5.68486 6.54638 5.68486 7.37481V16.6248C5.68486 17.4532 6.35644 18.1248 7.18486 18.1248H16.8151C17.6436 18.1248 18.3151 17.4532 18.3151 16.6248V11.5998C18.3151 11.2684 18.5838 10.9998 18.9151 10.9998C19.2465 10.9998 19.5151 11.2684 19.5151 11.5998V16.6248C19.5151 18.116 18.3063 19.3248 16.8151 19.3248H7.18486C5.69369 19.3248 4.48486 18.116 4.48486 16.6248V7.37481C4.48486 5.88364 5.69369 4.6748 7.18486 4.6748H11.4Z" fill="#333333"/>
<path d="M10.9904 9.33346C11.2235 9.09786 11.2214 8.71797 10.9858 8.48494C10.7502 8.25191 10.3703 8.254 10.1373 8.48959L8.83218 9.80906L8.18221 9.29275C7.92274 9.08663 7.54531 9.12989 7.3392 9.38935C7.13309 9.64882 7.17634 10.0263 7.43581 10.2324L8.50714 11.0834C8.74689 11.2739 9.0916 11.2532 9.30692 11.0355L10.9904 9.33346Z" fill="#333333"/>
<path d="M13.0199 13.7363C12.6886 13.7363 12.4199 14.005 12.4199 14.3363C12.4199 14.6677 12.6886 14.9363 13.0199 14.9363H16.5199C16.8513 14.9363 17.1199 14.6677 17.1199 14.3363C17.1199 14.005 16.8513 13.7363 16.5199 13.7363H13.0199Z" fill="#333333"/>
<path d="M10.9858 12.9596C11.2214 13.1926 11.2235 13.5725 10.9904 13.8081L9.30692 15.5101C9.0916 15.7278 8.74689 15.7485 8.50714 15.558L7.43581 14.707C7.17634 14.5009 7.13309 14.1234 7.3392 13.864C7.54531 13.6045 7.92274 13.5612 8.18221 13.7674L8.83218 14.2837L10.1373 12.9642C10.3703 12.7286 10.7502 12.7265 10.9858 12.9596Z" fill="#333333"/>
</svg>
