<svg width="24" height="24" viewBox="0 0 24 24" fill="none" xmlns="http://www.w3.org/2000/svg">
<path fill-rule="evenodd" clip-rule="evenodd" d="M17.6143 4.20284C18.2969 4.06179 18.9369 4.58307 18.9369 5.28008V14.795C18.9424 14.8301 18.947 14.8655 18.9508 14.9012C19.0325 15.6798 18.6785 16.3831 18.1322 16.889C17.5859 17.3948 16.8215 17.7345 15.9728 17.8236C15.1241 17.9126 14.3058 17.739 13.6664 17.3576C13.027 16.976 12.5348 16.3615 12.4531 15.583C12.3714 14.8044 12.7254 14.1011 13.2717 13.5952C13.8179 13.0894 14.5824 12.7496 15.4311 12.6606C16.2796 12.5716 17.0977 12.7451 17.7369 13.1263V5.40286L10.5249 6.89315C10.3393 6.93151 10.2061 7.09487 10.2058 7.28441L10.1948 16.7783C10.1947 16.8326 10.1874 16.8853 10.1738 16.9353C10.1581 17.6048 9.82594 18.2045 9.34408 18.6507C8.79786 19.1565 8.03338 19.4963 7.1847 19.5853C6.33601 19.6743 5.51768 19.5007 4.87836 19.1193C4.2389 18.7378 3.7467 18.1232 3.66502 17.3447C3.58333 16.5661 3.93726 15.8628 4.48362 15.3569C5.02985 14.8511 5.79432 14.5114 6.64301 14.4223C7.49169 14.3333 8.31003 14.5069 8.94934 14.8884C8.9653 14.8979 8.98116 14.9075 8.99693 14.9173L9.00584 7.28301C9.00672 6.52485 9.53958 5.8714 10.2821 5.71798L17.6143 4.20284ZM17.7597 15.0526C17.7468 15.0071 17.7391 14.9594 17.7373 14.9102C17.6709 14.6329 17.47 14.3644 17.1226 14.1572C16.7267 13.9209 16.1723 13.7894 15.5563 13.8541C14.9403 13.9187 14.4253 14.1624 14.087 14.4756C13.7489 14.7888 13.6132 15.1402 13.6466 15.4577C13.6799 15.7753 13.8855 16.0909 14.2813 16.327C14.6772 16.5632 15.2315 16.6948 15.8476 16.6301C16.4636 16.5655 16.9786 16.3218 17.3168 16.0085C17.6458 15.704 17.7831 15.3632 17.7597 15.0526ZM4.85847 17.2195C4.82515 16.9019 4.96079 16.5505 5.29894 16.2374C5.63722 15.9241 6.15219 15.6804 6.76822 15.6158C7.38426 15.5511 7.93859 15.6827 8.33452 15.9189C8.7303 16.155 8.93592 16.4706 8.96924 16.7882C9.00256 17.1058 8.86691 17.4571 8.52876 17.7703C8.19048 18.0835 7.67552 18.3272 7.05948 18.3919C6.44345 18.4565 5.88911 18.325 5.49319 18.0887C5.09741 17.8526 4.89179 17.537 4.85847 17.2195Z" fill="#333333"/>
</svg>
