<svg width="24" height="24" viewBox="0 0 24 24" fill="none" xmlns="http://www.w3.org/2000/svg">
<path d="M8.11074 3.97949C6.6748 3.97949 5.51074 5.14355 5.51074 6.57949V17.3949C5.51074 18.8311 6.67581 19.9949 8.11147 19.9949H9.91572C9.94322 19.9988 9.97133 20.0008 9.9999 20.0008H11.9999C12.0285 20.0008 12.0566 19.9988 12.0841 19.9949H16.805C17.1364 19.9949 17.405 19.7263 17.405 19.3949C17.405 19.0636 17.1364 18.7949 16.805 18.7949H8.11147C7.33799 18.7949 6.71074 18.1678 6.71074 17.3949V6.57949C6.71074 5.80629 7.33754 5.17949 8.11074 5.17949H15.8759C16.6491 5.17949 17.2759 5.80629 17.2759 6.57949V8.28335C17.2759 8.61472 17.5445 8.88335 17.8759 8.88335C18.2073 8.88335 18.4759 8.61472 18.4759 8.28335V8.16869C18.4915 8.11529 18.4998 8.05882 18.4998 8.00039V7.00039C18.4998 6.94196 18.4915 6.88549 18.4759 6.83209V6.57949C18.4759 5.14355 17.3118 3.97949 15.8759 3.97949H8.11074Z" fill="#333333"/>
<path d="M20.285 12.5153C20.4852 12.2513 20.4335 11.8749 20.1695 11.6747C19.9054 11.4745 19.5291 11.5262 19.3288 11.7902L16.275 15.8172L14.8718 14.5961C14.6218 14.3786 14.2429 14.4049 14.0253 14.6548C13.8078 14.9048 13.8341 15.2838 14.0841 15.5013L15.8101 17.0033C16.1593 17.3073 16.6929 17.2522 16.9727 16.8832L20.285 12.5153Z" fill="#333333"/>
<path d="M8.3999 8.06973C8.3999 7.73836 8.66853 7.46973 8.9999 7.46973H14.9999C15.3313 7.46973 15.5999 7.73836 15.5999 8.06973C15.5999 8.4011 15.3313 8.66973 14.9999 8.66973H8.9999C8.66853 8.66973 8.3999 8.4011 8.3999 8.06973Z" fill="#333333"/>
<path d="M8.9999 10.335C8.66853 10.335 8.3999 10.6036 8.3999 10.935C8.3999 11.2663 8.66853 11.535 8.9999 11.535H14.9999C15.3313 11.535 15.5999 11.2663 15.5999 10.935C15.5999 10.6036 15.3313 10.335 14.9999 10.335H8.9999Z" fill="#333333"/>
<path d="M8.3999 13.8959C8.3999 13.5645 8.66853 13.2959 8.9999 13.2959H11.9999C12.3313 13.2959 12.5999 13.5645 12.5999 13.8959C12.5999 14.2273 12.3313 14.4959 11.9999 14.4959H8.9999C8.66853 14.4959 8.3999 14.2273 8.3999 13.8959Z" fill="#333333"/>
</svg>
