<svg width="24" height="24" viewBox="0 0 24 24" fill="none" xmlns="http://www.w3.org/2000/svg">
<path fill-rule="evenodd" clip-rule="evenodd" d="M4.1958 6.99976C4.1958 6.66839 4.46443 6.39976 4.7958 6.39976H10.3095C10.6408 6.39976 10.9095 6.66839 10.9095 6.99976C10.9095 7.33113 10.6408 7.59976 10.3095 7.59976H4.7958C4.46443 7.59976 4.1958 7.33113 4.1958 6.99976Z" fill="#333333"/>
<path fill-rule="evenodd" clip-rule="evenodd" d="M4.1958 15.9998C4.1958 15.6684 4.46443 15.3998 4.7958 15.3998H7.69813C8.0295 15.3998 8.29813 15.6684 8.29813 15.9998C8.29813 16.3311 8.0295 16.5998 7.69813 16.5998H4.7958C4.46443 16.5998 4.1958 16.3311 4.1958 15.9998Z" fill="#333333"/>
<path fill-rule="evenodd" clip-rule="evenodd" d="M4.1958 11.4998C4.1958 11.1684 4.46443 10.8998 4.7958 10.8998H9.33509C9.66646 10.8998 9.93509 11.1684 9.93509 11.4998C9.93509 11.8311 9.66646 12.0998 9.33509 12.0998H4.7958C4.46443 12.0998 4.1958 11.8311 4.1958 11.4998Z" fill="#333333"/>
<path fill-rule="evenodd" clip-rule="evenodd" d="M12.1136 13.5586C13.1397 12.9763 14.393 12.7977 15.5194 12.7977C16.6458 12.7977 17.8992 12.9763 18.9252 13.5586C19.9855 14.1603 20.766 15.1753 20.9157 16.7244C20.9801 17.39 20.4327 17.8824 19.8419 17.8824H11.1969C10.6061 17.8824 10.0587 17.39 10.1231 16.7244C10.2729 15.1753 11.0533 14.1603 12.1136 13.5586ZM11.3359 16.6824H19.703C19.5596 15.6341 19.0342 15.0002 18.333 14.6022C17.563 14.1653 16.5469 13.9977 15.5194 13.9977C14.4919 13.9977 13.4758 14.1653 12.7059 14.6022C12.0046 15.0002 11.4792 15.6341 11.3359 16.6824Z" fill="#333333"/>
<path fill-rule="evenodd" clip-rule="evenodd" d="M14.9664 6.87579C14.7744 6.93943 14.6478 7.01117 14.6066 7.04152C14.0691 7.43717 13.7645 8.33894 13.9721 9.28471C14.17 10.1864 14.7125 10.6734 15.4258 10.6734C15.8925 10.6734 16.2287 10.4801 16.4834 10.1534C16.7598 9.79885 16.9409 9.27328 16.9546 8.70143C16.9683 8.12852 16.812 7.62643 16.5608 7.29745C16.3377 7.00536 15.9989 6.78691 15.4259 6.78691C15.3213 6.78691 15.1544 6.81345 14.9664 6.87579ZM13.8952 6.07513C11.8386 7.58906 12.5211 11.8734 15.4258 11.8734C18.9132 11.8734 19.2143 5.58691 15.4259 5.58691C14.8931 5.58691 14.2367 5.82373 13.8952 6.07513Z" fill="#333333"/>
</svg>
