<svg width="24" height="24" viewBox="0 0 24 24" fill="none" xmlns="http://www.w3.org/2000/svg">
<path fill-rule="evenodd" clip-rule="evenodd" d="M11.9998 5.20293C8.24544 5.20293 5.20195 8.24642 5.20195 12.0008C5.20195 15.7551 8.24544 18.7986 11.9998 18.7986C15.7541 18.7986 18.7976 15.7551 18.7976 12.0008C18.7976 8.24642 15.7541 5.20293 11.9998 5.20293ZM4.00195 12.0008C4.00195 7.58368 7.5827 4.00293 11.9998 4.00293C16.4169 4.00293 19.9976 7.58368 19.9976 12.0008C19.9976 16.4178 16.4169 19.9986 11.9998 19.9986C7.5827 19.9986 4.00195 16.4178 4.00195 12.0008Z" fill="#333333"/>
<path fill-rule="evenodd" clip-rule="evenodd" d="M9.06396 14.2895C9.06396 13.9581 9.33259 13.6895 9.66396 13.6895H14.335C14.6664 13.6895 14.935 13.9581 14.935 14.2895C14.935 14.6208 14.6664 14.8895 14.335 14.8895H9.66396C9.33259 14.8895 9.06396 14.6208 9.06396 14.2895Z" fill="#333333"/>
<path fill-rule="evenodd" clip-rule="evenodd" d="M9.74502 9.35C10.1592 9.35 10.495 9.68579 10.495 10.1V10.5318C10.495 10.946 10.1592 11.2818 9.74502 11.2818C9.33081 11.2818 8.99502 10.946 8.99502 10.5318V10.1C8.99502 9.68579 9.33081 9.35 9.74502 9.35Z" fill="#333333"/>
<path fill-rule="evenodd" clip-rule="evenodd" d="M14.2538 9.35C14.668 9.35 15.0038 9.68579 15.0038 10.1V10.5318C15.0038 10.946 14.668 11.2818 14.2538 11.2818C13.8396 11.2818 13.5038 10.946 13.5038 10.5318V10.1C13.5038 9.68579 13.8396 9.35 14.2538 9.35Z" fill="#333333"/>
</svg>
