<svg width="24" height="24" viewBox="0 0 24 24" fill="none" xmlns="http://www.w3.org/2000/svg">
<path fill-rule="evenodd" clip-rule="evenodd" d="M20.9037 6.74969C20.9037 8.21544 19.7154 9.40367 18.2497 9.40367C16.7839 9.40367 15.5957 8.21544 15.5957 6.74969C15.5957 5.28393 16.7839 4.0957 18.2497 4.0957C19.7154 4.0957 20.9037 5.28393 20.9037 6.74969ZM19.7037 6.74969C19.7037 7.5527 19.0527 8.20367 18.2497 8.20367C17.4467 8.20367 16.7957 7.5527 16.7957 6.74969C16.7957 5.94667 17.4467 5.2957 18.2497 5.2957C19.0527 5.2957 19.7037 5.94667 19.7037 6.74969Z" fill="#333333"/>
<path d="M7 5C5.34315 5 4 6.34315 4 8V15.2175C4 16.5559 4.87654 17.6897 6.08691 18.076V19.7279C6.08691 20.9674 7.58556 21.5881 8.46203 20.7117L10.9562 18.2175H17.0001C18.6569 18.2175 20.0001 16.8743 20.0001 15.2175V13.0161L20.0003 13.0005V11.4613C20.0003 11.13 19.7317 10.8613 19.4003 10.8613C19.0689 10.8613 18.8003 11.13 18.8003 11.4613L18.8001 15.2175C18.8001 16.2116 17.9942 17.0175 17.0001 17.0175H10.4592L7.61351 19.8631C7.57143 19.9052 7.53908 19.9157 7.51633 19.9196C7.48701 19.9247 7.44736 19.9222 7.40501 19.9046C7.36267 19.8871 7.33282 19.8608 7.31568 19.8365C7.30238 19.8176 7.28691 19.7874 7.28691 19.7279V17.1993L6.45177 16.9328C5.72439 16.7007 5.2 16.0187 5.2 15.2175V8C5.2 7.00589 6.00589 6.2 7 6.2H13.4999C13.8313 6.2 14.0999 5.93137 14.0999 5.6C14.0999 5.26863 13.8313 5 13.4999 5H7Z" fill="#333333"/>
<path d="M7.9999 9.40039C7.66853 9.40039 7.3999 9.66902 7.3999 10.0004C7.3999 10.3318 7.66853 10.6004 7.9999 10.6004H14.4999C14.8313 10.6004 15.0999 10.3318 15.0999 10.0004C15.0999 9.66902 14.8313 9.40039 14.4999 9.40039H7.9999Z" fill="#333333"/>
<path d="M7.9999 12.4004C7.66853 12.4004 7.3999 12.669 7.3999 13.0004C7.3999 13.3318 7.66853 13.6004 7.9999 13.6004H12.9999C13.3313 13.6004 13.5999 13.3318 13.5999 13.0004C13.5999 12.669 13.3313 12.4004 12.9999 12.4004H7.9999Z" fill="#333333"/>
</svg>
