<svg width="24" height="24" viewBox="0 0 24 24" fill="none" xmlns="http://www.w3.org/2000/svg">
<path d="M11.4251 8.17625C11.4251 7.84488 11.6937 7.57625 12.0251 7.57625L13.7633 7.57625C14.0947 7.57625 14.3633 7.84488 14.3633 8.17625C14.3633 8.50762 14.0947 8.77625 13.7633 8.77625H12.0251C11.6937 8.77625 11.4251 8.50762 11.4251 8.17625Z" fill="#333333"/>
<path d="M8.19495 11.0564C7.86358 11.0564 7.59495 11.3251 7.59495 11.6564C7.59495 11.9878 7.86358 12.2564 8.19495 12.2564H13.7633C14.0946 12.2564 14.3633 11.9878 14.3633 11.6564C14.3633 11.3251 14.0946 11.0564 13.7633 11.0564H8.19495Z" fill="#333333"/>
<path d="M7.59495 14.4406C7.59495 14.1092 7.86358 13.8406 8.19495 13.8406H12.3712C12.7026 13.8406 12.9712 14.1092 12.9712 14.4406C12.9712 14.772 12.7026 15.0406 12.3712 15.0406H8.19495C7.86358 15.0406 7.59495 14.772 7.59495 14.4406Z" fill="#333333"/>
<path d="M10.283 8.17624C10.283 8.94507 9.65978 9.56832 8.89095 9.56832C8.12213 9.56832 7.49888 8.94507 7.49888 8.17624C7.49888 7.40742 8.12213 6.78417 8.89095 6.78417C9.65978 6.78417 10.283 7.40742 10.283 8.17624Z" fill="#333333"/>
<path fill-rule="evenodd" clip-rule="evenodd" d="M7.499 20.0089C5.96135 20.0089 4.71484 18.7624 4.71484 17.2247V6.78415C4.71484 5.24651 5.96135 4 7.499 4H15.1554C16.6931 4 17.9396 5.24651 17.9396 6.78415V17.2247C17.9396 17.9159 17.6877 18.5483 17.2707 19.0351L17.3029 19.0287C18.1773 18.8498 18.8527 18.1243 18.9564 17.2248L18.9566 17.2228C18.9656 17.1441 18.9702 17.0641 18.9702 16.9831C18.9702 15.9723 18.96 14.9597 18.9499 13.9467C18.9352 12.483 18.9364 9.76078 18.9364 8.58196C18.9364 7.40315 19.1918 7.40315 19.1918 7.40315C19.1918 7.40315 20.0277 7.65953 20.0277 9.55566C20.0277 11.4518 20.0277 17.2248 20.0277 17.2248C20.0277 18.7624 18.7812 20.0089 17.2435 20.0089H8.89107L8.8771 20.0089H7.499ZM5.91484 17.2247L5.91484 6.78415C5.91484 5.90925 6.62409 5.2 7.499 5.2L15.1554 5.2C16.0303 5.2 16.7396 5.90925 16.7396 6.78415V17.2247C16.7396 18.0996 16.0303 18.8089 15.1554 18.8089H7.499C6.62409 18.8089 5.91484 18.0996 5.91484 17.2247Z" fill="#333333"/>
</svg>
