<svg width="24" height="24" viewBox="0 0 24 24" fill="none" xmlns="http://www.w3.org/2000/svg">
<path fill-rule="evenodd" clip-rule="evenodd" d="M13.1085 10.5546C13.96 11.3458 13.96 12.6937 13.1085 13.4849L7.69012 18.5198C6.6665 19.471 5.00098 18.7451 5.00098 17.3477L5.00098 6.69178C5.00098 5.29445 6.66649 4.56852 7.69011 5.5197L13.1085 10.5546ZM12.2917 12.6058C12.6322 12.2893 12.6322 11.7502 12.2917 11.4337L6.87326 6.39876C6.61736 6.16097 6.20098 6.34245 6.20098 6.69178L6.20098 17.3477C6.20098 17.6971 6.61736 17.8785 6.87326 17.6407L12.2917 12.6058Z" fill="#333333"/>
<path fill-rule="evenodd" clip-rule="evenodd" d="M19.4289 13.4841C20.2803 12.6929 20.2803 11.3451 19.4289 10.5539L14.0105 5.51897C12.9869 4.56779 11.3214 5.29373 11.3214 6.69106V7.03814L12.5214 8.15322V6.69106C12.5214 6.34172 12.9377 6.16024 13.1936 6.39804L18.612 11.433C18.9526 11.7495 18.9526 12.2886 18.612 12.6051L13.1936 17.64C12.9377 17.8778 12.5214 17.6963 12.5214 17.347V15.8848L11.3214 16.9999V17.347C11.3214 18.7443 12.9869 19.4703 14.0105 18.5191L19.4289 13.4841Z" fill="#333333"/>
</svg>
