<svg width="24" height="24" viewBox="0 0 24 24" fill="none" xmlns="http://www.w3.org/2000/svg">
<path d="M6.5521 5.70894C6.31779 5.47463 5.93789 5.47462 5.70357 5.70893C5.46926 5.94325 5.46925 6.32315 5.70356 6.55746L6.79205 7.64598C5.71917 8.19026 4.72854 8.90426 3.86184 9.7707C3.62749 10.005 3.62743 10.3849 3.86171 10.6192C4.09599 10.8536 4.47589 10.8536 4.71024 10.6194C5.58142 9.74844 6.59237 9.04948 7.69037 8.54431L9.27934 10.1333C9.13418 10.1841 8.99029 10.239 8.84787 10.298C7.84836 10.7121 6.94019 11.319 6.17524 12.084C5.94093 12.3183 5.94094 12.6982 6.17526 12.9325C6.40958 13.1668 6.78948 13.1668 7.02379 12.9325C7.67732 12.2789 8.4532 11.7604 9.30711 11.4067C9.61126 11.2807 9.92318 11.1765 10.2405 11.0945L12.0809 12.9349C12.0597 12.9347 12.0384 12.9346 12.0172 12.9346C11.366 12.9346 10.7181 13.06 10.113 13.3109C9.50754 13.5619 8.93487 13.9532 8.48985 14.3879C8.25084 14.6214 8.24636 15.0044 8.47984 15.2434C8.71333 15.4825 9.09637 15.4869 9.33538 15.2534C9.67742 14.9193 10.1222 14.6169 10.5764 14.4286C11.031 14.2402 11.5211 14.1446 12.0172 14.1446C12.5235 14.1446 12.9784 14.2235 13.4242 14.4083C13.5064 14.4424 13.5869 14.4796 13.6657 14.5198L16.6772 17.5313C16.9115 17.7657 17.2914 17.7657 17.5257 17.5314C17.76 17.297 17.7601 16.9171 17.5257 16.6828L6.5521 5.70894Z" fill="#333333"/>
<path d="M12.1691 9.67262L13.5372 11.0407C13.9317 11.129 14.3187 11.2512 14.694 11.4067C15.5479 11.7604 16.3238 12.2789 16.9773 12.9325C17.2116 13.1668 17.5915 13.1668 17.8258 12.9325C18.0601 12.6982 18.0601 12.3183 17.8258 12.084C17.0609 11.319 16.1527 10.7121 15.1532 10.298C14.2056 9.90552 13.1936 9.69359 12.1691 9.67262Z" fill="#333333"/>
<path d="M9.23412 6.73764L10.247 7.7505C10.8223 7.65123 11.4086 7.60039 12.0002 7.60039C14.7344 7.60039 17.3566 8.68631 19.2902 10.6194C19.5245 10.8536 19.9044 10.8536 20.1387 10.6192C20.373 10.3849 20.3729 10.005 20.1386 9.7707C17.9799 7.61269 15.0526 6.40039 12.0002 6.40039C11.0601 6.40039 10.1318 6.5154 9.23412 6.73764Z" fill="#333333"/>
<path d="M12.031 16.2822C11.3491 16.2822 10.7964 16.835 10.7964 17.5168C10.7964 18.1987 11.3491 18.7514 12.031 18.7514C12.7128 18.7514 13.2656 18.1987 13.2656 17.5168C13.2656 16.835 12.7128 16.2822 12.031 16.2822Z" fill="#333333"/>
</svg>
