<svg width="24" height="24" viewBox="0 0 24 24" fill="none" xmlns="http://www.w3.org/2000/svg">
<path fill-rule="evenodd" clip-rule="evenodd" d="M12.0002 3.69629C11.3068 3.69629 10.7448 4.25838 10.7448 4.95175V4.95827C7.94731 5.53641 6.55411 8.13477 6.55411 9.99935C6.55411 10.9266 6.55873 11.7205 6.56335 12.3882L6.56598 12.7606C6.56956 13.2604 6.57255 13.6772 6.57255 14.0177C6.57255 14.0176 6.57256 14.0176 6.57255 14.0177C6.57224 14.02 6.5701 14.0357 6.55946 14.0653L3.84663 16.7781C3.61232 17.0124 3.61232 17.3923 3.84663 17.6266C4.08095 17.861 4.46085 17.861 4.69516 17.6266L17.4245 4.89731C17.6588 4.663 17.6588 4.2831 17.4245 4.04878C17.1902 3.81447 16.8103 3.81447 16.576 4.04878L14.9446 5.68015C14.4557 5.36158 13.8927 5.11497 13.2557 4.97375V4.95175C13.2557 4.25838 12.6936 3.69629 12.0002 3.69629ZM14.0692 6.55555C13.6963 6.34574 13.2744 6.18908 12.8038 6.10737L12.7879 6.10438L12.7858 6.10397L12.7741 6.10173C12.7631 6.09965 12.7459 6.09649 12.7234 6.09259C12.6783 6.08478 12.6123 6.07412 12.5324 6.06341C12.3703 6.04167 12.1621 6.02127 11.959 6.02129C11.7566 6.02131 11.5489 6.04208 11.387 6.06421C11.3073 6.07511 11.2414 6.08596 11.1964 6.0939C11.1739 6.09787 11.1568 6.10109 11.1458 6.10319L11.1342 6.10546L11.1327 6.10577L11.1148 6.10917C8.8899 6.49879 7.75411 8.56562 7.75411 9.99935C7.75411 10.9226 7.75871 11.7133 7.76332 12.3799L7.76594 12.7497C7.7662 12.7862 7.76646 12.8223 7.76671 12.858L14.0692 6.55555Z" fill="#333333"/>
<path d="M10.5031 18.5669C10.3225 18.2891 9.95081 18.2104 9.67301 18.391C9.39521 18.5717 9.31645 18.9433 9.4971 19.2211C9.75733 19.6213 10.1315 19.9427 10.57 20.162C11.0084 20.3812 11.502 20.494 12.0001 20.494C12.4982 20.494 12.9918 20.3812 13.4302 20.162C13.8687 19.9427 14.2429 19.6213 14.5031 19.2211C14.6838 18.9433 14.605 18.5717 14.3272 18.391C14.0494 18.2104 13.6777 18.2891 13.4971 18.5669C13.3635 18.7724 13.1586 18.9561 12.8935 19.0886C12.6283 19.2213 12.3194 19.294 12.0001 19.294C11.6808 19.294 11.3719 19.2213 11.1067 19.0886C10.8416 18.9561 10.6367 18.7724 10.5031 18.5669Z" fill="#333333"/>
<path d="M15.71 8.26993L16.5888 7.39115C17.1109 8.24926 17.3715 9.19288 17.3715 9.99935C17.3715 10.9265 17.3671 11.7203 17.3627 12.388L17.3603 12.7598C17.3569 13.2598 17.354 13.677 17.354 14.0177C17.3539 14.0167 17.354 14.0169 17.354 14.0177C17.3553 14.0252 17.3654 14.0818 17.4383 14.1951C17.5161 14.3159 17.636 14.4555 17.7899 14.6053C18.097 14.9044 18.4771 15.1843 18.7434 15.3666C19.0882 15.6026 19.3181 15.9984 19.3181 16.4423C19.3181 17.1431 18.7499 17.7112 18.0491 17.7112H6.26875L7.46875 16.5112H18.0491C18.0872 16.5112 18.1181 16.4803 18.1181 16.4423C18.1181 16.4201 18.1054 16.3841 18.0657 16.3569C17.7774 16.1596 17.3322 15.8346 16.9527 15.4651C16.7633 15.2806 16.5746 15.0701 16.4295 14.8449C16.2896 14.6277 16.154 14.3412 16.154 14.0177C16.154 13.6726 16.1569 13.2505 16.1603 12.7502L16.1628 12.3801C16.1671 11.7135 16.1715 10.9227 16.1715 9.99935C16.1715 9.47034 16.0169 8.85522 15.71 8.26993Z" fill="#333333"/>
</svg>
