<svg width="24" height="24" viewBox="0 0 24 24" fill="none" xmlns="http://www.w3.org/2000/svg">
<path fill-rule="evenodd" clip-rule="evenodd" d="M17.8099 14.6204C18.1099 14.9204 18.4899 15.2004 18.7599 15.3804H18.7499C19.0899 15.6204 19.3199 16.0204 19.3199 16.4604C19.3199 17.1604 18.7499 17.7304 18.0499 17.7304H5.87986C5.17986 17.7304 4.60986 17.1604 4.60986 16.4604C4.60986 16.0104 4.83986 15.6204 5.18986 15.3804C5.44986 15.2004 5.82986 14.9204 6.13986 14.6204C6.28986 14.4704 6.40986 14.3304 6.48986 14.2104C6.55986 14.0904 6.56986 14.0304 6.56986 14.0304V10.0104C6.56986 8.16039 7.94986 5.60039 10.6899 4.99039V4.96039C10.6899 4.23039 11.2699 3.65039 11.9999 3.65039C12.7299 3.65039 13.3099 4.24039 13.3099 4.96039V5.02039C16.0199 5.65039 17.3799 8.18039 17.3799 10.0104V14.0304C17.3799 14.0404 17.3899 14.1004 17.4599 14.2104C17.5399 14.3304 17.6599 14.4704 17.8099 14.6204ZM5.88986 16.5204H18.0799C18.1199 16.5204 18.1499 16.4904 18.1499 16.4504C18.1499 16.4204 18.1399 16.3904 18.0999 16.3604C17.8099 16.1604 17.3699 15.8404 16.9899 15.4704C16.7999 15.2904 16.6199 15.0804 16.4699 14.8504C16.3299 14.6304 16.1899 14.3404 16.1899 14.0204V10.0004C16.1899 8.56039 15.0499 6.49039 12.8199 6.10039H12.7399C12.6999 6.09039 12.6299 6.08039 12.5499 6.07039C12.3899 6.05039 12.1799 6.03039 11.9799 6.03039C11.7799 6.03039 11.5699 6.05039 11.4099 6.07039C11.3733 6.07495 11.3389 6.0816 11.3085 6.08748C11.2722 6.09448 11.2416 6.10039 11.2199 6.10039C11.1999 6.11039 11.1699 6.11039 11.1699 6.11039H11.1399C8.91986 6.50039 7.77986 8.57039 7.77986 10.0004V14.0204C7.77986 14.3504 7.63986 14.6304 7.49986 14.8504C7.35986 15.0704 7.16986 15.2904 6.97986 15.4704C6.59986 15.8404 6.15986 16.1604 5.86986 16.3604C5.82986 16.3904 5.81986 16.4304 5.81986 16.4504C5.81986 16.4904 5.88986 16.5204 5.88986 16.5204Z" fill="#333333"/>
<path d="M13.5095 18.5798C13.6895 18.2998 14.0595 18.2198 14.3395 18.3998C14.6195 18.5798 14.6995 18.9498 14.5195 19.2298C14.2595 19.6298 13.8895 19.9498 13.4495 20.1698C13.0095 20.3898 12.5195 20.4998 12.0195 20.4998C11.5195 20.4998 11.0295 20.3898 10.5895 20.1698C10.1495 19.9498 9.77945 19.6298 9.51945 19.2298C9.33945 18.9498 9.41945 18.5798 9.69945 18.3998C9.97945 18.2198 10.3495 18.2998 10.5295 18.5798C10.6595 18.7798 10.8595 18.9698 11.1295 19.0998C11.3895 19.2398 11.6995 19.3098 12.0195 19.3098C12.3395 19.3098 12.6395 19.2298 12.9095 19.0998C13.1695 18.9698 13.3795 18.7898 13.5095 18.5798Z" fill="#333333"/>
</svg>
