<svg width="24" height="24" viewBox="0 0 24 24" fill="none" xmlns="http://www.w3.org/2000/svg">
<path d="M12.5691 17.1355C12.5691 16.8055 12.2991 16.5355 11.9691 16.5355H5.87912C5.87912 16.5355 5.80912 16.5055 5.80912 16.4655C5.80912 16.4455 5.81912 16.4055 5.85912 16.3755C6.14912 16.1755 6.58912 15.8555 6.96912 15.4855C7.15912 15.3055 7.34912 15.0855 7.48912 14.8655C7.62912 14.6455 7.76912 14.3655 7.76912 14.0355C7.76912 13.6055 7.76912 13.0655 7.76912 12.3955C7.76912 11.7255 7.76912 10.9355 7.76912 10.0155C7.76912 8.58551 8.90912 6.51551 11.1291 6.12551C11.4331 6.08203 11.7315 6.02344 12.0308 6.02344C12.2915 6.02344 12.5464 6.07422 12.8091 6.12551C13.6291 6.26551 14.2991 6.63551 14.8191 7.10551C15.0591 7.32551 15.4391 7.31551 15.6691 7.06551C15.8891 6.82551 15.8791 6.44551 15.6291 6.21551C15.0191 5.65551 14.2391 5.22551 13.3191 5.00551V4.95551C13.3191 4.23551 12.7291 3.64551 12.0091 3.64551C11.2891 3.64551 10.6991 4.23551 10.6991 4.95551V4.99551C7.93912 5.61551 6.55912 8.17551 6.55912 10.0255C6.55912 10.9555 6.55912 11.7455 6.55912 12.4155C6.55912 13.0855 6.55912 13.6255 6.55912 14.0455C6.55912 14.0455 6.55912 14.0955 6.47912 14.2255C6.39912 14.3455 6.27912 14.4855 6.12912 14.6355C5.81912 14.9355 5.43912 15.2155 5.17912 15.3955C4.82912 15.6355 4.59912 16.0255 4.59912 16.4755C4.59912 17.1755 5.16912 17.7455 5.86912 17.7455H11.9591C12.2891 17.7455 12.5591 17.4755 12.5591 17.1455L12.5691 17.1355Z" fill="#333333"/>
<path d="M14.3289 18.4154C14.0489 18.2354 13.6789 18.3154 13.4989 18.5954C13.3589 18.8054 13.1489 18.9854 12.8989 19.1154C12.3589 19.3854 11.6489 19.3854 11.1089 19.1154C10.8489 18.9854 10.6489 18.8054 10.5089 18.5954C10.3289 18.3154 9.95894 18.2354 9.67894 18.4154C9.39894 18.5954 9.31894 18.9654 9.49894 19.2454C9.74894 19.6354 10.1289 19.9655 10.5689 20.1854C10.9989 20.4054 11.4989 20.5154 11.9989 20.5154C12.4989 20.5154 12.9989 20.4054 13.4289 20.1854C13.8789 19.9655 14.2489 19.6354 14.4989 19.2454C14.6789 18.9654 14.5989 18.5954 14.3189 18.4154H14.3289Z" fill="#333333"/>
<path d="M21.1134 13.3616C21.0134 13.2316 21.0134 13.0416 21.1234 12.9116L21.2434 12.7816C21.5734 12.4116 21.7434 11.8516 21.5334 11.3216C21.3934 10.9616 21.2134 10.6116 20.9834 10.2916C20.6534 9.82156 20.0934 9.65156 19.6034 9.72156L19.4234 9.74156C19.2534 9.76156 19.0934 9.66156 19.0434 9.51156L18.9934 9.36156C18.8334 8.88156 18.4234 8.44156 17.8234 8.37156C17.4434 8.33156 17.0434 8.33156 16.6634 8.37156C16.1034 8.43156 15.6834 8.82156 15.4934 9.29156L15.4534 9.40156C15.3934 9.56156 15.2234 9.64156 15.0634 9.61156L14.8934 9.57156C14.4034 9.47156 13.8334 9.60156 13.4734 10.0616C13.2234 10.3716 13.0234 10.7016 12.8634 11.0516C12.6234 11.5716 12.7534 12.1416 13.0634 12.5316L13.1734 12.6716C13.2734 12.8016 13.2734 12.9916 13.1634 13.1216L13.0434 13.2516C12.7134 13.6216 12.5434 14.1816 12.7534 14.7116C12.8934 15.0716 13.0734 15.4216 13.3034 15.7416C13.6334 16.2116 14.1934 16.3816 14.6834 16.3116L14.8634 16.2916C15.0334 16.2716 15.1934 16.3716 15.2434 16.5216L15.3034 16.7116C15.4534 17.1816 15.8534 17.6016 16.4134 17.6916C16.8034 17.7516 17.1934 17.7716 17.5734 17.7316C18.1534 17.6816 18.5734 17.2816 18.7634 16.8216L18.8334 16.6416C18.8934 16.4816 19.0634 16.4016 19.2234 16.4316L19.3934 16.4716C19.8834 16.5716 20.4534 16.4416 20.8134 15.9816C21.0634 15.6716 21.2634 15.3416 21.4234 14.9916C21.6634 14.4716 21.5334 13.9016 21.2234 13.5116L21.1134 13.3716V13.3616ZM19.8734 15.2216C19.8734 15.2216 19.7534 15.3116 19.6234 15.2816L19.4534 15.2416C18.7234 15.0916 17.9834 15.4816 17.7034 16.1716L17.6334 16.3516C17.5834 16.4716 17.5034 16.5116 17.4534 16.5216C17.1634 16.5516 16.8734 16.5416 16.5934 16.4916C16.5434 16.4916 16.4634 16.4416 16.4234 16.3116L16.3634 16.1216C16.1234 15.4116 15.4234 14.9716 14.6834 15.0816L14.5034 15.1016C14.3734 15.1216 14.2934 15.0716 14.2634 15.0316C14.0934 14.7916 13.9534 14.5316 13.8534 14.2616C13.8334 14.2116 13.8334 14.1216 13.9234 14.0216L14.0434 13.8916C14.5434 13.3316 14.5634 12.5016 14.1034 11.9116L13.9934 11.7716C13.9134 11.6716 13.9134 11.5716 13.9434 11.5316C14.0634 11.2716 14.2134 11.0316 14.4034 10.7916C14.4334 10.7516 14.5234 10.7016 14.6534 10.7316L14.8234 10.7716C15.5534 10.9216 16.2934 10.5316 16.5734 9.84156L16.6134 9.73156C16.6634 9.61156 16.7434 9.56156 16.8034 9.56156C17.1034 9.53156 17.4134 9.53156 17.6934 9.56156C17.7334 9.56156 17.8234 9.61156 17.8634 9.74156L17.9134 9.89156C18.1534 10.6016 18.8534 11.0416 19.5934 10.9316L19.7734 10.9116C19.9034 10.8916 19.9834 10.9416 20.0134 10.9816C20.1834 11.2216 20.3234 11.4816 20.4234 11.7516C20.4434 11.8016 20.4434 11.8916 20.3534 11.9916L20.2334 12.1216C19.7334 12.6816 19.7134 13.5116 20.1734 14.1016L20.2834 14.2416C20.3634 14.3416 20.3634 14.4416 20.3334 14.4816C20.2134 14.7416 20.0634 14.9816 19.8734 15.2216Z" fill="#333333"/>
<path d="M16.7634 11.2192C16.0934 11.3592 15.4834 11.9692 15.3434 12.6392C15.2134 13.2592 15.3934 13.8992 15.8434 14.3492C16.2034 14.7092 16.6734 14.8992 17.1734 14.8992C17.3034 14.8992 17.4434 14.8892 17.5734 14.8592C18.2834 14.7092 18.8434 14.1492 18.9934 13.4392C19.1234 12.8192 18.9434 12.1792 18.4934 11.7292C18.0434 11.2792 17.4034 11.0892 16.7634 11.2192ZM17.3234 13.6792C17.0934 13.7292 16.8534 13.6592 16.6934 13.4992C16.5334 13.3392 16.4734 13.1192 16.5134 12.8892C16.5534 12.6892 16.8134 12.4392 17.0134 12.3992C17.0634 12.3892 17.1134 12.3792 17.1634 12.3792C17.3434 12.3792 17.5134 12.4492 17.6434 12.5792C17.8034 12.7392 17.8634 12.9592 17.8234 13.1892C17.7734 13.4392 17.5734 13.6292 17.3234 13.6792Z" fill="#333333"/>
</svg>
