<svg width="24" height="24" viewBox="0 0 24 24" fill="none" xmlns="http://www.w3.org/2000/svg">
<path fill-rule="evenodd" clip-rule="evenodd" d="M9.98819 7.19766C9.98819 6.86629 10.2568 6.59766 10.5882 6.59766H18.5882C18.9196 6.59766 19.1882 6.86629 19.1882 7.19766C19.1882 7.52903 18.9196 7.79766 18.5882 7.79766H10.5882C10.2568 7.79766 9.98819 7.52903 9.98819 7.19766Z" fill="#333333"/>
<path fill-rule="evenodd" clip-rule="evenodd" d="M9.98819 16.8002C9.98819 16.4688 10.2568 16.2002 10.5882 16.2002L18.5882 16.2002C18.9196 16.2002 19.1882 16.4688 19.1882 16.8002C19.1882 17.1316 18.9196 17.4002 18.5882 17.4002L10.5882 17.4002C10.2568 17.4002 9.98819 17.1316 9.98819 16.8002Z" fill="#333333"/>
<path fill-rule="evenodd" clip-rule="evenodd" d="M9.98819 11.9994C9.98819 11.668 10.2568 11.3994 10.5882 11.3994L18.5882 11.3994C18.9196 11.3994 19.1882 11.668 19.1882 11.9994C19.1882 12.3308 18.9196 12.5994 18.5882 12.5994L10.5882 12.5994C10.2568 12.5994 9.98819 12.3308 9.98819 11.9994Z" fill="#333333"/>
<path fill-rule="evenodd" clip-rule="evenodd" d="M6.78308 5.97041C6.97818 6.07482 7.09997 6.27814 7.09997 6.49942V10.4994C7.09997 10.8308 6.83134 11.0994 6.49997 11.0994C6.1686 11.0994 5.89997 10.8308 5.89997 10.4994V7.62053L5.33279 7.99865C5.05707 8.18246 4.68455 8.10795 4.50074 7.83224C4.31692 7.55652 4.39143 7.184 4.66715 7.00018L6.16715 6.00018C6.35126 5.87744 6.58799 5.866 6.78308 5.97041Z" fill="#333333"/>
<path fill-rule="evenodd" clip-rule="evenodd" d="M5.03732 13.5899C6.13415 12.2617 8.04579 13.0163 8.04579 14.4882C8.04579 15.0245 7.86833 15.4255 7.57842 15.7331C7.36118 15.9637 7.08003 16.1338 6.87769 16.2562C6.84589 16.2754 6.81603 16.2935 6.78868 16.3104C6.55518 16.4549 6.40204 16.569 6.29398 16.7219C6.26013 16.7698 6.22666 16.8275 6.19729 16.8994H7.49997C7.83134 16.8994 8.09997 17.168 8.09997 17.4994C8.09997 17.8308 7.83134 18.0994 7.49997 18.0994H5.49997C5.1686 18.0994 4.89997 17.8308 4.89997 17.4994C4.89997 16.8822 5.04777 16.406 5.31403 16.0293C5.5708 15.666 5.90412 15.4466 6.15708 15.2901C6.19885 15.2642 6.2377 15.2404 6.27396 15.2181C6.48518 15.0885 6.60826 15.0129 6.7051 14.9102C6.78003 14.8306 6.84579 14.7262 6.84579 14.4882C6.84579 14.3367 6.74207 14.1855 6.56281 14.1239C6.4145 14.0729 6.18794 14.0812 5.96261 14.354C5.75161 14.6095 5.37343 14.6456 5.11792 14.4346C4.86241 14.2236 4.82632 13.8454 5.03732 13.5899Z" fill="#333333"/>
</svg>
