<svg width="24" height="24" viewBox="0 0 24 24" fill="none" xmlns="http://www.w3.org/2000/svg">
<path fill-rule="evenodd" clip-rule="evenodd" d="M12.076 7.29439C9.25128 7.2162 6.83925 8.93965 5.01705 11.385C4.97746 11.4382 4.94127 11.4856 4.90785 11.5294C4.82118 11.6431 4.75317 11.7322 4.69285 11.8327C4.61688 11.9593 4.5999 12.0334 4.5999 12.0808C4.5999 12.129 4.61708 12.2037 4.69263 12.3313C4.7513 12.4304 4.816 12.5171 4.89805 12.6269C4.93316 12.6739 4.97146 12.7252 5.01382 12.7835C6.82144 15.2726 9.24287 16.9464 12.0759 16.8679C12.087 16.8676 12.0981 16.8676 12.1092 16.8679C14.9352 16.9462 17.2292 15.2622 19.1644 12.7582C19.199 12.7134 19.2311 12.6726 19.2611 12.6344C19.3548 12.5152 19.4276 12.4226 19.4902 12.3202C19.5659 12.1961 19.5823 12.1238 19.5823 12.0783C19.5823 12.0363 19.5671 11.967 19.4914 11.8456C19.4278 11.7437 19.3529 11.651 19.2559 11.5308C19.2272 11.4954 19.1966 11.4575 19.1638 11.4163C17.1993 8.94876 14.9291 7.21633 12.1092 7.29439C12.0981 7.2947 12.087 7.2947 12.076 7.29439ZM12.0926 6.09441C8.72282 6.00814 5.98981 8.07126 4.05482 10.668C4.03427 10.6956 4.01041 10.7268 3.98437 10.7609C3.88811 10.8868 3.76208 11.0517 3.66391 11.2152C3.53155 11.4358 3.3999 11.7286 3.3999 12.0808C3.3999 12.4311 3.52987 12.7228 3.66001 12.9426C3.75433 13.102 3.87633 13.2651 3.96969 13.39C3.997 13.4265 4.02185 13.4598 4.04285 13.4887C5.97794 16.1532 8.72465 18.1544 12.0926 18.0679C15.473 18.1547 18.0847 16.1176 20.1139 13.492C20.1332 13.467 20.1551 13.4392 20.1788 13.4092C20.279 13.2822 20.4107 13.1152 20.5142 12.9457C20.649 12.725 20.7823 12.4317 20.7823 12.0783C20.7823 11.7233 20.6465 11.43 20.5095 11.2104C20.4029 11.0395 20.2676 10.8728 20.1653 10.7467C20.1426 10.7186 20.1214 10.6925 20.1026 10.6689C18.0637 8.10781 15.4772 6.0078 12.0926 6.09441Z" fill="#333333"/>
<path fill-rule="evenodd" clip-rule="evenodd" d="M12.091 13.7843C13.0315 13.7843 13.794 13.0218 13.794 12.0813C13.794 11.1407 13.0315 10.3782 12.091 10.3782C11.1504 10.3782 10.3879 11.1407 10.3879 12.0813C10.3879 13.0218 11.1504 13.7843 12.091 13.7843ZM14.994 12.0813C14.994 13.6846 13.6943 14.9843 12.091 14.9843C10.4876 14.9843 9.18789 13.6846 9.18789 12.0813C9.18789 10.4779 10.4876 9.17819 12.091 9.17819C13.6943 9.17819 14.994 10.4779 14.994 12.0813Z" fill="#333333"/>
</svg>
