<svg width="24" height="24" viewBox="0 0 24 24" fill="none" xmlns="http://www.w3.org/2000/svg">
<path d="M10.0241 8.02448C10.2585 7.79028 10.2587 7.41038 10.0245 7.17595C9.79033 6.94152 9.41043 6.94133 9.176 7.17552L7.676 8.67402C7.56342 8.78649 7.50013 8.93907 7.50005 9.0982C7.49997 9.25733 7.56311 9.40997 7.67557 9.52255L9.17557 11.0241C9.40977 11.2585 9.78967 11.2587 10.0241 11.0245C10.2585 10.7903 10.2587 10.4104 10.0245 10.1759L9.54906 9.7L14.6 9.7C14.9314 9.7 15.2 9.43137 15.2 9.1C15.2 8.76863 14.9314 8.5 14.6 8.5L9.5481 8.5L10.0241 8.02448Z" fill="#333333"/>
<path d="M13.1756 13.0241L13.651 13.5H8.60005C8.26868 13.5 8.00005 13.7686 8.00005 14.1C8.00005 14.4314 8.26868 14.7 8.60005 14.7L13.652 14.7L13.176 15.1755C12.9416 15.4097 12.9414 15.7896 13.1756 16.0241C13.4098 16.2585 13.7897 16.2587 14.0241 16.0245L15.5241 14.526C15.6367 14.4135 15.7 14.2609 15.7 14.1018C15.7001 13.9427 15.637 13.79 15.5245 13.6775L14.0245 12.1759C13.7903 11.9415 13.4104 11.9413 13.176 12.1755C12.9416 12.4097 12.9414 12.7896 13.1756 13.0241Z" fill="#333333"/>
<path fill-rule="evenodd" clip-rule="evenodd" d="M11.6 3C16.3479 3 20.2 6.85315 20.2 11.6107C20.2 13.0735 19.8297 14.4591 19.1775 15.6666C19.1767 15.6796 19.1761 15.7008 19.1774 15.7319C19.1814 15.8269 19.2006 15.9605 19.2382 16.1339C19.3133 16.4805 19.4425 16.9027 19.5817 17.3453L19.6265 17.4874C19.7477 17.8717 19.8724 18.2669 19.9517 18.5912C19.9958 18.7719 20.0338 18.9611 20.0442 19.1309C20.0493 19.2157 20.0494 19.3199 20.0289 19.4277C20.0094 19.5303 19.9604 19.6934 19.8216 19.8323C19.5884 20.0655 19.2823 20.0836 19.1224 20.0808C18.9355 20.0774 18.7357 20.0389 18.5514 19.9931C18.205 19.907 17.7905 19.7621 17.3998 19.6256C16.986 19.4811 16.5716 19.3291 16.1444 19.2285C15.9764 19.189 15.8479 19.1698 15.7563 19.1666C15.7181 19.1653 15.6949 19.1671 15.6834 19.1684C14.4716 19.8265 13.0799 20.2 11.6 20.2C6.85263 20.2 3 16.3474 3 11.6C3 6.85263 6.85263 3 11.6 3ZM19 11.6107C19 7.51485 15.6841 4.2 11.6 4.2C7.51537 4.2 4.2 7.51537 4.2 11.6C4.2 15.6846 7.51537 19 11.6 19C12.8837 19 14.0859 18.6745 15.1299 18.1034C15.3578 17.978 15.6076 17.9607 15.7983 17.9673C16.0004 17.9744 16.2141 18.0122 16.4193 18.0605C17.222 18.2494 17.9743 18.5974 18.7694 18.8101C18.5601 17.9954 18.2439 17.2114 18.0654 16.3881C18.0212 16.1838 17.9865 15.975 17.9784 15.7825C17.9711 15.6091 17.9797 15.3579 18.1019 15.1326L18.103 15.1307C18.6745 14.0861 19 12.8836 19 11.6107Z" fill="#333333"/>
</svg>
