<svg width="24" height="24" viewBox="0 0 24 24" fill="none" xmlns="http://www.w3.org/2000/svg">
<path d="M13.3999 10.5893C13.3999 10.2593 13.6699 9.98926 13.9999 9.98926C14.3299 9.98926 14.5999 10.2593 14.5999 10.5893C14.5999 11.2893 14.3299 11.9593 13.8399 12.4493C13.3599 12.9393 12.6899 13.2193 11.9999 13.2193C11.3099 13.2193 10.6499 12.9393 10.1599 12.4493C9.6699 11.9493 9.3999 11.2893 9.3999 10.5893C9.3999 10.2593 9.6699 9.98926 9.9999 9.98926C10.3299 9.98926 10.5999 10.2593 10.5999 10.5893C10.5999 10.9793 10.7499 11.3393 11.0099 11.6093C11.2799 11.8793 11.6299 12.0293 11.9999 12.0293C12.3699 12.0293 12.7299 11.8793 12.9899 11.6093C13.2499 11.3393 13.3999 10.9693 13.3999 10.5893Z" fill="#333333"/>
<path fill-rule="evenodd" clip-rule="evenodd" d="M16.7399 5.12961L18.1899 6.74961H18.1999C18.4599 7.04961 18.6099 7.42961 18.6099 7.81961V16.6896C18.6099 17.1996 18.3999 17.6896 18.0399 18.0496C17.6699 18.4096 17.1799 18.6096 16.6699 18.6096H7.3399C6.8199 18.6096 6.3299 18.4096 5.9699 18.0496C5.6099 17.6896 5.3999 17.1996 5.3999 16.6896V7.81961C5.3999 7.41961 5.5499 7.03961 5.8099 6.74961L7.2599 5.12961C7.5599 4.78961 7.9899 4.59961 8.4499 4.59961H15.5499C15.9999 4.59961 16.4399 4.78961 16.7399 5.12961ZM8.4499 5.79961C8.3299 5.79961 8.2299 5.84961 8.1499 5.92961L7.2499 6.92961H16.7599L15.8599 5.92961C15.7799 5.84961 15.6699 5.79961 15.5599 5.79961H8.4499ZM16.6699 17.3996C16.8699 17.3996 17.0499 17.3296 17.1899 17.1896V17.1996C17.3199 17.0596 17.3999 16.8796 17.3999 16.6896V8.13961H6.5999V16.6796C6.5999 16.8696 6.6699 17.0496 6.8099 17.1896C6.9499 17.3196 7.1299 17.3996 7.3299 17.3996H16.6699Z" fill="#333333"/>
</svg>
