<svg width="24" height="24" viewBox="0 0 24 24" fill="none" xmlns="http://www.w3.org/2000/svg">
<path fill-rule="evenodd" clip-rule="evenodd" d="M6.95205 12.3683C6.95205 11.8156 7.40009 11.3676 7.95278 11.3676C8.50547 11.3676 8.95352 11.8156 8.95352 12.3683C8.95352 12.921 8.50547 13.369 7.95278 13.369C7.40009 13.369 6.95205 12.921 6.95205 12.3683Z" fill="#333333"/>
<path fill-rule="evenodd" clip-rule="evenodd" d="M8.42568 8.68984C8.42568 8.1381 8.87296 7.69082 9.42471 7.69082C9.97645 7.69082 10.4237 8.1381 10.4237 8.68984C10.4237 9.24159 9.97645 9.68887 9.42471 9.68887C8.87296 9.68887 8.42568 9.24159 8.42568 8.68984Z" fill="#333333"/>
<path fill-rule="evenodd" clip-rule="evenodd" d="M12.3676 7.99844C12.3676 7.44507 12.8162 6.99648 13.3695 6.99648C13.9229 6.99648 14.3715 7.44507 14.3715 7.99844C14.3715 8.5518 13.9229 9.00039 13.3695 9.00039C12.8162 9.00039 12.3676 8.5518 12.3676 7.99844Z" fill="#333333"/>
<path fill-rule="evenodd" clip-rule="evenodd" d="M15.0448 10.897C15.0448 10.3436 15.4935 9.89492 16.0469 9.89492C16.6003 9.89492 17.049 10.3436 17.049 10.897C17.049 11.4504 16.6003 11.8991 16.0469 11.8991C15.4935 11.8991 15.0448 11.4504 15.0448 10.897Z" fill="#333333"/>
<path fill-rule="evenodd" clip-rule="evenodd" d="M4.00537 12.0006C4.00537 7.60188 7.60317 4.00586 12.003 4.00586C16.3063 4.00586 19.9726 7.1763 19.9948 11.1394L19.9948 11.1428C19.9948 13.7306 17.8734 15.8498 15.2854 15.8498H13.7985C13.7161 15.8484 13.6344 15.8635 13.5581 15.8943C13.4817 15.9251 13.4124 15.971 13.3542 16.0292C13.296 16.0873 13.2502 16.1566 13.2193 16.2328C13.1885 16.3091 13.1734 16.3907 13.1748 16.4729L13.175 16.4832C13.175 16.6897 13.2318 16.7999 13.3223 16.8901C13.3311 16.8988 13.3396 16.9078 13.3479 16.9171C13.6222 17.2266 13.8222 17.6586 13.8222 18.147C13.8222 19.16 13.0342 19.9953 12.003 19.9953C7.60317 19.9953 4.00537 16.3992 4.00537 12.0006ZM12.003 5.20586C8.26546 5.20586 5.20537 8.26507 5.20537 12.0006C5.20537 15.736 8.26546 18.7953 12.003 18.7953C12.3419 18.7953 12.6222 18.5272 12.6222 18.147C12.6222 17.9938 12.5596 17.8417 12.4591 17.7237C12.1328 17.3902 11.976 16.9712 11.9749 16.4883C11.9714 16.2468 12.0163 16.007 12.1068 15.783C12.198 15.5574 12.3338 15.3525 12.5059 15.1805C12.678 15.0084 12.8829 14.8728 13.1085 14.7817C13.3324 14.6912 13.5721 14.6464 13.8135 14.6498H15.2854C17.2109 14.6498 18.7939 13.0681 18.7948 11.1444C18.7759 7.96793 15.7788 5.20586 12.003 5.20586Z" fill="#333333"/>
</svg>
