<svg width="24" height="24" viewBox="0 0 24 24" fill="none" xmlns="http://www.w3.org/2000/svg">
<path fill-rule="evenodd" clip-rule="evenodd" d="M10.5885 3.91178C11.368 3.13227 12.6318 3.13227 13.4113 3.91178L14.9313 5.43174C15.7108 6.21125 15.7108 7.47509 14.9313 8.25461L13.4113 9.77456C12.6318 10.5541 11.368 10.5541 10.5885 9.77456L9.06852 8.25461C8.28901 7.47509 8.28901 6.21125 9.06852 5.43174L10.5885 3.91178ZM12.5628 4.76031L14.0828 6.28026C14.3937 6.59115 14.3937 7.0952 14.0828 7.40608L12.5628 8.92603C12.2519 9.23692 11.7479 9.23692 11.437 8.92603L9.91705 7.40608C9.60616 7.09519 9.60617 6.59115 9.91705 6.28026L11.437 4.76031C11.7479 4.44943 12.2519 4.44943 12.5628 4.76031Z" fill="#909090"/>
<path d="M7.87279 12.0005C7.87279 12.5691 7.41188 13.03 6.84333 13.03C6.27478 13.03 5.81388 12.5691 5.81388 12.0005C5.81388 11.432 6.27478 10.9711 6.84333 10.9711C7.41188 10.9711 7.87279 11.432 7.87279 12.0005Z" fill="#909090"/>
<path fill-rule="evenodd" clip-rule="evenodd" d="M8.25461 9.06901C7.47509 8.2895 6.21125 8.2895 5.43174 9.06901L3.91178 10.589C3.13227 11.3685 3.13227 12.6323 3.91178 13.4118L5.43174 14.9318C6.21125 15.7113 7.47509 15.7113 8.25461 14.9318L9.77456 13.4118C10.5541 12.6323 10.5541 11.3685 9.77456 10.589L8.25461 9.06901ZM8.92603 11.4375L7.40608 9.91754C7.09519 9.60665 6.59115 9.60665 6.28026 9.91754L4.76031 11.4375C4.44943 11.7484 4.44943 12.2524 4.76031 12.5633L6.28026 14.0833C6.59115 14.3941 7.09519 14.3941 7.40608 14.0833L8.92603 12.5633C9.23692 12.2524 9.23692 11.7484 8.92603 11.4375Z" fill="#909090"/>
<path d="M18.1863 12.0005C18.1863 12.5691 17.7254 13.03 17.1568 13.03C16.5883 13.03 16.1274 12.5691 16.1274 12.0005C16.1274 11.432 16.5883 10.9711 17.1568 10.9711C17.7254 10.9711 18.1863 11.432 18.1863 12.0005Z" fill="#909090"/>
<path fill-rule="evenodd" clip-rule="evenodd" d="M18.5686 9.06901C17.7891 8.2895 16.5252 8.2895 15.7457 9.06901L14.2257 10.589C13.4462 11.3685 13.4462 12.6323 14.2257 13.4118L15.7457 14.9318C16.5252 15.7113 17.7891 15.7113 18.5686 14.9318L20.0885 13.4118C20.868 12.6323 20.868 11.3685 20.0885 10.589L18.5686 9.06901ZM19.24 11.4375L17.72 9.91754C17.4092 9.60665 16.9051 9.60665 16.5942 9.91754L15.0743 11.4375C14.7634 11.7484 14.7634 12.2524 15.0743 12.5633L16.5942 14.0833C16.9051 14.3941 17.4092 14.3941 17.72 14.0833L19.24 12.5633C19.5509 12.2524 19.5509 11.7484 19.24 11.4375Z" fill="#909090"/>
<path d="M12.0006 18.1872C12.5691 18.1872 13.03 17.7263 13.03 17.1577C13.03 16.5892 12.5691 16.1283 12.0006 16.1283C11.432 16.1283 10.9711 16.5892 10.9711 17.1577C10.9711 17.7263 11.432 18.1872 12.0006 18.1872Z" fill="#909090"/>
<path fill-rule="evenodd" clip-rule="evenodd" d="M10.589 14.2262C11.3685 13.4467 12.6323 13.4467 13.4118 14.2262L14.9318 15.7462C15.7113 16.5257 15.7113 17.7895 14.9318 18.5691L13.4118 20.089C12.6323 20.8685 11.3685 20.8685 10.589 20.089L9.06901 18.5691C8.2895 17.7895 8.2895 16.5257 9.06901 15.7462L10.589 14.2262ZM12.5633 15.0748L14.0833 16.5947C14.3941 16.9056 14.3941 17.4096 14.0833 17.7205L12.5633 19.2405C12.2524 19.5514 11.7484 19.5514 11.4375 19.2405L9.91754 17.7205C9.60665 17.4096 9.60665 16.9056 9.91754 16.5947L11.4375 15.0748C11.7484 14.7639 12.2524 14.7639 12.5633 15.0748Z" fill="#909090"/>
</svg>
