<svg width="24" height="24" viewBox="0 0 24 24" fill="none" xmlns="http://www.w3.org/2000/svg">
<path fill-rule="evenodd" clip-rule="evenodd" d="M16.7798 6.22441C16.2099 6.22441 15.7479 6.68641 15.7479 7.25632C15.7479 7.82622 16.2099 8.28822 16.7798 8.28822C17.3497 8.28822 17.8117 7.82622 17.8117 7.25632C17.8117 6.68641 17.3497 6.22441 16.7798 6.22441ZM14.6294 6.65625C14.8915 5.71504 15.755 5.02441 16.7798 5.02441C18.0124 5.02441 19.0117 6.02367 19.0117 7.25632C19.0117 8.48896 18.0124 9.48822 16.7798 9.48822C15.7549 9.48822 14.8915 8.79752 14.6294 7.85625H7.84095C7.45149 7.85625 7.06423 8.02672 6.76864 8.35344C6.47125 8.68214 6.29525 9.13974 6.29525 9.62793C6.29525 10.1161 6.47125 10.5737 6.76864 10.9024C7.06423 11.2291 7.45149 11.3996 7.84095 11.3996L16.251 11.3996C16.9997 11.3996 17.7039 11.7289 18.2132 12.2918C18.7206 12.8526 18.9967 13.6015 18.9967 14.3713C18.9967 15.1412 18.7206 15.89 18.2132 16.4509C17.7039 17.0137 16.9997 17.343 16.251 17.343H9.37108C9.10904 18.2846 8.24531 18.9755 7.22019 18.9755C5.98727 18.9755 4.98779 17.9761 4.98779 16.7431C4.98779 15.5102 5.98727 14.5107 7.22019 14.5107C8.24521 14.5107 9.10887 15.2016 9.371 16.143H16.251C16.6404 16.143 17.0277 15.9725 17.3233 15.6458C17.6207 15.3171 17.7967 14.8595 17.7967 14.3713C17.7967 13.8831 17.6207 13.4255 17.3233 13.0968C17.0277 12.7701 16.6404 12.5996 16.251 12.5996L7.84095 12.5996C7.09225 12.5996 6.38799 12.2703 5.87878 11.7075C5.37137 11.1467 5.09525 10.3978 5.09525 9.62793C5.09525 8.85811 5.37137 8.10921 5.87878 7.54836C6.38799 6.98553 7.09225 6.65625 7.84095 6.65625H14.6294ZM7.22019 15.7107C6.65001 15.7107 6.18779 16.173 6.18779 16.7431C6.18779 17.3133 6.65001 17.7755 7.22019 17.7755C7.79037 17.7755 8.2526 17.3133 8.2526 16.7431C8.2526 16.173 7.79037 15.7107 7.22019 15.7107Z" fill="#333333"/>
</svg>
