<svg width="24" height="24" viewBox="0 0 24 24" fill="none" xmlns="http://www.w3.org/2000/svg">
<path fill-rule="evenodd" clip-rule="evenodd" d="M9.4 6.2H7.6C7.37909 6.2 7.2 6.37909 7.2 6.6V17.4C7.2 17.6209 7.37909 17.8 7.6 17.8H9.4C9.62091 17.8 9.8 17.6209 9.8 17.4V6.6C9.8 6.37909 9.62091 6.2 9.4 6.2ZM7.6 5H9.4C10.2837 5 11 5.71634 11 6.6V17.4C11 18.2837 10.2837 19 9.4 19H7.6C6.71634 19 6 18.2837 6 17.4V6.6C6 5.71635 6.71634 5 7.6 5Z" fill="#909090"/>
<path fill-rule="evenodd" clip-rule="evenodd" d="M16.4 6.2H14.6C14.3791 6.2 14.2 6.37909 14.2 6.6V17.4C14.2 17.6209 14.3791 17.8 14.6 17.8H16.4C16.6209 17.8 16.8 17.6209 16.8 17.4V6.6C16.8 6.37909 16.6209 6.2 16.4 6.2ZM14.6 5H16.4C17.2837 5 18 5.71634 18 6.6V17.4C18 18.2837 17.2837 19 16.4 19H14.6C13.7163 19 13 18.2837 13 17.4V6.6C13 5.71635 13.7163 5 14.6 5Z" fill="#909090"/>
</svg>
