<svg width="24" height="24" viewBox="0 0 24 24" fill="none" xmlns="http://www.w3.org/2000/svg">
<path fill-rule="evenodd" clip-rule="evenodd" d="M9.76667 7.26699H8.4C8.23432 7.26699 8.1 7.40131 8.1 7.56699V16.4337C8.1 16.5993 8.23431 16.7337 8.4 16.7337H9.76667C9.93235 16.7337 10.0667 16.5993 10.0667 16.4337V7.56699C10.0667 7.40131 9.93235 7.26699 9.76667 7.26699ZM8.4 6.16699H9.76667C10.5399 6.16699 11.1667 6.79379 11.1667 7.56699V16.4337C11.1667 17.2069 10.5399 17.8337 9.76667 17.8337H8.4C7.6268 17.8337 7 17.2069 7 16.4337V7.56699C7 6.79379 7.6268 6.16699 8.4 6.16699Z" fill="#909090"/>
<path fill-rule="evenodd" clip-rule="evenodd" d="M15.6 7.26699H14.2333C14.0676 7.26699 13.9333 7.40131 13.9333 7.56699V16.4337C13.9333 16.5993 14.0676 16.7337 14.2333 16.7337H15.6C15.7657 16.7337 15.9 16.5993 15.9 16.4337V7.56699C15.9 7.40131 15.7657 7.26699 15.6 7.26699ZM14.2333 6.16699H15.6C16.3732 6.16699 17 6.79379 17 7.56699V16.4337C17 17.2069 16.3732 17.8337 15.6 17.8337H14.2333C13.4601 17.8337 12.8333 17.2069 12.8333 16.4337V7.56699C12.8333 6.79379 13.4601 6.16699 14.2333 6.16699Z" fill="#909090"/>
</svg>
