<svg width="24" height="24" viewBox="0 0 24 24" fill="none" xmlns="http://www.w3.org/2000/svg">
<path fill-rule="evenodd" clip-rule="evenodd" d="M10.4167 8.81699H9.5C9.44477 8.81699 9.4 8.86176 9.4 8.91699V15.0837C9.4 15.1389 9.44477 15.1837 9.5 15.1837H10.4167C10.4719 15.1837 10.5167 15.1389 10.5167 15.0837V8.91699C10.5167 8.86176 10.4719 8.81699 10.4167 8.81699ZM9.5 7.91699H10.4167C10.969 7.91699 11.4167 8.36471 11.4167 8.91699V15.0837C11.4167 15.6359 10.969 16.0837 10.4167 16.0837H9.5C8.94772 16.0837 8.5 15.6359 8.5 15.0837V8.91699C8.5 8.36471 8.94772 7.91699 9.5 7.91699Z" fill="#909090"/>
<path fill-rule="evenodd" clip-rule="evenodd" d="M14.5 8.81699H13.5833C13.5281 8.81699 13.4833 8.86176 13.4833 8.91699V15.0837C13.4833 15.1389 13.5281 15.1837 13.5833 15.1837H14.5C14.5552 15.1837 14.6 15.1389 14.6 15.0837V8.91699C14.6 8.86176 14.5552 8.81699 14.5 8.81699ZM13.5833 7.91699H14.5C15.0523 7.91699 15.5 8.36471 15.5 8.91699V15.0837C15.5 15.6359 15.0523 16.0837 14.5 16.0837H13.5833C13.031 16.0837 12.5833 15.6359 12.5833 15.0837V8.91699C12.5833 8.36471 13.031 7.91699 13.5833 7.91699Z" fill="#909090"/>
</svg>
