<svg width="24" height="24" viewBox="0 0 24 24" fill="none" xmlns="http://www.w3.org/2000/svg">
<path fill-rule="evenodd" clip-rule="evenodd" d="M10.0917 8.04199H8.95C8.83954 8.04199 8.75 8.13154 8.75 8.24199V15.7587C8.75 15.8691 8.83954 15.9587 8.95 15.9587H10.0917C10.2021 15.9587 10.2917 15.8691 10.2917 15.7587V8.24199C10.2917 8.13154 10.2021 8.04199 10.0917 8.04199ZM8.95 7.04199H10.0917C10.7544 7.04199 11.2917 7.57925 11.2917 8.24199V15.7587C11.2917 16.4214 10.7544 16.9587 10.0917 16.9587H8.95C8.28726 16.9587 7.75 16.4214 7.75 15.7587V8.24199C7.75 7.57925 8.28726 7.04199 8.95 7.04199Z" fill="#909090"/>
<path fill-rule="evenodd" clip-rule="evenodd" d="M15.05 8.04199H13.9083C13.7979 8.04199 13.7083 8.13154 13.7083 8.24199V15.7587C13.7083 15.8691 13.7979 15.9587 13.9083 15.9587H15.05C15.1604 15.9587 15.25 15.8691 15.25 15.7587V8.24199C15.25 8.13154 15.1604 8.04199 15.05 8.04199ZM13.9083 7.04199H15.05C15.7127 7.04199 16.25 7.57925 16.25 8.24199V15.7587C16.25 16.4214 15.7127 16.9587 15.05 16.9587H13.9083C13.2456 16.9587 12.7083 16.4214 12.7083 15.7587V8.24199C12.7083 7.57925 13.2456 7.04199 13.9083 7.04199Z" fill="#909090"/>
</svg>
