<svg width="24" height="24" viewBox="0 0 24 24" fill="none" xmlns="http://www.w3.org/2000/svg">
<path fill-rule="evenodd" clip-rule="evenodd" d="M7.7307 11.6967C7.92559 11.9163 8.03322 12.1997 8.03322 12.4933V18.5112C8.03322 18.6769 8.16754 18.8112 8.33322 18.8112H15.7869C15.9526 18.8112 16.0869 18.6769 16.0869 18.5112V12.4933C16.0869 12.2311 16.1727 11.9761 16.3313 11.7674L16.637 11.3649C16.7428 11.2258 16.8 11.0558 16.8 10.881V5.5C16.8 5.33431 16.6657 5.2 16.5 5.2H7.5C7.33431 5.2 7.2 5.33431 7.2 5.5V10.7949C7.2 10.9907 7.27176 11.1796 7.40168 11.326L7.7307 11.6967ZM6.83322 12.4933V18.5112C6.83322 19.3397 7.50479 20.0112 8.33322 20.0112H15.7869C16.6153 20.0112 17.2869 19.3397 17.2869 18.5112V12.4933L17.5926 12.0908C17.8569 11.7429 18 11.3179 18 10.881V5.5C18 4.67157 17.3284 4 16.5 4H7.5C6.67157 4 6 4.67157 6 5.5V10.7949C6 11.2843 6.17939 11.7566 6.50421 12.1226L6.83322 12.4933Z" fill="#333333"/>
<path d="M9.48926 14.4628C9.48926 14.1314 9.75789 13.8628 10.0893 13.8628H10.8893C11.2206 13.8628 11.4893 14.1314 11.4893 14.4628C11.4893 14.7941 11.2206 15.0628 10.8893 15.0628H10.0893C9.75789 15.0628 9.48926 14.7941 9.48926 14.4628Z" fill="#333333"/>
<path d="M12.5107 14.4628C12.5107 14.1314 12.7794 13.8628 13.1107 13.8628H13.9107C14.2421 13.8628 14.5107 14.1314 14.5107 14.4628C14.5107 14.7941 14.2421 15.0628 13.9107 15.0628H13.1107C12.7794 15.0628 12.5107 14.7941 12.5107 14.4628Z" fill="#333333"/>
<path d="M9.48926 16.5669C9.48926 16.2355 9.75789 15.9669 10.0893 15.9669H10.8893C11.2206 15.9669 11.4893 16.2355 11.4893 16.5669C11.4893 16.8983 11.2206 17.1669 10.8893 17.1669H10.0893C9.75789 17.1669 9.48926 16.8983 9.48926 16.5669Z" fill="#333333"/>
<path d="M12.5107 16.5669C12.5107 16.2355 12.7794 15.9669 13.1107 15.9669H13.9107C14.2421 15.9669 14.5107 16.2355 14.5107 16.5669C14.5107 16.8983 14.2421 17.1669 13.9107 17.1669H13.1107C12.7794 17.1669 12.5107 16.8983 12.5107 16.5669Z" fill="#333333"/>
<path fill-rule="evenodd" clip-rule="evenodd" d="M14.9385 7.15863C15.171 7.39472 15.1681 7.77461 14.932 8.00713L12.0217 10.8736C11.796 11.0958 11.4365 11.1044 11.2005 10.8931L9.56661 9.4305C9.31971 9.20948 9.29873 8.83016 9.51975 8.58326C9.74077 8.33637 10.1201 8.31539 10.367 8.53641L11.5811 9.62323L14.09 7.15218C14.326 6.91965 14.7059 6.92254 14.9385 7.15863Z" fill="#333333"/>
</svg>
