<svg width="24" height="24" viewBox="0 0 24 24" fill="none" xmlns="http://www.w3.org/2000/svg">
<path fill-rule="evenodd" clip-rule="evenodd" d="M19.6001 7.78171C19.6001 6.89171 18.9501 6.14171 18.0801 6.00171L9.8501 4.72171C8.8801 4.57171 7.9701 5.22171 7.8001 6.18171L7.7201 6.66171C6.9301 6.75171 6.2701 7.35171 6.1401 8.17171L5.9601 9.34171C5.1701 9.61171 4.6001 10.3517 4.6001 11.2317V17.6817C4.6001 18.7817 5.5001 19.6817 6.6001 19.6817H17.6001C18.7001 19.6817 19.6001 18.7817 19.6001 17.6817V11.2317C19.6001 11.2317 19.6001 11.1517 19.5901 11.1117C19.5901 11.0917 19.6001 11.0717 19.6001 11.0517V7.78171ZM9.6701 5.91171L17.8901 7.19171C18.1401 7.23171 18.3201 7.41171 18.3701 7.65171C18.2401 7.61171 18.1001 7.57171 17.9601 7.56171L8.9201 6.74171L8.9801 6.40171C9.0401 6.08171 9.3401 5.86171 9.6601 5.91171H9.6701ZM7.9801 7.85171L17.8601 8.74171C18.1701 8.77171 18.4001 9.03171 18.4101 9.34171V9.39171C18.1601 9.28171 17.8901 9.22171 17.6101 9.22171H7.1901L7.3301 8.35171C7.3801 8.04171 7.6601 7.82171 7.9801 7.85171ZM18.4001 17.6717C18.4001 18.1117 18.0401 18.4717 17.6001 18.4717H6.6001C6.1601 18.4717 5.8001 18.1117 5.8001 17.6717V11.2217C5.8001 10.7817 6.1601 10.4217 6.6001 10.4217H17.6001C18.0401 10.4217 18.4001 10.7817 18.4001 11.2217V17.6717Z" fill="#333333"/>
</svg>
