<svg width="24" height="24" viewBox="0 0 24 24" fill="none" xmlns="http://www.w3.org/2000/svg">
<path fill-rule="evenodd" clip-rule="evenodd" d="M7.41505 14.5796C8.77457 13.7849 10.464 13.5367 11.9998 13.5367C13.5356 13.5367 15.225 13.7849 16.5845 14.5796C17.9808 15.3958 18.985 16.7658 19.1312 18.8699C19.1762 19.5176 18.6476 20.0129 18.0496 20.0129H5.94995C5.35199 20.0129 4.8234 19.5176 4.8684 18.8699C5.01457 16.7658 6.01876 15.3958 7.41505 14.5796ZM6.07688 18.8129H17.9227C17.7726 17.1969 17.0104 16.2186 15.9789 15.6156C14.8812 14.9739 13.4363 14.7367 11.9998 14.7367C10.5633 14.7367 9.11839 14.9739 8.02064 15.6156C6.98916 16.2186 6.22697 17.1969 6.07688 18.8129Z" fill="#333333"/>
<path fill-rule="evenodd" clip-rule="evenodd" d="M11.2325 5.34255C10.9426 5.43864 10.7266 5.5541 10.6242 5.62948C9.71843 6.29625 9.29078 7.71724 9.59747 9.11444C9.8945 10.4676 10.7582 11.3382 11.9918 11.3382C12.7707 11.3382 13.3479 11.0042 13.7671 10.4663C14.2081 9.90072 14.4774 9.09369 14.4978 8.24037C14.5183 7.386 14.2872 6.60245 13.8748 6.06237C13.4906 5.55917 12.904 5.2 11.9918 5.2C11.7918 5.2 11.5185 5.24774 11.2325 5.34255ZM9.91282 4.66308C7.11956 6.71928 8.04658 12.5382 11.9918 12.5382C16.7282 12.5382 17.1372 4 11.9918 4C11.2682 4 10.3766 4.32165 9.91282 4.66308Z" fill="#333333"/>
</svg>
