<svg width="24" height="24" viewBox="0 0 24 24" fill="none" xmlns="http://www.w3.org/2000/svg">
<path fill-rule="evenodd" clip-rule="evenodd" d="M6.13226 18.3004C6.24375 17.2705 6.65197 16.2346 7.49198 15.4441C8.36766 14.6202 9.77918 14.0004 12.0001 14.0004C12.0956 14.0004 12.1345 14.0015 12.224 14.004C12.233 14.0043 12.2426 14.0045 12.2528 14.0048C12.584 14.0141 12.8601 13.7531 12.8694 13.4219C12.8786 13.0906 12.6176 12.8146 12.2864 12.8053C12.2764 12.805 12.2669 12.8048 12.2578 12.8045C12.1658 12.8019 12.1128 12.8004 12.0001 12.8004C9.55017 12.8004 7.81806 13.4896 6.66963 14.5702C5.52605 15.6463 5.02755 17.0483 4.92209 18.3527C4.86896 19.0097 5.40698 19.5004 6.00005 19.5004H13.8169C14.1483 19.5004 14.4169 19.2318 14.4169 18.9004C14.4169 18.569 14.1483 18.3004 13.8169 18.3004H6.13226Z" fill="#333333"/>
<path fill-rule="evenodd" clip-rule="evenodd" d="M11.2327 4.74294C10.9428 4.83903 10.7268 4.95449 10.6244 5.02987C9.71865 5.69665 9.291 7.11763 9.5977 8.51483C9.89472 9.86797 10.7585 10.7386 11.992 10.7386C12.7709 10.7386 13.3481 10.4046 13.7674 9.86672C14.2083 9.30111 14.4776 8.49408 14.498 7.64076C14.5185 6.78639 14.2875 6.00284 13.875 5.46276C13.4908 4.95957 12.9043 4.60039 11.992 4.60039C11.792 4.60039 11.5187 4.64813 11.2327 4.74294ZM9.91305 4.06347C7.11979 6.11967 8.04681 11.9386 11.992 11.9386C16.7285 11.9386 17.1374 3.40039 11.992 3.40039C11.2684 3.40039 10.3769 3.72204 9.91305 4.06347Z" fill="#333333"/>
<path fill-rule="evenodd" clip-rule="evenodd" d="M13.9001 14.4004C13.9001 14.069 14.1687 13.8004 14.5001 13.8004H19.5001C19.8314 13.8004 20.1001 14.069 20.1001 14.4004C20.1001 14.7318 19.8314 15.0004 19.5001 15.0004H14.5001C14.1687 15.0004 13.9001 14.7318 13.9001 14.4004Z" fill="#333333"/>
<path fill-rule="evenodd" clip-rule="evenodd" d="M14.9001 16.7002C14.9001 16.3688 15.1687 16.1002 15.5001 16.1002H18.5001C18.8314 16.1002 19.1001 16.3688 19.1001 16.7002C19.1001 17.0316 18.8314 17.3002 18.5001 17.3002H15.5001C15.1687 17.3002 14.9001 17.0316 14.9001 16.7002Z" fill="#333333"/>
<path fill-rule="evenodd" clip-rule="evenodd" d="M15.9001 18.9004C15.9001 18.569 16.1687 18.3004 16.5001 18.3004H17.5001C17.8314 18.3004 18.1001 18.569 18.1001 18.9004C18.1001 19.2318 17.8314 19.5004 17.5001 19.5004H16.5001C16.1687 19.5004 15.9001 19.2318 15.9001 18.9004Z" fill="#333333"/>
</svg>
