<svg width="24" height="24" viewBox="0 0 24 24" fill="none" xmlns="http://www.w3.org/2000/svg">
<path fill-rule="evenodd" clip-rule="evenodd" d="M11.9918 11.9386C8.04662 11.9386 7.1196 6.11967 9.91286 4.06347C10.3767 3.72204 11.2682 3.40039 11.9918 3.40039C17.1372 3.40039 16.7283 11.9386 11.9918 11.9386ZM10.6243 5.02987C10.7266 4.95449 10.9426 4.83903 11.2325 4.74294C11.5185 4.64813 11.7918 4.60039 11.9918 4.60039C12.9041 4.60039 13.4906 4.95957 13.8749 5.46276C14.2873 6.00284 14.5183 6.78639 14.4979 7.64076C14.4774 8.49408 14.2081 9.30111 13.7672 9.86672C13.3479 10.4046 12.7707 10.7386 11.9918 10.7386C10.7583 10.7386 9.89453 9.86797 9.59751 8.51483C9.29081 7.11763 9.71846 5.69665 10.6243 5.02987Z" fill="#333333"/>
<path d="M7.49198 15.4441C6.65197 16.2346 6.24375 17.2705 6.13226 18.3004H12.4997C12.8311 18.3004 13.0997 18.569 13.0997 18.9004C13.0997 19.2318 12.8311 19.5004 12.4997 19.5004H6.00005C5.40698 19.5004 4.86896 19.0097 4.92209 18.3527C5.02755 17.0483 5.52605 15.6463 6.66963 14.5702C7.81806 13.4896 9.55017 12.8004 12.0001 12.8004C12.0593 12.8004 12.1181 12.8008 12.1765 12.8016C12.5079 12.8061 12.7728 13.0784 12.7682 13.4098C12.7637 13.7411 12.4914 14.006 12.1601 14.0015C12.1072 14.0008 12.0539 14.0004 12.0001 14.0004C9.77918 14.0004 8.36766 14.6202 7.49198 15.4441Z" fill="#333333"/>
<path d="M18.8842 15.4395C19.1387 15.6516 19.1731 16.0299 18.961 16.2845L16.461 19.2845C16.3531 19.414 16.1956 19.4921 16.0272 19.4998C15.8588 19.5074 15.695 19.4439 15.5758 19.3247L14.0758 17.8247C13.8415 17.5903 13.8415 17.2104 14.0758 16.9761C14.3101 16.7418 14.69 16.7418 14.9243 16.9761L15.9597 18.0115L18.0391 15.5163C18.2513 15.2617 18.6296 15.2273 18.8842 15.4395Z" fill="#333333"/>
<path d="M18.961 12.7845C19.1731 12.5299 19.1387 12.1516 18.8842 11.9395C18.6296 11.7273 18.2513 11.7617 18.0391 12.0163L15.9597 14.5115L14.9243 13.4761C14.69 13.2418 14.3101 13.2418 14.0758 13.4761C13.8415 13.7104 13.8415 14.0903 14.0758 14.3247L15.5758 15.8247C15.695 15.9439 15.8588 16.0074 16.0272 15.9998C16.1956 15.9921 16.3531 15.914 16.461 15.7845L18.961 12.7845Z" fill="#333333"/>
</svg>
