<svg width="24" height="24" viewBox="0 0 24 24" fill="none" xmlns="http://www.w3.org/2000/svg">
<path d="M11.7401 18.9L6.21007 18.94C6.35007 17.63 7.15007 14.84 11.5001 14.62C11.8301 14.6 12.0801 14.32 12.0701 13.99C12.0501 13.66 11.7801 13.41 11.4401 13.42C5.86007 13.71 5.10007 17.73 5.00007 18.95C4.98007 19.24 5.08007 19.53 5.28007 19.75C5.48007 19.97 5.78007 20.1 6.08007 20.1H11.7401C12.0701 20.1 12.3401 19.83 12.3401 19.5C12.3401 19.17 12.0701 18.9 11.7401 18.9Z" fill="#333333"/>
<path d="M12.0701 12.54C13.1701 12.54 14.1101 12.08 14.7901 11.21C15.4001 10.43 15.7501 9.39 15.7701 8.27C15.8001 7.15 15.4901 6.1 14.9001 5.33C14.2301 4.46 13.2501 4 12.0601 4C11.7201 4 11.3201 4.07 10.9201 4.2C10.5501 4.32 10.2101 4.49 9.98007 4.66C8.68007 5.62 8.08007 7.51 8.49007 9.37C8.92007 11.32 10.2801 12.54 12.0601 12.54H12.0701ZM10.7001 5.63C10.8001 5.55 11.0201 5.44 11.3101 5.34C11.5801 5.25 11.8601 5.2 12.0701 5.2C12.8801 5.2 13.5201 5.49 13.9501 6.06C14.3701 6.61 14.5901 7.4 14.5701 8.24C14.5501 9.08 14.2801 9.9 13.8401 10.47C13.3901 11.05 12.7901 11.34 12.0601 11.34C10.8701 11.34 9.97007 10.51 9.67007 9.12C9.37007 7.74 9.79007 6.3 10.7001 5.64V5.63Z" fill="#333333"/>
<path d="M21.5801 17.15C21.4801 17.02 21.4801 16.83 21.5901 16.7L21.7101 16.57C22.0401 16.2 22.2101 15.64 22.0001 15.11C21.8601 14.75 21.6801 14.4 21.4501 14.08C21.1201 13.61 20.5601 13.44 20.0701 13.51L19.8901 13.53C19.7201 13.55 19.5601 13.45 19.5101 13.3L19.4601 13.15C19.3001 12.67 18.8901 12.23 18.2901 12.16C17.9101 12.12 17.5101 12.12 17.1301 12.16C16.5701 12.22 16.1501 12.61 15.9601 13.08L15.9201 13.19C15.8601 13.35 15.6901 13.43 15.5301 13.4L15.3601 13.36C14.8701 13.26 14.3001 13.39 13.9401 13.85C13.6901 14.16 13.4901 14.49 13.3301 14.84C13.0901 15.36 13.2201 15.93 13.5301 16.32L13.6401 16.46C13.7401 16.59 13.7401 16.78 13.6301 16.91L13.5101 17.04C13.1801 17.41 13.0101 17.97 13.2201 18.5C13.3601 18.86 13.5401 19.21 13.7701 19.53C14.1001 20 14.6601 20.17 15.1501 20.1L15.3301 20.08C15.5001 20.06 15.6601 20.16 15.7101 20.31L15.7701 20.5C15.9201 20.97 16.3201 21.39 16.8801 21.48C17.2701 21.54 17.6601 21.56 18.0401 21.52C18.6201 21.47 19.0401 21.07 19.2301 20.61L19.3001 20.43C19.3601 20.27 19.5301 20.19 19.6901 20.22L19.8601 20.26C20.3501 20.36 20.9201 20.23 21.2801 19.77C21.5301 19.46 21.7301 19.13 21.8901 18.78C22.1301 18.26 22.0001 17.69 21.6901 17.3L21.5801 17.16V17.15ZM20.3401 19.01C20.3401 19.01 20.2201 19.1 20.0901 19.07L19.9201 19.03C19.1901 18.88 18.4501 19.27 18.1701 19.96L18.1001 20.14C18.0501 20.26 17.9701 20.3 17.9201 20.31C17.6301 20.34 17.3401 20.33 17.0601 20.28C17.0101 20.28 16.9301 20.23 16.8901 20.1L16.8301 19.91C16.5901 19.2 15.8901 18.76 15.1501 18.87L14.9701 18.89C14.8401 18.91 14.7601 18.86 14.7301 18.82C14.5601 18.58 14.4201 18.32 14.3201 18.05C14.3001 18 14.3001 17.91 14.3901 17.81L14.5101 17.68C15.0101 17.12 15.0301 16.29 14.5701 15.7L14.4601 15.56C14.3801 15.46 14.3801 15.36 14.4101 15.32C14.5301 15.06 14.6801 14.82 14.8701 14.58C14.9001 14.54 14.9901 14.49 15.1201 14.52L15.2901 14.56C16.0201 14.71 16.7601 14.32 17.0401 13.63L17.0801 13.52C17.1301 13.4 17.2101 13.35 17.2701 13.35C17.5701 13.32 17.8801 13.32 18.1601 13.35C18.2001 13.35 18.2901 13.4 18.3301 13.53L18.3801 13.68C18.6201 14.39 19.3201 14.83 20.0601 14.72L20.2401 14.7C20.3701 14.68 20.4501 14.73 20.4801 14.77C20.6501 15.01 20.7901 15.27 20.8901 15.54C20.9101 15.59 20.9101 15.68 20.8201 15.78L20.7001 15.91C20.2001 16.47 20.1801 17.3 20.6401 17.89L20.7501 18.03C20.8301 18.13 20.8301 18.23 20.8001 18.27C20.6801 18.53 20.5301 18.77 20.3401 19.01Z" fill="#333333"/>
<path d="M17.2301 15.0076C16.5601 15.1476 15.9501 15.7576 15.8101 16.4276C15.6801 17.0476 15.8601 17.6876 16.3101 18.1376C16.6701 18.4976 17.1401 18.6876 17.6401 18.6876C17.7701 18.6876 17.9101 18.6776 18.0401 18.6476C18.7501 18.4976 19.3101 17.9376 19.4601 17.2276C19.5901 16.6076 19.4101 15.9676 18.9601 15.5176C18.5101 15.0676 17.8701 14.8776 17.2301 15.0076ZM17.7901 17.4676C17.5601 17.5176 17.3201 17.4476 17.1601 17.2876C17.0001 17.1276 16.9401 16.9076 16.9801 16.6776C17.0201 16.4776 17.2801 16.2276 17.4801 16.1876C17.5301 16.1776 17.5801 16.1676 17.6301 16.1676C17.8101 16.1676 17.9801 16.2376 18.1101 16.3676C18.2701 16.5276 18.3301 16.7476 18.2901 16.9776C18.2401 17.2276 18.0401 17.4176 17.7901 17.4676Z" fill="#333333"/>
</svg>
