<svg width="24" height="24" viewBox="0 0 24 24" fill="none" xmlns="http://www.w3.org/2000/svg">
<path d="M19.4488 4.03805C19.3179 3.7336 18.9651 3.59287 18.6606 3.72371C18.3562 3.85455 18.2154 4.20742 18.3463 4.51187C19.4648 7.11444 19.3193 9.38126 18.3388 11.8856C18.218 12.1942 18.3702 12.5423 18.6788 12.6631C18.9874 12.7839 19.3354 12.6317 19.4562 12.3231C20.5306 9.57898 20.7131 6.97998 19.4488 4.03805Z" fill="#909090"/>
<path fill-rule="evenodd" clip-rule="evenodd" d="M9.91414 4.64982C9.88429 4.67089 9.85682 4.69433 9.83187 4.71974C8.50248 5.76485 8.05644 7.69251 8.42409 9.36856C8.80419 11.0902 10.0231 12.54 11.9902 12.54C13.1684 12.54 14.0875 12.0139 14.7121 11.2105C15.3463 10.4105 15.6778 9.33824 15.7 8.2725C15.7222 7.20641 15.4359 6.13577 14.8276 5.33659L14.8257 5.33417C14.2141 4.53903 13.2796 4 11.9902 4C11.6344 4 11.2309 4.07425 10.8529 4.19995C10.4658 4.32545 10.1404 4.49008 9.91414 4.64982ZM11.2299 5.33921C11.5113 5.24542 11.7867 5.2 11.9902 5.2C12.9 5.2 13.4853 5.5604 13.8736 6.06462C14.2847 6.6054 14.5181 7.39422 14.5003 8.2475C14.4825 9.1006 14.2148 9.90716 13.7703 10.4669L13.7662 10.4721C13.3508 11.0073 12.7706 11.34 11.9902 11.34C10.7574 11.34 9.89611 10.4692 9.59613 9.11104C9.29138 7.72108 9.71955 6.29307 10.6268 5.62251C10.6407 5.61221 10.6541 5.6014 10.6669 5.59012C10.7885 5.51463 10.9789 5.42042 11.2248 5.34087L11.2299 5.33921Z" fill="#909090"/>
<path fill-rule="evenodd" clip-rule="evenodd" d="M11.9999 13.5303C10.4652 13.5303 8.77336 13.7783 7.41152 14.5719C6.01287 15.3869 5.00519 16.7557 4.86126 18.8593L4.85986 18.9003C4.85986 19.5078 5.35235 20.0003 5.95986 20.0003H18.0299C18.6374 20.0003 19.1299 19.5078 19.1299 18.9003L19.1285 18.8593C18.9846 16.7565 17.9801 15.3875 16.5837 14.5721C15.2241 13.7783 13.5345 13.5303 11.9999 13.5303ZM17.92 18.8003H6.06977C6.21831 17.1882 6.98165 16.2113 8.01571 15.6087C9.11637 14.9673 10.5645 14.7303 11.9999 14.7303C13.4353 14.7303 14.8806 14.9673 15.9786 15.6084C17.01 16.2107 17.7715 17.1875 17.92 18.8003Z" fill="#909090"/>
<path d="M16.8584 5.38875C17.1628 5.25791 17.5157 5.39864 17.6465 5.70309C18.4042 7.46613 18.2914 9.03056 17.654 10.6587C17.5332 10.9673 17.1851 11.1195 16.8765 10.9987C16.568 10.8779 16.4158 10.5298 16.5366 10.2213C17.0801 8.83284 17.1559 7.6006 16.544 6.17691C16.4132 5.87246 16.5539 5.51959 16.8584 5.38875Z" fill="#909090"/>
</svg>
