<svg width="24" height="24" viewBox="0 0 24 24" fill="none" xmlns="http://www.w3.org/2000/svg">
<path fill-rule="evenodd" clip-rule="evenodd" d="M7.64082 4.93254C7.49602 4.8171 7.35352 4.8431 7.28513 4.90067C6.56543 5.50645 5.74224 6.60868 5.72802 8.19896C5.71377 9.79214 6.50984 12.0149 9.3305 14.8611C12.1767 17.6818 14.3995 18.4779 15.9927 18.4637C17.583 18.4494 18.6852 17.6263 19.291 16.9066C19.3486 16.8382 19.3746 16.6957 19.2591 16.5509C18.1633 15.1765 17.218 14.3823 16.7278 14.0161C16.6888 13.9871 16.6518 13.9759 16.6236 13.9739C16.5973 13.972 16.5729 13.9775 16.5485 13.9925C16.2304 14.1891 15.7382 14.5646 15.2746 15.2119C15.1655 15.3642 14.9494 15.6348 14.5866 15.7352C14.2057 15.8407 13.8009 15.8033 13.4339 15.7128C13.0605 15.6207 12.679 15.4619 12.3181 15.2736C11.5988 14.8982 10.8958 14.3708 10.4118 13.8867L10.305 13.7799C9.82092 13.2959 9.29344 12.5929 8.91808 11.8736C8.72976 11.5127 8.571 11.1312 8.47891 10.7578C8.38838 10.3907 8.35098 9.98602 8.45646 9.60507C8.5569 9.24232 8.82747 9.0262 8.97982 8.91707C9.62705 8.45343 10.0026 7.96132 10.1991 7.64313C10.2142 7.61874 10.2196 7.59441 10.2178 7.56804C10.2158 7.53992 10.2046 7.50284 10.1755 7.46389C9.80943 6.97365 9.01519 6.02835 7.64082 4.93254ZM8.37709 15.6032C5.5069 12.6734 4.51012 10.1948 4.52807 8.18823C4.54626 6.15462 5.60512 4.74625 6.51237 3.9826C7.08938 3.49692 7.8741 3.5838 8.38892 3.99427C9.85078 5.15984 10.7153 6.18115 11.137 6.74587C11.4581 7.17589 11.529 7.77367 11.2201 8.27376C10.955 8.70283 10.4763 9.32118 9.67862 9.8926C9.65658 9.9084 9.63928 9.92191 9.62565 9.93364C9.61735 9.94077 9.61114 9.94662 9.60661 9.95118C9.58313 10.0603 9.58481 10.2305 9.644 10.4705C9.70654 10.7241 9.82301 11.0139 9.98193 11.3184C10.301 11.9298 10.756 12.5339 11.1535 12.9314L11.2603 13.0382C11.6578 13.4357 12.2618 13.8907 12.8733 14.2098C13.1778 14.3687 13.4676 14.4851 13.7212 14.5477C13.9612 14.6069 14.1314 14.6085 14.2405 14.5851C14.2451 14.5805 14.2509 14.5743 14.258 14.566C14.2698 14.5524 14.2833 14.5351 14.2991 14.5131C14.8705 13.7153 15.4889 13.2366 15.9179 12.9716C16.418 12.6627 17.0158 12.7335 17.4458 13.0547C18.0105 13.4764 19.0318 14.3409 20.1974 15.8028C20.6079 16.3176 20.6948 17.1023 20.2091 17.6793C19.4454 18.5866 18.0371 19.6454 16.0035 19.6636C13.9969 19.6816 11.5183 18.6848 8.58843 15.8146C8.57843 15.8058 8.56865 15.7967 8.55912 15.7871L8.40453 15.6326C8.395 15.623 8.38585 15.6132 8.37709 15.6032Z" fill="#333333"/>
</svg>
