<svg width="24" height="24" viewBox="0 0 24 24" fill="none" xmlns="http://www.w3.org/2000/svg">
<path fill-rule="evenodd" clip-rule="evenodd" d="M12.0211 7.6123H12.2398C12.2533 7.6123 12.2666 7.61275 12.2799 7.61363C16.363 7.65566 18.8166 8.69425 20.2259 10.1161C21.6676 11.5705 21.9175 13.3253 21.8155 14.5121C21.7509 15.2636 21.1346 15.757 20.4803 15.8308C18.6224 16.0403 17.289 15.9294 16.5914 15.8283C16.0603 15.7513 15.5875 15.3787 15.4523 14.8066C15.3363 14.3158 15.2376 13.5401 15.3976 12.572C15.402 12.5452 15.4047 12.5234 15.406 12.5055C15.4069 12.4946 15.4071 12.4861 15.4071 12.4796C15.3465 12.3859 15.225 12.2667 15.0135 12.1389C14.7899 12.0038 14.5026 11.8812 14.1749 11.7783C13.517 11.5715 12.7682 11.4661 12.206 11.4661H12.0549C11.4927 11.4661 10.7439 11.5715 10.0859 11.7783C9.75824 11.8812 9.47097 12.0038 9.24742 12.1389C9.03585 12.2667 8.91434 12.3859 8.85379 12.4796C8.85377 12.4861 8.85402 12.4946 8.85485 12.5055C8.8562 12.5234 8.85887 12.5452 8.86329 12.572C9.0233 13.5401 8.92455 14.3158 8.80856 14.8066C8.67337 15.3787 8.20059 15.7513 7.66945 15.8283C6.97193 15.9294 5.63845 16.0403 3.78058 15.8308C3.1263 15.757 2.50999 15.2636 2.44541 14.5121C2.34341 13.3253 2.59327 11.5705 4.03496 10.1161C5.44433 8.69425 7.89793 7.65566 11.981 7.61363C11.9942 7.61275 12.0076 7.6123 12.0211 7.6123ZM12.1304 8.81255C8.14128 8.83049 6.0076 9.83057 4.88722 10.9609C3.75945 12.0986 3.5601 13.468 3.641 14.4094C3.64866 14.4984 3.73103 14.6176 3.91505 14.6383C5.66173 14.8353 6.89177 14.7285 7.4973 14.6407C7.5454 14.6337 7.57953 14.6154 7.60082 14.5969C7.62078 14.5796 7.63413 14.5586 7.64073 14.5307C7.72674 14.1667 7.80918 13.5532 7.67935 12.7677C7.64879 12.5828 7.61029 12.2386 7.79577 11.9111C7.99057 11.5671 8.30318 11.3074 8.62676 11.1119C8.95592 10.9129 9.33794 10.7554 9.72626 10.6334C10.5003 10.3903 11.3704 10.2661 12.0549 10.2661H12.206C12.8905 10.2661 13.7606 10.3903 14.5346 10.6334C14.9229 10.7554 15.305 10.9129 15.6341 11.1119C15.9577 11.3074 16.2703 11.5671 16.4651 11.9111C16.6506 12.2386 16.6121 12.5828 16.5815 12.7677C16.4517 13.5532 16.5341 14.1667 16.6202 14.5307C16.6268 14.5586 16.6401 14.5796 16.6601 14.5969C16.6814 14.6154 16.7155 14.6337 16.7636 14.6407C17.3691 14.7285 18.5992 14.8353 20.3458 14.6383C20.5299 14.6176 20.6122 14.4984 20.6199 14.4094C20.7008 13.468 20.5014 12.0986 19.3737 10.9609C18.2533 9.83057 16.1196 8.83049 12.1304 8.81255Z" fill="#333333"/>
</svg>
