<svg width="24" height="24" viewBox="0 0 24 24" fill="none" xmlns="http://www.w3.org/2000/svg">
<path fill-rule="evenodd" clip-rule="evenodd" d="M14.8077 5.69097C14.6762 5.57129 14.4203 5.55055 14.2264 5.74482C14.032 5.93967 14.0519 6.19887 14.1721 6.33211L15.3628 7.52597L8.39389 12.8548L7.32695 11.7849C7.19542 11.6653 6.93959 11.6446 6.74573 11.8388C6.5513 12.0337 6.5712 12.2928 6.69141 12.4261L11.567 17.3127C11.6998 17.4287 11.9522 17.4461 12.1435 17.2543C12.3353 17.062 12.3184 16.8063 12.2018 16.6719L11.1401 15.6073L16.4546 8.6207L17.6605 9.82991C17.7887 9.95877 18.0535 9.9883 18.254 9.78774C18.455 9.58658 18.4272 9.31875 18.2981 9.18865L14.8077 5.69097ZM13.377 4.89715C13.9861 4.28689 14.9887 4.20905 15.6377 4.82423L15.6437 4.82996L19.1478 8.34135C19.7905 8.98728 19.7231 10.0152 19.1028 10.636C18.4818 11.2574 17.4545 11.3239 16.8107 10.6771L16.5766 10.4424L12.7287 15.5009L13.0708 15.8439L13.079 15.8528C13.6783 16.5041 13.5966 17.4966 12.9931 18.1017C12.389 18.7074 11.3965 18.7899 10.7457 18.1878L10.737 18.1798L8.70417 16.1443L5.42417 19.4243C5.18985 19.6586 4.80995 19.6586 4.57564 19.4243C4.34132 19.1899 4.34132 18.8101 4.57564 18.5757L7.85739 15.294L5.828 13.2597L5.82201 13.2533C5.21012 12.6033 5.28797 11.6008 5.89635 10.9912C6.50538 10.3809 7.50804 10.3031 8.15702 10.9182L8.16313 10.924L8.50068 11.2625L13.5465 7.40416L13.3086 7.16561L13.3027 7.15931C12.6908 6.50933 12.7687 5.50676 13.377 4.89715Z" fill="#333333"/>
</svg>
