<svg width="24" height="24" viewBox="0 0 24 24" fill="none" xmlns="http://www.w3.org/2000/svg">
<path d="M6.7 18.15H10C10.33 18.15 10.6 18.42 10.6 18.75C10.6 19.08 10.33 19.35 10 19.35H6.7C5.21 19.35 4 18.14 4 16.65V7.95C4 6.46 5.21 5.25 6.7 5.25H7.75V4.81C7.75 4.36 8.11 4 8.56 4C9.01 4 9.37 4.36 9.37 4.81V5.25H14.63V4.81C14.63 4.36 14.99 4 15.44 4C15.89 4 16.25 4.36 16.25 4.81V5.25H17.29C18.78 5.25 19.99 6.46 19.99 7.95V9.1C19.99 9.43 19.72 9.7 19.39 9.7C19.06 9.7 18.79 9.43 18.79 9.1V7.95C18.79 7.12 18.12 6.45 17.29 6.45H16.25V7.35C16.25 7.8 15.89 8.16 15.44 8.16C14.99 8.16 14.63 7.8 14.63 7.35V6.45H9.37V7.35C9.37 7.8 9.01 8.16 8.56 8.16C8.11 8.16 7.75 7.8 7.75 7.35V6.45H6.7C5.87 6.45 5.2 7.12 5.2 7.95V16.65C5.2 17.48 5.87 18.15 6.7 18.15Z" fill="#333333"/>
<path d="M7.96992 9.75H8.77992C9.21992 9.75 9.57992 10.11 9.57992 10.55V11.4C9.57992 11.84 9.21992 12.2 8.77992 12.2H7.96992C7.52992 12.2 7.16992 11.84 7.16992 11.4V10.55C7.16992 10.11 7.52992 9.75 7.96992 9.75Z" fill="#333333"/>
<path d="M16.3602 15.0996H17.7602C18.0902 15.0996 18.3602 15.3696 18.3602 15.6996C18.3602 16.0296 18.0902 16.2996 17.7602 16.2996H15.7602C15.6102 16.2996 15.4502 16.2296 15.3402 16.1196C15.2202 16.0096 15.1602 15.8596 15.1602 15.6996V13.6996C15.1602 13.3696 15.4302 13.0996 15.7602 13.0996C16.0902 13.0996 16.3602 13.3696 16.3602 13.6996V15.0996Z" fill="#333333"/>
<path fill-rule="evenodd" clip-rule="evenodd" d="M15.8598 10.9004C13.3198 10.9004 11.2598 12.9604 11.2598 15.5004C11.2598 18.0404 13.3198 20.1004 15.8598 20.1004C18.3998 20.1004 20.4598 18.0404 20.4598 15.5004C20.4598 12.9604 18.3998 10.9004 15.8598 10.9004ZM15.8598 18.9004C13.9798 18.9004 12.4598 17.3804 12.4598 15.5004C12.4598 13.6204 13.9798 12.1004 15.8598 12.1004C17.7398 12.1004 19.2598 13.6204 19.2598 15.5004C19.2598 17.3804 17.7398 18.9004 15.8598 18.9004Z" fill="#333333"/>
</svg>
