<svg width="24" height="24" viewBox="0 0 24 24" fill="none" xmlns="http://www.w3.org/2000/svg">
<path d="M11.3999 18.2996C11.3999 18.631 11.6685 18.8996 11.9999 18.8996C12.3313 18.8996 12.5999 18.631 12.5999 18.2996V12.5998H18.3001C18.6315 12.5998 18.9001 12.3312 18.9001 11.9998C18.9001 11.6684 18.6315 11.3998 18.3001 11.3998H12.5999V5.69961C12.5999 5.36824 12.3313 5.09961 11.9999 5.09961C11.6685 5.09961 11.3999 5.36824 11.3999 5.69961V11.3998H5.7001C5.36873 11.3998 5.1001 11.6684 5.1001 11.9998C5.1001 12.3312 5.36873 12.5998 5.7001 12.5998H11.3999V18.2996Z" fill="#333333"/>
</svg>
