<svg width="24" height="24" viewBox="0 0 24 24" fill="none" xmlns="http://www.w3.org/2000/svg">
<path d="M11.45 17.0002C11.45 17.304 11.6963 17.5502 12 17.5502C12.3038 17.5502 12.55 17.304 12.55 17.0002V12.5504H17.0002C17.304 12.5504 17.5502 12.3041 17.5502 12.0004C17.5502 11.6966 17.304 11.4504 17.0002 11.4504H12.55V7.0002C12.55 6.69644 12.3038 6.4502 12 6.4502C11.6963 6.4502 11.45 6.69644 11.45 7.0002V11.4504H7.0002C6.69644 11.4504 6.4502 11.6966 6.4502 12.0004C6.4502 12.3041 6.69644 12.5504 7.0002 12.5504H11.45V17.0002Z" fill="#333333"/>
</svg>
