<svg width="24" height="24" viewBox="0 0 24 24" fill="none" xmlns="http://www.w3.org/2000/svg">
<path d="M11.5497 14.9998C11.5497 15.2483 11.7512 15.4498 11.9997 15.4498C12.2483 15.4498 12.4497 15.2483 12.4497 14.9998V12.4499H14.9998C15.2483 12.4499 15.4498 12.2484 15.4498 11.9999C15.4498 11.7514 15.2483 11.5499 14.9998 11.5499H12.4497V8.9998C12.4497 8.75128 12.2483 8.5498 11.9997 8.5498C11.7512 8.5498 11.5497 8.75128 11.5497 8.9998V11.5499H8.9998C8.75128 11.5499 8.5498 11.7514 8.5498 11.9999C8.5498 12.2484 8.75128 12.4499 8.9998 12.4499H11.5497V14.9998Z" fill="#333333"/>
</svg>
