<svg width="24" height="24" viewBox="0 0 24 24" fill="none" xmlns="http://www.w3.org/2000/svg">
<path d="M11.4999 16C11.4999 16.2761 11.7237 16.5 11.9999 16.5C12.276 16.5 12.4999 16.2761 12.4999 16V12.5001H16C16.2761 12.5001 16.5 12.2763 16.5 12.0001C16.5 11.724 16.2761 11.5001 16 11.5001H12.4999V8C12.4999 7.72386 12.276 7.5 11.9999 7.5C11.7237 7.5 11.4999 7.72386 11.4999 8L11.4999 11.5001H8C7.72386 11.5001 7.5 11.724 7.5 12.0001C7.5 12.2763 7.72386 12.5001 8 12.5001H11.4999L11.4999 16Z" fill="#333333"/>
</svg>
