<svg width="24" height="24" viewBox="0 0 24 24" fill="none" xmlns="http://www.w3.org/2000/svg">
<path d="M6.68984 7.2H18.6898C19.0198 7.2 19.2898 6.93 19.2898 6.6C19.2898 6.27 19.0198 6 18.6898 6H6.68984C6.35984 6 6.08984 6.27 6.08984 6.6C6.08984 6.93 6.35984 7.2 6.68984 7.2Z" fill="#333333"/>
<path d="M18.6898 16.9102H6.68984C6.35984 16.9102 6.08984 17.1802 6.08984 17.5102C6.08984 17.8402 6.35984 18.1102 6.68984 18.1102H18.6898C19.0198 18.1102 19.2898 17.8402 19.2898 17.5102C19.2898 17.1802 19.0198 16.9102 18.6898 16.9102Z" fill="#333333"/>
<path d="M8.75 14.3499C8.98 14.5899 8.98 14.9699 8.75 15.1999H8.76C8.52 15.4299 8.14 15.4299 7.91 15.1999L5.18 12.4699C5.06 12.3599 5 12.1999 5 12.0499C5 11.8999 5.06 11.7499 5.18 11.6299L7.9 8.8999C8.14 8.6699 8.52 8.6599 8.75 8.8999C8.98 9.1399 8.98 9.5199 8.75 9.7499L7.05 11.4499H16.51C16.84 11.4499 17.11 11.7199 17.11 12.0499C17.11 12.3799 16.84 12.6499 16.51 12.6499H7.05L8.75 14.3499Z" fill="#333333"/>
</svg>
