<svg width="24" height="24" viewBox="0 0 24 24" fill="none" xmlns="http://www.w3.org/2000/svg">
<path d="M5.6 7.2H17.6C17.93 7.2 18.2 6.93 18.2 6.6C18.2 6.27 17.93 6 17.6 6H5.6C5.27 6 5 6.27 5 6.6C5 6.93 5.27 7.2 5.6 7.2Z" fill="#333333"/>
<path d="M19.1102 11.63L16.3802 8.90004C16.1502 8.67004 15.7702 8.67004 15.5302 8.90004C15.3002 9.13004 15.3002 9.51004 15.5302 9.75004L17.2302 11.45H7.78018C7.45018 11.45 7.18018 11.72 7.18018 12.05C7.18018 12.38 7.45018 12.65 7.78018 12.65H17.2402L15.5402 14.35C15.3102 14.58 15.3102 14.96 15.5402 15.2C15.7702 15.43 16.1502 15.43 16.3902 15.2L19.1202 12.47C19.2402 12.35 19.3002 12.2 19.3002 12.05C19.3002 11.9 19.2402 11.74 19.1202 11.63H19.1102Z" fill="#333333"/>
<path d="M5.6 16.9004H17.6C17.93 16.9004 18.2 17.1704 18.2 17.5004C18.2 17.8304 17.93 18.1004 17.6 18.1004H5.6C5.27 18.1004 5 17.8304 5 17.5004C5 17.1704 5.27 16.9004 5.6 16.9004Z" fill="#333333"/>
</svg>
