<svg width="24" height="24" viewBox="0 0 24 24" fill="none" xmlns="http://www.w3.org/2000/svg">
<path fill-rule="evenodd" clip-rule="evenodd" d="M12.5999 4.69766C12.5999 4.36629 12.3313 4.09766 11.9999 4.09766C11.6685 4.09766 11.3999 4.36629 11.3999 4.69766L11.3999 11.4893C11.3999 11.8207 11.6685 12.0893 11.9999 12.0893C12.3313 12.0893 12.5999 11.8207 12.5999 11.4893L12.5999 4.69766ZM16.8699 5.77589C16.6089 5.57171 16.2318 5.61777 16.0276 5.87876C15.8234 6.13976 15.8695 6.51685 16.1305 6.72103C17.225 7.57726 18.0262 8.75249 18.4235 10.0841C18.8207 11.4157 18.7942 12.8379 18.3477 14.1538C17.9011 15.4697 17.0566 16.6142 15.9311 17.4291C14.8055 18.244 13.4544 18.6889 12.0649 18.7022C10.6754 18.7155 9.31604 18.2966 8.17504 17.5035C7.03403 16.7103 6.16775 15.5822 5.69607 14.2751C5.2244 12.968 5.17065 11.5466 5.54226 10.2076C5.91387 8.86862 6.69247 7.67824 7.77032 6.80119C8.02735 6.59205 8.06617 6.21414 7.85702 5.95711C7.64788 5.70008 7.26997 5.66126 7.01294 5.8704C5.74211 6.90448 4.82411 8.30798 4.38596 9.8867C3.94782 11.4654 4.01119 13.1413 4.56732 14.6824C5.12344 16.2235 6.14482 17.5537 7.49011 18.4888C8.8354 19.424 10.4381 19.9179 12.0764 19.9021C13.7147 19.8864 15.3076 19.3619 16.6348 18.4011C17.9619 17.4404 18.9576 16.0909 19.484 14.5394C20.0105 12.9879 20.0417 11.3111 19.5734 9.74108C19.105 8.17106 18.1603 6.78541 16.8699 5.77589Z" fill="#333333"/>
</svg>
