<svg width="24" height="24" viewBox="0 0 24 24" fill="none" xmlns="http://www.w3.org/2000/svg">
<path d="M14.2997 10.2559C13.9683 10.2559 13.6997 10.5245 13.6997 10.8559C13.6997 11.1872 13.9683 11.4559 14.2997 11.4559H16.5004C16.8318 11.4559 17.1004 11.1872 17.1004 10.8559C17.1004 10.5245 16.8318 10.2559 16.5004 10.2559L14.2997 10.2559Z" fill="#333333"/>
<path fill-rule="evenodd" clip-rule="evenodd" d="M6.8999 6.00195V7.66016H6.60147C5.16553 7.66016 4.00146 8.82422 4.00146 10.2602V14.4943C4.00146 15.9302 5.16552 17.0943 6.60146 17.0943H6.8999V18.0008C6.8999 19.1054 7.79533 20.0008 8.8999 20.0008H15.0999C16.2045 20.0008 17.0999 19.1054 17.0999 18.0008V17.0943H17.3998C18.8357 17.0943 19.9998 15.9302 19.9998 14.4943V10.2602C19.9998 8.82422 18.8357 7.66016 17.3998 7.66016H17.0999V6.00195C17.0999 4.89738 16.2045 4.00195 15.0999 4.00195H8.8999C7.79533 4.00195 6.8999 4.89738 6.8999 6.00195ZM8.8999 5.20195C8.45807 5.20195 8.0999 5.56013 8.0999 6.00195V7.66016H15.8999V6.00195C15.8999 5.56013 15.5417 5.20195 15.0999 5.20195H8.8999ZM5.20146 10.2602C5.20146 9.48696 5.82827 8.86016 6.60147 8.86016H17.3998C18.173 8.86016 18.7998 9.48696 18.7998 10.2602V14.4943C18.7998 15.2675 18.173 15.8943 17.3998 15.8943H17.0999V14.8008C17.0999 13.6962 16.2045 12.8008 15.0999 12.8008H8.8999C7.79533 12.8008 6.8999 13.6962 6.8999 14.8008V15.8943H6.60146C5.82827 15.8943 5.20146 15.2675 5.20146 14.4943V10.2602ZM8.0999 14.8008C8.0999 14.359 8.45807 14.0008 8.8999 14.0008H15.0999C15.5417 14.0008 15.8999 14.359 15.8999 14.8008V18.0008C15.8999 18.4426 15.5417 18.8008 15.0999 18.8008H8.8999C8.45807 18.8008 8.0999 18.4426 8.0999 18.0008V14.8008Z" fill="#333333"/>
</svg>
