<svg width="24" height="24" viewBox="0 0 24 24" fill="none" xmlns="http://www.w3.org/2000/svg">
<path d="M17.2002 7.50035C17.2002 7.11035 16.8902 6.80035 16.5002 6.80035H13.2202V8.16035C13.2202 8.37035 12.9602 8.48035 12.8102 8.33035L10.8502 6.37035C10.7602 6.28035 10.7602 6.12035 10.8502 6.03035L12.8102 4.07035C12.9602 3.92035 13.2202 4.03035 13.2202 4.24035V5.60035H16.5002C17.5502 5.60035 18.4002 6.45035 18.4002 7.50035V8.68035C18.4002 9.01035 18.1302 9.28035 17.8002 9.28035C17.4702 9.28035 17.2002 9.01035 17.2002 8.68035V7.50035Z" fill="#333333"/>
<path d="M8.32986 11.1896L6.36986 13.1496C6.27986 13.2396 6.11986 13.2396 6.02986 13.1496L4.06986 11.1896C3.91986 11.0396 4.02986 10.7796 4.23986 10.7796H5.59986V7.49961C5.59986 6.44961 6.44986 5.59961 7.49986 5.59961H8.67986C9.00986 5.59961 9.27986 5.86961 9.27986 6.19961C9.27986 6.52961 9.00986 6.79961 8.67986 6.79961H7.49986C7.10986 6.79961 6.79986 7.10961 6.79986 7.49961V10.7796H8.15986C8.36986 10.7796 8.47986 11.0396 8.32986 11.1896Z" fill="#333333"/>
<path d="M19.9302 12.8097L17.9702 10.8497C17.8802 10.7597 17.7202 10.7597 17.6302 10.8497L15.6702 12.8097C15.5202 12.9597 15.6302 13.2197 15.8402 13.2197H17.2002V16.4997C17.2002 16.8897 16.8902 17.1997 16.5002 17.1997H15.3202C14.9902 17.1997 14.7202 17.4697 14.7202 17.7997C14.7202 18.1297 14.9902 18.3997 15.3202 18.3997H16.5002C17.5502 18.3997 18.4002 17.5497 18.4002 16.4997V13.2197H19.7602C19.9702 13.2197 20.0802 12.9597 19.9302 12.8097Z" fill="#333333"/>
<path d="M10.7801 15.8397C10.7801 15.6297 11.0401 15.5197 11.1901 15.6697L13.1501 17.6297C13.2401 17.7197 13.2401 17.8797 13.1501 17.9697L11.1901 19.9297C11.0401 20.0797 10.7801 19.9697 10.7801 19.7597V18.3997H7.5001C6.4501 18.3997 5.6001 17.5497 5.6001 16.4997V15.3197C5.6001 14.9897 5.8701 14.7197 6.2001 14.7197C6.5301 14.7197 6.8001 14.9897 6.8001 15.3197V16.4997C6.8001 16.8897 7.1101 17.1997 7.5001 17.1997H10.7801V15.8397Z" fill="#333333"/>
</svg>
