<svg width="24" height="24" viewBox="0 0 24 24" fill="none" xmlns="http://www.w3.org/2000/svg">
<path fill-rule="evenodd" clip-rule="evenodd" d="M8.95923 4.06187C9.23994 4.07142 9.47646 4.27441 9.52847 4.55042L12.0139 17.7398L14.9898 9.44054C15.0723 9.21046 15.2861 9.05342 15.5303 9.04354C15.7745 9.03367 16.0003 9.17292 16.1012 9.39559L18.009 13.6095H20.6436C20.975 13.6095 21.2436 13.8781 21.2436 14.2095C21.2436 14.5408 20.975 14.8095 20.6436 14.8095H17.622C17.3864 14.8095 17.1726 14.6716 17.0754 14.4569L15.6192 11.2405L12.398 20.2238C12.3066 20.4787 12.0558 20.6407 11.7859 20.6194C11.5159 20.598 11.2937 20.3985 11.2436 20.1323L8.84554 7.40646L7.03867 14.3603C6.96995 14.6248 6.73121 14.8095 6.45795 14.8095H3.35684C3.02547 14.8095 2.75684 14.5408 2.75684 14.2095C2.75684 13.8781 3.02547 13.6095 3.35684 13.6095H5.99393L8.35813 4.51064C8.42876 4.2388 8.67853 4.05233 8.95923 4.06187Z" fill="#333333"/>
</svg>
