<svg width="24" height="24" viewBox="0 0 24 24" fill="none" xmlns="http://www.w3.org/2000/svg">
<path fill-rule="evenodd" clip-rule="evenodd" d="M6.6001 5.09961C5.77167 5.09961 5.1001 5.77118 5.1001 6.59961V8.79961C5.1001 9.62804 5.77167 10.2996 6.6001 10.2996H8.8001C9.62852 10.2996 10.3001 9.62804 10.3001 8.79961V6.59961C10.3001 5.77118 9.62852 5.09961 8.8001 5.09961H6.6001ZM6.3001 6.59961C6.3001 6.43392 6.43441 6.29961 6.6001 6.29961H8.8001C8.96578 6.29961 9.1001 6.43392 9.1001 6.59961V8.79961C9.1001 8.96529 8.96578 9.09961 8.8001 9.09961H6.6001C6.43441 9.09961 6.3001 8.96529 6.3001 8.79961V6.59961Z" fill="#333333"/>
<path d="M11.4001 5.99961C11.4001 5.66824 11.6687 5.39961 12.0001 5.39961H12.0068C12.3381 5.39961 12.6068 5.66824 12.6068 5.99961C12.6068 6.33098 12.3381 6.59961 12.0068 6.59961H12.0001C11.6687 6.59961 11.4001 6.33098 11.4001 5.99961Z" fill="#333333"/>
<path d="M6.00009 11.3996C5.66871 11.3996 5.40009 11.6682 5.40009 11.9996C5.40009 12.331 5.66871 12.5996 6.00009 12.5996H6.00675C6.33812 12.5996 6.60675 12.331 6.60675 11.9996C6.60675 11.6682 6.33812 11.3996 6.00675 11.3996H6.00009Z" fill="#333333"/>
<path d="M18.6001 17.9996C18.6001 17.6682 18.3315 17.3996 18.0001 17.3996C17.6687 17.3996 17.4001 17.6682 17.4001 17.9996V18.0063C17.4001 18.3377 17.6687 18.6063 18.0001 18.6063C18.3315 18.6063 18.6001 18.3377 18.6001 18.0063V17.9996Z" fill="#333333"/>
<path d="M12.6001 14.6663C12.6001 14.3349 12.3315 14.0663 12.0001 14.0663C11.6687 14.0663 11.4001 14.3349 11.4001 14.6663V14.673C11.4001 15.0043 11.6687 15.273 12.0001 15.273C12.3315 15.273 12.6001 15.0043 12.6001 14.673V14.6663Z" fill="#333333"/>
<path d="M13.9001 11.9996C13.9001 11.6682 14.1687 11.3996 14.5001 11.3996H15.5001C15.8315 11.3996 16.1001 11.6682 16.1001 11.9996C16.1001 12.331 15.8315 12.5996 15.5001 12.5996H14.5001C14.1687 12.5996 13.9001 12.331 13.9001 11.9996Z" fill="#333333"/>
<path d="M18.6001 11.9996C18.6001 11.6682 18.3315 11.3996 18.0001 11.3996C17.6687 11.3996 17.4001 11.6682 17.4001 11.9996V12.0063C17.4001 12.3377 17.6687 12.6063 18.0001 12.6063C18.3315 12.6063 18.6001 12.3377 18.6001 12.0063V11.9996Z" fill="#333333"/>
<path d="M12.0001 16.3996C12.3315 16.3996 12.6001 16.6682 12.6001 16.9996V17.9996C12.6001 18.331 12.3315 18.5996 12.0001 18.5996C11.6687 18.5996 11.4001 18.331 11.4001 17.9996V16.9996C11.4001 16.6682 11.6687 16.3996 12.0001 16.3996Z" fill="#333333"/>
<path fill-rule="evenodd" clip-rule="evenodd" d="M6.6001 13.6996C5.77167 13.6996 5.1001 14.3712 5.1001 15.1996V17.3996C5.1001 18.228 5.77167 18.8996 6.6001 18.8996H8.8001C9.62852 18.8996 10.3001 18.228 10.3001 17.3996V15.1996C10.3001 14.3712 9.62852 13.6996 8.8001 13.6996H6.6001ZM6.3001 15.1996C6.3001 15.0339 6.43441 14.8996 6.6001 14.8996H8.8001C8.96578 14.8996 9.1001 15.0339 9.1001 15.1996V17.3996C9.1001 17.5653 8.96578 17.6996 8.8001 17.6996H6.6001C6.43441 17.6996 6.3001 17.5653 6.3001 17.3996V15.1996Z" fill="#333333"/>
<path d="M14.4001 16.2996C14.4001 14.8637 15.5641 13.6996 17.0001 13.6996H18.0001C18.3315 13.6996 18.6001 13.9682 18.6001 14.2996C18.6001 14.631 18.3315 14.8996 18.0001 14.8996H17.0001C16.2269 14.8996 15.6001 15.5264 15.6001 16.2996V17.2996C15.6001 17.631 15.3315 17.8996 15.0001 17.8996C14.6687 17.8996 14.4001 17.631 14.4001 17.2996V16.2996Z" fill="#333333"/>
<path d="M12.0001 8.39961C12.3315 8.39961 12.6001 8.66824 12.6001 8.99961V9.99961C12.6001 11.4356 11.436 12.5996 10.0001 12.5996H9.00009C8.66871 12.5996 8.40009 12.331 8.40009 11.9996C8.40009 11.6682 8.66871 11.3996 9.00009 11.3996H10.0001C10.7733 11.3996 11.4001 10.7728 11.4001 9.99961V8.99961C11.4001 8.66824 11.6687 8.39961 12.0001 8.39961Z" fill="#333333"/>
<path fill-rule="evenodd" clip-rule="evenodd" d="M15.2001 5.09961C14.3716 5.09961 13.7001 5.77118 13.7001 6.59961V8.79961C13.7001 9.62804 14.3716 10.2996 15.2001 10.2996H17.4001C18.2285 10.2996 18.9001 9.62804 18.9001 8.79961V6.59961C18.9001 5.77118 18.2285 5.09961 17.4001 5.09961H15.2001ZM14.9001 6.59961C14.9001 6.43392 15.0344 6.29961 15.2001 6.29961H17.4001C17.5658 6.29961 17.7001 6.43392 17.7001 6.59961V8.79961C17.7001 8.96529 17.5658 9.09961 17.4001 9.09961H15.2001C15.0344 9.09961 14.9001 8.96529 14.9001 8.79961V6.59961Z" fill="#333333"/>
</svg>
