<svg width="24" height="24" viewBox="0 0 24 24" fill="none" xmlns="http://www.w3.org/2000/svg">
<path fill-rule="evenodd" clip-rule="evenodd" d="M12.2644 10.4089C13.6012 10.4089 14.6848 9.32529 14.6848 7.98855C14.6848 6.65181 13.6012 5.56816 12.2644 5.56816C10.9277 5.56816 9.84404 6.65181 9.84404 7.98855C9.84404 9.32529 10.9277 10.4089 12.2644 10.4089ZM12.2644 11.6089C14.2639 11.6089 15.8848 9.98803 15.8848 7.98855C15.8848 5.98907 14.2639 4.36816 12.2644 4.36816C10.2649 4.36816 8.64404 5.98907 8.64404 7.98855C8.64404 9.98803 10.2649 11.6089 12.2644 11.6089Z" fill="#333333"/>
<path fill-rule="evenodd" clip-rule="evenodd" d="M7.98953 18.0281C9.32627 18.0281 10.4099 16.9444 10.4099 15.6077C10.4099 14.2709 9.32627 13.1873 7.98953 13.1873C6.65278 13.1873 5.56914 14.2709 5.56914 15.6077C5.56914 16.9444 6.65278 18.0281 7.98953 18.0281ZM7.98953 19.2281C9.98901 19.2281 11.6099 17.6072 11.6099 15.6077C11.6099 13.6082 9.98901 11.9873 7.98953 11.9873C5.99004 11.9873 4.36914 13.6082 4.36914 15.6077C4.36914 17.6072 5.99004 19.2281 7.98953 19.2281Z" fill="#333333"/>
<path fill-rule="evenodd" clip-rule="evenodd" d="M16.5393 18.0281C17.8761 18.0281 18.9597 16.9444 18.9597 15.6077C18.9597 14.2709 17.8761 13.1873 16.5393 13.1873C15.2026 13.1873 14.1189 14.2709 14.1189 15.6077C14.1189 16.9444 15.2026 18.0281 16.5393 18.0281ZM16.5393 19.2281C18.5388 19.2281 20.1597 17.6072 20.1597 15.6077C20.1597 13.6082 18.5388 11.9873 16.5393 11.9873C14.5398 11.9873 12.9189 13.6082 12.9189 15.6077C12.9189 17.6072 14.5398 19.2281 16.5393 19.2281Z" fill="#333333"/>
</svg>
