<svg width="24" height="24" viewBox="0 0 24 24" fill="none" xmlns="http://www.w3.org/2000/svg">
<path fill-rule="evenodd" clip-rule="evenodd" d="M12.0435 8.88945C11.1782 8.88945 10.7146 9.40474 10.5319 9.94723C10.4261 10.2613 10.0858 10.4301 9.77175 10.3243C9.45772 10.2185 9.2889 9.87819 9.39468 9.56415C9.70731 8.6361 10.5625 7.68945 12.0435 7.68945C12.5486 7.68945 13.1818 7.83839 13.7028 8.24791C14.2473 8.676 14.6198 9.35186 14.6198 10.2855C14.6198 11.3158 13.9121 11.9746 13.4265 12.4266C13.4141 12.4381 13.4018 12.4496 13.3897 12.4609C12.8193 12.9926 12.5413 13.2879 12.5413 13.6954C12.5413 14.0268 12.2727 14.2954 11.9413 14.2954C11.6099 14.2954 11.3413 14.0268 11.3413 13.6954C11.3413 12.7229 12.0297 12.0851 12.5005 11.649C12.5247 11.6265 12.5484 11.6046 12.5714 11.5831C13.1249 11.0671 13.4198 10.7431 13.4198 10.2855C13.4198 9.7048 13.2045 9.38265 12.9611 9.1913C12.6941 8.98139 12.3391 8.88945 12.0435 8.88945Z" fill="#333333"/>
<path fill-rule="evenodd" clip-rule="evenodd" d="M11.9999 15.0277C12.4141 15.0277 12.7499 15.3635 12.7499 15.7777L12.7499 15.8504C12.7499 16.2646 12.4141 16.6004 11.9999 16.6004C11.5857 16.6004 11.2499 16.2647 11.2499 15.8504L11.2499 15.7777C11.2499 15.3635 11.5857 15.0277 11.9999 15.0277Z" fill="#333333"/>
<path fill-rule="evenodd" clip-rule="evenodd" d="M11.9999 5.20195C8.24523 5.20195 5.20146 8.24572 5.20146 12.0004C5.20146 15.7551 8.24523 18.7988 11.9999 18.7988C15.7546 18.7988 18.7983 15.7551 18.7983 12.0004C18.7983 8.24572 15.7546 5.20195 11.9999 5.20195ZM4.00146 12.0004C4.00146 7.58298 7.58249 4.00195 11.9999 4.00195C16.4173 4.00195 19.9983 7.58298 19.9983 12.0004C19.9983 16.4178 16.4173 19.9988 11.9999 19.9988C7.58249 19.9988 4.00146 16.4178 4.00146 12.0004Z" fill="#333333"/>
</svg>
