<svg width="24" height="24" viewBox="0 0 24 24" fill="none" xmlns="http://www.w3.org/2000/svg">
<path d="M5.62547 19.8454C5.46547 19.8454 5.32547 19.7654 5.23547 19.6954C5.11547 19.5954 4.97546 19.4154 4.97546 19.0854V17.1754C4.97546 16.6654 5.26547 16.3154 5.72547 16.2954C6.08546 16.2754 6.35546 16.1854 6.58546 16.0254C6.87546 15.8154 7.10546 15.5354 7.28547 15.1754C7.55546 14.6554 7.67547 14.0654 7.74547 13.4954H6.25547C5.02547 13.4954 4.02546 12.5254 4.02546 11.3254V8.20539C4.01546 6.99539 5.01547 6.02539 6.24547 6.02539H9.28546C10.5155 6.02539 11.5155 6.99539 11.5155 8.19539V12.6954C11.5155 13.6654 11.4055 14.2554 11.1855 15.1454C10.9555 16.0354 10.5955 16.8354 10.1255 17.5154C9.63546 18.2154 9.00546 18.7754 8.24546 19.1954C7.46689 19.6279 6.52388 19.8454 5.63547 19.8454H5.62547ZM6.16547 17.4454V18.6054C6.72547 18.5454 7.22547 18.3954 7.66547 18.1454C8.26547 17.8154 8.75547 17.3754 9.14546 16.8254C9.53546 16.2654 9.83546 15.5954 10.0255 14.8454C10.2355 14.0254 10.3255 13.5454 10.3255 12.6954V8.19539C10.3255 7.66539 9.86547 7.22539 9.29546 7.22539H6.25547C5.68547 7.22539 5.22547 7.66539 5.22547 8.19539V11.3154C5.22547 11.8454 5.68547 12.2854 6.25547 12.2854H8.39546C8.56546 12.2854 8.72546 12.3554 8.83546 12.4754C8.94547 12.5954 9.00547 12.7654 8.99546 12.9254C8.93546 13.7954 8.82546 14.7954 8.34546 15.7154C8.07546 16.2254 7.72547 16.6554 7.29546 16.9754C6.97547 17.2154 6.60547 17.3654 6.17547 17.4454H6.16547Z" fill="#333333"/>
<path d="M14.0355 19.8454C13.8755 19.8454 13.7355 19.7654 13.6455 19.6954C13.5255 19.5954 13.3855 19.4154 13.3855 19.0854V17.1754C13.3855 16.6654 13.6755 16.3154 14.1355 16.2954C14.4955 16.2754 14.7755 16.1854 14.9955 16.0154C15.2855 15.8054 15.5055 15.5254 15.6955 15.1654C15.9655 14.6454 16.0855 14.0554 16.1555 13.4854H14.6655C13.4355 13.4854 12.4355 12.5154 12.4355 11.3154V8.19539C12.4355 6.99539 13.4355 6.02539 14.6655 6.02539H17.7055C18.9355 6.02539 19.9355 6.99539 19.9355 8.19539V12.6954C19.9355 13.6654 19.8255 14.2554 19.6055 15.1454C19.3755 16.0354 19.0255 16.8354 18.5455 17.5154C18.0555 18.2054 17.4255 18.7754 16.6655 19.1954C15.8869 19.6279 14.9439 19.8454 14.0555 19.8454H14.0355ZM14.5755 17.4454V18.6054C15.1255 18.5454 15.6355 18.3954 16.0655 18.1454C16.6655 17.8154 17.1655 17.3754 17.5455 16.8254C17.9355 16.2654 18.2355 15.5954 18.4255 14.8454C18.6355 14.0254 18.7255 13.5454 18.7255 12.6954V8.19539C18.7255 7.66539 18.2655 7.22539 17.6955 7.22539H14.6555C14.0855 7.22539 13.6255 7.66539 13.6255 8.19539V11.3154C13.6255 11.8454 14.0855 12.2854 14.6555 12.2854H16.7955C16.9655 12.2854 17.1255 12.3554 17.2355 12.4754C17.3455 12.5954 17.4055 12.7654 17.3955 12.9254C17.3355 13.7954 17.2255 14.7954 16.7455 15.7154C16.4755 16.2254 16.1255 16.6554 15.6955 16.9754C15.3755 17.2154 14.9955 17.3654 14.5755 17.4454Z" fill="#333333"/>
</svg>
