<svg width="24" height="24" viewBox="0 0 24 24" fill="none" xmlns="http://www.w3.org/2000/svg">
<path fill-rule="evenodd" clip-rule="evenodd" d="M18.4502 7.9L16.2502 9.44V8C16.2502 6.9 15.3502 6 14.2502 6H5.9502C4.8502 6.01 3.9502 6.91 3.9502 8.01V15.98C3.9502 17.08 4.8502 17.98 5.9502 17.98H14.2502C15.3502 17.98 16.2502 17.08 16.2502 15.98V14.53L18.4402 16.08C19.5702 16.88 21.1202 16.08 21.1202 14.69V9.29C21.1202 7.91 19.5702 7.11 18.4402 7.9H18.4502ZM15.0502 15.98C15.0502 16.42 14.6902 16.78 14.2502 16.78H5.9502C5.5102 16.78 5.1502 16.42 5.1502 15.98V8.01C5.1502 7.57 5.5102 7.21 5.9502 7.21H14.2502C14.6902 7.21 15.0502 7.57 15.0502 8.01V15.98ZM19.9302 14.69C19.9302 15.1 19.4702 15.33 19.1402 15.1L16.2602 13.07V10.91L19.1402 8.89C19.4702 8.66 19.9302 8.89 19.9302 9.3V14.7V14.69Z" fill="#333333"/>
</svg>
