<svg width="24" height="24" viewBox="0 0 24 24" fill="none" xmlns="http://www.w3.org/2000/svg">
<path d="M19.1772 8.45672C19.1772 8.6103 19.1186 8.76388 19.0014 8.88105L15.0806 12.8019C14.8463 13.0362 14.4664 13.0362 14.2321 12.8019C13.9978 12.5676 13.9978 12.1877 14.2321 11.9534L17.1279 9.05751H9.77154C7.46761 9.05751 5.5999 10.9252 5.5999 13.2291C5.5999 15.5331 7.46761 17.4008 9.77154 17.4008H12.0678C12.3992 17.4008 12.6678 17.6694 12.6678 18.0008C12.6678 18.3322 12.3992 18.6008 12.0678 18.6008H9.77154C6.80487 18.6008 4.3999 16.1958 4.3999 13.2291C4.3999 10.2625 6.80486 7.85751 9.77154 7.85751H17.1294L14.2102 4.93833C13.9759 4.70401 13.9759 4.32411 14.2102 4.0898C14.4446 3.85548 14.8245 3.85548 15.0588 4.0898L19.0014 8.03246C19.1011 8.13217 19.1584 8.25824 19.1733 8.38824C19.1759 8.41099 19.1772 8.43386 19.1772 8.45672Z" fill="#333333"/>
</svg>
