<svg width="24" height="24" viewBox="0 0 24 24" fill="none" xmlns="http://www.w3.org/2000/svg">
<path d="M10.0542 5.65C7.38422 6.41 5.90422 8.79 5.56422 11.7C5.52422 12.03 5.22422 12.27 4.89422 12.23C4.56422 12.19 4.32422 11.89 4.36422 11.56C4.74422 8.35 6.42422 5.43 9.72422 4.49C12.7142 3.64 15.9342 4.57 17.9042 6.86V4.6C17.9042 4.27 18.1742 4 18.5042 4C18.8342 4 19.1042 4.27 19.1042 4.6V8.31C19.1042 8.64 18.8342 8.91 18.5042 8.91H14.8042C14.4742 8.91 14.2042 8.64 14.2042 8.31C14.2042 7.98 14.4742 7.71 14.8042 7.71H17.0542C15.4042 5.74 12.6542 4.91 10.0542 5.65Z" fill="#333333"/>
<path d="M18.5942 12.2004C18.6342 11.8704 18.9342 11.6304 19.2642 11.6704H19.2542C19.5842 11.7104 19.8242 12.0104 19.7842 12.3404C19.4142 15.5504 17.7242 18.4704 14.4242 19.4004C11.4442 20.2504 8.2342 19.3304 6.2542 17.0604V19.3104C6.2542 19.6404 5.9842 19.9104 5.6542 19.9104C5.3242 19.9104 5.0542 19.6404 5.0542 19.3104V15.6104C5.0542 15.2804 5.3242 15.0104 5.6542 15.0104H9.3542C9.6842 15.0104 9.9542 15.2804 9.9542 15.6104C9.9542 15.9404 9.6842 16.2104 9.3542 16.2104H7.1042C8.7542 18.1604 11.5042 18.9804 14.0942 18.2504C16.7742 17.4904 18.2542 15.1104 18.5942 12.2004Z" fill="#333333"/>
</svg>
