<svg width="24" height="24" viewBox="0 0 24 24" fill="none" xmlns="http://www.w3.org/2000/svg">
<path fill-rule="evenodd" clip-rule="evenodd" d="M6 4C4.89543 4 4 4.89543 4 6V10C4 11.1046 4.89543 12 6 12L7.39999 12V14.6667C7.39999 15.1794 7.60368 15.6712 7.96625 16.0337C8.32882 16.3963 8.82058 16.6 9.33333 16.6H12L12 18C12 19.1046 12.8954 20 14 20H18C19.1046 20 20 19.1046 20 18V14C20 12.8954 19.1046 12 18 12H14C12.8954 12 12 12.8954 12 14L12 15.4H9.33333C9.13884 15.4 8.95231 15.3227 8.81478 15.1852C8.67726 15.0477 8.59999 14.8612 8.59999 14.6667V12L10 12C11.1046 12 12 11.1046 12 10V6C12 4.89543 11.1046 4 10 4H6ZM10 5.2H6C5.55817 5.2 5.2 5.55817 5.2 6V10C5.2 10.4418 5.55817 10.8 6 10.8H10C10.4418 10.8 10.8 10.4418 10.8 10V6C10.8 5.55817 10.4418 5.2 10 5.2ZM18 13.2H14C13.5582 13.2 13.2 13.5582 13.2 14V18C13.2 18.4418 13.5582 18.8 14 18.8H18C18.4418 18.8 18.8 18.4418 18.8 18V14C18.8 13.5582 18.4418 13.2 18 13.2Z" fill="#333333"/>
</svg>
