<svg width="24" height="24" viewBox="0 0 24 24" fill="none" xmlns="http://www.w3.org/2000/svg">
<path fill-rule="evenodd" clip-rule="evenodd" d="M11.2326 4.74196C10.9428 4.83806 10.7268 4.95351 10.6244 5.02889C9.71858 5.69567 9.29094 7.11665 9.59763 8.51385C9.89466 9.86699 10.7584 10.7376 11.9919 10.7376C12.7709 10.7376 13.348 10.4036 13.7673 9.86575C14.2082 9.30013 14.4775 8.4931 14.498 7.63979C14.5184 6.78542 14.2874 6.00186 13.875 5.46178C13.4907 4.95859 12.9042 4.59941 11.992 4.59941C11.7919 4.59941 11.5186 4.64716 11.2326 4.74196ZM9.91298 4.06249C7.11972 6.1187 8.04674 11.9376 11.9919 11.9376C16.7284 11.9376 17.1373 3.39941 11.992 3.39941C11.2683 3.39941 10.3768 3.72106 9.91298 4.06249ZM6.13226 18.2998C6.24375 17.2699 6.65197 16.234 7.49198 15.4436C8.36766 14.6196 9.77918 13.9998 12.0001 13.9998C12.5336 13.9998 13.0205 14.0357 13.4642 14.1015C13.792 14.15 14.0971 13.9237 14.1457 13.5959C14.1943 13.2681 13.9679 12.963 13.6401 12.9144C13.1332 12.8393 12.5873 12.7998 12.0001 12.7998C9.55017 12.7998 7.81806 13.489 6.66963 14.5696C5.52605 15.6457 5.02755 17.0477 4.92209 18.3521C4.86896 19.0092 5.40698 19.4998 6.00005 19.4998H15.002C15.3334 19.4998 15.602 19.2312 15.602 18.8998C15.602 18.5684 15.3334 18.2998 15.002 18.2998H6.13226ZM15.2343 15.1895C14.9029 15.1895 14.6343 15.4581 14.6343 15.7895C14.6343 16.1208 14.9029 16.3895 15.2343 16.3895L19.4999 16.3895C19.8313 16.3895 20.0999 16.1208 20.0999 15.7895C20.0999 15.4581 19.8313 15.1895 19.4999 15.1895H15.2343Z" fill="#333333"/>
</svg>
