<svg width="24" height="24" viewBox="0 0 24 24" fill="none" xmlns="http://www.w3.org/2000/svg">
<path d="M15.9673 4.23579C15.7327 4.46982 15.7322 4.84972 15.9663 5.08431L17.6205 6.74244L6.93155 6.74241C5.49561 6.74241 4.33154 7.90647 4.33154 9.34241V10.568C4.33154 10.8993 4.60017 11.168 4.93154 11.168C5.26291 11.168 5.53154 10.8993 5.53154 10.568L5.53154 9.34241C5.53154 8.56921 6.15835 7.94241 6.93155 7.94241L17.6221 7.94244L15.9663 9.60214C15.7322 9.83673 15.7327 10.2166 15.9673 10.4507C16.2018 10.6847 16.5817 10.6843 16.8158 10.4497L19.4847 7.77444L19.4912 7.76805C19.6087 7.65084 19.6675 7.49704 19.6675 7.34323C19.6675 7.18942 19.6087 7.03562 19.4912 6.9184L19.4847 6.91202L16.8158 4.23678C16.5817 4.00219 16.2018 4.00175 15.9673 4.23579Z" fill="#333333"/>
<path d="M19.2212 13.434C19.2212 13.1026 18.9526 12.834 18.6212 12.834C18.2898 12.834 18.0212 13.1026 18.0212 13.434L18.0212 14.7578C18.0212 15.531 17.3944 16.1578 16.6212 16.1578L6.3782 16.1578L8.03276 14.4994C8.2668 14.2648 8.26636 13.8849 8.03177 13.6508C7.79718 13.4168 7.41728 13.4172 7.18324 13.6518L4.51429 16.327C4.5121 16.3292 4.50993 16.3313 4.50778 16.3334C4.39029 16.4507 4.33153 16.6045 4.33154 16.7583C4.33153 16.9121 4.39029 17.0659 4.50778 17.1831C4.50993 17.1852 4.51209 17.1874 4.51426 17.1895L7.18324 19.8647C7.41728 20.0993 7.79718 20.0998 8.03177 19.8657C8.26636 19.6317 8.2668 19.2518 8.03276 19.0172L6.37728 17.3578L16.6212 17.3578C18.0571 17.3578 19.2212 16.1938 19.2212 14.7578L19.2212 13.434Z" fill="#333333"/>
</svg>
