<svg width="24" height="24" viewBox="0 0 24 24" fill="none" xmlns="http://www.w3.org/2000/svg">
<path fill-rule="evenodd" clip-rule="evenodd" d="M7.79557 5.88945H16.2575C17.1301 5.88945 17.8375 6.59684 17.8375 7.46945V10.9289L16.38 9.67966C16.1284 9.46401 15.7496 9.49314 15.534 9.74474C15.3183 9.99633 15.3474 10.3751 15.599 10.5908L18.1402 12.7689C18.3677 12.9639 18.7043 12.9611 18.9286 12.7623L21.3862 10.5842C21.6342 10.3645 21.657 9.98524 21.4372 9.73725C21.2174 9.48926 20.8382 9.4664 20.5902 9.68619L19.0375 11.0624V7.46945C19.0375 5.9341 17.7928 4.68945 16.2575 4.68945H7.79557C6.26022 4.68945 5.01557 5.9341 5.01557 7.46945V8.93643C5.01557 9.21191 5.20315 9.45199 5.47045 9.51862C5.84904 9.61299 6.21557 9.3266 6.21557 8.93643V7.46945C6.21557 6.59684 6.92296 5.88945 7.79557 5.88945ZM5.01557 13.0575L3.5136 14.3887C3.26561 14.6084 2.8864 14.5856 2.66661 14.3376C2.44682 14.0896 2.46968 13.7104 2.71767 13.4906L5.17523 11.3125C5.39953 11.1137 5.73612 11.1109 5.96367 11.306L8.5048 13.4841C8.75639 13.6997 8.78553 14.0785 8.56988 14.3301C8.35422 14.5817 7.97544 14.6108 7.72385 14.3952L6.21557 13.1024V16.5573C6.21557 17.4299 6.92296 18.1373 7.79557 18.1373H16.2575C17.1301 18.1373 17.8375 17.4299 17.8375 16.5573V15.1433C17.8375 14.7531 18.204 14.4668 18.5826 14.5611C18.8499 14.6278 19.0375 14.8678 19.0375 15.1433V16.5573C19.0375 18.0926 17.7928 19.3373 16.2575 19.3373H7.79557C6.26022 19.3373 5.01557 18.0926 5.01557 16.5573V13.0575Z" fill="#333333"/>
</svg>
