<svg width="24" height="24" viewBox="0 0 24 24" fill="none" xmlns="http://www.w3.org/2000/svg">
<path d="M10.4242 5.92465C10.6585 5.69034 10.6585 5.31044 10.4242 5.07613C10.1899 4.84181 9.80995 4.84181 9.57564 5.07613L4.57564 10.0761C4.34132 10.3104 4.34132 10.6903 4.57564 10.9247L9.57564 15.9247C9.80995 16.159 10.1899 16.159 10.4242 15.9247C10.6585 15.6903 10.6585 15.3104 10.4242 15.0761L6.44843 11.1004H15.1666C15.8473 11.1004 16.5002 11.3708 16.9815 11.8521C17.4628 12.3335 17.7333 12.9863 17.7333 13.6671V17.5004C17.7333 17.8318 18.0019 18.1004 18.3333 18.1004C18.6646 18.1004 18.9333 17.8318 18.9333 17.5004V13.6671C18.9333 12.6681 18.5364 11.71 17.83 11.0036C17.1236 10.2972 16.1656 9.90039 15.1666 9.90039H6.44843L10.4242 5.92465Z" fill="#333333"/>
</svg>
