<svg width="24" height="24" viewBox="0 0 24 24" fill="none" xmlns="http://www.w3.org/2000/svg">
<path d="M8.10956 6.78494C9.16565 6.06958 10.4064 5.68828 11.6749 5.68828C13.4774 5.68828 15.2076 6.41272 16.5116 7.68151L17.4218 8.6042H14.9984C14.6671 8.6042 14.3984 8.87283 14.3984 9.2042C14.3984 9.53557 14.6671 9.8042 14.9984 9.8042H18.7707C19.102 9.8042 19.3707 9.53557 19.3707 9.2042V5.26797C19.3707 4.9366 19.102 4.66797 18.7707 4.66797C18.4393 4.66797 18.1707 4.9366 18.1707 5.26797V7.65461L17.3617 6.8345L17.3533 6.82616C15.8329 5.34447 13.8035 4.48828 11.6749 4.48828C10.1654 4.48828 8.6904 4.94212 7.43658 5.79142C6.18285 6.64065 5.20692 7.84683 4.63094 9.25649C4.05499 10.6661 3.90442 12.2167 4.19794 13.7126C4.49146 15.2085 5.21616 16.5837 6.28165 17.6639C7.34723 18.7441 8.70586 19.4807 10.1862 19.7792C10.511 19.8447 10.8274 19.6345 10.8929 19.3096C10.9584 18.9848 10.7482 18.6684 10.4234 18.6029C9.17899 18.3519 8.03479 17.7323 7.13595 16.8211C6.23703 15.9098 5.62394 14.7478 5.37548 13.4815C5.12701 12.2152 5.25461 10.9027 5.74179 9.71038C6.22895 8.5181 7.05338 7.50037 8.10956 6.78494Z" fill="#333333"/>
</svg>
