<svg width="24" height="24" viewBox="0 0 24 24" fill="none" xmlns="http://www.w3.org/2000/svg">
<path fill-rule="evenodd" clip-rule="evenodd" d="M16.898 8.07295L17.998 5.60295C18.128 5.30295 17.998 4.94295 17.698 4.81295C17.398 4.68295 17.038 4.81295 16.908 5.11295L15.898 7.37295C14.708 6.67295 13.328 6.39295 12.028 6.40295C10.608 6.42295 9.22798 6.78295 8.25798 7.34295L7.07798 5.20295C6.91798 4.91295 6.55798 4.80295 6.26798 4.96295C5.97798 5.12295 5.86798 5.48295 6.02798 5.77295L7.25798 8.01295C5.12798 9.65295 3.95798 12.093 3.90798 14.993C3.88798 16.133 4.10798 17.013 4.62798 17.643C5.14798 18.273 5.88798 18.543 6.66798 18.653C7.43798 18.763 8.32798 18.723 9.24798 18.653C9.39798 18.653 9.55798 18.633 9.71798 18.623C10.508 18.573 11.328 18.513 12.178 18.513C13.028 18.513 13.838 18.583 14.628 18.653C14.768 18.663 14.898 18.673 15.038 18.683C15.928 18.753 16.798 18.813 17.558 18.713C18.328 18.613 19.048 18.343 19.558 17.683C20.058 17.043 20.258 16.153 20.238 14.983C20.188 11.973 18.678 9.55295 16.898 8.06295V8.07295ZM18.608 16.953C18.368 17.263 17.988 17.453 17.398 17.523C16.788 17.603 16.038 17.563 15.138 17.493C15.008 17.483 14.878 17.473 14.738 17.463C13.948 17.393 13.088 17.323 12.188 17.323C11.288 17.323 10.418 17.383 9.62798 17.433C9.47798 17.443 9.31798 17.453 9.17798 17.463C8.24798 17.523 7.47798 17.553 6.83798 17.463C6.20798 17.373 5.81798 17.183 5.55798 16.873C5.29798 16.553 5.09798 16.003 5.11798 15.013C5.16798 12.083 6.48798 9.77295 8.84798 8.40295C9.60798 7.96295 10.788 7.63295 12.048 7.61295C13.308 7.59295 14.588 7.88295 15.608 8.58295C17.378 9.81295 18.998 12.103 19.048 15.013C19.068 16.053 18.878 16.623 18.618 16.953H18.608Z" fill="#333333"/>
<path fill-rule="evenodd" clip-rule="evenodd" d="M15.918 10.423C14.908 9.80295 13.548 9.43295 12.078 9.43295C10.608 9.43295 9.24798 9.80295 8.23798 10.423C7.23798 11.043 6.50798 11.973 6.50798 13.083C6.50798 13.653 6.69798 14.113 7.10798 14.443C7.47798 14.743 7.97798 14.863 8.45798 14.923C8.95798 14.983 9.52798 14.983 10.128 14.973C10.318 14.973 10.518 14.973 10.708 14.963C11.148 14.953 11.598 14.943 12.068 14.943C12.538 14.943 12.998 14.953 13.428 14.963C13.628 14.963 13.818 14.973 14.008 14.973C14.608 14.983 15.188 14.983 15.688 14.923C16.178 14.863 16.668 14.743 17.038 14.443C17.448 14.123 17.638 13.653 17.638 13.083C17.638 11.963 16.908 11.033 15.908 10.423H15.918ZM16.368 13.583C16.238 13.693 15.988 13.783 15.568 13.833C15.158 13.883 14.648 13.883 14.048 13.873C13.868 13.873 13.688 13.873 13.488 13.863C13.048 13.853 12.568 13.833 12.078 13.833C11.588 13.833 11.118 13.843 10.668 13.853C10.478 13.853 10.288 13.863 10.108 13.863C9.50798 13.873 8.99798 13.873 8.58798 13.823C8.16798 13.773 7.91798 13.683 7.78798 13.573C7.68798 13.493 7.59798 13.373 7.59798 13.083C7.59798 12.483 7.98798 11.863 8.80798 11.353C9.61798 10.853 10.768 10.523 12.068 10.523C13.368 10.523 14.528 10.853 15.338 11.353C16.158 11.863 16.548 12.483 16.548 13.083C16.548 13.373 16.458 13.503 16.358 13.583H16.368Z" fill="#333333"/>
<path fill-rule="evenodd" clip-rule="evenodd" d="M9.82798 11.473C9.35798 11.473 8.96798 11.853 8.96798 12.333C8.96798 12.813 9.34798 13.193 9.82798 13.193C10.308 13.193 10.688 12.813 10.688 12.333C10.688 11.853 10.308 11.473 9.82798 11.473Z" fill="#333333"/>
<path fill-rule="evenodd" clip-rule="evenodd" d="M14.118 11.473C13.648 11.473 13.258 11.853 13.258 12.333C13.258 12.813 13.638 13.193 14.118 13.193C14.598 13.193 14.978 12.813 14.978 12.333C14.978 11.853 14.598 11.473 14.118 11.473Z" fill="#333333"/>
</svg>
