<svg width="24" height="24" viewBox="0 0 24 24" fill="none" xmlns="http://www.w3.org/2000/svg">
<path fill-rule="evenodd" clip-rule="evenodd" d="M16.2767 9.68868C16.2767 10.8181 15.3611 11.7337 14.2317 11.7337C13.1023 11.7337 12.1867 10.8181 12.1867 9.68868C12.1867 8.55927 13.1023 7.64371 14.2317 7.64371C15.3611 7.64371 16.2767 8.55927 16.2767 9.68868ZM15.0767 9.68868C15.0767 10.1553 14.6984 10.5337 14.2317 10.5337C13.765 10.5337 13.3867 10.1553 13.3867 9.68868C13.3867 9.22202 13.765 8.84371 14.2317 8.84371C14.6984 8.84371 15.0767 9.22202 15.0767 9.68868Z" fill="#333333"/>
<path fill-rule="evenodd" clip-rule="evenodd" d="M18.2244 4.55504C18.8471 4.53937 19.3396 5.04672 19.3355 5.65146C19.3246 7.25982 19.2373 8.8836 18.5102 10.5086C18.0489 11.5396 17.3425 12.5456 16.2786 13.5472C16.286 13.5624 16.2936 13.5782 16.3014 13.5946C16.3875 13.7756 16.4953 14.0319 16.5788 14.3301C16.7389 14.9012 16.8466 15.7628 16.3517 16.5113C15.8987 17.1941 14.7157 18.5139 14.0187 19.2757C13.4361 19.9125 12.3978 19.653 12.1611 18.8395L11.5666 16.7958C11.4162 16.8811 11.2596 16.9684 11.0943 17.059C10.666 17.2937 10.1379 17.2145 9.79528 16.8745L6.78505 13.8868C6.47894 13.583 6.36164 13.1044 6.55748 12.677C6.63291 12.5124 6.71202 12.3586 6.79388 12.2133L5.01828 11.6967C4.20475 11.4601 3.94526 10.4218 4.58209 9.83917C5.34391 9.14223 6.66288 7.95967 7.34566 7.50669C8.09417 7.01182 8.95656 7.11903 9.5277 7.27905C9.82587 7.36259 10.0822 7.47039 10.2632 7.55647C10.2876 7.56808 10.3108 7.57935 10.3326 7.59019C12.4403 5.59583 15.1322 4.63289 18.2244 4.55504ZM9.45798 8.51755C9.3789 8.48813 9.29354 8.45965 9.20397 8.43456C8.74858 8.30697 8.31892 8.30201 8.00863 8.50693C7.45534 8.87413 6.32192 9.8776 5.53235 10.5965L7.50287 11.1698C7.57393 11.0775 7.64425 10.9877 7.71411 10.8985C7.96444 10.5786 8.20896 10.2662 8.4609 9.87929C8.7722 9.38976 9.10493 8.93614 9.45798 8.51755ZM12.6335 16.167L13.2613 18.3254C13.9804 17.5357 14.9841 16.4021 15.3511 15.8489C15.5559 15.5386 15.5509 15.1091 15.4233 14.6538C15.3945 14.551 15.3613 14.4537 15.3272 14.3652C14.9305 14.6785 14.4957 14.992 14.0194 15.3063L14.0059 15.3149C13.8585 15.4067 13.7177 15.4945 13.5818 15.5793C13.2458 15.7891 12.9391 15.9805 12.6335 16.167ZM18.1346 5.75817C14.4374 5.88122 11.4744 7.37499 9.47188 10.5258L9.46845 10.5312C9.18445 10.9677 8.89752 11.3339 8.64164 11.6607C8.57051 11.7515 8.50177 11.8392 8.43616 11.9246C8.1477 12.2999 7.8995 12.6525 7.68807 13.0924L10.5864 15.9689C11.4756 15.4793 12.1039 15.0872 12.9441 14.5628C13.0784 14.479 13.2181 14.3918 13.3651 14.3003C15.638 12.7994 16.8013 11.3898 17.4149 10.0185C18.0184 8.6696 18.12 7.29601 18.1346 5.75817Z" fill="#333333"/>
<path d="M6.80684 15.0066C6.52872 14.7302 6.06111 14.8134 5.93027 15.1831C5.75318 15.6834 5.62664 16.2026 5.56355 16.7275C5.5322 16.9883 5.52414 17.198 5.52437 17.3467C5.52448 17.4211 5.52666 17.4803 5.52905 17.523C5.53025 17.5444 5.53149 17.5617 5.53255 17.5747L5.53398 17.5911L5.53454 17.5968L5.53477 17.5991C5.56145 17.8498 5.7556 18.0519 6.0053 18.0866L6.00716 18.0869L6.00946 18.0872L6.01539 18.088L6.03244 18.09C6.0461 18.0916 6.0643 18.0935 6.08684 18.0954C6.1319 18.0994 6.19437 18.1036 6.27259 18.1061C6.42894 18.1109 6.64871 18.1085 6.91837 18.0816C7.45548 18.0279 7.9865 17.9007 8.49381 17.7121C8.85646 17.5772 8.92948 17.116 8.65503 16.8433C8.49038 16.6797 8.24362 16.6351 8.02474 16.7124C7.54694 16.8811 7.12886 16.957 6.80914 16.989C6.74865 16.995 6.69172 16.9995 6.6386 17.0027C6.64264 16.9575 6.64763 16.9094 6.65374 16.8585C6.69167 16.543 6.77296 16.1213 6.94276 15.6226C7.01606 15.4074 6.96814 15.1669 6.80684 15.0066Z" fill="#333333"/>
</svg>
