<svg width="24" height="24" viewBox="0 0 24 24" fill="none" xmlns="http://www.w3.org/2000/svg">
<path fill-rule="evenodd" clip-rule="evenodd" d="M14.1651 10.1692L12.9819 12.5785L15.2314 13.9956C15.5867 14.2194 15.7253 14.6691 15.5577 15.0541L13.8699 18.9302C13.6825 19.3606 13.1817 19.5576 12.7513 19.3702C12.3209 19.1828 12.1239 18.682 12.3113 18.2515L13.7076 15.0448L11.4288 13.6093C11.3898 13.5847 11.3535 13.5575 11.3198 13.5279L9.81161 16.4364C9.62319 16.7998 9.20257 16.9773 8.81081 16.8587L5.53821 15.8683C5.08889 15.7323 4.83489 15.2578 4.97087 14.8085C5.10685 14.3592 5.58133 14.1052 6.03065 14.2411L8.62747 15.0271L11.7908 8.92687L11.7977 8.91382L9.6339 9.29705L8.4488 10.556C8.12703 10.8978 7.58908 10.914 7.24726 10.5923C6.90545 10.2705 6.8892 9.73254 7.21097 9.39073L8.58924 7.92661C8.71467 7.79337 8.87974 7.70417 9.05992 7.67226L11.859 7.1765C12.034 7.1455 12.2144 7.17016 12.3747 7.24703L15.0949 8.55138C15.2816 8.64089 15.4292 8.79544 15.51 8.98604L16.2253 10.6735L17.7199 10.1517C18.1631 9.99695 18.6479 10.2308 18.8026 10.674C18.9573 11.1172 18.7235 11.6019 18.2803 11.7567L16.0338 12.541C15.6108 12.6886 15.1459 12.4827 14.971 12.0702L14.1651 10.1692ZM16.5247 13.6406C16.8661 14.1963 16.9332 14.9009 16.6579 15.5332L14.9702 19.4093C14.5182 20.4473 13.3103 20.9224 12.2722 20.4704C11.2342 20.0184 10.7591 18.8105 11.2111 17.7725L12.1959 15.5108L11.7794 15.2484L10.8769 16.9888C10.4225 17.8652 9.40803 18.2932 8.46321 18.0072L5.19061 17.0168C4.10697 16.6889 3.49436 15.5445 3.82232 14.4609C4.15028 13.3772 5.2946 12.7646 6.37825 13.0926L8.02104 13.5898L9.03686 11.6308C8.25551 12.2012 7.15469 12.1532 6.42474 11.466C5.60036 10.69 5.56118 9.39258 6.33722 8.5682L7.71549 7.10408C8.01798 6.78275 8.41609 6.56761 8.85063 6.49065L11.6497 5.99489C11.9657 5.93892 12.2889 5.95818 12.5937 6.04916C12.5845 5.96083 12.5798 5.87118 12.5798 5.78044C12.5798 4.36026 13.7311 3.20898 15.1513 3.20898C16.5714 3.20898 17.7227 4.36026 17.7227 5.78044C17.7227 6.76971 17.1641 7.62851 16.345 8.05858C16.4537 8.19818 16.5447 8.3523 16.6148 8.51766L16.8913 9.16994L17.3244 9.01874C18.3933 8.64556 19.5624 9.20957 19.9355 10.2785C20.3087 11.3474 19.7447 12.5164 18.6758 12.8896L16.5247 13.6406ZM14.9062 7.13005C14.6592 7.08549 14.4351 6.97477 14.2531 6.81691C13.9632 6.56545 13.7798 6.19436 13.7798 5.78044C13.7798 5.023 14.3938 4.40898 15.1513 4.40898C15.9087 4.40898 16.5227 5.023 16.5227 5.78044C16.5227 6.53787 15.9087 7.15189 15.1513 7.15189C15.0676 7.15189 14.9857 7.1444 14.9062 7.13005Z" fill="#333333"/>
</svg>
