<svg width="24" height="24" viewBox="0 0 24 24" fill="none" xmlns="http://www.w3.org/2000/svg">
<path d="M9.82824 15.2033C9.58253 15.4256 9.2031 15.4067 8.98077 15.1609C8.75845 14.9152 8.77741 14.5358 9.02313 14.3135C9.56632 13.822 10.595 13.1066 12.0003 13.1066C13.4056 13.1066 14.4343 13.822 14.9775 14.3135C15.2232 14.5358 15.2422 14.9152 15.0198 15.1609C14.7975 15.4067 14.4181 15.4256 14.1724 15.2033C13.7386 14.8108 12.9861 14.3066 12.0003 14.3066C11.0145 14.3066 10.262 14.8108 9.82824 15.2033Z" fill="#333333"/>
<path d="M9.74512 9.34961C10.1593 9.34961 10.4951 9.6854 10.4951 10.0996V10.5314C10.4951 10.9456 10.1593 11.2814 9.74512 11.2814C9.3309 11.2814 8.99512 10.9456 8.99512 10.5314V10.0996C8.99512 9.6854 9.3309 9.34961 9.74512 9.34961Z" fill="#333333"/>
<path d="M15.0039 10.0996C15.0039 9.6854 14.6681 9.34961 14.2539 9.34961C13.8397 9.34961 13.5039 9.6854 13.5039 10.0996V10.5314C13.5039 10.9456 13.8397 11.2814 14.2539 11.2814C14.6681 11.2814 15.0039 10.9456 15.0039 10.5314V10.0996Z" fill="#333333"/>
<path fill-rule="evenodd" clip-rule="evenodd" d="M11.9998 4.00293C7.5827 4.00293 4.00195 7.58368 4.00195 12.0008C4.00195 16.4178 7.5827 19.9986 11.9998 19.9986C16.4169 19.9986 19.9976 16.4178 19.9976 12.0008C19.9976 7.58368 16.4169 4.00293 11.9998 4.00293ZM5.20195 12.0008C5.20195 8.24642 8.24544 5.20293 11.9998 5.20293C15.7541 5.20293 18.7976 8.24642 18.7976 12.0008C18.7976 15.7551 15.7541 18.7986 11.9998 18.7986C8.24544 18.7986 5.20195 15.7551 5.20195 12.0008Z" fill="#333333"/>
</svg>
