<svg width="24" height="24" viewBox="0 0 24 24" fill="none" xmlns="http://www.w3.org/2000/svg">
<path fill-rule="evenodd" clip-rule="evenodd" d="M4.93652 6.59023C4.93652 5.70658 5.65287 4.99023 6.53652 4.99023H12.1241C12.5484 4.99023 12.9554 5.1588 13.2554 5.45886L19.4672 11.6706C20.3596 12.5631 20.3596 14.0212 19.4672 14.9137L14.86 19.5209C13.9675 20.4134 12.5094 20.4134 11.6169 19.5209L5.40515 13.3091C5.10509 13.0091 4.93652 12.6021 4.93652 12.1778V6.59023ZM6.53652 6.19023C6.31561 6.19023 6.13652 6.36932 6.13652 6.59023V12.1778C6.13652 12.2839 6.17867 12.3856 6.25368 12.4606L12.4654 18.6723C12.8893 19.0962 13.5876 19.0962 14.0115 18.6723L18.6186 14.0652C19.0425 13.6413 19.0425 12.943 18.6186 12.5191L12.4069 6.30739C12.3319 6.23238 12.2301 6.19023 12.1241 6.19023H6.53652Z" fill="#333333"/>
<path d="M9.18657 10.5902C9.93216 10.5902 10.5366 9.98582 10.5366 9.24023C10.5366 8.49465 9.93216 7.89023 9.18657 7.89023C8.44099 7.89023 7.83657 8.49465 7.83657 9.24023C7.83657 9.98582 8.44099 10.5902 9.18657 10.5902Z" fill="#333333"/>
</svg>
