<svg width="24" height="24" viewBox="0 0 24 24" fill="none" xmlns="http://www.w3.org/2000/svg">
<path fill-rule="evenodd" clip-rule="evenodd" d="M7.4 19C7.4 18.6686 7.66863 18.4 8 18.4H16C16.3314 18.4 16.6 18.6686 16.6 19C16.6 19.3314 16.3314 19.6 16 19.6H8C7.66863 19.6 7.4 19.3314 7.4 19Z" fill="#333333"/>
<path fill-rule="evenodd" clip-rule="evenodd" d="M18 6.2H6C5.55817 6.2 5.2 6.55817 5.2 7V15C5.2 15.4418 5.55817 15.8 6 15.8H18C18.4418 15.8 18.8 15.4418 18.8 15V7C18.8 6.55817 18.4418 6.2 18 6.2ZM6 5C4.89543 5 4 5.89543 4 7V15C4 16.1046 4.89543 17 6 17H18C19.1046 17 20 16.1046 20 15V7C20 5.89543 19.1046 5 18 5H6Z" fill="#333333"/>
</svg>
