<svg width="24" height="24" viewBox="0 0 24 24" fill="none" xmlns="http://www.w3.org/2000/svg">
<path d="M11.4999 5.40211C14.8699 5.40211 17.5999 8.13211 17.5999 11.5021H17.5899C17.5899 14.5721 15.3299 17.0921 12.3899 17.5321C12.3465 17.5408 12.3012 17.5513 12.2549 17.5622C12.1944 17.5763 12.1322 17.5908 12.0699 17.6021H5.0199C4.6799 17.6021 4.3999 17.3321 4.3999 17.0021C4.3999 16.6721 4.6799 16.4021 5.0199 16.4021H11.4999C14.2099 16.4021 16.3999 14.2121 16.3999 11.5021C16.3999 8.79211 14.2099 6.61211 11.5099 6.61211H11.1699L12.1799 7.62211C12.4099 7.86211 12.4099 8.24211 12.1799 8.47211C11.9399 8.70211 11.5599 8.70211 11.3299 8.47211L9.2799 6.42211C9.0499 6.18211 9.0499 5.80211 9.2799 5.57211L11.3299 3.52211C11.5699 3.29211 11.9499 3.29211 12.1799 3.52211C12.4099 3.76211 12.4099 4.14211 12.1799 4.37211L11.1399 5.41211C11.2599 5.40211 11.3799 5.40211 11.4999 5.40211Z" fill="#333333"/>
<path d="M7.18971 14.9029C7.46971 14.7329 7.55971 14.3629 7.37971 14.0729C6.91971 13.3229 6.64971 12.4429 6.64971 11.4929C6.64971 10.1429 7.11971 9.00285 7.97971 8.13285C8.20971 7.89285 8.20971 7.51285 7.97971 7.28285C7.74971 7.05285 7.35971 7.05285 7.12971 7.28285C6.03971 8.39285 5.44971 9.83285 5.44971 11.4829C5.44971 12.6629 5.77971 13.7629 6.35971 14.6929C6.52971 14.9729 6.89971 15.0629 7.18971 14.8829V14.9029Z" fill="#333333"/>
<path d="M18.7999 14.6823C18.5699 14.4523 18.1899 14.4523 17.9499 14.6823C17.7199 14.9123 17.7199 15.2923 17.9499 15.5323L18.8299 16.4123H16.8499C16.4099 16.8623 15.9199 17.2723 15.3799 17.6123H18.8399L17.9599 18.4923C17.7299 18.7223 17.7299 19.1023 17.9599 19.3423C18.1899 19.5723 18.5699 19.5723 18.8099 19.3423L20.7099 17.4423C20.9399 17.2123 20.9399 16.8323 20.7099 16.5923L18.7999 14.6823Z" fill="#333333"/>
</svg>
