<svg width="24" height="24" viewBox="0 0 24 24" fill="none" xmlns="http://www.w3.org/2000/svg">
<path fill-rule="evenodd" clip-rule="evenodd" d="M15.0749 16.0366C13.9106 16.9681 12.4336 17.5252 10.8266 17.5252C7.06795 17.5252 4.021 14.4782 4.021 10.7196C4.021 6.96101 7.06795 3.91406 10.8266 3.91406C14.5852 3.91406 17.6321 6.96101 17.6321 10.7196C17.6321 12.439 16.9945 14.0095 15.9428 15.2074L19.7834 19.048C20.0177 19.2823 20.0177 19.6622 19.7834 19.8965C19.549 20.1308 19.1692 20.1308 18.9348 19.8965L15.0749 16.0366ZM16.4366 10.7193C16.4366 13.8177 13.9248 16.3294 10.8264 16.3294C7.72805 16.3294 5.21631 13.8177 5.21631 10.7193C5.21631 7.62087 7.72805 5.10913 10.8264 5.10913C13.9248 5.10913 16.4366 7.62087 16.4366 10.7193Z" fill="#333333"/>
</svg>
