<svg width="24" height="24" viewBox="0 0 24 24" fill="none" xmlns="http://www.w3.org/2000/svg">
<path fill-rule="evenodd" clip-rule="evenodd" d="M7.08568 5.74736C6.22648 5.34905 5.38002 6.32045 5.89212 7.11708L8.44008 11.0807C8.49646 11.1684 8.54363 11.2601 8.5816 11.3546H11.676C12.0074 11.3546 12.276 11.6232 12.276 11.9546C12.276 12.286 12.0074 12.5546 11.676 12.5546H8.58779C8.5488 12.6546 8.49957 12.7517 8.44008 12.8442L5.89212 16.8078C5.38002 17.6044 6.22648 18.5758 7.08568 18.1775L18.6412 12.8206C19.372 12.4819 19.372 11.443 18.6412 11.1042L7.08568 5.74736ZM4.8827 7.76597C3.72095 5.95877 5.64123 3.75507 7.59037 4.65865L19.1459 10.0155C20.8037 10.7841 20.8037 13.1408 19.1459 13.9093L7.59037 19.2662C5.64123 20.1698 3.72095 17.9661 4.8827 16.1589L7.43066 12.1953C7.52185 12.0534 7.52185 11.8714 7.43066 11.7296L4.8827 7.76597Z" fill="#333333"/>
</svg>
