<svg width="24" height="24" viewBox="0 0 24 24" fill="none" xmlns="http://www.w3.org/2000/svg">
<path fill-rule="evenodd" clip-rule="evenodd" d="M10.3253 3.49632C10.4965 3.60683 10.5999 3.79665 10.5999 4.00039V8.34401C10.5999 8.56493 10.779 8.74401 10.9999 8.74401H12.9999C13.2208 8.74401 13.3999 8.56493 13.3999 8.34401V4.00039C13.3999 3.79665 13.5033 3.60683 13.6745 3.49632C13.8456 3.38581 14.0612 3.36971 14.2469 3.45357C16.2278 4.3482 17.5999 6.38359 17.5999 8.73862C17.5999 10.951 16.3889 12.8813 14.5999 13.8488V18C14.5999 19.436 13.4358 20.6 11.9999 20.6C10.564 20.6 9.3999 19.436 9.3999 18V13.8488C7.61087 12.8813 6.3999 10.951 6.3999 8.73862C6.3999 6.38359 7.77204 4.3482 9.75295 3.45357C9.93863 3.36971 10.1542 3.38581 10.3253 3.49632ZM9.3999 5.05294C8.31178 5.882 7.5999 7.2206 7.5999 8.73862C7.5999 10.6222 8.69596 12.2296 10.2469 12.93C10.4618 13.0271 10.5999 13.241 10.5999 13.4768V18C10.5999 18.7732 11.2267 19.4 11.9999 19.4C12.7731 19.4 13.3999 18.7732 13.3999 18V13.4768C13.3999 13.241 13.538 13.0271 13.7529 12.93C15.3038 12.2296 16.3999 10.6222 16.3999 8.73862C16.3999 7.2206 15.688 5.882 14.5999 5.05294V8.34401C14.5999 9.22767 13.8836 9.94401 12.9999 9.94401H10.9999C10.1162 9.94401 9.3999 9.22767 9.3999 8.34401V5.05294Z" fill="#333333"/>
</svg>
