<svg width="24" height="24" viewBox="0 0 24 24" fill="none" xmlns="http://www.w3.org/2000/svg">
<path fill-rule="evenodd" clip-rule="evenodd" d="M10.3499 6.2459V17.7541H10.3632C10.4244 18.166 10.5192 18.567 10.6448 18.9541H6.7C5.20883 18.9541 4 17.7453 4 16.2541V7.7459C4 6.25473 5.20883 5.0459 6.7 5.0459H17.3C18.7912 5.0459 20 6.25473 20 7.7459V9.51961L19.9998 9.74701C19.9998 10.0784 19.7311 10.347 19.3997 10.3469C19.0684 10.3469 18.7998 10.0782 18.7998 9.74685L18.8 8.50031C18.8 8.4983 18.8 8.49629 18.8 8.49428V7.7459C18.8 6.91747 18.1284 6.2459 17.3 6.2459H14.8499V10.0492C14.8499 10.3806 14.5813 10.6492 14.2499 10.6492C13.9185 10.6492 13.6499 10.3806 13.6499 10.0492V6.2459H10.3499ZM9.1499 6.2459H6.7C5.87157 6.2459 5.2 6.91747 5.2 7.7459V16.2541C5.2 17.0825 5.87157 17.7541 6.7 17.7541H9.1499V6.2459Z" fill="#909090"/>
<path fill-rule="evenodd" clip-rule="evenodd" d="M14.709 15.9235C14.709 14.8962 15.5417 14.0635 16.569 14.0635C17.5962 14.0635 18.429 14.8962 18.429 15.9235C18.429 16.9507 17.5962 17.7835 16.569 17.7835C15.5417 17.7835 14.709 16.9507 14.709 15.9235ZM16.569 15.2635C16.2045 15.2635 15.909 15.559 15.909 15.9235C15.909 16.288 16.2045 16.5835 16.569 16.5835C16.9335 16.5835 17.229 16.288 17.229 15.9235C17.229 15.559 16.9335 15.2635 16.569 15.2635Z" fill="#909090"/>
<path fill-rule="evenodd" clip-rule="evenodd" d="M17.2673 11.2464C16.8852 11.2019 16.4914 11.2039 16.1033 11.2473C15.5399 11.3104 15.1189 11.7019 14.9318 12.1632L14.887 12.2737C14.8239 12.4292 14.6588 12.5176 14.4944 12.4838L14.3221 12.4485C13.8323 12.3479 13.262 12.4819 12.899 12.9335C12.6498 13.2436 12.4458 13.575 12.2863 13.9201C12.0438 14.4449 12.1796 15.0119 12.4837 15.4023L12.5941 15.5439C12.6972 15.6763 12.6912 15.8635 12.5798 15.989L12.4603 16.1236C12.132 16.4932 11.9605 17.0488 12.1667 17.5873C12.3056 17.9501 12.4899 18.2977 12.7182 18.6207C13.0516 19.0925 13.61 19.2579 14.0998 19.1898L14.2797 19.1648C14.4459 19.1416 14.605 19.2404 14.658 19.3997L14.7198 19.5854C14.8747 20.0511 15.2661 20.4766 15.8328 20.5692C16.2195 20.6324 16.6105 20.646 16.9961 20.6117C17.5732 20.5604 17.9973 20.1587 18.1836 19.6994L18.2583 19.5154C18.3214 19.3598 18.4865 19.2715 18.6509 19.3052L18.8245 19.3409C19.3148 19.4415 19.8858 19.3071 20.2487 18.8547C20.4973 18.5446 20.7008 18.2132 20.8598 17.8683C21.1017 17.3437 20.9658 16.7774 20.6619 16.3873L20.5512 16.2452C20.448 16.1127 20.4541 15.9256 20.5655 15.8L20.6835 15.6672C21.0119 15.2974 21.1833 14.7414 20.9768 14.2029C20.8375 13.8393 20.6524 13.4911 20.4233 13.1676C20.0898 12.6966 19.5319 12.5316 19.0426 12.5997L18.8656 12.6243C18.6993 12.6474 18.5402 12.5486 18.4872 12.3893L18.4362 12.2358C18.2763 11.7551 17.8619 11.3158 17.2673 11.2464ZM16.2368 12.4399C16.5411 12.4058 16.8433 12.4051 17.1283 12.4383C17.1721 12.4435 17.2545 12.4853 17.2975 12.6146L17.3486 12.7681C17.5842 13.4764 18.2916 13.9157 19.031 13.8128L19.208 13.7882C19.3386 13.77 19.4159 13.8214 19.444 13.8611C19.6145 14.1018 19.7524 14.3612 19.8564 14.6325C19.8741 14.6787 19.8736 14.7719 19.7862 14.8704L19.6682 15.0033C19.1726 15.5615 19.1458 16.3938 19.6046 16.9827L19.7153 17.1248C19.7964 17.2288 19.7905 17.3216 19.7701 17.3659C19.6518 17.6225 19.4998 17.8704 19.3126 18.1039C19.2794 18.1452 19.1957 18.192 19.0659 18.1654L18.8923 18.1297C18.161 17.9796 17.4268 18.3726 17.1463 19.0644L17.0716 19.2484C17.0219 19.371 16.9383 19.4121 16.8899 19.4164C16.6032 19.4419 16.313 19.4318 16.0263 19.3849C15.9793 19.3772 15.8999 19.3312 15.8585 19.2067L15.7967 19.021C15.5611 18.3127 14.8536 17.8733 14.1143 17.9762L13.9344 18.0012C13.8037 18.0194 13.7263 17.9679 13.6982 17.9282C13.5284 17.6879 13.391 17.429 13.2874 17.1582C13.2697 17.112 13.2702 17.0188 13.3576 16.9203L13.4771 16.7858C13.9727 16.2276 13.9994 15.3952 13.5407 14.8064L13.4304 14.6648C13.3492 14.5606 13.3552 14.4678 13.3756 14.4235C13.4943 14.1668 13.6466 13.9188 13.8343 13.6853C13.8675 13.644 13.9512 13.5973 14.0808 13.624L14.253 13.6593C14.9842 13.8094 15.7184 13.4164 15.999 12.7247L16.0438 12.6143C16.0922 12.4949 16.1774 12.4465 16.2368 12.4399Z" fill="#909090"/>
</svg>
