<svg width="24" height="24" viewBox="0 0 24 24" fill="none" xmlns="http://www.w3.org/2000/svg">
<path fill-rule="evenodd" clip-rule="evenodd" d="M11.1194 3.75952C11.7215 3.69722 12.3132 3.69962 12.8882 3.76099C13.4965 3.82592 13.9559 4.26925 14.1148 4.80848L14.2626 5.30969C14.2963 5.42414 14.3946 5.53718 14.5517 5.59988C14.6083 5.62249 14.6646 5.64584 14.7205 5.6699C14.8758 5.73678 15.0254 5.72643 15.1302 5.66931L15.5885 5.41971C16.0821 5.15082 16.7202 5.16221 17.1962 5.54597C17.6589 5.91894 18.0807 6.34063 18.4537 6.80327C18.8376 7.27934 18.849 7.91748 18.5801 8.41118L18.3306 8.8693C18.2734 8.97417 18.2631 9.12372 18.33 9.27908C18.3541 9.33506 18.3775 9.39143 18.4002 9.44817C18.4629 9.60523 18.5759 9.70354 18.6903 9.73727L19.1919 9.8851C19.7311 10.044 20.1744 10.5033 20.2394 11.1117C20.3008 11.6865 20.3032 12.278 20.2411 12.8799C20.178 13.4905 19.7346 13.955 19.191 14.1152L18.7082 14.2575C18.5926 14.2916 18.4783 14.3917 18.416 14.5517C18.3913 14.6151 18.3657 14.6779 18.3392 14.7403C18.2731 14.8959 18.2838 15.0449 18.3406 15.1492L18.5959 15.6179C18.8643 16.1105 18.8538 16.7477 18.4707 17.2237C18.1011 17.683 17.6828 18.1013 17.2236 18.4709C16.7476 18.8541 16.1103 18.8646 15.6177 18.5962L15.1493 18.3411C15.045 18.2843 14.8959 18.2736 14.7403 18.3397C14.6778 18.3663 14.6148 18.3919 14.5513 18.4167C14.3913 18.479 14.2912 18.5933 14.2571 18.7089L14.1149 19.1914C13.9546 19.735 13.4902 20.1784 12.8796 20.2415C12.2778 20.3037 11.6863 20.3013 11.1115 20.2399C10.5032 20.175 10.0439 19.7316 9.88492 19.1924L9.73728 18.6915C9.70355 18.5771 9.60521 18.464 9.44813 18.4013C9.39103 18.3785 9.33432 18.355 9.27799 18.3307C9.12262 18.2638 8.97306 18.2742 8.86818 18.3313L8.41063 18.5805C7.91691 18.8495 7.27876 18.838 6.80269 18.4541C6.34012 18.0811 5.91849 17.6594 5.54556 17.1968C5.16179 16.7207 5.1504 16.0827 5.41929 15.589L5.6686 15.1313C5.72572 15.0265 5.73606 14.8769 5.66917 14.7216C5.64496 14.6653 5.62148 14.6087 5.59873 14.5517C5.53604 14.3946 5.42299 14.2963 5.30853 14.2626L4.80797 14.115C4.26872 13.9561 3.82538 13.4967 3.76048 12.8883C3.69913 12.3134 3.69674 11.7217 3.75903 11.1197C3.82221 10.5092 4.26556 10.0449 4.80909 9.88467L5.31506 9.73554C5.42699 9.70255 5.54117 9.60598 5.61007 9.44717C5.6299 9.40144 5.65033 9.35587 5.67132 9.31047C5.74575 9.14954 5.73674 8.99378 5.67801 8.88596L5.4638 8.4927C5.18826 7.98684 5.21014 7.33608 5.60699 6.85936C5.98412 6.4063 6.40609 5.98434 6.85916 5.60722C7.33589 5.21041 7.98662 5.18853 8.49246 5.46407L8.886 5.67843C8.99381 5.73715 9.14954 5.74617 9.31047 5.67178C9.35572 5.65086 9.40115 5.6305 9.44674 5.61073C9.60559 5.54184 9.70217 5.42763 9.73517 5.3157L9.88435 4.80957C10.0445 4.26604 10.5089 3.8227 11.1194 3.75952ZM12.7674 4.89235C12.2714 4.83941 11.7594 4.83715 11.2365 4.89126C11.131 4.90219 11.019 4.98422 10.9757 5.13125L10.8265 5.63738C10.6828 6.12499 10.314 6.47478 9.89943 6.65458C9.86224 6.67071 9.82506 6.68737 9.78792 6.70454C9.35136 6.90636 8.812 6.93375 8.34175 6.6776L7.94821 6.46324C7.81235 6.38924 7.67196 6.41104 7.58706 6.48171C7.1872 6.81454 6.81429 7.18744 6.48145 7.58728C6.41078 7.67218 6.38897 7.81258 6.46297 7.94845L6.67719 8.34171C6.93337 8.81203 6.90594 9.35148 6.70401 9.78809C6.68678 9.82535 6.67006 9.86264 6.65388 9.89996C6.47406 10.3145 6.12429 10.6832 5.63674 10.8269L5.13077 10.976C4.98374 11.0194 4.9017 11.1313 4.89078 11.2369C4.83667 11.7597 4.83893 12.2716 4.89184 12.7676C4.90278 12.8701 4.98315 12.9805 5.12965 13.0237L5.63021 13.1712C6.12575 13.3173 6.48246 13.6965 6.65548 14.13C6.67444 14.1775 6.69403 14.2247 6.71422 14.2716C6.89899 14.7008 6.91506 15.2216 6.66777 15.6756L6.41846 16.1333C6.34545 16.2673 6.36654 16.4023 6.43137 16.4827C6.75338 16.8822 7.11749 17.2463 7.5169 17.5684C7.59732 17.6333 7.7323 17.6544 7.86637 17.5814L8.32393 17.3321C8.77797 17.0848 9.29883 17.1009 9.72802 17.2857C9.77499 17.306 9.82229 17.3256 9.86989 17.3446C10.3034 17.5176 10.6826 17.8743 10.8287 18.3698L10.9763 18.8707C11.0195 19.0172 11.1298 19.0976 11.2323 19.1085C11.7281 19.1615 12.2399 19.1638 12.7626 19.1098C12.8682 19.0988 12.9802 19.0168 13.0235 18.8698L13.1657 18.3872C13.3134 17.8861 13.6992 17.5276 14.1383 17.3565C14.191 17.3359 14.2434 17.3146 14.2954 17.2925C14.7231 17.1108 15.2414 17.0956 15.6936 17.3419L16.1619 17.5971C16.2959 17.67 16.4303 17.6489 16.5101 17.5846C16.9057 17.2662 17.266 16.9059 17.5844 16.5103C17.6486 16.4305 17.6697 16.2961 17.5968 16.1622L17.3415 15.6935C17.0952 15.2413 17.1103 14.7232 17.292 14.2955C17.314 14.2437 17.3353 14.1914 17.3558 14.1387C17.5268 13.6997 17.8853 13.3138 18.3865 13.1661L18.8693 13.0238C19.0163 12.9805 19.0984 12.8685 19.1093 12.7629C19.1633 12.2402 19.161 11.7283 19.108 11.2325C19.0971 11.13 19.0167 11.0196 18.8702 10.9765L18.3687 10.8286C17.8732 10.6826 17.5165 10.3035 17.3435 9.87007C17.3246 9.82276 17.3051 9.77576 17.285 9.72907C17.1002 9.29989 17.0841 8.77906 17.3314 8.32504L17.5809 7.86693C17.654 7.73286 17.6329 7.59789 17.568 7.51746C17.2459 7.11799 16.8817 6.75384 16.4822 6.43179C16.4017 6.36696 16.2668 6.34587 16.1327 6.41888L15.6745 6.66849C15.2205 6.91577 14.6997 6.89971 14.2706 6.71496C14.224 6.69489 14.1771 6.67543 14.1298 6.65657C13.6964 6.48352 13.3172 6.12684 13.1712 5.63137L13.0235 5.13016C12.9803 4.98366 12.87 4.90329 12.7674 4.89235ZM11.1768 8.31971C13.8871 7.74284 16.2505 10.1054 15.6738 12.8164C15.3696 14.2465 14.246 15.3702 12.8157 15.6743C10.1049 16.2508 7.74253 13.8878 8.31916 11.1775C8.60489 9.83468 9.83398 8.60549 11.1768 8.31971ZM14.5609 12.5796C14.9661 10.6746 13.3182 9.02721 11.4137 9.43257C10.5052 9.6259 9.62534 10.5059 9.43204 11.4143C9.02683 13.3188 10.6741 14.9666 12.5791 14.5614C13.5698 14.3507 14.3501 13.5704 14.5609 12.5796Z" fill="#333333"/>
</svg>
