<svg width="24" height="24" viewBox="0 0 24 24" fill="none" xmlns="http://www.w3.org/2000/svg">
<path d="M8.30874 6.31622C8.07443 6.55053 8.07443 6.93043 8.30874 7.16474C8.54306 7.39906 8.92296 7.39906 9.15727 7.16474L11.4001 4.92192V13.1125C11.4001 13.4439 11.6687 13.7126 12.0001 13.7126C12.3315 13.7126 12.6001 13.4439 12.6001 13.1125V4.92094L14.8439 7.16474C15.0782 7.39906 15.4581 7.39906 15.6924 7.16474C15.9267 6.93043 15.9267 6.55053 15.6924 6.31622L12.4251 3.04893C12.425 3.04883 12.4252 3.04902 12.4251 3.04893C12.1908 2.81461 11.8106 2.81432 11.5763 3.04864L8.30874 6.31622Z" fill="#333333"/>
<path d="M6.62783 8.39517H8V9.59517H6.62783C5.85463 9.59517 5.22783 10.222 5.22783 10.9952V17.398C5.22783 18.1712 5.85463 18.798 6.62783 18.798H17.372C18.1452 18.798 18.772 18.1712 18.772 17.398V10.9952C18.772 10.222 18.1452 9.59517 17.372 9.59517H16V8.39517H17.372C18.8079 8.39517 19.972 9.55923 19.972 10.9952V17.398C19.972 18.8339 18.8079 19.998 17.372 19.998H6.62783C5.19189 19.998 4.02783 18.8339 4.02783 17.398V10.9952C4.02783 9.55923 5.19189 8.39517 6.62783 8.39517Z" fill="#333333"/>
</svg>
