<svg width="24" height="24" viewBox="0 0 24 24" fill="none" xmlns="http://www.w3.org/2000/svg">
<path d="M12.8302 8.41957C13.0702 8.18957 13.4502 8.18957 13.6802 8.41957V8.42957L15.6802 10.4296C15.9102 10.6696 15.9102 11.0496 15.6802 11.2796L13.6802 13.2796C13.4402 13.5096 13.0602 13.5196 12.8302 13.2796C12.6002 13.0396 12.6002 12.6596 12.8302 12.4296L13.8102 11.4496H12.2602C10.9302 11.4496 9.86016 12.5196 9.86016 13.8496V15.1196C9.86016 15.4496 9.59016 15.7196 9.26016 15.7196C8.93016 15.7196 8.66016 15.4496 8.66016 15.1196V13.8496C8.66016 11.8596 10.2702 10.2496 12.2602 10.2496H13.8102L12.8302 9.26957C12.6002 9.02957 12.5902 8.64957 12.8302 8.41957Z" fill="#333333"/>
<path fill-rule="evenodd" clip-rule="evenodd" d="M7.5 4.5H16.5C18.16 4.5 19.5 5.84 19.5 7.5V16.5C19.5 18.16 18.16 19.5 16.5 19.5H7.5C5.84 19.5 4.5 18.16 4.5 16.5V7.5C4.5 5.84 5.84 4.5 7.5 4.5ZM16.5 18.3C17.49 18.3 18.3 17.49 18.3 16.5V7.5C18.3 6.51 17.49 5.7 16.5 5.7H7.5C6.51 5.7 5.7 6.51 5.7 7.5V16.5C5.7 17.49 6.51 18.3 7.5 18.3H16.5Z" fill="#333333"/>
</svg>
