<svg width="24" height="24" viewBox="0 0 24 24" fill="none" xmlns="http://www.w3.org/2000/svg">
<path fill-rule="evenodd" clip-rule="evenodd" d="M12.0001 5.04893C11.177 5.63821 10.0665 6.28858 9.01039 6.82094C8.01046 7.32496 6.9076 7.79747 5.8656 7.98551C5.65714 10.5943 6.1281 12.6607 7.13497 14.4495C8.15631 16.264 9.77629 17.8775 12.0001 19.4901C14.2239 17.8775 15.8441 16.264 16.8655 14.4494C17.8724 12.6606 18.3434 10.5943 18.1346 7.98553C17.0926 7.79749 15.9897 7.32497 14.9898 6.82095C13.9336 6.2886 12.8231 5.63822 12.0001 5.04893ZM11.8755 20.873C6.70567 17.2814 3.99422 13.4646 4.73877 7.19345C4.74954 7.10269 4.7948 7.01806 4.86437 6.95878C4.93069 6.90229 5.01481 6.87204 5.10185 6.86836C6.06329 6.82769 7.25258 6.36315 8.47026 5.74937C9.6564 5.15149 10.8782 4.41614 11.631 3.82731C11.7367 3.74467 11.8659 3.69727 12.0001 3.69727C12.1342 3.69727 12.2635 3.74467 12.3691 3.82733C13.1219 4.41614 14.3437 5.1515 15.5299 5.74937C16.7476 6.36315 17.9369 6.82768 18.8983 6.86836C18.9853 6.87204 19.0695 6.90229 19.1358 6.95879C19.2053 7.01806 19.2506 7.10268 19.2614 7.19343C20.0067 13.4646 17.2945 17.2814 12.1246 20.873C12.0889 20.8978 11.9112 20.8978 11.8755 20.873Z" fill="#333333"/>
</svg>
