<svg width="24" height="24" viewBox="0 0 24 24" fill="none" xmlns="http://www.w3.org/2000/svg">
<path fill-rule="evenodd" clip-rule="evenodd" d="M11.9999 5.05527C11.2198 5.60966 10.1809 6.21669 9.19332 6.71449C8.25988 7.185 7.22584 7.62993 6.24198 7.81558C6.05466 10.2558 6.49972 12.1882 7.44142 13.8612C8.39819 15.561 9.91432 17.0767 11.9999 18.5939C14.0856 17.0767 15.6019 15.5609 16.5587 13.8611C17.5005 12.1881 17.9455 10.2558 17.7579 7.81559C16.774 7.62995 15.74 7.18501 14.8065 6.7145C13.8189 6.21671 12.78 5.60967 11.9999 5.05527ZM11.8818 19.982C6.98014 16.5768 4.40935 12.9579 5.11527 7.01209C5.12549 6.92603 5.1684 6.84579 5.23436 6.78959C5.29724 6.73603 5.37699 6.70735 5.45952 6.70386C6.37109 6.6653 7.49868 6.22486 8.65319 5.64292C9.7778 5.07605 10.9362 4.37884 11.65 3.82056C11.7502 3.74221 11.8727 3.69727 11.9999 3.69727C12.1271 3.69727 12.2496 3.74221 12.3498 3.82058C13.0635 4.37884 14.222 5.07606 15.3466 5.64292C16.5011 6.22485 17.6287 6.6653 18.5403 6.70386C18.6228 6.70735 18.7026 6.73603 18.7654 6.7896C18.8314 6.8458 18.8743 6.92603 18.8845 7.01207C19.5912 12.9579 17.0197 16.5768 12.118 19.982C12.0841 20.0055 11.9157 20.0055 11.8818 19.982Z" fill="#333333"/>
</svg>
