<svg width="24" height="24" viewBox="0 0 24 24" fill="none" xmlns="http://www.w3.org/2000/svg">
<path fill-rule="evenodd" clip-rule="evenodd" d="M3.3999 5.00039C3.3999 4.66902 3.66853 4.40039 3.9999 4.40039H5.49691C5.7764 4.40039 6.01888 4.59337 6.0816 4.86574L6.5008 6.68595H18.9999C19.179 6.68595 19.3488 6.766 19.4628 6.90421C19.5768 7.04241 19.623 7.22432 19.5889 7.40018L18.3541 13.7676C18.2585 14.2645 18.0153 14.7238 17.6484 15.0621C17.2797 15.402 16.8069 15.599 16.3064 15.6L8.99182 15.6C8.48321 15.6107 7.9992 15.4183 7.62112 15.0762C7.24617 14.737 6.99767 14.2725 6.90065 13.7692L5.01938 5.60039H3.9999C3.66853 5.60039 3.3999 5.33176 3.3999 5.00039ZM6.77716 7.88595L8.07262 13.5111C8.07447 13.5191 8.07615 13.5272 8.07767 13.5352C8.12851 13.8067 8.25785 14.0341 8.42615 14.1863C8.59247 14.3368 8.78508 14.4049 8.96965 14.4002L8.98493 14.4L16.3042 14.4C16.4849 14.3995 16.6731 14.3291 16.835 14.1799C16.9988 14.0288 17.1247 13.8061 17.1757 13.541L18.2724 7.88595H6.77716Z" fill="#333333"/>
<path fill-rule="evenodd" clip-rule="evenodd" d="M7.3999 18.0004C7.3999 17.1167 8.11625 16.4004 8.9999 16.4004C9.88356 16.4004 10.5999 17.1167 10.5999 18.0004C10.5999 18.884 9.88356 19.6004 8.9999 19.6004C8.11625 19.6004 7.3999 18.884 7.3999 18.0004Z" fill="#333333"/>
<path fill-rule="evenodd" clip-rule="evenodd" d="M15.9999 16.4004C15.1162 16.4004 14.3999 17.1167 14.3999 18.0004C14.3999 18.884 15.1162 19.6004 15.9999 19.6004C16.8836 19.6004 17.5999 18.884 17.5999 18.0004C17.5999 17.1167 16.8836 16.4004 15.9999 16.4004Z" fill="#333333"/>
</svg>
