<svg width="24" height="24" viewBox="0 0 24 24" fill="none" xmlns="http://www.w3.org/2000/svg">
<path d="M15.9793 4.4718C16.2157 4.23957 16.5956 4.24293 16.8278 4.47931L19.6278 7.32931C19.8571 7.56274 19.8571 7.93687 19.6278 8.1703L16.8278 11.0203C16.5956 11.2567 16.2157 11.26 15.9793 11.0278C15.7429 10.7956 15.7396 10.4157 15.9718 10.1793L17.7692 8.34981H14.9108C14.1561 8.34981 13.4421 8.69901 13.0737 9.27664C13.0683 9.28512 13.0626 9.29345 13.0568 9.30165L8.72169 15.3991C8.04133 16.3324 7.00952 16.8498 5.8938 16.8498H4.8998C4.56843 16.8498 4.2998 16.5812 4.2998 16.2498C4.2998 15.9184 4.56843 15.6498 4.8998 15.6498H5.8938C6.62303 15.6498 7.29436 15.3182 7.74997 14.6949L12.0706 8.6179C12.6978 7.64604 13.8245 7.14981 14.9108 7.14981H17.7692L15.9718 5.3203C15.7396 5.08392 15.7429 4.70403 15.9793 4.4718Z" fill="#333333"/>
<path d="M16.8278 12.9793C16.5956 12.7429 16.2157 12.7396 15.9793 12.9718C15.7429 13.204 15.7396 13.5839 15.9718 13.8203L17.761 15.6415H14.9029C14.1791 15.6415 13.4478 15.247 13.0623 14.6453L12.708 14.0809C12.5318 13.8002 12.1615 13.7155 11.8808 13.8916C11.6002 14.0678 11.5155 14.4381 11.6916 14.7188L12.0473 15.2855L12.0499 15.2896C12.6605 16.2451 13.778 16.8415 14.9029 16.8415H17.7774L15.9718 18.6793C15.7396 18.9157 15.7429 19.2956 15.9793 19.5278C16.2157 19.76 16.5956 19.7567 16.8278 19.5203L19.6278 16.6703C19.8571 16.4369 19.8571 16.0627 19.6278 15.8293L16.8278 12.9793Z" fill="#333333"/>
<path d="M4.2998 7.74981C4.2998 7.41844 4.56843 7.14981 4.8998 7.14981H6.24564C7.54409 7.14981 8.73086 7.92229 9.32392 9.02368C9.48102 9.31545 9.37186 9.67932 9.0801 9.83643C8.78834 9.99353 8.42446 9.88437 8.26736 9.5926C7.86875 8.85233 7.07218 8.34981 6.24564 8.34981H4.8998C4.56843 8.34981 4.2998 8.08118 4.2998 7.74981Z" fill="#333333"/>
</svg>
