<svg width="24" height="24" viewBox="0 0 24 24" fill="none" xmlns="http://www.w3.org/2000/svg">
<path fill-rule="evenodd" clip-rule="evenodd" d="M19.2508 4.90511C18.8682 4.52785 18.3511 4.31738 17.8137 4.31738H16.7653C16.4339 4.31738 16.1653 4.58601 16.1653 4.91738C16.1653 5.24875 16.4339 5.51738 16.7653 5.51738H17.8137C18.0382 5.51738 18.2519 5.60542 18.4082 5.75952C18.5642 5.91334 18.6502 6.12017 18.6502 6.33405V9.87572C18.6502 10.841 18.2615 11.7685 17.5667 12.4537C16.8716 13.1392 15.9272 13.5257 14.9407 13.5257C13.9541 13.5257 13.0097 13.1392 12.3146 12.4537C11.6199 11.7685 11.2311 10.841 11.2311 9.87572V6.33405C11.2311 6.12017 11.3172 5.91334 11.4731 5.75952C11.6294 5.60542 11.8431 5.51738 12.0676 5.51738H13.1202C13.4516 5.51738 13.7202 5.24875 13.7202 4.91738C13.7202 4.58601 13.4516 4.31738 13.1202 4.31738H12.0676C11.5302 4.31738 11.0131 4.52785 10.6305 4.90511C10.2477 5.28264 10.0311 5.79648 10.0311 6.33405V9.87572C10.0311 11.1647 10.5504 12.3992 11.472 13.3081C12.2648 14.0899 13.2992 14.5758 14.4002 14.6963V14.8337C14.4002 15.7942 14.004 16.7202 13.2906 17.4066C12.5765 18.0938 11.6032 18.4837 10.5837 18.4837C9.56424 18.4837 8.59094 18.0938 7.87682 17.4066C7.16348 16.7202 6.76722 15.7942 6.76722 14.8337V12.5099C7.5879 12.2544 8.18372 11.4888 8.18372 10.584C8.18372 9.47027 7.28083 8.56738 6.16706 8.56738C5.05328 8.56738 4.15039 9.47027 4.15039 10.584C4.15039 11.4889 4.74637 12.2546 5.56722 12.51V14.8337C5.56722 16.1276 6.10157 17.3636 7.04475 18.2713C7.98714 19.1781 9.26055 19.6837 10.5837 19.6837C11.9069 19.6837 13.1803 19.1781 14.1227 18.2713C15.0659 17.3636 15.6002 16.1276 15.6002 14.8337V14.6818C16.6566 14.5403 17.6452 14.0616 18.4093 13.3081C19.3309 12.3992 19.8502 11.1647 19.8502 9.87572V6.33405C19.8502 5.79648 19.6336 5.28264 19.2508 4.90511ZM6.1823 11.4006C6.17729 11.4005 6.17226 11.4004 6.16722 11.4004C6.16213 11.4004 6.15706 11.4005 6.152 11.4006C5.70792 11.3926 5.35039 11.0301 5.35039 10.584C5.35039 10.133 5.71602 9.76738 6.16706 9.76738C6.61809 9.76738 6.98372 10.133 6.98372 10.584C6.98372 11.03 6.6263 11.3924 6.1823 11.4006Z" fill="#333333"/>
</svg>
