<svg width="24" height="24" viewBox="0 0 24 24" fill="none" xmlns="http://www.w3.org/2000/svg">
<path fill-rule="evenodd" clip-rule="evenodd" d="M5.46617 5.94115C5.56892 5.74105 5.77496 5.61523 5.9999 5.61523H15.004C15.3353 5.61523 15.604 5.88386 15.604 6.21523C15.604 6.54661 15.3353 6.81523 15.004 6.81523H7.16831L10.6373 11.654C10.7871 11.863 10.7871 12.1442 10.6373 12.3532L7.16831 17.1919H15.004C15.3353 17.1919 15.604 17.4606 15.604 17.7919C15.604 18.1233 15.3353 18.3919 15.004 18.3919H5.99991C5.77497 18.3919 5.56893 18.2661 5.46617 18.066C5.36342 17.8659 5.38122 17.6252 5.51228 17.4424L9.41137 12.0036L5.51227 6.56482C5.38121 6.38201 5.36341 6.14125 5.46617 5.94115ZM15.274 10.2533L14.4743 12.2961H16.1312L15.274 10.2533ZM16.6347 13.4961L17.269 15.0077C17.3972 15.3133 17.7489 15.4571 18.0544 15.3289C18.36 15.2006 18.5038 14.849 18.3756 14.5434L16.1897 9.33416C15.8422 8.50597 14.6638 8.52022 14.3364 9.35657L12.3196 14.5085C12.1988 14.8171 12.351 15.1651 12.6596 15.2859C12.9682 15.4067 13.3162 15.2545 13.437 14.9459L14.0046 13.4961H16.6347Z" fill="#333333"/>
</svg>
