<svg width="24" height="24" viewBox="0 0 24 24" fill="none" xmlns="http://www.w3.org/2000/svg">
<path fill-rule="evenodd" clip-rule="evenodd" d="M16.3889 4.73919C15.8032 4.15344 14.8535 4.15333 14.2677 4.73893L5.44424 13.5588C5.36893 13.6341 5.31501 13.7281 5.28802 13.8311L4.33011 17.4865C4.15539 18.1533 4.76437 18.761 5.43076 18.5848L9.09802 17.6152C9.20048 17.5881 9.29393 17.5344 9.36888 17.4594L18.1791 8.65109C18.7649 8.06533 18.765 7.11554 18.1792 6.5297L16.3889 4.73919ZM15.1161 5.58763C15.2332 5.47051 15.4232 5.47053 15.5403 5.58768L17.3307 7.37819C17.4478 7.49536 17.4478 7.68532 17.3306 7.80247L16.0926 9.04024L13.8777 6.82547L15.1161 5.58763ZM13.029 7.67383L15.244 9.88868L8.90191 16.2294L6.68635 14.014L13.029 7.67383ZM6.17097 15.1956L5.6213 17.2932L7.71502 16.7396L6.17097 15.1956Z" fill="#333333"/>
<path d="M19.3737 15.1493C19.1249 14.9304 18.7457 14.9547 18.5269 15.2036C18.308 15.4524 18.3323 15.8315 18.5812 16.0503C18.9455 16.3708 19.1748 16.7597 19.2609 17.1152C19.3465 17.4689 19.2859 17.7519 19.1357 17.9456C18.9866 18.1378 18.6664 18.348 18.0151 18.3819C17.3592 18.4159 16.4182 18.2648 15.1372 17.7793C13.9874 17.3436 13.16 17.0952 12.5673 16.9973C12.271 16.9484 12.0026 16.9316 11.7666 16.9626C11.5266 16.9942 11.2813 17.0812 11.0897 17.2736C10.896 17.468 10.8245 17.7024 10.8022 17.8959C10.781 18.0809 10.8005 18.2629 10.8215 18.4044C10.8343 18.4905 10.8536 18.5956 10.8703 18.6863C10.879 18.7332 10.8869 18.7763 10.8928 18.8107C10.8969 18.8346 10.9006 18.8572 10.9039 18.8787C10.6456 18.8544 10.244 18.7463 9.71809 18.5409C9.40943 18.4204 9.06148 18.5729 8.94093 18.8816C8.82038 19.1902 8.97288 19.5382 9.28155 19.6587C9.88428 19.8941 10.4692 20.0666 10.9342 20.0828C11.1619 20.0907 11.4494 20.0655 11.6975 19.9072C11.9915 19.7195 12.1251 19.4152 12.1251 19.0998C12.1251 18.9223 12.0998 18.749 12.0755 18.6077C12.0636 18.5385 12.0531 18.4822 12.0436 18.431C12.0304 18.3602 12.019 18.2992 12.0085 18.2281C12.0039 18.1971 12.0005 18.1703 11.9981 18.1472C12.0792 18.1454 12.1997 18.1529 12.3718 18.1813C12.8439 18.2593 13.5815 18.473 14.7119 18.9014C16.0821 19.4207 17.1968 19.626 18.0773 19.5802C18.9623 19.5343 19.6591 19.2286 20.0839 18.6811C20.5075 18.135 20.5777 17.4543 20.4272 16.8328C20.2771 16.213 19.9032 15.6151 19.3737 15.1493Z" fill="#333333"/>
</svg>
