<svg width="24" height="24" viewBox="0 0 24 24" fill="none" xmlns="http://www.w3.org/2000/svg">
<path d="M10.9611 5.32827C10.4311 5.42827 9.92114 5.58827 9.44114 5.79827C9.14114 5.92827 8.78114 5.78827 8.65114 5.48827C8.52114 5.18827 8.66114 4.82827 8.96114 4.69827C9.52114 4.44827 10.1211 4.26827 10.7511 4.14827C11.0411 4.08827 11.3311 4.05827 11.6111 4.03827L11.2311 3.57827C11.0211 3.32827 11.0511 2.94827 11.3111 2.73827C11.5611 2.52827 11.9411 2.55827 12.1511 2.81827L13.4111 4.35827C13.6111 4.59827 13.5911 4.93827 13.3811 5.15827L11.9511 6.62827C11.7211 6.86827 11.3411 6.86827 11.1011 6.63827C10.8611 6.40827 10.8611 6.02827 11.0911 5.78827L11.6211 5.24827C11.4011 5.26827 11.1811 5.28827 10.9611 5.32827Z" fill="#333333"/>
<path d="M5.081 9.89871C5.391 10.0187 5.741 9.86871 5.861 9.55871C6.251 8.55871 6.861 7.66871 7.661 6.94871C7.911 6.72871 7.931 6.34871 7.711 6.09871C7.491 5.84871 7.111 5.82871 6.861 6.04871C5.921 6.88871 5.201 7.93871 4.741 9.11871C4.621 9.42871 4.771 9.77871 5.081 9.89871Z" fill="#333333"/>
<path d="M5.51102 13.2182C5.41102 12.6782 5.38102 12.1482 5.41102 11.6282C5.43102 11.2982 5.17102 11.0182 4.84102 10.9982C4.51102 10.9782 4.23102 11.2382 4.21102 11.5682C4.18102 12.1782 4.21102 12.8082 4.33102 13.4382C4.45102 14.0682 4.63102 14.6682 4.88102 15.2282C5.01102 15.5282 5.37102 15.6682 5.67102 15.5382C5.97102 15.4082 6.11102 15.0482 5.98102 14.7482C5.77102 14.2682 5.61102 13.7582 5.51102 13.2282V13.2182Z" fill="#333333"/>
<path d="M19.9512 10.1682C19.6912 9.06818 19.2012 8.03818 18.5212 7.13818C17.8312 6.23818 16.9712 5.49818 15.9712 4.96818C15.6812 4.80818 15.3112 4.91818 15.1612 5.20818C15.0012 5.49818 15.1112 5.86818 15.4012 6.01818C16.2412 6.47818 16.9812 7.09818 17.5612 7.86818C18.1412 8.62818 18.5612 9.50818 18.7812 10.4382C19.0012 11.3682 19.0212 12.3382 18.8312 13.2782C18.6512 14.2182 18.2712 15.1082 17.7112 15.8982C17.1612 16.6782 16.4412 17.3382 15.6212 17.8282C14.7912 18.3182 13.8712 18.6182 12.9212 18.7282C11.9712 18.8382 11.0012 18.7282 10.0912 18.4382C9.18116 18.1482 8.34116 17.6582 7.63116 17.0182C7.38116 16.7982 7.00116 16.8182 6.78116 17.0582C6.56116 17.3082 6.58116 17.6882 6.82116 17.9082C7.66116 18.6682 8.65116 19.2382 9.72116 19.5782C10.7912 19.9282 11.9312 20.0382 13.0512 19.9182C14.1712 19.7982 15.2512 19.4282 16.2312 18.8582C17.2012 18.2882 18.0412 17.5082 18.6912 16.5882C19.3412 15.6682 19.7912 14.6182 20.0012 13.5082C20.2212 12.3982 20.1912 11.2582 19.9412 10.1582L19.9512 10.1682Z" fill="#333333"/>
<path d="M11.9412 14.5884C11.7212 14.8284 11.3612 14.8484 11.1112 14.6384L11.1012 14.6484L8.56119 12.4684C8.30119 12.2484 8.27119 11.8684 8.49119 11.6184C8.71119 11.3584 9.09119 11.3284 9.34119 11.5484L11.4412 13.3484L15.0412 9.41843C15.2712 9.16843 15.6512 9.15843 15.8912 9.37843C16.1412 9.60843 16.1512 9.98843 15.9312 10.2284L11.9412 14.5884Z" fill="#333333"/>
</svg>
