<svg width="24" height="24" viewBox="0 0 24 24" fill="none" xmlns="http://www.w3.org/2000/svg">
<path d="M8.1 5.2H15.9C16.6732 5.2 17.3 5.8268 17.3 6.6V6.98492L17.2998 7.00039V8.00039C17.2998 8.33176 17.5684 8.60039 17.8998 8.60039C18.2312 8.60039 18.4998 8.33176 18.4998 8.00039L18.5 6.6C18.5 5.16406 17.3359 4 15.9 4H8.1C6.66406 4 5.5 5.16406 5.5 6.6V17.4C5.5 18.8359 6.66406 20 8.1 20H9.969C9.97924 20.0005 9.98954 20.0008 9.9999 20.0008H11.9999C12.3313 20.0008 12.5999 19.7322 12.5999 19.4008C12.5999 19.0694 12.3313 18.8008 11.9999 18.8008L8.1 18.8C7.3268 18.8 6.7 18.1732 6.7 17.4V6.6C6.7 5.8268 7.3268 5.2 8.1 5.2Z" fill="#333333"/>
<path fill-rule="evenodd" clip-rule="evenodd" d="M18.3736 10.9794C18.579 10.1577 17.5338 9.62205 16.9867 10.2686L12.0419 16.1125C11.891 16.2909 11.8573 16.5406 11.9556 16.7525C12.0539 16.9645 12.2663 17.1001 12.4999 17.1001H15.2045L14.6557 19.0206C14.4238 19.8323 15.4443 20.4033 16.0147 19.781L20.9422 14.4055C21.103 14.2301 21.1449 13.9763 21.0491 13.7585C20.9533 13.5407 20.7379 13.4001 20.4999 13.4001H17.7684L18.3736 10.9794ZM13.7936 15.9001L16.7925 12.3559L16.4178 13.8546C16.373 14.0338 16.4133 14.2237 16.527 14.3693C16.6407 14.515 16.8151 14.6001 16.9999 14.6001H19.136L16.2751 17.7211L16.5768 16.6649C16.6285 16.4839 16.5923 16.2891 16.4789 16.1388C16.3655 15.9885 16.1882 15.9001 15.9999 15.9001H13.7936Z" fill="#333333"/>
<path d="M8.3999 8.00039C8.3999 7.66902 8.66853 7.40039 8.9999 7.40039H14.9999C15.3313 7.40039 15.5999 7.66902 15.5999 8.00039C15.5999 8.33176 15.3313 8.60039 14.9999 8.60039H8.9999C8.66853 8.60039 8.3999 8.33176 8.3999 8.00039Z" fill="#333333"/>
<path d="M8.9999 11.4004C8.66853 11.4004 8.3999 11.669 8.3999 12.0004C8.3999 12.3318 8.66853 12.6004 8.9999 12.6004H11.9999C12.3313 12.6004 12.5999 12.3318 12.5999 12.0004C12.5999 11.669 12.3313 11.4004 11.9999 11.4004H8.9999Z" fill="#333333"/>
</svg>
