<svg width="24" height="24" viewBox="0 0 24 24" fill="none" xmlns="http://www.w3.org/2000/svg">
<path d="M12 4C7.59 4 4 7.59 4 12C4 16.41 7.59 20 12 20C16.41 20 20 16.41 20 12C20 7.59 16.41 4 12 4ZM12 18.8C8.25 18.8 5.2 15.75 5.2 12C5.2 8.25 8.25 5.2 12 5.2C15.75 5.2 18.8 8.25 18.8 12C18.8 15.75 15.75 18.8 12 18.8Z" fill="#333333"/>
<path d="M14.52 13.64C14.52 13.64 13.54 14.9 12 14.9C10.46 14.9 9.5 13.66 9.48 13.64C9.28 13.38 8.91 13.32 8.64 13.52C8.37 13.72 8.32 14.1 8.52 14.36C8.57 14.43 9.85 16.1 12 16.1C14.15 16.1 15.43 14.43 15.48 14.36C15.68 14.1 15.62 13.72 15.36 13.52C15.1 13.32 14.72 13.37 14.52 13.64Z" fill="#333333"/>
<path d="M9.74 11.28C10.15 11.28 10.49 10.94 10.49 10.53V10.1C10.49 9.69 10.15 9.35 9.74 9.35C9.33 9.35 8.99 9.69 8.99 10.1V10.53C8.99 10.94 9.33 11.28 9.74 11.28Z" fill="#333333"/>
<path d="M14.25 11.28C14.66 11.28 15 10.94 15 10.53V10.1C15 9.69 14.66 9.35 14.25 9.35C13.84 9.35 13.5 9.69 13.5 10.1V10.53C13.5 10.94 13.84 11.28 14.25 11.28Z" fill="#333333"/>
</svg>
