<svg width="24" height="24" viewBox="0 0 24 24" fill="none" xmlns="http://www.w3.org/2000/svg">
<path d="M12.5782 14.2154C12.9082 14.2154 13.1782 13.9454 13.1782 13.6154V9.91543C13.1782 9.65543 13.0182 9.42543 12.7682 9.34543C12.5282 9.26543 12.2582 9.34543 12.0982 9.55543L10.8882 11.1554L9.67824 9.55543C9.51824 9.34543 9.24824 9.26543 9.00824 9.34543C8.76824 9.42543 8.59824 9.65543 8.59824 9.91543V13.6154C8.59824 13.9454 8.86824 14.2154 9.19824 14.2154C9.52824 14.2154 9.79824 13.9454 9.79824 13.6154V11.7054L10.4082 12.5054C10.5182 12.6554 10.6982 12.7454 10.8882 12.7454C11.0782 12.7454 11.2582 12.6554 11.3682 12.5054L11.9782 11.7054V13.6154C11.9782 13.9454 12.2482 14.2154 12.5782 14.2154Z" fill="#333333"/>
<path d="M5.83824 10.3554C6.38824 10.3554 6.68824 10.3854 6.84824 10.4054C7.16824 10.4454 7.47824 10.2254 7.52824 9.89543C7.57824 9.56543 7.34824 9.26543 7.01824 9.21543C6.72824 9.17543 6.33824 9.15543 5.83824 9.15543C4.83824 9.15543 3.99824 9.87543 3.99824 10.7354C3.99824 11.5954 4.70824 12.2954 5.64824 12.2954H6.08824C6.29824 12.2954 6.61824 12.3854 6.61824 12.6254C6.61824 13.0354 5.81824 13.0354 5.80824 13.0354C5.29824 13.0354 4.90824 12.9854 4.71824 12.9454C4.39824 12.8654 4.06824 13.0754 3.99824 13.3954C3.92824 13.7154 4.12824 14.0454 4.44824 14.1154C4.77824 14.1954 5.27824 14.2354 5.80824 14.2354C6.98824 14.2354 7.81824 13.5754 7.81824 12.6254C7.81824 11.7554 7.07824 11.0954 6.08824 11.0954H5.64824C5.42824 11.0954 5.18824 10.9954 5.18824 10.7254C5.18824 10.5654 5.48824 10.3554 5.81824 10.3554H5.83824Z" fill="#333333"/>
<path d="M15.7482 10.3554C16.2982 10.3554 16.5982 10.3854 16.7582 10.4054C17.0882 10.4554 17.3882 10.2254 17.4382 9.89543C17.4782 9.56543 17.2582 9.26543 16.9282 9.21543C16.6382 9.17543 16.2382 9.15543 15.7482 9.15543C14.7582 9.15543 13.9182 9.87543 13.9182 10.7254C13.9182 11.5754 14.6282 12.2854 15.5682 12.2854H16.0082C16.2182 12.2854 16.5382 12.3754 16.5382 12.6154C16.5382 12.9554 15.9582 13.0254 15.7282 13.0254C15.2182 13.0254 14.8282 12.9754 14.6382 12.9354C14.3182 12.8554 13.9982 13.0654 13.9182 13.3854C13.8482 13.7054 14.0482 14.0254 14.3682 14.1054C14.6982 14.1854 15.1982 14.2254 15.7282 14.2254C16.9082 14.2254 17.7382 13.5654 17.7382 12.6154C17.7382 11.7454 16.9982 11.0854 16.0082 11.0854H15.5682C15.4582 11.0854 15.1082 11.0554 15.1082 10.7154C15.1082 10.5554 15.4082 10.3454 15.7382 10.3454L15.7482 10.3554Z" fill="#333333"/>
<path d="M16.6182 5.06543H7.33824C5.61824 5.06543 4.53824 5.83543 4.02824 7.42543C3.92824 7.74543 4.09824 8.07543 4.41824 8.17543C4.72824 8.27543 5.06824 8.10543 5.16824 7.78543C5.51824 6.70543 6.14824 6.25543 7.33824 6.25543H16.6082C17.8082 6.25543 18.7882 7.11543 18.7882 8.17543V14.9554C18.7882 16.0154 17.8082 16.8754 16.6082 16.8754H11.0982C10.9682 16.8754 10.8382 16.9154 10.7282 16.9954L7.74824 19.3054C7.44824 19.5854 7.24824 19.6954 7.14824 19.7354C7.11824 19.6454 7.09824 19.4854 7.09824 19.1954V17.3554C7.09824 17.0254 6.82824 16.7554 6.49824 16.7554C5.14824 16.7554 5.14824 15.9554 5.14824 15.6954C5.14824 15.3654 4.87824 15.0954 4.54824 15.0954C4.21824 15.0954 3.94824 15.3654 3.94824 15.6954C3.94824 16.9054 4.67824 17.7154 5.89824 17.9054V19.1954C5.89824 19.5254 5.89824 20.5454 6.63824 20.8754C6.77824 20.9354 6.91824 20.9654 7.05824 20.9654C7.70824 20.9654 8.31824 20.4054 8.52824 20.2254L11.3082 18.0754H16.6082C18.4782 18.0754 19.9882 16.6754 19.9882 14.9554V8.18543C19.9882 6.46543 18.4682 5.06543 16.6082 5.06543H16.6182Z" fill="#333333"/>
</svg>
