<svg width="24" height="24" viewBox="0 0 24 24" fill="none" xmlns="http://www.w3.org/2000/svg">
<path d="M14.86 18.15H6.8C5.92 18.15 5.2 17.43 5.2 16.55V8.05C5.2 7.17 5.92 6.45 6.8 6.45H7.75V7.35C7.75 7.8 8.11 8.16 8.56 8.16C9.01 8.16 9.37 7.8 9.37 7.35V6.45H14.42C14.75 6.45 15.02 6.18 15.02 5.85C15.02 5.52 14.75 5.25 14.42 5.25H9.37V4.81C9.37 4.36 9.01 4 8.56 4C8.11 4 7.75 4.36 7.75 4.81V5.25H6.8C5.25 5.25 4 6.5 4 8.05V16.55C4 18.1 5.25 19.35 6.8 19.35H14.86C15.19 19.35 15.46 19.08 15.46 18.75C15.46 18.42 15.19 18.15 14.86 18.15Z" fill="#333333"/>
<path d="M11.6501 9.75C11.2101 9.75 10.8501 10.11 10.8501 10.55V11.4C10.8501 11.84 11.2101 12.2 11.6501 12.2H12.4601C12.9001 12.2 13.2601 11.84 13.2601 11.4V10.55C13.2601 10.11 12.9001 9.75 12.4601 9.75H11.6501Z" fill="#333333"/>
<path d="M8.77992 9.75C9.21992 9.75 9.57992 10.11 9.57992 10.55V11.4C9.57992 11.84 9.21992 12.2 8.77992 12.2H7.96992C7.52992 12.2 7.16992 11.84 7.16992 11.4V10.55C7.16992 10.11 7.52992 9.75 7.96992 9.75H8.77992Z" fill="#333333"/>
<path d="M8.77992 13.5703H7.96992C7.52992 13.5703 7.16992 13.9303 7.16992 14.3703V15.2203C7.16992 15.6603 7.52992 16.0203 7.96992 16.0203H8.77992C9.21992 16.0203 9.57992 15.6603 9.57992 15.2203V14.3703C9.57992 13.9303 9.21992 13.5703 8.77992 13.5703Z" fill="#333333"/>
<path d="M17.9202 6.67023L19.9202 8.67023L19.9402 8.68023C20.1702 8.92023 20.1702 9.30023 19.9402 9.53023C19.7002 9.76023 19.3202 9.76023 19.0902 9.53023L18.1102 8.55023V17.0902C18.1102 17.4202 17.8402 17.6902 17.5102 17.6902C17.1802 17.6902 16.9102 17.4202 16.9102 17.0902V8.54023L15.9302 9.52023C15.6902 9.75023 15.3102 9.75023 15.0802 9.52023C14.8502 9.28023 14.8502 8.90023 15.0802 8.67023L17.0802 6.67023C17.1302 6.61023 17.2002 6.57023 17.2702 6.54023C17.3402 6.51023 17.4202 6.49023 17.5002 6.49023C17.5802 6.49023 17.6602 6.51023 17.7302 6.54023C17.8002 6.57023 17.8702 6.62023 17.9202 6.67023Z" fill="#333333"/>
</svg>
