<svg width="24" height="24" viewBox="0 0 24 24" fill="none" xmlns="http://www.w3.org/2000/svg">
<path d="M15.6597 17.4527C15.4197 17.6127 15.1597 17.7527 14.8997 17.8827H14.8797C14.6297 18.0027 14.3797 18.1027 14.1197 18.1927C14.1097 18.1927 14.0972 18.1977 14.0848 18.2027C14.0723 18.2077 14.0597 18.2127 14.0497 18.2127C12.4097 18.7427 10.5697 18.6327 8.91974 17.7727C5.66974 16.0727 4.41974 12.0527 6.12974 8.80268C6.30974 8.46268 6.51974 8.14268 6.73974 7.84268C6.74974 7.82268 6.75974 7.81268 6.77974 7.79268C6.99974 7.51268 7.23974 7.25268 7.49974 7.01268C7.51474 6.99768 7.52974 6.98518 7.54474 6.97268C7.55974 6.96018 7.57474 6.94768 7.58974 6.93268C7.81974 6.72268 8.06974 6.53268 8.32974 6.36268C8.35735 6.34888 8.3802 6.3303 8.40487 6.31025C8.41593 6.30126 8.42735 6.29197 8.43974 6.28268C8.71974 6.10268 9.00974 5.95268 9.30974 5.81268C9.37325 5.78093 9.44079 5.75724 9.50724 5.73394C9.54542 5.72055 9.58325 5.70728 9.61974 5.69268C9.82974 5.61268 10.0297 5.54268 10.2397 5.48268C10.3797 5.44268 10.5097 5.41268 10.6497 5.38268C10.8297 5.34268 11.0197 5.31268 11.1997 5.29268L11.2477 5.28667C11.39 5.26877 11.5258 5.25168 11.6697 5.24268H12.1597C12.4897 5.24268 12.8097 5.28268 13.1297 5.33268L13.4897 5.39268C14.0097 5.51268 14.5197 5.69268 15.0097 5.93268C15.3097 6.08268 15.6697 5.96268 15.8197 5.66268C15.9697 5.36268 15.8497 5.00268 15.5497 4.85268C15.1097 4.63268 14.6497 4.46268 14.1797 4.33268C14.1643 4.32498 14.1489 4.31579 14.1329 4.30627C14.1074 4.29106 14.0805 4.27498 14.0497 4.26268C12.6297 3.88268 11.1597 3.92268 9.79974 4.33268C9.75974 4.34268 9.71974 4.35268 9.68974 4.36268C9.38974 4.45268 9.09974 4.56268 8.80974 4.69268C8.79474 4.70268 8.77724 4.71018 8.75974 4.71768C8.74224 4.72518 8.72474 4.73268 8.70974 4.74268C8.42974 4.87268 8.14974 5.02268 7.87974 5.19268C7.86974 5.19268 7.85974 5.20268 7.84974 5.21268L7.83974 5.21268C7.62975 5.35268 7.41973 5.49269 7.21974 5.65268C7.16974 5.69268 7.11974 5.73268 7.06974 5.78268C6.93975 5.89268 6.80973 6.00269 6.68974 6.11268L6.41974 6.38268C6.34974 6.45268 6.27973 6.52269 6.20974 6.60268C6.09974 6.72268 5.99974 6.84268 5.89974 6.97268C5.88507 6.99102 5.87174 7.00936 5.85878 7.0272C5.83639 7.05801 5.81507 7.08735 5.78974 7.11268C5.73475 7.18767 5.67975 7.26516 5.62476 7.34265C5.56977 7.42014 5.51474 7.49769 5.45974 7.57268C5.44974 7.59268 5.43974 7.61268 5.41974 7.63268C5.01974 8.26268 4.70974 8.95268 4.49974 9.66268V9.68268C4.42974 9.92268 4.36974 10.1727 4.32974 10.4227V10.4327C3.98974 12.3027 4.30974 14.2927 5.39974 16.0327C6.77974 18.2227 9.04974 19.4827 11.4397 19.6727H11.4797C12.4697 19.7427 13.4797 19.6327 14.4497 19.3127C14.4647 19.3077 14.4822 19.3027 14.4997 19.2977C14.5172 19.2927 14.5347 19.2877 14.5497 19.2827C14.8497 19.1827 15.1397 19.0727 15.4297 18.9327C15.4397 18.9327 15.4597 18.9227 15.4697 18.9127C15.7297 18.7927 15.9797 18.6527 16.2297 18.4927C16.2297 18.4927 16.2397 18.4727 16.2497 18.4727C16.2697 18.4627 16.2872 18.4527 16.3047 18.4427C16.3222 18.4327 16.3397 18.4227 16.3597 18.4127C16.6397 18.2327 16.7197 17.8627 16.5297 17.5827C16.3497 17.3027 15.9797 17.2227 15.6997 17.4127L15.6597 17.4527Z" fill="#333333"/>
<path d="M11.9696 7.88281C11.6396 7.88281 11.3696 8.15281 11.3696 8.48281V11.9828C11.3696 12.3128 11.6396 12.5828 11.9696 12.5828H13.9696C14.2996 12.5828 14.5696 12.3128 14.5696 11.9828C14.5696 11.6528 14.2996 11.3828 13.9696 11.3828H12.5696V8.48281C12.5696 8.15281 12.2996 7.88281 11.9696 7.88281Z" fill="#333333"/>
<path d="M19.4197 5.67305L21.4197 7.67305C21.6497 7.91305 21.6497 8.29305 21.4197 8.52305C21.1797 8.75305 20.7997 8.75305 20.5697 8.52305L19.5897 7.54305V16.093C19.5897 16.423 19.3197 16.693 18.9897 16.693C18.6597 16.693 18.3897 16.423 18.3897 16.093V7.54305L17.4097 8.52305C17.1697 8.75305 16.7897 8.75305 16.5597 8.52305C16.3297 8.28305 16.3297 7.90305 16.5597 7.67305L18.5597 5.67305C18.6197 5.61305 18.6897 5.57305 18.7597 5.54305C18.9097 5.48305 19.0697 5.48305 19.2197 5.54305C19.2997 5.57305 19.3597 5.61305 19.4197 5.67305Z" fill="#333333"/>
</svg>
