<svg width="24" height="24" viewBox="0 0 24 24" fill="none" xmlns="http://www.w3.org/2000/svg">
<path fill-rule="evenodd" clip-rule="evenodd" d="M12.6696 6.4596C12.6696 6.21835 12.3993 6.07577 12.2002 6.21202L7.90235 9.15298C7.80236 9.2214 7.68399 9.25795 7.56283 9.25781C6.70857 9.25682 5.98792 9.25713 5.22469 9.25746C5.10847 9.25751 4.99125 9.25756 4.87243 9.25761C4.70644 9.25767 4.5721 9.39224 4.5721 9.55781L4.57207 14.432C4.57207 14.5975 4.70641 14.7321 4.87238 14.7322C4.99109 14.7322 5.1082 14.7323 5.22432 14.7323C5.98767 14.7326 6.70844 14.7329 7.56285 14.732C7.68214 14.7318 7.79877 14.7673 7.89782 14.8337L12.2025 17.7221C12.4018 17.8558 12.6696 17.713 12.6696 17.4729V6.4596ZM11.5225 5.22168C12.5181 4.54047 13.8696 5.25332 13.8696 6.4596V17.4729C13.8696 18.673 12.5304 19.3872 11.5339 18.7185L7.38116 15.9322C6.60447 15.9329 5.93199 15.9326 5.22367 15.9323C5.10759 15.9323 4.99055 15.9322 4.87193 15.9322C4.04379 15.9318 3.37206 15.2605 3.37207 14.432L3.3721 9.5578C3.37211 8.72926 4.04383 8.05793 4.87196 8.05761C4.99071 8.05756 5.10788 8.05751 5.22409 8.05746C5.93134 8.05715 6.60289 8.05686 7.37817 8.05761L11.5225 5.22168Z" fill="#333333"/>
<path fill-rule="evenodd" clip-rule="evenodd" d="M16.8392 6.16499C17.0506 5.90981 17.4288 5.87432 17.684 6.08572C19.5503 7.63178 20.6275 9.75564 20.6275 12.0003C20.6275 14.2449 19.5502 16.3687 17.684 17.9148C17.4289 18.1262 17.0506 18.0908 16.8392 17.8356C16.6278 17.5804 16.6633 17.2022 16.9185 16.9908C18.5433 15.6446 19.4275 13.8459 19.4275 12.0003C19.4275 10.1546 18.5433 8.35586 16.9185 7.0098C16.6633 6.7984 16.6278 6.42017 16.8392 6.16499Z" fill="#333333"/>
<path fill-rule="evenodd" clip-rule="evenodd" d="M15.1879 8.31498C15.3993 8.0598 15.7775 8.02431 16.0327 8.23571C17.2107 9.2116 17.9012 10.5621 17.9012 12.0004C17.9012 13.4386 17.2106 14.7891 16.0327 15.765C15.7775 15.9764 15.3993 15.9409 15.1879 15.6858C14.9765 15.4306 15.0119 15.0524 15.2671 14.841C16.2037 14.065 16.7012 13.0396 16.7012 12.0004C16.7012 10.9611 16.2037 9.93568 15.2671 9.1598C15.0119 8.9484 14.9765 8.57016 15.1879 8.31498Z" fill="#333333"/>
</svg>
