<svg width="24" height="24" viewBox="0 0 24 24" fill="none" xmlns="http://www.w3.org/2000/svg">
<path fill-rule="evenodd" clip-rule="evenodd" d="M8 8.10044L12.14 5.26044H12.15C13.15 4.58044 14.5 5.29044 14.5 6.50044V17.5104C14.5 18.7104 13.16 19.4304 12.16 18.7604L8.01 15.9704H5.5C4.67 15.9704 4 15.3004 4 14.4704V9.60044C4 8.77044 4.67 8.10044 5.5 8.10044H8ZM12.82 17.7704C13.02 17.9004 13.29 17.7604 13.29 17.5204L13.3 17.5304V6.52044C13.3 6.27044 13.03 6.13044 12.83 6.27044L8.53 9.21044C8.43 9.27044 8.31 9.31044 8.19 9.31044H5.5C5.33 9.31044 5.2 9.44044 5.2 9.61044V14.4804C5.2 14.6504 5.33 14.7804 5.5 14.7804H8.19C8.3 14.7804 8.42 14.8104 8.52 14.8804L12.82 17.7704Z" fill="#333333"/>
<path d="M20.8201 10.46L19.2401 12.04L20.8201 13.62C21.0501 13.86 21.0601 14.24 20.8201 14.47C20.5801 14.7 20.2001 14.7 19.9701 14.47L18.3901 12.89L16.8101 14.47C16.5701 14.7 16.1901 14.71 15.9601 14.47C15.7301 14.23 15.7301 13.85 15.9601 13.62L17.5401 12.04L15.9601 10.46C15.7301 10.22 15.7301 9.84 15.9601 9.61C16.2001 9.38 16.5801 9.38 16.8101 9.61L18.3901 11.19L19.9701 9.61C20.2101 9.38 20.5901 9.38 20.8201 9.61C21.0501 9.85 21.0501 10.23 20.8201 10.46Z" fill="#333333"/>
</svg>
