<svg width="24" height="24" viewBox="0 0 24 24" fill="none" xmlns="http://www.w3.org/2000/svg">
<path fill-rule="evenodd" clip-rule="evenodd" d="M18.25 5.65106L7.10996 9.78106L5.05996 9.01106C4.40996 8.76106 3.70996 9.25106 3.70996 9.95106V14.0611C3.70996 14.7611 4.40996 15.2411 5.05996 15.0011L7.17996 14.2111L8.15996 14.5011V17.3911C8.15996 18.0011 8.64996 18.4911 9.25996 18.4911H13.26C13.87 18.4911 14.36 18.0011 14.36 17.3911V16.3411L18.33 17.5211C19.16 17.7711 20 17.1411 20 16.2711V6.87106C20 5.96106 19.1 5.34106 18.25 5.65106ZM4.90996 13.7711V10.2311L6.49996 10.8311V13.1711L4.90996 13.7711ZM13.16 17.2811H9.35996V14.8511L13.16 15.9811V17.2911V17.2811ZM18.8 16.2611C18.8 16.3311 18.74 16.3711 18.67 16.3611L7.69996 13.1111V10.8411L18.67 6.78106C18.67 6.78106 18.71 6.78106 18.72 6.78106C18.73 6.78106 18.75 6.78106 18.76 6.80106C18.78 6.81106 18.79 6.82106 18.79 6.84106C18.79 6.84106 18.8 6.86106 18.8 6.89106V16.2811V16.2611Z" fill="#333333"/>
</svg>
