<svg width="24" height="24" viewBox="0 0 24 24" fill="none" xmlns="http://www.w3.org/2000/svg">
<path fill-rule="evenodd" clip-rule="evenodd" d="M13.3603 6.43652C11.7299 6.43652 10.4082 7.7582 10.4082 9.38857V14.2821C10.4082 15.9125 11.7299 17.2342 13.3603 17.2342C14.9906 17.2342 16.3123 15.9125 16.3123 14.2821V9.38857C16.3123 7.7582 14.9906 6.43652 13.3603 6.43652ZM11.6082 9.38857C11.6082 8.42094 12.3926 7.63652 13.3603 7.63652C14.3279 7.63652 15.1123 8.42094 15.1123 9.38857V14.2821C15.1123 15.2498 14.3279 16.0342 13.3603 16.0342C12.3926 16.0342 11.6082 15.2498 11.6082 14.2821V9.38857Z" fill="#909090"/>
<path d="M6.87635 6.88226C7.08446 6.98209 7.21686 7.19244 7.21686 7.42325V16.5795C7.21686 16.9109 6.94823 17.1795 6.61686 17.1795C6.28548 17.1795 6.01686 16.9109 6.01686 16.5795V8.67413L4.42528 9.95148C4.16685 10.1589 3.7892 10.1175 3.58179 9.85909C3.37438 9.60066 3.41575 9.22302 3.67418 9.01561L6.24131 6.95531C6.42131 6.81084 6.66824 6.78244 6.87635 6.88226Z" fill="#909090"/>
<path d="M21.0275 10.4662C21.2664 10.6958 21.2739 11.0756 21.0443 11.3146L20.1938 12.1996L21.0443 13.0847C21.2739 13.3236 21.2664 13.7034 21.0275 13.933C20.7885 14.1626 20.4087 14.1551 20.1791 13.9161L19.3617 13.0655L18.5443 13.9161C18.3147 14.1551 17.9349 14.1626 17.696 13.933C17.4571 13.7034 17.4495 13.3236 17.6791 13.0847L18.5296 12.1996L17.6791 11.3146C17.4495 11.0756 17.4571 10.6958 17.696 10.4662C17.9349 10.2366 18.3147 10.2442 18.5443 10.4831L19.3617 11.3337L20.1791 10.4831C20.4087 10.2442 20.7885 10.2366 21.0275 10.4662Z" fill="#909090"/>
<path d="M9.14443 17.1326C9.52542 17.1326 9.83428 16.8238 9.83428 16.4428C9.83428 16.0618 9.52542 15.7529 9.14443 15.7529C8.76344 15.7529 8.45459 16.0618 8.45459 16.4428C8.45459 16.8238 8.76344 17.1326 9.14443 17.1326Z" fill="#909090"/>
</svg>
