<svg width="24" height="24" viewBox="0 0 24 24" fill="none" xmlns="http://www.w3.org/2000/svg">
<path fill-rule="evenodd" clip-rule="evenodd" d="M3.31494 9.38662C3.31494 7.75625 4.63662 6.43457 6.26699 6.43457C7.89736 6.43457 9.21904 7.75625 9.21904 9.38662V14.2802C9.21904 15.9105 7.89736 17.2322 6.26699 17.2322C4.63662 17.2322 3.31494 15.9105 3.31494 14.2802V9.38662ZM6.26699 7.63457C5.29936 7.63457 4.51494 8.41899 4.51494 9.38662V14.2802C4.51494 15.2478 5.29936 16.0322 6.26699 16.0322C7.23462 16.0322 8.01904 15.2478 8.01904 14.2802V9.38662C8.01904 8.41899 7.23462 7.63457 6.26699 7.63457Z" fill="#909090"/>
<path d="M21.0275 10.4652C21.2664 10.6948 21.2739 11.0747 21.0443 11.3136L20.1938 12.1986L21.0443 13.0837C21.2739 13.3226 21.2664 13.7024 21.0275 13.932C20.7885 14.1616 20.4087 14.1541 20.1791 13.9152L19.3617 13.0646L18.5443 13.9152C18.3147 14.1541 17.9349 14.1616 17.696 13.932C17.4571 13.7024 17.4495 13.3226 17.6791 13.0837L18.5296 12.1986L17.6791 11.3136C17.4495 11.0747 17.4571 10.6948 17.696 10.4652C17.9349 10.2356 18.3147 10.2432 18.5443 10.4821L19.3617 11.3327L20.1791 10.4821C20.4087 10.2432 20.7885 10.2356 21.0275 10.4652Z" fill="#909090"/>
<path d="M10.6215 17.1326C11.0025 17.1326 11.3113 16.8238 11.3113 16.4428C11.3113 16.0618 11.0025 15.7529 10.6215 15.7529C10.2405 15.7529 9.93164 16.0618 9.93164 16.4428C9.93164 16.8238 10.2405 17.1326 10.6215 17.1326Z" fill="#909090"/>
<path d="M11.4398 6.63574C11.1085 6.63574 10.8398 6.90437 10.8398 7.23574C10.8398 7.56711 11.1085 7.83574 11.4398 7.83574H15.1163L12.8372 16.3044C12.7511 16.6244 12.9406 16.9536 13.2606 17.0397C13.5806 17.1259 13.9098 16.9363 13.9959 16.6163L16.4785 7.39167C16.527 7.21143 16.4888 7.01889 16.3753 6.87075C16.2617 6.7226 16.0857 6.63574 15.8991 6.63574H11.4398Z" fill="#909090"/>
</svg>
