<svg width="24" height="24" viewBox="0 0 24 24" fill="none" xmlns="http://www.w3.org/2000/svg">
<path d="M11.1234 6.63672C10.7921 6.63672 10.5234 6.90535 10.5234 7.23672C10.5234 7.56809 10.7921 7.83672 11.1234 7.83672H14.7998L12.5208 16.3054C12.4346 16.6254 12.6242 16.9546 12.9442 17.0407C13.2642 17.1268 13.5934 16.9372 13.6795 16.6173L16.1621 7.39264C16.2106 7.21241 16.1724 7.01986 16.0589 6.87172C15.9453 6.72358 15.7693 6.63672 15.5827 6.63672H11.1234Z" fill="#909090"/>
<path d="M6.87635 6.88129C7.08446 6.98111 7.21686 7.19146 7.21686 7.42227V16.5785C7.21686 16.9099 6.94823 17.1785 6.61686 17.1785C6.28548 17.1785 6.01686 16.9099 6.01686 16.5785V8.67315L4.42528 9.9505C4.16685 10.1579 3.7892 10.1165 3.58179 9.85812C3.37438 9.59968 3.41575 9.22204 3.67418 9.01463L6.24131 6.95434C6.42131 6.80987 6.66824 6.78146 6.87635 6.88129Z" fill="#909090"/>
<path d="M21.0275 10.4652C21.2664 10.6948 21.2739 11.0747 21.0443 11.3136L20.1938 12.1986L21.0443 13.0837C21.2739 13.3226 21.2664 13.7024 21.0275 13.932C20.7885 14.1616 20.4087 14.1541 20.1791 13.9152L19.3617 13.0646L18.5443 13.9152C18.3147 14.1541 17.9349 14.1616 17.696 13.932C17.4571 13.7024 17.4495 13.3226 17.6791 13.0837L18.5296 12.1986L17.6791 11.3136C17.4495 11.0747 17.4571 10.6948 17.696 10.4652C17.9349 10.2356 18.3147 10.2432 18.5443 10.4821L19.3617 11.3327L20.1791 10.4821C20.4087 10.2432 20.7885 10.2356 21.0275 10.4652Z" fill="#909090"/>
<path d="M9.64297 17.1316C10.024 17.1316 10.3328 16.8228 10.3328 16.4418C10.3328 16.0608 10.024 15.752 9.64297 15.752C9.26198 15.752 8.95312 16.0608 8.95312 16.4418C8.95312 16.8228 9.26198 17.1316 9.64297 17.1316Z" fill="#909090"/>
</svg>
