<svg width="24" height="24" viewBox="0 0 24 24" fill="none" xmlns="http://www.w3.org/2000/svg">
<path d="M11.7671 6.63672C11.4357 6.63672 11.1671 6.90535 11.1671 7.23672V10.7941C11.1671 11.1255 11.4357 11.3941 11.7671 11.3941H13.2188C14.5739 11.3941 15.6339 12.4411 15.6339 13.7586C15.6339 15.076 14.5739 16.123 13.2188 16.123C12.7592 16.123 12.4091 16.0288 12.0485 15.8374C11.7558 15.682 11.3926 15.7933 11.2372 16.0859C11.0818 16.3786 11.1931 16.7419 11.4857 16.8972C12.0185 17.1801 12.5617 17.323 13.2188 17.323C15.2139 17.323 16.8339 15.7613 16.8339 13.7586C16.8339 11.7558 15.2139 10.1941 13.2188 10.1941L12.3671 10.1941V7.83672L15.5639 7.83672C15.8953 7.83672 16.1639 7.56809 16.1639 7.23672C16.1639 6.90535 15.8953 6.63672 15.5639 6.63672H11.7671Z" fill="#909090"/>
<path d="M6.87635 6.88129C7.08446 6.98111 7.21686 7.19146 7.21686 7.42227V16.5785C7.21686 16.9099 6.94823 17.1785 6.61686 17.1785C6.28548 17.1785 6.01686 16.9099 6.01686 16.5785V8.67315L4.42528 9.9505C4.16685 10.1579 3.7892 10.1165 3.58179 9.85812C3.37438 9.59968 3.41575 9.22204 3.67418 9.01463L6.24131 6.95434C6.42131 6.80987 6.66824 6.78146 6.87635 6.88129Z" fill="#909090"/>
<path d="M21.0275 10.4652C21.2664 10.6948 21.2739 11.0747 21.0443 11.3136L20.1938 12.1986L21.0443 13.0837C21.2739 13.3226 21.2664 13.7024 21.0275 13.932C20.7885 14.1616 20.4087 14.1541 20.1791 13.9152L19.3617 13.0646L18.5443 13.9152C18.3147 14.1541 17.9349 14.1616 17.696 13.932C17.4571 13.7024 17.4495 13.3226 17.6791 13.0837L18.5296 12.1986L17.6791 11.3136C17.4495 11.0747 17.4571 10.6948 17.696 10.4652C17.9349 10.2356 18.3147 10.2432 18.5443 10.4821L19.3617 11.3327L20.1791 10.4821C20.4087 10.2432 20.7885 10.2356 21.0275 10.4652Z" fill="#909090"/>
<path d="M9.28555 17.1316C9.66654 17.1316 9.97539 16.8228 9.97539 16.4418C9.97539 16.0608 9.66654 15.752 9.28555 15.752C8.90456 15.752 8.5957 16.0608 8.5957 16.4418C8.5957 16.8228 8.90456 17.1316 9.28555 17.1316Z" fill="#909090"/>
</svg>
