<svg width="24" height="24" viewBox="0 0 24 24" fill="none" xmlns="http://www.w3.org/2000/svg">
<path d="M16.7167 9.51162C16.7167 8.67842 16.4531 7.98923 16.0021 7.47706C15.556 6.97038 14.9572 6.67143 14.3387 6.55614C13.1271 6.33033 11.7016 6.79489 11.0166 8.00318C10.8532 8.29145 10.9544 8.65762 11.2427 8.82103C11.531 8.98445 11.8971 8.88323 12.0605 8.59496C12.4452 7.91638 13.3087 7.58484 14.1188 7.73583C14.5111 7.80894 14.8563 7.99162 15.1015 8.27005C15.3418 8.54301 15.5167 8.94243 15.5167 9.51162C15.5167 9.80751 15.3811 10.167 15.0667 10.6356C14.7546 11.1008 14.32 11.5976 13.8135 12.173L13.7643 12.2289C12.7876 13.338 11.592 14.6958 10.9755 16.3705C10.9078 16.5546 10.9343 16.7601 11.0465 16.921C11.1587 17.0819 11.3424 17.1778 11.5386 17.1778H16.1167C16.4481 17.1778 16.7167 16.9091 16.7167 16.5778C16.7167 16.2464 16.4481 15.9778 16.1167 15.9778H12.4615C13.0413 14.8685 13.8943 13.8972 14.7142 12.9659C15.2068 12.4064 15.6986 11.8476 16.0632 11.3041C16.4255 10.7641 16.7167 10.1622 16.7167 9.51162Z" fill="#909090"/>
<path d="M6.87635 6.88226C7.08446 6.98209 7.21686 7.19244 7.21686 7.42325V16.5795C7.21686 16.9109 6.94823 17.1795 6.61686 17.1795C6.28548 17.1795 6.01686 16.9109 6.01686 16.5795V8.67413L4.42528 9.95148C4.16685 10.1589 3.7892 10.1175 3.58179 9.85909C3.37438 9.60066 3.41575 9.22302 3.67418 9.01561L6.24131 6.95531C6.42131 6.81084 6.66824 6.78244 6.87635 6.88226Z" fill="#909090"/>
<path d="M21.0275 10.4662C21.2664 10.6958 21.2739 11.0756 21.0443 11.3146L20.1938 12.1996L21.0443 13.0847C21.2739 13.3236 21.2664 13.7034 21.0275 13.933C20.7885 14.1626 20.4087 14.1551 20.1791 13.9161L19.3617 13.0655L18.5443 13.9161C18.3147 14.1551 17.9349 14.1626 17.696 13.933C17.4571 13.7034 17.4495 13.3236 17.6791 13.0847L18.5296 12.1996L17.6791 11.3146C17.4495 11.0756 17.4571 10.6958 17.696 10.4662C17.9349 10.2366 18.3147 10.2442 18.5443 10.4831L19.3617 11.3337L20.1791 10.4831C20.4087 10.2442 20.7885 10.2366 21.0275 10.4662Z" fill="#909090"/>
<path d="M9.14443 17.1326C9.52542 17.1326 9.83428 16.8238 9.83428 16.4428C9.83428 16.0618 9.52542 15.7529 9.14443 15.7529C8.76344 15.7529 8.45459 16.0618 8.45459 16.4428C8.45459 16.8238 8.76344 17.1326 9.14443 17.1326Z" fill="#909090"/>
</svg>
