<svg width="24" height="24" viewBox="0 0 24 24" fill="none" xmlns="http://www.w3.org/2000/svg">
<path fill-rule="evenodd" clip-rule="evenodd" d="M13.7245 6.43555C12.0941 6.43555 10.7725 7.75722 10.7725 9.3876V14.2812C10.7725 15.9115 12.0941 17.2332 13.7245 17.2332C15.3549 17.2332 16.6766 15.9115 16.6766 14.2812V9.3876C16.6766 7.75723 15.3549 6.43555 13.7245 6.43555ZM11.9725 9.3876C11.9725 8.41997 12.7569 7.63555 13.7245 7.63555C14.6921 7.63555 15.4766 8.41997 15.4766 9.3876V14.2812C15.4766 15.2488 14.6921 16.0332 13.7245 16.0332C12.7569 16.0332 11.9725 15.2488 11.9725 14.2812V9.3876Z" fill="#909090"/>
<path d="M8.10661 7.47706C8.55755 7.98923 8.8212 8.67842 8.8212 9.51162C8.8212 10.1622 8.52999 10.7641 8.16771 11.3041C7.80314 11.8476 7.3113 12.4064 6.8187 12.9659C5.99883 13.8972 5.14582 14.8685 4.56603 15.9778H8.2212C8.55257 15.9778 8.8212 16.2464 8.8212 16.5778C8.8212 16.9091 8.55257 17.1778 8.2212 17.1778H3.64307C3.44693 17.1778 3.26317 17.0819 3.15096 16.921C3.03875 16.7601 3.01225 16.5546 3.08001 16.3705C3.69646 14.6958 4.89208 13.338 5.86881 12.2289L5.91801 12.173C6.42454 11.5976 6.85912 11.1008 7.17119 10.6356C7.48555 10.167 7.6212 9.80751 7.6212 9.51162C7.6212 8.94243 7.44629 8.54301 7.20596 8.27005C6.96081 7.99162 6.61558 7.80894 6.22331 7.73583C5.41323 7.58484 4.54971 7.91638 4.16504 8.59496C4.00162 8.88323 3.63545 8.98445 3.34718 8.82103C3.05891 8.65762 2.95769 8.29145 3.12111 8.00318C3.80606 6.79489 5.23161 6.33033 6.44318 6.55614C7.06174 6.67143 7.66049 6.97038 8.10661 7.47706Z" fill="#909090"/>
<path d="M21.1857 10.4662C21.4246 10.6958 21.4322 11.0756 21.2025 11.3146L20.3521 12.1996L21.2025 13.0847C21.4322 13.3236 21.4246 13.7034 21.1857 13.933C20.9467 14.1626 20.5669 14.1551 20.3373 13.9161L19.5199 13.0655L18.7025 13.9161C18.4729 14.1551 18.0931 14.1626 17.8542 13.933C17.6153 13.7034 17.6077 13.3236 17.8373 13.0847L18.6878 12.1996L17.8373 11.3146C17.6077 11.0756 17.6153 10.6958 17.8542 10.4662C18.0931 10.2366 18.4729 10.2442 18.7025 10.4831L19.5199 11.3337L20.3373 10.4831C20.5669 10.2442 20.9467 10.2366 21.1857 10.4662Z" fill="#909090"/>
<path d="M10.0697 17.1316C10.4507 17.1316 10.7596 16.8228 10.7596 16.4418C10.7596 16.0608 10.4507 15.752 10.0697 15.752C9.68874 15.752 9.37988 16.0608 9.37988 16.4418C9.37988 16.8228 9.68874 17.1316 10.0697 17.1316Z" fill="#909090"/>
</svg>
