<svg width="24" height="24" viewBox="0 0 24 24" fill="none" xmlns="http://www.w3.org/2000/svg">
<path fill-rule="evenodd" clip-rule="evenodd" d="M3.31494 9.38662C3.31494 7.75625 4.63662 6.43457 6.26699 6.43457C7.89736 6.43457 9.21904 7.75625 9.21904 9.38662V14.2802C9.21904 15.9105 7.89736 17.2322 6.26699 17.2322C4.63662 17.2322 3.31494 15.9105 3.31494 14.2802V9.38662ZM6.26699 7.63457C5.29936 7.63457 4.51494 8.41899 4.51494 9.38662V14.2802C4.51494 15.2478 5.29936 16.0322 6.26699 16.0322C7.23462 16.0322 8.01904 15.2478 8.01904 14.2802V9.38662C8.01904 8.41899 7.23462 7.63457 6.26699 7.63457Z" fill="#909090"/>
<path d="M21.0275 10.4652C21.2664 10.6948 21.2739 11.0747 21.0443 11.3136L20.1938 12.1986L21.0443 13.0837C21.2739 13.3226 21.2664 13.7024 21.0275 13.932C20.7885 14.1616 20.4087 14.1541 20.1791 13.9152L19.3617 13.0646L18.5443 13.9152C18.3147 14.1541 17.9349 14.1616 17.696 13.932C17.4571 13.7024 17.4495 13.3226 17.6791 13.0837L18.5296 12.1986L17.6791 11.3136C17.4495 11.0747 17.4571 10.6948 17.696 10.4652C17.9349 10.2356 18.3147 10.2432 18.5443 10.4821L19.3617 11.3327L20.1791 10.4821C20.4087 10.2432 20.7885 10.2356 21.0275 10.4652Z" fill="#909090"/>
<path d="M9.95352 17.1326C10.3345 17.1326 10.6434 16.8238 10.6434 16.4428C10.6434 16.0618 10.3345 15.7529 9.95352 15.7529C9.57253 15.7529 9.26367 16.0618 9.26367 16.4428C9.26367 16.8238 9.57253 17.1326 9.95352 17.1326Z" fill="#909090"/>
<path d="M11.7671 6.63574C11.4357 6.63574 11.1671 6.90437 11.1671 7.23574V10.7931C11.1671 11.1245 11.4357 11.3931 11.7671 11.3931H13.2188C14.5739 11.3931 15.6339 12.4401 15.6339 13.7576C15.6339 15.0751 14.5739 16.1221 13.2188 16.1221C12.7592 16.1221 12.4091 16.0279 12.0485 15.8364C11.7558 15.681 11.3926 15.7923 11.2372 16.085C11.0818 16.3776 11.1931 16.7409 11.4857 16.8963C12.0185 17.1791 12.5617 17.3221 13.2188 17.3221C15.2139 17.3221 16.8339 15.7603 16.8339 13.7576C16.8339 11.7549 15.2139 10.1931 13.2188 10.1931L12.3671 10.1931V7.83574L15.5639 7.83574C15.8953 7.83574 16.1639 7.56711 16.1639 7.23574C16.1639 6.90437 15.8953 6.63574 15.5639 6.63574L11.7671 6.63574Z" fill="#909090"/>
</svg>
