<svg width="24" height="24" viewBox="0 0 24 24" fill="none" xmlns="http://www.w3.org/2000/svg">
<path d="M9.50407 4.30493C11.2734 3.73594 13.1846 3.79273 14.917 4.46578C15.2259 4.58578 15.379 4.93345 15.259 5.24233C15.139 5.55121 14.7914 5.70433 14.4825 5.58433C13.0067 5.011 11.3787 4.96262 9.87143 5.44731C8.36422 5.932 7.06953 6.92028 6.20456 8.24635C5.33959 9.57242 4.95697 11.1556 5.12088 12.7303C5.28478 14.3051 5.98525 15.7755 7.10476 16.8951C8.22428 18.0146 9.69474 18.715 11.2695 18.8789C12.8442 19.0428 14.4274 18.6602 15.7535 17.7953C17.0795 16.9303 18.0678 15.6356 18.5525 14.1284C19.0372 12.6212 18.9888 10.9931 18.4155 9.51733C18.2955 9.20845 18.4486 8.86078 18.7575 8.74078C19.0664 8.62078 19.414 8.7739 19.534 9.08278C20.2071 10.8152 20.2639 12.7264 19.6949 14.4958C19.1259 16.2651 17.9658 17.7849 16.4091 18.8003C14.8524 19.8157 12.9938 20.2649 11.1452 20.0725C9.29665 19.8801 7.57045 19.0578 6.25624 17.7436C4.94202 16.4294 4.11974 14.7032 3.92733 12.8546C3.73491 11.006 4.18408 9.14745 5.19948 7.59076C6.21487 6.03406 7.73472 4.87391 9.50407 4.30493Z" fill="#909090"/>
<path fill-rule="evenodd" clip-rule="evenodd" d="M12.9988 10.1524C12.7017 9.99144 12.3614 9.90002 11.9998 9.90002C10.84 9.90002 9.89978 10.8402 9.89978 12C9.89978 13.1598 10.84 14.1 11.9998 14.1C13.1596 14.1 14.0998 13.1598 14.0998 12C14.0998 11.6384 14.0084 11.2981 13.8474 11.001L17.674 7.17429C17.9083 6.93997 17.9083 6.56008 17.674 6.32576C17.4397 6.09145 17.0598 6.09145 16.8255 6.32576L12.9988 10.1524ZM11.9998 11.1C11.5027 11.1 11.0998 11.503 11.0998 12C11.0998 12.4971 11.5027 12.9 11.9998 12.9C12.4968 12.9 12.8998 12.4971 12.8998 12C12.8998 11.7891 12.8272 11.5951 12.7057 11.4417C12.6775 11.4219 12.6507 11.3995 12.6255 11.3743C12.6003 11.3491 12.5779 11.3223 12.5581 11.2941C12.4047 11.1726 12.2107 11.1 11.9998 11.1Z" fill="#909090"/>
</svg>
