<svg width="24" height="24" viewBox="0 0 24 24" fill="none" xmlns="http://www.w3.org/2000/svg">
<path fill-rule="evenodd" clip-rule="evenodd" d="M10.3179 10.0419L10.0987 10.1865C9.95845 10.279 9.84379 10.4054 9.76528 10.5539L8.8319 12.3199C8.77704 12.4237 8.70363 12.5114 8.6179 12.581C8.36292 12.788 7.99899 12.8352 7.6903 12.6721C7.27781 12.4541 7.12016 11.943 7.33817 11.5305L8.49229 9.3468C8.55861 9.22132 8.65547 9.11458 8.77393 9.03642L10.7107 7.7586C10.9172 7.62232 11.1731 7.58346 11.4108 7.65227L12.9767 8.10562C13.1944 8.16863 13.3776 8.31644 13.4852 8.51585L14.467 10.335C14.6107 10.6013 14.8674 10.7882 15.165 10.8433L16.522 11.0946C16.9808 11.1795 17.2838 11.6202 17.1989 12.079C17.1139 12.5377 16.6732 12.8408 16.2144 12.7559L13.9892 12.3439C13.9526 12.3371 13.9167 12.328 13.8818 12.3166C13.6767 12.25 13.5033 12.1067 13.3995 11.9144L12.9063 11.0005L12.5409 12.9619L14.6119 15.0376C14.7699 15.196 14.8587 15.4106 14.8587 15.6343V19.1552C14.8587 19.6218 14.4805 20 14.0139 20C13.5474 20 13.1692 19.6218 13.1692 19.1552V16.3972C13.1692 16.1324 13.0641 15.8784 12.8771 15.6909L11.2747 14.0849L10.8522 16.3258C10.8249 16.4705 10.7603 16.6055 10.6648 16.7175L8.27443 19.5199C7.97166 19.8749 7.43847 19.9172 7.0835 19.6144C6.72854 19.3116 6.68623 18.7784 6.989 18.4235L9.06097 15.9943C9.17405 15.8617 9.25053 15.7019 9.28282 15.5307L10.3179 10.0419ZM8.35943 13.9516C7.95096 14.0073 7.52184 13.9403 7.12957 13.733C6.13115 13.2053 5.74954 11.9682 6.27723 10.9697L7.43135 8.78607C7.59188 8.48235 7.82633 8.22397 8.11307 8.03479L10.0498 6.75697C10.1473 6.69265 10.2493 6.6373 10.3546 6.5911C10.158 6.22777 10.0463 5.8117 10.0463 5.36955C10.0463 3.95032 11.1968 2.7998 12.616 2.7998C14.0353 2.7998 15.1858 3.95032 15.1858 5.36955C15.1858 6.21462 14.7779 6.96441 14.1482 7.43278C14.3042 7.58053 14.4373 7.75328 14.5413 7.94593L15.4775 9.6808L16.7404 9.91461C17.8509 10.1202 18.5844 11.187 18.3788 12.2974C18.1732 13.4078 17.1064 14.1414 15.996 13.9358L15.0291 13.7568L15.4614 14.1901C15.8439 14.5734 16.0587 15.0928 16.0587 15.6343V19.1552C16.0587 20.2845 15.1432 21.2 14.0139 21.2C12.8846 21.2 11.9692 20.2845 11.9692 19.1552V16.7936C11.8868 17.0506 11.754 17.2896 11.5778 17.4962L9.18743 20.2986C8.45457 21.1578 7.16395 21.2602 6.30476 20.5274C5.44556 19.7945 5.34315 18.5039 6.076 17.6447L8.11346 15.256L8.35943 13.9516ZM12.5698 6.73854C12.5852 6.73905 12.6006 6.7393 12.616 6.7393C13.3725 6.7393 13.9858 6.12605 13.9858 5.36955C13.9858 4.61306 13.3725 3.9998 12.616 3.9998C11.8596 3.9998 11.2463 4.61306 11.2463 5.36955C11.2463 5.87316 11.5181 6.31329 11.923 6.55127C12.1138 6.66346 12.3343 6.73073 12.5698 6.73854Z" fill="#333333"/>
</svg>
