<svg width="24" height="24" viewBox="0 0 24 24" fill="none" xmlns="http://www.w3.org/2000/svg">
<path fill-rule="evenodd" clip-rule="evenodd" d="M8.38086 12.1371C8.38086 11.2535 9.0972 10.5371 9.98086 10.5371H17.3286C17.893 10.5371 18.4156 10.8344 18.704 11.3195L19.8929 13.3195C20.1924 13.8234 20.1924 14.4508 19.8929 14.9547L18.704 16.9547C18.4156 17.4398 17.893 17.7371 17.3286 17.7371H9.98086C9.09721 17.7371 8.38086 17.0208 8.38086 16.1371V12.1371ZM9.98086 11.7371C9.75995 11.7371 9.58086 11.9162 9.58086 12.1371V16.1371C9.58086 16.358 9.75995 16.5371 9.98086 16.5371H17.3286C17.4697 16.5371 17.6004 16.4628 17.6725 16.3415L18.8614 14.3415C18.9362 14.2155 18.9362 14.0587 18.8614 13.9327L17.6725 11.9327C17.6004 11.8114 17.4697 11.7371 17.3286 11.7371H9.98086Z" fill="#333333"/>
<path fill-rule="evenodd" clip-rule="evenodd" d="M3.88086 6.93711C3.88086 6.16391 4.50766 5.53711 5.28086 5.53711H12.7714C13.2693 5.53711 13.7298 5.80158 13.9807 6.23169L15.2408 8.39202C15.4078 8.67825 15.3111 9.04564 15.0249 9.21261C14.7387 9.37958 14.3713 9.2829 14.2043 8.99667L12.9441 6.83634C12.9083 6.77489 12.8425 6.73711 12.7714 6.73711H5.28086C5.1704 6.73711 5.08086 6.82665 5.08086 6.93711V11.3371C5.08086 11.4476 5.1704 11.5371 5.28086 11.5371H6.38985C6.72122 11.5371 6.98985 11.8057 6.98985 12.1371C6.98985 12.4685 6.72122 12.7371 6.38985 12.7371H5.28086C4.50766 12.7371 3.88086 12.1103 3.88086 11.3371V6.93711Z" fill="#333333"/>
</svg>
