<svg width="24" height="24" viewBox="0 0 24 24" fill="none" xmlns="http://www.w3.org/2000/svg">
<path fill-rule="evenodd" clip-rule="evenodd" d="M3.98242 8.03809C3.98242 6.93352 4.87785 6.03809 5.98242 6.03809H14.9735C15.6121 6.03809 16.2123 6.34307 16.5889 6.85889L19.5388 10.9C20.0004 11.5323 20.0004 12.3904 19.5388 13.0226L16.5889 17.0638C16.2123 17.5796 15.6121 17.8846 14.9735 17.8846H5.98242C4.87785 17.8846 3.98242 16.9891 3.98242 15.8846V8.03809ZM5.98242 7.23809C5.54059 7.23809 5.18242 7.59626 5.18242 8.03809V15.8846C5.18242 16.3264 5.54059 16.6846 5.98242 16.6846H14.9735C15.2289 16.6846 15.469 16.5626 15.6196 16.3562L18.5696 12.3151C18.7234 12.1043 18.7234 11.8183 18.5696 11.6076L15.6196 7.56641C15.469 7.36008 15.2289 7.23809 14.9735 7.23809H5.98242Z" fill="#333333"/>
</svg>
