<svg width="24" height="24" viewBox="0 0 24 24" fill="none" xmlns="http://www.w3.org/2000/svg">
<path fill-rule="evenodd" clip-rule="evenodd" d="M18.1299 6.42711C16.5699 5.76711 14.4399 4.86711 13.2099 4.34711C12.4399 4.01711 11.5699 4.01711 10.7999 4.34711C9.5699 4.86711 7.4199 5.76711 5.8599 6.43711C4.9699 6.81711 4.3999 7.68711 4.3999 8.64711V17.2171C4.3999 18.1571 5.1599 18.9171 6.0999 18.9171H17.8999C18.8399 18.9171 19.5999 18.1571 19.5999 17.2171V8.63711C19.5999 7.67711 19.0199 6.80711 18.1399 6.42711H18.1299ZM8.0899 13.4471H15.8899V17.7071H8.0899V13.4471ZM15.8899 12.2471H8.0899V10.4071H15.8899V12.2471ZM18.3899 17.2071C18.3899 17.4871 18.1699 17.7071 17.8899 17.7071H17.0899V10.3071C17.0899 9.69711 16.5999 9.20711 15.9899 9.20711H7.9899C7.3799 9.20711 6.8899 9.69711 6.8899 10.3071V17.7071H6.0899C5.8099 17.7071 5.5899 17.4871 5.5899 17.2071V8.63711C5.5899 8.15711 5.8799 7.71711 6.3199 7.53711C7.8799 6.87711 10.0299 5.96711 11.2599 5.45711C11.7299 5.25711 12.2599 5.25711 12.7399 5.45711C13.9699 5.97711 16.0999 6.87711 17.6599 7.53711C18.0999 7.72711 18.3899 8.15711 18.3899 8.64711V17.2171V17.2071Z" fill="#333333"/>
</svg>
