<svg width="24" height="24" viewBox="0 0 24 24" fill="none" xmlns="http://www.w3.org/2000/svg">
<path d="M11.6504 3.7596C11.5191 3.86931 11.4879 3.97289 11.4879 4.02327L11.4879 9.94269L10.088 8.54284L10.088 5.83505C10.088 5.60586 9.99613 5.48937 9.87682 5.40771C9.72951 5.30688 9.53675 5.26563 9.42543 5.26563C9.33441 5.26563 9.17314 5.30156 9.04103 5.42306C8.92515 5.52964 8.76228 5.7656 8.76228 6.30269C8.76228 6.54731 8.76208 6.85907 8.76179 7.21661L7.57282 6.02764C7.62495 5.36466 7.86731 4.87219 8.2287 4.53982C8.62217 4.17793 9.09246 4.06563 9.42543 4.06563C9.66656 4.06563 9.98256 4.12101 10.2879 4.26503L10.2879 4.02327C10.2879 3.52736 10.5543 3.11168 10.881 2.83871C11.2112 2.56286 11.6548 2.38477 12.1249 2.38477C13.0513 2.38477 13.9093 3.10592 13.9093 4.07921L13.9093 4.60322C14.1483 4.4923 14.414 4.42653 14.684 4.42653C15.1072 4.42653 15.5397 4.57728 15.8746 4.84634C16.2164 5.12088 16.4834 5.54453 16.4834 6.07566L16.4834 7.04543C16.7177 6.94931 16.9675 6.90583 17.2097 6.90583C17.6433 6.90583 18.1044 7.05807 18.4629 7.38777C18.8321 7.7274 19.0564 8.2224 19.0564 8.82859C19.0564 9.11962 19.058 9.41351 19.0597 9.71118C19.0631 10.3206 19.0667 10.9473 19.0563 11.6041L19.0559 11.6261C19.0404 12.6075 19.0313 13.188 18.8836 14.2125C18.809 14.7306 18.5307 15.6635 18.16 16.6148L17.2274 15.6822C17.4775 14.9814 17.6493 14.3648 17.6959 14.0413C17.8326 13.0926 17.8408 12.5757 17.8563 11.5952L17.8564 11.5851C17.8666 10.9406 17.8632 10.3369 17.8598 9.73512C17.8581 9.43413 17.8564 9.13357 17.8564 8.82859C17.8564 8.53391 17.7555 8.36753 17.6505 8.27099C17.5348 8.16453 17.3725 8.10582 17.2097 8.10582C17.0297 8.10582 16.8908 8.16168 16.8055 8.23711C16.7319 8.30207 16.6543 8.41868 16.6538 8.65106L16.6639 10.0194C16.6689 10.712 16.6739 11.4296 16.6739 11.5087C16.6739 11.675 16.6186 11.8708 16.4605 12.0231C16.3065 12.1715 16.1112 12.2235 15.9416 12.213C15.6086 12.1924 15.2835 11.9202 15.2835 11.5085L15.2834 6.07566C15.2834 5.97477 15.2376 5.87386 15.1231 5.78184C15.0017 5.68434 14.8345 5.62653 14.684 5.62653C14.5509 5.62653 14.3835 5.68558 14.251 5.79323C14.1151 5.90375 14.0914 5.99898 14.0914 6.03092L14.0914 10.7445C14.0914 10.9239 14.0231 11.1298 13.8451 11.2768C13.676 11.4165 13.4724 11.449 13.3051 11.4221C12.9496 11.3649 12.7093 11.0549 12.7093 10.7054L12.7093 4.07921C12.7093 3.85869 12.4823 3.58477 12.1249 3.58477C11.9532 3.58477 11.7783 3.65277 11.6504 3.7596Z" fill="#333333"/>
<path fill-rule="evenodd" clip-rule="evenodd" d="M7.56011 9.32079L5.66539 7.42603C5.43108 7.19171 5.43108 6.81181 5.6654 6.5775C5.89972 6.34319 6.27962 6.34319 6.51393 6.57751L18.3704 18.4342C18.6047 18.6685 18.6047 19.0484 18.3704 19.2828C18.1361 19.5171 17.7562 19.5171 17.5218 19.2827L17.0829 18.8438C17.0073 18.9642 16.9304 19.0784 16.8527 19.1848C16.6864 19.4128 16.5006 19.6269 16.2965 19.7894C16.0983 19.9472 15.8257 20.1015 15.4982 20.1015H9.76364C9.57033 20.1015 9.40753 20.0296 9.30493 19.9748C9.19166 19.9142 9.08164 19.8358 8.97949 19.7538C8.77453 19.5891 8.54709 19.3658 8.31169 19.1131C7.83808 18.6046 7.27993 17.92 6.72219 17.1982C5.60442 15.7517 4.45247 14.109 3.91527 13.3099C3.76011 13.0791 3.63831 12.7444 3.626 12.3906C3.61319 12.0222 3.72068 11.5796 4.09882 11.2416C4.6201 10.7756 5.17947 10.6614 5.70429 10.7668C6.17595 10.8615 6.57906 11.1282 6.84102 11.3041C7.1227 11.4933 7.36047 11.6891 7.56062 11.8769C7.55952 11.0897 7.55962 10.1872 7.56011 9.32079ZM16.2085 17.9694C16.0991 18.16 15.9901 18.3313 15.8834 18.4774C15.7507 18.6592 15.6373 18.7803 15.549 18.8506C15.5101 18.8816 15.4851 18.8957 15.4731 18.9015H9.84518C9.81907 18.8851 9.78125 18.8586 9.73094 18.8182C9.5915 18.7062 9.40921 18.5308 9.1898 18.2952C8.75378 17.8271 8.22201 17.1766 7.67174 16.4645C6.57349 15.0432 5.43706 13.4227 4.91114 12.6404C4.87796 12.5911 4.82959 12.4729 4.82528 12.3488C4.82146 12.2392 4.85087 12.1789 4.89851 12.1363C5.13814 11.9221 5.31373 11.9123 5.46811 11.9433C5.67564 11.985 5.89598 12.1149 6.17196 12.3003C6.58738 12.5793 6.88157 12.876 7.09096 13.1205C7.19655 13.2437 7.2805 13.3535 7.35354 13.449L7.36924 13.4697C7.42318 13.5408 7.51347 13.6598 7.60113 13.7361C7.61015 13.744 7.61575 13.7491 7.62387 13.7564L7.64585 13.7763L7.64713 13.7775C7.66209 13.7909 7.70003 13.825 7.74507 13.8561L7.74698 13.8575C7.77786 13.8789 7.91886 13.9769 8.12125 13.9753C8.41706 13.9729 8.5928 13.779 8.66493 13.6461C8.72227 13.5405 8.73871 13.4387 8.74476 13.3984C8.75277 13.3452 8.75651 13.291 8.75871 13.2436C8.76312 13.1482 8.76354 13.022 8.76298 12.8691C8.7606 12.2202 8.75979 11.3871 8.75976 10.5205L16.2085 17.9694Z" fill="#333333"/>
</svg>
