<svg width="24" height="24" viewBox="0 0 24 24" fill="none" xmlns="http://www.w3.org/2000/svg">
<path fill-rule="evenodd" clip-rule="evenodd" d="M11.6504 3.76058C11.5191 3.87028 11.4879 3.97386 11.4879 4.02425L11.4879 10.2011C11.4879 10.4389 11.3677 10.6321 11.2102 10.747C11.0689 10.8501 10.9115 10.8837 10.7822 10.8825C10.6524 10.8813 10.491 10.8442 10.3481 10.7316C10.1884 10.6059 10.088 10.4116 10.088 10.1934L10.088 5.83602C10.088 5.60683 9.99613 5.49034 9.87682 5.40869C9.72951 5.30786 9.53675 5.2666 9.42543 5.2666C9.33441 5.2666 9.17314 5.30253 9.04103 5.42403C8.92515 5.53061 8.76228 5.76658 8.76228 6.30366C8.76228 6.66912 8.76183 7.18441 8.76131 7.77834C8.75991 9.367 8.75802 11.5183 8.76298 12.8701C8.76354 13.023 8.76312 13.1491 8.75871 13.2445C8.75651 13.292 8.75277 13.3462 8.74476 13.3994C8.73871 13.4396 8.72227 13.5415 8.66493 13.6471C8.5928 13.78 8.41706 13.9739 8.12125 13.9763C7.91886 13.9779 7.77786 13.8799 7.74698 13.8584L7.74507 13.8571C7.69997 13.8259 7.66204 13.7918 7.64713 13.7784L7.64585 13.7773C7.6361 13.7685 7.6294 13.7624 7.62387 13.7574C7.61575 13.75 7.61015 13.745 7.60113 13.7371C7.51347 13.6607 7.42318 13.5418 7.36924 13.4707C7.36359 13.4632 7.35834 13.4563 7.35354 13.45C7.2805 13.3544 7.19655 13.2447 7.09096 13.1214C6.88157 12.877 6.58738 12.5803 6.17196 12.3013C5.89598 12.1159 5.67564 11.9859 5.46811 11.9443C5.31373 11.9133 5.13814 11.9231 4.89851 12.1373C4.85087 12.1798 4.82146 12.2402 4.82528 12.3498C4.82959 12.4739 4.87796 12.592 4.91114 12.6414C5.43706 13.4237 6.57349 15.0442 7.67174 16.4655C8.22201 17.1776 8.75378 17.8281 9.1898 18.2962C9.40921 18.5318 9.5915 18.7071 9.73094 18.8191C9.78125 18.8595 9.81907 18.8861 9.84518 18.9025H15.4731C15.4851 18.8967 15.5101 18.8826 15.549 18.8516C15.6373 18.7813 15.7507 18.6602 15.8834 18.4784C16.1476 18.1163 16.4267 17.5995 16.6896 17.0193C17.2197 15.849 17.6207 14.5642 17.6959 14.0423C17.8326 13.0936 17.8408 12.5767 17.8563 11.5961L17.8564 11.5861C17.8666 10.9415 17.8632 10.3379 17.8598 9.73606C17.8581 9.43508 17.8564 9.13455 17.8564 8.82957C17.8564 8.53489 17.7555 8.36851 17.6505 8.27197C17.5348 8.1655 17.3725 8.1068 17.2097 8.1068C17.0297 8.1068 16.8908 8.16265 16.8055 8.23809C16.7319 8.30307 16.6542 8.41974 16.6538 8.65229L16.6538 8.65403L16.6539 8.65842L16.6639 10.145C16.6689 10.8998 16.6739 11.429 16.6739 11.5078C16.6739 11.6741 16.6186 11.8699 16.4605 12.0222C16.3065 12.1707 16.1112 12.2226 15.9416 12.2121C15.6086 12.1915 15.2835 11.9193 15.2835 11.5077L15.2834 6.07663C15.2834 5.97575 15.2376 5.87483 15.1231 5.78282C15.0017 5.68531 14.8345 5.62751 14.684 5.62751C14.5509 5.62751 14.3835 5.68656 14.251 5.79421C14.1151 5.90473 14.0914 5.99996 14.0914 6.03189L14.0914 10.7455C14.0914 10.9249 14.0231 11.1307 13.8451 11.2778C13.676 11.4174 13.4724 11.45 13.3051 11.4231C12.9496 11.3659 12.7093 11.0559 12.7093 10.7064L12.7093 4.08019C12.7093 3.85966 12.4823 3.58574 12.1249 3.58574C11.9532 3.58574 11.7783 3.65375 11.6504 3.76058ZM16.4834 7.04641C16.7177 6.95029 16.9675 6.9068 17.2097 6.9068C17.6433 6.9068 18.1044 7.05905 18.4629 7.38875C18.8321 7.72837 19.0564 8.22338 19.0564 8.82957C19.0564 9.12063 19.058 9.41425 19.0597 9.71196C19.0631 10.3215 19.0667 10.9482 19.0563 11.6051L19.0559 11.6271C19.0404 12.6085 19.0313 13.189 18.8836 14.2135C18.7853 14.896 18.3335 16.2984 17.7826 17.5144C17.505 18.1273 17.1866 18.7283 16.8527 19.1858C16.6864 19.4137 16.5006 19.6278 16.2965 19.7903C16.0983 19.9482 15.8257 20.1025 15.4982 20.1025H9.76364C9.57033 20.1025 9.40753 20.0306 9.30493 19.9758C9.19166 19.9152 9.08164 19.8368 8.97949 19.7547C8.77453 19.5901 8.54709 19.3668 8.31169 19.1141C7.83808 18.6056 7.27993 17.921 6.72219 17.1992C5.60442 15.7526 4.45247 14.11 3.91527 13.3109C3.76011 13.0801 3.63831 12.7454 3.626 12.3915C3.61319 12.0232 3.72068 11.5805 4.09882 11.2425C4.6201 10.7766 5.17947 10.6624 5.70429 10.7677C6.17595 10.8624 6.57906 11.1292 6.84102 11.3051C7.1227 11.4943 7.36047 11.6901 7.56062 11.8779C7.55882 10.5975 7.56022 9.01259 7.56131 7.77326C7.56183 7.18069 7.56228 6.66713 7.56228 6.30366C7.56228 5.50016 7.819 4.9176 8.2287 4.54079C8.62217 4.17891 9.09246 4.0666 9.42543 4.0666C9.66656 4.0666 9.98256 4.12199 10.2879 4.266L10.2879 4.02425C10.2879 3.52833 10.5543 3.11266 10.881 2.83969C11.2112 2.56384 11.6548 2.38574 12.1249 2.38574C13.0513 2.38574 13.9093 3.1069 13.9093 4.08019L13.9093 4.6042C14.1483 4.49328 14.414 4.42751 14.684 4.42751C15.1072 4.42751 15.5397 4.57826 15.8746 4.84731C16.2164 5.12186 16.4834 5.54551 16.4834 6.07663L16.4834 7.04641Z" fill="#333333"/>
</svg>
