<svg width="24" height="24" viewBox="0 0 24 24" fill="none" xmlns="http://www.w3.org/2000/svg">
<path fill-rule="evenodd" clip-rule="evenodd" d="M16.502 6.7H7.5C7.05817 6.7 6.7 7.05817 6.7 7.5V16.502C6.7 16.9438 7.05817 17.302 7.5 17.302H16.502C16.9438 17.302 17.302 16.9438 17.302 16.502V7.5C17.302 7.05817 16.9438 6.7 16.502 6.7ZM7.5 5.5C6.39543 5.5 5.5 6.39543 5.5 7.5V16.502C5.5 17.6065 6.39543 18.502 7.5 18.502H16.502C17.6065 18.502 18.502 17.6065 18.502 16.502V7.5C18.502 6.39543 17.6065 5.5 16.502 5.5H7.5Z" fill="#909090"/>
</svg>
