<svg width="24" height="24" viewBox="0 0 24 24" fill="none" xmlns="http://www.w3.org/2000/svg">
<path fill-rule="evenodd" clip-rule="evenodd" d="M15.1057 8.39551H8.896C8.61985 8.39551 8.396 8.61937 8.396 8.89551V15.1052C8.396 15.3814 8.61985 15.6052 8.896 15.6052H15.1057C15.3819 15.6052 15.6057 15.3814 15.6057 15.1052V8.89551C15.6057 8.61937 15.3819 8.39551 15.1057 8.39551ZM8.896 7.39551C8.06757 7.39551 7.396 8.06708 7.396 8.89551V15.1052C7.396 15.9337 8.06757 16.6052 8.896 16.6052H15.1057C15.9341 16.6052 16.6057 15.9337 16.6057 15.1052V8.89551C16.6057 8.06708 15.9341 7.39551 15.1057 7.39551H8.896Z" fill="#909090"/>
</svg>
