<svg width="24" height="24" viewBox="0 0 24 24" fill="none" xmlns="http://www.w3.org/2000/svg">
<path fill-rule="evenodd" clip-rule="evenodd" d="M15.9892 7.4125H8.0125C7.68113 7.4125 7.4125 7.68113 7.4125 8.0125V15.9892C7.4125 16.3206 7.68113 16.5892 8.0125 16.5892H15.9892C16.3206 16.5892 16.5892 16.3206 16.5892 15.9892V8.0125C16.5892 7.68113 16.3206 7.4125 15.9892 7.4125ZM8.0125 6.3125C7.07362 6.3125 6.3125 7.07362 6.3125 8.0125V15.9892C6.3125 16.9281 7.07362 17.6892 8.0125 17.6892H15.9892C16.9281 17.6892 17.6892 16.9281 17.6892 15.9892V8.0125C17.6892 7.07362 16.9281 6.3125 15.9892 6.3125H8.0125Z" fill="#909090"/>
</svg>
