<svg width="24" height="24" viewBox="0 0 24 24" fill="none" xmlns="http://www.w3.org/2000/svg">
<path fill-rule="evenodd" clip-rule="evenodd" d="M14.2217 9.37949H9.779C9.55809 9.37949 9.379 9.55858 9.379 9.77949V14.2222C9.379 14.4431 9.55809 14.6222 9.779 14.6222H14.2217C14.4426 14.6222 14.6217 14.4431 14.6217 14.2222V9.77949C14.6217 9.55858 14.4426 9.37949 14.2217 9.37949ZM9.779 8.47949C9.06103 8.47949 8.479 9.06152 8.479 9.77949V14.2222C8.479 14.9402 9.06103 15.5222 9.779 15.5222H14.2217C14.9397 15.5222 15.5217 14.9402 15.5217 14.2222V9.77949C15.5217 9.06152 14.9397 8.47949 14.2217 8.47949H9.779Z" fill="#909090"/>
</svg>
