<svg width="24" height="24" viewBox="0 0 24 24" fill="none" xmlns="http://www.w3.org/2000/svg">
<path d="M15.9899 13.2197H10.2899C9.95994 13.2197 9.68994 13.4897 9.68994 13.8197C9.68994 14.1497 9.95994 14.4197 10.2899 14.4197H15.9899C16.3199 14.4197 16.5899 14.1497 16.5899 13.8197C16.5899 13.4897 16.3199 13.2197 15.9899 13.2197Z" fill="#333333"/>
<path d="M5.77002 13.8197C5.77002 13.0497 6.39002 12.4297 7.16002 12.4297C7.93002 12.4297 8.55002 13.0497 8.55002 13.8197C8.55002 14.5897 7.93002 15.2097 7.16002 15.2097C6.39002 15.2097 5.77002 14.5897 5.77002 13.8197Z" fill="#333333"/>
<path fill-rule="evenodd" clip-rule="evenodd" d="M20.49 10.84L18.79 7.48C18.33 6.57 17.4 6 16.38 6H7.6C6.58 6 5.64 6.58 5.18 7.49L3.51 10.84C3.19 11.29 3 11.85 3 12.44V15.21C3 16.75 4.25 17.99 5.78 17.99H18.21C19.75 17.99 20.99 16.74 20.99 15.21V12.44C20.99 11.84 20.8 11.29 20.48 10.84H20.49ZM6.26 8.03C6.51 7.52 7.03 7.2 7.6 7.2H16.39C16.96 7.2 17.47 7.52 17.73 8.02L18.55 9.64H5.45L6.26 8.03ZM19.8 15.22C19.8 16.09 19.09 16.8 18.22 16.8H5.78C4.91 16.8 4.2 16.09 4.2 15.22V12.45C4.2 11.58 4.91 10.87 5.78 10.87H18.21C19.08 10.87 19.79 11.58 19.79 12.45V15.22H19.8Z" fill="#333333"/>
</svg>
