<svg width="24" height="24" viewBox="0 0 24 24" fill="none" xmlns="http://www.w3.org/2000/svg">
<path fill-rule="evenodd" clip-rule="evenodd" d="M13.1836 5.76156L6.55442 13.3777H11.4656C11.6564 13.3777 11.8359 13.4685 11.949 13.6223C12.062 13.776 12.0952 13.9744 12.0383 14.1566L10.8471 17.9697L17.1858 10.4656H12.5505C12.3601 10.4656 12.1811 10.3752 12.068 10.2221C11.9548 10.069 11.9211 9.87135 11.977 9.68938L13.1836 5.76156ZM13.5161 3.55181C14.0834 2.90004 15.1379 3.48598 14.8842 4.31196L13.3625 9.26557H18.4781C18.7116 9.26557 18.9239 9.40108 19.0223 9.61289C19.1206 9.82471 19.0871 10.0743 18.9364 10.2528L10.486 20.2569C9.92279 20.9236 8.85097 20.3352 9.11121 19.5021L10.6495 14.5777H5.23673C5.00159 14.5777 4.78812 14.4403 4.69067 14.2263C4.59323 14.0123 4.62977 13.7611 4.78415 13.5838L13.5161 3.55181Z" fill="#333333"/>
</svg>
