<svg width="24" height="24" viewBox="0 0 24 24" fill="none" xmlns="http://www.w3.org/2000/svg">
<path d="M9.60986 10.3802C8.95986 9.94019 8.66986 9.37019 8.66986 8.65019C8.66986 7.11019 10.1199 6.15019 11.9499 6.15019C12.9599 6.15019 13.8299 6.43019 14.4499 6.97019C14.7199 7.20019 15.1199 7.27019 15.3999 7.05019C15.6699 6.84019 15.7199 6.44019 15.4699 6.21019C14.6299 5.44019 13.3899 5.00019 11.9899 5.00019C9.32986 4.98019 7.35986 6.51019 7.35986 8.70019C7.35986 9.34019 7.48986 9.90019 7.76986 10.3802H9.60986Z" fill="#333333"/>
<path d="M14.84 13.5803C15.35 14.0003 15.58 14.5303 15.58 15.1903C15.58 16.7303 14.13 17.8103 12.09 17.8103C10.87 17.8103 9.82001 17.4703 9.13001 16.8303C8.85001 16.5703 8.40001 16.5003 8.11001 16.7503C7.87001 16.9603 7.82001 17.3303 8.05001 17.5503C8.92001 18.4303 10.3 18.9703 12.02 18.9703C14.95 18.9703 16.89 17.4203 16.89 15.0103C16.89 14.4603 16.8 13.9903 16.6 13.5703H14.84V13.5803Z" fill="#333333"/>
<path d="M5.9999 11.3809H17.9999C18.3299 11.3809 18.5999 11.6509 18.5999 11.9809C18.5999 12.3109 18.3299 12.5809 17.9999 12.5809H5.9999C5.6699 12.5809 5.3999 12.3109 5.3999 11.9809C5.3999 11.6509 5.6699 11.3809 5.9999 11.3809Z" fill="#333333"/>
</svg>
