<svg width="24" height="24" viewBox="0 0 24 24" fill="none" xmlns="http://www.w3.org/2000/svg">
<path fill-rule="evenodd" clip-rule="evenodd" d="M9.13232 6.30684C9.13232 5.31272 9.93821 4.50684 10.9323 4.50684H13.0674C14.0615 4.50684 14.8674 5.31272 14.8674 6.30684V8.47087C14.8674 8.97908 14.6568 9.4381 14.3181 9.76541L16.651 13.2041H17.793C18.7871 13.2041 19.593 14.01 19.593 15.0041V17.1681C19.593 18.1622 18.7871 18.9681 17.793 18.9681H15.6579C14.6638 18.9681 13.8579 18.1622 13.8579 17.1681V15.0041C13.8579 14.16 14.439 13.4515 15.223 13.257L13.1941 10.2665C13.1523 10.2694 13.11 10.2709 13.0674 10.2709H10.9323L10.9153 10.2708L8.89057 13.2552C9.67824 13.4471 10.2629 14.1573 10.2629 15.0041V17.1681C10.2629 18.1622 9.45703 18.9681 8.46292 18.9681H6.32783C5.33372 18.9681 4.52783 18.1622 4.52783 17.1681V15.0041C4.52783 14.01 5.33372 13.2041 6.32783 13.2041H7.46135L9.75104 9.82905C9.37194 9.49906 9.13232 9.01295 9.13232 8.47087V6.30684ZM10.9323 5.70684C10.601 5.70684 10.3323 5.97547 10.3323 6.30684V8.47087C10.3323 8.80224 10.601 9.07087 10.9323 9.07087H13.0674C13.3988 9.07087 13.6674 8.80224 13.6674 8.47087V6.30684C13.6674 5.97547 13.3988 5.70684 13.0674 5.70684H10.9323ZM6.32783 14.4041C5.99646 14.4041 5.72783 14.6727 5.72783 15.0041V17.1681C5.72783 17.4995 5.99646 17.7681 6.32783 17.7681H8.46292C8.79429 17.7681 9.06292 17.4995 9.06292 17.1681V15.0041C9.06292 14.6727 8.79429 14.4041 8.46292 14.4041H6.32783ZM15.0579 15.0041C15.0579 14.6727 15.3265 14.4041 15.6579 14.4041H17.793C18.1244 14.4041 18.393 14.6727 18.393 15.0041V17.1681C18.393 17.4995 18.1244 17.7681 17.793 17.7681H15.6579C15.3265 17.7681 15.0579 17.4995 15.0579 17.1681V15.0041Z" fill="#333333"/>
</svg>
