<svg width="24" height="24" viewBox="0 0 24 24" fill="none" xmlns="http://www.w3.org/2000/svg">
<path fill-rule="evenodd" clip-rule="evenodd" d="M13.2065 6.8166C13.2065 5.82249 14.0124 5.0166 15.0065 5.0166H17.158C18.1521 5.0166 18.958 5.82249 18.958 6.8166V8.97645C18.958 9.97056 18.1521 10.7765 17.158 10.7765H15.0065C14.0639 10.7765 13.2905 10.0518 13.2129 9.12919L8.90764 11.5043V12.4478L13.2174 14.8255C13.3165 13.9251 14.0797 13.2246 15.0065 13.2246H17.158C18.1521 13.2246 18.958 14.0305 18.958 15.0246V17.1845C18.958 18.1786 18.1521 18.9845 17.158 18.9845H15.0065C14.0124 18.9845 13.2065 18.1786 13.2065 17.1845V16.21L8.90764 13.8384V17.2603C8.90764 17.923 8.37038 18.4603 7.70764 18.4603H6.21367C5.55093 18.4603 5.01367 17.923 5.01367 17.2603V6.74004C5.01367 6.0773 5.55093 5.54004 6.21367 5.54004H7.70764C8.37038 5.54004 8.90764 6.0773 8.90764 6.74004V10.1138L13.2065 7.74214V6.8166ZM15.0065 6.2166C14.6752 6.2166 14.4065 6.48523 14.4065 6.8166V8.97645C14.4065 9.30782 14.6752 9.57645 15.0065 9.57645H17.158C17.4893 9.57645 17.758 9.30782 17.758 8.97645V6.8166C17.758 6.48523 17.4893 6.2166 17.158 6.2166H15.0065ZM15.0065 14.4246C14.6752 14.4246 14.4065 14.6932 14.4065 15.0246V17.1845C14.4065 17.5158 14.6752 17.7845 15.0065 17.7845H17.158C17.4893 17.7845 17.758 17.5158 17.758 17.1845V15.0246C17.758 14.6932 17.4893 14.4246 17.158 14.4246H15.0065ZM6.21367 6.74004L7.70764 6.74004L7.70764 17.2603L6.21367 17.2603V6.74004Z" fill="#333333"/>
</svg>
