<svg width="24" height="24" viewBox="0 0 24 24" fill="none" xmlns="http://www.w3.org/2000/svg">
<path d="M8.96982 8.57031H11.0298C11.2507 8.57031 11.4298 8.7494 11.4298 8.97031V11.0303C11.4298 11.2512 11.2507 11.4303 11.0298 11.4303H8.96982C8.74891 11.4303 8.56982 11.2512 8.56982 11.0303V8.97031C8.56982 8.7494 8.74891 8.57031 8.96982 8.57031Z" fill="#333333"/>
<path fill-rule="evenodd" clip-rule="evenodd" d="M17 13.14H18.02C19.01 13.14 19.82 13.95 19.82 14.94V18.04C19.82 19.03 19.01 19.84 18.02 19.84H14.92C14.04 19.84 13.31 19.21 13.15 18.38H11.2C10.21 18.38 9.4 17.57 9.4 16.58V16H6.8C5.25 16 4 14.75 4 13.2V6.8C4 5.25 5.25 4 6.8 4H13.19C14.74 4 15.99 5.25 15.99 6.8V13.2C15.99 14.75 14.74 16 13.19 16H10.59V16.58C10.59 16.91 10.86 17.18 11.19 17.18H14.31V18.04C14.31 18.37 14.58 18.64 14.91 18.64H18.01C18.34 18.64 18.61 18.37 18.61 18.04V14.94C18.61 14.61 18.34 14.34 18.01 14.34H17V13.14ZM5.2 13.2C5.2 14.08 5.92 14.8 6.8 14.8H13.2C14.08 14.8 14.8 14.08 14.8 13.2V6.8C14.8 5.92 14.08 5.2 13.2 5.2H6.8C5.92 5.2 5.2 5.92 5.2 6.8V13.2Z" fill="#333333"/>
</svg>
