<svg width="24" height="24" viewBox="0 0 24 24" fill="none" xmlns="http://www.w3.org/2000/svg">
<path fill-rule="evenodd" clip-rule="evenodd" d="M8.57715 5.9834C8.57715 4.87883 9.47258 3.9834 10.5771 3.9834H13.4232C14.5278 3.9834 15.4232 4.87883 15.4232 5.9834V6.41797H17.0671C18.5583 6.41797 19.7671 7.6268 19.7671 9.11797V15.6486C19.7671 17.1398 18.5583 18.3486 17.0671 18.3486H6.93242C5.44125 18.3486 4.23242 17.1398 4.23242 15.6486V9.11797C4.23242 7.6268 5.44125 6.41797 6.93242 6.41797H8.57715V5.9834ZM10.5771 5.1834H13.4232C13.8651 5.1834 14.2232 5.54157 14.2232 5.9834V6.40156H9.77715V5.9834C9.77715 5.54157 10.1353 5.1834 10.5771 5.1834ZM17.0671 7.61797H6.93242C6.10399 7.61797 5.43242 8.28954 5.43242 9.11797V9.92L9.49463 11.1459V10.7373C9.49463 10.185 9.94234 9.7373 10.4946 9.7373H13.5038C14.0561 9.7373 14.5038 10.185 14.5038 10.7373V11.1739L18.5671 9.9477V9.11797C18.5671 8.28954 17.8955 7.61797 17.0671 7.61797ZM9.49463 12.3993L5.43242 11.1734V15.6486C5.43242 16.4771 6.10399 17.1486 6.93242 17.1486H17.0671C17.8955 17.1486 18.5671 16.4771 18.5671 15.6486V11.2011L14.5038 12.4273V13.2755C14.5038 13.8278 14.0561 14.2755 13.5038 14.2755H10.4946C9.94234 14.2755 9.49463 13.8278 9.49463 13.2755V12.3993ZM10.6946 10.9373V13.0755H13.3038V10.9373H10.6946Z" fill="#909090"/>
</svg>
