<svg width="24" height="24" viewBox="0 0 24 24" fill="none" xmlns="http://www.w3.org/2000/svg">
<path fill-rule="evenodd" clip-rule="evenodd" d="M12 8.85C10.2603 8.85 8.85 10.2603 8.85 12C8.85 13.7397 10.2603 15.15 12 15.15C13.7397 15.15 15.15 13.7397 15.15 12C15.15 10.2603 13.7397 8.85 12 8.85ZM7.65 12C7.65 9.59756 9.59756 7.65 12 7.65C14.4024 7.65 16.35 9.59756 16.35 12C16.35 14.4024 14.4024 16.35 12 16.35C9.59756 16.35 7.65 14.4024 7.65 12Z" fill="#333333"/>
<path d="M11.9993 3.40039C12.3307 3.40039 12.5993 3.66902 12.5993 4.00039V5.80039C12.5993 6.13176 12.3307 6.40039 11.9993 6.40039C11.6679 6.40039 11.3993 6.13176 11.3993 5.80039V4.00039C11.3993 3.66902 11.6679 3.40039 11.9993 3.40039Z" fill="#333333"/>
<path d="M11.9994 20.6004C12.3308 20.6004 12.5994 20.3317 12.5994 20.0004V18.2004C12.5994 17.869 12.3308 17.6004 11.9994 17.6004C11.668 17.6004 11.3994 17.869 11.3994 18.2004V20.0004C11.3994 20.3317 11.668 20.6004 11.9994 20.6004Z" fill="#333333"/>
<path d="M20.5995 12.0004C20.5995 12.3318 20.3309 12.6004 19.9995 12.6004L18.2012 12.6004C17.8698 12.6004 17.6012 12.3318 17.6012 12.0004C17.6012 11.669 17.8698 11.4004 18.2012 11.4004H19.9995C20.3309 11.4004 20.5995 11.669 20.5995 12.0004Z" fill="#333333"/>
<path d="M6.40166 12.0004C6.40166 12.3318 6.13303 12.6004 5.80166 12.6004H3.99941C3.66804 12.6004 3.39941 12.3318 3.39941 12.0004C3.39941 11.669 3.66804 11.4004 3.99941 11.4004H5.80166C6.13303 11.4004 6.40166 11.669 6.40166 12.0004Z" fill="#333333"/>
<path d="M5.91843 5.9189C6.15274 5.68459 6.53264 5.68459 6.76696 5.9189L8.04174 7.19368C8.27605 7.42799 8.27605 7.80789 8.04174 8.04221C7.80742 8.27652 7.42752 8.27652 7.19321 8.04221L5.91843 6.76743C5.68411 6.53311 5.68411 6.15321 5.91843 5.9189Z" fill="#333333"/>
<path d="M15.9569 15.9575C16.1912 15.7232 16.5711 15.7232 16.8055 15.9575L18.0805 17.2326C18.3148 17.4669 18.3148 17.8468 18.0805 18.0811C17.8462 18.3155 17.4663 18.3155 17.232 18.0811L15.9569 16.8061C15.7226 16.5717 15.7226 16.1918 15.9569 15.9575Z" fill="#333333"/>
<path d="M18.0805 5.91899C18.3148 6.1533 18.3148 6.5332 18.0805 6.76752L16.8054 8.04254C16.5711 8.27685 16.1912 8.27685 15.9569 8.04254C15.7226 7.80823 15.7226 7.42833 15.9569 7.19401L17.2319 5.91899C17.4663 5.68467 17.8462 5.68467 18.0805 5.91899Z" fill="#333333"/>
<path d="M8.03896 15.9606C8.27328 16.1949 8.27328 16.5748 8.03896 16.8091L6.76694 18.0811C6.53263 18.3155 6.15273 18.3155 5.91841 18.0811C5.6841 17.8468 5.6841 17.4669 5.91841 17.2326L7.19044 15.9606C7.42475 15.7263 7.80465 15.7263 8.03896 15.9606Z" fill="#333333"/>
</svg>
