<svg width="24" height="24" viewBox="0 0 24 24" fill="none" xmlns="http://www.w3.org/2000/svg">
<path d="M15 10.9403C14.12 9.70026 12.5 9.16026 10.99 9.59026C9.95 9.89026 9.25 10.4903 8.85 11.4303C8.72 11.7403 8.86 12.0903 9.17 12.2203C9.25 12.2503 9.33 12.2703 9.4 12.2703C9.63 12.2703 9.86 12.1303 9.95 11.9003C10.21 11.2903 10.62 10.9403 11.31 10.7503C12.34 10.4603 13.43 10.8203 14.02 11.6403C14.02 11.6403 14.04 11.6503 14.04 11.6603L13.3982 12.0296C13.2438 12.1185 13.2738 12.3496 13.4458 12.396L15.1569 12.8581C15.2636 12.8869 15.3733 12.8238 15.4021 12.7172L15.8633 11.0093C15.9099 10.8369 15.7243 10.6946 15.5698 10.7842L15.06 11.0803C15.06 11.0803 15.03 10.9903 15 10.9503V10.9403Z" fill="#333333"/>
<path d="M13.99 14.2303C14.13 13.9303 14.5 13.8103 14.79 13.9603L14.8 13.9703C15.1 14.1103 15.22 14.4703 15.07 14.7703C14.66 15.6003 13.99 16.1303 13.04 16.4003C12.69 16.5003 12.34 16.5503 11.99 16.5503C10.83 16.5503 9.73 16.0203 9.05 15.0803L8.50814 15.3907C8.35365 15.4792 8.16921 15.3369 8.21563 15.165L8.67786 13.4533C8.70665 13.3467 8.81644 13.2836 8.92308 13.3124L10.6315 13.7737C10.8038 13.8203 10.8335 14.0522 10.6784 14.1406L10.1 14.4703C10.7 15.2003 11.73 15.5203 12.71 15.2403C13.33 15.0603 13.73 14.7503 13.99 14.2303Z" fill="#333333"/>
<path fill-rule="evenodd" clip-rule="evenodd" d="M18 7.40023H16.12L15.05 5.85023C14.68 5.31023 14.06 4.99023 13.4 4.99023H10.5C9.83 4.99023 9.21 5.32023 8.84 5.88023L7.82 7.40023H6C4.9 7.40023 4 8.30023 4 9.40023V17.0002C4 18.1002 4.9 19.0002 6 19.0002H18C19.1 19.0002 20 18.1002 20 17.0002V9.40023C20 8.30023 19.1 7.40023 18 7.40023ZM18.8 17.0002C18.8 17.4402 18.44 17.8002 18 17.8002H6C5.56 17.8002 5.2 17.4402 5.2 17.0002V9.40023C5.2 8.96023 5.56 8.60023 6 8.60023H7.82C8.22 8.60023 8.59 8.40023 8.82 8.07023L9.84 6.55023C9.99 6.33024 10.24 6.19023 10.5 6.19023H13.4C13.66 6.19023 13.91 6.32023 14.06 6.53023L15.13 8.08023C15.35 8.40023 15.72 8.60023 16.12 8.60023H18C18.44 8.60023 18.8 8.96023 18.8 9.40023V17.0002Z" fill="#333333"/>
</svg>
