<svg width="24" height="24" viewBox="0 0 24 24" fill="none" xmlns="http://www.w3.org/2000/svg">
<path fill-rule="evenodd" clip-rule="evenodd" d="M16.5 5.7H7.5C6.50589 5.7 5.7 6.50589 5.7 7.5V16.5C5.7 17.4941 6.50589 18.3 7.5 18.3H16.5C17.4941 18.3 18.3 17.4941 18.3 16.5V7.5C18.3 6.50589 17.4941 5.7 16.5 5.7ZM7.5 4.5C5.84315 4.5 4.5 5.84315 4.5 7.5V16.5C4.5 18.1569 5.84315 19.5 7.5 19.5H16.5C18.1569 19.5 19.5 18.1569 19.5 16.5V7.5C19.5 5.84315 18.1569 4.5 16.5 4.5H7.5Z" fill="#333333"/>
<path fill-rule="evenodd" clip-rule="evenodd" d="M14.0085 13.6152V10.3755C14.0085 9.26623 13.1093 8.36699 12 8.36699C10.8907 8.36699 9.9915 9.26623 9.9915 10.3755V13.6152C9.9915 14.7245 10.8907 15.6237 12 15.6237C13.1093 15.6237 14.0085 14.7245 14.0085 13.6152ZM12 7.16699C10.228 7.16699 8.7915 8.60348 8.7915 10.3755V13.6152C8.7915 15.3872 10.228 16.8237 12 16.8237C13.772 16.8237 15.2085 15.3872 15.2085 13.6152V10.3755C15.2085 8.60348 13.772 7.16699 12 7.16699Z" fill="#333333"/>
<path d="M12.8687 10.3403C12.8687 10.8201 12.4797 11.209 12 11.209C11.5203 11.209 11.1313 10.8201 11.1313 10.3403C11.1313 9.86059 11.5203 9.47168 12 9.47168C12.4797 9.47168 12.8687 9.86059 12.8687 10.3403Z" fill="#333333"/>
</svg>
