<svg width="24" height="24" viewBox="0 0 24 24" fill="none" xmlns="http://www.w3.org/2000/svg">
<path fill-rule="evenodd" clip-rule="evenodd" d="M18.2501 8.46722H15.9901L16.4701 5.08722C16.5201 4.75722 16.2901 4.45722 15.9601 4.40722C15.6301 4.35722 15.3301 4.58722 15.2801 4.91722L14.7701 8.46722H10.1001L10.5801 5.08722C10.6301 4.75722 10.4001 4.45722 10.0701 4.40722C9.7401 4.35722 9.4401 4.58722 9.3901 4.91722L8.8801 8.46722H6.4501C6.1201 8.46722 5.8501 8.73722 5.8501 9.06722C5.8501 9.39722 6.1201 9.66722 6.4501 9.66722H8.7301L8.0801 14.1972H5.7001C5.3701 14.1972 5.1001 14.4672 5.1001 14.7972C5.1001 15.1272 5.3701 15.3972 5.7001 15.3972H7.9101L7.4101 18.9172C7.3601 19.2472 7.5901 19.5472 7.9201 19.5972C8.2501 19.6472 8.5501 19.4172 8.6001 19.0872L9.1301 15.4072H13.8001L13.3001 18.9272C13.2501 19.2572 13.4801 19.5572 13.8101 19.6072C14.1401 19.6572 14.4401 19.4272 14.4901 19.0972L15.0201 15.4172H17.5201C17.8501 15.4172 18.1201 15.1472 18.1201 14.8172C18.1201 14.4872 17.8501 14.2172 17.5201 14.2172H15.2001L15.8501 9.68722H18.2801C18.6101 9.68722 18.8801 9.41722 18.8801 9.08722C18.8801 8.75722 18.6101 8.48722 18.2801 8.48722L18.2501 8.46722ZM13.9701 14.1972H9.3001L9.9501 9.66722H14.6201L13.9701 14.1972Z" fill="#333333"/>
</svg>
