<svg width="24" height="24" viewBox="0 0 24 24" fill="none" xmlns="http://www.w3.org/2000/svg">
<path fill-rule="evenodd" clip-rule="evenodd" d="M16.5 5.7H7.5C6.50589 5.7 5.7 6.50589 5.7 7.5V16.5C5.7 17.4941 6.50589 18.3 7.5 18.3H16.5C17.4941 18.3 18.3 17.4941 18.3 16.5V7.5C18.3 6.50589 17.4941 5.7 16.5 5.7ZM7.5 4.5C5.84315 4.5 4.5 5.84315 4.5 7.5V16.5C4.5 18.1569 5.84315 19.5 7.5 19.5H16.5C18.1569 19.5 19.5 18.1569 19.5 16.5V7.5C19.5 5.84315 18.1569 4.5 16.5 4.5H7.5Z" fill="#333333"/>
<path fill-rule="evenodd" clip-rule="evenodd" d="M15.4104 9.56228C15.6521 9.78892 15.6644 10.1686 15.4377 10.4104L11.6877 14.4104C11.4653 14.6476 11.0944 14.6645 10.8514 14.4484L8.60138 12.4484C8.35371 12.2283 8.3314 11.8491 8.55155 11.6014C8.77171 11.3537 9.15095 11.3314 9.39862 11.5516L11.2119 13.1634L14.5623 9.58963C14.7889 9.34789 15.1686 9.33564 15.4104 9.56228Z" fill="#333333"/>
</svg>
