<svg width="24" height="24" viewBox="0 0 24 24" fill="none" xmlns="http://www.w3.org/2000/svg">
<path fill-rule="evenodd" clip-rule="evenodd" d="M17.3 5.8748H6.7C5.87157 5.8748 5.2 6.54638 5.2 7.37481V16.6248C5.2 17.4532 5.87157 18.1248 6.7 18.1248H17.3C18.1284 18.1248 18.8 17.4532 18.8 16.6248V7.3748C18.8 6.54638 18.1284 5.8748 17.3 5.8748ZM6.7 4.6748C5.20883 4.6748 4 5.88364 4 7.37481V16.6248C4 18.116 5.20883 19.3248 6.7 19.3248H17.3C18.7912 19.3248 20 18.116 20 16.6248V7.3748C20 5.88364 18.7912 4.6748 17.3 4.6748H6.7Z" fill="#333333"/>
<path fill-rule="evenodd" clip-rule="evenodd" d="M12.42 9.82971C12.42 9.49834 12.6886 9.22971 13.02 9.22971L16.52 9.22971C16.8514 9.22971 17.12 9.49834 17.12 9.82971C17.12 10.1611 16.8514 10.4297 16.52 10.4297H13.02C12.6886 10.4297 12.42 10.1611 12.42 9.82971Z" fill="#333333"/>
<path fill-rule="evenodd" clip-rule="evenodd" d="M12.42 14.3363C12.42 14.0049 12.6886 13.7363 13.02 13.7363H16.52C16.8514 13.7363 17.12 14.0049 17.12 14.3363C17.12 14.6677 16.8514 14.9363 16.52 14.9363H13.02C12.6886 14.9363 12.42 14.6677 12.42 14.3363Z" fill="#333333"/>
<path fill-rule="evenodd" clip-rule="evenodd" d="M10.7281 8.48484C10.9637 8.71787 10.9657 9.09776 10.7327 9.33336L9.04918 11.0354C8.83386 11.2531 8.48916 11.2738 8.2494 11.0833L7.17807 10.2323C6.9186 10.0262 6.87535 9.64872 7.08146 9.38925C7.28757 9.12978 7.665 9.08653 7.92447 9.29265L8.57444 9.80896L9.87954 8.48949C10.1126 8.25389 10.4925 8.25181 10.7281 8.48484Z" fill="#333333"/>
<path fill-rule="evenodd" clip-rule="evenodd" d="M10.7281 12.9596C10.9637 13.1926 10.9657 13.5725 10.7327 13.8081L9.04918 15.5101C8.83386 15.7278 8.48916 15.7485 8.2494 15.558L7.17807 14.707C6.9186 14.5009 6.87535 14.1234 7.08146 13.864C7.28757 13.6045 7.665 13.5612 7.92447 13.7674L8.57444 14.2837L9.87954 12.9642C10.1126 12.7286 10.4925 12.7265 10.7281 12.9596Z" fill="#333333"/>
</svg>
