<svg width="24" height="24" viewBox="0 0 24 24" fill="none" xmlns="http://www.w3.org/2000/svg">
<path fill-rule="evenodd" clip-rule="evenodd" d="M17.6188 6.6874L5.5459 11.6995L7.99946 12.7478L13.7131 9.82675C14.3778 9.48693 15.0417 10.2846 14.5868 10.8765L11.2293 15.2459L10.7101 16.7306L11.8823 15.725C12.1394 15.5045 12.5176 15.4997 12.7802 15.7137L15.4627 17.8997L17.6188 6.6874ZM9.38822 16.8751L10.1231 14.7738C10.1478 14.7035 10.1834 14.6375 10.2288 14.5784L12.2825 11.9059L8.77328 13.7L9.38822 16.8751ZM17.3304 5.50786C18.1397 5.17186 18.9978 5.87096 18.8323 6.73151L16.6095 18.2907C16.4524 19.108 15.4796 19.4615 14.8344 18.9357L12.3462 16.9081L9.81151 19.0823C9.34568 19.4819 8.62195 19.2297 8.50525 18.6272L7.58502 13.8757L4.41944 12.5232C3.68684 12.2102 3.69218 11.1698 4.42797 10.8643L17.3304 5.50786Z" fill="#333333"/>
</svg>
