<svg width="24" height="24" viewBox="0 0 24 24" fill="none" xmlns="http://www.w3.org/2000/svg">
<path fill-rule="evenodd" clip-rule="evenodd" d="M8.64916 8.61917L8.80375 8.46459C8.81329 8.45504 8.82308 8.44589 8.83309 8.43712C11.75 5.5797 14.2193 4.57914 16.2213 4.58795C18.2691 4.59696 19.6867 5.66114 20.4537 6.57243C20.9394 7.14944 20.8525 7.93415 20.442 8.44897C19.2765 9.91084 18.2552 10.7753 17.6904 11.1971C17.2604 11.5182 16.6626 11.589 16.1625 11.2801C15.7335 11.0151 15.1151 10.5364 14.5437 9.73868C14.5279 9.71663 14.5144 9.69934 14.5027 9.68571C14.4955 9.67741 14.4897 9.6712 14.4851 9.66667C14.376 9.64319 14.2058 9.64486 13.9658 9.70406C13.7122 9.7666 13.4224 9.88307 13.1179 10.042C12.5065 10.3611 11.9025 10.816 11.5049 11.2135L11.3981 11.3204C11.0006 11.7179 10.5456 12.3219 10.2266 12.9333C10.0676 13.2379 9.95117 13.5277 9.88863 13.7813C9.82943 14.0213 9.82776 14.1914 9.85124 14.3006C9.85577 14.3051 9.86198 14.311 9.87028 14.3181C9.88391 14.3298 9.9012 14.3433 9.92325 14.3591C10.721 14.9306 11.1997 15.5489 11.4647 15.978C11.7736 16.4781 11.7028 17.0758 11.3816 17.5059C10.9599 18.0706 10.0954 19.0919 8.63354 20.2575C8.11873 20.6679 7.33401 20.7548 6.757 20.2691C5.84571 19.5021 4.78153 18.0846 4.77252 16.0367C4.76371 14.0347 5.76427 11.5654 8.62169 8.64852C8.63046 8.63851 8.63962 8.62872 8.64916 8.61917ZM9.57516 9.39058C6.76707 12.224 5.9655 14.4399 5.97251 16.0314C5.97956 17.6334 6.80689 18.7426 7.52976 19.3511C7.59815 19.4086 7.74065 19.4346 7.88545 19.3192C9.25982 18.2234 10.0541 17.2781 10.4202 16.7878C10.4492 16.7489 10.4604 16.7118 10.4624 16.6837C10.4643 16.6573 10.4588 16.633 10.4438 16.6086C10.2472 16.2904 9.87168 15.7983 9.22445 15.3347C9.0721 15.2255 8.80153 15.0094 8.70109 14.6467C8.59561 14.2657 8.633 13.861 8.72354 13.4939C8.81563 13.1205 8.97439 12.739 9.1627 12.3782C9.53807 11.6589 10.0655 10.9559 10.5496 10.4718L10.6564 10.365C11.1405 9.88098 11.8435 9.3535 12.5627 8.97813C12.9236 8.78982 13.3051 8.63106 13.6785 8.53896C14.0456 8.44843 14.4503 8.41104 14.8312 8.51652C15.194 8.61696 15.4101 8.88753 15.5192 9.03988C15.9829 9.68711 16.475 10.0626 16.7932 10.2592C16.8176 10.2743 16.8419 10.2797 16.8683 10.2778C16.8964 10.2759 16.9335 10.2647 16.9724 10.2356C17.4627 9.86948 18.408 9.07525 19.5038 7.70088C19.6192 7.55608 19.5932 7.41358 19.5356 7.34518C18.9272 6.62232 17.8179 5.79499 16.216 5.78794C14.6245 5.78093 12.4086 6.5825 9.57516 9.39058Z" fill="#333333"/>
</svg>
