<svg width="24" height="24" viewBox="0 0 24 24" fill="none" xmlns="http://www.w3.org/2000/svg">
<path d="M5.61367 5.01465C5.2823 5.01465 5.01367 5.28328 5.01367 5.61465V6.72192C5.01367 7.05329 5.2823 7.32192 5.61367 7.32192C5.94504 7.32192 6.21367 7.05329 6.21367 6.72192V6.21465H10.3877V17.8008H9.03799C8.70662 17.8008 8.43799 18.0694 8.43799 18.4008C8.43799 18.7322 8.70662 19.0008 9.03799 19.0008H12.937C13.2684 19.0008 13.537 18.7322 13.537 18.4008C13.537 18.0694 13.2684 17.8008 12.937 17.8008H11.5877V6.21465H15.8994V6.72192C15.8994 7.05329 16.168 7.32192 16.4994 7.32192C16.8308 7.32192 17.0994 7.05329 17.0994 6.72192V5.61465C17.0994 5.28328 16.8308 5.01465 16.4994 5.01465H5.61367Z" fill="#333333"/>
<path d="M14.2612 10.2943C14.2612 9.96297 14.5299 9.69434 14.8612 9.69434H19.852C20.1833 9.69434 20.452 9.96297 20.452 10.2943C20.452 10.6257 20.1833 10.8943 19.852 10.8943H14.8612C14.5299 10.8943 14.2612 10.6257 14.2612 10.2943Z" fill="#333333"/>
<path d="M14.8612 12.416C14.5299 12.416 14.2612 12.6846 14.2612 13.016C14.2612 13.3474 14.5299 13.616 14.8612 13.616H19.852C20.1833 13.616 20.452 13.3474 20.452 13.016C20.452 12.6846 20.1833 12.416 19.852 12.416H14.8612Z" fill="#333333"/>
<path d="M14.2612 15.8021C14.2612 15.4708 14.5299 15.2021 14.8612 15.2021H17.7101C18.0415 15.2021 18.3101 15.4708 18.3101 15.8021C18.3101 16.1335 18.0415 16.4021 17.7101 16.4021H14.8612C14.5299 16.4021 14.2612 16.1335 14.2612 15.8021Z" fill="#333333"/>
</svg>
