<svg width="24" height="24" viewBox="0 0 24 24" fill="none" xmlns="http://www.w3.org/2000/svg">
<path fill-rule="evenodd" clip-rule="evenodd" d="M17.9067 5.19324C16.4086 6.14725 14.404 8.18767 13.424 9.28979C13.2906 9.43976 13.159 9.58737 13.0297 9.732C13.6563 9.99039 14.0963 10.3982 14.3932 10.7957C14.5226 10.969 14.6244 11.1393 14.7036 11.2932C14.8377 11.136 14.976 10.9746 15.118 10.8094C16.106 9.66076 17.8658 7.48577 18.6493 5.90371C18.6652 5.73891 18.6215 5.54383 18.5161 5.40721C18.4338 5.30058 18.2706 5.17119 17.9067 5.19324ZM13.8251 12.3313C13.5686 12.637 13.3398 12.912 13.144 13.1486C13.064 13.2452 12.9896 13.3354 12.921 13.4187C12.5354 12.6999 11.9265 12.1062 11.1939 11.7616C11.2259 11.7266 11.2587 11.6908 11.2922 11.654C11.5397 11.3831 11.8287 11.0656 12.1463 10.7143C12.7956 10.8433 13.1883 11.1877 13.4317 11.5137C13.5741 11.7043 13.6667 11.8916 13.7231 12.0303C13.7511 12.0991 13.7694 12.1542 13.7802 12.1894C13.7856 12.2069 13.789 12.2193 13.7907 12.2258L13.7918 12.23L13.7914 12.2286L13.7911 12.2272L13.7918 12.23C13.8 12.2651 13.8114 12.2993 13.8251 12.3313ZM9.86173 11.4386C10.0058 11.2821 10.1902 11.0812 10.4063 10.8446C10.9553 10.2437 11.7089 9.41266 12.5272 8.49239C13.5351 7.35901 15.7194 5.12026 17.395 4.09824C17.4657 4.05507 17.5447 4.02704 17.6269 4.01591C18.4432 3.9053 19.0799 4.17348 19.4662 4.67426C19.8241 5.13813 19.9118 5.73215 19.8161 6.20489C19.8063 6.25361 19.7904 6.30091 19.7688 6.34571C18.9275 8.09627 17.0219 10.4362 16.0278 11.5919C15.2279 12.5219 14.5481 13.3342 14.0684 13.9137C13.8286 14.2034 13.6389 14.4349 13.5093 14.5937C13.4445 14.6732 13.3948 14.7344 13.3613 14.7757L13.349 14.7909C13.3565 14.8603 13.3619 14.9301 13.3653 15.0002C13.4571 16.8971 11.7098 19.0422 9.01887 19.6707C8.19434 19.8633 7.19982 19.8962 6.25987 19.7225C5.32586 19.5498 4.37839 19.1598 3.72293 18.4432C3.65461 18.3685 3.57033 18.2542 3.52953 18.0988C3.48408 17.9257 3.5056 17.7503 3.581 17.5988C3.702 17.3556 3.93306 17.2357 4.02294 17.1899C4.1452 17.1275 4.29201 17.0705 4.41857 17.0216C4.43094 17.0168 4.4433 17.0121 4.45566 17.0073C4.5803 16.9592 4.7047 16.9112 4.83336 16.8552C5.41029 16.6042 5.86441 16.2816 5.95556 15.655C6.28743 13.3738 7.472 11.5654 9.57265 11.4422L9.57464 11.4421C9.6711 11.4367 9.76685 11.4356 9.86173 11.4386ZM9.64207 12.6402C8.3922 12.7139 7.44187 13.7738 7.14306 15.8278C6.95744 17.1037 5.97844 17.6657 5.31208 17.9556C5.24184 17.9862 5.17276 18.0147 5.10675 18.0412C5.48597 18.2775 5.95611 18.446 6.47797 18.5424C7.25647 18.6863 8.0838 18.6568 8.74594 18.5022C11.0447 17.9652 12.2227 16.2163 12.1667 15.0581C12.1012 13.7022 10.9111 12.5707 9.64207 12.6402Z" fill="#333333"/>
</svg>
