<svg width="24" height="24" viewBox="0 0 24 24" fill="none" xmlns="http://www.w3.org/2000/svg">
<path fill-rule="evenodd" clip-rule="evenodd" d="M17.8435 3.8418C19.0585 3.8418 20.0435 4.82677 20.0435 6.0418V9.29202C20.0435 10.507 19.0585 11.492 17.8435 11.492H11.2503C10.0353 11.492 9.05029 10.507 9.05029 9.29202V6.0418C9.05029 4.82677 10.0353 3.8418 11.2503 3.8418H17.8435ZM11.2503 5.0418H17.8435C18.3957 5.0418 18.8435 5.48951 18.8435 6.0418V9.29202C18.8435 9.84431 18.3957 10.292 17.8435 10.292H11.2503C10.698 10.292 10.2503 9.84431 10.2503 9.29202V6.0418C10.2503 5.48951 10.698 5.0418 11.2503 5.0418Z" fill="#333333"/>
<path d="M5.79326 12.6508C5.79326 12.3194 5.52463 12.0508 5.19326 12.0508C4.86189 12.0508 4.59326 12.3194 4.59326 12.6508V14.0854C4.59326 15.5213 5.75732 16.6854 7.19326 16.6854H7.329C7.66037 16.6854 7.929 16.4167 7.929 16.0854C7.929 15.754 7.66037 15.4854 7.329 15.4854H7.19326C6.42006 15.4854 5.79326 14.8586 5.79326 14.0854V12.6508Z" fill="#333333"/>
<path fill-rule="evenodd" clip-rule="evenodd" d="M17.8435 12.5391C19.0585 12.5391 20.0435 13.524 20.0435 14.7391V17.6866C20.0435 18.9016 19.0585 19.8866 17.8435 19.8866H17.408V20.6214C17.408 21.5087 16.3383 21.9565 15.7062 21.3338L14.2373 19.8866H11.2503C10.0353 19.8866 9.05029 18.9016 9.05029 17.6866V14.7391C9.05029 13.524 10.0353 12.5391 11.2503 12.5391H17.8435ZM16.208 20.1436V18.6866H17.8435C18.3957 18.6866 18.8435 18.2388 18.8435 17.6866V14.7391C18.8435 14.1868 18.3957 13.7391 17.8435 13.7391H11.2503C10.698 13.7391 10.2503 14.1868 10.2503 14.7391V17.6866C10.2503 18.2388 10.698 18.6866 11.2503 18.6866H14.7291L16.208 20.1436Z" fill="#333333"/>
<path d="M5.20307 10.556C4.8717 10.556 4.60307 10.2873 4.60307 9.95596V8.5394H3.18691C2.85554 8.5394 2.58691 8.27077 2.58691 7.9394C2.58691 7.60803 2.85554 7.3394 3.18691 7.3394H4.60307V5.92324C4.60307 5.59187 4.8717 5.32324 5.20307 5.32324C5.53445 5.32324 5.80307 5.59187 5.80307 5.92324V7.3394H7.21963C7.551 7.3394 7.81963 7.60803 7.81963 7.9394C7.81963 8.27077 7.551 8.5394 7.21963 8.5394H5.80307V9.95596C5.80307 10.2873 5.53445 10.556 5.20307 10.556Z" fill="#333333"/>
</svg>
