<svg width="24" height="24" viewBox="0 0 24 24" fill="none" xmlns="http://www.w3.org/2000/svg">
<path d="M9.98818 14.1819C9.65681 14.1819 9.38818 13.9133 9.38818 13.5819V11.5608H7.36758C7.03621 11.5608 6.76758 11.2922 6.76758 10.9608C6.76758 10.6295 7.03621 10.3608 7.36758 10.3608H9.38818V8.34023C9.38818 8.00886 9.65681 7.74023 9.98818 7.74023C10.3196 7.74023 10.5882 8.00886 10.5882 8.34023V10.3608H12.6093C12.9406 10.3608 13.2093 10.6295 13.2093 10.9608C13.2093 11.2922 12.9406 11.5608 12.6093 11.5608H10.5882V13.5819C10.5882 13.9133 10.3196 14.1819 9.98818 14.1819Z" fill="#333333"/>
<path fill-rule="evenodd" clip-rule="evenodd" d="M14.6911 19.5369L13.1262 17.9951H6.95176C5.35013 17.9951 4.05176 16.6967 4.05176 15.0951V7.9498C4.05176 6.34818 5.35013 5.0498 6.95176 5.0498H17.1332C18.7348 5.0498 20.0332 6.34818 20.0332 7.9498V15.0951C20.0332 16.6967 18.7348 17.9951 17.1332 17.9951H16.9035V18.6108C16.9035 19.7643 15.5128 20.3464 14.6911 19.5369ZM15.7035 16.7951V18.6108C15.7035 18.6333 15.7002 18.6459 15.6984 18.6516C15.6965 18.6576 15.6941 18.6623 15.691 18.6668C15.6839 18.6768 15.6683 18.6921 15.6421 18.703C15.6159 18.714 15.594 18.7145 15.5819 18.7124C15.5765 18.7115 15.5715 18.71 15.5659 18.7071C15.5605 18.7044 15.5493 18.6978 15.5333 18.682L13.6181 16.7951H6.95176C6.01287 16.7951 5.25176 16.034 5.25176 15.0951V7.9498C5.25176 7.01092 6.01287 6.2498 6.95176 6.2498H17.1332C18.0721 6.2498 18.8332 7.01092 18.8332 7.9498V15.0951C18.8332 16.034 18.0721 16.7951 17.1332 16.7951H15.7035Z" fill="#333333"/>
</svg>
