<svg width="24" height="24" viewBox="0 0 24 24" fill="none" xmlns="http://www.w3.org/2000/svg">
<path fill-rule="evenodd" clip-rule="evenodd" d="M12.0425 12.5C8.46974 12.5 7.63024 7.38863 10.1598 5.58245C10.5798 5.28253 11.3872 5 12.0425 5C16.7021 5 16.3318 12.5 12.0425 12.5ZM10.8571 6.55905C10.9379 6.50136 11.1232 6.4038 11.3803 6.32115C11.6329 6.23991 11.8717 6.2 12.0425 6.2C12.8478 6.2 13.3476 6.50644 13.6686 6.91414C14.0165 7.35612 14.2164 8.00429 14.1987 8.72038C14.1811 9.43571 13.9482 10.1083 13.572 10.5764C13.2172 11.0178 12.7243 11.3 12.0425 11.3C10.9699 11.3 10.237 10.5752 9.98318 9.45368C9.71784 8.2812 10.0907 7.10628 10.8571 6.55905Z" fill="#333333"/>
<path d="M7.99435 6.72501C8.01961 6.72501 8.04467 6.72531 8.06953 6.7259C7.91208 7.12249 7.8071 7.53853 7.75079 7.95872C7.70343 7.96981 7.65259 7.98387 7.59945 8.00127C7.42905 8.05707 7.32239 8.11834 7.29508 8.1382C6.84517 8.46536 6.57295 9.22918 6.75552 10.0508C6.92765 10.8254 7.39013 11.225 7.99433 11.225C8.05057 11.225 8.10446 11.2218 8.15615 11.2156C8.28509 11.7083 8.41008 12.1704 8.46731 12.3809C8.31754 12.4098 8.15984 12.425 7.99433 12.425C5.3281 12.425 4.70161 8.54036 6.58934 7.16767C6.9028 6.93973 7.50532 6.72501 7.99435 6.72501Z" fill="#333333"/>
<path d="M5.07867 13.5961C5.80064 13.1426 6.65435 12.9486 7.4654 12.893C7.46276 13.0561 7.42566 13.2175 7.3291 13.3491C7.17399 13.5606 6.95097 13.8028 6.6991 14.0764C6.64419 14.136 6.5879 14.1972 6.53065 14.2598C6.23442 14.3442 5.9594 14.46 5.71695 14.6123C5.18762 14.9448 4.76826 15.4775 4.64017 16.375H5.01889C4.85095 16.7486 4.7298 17.1484 4.68372 17.575H4.3748C3.84653 17.575 3.37233 17.1362 3.41475 16.5552C3.51888 15.1292 4.16189 14.172 5.07867 13.5961Z" fill="#333333"/>
<path d="M16.0569 6.72563C19.4682 6.79362 19.176 12.425 15.9943 12.425C15.8274 12.425 15.6686 12.4098 15.5178 12.3809C15.5539 12.2166 15.641 11.9306 15.7471 11.5823C15.7822 11.467 15.8194 11.3448 15.8575 11.2179C15.9022 11.2226 15.9479 11.225 15.9943 11.225C16.3953 11.225 16.6771 11.063 16.8917 10.791C17.128 10.4916 17.287 10.0412 17.2991 9.54593C17.3111 9.04971 17.1736 8.62319 16.9621 8.34954C16.8287 8.17698 16.6431 8.03129 16.3598 7.96435C16.3093 7.54347 16.2098 7.12516 16.0569 6.72563Z" fill="#333333"/>
<path d="M19.6248 17.575H19.3158C19.2698 17.1484 19.1486 16.7486 18.9807 16.375H19.3594C19.2313 15.4776 18.812 14.9448 18.2826 14.6123C18.0402 14.46 17.7652 14.3442 17.4689 14.2598C17.4117 14.1972 17.3554 14.136 17.3004 14.0764C17.0486 13.8028 16.8256 13.5606 16.6705 13.3491C16.5738 13.2174 16.5385 13.0558 16.5302 12.8927C17.3424 12.948 18.1977 13.1419 18.9209 13.5961C19.8377 14.172 20.4807 15.1292 20.5848 16.5552C20.6273 17.1362 20.1531 17.575 19.6248 17.575Z" fill="#333333"/>
<path fill-rule="evenodd" clip-rule="evenodd" d="M7.96323 14.0051C9.16794 13.3142 10.6545 13.1 11.9998 13.1C13.3451 13.1 14.8316 13.3142 16.0363 14.0051C17.2769 14.7166 18.1792 15.9142 18.328 17.7502C18.3811 18.405 17.8454 18.9 17.2498 18.9H6.74978C6.15417 18.9 5.61842 18.405 5.67152 17.7502C5.8204 15.9142 6.72271 14.7166 7.96323 14.0051ZM6.88169 17.7H17.1179C16.9695 16.3609 16.3179 15.55 15.4393 15.0461C14.4932 14.5035 13.2469 14.3 11.9998 14.3C10.7526 14.3 9.50636 14.5035 8.56023 15.0461C7.68165 15.55 7.03011 16.3609 6.88169 17.7Z" fill="#333333"/>
</svg>
