<svg width="24" height="24" viewBox="0 0 24 24" fill="none" xmlns="http://www.w3.org/2000/svg">
<path fill-rule="evenodd" clip-rule="evenodd" d="M8.24219 7.8C8.24219 6.80589 9.04808 6 10.0422 6H18.1989C19.193 6 19.9989 6.80589 19.9989 7.8V9.59056C19.9989 10.5847 19.193 11.3906 18.1989 11.3906H10.0422C9.04808 11.3906 8.24219 10.5847 8.24219 9.59056V7.8ZM10.0422 7.2H18.1989C18.5303 7.2 18.7989 7.46863 18.7989 7.8V9.59056C18.7989 9.92193 18.5303 10.1906 18.1989 10.1906H10.0422C9.71082 10.1906 9.44219 9.92193 9.44219 9.59056V7.8C9.44219 7.46863 9.71082 7.2 10.0422 7.2Z" fill="#333333"/>
<path fill-rule="evenodd" clip-rule="evenodd" d="M8.24219 14.4709C8.24219 13.4768 9.04808 12.6709 10.0422 12.6709H18.1989C19.193 12.6709 19.9989 13.4768 19.9989 14.4709V16.2C19.9989 17.1941 19.193 18 18.1989 18H10.0422C9.04808 18 8.24219 17.1941 8.24219 16.2V14.4709ZM10.0422 13.8709H18.1989C18.5303 13.8709 18.7989 14.1395 18.7989 14.4709V16.2C18.7989 16.5314 18.5303 16.8 18.1989 16.8H10.0422C9.71082 16.8 9.44219 16.5314 9.44219 16.2V14.4709C9.44219 14.1395 9.71082 13.8709 10.0422 13.8709Z" fill="#333333"/>
<path d="M4.99977 4.9043C4.65011 4.9043 4.36666 5.18775 4.36666 5.53741V7.23765C3.68735 7.49363 3.20413 8.14961 3.20413 8.91846C3.20413 9.68732 3.68737 10.3433 4.3667 10.5993V13.4769C3.6868 13.733 3.20312 14.3895 3.20312 15.159C3.20312 15.9284 3.6868 16.5849 4.3667 16.841V18.4614C4.3667 18.8111 4.65015 19.0945 4.99981 19.0945C5.34947 19.0945 5.63293 18.8111 5.63293 18.4614V16.841C6.31289 16.585 6.79663 15.9285 6.79663 15.159C6.79663 14.3895 6.31289 13.7329 5.63293 13.4769V10.5992C6.31216 10.3432 6.79531 9.68725 6.79531 8.91846C6.79531 8.14965 6.31214 7.4937 5.63289 7.23769V5.53741C5.63289 5.18775 5.34943 4.9043 4.99977 4.9043Z" fill="#333333"/>
</svg>
