<svg width="24" height="24" viewBox="0 0 24 24" fill="none" xmlns="http://www.w3.org/2000/svg">
<path fill-rule="evenodd" clip-rule="evenodd" d="M9.76269 2.99258C9.76269 2.66121 10.0313 2.39258 10.3627 2.39258H13.6372C13.9686 2.39258 14.2372 2.66121 14.2372 2.99258C14.2372 3.32395 13.9686 3.59258 13.6372 3.59258H10.3627C10.0313 3.59258 9.76269 3.32395 9.76269 2.99258Z" fill="#333333"/>
<path fill-rule="evenodd" clip-rule="evenodd" d="M15.6987 8.57124C15.933 8.80556 15.933 9.18546 15.6987 9.41977L12.4242 12.6943C12.1899 12.9286 11.81 12.9286 11.5756 12.6943C11.3413 12.46 11.3413 12.0801 11.5756 11.8458L14.8502 8.57124C15.0845 8.33693 15.4644 8.33693 15.6987 8.57124Z" fill="#333333"/>
<path fill-rule="evenodd" clip-rule="evenodd" d="M12 5.77617C8.41299 5.77617 5.50518 8.68399 5.50518 12.271C5.50518 15.8579 8.41299 18.7658 12 18.7658C15.5869 18.7658 18.4948 15.8579 18.4948 12.271C18.4948 8.68399 15.5869 5.77617 12 5.77617ZM4.30518 12.271C4.30518 8.02125 7.75025 4.57617 12 4.57617C16.2497 4.57617 19.6948 8.02125 19.6948 12.271C19.6948 16.5207 16.2497 19.9658 12 19.9658C7.75025 19.9658 4.30518 16.5207 4.30518 12.271Z" fill="#333333"/>
</svg>
