<svg width="24" height="24" viewBox="0 0 24 24" fill="none" xmlns="http://www.w3.org/2000/svg">
<path fill-rule="evenodd" clip-rule="evenodd" d="M16.1463 9.5513C16.3834 9.55212 16.5977 9.69241 16.6933 9.90931L20.1852 17.832C20.3188 18.1352 20.1814 18.4893 19.8781 18.623C19.5749 18.7566 19.2208 18.6192 19.0871 18.3159L18.0731 16.0152H14.1687L13.1338 18.3197C12.9981 18.622 12.643 18.757 12.3407 18.6213C12.0384 18.4855 11.9034 18.1304 12.0391 17.8282L15.5969 9.9055C15.694 9.68927 15.9093 9.55047 16.1463 9.5513ZM14.7076 14.8152H17.5442L16.1391 11.6274L14.7076 14.8152Z" fill="#333333"/>
<path fill-rule="evenodd" clip-rule="evenodd" d="M10.6062 5.60195C10.6062 5.27058 10.3376 5.00195 10.0062 5.00195C9.67485 5.00195 9.40622 5.27058 9.40622 5.60195V6.36873H4.60488C4.27351 6.36873 4.00488 6.63736 4.00488 6.96873C4.00488 7.3001 4.27351 7.56873 4.60488 7.56873H11.8845C11.5486 8.70367 10.9646 10.1741 9.95114 11.3054C9.79763 11.4767 9.63422 11.6428 9.46332 11.8033C8.75303 11.1687 8.09132 10.4008 7.3795 9.35076C7.19356 9.07647 6.82048 9.00484 6.54619 9.19078C6.2719 9.37672 6.20027 9.7498 6.38621 10.0241C7.11479 11.0989 7.80462 11.9081 8.53182 12.5784C7.47402 13.3659 6.3104 13.9713 5.45715 14.3594C5.15552 14.4966 5.02225 14.8524 5.15947 15.154C5.29669 15.4557 5.65244 15.5889 5.95406 15.4517C6.88859 15.0266 8.25148 14.3217 9.48036 13.3641C10.1501 13.8631 10.8722 14.2981 11.6963 14.7516C11.9866 14.9114 12.3515 14.8055 12.5112 14.5152C12.671 14.2249 12.5652 13.8601 12.2749 13.7003C11.58 13.3179 10.9714 12.9561 10.4109 12.5574C10.5611 12.4114 10.7062 12.2609 10.8449 12.1061C12.1348 10.6663 12.7941 8.81036 13.1321 7.56873H14.5469C14.8783 7.56873 15.1469 7.3001 15.1469 6.96873C15.1469 6.63736 14.8783 6.36873 14.5469 6.36873H12.7374C12.6902 6.36318 12.6434 6.36334 12.5978 6.36873H10.6062V5.60195Z" fill="#333333"/>
</svg>
