<svg width="24" height="24" viewBox="0 0 24 24" fill="none" xmlns="http://www.w3.org/2000/svg">
<path fill-rule="evenodd" clip-rule="evenodd" d="M13.4077 6.95547C13.4077 6.6241 13.6763 6.35547 14.0077 6.35547L19.4077 6.35547C19.7391 6.35547 20.0077 6.6241 20.0077 6.95547V12.3555C20.0077 12.6868 19.7391 12.9555 19.4077 12.9555C19.0763 12.9555 18.8077 12.6868 18.8077 12.3555V8.39116L13.8414 13.7742C13.2346 14.4319 12.2064 14.4641 11.5597 13.8457L9.96283 12.3188C9.80329 12.1662 9.55032 12.1718 9.39759 12.3311L5.01514 16.9044C4.78587 17.1436 4.40606 17.1517 4.1668 16.9225C3.92755 16.6932 3.91946 16.3134 4.14873 16.0741L8.53118 11.5009C9.1421 10.8634 10.154 10.8413 10.7922 11.4515L12.389 12.9784C12.5507 13.133 12.8077 13.1249 12.9594 12.9605L17.946 7.55547H14.0077C13.6763 7.55547 13.4077 7.28684 13.4077 6.95547Z" fill="#333333"/>
</svg>
