<svg width="24" height="24" viewBox="0 0 24 24" fill="none" xmlns="http://www.w3.org/2000/svg">
<path d="M5.04345 6.18611C4.81702 5.94417 4.43733 5.93159 4.19539 6.15802C3.95344 6.38445 3.94087 6.76414 4.1673 7.00608L8.57393 11.7146C9.17729 12.3593 10.1888 12.3933 10.8342 11.7907L12.4973 10.2376C12.6608 10.0849 12.9177 10.096 13.0675 10.2622L18.0252 15.7649H14.0071C13.6758 15.7649 13.4071 16.0335 13.4071 16.3649C13.4071 16.6962 13.6758 16.9649 14.0071 16.9649H19.2314C19.4228 17.0183 19.6365 16.9757 19.795 16.8328C19.8423 16.7902 19.8813 16.7418 19.9118 16.6896C19.9721 16.596 20.0071 16.4845 20.0071 16.3649V10.9649C20.0071 10.6335 19.7385 10.3649 19.4071 10.3649C19.0758 10.3649 18.8071 10.6335 18.8071 10.9649V14.84L13.959 9.45892C13.36 8.79411 12.3323 8.74977 11.6783 9.36052L10.0151 10.9136C9.85381 11.0643 9.60092 11.0558 9.45008 10.8946L5.04345 6.18611Z" fill="#333333"/>
</svg>
