<svg width="24" height="24" viewBox="0 0 24 24" fill="none" xmlns="http://www.w3.org/2000/svg">
<path fill-rule="evenodd" clip-rule="evenodd" d="M11.9999 6.07012C8.56226 6.07012 6.27764 8.67119 6.27764 11.429C6.27764 12.4774 6.48783 13.5719 6.98326 14.7263C8.79896 14.815 10.0179 15.5218 10.7994 16.483C11.6141 17.4852 11.9004 18.698 11.9865 19.5841L11.9873 19.5918L11.9872 19.5918L11.989 19.6131C11.9929 19.6481 11.9967 19.6831 12.0003 19.7182C12.0027 19.6934 12.0052 19.6684 12.0076 19.6433L12.008 19.6394L12.008 19.6394L12.0195 19.5303L12.0195 19.5303C12.1127 18.6415 12.4084 17.4412 13.2259 16.4529C14.0089 15.5064 15.2215 14.8141 17.0172 14.7264C17.512 13.5718 17.7222 12.4773 17.7222 11.429C17.7222 8.67113 15.4383 6.07012 11.9999 6.07012ZM10.8997 21.2515C10.886 20.7456 10.8512 20.2405 10.7954 19.7374L10.7939 19.7216L10.7918 19.6965C10.7173 18.9351 10.4757 17.9872 9.86827 17.24C9.28146 16.5182 8.30014 15.9169 6.59144 15.9169C6.35935 15.9169 6.14807 15.7831 6.04893 15.5732C5.37276 14.1419 5.07764 12.763 5.07764 11.429C5.07764 8.00157 7.90641 4.87012 11.9999 4.87012C16.0943 4.87012 18.9222 8.00163 18.9222 11.429C18.9222 12.763 18.6271 14.1418 17.9518 15.573C17.8527 15.783 17.6414 15.9169 17.4092 15.9169C15.7171 15.9169 14.7388 16.5067 14.1506 17.2178C13.5412 17.9544 13.293 18.8921 13.2129 19.6555C13.2129 19.6555 13.2129 19.6555 13.2129 19.6555L13.2019 19.7607C13.2018 19.7614 13.2017 19.762 13.2017 19.7627C13.1443 20.3463 13.1116 20.8019 13.1032 21.1357C13.0959 21.4259 12.8819 21.6692 12.5951 21.7135L11.5914 21.8687C11.4183 21.8955 11.2421 21.8453 11.1092 21.7313C10.9762 21.6173 10.8997 21.4509 10.8997 21.2758V21.2515Z" fill="#333333"/>
</svg>
