<svg width="24" height="24" viewBox="0 0 24 24" fill="none" xmlns="http://www.w3.org/2000/svg">
<path fill-rule="evenodd" clip-rule="evenodd" d="M5.90283 18.2997C5.90283 17.9683 6.17146 17.6997 6.50283 17.6997L17.5028 17.6997C17.8342 17.6997 18.1028 17.9683 18.1028 18.2997C18.1028 18.6311 17.8342 18.8997 17.5028 18.8997L6.50283 18.8997C6.17146 18.8997 5.90283 18.6311 5.90283 18.2997Z" fill="#333333"/>
<path fill-rule="evenodd" clip-rule="evenodd" d="M15.85 5.09961C16.1814 5.09961 16.45 5.36824 16.45 5.69961V11.7611C16.45 14.2966 14.4847 16.4021 11.9999 16.4021C9.51515 16.4021 7.54981 14.2966 7.5498 11.7611L7.5498 5.69961C7.5498 5.36824 7.81843 5.09961 8.1498 5.09961C8.48118 5.09961 8.7498 5.36824 8.7498 5.69961L8.7498 11.7611C8.7498 13.6892 10.232 15.2021 11.9999 15.2021C13.7678 15.2021 15.25 13.6892 15.25 11.7611V5.69961C15.25 5.36824 15.5186 5.09961 15.85 5.09961Z" fill="#333333"/>
</svg>
