<svg width="24" height="24" viewBox="0 0 24 24" fill="none" xmlns="http://www.w3.org/2000/svg">
<path d="M4.39999 8.45672C4.39997 8.6103 4.45855 8.76388 4.57572 8.88105L8.49651 12.8019C8.73083 13.0362 9.11073 13.0362 9.34504 12.8019C9.57936 12.5676 9.57936 12.1877 9.34505 11.9534L6.44922 9.05751H13.8056C16.1095 9.05751 17.9772 10.9252 17.9772 13.2291C17.9772 15.5331 16.1095 17.4008 13.8056 17.4008H11.5093C11.1779 17.4008 10.9093 17.6694 10.9093 18.0008C10.9093 18.3322 11.1779 18.6008 11.5093 18.6008H13.8056C16.7723 18.6008 19.1772 16.1958 19.1772 13.2291C19.1772 10.2625 16.7723 7.85751 13.8056 7.85751H6.44773L9.36691 4.93833C9.60122 4.70401 9.60122 4.32411 9.36691 4.0898C9.1326 3.85548 8.7527 3.85548 8.51838 4.0898L4.57572 8.03246C4.47601 8.13217 4.41873 8.25824 4.40388 8.38824C4.40128 8.41099 4.39999 8.43386 4.39999 8.45672Z" fill="#333333"/>
</svg>
