<svg width="24" height="24" viewBox="0 0 24 24" fill="none" xmlns="http://www.w3.org/2000/svg">
<path fill-rule="evenodd" clip-rule="evenodd" d="M8.63947 11.0576C8.86115 11.3039 8.84118 11.6833 8.59488 11.905C7.64069 12.7638 6.71217 13.6761 6.26192 14.5996C6.04342 15.0478 5.95582 15.4638 6.0084 15.857C6.06022 16.2447 6.25697 16.6764 6.72659 17.1461C7.18583 17.6053 7.6081 17.774 7.98728 17.8004C8.37961 17.8278 8.80216 17.7079 9.25806 17.4538C10.178 16.941 11.0477 15.9943 11.8051 15.1698C11.8173 15.1564 11.8295 15.1431 11.8417 15.1299C12.0659 14.8858 12.4455 14.8698 12.6895 15.0939C12.9335 15.3181 12.9496 15.6977 12.7254 15.9417C12.6963 15.9734 12.6667 16.0057 12.6366 16.0385C11.9184 16.8213 10.9353 17.8928 9.84226 18.502C9.26129 18.8258 8.60412 19.0463 7.90384 18.9975C7.19042 18.9478 6.50721 18.6237 5.87806 17.9946C5.25943 17.376 4.91208 16.7124 4.81898 16.0161C4.72663 15.3253 4.89329 14.6686 5.18327 14.0738C5.74999 12.9113 6.8553 11.8562 7.79211 11.013C8.03841 10.7913 8.41779 10.8113 8.63947 11.0576Z" fill="#333333"/>
<path fill-rule="evenodd" clip-rule="evenodd" d="M15.7152 4.50705C16.6581 4.48196 17.5798 4.85492 18.3283 5.60344C19.1108 6.38595 19.369 7.34579 19.2241 8.29135C19.0828 9.2134 18.5663 10.0897 17.8599 10.7965C17.8595 10.7968 17.8592 10.7972 17.8589 10.7975L16.5617 12.1054C16.3284 12.3407 15.9485 12.3422 15.7132 12.1089C15.4779 11.8755 15.4764 11.4956 15.7097 11.2603L17.0086 9.9507L17.0104 9.94895C17.5856 9.37372 17.9445 8.71877 18.0379 8.10957C18.1277 7.52346 17.9795 6.95164 17.4798 6.45196C16.9462 5.91831 16.3361 5.69095 15.7471 5.70662C15.1538 5.72241 14.5293 5.98678 13.9826 6.5335L13.9772 6.53889L12.3114 8.16279C12.0741 8.39411 11.6942 8.38928 11.4629 8.15201C11.2316 7.91473 11.2364 7.53487 11.4737 7.30355L13.1368 5.68218C13.8718 4.94845 14.7779 4.53199 15.7152 4.50705Z" fill="#333333"/>
<path fill-rule="evenodd" clip-rule="evenodd" d="M9.48087 4.53717C9.81224 4.53717 10.0809 4.8058 10.0809 5.13717V7.13717C10.0809 7.46854 9.81224 7.73717 9.48087 7.73717C9.14949 7.73717 8.88087 7.46854 8.88087 7.13717V5.13717C8.88087 4.8058 9.14949 4.53717 9.48087 4.53717Z" fill="#333333"/>
<path fill-rule="evenodd" clip-rule="evenodd" d="M14.4809 15.5372C14.8122 15.5372 15.0809 15.8058 15.0809 16.1372V18.1372C15.0809 18.4685 14.8122 18.7372 14.4809 18.7372C14.1495 18.7372 13.8809 18.4685 13.8809 18.1372V16.1372C13.8809 15.8058 14.1495 15.5372 14.4809 15.5372Z" fill="#333333"/>
<path fill-rule="evenodd" clip-rule="evenodd" d="M4.88087 9.13717C4.88087 8.8058 5.1495 8.53717 5.48087 8.53717H7.48087C7.81224 8.53717 8.08087 8.8058 8.08087 9.13717C8.08087 9.46854 7.81224 9.73717 7.48087 9.73717H5.48087C5.1495 9.73717 4.88087 9.46854 4.88087 9.13717Z" fill="#333333"/>
<path fill-rule="evenodd" clip-rule="evenodd" d="M15.8809 14.1372C15.8809 13.8058 16.1495 13.5372 16.4809 13.5372H18.4809C18.8122 13.5372 19.0809 13.8058 19.0809 14.1372C19.0809 14.4685 18.8122 14.7372 18.4809 14.7372H16.4809C16.1495 14.7372 15.8809 14.4685 15.8809 14.1372Z" fill="#333333"/>
</svg>
