<svg width="24" height="24" viewBox="0 0 24 24" fill="none" xmlns="http://www.w3.org/2000/svg">
<path d="M12.5 14.0003C12.5 13.978 12.4985 13.9561 12.4957 13.9346C12.7958 13.7619 12.9979 13.438 12.9979 13.067C12.9979 12.5146 12.55 12.0667 11.9976 12.0667C11.4452 12.0667 10.9974 12.5146 10.9974 13.067C10.9974 13.4399 11.2014 13.7651 11.504 13.9371C11.5013 13.9578 11.5 13.9789 11.5 14.0003V15.0003C11.5 15.2765 11.7239 15.5003 12 15.5003C12.2761 15.5003 12.5 15.2765 12.5 15.0003V14.0003Z" fill="#333333"/>
<path fill-rule="evenodd" clip-rule="evenodd" d="M9.04999 9.01175C9.04999 7.57139 10.3847 6.16699 12.0185 6.16699C13.4718 6.16699 14.601 7.13072 14.9298 8.25097L13.9702 8.53254C13.7648 7.83263 13.0222 7.16699 12.0185 7.16699C10.9256 7.16699 10.05 8.13498 10.05 9.01175V9.69238H14.8028C15.797 9.69238 16.6028 10.4983 16.6028 11.4924V15.5334C16.6028 16.5275 15.797 17.3334 14.8028 17.3334H9.19746C8.20335 17.3334 7.39746 16.5275 7.39746 15.5334V11.4924C7.39746 10.5479 8.12486 9.77336 9.04999 9.69834V9.01175ZM14.8028 10.6924H9.19746C8.75563 10.6924 8.39746 11.0506 8.39746 11.4924V15.5334C8.39746 15.9752 8.75563 16.3334 9.19746 16.3334H14.8028C15.2447 16.3334 15.6028 15.9752 15.6028 15.5334V11.4924C15.6028 11.0506 15.2447 10.6924 14.8028 10.6924Z" fill="#333333"/>
</svg>
