<svg width="24" height="24" viewBox="0 0 24 24" fill="none" xmlns="http://www.w3.org/2000/svg">
<path d="M12.6 15.0004C12.6 14.9918 12.5998 14.9832 12.5995 14.9746C13.1278 14.7425 13.4968 14.2145 13.4968 13.6004C13.4968 12.7717 12.8251 12.1 11.9965 12.1C11.1678 12.1 10.4961 12.7717 10.4961 13.6004C10.4961 14.2172 10.8683 14.7471 11.4004 14.9777C11.4002 14.9852 11.4 14.9928 11.4 15.0004V16.5004C11.4 16.8318 11.6687 17.1004 12 17.1004C12.3314 17.1004 12.6 16.8318 12.6 16.5004V15.0004Z" fill="#333333"/>
<path fill-rule="evenodd" clip-rule="evenodd" d="M7.75 7.55306C7.75 5.46903 9.6624 3.40039 12.0276 3.40039C14.1344 3.40039 15.7571 4.82063 16.2265 6.44734L15.0735 6.78001C14.7472 5.64891 13.5813 4.60039 12.0276 4.60039C10.3306 4.60039 8.95 6.12628 8.95 7.55306V8.53848H16.2043C17.6954 8.53848 18.9043 9.74731 18.9043 11.2385V17.3C18.9043 18.7912 17.6954 20 16.2043 20H7.79619C6.30502 20 5.09619 18.7912 5.09619 17.3V11.2385C5.09619 9.76274 6.28014 8.56353 7.75 8.53887V7.55306ZM16.2043 9.73848L7.79619 9.73848C6.96776 9.73848 6.29619 10.4101 6.29619 11.2385V17.3C6.29619 18.1285 6.96776 18.8 7.79619 18.8H16.2043C17.0327 18.8 17.7043 18.1285 17.7043 17.3V11.2385C17.7043 10.4101 17.0327 9.73848 16.2043 9.73848Z" fill="#333333"/>
</svg>
