<svg width="24" height="24" viewBox="0 0 24 24" fill="none" xmlns="http://www.w3.org/2000/svg">
<path d="M12.8106 12.8668C12.8106 13.1484 12.6674 13.3965 12.4498 13.5423V14.5001C12.4498 14.7487 12.2483 14.9501 11.9998 14.9501C11.7513 14.9501 11.5498 14.7487 11.5498 14.5001V13.5449C11.3301 13.3994 11.1852 13.15 11.1852 12.8668C11.1852 12.4179 11.549 12.0541 11.9979 12.0541C12.4467 12.0541 12.8106 12.4179 12.8106 12.8668Z" fill="#333333"/>
<path fill-rule="evenodd" clip-rule="evenodd" d="M9.5498 9.58524C9.5498 8.38466 10.6576 7.2168 12.0149 7.2168C13.2208 7.2168 14.1584 8.0182 14.4317 8.95153L13.5679 9.20441C13.4052 8.64852 12.8148 8.1168 12.0149 8.1168C11.1464 8.1168 10.4498 8.88998 10.4498 9.58524V10.1249H14.3396C15.1128 10.1249 15.7396 10.7517 15.7396 11.5249V14.9333C15.7396 15.7065 15.1128 16.3333 14.3396 16.3333H9.66025C8.88706 16.3333 8.26025 15.7065 8.26025 14.9333V11.5249C8.26025 10.7889 8.82824 10.1855 9.5498 10.1292V9.58524ZM14.3396 11.0249H9.66025C9.38411 11.0249 9.16025 11.2488 9.16025 11.5249V14.9333C9.16025 15.2094 9.38411 15.4333 9.66025 15.4333H14.3396C14.6158 15.4333 14.8396 15.2094 14.8396 14.9333V11.5249C14.8396 11.2488 14.6158 11.0249 14.3396 11.0249Z" fill="#333333"/>
</svg>
