<svg width="24" height="24" viewBox="0 0 24 24" fill="none" xmlns="http://www.w3.org/2000/svg">
<path d="M13.2476 13.3331C13.2476 13.8251 12.9634 14.2507 12.5503 14.4548V15.4998C12.5503 15.8036 12.304 16.0498 12.0003 16.0498C11.6965 16.0498 11.4503 15.8036 11.4503 15.4998V14.4577C11.0339 14.2548 10.747 13.8274 10.747 13.3331C10.747 12.6426 11.3068 12.0828 11.9973 12.0828C12.6878 12.0828 13.2476 12.6426 13.2476 13.3331Z" fill="#333333"/>
<path fill-rule="evenodd" clip-rule="evenodd" d="M8.40027 8.33405C8.40027 6.56099 10.0171 4.7998 12.0233 4.7998C13.8082 4.7998 15.1816 6.00907 15.5789 7.39322L14.5216 7.6967C14.254 6.76429 13.2972 5.8998 12.0233 5.8998C10.6351 5.8998 9.50027 7.15803 9.50027 8.33405V9.11487H15.4538C16.7241 9.11487 17.7538 10.1446 17.7538 11.4149V16.3662C17.7538 17.6364 16.7241 18.6662 15.4538 18.6662H8.54707C7.27681 18.6662 6.24707 17.6364 6.24707 16.3662V11.4149C6.24707 10.1939 7.19842 9.19518 8.40027 9.11948V8.33405ZM15.4538 10.2149H8.54707C7.88433 10.2149 7.34707 10.7521 7.34707 11.4149V16.3662C7.34707 17.0289 7.88433 17.5662 8.54707 17.5662H15.4538C16.1165 17.5662 16.6538 17.0289 16.6538 16.3662V11.4149C16.6538 10.7521 16.1165 10.2149 15.4538 10.2149Z" fill="#333333"/>
</svg>
