<svg width="24" height="24" viewBox="0 0 24 24" fill="none" xmlns="http://www.w3.org/2000/svg">
<path d="M12.0022 9.90039C12.1613 9.90047 12.3139 9.96376 12.4264 10.0763L14.4244 12.0763C14.6586 12.3108 14.6584 12.6907 14.424 12.9249C14.1895 13.1591 13.8096 13.1589 13.5754 12.9244L12.5999 11.9479V16.0004C12.5999 16.3318 12.3313 16.6004 11.9999 16.6004C11.6685 16.6004 11.3999 16.3318 11.3999 16.0004V11.9499L10.424 12.9249C10.1895 13.1591 9.80962 13.1589 9.57543 12.9244C9.34123 12.69 9.34142 12.3101 9.57585 12.0759L11.5779 10.0759C11.6904 9.96345 11.8431 9.90031 12.0022 9.90039Z" fill="#333333"/>
<path fill-rule="evenodd" clip-rule="evenodd" d="M18.9604 11.0702C18.7904 8.84016 16.9304 7.08016 14.6604 7.08016C14.3504 7.08016 14.0504 7.11016 13.7504 7.18016C13.0004 5.80016 11.5404 4.93016 9.90038 4.91016C7.58038 4.91016 5.67038 6.72016 5.50038 9.01016C3.60038 9.89016 2.37038 11.7802 2.39038 13.8202C2.39038 16.7402 4.75038 19.1102 7.65038 19.1102H17.4704C19.7904 19.0502 21.6304 17.1702 21.5804 14.9502C21.6004 13.2502 20.5404 11.7202 18.9504 11.0702H18.9604ZM17.4604 17.9102H7.66038C5.42038 17.9102 3.60038 16.0802 3.60038 13.8202C3.58038 12.1302 4.67038 10.5902 6.31038 9.98016C6.54038 9.89016 6.70038 9.60016 6.70038 9.35016C6.70038 7.57016 8.14038 6.12016 9.91038 6.12016C11.2304 6.13016 12.4304 6.94016 12.8904 8.12016C13.0104 8.42016 13.3404 8.57016 13.6504 8.47016C13.9804 8.35016 14.3304 8.29016 14.6804 8.29016C16.4004 8.29016 17.7904 9.69016 17.7904 11.4502V11.5102C17.7904 11.7802 17.9704 12.0102 18.2204 12.0902C19.5304 12.4702 20.4304 13.6402 20.4104 14.9702C20.4404 16.5602 19.1204 17.8802 17.4804 17.9302L17.4604 17.9102Z" fill="#333333"/>
</svg>
