<svg width="24" height="24" viewBox="0 0 24 24" fill="none" xmlns="http://www.w3.org/2000/svg">
<path d="M14.0501 15.2305H9.9501C9.6201 15.2305 9.3501 15.5005 9.3501 15.8305C9.3501 16.1605 9.6201 16.4305 9.9501 16.4305H14.0501C14.3801 16.4305 14.6501 16.1605 14.6501 15.8305C14.6501 15.5005 14.3801 15.2305 14.0501 15.2305Z" fill="#333333"/>
<path d="M11.3999 10.0695L10.3699 11.0995H10.3799C10.1399 11.3295 9.75992 11.3295 9.52992 11.0995C9.29992 10.8595 9.29992 10.4795 9.52992 10.2495L11.5799 8.19953C11.6399 8.13953 11.7099 8.09953 11.7799 8.06953C11.8599 8.03953 11.9299 8.01953 12.0099 8.01953C12.0899 8.01953 12.1699 8.03953 12.2399 8.06953C12.3099 8.09953 12.3799 8.14953 12.4299 8.19953L14.4799 10.2495C14.7099 10.4895 14.7199 10.8695 14.4799 11.0995C14.2399 11.3295 13.8599 11.3295 13.6299 11.0995L12.5999 10.0695V13.6195C12.5999 13.9495 12.3299 14.2195 11.9999 14.2195C11.6699 14.2195 11.3999 13.9495 11.3999 13.6195V10.0695Z" fill="#333333"/>
<path fill-rule="evenodd" clip-rule="evenodd" d="M18.3 8.01C18.17 7.69 17.97 7.39 17.73 7.14L15.41 4.78C15.16 4.53 14.87 4.33 14.55 4.2C14.23 4.07 13.88 4 13.54 4H8.13C7.43 4 6.76 4.28 6.27 4.78C5.78 5.28 5.5 5.96 5.5 6.67V17.34C5.5 18.05 5.78 18.73 6.27 19.23C6.76 19.73 7.43 20.01 8.13 20.01H15.87C16.57 20.01 17.24 19.73 17.73 19.23C18.22 18.73 18.5 18.05 18.5 17.34V9.03C18.5 8.68 18.43 8.33 18.3 8.01ZM17.3 17.33C17.3 17.72 17.15 18.1 16.88 18.37C16.61 18.64 16.25 18.79 15.87 18.79H8.13C7.76 18.79 7.39 18.64 7.12 18.37C6.85 18.1 6.7 17.72 6.7 17.33V6.67C6.7 6.28 6.85 5.9 7.12 5.63C7.39 5.36 7.75 5.21 8.13 5.21H13.54C13.73 5.21 13.91 5.25 14.08 5.32C14.25 5.39 14.41 5.5 14.55 5.64L16.88 8C17.01 8.14 17.12 8.3 17.19 8.48C17.26 8.66 17.3 8.85 17.3 9.05V17.33Z" fill="#333333"/>
</svg>
