<svg width="24" height="24" viewBox="0 0 24 24" fill="none" xmlns="http://www.w3.org/2000/svg">
<path d="M14.0501 16.2402H9.9501C9.6201 16.2402 9.3501 16.5102 9.3501 16.8402C9.3501 17.1702 9.6201 17.4402 9.9501 17.4402H14.0501C14.3801 17.4402 14.6501 17.1702 14.6501 16.8402C14.6501 16.5102 14.3801 16.2402 14.0501 16.2402Z" fill="#333333"/>
<path d="M11.3999 11.7404L10.3699 12.7704H10.3799C10.1399 13.0004 9.75992 13.0004 9.52992 12.7704C9.29992 12.5304 9.29992 12.1504 9.52992 11.9204L11.5799 9.87043C11.6399 9.81043 11.7099 9.77043 11.7799 9.74043C11.8599 9.71043 11.9299 9.69043 12.0099 9.69043C12.0899 9.69043 12.1699 9.71043 12.2399 9.74043C12.3099 9.77043 12.3799 9.82043 12.4299 9.87043L14.4799 11.9204C14.7099 12.1604 14.7199 12.5404 14.4799 12.7704C14.2399 13.0004 13.8599 13.0004 13.6299 12.7704L12.5999 11.7404V14.7904C12.5999 15.1204 12.3299 15.3904 11.9999 15.3904C11.6699 15.3904 11.3999 15.1204 11.3999 14.7904V11.7404Z" fill="#333333"/>
<path fill-rule="evenodd" clip-rule="evenodd" d="M18.3 8.01C18.17 7.69 17.97 7.39 17.73 7.14L15.41 4.78C15.16 4.53 14.87 4.33 14.55 4.2C14.23 4.07 13.88 4 13.54 4H8.13C7.43 4 6.76 4.28 6.27 4.78C5.78 5.28 5.5 5.96 5.5 6.67V17.34C5.5 18.05 5.78 18.73 6.27 19.23C6.76 19.73 7.43 20.01 8.13 20.01H15.87C16.57 20.01 17.24 19.73 17.73 19.23C18.22 18.73 18.5 18.05 18.5 17.34V9.03C18.5 8.68 18.43 8.33 18.3 8.01ZM13.99 5.29C13.99 5.29 13.9938 5.29 14 5.29032V7.73C14 7.93 14.08 8.13 14.23 8.28C14.38 8.43 14.58 8.51 14.79 8.51H17.2C17.19 8.49 17.19 8.48 17.19 8.47C17.12 8.29 17.01 8.13 16.88 7.99L14.55 5.63C14.41 5.49 14.25 5.38 14.08 5.31C14.0576 5.29504 14.0183 5.29127 14 5.29032L13.99 5.29ZM17.3 17.33C17.3 17.72 17.15 18.1 16.88 18.37C16.61 18.64 16.25 18.79 15.87 18.79H8.13C7.76 18.79 7.39 18.64 7.12 18.37C6.85 18.1 6.7 17.72 6.7 17.33V6.67C6.7 6.28 6.85 5.9 7.12 5.63C7.39 5.36 7.75 5.21 8.13 5.21H12.79V7.72C12.79 8.25 13 8.75 13.37 9.12C13.74 9.49 14.25 9.7 14.78 9.7H17.29V17.34L17.3 17.33Z" fill="#333333"/>
</svg>
