<svg width="24" height="24" viewBox="0 0 24 24" fill="none" xmlns="http://www.w3.org/2000/svg">
<path fill-rule="evenodd" clip-rule="evenodd" d="M10.1604 4.77458C11.1265 4.85637 12.1014 5.2828 12.7328 6.11509C12.9834 6.44537 13.1519 6.79475 13.2697 7.13519C13.4403 7.04151 13.6248 6.95982 13.8345 6.87265C15.7218 6.07323 17.9338 6.79032 18.7089 8.63627C18.7706 8.7832 18.7713 8.94863 18.7109 9.09608C18.6504 9.24354 18.5338 9.36089 18.3868 9.42227L17.5818 9.75823C19.036 10.8063 19.7698 12.6704 19.0079 14.3248C18.8739 14.6227 18.5255 14.7592 18.2244 14.6301L15.9132 13.6396L15.5095 13.4641L14.9081 13.2062L13.4684 12.5918C13.2386 14.022 12.9618 16.0174 13.6281 19.2413C13.6647 19.418 13.6197 19.6017 13.5058 19.7417C13.3918 19.8816 13.221 19.9628 13.0406 19.9628H8.96204C8.65394 19.9628 8.39591 19.7294 8.36505 19.4229C8.0509 16.3023 8.49361 14.0271 9.66896 12.1178L4.92698 12.1242C4.76744 12.1244 4.61439 12.0611 4.50165 11.9482C4.38891 11.8353 4.32577 11.6822 4.32617 11.5227C4.32768 10.9331 4.4844 10.3746 4.75715 9.87712C5.2286 8.98209 6.07065 8.29702 7.08214 7.97256C7.48358 7.83819 7.90889 7.76213 8.3437 7.75534L7.30463 6.39705C7.10671 6.13833 7.15137 5.76896 7.40524 5.56487C8.17316 4.94752 9.19645 4.69297 10.1604 4.77458ZM8.94081 9.01019C9.67657 9.16254 10.3172 9.61054 10.6936 10.1175C10.8912 10.3836 11.267 10.4392 11.533 10.2416C11.7991 10.0441 11.8546 9.66827 11.6571 9.40222C11.3031 8.92544 10.7918 8.48632 10.1806 8.18155L8.66137 6.19559C9.08035 6.00941 9.57024 5.9289 10.0592 5.9703C10.7605 6.02968 11.3918 6.33286 11.7768 6.84038C12.0992 7.26529 12.233 7.76795 12.3189 8.29915C12.3564 8.531 12.5257 8.71965 12.7522 8.78189C12.9787 8.84412 13.2206 8.7685 13.3714 8.58837C13.6195 8.29187 13.7987 8.18695 14.2969 7.97999L14.3011 7.97824C15.4479 7.4917 16.6433 7.80527 17.2868 8.58104L16.0346 9.10364C15.5422 9.03522 15.029 9.06153 14.5926 9.11647C13.8903 9.20488 13.2286 9.38948 12.9212 9.53718C12.6225 9.68069 12.4967 10.0392 12.6402 10.3378C12.7837 10.6365 13.1422 10.7623 13.4409 10.6188C13.5887 10.5478 14.1105 10.3866 14.7425 10.3071C15.3423 10.2316 15.905 10.2484 16.2774 10.3909C16.884 10.6664 17.4185 11.1352 17.7497 11.6984C18.0306 12.176 18.1612 12.7108 18.0782 13.2602L15.9853 12.3625L15.8228 12.2918L15.3801 12.1029L13.2522 11.1901C13.2089 11.1716 13.1647 11.1585 13.1203 11.1506C12.9784 11.1203 12.8289 11.1423 12.7003 11.2148C12.5377 11.3065 12.4271 11.4687 12.4009 11.6535C12.3756 11.833 12.3443 12.0259 12.3105 12.2339C12.0893 13.5962 11.7629 15.6068 12.3152 18.7628H9.51197C9.2865 15.6773 9.91092 13.6581 11.2408 11.9588C11.3607 11.849 11.4359 11.6909 11.4356 11.5154C11.4352 11.2144 11.2132 10.9655 10.9241 10.9227C10.8923 10.9175 10.8598 10.9148 10.8269 10.9148H5.63287C5.67766 10.7532 5.73972 10.5967 5.81747 10.4474C6.14615 9.85206 6.72872 9.35764 7.43945 9.11542C7.74011 9.0188 8.06665 8.96569 8.41149 8.96569C8.5925 8.96569 8.76935 8.98114 8.94081 9.01019Z" fill="#333333"/>
</svg>
