<svg width="24" height="24" viewBox="0 0 24 24" fill="none" xmlns="http://www.w3.org/2000/svg">
<path fill-rule="evenodd" clip-rule="evenodd" d="M16.0759 5.40403C16.0759 5.12907 15.8049 4.93609 15.5451 5.02603L8.56748 7.44136H16.0759V5.40403ZM17.2759 7.49679V5.40403C17.2759 4.30419 16.1919 3.53228 15.1525 3.89205L6.14942 7.00852C5.10225 7.371 4.3999 8.35735 4.3999 9.46548V16.5683C4.3999 18.3908 5.87736 19.8683 7.6999 19.8683H16.6704C18.4929 19.8683 19.9704 18.3908 19.9704 16.5683V10.7414C19.9704 9.12566 18.8093 7.78116 17.2759 7.49679ZM5.86817 8.64136C5.69777 8.87537 5.5999 9.16194 5.5999 9.46548V16.5683C5.5999 17.7281 6.54011 18.6683 7.6999 18.6683H16.6704C17.8302 18.6683 18.7704 17.7281 18.7704 16.5683V10.7414C18.7704 9.58156 17.8302 8.64136 16.6704 8.64136H5.86817Z" fill="#333333"/>
<path d="M14.2636 13.6748C14.2636 12.8462 14.9353 12.1745 15.7639 12.1745C16.5926 12.1745 17.2643 12.8462 17.2643 13.6748C17.2643 14.5035 16.5926 15.1752 15.7639 15.1752C14.9353 15.1752 14.2636 14.5035 14.2636 13.6748Z" fill="#333333"/>
<path fill-rule="evenodd" clip-rule="evenodd" d="M15.5636 13.6748C15.5636 13.7855 15.6533 13.8752 15.7639 13.8752C15.8746 13.8752 15.9643 13.7855 15.9643 13.6748C15.9643 13.5642 15.8746 13.4745 15.7639 13.4745C15.6533 13.4745 15.5636 13.5642 15.5636 13.6748ZM15.7639 12.1745C14.9353 12.1745 14.2636 12.8462 14.2636 13.6748C14.2636 14.5035 14.9353 15.1752 15.7639 15.1752C16.5926 15.1752 17.2643 14.5035 17.2643 13.6748C17.2643 12.8462 16.5926 12.1745 15.7639 12.1745Z" fill="#333333"/>
</svg>
