<svg width="24" height="24" viewBox="0 0 24 24" fill="none" xmlns="http://www.w3.org/2000/svg">
<path fill-rule="evenodd" clip-rule="evenodd" d="M11.9649 5.16973C8.20224 5.16973 5.14727 8.22366 5.14727 11.9972C5.14727 13.1699 5.44713 14.2778 5.97363 15.24L5.97469 15.2419C6.09376 15.4615 6.1013 15.7043 6.09443 15.8672C6.08675 16.0492 6.05407 16.2456 6.0128 16.4361C5.93018 16.8174 5.79401 17.2585 5.66728 17.6614C5.65352 17.7051 5.63989 17.7483 5.62643 17.791C5.53015 18.0964 5.44241 18.3747 5.37897 18.6102C5.62053 18.5414 5.90805 18.4411 6.22924 18.3289C6.24668 18.3228 6.26422 18.3167 6.28185 18.3106C6.67073 18.1748 7.10435 18.0249 7.4864 17.935C7.67801 17.8899 7.87929 17.8542 8.07065 17.8475C8.25065 17.8412 8.4916 17.8572 8.71293 17.979C9.67461 18.505 10.7821 18.8049 11.9649 18.8049C15.728 18.8049 18.7825 15.7505 18.7825 11.9873C18.7825 8.22418 15.728 5.16973 11.9649 5.16973ZM4.94932 18.6938C4.94932 18.6938 4.95398 18.6936 4.96165 18.6946C4.95288 18.6945 4.94932 18.6938 4.94932 18.6938ZM3.94727 11.9972C3.94727 7.56196 7.53846 3.96973 11.9649 3.96973C16.3908 3.96973 19.9825 7.56144 19.9825 11.9873C19.9825 16.4132 16.3908 20.0049 11.9649 20.0049C10.5885 20.0049 9.29368 19.6583 8.16573 19.0474C8.15519 19.0465 8.13796 19.0459 8.11268 19.0467C8.03179 19.0496 7.91573 19.0667 7.76134 19.103C7.45139 19.176 7.07835 19.3036 6.67725 19.4435C6.65202 19.4523 6.62663 19.4612 6.60112 19.4701C6.23947 19.5965 5.85334 19.7314 5.53008 19.8118C5.35806 19.8546 5.16904 19.8912 4.99084 19.8944C4.8397 19.8971 4.54027 19.8805 4.31091 19.6512C4.17359 19.5139 4.12563 19.353 4.10668 19.2533C4.08676 19.1485 4.08693 19.0479 4.09185 18.9673C4.10169 18.806 4.13763 18.6275 4.17875 18.4592C4.25261 18.157 4.36869 17.7891 4.48103 17.4331C4.49497 17.3889 4.50885 17.3449 4.52259 17.3012C4.65176 16.8906 4.77088 16.501 4.84001 16.1819C4.87462 16.0223 4.89193 15.9011 4.89549 15.8166C4.89636 15.7961 4.89627 15.7808 4.89589 15.7699C4.29068 14.6462 3.94727 13.3575 3.94727 11.9972ZM8.69877 7.34459C9.13388 6.96431 9.718 7.0576 10.0729 7.33792L10.0739 7.33865C10.7713 7.89172 11.1844 8.54381 11.3849 8.86022C11.4311 8.93312 11.466 8.98819 11.4904 9.02014L11.4982 9.0303C11.7198 9.33258 11.8025 9.78533 11.5485 10.1759C11.3954 10.4215 11.1263 10.762 10.7056 11.0829C10.7083 11.1055 10.7132 11.1338 10.7216 11.1684C10.7485 11.279 10.8019 11.416 10.8819 11.5695C11.043 11.8787 11.2761 12.1872 11.4767 12.3879L11.5318 12.443C11.7349 12.6417 12.0444 12.8752 12.3534 13.0373C12.5074 13.1182 12.6446 13.1724 12.7552 13.1997C12.7888 13.208 12.8163 13.213 12.8384 13.2159C13.1596 12.7947 13.5003 12.5255 13.7458 12.3725C13.9093 12.2675 14.0782 12.2471 14.1799 12.2435C14.292 12.2395 14.3944 12.2539 14.4688 12.2683C14.5461 12.2832 14.6134 12.3021 14.6603 12.3167C14.6843 12.3241 14.7044 12.3309 14.7195 12.3362L14.7384 12.343L14.745 12.3454L14.7476 12.3464L14.7487 12.3468C14.7487 12.3468 14.8045 12.3714 14.8045 12.3714L14.8066 12.3724L14.8103 12.3743L14.8221 12.3803C14.8317 12.3853 14.8449 12.3922 14.8615 12.401C14.8945 12.4187 14.9408 12.444 14.9976 12.4765C15.111 12.5413 15.2676 12.6357 15.4451 12.7563C15.7943 12.9935 16.2512 13.35 16.6139 13.8022L16.6169 13.8059C16.9041 14.1699 16.9821 14.7382 16.6145 15.175L16.6128 15.1769C16.1651 15.7042 15.2175 16.4566 13.9035 16.6177C12.5842 16.7794 11.0149 16.3313 9.34844 14.7133C9.339 14.7049 9.32977 14.6963 9.32075 14.6872L9.23487 14.6013C9.22597 14.5924 9.2174 14.5833 9.20918 14.574C7.59402 12.9104 7.13148 11.3517 7.27925 10.0404C7.42617 8.73656 8.16397 7.79638 8.69877 7.34459ZM10.1264 13.7955C11.6145 15.2658 12.8596 15.5367 13.7575 15.4266C14.6277 15.3199 15.2853 14.8418 15.6217 14.4854C15.3711 14.1929 15.0505 13.939 14.7708 13.7489C14.6232 13.6487 14.4935 13.5705 14.4017 13.5181C14.3574 13.4927 14.3223 13.4735 14.2988 13.4609C14.2939 13.4595 14.2887 13.458 14.2834 13.4565C14.1406 13.5602 13.948 13.7307 13.7616 13.985C13.6789 14.1001 13.5202 14.2794 13.2651 14.3645C13.2569 14.3672 13.2486 14.3698 13.2402 14.3722C12.9677 14.4501 12.693 14.4205 12.4671 14.3646C12.2351 14.3073 12.0055 14.21 11.7958 14.0999C11.3782 13.8807 10.9731 13.5758 10.6895 13.2977L10.6853 13.2936L10.628 13.2363C10.342 12.9501 10.0359 12.5427 9.81774 12.124C9.70806 11.9136 9.61184 11.6836 9.55549 11.4515C9.50159 11.2294 9.47348 10.9616 9.54579 10.6954C9.62078 10.3943 9.84639 10.2266 9.92045 10.1715C9.92354 10.1692 9.92637 10.1671 9.92891 10.1652L9.93458 10.161C10.1862 9.97676 10.3561 9.78642 10.4604 9.64379C10.405 9.56438 10.3517 9.48134 10.2963 9.39503C10.0931 9.07853 9.8617 8.71811 9.39378 8.33191C9.03769 8.66451 8.56886 9.31259 8.4717 10.1748C8.37147 11.0643 8.65369 12.304 10.1264 13.7955ZM14.8045 12.3714C14.7867 12.3624 14.7682 12.3543 14.7496 12.3471L14.8045 12.3714Z" fill="#333333"/>
</svg>
