<svg width="24" height="24" viewBox="0 0 24 24" fill="none" xmlns="http://www.w3.org/2000/svg">
<path d="M4.71024 10.6194C6.64386 8.68631 9.26607 7.60039 12.0002 7.60039C14.7344 7.60039 17.3566 8.68631 19.2902 10.6194C19.5245 10.8536 19.9044 10.8536 20.1387 10.6192C20.373 10.3849 20.3729 10.005 20.1386 9.7707C17.9799 7.61269 15.0526 6.40039 12.0002 6.40039C8.94788 6.40039 6.02049 7.61269 3.86184 9.7707C3.62749 10.005 3.62743 10.3849 3.86171 10.6192C4.09599 10.8536 4.47589 10.8536 4.71024 10.6194Z" fill="#333333"/>
<path d="M12.0005 10.8709C11.0762 10.8709 10.161 11.053 9.30711 11.4067C8.4532 11.7604 7.67732 12.2789 7.02379 12.9325C6.78948 13.1668 6.40958 13.1668 6.17526 12.9325C5.94094 12.6982 5.94093 12.3183 6.17524 12.084C6.94019 11.319 7.84835 10.7121 8.84786 10.298C9.84737 9.88401 10.9186 9.6709 12.0005 9.6709C13.0824 9.6709 14.1537 9.884 15.1532 10.298C16.1527 10.7121 17.0609 11.319 17.8258 12.084C18.0601 12.3183 18.0601 12.6982 17.8258 12.9325C17.5915 13.1668 17.2116 13.1668 16.9773 12.9325C16.3238 12.2789 15.5479 11.7604 14.694 11.4067C13.8401 11.053 12.9248 10.8709 12.0005 10.8709Z" fill="#333333"/>
<path d="M10.5764 14.4286C11.031 14.2402 11.5211 14.1446 12.0172 14.1446C12.5235 14.1446 12.9784 14.2235 13.4242 14.4083C13.8713 14.5937 14.2672 14.8707 14.6239 15.2279C14.86 15.4643 15.2431 15.4645 15.4795 15.2284C15.7159 14.9923 15.7161 14.6092 15.48 14.3728C15.0261 13.9183 14.5002 13.5446 13.8877 13.2906C13.2737 13.0361 12.6579 12.9346 12.0172 12.9346C11.366 12.9346 10.7181 13.06 10.113 13.3109C9.50754 13.5619 8.93487 13.9532 8.48985 14.3879C8.25084 14.6214 8.24636 15.0044 8.47984 15.2434C8.71333 15.4825 9.09637 15.4869 9.33538 15.2534C9.67742 14.9193 10.1222 14.6169 10.5764 14.4286Z" fill="#333333"/>
<path d="M12.031 16.2822C11.3491 16.2822 10.7964 16.835 10.7964 17.5168C10.7964 18.1987 11.3491 18.7514 12.031 18.7514C12.7128 18.7514 13.2656 18.1987 13.2656 17.5168C13.2656 16.835 12.7128 16.2822 12.031 16.2822Z" fill="#333333"/>
</svg>
