<svg width="24" height="24" viewBox="0 0 24 24" fill="none" xmlns="http://www.w3.org/2000/svg">
<path fill-rule="evenodd" clip-rule="evenodd" d="M13.7499 8.62016C14.1699 8.62016 14.4099 8.53016 14.5099 8.48016V8.50016C14.7399 8.38016 15.0199 8.39016 15.2499 8.53016C15.4699 8.66016 15.5999 8.89016 15.5999 9.14016V13.1602C15.5999 13.3002 15.5399 13.4402 15.4499 13.5502C15.3699 13.6402 14.8999 14.1102 13.7499 14.1102C13.1561 14.1102 12.6798 13.8947 12.2629 13.706L12.2499 13.7002C11.8999 13.5402 11.5899 13.4002 11.2499 13.4002C10.7999 13.4002 10.3799 13.5002 10.0999 13.5802V15.5102C10.0999 15.8402 9.8299 16.1102 9.4999 16.1102C9.1699 16.1102 8.8999 15.8402 8.8999 15.5102V8.87016C8.8999 8.63016 9.0399 8.42016 9.2599 8.32016C9.2999 8.30016 10.1999 7.91016 11.2499 7.91016C11.8437 7.91016 12.32 8.12565 12.7369 8.31428L12.7499 8.32016C13.0999 8.48016 13.4099 8.62016 13.7499 8.62016ZM13.7499 12.9002C14.0599 12.9002 14.2699 12.8602 14.3999 12.8102V9.76016C14.1999 9.80016 13.9799 9.82016 13.7499 9.82016C13.1561 9.82016 12.6798 9.60466 12.2629 9.41603L12.2499 9.41016C11.8999 9.25016 11.5899 9.11016 11.2499 9.11016C10.7999 9.11016 10.3799 9.21016 10.0999 9.29016V12.3302C10.4299 12.2502 10.8299 12.1902 11.2499 12.1902C11.8437 12.1902 12.32 12.4056 12.7369 12.5943L12.7499 12.6002C13.0999 12.7602 13.4099 12.9002 13.7499 12.9002Z" fill="#333333"/>
<path fill-rule="evenodd" clip-rule="evenodd" d="M7.5 4.5H16.5C18.15 4.5 19.5 5.85 19.5 7.5V16.5C19.5 18.16 18.15 19.5 16.5 19.5H7.5C5.85 19.5 4.5 18.15 4.5 16.5V7.5C4.5 5.85 5.85 4.5 7.5 4.5ZM16.5 18.3C17.49 18.3 18.3 17.49 18.3 16.5V7.5C18.3 6.51 17.49 5.7 16.5 5.7H7.5C6.51 5.7 5.7 6.51 5.7 7.5V16.5C5.7 17.49 6.51 18.3 7.5 18.3H16.5Z" fill="#333333"/>
</svg>
