<svg width="24" height="24" viewBox="0 0 24 24" fill="none" xmlns="http://www.w3.org/2000/svg">
<path fill-rule="evenodd" clip-rule="evenodd" d="M16.5 5.7H7.5C6.50589 5.7 5.7 6.50589 5.7 7.5V16.5C5.7 17.4941 6.50589 18.3 7.5 18.3H16.5C17.4941 18.3 18.3 17.4941 18.3 16.5V7.5C18.3 6.50589 17.4941 5.7 16.5 5.7ZM7.5 4.5C5.84315 4.5 4.5 5.84315 4.5 7.5V16.5C4.5 18.1569 5.84315 19.5 7.5 19.5H16.5C18.1569 19.5 19.5 18.1569 19.5 16.5V7.5C19.5 5.84315 18.1569 4.5 16.5 4.5H7.5Z" fill="#333333"/>
<path fill-rule="evenodd" clip-rule="evenodd" d="M11.6378 7.92626C11.7287 7.91383 11.8592 7.90002 11.9985 7.9C12.137 7.89998 12.267 7.91346 12.3577 7.92561C12.4042 7.93186 12.4433 7.93815 12.4716 7.94305C12.4858 7.9455 12.4974 7.94764 12.5061 7.94927L12.5127 7.95054C13.9492 8.2034 14.6569 9.51201 14.6569 10.4581C14.6569 10.8558 14.6551 11.1961 14.6532 11.482C14.6528 11.5375 14.6525 11.5908 14.6521 11.6419C14.6509 11.8158 14.6499 11.9652 14.6496 12.0926C14.6672 12.1149 14.694 12.1451 14.7321 12.1822C14.8427 12.2899 14.9867 12.3968 15.0943 12.4704C15.3291 12.6311 15.4895 12.9033 15.4895 13.2139C15.4895 13.7033 15.0928 14.1 14.6034 14.1H9.39649C8.90712 14.1 8.51042 13.7033 8.51042 13.2139C8.51042 12.9033 8.671 12.6309 8.90598 12.4703C9.01372 12.3966 9.15783 12.2898 9.26862 12.182C9.30671 12.1449 9.33353 12.1148 9.35117 12.0925C9.35082 11.9652 9.34975 11.816 9.3485 11.6422C9.34814 11.5911 9.34776 11.5377 9.34737 11.4822C9.3454 11.1963 9.34341 10.8559 9.34341 10.4581C9.34341 9.5132 10.0494 8.20641 11.4829 7.95163L11.4889 7.95046C11.4976 7.94879 11.5093 7.94661 11.5235 7.94409C11.5519 7.93908 11.5911 7.93264 11.6378 7.92626ZM11.7144 9.12907L11.6967 9.13244C10.9401 9.26494 10.5434 9.97844 10.5434 10.4581C10.5434 10.8519 10.5454 11.1892 10.5473 11.474C10.5477 11.5282 10.5481 11.5807 10.5485 11.6314C10.55 11.8455 10.5513 12.0278 10.5513 12.1768C10.5513 12.4098 10.4548 12.5986 10.3785 12.7168C10.3362 12.7824 10.2888 12.8438 10.2401 12.9H13.7605C13.7118 12.8437 13.6643 12.7823 13.622 12.7166C13.5458 12.5984 13.4495 12.4096 13.4495 12.1768C13.4495 12.0279 13.4507 11.8459 13.4522 11.6317C13.4525 11.581 13.4529 11.5285 13.4532 11.4742C13.4551 11.1894 13.4569 10.852 13.4569 10.4581C13.4569 9.97784 13.0594 9.26343 12.3012 9.13176L12.2849 9.12871L12.286 9.12892L12.2835 9.12845L12.2669 9.12547C12.2512 9.12275 12.2274 9.11889 12.1982 9.11497C12.1374 9.10682 12.0647 9.09999 11.9986 9.1C11.9331 9.10001 11.861 9.10691 11.8004 9.11519C11.7714 9.11916 11.7476 9.12308 11.732 9.12584L11.7144 9.12907Z" fill="#333333"/>
<path fill-rule="evenodd" clip-rule="evenodd" d="M10.3015 14.9317C10.4497 14.6353 10.8101 14.5152 11.1065 14.6633C11.3717 14.7959 11.6806 14.8687 11.9999 14.8687C12.3193 14.8687 12.6282 14.7959 12.8934 14.6633C13.1897 14.5152 13.5501 14.6353 13.6983 14.9317C13.8465 15.2281 13.7264 15.5885 13.43 15.7367C12.9916 15.9559 12.498 16.0687 11.9999 16.0687C11.5018 16.0687 11.0082 15.9559 10.5698 15.7367C10.2734 15.5885 10.1533 15.2281 10.3015 14.9317Z" fill="#333333"/>
</svg>
