<svg width="24" height="24" viewBox="0 0 24 24" fill="none" xmlns="http://www.w3.org/2000/svg">
<path fill-rule="evenodd" clip-rule="evenodd" d="M7.79484 15.4256C8.0688 15.6955 8.45278 16.0113 8.93438 16.4027C8.95719 16.4213 8.98018 16.4399 9.00334 16.4587C9.44981 16.8215 9.95722 17.2338 10.4347 17.6691C10.9354 18.1255 11.4428 18.6422 11.844 19.2057C11.8972 19.2805 11.9495 19.3574 12.0004 19.4365C12.0513 19.3574 12.1036 19.2805 12.1569 19.2057C12.5581 18.6422 13.0655 18.1255 13.5661 17.6691C14.0436 17.2338 14.5511 16.8215 14.9975 16.4587C15.0207 16.4399 15.0437 16.4212 15.0665 16.4027C15.5481 16.0113 15.9321 15.6955 16.206 15.4256C17.2795 14.3684 17.9376 12.9153 17.9376 11.3125C17.9376 8.11151 15.2971 5.48516 12.0004 5.48516C8.70372 5.48516 6.06328 8.11151 6.06328 11.3125C6.06328 12.9153 6.72136 14.3684 7.79484 15.4256ZM12.6171 20.9106C12.9952 19.632 14.4999 18.4093 15.7614 17.3843C16.2549 16.9833 16.7112 16.6125 17.0482 16.2805C18.3393 15.0089 19.1376 13.2524 19.1376 11.3125C19.1376 7.4313 15.9423 4.28516 12.0004 4.28516C8.05858 4.28516 4.86328 7.4313 4.86328 11.3125C4.86328 13.2524 5.66157 15.0089 6.95268 16.2805C7.2897 16.6125 7.74597 16.9833 8.23946 17.3843C9.50091 18.4093 11.0056 19.632 11.3838 20.9106C11.3924 20.9399 11.4005 20.9691 11.4079 20.9984C11.4272 21.0743 11.4425 21.1503 11.4534 21.2265C11.4581 21.2598 11.4621 21.2931 11.4651 21.3265C11.4919 21.6162 11.7049 21.8535 12.0004 21.8535C12.2959 21.8535 12.509 21.6162 12.5357 21.3265C12.5388 21.2931 12.5427 21.2598 12.5475 21.2265C12.5584 21.1503 12.5736 21.0743 12.5929 20.9984C12.6004 20.9691 12.6084 20.9399 12.6171 20.9106Z" fill="#333333"/>
<path fill-rule="evenodd" clip-rule="evenodd" d="M8.65537 11.0937C8.65537 9.24626 10.153 7.74863 12.0004 7.74863C13.8479 7.74863 15.3455 9.24627 15.3455 11.0937C15.3455 12.9411 13.8479 14.4387 12.0004 14.4387C10.153 14.4387 8.65537 12.9411 8.65537 11.0937ZM12.0004 8.94863C10.8158 8.94863 9.85537 9.90901 9.85537 11.0937C9.85537 12.2784 10.8158 13.2387 12.0004 13.2387C13.1851 13.2387 14.1455 12.2784 14.1455 11.0937C14.1455 9.909 13.1851 8.94863 12.0004 8.94863Z" fill="#333333"/>
</svg>
