<svg width="24" height="24" viewBox="0 0 24 24" fill="none" xmlns="http://www.w3.org/2000/svg">
<path d="M10.8 7.69998C11.1314 7.69998 11.4 7.96861 11.4 8.29998L11.4 10.2H13.3C13.6314 10.2 13.9 10.4686 13.9 10.8C13.9 11.1314 13.6314 11.4 13.3 11.4H11.4L11.4 13.3C11.4 13.6314 11.1314 13.9 10.8 13.9C10.4686 13.9 10.2 13.6314 10.2 13.3L10.2 11.4H8.29998C7.96861 11.4 7.69998 11.1314 7.69998 10.8C7.69998 10.4686 7.96861 10.2 8.29998 10.2H10.2L10.2 8.29998C10.2 7.96861 10.4686 7.69998 10.8 7.69998Z" fill="#333333"/>
<path fill-rule="evenodd" clip-rule="evenodd" d="M10.8 4C7.04446 4 4 7.04446 4 10.8C4 14.5555 7.04446 17.6 10.8 17.6C12.4617 17.6 13.9843 17.0039 15.1654 16.014L19.0757 19.9243C19.31 20.1586 19.6899 20.1586 19.9243 19.9243C20.1586 19.6899 20.1586 19.31 19.9243 19.0757L16.014 15.1654C17.0039 13.9843 17.6 12.4617 17.6 10.8C17.6 7.04446 14.5555 4 10.8 4ZM5.2 10.8C5.2 7.70721 7.70721 5.2 10.8 5.2C13.8928 5.2 16.4 7.70721 16.4 10.8C16.4 13.8928 13.8928 16.4 10.8 16.4C7.70721 16.4 5.2 13.8928 5.2 10.8Z" fill="#333333"/>
</svg>
