<svg width="24" height="24" viewBox="0 0 24 24" fill="none" xmlns="http://www.w3.org/2000/svg">
<path d="M8.29998 10.2C7.96861 10.2 7.69998 10.4686 7.69998 10.8C7.69998 11.1314 7.96861 11.4 8.29998 11.4H13.3C13.6314 11.4 13.9 11.1314 13.9 10.8C13.9 10.4686 13.6314 10.2 13.3 10.2H8.29998Z" fill="#333333"/>
<path fill-rule="evenodd" clip-rule="evenodd" d="M4 10.8C4 7.04446 7.04446 4 10.8 4C14.5555 4 17.6 7.04446 17.6 10.8C17.6 12.4617 17.0039 13.9843 16.014 15.1654L19.9243 19.0757C20.1586 19.31 20.1586 19.6899 19.9243 19.9243C19.6899 20.1586 19.31 20.1586 19.0757 19.9243L15.1654 16.014C13.9843 17.0039 12.4617 17.6 10.8 17.6C7.04446 17.6 4 14.5555 4 10.8ZM10.8 5.2C7.70721 5.2 5.2 7.70721 5.2 10.8C5.2 13.8928 7.70721 16.4 10.8 16.4C13.8928 16.4 16.4 13.8928 16.4 10.8C16.4 7.70721 13.8928 5.2 10.8 5.2Z" fill="#333333"/>
</svg>
