<svg width="16" height="15" viewBox="0 0 16 15" version="1.1" xmlns="http://www.w3.org/2000/svg" xmlns:xlink="http://www.w3.org/1999/xlink">
<title>&#208;&#161;&#208;&#190;&#208;&#190;&#208;&#177;&#209;&#137;&#208;&#181;&#208;&#189;&#208;&#184;&#208;&#181; Copy</title>
<desc>Created using Figma</desc>
<g id="Canvas" transform="translate(-1118 -325)">
<g id="&#208;&#161;&#208;&#190;&#208;&#190;&#208;&#177;&#209;&#137;&#208;&#181;&#208;&#189;&#208;&#184;&#208;&#181; Copy">
<use xlink:href="#path0_fill" transform="translate(1118 325)" fill="#2FC6F6"/>
</g>
</g>
<defs>
<path id="path0_fill" fill-rule="evenodd" d="M 12 7.09894C 12 8.03677 11.2775 8.80411 10.3944 8.80411L 10.3944 8.79962L 5.96191 8.79962C 5.04089 9.93491 3.88733 11.3394 3.57886 11.6132C 3.05066 12.0888 2.79724 12.0978 2.79724 11.7927L 2.79724 8.79962L 1.60559 8.79962C 0.722534 8.79962 0 8.03229 0 7.09442L 0 1.70517C 0 0.767334 0.722534 0 1.60559 0L 10.3944 0C 11.2775 0 12 0.767334 12 1.70517L 12 7.09894ZM 13.5482 3L 14.4315 3C 15.2983 3 16.0042 3.76688 16 4.70416L 16 10.0992C 16 11.0365 15.2942 11.8034 14.4315 11.8034L 13.2676 11.8034L 13.2676 14.7946C 13.2676 15.0951 13.024 15.0906 12.5039 14.6152C 12.2068 14.3417 11.0758 12.938 10.176 11.8034L 5.84619 11.8034C 5.53662 11.8034 5.24353 11.7002 5 11.5298L 6.62622 9.68661L 11.2408 9.68661C 12.5122 9.68661 13.5482 8.55649 13.5482 7.17969L 13.5482 3Z"/>
</defs>
</svg>
