<svg width="107" height="106" viewBox="0 0 107 106" fill="none" xmlns="http://www.w3.org/2000/svg">
<path d="M3.53027 17.3109C3.53027 9.42494 10.2204 3.1948 18.0864 3.75556L56.1377 6.46821C63.25 6.97525 68.761 12.8931 68.761 20.0236V60.4418C68.761 67.7365 63.0019 73.73 55.713 74.0208L17.6617 75.5387C9.94995 75.8464 3.53027 69.6777 3.53027 61.9598V17.3109Z" fill="#1B79E6" fill-opacity="0.78"/>
<path d="M4.03027 17.3109C4.03027 9.71509 10.4742 3.71416 18.0508 4.25429L56.1021 6.96694C62.9528 7.45533 68.261 13.1555 68.261 20.0236V60.4418C68.261 67.4681 62.7138 73.2411 55.6931 73.5211L17.6418 75.0391C10.2138 75.3355 4.03027 69.3937 4.03027 61.9598V17.3109Z" stroke="black" stroke-opacity="0.16"/>
<g filter="url(#filter0_d_9824_81696)">
<path fill-rule="evenodd" clip-rule="evenodd" d="M46.3499 35.7297C46.3499 35.5726 46.3649 35.4185 46.3978 35.2674C46.61 34.2509 47.4679 33.6553 48.3108 33.9338L55.5567 36.3194C56.2383 36.5446 56.7165 37.3032 56.7165 38.1626V55.4095L58.8 55.3888C59.0481 55.3888 59.2484 55.6229 59.2484 55.9193V61.0548C59.2484 61.3512 59.0481 61.5941 58.8 61.6001L16.2814 62.5128C15.9944 62.5187 15.7612 62.2639 15.7612 61.9468V56.4112C15.7612 56.0911 15.9944 55.8304 16.2814 55.8274L18.6757 55.8037V23.5531C18.6757 21.9203 19.707 20.5778 21.103 20.3852L40.5897 17.6885C40.7332 17.6678 40.8767 17.6619 41.0201 17.6707C42.5028 17.7537 43.6955 19.2473 43.6955 21.0105V55.5429L46.3469 55.5162V35.7267L46.3499 35.7297ZM30.9285 55.3562V45.337L25.8947 45.3014V55.4066L30.9285 55.3562ZM38.4375 45.3933L33.5321 45.3577V51.0593L38.4375 51.0474V45.3933ZM53.7154 45.2273L49.0671 45.1918V50.7392L53.7154 50.7304V45.2273ZM38.4375 28.1523L33.5321 27.9715V33.6731L38.4375 33.8064V28.1523ZM30.9255 27.8737L25.8917 27.687V33.4627L30.9255 33.599V27.8737ZM38.4375 36.7728L33.5321 36.6631V42.3647L38.4375 42.424V36.7728ZM30.9285 36.6068L25.8947 36.4942V42.2699L30.9285 42.3321V36.6068Z" fill="white" fill-opacity="0.9" shape-rendering="crispEdges"/>
</g>
<path d="M49.7354 57.2419C49.7354 49.7579 55.7863 43.6825 63.2702 43.6522L90.4497 43.5423C97.9765 43.5119 104.094 49.6051 104.094 57.132V86.1022C104.094 93.1521 98.7033 99.0313 91.6798 99.641L64.5004 102C56.561 102.69 49.7354 96.4307 49.7354 88.4615V57.2419Z" fill="#1BCE7B" fill-opacity="0.78"/>
<path d="M50.2354 57.2419C50.2354 50.0333 56.0636 44.1814 63.2722 44.1522L90.4517 44.0423C97.7016 44.013 103.594 49.882 103.594 57.132V86.1022C103.594 92.8927 98.4017 98.5556 91.6366 99.1429L64.4571 101.502C56.8099 102.166 50.2354 96.1375 50.2354 88.4615V57.2419Z" stroke="black" stroke-opacity="0.16"/>
<g filter="url(#filter1_d_9824_81696)">
<path d="M73.5803 66.6268C73.5803 67.7989 72.6952 68.786 71.6048 68.8282C70.5145 68.8704 69.6145 67.9548 69.6145 66.7762C69.6145 65.5976 70.507 64.6105 71.6048 64.5716C72.7027 64.5326 73.5803 65.4547 73.5803 66.6268Z" fill="white" fill-opacity="0.9" shape-rendering="crispEdges"/>
<path d="M76.6863 64.8184C76.0942 64.8378 75.6138 65.5716 75.6138 66.458C75.6138 67.3411 76.0942 68.0392 76.6863 68.0165L82.9682 67.7664C83.5453 67.7437 84.0154 67.0164 84.0154 66.143C84.0154 65.2696 83.5498 64.5781 82.9682 64.5976L76.6863 64.8184Z" fill="white" fill-opacity="0.9" shape-rendering="crispEdges"/>
<path d="M69.6458 72.592C69.6249 72.7 69.6145 72.8129 69.6145 72.9288V79.0101C69.6145 79.7406 70.0519 80.3056 70.5933 80.2731L83.0768 79.5491C83.5929 79.5199 84.0154 78.9159 84.0154 78.2049V72.2503C84.0154 71.5392 83.5974 70.9808 83.0768 71.0035L70.5933 71.5652C70.2616 71.5812 69.9656 71.8195 69.7886 72.1706C69.7246 72.298 69.6755 72.4401 69.6458 72.592Z" fill="white" fill-opacity="0.9" shape-rendering="crispEdges"/>
<path fill-rule="evenodd" clip-rule="evenodd" d="M67.5543 57.5617C65.2248 57.6169 63.3252 59.7306 63.3252 62.2794V85.3674C63.3252 87.9193 65.2248 89.8479 67.5543 89.6824L87.9351 88.2213C90.1128 88.0655 91.8637 85.9583 91.8637 83.5166V61.4059C91.8637 58.9643 90.1084 57.026 87.9351 57.0779L67.5543 57.5617ZM86.8179 84.5329C87.7759 84.4713 88.5479 83.6141 88.5479 82.6238V62.6073C88.5479 61.617 87.7714 60.8345 86.8179 60.8637L68.7354 61.3995C67.7253 61.4286 66.9012 62.2858 66.9012 63.3086V83.9907C66.9012 85.0134 67.7253 85.7926 68.7354 85.7245L86.8179 84.5329Z" fill="white" fill-opacity="0.9" shape-rendering="crispEdges"/>
</g>
<defs>
<filter id="filter0_d_9824_81696" x="5.76123" y="11.6667" width="63.4873" height="64.8462" filterUnits="userSpaceOnUse" color-interpolation-filters="sRGB">
<feFlood flood-opacity="0" result="BackgroundImageFix"/>
<feColorMatrix in="SourceAlpha" type="matrix" values="0 0 0 0 0 0 0 0 0 0 0 0 0 0 0 0 0 0 127 0" result="hardAlpha"/>
<feOffset dy="4"/>
<feGaussianBlur stdDeviation="5"/>
<feComposite in2="hardAlpha" operator="out"/>
<feColorMatrix type="matrix" values="0 0 0 0 0 0 0 0 0 0 0 0 0 0 0 0 0 0 0.05 0"/>
<feBlend mode="normal" in2="BackgroundImageFix" result="effect1_dropShadow_9824_81696"/>
<feBlend mode="normal" in="SourceGraphic" in2="effect1_dropShadow_9824_81696" result="shape"/>
</filter>
<filter id="filter1_d_9824_81696" x="53.3252" y="51.0769" width="48.5386" height="52.6155" filterUnits="userSpaceOnUse" color-interpolation-filters="sRGB">
<feFlood flood-opacity="0" result="BackgroundImageFix"/>
<feColorMatrix in="SourceAlpha" type="matrix" values="0 0 0 0 0 0 0 0 0 0 0 0 0 0 0 0 0 0 127 0" result="hardAlpha"/>
<feOffset dy="4"/>
<feGaussianBlur stdDeviation="5"/>
<feComposite in2="hardAlpha" operator="out"/>
<feColorMatrix type="matrix" values="0 0 0 0 0 0 0 0 0 0 0 0 0 0 0 0 0 0 0.05 0"/>
<feBlend mode="normal" in2="BackgroundImageFix" result="effect1_dropShadow_9824_81696"/>
<feBlend mode="normal" in="SourceGraphic" in2="effect1_dropShadow_9824_81696" result="shape"/>
</filter>
</defs>
</svg>
