<svg width="107" height="106" viewBox="0 0 107 106" fill="none" xmlns="http://www.w3.org/2000/svg">
<path d="M3.21777 17.3109C3.21777 9.42494 9.90788 3.1948 17.7739 3.75556L55.8252 6.46821C62.9375 6.97525 68.4485 12.8931 68.4485 20.0236V60.4418C68.4485 67.7365 62.6894 73.73 55.4005 74.0208L17.3492 75.5387C9.63745 75.8464 3.21777 69.6777 3.21777 61.9598V17.3109Z" fill="#1B79E6" fill-opacity="0.78"/>
<path d="M3.71777 17.3109C3.71777 9.71509 10.1617 3.71416 17.7383 4.25429L55.7896 6.96694C62.6403 7.45533 67.9485 13.1555 67.9485 20.0236V60.4418C67.9485 67.4681 62.4013 73.2411 55.3806 73.5211L17.3293 75.0391C9.90125 75.3355 3.71777 69.3937 3.71777 61.9598V17.3109Z" stroke="black" stroke-opacity="0.16"/>
<g filter="url(#filter0_d_9824_81695)">
<path d="M30.4462 18.1602C30.5149 18.087 30.5899 18.0199 30.6712 17.9619C31.2929 17.5133 32.1865 17.0678 33.2425 16.7474C34.2735 16.427 35.3671 16.2653 36.3294 16.3172C39.7912 16.5064 42.2781 18.2304 43.8934 20.6502L43.8997 20.6563C45.4994 23.0761 46.2461 26.2434 46.1898 29.362C46.1305 32.4805 45.265 35.6021 43.5966 37.9151C41.9438 40.2525 39.4975 41.7751 36.3325 41.7324C30.9711 41.6653 27.603 37.2438 26.5439 32.0167C25.516 26.9086 26.7626 21.1262 30.4462 18.1541V18.1602Z" fill="white" fill-opacity="0.9" shape-rendering="crispEdges"/>
<path d="M36.3596 46.4712C44.2767 46.5078 52.8344 49.3578 53.4998 60.349C53.4998 61.1485 52.9281 61.8076 52.222 61.8229L19.5975 62.5125C18.8101 62.5277 18.1665 61.8564 18.1665 61.0112C18.9101 49.3609 28.2332 46.4346 36.3627 46.4743L36.3596 46.4712Z" fill="white" fill-opacity="0.9" shape-rendering="crispEdges"/>
</g>
<path d="M49.4229 57.2419C49.4229 49.7579 55.4738 43.6825 62.9577 43.6522L90.1372 43.5423C97.664 43.5119 103.782 49.6051 103.782 57.132V86.1022C103.782 93.1521 98.3908 99.0313 91.3673 99.641L64.1879 102C56.2485 102.69 49.4229 96.4307 49.4229 88.4615V57.2419Z" fill="#1BCE7B" fill-opacity="0.78"/>
<path d="M49.9229 57.2419C49.9229 50.0333 55.7511 44.1814 62.9597 44.1522L90.1392 44.0423C97.3891 44.013 103.282 49.882 103.282 57.132V86.1022C103.282 92.8927 98.0892 98.5556 91.3241 99.1429L64.1446 101.502C56.4974 102.166 49.9229 96.1375 49.9229 88.4615V57.2419Z" stroke="black" stroke-opacity="0.16"/>
<g filter="url(#filter1_d_9824_81695)">
<path d="M85.5999 58.3861V55.9474C85.5999 55.0509 84.9941 54.3416 84.2486 54.3592C83.5031 54.3768 82.8935 55.118 82.8935 56.0215V58.4673C82.8935 59.3673 83.4994 60.0766 84.2486 60.0555C84.9941 60.0307 85.5999 59.2826 85.5999 58.3861Z" fill="white" fill-opacity="0.9" shape-rendering="crispEdges"/>
<path d="M73.7118 56.2085V58.8273C73.7118 59.2224 73.6024 59.5904 73.4155 59.8894C73.1456 60.3223 72.7153 60.6105 72.2322 60.6272C71.415 60.6554 70.745 59.8896 70.745 58.919V56.2897L70.7563 56.0602C70.8129 55.5157 71.079 55.0437 71.4565 54.7613C71.6849 54.5897 71.9547 54.488 72.2435 54.4827C73.0607 54.4686 73.7194 55.2415 73.7118 56.2085Z" fill="white" fill-opacity="0.9" shape-rendering="crispEdges"/>
<path d="M82.8992 69.2174L85.0337 69.1187C85.4622 69.0974 85.8094 69.4821 85.8094 69.9763V72.4291C85.8094 72.9232 85.4622 73.3432 85.0337 73.3643L82.8992 73.4773C82.467 73.4985 82.116 73.1173 82.116 72.6196V70.1527C82.116 69.6551 82.467 69.2351 82.8992 69.2174Z" fill="white" fill-opacity="0.9" shape-rendering="crispEdges"/>
<path d="M79.4681 69.3763L77.2996 69.4786C76.8598 69.4927 76.505 69.9162 76.505 70.4174V72.9056C76.505 73.0951 76.556 73.2685 76.6428 73.4095C76.7447 73.5755 76.8976 73.6966 77.0769 73.7463C77.1467 73.766 77.2222 73.7745 77.2996 73.7702L79.4681 73.6572C79.9041 73.6361 80.2551 73.2126 80.2551 72.7149V70.241C80.2551 69.7433 79.9041 69.3551 79.4681 69.3763Z" fill="white" fill-opacity="0.9" shape-rendering="crispEdges"/>
<path d="M71.6075 69.7433L73.8137 69.6409C74.2572 69.6197 74.6158 70.0115 74.6158 70.5127V73.0079C74.6158 73.5126 74.2572 73.936 73.8137 73.9607L71.6075 74.0772C71.5395 74.0811 71.4735 74.0748 71.4093 74.0595L71.3168 74.0308L71.23 73.9903C71.1338 73.9375 71.0507 73.8629 70.9828 73.772C70.8695 73.6206 70.8016 73.4236 70.8016 73.2054V70.6962C70.8016 70.1915 71.1602 69.7644 71.6075 69.7433Z" fill="white" fill-opacity="0.9" shape-rendering="crispEdges"/>
<path d="M73.81 76.1172L71.6037 76.2408C71.1564 76.2655 70.7978 76.6961 70.7978 77.2008V79.7065C70.7978 80.2112 71.1602 80.5995 71.6037 80.5712L73.81 80.4336C74.2535 80.4053 74.6121 79.9783 74.6121 79.4735V76.9784C74.6121 76.4773 74.2535 76.0891 73.81 76.1172Z" fill="white" fill-opacity="0.9" shape-rendering="crispEdges"/>
<path d="M77.2996 75.9195L79.4681 75.7995C79.9041 75.7783 80.2551 76.163 80.2551 76.6607V79.1347C80.2551 79.4623 80.1041 79.7578 79.8757 79.9295C79.8267 79.966 79.7757 79.997 79.721 80.0214C79.6851 80.0377 79.6474 80.0511 79.6077 80.0614C79.5625 80.0733 79.5153 80.081 79.4681 80.0841L77.2996 80.2182C76.8598 80.2464 76.505 79.8618 76.505 79.3606V76.8724C76.505 76.3712 76.8598 75.9442 77.2996 75.9195Z" fill="white" fill-opacity="0.9" shape-rendering="crispEdges"/>
<path fill-rule="evenodd" clip-rule="evenodd" d="M87.157 57.7016V58.8697C87.157 60.8002 85.8585 62.4166 84.243 62.4766C82.6274 62.5366 81.3063 61.0013 81.3063 59.0532V57.8745L75.2481 58.0545V59.2402C75.2481 61.2061 73.9119 62.8507 72.2322 62.9143C70.5506 62.9777 69.188 61.4178 69.188 59.4344V58.238L66.8345 58.3086C64.7339 58.3685 63.0165 60.4155 63.0127 62.886L63.0146 62.9925L63.024 63.2566V87.4251C63.024 88.7591 63.9507 89.772 65.0906 89.6873L91.0014 87.7604C92.0564 87.6827 92.9095 86.5815 92.9095 85.3039V62.1589C92.9472 59.7132 91.3921 57.7227 89.3783 57.6345L87.157 57.7016ZM67.1497 84.7322L89.0858 83.2499V64.7601L67.1497 65.646V84.7322Z" fill="white" fill-opacity="0.9" shape-rendering="crispEdges"/>
</g>
<defs>
<filter id="filter0_d_9824_81695" x="8.1665" y="10.3076" width="55.3335" height="66.2051" filterUnits="userSpaceOnUse" color-interpolation-filters="sRGB">
<feFlood flood-opacity="0" result="BackgroundImageFix"/>
<feColorMatrix in="SourceAlpha" type="matrix" values="0 0 0 0 0 0 0 0 0 0 0 0 0 0 0 0 0 0 127 0" result="hardAlpha"/>
<feOffset dy="4"/>
<feGaussianBlur stdDeviation="5"/>
<feComposite in2="hardAlpha" operator="out"/>
<feColorMatrix type="matrix" values="0 0 0 0 0 0 0 0 0 0 0 0 0 0 0 0 0 0 0.05 0"/>
<feBlend mode="normal" in2="BackgroundImageFix" result="effect1_dropShadow_9824_81695"/>
<feBlend mode="normal" in="SourceGraphic" in2="effect1_dropShadow_9824_81695" result="shape"/>
</filter>
<filter id="filter1_d_9824_81695" x="53.0127" y="48.3589" width="49.8975" height="55.3333" filterUnits="userSpaceOnUse" color-interpolation-filters="sRGB">
<feFlood flood-opacity="0" result="BackgroundImageFix"/>
<feColorMatrix in="SourceAlpha" type="matrix" values="0 0 0 0 0 0 0 0 0 0 0 0 0 0 0 0 0 0 127 0" result="hardAlpha"/>
<feOffset dy="4"/>
<feGaussianBlur stdDeviation="5"/>
<feComposite in2="hardAlpha" operator="out"/>
<feColorMatrix type="matrix" values="0 0 0 0 0 0 0 0 0 0 0 0 0 0 0 0 0 0 0.05 0"/>
<feBlend mode="normal" in2="BackgroundImageFix" result="effect1_dropShadow_9824_81695"/>
<feBlend mode="normal" in="SourceGraphic" in2="effect1_dropShadow_9824_81695" result="shape"/>
</filter>
</defs>
</svg>
