<svg width="109" height="108" viewBox="0 0 109 108" fill="none" xmlns="http://www.w3.org/2000/svg">
<g id="Graphic from Lib" clip-path="url(#clip0_22574_7921)">
<path id="Vector" d="M3.26929 17.6303C3.26929 9.59825 10.0813 3.2515 18.0933 3.81872L56.8625 6.56344C64.1119 7.07668 69.7308 13.1075 69.7308 20.375V61.1293C69.7308 68.5161 63.9322 74.6021 56.5541 74.9593L17.7849 76.8359C9.88425 77.2183 3.26929 70.9158 3.26929 63.0059V17.6303Z" fill="#1B79E6" fill-opacity="0.78"/>
<path id="Vector (Stroke)" fill-rule="evenodd" clip-rule="evenodd" d="M56.7647 7.9446L17.9955 5.19988C10.7847 4.68938 4.6539 10.4015 4.6539 17.6303V63.0059C4.6539 70.1248 10.6074 75.797 17.7179 75.4529L56.4872 73.5763C63.1275 73.2548 68.3462 67.7774 68.3462 61.1293V20.375C68.3462 13.8342 63.2892 8.40652 56.7647 7.9446ZM18.0933 3.81872C10.0813 3.2515 3.26929 9.59824 3.26929 17.6303V63.0059C3.26929 70.9158 9.88425 77.2183 17.7849 76.8359L56.5541 74.9593C63.9322 74.6021 69.7308 68.5161 69.7308 61.1293V20.375C69.7308 13.1075 64.1119 7.07668 56.8625 6.56344L18.0933 3.81872Z" fill="black" fill-opacity="0.16"/>
<g id="Union" filter="url(#filter0_d_22574_7921)">
<path d="M26.197 18.364L26.2431 18.3273C26.3468 18.248 26.457 18.1687 26.5744 18.0902C26.7322 17.9848 26.9014 17.8806 27.0829 17.779C27.549 17.5181 28.0921 17.2753 28.6913 17.0788C29.6695 16.7456 30.711 16.5746 31.6272 16.6238C34.9211 16.7977 37.2836 18.5358 38.8192 20.9894L38.825 20.9982C40.3426 23.4519 41.0557 26.6672 41.0002 29.8393C40.9441 33.0115 40.1193 36.1892 38.534 38.5502C36.9638 40.9372 34.6387 42.4957 31.6272 42.4726C26.5283 42.432 23.3252 37.9563 22.3183 32.6465C21.3409 27.4581 22.5272 21.5717 26.0292 18.53C26.0565 18.498 26.0854 18.4676 26.1149 18.4384C26.1415 18.4127 26.1689 18.388 26.197 18.364Z" fill="white" fill-opacity="0.9" shape-rendering="crispEdges"/>
<path d="M31.6481 47.2871C39.1779 47.2813 47.3121 50.1319 47.943 61.3021C47.943 62.1161 47.3999 62.7882 46.7279 62.8084L15.7054 63.692C14.957 63.7123 14.3462 63.0315 14.3462 62.1711C15.0535 50.3201 23.9187 47.2929 31.6481 47.2871Z" fill="white" fill-opacity="0.9" shape-rendering="crispEdges"/>
<path d="M60.3542 60.4938L51.1548 60.7227C50.7291 54.0801 48.0604 49.5582 44.2826 46.8235C45.2398 46.7048 46.1992 46.6526 47.1421 46.6556C53.7291 46.6556 60.8678 49.2047 61.4231 59.1584C61.4231 59.8826 60.9441 60.4794 60.3542 60.4938Z" fill="white" fill-opacity="0.9" shape-rendering="crispEdges"/>
<path d="M41.8487 39.9174C43.1993 41.418 44.9661 42.3594 47.1176 42.3768C49.7538 42.3972 51.7915 41.0124 53.1651 38.8891C54.5538 36.7859 55.2784 33.9587 55.3259 31.1371C55.3756 28.3155 54.7504 25.4535 53.4143 23.2778V23.272C52.0674 21.0965 50.0009 19.5583 47.1212 19.4164C46.3195 19.3788 45.4098 19.5322 44.5555 19.8306C43.7625 20.1001 43.0847 20.4592 42.5798 20.8272C43.8331 23.7008 44.3618 26.9511 44.3085 30.0246C44.2501 33.4256 43.4694 36.9713 41.8487 39.9174Z" fill="white" fill-opacity="0.9" shape-rendering="crispEdges"/>
</g>
<path id="Vector_2" d="M53.1154 59.749C53.1154 55.9375 56.1961 52.843 60.0075 52.826L100.161 52.6466C103.997 52.6294 107.115 55.734 107.115 59.5696V86.7883C107.115 90.3995 104.34 93.4041 100.74 93.6897L73.9987 95.8114L69.5069 102.781C68.3812 104.528 65.8042 104.458 64.7741 102.654L61.6417 97.1655L60.2838 97.2136C56.3666 97.3526 53.1154 94.2146 53.1154 90.2949V59.749Z" fill="#1BCE7B" fill-opacity="0.78"/>
<path id="Vector (Stroke)_2" fill-rule="evenodd" clip-rule="evenodd" d="M73.2061 94.4853L100.63 92.3095C103.51 92.081 105.731 89.6773 105.731 86.7883V59.5696C105.731 56.5011 103.236 54.0174 100.168 54.0312L60.0137 54.2106C56.9646 54.2242 54.5 56.6998 54.5 59.749V90.2949C54.5 93.4307 57.1009 95.941 60.2347 95.8299L62.4292 95.7521L65.9767 101.967C66.4917 102.87 67.7802 102.904 68.343 102.031L73.2061 94.4853ZM73.9987 95.8114L100.74 93.6897C104.34 93.4041 107.115 90.3995 107.115 86.7883V59.5696C107.115 55.734 103.997 52.6294 100.161 52.6466L60.0075 52.826C56.1961 52.843 53.1154 55.9375 53.1154 59.749V90.2949C53.1154 94.2146 56.3666 97.3526 60.2838 97.2136L61.6417 97.1655L64.7741 102.654C65.8042 104.458 68.3812 104.528 69.5069 102.781L73.9987 95.8114Z" fill="black" fill-opacity="0.16"/>
<g id="Vector_3" filter="url(#filter1_d_22574_7921)">
<path d="M62.8077 68.2173C62.8077 66.2526 64.3716 64.6448 66.3356 64.5905L95.2881 63.7897C97.216 63.7363 98.8077 65.2847 98.8077 67.2133C98.8077 69.0494 97.3599 70.5588 95.5255 70.6353L66.5871 71.8424C64.5258 71.9283 62.8077 70.2804 62.8077 68.2173Z" fill="white" fill-opacity="0.9" shape-rendering="crispEdges"/>
</g>
<g id="Vector_4" filter="url(#filter2_d_22574_7921)">
<path d="M62.8077 82.2884C62.8077 80.513 64.1981 79.0486 65.971 78.9565L89.9146 77.7126C91.7385 77.6179 93.2693 79.0712 93.2693 80.8976C93.2693 82.5795 91.9631 83.9723 90.2846 84.0802L66.3581 85.6179C64.4352 85.7415 62.8077 84.2152 62.8077 82.2884Z" fill="white" fill-opacity="0.9" shape-rendering="crispEdges"/>
</g>
</g>
<defs>
<filter id="filter0_d_22574_7921" x="4.34619" y="10.6155" width="67.0769" height="67.0769" filterUnits="userSpaceOnUse" color-interpolation-filters="sRGB">
<feFlood flood-opacity="0" result="BackgroundImageFix"/>
<feColorMatrix in="SourceAlpha" type="matrix" values="0 0 0 0 0 0 0 0 0 0 0 0 0 0 0 0 0 0 127 0" result="hardAlpha"/>
<feOffset dy="4"/>
<feGaussianBlur stdDeviation="5"/>
<feComposite in2="hardAlpha" operator="out"/>
<feColorMatrix type="matrix" values="0 0 0 0 0 0 0 0 0 0 0 0 0 0 0 0 0 0 0.05 0"/>
<feBlend mode="normal" in2="BackgroundImageFix" result="effect1_dropShadow_22574_7921"/>
<feBlend mode="normal" in="SourceGraphic" in2="effect1_dropShadow_22574_7921" result="shape"/>
</filter>
<filter id="filter1_d_22574_7921" x="52.8077" y="57.7883" width="56" height="28.0571" filterUnits="userSpaceOnUse" color-interpolation-filters="sRGB">
<feFlood flood-opacity="0" result="BackgroundImageFix"/>
<feColorMatrix in="SourceAlpha" type="matrix" values="0 0 0 0 0 0 0 0 0 0 0 0 0 0 0 0 0 0 127 0" result="hardAlpha"/>
<feOffset dy="4"/>
<feGaussianBlur stdDeviation="5"/>
<feComposite in2="hardAlpha" operator="out"/>
<feColorMatrix type="matrix" values="0 0 0 0 0 0 0 0 0 0 0 0 0 0 0 0 0 0 0.05 0"/>
<feBlend mode="normal" in2="BackgroundImageFix" result="effect1_dropShadow_22574_7921"/>
<feBlend mode="normal" in="SourceGraphic" in2="effect1_dropShadow_22574_7921" result="shape"/>
</filter>
<filter id="filter2_d_22574_7921" x="52.8077" y="71.7083" width="50.4615" height="27.9167" filterUnits="userSpaceOnUse" color-interpolation-filters="sRGB">
<feFlood flood-opacity="0" result="BackgroundImageFix"/>
<feColorMatrix in="SourceAlpha" type="matrix" values="0 0 0 0 0 0 0 0 0 0 0 0 0 0 0 0 0 0 127 0" result="hardAlpha"/>
<feOffset dy="4"/>
<feGaussianBlur stdDeviation="5"/>
<feComposite in2="hardAlpha" operator="out"/>
<feColorMatrix type="matrix" values="0 0 0 0 0 0 0 0 0 0 0 0 0 0 0 0 0 0 0.05 0"/>
<feBlend mode="normal" in2="BackgroundImageFix" result="effect1_dropShadow_22574_7921"/>
<feBlend mode="normal" in="SourceGraphic" in2="effect1_dropShadow_22574_7921" result="shape"/>
</filter>
<clipPath id="clip0_22574_7921">
<rect width="108" height="108" fill="white" transform="translate(0.5)"/>
</clipPath>
</defs>
</svg>
