<svg width="107" height="106" viewBox="0 0 107 106" fill="none" xmlns="http://www.w3.org/2000/svg">
<path d="M3.21777 17.3109C3.21777 9.42494 9.90788 3.1948 17.7739 3.75556L55.8252 6.46821C62.9375 6.97525 68.4485 12.8931 68.4485 20.0236V60.4418C68.4485 67.7365 62.6894 73.73 55.4005 74.0208L17.3492 75.5387C9.63745 75.8464 3.21777 69.6777 3.21777 61.9598V17.3109Z" fill="#1B79E6" fill-opacity="0.78"/>
<path d="M3.71777 17.3109C3.71777 9.71509 10.1617 3.71416 17.7383 4.25429L55.7896 6.96694C62.6403 7.45533 67.9485 13.1555 67.9485 20.0236V60.4418C67.9485 67.4681 62.4013 73.2411 55.3806 73.5211L17.3293 75.0391C9.90125 75.3355 3.71777 69.3937 3.71777 61.9598V17.3109Z" stroke="black" stroke-opacity="0.16"/>
<path d="M49.4229 57.2419C49.4229 49.7579 55.4738 43.6825 62.9577 43.6522L90.1372 43.5423C97.664 43.5119 103.782 49.6051 103.782 57.132V86.1022C103.782 93.1521 98.3908 99.0313 91.3673 99.641L64.1879 102C56.2485 102.69 49.4229 96.4307 49.4229 88.4615V57.2419Z" fill="#1BCE7B" fill-opacity="0.78"/>
<path d="M49.9229 57.2419C49.9229 50.0333 55.7511 44.1814 62.9597 44.1522L90.1392 44.0423C97.3891 44.013 103.282 49.882 103.282 57.132V86.1022C103.282 92.8927 98.0892 98.5556 91.3241 99.1429L64.1446 101.502C56.4974 102.166 49.9229 96.1375 49.9229 88.4615V57.2419Z" stroke="black" stroke-opacity="0.16"/>
<g filter="url(#filter0_d_9824_81700)">
<path fill-rule="evenodd" clip-rule="evenodd" d="M25.2822 16.3152C22.863 16.1657 20.8848 18.2409 20.8848 20.9546V37.0872C20.8848 37.7105 21.0988 38.3135 21.4831 38.7747L22.8887 40.4672C23.0796 40.6953 23.1853 40.9968 23.1853 41.3059V57.7451C23.1853 60.4461 25.1455 62.5796 27.5441 62.5111L46.4129 61.974C48.6155 61.9106 50.3874 59.7873 50.3874 57.2307V41.6125C50.3874 41.349 50.4647 41.0956 50.604 40.8929L51.7105 39.2865C51.989 38.8811 52.1412 38.3769 52.1412 37.8524V22.5939C52.1412 20.0449 50.3822 17.871 48.1951 17.7367L25.2848 16.3177L25.2822 16.3152ZM44.8268 24.9123C45.3503 24.2713 45.3013 23.2451 44.7185 22.6167C44.133 21.9884 43.2277 21.996 42.699 22.637L35.0158 31.9563L31.1213 27.4233C30.5384 26.7443 29.5816 26.6961 28.9858 27.3194C28.3874 27.9453 28.3823 29.0044 28.9703 29.686L34.0099 35.5036C34.2988 35.8355 34.6934 36.023 35.1009 36.023C35.5084 36.023 35.8953 35.8329 36.1661 35.501L44.8268 24.9098V24.9123ZM28.5319 46.7561C28.5319 46.0872 29.0142 45.55 29.6048 45.5525L33.8552 45.5728C34.4355 45.5753 34.9075 46.1125 34.9075 46.7713V47.9647C34.9075 48.6235 34.4381 49.1606 33.8552 49.1606L29.6048 49.1708C29.0116 49.1708 28.5319 48.6311 28.5319 47.9647V46.7561ZM40.1044 45.6032C39.537 45.6007 39.0753 46.1277 39.0753 46.784V47.9698C39.0753 48.6235 39.537 49.153 40.1044 49.153L44.182 49.1429C44.7391 49.1429 45.1904 48.6159 45.1904 47.9698V46.7992C45.1904 46.153 44.7391 45.626 44.182 45.6235L40.1044 45.6032ZM28.5319 54.0128C28.5319 53.3439 29.0142 52.7992 29.6048 52.7941L33.8552 52.7535C34.4355 52.7485 34.9075 53.278 34.9075 53.9394V55.1328C34.9075 55.7916 34.4381 56.3338 33.8552 56.3439L29.6048 56.4149C29.0116 56.425 28.5319 55.8904 28.5319 55.224V54.0128ZM40.1044 52.6953C39.537 52.7003 39.0753 53.235 39.0753 53.8887V55.0745C39.0753 55.7282 39.537 56.2527 40.1044 56.2426L44.182 56.1742C44.7391 56.164 45.1904 55.6345 45.1904 54.9883V53.8177C45.1904 53.1716 44.7391 52.6522 44.182 52.6573L40.1044 52.6953Z" fill="white" fill-opacity="0.9" shape-rendering="crispEdges"/>
</g>
<g filter="url(#filter1_d_9824_81700)">
<path fill-rule="evenodd" clip-rule="evenodd" d="M90.9208 83.7304C92.0199 83.6515 92.9101 82.4624 92.9101 81.0777V74.8103C92.9101 74.3403 92.8073 73.9082 92.6305 73.5423C92.4731 72.9493 92.2545 72.3847 91.9749 71.8642L89.2047 66.7292C88.337 65.1174 86.8619 64.1837 85.2711 64.2437L81.7713 64.3793V61.7644C81.7713 59.8814 80.5404 58.3926 79.0107 58.4367L65.9243 58.8089C64.3207 58.8531 63.0127 60.4649 63.0127 62.4079V76.318H63.0191C63.0127 76.3905 63.0127 76.4631 63.0127 76.5388V83.1342C63.0127 84.5915 63.9929 85.7018 65.198 85.6134L66.1493 85.5441C66.1429 85.4116 66.1365 85.2791 66.1365 85.1466C66.1365 82.128 68.1547 79.551 70.626 79.3965C73.0781 79.2419 75.0514 81.5287 75.0514 84.5032C75.0514 84.6356 75.0482 84.765 75.0385 84.8974L81.1157 84.4527C81.1093 84.3234 81.1028 84.1972 81.1028 84.0647C81.1028 81.1218 83.0214 78.6143 85.3739 78.4628C87.7039 78.3146 89.5807 80.5478 89.5807 83.4497C89.5807 83.579 89.5775 83.7051 89.571 83.8345L90.9144 83.7367L90.9208 83.7304ZM70.6325 81.3048C72.2201 81.2007 73.5023 82.6769 73.5023 84.6072C73.5023 86.5376 72.2201 88.2031 70.6325 88.3261C69.0449 88.4491 67.7337 86.9729 67.7337 85.0236C67.7337 83.0743 69.0352 81.4089 70.6325 81.3016V81.3048ZM85.3803 80.327C86.8908 80.2261 88.112 81.6707 88.112 83.5537C88.112 85.4368 86.894 87.0581 85.3803 87.1748C83.8667 87.2915 82.6229 85.85 82.6229 83.9512C82.6229 82.0523 83.8602 80.4279 85.3803 80.327ZM85.5796 66.7733L83.1693 66.8774V72.8263L89.7928 72.473L87.27 67.83C86.894 67.1392 86.2609 66.7418 85.5828 66.7733H85.5796ZM66.2007 68.9529C66.2007 64.7799 68.987 61.3039 72.3904 61.1935C75.7937 61.0831 78.4547 64.3099 78.4547 68.3978C78.4547 72.4856 75.7552 75.9584 72.3904 76.154C68.987 76.3527 66.2007 73.1291 66.2007 68.9529ZM71.6384 62.7833L73.1681 62.7296V63.9629C73.8462 64.0008 74.3251 64.1711 74.6914 64.373L74.8425 64.4581L74.415 66.521L74.1933 66.4169C74.1676 66.4043 74.1387 66.3917 74.1065 66.3759C73.8044 66.2277 73.3417 66.0006 72.6411 66.0321C72.2972 66.0447 72.1044 66.1456 72.0047 66.2466C71.9083 66.3412 71.873 66.4611 71.873 66.5872C71.873 66.7008 71.9115 66.8175 72.1044 66.972C72.3004 67.1298 72.6186 67.2906 73.1006 67.4893C73.7884 67.7574 74.2961 68.0886 74.6336 68.5365C74.9775 68.9939 75.1221 69.549 75.1221 70.2209C75.1221 71.5362 74.3893 72.6717 73.1103 73.0881V74.5453L71.5805 74.6305V73.2962C70.8639 73.2615 70.1729 73.0565 69.7423 72.7758L69.6041 72.6875L70.054 70.53L70.2918 70.6751C70.7482 70.959 71.3877 71.2018 72.0851 71.1672C72.3872 71.1514 72.6154 71.0694 72.7632 70.9495C72.9014 70.8391 72.9657 70.6972 72.9657 70.5174C72.9657 70.3376 72.911 70.1988 72.7568 70.0537C72.5896 69.8992 72.3197 69.7541 71.9019 69.5995C71.2817 69.3756 70.7353 69.0885 70.3432 68.6627C69.9415 68.2306 69.7037 67.6597 69.7037 66.909C69.7037 65.5937 70.4397 64.5528 71.6352 64.1522V62.7833H71.6384Z" fill="white" fill-opacity="0.9" shape-rendering="crispEdges"/>
</g>
<defs>
<filter id="filter0_d_9824_81700" x="10.8848" y="10.3076" width="51.2563" height="66.2051" filterUnits="userSpaceOnUse" color-interpolation-filters="sRGB">
<feFlood flood-opacity="0" result="BackgroundImageFix"/>
<feColorMatrix in="SourceAlpha" type="matrix" values="0 0 0 0 0 0 0 0 0 0 0 0 0 0 0 0 0 0 127 0" result="hardAlpha"/>
<feOffset dy="4"/>
<feGaussianBlur stdDeviation="5"/>
<feComposite in2="hardAlpha" operator="out"/>
<feColorMatrix type="matrix" values="0 0 0 0 0 0 0 0 0 0 0 0 0 0 0 0 0 0 0.05 0"/>
<feBlend mode="normal" in2="BackgroundImageFix" result="effect1_dropShadow_9824_81700"/>
<feBlend mode="normal" in="SourceGraphic" in2="effect1_dropShadow_9824_81700" result="shape"/>
</filter>
<filter id="filter1_d_9824_81700" x="53.0127" y="52.4358" width="49.8975" height="49.8975" filterUnits="userSpaceOnUse" color-interpolation-filters="sRGB">
<feFlood flood-opacity="0" result="BackgroundImageFix"/>
<feColorMatrix in="SourceAlpha" type="matrix" values="0 0 0 0 0 0 0 0 0 0 0 0 0 0 0 0 0 0 127 0" result="hardAlpha"/>
<feOffset dy="4"/>
<feGaussianBlur stdDeviation="5"/>
<feComposite in2="hardAlpha" operator="out"/>
<feColorMatrix type="matrix" values="0 0 0 0 0 0 0 0 0 0 0 0 0 0 0 0 0 0 0.05 0"/>
<feBlend mode="normal" in2="BackgroundImageFix" result="effect1_dropShadow_9824_81700"/>
<feBlend mode="normal" in="SourceGraphic" in2="effect1_dropShadow_9824_81700" result="shape"/>
</filter>
</defs>
</svg>
