<svg width="107" height="106" viewBox="0 0 107 106" fill="none" xmlns="http://www.w3.org/2000/svg">
<g id="Graphic from Lib">
<g id="Vector">
<path d="M3.21802 21.5928C3.21802 13.7737 9.94275 7.60562 17.8277 8.19248L50.4431 10.62C57.5328 11.1476 63.0129 16.9898 63.0129 24.0203V56.4322C63.0129 63.5063 57.4669 69.3691 50.329 69.8406L17.7136 71.9951C9.86916 72.5133 3.21802 66.361 3.21802 58.5867V21.5928Z" fill="#1BCE7B" fill-opacity="0.78"/>
<path d="M3.71802 21.5928C3.71802 14.0703 10.1897 8.12538 17.7906 8.6911L50.406 11.1186C57.2394 11.6272 62.5129 17.2563 62.5129 24.0203V56.4322C62.5129 63.2381 57.1759 68.8872 50.296 69.3417L17.6806 71.4962C10.1189 71.9957 3.71802 66.0661 3.71802 58.5867V21.5928Z" stroke="white" stroke-opacity="0.18"/>
</g>
<g id="Union" filter="url(#filter0_d_9511_45114)">
<path d="M29.3934 20.4472C29.3207 20.4993 29.252 20.5571 29.1914 20.6208V20.617C25.9036 23.2163 24.7868 28.3087 25.7077 32.8049C26.6549 37.4015 29.6599 41.2647 34.4139 41.2802C37.207 41.2898 39.3578 39.9429 40.8058 37.8955C42.2639 35.8712 43.0232 33.1542 43.0737 30.4411C43.1242 27.7279 42.4699 24.9723 41.0724 22.8612L41.0683 22.8554C39.6526 20.7405 37.4675 19.2218 34.4139 19.0365C33.5637 18.9844 32.5923 19.1214 31.6795 19.3955C30.7404 19.6695 29.9467 20.0574 29.3934 20.4472Z" fill="white" fill-opacity="0.9" shape-rendering="crispEdges"/>
<path d="M49.4232 57.2581C48.8476 47.7505 41.3995 45.3731 34.4362 45.4252V45.4232C27.2143 45.4773 18.8393 48.1673 18.1667 58.4911C18.1667 59.2418 18.7464 59.8246 19.4593 59.7937L48.3165 58.5568C48.9284 58.5317 49.4232 57.9489 49.4232 57.2581Z" fill="white" fill-opacity="0.9" shape-rendering="crispEdges"/>
</g>
<g id="Vector_2">
<path d="M53.5 55.7624C53.5 48.1267 59.7497 41.9797 67.3589 42.1309L91.8205 42.6171C99.2195 42.7642 105.141 48.8239 105.141 56.2486V82.0161C105.141 89.0754 99.7701 94.9672 92.7618 95.596L68.3003 97.7908C60.3488 98.5043 53.5 92.2203 53.5 84.2109V55.7624Z" fill="#0075FF" fill-opacity="0.78"/>
<path d="M54 55.7624C54 48.4052 60.0213 42.4852 67.349 42.6308L91.8105 43.117C98.9359 43.2587 104.641 49.0947 104.641 56.2486V82.0161C104.641 88.8179 99.4663 94.4925 92.7171 95.098L68.2556 97.2928C60.5984 97.9799 54 91.9282 54 84.2109V55.7624Z" stroke="white" stroke-opacity="0.18"/>
</g>
<g id="Union_2" filter="url(#filter1_d_9511_45114)">
<path d="M78.1056 55.4488C78.0518 55.4888 78.0011 55.5332 77.9563 55.582V55.579C75.5262 57.5718 74.7007 61.4761 75.3814 64.9231C76.0814 68.4471 78.3026 71.409 81.8164 71.4208C83.8808 71.4282 85.4705 70.3956 86.5408 68.8259C87.6185 67.274 88.1798 65.1909 88.2171 63.1108C88.2544 61.0307 87.7708 58.9181 86.7379 57.2996L86.7349 57.2952C85.6885 55.6737 84.0734 54.5094 81.8164 54.3674C81.188 54.3274 80.47 54.4325 79.7953 54.6425C79.1012 54.8526 78.5146 55.15 78.1056 55.4488Z" fill="white" fill-opacity="0.9" shape-rendering="crispEdges"/>
<path d="M92.9102 83.6705C92.4848 76.3814 86.9797 74.5587 81.8328 74.5987V74.5972C76.4949 74.6386 70.3047 76.7009 69.8076 84.6159C69.8076 85.1914 70.236 85.6382 70.7629 85.6145L92.0922 84.6662C92.5445 84.647 92.9102 84.2002 92.9102 83.6705Z" fill="white" fill-opacity="0.9" shape-rendering="crispEdges"/>
</g>
</g>
<defs>
<filter id="filter0_d_9511_45114" x="8.16675" y="13.0256" width="51.2563" height="60.7693" filterUnits="userSpaceOnUse" color-interpolation-filters="sRGB">
<feFlood flood-opacity="0" result="BackgroundImageFix"/>
<feColorMatrix in="SourceAlpha" type="matrix" values="0 0 0 0 0 0 0 0 0 0 0 0 0 0 0 0 0 0 127 0" result="hardAlpha"/>
<feOffset dy="4"/>
<feGaussianBlur stdDeviation="5"/>
<feComposite in2="hardAlpha" operator="out"/>
<feColorMatrix type="matrix" values="0 0 0 0 0 0 0 0 0 0 0 0 0 0 0 0 0 0 0.05 0"/>
<feBlend mode="normal" in2="BackgroundImageFix" result="effect1_dropShadow_9511_45114"/>
<feBlend mode="normal" in="SourceGraphic" in2="effect1_dropShadow_9511_45114" result="shape"/>
</filter>
<filter id="filter1_d_9511_45114" x="59.8076" y="48.359" width="43.1025" height="51.2565" filterUnits="userSpaceOnUse" color-interpolation-filters="sRGB">
<feFlood flood-opacity="0" result="BackgroundImageFix"/>
<feColorMatrix in="SourceAlpha" type="matrix" values="0 0 0 0 0 0 0 0 0 0 0 0 0 0 0 0 0 0 127 0" result="hardAlpha"/>
<feOffset dy="4"/>
<feGaussianBlur stdDeviation="5"/>
<feComposite in2="hardAlpha" operator="out"/>
<feColorMatrix type="matrix" values="0 0 0 0 0 0 0 0 0 0 0 0 0 0 0 0 0 0 0.05 0"/>
<feBlend mode="normal" in2="BackgroundImageFix" result="effect1_dropShadow_9511_45114"/>
<feBlend mode="normal" in="SourceGraphic" in2="effect1_dropShadow_9511_45114" result="shape"/>
</filter>
</defs>
</svg>
