<?xml version="1.0" encoding="UTF-8"?>
<svg width="196px" height="251px" viewBox="0 0 196 251" version="1.1" xmlns="http://www.w3.org/2000/svg" xmlns:xlink="http://www.w3.org/1999/xlink">
    <!-- Generator: Sketch 41.2 (35397) - http://www.bohemiancoding.com/sketch -->
    <title>apple</title>
    <desc>Created with Sketch.</desc>
    <defs></defs>
    <g id="Page-1" stroke="none" stroke-width="1" fill="none" fill-rule="evenodd">
        <g id="apple" fill="#FFFFFF">
            <path d="M134.425912,38.0866712 C143.856263,27.9916575 150.23486,13.9760582 148.488912,0 C134.903018,0.484808219 118.437298,7.97440753 108.685439,18.0685616 C99.9436667,27.0048493 92.2902105,41.2869212 94.3327368,54.9887705 C109.492649,56.0142603 124.980088,48.1653527 134.425912,38.0866712 Z M163.359123,134.605627 C163.069421,103.272747 188.167737,88.2239212 189.279263,87.4967089 C175.168982,66.2193014 153.193772,63.3078733 145.367526,62.9795103 C126.655544,61.0153493 108.882298,74.310613 99.3823158,74.310613 C89.9210175,74.310613 75.2863509,63.237387 59.7671053,63.5348048 C39.3650526,63.8709041 20.5662456,75.7504247 10.0879825,94.5780034 C-11.105807,132.454075 4.65585965,188.562031 25.3080702,219.284603 C35.4037895,234.324832 47.4242632,251.196846 63.2091404,250.586538 C78.4464211,249.976229 84.1905965,240.452842 102.574193,240.452842 C120.965526,240.452842 126.114825,250.586538 142.204877,250.281384 C158.576895,249.976229 168.938246,234.951473 178.948,219.863966 C190.530053,202.421185 195.304544,185.533699 195.577912,184.680986 C195.226316,184.477264 163.695246,172.074253 163.359123,134.605627 Z" id="Shape"></path>
        </g>
    </g>
</svg>