<svg width="20" height="19" viewBox="0 0 20 19" fill="none" xmlns="http://www.w3.org/2000/svg">
	<path fill="#525c69" d="M17.2977 14.6204C20.0322 10.82 19.4231 5.55911 15.8778 2.37227C12.3533 -0.788967 7.00021 -0.791032 3.57213 2.36773C0.1246 5.55168 -0.32425 10.8122 2.52661 14.6142C5.346 18.4023 10.6055 19.4709 14.6232 17.0723C14.6596 17.0991 14.6982 17.1218 14.7396 17.14L17.2393 17.8031C17.455 17.8597 17.6828 17.7986 17.8364 17.6421C17.9908 17.484 18.048 17.2564 17.9879 17.0426L17.2977 14.6204ZM16.9125 9.15869C16.9125 13.0732 13.7328 16.2466 9.8104 16.2466C5.88803 16.2466 2.70832 13.0732 2.70832 9.15869C2.70832 5.24417 5.88803 2.07083 9.8104 2.07083C13.7328 2.07083 16.9125 5.24417 16.9125 9.15869ZM7.83679 7.55516C7.73602 7.66974 7.58791 7.73559 7.43198 7.73559C7.27518 7.73559 7.12532 7.66974 7.02065 7.55516L5.71889 6.1844C5.48999 5.93342 5.48391 5.55888 5.70499 5.3079L6.96288 3.9333C7.06452 3.81871 7.21219 3.7533 7.36856 3.75415C7.52493 3.75458 7.67435 3.82085 7.77816 3.93586C8.00749 4.18599 8.01401 4.55967 7.79423 4.81065L7.50669 5.12448H12.8831C13.1528 5.13773 13.3644 5.36092 13.3565 5.62344L13.3604 5.86544C13.3765 6.12796 13.1724 6.35029 12.9031 6.3644H7.52623L7.82289 6.6778C8.05136 6.92964 8.05744 7.30375 7.83679 7.55516ZM11.8347 10.641C12.0372 10.5846 12.2565 10.6479 12.3968 10.8035L13.7029 12.1772C13.9318 12.4291 13.9379 12.8032 13.7168 13.055L12.4589 14.4266C12.323 14.5823 12.1058 14.646 11.9021 14.5891C11.6931 14.5241 11.5346 14.3565 11.4855 14.1491C11.4282 13.9366 11.4816 13.7126 11.628 13.5493L11.9151 13.2354H6.53869C6.26896 13.2213 6.05787 12.9986 6.06525 12.7365L6.06134 12.4936C6.04614 12.2315 6.24985 12.0092 6.51871 11.9942H11.8912L11.5941 11.6813C11.4421 11.5175 11.3817 11.293 11.4325 11.081C11.4751 10.8736 11.6289 10.706 11.8347 10.641ZM6.64593 8.59578L6.64463 8.59663C6.37533 8.61032 6.17118 8.83307 6.18682 9.0956L6.19073 9.34187C6.18334 9.60439 6.39487 9.82672 6.66417 9.84083H13.1634C13.4327 9.82672 13.6368 9.60439 13.6212 9.34187L13.6168 9.09816C13.6255 8.83436 13.4144 8.61032 13.1438 8.59578H6.64593Z"/>
</svg>