<svg xmlns="http://www.w3.org/2000/svg" width="97" height="97" viewBox="0 0 97 97" xmlns:xlink="http://www.w3.org/1999/xlink">
  <defs>
    <circle id="a" cx="48.5" cy="48.5" r="48.5"/>
  </defs>
  <g fill="none" fill-rule="evenodd">
    <mask id="b" fill="white">
      <use xlink:href="#a"/>
    </mask>
    <use fill="#fade39" xlink:href="#a"/>
    <path fill="#D61921" d="M16.1223329,42.1461988 L22.116643,42.1461988 L22.116643,68.880117 L27.6216216,68.880117 L27.6216216,36.6315789 L16,36.6315789 L16,42.1461988 L16.1223329,42.1461988 Z M45.3598862,48.0204678 C45.3598862,39.9883041 51.9658606,33.5146199 60.1621622,33.5146199 C68.113798,33.5146199 74.7197724,39.748538 74.9644381,47.5409357 L80.4694168,47.5409357 C80.2247511,36.751462 71.1721195,28 60.0398293,28 C48.7852063,28 39.6102418,36.9912281 39.6102418,48.0204678 C39.6102418,59.0497076 48.7852063,68.0409357 60.0398293,68.0409357 L101.877667,68.0409357 L101.877667,62.6461988 L60.0398293,62.6461988 C51.9658606,62.5263158 45.3598862,56.0526316 45.3598862,48.0204678 L45.3598862,48.0204678 Z M20.7709815,33.994152 L30.0682788,33.994152 L30.0682788,69 L35.5732575,69 L35.5732575,28.5994152 L20.7709815,28.5994152 L20.7709815,33.994152 L20.7709815,33.994152 Z M53.1891892,48.0204678 C53.1891892,44.3040936 56.3698435,41.1871345 60.1621622,41.1871345 C63.8321479,41.1871345 66.8904694,43.9444444 67.1351351,47.5409357 L72.6401138,47.5409357 C72.3954481,40.9473684 66.8904694,35.7923977 60.1621622,35.7923977 C53.311522,35.7923977 47.6842105,41.3070175 47.6842105,48.0204678 C47.6842105,54.7339181 53.311522,60.248538 60.1621622,60.248538 L102,60.248538 L102,54.8538012 L60.1621622,54.8538012 C56.3698435,54.8538012 53.1891892,51.7368421 53.1891892,48.0204678 Z" mask="url(#b)"/>
  </g>
</svg>
