<svg xmlns="http://www.w3.org/2000/svg" width="25" height="33" viewBox="0 0 25 33">
  <path fill="#06B0E7" d="M209.763467,26.4795939 L216.471075,26.4795939 C216.84372,26.4795939 217.169784,26.1535296 217.169784,25.7808847 C217.169784,25.4082398 216.84372,25.0821756 216.471075,25.0821756 L209.763467,25.0821756 C209.390822,25.0821756 209.064758,25.4082398 209.064758,25.7808847 C209.064758,26.1535296 209.390822,26.4795939 209.763467,26.4795939 Z M209.763467,23.0792093 L216.471075,23.0792093 C216.84372,23.0792093 217.169784,22.753145 217.169784,22.3805002 C217.169784,22.0078553 216.84372,21.681791 216.471075,21.681791 L209.763467,21.681791 C209.390822,21.681791 209.064758,22.0078553 209.064758,22.3805002 C209.064758,22.753145 209.390822,23.0792093 209.763467,23.0792093 Z M209.763467,19.6322441 L216.471075,19.6322441 C216.84372,19.6322441 217.169784,19.3061799 217.169784,18.933535 C217.169784,18.5608901 216.84372,18.2348258 216.471075,18.2348258 L209.763467,18.2348258 C209.390822,18.2348258 209.064758,18.5608901 209.064758,18.933535 C209.064758,19.3061799 209.390822,19.6322441 209.763467,19.6322441 Z M220.709911,1 L205.524632,1 C204.499858,1 203.661407,1.80398133 203.661407,2.7859006 L203.661407,5.28727938 L205.058826,5.28727938 L205.058826,2.7859006 C205.058826,2.56231367 205.245148,2.33965835 205.524632,2.33965835 L220.709911,2.33965835 C220.942814,2.33965835 221.175717,2.51806209 221.175717,2.7859006 L221.175717,31.5876236 C221.175717,31.8112105 220.989394,32.0338658 220.709911,32.0338658 L205.524632,32.0338658 C205.291729,32.0338658 205.058826,31.8554621 205.058826,31.5876236 L205.058826,18.8618008 L203.661407,18.8618008 L203.661407,31.5876236 C203.661407,32.5695429 204.499858,33.3735242 205.524632,33.3735242 L220.709911,33.3735242 C221.734684,33.3735242 222.573135,32.5695429 222.573135,31.5876236 L222.573135,2.7859006 C222.526555,1.80398133 221.734684,1 220.709911,1 Z M199.211096,10.236935 L208.294315,10.236935 L207.1298,11.4014503 C206.850316,11.680934 206.850316,12.1001594 207.1298,12.3796431 C207.269541,12.5193849 207.455864,12.5659655 207.642186,12.5659655 C207.828509,12.5659655 208.014831,12.5193849 208.154573,12.3796431 L210.483604,10.0506126 C210.530184,10.004032 210.623345,9.91087076 210.623345,9.81770954 C210.669926,9.72454832 210.669926,9.6313871 210.669926,9.58480649 C210.669926,9.49164527 210.669926,9.39848405 210.623345,9.35190344 C210.576765,9.25874221 210.530184,9.16558099 210.483604,9.11900038 L208.154573,6.78996987 C207.875089,6.5104862 207.455864,6.5104862 207.17638,6.78996987 C206.896897,7.06945353 206.896897,7.48867902 207.17638,7.76816268 L208.340895,8.93267794 L199.257676,8.93267794 C198.885032,8.93267794 198.558967,9.25874221 198.558967,9.6313871 C198.558967,10.004032 198.838451,10.236935 199.211096,10.236935 Z M200.329031,15.6868664 L209.086185,15.6868664 C209.45883,15.6868664 209.784894,15.3608022 209.784894,14.9881573 C209.784894,14.6155124 209.45883,14.2894481 209.086185,14.2894481 L200.329031,14.2894481 L201.493546,13.1249329 C201.773029,12.8454492 201.773029,12.4262237 201.493546,12.1467401 C201.214062,11.8672564 200.794837,11.8672564 200.515353,12.1467401 L198.186322,14.4757706 C198.139742,14.5223512 198.046581,14.6155124 198.046581,14.7086736 C198,14.8018348 198,14.8949961 198,14.9415767 C198,15.0347379 198,15.1278991 198.046581,15.1744797 C198.093161,15.2676409 198.139742,15.3608022 198.186322,15.4073828 L200.515353,17.7364133 C200.655095,17.8761551 200.841417,17.9227357 201.02774,17.9227357 C201.214062,17.9227357 201.400385,17.8761551 201.540126,17.7364133 C201.81961,17.4569296 201.81961,17.0377041 201.540126,16.7582205 L200.329031,15.6868664 Z" transform="translate(-198 -1)"/>
</svg>
