<svg xmlns="http://www.w3.org/2000/svg" width="29" height="29" viewBox="0 0 29 29">
  <path fill="#06B0E7" fill-rule="evenodd" d="M28.546111,26.4121916 L23.1067487,20.9825835 L26.6064935,18.9201742 C27.1968119,18.6676343 27.5341366,18.0362845 27.5341366,17.4049347 C27.491971,16.7314949 27.0703151,16.1843251 26.4378311,15.9738752 L11.0052215,11.0493469 C10.4570687,10.8809869 9.82458475,11.0072569 9.40292875,11.4281567 C8.98127275,11.8490566 8.81261035,12.4804064 9.02343835,13.0275762 L13.9568135,28.4325109 C14.1676415,29.0638607 14.7157943,29.4847605 15.3904439,29.5268505 C16.0229279,29.5689405 16.6554119,29.1901306 16.9084055,28.6008708 L18.9745199,25.107402 L24.4138823,30.5370102 C24.7090415,30.8316401 25.1306975,31 25.5523535,31 C25.9740095,31 26.3956655,30.8316401 26.6908247,30.5370102 L28.6304422,28.6008708 C29.1364294,28.053701 29.1364294,27.0435414 28.546111,26.4121916 Z M27.6184678,27.7590711 L25.6788503,29.6952104 C25.5523535,29.8214804 25.3415255,29.8214804 25.2150287,29.6952104 L18.6371951,23.1291727 L15.7277687,28.053701 L15.6856031,28.137881 C15.6434375,28.2641509 15.5169407,28.3483309 15.3904439,28.3483309 C15.2639471,28.3483309 15.1374503,28.2641509 15.0952847,28.137881 L10.1619095,12.7329463 C10.1197439,12.6066763 10.1619095,12.4804064 10.2462407,12.3962264 C10.3305719,12.3120464 10.4570687,12.2699565 10.5835655,12.3120464 L26.0161751,17.2365747 C26.1426719,17.2786647 26.2270031,17.4049347 26.2270031,17.5312046 C26.2270031,17.6574746 26.1426719,17.7837446 26.0161751,17.8258345 L20.9984687,20.7721335 L27.5763022,27.3381713 C27.7449646,27.4223512 27.7449646,27.6328012 27.6184678,27.7590711 Z M3.92140078,4.65166909 L7.37897996,8.06095791 C7.63197356,8.31349782 7.63197356,8.69230769 7.37897996,8.94484761 C7.25248316,9.07111756 7.08382076,9.11320755 6.91515836,9.11320755 C6.74649596,9.11320755 6.57783356,9.07111756 6.45133676,8.94484761 L3.03592318,5.53555878 C2.78292958,5.28301887 2.78292958,4.904209 3.03592318,4.65166909 C3.28891678,4.39912917 3.66840718,4.39912917 3.92140078,4.65166909 Z M14.8422911,8.86066763 C14.7157943,8.86066763 14.5471319,8.81857765 14.4206351,8.69230769 C14.1676415,8.43976778 14.1676415,8.06095791 14.4206351,7.808418 L17.8360487,4.39912917 C18.0890423,4.14658926 18.4685327,4.14658926 18.7215263,4.39912917 C18.9745199,4.65166909 18.9745199,5.03047896 18.7215263,5.28301887 L15.3061127,8.69230769 C15.1796159,8.81857765 15.0109535,8.86066763 14.8422911,8.86066763 Z M5.94534957,16.2264151 C6.19834317,16.0159652 6.57783356,16.0159652 6.87299276,16.2264151 C7.12598636,16.478955 7.12598636,16.8577649 6.87299276,17.1103048 L3.45757918,20.5195936 C3.33108238,20.6458636 3.16241998,20.6879536 2.99375758,20.6879536 C2.82509518,20.6879536 2.65643279,20.6458636 2.52993599,20.5195936 C2.27694239,20.2670537 2.27694239,19.8882438 2.52993599,19.6357039 L5.94534957,16.2264151 Z M6.07184637,12.8592163 C6.07184637,13.1959361 5.77668717,13.490566 5.43936237,13.490566 L0.632483997,13.490566 C0.295159198,13.490566 0,13.1959361 0,12.8592163 C0,12.5224964 0.295159198,12.2278665 0.632483997,12.2278665 L5.43936237,12.2278665 C5.77668717,12.2278665 6.07184637,12.5224964 6.07184637,12.8592163 Z M10.7522279,8.06095791 C10.4149031,8.06095791 10.1197439,7.76632801 10.1197439,7.42960813 L10.1197439,2.63134978 C10.1197439,2.2946299 10.4149031,2 10.7522279,2 C11.0895527,2 11.3847119,2.2946299 11.3847119,2.63134978 L11.3847119,7.42960813 C11.3847119,7.76632801 11.0895527,8.06095791 10.7522279,8.06095791 Z" transform="translate(0 -2)"/>
</svg>
