<svg xmlns="http://www.w3.org/2000/svg" width="31" height="31" viewBox="0 0 31 31">
  <path fill="#06B0E7" d="M435.331396,22.1160354 L435.236866,22.4814227 L434.883332,22.6135488 C433.685801,23.0611013 432.468723,23.4775023 431.258192,23.8570747 C430.809092,23.9971114 430.405437,24.1190781 430.0531,24.2211339 C429.896343,24.266751 429.764794,24.3041651 429.648904,24.3364738 L429.241009,24.45019 C427.777386,24.8395043 426.683044,26.056697 426.450227,27.5613035 L426.44994,29.5913433 L426.48417,29.8622356 C426.534761,30.0612007 426.607746,30.202011 426.724501,30.3456156 C426.841199,30.5001686 427.027622,30.621557 427.236461,30.6730885 C427.325145,30.7002163 427.407772,30.7144493 427.450882,30.7177077 L452.630944,30.7177203 C452.907543,30.7193505 453.173803,30.5959816 453.357817,30.3771538 C453.538531,30.1657338 453.655291,29.9003323 453.686632,29.6623576 L453.691879,27.6925638 C453.686229,27.5823883 453.674788,27.5105472 453.663398,27.4686456 C453.045644,25.8853301 451.768413,24.6911115 450.189312,24.1914023 C450.11758,24.1695759 449.999729,24.1323787 449.812112,24.072543 C449.508406,23.976222 449.155138,23.8621699 448.757404,23.7320024 C447.67512,23.3768303 446.511811,22.9821513 445.289733,22.5544474 L444.929792,22.4284749 L444.829676,22.0605028 C444.684278,21.5261021 444.222787,21.1299756 443.700447,21.0751144 L442.598967,21.0722242 L442.753262,18.8108999 L443.101646,18.6203608 C444.371504,17.9258487 445.235729,16.6638973 445.425058,15.2055668 C445.722505,13.2750119 445.887453,11.3092384 445.9174,9.33796448 C446.069393,7.69135561 445.497004,6.1170005 444.361026,4.99250988 C443.227403,3.87079672 441.651038,3.31519198 440.064344,3.47777702 L439.859317,3.48077889 C438.339193,3.410462 436.83451,4.0105298 435.75721,5.12184079 C434.677039,6.23655313 434.126752,7.76010899 434.247826,9.33923288 C434.310444,11.2885011 434.475924,13.2617969 434.744789,15.2503167 C434.878765,16.6813132 435.751725,17.9603292 437.046002,18.6244542 L437.410414,18.8114426 L437.564657,21.0702909 L436.525216,21.0702909 C435.919351,21.1637238 435.471304,21.575249 435.331396,22.1160354 Z M426.440944,29.61672 L426.449768,29.61672 L426.440944,29.61672 Z M429.648832,22.8286927 C429.991911,22.7293179 430.386328,22.6101426 430.825475,22.4732104 C431.902431,22.1355208 432.985501,21.7677763 434.054225,21.3745814 C434.397301,20.5461401 435.114037,19.9185243 435.993607,19.6944828 C434.476575,18.7599936 433.467878,17.1656472 433.304573,15.4152562 C433.032475,13.4074951 432.862848,11.3847475 432.800407,9.41826444 C432.649148,7.45729267 433.346783,5.52578004 434.716041,4.11273559 C436.081993,2.70365957 437.989837,1.94281138 439.892816,2.03161338 C441.959434,1.83750556 443.948106,2.54414694 445.380962,3.96194903 C446.81873,5.38517692 447.546564,7.37501761 447.366744,9.38765919 C447.33467,11.4160677 447.164315,13.4388177 446.860523,15.4091983 C446.631535,17.1749514 445.631647,18.7370634 444.147644,19.6851394 C445.020948,19.8837141 445.742707,20.4881033 446.095364,21.2999279 C447.18941,21.680805 448.233003,22.0338906 449.20895,22.3541664 C449.602143,22.4828477 449.951263,22.5955607 450.251555,22.6907998 C450.434033,22.7489954 450.548358,22.7850801 450.601116,22.8011618 C452.62322,23.4407866 454.235881,24.9486328 455.016153,26.9422943 L455.047204,27.0368699 C455.099874,27.2194116 455.128762,27.400808 455.140867,27.6554346 L455.139363,29.6658118 L455.12938,29.7996641 C455.058562,30.3617034 454.825348,30.8918101 454.463806,31.3147458 C454.006531,31.8586254 453.330606,32.1718091 452.626672,32.1676476 L427.412903,32.1666521 C427.220632,32.1565658 427.023579,32.1239847 426.863312,32.0742901 C426.344518,31.9401623 425.881593,31.6354652 425.584779,31.2414759 C425.358053,30.9642916 425.191499,30.6429586 425.084665,30.2527679 L425.05738,30.1162779 L425.014849,29.82484 L425.001774,29.6674113 L425,27.509474 L425.007929,27.4025468 C425.362136,25.1112703 427.079437,23.342182 429.296832,22.9293683 C429.398568,22.9008613 429.513479,22.8680806 429.648832,22.8286927 Z" transform="translate(-425 -2)"/>
</svg>
