<svg width="44" height="41" viewBox="0 0 44 41" fill="none" xmlns="http://www.w3.org/2000/svg">
<path fill-rule="evenodd" clip-rule="evenodd" d="M22.6162 0.449219C20.9594 0.449219 19.6162 1.79236 19.6162 3.44922V5.42784H22.9146V4.76831C22.9146 4.21603 23.3623 3.76831 23.9146 3.76831H39.5308C40.0831 3.76831 40.5308 4.21603 40.5308 4.76831V32.6407C40.5308 33.1929 40.0831 33.6407 39.5308 33.6407H23.9146L23.9054 33.6406H19.6162V37.279C19.6162 38.9359 20.9594 40.279 22.6162 40.279H40.8291C42.486 40.279 43.8291 38.9359 43.8291 37.279V3.44922C43.8291 1.79236 42.486 0.449219 40.8291 0.449219H22.6162ZM31.7228 38.6193C32.8685 38.6193 33.7973 37.6906 33.7973 36.5449C33.7973 35.3992 32.8685 34.4704 31.7228 34.4704C30.5771 34.4704 29.6483 35.3992 29.6483 36.5449C29.6483 37.6906 30.5771 38.6193 31.7228 38.6193Z" fill="#EE2B42"/>
<path d="M33.2952 26.4418H19.6208C18.6074 26.4418 17.7542 25.6838 17.6348 24.6774L15.6327 7.8015C15.5133 6.79512 14.6601 6.03711 13.6467 6.03711H9.87939" stroke="#EE2B42" stroke-width="2" stroke-linecap="round" stroke-linejoin="round"/>
<path d="M16.7197 10.2737L36.7637 10.2737C37.3809 10.2737 37.8507 10.8272 37.7504 11.4361L36.3583 19.8916C36.1992 20.8578 35.364 21.5667 34.3848 21.5667H18.6327" stroke="#EE2B42" stroke-width="2" stroke-linecap="round" stroke-linejoin="round"/>
<path d="M17.6338 14.0222L36.5429 14.0222" stroke="#EE2B42" stroke-width="2" stroke-linecap="round" stroke-linejoin="round"/>
<path d="M23.1915 21.3808L23.1915 10.4542" stroke="#EE2B42" stroke-width="2" stroke-linecap="round" stroke-linejoin="round"/>
<path d="M29.9576 21.3808L29.9576 10.4542" stroke="#EE2B42" stroke-width="2" stroke-linecap="round" stroke-linejoin="round"/>
<path d="M17.7217 17.8081L36.1515 17.8081" stroke="#EE2B42" stroke-width="2" stroke-linecap="round" stroke-linejoin="round"/>
<path d="M23.2116 28.5415C23.2116 29.7728 22.2225 30.7715 21.0017 30.7715C19.7821 30.7715 18.793 29.7729 18.793 28.5415C18.793 27.3089 19.7821 26.3103 21.0017 26.3103C22.2225 26.3103 23.2116 27.3089 23.2116 28.5415Z" fill="#EE2B42"/>
<path d="M34.0135 28.5415C34.0135 29.7728 33.0244 30.7715 31.8036 30.7715C30.584 30.7715 29.5948 29.7729 29.5948 28.5415C29.5948 27.3089 30.5839 26.3103 31.8036 26.3103C33.0244 26.3103 34.0135 27.3089 34.0135 28.5415Z" fill="#EE2B42"/>
<rect x="0.17041" y="11.1431" width="12.1338" height="2" rx="1" fill="#EE2B42"/>
<rect x="4.06836" y="14.9097" width="8.83611" height="2" rx="1" fill="#EE2B42"/>
<rect x="8.5293" y="18.6763" width="5.23237" height="2" rx="1" fill="#EE2B42"/>
</svg>
