<svg width="44" height="37" viewBox="0 0 44 37" fill="none" xmlns="http://www.w3.org/2000/svg">
<path fill-rule="evenodd" clip-rule="evenodd" d="M40.8408 0.632812C42.4977 0.632812 43.8408 1.97596 43.8408 3.63281L43.8409 33.8065C43.8409 35.4634 42.4977 36.8065 40.8409 36.8065H3.15918C1.50233 36.8065 0.15918 35.4634 0.15918 33.8065V3.63281C0.15918 1.97596 1.50233 0.632812 3.15918 0.632812H40.8408ZM40.8408 8.63281H3.15918L3.15918 33.4065C3.15918 33.5998 3.29629 33.7611 3.47857 33.7984L3.55918 33.8065H40.4409C40.6342 33.8065 40.7954 33.6694 40.8327 33.4871L40.8409 33.4065L40.8408 8.63281ZM34.8408 11.6328C36.4977 11.6328 37.8408 12.976 37.8408 14.6328V25.6328C37.8408 27.2897 36.4977 28.6328 34.8408 28.6328H17.8409C16.184 28.6328 14.8409 27.2897 14.8409 25.6328V14.6328C14.8409 12.976 16.184 11.6328 17.8409 11.6328H34.8408ZM32.8408 20.6328H18.8409C18.328 20.6328 17.9054 21.0189 17.8476 21.5162L17.8409 21.6328V22.1328C17.8409 22.6456 18.2269 23.0683 18.7242 23.1261L18.8409 23.1328H32.8408C33.3537 23.1328 33.7763 22.7468 33.8341 22.2494L33.8408 22.1328V21.6328C33.8408 21.0805 33.3931 20.6328 32.8408 20.6328ZM32.8408 15.6328H18.8409C18.328 15.6328 17.9054 16.0189 17.8476 16.5162L17.8409 16.6328V17.1328C17.8409 17.6456 18.2269 18.0683 18.7242 18.1261L18.8409 18.1328H32.8408C33.3537 18.1328 33.7763 17.7468 33.8341 17.2494L33.8408 17.1328V16.6328C33.8408 16.0805 33.3931 15.6328 32.8408 15.6328ZM6.25159 2.72949C5.23958 2.72949 4.41919 3.54988 4.41919 4.56189C4.41919 5.57389 5.23958 6.39429 6.25159 6.39429C7.26359 6.39429 8.08398 5.57389 8.08398 4.56189C8.08398 3.54988 7.26359 2.72949 6.25159 2.72949ZM11.1215 2.72949C10.1095 2.72949 9.28906 3.54988 9.28906 4.56189C9.28906 5.57389 10.1095 6.39429 11.1215 6.39429C12.1335 6.39429 12.9539 5.57389 12.9539 4.56189C12.9539 3.54988 12.1335 2.72949 11.1215 2.72949ZM16.1215 2.72949C15.1095 2.72949 14.2891 3.54988 14.2891 4.56189C14.2891 5.57389 15.1095 6.39429 16.1215 6.39429C17.1335 6.39429 17.9539 5.57389 17.9539 4.56189C17.9539 3.54988 17.1335 2.72949 16.1215 2.72949Z" fill="white"/>
</svg>