<svg width="35" height="27" viewBox="0 0 35 27" fill="none" xmlns="http://www.w3.org/2000/svg">
<path fill-rule="evenodd" clip-rule="evenodd" d="M13.9964 1.84256C13.9964 0.825298 14.8214 0.000241287 15.8387 0.000241287L32.9068 0C33.9188 0 34.7411 0.817059 34.7491 1.82899V20.9265C34.7491 21.4138 34.5569 21.8811 34.2125 22.2255C33.868 22.5699 33.4008 22.7622 32.9135 22.7622H30.2848C29.9898 23.7928 29.3637 24.6993 28.5039 25.3414C27.6441 25.9836 26.5975 26.3254 25.5241 26.316C24.4535 26.316 23.4121 25.9703 22.5537 25.3295C21.6966 24.6886 21.0678 23.7888 20.7634 22.7622H13.7853C13.4889 23.7929 12.8628 24.6993 12.003 25.3415C11.1433 25.9836 10.0966 26.3254 9.02462 26.3161C7.95394 26.3161 6.91128 25.9703 6.05286 25.3295C5.19578 24.6887 4.56698 23.7889 4.26393 22.7622H1.9837C1.49374 22.7622 1.02515 22.5673 0.680718 22.2202C0.334946 21.8731 0.144037 21.4019 0.148041 20.9133V12.7109C0.146709 12.0954 0.321611 11.4933 0.65136 10.974L6.0369 3.53003C6.40136 2.95996 7.03148 2.6142 7.70834 2.6142L13.9791 2.61553L13.9964 1.84256ZM6.97402 21.3845C6.99671 22.5073 7.90184 23.4111 9.02461 23.4351C10.1527 23.4258 11.0659 22.5126 11.0752 21.3845C11.0512 20.2618 10.146 19.358 9.02461 19.3339C7.89118 19.3339 6.97402 20.2524 6.97402 21.3845ZM12.2447 11.0287H12.2434C12.2434 11.2797 12.0404 11.4839 11.7895 11.4839H4.52284C4.3613 11.4799 4.21445 11.3918 4.13569 11.2516C4.05692 11.1101 4.05959 10.9392 4.13969 10.8004L7.9538 5.80992C8.03657 5.67909 8.18209 5.59898 8.33695 5.59765H11.7919C12.0428 5.59765 12.2471 5.80191 12.2471 6.05288L12.2447 11.0287ZM23.4734 21.3712C23.4734 22.5033 24.3919 23.4218 25.524 23.4218C26.6574 23.4218 27.5746 22.5033 27.5746 21.3712C27.5586 20.2458 26.6494 19.3366 25.524 19.3206C24.3919 19.3206 23.4734 20.2378 23.4734 21.3712Z" fill="#FFFFFF"/>
</svg>
