<svg xmlns="http://www.w3.org/2000/svg" width="49" height="36" viewBox="0 0 49 36">
  <path fill="#FFFFFF" d="M108.025661,28 C110.424712,28 112.369528,29.9448155 112.369528,32.3438669 L112.369,34.47 L108.869,34.47 L108.869528,32.3438669 C108.869528,31.8778121 108.491716,31.5 108.025661,31.5 L78.3438669,31.5 C77.8778121,31.5 77.5,31.8778121 77.5,32.3438669 L77.5,50.2672442 C77.5,50.733299 77.8778121,51.1111111 78.3438669,51.1111111 L82.861968,51.1111111 C83.8284663,51.1111111 84.611968,51.8946128 84.611968,52.8611111 L84.611968,57.5254862 L90.5145657,51.6235997 C90.6654238,51.4727597 90.8409843,51.3523047 91.031738,51.266173 L91.032,56.055 L84.0993303,62.9875114 C82.9968613,64.0898476 81.111968,63.3090327 81.111968,61.75 L81.111968,54.6111111 L78.3438669,54.6111111 C75.9448155,54.6111111 74,52.6662957 74,50.2672442 L74,32.3438669 C74,29.9448155 75.9448155,28 78.3438669,28 L108.025661,28 Z M119.074393,38.3729264 C120.731248,38.3729264 122.074393,39.7160721 122.074393,41.3729264 L122.074393,54.7359456 C122.074393,56.3927999 120.731248,57.7359456 119.074393,57.7359456 L98.1044736,57.7359456 C96.4476194,57.7359456 95.1044736,56.3927999 95.1044736,54.7359456 L95.1044736,41.3729264 C95.1044736,39.7160721 96.4476194,38.3729264 98.1044736,38.3729264 L119.074393,38.3729264 Z M119.946474,47.3619264 L97.2314736,47.3619264 L97.2322087,54.4943052 C97.2322087,55.007141 97.6182489,55.4298123 98.1155875,55.4875774 L98.2322087,55.4943052 L118.946658,55.4943052 C119.459494,55.4943052 119.882165,55.108265 119.939931,54.6109263 L119.946658,54.4943052 L119.946474,47.3619264 Z M103.870238,49.2623736 L103.870238,53.5714198 L99.5611916,53.5714198 L99.5611916,49.2623736 L103.870238,49.2623736 Z M118.946658,40.6145668 L98.2322087,40.6145668 C97.7193728,40.6145668 97.2967015,41.000607 97.2389364,41.4979457 L97.2322087,41.6145668 L97.2314736,43.9049264 L119.946474,43.9049264 L119.946658,41.6145668 C119.946658,41.0622821 119.498943,40.6145668 118.946658,40.6145668 Z" transform="translate(-74 -28)"/>
</svg>
