<svg width="46" height="46" viewBox="0 0 46 46" fill="none" xmlns="http://www.w3.org/2000/svg">
<path fill-rule="evenodd" clip-rule="evenodd" d="M23 46C35.7025 46 46 35.7025 46 23C46 10.2975 35.7025 0 23 0C10.2975 0 0 10.2975 0 23C0 35.7025 10.2975 46 23 46Z" fill="#8FBD00"/>
<path fill-rule="evenodd" clip-rule="evenodd" d="M32.9004 18.9853L27.9482 18.9863C27.8057 18.9863 27.6679 18.9039 27.6146 18.7729C27.3915 18.2153 27.4002 17.5868 27.6447 17.033C28.0549 15.8391 28.1015 14.5492 27.7795 13.3281C27.4429 12.4882 27.3537 10.9539 25.8009 10.8831C25.315 10.9548 24.8912 11.2468 24.6468 11.6725C24.6031 11.7482 24.5847 11.8374 24.5847 11.9237C24.5847 11.9237 24.6561 13.4136 24.5847 14.4493C24.5134 15.485 22.5315 18.1231 21.2716 19.7981C21.1921 19.9048 21.0806 19.9746 20.9487 19.995C20.4763 20.0657 19.5754 20.1855 19.2506 20.2284C19.1746 20.2384 19.1302 20.3339 19.1302 20.3787C19.1302 22.4725 19.1302 25.6046 19.1302 29.7749C19.1302 29.8095 19.1719 29.8848 19.246 29.8971C19.5004 29.9391 20.1368 30.0555 20.779 30.262C21.5859 30.521 22.258 31.1339 23.6032 31.5878C23.674 31.6121 23.7526 31.6247 23.8273 31.6247H30.144C30.9597 31.4792 31.5668 30.7819 31.6085 29.9449C31.6201 29.4784 31.527 29.0167 31.336 28.5929C31.3088 28.5318 31.3447 28.4677 31.4107 28.4551C32.2205 28.3077 33.233 26.7705 31.9858 25.532C31.9528 25.4999 31.9586 25.4563 32.0032 25.4447C32.6909 25.2691 33.2175 24.7202 33.3785 24.0354C33.4406 23.7736 33.4183 23.503 33.3407 23.246C33.2495 22.9395 33.104 22.6524 32.911 22.3964C32.8625 22.3324 32.8897 22.249 32.9673 22.2237C33.652 21.9919 34.1234 21.3373 34.1185 20.5924C34.1971 19.8621 33.6103 18.9863 32.9004 18.9853ZM17.1914 19.381H13.6116C13.4254 19.381 13.2838 19.5459 13.3158 19.7254L15.3952 31.4074C15.4272 31.5868 15.5853 31.7178 15.7705 31.7178H17.0944C17.2991 31.7178 17.4649 31.5558 17.4649 31.356L17.494 19.6778C17.494 19.5139 17.3592 19.381 17.1914 19.381Z" fill="white"/>
</svg>
