<svg xmlns="http://www.w3.org/2000/svg" width="47" height="41" viewBox="0 0 47 41">
  <path fill="#FFFFFF" d="M126.893869,57.4725699 C127.274676,57.6581696 127.221713,58.3103517 126.825668,59.1963041 C126.561638,59.7869389 124.461903,62.0963817 120.526464,66.1246323 C119.036826,67.8098076 116.456565,67.9002861 116.456565,67.9002861 L106.286476,67.9002861 C105.775288,67.9002861 104.927013,68.1456215 104.816181,68.1783328 L104.804111,68.1819211 L104.156031,68.6445182 C103.387861,69.1928347 102.340926,69.1295175 101.644428,68.4926304 C100.117077,67.0959613 98.7511724,65.6849661 97.5467134,64.2596447 C97.1295513,63.7659874 97.3194469,63.3649704 97.4788299,63.2043187 C98.9648163,61.7065045 100.147975,60.7008757 101.028306,60.1874325 C103.769435,58.5886989 106.027986,58.1981068 107.225207,58.1981068 L107.502187,58.1987195 C108.990284,58.2041098 113.586454,58.2433817 115.027031,58.2489508 L115.300044,58.2496069 C116.358221,58.2496069 117.149835,58.4669722 117.149835,59.7546873 C117.149835,60.9838698 116.01102,61.3427478 115.453155,61.3728335 L115.377597,61.3749532 L110.916101,61.3749532 C110.10988,61.3749532 110.10988,62.160162 110.10988,62.160162 C110.10988,62.7707636 110.759069,62.9230422 110.85181,62.9416809 L110.862786,62.9437577 L116.878004,62.9437577 C117.405806,62.9437577 117.695733,62.7552607 117.777714,62.6924284 L117.802188,62.6723221 L123.590191,58.2946015 C125.588826,56.6918392 126.513062,57.2869702 126.893869,57.4725699 Z M115.025661,28 C117.424712,28 119.369528,29.9448155 119.369528,32.3438669 L119.369,38.048 L115.869,38.048 L115.869528,32.3438669 C115.869528,31.8778121 115.491716,31.5 115.025661,31.5 L85.3438669,31.5 C84.8778121,31.5 84.5,31.8778121 84.5,32.3438669 L84.5,50.2672442 C84.5,50.733299 84.8778121,51.1111111 85.3438669,51.1111111 L89.861968,51.1111111 C90.8284663,51.1111111 91.611968,51.8946128 91.611968,52.8611111 L91.611968,57.5254862 L97.5145657,51.6235997 C97.8427483,51.2954566 98.2878357,51.1111111 98.751928,51.1111111 L101,51.111 L101,54.611 L99.47674,54.6111111 L91.0993303,62.9875114 C89.9968613,64.0898476 88.111968,63.3090327 88.111968,61.75 L88.111968,54.6111111 L85.3438669,54.6111111 C82.9448155,54.6111111 81,52.6662957 81,50.2672442 L81,32.3438669 C81,29.9448155 82.9448155,28 85.3438669,28 L115.025661,28 Z M120.202299,40.888683 C120.735444,40.888683 121.178359,41.2108748 121.238912,41.6227619 L121.245965,41.7192991 L121.245965,54.7065607 C121.245965,55.1308713 120.841132,55.483371 120.323598,55.5315633 L120.202299,55.5371769 L105.422834,55.5371769 C104.889689,55.5371769 104.446774,55.214985 104.38622,54.8030979 L104.379167,54.7065607 L104.379167,41.7192991 C104.379167,41.2949885 104.784,40.9424888 105.301535,40.8942965 L105.422834,40.888683 L120.202299,40.888683 Z M108.167448,47.9162509 C107.467267,47.9162509 106.899658,48.4838596 106.899658,49.1840405 C106.899658,49.8842213 107.467267,50.4518301 108.167448,50.4518301 C108.867629,50.4518301 109.435237,49.8842213 109.435237,49.1840405 C109.435237,48.4838596 108.867629,47.9162509 108.167448,47.9162509 Z M117.19278,48.2842389 L111.462156,48.2842389 C111.102645,48.2842389 110.802733,48.6099486 110.755245,49.0297963 L110.748697,49.1464603 L110.748697,49.1905798 C110.748697,49.6256297 111.018649,49.9875936 111.36573,50.0448997 L111.462156,50.0528011 L117.19278,50.0528011 C117.55277,50.0528011 117.852283,49.7270915 117.899702,49.3072437 L117.90624,49.1905798 L117.90624,49.1464603 C117.90624,48.6718604 117.585496,48.2842389 117.19278,48.2842389 Z M108.167448,43.6776289 C107.467267,43.6776289 106.899658,44.2452376 106.899658,44.9454185 C106.899658,45.6455994 107.467267,46.2132081 108.167448,46.2132081 C108.867629,46.2132081 109.435237,45.6455994 109.435237,44.9454185 C109.435237,44.2452376 108.867629,43.6776289 108.167448,43.6776289 Z M117.19278,44.045617 L111.462156,44.045617 C111.102645,44.045617 110.802733,44.3713267 110.755245,44.7911744 L110.748697,44.9078383 L110.748697,44.9519578 C110.748697,45.3870077 111.018649,45.7489716 111.36573,45.8062777 L111.462156,45.8141792 L117.19278,45.8141792 C117.55277,45.8141792 117.852283,45.4884695 117.899702,45.0686218 L117.90624,44.9519578 L117.90624,44.9078383 C117.90624,44.4332384 117.585496,44.045617 117.19278,44.045617 Z M90.6252967,35.9519293 C91.1193618,35.9519293 91.5906668,36.0104361 92.0392258,36.1274515 C92.4877849,36.2444669 92.956923,36.4091528 93.4466542,36.6215141 L92.7965718,38.1882126 C92.289505,37.9801852 91.8702061,37.8350016 91.5386624,37.7526574 C91.2071188,37.6703132 90.8809974,37.6291417 90.5602885,37.6291417 C90.1789049,37.6291417 89.8863708,37.7179854 89.6826773,37.8956755 C89.4789838,38.0733656 89.3771386,38.305226 89.3771386,38.5912636 C89.3771386,38.7689537 89.41831,38.9238885 89.5006542,39.0560725 C89.5829984,39.1882566 89.714097,39.3161049 89.893954,39.4396211 C90.0738111,39.5631374 90.4996107,39.7852466 91.1713659,40.1059555 C92.0598162,40.5306781 92.6687206,40.9564778 92.9980973,41.3833674 C93.327474,41.8102569 93.4921599,42.333568 93.4921599,42.9533163 C93.4921599,43.8114293 93.1833739,44.4875082 92.5657925,44.9815733 C91.9482112,45.4756383 91.0890276,45.7226672 89.988216,45.7226672 C88.9740824,45.7226672 88.0769777,45.5319782 87.296875,45.1505947 L87.296875,43.2783575 C87.9382928,43.5643951 88.4811061,43.7659187 88.9253313,43.8829341 C89.3695565,43.9999495 89.7758539,44.0584563 90.1442357,44.0584563 C90.586294,44.0584563 90.9254169,43.9739465 91.1616146,43.8049242 C91.3978124,43.6359019 91.5159095,43.3845393 91.5159095,43.0508287 C91.5159095,42.8644708 91.4639035,42.6987014 91.3598898,42.5535156 C91.2558761,42.4083299 91.1031082,42.2685635 90.9015817,42.1342125 C90.7000552,41.9998615 90.2894239,41.7853365 89.6696756,41.490631 C89.0889325,41.217595 88.6533816,40.9553978 88.3630101,40.7040313 C88.0726385,40.4526649 87.8407781,40.1601307 87.6674219,39.8264201 C87.4940658,39.4927095 87.407389,39.102664 87.407389,38.6562719 C87.407389,37.8154945 87.6923389,37.154584 88.2622473,36.6735207 C88.8321557,36.1924573 89.6198309,35.9519293 90.6252967,35.9519293 Z M97.9582257,36.0884465 L100.207511,43.3563674 L100.246516,43.3563674 L101,41.059 L101,45.592 L99.238888,45.5926507 L96.9505981,38.136206 L96.8920907,38.136206 C96.9689452,39.551948 97.0099338,40.5278529 97.0150574,41.0639455 L97.0156063,45.5926507 L95.2148782,45.5926507 L95.2148782,36.0884465 L97.9582257,36.0884465 Z M105.375666,36.0884465 L105.375,38.048 L103,38.0488281 C102.582483,38.0488281 102.194848,38.1767643 101.874157,38.3955729 L102.632318,36.0884465 L105.375666,36.0884465 Z M110.511316,35.9519293 C111.005381,35.9519293 111.476686,36.0104361 111.925245,36.1274515 C112.373804,36.2444669 112.842942,36.4091528 113.332674,36.6215141 L112.74,38.048 L112.326742,38.0470263 C111.97593,37.9130111 111.675245,37.8148888 111.424682,37.7526574 C111.093138,37.6703132 110.767017,37.6291417 110.446308,37.6291417 C110.064924,37.6291417 109.77239,37.7179854 109.568697,37.8956755 C109.514897,37.9426069 109.468203,37.9933173 109.428613,38.0478066 L107.348987,38.0482051 C107.457249,37.490147 107.723675,37.0319216 108.148267,36.6735207 C108.718175,36.1924573 109.50585,35.9519293 110.511316,35.9519293 Z" transform="translate(-81 -28)"/>
</svg>
