<svg xmlns="http://www.w3.org/2000/svg" width="48" height="44" viewBox="0 0 48 44">
  <path fill="#FFFFFF" d="M138.392533,32 C141.365712,32 143.775949,34.4102373 143.775949,37.3834157 L143.775949,59.5961107 C143.775949,62.5692891 141.365712,64.9795264 138.392533,64.9795264 L119.122536,64.9795264 L108.740294,75.3605178 C107.373988,76.7266586 105.038013,75.7589836 105.038013,73.8268524 L105.038013,64.9795264 L101.607467,64.9795264 C98.6342881,64.9795264 96.2240508,62.5692891 96.2240508,59.5961107 L96.2240508,37.3834157 C96.2240508,34.4102373 98.6342881,32 101.607467,32 L138.392533,32 Z M138.392533,36.3375995 L101.607467,36.3375995 C101.029878,36.3375995 100.56165,36.8058274 100.56165,37.3834157 L100.56165,59.5961107 C100.56165,60.1736991 101.029878,60.6419269 101.607467,60.6419269 L107.206813,60.6419269 C108.404608,60.6419269 109.375613,61.6129316 109.375613,62.8107267 L109.375613,68.5913527 L116.690786,61.2770613 C117.097507,60.8703889 117.64911,60.6419269 118.224266,60.6419269 L138.392533,60.6419269 C138.970122,60.6419269 139.43835,60.1736991 139.43835,59.5961107 L139.43835,37.3834157 C139.43835,36.8058274 138.970122,36.3375995 138.392533,36.3375995 Z M108.152817,41.8549384 C108.765119,41.8549384 109.349214,41.9274467 109.90512,42.0724656 C110.461025,42.2174844 111.042435,42.421582 111.649365,42.6847644 L110.843709,44.626396 C110.215294,44.3685847 109.695651,44.1886566 109.284764,44.0866063 C108.873877,43.984556 108.469711,43.9335316 108.072252,43.9335316 C107.599598,43.9335316 107.237056,44.0436368 106.984616,44.2638506 C106.732175,44.4840645 106.605957,44.7714123 106.605957,45.1259028 C106.605957,45.3461167 106.656982,45.5381295 106.759032,45.7019471 C106.861082,45.8657647 107.023555,46.0242088 107.246454,46.1772843 C107.469353,46.3303597 107.997053,46.6056229 108.829568,47.003082 C109.930638,47.5294467 110.685261,48.0571463 111.093463,48.5861965 C111.501664,49.1152468 111.705761,49.7637936 111.705761,50.5318564 C111.705761,51.595328 111.323078,52.4332021 110.557701,53.045504 C109.792324,53.6578058 108.727525,53.9639521 107.363274,53.9639521 C106.106444,53.9639521 104.994649,53.7276286 104.027857,53.2549746 L104.027857,50.9346845 C104.822775,51.2891751 105.495491,51.538926 106.046026,51.6839449 C106.596561,51.8289637 107.100091,51.9014721 107.556632,51.9014721 C108.104481,51.9014721 108.52476,51.7967378 108.817484,51.5872661 C109.110207,51.3777944 109.256566,51.0662771 109.256566,50.6527048 C109.256566,50.4217489 109.192114,50.2163086 109.063209,50.0363778 C108.934303,49.856447 108.744976,49.6832326 108.495221,49.5167295 C108.245466,49.3502264 107.736565,49.0843625 106.968502,48.7191298 C106.248779,48.3807525 105.708995,48.0558077 105.349133,47.7442857 C104.989272,47.4327637 104.701924,47.070222 104.487081,46.6566498 C104.272238,46.2430775 104.164819,45.7596885 104.164819,45.2064685 C104.164819,44.1644812 104.517961,43.3454055 105.224257,42.7492169 C105.930552,42.1530282 106.906729,41.8549384 108.152817,41.8549384 Z M132.797842,41.8549384 C133.410144,41.8549384 133.994239,41.9274467 134.550145,42.0724656 C135.10605,42.2174844 135.68746,42.421582 136.294391,42.6847644 L135.488734,44.626396 C134.860319,44.3685847 134.340676,44.1886566 133.929789,44.0866063 C133.518903,43.984556 133.114736,43.9335316 132.717277,43.9335316 C132.244623,43.9335316 131.882081,44.0436368 131.629641,44.2638506 C131.377201,44.4840645 131.250982,44.7714123 131.250982,45.1259028 C131.250982,45.3461167 131.302007,45.5381295 131.404057,45.7019471 C131.506107,45.8657647 131.66858,46.0242088 131.891479,46.1772843 C132.114378,46.3303597 132.642078,46.6056229 133.474594,47.003082 C134.575663,47.5294467 135.330287,48.0571463 135.738488,48.5861965 C136.146689,49.1152468 136.350787,49.7637936 136.350787,50.5318564 C136.350787,51.595328 135.968104,52.4332021 135.202726,53.045504 C134.437349,53.6578058 133.372551,53.9639521 132.008299,53.9639521 C130.751469,53.9639521 129.639675,53.7276286 128.672882,53.2549746 L128.672882,50.9346845 C129.4678,51.2891751 130.140517,51.538926 130.691051,51.6839449 C131.241586,51.8289637 131.745116,51.9014721 132.201657,51.9014721 C132.749506,51.9014721 133.169786,51.7967378 133.462509,51.5872661 C133.755232,51.3777944 133.901591,51.0662771 133.901591,50.6527048 C133.901591,50.4217489 133.83714,50.2163086 133.708234,50.0363778 C133.579328,49.856447 133.390001,49.6832326 133.140246,49.5167295 C132.890492,49.3502264 132.381591,49.0843625 131.613528,48.7191298 C130.893804,48.3807525 130.35402,48.0558077 129.994159,47.7442857 C129.634297,47.4327637 129.346949,47.070222 129.132106,46.6566498 C128.917264,46.2430775 128.809844,45.7596885 128.809844,45.2064685 C128.809844,44.1644812 129.162986,43.3454055 129.869282,42.7492169 C130.575577,42.1530282 131.551754,41.8549384 132.797842,41.8549384 Z M117.24062,42.0241262 L120.028191,51.0313633 L120.07653,51.0313633 L123.033288,42.0241262 L126.433158,42.0241262 L126.433158,53.8028209 L124.104811,53.8028209 L124.104811,48.2276795 C124.104811,47.9644971 124.10884,47.6610363 124.116896,47.3172879 C124.124953,46.9735395 124.161207,46.0604715 124.22566,44.5780566 L124.153151,44.5780566 L121.115827,53.8028209 L118.827763,53.8028209 L115.991853,44.5619435 L115.919344,44.5619435 C116.021394,46.4418175 116.072418,47.6959432 116.072418,48.3243582 L116.072418,53.8028209 L113.84075,53.8028209 L113.84075,42.0241262 L117.24062,42.0241262 Z" transform="translate(-96 -32)"/>
</svg>
