<svg width="30" height="42" viewBox="0 0 30 42" fill="none" xmlns="http://www.w3.org/2000/svg">
<path fill-rule="evenodd" clip-rule="evenodd" d="M25.8188 0C27.4694 0 28.8182 1.19331 28.9907 2.70774L29.0093 3.03685V19.1376C29.0093 19.2307 28.8424 19.5143 28.6109 19.8723L27.6591 21.307C27.4629 21.6112 27.3085 21.8687 27.2545 22.0131L27.2339 22.0991L27.2333 38.4552C27.2333 40.0266 25.9797 41.3102 24.3886 41.4743L24.0428 41.4921H4.9661C3.31535 41.4921 1.9667 40.2989 1.79422 38.7844L1.77558 38.4552V21.9533C1.77558 21.8584 1.60827 21.5729 1.37638 21.213L0.286332 19.5549C0.157787 19.3469 0.060998 19.1746 0.0206373 19.0658L0 18.9792V3.03685C0 1.46564 1.2537 0.181921 2.84476 0.0177422L3.19053 0H25.8188ZM8.86865 32.5727H6.59891C5.79693 32.5727 5.14627 33.1919 5.14627 33.9553C5.14627 34.7187 5.7969 35.3378 6.59891 35.3378H8.86865C9.67058 35.3378 10.3214 34.7187 10.3214 33.9553C10.3214 33.1919 9.67058 32.5727 8.86865 32.5727ZM13.3787 32.5727H15.6484C16.4505 32.5727 17.101 33.1921 17.101 33.9555C17.101 34.7189 16.4505 35.3381 15.6484 35.3381H13.3787C12.5767 35.3381 11.9259 34.7189 11.9259 33.9555C11.9259 33.1921 12.5767 32.5727 13.3787 32.5727ZM22.4265 32.5727H20.1567C19.3547 32.5727 18.7042 33.1921 18.7042 33.9555C18.7042 34.6341 19.2182 35.1987 19.8957 35.3158L20.1567 35.3381H22.4265C23.2285 35.3381 23.8793 34.7189 23.8793 33.9555C23.8793 33.2769 23.3651 32.7121 22.6875 32.595L22.4265 32.5727ZM6.59891 27.5317H8.86865C9.67058 27.5317 10.3214 28.1512 10.3214 28.9146C10.3214 29.678 9.67058 30.2971 8.86865 30.2971H6.59891C5.7969 30.2971 5.14627 29.678 5.14627 28.9146C5.14627 28.1512 5.79693 27.5317 6.59891 27.5317ZM15.6484 27.5317H13.3787C12.5767 27.5317 11.9259 28.1512 11.9259 28.9146C11.9259 29.5932 12.4401 30.1578 13.1177 30.2749L13.3787 30.2971H15.6484C16.4505 30.2971 17.101 29.678 17.101 28.9146C17.101 28.236 16.587 27.6712 15.9095 27.554L15.6484 27.5317ZM20.1567 27.5317H22.4265C23.2285 27.5317 23.8793 28.1512 23.8793 28.9146C23.8793 29.678 23.2285 30.2971 22.4265 30.2971H20.1567C19.3547 30.2971 18.7042 29.6777 18.7042 28.9146C18.7042 28.1512 19.3547 27.5317 20.1567 27.5317ZM15.6484 22.4762H13.3787C12.5767 22.4762 11.9259 23.0956 11.9259 23.8587C11.9259 24.6221 12.5767 25.2416 13.3787 25.2416H15.6484C16.4505 25.2416 17.101 24.6221 17.101 23.8587C17.101 23.0956 16.4505 22.4762 15.6484 22.4762ZM6.59891 22.4762H8.86865L9.12968 22.4985C9.80716 22.6156 10.3214 23.1804 10.3214 23.859C10.3214 24.6221 9.67058 25.2416 8.86865 25.2416H6.59891L6.33787 25.2193C5.66035 25.1021 5.14627 24.5373 5.14627 23.859C5.14627 23.0956 5.79693 22.4762 6.59891 22.4762ZM22.4265 22.4762H20.1567C19.3547 22.4762 18.7042 23.0956 18.7042 23.8587C18.7042 24.5373 19.2182 25.1021 19.8957 25.2193L20.1567 25.2416H22.4265C23.2285 25.2416 23.8793 24.6221 23.8793 23.8587C23.8793 23.1804 23.3651 22.6156 22.6875 22.4985L22.4265 22.4762ZM4.68101 6.89033H24.3269L24.5066 6.90982C24.8523 6.98634 25.1071 7.27939 25.1071 7.63305V16.6017L25.0867 16.7727C25.0063 17.1018 24.6984 17.3444 24.3269 17.3444H4.68101L4.5013 17.3249C4.15553 17.2483 3.90074 16.9553 3.90074 16.6017V7.63305L3.92122 7.46199C4.00159 7.13287 4.30944 6.89033 4.68101 6.89033ZM17.8874 8.42606L19.5074 9.92901L13.3399 15.5955L9.84142 12.3773L11.4615 10.8744L13.3399 12.5896L17.8874 8.42606ZM4.68104 3.57156H24.327L24.5067 3.59104C24.8524 3.66754 25.1073 3.96057 25.1073 4.31425C25.1073 4.72686 24.7604 5.05695 24.327 5.05695H4.68104L4.50132 5.03746C4.15553 4.96096 3.90074 4.66792 3.90074 4.31425C3.90074 3.90165 4.24754 3.57156 4.68104 3.57156Z" fill="#0B66C3"/>
</svg>
