<svg width="30" height="42" viewBox="0 0 30 42" fill="none" xmlns="http://www.w3.org/2000/svg">
<path fill-rule="evenodd" clip-rule="evenodd" d="M26.8095 0C28.4602 0 29.8089 1.19331 29.9814 2.70774L30 3.03685V19.1376C30 19.2307 29.8331 19.5143 29.6016 19.8723L28.6499 21.307C28.4536 21.6112 28.2992 21.8687 28.2453 22.0131L28.2246 22.0991L28.224 38.4552C28.224 40.0266 26.9705 41.3102 25.3793 41.4743L25.0335 41.4921H5.95682C4.30608 41.4921 2.95742 40.2989 2.78494 38.7844L2.7663 38.4552V21.9533C2.7663 21.8584 2.599 21.5729 2.3671 21.213L1.27705 19.5549C1.14851 19.3469 1.05172 19.1746 1.01136 19.0658L0.990723 18.9792V3.03685C0.990723 1.46564 2.24442 0.181921 3.83548 0.0177422L4.18125 0H26.8095ZM9.85938 32.5727H7.58963C6.78765 32.5727 6.13699 33.1919 6.13699 33.9553C6.13699 34.7187 6.78763 35.3378 7.58963 35.3378H9.85938C10.6613 35.3378 11.3121 34.7187 11.3121 33.9553C11.3121 33.1919 10.6613 32.5727 9.85938 32.5727ZM14.3694 32.5727H16.6392C17.4412 32.5727 18.0917 33.1921 18.0917 33.9555C18.0917 34.7189 17.4412 35.3381 16.6392 35.3381H14.3694C13.5674 35.3381 12.9166 34.7189 12.9166 33.9555C12.9166 33.1921 13.5674 32.5727 14.3694 32.5727ZM23.4172 32.5727H21.1475C20.3454 32.5727 19.6949 33.1921 19.6949 33.9555C19.6949 34.6341 20.2089 35.1987 20.8864 35.3158L21.1475 35.3381H23.4172C24.2192 35.3381 24.87 34.7189 24.87 33.9555C24.87 33.2769 24.3558 32.7121 23.6782 32.595L23.4172 32.5727ZM7.58963 27.5317H9.85938C10.6613 27.5317 11.3121 28.1512 11.3121 28.9146C11.3121 29.678 10.6613 30.2971 9.85938 30.2971H7.58963C6.78763 30.2971 6.13699 29.678 6.13699 28.9146C6.13699 28.1512 6.78765 27.5317 7.58963 27.5317ZM16.6392 27.5317H14.3694C13.5674 27.5317 12.9166 28.1512 12.9166 28.9146C12.9166 29.5932 13.4308 30.1578 14.1084 30.2749L14.3694 30.2971H16.6392C17.4412 30.2971 18.0917 29.678 18.0917 28.9146C18.0917 28.236 17.5777 27.6712 16.9002 27.554L16.6392 27.5317ZM21.1475 27.5317H23.4172C24.2192 27.5317 24.87 28.1512 24.87 28.9146C24.87 29.678 24.2192 30.2971 23.4172 30.2971H21.1475C20.3454 30.2971 19.6949 29.6777 19.6949 28.9146C19.6949 28.1512 20.3454 27.5317 21.1475 27.5317ZM16.6392 22.4762H14.3694C13.5674 22.4762 12.9166 23.0956 12.9166 23.8587C12.9166 24.6221 13.5674 25.2416 14.3694 25.2416H16.6392C17.4412 25.2416 18.0917 24.6221 18.0917 23.8587C18.0917 23.0956 17.4412 22.4762 16.6392 22.4762ZM7.58963 22.4762H9.85938L10.1204 22.4985C10.7979 22.6156 11.3121 23.1804 11.3121 23.859C11.3121 24.6221 10.6613 25.2416 9.85938 25.2416H7.58963L7.32859 25.2193C6.65107 25.1021 6.13699 24.5373 6.13699 23.859C6.13699 23.0956 6.78765 22.4762 7.58963 22.4762ZM23.4172 22.4762H21.1475C20.3454 22.4762 19.6949 23.0956 19.6949 23.8587C19.6949 24.5373 20.2089 25.1021 20.8864 25.2193L21.1475 25.2416H23.4172C24.2192 25.2416 24.87 24.6221 24.87 23.8587C24.87 23.1804 24.3558 22.6156 23.6782 22.4985L23.4172 22.4762ZM5.67173 6.89033H25.3176L25.4973 6.90982C25.843 6.98634 26.0979 7.27939 26.0979 7.63305V16.6017L26.0774 16.7727C25.997 17.1018 25.6891 17.3444 25.3176 17.3444H5.67173L5.49203 17.3249C5.14625 17.2483 4.89147 16.9553 4.89147 16.6017V7.63305L4.91194 7.46199C4.99231 7.13287 5.30016 6.89033 5.67173 6.89033ZM18.8781 8.42606L20.4981 9.92901L14.3307 15.5955L10.8321 12.3773L12.4522 10.8744L14.3307 12.5896L18.8781 8.42606ZM5.67176 3.57156H25.3177L25.4974 3.59104C25.8431 3.66754 26.098 3.96057 26.098 4.31425C26.098 4.72686 25.7511 5.05695 25.3177 5.05695H5.67176L5.49204 5.03746C5.14625 4.96096 4.89147 4.66792 4.89147 4.31425C4.89147 3.90165 5.23826 3.57156 5.67176 3.57156Z" fill="white"/>
</svg>
