<svg xmlns="http://www.w3.org/2000/svg" viewBox="0 0 110 62"><path fill="#EE2A23" fill-rule="nonzero" d="M24.3214707,45.0339433 C26.2972715,45.0339433 26.9181105,43.6167865 27.4389934,42.201851 C27.6577864,41.6010032 32.792203,27.5404982 32.9465798,27.118461 C32.9876729,27.0007348 32.9599073,26.8074861 32.7788755,26.7375168 C32.5967331,26.6686581 29.9290133,25.6313349 29.7813003,25.5758037 C29.6335872,25.5191618 29.4681042,25.601348 29.4147942,25.7490611 C29.359263,25.8945529 28.2519704,28.9598762 28.1275805,29.3019485 L20.5175821,29.3019485 C20.3976346,28.9598762 19.2770146,25.8878891 19.2270365,25.7490611 C19.1759478,25.6080118 19.0171285,25.5124981 18.8594198,25.5758037 C18.7017112,25.6379986 16.0239957,26.6753218 15.8640658,26.7375168 C15.7107996,26.7974905 15.6408303,26.9718585 15.6941403,27.118461 C15.8829464,27.6448969 20.9396193,41.4799452 21.1972842,42.201851 C21.6992864,43.5956847 22.3412273,45.0339433 24.3214707,45.0339433 L24.3214707,45.0339433 Z M15.2876517,19.8749686 C15.1277218,19.8749686 15,19.7416936 15,19.5795425 L15,16.2932048 C15,16.1310537 15.1277218,16 15.2876517,16 L33.3475152,16 C33.510777,16 33.6384988,16.1310537 33.6384988,16.2932048 L33.6384988,19.5795425 C33.6384988,19.7416936 33.510777,19.8749686 33.3475152,19.8749686 L15.2876517,19.8749686 L15.2876517,19.8749686 Z M24.3037007,40.442622 L21.7314945,32.7182292 L26.9181105,32.7182292 L24.3370194,40.442622 L24.3037007,40.442622 Z M62.9012307,27.7770612 C62.5225078,27.6493394 62.2726173,27.6182419 61.97497,27.6182419 C61.3596841,27.6182419 61.0187224,27.8614687 61.0187224,28.4923033 C61.0187224,29.149793 61.4518659,29.3696966 62.3026042,29.3696966 C62.510291,29.3696966 62.7146458,29.3397098 62.8101595,29.306391 L62.8101595,28.8354863 C62.8101595,28.3279309 62.8379252,27.9947436 62.9012307,27.7770612 L62.9012307,27.7770612 Z M65.0880502,27.0240579 C64.6338048,27.7137556 64.514968,28.1202442 64.514968,28.9898631 L64.514968,30.7557559 C64.514968,31.7064504 64.4039056,32.0496333 64.1529045,32.3961481 C63.8030578,32.8870441 63.2199799,33.100284 62.1482274,33.100284 C61.3896709,33.100284 60.6533269,33.0180978 59.9403061,32.8359554 L60.1979709,31.5809498 C60.6799819,31.6486979 61.185316,31.7064504 61.5418265,31.7064504 C62.6802165,31.7064504 62.8101595,31.542078 62.8101595,30.6880078 L62.8101595,30.3692586 C62.5569372,30.4370067 62.2726173,30.4858742 61.9427619,30.4858742 C60.2290684,30.4858742 59.3239095,29.6473527 59.3239095,28.2590722 C59.3239095,26.9574204 60.2912634,26.2477314 61.4696359,26.2477314 C61.9094431,26.2477314 62.3692417,26.328807 62.7335265,26.4776307 C62.9534301,26.5731444 63.0489438,26.6297862 63.3332636,26.8141499 C63.5042998,26.56537 63.8474827,26.311037 63.9874214,26.2632802 L65.0880502,27.0240579 L65.0880502,27.0240579 Z M82.0395106,27.7770612 C81.6585664,27.6493394 81.4131184,27.6182419 81.1132498,27.6182419 C80.4957426,27.6182419 80.1503384,27.8614687 80.1503384,28.4923033 C80.1503384,29.149793 80.5890351,29.3696966 81.4419946,29.3696966 C81.6496814,29.3696966 81.8551469,29.3397098 81.9484394,29.306391 L81.9484394,28.8354863 C81.9484394,28.3279309 81.9750943,27.9947436 82.0395106,27.7770612 L82.0395106,27.7770612 Z M84.2285513,27.0240579 C83.770974,27.7137556 83.6543584,28.1202442 83.6543584,28.9898631 L83.6543584,30.7557559 C83.6543584,31.7064504 83.5410748,32.0496333 83.2878524,32.3961481 C82.9424482,32.8870441 82.3582598,33.100284 81.2831753,33.100284 C80.5257295,33.100284 79.784943,33.0180978 79.0719221,32.8359554 L79.3262551,31.5809498 C79.8093767,31.6486979 80.3158215,31.7064504 80.6823275,31.7064504 C81.8140538,31.7064504 81.9484394,31.542078 81.9484394,30.6880078 L81.9484394,30.3692586 C81.695217,30.4370067 81.4131184,30.4858742 81.0765992,30.4858742 C79.3606845,30.4858742 78.4521937,29.6473527 78.4521937,28.2590722 C78.4521937,26.9574204 79.4217688,26.2477314 80.6056944,26.2477314 C81.0510548,26.2477314 81.5064108,26.328807 81.8673638,26.4776307 C82.0905993,26.5731444 82.1827811,26.6297862 82.467101,26.8141499 C82.6403584,26.56537 82.9835413,26.311037 83.1245906,26.2632802 L84.2285513,27.0240579 L84.2285513,27.0240579 Z M97.5715929,26.3954445 C97.5715929,26.3954445 96.6320047,28.3979003 96.4021054,28.8532563 C96.1433299,29.3663648 95.903435,29.7206539 95.3747778,29.8483758 L95.3747778,29.877252 C95.729067,29.9450001 96.0111656,30.1593506 96.3199192,30.814619 C96.6120134,31.453228 96.6986421,31.5909454 96.8707889,31.743101 C97.0396038,31.8941459 97.2706137,31.8397253 97.2706137,31.8397253 L97.3572424,33.0203191 C97.1117944,33.0536378 96.8396914,33.0547484 96.5587034,33.0391997 C96.0922412,33.0114341 95.8512357,32.8770485 95.6213364,32.6460386 C95.4414153,32.4694494 95.3192466,32.2051207 95.1682017,31.9019203 C95.0082718,31.5709542 94.8816606,31.3044044 94.7150669,30.9678852 C94.5495839,30.622481 94.4718402,30.4669935 94.0264798,30.4669935 L93.7366068,30.4669935 L93.7366068,35.6969239 L92.0206921,35.6969239 L92.0206921,26.3954445 L93.7366068,26.3954445 L93.7366068,29.069828 L93.9709486,29.0742705 C94.4629552,29.0742705 94.5495839,28.9509912 94.80947,28.4323296 C95.1137811,27.8137118 95.6968589,26.3954445 95.6968589,26.3954445 L97.5715929,26.3954445 L97.5715929,26.3954445 Z M49.2327761,26.3954445 L51.2130195,26.3954445 L48.2176654,35.5414365 C47.9022481,35.6469458 47.5124189,35.7124726 47.0959348,35.7124726 C46.6416894,35.7124726 46.4795382,35.6524989 46.1241384,35.5414365 L42.9544164,26.3954445 L44.8546947,26.3954445 C44.8546947,26.3954445 45.111249,27.1973153 45.4133388,28.1913241 L48.6963446,28.1913241 C48.9895494,27.1984259 49.2327761,26.3954445 49.2327761,26.3954445 L49.2327761,26.3954445 Z M45.8953498,29.7250964 C45.8953498,29.7250964 46.4439983,31.5609586 46.5295163,31.8463891 C46.7471987,32.5860649 47.0781648,33.7611055 47.0781648,33.7611055 L47.1325854,33.7611055 C47.1325854,33.7611055 47.4391177,32.5438612 47.6390301,31.8597166 C47.7145526,31.5876136 48.2387673,29.7250964 48.2387673,29.7250964 L45.8953498,29.7250964 Z M68.0112136,30.7713046 C67.4059233,30.7713046 66.9139167,30.2770768 66.9139167,29.6717865 C66.9139167,29.0620537 67.4059233,28.5711577 68.0112136,28.5711577 C68.6176146,28.5711577 69.1073999,29.0620537 69.1073999,29.6717865 C69.1073999,30.2770768 68.6176146,30.7713046 68.0112136,30.7713046 L68.0112136,30.7713046 Z M53.5642113,35.6969239 L51.8438541,35.6969239 L51.8438541,26.3965551 L53.5642113,26.3965551 L53.5642113,35.6969239 L53.5642113,35.6969239 Z M87.7436775,31.6220429 C88.694372,31.6020517 88.8120982,31.4054712 88.8120982,30.6080428 L88.8120982,26.3954445 L90.5169067,26.3954445 L90.5169067,30.7557559 C90.5169067,31.7064504 90.4058442,32.0496333 90.1526219,32.3961481 C89.8027752,32.8870441 89.1152987,33.100284 87.9524749,33.100284 C86.801868,33.100284 86.0688559,32.9781153 85.1259358,32.6971274 L85.1259358,26.3954445 L86.8485142,26.3954445 L86.8485142,31.542078 C87.3005384,31.6076048 87.3805033,31.6220429 87.7436775,31.6220429 L87.7436775,31.6220429 Z M57.8190135,35.8624069 C56.743929,35.8624069 56.15863,35.649167 55.8143364,35.1593817 C55.561114,34.8117562 55.448941,34.4607989 55.448941,33.5078832 L55.448941,32.6971274 L54.5948708,32.6971274 L54.5948708,31.3066256 L55.448941,31.3066256 L55.448941,26.3954445 L57.1548601,26.3954445 L57.1504176,31.3066256 L58.8507835,31.3066256 L58.8507835,32.6971274 L57.1504176,32.6971274 L57.1548601,33.4423563 C57.1548601,34.2953159 57.2848031,34.4607989 58.4243038,34.4607989 C58.5475831,34.4607989 58.6864111,34.4541352 58.8341242,34.4430289 L59.1028953,35.7791101 C58.6819686,35.8346413 58.2510463,35.8624069 57.8190135,35.8624069 L57.8190135,35.8624069 Z M71.5063487,35.7757782 C72.0916477,35.8102076 73.3999633,35.8590751 74.2207147,35.8590751 C74.370649,35.8590751 74.5261364,35.8579644 74.6816238,35.8501901 C76.2953611,35.8501901 77.2205112,34.6751494 77.2205112,33.2957539 C77.2205112,32.3572763 76.7906996,31.734216 75.7833633,31.3632674 C76.9683995,31.1011601 77.5892385,30.17601 77.5892385,29.0442837 C77.5892385,28.2135366 77.3548968,27.5538257 76.9250852,27.1040228 C76.3675517,26.5553744 75.5234771,26.2477314 74.3995252,26.2477314 C73.3999633,26.2477314 72.1449577,26.2788289 71.5063487,26.3165901 L71.5063487,35.7757782 L71.5063487,35.7757782 Z M74.2207147,34.2520015 C73.9363949,34.2520015 73.5843269,34.2464484 73.2355909,34.2342315 L73.2355909,32.0007659 L74.2218253,32.0007659 C74.6127651,32.0007659 74.9270718,32.109607 75.1414224,32.3195151 C75.3457772,32.5172062 75.4523972,32.7970836 75.4523972,33.1291603 C75.4523972,33.8432917 75.0658999,34.247559 74.3473259,34.2520015 L74.2207147,34.2520015 L74.2207147,34.2520015 Z M74.2562547,27.8514731 L74.3306665,27.8514731 C75.2269404,27.8514731 75.7755889,28.3279309 75.7822526,29.2875104 C75.7733676,29.631804 75.6412033,29.9494426 75.4046403,30.1793418 C75.1458648,30.4392279 74.7793588,30.5747241 74.3495471,30.5747241 L73.2355909,30.5747241 L73.2355909,27.8614687 C73.5498976,27.8548049 73.8964124,27.8536943 74.2562547,27.8514731 L74.2562547,27.8514731 Z" transform="matrix(1 0 0 -1 0 61.034)"/></svg>
