<svg xmlns="http://www.w3.org/2000/svg" viewBox="0 0 110 62"><path fill="#FFFFFF" stroke-width="4" d="M1.96734281,2.03022022 C1.96703951,2.03038836 1.96670969,2.03056781 1.96635201,2.0307591 C1.96667477,2.03058649 1.96699897,2.03041029 1.96732454,2.03023058 Z M2.03019948,1.96738082 C2.03038998,1.96703632 2.03057655,1.96669336 2.0307591,1.96635201 C2.03053652,1.96676821 2.03032996,1.96714667 2.03013861,1.96748954 Z M2.02239632,2.02239632 C2.00903379,2.12949995 2,2.30397342 2,2.5638852 L2,59.4361148 C2,59.6960266 2.00903379,59.8705 2.02239632,59.9776037 C2.12949995,59.9909662 2.30397342,60 2.5638852,60 L107.436115,60 C107.696027,60 107.8705,59.9909662 107.977604,59.9776037 C107.990966,59.8705 108,59.6960266 108,59.4361148 L108,2.5638852 C108,2.30397342 107.990966,2.12949995 107.977604,2.02239632 C107.8705,2.00903379 107.696027,2 107.436115,2 L2.5638852,2 C2.30397342,2 2.12949995,2.00903379 2.02239632,2.02239632 Z M2.03022022,60.0326572 C2.03038836,60.0329605 2.03056781,60.0332903 2.0307591,60.033648 C2.03058649,60.0333252 2.03041029,60.033001 2.03023058,60.0326755 Z M1.96738082,59.9698005 C1.96703632,59.96961 1.96669336,59.9694235 1.96635201,59.9692409 C1.96676821,59.9694635 1.96714667,59.96967 1.96748954,59.9698614 Z M108.032657,59.9697798 C108.03296,59.9696116 108.03329,59.9694322 108.033648,59.9692409 C108.033325,59.9694135 108.033001,59.9695897 108.032675,59.9697694 Z M107.969801,60.0326192 C107.96961,60.0329637 107.969423,60.0333066 107.969241,60.033648 C107.969463,60.0332318 107.96967,60.0328533 107.969861,60.0325105 Z M107.96978,1.96734281 C107.969612,1.96703951 107.969432,1.96670969 107.969241,1.96635201 C107.969414,1.96667477 107.96959,1.96699897 107.969769,1.96732454 Z M108.032619,2.03019948 C108.032964,2.03038998 108.033307,2.03057655 108.033648,2.0307591 C108.033232,2.03053652 108.032853,2.03032996 108.03251,2.03013861 Z"/><path fill="#000" fill-rule="nonzero" d="M36.9657672,24.4002835 C36.3457782,25.1339371 35.3537958,25.7125935 34.3618135,25.6299283 C34.2378157,24.637946 34.7234737,23.5839647 35.2917969,22.9329763 C35.9117859,22.1786564 36.9967666,21.6413326 37.8750843,21.6 C37.9784158,22.633315 37.575423,23.6459636 36.9657672,24.4002835 L36.9657672,24.4002835 Z M37.8647512,25.8262582 C36.4284434,25.743593 35.1987986,26.642577 34.5168107,26.642577 C33.8244897,26.642577 32.7808416,25.8675908 31.6441952,25.8882571 C30.1665548,25.9089234 28.7922459,26.7459085 28.037926,28.0788848 C26.4879535,30.7448373 27.6349331,34.6921005 29.1332398,36.8620619 C29.8668934,37.9367094 30.7452111,39.1146885 31.9025239,39.0733559 C32.9978377,39.0320233 33.43183,38.3603685 34.7544732,38.3603685 C36.0874495,38.3603685 36.469776,39.0733559 37.6270887,39.0526896 C38.8257341,39.0320233 39.580054,37.978042 40.3137076,36.9033945 C41.1506927,35.6840828 41.4916867,34.4957706 41.512353,34.4337717 C41.4916867,34.4131054 39.1977275,33.5347877 39.1770612,30.8895014 C39.1563949,28.6782074 40.9853623,27.6242262 41.0680275,27.5622273 C40.0347126,26.0329211 38.4227412,25.8675908 37.8647512,25.8262582 L37.8647512,25.8262582 Z M46.1622702,22.8296448 L46.1622702,38.9390249 L48.6628924,38.9390249 L48.6628924,33.4314562 L52.1244975,33.4314562 C55.2864413,33.4314562 57.5080684,31.2614948 57.5080684,28.1202174 C57.5080684,24.9789399 55.3277739,22.8296448 52.2071627,22.8296448 L46.1622702,22.8296448 Z M48.6628924,24.9376073 L51.5458411,24.9376073 C53.7158026,24.9376073 54.9557805,26.09492 54.9557805,28.1305505 C54.9557805,30.166181 53.7158026,31.3338269 51.535508,31.3338269 L48.6628924,31.3338269 L48.6628924,24.9376073 L48.6628924,24.9376073 Z M62.0753205,39.0630227 C63.6459592,39.0630227 65.1029333,38.2673702 65.7642549,37.0067259 L65.8159207,37.0067259 L65.8159207,38.9390249 L68.1305461,38.9390249 L68.1305461,30.9205009 C68.1305461,28.5955422 66.2705792,27.0972356 63.4082968,27.0972356 C60.7526774,27.0972356 58.789379,28.6162085 58.7170469,30.7035047 L60.9696735,30.7035047 C61.1556702,29.7115224 62.0753205,29.060534 63.3359648,29.060534 C64.8652709,29.060534 65.7229223,29.7735213 65.7229223,31.0858313 L65.7229223,31.9744821 L62.6023111,32.1604788 C59.6986961,32.3361424 58.1280574,33.5244546 58.1280574,35.5910845 C58.1280574,37.6783807 59.7503619,39.0630227 62.0753205,39.0630227 Z M62.7469752,37.15139 C61.413999,37.15139 60.5666807,36.5107348 60.5666807,35.5290856 C60.5666807,34.5164369 61.3829995,33.9274474 62.9433051,33.834449 L65.7229223,33.6587855 L65.7229223,34.5681027 C65.7229223,36.0767425 64.4416118,37.15139 62.7469752,37.15139 Z M71.2201579,43.3202803 C73.6587811,43.3202803 74.8057607,42.3902969 75.8080762,39.569347 L80.1996648,27.2522328 L77.65771,27.2522328 L74.7127624,36.7690635 L74.6610966,36.7690635 L71.716149,27.2522328 L69.1018622,27.2522328 L73.3384535,38.9803575 L73.1111242,39.6933448 C72.7287977,40.9023233 72.1088087,41.3673151 71.0031617,41.3673151 C70.8068319,41.3673151 70.4245053,41.3466488 70.2695081,41.3259825 L70.2695081,43.2582814 C70.4141722,43.299614 71.0341612,43.3202803 71.2201579,43.3202803 Z"/></svg>