<svg xmlns="http://www.w3.org/2000/svg" width="110" height="62" viewBox="0 0 110 62"><path fill="#FFFFFF" d="M2.5638852,-1.03584031e-16 L107.436115,1.03584031e-16 C108.327634,-6.01853049e-17 108.65092,0.0928256111 108.976846,0.267132704 C109.302772,0.441439796 109.55856,0.697228371 109.732867,1.0231543 C109.907174,1.34908022 110,1.67236646 110,2.5638852 L110,59.4361148 C110,60.3276335 109.907174,60.6509198 109.732867,60.9768457 C109.55856,61.3027716 109.302772,61.5585602 108.976846,61.7328673 C108.65092,61.9071744 108.327634,62 107.436115,62 L2.5638852,62 C1.67236646,62 1.34908022,61.9071744 1.0231543,61.7328673 C0.697228371,61.5585602 0.441439796,61.3027716 0.267132704,60.9768457 C0.0928256111,60.6509198 4.01235366e-17,60.3276335 -6.90560205e-17,59.4361148 L6.90560205e-17,2.5638852 C-4.01235366e-17,1.67236646 0.0928256111,1.34908022 0.267132704,1.0231543 C0.441439796,0.697228371 0.697228371,0.441439796 1.0231543,0.267132704 C1.34908022,0.0928256111 1.67236646,6.01853049e-17 2.5638852,-1.03584031e-16 Z"/><path fill="#E9B529" d="M69.6068557,28.5030027 L59,28.5030027 C57.8954305,28.5030027 57,29.3984332 57,30.5030027 L57,36.5030027 C57,37.6075722 57.8954305,38.5030027 59,38.5030027 L69.6068557,38.5030027 L69.6068557,41.6333588 C69.6068557,43.1640101 68.289582,44.4090015 66.6693005,44.4090015 L43.700857,44.4090015 C41.6567118,44.4090015 40,42.7522897 40,40.7081445 L40,23.5030027 L68.2694721,23.5030027 C69.0741044,23.9986206 69.6068557,24.8565104 69.6068557,25.8299309 L69.6068557,28.5030027 Z M69.6068557,30.5444142 L69.6068557,36.4615913 L59.0747899,36.4615913 L59.0747899,30.5444142 L69.6068557,30.5444142 Z M64.0555703,35.0820733 C65.0773538,35.0820733 65.9059988,34.2534283 65.9059988,33.2316448 C65.9059988,32.2098614 65.0773538,31.3812163 64.0555703,31.3812163 C63.0337868,31.3812163 62.2051418,32.2098614 62.2051418,33.2316448 C62.2051418,34.2534283 63.0337868,35.0820733 64.0555703,35.0820733 Z M66.1541527,21.4637627 L43.6886596,21.4637627 L43.3276277,20.1163733 L64.2882181,14.5 L66.1541527,21.4637627 Z"/></svg>
