<svg xmlns="http://www.w3.org/2000/svg" viewBox="0 0 110 62"><path fill="#FFFFFF" d="M2.5638852,-1.03584031e-16 L107.436115,1.03584031e-16 C108.327634,-6.01853049e-17 108.65092,0.0928256111 108.976846,0.267132704 C109.302772,0.441439796 109.55856,0.697228371 109.732867,1.0231543 C109.907174,1.34908022 110,1.67236646 110,2.5638852 L110,59.4361148 C110,60.3276335 109.907174,60.6509198 109.732867,60.9768457 C109.55856,61.3027716 109.302772,61.5585602 108.976846,61.7328673 C108.65092,61.9071744 108.327634,62 107.436115,62 L2.5638852,62 C1.67236646,62 1.34908022,61.9071744 1.0231543,61.7328673 C0.697228371,61.5585602 0.441439796,61.3027716 0.267132704,60.9768457 C0.0928256111,60.6509198 4.01235366e-17,60.3276335 -6.90560205e-17,59.4361148 L6.90560205e-17,2.5638852 C-4.01235366e-17,1.67236646 0.0928256111,1.34908022 0.267132704,1.0231543 C0.441439796,0.697228371 0.697228371,0.441439796 1.0231543,0.267132704 C1.34908022,0.0928256111 1.67236646,6.01853049e-17 2.5638852,-1.03584031e-16 Z"/><g fill-rule="nonzero" transform="translate(27.648 19.596)"><path fill="#243F92" d="M13.0370429,25.1668181 L13.0370429,12.6162811 L15.0685337,12.6162811 L15.0685337,13.5366976 C15.3512331,13.0896381 15.8969086,12.7674923 16.3242448,12.6228555 C16.7515811,12.4782186 17.1986406,12.4059001 17.6522744,12.4059001 C18.7764975,12.4059001 19.9796134,12.7806411 20.9591996,13.7930993 C21.8598929,14.7266647 22.3398244,15.8574622 22.3398244,17.1986406 C22.3398244,17.8100601 22.2214851,18.4214797 21.9848066,19.0000272 C21.7547025,19.5851492 21.4325567,20.0979527 21.0117948,20.5252889 C20.5713098,20.9854972 20.0650807,21.340515 19.5062563,21.5706191 C18.9540064,21.8072977 18.4346285,21.925637 17.7508905,21.925637 C17.2578102,21.925637 16.7778787,21.8467441 16.3242448,21.6955328 C15.8837598,21.5508959 15.2591914,21.1958781 15.0356617,20.8145627 L15.0356617,25.1602437 L13.0370429,25.1602437 L13.0370429,25.1668181 Z M17.5931048,14.194138 C16.8501972,14.194138 16.2059056,14.4242421 15.6733789,14.9633432 C15.1277033,15.528742 14.9238968,16.3308192 14.9238968,17.1263221 C14.9238968,17.9809946 15.1277033,18.8093695 15.6602301,19.3747682 C16.1927568,19.940167 16.8501972,20.1373991 17.612828,20.1373991 C18.3886077,20.1373991 19.0197504,19.8218277 19.4931075,19.3418962 C20.0453574,18.7896463 20.3017592,18.0335899 20.3017592,17.2183638 C20.3017592,16.3308192 20.038783,15.5418908 19.5062563,14.9830665 C19.0460481,14.503135 18.3886077,14.194138 17.5931048,14.194138 L17.5931048,14.194138 Z"/><polygon fill="#263D93" points="36.284 25.167 38 21.209 34.062 12.616 36.205 12.616 39.006 19.066 41.59 12.616 43.746 12.616 38.395 25.167"/><path fill="#263D93" d="M30.8339542,21.7612769 L30.8339542,20.8145627 C30.6104245,21.2024525 29.9858561,21.5574703 29.5453711,21.6955328 C29.0917372,21.8467441 28.6118057,21.925637 28.1187254,21.925637 C27.4415618,21.925637 26.9221839,21.8072977 26.3633596,21.5706191 C25.8111096,21.3339406 25.3048805,20.9854972 24.8578211,20.5252889 C24.4370592,20.0979527 24.108339,19.5851492 23.8848093,19.0000272 C23.6481308,18.4149053 23.5297915,17.8100601 23.5297915,17.1986406 C23.5297915,15.8574622 24.009723,14.7266647 24.9104163,13.7930993 C25.8834281,12.7872156 27.086544,12.4059001 28.2173415,12.4059001 C28.6709753,12.4059001 29.1180348,12.4782186 29.5453711,12.6228555 C29.9727073,12.7674923 30.5249572,13.0830637 30.8010822,13.5366976 L30.8010822,12.6162811 L32.832573,12.6162811 L32.832573,21.7612769 L30.8339542,21.7612769 Z M26.369934,14.9830665 C25.8374073,15.5418908 25.5744311,16.3308192 25.5744311,17.2183638 C25.5744311,18.0270154 25.8374073,18.7830719 26.3830828,19.3418962 C26.8630143,19.8218277 27.4875826,20.1373991 28.2633623,20.1373991 C29.0259931,20.1373991 29.6834335,19.940167 30.2159602,19.3747682 C30.748487,18.8093695 30.9522935,17.9809946 30.9522935,17.1263221 C30.9522935,16.3242448 30.7419126,15.5221676 30.2028114,14.9633432 C29.6702847,14.4242421 29.0259931,14.194138 28.2830855,14.194138 C27.4875826,14.194138 26.8235678,14.503135 26.369934,14.9830665 L26.369934,14.9830665 Z"/><polygon fill="#263D93" points="45.784 6.732 45.679 .651 47.612 .651 47.612 8.317 44.831 8.317 42.911 2.025 42.865 2.025 42.97 8.317 41.057 8.317 41.057 .651 43.95 .651 45.745 6.732"/><polygon fill="#263D93" points="10.716 1.367 9.645 8.396 7.541 8.396 8.987 .651 12.458 .651 13.898 8.396 11.801 8.396 10.762 1.367"/><polygon fill="#263D93" points="19.802 6.574 20.762 .651 23.944 .651 24.115 8.396 22.162 8.396 22.11 1.427 22.07 1.427 20.769 8.396 18.796 8.396 17.488 1.427 17.442 1.427 17.396 8.396 15.45 8.396 15.627 .651 18.803 .651 19.763 6.574"/><path fill="#263D93" d="M36.1460726 7.23184427C36.6917481 7.23184427 36.8561082 6.86367765 36.8955546 6.67301994 36.9087034 6.58755269 36.9152778 6.47578783 36.9152778 6.37717177L36.9152778.650865984 38.8941734.650865984 38.8941734 6.19966286C38.8941734 6.34429975 38.8810246 6.63357352 38.8678758 6.71246637 38.7363877 8.15883522 37.5792926 8.61904349 36.1460726 8.61904349 34.7128525 8.61904349 33.5623318 8.15226082 33.4308437 6.71246637 33.4242693 6.63357352 33.4111205 6.34429975 33.4111205 6.19966286L33.4111205.650865984 35.3834417.650865984 35.3834417 6.37717177C35.3768673 6.47578783 35.3900161 6.58755269 35.3965905 6.67301994 35.4360369 6.86367765 35.600397 7.23184427 36.1460726 7.23184427M4.26021372 6.20623727C4.33253216 6.39689498 4.31280895 6.63357352 4.27993693 6.7782104 4.21419289 7.03461216 4.04325839 7.29758831 3.51730608 7.29758831 3.03080019 7.29758831 2.73495202 7.01488894 2.73495202 6.5941271L2.72837761 5.84464505.637717177 5.84464505.637717177 6.44291581C.637717177 8.17198403 2.00519318 8.69136193 3.46471085 8.69136193 4.87820768 8.69136193 6.03530277 8.21800485 6.21938607 6.92284729 6.31800213 6.25225809 6.24568369 5.81177303 6.21281167 5.64741294 5.88409148 4.02353518 2.92560973 3.54360369 2.70208 2.63633596 2.66263357 2.47855026 2.66920798 2.31419017 2.69550559 2.22872292 2.75467523 1.97889557 2.92560973 1.70277061 3.40554121 1.70277061 3.86574948 1.70277061 4.12872564 1.98546997 4.12872564 2.39965742L4.12872564 2.8861633 6.07474919 2.8861633 6.07474919 2.34048778C6.07474919.650865984 4.54948749.387889829 3.44498763.387889829 2.06436282.387889829.933565351.848098101.723184427 2.11038365.670589196 2.45225265.664014792 2.76124963.742907639 3.14913946 1.09135104 4.75329401 3.86574948 5.20692788 4.26021372 6.20623727M29.5979663 6.19966286C29.6768591 6.38374617 29.6439871 6.62042471 29.6176895 6.7650616 29.5585199 7.02146335 29.3744366 7.2778651 28.8682075 7.2778651 28.3817016 7.2778651 28.0924278 7.00831454 28.0924278 6.58755269L28.0924278 5.84464505 26.0214906 5.84464505 26.0214906 6.4363414C26.0214906 8.15226082 27.3758178 8.65848991 28.828761 8.65848991 30.2225347 8.65848991 31.3664809 8.18513284 31.5571386 6.90969848 31.6491803 6.25225809 31.5834363 5.81177303 31.5439898 5.64741294 31.221844 4.04325839 28.2896599 3.56990131 28.079279 2.66920798 28.0398326 2.51799669 28.0529814 2.35363659 28.0661302 2.26816934 28.1187254 2.0249164 28.2896599 1.75536584 28.7695914 1.75536584 29.2297997 1.75536584 29.4862014 2.0314908 29.4862014 2.44567824L29.4862014 2.92560973 31.4059274 2.92560973 31.4059274 2.39308301C31.4059274.723184427 29.9003889.460208272 28.8090378.460208272 27.4349874.460208272 26.3107643.907267736 26.1135322 2.16297888 26.0543626 2.49827348 26.0477882 2.80727046 26.1332554 3.19516029 26.4619756 4.75329401 29.2035021 5.20035347 29.5979663 6.19966286M52.397999 7.15295143C52.9568233 7.15295143 53.1540554 6.80450802 53.1935018 6.58755269 53.2066506 6.50208544 53.213225 6.39689498 53.213225 6.29170452L53.213225 5.17405586 52.4177222 5.17405586 52.4177222 4.03668398 55.1723974 4.03668398 55.1723974 6.12077002C55.1723974 6.2654069 55.165823 6.37059736 55.1460998 6.62699911 55.0146117 8.03392155 53.7851982 8.54015064 52.397999 8.54015064 51.0173741 8.54015064 49.794535 8.03392155 49.6630469 6.62699911 49.6367493 6.37059736 49.6367493 6.2654069 49.6367493 6.12077002L49.6367493 2.86644009C49.6367493 2.72837761 49.6498981 2.47855026 49.6696213 2.36021099 49.8405558.907267736 51.0173741.447059464 52.397999.447059464 53.7786238.447059464 54.9948885.900693332 55.132951 2.36021099 55.1592486 2.60346394 55.1526742 2.86644009 55.1526742 2.86644009L55.1526742 3.12284184 53.1869274 3.12284184 53.1869274 2.68893119C53.1869274 2.68893119 53.1869274 2.50484788 53.1606298 2.39308301 53.1277578 2.22214851 52.9765465 1.83425868 52.3782757 1.83425868 51.8194514 1.83425868 51.6485169 2.2089997 51.6024961 2.39308301 51.5761985 2.49169907 51.5696241 2.63633596 51.5696241 2.76124963L51.5696241 6.30485332C51.5696241 6.40346938 51.5761985 6.51523425 51.5827729 6.6007015 51.6353681 6.80450802 51.8326002 7.15295143 52.397999 7.15295143"/></g></svg>