<svg width="12" height="14" viewBox="0 0 12 14" fill="none" xmlns="http://www.w3.org/2000/svg">
<path fill-rule="evenodd" clip-rule="evenodd" d="M1.41699 0.166626C0.864707 0.166626 0.416992 0.614341 0.416992 1.16663V12.9166C0.416992 13.4689 0.864707 13.9166 1.41699 13.9166H10.4378C10.9901 13.9166 11.4378 13.4689 11.4378 12.9166V4.81529C11.4378 4.3131 11.2489 3.82929 10.9086 3.45999L8.46783 0.811322C8.08917 0.400397 7.55586 0.166626 6.99707 0.166626H1.41699ZM2.99431 3.81717C2.59449 3.81717 2.27037 4.14129 2.27037 4.54111C2.27037 4.94094 2.59449 5.26506 2.99431 5.26506H8.32722C8.72705 5.26506 9.05117 4.94094 9.05117 4.54111C9.05117 4.14129 8.72705 3.81717 8.32722 3.81717H2.99431ZM2.99431 6.56717C2.59449 6.56717 2.27037 6.89129 2.27037 7.29111C2.27037 7.69094 2.59449 8.01506 2.99431 8.01506H8.32722C8.72705 8.01506 9.05117 7.69094 9.05117 7.29111C9.05117 6.89129 8.72705 6.56717 8.32722 6.56717H2.99431ZM2.27037 10.0043C2.27037 9.60443 2.59449 9.28031 2.99431 9.28031H6.76513C7.16495 9.28031 7.48908 9.60443 7.48908 10.0043C7.48908 10.4041 7.16495 10.7282 6.76513 10.7282H2.99431C2.59449 10.7282 2.27037 10.4041 2.27037 10.0043Z" fill="#959CA4"/>
</svg>
