<svg width="22" height="22" viewBox="0 0 22 22" fill="none" xmlns="http://www.w3.org/2000/svg">
<g clip-path="url(#clip0_1087_125623)">
<path d="M19.2717 4.23645C19.7828 4.90609 20.2154 5.6336 20.5609 6.40436L10.7608 13.7258L6.66504 11.1238V7.99348L10.7608 10.5955L19.2717 4.23645Z" fill="#21A038"/>
<path d="M2.48551 10.903C2.48551 10.7625 2.48889 10.623 2.49565 10.4842L0.0135181 10.361C0.00506976 10.5408 2.99954e-06 10.7223 2.99954e-06 10.9055C-0.00105308 12.337 0.276769 13.7545 0.81754 15.0768C1.35831 16.3992 2.15137 17.6004 3.15125 18.6114L4.91189 16.8279C4.14222 16.051 3.53164 15.1276 3.11524 14.1108C2.69884 13.094 2.48483 12.0038 2.48551 10.903Z" fill="url(#paint0_linear_1087_125623)"/>
<path d="M10.7592 2.51848C10.8977 2.51848 11.0354 2.52362 11.1722 2.53046L11.2964 0.0140714C11.1185 0.0055093 10.9394 0.00122879 10.7592 0.00122879C9.34603 -0.000517664 7.94656 0.280637 6.641 0.82855C5.33543 1.37646 4.14953 2.18034 3.15137 3.19403L4.91201 4.97836C5.6786 4.19808 6.58983 3.57906 7.59329 3.15691C8.59676 2.73476 9.67263 2.51778 10.7592 2.51848Z" fill="url(#paint1_linear_1087_125623)"/>
<path d="M10.7588 19.288C10.6203 19.288 10.4826 19.288 10.3449 19.2768L10.2207 21.7924C10.3992 21.8015 10.5786 21.8061 10.7588 21.8061C12.1714 21.8076 13.5702 21.5262 14.875 20.9782C16.1799 20.4301 17.365 19.6261 18.3624 18.6124L16.6052 16.829C15.8384 17.6088 14.9273 18.2275 13.924 18.6495C12.9208 19.0715 11.8451 19.2885 10.7588 19.288Z" fill="url(#paint2_linear_1087_125623)"/>
<path d="M15.4228 3.98138L17.5146 2.4188C15.6027 0.849767 13.2161 -0.00435547 10.7559 1.67024e-05V2.51812C12.4218 2.51603 14.0491 3.02625 15.4228 3.98138Z" fill="url(#paint3_linear_1087_125623)"/>
<path d="M21.5178 10.903C21.5191 10.2479 21.4626 9.59396 21.3488 8.9491L19.0331 10.6786C19.0331 10.7532 19.0331 10.8276 19.0331 10.903C19.0337 12.0745 18.7914 13.2331 18.3219 14.3036C17.8524 15.3742 17.1661 16.3328 16.3076 17.1173L17.9779 18.9882C19.094 17.967 19.9858 16.7196 20.5956 15.3268C21.2055 13.934 21.5196 12.4268 21.5178 10.903Z" fill="#21A038"/>
<path d="M10.7591 19.2879C9.603 19.2883 8.45973 19.0426 7.40326 18.5668C6.34685 18.091 5.40079 17.3956 4.62637 16.5258L2.78125 18.2176C3.78868 19.3489 5.01948 20.2529 6.39384 20.8711C7.7682 21.4892 9.2554 21.8078 10.7591 21.806V19.2879Z" fill="url(#paint4_linear_1087_125623)"/>
<path d="M5.21097 4.68868L3.54157 2.81787C2.42517 3.83879 1.53299 5.08612 0.922867 6.47898C0.312755 7.87182 -0.00166338 9.37908 6.61774e-06 10.903H2.48552C2.48501 9.73155 2.72736 8.57295 3.19686 7.50242C3.66637 6.43192 4.35255 5.47329 5.21097 4.68868Z" fill="url(#paint5_linear_1087_125623)"/>
</g>
<defs>
<linearGradient id="paint0_linear_1087_125623" x1="3.65393" y1="18.2972" x2="0.873094" y2="10.3651" gradientUnits="userSpaceOnUse">
<stop offset="0.14" stop-color="#F1E813"/>
<stop offset="0.3" stop-color="#E6E418"/>
<stop offset="0.58" stop-color="#C9DA26"/>
<stop offset="0.89" stop-color="#A2CC39"/>
</linearGradient>
<linearGradient id="paint1_linear_1087_125623" x1="3.86103" y1="3.63926" x2="10.8789" y2="1.00036" gradientUnits="userSpaceOnUse">
<stop offset="0.06" stop-color="#0FA7DF"/>
<stop offset="0.54" stop-color="#0098F8"/>
<stop offset="0.92" stop-color="#0290EA"/>
</linearGradient>
<linearGradient id="paint2_linear_1087_125623" x1="10.0568" y1="20.2863" x2="17.9763" y2="18.521" gradientUnits="userSpaceOnUse">
<stop offset="0.12" stop-color="#A2CC39"/>
<stop offset="0.28" stop-color="#86C239"/>
<stop offset="0.87" stop-color="#219F38"/>
</linearGradient>
<linearGradient id="paint3_linear_1087_125623" x1="10.2389" y1="0.84338" x2="17.0165" y2="2.90715" gradientUnits="userSpaceOnUse">
<stop offset="0.06" stop-color="#0290EA"/>
<stop offset="0.79" stop-color="#0C89CA"/>
</linearGradient>
<linearGradient id="paint4_linear_1087_125623" x1="3.40474" y1="17.9111" x2="10.7889" y2="20.6342" gradientUnits="userSpaceOnUse">
<stop offset="0.13" stop-color="#F1E813"/>
<stop offset="0.3" stop-color="#EAE616"/>
<stop offset="0.53" stop-color="#D8DF1F"/>
<stop offset="0.8" stop-color="#BAD52D"/>
<stop offset="0.98" stop-color="#A2CC39"/>
</linearGradient>
<linearGradient id="paint5_linear_1087_125623" x1="0.925947" y1="11.2078" x2="3.94985" y2="3.44601" gradientUnits="userSpaceOnUse">
<stop offset="0.07" stop-color="#A2CC39"/>
<stop offset="0.26" stop-color="#81C45E"/>
<stop offset="0.92" stop-color="#0FA7DF"/>
</linearGradient>
<clipPath id="clip0_1087_125623">
<rect width="22" height="22" fill="white"/>
</clipPath>
</defs>
</svg>
