<svg width="17" height="13" viewBox="0 0 17 13" fill="none" xmlns="http://www.w3.org/2000/svg">
<path d="M2.55892 0.052002C1.5464 0.052002 0.725586 0.872813 0.725586 1.88534V6.46867C0.725586 7.48119 1.5464 8.302 2.55892 8.302H2.795V9.72418C2.795 10.2142 3.38742 10.4596 3.7339 10.1131L4.83996 9.00704V5.51723C4.83996 3.99845 6.07117 2.76723 7.58996 2.76723H11.7256V1.88534C11.7256 0.872813 10.9048 0.052002 9.89225 0.052002H2.55892Z" fill="#959CA4"/>
<path d="M6.21434 5.81046C6.21434 4.79794 7.03515 3.97712 8.04767 3.97712H14.2203C15.2328 3.97712 16.0537 4.79794 16.0537 5.81046V9.42151C16.0537 10.4328 15.2348 11.2528 14.224 11.2548V12.4339C14.224 12.9542 13.5686 13.1836 13.2441 12.777L12.0293 11.2548H8.04767C7.03515 11.2548 6.21434 10.434 6.21434 9.42151V5.81046Z" fill="#959CA4"/>
</svg>
