<svg width="87" height="19" viewBox="0 0 87 19" fill="none" xmlns="http://www.w3.org/2000/svg">
<path d="M10.6639 1.4502C9.80864 1.4502 9.17192 2.07037 9.17192 2.83074C9.17192 3.62811 9.80864 4.24731 10.6639 4.24731C11.501 4.24731 12.1377 3.61058 12.1377 2.83074C12.1377 2.03435 11.501 1.4502 10.6639 1.4502Z" fill="#0A0A0A"/>
<path d="M11.8831 13.7904H9.427V5.41561H11.8831V13.7904Z" fill="#0A0A0A"/>
<path fill-rule="evenodd" clip-rule="evenodd" d="M7.676 2.14826H0V13.8079H3.27953C6.86038 13.8079 8.11898 12.2327 8.11898 10.1453C8.11898 8.65863 7.49857 7.70257 6.47046 7.17294C5.60202 6.71243 4.48483 6.55374 3.22647 6.55374H2.42861V4.11198H7.07311L7.676 2.14826ZM5.69037 10.1803C5.69037 11.2941 4.99912 11.8257 3.33259 11.8257H2.42861V8.51746H3.22647C3.95301 8.51746 4.59144 8.58756 5.03442 8.85335C5.44211 9.10064 5.69037 9.54362 5.69037 10.1803Z" fill="#0A0A0A"/>
<path fill-rule="evenodd" clip-rule="evenodd" d="M23.5501 5.40588C24.1447 5.29392 24.79 5.22674 25.472 5.22674C28.5918 5.22674 30.1695 6.97822 30.1695 9.61372C30.1695 12.1265 28.4677 13.9841 25.7555 13.9841C25.3478 13.9841 24.9396 13.9306 24.55 13.8245V18.0002H22.1566V5.77487C22.5794 5.6298 23.0465 5.50129 23.5501 5.40588ZM25.5781 12.0214C27.0139 12.0214 27.7229 11.0829 27.7229 9.61372C27.7229 7.98686 26.8367 7.19046 25.3653 7.19046C25.0638 7.19046 24.8158 7.20799 24.55 7.29756V11.8432C24.8688 11.9494 25.1704 12.0214 25.5781 12.0214Z" fill="#0A0A0A"/>
<path d="M16.023 7.42023H13.5234V5.43898H21.4296L20.8092 7.42023H18.4159V13.8079H16.023V7.42023Z" fill="#0A0A0A"/>
<path d="M42.2211 5.43898H44.6144V8.64111H45.5006C46.1222 8.64111 46.3478 7.99854 46.6029 7.27419C46.6587 7.11452 46.7159 6.95193 46.7791 6.79032C46.8147 6.69977 46.8522 6.60923 46.8923 6.52063L46.9661 6.36681C47.0401 6.2198 47.1235 6.08057 47.2202 5.95206C47.2472 5.91409 47.2757 5.87709 47.3054 5.84204C47.3562 5.78168 47.411 5.72424 47.4701 5.67167L47.56 5.59767C47.6094 5.5597 47.6612 5.52466 47.7157 5.49253C47.9976 5.32312 48.3522 5.22674 48.7979 5.22674C48.914 5.22674 49.0727 5.23453 49.236 5.25205C49.3414 5.26276 49.4487 5.27834 49.5478 5.29781C49.6235 5.31339 49.6941 5.33091 49.7552 5.35136V7.38518C49.7128 7.3696 49.6673 7.355 49.6196 7.34331C49.5071 7.31411 49.383 7.29756 49.2586 7.29756C49.1428 7.29756 49.0437 7.31411 48.9568 7.34721C48.9181 7.36279 48.8818 7.38128 48.8478 7.4027C48.783 7.44359 48.7261 7.49617 48.6737 7.5614C48.6207 7.6276 48.573 7.70257 48.5292 7.78338C48.469 7.89534 48.416 8.01801 48.3656 8.14555L48.2678 8.40452C48.0981 8.86016 47.9236 9.33138 47.557 9.56212V9.59717C47.7459 9.67019 47.9119 9.77533 48.0606 9.91748C48.2325 10.084 48.3809 10.302 48.5143 10.5883L50.0212 13.8079H47.4329L46.4401 11.189C46.2276 10.6759 46.0146 10.4461 45.7844 10.4461H44.6144V13.8079H42.2211V5.43898Z" fill="#0A0A0A"/>
<path d="M50.4099 9.66727C50.4099 7.01327 52.4663 5.22674 54.9305 5.22674C55.4024 5.22674 55.807 5.28223 56.1504 5.36693C56.6326 5.48571 56.994 5.6629 57.2527 5.82841V7.82719C56.948 7.5945 56.6343 7.41633 56.2933 7.29658C55.9596 7.17975 55.5996 7.11939 55.1965 7.11939C53.7249 7.11939 52.856 8.23415 52.856 9.64974C52.856 11.224 53.743 12.073 55.0902 12.073C55.5624 12.073 55.9632 11.9883 56.3517 11.8354C56.5756 11.7478 56.7954 11.6378 57.0222 11.5083L57.6957 13.1352C57.0045 13.6307 55.9233 13.9841 54.7533 13.9841C51.9701 13.9841 50.4099 12.1265 50.4099 9.66727Z" fill="#0A0A0A"/>
<path fill-rule="evenodd" clip-rule="evenodd" d="M34.217 13.843H31.2546V5.41853H33.3838V8.42692C33.7078 8.38116 34.0317 8.38116 34.3094 8.38116C36.9941 8.38116 37.92 9.63027 37.92 11.0653C37.92 12.5929 36.9941 13.843 34.217 13.843ZM33.3838 10.047V12.1762H34.217C35.6055 12.1762 35.837 11.667 35.837 11.0653C35.837 10.4637 35.513 10.0012 34.217 10.0012C33.9392 10.0012 33.6615 10.047 33.3838 10.047Z" fill="#0A0A0A"/>
<path d="M41.1138 13.843H38.9846V5.41853H41.1138V13.843Z" fill="#0A0A0A"/>
<path d="M80.7977 4.86926H83.2318V3.89576H81.7713V2.19156H80.7977V4.86926Z" fill="#0A0A0A"/>
<path fill-rule="evenodd" clip-rule="evenodd" d="M81.2862 0C78.8663 0 76.9046 1.96121 76.9046 4.38057C76.9046 6.79993 78.8663 8.76126 81.2862 8.76126C83.7061 8.76126 85.6678 6.79993 85.6678 4.38057C85.6678 1.96121 83.7061 0 81.2862 0ZM81.2862 7.78775C79.4041 7.78775 77.8784 6.26226 77.8784 4.38057C77.8784 2.49887 79.4041 0.973506 81.2862 0.973506C83.1685 0.973506 84.6942 2.49887 84.6942 4.38057C84.6942 6.26226 83.1685 7.78775 81.2862 7.78775Z" fill="#0A0A0A"/>
<path d="M64.4151 5.56375C64.4151 4.57092 63.5938 4.22259 62.7198 4.22259C61.5489 4.22259 60.5876 4.60572 59.6962 5.00641L59.0844 3.17761C60.0807 2.72468 61.4615 2.21959 63.1044 2.21959C65.6736 2.21959 66.9145 3.50849 66.9145 5.31982C66.9145 7.11416 65.5147 8.17742 64.1664 9.20141C63.1328 9.98648 62.1295 10.7486 61.8109 11.7993H67.0719V13.8197H58.7C58.9855 10.3943 61.0183 8.92048 62.579 7.78893C63.5975 7.0506 64.4151 6.45781 64.4151 5.56375Z" fill="#0A0A0A"/>
<path fill-rule="evenodd" clip-rule="evenodd" d="M66.6517 9.57018L72.4193 2.25489H74.1323V9.16959H75.8452V11.0854H74.1323V13.82H71.8077V11.0854H66.6517V9.57018ZM70.759 9.16959H71.8077V7.93294C71.8077 7.04473 71.8776 6.01699 71.9127 5.79063L69.3084 9.22186C69.5181 9.20439 70.3571 9.16959 70.759 9.16959Z" fill="#0A0A0A"/>
</svg>
