<svg width="375" height="874" viewBox="0 0 375 874" fill="none" xmlns="http://www.w3.org/2000/svg" xmlns:xlink="http://www.w3.org/1999/xlink">
<rect width="375" height="874" fill="white"/>
<path opacity="0.189825" fill-rule="evenodd" clip-rule="evenodd" d="M0 0L375 0L375 874L0 874L0 0Z" fill="#19D7CD"/>
<mask id="mask0" mask-type="alpha" maskUnits="userSpaceOnUse" x="0" y="0" width="375" height="874">
<path fill-rule="evenodd" clip-rule="evenodd" d="M0 0L375 0L375 874L0 874L0 0Z" fill="white"/>
</mask>
<g mask="url(#mask0)">
<g opacity="0.4">
<path fill-rule="evenodd" clip-rule="evenodd" d="M307.437 207.115C307.437 207.115 291.593 203.027 288.879 193.967C288.868 169.893 328.936 170.084 337.635 193.923C343.311 193.241 349.301 192.411 355.478 191.521C352.236 171.215 334.25 161.901 321.706 159.25C321.265 150.644 320.149 139.519 320.149 139.519H300.01C299.423 146.766 298.883 153.435 298.362 159.904C294.791 161.364 291.944 162.375 289.226 163.662C277.088 169.407 268.498 178.358 268.01 192.216C267.504 206.625 275.601 216.421 288.069 222.869C293.085 225.463 298.346 227.17 303.978 228C310.772 229.004 317.707 229.813 324.2 231.896C331.337 234.186 338.077 238.248 337.944 247.051C337.812 255.966 330.776 259.218 323.561 261.493C305.963 267.044 290.602 261.786 278.996 246.021C272.236 247.071 268.418 247.612 260.458 249.214C264.364 270.483 280.213 278.311 297.713 283.649C298.98 291.703 299.82 304.448 299.82 304.448C299.82 304.448 312.744 305.737 319.427 303.745C319.765 297.499 320.105 291.217 320.47 284.505C324.529 283.249 328.238 282.31 331.794 280.964C346.973 275.219 357.902 265.57 359.347 248.423C360.577 233.898 350.316 219.977 333.844 212.954C325.438 209.369 307.437 207.115 307.437 207.115ZM255.011 315.996C216.972 301.186 197.492 262.121 209.851 223.277C222.91 182.231 246.311 147.501 277.501 118.308C297.549 118.308 340.712 118.204 340.712 118.204C340.712 118.204 346.623 122.347 350.796 126.618C374.916 151.308 393.371 179.821 406.121 211.789C426.11 261.901 402.657 308.049 350.469 320.761C318.394 328.576 286.216 328.148 255.011 315.996ZM352.322 57.2353C346.991 70.5724 341.923 83.2584 336.618 96.5306H283.211C278.282 84.4023 273.006 71.4283 267.234 57.2353H352.322ZM363.562 109.816C361.19 107.461 360.062 105.643 357.559 101.099C365.853 80.167 374.376 58.6467 383.2 36.3793H236.345C245.431 59.1084 254.048 80.6624 263.004 103.062C230.039 134.457 205.898 170.409 191.367 212.329C172.92 265.542 197.832 317.69 250.931 336.801C286.966 349.769 323.857 350.182 360.51 339.532C420.771 322.024 448.8 265.641 426.489 206.911C412.516 170.131 391.583 137.626 363.562 109.816Z" fill="white"/>
</g>
<g opacity="0.4">
<path fill-rule="evenodd" clip-rule="evenodd" d="M71.4371 624.115C71.4371 624.115 55.5932 620.027 52.8785 610.967C52.8683 586.893 92.9357 587.084 101.635 610.923C107.311 610.241 113.301 609.411 119.478 608.521C116.236 588.215 98.2502 578.901 85.7058 576.25C85.2646 567.644 84.1487 556.519 84.1487 556.519H64.0095C63.423 563.766 62.8832 570.435 62.3616 576.903C58.7905 578.364 55.9435 579.375 53.2263 580.662C41.0883 586.407 32.4981 595.358 32.0102 609.216C31.5041 623.625 39.6012 633.421 52.0688 639.869C57.0854 642.463 62.346 644.17 67.9777 645C74.772 646.004 81.7065 646.813 88.1998 648.896C95.3368 651.186 102.077 655.248 101.944 664.051C101.812 672.966 94.7762 676.218 87.5614 678.493C69.963 684.044 54.6018 678.786 42.9958 663.021C36.2356 664.071 32.4182 664.612 24.458 666.214C28.3638 687.483 44.213 695.311 61.7128 700.649C62.9802 708.703 63.8201 721.448 63.8201 721.448C63.8201 721.448 76.7444 722.737 83.4272 720.745C83.7646 714.499 84.1045 708.217 84.4705 701.505C88.5294 700.249 92.2381 699.31 95.7935 697.964C110.973 692.219 121.902 682.57 123.347 665.423C124.577 650.898 114.316 636.977 97.8438 629.953C89.4378 626.369 71.4371 624.115 71.4371 624.115ZM19.0106 732.996C-19.028 718.186 -38.5079 679.121 -26.1493 640.277C-13.0901 599.231 10.3113 564.501 41.501 535.308C61.5492 535.308 104.712 535.204 104.712 535.204C104.712 535.204 110.623 539.346 114.796 543.618C138.916 568.308 157.371 596.821 170.121 628.789C190.11 678.901 166.657 725.049 114.469 737.761C82.3942 745.576 50.2158 745.148 19.0106 732.996ZM116.322 474.235C110.991 487.572 105.923 500.258 100.618 513.531H47.2105C42.2821 501.402 37.006 488.428 31.2342 474.235H116.322ZM127.562 526.816C125.19 524.461 124.062 522.643 121.559 518.099C129.853 497.167 138.376 475.647 147.2 453.379H0.34547C9.43143 476.108 18.0476 497.662 27.0038 520.062C-5.96098 551.457 -30.102 587.409 -44.6327 629.329C-63.0798 682.542 -38.168 734.69 14.9308 753.801C50.9658 766.769 87.8572 767.182 124.51 756.532C184.771 739.024 212.8 682.641 190.489 623.911C176.516 587.131 155.583 554.626 127.562 526.816Z" fill="white"/>
</g>
<g opacity="0.36">
<g filter="url(#filter0_f)">
<path fill-rule="evenodd" clip-rule="evenodd" d="M80.221 302.416C77.879 301.417 75.3765 301.085 72.8638 300.789C70.4806 300.507 68.4495 299.65 67.6932 297.126C70.5081 290.904 77.5016 291.189 81.2774 297.114C82.8588 296.924 84.4242 296.895 86.2485 296.445C85.3454 290.787 81.0092 288.985 76.8392 287.453C76.7163 285.056 76.4054 281.956 76.4054 281.956H70.7944C70.631 283.975 70.4806 285.833 70.3353 287.635C69.3403 288.042 68.5471 288.324 67.7901 288.683C64.4083 290.283 62.0149 292.777 61.879 296.638C61.738 300.653 63.994 303.382 67.4676 305.178C68.8653 305.901 70.3309 306.377 71.9 306.608C73.793 306.888 75.725 307.113 77.5341 307.693C79.5225 308.331 81.4003 309.463 81.3635 311.916C81.3266 314.399 79.3664 315.306 77.3562 315.939C72.4531 317.486 68.1733 316.021 64.9397 311.629C63.3382 311.973 61.8016 311.945 59.7749 312.518C60.8631 318.444 65.2789 320.625 70.1545 322.112C70.9933 324.055 70.7416 327.907 70.7416 327.907C70.7416 327.907 74.3425 328.266 76.2044 327.711C76.2984 325.971 76.3931 324.221 76.4951 322.351C77.6259 322.001 78.6592 321.739 79.6498 321.364C83.879 319.764 86.9238 317.075 87.3266 312.298C87.6693 308.251 84.8103 304.373 80.221 302.416ZM84.853 332.452C75.9166 334.63 66.9513 334.51 58.2572 331.125C47.6592 326.998 42.2319 316.115 45.6751 305.292C49.3136 293.856 55.8334 284.18 64.5233 276.047C70.1089 276.047 75.3989 276.103 80.6874 276.018C82.6433 275.987 83.7814 277.172 84.9441 278.362C91.6643 285.241 96.806 293.185 100.358 302.092C105.927 316.053 99.3931 328.911 84.853 332.452ZM85.3693 259.031C83.8841 262.747 82.4719 266.281 80.994 269.979H66.114C64.7409 266.6 63.2709 262.985 61.6628 259.031H85.3693ZM106.033 300.732C102.14 290.485 96.3078 281.429 88.5008 273.68C87.84 273.024 86.8797 272.568 86.8284 271.252C89.1393 265.42 91.5139 259.424 93.9723 253.22H53.0569C55.5883 259.553 57.9889 265.558 60.4842 271.799C51.2998 280.546 44.5738 290.562 40.5254 302.242C35.3858 317.068 42.3266 331.596 57.1205 336.921C67.1603 340.534 77.4387 340.649 87.6505 337.682C104.44 332.804 112.249 317.095 106.033 300.732Z" fill="white"/>
</g>
</g>
<g opacity="0.36">
<g filter="url(#filter1_f)">
<path fill-rule="evenodd" clip-rule="evenodd" d="M320.221 750.416C317.879 749.417 315.376 749.085 312.864 748.789C310.481 748.507 308.45 747.65 307.693 745.126C310.508 738.904 317.502 739.189 321.277 745.114C322.859 744.924 324.424 744.895 326.249 744.445C325.345 738.787 321.009 736.985 316.839 735.453C316.716 733.056 316.405 729.956 316.405 729.956H310.794C310.631 731.975 310.481 733.833 310.335 735.635C309.34 736.042 308.547 736.324 307.79 736.683C304.408 738.283 302.015 740.777 301.879 744.638C301.738 748.653 303.994 751.382 307.468 753.178C308.865 753.901 310.331 754.377 311.9 754.608C313.793 754.888 315.725 755.113 317.534 755.693C319.523 756.331 321.4 757.463 321.363 759.916C321.327 762.399 319.366 763.306 317.356 763.939C312.453 765.486 308.173 764.021 304.94 759.629C303.338 759.973 301.802 759.945 299.775 760.518C300.863 766.444 305.279 768.625 310.154 770.112C310.993 772.055 310.742 775.907 310.742 775.907C310.742 775.907 314.342 776.266 316.204 775.711C316.298 773.971 316.393 772.221 316.495 770.351C317.626 770.001 318.659 769.739 319.65 769.364C323.879 767.764 326.924 765.075 327.327 760.298C327.669 756.251 324.81 752.373 320.221 750.416ZM324.853 780.452C315.917 782.63 306.951 782.51 298.257 779.125C287.659 774.998 282.232 764.115 285.675 753.292C289.314 741.856 295.833 732.18 304.523 724.047C310.109 724.047 315.399 724.103 320.687 724.018C322.643 723.987 323.781 725.172 324.944 726.362C331.664 733.241 336.806 741.185 340.358 750.092C345.927 764.053 339.393 776.911 324.853 780.452ZM325.369 707.031C323.884 710.747 322.472 714.281 320.994 717.979H306.114C304.741 714.6 303.271 710.985 301.663 707.031H325.369ZM346.033 748.732C342.14 738.485 336.308 729.429 328.501 721.68C327.84 721.024 326.88 720.568 326.828 719.252C329.139 713.42 331.514 707.424 333.972 701.22H293.057C295.588 707.553 297.989 713.558 300.484 719.799C291.3 728.546 284.574 738.562 280.525 750.242C275.386 765.068 282.327 779.596 297.12 784.921C307.16 788.534 317.439 788.649 327.651 785.682C344.44 780.804 352.249 765.095 346.033 748.732Z" fill="white"/>
</g>
</g>
</g>
<defs>
<filter id="filter0_f" x="36.124" y="250.502" width="74.7521" height="91.9965" filterUnits="userSpaceOnUse" color-interpolation-filters="sRGB">
<feFlood flood-opacity="0" result="BackgroundImageFix"/>
<feBlend mode="normal" in="SourceGraphic" in2="BackgroundImageFix" result="shape"/>
<feGaussianBlur stdDeviation="1.35914" result="effect1_foregroundBlur"/>
</filter>
<filter id="filter1_f" x="276.124" y="698.502" width="74.7521" height="91.9965" filterUnits="userSpaceOnUse" color-interpolation-filters="sRGB">
<feFlood flood-opacity="0" result="BackgroundImageFix"/>
<feBlend mode="normal" in="SourceGraphic" in2="BackgroundImageFix" result="shape"/>
<feGaussianBlur stdDeviation="1.35914" result="effect1_foregroundBlur"/>
</filter>
</defs>
</svg>
