<svg xmlns="http://www.w3.org/2000/svg" width="90" height="90" viewBox="0 0 90 90" fill="none">
	<path d="M65.6996 56.211C65.6996 62.5514 60.7671 67.7976 54.4388 68.1882L24.5429 70.0333C17.6379 70.4595 11.8037 64.9743 11.8037 58.0561V22.7262C11.8037 15.6714 17.8602 10.1387 24.8862 10.7751L54.7821 13.483C60.9647 14.0431 65.6996 19.2262 65.6996 25.4341V56.211Z" fill="#44B0FF" fill-opacity="0.74"/>
	<path d="M65.1996 56.211C65.1996 62.2872 60.4726 67.3149 54.408 67.6892L24.5121 69.5343C17.8948 69.9427 12.3037 64.686 12.3037 58.0561V22.7262C12.3037 15.9653 18.1078 10.6632 24.8411 11.2731L54.737 13.981C60.662 14.5177 65.1996 19.4848 65.1996 25.4341V56.211Z" stroke="white" stroke-opacity="0.18"/>
	<path d="M78.1972 65.0086C78.1972 71.2349 73.4352 76.4269 67.2321 76.9639L40.4607 79.2813C33.4511 79.8881 27.4258 74.3618 27.4258 67.3261V34.1865C27.4258 27.2573 33.2778 21.7681 40.1928 22.211L66.9642 23.9257C73.2809 24.3302 78.1972 29.5715 78.1972 35.9011V65.0086Z" fill="#0075FF" fill-opacity="0.78"/>
	<path d="M77.6972 65.0086C77.6972 70.9755 73.1336 75.9512 67.189 76.4658L40.4176 78.7832C33.7001 79.3647 27.9258 74.0687 27.9258 67.3261V34.1865C27.9258 27.546 33.5339 22.2856 40.1608 22.71L66.9323 24.4247C72.9858 24.8124 77.6972 29.8352 77.6972 35.9011V65.0086Z" stroke="white" stroke-opacity="0.18"/>
	<g opacity="0.9" filter="url(#filter0_d_15163_22529)">
		<path d="M67.2377 38.5764C66.4234 37.3518 64.625 37.3511 63.8098 38.575L50.5018 58.5554L47.621 54.3496C46.7314 53.0507 44.8183 53.0399 43.914 54.3287C43.3655 55.1104 43.3687 56.1527 43.922 56.931L48.0449 62.7303L48.6918 63.6402C49.5024 64.7805 51.2033 64.7574 51.9827 63.5955L53.9015 60.7354L67.233 40.8633C67.6967 40.172 67.6986 39.2695 67.2377 38.5764Z" fill="white"/>
	</g>
	<defs>
		<filter id="filter0_d_15163_22529" x="33.5049" y="31.6575" width="44.0771" height="46.824" filterUnits="userSpaceOnUse" color-interpolation-filters="sRGB">
			<feFlood flood-opacity="0" result="BackgroundImageFix"/>
			<feColorMatrix in="SourceAlpha" type="matrix" values="0 0 0 0 0 0 0 0 0 0 0 0 0 0 0 0 0 0 127 0" result="hardAlpha"/>
			<feOffset dy="4"/>
			<feGaussianBlur stdDeviation="5"/>
			<feComposite in2="hardAlpha" operator="out"/>
			<feColorMatrix type="matrix" values="0 0 0 0 0 0 0 0 0 0 0 0 0 0 0 0 0 0 0.05 0"/>
			<feBlend mode="normal" in2="BackgroundImageFix" result="effect1_dropShadow_15163_22529"/>
			<feBlend mode="normal" in="SourceGraphic" in2="effect1_dropShadow_15163_22529" result="shape"/>
		</filter>
	</defs>
</svg>
