<svg width="270" height="135" viewBox="0 0 270 135" fill="none" xmlns="http://www.w3.org/2000/svg">
  <path opacity=".15" fill-rule="evenodd" clip-rule="evenodd" d="M192.031 38.324C190.295 16.874 172.221 0 150.166 0a42.04 42.04 0 0 0-37.292 22.498 42.627 42.627 0 0 0-6.209-.457c-23.205 0-42.016 18.673-42.016 41.706 0 .05.003.1.004.15C44.947 63.985 29 79.865 29 99.447 29 119.081 45.036 135 64.818 135H173.55c27.863 0 50.45-22.422 50.45-50.08 0-21.18-13.252-39.275-31.969-46.596z" fill="#2FC6F6"/>
  <path fill-rule="evenodd" clip-rule="evenodd" d="M9.7 91.324c4.85 0 6.862-1.553 6.862-4.815 0-1.864-.722-3.159-1.909-3.884-1.29-.777-3.147-.984-5.263-.984H7.068v9.683H9.7zM0 63h22.34l-1.754 5.748H7.068v7.146H9.39c3.663 0 6.914.465 9.442 1.812 2.993 1.553 4.799 4.35 4.799 8.699 0 6.11-3.664 10.719-14.086 10.719H0V63zM27 73h6.76v9.787c0 2.019-.053 3.987-.207 5.385h.154c.568-.984 1.755-3.055 3.148-5.075L43.82 73h6.81v24.492h-6.81v-9.786c0-2.02.103-3.987.258-5.385h-.155a103.51 103.51 0 0 1-3.147 5.074L33.81 97.492H27V73zM61.275 78.8H54V73h23.011l-1.805 5.8H68.24v18.692h-6.965V78.8zM88.958 91.884c4.179 0 6.243-2.744 6.243-7.042 0-4.764-2.58-7.094-6.863-7.094-.877 0-1.6.051-2.373.31v13.308c.929.31 1.806.518 2.993.518zM79 73.605A29.608 29.608 0 0 1 88.648 72c9.081 0 13.673 5.126 13.673 12.842 0 7.353-4.953 12.79-12.847 12.79-1.187 0-2.374-.156-3.509-.467v12.221H79v-35.78zM106 73h6.759v9.787c0 2.019-.052 3.987-.206 5.385h.154c.568-.984 1.755-3.055 3.148-5.075L122.82 73h6.811v24.492h-6.811v-9.786c0-2.02.103-3.987.258-5.385h-.155c-.567.984-1.805 3.055-3.147 5.074l-6.966 10.097H106V73zM134 72.621h6.966v9.373h2.579c2.941 0 2.838-4.971 5.005-7.87.929-1.295 2.373-2.124 4.592-2.124.722 0 2.012.103 2.786.362v5.956a4.216 4.216 0 0 0-1.444-.26c-.774 0-1.291.26-1.703.777-1.239 1.554-1.445 4.712-3.251 5.851v.104c1.187.466 2.064 1.346 2.786 2.9l4.386 9.424h-7.533l-2.889-7.664c-.619-1.502-1.238-2.175-1.909-2.175h-3.405v9.839H134V72.62zM158 84.997C158 77.23 163.985 72 171.157 72c3.302 0 5.469.932 6.759 1.76v5.852c-1.755-1.346-3.612-2.071-5.985-2.071-4.283 0-6.811 3.262-6.811 7.404 0 4.609 2.58 7.094 6.501 7.094 2.167 0 3.818-.621 5.624-1.657l1.961 4.764c-2.013 1.45-5.16 2.486-8.565 2.486-8.101 0-12.641-5.437-12.641-12.635z" fill="#1EC6FA"/>
  <path fill-rule="evenodd" clip-rule="evenodd" d="M256.625 81.601c-5.424 0-9.82-4.427-9.82-9.888 0-5.46 4.396-9.888 9.82-9.888s9.821 4.427 9.821 9.888-4.397 9.888-9.821 9.888zM256.626 59C249.653 59 244 64.692 244 71.713c0 7.022 5.653 12.714 12.626 12.714s12.626-5.693 12.626-12.714c0-7.021-5.653-12.713-12.626-12.713z" fill="#0065A3"/>
  <path fill-rule="evenodd" clip-rule="evenodd" d="M255 73.063h2.806V66H255v7.063z" fill="#0065A3"/>
  <path fill-rule="evenodd" clip-rule="evenodd" d="M255 72.825h7.014V70H255v2.825zM201.57 69.819c0-3.212-2.669-4.34-5.508-4.34-3.805 0-6.929 1.24-9.825 2.537l-1.988-5.917c3.237-1.465 7.724-3.099 13.062-3.099 8.348 0 12.38 4.17 12.38 10.03 0 10.255-14.197 13.128-16.583 20.961h17.094v6.536H183c1.533-18.313 18.57-19.383 18.57-26.708z" fill="#0065A3"/>
  <path fill-rule="evenodd" clip-rule="evenodd" d="M222.346 81.37h3.408v-4.001c0-2.873.226-6.198.341-6.93l-8.462 11.1c.681-.057 3.407-.17 4.713-.17zM209 82.665L227.74 59h5.566v22.37h5.565v6.197h-5.565v8.847h-7.553v-8.847H209v-4.901z" fill="#0065A3"/>
</svg>
