<svg width="270" height="135" viewBox="0 0 270 135" fill="none" xmlns="http://www.w3.org/2000/svg">
<g clip-path="url(#clip0)">
<path opacity="0.15" fill-rule="evenodd" clip-rule="evenodd" d="M192.031 38.324C190.295 16.874 172.221 1.14773e-06 150.166 1.14773e-06C142.488 -0.0127908 134.954 2.07724 128.379 6.04334C121.805 10.0094 116.443 15.7001 112.874 22.498C110.818 22.1945 108.743 22.0418 106.665 22.041C83.46 22.041 64.649 40.714 64.649 63.747C64.649 63.797 64.652 63.847 64.653 63.897C44.947 63.985 29 79.865 29 99.447C29 119.081 45.036 135 64.818 135H173.55C201.413 135 224 112.578 224 84.92C224 63.74 210.748 45.645 192.031 38.324V38.324Z" fill="#2FC6F6"/>
<path fill-rule="evenodd" clip-rule="evenodd" d="M56 98H64V69H56V98ZM55 61.4429C55 58.9939 56.9324 57 59.5279 57C62.0676 57 64 58.8801 64 61.4429C64 63.9496 62.0676 66 59.5279 66C56.9324 66 55 64.0065 55 61.4429V61.4429Z" fill="#1EC6FA"/>
<path fill-rule="evenodd" clip-rule="evenodd" d="M71.077 91.2259V76.9055H66V70.7679H71.077V64.2796L79.0133 62V70.7679H87.3582L85.549 76.9055H79.0133V89.2387C79.0133 91.8106 79.8302 92.6872 81.639 92.6872C83.1565 92.6872 84.6737 92.1609 85.7241 91.4595L88 96.8372C85.9576 98.2401 82.3397 99 79.597 99C74.3449 99 71.077 96.0774 71.077 91.2259" fill="#1EC6FA"/>
<path fill-rule="evenodd" clip-rule="evenodd" d="M90 69.7176H97.2549L98.209 72.7073C100.755 70.4949 103.173 69 106.418 69C107.882 69 109.664 69.4185 111 70.3157L108.009 77.0127C106.482 76.1155 105.018 75.9363 104.191 75.9363C102.345 75.9363 100.882 76.534 98.5913 78.2682V98H90V69.7176Z" fill="#1EC6FA"/>
<path fill-rule="evenodd" clip-rule="evenodd" d="M112 98H120V69H112V98ZM112 61.4429C112 58.9939 113.933 57 116.527 57C119.068 57 121 58.8801 121 61.4429C121 63.9496 119.068 66 116.527 66C113.933 66 112 64.0065 112 61.4429V61.4429Z" fill="#1EC6FA"/>
<path fill-rule="evenodd" clip-rule="evenodd" d="M132.701 83.4084L122.3 69H130.718L137.09 77.8293L143.463 69H151.88L141.359 83.4084L152 98H143.583L137.03 88.9262L130.417 98H122L132.701 83.4084Z" fill="#1EC6FA"/>
<path fill-rule="evenodd" clip-rule="evenodd" d="M177.846 66.6847C177.846 62.9188 174.706 61.5976 171.366 61.5976C166.89 61.5976 163.215 63.0508 159.808 64.5707L157.469 57.6339C161.278 55.9158 166.556 54 172.835 54C182.655 54 187.399 58.8889 187.399 65.7595C187.399 77.7839 170.698 81.1529 167.891 90.3366H188V98H156C157.804 76.5288 177.846 75.2734 177.846 66.6847" fill="#0065A3"/>
<path fill-rule="evenodd" clip-rule="evenodd" d="M201.57 80.802H205.597V76.1167C205.597 72.7515 205.865 68.8576 206 68L196 81C196.805 80.9339 200.027 80.802 201.57 80.802V80.802ZM186 82.8313L207.958 55H214.479V81.3073H221V88.5962H214.479V99H205.629V88.5962H186V82.8313Z" fill="#0065A3"/>
<path fill-rule="evenodd" clip-rule="evenodd" d="M240.5 81C234.149 81 229 75.6273 229 69C229 62.3723 234.149 57 240.5 57C246.851 57 252 62.3723 252 69C252 75.6273 246.851 81 240.5 81M240.5 54C232.492 54 226 60.7155 226 68.9998C226 77.2841 232.492 84 240.5 84C248.508 84 255 77.2841 255 68.9998C255 60.7155 248.508 54 240.5 54" fill="#0065A3"/>
<path fill-rule="evenodd" clip-rule="evenodd" d="M240 69H242V63H240V69Z" fill="#0065A3"/>
<path fill-rule="evenodd" clip-rule="evenodd" d="M240 69H246V67H240V69Z" fill="#0065A3"/>
<path fill-rule="evenodd" clip-rule="evenodd" d="M36.8043 93C40.9348 93 43 91.2768 43 87.3007C43 83.9218 40.9348 82 37.511 82H33V93H36.8043ZM35.5454 75C38.4826 75 40 73.051 40 70.5863C40 68.0062 38.5317 66 35.3985 66H33V75H35.5454ZM24 59H36.1764C44.5879 59 48.3529 64.0379 48.3529 69.1368C48.3529 72.4143 46.7646 75.6312 43.7645 77.2097V77.3309C48.4118 78.6055 51 82.4901 51 86.9815C51 93.0518 46.4116 99 37.2353 99H24V59Z" fill="#1EC6FA"/>
</g>
<defs>
<clipPath id="clip0">
<rect width="270" height="135" fill="white"/>
</clipPath>
</defs>
</svg>
