<?xml version="1.0" encoding="utf-8"?>
<svg width="18px" height="18px" viewBox="0 0 18 18" version="1.1" xmlns:xlink="http://www.w3.org/1999/xlink" xmlns="http://www.w3.org/2000/svg">
  <g id="Oval-12">
    <path d="M9 18C13.9706 18 18 13.9706 18 9C18 4.02944 13.9706 0 9 0C4.02944 0 0 4.02944 0 9C0 13.9706 4.02944 18 9 18Z" id="Oval-12" fill="#80868E" fill-opacity="0.7" fill-rule="evenodd" stroke="none" />
    <g id="1" transform="translate(4.209279 3.472798)">
      <path d="M6.88579 3.75127L6.88579 0.499Q6.88579 0.449853 6.8762 0.40165Q6.86661 0.353447 6.84781 0.308041Q6.829 0.262635 6.80169 0.22177Q6.77439 0.180906 6.73964 0.146154Q6.70488 0.111401 6.66402 0.0840967Q6.62315 0.0567919 6.57775 0.0379841Q6.53234 0.0191763 6.48414 0.00958814Q6.43594 9.59536e-15 6.38679 9.50272e-15L0.499 -1.59577e-15Q0.449853 -1.68841e-15 0.40165 0.00958814Q0.353447 0.0191763 0.308041 0.0379841Q0.262635 0.0567919 0.22177 0.0840967Q0.180906 0.111401 0.146154 0.146154Q0.111401 0.180906 0.0840967 0.22177Q0.0567919 0.262635 0.0379841 0.308041Q0.0191763 0.353447 0.00958814 0.40165Q-2.33538e-15 0.449853 -2.33538e-15 0.499L-2.33538e-15 10.1567Q-2.33538e-15 10.2061 0.00968988 10.2546Q0.0193798 10.303 0.0383832 10.3486Q0.0573866 10.3942 0.0849655 10.4352Q0.112544 10.4762 0.147628 10.511Q0.182711 10.5458 0.223936 10.573Q0.265162 10.6003 0.310928 10.6189Q0.356694 10.6375 0.405223 10.6468Q0.453753 10.6561 0.503161 10.6557L8.61204 10.5881Q8.66092 10.5877 8.70879 10.5778Q8.75667 10.5679 8.80172 10.5489Q8.84676 10.5299 8.88727 10.5025Q8.92777 10.4752 8.96219 10.4405Q8.99661 10.4057 9.02365 10.365Q9.05068 10.3243 9.06929 10.2791Q9.0879 10.2339 9.09739 10.1859Q9.10688 10.138 9.10688 10.0891L9.10688 4.25027Q9.10688 4.20112 9.09729 4.15292Q9.0877 4.10472 9.06889 4.05931Q9.05008 4.0139 9.02278 3.97304Q8.99547 3.93217 8.96072 3.89742Q8.92597 3.86267 8.88511 3.83537Q8.84424 3.80806 8.79884 3.78925Q8.75343 3.77044 8.70523 3.76086Q8.65702 3.75127 8.60788 3.75127L6.88579 3.75127ZM5.62356 9.2442L4.68574 9.2442L4.68574 7.50254L2.01621 7.50254L2.01621 9.2442L1.0784 9.2442L1.0784 1.27275L5.69054 1.27275L5.62356 9.2442ZM8.03509 8.90926L6.69535 8.90926L6.69535 7.56952L8.03509 7.56952L8.03509 8.90926ZM8.03509 6.29677L6.69535 6.29677L6.69535 4.95703L8.03509 4.95703L8.03509 6.29677Z" transform="translate(0.4792545 0.06698694)" id="Shape" fill="#FFFFFF" stroke="none" />
      <path d="M0 0L2.4366 0L2.4366 1.33974L0 1.33974L0 0Z" transform="translate(2.6964295 2.344543)" id="Shape" fill="#FFFFFF" fill-rule="evenodd" stroke="none" />
      <path d="M0 0L2.45631 0L2.45631 1.33974L0 1.33974L0 0Z" transform="translate(2.6964295 4.9570336)" id="Shape" fill="#FFFFFF" fill-rule="evenodd" stroke="none" />
    </g>
  </g>
</svg>