<?xml version="1.0" encoding="utf-8"?>
<svg width="18px" height="18px" viewBox="0 0 18 18" version="1.1" xmlns:xlink="http://www.w3.org/1999/xlink" xmlns="http://www.w3.org/2000/svg">
  <g id="Oval-12">
    <path d="M9 18C13.9706 18 18 13.9706 18 9C18 4.02944 13.9706 0 9 0C4.02944 0 0 4.02944 0 9C0 13.9706 4.02944 18 9 18Z" id="Oval-12" fill="#80868E" fill-opacity="0.7" fill-rule="evenodd" stroke="none" />
    <path d="M9.18918 8.2077C9.18918 7.76925 8.63823 7.26841 7.55327 6.97655C7.1857 6.8699 6.83627 6.70451 6.51748 6.4863C6.44777 6.44486 6.45836 6.06196 6.45836 6.06196L6.10893 6.00663C6.10893 5.97555 6.07905 5.51637 6.07905 5.51637C6.49714 5.37022 6.45412 4.50809 6.45412 4.50809C6.71964 4.6613 6.89255 3.97904 6.89255 3.97904C7.2066 3.03116 6.73617 3.08847 6.73617 3.08847C6.81847 2.50981 6.81847 1.92171 6.73617 1.34305C6.52702 -0.576525 3.37811 -0.0554101 3.75149 0.571515C2.83119 0.395165 3.04118 2.57353 3.04118 2.57353L3.2408 3.13763C2.84877 3.40216 3.12128 3.72201 3.13485 4.09014C3.15413 4.63374 3.47389 4.5211 3.47389 4.5211C3.4936 5.41828 3.91889 5.53511 3.91889 5.53511C3.99878 6.09855 3.94898 6.00266 3.94898 6.00266L3.57052 6.05027C3.57565 6.17841 3.56561 6.30671 3.54064 6.43229C3.09564 6.63862 2.99986 6.75964 2.55762 6.96134C1.70322 7.35086 0.77465 7.85742 0.609576 8.53946C0.444503 9.22149 0 11 0 11L10 11C10.0004 10.2909 9.18918 8.2077 9.18918 8.2077Z" transform="translate(4 3)" id="Shape_2_copy_4" fill="#FFFFFF" fill-rule="evenodd" stroke="none" />
  </g>
</svg>