<svg width="18" height="18" viewBox="0 0 18 18" fill="none" xmlns="http://www.w3.org/2000/svg">
<g clip-path="url(#clip0_5421_33036)">
<path fill-rule="evenodd" clip-rule="evenodd" d="M9 18C13.9706 18 18 13.9706 18 9C18 4.02944 13.9706 0 9 0C4.02944 0 0 4.02944 0 9C0 13.9706 4.02944 18 9 18Z" fill="#80868E" fill-opacity="0.7"/>
<path fill-rule="evenodd" clip-rule="evenodd" d="M7.11359 11.7449C7.76657 11.7449 8.29565 12.2497 8.29565 12.8727C8.29565 13.4952 7.76658 14 7.11359 14C6.46121 14 5.93213 13.4952 5.93213 12.8727C5.93213 12.2497 6.46119 11.7449 7.11359 11.7449ZM11.2812 11.7449C11.9342 11.7449 12.4632 12.2497 12.4632 12.8727C12.4632 13.4952 11.9342 14 11.2812 14C10.6288 14 10.0997 13.4952 10.0997 12.8727C10.0997 12.2497 10.6288 11.7449 11.2812 11.7449ZM4.17702 4C4.37669 4.00107 4.55122 4.12258 4.6155 4.29957L4.62834 4.34137L4.97031 5.7509L13.536 5.73577C13.6788 5.73634 13.813 5.79951 13.9005 5.90616C13.9775 5.99998 14.0114 6.1182 13.9966 6.23482L13.9873 6.28462L13.1163 10.8993C13.07 11.0844 12.9059 11.2191 12.7111 11.2383L12.6656 11.2406H5.76308C5.56397 11.2396 5.38896 11.1181 5.3251 10.9411L5.31237 10.8993L3.80413 4.89023H3.3614C3.17606 4.89023 3.02331 4.75711 3.00243 4.58561L3 4.5454V4.34483C3 4.16799 3.13951 4.02224 3.31925 4.00232L3.3614 4H4.17702ZM11.5028 8.87317H6.84342C6.64383 8.87317 6.48202 9.02755 6.48202 9.21799V9.28767C6.48202 9.47811 6.64383 9.6325 6.84342 9.6325H11.5028C11.7024 9.6325 11.8642 9.47811 11.8642 9.28767V9.21799C11.8642 9.02755 11.7024 8.87317 11.5028 8.87317ZM11.5028 7.19267H6.84342C6.64383 7.19267 6.48202 7.34705 6.48202 7.53749V7.60717C6.48202 7.79761 6.64383 7.952 6.84342 7.952H11.5028C11.7024 7.952 11.8642 7.79761 11.8642 7.60717V7.53749C11.8642 7.34705 11.7024 7.19267 11.5028 7.19267Z" fill="white"/>
</g>
<defs>
<clipPath id="clip0_5421_33036">
<rect width="18" height="18" fill="white"/>
</clipPath>
</defs>
</svg>
