<svg width="470" height="246" viewBox="0 0 470 246" fill="none" xmlns="http://www.w3.org/2000/svg">
	<path opacity="0.211609" fill-rule="evenodd" clip-rule="evenodd" d="M358 123C358 190.932 302.707 246 234.5 246C166.293 246 111 190.932 111 123C111 55.0689 166.292 0 234.5 0C302.707 0 358 55.0689 358 123ZM315 123C315 167.183 278.959 203 234.5 203C190.041 203 154 167.183 154 123C154 78.8172 190.04 43 234.5 43C278.959 43 315 78.8172 315 123Z" fill="#FFCDCC"/>
	<g filter="url(#filter0_d_48_42877)">
		<path d="M174 71.5001H267C270.038 71.5001 272.5 73.9625 272.5 77.0001V112C272.5 115.038 270.038 117.5 267 117.5H174C170.962 117.5 168.5 115.038 168.5 112V77.0001C168.5 73.9625 170.962 71.5001 174 71.5001Z" fill="#EEF2F4"/>
		<path d="M174 71.5001H267C270.038 71.5001 272.5 73.9625 272.5 77.0001V112C272.5 115.038 270.038 117.5 267 117.5H174C170.962 117.5 168.5 115.038 168.5 112V77.0001C168.5 73.9625 170.962 71.5001 174 71.5001Z" fill="white" fill-opacity="0.8"/>
		<path d="M174 71.5001H267C270.038 71.5001 272.5 73.9625 272.5 77.0001V112C272.5 115.038 270.038 117.5 267 117.5H174C170.962 117.5 168.5 115.038 168.5 112V77.0001C168.5 73.9625 170.962 71.5001 174 71.5001Z" stroke="#FFCDCC"/>
		<rect opacity="0.5" x="178" y="81.0001" width="30" height="5" rx="2.5" fill="#9DCF00"/>
		<rect x="178" y="92.0001" width="61" height="5" rx="2.5" fill="black" fill-opacity="0.05"/>
		<rect x="178" y="103" width="54" height="5" rx="2.5" fill="black" fill-opacity="0.05"/>
	</g>
	<g filter="url(#filter1_d_48_42877)">
		<path d="M204 125.5H285C288.038 125.5 290.5 127.963 290.5 131V169C290.5 172.038 288.038 174.5 285 174.5H204C200.962 174.5 198.5 172.038 198.5 169V131C198.5 127.963 200.962 125.5 204 125.5Z" fill="#EEF2F4"/>
		<path d="M204 125.5H285C288.038 125.5 290.5 127.963 290.5 131V169C290.5 172.038 288.038 174.5 285 174.5H204C200.962 174.5 198.5 172.038 198.5 169V131C198.5 127.963 200.962 125.5 204 125.5Z" fill="white" fill-opacity="0.8"/>
		<path d="M204 125.5H285C288.038 125.5 290.5 127.963 290.5 131V169C290.5 172.038 288.038 174.5 285 174.5H204C200.962 174.5 198.5 172.038 198.5 169V131C198.5 127.963 200.962 125.5 204 125.5Z" stroke="#FFCDCC"/>
		<rect x="208" y="161" width="54" height="5" rx="2.5" fill="black" fill-opacity="0.05"/>
		<rect opacity="0.2" x="207" y="134" width="75" height="21" rx="2" fill="#2FC6F6"/>
	</g>
	<g filter="url(#filter2_d_48_42877)">
		<g filter="url(#filter3_d_48_42877)">
			<circle cx="280.46" cy="159" r="34" fill="#FF5752"/>
		</g>
	</g>
	<path fill-rule="evenodd" clip-rule="evenodd" d="M292.878 150.261C295.548 152.393 297.913 154.882 299.907 157.657C300.317 158.251 300.317 159.036 299.907 159.63C299.567 160.126 291.446 171.774 280.999 171.774C278.318 171.727 275.687 171.037 273.327 169.762L269.539 173.538C268.924 174.147 267.933 174.147 267.319 173.538L266.208 172.431C265.597 171.82 265.597 170.829 266.208 170.218L269.283 167.151C266.547 164.99 264.126 162.458 262.092 159.627C261.684 159.034 261.684 158.251 262.092 157.657C262.432 157.161 270.552 145.513 281 145.513C283.754 145.564 286.453 146.288 288.862 147.622L292.03 144.461C292.645 143.853 293.636 143.853 294.251 144.461L295.361 145.569C295.972 146.181 295.972 147.172 295.361 147.784L292.878 150.261ZM280.999 149.506C274.33 149.506 268.481 156.143 266.517 158.641C268.167 160.738 270.065 162.628 272.169 164.27L274.767 161.679C274.35 160.794 274.116 159.805 274.116 158.762C274.116 154.982 277.18 151.918 280.959 151.918C282.009 151.918 283.005 152.155 283.894 152.578L285.862 150.615C284.337 149.91 282.68 149.532 280.999 149.506ZM278.116 164.988L276.34 166.759C277.809 167.41 279.394 167.758 281 167.781V167.78C287.648 167.78 293.511 161.14 295.481 158.643C293.873 156.6 292.032 154.753 289.995 153.139L287.193 155.934C287.584 156.796 287.802 157.753 287.802 158.762C287.802 162.541 284.738 165.605 280.959 165.605C279.945 165.605 278.982 165.384 278.116 164.988Z" fill="white"/>
	<defs>
		<filter id="filter0_d_48_42877" x="160.926" y="66.2838" width="119.149" height="61.1488" filterUnits="userSpaceOnUse" color-interpolation-filters="sRGB">
			<feFlood flood-opacity="0" result="BackgroundImageFix"/>
			<feColorMatrix in="SourceAlpha" type="matrix" values="0 0 0 0 0 0 0 0 0 0 0 0 0 0 0 0 0 0 127 0" result="hardAlpha"/>
			<feOffset dy="2.35813"/>
			<feGaussianBlur stdDeviation="3.5372"/>
			<feComposite in2="hardAlpha" operator="out"/>
			<feColorMatrix type="matrix" values="0 0 0 0 0.423529 0 0 0 0 0.423529 0 0 0 0 0.423529 0 0 0 0.12 0"/>
			<feBlend mode="normal" in2="BackgroundImageFix" result="effect1_dropShadow_48_42877"/>
			<feBlend mode="normal" in="SourceGraphic" in2="effect1_dropShadow_48_42877" result="shape"/>
		</filter>
		<filter id="filter1_d_48_42877" x="190.926" y="120.284" width="107.149" height="64.1488" filterUnits="userSpaceOnUse" color-interpolation-filters="sRGB">
			<feFlood flood-opacity="0" result="BackgroundImageFix"/>
			<feColorMatrix in="SourceAlpha" type="matrix" values="0 0 0 0 0 0 0 0 0 0 0 0 0 0 0 0 0 0 127 0" result="hardAlpha"/>
			<feOffset dy="2.35813"/>
			<feGaussianBlur stdDeviation="3.5372"/>
			<feComposite in2="hardAlpha" operator="out"/>
			<feColorMatrix type="matrix" values="0 0 0 0 0.423529 0 0 0 0 0.423529 0 0 0 0 0.423529 0 0 0 0.12 0"/>
			<feBlend mode="normal" in2="BackgroundImageFix" result="effect1_dropShadow_48_42877"/>
			<feBlend mode="normal" in="SourceGraphic" in2="effect1_dropShadow_48_42877" result="shape"/>
		</filter>
		<filter id="filter2_d_48_42877" x="243.46" y="125" width="74" height="74" filterUnits="userSpaceOnUse" color-interpolation-filters="sRGB">
			<feFlood flood-opacity="0" result="BackgroundImageFix"/>
			<feColorMatrix in="SourceAlpha" type="matrix" values="0 0 0 0 0 0 0 0 0 0 0 0 0 0 0 0 0 0 127 0" result="hardAlpha"/>
			<feOffset dy="3"/>
			<feGaussianBlur stdDeviation="1.5"/>
			<feComposite in2="hardAlpha" operator="out"/>
			<feColorMatrix type="matrix" values="0 0 0 0 0 0 0 0 0 0 0 0 0 0 0 0 0 0 0.05 0"/>
			<feBlend mode="normal" in2="BackgroundImageFix" result="effect1_dropShadow_48_42877"/>
			<feBlend mode="normal" in="SourceGraphic" in2="effect1_dropShadow_48_42877" result="shape"/>
		</filter>
		<filter id="filter3_d_48_42877" x="234.92" y="115.73" width="91.08" height="91.08" filterUnits="userSpaceOnUse" color-interpolation-filters="sRGB">
			<feFlood flood-opacity="0" result="BackgroundImageFix"/>
			<feColorMatrix in="SourceAlpha" type="matrix" values="0 0 0 0 0 0 0 0 0 0 0 0 0 0 0 0 0 0 127 0" result="hardAlpha"/>
			<feOffset dy="2.27"/>
			<feGaussianBlur stdDeviation="5.77"/>
			<feComposite in2="hardAlpha" operator="out"/>
			<feColorMatrix type="matrix" values="0 0 0 0 0.392157 0 0 0 0 0.427451 0 0 0 0 0.482353 0 0 0 0.16 0"/>
			<feBlend mode="normal" in2="BackgroundImageFix" result="effect1_dropShadow_48_42877"/>
			<feBlend mode="normal" in="SourceGraphic" in2="effect1_dropShadow_48_42877" result="shape"/>
		</filter>
	</defs>
</svg>

