<svg width="69" height="14" viewBox="0 0 69 14" fill="none" xmlns="http://www.w3.org/2000/svg">
	<g fill="#d5d7db">
		<path fill-rule="evenodd" clip-rule="evenodd" d="M12.4055 13.7229H9.88736V4.98172H12.4055V13.7229ZM11.1558 0.842194C10.279 0.842194 9.62611 1.48906 9.62611 2.28361C9.62611 3.11534 10.279 3.76208 11.1558 3.76208C12.0138 3.76208 12.6666 3.09688 12.6666 2.28361C12.6666 1.45214 12.0138 0.842194 11.1558 0.842194ZM5.98769 10.0637C5.98769 11.1726 5.27888 11.6532 3.86126 11.6532H2.55556V8.58541H4.1038C5.27888 8.58541 5.98769 9.12139 5.98769 10.0637ZM5.22292 5.09275C5.22292 5.8873 4.64473 6.51558 3.52549 6.51558H2.55556V3.61429H3.46952C4.66343 3.61429 5.22292 4.26103 5.22292 5.09275ZM3.86126 1.54446H0V13.7229H4.19703C7.10693 13.7229 8.56195 11.9119 8.56195 10.0637C8.56195 8.6963 7.74121 7.51358 6.2675 7.12553V7.08861C7.21886 6.60801 7.72252 5.6286 7.72252 4.63074C7.72252 3.0783 6.52861 1.54446 3.86126 1.54446ZM14.8107 11.4499V6.92232H13.1878V4.98184H14.8107V2.93047L17.3475 2.20977V4.98184H20.015L19.4367 6.92232H17.3475V10.8216C17.3475 11.6348 17.6087 11.9119 18.1868 11.9119C18.6719 11.9119 19.1569 11.7455 19.4927 11.5237L20.2202 13.224C19.5673 13.6675 18.4108 13.9078 17.5341 13.9078C15.8553 13.9078 14.8107 12.9837 14.8107 11.4499ZM23.0372 4.98177H20.9107V13.723H23.429V7.6245C24.1004 7.08852 24.5294 6.90379 25.0704 6.90379C25.3129 6.90379 25.742 6.95917 26.1895 7.23646L27.0662 5.16663C26.6746 4.88935 26.1523 4.76 25.7232 4.76C24.7719 4.76 24.0631 5.22201 23.3169 5.9058L23.0372 4.98177ZM27.5526 13.7229H30.0709V4.98172H27.5526V13.7229ZM27.2914 2.28361C27.2914 1.48906 27.9444 0.842194 28.8209 0.842194C29.6791 0.842194 30.3319 1.45214 30.3319 2.28361C30.3319 3.09688 29.6791 3.76208 28.8209 3.76208C27.9444 3.76208 27.2914 3.11534 27.2914 2.28361ZM30.8169 4.98174L34.044 9.32471L30.7238 13.7229H33.3352L35.3871 10.9879L37.4203 13.7229H40.0317L36.7301 9.32471L39.9944 4.98174H37.383L35.4057 7.64306L33.4286 4.98174H30.8169Z"/>
		<path fill-rule="evenodd" clip-rule="evenodd" d="M64.731 8.61878C62.9625 8.61878 61.529 7.19379 61.529 5.43607C61.529 3.67835 62.9625 2.25348 64.731 2.25348C66.4994 2.25348 67.933 3.67835 67.933 5.43607C67.933 7.19379 66.4994 8.61878 64.731 8.61878ZM64.731 1.34412C62.4574 1.34412 60.6142 3.17611 60.6142 5.43607C60.6142 7.69603 62.4574 9.52815 64.731 9.52815C67.0046 9.52815 68.8477 7.69603 68.8477 5.43607C68.8477 3.17611 67.0046 1.34412 64.731 1.34412ZM65.1869 5.89076H64.2722V4.98139V3.61741H65.1869V4.98139H66.5592V5.89076H65.1869ZM47.0459 4.96464C47.0459 3.91173 46.1698 3.54233 45.2375 3.54233C43.9884 3.54233 42.963 3.94864 42.0123 4.37357L41.3595 2.43412C42.4223 1.95377 43.8952 1.41812 45.6477 1.41812C48.3882 1.41812 49.7119 2.78501 49.7119 4.70596C49.7119 6.60886 48.2187 7.73646 46.7806 8.82242C45.678 9.65503 44.6078 10.4632 44.2679 11.5775H49.8797V13.7201H40.9495C41.2541 10.0873 43.4226 8.52434 45.0875 7.32431C46.1739 6.5413 47.0459 5.9128 47.0459 4.96464ZM53.8126 8.78823H54.9313V7.47675C54.9313 6.53479 55.0057 5.44486 55.0432 5.2048L52.2653 8.84364C52.4889 8.82513 53.3839 8.78823 53.8126 8.78823ZM49.4314 9.21305L55.5837 1.45511H57.411V8.78823H59.2379V10.82H57.411V13.72H54.9313V10.82H49.4314V9.21305Z"/>
	</g>
</svg>
