<svg width="18" height="18" viewBox="0 0 18 18" fill="none" xmlns="http://www.w3.org/2000/svg">
	<path fill-rule="evenodd" clip-rule="evenodd" d="M8.99992 17.0052C13.4212 17.0052 17.0053 13.4211 17.0053 8.99986C17.0053 4.57862 13.4212 0.994507 8.99992 0.994507C4.57869 0.994507 0.994568 4.57862 0.994568 8.99986C0.994568 13.4211 4.57869 17.0052 8.99992 17.0052ZM13.4466 13.0385C14.416 11.9718 15.0068 10.5549 15.0068 8.99992C15.0068 5.6824 12.3174 2.99301 8.99992 2.99301C5.6824 2.99301 2.99301 5.6824 2.99301 8.99992C2.99301 10.5549 3.58382 11.9718 4.5532 13.0385H13.4466ZM12.6883 11.4773C12.4077 11.5482 12.1139 11.5859 11.8113 11.5859H6.18864C5.88339 11.5859 5.58708 11.5475 5.30427 11.4755C5.49079 10.9495 6.25345 10.5543 6.95749 10.2476C7.14972 10.1638 7.26578 10.0969 7.38303 10.0294L7.38304 10.0294L7.38304 10.0294C7.49758 9.96339 7.61326 9.89676 7.80221 9.81302C7.82367 9.70987 7.83229 9.60449 7.82789 9.49925L8.1531 9.46014C8.1531 9.46014 8.19589 9.5389 8.12725 9.07613C8.12725 9.07613 7.76179 8.98017 7.74486 8.24328C7.74486 8.24328 7.47008 8.33579 7.45351 7.88931C7.45008 7.80035 7.42739 7.71482 7.40565 7.63287L7.40565 7.63287C7.35349 7.43629 7.3068 7.26032 7.54456 7.10698L7.37303 6.64366C7.37303 6.64366 7.19257 4.85447 7.98339 4.99932C7.66255 4.4844 10.3684 4.05638 10.5481 5.63301C10.6189 6.10829 10.6189 6.59132 10.5481 7.0666C10.5481 7.0666 10.9524 7.01953 10.6825 7.79806C10.6825 7.79806 10.5339 8.35843 10.3058 8.23259C10.3058 8.23259 10.3427 8.9407 9.98348 9.06074C9.98348 9.06074 10.0092 9.43787 10.0092 9.4634L10.3094 9.50885C10.3094 9.50885 10.3003 9.82334 10.3602 9.85738C10.6342 10.0366 10.9344 10.1724 11.2503 10.26C12.1826 10.4998 12.656 10.9111 12.656 11.2712L12.6883 11.4773Z" fill="#A8ADB4"/>
</svg>