<svg width="22" height="22" viewBox="0 0 22 22" fill="none" xmlns="http://www.w3.org/2000/svg">
	<path fill-rule="evenodd" clip-rule="evenodd" d="M9.56452 15.1497C9.56452 15.1578 9.56232 15.1651 9.56232 15.1724C9.56232 15.969 10.2086 16.6153 11.0052 16.6153C11.8017 16.6153 12.448 15.969 12.448 15.1724C12.448 15.1651 12.4458 15.1578 12.4458 15.1497H9.56452ZM14.5994 9.00101C14.5994 7.74064 13.6219 5.95267 11.6808 5.61559V5.58335C11.6808 5.18985 11.3584 4.86816 10.9649 4.86816C10.5714 4.86816 10.2497 5.18985 10.2497 5.58335V5.61706C8.31221 5.95633 7.33689 7.74211 7.33689 9.00101C7.33689 10.3984 7.35081 11.3943 7.35081 12.0354C7.35081 12.6766 5.86621 13.583 5.86621 13.583V14.3715H16.0694V13.583C16.0694 13.583 14.5862 12.6766 14.5862 12.0354C14.5862 11.3943 14.5994 10.3984 14.5994 9.00101Z" fill="#a8adb4"/>
</svg>