<svg width="14" height="14" viewBox="0 0 14 14" fill="none" xmlns="http://www.w3.org/2000/svg">
<path fill-rule="evenodd" clip-rule="evenodd" d="M3.14355 2.90918C2.59127 2.90918 2.14355 3.3569 2.14355 3.90918V9.22083C2.14355 9.77312 2.59127 10.2208 3.14356 10.2208H10.8565C11.4088 10.2208 11.8565 9.77311 11.8565 9.22083V3.90918C11.8565 3.35689 11.4088 2.90918 10.8565 2.90918H3.14355ZM3.81548 4.08141C3.64979 4.08141 3.51548 4.21572 3.51548 4.38141V8.81754C3.51548 8.98322 3.64979 9.11754 3.81548 9.11754H10.1846C10.3503 9.11754 10.4846 8.98322 10.4846 8.81754V4.38141C10.4846 4.21572 10.3503 4.08141 10.1846 4.08141H3.81548Z" fill="white"/>
</svg>
