<svg width="26" height="26" viewBox="0 0 26 26" fill="none" xmlns="http://www.w3.org/2000/svg">
<rect width="26" height="26" rx="13" fill="#207EDE"/>
<path fill-rule="evenodd" clip-rule="evenodd" d="M16.594 17.187H9.49051C9.42972 17.187 9.36947 17.1848 9.30981 17.1803C7.70438 17.1429 6.4143 15.801 6.41422 14.1511C6.41468 13.3469 6.72764 12.5759 7.28426 12.0075C7.56957 11.7162 7.90692 11.4905 8.27395 11.3397C8.26781 11.2578 8.26468 11.1751 8.26468 11.0917C8.26519 10.2431 8.59542 9.42959 9.18274 8.82997C9.77005 8.23034 10.5663 7.89377 11.3964 7.89429C12.4598 7.89562 13.3985 8.43915 13.9627 9.26875C14.2306 9.17171 14.519 9.11897 14.8195 9.11913C16.1468 9.12077 17.237 10.155 17.3633 11.4777C18.6352 11.7611 19.5869 12.9193 19.5858 14.304C19.5845 15.8998 18.3183 17.1926 16.7571 17.1919C16.7024 17.1919 16.648 17.1902 16.594 17.187Z" fill="white"/>
</svg>
