<svg width="20" height="20" viewBox="0 0 20 20" fill="none" xmlns="http://www.w3.org/2000/svg">
	<path fill-rule="evenodd" clip-rule="evenodd" d="M5.40994 13.8759H4.40163C3.92595 13.8759 3.54034 13.4903 3.54034 13.0146C3.54034 12.5389 3.92595 12.1533 4.40163 12.1533H5.40994C5.76465 11.1497 6.72175 10.4307 7.84677 10.4307C8.9718 10.4307 9.92889 11.1497 10.2836 12.1533H15.5983C16.074 12.1533 16.4596 12.5389 16.4596 13.0146C16.4596 13.4903 16.074 13.8759 15.5983 13.8759H10.2836C9.92889 14.8794 8.9718 15.5984 7.84677 15.5984C6.72175 15.5984 5.76465 14.8794 5.40994 13.8759ZM9.71637 7.84688H4.40163C3.92595 7.84688 3.54034 7.46127 3.54034 6.98559C3.54034 6.50992 3.92595 6.12431 4.40163 6.12431H9.71637C10.0711 5.12074 11.0282 4.40173 12.1532 4.40173C13.2782 4.40173 14.2353 5.12074 14.59 6.12431H15.5983C16.074 6.12431 16.4596 6.50992 16.4596 6.98559C16.4596 7.46127 16.074 7.84688 15.5983 7.84688H14.59C14.2353 8.85044 13.2782 9.56945 12.1532 9.56945C11.0282 9.56945 10.0711 8.85044 9.71637 7.84688ZM12.1532 7.84688C12.6289 7.84688 13.0145 7.46127 13.0145 6.98559C13.0145 6.50992 12.6289 6.12431 12.1532 6.12431C11.6775 6.12431 11.2919 6.50992 11.2919 6.98559C11.2919 7.46127 11.6775 7.84688 12.1532 7.84688ZM7.84677 13.8759C8.32245 13.8759 8.70806 13.4903 8.70806 13.0146C8.70806 12.5389 8.32245 12.1533 7.84677 12.1533C7.3711 12.1533 6.98549 12.5389 6.98549 13.0146C6.98549 13.4903 7.3711 13.8759 7.84677 13.8759Z" fill="#a8adb4"/>
</svg>