<svg width="16" height="13" viewBox="0 0 16 13" fill="none" xmlns="http://www.w3.org/2000/svg">
<path fill-rule="evenodd" clip-rule="evenodd" d="M13.5124 6.02818C13.5124 6.00199 13.5143 5.9758 13.5143 5.94961C13.5143 4.18801 12.1441 2.75833 10.4546 2.75833C10.1081 2.75828 9.76421 2.81949 9.43894 2.93913C8.98162 1.72551 7.82658 0.916775 6.52975 0.902161C4.79364 0.902161 3.38761 2.37078 3.38761 4.18129C3.38761 4.20099 3.38761 4.22046 3.389 4.24016C1.8349 4.84479 0.818179 6.34923 0.836768 8.0167C0.836768 10.2312 2.55804 12.0267 4.68169 12.0267C4.72457 12.0267 4.76699 12.0246 4.80964 12.0232V12.0267H12.7635C14.4071 11.9813 15.7062 10.6181 15.6724 8.97423C15.6903 7.6203 14.809 6.41836 13.5124 6.02818ZM8.17587 10.0797C7.01806 10.1258 5.94836 9.46382 5.47313 8.40703C4.9979 7.35024 5.21249 6.11071 6.01532 5.27518C6.81816 4.43965 8.04815 4.17578 9.12305 4.60847C10.198 5.04116 10.9021 6.0836 10.9022 7.24233C10.932 8.77837 9.71189 10.0482 8.17587 10.0797ZM9.31299 7.24487H8.20272V5.87732C8.21078 5.75208 8.14854 5.63275 8.04123 5.56769C7.93391 5.50263 7.79933 5.50263 7.69202 5.56769C7.58471 5.63275 7.52247 5.75208 7.53053 5.87732V7.59418C7.52678 7.78382 7.67744 7.94061 7.86709 7.94442H9.31299C9.4976 7.93253 9.64117 7.7792 9.64093 7.59421C9.64068 7.40922 9.4967 7.25627 9.31206 7.24487H9.31299Z" fill="#A8ADB4"/>
</svg>
