<svg width="26" height="26" viewBox="0 0 26 26" fill="none" xmlns="http://www.w3.org/2000/svg">
<rect width="26" height="26" rx="13" fill="#207EDE"/>
<path d="M13.3114 4.42709C13.1945 4.42709 13.0747 4.43308 12.9509 4.44179C9.78156 4.68506 10.6224 7.93089 10.5752 9.01337C10.5167 9.80415 10.3502 10.4306 9.78775 11.205C9.12238 11.9675 8.31584 12.5742 7.87376 13.8575C7.66622 14.461 7.56611 15.0825 7.66004 15.6665C7.62466 15.6919 7.59564 15.7246 7.57511 15.7623C7.38163 15.9582 7.23764 16.1993 7.0796 16.3718C6.93055 16.5161 6.71682 16.565 6.48172 16.6614C6.24775 16.7599 5.98678 16.8568 5.83435 17.1572C5.76686 17.2938 5.73143 17.4407 5.7348 17.5942C5.7348 17.7357 5.75561 17.8832 5.77586 17.9822C5.82029 18.2712 5.8636 18.5096 5.80511 18.6854C5.61781 19.1779 5.59757 19.5153 5.72637 19.7624C5.85741 20.0063 6.12739 20.1026 6.42885 20.1995C7.03854 20.3437 7.86139 20.298 8.51213 20.6327C9.20562 20.9728 9.91205 21.1203 10.4745 20.9761C10.6685 20.934 10.8504 20.8506 11.0069 20.732C11.1634 20.6134 11.2907 20.4625 11.3795 20.2903C11.8187 20.2876 12.3019 20.0944 13.073 20.0465C13.5972 20.0035 14.2535 20.2419 15.0061 20.1907C15.0263 20.2903 15.0528 20.335 15.0938 20.4346V20.4373C15.3863 21.0011 15.9285 21.2564 16.5089 21.2139C17.0854 21.1687 17.7007 20.8259 18.1985 20.2648C18.6732 19.7118 19.4612 19.4789 19.9826 19.1763C20.2435 19.031 20.4544 18.8361 20.4691 18.5553C20.4865 18.2663 20.32 17.9659 19.9359 17.5577V17.4864L19.9331 17.4837C19.8043 17.3395 19.7458 17.0957 19.6783 16.8127C19.6136 16.5204 19.5433 16.2429 19.3093 16.0529C19.2621 16.0132 19.2154 16.0045 19.1659 15.9566C19.1243 15.9283 19.0755 15.9117 19.0247 15.9087C19.347 14.9813 19.221 14.0605 18.8925 13.2294C18.4943 12.2063 17.5753 11.0342 17.2637 10.7014C16.9521 10.3687 15.9555 9.9081 15.9673 8.88493C15.9875 7.32243 16.1456 4.43471 13.3103 4.42872L13.3114 4.42709ZM13.7068 6.89847H13.7186C13.8767 6.89847 14.0139 6.94419 14.1551 7.04051C14.2985 7.13902 14.4043 7.28161 14.483 7.42856C14.5623 7.61577 14.6039 7.76 14.609 7.95266C14.609 7.93905 14.6118 7.92436 14.6118 7.91075V7.98694C14.6118 7.98096 14.609 7.97606 14.609 7.97007L14.6062 7.95266C14.6062 8.12899 14.5685 8.30478 14.4954 8.46587C14.4606 8.55758 14.4055 8.64081 14.334 8.70969C14.3137 8.6988 14.2929 8.68738 14.2693 8.67867C14.1905 8.64438 14.1202 8.6335 14.0556 8.58288C14.0023 8.56225 13.9474 8.54605 13.8913 8.53444C13.9268 8.49254 13.9999 8.43811 14.0291 8.39022C14.0674 8.29933 14.0876 8.20028 14.0938 8.09851V8.08382C14.0954 7.98557 14.0794 7.8878 14.0466 7.79483C14.0145 7.6985 13.974 7.64952 13.9121 7.55373C13.8474 7.50529 13.7861 7.4574 13.7097 7.4574H13.6984C13.6281 7.4574 13.5662 7.47699 13.5021 7.55373C13.4317 7.62086 13.3794 7.70363 13.3497 7.79483C13.3088 7.88626 13.2859 7.98427 13.2822 8.08382V8.09851C13.2822 8.16327 13.2884 8.22858 13.2963 8.29389C13.15 8.246 12.9684 8.1943 12.8396 8.1464C12.8325 8.09861 12.8286 8.05045 12.8277 8.00218V7.98749C12.822 7.79583 12.8603 7.60532 12.9397 7.42964C13.001 7.27073 13.1123 7.13412 13.2619 7.04378C13.3902 6.95072 13.5454 6.89956 13.7068 6.89956V6.89847ZM11.4863 6.94146H11.5128C11.6185 6.94146 11.7152 6.97575 11.812 7.03779C11.9228 7.1314 12.0116 7.24732 12.0701 7.37468C12.1376 7.51999 12.1753 7.66693 12.1871 7.85959V7.86231C12.1899 7.95864 12.1899 8.01034 12.1843 8.05552V8.11484L12.123 8.13171C12.0088 8.17144 11.9183 8.22804 11.8266 8.27702C11.8356 8.21171 11.8356 8.1464 11.8294 8.08382V8.07239C11.821 7.9766 11.8002 7.92816 11.7681 7.83129C11.7441 7.7568 11.7007 7.68952 11.6421 7.63591C11.6053 7.60413 11.557 7.5877 11.5077 7.59019H11.4897C11.4374 7.59292 11.393 7.61849 11.3525 7.68652C11.3029 7.74171 11.2714 7.8099 11.2619 7.88245C11.2411 7.95864 11.2349 8.04082 11.2439 8.12355V8.13171C11.2529 8.2313 11.2703 8.27974 11.3052 8.37553C11.3278 8.44936 11.3704 8.51604 11.4284 8.56873C11.4374 8.57744 11.4436 8.58343 11.4548 8.5856C11.4025 8.6286 11.3671 8.63731 11.3238 8.6852C11.294 8.70533 11.2625 8.73091 11.2242 8.7369C11.1462 8.64611 11.0775 8.54824 11.0189 8.44465C10.9472 8.29209 10.9074 8.12727 10.9019 7.95973C10.8906 7.79599 10.9104 7.63162 10.9604 7.47482C11.0049 7.33331 11.0752 7.19998 11.1742 7.08678C11.2709 6.99045 11.3676 6.94255 11.4874 6.94255L11.4863 6.94146ZM12.5145 8.18015C12.7636 8.18015 13.0628 8.22532 13.4256 8.46914C13.6455 8.61445 13.8188 8.66506 14.217 8.80656C14.4105 8.90616 14.5213 9.00249 14.5769 9.09882V9.00249C14.6036 9.05506 14.6185 9.11252 14.6205 9.17106C14.6226 9.22961 14.6117 9.2879 14.5887 9.34209C14.4948 9.56904 14.2018 9.81013 13.7895 9.95436V9.95708C13.5899 10.0534 13.4144 10.1982 13.2091 10.2945C13.0015 10.3908 12.7664 10.5073 12.4503 10.4877C12.3359 10.4926 12.2215 10.4761 12.1134 10.4393C12.0301 10.3965 11.9499 10.3483 11.8733 10.295C11.727 10.1987 11.6011 10.054 11.4138 9.95762V9.9549H11.411C11.1089 9.77639 10.9481 9.58319 10.8952 9.43897C10.8457 9.24358 10.8924 9.09936 11.042 9.00303C11.2085 8.9067 11.3255 8.80711 11.402 8.75921C11.4807 8.70533 11.5105 8.6852 11.5341 8.66561H11.5369V8.66288C11.6629 8.5154 11.8615 8.32274 12.1669 8.22586C12.2687 8.20028 12.3862 8.18015 12.5145 8.18015ZM14.6118 9.73285C14.8818 10.762 15.4337 11.8766 15.8381 12.5993C16.0518 12.9874 16.6821 13.5565 16.8666 14.5465C16.9836 14.5437 17.1124 14.5601 17.2508 14.5944C17.7367 13.3813 16.8436 12.0773 16.4364 11.7143C16.2693 11.57 16.2609 11.4732 16.3424 11.4732C16.7851 11.8585 17.3644 12.6133 17.5753 13.4716C17.672 13.8596 17.6962 14.2744 17.5933 14.6847C17.6428 14.7043 17.6929 14.7299 17.7457 14.7326C18.5191 15.1217 18.8059 15.4134 18.6681 15.8494V15.8184C18.6248 15.8162 18.5776 15.8184 18.5337 15.8184H18.5219C18.6366 15.4787 18.3847 15.2175 17.7227 14.9285C17.037 14.6395 16.4892 14.6847 16.3953 15.266C16.3887 15.2988 16.3849 15.3321 16.3841 15.3655C16.3306 15.3824 16.2783 15.402 16.226 15.4107C15.9037 15.6066 15.7305 15.8984 15.6315 16.2728C15.5348 16.6608 15.5055 17.1115 15.4791 17.6307C15.4611 17.8745 15.3503 18.2397 15.2384 18.6108C14.1135 19.3902 12.5521 19.7276 11.2287 18.8546C11.1432 18.7131 11.0437 18.5825 10.9267 18.4666C10.8705 18.3765 10.8005 18.2952 10.7192 18.2255C10.8564 18.2255 10.9739 18.2032 11.0679 18.1771C11.1751 18.1271 11.2595 18.0404 11.3047 17.9338C11.384 17.7406 11.3047 17.4287 11.0437 17.0886C10.7866 16.7517 10.3468 16.3686 9.70507 15.9865C9.23093 15.6975 8.96434 15.3547 8.84116 14.9742C8.71799 14.5862 8.73542 14.1862 8.82935 13.7813C9.01383 13.0046 9.48572 12.2482 9.78775 11.7741C9.86649 11.729 9.81418 11.8737 9.48009 12.4833C9.18369 13.0275 8.7546 14.4495 9.62264 15.4107C9.652 14.6925 9.69805 13.9838 9.99032 13.323C10.4116 12.3962 11.0566 11.2763 11.1269 9.99517C11.1624 10.0235 11.2883 10.0948 11.3435 10.1427C11.5049 10.239 11.6275 10.3838 11.7861 10.4801C11.9441 10.6243 12.1433 10.7239 12.4425 10.7239C12.4717 10.7266 12.4982 10.7266 12.524 10.7266C12.8317 10.7266 13.0724 10.6303 13.2709 10.5334C13.4875 10.4338 13.6641 10.2896 13.8272 10.2417H13.83C14.1787 10.1454 14.4571 9.94946 14.6124 9.73394L14.6118 9.73285ZM13.5111 9.68496C13.1855 9.82918 12.8019 10.073 12.3947 10.073C11.9875 10.073 11.668 9.88089 11.4368 9.73557C11.3198 9.63707 11.2259 9.54019 11.1556 9.49176C11.0324 9.39597 11.0471 9.24848 11.0999 9.24848C11.1815 9.25937 11.1967 9.34699 11.249 9.39597C11.3227 9.44386 11.4104 9.54019 11.5184 9.63707C11.7383 9.78129 12.0313 9.97667 12.3941 9.97667C12.758 9.97667 13.1855 9.78129 13.4431 9.63707C13.5893 9.54074 13.7766 9.39597 13.929 9.29964C14.046 9.20005 14.0409 9.10372 14.1365 9.10372C14.2333 9.11514 14.1635 9.20005 14.0286 9.34481C13.8908 9.44441 13.6804 9.58863 13.5111 9.68496ZM12.6995 8.53444V8.52084C12.6967 8.50614 12.7079 8.48982 12.7226 8.48383C12.7749 8.45281 12.857 8.46369 12.916 8.48655C12.9627 8.48655 13.0358 8.53444 13.0302 8.58506C13.024 8.61935 12.9655 8.6335 12.9273 8.6335C12.8868 8.6335 12.857 8.60247 12.8221 8.58288C12.7839 8.57145 12.7108 8.57689 12.6995 8.53444ZM12.2861 8.53444C12.2709 8.57744 12.2006 8.57145 12.1629 8.58288C12.1275 8.60247 12.0983 8.6335 12.0572 8.6335C12.019 8.6335 11.9576 8.6188 11.9543 8.58288C11.9492 8.53444 12.019 8.48655 12.0662 8.48655C12.1275 8.46315 12.2034 8.45226 12.2619 8.48383C12.2737 8.48982 12.2889 8.50614 12.2827 8.52084V8.53444H12.2861Z" fill="white"/>
</svg>
