<svg width="18" height="12" viewBox="0 0 18 12" fill="none" xmlns="http://www.w3.org/2000/svg">
<path fill-rule="evenodd" clip-rule="evenodd" d="M0.322021 1.91879L0.322021 10.0804C0.322021 11.0794 0.985322 11.8426 1.85347 11.8426L16.1466 11.8426C16.9631 11.8426 17.6781 11.0794 17.6781 10.0804L17.6781 1.91879C17.6781 0.919863 16.9631 0.156639 16.1466 0.156639L1.85347 0.15664C0.986277 0.15664 0.322021 0.919864 0.322021 1.91879ZM16.707 5.99952C16.707 6.43321 16.3462 6.78784 15.9049 6.78784C15.4636 6.78784 15.1028 6.43321 15.1028 5.99952C15.1028 5.56583 15.4636 5.2112 15.9049 5.2112C16.3462 5.2112 16.707 5.56583 16.707 5.99952ZM14.3324 1.66143L14.3324 10.3378L2.49081 10.3378L2.49081 1.66038L14.3324 1.66143Z" fill="#525C69"/>
</svg>
