<svg width="12" height="15" viewBox="0 0 12 15" fill="none" xmlns="http://www.w3.org/2000/svg">
	<path opacity="0.5" fill-rule="evenodd" clip-rule="evenodd" d="M5.84325 0.554978C5.29212 1.04645 4.29912 1.69483 3.33718 2.2147C2.37524 2.73457 1.43678 3.12207 0.694624 3.12207C0.655794 3.12207 0.539933 3.22734 0.535549 3.26738C-0.0700587 8.40807 1.97663 11.5198 5.90591 14.4466C5.93284 14.4666 6.06686 14.4666 6.09379 14.4466C10.0231 11.5198 12.0703 8.40807 11.4641 3.26738C11.4598 3.22798 11.3439 3.12207 11.3051 3.12207C10.5629 3.12207 9.62449 2.73457 8.66252 2.2147C7.70055 1.69483 6.7075 1.04643 6.15645 0.554978C6.13516 0.53625 5.87206 0.529791 5.84325 0.554978Z" fill="#525C69"/>
</svg>