<svg width="14" height="16" viewBox="0 0 14 16" fill="none" xmlns="http://www.w3.org/2000/svg">
<path fill-rule="evenodd" clip-rule="evenodd" d="M5.30329 13.4464C5.30329 13.4564 5.30056 13.4655 5.30056 13.4746C5.30056 14.463 6.10259 15.2651 7.09104 15.2651C8.07949 15.2651 8.88152 14.463 8.88152 13.4746C8.88152 13.4655 8.8788 13.4564 8.8788 13.4464H5.30329ZM11.5513 5.81615C11.5513 4.2521 10.3383 2.03332 7.92945 1.61502V1.57501C7.92945 1.0867 7.52934 0.6875 7.04103 0.6875C6.55271 0.6875 6.15352 1.0867 6.15352 1.57501V1.61684C3.74923 2.03786 2.5389 4.25392 2.5389 5.81615C2.5389 7.55026 2.55618 8.78605 2.55618 9.58172C2.55618 10.3774 0.713867 11.5022 0.713867 11.5022V12.4807H13.3755V11.5022C13.3755 11.5022 11.535 10.3774 11.535 9.58172C11.535 8.78605 11.5513 7.55026 11.5513 5.81615Z" fill="#fff"/>
</svg>