<svg width="48" height="48" viewBox="0 0 48 48" fill="none" xmlns="http://www.w3.org/2000/svg">
<circle opacity="0.1" cx="24" cy="24" r="24" fill="#2FC6F6"/>
<path fill-rule="evenodd" clip-rule="evenodd" d="M31.5 19.2426L26.2574 14H17V33H21.4077L20.7758 36H16C14.8954 36 14 35.1046 14 34V13C14 11.8954 14.8954 11 16 11H26.6716C27.202 11 27.7107 11.2107 28.0858 11.5858L33.9142 17.4142C34.2893 17.7893 34.5 18.298 34.5 18.8284V23.3898L31.5 23.3625V19.2426ZM32.5 36H29.2433L34.5 29.1171V34C34.5 35.1046 33.6046 36 32.5 36ZM28.8758 19.4138C28.9592 19.2971 29.0974 19.2452 29.2285 19.2813C29.4091 19.331 29.5199 19.5297 29.4794 19.7281L29.4774 19.7374L27.9658 26.3551H31.7074C31.8182 26.3551 31.9257 26.3968 32.012 26.4732C32.2179 26.6555 32.2523 26.9847 32.0913 27.2133L32.0849 27.2222L24.9731 36.8994C24.887 37.0166 24.7455 37.066 24.6136 37.0252C24.4343 36.9697 24.3289 36.7674 24.3747 36.5705L24.377 36.5612L26.0632 29.9992H22.3044C22.1958 29.9992 22.0903 29.9591 22.0049 29.8855C21.7968 29.7061 21.7583 29.3775 21.9167 29.1465L21.9228 29.1376L28.8758 19.4138Z" fill="#05A9DD"/>
</svg>
