<svg width="14" height="13" viewBox="0 0 14 13" fill="none" xmlns="http://www.w3.org/2000/svg">
	<path fill-rule="evenodd" clip-rule="evenodd" d="M0.927682 1.70047C0.654315 1.97384 0.654314 2.41706 0.927681 2.69042L4.73731 6.50005L0.927692 10.3097C0.654325 10.583 0.654326 11.0263 0.927693 11.2996L2.20048 12.5724C2.47385 12.8458 2.91707 12.8458 3.19043 12.5724L7.00005 8.76279L10.8097 12.5724C11.083 12.8458 11.5263 12.8458 11.7996 12.5724L13.0724 11.2996C13.3458 11.0263 13.3458 10.583 13.0724 10.3097L9.26279 6.50005L13.0724 2.69042C13.3458 2.41706 13.3458 1.97384 13.0724 1.70047L11.7996 0.427682C11.5263 0.154315 11.083 0.154314 10.8097 0.427681L7.00005 4.23731L3.19042 0.427681C2.91706 0.154314 2.47384 0.154315 2.20047 0.427682L0.927682 1.70047Z" fill="#525C69"/>
</svg>