<svg width="24" height="24" viewBox="0 0 24 24" fill="none" xmlns="http://www.w3.org/2000/svg">
<path fill-rule="evenodd" clip-rule="evenodd" d="M12 20.0314C16.4356 20.0314 20.0314 16.4356 20.0314 12C20.0314 7.56431 16.4356 3.96851 12 3.96851C7.56431 3.96851 3.96851 7.56431 3.96851 12C3.96851 16.4356 7.56431 20.0314 12 20.0314ZM11.9999 18.2784C15.4674 18.2784 18.2784 15.4674 18.2784 11.9999C18.2784 8.5324 15.4674 5.72144 11.9999 5.72144C8.5324 5.72144 5.72144 8.5324 5.72144 11.9999C5.72144 15.4674 8.5324 18.2784 11.9999 18.2784ZM11.0002 8H13.0002V11H16.0002V13H13.0002V16H11.0002V13H8.00016V11H11.0002V8Z" fill="#A8ADB4"/>
</svg>
