<svg width="67" height="13" viewBox="0 0 67 13" fill="none" xmlns="http://www.w3.org/2000/svg">
	<g fill="#d5d7db">
		<path fill-rule="evenodd" clip-rule="evenodd" d="M2.62119 7.49076C3.86635 7.49076 4.38299 7.09473 4.38299 6.2632C4.38299 5.78797 4.19756 5.45796 3.89291 5.27308C3.5617 5.07511 3.08481 5.02228 2.54171 5.02228H1.94559V7.49076H2.62119ZM0.130859 0.270203H5.8666L5.41617 1.73547H1.94559V3.55711H2.54171C3.48222 3.55711 4.31678 3.67587 4.96583 4.01916C5.73419 4.4151 6.19781 5.12795 6.19781 6.23674C6.19781 7.7943 5.2573 8.9692 2.58145 8.9692H0.130859V0.270203ZM7.17773 2.72549H8.91307V5.22034C8.91307 5.73513 8.89979 6.23674 8.86005 6.59312H8.89979L8.91455 6.56772C9.06541 6.30798 9.36189 5.79755 9.7078 5.29955L11.4962 2.72549H13.2447V8.9692H11.4962V6.47436C11.4962 5.95957 11.5226 5.45796 11.5624 5.10158H11.5226C11.3769 5.35238 11.059 5.88036 10.7146 6.39515L8.92626 8.9692H7.17773V2.72549ZM13.9609 4.20391H15.8287V8.96917H17.6169V4.20391H19.4053L19.8689 2.72546H13.9609V4.20391ZM22.9687 7.63598C24.0417 7.63598 24.5716 6.9364 24.5716 5.8408C24.5716 4.62634 23.9092 4.03234 22.8098 4.03234C22.5845 4.03234 22.3991 4.04553 22.2004 4.11155V7.50394C22.4388 7.58314 22.6641 7.63598 22.9687 7.63598ZM20.4121 2.97629C21.101 2.73868 21.9487 2.56708 22.8893 2.56708C25.2206 2.56708 26.3996 3.87393 26.3996 5.8408C26.3996 7.71518 25.1279 9.10124 23.1012 9.10124C22.7965 9.10124 22.4918 9.06159 22.2004 8.98239V12.0976H20.4121V2.97629ZM28.9814 2.72549H27.2461V8.9692H28.9946L30.783 6.39515C31.1274 5.88036 31.4453 5.35238 31.591 5.10158H31.6307C31.591 5.45796 31.5645 5.95957 31.5645 6.47436V8.9692H33.313V2.72549H31.5645L29.7762 5.29955C29.4302 5.79755 29.1338 6.30798 28.9829 6.56772L28.9682 6.59312H28.9284C28.9682 6.23674 28.9814 5.73513 28.9814 5.22034V2.72549ZM34.4668 2.72549H36.2552V5.11476H36.9174C37.3818 5.11476 37.5506 4.63552 37.7411 4.09457C37.8603 3.75585 37.9881 3.39294 38.2024 3.10833C38.4408 2.77832 38.8117 2.56708 39.3813 2.56708C39.5668 2.56708 39.8979 2.59345 40.0967 2.65947V4.17757C39.9906 4.13792 39.8582 4.11155 39.7257 4.11155C39.527 4.11155 39.3945 4.17757 39.2886 4.30951C39.1585 4.47158 39.0728 4.70217 38.9851 4.93796C38.8585 5.27837 38.728 5.62961 38.454 5.80115V5.82752C38.7588 5.94637 38.9838 6.17071 39.1694 6.56674L40.2953 8.9692H38.3613L37.6194 7.01552C37.4606 6.63276 37.3016 6.46117 37.1294 6.46117H36.2552V8.9692H34.4668V2.72549ZM43.9639 2.56708C42.1225 2.56708 40.5859 3.9003 40.5859 5.88035C40.5859 7.71518 41.7516 9.10124 43.8314 9.10124C44.7057 9.10124 45.5136 8.83716 46.0303 8.46759L45.5269 7.25323C45.0633 7.51712 44.6394 7.67563 44.0831 7.67563C43.0763 7.67563 42.4139 7.04198 42.4139 5.86717C42.4139 4.81112 43.063 3.97951 44.1625 3.97951C44.7718 3.97951 45.2487 4.16438 45.6991 4.50758V3.01594C45.3679 2.8047 44.8116 2.56708 43.9639 2.56708Z"/>
		<path fill-rule="evenodd" clip-rule="evenodd" d="M63.9684 5.34478C62.7126 5.34478 61.6945 4.32693 61.6945 3.07142C61.6945 1.8159 62.7126 0.798135 63.9684 0.798135C65.2243 0.798135 66.2423 1.8159 66.2423 3.07142C66.2423 4.32693 65.2243 5.34478 63.9684 5.34478ZM63.9684 0.14859C62.3538 0.14859 61.0449 1.45716 61.0449 3.07142C61.0449 4.68567 62.3538 5.99433 63.9684 5.99433C65.583 5.99433 66.8919 4.68567 66.8919 3.07142C66.8919 1.45716 65.583 0.14859 63.9684 0.14859ZM50.1252 1.71874C50.7872 1.71874 51.4094 1.9826 51.4094 2.73468C51.4094 3.41193 50.7902 3.86086 50.0187 4.42015C48.8364 5.27732 47.2964 6.39371 47.0801 8.98855H53.4219V7.45812H49.4367C49.678 6.66219 50.438 6.08496 51.221 5.49023C52.2423 4.71455 53.3027 3.90912 53.3027 2.5499C53.3027 1.1778 52.3627 0.201447 50.4165 0.201447C49.172 0.201447 48.126 0.584055 47.3713 0.927164L47.8348 2.31249C48.51 2.00896 49.2382 1.71874 50.1252 1.71874ZM57.0092 5.46581H56.2148C55.9103 5.46581 55.2748 5.49217 55.1159 5.5054L57.0887 2.90622C57.0621 3.07769 57.0092 3.85621 57.0092 4.52904V5.46581ZM57.4725 0.227875L53.1035 5.76926V6.91708H57.0092V8.98854H58.7701V6.91708H60.0676V5.46581H58.7701V0.227875H57.4725ZM63.6426 3.39619H64.2922H65.2667V2.74664H64.2922V1.77237H63.6426V2.74664V3.39619Z"/>
	</g>
</svg>