<svg width="451" height="629" viewBox="0 0 451 629" fill="none" xmlns="http://www.w3.org/2000/svg">
<rect width="451" height="629" fill="url(#paint0_linear_378_73172)"/>
<rect width="451" height="629" fill="white"/>
<rect opacity="0.4" x="46.5156" y="312" width="343.812" height="3" rx="1.5" fill="#1EC6FA"/>
<rect opacity="0.4" x="46.5156" y="354" width="248.758" height="3" rx="1.5" fill="#1EC6FA"/>
<rect opacity="0.7" x="46.5156" y="284" width="223.478" height="3" rx="1.5" fill="#1EC6FA"/>
<rect opacity="0.4" x="46.5156" y="340" width="343.812" height="3" rx="1.5" fill="#1EC6FA"/>
<rect opacity="0.4" x="46.5156" y="326" width="329.655" height="3" rx="1.5" fill="#1EC6FA"/>
<rect opacity="0.4" x="46.5156" y="298" width="329.655" height="3" rx="1.5" fill="#1EC6FA"/>
<rect opacity="0.7" x="46.5156" y="82" width="341.789" height="3" rx="1.5" fill="#1EC6FA"/>
<rect opacity="0.4" x="46.5156" y="194" width="316.509" height="3" rx="1.5" fill="#1EC6FA"/>
<rect opacity="0.4" x="46.5156" y="236" width="252.803" height="3" rx="1.5" fill="#1EC6FA"/>
<rect opacity="0.4" x="46.5156" y="138" width="329.655" height="3" rx="1.5" fill="#1EC6FA"/>
<rect opacity="0.4" x="46.5156" y="110" width="312.464" height="3" rx="1.5" fill="#1EC6FA"/>
<rect opacity="0.4" x="46.5156" y="166.139" width="343.812" height="3" rx="1.5" fill="#1EC6FA"/>
<rect opacity="0.4" x="46.5156" y="208" width="343.812" height="3" rx="1.5" fill="#1EC6FA"/>
<rect opacity="0.4" x="46.5156" y="96" width="321.565" height="3" rx="1.5" fill="#1EC6FA"/>
<rect opacity="0.4" x="46.5156" y="152.139" width="329.655" height="3" rx="1.5" fill="#1EC6FA"/>
<rect opacity="0.4" x="46.5156" y="124.139" width="329.655" height="3" rx="1.5" fill="#1EC6FA"/>
<rect opacity="0.4" x="46.5156" y="180.139" width="338.756" height="3" rx="1.5" fill="#1EC6FA"/>
<rect opacity="0.4" x="46.5156" y="222" width="338.756" height="3" rx="1.5" fill="#1EC6FA"/>
<rect opacity="0.7" x="46.5156" y="403.642" width="151.682" height="3" rx="1.5" fill="#1EC6FA"/>
<rect opacity="0.4" x="46.5156" y="417.642" width="118.312" height="3" rx="1.5" fill="#1EC6FA"/>
<rect opacity="0.4" x="46.5156" y="459.642" width="130.446" height="3" rx="1.5" fill="#1EC6FA"/>
<rect opacity="0.4" x="46.5156" y="431.642" width="139.547" height="3" rx="1.5" fill="#1EC6FA"/>
<rect opacity="0.4" x="46.5156" y="474" width="80.8969" height="3" rx="1.5" fill="#1EC6FA"/>
<rect opacity="0.4" x="46.5156" y="445.642" width="148.648" height="3" rx="1.5" fill="#1EC6FA"/>
<rect opacity="0.7" x="246.735" y="403.642" width="148.648" height="3" rx="1.5" fill="#1EC6FA"/>
<rect opacity="0.4" x="246.735" y="417.642" width="138.536" height="3" rx="1.5" fill="#1EC6FA"/>
<rect opacity="0.4" x="246.735" y="459.642" width="143.592" height="3" rx="1.5" fill="#1EC6FA"/>
<rect opacity="0.4" x="246.735" y="431.642" width="139.547" height="3" rx="1.5" fill="#1EC6FA"/>
<rect opacity="0.4" x="246.735" y="474" width="113.256" height="3" rx="1.5" fill="#1EC6FA"/>
<rect opacity="0.4" x="246.735" y="446" width="101.121" height="3" rx="1.5" fill="#1EC6FA"/>
<rect opacity="0.1" x="246.735" y="563.896" width="82.9193" height="1.00159" rx="0.500793" fill="#2FC6F6"/>
<path opacity="0.3" fill-rule="evenodd" clip-rule="evenodd" d="M105.005 535.397C105.234 534.38 103.939 533.736 103.252 534.525L90.6866 548.95C88.7364 551.188 85.0374 549.584 85.3756 546.646L85.8493 542.532C85.9603 541.568 84.761 541.027 84.0991 541.742L71.0977 555.794C69.0827 557.972 65.437 556.265 65.8579 553.34L67.5132 541.839C67.6466 540.912 66.5384 540.327 65.836 540.953L51.2367 553.958C50.8215 554.327 50.1821 554.294 49.8087 553.883C49.4352 553.471 49.4691 552.838 49.8843 552.468L64.4836 539.463C66.591 537.586 69.9154 539.342 69.5154 542.121L67.8601 553.623C67.7198 554.598 68.935 555.167 69.6067 554.441L82.6081 540.389C84.5937 538.243 88.1917 539.867 87.8587 542.759L87.385 546.873C87.2723 547.853 88.5053 548.387 89.1554 547.641L101.721 533.216C103.781 530.851 107.665 532.783 106.979 535.832L103.177 552.74C102.951 553.743 104.214 554.392 104.912 553.632L117.564 539.852C117.939 539.443 118.579 539.413 118.992 539.785C119.405 540.157 119.436 540.791 119.06 541.2L106.408 554.98C104.315 557.26 100.526 555.313 101.203 552.305L105.005 535.397Z" fill="#2FC6F6"/>
<path opacity="0.3" fill-rule="evenodd" clip-rule="evenodd" d="M304.214 540.404C304.442 539.388 303.148 538.744 302.461 539.532L293.94 548.949C291.99 551.188 288.291 549.583 288.629 546.646L289.103 542.532C289.214 541.567 288.014 541.026 287.353 541.741L280.418 549.784C278.404 551.962 274.758 550.254 275.179 547.33L273.8 538.833C273.934 537.907 272.826 537.321 272.123 537.947L259.546 553.957C259.131 554.327 258.492 554.293 258.118 553.882C257.745 553.471 257.779 552.837 258.194 552.467L270.771 536.458C272.878 534.58 276.203 536.337 275.803 539.116L277.181 547.613C277.041 548.587 278.256 549.157 278.927 548.431L285.862 540.388C287.847 538.242 291.445 539.866 291.112 542.758L290.639 546.873C290.526 547.852 291.759 548.387 292.409 547.64L300.93 538.223C302.99 535.858 306.873 537.791 306.188 540.839L303.397 552.74C303.171 553.742 304.434 554.391 305.132 553.631L317.783 536.847C318.159 536.437 318.799 536.407 319.212 536.779C319.625 537.152 319.655 537.785 319.28 538.194L306.628 554.979C304.535 557.259 300.746 555.312 301.423 552.304L304.214 540.404Z" fill="#2FC6F6"/>
<g opacity="0.3">
<path d="M152.417 570.908L179.995 543.592L187.146 550.674L159.567 577.99L152.417 570.908Z" fill="#2FC6F6"/>
<path fill-rule="evenodd" clip-rule="evenodd" d="M169.883 531.026C153.231 531.026 139.731 544.397 139.731 560.892C139.731 577.386 153.231 590.757 169.883 590.757C186.536 590.757 200.036 577.386 200.036 560.892C200.036 544.397 186.536 531.026 169.883 531.026ZM137.525 560.892C137.525 543.191 152.012 528.841 169.883 528.841C187.755 528.841 202.242 543.191 202.242 560.892C202.242 578.593 187.755 592.943 169.883 592.943C152.012 592.943 137.525 578.593 137.525 560.892Z" fill="#2FC6F6"/>
<path fill-rule="evenodd" clip-rule="evenodd" d="M169.883 542.59C159.679 542.59 151.406 550.784 151.406 560.892C151.406 571 159.679 579.194 169.883 579.194C180.088 579.194 188.361 571 188.361 560.892C188.361 550.784 180.088 542.59 169.883 542.59ZM149.751 560.892C149.751 549.879 158.765 540.951 169.883 540.951C181.002 540.951 190.016 549.879 190.016 560.892C190.016 571.905 181.002 580.833 169.883 580.833C158.765 580.833 149.751 571.905 149.751 560.892Z" fill="#2FC6F6"/>
<path fill-rule="evenodd" clip-rule="evenodd" d="M169.883 536.763C156.429 536.763 145.522 547.566 145.522 560.892C145.522 561.143 145.317 561.347 145.063 561.347C144.809 561.347 144.603 561.143 144.603 560.892C144.603 547.063 155.921 535.852 169.883 535.852C170.137 535.852 170.343 536.056 170.343 536.307C170.343 536.559 170.137 536.763 169.883 536.763ZM194.704 560.437C194.958 560.437 195.164 560.64 195.164 560.892C195.164 574.721 183.845 585.932 169.883 585.932C169.63 585.932 169.424 585.728 169.424 585.476C169.424 585.225 169.63 585.021 169.883 585.021C183.338 585.021 194.244 574.218 194.244 560.892C194.244 560.64 194.45 560.437 194.704 560.437Z" fill="#2FC6F6"/>
<path d="M189.188 544.502C189.188 545.005 188.777 545.413 188.269 545.413C187.761 545.413 187.35 545.005 187.35 544.502C187.35 543.999 187.761 543.592 188.269 543.592C188.777 543.592 189.188 543.999 189.188 544.502Z" fill="#2FC6F6"/>
<path d="M153.336 578.192C153.336 578.695 152.925 579.103 152.417 579.103C151.909 579.103 151.498 578.695 151.498 578.192C151.498 577.689 151.909 577.281 152.417 577.281C152.925 577.281 153.336 577.689 153.336 578.192Z" fill="#2FC6F6"/>
<path d="M164.693 565.879C164.513 565.702 164.513 565.413 164.693 565.236L175.188 554.84C175.368 554.662 175.659 554.662 175.838 554.84C176.018 555.018 176.018 555.306 175.838 555.484L165.343 565.879C165.163 566.057 164.872 566.057 164.693 565.879Z" fill="#2FC6F6"/>
</g>
<g opacity="0.3">
<path fill-rule="evenodd" clip-rule="evenodd" d="M391.967 528.918C377.546 520.671 359.105 525.565 350.778 539.85C342.452 554.134 347.393 572.4 361.815 580.647C376.236 588.894 394.677 584 403.004 569.715C411.33 555.431 406.389 537.165 391.967 528.918ZM348.867 538.757C357.803 523.427 377.593 518.175 393.07 527.025C408.547 535.876 413.85 555.478 404.915 570.808C395.979 586.138 376.189 591.39 360.712 582.539C345.235 573.689 339.932 554.087 348.867 538.757Z" fill="#2FC6F6"/>
<path fill-rule="evenodd" clip-rule="evenodd" d="M386.13 538.933C377.292 533.879 365.991 536.878 360.889 545.632C355.786 554.385 358.815 565.578 367.652 570.632C376.49 575.686 387.791 572.687 392.893 563.933C397.996 555.18 394.967 543.987 386.13 538.933ZM359.456 544.812C365.015 535.275 377.328 532.007 386.957 537.513C396.586 543.02 399.885 555.215 394.326 564.753C388.767 574.29 376.454 577.558 366.825 572.052C357.196 566.545 353.897 554.35 359.456 544.812Z" fill="#2FC6F6"/>
<path d="M401.883 550.149C401.629 550.585 401.067 550.734 400.627 550.482C400.188 550.231 400.037 549.674 400.291 549.239C400.545 548.803 401.107 548.654 401.547 548.905C401.986 549.157 402.137 549.714 401.883 550.149Z" fill="#2FC6F6"/>
<path d="M353.828 561.57C353.574 562.006 353.012 562.155 352.572 561.903C352.132 561.652 351.982 561.095 352.235 560.659C352.489 560.224 353.051 560.075 353.491 560.326C353.931 560.578 354.081 561.135 353.828 561.57Z" fill="#2FC6F6"/>
<path fill-rule="evenodd" clip-rule="evenodd" d="M394.382 544.808L356.709 554.806L359.326 564.481L396.999 554.483L394.382 544.808ZM384.54 552.169L370.203 555.974C369.958 556.039 369.812 556.288 369.878 556.531C369.944 556.774 370.196 556.918 370.441 556.853L384.778 553.048C385.023 552.983 385.169 552.733 385.103 552.49C385.037 552.248 384.785 552.103 384.54 552.169Z" fill="#2FC6F6"/>
</g>
<rect opacity="0.1" x="46.5156" y="563.896" width="81.9081" height="1.00159" rx="0.500793" fill="#2FC6F6"/>
<rect opacity="0.26" x="174.939" y="45.0718" width="101.121" height="4.00637" rx="2.00318" fill="#09ADE1"/>
<defs>
<linearGradient id="paint0_linear_378_73172" x1="427.953" y1="607.079" x2="-1.08833" y2="59.5023" gradientUnits="userSpaceOnUse">
<stop stop-color="#F1FCFF"/>
<stop offset="1" stop-color="white"/>
</linearGradient>
</defs>
</svg>
