<svg width="22" height="22" viewBox="0 0 22 22" fill="none" xmlns="http://www.w3.org/2000/svg">
	<path d="M13.2034 6.07896C14.1223 4.34614 16.2623 3.70416 17.9833 4.64506C18.0909 4.70386 18.1315 4.83933 18.0741 4.94763L11.4758 17.3904C10.9876 18.3109 9.85073 18.652 8.93646 18.1521C8.02219 17.6523 7.67677 16.5008 8.16494 15.5802L13.2034 6.07896Z" fill="#9DCF00"/>
	<path d="M6.96997 6.07896C7.88887 4.34614 10.0289 3.70416 11.7499 4.64506C11.8575 4.70386 11.8981 4.83933 11.8407 4.94763L5.2424 17.3904C4.75423 18.3109 3.61733 18.652 2.70307 18.1521C1.7888 17.6523 1.44337 16.5008 1.93154 15.5802L6.96997 6.07896Z" fill="#2FC6F6"/>
	<path fill-rule="evenodd" clip-rule="evenodd" d="M15.2959 13.5859C15.2754 13.6246 15.2646 13.6679 15.2646 13.7119L15.2648 16.5159C15.2648 17.5906 16.1233 18.4622 17.1817 18.4622C18.2391 18.4622 19.0958 17.5923 19.0957 16.5187L19.0953 7.4751C19.0953 7.19906 18.7321 7.1061 18.6032 7.34914L15.2959 13.5859Z" fill="#D5D7DB"/>
</svg>
