<svg width="22" height="22" viewBox="0 0 22 22" fill="none" xmlns="http://www.w3.org/2000/svg">
	<path d="M0 5.07692C0 2.27302 2.27302 0 5.07692 0H16.9231C19.727 0 22 2.27302 22 5.07692V16.9231C22 19.727 19.727 22 16.9231 22H5.07692C2.27302 22 0 19.727 0 16.9231V5.07692Z" fill="#6ED8F9"/>
	<path fill-rule="evenodd" clip-rule="evenodd" d="M15.4853 16.1271H6.98219C6.90944 16.1271 6.8373 16.1244 6.76589 16.1191C4.84417 16.0749 3.2999 14.4872 3.2998 12.5352C3.30036 11.5838 3.67499 10.6716 4.34127 9.99924C4.68279 9.6546 5.08661 9.38746 5.52595 9.20899C5.5186 9.11218 5.51486 9.01434 5.51486 8.91563C5.51546 7.91175 5.91076 6.94923 6.61379 6.23982C7.31682 5.5304 8.27 5.1322 9.26362 5.13281C10.5364 5.13438 11.6602 5.77743 12.3355 6.75893C12.6562 6.64413 13.0015 6.58174 13.3611 6.58193C14.95 6.58386 16.2549 7.80751 16.4062 9.37235C17.9286 9.70767 19.0678 11.0779 19.0665 12.7162C19.0649 14.6041 17.5492 16.1336 15.6805 16.1328C15.615 16.1328 15.5499 16.1309 15.4853 16.1271Z" fill="white"/>
	<path fill-rule="evenodd" clip-rule="evenodd" d="M14.2983 11.3669C14.2983 9.74697 12.9849 8.43359 11.365 8.43359C9.74503 8.43359 8.43164 9.74697 8.43164 11.3669C8.43164 12.9869 9.74503 14.3003 11.365 14.3003C12.9849 14.3003 14.2983 12.9869 14.2983 11.3669ZM12.5943 11.202H11.5935V9.84791C11.5926 9.65562 11.4222 9.50028 11.2126 9.50084C11.1119 9.50055 11.0153 9.53696 10.9439 9.60206C10.8725 9.66715 10.8323 9.75559 10.832 9.84791V11.5491C10.832 11.742 11.0025 11.8984 11.2127 11.8984C11.2283 11.8984 11.2436 11.8975 11.2586 11.8959H12.5943C12.695 11.8962 12.7917 11.8599 12.8631 11.7949C12.9345 11.7298 12.9749 11.6414 12.9752 11.5491C12.9744 11.3568 12.804 11.2015 12.5943 11.202Z" fill="#5DDB01"/>
</svg>
