<svg xmlns:xlink="http://www.w3.org/1999/xlink" class="defs-only" xmlns="http://www.w3.org/2000/svg" style="width:100%;height:1200px"><svg height="1200"><rect fill="#EBF1F4" width="100%" height="1200"/><rect fill="#FFF" width="100%" height="1200" x="20" y="122"/><rect fill="transparent" stroke="#868D95" opacity=".2" rx="2" ry="2" width="195" height="39" x="100%" y="12" transform="translate(-225)"/></svg><svg height="1200" id="e"><rect fill="#DEE2E6" rx="2" ry="2" width="175" height="12" x="40" y="26"/><rect fill="#DEE2E6" rx="2" ry="2" width="175" height="12" x="100%" y="26" transform="translate(-215)"/><line stroke="#DEE2E6" x1="20" y1="70" x2="100%" y2="70"/><rect fill="#DEE2E6" rx="2" ry="2" width="284" height="6" x="40" y="93"/><rect fill="#DEE2E6" rx="2" ry="2" width="40" height="6" x="100%" y="93" transform="translate(-80)"/><rect fill="#DEE2E6" rx="2" ry="2" width="90" height="6" x="100%" y="93" transform="translate(-190)"/><rect fill="#DEE2E6" rx="2" ry="2" width="40" height="6" x="100%" y="93" transform="translate(-250)"/><rect fill="#DEE2E6" rx="2" ry="2" width="115" height="14" x="60" y="154"/><rect fill="#DEE2E6" rx="2" ry="2" width="115" height="14" x="100%" y="154" transform="translate(-165)"/></svg><svg viewBox="0 0 700 500" x="20" y="198" width="97.5%" id="f" preserveAspectRatio="xMinYMin meet"><defs><g id="a" fill="#ECEDEF" transform="translate(-23)"><rect ry="2" rx="2" width="13" height="5" x="14%"/><rect ry="2" rx="2" width="13" height="5" x="28%"/><rect ry="2" rx="2" width="13" height="5" x="42%"/><rect ry="2" rx="2" width="13" height="5" x="56%"/><rect ry="2" rx="2" width="13" height="5" x="70%"/><rect ry="2" rx="2" width="13" height="5" x="84%"/><rect ry="2" rx="2" width="13" height="5" x="98%"/></g><g id="b"><use xlink:href="#a" y="10"/><rect fill="transparent" stroke="#ECEDEF" width="14%" height="20%"/><rect fill="transparent" stroke="#ECEDEF" width="14%" height="20%" x="14%"/><rect fill="transparent" stroke="#ECEDEF" width="14%" height="20%" x="28%"/><rect fill="transparent" stroke="#ECEDEF" width="14%" height="20%" x="42%"/><rect fill="transparent" stroke="#ECEDEF" width="14%" height="20%" x="56%"/><rect fill="transparent" stroke="#ECEDEF" width="14%" height="20%" x="70%"/><rect fill="transparent" stroke="#ECEDEF" width="14%" height="20%" x="84%"/><rect fill="transparent" stroke="#ECEDEF" width="14%" height="20%" x="98%"/></g></defs><use xlink:href="#a"/><line stroke="#ECEDEF" y1="19" y2="20" x2="150%"/><use xlink:href="#b" y="20"/><use xlink:href="#b" y="120"/><use xlink:href="#b" y="220"/><use xlink:href="#b" y="320"/><use xlink:href="#b" y="420"/></svg><rect id="g" width="100%" fill="url(#c)" mask="url(#d)" height="1200"/><mask id="d" fill="#fff"><use xlink:href="#e"/><use xlink:href="#f"/></mask><linearGradient x1="66.6%" y1="50%" x2="33.3%" y2="50%" id="c"><stop stop-opacity="0" offset="0%"/><stop stop-opacity=".07" offset="50%"/><stop stop-opacity="0" offset="100%"/></linearGradient><animate xlink:href="#g" attributeName="x" from="-100%" to="100%" dur="1s" begin="0s" repeatCount="indefinite"/><svg viewBox="0 0 100% 1200" height="1200"><rect fill="#EBF1F4" width="20" height="1200" x="100%" transform="translate(-20)"/></svg></svg>