<svg xmlns:xlink="http://www.w3.org/1999/xlink" xmlns="http://www.w3.org/2000/svg" viewBox="0 0 100% 100%"
	 preserveAspectRatio="xMinYMin meet" style="width: 100%; height: 100%" fill="none">

	<svg height="100%">
		<defs>
			<g id="block-btn">
			</g>
		</defs>
		<rect width="100%" height="100%" fill="#EEF2F4"/>
		<rect x="20" y="73" width="100%" height="62" rx="10" fill="white" />

		<rect x="20" y="153" width="100%" height="643" rx="10" fill="white" />

		<rect x="40" y="211" width="100%" height="1" fill="#eeeff0" />
		<rect x="100%" y="73" width="281" height="723" rx="10" fill="white" transform="translate(-301)"/>
	</svg>

	<svg height="100%"  id="animated-elements">
		<defs>
			<g id="block-row--animat">
				<rect x="46" y="233" width="8%" height="6" rx="2" fill="#ecedee" />
				<rect x="46" y="252" width="34%" height="8" rx="2" fill="#ecedee" />
			</g>

			<g id="block-right--animat">
				<rect x="100%" y="88" width="147" height="8" rx="2" fill="#ecedee" transform="translate(-284)"/>
				<rect x="100%" y="116" width="260" height="162" rx="10" fill="#EEF2F4" transform="translate(-291)"/>
				<rect x="100%" y="294" width="260" height="69" rx="10" fill="#EEF2F4" transform="translate(-291)"/>
			</g>
		</defs>

		<rect x="28" y="30" width="43%" height="13" rx="2" fill="#DFE3E9" />
		<rect x="45" y="101" width="147" height="8" rx="2" fill="#ecedee" />
		<rect x="257" y="101" width="147" height="8" rx="2" fill="#ecedee" />

		<rect x="46" y="178" width="34%" height="8" rx="2" fill="#ecedee" />
		<rect x="100%" y="178" width="80" height="8" rx="2" fill="#ecedee" transform="translate(-420)"/>
		<use xlink:href="#block-row--animat"></use>
		<use xlink:href="#block-row--animat" y="51"></use>
		<use xlink:href="#block-row--animat" y="102"></use>
		<use xlink:href="#block-row--animat" y="153"></use>
		<rect x="46" y="456" width="34%" height="8" rx="2" fill="#ecedee" />
		<rect x="46" y="501" width="91.5819" height="6" rx="2" fill="#ecedee" />
		<rect x="162" y="501" width="91.5819" height="6" rx="2" fill="#ecedee" />

		<use xlink:href="#block-right--animat"></use>
		<use xlink:href="#block-right--animat" y="311"></use>
	</svg>




	<rect id="msk1" width="100%" fill="url(#msk_gd)" mask="url(#headerMsk)" height="1270"/>

	<mask id="headerMsk" fill="white">
		<use xlink:href="#animated-elements"/>
	</mask>

	<linearGradient x1="66.6%" y1="50%" x2="33.3%" y2="50%" id="msk_gd">
		<stop stop-color="#000000" stop-opacity="0" offset="0%"/>
		<stop stop-color="#000000" stop-opacity="0.07" offset="50%"/>
		<stop stop-color="#000000" stop-opacity="0" offset="100%"/>
	</linearGradient>

	<animate xlink:href="#msk1" attributeName="x" from="-100%" to="100%" dur="1s" begin="0s" repeatCount="indefinite"/>

	<svg height="100%">
		<defs>
			<g id="upper-right-corner">
				<path d="M9.99997 10V0H0C5.52285 0 9.99997 4.47715 9.99997 10Z" fill="#eef2f4"/>
			</g>
			<g id="lower-right-corner">
				<path d="M9.99997 0V10H0C5.52285 10 9.99997 5.52285 9.99997 0Z" fill="#eef2f4"/>
			</g>

			<g id="upper-left-corner">
				<path d="M3.05176e-05 10V0H10C4.47715 0 3.05176e-05 4.47715 3.05176e-05 10Z" fill="#eef2f4"/>
			</g>
			<g id="lower-left-corner">
				<path d="M3.05176e-05 0V10H10C4.47715 10 3.05176e-05 5.52285 3.05176e-05 0Z" fill="#eef2f4"/>
			</g>
		</defs>

		<rect width="20" height="100%" fill="#EEF2F4" x="100%" transform="translate(-20)" />
		<use xlink:href="#upper-right-corner" x="100%" y="73" transform="translate(-30)" ></use>
		<use xlink:href="#lower-right-corner" x="100%" y="786" transform="translate(-30)" ></use>
		<use xlink:href="#upper-left-corner" x="100%" y="73" transform="translate(-301)" ></use>
		<use xlink:href="#lower-left-corner" x="100%" y="786" transform="translate(-301)" ></use>

		<rect width="17" height="100%" fill="#EEF2F4" x="100%" transform="translate(-318)" />
		<rect width="20" height="500" fill="white" x="100%" y="196" transform="translate(-338)" />
		<use xlink:href="#upper-right-corner" x="100%" y="73" transform="translate(-328)" ></use>
		<use xlink:href="#lower-right-corner" x="100%" y="125" transform="translate(-328)" ></use>
		<use xlink:href="#upper-right-corner" x="100%" y="153" transform="translate(-328)" ></use>
		<use xlink:href="#lower-right-corner" x="100%" y="786" transform="translate(-328)" ></use>
	</svg>

</svg>