<svg xmlns:xlink="http://www.w3.org/1999/xlink" xmlns="http://www.w3.org/2000/svg" viewBox="0 0 100% 1285"
	 preserveAspectRatio="xMinYMin meet" style="width: 100%; height: 1285px" fill="none">

	<svg height="1285px">
		<rect width="100%" height="1285" fill="#EEF2F4" />
		<rect x="16%" y="12" width="39%" height="39" rx="4" fill="white" transform="translate(52)"/>
		<rect x="100%" y="12.5" width="190" height="38" rx="3.5" fill="#3BC8F5" stroke="#3BC8F5" transform="translate(-210)"/>
		<rect x="0" y="68" width="100%" height="1"  fill="#dfe3e6"/>
		<rect x="0" y="123" width="100%" height="1"  fill="#dfe3e6"/>
		<rect x="100%" y="12.5" width="100" height="38" rx="3.5" stroke="#C6CDD3" transform="translate(-373)"/>
		<rect x="100%" y="12.5" width="38" height="38" rx="3.5" stroke="#C6CDD3" transform="translate(-260)"/>
		<rect x="0" width="20" height="1285"  fill="#EEF2F4" />
		<rect x="100%" width="20" height="1285" fill="#EEF2F4" transform="translate(-20)"/>
	</svg>

	<svg height="1285px" x="20" y="153" viewBox="0 0 1097 1285" preserveAspectRatio="xMinYMin meet">
		<defs>
			<svg id="block-file">
				<rect x="0" y="0" width="197" height="197" rx="10" fill="white" />
			</svg>

			<g id="block-line">
				<use xlink:href="#block-file"/>
				<use xlink:href="#block-file" x="215"/>
				<use xlink:href="#block-file" x="430"/>
				<use xlink:href="#block-file" x="645"/>
				<use xlink:href="#block-file" x="860"/>
			</g>
		</defs>
		<use xlink:href="#block-line"/>
		<use xlink:href="#block-line" y="215"/>
		<use xlink:href="#block-line" y="430" />
		<use xlink:href="#block-line" y="645" />
		<use xlink:href="#block-line" y="860" />
	</svg>

	<svg height="1285px" id="animated-elements">
		<rect x="26" y="26" width="16%" height="12" rx="2" fill="#dee3e6" />

		<rect x="16%" y="28" width="11%" height="7" rx="2" fill="#dee3e6" transform="translate(69)" />

		<rect x="100%" y="25" width="77" height="14" rx="2" fill="#dee3e6"  transform="translate(-361, 0)"/>
		<rect x="100%" y="25" width="14" height="14" rx="2" fill="#dee3e6" transform="translate(-247, 0)"/>
		<rect x="100%" y="25" width="165" height="14" rx="2" fill="#6cd3f7" transform="translate(-197)"/>

		<rect x="28" y="93" width="25%" height="6" rx="2" fill="#dee3e6"/>
		<rect x="100%" y="93" width="46" height="6" rx="2" fill="#dee3e6" transform="translate(-232)"/>
		<rect x="100%" y="93" width="65" height="6" rx="2" fill="#dee3e6" transform="translate(-166)"/>
		<rect x="100%" y="93" width="41" height="6" rx="2" fill="#dee3e6" transform="translate(-81)"/>
	</svg>

	<svg height="1285px" x="20" y="153" id="animated-elements-1" viewBox="0 0 1097 1285" preserveAspectRatio="xMinYMin meet">
		<defs>
			<svg id="block-file--animat" xmlns="http://www.w3.org/2000/svg" xmlns:xlink="http://www.w3.org/1999/xlink"
				 preserveAspectRatio="xMinYMin meet">
				<rect x="15" y="176" width="70" height="7" rx="2" fill="#ecedee" />
				<rect x="12" y="12" width="8" height="8" rx="2" fill="#ecedee" />
				<rect x="39" y="58" width="120" height="82" fill="#ecedee" />
				<rect x="39" y="50" width="120" height="8" fill="#e3e4e6" />
				<path fill-rule="evenodd" clip-rule="evenodd" d="M39 50H106.784L97 40H39V50Z" fill="#e3e4e6"/>
			</svg>

			<g id="block-line--animat">
				<use xlink:href="#block-file--animat" />
				<use xlink:href="#block-file--animat" x="215"/>
				<use xlink:href="#block-file--animat" x="430"/>
				<use xlink:href="#block-file--animat" x="645"/>
				<use xlink:href="#block-file--animat" x="860"/>
			</g>
		</defs>
		<use xlink:href="#block-line--animat"/>
		<use xlink:href="#block-line--animat" y="215" />
		<use xlink:href="#block-line--animat" y="430" />
		<use xlink:href="#block-line--animat" y="645" />
		<use xlink:href="#block-line--animat" y="860" />
	</svg>



	<rect id="msk1" width="100%" fill="url(#msk_gd)" mask="url(#headerMsk)" height="1270"/>

	<mask id="headerMsk" fill="white">
		<use xlink:href="#animated-elements"/>
		<use xlink:href="#animated-elements-1"/>
	</mask>

	<linearGradient x1="66.6%" y1="50%" x2="33.3%" y2="50%" id="msk_gd">
		<stop stop-color="#000000" stop-opacity="0" offset="0%"/>
		<stop stop-color="#000000" stop-opacity="0.07" offset="50%"/>
		<stop stop-color="#000000" stop-opacity="0" offset="100%"/>
	</linearGradient>

	<animate xlink:href="#msk1" attributeName="x" from="-100%" to="100%" dur="1s" begin="0s" repeatCount="indefinite"/>
</svg>