<svg xmlns:xlink="http://www.w3.org/1999/xlink" id="svg_wrapper" class="defs-only" xmlns="http://www.w3.org/2000/svg" style="width: 100%; height: 1200px">
	<svg height="1200px">
		<rect fill="#EBF1F4" width="100%" height="1200"/>
	</svg>

	<svg height="1200px" id="header">
		<defs>
			<g id="line" transform="translate(-22.000000, 0.000000)">
				<rect fill="#ecedef" transform="translate(355.500000, 36.500000) scale(1, -1) translate(-355.500000, -36.500000) " x="71" y="32" width="232" height="9" rx="2"></rect>
			</g>
			<g id="divider" transform="translate(-22.000000, 0.000000)">
				<rect fill="#eeeff0" transform="translate(355.500000, 36.500000) scale(1, -1) translate(-355.500000, -36.500000) " x="71" y="32" width="100%" height="1" rx="2"></rect>
			</g>
			<svg id="loader" viewBox="0 0 38 38" xmlns="http://www.w3.org/2000/svg" stroke="#cbced2">
				<g fill="none" fill-rule="evenodd">
					<g transform="translate(1 1)" stroke-width="1">
						<circle stroke-opacity=".5" cx="18" cy="18" r="18"/>
						<path d="M36 18c0-9.94-8.06-18-18-18">
							<animateTransform
									attributeName="transform"
									type="rotate"
									from="0 18 18"
									to="360 18 18"
									dur="1s"
									repeatCount="indefinite"/>
						</path>
					</g>
				</g>
			</svg>
		</defs>

		<use xlink:href="#line" y="0" x="-30" width="100%" height="100"/>
		<use xlink:href="#divider" y="30" x="-30" width="100%" height="100"/>
		<use xlink:href="#loader" y="220" x="-30" width="100%" height="100"/>
	</svg>


	<rect id="msk1" width="100%" fill="url(#msk_gd)" mask="url(#headerMsk)" height="1200"/>

	<mask id="headerMsk" fill="white">
		<use xlink:href="#header"/>
	</mask>

	<linearGradient x1="66.6%" y1="50%" x2="33.3%" y2="50%" id="msk_gd">
		<stop stop-color="#000000" stop-opacity="0" offset="0%"/>
		<stop stop-color="#000000" stop-opacity="0.07" offset="50%"/>
		<stop stop-color="#000000" stop-opacity="0" offset="100%"/>
	</linearGradient>

	<animate xlink:href="#msk1" attributeName="x" from="-100%" to="100%" dur="1s" begin="0s" repeatCount="indefinite"/>

	<svg viewBox="0 0 100% 1200" height="1200px">
		<rect fill="#EBF1F4" width="20"   height="1200" x="100%" y="0"   transform="translate(-20, 0)"/>
	</svg>

</svg>
