
<svg xmlns="http://www.w3.org/2000/svg" width="100%" height="1252" viewBox="0 0 100% 1252" xmlns:xlink="http://www.w3.org/1999/xlink" style="background:#fff">
    <defs>
        <path id="a" stroke="none" stroke-width="1" fill="#ECEDEF" fill-rule="evenodd" d="M520,790.998101 C520,789.89458 520.904317,789 521.991895,789 L976.008105,789 C977.108198,789 978,789.886706 978,790.998101 L978,795.001899 C978,796.10542 977.095683,797 976.008105,797 L521.991895,797 C520.891802,797 520,796.113294 520,795.001899 L520,790.998101 Z M520,810.998101 C520,809.89458 520.899973,809 522.004428,809 L862.995572,809 C864.102587,809 865,809.886706 865,810.998101 L865,815.001899 C865,816.10542 864.100027,817 862.995572,817 L522.004428,817 C520.897413,817 520,816.113294 520,815.001899 L520,810.998101 Z M520,1024.9981 C520,1023.89458 520.904317,1023 521.991895,1023 L976.008105,1023 C977.108198,1023 978,1023.88671 978,1024.9981 L978,1029.0019 C978,1030.10542 977.095683,1031 976.008105,1031 L521.991895,1031 C520.891802,1031 520,1030.11329 520,1029.0019 L520,1024.9981 Z M520,1044.9981 C520,1043.89458 520.899973,1043 522.004428,1043 L862.995572,1043 C864.102587,1043 865,1043.88671 865,1044.9981 L865,1049.0019 C865,1050.10542 864.100027,1051 862.995572,1051 L522.004428,1051 C520.897413,1051 520,1050.11329 520,1049.0019 L520,1044.9981 Z M407,652 C397.058875,652 389,643.941125 389,634 C389,624.058875 397.058875,616 407,616 C416.941125,616 425,624.058875 425,634 C425,643.941125 416.941125,652 407,652 Z M388,545.998101 C388,544.89458 388.895363,544 389.993478,544 L708.006522,544 C709.10749,544 710,544.886706 710,545.998101 L710,550.001899 C710,551.10542 709.104637,552 708.006522,552 L389.993478,552 C388.89251,552 388,551.113294 388,550.001899 L388,545.998101 Z M435,623.998101 C435,622.89458 435.886766,622 436.992318,622 L584.007682,622 C585.108009,622 586,622.886706 586,623.998101 L586,628.001899 C586,629.10542 585.113234,630 584.007682,630 L436.992318,630 C435.891991,630 435,629.113294 435,628.001899 L435,623.998101 Z M435,644 C435,642.895431 435.896168,642 436.994867,642 L560.005133,642 C561.106868,642 562,642.88773 562,644 C562,645.104569 561.103832,646 560.005133,646 L436.994867,646 C435.893132,646 435,645.11227 435,644 Z M388,601.004882 C388,599.897616 388.890588,599 390.007108,599 L448.992892,599 C450.101387,599 451,599.8939 451,601.004882 L451,601.995118 C451,603.102384 450.109412,604 448.992892,604 L390.007108,604 C388.898613,604 388,603.1061 388,601.995118 L388,601.004882 Z M16,583.998101 C16,582.89458 16.8887441,582 18.005276,582 L144.994724,582 C146.102207,582 147,582.886706 147,583.998101 L147,588.001899 C147,589.10542 146.111256,590 144.994724,590 L18.005276,590 C16.8977927,590 16,589.113294 16,588.001899 L16,583.998101 Z M53,777.998101 C53,776.89458 53.8938553,776 54.9953762,776 L288.004624,776 C289.10664,776 290,776.886706 290,777.998101 L290,782.001899 C290,783.10542 289.106145,784 288.004624,784 L54.9953762,784 C53.8933603,784 53,783.113294 53,782.001899 L53,777.998101 Z M231,584.997913 C231,583.894496 231.904002,583 232.99481,583 L330.00519,583 C331.106893,583 332,583.898261 332,584.997913 L332,587.002087 C332,588.105504 331.095998,589 330.00519,589 L232.99481,589 C231.893107,589 231,588.101739 231,587.002087 L231,584.997913 Z M11,506.997913 C11,505.894496 11.887207,505 12.9923309,505 L88.0076691,505 C89.1080031,505 90,505.898261 90,506.997913 L90,509.002087 C90,510.105504 89.112793,511 88.0076691,511 L12.9923309,511 C11.8919969,511 11,510.101739 11,509.002087 L11,506.997913 Z M119.5,523 C115.357864,523 112,519.642136 112,515.5 C112,511.357864 115.357864,508 119.5,508 C123.642136,508 127,511.357864 127,515.5 C127,519.642136 123.642136,523 119.5,523 Z M147.5,523 C143.357864,523 140,519.642136 140,515.5 C140,511.357864 143.357864,508 147.5,508 C151.642136,508 155,511.357864 155,515.5 C155,519.642136 151.642136,523 147.5,523 Z M300.5,523 C296.357864,523 293,519.642136 293,515.5 C293,511.357864 296.357864,508 300.5,508 C304.642136,508 308,511.357864 308,515.5 C308,519.642136 304.642136,523 300.5,523 Z M328.5,523 C324.357864,523 321,519.642136 321,515.5 C321,511.357864 324.357864,508 328.5,508 C332.642136,508 336,511.357864 336,515.5 C336,519.642136 332.642136,523 328.5,523 Z M191,506.997913 C191,505.894496 191.887207,505 192.992331,505 L268.007669,505 C269.108003,505 270,505.898261 270,506.997913 L270,509.002087 C270,510.105504 269.112793,511 268.007669,511 L192.992331,511 C191.891997,511 191,510.101739 191,509.002087 L191,506.997913 Z M11,522.997913 C11,521.894496 11.887207,521 12.9923309,521 L88.0076691,521 C89.1080031,521 90,521.898261 90,522.997913 L90,525.002087 C90,526.105504 89.112793,527 88.0076691,527 L12.9923309,527 C11.8919969,527 11,526.101739 11,525.002087 L11,522.997913 Z M191,522.997913 C191,521.894496 191.887207,521 192.992331,521 L268.007669,521 C269.108003,521 270,521.898261 270,522.997913 L270,525.002087 C270,526.105504 269.112793,527 268.007669,527 L192.992331,527 C191.891997,527 191,526.101739 191,525.002087 L191,522.997913 Z M390,144.998101 C390,143.89458 390.895363,143 391.993478,143 L710.006522,143 C711.10749,143 712,143.886706 712,144.998101 L712,149.001899 C712,150.10542 711.104637,151 710.006522,151 L391.993478,151 C390.89251,151 390,150.113294 390,149.001899 L390,144.998101 Z M390,218.998101 C390,217.89458 390.895363,217 391.993478,217 L710.006522,217 C711.10749,217 712,217.886706 712,218.998101 L712,223.001899 C712,224.10542 711.104637,225 710.006522,225 L391.993478,225 C390.89251,225 390,224.113294 390,223.001899 L390,218.998101 Z M390,199.997913 C390,198.894496 390.887207,198 391.992331,198 L467.007669,198 C468.108003,198 469,198.898261 469,199.997913 L469,202.002087 C469,203.105504 468.112793,204 467.007669,204 L391.992331,204 C390.891997,204 390,203.101739 390,202.002087 L390,199.997913 Z M390,269.998101 C390,268.89458 390.895363,268 391.993478,268 L710.006522,268 C711.10749,268 712,268.886706 712,269.998101 L712,274.001899 C712,275.10542 711.104637,276 710.006522,276 L391.993478,276 C390.89251,276 390,275.113294 390,274.001899 L390,269.998101 Z M390,250.997913 C390,249.894496 390.887207,249 391.992331,249 L467.007669,249 C468.108003,249 469,249.898261 469,250.997913 L469,253.002087 C469,254.105504 468.112793,255 467.007669,255 L391.992331,255 C390.891997,255 390,254.101739 390,253.002087 L390,250.997913 Z M390,320.998101 C390,319.89458 390.895363,319 391.993478,319 L710.006522,319 C711.10749,319 712,319.886706 712,320.998101 L712,325.001899 C712,326.10542 711.104637,327 710.006522,327 L391.993478,327 C390.89251,327 390,326.113294 390,325.001899 L390,320.998101 Z M390,301.997913 C390,300.894496 390.887207,300 391.992331,300 L467.007669,300 C468.108003,300 469,300.898261 469,301.997913 L469,304.002087 C469,305.105504 468.112793,306 467.007669,306 L391.992331,306 C390.891997,306 390,305.101739 390,304.002087 L390,301.997913 Z M390,371.998101 C390,370.89458 390.895363,370 391.993478,370 L710.006522,370 C711.10749,370 712,370.886706 712,371.998101 L712,376.001899 C712,377.10542 711.104637,378 710.006522,378 L391.993478,378 C390.89251,378 390,377.113294 390,376.001899 L390,371.998101 Z M390,352.997913 C390,351.894496 390.887207,351 391.992331,351 L467.007669,351 C468.108003,351 469,351.898261 469,352.997913 L469,355.002087 C469,356.105504 468.112793,357 467.007669,357 L391.992331,357 C390.891997,357 390,356.101739 390,355.002087 L390,352.997913 Z M390,422.998101 C390,421.89458 390.895363,421 391.993478,421 L710.006522,421 C711.10749,421 712,421.886706 712,422.998101 L712,427.001899 C712,428.10542 711.104637,429 710.006522,429 L391.993478,429 C390.89251,429 390,428.113294 390,427.001899 L390,422.998101 Z M390,467.997913 C390,466.894496 390.887207,466 391.992331,466 L467.007669,466 C468.108003,466 469,466.898261 469,467.997913 L469,470.002087 C469,471.105504 468.112793,472 467.007669,472 L391.992331,472 C390.891997,472 390,471.101739 390,470.002087 L390,467.997913 Z M490,467.997913 C490,466.894496 490.887207,466 491.992331,466 L567.007669,466 C568.108003,466 569,466.898261 569,467.997913 L569,470.002087 C569,471.105504 568.112793,472 567.007669,472 L491.992331,472 C490.891997,472 490,471.101739 490,470.002087 L490,467.997913 Z M172,380 C113.457817,380 66,332.542183 66,274 C66,215.457817 113.457817,168 172,168 C230.542183,168 278,215.457817 278,274 C278,332.542183 230.542183,380 172,380 Z M238,140.998101 C238,139.89458 238.886101,139 239.999934,139 L335.000066,139 C336.104599,139 337,139.886706 337,140.998101 L337,145.001899 C337,146.10542 336.113899,147 335.000066,147 L239.999934,147 C238.895401,147 238,146.113294 238,145.001899 L238,140.998101 Z M17,71.9981014 C17,70.8945804 17.8973133,70 19.0008389,70 L86.9991611,70 C88.1041939,70 89,70.8867064 89,71.9981014 L89,76.0018986 C89,77.1054196 88.1026867,78 86.9991611,78 L19.0008389,78 C17.8958061,78 17,77.1132936 17,76.0018986 L17,71.9981014 Z M121,71.9981014 C121,70.8945804 121.897313,70 123.000839,70 L190.999161,70 C192.104194,70 193,70.8867064 193,71.9981014 L193,76.0018986 C193,77.1054196 192.102687,78 190.999161,78 L123.000839,78 C121.895806,78 121,77.1132936 121,76.0018986 L121,71.9981014 Z M225,71.9981014 C225,70.8945804 225.897313,70 227.000839,70 L294.999161,70 C296.104194,70 297,70.8867064 297,71.9981014 L297,76.0018986 C297,77.1054196 296.102687,78 294.999161,78 L227.000839,78 C225.895806,78 225,77.1132936 225,76.0018986 L225,71.9981014 Z M329,71.9981014 C329,70.8945804 329.897313,70 331.000839,70 L398.999161,70 C400.104194,70 401,70.8867064 401,71.9981014 L401,76.0018986 C401,77.1054196 400.102687,78 398.999161,78 L331.000839,78 C329.895806,78 329,77.1132936 329,76.0018986 L329,71.9981014 Z M433,71.9981014 C433,70.8945804 433.897313,70 435.000839,70 L502.999161,70 C504.104194,70 505,70.8867064 505,71.9981014 L505,76.0018986 C505,77.1054196 504.102687,78 502.999161,78 L435.000839,78 C433.895806,78 433,77.1132936 433,76.0018986 L433,71.9981014 Z M537,71.9981014 C537,70.8945804 537.897313,70 539.000839,70 L606.999161,70 C608.104194,70 609,70.8867064 609,71.9981014 L609,76.0018986 C609,77.1054196 608.102687,78 606.999161,78 L539.000839,78 C537.895806,78 537,77.1132936 537,76.0018986 L537,71.9981014 Z M641,71.9981014 C641,70.8945804 641.897313,70 643.000839,70 L710.999161,70 C712.104194,70 713,70.8867064 713,71.9981014 L713,76.0018986 C713,77.1054196 712.102687,78 710.999161,78 L643.000839,78 C641.895806,78 641,77.1132936 641,76.0018986 L641,71.9981014 Z M745,71.9981014 C745,70.8945804 745.897313,70 747.000839,70 L814.999161,70 C816.104194,70 817,70.8867064 817,71.9981014 L817,76.0018986 C817,77.1054196 816.102687,78 814.999161,78 L747.000839,78 C745.895806,78 745,77.1132936 745,76.0018986 L745,71.9981014 Z M0,2.00276013 C0,0.896666251 0.90312399,0 2.00180884,0 L472.998191,0 C474.10376,0 475,0.893542647 475,2.00276013 L475,10.9972399 C475,12.1033337 474.096876,13 472.998191,13 L2.00180884,13 C0.896240344,13 0,12.1064574 0,10.9972399 L0,2.00276013 Z"/>
        <path id="b" stroke="none" stroke-width="1" fill="#ECEDEF" fill-rule="evenodd" d="M188,558.498101 C188,557.39458 188.897651,556.5 189.990623,556.5 L255.009377,556.5 C256.108768,556.5 257,557.386706 257,558.498101 L257,562.501899 C257,563.60542 256.102349,564.5 255.009377,564.5 L189.990623,564.5 C188.891232,564.5 188,563.613294 188,562.501899 L188,558.498101 Z M190,157.498101 C190,156.39458 190.897651,155.5 191.990623,155.5 L257.009377,155.5 C258.108768,155.5 259,156.386706 259,157.498101 L259,161.501899 C259,162.60542 258.102349,163.5 257.009377,163.5 L191.990623,163.5 C190.891232,163.5 190,162.613294 190,161.501899 L190,157.498101 Z M158,16.499615 C158,15.3952581 158.891895,14.5 160.003755,14.5 L260.996245,14.5 C262.102888,14.5 263,15.3874333 263,16.499615 L263,22.500385 C263,23.6047419 262.108105,24.5 260.996245,24.5 L160.003755,24.5 C158.897112,24.5 158,23.6125667 158,22.500385 L158,16.499615 Z M14,16.499615 C14,15.3952581 14.8918952,14.5 16.003755,14.5 L116.996245,14.5 C118.102888,14.5 119,15.3874333 119,16.499615 L119,22.500385 C119,23.6047419 118.108105,24.5 116.996245,24.5 L16.003755,24.5 C14.8971117,24.5 14,23.6125667 14,22.500385 L14,16.499615 Z"/>
        <path id="e" stroke="#C6CDD3" stroke-width="1" fill="none" fill-rule="evenodd" d="M530.86,870.5 C522.575729,870.5 515.86,877.215729 515.86,885.5 C515.86,893.784271 522.575729,900.5 530.86,900.5 L741.14,900.5 C749.424271,900.5 756.14,893.784271 756.14,885.5 C756.14,877.215729 749.424271,870.5 741.14,870.5 L530.86,870.5 Z M443,892.5 C469.78581,892.5 491.5,870.78581 491.5,844 C491.5,817.21419 469.78581,795.5 443,795.5 C416.21419,795.5 394.5,817.21419 394.5,844 C394.5,870.78581 416.21419,892.5 443,892.5 Z M530.86,1104.5 C522.575729,1104.5 515.86,1111.21573 515.86,1119.5 C515.86,1127.78427 522.575729,1134.5 530.86,1134.5 L741.14,1134.5 C749.424271,1134.5 756.14,1127.78427 756.14,1119.5 C756.14,1111.21573 749.424271,1104.5 741.14,1104.5 L530.86,1104.5 Z M443,1126.5 C469.78581,1126.5 491.5,1104.78581 491.5,1078 C491.5,1051.21419 469.78581,1029.5 443,1029.5 C416.21419,1029.5 394.5,1051.21419 394.5,1078 C394.5,1104.78581 416.21419,1126.5 443,1126.5 Z M12,628.5 L332,628.5 L331.5,628 L331.5,629 L332,628.5 L12,628.5 L12.5,629 L12.5,628 L12,628.5 Z M311.974063,748.5 C322.191331,748.5 330.474063,740.217268 330.474063,730 C330.474063,719.782732 322.191331,711.5 311.974063,711.5 C301.756796,711.5 293.474063,719.782732 293.474063,730 C293.474063,740.217268 301.756796,748.5 311.974063,748.5 Z M265.186744,748.5 C275.404011,748.5 283.686744,740.217268 283.686744,730 C283.686744,719.782732 275.404011,711.5 265.186744,711.5 C254.969476,711.5 246.686744,719.782732 246.686744,730 C246.686744,740.217268 254.969476,748.5 265.186744,748.5 Z M218.399424,748.5 C228.616692,748.5 236.899424,740.217268 236.899424,730 C236.899424,719.782732 228.616692,711.5 218.399424,711.5 C208.182156,711.5 199.899424,719.782732 199.899424,730 C199.899424,740.217268 208.182156,748.5 218.399424,748.5 Z M171.612104,748.5 C181.829372,748.5 190.112104,740.217268 190.112104,730 C190.112104,719.782732 181.829372,711.5 171.612104,711.5 C161.394836,711.5 153.112104,719.782732 153.112104,730 C153.112104,740.217268 161.394836,748.5 171.612104,748.5 Z M124.57464,748.5 C134.791908,748.5 143.07464,740.217268 143.07464,730 C143.07464,719.782732 134.791908,711.5 124.57464,711.5 C114.357372,711.5 106.07464,719.782732 106.07464,730 C106.07464,740.217268 114.357372,748.5 124.57464,748.5 Z M78.7873199,748.5 C89.0045878,748.5 97.2873199,740.217268 97.2873199,730 C97.2873199,719.782732 89.0045878,711.5 78.7873199,711.5 C68.570052,711.5 60.2873199,719.782732 60.2873199,730 C60.2873199,740.217268 68.570052,748.5 78.7873199,748.5 Z M32,748.5 C42.2172679,748.5 50.5,740.217268 50.5,730 C50.5,719.782732 42.2172679,711.5 32,711.5 C21.7827321,711.5 13.5,719.782732 13.5,730 C13.5,740.217268 21.7827321,748.5 32,748.5 Z M311.974063,683.5 C322.191331,683.5 330.474063,675.217268 330.474063,665 C330.474063,654.782732 322.191331,646.5 311.974063,646.5 C301.756796,646.5 293.474063,654.782732 293.474063,665 C293.474063,675.217268 301.756796,683.5 311.974063,683.5 Z M265.186744,683.5 C275.404011,683.5 283.686744,675.217268 283.686744,665 C283.686744,654.782732 275.404011,646.5 265.186744,646.5 C254.969476,646.5 246.686744,654.782732 246.686744,665 C246.686744,675.217268 254.969476,683.5 265.186744,683.5 Z M218.399424,683.5 C228.616692,683.5 236.899424,675.217268 236.899424,665 C236.899424,654.782732 228.616692,646.5 218.399424,646.5 C208.182156,646.5 199.899424,654.782732 199.899424,665 C199.899424,675.217268 208.182156,683.5 218.399424,683.5 Z M171.612104,683.5 C181.829372,683.5 190.112104,675.217268 190.112104,665 C190.112104,654.782732 181.829372,646.5 171.612104,646.5 C161.394836,646.5 153.112104,654.782732 153.112104,665 C153.112104,675.217268 161.394836,683.5 171.612104,683.5 Z M124.57464,683.5 C134.791908,683.5 143.07464,675.217268 143.07464,665 C143.07464,654.782732 134.791908,646.5 124.57464,646.5 C114.357372,646.5 106.07464,654.782732 106.07464,665 C106.07464,675.217268 114.357372,683.5 124.57464,683.5 Z M78.7873199,683.5 C89.0045878,683.5 97.2873199,675.217268 97.2873199,665 C97.2873199,654.782732 89.0045878,646.5 78.7873199,646.5 C68.570052,646.5 60.2873199,654.782732 60.2873199,665 C60.2873199,675.217268 68.570052,683.5 78.7873199,683.5 Z M32,683.5 C42.2172679,683.5 50.5,675.217268 50.5,665 C50.5,654.782732 42.2172679,646.5 32,646.5 C21.7827321,646.5 13.5,654.782732 13.5,665 C13.5,675.217268 21.7827321,683.5 32,683.5 Z M172.5,542 L172.5,512 L172,512.5 L173,512.5 L172.5,512 L172.5,542 L173,541.5 L172,541.5 L172.5,542 Z M195.5,424.5 C187.215729,424.5 180.5,431.215729 180.5,439.5 C180.5,447.784271 187.215729,454.5 195.5,454.5 L268.5,454.5 C276.784271,454.5 283.5,447.784271 283.5,439.5 C283.5,431.215729 276.784271,424.5 268.5,424.5 L195.5,424.5 Z M76.5,424.5 C68.2157288,424.5 61.5,431.215729 61.5,439.5 C61.5,447.784271 68.2157288,454.5 76.5,454.5 L149.5,454.5 C157.784271,454.5 164.5,447.784271 164.5,439.5 C164.5,431.215729 157.784271,424.5 149.5,424.5 L76.5,424.5 Z" />
        <rect id="l" fill="#EDEEF0" width="100%" height="1"/>
        <path id="p" opacity="0.6" fill="#fff" d="M230.009731,195.396362 C230.009731,190.353762 223.476787,184.593687 210.611912,181.237023 C206.253338,180.010398 202.109991,178.108272 198.329977,175.59864 C197.503309,175.122014 197.628942,170.718295 197.628942,170.718295 L193.485548,170.081948 C193.485548,169.724479 193.131262,164.443565 193.131262,164.443565 C198.088761,162.762698 197.578689,152.847358 197.578689,152.847358 C200.727065,154.609352 202.777405,146.762771 202.777405,146.762771 C206.501183,135.861221 200.923054,136.520385 200.923054,136.520385 C201.898925,129.865252 201.898925,123.101453 200.923054,116.44632 C198.443048,94.3694133 161.10476,100.362731 165.532086,107.572965 C154.619557,105.54477 157.109613,130.598054 157.109613,130.598054 L159.476549,137.085744 C154.828108,140.128037 158.059403,143.806677 158.220214,148.040535 C158.448867,154.292447 162.240487,152.996937 162.240487,152.996937 C162.474165,163.315381 167.517096,164.659061 167.517096,164.659061 C168.464373,171.139145 167.873895,170.036314 167.873895,170.036314 L163.386265,170.583927 C163.447015,172.057567 163.328027,173.533155 163.031978,174.977505 C157.75537,177.350494 156.619642,178.742343 151.375699,181.062091 C141.24461,185.541868 130.234087,191.367859 128.276716,199.211905 C126.319346,207.055951 124.5,224.138672 124.5,224.138672 L235.5,224.138672 L230.009731,195.396362 Z" />


        <linearGradient id="c" x1="80.014%" x2="18.166%" y1="50%" y2="50%">
            <stop stop-color="#FFFFFF" stop-opacity="0" offset="0%"/>
            <stop stop-color="#000000" stop-opacity=".058" offset="49.595%"/>
            <stop stop-color="#000000" stop-opacity="0" offset="100%"/>
        </linearGradient>
    </defs>
    <g fill="none" fill-rule="evenodd">
        <rect width="1920" height="1252" fill="#EBF1F4"/>
        <rect width="100%" height="1200" x="20" y="73" fill="#FFFFFF"/>


        <use fill="#fff" x="28" y="30" xlink:href="#a"/>
        <use fill="#fff" x="100%" y="15" xlink:href="#b" transform="translate(-295 0)"/>
        <use fill="#fff" x="25" y="18" xlink:href="#e"/>
        <use x="415" y="205" xlink:href="#l"/>
        <use x="415" y="607" xlink:href="#l"/>
        <use x="415" y="787" xlink:href="#l"/>
        <use x="415" y="1021" xlink:href="#l"/>
        <use x="20" y="140" xlink:href="#p" fill="#f00"/>

        <mask id="d" fill="#fff">
            <use fill="#fff" x="28" y="30" xlink:href="#a"/>
            <use fill="#fff" x="100%" y="15" xlink:href="#b" transform="translate(-295 0)"/>
            <use fill="#fff" x="25" y="18" xlink:href="#e"/>
            <use fill="#fff" x="415" y="205" xlink:href="#l"/>
            <use fill="#fff" x="415" y="607" xlink:href="#l"/>
            <use fill="#fff" x="415" y="787" xlink:href="#l"/>
            <use fill="#fff" x="415" y="1021" xlink:href="#l"/>
        </mask>


        <!--        <use fill="#fff" x="25" y="18" xlink:href="#d"/>-->
        <rect id="msd" width="1920" height="1252" fill="url(#c)" mask="url(#d)"/>


        <rect width="15" height="1500" x="100%" y="73" fill="#fff" transform="translate(-30 0)"/>
        <rect width="100%" height="15" x="0" y="133" fill="#EBF1F4"/>
        <rect width="390" height="15" x="0" y="501" fill="#EBF1F4"/>
        <rect width="390" height="15" x="0" y="572" fill="#EBF1F4"/>
        <rect width="15" height="1500" x="380" y="133" fill="#EBF1F4"/>
        <rect width="380" height="500" x="0" y="875" fill="#EBF1F4"/>
        <rect width="100%" height="15" x="380" y="534" fill="#EBF1F4"/>
        <rect width="100%" height="15" x="380" y="714" fill="#EBF1F4"/>
        <rect width="100%" height="15" x="380" y="949" fill="#EBF1F4"/>
        <rect width="15" height="1500" x="100%" y="0" fill="#EBF1F4" transform="translate(-15 0)"/>
    </g>
    <animate
            xlink:href="#msd"
            attributeName="x"
            from="-100%"
            to="100%"
            dur="1s"
            begin="0s"
            repeatCount="indefinite"
            fill="freeze"
            id="rect-anim"/>
</svg>
