<svg width="100%" height="768" viewBox="0 0 100% 768" fill="none"
	 xmlns:xlink="http://www.w3.org/1999/xlink" xmlns="http://www.w3.org/2000/svg"
	 preserveAspectRatio="xMinYMin meet">

	<svg height="768px">
		<rect width="100%" height="768" transform="translate(239)" fill="#EEF2F4"/>
		<rect x="341" y="16" width="480" height="39" rx="4" fill="#F6F7F9"/>

		<g clip-path="url(#clip0_5562_96444)">
			<rect x="833.5" y="16.5" width="180" height="38" rx="3.5" stroke="#C6CDD3"/>

		</g>
		<g clip-path="url(#clip1_5562_96444)">
			<g clip-path="url(#clip3_5562_96444)">
				<rect x="260" y="218" width="754" height="65" rx="10" fill="white"/>
			</g>
			<g clip-path="url(#clip4_5562_96444)">
				<rect x="260" y="295" width="754" height="65" rx="10" fill="white"/>
			</g>
			<g clip-path="url(#clip5_5562_96444)">
				<rect x="260" y="372" width="754" height="65" rx="10" fill="white"/>
			</g>
			<g clip-path="url(#clip6_5562_96444)">
				<rect x="260" y="449" width="754" height="65" rx="10" fill="white"/>
			</g>
			<g clip-path="url(#clip7_5562_96444)">
				<rect x="260" y="526" width="754" height="65" rx="10" fill="white"/>
			</g>
			<rect x="260" y="591" width="754" height="200" fill="#EEF2F4"/>
		</g>
		<rect width="239" height="768" fill="#EEF2F4"/>
		<path fill-rule="evenodd" clip-rule="evenodd" d="M29 666.5C29 666.224 29.2239 666 29.5 666H209.5C209.776 666 210 666.224 210 666.5C210 666.776 209.776 667 209.5 667H29.5C29.2239 667 29 666.776 29 666.5Z" fill="#D5D7DB"/>

	</svg>

	<svg height="768px" id="animated-elements">
		<defs>
			<g id="header">
				<rect x="357" y="32" width="60" height="8" rx="4" fill="#E6E7E9"/>
				<circle cx="801.5" cy="35.5" r="9.5" fill="#E6E7E9"/>
				<rect x="855" y="32" width="137" height="8" rx="4" fill="#DFE0E3"/>
				<rect x="29" y="31" width="265" height="12" rx="6" fill="#DFE0E3"/>
			</g>
			<g id="menu">
				<rect x="29" y="89" width="120" height="8" rx="4" fill="#DFE0E3"/>
				<rect x="29" y="125" width="120" height="8" rx="4" fill="#DFE0E3"/>
				<rect x="29" y="161" width="120" height="8" rx="4" fill="#DFE0E3"/>
				<rect x="29" y="197" width="120" height="8" rx="4" fill="#DFE0E3"/>
				<rect x="29" y="233" width="120" height="8" rx="4" fill="#DFE0E3"/>
				<rect x="29" y="269" width="120" height="8" rx="4" fill="#DFE0E3"/>
				<rect x="29" y="305" width="120" height="8" rx="4" fill="#DFE0E3"/>
				<rect x="29" y="341" width="120" height="8" rx="4" fill="#DFE0E3"/>
				<rect x="29" y="377" width="120" height="8" rx="4" fill="#DFE0E3"/>
				<rect x="29" y="413" width="120" height="8" rx="4" fill="#DFE0E3"/>
				<rect x="29" y="449" width="120" height="8" rx="4" fill="#DFE0E3"/>
				<rect x="29" y="485" width="120" height="8" rx="4" fill="#DFE0E3"/>
				<rect x="29" y="521" width="120" height="8" rx="4" fill="#DFE0E3"/>
				<rect x="29" y="557" width="120" height="8" rx="4" fill="#DFE0E3"/>
				<rect x="29" y="593" width="120" height="8" rx="4" fill="#DFE0E3"/>
				<rect x="29" y="629" width="120" height="8" rx="4" fill="#DFE0E3"/>
				<rect x="29" y="696" width="120" height="8" rx="4" fill="#DFE0E3"/>
			</g>
			<g id="lines">
				<rect x="265" y="95" width="252" height="15" rx="7.5" fill="#DFE0E3"/>
				<rect x="265" y="133" width="500" height="8" rx="4" fill="#DFE0E3"/>
				<rect x="265" y="155" width="500" height="8" rx="4" fill="#DFE0E3"/>
				<rect x="265" y="177" width="396" height="8" rx="4" fill="#DFE0E3"/>
			</g>
			<g id="card">
				<rect x="314" y="245" width="328" height="12" rx="6" fill="#DFE0E3"/>
				<circle cx="292" cy="251" r="12" fill="#DFE0E3"/>
				<circle cx="988" cy="251" r="6" fill="#DFE0E3"/>
			</g>
			<g id="card-2">
				<rect x="314" y="322" width="328" height="12" rx="6" fill="#DFE0E3"/>
				<circle cx="292" cy="328" r="12" fill="#DFE0E3"/>
				<circle cx="988" cy="328" r="6" fill="#DFE0E3"/>
			</g>
			<g id="card-3">
				<rect x="314" y="399" width="328" height="12" rx="6" fill="#DFE0E3"/>
				<circle cx="292" cy="405" r="12" fill="#DFE0E3"/>
				<circle cx="988" cy="405" r="6" fill="#DFE0E3"/>
			</g>
			<g id="card-4">
				<rect x="314" y="476" width="328" height="12" rx="6" fill="#DFE0E3"/>
				<circle cx="292" cy="482" r="12" fill="#DFE0E3"/>
				<circle cx="988" cy="482" r="6" fill="#DFE0E3"/>
			</g>
			<g id="card-5">
				<rect x="314" y="553" width="328" height="12" rx="6" fill="#DFE0E3"/>
				<circle cx="292" cy="559" r="12" fill="#DFE0E3"/>
				<circle cx="988" cy="559" r="6" fill="#DFE0E3"/>
			</g>
		</defs>

		<use xlink:href="#header"></use>
		<use xlink:href="#menu"></use>
		<use xlink:href="#lines"></use>
		<use xlink:href="#card"></use>
		<use xlink:href="#card-2"></use>
		<use xlink:href="#card-3"></use>
		<use xlink:href="#card-4"></use>
		<use xlink:href="#card-5"></use>
	</svg>

	<rect id="msk1" width="100%" fill="url(#msk_gd)" mask="url(#headerMsk)" height="768"/>

	<mask id="headerMsk" fill="white">
		<use xlink:href="#animated-elements"/>
	</mask>

	<linearGradient x1="66.6%" y1="50%" x2="33.3%" y2="50%" id="msk_gd">
		<stop stop-color="#000000" stop-opacity="0" offset="0%"/>
		<stop stop-color="#000000" stop-opacity="0.07" offset="50%"/>
		<stop stop-color="#000000" stop-opacity="0" offset="100%"/>
	</linearGradient>

	<animate xlink:href="#msk1" attributeName="x" from="-100%" to="100%" dur="1s" begin="0s" repeatCount="indefinite"/>
</svg>
