<svg xmlns:xlink="http://www.w3.org/1999/xlink" xmlns="http://www.w3.org/2000/svg" viewBox="0 0 100% 1285"
	 preserveAspectRatio="xMinYMin meet" style="width: 100%; height: 1285px" fill="none">

	<svg height="1285px">
		<defs>
			<g id="block-btn-top">
				<rect x="100%" y="18" width="133" height="39" rx="3.5" stroke="#C6CDD3" transform="translate(-153, 0)"/>
			</g>
			<g id="upper-right-corner">
				<path d="M9.99997 10V0H0C5.52285 0 9.99997 4.47715 9.99997 10Z" fill="#eef2f4"/>
			</g>
			<g id="lower-right-corner">
				<path d="M9.99997 0V10H0C5.52285 10 9.99997 5.52285 9.99997 0Z" fill="#eef2f4"/>
			</g>
			<g id="user-right-block-head">
				<rect x="415" y="206" width="100%" height="1" fill="#dddee1"/>
				<rect x="100%" y="206" width="40" height="1" fill="white" transform="translate(-40, 0)"/>
			</g>

			<g id="user-profile-post-container">
				<rect x="415" y="788" width="100%" height="1" fill="#dddee1"/>
				<rect x="100%" y="788" width="20" height="1" fill="white" transform="translate(-40)" />
			</g>
		</defs>

		<rect width="100%" height="1285" fill="#EEF2F4"/>
		<use xlink:href="#block-btn-top"></use>
		<use xlink:href="#block-btn-top" x="-144"></use>
		<rect x="20" y="73" width="100%" height="60" rx="10" fill="white" />
		<use xlink:href="#upper-right-corner" x="100%" y="73" transform="translate(-30)" ></use>
		<use xlink:href="#lower-right-corner" x="100%" y="123" transform="translate(-30)" ></use>

		<rect x="20" y="148" width="360" height="353" rx="10" fill="white"/>
		<rect x="20" y="516" width="360" height="56" rx="10" fill="white"/>
		<rect x="20" y="587" width="360" height="288" rx="10" fill="white"/>
		<rect x="395" y="148" width="100%" height="386" rx="10" fill="white"/>
		<use xlink:href="#upper-right-corner" x="100%" y="148" transform="translate(-30)" ></use>
		<use xlink:href="#lower-right-corner" x="100%" y="524" transform="translate(-30)" ></use>

		<rect x="395" y="549" width="100%" height="166" rx="10" fill="white"/>
		<use xlink:href="#upper-right-corner" x="100%" y="549" transform="translate(-30)" ></use>
		<use xlink:href="#lower-right-corner" x="100%" y="705" transform="translate(-30)" ></use>

		<rect x="395" y="730" width="100%" height="219" rx="10" fill="white"/>
		<use xlink:href="#upper-right-corner" x="100%" y="730" transform="translate(-30)" ></use>
		<use xlink:href="#lower-right-corner" x="100%" y="939" transform="translate(-30)" ></use>

		<rect x="395" y="964" width="100%" height="219" rx="10" fill="white"/>
		<use xlink:href="#upper-right-corner" x="100%" y="964" transform="translate(-30)" ></use>
		<use xlink:href="#lower-right-corner" x="100%" y="1173" transform="translate(-30)" ></use>

		<use xlink:href="#user-right-block-head"></use>
		<use xlink:href="#user-right-block-head" y="401"></use>

		<use xlink:href="#user-profile-post-container"></use>
		<use xlink:href="#user-profile-post-container" y="234" ></use>

	</svg>


	<svg height="1285px"  id="animated-elements">
		<defs>
			<g id="block-btn-top--animat">
				<rect x="100%" y="32" width="105" height="10" rx="2" fill="#dee3e6" transform="translate(-139, 0)"/>
			</g>

			<g id="head-text--animat">
				<rect x="45" y="100" width="6.8%" height="8" rx="2" fill="#ecedee" />
			</g>

			<g id="user-btn--animat">
				<rect x="109.5" y="441.5" width="86" height="30" rx="15" stroke="#C6CDD3" />s
			</g>

			<g id="profile-column--animat">
				<rect x="39" y="535" width="79" height="6" rx="2" fill="#ecedee" />
				<rect x="39" y="551" width="79" height="6" rx="2" fill="#ecedee" />
				<circle cx="147.5" cy="545.5" r="7.5" fill="#ecedee" />
				<circle cx="175.5" cy="545.5" r="7.5" fill="#ecedee" />
			</g>
			<g id="profile-column-circle--animat">
				<circle cx="60" cy="682" r="18.35" stroke="#dfe2e4" stroke-width="1.3" />
				<circle cx="60" cy="747" r="18.35" stroke="#dfe2e4" stroke-width="1.3" />
			</g>

			<g id="user-right-block-head--animat">
				<rect x="418" y="173" width="30.2%" height="8" rx="2" fill="#ecedee" />
				<rect x="100%" y="173" width="69" height="8" rx="2" fill="#ecedee" transform="translate(-107, 0)"/>
			</g>

			<g id="user-right-block-info--animat">
				<rect x="418" y="228" width="7.4%" height="6" rx="2" fill="#ecedee" />
				<rect x="418" y="247" width="30.2%" height="8" rx="2" fill="#ecedee" />
			</g>

			<g id="user-right-block-info-second--animat">
				<rect x="418" y="451" width="30.2%" height="8" rx="2" fill="#ecedee" />
				<rect x="418" y="496" width="79" height="6" rx="2" fill="#ecedee" />
				<rect x="518" y="496" width="79" height="6" rx="2" fill="#ecedee" />
			</g>
			<g id="user-profile-post-container--animat">
				<circle cx="471" cy="861" r="49" stroke="#dfe2e4" />
				<rect x="548" y="819" width="42%" height="8" rx="2" fill="#ecedee" />
				<rect x="548" y="839" width="32%" height="8" rx="2" fill="#ecedee" />
				<rect x="543.36" y="887" width="22%" height="31" rx="15.5" fill="#BBED21" />
			</g>

		</defs>

		<use xlink:href="#block-btn-top--animat"></use>
		<use xlink:href="#block-btn-top--animat"  x="-144"></use>
		<rect x="28" y="30" width="44%" height="13" rx="2" fill="#dee3e6" />
		<use xlink:href="#head-text--animat"></use>
		<use xlink:href="#head-text--animat" x="9.7%"></use>
		<use xlink:href="#head-text--animat" x="19.5%"></use>
		<use xlink:href="#head-text--animat" x="29.3%"></use>
		<use xlink:href="#head-text--animat" x="39%"></use>
		<use xlink:href="#head-text--animat" x="48.8%"></use>
		<use xlink:href="#head-text--animat" x="58.5%"></use>
		<use xlink:href="#head-text--animat" x="68.2%"></use>
		<g>
			<circle cx="200" cy="304" r="106" fill="#d7dadd" />
			<rect x="266" y="169" width="99" height="8" rx="2" fill="#ecedee" />
			<path fill-rule="evenodd" clip-rule="evenodd"
				  d="M250.51 326.396C250.51 321.354 243.977 315.594 231.112 312.237C226.753 311.01 222.61 309.108 218.83 306.599C218.003 306.122 218.129 301.718 218.129 301.718L213.986 301.082C213.986 300.724 213.631 295.444 213.631 295.444C218.589 293.763 218.079 283.847 218.079 283.847C221.227 285.609 223.277 277.763 223.277 277.763C227.001 266.861 221.423 267.52 221.423 267.52C222.399 260.865 222.399 254.101 221.423 247.446C218.943 225.369 181.605 231.363 186.032 238.573C175.12 236.545 177.61 261.598 177.61 261.598L179.977 268.086C175.328 271.128 178.559 274.807 178.72 279.041C178.949 285.292 182.74 283.997 182.74 283.997C182.974 294.315 188.017 295.659 188.017 295.659C188.964 302.139 188.374 301.036 188.374 301.036L183.886 301.584C183.947 303.058 183.828 304.533 183.532 305.978C178.255 308.35 177.12 309.742 171.876 312.062C161.745 316.542 150.734 322.368 148.777 330.212C146.819 338.056 145 355.139 145 355.139H256L250.51 326.396Z"
				  fill="#eff0f1" />
			<use xlink:href="#user-btn--animat"></use>
			<use xlink:href="#user-btn--animat" x="95px"></use>
		</g>
		<g>
			<use xlink:href="#profile-column--animat"></use>
			<use xlink:href="#profile-column--animat" x="180px"></use>
			<path fill-rule="evenodd" clip-rule="evenodd" d="M200 559H201V529H200V559Z" fill="#dddee1" />
		</g>
		<g >
			<rect x="44" y="612" width="131" height="8" rx="2" fill="#ecedee" />
			<rect x="259" y="613" width="101" height="6" rx="2" fill="#ecedee" />
			<path fill-rule="evenodd" clip-rule="evenodd" d="M40 645H360V646H40V645Z" fill="#dddee1" />
			<rect x="81" y="806" width="237" height="8" rx="2" fill="#ecedee" />

			<use xlink:href="#profile-column-circle--animat"></use>
			<use xlink:href="#profile-column-circle--animat" x="47"></use>
			<use xlink:href="#profile-column-circle--animat" x="93"></use>
			<use xlink:href="#profile-column-circle--animat" x="140"></use>
			<use xlink:href="#profile-column-circle--animat" x="186"></use>
			<use xlink:href="#profile-column-circle--animat" x="233"></use>
			<use xlink:href="#profile-column-circle--animat" x="280"></use>
		</g>
		<g>
			<use xlink:href="#user-right-block-head--animat"></use>
			<use xlink:href="#user-right-block-info--animat"></use>
			<use xlink:href="#user-right-block-info--animat" y="51"></use>
			<use xlink:href="#user-right-block-info--animat" y="102"></use>
			<use xlink:href="#user-right-block-info--animat" y="153"></use>
			<use xlink:href="#user-right-block-info-second--animat"></use>
		</g>
		<g>
			<use xlink:href="#user-right-block-head--animat" y="401"></use>
			<rect x="416" y="629" width="6%" height="5" rx="2" fill="#ecedee" />
			<circle cx="435" cy="664" r="18" fill="#ecedee" />
			<rect x="463" y="652" width="14%" height="8" rx="2" fill="#ecedee" />
			<rect x="463" y="672" width="12%" height="4" rx="2" fill="#ecedee" />
		</g>
		<use xlink:href="#user-profile-post-container--animat"></use>
		<use xlink:href="#user-profile-post-container--animat" y="234" ></use>
	</svg>

	<svg height="1285px">
		<rect width="20" height="100%" x="100%" fill="#EEF2F4" transform="translate(-20)"/>
	</svg>

	<rect id="msk1" width="100%" fill="url(#msk_gd)" mask="url(#headerMsk)" height="1270"/>

	<mask id="headerMsk" fill="white">
		<use xlink:href="#animated-elements"/>
	</mask>

	<linearGradient x1="66.6%" y1="50%" x2="33.3%" y2="50%" id="msk_gd">
		<stop stop-color="#000000" stop-opacity="0" offset="0%"/>
		<stop stop-color="#000000" stop-opacity="0.07" offset="50%"/>
		<stop stop-color="#000000" stop-opacity="0" offset="100%"/>
	</linearGradient>

	<animate xlink:href="#msk1" attributeName="x" from="-100%" to="100%" dur="1s" begin="0s" repeatCount="indefinite"/>
</svg>