<svg viewBox="0 0 100% 1200" fill="none"
	 xmlns:xlink="http://www.w3.org/1999/xlink" xmlns="http://www.w3.org/2000/svg"
	 preserveAspectRatio="xMinYMin meet"
	 style="width: 100%; height: 1200px"
>
	<svg viewBox="0 0 100% 1200" height="1200px">
		<rect fill="#EEF2F4" width="100%" height="1200" />
		<rect x="20" y="73" width="250" height="39" rx="4" fill="#F6F7F9"/>

		<rect x="20" y="73" width="250" height="39" rx="4" fill="#F6F7F9"/>

		<path fill-rule="evenodd" clip-rule="evenodd" d="M49 719.5C49 719.224 49.2239 719 49.5 719H229.5C229.776 719 230 719.224 230 719.5C230 719.776 229.776 720 229.5 720H49.5C49.2239 720 49 719.776 49 719.5Z" fill="#D5D7DB"/>

		<rect x="290" y="159" width="80%" height="65" rx="10" fill="white"/>
		<rect x="290" y="236" width="80%" height="65" rx="10" fill="white"/>
		<rect x="290" y="313" width="80%" height="65" rx="10" fill="white"/>
		<rect x="290" y="390" width="80%" height="65" rx="10" fill="white"/>
		<rect x="290" y="467" width="80%" height="65" rx="10" fill="white"/>
		<defs>
			<linearGradient id="paint0_linear_108_46202" x1="311" y1="190.55" x2="250" y2="190.55" gradientUnits="userSpaceOnUse">
				<stop stop-color="white" stop-opacity="0"/>
				<stop offset="0.491803" stop-color="white"/>
				<stop offset="0.9999" stop-color="white" stop-opacity="0.0204973"/>
				<stop offset="1" stop-color="#EEF2F4" stop-opacity="0"/>
			</linearGradient>
			<linearGradient id="paint1_linear_108_46202" x1="311" y1="267.55" x2="250" y2="267.55" gradientUnits="userSpaceOnUse">
				<stop stop-color="white" stop-opacity="0"/>
				<stop offset="0.491803" stop-color="white"/>
				<stop offset="0.9999" stop-color="white" stop-opacity="0.0204973"/>
				<stop offset="1" stop-color="#EEF2F4" stop-opacity="0"/>
			</linearGradient>
			<linearGradient id="paint2_linear_108_46202" x1="311" y1="344.55" x2="250" y2="344.55" gradientUnits="userSpaceOnUse">
				<stop stop-color="white" stop-opacity="0"/>
				<stop offset="0.491803" stop-color="white"/>
				<stop offset="0.9999" stop-color="white" stop-opacity="0.0204973"/>
				<stop offset="1" stop-color="#EEF2F4" stop-opacity="0"/>
			</linearGradient>
			<linearGradient id="paint3_linear_108_46202" x1="311" y1="421.55" x2="250" y2="421.55" gradientUnits="userSpaceOnUse">
				<stop stop-color="white" stop-opacity="0"/>
				<stop offset="0.491803" stop-color="white"/>
				<stop offset="0.9999" stop-color="white" stop-opacity="0.0204973"/>
				<stop offset="1" stop-color="#EEF2F4" stop-opacity="0"/>
			</linearGradient>
			<linearGradient id="paint4_linear_108_46202" x1="311" y1="498.55" x2="250" y2="498.55" gradientUnits="userSpaceOnUse">
				<stop stop-color="white" stop-opacity="0"/>
				<stop offset="0.491803" stop-color="white"/>
				<stop offset="0.9999" stop-color="white" stop-opacity="0.0204973"/>
				<stop offset="1" stop-color="#EEF2F4" stop-opacity="0"/>
			</linearGradient>
			<linearGradient id="paint5_linear_108_46202" x1="1164" y1="372.779" x2="952" y2="372.779" gradientUnits="userSpaceOnUse">
				<stop stop-color="#EEF2F4" stop-opacity="0"/>
				<stop offset="0.491803" stop-color="#EEF2F4"/>
				<stop offset="1" stop-color="#EEF2F4" stop-opacity="0"/>
			</linearGradient>
			<clipPath id="clip0_108_46202">
				<rect width="1064" height="768" fill="white"/>
			</clipPath>
			<clipPath id="clip1_108_46202">
				<rect x="290" y="159" width="754" height="65" rx="10" fill="white"/>
			</clipPath>
			<clipPath id="clip2_108_46202">
				<rect x="290" y="236" width="754" height="65" rx="10" fill="white"/>
			</clipPath>
			<clipPath id="clip3_108_46202">
				<rect x="290" y="313" width="754" height="65" rx="10" fill="white"/>
			</clipPath>
			<clipPath id="clip4_108_46202">
				<rect x="290" y="390" width="754" height="65" rx="10" fill="white"/>
			</clipPath>
			<clipPath id="clip5_108_46202">
				<rect x="290" y="467" width="754" height="65" rx="10" fill="white"/>
			</clipPath>
		</defs>
	</svg>

	<svg height="1200px" id="animated-elements">
		<defs>
			<g id="header">
				<rect x="25" y="31" width="123" height="12" rx="6" fill="#DFE0E3"/>
				<rect x="290" y="28" width="252" height="15" rx="7.5" fill="#DFE0E3"/>
			</g>
			<g id="search">
				<rect x="36" y="89" width="60" height="8" rx="4" fill="#E6E7E9"/>
				<circle cx="250.5" cy="92.5" r="9.5" fill="#E6E7E9"/>
			</g>
			<g id="desc">
				<rect x="290" y="73" width="500" height="8" rx="4" fill="#DFE0E3"/>
				<rect x="290" y="95" width="500" height="8" rx="4" fill="#DFE0E3"/>
				<rect x="290" y="117" width="396" height="8" rx="4" fill="#DFE0E3"/>
			</g>
			<g id="menu">
				<rect x="49" y="142" width="120" height="8" rx="4" fill="#DFE0E3"/>
				<rect x="49" y="178" width="120" height="8" rx="4" fill="#DFE0E3"/>
				<rect x="49" y="214" width="120" height="8" rx="4" fill="#DFE0E3"/>
				<rect x="49" y="250" width="120" height="8" rx="4" fill="#DFE0E3"/>
				<rect x="49" y="286" width="120" height="8" rx="4" fill="#DFE0E3"/>
				<rect x="49" y="322" width="120" height="8" rx="4" fill="#DFE0E3"/>
				<rect x="49" y="358" width="120" height="8" rx="4" fill="#DFE0E3"/>
				<rect x="49" y="394" width="120" height="8" rx="4" fill="#DFE0E3"/>
				<rect x="49" y="430" width="120" height="8" rx="4" fill="#DFE0E3"/>
				<rect x="49" y="466" width="120" height="8" rx="4" fill="#DFE0E3"/>
				<rect x="49" y="502" width="120" height="8" rx="4" fill="#DFE0E3"/>
				<rect x="49" y="538" width="120" height="8" rx="4" fill="#DFE0E3"/>
				<rect x="49" y="574" width="120" height="8" rx="4" fill="#DFE0E3"/>
				<rect x="49" y="610" width="120" height="8" rx="4" fill="#DFE0E3"/>
				<rect x="49" y="646" width="120" height="8" rx="4" fill="#DFE0E3"/>
				<rect x="49" y="682" width="120" height="8" rx="4" fill="#DFE0E3"/>
				<rect x="49" y="749" width="120" height="8" rx="4" fill="#DFE0E3"/>s
			</g>
			<g id="card">
				<rect x="344" y="186" width="328" height="12" rx="6" fill="#DFE0E3"/>
				<circle cx="322" cy="192" r="12" fill="#DFE0E3"/>
				<circle cx="96%" cy="192" r="6" fill="#DFE0E3"/>
			</g>
			<g id="card-2">
				<rect x="344" y="263" width="328" height="12" rx="6" fill="#DFE0E3"/>
				<circle cx="322" cy="269" r="12" fill="#DFE0E3"/>
				<circle cx="96%" cy="269" r="6" fill="#DFE0E3"/>
			</g>
			<g id="card-3">
				<rect x="344" y="340" width="328" height="12" rx="6" fill="#DFE0E3"/>
				<circle cx="322" cy="346" r="12" fill="#DFE0E3"/>
				<circle cx="96%" cy="346" r="6" fill="#DFE0E3"/>
			</g>
			<g id="card-4">
				<rect x="344" y="417" width="328" height="12" rx="6" fill="#DFE0E3"/>
				<circle cx="322" cy="423" r="12" fill="#DFE0E3"/>
				<circle cx="96%" cy="423" r="6" fill="#DFE0E3"/>
			</g>
			<g id="card-5">
				<rect x="344" y="494" width="328" height="12" rx="6" fill="#DFE0E3"/>
				<circle cx="322" cy="500" r="12" fill="#DFE0E3"/>
				<circle cx="96%" cy="500" r="6" fill="#DFE0E3"/>
			</g>
		</defs>

		<use xlink:href="#header"></use>
		<use xlink:href="#search"></use>
		<use xlink:href="#desc"></use>
		<use xlink:href="#menu"></use>
		<use xlink:href="#card"></use>
		<use xlink:href="#card-2"></use>
		<use xlink:href="#card-3"></use>
		<use xlink:href="#card-4"></use>
		<use xlink:href="#card-5"></use>
	</svg>

	<rect id="msk1" width="100%" fill="url(#msk_gd)" mask="url(#headerMsk)" height="1200"/>

	<mask id="headerMsk" fill="white">
		<use xlink:href="#animated-elements"/>
	</mask>

	<linearGradient x1="66.6%" y1="50%" x2="33.3%" y2="50%" id="msk_gd">
		<stop stop-color="#000000" stop-opacity="0" offset="0%"/>
		<stop stop-color="#000000" stop-opacity="0.07" offset="50%"/>
		<stop stop-color="#000000" stop-opacity="0" offset="100%"/>
	</linearGradient>

	<animate xlink:href="#msk1" attributeName="x" from="-100%" to="100%" dur="1s" begin="0s" repeatCount="indefinite"/>
</svg>
