<svg xmlns:xlink="http://www.w3.org/1999/xlink" xmlns="http://www.w3.org/2000/svg" viewBox="0 0 100% 1285"
	 preserveAspectRatio="xMinYMin meet" style="width: 100%; height: 1285px" fill="none">

	<svg height="1285px">
		<defs>
			<g id="upper-right-corner">
				<path d="M9.99997 10V0H0C5.52285 0 9.99997 4.47715 9.99997 10Z" fill="#eef2f4"/>
			</g>
			<g id="lower-right-corner">
				<path d="M9.99997 0V10H0C5.52285 10 9.99997 5.52285 9.99997 0Z" fill="#eef2f4"/>
			</g>
		</defs>

		<rect width="100%" height="1285" fill="#EEF2F4" />
		<rect x="20" width="100%" height="20" fill="white" />
		<rect x="20" width="100%" height="60" rx="10" fill="white" />
		<use xlink:href="#lower-right-corner" x="100%" y="50" transform="translate(-30)" ></use>

		<rect x="20" y="150" width="100%" height="105" rx="10" fill="white" />
		<use xlink:href="#upper-right-corner" x="100%" y="150" transform="translate(-30)" ></use>
		<use xlink:href="#lower-right-corner" x="100%" y="245" transform="translate(-30)" ></use>

		<rect x="20" y="286" width="100%" height="354" rx="10" fill="white" />
		<use xlink:href="#upper-right-corner" x="100%" y="286" transform="translate(-30)" ></use>
		<use xlink:href="#lower-right-corner" x="100%" y="630" transform="translate(-30)" ></use>

		<rect x="20" y="651" width="100%" height="354" rx="10" fill="white" />
		<use xlink:href="#upper-right-corner" x="100%" y="651" transform="translate(-30)" ></use>
		<use xlink:href="#lower-right-corner" x="100%" y="995" transform="translate(-30)" ></use>

		<rect x="20" y="188" width="100%" height="1" fill="#ecedee" />

		<use xlink:href="#upper-right-corner" x="100%" y="73" transform="translate(-30)" ></use>
		<use xlink:href="#lower-right-corner" x="100%" y="123" transform="translate(-30)" ></use>

		<rect x="100%" width="20" height="1285" fill="#EEF2F4" transform="translate(-20)"/>
	</svg>


	<svg height="1285px" id="animated-elements">
		<defs>
			<g id="block-menu-link--animat">
				<rect x="0" y="0" width="69" height="8" rx="2" fill="#ecedee" />
			</g>

			<g id="block-title--animat">
				<circle cx="56" cy="330" r="25" fill="#ecedee" />
				<rect x="99" y="314" width="28%" height="8" rx="2" fill="#ecedee" />
				<rect x="100" y="336" width="7%" height="5" rx="2" fill="#ecedee" />
			</g>

			<g id="block-text--animat">
				<rect x="100" y="356" width="78%" height="5" rx="2" fill="#ecedee" />
				<rect x="100" y="377" width="78%" height="5" rx="2" fill="#ecedee" />
				<rect x="100" y="398" width="78%" height="5" rx="2" fill="#ecedee" />
				<rect x="100" y="419" width="78%" height="5" rx="2" fill="#ecedee" />
			</g>
		</defs>

		<use xlink:href="#block-menu-link--animat" x="40" y="26"></use>
		<use xlink:href="#block-menu-link--animat" x="132" y="26"></use>
		<use xlink:href="#block-menu-link--animat" x="227" y="26"></use>
		<rect x="21" y="106" width="175" height="12" rx="2" fill="#dee3e6" />

		<rect x="40" y="164" width="89" height="8" rx="2" fill="#ecedee" />
		<use xlink:href="#block-menu-link--animat" x="158" y="164"></use>
		<use xlink:href="#block-menu-link--animat" x="253" y="164"></use>
		<use xlink:href="#block-menu-link--animat" x="348" y="164"></use>
		<use xlink:href="#block-menu-link--animat" x="443" y="164"></use>
		<rect x="40" y="219" width="17%" height="8" rx="2" fill="#ecedee" />

		<use xlink:href="#block-title--animat"></use>
		<use xlink:href="#block-title--animat" y="365"></use>

		<use xlink:href="#block-text--animat"></use>

		<use xlink:href="#block-text--animat" y="84"></use>
		<rect x="100" y="524" width="78%" height="5" rx="2" fill="#ecedee" />
		<rect x="100" y="545" width="78%" height="5" rx="2" fill="#ecedee" />
		<rect x="100" y="566" width="43%" height="5" rx="2" fill="#ecedee" />
		<use xlink:href="#block-text--animat" y="365"></use>
	</svg>

	<rect id="msk1" width="100%" fill="url(#msk_gd)" mask="url(#headerMsk)" height="1270"/>

	<mask id="headerMsk" fill="white">
		<use xlink:href="#animated-elements"/>
	</mask>

	<linearGradient x1="66.6%" y1="50%" x2="33.3%" y2="50%" id="msk_gd">
		<stop stop-color="#000000" stop-opacity="0" offset="0%"/>
		<stop stop-color="#000000" stop-opacity="0.07" offset="50%"/>
		<stop stop-color="#000000" stop-opacity="0" offset="100%"/>
	</linearGradient>

	<animate xlink:href="#msk1" attributeName="x" from="-100%" to="100%" dur="1s" begin="0s" repeatCount="indefinite"/>
</svg>