<svg xmlns:xlink="http://www.w3.org/1999/xlink" class="defs-only" xmlns="http://www.w3.org/2000/svg" style="width:100%;height:1200px"><svg height="1200"><rect fill="#EBF1F4" width="100%" height="1200"/><rect fill="#FFF" width="100%" height="1200" x="20" y="122"/><rect fill="#FFF" rx="2" ry="2" width="100%" height="39" x="232" y="12"/><rect fill="#EBF1F4" width="100%" height="39" x="100%" y="12" transform="translate(-380)"/></svg><svg height="1200" id="e"><rect fill="#DEE2E6" rx="2" ry="2" width="175" height="12" x="40" y="26"/><rect fill="#3BC8F5" rx="2" ry="2" width="195" height="39" x="100%" y="12" transform="translate(-225)"/><rect fill="#62D3F7" rx="2" ry="2" width="175" height="14" x="100%" y="25" transform="translate(-215)"/><rect fill="transparent" stroke="#868D95" opacity=".2" rx="2" ry="2" width="39" height="39" x="100%" y="12" transform="translate(-275)"/><rect fill="#DEE2E6" rx="2" ry="2" width="14" height="14" x="100%" y="25" transform="translate(-263)"/><rect fill="transparent" stroke="#868D95" opacity=".2" rx="2" ry="2" width="39" height="39" x="100%" y="12" transform="translate(-325)"/><rect fill="#DEE2E6" rx="2" ry="2" width="14" height="14" x="100%" y="25" transform="translate(-313)"/><line stroke="#DEE2E6" x1="20" y1="70" x2="100%" y2="70"/><rect fill="#DEE2E6" rx="2" ry="2" width="289" height="6" x="45" y="93"/><rect fill="#DEE2E6" rx="2" ry="2" width="41" height="6" x="100%" y="93" transform="translate(-80)"/><rect fill="#DEE2E6" rx="2" ry="2" width="65" height="6" x="100%" y="93" transform="translate(-170)"/><rect fill="#DEE2E6" rx="2" ry="2" width="46" height="6" x="100%" y="93" transform="translate(-240)"/><defs><g id="a"><rect fill="#DEE2E6" rx="2" ry="2" width="10" height="10" x="21" y="23"/><rect fill="#DEE2E6" rx="2" ry="2" width="10" height="10" x="50" y="23"/><rect fill="#DEE2E6" rx="2" ry="2" width="96" height="8" x="89" y="24"/><rect fill="#DEE2E6" rx="2" ry="2" width="105" height="8" x="35%" y="24"/><rect fill="#DEE2E6" rx="2" ry="2" width="105" height="8" x="100%" y="24" transform="translate(-410)"/><rect fill="#DEE2E6" rx="2" ry="2" width="105" height="8" x="100%" y="24" transform="translate(-210)"/><line stroke="#DEE2E6" y1="53" x2="100%" y2="53"/></g><g id="b"><rect fill="#DEE2E6" rx="2" ry="2" width="10" height="10" x="21" y="23"/><rect fill="#DEE2E6" rx="2" ry="2" width="10" height="10" x="50" y="23"/><rect fill="#DEE2E6" rx="2" ry="2" width="96" height="8" x="89" y="24"/><rect fill="#DEE2E6" rx="2" ry="2" width="105" height="8" x="35%" y="24"/><circle fill="#DEE2E6" r="10" cx="100%" cy="28" transform="translate(-400)"/><rect fill="#DEE2E6" rx="2" ry="2" width="105" height="8" x="100%" y="24" transform="translate(-380)"/><circle fill="#DEE2E6" r="10" cx="100%" cy="28" transform="translate(-200)"/><rect fill="#DEE2E6" rx="2" ry="2" width="105" height="8" x="100%" y="24" transform="translate(-180)"/><line stroke="#DEE2E6" y1="53" x2="100%" y2="53"/></g></defs><use xlink:href="#a" y="125" x="20" width="100%" height="400"/><use xlink:href="#b" y="175" x="20" width="100%" height="400"/><use xlink:href="#b" y="225" x="20" width="100%" height="400"/><use xlink:href="#b" y="275" x="20" width="100%" height="400"/><use xlink:href="#b" y="325" x="20" width="100%" height="400"/><use xlink:href="#b" y="375" x="20" width="100%" height="400"/><use xlink:href="#b" y="425" x="20" width="100%" height="400"/><use xlink:href="#b" y="475" x="20" width="100%" height="400"/><use xlink:href="#b" y="525" x="20" width="100%" height="400"/><use xlink:href="#b" y="575" x="20" width="100%" height="400"/><use xlink:href="#b" y="625" x="20" width="100%" height="400"/><use xlink:href="#b" y="675" x="20" width="100%" height="400"/><use xlink:href="#b" y="725" x="20" width="100%" height="400"/><use xlink:href="#b" y="775" x="20" width="100%" height="400"/><use xlink:href="#b" y="825" x="20" width="100%" height="400"/><use xlink:href="#b" y="875" x="20" width="100%" height="400"/><use xlink:href="#b" y="925" x="20" width="100%" height="400"/><use xlink:href="#b" y="975" x="20" width="100%" height="400"/></svg><rect id="f" width="100%" fill="url(#c)" mask="url(#d)" height="1200"/><mask id="d" fill="#fff"><use xlink:href="#e"/></mask><linearGradient x1="66.6%" y1="50%" x2="33.3%" y2="50%" id="c"><stop stop-opacity="0" offset="0%"/><stop stop-opacity=".07" offset="50%"/><stop stop-opacity="0" offset="100%"/></linearGradient><animate xlink:href="#f" attributeName="x" from="-100%" to="100%" dur="1s" begin="0s" repeatCount="indefinite"/><svg viewBox="0 0 100% 1200" height="1200"><rect fill="#EBF1F4" width="20" height="1200" x="100%" transform="translate(-20)"/></svg></svg>