<svg xmlns:xlink="http://www.w3.org/1999/xlink" xmlns="http://www.w3.org/2000/svg" viewBox="0 0 100% 100%"
	 preserveAspectRatio="xMinYMin meet" style="width: 100%; height: 100%" fill="none">

	<svg height="100%">
		<rect width="100%" height="100%" fill="#EEF2F4"/>
		<rect x="100%" y="16.5" width="190" height="38" rx="3.5" fill="#3BC8F5" stroke="#3BC8F5" transform="translate(-210)" />
		<rect x="20" y="74" width="100%" height="518" rx="10" fill="white" />
		<rect x="42" y="156" width="100%" height="1" fill="#ecedee"/>
		<rect x="42" y="510" width="100%" height="1" fill="#ecedee"/>
		<rect x="39.5" y="531.5" width="119" height="39" rx="3.5" stroke="#C6CDD3" />
	</svg>

	<svg height="100%"  id="animated-elements">
		<rect x="30" y="30" width="39%" height="13" rx="2" fill="#dee3e5" />
		<rect x="100%" y="30" width="86" height="13" rx="2" fill="#dee3e5" transform="translate(-322)" />
		<rect x="100%" y="30" width="165" height="14" rx="2" fill="#6cd3f7" transform="translate(-198)" />

		<rect x="42" y="100" width="53" height="8" rx="2" fill="#ecedee" />
		<rect x="147" y="101" width="252" height="6" rx="2" fill="#ecedee" />

		<rect x="42" y="183" width="78%" height="8" rx="2" fill="#ecedee" />
		<rect x="42" y="200" width="78%" height="8" rx="2" fill="#ecedee" />
		<rect x="42" y="217" width="78%" height="8" rx="2" fill="#ecedee" />
		<rect x="42" y="234" width="78%" height="8" rx="2" fill="#ecedee" />
		<rect x="42" y="251" width="78%" height="8" rx="2" fill="#ecedee" />
		<rect x="42" y="268" width="55%" height="8" rx="2" fill="#ecedee" />
		<rect x="42" y="285" width="55%" height="8" rx="2" fill="#ecedee" />
		<rect x="42" y="302" width="29%" height="8" rx="2" fill="#ecedee" />
		<rect x="40" y="483" width="75" height="6" rx="2" fill="#ecedee" />
		<rect x="163" y="483" width="104" height="6" rx="2" fill="#ecedee" />
		<rect x="60" y="545" width="76" height="10" rx="2" fill="#ecedee" />
		<rect x="173" y="545" width="76" height="10" rx="2" fill="#ecedee" />
	</svg>

	<rect id="msk1" width="100%" fill="url(#msk_gd)" mask="url(#headerMsk)" height="1270"/>

	<mask id="headerMsk" fill="white">
		<use xlink:href="#animated-elements"/>
	</mask>

	<linearGradient x1="66.6%" y1="50%" x2="33.3%" y2="50%" id="msk_gd">
		<stop stop-color="#000000" stop-opacity="0" offset="0%"/>
		<stop stop-color="#000000" stop-opacity="0.07" offset="50%"/>
		<stop stop-color="#000000" stop-opacity="0" offset="100%"/>
	</linearGradient>

	<animate xlink:href="#msk1" attributeName="x" from="-100%" to="100%" dur="1s" begin="0s" repeatCount="indefinite"/>

	<svg height="100%">
		<defs>
			<g id="upper-right-corner">
				<path d="M9.99997 10V0H0C5.52285 0 9.99997 4.47715 9.99997 10Z" fill="#eef2f4"/>
			</g>
			<g id="lower-right-corner">
				<path d="M9.99997 0V10H0C5.52285 10 9.99997 5.52285 9.99997 0Z" fill="#eef2f4"/>
			</g>
		</defs>

		<rect width="20" height="100%" fill="#EEF2F4" x="100%" transform="translate(-20)" />
		<rect width="20" height="480" fill="#ffffff" x="100%" y="94" transform="translate(-40)" />
		<use xlink:href="#upper-right-corner" x="100%" y="74" transform="translate(-30)" ></use>
		<use xlink:href="#lower-right-corner" x="100%" y="582" transform="translate(-30)" ></use>
	</svg>
</svg>