<svg xmlns:xlink="http://www.w3.org/1999/xlink" xmlns="http://www.w3.org/2000/svg" viewBox="0 0 100% 100%"
	 preserveAspectRatio="xMinYMin meet" style="width: 100%; height: 100%" fill="none">

	<svg height="100%">
		<defs>
			<g id="upper-right-corner">
				<path d="M9.99997 10V0H0C5.52285 0 9.99997 4.47715 9.99997 10Z" fill="#eef2f4"/>
			</g>
			<g id="lower-right-corner">
				<path d="M9.99997 0V10H0C5.52285 10 9.99997 5.52285 9.99997 0Z" fill="#eef2f4"/>
			</g>

			<g id="upper-right-corner-white">
				<path d="M9.99997 10V0H0C5.52285 0 9.99997 4.47715 9.99997 10Z" fill="white"/>
			</g>

			<g id="upper-left-corner-white">
				<path d="M3.05176e-05 10V0H10C4.47715 0 3.05176e-05 4.47715 3.05176e-05 10Z" fill="white"/>
			</g>
		</defs>

		<rect width="100%" height="100%" fill="#EEF2F4" />
		<rect x="248" y="12" width="50%" height="39" rx="4" fill="white" />
		<rect x="19" y="67" width="100%" height="422" rx="10" fill="white" />
		<use xlink:href="#upper-right-corner" x="100%" y="67" transform="translate(-30)" ></use>
		<use xlink:href="#lower-right-corner" x="100%" y="479" transform="translate(-30)" ></use>
		<rect x="37" y="142" width="100%" height="37" fill="#e4f7fe" />
		<use xlink:href="#upper-right-corner-white" x="100%" y="142" transform="translate(-49)" ></use>
		<use xlink:href="#upper-left-corner-white" x="37" y="142" ></use>
		<rect x="37" y="180" width="100%" height="35" fill="#f6f7f7" />
		<rect x="37" y="256" width="100%" height="1" fill="#E8E9EB" />
		<rect x="37" y="300" width="100%" height="1" fill="#E8E9EB" />
		<rect x="37" y="342" width="100%" height="1" fill="#E8E9EB" />
		<rect x="37" y="388" width="100%" height="1" fill="#E8E9EB" />
		<rect x="37" y="432" width="100%" height="1" fill="#E8E9EB" />
		<rect x="254" y="142" width="2" height="290" fill="#e7eaeb" />
		<rect x="365" y="142" width="1" height="290" fill="#e7eaeb" />
		<rect x="476" y="142" width="1" height="290" fill="#e7eaeb" />
		<rect x="587" y="142" width="1" height="290" fill="#e7eaeb" />
		<rect x="698" y="142" width="1" height="290" fill="#e7eaeb" />
		<rect x="809" y="142" width="1" height="290" fill="#e7eaeb" />
		<rect x="920" y="142" width="1" height="290" fill="#e7eaeb" />
		<rect x="1032" y="142" width="1" height="290" fill="#e7eaeb" />

		<rect x="100%" y="87" width="19" height="322" fill="white" transform="translate(-39)"/>
		<rect x="100%" width="20" height="100%" fill="#EEF2F4" transform="translate(-20)"/>
	</svg>

	<svg height="1000%" id="animated-elements">
		<defs>
			<g id="row--animat">
				<circle cx="57" cy="237" r="12" fill="#ecedee" />
				<rect x="79" y="233" width="109" height="8" rx="2" fill="#ecedee" />
				<rect x="272" y="233" width="63" height="8" rx="2" fill="#ecedee" />
				<rect x="384" y="233" width="63" height="8" rx="2" fill="#ecedee" />
				<rect x="495" y="233" width="63" height="8" rx="2" fill="#ecedee" />
			</g>
		</defs>

		<rect x="28" y="26" width="175" height="12" rx="2" fill="#dee3e6" />
		<rect x="256" y="18" width="146" height="27" rx="2" fill="#BCEDFC" />
		<rect x="267" y="28" width="123" height="7" rx="2" fill="#b6deec" />
		<rect x="100%" y="12.5" width="38" height="38" rx="3.5" stroke="#C6CDD3" transform="translate(-60)" />
		<rect x="100%" y="25" width="14" height="14" rx="2" fill="#dee3e6" transform="translate(-47)" />
		<rect x="45" y="94" width="133" height="10" rx="2" fill="#ecedee" />
		<rect x="100%" y="94" width="52" height="8" rx="2" fill="#ecedee" transform="translate(-99)" />
		<rect x="42" y="458" width="109" height="8" rx="2" fill="#ecedee" />
		<rect x="183" y="458" width="66" height="8" rx="2" fill="#ecedee" />
		<rect x="100%" y="458" width="66" height="8" rx="2" fill="#ecedee" transform="translate(-107)" />

		<rect x="268" y="157" width="39" height="8" rx="2" fill="#d5e6ed" />
		<rect x="379" y="157" width="39" height="8" rx="2" fill="#d5e6ed" />
		<rect x="490" y="157" width="39" height="8" rx="2" fill="#d5e6ed" />
		<rect x="601" y="157" width="39" height="8" rx="2" fill="#d5e6ed" />
		<rect x="712" y="157" width="39" height="8" rx="2" fill="#d5e6ed" />
		<rect x="823" y="157" width="39" height="8" rx="2" fill="#d5e6ed" />

		<use xlink:href="#row--animat" ></use>
		<use xlink:href="#row--animat" y="43" ></use>
		<use xlink:href="#row--animat" y="86" ></use>
		<use xlink:href="#row--animat" y="129" ></use>
		<use xlink:href="#row--animat" y="172" ></use>

	</svg>

	<svg height="100%">
		<rect x="100%" y="87" width="19" height="384" fill="white" transform="translate(-39)"/>
		<rect x="100%" width="20" height="100%" fill="#EEF2F4" transform="translate(-20)"/>
	</svg>

	<rect id="msk1" width="100%" fill="url(#msk_gd)" mask="url(#headerMsk)" height="1270"/>

	<mask id="headerMsk" fill="white">
		<use xlink:href="#animated-elements"/>
	</mask>

	<linearGradient x1="66.6%" y1="50%" x2="33.3%" y2="50%" id="msk_gd">
		<stop stop-color="#000000" stop-opacity="0" offset="0%"/>
		<stop stop-color="#000000" stop-opacity="0.07" offset="50%"/>
		<stop stop-color="#000000" stop-opacity="0" offset="100%"/>
	</linearGradient>

	<animate xlink:href="#msk1" attributeName="x" from="-100%" to="100%" dur="1s" begin="0s" repeatCount="indefinite"/>
</svg>