<?xml version="1.0" encoding="UTF-8"?>
<svg width="101px" height="71px" viewBox="0 0 101 71" version="1.1" xmlns="http://www.w3.org/2000/svg" xmlns:xlink="http://www.w3.org/1999/xlink">
        <path d="M77.5135498,69.9644048 L24.1219789,69.9644048 C23.6651235,69.9644048 23.2122069,69.9473843 22.7638176,69.9139374 C10.6971559,69.6366293 1,59.6776384 1,47.433289 C1.00350816,41.4653391 3.35580538,35.7432276 7.5394129,31.5257542 C9.68387651,29.3639314 12.2194661,27.6882173 14.9781247,26.5687524 C14.9319732,25.9614678 14.9084717,25.3477858 14.9084712,24.7285657 C14.9122717,18.4315227 17.3943775,12.393914 21.8087534,7.94394529 C26.2231293,3.49397658 32.2081725,0.996166287 38.4472412,1 C46.4393124,1.00984049 53.4953983,5.04353662 57.7359469,11.200217 C59.7496979,10.4801018 61.9174434,10.0887047 64.175818,10.0899063 C74.1521769,10.1020273 82.3460836,17.7776485 83.2959684,27.5934868 C92.8550287,29.6968172 100.008442,38.2919133 100,48.5683917 C99.990255,60.41109 90.4729278,70.0049075 78.7392575,70 C78.3278492,70 77.9191753,69.9878559 77.5135498,69.9644048 L77.5135498,69.9644048 Z" stroke="#2FC6F6" fill="none" opacity="0.3"/>
</svg>