<?xml version="1.0" encoding="UTF-8"?>
<svg width="43px" height="30px" viewBox="0 0 43 30" version="1.1" xmlns="http://www.w3.org/2000/svg" xmlns:xlink="http://www.w3.org/1999/xlink">
        <path d="M33.233158,29.9845238 L10.0428797,29.9845238 C9.8444476,29.9845238 9.64772624,29.9771236 9.45297128,29.9625815 C4.21189601,29.8420127 0,25.5120167 0,20.1883865 C0.00152374654,17.5936257 1.0232286,15.1057511 2.84035106,13.272067 C3.77178475,12.3321441 4.87310144,11.6035727 6.07130669,11.1168489 C6.05126107,10.8528121 6.04105336,10.5859938 6.04105316,10.3167677 C6.04270387,7.5789229 7.12079023,4.95387565 9.03814542,3.01910665 C10.9555006,1.08433764 13.5550648,-0.0016668318 16.2649633,0 C19.736267,0.00427847608 22.8010316,1.7580594 24.642886,4.43487694 C25.5175456,4.12178341 26.4590916,3.95161072 27.4400017,3.95213319 C31.7731677,3.95740319 35.3321373,7.29462977 35.7447136,11.5623856 C39.8966286,12.4768771 43.0036668,16.2138754 43,20.6819094 C42.9957673,25.8309087 38.8619788,30.0021337 33.7655361,30 C33.5868436,30 33.4093388,29.9947199 33.233158,29.9845238 L33.233158,29.9845238 Z" fill="#2FC6F6" opacity="0.1"/>
</svg>