<svg width="40" height="40" viewBox="0 0 40 40" fill="none" xmlns="http://www.w3.org/2000/svg">
	<path d="M6.5 6C6.5 4.067 8.067 2.5 10 2.5H24.4649L33.5 11.2125V34C33.5 35.933 31.933 37.5 30 37.5H10C8.067 37.5 6.5 35.933 6.5 34V6Z" fill="url(#paint0_linear_14483_27450)" stroke="url(#paint1_linear_14483_27450)" stroke-linejoin="round"/>
	<path d="M28.65 11C26.4409 11 24.65 9.20914 24.65 7L24.65 2L34 11H28.65Z" fill="#DADEE5"/>
	<path fill-rule="evenodd" clip-rule="evenodd" d="M25.6143 14.2028C26.2969 14.0618 26.9369 14.5831 26.9369 15.2801V24.795C26.9424 24.8301 26.947 24.8655 26.9508 24.9012C27.0325 25.6798 26.6785 26.3831 26.1322 26.889C25.5859 27.3948 24.8215 27.7345 23.9728 27.8236C23.1241 27.9126 22.3058 27.739 21.6664 27.3576C21.027 26.976 20.5348 26.3615 20.4531 25.583C20.3714 24.8044 20.7254 24.1011 21.2717 23.5952C21.8179 23.0894 22.5824 22.7496 23.4311 22.6606C24.2796 22.5716 25.0977 22.7451 25.7369 23.1263V15.4029L18.5249 16.8932C18.3393 16.9315 18.2061 17.0949 18.2058 17.2844L18.1948 26.7783C18.1947 26.8326 18.1874 26.8853 18.1738 26.9353C18.1581 27.6048 17.8259 28.2045 17.3441 28.6507C16.7979 29.1565 16.0334 29.4963 15.1847 29.5853C14.336 29.6743 13.5177 29.5007 12.8784 29.1193C12.2389 28.7378 11.7467 28.1232 11.665 27.3447C11.5833 26.5661 11.9373 25.8628 12.4836 25.3569C13.0298 24.8511 13.7943 24.5114 14.643 24.4223C15.4917 24.3333 16.31 24.5069 16.9493 24.8884C16.9653 24.8979 16.9812 24.9075 16.9969 24.9173L17.0058 17.283C17.0067 16.5249 17.5396 15.8714 18.2821 15.718L25.6143 14.2028ZM25.7597 25.0526C25.7468 25.0071 25.7391 24.9594 25.7373 24.9102C25.6709 24.6329 25.47 24.3644 25.1226 24.1572C24.7267 23.9209 24.1723 23.7894 23.5563 23.8541C22.9403 23.9187 22.4253 24.1624 22.087 24.4756C21.7489 24.7888 21.6132 25.1402 21.6466 25.4577C21.6799 25.7753 21.8855 26.0909 22.2813 26.327C22.6772 26.5632 23.2315 26.6948 23.8476 26.6301C24.4636 26.5655 24.9786 26.3218 25.3168 26.0085C25.6458 25.704 25.7831 25.3632 25.7597 25.0526ZM12.8585 27.2195C12.8251 26.9019 12.9608 26.5505 13.2989 26.2374C13.6372 25.9241 14.1522 25.6804 14.7682 25.6158C15.3843 25.5511 15.9386 25.6827 16.3345 25.9189C16.7303 26.155 16.9359 26.4706 16.9692 26.7882C17.0026 27.1058 16.8669 27.4571 16.5288 27.7703C16.1905 28.0835 15.6755 28.3272 15.0595 28.3919C14.4434 28.4565 13.8891 28.325 13.4932 28.0887C13.0974 27.8526 12.8918 27.537 12.8585 27.2195Z" fill="#1F86FF"/>
	<defs>
		<linearGradient id="paint0_linear_14483_27450" x1="6" y1="2" x2="18.9313" y2="38.3799" gradientUnits="userSpaceOnUse">
			<stop stop-color="#F7FAFF"/>
			<stop offset="0.37" stop-color="#EDF1F9"/>
			<stop offset="1" stop-color="#EDF1F9"/>
		</linearGradient>
		<linearGradient id="paint1_linear_14483_27450" x1="20" y1="2" x2="20" y2="37.5" gradientUnits="userSpaceOnUse">
			<stop stop-color="#E4E8F0"/>
			<stop offset="1" stop-color="#E5E9F1"/>
		</linearGradient>
	</defs>
</svg>
