<svg width="40" height="40" viewBox="0 0 40 40" fill="none" xmlns="http://www.w3.org/2000/svg">
	<path d="M6.5 6C6.5 4.067 8.067 2.5 10 2.5H24.4649L33.5 11.2125V34C33.5 35.933 31.933 37.5 30 37.5H10C8.067 37.5 6.5 35.933 6.5 34V6Z" fill="url(#paint0_linear_14483_27462)" stroke="url(#paint1_linear_14483_27462)" stroke-linejoin="round"/>
	<path d="M28.65 11C26.4409 11 24.65 9.20914 24.65 7L24.65 2L34 11H28.65Z" fill="#DADEE5"/>
	<path fill-rule="evenodd" clip-rule="evenodd" d="M23.0286 14.8727C23.8099 14.0931 25.0751 14.0938 25.8556 14.8743L26.9372 15.956C27.7169 16.7358 27.7183 17.9996 26.9403 18.7812L17.567 28.1966C17.3565 28.4082 17.0909 28.5566 16.8004 28.6251L12.9507 29.533C12.4271 29.6565 11.9656 29.1677 12.1191 28.652L13.2284 24.9251C13.3044 24.6696 13.4431 24.4372 13.6318 24.2489L23.0286 14.8727ZM25.007 15.7228C24.6948 15.4106 24.1887 15.4103 23.8762 15.7221L22.6801 16.9156L24.8971 19.1327L26.0898 17.9346C26.4011 17.6219 26.4005 17.1164 26.0886 16.8045L25.007 15.7228ZM24.0505 19.9831L21.8306 17.7632L14.8487 24.7298L17.092 26.973L24.0505 19.9831ZM13.5155 28.1669L14.2204 25.7985L16.0023 27.5804L13.5155 28.1669Z" fill="#1F86FF"/>
	<path d="M12.4467 19.0555C11.8218 18.4307 11.8218 17.4176 12.4467 16.7928L14.8011 14.4384C15.4259 13.8135 16.439 13.8135 17.0638 14.4384L19.0575 16.432C19.0688 16.4417 19.0798 16.4519 19.0905 16.4626C19.3248 16.6969 19.3248 17.0768 19.0905 17.3112L17.7245 18.6773C17.4902 18.9116 17.1103 18.9116 16.8759 18.6773C16.6416 18.443 16.6416 18.0631 16.8759 17.8288L17.8165 16.8881L17.342 16.4136L15.8826 17.8727C15.6482 18.107 15.2683 18.107 15.034 17.8726C14.7997 17.6383 14.7998 17.2584 15.0341 17.0241L16.4935 15.5651L16.2153 15.2869C16.0591 15.1307 15.8058 15.1307 15.6496 15.2869L13.2952 17.6413C13.139 17.7975 13.139 18.0508 13.2952 18.207L15.3163 20.2281C15.5506 20.4625 15.5506 20.8424 15.3163 21.0767C15.082 21.311 14.7021 21.311 14.4678 21.0767L12.4467 19.0555Z" fill="#1F86FF"/>
	<path d="M22.9354 29.5399C23.5602 30.1647 24.5733 30.1647 25.1981 29.5399L27.5539 27.1841C28.1787 26.5593 28.1787 25.5462 27.5539 24.9214L25.5315 22.899C25.4828 22.8503 25.4278 22.8117 25.3692 22.7833C25.3457 22.746 25.3178 22.7108 25.2853 22.6783C25.051 22.444 24.6711 22.444 24.4368 22.6783L23.0744 24.0408C22.8401 24.2751 22.8401 24.655 23.0744 24.8893C23.3088 25.1236 23.6887 25.1236 23.923 24.8893L24.8738 23.9384L25.5081 24.5726L24.0472 26.0332C23.8128 26.2675 23.8128 26.6474 24.0471 26.8817C24.2814 27.1161 24.6613 27.1161 24.8956 26.8818L26.3566 25.4211L26.7054 25.7699C26.8616 25.9261 26.8616 26.1794 26.7054 26.3356L24.3496 28.6913C24.1934 28.8476 23.9401 28.8476 23.7839 28.6913L21.7628 26.6702C21.5285 26.4359 21.1486 26.4359 20.9143 26.6702C20.6799 26.9045 20.6799 27.2844 20.9143 27.5188L22.9354 29.5399Z" fill="#1F86FF"/>
	<defs>
		<linearGradient id="paint0_linear_14483_27462" x1="6" y1="2" x2="18.9313" y2="38.3799" gradientUnits="userSpaceOnUse">
			<stop stop-color="#F7FAFF"/>
			<stop offset="0.37" stop-color="#EDF1F9"/>
			<stop offset="1" stop-color="#EDF1F9"/>
		</linearGradient>
		<linearGradient id="paint1_linear_14483_27462" x1="20" y1="2" x2="20" y2="37.5" gradientUnits="userSpaceOnUse">
			<stop stop-color="#E4E8F0"/>
			<stop offset="1" stop-color="#E5E9F1"/>
		</linearGradient>
	</defs>
</svg>
