<svg width="40" height="40" viewBox="0 0 40 40" fill="none" xmlns="http://www.w3.org/2000/svg">
	<path d="M6.5 6C6.5 4.067 8.067 2.5 10 2.5H24.4649L33.5 11.2125V34C33.5 35.933 31.933 37.5 30 37.5H10C8.067 37.5 6.5 35.933 6.5 34V6Z" fill="url(#paint0_linear_14163_22371)" stroke="url(#paint1_linear_14163_22371)" stroke-linejoin="round"/>
	<path d="M28.65 11C26.4409 11 24.65 9.20914 24.65 7L24.65 2L34 11H28.65Z" fill="#DADEE5"/>
	<g filter="url(#filter0_d_14163_22371)">
		<path d="M4 18C4 16.8954 4.89543 16 6 16H23C24.1046 16 25 16.8954 25 18V24C25 25.1046 24.1046 26 23 26H6C4.89543 26 4 25.1046 4 24V18Z" fill="#1F86FF"/>
	</g>
	<path d="M6.43359 18.3633H8.49219C10.1758 18.3633 11.1719 19.3828 11.1719 21.168C11.1719 22.9531 10.1797 24 8.49219 24H6.43359V18.3633ZM7.44141 19.2148V23.1484H8.38672C9.51953 23.1484 10.1445 22.457 10.1445 21.1719C10.1445 19.9102 9.51172 19.2148 8.38672 19.2148H7.44141Z" fill="white"/>
	<path d="M14.457 18.2695C16.0977 18.2695 17.1289 19.3906 17.1289 21.1836C17.1289 22.9766 16.0977 24.0938 14.457 24.0938C12.8125 24.0938 11.7812 22.9766 11.7812 21.1836C11.7812 19.3906 12.8125 18.2695 14.457 18.2695ZM14.457 19.1289C13.4492 19.1289 12.8125 19.9258 12.8125 21.1836C12.8125 22.4375 13.4492 23.2344 14.457 23.2344C15.4609 23.2344 16.1016 22.4375 16.1016 21.1836C16.1016 19.9258 15.4609 19.1289 14.457 19.1289Z" fill="white"/>
	<path d="M20.3633 24.0938C18.7539 24.0938 17.7422 22.9883 17.7422 21.1797C17.7422 19.3828 18.7617 18.2695 20.3633 18.2695C21.6719 18.2695 22.668 19.0859 22.793 20.2969H21.8008C21.668 19.5898 21.0938 19.125 20.3633 19.125C19.3945 19.125 18.7734 19.9219 18.7734 21.1797C18.7734 22.4453 19.3906 23.2383 20.3672 23.2383C21.1133 23.2383 21.6484 22.8359 21.8047 22.1562H22.793C22.6172 23.3633 21.6953 24.0938 20.3633 24.0938Z" fill="white"/>
	<defs>
		<filter id="filter0_d_14163_22371" x="2" y="15" width="25" height="14" filterUnits="userSpaceOnUse" color-interpolation-filters="sRGB">
			<feFlood flood-opacity="0" result="BackgroundImageFix"/>
			<feColorMatrix in="SourceAlpha" type="matrix" values="0 0 0 0 0 0 0 0 0 0 0 0 0 0 0 0 0 0 127 0" result="hardAlpha"/>
			<feOffset dy="1"/>
			<feGaussianBlur stdDeviation="1"/>
			<feComposite in2="hardAlpha" operator="out"/>
			<feColorMatrix type="matrix" values="0 0 0 0 0 0 0 0 0 0 0 0 0 0 0 0 0 0 0.12 0"/>
			<feBlend mode="normal" in2="BackgroundImageFix" result="effect1_dropShadow_14163_22371"/>
			<feBlend mode="normal" in="SourceGraphic" in2="effect1_dropShadow_14163_22371" result="shape"/>
		</filter>
		<linearGradient id="paint0_linear_14163_22371" x1="6" y1="2" x2="18.9313" y2="38.3799" gradientUnits="userSpaceOnUse">
			<stop stop-color="#F7FAFF"/>
			<stop offset="0.37" stop-color="#EDF1F9"/>
			<stop offset="1" stop-color="#EDF1F9"/>
		</linearGradient>
		<linearGradient id="paint1_linear_14163_22371" x1="20" y1="2" x2="20" y2="37.5" gradientUnits="userSpaceOnUse">
			<stop stop-color="#E4E8F0"/>
			<stop offset="1" stop-color="#E5E9F1"/>
		</linearGradient>
	</defs>
</svg>
