<svg width="40" height="40" viewBox="0 0 40 40" fill="none" xmlns="http://www.w3.org/2000/svg">
	<path d="M6.5 6C6.5 4.067 8.067 2.5 10 2.5H24.4649L33.5 11.2125V34C33.5 35.933 31.933 37.5 30 37.5H10C8.067 37.5 6.5 35.933 6.5 34V6Z" fill="url(#paint0_linear_14483_26667)" stroke="url(#paint1_linear_14483_26667)" stroke-linejoin="round"/>
	<path d="M28.65 11C26.4409 11 24.65 9.20914 24.65 7L24.65 2L34 11H28.65Z" fill="#DADEE5"/>
	<g filter="url(#filter0_d_14483_26667)">
		<path d="M2 18C2 16.8954 2.89543 16 4 16H25C26.1046 16 27 16.8954 27 18V24C27 25.1046 26.1046 26 25 26H4C2.89543 26 2 25.1046 2 24V18Z" fill="#1F86FF"/>
	</g>
	<path d="M3.88281 18.3633H5.94141C7.625 18.3633 8.62109 19.3828 8.62109 21.168C8.62109 22.9531 7.62891 24 5.94141 24H3.88281V18.3633ZM4.89062 19.2148V23.1484H5.83594C6.96875 23.1484 7.59375 22.457 7.59375 21.1719C7.59375 19.9102 6.96094 19.2148 5.83594 19.2148H4.89062Z" fill="white"/>
	<path d="M11.9062 18.2695C13.5469 18.2695 14.5781 19.3906 14.5781 21.1836C14.5781 22.9766 13.5469 24.0938 11.9062 24.0938C10.2617 24.0938 9.23047 22.9766 9.23047 21.1836C9.23047 19.3906 10.2617 18.2695 11.9062 18.2695ZM11.9062 19.1289C10.8984 19.1289 10.2617 19.9258 10.2617 21.1836C10.2617 22.4375 10.8984 23.2344 11.9062 23.2344C12.9102 23.2344 13.5508 22.4375 13.5508 21.1836C13.5508 19.9258 12.9102 19.1289 11.9062 19.1289Z" fill="white"/>
	<path d="M17.8125 24.0938C16.2031 24.0938 15.1914 22.9883 15.1914 21.1797C15.1914 19.3828 16.2109 18.2695 17.8125 18.2695C19.1211 18.2695 20.1172 19.0859 20.2422 20.2969H19.25C19.1172 19.5898 18.543 19.125 17.8125 19.125C16.8438 19.125 16.2227 19.9219 16.2227 21.1797C16.2227 22.4453 16.8398 23.2383 17.8164 23.2383C18.5625 23.2383 19.0977 22.8359 19.2539 22.1562H20.2422C20.0664 23.3633 19.1445 24.0938 17.8125 24.0938Z" fill="white"/>
	<path d="M20.4492 24L22.2852 21.1758V21.1484L20.4648 18.3633H21.6562L22.9609 20.4805H22.9922L24.3125 18.3633H25.4414L23.5625 21.1719V21.1992L25.4102 24H24.25L22.9219 21.9297H22.8906L21.5469 24H20.4492Z" fill="white"/>
	<defs>
		<filter id="filter0_d_14483_26667" x="0" y="15" width="29" height="14" filterUnits="userSpaceOnUse" color-interpolation-filters="sRGB">
			<feFlood flood-opacity="0" result="BackgroundImageFix"/>
			<feColorMatrix in="SourceAlpha" type="matrix" values="0 0 0 0 0 0 0 0 0 0 0 0 0 0 0 0 0 0 127 0" result="hardAlpha"/>
			<feOffset dy="1"/>
			<feGaussianBlur stdDeviation="1"/>
			<feComposite in2="hardAlpha" operator="out"/>
			<feColorMatrix type="matrix" values="0 0 0 0 0 0 0 0 0 0 0 0 0 0 0 0 0 0 0.12 0"/>
			<feBlend mode="normal" in2="BackgroundImageFix" result="effect1_dropShadow_14483_26667"/>
			<feBlend mode="normal" in="SourceGraphic" in2="effect1_dropShadow_14483_26667" result="shape"/>
		</filter>
		<linearGradient id="paint0_linear_14483_26667" x1="6" y1="2" x2="18.9313" y2="38.3799" gradientUnits="userSpaceOnUse">
			<stop stop-color="#F7FAFF"/>
			<stop offset="0.37" stop-color="#EDF1F9"/>
			<stop offset="1" stop-color="#EDF1F9"/>
		</linearGradient>
		<linearGradient id="paint1_linear_14483_26667" x1="20" y1="2" x2="20" y2="37.5" gradientUnits="userSpaceOnUse">
			<stop stop-color="#E4E8F0"/>
			<stop offset="1" stop-color="#E5E9F1"/>
		</linearGradient>
	</defs>
</svg>
