<svg width="40" height="40" viewBox="0 0 40 40" fill="none" xmlns="http://www.w3.org/2000/svg">
	<path d="M6.5 6C6.5 4.067 8.067 2.5 10 2.5H24.4649L33.5 11.2125V34C33.5 35.933 31.933 37.5 30 37.5H10C8.067 37.5 6.5 35.933 6.5 34V6Z" fill="url(#paint0_linear_14483_27446)" stroke="url(#paint1_linear_14483_27446)" stroke-linejoin="round"/>
	<path d="M28.65 11C26.4409 11 24.65 9.20914 24.65 7L24.65 2L34 11H28.65Z" fill="#DADEE5"/>
	<g filter="url(#filter0_d_14483_27446)">
		<path d="M4 18C4 16.8954 4.89543 16 6 16H23C24.1046 16 25 16.8954 25 18V24C25 25.1046 24.1046 26 23 26H6C4.89543 26 4 25.1046 4 24V18Z" fill="#7D7D7D"/>
	</g>
	<path d="M7.29297 18.3633H9.48438C10.6055 18.3633 11.3828 19.125 11.3828 20.25C11.3828 21.375 10.582 22.1367 9.44141 22.1367H8.30078V24H7.29297V18.3633ZM8.30078 19.1875V21.3242H9.21484C9.9375 21.3242 10.3594 20.9336 10.3594 20.25C10.3594 19.5742 9.94141 19.1875 9.21875 19.1875H8.30078Z" fill="white"/>
	<path d="M16.875 24H15.8711V21.5547H13.1289V24H12.1211V18.3633H13.1289V20.707H15.8711V18.3633H16.875V24Z" fill="white"/>
	<path d="M17.8711 18.3633H20.0625C21.1836 18.3633 21.9609 19.125 21.9609 20.25C21.9609 21.375 21.1602 22.1367 20.0195 22.1367H18.8789V24H17.8711V18.3633ZM18.8789 19.1875V21.3242H19.793C20.5156 21.3242 20.9375 20.9336 20.9375 20.25C20.9375 19.5742 20.5195 19.1875 19.7969 19.1875H18.8789Z" fill="white"/>
	<defs>
		<filter id="filter0_d_14483_27446" x="2" y="15" width="25" height="14" filterUnits="userSpaceOnUse" color-interpolation-filters="sRGB">
			<feFlood flood-opacity="0" result="BackgroundImageFix"/>
			<feColorMatrix in="SourceAlpha" type="matrix" values="0 0 0 0 0 0 0 0 0 0 0 0 0 0 0 0 0 0 127 0" result="hardAlpha"/>
			<feOffset dy="1"/>
			<feGaussianBlur stdDeviation="1"/>
			<feComposite in2="hardAlpha" operator="out"/>
			<feColorMatrix type="matrix" values="0 0 0 0 0 0 0 0 0 0 0 0 0 0 0 0 0 0 0.12 0"/>
			<feBlend mode="normal" in2="BackgroundImageFix" result="effect1_dropShadow_14483_27446"/>
			<feBlend mode="normal" in="SourceGraphic" in2="effect1_dropShadow_14483_27446" result="shape"/>
		</filter>
		<linearGradient id="paint0_linear_14483_27446" x1="6" y1="2" x2="18.9313" y2="38.3799" gradientUnits="userSpaceOnUse">
			<stop stop-color="#F7FAFF"/>
			<stop offset="0.37" stop-color="#EDF1F9"/>
			<stop offset="1" stop-color="#EDF1F9"/>
		</linearGradient>
		<linearGradient id="paint1_linear_14483_27446" x1="20" y1="2" x2="20" y2="37.5" gradientUnits="userSpaceOnUse">
			<stop stop-color="#E4E8F0"/>
			<stop offset="1" stop-color="#E5E9F1"/>
		</linearGradient>
	</defs>
</svg>
