<svg width="40" height="40" viewBox="0 0 40 40" fill="none" xmlns="http://www.w3.org/2000/svg">
	<path d="M6.5 6C6.5 4.067 8.067 2.5 10 2.5H24.4649L33.5 11.2125V34C33.5 35.933 31.933 37.5 30 37.5H10C8.067 37.5 6.5 35.933 6.5 34V6Z" fill="url(#paint0_linear_14483_26954)" stroke="url(#paint1_linear_14483_26954)" stroke-linejoin="round"/>
	<path d="M28.65 11C26.4409 11 24.65 9.20914 24.65 7L24.65 2L34 11H28.65Z" fill="#DADEE5"/>
	<g filter="url(#filter0_d_14483_26954)">
		<path d="M4 18C4 16.8954 4.89543 16 6 16H23C24.1046 16 25 16.8954 25 18V24C25 25.1046 24.1046 26 23 26H6C4.89543 26 4 25.1046 4 24V18Z" fill="#FAA72C"/>
	</g>
	<path d="M7.78906 18.3633H9.98047C11.1016 18.3633 11.8789 19.125 11.8789 20.25C11.8789 21.375 11.0781 22.1367 9.9375 22.1367H8.79688V24H7.78906V18.3633ZM8.79688 19.1875V21.3242H9.71094C10.4336 21.3242 10.8555 20.9336 10.8555 20.25C10.8555 19.5742 10.4375 19.1875 9.71484 19.1875H8.79688Z" fill="white"/>
	<path d="M12.6172 18.3633H14.8086C15.9297 18.3633 16.707 19.125 16.707 20.25C16.707 21.375 15.9062 22.1367 14.7656 22.1367H13.625V24H12.6172V18.3633ZM13.625 19.1875V21.3242H14.5391C15.2617 21.3242 15.6836 20.9336 15.6836 20.25C15.6836 19.5742 15.2656 19.1875 14.543 19.1875H13.625Z" fill="white"/>
	<path d="M19.8281 24H18.8242V19.2148H17.1367V18.3633H21.5117V19.2148H19.8281V24Z" fill="white"/>
	<defs>
		<filter id="filter0_d_14483_26954" x="2" y="15" width="25" height="14" filterUnits="userSpaceOnUse" color-interpolation-filters="sRGB">
			<feFlood flood-opacity="0" result="BackgroundImageFix"/>
			<feColorMatrix in="SourceAlpha" type="matrix" values="0 0 0 0 0 0 0 0 0 0 0 0 0 0 0 0 0 0 127 0" result="hardAlpha"/>
			<feOffset dy="1"/>
			<feGaussianBlur stdDeviation="1"/>
			<feComposite in2="hardAlpha" operator="out"/>
			<feColorMatrix type="matrix" values="0 0 0 0 0 0 0 0 0 0 0 0 0 0 0 0 0 0 0.12 0"/>
			<feBlend mode="normal" in2="BackgroundImageFix" result="effect1_dropShadow_14483_26954"/>
			<feBlend mode="normal" in="SourceGraphic" in2="effect1_dropShadow_14483_26954" result="shape"/>
		</filter>
		<linearGradient id="paint0_linear_14483_26954" x1="6" y1="2" x2="18.9313" y2="38.3799" gradientUnits="userSpaceOnUse">
			<stop stop-color="#F7FAFF"/>
			<stop offset="0.37" stop-color="#EDF1F9"/>
			<stop offset="1" stop-color="#EDF1F9"/>
		</linearGradient>
		<linearGradient id="paint1_linear_14483_26954" x1="20" y1="2" x2="20" y2="37.5" gradientUnits="userSpaceOnUse">
			<stop stop-color="#E4E8F0"/>
			<stop offset="1" stop-color="#E5E9F1"/>
		</linearGradient>
	</defs>
</svg>
