<svg width="40" height="40" viewBox="0 0 40 40" fill="none" xmlns="http://www.w3.org/2000/svg">
	<path d="M6.5 6C6.5 4.067 8.067 2.5 10 2.5H24.4649L33.5 11.2125V34C33.5 35.933 31.933 37.5 30 37.5H10C8.067 37.5 6.5 35.933 6.5 34V6Z" fill="url(#paint0_linear_14483_27326)" stroke="url(#paint1_linear_14483_27326)" stroke-linejoin="round"/>
	<path d="M28.65 11C26.4409 11 24.65 9.20914 24.65 7L24.65 2L34 11H28.65Z" fill="#DADEE5"/>
	<g filter="url(#filter0_d_14483_27326)">
		<path d="M2 18C2 16.8954 2.89543 16 4 16H25C26.1046 16 27 16.8954 27 18V24C27 25.1046 26.1046 26 25 26H4C2.89543 26 2 25.1046 2 24V18Z" fill="#FAA72C"/>
	</g>
	<path d="M5.12109 18.3633H7.3125C8.43359 18.3633 9.21094 19.125 9.21094 20.25C9.21094 21.375 8.41016 22.1367 7.26953 22.1367H6.12891V24H5.12109V18.3633ZM6.12891 19.1875V21.3242H7.04297C7.76562 21.3242 8.1875 20.9336 8.1875 20.25C8.1875 19.5742 7.76953 19.1875 7.04688 19.1875H6.12891Z" fill="white"/>
	<path d="M9.94922 18.3633H12.1406C13.2617 18.3633 14.0391 19.125 14.0391 20.25C14.0391 21.375 13.2383 22.1367 12.0977 22.1367H10.957V24H9.94922V18.3633ZM10.957 19.1875V21.3242H11.8711C12.5938 21.3242 13.0156 20.9336 13.0156 20.25C13.0156 19.5742 12.5977 19.1875 11.875 19.1875H10.957Z" fill="white"/>
	<path d="M17.1602 24H16.1562V19.2148H14.4688V18.3633H18.8438V19.2148H17.1602V24Z" fill="white"/>
	<path d="M19.2109 24L21.0469 21.1758V21.1484L19.2266 18.3633H20.418L21.7227 20.4805H21.7539L23.0742 18.3633H24.2031L22.3242 21.1719V21.1992L24.1719 24H23.0117L21.6836 21.9297H21.6523L20.3086 24H19.2109Z" fill="white"/>
	<defs>
		<filter id="filter0_d_14483_27326" x="0" y="15" width="29" height="14" filterUnits="userSpaceOnUse" color-interpolation-filters="sRGB">
			<feFlood flood-opacity="0" result="BackgroundImageFix"/>
			<feColorMatrix in="SourceAlpha" type="matrix" values="0 0 0 0 0 0 0 0 0 0 0 0 0 0 0 0 0 0 127 0" result="hardAlpha"/>
			<feOffset dy="1"/>
			<feGaussianBlur stdDeviation="1"/>
			<feComposite in2="hardAlpha" operator="out"/>
			<feColorMatrix type="matrix" values="0 0 0 0 0 0 0 0 0 0 0 0 0 0 0 0 0 0 0.12 0"/>
			<feBlend mode="normal" in2="BackgroundImageFix" result="effect1_dropShadow_14483_27326"/>
			<feBlend mode="normal" in="SourceGraphic" in2="effect1_dropShadow_14483_27326" result="shape"/>
		</filter>
		<linearGradient id="paint0_linear_14483_27326" x1="6" y1="2" x2="18.9313" y2="38.3799" gradientUnits="userSpaceOnUse">
			<stop stop-color="#F7FAFF"/>
			<stop offset="0.37" stop-color="#EDF1F9"/>
			<stop offset="1" stop-color="#EDF1F9"/>
		</linearGradient>
		<linearGradient id="paint1_linear_14483_27326" x1="20" y1="2" x2="20" y2="37.5" gradientUnits="userSpaceOnUse">
			<stop stop-color="#E4E8F0"/>
			<stop offset="1" stop-color="#E5E9F1"/>
		</linearGradient>
	</defs>
</svg>
