<svg width="40" height="40" viewBox="0 0 40 40" fill="none" xmlns="http://www.w3.org/2000/svg">
	<path d="M6.5 6C6.5 4.067 8.067 2.5 10 2.5H24.4649L33.5 11.2125V34C33.5 35.933 31.933 37.5 30 37.5H10C8.067 37.5 6.5 35.933 6.5 34V6Z" fill="url(#paint0_linear_14483_27688)" stroke="url(#paint1_linear_14483_27688)" stroke-linejoin="round"/>
	<path d="M28.65 11C26.4409 11 24.65 9.20914 24.65 7L24.65 2L34 11H28.65Z" fill="#DADEE5"/>
	<path fill-rule="evenodd" clip-rule="evenodd" d="M19.1194 13.7593C19.7215 13.697 20.3132 13.6994 20.8882 13.7608C21.4965 13.8257 21.9559 14.269 22.1148 14.8083L22.2626 15.3095C22.2963 15.4239 22.3946 15.537 22.5517 15.5997C22.6083 15.6223 22.6646 15.6456 22.7205 15.6697C22.8758 15.7366 23.0254 15.7262 23.1302 15.6691L23.5885 15.4195C24.0821 15.1506 24.7202 15.162 25.1962 15.5458C25.6589 15.9187 26.0807 16.3404 26.4537 16.8031C26.8376 17.2791 26.849 17.9173 26.5801 18.411L26.3306 18.8691C26.2734 18.974 26.2631 19.1235 26.33 19.2789C26.3541 19.3349 26.3775 19.3912 26.4002 19.448C26.4629 19.605 26.5759 19.7033 26.6903 19.7371L27.1919 19.8849C27.7311 20.0438 28.1744 20.5031 28.2394 21.1115C28.3008 21.6863 28.3032 22.2778 28.2411 22.8797C28.178 23.4903 27.7346 23.9548 27.191 24.115L26.7082 24.2573C26.5926 24.2914 26.4783 24.3915 26.416 24.5515C26.3913 24.6149 26.3657 24.6777 26.3392 24.7401C26.2731 24.8957 26.2838 25.0447 26.3406 25.149L26.5959 25.6177C26.8643 26.1103 26.8538 26.7475 26.4707 27.2235C26.1011 27.6828 25.6828 28.1011 25.2236 28.4707C24.7476 28.8539 24.1103 28.8644 23.6177 28.596L23.1493 28.3409C23.045 28.2841 22.8959 28.2734 22.7403 28.3395C22.6778 28.3661 22.6148 28.3917 22.5513 28.4165C22.3913 28.4788 22.2912 28.5931 22.2571 28.7087L22.1149 29.1912C21.9546 29.7348 21.4902 30.1782 20.8796 30.2413C20.2778 30.3035 19.6863 30.3011 19.1115 30.2397C18.5032 30.1748 18.0439 29.7314 17.8849 29.1922L17.7373 28.6913C17.7035 28.5769 17.6052 28.4638 17.4481 28.4011C17.391 28.3783 17.3343 28.3548 17.278 28.3305C17.1226 28.2636 16.9731 28.274 16.8682 28.3311L16.4106 28.5803C15.9169 28.8493 15.2788 28.8378 14.8027 28.4539C14.3401 28.0809 13.9185 27.6592 13.5456 27.1966C13.1618 26.7205 13.1504 26.0825 13.4193 25.5888L13.6686 25.1311C13.7257 25.0263 13.7361 24.8767 13.6692 24.7214C13.645 24.6651 13.6215 24.6085 13.5987 24.5515C13.536 24.3944 13.423 24.2961 13.3085 24.2624L12.808 24.1148C12.2687 23.9559 11.8254 23.4965 11.7605 22.8881C11.6991 22.3132 11.6967 21.7215 11.759 21.1195C11.8222 20.509 12.2656 20.0447 12.8091 19.8845L13.3151 19.7353C13.427 19.7023 13.5412 19.6058 13.6101 19.447C13.6299 19.4012 13.6503 19.3557 13.6713 19.3103C13.7458 19.1493 13.7367 18.9936 13.678 18.8858L13.4638 18.4925C13.1883 17.9866 13.2101 17.3359 13.607 16.8592C13.9841 16.4061 14.4061 15.9841 14.8592 15.607C15.3359 15.2102 15.9866 15.1883 16.4925 15.4639L16.886 15.6782C16.9938 15.737 17.1495 15.746 17.3105 15.6716C17.3557 15.6507 17.4011 15.6303 17.4467 15.6105C17.6056 15.5416 17.7022 15.4274 17.7352 15.3155L17.8843 14.8094C18.0445 14.2658 18.5089 13.8225 19.1194 13.7593ZM20.7674 14.8922C20.2714 14.8392 19.7594 14.837 19.2365 14.8911C19.131 14.902 19.019 14.984 18.9757 15.131L18.8265 15.6372C18.6828 16.1248 18.314 16.4746 17.8994 16.6544C17.8622 16.6705 17.8251 16.6872 17.7879 16.7043C17.3514 16.9062 16.812 16.9335 16.3417 16.6774L15.9482 16.463C15.8123 16.389 15.672 16.4108 15.5871 16.4815C15.1872 16.8143 14.8143 17.1872 14.4814 17.5871C14.4108 17.672 14.389 17.8124 14.463 17.9482L14.6772 18.3415C14.9334 18.8118 14.9059 19.3513 14.704 19.7879C14.6868 19.8251 14.6701 19.8624 14.6539 19.8998C14.4741 20.3143 14.1243 20.683 13.6367 20.8267L13.1308 20.9758C12.9837 21.0192 12.9017 21.1311 12.8908 21.2367C12.8367 21.7595 12.8389 22.2714 12.8918 22.7674C12.9028 22.8699 12.9831 22.9803 13.1297 23.0235L13.6302 23.171C14.1258 23.3171 14.4825 23.6963 14.6555 24.1298C14.6744 24.1773 14.694 24.2245 14.7142 24.2714C14.899 24.7006 14.9151 25.2214 14.6678 25.6754L14.4185 26.1331C14.3454 26.2671 14.3665 26.4021 14.4314 26.4825C14.7534 26.882 15.1175 27.2461 15.5169 27.5682C15.5973 27.6331 15.7323 27.6542 15.8664 27.5812L16.3239 27.3319C16.778 27.0846 17.2988 27.1007 17.728 27.2855C17.775 27.3058 17.8223 27.3254 17.8699 27.3444C18.3034 27.5174 18.6826 27.8741 18.8287 28.3696L18.9763 28.8705C19.0195 29.017 19.1298 29.0974 19.2323 29.1083C19.7281 29.1613 20.2399 29.1636 20.7626 29.1096C20.8682 29.0986 20.9802 29.0166 21.0235 28.8696L21.1657 28.387C21.3134 27.8859 21.6992 27.5274 22.1383 27.3563C22.191 27.3357 22.2434 27.3144 22.2954 27.2923C22.7231 27.1106 23.2414 27.0954 23.6936 27.3417L24.1619 27.5969C24.2959 27.6698 24.4303 27.6487 24.5101 27.5844C24.9057 27.266 25.266 26.9057 25.5844 26.5101C25.6486 26.4303 25.6697 26.2959 25.5968 26.162L25.3415 25.6933C25.0952 25.2411 25.1103 24.723 25.292 24.2953C25.314 24.2435 25.3353 24.1912 25.3558 24.1385C25.5268 23.6995 25.8853 23.3136 26.3865 23.1659L26.8693 23.0236C27.0163 22.9803 27.0984 22.8683 27.1093 22.7627C27.1633 22.24 27.161 21.7281 27.108 21.2323C27.0971 21.1298 27.0167 21.0194 26.8702 20.9763L26.3687 20.8284C25.8732 20.6824 25.5165 20.3033 25.3435 19.8699C25.3246 19.8226 25.3051 19.7756 25.285 19.7289C25.1002 19.2997 25.0841 18.7789 25.3314 18.3248L25.5809 17.8667C25.654 17.7327 25.6329 17.5977 25.568 17.5173C25.2459 17.1178 24.8817 16.7536 24.4822 16.4316C24.4017 16.3668 24.2668 16.3457 24.1327 16.4187L23.6745 16.6683C23.2205 16.9156 22.6997 16.8995 22.2706 16.7148C22.224 16.6947 22.1771 16.6752 22.1298 16.6564C21.6964 16.4833 21.3172 16.1266 21.1712 15.6312L21.0235 15.13C20.9803 14.9835 20.87 14.9031 20.7674 14.8922ZM19.1768 18.3195C21.8871 17.7426 24.2505 20.1052 23.6738 22.8162C23.3696 24.2463 22.246 25.37 20.8157 25.6741C18.1049 26.2506 15.7425 23.8876 16.3192 21.1773C16.6049 19.8345 17.834 18.6053 19.1768 18.3195ZM22.5609 22.5794C22.9661 20.6744 21.3182 19.027 19.4137 19.4324C18.5052 19.6257 17.6253 20.5057 17.432 21.4141C17.0268 23.3186 18.6741 24.9664 20.5791 24.5612C21.5698 24.3505 22.3501 23.5702 22.5609 22.5794Z" fill="#1F86FF"/>
	<defs>
		<linearGradient id="paint0_linear_14483_27688" x1="6" y1="2" x2="18.9313" y2="38.3799" gradientUnits="userSpaceOnUse">
			<stop stop-color="#F7FAFF"/>
			<stop offset="0.37" stop-color="#EDF1F9"/>
			<stop offset="1" stop-color="#EDF1F9"/>
		</linearGradient>
		<linearGradient id="paint1_linear_14483_27688" x1="20" y1="2" x2="20" y2="37.5" gradientUnits="userSpaceOnUse">
			<stop stop-color="#E4E8F0"/>
			<stop offset="1" stop-color="#E5E9F1"/>
		</linearGradient>
	</defs>
</svg>
