<svg width="40" height="40" viewBox="0 0 40 40" fill="none" xmlns="http://www.w3.org/2000/svg">
	<path d="M6.5 6C6.5 4.067 8.067 2.5 10 2.5H24.4649L33.5 11.2125V34C33.5 35.933 31.933 37.5 30 37.5H10C8.067 37.5 6.5 35.933 6.5 34V6Z" fill="url(#paint0_linear_14483_26930)" stroke="url(#paint1_linear_14483_26930)" stroke-linejoin="round"/>
	<path d="M28.65 11C26.4409 11 24.65 9.20914 24.65 7L24.65 2L34 11H28.65Z" fill="#DADEE5"/>
	<g filter="url(#filter0_d_14483_26930)">
		<path d="M2 18C2 16.8954 2.89543 16 4 16H25C26.1046 16 27 16.8954 27 18V24C27 25.1046 26.1046 26 25 26H4C2.89543 26 2 25.1046 2 24V18Z" fill="#5CC94A"/>
	</g>
	<path d="M4.75781 24L6.59375 21.1758V21.1484L4.77344 18.3633H5.96484L7.26953 20.4805H7.30078L8.62109 18.3633H9.75L7.87109 21.1719V21.1992L9.71875 24H8.55859L7.23047 21.9297H7.19922L5.85547 24H4.75781Z" fill="white"/>
	<path d="M13.9844 23.1484V24H10.418V18.3633H11.4258V23.1484H13.9844Z" fill="white"/>
	<path d="M14.4766 22.4141H15.4531C15.5156 22.9336 16.0352 23.2734 16.7227 23.2734C17.4023 23.2734 17.875 22.9375 17.875 22.4688C17.875 22.0625 17.5859 21.8281 16.875 21.6602L16.1445 21.4883C15.1055 21.25 14.6133 20.75 14.6133 19.9453C14.6133 18.9453 15.4844 18.2695 16.7109 18.2695C17.9531 18.2695 18.7734 18.9414 18.7969 19.9336H17.8359C17.7891 19.4062 17.3477 19.0898 16.7031 19.0898C16.0664 19.0898 15.6367 19.4023 15.6367 19.8711C15.6367 20.2461 15.9219 20.4648 16.6133 20.6289L17.2617 20.7773C18.4062 21.0391 18.8906 21.5117 18.8906 22.3516C18.8906 23.4219 18.0312 24.0938 16.668 24.0938C15.3711 24.0938 14.5195 23.4531 14.4766 22.4141Z" fill="white"/>
	<path d="M19.25 24L21.0859 21.1758V21.1484L19.2656 18.3633H20.457L21.7617 20.4805H21.793L23.1133 18.3633H24.2422L22.3633 21.1719V21.1992L24.2109 24H23.0508L21.7227 21.9297H21.6914L20.3477 24H19.25Z" fill="white"/>
	<defs>
		<filter id="filter0_d_14483_26930" x="0" y="15" width="29" height="14" filterUnits="userSpaceOnUse" color-interpolation-filters="sRGB">
			<feFlood flood-opacity="0" result="BackgroundImageFix"/>
			<feColorMatrix in="SourceAlpha" type="matrix" values="0 0 0 0 0 0 0 0 0 0 0 0 0 0 0 0 0 0 127 0" result="hardAlpha"/>
			<feOffset dy="1"/>
			<feGaussianBlur stdDeviation="1"/>
			<feComposite in2="hardAlpha" operator="out"/>
			<feColorMatrix type="matrix" values="0 0 0 0 0 0 0 0 0 0 0 0 0 0 0 0 0 0 0.12 0"/>
			<feBlend mode="normal" in2="BackgroundImageFix" result="effect1_dropShadow_14483_26930"/>
			<feBlend mode="normal" in="SourceGraphic" in2="effect1_dropShadow_14483_26930" result="shape"/>
		</filter>
		<linearGradient id="paint0_linear_14483_26930" x1="6" y1="2" x2="18.9313" y2="38.3799" gradientUnits="userSpaceOnUse">
			<stop stop-color="#F7FAFF"/>
			<stop offset="0.37" stop-color="#EDF1F9"/>
			<stop offset="1" stop-color="#EDF1F9"/>
		</linearGradient>
		<linearGradient id="paint1_linear_14483_26930" x1="20" y1="2" x2="20" y2="37.5" gradientUnits="userSpaceOnUse">
			<stop stop-color="#E4E8F0"/>
			<stop offset="1" stop-color="#E5E9F1"/>
		</linearGradient>
	</defs>
</svg>
