<svg width="172" height="172" viewBox="0 0 172 172" fill="none" xmlns="http://www.w3.org/2000/svg">
	<g filter="url(#filter0_d_13783_69258)">
		<path d="M37.4873 45.6652C37.4873 43.5844 39.1742 41.8975 41.2551 41.8975H130.745C132.826 41.8975 134.513 43.5844 134.513 45.6652V77.822C134.513 79.9029 132.826 81.5898 130.745 81.5898H41.2551C39.1742 81.5898 37.4873 79.9029 37.4873 77.822V45.6652Z" fill="#374220"/>
	</g>
	<path fill-rule="evenodd" clip-rule="evenodd" d="M130.745 45.2975H41.2551C41.052 45.2975 40.8873 45.4621 40.8873 45.6652V77.822C40.8873 78.0251 41.052 78.1898 41.2551 78.1898H130.745C130.948 78.1898 131.113 78.0251 131.113 77.822V45.6652C131.113 45.4621 130.948 45.2975 130.745 45.2975ZM41.2551 41.8975C39.1742 41.8975 37.4873 43.5844 37.4873 45.6652V77.822C37.4873 79.9029 39.1742 81.5898 41.2551 81.5898H130.745C132.826 81.5898 134.513 79.9029 134.513 77.822V45.6652C134.513 43.5844 132.826 41.8975 130.745 41.8975H41.2551Z" fill="#9CC51F"/>
	<g filter="url(#filter1_d_13783_69258)">
		<path d="M37.4873 94.1779C37.4873 92.0971 39.1742 90.4102 41.2551 90.4102H130.745C132.826 90.4102 134.513 92.097 134.513 94.1779V126.335C134.513 128.416 132.826 130.102 130.745 130.102H41.2551C39.1742 130.102 37.4873 128.416 37.4873 126.335V94.1779Z" fill="#242A2F"/>
	</g>
	<path fill-rule="evenodd" clip-rule="evenodd" d="M130.745 92.6102H41.2551C40.3892 92.6102 39.6873 93.3121 39.6873 94.1779V126.335C39.6873 127.201 40.3892 127.902 41.2551 127.902H130.745C131.611 127.902 132.313 127.201 132.313 126.335V94.1779C132.313 93.3121 131.611 92.6102 130.745 92.6102ZM41.2551 90.4102C39.1742 90.4102 37.4873 92.0971 37.4873 94.1779V126.335C37.4873 128.416 39.1742 130.102 41.2551 130.102H130.745C132.826 130.102 134.513 128.416 134.513 126.335V94.1779C134.513 92.097 132.826 90.4102 130.745 90.4102H41.2551Z" fill="#363C41"/>
	<rect x="48.5127" y="63.9482" width="61.7436" height="6.61538" rx="3.30769" fill="#779E00"/>
	<rect x="48.5127" y="112.462" width="50.7179" height="6.61538" rx="3.30769" fill="#65696F"/>
	<rect opacity="0.7" x="48.5127" y="52.9229" width="35.2821" height="4.41026" rx="2.20513" fill="#9CC51F"/>
	<rect opacity="0.7" x="48.5127" y="101.436" width="35.2821" height="4.41026" rx="2.20513" fill="#54595F"/>
	<path d="M116.22 112.946C117.245 112.946 117.871 112.452 118.177 111.519C118.443 110.56 118.789 110.08 120.613 109.027C122.569 107.894 123.488 106.534 123.488 104.575C123.488 101.336 120.839 99.2305 116.806 99.2305C113.784 99.2305 111.561 100.377 110.67 102.056C110.39 102.563 110.257 103.082 110.257 103.656C110.244 104.855 111.042 105.628 112.294 105.628C113.225 105.628 113.984 105.188 114.37 104.322C114.783 103.349 115.501 102.856 116.566 102.856C117.764 102.856 118.629 103.616 118.629 104.695C118.629 105.841 118.163 106.415 116.353 107.481C114.902 108.307 114.117 109.28 114.117 110.733V110.813C114.117 112.079 114.942 112.946 116.22 112.946ZM116.287 119.077C117.671 119.077 118.802 118.024 118.802 116.677C118.802 115.345 117.671 114.292 116.287 114.292C114.889 114.292 113.771 115.345 113.771 116.677C113.771 118.024 114.889 119.077 116.287 119.077Z" fill="#24B4E1"/>
	<defs>
		<filter id="filter0_d_13783_69258" x="33.4873" y="39.8975" width="105.025" height="47.6924" filterUnits="userSpaceOnUse" color-interpolation-filters="sRGB">
			<feFlood flood-opacity="0" result="BackgroundImageFix"/>
			<feColorMatrix in="SourceAlpha" type="matrix" values="0 0 0 0 0 0 0 0 0 0 0 0 0 0 0 0 0 0 127 0" result="hardAlpha"/>
			<feOffset dy="2"/>
			<feGaussianBlur stdDeviation="2"/>
			<feComposite in2="hardAlpha" operator="out"/>
			<feColorMatrix type="matrix" values="0 0 0 0 0 0 0 0 0 0.332159 0 0 0 0 0.433333 0 0 0 0.1 0"/>
			<feBlend mode="normal" in2="BackgroundImageFix" result="effect1_dropShadow_13783_69258"/>
			<feBlend mode="normal" in="SourceGraphic" in2="effect1_dropShadow_13783_69258" result="shape"/>
		</filter>
		<filter id="filter1_d_13783_69258" x="33.4873" y="88.4102" width="105.025" height="47.6924" filterUnits="userSpaceOnUse" color-interpolation-filters="sRGB">
			<feFlood flood-opacity="0" result="BackgroundImageFix"/>
			<feColorMatrix in="SourceAlpha" type="matrix" values="0 0 0 0 0 0 0 0 0 0 0 0 0 0 0 0 0 0 127 0" result="hardAlpha"/>
			<feOffset dy="2"/>
			<feGaussianBlur stdDeviation="2"/>
			<feComposite in2="hardAlpha" operator="out"/>
			<feColorMatrix type="matrix" values="0 0 0 0 0 0 0 0 0 0.332159 0 0 0 0 0.433333 0 0 0 0.1 0"/>
			<feBlend mode="normal" in2="BackgroundImageFix" result="effect1_dropShadow_13783_69258"/>
			<feBlend mode="normal" in="SourceGraphic" in2="effect1_dropShadow_13783_69258" result="shape"/>
		</filter>
	</defs>
</svg>
