<svg width="348" height="223" viewBox="0 0 348 223" fill="none" xmlns="http://www.w3.org/2000/svg">
<path opacity="0.117164" fill-rule="evenodd" clip-rule="evenodd" d="M66 84.7176H47.6697C47.5128 84.7176 47.3573 84.7118 47.2034 84.7003C43.0607 84.605 39.7317 81.1824 39.7314 76.9744C39.7326 74.9235 40.5402 72.957 41.9766 71.5076C42.7128 70.7646 43.5833 70.1887 44.5304 69.804C44.5146 69.5953 44.5065 69.3844 44.5065 69.1716C44.5078 67.0075 45.36 64.9326 46.8755 63.4033C48.391 61.874 50.4458 61.0156 52.5878 61.0169C55.3316 61.0203 57.7541 62.4065 59.21 64.5223C59.9013 64.2749 60.6456 64.1404 61.4209 64.1408C64.846 64.1449 67.6591 66.7828 67.9852 70.1562C71.267 70.879 73.723 73.8329 73.7201 77.3645C73.7167 81.4345 70.4492 84.7315 66.4208 84.7299C66.2796 84.7298 66.1393 84.7257 66 84.7176V84.7176Z" fill="#2FC6F6"/>
<path opacity="0.302432" fill-rule="evenodd" clip-rule="evenodd" d="M61.4788 195.362H19.2764C18.9153 195.362 18.5573 195.349 18.2028 195.322C8.66495 195.103 1.00048 187.231 1 177.553C1.00277 172.836 2.86211 168.313 6.16897 164.979C7.86402 163.27 9.86823 161.946 12.0488 161.061C12.0123 160.581 11.9937 160.096 11.9937 159.606C11.9967 154.629 13.9587 149.857 17.4479 146.339C20.9372 142.822 25.668 140.848 30.5995 140.851C36.9167 140.858 42.4941 144.047 45.846 148.913C47.4377 148.344 49.1511 148.035 50.9362 148.036C58.8219 148.045 65.2986 154.112 66.0494 161.871C73.6052 163.533 79.2595 170.327 79.2528 178.45C79.2451 187.811 71.7223 195.394 62.4477 195.39C62.1225 195.39 61.7994 195.381 61.4788 195.362V195.362Z" stroke="#2FC6F6" stroke-width="0.790433"/>
<path opacity="0.302432" fill-rule="evenodd" clip-rule="evenodd" d="M303.883 69.7031H291.094C290.985 69.7031 290.876 69.699 290.769 69.6909C287.878 69.6242 285.556 67.2284 285.556 64.2828C285.557 62.8472 286.12 61.4706 287.122 60.456C287.636 59.936 288.243 59.5328 288.904 59.2635C288.893 59.1174 288.887 58.9698 288.887 58.8208C288.888 57.306 289.483 55.8535 290.54 54.783C291.597 53.7125 293.031 53.1116 294.525 53.1125C296.44 53.1149 298.13 54.0853 299.145 55.5664C299.628 55.3931 300.147 55.299 300.688 55.2993C303.077 55.3022 305.04 57.1487 305.268 59.5101C307.557 60.016 309.271 62.0837 309.269 64.5559C309.266 67.4049 306.987 69.7128 304.176 69.7116C304.078 69.7116 303.98 69.7087 303.883 69.7031V69.7031Z" stroke="#2FC6F6" stroke-width="0.790433"/>
<path fill-rule="evenodd" clip-rule="evenodd" d="M282.79 111.209C282.79 164.905 239.084 208.433 185.171 208.433C131.258 208.433 87.5527 164.905 87.5527 111.209C87.5527 57.5144 131.257 13.9861 185.171 13.9861C239.084 13.9861 282.79 57.5144 282.79 111.209ZM247.607 111.209C247.607 145.479 219.653 173.258 185.17 173.258C150.687 173.258 122.733 145.479 122.733 111.209C122.733 76.9406 150.687 49.1604 185.17 49.1604C219.653 49.1604 247.607 76.9406 247.607 111.209Z" fill="#E5F9FF"/>
<path fill-rule="evenodd" clip-rule="evenodd" d="M214.856 35.5266C185.631 24.0555 151.112 30.1294 127.494 53.7474C104.096 77.1462 97.9166 111.244 108.958 140.293L109.296 141.169L109.349 141.218C110.096 141.874 111.235 141.845 111.948 141.132C112.375 140.705 112.557 140.126 112.492 139.57C101.648 111.673 107.487 78.785 130.01 56.2625C152.594 33.678 185.601 27.8688 213.548 38.8354L213.825 38.9459L213.932 38.9369L214.041 38.9208C215.076 38.7384 215.767 37.7517 215.585 36.7169C215.498 36.2229 215.227 35.8072 214.856 35.5266ZM240.117 166.37C216.962 189.525 182.851 195.046 154.471 182.934L151.77 185.636C181.7 199.037 218.063 193.453 242.632 168.885C266.664 144.853 272.531 109.536 260.234 79.9928C260.202 79.9594 260.169 79.9269 260.134 79.8955C259.353 79.1924 258.15 79.2554 257.447 80.0363C257.1 80.4219 256.94 80.9105 256.962 81.3909C268.706 109.637 263.091 143.396 240.117 166.37Z" fill="#C3F0FF"/>
<path opacity="0.0619187" fill-rule="evenodd" clip-rule="evenodd" d="M203.088 131.342H168.872C168.579 131.342 168.289 131.331 168.001 131.31C160.268 131.132 154.054 124.743 154.054 116.888C154.056 113.06 155.563 109.389 158.245 106.684C159.619 105.297 161.244 104.222 163.012 103.504C162.982 103.114 162.967 102.72 162.967 102.323C162.97 98.2835 164.56 94.4103 167.389 91.5556C170.218 88.7009 174.054 87.0986 178.052 87.101C183.174 87.1073 187.696 89.695 190.414 93.6446C191.704 93.1826 193.093 92.9315 194.541 92.9323C200.934 92.9401 206.185 97.8641 206.794 104.161C212.92 105.51 217.505 111.024 217.499 117.617C217.493 125.214 211.394 131.368 203.874 131.365C203.61 131.365 203.348 131.357 203.088 131.342V131.342Z" fill="#2FC6F6"/>
<path opacity="0.0460612" fill-rule="evenodd" clip-rule="evenodd" d="M129.593 144.286L144.486 129.393C146.642 134.433 149.776 139.154 153.889 143.267C157.818 147.195 162.301 150.231 167.087 152.374L152.384 167.077L129.593 144.286ZM216.488 80.6675C212.375 76.5545 207.654 73.4201 202.615 71.2643L222.58 51.2988L245.371 74.0898L225.596 93.8653C223.453 89.0794 220.417 84.596 216.488 80.6675Z" fill="#2FC6F6"/>
<g filter="url(#filter0_d_2543_72561)">
<rect x="161.163" y="111.182" width="32.871" height="32.871" rx="3.95216" fill="#C5F03F"/>
</g>
<g filter="url(#filter1_d_2543_72561)">
<path fill-rule="evenodd" clip-rule="evenodd" d="M129.445 108.726C129.445 107.853 130.153 107.145 131.026 107.145H198.797C199.67 107.145 200.377 107.853 200.377 108.726V149.392C200.377 150.265 199.67 150.973 198.797 150.973H131.026C130.153 150.973 129.445 150.265 129.445 149.392V108.726Z" fill="#A0E8FF"/>
</g>
<path fill-rule="evenodd" clip-rule="evenodd" d="M193.056 143.633L187.213 133.902C186.763 133.155 185.69 133.155 185.25 133.902L179.407 143.633C178.948 144.4 179.503 145.367 180.394 145.367H192.079C192.96 145.367 193.516 144.4 193.056 143.633ZM185.394 137.293C185.394 136.862 185.738 136.517 186.169 136.517H186.275C186.706 136.517 187.051 136.862 187.051 137.293V140.195C187.051 140.626 186.706 140.971 186.275 140.971H186.169C185.738 140.971 185.394 140.626 185.394 140.195V137.293ZM187.204 142.925C187.204 143.461 186.763 143.902 186.227 143.902C185.69 143.902 185.25 143.461 185.25 142.925C185.25 142.388 185.69 141.948 186.227 141.948C186.763 141.948 187.204 142.388 187.204 142.925Z" fill="#67D7FB"/>
<rect opacity="0.882673" x="136.365" y="135.402" width="9.22695" height="9.22695" rx="4.61347" fill="#67D7FB"/>
<rect opacity="0.882673" x="149.629" y="135.402" width="9.22695" height="9.22695" rx="4.61347" fill="#67D7FB"/>
<rect x="137.321" y="114.642" width="49.0182" height="4.03679" rx="2.01839" fill="#67D7FB"/>
<rect x="137.321" y="122.716" width="49.0182" height="4.03679" rx="2.01839" fill="#67D7FB"/>
<g filter="url(#filter2_d_2543_72561)">
<rect x="198.455" y="71.7722" width="32.871" height="32.871" rx="3.95216" fill="#C5F03F"/>
</g>
<g filter="url(#filter3_d_2543_72561)">
<path fill-rule="evenodd" clip-rule="evenodd" d="M166.737 69.3163C166.737 68.4432 167.445 67.7354 168.318 67.7354H236.089C236.962 67.7354 237.669 68.4432 237.669 69.3163V109.983C237.669 110.856 236.962 111.563 236.089 111.563H168.318C167.445 111.563 166.737 110.856 166.737 109.983V69.3163Z" fill="#B3E600"/>
</g>
<g opacity="0.536319">
<rect opacity="0.882673" x="173.657" y="95.9924" width="9.22695" height="9.22695" rx="4.61347" fill="#94B817"/>
<rect opacity="0.882673" x="186.921" y="95.9924" width="9.22695" height="9.22695" rx="4.61347" fill="#94B817"/>
<rect x="174.613" y="75.232" width="49.0182" height="4.03679" rx="2.01839" fill="#94B817"/>
<rect x="174.613" y="83.3058" width="49.0182" height="4.03679" rx="2.01839" fill="#94B817"/>
</g>
<g opacity="0.86563" filter="url(#filter4_d_2543_72561)">
<path d="M185.17 139.665C169.455 139.665 156.715 126.925 156.715 111.209C156.715 95.4936 169.455 82.7536 185.17 82.7536C200.886 82.7536 213.626 95.4936 213.626 111.209C213.626 126.925 200.886 139.665 185.17 139.665Z" fill="#FF5752"/>
</g>
<path fill-rule="evenodd" clip-rule="evenodd" d="M199.524 118.997L187.235 98.528C186.288 96.9566 184.032 96.9566 183.105 98.528L170.816 118.997C169.849 120.608 171.017 122.643 172.891 122.643H197.469C199.323 122.643 200.491 120.608 199.524 118.997ZM183.407 105.66C183.407 104.753 184.133 104.028 185.039 104.028H185.261C186.167 104.028 186.893 104.753 186.893 105.66V111.764C186.893 112.671 186.167 113.396 185.261 113.396H185.039C184.133 113.396 183.407 112.671 183.407 111.764V105.66ZM187.215 117.506C187.215 118.634 186.288 119.561 185.16 119.561C184.032 119.561 183.105 118.634 183.105 117.506C183.105 116.378 184.032 115.451 185.16 115.451C186.288 115.451 187.215 116.378 187.215 117.506Z" fill="white"/>
<defs>
<filter id="filter0_d_2543_72561" x="156.42" y="108.02" width="42.3563" height="42.3562" filterUnits="userSpaceOnUse" color-interpolation-filters="sRGB">
<feFlood flood-opacity="0" result="BackgroundImageFix"/>
<feColorMatrix in="SourceAlpha" type="matrix" values="0 0 0 0 0 0 0 0 0 0 0 0 0 0 0 0 0 0 127 0" result="hardAlpha"/>
<feOffset dy="1.58087"/>
<feGaussianBlur stdDeviation="2.3713"/>
<feColorMatrix type="matrix" values="0 0 0 0 0 0 0 0 0 0 0 0 0 0 0 0 0 0 0.179469 0"/>
<feBlend mode="normal" in2="BackgroundImageFix" result="effect1_dropShadow_2543_72561"/>
<feBlend mode="normal" in="SourceGraphic" in2="effect1_dropShadow_2543_72561" result="shape"/>
</filter>
<filter id="filter1_d_2543_72561" x="124.703" y="103.983" width="80.4178" height="53.3132" filterUnits="userSpaceOnUse" color-interpolation-filters="sRGB">
<feFlood flood-opacity="0" result="BackgroundImageFix"/>
<feColorMatrix in="SourceAlpha" type="matrix" values="0 0 0 0 0 0 0 0 0 0 0 0 0 0 0 0 0 0 127 0" result="hardAlpha"/>
<feOffset dy="1.58087"/>
<feGaussianBlur stdDeviation="2.3713"/>
<feColorMatrix type="matrix" values="0 0 0 0 0 0 0 0 0 0 0 0 0 0 0 0 0 0 0.0957441 0"/>
<feBlend mode="normal" in2="BackgroundImageFix" result="effect1_dropShadow_2543_72561"/>
<feBlend mode="normal" in="SourceGraphic" in2="effect1_dropShadow_2543_72561" result="shape"/>
</filter>
<filter id="filter2_d_2543_72561" x="193.712" y="68.6104" width="42.3563" height="42.3562" filterUnits="userSpaceOnUse" color-interpolation-filters="sRGB">
<feFlood flood-opacity="0" result="BackgroundImageFix"/>
<feColorMatrix in="SourceAlpha" type="matrix" values="0 0 0 0 0 0 0 0 0 0 0 0 0 0 0 0 0 0 127 0" result="hardAlpha"/>
<feOffset dy="1.58087"/>
<feGaussianBlur stdDeviation="2.3713"/>
<feColorMatrix type="matrix" values="0 0 0 0 0 0 0 0 0 0 0 0 0 0 0 0 0 0 0.179469 0"/>
<feBlend mode="normal" in2="BackgroundImageFix" result="effect1_dropShadow_2543_72561"/>
<feBlend mode="normal" in="SourceGraphic" in2="effect1_dropShadow_2543_72561" result="shape"/>
</filter>
<filter id="filter3_d_2543_72561" x="161.995" y="64.5737" width="80.4178" height="53.3132" filterUnits="userSpaceOnUse" color-interpolation-filters="sRGB">
<feFlood flood-opacity="0" result="BackgroundImageFix"/>
<feColorMatrix in="SourceAlpha" type="matrix" values="0 0 0 0 0 0 0 0 0 0 0 0 0 0 0 0 0 0 127 0" result="hardAlpha"/>
<feOffset dy="1.58087"/>
<feGaussianBlur stdDeviation="2.3713"/>
<feColorMatrix type="matrix" values="0 0 0 0 0 0 0 0 0 0 0 0 0 0 0 0 0 0 0.0957441 0"/>
<feBlend mode="normal" in2="BackgroundImageFix" result="effect1_dropShadow_2543_72561"/>
<feBlend mode="normal" in="SourceGraphic" in2="effect1_dropShadow_2543_72561" result="shape"/>
</filter>
<filter id="filter4_d_2543_72561" x="151.972" y="79.5919" width="66.3963" height="66.3964" filterUnits="userSpaceOnUse" color-interpolation-filters="sRGB">
<feFlood flood-opacity="0" result="BackgroundImageFix"/>
<feColorMatrix in="SourceAlpha" type="matrix" values="0 0 0 0 0 0 0 0 0 0 0 0 0 0 0 0 0 0 127 0" result="hardAlpha"/>
<feOffset dy="1.58087"/>
<feGaussianBlur stdDeviation="2.3713"/>
<feColorMatrix type="matrix" values="0 0 0 0 0 0 0 0 0 0 0 0 0 0 0 0 0 0 0.0741641 0"/>
<feBlend mode="normal" in2="BackgroundImageFix" result="effect1_dropShadow_2543_72561"/>
<feBlend mode="normal" in="SourceGraphic" in2="effect1_dropShadow_2543_72561" result="shape"/>
</filter>
</defs>
</svg>
