<svg width="21" height="24" viewBox="0 0 21 24" fill="none" xmlns="http://www.w3.org/2000/svg">
	<path fill-rule="evenodd" clip-rule="evenodd" d="M0 0L12.9968 0L18 5.01203V24H0V0Z" fill="#E5E8EB"/>
	<path opacity="0.3" fill-rule="evenodd" clip-rule="evenodd" d="M13.0078 0L18 5.01172H13.0078V0Z" fill="#535C69"/>
	<path d="M3 11H21V20H3V11Z" fill="#2C77B1"/>
	<path fill-rule="evenodd" clip-rule="evenodd" d="M5.03687 17.9836H6.38382C8.10957 17.9836 9.09947 16.936 9.09947 15.449C9.09947 13.9917 8.18395 12.9827 6.44333 12.9827H5.03687V17.9836ZM5.81849 17.3078V13.6579H6.37638C7.64837 13.6579 8.26635 14.3786 8.26635 15.4566C8.26635 16.458 7.76739 17.3078 6.39126 17.3078H5.81849ZM12.2826 18.0595C13.6816 18.0595 14.723 17.0498 14.723 15.5021C14.723 13.9993 13.7188 12.9371 12.2826 12.9371C10.8538 12.9371 9.83474 13.9841 9.83474 15.5021C9.83474 17.0422 10.8613 18.0595 12.2826 18.0595ZM12.2826 17.3836C11.3156 17.3836 10.6679 16.6705 10.6679 15.5021C10.6679 14.3337 11.3156 13.6124 12.2826 13.6124C13.2868 13.6124 13.8973 14.3711 13.8973 15.5021C13.8973 16.6705 13.2496 17.3836 12.2826 17.3836ZM19.3269 17.0498C18.9669 17.2685 18.5557 17.3838 18.1368 17.3836C17.0954 17.3836 16.4476 16.6174 16.4476 15.5173C16.4476 14.4773 17.073 13.6124 18.1739 13.6124C18.6078 13.6096 19.0352 13.7192 19.4162 13.931V13.1875C19.1335 13.0509 18.6872 12.9371 18.1591 12.9371C16.6262 12.9371 15.6145 14.0903 15.6145 15.54C15.6145 17.0043 16.4923 18.0595 18.0475 18.0595C18.5699 18.0668 19.0852 17.9359 19.5432 17.6795L19.3269 17.0498Z" fill="white"/>
</svg>
