<svg width="13" height="12" viewBox="0 0 13 12" fill="none" xmlns="http://www.w3.org/2000/svg">
<path fill-rule="evenodd" clip-rule="evenodd" d="M8.24277 0.202239C7.97719 -0.0661455 7.54406 -0.0675934 7.27668 0.199009L1.04432 6.41332L2.8921 8.28056L9.12812 2.0626C9.39407 1.79742 9.39551 1.36711 9.13134 1.10016L8.24277 0.202239ZM0.0551111 9.26917C0.00768405 9.22051 -0.0110372 9.15064 0.00643597 9.08451L0.56308 7.01957L2.3054 8.76135L0.239827 9.31783C0.173679 9.33654 0.103786 9.31783 0.0551111 9.26917ZM1.18191 10.9903L0.658959 10.4241C0.726059 10.4293 0.79388 10.432 0.862326 10.432C1.96023 10.432 2.89765 9.74489 3.26799 8.77722L3.45194 8.64674C3.8538 8.36167 4.39808 8.38663 4.77216 8.70728L5.90932 9.68199L7.04025 8.82033C7.58462 8.40557 8.35906 8.49306 8.79719 9.01881L9.20895 9.51293L10.8996 8.64343C11.2764 8.44967 11.7389 8.59802 11.9326 8.97476C12.1264 9.3515 11.978 9.81397 11.6013 10.0077L9.72839 10.9709C9.19597 11.2447 8.54483 11.1124 8.16155 10.6525L7.77531 10.189L6.54313 11.1278C6.14033 11.4347 5.57789 11.4185 5.19341 11.0889L4.04653 10.1059L2.59214 11.1376C2.15186 11.4499 1.54816 11.3869 1.18191 10.9903Z" fill="#959CA4"/>
</svg>
