<svg viewBox="0 0 100% 1200" fill="none"
	 xmlns:xlink="http://www.w3.org/1999/xlink" xmlns="http://www.w3.org/2000/svg"
	 preserveAspectRatio="xMinYMin meet"
	 style="width: 100%; height: 1200px"
>
	<svg viewBox="0 0 100% 1200" height="1200px">
		<rect width="100%" height="1200" fill="#EBF1F4"/>

		<rect opacity="0.6" x="30" y="73" width="65%" height="651.076" rx="8" fill="white"/>
		<rect opacity="0.6" width="288" height="264" rx="8" x="100%" transform="matrix(1 0 0 -1 -307 337)" fill="white"/>

		<rect opacity="0.6" width="288" height="370" rx="8" x="100%" transform="matrix(1 0 0 -1 -307 723)" fill="white"/>

		<rect x="100%" y="401" width="257" height="1" fill="#6A737F" opacity="0.08" transform="translate(-290, 0)"/>
		<rect x="100%" y="574" width="257" height="1" fill="#6A737F" opacity="0.08" transform="translate(-290, 0)"/>
		<rect x="100%" y="447" width="257" height="1" fill="#6A737F" opacity="0.08" transform="translate(-290, 0)"/>
		<rect x="100%" y="669" width="257" height="1" fill="#6A737F" opacity="0.08" transform="translate(-290, 0)"/>
	</svg>

	<svg height="1200px" id="animated-elements">
		<defs>
			<g id="header">
				<rect x="30" y="26.3406" width="50%" height="12" rx="6" fill="#DFE3E6"/>
				<rect x="100%" y="26.3406" width="84.2317" height="12" rx="6" fill="#DFE3E6" transform="translate(-105, 0)"/>
			</g>
			<g id="right-top">
				<rect x="100%" y="89.3406" width="100.18" height="8" rx="4" fill="#DFE3E6" transform="translate(-290, 0)"/>
				<rect x="100%" y="314.341" width="110.073" height="8" rx="4" fill="#DFE3E6" transform="translate(-271, 0)"/>
				<rect x="100%" y="89.3406" width="9.33325" height="8" rx="4" fill="#DFE3E6" transform="translate(-45, 0)"/>
				<rect x="100%" y="314.341" width="9.33325" height="8" rx="4" fill="#DFE3E6" transform="translate(-291, 0)"/>
			</g>
			<g id="right-bottom">
				<rect x="100%" y="372.341" width="9.33325" height="8" rx="4" fill="#DFE3E6" transform="translate(-45, 0)"/>
				<rect x="100%" y="692.341" width="9.33325" height="8" rx="4" fill="#DFE3E6" transform="translate(-45, 0)"/>
				<rect x="100%" y="542.341" width="9.33325" height="8" rx="4" fill="#DFE3E6" transform="translate(-45, 0)"/>
				<rect x="100%" y="421.341" width="9.33325" height="8" rx="4" fill="#DFE3E6" transform="translate(-45, 0)"/>
				<rect x="100%" y="372.341" width="110.073" height="8" rx="4" fill="#DFE3E6" transform="translate(-290, 0)"/>
				<rect x="100%" y="692.341" width="110.073" height="8" rx="4" fill="#DFE3E6" transform="translate(-290, 0)"/>
				<rect x="100%" y="542.341" width="61.0341" height="8" rx="4" fill="#DFE3E6" transform="translate(-290, 0)"/>
				<rect x="100%" y="421.341" width="110.073" height="8" rx="4" fill="#DFE3E6" transform="translate(-290, 0)"/>
				<rect x="100%" y="471.341" width="68.6444" height="8" rx="4" fill="#DFE3E6" transform="translate(-290, 0)"/>
				<rect x="100%" y="599.341" width="68.6444" height="8" rx="4" fill="#DFE3E6" transform="translate(-290, 0)"/>
				<rect x="100%" y="493.341" width="230.238" height="8" rx="4" fill="#DFE3E6" transform="translate(-290, 0)"/>
				<rect x="100%" y="621.341" width="230.238" height="8" rx="4" fill="#DFE3E6" transform="translate(-290, 0)"/>
			</g>
		</defs>

		<use xlink:href="#header"></use>
		<use xlink:href="#right-top"></use>
		<use xlink:href="#right-bottom"></use>
	</svg>

	<rect id="msk1" width="100%" fill="url(#msk_gd)" mask="url(#headerMsk)" height="1200"/>

	<mask id="headerMsk" fill="white">
		<use xlink:href="#animated-elements"/>
	</mask>

	<linearGradient x1="66.6%" y1="50%" x2="33.3%" y2="50%" id="msk_gd">
		<stop stop-color="#000000" stop-opacity="0" offset="0%"/>
		<stop stop-color="#000000" stop-opacity="0.07" offset="50%"/>
		<stop stop-color="#000000" stop-opacity="0" offset="100%"/>
	</linearGradient>

	<animate xlink:href="#msk1" attributeName="x" from="-100%" to="100%" dur="1s" begin="0s" repeatCount="indefinite"/>

	<svg viewBox="0 0 100% 1200" height="1200px">
		<rect fill="#EBF1F4" width="20"   height="1200" x="100%" y="0"   transform="translate(-20, 0)"/>
		<rect fill="#EBF1F4" width="20"   height="1200" x="0"    y="0"/>
		<rect fill="#EBF1F4" width="15"   height="1200" x="100%" y="75"  transform="translate(-320, 0)"/>
	</svg>
</svg>
