<svg xmlns="http://www.w3.org/2000/svg" width="9" height="9" viewBox="0 0 9 9">
  <path fill="#525C69" d="M6.31055355,1.24593221 C6.30000656,1.25542441 6.28945957,1.26526761 6.27891348,1.2758146 L3.71637047,3.87633721 C3.42704151,4.16988712 3.42879649,4.63992517 3.71601884,4.93067611 L4.0615972,5.28152842 C4.34952217,5.57367434 4.81393528,5.57262135 5.10117625,5.28117679 L7.66407927,2.68065417 C7.67462626,2.67010718 7.68411846,2.65956019 7.69360976,2.64901411 L8.48004848,3.44635171 C8.76656946,3.73744464 9,3.63935468 9,3.22697902 L9,0.248550383 C9,0.110383838 8.89066915,0 8.75495958,0 L5.82018048,0 C5.4102618,0 5.31604179,0.236598509 5.60326477,0.52804244 L6.31060332,1.24557788 L6.31055355,1.24593221 Z M1.50154419,0.000345326364 C0.669052955,0.000345326364 0,0.672170252 0,1.50188952 L0,7.49879637 C0,8.3312876 0.671824926,9.00034056 1.50154419,9.00034056 L7.49845104,9.00034056 C8.33094228,9.00034056 8.99999523,8.32851563 8.99999523,7.49879637 L8.99999523,3.62568715 L8.99999523,5.75011478 L7.49989103,4.50632788 L7.49989103,6.75243423 C7.49989103,7.16551188 7.16450056,7.50055135 6.7517739,7.50055135 L2.24795133,7.50055135 C1.83487368,7.50055135 1.49983421,7.16516088 1.49983421,6.75243423 L1.49983421,2.24861165 C1.49983421,1.835534 1.83522468,1.50049453 2.24795133,1.50049453 L4.49999762,1.50049453 L3.24982078,0.00039032589 L5.37424841,0.00039032589 L1.50113919,0.00039032589 L1.50154419,0.000345326364 Z" opacity=".3"/>
</svg>
