<svg xmlns="http://www.w3.org/2000/svg" width="70" height="70" viewBox="0 0 70 70">
  <g fill="none" fill-rule="evenodd">
    <polygon fill="#F3F4F4" points="0 0 70 0 70 70 0 70"/>
    <path fill="#A8ADB4" d="M45.3914005,28.0660576 L40.1413921,28.0660576 C39.7664075,26.5897816 39.391423,25.1135499 37.8913949,25.1135499 L31.8914174,25.1135499 C30.3914343,25.1135499 30.0164047,26.5897816 29.6414202,28.0660576 L24.3914118,28.0660576 C23.5664278,28.0660576 22.8914286,28.7303685 22.8914286,29.5422893 L22.8914286,42.8285077 C22.8914286,43.6404285 23.5664278,44.3047394 24.3914118,44.3047394 L45.3914005,44.3047394 C46.2163845,44.3047394 46.8914286,43.6404285 46.8914286,42.8285077 L46.8914286,29.5422893 C46.8913836,28.7303685 46.2163845,28.0660576 45.3914005,28.0660576 L45.3914005,28.0660576 Z M30.8492348,36.2329027 C30.8492348,38.450283 32.6756748,40.2478023 34.9287309,40.2478023 C37.1817871,40.2478023 39.0082647,38.450283 39.0082647,36.2329027 C39.0082647,34.0155224 37.1818248,32.2180031 34.9287686,32.2180031 C32.6757124,32.2180031 30.8492348,34.0155224 30.8492348,36.2329027 L30.8492348,36.2329027 Z M34.9287686,41.7148141 C31.8524927,41.7148141 29.3586576,39.2605046 29.3586576,36.2329027 C29.3586576,33.2053379 31.852455,30.7509914 34.9287686,30.7509914 C38.0050822,30.7509914 40.4988796,33.2053009 40.4988796,36.2329027 C40.4988419,39.2605046 38.0051198,41.7148141 34.9287686,41.7148141 L34.9287686,41.7148141 Z M44.8616869,31.2916414 L42.8019752,31.2916414 L42.8019752,29.9187322 L44.8616869,29.9187322 L44.8616869,31.2916414 L44.8616869,31.2916414 Z" opacity=".25"/>
  </g>
</svg>
