<svg width="990" height="663" viewBox="0 0 990 663" fill="none" xmlns="http://www.w3.org/2000/svg">
<g clip-path="url(#clip0_2_147)">
<mask id="mask0_2_147" style="mask-type:alpha" maskUnits="userSpaceOnUse" x="-53" y="-410" width="1135" height="1073">
<path fill-rule="evenodd" clip-rule="evenodd" d="M-53 -410H1082V663H-53V-410Z" fill="white"/>
</mask>
<g mask="url(#mask0_2_147)">
<circle opacity="0.226469" cx="495" cy="690" r="362" stroke="url(#paint0_angular_2_147)" stroke-width="2"/>
<ellipse opacity="0.183431" cx="495" cy="690" rx="441" ry="440" stroke="url(#paint1_angular_2_147)" stroke-width="2"/>
<path opacity="0.722772" fill-rule="evenodd" clip-rule="evenodd" d="M584.501 214.136C399.196 214.136 248.977 364.283 248.977 549.5C248.977 734.716 399.196 884.864 584.501 884.864C769.805 884.864 920.025 734.716 920.025 549.5C920.025 364.283 769.805 214.136 584.501 214.136ZM584.501 304.644C449.27 304.644 339.645 414.269 339.645 549.5C339.645 684.73 449.27 794.356 584.501 794.356C719.731 794.356 829.357 684.73 829.357 549.5C829.357 414.269 719.731 304.644 584.501 304.644Z" fill="url(#paint2_angular_2_147)"/>
<path opacity="0.722772" fill-rule="evenodd" clip-rule="evenodd" d="M244.292 527.47C146.475 583.945 112.938 708.986 169.386 806.757C225.834 904.529 350.892 938.006 448.71 881.53C546.527 825.055 580.064 700.014 523.616 602.243C467.168 504.472 342.11 470.994 244.292 527.47ZM271.876 575.246C200.492 616.46 176.033 707.74 217.247 779.125C258.461 850.509 349.741 874.968 421.126 833.754C492.51 792.54 516.969 701.26 475.754 629.875C434.541 558.491 343.261 534.032 271.876 575.246Z" fill="url(#paint3_angular_2_147)"/>
<path opacity="0.062407" fill-rule="evenodd" clip-rule="evenodd" d="M505.47 621.952C506.093 621.952 506.711 621.928 507.322 621.883C523.777 621.505 536.999 607.938 537 591.257C536.995 583.127 533.788 575.331 528.083 569.586C525.158 566.641 521.701 564.358 517.939 562.833C518.002 562.005 518.034 561.169 518.034 560.326C518.029 551.747 514.644 543.522 508.624 537.46C502.605 531.398 494.443 527.995 485.936 528C475.037 528.013 465.415 533.509 459.633 541.896C456.887 540.915 453.931 540.382 450.851 540.383C437.247 540.4 426.074 550.857 424.778 564.229C411.743 567.094 401.988 578.803 402 592.803C402.013 608.937 414.991 622.007 430.992 622C431.553 622 432.11 621.983 432.663 621.952H505.47Z" fill="#2FC6F6"/>
<path opacity="0.062407" fill-rule="evenodd" clip-rule="evenodd" d="M91.8226 317.963C91.3519 317.963 90.8853 317.946 90.4233 317.911C77.991 317.626 68.0006 307.378 68 294.779C68.0036 288.638 70.4272 282.75 74.7376 278.411C76.947 276.186 79.5594 274.462 82.4017 273.31C82.3542 272.685 82.3299 272.054 82.3299 271.416C82.3339 264.937 84.8912 258.724 89.4393 254.145C93.9875 249.566 100.154 246.996 106.582 247C114.816 247.01 122.086 251.161 126.455 257.496C128.53 256.755 130.763 256.352 133.09 256.353C143.369 256.366 151.811 264.264 152.79 274.364C162.639 276.529 170.009 285.373 170 295.947C169.99 308.133 160.184 318.005 148.095 318C147.671 318 147.25 317.988 146.832 317.963H91.8226Z" fill="#2FC6F6"/>
<path opacity="0.062407" fill-rule="evenodd" clip-rule="evenodd" d="M46.7435 106.983C46.5313 106.983 46.3208 106.976 46.1125 106.96C40.5057 106.831 36.0003 102.213 36 96.5343C36.0016 93.7665 37.0946 91.1128 39.0385 89.1569C40.0349 88.1543 41.2131 87.3771 42.4949 86.858C42.4734 86.5763 42.4625 86.2917 42.4625 86.0046C42.4643 83.0842 43.6176 80.2841 45.6687 78.2204C47.7198 76.1566 50.5008 74.9982 53.3997 75C57.1132 75.0046 60.3918 76.8753 62.3622 79.7305C63.2978 79.3966 64.3051 79.2151 65.3544 79.2156C69.9899 79.2212 73.7972 82.7809 74.2385 87.3332C78.6801 88.3087 82.0039 92.2948 82 97.0607C81.9955 102.553 77.5733 107.002 72.1213 107C71.9301 107 71.7402 106.994 71.5518 106.983H46.7435Z" fill="#2FC6F6"/>
<path opacity="0.062407" fill-rule="evenodd" clip-rule="evenodd" d="M951.744 350.983C951.531 350.983 951.321 350.976 951.112 350.96C945.506 350.831 941 346.213 941 340.534C941.002 337.767 942.095 335.113 944.039 333.157C945.035 332.154 946.213 331.377 947.495 330.858C947.473 330.576 947.463 330.292 947.463 330.005C947.464 327.084 948.618 324.284 950.669 322.22C952.72 320.157 955.501 318.998 958.4 319C962.113 319.005 965.392 320.875 967.362 323.731C968.298 323.397 969.305 323.215 970.354 323.216C974.99 323.221 978.797 326.781 979.239 331.333C983.68 332.309 987.004 336.295 987 341.061C986.995 346.553 982.573 351.002 977.121 351C976.93 351 976.74 350.994 976.552 350.983H951.744Z" fill="#2FC6F6"/>
<path opacity="0.062407" fill-rule="evenodd" clip-rule="evenodd" d="M19.4804 675.978C19.1943 675.978 18.9107 675.967 18.6299 675.946C11.073 675.774 5.00038 669.567 5 661.937C5.0022 658.218 6.47535 654.652 9.09539 652.023C10.4384 650.676 12.0263 649.632 13.754 648.934C13.7251 648.556 13.7104 648.173 13.7104 647.787C13.7127 643.863 15.2672 640.101 18.0317 637.327C20.7963 634.554 24.5445 632.998 28.4518 633C33.4569 633.006 37.8759 635.52 40.5316 639.357C41.7927 638.908 43.1503 638.664 44.5647 638.665C50.8125 638.672 55.944 643.456 56.5389 649.573C62.5254 650.884 67.0053 656.24 67 662.644C66.9939 670.024 61.0336 676.003 53.6852 676C53.4275 676 53.1716 675.992 52.9176 675.978H19.4804Z" fill="#2FC6F6"/>
</g>
</g>
<defs>
<radialGradient id="paint0_angular_2_147" cx="0" cy="0" r="1" gradientUnits="userSpaceOnUse" gradientTransform="translate(495 690) scale(362)">
<stop stop-color="#D3F003"/>
<stop offset="1" stop-color="#9AB800"/>
</radialGradient>
<radialGradient id="paint1_angular_2_147" cx="0" cy="0" r="1" gradientUnits="userSpaceOnUse" gradientTransform="translate(495 690) scale(441 440)">
<stop stop-color="#2FC6F6"/>
<stop offset="1" stop-color="#55D0E0"/>
</radialGradient>
<radialGradient id="paint2_angular_2_147" cx="0" cy="0" r="1" gradientUnits="userSpaceOnUse" gradientTransform="translate(584.501 549.5) rotate(30) scale(335.54 335.46)">
<stop stop-color="#2FC6F6"/>
<stop offset="1" stop-color="#B7EB81"/>
</radialGradient>
<radialGradient id="paint3_angular_2_147" cx="0" cy="0" r="1" gradientUnits="userSpaceOnUse" gradientTransform="translate(346.501 704.5) scale(204.524 204.476)">
<stop stop-color="#DAF400"/>
<stop offset="1" stop-color="#B3E600"/>
</radialGradient>
<clipPath id="clip0_2_147">
<rect width="990" height="663" fill="white"/>
</clipPath>
</defs>
</svg>
