<svg xmlns="http://www.w3.org/2000/svg" width="24" height="132" viewBox="0 0 24 132">
  <g fill="none" fill-rule="evenodd" transform="translate(1)">
    <polygon fill="#8BD100" points="6.577 8.999 15.501 0 17 1.511 6.599 12 5.965 11.361 5.944 11.382 0 5.389 1.499 3.878"/>
    <path fill="#535C6A" d="M14,27.0000847 C14,23.1337598 10.8659862,20 7.00011287,20 C3.13404198,20 0,23.1337598 0,27.0000847 C0,30.8658169 3.13404198,33.9998307 7.00011287,33.9998307 C10.8659862,33.9998307 14,30.8658169 14,27.0000847 Z M3.90001572,24.8981292 C3.90001572,24.5054922 4.02606025,24.1076351 4.27820573,23.7046425 C4.53026657,23.3016499 4.89821388,22.9679014 5.3817937,22.7033405 C5.86540175,22.4388642 6.42959702,22.3065556 7.07437953,22.3065556 C7.67364831,22.3065556 8.20277009,22.4171937 8.66157555,22.6382443 C9.12038101,22.8594077 9.47472781,23.1601143 9.7248699,23.5403359 C9.97489912,23.9206704 10.0999561,24.3339339 10.0999561,24.780324 C10.0999561,25.1316798 10.0286522,25.4396664 9.88604436,25.7041144 C9.74343657,25.9686753 9.57390992,26.197034 9.37763374,26.3891905 C9.1812729,26.5814035 8.82892949,26.9048529 8.32054708,27.3595105 C8.17999911,27.4876713 8.06730114,27.600341 7.98265069,27.6974351 C7.89788737,27.7945856 7.83482278,27.8834404 7.79354157,27.9639994 C7.75217572,28.0446148 7.7200932,28.1252021 7.69743509,28.2058175 C7.67466412,28.2863765 7.6405782,28.4280249 7.59514913,28.6305088 C7.5165935,29.0604203 7.2706275,29.2753196 6.85736398,29.2753196 C6.64240827,29.2753196 6.46153846,29.2050879 6.31486744,29.0645117 C6.16811177,28.9240202 6.09477626,28.7152722 6.09477626,28.4383241 C6.09477626,28.0911161 6.14844465,27.7904095 6.25597894,27.5362324 C6.36342859,27.2819989 6.50600817,27.0588038 6.68377412,26.8666473 C6.86142721,26.6744344 7.10121373,26.4461039 7.40296438,26.181543 C7.66744061,25.9501086 7.85866599,25.7754465 7.9764712,25.6576413 C8.09427642,25.5398361 8.19345854,25.4086843 8.27407398,25.2639321 C8.35466122,25.1192926 8.39498305,24.9622661 8.39498305,24.7927394 C8.39498305,24.4620947 8.27195772,24.1831151 8.02607637,23.9557439 C7.78011037,23.7284857 7.46284047,23.6147437 7.07437953,23.6147437 C6.61963729,23.6147437 6.28484475,23.7294451 6.06997368,23.9588478 C5.85501796,24.1882505 5.67318878,24.5261469 5.52437328,24.972537 C5.38382531,25.4396664 5.1172046,25.6731323 4.72456758,25.6731323 C4.49302037,25.6731323 4.29773177,25.5915575 4.13867357,25.4282386 C3.97955893,25.2649761 3.90001572,25.0882824 3.90001572,24.8981292 Z M6.92559225,31.6933033 C6.67341855,31.6933033 6.45332737,31.6116157 6.26529049,31.4483814 C6.07716897,31.2851753 5.98317875,31.0568166 5.98317875,30.7633052 C5.98317875,30.5028922 6.0740369,30.2838733 6.25597894,30.1061073 C6.43780812,29.928426 6.66100315,29.8395148 6.92556403,29.8395148 C7.18597705,29.8395148 7.40499599,29.928426 7.58276194,30.1061073 C7.76041503,30.2838733 7.84935444,30.5028922 7.84935444,30.7633052 C7.84935444,31.0526687 7.75635181,31.2800116 7.57034654,31.4453057 C7.38434128,31.6105998 7.16944199,31.6933033 6.92559225,31.6933033 Z"/>
    <path fill="#FFFFFF" d="M21.7449392,47.8126419 L19.6171415,47.8126419 C19.1588466,43.4242643 15.4597522,40 11.0077449,40 C8.58532906,40 6.42479606,40.9973585 4.85349934,42.5931322 L6.29385467,43.9894342 C7.50506256,42.7593586 9.17456534,41.9947171 11.0404802,41.9947171 C14.4122211,41.9947171 17.1947257,44.5213587 17.6530206,47.8126419 L15.5579583,47.8126419 C15.3615462,47.8126419 15.2306048,48.0786042 15.3942816,48.2115853 L18.5041397,51.3698873 C18.6023457,51.4696232 18.7332871,51.4696232 18.8314931,51.3698873 L21.9413513,48.2115853 C22.0722926,48.0786042 21.9740866,47.8126419 21.7449392,47.8126419 Z M10.9750095,55.5920385 C7.60326861,55.5920385 4.82076399,53.0653968 4.36246911,49.7741137 L6.45753141,49.7741137 C6.6539435,49.7741137 6.7848849,49.5081514 6.62120815,49.3751703 L3.51135005,46.2168682 C3.413144,46.1171324 3.28220261,46.1171324 3.18399656,46.2168682 L0.0741384551,49.3751703 C-0.0895382874,49.5413967 0.0414031066,49.7741137 0.237815198,49.7741137 L2.36561285,49.7741137 C2.85664308,54.1624912 6.52300211,57.6200008 10.9750095,57.6200008 C13.5283667,57.6200008 15.8198411,56.4896612 17.4238732,54.6944158 L15.9835178,53.2981138 C14.7723099,54.6944158 12.9718658,55.5920385 10.9750095,55.5920385 Z"/>
    <path fill="#525C68" d="M9.58556136,67.5758737 C9.37404025,68.5702489 8.59207225,69.3522408 7.59772744,69.5637073 C5.70196287,69.9668973 4.05512576,68.3195209 4.458385,66.4241059 C4.64908405,65.5278337 5.54970924,64.6271199 6.44595405,64.4363742 C8.34135189,64.0329397 9.98884096,65.6799494 9.58556136,67.5758737 M13.4877204,65.9805948 L12.1009145,65.7492225 L12.1009145,65.7492225 C12.0023866,65.3464196 11.8597495,64.9609756 11.6746125,64.6006738 C11.6668297,64.5855152 11.6686429,64.5672801 11.6793392,64.5540163 L12.5495462,63.4750056 C12.7383709,63.2423498 12.7297935,62.9076179 12.5307208,62.6830914 L11.9791605,62.0623225 C11.7792321,61.8380202 11.4476887,61.7905885 11.1947884,61.9503649 L10.0087869,62.6959273 L10.0087869,62.6959273 C9.49463295,62.3367053 8.91320457,62.0700648 8.28626105,61.9129574 C8.26963601,61.9087807 8.25702461,61.8952113 8.25419264,61.8782801 L8.02682069,60.511847 C7.97812724,60.2166212 7.7226394,60 7.42275699,60 L6.59156582,60 C6.29227424,60 6.03593071,60.2166212 5.98831706,60.511847 L5.75968194,61.8787895 C5.75684997,61.8956799 5.74425895,61.9092085 5.72765427,61.9133649 C5.22028477,62.0405219 4.74372049,62.2412102 4.30717042,62.5035925 C4.29246052,62.512435 4.27398145,62.511783 4.26000501,62.5017995 L3.15509142,61.713247 C2.91201125,61.5395752 2.57812491,61.5667343 2.36599258,61.7784249 L1.77877804,62.3660649 C1.56709394,62.5782037 1.53993562,62.9121002 1.71407075,63.1551878 L2.50447351,64.2623153 C2.51443631,64.2762718 2.51512902,64.2947514 2.50630716,64.3094618 C2.24647969,64.742643 2.04787559,65.2163694 1.92084476,65.7191294 C1.91664775,65.7357346 1.90311952,65.7482853 1.88624999,65.7510969 L0.511811001,65.9806152 C0.217042418,66.0292897 0,66.2848058 0,66.5847177 L0,67.4152823 C0,67.7151739 0.217042418,67.9707103 0.511811001,68.0193848 L1.88620925,68.2488827 C1.90309915,68.2517147 1.91664775,68.2642858 1.92082438,68.2809113 C2.02416045,68.6913751 2.17134101,69.0840111 2.36483128,69.4495085 C2.37289931,69.4647486 2.37118791,69.4832689 2.36034903,69.4966957 L1.49444085,70.5691662 C1.30626815,70.8015979 1.3141732,71.136554 1.5132459,71.3608767 L2.06437839,71.9816659 C2.26432717,72.2063757 2.59605388,72.2529517 2.84897461,72.0935828 L4.02827306,71.3527473 C4.04273848,71.3436603 4.06115642,71.344027 4.07529586,71.353603 C4.57863134,71.6937545 5.14642963,71.944238 5.7550367,72.0935828 L5.7550367,72.0935828 L5.98833744,73.4881122 C6.03595108,73.7833584 6.29227424,74 6.59156582,74 L7.42275699,74 C7.72265977,74 7.97812724,73.7833788 8.02682069,73.4881326 L8.25457975,72.1214347 C8.25741171,72.1045239 8.27002311,72.0909748 8.28664816,72.0868185 C8.78745729,71.9614137 9.25782792,71.7642705 9.69026247,71.5065133 C9.70497238,71.4977523 9.72339032,71.498445 9.73730565,71.5083877 L10.8893032,72.3311693 C11.1319555,72.5054727 11.4660863,72.4781302 11.6779945,72.2657673 L12.2654536,71.6783107 C12.4768932,71.4668238 12.5055184,71.1331107 12.3299367,70.8895748 L11.5098493,69.7397426 C11.4998865,69.7257861 11.4992142,69.7073268 11.508036,69.6926368 C11.7686377,69.2579886 11.9683012,68.7833453 12.094619,68.2783238 C12.0987752,68.2616982 12.1123238,68.2490864 12.1292137,68.2462544 L13.488189,68.0193441 C13.7838337,67.9706491 14,67.7151331 14,67.4152415 L14,66.584677 C13.9995518,66.2848058 13.7833854,66.0292897 13.4877204,65.9805948"/>
    <g transform="translate(0 80)">
      <path stroke="#3BC8F5" d="M11,0.450888427 C5.18321988,0.450888427 0.450888427,5.18321988 0.450888427,11 C0.450888427,16.8167801 5.18321988,21.5491116 11,21.5491116 C16.8167801,21.5491116 21.5491116,16.8167801 21.5491116,11 C21.5491116,5.18321988 16.8167801,0.450888427 11,0.450888427 Z"/>
      <path fill="#3BC8F5" d="M14.89075,11.2064879 L9.39075,14.9564999 C9.3485,14.98525 9.29925,15 9.25,15 C9.21,15 9.16975,14.9905 9.13325,14.9709999 C9.05125,14.9277498 9,14.8427495 9,14.7499992 L9,7.24997531 C9,7.15722501 9.05125,7.07222474 9.13325,7.0289746 C9.21525,6.98547446 9.31425,6.99147448 9.391,7.04347465 L14.891,10.7934866 C14.959,10.8399867 15,10.917237 15,10.9999873 C15,11.0827375 14.959,11.1599878 14.89075,11.2064879 Z"/>
    </g>
    <path fill="#00AEEF" d="M10.6071429,129.741071 C6.58035714,129.544643 3.04464286,126.5 2.35714286,122.375 C1.57142857,117.5625 4.8125,113.044643 9.625,112.258929 C14.4375,111.473214 18.9553571,114.714286 19.7410714,119.526786 C19.8392857,120.116071 19.8392857,120.607143 19.8392857,121.196429 L22,121.196429 L22,121 C22,114.910714 17.0892857,110 11,110 C4.91071429,110 0,114.910714 0,121 C0,126.892857 4.61607143,131.705357 10.5089286,132 L10.6071429,129.741071 Z"/>
  </g>
</svg>
