<svg width="25" height="19" fill="none" xmlns="http://www.w3.org/2000/svg"><path fill-rule="evenodd" clip-rule="evenodd" d="M18.544 16.425L2.482.363A1.06 1.06 0 10.984 1.861l16.062 16.062a1.06 1.06 0 001.498-1.498zm-6.636-.76L1.822 5.579l.001 8.958c0 .623.505 1.129 1.129 1.129l8.956-.001zM24.546 3.826a.34.34 0 01.022.121v10.051a.34.34 0 01-.462.319l-5.137-1.95a.34.34 0 01-.22-.318V5.896a.34.34 0 01.22-.318l5.137-1.95a.34.34 0 01.44.198zm-8.02-1.783H7.264l10.39 10.39.001-9.26c0-.624-.505-1.13-1.129-1.13z" fill="#FF5752"/></svg>