<svg width="375" height="874" viewBox="0 0 375 874" fill="none" xmlns="http://www.w3.org/2000/svg" xmlns:xlink="http://www.w3.org/1999/xlink">
<mask id="mask0" mask-type="alpha" maskUnits="userSpaceOnUse" x="0" y="0" width="375" height="874">
<rect width="375" height="874" fill="#EDFAFF"/>
</mask>
<g mask="url(#mask0)">
<rect width="375" height="874" fill="white"/>
<rect width="375" height="874" fill="#F3FED6"/>
<path opacity="0.06" fill-rule="evenodd" clip-rule="evenodd" d="M278.94 30.4325C362.059 30.4325 429.44 97.8136 429.44 180.932C429.44 264.051 362.059 331.432 278.94 331.432C195.821 331.432 128.44 264.051 128.44 180.932C128.44 97.8136 195.821 30.4325 278.94 30.4325ZM278.94 63.1973C213.917 63.1973 161.205 115.909 161.205 180.932C161.205 245.956 213.917 298.668 278.94 298.668C343.963 298.668 396.675 245.956 396.675 180.932C396.675 115.909 343.963 63.1973 278.94 63.1973ZM297.198 163.816L297.197 248.603L306.377 248.604V262.322H251.503V248.604H265.222V176.894H251.503V163.823L297.198 163.816ZM280.503 98.6177C293.191 98.6177 303.477 108.904 303.477 121.592C303.477 134.28 293.191 144.566 280.503 144.566C267.815 144.566 257.529 134.28 257.529 121.592C257.529 108.904 267.815 98.6177 280.503 98.6177Z" fill="#6F9203"/>
<path opacity="0.06" fill-rule="evenodd" clip-rule="evenodd" d="M99.5 477C182.619 477 250 544.381 250 627.5C250 710.619 182.619 778 99.5 778C16.3811 778 -51 710.619 -51 627.5C-51 544.381 16.3811 477 99.5 477ZM99.5 509.765C34.4767 509.765 -18.2352 562.477 -18.2352 627.5C-18.2352 692.523 34.4767 745.235 99.5 745.235C164.523 745.235 217.235 692.523 217.235 627.5C217.235 562.477 164.523 509.765 99.5 509.765ZM117.758 610.383L117.757 695.17L126.937 695.171V708.889H72.0634V695.171H85.7817V623.462H72.0634V610.39L117.758 610.383ZM101.063 545.185C113.751 545.185 124.037 555.471 124.037 568.159C124.037 580.848 113.751 591.134 101.063 591.134C88.3747 591.134 78.0888 580.848 78.0888 568.159C78.0888 555.471 88.3747 545.185 101.063 545.185Z" fill="#6F9203"/>
</g>
<defs>
</defs>
</svg>
