<svg xmlns="http://www.w3.org/2000/svg" width="97" height="77" viewBox="0 0 97 77" fill="none">
	<path d="M58.8745 56.5271C58.8745 60.5281 55.734 63.8246 51.7377 64.0183L9.01702 66.0896C4.73729 66.2971 1.15381 62.8832 1.15381 58.5984V9.66489C1.15381 5.10746 5.18497 1.60341 9.69802 2.23793L52.4187 8.24435C56.121 8.76488 58.8745 11.9326 58.8745 15.6713V56.5271Z" fill="#052717" stroke="#1CAE6A"/>
	<path d="M27.4631 15.9115L27.463 15.9116C24.2618 18.2165 23.1186 23.2329 24.0033 27.8287C24.8868 32.419 27.7178 36.2516 32.1091 36.4303C34.5771 36.5306 36.4819 35.3555 37.8048 33.4658C39.1379 31.5615 39.8688 28.9387 39.9228 26.2332C39.9768 23.5293 39.3534 20.7956 38.0391 18.6748C36.7319 16.5657 34.7472 15.0657 32.0337 14.7637L27.4631 15.9115ZM27.4631 15.9115C27.9554 15.5568 28.7008 15.2216 29.5388 14.9992M27.4631 15.9115L29.5388 14.9992M46.138 53.6976L46.1379 53.6972C45.8648 49.0033 44.0643 46.0765 41.5272 44.2819C38.9648 42.4694 35.5871 41.7666 32.0943 41.6716C28.6064 41.5767 24.8944 42.1425 21.9866 43.9858C19.1075 45.8109 16.958 48.9245 16.6285 54.0718C16.597 54.5735 16.9676 54.9238 17.3573 54.9173L17.3575 54.9173L45.5995 54.4558L45.6001 54.4558M46.138 53.6976L45.6082 54.9557L45.6001 54.4558M46.138 53.6976C46.1663 54.1783 45.8426 54.4512 45.6001 54.4558M46.138 53.6976L45.6001 54.4558M29.5388 14.9992C30.3747 14.7772 31.2629 14.6782 32.0335 14.7637L29.5388 14.9992Z" fill="black" stroke="#1CAE6A"/>
	<path d="M57.5592 74.9109C57.5592 74.911 57.5592 74.911 57.5592 74.9111C57.6095 74.8968 57.656 74.875 57.6978 74.847C57.6557 74.8749 57.6091 74.8967 57.5592 74.9109ZM59.9219 76.1078C59.0499 76.19 58.1909 75.5546 57.9197 74.3744C57.9178 74.3578 57.9151 74.3412 57.9116 74.3244L57.9115 74.3242L52.4721 48.8458L52.4721 48.8457C52.1863 47.5084 52.6305 46.3247 53.3581 45.6384C54.0758 44.9614 55.0537 44.7674 55.9753 45.3401C55.9754 45.3401 55.9754 45.3401 55.9754 45.3402L63.0024 49.7093L63.0026 49.7094C63.8229 50.2191 64.7448 50.28 65.5625 49.954C66.3738 49.6305 67.0508 48.9407 67.4426 48.0023L67.4427 48.0021L73.7952 32.7657L73.7952 32.7657C74.2138 31.7615 74.9406 31.3836 75.5951 31.4261C76.2647 31.4696 77.0183 31.9636 77.4378 33.0371L77.4378 33.0371L83.3302 48.1122C83.6738 48.9911 84.2662 49.6496 84.9887 49.9636C85.7227 50.2825 86.5501 50.2253 87.2722 49.7385C87.2723 49.7385 87.2723 49.7385 87.2724 49.7384L93.2414 45.7175C93.5579 45.5045 93.8579 45.454 94.1274 45.5006C94.4049 45.5486 94.6909 45.7074 94.948 45.9816C95.4657 46.5338 95.8117 47.5041 95.6538 48.6194L95.6537 48.6196L92.4657 71.1766L92.4656 71.1768C92.2946 72.3904 91.558 73.1414 90.8965 73.203L90.8962 73.203L75.5889 74.6388L59.9222 76.1078L59.9219 76.1078Z" fill="#062040" stroke="#1587FA"/>
</svg>