<svg xmlns="http://www.w3.org/2000/svg" width="88" height="82" viewBox="0 0 88 82" fill="none">
	<path d="M58.4131 56.5271C58.4131 60.5281 55.2725 63.8246 51.2763 64.0183L8.55559 66.0896C4.27586 66.2971 0.692383 62.8832 0.692383 58.5984V9.66489C0.692383 5.10746 4.72355 1.60341 9.23659 2.23793L51.9573 8.24435C55.6596 8.76488 58.4131 11.9326 58.4131 15.6713V56.5271Z" fill="#052717" stroke="#1CAE6A"/>
	<path d="M27.0017 15.9115L27.0016 15.9116C23.8004 18.2165 22.6572 23.2329 23.5418 27.8287C24.4254 32.419 27.2564 36.2516 31.6477 36.4303C34.1157 36.5306 36.0205 35.3555 37.3434 33.4658C38.6765 31.5615 39.4074 28.9387 39.4614 26.2332C39.5154 23.5293 38.892 20.7956 37.5777 18.6748C36.2705 16.5657 34.2858 15.0657 31.5722 14.7637L27.0017 15.9115ZM27.0017 15.9115C27.494 15.5568 28.2394 15.2216 29.0773 14.9992M27.0017 15.9115L29.0773 14.9992M45.6765 53.6976L45.6765 53.6972C45.4034 49.0033 43.6028 46.0765 41.0658 44.2819C38.5034 42.4694 35.1257 41.7666 31.6329 41.6716C28.145 41.5767 24.433 42.1425 21.5252 43.9858C18.6461 45.8109 16.4966 48.9245 16.1671 54.0718C16.1356 54.5735 16.5062 54.9238 16.8959 54.9173L16.8961 54.9173L45.1381 54.4558L45.1386 54.4558M45.6765 53.6976L45.1468 54.9557L45.1386 54.4558M45.6765 53.6976C45.7049 54.1783 45.3811 54.4512 45.1386 54.4558M45.6765 53.6976L45.1386 54.4558M29.0773 14.9992C29.9133 14.7772 30.8015 14.6782 31.5721 14.7637L29.0773 14.9992Z" fill="black" stroke="#1CAE6A"/>
	<path fill-rule="evenodd" clip-rule="evenodd" d="M41.9963 71.2346L63.1034 43.7407C61.9194 37.7877 63.1034 31.2956 66.4931 27.004C71.5073 20.6546 79.4003 21.3311 84.0408 28.1544C88.5514 34.7857 88.5514 45.1518 84.0408 51.5223C80.8912 55.9708 76.4871 57.4084 72.2942 56.0007L67.8504 62.1087C67.7205 62.2884 67.5472 62.4012 67.3631 62.4294L64.2189 62.8998C63.9012 62.9473 63.6287 63.2416 63.5276 63.645L62.728 66.8479C62.6269 67.2513 62.3562 67.549 62.0385 67.6037L56.8511 68.5039C56.4666 68.5709 56.1562 68.969 56.102 69.4676L55.6959 73.1602C55.6418 73.6518 55.3385 74.0517 54.9595 74.1327L50.8496 75.0154C50.4652 75.0982 50.1547 75.4963 50.0933 75.9879L49.6222 79.7668C49.5464 80.3729 49.1024 80.8204 48.6277 80.7658C48.6169 80.7658 48.6061 80.7622 48.5952 80.7605L43.5684 79.9377C43.2129 79.8796 42.9349 79.5572 42.8645 79.1185L41.749 72.2635C41.6895 71.8988 41.7833 71.513 41.9963 71.2346ZM81.0175 39.8683C82.5716 37.7507 82.5716 34.4474 81.0175 32.2029C79.449 29.9373 77.0214 29.7946 75.4132 31.9087C73.7887 34.044 73.7887 37.4389 75.4132 39.7062C77.0196 41.949 79.4472 42.0053 81.0175 39.8666V39.8683Z" fill="#062040" stroke="#1587FA"/>
</svg>