<svg xmlns="http://www.w3.org/2000/svg" width="79" height="104" viewBox="0 0 79 104" fill="none">
	<path d="M50.683 88.2298C50.683 92.0268 47.8452 95.2248 44.0752 95.6765L9.39221 99.8319C4.92827 100.367 1 96.8811 1 92.3852V9.56609C1 5.14347 4.80722 1.68112 9.20997 2.09978L43.8929 5.39779C47.7427 5.76386 50.683 8.997 50.683 12.8641V88.2298Z" fill="#052717" stroke="#1CAE6A"/>
	<path opacity="0.32" fill-rule="evenodd" clip-rule="evenodd" d="M35.5536 11.8251C35.5536 13.2355 34.3571 14.3498 32.9503 14.2495L21.0248 13.3998C19.7183 13.3067 18.7059 12.2196 18.7059 10.9098C18.7059 9.45029 19.9525 8.30209 21.4071 8.42183L33.3225 9.40276C34.5833 9.50656 35.5536 10.5601 35.5536 11.8251Z" fill="#1CAE6A"/>
	<path opacity="0.23" fill-rule="evenodd" clip-rule="evenodd" d="M37.6102 92.2695C37.6102 92.7237 37.2686 93.1052 36.8171 93.1553L17.495 95.2956C16.9437 95.3567 16.4617 94.9251 16.4617 94.3705C16.4617 93.8946 16.8206 93.4953 17.2938 93.4449L36.6245 91.3834C37.1511 91.3273 37.6102 91.74 37.6102 92.2695Z" fill="#1CAE6A"/>
	<path d="M20.4922 28.4493C20.4922 31.4532 18.0219 33.8694 15.0187 33.8029C12.1082 33.7385 9.78235 31.3606 9.78235 28.4493V27.4112C9.78235 24.3506 12.343 21.9126 15.3999 22.0627C18.2518 22.2027 20.4922 24.5558 20.4922 27.4112V28.4493Z" fill="black" stroke="#1CAE6A"/>
	<path fill-rule="evenodd" clip-rule="evenodd" d="M43.7708 23.3416C43.7708 23.7704 43.4126 24.1123 42.9843 24.0924L26.1546 23.3082C25.7237 23.2881 25.3846 22.9329 25.3846 22.5016C25.3846 22.0387 25.7729 21.6706 26.2351 21.6952L43.0592 22.591C43.4582 22.6123 43.7708 22.942 43.7708 23.3416Z" fill="#1CAE6A"/>
	<path fill-rule="evenodd" clip-rule="evenodd" d="M35.553 29.2402C35.553 29.6799 35.1891 30.0324 34.7496 30.0184L25.8889 29.7367C25.4515 29.7228 25.104 29.3641 25.104 28.9264C25.104 28.4663 25.4865 28.0984 25.9463 28.1164L34.8047 28.4622C35.2226 28.4785 35.553 28.822 35.553 29.2402Z" fill="#1CAE6A"/>
	<g opacity="0.64">
		<path d="M20.4922 47.5014C20.4922 50.4209 18.1536 52.8024 15.2346 52.8554C12.2395 52.9099 9.78235 50.4969 9.78235 47.5014V46.197C9.78235 43.221 12.2088 40.8159 15.1846 40.8422C18.1235 40.8682 20.4922 43.258 20.4922 46.197V47.5014Z" fill="black" stroke="#1CAE6A"/>
		<path fill-rule="evenodd" clip-rule="evenodd" d="M43.5077 41.9059C43.5077 42.3224 43.1694 42.6597 42.7529 42.6586L25.913 42.6106C25.4658 42.6093 25.104 42.2464 25.104 41.7993C25.104 41.3481 25.4721 40.9836 25.9233 40.988L42.7624 41.1533C43.1752 41.1574 43.5077 41.4931 43.5077 41.9059Z" fill="#1CAE6A"/>
		<path fill-rule="evenodd" clip-rule="evenodd" d="M35.553 48.1526C35.553 48.5808 35.2085 48.9293 34.7804 48.9343L25.9249 49.0381C25.4731 49.0433 25.104 48.6786 25.104 48.2267C25.104 47.7802 25.4648 47.4176 25.9113 47.4153L34.7673 47.3709C35.2006 47.3687 35.553 47.7193 35.553 48.1526Z" fill="#1CAE6A"/>
	</g>
	<g opacity="0.44">
		<path d="M20.4922 67.7561C20.4922 70.5945 18.2774 72.9399 15.4436 73.1022C12.3708 73.2783 9.78235 70.8339 9.78235 67.7561V66.822C9.78235 63.9292 12.0798 61.5593 14.9712 61.4696C17.9923 61.3758 20.4922 63.7994 20.4922 66.822V67.7561Z" fill="black" stroke="#1CAE6A"/>
		<path fill-rule="evenodd" clip-rule="evenodd" d="M43.5077 60.5261C43.5077 60.931 43.1882 61.2638 42.7836 61.2803L25.948 61.9681C25.4875 61.9869 25.104 61.6187 25.104 61.1579C25.104 60.7208 25.4504 60.3624 25.8872 60.3475L42.727 59.7716C43.1538 59.757 43.5077 60.099 43.5077 60.5261Z" fill="#1CAE6A"/>
		<path fill-rule="evenodd" clip-rule="evenodd" d="M35.553 67.1206C35.553 67.535 35.2291 67.8772 34.8153 67.9001L25.959 68.3891C25.4946 68.4147 25.104 68.0451 25.104 67.58C25.104 67.1477 25.4433 66.7916 25.8751 66.7706L34.7344 66.3407C35.1799 66.3191 35.553 66.6745 35.553 67.1206Z" fill="#1CAE6A"/>
	</g>
	<path fill-rule="evenodd" clip-rule="evenodd" d="M67.8095 49.213C67.8095 48.1049 66.9084 47.208 65.8003 47.2131L58.3606 47.2472C57.2597 47.2522 56.3698 48.1462 56.3698 49.2472V76.5402L47.8052 77.187C46.2489 77.3045 45.4209 79.08 46.3313 80.3478L60.9278 100.675C61.7821 101.865 63.5832 101.763 64.298 100.485L76.8128 78.1026C77.5913 76.7103 76.5064 75.0115 74.9157 75.1323L67.8095 75.6719V49.213Z" fill="#062040" stroke="#1587FA"/>
</svg>