<svg width="78" height="78" viewBox="0 0 78 78" fill="none" xmlns="http://www.w3.org/2000/svg">
	<mask id="path-1-inside-1_19266_864" fill="white">
		<path fill-rule="evenodd" clip-rule="evenodd" d="M65.2658 49.4592C65.2658 53.6823 61.9832 57.178 57.7685 57.4434L42.3924 58.4116V67.3458L48.0345 66.8261C49.313 66.7083 50.4163 67.7147 50.4163 68.9987C50.4163 70.1142 49.5749 71.05 48.4657 71.1682L24.4893 73.7227C23.0983 73.8709 21.8857 72.7806 21.8857 71.3818C21.8857 70.1653 22.8126 69.1492 24.024 69.0376L31 68.3951V59.1289L10.5027 60.4194C5.89581 60.7095 2 57.0513 2 52.4353V14.797C2 10.0795 6.0611 6.38627 10.7574 6.83291L58.0232 11.3281C62.1295 11.7186 65.2658 15.1673 65.2658 19.2922V49.4592Z"/>
	</mask>
	<path fill-rule="evenodd" clip-rule="evenodd" d="M65.2658 49.4592C65.2658 53.6823 61.9832 57.178 57.7685 57.4434L42.3924 58.4116V67.3458L48.0345 66.8261C49.313 66.7083 50.4163 67.7147 50.4163 68.9987C50.4163 70.1142 49.5749 71.05 48.4657 71.1682L24.4893 73.7227C23.0983 73.8709 21.8857 72.7806 21.8857 71.3818C21.8857 70.1653 22.8126 69.1492 24.024 69.0376L31 68.3951V59.1289L10.5027 60.4194C5.89581 60.7095 2 57.0513 2 52.4353V14.797C2 10.0795 6.0611 6.38627 10.7574 6.83291L58.0232 11.3281C62.1295 11.7186 65.2658 15.1673 65.2658 19.2922V49.4592Z" fill="#CAFFE7"/>
	<path d="M57.7685 57.4434L57.8313 58.4414L57.7685 57.4434ZM42.3924 58.4116L42.3296 57.4135L41.3924 57.4725V58.4116H42.3924ZM42.3924 67.3458H41.3924V68.4421L42.4841 68.3416L42.3924 67.3458ZM48.0345 66.8261L48.1262 67.8219L48.0345 66.8261ZM48.4657 71.1682L48.3598 70.1738H48.3598L48.4657 71.1682ZM24.4893 73.7227L24.5952 74.7171H24.5952L24.4893 73.7227ZM24.024 69.0376L24.1157 70.0334L24.024 69.0376ZM31 68.3951L31.0917 69.3909L32 69.3072V68.3951H31ZM31 59.1289H32V58.0639L30.9372 58.1308L31 59.1289ZM10.5027 60.4194L10.5656 61.4175H10.5656L10.5027 60.4194ZM10.7574 6.83291L10.6627 7.82842L10.7574 6.83291ZM58.0232 11.3281L57.9285 12.3236L58.0232 11.3281ZM57.8313 58.4414C62.5729 58.1429 66.2657 54.2102 66.2657 49.4592H64.2658C64.2658 53.1544 61.3935 56.2132 57.7056 56.4454L57.8313 58.4414ZM42.4553 59.4096L57.8313 58.4414L57.7056 56.4454L42.3296 57.4135L42.4553 59.4096ZM43.3924 67.3458V58.4116H41.3924V67.3458H43.3924ZM42.4841 68.3416L48.1262 67.8219L47.9427 65.8303L42.3007 66.35L42.4841 68.3416ZM48.1262 67.8219C48.8187 67.7581 49.4163 68.3032 49.4163 68.9987H51.4163C51.4163 67.1262 49.8073 65.6586 47.9427 65.8303L48.1262 67.8219ZM49.4163 68.9987C49.4163 69.6029 48.9606 70.1098 48.3598 70.1738L48.5716 72.1625C50.1893 71.9902 51.4163 70.6254 51.4163 68.9987H49.4163ZM48.3598 70.1738L24.3833 72.7283L24.5952 74.7171L48.5717 72.1625L48.3598 70.1738ZM24.3833 72.7283C23.5832 72.8136 22.8857 72.1864 22.8857 71.3818H20.8857C20.8857 73.3749 22.6134 74.9282 24.5952 74.7171L24.3833 72.7283ZM22.8857 71.3818C22.8857 70.6821 23.4189 70.0976 24.1157 70.0334L23.9322 68.0418C22.2063 68.2008 20.8857 69.6486 20.8857 71.3818H22.8857ZM24.1157 70.0334L31.0917 69.3909L30.9083 67.3993L23.9322 68.0418L24.1157 70.0334ZM30 59.1289V68.3951H32V59.1289H30ZM10.5656 61.4175L31.0628 60.1269L30.9372 58.1308L10.4399 59.4214L10.5656 61.4175ZM1 52.4353C1 57.6283 5.38278 61.7438 10.5656 61.4175L10.4399 59.4214C6.40883 59.6752 3 56.4743 3 52.4353H1ZM1 14.797V52.4353H3V14.797H1ZM10.8521 5.8374C5.56874 5.33493 1 9.48979 1 14.797H3C3 10.6692 6.55347 7.43761 10.6627 7.82842L10.8521 5.8374ZM58.1179 10.3326L10.8521 5.8374L10.6627 7.82842L57.9285 12.3236L58.1179 10.3326ZM66.2657 19.2922C66.2657 14.6517 62.7375 10.7719 58.1179 10.3326L57.9285 12.3236C61.5215 12.6653 64.2658 15.6829 64.2658 19.2922H66.2657ZM66.2657 49.4592V19.2922H64.2658V49.4592H66.2657Z" fill="#1BCE7B" mask="url(#path-1-inside-1_19266_864)"/>
	<path d="M16.5 20.8553C16.5 22.8371 14.8562 24.4235 12.8757 24.3531C10.9923 24.2862 9.5 22.74 9.5 20.8553V20.2552C9.5 18.2372 11.202 16.6373 13.2162 16.7619C15.0617 16.8761 16.5 18.4062 16.5 20.2552V20.8553Z" fill="white" stroke="#1BCE7B"/>
	<path fill-rule="evenodd" clip-rule="evenodd" d="M34.118 18.107C34.118 18.4353 33.8412 18.6957 33.5135 18.6756L21.0505 17.9137C20.7261 17.8938 20.4731 17.625 20.4731 17.3C20.4731 16.9439 20.7747 16.6622 21.13 16.6865L33.5871 17.5386C33.886 17.559 34.118 17.8074 34.118 18.107Z" fill="#1BCE7B"/>
	<path fill-rule="evenodd" clip-rule="evenodd" d="M28.0173 22.3949C28.0173 22.7322 27.7356 23.0011 27.3987 22.9854L20.851 22.6816C20.5226 22.6664 20.2642 22.3957 20.2642 22.0669C20.2642 21.7141 20.5602 21.4335 20.9126 21.4525L27.4579 21.8046C27.7716 21.8215 28.0173 22.0808 28.0173 22.3949Z" fill="#1BCE7B"/>
	<g opacity="0.5">
		<path d="M16.6671 35.6834C16.6671 37.6858 15.0487 39.3115 13.0463 39.3206C11.0311 39.3297 9.39258 37.6986 9.39258 35.6834V35.1579C9.39258 33.1192 11.0679 31.4787 13.1061 31.5214C15.0847 31.5629 16.6671 33.1788 16.6671 35.1579V35.6834Z" fill="white" stroke="#1BCE7B"/>
		<path fill-rule="evenodd" clip-rule="evenodd" d="M33.9246 32.0872C33.9246 32.4076 33.662 32.6658 33.3416 32.6603L20.8673 32.446C20.5325 32.4403 20.2642 32.1673 20.2642 31.8325C20.2642 31.4879 20.5478 31.2108 20.8923 31.219L33.365 31.5141C33.6762 31.5215 33.9246 31.7759 33.9246 32.0872Z" fill="#1BCE7B"/>
		<path fill-rule="evenodd" clip-rule="evenodd" d="M28.0173 36.6394C28.0173 36.9668 27.7515 37.232 27.4242 37.2313L20.879 37.2181C20.5392 37.2174 20.2642 36.9418 20.2642 36.602C20.2642 36.2595 20.5435 35.9827 20.8861 35.986L27.431 36.0476C27.7557 36.0506 28.0173 36.3147 28.0173 36.6394Z" fill="#1BCE7B"/>
	</g>
	<path fill-rule="evenodd" clip-rule="evenodd" d="M63.5139 33.3813C62.3944 33.3596 61.4752 34.2612 61.4752 35.381V53.796L57.0223 54.0238C55.4761 54.1029 54.6022 55.8331 55.4563 57.1244L63.8347 69.7926C64.6697 71.0552 66.5504 70.9684 67.2656 69.6342L74.4837 56.168C75.2192 54.7958 74.1739 53.1464 72.619 53.2258L69.0041 53.4102V35.4494C69.0041 34.3599 68.1321 33.4709 67.0428 33.4498L63.5139 33.3813Z" fill="#E6F4FF" stroke="#0075FF"/>
	<path opacity="0.8" d="M57.5286 32.181C57.5286 34.1272 55.9409 35.6997 53.9948 35.6809L46.3582 35.607C44.4385 35.5884 42.8921 34.027 42.8921 32.1072V22.4805C42.8921 20.4544 44.6071 18.8516 46.6285 18.9885L54.265 19.5054C56.1021 19.6297 57.5286 21.1561 57.5286 22.9974V32.181Z" fill="white" stroke="#1BCE7B"/>
	<path opacity="0.5" d="M57.5286 45.0756C57.5286 46.9623 56.0332 48.5094 54.1476 48.5736L46.5111 48.8333C44.5326 48.9006 42.8921 47.315 42.8921 45.3353V44.564C42.8921 42.6378 44.4484 41.0737 46.3746 41.064L54.0111 41.0258C55.951 41.0161 57.5286 42.586 57.5286 44.5258V45.0756Z" fill="white" stroke="#1BCE7B"/>
</svg>
