<svg xmlns="http://www.w3.org/2000/svg" width="12" height="13" viewBox="0 0 12 13">
  <path fill="#626B77" fill-rule="evenodd" d="M11.6145468,12.3375569 C11.6145468,11.5326737 10.726099,9.31573664 10.726099,9.31573664 C10.726099,8.8180952 10.0862198,8.24964807 8.82614987,7.9183875 C8.39924266,7.79733495 7.99341615,7.60961904 7.62317688,7.36194981 C7.54220754,7.31491281 7.55451291,6.88032097 7.55451291,6.88032097 L7.1486818,6.81752157 C7.1486818,6.78224382 7.11398066,6.26108388 7.11398066,6.26108388 C7.59955057,6.0952034 7.54959076,5.11668371 7.54959076,5.11668371 C7.85796334,5.29057049 8.05878698,4.51621139 8.05878698,4.51621139 C8.42351816,3.44036514 7.87715972,3.50541631 7.87715972,3.50541631 C7.97274297,2.84863827 7.97274297,2.18113607 7.87715972,1.52435803 C7.63425171,-0.654355721 3.97709567,-0.0628904812 4.41073692,0.648669223 C3.34189246,0.448511782 3.58578489,2.92095658 3.58578489,2.92095658 L3.81761807,3.56121019 C3.36231937,3.86144636 3.67881349,4.22448192 3.69456437,4.64231058 C3.71696014,5.25929589 4.08833622,5.13144532 4.08833622,5.13144532 C4.1112242,6.14974631 4.60516177,6.28235061 4.60516177,6.28235061 C4.69794426,6.92185364 4.64010902,6.81301803 4.64010902,6.81301803 L4.20056119,6.86706054 C4.20651141,7.01249036 4.194857,7.15811238 4.16586005,7.3006516 C3.6490345,7.5348358 3.53779395,7.67219385 3.0241678,7.90112392 C2.03186274,8.34322167 0.953420088,8.91817392 0.761702419,9.69228283 C0.56998475,10.4663917 0,12.3375569 0,12.3375569 L11.6145468,12.3375569 Z"/>
</svg>
