<svg xmlns="http://www.w3.org/2000/svg" width="13" height="13" viewBox="0 0 13 13">
  <path fill="#626B77" fill-rule="evenodd" d="M4-.00231945885C3.76158593.375924387 3.62173225.836155503 3.62173225 1.33259751L3.62173225 1.33259751 3.62073803 2.02368054 2.02073803 2.0242247 2.02073803 10.0242247 3.62073803 10.0236805 3.62173225 10.6659308C3.62173225 11.162002 3.76137706 11.6219163 3.99946586 12L2.02073803 11.9992642C.916168531 11.9992642.0207380303 11.1038337.0207380303 9.99926417L.0207380303 1.99926417C.0207380303.894694674.916168531-.000735826096 2.02073803-.000735826096zM6.98874331 1.13686838e-13L11.0112567 1.13686838e-13C12.1096093 1.13686838e-13 13 .8954305 13 2L13 10C13 11.1045695 12.1096093 12 11.0112567 12L6.98874331 12C5.89039071 12 5 11.1045695 5 10L5 2C5 .8954305 5.89039071 1.13686838e-13 6.98874331 1.13686838e-13z" transform="rotate(-180 6.5 6)"/>
</svg>
