<svg xmlns="http://www.w3.org/2000/svg" width="13" height="13" viewBox="0 0 13 13">
  <path fill="#646D79" d="M10.7064662,11.6393704 C9.42610682,12.9197298 5.32252443,11.2371622 3.08402995,8.99873921 C0.84553548,6.76031624 -0.836946312,2.65664805 0.442826706,1.376303 L1.56956753,0.250119903 C1.90306073,-0.0833733009 2.44381453,-0.0833733009 2.77675,0.250119903 C2.7968597,0.27023103 2.81585394,0.290899886 2.83428759,0.313244789 L5.00728469,2.96946381 C5.28491921,3.30910633 5.26033624,3.80348284 4.95030483,4.11408056 L3.7537335,5.31009416 C3.68502275,5.37880491 3.67161581,5.485507 3.72077459,5.56929503 C4.0911351,6.20110162 4.49167016,6.73178769 4.92125002,7.16139616 C5.35082988,7.59097602 5.88151596,7.99151108 6.51335115,8.36187158 C6.59714489,8.41103037 6.70383698,8.39762343 6.77255202,8.32891267 L7.96856562,7.13234135 C8.27916334,6.82230135 8.77353984,6.79773269 9.11318236,7.07536149 L11.7694014,9.24835858 C12.1341846,9.5472154 12.1883701,10.0851806 11.8895047,10.4499495 C11.8716288,10.4717352 11.852636,10.4929632 11.8325248,10.5130744 L10.7064662,11.6393704 Z"/>
</svg>
