<svg xmlns="http://www.w3.org/2000/svg" width="12" height="15" viewBox="0 0 12 15">
  <path fill="#626B77" fill-rule="evenodd" d="M12,2 L12,12.0009752 C12,13.1055447 11.1045695,14.0009752 10,14.0009752 L2,14.0009752 C0.8954305,14.0009752 -3.62021524e-12,13.1055447 -3.62021524e-12,12.0009752 L-3.61843888e-12,2 C-3.61843888e-12,0.8954305 0.8954305,3.63846864e-15 2,3.70610402e-15 L10,5.17568018e-15 C11.1045695,5.24331555e-15 12,0.8954305 12,2 Z M9.97503948,1.99917067 L1.97503948,1.99917067 L1.97503948,12.0009752 L9.97503948,12.0009752 L9.97503948,1.99917067 Z M4,4.00097518 L8,4.00097518 L8,6.00097518 L4,6.00097518 L4,4.00097518 Z M4,7.00097518 L7.01751756,7.00097518 L7.01751756,9.00097518 L4,9.00097518 L4,7.00097518 Z"/>
</svg>
