<svg xmlns="http://www.w3.org/2000/svg" xmlns:xlink="http://www.w3.org/1999/xlink" width="14" height="13" viewBox="0 0 14 13">
  <defs>
    <path id="a" d="M12,6.87900629 L12,10 C12,11.1045695 11.1045695,12 10,12 L2,12 C0.8954305,12 -1.77635684e-15,11.1045695 -1.77635684e-15,10 L0,2 C0,0.8954305 0.8954305,-8.02423455e-16 2,-7.34788079e-16 L8.89217087,5.31283169e-16 L6.89217087,2 L1.97503948,2 L1.97503948,10 L9.97503948,10 L9.97503948,8.90396682 L12,6.87900629 Z"/>
  </defs>
  <g fill="none" fill-rule="evenodd" transform="translate(.364 .837)">
    <path fill="#626B77" d="M7.83210824,7.01231187 L7.84386574,7.02406937 L6.43708287,8.43085225 L6.42532537,8.41909475 L6.3859649,8.45845522 L4.93604686,7.00853718 L4.97540733,6.96917671 L3,4.99376938 L4.40678288,3.5869865 L6.38219021,5.56239383 L11.944584,-2.35367281e-14 L13.3945021,1.44991804 L7.83210824,7.01231187 Z"/>
    <use fill="#626B77" xlink:href="#a"/>
  </g>
</svg>
