<svg xmlns="http://www.w3.org/2000/svg" width="13" height="13" viewBox="0 0 13 13">
  <g fill="#626B77" fill-rule="evenodd">
    <path d="M6.49776841,12.9311125 C2.93289302,12.9311125 0.0429905245,10.04121 0.0429905245,6.4763346 C0.0429905245,2.91145921 2.93289302,0.021556713 6.49776841,0.021556713 C10.0626438,0.021556713 12.9525463,2.91145921 12.9525463,6.4763346 C12.9525463,10.04121 10.0626438,12.9311125 6.49776841,12.9311125 Z M6.49776841,10.9668722 C8.97782386,10.9668722 10.988306,8.95639004 10.988306,6.4763346 C10.988306,3.99627915 8.97782386,1.98579698 6.49776841,1.98579698 C4.01771296,1.98579698 2.00723079,3.99627915 2.00723079,6.4763346 C2.00723079,8.95639004 4.01771296,10.9668722 6.49776841,10.9668722 Z"/>
    <path d="M6,10.1411487 C4.19302992,9.89803687 2.79974039,8.34989584 2.79974039,6.4763346 C2.79974039,4.60277336 4.19302992,3.05463233 6,2.81152047 L6,10.1411487 Z"/>
  </g>
</svg>
