<svg xmlns="http://www.w3.org/2000/svg" width="12" height="15" viewBox="0 0 12 15">
  <g fill="#626B77" fill-rule="evenodd">
    <path d="M12,2 L12,12.0452816 C12,13.1498511 11.1045695,14.0452816 10,14.0452816 L2,14.0452816 C0.8954305,14.0452816 -3.61133345e-12,13.1498511 -3.61133345e-12,12.0452816 L-3.6095571e-12,2 C-3.6095571e-12,0.8954305 0.8954305,-2.32177863e-11 2,-2.32177187e-11 L10,-2.32162491e-11 C11.1045695,-2.32161815e-11 12,0.8954305 12,2 Z M9.97503948,2 L1.97503948,2 L1.97503948,12.0083237 L9.97503948,12.0083237 L9.97503948,2 Z"/>
    <path d="M4.54493123,8.50059094 L4.08894837,7.99626594 L8.2666023,7.93330194 C8.68844128,7.91123432 9.01353677,7.55308414 8.99478124,7.13108494 L8.99478124,6.74217194 C9.01353677,6.32017273 8.68844128,5.96202255 8.2666023,5.93995494 L4.08894837,6.00291894 L4.54623777,5.49859394 C4.89687831,5.09520031 4.8957624,4.49484332 4.54362469,4.09275594 C4.38362705,3.90761326 4.15128528,3.80084008 3.9065888,3.80000494 C3.66189237,3.79916979 3.42882721,3.90435471 3.2675695,4.08840094 L1.2642064,6.29776194 C0.9119312,6.70149487 0.9119312,7.303352 1.2642064,7.70708494 L3.2675695,9.91034794 C3.42851755,10.0948653 3.66140159,10.2007589 3.90625036,10.2007589 C4.15109914,10.2007589 4.38398317,10.0948653 4.54493123,9.91034794 C4.89632316,9.50611878 4.89632316,8.90482009 4.54493123,8.50059094 Z" transform="rotate(-180 4.998 7)"/>
  </g>
</svg>
