<svg width="24" height="24" viewBox="0 0 24 24" fill="none" xmlns="http://www.w3.org/2000/svg">
	<path fill-rule="evenodd" clip-rule="evenodd" d="M14.258 5.90539C13.943 5.59033 14.1661 5.0518 14.6115 5.05176L18.5613 5.05184C18.8374 5.05176 19.0613 5.27566 19.0612 5.55179L19.0613 9.50156C19.0613 9.947 18.5227 10.1701 18.2077 9.85507L16.94 8.58734L13.6367 11.8906C13.4414 12.0859 13.1248 12.0859 12.9296 11.8906L12.2224 11.1835C12.0272 10.9883 12.0272 10.6717 12.2224 10.4764L15.5257 7.17312L14.258 5.90539ZM17.9267 16.2811L15.9698 14.8149C15.2749 14.2927 14.2434 14.5442 13.7361 15.2609L13.156 16.0832C13.0312 16.2535 12.774 16.307 12.595 16.2036C10.7998 15.0326 9.26487 13.3984 8.20243 11.5336C8.10113 11.3405 8.15372 11.0885 8.3425 10.9682L9.16404 10.4199C9.89943 9.9291 10.2022 8.92805 9.72286 8.19331L8.35425 6.19173C7.9395 5.57528 7.07137 5.49155 6.52642 5.99767C4.48054 7.95284 3.58803 11.3493 8.07577 16.0938C12.5635 20.8384 15.9724 20.0794 18.0183 18.1243C18.5638 17.618 18.5179 16.7303 17.9267 16.2811Z" fill="#2FC6F6"/>
</svg>