<svg width="24" height="24" viewBox="0 0 24 24" fill="none" xmlns="http://www.w3.org/2000/svg">
	<path fill-rule="evenodd" clip-rule="evenodd" d="M17.6325 10.8145C18.0779 10.8144 18.3011 10.2759 17.986 9.96085L16.7183 8.69311L20.0216 5.38981C20.2168 5.19456 20.2168 4.87795 20.0216 4.68271L19.3145 3.9756C19.1192 3.78035 18.8026 3.78035 18.6074 3.9756L15.3041 7.2789L14.0363 6.01117C13.7213 5.69611 13.1827 5.91924 13.1827 6.36468L13.1828 10.3144C13.1827 10.5906 13.4066 10.8145 13.6827 10.8144L17.6325 10.8145ZM16.723 13.9455L18.6799 15.4117C19.2711 15.8609 19.317 16.7486 18.7714 17.2549C16.7255 19.21 13.3166 19.969 8.82895 15.2244C4.3412 10.4799 5.23371 7.08345 7.2796 5.12827C7.82454 4.62216 8.69267 4.70589 9.10743 5.32234L10.476 7.32392C10.9554 8.05866 10.6526 9.0597 9.91721 9.55052L9.09568 10.0989C8.9069 10.2191 8.85431 10.4711 8.9556 10.6642C10.018 12.529 11.553 14.1632 13.3482 15.3342C13.5272 15.4376 13.7843 15.3841 13.9092 15.2138L14.4893 14.3915C14.9965 13.6748 16.0281 13.4233 16.723 13.9455Z" fill="#2FC6F6"/>
	<rect width="24" height="24" rx="3" fill="white" fill-opacity="0.01"/>
</svg>