<svg width="13" height="13" viewBox="0 0 13 13" fill="none" xmlns="http://www.w3.org/2000/svg">
	<path opacity="0.82" d="M2.84375 6.09375C1.35156 6.09375 0.351562 5.00781 0.351562 3.33594C0.351562 1.65625 1.35156 0.578125 2.84375 0.578125C4.33594 0.578125 5.32812 1.65625 5.32812 3.33594C5.32812 5 4.34375 6.09375 2.84375 6.09375ZM3.34375 12H1.91406L9.69531 0.726562H11.1094L3.34375 12ZM2.84375 5.02344C3.58594 5.02344 4.08594 4.39062 4.08594 3.33594C4.08594 2.28125 3.59375 1.65625 2.84375 1.65625C2.10156 1.65625 1.60156 2.28125 1.60156 3.33594C1.60156 4.39062 2.10156 5.02344 2.84375 5.02344ZM10.1875 12.1406C8.6875 12.1406 7.69531 11.0547 7.69531 9.38281C7.69531 7.70312 8.69531 6.625 10.1875 6.625C11.6797 6.625 12.6719 7.70312 12.6719 9.38281C12.6719 11.0469 11.6797 12.1406 10.1875 12.1406ZM10.1875 11.0703C10.9297 11.0703 11.4297 10.4375 11.4297 9.38281C11.4297 8.32812 10.9297 7.70312 10.1875 7.70312C9.44531 7.70312 8.9375 8.32812 8.9375 9.38281C8.9375 10.4375 9.44531 11.0703 10.1875 11.0703Z" fill="white" fill-opacity="0.9"/>
</svg>