<svg width="17" height="20" viewBox="0 0 17 20" fill="none" xmlns="http://www.w3.org/2000/svg">
	<path fill-rule="evenodd" clip-rule="evenodd" d="M4.01477 13.836C4.18819 14.0098 4.18819 14.2936 4.01477 14.467L3.51386 14.9676C3.34044 15.141 3.05662 15.141 2.88289 14.9676L2.42626 14.511C2.25284 14.3372 2.25284 14.0534 2.42626 13.88L2.92717 13.3791C3.10028 13.2057 3.3841 13.2057 3.55783 13.3791L4.01477 13.836ZM7.07401 10.806C6.58387 10.3158 6.23209 9.74203 6.00855 9.13135L1.39278 13.7456C0.814386 14.324 0.814386 15.2701 1.39278 15.8485L1.5453 16.0013C2.12369 16.5794 3.06984 16.5794 3.64824 16.0013L8.08443 11.5664C7.72343 11.364 7.3815 11.1134 7.07401 10.806ZM13.4398 9.98702C14.5418 8.90074 14.8798 7.33434 14.454 5.9508L12.1277 8.24431C11.7368 8.63008 11.1012 8.62534 10.7154 8.23411L9.52822 7.02907C9.14245 6.63784 9.14718 6.00253 9.53805 5.61676L11.8647 3.32362C10.4877 2.87774 8.91769 3.19285 7.81538 4.27876C6.23914 5.83169 6.22056 8.36889 7.77348 9.94513C9.32677 11.5214 11.8636 11.5403 13.4398 9.98702Z" fill="black" fill-opacity="0.3"/>
	<rect x="-3" width="20" height="20" rx="3" fill="white" fill-opacity="0.01"/>
</svg>