<svg width="46" height="46" viewBox="0 0 46 46" fill="none" xmlns="http://www.w3.org/2000/svg">
	<path fill-rule="evenodd" clip-rule="evenodd" d="M34.3811 17.7997C37.7331 17.7997 40.4505 15.0823 40.4505 11.7303C40.4505 8.37817 37.7331 5.66077 34.3811 5.66077C31.029 5.66077 28.3116 8.37817 28.3116 11.7303C28.3116 15.0823 31.029 17.7997 34.3811 17.7997ZM36.4167 34.0327V20.3918C35.763 20.5449 35.0816 20.6258 34.3812 20.6258C33.7242 20.6258 33.0838 20.5546 32.4674 20.4194V27.319H27.7283V32.453H18.2501V27.319H13.511V13.4967H25.6611C25.5461 12.9258 25.4857 12.3351 25.4857 11.7303C25.4857 10.9771 25.5793 10.2458 25.7555 9.54743H11.9314C10.6227 9.54743 9.56181 10.6083 9.56181 11.917V34.0327C9.56181 35.3414 10.6227 36.4023 11.9314 36.4023H34.0471C35.3558 36.4023 36.4167 35.3414 36.4167 34.0327ZM17.1162 18.1754C17.1162 17.4117 17.7353 16.7926 18.499 16.7926H25.6985C26.4622 16.7926 27.0813 17.4117 27.0813 18.1754C27.0813 18.9391 26.4622 19.5582 25.6985 19.5582H18.499C17.7353 19.5582 17.1162 18.9391 17.1162 18.1754ZM18.4633 21.1963C17.7661 21.1963 17.2009 21.7616 17.2009 22.4588C17.2009 23.156 17.7661 23.7212 18.4633 23.7212H25.9036C26.6008 23.7212 27.166 23.156 27.166 22.4588C27.166 21.7616 26.6008 21.1963 25.9036 21.1963H18.4633Z" fill="#2FC6F6"/>
</svg>