<svg width="375" height="874" viewBox="0 0 375 874" fill="none" xmlns="http://www.w3.org/2000/svg" xmlns:xlink="http://www.w3.org/1999/xlink">
<mask id="mask0" mask-type="alpha" maskUnits="userSpaceOnUse" x="0" y="0" width="375" height="874">
<path fill-rule="evenodd" clip-rule="evenodd" d="M0 0L375 0L375 874L0 874L0 0Z" fill="white"/>
</mask>
<g mask="url(#mask0)">
<g opacity="0.51">
<path fill-rule="evenodd" clip-rule="evenodd" d="M216.2 112.599C212.473 102.39 211.213 94.2036 215.569 86.062C219.792 78.1728 227.554 75.1144 235.778 72.5368C225.423 59.2969 212.794 54.9768 201.317 61.0154C189.69 67.1291 182.957 77.0642 186.089 90.5504C189.357 104.616 198.732 112.316 216.2 112.599ZM451.132 98.8872H238.58C275.617 127.548 310.147 154.274 344.908 181.174C380.235 153.808 414.182 127.509 451.132 98.8872ZM262.598 73.5011H409.288C431.301 43.7949 456.81 17.3633 480.665 -10.4563C488.18 -6.4516 493.149 -1.6718 498.819 4.75734C479.803 26.9289 459.323 51.618 440.535 73.5282C444.747 73.399 447.437 73.8226 449.643 73.7174C462.1 73.1136 471.708 77.9985 475.6 89.8384C479.664 102.201 474.398 111.776 464.063 119.668C428.28 146.992 392.848 174.775 357.44 202.258V277.723H414.843C417.575 286.411 417.112 293.546 415.549 301.534H273.443V278.765H331.565V201.573C301.126 178.044 270.311 154.223 240.215 130.958C201.747 142.02 175.574 132.436 164.653 104.25C154.824 78.8848 166.523 50.2511 191.461 38.6425C219.005 25.8173 248.334 39.7571 262.598 73.5011Z" fill="white"/>
</g>
<g opacity="0.51">
<path fill-rule="evenodd" clip-rule="evenodd" d="M-51.7998 562.599C-55.5273 552.39 -56.7868 544.204 -52.4311 536.062C-48.2077 528.173 -40.4462 525.114 -32.2217 522.537C-42.5774 509.297 -55.2056 504.977 -66.6826 511.015C-78.3098 517.129 -85.0432 527.064 -81.911 540.55C-78.6435 554.616 -69.2677 562.316 -51.7998 562.599ZM183.132 548.887H-29.4201C7.61686 577.548 42.1469 604.274 76.9083 631.174C112.235 603.808 146.182 577.509 183.132 548.887ZM-5.40218 523.501H141.288C163.301 493.795 188.81 467.363 212.665 439.544C220.18 443.548 225.149 448.328 230.819 454.757C211.803 476.929 191.323 501.618 172.535 523.528C176.747 523.399 179.437 523.823 181.643 523.717C194.1 523.114 203.708 527.999 207.6 539.838C211.664 552.201 206.398 561.776 196.063 569.668C160.28 596.992 124.848 624.775 89.4403 652.258V727.723H146.843C149.575 736.411 149.112 743.546 147.549 751.534H5.44349V728.765H63.5646V651.573C33.1258 628.044 2.31123 604.223 -27.7849 580.958C-66.2527 592.02 -92.426 582.436 -103.347 554.25C-113.176 528.885 -101.477 500.251 -76.5393 488.643C-48.9953 475.817 -19.6657 489.757 -5.40218 523.501Z" fill="white"/>
</g>
<g opacity="0.44">
<g filter="url(#filter0_f)">
<path fill-rule="evenodd" clip-rule="evenodd" d="M46.1266 299.73C45.23 297.275 44.927 295.306 45.9747 293.347C46.9906 291.45 48.8576 290.714 50.8359 290.094C48.3449 286.909 45.3073 285.87 42.5467 287.323C39.7499 288.793 38.1302 291.183 38.8836 294.427C39.6696 297.81 41.9248 299.663 46.1266 299.73ZM102.637 296.432H51.5098C60.4187 303.326 68.7246 309.755 77.0861 316.226C85.5836 309.643 93.7491 303.317 102.637 296.432ZM57.2871 290.326H92.572C97.867 283.18 104.003 276.822 109.741 270.131C111.549 271.094 112.744 272.244 114.108 273.79C109.534 279.123 104.607 285.062 100.088 290.332C101.101 290.301 101.748 290.403 102.279 290.378C105.276 290.233 107.586 291.408 108.523 294.256C109.5 297.229 108.234 299.532 105.748 301.431C97.1403 308.003 88.6176 314.686 80.1006 321.297V339.449H93.9082C94.5655 341.539 94.4541 343.256 94.0781 345.177H59.8959V339.7H73.8764V321.132C66.5546 315.473 59.1425 309.743 51.9031 304.147C42.6501 306.807 36.3543 304.502 33.7274 297.722C31.363 291.621 34.1772 284.733 40.1757 281.941C46.8012 278.856 53.8561 282.209 57.2871 290.326Z" fill="white"/>
</g>
</g>
<g opacity="0.44">
<g filter="url(#filter1_f)">
<path fill-rule="evenodd" clip-rule="evenodd" d="M283.127 740.73C282.23 738.275 281.927 736.306 282.975 734.347C283.991 732.45 285.858 731.714 287.836 731.094C285.345 727.909 282.307 726.87 279.547 728.323C276.75 729.793 275.13 732.183 275.884 735.427C276.67 738.81 278.925 740.663 283.127 740.73ZM339.637 737.432H288.51C297.419 744.326 305.725 750.755 314.086 757.226C322.584 750.643 330.749 744.317 339.637 737.432ZM294.287 731.326H329.572C334.867 724.18 341.003 717.822 346.741 711.131C348.549 712.094 349.744 713.244 351.108 714.79C346.534 720.123 341.607 726.062 337.088 731.332C338.101 731.301 338.748 731.403 339.279 731.378C342.276 731.233 344.586 732.408 345.523 735.256C346.5 738.229 345.234 740.532 342.748 742.431C334.14 749.003 325.618 755.686 317.101 762.297V780.449H330.908C331.565 782.539 331.454 784.256 331.078 786.177H296.896V780.7H310.876V762.132C303.555 756.473 296.142 750.743 288.903 745.147C279.65 747.807 273.354 745.502 270.727 738.722C268.363 732.621 271.177 725.733 277.176 722.941C283.801 719.856 290.856 723.209 294.287 731.326Z" fill="white"/>
</g>
</g>
</g>
<defs>
<filter id="filter0_f" x="30.1741" y="267.412" width="86.652" height="80.483" filterUnits="userSpaceOnUse" color-interpolation-filters="sRGB">
<feFlood flood-opacity="0" result="BackgroundImageFix"/>
<feBlend mode="normal" in="SourceGraphic" in2="BackgroundImageFix" result="shape"/>
<feGaussianBlur stdDeviation="1.35914" result="effect1_foregroundBlur"/>
</filter>
<filter id="filter1_f" x="267.174" y="708.412" width="86.652" height="80.483" filterUnits="userSpaceOnUse" color-interpolation-filters="sRGB">
<feFlood flood-opacity="0" result="BackgroundImageFix"/>
<feBlend mode="normal" in="SourceGraphic" in2="BackgroundImageFix" result="shape"/>
<feGaussianBlur stdDeviation="1.35914" result="effect1_foregroundBlur"/>
</filter>
</defs>
</svg>
