<svg width="367" height="59" viewBox="0 0 367 59" fill="none" xmlns="http://www.w3.org/2000/svg">
<rect width="367" height="129" fill="#E0F7FE"/>
<g clip-path="url(#clip0)">
<path fill-rule="evenodd" clip-rule="evenodd" d="M105.378 17.1581C103.251 11.3413 102.532 6.67662 105.018 2.03759C107.428 -2.45764 111.857 -4.20027 116.551 -5.66901C110.641 -13.213 103.435 -15.6746 96.8851 -12.2338C90.2499 -8.75028 86.4073 -3.0893 88.1948 4.59505C90.0594 12.6098 95.4099 16.9972 105.378 17.1581M239.446 9.34528H118.15C139.285 25.676 158.99 40.9043 178.828 56.232C198.987 40.639 218.36 25.6538 239.446 9.34528M131.856 -5.11952H215.567C228.129 -22.046 242.686 -37.1065 256.3 -52.958C260.588 -50.6761 263.424 -47.9526 266.659 -44.2893C255.807 -31.6561 244.12 -17.5884 233.399 -5.10411C235.802 -5.17772 237.337 -4.93636 238.597 -4.99627C245.705 -5.34034 251.188 -2.55693 253.409 4.18934C255.728 11.2335 252.723 16.689 246.825 21.186C226.405 36.7549 206.185 52.5858 185.979 68.2455V111.245H218.737C220.296 116.195 220.032 120.261 219.14 124.813H138.045V111.839H171.213V67.8552C153.842 54.4483 136.258 40.8753 119.083 27.619C97.1304 33.9219 82.1942 28.4612 75.962 12.4009C70.3526 -2.05194 77.029 -18.3673 91.2602 -24.9817C106.979 -32.2895 123.716 -24.3467 131.856 -5.11952" fill="#F0FBFF"/>
<g filter="url(#filter0_d)">
<path fill-rule="evenodd" clip-rule="evenodd" d="M38 71C56.2254 71 71 56.2254 71 38C71 19.7746 56.2254 5 38 5C19.7746 5 5 19.7746 5 38C5 56.2254 19.7746 71 38 71Z" fill="white"/>
</g>
<path fill-rule="evenodd" clip-rule="evenodd" d="M38 61.4194C50.9342 61.4194 61.4194 50.9342 61.4194 38C61.4194 25.0658 50.9342 14.5806 38 14.5806C25.0658 14.5806 14.5806 25.0658 14.5806 38C14.5806 50.9342 25.0658 61.4194 38 61.4194Z" fill="#2FC6F6"/>
<path fill-rule="evenodd" clip-rule="evenodd" d="M27.9743 35.0998C27.6514 34.2156 27.5423 33.5065 27.9196 32.8014C28.2854 32.118 28.9577 31.8531 29.67 31.6299C28.7731 30.4831 27.6793 30.1089 26.6852 30.6319C25.6781 31.1615 25.0949 32.022 25.3662 33.1901C25.6492 34.4084 26.4613 35.0754 27.9743 35.0998M48.3228 33.9122H29.9127C33.1206 36.3947 36.1115 38.7095 39.1223 41.0395C42.1821 38.6692 45.1224 36.3913 48.3228 33.9122M31.993 31.7134H44.6986C46.6052 29.1404 48.8147 26.851 50.8809 24.4414C51.5318 24.7883 51.9622 25.2023 52.4533 25.7592C50.8062 27.6795 49.0323 29.818 47.4051 31.7157C47.7698 31.7045 48.0029 31.7412 48.194 31.7321C49.2729 31.6798 50.105 32.1029 50.4422 33.1284C50.7942 34.1992 50.3381 35.0285 49.4429 35.7121C46.3435 38.0788 43.2746 40.4852 40.2078 42.8657V49.402H45.1797C45.4164 50.1546 45.3763 50.7726 45.2409 51.4645H32.9324V49.4923H37.9666V42.8064C35.3301 40.7684 32.6611 38.7051 30.0543 36.69C26.7224 37.6481 24.4554 36.818 23.5095 34.3767C22.6581 32.1797 23.6715 29.6996 25.8315 28.6941C28.2172 27.5833 30.7576 28.7907 31.993 31.7134" fill="white"/>
</g>
<defs>
<filter id="filter0_d" x="3" y="4" width="70" height="70" filterUnits="userSpaceOnUse" color-interpolation-filters="sRGB">
<feFlood flood-opacity="0" result="BackgroundImageFix"/>
<feColorMatrix in="SourceAlpha" type="matrix" values="0 0 0 0 0 0 0 0 0 0 0 0 0 0 0 0 0 0 127 0"/>
<feOffset dy="1"/>
<feGaussianBlur stdDeviation="1"/>
<feColorMatrix type="matrix" values="0 0 0 0 0 0 0 0 0 0 0 0 0 0 0 0 0 0 0.06 0"/>
<feBlend mode="normal" in2="BackgroundImageFix" result="effect1_dropShadow"/>
<feBlend mode="normal" in="SourceGraphic" in2="effect1_dropShadow" result="shape"/>
</filter>
<clipPath id="clip0">
<rect width="367" height="129" fill="white"/>
</clipPath>
</defs>
</svg>
