<svg width="375" height="874" viewBox="0 0 375 874" fill="none" xmlns="http://www.w3.org/2000/svg" xmlns:xlink="http://www.w3.org/1999/xlink">
<mask id="mask0" mask-type="alpha" maskUnits="userSpaceOnUse" x="0" y="0" width="375" height="874">
<path fill-rule="evenodd" clip-rule="evenodd" d="M0 0L375 0L375 874L0 874L0 0Z" fill="white"/>
</mask>
<g mask="url(#mask0)">
<g opacity="0.6">
<path fill-rule="evenodd" clip-rule="evenodd" d="M177.848 79.7764C178.014 115.335 199.319 142.159 230.164 145.01C219.193 123.972 213.404 101.596 208.962 78.9568C197.553 78.8708 187.64 77.5898 177.848 79.7764ZM459.55 79.1941C455.36 102.691 448.2 125.006 437.132 146.806C473.302 137.412 493.228 111.658 490.01 79.1941H459.55ZM302.162 306.483H366.708C369.051 297.433 364.667 291.403 359.471 286.657C341.254 270.016 343.422 251.626 353.716 232.208C363.353 214.021 376.059 197.873 387.901 181.16C406.445 154.998 423.44 128.037 431.704 96.6077C435.174 83.4051 438.503 70.0706 434.941 56.8594H233.06C231.019 74.9539 234.786 91.1083 239.847 107.085C250.827 141.738 271.693 170.823 292.247 200.085C302.108 214.124 312.368 227.949 318.796 244.032C327.241 265.158 324.525 277.031 308.135 292.395C304.324 295.965 299.975 299.324 302.162 306.483ZM151.7 54.9819H206.591C206.591 54.9819 206.522 40.014 209.745 32.9527H459.917C460.536 39.9567 461.112 46.4161 461.824 54.4088H515.338C524.319 85.1356 505.368 135.39 478.891 153.135C462.936 163.827 445.433 171.427 427.07 176.898C419.836 179.053 414.666 182.901 410.477 189.264C399.993 205.194 388.69 220.584 378.146 236.48C373.169 243.983 368.661 251.978 369.742 263.175C390.02 280.154 395.205 303.238 391.173 330.125H278.526C272.846 302.424 277.167 289.302 298.263 269.929C301.514 261.172 297.922 253.316 293.856 245.705C282.125 223.75 266.044 204.667 252.682 183.784C249.826 179.319 245.069 178.417 240.662 176.7C230.454 172.725 220.016 169.206 210.158 164.486C167.778 144.188 146.238 104.474 151.7 54.9819Z" fill="white"/>
</g>
<g opacity="0.6">
<path fill-rule="evenodd" clip-rule="evenodd" d="M-80.152 514.776C-79.9857 550.335 -58.6807 577.159 -27.8358 580.01C-38.8066 558.972 -44.5959 536.596 -49.0376 513.957C-60.4471 513.871 -70.3598 512.59 -80.152 514.776ZM201.55 514.194C197.36 537.69 190.2 560.006 179.132 581.806C215.302 572.412 235.228 546.658 232.01 514.194H201.55ZM44.1624 741.483H108.708C111.051 732.433 106.667 726.403 101.471 721.657C83.254 705.016 85.4218 686.626 95.7158 667.207C105.353 649.021 118.059 632.873 129.901 616.159C148.445 589.998 165.44 563.037 173.704 531.608C177.174 518.405 180.503 505.071 176.941 491.859H-24.9397C-26.9813 509.954 -23.2135 526.108 -18.1525 542.085C-7.17316 576.738 13.6931 605.823 34.2468 635.085C44.1079 649.124 54.3676 662.949 60.7963 679.032C69.2409 700.158 66.5254 712.031 50.1352 727.394C46.3244 730.965 41.9745 734.324 44.1624 741.483ZM-106.3 489.982H-51.4089C-51.4089 489.982 -51.4777 475.014 -48.2547 467.953H201.917C202.536 474.957 203.112 481.416 203.824 489.409H257.338C266.319 520.136 247.368 570.39 220.891 588.135C204.936 598.827 187.433 606.427 169.07 611.898C161.836 614.053 156.666 617.901 152.477 624.263C141.993 640.194 130.69 655.584 120.146 671.48C115.169 678.983 110.661 686.978 111.742 698.175C132.02 715.154 137.205 738.238 133.173 765.125H20.5263C14.8459 737.424 19.1671 724.302 40.2628 704.929C43.5144 696.171 39.9215 688.316 35.8555 680.705C24.1249 658.75 8.04436 639.667 -5.31785 618.784C-8.17381 614.319 -12.9309 613.417 -17.3381 611.7C-27.5461 607.725 -37.9836 604.206 -47.8418 599.486C-90.2223 579.188 -111.762 539.474 -106.3 489.982Z" fill="white"/>
</g>
<g opacity="0.47">
<g filter="url(#filter0_f)">
<path fill-rule="evenodd" clip-rule="evenodd" d="M35.8836 279.176C35.9236 287.729 41.0483 294.181 48.4678 294.867C45.8289 289.807 44.4363 284.425 43.3679 278.979C40.6235 278.958 38.2391 278.65 35.8836 279.176ZM103.644 279.036C102.637 284.688 100.914 290.056 98.252 295.299C106.952 293.04 111.745 286.845 110.971 279.036H103.644ZM65.7863 333.708H81.3122C81.8757 331.531 80.8211 330.081 79.5713 328.939C75.1894 324.936 75.7108 320.513 78.187 315.842C80.5052 311.467 83.5614 307.583 86.41 303.563C90.8705 297.27 94.9585 290.784 96.9463 283.224C97.7809 280.049 98.5817 276.841 97.725 273.663H49.1644C48.6733 278.016 49.5796 281.902 50.797 285.745C53.438 294.08 58.4572 301.076 63.4012 308.115C65.7732 311.492 68.241 314.817 69.7874 318.686C71.8187 323.768 71.1655 326.624 67.223 330.319C66.3063 331.178 65.26 331.986 65.7863 333.708ZM29.594 273.212H42.7975C42.7975 273.212 42.781 269.611 43.5562 267.913H103.733C103.882 269.598 104.02 271.151 104.191 273.074H117.064C119.224 280.465 114.666 292.553 108.297 296.822C104.459 299.393 100.249 301.222 95.8317 302.538C94.0915 303.056 92.8479 303.982 91.8402 305.512C89.3186 309.344 86.5997 313.046 84.0635 316.869C82.8661 318.674 81.7819 320.597 82.0419 323.291C86.9197 327.375 88.1667 332.928 87.197 339.395H60.1008C58.7345 332.732 59.7739 329.575 64.8483 324.915C65.6304 322.809 64.7662 320.919 63.7881 319.088C60.9664 313.807 57.0984 309.217 53.8843 304.194C53.1973 303.12 52.053 302.903 50.9929 302.49C48.5375 301.534 46.0268 300.687 43.6556 299.552C33.4613 294.669 28.28 285.117 29.594 273.212Z" fill="white"/>
</g>
</g>
<g opacity="0.47">
<g filter="url(#filter1_f)">
<path fill-rule="evenodd" clip-rule="evenodd" d="M272.884 724.176C272.924 732.729 278.048 739.181 285.468 739.867C282.829 734.807 281.436 729.425 280.368 723.979C277.623 723.958 275.239 723.65 272.884 724.176ZM340.644 724.036C339.637 729.688 337.914 735.056 335.252 740.299C343.952 738.04 348.745 731.845 347.971 724.036H340.644ZM302.786 778.708H318.312C318.876 776.531 317.821 775.081 316.571 773.939C312.189 769.936 312.711 765.513 315.187 760.842C317.505 756.467 320.561 752.583 323.41 748.563C327.87 742.27 331.959 735.784 333.946 728.225C334.781 725.049 335.582 721.841 334.725 718.663H286.164C285.673 723.016 286.58 726.902 287.797 730.745C290.438 739.08 295.457 746.076 300.401 753.115C302.773 756.492 305.241 759.817 306.787 763.686C308.819 768.768 308.166 771.624 304.223 775.319C303.306 776.178 302.26 776.986 302.786 778.708ZM266.594 718.212H279.798C279.798 718.212 279.781 714.611 280.556 712.913H340.733C340.882 714.598 341.02 716.151 341.191 718.074H354.064C356.224 725.465 351.666 737.553 345.297 741.822C341.459 744.394 337.249 746.222 332.832 747.538C331.092 748.056 329.848 748.982 328.84 750.512C326.319 754.344 323.6 758.046 321.064 761.87C319.866 763.674 318.782 765.597 319.042 768.291C323.92 772.375 325.167 777.928 324.197 784.395H297.101C295.734 777.732 296.774 774.575 301.848 769.915C302.63 767.809 301.766 765.919 300.788 764.089C297.966 758.808 294.098 754.217 290.884 749.194C290.197 748.12 289.053 747.903 287.993 747.49C285.537 746.534 283.027 745.687 280.656 744.552C270.461 739.67 265.28 730.117 266.594 718.212Z" fill="white"/>
</g>
</g>
</g>
<defs>
<filter id="filter0_f" x="26.6748" y="265.195" width="93.6506" height="76.9185" filterUnits="userSpaceOnUse" color-interpolation-filters="sRGB">
<feFlood flood-opacity="0" result="BackgroundImageFix"/>
<feBlend mode="normal" in="SourceGraphic" in2="BackgroundImageFix" result="shape"/>
<feGaussianBlur stdDeviation="1.35914" result="effect1_foregroundBlur"/>
</filter>
<filter id="filter1_f" x="263.675" y="710.195" width="93.6506" height="76.9185" filterUnits="userSpaceOnUse" color-interpolation-filters="sRGB">
<feFlood flood-opacity="0" result="BackgroundImageFix"/>
<feBlend mode="normal" in="SourceGraphic" in2="BackgroundImageFix" result="shape"/>
<feGaussianBlur stdDeviation="1.35914" result="effect1_foregroundBlur"/>
</filter>
</defs>
</svg>
