<svg xmlns="http://www.w3.org/2000/svg" fill="none" viewBox="0 0 24 24"><path fill="#E5E8EB" fill-rule="evenodd" d="M2 2a2 2 0 0 1 2-2h10.167a2 2 0 0 1 1.416.587l3.833 3.84A2 2 0 0 1 20 5.838V22a2 2 0 0 1-2 2H4a2 2 0 0 1-2-2V2Z" clip-rule="evenodd"/><path fill="#535C69" d="M15 .182a2 2 0 0 1 .583.405l3.833 3.84c.167.167.302.362.4.573H15.4a.4.4 0 0 1-.4-.4V.182Z" opacity=".3"/><path fill="#E89E00" d="M5 12a1 1 0 0 1 1-1h16a1 1 0 0 1 1 1v7a1 1 0 0 1-1 1H6a1 1 0 0 1-1-1v-7Z"/><path fill="#fff" fill-rule="evenodd" d="M8.975 17.999h.781v-1.76h.246c.439 0 .766-.069 1.026-.183.655-.28.9-.857.9-1.442 0-.66-.282-1.138-.766-1.396-.283-.152-.625-.22-1.093-.22H8.975v5.001Zm.781-2.413V13.65h.29c.29 0 .499.054.655.145.275.167.41.463.41.82 0 .401-.142.698-.44.842-.149.083-.35.129-.617.129h-.298Zm3.131 2.413h.782v-1.76h.245c.44 0 .767-.069 1.027-.183.654-.28.9-.857.9-1.442 0-.66-.283-1.138-.766-1.396-.283-.152-.625-.22-1.094-.22h-1.094v5.001Zm.782-2.413V13.65h.29c.29 0 .498.054.655.145.275.167.409.463.409.82 0 .401-.142.698-.44.842-.148.083-.349.129-.617.129h-.297Zm4.21 2.413h.781v-4.326h1.332l.223-.675h-3.757v.675h1.42V18Z" clip-rule="evenodd"/></svg>