<svg xmlns="http://www.w3.org/2000/svg" fill="none" viewBox="0 0 40 40"><path fill="#DFF2F4" fill-rule="evenodd" d="M3.41 3.995A3.241 3.241 0 0 1 6.653.754h16.476c.861 0 1.686.342 2.294.951l6.211 6.222c.607.608.947 1.431.947 2.29v26.189a3.241 3.241 0 0 1-3.24 3.241H6.651a3.241 3.241 0 0 1-3.241-3.241V3.995Z" clip-rule="evenodd"/><path fill="#92D9E2" d="M24.477 1.049c.349.16.67.38.945.657l6.211 6.222c.271.272.49.587.648.93h-7.155a.648.648 0 0 1-.649-.649V1.05Z"/><path fill="#43AA55" d="M8.272 20.2c0-.894.726-1.62 1.62-1.62h25.93c.895 0 1.62.726 1.62 1.62v11.344a1.62 1.62 0 0 1-1.62 1.621H9.892a1.62 1.62 0 0 1-1.62-1.62V20.2Z"/><path fill="#28B0C1" fill-rule="evenodd" d="M8.755 5.11a.82.82 0 1 1-1.64 0 .82.82 0 0 1 1.64 0Zm0 5.74a.82.82 0 1 1-1.64.001.82.82 0 0 1 1.64 0Zm-.82 6.56a.82.82 0 1 0 0-1.64.82.82 0 0 0 0 1.64Zm.82 4.922a.82.82 0 1 1-1.64 0 .82.82 0 0 1 1.64 0Zm-.82 6.56a.82.82 0 1 0 0-1.64.82.82 0 0 0 0 1.64Zm.82 4.922a.82.82 0 1 1-1.64 0 .82.82 0 0 1 1.64 0Zm4.648-27.885a.82.82 0 1 0 0-1.64.82.82 0 0 0 0 1.64Zm.82 4.922a.82.82 0 1 1-1.64 0 .82.82 0 0 1 1.64 0Zm-.82 6.56a.82.82 0 1 0 0-1.64.82.82 0 0 0 0 1.64Zm.82 4.921a.82.82 0 1 1-1.64 0 .82.82 0 0 1 1.64 0Zm-.82 6.56a.82.82 0 1 0 0-1.64.82.82 0 0 0 0 1.64Zm.82 4.922a.82.82 0 1 1-1.64 0 .82.82 0 0 1 1.64 0ZM18.87 5.929a.82.82 0 1 0 0-1.64.82.82 0 0 0 0 1.64Zm.82 4.922a.82.82 0 1 1-1.64 0 .82.82 0 0 1 1.64 0Zm4.647.82a.82.82 0 1 0 0-1.64.82.82 0 0 0 0 1.64Zm-4.647 4.92a.82.82 0 1 1-1.64 0 .82.82 0 0 1 1.64 0Zm4.647.82a.82.82 0 1 0 0-1.64.82.82 0 0 0 0 1.64Zm6.288-.82a.82.82 0 1 1-1.64 0 .82.82 0 0 1 1.64 0ZM18.87 23.153a.82.82 0 1 0 0-1.64.82.82 0 0 0 0 1.64Zm.82 4.92a.82.82 0 1 1-1.64 0 .82.82 0 0 1 1.64 0Zm-.82 6.561a.82.82 0 1 0 0-1.64.82.82 0 0 0 0 1.64Zm6.287-.82a.82.82 0 1 1-1.64 0 .82.82 0 0 1 1.64 0Zm4.648.82a.82.82 0 1 0 0-1.64.82.82 0 0 0 0 1.64Z" clip-rule="evenodd" opacity=".2"/><path fill="#20ADBF" d="M6.603 19.98c0-.78.713-1.414 1.592-1.414H36.43c.88 0 1.592.634 1.592 1.415v11.81c0 .781-.713 1.414-1.592 1.414H8.195c-.879 0-1.592-.633-1.592-1.414v-11.81Z"/><path fill="#fff" d="M31.034 29.634v-7.456h1.91c2.363 0 3.606 1.505 3.606 3.677 0 2.218-1.344 3.779-3.688 3.779h-1.828Zm1.06-1.007h.778c1.87 0 2.546-1.267 2.546-2.76 0-1.607-.838-2.682-2.566-2.682h-.758v5.442ZM25.995 29.634v-7.456h1.667c.647 0 1.102.124 1.445.34.657.373.92 1.029.92 1.753 0 1.007-.516 1.663-1.314 1.946v.023c.202.124.465.531.818 1.199l1.142 2.195h-1.222l-1.02-1.98c-.324-.645-.567-.962-.748-1.007h-.627v2.987h-1.06Zm1.061-3.971h.566c.333 0 .576-.068.798-.204.303-.204.505-.566.505-1.064 0-.418-.141-.78-.434-.984-.182-.158-.445-.26-.859-.26h-.576v2.512ZM19.68 29.635l2.556-7.49h.818l2.637 7.49h-1.142l-.656-1.912h-2.466l-.636 1.912H19.68Zm2.06-2.886h1.83l-.546-1.697c-.182-.61-.283-.95-.354-1.199h-.02c-.06.26-.162.6-.364 1.2l-.545 1.697ZM16.765 29.747c-1.93 0-3.324-1.517-3.324-3.813 0-2.263 1.384-3.825 3.324-3.825 1.95 0 3.314 1.584 3.314 3.825 0 2.308-1.415 3.813-3.314 3.813Zm0-1.007c1.313 0 2.192-1.064 2.192-2.806 0-1.686-.828-2.818-2.192-2.818-1.313 0-2.192 1.075-2.192 2.818 0 1.742.879 2.806 2.192 2.806ZM8.884 29.634v-7.456h1.818c1.425 0 2.061.905 2.061 1.89 0 .69-.303 1.29-.838 1.56v.023c.778.204 1.273.917 1.273 1.81 0 1.189-.788 2.173-2.314 2.173h-2Zm1.06-.984h.85c.828 0 1.323-.34 1.323-1.177 0-.713-.475-1.143-1.213-1.143h-.96v2.32Zm0-3.304h.627c.748 0 1.142-.43 1.142-1.098 0-.622-.344-1.086-1.142-1.086h-.626v2.184Z"/></svg>