<svg xmlns="http://www.w3.org/2000/svg" fill="none" viewBox="0 0 24 24"><path fill="#E5E8EB" fill-rule="evenodd" d="M3 2a2 2 0 0 1 2-2h10.167a2 2 0 0 1 1.416.587l3.833 3.84A2 2 0 0 1 21 5.838V22a2 2 0 0 1-2 2H5a2 2 0 0 1-2-2V2Z" clip-rule="evenodd"/><path fill="#535C69" d="M16 .182a2 2 0 0 1 .583.405l3.833 3.84c.167.167.302.362.4.573H16.4a.4.4 0 0 1-.4-.4V.182Z" opacity=".3"/><path fill="#535C69" fill-rule="evenodd" d="M17.8 12.752v1.393h-1.542a4.006 4.006 0 0 1-.733 1.677l1.546 1.27-1.064 1.242-1.705-1.4a4.553 4.553 0 0 1-1.665.624v1.463h-1.474v-1.456a4.521 4.521 0 0 1-1.668-.629l-1.702 1.398-1.064-1.242 1.549-1.272a4.032 4.032 0 0 1-.728-1.675H6v-1.393h1.542c.11-.603.36-1.176.734-1.677l-1.547-1.27 1.064-1.242 1.706 1.4a4.54 4.54 0 0 1 1.664-.623V7.876h1.474V9.34c.595.098 1.161.31 1.665.624l1.705-1.4 1.064 1.241-1.547 1.27c.374.501.624 1.074.734 1.677H17.8Zm-5.9-1.393c-.895 0-1.701.51-2.044 1.29-.342.781-.153 1.68.48 2.278a2.308 2.308 0 0 0 2.41.453c.827-.324 1.367-1.086 1.367-1.931 0-1.154-.991-2.09-2.213-2.09Z" clip-rule="evenodd" opacity=".3"/></svg>