<svg xmlns="http://www.w3.org/2000/svg" fill="none" viewBox="0 0 24 24"><path fill="#E5E8EB" fill-rule="evenodd" d="M2 2a2 2 0 0 1 2-2h10.167a2 2 0 0 1 1.416.587l3.833 3.84A2 2 0 0 1 20 5.838V22a2 2 0 0 1-2 2H4a2 2 0 0 1-2-2V2Z" clip-rule="evenodd"/><path fill="#535C69" d="M15 .182a2 2 0 0 1 .583.405l3.833 3.84c.167.167.302.362.4.573H15.4a.4.4 0 0 1-.4-.4V.182Z" opacity=".3"/><path fill="#9BA4AE" d="M5 12a1 1 0 0 1 1-1h16a1 1 0 0 1 1 1v7a1 1 0 0 1-1 1H6a1 1 0 0 1-1-1v-7Z"/><path fill="#fff" fill-rule="evenodd" d="M9.295 17.999h.781v-4.326h1.332l.223-.675H7.874v.675h1.421V18Zm2.425 0h.855l1.332-1.928L15.157 18h.886l-1.645-2.535 1.697-2.466h-.864l-1.28 1.882-1.22-1.882h-.885l1.607 2.49-1.733 2.511Zm6.285 0h.782v-4.326h1.332l.223-.675h-3.757v.675h1.42V18Z" clip-rule="evenodd"/></svg>