<svg xmlns="http://www.w3.org/2000/svg" fill="none" viewBox="0 0 24 24"><path fill="#E5E8EB" fill-rule="evenodd" d="M2 2a2 2 0 0 1 2-2h10.167a2 2 0 0 1 1.416.587l3.833 3.84A2 2 0 0 1 20 5.838V22a2 2 0 0 1-2 2H4a2 2 0 0 1-2-2V2Z" clip-rule="evenodd"/><path fill="#535C69" d="M15 .182a2 2 0 0 1 .583.405l3.833 3.84c.167.167.302.362.4.573H15.4a.4.4 0 0 1-.4-.4V.182Z" opacity=".3"/><path fill="#54B51E" d="M3.531 11.748c0-.48.442-.87.987-.87h17.497c.545 0 .986.39.986.87v7.262c0 .48-.441.87-.986.87H4.518c-.545 0-.987-.39-.987-.87v-7.262Z"/><path fill="#fff" d="m5.72 17.67 1.628-2.313-1.509-2.292h.831l1.146 1.733 1.202-1.733h.81l-1.593 2.27L9.78 17.67h-.831l-1.174-1.774-1.25 1.774H5.72ZM10.283 17.355l.294-.559c.251.168.6.321 1.02.321.426 0 .824-.16.824-.607 0-.972-2.005-.853-2.005-2.243 0-.678.531-1.244 1.453-1.244.454 0 .846.105 1.083.231v.664a2.329 2.329 0 0 0-1.062-.273c-.35 0-.691.14-.691.552 0 .908 1.998.804 1.998 2.25 0 .803-.664 1.292-1.586 1.292-.531 0-1.006-.154-1.328-.384ZM14.13 17.67v-4.605h.733v3.982h1.656v.622h-2.39ZM16.766 17.67l1.628-2.313-1.51-2.292h.832l1.146 1.733 1.201-1.733h.81l-1.592 2.27 1.544 2.334h-.831l-1.174-1.774-1.25 1.774h-.804Z"/></svg>