<svg width="27px" height="27px" viewBox="0 0 27 27" version="1.1" xmlns="http://www.w3.org/2000/svg" xmlns:xlink="http://www.w3.org/1999/xlink">
    <g stroke="none" stroke-width="1" fill="none">
        <g transform="translate(7.000000, 7.000000)" fill="#FFFFFF" fill-rule="nonzero">
            <path d="M12.8730469,5.22666008 L12.35,5.22666008 L12.35,5.2 L6.5,5.2 L6.5,7.8 L10.1740236,7.8 C9.6370118,9.31328125 8.1973632,10.4 6.5,10.4 C4.34560555,10.4 2.6,8.65439445 2.6,6.5 C2.6,4.34560555 4.34560555,2.6 6.5,2.6 C7.49404305,2.6 8.39921875,2.9745118 9.08730485,3.58769547 L10.9255861,1.74941423 C9.76523438,0.6677736 8.21259758,0 6.5,0 C2.90976562,0 0,2.90976562 0,6.5 C0,10.0902344 2.90976562,13 6.5,13 C10.0902344,13 13,10.0902344 13,6.5 C13,6.0645507 12.9555663,5.63925797 12.8730469,5.22666008 Z"></path>
            <path d="M0.7490236,3.47470695 L2.88564445,5.04130867 C3.46328125,3.61054687 4.86230485,2.6 6.5,2.6 C7.49404305,2.6 8.39921875,2.9745118 9.08730485,3.58769548 L10.9255861,1.74941423 C9.76523437,0.6677736 8.21259758,0 6.5,0 C4.00283195,0 1.83828125,1.40917985 0.7490236,3.47470695 Z"></path>
            <path d="M6.5,13 C8.17832047,13 9.70429687,12.3576173 10.8583007,11.312793 L8.84609375,9.61035172 C8.19355485,10.1041993 7.3823243,10.4 6.5,10.4 C4.80898437,10.4 3.37441422,9.32216805 2.83359375,7.8177736 L0.713476725,9.45039063 C1.78876945,11.5552736 3.97363297,13 6.5,13 Z"></path>
            <path d="M12.8730469,5.22666008 L12.35,5.22666008 L12.35,5.2 L6.5,5.2 L6.5,7.8 L10.1740236,7.8 C9.91630867,8.52744133 9.44785172,9.15332048 8.8448243,9.61035173 C8.84609375,9.61035173 8.84609375,9.61035173 8.84609375,9.61035173 L10.8583007,11.312793 C10.7161132,11.4410156 13,9.75 13,6.5 C13,6.0645507 12.9555663,5.63925797 12.8730469,5.22666008 Z"></path>
        </g>
        <rect x="0" y="0" width="27" height="27"></rect>
    </g>
</svg>