<svg width="27px" height="27px" viewBox="0 0 27 27" version="1.1" xmlns="http://www.w3.org/2000/svg" xmlns:xlink="http://www.w3.org/1999/xlink">
    <g stroke="none" stroke-width="1" fill="none">
        <g id="Программы-на-компьютере" transform="translate(6.000000, 7.000000)" fill="#FFFFFF" fill-rule="nonzero">
            <path d="M11.6610059,11.074933 L11.6610059,12.5 C11.6610059,12.776142 11.4371483,13 11.1610059,13 L4.1059468,13 C3.8298044,13 3.6059468,12.776142 3.6059468,12.5 L3.6059468,11.074933 L1,11.074933 C0.4477153,11.074933 0,10.627218 0,10.074933 L0,1 C0,0.447715 0.4477153,0 1,0 L14,0 C14.5522847,0 15,0.447715 15,1 L15,10.074933 C15,10.627218 14.5522847,11.074933 14,11.074933 L11.6610059,11.074933 Z M2.0617201,1.856637 L2.0617201,9.218296 L12.9382799,9.218296 L12.9382799,1.856637 L2.0617201,1.856637 Z"></path>
        </g>
        <rect x="0" y="0" width="27" height="27"></rect>
    </g>
</svg>