<svg width="27px" height="27px" viewBox="0 0 27 27" version="1.1" xmlns="http://www.w3.org/2000/svg" xmlns:xlink="http://www.w3.org/1999/xlink">
    <g stroke="none" stroke-width="1" fill="none" fill-rule="evenodd">
        <rect id="Rectangle" x="0" y="0" width="27" height="27"></rect>
        <g id="OneDrive1" transform="translate(3.000000, 7.000000)" fill="#FFFFFF" fill-rule="nonzero">
            <path d="M19.4937733,6.72273546 C20.1614724,7.92031949 20.1691267,9.3718733 19.514094,10.5763001 L15.9663877,8.4714949 L14.9288315,7.85592633 L12.5507502,6.44504871 L11.825269,6.01463728 L0.898337653,10.5690696 C-0.160349563,9.06530973 -0.293320454,7.10516777 0.552745169,5.47464389 C1.39881079,3.84412002 3.08536688,2.81021792 4.9361189,2.78752347 C6.29619569,0.740758763 8.74705767,-0.31890186 11.1871058,0.0848343387 C13.6271539,0.488570538 15.5971984,2.27972493 16.2117502,4.65321537 C17.5898077,4.74561066 18.8260742,5.52515144 19.4937733,6.72273546 Z M15.9663877,8.47148871 L19.5140939,10.5762939 C18.805301,11.8790322 17.4316039,12.691131 15.9375127,12.6906896 L5.00001265,12.6906896 C3.36448687,12.6915383 1.8322298,11.8989669 0.898343903,10.5690696 L4.6008439,9.02583347 L6.2467314,8.33981109 L9.91143765,6.81233585 L11.8252689,6.01464347 L12.5507502,6.4450549 L14.9288314,7.85592633 L15.9663877,8.47148871 Z"></path>
        </g>
    </g>
</svg>