<svg xmlns="http://www.w3.org/2000/svg" fill="none" viewBox="0 0 24 24"><path fill="#E5E8EB" fill-rule="evenodd" d="M2 2a2 2 0 0 1 2-2h10.167a2 2 0 0 1 1.416.587l3.833 3.84A2 2 0 0 1 20 5.838V22a2 2 0 0 1-2 2H4a2 2 0 0 1-2-2V2Z" clip-rule="evenodd"/><path fill="#535C69" d="M15 .182a2 2 0 0 1 .583.405l3.833 3.84c.167.167.302.362.4.573H15.4a.4.4 0 0 1-.4-.4V.182Z" opacity=".3"/><path fill="#43AA55" d="M5 12a1 1 0 0 1 1-1h16a1 1 0 0 1 1 1v7a1 1 0 0 1-1 1H6a1 1 0 0 1-1-1v-7Z"/><path fill="#fff" d="m18.06 18.169-2.013-5.04h.866l1.095 2.836c.152.395.266.73.372 1.04h.015c.1-.296.213-.63.38-1.055l1.087-2.82h.859l-2.014 5.039h-.646ZM12.41 17.796l.32-.608c.273.182.653.35 1.109.35.464 0 .897-.175.897-.662 0-1.056-2.181-.927-2.181-2.44 0-.736.577-1.352 1.58-1.352.494 0 .92.114 1.178.25v.723a2.534 2.534 0 0 0-1.155-.297c-.38 0-.752.152-.752.6 0 .989 2.173.875 2.173 2.448 0 .874-.722 1.406-1.725 1.406-.577 0-1.094-.167-1.444-.418ZM11.542 17.203l.22.631a3.09 3.09 0 0 1-1.527.38c-1.589 0-2.485-1.056-2.485-2.523 0-1.452 1.033-2.607 2.599-2.607.54 0 .995.114 1.284.25v.746a2.617 2.617 0 0 0-1.27-.32c-1.124 0-1.762.867-1.762 1.908 0 1.102.66 1.87 1.725 1.87.486 0 .866-.137 1.216-.335Z"/></svg>