<svg xmlns="http://www.w3.org/2000/svg" fill="none" viewBox="0 0 24 24"><path fill="#E5E8EB" fill-rule="evenodd" d="M2 2a2 2 0 0 1 2-2h10.167a2 2 0 0 1 1.416.587l3.833 3.84A2 2 0 0 1 20 5.838V22a2 2 0 0 1-2 2H4a2 2 0 0 1-2-2V2Z" clip-rule="evenodd"/><path fill="#535C69" d="M15 .182a2 2 0 0 1 .583.405l3.833 3.84c.167.167.302.362.4.573H15.4a.4.4 0 0 1-.4-.4V.182Z" opacity=".3"/><path fill="#2C77B1" d="M3.531 11.748c0-.48.442-.87.987-.87h17.497c.545 0 .986.39.986.87v7.262c0 .48-.441.87-.986.87H4.518c-.545 0-.987-.39-.987-.87v-7.262Z"/><path fill="#fff" d="M5.083 17.67v-4.612h1.251c1.55 0 2.364.93 2.364 2.275 0 1.372-.88 2.338-2.417 2.338H5.083Zm.695-.622h.51c1.225 0 1.668-.784 1.668-1.708 0-.994-.55-1.66-1.681-1.66h-.497v3.368ZM11.562 17.74c-1.264 0-2.178-.937-2.178-2.358 0-1.4.907-2.366 2.178-2.366 1.278 0 2.172.98 2.172 2.366 0 1.428-.927 2.359-2.172 2.359Zm0-.622c.86 0 1.437-.658 1.437-1.736 0-1.043-.543-1.743-1.437-1.743-.86 0-1.436.665-1.436 1.743s.576 1.736 1.436 1.736ZM17.73 16.81l.193.58c-.457.267-.907.35-1.331.35-1.384 0-2.165-.972-2.165-2.323 0-1.337.9-2.401 2.264-2.401.47 0 .867.105 1.119.23v.687a2.183 2.183 0 0 0-1.106-.294c-.98 0-1.536.798-1.536 1.757 0 1.015.577 1.722 1.503 1.722.424 0 .755-.126 1.06-.308ZM18.255 17.67l1.543-2.316-1.43-2.296h.788l1.085 1.736 1.139-1.736h.768l-1.51 2.275 1.464 2.338h-.788L20.2 15.893l-1.184 1.778h-.762Z"/></svg>