<svg xmlns="http://www.w3.org/2000/svg" fill="none" viewBox="0 0 24 24"><path fill="#86E0FB" d="M0 6a1 1 0 0 1 1-1h22a1 1 0 0 1 1 1v14a2 2 0 0 1-2 2H2a2 2 0 0 1-2-2V6Z"/><path fill="#2FC7F7" d="M2.002 2a2 2 0 0 0-2 2H0v2h24a2 2 0 0 0-2-2h-7.996l-1.437-1.422A2 2 0 0 0 11.16 2H2.002Z"/><path fill="#3EAFD2" fill-rule="evenodd" d="M23.578 17.673s-1.377-.847-2.418-.914c-1.04-.067-2.735.816-3.56.83-.826.014-2.462-1.499-2.082-1.192.38.306-2.363-1.725-2.492-1.979-.128-.254.239-.538.569-.365.33.173 2.934 1.614 3.346 1.75.411.135 2.154.043 2.154.043l.22-.13s.197-.114-.045-.24c-.241-.127-2.461-.718-2.461-.718s-.219-.474.148-.565c.367-.09 3.76.14 4.258.28.498.14 1.424.785 1.424.785l1.096.597-.157 1.818Z" clip-rule="evenodd"/></svg>