<svg xmlns="http://www.w3.org/2000/svg" fill="none" viewBox="0 0 24 24"><path fill="#86E0FB" d="M0 6a1 1 0 0 1 1-1h22a1 1 0 0 1 1 1v14a2 2 0 0 1-2 2H2a2 2 0 0 1-2-2V6Z"/><path fill="#2FC7F7" d="M0 4h22a2 2 0 0 1 2 2H0V4Z"/><path fill="#2FC7F7" d="M.001 4a2 2 0 0 1 2-2h9.16a2 2 0 0 1 1.406.578l2.078 2.057H.001V4Z"/><path fill="#3EAFD2" fill-rule="evenodd" d="M7.857 19.642c0 .365.184.548.553.549.368 0 .552-.183.553-.55v-4.944h.566v4.945c0 .365.185.548.554.549.368 0 .553-.183.552-.55v-8.424h.27v3.035c0 .192.068.331.203.419a.366.366 0 0 0 .418 0c.144-.087.216-.227.216-.42v-3.269c0-.349-.122-.62-.364-.811-.243-.192-.58-.288-1.012-.288H8.154c-.415 0-.752.087-1.013.262-.26.175-.39.445-.39.81v3.48a.353.353 0 0 0 .215.34c.13.07.288.07.418 0a.355.355 0 0 0 .203-.34v-3.218h.27v8.425ZM8.073 8.3c-.001.45.278.855.707 1.027a1.17 1.17 0 0 0 1.249-.243 1.07 1.07 0 0 0 .337-.797c.002-.292-.12-.571-.337-.772a1.172 1.172 0 0 0-1.248-.24A1.112 1.112 0 0 0 8.073 8.3ZM13.865 19.641c0 .366.184.549.553.55.368 0 .553-.183.553-.55v-4.945h.566v4.945c0 .366.185.549.554.55.369 0 .553-.183.552-.55v-8.424h.27v3.034c0 .192.068.332.203.42a.366.366 0 0 0 .418 0c.144-.088.216-.227.216-.42v-3.27c0-.348-.122-.619-.364-.81-.243-.192-.58-.288-1.012-.288h-2.212c-.414 0-.752.087-1.013.262-.26.174-.39.444-.39.81v3.48a.353.353 0 0 0 .215.34c.13.07.289.07.419 0a.354.354 0 0 0 .202-.34v-3.218h.27v8.424Zm.216-11.34c0 .449.279.855.707 1.027a1.17 1.17 0 0 0 1.249-.243 1.07 1.07 0 0 0 .337-.798c.002-.291-.12-.57-.337-.772a1.172 1.172 0 0 0-1.248-.24 1.113 1.113 0 0 0-.708 1.025Z" clip-rule="evenodd"/></svg>