<svg xmlns="http://www.w3.org/2000/svg" fill="none" viewBox="0 0 24 24"><path fill="#E5E8EB" fill-rule="evenodd" d="M2 2a2 2 0 0 1 2-2h10.167a2 2 0 0 1 1.416.587l3.833 3.84A2 2 0 0 1 20 5.838V22a2 2 0 0 1-2 2H4a2 2 0 0 1-2-2V2Z" clip-rule="evenodd"/><path fill="#535C69" d="M15 .182a2 2 0 0 1 .583.405l3.833 3.84c.167.167.302.362.4.573H15.4a.4.4 0 0 1-.4-.4V.182Z" opacity=".3"/><path fill="#746781" d="M9.05 11.771a1 1 0 0 1 1-1h10.977a1 1 0 0 1 1 1v4.998a1 1 0 0 1-1 1H10.051a1 1 0 0 1-1-1v-4.997Z"/><path fill="#746781" d="M5 11a1 1 0 0 1 1-1h16a1 1 0 0 1 1 1v7a1 1 0 0 1-1 1H6a1 1 0 0 1-1-1v-7Z"/><path fill="#fff" fill-rule="evenodd" d="M8 16.938h.75v-1.739h.236c.422 0 .736-.067.986-.18.629-.277.864-.846.864-1.423 0-.652-.27-1.124-.735-1.379-.272-.15-.6-.217-1.05-.217H8v4.938Zm.75-2.383v-1.91h.28c.278 0 .478.052.628.142.264.165.393.457.393.809 0 .397-.136.69-.422.832-.143.082-.336.127-.593.127H8.75Zm3.436 2.383h.75V14.75h2.358v2.188h.75V12h-.75v2.083h-2.358V12h-.75v4.938Zm5.28 0h.75v-1.739h.235c.422 0 .736-.067.986-.18.63-.277.865-.846.865-1.423 0-.652-.272-1.124-.736-1.379-.271-.15-.6-.217-1.05-.217h-1.05v4.938Zm.75-2.383v-1.91h.278c.28 0 .48.052.63.142.263.165.392.457.392.809 0 .397-.136.69-.421.832-.143.082-.336.127-.594.127h-.286Z" clip-rule="evenodd"/></svg>