<svg xmlns="http://www.w3.org/2000/svg" fill="none" viewBox="0 0 24 24"><path fill="#E5E8EB" fill-rule="evenodd" d="M2 2a2 2 0 0 1 2-2h10.167a2 2 0 0 1 1.416.587l3.833 3.84A2 2 0 0 1 20 5.838V22a2 2 0 0 1-2 2H4a2 2 0 0 1-2-2V2Z" clip-rule="evenodd"/><path fill="#535C69" d="M15 .182a2 2 0 0 1 .583.405l3.833 3.84c.167.167.302.362.4.573H15.4a.4.4 0 0 1-.4-.4V.182Z" opacity=".3"/><path fill="#E89E00" d="M3.531 11.748c0-.48.442-.87.987-.87h17.497c.545 0 .986.39.986.87v7.262c0 .48-.441.87-.986.87H4.518c-.545 0-.987-.39-.987-.87v-7.262Z"/><path fill="#fff" d="M6.188 17.67v-4.605h1.027c.44 0 .762.063 1.027.203.455.238.72.678.72 1.285 0 .538-.23 1.07-.845 1.328-.245.105-.552.168-.964.168h-.231v1.62h-.734Zm.734-2.222h.28c.251 0 .44-.042.58-.119.279-.133.412-.405.412-.776 0-.328-.126-.6-.385-.754-.146-.084-.342-.133-.615-.133h-.272v1.782ZM9.9 17.67v-4.605h1.027c.44 0 .761.063 1.027.203.454.238.72.678.72 1.285 0 .538-.231 1.07-.846 1.328-.244.105-.552.168-.964.168h-.23v1.62H9.9Zm.733-2.222h.28c.251 0 .44-.042.58-.119.28-.133.412-.405.412-.776 0-.328-.126-.6-.384-.754-.147-.084-.343-.133-.615-.133h-.273v1.782ZM14.485 17.67v-3.983H13.15v-.622h3.528l-.21.622h-1.25v3.982h-.733ZM16.8 17.67l1.628-2.313-1.51-2.292h.832l1.146 1.733 1.202-1.733h.81l-1.593 2.271 1.544 2.333h-.831l-1.174-1.774-1.25 1.774H16.8Z"/></svg>