<svg xmlns="http://www.w3.org/2000/svg" fill="none" viewBox="0 0 24 24"><path fill="#E5E8EB" fill-rule="evenodd" d="M3 2a2 2 0 0 1 2-2h10.167a2 2 0 0 1 1.416.587l3.833 3.84A2 2 0 0 1 21 5.838V22a2 2 0 0 1-2 2H5a2 2 0 0 1-2-2V2Z" clip-rule="evenodd"/><path fill="#535C69" d="M16 .182a2 2 0 0 1 .583.405l3.833 3.84c.167.167.302.362.4.573H16.4a.4.4 0 0 1-.4-.4V.182Z" opacity=".3"/><path fill="#31404A" fill-rule="evenodd" d="m10.026 10.613 4.138 3.37-4.138 3.37v-6.74Z" clip-rule="evenodd" opacity=".3"/><path fill="#B9BEC4" fill-rule="evenodd" d="M18.36 8.979H5V18.968h13.83v-9.99h-.47Zm0 9.52H5.47v-9.05h12.89v9.05Zm-1.671.009h-.409v-9.07h.409v9.07Zm0-9.07h1.681v.653H16.69v-.653Zm0 1.684h1.681v.652H16.69v-.652Zm0 1.684h1.681v.652H16.69v-.652Zm0 1.683h1.681v.652H16.69v-.652Zm0 1.683h1.681v.652H16.69v-.652Zm0 1.683h1.681v.652H16.69v-.652Zm-9.55-8.418h.409v9.071h-.41v-9.07Zm0 9.072h-1.68v-.653h1.68v.653Zm0-1.684h-1.68v-.652h1.68v.652Zm0-1.683h-1.68v-.653h1.68v.653Zm0-1.684h-1.68v-.652h1.68v.652Zm0-1.684h-1.68v-.653h1.68v.653Zm0-1.684h-1.68v-.652h1.68v.652Z" clip-rule="evenodd"/></svg>