<svg xmlns="http://www.w3.org/2000/svg" fill="none" viewBox="0 0 24 24"><path fill="#C3F0FF" fill-rule="evenodd" d="M3 2a2 2 0 0 1 2-2h10.167a2 2 0 0 1 1.416.587l3.833 3.84A2 2 0 0 1 21 5.838V22a2 2 0 0 1-2 2H5a2 2 0 0 1-2-2V2Z" clip-rule="evenodd"/><path fill="#535C69" d="M16 .182a2 2 0 0 1 .583.405l3.833 3.84c.167.167.302.362.4.573H16.4a.4.4 0 0 1-.4-.4V.182Z" opacity=".3"/><g clip-path="url(#a)"><path fill="#7FDEFC" d="m15.27 17.094-7.791 7.59 16.978.143-7.94-7.733a.894.894 0 0 0-1.246 0Z" opacity=".9"/><path fill="#2FC6F6" d="M8.839 15.014-1.458 25.41h22.043L10.097 15.014a.894.894 0 0 0-1.258 0Z" opacity=".9"/><circle cx="13.734" cy="11.479" r="1.787" fill="#fff"/></g><defs><clipPath id="a"><rect width="15" height="13.702" x="4.5" y="8.5" fill="#fff" rx=".596"/></clipPath></defs></svg>