<svg xmlns="http://www.w3.org/2000/svg" fill="none" viewBox="0 0 24 24"><path fill="#86E0FB" d="M0 6a1 1 0 0 1 1-1h22a1 1 0 0 1 1 1v14a2 2 0 0 1-2 2H2a2 2 0 0 1-2-2V6Z"/><path fill="#2FC7F7" d="M0 4h22a2 2 0 0 1 2 2H0V4Z"/><path fill="#2FC7F7" d="M.001 4a2 2 0 0 1 2-2h9.16a2 2 0 0 1 1.406.578l2.078 2.057H.001V4Z"/><path fill="#3EAFD2" fill-rule="evenodd" d="M3.23 19.33c0 .361.18.543.537.543.358 0 .537-.181.537-.544v-4.897h.55v4.897c0 .362.18.544.537.544.358 0 .537-.181.537-.544v-8.342h.262v3.005c0 .19.065.328.196.415a.35.35 0 0 0 .406 0c.14-.086.21-.225.21-.415v-3.238c0-.345-.118-.613-.354-.803-.235-.19-.563-.285-.982-.285H3.52c-.402 0-.73.086-.983.26-.253.172-.38.44-.38.802v3.446a.35.35 0 0 0 .21.336c.126.07.28.07.406 0a.352.352 0 0 0 .197-.336v-3.187h.261v8.342Zm.21-11.231c0 .445.27.847.687 1.018.416.17.894.075 1.212-.241a1.07 1.07 0 0 0 .327-.79 1.041 1.041 0 0 0-.327-.765 1.121 1.121 0 0 0-1.211-.237c-.416.17-.687.57-.688 1.015ZM9.423 19.38c0 .363.178.544.536.545.358 0 .537-.181.537-.544v-4.897h.55v4.897c0 .362.18.543.537.544.358 0 .537-.181.537-.544v-8.342h.262v3.005c0 .19.065.328.196.415a.35.35 0 0 0 .406 0c.14-.087.21-.225.21-.415v-3.238c0-.345-.118-.613-.354-.803-.236-.19-.563-.285-.982-.285H9.711c-.402 0-.73.086-.983.26-.253.172-.38.44-.38.802v3.445a.35.35 0 0 0 .21.337c.126.07.28.07.406 0a.352.352 0 0 0 .197-.337V11.04h.261v8.342Zm.21-11.23c-.002.446.27.848.686 1.018.415.17.894.075 1.212-.24a1.07 1.07 0 0 0 .327-.79 1.041 1.041 0 0 0-.327-.765 1.121 1.121 0 0 0-1.212-.238c-.415.17-.686.57-.687 1.016ZM23.744 18.907s-1.378-.846-2.418-.913c-1.04-.067-2.735.816-3.56.83-.826.014-2.462-1.5-2.082-1.193.38.307-2.364-1.725-2.492-1.979-.128-.253.238-.537.569-.365.33.173 2.934 1.614 3.346 1.75.41.135 2.153.043 2.153.043l.22-.13s.198-.114-.044-.24c-.242-.127-2.461-.717-2.461-.717s-.219-.475.148-.565c.366-.09 3.76.139 4.258.279.498.14 1.424.786 1.424.786l1.095.596-.156 1.818Z" clip-rule="evenodd"/></svg>