<svg xmlns="http://www.w3.org/2000/svg" fill="none" viewBox="0 0 24 24"><path fill="#E5E8EB" fill-rule="evenodd" d="M3 2a2 2 0 0 1 2-2h10.167a2 2 0 0 1 1.416.587l3.833 3.84A2 2 0 0 1 21 5.838V22a2 2 0 0 1-2 2H5a2 2 0 0 1-2-2V2Z" clip-rule="evenodd"/><path fill="#535C69" d="M16 .182a2 2 0 0 1 .583.405l3.833 3.84c.167.167.302.362.4.573H16.4a.4.4 0 0 1-.4-.4V.182Z" opacity=".3"/><path fill="#7EAB34" d="M6 12a1 1 0 0 1 1-1h16a1 1 0 0 1 1 1v7a1 1 0 0 1-1 1H7a1 1 0 0 1-1-1v-7Z"/><path fill="#fff" fill-rule="evenodd" d="M9.083 18.01h.781v-2.004h.462c.134.03.312.243.55.675l.752 1.329h.9l-.84-1.473c-.261-.447-.455-.72-.603-.804v-.015c.587-.19.967-.63.967-1.306 0-.485-.194-.925-.677-1.176-.253-.144-.588-.227-1.064-.227H9.083v5Zm.781-2.664v-1.685h.425c.305 0 .498.068.632.175.216.136.32.379.32.66 0 .333-.149.576-.372.713-.18.098-.383.145-.588.137h-.417Zm2.767 2.664h.818l.47-1.283h1.815l.483 1.283h.841l-1.942-5.024h-.602L12.63 18.01Zm1.518-1.935.402-1.139c.102-.263.192-.531.268-.804h.015c.052.167.126.395.26.804l.402 1.139h-1.347Zm3.414 1.935h.781v-2.004h.462c.134.03.312.243.55.675l.752 1.329h.9l-.84-1.473c-.261-.447-.455-.72-.604-.804v-.015c.588-.19.968-.63.968-1.306 0-.485-.194-.925-.677-1.176-.253-.144-.588-.227-1.065-.227h-1.227v5Zm.78-2.664v-1.685h.425c.305 0 .499.068.633.175.215.136.32.379.32.66 0 .333-.15.576-.372.713-.181.098-.384.145-.589.137h-.416Z" clip-rule="evenodd"/><path fill="#B8BDC4" fill-rule="evenodd" d="M8 0H6v1h2V0Zm3 0H9v1h2V0ZM6 2h2v1H6V2Zm5 0H9v1h2V2ZM6 4h2v1H6V4Zm5 0H9v1h2V4ZM6 6h2v1H6V6Zm5 0H9v1h2V6ZM6 8h2v1H6V8Zm5 0H9v1h2V8Z" clip-rule="evenodd"/></svg>