<?xml version="1.0" encoding="utf-8"?>
<!-- Generator: Adobe Illustrator 19.2.0, SVG Export Plug-In . SVG Version: 6.00 Build 0)  -->
<svg version="1.1" id="Layer_1" xmlns="http://www.w3.org/2000/svg" xmlns:xlink="http://www.w3.org/1999/xlink" x="0px" y="0px"
	 viewBox="0 0 35 35" style="enable-background:new 0 0 35 35;" xml:space="preserve">
<style type="text/css">
	.st0{fill:#FFFFFF;}
	.st1{fill:#FB5A5B;}
</style>
<circle class="st0" cx="17.5" cy="17.5" r="17.5"/>
<path class="st1" d="M17.5,4C10,4,4,10,4,17.5C4,25,10,31,17.5,31S31,25,31,17.5C31,10,25,4,17.5,4z M7.7,17.5
	c0-5.4,4.4-9.8,9.8-9.8c1.8,0,3.6,0.5,5,1.4L9.1,22.5C8.2,21.1,7.7,19.3,7.7,17.5z M17.5,27.3c-1.8,0-3.6-0.5-5-1.4l13.4-13.4
	c0.9,1.5,1.4,3.2,1.4,5C27.3,22.9,22.9,27.3,17.5,27.3z"/>
</svg>
