<svg xmlns="http://www.w3.org/2000/svg" fill="none" viewBox="0 0 24 24"><path fill="#E5E8EB" fill-rule="evenodd" d="M2 2a2 2 0 0 1 2-2h10.167a2 2 0 0 1 1.416.587l3.833 3.84A2 2 0 0 1 20 5.838V22a2 2 0 0 1-2 2H4a2 2 0 0 1-2-2V2Z" clip-rule="evenodd"/><path fill="#535C69" d="M15 .182a2 2 0 0 1 .583.405l3.833 3.84c.167.167.302.362.4.573H15.4a.4.4 0 0 1-.4-.4V.182Z" opacity=".3"/><path fill="#AC5FBD" d="M5 12a1 1 0 0 1 1-1h16a1 1 0 0 1 1 1v7a1 1 0 0 1-1 1H6a1 1 0 0 1-1-1v-7Z"/><path fill="#fff" fill-rule="evenodd" d="M9.742 17.999h3.734v-.676h-2.462l2.403-4.325h-3.6l.207.675h2.158L9.742 18Zm4.351 0h.781v-5.001h-.78v5.001Zm1.815 0h.781v-1.76h.246c.44 0 .767-.069 1.027-.183.654-.28.9-.857.9-1.442 0-.66-.283-1.138-.766-1.396-.283-.152-.625-.22-1.094-.22h-1.094v5.001Zm.781-2.413V13.65h.29c.291 0 .5.054.656.145.275.167.409.463.409.82 0 .401-.142.698-.44.842-.148.083-.349.129-.617.129h-.298Z" clip-rule="evenodd"/><path fill="#B8BDC4" fill-rule="evenodd" d="M8 0H6v1h2V0Zm3 0H9v1h2V0ZM6 2h2v1H6V2Zm5 0H9v1h2V2ZM6 4h2v1H6V4Zm5 0H9v1h2V4ZM6 6h2v1H6V6Zm5 0H9v1h2V6ZM6 8h2v1H6V8Zm5 0H9v1h2V8Z" clip-rule="evenodd"/></svg>