<svg xmlns="http://www.w3.org/2000/svg" fill="none" viewBox="0 0 24 24"><path fill="#E5E8EB" fill-rule="evenodd" d="M2 2a2 2 0 0 1 2-2h10.167a2 2 0 0 1 1.416.587l3.833 3.84A2 2 0 0 1 20 5.838V22a2 2 0 0 1-2 2H4a2 2 0 0 1-2-2V2Z" clip-rule="evenodd"/><path fill="#535C69" d="M15 .182a2 2 0 0 1 .583.405l3.833 3.84c.167.167.302.362.4.573H15.4a.4.4 0 0 1-.4-.4V.182Z" opacity=".3"/><path fill="#54B51E" d="M5 12a1 1 0 0 1 1-1h16a1 1 0 0 1 1 1v7a1 1 0 0 1-1 1H6a1 1 0 0 1-1-1v-7Z"/><path fill="#fff" fill-rule="evenodd" d="M8.845 17.984H9.7l1.332-1.927 1.25 1.927h.886l-1.645-2.534 1.697-2.467h-.864l-1.28 1.882-1.22-1.882h-.885l1.607 2.49-1.733 2.511Zm5.058 0h2.544v-.676h-1.763v-4.325h-.781v5.001Zm2.73-.342c.342.25.848.418 1.413.418.983 0 1.69-.532 1.69-1.404 0-1.571-2.129-1.457-2.129-2.444 0-.447.365-.6.737-.6.395.006.782.108 1.131.297v-.721c-.253-.137-.67-.25-1.153-.25-.982 0-1.548.614-1.548 1.35 0 1.51 2.136 1.381 2.136 2.436 0 .485-.424.66-.879.66a1.935 1.935 0 0 1-1.086-.349l-.312.607Z" clip-rule="evenodd"/></svg>