<svg xmlns="http://www.w3.org/2000/svg" fill="none" viewBox="0 0 24 24"><path fill="#E5E8EB" fill-rule="evenodd" d="M2 2a2 2 0 0 1 2-2h10.167a2 2 0 0 1 1.416.587l3.833 3.84A2 2 0 0 1 20 5.838V22a2 2 0 0 1-2 2H4a2 2 0 0 1-2-2V2Z" clip-rule="evenodd"/><path fill="#535C69" d="M15 .182a2 2 0 0 1 .583.405l3.833 3.84c.167.167.302.362.4.573H15.4a.4.4 0 0 1-.4-.4V.182Z" opacity=".3"/><path fill="#2C77B1" d="M5 12a1 1 0 0 1 1-1h16a1 1 0 0 1 1 1v7a1 1 0 0 1-1 1H6a1 1 0 0 1-1-1v-7Z"/><path fill="#fff" fill-rule="evenodd" d="M7.037 17.984h1.347c1.726 0 2.716-1.047 2.716-2.534 0-1.457-.916-2.467-2.657-2.467H7.037v5.001Zm.781-.676v-3.65h.558c1.272 0 1.89.721 1.89 1.799 0 1.001-.499 1.851-1.875 1.851h-.573Zm6.465.752c1.399 0 2.44-1.01 2.44-2.557 0-1.503-1.004-2.566-2.44-2.566-1.43 0-2.448 1.048-2.448 2.566 0 1.54 1.026 2.557 2.448 2.557Zm0-.676c-.967 0-1.615-.714-1.615-1.882s.648-1.89 1.615-1.89c1.004 0 1.615.759 1.615 1.89 0 1.168-.648 1.882-1.615 1.882Zm7.044-.334a2.29 2.29 0 0 1-1.19.334c-1.042 0-1.69-.766-1.69-1.866 0-1.04.626-1.905 1.727-1.905.434-.003.861.107 1.242.318v-.743c-.282-.137-.729-.25-1.257-.25-1.533 0-2.544 1.153-2.544 2.602 0 1.465.877 2.52 2.433 2.52a2.976 2.976 0 0 0 1.495-.38l-.216-.63Z" clip-rule="evenodd"/></svg>