<svg width="24" height="24" viewBox="0 0 24 24" fill="none" xmlns="http://www.w3.org/2000/svg">
	<path
		d="M5.9999 20.1104C5.6699 20.1104 5.3999 19.8404 5.3999 19.5104V5.65039C5.3999 5.47039 5.4799 5.31039 5.6099 5.19039C5.6999 5.11039 6.5999 4.40039 8.9999 4.40039C10.2299 4.40039 11.2299 4.74039 12.1899 5.08039C13.1099 5.39039 13.9699 5.69039 14.9999 5.69039C16.9299 5.69039 17.6199 5.19039 17.6199 5.18039C17.7999 5.04039 18.0499 5.01039 18.2599 5.11039C18.4599 5.21039 18.5999 5.41039 18.5999 5.64039V13.3504C18.5999 13.5204 18.5199 13.6904 18.3899 13.8104C18.2999 13.8904 17.3999 14.6004 14.9999 14.6004C13.7799 14.6004 12.7699 14.2604 11.8099 13.9304C10.8899 13.6204 10.0299 13.3204 8.9999 13.3204C7.6699 13.3204 6.9299 13.5604 6.5999 13.7104V19.5104C6.5999 19.8404 6.3299 20.1104 5.9999 20.1104ZM8.9999 12.1204C10.2299 12.1204 11.2299 12.4604 12.1899 12.8004C13.1099 13.1104 13.9699 13.4104 14.9999 13.4104C16.3299 13.4104 17.0699 13.1704 17.3999 13.0204V6.59039C16.8599 6.76039 16.0899 6.90039 14.9999 6.90039C13.7799 6.90039 12.7699 6.56039 11.8099 6.22039C10.8899 5.91039 10.0299 5.61039 8.9999 5.61039C7.6699 5.61039 6.9299 5.85039 6.5999 6.00039V12.4404C7.1299 12.2704 7.9099 12.1304 8.9999 12.1304V12.1204Z"
		fill="#333333"/>
</svg>
