<svg width="24" height="25" viewBox="0 0 24 25" fill="none" xmlns="http://www.w3.org/2000/svg">
	<path fill-rule="evenodd" clip-rule="evenodd" d="M8.92 5.75C9.35 5 10.16 4.5 11.08 4.5H17.51C18.89 4.5 20.01 5.62 20.01 7V13.8C20.01 14.73 19.51 15.54 18.76 15.97C18.4 16.18 18.01 15.87 18.01 15.45C18.01 15.18 18.18 14.95 18.38 14.77C18.64 14.53 18.81 14.18 18.81 13.8V7C18.81 6.28 18.23 5.7 17.51 5.7H11.09C10.7 5.7 10.36 5.87 10.12 6.13C9.94 6.33 9.71 6.5 9.44 6.5C9.02 6.5 8.71 6.11 8.92 5.75ZM6.5 7.79004H13.8C15.18 7.79004 16.3 8.91004 16.3 10.29V18C16.3 19.38 15.18 20.5 13.8 20.5H6.5C5.12 20.5 4 19.38 4 18V10.29C4 8.91004 5.12 7.79004 6.5 7.79004ZM13.8 19.3C14.52 19.3 15.1 18.72 15.1 18V10.29C15.1 9.57004 14.52 8.99004 13.8 8.99004H6.5C5.78 8.99004 5.2 9.57004 5.2 10.29V18C5.2 18.72 5.78 19.3 6.5 19.3H13.8Z" fill="#909090"/>
</svg>