<svg width="24" height="24" viewBox="0 0 24 24" fill="none" xmlns="http://www.w3.org/2000/svg">
	<path
		d="M12 4C7.58173 4 4 7.58173 4 12C4 16.0521 7.01211 19.3997 10.9197 19.9276C11.2481 19.972 11.5502 19.7417 11.5946 19.4133C11.639 19.0849 11.4087 18.7828 11.0803 18.7384C7.75998 18.2899 5.2 15.4434 5.2 12C5.2 8.24447 8.24447 5.2 12 5.2C15.2826 5.2 18.0231 7.52655 18.6602 10.621C18.727 10.9456 19.0443 11.1545 19.3689 11.0877C19.6934 11.0209 19.9024 10.7036 19.8356 10.379C19.086 6.73799 15.8634 4 12 4Z"
		fill="#909090"/>
	<path
		d="M17 14.4C15.0118 14.4 13.4 16.0118 13.4 18V19.1382C13.4 19.4696 13.6686 19.7382 14 19.7382C14.3314 19.7382 14.6 19.4696 14.6 19.1382V18C14.6 16.6745 15.6745 15.6 17 15.6H18.5515L17.5757 16.5758C17.3414 16.8101 17.3414 17.19 17.5757 17.4243C17.81 17.6586 18.1899 17.6586 18.4243 17.4243L20.4243 15.4243C20.6586 15.19 20.6586 14.8101 20.4243 14.5758L18.4243 12.5758C18.1899 12.3414 17.81 12.3414 17.5757 12.5758C17.3414 12.8101 17.3414 13.19 17.5757 13.4243L18.5515 14.4H17Z"
		fill="#909090"/>
	<path
		d="M12.4 8.00002C12.4 7.66865 12.1314 7.40002 11.8 7.40002C11.4686 7.40002 11.2 7.66865 11.2 8.00002V12C11.2 12.3314 11.4686 12.6 11.8 12.6H14.8C15.1314 12.6 15.4 12.3314 15.4 12C15.4 11.6687 15.1314 11.4 14.8 11.4H12.4V8.00002Z"
		fill="#909090"/>
</svg>
