<svg width="24" height="24" viewBox="0 0 24 24" fill="none" xmlns="http://www.w3.org/2000/svg">
	<path fill-rule="evenodd" clip-rule="evenodd"
		  d="M11.992 11.9376C8.0468 11.9376 7.11978 6.1187 9.91304 4.06249C10.3769 3.72106 11.2684 3.39941 11.992 3.39941C17.1374 3.39941 16.7285 11.9376 11.992 11.9376ZM10.6244 5.02889C10.7268 4.95351 10.9428 4.83806 11.2327 4.74196C11.5187 4.64716 11.792 4.59941 11.992 4.59941C12.9043 4.59941 13.4908 4.95859 13.875 5.46178C14.2874 6.00186 14.5185 6.78542 14.498 7.63979C14.4776 8.4931 14.2083 9.30013 13.7674 9.86575C13.3481 10.4036 12.7709 10.7376 11.992 10.7376C10.7585 10.7376 9.89472 9.86699 9.59769 8.51385C9.291 7.11665 9.71865 5.69567 10.6244 5.02889Z"
		  fill="#909090"/>
	<path
		d="M7.49198 15.4432C6.65197 16.2336 6.24375 17.2695 6.13226 18.2994H13.0001C13.3314 18.2994 13.6001 18.5681 13.6001 18.8994C13.6001 19.2308 13.3314 19.4994 13.0001 19.4994H6.00005C5.40698 19.4994 4.86896 19.0088 4.92209 18.3517C5.02755 17.0473 5.52605 15.6454 6.66963 14.5693C7.81806 13.4886 9.55017 12.7994 12.0001 12.7994C12.1128 12.7994 12.1658 12.8009 12.2578 12.8035L12.2864 12.8044C12.6176 12.8136 12.8786 13.0897 12.8694 13.4209C12.8601 13.7522 12.584 14.0132 12.2528 14.0039L12.224 14.0031C12.1345 14.0005 12.0956 13.9994 12.0001 13.9994C9.77918 13.9994 8.36766 14.6192 7.49198 15.4432Z"
		fill="#909090"/>
	<path
		d="M17.2261 14.8129C16.4529 14.8129 15.8261 15.4397 15.8261 16.2129V17.9763C15.8261 18.3077 15.5575 18.5763 15.2261 18.5763C14.8948 18.5763 14.6261 18.3077 14.6261 17.9763V16.2129C14.6261 14.7769 15.7902 13.6129 17.2261 13.6129H18.5767L18.0131 13.009C17.787 12.7667 17.8001 12.387 18.0423 12.1609C18.2846 11.9348 18.6642 11.9479 18.8903 12.1902L20.3958 13.8031C20.6109 14.0336 20.6109 14.3914 20.3958 14.6219L18.8903 16.2348C18.6642 16.4771 18.2846 16.4901 18.0423 16.264C17.8001 16.0379 17.787 15.6583 18.0131 15.416L18.5761 14.8129H17.2261Z"
		fill="#909090"/>
</svg>
