<svg width="24" height="25" viewBox="0 0 24 25" fill="none" xmlns="http://www.w3.org/2000/svg">
	<path fill-rule="evenodd" clip-rule="evenodd" d="M12.14 5.76044L8 8.60044H5.5C4.67 8.60044 4 9.27044 4 10.1004V14.9704C4 15.8004 4.67 16.4704 5.5 16.4704H8.01L12.16 19.2604C13.16 19.9304 14.5 19.2104 14.5 18.0104V7.00044C14.5 5.79044 13.15 5.08044 12.15 5.76044H12.14ZM13.29 18.0204C13.29 18.2604 13.02 18.4004 12.82 18.2704L8.52 15.3804C8.42 15.3104 8.3 15.2804 8.19 15.2804H5.5C5.33 15.2804 5.2 15.1504 5.2 14.9804V10.1104C5.2 9.94044 5.33 9.81044 5.5 9.81044H8.19C8.31 9.81044 8.43 9.77044 8.53 9.71044L12.83 6.77044C13.03 6.63044 13.3 6.77044 13.3 7.02044V18.0304L13.29 18.0204ZM19.2401 12.54L20.8201 10.96C21.0501 10.73 21.0501 10.35 20.8201 10.11C20.5901 9.88 20.2101 9.88 19.9701 10.11L18.3901 11.69L16.8101 10.11C16.5801 9.88 16.2001 9.88 15.9601 10.11C15.7301 10.34 15.7301 10.72 15.9601 10.96L17.5401 12.54L15.9601 14.12C15.7301 14.35 15.7301 14.73 15.9601 14.97C16.1901 15.21 16.5701 15.2 16.8101 14.97L18.3901 13.39L19.9701 14.97C20.2001 15.2 20.5801 15.2 20.8201 14.97C21.0601 14.74 21.0501 14.36 20.8201 14.12L19.2401 12.54Z" fill="#909090"/>
</svg>