<svg width="24" height="25" viewBox="0 0 24 25" fill="none" xmlns="http://www.w3.org/2000/svg">
	<path fill-rule="evenodd" clip-rule="evenodd" d="M7.6 6.7H9.4C9.62091 6.7 9.8 6.87909 9.8 7.1V17.9C9.8 18.1209 9.62091 18.3 9.4 18.3H7.6C7.37909 18.3 7.2 18.1209 7.2 17.9V7.1C7.2 6.87909 7.37909 6.7 7.6 6.7ZM9.4 5.5H7.6C6.71634 5.5 6 6.21635 6 7.1V17.9C6 18.7837 6.71634 19.5 7.6 19.5H9.4C10.2837 19.5 11 18.7837 11 17.9V7.1C11 6.21634 10.2837 5.5 9.4 5.5ZM14.6 6.7H16.4C16.6209 6.7 16.8 6.87909 16.8 7.1V17.9C16.8 18.1209 16.6209 18.3 16.4 18.3H14.6C14.3791 18.3 14.2 18.1209 14.2 17.9V7.1C14.2 6.87909 14.3791 6.7 14.6 6.7ZM16.4 5.5H14.6C13.7163 5.5 13 6.21635 13 7.1V17.9C13 18.7837 13.7163 19.5 14.6 19.5H16.4C17.2837 19.5 18 18.7837 18 17.9V7.1C18 6.21634 17.2837 5.5 16.4 5.5Z" fill="#909090"/>
</svg>