<svg width="24" height="25" viewBox="0 0 24 25" fill="none" xmlns="http://www.w3.org/2000/svg">
	<path fill-rule="evenodd" clip-rule="evenodd" d="M10.6245 6.12948C10.7269 6.0541 10.9428 5.93864 11.2327 5.84255C11.5187 5.74774 11.792 5.7 11.992 5.7C12.9043 5.7 13.4908 6.05917 13.8751 6.56237C14.2875 7.10245 14.5185 7.886 14.4981 8.74037C14.4776 9.59369 14.2083 10.4007 13.7674 10.9663C13.3481 11.5042 12.7709 11.8382 11.992 11.8382C10.7585 11.8382 9.89474 10.9676 9.59772 9.61444C9.29102 8.21724 9.71867 6.79625 10.6245 6.12948ZM11.992 13.0382C8.04683 13.0382 7.11981 7.21928 9.91307 5.16308C10.3769 4.82165 11.2684 4.5 11.992 4.5C17.1374 4.5 16.7285 13.0382 11.992 13.0382ZM12 14.0367C10.4642 14.0367 8.77481 14.2849 7.4153 15.0796C6.019 15.8958 5.01482 17.2658 4.86865 19.3699C4.82365 20.0176 5.35224 20.5129 5.9502 20.5129H18.0499C18.6478 20.5129 19.1764 20.0176 19.1314 19.3699C18.9853 17.2658 17.9811 15.8958 16.5848 15.0796C15.2253 14.2849 13.5359 14.0367 12 14.0367ZM17.923 19.3129H6.07712C6.22721 17.6969 6.9894 16.7186 8.02088 16.1156C9.11863 15.4739 10.5635 15.2367 12 15.2367C13.4366 15.2367 14.8814 15.4739 15.9792 16.1156C17.0107 16.7186 17.7729 17.6969 17.923 19.3129Z" fill="#909090"/>
</svg>