<svg width="24" height="25" viewBox="0 0 24 25" fill="none" xmlns="http://www.w3.org/2000/svg">
	<path fill-rule="evenodd" clip-rule="evenodd" d="M14.2265 6.24482C14.4204 6.05055 14.6763 6.07129 14.8078 6.19097L18.2982 9.68865C18.4273 9.81875 18.4551 10.0866 18.2541 10.2877C18.0537 10.4883 17.7889 10.4588 17.6606 10.3299L16.4547 9.1207L11.1402 16.1073L12.2019 17.1719C12.3186 17.3063 12.3354 17.562 12.1436 17.7543C11.9523 17.9461 11.6999 17.9287 11.5671 17.8127L6.69153 12.9261C6.57132 12.7928 6.55142 12.5337 6.74586 12.3388C6.93971 12.1446 7.19555 12.1653 7.32707 12.2849L8.39401 13.3548L15.3629 8.02597L14.1723 6.83211C14.052 6.69887 14.0321 6.43967 14.2265 6.24482ZM15.6378 5.32423C14.9888 4.70905 13.9862 4.78689 13.3771 5.39715C12.7688 6.00676 12.6909 7.00933 13.3028 7.65931L13.3087 7.66561L13.5466 7.90416L8.5008 11.7625L8.16325 11.424L8.15714 11.4182C7.50817 10.8031 6.5055 10.8809 5.89647 11.4912C5.28809 12.1008 5.21025 13.1033 5.82213 13.7533L5.82812 13.7597L7.85752 15.794L4.57576 19.0757C4.34145 19.3101 4.34145 19.6899 4.57576 19.9243C4.81007 20.1586 5.18997 20.1586 5.42429 19.9243L8.7043 16.6443L10.7371 18.6798L10.7458 18.6878C11.3966 19.2899 12.3892 19.2074 12.9933 18.6017C13.5967 17.9966 13.6784 17.0041 13.0791 16.3528L13.0709 16.3439L12.7288 16.0009L16.5767 10.9424L16.8108 11.1771C17.4546 11.8239 18.4819 11.7574 19.1029 11.136C19.7232 10.5152 19.7907 9.48728 19.1479 8.84135L15.6439 5.32996L15.6378 5.32423Z" fill="#909090"/>
</svg>