<svg width="24" height="24" viewBox="0 0 24 24" fill="none" xmlns="http://www.w3.org/2000/svg">
	<path
		d="M11.9899 4C10.4599 4 9.02991 4.43 7.80991 5.17C7.52991 5.34 7.43991 5.71 7.60991 5.99C7.77991 6.27 8.14991 6.36 8.42991 6.19C9.45991 5.56 10.6799 5.2 11.9799 5.2C15.7499 5.2 18.8099 8.26 18.8099 12.02C18.8099 15.78 15.7499 18.85 11.9799 18.85C10.6799 18.85 9.45991 18.49 8.42991 17.86C8.14991 17.69 7.77991 17.78 7.60991 18.06C7.43991 18.34 7.52991 18.71 7.80991 18.88C9.02991 19.62 10.4599 20.05 11.9899 20.05C16.4199 20.05 20.0199 16.46 20.0199 12.02C20.0199 7.58 16.4299 4 11.9899 4Z"
		fill="#333333"/>
	<path
		d="M11.9998 15.83C11.4698 15.83 10.9698 15.72 10.5098 15.53C10.2098 15.4 9.84983 15.54 9.71983 15.85C9.58983 16.15 9.72983 16.51 10.0398 16.64C10.6398 16.9 11.2998 17.04 11.9998 17.04C14.7598 17.04 16.9998 14.8 16.9998 12.04C16.9998 9.28004 14.7598 7.04004 11.9998 7.04004C11.3098 7.04004 10.6398 7.18004 10.0398 7.44004C9.73983 7.57004 9.58983 7.92004 9.71983 8.23004C9.84983 8.53004 10.1998 8.68004 10.5098 8.55004C10.9698 8.36004 11.4698 8.25004 11.9998 8.25004C14.0998 8.25004 15.7998 9.95004 15.7998 12.05C15.7998 14.15 14.0998 15.85 11.9998 15.85V15.83Z"
		fill="#333333"/>
	<path
		d="M10.2 12.0304C10.2 12.1104 10.18 12.1904 10.15 12.2604V12.2704C10.12 12.3504 10.08 12.4104 10.02 12.4704L7.52 14.9704C7.28 15.2004 6.9 15.2104 6.67 14.9704C6.44 14.7304 6.44 14.3504 6.67 14.1204L8.15 12.6404H4.6C4.27 12.6404 4 12.3704 4 12.0404C4 11.7104 4.27 11.4404 4.6 11.4404H8.15L6.57 9.86039C6.34 9.62039 6.33 9.24039 6.57 9.01039C6.81 8.78039 7.19 8.78039 7.42 9.01039L10.02 11.6104C10.08 11.6604 10.12 11.7304 10.15 11.8004C10.18 11.8704 10.2 11.9504 10.2 12.0304Z"
		fill="#333333"/>
</svg>
