<svg width="24" height="25" viewBox="0 0 24 25" fill="none" xmlns="http://www.w3.org/2000/svg">
	<path fill-rule="evenodd" clip-rule="evenodd" d="M18.57 7.26973H15.94L15.55 5.50973C15.29 4.31973 14.23 3.46973 13.01 3.46973H11.1C9.86 3.46973 8.79 4.33973 8.55 5.55973L8.21 7.27973H5.6C5.27 7.27973 5 7.54973 5 7.87973C5 8.20973 5.27 8.47973 5.6 8.47973H18.57C18.9 8.47973 19.17 8.20973 19.17 7.87973C19.17 7.54973 18.9 7.27973 18.57 7.27973V7.26973ZM9.46 7.13973L9.73 5.78973C9.86 5.13973 10.44 4.66973 11.1 4.66973H13.01C13.67 4.66973 14.24 5.12973 14.38 5.76973L14.68 7.14973H9.46V7.13973ZM10.9598 17.5703C10.9598 17.9003 10.6898 18.1703 10.3598 18.1703C10.0298 18.1703 9.75977 17.9003 9.75977 17.5703V13.1703C9.75977 12.8403 10.0298 12.5703 10.3598 12.5703C10.6898 12.5703 10.9598 12.8403 10.9598 13.1703V17.5703ZM14.1902 17.5703C14.1902 17.9003 13.9202 18.1703 13.5902 18.1703C13.2602 18.1703 12.9902 17.9003 12.9902 17.5703V13.1703C12.9902 12.8403 13.2602 12.5703 13.5902 12.5703C13.9202 12.5703 14.1902 12.8403 14.1902 13.1703V17.5703ZM17.4602 9.5H6.45023C5.84023 9.5 5.38023 10.03 5.46023 10.63L6.67023 19.65C6.80023 20.64 7.65023 21.38 8.65023 21.38H15.1502C16.1402 21.38 16.9902 20.65 17.1302 19.67L18.4502 10.64C18.5402 10.04 18.0702 9.5 17.4602 9.5ZM15.9402 19.5C15.8802 19.89 15.5502 20.18 15.1502 20.18H8.65023C8.25023 20.18 7.91023 19.88 7.86023 19.49L6.68023 10.7H17.2302L15.9502 19.5H15.9402Z" fill="#FF5752"/>
</svg>