<svg width="24" height="25" viewBox="0 0 24 25" fill="none" xmlns="http://www.w3.org/2000/svg">
	<path fill-rule="evenodd" clip-rule="evenodd" d="M12.8882 4.26075C12.3132 4.19938 11.7215 4.19697 11.1194 4.25928C10.5089 4.32246 10.0445 4.7658 9.88435 5.30933L9.73517 5.81545C9.70217 5.92739 9.60559 6.04159 9.44674 6.11049C9.40115 6.13026 9.35572 6.15061 9.31047 6.17153C9.14954 6.24593 8.99381 6.23691 8.886 6.17819L8.49246 5.96382C7.98662 5.68829 7.33589 5.71017 6.85916 6.10698C6.40609 6.4841 5.98412 6.90606 5.60699 7.35911C5.21014 7.83584 5.18826 8.48659 5.4638 8.99245L5.67801 9.38572C5.73674 9.49354 5.74575 9.6493 5.67132 9.81023C5.65033 9.85562 5.6299 9.90119 5.61007 9.94693C5.54117 10.1057 5.42699 10.2023 5.31506 10.2353L4.80909 10.3844C4.26556 10.5446 3.82221 11.009 3.75903 11.6195C3.69674 12.2215 3.69913 12.8131 3.76048 13.3881C3.82538 13.9964 4.26872 14.4558 4.80797 14.6148L5.30853 14.7623C5.42299 14.7961 5.53604 14.8944 5.59873 15.0515C5.62148 15.1085 5.64496 15.1651 5.66917 15.2213C5.73606 15.3767 5.72572 15.5262 5.6686 15.6311L5.41929 16.0888C5.1504 16.5824 5.16179 17.2205 5.54556 17.6966C5.91849 18.1592 6.34012 18.5809 6.80269 18.9539C7.27876 19.3378 7.91691 19.3492 8.41063 19.0803L8.86818 18.8311C8.97306 18.7739 9.12262 18.7636 9.27799 18.8305C9.33432 18.8548 9.39103 18.8783 9.44813 18.9011C9.60521 18.9638 9.70355 19.0768 9.73728 19.1913L9.88492 19.6922C10.0439 20.2314 10.5032 20.6747 11.1115 20.7397C11.6863 20.801 12.2778 20.8035 12.8796 20.7413C13.4902 20.6782 13.9546 20.2348 14.1149 19.6912L14.2571 19.2086C14.2912 19.093 14.3913 18.9788 14.5513 18.9164C14.6148 18.8917 14.6778 18.866 14.7403 18.8395C14.8959 18.7734 15.045 18.784 15.1493 18.8409L15.6177 19.096C16.1103 19.3643 16.7476 19.3539 17.2236 18.9707C17.6828 18.6011 18.1011 18.1827 18.4707 17.7235C18.8538 17.2475 18.8643 16.6103 18.5959 16.1177L18.3406 15.649C18.2838 15.5446 18.2731 15.3956 18.3392 15.2401C18.3657 15.1777 18.3913 15.1148 18.416 15.0515C18.4783 14.8914 18.5926 14.7913 18.7082 14.7572L19.191 14.6149C19.7346 14.4547 20.178 13.9903 20.2411 13.3796C20.3032 12.7778 20.3008 12.1862 20.2394 11.6114C20.1744 11.0031 19.7311 10.5438 19.1919 10.3849L18.6903 10.237C18.5759 10.2033 18.4629 10.105 18.4002 9.94793C18.3775 9.89119 18.3541 9.83482 18.33 9.77884C18.2631 9.62348 18.2734 9.47392 18.3306 9.36905L18.5801 8.91094C18.849 8.41723 18.8376 7.77909 18.4537 7.30303C18.0807 6.84039 17.6589 6.4187 17.1962 6.04572C16.7202 5.66197 16.0821 5.65058 15.5885 5.91947L15.1302 6.16907C15.0254 6.22619 14.8758 6.23653 14.7205 6.16965C14.6646 6.14559 14.6083 6.12225 14.5517 6.09963C14.3946 6.03693 14.2963 5.92389 14.2626 5.80945L14.1148 5.30824C13.9559 4.769 13.4965 4.32567 12.8882 4.26075ZM11.2365 5.39102C11.7594 5.33691 12.2714 5.33917 12.7674 5.39211C12.87 5.40305 12.9803 5.48342 13.0235 5.62992L13.1712 6.13113C13.3172 6.6266 13.6964 6.98327 14.1298 7.15633C14.1771 7.17518 14.224 7.19465 14.2706 7.21471C14.6997 7.39946 15.2205 7.41552 15.6745 7.16824L16.1327 6.91864C16.2668 6.84562 16.4017 6.86671 16.4822 6.93154C16.8817 7.25359 17.2459 7.61775 17.568 8.01722C17.6329 8.09764 17.654 8.23262 17.5809 8.36669L17.3314 8.8248C17.0841 9.27882 17.1002 9.79965 17.285 10.2288C17.3051 10.2755 17.3246 10.3225 17.3435 10.3698C17.5165 10.8033 17.8732 11.1824 18.3687 11.3284L18.8702 11.4762C19.0167 11.5194 19.0971 11.6297 19.108 11.7322C19.161 12.2281 19.1633 12.7399 19.1093 13.2627C19.0984 13.3683 19.0163 13.4802 18.8693 13.5236L18.3865 13.6659C17.8853 13.8136 17.5268 14.1994 17.3558 14.6385C17.3353 14.6911 17.314 14.7434 17.292 14.7953C17.1103 15.223 17.0952 15.7411 17.3415 16.1932L17.5968 16.6619C17.6697 16.7959 17.6486 16.9303 17.5844 17.0101C17.266 17.4057 16.9057 17.766 16.5101 18.0844C16.4303 18.1486 16.2959 18.1698 16.1619 18.0968L15.6936 17.8417C15.2414 17.5954 14.7231 17.6106 14.2954 17.7923C14.2434 17.8144 14.191 17.8357 14.1383 17.8563C13.6992 18.0273 13.3134 18.3858 13.1657 18.8869L13.0235 19.3695C12.9802 19.5166 12.8682 19.5986 12.7626 19.6095C12.2399 19.6635 11.7281 19.6612 11.2323 19.6083C11.1298 19.5973 11.0195 19.517 10.9763 19.3705L10.8287 18.8696C10.6826 18.3741 10.3034 18.0174 9.86989 17.8443C9.82229 17.8253 9.77499 17.8057 9.72802 17.7855C9.29883 17.6007 8.77797 17.5846 8.32393 17.8319L7.86637 18.0811C7.7323 18.1541 7.59732 18.133 7.5169 18.0682C7.11749 17.7461 6.75338 17.3819 6.43137 16.9825C6.36654 16.9021 6.34545 16.7671 6.41846 16.633L6.66777 16.1754C6.91506 15.7214 6.89899 15.2006 6.71422 14.7714C6.69403 14.7245 6.67444 14.6773 6.65548 14.6298C6.48246 14.1962 6.12575 13.817 5.63021 13.6709L5.12965 13.5234C4.98315 13.4802 4.90278 13.3699 4.89184 13.2674C4.83893 12.7714 4.83667 12.2595 4.89078 11.7366C4.9017 11.631 4.98374 11.5191 5.13077 11.4758L5.63674 11.3267C6.12429 11.183 6.47406 10.8142 6.65388 10.3997C6.67006 10.3624 6.68678 10.3251 6.70401 10.2878C6.90594 9.85124 6.93337 9.31178 6.67719 8.84147L6.46297 8.4482C6.38897 8.31234 6.41078 8.17194 6.48145 8.08704C6.81429 7.68719 7.1872 7.31429 7.58706 6.98146C7.67196 6.9108 7.81235 6.88899 7.94821 6.963L8.34175 7.17736C8.812 7.4335 9.35136 7.40612 9.78792 7.2043C9.82506 7.18712 9.86224 7.17047 9.89943 7.15434C10.314 6.97454 10.6828 6.62474 10.8265 6.13713L10.9757 5.631C11.019 5.48398 11.131 5.40194 11.2365 5.39102ZM15.6738 13.3161C16.2505 10.6052 13.8871 8.24259 11.1768 8.81947C9.83398 9.10525 8.60489 10.3344 8.31916 11.6773C7.74253 14.3875 10.1049 16.7506 12.8157 16.1741C14.246 15.8699 15.3696 14.7463 15.6738 13.3161ZM11.4137 9.93232C13.3182 9.52696 14.9661 11.1743 14.5609 13.0794C14.3501 14.0702 13.5698 14.8505 12.5791 15.0612C10.6741 15.4663 9.02683 13.8185 9.43204 11.914C9.62534 11.0056 10.5052 10.1257 11.4137 9.93232Z" fill="#909090"/>
</svg>