<svg width="24" height="25" viewBox="0 0 24 25" fill="none" xmlns="http://www.w3.org/2000/svg">
	<path fill-rule="evenodd" clip-rule="evenodd" d="M8.30874 7.66474C8.07443 7.43043 8.07443 7.05053 8.30874 6.81622L11.5763 3.54864C11.8106 3.31432 12.1908 3.31461 12.4251 3.54893L15.6924 6.81622C15.9267 7.05053 15.9267 7.43043 15.6924 7.66474C15.4581 7.89906 15.0782 7.89906 14.8439 7.66474L12.6001 5.42094V13.6125C12.6001 13.9439 12.3315 14.2126 12.0001 14.2126C11.6687 14.2126 11.4001 13.9439 11.4001 13.6125V5.42192L9.15727 7.66474C8.92296 7.89906 8.54306 7.89906 8.30874 7.66474ZM8 8.89517H6.62783C5.19189 8.89517 4.02783 10.0592 4.02783 11.4952V17.898C4.02783 19.3339 5.19189 20.498 6.62783 20.498H17.372C18.8079 20.498 19.972 19.3339 19.972 17.898V11.4952C19.972 10.0592 18.8079 8.89517 17.372 8.89517H16V10.0952H17.372C18.1452 10.0952 18.772 10.722 18.772 11.4952V17.898C18.772 18.6712 18.1452 19.298 17.372 19.298H6.62783C5.85463 19.298 5.22783 18.6712 5.22783 17.898V11.4952C5.22783 10.722 5.85463 10.0952 6.62783 10.0952H8V8.89517Z" fill="#909090"/>
</svg>