<svg width="24" height="25" viewBox="0 0 24 25" fill="none" xmlns="http://www.w3.org/2000/svg">
	<path fill-rule="evenodd" clip-rule="evenodd" d="M6.2598 6.03969C6.0298 5.80969 5.6498 5.80969 5.4098 6.03969C5.1698 6.26969 5.1798 6.64969 5.4098 6.88969L6.7598 8.23969C5.49711 9.14326 4.31764 10.3451 3.4898 11.6697C3.3598 11.8897 3.2298 12.1797 3.2298 12.5397C3.2298 12.8997 3.3598 13.1797 3.4898 13.3997C3.56877 13.5401 3.67432 13.6822 3.76059 13.7984L3.76059 13.7984L3.76061 13.7984C3.80374 13.8565 3.84205 13.9081 3.8698 13.9497C5.8098 16.6097 8.5498 18.6197 11.9198 18.5297C13.4298 18.5697 14.7898 18.1797 16.0198 17.4997L17.3998 18.8797C17.6298 19.1097 18.0098 19.1097 18.2498 18.8797C18.4798 18.6497 18.4798 18.2697 18.2498 18.0297L6.2598 6.03969ZM10.3198 11.7997L12.5998 14.0797C12.3598 14.2097 12.0898 14.2997 11.7998 14.2997C10.8598 14.2997 10.0998 13.5397 10.0998 12.5997C10.0998 12.3097 10.1898 12.0397 10.3198 11.7997ZM11.9498 17.3397H11.9198C9.0898 17.4197 6.6698 15.7397 4.8598 13.2597C4.82086 13.2013 4.77069 13.1407 4.71866 13.0778L4.71866 13.0778C4.58533 12.9167 4.4398 12.7408 4.4398 12.5497C4.4398 12.3161 4.66289 12.0523 4.81802 11.8688L4.85727 11.8222C5.33722 11.2483 6.5998 9.82969 7.6298 9.11969L9.4498 10.9397C9.1098 11.4097 8.8998 11.9797 8.8998 12.6097C8.8998 14.2097 10.1998 15.5097 11.7998 15.5097C12.4298 15.5097 12.9898 15.2897 13.4698 14.9597L15.1498 16.6397C14.1698 17.1297 13.1098 17.3897 11.9498 17.3497V17.3397ZM20.0098 11.2097C19.9998 11.1947 19.9898 11.1822 19.9798 11.1697L19.9798 11.1697C19.9698 11.1572 19.9598 11.1447 19.9498 11.1297C17.8998 8.56969 15.3198 6.46969 11.9298 6.54969C11.3898 6.53969 10.7798 6.57969 10.2698 6.66969C9.9398 6.72969 9.7298 7.03969 9.7798 7.36969C9.8298 7.69969 10.1498 7.90969 10.4798 7.85969C10.9098 7.77969 11.4498 7.73969 11.9198 7.75969H11.9498C14.7698 7.67969 17.0398 9.40969 18.9998 11.8797C19.0298 11.9197 19.0598 11.9597 19.0898 11.9897C19.1898 12.1097 19.2598 12.1997 19.3298 12.2997C19.4098 12.4197 19.4198 12.4897 19.4198 12.5297C19.4198 12.5797 19.3998 12.6497 19.3298 12.7697C19.2698 12.8697 19.1898 12.9697 19.0998 13.0797L19.0998 13.0797C19.0698 13.1197 19.0398 13.1597 18.9998 13.1997C18.5698 13.7497 18.1198 14.2697 17.6498 14.7397C17.4198 14.9697 17.4098 15.3497 17.6498 15.5897C17.8798 15.8197 18.2598 15.8297 18.4998 15.5897C19.0098 15.0797 19.4898 14.5197 19.9498 13.9297C19.9698 13.8997 19.9898 13.8797 20.0198 13.8497C20.0389 13.8248 20.0591 13.7989 20.0801 13.772L20.0804 13.7716L20.0806 13.7714C20.1691 13.6577 20.271 13.5269 20.3598 13.3897C20.4898 13.1697 20.6298 12.8797 20.6298 12.5197C20.6298 12.1597 20.4898 11.8697 20.3598 11.6497C20.3589 11.6514 20.2746 11.5443 20.1879 11.4341L20.1878 11.434C20.1126 11.3385 20.0356 11.2407 20.0098 11.2097ZM11.8398 9.55969H11.9198C13.5198 9.55969 14.8198 10.8597 14.8198 12.4597V12.5397L11.8398 9.55969Z" fill="#909090"/>
</svg>