<svg width="24" height="24" viewBox="0 0 24 24" fill="none" xmlns="http://www.w3.org/2000/svg">
	<path d="M15.6425 4.83687L19.1425 8.33687L19.1525 8.35687C19.8025 8.99687 19.7325 10.0269 19.1125 10.6469C18.4925 11.2669 17.4625 11.3369 16.8225 10.6869L16.5925 10.4569L15.0825 12.4369L14.2225 11.5769L16.0425 9.17687C16.1525 9.03687 16.3125 8.94687 16.4825 8.93687C16.6525 8.91687 16.8225 8.98687 16.9425 9.10687L17.6625 9.82687C17.7825 9.95687 18.0525 9.98687 18.2525 9.78687C18.4525 9.58687 18.4225 9.31687 18.2925 9.18687L14.8025 5.68687C14.6725 5.56687 14.4125 5.54687 14.2225 5.73687C14.0325 5.93687 14.0525 6.19687 14.1725 6.32687L14.8825 7.03687C15.0025 7.15687 15.0625 7.32687 15.0525 7.49687C15.0425 7.67687 14.9625 7.83687 14.8225 7.93687L12.4225 9.76687L11.5625 8.90687L13.5425 7.39687L13.3125 7.15687H13.3025C12.6825 6.50687 12.7625 5.50687 13.3725 4.89687C13.9825 4.28687 14.9825 4.20687 15.6325 4.83687H15.6425Z" fill="#333333"/>
	<path fill-rule="evenodd" clip-rule="evenodd" d="M6.4224 6.49672C6.6624 6.26672 7.0424 6.26672 7.2724 6.49672L16.8924 16.1067C17.1224 16.3467 17.1224 16.7267 16.8924 16.9567C16.6524 17.1867 16.2724 17.1867 16.0424 16.9567L13.5424 14.4567L12.7424 15.5067L13.0924 15.8567C13.6924 16.5067 13.6024 17.4967 13.0024 18.1067C12.3924 18.7167 11.4024 18.7967 10.7524 18.1967L8.7024 16.1467L5.4224 19.4267C5.1824 19.6567 4.8024 19.6667 4.5724 19.4267C4.3424 19.1867 4.3424 18.8067 4.5724 18.5767L7.8524 15.2867L7.5124 14.9467L5.8324 13.2467H5.8224C5.2024 12.5967 5.2824 11.5967 5.8924 10.9867C6.5024 10.3767 7.5024 10.2967 8.1524 10.9267H8.1624L8.4924 11.2567L9.5324 10.4567L6.4224 7.34672C6.1924 7.10672 6.1824 6.72672 6.4224 6.49672ZM12.1924 16.6667L11.5024 15.9767H11.4924C11.2824 15.7567 11.2624 15.4267 11.4424 15.1867L12.6524 13.5867L10.3824 11.3167L8.7924 12.5267C8.5524 12.7167 8.2124 12.6867 8.0024 12.4767L7.3024 11.7767C7.1724 11.6567 6.9124 11.6367 6.7224 11.8267C6.5324 12.0267 6.5524 12.2867 6.6724 12.4167L8.3524 14.0967L9.8424 15.5967L11.5524 17.3067C11.6924 17.4167 11.9424 17.4367 12.1324 17.2467C12.3224 17.0567 12.3124 16.7967 12.1924 16.6667Z" fill="#333333"/>
</svg>