<svg width="172" height="172" viewBox="0 0 172 172" fill="none" xmlns="http://www.w3.org/2000/svg">
	<path d="M50.7812 83.5554C50.7812 79.3039 54.2278 75.8574 58.4792 75.8574H132.98C137.232 75.8574 140.678 79.3039 140.678 83.5554V127.41C140.678 131.661 137.232 135.108 132.98 135.108H58.4792C54.2278 135.108 50.7812 131.661 50.7812 127.41V83.5554Z" fill="white"/>
	<path fill-rule="evenodd" clip-rule="evenodd" d="M132.98 77.7105H58.4792C55.2512 77.7105 52.6343 80.3273 52.6343 83.5554V127.41C52.6343 130.638 55.2512 133.255 58.4792 133.255H132.98C136.208 133.255 138.825 130.638 138.825 127.41V83.5554C138.825 80.3273 136.208 77.7105 132.98 77.7105ZM58.4792 75.8574C54.2278 75.8574 50.7812 79.3039 50.7812 83.5554V127.41C50.7812 131.661 54.2278 135.108 58.4792 135.108H132.98C137.232 135.108 140.678 131.661 140.678 127.41V83.5554C140.678 79.3039 137.232 75.8574 132.98 75.8574H58.4792Z" fill="#DFE0E3"/>
	<rect x="51.6133" y="115.396" width="88.0202" height="10.1918" fill="#DFE0E3"/>
	<g filter="url(#filter0_d_13783_69162)">
		<path d="M92.398 29.3152L41.6447 45.6121C39.6992 46.2368 38.334 47.9881 38.2028 50.0271C38.0186 52.8928 40.2932 55.3184 43.1648 55.3184H91.6013C96.7183 55.3184 100.867 51.1702 100.867 46.0531V35.4904C100.867 31.0937 96.5843 27.971 92.398 29.3152Z" fill="#F1FBD0"/>
	</g>
	<path fill-rule="evenodd" clip-rule="evenodd" d="M93.3611 32.3146L42.6077 48.6115C41.8949 48.8404 41.3946 49.4821 41.3465 50.2293C41.279 51.2794 42.1125 52.1682 43.1648 52.1682H91.6013C94.9785 52.1682 97.7163 49.4304 97.7163 46.0531V35.4904C97.7163 33.2292 95.514 31.6233 93.3611 32.3146ZM41.6447 45.6121L92.398 29.3152C96.5843 27.971 100.867 31.0937 100.867 35.4904V46.0531C100.867 51.1702 96.7183 55.3184 91.6013 55.3184H43.1648C40.2932 55.3184 38.0186 52.8928 38.2028 50.0271C38.334 47.9881 39.6992 46.2368 41.6447 45.6121Z" fill="#BBED21"/>
	<g filter="url(#filter1_d_13783_69162)">
		<path d="M30.4502 55.318C30.4502 50.2009 34.5984 46.0527 39.7155 46.0527H111.985C117.102 46.0527 121.25 50.2009 121.25 55.318V98.8649C121.25 103.982 117.102 108.13 111.985 108.13H39.7155C34.5984 108.13 30.4502 103.982 30.4502 98.8649V55.318Z" fill="#F1FBD0"/>
	</g>
	<path fill-rule="evenodd" clip-rule="evenodd" d="M111.985 49.2029H39.7155C36.3382 49.2029 33.6004 51.9407 33.6004 55.318V98.8649C33.6004 102.242 36.3382 104.98 39.7155 104.98H111.985C115.362 104.98 118.1 102.242 118.1 98.8649V55.318C118.1 51.9407 115.362 49.2029 111.985 49.2029ZM39.7155 46.0527C34.5984 46.0527 30.4502 50.2009 30.4502 55.318V98.8649C30.4502 103.982 34.5984 108.13 39.7155 108.13H111.985C117.102 108.13 121.25 103.982 121.25 98.8649V55.318C121.25 50.2009 117.102 46.0527 111.985 46.0527H39.7155Z" fill="#BBED21"/>
	<path d="M108.279 77.0913C108.279 79.3939 106.205 81.2606 103.646 81.2606C101.088 81.2606 99.0137 79.3939 99.0137 77.0913C99.0137 74.7886 101.088 72.9219 103.646 72.9219C106.205 72.9219 108.279 74.7886 108.279 77.0913Z" fill="#9DCF00"/>
	<defs>
		<filter id="filter0_d_13783_69162" x="34.1924" y="27" width="70.6738" height="34.3184" filterUnits="userSpaceOnUse" color-interpolation-filters="sRGB">
			<feFlood flood-opacity="0" result="BackgroundImageFix"/>
			<feColorMatrix in="SourceAlpha" type="matrix" values="0 0 0 0 0 0 0 0 0 0 0 0 0 0 0 0 0 0 127 0" result="hardAlpha"/>
			<feOffset dy="2"/>
			<feGaussianBlur stdDeviation="2"/>
			<feComposite in2="hardAlpha" operator="out"/>
			<feColorMatrix type="matrix" values="0 0 0 0 0 0 0 0 0 0.332159 0 0 0 0 0.433333 0 0 0 0.1 0"/>
			<feBlend mode="normal" in2="BackgroundImageFix" result="effect1_dropShadow_13783_69162"/>
			<feBlend mode="normal" in="SourceGraphic" in2="effect1_dropShadow_13783_69162" result="shape"/>
		</filter>
		<filter id="filter1_d_13783_69162" x="26.4502" y="44.0527" width="98.7998" height="70.0771" filterUnits="userSpaceOnUse" color-interpolation-filters="sRGB">
			<feFlood flood-opacity="0" result="BackgroundImageFix"/>
			<feColorMatrix in="SourceAlpha" type="matrix" values="0 0 0 0 0 0 0 0 0 0 0 0 0 0 0 0 0 0 127 0" result="hardAlpha"/>
			<feOffset dy="2"/>
			<feGaussianBlur stdDeviation="2"/>
			<feComposite in2="hardAlpha" operator="out"/>
			<feColorMatrix type="matrix" values="0 0 0 0 0 0 0 0 0 0.332159 0 0 0 0 0.433333 0 0 0 0.1 0"/>
			<feBlend mode="normal" in2="BackgroundImageFix" result="effect1_dropShadow_13783_69162"/>
			<feBlend mode="normal" in="SourceGraphic" in2="effect1_dropShadow_13783_69162" result="shape"/>
		</filter>
	</defs>
</svg>
