<svg width="108" height="108" viewBox="0 0 108 108" fill="none" xmlns="http://www.w3.org/2000/svg">
<g id="Graphic from Lib">
<g id="Vector">
<path d="M2 16.9538C2 8.8217 8.94979 2.41267 17.0848 3.04279L57.0848 6.14114C64.3741 6.70575 70 12.7655 70 20.0522V63.3327C70 70.8056 64.0925 76.9518 56.6014 77.2728L16.6014 78.9869C8.64075 79.328 2 72.9879 2 65.0467V16.9538Z" fill="#0075FF" fill-opacity="0.78"/>
<path d="M2.5 16.9538C2.5 9.11483 9.1999 2.93354 17.0462 3.5413L57.0462 6.63964C64.0765 7.1842 69.5 13.0281 69.5 20.0522V63.3327C69.5 70.5363 63.805 76.4637 56.58 76.7733L16.58 78.4873C8.90194 78.8163 2.5 72.7017 2.5 65.0467V16.9538Z" stroke="white" stroke-opacity="0.18"/>
</g>
<g id="Vector_2">
<path d="M57 63.9373C57 57.4266 62.3387 52.1401 68.9443 52.1099L92.9443 52.0001C99.5934 51.9697 105 57.2739 105 63.8275V89.937C105 96.0383 100.291 101.138 94.1285 101.712L70.1285 103.947C63.0866 104.602 57 99.143 57 92.1714V63.9373Z" fill="#1BCE7B" fill-opacity="0.78"/>
<path d="M57.5 63.9373C57.5 57.7086 62.6094 52.6389 68.9466 52.6099L92.9466 52.5001C99.3256 52.4709 104.5 57.5578 104.5 63.8275V89.937C104.5 95.7743 99.9938 100.664 94.0821 101.214L70.0821 103.449C63.3257 104.078 57.5 98.8408 57.5 92.1714V63.9373Z" stroke="white" stroke-opacity="0.18"/>
</g>
<g id="Vector_3" filter="url(#filter0_d_16230_101101)">
<path fill-rule="evenodd" clip-rule="evenodd" d="M94.5079 67.5582C95.164 68.3307 95.164 69.6155 94.5079 70.4347L79.3768 89.2829C78.6753 90.1568 77.5337 90.2452 76.8269 89.4753L69.5481 81.5506C68.8173 80.7548 68.8173 79.3998 69.5481 78.5233C70.2763 77.6494 71.4525 77.5896 72.1727 78.3854L78.1045 84.9161L92.1154 67.6362C92.7795 66.817 93.8491 66.7858 94.5079 67.5608V67.5582Z" fill="white" fill-opacity="0.9" shape-rendering="crispEdges"/>
</g>
<g id="Union">
<path fill-rule="evenodd" clip-rule="evenodd" d="M37.9405 56.4643C34.7341 56.8317 31.7202 55.5878 29.1381 53.1897L29.1353 53.1926C26.5339 50.7771 24.8427 47.6269 24.5595 43.9328C22.948 43.5683 20.2834 42.9145 17 41.9194C19.7527 34.2333 24.928 32.3414 28.1206 31.9509C28.6293 31.1611 29.1931 30.3656 29.8145 29.5614C37.242 19.9805 53.285 16.5728 55.1631 18.5313C57.0276 20.4752 56.0844 38.9254 49.1766 48.4166C48.6046 49.2034 48.0299 49.9266 47.4552 50.5891C47.5679 54.0141 46.7292 59.7476 40.7756 64C39.4529 60.7774 38.496 58.1016 37.9405 56.4643ZM40.9516 46.5652C39.1175 49.0356 35.8313 49.3538 33.6039 47.2421C31.3572 45.113 31.063 41.3495 32.9522 38.8675C34.8276 36.4029 38.1247 36.1656 40.3164 38.3034C42.4888 40.4267 42.7721 44.1092 40.9516 46.5652ZM42.5191 35.373C43.6768 36.5157 45.3955 36.3884 46.3579 35.0982C47.3177 33.8138 47.1692 31.8496 46.0252 30.7041C44.8758 29.5556 43.1543 29.6598 42.1808 30.9471C41.2019 32.2401 41.3559 34.2246 42.5191 35.373Z" fill="white" fill-opacity="0.9"/>
<path d="M27.3973 55.2118C28.8052 56.4557 30.3452 57.3727 31.9731 57.8876C26.6493 61.4602 22.1147 63.4852 21.397 62.8661C20.6765 62.2471 21.6912 57.1442 24.0369 50.8582C24.8344 52.5013 25.9811 53.9621 27.3973 55.2118Z" fill="white" fill-opacity="0.9"/>
</g>
</g>
<defs>
<filter id="filter0_d_16230_101101" x="59" y="61" width="46" height="43" filterUnits="userSpaceOnUse" color-interpolation-filters="sRGB">
<feFlood flood-opacity="0" result="BackgroundImageFix"/>
<feColorMatrix in="SourceAlpha" type="matrix" values="0 0 0 0 0 0 0 0 0 0 0 0 0 0 0 0 0 0 127 0" result="hardAlpha"/>
<feOffset dy="4"/>
<feGaussianBlur stdDeviation="5"/>
<feComposite in2="hardAlpha" operator="out"/>
<feColorMatrix type="matrix" values="0 0 0 0 0 0 0 0 0 0 0 0 0 0 0 0 0 0 0.05 0"/>
<feBlend mode="normal" in2="BackgroundImageFix" result="effect1_dropShadow_16230_101101"/>
<feBlend mode="normal" in="SourceGraphic" in2="effect1_dropShadow_16230_101101" result="shape"/>
</filter>
</defs>
</svg>
