<svg width="69" height="68" viewBox="0 0 69 68" fill="none" xmlns="http://www.w3.org/2000/svg">
<g clip-path="url(#clip0_9425_36787)">
<path d="M34.3278 53.261C34.3278 57.0944 31.437 60.3109 27.6253 60.7185L10.4386 62.5564C6.00615 63.0304 2.14111 59.5566 2.14111 55.0989V8.68757C2.14111 4.3021 5.8875 0.852217 10.2581 1.21299L27.4448 2.63166C31.3345 2.95273 34.3278 6.20332 34.3278 10.1062V53.261Z" fill="white" stroke="#DFE0E3"/>
<path opacity="0.77" fill-rule="evenodd" clip-rule="evenodd" d="M24.61 58.341C24.61 58.732 24.3136 59.0593 23.9245 59.0978L14.4096 60.04C13.9483 60.0857 13.5483 59.7234 13.5483 59.2599C13.5483 58.8553 13.8561 58.5172 14.2589 58.4793L23.7783 57.5839C24.2245 57.5419 24.61 57.8929 24.61 58.341Z" fill="#D0D0D0"/>
<path opacity="0.77" fill-rule="evenodd" clip-rule="evenodd" d="M22.9601 6.30407C22.9601 7.07171 22.312 7.67991 21.5459 7.63117L16.439 7.30628C15.7277 7.26102 15.1738 6.67085 15.1738 5.95802C15.1738 5.17371 15.8395 4.55424 16.6218 4.61052L21.7258 4.97772C22.4213 5.02777 22.9601 5.60668 22.9601 6.30407Z" fill="#D0D0D0"/>
<path fill-rule="evenodd" clip-rule="evenodd" d="M32.0312 48.9245C32.0312 50.4907 30.8264 51.7934 29.2649 51.9154L8.12067 53.5676C6.37701 53.7038 4.88696 52.3257 4.88696 50.5767V47.0754C4.88696 45.4757 6.14208 44.1575 7.7398 44.079L28.884 43.0406C30.5966 42.9564 32.0312 44.3223 32.0312 46.0369V48.9245Z" fill="#0075FF" fill-opacity="0.78"/>
<path d="M31.5312 48.9245C31.5312 50.2297 30.5272 51.3152 29.226 51.4169L8.08172 53.0691C6.62867 53.1827 5.38696 52.0342 5.38696 50.5767V47.0754C5.38696 45.7423 6.43289 44.6438 7.76433 44.5784L28.9086 43.5399C30.3357 43.4699 31.5312 44.6081 31.5312 46.0369V48.9245Z" stroke="white" stroke-opacity="0.18"/>
<g filter="url(#filter0_d_9425_36787)">
<path fill-rule="evenodd" clip-rule="evenodd" d="M10.824 48.5428C10.824 49.6349 10.2367 50.5591 9.50955 50.6106C8.78241 50.6621 8.18359 49.8111 8.18359 48.7107C8.18359 47.6102 8.77748 46.6844 9.50955 46.6428C10.2416 46.6013 10.824 47.4523 10.824 48.5444V48.5428Z" fill="white" fill-opacity="0.9" shape-rendering="crispEdges"/>
</g>
<g filter="url(#filter1_d_9425_36787)">
<path fill-rule="evenodd" clip-rule="evenodd" d="M17.3222 48.1902C17.3222 49.259 16.7579 50.1666 16.0604 50.2148C15.3596 50.263 14.7871 49.4286 14.7871 48.3514C14.7871 47.2743 15.358 46.3667 16.0604 46.3268C16.7629 46.2869 17.3222 47.1214 17.3222 48.1902Z" fill="white" fill-opacity="0.9" shape-rendering="crispEdges"/>
</g>
<g filter="url(#filter2_d_9425_36787)">
<path fill-rule="evenodd" clip-rule="evenodd" d="M23.5357 47.7798C23.5357 48.8287 22.9928 49.7163 22.3216 49.7628C21.6504 49.8094 21.0977 48.9916 21.0977 47.9344C21.0977 46.8772 21.6471 45.9895 22.3216 45.9496C22.9961 45.9097 23.5357 46.7309 23.5357 47.7798Z" fill="white" fill-opacity="0.7" shape-rendering="crispEdges"/>
</g>
<g filter="url(#filter3_d_9425_36787)">
<path fill-rule="evenodd" clip-rule="evenodd" d="M29.2821 47.3709C29.2821 48.3998 28.759 49.2709 28.1125 49.3157C27.4659 49.3606 26.9346 48.5561 26.9346 47.5188C26.9346 46.4816 27.4626 45.6106 28.1125 45.5724C28.7623 45.5341 29.2821 46.3403 29.2821 47.3692V47.3709Z" fill="white" fill-opacity="0.4" shape-rendering="crispEdges"/>
</g>
<g filter="url(#filter4_d_9425_36787)">
<path fill-rule="evenodd" clip-rule="evenodd" d="M10.824 34.9854C10.824 36.0775 10.2367 36.9785 9.50955 36.9984C8.78241 37.0184 8.18359 36.144 8.18359 35.0436C8.18359 33.9432 8.77748 33.0423 9.50955 33.0306C10.2416 33.019 10.824 33.895 10.824 34.9871V34.9854Z" fill="white" fill-opacity="0.4" shape-rendering="crispEdges"/>
</g>
<g filter="url(#filter5_d_9425_36787)">
<path fill-rule="evenodd" clip-rule="evenodd" d="M17.3222 34.904C17.3222 35.9728 16.7579 36.8571 16.0604 36.8754C15.3596 36.8953 14.7871 36.0376 14.7871 34.9588C14.7871 33.88 15.358 32.9974 16.0604 32.9874C16.7629 32.9774 17.3222 33.8351 17.3222 34.904Z" fill="white" fill-opacity="0.4" shape-rendering="crispEdges"/>
</g>
<g filter="url(#filter6_d_9425_36787)">
<path fill-rule="evenodd" clip-rule="evenodd" d="M23.5357 34.7527C23.5357 35.8015 22.9928 36.6676 22.3216 36.6858C21.6471 36.7041 21.0977 35.863 21.0977 34.8058C21.0977 33.7487 21.6471 32.8826 22.3216 32.8726C22.9928 32.8627 23.5357 33.7038 23.5357 34.7527Z" fill="white" fill-opacity="0.4" shape-rendering="crispEdges"/>
</g>
<g filter="url(#filter7_d_9425_36787)">
<path fill-rule="evenodd" clip-rule="evenodd" d="M29.2821 34.5832C29.2821 35.6122 28.759 36.4616 28.1125 36.4799C27.4659 36.4981 26.9346 35.672 26.9346 34.6348C26.9346 33.5975 27.4626 32.7481 28.1125 32.7381C28.759 32.7282 29.2821 33.5543 29.2821 34.5832Z" fill="white" fill-opacity="0.4" shape-rendering="crispEdges"/>
</g>
<path fill-rule="evenodd" clip-rule="evenodd" d="M63.1795 21.3492C63.1795 25.7517 59.6224 29.3268 55.22 29.3491L46.9333 29.3911C42.4993 29.4135 38.8928 25.8253 38.8928 21.3912V11.854C38.8928 7.17377 42.8928 3.49309 47.5569 3.88159L55.8436 4.57182C59.99 4.9172 63.1795 8.38339 63.1795 12.5442V21.3492Z" fill="#1BCE7B" fill-opacity="0.78"/>
<path d="M62.6795 21.3492C62.6795 25.4765 59.3448 28.8282 55.2175 28.8491L46.9308 28.8911C42.7739 28.9121 39.3928 25.5482 39.3928 21.3912V11.854C39.3928 7.46628 43.1428 4.01565 47.5154 4.37986L55.8021 5.0701C59.6894 5.39389 62.6795 8.64344 62.6795 12.5442V21.3492Z" stroke="white" stroke-opacity="0.18"/>
<path fill-rule="evenodd" clip-rule="evenodd" d="M63.1795 50.2461C63.1795 54.3321 60.1004 57.7615 56.038 58.1999L47.7513 59.0944C43.0207 59.605 38.8928 55.8986 38.8928 51.1406V41.6247C38.8928 37.2677 42.3795 33.7118 46.7357 33.6262L55.0224 33.4635C59.5013 33.3755 63.1795 36.9821 63.1795 41.4619V50.2461Z" fill="#1BCE7B" fill-opacity="0.78"/>
<path d="M62.6795 50.2461C62.6795 54.0768 59.7928 57.2918 55.9844 57.7028L47.6977 58.5973C43.2627 59.0759 39.3928 55.6012 39.3928 51.1406V41.6247C39.3928 37.54 42.6616 34.2064 46.7455 34.1261L55.0322 33.9634C59.2312 33.8809 62.6795 37.2621 62.6795 41.4619V50.2461Z" stroke="white" stroke-opacity="0.18"/>
</g>
<g filter="url(#filter8_d_9425_36787)">
<path fill-rule="evenodd" clip-rule="evenodd" d="M51.4121 23.7912C54.7699 23.695 57.4359 20.3824 57.4359 16.3904C57.4359 12.3985 54.7699 9.10131 51.4121 9.02686C47.9742 8.95242 45.1282 12.2666 45.1282 16.4307C45.1282 20.5948 47.9742 23.8905 51.4104 23.7927L51.4121 23.7912ZM48.0842 17.1767C47.9058 16.9875 47.9192 16.651 48.1109 16.4804L48.4844 16.1469C48.6061 16.0384 48.7695 16.0275 48.9012 16.1175L50.2366 17.0371C50.38 17.1364 50.5601 17.11 50.6801 16.9735L53.8029 13.4391C53.8813 13.3507 53.9896 13.3073 54.0963 13.3243L54.5682 13.3957C54.8583 13.4391 54.9917 13.8578 54.7999 14.1246L50.9052 19.5635C50.7685 19.7543 50.5284 19.776 50.3734 19.61L48.0826 17.1783L48.0842 17.1767Z" fill="white" fill-opacity="0.9" shape-rendering="crispEdges"/>
</g>
<g filter="url(#filter9_d_9425_36787)">
<path d="M54.6546 41.7936V40.7759C54.6546 39.6074 53.907 38.6854 52.9801 38.7168L46.0843 38.954C45.1055 38.987 44.3076 39.9969 44.3076 41.2078V46.6892C44.3076 47.9001 45.1055 48.8283 46.0843 48.7623L46.3123 48.7466V50.4366C46.3123 51.0193 46.8805 51.2674 47.2124 50.8308L48.265 49.4471V45.329C48.265 43.537 49.4283 42.0308 50.8513 41.9664L54.6562 41.7936H54.6546Z" fill="white" fill-opacity="0.9"/>
<path d="M56.9007 43.0783L51.2755 43.3595C50.3318 43.4066 49.5608 44.4102 49.5608 45.5991V49.8413C49.5608 51.0302 50.3301 51.9349 51.2755 51.8595L54.9295 51.5689L56.0257 53.2306C56.3174 53.6719 56.9041 53.3578 56.9041 52.7626V51.4119C57.8041 51.3381 58.5299 50.347 58.5299 49.1958V45.084C58.5299 43.9311 57.8025 43.0328 56.9007 43.0783Z" fill="white" fill-opacity="0.9"/>
</g>
<path opacity="0.77" fill-rule="evenodd" clip-rule="evenodd" d="M13.1026 14.7607C13.1026 16.4609 11.6939 17.8228 9.99473 17.7654L9.89089 17.7619C8.27032 17.7072 6.98486 16.3776 6.98486 14.7561C6.98486 13.0302 8.43428 11.6583 10.1576 11.7532L10.2613 11.7589C11.8551 11.8466 13.1026 13.1645 13.1026 14.7607ZM13.1026 24.5066C13.1026 26.1667 11.7576 27.5129 10.0975 27.5144L9.99653 27.5145C8.33368 27.516 6.98486 26.1685 6.98486 24.5056C6.98486 22.8199 8.36959 21.463 10.055 21.4973L10.1559 21.4994C11.7929 21.5327 13.1026 22.8693 13.1026 24.5066ZM10.2033 37.2915C11.8211 37.2331 13.1026 35.9047 13.1026 34.2857C13.1026 32.6078 11.7295 31.2543 10.0518 31.2784L9.95052 31.2798C8.3058 31.3034 6.98486 32.6434 6.98486 34.2883C6.98486 35.9925 8.39898 37.3566 10.1021 37.2951L10.2033 37.2915ZM24.7981 13.2903C24.7981 13.7227 24.4362 14.0672 24.0043 14.0458L16.51 13.6747C16.0961 13.6542 15.771 13.3126 15.771 12.8981C15.771 12.4518 16.1457 12.0971 16.5913 12.1217L24.0833 12.535C24.4843 12.5571 24.7981 12.8887 24.7981 13.2903ZM20.495 16.8864C20.9297 16.9031 21.2912 16.5552 21.2912 16.1202C21.2912 15.7098 20.9682 15.3722 20.5582 15.3541L16.5832 15.179C16.1405 15.1594 15.771 15.5131 15.771 15.9562C15.771 16.3742 16.1013 16.7175 16.519 16.7335L20.495 16.8864ZM23.6407 22.5434C23.6407 22.9668 23.2942 23.3084 22.8708 23.3023L16.5381 23.2112C16.1126 23.2051 15.771 22.8585 15.771 22.433C15.771 21.9969 16.1292 21.6459 16.5652 21.6548L22.8972 21.7846C23.3103 21.793 23.6407 22.1303 23.6407 22.5434ZM21.1042 26.2842C21.5275 26.2856 21.8714 25.9428 21.8714 25.5195C21.8714 25.0999 21.5333 24.7587 21.1138 24.7548L16.5566 24.7125C16.1239 24.7085 15.771 25.0582 15.771 25.4909C15.771 25.9199 16.1179 26.268 16.5469 26.2694L21.1042 26.2842ZM23.7239 31.9397C23.7239 32.3527 23.3936 32.6899 22.9807 32.6984L16.5653 32.8308C16.1293 32.8398 15.771 32.4888 15.771 32.0526C15.771 31.6272 16.1125 31.2806 16.5379 31.2744L22.9539 31.1808C23.3774 31.1746 23.7239 31.5162 23.7239 31.9397ZM19.0308 35.8103C19.447 35.7971 19.7776 35.4558 19.7776 35.0393C19.7776 34.6054 19.4199 34.2569 18.9861 34.2682L16.5289 34.3324C16.1071 34.3435 15.771 34.6885 15.771 35.1104C15.771 35.55 16.1347 35.9023 16.5739 35.8883L19.0308 35.8103Z" fill="#EBEBEB"/>
<defs>
<filter id="filter0_d_9425_36787" x="-1.81641" y="40.6414" width="22.6404" height="23.9714" filterUnits="userSpaceOnUse" color-interpolation-filters="sRGB">
<feFlood flood-opacity="0" result="BackgroundImageFix"/>
<feColorMatrix in="SourceAlpha" type="matrix" values="0 0 0 0 0 0 0 0 0 0 0 0 0 0 0 0 0 0 127 0" result="hardAlpha"/>
<feOffset dy="4"/>
<feGaussianBlur stdDeviation="5"/>
<feComposite in2="hardAlpha" operator="out"/>
<feColorMatrix type="matrix" values="0 0 0 0 0 0 0 0 0 0 0 0 0 0 0 0 0 0 0.05 0"/>
<feBlend mode="normal" in2="BackgroundImageFix" result="effect1_dropShadow_9425_36787"/>
<feBlend mode="normal" in="SourceGraphic" in2="effect1_dropShadow_9425_36787" result="shape"/>
</filter>
<filter id="filter1_d_9425_36787" x="4.78711" y="40.3254" width="22.5352" height="23.8914" filterUnits="userSpaceOnUse" color-interpolation-filters="sRGB">
<feFlood flood-opacity="0" result="BackgroundImageFix"/>
<feColorMatrix in="SourceAlpha" type="matrix" values="0 0 0 0 0 0 0 0 0 0 0 0 0 0 0 0 0 0 127 0" result="hardAlpha"/>
<feOffset dy="4"/>
<feGaussianBlur stdDeviation="5"/>
<feComposite in2="hardAlpha" operator="out"/>
<feColorMatrix type="matrix" values="0 0 0 0 0 0 0 0 0 0 0 0 0 0 0 0 0 0 0.05 0"/>
<feBlend mode="normal" in2="BackgroundImageFix" result="effect1_dropShadow_9425_36787"/>
<feBlend mode="normal" in="SourceGraphic" in2="effect1_dropShadow_9425_36787" result="shape"/>
</filter>
<filter id="filter2_d_9425_36787" x="11.0977" y="39.9482" width="22.438" height="23.8164" filterUnits="userSpaceOnUse" color-interpolation-filters="sRGB">
<feFlood flood-opacity="0" result="BackgroundImageFix"/>
<feColorMatrix in="SourceAlpha" type="matrix" values="0 0 0 0 0 0 0 0 0 0 0 0 0 0 0 0 0 0 127 0" result="hardAlpha"/>
<feOffset dy="4"/>
<feGaussianBlur stdDeviation="5"/>
<feComposite in2="hardAlpha" operator="out"/>
<feColorMatrix type="matrix" values="0 0 0 0 0 0 0 0 0 0 0 0 0 0 0 0 0 0 0.05 0"/>
<feBlend mode="normal" in2="BackgroundImageFix" result="effect1_dropShadow_9425_36787"/>
<feBlend mode="normal" in="SourceGraphic" in2="effect1_dropShadow_9425_36787" result="shape"/>
</filter>
<filter id="filter3_d_9425_36787" x="16.9346" y="39.571" width="22.3477" height="23.7466" filterUnits="userSpaceOnUse" color-interpolation-filters="sRGB">
<feFlood flood-opacity="0" result="BackgroundImageFix"/>
<feColorMatrix in="SourceAlpha" type="matrix" values="0 0 0 0 0 0 0 0 0 0 0 0 0 0 0 0 0 0 127 0" result="hardAlpha"/>
<feOffset dy="4"/>
<feGaussianBlur stdDeviation="5"/>
<feComposite in2="hardAlpha" operator="out"/>
<feColorMatrix type="matrix" values="0 0 0 0 0 0 0 0 0 0 0 0 0 0 0 0 0 0 0.05 0"/>
<feBlend mode="normal" in2="BackgroundImageFix" result="effect1_dropShadow_9425_36787"/>
<feBlend mode="normal" in="SourceGraphic" in2="effect1_dropShadow_9425_36787" result="shape"/>
</filter>
<filter id="filter4_d_9425_36787" x="-1.81641" y="27.0305" width="22.6404" height="23.9683" filterUnits="userSpaceOnUse" color-interpolation-filters="sRGB">
<feFlood flood-opacity="0" result="BackgroundImageFix"/>
<feColorMatrix in="SourceAlpha" type="matrix" values="0 0 0 0 0 0 0 0 0 0 0 0 0 0 0 0 0 0 127 0" result="hardAlpha"/>
<feOffset dy="4"/>
<feGaussianBlur stdDeviation="5"/>
<feComposite in2="hardAlpha" operator="out"/>
<feColorMatrix type="matrix" values="0 0 0 0 0 0 0 0 0 0 0 0 0 0 0 0 0 0 0.05 0"/>
<feBlend mode="normal" in2="BackgroundImageFix" result="effect1_dropShadow_9425_36787"/>
<feBlend mode="normal" in="SourceGraphic" in2="effect1_dropShadow_9425_36787" result="shape"/>
</filter>
<filter id="filter5_d_9425_36787" x="4.78711" y="26.9873" width="22.5352" height="23.8884" filterUnits="userSpaceOnUse" color-interpolation-filters="sRGB">
<feFlood flood-opacity="0" result="BackgroundImageFix"/>
<feColorMatrix in="SourceAlpha" type="matrix" values="0 0 0 0 0 0 0 0 0 0 0 0 0 0 0 0 0 0 127 0" result="hardAlpha"/>
<feOffset dy="4"/>
<feGaussianBlur stdDeviation="5"/>
<feComposite in2="hardAlpha" operator="out"/>
<feColorMatrix type="matrix" values="0 0 0 0 0 0 0 0 0 0 0 0 0 0 0 0 0 0 0.05 0"/>
<feBlend mode="normal" in2="BackgroundImageFix" result="effect1_dropShadow_9425_36787"/>
<feBlend mode="normal" in="SourceGraphic" in2="effect1_dropShadow_9425_36787" result="shape"/>
</filter>
<filter id="filter6_d_9425_36787" x="11.0977" y="26.8726" width="22.438" height="23.8135" filterUnits="userSpaceOnUse" color-interpolation-filters="sRGB">
<feFlood flood-opacity="0" result="BackgroundImageFix"/>
<feColorMatrix in="SourceAlpha" type="matrix" values="0 0 0 0 0 0 0 0 0 0 0 0 0 0 0 0 0 0 127 0" result="hardAlpha"/>
<feOffset dy="4"/>
<feGaussianBlur stdDeviation="5"/>
<feComposite in2="hardAlpha" operator="out"/>
<feColorMatrix type="matrix" values="0 0 0 0 0 0 0 0 0 0 0 0 0 0 0 0 0 0 0.05 0"/>
<feBlend mode="normal" in2="BackgroundImageFix" result="effect1_dropShadow_9425_36787"/>
<feBlend mode="normal" in="SourceGraphic" in2="effect1_dropShadow_9425_36787" result="shape"/>
</filter>
<filter id="filter7_d_9425_36787" x="16.9346" y="26.738" width="22.3477" height="23.7422" filterUnits="userSpaceOnUse" color-interpolation-filters="sRGB">
<feFlood flood-opacity="0" result="BackgroundImageFix"/>
<feColorMatrix in="SourceAlpha" type="matrix" values="0 0 0 0 0 0 0 0 0 0 0 0 0 0 0 0 0 0 127 0" result="hardAlpha"/>
<feOffset dy="4"/>
<feGaussianBlur stdDeviation="5"/>
<feComposite in2="hardAlpha" operator="out"/>
<feColorMatrix type="matrix" values="0 0 0 0 0 0 0 0 0 0 0 0 0 0 0 0 0 0 0.05 0"/>
<feBlend mode="normal" in2="BackgroundImageFix" result="effect1_dropShadow_9425_36787"/>
<feBlend mode="normal" in="SourceGraphic" in2="effect1_dropShadow_9425_36787" result="shape"/>
</filter>
<filter id="filter8_d_9425_36787" x="35.1282" y="3.02563" width="32.3076" height="34.7693" filterUnits="userSpaceOnUse" color-interpolation-filters="sRGB">
<feFlood flood-opacity="0" result="BackgroundImageFix"/>
<feColorMatrix in="SourceAlpha" type="matrix" values="0 0 0 0 0 0 0 0 0 0 0 0 0 0 0 0 0 0 127 0" result="hardAlpha"/>
<feOffset dy="4"/>
<feGaussianBlur stdDeviation="5"/>
<feComposite in2="hardAlpha" operator="out"/>
<feColorMatrix type="matrix" values="0 0 0 0 0 0 0 0 0 0 0 0 0 0 0 0 0 0 0.05 0"/>
<feBlend mode="normal" in2="BackgroundImageFix" result="effect1_dropShadow_9425_36787"/>
<feBlend mode="normal" in="SourceGraphic" in2="effect1_dropShadow_9425_36787" result="shape"/>
</filter>
<filter id="filter9_d_9425_36787" x="34.3076" y="32.7161" width="34.2224" height="34.7217" filterUnits="userSpaceOnUse" color-interpolation-filters="sRGB">
<feFlood flood-opacity="0" result="BackgroundImageFix"/>
<feColorMatrix in="SourceAlpha" type="matrix" values="0 0 0 0 0 0 0 0 0 0 0 0 0 0 0 0 0 0 127 0" result="hardAlpha"/>
<feOffset dy="4"/>
<feGaussianBlur stdDeviation="5"/>
<feComposite in2="hardAlpha" operator="out"/>
<feColorMatrix type="matrix" values="0 0 0 0 0 0 0 0 0 0 0 0 0 0 0 0 0 0 0.05 0"/>
<feBlend mode="normal" in2="BackgroundImageFix" result="effect1_dropShadow_9425_36787"/>
<feBlend mode="normal" in="SourceGraphic" in2="effect1_dropShadow_9425_36787" result="shape"/>
</filter>
<clipPath id="clip0_9425_36787">
<rect width="61.5385" height="64" fill="white" transform="translate(1.64111)"/>
</clipPath>
</defs>
</svg>
