<svg width="109" height="108" viewBox="0 0 109 108" fill="none" xmlns="http://www.w3.org/2000/svg">
<g clip-path="url(#clip0_22574_7467)">
<path d="M3.26923 17.6303C3.26923 9.59825 10.0812 3.2515 18.0932 3.81872L56.8624 6.56344C64.1118 7.07668 69.7308 13.1075 69.7308 20.375V61.1293C69.7308 68.5161 63.9322 74.6021 56.554 74.9593L17.7848 76.8359C9.88419 77.2183 3.26923 70.9158 3.26923 63.0059V17.6303Z" fill="#0075FF" fill-opacity="0.78"/>
<path fill-rule="evenodd" clip-rule="evenodd" d="M56.7646 7.9446L17.9954 5.19988C10.7846 4.68938 4.65384 10.4015 4.65384 17.6303V63.0059C4.65384 70.1248 10.6073 75.797 17.7179 75.4529L56.4871 73.5763C63.1274 73.2548 68.3461 67.7774 68.3461 61.1293V20.375C68.3461 13.8342 63.2891 8.40652 56.7646 7.9446ZM18.0932 3.81872C10.0812 3.2515 3.26923 9.59824 3.26923 17.6303V63.0059C3.26923 70.9158 9.88419 77.2183 17.7848 76.8359L56.554 74.9593C63.9322 74.6021 69.7308 68.5161 69.7308 61.1293V20.375C69.7308 13.1075 64.1118 7.07668 56.8624 6.56344L18.0932 3.81872Z" fill="white" fill-opacity="0.18"/>
<g filter="url(#filter0_d_22574_7467)">
<path d="M26.1969 18.364L26.243 18.3273C26.3468 18.248 26.457 18.1687 26.5744 18.0902C26.7321 17.9848 26.9014 17.8806 27.0829 17.779C27.5489 17.5181 28.092 17.2753 28.6913 17.0788C29.6694 16.7456 30.7109 16.5746 31.6271 16.6238C34.921 16.7977 37.2835 18.5358 38.8192 20.9894L38.8249 20.9982C40.3426 23.4519 41.0556 26.6672 41.0002 29.8393C40.944 33.0115 40.1193 36.1892 38.5339 38.5502C36.9637 40.9372 34.6386 42.4957 31.6271 42.4726C26.5283 42.432 23.3252 37.9563 22.3182 32.6465C21.3408 27.4581 22.5271 21.5717 26.0291 18.53C26.0565 18.498 26.0853 18.4676 26.1148 18.4384C26.1415 18.4127 26.1688 18.388 26.1969 18.364Z" fill="white" fill-opacity="0.9" shape-rendering="crispEdges"/>
<path d="M31.648 47.2871C39.1779 47.2813 47.312 50.1319 47.943 61.3021C47.943 62.1161 47.3999 62.7882 46.7279 62.8084L15.7053 63.692C14.9569 63.7123 14.3461 63.0315 14.3461 62.1711C15.0534 50.3201 23.9187 47.2929 31.648 47.2871Z" fill="white" fill-opacity="0.9" shape-rendering="crispEdges"/>
<path d="M60.3542 60.4938L51.1547 60.7227C50.729 54.0801 48.0604 49.5582 44.2825 46.8235C45.2398 46.7048 46.1992 46.6526 47.142 46.6556C53.729 46.6556 60.8677 49.2047 61.4231 59.1584C61.4231 59.8826 60.9441 60.4794 60.3542 60.4938Z" fill="white" fill-opacity="0.9" shape-rendering="crispEdges"/>
<path d="M41.8487 39.9174C43.1992 41.418 44.966 42.3594 47.1175 42.3768C49.7538 42.3972 51.7914 41.0124 53.165 38.8891C54.5537 36.7859 55.2783 33.9587 55.3259 31.1371C55.3756 28.3155 54.7504 25.4535 53.4142 23.2778V23.272C52.0673 21.0965 50.0008 19.5583 47.1211 19.4164C46.3195 19.3788 45.4097 19.5322 44.5555 19.8306C43.7625 20.1001 43.0847 20.4592 42.5798 20.8272C43.833 23.7008 44.3617 26.9511 44.3084 30.0246C44.2501 33.4256 43.4693 36.9713 41.8487 39.9174Z" fill="white" fill-opacity="0.9" shape-rendering="crispEdges"/>
</g>
<path d="M53.1154 59.749C53.1154 55.9375 56.1961 52.843 60.0075 52.826L100.161 52.6466C103.997 52.6294 107.115 55.734 107.115 59.5696V86.7883C107.115 90.3995 104.34 93.4041 100.74 93.6897L73.9987 95.8114L69.5069 102.781C68.3812 104.528 65.8042 104.458 64.7741 102.654L61.6417 97.1655L60.2838 97.2136C56.3666 97.3526 53.1154 94.2146 53.1154 90.2949V59.749Z" fill="#1BCE7B" fill-opacity="0.78"/>
<path fill-rule="evenodd" clip-rule="evenodd" d="M73.2061 94.4853L100.63 92.3095C103.51 92.081 105.731 89.6773 105.731 86.7883V59.5696C105.731 56.5011 103.236 54.0174 100.168 54.0312L60.0137 54.2106C56.9646 54.2242 54.5 56.6998 54.5 59.749V90.2949C54.5 93.4307 57.1009 95.941 60.2347 95.8299L62.4292 95.7521L65.9767 101.967C66.4917 102.87 67.7802 102.904 68.343 102.031L73.2061 94.4853ZM73.9987 95.8114L100.74 93.6897C104.34 93.4041 107.115 90.3995 107.115 86.7883V59.5696C107.115 55.734 103.997 52.6294 100.161 52.6466L60.0075 52.826C56.1961 52.843 53.1154 55.9375 53.1154 59.749V90.2949C53.1154 94.2146 56.3666 97.3526 60.2838 97.2136L61.6417 97.1655L64.7741 102.654C65.8042 104.458 68.3812 104.528 69.5069 102.781L73.9987 95.8114Z" fill="white" fill-opacity="0.18"/>
<g filter="url(#filter1_d_22574_7467)">
<path d="M62.8077 68.2173C62.8077 66.2526 64.3716 64.6448 66.3356 64.5905L95.288 63.7897C97.2159 63.7363 98.8077 65.2847 98.8077 67.2133C98.8077 69.0494 97.3599 70.5588 95.5254 70.6353L66.5871 71.8424C64.5258 71.9283 62.8077 70.2804 62.8077 68.2173Z" fill="white" fill-opacity="0.9" shape-rendering="crispEdges"/>
</g>
<g filter="url(#filter2_d_22574_7467)">
<path d="M62.8077 82.2884C62.8077 80.513 64.198 79.0486 65.971 78.9565L89.9145 77.7126C91.7384 77.6179 93.2692 79.0712 93.2692 80.8976C93.2692 82.5795 91.963 83.9723 90.2845 84.0802L66.358 85.6179C64.4352 85.7415 62.8077 84.2152 62.8077 82.2884Z" fill="white" fill-opacity="0.9" shape-rendering="crispEdges"/>
</g>
</g>
<defs>
<filter id="filter0_d_22574_7467" x="4.34613" y="10.6155" width="67.0769" height="67.0769" filterUnits="userSpaceOnUse" color-interpolation-filters="sRGB">
<feFlood flood-opacity="0" result="BackgroundImageFix"/>
<feColorMatrix in="SourceAlpha" type="matrix" values="0 0 0 0 0 0 0 0 0 0 0 0 0 0 0 0 0 0 127 0" result="hardAlpha"/>
<feOffset dy="4"/>
<feGaussianBlur stdDeviation="5"/>
<feComposite in2="hardAlpha" operator="out"/>
<feColorMatrix type="matrix" values="0 0 0 0 0 0 0 0 0 0 0 0 0 0 0 0 0 0 0.05 0"/>
<feBlend mode="normal" in2="BackgroundImageFix" result="effect1_dropShadow_22574_7467"/>
<feBlend mode="normal" in="SourceGraphic" in2="effect1_dropShadow_22574_7467" result="shape"/>
</filter>
<filter id="filter1_d_22574_7467" x="52.8077" y="57.7883" width="56" height="28.0571" filterUnits="userSpaceOnUse" color-interpolation-filters="sRGB">
<feFlood flood-opacity="0" result="BackgroundImageFix"/>
<feColorMatrix in="SourceAlpha" type="matrix" values="0 0 0 0 0 0 0 0 0 0 0 0 0 0 0 0 0 0 127 0" result="hardAlpha"/>
<feOffset dy="4"/>
<feGaussianBlur stdDeviation="5"/>
<feComposite in2="hardAlpha" operator="out"/>
<feColorMatrix type="matrix" values="0 0 0 0 0 0 0 0 0 0 0 0 0 0 0 0 0 0 0.05 0"/>
<feBlend mode="normal" in2="BackgroundImageFix" result="effect1_dropShadow_22574_7467"/>
<feBlend mode="normal" in="SourceGraphic" in2="effect1_dropShadow_22574_7467" result="shape"/>
</filter>
<filter id="filter2_d_22574_7467" x="52.8077" y="71.7083" width="50.4615" height="27.9167" filterUnits="userSpaceOnUse" color-interpolation-filters="sRGB">
<feFlood flood-opacity="0" result="BackgroundImageFix"/>
<feColorMatrix in="SourceAlpha" type="matrix" values="0 0 0 0 0 0 0 0 0 0 0 0 0 0 0 0 0 0 127 0" result="hardAlpha"/>
<feOffset dy="4"/>
<feGaussianBlur stdDeviation="5"/>
<feComposite in2="hardAlpha" operator="out"/>
<feColorMatrix type="matrix" values="0 0 0 0 0 0 0 0 0 0 0 0 0 0 0 0 0 0 0.05 0"/>
<feBlend mode="normal" in2="BackgroundImageFix" result="effect1_dropShadow_22574_7467"/>
<feBlend mode="normal" in="SourceGraphic" in2="effect1_dropShadow_22574_7467" result="shape"/>
</filter>
<clipPath id="clip0_22574_7467">
<rect width="108" height="108" fill="white" transform="translate(0.5)"/>
</clipPath>
</defs>
</svg>
