<svg width="107" height="106" viewBox="0 0 107 106" fill="none" xmlns="http://www.w3.org/2000/svg">
<g id="Graphic from Lib">
<g id="Vector">
<path d="M2.84277 17.3109C2.84277 9.42494 9.53288 3.1948 17.3989 3.75556L55.4502 6.46821C62.5625 6.97525 68.0735 12.8931 68.0735 20.0236V60.4418C68.0735 67.7365 62.3144 73.73 55.0255 74.0208L16.9742 75.5387C9.26245 75.8464 2.84277 69.6777 2.84277 61.9598V17.3109Z" fill="#0075FF" fill-opacity="0.78"/>
<path d="M3.34277 17.3109C3.34277 9.71509 9.78673 3.71416 17.3633 4.25429L55.4146 6.96694C62.2653 7.45533 67.5735 13.1555 67.5735 20.0236V60.4418C67.5735 67.4681 62.0263 73.2411 55.0056 73.5211L16.9543 75.0391C9.52625 75.3355 3.34277 69.3937 3.34277 61.9598V17.3109Z" stroke="white" stroke-opacity="0.18"/>
</g>
<g id="Vector_2">
<path d="M49.0479 57.2419C49.0479 49.7579 55.0988 43.6825 62.5827 43.6522L89.7622 43.5423C97.289 43.5119 103.407 49.6051 103.407 57.132V86.1022C103.407 93.1521 98.0158 99.0313 90.9923 99.641L63.8129 102C55.8735 102.69 49.0479 96.4307 49.0479 88.4615V57.2419Z" fill="#1BCE7B" fill-opacity="0.78"/>
<path d="M49.5479 57.2419C49.5479 50.0333 55.3761 44.1814 62.5847 44.1522L89.7642 44.0423C97.0141 44.013 102.907 49.882 102.907 57.132V86.1022C102.907 92.8927 97.7142 98.5556 90.9491 99.1429L63.7696 101.502C56.1224 102.166 49.5479 96.1375 49.5479 88.4615V57.2419Z" stroke="white" stroke-opacity="0.18"/>
</g>
<g id="Vector_3" filter="url(#filter0_d_9807_60728)">
<path fill-rule="evenodd" clip-rule="evenodd" d="M15.7114 21.7437L55.4714 23.7011C56.4279 23.7495 57.202 24.6646 57.202 25.7524C57.202 25.9736 57.1691 26.1887 57.1064 26.3947L55.9885 30.0035C55.7464 30.7853 55.0888 31.2943 54.3475 31.267L16.9847 29.9368C16.1388 29.9065 15.3826 29.3096 15.1076 28.4461L13.8253 24.4646C13.4636 23.3435 14.0196 22.1618 15.0628 21.8315C15.272 21.7649 15.4932 21.7376 15.7144 21.7467L15.7114 21.7437ZM22.6429 36.9635L49.2871 37.6058C50.2645 37.6301 51.0536 38.5391 51.0536 39.636C51.0536 39.8753 51.0147 40.1087 50.94 40.3298L49.7085 44.0053C49.4485 44.781 48.7879 45.287 48.0466 45.2809L23.9192 45.0264C23.1002 45.0173 22.3649 44.4537 22.09 43.6174L20.8017 39.7117C20.44 38.6148 20.9721 37.4301 21.9883 37.0665C22.1976 36.9908 22.4187 36.9574 22.6399 36.9605L22.6429 36.9635ZM31.1796 51.8803L41.2765 51.8712C42.2808 51.8712 43.0938 52.7711 43.0938 53.8832C43.0938 54.0801 43.0669 54.274 43.0161 54.4619L42.0058 58.2161C41.7757 59.0736 41.0643 59.6675 40.2572 59.6796L32.3423 59.7947C31.5323 59.8069 30.8089 59.2493 30.5519 58.41L29.3802 54.5922C29.0484 53.5135 29.5894 52.3439 30.5818 51.9833C30.7731 51.9136 30.9763 51.8773 31.1796 51.8773V51.8803Z" fill="white" fill-opacity="0.9" shape-rendering="crispEdges"/>
</g>
<g id="Union" filter="url(#filter1_d_9807_60728)">
<path d="M66.6414 56.8203L67.5049 61.4611L90.0898 60.5882C90.4232 60.5781 90.7366 60.7669 90.9433 61.1005C91.15 61.4342 91.2233 61.8757 91.1467 62.297L89.1062 77.1161C88.9895 77.7599 88.5494 78.2384 88.046 78.2755L69.502 79.4956C68.9652 79.5259 68.4951 79.0911 68.3684 78.4407L64.5509 58.7043L61.1469 58.8121C60.47 58.8323 59.9199 58.1852 59.9199 57.3595C59.9199 56.5338 60.47 55.853 61.1469 55.8361L65.4978 55.7182C66.0446 55.7081 66.5147 56.1597 66.6414 56.8169V56.8203Z" fill="white" fill-opacity="0.9" shape-rendering="crispEdges"/>
<path d="M72.8657 88.3257C71.242 88.4571 69.9218 86.9 69.9218 84.8475C69.9218 82.795 71.242 81.0391 72.8657 80.9279C74.4894 80.8167 75.783 82.3771 75.783 84.4094C75.783 86.4417 74.4794 88.1942 72.8657 88.3257Z" fill="white" fill-opacity="0.9" shape-rendering="crispEdges"/>
<path d="M81.9307 83.9544C81.9307 85.9664 83.201 87.4932 84.7613 87.3685V87.3718C86.315 87.2471 87.5686 85.5317 87.5686 83.5365C87.5686 81.5412 86.3217 80.0111 84.7613 80.1156C83.201 80.2201 81.9307 81.9423 81.9307 83.9544Z" fill="white" fill-opacity="0.9" shape-rendering="crispEdges"/>
</g>
</g>
<defs>
<filter id="filter0_d_9807_60728" x="3.71484" y="15.7437" width="63.4873" height="58.0513" filterUnits="userSpaceOnUse" color-interpolation-filters="sRGB">
<feFlood flood-opacity="0" result="BackgroundImageFix"/>
<feColorMatrix in="SourceAlpha" type="matrix" values="0 0 0 0 0 0 0 0 0 0 0 0 0 0 0 0 0 0 127 0" result="hardAlpha"/>
<feOffset dy="4"/>
<feGaussianBlur stdDeviation="5"/>
<feComposite in2="hardAlpha" operator="out"/>
<feColorMatrix type="matrix" values="0 0 0 0 0 0 0 0 0 0 0 0 0 0 0 0 0 0 0.05 0"/>
<feBlend mode="normal" in2="BackgroundImageFix" result="effect1_dropShadow_9807_60728"/>
<feBlend mode="normal" in="SourceGraphic" in2="effect1_dropShadow_9807_60728" result="shape"/>
</filter>
<filter id="filter1_d_9807_60728" x="49.9199" y="49.718" width="51.2563" height="52.6155" filterUnits="userSpaceOnUse" color-interpolation-filters="sRGB">
<feFlood flood-opacity="0" result="BackgroundImageFix"/>
<feColorMatrix in="SourceAlpha" type="matrix" values="0 0 0 0 0 0 0 0 0 0 0 0 0 0 0 0 0 0 127 0" result="hardAlpha"/>
<feOffset dy="4"/>
<feGaussianBlur stdDeviation="5"/>
<feComposite in2="hardAlpha" operator="out"/>
<feColorMatrix type="matrix" values="0 0 0 0 0 0 0 0 0 0 0 0 0 0 0 0 0 0 0.05 0"/>
<feBlend mode="normal" in2="BackgroundImageFix" result="effect1_dropShadow_9807_60728"/>
<feBlend mode="normal" in="SourceGraphic" in2="effect1_dropShadow_9807_60728" result="shape"/>
</filter>
</defs>
</svg>
