<svg width="107" height="106" viewBox="0 0 107 106" fill="none" xmlns="http://www.w3.org/2000/svg">
<g id="Graphic from Lib">
<g id="Vector">
<path d="M2.9834 17.3109C2.9834 9.42494 9.6735 3.1948 17.5395 3.75556L55.5908 6.46821C62.7032 6.97525 68.2142 12.8931 68.2142 20.0236V60.4418C68.2142 67.7365 62.455 73.73 55.1661 74.0208L17.1148 75.5387C9.40307 75.8464 2.9834 69.6777 2.9834 61.9598V17.3109Z" fill="#0075FF" fill-opacity="0.78"/>
<path d="M3.4834 17.3109C3.4834 9.71509 9.92736 3.71416 17.5039 4.25429L55.5552 6.96694C62.4059 7.45533 67.7142 13.1555 67.7142 20.0236V60.4418C67.7142 67.4681 62.1669 73.2411 55.1462 73.5211L17.0949 75.0391C9.66688 75.3355 3.4834 69.3937 3.4834 61.9598V17.3109Z" stroke="white" stroke-opacity="0.18"/>
</g>
<g id="Vector_2" filter="url(#filter0_d_9807_46884)">
<path d="M25.8272 19.1821C25.7586 19.2371 25.6928 19.2976 25.6352 19.3636C22.5082 22.0807 21.4494 27.3553 22.3216 32.0083C23.2213 36.7742 26.0823 40.8002 30.6357 40.8607C33.3266 40.8965 35.4086 39.505 36.813 37.3709C38.2311 35.2561 38.9718 32.4071 39.0211 29.5608C39.0705 26.7145 38.4314 23.8215 37.0736 21.6187L37.0681 21.6132C35.6938 19.4076 33.579 17.8374 30.6357 17.6751C29.8183 17.6284 28.8857 17.7796 28.0107 18.0739C27.1109 18.3681 26.3539 18.7779 25.8245 19.1876L25.8272 19.1821Z" fill="white" fill-opacity="0.9" shape-rendering="crispEdges"/>
<path d="M45.2476 57.8504C44.6826 47.8128 37.3944 45.2113 30.6603 45.1783C23.7534 45.1453 15.8452 47.8128 15.2144 58.4252C15.2144 59.1952 15.7575 59.8085 16.4268 59.7947L44.1587 59.1925C44.7594 59.1787 45.2476 58.5765 45.2476 57.8477V57.8504Z" fill="white" fill-opacity="0.9" shape-rendering="crispEdges"/>
<path d="M56.3853 57.196L48.126 57.3472C47.742 51.3769 45.3501 47.3013 41.9652 44.8235C42.8238 44.7218 43.6823 44.6805 44.5272 44.686C50.4356 44.7218 56.8433 47.0456 57.3426 56.0024C57.3426 56.6542 56.9146 57.1877 56.3825 57.1987L56.3853 57.196Z" fill="white" fill-opacity="0.9" shape-rendering="crispEdges"/>
<path d="M44.5077 40.8442C42.5793 40.8195 40.9966 39.9669 39.7869 38.6112C41.238 35.9711 41.9374 32.7921 41.9896 29.7368C42.0362 26.9785 41.5644 24.0552 40.4425 21.4702C40.8951 21.1402 41.504 20.8212 42.2117 20.5819C42.977 20.3179 43.7917 20.1804 44.5104 20.2189C47.0916 20.3536 48.9459 21.7424 50.1528 23.7032V23.7087C51.3515 25.6695 51.9111 28.2435 51.8672 30.7791C51.8233 33.3146 51.1732 35.8556 49.9279 37.7394C48.6935 39.6397 46.8694 40.8772 44.5077 40.8442Z" fill="white" fill-opacity="0.9" shape-rendering="crispEdges"/>
</g>
<g id="Vector_3">
<path d="M49.1885 57.2419C49.1885 49.7579 55.2394 43.6825 62.7233 43.6522L89.9028 43.5423C97.4296 43.5119 103.547 49.6051 103.547 57.132V86.1022C103.547 93.1521 98.1564 99.0313 91.133 99.641L63.9535 102C56.0142 102.69 49.1885 96.4307 49.1885 88.4615V57.2419Z" fill="#1BCE7B" fill-opacity="0.78"/>
<path d="M49.6885 57.2419C49.6885 50.0333 55.5167 44.1814 62.7253 44.1522L89.9048 44.0423C97.1547 44.013 103.047 49.882 103.047 57.132V86.1022C103.047 92.8927 97.8548 98.5556 91.0897 99.1429L63.9102 101.502C56.263 102.166 49.6885 96.1375 49.6885 88.4615V57.2419Z" stroke="white" stroke-opacity="0.18"/>
</g>
<g id="Vector_4" filter="url(#filter1_d_9807_46884)">
<path fill-rule="evenodd" clip-rule="evenodd" d="M67.7251 59.0254C65.0034 59.1094 62.7783 61.7997 62.7783 65.0327V79.6763C62.7783 82.9124 65.0034 85.3703 67.7251 85.1733L68.3575 85.128V89.4236C68.3575 90.9739 69.9303 91.6198 70.8508 90.4539L75.4731 84.6048L86.7441 83.7813C89.2771 83.5972 91.3168 80.9456 91.3168 77.8579V63.8861C91.3168 60.7985 89.2771 58.3601 86.7441 58.4376L67.7251 59.0189V59.0254ZM67.7251 67.3807C67.7251 66.3763 68.4105 65.5365 69.2549 65.501L85.3038 64.8389C86.1018 64.8066 86.7474 65.5688 86.7474 66.5377C86.7474 67.5067 86.1018 68.327 85.3038 68.3658L69.2549 69.1215C68.4105 69.1603 67.7251 68.3819 67.7251 67.3775V67.3807ZM69.2549 74.1954C68.4105 74.2406 67.7251 75.0933 67.7251 76.0945C67.7251 77.0957 68.4105 77.8676 69.2549 77.8159L85.3038 76.8341C86.1018 76.7857 86.7474 75.9589 86.7474 74.9867C86.7474 74.0146 86.1018 73.262 85.3038 73.3072L69.2549 74.1954Z" fill="white" fill-opacity="0.9" shape-rendering="crispEdges"/>
</g>
</g>
<defs>
<filter id="filter0_d_9807_46884" x="5.21436" y="11.6667" width="62.1284" height="62.1282" filterUnits="userSpaceOnUse" color-interpolation-filters="sRGB">
<feFlood flood-opacity="0" result="BackgroundImageFix"/>
<feColorMatrix in="SourceAlpha" type="matrix" values="0 0 0 0 0 0 0 0 0 0 0 0 0 0 0 0 0 0 127 0" result="hardAlpha"/>
<feOffset dy="4"/>
<feGaussianBlur stdDeviation="5"/>
<feComposite in2="hardAlpha" operator="out"/>
<feColorMatrix type="matrix" values="0 0 0 0 0 0 0 0 0 0 0 0 0 0 0 0 0 0 0.05 0"/>
<feBlend mode="normal" in2="BackgroundImageFix" result="effect1_dropShadow_9807_46884"/>
<feBlend mode="normal" in="SourceGraphic" in2="effect1_dropShadow_9807_46884" result="shape"/>
</filter>
<filter id="filter1_d_9807_46884" x="52.7783" y="52.4358" width="48.5386" height="52.6155" filterUnits="userSpaceOnUse" color-interpolation-filters="sRGB">
<feFlood flood-opacity="0" result="BackgroundImageFix"/>
<feColorMatrix in="SourceAlpha" type="matrix" values="0 0 0 0 0 0 0 0 0 0 0 0 0 0 0 0 0 0 127 0" result="hardAlpha"/>
<feOffset dy="4"/>
<feGaussianBlur stdDeviation="5"/>
<feComposite in2="hardAlpha" operator="out"/>
<feColorMatrix type="matrix" values="0 0 0 0 0 0 0 0 0 0 0 0 0 0 0 0 0 0 0.05 0"/>
<feBlend mode="normal" in2="BackgroundImageFix" result="effect1_dropShadow_9807_46884"/>
<feBlend mode="normal" in="SourceGraphic" in2="effect1_dropShadow_9807_46884" result="shape"/>
</filter>
</defs>
</svg>
