<svg xmlns="http://www.w3.org/2000/svg" width="186" height="186" viewBox="0 0 186 186">
  <path fill="#556574" fill-rule="evenodd" d="M185.01,138.759 L185.01,173.447 C185.009448,179.83284 179.83284,185.009448 173.447,185.01 L127.194,185.01 L127.187,185.01 L57.823,185.01 L57.816,185.01 L11.563,185.01 C5.17693144,185.01 2.84217094e-14,179.833069 2.84217094e-14,173.447 L2.84217094e-14,185.008 L2.84217094e-14,185.008 L2.84217094e-14,0 L173.447,0 C179.83284,0.000552193338 185.009448,5.17716018 185.01,11.563 L185.01,46.254 C185.009857,46.2559974 185.009857,46.2580026 185.01,46.26 L185.01,138.753 C185.01,138.753 185.01,138.757 185.01,138.759 L185.01,138.759 Z M5.68434189e-14,0 L5.68434189e-14,11.563 C-2.38800624e-08,5.17732194 5.17632197,0.000552250978 11.562,0 L5.68434189e-14,0 L5.68434189e-14,0 Z M161.882,23.128 L127.194,23.128 L127.194,23.128 L57.816,23.128 L57.816,23.128 L23.126,23.128 L23.126,57.817 L23.126,57.817 L23.126,127.194 L57.817,127.194 L57.817,161.88 L127.195,161.88 L127.195,127.19 L161.883,127.19 L161.883,57.817 L161.883,57.817 L161.883,23.128 L161.882,23.128 Z M80.522,112.52 L80.404,112.647 L52.033,82.226 L66.783,66.411 L82.783,83.562 L117.7,46.121 L127.194,56.301 L127.194,57.817 L128.608,57.817 L132.947,62.469 L83.4,115.6 L80.522,112.52 Z" opacity=".1"/>
</svg>
