<svg width="46" height="46" viewBox="0 0 46 46" fill="none" xmlns="http://www.w3.org/2000/svg">
<path opacity="0.9" fill-rule="evenodd" clip-rule="evenodd" d="M23 46C35.7025 46 46 35.7025 46 23C46 10.2975 35.7025 0 23 0C10.2975 0 0 10.2975 0 23C0 35.7025 10.2975 46 23 46Z" fill="#2FC6F6"/>
<path fill-rule="evenodd" clip-rule="evenodd" d="M33 26C34.6569 26 36 24.6569 36 23C36 21.3431 34.6569 20 33 20C31.3431 20 30 21.3431 30 23C30 24.6569 31.3431 26 33 26Z" fill="white"/>
<path fill-rule="evenodd" clip-rule="evenodd" d="M23 26C24.6569 26 26 24.6569 26 23C26 21.3431 24.6569 20 23 20C21.3431 20 20 21.3431 20 23C20 24.6569 21.3431 26 23 26Z" fill="white"/>
<path fill-rule="evenodd" clip-rule="evenodd" d="M13 26C14.6569 26 16 24.6569 16 23C16 21.3431 14.6569 20 13 20C11.3431 20 10 21.3431 10 23C10 24.6569 11.3431 26 13 26Z" fill="white"/>
</svg>
