<svg width="75" height="68" viewBox="0 0 75 68" fill="none" xmlns="http://www.w3.org/2000/svg">
<path fill-rule="evenodd" clip-rule="evenodd" d="M13.4905 50.5199C8.88279 50.5199 5.13393 46.8663 5.13393 42.375V12.8056C5.13393 8.31431 8.88279 4.66223 13.4905 4.66223H61.3744C65.9837 4.66223 69.7325 8.31431 69.7325 12.8056V42.375C69.7325 46.8663 65.9837 50.5199 61.3744 50.5199H37.9808L37.2857 51.3498C36.4022 52.4081 35.5047 53.5271 34.6104 54.6444L34.5996 54.6579C32.3372 57.4818 28.1421 62.718 26.6338 62.8049C26.4269 62.8049 26.345 62.7754 26.345 62.7738C26.3064 62.6604 26.1442 62.0216 26.1442 60.048V50.5199H13.4905ZM61.3744 0H13.4905C6.32794 0 0.5 5.74542 0.5 12.8056V42.375C0.5 49.4367 6.32794 55.1822 13.4905 55.1822H21.5103V60.048C21.5103 62.2687 21.5103 67.4671 26.6385 67.4671C30.2916 67.4671 33.9647 62.8811 38.2187 57.5692L38.3306 57.4295C38.936 56.6739 39.5425 55.917 40.1448 55.1822H61.3744C68.5385 55.1822 74.3664 49.4367 74.3664 42.375V12.8056C74.3664 5.74542 68.5385 0 61.3744 0ZM16.0408 16.6908C16.0408 16.0556 16.5556 15.5408 17.1908 15.5408H48.5624C49.1976 15.5408 49.7124 16.0556 49.7124 16.6908V20.3481C49.7124 20.9832 49.1976 21.4981 48.5624 21.4981H17.1908C16.5556 21.4981 16.0408 20.9832 16.0408 20.3481V16.6908ZM16.0408 29.6414C16.0408 29.0063 16.5556 28.4914 17.1908 28.4914H48.5624C49.1976 28.4914 49.7124 29.0063 49.7124 29.6414V33.2987C49.7124 33.9338 49.1976 34.4487 48.5624 34.4487H17.1908C16.5556 34.4487 16.0408 33.9338 16.0408 33.2987V29.6414Z" fill="#AEB5BD"/>
</svg>
