<svg width="218" height="178" viewBox="0 0 218 178" fill="none" xmlns="http://www.w3.org/2000/svg">
	<path fill-rule="evenodd" clip-rule="evenodd" d="M156.909 5.08173C158.238 5.08173 159.315 4.0047 159.315 2.67612C159.315 1.34754 158.238 0.270508 156.909 0.270508C155.58 0.270508 154.503 1.34754 154.503 2.67612C154.503 4.0047 155.58 5.08173 156.909 5.08173ZM38.2039 25.8624C41.0841 25.8624 43.4189 23.5275 43.4189 20.6474C43.4189 17.7672 41.0841 15.4324 38.2039 15.4324C35.3237 15.4324 32.9889 17.7672 32.9889 20.6474C32.9889 23.5275 35.3237 25.8624 38.2039 25.8624ZM38.2039 22.9547C39.4782 22.9547 40.5112 21.9217 40.5112 20.6474C40.5112 19.3731 39.4782 18.34 38.2039 18.34C36.9296 18.34 35.8965 19.3731 35.8965 20.6474C35.8965 21.9217 36.9296 22.9547 38.2039 22.9547ZM11.7102 76.7733C15.5894 76.7733 18.7341 73.6286 18.7341 69.7494C18.7341 65.8702 15.5894 62.7255 11.7102 62.7255C7.83099 62.7255 4.68628 65.8702 4.68628 69.7494C4.68628 73.6286 7.83099 76.7733 11.7102 76.7733ZM11.7102 73.1075C13.5648 73.1075 15.0683 71.604 15.0683 69.7494C15.0683 67.8947 13.5648 66.3912 11.7102 66.3912C9.85555 66.3912 8.35206 67.8947 8.35206 69.7494C8.35206 71.604 9.85555 73.1075 11.7102 73.1075ZM190.039 165.155C192.801 165.155 195.04 162.916 195.04 160.154C195.04 157.393 192.801 155.154 190.039 155.154C187.278 155.154 185.039 157.393 185.039 160.154C185.039 162.916 187.278 165.155 190.039 165.155ZM190.039 162.553C191.364 162.553 192.438 161.479 192.438 160.154C192.438 158.83 191.364 157.756 190.039 157.756C188.715 157.756 187.641 158.83 187.641 160.154C187.641 161.479 188.715 162.553 190.039 162.553ZM110 178C157.496 178 196 139.496 196 91.9998C196 44.5033 157.496 5.99976 110 5.99976C62.5035 5.99976 24 44.5033 24 91.9998C24 139.496 62.5035 178 110 178ZM23.9588 171.988H7.24022C7.09716 171.988 6.95534 171.983 6.81493 171.972C3.03648 171.884 0.000190901 168.709 0 164.805C0.00109851 162.902 0.737676 161.077 2.04769 159.733C2.71919 159.043 3.51317 158.509 4.37699 158.152C4.36254 157.958 4.35518 157.763 4.35518 157.565C4.35637 155.558 5.13359 153.633 6.51587 152.214C7.89815 150.795 9.77226 149.999 11.7259 150C14.2285 150.003 16.438 151.289 17.7658 153.252C18.3964 153.022 19.0752 152.898 19.7823 152.898C22.9062 152.902 25.472 155.349 25.7694 158.479C28.7627 159.149 31.0026 161.89 31 165.166C30.9969 168.942 28.0168 172.001 24.3426 172C24.2138 172 24.0858 171.996 23.9588 171.988ZM201.138 38.992H213.003C213.093 38.9971 213.184 38.9997 213.275 38.9998C215.883 39.0008 217.998 36.9152 218 34.3407C218.002 32.1067 216.412 30.2382 214.288 29.7809C214.077 27.6471 212.256 25.9785 210.039 25.9758C209.537 25.9756 209.055 26.0606 208.608 26.2172C207.666 24.8788 206.098 24.0019 204.322 23.9998C202.935 23.9989 201.605 24.5419 200.624 25.5093C199.643 26.4767 199.092 27.7892 199.091 29.1581C199.091 29.2928 199.096 29.4262 199.106 29.5582C198.493 29.8015 197.93 30.1658 197.453 30.6358C196.524 31.5526 196.001 32.7966 196 34.0939C196 36.7558 198.155 38.9208 200.836 38.981C200.936 38.9883 201.037 38.992 201.138 38.992Z" fill="#E5F9FF"/>
	<g filter="url(#filter0_d_13561_143301)">
		<path d="M161.192 75.5294C161.192 71.3904 159.31 67.4762 156.076 64.8925L112.93 30.418C110.432 28.4219 106.882 28.4335 104.397 30.4457L61.8548 64.8936C58.6623 67.4787 56.8076 71.367 56.8076 75.4749V138.192C56.8076 141.952 59.8555 145 63.6153 145H154.385C158.144 145 161.192 141.952 161.192 138.192V75.5294Z" fill="white"/>
	</g>
	<path opacity="0.5" fill-rule="evenodd" clip-rule="evenodd" d="M155.368 65.7789L112.222 31.3044C110.14 29.641 107.181 29.6506 105.111 31.3275L62.5688 65.7753C59.6424 68.145 57.9422 71.7093 57.9422 75.4749V138.192C57.9422 141.325 60.4822 143.865 63.6153 143.865H154.385C157.518 143.865 160.058 141.325 160.058 138.192V75.5294C160.058 71.7353 158.332 68.1473 155.368 65.7789ZM156.076 64.8925C159.31 67.4762 161.192 71.3904 161.192 75.5294V138.192C161.192 141.952 158.144 145 154.385 145H63.6153C59.8555 145 56.8076 141.952 56.8076 138.192V75.4749C56.8076 71.367 58.6623 67.4787 61.8548 64.8936L104.397 30.4457C106.882 28.4335 110.432 28.4219 112.93 30.418L156.076 64.8925Z" fill="#2FC6F6"/>
	<g opacity="0.3" filter="url(#filter1_d_13561_143301)">
		<path d="M71.5576 87.1348C71.5576 83.3751 74.6055 80.3271 78.3653 80.3271H139.635C143.394 80.3271 146.442 83.3751 146.442 87.1348V137.058C146.442 140.818 143.394 143.866 139.635 143.866H78.3653C74.6055 143.866 71.5576 140.818 71.5576 137.058V87.1348Z" fill="#2FC6F6"/>
	</g>
	<g opacity="0.3" filter="url(#filter2_d_13561_143301)">
		<path d="M71.5576 87.1348C71.5576 83.3751 74.6055 80.3271 78.3653 80.3271H139.635C143.394 80.3271 146.442 83.3751 146.442 87.1348V99.6156H71.5576V87.1348Z" fill="#2FC6F6"/>
	</g>
	<path opacity="0.5" fill-rule="evenodd" clip-rule="evenodd" d="M139.635 81.4618H78.3653C75.2322 81.4618 72.6922 84.0017 72.6922 87.1348V98.481H145.308V87.1348C145.308 84.0017 142.768 81.4618 139.635 81.4618ZM78.3653 80.3271C74.6055 80.3271 71.5576 83.3751 71.5576 87.1348V99.6156H146.442V87.1348C146.442 83.3751 143.394 80.3271 139.635 80.3271H78.3653Z" fill="#2FC6F6"/>
	<path opacity="0.3" d="M72.6924 89.4043H145.308V90.5389H72.6924V89.4043Z" fill="white"/>
	<g filter="url(#filter3_d_13561_143301)">
		<path d="M116 107.269C116 106.016 117.016 105 118.269 105H130.75C132.003 105 133.019 106.016 133.019 107.269V119.75C133.019 121.003 132.003 122.019 130.75 122.019H118.269C117.016 122.019 116 121.003 116 119.75V107.269Z" fill="#2FC6F6"/>
	</g>
	<g opacity="0.5" filter="url(#filter4_d_13561_143301)">
		<path d="M116.942 59.9042C116.942 64.2906 113.386 67.8465 109 67.8465C104.614 67.8465 101.058 64.2906 101.058 59.9042C101.058 55.5178 104.614 51.9619 109 51.9619C113.386 51.9619 116.942 55.5178 116.942 59.9042Z" fill="#2FC6F6"/>
	</g>
	<g filter="url(#filter5_d_13561_143301)">
		<path d="M126.423 126.115C126.423 124.862 127.439 123.846 128.692 123.846H141.173C142.426 123.846 143.442 124.862 143.442 126.115V138.596C143.442 139.849 142.426 140.865 141.173 140.865H128.692C127.439 140.865 126.423 139.849 126.423 138.596V126.115Z" fill="#2FC6F6"/>
	</g>
	<g filter="url(#filter6_d_13561_143301)">
		<path d="M106 126.115C106 124.862 107.016 123.846 108.269 123.846H120.75C122.003 123.846 123.019 124.862 123.019 126.115V138.596C123.019 139.849 122.003 140.865 120.75 140.865H108.269C107.016 140.865 106 139.849 106 138.596V126.115Z" fill="#2FC6F6"/>
	</g>
	<defs>
		<filter id="filter0_d_13561_143301" x="43.7142" y="18.4108" width="130.572" height="142.258" filterUnits="userSpaceOnUse" color-interpolation-filters="sRGB">
			<feFlood flood-opacity="0" result="BackgroundImageFix"/>
			<feColorMatrix in="SourceAlpha" type="matrix" values="0 0 0 0 0 0 0 0 0 0 0 0 0 0 0 0 0 0 127 0" result="hardAlpha"/>
			<feOffset dy="2.57558"/>
			<feGaussianBlur stdDeviation="6.54673"/>
			<feComposite in2="hardAlpha" operator="out"/>
			<feColorMatrix type="matrix" values="0 0 0 0 0.392157 0 0 0 0 0.427451 0 0 0 0 0.482353 0 0 0 0.16 0"/>
			<feBlend mode="normal" in2="BackgroundImageFix" result="effect1_dropShadow_13561_143301"/>
			<feBlend mode="normal" in="SourceGraphic" in2="effect1_dropShadow_13561_143301" result="shape"/>
		</filter>
		<filter id="filter1_d_13561_143301" x="64.1403" y="76.6185" width="89.7194" height="78.3727" filterUnits="userSpaceOnUse" color-interpolation-filters="sRGB">
			<feFlood flood-opacity="0" result="BackgroundImageFix"/>
			<feColorMatrix in="SourceAlpha" type="matrix" values="0 0 0 0 0 0 0 0 0 0 0 0 0 0 0 0 0 0 127 0" result="hardAlpha"/>
			<feOffset dy="3.70866"/>
			<feGaussianBlur stdDeviation="3.70866"/>
			<feComposite in2="hardAlpha" operator="out"/>
			<feColorMatrix type="matrix" values="0 0 0 0 0.392157 0 0 0 0 0.427451 0 0 0 0 0.482353 0 0 0 0.1 0"/>
			<feBlend mode="normal" in2="BackgroundImageFix" result="effect1_dropShadow_13561_143301"/>
			<feBlend mode="normal" in="SourceGraphic" in2="effect1_dropShadow_13561_143301" result="shape"/>
		</filter>
		<filter id="filter2_d_13561_143301" x="68.5576" y="78.3271" width="80.8848" height="25.2881" filterUnits="userSpaceOnUse" color-interpolation-filters="sRGB">
			<feFlood flood-opacity="0" result="BackgroundImageFix"/>
			<feColorMatrix in="SourceAlpha" type="matrix" values="0 0 0 0 0 0 0 0 0 0 0 0 0 0 0 0 0 0 127 0" result="hardAlpha"/>
			<feOffset dy="1"/>
			<feGaussianBlur stdDeviation="1.5"/>
			<feComposite in2="hardAlpha" operator="out"/>
			<feColorMatrix type="matrix" values="0 0 0 0 0.392157 0 0 0 0 0.427451 0 0 0 0 0.482353 0 0 0 0.1 0"/>
			<feBlend mode="normal" in2="BackgroundImageFix" result="effect1_dropShadow_13561_143301"/>
			<feBlend mode="normal" in="SourceGraphic" in2="effect1_dropShadow_13561_143301" result="shape"/>
		</filter>
		<filter id="filter3_d_13561_143301" x="108.583" y="101.291" width="31.8542" height="31.8542" filterUnits="userSpaceOnUse" color-interpolation-filters="sRGB">
			<feFlood flood-opacity="0" result="BackgroundImageFix"/>
			<feColorMatrix in="SourceAlpha" type="matrix" values="0 0 0 0 0 0 0 0 0 0 0 0 0 0 0 0 0 0 127 0" result="hardAlpha"/>
			<feOffset dy="3.70866"/>
			<feGaussianBlur stdDeviation="3.70866"/>
			<feComposite in2="hardAlpha" operator="out"/>
			<feColorMatrix type="matrix" values="0 0 0 0 0.392157 0 0 0 0 0.427451 0 0 0 0 0.482353 0 0 0 0.1 0"/>
			<feBlend mode="normal" in2="BackgroundImageFix" result="effect1_dropShadow_13561_143301"/>
			<feBlend mode="normal" in="SourceGraphic" in2="effect1_dropShadow_13561_143301" result="shape"/>
		</filter>
		<filter id="filter4_d_13561_143301" x="93.6403" y="48.2533" width="30.7194" height="30.7194" filterUnits="userSpaceOnUse" color-interpolation-filters="sRGB">
			<feFlood flood-opacity="0" result="BackgroundImageFix"/>
			<feColorMatrix in="SourceAlpha" type="matrix" values="0 0 0 0 0 0 0 0 0 0 0 0 0 0 0 0 0 0 127 0" result="hardAlpha"/>
			<feOffset dy="3.70866"/>
			<feGaussianBlur stdDeviation="3.70866"/>
			<feComposite in2="hardAlpha" operator="out"/>
			<feColorMatrix type="matrix" values="0 0 0 0 0.392157 0 0 0 0 0.427451 0 0 0 0 0.482353 0 0 0 0.1 0"/>
			<feBlend mode="normal" in2="BackgroundImageFix" result="effect1_dropShadow_13561_143301"/>
			<feBlend mode="normal" in="SourceGraphic" in2="effect1_dropShadow_13561_143301" result="shape"/>
		</filter>
		<filter id="filter5_d_13561_143301" x="119.006" y="120.137" width="31.8542" height="31.8542" filterUnits="userSpaceOnUse" color-interpolation-filters="sRGB">
			<feFlood flood-opacity="0" result="BackgroundImageFix"/>
			<feColorMatrix in="SourceAlpha" type="matrix" values="0 0 0 0 0 0 0 0 0 0 0 0 0 0 0 0 0 0 127 0" result="hardAlpha"/>
			<feOffset dy="3.70866"/>
			<feGaussianBlur stdDeviation="3.70866"/>
			<feComposite in2="hardAlpha" operator="out"/>
			<feColorMatrix type="matrix" values="0 0 0 0 0.392157 0 0 0 0 0.427451 0 0 0 0 0.482353 0 0 0 0.1 0"/>
			<feBlend mode="normal" in2="BackgroundImageFix" result="effect1_dropShadow_13561_143301"/>
			<feBlend mode="normal" in="SourceGraphic" in2="effect1_dropShadow_13561_143301" result="shape"/>
		</filter>
		<filter id="filter6_d_13561_143301" x="98.5827" y="120.137" width="31.8542" height="31.8542" filterUnits="userSpaceOnUse" color-interpolation-filters="sRGB">
			<feFlood flood-opacity="0" result="BackgroundImageFix"/>
			<feColorMatrix in="SourceAlpha" type="matrix" values="0 0 0 0 0 0 0 0 0 0 0 0 0 0 0 0 0 0 127 0" result="hardAlpha"/>
			<feOffset dy="3.70866"/>
			<feGaussianBlur stdDeviation="3.70866"/>
			<feComposite in2="hardAlpha" operator="out"/>
			<feColorMatrix type="matrix" values="0 0 0 0 0.392157 0 0 0 0 0.427451 0 0 0 0 0.482353 0 0 0 0.1 0"/>
			<feBlend mode="normal" in2="BackgroundImageFix" result="effect1_dropShadow_13561_143301"/>
			<feBlend mode="normal" in="SourceGraphic" in2="effect1_dropShadow_13561_143301" result="shape"/>
		</filter>
	</defs>
</svg>
