<svg width="173" height="173" viewBox="0 0 173 173" fill="none" xmlns="http://www.w3.org/2000/svg">
	<path opacity="0.3" d="M72.5439 48.2021C73.5519 43.9003 77.8585 41.2214 82.1628 42.2184L131.636 53.6783C135.94 54.6754 138.612 58.9709 137.604 63.2726L122.385 128.216C121.377 132.517 117.071 135.196 112.767 134.199L63.2934 122.74C58.9891 121.742 56.317 117.447 57.325 113.145L72.5439 48.2021Z" fill="white"/>
	<path opacity="0.3" fill-rule="evenodd" clip-rule="evenodd" d="M82.0487 42.7052C81.7248 42.6302 81.4011 42.5774 81.0793 42.5458L81.1795 41.5512C81.5443 41.587 81.9107 41.6468 82.2768 41.7316L83.2282 41.952L83.0001 42.9256L82.0487 42.7052ZM86.8057 43.8072L84.9029 43.3664L85.1311 42.3928L87.0339 42.8335L86.8057 43.8072ZM90.6113 44.6887L88.7085 44.2479L88.9367 43.2743L90.8395 43.7151L90.6113 44.6887ZM94.417 45.5702L92.5141 45.1295L92.7423 44.1558L94.6451 44.5966L94.417 45.5702ZM98.2226 46.4518L96.3198 46.011L96.5479 45.0374L98.4507 45.4781L98.2226 46.4518ZM102.028 47.3333L100.125 46.8925L100.354 45.9189L102.256 46.3597L102.028 47.3333ZM105.834 48.2148L103.931 47.7741L104.159 46.8004L106.062 47.2412L105.834 48.2148ZM109.639 49.0964L107.737 48.6556L107.965 47.682L109.868 48.1227L109.639 49.0964ZM113.445 49.9779L111.542 49.5371L111.77 48.5635L113.673 49.0043L113.445 49.9779ZM117.251 50.8594L115.348 50.4187L115.576 49.445L117.479 49.8858L117.251 50.8594ZM121.056 51.741L119.154 51.3002L119.382 50.3266L121.284 50.7673L121.056 51.741ZM124.862 52.6225L122.959 52.1817L123.187 51.2081L125.09 51.6489L124.862 52.6225ZM128.668 53.504L126.765 53.0633L126.993 52.0896L128.896 52.5304L128.668 53.504ZM131.522 54.1652L130.57 53.9448L130.799 52.9712L131.75 53.1916C132.116 53.2764 132.471 53.3837 132.815 53.5119L132.462 54.4481C132.159 54.3351 131.846 54.2402 131.522 54.1652ZM135.616 56.7039C135.204 56.2011 134.725 55.7505 134.189 55.3669L134.773 54.554C135.381 54.9891 135.924 55.4999 136.391 56.0694L135.616 56.7039ZM79.1222 42.6113C78.4707 42.7199 77.8408 42.9136 77.2474 43.1834L76.8347 42.2738C77.5068 41.9683 78.2209 41.7486 78.9597 41.6255L79.1222 42.6113ZM137.218 60.2364C137.111 59.586 136.918 58.9572 136.65 58.365L137.561 57.9507C137.865 58.6214 138.084 59.3341 138.205 60.0719L137.218 60.2364ZM75.5819 44.2194C75.0777 44.6325 74.6254 45.1119 74.2402 45.6483L73.4277 45.0669C73.8647 44.4585 74.3773 43.9151 74.9485 43.4472L75.5819 44.2194ZM137.117 63.1598C137.193 62.8362 137.247 62.5127 137.279 62.1912L138.275 62.289C138.238 62.6535 138.177 63.0196 138.091 63.3855L137.868 64.3406L136.893 64.1149L137.117 63.1598ZM73.3164 47.3749C73.2025 47.6776 73.1068 47.9913 73.0309 48.315L72.8071 49.27L71.8329 49.0443L72.0567 48.0893C72.1425 47.7234 72.2508 47.3683 72.3799 47.0252L73.3164 47.3749ZM135.998 67.9351L136.446 66.025L137.42 66.2506L136.972 68.1607L135.998 67.9351ZM72.3595 51.1801L71.9119 53.0902L70.9377 52.8645L71.3853 50.9544L72.3595 51.1801ZM135.103 71.7553L135.551 69.8452L136.525 70.0708L136.077 71.9809L135.103 71.7553ZM71.4643 55.0003L71.0167 56.9104L70.0425 56.6847L70.4901 54.7746L71.4643 55.0003ZM134.208 75.5754L134.655 73.6653L135.629 73.891L135.182 75.8011L134.208 75.5754ZM70.5691 58.8205L70.1215 60.7305L69.1473 60.5049L69.5949 58.5948L70.5691 58.8205ZM133.312 79.3956L133.76 77.4855L134.734 77.7112L134.287 79.6213L133.312 79.3956ZM69.6738 62.6406L69.2262 64.5507L68.252 64.3251L68.6996 62.415L69.6738 62.6406ZM132.417 83.2158L132.865 81.3057L133.839 81.5314L133.391 83.4415L132.417 83.2158ZM68.7786 66.4608L68.331 68.3709L67.3568 68.1452L67.8044 66.2352L68.7786 66.4608ZM131.522 87.036L131.97 85.1259L132.944 85.3516L132.496 87.2617L131.522 87.036ZM67.8834 70.281L67.4358 72.1911L66.4616 71.9654L66.9092 70.0553L67.8834 70.281ZM130.627 90.8562L131.074 88.9461L132.049 89.1717L131.601 91.0818L130.627 90.8562ZM66.9882 74.1012L66.5406 76.0113L65.5664 75.7856L66.014 73.8755L66.9882 74.1012ZM129.732 94.6764L130.179 92.7663L131.153 92.9919L130.706 94.902L129.732 94.6764ZM66.0929 77.9214L65.6453 79.8315L64.6711 79.6058L65.1187 77.6957L66.0929 77.9214ZM128.836 98.4965L129.284 96.5864L130.258 96.8121L129.811 98.7222L128.836 98.4965ZM65.1977 81.7416L64.7501 83.6516L63.7759 83.426L64.2235 81.5159L65.1977 81.7416ZM127.941 102.317L128.389 100.407L129.363 100.632L128.915 102.542L127.941 102.317ZM64.3025 85.5617L63.8549 87.4718L62.8807 87.2462L63.3283 85.3361L64.3025 85.5617ZM127.046 106.137L127.493 104.227L128.468 104.452L128.02 106.363L127.046 106.137ZM63.4073 89.3819L62.9597 91.292L61.9855 91.0663L62.4331 89.1563L63.4073 89.3819ZM126.151 109.957L126.598 108.047L127.572 108.273L127.125 110.183L126.151 109.957ZM62.512 93.2021L62.0644 95.1122L61.0902 94.8865L61.5378 92.9764L62.512 93.2021ZM125.255 113.777L125.703 111.867L126.677 112.093L126.23 114.003L125.255 113.777ZM61.6168 97.0223L61.1692 98.9324L60.195 98.7067L60.6426 96.7966L61.6168 97.0223ZM124.36 117.597L124.808 115.687L125.782 115.913L125.334 117.823L124.36 117.597ZM60.7216 100.842L60.274 102.753L59.2998 102.527L59.7474 100.617L60.7216 100.842ZM123.465 121.418L123.913 119.508L124.887 119.733L124.439 121.643L123.465 121.418ZM59.8264 104.663L59.3788 106.573L58.4046 106.347L58.8522 104.437L59.8264 104.663ZM122.57 125.238L123.017 123.328L123.992 123.553L123.544 125.463L122.57 125.238ZM58.9311 108.483L58.4835 110.393L57.5093 110.167L57.9569 108.257L58.9311 108.483ZM121.898 128.103L122.122 127.148L123.096 127.374L122.873 128.329C122.787 128.695 122.678 129.05 122.549 129.393L121.613 129.043C121.727 128.74 121.822 128.427 121.898 128.103ZM58.0359 112.303L57.8121 113.258C57.7363 113.582 57.6827 113.905 57.6503 114.227L56.6547 114.129C56.6915 113.764 56.7522 113.398 56.8379 113.032L57.0617 112.077L58.0359 112.303ZM119.347 132.199C119.852 131.785 120.304 131.306 120.689 130.77L121.502 131.351C121.065 131.959 120.552 132.503 119.981 132.971L119.347 132.199ZM57.7114 116.182C57.8185 116.832 58.011 117.461 58.2797 118.053L57.3682 118.467C57.0639 117.796 56.8456 117.084 56.7241 116.346L57.7114 116.182ZM115.807 133.807C116.459 133.698 117.088 133.504 117.682 133.235L118.095 134.144C117.422 134.45 116.708 134.669 115.97 134.792L115.807 133.807ZM59.3131 119.714C59.7255 120.217 60.2045 120.667 60.7405 121.051L60.1566 121.864C59.5485 121.429 59.0057 120.918 58.5386 120.349L59.3131 119.714ZM62.467 121.97C62.7698 122.083 63.0836 122.178 63.4075 122.253L64.3589 122.473L64.1307 123.447L63.1793 123.226C62.8132 123.142 62.4579 123.034 62.1148 122.906L62.467 121.97ZM112.881 133.713C113.204 133.788 113.528 133.84 113.85 133.872L113.75 134.867C113.385 134.831 113.019 134.771 112.652 134.686L111.701 134.466L111.929 133.492L112.881 133.713ZM66.2617 122.914L68.1645 123.355L67.9363 124.328L66.0335 123.888L66.2617 122.914ZM70.0673 123.795L71.9701 124.236L71.742 125.21L69.8392 124.769L70.0673 123.795ZM73.8729 124.677L75.7757 125.118L75.5476 126.091L73.6448 125.651L73.8729 124.677ZM77.6786 125.558L79.5814 125.999L79.3532 126.973L77.4504 126.532L77.6786 125.558ZM81.4842 126.44L83.387 126.881L83.1588 127.854L81.256 127.414L81.4842 126.44ZM85.2898 127.322L87.1926 127.762L86.9645 128.736L85.0616 128.295L85.2898 127.322ZM89.0954 128.203L90.9982 128.644L90.7701 129.617L88.8673 129.177L89.0954 128.203ZM92.9011 129.085L94.8039 129.525L94.5757 130.499L92.6729 130.058L92.9011 129.085ZM96.7067 129.966L98.6095 130.407L98.3813 131.381L96.4785 130.94L96.7067 129.966ZM100.512 130.848L102.415 131.288L102.187 132.262L100.284 131.821L100.512 130.848ZM104.318 131.729L106.221 132.17L105.993 133.144L104.09 132.703L104.318 131.729ZM108.124 132.611L110.026 133.052L109.798 134.025L107.895 133.584L108.124 132.611Z" fill="#2FC6F6"/>
	<path opacity="0.3" d="M35.5818 82.2293C34.432 77.9632 36.961 73.5829 41.2304 72.4455L90.2963 59.3743C94.5656 58.237 98.9587 60.7733 100.108 65.0393L115.267 121.284C116.416 125.55 113.887 129.93 109.618 131.067L60.5522 144.138C56.2828 145.276 51.8897 142.74 50.74 138.473L35.5818 82.2293Z" fill="white"/>
	<path opacity="0.3" fill-rule="evenodd" clip-rule="evenodd" d="M41.3605 72.9278C41.0392 73.0134 40.7287 73.1185 40.4298 73.2414L40.0468 72.3173C40.3856 72.178 40.7371 72.059 41.1003 71.9623L42.0438 71.7109L42.3041 72.6765L41.3605 72.9278ZM46.0784 71.671L44.1912 72.1737L43.931 71.2082L45.8181 70.7055L46.0784 71.671ZM49.8527 70.6655L47.9655 71.1683L47.7053 70.2027L49.5924 69.7L49.8527 70.6655ZM53.6269 69.6601L51.7398 70.1628L51.4796 69.1972L53.3667 68.6945L53.6269 69.6601ZM57.4012 68.6546L55.5141 69.1573L55.2539 68.1918L57.141 67.689L57.4012 68.6546ZM61.1755 67.6491L59.2884 68.1518L59.0282 67.1863L60.9153 66.6836L61.1755 67.6491ZM64.9498 66.6436L63.0627 67.1464L62.8025 66.1808L64.6896 65.6781L64.9498 66.6436ZM68.7241 65.6382L66.837 66.1409L66.5768 65.1753L68.4639 64.6726L68.7241 65.6382ZM72.4984 64.6327L70.6113 65.1354L70.3511 64.1699L72.2382 63.6671L72.4984 64.6327ZM76.2727 63.6272L74.3856 64.1299L74.1254 63.1644L76.0125 62.6617L76.2727 63.6272ZM80.047 62.6217L78.1599 63.1245L77.8997 62.1589L79.7868 61.6562L80.047 62.6217ZM83.8213 61.6163L81.9342 62.119L81.674 61.1535L83.5611 60.6507L83.8213 61.6163ZM87.5956 60.6108L85.7085 61.1135L85.4483 60.148L87.3354 59.6452L87.5956 60.6108ZM90.4264 59.8567L89.4828 60.1081L89.2226 59.1425L90.1661 58.8911C90.5293 58.7944 90.8935 58.7226 91.257 58.6749L91.39 59.6656C91.0694 59.7077 90.7476 59.7711 90.4264 59.8567ZM38.7345 74.2162C38.2113 74.6171 37.7475 75.0831 37.3519 75.599L36.5568 74.9903C37.0049 74.4059 37.5306 73.8776 38.124 73.4229L38.7345 74.2162ZM95.2413 60.1773C94.6392 59.9271 94.0031 59.7541 93.3484 59.667L93.4782 58.6765C94.2208 58.7753 94.9417 58.9715 95.6237 59.2548L95.2413 60.1773ZM36.3739 77.293C36.1249 77.8936 35.9532 78.5283 35.8676 79.1818L34.8753 79.0497C34.9724 78.3085 35.1671 77.5891 35.4491 76.9088L36.3739 77.293ZM98.3285 62.5422C97.9257 62.0188 97.4578 61.5545 96.9401 61.1581L97.5478 60.3657C98.1341 60.8146 98.6645 61.3409 99.1214 61.9346L98.3285 62.5422ZM99.6253 65.1676C99.5388 64.8466 99.4327 64.5363 99.3089 64.2375L100.233 63.8574C100.374 64.196 100.494 64.5473 100.592 64.9102L100.844 65.8476L99.8779 66.105L99.6253 65.1676ZM35.8711 81.1374C35.9141 81.4577 35.9784 81.7791 36.0649 82.1001L36.3175 83.0376L35.3512 83.295L35.0986 82.3576C35.0008 81.9947 34.928 81.6308 34.8793 81.2677L35.8711 81.1374ZM100.888 69.8546L100.383 67.9798L101.349 67.7224L101.855 69.5972L100.888 69.8546ZM36.8228 84.9124L37.3281 86.7872L36.3618 87.0446L35.8565 85.1698L36.8228 84.9124ZM101.899 73.6043L101.394 71.7295L102.36 71.472L102.865 73.3468L101.899 73.6043ZM37.8334 88.662L38.3386 90.5368L37.3723 90.7942L36.8671 88.9194L37.8334 88.662ZM102.91 77.3539L102.404 75.4791L103.371 75.2216L103.876 77.0964L102.91 77.3539ZM38.8439 92.4116L39.3492 94.2864L38.3829 94.5438L37.8776 92.669L38.8439 92.4116ZM103.92 81.1035L103.415 79.2287L104.381 78.9713L104.886 80.8461L103.92 81.1035ZM39.8545 96.1612L40.3597 98.036L39.3934 98.2934L38.8882 96.4186L39.8545 96.1612ZM104.931 84.8531L104.425 82.9783L105.392 82.7209L105.897 84.5957L104.931 84.8531ZM40.865 99.9108L41.3703 101.786L40.404 102.043L39.8987 100.168L40.865 99.9108ZM105.941 88.6027L105.436 86.7279L106.402 86.4705L106.907 88.3453L105.941 88.6027ZM41.8756 103.66L42.3808 105.535L41.4145 105.793L40.9093 103.918L41.8756 103.66ZM106.952 92.3523L106.446 90.4775L107.413 90.2201L107.918 92.0949L106.952 92.3523ZM42.8861 107.41L43.3914 109.285L42.4251 109.542L41.9198 107.667L42.8861 107.41ZM107.962 96.1019L107.457 94.2271L108.423 93.9697L108.929 95.8445L107.962 96.1019ZM43.8966 111.16L44.4019 113.034L43.4356 113.292L42.9303 111.417L43.8966 111.16ZM108.973 99.8515L108.468 97.9767L109.434 97.7193L109.939 99.5941L108.973 99.8515ZM44.9072 114.909L45.4125 116.784L44.4462 117.041L43.9409 115.167L44.9072 114.909ZM109.983 103.601L109.478 101.726L110.444 101.469L110.95 103.344L109.983 103.601ZM45.9177 118.659L46.423 120.534L45.4567 120.791L44.9514 118.916L45.9177 118.659ZM110.994 107.351L110.489 105.476L111.455 105.219L111.96 107.093L110.994 107.351ZM46.9283 122.408L47.4336 124.283L46.4673 124.541L45.962 122.666L46.9283 122.408ZM112.004 111.1L111.499 109.226L112.465 108.968L112.971 110.843L112.004 111.1ZM47.9388 126.158L48.4441 128.033L47.4778 128.29L46.9725 126.416L47.9388 126.158ZM113.015 114.85L112.51 112.975L113.476 112.718L113.981 114.593L113.015 114.85ZM48.9494 129.908L49.4547 131.783L48.4884 132.04L47.9831 130.165L48.9494 129.908ZM114.026 118.6L113.52 116.725L114.487 116.467L114.992 118.342L114.026 118.6ZM49.9599 133.657L50.4652 135.532L49.4989 135.79L48.9936 133.915L49.9599 133.657ZM114.783 121.412L114.531 120.474L115.497 120.217L115.75 121.154C115.848 121.517 115.92 121.881 115.969 122.244L114.977 122.375C114.934 122.054 114.87 121.733 114.783 121.412ZM50.9705 137.407L51.2231 138.344C51.3096 138.665 51.4156 138.976 51.5395 139.274L50.6149 139.655C50.4746 139.316 50.3546 138.965 50.2568 138.602L50.0042 137.664L50.9705 137.407ZM114.474 126.219C114.723 125.618 114.895 124.984 114.981 124.33L115.973 124.462C115.876 125.203 115.681 125.923 115.399 126.603L114.474 126.219ZM52.5199 140.97C52.9227 141.493 53.3906 141.957 53.9082 142.354L53.3006 143.146C52.7142 142.697 52.1839 142.171 51.727 141.577L52.5199 140.97ZM55.6071 143.335C56.2092 143.585 56.8453 143.758 57.5 143.845L57.3702 144.835C56.6276 144.737 55.9066 144.54 55.2247 144.257L55.6071 143.335ZM112.114 129.296C112.637 128.895 113.101 128.429 113.496 127.913L114.292 128.522C113.844 129.106 113.318 129.634 112.724 130.089L112.114 129.296ZM59.4583 143.846C59.779 143.804 60.1008 143.741 60.422 143.655L61.3656 143.404L61.6258 144.369L60.6822 144.621C60.3191 144.718 59.9548 144.789 59.5914 144.837L59.4583 143.846ZM109.488 130.584C109.809 130.499 110.12 130.393 110.419 130.271L110.802 131.195C110.463 131.334 110.111 131.453 109.748 131.55L108.805 131.801L108.544 130.835L109.488 130.584ZM63.2527 142.901L65.1399 142.398L65.4001 143.364L63.513 143.867L63.2527 142.901ZM67.027 141.896L68.9142 141.393L69.1744 142.359L67.2873 142.861L67.027 141.896ZM70.8013 140.89L72.6885 140.387L72.9487 141.353L71.0616 141.856L70.8013 140.89ZM74.5756 139.885L76.4628 139.382L76.723 140.348L74.8359 140.85L74.5756 139.885ZM78.3499 138.879L80.2371 138.377L80.4973 139.342L78.6102 139.845L78.3499 138.879ZM82.1242 137.874L84.0114 137.371L84.2716 138.337L82.3844 138.839L82.1242 137.874ZM85.8985 136.868L87.7857 136.366L88.0459 137.331L86.1587 137.834L85.8985 136.868ZM89.6728 135.863L91.56 135.36L91.8202 136.326L89.933 136.828L89.6728 135.863ZM93.4471 134.857L95.3343 134.355L95.5945 135.32L93.7073 135.823L93.4471 134.857ZM97.2214 133.852L99.1086 133.349L99.3688 134.315L97.4816 134.817L97.2214 133.852ZM100.996 132.846L102.883 132.344L103.143 133.309L101.256 133.812L100.996 132.846ZM104.77 131.841L106.657 131.338L106.917 132.304L105.03 132.807L104.77 131.841Z" fill="#2FC6F6"/>
	<g opacity="0.8" filter="url(#filter0_d_245_185296)">
		<path d="M46.5 46.4131C46.5 43.0994 49.1863 40.4131 52.5 40.4131H120.5C123.814 40.4131 126.5 43.0994 126.5 46.4131V133.835C126.5 137.149 123.814 139.835 120.5 139.835H52.5C49.1863 139.835 46.5 137.149 46.5 133.835V46.4131Z" fill="#2FC6F6"/>
	</g>
	<path d="M48.5 44.4131C48.5 42.2039 50.2909 40.4131 52.5 40.4131H120.5C122.709 40.4131 124.5 42.2039 124.5 44.4131V133.847C124.5 136.056 122.709 137.847 120.5 137.847H52.5C50.2909 137.847 48.5 136.056 48.5 133.847V44.4131Z" fill="#ECFAFE"/>
	<g filter="url(#filter1_d_245_185296)">
		<path d="M48.5 44.4131C48.5 42.204 50.2909 40.4131 52.5 40.4131H120.5C122.709 40.4131 124.5 42.2039 124.5 44.4131V129.87C124.5 132.079 122.709 133.87 120.5 133.87H52.5C50.2909 133.87 48.5 132.079 48.5 129.87V44.4131Z" fill="white"/>
	</g>
	<path opacity="0.6" d="M117.5 110.627C117.5 120.568 109.441 128.627 99.5 128.627C89.5589 128.627 81.5 120.568 81.5 110.627C81.5 100.686 89.5589 92.627 99.5 92.627C109.441 92.627 117.5 100.686 117.5 110.627ZM92.66 110.627C92.66 114.405 95.7224 117.467 99.5 117.467C103.278 117.467 106.34 114.405 106.34 110.627C106.34 106.849 103.278 103.787 99.5 103.787C95.7224 103.787 92.66 106.849 92.66 110.627Z" fill="#E5F9FF"/>
	<path d="M84.488 116.047C83.4569 116.428 82.9168 117.576 83.4013 118.563C84.32 120.434 85.5545 122.136 87.0538 123.588C89.0282 125.501 91.4096 126.932 94.0155 127.771C96.6215 128.611 99.383 128.836 102.089 128.431C104.794 128.025 107.372 127.076 109.625 125.509L103.437 116.252C102.581 116.847 101.486 117.167 100.458 117.321C99.4302 117.475 98.3809 117.389 97.3906 117.07C96.4003 116.751 95.4954 116.208 94.7452 115.481C94.4778 115.222 94.2326 114.942 94.0116 114.644C93.3498 113.754 92.2144 113.19 91.1734 113.575L84.488 116.047Z" fill="#D3F4FF"/>
	<path d="M109.039 125.891C111.788 124.174 114.022 121.745 115.505 118.863C116.989 115.98 117.666 112.751 117.466 109.516L106.327 110.205C106.403 111.434 106.146 112.661 105.582 113.757C105.018 114.852 104.169 115.775 103.125 116.427L109.039 125.891Z" fill="#7FDEFC"/>
	<path d="M109.039 125.891C111.788 124.174 114.022 121.745 115.505 118.863C116.989 115.98 117.666 112.751 117.466 109.516L106.327 110.205C106.403 111.434 106.146 112.661 105.582 113.757C105.018 114.852 104.169 115.775 103.125 116.427L109.039 125.891Z" fill="white" fill-opacity="0.4"/>
	<path d="M117.5 110.627C117.5 108.263 117.034 105.922 116.13 103.738C115.225 101.555 113.899 99.5702 112.228 97.8988C110.556 96.2273 108.572 94.9014 106.388 93.9968C104.822 93.348 103.174 92.925 101.496 92.7377C100.398 92.6152 99.5 93.5221 99.5 94.6267L99.5 101.787C99.5 102.891 100.414 103.759 101.472 104.077C101.69 104.143 101.906 104.22 102.118 104.307C102.947 104.651 103.701 105.155 104.337 105.79C104.972 106.425 105.476 107.179 105.819 108.009C106.163 108.839 106.34 109.728 106.34 110.627H117.5Z" fill="#2FC6F6"/>
	<path d="M117.5 110.627C117.5 108.263 117.034 105.922 116.13 103.738C115.225 101.555 113.899 99.5702 112.228 97.8988C110.556 96.2273 108.572 94.9014 106.388 93.9968C104.822 93.348 103.174 92.925 101.496 92.7377C100.398 92.6152 99.5 93.5221 99.5 94.6267L99.5 101.787C99.5 102.891 100.414 103.759 101.472 104.077C101.69 104.143 101.906 104.22 102.118 104.307C102.947 104.651 103.701 105.155 104.337 105.79C104.972 106.425 105.476 107.179 105.819 108.009C106.163 108.839 106.34 109.728 106.34 110.627H117.5Z" fill="white" fill-opacity="0.4"/>
	<rect x="57.5" y="59.3037" width="48" height="3.97688" rx="1.98844" fill="#C3F0FF"/>
	<rect x="57.5" y="69.2461" width="48" height="3.97688" rx="1.98844" fill="#C3F0FF"/>
	<rect x="57.5" y="79.1885" width="38" height="3.97688" rx="1.98844" fill="#C3F0FF"/>
	<rect x="57.5" y="89.1299" width="22" height="3.97688" rx="1.98844" fill="#C3F0FF"/>
	<g filter="url(#filter2_d_245_185296)">
		<path fill-rule="evenodd" clip-rule="evenodd" d="M92.5002 31.4653C92.5002 32.1625 92.3799 32.8318 92.1588 33.4538H97.1802C99.5107 33.4538 101.63 34.8033 102.617 36.915L106.171 44.5266C106.79 45.8526 105.822 47.3728 104.359 47.3728H68.5403C67.1026 47.3728 66.1345 45.9013 66.7036 44.5811L69.9377 37.0786C70.886 34.8787 73.052 33.4538 75.4476 33.4538H80.8417C80.6206 32.8318 80.5002 32.1625 80.5002 31.4653C80.5002 28.1708 83.1865 25.5 86.5002 25.5C89.814 25.5 92.5002 28.1708 92.5002 31.4653ZM86.5002 33.4538C87.6048 33.4538 88.5002 32.5635 88.5002 31.4653C88.5002 30.3671 87.6048 29.4769 86.5002 29.4769C85.3956 29.4769 84.5002 30.3671 84.5002 31.4653C84.5002 32.5635 85.3956 33.4538 86.5002 33.4538Z" fill="#7FDEFC"/>
	</g>
	<defs>
		<filter id="filter0_d_245_185296" x="42.5" y="38.4131" width="88" height="107.422" filterUnits="userSpaceOnUse" color-interpolation-filters="sRGB">
			<feFlood flood-opacity="0" result="BackgroundImageFix"/>
			<feColorMatrix in="SourceAlpha" type="matrix" values="0 0 0 0 0 0 0 0 0 0 0 0 0 0 0 0 0 0 127 0" result="hardAlpha"/>
			<feOffset dy="2"/>
			<feGaussianBlur stdDeviation="2"/>
			<feComposite in2="hardAlpha" operator="out"/>
			<feColorMatrix type="matrix" values="0 0 0 0 0.423529 0 0 0 0 0.423529 0 0 0 0 0.423529 0 0 0 0.14 0"/>
			<feBlend mode="normal" in2="BackgroundImageFix" result="effect1_dropShadow_245_185296"/>
			<feBlend mode="normal" in="SourceGraphic" in2="effect1_dropShadow_245_185296" result="shape"/>
		</filter>
		<filter id="filter1_d_245_185296" x="36.96" y="31.1431" width="99.08" height="116.537" filterUnits="userSpaceOnUse" color-interpolation-filters="sRGB">
			<feFlood flood-opacity="0" result="BackgroundImageFix"/>
			<feColorMatrix in="SourceAlpha" type="matrix" values="0 0 0 0 0 0 0 0 0 0 0 0 0 0 0 0 0 0 127 0" result="hardAlpha"/>
			<feOffset dy="2.27"/>
			<feGaussianBlur stdDeviation="5.77"/>
			<feComposite in2="hardAlpha" operator="out"/>
			<feColorMatrix type="matrix" values="0 0 0 0 0.392157 0 0 0 0 0.427451 0 0 0 0 0.482353 0 0 0 0.16 0"/>
			<feBlend mode="normal" in2="BackgroundImageFix" result="effect1_dropShadow_245_185296"/>
			<feBlend mode="normal" in="SourceGraphic" in2="effect1_dropShadow_245_185296" result="shape"/>
		</filter>
		<filter id="filter2_d_245_185296" x="65.5381" y="24.5" width="41.8232" height="23.873" filterUnits="userSpaceOnUse" color-interpolation-filters="sRGB">
			<feFlood flood-opacity="0" result="BackgroundImageFix"/>
			<feColorMatrix in="SourceAlpha" type="matrix" values="0 0 0 0 0 0 0 0 0 0 0 0 0 0 0 0 0 0 127 0" result="hardAlpha"/>
			<feOffset/>
			<feGaussianBlur stdDeviation="0.5"/>
			<feComposite in2="hardAlpha" operator="out"/>
			<feColorMatrix type="matrix" values="0 0 0 0 0.392157 0 0 0 0 0.427451 0 0 0 0 0.482353 0 0 0 0.1 0"/>
			<feBlend mode="normal" in2="BackgroundImageFix" result="effect1_dropShadow_245_185296"/>
			<feBlend mode="normal" in="SourceGraphic" in2="effect1_dropShadow_245_185296" result="shape"/>
		</filter>
	</defs>
</svg>