<svg width="218" height="178" viewBox="0 0 218 178" fill="none" xmlns="http://www.w3.org/2000/svg">
	<path fill-rule="evenodd" clip-rule="evenodd" d="M156.909 5.08198C158.238 5.08198 159.315 4.00495 159.315 2.67636C159.315 1.34778 158.238 0.270752 156.909 0.270752C155.58 0.270752 154.503 1.34778 154.503 2.67636C154.503 4.00495 155.58 5.08198 156.909 5.08198ZM38.2039 25.8626C41.0841 25.8626 43.4189 23.5278 43.4189 20.6476C43.4189 17.7675 41.0841 15.4326 38.2039 15.4326C35.3237 15.4326 32.9889 17.7675 32.9889 20.6476C32.9889 23.5278 35.3237 25.8626 38.2039 25.8626ZM38.2039 22.955C39.4782 22.955 40.5112 21.9219 40.5112 20.6476C40.5112 19.3733 39.4782 18.3403 38.2039 18.3403C36.9296 18.3403 35.8965 19.3733 35.8965 20.6476C35.8965 21.9219 36.9296 22.955 38.2039 22.955ZM11.7102 76.7735C15.5894 76.7735 18.7341 73.6288 18.7341 69.7496C18.7341 65.8704 15.5894 62.7257 11.7102 62.7257C7.83099 62.7257 4.68628 65.8704 4.68628 69.7496C4.68628 73.6288 7.83099 76.7735 11.7102 76.7735ZM11.7102 73.1077C13.5648 73.1077 15.0683 71.6042 15.0683 69.7496C15.0683 67.895 13.5648 66.3915 11.7102 66.3915C9.85555 66.3915 8.35206 67.895 8.35206 69.7496C8.35206 71.6042 9.85555 73.1077 11.7102 73.1077ZM190.039 165.155C192.801 165.155 195.04 162.916 195.04 160.155C195.04 157.393 192.801 155.154 190.039 155.154C187.278 155.154 185.039 157.393 185.039 160.155C185.039 162.916 187.278 165.155 190.039 165.155ZM190.039 162.553C191.364 162.553 192.438 161.479 192.438 160.155C192.438 158.83 191.364 157.756 190.039 157.756C188.715 157.756 187.641 158.83 187.641 160.155C187.641 161.479 188.715 162.553 190.039 162.553ZM110 178C157.496 178 196 139.496 196 92C196 44.5035 157.496 6 110 6C62.5035 6 24 44.5035 24 92C24 139.496 62.5035 178 110 178ZM23.9588 171.989H7.24022C7.09716 171.989 6.95534 171.983 6.81493 171.973C3.03648 171.884 0.000190901 168.709 0 164.805C0.00109851 162.902 0.737676 161.078 2.04769 159.733C2.71919 159.044 3.51317 158.509 4.37699 158.152C4.36254 157.959 4.35518 157.763 4.35518 157.566C4.35637 155.558 5.13359 153.633 6.51587 152.214C7.89815 150.795 9.77226 149.999 11.7259 150C14.2285 150.003 16.438 151.289 17.7658 153.252C18.3964 153.023 19.0752 152.898 19.7823 152.898C22.9062 152.902 25.472 155.349 25.7694 158.479C28.7627 159.15 31.0026 161.89 31 165.167C30.9969 168.943 28.0168 172.002 24.3426 172C24.2138 172 24.0858 171.996 23.9588 171.989ZM201.138 38.9923H213.003C213.093 38.9974 213.184 39 213.275 39C215.883 39.0011 217.998 36.9155 218 34.341C218.002 32.1069 216.412 30.2384 214.288 29.7812C214.077 27.6473 212.256 25.9787 210.039 25.9761C209.537 25.9758 209.055 26.0609 208.608 26.2174C207.666 24.879 206.098 24.0021 204.322 24C202.935 23.9992 201.605 24.5422 200.624 25.5096C199.643 26.4769 199.092 27.7895 199.091 29.1584C199.091 29.293 199.096 29.4264 199.106 29.5584C198.493 29.8018 197.93 30.1661 197.453 30.636C196.524 31.5529 196.001 32.7968 196 34.0942C196 36.756 198.155 38.921 200.836 38.9813C200.936 38.9886 201.037 38.9923 201.138 38.9923Z" fill="#E5F9FF"/>
</svg>