<svg xmlns="http://www.w3.org/2000/svg" width="46" height="46" viewBox="0 0 46 46">
  <g fill="none" fill-rule="evenodd">
    <circle cx="22.906" cy="22.906" r="23" fill="#2FC6F6"/>
    <path fill="#FFFFFF" d="M20.4399608,8.85321797 C24.8472187,8.85321797 28.4192089,12.4258465 28.4192089,16.832466 C28.4192089,21.2397239 24.8472187,24.8117141 20.4399608,24.8117141 C16.0333413,24.8117141 12.4607128,21.2390855 12.4607128,16.832466 C12.4607128,12.4258465 16.0333413,8.85321797 20.4399608,8.85321797 Z M22.9238417,9.95110856 C22.8901788,10.0489724 22.861503,10.1156735 22.8421789,10.1250242 C21.60364,10.7278086 20.1392724,11.0077046 19.2609328,12.165318 C19.1368799,12.3280308 18.9741729,12.6353595 19.1505941,12.8292233 C19.3687787,13.0692292 19.4423793,12.7862053 20.238389,12.8429377 C21.0343988,12.8996702 23.2792613,13.4226939 23.3515725,13.7861168 C23.4245028,14.150162 22.4994207,14.8377498 21.5961379,14.3390468 C21.3292959,14.1919254 20.2670505,14.0092724 19.9054948,13.944441 C19.6530314,13.8989593 17.4743025,14.1726475 17.5709264,16.7627114 C17.6108227,17.8131794 17.9015517,18.9175266 19.3269993,18.5013896 C20.2772978,18.2239649 20.9626088,18.5398101 21.3829324,19.4489253 C21.4839178,20.6453763 21.6067237,21.5359668 21.7513502,22.1206967 C21.8386113,22.4735231 22.0250065,22.9691158 22.4719721,23.0077657 C23.1502082,23.0663653 23.6065254,22.610048 24.0135947,22.1369105 C24.338382,21.7597634 24.7491856,21.4318642 24.9910526,20.9898936 C25.3750619,20.2886454 25.2697039,19.4539363 25.6755285,18.7513954 C26.0034277,18.1840708 26.0366214,16.8099529 25.5229493,16.8486028 C24.4395589,16.9308954 23.7713827,16.4760288 23.5184207,15.484003 C24.4399706,15.2745893 25.3612036,15.0627915 26.2821197,14.8486097 C27.6634939,14.5273369 27.1378262,14.7367392 27.4015084,14.5808949 C27.3366802,14.3801689 27.2631211,14.1819325 27.180212,13.9861856 C26.8117941,13.1153783 26.2844137,12.333029 25.6124174,11.6610327 C24.9404051,10.9890364 24.1581196,10.461656 23.2872645,10.0932381 C23.1675758,10.0421215 23.0454007,9.99536785 22.9238417,9.95110856 Z M13.1956637,15.8226283 C13.1501581,16.1548842 13.1264693,16.4921351 13.1264693,16.8324979 C13.1264693,17.820648 13.3191043,18.7780939 13.7006081,19.6794936 C13.9929678,20.3707997 14.3856904,21.0054053 14.8706851,21.5739267 C14.9822669,21.4922607 15.0720334,21.4243126 15.0919815,21.4068572 C15.3481952,21.1899174 15.5620119,20.924368 15.6586502,20.5976497 C15.8818138,19.8365731 15.4423327,18.9987521 15.0221775,18.3866001 C14.7721876,18.0231613 14.4860677,17.6715797 14.2292317,17.3137583 C14.0715139,17.0949514 13.6133295,16.3637171 13.1956637,15.8226283 Z M20.6708447,1.76002695 L20.6704251,6.07494436 C20.5720886,6.07236963 20.4734336,6.07107425 20.374476,6.07107425 C15.2918766,6.07107425 11.0074071,9.48827478 9.69323324,14.1505102 L2.36290625,14.1512082 C1.57973569,14.1512082 0.944384201,13.5948807 0.944384201,12.9065291 L0.944384201,1.76002695 L10.8076145,9.05358184 L20.6708447,1.76002695 Z M19.1534247,0.0275513375 L10.8076145,5.77507825 L2.46180424,0.0275513375 L19.1534247,0.0275513375 Z" transform="translate(9 11)"/>
  </g>
</svg>
