<svg width="240" height="240" viewBox="0 0 240 240" fill="none" xmlns="http://www.w3.org/2000/svg">
<path fill-rule="evenodd" clip-rule="evenodd" d="M11.1521 20H228.351C233.956 20 238.5 24.9364 238.5 31.0257C238.5 32.26 238.309 33.4855 237.936 34.6511L231.373 55.1275C229.953 59.5585 226.107 62.5278 221.788 62.5278H17.6616C13.3332 62.5278 9.48118 59.5458 8.06825 55.1013L1.55875 34.6249C-0.271025 28.8692 2.54073 22.5918 7.83898 20.604C8.90479 20.2041 10.0245 20 11.1521 20ZM46.9259 98.6128H192.577C198.182 98.6128 202.726 103.549 202.726 109.638C202.726 110.96 202.507 112.272 202.08 113.509L195.013 133.986C193.527 138.289 189.74 141.141 185.509 141.141H53.6174C49.3212 141.141 45.4903 138.202 44.053 133.804L37.3614 113.327C35.4861 107.589 38.2481 101.285 43.5304 99.2481C44.6206 98.8276 45.769 98.6128 46.9259 98.6128ZM92.1452 177.472H147.358C152.963 177.472 157.507 182.409 157.507 188.498C157.507 189.571 157.363 190.638 157.079 191.665L151.427 212.141C150.139 216.806 146.187 220 141.705 220H98.4105C94.0387 220 90.1582 216.959 88.7793 212.452L82.514 191.976C80.7459 186.197 83.6247 179.956 88.9438 178.035C89.9763 177.662 91.0572 177.472 92.1452 177.472Z" fill="#0091e3"/>
</svg>
