<svg width="375" height="874" viewBox="0 0 375 874" fill="none" xmlns="http://www.w3.org/2000/svg" xmlns:xlink="http://www.w3.org/1999/xlink">
<rect width="375" height="874" fill="white"/>
<path opacity="0.178418" fill-rule="evenodd" clip-rule="evenodd" d="M0 0L375 0L375 874L0 874L0 0Z" fill="#FF5752"/>
<mask id="mask0" mask-type="alpha" maskUnits="userSpaceOnUse" x="0" y="0" width="375" height="874">
<path fill-rule="evenodd" clip-rule="evenodd" d="M0 0L375 0L375 874L0 874L0 0Z" fill="white"/>
</mask>
<g mask="url(#mask0)">
<g opacity="0.441">
<path fill-rule="evenodd" clip-rule="evenodd" d="M320.265 93.421C314.205 87.0692 308.825 80.6422 302.62 75.14C296.415 69.6316 289.831 64.2673 282.641 60.2042C261.278 48.1339 239.201 51.1343 222.412 68.017C203.016 87.5332 206.595 110.247 216.034 132.093C238.887 184.964 278.873 224.41 320.137 263.392C350.073 237.057 375.814 209.079 398.206 178.11C411.993 159.049 424.152 139.075 429.613 115.659C434.607 94.2487 430.033 76.2781 412.021 62.8659C394.031 49.4632 375.297 50.2658 356.262 60.872C341.854 68.8979 331.54 81.4667 320.265 93.421ZM320.068 297.268C268.776 251.361 219.886 204.578 192.284 140.552C180.361 112.897 178.551 84.7594 197.005 58.5402C216.593 30.7096 253.141 20.4044 284.83 33.1864C297.573 38.3248 308.687 45.9903 319.685 55.6966C329.811 48.5517 339.291 40.5539 350.575 35.3182C378.983 22.1319 405.609 25.3516 429.817 44.6265C453.325 63.3401 460.691 88.3679 454.884 117.399C448.692 148.356 432.37 174.402 413.988 199.298C387.189 235.597 355.562 267.259 320.068 297.268Z" fill="white"/>
</g>
<g opacity="0.441">
<path fill-rule="evenodd" clip-rule="evenodd" d="M62.2654 528.421C56.2048 522.069 50.825 515.642 44.6201 510.14C38.4152 504.632 31.8308 499.267 24.6409 495.204C3.27831 483.134 -18.7995 486.134 -35.5884 503.017C-54.9841 522.533 -51.4049 545.247 -41.9658 567.093C-19.1132 619.964 20.8734 659.41 62.1368 698.392C92.0727 672.057 117.814 644.079 140.206 613.11C153.993 594.049 166.152 574.075 171.613 550.659C176.607 529.249 172.033 511.278 154.021 497.866C136.031 484.463 117.297 485.266 98.2619 495.872C83.8539 503.898 73.5396 516.467 62.2654 528.421ZM62.0678 732.268C10.7756 686.361 -38.1137 639.578 -65.7156 575.552C-77.6392 547.897 -79.4492 519.759 -60.9945 493.54C-41.4075 465.71 -4.85892 455.404 26.8305 468.186C39.5728 473.325 50.687 480.99 61.6851 490.697C71.8111 483.552 81.291 475.554 92.5746 470.318C120.983 457.132 147.609 460.352 171.817 479.626C195.325 498.34 202.691 523.368 196.884 552.399C190.692 583.356 174.37 609.402 155.988 634.298C129.189 670.597 97.5623 702.259 62.0678 732.268Z" fill="white"/>
</g>
<g opacity="0.34">
<g filter="url(#filter0_f)">
<path fill-rule="evenodd" clip-rule="evenodd" d="M71.5639 293.661C70.1061 292.133 68.812 290.587 67.3195 289.263C65.827 287.938 64.2432 286.648 62.5137 285.671C57.3751 282.767 52.0645 283.489 48.0261 287.55C43.3607 292.245 44.2216 297.708 46.4921 302.963C51.9891 315.681 61.6075 325.169 71.533 334.546C78.7338 328.211 84.9257 321.481 90.3118 314.032C93.6281 309.447 96.5528 304.642 97.8665 299.01C99.0677 293.86 97.9676 289.537 93.6349 286.311C89.3075 283.087 84.8012 283.28 80.2225 285.831C76.7568 287.762 74.2758 290.785 71.5639 293.661ZM71.5164 342.694C59.1785 331.652 47.4187 320.399 40.7793 304.998C37.9112 298.346 37.4758 291.577 41.9149 285.271C46.6264 278.576 55.4178 276.097 63.0404 279.172C66.1054 280.408 68.7788 282.252 71.4243 284.587C73.8601 282.868 76.1403 280.944 78.8545 279.685C85.6878 276.513 92.0925 277.287 97.9155 281.924C103.57 286.425 105.342 292.445 103.945 299.429C102.456 306.875 98.5297 313.14 94.108 319.129C87.6618 327.86 80.0543 335.476 71.5164 342.694Z" fill="white"/>
</g>
</g>
<g opacity="0.34">
<g filter="url(#filter1_f)">
<path fill-rule="evenodd" clip-rule="evenodd" d="M310.564 728.661C309.106 727.133 307.812 725.587 306.32 724.263C304.827 722.938 303.243 721.648 301.514 720.671C296.375 717.767 291.065 718.489 287.026 722.55C282.361 727.244 283.222 732.708 285.492 737.963C290.989 750.681 300.607 760.169 310.533 769.546C317.734 763.211 323.926 756.481 329.312 749.032C332.628 744.447 335.553 739.642 336.866 734.01C338.068 728.86 336.968 724.537 332.635 721.311C328.307 718.087 323.801 718.28 319.223 720.831C315.757 722.762 313.276 725.785 310.564 728.661ZM310.516 777.694C298.179 766.652 286.419 755.398 279.779 739.998C276.911 733.346 276.476 726.577 280.915 720.27C285.626 713.576 294.418 711.097 302.04 714.172C305.105 715.408 307.779 717.252 310.424 719.586C312.86 717.868 315.14 715.944 317.855 714.685C324.688 711.513 331.093 712.287 336.916 716.924C342.57 721.425 344.342 727.445 342.945 734.428C341.456 741.875 337.53 748.14 333.108 754.129C326.662 762.86 319.054 770.476 310.516 777.694Z" fill="white"/>
</g>
</g>
</g>
<defs>
<filter id="filter0_f" x="35.8823" y="275.049" width="71.2356" height="70.3637" filterUnits="userSpaceOnUse" color-interpolation-filters="sRGB">
<feFlood flood-opacity="0" result="BackgroundImageFix"/>
<feBlend mode="normal" in="SourceGraphic" in2="BackgroundImageFix" result="shape"/>
<feGaussianBlur stdDeviation="1.35914" result="effect1_foregroundBlur"/>
</filter>
<filter id="filter1_f" x="274.882" y="710.049" width="71.2356" height="70.3637" filterUnits="userSpaceOnUse" color-interpolation-filters="sRGB">
<feFlood flood-opacity="0" result="BackgroundImageFix"/>
<feBlend mode="normal" in="SourceGraphic" in2="BackgroundImageFix" result="shape"/>
<feGaussianBlur stdDeviation="1.35914" result="effect1_foregroundBlur"/>
</filter>
</defs>
</svg>
