<svg width="396" height="59" viewBox="0 0 396 59" fill="none" xmlns="http://www.w3.org/2000/svg" xmlns:xlink="http://www.w3.org/1999/xlink">
<mask id="mask0" mask-type="alpha" maskUnits="userSpaceOnUse" x="0" y="0" width="464" height="59">
<rect y="0.882812" width="464" height="58" fill="white"/>
</mask>
<g mask="url(#mask0)">
<rect width="370" height="498" transform="translate(-18 -46)" fill="white"/>
<path opacity="0.178418" fill-rule="evenodd" clip-rule="evenodd" d="M-18 -46.1172L396 -46.1172L396 451.883L-18 451.883L-18 -46.1172Z" fill="#FF5752"/>
<mask id="mask1" mask-type="alpha" maskUnits="userSpaceOnUse" x="-18" y="-47" width="414" height="499">
<path fill-rule="evenodd" clip-rule="evenodd" d="M-18 -46.1172L396 -46.1172L396 451.883L-18 451.883L-18 -46.1172Z" fill="white"/>
</mask>
<g mask="url(#mask1)">
<mask id="mask2" mask-type="alpha" maskUnits="userSpaceOnUse" x="-18" y="-47" width="214" height="499">
<rect x="-18" y="-46.1172" width="214" height="498" fill="white"/>
</mask>
<g mask="url(#mask2)">
<rect opacity="0.04" x="-130.421" y="-54.6641" width="348.988" height="266.732" fill="url(#pattern0)"/>
</g>
<g opacity="0.441">
<path fill-rule="evenodd" clip-rule="evenodd" d="M164.765 7.11375C161.306 3.49454 158.236 -0.167544 154.695 -3.30265C151.154 -6.44132 147.397 -9.49782 143.294 -11.813C131.103 -18.6905 118.504 -16.981 108.923 -7.36131C97.8545 3.75892 99.897 16.7013 105.284 29.1488C118.325 59.2743 141.144 81.7506 164.691 103.962C181.775 88.9569 196.465 73.0152 209.243 55.3693C217.111 44.5081 224.049 33.1271 227.166 19.7846C230.016 7.58536 227.406 -2.65419 217.127 -10.2963C206.86 -17.9331 196.169 -17.4758 185.307 -11.4325C177.085 -6.85933 171.199 0.302274 164.765 7.11375M164.652 123.265C135.381 97.1067 107.482 70.4503 91.7304 33.9688C84.926 18.2112 83.8931 2.17838 94.4245 -12.7611C105.602 -28.6188 126.459 -34.4907 144.543 -27.2076C151.815 -24.2797 158.157 -19.912 164.434 -14.3814C170.212 -18.4525 175.622 -23.0096 182.061 -25.9929C198.273 -33.5064 213.468 -31.6718 227.282 -20.6891C240.698 -10.0262 244.901 4.23451 241.587 20.7764C238.054 38.4151 228.739 53.2564 218.249 67.4421C202.956 88.1248 184.908 106.165 164.652 123.265" fill="white"/>
</g>
</g>
<g filter="url(#filter0_d)">
<path fill-rule="evenodd" clip-rule="evenodd" d="M38 71.8828C56.2254 71.8828 71 57.1082 71 38.8828C71 20.6574 56.2254 5.88281 38 5.88281C19.7746 5.88281 5 20.6574 5 38.8828C5 57.1082 19.7746 71.8828 38 71.8828Z" fill="white"/>
</g>
<path fill-rule="evenodd" clip-rule="evenodd" d="M37.9999 62.3021C50.9341 62.3021 61.4193 51.8169 61.4193 38.8827C61.4193 25.9486 50.9341 15.4634 37.9999 15.4634C25.0658 15.4634 14.5806 25.9486 14.5806 38.8827C14.5806 51.8169 25.0658 62.3021 37.9999 62.3021Z" fill="#FF5752"/>
<path fill-rule="evenodd" clip-rule="evenodd" d="M37.5434 34.7451C37.0185 34.1949 36.5525 33.6383 36.0151 33.1617C35.4776 32.6846 34.9073 32.22 34.2846 31.868C32.4343 30.8226 30.522 31.0824 29.0678 32.5447C27.3879 34.2351 27.6979 36.2025 28.5154 38.0947C30.4948 42.6741 33.9583 46.0907 37.5323 49.4672C40.1252 47.1862 42.3548 44.7628 44.2942 42.0805C45.4884 40.4295 46.5415 38.6994 47.0146 36.6712C47.4471 34.8168 47.051 33.2603 45.4908 32.0986C43.9326 30.9377 42.31 31.0072 40.6613 31.9259C39.4133 32.621 38.5199 33.7097 37.5434 34.7451M37.5263 52.4013C33.0836 48.425 28.8491 44.3729 26.4583 38.8273C25.4256 36.432 25.2688 33.9948 26.8673 31.7238C28.5638 29.3133 31.7295 28.4207 34.4742 29.5278C35.5779 29.9729 36.5406 30.6368 37.4932 31.4775C38.3702 30.8587 39.1913 30.1659 40.1687 29.7125C42.6292 28.5703 44.9355 28.8492 47.0322 30.5187C49.0684 32.1396 49.7064 34.3073 49.2034 36.8219C48.6671 39.5032 47.2534 41.7592 45.6612 43.9156C43.34 47.0596 40.6007 49.802 37.5263 52.4013" fill="white"/>
</g>
<defs>
<pattern id="pattern0" patternContentUnits="objectBoundingBox" width="1" height="1">
<use xlink:href="#image0" transform="scale(0.000763942 0.000998004)"/>
</pattern>
<filter id="filter0_d" x="3" y="4.88281" width="70" height="70" filterUnits="userSpaceOnUse" color-interpolation-filters="sRGB">
<feFlood flood-opacity="0" result="BackgroundImageFix"/>
<feColorMatrix in="SourceAlpha" type="matrix" values="0 0 0 0 0 0 0 0 0 0 0 0 0 0 0 0 0 0 127 0"/>
<feOffset dy="1"/>
<feGaussianBlur stdDeviation="1"/>
<feColorMatrix type="matrix" values="0 0 0 0 0 0 0 0 0 0 0 0 0 0 0 0 0 0 0.06 0"/>
<feBlend mode="normal" in2="BackgroundImageFix" result="effect1_dropShadow"/>
<feBlend mode="normal" in="SourceGraphic" in2="effect1_dropShadow" result="shape"/>
</filter>
</defs>
</svg>
