<svg width="90" height="19" viewBox="0 0 90 19" fill="none" xmlns="http://www.w3.org/2000/svg">
<path fill-rule="evenodd" clip-rule="evenodd" d="M0 2.12012H7.69943L7.09479 4.0894H2.43594V6.53919H3.23623C4.4986 6.53919 5.61907 6.69805 6.49015 7.16017C7.52148 7.69188 8.14382 8.65026 8.14382 10.1417C8.14382 12.2357 6.88145 13.815 3.28964 13.815H0V2.12012ZM3.34273 11.8274C5.01443 11.8274 5.70788 11.2944 5.70788 10.1771C5.70788 9.53775 5.45882 9.09401 5.04982 8.84588C4.60544 8.57937 3.96507 8.50847 3.23623 8.50847H2.43594V11.8274H3.34273Z" fill="white"/>
<path d="M9.45928 5.42064H11.7887V8.77498C11.7887 9.14915 11.7835 9.51806 11.7704 9.85284C11.7592 10.139 11.7422 10.4003 11.7176 10.6195H11.771L11.7907 10.5854C11.9932 10.2362 12.3911 9.55088 12.8554 8.88133L15.256 5.42064H17.6031V13.815H15.256V10.4607C15.256 10.055 15.2684 9.6546 15.2894 9.29619C15.3042 9.04412 15.3232 8.81306 15.3451 8.61482H15.2917C15.0961 8.95222 14.6694 9.66248 14.207 10.3544L11.8064 13.815H9.45928V5.42064Z" fill="white"/>
<path d="M21.072 7.4083H18.5646V5.42064H26.4951L25.8728 7.4083H23.4722V13.815H21.072V7.4083Z" fill="white"/>
<path fill-rule="evenodd" clip-rule="evenodd" d="M28.622 5.38782C29.2185 5.27491 29.8657 5.20795 30.5496 5.20795C33.679 5.20795 35.2616 6.96456 35.2616 9.60865C35.2616 12.1293 33.5545 13.9923 30.8341 13.9923C30.4251 13.9923 30.0158 13.9384 29.6248 13.8321V18.0201H27.2243V5.75804C27.6483 5.61231 28.117 5.48365 28.622 5.38782ZM30.6562 12.023C32.0965 12.023 32.8076 11.0817 32.8076 9.60865C32.8076 7.97677 31.9185 7.17724 30.4428 7.17724C30.1403 7.17724 29.8916 7.19562 29.6248 7.28489V11.8444C29.9447 11.9508 30.2472 12.023 30.6562 12.023Z" fill="white"/>
<path d="M36.3978 5.42064H38.7272V8.77498C38.7272 9.46686 38.7095 10.1417 38.6561 10.6195H38.7095L38.7292 10.5854C38.9317 10.2362 39.3296 9.55088 39.7939 8.88133L42.1945 5.42064H44.5416V13.815H42.1945V10.4607C42.1945 9.76882 42.2302 9.09401 42.2833 8.61482H42.2302C42.0346 8.95222 41.6079 9.66248 41.1455 10.3544L38.7449 13.815H36.3978V5.42064Z" fill="white"/>
<path d="M46.0904 5.42064H48.491V8.6332H49.3801C50.0034 8.6332 50.2298 7.98858 50.4858 7.26126C50.592 6.9593 50.7031 6.64291 50.8499 6.35145C50.9243 6.20441 51.0078 6.06394 51.1048 5.93528C51.1786 5.83287 51.2618 5.73835 51.3555 5.65433C51.4309 5.58737 51.5129 5.52698 51.602 5.47446C51.8845 5.30511 52.2404 5.20795 52.6874 5.20795C52.9365 5.20795 53.3809 5.2434 53.6476 5.33268V7.37285C53.605 7.3571 53.5595 7.34266 53.5116 7.33084C53.3989 7.30196 53.2743 7.28489 53.1495 7.28489C52.883 7.28489 52.7051 7.37285 52.5629 7.55009C52.3882 7.76802 52.2732 8.07786 52.1555 8.39557C51.9854 8.85244 51.8104 9.32507 51.4427 9.55613V9.59158C51.6321 9.6651 51.7986 9.77013 51.9477 9.91323C52.1201 10.08 52.2692 10.2992 52.4029 10.5854L53.9144 13.815H51.3182L50.3222 11.188C50.1092 10.6734 49.8956 10.4436 49.6645 10.4436H48.491V13.815H46.0904V5.42064Z" fill="white"/>
<path d="M54.3044 9.66248C54.3044 7 56.367 5.20795 58.8387 5.20795C59.9765 5.20795 60.7234 5.52698 61.1681 5.81187V7.8166C60.5635 7.35579 59.9231 7.10634 59.1054 7.10634C57.6294 7.10634 56.758 8.2249 56.758 9.6441C56.758 11.2235 57.6474 12.0755 58.9989 12.0755C59.4725 12.0755 59.8746 11.9902 60.2643 11.8366C60.4888 11.7486 60.7093 11.6383 60.9367 11.5084L61.6125 13.1402C60.919 13.6378 59.8346 13.9923 58.6611 13.9923C55.8692 13.9923 54.3044 12.1293 54.3044 9.66248Z" fill="white"/>
<path d="M84.7076 4.86926H87.1417V3.89576H85.6812V2.19156H84.7076V4.86926Z" fill="white"/>
<path fill-rule="evenodd" clip-rule="evenodd" d="M85.1961 0C82.7762 0 80.8145 1.96121 80.8145 4.38057C80.8145 6.79993 82.7762 8.76126 85.1961 8.76126C87.616 8.76126 89.5777 6.79993 89.5777 4.38057C89.5777 1.96121 87.616 0 85.1961 0ZM85.1961 7.78775C83.314 7.78775 81.7883 6.26226 81.7883 4.38057C81.7883 2.49887 83.314 0.973506 85.1961 0.973506C87.0784 0.973506 88.6041 2.49887 88.6041 4.38057C88.6041 6.26226 87.0784 7.78775 85.1961 7.78775Z" fill="white"/>
<path d="M68.3251 5.56375C68.3251 4.57092 67.5037 4.22259 66.6298 4.22259C65.4588 4.22259 64.4975 4.60572 63.6062 5.00641L62.9943 3.17761C63.9906 2.72468 65.3714 2.21959 67.0143 2.21959C69.5835 2.21959 70.8244 3.50849 70.8244 5.31982C70.8244 7.11416 69.4246 8.17742 68.0763 9.20141C67.0427 9.98648 66.0394 10.7486 65.7209 11.7993H70.9818V13.8197H62.6099C62.8954 10.3943 64.9282 8.92048 66.4889 7.78893C67.5074 7.0506 68.3251 6.45781 68.3251 5.56375Z" fill="white"/>
<path fill-rule="evenodd" clip-rule="evenodd" d="M70.5617 9.57018L76.3293 2.25489H78.0422V9.16959H79.7551V11.0854H78.0422V13.82H75.7176V11.0854H70.5617V9.57018ZM74.6689 9.16959H75.7176V7.93294C75.7176 7.04473 75.7875 6.01699 75.8226 5.79063L73.2183 9.22186C73.428 9.20439 74.267 9.16959 74.6689 9.16959Z" fill="white"/>
</svg>
