<svg width="23" height="23" viewBox="0 0 23 23" fill="none" xmlns="http://www.w3.org/2000/svg">
<path d="M10.1678 6.28585H13.1008L12.7624 12.5655H10.5062L10.1678 6.28585Z" fill="#525C69"/>
<path d="M11.634 16.9582C12.6295 16.9582 13.4365 16.1584 13.4365 15.1718C13.4365 14.1852 12.6295 13.3854 11.634 13.3854C10.6385 13.3854 9.83151 14.1852 9.83151 15.1718C9.83151 16.1584 10.6385 16.9582 11.634 16.9582Z" fill="#525C69"/>
<path fill-rule="evenodd" clip-rule="evenodd" d="M11.6245 21.0771C16.9399 21.0771 21.249 16.8065 21.249 11.5385C21.249 6.27055 16.9399 2 11.6245 2C6.30903 2 2 6.27055 2 11.5385C2 16.8065 6.30903 21.0771 11.6245 21.0771ZM11.6245 18.8111C15.6772 18.8111 18.9625 15.555 18.9625 11.5385C18.9625 7.52205 15.6772 4.26604 11.6245 4.26604C7.5718 4.26604 4.28645 7.52205 4.28645 11.5385C4.28645 15.555 7.5718 18.8111 11.6245 18.8111Z" fill="#525C69"/>
</svg>
