<svg width="19" height="16" viewBox="0 0 19 16" fill="none" xmlns="http://www.w3.org/2000/svg">
<path fill-rule="evenodd" clip-rule="evenodd" d="M17.5 2.33335H13.4166C13.125 1.16666 12.8333 0 11.6666 0H6.99999C5.83334 0 5.54165 1.16666 5.24999 2.33335H1.16665C0.524999 2.33335 0 2.85835 0 3.5V14C0 14.6417 0.524999 15.1667 1.16665 15.1667H17.5C18.1416 15.1667 18.6667 14.6417 18.6667 14V3.5C18.6666 2.85835 18.1416 2.33335 17.5 2.33335ZM6.1894 8.78755C6.1894 10.5399 7.60997 11.9605 9.36234 11.9605C11.1147 11.9605 12.5353 10.5399 12.5353 8.78755C12.5353 7.03517 11.1148 5.6146 9.36237 5.6146C7.61 5.6146 6.1894 7.03517 6.1894 8.78755ZM9.36237 13.1199C6.96972 13.1199 5.03007 11.1802 5.03007 8.78755C5.03007 6.39488 6.96969 4.45523 9.36237 4.45523C11.7551 4.45523 13.6947 6.39486 13.6947 8.78755C13.6947 11.1802 11.7551 13.1199 9.36237 13.1199ZM17.088 4.8825H15.486V3.7975H17.088V4.8825Z" fill="#bdc1c6"/>
</svg>
