<svg width="200" height="200" viewBox="0 0 200 200" fill="none" xmlns="http://www.w3.org/2000/svg">
<path d="M67.9237 59.3492C66.7927 58.2219 65.2328 57.5755 63.6372 57.5755C62.0414 57.5755 60.4812 58.2219 59.3502 59.3492C58.2229 60.4805 57.5766 62.0401 57.5766 63.6362C57.5766 65.2323 58.2229 66.7917 59.3502 67.9232C60.4776 69.0505 62.0411 69.6969 63.6372 69.6969C65.2328 69.6969 66.7927 69.0505 67.9237 67.9232C69.051 66.7919 69.6979 65.2323 69.6979 63.6362C69.6979 62.0401 69.051 60.4805 67.9237 59.3492Z" fill="#545C68"/>
<path d="M87.8788 33.3333H39.394C36.0469 33.3333 33.3333 36.0469 33.3333 39.394V87.8787C33.3333 91.2259 36.0469 93.9394 39.394 93.9394H87.8788C91.226 93.9394 93.9395 91.2259 93.9395 87.8787V39.394C93.9392 36.0469 91.2257 33.3333 87.8788 33.3333ZM81.8182 81.8181H45.4544V45.4544H81.8179L81.8182 81.8181Z" fill="#545C68"/>
<path d="M140.646 59.3492C139.519 58.2219 137.959 57.5755 136.363 57.5755C134.767 57.5755 133.204 58.2219 132.076 59.3492C130.949 60.4805 130.303 62.0401 130.303 63.6362C130.303 65.2323 130.949 66.7917 132.076 67.9232C133.204 69.0505 134.767 69.6969 136.363 69.6969C137.959 69.6969 139.518 69.0505 140.646 67.9232C141.777 66.7919 142.424 65.2323 142.424 63.6362C142.424 62.0401 141.777 60.4805 140.646 59.3492Z" fill="#545C68"/>
<path d="M160.606 33.3333H112.121C108.774 33.3333 106.06 36.0469 106.06 39.394V87.8787C106.06 91.2259 108.774 93.9394 112.121 93.9394H160.606C163.953 93.9394 166.667 91.2259 166.667 87.8787V39.394C166.667 36.0469 163.953 33.3333 160.606 33.3333ZM154.545 81.8181H118.182V45.4544H154.545L154.545 81.8181Z" fill="#545C68"/>
<path d="M67.9237 132.077C66.7924 130.949 65.2328 130.303 63.6372 130.303C62.0414 130.303 60.4812 130.949 59.3502 132.077C58.2229 133.208 57.5766 134.767 57.5766 136.363C57.5766 137.96 58.2229 139.519 59.3502 140.65C60.4776 141.778 62.0411 142.424 63.6372 142.424C65.2328 142.424 66.7927 141.778 67.9237 140.65C69.051 139.519 69.6979 137.96 69.6979 136.363C69.6979 134.767 69.051 133.208 67.9237 132.077Z" fill="#545C68"/>
<path d="M87.8788 106.061H39.394C36.0469 106.061 33.3333 108.774 33.3333 112.121V160.606C33.3333 163.953 36.0469 166.666 39.394 166.666H87.8788C91.226 166.666 93.9395 163.953 93.9395 160.606V112.121C93.9392 108.774 91.2257 106.061 87.8788 106.061ZM81.8182 154.545H45.4544V118.182H81.8179L81.8182 154.545Z" fill="#545C68"/>
<path d="M140.404 130.303H136.364C133.017 130.303 130.303 133.016 130.303 136.363C130.303 139.711 133.017 142.424 136.364 142.424H140.404C143.751 142.424 146.465 139.711 146.465 136.363C146.465 133.016 143.751 130.303 140.404 130.303Z" fill="#545C68"/>
<path d="M160.606 142.424C157.259 142.424 154.545 145.138 154.545 148.485V154.545H140.404C137.057 154.545 134.343 157.259 134.343 160.606C134.343 163.953 137.057 166.667 140.404 166.667H160.606C163.953 166.666 166.667 163.953 166.667 160.606V148.485C166.667 145.138 163.953 142.424 160.606 142.424Z" fill="#545C68"/>
<path d="M112.121 130.303C108.774 130.303 106.06 133.016 106.06 136.363V144.444C106.06 147.791 108.774 150.505 112.121 150.505C115.468 150.505 118.182 147.791 118.182 144.444V136.363C118.182 133.016 115.468 130.303 112.121 130.303Z" fill="#545C68"/>
<path d="M140.404 106.061H128.283C124.936 106.061 122.222 108.774 122.222 112.121C122.222 115.468 124.936 118.182 128.283 118.182H140.404C143.751 118.182 146.464 115.468 146.464 112.121C146.464 108.774 143.751 106.061 140.404 106.061Z" fill="#545C68"/>
<path d="M0.000544473 6.66667C0.000544473 2.98477 2.98531 1.40848e-06 6.66721 1.40848e-06H32.2228C35.9047 1.40848e-06 38.8894 2.98477 38.8894 6.66667C38.8894 10.3486 35.9047 13.3333 32.2228 13.3333H6.66721C2.98531 13.3333 0.000544473 10.3486 0.000544473 6.66667Z" fill="#545C68"/>
<path d="M6.66721 1.40848e-06C10.3491 1.56942e-06 13.3333 2.98477 13.3333 6.66667L13.3333 32.2222C13.3333 35.9041 10.3486 38.8889 6.66667 38.8889C2.98477 38.8889 -1.60941e-07 35.9041 0 32.2222L0.000544473 6.66667C0.000544473 2.98477 2.98531 1.40848e-06 6.66721 1.40848e-06Z" fill="#545C68"/>
<path d="M199.999 193.333C199.999 197.015 197.015 200 193.333 200H167.777C164.095 200 161.111 197.015 161.111 193.333C161.111 189.651 164.095 186.667 167.777 186.667H193.333C197.015 186.667 199.999 189.651 199.999 193.333Z" fill="#545C68"/>
<path d="M193.333 200C189.651 200 186.667 197.015 186.667 193.333V167.778C186.667 164.096 189.651 161.111 193.333 161.111C197.015 161.111 200 164.096 200 167.778L199.999 193.333C199.999 197.015 197.015 200 193.333 200Z" fill="#545C68"/>
<path d="M193.333 0.00054559C197.015 0.000545751 200 2.98532 200 6.66722V32.2228C200 35.9047 197.015 38.8894 193.333 38.8894C189.651 38.8894 186.667 35.9047 186.667 32.2228V6.66721C186.667 2.98531 189.651 0.000545429 193.333 0.00054559Z" fill="#545C68"/>
<path d="M200 6.66722C200 10.3491 197.015 13.3333 193.333 13.3333L167.778 13.3333C164.096 13.3333 161.111 10.3486 161.111 6.66667C161.111 2.98477 164.096 -3.21882e-07 167.778 0L193.333 0.00054559C197.015 0.000545751 200 2.98532 200 6.66722Z" fill="#545C68"/>
<path d="M6.66667 199.999C2.98477 199.999 1.30491e-07 197.015 2.91432e-07 193.333L1.4085e-06 167.777C1.56945e-06 164.095 2.98477 161.111 6.66667 161.111C10.3486 161.111 13.3333 164.095 13.3333 167.777L13.3333 193.333C13.3333 197.015 10.3486 199.999 6.66667 199.999Z" fill="#545C68"/>
<path d="M2.91432e-07 193.333C6.13314e-07 189.651 2.98477 186.667 6.66667 186.667L32.2222 186.667C35.9041 186.667 38.8889 189.651 38.8889 193.333C38.8889 197.015 35.9041 200 32.2222 200L6.66667 199.999C2.98477 199.999 1.30491e-07 197.015 2.91432e-07 193.333Z" fill="#545C68"/>
</svg>
