<svg width="218" height="178" viewBox="0 0 218 178" fill="none" xmlns="http://www.w3.org/2000/svg">
	<path fill-rule="evenodd" clip-rule="evenodd"
		  d="M156.909 5.08173C158.238 5.08173 159.315 4.0047 159.315 2.67612C159.315 1.34754 158.238 0.270508 156.909 0.270508C155.58 0.270508 154.503 1.34754 154.503 2.67612C154.503 4.0047 155.58 5.08173 156.909 5.08173ZM38.2039 25.8624C41.0841 25.8624 43.4189 23.5275 43.4189 20.6474C43.4189 17.7672 41.0841 15.4324 38.2039 15.4324C35.3237 15.4324 32.9889 17.7672 32.9889 20.6474C32.9889 23.5275 35.3237 25.8624 38.2039 25.8624ZM38.2039 22.9547C39.4782 22.9547 40.5112 21.9217 40.5112 20.6474C40.5112 19.3731 39.4782 18.34 38.2039 18.34C36.9296 18.34 35.8965 19.3731 35.8965 20.6474C35.8965 21.9217 36.9296 22.9547 38.2039 22.9547ZM11.7102 76.7733C15.5894 76.7733 18.7341 73.6286 18.7341 69.7494C18.7341 65.8702 15.5894 62.7255 11.7102 62.7255C7.83099 62.7255 4.68628 65.8702 4.68628 69.7494C4.68628 73.6286 7.83099 76.7733 11.7102 76.7733ZM11.7102 73.1075C13.5648 73.1075 15.0683 71.604 15.0683 69.7494C15.0683 67.8947 13.5648 66.3912 11.7102 66.3912C9.85555 66.3912 8.35206 67.8947 8.35206 69.7494C8.35206 71.604 9.85555 73.1075 11.7102 73.1075ZM190.039 165.155C192.801 165.155 195.04 162.916 195.04 160.154C195.04 157.393 192.801 155.154 190.039 155.154C187.278 155.154 185.039 157.393 185.039 160.154C185.039 162.916 187.278 165.155 190.039 165.155ZM190.039 162.553C191.364 162.553 192.438 161.479 192.438 160.154C192.438 158.83 191.364 157.756 190.039 157.756C188.715 157.756 187.641 158.83 187.641 160.154C187.641 161.479 188.715 162.553 190.039 162.553ZM110 178C157.496 178 196 139.496 196 91.9998C196 44.5033 157.496 5.99976 110 5.99976C62.5035 5.99976 24 44.5033 24 91.9998C24 139.496 62.5035 178 110 178ZM23.9588 171.988H7.24022C7.09716 171.988 6.95534 171.983 6.81493 171.972C3.03648 171.884 0.000190901 168.709 0 164.805C0.00109851 162.902 0.737676 161.077 2.04769 159.733C2.71919 159.043 3.51317 158.509 4.37699 158.152C4.36254 157.958 4.35518 157.763 4.35518 157.565C4.35637 155.558 5.13359 153.633 6.51587 152.214C7.89815 150.795 9.77226 149.999 11.7259 150C14.2285 150.003 16.438 151.289 17.7658 153.252C18.3964 153.022 19.0752 152.898 19.7823 152.898C22.9062 152.902 25.472 155.349 25.7694 158.479C28.7627 159.149 31.0026 161.89 31 165.166C30.9969 168.942 28.0168 172.001 24.3426 172C24.2138 172 24.0858 171.996 23.9588 171.988ZM201.138 38.992H213.003C213.093 38.9971 213.184 38.9997 213.275 38.9998C215.883 39.0008 217.998 36.9152 218 34.3407C218.002 32.1067 216.412 30.2382 214.288 29.7809C214.077 27.6471 212.256 25.9785 210.039 25.9758C209.537 25.9756 209.055 26.0606 208.608 26.2172C207.666 24.8788 206.098 24.0019 204.322 23.9998C202.935 23.9989 201.605 24.5419 200.624 25.5093C199.643 26.4767 199.092 27.7892 199.091 29.1581C199.091 29.2928 199.096 29.4262 199.106 29.5582C198.493 29.8015 197.93 30.1658 197.453 30.6358C196.524 31.5526 196.001 32.7966 196 34.0939C196 36.7558 198.155 38.9208 200.836 38.981C200.936 38.9883 201.037 38.992 201.138 38.992Z"
		  fill="#1B2B34"/>
	<path opacity="0.3" fill-rule="evenodd" clip-rule="evenodd"
		  d="M171.805 77.4981C172.813 78.0094 173.448 79.0435 173.448 80.1734V124.006C173.448 125.122 172.829 126.145 171.841 126.663L128.638 149.323C127.765 149.781 126.724 149.781 125.851 149.323L110.46 141.25L133.124 129.363C136.087 127.809 137.944 124.739 137.944 121.393V84.872C137.944 81.4822 136.039 78.38 133.016 76.8461L108.31 64.3094L125.574 55.4317C126.43 54.9915 127.445 54.9888 128.303 55.4243L171.805 77.4981Z"
		  fill="#6A737F"/>
	<g opacity="0.24" filter="url(#filter0_d_13389_67232)">
		<path
			d="M137.944 84.8716C137.944 81.4818 136.04 78.3796 133.017 76.8457L95.5333 57.8257C92.9584 56.5191 89.9129 56.5273 87.3451 57.8478L50.4223 76.8344C47.4233 78.3766 45.5381 81.4659 45.5381 84.8382V121.393C45.5381 124.739 47.3945 127.809 50.3578 129.363L87.5609 148.876C90.1787 150.249 93.3038 150.249 95.9216 148.876L133.125 129.363C136.088 127.809 137.944 124.739 137.944 121.393V84.8716Z"
			fill="#24B4E1"/>
		<path
			d="M132.76 77.3516C135.593 78.7888 137.377 81.6955 137.377 84.8716V121.393C137.377 124.528 135.638 127.404 132.861 128.86L95.6581 148.373C93.2053 149.66 90.2772 149.66 87.8245 148.373L50.6213 128.86C47.8448 127.404 46.1054 124.528 46.1054 121.393V84.8382C46.1054 81.6785 47.8718 78.7839 50.6818 77.3389L87.6045 58.3523C90.0105 57.1151 92.864 57.1074 95.2766 58.3316L132.76 77.3516Z"
			stroke="#24B4E1" stroke-width="1.13462"/>
	</g>
	<g opacity="0.35" filter="url(#filter1_d_13389_67232)">
		<path
			d="M132.76 77.3516C135.593 78.7888 137.377 81.6955 137.377 84.8716V121.393C137.377 124.528 135.638 127.404 132.861 128.86L95.6581 148.373C93.2053 149.66 90.2772 149.66 87.8245 148.373L50.6213 128.86C47.8448 127.404 46.1054 124.528 46.1054 121.393V84.8382C46.1054 81.6785 47.8718 78.7839 50.6818 77.3389L87.6045 58.3523C90.0105 57.1151 92.864 57.1074 95.2766 58.3316L132.76 77.3516Z"
			stroke="#24B4E1" stroke-width="1.13462" shape-rendering="crispEdges"/>
	</g>
	<path opacity="0.2"
		  d="M127.567 86.2627C129.725 85.1306 129.704 82.0335 127.531 80.9307L92.8341 63.3247C91.9758 62.8892 90.9606 62.8919 90.1047 63.3321L55.9015 80.9202C53.7406 82.0314 53.7281 85.1163 55.88 86.2449L90.347 104.323C91.2196 104.78 92.2613 104.78 93.1339 104.323L127.567 86.2627Z"
		  fill="#24B4E1"/>
	<path opacity="0.4" fill-rule="evenodd" clip-rule="evenodd"
		  d="M126.639 84.4915C127.358 84.1142 127.351 83.0818 126.627 82.7142L91.9301 65.1082C91.644 64.9631 91.3056 64.964 91.0203 65.1107L56.8171 82.6989L55.9164 80.9472L56.8171 82.6989C56.0968 83.0693 56.0926 84.0975 56.8099 84.4738L91.2769 102.551C91.5678 102.704 91.915 102.704 92.2059 102.551L126.639 84.4915ZM127.532 80.9307C129.705 82.0335 129.726 85.1306 127.568 86.2627L93.1349 104.323C92.2623 104.78 91.2206 104.78 90.348 104.323L55.881 86.2449C53.7291 85.1163 53.7416 82.0314 55.9025 80.9202L90.1057 63.3321C90.9616 62.8919 91.9768 62.8892 92.8351 63.3247L127.532 80.9307Z"
		  fill="#24B4E1"/>
	<path opacity="0.4" fill-rule="evenodd" clip-rule="evenodd"
		  d="M127.524 55.6672C127.714 55.7123 127.899 55.7799 128.077 55.87L128.983 56.3299L129.436 55.4381L128.529 54.9783C128.281 54.8521 128.021 54.7575 127.755 54.6943L127.524 55.6672ZM125.802 55.8762C125.979 55.7851 126.165 55.7165 126.354 55.6704L126.118 54.6988C125.852 54.7633 125.593 54.8594 125.345 54.9869L124.451 55.4465L124.908 56.3358L125.802 55.8762ZM130.796 57.2496L132.608 58.1694L133.061 57.2776L131.248 56.3579L130.796 57.2496ZM121.333 58.1744L123.121 57.2551L122.663 56.3658L120.876 57.2851L121.333 58.1744ZM134.421 59.0891L136.233 60.0089L136.686 59.1171L134.873 58.1974L134.421 59.0891ZM117.758 60.0129L119.545 59.0936L119.088 58.2043L117.3 59.1236L117.758 60.0129ZM138.046 60.9286L139.859 61.8484L140.311 60.9566L138.498 60.0368L138.046 60.9286ZM114.182 61.8515L115.97 60.9322L115.513 60.0429L113.725 60.9622L114.182 61.8515ZM141.671 62.7681L143.484 63.6878L143.936 62.7961L142.124 61.8763L141.671 62.7681ZM110.607 63.69L112.395 62.7708L111.937 61.8814L110.15 62.8007L110.607 63.69ZM145.296 64.6076L147.109 65.5273L147.561 64.6356L145.749 63.7158L145.296 64.6076ZM108.79 64.5524L107.76 64.0297L108.362 63.72L108.79 64.5524ZM110.618 141.168L110.998 140.968L112.582 141.799L112.118 142.684L110.317 141.74L110.618 141.168ZM148.921 66.4471L150.734 67.3668L151.187 66.475L149.374 65.5553L148.921 66.4471ZM152.547 68.2865L154.359 69.2063L154.812 68.3145L152.999 67.3948L152.547 68.2865ZM156.172 70.126L157.984 71.0458L158.437 70.154L156.624 69.2343L156.172 70.126ZM159.797 71.9655L161.609 72.8852L162.062 71.9935L160.249 71.0737L159.797 71.9655ZM163.422 73.805L165.235 74.7247L165.687 73.833L163.875 72.9132L163.422 73.805ZM167.047 75.6445L168.86 76.5642L169.312 75.6724L167.5 74.7527L167.047 75.6445ZM170.672 77.4839L171.579 77.9438C171.787 78.0494 171.976 78.1817 172.142 78.3352L172.82 77.6001C172.587 77.385 172.322 77.1997 172.031 77.0521L171.125 76.5922L170.672 77.4839ZM172.853 79.4936C172.915 79.7115 172.947 79.9398 172.947 80.1732V81.1694H173.947V80.1732C173.947 79.8468 173.902 79.5271 173.816 79.2217L172.853 79.4936ZM172.947 83.1618V85.1543H173.947V83.1618H172.947ZM172.947 87.1467V89.1391H173.947V87.1467H172.947ZM172.947 91.1315V93.1239H173.947V91.1315H172.947ZM172.947 95.1163V97.1087H173.947V95.1163H172.947ZM172.947 99.1011V101.094H173.947V99.1011H172.947ZM172.947 103.086V105.078H173.947V103.086H172.947ZM172.947 107.071V109.063H173.947V107.071H172.947ZM172.947 111.056V113.048H173.947V111.056H172.947ZM172.947 115.04V117.033H173.947V115.04H172.947ZM172.947 119.025V121.018H173.947V119.025H172.947ZM172.947 123.01V124.006C172.947 124.237 172.916 124.462 172.856 124.678L173.819 124.946C173.903 124.644 173.947 124.328 173.947 124.006V123.01H172.947ZM172.161 125.827C171.998 125.98 171.813 126.113 171.609 126.22L170.709 126.692L171.173 127.578L172.073 127.106C172.358 126.956 172.618 126.77 172.846 126.555L172.161 125.827ZM168.908 127.636L167.108 128.581L167.573 129.466L169.373 128.522L168.908 127.636ZM165.308 129.525L163.508 130.469L163.972 131.354L165.773 130.41L165.308 129.525ZM161.708 131.413L159.908 132.357L160.372 133.243L162.172 132.299L161.708 131.413ZM158.108 133.301L156.307 134.246L156.772 135.131L158.572 134.187L158.108 133.301ZM154.507 135.19L152.707 136.134L153.172 137.019L154.972 136.075L154.507 135.19ZM150.907 137.078L149.107 138.022L149.571 138.908L151.372 137.964L150.907 137.078ZM147.307 138.966L145.507 139.91L145.971 140.796L147.771 139.852L147.307 138.966ZM143.707 140.855L141.906 141.799L142.371 142.684L144.171 141.74L143.707 140.855ZM116.182 143.687L114.382 142.743L113.918 143.629L115.718 144.573L116.182 143.687ZM140.106 142.743L138.306 143.687L138.771 144.573L140.571 143.629L140.106 142.743ZM119.783 145.575L117.982 144.631L117.518 145.517L119.318 146.461L119.783 145.575ZM136.506 144.631L134.706 145.575L135.17 146.461L136.97 145.517L136.506 144.631ZM123.383 147.464L121.583 146.52L121.118 147.405L122.918 148.349L123.383 147.464ZM132.906 146.52L131.106 147.464L131.57 148.349L133.37 147.405L132.906 146.52ZM126.083 148.88L125.183 148.408L124.718 149.293L125.619 149.766C125.871 149.898 126.136 149.998 126.407 150.064L126.646 149.093C126.453 149.046 126.264 148.975 126.083 148.88ZM129.305 148.408L128.405 148.88C128.225 148.975 128.036 149.046 127.842 149.093L128.081 150.064C128.352 149.998 128.617 149.898 128.87 149.766L129.77 149.293L129.305 148.408Z"
		  fill="#24B4E1"/>
	<path opacity="0.2"
		  d="M163.071 85.7344C165.229 84.6023 165.208 81.5052 163.035 80.4023L128.338 62.7964C127.48 62.3609 126.465 62.3636 125.609 62.8038L91.4054 80.3919C89.2445 81.5031 89.232 84.588 91.3839 85.7166L125.851 103.794C126.723 104.252 127.765 104.252 128.638 103.794L163.071 85.7344Z"
		  fill="#24B4E1"/>
	<path opacity="0.4" fill-rule="evenodd" clip-rule="evenodd"
		  d="M162.13 82.1859L127.433 64.5799C127.147 64.4347 126.809 64.4357 126.523 64.5824L92.32 82.1705C91.5997 82.5409 91.5956 83.5692 92.3129 83.9454L126.78 102.023C127.071 102.176 127.418 102.176 127.709 102.023L162.142 83.9632C162.861 83.5859 162.854 82.5535 162.13 82.1859ZM163.035 80.4023C165.208 81.5052 165.229 84.6023 163.071 85.7344L128.638 103.794C127.765 104.252 126.723 104.252 125.851 103.794L91.3839 85.7166C89.232 84.588 89.2445 81.5031 91.4054 80.3919L125.609 62.8038C126.465 62.3636 127.48 62.3609 128.338 62.7964L163.035 80.4023Z"
		  fill="#24B4E1"/>
	<g filter="url(#filter2_d_13389_67232)">
		<path
			d="M157.218 59.5122C157.218 56.1225 155.313 53.0202 152.29 51.4863L114.807 32.4663C112.232 31.1597 109.186 31.1679 106.618 32.4884L69.6958 51.475C66.6968 53.0172 64.8115 56.1065 64.8115 59.4788V96.0332C64.8115 99.3794 66.6679 102.449 69.6312 104.003L106.834 123.516C109.452 124.889 112.577 124.889 115.195 123.516L152.398 104.003C155.362 102.449 157.218 99.3794 157.218 96.0333V59.5122Z"
			fill="#6A737F"/>
	</g>
	<path opacity="0.6" fill-rule="evenodd" clip-rule="evenodd"
		  d="M151.777 52.4981L114.293 33.4781C112.043 32.3363 109.381 32.3434 107.137 33.4974L70.2146 52.4841C67.5937 53.8318 65.9461 56.5317 65.9461 59.4788V96.0332C65.9461 98.9575 67.5685 101.64 70.1582 102.999L107.361 122.512C109.649 123.711 112.38 123.711 114.668 122.512L151.871 102.999C154.461 101.64 156.083 98.9575 156.083 96.0333V59.5122C156.083 56.5498 154.419 53.8386 151.777 52.4981ZM152.29 51.4863C155.313 53.0202 157.218 56.1225 157.218 59.5122V96.0333C157.218 99.3794 155.362 102.449 152.398 104.003L115.195 123.516C112.577 124.889 109.452 124.889 106.834 123.516L69.6312 104.003C66.6679 102.449 64.8115 99.3794 64.8115 96.0332V59.4788C64.8115 56.1065 66.6968 53.0172 69.6958 51.475L106.618 32.4884C109.186 31.1679 112.232 31.1597 114.807 32.4663L152.29 51.4863Z"
		  fill="#24B4E1"/>
	<path opacity="0.36"
		  d="M146.841 61.3897C149 60.2576 148.979 57.1605 146.805 56.0576L112.109 38.4517C111.25 38.0161 110.235 38.0189 109.379 38.459L75.1759 56.0472C73.015 57.1584 73.0025 60.2432 75.1544 61.3719L109.621 79.4496C110.494 79.9072 111.536 79.9072 112.408 79.4496L146.841 61.3897Z"
		  fill="#24B4E1"/>
	<path opacity="0.6" fill-rule="evenodd" clip-rule="evenodd"
		  d="M145.9 57.8412L111.204 40.2352C110.917 40.09 110.579 40.0909 110.294 40.2376L76.0905 57.8258C75.3702 58.1962 75.3661 59.2245 76.0834 59.6007L110.55 77.6784C110.841 77.8309 111.188 77.8309 111.479 77.6784L145.912 59.6185C146.632 59.2411 146.625 58.2088 145.9 57.8412ZM146.805 56.0576C148.979 57.1605 149 60.2576 146.841 61.3897L112.408 79.4496C111.536 79.9072 110.494 79.9072 109.621 79.4496L75.1544 61.3719C73.0025 60.2432 73.015 57.1584 75.1759 56.0472L109.379 38.459C110.235 38.0189 111.25 38.0161 112.109 38.4517L146.805 56.0576Z"
		  fill="#24B4E1"/>
	<defs>
		<filter id="filter0_d_13389_67232" x="32.4446" y="46.3337" width="118.593" height="119.241"
				filterUnits="userSpaceOnUse" color-interpolation-filters="sRGB">
			<feFlood flood-opacity="0" result="BackgroundImageFix"/>
			<feColorMatrix in="SourceAlpha" type="matrix" values="0 0 0 0 0 0 0 0 0 0 0 0 0 0 0 0 0 0 127 0"
						   result="hardAlpha"/>
			<feOffset dy="2.57558"/>
			<feGaussianBlur stdDeviation="6.54673"/>
			<feComposite in2="hardAlpha" operator="out"/>
			<feColorMatrix type="matrix" values="0 0 0 0 0.392157 0 0 0 0 0.427451 0 0 0 0 0.482353 0 0 0 0.16 0"/>
			<feBlend mode="normal" in2="BackgroundImageFix" result="effect1_dropShadow_13389_67232"/>
			<feBlend mode="normal" in="SourceGraphic" in2="effect1_dropShadow_13389_67232" result="shape"/>
		</filter>
		<filter id="filter1_d_13389_67232" x="32.4446" y="46.3337" width="118.593" height="119.241"
				filterUnits="userSpaceOnUse" color-interpolation-filters="sRGB">
			<feFlood flood-opacity="0" result="BackgroundImageFix"/>
			<feColorMatrix in="SourceAlpha" type="matrix" values="0 0 0 0 0 0 0 0 0 0 0 0 0 0 0 0 0 0 127 0"
						   result="hardAlpha"/>
			<feOffset dy="2.57558"/>
			<feGaussianBlur stdDeviation="6.54673"/>
			<feComposite in2="hardAlpha" operator="out"/>
			<feColorMatrix type="matrix" values="0 0 0 0 0.392157 0 0 0 0 0.427451 0 0 0 0 0.482353 0 0 0 0.16 0"/>
			<feBlend mode="normal" in2="BackgroundImageFix" result="effect1_dropShadow_13389_67232"/>
			<feBlend mode="normal" in="SourceGraphic" in2="effect1_dropShadow_13389_67232" result="shape"/>
		</filter>
		<filter id="filter2_d_13389_67232" x="51.7181" y="20.9743" width="118.593" height="119.241"
				filterUnits="userSpaceOnUse" color-interpolation-filters="sRGB">
			<feFlood flood-opacity="0" result="BackgroundImageFix"/>
			<feColorMatrix in="SourceAlpha" type="matrix" values="0 0 0 0 0 0 0 0 0 0 0 0 0 0 0 0 0 0 127 0"
						   result="hardAlpha"/>
			<feOffset dy="2.57558"/>
			<feGaussianBlur stdDeviation="6.54673"/>
			<feComposite in2="hardAlpha" operator="out"/>
			<feColorMatrix type="matrix" values="0 0 0 0 0.392157 0 0 0 0 0.427451 0 0 0 0 0.482353 0 0 0 0.16 0"/>
			<feBlend mode="normal" in2="BackgroundImageFix" result="effect1_dropShadow_13389_67232"/>
			<feBlend mode="normal" in="SourceGraphic" in2="effect1_dropShadow_13389_67232" result="shape"/>
		</filter>
	</defs>
</svg>
