<svg xmlns="http://www.w3.org/2000/svg" width="47" height="1380" viewBox="0 0 47 1380">
  <g fill="none" fill-rule="evenodd">
    <path fill="#FFFFFF" fill-rule="nonzero" d="M29.5499056 1293.617C30.1021904 1293.617 30.5499056 1294.06472 30.5499056 1294.617L30.5499056 1302.6931C30.5499056 1303.24538 30.1021904 1303.6931 29.5499056 1303.6931L28.0740944 1303.693 28.0759745 1306.16369C28.0759745 1306.8914 27.5207456 1307.48944 26.8108038 1307.55728L26.6759745 1307.56369 17.8500944 1307.56369C17.122378 1307.56369 16.5243423 1307.00846 16.4565032 1306.29851L16.4500944 1306.16369 16.4500944 1297.33781C16.4500944 1296.61009 17.0053233 1296.01205 17.715265 1295.94421L17.8500944 1295.93781 20.4730944 1295.937 20.4738087 1294.617C20.4738087 1294.06472 20.921524 1293.617 21.4738087 1293.617L29.5499056 1293.617zM24.8972796 1296.01053L24.8965704 1297.94053 20.4735704 1297.94 20.4730944 1297.936 18.4500944 1297.93681 18.4500944 1305.56281 26.0750944 1305.56281 26.0740944 1303.693 21.4738087 1303.6931C20.921524 1303.6931 20.4738087 1303.24538 20.4738087 1302.6931L20.4735704 1299.737 24.8965704 1299.73653 24.8972796 1301.6837 27.7338611 1298.84711 24.8972796 1296.01053zM28.354 1261.289L29.737 1261.289C30.0445165 1261.28893 30.3349645 1261.43035 30.5245579 1261.67247 30.7141513 1261.91459 30.781804 1262.23047 30.708 1262.529L28.891 1269.857C28.7807072 1270.30312 28.3805536 1270.61664 27.921 1270.617L19.079 1270.617C18.6194464 1270.61664 18.2192928 1270.30312 18.109 1269.857L16.292 1262.529C16.2182381 1262.23064 16.2857696 1261.91494 16.4751338 1261.67286 16.664498 1261.43079 16.954659 1261.28924 17.262 1261.289L18.422 1261.289C18.4280865 1261.27753 18.4344213 1261.26619 18.441 1261.255L20.643 1257.441C20.7963351 1257.16073 21.0893801 1256.98543 21.4088417 1256.98279 21.7283033 1256.98032 22.0241159 1257.15091 22.1819162 1257.42869 22.3397164 1257.70647 22.3347741 1258.0479 22.169 1258.321L20.456 1261.289 26.32 1261.289 24.607 1258.322C24.4496244 1258.04941 24.4496304 1257.71356 24.6070157 1257.44097 24.764401 1257.16838 25.055255 1257.00047 25.3700158 1257.00047 25.6847766 1257.00048 25.9756245 1257.16841 26.133 1257.441L28.336 1261.255C28.3422424 1261.2662 28.3482438 1261.27754 28.354 1261.289L28.354 1261.289zM24.358 1265.096L24.572 1263.354 22.287 1263.354 22.5 1265.096 24.358 1265.096zM25.811 1265.096L27.861 1265.096C28.121 1265.096 28.3310126 1264.886 28.3310126 1264.626L28.3310126 1263.826C28.3315319 1263.701 28.2822491 1263.58094 28.1940493 1263.49237 28.1058495 1263.40379 27.985999 1263.354 27.861 1263.354L26.025 1263.354 25.811 1265.096 25.811 1265.096zM24.19 1266.466L22.669 1266.466 22.883 1268.209 23.976 1268.209 24.19 1266.467 24.19 1266.466zM25.643 1266.466L25.429 1268.209 27.115 1268.209C27.375 1268.209 27.5850032 1267.998 27.5850032 1267.738L27.5850032 1266.938C27.5852656 1266.81318 27.5358651 1266.69337 27.4476942 1266.60501 27.3595233 1266.51665 27.2398252 1266.467 27.115 1266.467L25.643 1266.467 25.643 1266.466zM21.048 1265.096L20.834 1263.354 19.107 1263.354C18.9820016 1263.35373 18.8620462 1263.40327 18.7736587 1263.49166 18.6852713 1263.58005 18.6357338 1263.7 18.6359968 1263.825L18.6359968 1264.625C18.6359968 1264.885 18.846 1265.096 19.106 1265.096L21.048 1265.096zM21.216 1266.466L19.886 1266.466C19.7608277 1266.46573 19.6407198 1266.51541 19.5523033 1266.60401 19.4638869 1266.69262 19.4144671 1266.81283 19.4149874 1266.938L19.4149874 1267.738C19.4149874 1267.998 19.625 1268.208 19.885 1268.208L21.43 1268.208 21.216 1266.467 21.216 1266.466z"/>
    <g fill="#FFFFFF" fill-rule="nonzero" transform="translate(17 1180)">
      <path d="M3.585,12.13 L9.485,12.13 C9.645,12.13 9.775,12.257 9.775,12.415 L9.775,13.445 C9.775,13.602 9.645,13.7300204 9.485,13.7300204 L3.585,13.7300204 C3.5086171,13.7305323 3.43515139,13.7006988 3.38076544,13.647063 C3.32637949,13.5934272 3.2955286,13.5203829 3.295,13.444 L3.295,12.415 C3.295,12.257 3.425,12.13 3.585,12.13 L3.585,12.13 Z M3.585,8.927 L9.485,8.927 C9.645,8.927 9.775,9.056 9.775,9.214 L9.775,10.242 C9.775,10.4 9.645,10.5280204 9.485,10.5280204 L3.585,10.5280204 C3.5086171,10.5285323 3.43515139,10.4986988 3.38076544,10.445063 C3.32637949,10.3914272 3.2955286,10.3183829 3.295,10.242 L3.295,9.214 C3.295,9.056 3.425,8.927 3.585,8.927 L3.585,8.927 Z M3.643,5.726 L4.568,5.726 C4.76,5.726 4.915,5.879 4.915,6.069 L4.915,6.983 C4.915,7.173 4.76,7.32601714 4.568,7.32601714 L3.643,7.32601714 C3.55149985,7.32653197 3.46353614,7.29069307 3.39846069,7.22636776 C3.33338523,7.16204245 3.2965289,7.07450017 3.296,6.983 L3.296,6.069 C3.296,5.879 3.451,5.726 3.643,5.726 L3.643,5.726 Z"/>
      <path d="M8.303,3.335 C8.28667409,3.31907751 8.26480455,3.31011459 8.242,3.31 C8.19472156,3.31 8.15608686,3.34773405 8.155,3.395 L8.155,5.64 C8.155,5.687 8.194,5.72600249 8.242,5.72600249 L10.514,5.72600249 C10.5489013,5.72615384 10.5804346,5.70519897 10.5938116,5.67296262 C10.6071885,5.64072626 10.5997562,5.603602 10.575,5.579 L8.303,3.335 L8.303,3.335 Z M11.163,15.3300255 C11.2240005,15.3305327 11.2827139,15.3068101 11.3262229,15.2640513 C11.3697318,15.2212926 11.3944719,15.1630005 11.395,15.102 L11.395,7.556 C11.395,7.49482655 11.3706313,7.43617309 11.3272814,7.39301086 C11.2839315,7.34984863 11.2251729,7.32573403 11.164,7.326 L6.767,7.326 C6.64036183,7.32655538 6.53709999,7.22463461 6.536,7.098 L6.536,2.753 C6.53573634,2.69182561 6.51111272,2.63327665 6.46757492,2.59030183 C6.42403711,2.54732702 6.36517264,2.52346748 6.304,2.52397464 L1.907,2.52397464 C1.84600003,2.52373421 1.78739294,2.54771174 1.74407191,2.59065769 C1.70075088,2.63360365 1.67626464,2.69200003 1.676,2.753 L1.676,15.103 C1.67764555,15.2292429 1.78074763,15.3305597 1.907,15.3300255 L11.164,15.3300255 L11.163,15.3300255 Z M7.796,0.923 C8.026,0.923 8.246,1.013 8.409,1.174 L12.676,5.39 C12.893,5.605 13.015,5.896 13.015,6.2 L13.015,16.074 C13.0136778,16.302883 12.9214843,16.5218659 12.7587018,16.682773 C12.5959194,16.84368 12.375883,16.9333299 12.147,16.9320429 L0.924,16.9320429 C0.695209862,16.9333296 0.475276785,16.8436479 0.31265313,16.6827124 C0.150029475,16.5217769 0.0580578259,16.3027916 0.057,16.074 L0.057,1.78 C0.057,1.307 0.445,0.923 0.924,0.923 L7.796,0.923 L7.796,0.923 Z"/>
    </g>
    <path fill="#FFFFFF" fill-rule="nonzero" d="M27.9509766,1141 C29.6012658,1141 30.9387207,1142.43906 30.9387207,1144.21469 L30.9387207,1152.78531 C30.9387207,1154.56094 29.6012658,1156 27.9509766,1156 L18.9877441,1156 C17.3374549,1156 16,1154.56094 16,1152.78531 L16,1144.21469 C16,1142.43906 17.3374549,1141 18.9877441,1141 L27.9509766,1141 Z M17.8673401,1152.96587 C17.8673401,1153.53677 18.3079387,1154 18.850881,1154 L28.0878397,1154 C28.630782,1154 29.0713806,1153.53677 29.0713806,1152.96587 L29.0713806,1144.03413 C29.0713806,1143.46323 28.630782,1143 28.0878397,1143 L18.850881,1143 C18.3079387,1143 17.8673401,1143.46323 17.8673401,1144.03413 L17.867,1147.284 L22.9472281,1147.28483 L22.9472281,1145.70817 C22.9463223,1145.56259 23.0258523,1145.4284 23.1539909,1145.3593 C23.2800923,1145.29267 23.4334265,1145.30545 23.5467605,1145.39203 L23.5467605,1145.39203 L26.282576,1148.19411 C26.3803816,1148.26973 26.4373494,1148.38661 26.4366566,1148.51024 C26.4371005,1148.63359 26.3801582,1148.75013 26.282576,1148.82557 L26.282576,1148.82557 L23.5467605,1151.62765 C23.4326019,1151.71467 23.2801243,1151.72824 23.1539909,1151.66118 C23.0270593,1151.59412 22.9472281,1151.45921 22.9472281,1151.31232 L22.9472281,1151.31232 L22.9472281,1149.73565 L17.867,1149.735 L17.8673401,1152.96587 Z"/>
    <path fill="#78D700" fill-rule="nonzero" d="M23,390.57 L23,386.338 C23,385.602 23.602,385 24.338,385 L31.662,385 C32.398,385 33,385.602 33,386.338 L33,390.567 C33,391.303 32.398,391.905 31.662,391.905 L30.669,391.905 L30.669,394.254 C30.669,394.493 30.458,394.486 30.018,394.113 C29.761,393.898 28.799,392.796 28.032,391.905 L24.338,391.905 C23.5999853,391.905553 23.0011038,391.308014 23,390.57 Z M20.035,391.585 C19.54,391.583 19.045,391.581 18.549,391.587 C18.413,391.589 18.342,391.548 18.306,391.424 C18.233,391.182 18.133,390.947 18.074,390.703 C17.807,389.56 17.786,388.405 17.907,387.246 C17.967,386.671 18.08,386.102 18.308,385.559 C18.354,385.449 18.413,385.404 18.542,385.404 C19.032,385.412 19.521,385.408 20.012,385.406 C20.696,385.404 21.097,385.014 21.099,384.346 C21.101,383.965 21.099,383.589 21.101,383.209 C21.101,382.819 21.105,382.428 21.101,382.038 C21.093,381.408 20.683,381.008 20.035,381.005 C19.537,381.001 19.045,381.013 18.547,381.001 C18.1083893,380.98671 17.680545,381.138491 17.349,381.426 C16.789,381.893 16.425,382.495 16.126,383.136 C15.503,384.456 15.183,385.858 15.056,387.303 C14.8763113,389.236165 15.1210134,391.18525 15.773,393.014 C16.069,393.848 16.452,394.639 17.067,395.305 C17.489,395.765 17.99,396.033 18.651,395.997 C19.103,395.972 19.561,395.995 20.014,395.993 C20.687,395.989 21.099,395.593 21.101,394.943 C21.103,394.169 21.101,393.394 21.099,392.62 C21.095,391.985 20.685,391.587 20.035,391.585 L20.035,391.585 Z"/>
    <g transform="translate(17 309)">
      <circle cx="5.5" cy="6.5" r="5.5" fill="#2FC6F6" fill-rule="nonzero" opacity=".797"/>
      <circle cx="8.5" cy="6.5" r="5.5" fill="#59D2F8" fill-rule="nonzero"/>
      <circle cx="8.5" cy="6.5" r="6" stroke="#FFFFFF"/>
      <path fill="#FFFFFF" fill-rule="nonzero" d="M11.278,5.092 L10.82,4.633 C10.7578758,4.5682368 10.6717373,4.53204417 10.582,4.53294666 C10.4922627,4.53204417 10.4061242,4.5682368 10.344,4.633 L7.647,7.331 L6.55,6.234 C6.48811481,6.16949099 6.40239086,6.13332055 6.313,6.134 C6.22326271,6.13304417 6.13712425,6.1692368 6.075,6.234 L5.616,6.693 C5.5512368,6.75512425 5.51504417,6.84126271 5.51594666,6.931 C5.51594666,7.022 5.55,7.101 5.616,7.168 L7.41,8.961 C7.477,9.028 7.556,9.061 7.648,9.061 C7.739,9.061 7.818,9.028 7.885,8.961 L11.279,5.567 C11.3437632,5.50487575 11.3799558,5.41873729 11.3790534,5.329 C11.3796794,5.23960914 11.343509,5.15388519 11.279,5.092 L11.278,5.092 Z"/>
    </g>
    <g fill-rule="nonzero" transform="translate(18 341)">
      <circle cx="5.5" cy="5.5" r="5.5" fill="#2FC6F6" opacity=".797"/>
      <path fill="#FFFFFF" d="M8.278,4.092 L7.82,3.633 C7.75787575,3.5682368 7.67173729,3.53204417 7.582,3.53294666 C7.49226271,3.53204417 7.40612425,3.5682368 7.344,3.633 L4.647,6.331 L3.55,5.234 C3.48811481,5.16949099 3.40239086,5.13332055 3.313,5.134 C3.22326271,5.13304417 3.13712425,5.1692368 3.075,5.234 L2.616,5.693 C2.5512368,5.75512425 2.51504417,5.84126271 2.51594666,5.931 C2.51594666,6.022 2.55,6.101 2.616,6.168 L4.41,7.961 C4.477,8.028 4.556,8.061 4.648,8.061 C4.739,8.061 4.818,8.028 4.885,7.961 L8.279,4.567 C8.3437632,4.50487575 8.37995583,4.41873729 8.37905334,4.329 C8.37967945,4.23960914 8.34350901,4.15388519 8.279,4.092 L8.278,4.092 Z"/>
    </g>
    <path fill="#535C69" fill-rule="nonzero" d="M27.294,898.397 L27.294,897.029 C27.294,895.359 25.816,894 24.001,894 C22.185,894 20.708,895.359 20.708,897.03 L20.708,898.397 L20,898.397 L20,904 L28,904 L28,898.397 L27.294,898.397 Z M21.948,897.029 C21.948,895.989 22.868,895.143 24.001,895.143 C25.131,895.143 26.051,895.989 26.051,897.029 L26.051,898.397 L21.948,898.397 L21.948,897.029 Z M24.567,902.464 L23.437,902.464 L23.606,900.928 C23.3936077,900.812578 23.2598564,900.591698 23.256,900.35 C23.256,899.972 23.589,899.666 24.001,899.666 C24.411,899.666 24.744,899.972 24.744,900.35 C24.7407766,900.591879 24.6068467,900.813055 24.394,900.928 L24.567,902.464 L24.567,902.464 Z"/>
    <path fill="#FFFFFF" fill-rule="nonzero" d="M23.475,1231.994 C21.831,1233.926 20.839,1234.924 20.5,1234.991 C19.912,1235.106 19.583,1234.107 19.513,1231.994 L18.8,1231.994 C17.2536027,1231.994 16,1230.7404 16,1229.194 L16,1222.8 C16,1221.2536 17.2536027,1220 18.8,1220 L28.2,1220 C29.7463973,1220 31,1221.2536 31,1222.8 L31,1229.194 C31,1230.7404 29.7463973,1231.994 28.2,1231.994 L23.475,1231.994 Z M19.002,1222.068 C18.4497153,1222.068 18.002,1222.51572 18.002,1223.068 L18.002,1228.899 C18.002,1229.45128 18.4497153,1229.899 19.002,1229.899 L27.998,1229.899 C28.5502847,1229.899 28.998,1229.45128 28.998,1228.899 L28.998,1223.068 C28.998,1222.51572 28.5502847,1222.068 27.998,1222.068 L19.002,1222.068 Z"/>
    <circle cx="23.5" cy="285.5" r="4.5" fill="#C1C4C8" fill-rule="nonzero"/>
    <path fill="#FFFFFF" fill-rule="nonzero" d="M23.556,259.636 L21.68,259.636 L21.68,265.446 L27.364,265.446 L27.364,263.511 L23.556,263.511 L23.556,259.636 Z M23.5,269.946 C19.9394202,269.946552 17.0525523,267.06058 17.052,263.5 C17.0514477,259.93942 19.9374202,257.052552 23.498,257.052 C27.0585798,257.051448 29.9454477,259.93742 29.946,263.498 C29.9465523,267.05858 27.0605798,269.945448 23.5,269.946 L23.5,269.946 Z M23.4999995,255 C20.4632424,255 17.6571625,256.620091 16.1387836,259.25 C14.6204048,261.879909 14.6204048,265.120091 16.1387836,267.75 C17.6571625,270.379909 20.4632424,272 23.4999995,272 C28.1944204,272 31.9999995,268.19442 31.9999995,263.5 C31.9999995,258.80558 28.1944204,255 23.4999995,255 L23.4999995,255 Z"/>
    <path fill="#7BD500" fill-rule="nonzero" d="M28.7,1065.058 C28.6226778,1064.98069 28.4973222,1064.98069 28.42,1065.058 L22.05,1071.428 L19.566,1068.943 C19.5067518,1068.88428 19.4112482,1068.88428 19.352,1068.943 L18.044,1070.251 C17.9852778,1070.31025 17.9852778,1070.40575 18.044,1070.465 L21.944,1074.365 C22.0031286,1074.42306 22.0978714,1074.42306 22.157,1074.365 L22.19,1074.332 L29.942,1066.58 C30.0193143,1066.50268 30.0193143,1066.37732 29.942,1066.3 L28.7,1065.058 L28.7,1065.058 Z"/>
    <path fill="#2FC6F6" fill-rule="nonzero" d="M37.957,1014.803 L40.487,1006.667 C40.7070845,1005.95701 40.5196623,1005.18351 39.999,1004.653 C39.4678075,1004.11144 38.6932821,1003.88495 37.954,1004.055 C37.2201309,1004.21613 36.6274061,1004.75553 36.398,1005.471 L34.23,1012.456 C27.4650995,1009.05005 19.484917,1009.05821 12.727,1012.478 L10.549,1005.471 C10.209,1004.378 9.016,1003.759 7.887,1004.089 C6.757,1004.419 6.119,1005.573 6.46,1006.667 L9,1014.836 C3.294,1019.253 -0.02,1025.95 -0.000267615038,1033.026 C-0.000267615038,1045.794 10.517,1042.66 23.5,1042.66 C36.483,1042.66 47.0003513,1045.794 47.0003513,1033.025 C47.023,1025.931 43.69,1019.218 37.957,1014.803 L37.957,1014.803 Z M23.479,1031.29 C14.211,1031.29 6.695,1032.22 6.695,1028.417 C6.695,1024.612 14.211,1021.524 23.479,1021.524 C32.746,1021.524 40.273,1024.609 40.273,1028.417 C40.273,1032.224 32.757,1031.29 23.479,1031.29 Z M15.802,1024.373 C14.479,1024.608 13.572,1025.799 13.734,1027.093 C13.896,1028.385 15.069,1029.333 16.411,1029.255 C17.754,1029.177 18.801,1028.1 18.802,1026.797 C18.652,1025.332 17.317,1024.253 15.802,1024.373 Z M29.084,1027.098 C29.248,1028.391 30.424,1029.338 31.766,1029.258 C33.109,1029.178 34.156,1028.1 34.156,1026.798 C34.006,1025.328 32.664,1024.248 31.145,1024.373 C29.822,1024.612 28.919,1025.805 29.084,1027.098 Z"/>
    <path fill="#525C69" fill-rule="nonzero" d="M27.062,972 L28.99,973.929 L22.073,980.845 L20.144,978.916 L27.062,972 Z M19.007,981.723 C18.987,981.797 19.009,981.874 19.061,981.928 C19.115,981.982 19.192,982.003 19.265,981.982 L21.552,981.366 L19.623,979.437 L19.007,981.723 Z"/>
    <path fill="#468EE5" fill-rule="nonzero" d="M26.063,853.824 C27.003,853.824 27.773,853.054 27.773,852.114 L27.773,846.709 C27.773,845.769 27.003,845 26.063,845 L16.71,845 C15.77,845 15.001,845.769 15.001,846.709 L15.001,852.11 C15.001,853.05 15.77,853.82 16.71,853.82 L17.978,853.82 L17.978,856.819 C17.978,857.125 18.248,857.116 18.81,856.639 C19.139,856.365 20.366,854.957 21.347,853.819 L26.064,853.819 L26.064,853.824 L26.063,853.824 Z M30.291,848.688 L29.329,848.688 L29.329,852.879 C29.3251545,854.265848 28.2018479,855.389154 26.815,855.393 L21.787,855.393 L20.015,857.242 C20.28,857.412 20.599,857.516 20.937,857.516 L25.654,857.516 C26.634,858.654 27.867,860.062 28.191,860.336 C28.757,860.813 29.023,860.817 29.023,860.516 L29.023,857.516 L30.291,857.516 C31.231,857.516 32.0000036,856.747 32.0000036,855.807 L32.0000036,850.397 C32.0005311,849.94349 31.8206788,849.508388 31.5000927,849.187615 C31.1795067,848.866841 30.7445097,848.686734 30.291,848.687 L30.291,848.688 Z M16.84,787.113 L22.837,791.927 C22.973,792.036 23.11,792.108 23.28,792.108 L23.552,792.108 C23.722,792.072 23.859,792.036 23.995,791.928 L29.992,787.113 C30.095,787.041 30.162,786.932 30.231,786.823 L30.231,790.009 L31.901,790.009 L31.901,785.919 C31.901,784.869 31.083,784 30.095,784 L16.805,784 C15.818,784 15,784.869 15,785.918 L15,794.787 C15,795.837 15.818,796.705 16.806,796.705 L23.586,796.705 L23.586,794.932 L17.215,794.932 C16.908,794.932 16.67,794.678 16.67,794.352 L16.67,786.86 C16.7058126,786.956616 16.7640813,787.043333 16.84,787.113 L16.84,787.113 Z M28.493,785.773 L23.416,789.864 L18.339,785.774 L28.493,785.774 L28.493,785.773 Z M34.115,795.33 L31.321,792.398 C31.219,792.289 31.049,792.289 30.912,792.362 C30.782074,792.435443 30.7035297,792.57482 30.708,792.724 L30.708,794.389 L26.483,794.389 C26.278,794.389 26.108,794.569 26.108,794.787 L26.108,796.524 C26.108,796.742 26.278,796.922 26.483,796.922 L30.708,796.922 L30.708,798.588 C30.708,798.732 30.776,798.878 30.912,798.95 C31.0418587,799.029488 31.2084702,799.014453 31.322,798.913 L34.115,795.981 C34.2162702,795.902575 34.2783392,795.783913 34.285,795.656 C34.2786254,795.527731 34.2165276,795.408649 34.115,795.33 L34.115,795.33 Z"/>
    <path fill="#FFFFFF" fill-rule="nonzero" d="M28.967,755 L18.033,755 C17.465,755 17,755.465 17,756.033 L17,763.004 C17,763.572 17.465,764.037 18.033,764.037 L23.267,764.037 L26.02,766.788 C26.1922533,766.958567 26.4697467,766.958567 26.642,766.788 L26.642,764.037 L28.967,764.037 C29.535,764.037 30,763.572 30,763.004 L30,756.033 C30,755.465 29.535,755 28.967,755 L28.967,755 Z M27.499,725.085 L28.199,722.762 C28.2934406,722.449407 28.1165931,722.119441 27.804,722.025 C27.4914068,721.930559 27.1614407,722.107407 27.067,722.42 L26.468,724.415 C24.6041861,723.442004 22.3818471,723.444246 20.52,724.421 L19.918,722.421 C19.8241116,722.108683 19.494817,721.931612 19.1825,722.0255 C18.870183,722.119388 18.6931116,722.448683 18.787,722.761 L19.49,725.095 C17.9114851,726.356561 16.9946948,728.269303 16.9999319,730.29 C16.9999319,733.936 19.909,733.041 23.5,733.041 C27.091,733.041 30.0001086,733.936 30.0001086,730.29 C30.0067314,728.263702 29.0852213,726.345885 27.499,725.085 L27.499,725.085 Z M23.494,729.794 C20.931,729.794 18.852,730.06 18.852,728.974 C18.852,727.887 20.931,727.004 23.494,727.004 C26.057,727.004 28.139,727.886 28.139,728.974 C28.139,730.061 26.06,729.794 23.494,729.794 Z M21.371,727.819 C21.005453,727.886142 20.7553264,728.22622 20.8001261,728.595172 C20.8449258,728.964124 21.1691711,729.234459 21.5401642,729.212168 C21.9111573,729.189876 22.2007004,728.882662 22.201,728.511 C22.1598263,728.092327 21.7902507,727.784199 21.371,727.819 L21.371,727.819 Z M25.044,728.597 C25.0883551,728.967313 25.4138151,729.238775 25.7860761,729.215956 C26.158337,729.193138 26.4482053,728.883958 26.4470111,728.511 C26.4058413,728.091058 26.0343697,727.782464 25.614,727.819 C25.2483013,727.887024 24.9986279,728.227806 25.044,728.597 L25.044,728.597 Z M21.351,696.175 C22.108,696.175 22.288,695.738 21.753,695.204 L20.69,694.139 C20.84,693.928 21.004,693.73 21.188,693.551 C21.3259525,693.417661 21.4729707,693.294032 21.628,693.181 C21.701,693.128 21.775,693.073 21.848,693.023 C21.974,692.943 22.101,692.869 22.232,692.803 C22.292,692.773 22.35,692.748 22.41,692.72 C22.548,692.657 22.69,692.602 22.836,692.552 C22.865,692.544 22.892,692.532 22.92,692.524 C23.1433774,692.455976 23.3722356,692.407461 23.604,692.379 C23.795,692.351 23.988,692.334 24.186,692.334 L24.203,692.335 C24.344,692.335 24.479,692.342 24.616,692.355 C24.684,692.362 24.748,692.375 24.812,692.385 C24.892,692.397 24.968,692.405 25.042,692.421 C25.098,692.433 25.152,692.448 25.207,692.461 C25.293,692.481 25.381,692.503 25.468,692.531 C25.506,692.541 25.544,692.557 25.582,692.571 C25.683,692.606 25.784,692.64 25.882,692.683 C26.9376936,693.136643 27.7685416,693.99305 28.19,695.062 C28.3425524,695.450169 28.6906024,695.727466 29.1030428,695.789437 C29.5154833,695.851407 29.9296548,695.688635 30.1895428,695.362437 C30.4494309,695.036238 30.5155524,694.596169 30.363,694.208 C30.0307319,693.358805 29.5257373,692.587862 28.88,691.944 C28.2979602,691.364281 27.6138077,690.897104 26.862,690.566 C26.851,690.561 26.843,690.554 26.833,690.55 L26.808,690.54 C26.6408611,690.469237 26.4706974,690.405843 26.298,690.35 C26.256,690.335 26.218,690.317 26.175,690.305 C26.0112801,690.254539 25.8454592,690.211165 25.678,690.175 C25.625,690.163 25.574,690.145 25.521,690.135 C25.3537736,690.102536 25.1853026,690.076848 25.016,690.058 C24.963,690.052 24.911,690.039 24.857,690.034 C24.6330218,690.011688 24.4080865,690.000341 24.183,690 L24.143,690.003 C23.8945708,690.002361 23.6463685,690.018062 23.4,690.05 C23.26,690.067 23.122,690.087 22.985,690.112 C22.925,690.122 22.863,690.132 22.802,690.146 C22.6291959,690.181478 22.4580314,690.224519 22.289,690.275 C22.2727072,690.279164 22.2563731,690.283164 22.24,690.287 C22.0436903,690.348113 21.8501692,690.417847 21.66,690.496 L21.604,690.52 C21.4247901,690.595649 21.2489571,690.679062 21.077,690.77 L21.042,690.787 C20.2595471,691.204383 19.5691575,691.77506 19.012,692.465 L17.972,691.422 C17.438,690.889 17,691.069 17,691.825 L17,694.802 C17,695.559 17.618,696.175 18.373,696.175 L21.351,696.175 L21.351,696.175 Z M29.072,698 L26.094,698 C25.339,698 25.159,698.436 25.692,698.97 L26.757,700.036 C26.607,700.244 26.444,700.441 26.26,700.619 C26.1950108,700.682539 26.1276287,700.743583 26.058,700.802 C25.9828548,700.867094 25.9051255,700.929144 25.825,700.988 C25.747,701.045 25.668,701.104 25.585,701.156 C25.4096531,701.269993 25.2257743,701.37029 25.035,701.456 C24.8978308,701.517363 24.7576525,701.571766 24.615,701.619 C24.585,701.629 24.555,701.642 24.525,701.65 C24.3474544,701.704199 24.1663496,701.745967 23.983,701.775 C23.936,701.782 23.888,701.788 23.841,701.796 C23.5053721,701.843452 23.1652393,701.850167 22.828,701.816 C22.767,701.811 22.706,701.799 22.646,701.79 C22.562852,701.780704 22.4801168,701.768027 22.398,701.752 C22.348,701.744 22.296,701.725 22.246,701.714 C22.155,701.691 22.066,701.671 21.977,701.644 C21.938,701.631 21.9,701.614 21.86,701.603 C21.241821,701.391178 20.6802009,701.040935 20.218,700.579 C19.799417,700.161907 19.4715591,699.6628 19.255,699.113 C19.0188983,698.512943 18.3410574,698.217898 17.741,698.454 C17.1409426,698.690102 16.8458983,699.367943 17.082,699.968 C17.417,700.816 17.915,701.578 18.567,702.228 C19.1477379,702.809801 19.8321725,703.277849 20.585,703.608 C20.595,703.613 20.604,703.62 20.612,703.622 C20.62,703.628 20.63,703.629 20.636,703.632 C20.807,703.708 20.982,703.772 21.159,703.829 L21.269,703.869 C21.439,703.922 21.612,703.964 21.785,704.004 C21.831,704.014 21.875,704.028 21.923,704.038 C22.098,704.075 22.278,704.099 22.458,704.119 C22.501,704.126 22.542,704.136 22.586,704.139 C22.809,704.161 23.033,704.175 23.261,704.175 C23.274,704.175 23.284,704.172 23.296,704.172 C23.485,704.171 23.672,704.162 23.856,704.144 L24.04,704.124 C24.2405621,704.10019 24.4400631,704.068163 24.638,704.028 C24.816,703.992 24.994,703.948 25.168,703.895 C25.179,703.893 25.188,703.889 25.201,703.888 C25.401,703.827 25.598,703.755 25.789,703.677 L25.834,703.657 C26.018,703.582 26.197,703.497 26.371,703.403 L26.4,703.388 C27.182965,702.970095 27.873708,702.398727 28.431,701.708 L29.473,702.75 C30.008,703.285 30.444,703.103 30.444,702.35 L30.444,699.373 C30.444,698.618 29.826,698 29.072,698 L29.072,698 Z M30.883,662.346 L29.778,661.241 C29.6284364,661.085043 29.4210719,660.997827 29.205,660.999885 C28.985,660.999885 28.793,661.08 28.633,661.241 L22.133,667.741 L19.491,665.099 C19.3417443,664.943197 19.134749,664.855984 18.919,664.858 C18.7030542,664.855447 18.4956663,664.942311 18.346,665.098 L17.241,666.204 C17.0851974,666.353256 16.9979844,666.560251 16.9999008,666.776 C16.9999008,666.997 17.08,667.188 17.241,667.349 L21.561,671.669 C21.721,671.829 21.912,671.909 22.133,671.909 C22.354,671.909 22.545,671.829 22.706,671.669 L30.883,663.491 C31.0387024,663.341675 31.1258963,663.134725 31.1241575,662.919 C31.1265533,662.703054 31.0396892,662.495666 30.884,662.346 L30.883,662.346 Z"/>
    <g fill-rule="nonzero" transform="translate(17 417)">
      <path fill="#B1B7C5" d="M12.9780003,6.49 C12.9783573,4.17170359 11.741891,2.02931876 9.73436603,0.869861155 C7.72684107,-0.289596453 5.25324825,-0.289977651 3.24536603,0.868861155 C1.23748381,2.02769996 0.00035726559,4.16970359 -3.55271368e-15,6.488 C-3.55271368e-15,10.0717757 2.90522426,12.977 6.489,12.977 C10.0727757,12.977 12.9780003,10.0717757 12.9780003,6.488 L12.9780003,6.49 Z"/>
      <path fill="#FFFFFF" d="M3.982,4.79 C3.982,4.472 4.084,4.15 4.288,3.825 C4.492,3.499 4.79,3.229 5.181,3.015 C5.571,2.801 6.028,2.695 6.549,2.695 C7.034,2.695 7.461,2.784 7.832,2.962 C8.203,3.142 8.49,3.384 8.692,3.692 C8.894,3.999 8.995,4.333 8.995,4.694 C8.995,4.978 8.938,5.227 8.823,5.441 C8.71450547,5.64545968 8.57558821,5.8322562 8.411,5.995 C8.253,6.151 7.968,6.412 7.557,6.78 C7.46101126,6.86587063 7.36987063,6.95701126 7.284,7.053 C7.215,7.132 7.164,7.203 7.131,7.269 C7.097,7.334 7.071,7.399 7.053,7.464 C7.034,7.529 7.007,7.644 6.97,7.807 C6.907,8.155 6.708,8.329 6.374,8.329 C6.21081453,8.33335705 6.05269134,8.27212484 5.935,8.159 C5.816,8.045 5.757,7.876 5.757,7.652 C5.757,7.372 5.8,7.128 5.887,6.922 C5.97001554,6.72322897 6.087108,6.54048352 6.233,6.382 C6.377,6.226 6.571,6.042 6.815,5.827 C7.029,5.64 7.183,5.499 7.279,5.404 C7.374,5.308 7.454,5.202 7.519,5.085 C7.58393822,4.96892333 7.61770142,4.83800479 7.617,4.705 C7.617,4.437 7.517,4.211 7.319,4.028 C7.119,3.844 6.863,3.752 6.549,3.752 C6.181,3.752 5.911,3.845 5.737,4.03 C5.563,4.216 5.417,4.489 5.296,4.85 C5.182,5.227 4.966,5.416 4.649,5.416 C4.47016482,5.41970655 4.29806042,5.34781484 4.175,5.218 C4.05576901,5.10706307 3.98620851,4.95280455 3.982,4.79 L3.982,4.79 Z M6.429,10.284 C6.23255672,10.2867855 6.04214077,10.2161819 5.895,10.086 C5.743,9.954 5.667,9.769 5.667,9.532 C5.667,9.322 5.74,9.144 5.887,9.001 C6.03078663,8.85830659 6.22648067,8.78031782 6.429,8.785 C6.639,8.785 6.816,8.857 6.96,9.001 C7.104,9.144 7.176,9.321 7.176,9.531 C7.176,9.766 7.101,9.95 6.95,10.083 C6.80792585,10.2132369 6.62172719,10.2847143 6.429,10.283 L6.429,10.284 Z"/>
    </g>
    <g fill-rule="nonzero" transform="translate(11 619)">
      <path fill="#959CA5" d="M10.264,14.123 L10.258,16.537 L7.149,13.417 L10.272,10.296 L10.267,12.894 L13.977,12.894 C14.9949561,12.8928977 15.8198977,12.0679561 15.821,11.05 C15.8198989,10.0324336 14.9955656,9.20765309 13.978,9.206 L12.92,9.206 L12.925,7.977 L13.978,7.977 C15.6744856,7.97865376 17.0493462,9.35351445 17.051,11.05 C17.0493462,12.7464856 15.6744856,14.1213462 13.978,14.123 L10.264,14.123 L10.264,14.123 Z"/>
      <path fill="#A1A7AF" d="M12.375,23.861 C18.693,23.861 23.815,18.739 23.815,12.421 C23.815,6.104 18.693,0.982 12.375,0.982 C6.058,0.982 0.935,6.104 0.935,12.422 C0.935,18.739 6.058,23.861 12.375,23.861 Z M12.375,23.031 C18.235,23.031 22.985,18.281 22.985,12.421 C22.985,6.562 18.235,1.812 12.375,1.812 C6.516,1.812 1.766,6.562 1.766,12.422 C1.766,18.281 6.516,23.031 12.376,23.031 L12.375,23.031 Z"/>
    </g>
    <polygon fill="#69A3E9" fill-rule="nonzero" points="25.104 604.753 27.804 602.051 26.454 600.701 23.753 603.402 21.052 600.701 19.702 602.051 22.402 604.753 19.701 607.454 21.051 608.805 23.753 606.103 26.456 608.806 27.806 607.456"/>
    <path fill="#525C69" fill-rule="nonzero" d="M28.132,573.486 L26.273,575.344 C25.780307,575.836921 25.1119347,576.113861 24.415,576.113861 C23.7180653,576.113861 23.049693,575.836921 22.557,575.344 C22.4021214,575.184918 22.268051,575.00683 22.158,574.814 L23.022,573.951 C23.062,573.909 23.113,573.886 23.162,573.858 C23.222,574.062 23.326,574.255 23.486,574.415 C23.9993454,574.927413 24.8306546,574.927413 25.344,574.415 L27.202,572.557 C27.6784317,572.038095 27.6613243,571.235918 27.1632033,570.737797 C26.6650822,570.239676 25.8629046,570.222568 25.344,570.699 L24.684,571.36 C24.1502396,571.15494 23.5723245,571.09222 23.007,571.178 L24.415,569.77 C25.4427362,568.752931 27.0990301,568.757139 28.1215843,569.779418 C29.1441386,570.801698 29.1487929,572.45799 28.132,573.486 L28.132,573.486 Z M23.218,576.542 L22.558,577.203 C22.0441967,577.716194 21.2118033,577.716194 20.698,577.203 C20.1854718,576.689312 20.1854718,575.857688 20.698,575.344 L22.558,573.486 C23.0712301,572.974252 23.9017699,572.974252 24.415,573.486 C24.575,573.646 24.68,573.839 24.74,574.043 C24.789,574.015 24.839,573.992 24.88,573.951 L25.743,573.087 C25.6333342,572.893917 25.4992284,572.715782 25.344,572.557 C24.3177655,571.531071 22.6542345,571.531071 21.628,572.557 L19.77,574.415 C18.7529305,575.442736 18.7571391,577.09903 19.7794183,578.121584 C20.8016975,579.144139 22.4579902,579.148793 23.486,578.132 L24.895,576.724 C24.3296775,576.809873 23.7517386,576.747151 23.218,576.542 L23.218,576.542 Z"/>
    <path fill="#468EE5" fill-rule="nonzero" d="M25.787,544.4 C26.788,544.4 27.607,543.581 27.607,542.58 L27.607,536.82 C27.607,535.82 26.788,535 25.787,535 L15.82,535 C14.818,535 13.999,535.82 13.999,536.82 L13.999,542.575 C13.999,543.577 14.819,544.396 15.819,544.396 L17.171,544.396 L17.171,547.592 C17.171,547.918 17.458,547.908 18.057,547.4 C18.407,547.108 19.715,545.608 20.76,544.396 L25.786,544.396 L25.786,544.401 L25.787,544.4 Z M30.195,538.929 L29.18,538.929 L29.18,543.395 C29.18,544.865 27.988,546.073 26.525,546.073 L21.215,546.073 L19.343,548.043 C19.623,548.224 19.961,548.335 20.317,548.335 L25.299,548.335 C26.335,549.547 27.636,551.047 27.979,551.339 C28.577,551.847 28.857,551.851 28.857,551.53 L28.857,548.335 L30.197,548.335 C31.189,548.335 32.001066,547.515 32.001066,546.514 L32.001066,540.75 C32.0033923,540.269081 31.8145026,539.806938 31.4759411,539.465375 C31.1373796,539.123813 30.6769215,538.930852 30.196,538.929 L30.195,538.929 Z M30.936,505 L16.028,505 C14.881,505.036 13.978,505.908 14.002,506.958 L14.002,516.042 C13.954,517.067 14.812,517.938 15.932,518 L30.973,518 C32.12,517.964 33.023,517.092 33,516.043 L33,506.994 C33.008,505.931 32.097,505.051 30.936,505 Z M29.14,506.808 L23.447,510.981 L17.754,506.808 L29.145,506.808 L29.14,506.808 L29.14,506.808 Z M31,515.598 C31.0051936,515.753278 30.9441112,515.903439 30.832,516.011 C30.7154107,516.123637 30.5601033,516.187335 30.398,516.189 L16.574,516.189 C16.4155845,516.183796 16.2652243,516.117924 16.154,516.005 C16.0474661,515.897249 15.9918291,515.749247 16.001,515.598 L16.001,507.955 C16.066,508.037 16.141,508.111 16.227,508.176 L22.843,513.088 C22.9806806,513.202692 23.1528809,513.26784 23.332,513.273 L23.632,513.273 C23.809,513.249 23.977,513.186 24.122,513.088 L30.737,508.176 C30.845,508.094 30.934,507.992 30.999,507.878 L30.999,515.597 L31,515.598 Z M27.332,483.448 C26.798,482.891 26.131,482.891 25.6,483.448 C25.195,483.871 24.892,484.008 24.494,484.438 C24.384,484.557 24.293,484.582 24.16,484.503 C23.898,484.352 23.619,484.23 23.367,484.065 C22.193,483.285 21.209,482.284 20.338,481.157 C19.906,480.597 19.521,479.997 19.252,479.322 C19.198,479.185 19.208,479.096 19.314,478.984 C19.719,478.572 19.854,478.421 20.254,477.997 C20.808,477.408 20.808,476.719 20.25,476.127 C19.933,475.789 19.627,475.323 19.37,474.957 C19.111,474.591 18.909,474.155 18.579,473.814 C18.044,473.265 17.377,473.265 16.846,473.818 C16.438,474.242 16.046,474.676 15.631,475.093 C15.247,475.477 15.053,475.947 15.011,476.496 C14.947,477.39 15.155,478.234 15.447,479.056 C16.047,480.758 16.959,482.27 18.065,483.656 C19.559,485.53 21.342,487.012 23.428,488.082 C24.368,488.563 25.341,488.933 26.4,488.994 C27.128,489.037 27.76,488.844 28.268,488.244 C28.615,487.834 29.007,487.461 29.374,487.07 C29.919,486.488 29.922,485.784 29.381,485.21 C28.734,484.524 27.982,484.13 27.332,483.447 L27.332,483.448 Z M27.056,480.365 L27.206,480.337 C27.536,480.278 27.744,479.931 27.652,479.593 C27.3934425,478.636097 26.9021843,477.758016 26.222,477.037 C25.5210464,476.28705 24.6247925,475.747497 23.634,475.479 C23.31,475.393 22.987,475.622 22.94,475.971 L22.919,476.132 C22.879,476.432 23.061,476.712 23.339,476.789 C24.0982112,476.998687 24.7847762,477.413948 25.323,477.989 C25.8456702,478.542416 26.2235304,479.216381 26.423,479.951 C26.4940184,480.232767 26.7693903,480.412869 27.056,480.365 L27.056,480.365 Z M28.498,474.7 C27.189,473.319 25.566,472.397 23.773,472.012 C23.457,471.944 23.153,472.174 23.109,472.511 L23.087,472.671 C23.0410261,472.973397 23.2337756,473.260785 23.531,473.333 C25.075,473.669 26.472,474.465 27.6,475.651 C28.6650409,476.777173 29.4058375,478.170313 29.744,479.683 C29.813,479.988 30.092,480.185 30.384,480.133 L30.534,480.106 C30.854,480.048 31.06,479.716 30.984,479.381 C30.591587,477.625415 29.732734,476.008242 28.498,474.7 Z"/>
    <path fill="#FFFFFF" fill-rule="nonzero" d="M23.153,170.332 L18.877,166.114 C18.6978321,165.983132 18.4603923,165.963845 18.2624521,166.064081 C18.064512,166.164317 17.9395414,166.367128 17.939,166.589 L17.939,168.962 L15.589,168.962 C15.2635426,168.962552 15,169.226542 15,169.552 L15,172.063 C15,172.389 15.264,172.653 15.59,172.653 L17.94,172.653 L17.94,175.026 C17.9408136,175.247518 18.0656414,175.449915 18.2632236,175.550077 C18.4608058,175.650239 18.6978441,175.631285 18.877,175.501 L23.153,171.283 C23.3039351,171.171796 23.3930357,170.995477 23.3930357,170.808 C23.3930357,170.620523 23.3039351,170.444204 23.153,170.333 L23.153,170.332 Z M24.227,171.283 L28.503,175.501 C28.6821679,175.631868 28.9196077,175.651155 29.1175479,175.550919 C29.315488,175.450683 29.4404586,175.247872 29.441,175.026 L29.441,172.653 L31.791,172.653 C32.116848,172.653 32.381,172.388848 32.381,172.063 L32.381,169.552 C32.381,169.226152 32.116848,168.962 31.791,168.962 L29.441,168.962 L29.441,166.589 C29.4404586,166.367128 29.315488,166.164317 29.1175479,166.064081 C28.9196077,165.963845 28.6821679,165.983132 28.503,166.114 L24.227,170.332 C24.0756664,170.443164 23.9862846,170.619725 23.9862846,170.8075 C23.9862846,170.995275 24.0756664,171.171836 24.227,171.283 L24.227,171.283 Z M25.745,17.63 C26.573,17.63 27.25,16.965 27.25,16.152 L27.25,11.478 C27.25,10.665 26.573,10 25.745,10 L17.505,10 C16.677,10 16,10.665 16,11.478 L16,16.148 C16,16.961 16.677,17.626 17.505,17.626 L18.622,17.626 L18.622,20.219 C18.622,20.484 18.86,20.476 19.355,20.064 C19.645,19.827 20.725,18.61 21.589,17.626 L25.745,17.626 L25.745,17.63 L25.745,17.63 Z M29.842,13 L29.014,13 L29.014,16.622 C29.0134652,17.8179942 28.046979,18.7889486 26.851,18.795 L22.525,18.795 L21,20.392 C21.228,20.54 21.503,20.629 21.793,20.629 L25.853,20.629 C26.696,21.612 27.756,22.829 28.035,23.066 C28.523,23.478 28.751,23.482 28.751,23.221 L28.751,20.63 L29.842,20.63 C30.651,20.63 31.3120252,19.965 31.3120252,19.153 L31.3120252,14.478 C31.3133281,14.0869898 31.1591357,13.7114958 30.8833994,13.434259 C30.6076632,13.1570222 30.2330116,13.0007941 29.842,13 L29.842,13 Z M29.974,101.999947 L17.026,101.999947 C16.4609706,102.007581 16.0053826,102.464945 16,103.03 L16,106.576 C16,107.121 16.453,107.606 17.026,107.606 L29.974,107.606 C30.5390294,107.598419 30.9946174,107.141055 31.0001426,106.576 L31.0001426,103.03 C31.0026843,102.756707 30.89558,102.49377 30.7027,102.300138 C30.50982,102.106506 30.2473009,101.998379 29.974,101.999947 L29.974,101.999947 Z M29.521,105.758 C29.521,105.939 29.371,106.091 29.189,106.091 L17.841,106.091 C17.6581587,106.08883 17.5106198,105.940847 17.509,105.758 L17.509,103.818 C17.509,103.636 17.66,103.485 17.841,103.485 L29.189,103.485 C29.37,103.485 29.521,103.636 29.521,103.818 L29.521,105.758 Z M29.974,109.393947 L17.026,109.393947 C16.4609706,109.401581 16.0053826,109.858945 16,110.424 L16,113.97 C16,114.515 16.453,115 17.026,115 L29.974,115 C30.5390294,114.992419 30.9946174,114.535055 31.0001426,113.97 L31.0001426,110.424 C31.0026843,110.150707 30.89558,109.88777 30.7027,109.694138 C30.50982,109.500506 30.2473009,109.392379 29.974,109.393947 Z M29.521,113.152 C29.521,113.333 29.371,113.485 29.189,113.485 L17.841,113.485 C17.6581587,113.48283 17.5106198,113.334847 17.509,113.152 L17.509,111.212 C17.509,111.03 17.66,110.879 17.841,110.879 L29.189,110.879 C29.37,110.879 29.521,111.03 29.521,111.212 L29.521,113.152 Z M28.656,231.174 L19.125,231.174 C18.936,231.174 18.785,231.04 18.785,230.871 L18.785,229.625 C18.785,229.456 18.936,229.321 19.125,229.321 L28.656,229.321 C28.844,229.321 28.996,229.456 28.996,229.625 L28.996,230.871 C29.033,231.04 28.844,231.174 28.656,231.174 L28.656,231.174 Z M28.656,234.889 L19.125,234.889 C18.936,234.889 18.785,234.754 18.785,234.585 L18.785,233.339 C18.785,233.17 18.936,233.036 19.125,233.036 L28.656,233.036 C28.844,233.036 28.996,233.17 28.996,233.339 L28.996,234.585 C29.033,234.754 28.844,234.889 28.656,234.889 L28.656,234.889 Z M29.301,227 L17.646,227 C16.748,227 16,227.674 16,228.482 L16,236.062 C16,236.871 16.748,237.544 17.646,237.544 L25.202,237.544 C25.314,237.544 25.389,237.578 25.464,237.646 L27.784,239.903 C28.008,240.105 28.382,239.97 28.382,239.701 L28.382,237.848 C28.382,237.679 28.532,237.544 28.718,237.544 L29.338,237.544 C30.236,237.544 30.984,236.871 30.984,236.062 L30.984,228.482 C30.947,227.674 30.198,227 29.301,227 Z M25.391,194.161 C25.391,192.761 24.58,192 23.155,192 C21.755,192 20.945,192.761 20.945,194.161 C20.945,195.561 21.755,196.371 23.155,196.371 C24.58,196.371 25.39,195.561 25.39,194.161 L25.391,194.161 Z M27,209.52 L27,207.58 L25.747,207.408 C25.379,207.358 25.354,207.309 25.354,206.916 L25.354,198.613 L20.27,198.613 L20,200.603 L21.326,201.069 C21.572,201.143 21.646,201.314 21.646,201.585 L21.646,206.916 C21.646,207.285 21.596,207.358 21.253,207.408 L20,207.579 L20,209.519 L27,209.519 L27,209.52 Z M30.153,71 L16.815,71 C15.789,71.033 14.981,71.838 15.002,72.807 L15.002,81.193 C14.959,82.139 15.727,82.943 16.728,83 L30.187,83 C31.212,82.967 32.02,82.162 32,81.194 L32,72.84 C32.007,71.858 31.192,71.046 30.153,70.999 L30.153,71 Z M28.546,72.669 L23.453,76.521 L18.359,72.669 L28.551,72.669 L28.546,72.669 Z M30.324,80.782 C30.3292997,80.9250415 30.2741253,81.0637035 30.172,81.164 C30.0664346,81.2675981 29.9248984,81.3263625 29.777,81.328 L17.2,81.328 C17.0554701,81.322881 16.9185487,81.2619474 16.818,81.158 C16.7205695,81.0579088 16.6697559,80.9214381 16.678,80.782 L16.678,73.728 C16.738,73.803 16.807,73.872 16.884,73.932 L22.904,78.466 C23.025,78.57 23.183,78.631 23.348,78.636 L23.621,78.636 C23.782,78.615 23.935,78.556 24.066,78.466 L30.086,73.932 C30.1824628,73.8569653 30.2630277,73.7634829 30.323,73.657 L30.323,80.782 L30.324,80.782 Z M27.844,49.016 C27.374,48.516 26.787,48.516 26.32,49.016 C25.964,49.396 25.698,49.519 25.348,49.906 C25.252,50.012 25.171,50.034 25.054,49.963 C24.824,49.828 24.579,49.718 24.357,49.57 C23.325,48.87 22.46,47.972 21.694,46.96 C21.314,46.457 20.976,45.919 20.739,45.313 C20.691,45.191 20.7,45.11 20.793,45.01 C21.149,44.64 21.269,44.504 21.619,44.124 C22.107,43.595 22.107,42.977 21.616,42.444 C21.338,42.142 21.069,41.724 20.842,41.394 C20.615,41.066 20.437,40.676 20.147,40.369 C19.677,39.876 19.09,39.876 18.623,40.373 C18.264,40.753 17.92,41.143 17.555,41.517 C17.217,41.861 17.046,42.284 17.01,42.777 C16.954,43.579 17.136,44.337 17.393,45.074 C17.92,46.602 18.723,47.959 19.695,49.203 C21.008,50.885 22.577,52.216 24.411,53.176 C25.237,53.608 26.093,53.94 27.024,53.995 C27.664,54.034 28.221,53.859 28.666,53.321 C28.972,52.954 29.316,52.619 29.639,52.267 C30.118,51.745 30.121,51.114 29.645,50.598 C29.076,49.983 28.415,49.628 27.843,49.016 L27.844,49.016 Z M27.481,45.993 L27.607,45.971 C27.740324,45.9460921 27.856984,45.8661648 27.9283542,45.7508306 C27.9997245,45.6354964 28.0191993,45.4954297 27.982,45.365 C27.7622113,44.5812061 27.348873,43.8652573 26.78,43.283 C26.1851539,42.669186 25.433129,42.2305625 24.606,42.015 C24.4748609,41.9825214 24.3360923,42.0076698 24.2246908,42.0841031 C24.1132893,42.1605363 24.0398886,42.2809586 24.023,42.415 L24.005,42.546 C23.9708071,42.7878595 24.1221898,43.0172921 24.358,43.081 C24.9920005,43.2494295 25.5682406,43.5871539 26.025,44.058 C26.464,44.507 26.779,45.053 26.95,45.656 C27.0146635,45.8872122 27.2431909,46.0325211 27.48,45.993 L27.481,45.993 Z M28.788,41.321 C27.6584605,40.1500169 26.203273,39.3452567 24.611,39.011 C24.4757591,38.9850525 24.3358145,39.0163802 24.2245438,39.0975111 C24.1132732,39.178642 24.0406517,39.3023029 24.024,39.439 L24.004,39.577 C23.9651975,39.8406742 24.1367611,40.0895069 24.397,40.147 C25.762,40.435 26.997,41.119 27.994,42.139 C28.9312595,43.0997057 29.5867519,44.2993086 29.889,45.607 C29.9446943,45.8663691 30.1942723,46.0362758 30.456,45.993 L30.588,45.97 C30.7251843,45.9433913 30.8454412,45.8616576 30.9206726,45.743896 C30.9959039,45.6261343 31.019519,45.4826615 30.986,45.347 C30.6350047,43.8293567 29.8748057,42.4369266 28.788,41.321 L28.788,41.321 Z M28.832,143.703 C28.832,143.987 28.6,144.207 28.302,144.207 L18.387,144.207 C18.089,144.207 17.857,143.987 17.857,143.703 L17.857,134.297 C17.857,134.013 18.089,133.793 18.387,133.793 L25.218,133.793 L27.108,132 L17.758,132 C16.796,132 16,132.755 16,133.667 L16,144.333 C16,145.245 16.796,146 17.757,146 L28.998,146 C29.96,146 30.756,145.245 30.756,144.333 L30.756,140.211 L28.866,142.004 L28.866,143.704 L28.832,143.704 L28.832,143.703 Z M31.817,134.297 L30.954,133.479 C30.722,133.259 30.358,133.259 30.159,133.479 L24.157,139.142 L21.471,136.593 C21.239,136.373 20.874,136.373 20.675,136.593 L19.813,137.411 C19.581,137.631 19.581,137.978 19.813,138.166 L23.793,141.942 C23.9362765,142.07278 24.1316093,142.130643 24.323,142.099 C24.4337777,142.072088 24.5361614,142.018147 24.621,141.942 L31.883,135.052 C32.049,134.862 32.049,134.517 31.817,134.297 L31.817,134.297 Z M8,0 L9,0 L9,1 L8,1 L8,0 Z M38,0 L39,0 L39,1 L38,1 L38,0 Z M23.635,920.999997 L13.968,920.999997 C13.7111891,920.999734 13.4648201,921.101634 13.2832272,921.283227 C13.1016344,921.46482 12.9997343,921.711189 12.9999985,921.968 L12.9999985,932.623 C12.9999985,933.158 13.432,933.591 13.968,933.591 L23.635,933.591 C23.8916377,933.591 24.1377496,933.488983 24.3191261,933.307419 C24.5005025,933.125855 24.6022654,932.879638 24.6020015,932.623 L24.6020015,921.968 C24.6022654,921.711362 24.5005025,921.465145 24.3191261,921.283581 C24.1377496,921.102017 23.8916377,920.999997 23.635,920.999997 Z M18.887,931.872003 C17.6473073,931.872531 16.4582513,931.380232 15.5817499,930.503543 C14.7052485,929.626854 14.2132037,928.437693 14.213997,927.198 C14.2134692,925.958481 14.7056312,924.769576 15.5821038,923.893104 C16.4585764,923.016631 17.6474807,922.524469 18.887,922.524997 C20.1266925,922.524204 21.3158539,923.016249 22.1925428,923.89275 C23.0692318,924.769251 23.5615311,925.958307 23.561003,927.198 C23.5617966,928.437866 23.0696145,929.627179 22.1928967,930.503897 C21.316179,931.380615 20.1268659,931.872797 18.887,931.872003 L18.887,931.872003 Z M19.568,927.208 C19.928,926.94 20.176,926.446 20.176,925.89 C20.176,925.036 19.609,924.346 18.899,924.346 C18.199,924.346 17.622,925.036 17.622,925.89 C17.622,926.446 17.87,926.93 18.23,927.208 C17.036,927.342 16.15,927.888 16.15,929.432 C16.15,929.71 18.878,929.668 18.878,929.668 C18.878,929.668 21.638,929.689 21.638,929.432 C21.638,927.887 20.762,927.332 19.568,927.208 L19.568,927.208 Z M28.059,924.6 L33.096,924.6 C33.6333731,924.6 34.069,924.164373 34.069,923.627 C34.069,923.089627 33.6333731,922.654 33.096,922.654 L28.06,922.654 C27.5226269,922.654 27.087,923.089627 27.087,923.627 C27.087,924.164373 27.5226269,924.6 28.06,924.6 L28.059,924.6 Z M33.096,925.859 L28.06,925.859 C27.5226269,925.859 27.087,926.294627 27.087,926.832 C27.087,927.369373 27.5226269,927.805 28.06,927.805 L33.097,927.805 C33.6343731,927.805 34.07,927.369373 34.07,926.832 C34.07,926.294627 33.6343731,925.859 33.097,925.859 L33.096,925.859 Z M31.876,928.949 L27.862,928.949 C27.433,928.949 27.086,929.385 27.086,929.923 C27.086,930.461 27.433,930.896 27.862,930.896 L31.876,930.896 C32.306,930.896 32.652,930.461 32.652,929.923 C32.652,929.385 32.305,928.95 31.876,928.95 L31.876,928.949 Z"/>
    <path fill="#A8ADB4" fill-rule="nonzero" d="M17.989,954 L26,954 L26,955 L17.989,955 L17.989,954 Z M29.556,954.5 L26.016,957.5 L26.016,951.5 L29.556,954.5 Z" opacity=".8"/>
    <path fill="#FFFFFF" fill-rule="nonzero" d="M20.202,1099.682 L18.424,1099.672 L18.424,1096.549 L20.376,1096.549 L20.376,1093.959 L17.738,1093.959 C16.6878172,1093.96229 15.8372939,1094.81282 15.834,1095.863 L15.834,1099.659 L14,1099.649 L17.1,1102.775 L20.202,1099.682 L20.202,1099.682 Z M29.895,1100.816 L26.789,1103.862 L28.703,1103.866 L28.703,1107.09 L26.624,1107.09 L26.624,1109.633 L29.389,1109.633 C30.437,1109.633 31.293,1108.792 31.293,1107.763 L31.293,1103.872 L33,1103.876 L29.895,1100.816 L29.895,1100.816 Z M21.129,1107.091 L18.234,1107.091 L18.234,1105.145 L15.822,1105.145 L15.822,1107.742 C15.822,1108.734 16.619,1109.546 17.594,1109.546 L21.115,1109.546 L21.107,1111 L24.019,1108.061 L21.139,1105.123 L21.129,1107.091 Z M28.895,1098.857 L31.305,1098.857 L31.305,1095.998 C31.305,1094.874 30.508,1093.955 29.534,1093.955 L26.005,1093.955 L26.009,1092 L23.109,1095.334 L25.996,1098.668 L25.999,1096.734 L28.895,1096.734 L28.895,1098.857 L28.895,1098.857 Z"/>
    <path fill="#828B95" fill-rule="nonzero" d="M28.384,874.838 L25.75,872.204 C25.4581425,871.919362 24.991706,871.922172 24.7032988,872.210305 C24.4148917,872.498439 24.4116391,872.964872 24.696,873.257 L25.235,873.796 L21.009,876.947 L20.479,876.417 C20.1868725,876.132639 19.7204388,876.135892 19.4323053,876.424299 C19.1441717,876.712706 19.141362,877.179143 19.426,877.471 L21.039,879.084 L18.064,882.265 C18.0122102,882.311407 17.990267,882.382611 18.0069513,882.450119 C18.0236355,882.517628 18.076222,882.570413 18.1436671,882.587351 C18.2111121,882.60429 18.2823987,882.582615 18.329,882.531 L21.501,879.546 L23.112,881.156 C23.4041275,881.440361 23.8705612,881.437108 24.1586947,881.148701 C24.4468283,880.860294 24.449638,880.393857 24.165,880.102 L23.635,879.573 L26.787,875.348 L27.329,875.891 C27.5171003,876.079458 27.7914531,876.153249 28.0487124,876.084578 C28.3059716,876.015908 28.5070535,875.815207 28.5762124,875.558078 C28.6453713,875.30095 28.5721003,875.026458 28.384,874.838 L28.384,874.838 Z"/>
    <path fill="#468EE5" fill-rule="nonzero" d="M26.843,824.016 C27.415,824.628 28.076,824.983 28.645,825.598 C29.121,826.114 29.118,826.745 28.639,827.268 C28.316,827.618 27.972,827.954 27.666,828.321 C27.221,828.859 26.664,829.034 26.024,828.995 C25.093,828.94 24.237,828.608 23.411,828.176 C21.577,827.216 20.008,825.885 18.695,824.203 C17.722,822.959 16.92,821.602 16.393,820.074 C16.136,819.337 15.953,818.579 16.01,817.777 C16.046,817.284 16.217,816.861 16.555,816.517 C16.92,816.143 17.265,815.753 17.623,815.373 C18.09,814.876 18.677,814.876 19.147,815.369 C19.437,815.676 19.615,816.066 19.842,816.395 C20.069,816.723 20.338,817.142 20.616,817.445 C21.106,817.977 21.106,818.595 20.619,819.124 C20.269,819.504 20.149,819.639 19.793,820.01 C19.7,820.11 19.691,820.19 19.739,820.313 C19.976,820.919 20.314,821.457 20.694,821.96 C21.46,822.972 22.324,823.87 23.357,824.57 C23.579,824.718 23.824,824.828 24.054,824.963 C24.171,825.034 24.252,825.012 24.348,824.905 C24.698,824.519 24.964,824.396 25.32,824.015 C25.787,823.516 26.374,823.516 26.843,824.015 L26.843,824.016 Z M26.481,820.993 C26.243845,821.033081 26.0146983,820.887653 25.95,820.656 C25.7803031,820.054297 25.4622462,819.504832 25.025,819.058 C24.5682406,818.587154 23.9920005,818.24943 23.358,818.081 C23.1221898,818.017292 22.9708071,817.787859 23.005,817.546 L23.023,817.416 C23.0396299,817.281776 23.1129229,817.161092 23.2243577,817.084445 C23.3357925,817.007798 23.474708,816.98252 23.606,817.015 C24.426,817.228 25.17,817.66 25.78,818.283 C26.348873,818.865257 26.7622113,819.581206 26.982,820.365 C27.0191993,820.49543 26.9997245,820.635496 26.9283542,820.750831 C26.856984,820.866165 26.740324,820.946092 26.607,820.971 L26.481,820.993 L26.481,820.993 Z M27.788,816.321 C28.8748057,817.436927 29.6350047,818.829357 29.986,820.347 C30.019519,820.482661 29.9959039,820.626134 29.9206726,820.743896 C29.8454412,820.861658 29.7251843,820.943391 29.588,820.97 L29.456,820.993 C29.1942723,821.036276 28.9446943,820.866369 28.889,820.607 C28.5867519,819.299309 27.9312595,818.099706 26.994,817.139 C26.0198849,816.131729 24.767522,815.437829 23.397,815.146 C23.1376036,815.088084 22.9666981,814.840009 23.005,814.577 L23.024,814.439 C23.0403988,814.302121 23.1129141,814.178203 23.2242158,814.096859 C23.3355175,814.015516 23.4756052,813.984057 23.611,814.01 C25.2033911,814.344534 26.6585919,815.14965 27.788,816.321 L27.788,816.321 Z"/>
    <path fill="#FFF" fill-rule="evenodd" d="M21.8063829,21.7738365 C22.1426112,21.9800322 22.3779845,22.3210661 22.4261387,22.7152517 L22.435252,22.8654033 L22.434748,24.1168365 L18.5290712,24.1177096 C17.4747094,24.1177096 16.6109061,24.9335874 16.5345569,25.9684473 L16.5290712,26.1177096 L16.5290712,26.8026056 C16.5290712,27.8569674 17.344949,28.7207708 18.3798089,28.7971199 L18.5290712,28.8026056 L22.434748,28.8018365 L22.435252,30.2691449 C22.435252,30.9440571 21.888591,31.5004221 21.1914238,31.5635415 L21.0590379,31.5695046 L10.298561,31.5695046 C9.39130343,31.5695046 8.64695103,30.8729026 8.57111133,29.9853062 L8.564748,29.8356916 L8.564748,21.7748365 L21.8063829,21.7738365 Z M22.434748,25.0738365 L22.434748,27.8458365 L17.5010887,27.8462256 L17.5010887,25.0740897 L22.434748,25.0738365 Z M19.8345325,25.4661228 C19.3558376,25.4661228 18.967626,25.8543344 18.967626,26.3330293 C18.967626,26.8117242 19.3558376,27.1999358 19.8345325,27.1999358 C20.3132274,27.1999358 20.701439,26.8117242 20.701439,26.3330293 C20.701439,25.8543344 20.3132274,25.4661228 19.8345325,25.4661228 Z M19.9435256,17.5574485 L20.816707,20.8194485 L10.292707,20.8194485 L10.123707,20.188661 L19.9435256,17.5574485 Z" transform="translate(8 1300)"/>
    <path fill="#FFF" fill-rule="evenodd" d="M2.592 13.828l.641.03h9.593l-.03-.642c-.087-1.063-.831-1.836-1.886-1.9l-.641-.031H4.512l7.673-7.738-.03-.643c-.05-1.071-.828-1.848-1.886-1.901L9.627.968H.034l.03.643C.148 2.66.903 3.451 1.95 3.512l.642.03h5.756L.675 11.278l.03.643c.065 1.07.824 1.84 1.887 1.908z" transform="translate(17 1350)"/>
  </g>
</svg>
