<svg xmlns="http://www.w3.org/2000/svg" width="19" height="11" viewBox="0 0 19 11">
  <path fill="#FFFFFF" fill-rule="evenodd" d="M13.9317672,10.8893134 L13.9317672,12.7083134 L11.2097679,12.7085886 C9.6681139,12.7085886 8.41835643,13.958346 8.41835643,15.5 C8.41835643,16.9845557 9.57725362,18.1984364 11.0397229,18.2863171 L11.2097679,18.2914114 L13.9317672,18.2913134 L13.9317672,20.1103134 L11.2484539,20.1106866 C8.70204197,20.1106866 6.63776725,18.0464119 6.63776725,15.5 C6.63776725,12.9535881 8.70204197,10.8893134 11.2484539,10.8893134 L13.9317672,10.8893134 Z M19.7515461,10.8893134 C22.297958,10.8893134 24.3622328,12.9535881 24.3622328,15.5 C24.3622328,18.0464119 22.297958,20.1106866 19.7515461,20.1106866 L17.0677672,20.1103134 L17.0677672,18.2913134 L19.7902321,18.2914114 C21.3318861,18.2914114 22.5816436,17.041654 22.5816436,15.5 C22.5816436,13.958346 21.3318861,12.7085886 19.7902321,12.7085886 L17.0677672,12.7083134 L17.0677672,10.8893134 L19.7515461,10.8893134 Z M11.9020287,14.5578439 L19.0979713,14.5578439 C19.6183098,14.5578439 20.0401274,14.9796616 20.0401274,15.5 C20.0401274,16.0203384 19.6183098,16.4421561 19.0979713,16.4421561 L11.9020287,16.4421561 C11.3816902,16.4421561 10.9598726,16.0203384 10.9598726,15.5 C10.9598726,14.9796616 11.3816902,14.5578439 11.9020287,14.5578439 Z" transform="translate(-6 -10)"/>
</svg>
