<svg xmlns="http://www.w3.org/2000/svg" width="13" height="15" viewBox="0 0 13 15">
  <path fill="#828A94" fill-rule="evenodd" d="M3.9730007,4.94508216 L3.9730007,10.3126644 C3.9730007,12.2254761 5.49769608,13.7761163 7.37850315,13.7761163 C9.25931022,13.7761163 10.7840056,12.2254761 10.7840056,10.3126644 L10.7840056,3.03092099 C10.7840056,1.86059948 9.85114647,0.911866439 8.70040643,0.911866439 C7.54966638,0.911866439 6.61680726,1.86059948 6.61680726,3.03092099 L6.61680726,9.17832341 C6.61680726,9.79918741 7.11169575,10.3024971 7.72217163,10.3024971 C8.33264752,10.3024971 8.54866819,9.799187 8.54866819,9.178323 L8.54866819,4.42369984 C8.54866819,4.15044103 8.76648123,3.92892048 9.03516795,3.92892048 C9.30385468,3.92892048 9.52166842,4.15044033 9.52166842,4.42369914 L9.52166842,9.1783237 C9.52166842,10.3457053 8.87002097,11.2920548 7.72217163,11.2920548 C6.5743223,11.2920548 5.64380656,10.345705 5.64380656,9.17832341 L5.64380656,3.03092099 C5.64380656,1.31408186 7.01229293,-0.0776912427 8.70040643,-0.0776912427 C10.3885199,-0.0776912427 11.7570063,1.31408186 11.7570063,3.03092099 L11.7570063,10.3126644 C11.7570063,12.7719937 9.79668366,14.765674 7.37850315,14.765674 C4.96032263,14.765674 3,12.7719937 3,10.3126644 L3,4.94508216 C3,4.67182336 3.21781363,4.45030332 3.48650035,4.45030332 C3.75518707,4.45030332 3.9730007,4.67182336 3.9730007,4.94508216 Z" transform="rotate(135 7.379 7.344)"/>
</svg>
