<svg xmlns="http://www.w3.org/2000/svg" width="19" height="14" viewBox="0 0 19 14">
  <path fill="#FFFFFF" fill-rule="evenodd" d="M8.86223275,3.74905333 C11.6236565,3.74905333 13.8622328,5.98762958 13.8622328,8.74905333 C13.8622328,11.5104771 11.6236565,13.7490533 8.86223275,13.7490533 C6.100809,13.7490533 3.86223275,11.5104771 3.86223275,8.74905333 C3.86223275,5.98762958 6.100809,3.74905333 8.86223275,3.74905333 Z M10.9661941,5.5931113 L8.86223275,7.69707265 L6.7582714,5.5931113 L5.70629073,6.64509198 L7.81025208,8.74905333 L5.70629073,10.8530147 L6.7582714,11.9049953 L8.86223275,9.801034 L10.9661941,11.9049953 L12.0181748,10.8530147 L9.91421342,8.74905333 L12.0181748,6.64509198 L10.9661941,5.5931113 Z M7.294,-5.41788836e-13 L7.294,1.819 L4.57200062,1.81927519 C3.03034665,1.81927519 1.78058918,3.06903266 1.78058918,4.61068663 C1.78058918,5.60402902 2.29944881,6.47618526 3.08093292,6.97092021 C2.90769899,7.53192709 2.81456996,8.12961448 2.81456996,8.74905333 L2.81698793,8.85946065 C1.161617,8.15975488 5.06688025e-11,6.52087585 5.06688025e-11,4.61068663 C5.06688025e-11,2.06427472 2.06427472,-5.41788836e-13 4.61068663,-5.41788836e-13 L7.294,-5.41788836e-13 Z M13.1137789,-5.41788836e-13 C15.6601908,-5.41788836e-13 17.7244655,2.06427472 17.7244655,4.61068663 C17.7244655,6.52087585 16.5628485,8.15975488 14.9074776,8.85946065 L14.9098955,8.74905333 L14.9098955,8.74905333 C14.9098955,8.12961448 14.8167665,7.53192709 14.6437461,6.96922876 C15.4252831,6.47573745 15.9438763,5.60377401 15.9438763,4.61068663 C15.9438763,3.06903266 14.6941188,1.81927519 13.1524649,1.81927519 L10.43,1.819 L10.43,-5.41788836e-13 L13.1137789,-5.41788836e-13 Z" transform="translate(.638 .098)"/>
</svg>
