<svg xmlns="http://www.w3.org/2000/svg" width="10" height="10" viewBox="0 0 10 10">
  <path fill="#FFFFFF" fill-rule="evenodd" d="M9.97583938,6.21099502 C9.84042268,6.21099502 9.73208932,6.10733824 9.73208932,5.97776727 L9.73208932,5.01894204 C9.73208932,4.88937107 9.84042268,4.78571429 9.97583938,4.78571429 L16.1551277,4.78571429 C16.2905444,4.78571429 16.3988777,4.88937107 16.3988777,5.01894204 L16.3988777,5.97776727 C16.4259611,6.10733824 16.2905444,6.21099502 16.1551277,6.21099502 L9.97583938,6.21099502 Z M9.97683846,9.06813788 C9.84086672,9.06813788 9.73208932,8.9644811 9.73208932,8.83491012 L9.73208932,7.8760849 C9.73208932,7.74651392 9.84086672,7.64285714 9.97683846,7.64285714 L16.1814543,7.64285714 C16.3174261,7.64285714 16.4262035,7.74651392 16.4262035,7.8760849 L16.4262035,8.83491012 C16.4533978,8.9644811 16.3174261,9.06813788 16.1814543,9.06813788 L9.97683846,9.06813788 Z M9.20829194,3 C8.54922361,3 8,3.5182839 8,4.14022459 L8,9.84993278 C8,10.4718735 8.54922361,10.9901574 9.20829194,10.9901574 L13.6508112,10.9901574 C13.7331948,10.9901574 13.7881171,11.0160716 13.8430395,11.0679 L15.5456327,12.804151 C15.7103998,12.9596362 15.9850116,12.8559794 15.9850116,12.6486659 L15.9850116,11.2233851 C15.9850116,11.0938142 16.0948563,10.9901574 16.2321622,10.9901574 L16.7917081,10.9901574 C17.4507764,10.9901574 18,10.4718735 18,9.84993278 L18,4.14022459 C17.9725388,3.5182839 17.4233152,3 16.7642469,3 L9.20829194,3 Z" transform="translate(-8 -3)" opacity=".936"/>
</svg>
